<svg xmlns="http://www.w3.org/2000/svg" width="1120" height="1054" viewBox="0 0 1120 1054">
<style>
text{font-family:Arial,Helvetica,sans-serif}.title{font-size:21px;font-weight:700;fill:#1f2937}.subtitle{font-size:12px;fill:#4b5563}.panel-title{font-size:15px;font-weight:700;fill:#111827}.muted{font-size:13px;fill:#6b7280}.plot-bg{fill:#f8fafc;stroke:#cbd5e1;stroke-width:1}.up-body{fill:#15803d;stroke:#14532d;stroke-width:.8}.down-body{fill:#b91c1c;stroke:#7f1d1d;stroke-width:.8}.up-wick{stroke:#14532d;stroke-width:1}.down-wick{stroke:#7f1d1d;stroke-width:1}.sweep-line{stroke:#7c3aed;stroke-width:1.6;stroke-dasharray:6 4}.number-line{stroke:#0f766e;stroke-width:1.4;stroke-dasharray:3 4}.entry-line{stroke:#2563eb;stroke-width:1.4}.sl-line{stroke:#dc2626;stroke-width:1.4}.tp-line{stroke:#16a34a;stroke-width:1.4}.level-label,.axis-label{font-size:11px;fill:#374151}
</style>
<text x="28" y="28" class="title">Adelin v2 visual review sample sample_022</text>
<text x="28" y="48" class="subtitle">Candidate windows are for visual labeling only and are not trade signals.</text>
<text x="560" y="48" class="subtitle" text-anchor="middle">NUMBER_THEORY_LEVEL_NEAR | ROUND_LEVEL_ENTRY_METADATA_AVAILABLE</text>
<text x="70" y="82" class="panel-title">H1 liquidity context</text>
<rect x="70" y="96" width="1010" height="192" class="plot-bg"/>
<line x1="80.98" y1="114.41" x2="80.98" y2="141.44" class="up-wick"/>
<rect x="76.98" y="115.01" width="8.00" height="23.64" class="up-body"/>
<line x1="102.93" y1="109.54" x2="102.93" y2="121.62" class="up-wick"/>
<rect x="98.93" y="111.42" width="8.00" height="3.59" class="up-body"/>
<line x1="124.89" y1="109.24" x2="124.89" y2="129.34" class="down-wick"/>
<rect x="120.89" y="111.44" width="8.00" height="15.88" class="down-body"/>
<line x1="146.85" y1="119.45" x2="146.85" y2="143.38" class="down-wick"/>
<rect x="142.85" y="127.32" width="8.00" height="10.02" class="down-body"/>
<line x1="168.80" y1="116.40" x2="168.80" y2="138.40" class="up-wick"/>
<rect x="164.80" y="134.30" width="8.00" height="3.03" class="up-body"/>
<line x1="190.76" y1="125.25" x2="190.76" y2="146.00" class="up-wick"/>
<rect x="186.76" y="130.42" width="8.00" height="3.88" class="up-body"/>
<line x1="212.72" y1="130.17" x2="212.72" y2="154.50" class="down-wick"/>
<rect x="208.72" y="130.42" width="8.00" height="14.50" class="down-body"/>
<line x1="234.67" y1="144.80" x2="234.67" y2="186.00" class="down-wick"/>
<rect x="230.67" y="145.00" width="8.00" height="30.07" class="down-body"/>
<line x1="256.63" y1="165.30" x2="256.63" y2="212.42" class="up-wick"/>
<rect x="252.63" y="168.39" width="8.00" height="6.68" class="up-body"/>
<line x1="278.59" y1="153.27" x2="278.59" y2="176.81" class="up-wick"/>
<rect x="274.59" y="156.64" width="8.00" height="11.75" class="up-body"/>
<line x1="300.54" y1="156.57" x2="300.54" y2="184.14" class="down-wick"/>
<rect x="296.54" y="156.64" width="8.00" height="18.95" class="down-body"/>
<line x1="322.50" y1="164.76" x2="322.50" y2="179.19" class="up-wick"/>
<rect x="318.50" y="165.17" width="8.00" height="10.42" class="up-body"/>
<line x1="344.46" y1="171.26" x2="344.46" y2="208.72" class="down-wick"/>
<rect x="340.46" y="192.04" width="8.00" height="7.13" class="down-body"/>
<line x1="366.41" y1="167.36" x2="366.41" y2="199.49" class="up-wick"/>
<rect x="362.41" y="193.57" width="8.00" height="5.52" class="up-body"/>
<line x1="388.37" y1="189.59" x2="388.37" y2="234.16" class="down-wick"/>
<rect x="384.37" y="193.57" width="8.00" height="6.64" class="down-body"/>
<line x1="410.33" y1="192.21" x2="410.33" y2="208.78" class="down-wick"/>
<rect x="406.33" y="200.21" width="8.00" height="5.78" class="down-body"/>
<line x1="432.28" y1="201.93" x2="432.28" y2="223.84" class="down-wick"/>
<rect x="428.28" y="206.02" width="8.00" height="14.28" class="down-body"/>
<line x1="454.24" y1="205.46" x2="454.24" y2="229.86" class="up-wick"/>
<rect x="450.24" y="212.99" width="8.00" height="7.31" class="up-body"/>
<line x1="476.20" y1="209.31" x2="476.20" y2="253.37" class="down-wick"/>
<rect x="472.20" y="212.99" width="8.00" height="28.96" class="down-body"/>
<line x1="498.15" y1="236.54" x2="498.15" y2="274.76" class="down-wick"/>
<rect x="494.15" y="241.94" width="8.00" height="9.95" class="down-body"/>
<line x1="520.11" y1="226.47" x2="520.11" y2="256.08" class="up-wick"/>
<rect x="516.11" y="233.59" width="8.00" height="18.30" class="up-body"/>
<line x1="542.07" y1="219.35" x2="542.07" y2="239.17" class="up-wick"/>
<rect x="538.07" y="221.62" width="8.00" height="11.95" class="up-body"/>
<line x1="564.02" y1="201.43" x2="564.02" y2="229.94" class="up-wick"/>
<rect x="560.02" y="204.10" width="8.00" height="17.52" class="up-body"/>
<line x1="585.98" y1="200.87" x2="585.98" y2="217.93" class="down-wick"/>
<rect x="581.98" y="204.10" width="8.00" height="3.08" class="down-body"/>
<line x1="607.93" y1="190.79" x2="607.93" y2="207.64" class="up-wick"/>
<rect x="603.93" y="193.80" width="8.00" height="13.38" class="up-body"/>
<line x1="629.89" y1="183.39" x2="629.89" y2="198.86" class="up-wick"/>
<rect x="625.89" y="187.46" width="8.00" height="6.34" class="up-body"/>
<line x1="651.85" y1="185.39" x2="651.85" y2="215.26" class="down-wick"/>
<rect x="647.85" y="187.46" width="8.00" height="19.63" class="down-body"/>
<line x1="673.80" y1="187.48" x2="673.80" y2="212.89" class="up-wick"/>
<rect x="669.80" y="204.16" width="8.00" height="2.93" class="up-body"/>
<line x1="695.76" y1="198.33" x2="695.76" y2="226.94" class="down-wick"/>
<rect x="691.76" y="204.16" width="8.00" height="22.07" class="down-body"/>
<line x1="717.72" y1="206.54" x2="717.72" y2="231.56" class="up-wick"/>
<rect x="713.72" y="216.04" width="8.00" height="10.19" class="up-body"/>
<line x1="739.67" y1="205.31" x2="739.67" y2="218.11" class="up-wick"/>
<rect x="735.67" y="214.25" width="8.00" height="1.79" class="up-body"/>
<line x1="761.63" y1="214.20" x2="761.63" y2="226.63" class="down-wick"/>
<rect x="757.63" y="214.25" width="8.00" height="3.60" class="down-body"/>
<line x1="783.59" y1="205.60" x2="783.59" y2="223.73" class="up-wick"/>
<rect x="779.59" y="211.68" width="8.00" height="6.17" class="up-body"/>
<line x1="805.54" y1="208.33" x2="805.54" y2="220.10" class="down-wick"/>
<rect x="801.54" y="211.66" width="8.00" height="7.35" class="down-body"/>
<line x1="827.50" y1="211.31" x2="827.50" y2="220.96" class="up-wick"/>
<rect x="823.50" y="217.67" width="8.00" height="1.32" class="up-body"/>
<line x1="849.46" y1="191.67" x2="849.46" y2="217.67" class="up-wick"/>
<rect x="845.46" y="191.94" width="8.00" height="25.73" class="up-body"/>
<line x1="871.41" y1="179.42" x2="871.41" y2="193.73" class="up-wick"/>
<rect x="867.41" y="190.58" width="8.00" height="1.36" class="up-body"/>
<line x1="893.37" y1="173.60" x2="893.37" y2="193.64" class="up-wick"/>
<rect x="889.37" y="176.92" width="8.00" height="13.65" class="up-body"/>
<line x1="915.33" y1="176.86" x2="915.33" y2="198.33" class="down-wick"/>
<rect x="911.33" y="176.92" width="8.00" height="12.99" class="down-body"/>
<line x1="937.28" y1="183.23" x2="937.28" y2="196.89" class="up-wick"/>
<rect x="933.28" y="184.15" width="8.00" height="5.77" class="up-body"/>
<line x1="959.24" y1="180.57" x2="959.24" y2="186.02" class="down-wick"/>
<rect x="955.24" y="184.16" width="8.00" height="1.00" class="down-body"/>
<line x1="981.20" y1="176.78" x2="981.20" y2="184.18" class="up-wick"/>
<rect x="977.20" y="180.60" width="8.00" height="3.58" class="up-body"/>
<line x1="1003.15" y1="165.25" x2="1003.15" y2="182.48" class="up-wick"/>
<rect x="999.15" y="168.07" width="8.00" height="12.53" class="up-body"/>
<line x1="1025.11" y1="156.44" x2="1025.11" y2="170.18" class="up-wick"/>
<rect x="1021.11" y="160.11" width="8.00" height="8.02" class="up-body"/>
<line x1="1047.07" y1="152.85" x2="1047.07" y2="164.30" class="down-wick"/>
<rect x="1043.07" y="160.11" width="8.00" height="1.04" class="down-body"/>
<line x1="1069.02" y1="158.12" x2="1069.02" y2="167.36" class="up-wick"/>
<rect x="1065.02" y="160.36" width="8.00" height="1.00" class="up-body"/>
<line x1="70" y1="210.68" x2="1080" y2="210.68" class="number-line"/>
<text x="1076" y="206.68" text-anchor="end" class="level-label">round 4690.00</text>
<line x1="70" y1="210.68" x2="1080" y2="210.68" class="entry-line"/>
<text x="1076" y="206.68" text-anchor="end" class="level-label">entry level 4690.00</text>
<text x="70" y="306" class="axis-label">2026-01-30 12:00:00+00:00 to 2026-02-03 11:00:00+00:00</text>
<text x="1080" y="306" text-anchor="end" class="axis-label">4342.65 - 5205.23</text>
<text x="70" y="332" class="panel-title">M15 liquidity / reaction context</text>
<rect x="70" y="346" width="1010" height="192" class="plot-bg"/>
<line x1="77.65" y1="365.25" x2="77.65" y2="418.64" class="down-wick"/>
<rect x="73.65" y="397.28" width="8.00" height="11.21" class="down-body"/>
<line x1="92.95" y1="402.33" x2="92.95" y2="422.99" class="down-wick"/>
<rect x="88.95" y="408.47" width="8.00" height="4.76" class="down-body"/>
<line x1="108.26" y1="391.95" x2="108.26" y2="417.30" class="up-wick"/>
<rect x="104.26" y="397.04" width="8.00" height="16.20" class="up-body"/>
<line x1="123.56" y1="395.79" x2="123.56" y2="414.92" class="down-wick"/>
<rect x="119.56" y="397.03" width="8.00" height="11.24" class="down-body"/>
<line x1="138.86" y1="372.52" x2="138.86" y2="408.77" class="up-wick"/>
<rect x="134.86" y="372.72" width="8.00" height="35.44" class="up-body"/>
<line x1="154.17" y1="359.24" x2="154.17" y2="378.87" class="up-wick"/>
<rect x="150.17" y="372.32" width="8.00" height="1.00" class="up-body"/>
<line x1="169.47" y1="372.01" x2="169.47" y2="389.90" class="down-wick"/>
<rect x="165.47" y="372.26" width="8.00" height="14.62" class="down-body"/>
<line x1="184.77" y1="385.64" x2="184.77" y2="402.08" class="down-wick"/>
<rect x="180.77" y="386.83" width="8.00" height="12.81" class="down-body"/>
<line x1="200.08" y1="393.50" x2="200.08" y2="462.19" class="down-wick"/>
<rect x="196.08" y="399.64" width="8.00" height="42.43" class="down-body"/>
<line x1="215.38" y1="419.31" x2="215.38" y2="442.34" class="up-wick"/>
<rect x="211.38" y="423.53" width="8.00" height="18.31" class="up-body"/>
<line x1="230.68" y1="408.73" x2="230.68" y2="433.66" class="up-wick"/>
<rect x="226.68" y="417.39" width="8.00" height="6.13" class="up-body"/>
<line x1="245.98" y1="405.46" x2="245.98" y2="420.80" class="up-wick"/>
<rect x="241.98" y="409.86" width="8.00" height="7.57" class="up-body"/>
<line x1="261.29" y1="405.70" x2="261.29" y2="422.93" class="down-wick"/>
<rect x="257.29" y="409.87" width="8.00" height="1.84" class="down-body"/>
<line x1="276.59" y1="406.82" x2="276.59" y2="417.31" class="up-wick"/>
<rect x="272.59" y="409.47" width="8.00" height="2.26" class="up-body"/>
<line x1="291.89" y1="397.54" x2="291.89" y2="410.33" class="up-wick"/>
<rect x="287.89" y="400.43" width="8.00" height="8.82" class="up-body"/>
<line x1="307.20" y1="400.42" x2="307.20" y2="423.08" class="down-wick"/>
<rect x="303.20" y="400.43" width="8.00" height="18.35" class="down-body"/>
<line x1="322.50" y1="412.84" x2="322.50" y2="425.72" class="down-wick"/>
<rect x="318.50" y="418.82" width="8.00" height="6.33" class="down-body"/>
<line x1="337.80" y1="412.51" x2="337.80" y2="435.72" class="up-wick"/>
<rect x="333.80" y="423.86" width="8.00" height="1.29" class="up-body"/>
<line x1="353.11" y1="422.42" x2="353.11" y2="446.29" class="down-wick"/>
<rect x="349.11" y="423.86" width="8.00" height="10.32" class="down-body"/>
<line x1="368.41" y1="424.47" x2="368.41" y2="443.29" class="down-wick"/>
<rect x="364.41" y="434.13" width="8.00" height="6.70" class="down-body"/>
<line x1="383.71" y1="434.99" x2="383.71" y2="455.57" class="up-wick"/>
<rect x="379.71" y="435.64" width="8.00" height="5.20" class="up-body"/>
<line x1="399.02" y1="420.82" x2="399.02" y2="436.13" class="up-wick"/>
<rect x="395.02" y="432.47" width="8.00" height="3.11" class="up-body"/>
<line x1="414.32" y1="422.60" x2="414.32" y2="436.82" class="up-wick"/>
<rect x="410.32" y="426.48" width="8.00" height="5.99" class="up-body"/>
<line x1="429.62" y1="417.96" x2="429.62" y2="432.12" class="down-wick"/>
<rect x="425.62" y="426.47" width="8.00" height="3.10" class="down-body"/>
<line x1="444.92" y1="423.90" x2="444.92" y2="439.87" class="down-wick"/>
<rect x="440.92" y="429.56" width="8.00" height="6.03" class="down-body"/>
<line x1="460.23" y1="431.36" x2="460.23" y2="439.92" class="down-wick"/>
<rect x="456.23" y="435.54" width="8.00" height="1.29" class="down-body"/>
<line x1="475.53" y1="436.81" x2="475.53" y2="466.10" class="down-wick"/>
<rect x="471.53" y="436.83" width="8.00" height="28.30" class="down-body"/>
<line x1="490.83" y1="463.94" x2="490.83" y2="491.79" class="down-wick"/>
<rect x="486.83" y="465.15" width="8.00" height="9.04" class="down-body"/>
<line x1="506.14" y1="465.87" x2="506.14" y2="484.04" class="down-wick"/>
<rect x="502.14" y="474.18" width="8.00" height="4.82" class="down-body"/>
<line x1="521.44" y1="474.11" x2="521.44" y2="514.05" class="down-wick"/>
<rect x="517.44" y="479.00" width="8.00" height="16.82" class="down-body"/>
<line x1="536.74" y1="490.91" x2="536.74" y2="524.76" class="down-wick"/>
<rect x="532.74" y="495.84" width="8.00" height="11.42" class="down-body"/>
<line x1="552.05" y1="483.16" x2="552.05" y2="515.08" class="up-wick"/>
<rect x="548.05" y="489.51" width="8.00" height="17.75" class="up-body"/>
<line x1="567.35" y1="472.48" x2="567.35" y2="495.98" class="up-wick"/>
<rect x="563.35" y="478.37" width="8.00" height="11.14" class="up-body"/>
<line x1="582.65" y1="465.52" x2="582.65" y2="483.03" class="up-wick"/>
<rect x="578.65" y="470.50" width="8.00" height="7.95" class="up-body"/>
<line x1="597.95" y1="459.41" x2="597.95" y2="482.67" class="up-wick"/>
<rect x="593.95" y="462.70" width="8.00" height="7.80" class="up-body"/>
<line x1="613.26" y1="450.33" x2="613.26" y2="463.06" class="up-wick"/>
<rect x="609.26" y="461.31" width="8.00" height="1.40" class="up-body"/>
<line x1="628.56" y1="447.16" x2="628.56" y2="469.91" class="up-wick"/>
<rect x="624.56" y="453.22" width="8.00" height="8.08" class="up-body"/>
<line x1="643.86" y1="439.76" x2="643.86" y2="456.56" class="up-wick"/>
<rect x="639.86" y="440.95" width="8.00" height="12.27" class="up-body"/>
<line x1="659.17" y1="439.73" x2="659.17" y2="454.30" class="down-wick"/>
<rect x="655.17" y="440.95" width="8.00" height="1.71" class="down-body"/>
<line x1="674.47" y1="439.36" x2="674.47" y2="447.64" class="down-wick"/>
<rect x="670.47" y="442.66" width="8.00" height="1.00" class="down-body"/>
<line x1="689.77" y1="436.91" x2="689.77" y2="455.69" class="up-wick"/>
<rect x="685.77" y="440.88" width="8.00" height="1.99" class="up-body"/>
<line x1="705.08" y1="422.55" x2="705.08" y2="447.89" class="up-wick"/>
<rect x="701.08" y="425.87" width="8.00" height="15.01" class="up-body"/>
<line x1="720.38" y1="417.94" x2="720.38" y2="429.64" class="down-wick"/>
<rect x="716.38" y="425.82" width="8.00" height="1.00" class="down-body"/>
<line x1="735.68" y1="411.74" x2="735.68" y2="427.85" class="up-wick"/>
<rect x="731.68" y="415.86" width="8.00" height="10.82" class="up-body"/>
<line x1="750.98" y1="410.89" x2="750.98" y2="421.33" class="up-wick"/>
<rect x="746.98" y="412.16" width="8.00" height="3.70" class="up-body"/>
<line x1="766.29" y1="412.00" x2="766.29" y2="432.66" class="down-wick"/>
<rect x="762.29" y="412.16" width="8.00" height="16.31" class="down-body"/>
<line x1="781.59" y1="423.07" x2="781.59" y2="435.76" class="down-wick"/>
<rect x="777.59" y="428.47" width="8.00" height="3.06" class="down-body"/>
<line x1="796.89" y1="418.28" x2="796.89" y2="437.17" class="up-wick"/>
<rect x="792.89" y="420.60" width="8.00" height="10.93" class="up-body"/>
<line x1="812.20" y1="405.60" x2="812.20" y2="421.32" class="up-wick"/>
<rect x="808.20" y="405.71" width="8.00" height="14.89" class="up-body"/>
<line x1="827.50" y1="401.86" x2="827.50" y2="408.91" class="up-wick"/>
<rect x="823.50" y="404.26" width="8.00" height="1.45" class="up-body"/>
<line x1="842.80" y1="395.44" x2="842.80" y2="406.19" class="up-wick"/>
<rect x="838.80" y="397.61" width="8.00" height="6.59" class="up-body"/>
<line x1="858.11" y1="395.35" x2="858.11" y2="403.00" class="down-wick"/>
<rect x="854.11" y="397.53" width="8.00" height="2.46" class="down-body"/>
<line x1="873.41" y1="396.26" x2="873.41" y2="407.78" class="down-wick"/>
<rect x="869.41" y="399.99" width="8.00" height="1.01" class="down-body"/>
<line x1="888.71" y1="391.65" x2="888.71" y2="402.08" class="up-wick"/>
<rect x="884.71" y="395.91" width="8.00" height="5.11" class="up-body"/>
<line x1="904.02" y1="389.10" x2="904.02" y2="398.48" class="up-wick"/>
<rect x="900.02" y="389.18" width="8.00" height="6.73" class="up-body"/>
<line x1="919.32" y1="383.94" x2="919.32" y2="397.38" class="down-wick"/>
<rect x="915.32" y="389.18" width="8.00" height="1.04" class="down-body"/>
<line x1="934.62" y1="387.02" x2="934.62" y2="415.53" class="down-wick"/>
<rect x="930.62" y="390.21" width="8.00" height="4.00" class="down-body"/>
<line x1="949.92" y1="390.24" x2="949.92" y2="412.87" class="down-wick"/>
<rect x="945.92" y="394.17" width="8.00" height="14.90" class="down-body"/>
<line x1="965.23" y1="408.12" x2="965.23" y2="433.06" class="down-wick"/>
<rect x="961.23" y="409.07" width="8.00" height="18.42" class="down-body"/>
<line x1="980.53" y1="414.85" x2="980.53" y2="428.10" class="up-wick"/>
<rect x="976.53" y="420.47" width="8.00" height="6.95" class="up-body"/>
<line x1="995.83" y1="409.30" x2="995.83" y2="422.70" class="up-wick"/>
<rect x="991.83" y="413.52" width="8.00" height="6.95" class="up-body"/>
<line x1="1011.14" y1="412.31" x2="1011.14" y2="429.40" class="down-wick"/>
<rect x="1007.14" y="413.52" width="8.00" height="1.67" class="down-body"/>
<line x1="1026.44" y1="390.26" x2="1026.44" y2="419.34" class="up-wick"/>
<rect x="1022.44" y="404.06" width="8.00" height="11.12" class="up-body"/>
<line x1="1041.74" y1="401.10" x2="1041.74" y2="422.56" class="down-wick"/>
<rect x="1037.74" y="404.06" width="8.00" height="11.90" class="down-body"/>
<line x1="1057.05" y1="406.97" x2="1057.05" y2="425.76" class="down-wick"/>
<rect x="1053.05" y="415.96" width="8.00" height="2.52" class="down-body"/>
<line x1="1072.35" y1="413.18" x2="1072.35" y2="431.69" class="down-wick"/>
<rect x="1068.35" y="418.56" width="8.00" height="10.55" class="down-body"/>
<line x1="70" y1="426.01" x2="1080" y2="426.01" class="number-line"/>
<text x="1076" y="422.01" text-anchor="end" class="level-label">round 4690.00</text>
<line x1="70" y1="426.01" x2="1080" y2="426.01" class="entry-line"/>
<text x="1076" y="422.01" text-anchor="end" class="level-label">entry level 4690.00</text>
<text x="70" y="556" class="axis-label">2026-02-02 01:00:00+00:00 to 2026-02-02 17:15:00+00:00</text>
<text x="1080" y="556" text-anchor="end" class="axis-label">4363.54 - 4923.24</text>
<text x="70" y="582" class="panel-title">M5 reaction / execution context</text>
<rect x="70" y="596" width="1010" height="192" class="plot-bg"/>
<line x1="79.18" y1="731.30" x2="79.18" y2="758.80" class="up-wick"/>
<rect x="75.18" y="734.22" width="8.00" height="24.54" class="up-body"/>
<line x1="97.55" y1="734.16" x2="97.55" y2="759.54" class="down-wick"/>
<rect x="93.55" y="734.22" width="8.00" height="12.74" class="down-body"/>
<line x1="115.91" y1="737.13" x2="115.91" y2="757.13" class="down-wick"/>
<rect x="111.91" y="746.96" width="8.00" height="8.70" class="down-body"/>
<line x1="134.27" y1="748.23" x2="134.27" y2="774.76" class="down-wick"/>
<rect x="130.27" y="755.63" width="8.00" height="8.64" class="down-body"/>
<line x1="152.64" y1="726.43" x2="152.64" y2="768.96" class="up-wick"/>
<rect x="148.64" y="731.92" width="8.00" height="32.35" class="up-body"/>
<line x1="171.00" y1="724.25" x2="171.00" y2="743.12" class="down-wick"/>
<rect x="167.00" y="731.92" width="8.00" height="5.79" class="down-body"/>
<line x1="189.36" y1="720.63" x2="189.36" y2="745.12" class="up-wick"/>
<rect x="185.36" y="721.09" width="8.00" height="16.61" class="up-body"/>
<line x1="207.73" y1="707.84" x2="207.73" y2="723.03" class="up-wick"/>
<rect x="203.73" y="715.34" width="8.00" height="5.75" class="up-body"/>
<line x1="226.09" y1="710.26" x2="226.09" y2="730.89" class="up-wick"/>
<rect x="222.09" y="710.46" width="8.00" height="4.88" class="up-body"/>
<line x1="244.45" y1="707.81" x2="244.45" y2="726.20" class="down-wick"/>
<rect x="240.45" y="710.46" width="8.00" height="13.36" class="down-body"/>
<line x1="262.82" y1="720.54" x2="262.82" y2="740.12" class="down-wick"/>
<rect x="258.82" y="723.82" width="8.00" height="1.19" class="down-body"/>
<line x1="281.18" y1="707.77" x2="281.18" y2="727.91" class="up-wick"/>
<rect x="277.18" y="714.26" width="8.00" height="10.75" class="up-body"/>
<line x1="299.55" y1="708.89" x2="299.55" y2="720.35" class="up-wick"/>
<rect x="295.55" y="712.45" width="8.00" height="1.81" class="up-body"/>
<line x1="317.91" y1="706.94" x2="317.91" y2="724.17" class="up-wick"/>
<rect x="313.91" y="709.78" width="8.00" height="2.83" class="up-body"/>
<line x1="336.27" y1="709.37" x2="336.27" y2="725.32" class="down-wick"/>
<rect x="332.27" y="709.78" width="8.00" height="4.96" class="down-body"/>
<line x1="354.64" y1="711.12" x2="354.64" y2="743.19" class="down-wick"/>
<rect x="350.64" y="714.74" width="8.00" height="9.44" class="down-body"/>
<line x1="373.00" y1="717.10" x2="373.00" y2="732.84" class="up-wick"/>
<rect x="369.00" y="719.82" width="8.00" height="4.36" class="up-body"/>
<line x1="391.36" y1="701.51" x2="391.36" y2="722.91" class="up-wick"/>
<rect x="387.36" y="710.32" width="8.00" height="9.43" class="up-body"/>
<line x1="409.73" y1="708.22" x2="409.73" y2="721.95" class="down-wick"/>
<rect x="405.73" y="710.32" width="8.00" height="3.46" class="down-body"/>
<line x1="428.09" y1="707.01" x2="428.09" y2="725.87" class="up-wick"/>
<rect x="424.09" y="708.21" width="8.00" height="5.57" class="up-body"/>
<line x1="446.45" y1="669.63" x2="446.45" y2="712.25" class="up-wick"/>
<rect x="442.45" y="676.99" width="8.00" height="31.15" class="up-body"/>
<line x1="464.82" y1="666.15" x2="464.82" y2="681.69" class="down-wick"/>
<rect x="460.82" y="676.89" width="8.00" height="1.00" class="down-body"/>
<line x1="483.18" y1="666.15" x2="483.18" y2="685.36" class="up-wick"/>
<rect x="479.18" y="667.67" width="8.00" height="9.56" class="up-body"/>
<line x1="501.55" y1="659.38" x2="501.55" y2="681.05" class="down-wick"/>
<rect x="497.55" y="667.67" width="8.00" height="11.13" class="down-body"/>
<line x1="519.91" y1="655.75" x2="519.91" y2="681.40" class="up-wick"/>
<rect x="515.91" y="656.64" width="8.00" height="22.15" class="up-body"/>
<line x1="538.27" y1="653.37" x2="538.27" y2="669.56" class="up-wick"/>
<rect x="534.27" y="655.92" width="8.00" height="1.00" class="up-body"/>
<line x1="556.64" y1="645.63" x2="556.64" y2="664.59" class="up-wick"/>
<rect x="552.64" y="654.78" width="8.00" height="1.14" class="up-body"/>
<line x1="575.00" y1="643.73" x2="575.00" y2="661.65" class="down-wick"/>
<rect x="571.00" y="654.78" width="8.00" height="4.45" class="down-body"/>
<line x1="593.36" y1="652.10" x2="593.36" y2="666.92" class="up-wick"/>
<rect x="589.36" y="659.15" width="8.00" height="1.00" class="up-body"/>
<line x1="611.73" y1="646.14" x2="611.73" y2="660.41" class="up-wick"/>
<rect x="607.73" y="646.56" width="8.00" height="12.59" class="up-body"/>
<line x1="630.09" y1="646.21" x2="630.09" y2="660.42" class="down-wick"/>
<rect x="626.09" y="646.56" width="8.00" height="13.28" class="down-body"/>
<line x1="648.45" y1="655.63" x2="648.45" y2="680.79" class="down-wick"/>
<rect x="644.45" y="659.84" width="8.00" height="16.28" class="down-body"/>
<line x1="666.82" y1="675.97" x2="666.82" y2="692.06" class="down-wick"/>
<rect x="662.82" y="676.13" width="8.00" height="6.65" class="down-body"/>
<line x1="685.18" y1="675.21" x2="685.18" y2="688.54" class="up-wick"/>
<rect x="681.18" y="681.03" width="8.00" height="1.74" class="up-body"/>
<line x1="703.55" y1="679.28" x2="703.55" y2="698.95" class="up-wick"/>
<rect x="699.55" y="680.14" width="8.00" height="1.00" class="up-body"/>
<line x1="721.91" y1="670.79" x2="721.91" y2="690.81" class="down-wick"/>
<rect x="717.91" y="680.15" width="8.00" height="9.41" class="down-body"/>
<line x1="740.27" y1="687.31" x2="740.27" y2="702.09" class="up-wick"/>
<rect x="736.27" y="688.94" width="8.00" height="1.00" class="up-body"/>
<line x1="758.64" y1="671.30" x2="758.64" y2="693.37" class="up-wick"/>
<rect x="754.64" y="674.19" width="8.00" height="14.75" class="up-body"/>
<line x1="777.00" y1="660.14" x2="777.00" y2="673.99" class="up-wick"/>
<rect x="773.00" y="665.30" width="8.00" height="8.46" class="up-body"/>
<line x1="795.36" y1="654.20" x2="795.36" y2="666.90" class="up-wick"/>
<rect x="791.36" y="658.85" width="8.00" height="6.45" class="up-body"/>
<line x1="813.73" y1="650.18" x2="813.73" y2="661.28" class="up-wick"/>
<rect x="809.73" y="651.60" width="8.00" height="7.26" class="up-body"/>
<line x1="832.09" y1="631.99" x2="832.09" y2="655.95" class="up-wick"/>
<rect x="828.09" y="632.24" width="8.00" height="19.28" class="up-body"/>
<line x1="850.45" y1="626.58" x2="850.45" y2="638.94" class="up-wick"/>
<rect x="846.45" y="628.57" width="8.00" height="3.67" class="up-body"/>
<line x1="868.82" y1="624.06" x2="868.82" y2="635.77" class="up-wick"/>
<rect x="864.82" y="625.63" width="8.00" height="2.94" class="up-body"/>
<line x1="887.18" y1="623.70" x2="887.18" y2="639.34" class="down-wick"/>
<rect x="883.18" y="625.54" width="8.00" height="3.47" class="down-body"/>
<line x1="905.55" y1="620.92" x2="905.55" y2="633.31" class="down-wick"/>
<rect x="901.55" y="628.90" width="8.00" height="1.70" class="down-body"/>
<line x1="923.91" y1="612.97" x2="923.91" y2="630.71" class="up-wick"/>
<rect x="919.91" y="613.40" width="8.00" height="17.19" class="up-body"/>
<line x1="942.27" y1="609.44" x2="942.27" y2="616.56" class="down-wick"/>
<rect x="938.27" y="613.40" width="8.00" height="1.00" class="down-body"/>
<line x1="960.64" y1="609.24" x2="960.64" y2="615.20" class="up-wick"/>
<rect x="956.64" y="611.47" width="8.00" height="2.61" class="up-body"/>
<line x1="979.00" y1="610.25" x2="979.00" y2="626.23" class="down-wick"/>
<rect x="975.00" y="611.45" width="8.00" height="11.27" class="down-body"/>
<line x1="997.36" y1="613.44" x2="997.36" y2="624.48" class="up-wick"/>
<rect x="993.36" y="619.54" width="8.00" height="3.18" class="up-body"/>
<line x1="1015.73" y1="611.27" x2="1015.73" y2="631.09" class="down-wick"/>
<rect x="1011.73" y="619.54" width="8.00" height="7.88" class="down-body"/>
<line x1="1034.09" y1="620.40" x2="1034.09" y2="636.84" class="up-wick"/>
<rect x="1030.09" y="621.68" width="8.00" height="5.74" class="up-body"/>
<line x1="1052.45" y1="611.91" x2="1052.45" y2="627.63" class="down-wick"/>
<rect x="1048.45" y="621.68" width="8.00" height="1.00" class="down-body"/>
<line x1="1070.82" y1="609.97" x2="1070.82" y2="624.18" class="up-wick"/>
<rect x="1066.82" y="610.83" width="8.00" height="11.00" class="up-body"/>
<line x1="70" y1="677.31" x2="1080" y2="677.31" class="number-line"/>
<text x="1076" y="673.31" text-anchor="end" class="level-label">round 4690.00</text>
<line x1="70" y1="677.31" x2="1080" y2="677.31" class="entry-line"/>
<text x="1076" y="673.31" text-anchor="end" class="level-label">entry level 4690.00</text>
<text x="70" y="806" class="axis-label">2026-02-02 09:45:00+00:00 to 2026-02-02 14:15:00+00:00</text>
<text x="1080" y="806" text-anchor="end" class="axis-label">4544.64 - 4796.77</text>
<text x="70" y="832" class="panel-title">M1 execution window</text>
<rect x="70" y="846" width="1010" height="192" class="plot-bg"/>
<line x1="73.71" y1="1005.91" x2="73.71" y2="1017.30" class="up-wick"/>
<rect x="71.30" y="1005.99" width="4.83" height="11.27" class="up-body"/>
<line x1="81.14" y1="999.37" x2="81.14" y2="1008.78" class="up-wick"/>
<rect x="78.73" y="1000.56" width="4.83" height="2.77" class="up-body"/>
<line x1="88.57" y1="988.17" x2="88.57" y2="1000.67" class="up-wick"/>
<rect x="86.15" y="991.27" width="4.83" height="7.31" class="up-body"/>
<line x1="95.99" y1="1000.91" x2="95.99" y2="1011.38" class="down-wick"/>
<rect x="93.58" y="1001.17" width="4.83" height="7.45" class="down-body"/>
<line x1="103.42" y1="1010.35" x2="103.42" y2="1018.09" class="down-wick"/>
<rect x="101.01" y="1010.35" width="4.83" height="1.42" class="down-body"/>
<line x1="110.85" y1="1002.17" x2="110.85" y2="1007.99" class="down-wick"/>
<rect x="108.43" y="1004.77" width="4.83" height="1.86" class="down-body"/>
<line x1="118.27" y1="994.80" x2="118.27" y2="1004.94" class="down-wick"/>
<rect x="115.86" y="994.80" width="4.83" height="6.51" class="down-body"/>
<line x1="125.70" y1="1004.53" x2="125.70" y2="1015.54" class="down-wick"/>
<rect x="123.28" y="1008.60" width="4.83" height="5.38" class="down-body"/>
<line x1="133.12" y1="1014.71" x2="133.12" y2="1024.31" class="down-wick"/>
<rect x="130.71" y="1021.95" width="4.83" height="1.00" class="down-body"/>
<line x1="140.55" y1="1015.91" x2="140.55" y2="1022.98" class="up-wick"/>
<rect x="138.14" y="1022.15" width="4.83" height="1.00" class="up-body"/>
<line x1="147.98" y1="1013.48" x2="147.98" y2="1024.76" class="up-wick"/>
<rect x="145.56" y="1019.10" width="4.83" height="4.00" class="up-body"/>
<line x1="155.40" y1="1005.70" x2="155.40" y2="1017.24" class="up-wick"/>
<rect x="152.99" y="1006.09" width="4.83" height="9.93" class="up-body"/>
<line x1="162.83" y1="983.02" x2="162.83" y2="1001.84" class="up-wick"/>
<rect x="160.42" y="988.83" width="4.83" height="11.39" class="up-body"/>
<line x1="170.26" y1="980.70" x2="170.26" y2="990.49" class="down-wick"/>
<rect x="167.84" y="981.81" width="4.83" height="7.80" class="down-body"/>
<line x1="177.68" y1="987.22" x2="177.68" y2="995.44" class="down-wick"/>
<rect x="175.27" y="994.92" width="4.83" height="1.00" class="down-body"/>
<line x1="185.11" y1="993.33" x2="185.11" y2="1000.81" class="down-wick"/>
<rect x="182.70" y="994.96" width="4.83" height="5.70" class="down-body"/>
<line x1="192.54" y1="990.16" x2="192.54" y2="1002.81" class="up-wick"/>
<rect x="190.12" y="993.28" width="4.83" height="5.44" class="up-body"/>
<line x1="199.96" y1="976.87" x2="199.96" y2="989.11" class="up-wick"/>
<rect x="197.55" y="977.36" width="4.83" height="8.04" class="up-body"/>
<line x1="207.39" y1="966.70" x2="207.39" y2="971.88" class="up-wick"/>
<rect x="204.98" y="966.74" width="4.83" height="2.80" class="up-body"/>
<line x1="214.82" y1="964.95" x2="214.82" y2="971.93" class="down-wick"/>
<rect x="212.40" y="966.59" width="4.83" height="5.21" class="down-body"/>
<line x1="222.24" y1="967.79" x2="222.24" y2="981.43" class="down-wick"/>
<rect x="219.83" y="971.27" width="4.83" height="7.96" class="down-body"/>
<line x1="229.67" y1="979.59" x2="229.67" y2="987.74" class="down-wick"/>
<rect x="227.26" y="980.04" width="4.83" height="2.55" class="down-body"/>
<line x1="237.10" y1="965.88" x2="237.10" y2="973.76" class="up-wick"/>
<rect x="234.68" y="966.10" width="4.83" height="5.88" class="up-body"/>
<line x1="244.52" y1="963.57" x2="244.52" y2="971.25" class="down-wick"/>
<rect x="242.11" y="965.82" width="4.83" height="3.75" class="down-body"/>
<line x1="251.95" y1="967.83" x2="251.95" y2="977.24" class="down-wick"/>
<rect x="249.53" y="971.79" width="4.83" height="3.69" class="down-body"/>
<line x1="259.38" y1="979.56" x2="259.38" y2="986.40" class="down-wick"/>
<rect x="256.96" y="980.25" width="4.83" height="2.48" class="down-body"/>
<line x1="266.80" y1="982.35" x2="266.80" y2="989.56" class="down-wick"/>
<rect x="264.39" y="985.91" width="4.83" height="3.49" class="down-body"/>
<line x1="274.23" y1="976.77" x2="274.23" y2="993.49" class="up-wick"/>
<rect x="271.81" y="981.51" width="4.83" height="11.98" class="up-body"/>
<line x1="281.65" y1="977.28" x2="281.65" y2="984.58" class="up-wick"/>
<rect x="279.24" y="978.31" width="4.83" height="1.65" class="up-body"/>
<line x1="289.08" y1="963.63" x2="289.08" y2="969.57" class="up-wick"/>
<rect x="286.67" y="963.90" width="4.83" height="3.82" class="up-body"/>
<line x1="296.51" y1="968.55" x2="296.51" y2="976.09" class="down-wick"/>
<rect x="294.09" y="970.12" width="4.83" height="3.88" class="down-body"/>
<line x1="303.93" y1="964.44" x2="303.93" y2="970.97" class="down-wick"/>
<rect x="301.52" y="966.24" width="4.83" height="4.40" class="down-body"/>
<line x1="311.36" y1="965.51" x2="311.36" y2="974.21" class="up-wick"/>
<rect x="308.95" y="968.20" width="4.83" height="6.01" class="up-body"/>
<line x1="318.79" y1="962.55" x2="318.79" y2="976.57" class="down-wick"/>
<rect x="316.37" y="964.43" width="4.83" height="12.00" class="down-body"/>
<line x1="326.21" y1="963.06" x2="326.21" y2="974.01" class="up-wick"/>
<rect x="323.80" y="964.83" width="4.83" height="8.75" class="up-body"/>
<line x1="333.64" y1="964.94" x2="333.64" y2="975.59" class="down-wick"/>
<rect x="331.23" y="965.37" width="4.83" height="4.82" class="down-body"/>
<line x1="341.07" y1="975.24" x2="341.07" y2="980.22" class="up-wick"/>
<rect x="338.65" y="976.15" width="4.83" height="2.45" class="up-body"/>
<line x1="348.49" y1="967.78" x2="348.49" y2="980.07" class="up-wick"/>
<rect x="346.08" y="970.62" width="4.83" height="9.21" class="up-body"/>
<line x1="355.92" y1="971.51" x2="355.92" y2="980.63" class="down-wick"/>
<rect x="353.51" y="971.89" width="4.83" height="7.24" class="down-body"/>
<line x1="363.35" y1="986.62" x2="363.35" y2="1000.77" class="up-wick"/>
<rect x="360.93" y="988.99" width="4.83" height="1.00" class="up-body"/>
<line x1="370.77" y1="974.51" x2="370.77" y2="984.57" class="up-wick"/>
<rect x="368.36" y="975.75" width="4.83" height="4.88" class="up-body"/>
<line x1="378.20" y1="978.07" x2="378.20" y2="985.07" class="down-wick"/>
<rect x="375.78" y="978.64" width="4.83" height="3.03" class="down-body"/>
<line x1="385.62" y1="976.00" x2="385.62" y2="989.80" class="up-wick"/>
<rect x="383.21" y="976.01" width="4.83" height="8.10" class="up-body"/>
<line x1="393.05" y1="962.94" x2="393.05" y2="973.75" class="up-wick"/>
<rect x="390.64" y="963.18" width="4.83" height="10.38" class="up-body"/>
<line x1="400.48" y1="962.55" x2="400.48" y2="969.78" class="down-wick"/>
<rect x="398.06" y="962.88" width="4.83" height="6.70" class="down-body"/>
<line x1="407.90" y1="964.98" x2="407.90" y2="972.15" class="down-wick"/>
<rect x="405.49" y="965.94" width="4.83" height="4.97" class="down-body"/>
<line x1="415.33" y1="963.72" x2="415.33" y2="974.84" class="up-wick"/>
<rect x="412.92" y="967.13" width="4.83" height="7.23" class="up-body"/>
<line x1="422.76" y1="966.47" x2="422.76" y2="976.79" class="down-wick"/>
<rect x="420.34" y="966.47" width="4.83" height="3.15" class="down-body"/>
<line x1="430.18" y1="974.30" x2="430.18" y2="982.42" class="up-wick"/>
<rect x="427.77" y="978.55" width="4.83" height="3.82" class="up-body"/>
<line x1="437.61" y1="966.70" x2="437.61" y2="973.24" class="up-wick"/>
<rect x="435.20" y="967.16" width="4.83" height="1.02" class="up-body"/>
<line x1="445.04" y1="953.31" x2="445.04" y2="967.99" class="up-wick"/>
<rect x="442.62" y="953.42" width="4.83" height="10.21" class="up-body"/>
<line x1="452.46" y1="931.99" x2="452.46" y2="944.99" class="up-wick"/>
<rect x="450.05" y="933.71" width="4.83" height="10.27" class="up-body"/>
<line x1="459.89" y1="926.93" x2="459.89" y2="937.52" class="down-wick"/>
<rect x="457.48" y="928.47" width="4.83" height="2.17" class="down-body"/>
<line x1="467.32" y1="919.86" x2="467.32" y2="926.61" class="down-wick"/>
<rect x="464.90" y="921.55" width="4.83" height="2.35" class="down-body"/>
<line x1="474.74" y1="919.41" x2="474.74" y2="925.33" class="down-wick"/>
<rect x="472.33" y="919.78" width="4.83" height="3.81" class="down-body"/>
<line x1="482.17" y1="929.29" x2="482.17" y2="939.50" class="down-wick"/>
<rect x="479.76" y="930.89" width="4.83" height="4.05" class="down-body"/>
<line x1="489.60" y1="919.94" x2="489.60" y2="926.05" class="down-wick"/>
<rect x="487.18" y="924.77" width="4.83" height="1.00" class="down-body"/>
<line x1="497.02" y1="919.15" x2="497.02" y2="926.10" class="up-wick"/>
<rect x="494.61" y="920.76" width="4.83" height="4.52" class="up-body"/>
<line x1="504.45" y1="911.98" x2="504.45" y2="922.77" class="down-wick"/>
<rect x="502.03" y="920.68" width="4.83" height="1.00" class="down-body"/>
<line x1="511.88" y1="921.55" x2="511.88" y2="932.38" class="down-wick"/>
<rect x="509.46" y="923.16" width="4.83" height="8.07" class="down-body"/>
<line x1="519.30" y1="921.91" x2="519.30" y2="935.30" class="up-wick"/>
<rect x="516.89" y="922.80" width="4.83" height="9.75" class="up-body"/>
<line x1="526.73" y1="917.86" x2="526.73" y2="926.64" class="up-wick"/>
<rect x="524.31" y="919.13" width="4.83" height="7.51" class="up-body"/>
<line x1="534.15" y1="908.13" x2="534.15" y2="915.34" class="up-wick"/>
<rect x="531.74" y="909.08" width="4.83" height="1.94" class="up-body"/>
<line x1="541.58" y1="915.77" x2="541.58" y2="922.77" class="down-wick"/>
<rect x="539.17" y="917.97" width="4.83" height="1.00" class="down-body"/>
<line x1="549.01" y1="910.12" x2="549.01" y2="915.22" class="up-wick"/>
<rect x="546.59" y="910.12" width="4.83" height="4.57" class="up-body"/>
<line x1="556.43" y1="897.42" x2="556.43" y2="909.56" class="up-wick"/>
<rect x="554.02" y="902.90" width="4.83" height="5.41" class="up-body"/>
<line x1="563.86" y1="903.50" x2="563.86" y2="913.88" class="down-wick"/>
<rect x="561.45" y="904.97" width="4.83" height="3.66" class="down-body"/>
<line x1="571.29" y1="905.75" x2="571.29" y2="917.50" class="up-wick"/>
<rect x="568.87" y="907.11" width="4.83" height="6.22" class="up-body"/>
<line x1="578.71" y1="898.14" x2="578.71" y2="904.86" class="up-wick"/>
<rect x="576.30" y="904.17" width="4.83" height="1.00" class="up-body"/>
<line x1="586.14" y1="897.68" x2="586.14" y2="907.78" class="down-wick"/>
<rect x="583.73" y="898.10" width="4.83" height="9.67" class="down-body"/>
<line x1="593.57" y1="905.15" x2="593.57" y2="914.85" class="down-wick"/>
<rect x="591.15" y="911.82" width="4.83" height="2.02" class="down-body"/>
<line x1="600.99" y1="909.29" x2="600.99" y2="914.85" class="down-wick"/>
<rect x="598.58" y="913.84" width="4.83" height="1.00" class="down-body"/>
<line x1="608.42" y1="904.27" x2="608.42" y2="912.60" class="down-wick"/>
<rect x="606.01" y="906.03" width="4.83" height="5.70" class="down-body"/>
<line x1="615.85" y1="907.95" x2="615.85" y2="912.64" class="up-wick"/>
<rect x="613.43" y="908.27" width="4.83" height="2.65" class="up-body"/>
<line x1="623.27" y1="902.11" x2="623.27" y2="906.95" class="up-wick"/>
<rect x="620.86" y="902.83" width="4.83" height="3.55" class="up-body"/>
<line x1="630.70" y1="898.03" x2="630.70" y2="905.24" class="down-wick"/>
<rect x="628.28" y="898.40" width="4.83" height="5.71" class="down-body"/>
<line x1="638.12" y1="906.29" x2="638.12" y2="910.62" class="down-wick"/>
<rect x="635.71" y="907.95" width="4.83" height="2.24" class="down-body"/>
<line x1="645.55" y1="909.48" x2="645.55" y2="913.09" class="down-wick"/>
<rect x="643.14" y="910.60" width="4.83" height="1.87" class="down-body"/>
<line x1="652.98" y1="919.28" x2="652.98" y2="930.20" class="down-wick"/>
<rect x="650.56" y="919.80" width="4.83" height="8.74" class="down-body"/>
<line x1="660.40" y1="926.29" x2="660.40" y2="934.05" class="down-wick"/>
<rect x="657.99" y="930.56" width="4.83" height="1.66" class="down-body"/>
<line x1="667.83" y1="929.55" x2="667.83" y2="936.99" class="down-wick"/>
<rect x="665.42" y="929.72" width="4.83" height="6.71" class="down-body"/>
<line x1="675.26" y1="934.90" x2="675.26" y2="946.37" class="down-wick"/>
<rect x="672.84" y="937.20" width="4.83" height="9.03" class="down-body"/>
<line x1="682.68" y1="933.66" x2="682.68" y2="944.64" class="up-wick"/>
<rect x="680.27" y="936.76" width="4.83" height="7.71" class="up-body"/>
<line x1="690.11" y1="928.75" x2="690.11" y2="939.50" class="down-wick"/>
<rect x="687.70" y="935.28" width="4.83" height="1.00" class="down-body"/>
<line x1="697.54" y1="933.42" x2="697.54" y2="940.23" class="down-wick"/>
<rect x="695.12" y="935.52" width="4.83" height="1.00" class="down-body"/>
<line x1="704.96" y1="933.34" x2="704.96" y2="939.02" class="down-wick"/>
<rect x="702.55" y="934.91" width="4.83" height="3.13" class="down-body"/>
<line x1="712.39" y1="944.39" x2="712.39" y2="953.90" class="down-wick"/>
<rect x="709.98" y="947.20" width="4.83" height="1.25" class="down-body"/>
<line x1="719.82" y1="933.06" x2="719.82" y2="938.40" class="up-wick"/>
<rect x="717.40" y="933.97" width="4.83" height="3.67" class="up-body"/>
<line x1="727.24" y1="931.56" x2="727.24" y2="941.27" class="down-wick"/>
<rect x="724.83" y="931.56" width="4.83" height="8.04" class="down-body"/>
<line x1="734.67" y1="938.22" x2="734.67" y2="944.07" class="up-wick"/>
<rect x="732.26" y="939.66" width="4.83" height="1.00" class="up-body"/>
<line x1="742.10" y1="943.95" x2="742.10" y2="957.22" class="down-wick"/>
<rect x="739.68" y="943.95" width="4.83" height="11.29" class="down-body"/>
<line x1="749.52" y1="946.87" x2="749.52" y2="951.75" class="up-wick"/>
<rect x="747.11" y="947.68" width="4.83" height="1.34" class="up-body"/>
<line x1="756.95" y1="941.67" x2="756.95" y2="945.66" class="down-wick"/>
<rect x="754.53" y="941.67" width="4.83" height="1.63" class="down-body"/>
<line x1="764.38" y1="929.58" x2="764.38" y2="939.23" class="up-wick"/>
<rect x="761.96" y="929.91" width="4.83" height="9.07" class="up-body"/>
<line x1="771.80" y1="925.47" x2="771.80" y2="929.62" class="down-wick"/>
<rect x="769.39" y="925.70" width="4.83" height="1.00" class="down-body"/>
<line x1="779.23" y1="912.79" x2="779.23" y2="927.45" class="up-wick"/>
<rect x="776.81" y="913.35" width="4.83" height="13.87" class="up-body"/>
<line x1="786.65" y1="915.86" x2="786.65" y2="920.46" class="up-wick"/>
<rect x="784.24" y="917.80" width="4.83" height="1.15" class="up-body"/>
<line x1="794.08" y1="915.17" x2="794.08" y2="918.93" class="down-wick"/>
<rect x="791.67" y="916.13" width="4.83" height="2.12" class="down-body"/>
<line x1="801.51" y1="914.10" x2="801.51" y2="919.95" class="up-wick"/>
<rect x="799.09" y="914.84" width="4.83" height="2.09" class="up-body"/>
<line x1="808.93" y1="908.74" x2="808.93" y2="912.19" class="down-wick"/>
<rect x="806.52" y="908.84" width="4.83" height="1.00" class="down-body"/>
<line x1="816.36" y1="907.91" x2="816.36" y2="913.17" class="up-wick"/>
<rect x="813.95" y="910.25" width="4.83" height="1.18" class="up-body"/>
<line x1="823.79" y1="904.11" x2="823.79" y2="914.00" class="up-wick"/>
<rect x="821.37" y="904.94" width="4.83" height="5.58" class="up-body"/>
<line x1="831.21" y1="902.23" x2="831.21" y2="909.87" class="up-wick"/>
<rect x="828.80" y="903.73" width="4.83" height="5.48" class="up-body"/>
<line x1="838.64" y1="901.62" x2="838.64" y2="908.34" class="up-wick"/>
<rect x="836.23" y="904.79" width="4.83" height="1.16" class="up-body"/>
<line x1="846.07" y1="889.09" x2="846.07" y2="900.10" class="up-wick"/>
<rect x="843.65" y="889.20" width="4.83" height="10.55" class="up-body"/>
<line x1="853.49" y1="879.62" x2="853.49" y2="888.89" class="down-wick"/>
<rect x="851.08" y="883.23" width="4.83" height="3.37" class="down-body"/>
<line x1="860.92" y1="884.97" x2="860.92" y2="889.79" class="down-wick"/>
<rect x="858.51" y="888.49" width="4.83" height="1.00" class="down-body"/>
<line x1="868.35" y1="877.34" x2="868.35" y2="882.02" class="down-wick"/>
<rect x="865.93" y="877.47" width="4.83" height="1.86" class="down-body"/>
<line x1="875.77" y1="877.31" x2="875.77" y2="884.65" class="up-wick"/>
<rect x="873.36" y="880.49" width="4.83" height="1.00" class="up-body"/>
<line x1="883.20" y1="874.56" x2="883.20" y2="882.87" class="up-wick"/>
<rect x="880.78" y="878.83" width="4.83" height="3.95" class="up-body"/>
<line x1="890.62" y1="876.01" x2="890.62" y2="884.48" class="down-wick"/>
<rect x="888.21" y="876.13" width="4.83" height="8.28" class="down-body"/>
<line x1="898.05" y1="882.67" x2="898.05" y2="890.75" class="down-wick"/>
<rect x="895.64" y="884.23" width="4.83" height="1.00" class="down-body"/>
<line x1="905.48" y1="874.17" x2="905.48" y2="883.45" class="up-wick"/>
<rect x="903.06" y="879.81" width="4.83" height="2.46" class="up-body"/>
<line x1="912.90" y1="871.24" x2="912.90" y2="877.21" class="down-wick"/>
<rect x="910.49" y="874.65" width="4.83" height="2.37" class="down-body"/>
<line x1="920.33" y1="873.42" x2="920.33" y2="882.44" class="down-wick"/>
<rect x="917.92" y="877.31" width="4.83" height="4.57" class="down-body"/>
<line x1="927.76" y1="871.42" x2="927.76" y2="881.61" class="up-wick"/>
<rect x="925.34" y="871.63" width="4.83" height="9.84" class="up-body"/>
<line x1="935.18" y1="864.07" x2="935.18" y2="869.16" class="up-wick"/>
<rect x="932.77" y="864.49" width="4.83" height="2.98" class="up-body"/>
<line x1="942.61" y1="862.81" x2="942.61" y2="867.70" class="up-wick"/>
<rect x="940.20" y="863.27" width="4.83" height="3.22" class="up-body"/>
<line x1="950.04" y1="859.77" x2="950.04" y2="862.69" class="up-wick"/>
<rect x="947.62" y="860.40" width="4.83" height="1.74" class="up-body"/>
<line x1="957.46" y1="859.72" x2="957.46" y2="865.46" class="down-wick"/>
<rect x="955.05" y="860.91" width="4.83" height="2.90" class="down-body"/>
<line x1="964.89" y1="859.24" x2="964.89" y2="865.17" class="up-wick"/>
<rect x="962.48" y="859.97" width="4.83" height="4.02" class="up-body"/>
<line x1="972.32" y1="859.76" x2="972.32" y2="861.99" class="up-wick"/>
<rect x="969.90" y="860.06" width="4.83" height="1.00" class="up-body"/>
<line x1="979.74" y1="859.26" x2="979.74" y2="862.46" class="down-wick"/>
<rect x="977.33" y="860.49" width="4.83" height="1.00" class="down-body"/>
<line x1="987.17" y1="859.93" x2="987.17" y2="866.87" class="down-wick"/>
<rect x="984.76" y="865.42" width="4.83" height="1.00" class="down-body"/>
<line x1="994.60" y1="871.50" x2="994.60" y2="876.86" class="down-wick"/>
<rect x="992.18" y="872.09" width="4.83" height="1.00" class="down-body"/>
<line x1="1002.02" y1="865.49" x2="1002.02" y2="873.14" class="up-wick"/>
<rect x="999.61" y="866.09" width="4.83" height="7.05" class="up-body"/>
<line x1="1009.45" y1="869.25" x2="1009.45" y2="874.35" class="down-wick"/>
<rect x="1007.03" y="869.95" width="4.83" height="1.63" class="down-body"/>
<line x1="1016.88" y1="868.69" x2="1016.88" y2="873.46" class="up-wick"/>
<rect x="1014.46" y="869.78" width="4.83" height="1.48" class="up-body"/>
<line x1="1024.30" y1="861.98" x2="1024.30" y2="871.46" class="down-wick"/>
<rect x="1021.89" y="862.71" width="4.83" height="8.75" class="down-body"/>
<line x1="1031.73" y1="872.21" x2="1031.73" y2="882.01" class="down-wick"/>
<rect x="1029.31" y="873.96" width="4.83" height="1.99" class="down-body"/>
<line x1="1039.15" y1="870.68" x2="1039.15" y2="882.26" class="down-wick"/>
<rect x="1036.74" y="878.13" width="4.83" height="3.77" class="down-body"/>
<line x1="1046.58" y1="880.73" x2="1046.58" y2="888.10" class="down-wick"/>
<rect x="1044.17" y="881.79" width="4.83" height="1.00" class="down-body"/>
<line x1="1054.01" y1="871.32" x2="1054.01" y2="881.98" class="up-wick"/>
<rect x="1051.59" y="872.04" width="4.83" height="9.85" class="up-body"/>
<line x1="1061.43" y1="861.69" x2="1061.43" y2="868.45" class="down-wick"/>
<rect x="1059.02" y="864.43" width="4.83" height="2.58" class="down-body"/>
<line x1="1068.86" y1="873.09" x2="1068.86" y2="878.35" class="up-wick"/>
<rect x="1066.45" y="874.62" width="4.83" height="1.58" class="up-body"/>
<line x1="1076.29" y1="870.99" x2="1076.29" y2="874.69" class="down-wick"/>
<rect x="1073.87" y="872.20" width="4.83" height="1.00" class="down-body"/>
<line x1="70" y1="930.97" x2="1080" y2="930.97" class="number-line"/>
<text x="1076" y="926.97" text-anchor="end" class="level-label">round 4690.00</text>
<line x1="70" y1="930.97" x2="1080" y2="930.97" class="entry-line"/>
<text x="1076" y="926.97" text-anchor="end" class="level-label">entry level 4690.00</text>
<text x="70" y="1056" class="axis-label">2026-02-02 09:45:00+00:00 to 2026-02-02 14:15:00+00:00</text>
<text x="1080" y="1056" text-anchor="end" class="axis-label">4557.34 - 4795.32</text>
</svg>