<svg xmlns="http://www.w3.org/2000/svg" width="1120" height="1054" viewBox="0 0 1120 1054">
<style>
text{font-family:Arial,Helvetica,sans-serif}.title{font-size:21px;font-weight:700;fill:#1f2937}.subtitle{font-size:12px;fill:#4b5563}.panel-title{font-size:15px;font-weight:700;fill:#111827}.muted{font-size:13px;fill:#6b7280}.plot-bg{fill:#f8fafc;stroke:#cbd5e1;stroke-width:1}.up-body{fill:#15803d;stroke:#14532d;stroke-width:.8}.down-body{fill:#b91c1c;stroke:#7f1d1d;stroke-width:.8}.up-wick{stroke:#14532d;stroke-width:1}.down-wick{stroke:#7f1d1d;stroke-width:1}.sweep-line{stroke:#7c3aed;stroke-width:1.6;stroke-dasharray:6 4}.number-line{stroke:#0f766e;stroke-width:1.4;stroke-dasharray:3 4}.entry-line{stroke:#2563eb;stroke-width:1.4}.sl-line{stroke:#dc2626;stroke-width:1.4}.tp-line{stroke:#16a34a;stroke-width:1.4}.level-label,.axis-label{font-size:11px;fill:#374151}
</style>
<text x="28" y="28" class="title">Adelin v2 visual review sample sample_279</text>
<text x="28" y="48" class="subtitle">Candidate windows are for visual labeling only and are not trade signals.</text>
<text x="560" y="48" class="subtitle" text-anchor="middle">LARGE_LOWER_WICK_REVERSAL_VISUAL_CANDIDATE | PRE_ANCHOR_SWEEP_EXTREME_CANDIDATE</text>
<text x="70" y="82" class="panel-title">H1 liquidity context</text>
<rect x="70" y="96" width="1010" height="192" class="plot-bg"/>
<line x1="81.22" y1="154.75" x2="81.22" y2="208.94" class="up-wick"/>
<rect x="77.22" y="156.15" width="8.00" height="51.21" class="up-body"/>
<line x1="103.67" y1="109.24" x2="103.67" y2="168.58" class="up-wick"/>
<rect x="99.67" y="119.36" width="8.00" height="36.79" class="up-body"/>
<line x1="126.11" y1="113.75" x2="126.11" y2="140.49" class="down-wick"/>
<rect x="122.11" y="119.32" width="8.00" height="8.02" class="down-body"/>
<line x1="148.56" y1="119.10" x2="148.56" y2="147.09" class="down-wick"/>
<rect x="144.56" y="127.31" width="8.00" height="5.87" class="down-body"/>
<line x1="171.00" y1="126.72" x2="171.00" y2="137.47" class="down-wick"/>
<rect x="167.00" y="133.18" width="8.00" height="1.00" class="down-body"/>
<line x1="193.44" y1="130.99" x2="193.44" y2="148.22" class="down-wick"/>
<rect x="189.44" y="133.81" width="8.00" height="4.70" class="down-body"/>
<line x1="215.89" y1="132.59" x2="215.89" y2="145.79" class="down-wick"/>
<rect x="211.89" y="138.52" width="8.00" height="4.74" class="down-body"/>
<line x1="238.33" y1="139.98" x2="238.33" y2="149.27" class="down-wick"/>
<rect x="234.33" y="143.27" width="8.00" height="4.12" class="down-body"/>
<line x1="260.78" y1="211.49" x2="260.78" y2="251.95" class="up-wick"/>
<rect x="256.78" y="228.76" width="8.00" height="9.44" class="up-body"/>
<line x1="283.22" y1="228.67" x2="283.22" y2="274.76" class="down-wick"/>
<rect x="279.22" y="228.76" width="8.00" height="26.31" class="down-body"/>
<line x1="305.67" y1="234.25" x2="305.67" y2="266.36" class="up-wick"/>
<rect x="301.67" y="236.23" width="8.00" height="18.84" class="up-body"/>
<line x1="328.11" y1="190.75" x2="328.11" y2="237.42" class="up-wick"/>
<rect x="324.11" y="198.01" width="8.00" height="38.22" class="up-body"/>
<line x1="350.56" y1="196.56" x2="350.56" y2="213.81" class="down-wick"/>
<rect x="346.56" y="198.01" width="8.00" height="11.25" class="down-body"/>
<line x1="373.00" y1="208.09" x2="373.00" y2="218.60" class="down-wick"/>
<rect x="369.00" y="209.26" width="8.00" height="7.08" class="down-body"/>
<line x1="395.44" y1="211.11" x2="395.44" y2="220.40" class="down-wick"/>
<rect x="391.44" y="216.09" width="8.00" height="2.44" class="down-body"/>
<line x1="417.89" y1="210.68" x2="417.89" y2="228.47" class="up-wick"/>
<rect x="413.89" y="216.36" width="8.00" height="2.15" class="up-body"/>
<line x1="440.33" y1="211.37" x2="440.33" y2="223.81" class="up-wick"/>
<rect x="436.33" y="211.37" width="8.00" height="4.99" class="up-body"/>
<line x1="462.78" y1="200.18" x2="462.78" y2="220.66" class="down-wick"/>
<rect x="458.78" y="211.38" width="8.00" height="6.16" class="down-body"/>
<line x1="485.22" y1="210.51" x2="485.22" y2="221.44" class="up-wick"/>
<rect x="481.22" y="210.55" width="8.00" height="6.99" class="up-body"/>
<line x1="507.67" y1="208.71" x2="507.67" y2="224.26" class="down-wick"/>
<rect x="503.67" y="210.55" width="8.00" height="4.90" class="down-body"/>
<line x1="530.11" y1="205.33" x2="530.11" y2="217.27" class="up-wick"/>
<rect x="526.11" y="210.94" width="8.00" height="4.51" class="up-body"/>
<line x1="552.56" y1="194.66" x2="552.56" y2="220.92" class="up-wick"/>
<rect x="548.56" y="195.03" width="8.00" height="15.91" class="up-body"/>
<line x1="575.00" y1="182.47" x2="575.00" y2="207.29" class="down-wick"/>
<rect x="571.00" y="195.03" width="8.00" height="7.63" class="down-body"/>
<line x1="597.44" y1="177.90" x2="597.44" y2="206.78" class="up-wick"/>
<rect x="593.44" y="186.95" width="8.00" height="15.69" class="up-body"/>
<line x1="619.89" y1="176.47" x2="619.89" y2="214.44" class="down-wick"/>
<rect x="615.89" y="186.95" width="8.00" height="13.61" class="down-body"/>
<line x1="642.33" y1="196.11" x2="642.33" y2="214.03" class="down-wick"/>
<rect x="638.33" y="200.57" width="8.00" height="6.18" class="down-body"/>
<line x1="664.78" y1="199.51" x2="664.78" y2="214.16" class="up-wick"/>
<rect x="660.78" y="200.41" width="8.00" height="6.33" class="up-body"/>
<line x1="687.22" y1="193.22" x2="687.22" y2="202.17" class="up-wick"/>
<rect x="683.22" y="199.09" width="8.00" height="1.31" class="up-body"/>
<line x1="709.67" y1="188.44" x2="709.67" y2="199.09" class="up-wick"/>
<rect x="705.67" y="191.14" width="8.00" height="7.96" class="up-body"/>
<line x1="732.11" y1="183.23" x2="732.11" y2="194.93" class="up-wick"/>
<rect x="728.11" y="190.90" width="8.00" height="1.00" class="up-body"/>
<line x1="754.56" y1="170.37" x2="754.56" y2="184.60" class="up-wick"/>
<rect x="750.56" y="176.46" width="8.00" height="7.94" class="up-body"/>
<line x1="777.00" y1="172.04" x2="777.00" y2="185.00" class="down-wick"/>
<rect x="773.00" y="176.46" width="8.00" height="6.37" class="down-body"/>
<line x1="799.44" y1="173.07" x2="799.44" y2="188.09" class="up-wick"/>
<rect x="795.44" y="180.42" width="8.00" height="2.29" class="up-body"/>
<line x1="821.89" y1="179.75" x2="821.89" y2="200.17" class="down-wick"/>
<rect x="817.89" y="180.42" width="8.00" height="14.90" class="down-body"/>
<line x1="844.33" y1="195.11" x2="844.33" y2="203.72" class="down-wick"/>
<rect x="840.33" y="195.33" width="8.00" height="3.63" class="down-body"/>
<line x1="866.78" y1="198.05" x2="866.78" y2="214.46" class="down-wick"/>
<rect x="862.78" y="198.96" width="8.00" height="10.56" class="down-body"/>
<line x1="889.22" y1="208.81" x2="889.22" y2="218.68" class="down-wick"/>
<rect x="885.22" y="209.52" width="8.00" height="8.68" class="down-body"/>
<line x1="911.67" y1="209.65" x2="911.67" y2="224.53" class="down-wick"/>
<rect x="907.67" y="218.20" width="8.00" height="5.34" class="down-body"/>
<line x1="934.11" y1="216.54" x2="934.11" y2="233.98" class="down-wick"/>
<rect x="930.11" y="223.55" width="8.00" height="5.86" class="down-body"/>
<line x1="956.56" y1="214.40" x2="956.56" y2="236.04" class="up-wick"/>
<rect x="952.56" y="221.54" width="8.00" height="8.35" class="up-body"/>
<line x1="979.00" y1="213.88" x2="979.00" y2="233.79" class="down-wick"/>
<rect x="975.00" y="221.54" width="8.00" height="1.00" class="down-body"/>
<line x1="1001.44" y1="217.62" x2="1001.44" y2="226.74" class="down-wick"/>
<rect x="997.44" y="221.63" width="8.00" height="2.42" class="down-body"/>
<line x1="1023.89" y1="216.73" x2="1023.89" y2="227.10" class="up-wick"/>
<rect x="1019.89" y="217.47" width="8.00" height="6.58" class="up-body"/>
<line x1="1046.33" y1="208.62" x2="1046.33" y2="233.07" class="up-wick"/>
<rect x="1042.33" y="212.19" width="8.00" height="5.28" class="up-body"/>
<line x1="1068.78" y1="209.67" x2="1068.78" y2="242.58" class="down-wick"/>
<rect x="1064.78" y="212.17" width="8.00" height="17.30" class="down-body"/>
<line x1="70" y1="196.73" x2="1080" y2="196.73" class="sweep-line"/>
<text x="1076" y="192.73" text-anchor="end" class="level-label">sweep 4808.92</text>
<line x1="70" y1="196.08" x2="1080" y2="196.08" class="entry-line"/>
<text x="1076" y="192.08" text-anchor="end" class="level-label">entry level 4809.52</text>
<text x="70" y="306" class="axis-label">2026-04-17 15:00:00+00:00 to 2026-04-21 15:00:00+00:00</text>
<text x="1080" y="306" text-anchor="end" class="axis-label">4724.71 - 4901.86</text>
<text x="70" y="332" class="panel-title">M15 liquidity / reaction context</text>
<rect x="70" y="346" width="1010" height="192" class="plot-bg"/>
<line x1="76.92" y1="503.54" x2="76.92" y2="524.76" class="down-wick"/>
<rect x="72.92" y="503.96" width="8.00" height="5.57" class="down-body"/>
<line x1="90.75" y1="482.33" x2="90.75" y2="510.15" class="up-wick"/>
<rect x="86.75" y="483.38" width="8.00" height="26.15" class="up-body"/>
<line x1="104.59" y1="477.96" x2="104.59" y2="491.95" class="down-wick"/>
<rect x="100.59" y="483.38" width="8.00" height="2.53" class="down-body"/>
<line x1="118.42" y1="465.64" x2="118.42" y2="495.20" class="up-wick"/>
<rect x="114.42" y="469.27" width="8.00" height="16.65" class="up-body"/>
<line x1="132.26" y1="425.32" x2="132.26" y2="471.47" class="up-wick"/>
<rect x="128.26" y="426.86" width="8.00" height="42.41" class="up-body"/>
<line x1="146.10" y1="406.96" x2="146.10" y2="437.20" class="up-wick"/>
<rect x="142.10" y="408.80" width="8.00" height="18.06" class="up-body"/>
<line x1="159.93" y1="389.78" x2="159.93" y2="411.73" class="up-wick"/>
<rect x="155.93" y="400.72" width="8.00" height="8.08" class="up-body"/>
<line x1="173.77" y1="385.53" x2="173.77" y2="402.49" class="up-wick"/>
<rect x="169.77" y="398.90" width="8.00" height="2.24" class="up-body"/>
<line x1="187.60" y1="396.22" x2="187.60" y2="413.03" class="down-wick"/>
<rect x="183.60" y="398.90" width="8.00" height="13.63" class="down-body"/>
<line x1="201.44" y1="406.82" x2="201.44" y2="417.66" class="down-wick"/>
<rect x="197.44" y="412.53" width="8.00" height="1.40" class="down-body"/>
<line x1="215.27" y1="410.40" x2="215.27" y2="424.77" class="down-wick"/>
<rect x="211.27" y="413.99" width="8.00" height="7.94" class="down-body"/>
<line x1="229.11" y1="419.28" x2="229.11" y2="428.00" class="up-wick"/>
<rect x="225.11" y="419.62" width="8.00" height="2.32" class="up-body"/>
<line x1="242.95" y1="417.46" x2="242.95" y2="433.29" class="down-wick"/>
<rect x="238.95" y="419.62" width="8.00" height="11.54" class="down-body"/>
<line x1="256.78" y1="422.49" x2="256.78" y2="436.82" class="up-wick"/>
<rect x="252.78" y="423.99" width="8.00" height="7.17" class="up-body"/>
<line x1="270.62" y1="420.81" x2="270.62" y2="434.25" class="down-wick"/>
<rect x="266.62" y="423.97" width="8.00" height="3.03" class="down-body"/>
<line x1="284.45" y1="425.07" x2="284.45" y2="436.16" class="down-wick"/>
<rect x="280.45" y="427.00" width="8.00" height="5.65" class="down-body"/>
<line x1="298.29" y1="423.03" x2="298.29" y2="432.33" class="up-wick"/>
<rect x="294.29" y="428.60" width="8.00" height="3.59" class="up-body"/>
<line x1="312.12" y1="423.03" x2="312.12" y2="431.09" class="up-wick"/>
<rect x="308.12" y="425.22" width="8.00" height="3.37" class="up-body"/>
<line x1="325.96" y1="425.05" x2="325.96" y2="440.13" class="down-wick"/>
<rect x="321.96" y="425.07" width="8.00" height="14.65" class="down-body"/>
<line x1="339.79" y1="427.80" x2="339.79" y2="439.83" class="up-wick"/>
<rect x="335.79" y="436.68" width="8.00" height="3.03" class="up-body"/>
<line x1="353.63" y1="428.32" x2="353.63" y2="445.44" class="down-wick"/>
<rect x="349.63" y="436.64" width="8.00" height="4.59" class="down-body"/>
<line x1="367.47" y1="435.12" x2="367.47" y2="443.75" class="up-wick"/>
<rect x="363.47" y="438.44" width="8.00" height="2.79" class="up-body"/>
<line x1="381.30" y1="422.23" x2="381.30" y2="454.98" class="down-wick"/>
<rect x="377.30" y="438.44" width="8.00" height="14.37" class="down-body"/>
<line x1="395.14" y1="428.10" x2="395.14" y2="452.81" class="up-wick"/>
<rect x="391.14" y="432.69" width="8.00" height="20.12" class="up-body"/>
<line x1="408.97" y1="426.30" x2="408.97" y2="443.17" class="down-wick"/>
<rect x="404.97" y="432.69" width="8.00" height="1.00" class="down-body"/>
<line x1="422.81" y1="433.05" x2="422.81" y2="446.40" class="down-wick"/>
<rect x="418.81" y="433.15" width="8.00" height="8.84" class="down-body"/>
<line x1="436.64" y1="430.21" x2="436.64" y2="443.13" class="up-wick"/>
<rect x="432.64" y="433.99" width="8.00" height="8.00" class="up-body"/>
<line x1="450.48" y1="423.51" x2="450.48" y2="443.19" class="up-wick"/>
<rect x="446.48" y="423.51" width="8.00" height="10.48" class="up-body"/>
<line x1="464.32" y1="411.27" x2="464.32" y2="426.30" class="up-wick"/>
<rect x="460.32" y="419.50" width="8.00" height="4.03" class="up-body"/>
<line x1="478.15" y1="402.89" x2="478.15" y2="425.80" class="up-wick"/>
<rect x="474.15" y="418.64" width="8.00" height="1.00" class="up-body"/>
<line x1="491.99" y1="416.78" x2="491.99" y2="433.97" class="down-wick"/>
<rect x="487.99" y="418.64" width="8.00" height="1.00" class="down-body"/>
<line x1="505.82" y1="418.98" x2="505.82" y2="440.61" class="down-wick"/>
<rect x="501.82" y="418.98" width="8.00" height="15.89" class="down-body"/>
<line x1="519.66" y1="430.75" x2="519.66" y2="442.05" class="down-wick"/>
<rect x="515.66" y="434.86" width="8.00" height="1.16" class="down-body"/>
<line x1="533.49" y1="429.32" x2="533.49" y2="441.59" class="up-wick"/>
<rect x="529.49" y="430.29" width="8.00" height="5.75" class="up-body"/>
<line x1="547.33" y1="429.38" x2="547.33" y2="437.08" class="up-wick"/>
<rect x="543.33" y="429.64" width="8.00" height="1.00" class="up-body"/>
<line x1="561.16" y1="421.91" x2="561.16" y2="430.07" class="up-wick"/>
<rect x="557.16" y="421.99" width="8.00" height="7.66" class="up-body"/>
<line x1="575.00" y1="418.60" x2="575.00" y2="427.46" class="down-wick"/>
<rect x="571.00" y="421.99" width="8.00" height="1.00" class="down-body"/>
<line x1="588.84" y1="422.69" x2="588.84" y2="430.91" class="down-wick"/>
<rect x="584.84" y="422.81" width="8.00" height="6.89" class="down-body"/>
<line x1="602.67" y1="425.72" x2="602.67" y2="447.24" class="down-wick"/>
<rect x="598.67" y="429.68" width="8.00" height="1.00" class="down-body"/>
<line x1="616.51" y1="420.20" x2="616.51" y2="435.90" class="down-wick"/>
<rect x="612.51" y="430.39" width="8.00" height="1.00" class="down-body"/>
<line x1="630.34" y1="415.23" x2="630.34" y2="434.37" class="up-wick"/>
<rect x="626.34" y="422.79" width="8.00" height="8.22" class="up-body"/>
<line x1="644.18" y1="412.37" x2="644.18" y2="424.07" class="up-wick"/>
<rect x="640.18" y="417.90" width="8.00" height="4.89" class="up-body"/>
<line x1="658.01" y1="414.11" x2="658.01" y2="424.39" class="down-wick"/>
<rect x="654.01" y="417.88" width="8.00" height="6.47" class="down-body"/>
<line x1="671.85" y1="419.90" x2="671.85" y2="425.28" class="up-wick"/>
<rect x="667.85" y="422.71" width="8.00" height="1.64" class="up-body"/>
<line x1="685.68" y1="421.75" x2="685.68" y2="440.35" class="down-wick"/>
<rect x="681.68" y="422.71" width="8.00" height="11.96" class="down-body"/>
<line x1="699.52" y1="432.05" x2="699.52" y2="441.09" class="down-wick"/>
<rect x="695.52" y="434.67" width="8.00" height="2.61" class="down-body"/>
<line x1="713.36" y1="424.73" x2="713.36" y2="438.70" class="up-wick"/>
<rect x="709.36" y="424.73" width="8.00" height="12.55" class="up-body"/>
<line x1="727.19" y1="392.73" x2="727.19" y2="424.81" class="up-wick"/>
<rect x="723.19" y="393.41" width="8.00" height="31.32" class="up-body"/>
<line x1="741.03" y1="388.24" x2="741.03" y2="408.52" class="up-wick"/>
<rect x="737.03" y="392.17" width="8.00" height="1.24" class="up-body"/>
<line x1="754.86" y1="370.28" x2="754.86" y2="406.00" class="down-wick"/>
<rect x="750.86" y="392.17" width="8.00" height="10.52" class="down-body"/>
<line x1="768.70" y1="395.45" x2="768.70" y2="415.98" class="up-wick"/>
<rect x="764.70" y="402.11" width="8.00" height="1.00" class="up-body"/>
<line x1="782.53" y1="397.60" x2="782.53" y2="412.25" class="down-wick"/>
<rect x="778.53" y="402.11" width="8.00" height="5.35" class="down-body"/>
<line x1="796.37" y1="380.50" x2="796.37" y2="415.05" class="up-wick"/>
<rect x="792.37" y="383.65" width="8.00" height="23.79" class="up-body"/>
<line x1="810.21" y1="362.79" x2="810.21" y2="390.02" class="up-wick"/>
<rect x="806.21" y="365.57" width="8.00" height="18.08" class="up-body"/>
<line x1="824.04" y1="361.88" x2="824.04" y2="382.29" class="down-wick"/>
<rect x="820.04" y="365.57" width="8.00" height="3.93" class="down-body"/>
<line x1="837.88" y1="365.39" x2="837.88" y2="380.36" class="down-wick"/>
<rect x="833.88" y="369.42" width="8.00" height="9.12" class="down-body"/>
<line x1="851.71" y1="377.52" x2="851.71" y2="400.36" class="down-wick"/>
<rect x="847.71" y="378.54" width="8.00" height="3.31" class="down-body"/>
<line x1="865.55" y1="360.70" x2="865.55" y2="385.55" class="up-wick"/>
<rect x="861.55" y="367.90" width="8.00" height="13.95" class="up-body"/>
<line x1="879.38" y1="359.24" x2="879.38" y2="393.19" class="down-wick"/>
<rect x="875.38" y="367.62" width="8.00" height="18.22" class="down-body"/>
<line x1="893.22" y1="384.27" x2="893.22" y2="429.16" class="down-wick"/>
<rect x="889.22" y="385.85" width="8.00" height="17.76" class="down-body"/>
<line x1="907.05" y1="399.64" x2="907.05" y2="428.40" class="down-wick"/>
<rect x="903.05" y="403.61" width="8.00" height="14.09" class="down-body"/>
<line x1="920.89" y1="395.41" x2="920.89" y2="426.12" class="up-wick"/>
<rect x="916.89" y="398.06" width="8.00" height="19.64" class="up-body"/>
<line x1="934.73" y1="395.89" x2="934.73" y2="415.09" class="down-wick"/>
<rect x="930.73" y="398.06" width="8.00" height="15.51" class="down-body"/>
<line x1="948.56" y1="410.85" x2="948.56" y2="423.61" class="down-wick"/>
<rect x="944.56" y="413.67" width="8.00" height="1.32" class="down-body"/>
<line x1="962.40" y1="411.27" x2="962.40" y2="425.78" class="down-wick"/>
<rect x="958.40" y="414.97" width="8.00" height="2.36" class="down-body"/>
<line x1="976.23" y1="410.63" x2="976.23" y2="428.64" class="up-wick"/>
<rect x="972.23" y="412.23" width="8.00" height="5.09" class="up-body"/>
<line x1="990.07" y1="405.11" x2="990.07" y2="416.74" class="up-wick"/>
<rect x="986.07" y="410.50" width="8.00" height="1.54" class="up-body"/>
<line x1="1003.90" y1="401.65" x2="1003.90" y2="410.97" class="up-wick"/>
<rect x="999.90" y="403.31" width="8.00" height="7.19" class="up-body"/>
<line x1="1017.74" y1="393.21" x2="1017.74" y2="406.56" class="up-wick"/>
<rect x="1013.74" y="396.84" width="8.00" height="6.47" class="up-body"/>
<line x1="1031.58" y1="391.75" x2="1031.58" y2="401.85" class="up-wick"/>
<rect x="1027.58" y="394.35" width="8.00" height="2.49" class="up-body"/>
<line x1="1045.41" y1="390.08" x2="1045.41" y2="404.21" class="down-wick"/>
<rect x="1041.41" y="394.35" width="8.00" height="1.18" class="down-body"/>
<line x1="1059.25" y1="394.99" x2="1059.25" y2="403.03" class="down-wick"/>
<rect x="1055.25" y="395.53" width="8.00" height="5.37" class="down-body"/>
<line x1="1073.08" y1="382.61" x2="1073.08" y2="400.90" class="up-wick"/>
<rect x="1069.08" y="383.41" width="8.00" height="17.48" class="up-body"/>
<line x1="70" y1="396.54" x2="1080" y2="396.54" class="sweep-line"/>
<text x="1076" y="392.54" text-anchor="end" class="level-label">sweep 4808.92</text>
<line x1="70" y1="395.35" x2="1080" y2="395.35" class="entry-line"/>
<text x="1076" y="391.35" text-anchor="end" class="level-label">entry level 4809.52</text>
<text x="70" y="556" class="axis-label">2026-04-20 03:00:00+00:00 to 2026-04-20 21:00:00+00:00</text>
<text x="1080" y="556" text-anchor="end" class="axis-label">4738.05 - 4834.24</text>
<text x="70" y="582" class="panel-title">M5 reaction / execution context</text>
<rect x="70" y="596" width="1010" height="192" class="plot-bg"/>
<line x1="79.18" y1="720.19" x2="79.18" y2="733.11" class="down-wick"/>
<rect x="75.18" y="727.82" width="8.00" height="4.76" class="down-body"/>
<line x1="97.55" y1="730.16" x2="97.55" y2="736.74" class="down-wick"/>
<rect x="93.55" y="732.62" width="8.00" height="1.65" class="down-body"/>
<line x1="115.91" y1="731.65" x2="115.91" y2="740.98" class="down-wick"/>
<rect x="111.91" y="734.32" width="8.00" height="6.58" class="down-body"/>
<line x1="134.27" y1="733.71" x2="134.27" y2="741.14" class="up-wick"/>
<rect x="130.27" y="735.08" width="8.00" height="5.81" class="up-body"/>
<line x1="152.64" y1="734.60" x2="152.64" y2="742.79" class="down-wick"/>
<rect x="148.64" y="735.08" width="8.00" height="1.57" class="down-body"/>
<line x1="171.00" y1="731.90" x2="171.00" y2="739.65" class="down-wick"/>
<rect x="167.00" y="736.66" width="8.00" height="1.00" class="down-body"/>
<line x1="189.36" y1="735.65" x2="189.36" y2="759.54" class="down-wick"/>
<rect x="185.36" y="737.59" width="8.00" height="19.86" class="down-body"/>
<line x1="207.73" y1="744.93" x2="207.73" y2="759.14" class="up-wick"/>
<rect x="203.73" y="750.30" width="8.00" height="7.14" class="up-body"/>
<line x1="226.09" y1="748.16" x2="226.09" y2="773.27" class="down-wick"/>
<rect x="222.09" y="750.30" width="8.00" height="11.46" class="down-body"/>
<line x1="244.45" y1="756.48" x2="244.45" y2="774.40" class="down-wick"/>
<rect x="240.45" y="761.76" width="8.00" height="7.63" class="down-body"/>
<line x1="262.82" y1="762.97" x2="262.82" y2="774.76" class="up-wick"/>
<rect x="258.82" y="763.78" width="8.00" height="5.61" class="up-body"/>
<line x1="281.18" y1="759.46" x2="281.18" y2="769.88" class="down-wick"/>
<rect x="277.18" y="763.82" width="8.00" height="3.23" class="down-body"/>
<line x1="299.55" y1="752.84" x2="299.55" y2="769.92" class="up-wick"/>
<rect x="295.55" y="760.23" width="8.00" height="6.82" class="up-body"/>
<line x1="317.91" y1="753.45" x2="317.91" y2="764.43" class="up-wick"/>
<rect x="313.91" y="756.56" width="8.00" height="3.67" class="up-body"/>
<line x1="336.27" y1="741.66" x2="336.27" y2="760.71" class="up-wick"/>
<rect x="332.27" y="741.66" width="8.00" height="14.73" class="up-body"/>
<line x1="354.64" y1="712.04" x2="354.64" y2="741.82" class="up-wick"/>
<rect x="350.64" y="713.77" width="8.00" height="27.89" class="up-body"/>
<line x1="373.00" y1="684.67" x2="373.00" y2="714.86" class="up-wick"/>
<rect x="369.00" y="694.64" width="8.00" height="19.13" class="up-body"/>
<line x1="391.36" y1="676.97" x2="391.36" y2="695.33" class="up-wick"/>
<rect x="387.36" y="678.34" width="8.00" height="16.31" class="up-body"/>
<line x1="409.73" y1="673.05" x2="409.73" y2="695.98" class="down-wick"/>
<rect x="405.73" y="678.34" width="8.00" height="4.80" class="down-body"/>
<line x1="428.09" y1="670.95" x2="428.09" y2="708.89" class="down-wick"/>
<rect x="424.09" y="683.14" width="8.00" height="6.09" class="down-body"/>
<line x1="446.45" y1="667.88" x2="446.45" y2="689.24" class="up-wick"/>
<rect x="442.45" y="675.84" width="8.00" height="13.40" class="up-body"/>
<line x1="464.82" y1="657.27" x2="464.82" y2="689.15" class="up-wick"/>
<rect x="460.82" y="661.59" width="8.00" height="14.25" class="up-body"/>
<line x1="483.18" y1="631.56" x2="483.18" y2="665.26" class="down-wick"/>
<rect x="479.18" y="661.59" width="8.00" height="3.43" class="down-body"/>
<line x1="501.55" y1="663.53" x2="501.55" y2="703.81" class="down-wick"/>
<rect x="497.55" y="665.02" width="8.00" height="32.09" class="down-body"/>
<line x1="519.91" y1="682.45" x2="519.91" y2="703.32" class="up-wick"/>
<rect x="515.91" y="695.61" width="8.00" height="1.61" class="up-body"/>
<line x1="538.27" y1="694.97" x2="538.27" y2="723.99" class="down-wick"/>
<rect x="534.27" y="695.61" width="8.00" height="9.85" class="down-body"/>
<line x1="556.64" y1="689.88" x2="556.64" y2="708.29" class="up-wick"/>
<rect x="552.64" y="695.94" width="8.00" height="9.53" class="up-body"/>
<line x1="575.00" y1="686.81" x2="575.00" y2="704.25" class="up-wick"/>
<rect x="571.00" y="695.29" width="8.00" height="1.00" class="up-body"/>
<line x1="593.36" y1="690.33" x2="593.36" y2="714.42" class="down-wick"/>
<rect x="589.36" y="695.57" width="8.00" height="11.42" class="down-body"/>
<line x1="611.73" y1="703.52" x2="611.73" y2="716.44" class="up-wick"/>
<rect x="607.73" y="706.75" width="8.00" height="1.00" class="up-body"/>
<line x1="630.09" y1="700.25" x2="630.09" y2="722.09" class="up-wick"/>
<rect x="626.09" y="706.59" width="8.00" height="1.00" class="up-body"/>
<line x1="648.45" y1="660.34" x2="648.45" y2="709.82" class="up-wick"/>
<rect x="644.45" y="675.84" width="8.00" height="30.75" class="up-body"/>
<line x1="666.82" y1="652.23" x2="666.82" y2="680.60" class="up-wick"/>
<rect x="662.82" y="658.60" width="8.00" height="17.44" class="up-body"/>
<line x1="685.18" y1="650.61" x2="685.18" y2="671.48" class="up-wick"/>
<rect x="681.18" y="656.14" width="8.00" height="2.46" class="up-body"/>
<line x1="703.55" y1="639.96" x2="703.55" y2="658.97" class="up-wick"/>
<rect x="699.55" y="653.48" width="8.00" height="2.66" class="up-body"/>
<line x1="721.91" y1="616.43" x2="721.91" y2="660.18" class="up-wick"/>
<rect x="717.91" y="622.04" width="8.00" height="31.44" class="up-body"/>
<line x1="740.27" y1="614.57" x2="740.27" y2="654.77" class="down-wick"/>
<rect x="736.27" y="622.04" width="8.00" height="10.01" class="down-body"/>
<line x1="758.64" y1="617.88" x2="758.64" y2="655.86" class="down-wick"/>
<rect x="754.64" y="632.04" width="8.00" height="14.85" class="down-body"/>
<line x1="777.00" y1="623.65" x2="777.00" y2="652.83" class="up-wick"/>
<rect x="773.00" y="629.99" width="8.00" height="16.91" class="up-body"/>
<line x1="795.36" y1="621.67" x2="795.36" y2="644.19" class="down-wick"/>
<rect x="791.36" y="629.83" width="8.00" height="8.52" class="down-body"/>
<line x1="813.73" y1="631.24" x2="813.73" y2="649.56" class="up-wick"/>
<rect x="809.73" y="634.75" width="8.00" height="3.59" class="up-body"/>
<line x1="832.09" y1="627.28" x2="832.09" y2="651.94" class="down-wick"/>
<rect x="828.09" y="634.75" width="8.00" height="13.52" class="down-body"/>
<line x1="850.45" y1="646.21" x2="850.45" y2="675.88" class="down-wick"/>
<rect x="846.45" y="648.27" width="8.00" height="1.00" class="down-body"/>
<line x1="868.82" y1="647.83" x2="868.82" y2="673.01" class="down-wick"/>
<rect x="864.82" y="648.75" width="8.00" height="19.70" class="down-body"/>
<line x1="887.18" y1="651.94" x2="887.18" y2="692.38" class="up-wick"/>
<rect x="883.18" y="654.97" width="8.00" height="13.48" class="up-body"/>
<line x1="905.55" y1="645.32" x2="905.55" y2="662.44" class="up-wick"/>
<rect x="901.55" y="653.31" width="8.00" height="1.65" class="up-body"/>
<line x1="923.91" y1="616.79" x2="923.91" y2="656.38" class="up-wick"/>
<rect x="919.91" y="617.31" width="8.00" height="36.00" class="up-body"/>
<line x1="942.27" y1="612.19" x2="942.27" y2="632.81" class="down-wick"/>
<rect x="938.27" y="617.31" width="8.00" height="9.44" class="down-body"/>
<line x1="960.64" y1="609.24" x2="960.64" y2="650.85" class="down-wick"/>
<rect x="956.64" y="626.19" width="8.00" height="20.30" class="down-body"/>
<line x1="979.00" y1="644.76" x2="979.00" y2="666.39" class="down-wick"/>
<rect x="975.00" y="646.49" width="8.00" height="16.06" class="down-body"/>
<line x1="997.36" y1="659.13" x2="997.36" y2="677.89" class="down-wick"/>
<rect x="993.36" y="662.44" width="8.00" height="1.00" class="down-body"/>
<line x1="1015.73" y1="659.85" x2="1015.73" y2="678.70" class="down-wick"/>
<rect x="1011.73" y="663.04" width="8.00" height="3.35" class="down-body"/>
<line x1="1034.09" y1="663.12" x2="1034.09" y2="750.62" class="down-wick"/>
<rect x="1030.09" y="666.39" width="8.00" height="18.12" class="down-body"/>
<line x1="1052.45" y1="683.58" x2="1052.45" y2="721.77" class="down-wick"/>
<rect x="1048.45" y="684.51" width="8.00" height="14.45" class="down-body"/>
<line x1="1070.82" y1="690.93" x2="1070.82" y2="735.04" class="down-wick"/>
<rect x="1066.82" y="698.96" width="8.00" height="29.83" class="down-body"/>
<line x1="70" y1="684.67" x2="1080" y2="684.67" class="sweep-line"/>
<text x="1076" y="680.67" text-anchor="end" class="level-label">sweep 4808.92</text>
<line x1="70" y1="682.25" x2="1080" y2="682.25" class="entry-line"/>
<text x="1076" y="678.25" text-anchor="end" class="level-label">entry level 4809.52</text>
<text x="70" y="806" class="axis-label">2026-04-20 13:30:00+00:00 to 2026-04-20 18:00:00+00:00</text>
<text x="1080" y="806" text-anchor="end" class="axis-label">4783.32 - 4830.89</text>
<text x="70" y="832" class="panel-title">M1 execution window</text>
<rect x="70" y="846" width="1010" height="192" class="plot-bg"/>
<line x1="73.71" y1="971.17" x2="73.71" y2="978.87" class="up-wick"/>
<rect x="71.30" y="974.96" width="4.83" height="3.91" class="up-body"/>
<line x1="81.14" y1="976.18" x2="81.14" y2="980.25" class="up-wick"/>
<rect x="78.73" y="978.99" width="4.83" height="1.00" class="up-body"/>
<line x1="88.57" y1="981.23" x2="88.57" y2="984.20" class="down-wick"/>
<rect x="86.15" y="981.68" width="4.83" height="2.00" class="down-body"/>
<line x1="95.99" y1="981.35" x2="95.99" y2="985.83" class="down-wick"/>
<rect x="93.58" y="982.29" width="4.83" height="1.91" class="down-body"/>
<line x1="103.42" y1="983.39" x2="103.42" y2="987.83" class="up-wick"/>
<rect x="101.01" y="983.43" width="4.83" height="2.93" class="up-body"/>
<line x1="110.85" y1="983.63" x2="110.85" y2="986.16" class="up-wick"/>
<rect x="108.43" y="985.34" width="4.83" height="1.00" class="up-body"/>
<line x1="118.27" y1="984.90" x2="118.27" y2="989.86" class="down-wick"/>
<rect x="115.86" y="985.71" width="4.83" height="4.11" class="down-body"/>
<line x1="125.70" y1="989.37" x2="125.70" y2="992.14" class="down-wick"/>
<rect x="123.28" y="989.62" width="4.83" height="2.44" class="down-body"/>
<line x1="133.12" y1="988.52" x2="133.12" y2="991.09" class="down-wick"/>
<rect x="130.71" y="990.39" width="4.83" height="1.00" class="down-body"/>
<line x1="140.55" y1="984.81" x2="140.55" y2="990.56" class="up-wick"/>
<rect x="138.14" y="988.52" width="4.83" height="2.00" class="up-body"/>
<line x1="147.98" y1="985.71" x2="147.98" y2="990.11" class="down-wick"/>
<rect x="145.56" y="986.20" width="4.83" height="1.47" class="down-body"/>
<line x1="155.40" y1="988.11" x2="155.40" y2="993.69" class="up-wick"/>
<rect x="152.99" y="990.96" width="4.83" height="2.73" class="up-body"/>
<line x1="162.83" y1="987.79" x2="162.83" y2="990.88" class="up-wick"/>
<rect x="160.42" y="987.79" width="4.83" height="2.73" class="up-body"/>
<line x1="170.26" y1="984.90" x2="170.26" y2="989.09" class="up-wick"/>
<rect x="167.84" y="985.43" width="4.83" height="3.50" class="up-body"/>
<line x1="177.68" y1="987.30" x2="177.68" y2="989.90" class="down-wick"/>
<rect x="175.27" y="987.30" width="4.83" height="2.36" class="down-body"/>
<line x1="185.11" y1="986.77" x2="185.11" y2="995.89" class="down-wick"/>
<rect x="182.70" y="988.72" width="4.83" height="5.94" class="down-body"/>
<line x1="192.54" y1="998.25" x2="192.54" y2="1004.44" class="down-wick"/>
<rect x="190.12" y="1003.42" width="4.83" height="1.00" class="down-body"/>
<line x1="199.96" y1="1004.11" x2="199.96" y2="1010.87" class="down-wick"/>
<rect x="197.55" y="1006.39" width="4.83" height="2.36" class="down-body"/>
<line x1="207.39" y1="1003.83" x2="207.39" y2="1009.41" class="up-wick"/>
<rect x="204.98" y="1005.01" width="4.83" height="2.61" class="up-body"/>
<line x1="214.82" y1="996.13" x2="214.82" y2="1004.97" class="up-wick"/>
<rect x="212.40" y="1001.83" width="4.83" height="2.81" class="up-body"/>
<line x1="222.24" y1="999.39" x2="222.24" y2="1006.88" class="down-wick"/>
<rect x="219.83" y="1001.55" width="4.83" height="3.54" class="down-body"/>
<line x1="229.67" y1="1016.82" x2="229.67" y2="1024.72" class="down-wick"/>
<rect x="227.26" y="1018.16" width="4.83" height="4.07" class="down-body"/>
<line x1="237.10" y1="1012.67" x2="237.10" y2="1020.61" class="up-wick"/>
<rect x="234.68" y="1013.11" width="4.83" height="6.35" class="up-body"/>
<line x1="244.52" y1="1007.78" x2="244.52" y2="1014.62" class="down-wick"/>
<rect x="242.11" y="1011.00" width="4.83" height="2.65" class="down-body"/>
<line x1="251.95" y1="1010.43" x2="251.95" y2="1024.19" class="down-wick"/>
<rect x="249.53" y="1013.03" width="4.83" height="9.77" class="down-body"/>
<line x1="259.38" y1="1019.42" x2="259.38" y2="1024.27" class="down-wick"/>
<rect x="256.96" y="1020.81" width="4.83" height="3.09" class="down-body"/>
<line x1="266.80" y1="1020.28" x2="266.80" y2="1024.76" class="up-wick"/>
<rect x="264.39" y="1020.89" width="4.83" height="2.12" class="up-body"/>
<line x1="274.23" y1="1014.33" x2="274.23" y2="1020.40" class="up-wick"/>
<rect x="271.81" y="1015.15" width="4.83" height="1.55" class="up-body"/>
<line x1="281.65" y1="1011.04" x2="281.65" y2="1015.31" class="up-wick"/>
<rect x="279.24" y="1012.58" width="4.83" height="1.00" class="up-body"/>
<line x1="289.08" y1="1016.70" x2="289.08" y2="1021.30" class="up-wick"/>
<rect x="286.67" y="1018.53" width="4.83" height="1.00" class="up-body"/>
<line x1="296.51" y1="1015.11" x2="296.51" y2="1018.94" class="up-wick"/>
<rect x="294.09" y="1016.05" width="4.83" height="2.40" class="up-body"/>
<line x1="303.93" y1="1008.02" x2="303.93" y2="1018.41" class="up-wick"/>
<rect x="301.52" y="1015.39" width="4.83" height="1.00" class="up-body"/>
<line x1="311.36" y1="1008.27" x2="311.36" y2="1012.71" class="down-wick"/>
<rect x="308.95" y="1011.36" width="4.83" height="1.00" class="down-body"/>
<line x1="318.79" y1="1006.64" x2="318.79" y2="1015.80" class="down-wick"/>
<rect x="316.37" y="1006.68" width="4.83" height="3.05" class="down-body"/>
<line x1="326.21" y1="1007.54" x2="326.21" y2="1011.28" class="down-wick"/>
<rect x="323.80" y="1008.88" width="4.83" height="1.00" class="down-body"/>
<line x1="333.64" y1="1005.46" x2="333.64" y2="1012.05" class="down-wick"/>
<rect x="331.23" y="1007.70" width="4.83" height="1.18" class="down-body"/>
<line x1="341.07" y1="999.31" x2="341.07" y2="1009.08" class="up-wick"/>
<rect x="338.65" y="1000.45" width="4.83" height="1.71" class="up-body"/>
<line x1="348.49" y1="992.84" x2="348.49" y2="999.72" class="up-wick"/>
<rect x="346.08" y="992.84" width="4.83" height="6.88" class="up-body"/>
<line x1="355.92" y1="976.92" x2="355.92" y2="986.20" class="up-wick"/>
<rect x="353.51" y="979.40" width="4.83" height="6.80" class="up-body"/>
<line x1="363.35" y1="968.98" x2="363.35" y2="977.85" class="up-wick"/>
<rect x="360.93" y="970.81" width="4.83" height="3.14" class="up-body"/>
<line x1="370.77" y1="956.76" x2="370.77" y2="965.80" class="up-wick"/>
<rect x="368.36" y="958.88" width="4.83" height="5.82" class="up-body"/>
<line x1="378.20" y1="952.24" x2="378.20" y2="958.51" class="up-wick"/>
<rect x="375.78" y="954.24" width="4.83" height="4.23" class="up-body"/>
<line x1="385.62" y1="935.34" x2="385.62" y2="950.00" class="down-wick"/>
<rect x="383.21" y="941.29" width="4.83" height="4.11" class="down-body"/>
<line x1="393.05" y1="928.95" x2="393.05" y2="935.02" class="up-wick"/>
<rect x="390.64" y="932.57" width="4.83" height="1.95" class="up-body"/>
<line x1="400.48" y1="931.23" x2="400.48" y2="937.70" class="up-wick"/>
<rect x="398.06" y="934.20" width="4.83" height="2.65" class="up-body"/>
<line x1="407.90" y1="928.30" x2="407.90" y2="933.63" class="down-wick"/>
<rect x="405.49" y="928.95" width="4.83" height="2.57" class="down-body"/>
<line x1="415.33" y1="931.15" x2="415.33" y2="941.61" class="down-wick"/>
<rect x="412.92" y="937.95" width="4.83" height="2.81" class="down-body"/>
<line x1="422.76" y1="923.62" x2="422.76" y2="945.32" class="up-wick"/>
<rect x="420.34" y="933.80" width="4.83" height="10.14" class="up-body"/>
<line x1="430.18" y1="939.86" x2="430.18" y2="957.78" class="down-wick"/>
<rect x="427.77" y="940.68" width="4.83" height="16.69" class="down-body"/>
<line x1="437.61" y1="938.89" x2="437.61" y2="945.44" class="up-wick"/>
<rect x="435.20" y="938.89" width="4.83" height="6.56" class="up-body"/>
<line x1="445.04" y1="928.26" x2="445.04" y2="939.94" class="up-wick"/>
<rect x="442.62" y="930.74" width="4.83" height="9.20" class="up-body"/>
<line x1="452.46" y1="918.85" x2="452.46" y2="931.11" class="up-wick"/>
<rect x="450.05" y="921.09" width="4.83" height="4.07" class="up-body"/>
<line x1="459.89" y1="920.68" x2="459.89" y2="927.12" class="down-wick"/>
<rect x="457.48" y="921.13" width="4.83" height="5.29" class="down-body"/>
<line x1="467.32" y1="924.35" x2="467.32" y2="938.15" class="up-wick"/>
<rect x="464.90" y="926.95" width="4.83" height="10.34" class="up-body"/>
<line x1="474.74" y1="910.06" x2="474.74" y2="923.13" class="up-wick"/>
<rect x="472.33" y="911.07" width="4.83" height="7.21" class="up-body"/>
<line x1="482.17" y1="891.25" x2="482.17" y2="912.46" class="up-wick"/>
<rect x="479.76" y="891.61" width="4.83" height="20.44" class="up-body"/>
<line x1="489.60" y1="881.76" x2="489.60" y2="901.10" class="down-wick"/>
<rect x="487.18" y="886.93" width="4.83" height="12.01" class="down-body"/>
<line x1="497.02" y1="906.72" x2="497.02" y2="915.51" class="down-wick"/>
<rect x="494.61" y="912.30" width="4.83" height="3.22" class="down-body"/>
<line x1="504.45" y1="922.39" x2="504.45" y2="931.56" class="down-wick"/>
<rect x="502.03" y="922.84" width="4.83" height="8.27" class="down-body"/>
<line x1="511.88" y1="943.16" x2="511.88" y2="954.52" class="up-wick"/>
<rect x="509.46" y="951.18" width="4.83" height="3.09" class="up-body"/>
<line x1="519.30" y1="933.10" x2="519.30" y2="948.21" class="up-wick"/>
<rect x="516.89" y="938.64" width="4.83" height="9.37" class="up-body"/>
<line x1="526.73" y1="938.40" x2="526.73" y2="952.97" class="down-wick"/>
<rect x="524.31" y="942.63" width="4.83" height="4.60" class="down-body"/>
<line x1="534.15" y1="945.36" x2="534.15" y2="954.15" class="up-wick"/>
<rect x="531.74" y="946.38" width="4.83" height="4.36" class="up-body"/>
<line x1="541.58" y1="952.40" x2="541.58" y2="961.81" class="down-wick"/>
<rect x="539.17" y="952.73" width="4.83" height="7.45" class="down-body"/>
<line x1="549.01" y1="955.70" x2="549.01" y2="975.00" class="up-wick"/>
<rect x="546.59" y="956.72" width="4.83" height="9.16" class="up-body"/>
<line x1="556.43" y1="953.14" x2="556.43" y2="956.60" class="up-wick"/>
<rect x="554.02" y="953.26" width="4.83" height="3.05" class="up-body"/>
<line x1="563.86" y1="940.88" x2="563.86" y2="954.52" class="up-wick"/>
<rect x="561.45" y="946.83" width="4.83" height="6.27" class="up-body"/>
<line x1="571.29" y1="940.60" x2="571.29" y2="947.11" class="down-wick"/>
<rect x="568.87" y="943.89" width="4.83" height="2.81" class="down-body"/>
<line x1="578.71" y1="941.74" x2="578.71" y2="954.56" class="up-wick"/>
<rect x="576.30" y="941.74" width="4.83" height="9.61" class="up-body"/>
<line x1="586.14" y1="938.84" x2="586.14" y2="944.95" class="up-wick"/>
<rect x="583.73" y="942.79" width="4.83" height="1.00" class="up-body"/>
<line x1="593.57" y1="941.04" x2="593.57" y2="949.39" class="down-wick"/>
<rect x="591.15" y="946.34" width="4.83" height="1.51" class="down-body"/>
<line x1="600.99" y1="948.01" x2="600.99" y2="964.99" class="down-wick"/>
<rect x="598.58" y="948.86" width="4.83" height="15.55" class="down-body"/>
<line x1="608.42" y1="955.42" x2="608.42" y2="965.35" class="up-wick"/>
<rect x="606.01" y="957.86" width="4.83" height="1.55" class="up-body"/>
<line x1="615.85" y1="955.13" x2="615.85" y2="959.16" class="down-wick"/>
<rect x="613.43" y="955.74" width="4.83" height="3.26" class="down-body"/>
<line x1="623.27" y1="961.24" x2="623.27" y2="967.39" class="up-wick"/>
<rect x="620.86" y="961.24" width="4.83" height="2.61" class="up-body"/>
<line x1="630.70" y1="951.06" x2="630.70" y2="973.09" class="down-wick"/>
<rect x="628.28" y="957.57" width="4.83" height="12.22" class="down-body"/>
<line x1="638.12" y1="960.22" x2="638.12" y2="969.99" class="down-wick"/>
<rect x="635.71" y="964.78" width="4.83" height="1.51" class="down-body"/>
<line x1="645.55" y1="953.58" x2="645.55" y2="966.37" class="up-wick"/>
<rect x="643.14" y="957.45" width="4.83" height="8.10" class="up-body"/>
<line x1="652.98" y1="936.40" x2="652.98" y2="949.88" class="up-wick"/>
<rect x="650.56" y="936.40" width="4.83" height="13.44" class="up-body"/>
<line x1="660.40" y1="910.79" x2="660.40" y2="953.01" class="up-wick"/>
<rect x="657.99" y="922.60" width="4.83" height="17.59" class="up-body"/>
<line x1="667.83" y1="920.32" x2="667.83" y2="931.23" class="up-wick"/>
<rect x="665.42" y="925.73" width="4.83" height="1.00" class="up-body"/>
<line x1="675.26" y1="905.58" x2="675.26" y2="923.58" class="up-wick"/>
<rect x="672.84" y="909.12" width="4.83" height="14.21" class="up-body"/>
<line x1="682.68" y1="906.96" x2="682.68" y2="915.11" class="down-wick"/>
<rect x="680.27" y="907.70" width="4.83" height="1.34" class="down-body"/>
<line x1="690.11" y1="912.17" x2="690.11" y2="919.06" class="down-wick"/>
<rect x="687.70" y="913.84" width="4.83" height="1.00" class="down-body"/>
<line x1="697.54" y1="914.62" x2="697.54" y2="921.62" class="up-wick"/>
<rect x="695.12" y="916.21" width="4.83" height="5.42" class="up-body"/>
<line x1="704.96" y1="892.87" x2="704.96" y2="909.41" class="up-wick"/>
<rect x="702.55" y="894.83" width="4.83" height="11.73" class="up-body"/>
<line x1="712.39" y1="891.69" x2="712.39" y2="909.32" class="up-wick"/>
<rect x="709.98" y="893.57" width="4.83" height="7.00" class="up-body"/>
<line x1="719.82" y1="895.07" x2="719.82" y2="905.99" class="down-wick"/>
<rect x="717.40" y="895.44" width="4.83" height="8.43" class="down-body"/>
<line x1="727.24" y1="901.59" x2="727.24" y2="910.63" class="up-wick"/>
<rect x="724.83" y="901.71" width="4.83" height="4.80" class="up-body"/>
<line x1="734.67" y1="884.12" x2="734.67" y2="891.25" class="up-wick"/>
<rect x="732.26" y="887.91" width="4.83" height="1.00" class="up-body"/>
<line x1="742.10" y1="864.62" x2="742.10" y2="881.68" class="down-wick"/>
<rect x="739.68" y="872.15" width="4.83" height="6.76" class="down-body"/>
<line x1="749.52" y1="887.87" x2="749.52" y2="899.88" class="down-wick"/>
<rect x="747.11" y="893.73" width="4.83" height="1.87" class="down-body"/>
<line x1="756.95" y1="881.84" x2="756.95" y2="903.79" class="up-wick"/>
<rect x="754.53" y="882.25" width="4.83" height="16.04" class="up-body"/>
<line x1="764.38" y1="867.95" x2="764.38" y2="879.52" class="up-wick"/>
<rect x="761.96" y="877.61" width="4.83" height="1.00" class="up-body"/>
<line x1="771.80" y1="881.60" x2="771.80" y2="898.49" class="down-wick"/>
<rect x="769.39" y="884.00" width="4.83" height="14.25" class="down-body"/>
<line x1="779.23" y1="890.11" x2="779.23" y2="903.22" class="up-wick"/>
<rect x="776.81" y="891.08" width="4.83" height="6.15" class="up-body"/>
<line x1="786.65" y1="889.01" x2="786.65" y2="898.70" class="up-wick"/>
<rect x="784.24" y="889.70" width="4.83" height="3.91" class="up-body"/>
<line x1="794.08" y1="873.78" x2="794.08" y2="884.24" class="up-wick"/>
<rect x="791.67" y="880.17" width="4.83" height="2.40" class="up-body"/>
<line x1="801.51" y1="871.78" x2="801.51" y2="892.10" class="down-wick"/>
<rect x="799.09" y="877.44" width="4.83" height="14.37" class="down-body"/>
<line x1="808.93" y1="874.47" x2="808.93" y2="893.89" class="down-wick"/>
<rect x="806.52" y="878.79" width="4.83" height="12.38" class="down-body"/>
<line x1="816.36" y1="881.84" x2="816.36" y2="890.27" class="up-wick"/>
<rect x="813.95" y="887.26" width="4.83" height="1.34" class="up-body"/>
<line x1="823.79" y1="887.34" x2="823.79" y2="899.92" class="up-wick"/>
<rect x="821.37" y="892.06" width="4.83" height="5.99" class="up-body"/>
<line x1="831.21" y1="881.43" x2="831.21" y2="895.20" class="up-wick"/>
<rect x="828.80" y="884.97" width="4.83" height="8.43" class="up-body"/>
<line x1="838.64" y1="877.73" x2="838.64" y2="887.66" class="down-wick"/>
<rect x="836.23" y="880.01" width="4.83" height="1.95" class="down-body"/>
<line x1="846.07" y1="884.28" x2="846.07" y2="893.57" class="down-wick"/>
<rect x="843.65" y="886.36" width="4.83" height="1.75" class="down-body"/>
<line x1="853.49" y1="896.54" x2="853.49" y2="914.13" class="down-wick"/>
<rect x="851.08" y="898.62" width="4.83" height="12.09" class="down-body"/>
<line x1="860.92" y1="907.53" x2="860.92" y2="923.37" class="up-wick"/>
<rect x="858.51" y="907.98" width="4.83" height="7.86" class="up-body"/>
<line x1="868.35" y1="899.10" x2="868.35" y2="917.59" class="up-wick"/>
<rect x="865.93" y="899.10" width="4.83" height="17.63" class="up-body"/>
<line x1="875.77" y1="898.45" x2="875.77" y2="905.37" class="down-wick"/>
<rect x="873.36" y="902.36" width="4.83" height="1.10" class="down-body"/>
<line x1="883.20" y1="898.17" x2="883.20" y2="923.58" class="down-wick"/>
<rect x="880.78" y="902.44" width="4.83" height="16.21" class="down-body"/>
<line x1="890.62" y1="912.13" x2="890.62" y2="939.46" class="down-wick"/>
<rect x="888.21" y="918.97" width="4.83" height="14.05" class="down-body"/>
<line x1="898.05" y1="930.13" x2="898.05" y2="943.12" class="down-wick"/>
<rect x="895.64" y="935.87" width="4.83" height="1.59" class="down-body"/>
<line x1="905.48" y1="902.32" x2="905.48" y2="922.56" class="up-wick"/>
<rect x="903.06" y="905.37" width="4.83" height="15.51" class="up-body"/>
<line x1="912.90" y1="901.87" x2="912.90" y2="910.63" class="up-wick"/>
<rect x="910.49" y="906.07" width="4.83" height="3.54" class="up-body"/>
<line x1="920.33" y1="898.94" x2="920.33" y2="907.49" class="down-wick"/>
<rect x="917.92" y="899.88" width="4.83" height="5.37" class="down-body"/>
<line x1="927.76" y1="892.63" x2="927.76" y2="906.80" class="up-wick"/>
<rect x="925.34" y="898.78" width="4.83" height="4.93" class="up-body"/>
<line x1="935.18" y1="881.51" x2="935.18" y2="890.43" class="up-wick"/>
<rect x="932.77" y="885.75" width="4.83" height="1.18" class="up-body"/>
<line x1="942.61" y1="866.86" x2="942.61" y2="879.32" class="up-wick"/>
<rect x="940.20" y="867.38" width="4.83" height="9.49" class="up-body"/>
<line x1="950.04" y1="863.11" x2="950.04" y2="874.80" class="up-wick"/>
<rect x="947.62" y="864.74" width="4.83" height="9.69" class="up-body"/>
<line x1="957.46" y1="867.87" x2="957.46" y2="878.13" class="down-wick"/>
<rect x="955.05" y="869.01" width="4.83" height="7.57" class="down-body"/>
<line x1="964.89" y1="859.24" x2="964.89" y2="877.40" class="up-wick"/>
<rect x="962.48" y="868.40" width="4.83" height="7.94" class="up-body"/>
<line x1="972.32" y1="868.85" x2="972.32" y2="879.97" class="up-wick"/>
<rect x="969.90" y="873.98" width="4.83" height="4.64" class="up-body"/>
<line x1="979.74" y1="883.43" x2="979.74" y2="901.22" class="down-wick"/>
<rect x="977.33" y="883.43" width="4.83" height="13.40" class="down-body"/>
<line x1="987.17" y1="905.54" x2="987.17" y2="913.80" class="down-wick"/>
<rect x="984.76" y="907.78" width="4.83" height="2.12" class="down-body"/>
<line x1="994.60" y1="902.36" x2="994.60" y2="908.47" class="down-wick"/>
<rect x="992.18" y="904.28" width="4.83" height="2.93" class="down-body"/>
<line x1="1002.02" y1="909.57" x2="1002.02" y2="921.17" class="down-wick"/>
<rect x="999.61" y="912.91" width="4.83" height="1.06" class="down-body"/>
<line x1="1009.45" y1="920.60" x2="1009.45" y2="928.50" class="up-wick"/>
<rect x="1007.03" y="922.96" width="4.83" height="1.51" class="up-body"/>
<line x1="1016.88" y1="910.59" x2="1016.88" y2="918.81" class="up-wick"/>
<rect x="1014.46" y="913.52" width="4.83" height="1.71" class="up-body"/>
<line x1="1024.30" y1="912.05" x2="1024.30" y2="929.32" class="down-wick"/>
<rect x="1021.89" y="913.68" width="4.83" height="8.55" class="down-body"/>
<line x1="1031.73" y1="920.77" x2="1031.73" y2="928.22" class="down-wick"/>
<rect x="1029.31" y="925.04" width="4.83" height="2.61" class="down-body"/>
<line x1="1039.15" y1="913.60" x2="1039.15" y2="924.43" class="down-wick"/>
<rect x="1036.74" y="916.90" width="4.83" height="3.79" class="down-body"/>
<line x1="1046.58" y1="933.96" x2="1046.58" y2="960.87" class="down-wick"/>
<rect x="1044.17" y="948.66" width="4.83" height="11.32" class="down-body"/>
<line x1="1054.01" y1="934.12" x2="1054.01" y2="956.15" class="up-wick"/>
<rect x="1051.59" y="935.18" width="4.83" height="16.33" class="up-body"/>
<line x1="1061.43" y1="943.77" x2="1061.43" y2="954.15" class="down-wick"/>
<rect x="1059.02" y="951.30" width="4.83" height="2.08" class="down-body"/>
<line x1="1068.86" y1="961.20" x2="1068.86" y2="970.97" class="up-wick"/>
<rect x="1066.45" y="961.20" width="4.83" height="1.00" class="up-body"/>
<line x1="1076.29" y1="941.65" x2="1076.29" y2="958.10" class="down-wick"/>
<rect x="1073.87" y="949.76" width="4.83" height="7.53" class="down-body"/>
<line x1="70" y1="935.34" x2="1080" y2="935.34" class="sweep-line"/>
<text x="1076" y="931.34" text-anchor="end" class="level-label">sweep 4808.92</text>
<line x1="70" y1="932.90" x2="1080" y2="932.90" class="entry-line"/>
<text x="1076" y="928.90" text-anchor="end" class="level-label">entry level 4809.52</text>
<text x="70" y="1056" class="axis-label">2026-04-20 13:30:00+00:00 to 2026-04-20 18:00:00+00:00</text>
<text x="1080" y="1056" text-anchor="end" class="axis-label">4783.71 - 4830.86</text>
</svg>