<svg xmlns="http://www.w3.org/2000/svg" width="1120" height="1054" viewBox="0 0 1120 1054">
<style>
text{font-family:Arial,Helvetica,sans-serif}.title{font-size:21px;font-weight:700;fill:#1f2937}.subtitle{font-size:12px;fill:#4b5563}.panel-title{font-size:15px;font-weight:700;fill:#111827}.muted{font-size:13px;fill:#6b7280}.plot-bg{fill:#f8fafc;stroke:#cbd5e1;stroke-width:1}.up-body{fill:#15803d;stroke:#14532d;stroke-width:.8}.down-body{fill:#b91c1c;stroke:#7f1d1d;stroke-width:.8}.up-wick{stroke:#14532d;stroke-width:1}.down-wick{stroke:#7f1d1d;stroke-width:1}.sweep-line{stroke:#7c3aed;stroke-width:1.6;stroke-dasharray:6 4}.number-line{stroke:#0f766e;stroke-width:1.4;stroke-dasharray:3 4}.entry-line{stroke:#2563eb;stroke-width:1.4}.sl-line{stroke:#dc2626;stroke-width:1.4}.tp-line{stroke:#16a34a;stroke-width:1.4}.level-label,.axis-label{font-size:11px;fill:#374151}
</style>
<text x="28" y="28" class="title">Adelin v2 visual review sample sample_050</text>
<text x="28" y="48" class="subtitle">Candidate windows are for visual labeling only and are not trade signals.</text>
<text x="560" y="48" class="subtitle" text-anchor="middle">NUMBER_THEORY_LEVEL_NEAR | ROUND_LEVEL_ENTRY_METADATA_AVAILABLE</text>
<text x="70" y="82" class="panel-title">H1 liquidity context</text>
<rect x="70" y="96" width="1010" height="192" class="plot-bg"/>
<line x1="81.22" y1="138.60" x2="81.22" y2="153.37" class="up-wick"/>
<rect x="77.22" y="144.03" width="8.00" height="7.88" class="up-body"/>
<line x1="103.67" y1="141.78" x2="103.67" y2="162.26" class="down-wick"/>
<rect x="99.67" y="144.03" width="8.00" height="18.23" class="down-body"/>
<line x1="126.11" y1="154.96" x2="126.11" y2="168.90" class="down-wick"/>
<rect x="122.11" y="162.24" width="8.00" height="4.42" class="down-body"/>
<line x1="148.56" y1="163.63" x2="148.56" y2="181.33" class="down-wick"/>
<rect x="144.56" y="166.67" width="8.00" height="10.52" class="down-body"/>
<line x1="171.00" y1="173.80" x2="171.00" y2="196.86" class="down-wick"/>
<rect x="167.00" y="177.19" width="8.00" height="17.27" class="down-body"/>
<line x1="193.44" y1="189.95" x2="193.44" y2="208.08" class="down-wick"/>
<rect x="189.44" y="194.47" width="8.00" height="9.74" class="down-body"/>
<line x1="215.89" y1="199.89" x2="215.89" y2="213.28" class="down-wick"/>
<rect x="211.89" y="203.96" width="8.00" height="6.59" class="down-body"/>
<line x1="238.33" y1="196.73" x2="238.33" y2="211.92" class="up-wick"/>
<rect x="234.33" y="206.24" width="8.00" height="4.38" class="up-body"/>
<line x1="260.78" y1="193.01" x2="260.78" y2="210.74" class="up-wick"/>
<rect x="256.78" y="193.95" width="8.00" height="12.28" class="up-body"/>
<line x1="283.22" y1="163.74" x2="283.22" y2="197.90" class="up-wick"/>
<rect x="279.22" y="180.94" width="8.00" height="13.02" class="up-body"/>
<line x1="305.67" y1="141.74" x2="305.67" y2="185.81" class="up-wick"/>
<rect x="301.67" y="144.84" width="8.00" height="36.11" class="up-body"/>
<line x1="328.11" y1="109.24" x2="328.11" y2="145.83" class="up-wick"/>
<rect x="324.11" y="138.42" width="8.00" height="6.45" class="up-body"/>
<line x1="350.56" y1="121.56" x2="350.56" y2="151.89" class="up-wick"/>
<rect x="346.56" y="126.82" width="8.00" height="11.59" class="up-body"/>
<line x1="373.00" y1="119.70" x2="373.00" y2="136.46" class="down-wick"/>
<rect x="369.00" y="126.82" width="8.00" height="4.45" class="down-body"/>
<line x1="395.44" y1="127.31" x2="395.44" y2="143.90" class="down-wick"/>
<rect x="391.44" y="131.27" width="8.00" height="9.85" class="down-body"/>
<line x1="417.89" y1="139.86" x2="417.89" y2="157.62" class="down-wick"/>
<rect x="413.89" y="141.12" width="8.00" height="5.40" class="down-body"/>
<line x1="440.33" y1="142.99" x2="440.33" y2="162.75" class="down-wick"/>
<rect x="436.33" y="146.50" width="8.00" height="14.05" class="down-body"/>
<line x1="462.78" y1="141.23" x2="462.78" y2="158.72" class="down-wick"/>
<rect x="458.78" y="143.58" width="8.00" height="8.67" class="down-body"/>
<line x1="485.22" y1="150.12" x2="485.22" y2="160.05" class="down-wick"/>
<rect x="481.22" y="152.25" width="8.00" height="5.12" class="down-body"/>
<line x1="507.67" y1="154.58" x2="507.67" y2="169.80" class="down-wick"/>
<rect x="503.67" y="157.36" width="8.00" height="1.00" class="down-body"/>
<line x1="530.11" y1="157.22" x2="530.11" y2="179.45" class="up-wick"/>
<rect x="526.11" y="158.17" width="8.00" height="1.00" class="up-body"/>
<line x1="552.56" y1="152.37" x2="552.56" y2="181.01" class="down-wick"/>
<rect x="548.56" y="158.17" width="8.00" height="7.50" class="down-body"/>
<line x1="575.00" y1="153.92" x2="575.00" y2="173.39" class="up-wick"/>
<rect x="571.00" y="156.20" width="8.00" height="9.47" class="up-body"/>
<line x1="597.44" y1="155.78" x2="597.44" y2="166.44" class="down-wick"/>
<rect x="593.44" y="156.14" width="8.00" height="9.47" class="down-body"/>
<line x1="619.89" y1="158.08" x2="619.89" y2="179.77" class="down-wick"/>
<rect x="615.89" y="165.59" width="8.00" height="7.17" class="down-body"/>
<line x1="642.33" y1="171.03" x2="642.33" y2="188.77" class="down-wick"/>
<rect x="638.33" y="172.76" width="8.00" height="10.85" class="down-body"/>
<line x1="664.78" y1="178.66" x2="664.78" y2="194.75" class="down-wick"/>
<rect x="660.78" y="183.61" width="8.00" height="10.07" class="down-body"/>
<line x1="687.22" y1="191.13" x2="687.22" y2="199.02" class="down-wick"/>
<rect x="683.22" y="193.67" width="8.00" height="2.03" class="down-body"/>
<line x1="709.67" y1="187.88" x2="709.67" y2="200.57" class="down-wick"/>
<rect x="705.67" y="195.77" width="8.00" height="1.58" class="down-body"/>
<line x1="732.11" y1="196.91" x2="732.11" y2="247.41" class="down-wick"/>
<rect x="728.11" y="197.36" width="8.00" height="13.27" class="down-body"/>
<line x1="754.56" y1="202.17" x2="754.56" y2="222.30" class="down-wick"/>
<rect x="750.56" y="210.62" width="8.00" height="2.10" class="down-body"/>
<line x1="777.00" y1="193.30" x2="777.00" y2="214.18" class="up-wick"/>
<rect x="773.00" y="204.72" width="8.00" height="8.01" class="up-body"/>
<line x1="799.44" y1="197.14" x2="799.44" y2="218.02" class="down-wick"/>
<rect x="795.44" y="204.72" width="8.00" height="4.44" class="down-body"/>
<line x1="821.89" y1="189.19" x2="821.89" y2="220.06" class="down-wick"/>
<rect x="817.89" y="209.16" width="8.00" height="2.67" class="down-body"/>
<line x1="844.33" y1="207.07" x2="844.33" y2="262.73" class="down-wick"/>
<rect x="840.33" y="211.83" width="8.00" height="41.52" class="down-body"/>
<line x1="866.78" y1="247.83" x2="866.78" y2="274.76" class="down-wick"/>
<rect x="862.78" y="253.35" width="8.00" height="11.28" class="down-body"/>
<line x1="889.22" y1="242.84" x2="889.22" y2="264.66" class="up-wick"/>
<rect x="885.22" y="252.48" width="8.00" height="12.16" class="up-body"/>
<line x1="911.67" y1="249.34" x2="911.67" y2="265.54" class="down-wick"/>
<rect x="907.67" y="252.48" width="8.00" height="6.32" class="down-body"/>
<line x1="934.11" y1="247.55" x2="934.11" y2="263.99" class="up-wick"/>
<rect x="930.11" y="257.26" width="8.00" height="1.54" class="up-body"/>
<line x1="956.56" y1="250.49" x2="956.56" y2="259.47" class="down-wick"/>
<rect x="952.56" y="251.35" width="8.00" height="6.20" class="down-body"/>
<line x1="979.00" y1="253.28" x2="979.00" y2="258.91" class="up-wick"/>
<rect x="975.00" y="256.01" width="8.00" height="1.54" class="up-body"/>
<line x1="1001.44" y1="244.06" x2="1001.44" y2="261.64" class="up-wick"/>
<rect x="997.44" y="244.55" width="8.00" height="11.46" class="up-body"/>
<line x1="1023.89" y1="232.01" x2="1023.89" y2="249.30" class="up-wick"/>
<rect x="1019.89" y="233.26" width="8.00" height="11.42" class="up-body"/>
<line x1="1046.33" y1="227.23" x2="1046.33" y2="239.76" class="down-wick"/>
<rect x="1042.33" y="233.26" width="8.00" height="1.92" class="down-body"/>
<line x1="1068.78" y1="231.35" x2="1068.78" y2="242.15" class="down-wick"/>
<rect x="1064.78" y="235.18" width="8.00" height="4.66" class="down-body"/>
<line x1="70" y1="161.40" x2="1080" y2="161.40" class="number-line"/>
<text x="1076" y="157.40" text-anchor="end" class="level-label">round 4610.00</text>
<line x1="70" y1="161.40" x2="1080" y2="161.40" class="entry-line"/>
<text x="1076" y="157.40" text-anchor="end" class="level-label">entry level 4610.00</text>
<text x="70" y="306" class="axis-label">2026-05-01 06:00:00+00:00 to 2026-05-05 06:00:00+00:00</text>
<text x="1080" y="306" text-anchor="end" class="axis-label">4488.25 - 4672.89</text>
<text x="70" y="332" class="panel-title">M15 liquidity / reaction context</text>
<rect x="70" y="346" width="1010" height="192" class="plot-bg"/>
<line x1="81.22" y1="361.53" x2="81.22" y2="397.60" class="down-wick"/>
<rect x="77.22" y="365.97" width="8.00" height="12.51" class="down-body"/>
<line x1="103.67" y1="377.85" x2="103.67" y2="409.33" class="down-wick"/>
<rect x="99.67" y="378.12" width="8.00" height="6.67" class="down-body"/>
<line x1="126.11" y1="359.24" x2="126.11" y2="387.80" class="up-wick"/>
<rect x="122.11" y="363.02" width="8.00" height="21.74" class="up-body"/>
<line x1="148.56" y1="359.93" x2="148.56" y2="392.21" class="down-wick"/>
<rect x="144.56" y="363.05" width="8.00" height="27.75" class="down-body"/>
<line x1="171.00" y1="384.70" x2="171.00" y2="413.14" class="down-wick"/>
<rect x="167.00" y="390.81" width="8.00" height="11.02" class="down-body"/>
<line x1="193.44" y1="394.29" x2="193.44" y2="407.48" class="up-wick"/>
<rect x="189.44" y="395.96" width="8.00" height="5.87" class="up-body"/>
<line x1="215.89" y1="391.52" x2="215.89" y2="408.44" class="down-wick"/>
<rect x="211.89" y="395.96" width="8.00" height="10.69" class="down-body"/>
<line x1="238.33" y1="395.99" x2="238.33" y2="412.43" class="up-wick"/>
<rect x="234.33" y="405.46" width="8.00" height="1.28" class="up-body"/>
<line x1="260.78" y1="397.48" x2="260.78" y2="433.42" class="down-wick"/>
<rect x="256.78" y="405.46" width="8.00" height="5.06" class="down-body"/>
<line x1="283.22" y1="402.90" x2="283.22" y2="441.08" class="down-wick"/>
<rect x="279.22" y="410.52" width="8.00" height="18.79" class="down-body"/>
<line x1="305.67" y1="416.81" x2="305.67" y2="431.73" class="down-wick"/>
<rect x="301.67" y="429.31" width="8.00" height="1.00" class="down-body"/>
<line x1="328.11" y1="406.77" x2="328.11" y2="432.35" class="up-wick"/>
<rect x="324.11" y="407.99" width="8.00" height="21.53" class="up-body"/>
<line x1="350.56" y1="405.04" x2="350.56" y2="458.83" class="down-wick"/>
<rect x="346.56" y="407.99" width="8.00" height="36.99" class="down-body"/>
<line x1="373.00" y1="433.39" x2="373.00" y2="464.19" class="down-wick"/>
<rect x="369.00" y="444.83" width="8.00" height="18.02" class="down-body"/>
<line x1="395.44" y1="442.03" x2="395.44" y2="468.71" class="up-wick"/>
<rect x="391.44" y="442.36" width="8.00" height="20.49" class="up-body"/>
<line x1="417.89" y1="405.64" x2="417.89" y2="443.85" class="up-wick"/>
<rect x="413.89" y="407.78" width="8.00" height="34.57" class="up-body"/>
<line x1="440.33" y1="391.17" x2="440.33" y2="436.19" class="down-wick"/>
<rect x="436.33" y="407.78" width="8.00" height="14.06" class="down-body"/>
<line x1="462.78" y1="421.84" x2="462.78" y2="472.20" class="down-wick"/>
<rect x="458.78" y="421.84" width="8.00" height="45.38" class="down-body"/>
<line x1="485.22" y1="434.91" x2="485.22" y2="473.18" class="up-wick"/>
<rect x="481.22" y="434.91" width="8.00" height="32.31" class="up-body"/>
<line x1="507.67" y1="413.68" x2="507.67" y2="443.25" class="up-wick"/>
<rect x="503.67" y="429.25" width="8.00" height="5.66" class="up-body"/>
<line x1="530.11" y1="411.77" x2="530.11" y2="433.51" class="up-wick"/>
<rect x="526.11" y="416.93" width="8.00" height="12.33" class="up-body"/>
<line x1="552.56" y1="414.04" x2="552.56" y2="422.23" class="down-wick"/>
<rect x="548.56" y="416.93" width="8.00" height="1.00" class="down-body"/>
<line x1="575.00" y1="413.47" x2="575.00" y2="451.35" class="down-wick"/>
<rect x="571.00" y="417.55" width="8.00" height="14.47" class="down-body"/>
<line x1="597.44" y1="395.60" x2="597.44" y2="431.90" class="up-wick"/>
<rect x="593.44" y="402.12" width="8.00" height="29.78" class="up-body"/>
<line x1="619.89" y1="400.93" x2="619.89" y2="423.51" class="down-wick"/>
<rect x="615.89" y="401.95" width="8.00" height="11.58" class="down-body"/>
<line x1="642.33" y1="407.66" x2="642.33" y2="425.65" class="down-wick"/>
<rect x="638.33" y="413.47" width="8.00" height="9.44" class="down-body"/>
<line x1="664.78" y1="408.05" x2="664.78" y2="425.50" class="up-wick"/>
<rect x="660.78" y="419.40" width="8.00" height="3.60" class="up-body"/>
<line x1="687.22" y1="415.61" x2="687.22" y2="431.46" class="down-wick"/>
<rect x="683.22" y="419.40" width="8.00" height="9.68" class="down-body"/>
<line x1="709.67" y1="426.51" x2="709.67" y2="440.99" class="down-wick"/>
<rect x="705.67" y="429.02" width="8.00" height="6.22" class="down-body"/>
<line x1="732.11" y1="407.51" x2="732.11" y2="459.66" class="down-wick"/>
<rect x="728.11" y="435.24" width="8.00" height="21.95" class="down-body"/>
<line x1="754.56" y1="448.94" x2="754.56" y2="469.64" class="up-wick"/>
<rect x="750.56" y="449.33" width="8.00" height="7.86" class="up-body"/>
<line x1="777.00" y1="440.69" x2="777.00" y2="463.41" class="down-wick"/>
<rect x="773.00" y="449.33" width="8.00" height="1.00" class="down-body"/>
<line x1="799.44" y1="444.59" x2="799.44" y2="483.25" class="down-wick"/>
<rect x="795.44" y="449.56" width="8.00" height="4.62" class="down-body"/>
<line x1="821.89" y1="453.08" x2="821.89" y2="479.31" class="down-wick"/>
<rect x="817.89" y="454.21" width="8.00" height="10.75" class="down-body"/>
<line x1="844.33" y1="459.93" x2="844.33" y2="493.49" class="down-wick"/>
<rect x="840.33" y="464.96" width="8.00" height="25.10" class="down-body"/>
<line x1="866.78" y1="469.37" x2="866.78" y2="495.40" class="up-wick"/>
<rect x="862.78" y="480.62" width="8.00" height="9.47" class="up-body"/>
<line x1="889.22" y1="466.45" x2="889.22" y2="489.92" class="up-wick"/>
<rect x="885.22" y="470.11" width="8.00" height="10.51" class="up-body"/>
<line x1="911.67" y1="468.39" x2="911.67" y2="496.71" class="down-wick"/>
<rect x="907.67" y="470.53" width="8.00" height="18.43" class="down-body"/>
<line x1="934.11" y1="481.96" x2="934.11" y2="498.61" class="up-wick"/>
<rect x="930.11" y="482.50" width="8.00" height="6.46" class="up-body"/>
<line x1="956.56" y1="474.01" x2="956.56" y2="512.52" class="down-wick"/>
<rect x="952.56" y="482.50" width="8.00" height="26.95" class="down-body"/>
<line x1="979.00" y1="503.29" x2="979.00" y2="523.63" class="up-wick"/>
<rect x="975.00" y="505.94" width="8.00" height="3.51" class="up-body"/>
<line x1="1001.44" y1="502.57" x2="1001.44" y2="523.45" class="down-wick"/>
<rect x="997.44" y="505.91" width="8.00" height="15.19" class="down-body"/>
<line x1="1023.89" y1="502.16" x2="1023.89" y2="524.76" class="up-wick"/>
<rect x="1019.89" y="512.04" width="8.00" height="9.14" class="up-body"/>
<line x1="1046.33" y1="507.31" x2="1046.33" y2="518.74" class="down-wick"/>
<rect x="1042.33" y="512.04" width="8.00" height="3.22" class="down-body"/>
<line x1="1068.78" y1="493.37" x2="1068.78" y2="517.52" class="up-wick"/>
<rect x="1064.78" y="494.14" width="8.00" height="21.32" class="up-body"/>
<line x1="70" y1="417.01" x2="1080" y2="417.01" class="number-line"/>
<text x="1076" y="413.01" text-anchor="end" class="level-label">round 4610.00</text>
<line x1="70" y1="417.01" x2="1080" y2="417.01" class="entry-line"/>
<text x="1076" y="413.01" text-anchor="end" class="level-label">entry level 4610.00</text>
<text x="70" y="556" class="axis-label">2026-05-04 01:00:00+00:00 to 2026-05-04 12:00:00+00:00</text>
<text x="1080" y="556" text-anchor="end" class="axis-label">4569.37 - 4633.85</text>
<text x="70" y="582" class="panel-title">M5 reaction / execution context</text>
<rect x="70" y="596" width="1010" height="192" class="plot-bg"/>
<line x1="79.18" y1="723.85" x2="79.18" y2="765.74" class="up-wick"/>
<rect x="75.18" y="725.90" width="8.00" height="28.01" class="up-body"/>
<line x1="97.55" y1="718.26" x2="97.55" y2="732.39" class="up-wick"/>
<rect x="93.55" y="720.13" width="8.00" height="5.77" class="up-body"/>
<line x1="115.91" y1="711.89" x2="115.91" y2="726.50" class="up-wick"/>
<rect x="111.91" y="712.55" width="8.00" height="6.85" class="up-body"/>
<line x1="134.27" y1="701.08" x2="134.27" y2="715.56" class="down-wick"/>
<rect x="130.27" y="712.55" width="8.00" height="1.38" class="down-body"/>
<line x1="152.64" y1="681.06" x2="152.64" y2="715.02" class="up-wick"/>
<rect x="148.64" y="684.31" width="8.00" height="29.63" class="up-body"/>
<line x1="171.00" y1="638.45" x2="171.00" y2="686.65" class="up-wick"/>
<rect x="167.00" y="642.78" width="8.00" height="41.53" class="up-body"/>
<line x1="189.36" y1="609.24" x2="189.36" y2="648.01" class="up-wick"/>
<rect x="185.36" y="641.94" width="8.00" height="1.00" class="up-body"/>
<line x1="207.73" y1="640.55" x2="207.73" y2="674.93" class="down-wick"/>
<rect x="203.73" y="641.94" width="8.00" height="26.14" class="down-body"/>
<line x1="226.09" y1="660.27" x2="226.09" y2="700.11" class="down-wick"/>
<rect x="222.09" y="668.08" width="8.00" height="3.07" class="down-body"/>
<line x1="244.45" y1="671.15" x2="244.45" y2="706.24" class="down-wick"/>
<rect x="240.45" y="671.15" width="8.00" height="20.31" class="down-body"/>
<line x1="262.82" y1="690.68" x2="262.82" y2="737.74" class="down-wick"/>
<rect x="258.82" y="691.40" width="8.00" height="39.79" class="down-body"/>
<line x1="281.18" y1="726.86" x2="281.18" y2="772.78" class="down-wick"/>
<rect x="277.18" y="731.01" width="8.00" height="31.73" class="down-body"/>
<line x1="299.55" y1="744.95" x2="299.55" y2="774.76" class="up-wick"/>
<rect x="295.55" y="748.25" width="8.00" height="14.48" class="up-body"/>
<line x1="317.91" y1="711.47" x2="317.91" y2="750.30" class="up-wick"/>
<rect x="313.91" y="717.84" width="8.00" height="30.41" class="up-body"/>
<line x1="336.27" y1="697.53" x2="336.27" y2="725.12" class="up-wick"/>
<rect x="332.27" y="697.53" width="8.00" height="20.13" class="up-body"/>
<line x1="354.64" y1="690.50" x2="354.64" y2="714.36" class="up-wick"/>
<rect x="350.64" y="694.34" width="8.00" height="3.19" class="up-body"/>
<line x1="373.00" y1="659.12" x2="373.00" y2="705.70" class="up-wick"/>
<rect x="369.00" y="664.23" width="8.00" height="30.11" class="up-body"/>
<line x1="391.36" y1="654.68" x2="391.36" y2="686.77" class="down-wick"/>
<rect x="387.36" y="664.35" width="8.00" height="21.76" class="down-body"/>
<line x1="409.73" y1="677.46" x2="409.73" y2="694.70" class="down-wick"/>
<rect x="405.73" y="686.11" width="8.00" height="3.43" class="down-body"/>
<line x1="428.09" y1="667.36" x2="428.09" y2="691.34" class="up-wick"/>
<rect x="424.09" y="672.17" width="8.00" height="17.37" class="up-body"/>
<line x1="446.45" y1="650.83" x2="446.45" y2="684.43" class="up-wick"/>
<rect x="442.45" y="661.23" width="8.00" height="10.52" class="up-body"/>
<line x1="464.82" y1="657.02" x2="464.82" y2="671.93" class="down-wick"/>
<rect x="460.82" y="661.23" width="8.00" height="6.61" class="down-body"/>
<line x1="483.18" y1="659.31" x2="483.18" y2="671.27" class="up-wick"/>
<rect x="479.18" y="661.95" width="8.00" height="6.01" class="up-body"/>
<line x1="501.55" y1="655.40" x2="501.55" y2="671.57" class="down-wick"/>
<rect x="497.55" y="661.95" width="8.00" height="1.00" class="down-body"/>
<line x1="519.91" y1="654.26" x2="519.91" y2="675.83" class="down-wick"/>
<rect x="515.91" y="662.49" width="8.00" height="10.52" class="down-body"/>
<line x1="538.27" y1="673.01" x2="538.27" y2="712.79" class="down-wick"/>
<rect x="534.27" y="673.01" width="8.00" height="39.73" class="down-body"/>
<line x1="556.64" y1="690.26" x2="556.64" y2="730.70" class="up-wick"/>
<rect x="552.64" y="691.70" width="8.00" height="21.04" class="up-body"/>
<line x1="575.00" y1="643.50" x2="575.00" y2="691.46" class="up-wick"/>
<rect x="571.00" y="660.27" width="8.00" height="31.19" class="up-body"/>
<line x1="593.36" y1="635.87" x2="593.36" y2="665.38" class="up-wick"/>
<rect x="589.36" y="640.97" width="8.00" height="19.29" class="up-body"/>
<line x1="611.73" y1="618.20" x2="611.73" y2="647.65" class="up-wick"/>
<rect x="607.73" y="631.36" width="8.00" height="9.62" class="up-body"/>
<line x1="630.09" y1="628.95" x2="630.09" y2="674.51" class="down-wick"/>
<rect x="626.09" y="631.00" width="8.00" height="28.43" class="down-body"/>
<line x1="648.45" y1="648.55" x2="648.45" y2="665.14" class="up-wick"/>
<rect x="644.45" y="656.54" width="8.00" height="2.88" class="up-body"/>
<line x1="666.82" y1="648.73" x2="666.82" y2="661.05" class="up-wick"/>
<rect x="662.82" y="654.38" width="8.00" height="2.16" class="up-body"/>
<line x1="685.18" y1="642.54" x2="685.18" y2="660.33" class="up-wick"/>
<rect x="681.18" y="654.02" width="8.00" height="1.00" class="up-body"/>
<line x1="703.55" y1="650.35" x2="703.55" y2="672.47" class="down-wick"/>
<rect x="699.55" y="654.02" width="8.00" height="11.18" class="down-body"/>
<line x1="721.91" y1="657.08" x2="721.91" y2="678.84" class="down-wick"/>
<rect x="717.91" y="665.26" width="8.00" height="8.05" class="down-body"/>
<line x1="740.27" y1="647.89" x2="740.27" y2="677.64" class="up-wick"/>
<rect x="736.27" y="654.98" width="8.00" height="18.51" class="up-body"/>
<line x1="758.64" y1="643.32" x2="758.64" y2="660.45" class="down-wick"/>
<rect x="754.64" y="655.10" width="8.00" height="4.87" class="down-body"/>
<line x1="777.00" y1="654.98" x2="777.00" y2="678.54" class="down-wick"/>
<rect x="773.00" y="659.85" width="8.00" height="6.37" class="down-body"/>
<line x1="795.36" y1="664.11" x2="795.36" y2="677.52" class="down-wick"/>
<rect x="791.36" y="666.22" width="8.00" height="9.26" class="down-body"/>
<line x1="813.73" y1="658.58" x2="813.73" y2="677.94" class="down-wick"/>
<rect x="809.73" y="675.47" width="8.00" height="1.08" class="down-body"/>
<line x1="832.09" y1="676.31" x2="832.09" y2="690.56" class="down-wick"/>
<rect x="828.09" y="676.61" width="8.00" height="9.14" class="down-body"/>
<line x1="850.45" y1="682.92" x2="850.45" y2="701.14" class="down-wick"/>
<rect x="846.45" y="685.63" width="8.00" height="9.56" class="down-body"/>
<line x1="868.82" y1="680.64" x2="868.82" y2="700.23" class="up-wick"/>
<rect x="864.82" y="684.43" width="8.00" height="10.82" class="up-body"/>
<line x1="887.18" y1="680.58" x2="887.18" y2="709.79" class="down-wick"/>
<rect x="883.18" y="684.43" width="8.00" height="13.76" class="down-body"/>
<line x1="905.55" y1="642.24" x2="905.55" y2="716.04" class="up-wick"/>
<rect x="901.55" y="654.74" width="8.00" height="43.45" class="up-body"/>
<line x1="923.91" y1="645.30" x2="923.91" y2="694.70" class="down-wick"/>
<rect x="919.91" y="654.68" width="8.00" height="37.92" class="down-body"/>
<line x1="942.27" y1="689.48" x2="942.27" y2="747.47" class="down-wick"/>
<rect x="938.27" y="692.90" width="8.00" height="49.58" class="down-body"/>
<line x1="960.64" y1="727.76" x2="960.64" y2="767.61" class="down-wick"/>
<rect x="956.64" y="742.48" width="8.00" height="4.99" class="down-body"/>
<line x1="979.00" y1="741.22" x2="979.00" y2="762.44" class="up-wick"/>
<rect x="975.00" y="744.59" width="8.00" height="2.88" class="up-body"/>
<line x1="997.36" y1="725.84" x2="997.36" y2="762.14" class="up-wick"/>
<rect x="993.36" y="726.62" width="8.00" height="17.97" class="up-body"/>
<line x1="1015.73" y1="709.19" x2="1015.73" y2="738.88" class="down-wick"/>
<rect x="1011.73" y="726.62" width="8.00" height="9.26" class="down-body"/>
<line x1="1034.09" y1="728.84" x2="1034.09" y2="755.05" class="up-wick"/>
<rect x="1030.09" y="731.43" width="8.00" height="4.39" class="up-body"/>
<line x1="1052.45" y1="711.83" x2="1052.45" y2="738.22" class="up-wick"/>
<rect x="1048.45" y="727.10" width="8.00" height="4.33" class="up-body"/>
<line x1="1070.82" y1="717.06" x2="1070.82" y2="772.47" class="down-wick"/>
<rect x="1066.82" y="727.10" width="8.00" height="30.23" class="down-body"/>
<line x1="70" y1="661.41" x2="1080" y2="661.41" class="number-line"/>
<text x="1076" y="657.41" text-anchor="end" class="level-label">round 4610.00</text>
<line x1="70" y1="661.41" x2="1080" y2="661.41" class="entry-line"/>
<text x="1076" y="657.41" text-anchor="end" class="level-label">entry level 4610.00</text>
<text x="70" y="806" class="axis-label">2026-05-04 04:30:00+00:00 to 2026-05-04 09:00:00+00:00</text>
<text x="1080" y="806" text-anchor="end" class="axis-label">4588.94 - 4620.88</text>
<text x="70" y="832" class="panel-title">M1 execution window</text>
<rect x="70" y="846" width="1010" height="192" class="plot-bg"/>
<line x1="73.71" y1="991.40" x2="73.71" y2="1015.74" class="up-wick"/>
<rect x="71.30" y="1000.42" width="4.83" height="3.49" class="up-body"/>
<line x1="81.14" y1="985.15" x2="81.14" y2="996.75" class="up-wick"/>
<rect x="78.73" y="987.68" width="4.83" height="8.71" class="up-body"/>
<line x1="88.57" y1="973.85" x2="88.57" y2="993.03" class="up-wick"/>
<rect x="86.15" y="975.90" width="4.83" height="17.13" class="up-body"/>
<line x1="95.99" y1="977.58" x2="95.99" y2="982.39" class="up-wick"/>
<rect x="93.58" y="977.94" width="4.83" height="1.68" class="up-body"/>
<line x1="103.42" y1="970.19" x2="103.42" y2="975.54" class="down-wick"/>
<rect x="101.01" y="972.17" width="4.83" height="1.00" class="down-body"/>
<line x1="110.85" y1="962.19" x2="110.85" y2="969.41" class="up-wick"/>
<rect x="108.43" y="967.12" width="4.83" height="2.28" class="up-body"/>
<line x1="118.27" y1="966.46" x2="118.27" y2="976.50" class="up-wick"/>
<rect x="115.86" y="966.94" width="4.83" height="5.77" class="up-body"/>
<line x1="125.70" y1="961.89" x2="125.70" y2="970.49" class="up-wick"/>
<rect x="123.28" y="962.55" width="4.83" height="3.85" class="up-body"/>
<line x1="133.12" y1="953.66" x2="133.12" y2="958.95" class="down-wick"/>
<rect x="130.71" y="953.78" width="4.83" height="2.58" class="down-body"/>
<line x1="140.55" y1="954.32" x2="140.55" y2="960.15" class="down-wick"/>
<rect x="138.14" y="959.85" width="4.83" height="1.00" class="down-body"/>
<line x1="147.98" y1="944.28" x2="147.98" y2="965.02" class="up-wick"/>
<rect x="145.56" y="944.58" width="4.83" height="19.35" class="up-body"/>
<line x1="155.40" y1="931.06" x2="155.40" y2="940.86" class="down-wick"/>
<rect x="152.99" y="935.15" width="4.83" height="1.20" class="down-body"/>
<line x1="162.83" y1="934.31" x2="162.83" y2="941.88" class="up-wick"/>
<rect x="160.42" y="934.31" width="4.83" height="6.49" class="up-body"/>
<line x1="170.26" y1="930.52" x2="170.26" y2="936.47" class="down-wick"/>
<rect x="167.84" y="931.06" width="4.83" height="1.44" class="down-body"/>
<line x1="177.68" y1="900.35" x2="177.68" y2="928.84" class="up-wick"/>
<rect x="175.27" y="902.99" width="4.83" height="25.84" class="up-body"/>
<line x1="185.11" y1="859.24" x2="185.11" y2="893.44" class="up-wick"/>
<rect x="182.70" y="868.50" width="4.83" height="24.28" class="up-body"/>
<line x1="192.54" y1="869.46" x2="192.54" y2="887.37" class="down-wick"/>
<rect x="190.12" y="877.15" width="4.83" height="10.22" class="down-body"/>
<line x1="199.96" y1="882.38" x2="199.96" y2="898.01" class="down-wick"/>
<rect x="197.55" y="884.06" width="4.83" height="7.87" class="down-body"/>
<line x1="207.39" y1="899.33" x2="207.39" y2="907.02" class="down-wick"/>
<rect x="204.98" y="903.36" width="4.83" height="2.28" class="down-body"/>
<line x1="214.82" y1="908.28" x2="214.82" y2="915.26" class="down-wick"/>
<rect x="212.40" y="910.27" width="4.83" height="4.93" class="down-body"/>
<line x1="222.24" y1="918.02" x2="222.24" y2="936.65" class="down-wick"/>
<rect x="219.83" y="918.08" width="4.83" height="17.97" class="down-body"/>
<line x1="229.67" y1="932.14" x2="229.67" y2="949.15" class="up-wick"/>
<rect x="227.26" y="932.14" width="4.83" height="17.01" class="up-body"/>
<line x1="237.10" y1="910.33" x2="237.10" y2="923.43" class="down-wick"/>
<rect x="234.68" y="911.89" width="4.83" height="9.26" class="down-body"/>
<line x1="244.52" y1="941.58" x2="244.52" y2="956.24" class="down-wick"/>
<rect x="242.11" y="945.73" width="4.83" height="8.35" class="down-body"/>
<line x1="251.95" y1="942.78" x2="251.95" y2="953.78" class="down-wick"/>
<rect x="249.53" y="948.97" width="4.83" height="1.14" class="down-body"/>
<line x1="259.38" y1="940.68" x2="259.38" y2="956.84" class="down-wick"/>
<rect x="256.96" y="941.40" width="4.83" height="15.15" class="down-body"/>
<line x1="266.80" y1="956.54" x2="266.80" y2="969.17" class="down-wick"/>
<rect x="264.39" y="964.90" width="4.83" height="2.28" class="down-body"/>
<line x1="274.23" y1="974.57" x2="274.23" y2="984.07" class="up-wick"/>
<rect x="271.81" y="981.19" width="4.83" height="1.00" class="up-body"/>
<line x1="281.65" y1="980.16" x2="281.65" y2="992.91" class="up-wick"/>
<rect x="279.24" y="981.07" width="4.83" height="4.99" class="up-body"/>
<line x1="289.08" y1="998.67" x2="289.08" y2="1022.78" class="down-wick"/>
<rect x="286.67" y="1000.24" width="4.83" height="16.47" class="down-body"/>
<line x1="296.51" y1="1004.81" x2="296.51" y2="1017.73" class="up-wick"/>
<rect x="294.09" y="1010.51" width="4.83" height="2.22" class="up-body"/>
<line x1="303.93" y1="1007.63" x2="303.93" y2="1024.76" class="down-wick"/>
<rect x="301.52" y="1014.00" width="4.83" height="5.17" class="down-body"/>
<line x1="311.36" y1="994.95" x2="311.36" y2="1003.42" class="up-wick"/>
<rect x="308.95" y="998.25" width="4.83" height="4.15" class="up-body"/>
<line x1="318.79" y1="984.91" x2="318.79" y2="998.13" class="up-wick"/>
<rect x="316.37" y="986.96" width="4.83" height="9.08" class="up-body"/>
<line x1="326.21" y1="962.61" x2="326.21" y2="970.97" class="up-wick"/>
<rect x="323.80" y="967.00" width="4.83" height="1.56" class="up-body"/>
<line x1="333.64" y1="965.26" x2="333.64" y2="972.83" class="up-wick"/>
<rect x="331.23" y="966.40" width="4.83" height="1.26" class="up-body"/>
<line x1="341.07" y1="963.16" x2="341.07" y2="971.27" class="up-wick"/>
<rect x="338.65" y="963.22" width="4.83" height="6.97" class="up-body"/>
<line x1="348.49" y1="947.53" x2="348.49" y2="963.04" class="up-wick"/>
<rect x="346.08" y="947.53" width="4.83" height="15.51" class="up-body"/>
<line x1="355.92" y1="942.84" x2="355.92" y2="957.51" class="down-wick"/>
<rect x="353.51" y="942.84" width="4.83" height="13.22" class="down-body"/>
<line x1="363.35" y1="953.72" x2="363.35" y2="960.87" class="down-wick"/>
<rect x="360.93" y="954.80" width="4.83" height="3.01" class="down-body"/>
<line x1="370.77" y1="942.36" x2="370.77" y2="950.29" class="down-wick"/>
<rect x="368.36" y="944.34" width="4.83" height="5.59" class="down-body"/>
<line x1="378.20" y1="930.46" x2="378.20" y2="941.88" class="up-wick"/>
<rect x="375.78" y="933.89" width="4.83" height="7.57" class="up-body"/>
<line x1="385.62" y1="909.12" x2="385.62" y2="921.69" class="up-wick"/>
<rect x="383.21" y="914.23" width="4.83" height="4.51" class="up-body"/>
<line x1="393.05" y1="908.82" x2="393.05" y2="916.70" class="down-wick"/>
<rect x="390.64" y="908.88" width="4.83" height="7.81" class="down-body"/>
<line x1="400.48" y1="914.83" x2="400.48" y2="926.61" class="up-wick"/>
<rect x="398.06" y="922.65" width="4.83" height="1.00" class="up-body"/>
<line x1="407.90" y1="933.95" x2="407.90" y2="941.76" class="down-wick"/>
<rect x="405.49" y="936.11" width="4.83" height="1.00" class="down-body"/>
<line x1="415.33" y1="927.46" x2="415.33" y2="942.18" class="up-wick"/>
<rect x="412.92" y="929.86" width="4.83" height="9.26" class="up-body"/>
<line x1="422.76" y1="934.07" x2="422.76" y2="944.04" class="up-wick"/>
<rect x="420.34" y="939.54" width="4.83" height="4.51" class="up-body"/>
<line x1="430.18" y1="934.31" x2="430.18" y2="940.20" class="down-wick"/>
<rect x="427.77" y="934.85" width="4.83" height="1.26" class="down-body"/>
<line x1="437.61" y1="917.36" x2="437.61" y2="932.32" class="up-wick"/>
<rect x="435.20" y="919.46" width="4.83" height="8.83" class="up-body"/>
<line x1="445.04" y1="921.02" x2="445.04" y2="925.59" class="down-wick"/>
<rect x="442.62" y="921.75" width="4.83" height="2.94" class="down-body"/>
<line x1="452.46" y1="923.01" x2="452.46" y2="934.43" class="up-wick"/>
<rect x="450.05" y="928.72" width="4.83" height="1.00" class="up-body"/>
<line x1="459.89" y1="900.95" x2="459.89" y2="912.61" class="down-wick"/>
<rect x="457.48" y="904.20" width="4.83" height="7.03" class="down-body"/>
<line x1="467.32" y1="909.00" x2="467.32" y2="918.80" class="down-wick"/>
<rect x="464.90" y="915.98" width="4.83" height="1.00" class="down-body"/>
<line x1="474.74" y1="911.41" x2="474.74" y2="919.22" class="down-wick"/>
<rect x="472.33" y="911.71" width="4.83" height="5.35" class="down-body"/>
<line x1="482.17" y1="913.03" x2="482.17" y2="920.06" class="up-wick"/>
<rect x="479.76" y="916.70" width="4.83" height="1.26" class="up-body"/>
<line x1="489.60" y1="910.39" x2="489.60" y2="916.28" class="down-wick"/>
<rect x="487.18" y="910.57" width="4.83" height="5.35" class="down-body"/>
<line x1="497.02" y1="911.41" x2="497.02" y2="914.71" class="down-wick"/>
<rect x="494.61" y="911.59" width="4.83" height="1.00" class="down-body"/>
<line x1="504.45" y1="911.35" x2="504.45" y2="921.57" class="down-wick"/>
<rect x="502.03" y="911.89" width="4.83" height="5.77" class="down-body"/>
<line x1="511.88" y1="906.78" x2="511.88" y2="913.03" class="up-wick"/>
<rect x="509.46" y="906.90" width="4.83" height="4.15" class="up-body"/>
<line x1="519.30" y1="904.26" x2="519.30" y2="918.14" class="down-wick"/>
<rect x="516.89" y="912.49" width="4.83" height="1.00" class="down-body"/>
<line x1="526.73" y1="913.81" x2="526.73" y2="924.93" class="up-wick"/>
<rect x="524.31" y="913.81" width="4.83" height="3.25" class="up-body"/>
<line x1="534.15" y1="919.04" x2="534.15" y2="925.83" class="down-wick"/>
<rect x="531.74" y="919.94" width="4.83" height="3.07" class="down-body"/>
<line x1="541.58" y1="928.12" x2="541.58" y2="940.14" class="down-wick"/>
<rect x="539.17" y="931.36" width="4.83" height="4.33" class="down-body"/>
<line x1="549.01" y1="939.90" x2="549.01" y2="943.86" class="up-wick"/>
<rect x="546.59" y="943.20" width="4.83" height="1.00" class="up-body"/>
<line x1="556.43" y1="960.27" x2="556.43" y2="971.87" class="down-wick"/>
<rect x="554.02" y="962.73" width="4.83" height="4.87" class="down-body"/>
<line x1="563.86" y1="956.54" x2="563.86" y2="974.03" class="up-wick"/>
<rect x="561.45" y="960.33" width="4.83" height="13.04" class="up-body"/>
<line x1="571.29" y1="940.26" x2="571.29" y2="952.94" class="up-wick"/>
<rect x="568.87" y="941.70" width="4.83" height="11.24" class="up-body"/>
<line x1="578.71" y1="893.50" x2="578.71" y2="920.78" class="up-wick"/>
<rect x="576.30" y="895.12" width="4.83" height="23.62" class="up-body"/>
<line x1="586.14" y1="894.82" x2="586.14" y2="911.11" class="up-wick"/>
<rect x="583.73" y="901.25" width="4.83" height="3.13" class="up-body"/>
<line x1="593.57" y1="889.41" x2="593.57" y2="915.38" class="up-wick"/>
<rect x="591.15" y="901.67" width="4.83" height="8.59" class="up-body"/>
<line x1="600.99" y1="889.17" x2="600.99" y2="897.59" class="up-wick"/>
<rect x="598.58" y="890.19" width="4.83" height="5.83" class="up-body"/>
<line x1="608.42" y1="885.87" x2="608.42" y2="894.58" class="up-wick"/>
<rect x="606.01" y="890.97" width="4.83" height="2.16" class="up-body"/>
<line x1="615.85" y1="888.69" x2="615.85" y2="897.65" class="down-wick"/>
<rect x="613.43" y="889.23" width="4.83" height="6.97" class="down-body"/>
<line x1="623.27" y1="871.44" x2="623.27" y2="882.38" class="up-wick"/>
<rect x="620.86" y="871.44" width="4.83" height="10.94" class="up-body"/>
<line x1="630.70" y1="878.95" x2="630.70" y2="891.34" class="down-wick"/>
<rect x="628.28" y="881.00" width="4.83" height="6.97" class="down-body"/>
<line x1="638.12" y1="884.30" x2="638.12" y2="892.78" class="down-wick"/>
<rect x="635.71" y="885.26" width="4.83" height="2.58" class="down-body"/>
<line x1="645.55" y1="909.06" x2="645.55" y2="924.51" class="up-wick"/>
<rect x="643.14" y="909.43" width="4.83" height="5.65" class="up-body"/>
<line x1="652.98" y1="906.00" x2="652.98" y2="915.14" class="up-wick"/>
<rect x="650.56" y="907.08" width="4.83" height="1.38" class="up-body"/>
<line x1="660.40" y1="899.99" x2="660.40" y2="914.41" class="down-wick"/>
<rect x="657.99" y="899.99" width="4.83" height="13.22" class="down-body"/>
<line x1="667.83" y1="904.56" x2="667.83" y2="910.45" class="down-wick"/>
<rect x="665.42" y="906.54" width="4.83" height="3.25" class="down-body"/>
<line x1="675.26" y1="906.42" x2="675.26" y2="911.05" class="up-wick"/>
<rect x="672.84" y="906.42" width="4.83" height="1.00" class="up-body"/>
<line x1="682.68" y1="900.29" x2="682.68" y2="907.20" class="down-wick"/>
<rect x="680.27" y="901.13" width="4.83" height="3.25" class="down-body"/>
<line x1="690.11" y1="899.45" x2="690.11" y2="903.66" class="down-wick"/>
<rect x="687.70" y="900.89" width="4.83" height="2.22" class="down-body"/>
<line x1="697.54" y1="892.54" x2="697.54" y2="895.24" class="up-wick"/>
<rect x="695.12" y="892.96" width="4.83" height="1.38" class="up-body"/>
<line x1="704.96" y1="900.35" x2="704.96" y2="907.14" class="up-wick"/>
<rect x="702.55" y="903.24" width="4.83" height="1.00" class="up-body"/>
<line x1="712.39" y1="906.84" x2="712.39" y2="922.47" class="down-wick"/>
<rect x="709.98" y="906.84" width="4.83" height="12.44" class="down-body"/>
<line x1="719.82" y1="910.63" x2="719.82" y2="921.45" class="up-wick"/>
<rect x="717.40" y="915.20" width="4.83" height="1.00" class="up-body"/>
<line x1="727.24" y1="912.73" x2="727.24" y2="921.27" class="down-wick"/>
<rect x="724.83" y="914.83" width="4.83" height="3.43" class="down-body"/>
<line x1="734.67" y1="920.30" x2="734.67" y2="924.39" class="down-wick"/>
<rect x="732.26" y="922.53" width="4.83" height="1.26" class="down-body"/>
<line x1="742.10" y1="921.93" x2="742.10" y2="927.64" class="down-wick"/>
<rect x="739.68" y="923.49" width="4.83" height="2.22" class="down-body"/>
<line x1="749.52" y1="902.63" x2="749.52" y2="907.74" class="down-wick"/>
<rect x="747.11" y="902.69" width="4.83" height="4.09" class="down-body"/>
<line x1="756.95" y1="903.54" x2="756.95" y2="918.50" class="up-wick"/>
<rect x="754.53" y="904.98" width="4.83" height="13.52" class="up-body"/>
<line x1="764.38" y1="896.92" x2="764.38" y2="904.14" class="down-wick"/>
<rect x="761.96" y="898.73" width="4.83" height="2.58" class="down-body"/>
<line x1="771.80" y1="893.32" x2="771.80" y2="900.95" class="down-wick"/>
<rect x="769.39" y="897.35" width="4.83" height="3.01" class="down-body"/>
<line x1="779.23" y1="907.68" x2="779.23" y2="911.53" class="down-wick"/>
<rect x="776.81" y="909.85" width="4.83" height="1.00" class="down-body"/>
<line x1="786.65" y1="916.52" x2="786.65" y2="923.55" class="down-wick"/>
<rect x="784.24" y="917.30" width="4.83" height="5.17" class="down-body"/>
<line x1="794.08" y1="914.71" x2="794.08" y2="921.99" class="up-wick"/>
<rect x="791.67" y="916.22" width="4.83" height="4.99" class="up-body"/>
<line x1="801.51" y1="918.62" x2="801.51" y2="924.27" class="down-wick"/>
<rect x="799.09" y="920.12" width="4.83" height="1.08" class="down-body"/>
<line x1="808.93" y1="921.63" x2="808.93" y2="927.46" class="down-wick"/>
<rect x="806.52" y="921.81" width="4.83" height="5.17" class="down-body"/>
<line x1="816.36" y1="921.57" x2="816.36" y2="927.94" class="up-wick"/>
<rect x="813.95" y="921.57" width="4.83" height="3.91" class="up-body"/>
<line x1="823.79" y1="908.58" x2="823.79" y2="914.23" class="up-wick"/>
<rect x="821.37" y="911.05" width="4.83" height="1.68" class="up-body"/>
<line x1="831.21" y1="919.76" x2="831.21" y2="926.73" class="down-wick"/>
<rect x="828.80" y="919.76" width="4.83" height="6.79" class="down-body"/>
<line x1="838.64" y1="932.38" x2="838.64" y2="940.56" class="up-wick"/>
<rect x="836.23" y="936.71" width="4.83" height="1.00" class="up-body"/>
<line x1="846.07" y1="926.31" x2="846.07" y2="933.71" class="down-wick"/>
<rect x="843.65" y="931.42" width="4.83" height="1.56" class="down-body"/>
<line x1="853.49" y1="933.35" x2="853.49" y2="943.02" class="down-wick"/>
<rect x="851.08" y="935.63" width="4.83" height="4.39" class="down-body"/>
<line x1="860.92" y1="938.09" x2="860.92" y2="949.27" class="down-wick"/>
<rect x="858.51" y="938.27" width="4.83" height="6.73" class="down-body"/>
<line x1="868.35" y1="940.62" x2="868.35" y2="948.55" class="up-wick"/>
<rect x="865.93" y="945.19" width="4.83" height="1.32" class="up-body"/>
<line x1="875.77" y1="933.47" x2="875.77" y2="948.67" class="up-wick"/>
<rect x="873.36" y="935.27" width="4.83" height="10.16" class="up-body"/>
<line x1="883.20" y1="940.38" x2="883.20" y2="946.99" class="down-wick"/>
<rect x="880.78" y="941.46" width="4.83" height="3.73" class="down-body"/>
<line x1="890.62" y1="931.12" x2="890.62" y2="941.22" class="down-wick"/>
<rect x="888.21" y="934.43" width="4.83" height="5.65" class="down-body"/>
<line x1="898.05" y1="930.58" x2="898.05" y2="944.70" class="down-wick"/>
<rect x="895.64" y="934.61" width="4.83" height="9.56" class="down-body"/>
<line x1="905.48" y1="946.63" x2="905.48" y2="959.79" class="up-wick"/>
<rect x="903.06" y="948.19" width="4.83" height="11.06" class="up-body"/>
<line x1="912.90" y1="949.99" x2="912.90" y2="963.70" class="down-wick"/>
<rect x="910.49" y="952.94" width="4.83" height="9.26" class="down-body"/>
<line x1="920.33" y1="941.88" x2="920.33" y2="961.17" class="up-wick"/>
<rect x="917.92" y="944.46" width="4.83" height="14.78" class="up-body"/>
<line x1="927.76" y1="904.62" x2="927.76" y2="926.07" class="down-wick"/>
<rect x="925.34" y="904.68" width="4.83" height="10.16" class="down-body"/>
<line x1="935.18" y1="901.25" x2="935.18" y2="918.62" class="up-wick"/>
<rect x="932.77" y="905.52" width="4.83" height="8.47" class="up-body"/>
<line x1="942.61" y1="910.03" x2="942.61" y2="944.70" class="down-wick"/>
<rect x="940.20" y="910.03" width="4.83" height="32.57" class="down-body"/>
<line x1="950.04" y1="959.37" x2="950.04" y2="972.77" class="down-wick"/>
<rect x="947.62" y="961.35" width="4.83" height="1.86" class="down-body"/>
<line x1="957.46" y1="974.63" x2="957.46" y2="986.47" class="down-wick"/>
<rect x="955.05" y="981.91" width="4.83" height="3.37" class="down-body"/>
<line x1="964.89" y1="983.89" x2="964.89" y2="1001.98" class="up-wick"/>
<rect x="962.48" y="986.23" width="4.83" height="6.25" class="up-body"/>
<line x1="972.32" y1="987.98" x2="972.32" y2="1011.54" class="down-wick"/>
<rect x="969.90" y="988.88" width="4.83" height="17.55" class="down-body"/>
<line x1="979.74" y1="997.35" x2="979.74" y2="1016.34" class="up-wick"/>
<rect x="977.33" y="997.47" width="4.83" height="9.08" class="up-body"/>
<line x1="987.17" y1="993.39" x2="987.17" y2="1007.81" class="up-wick"/>
<rect x="984.76" y="1002.64" width="4.83" height="3.61" class="up-body"/>
<line x1="994.60" y1="1001.02" x2="994.60" y2="1012.44" class="up-wick"/>
<rect x="992.18" y="1004.20" width="4.83" height="7.57" class="up-body"/>
<line x1="1002.02" y1="990.26" x2="1002.02" y2="1003.66" class="down-wick"/>
<rect x="999.61" y="994.59" width="4.83" height="9.08" class="down-body"/>
<line x1="1009.45" y1="998.61" x2="1009.45" y2="1012.14" class="down-wick"/>
<rect x="1007.03" y="1000.30" width="4.83" height="10.34" class="down-body"/>
<line x1="1016.88" y1="975.84" x2="1016.88" y2="995.37" class="up-wick"/>
<rect x="1014.46" y="976.62" width="4.83" height="15.45" class="up-body"/>
<line x1="1024.30" y1="963.22" x2="1024.30" y2="982.87" class="down-wick"/>
<rect x="1021.89" y="963.70" width="4.83" height="12.44" class="down-body"/>
<line x1="1031.73" y1="977.76" x2="1031.73" y2="987.56" class="up-wick"/>
<rect x="1029.31" y="981.61" width="4.83" height="1.00" class="up-body"/>
<line x1="1039.15" y1="985.81" x2="1039.15" y2="1005.05" class="down-wick"/>
<rect x="1036.74" y="985.81" width="4.83" height="12.14" class="down-body"/>
<line x1="1046.58" y1="985.75" x2="1046.58" y2="990.44" class="down-wick"/>
<rect x="1044.17" y="988.04" width="4.83" height="2.40" class="down-body"/>
<line x1="1054.01" y1="981.43" x2="1054.01" y2="992.91" class="up-wick"/>
<rect x="1051.59" y="981.43" width="4.83" height="6.73" class="up-body"/>
<line x1="1061.43" y1="961.83" x2="1061.43" y2="988.22" class="up-wick"/>
<rect x="1059.02" y="979.08" width="4.83" height="1.00" class="up-body"/>
<line x1="1068.86" y1="965.32" x2="1068.86" y2="979.50" class="down-wick"/>
<rect x="1066.45" y="967.42" width="4.83" height="2.58" class="down-body"/>
<line x1="1076.29" y1="967.06" x2="1076.29" y2="986.84" class="down-wick"/>
<rect x="1073.87" y="977.10" width="4.83" height="8.71" class="down-body"/>
<line x1="70" y1="911.41" x2="1080" y2="911.41" class="number-line"/>
<text x="1076" y="907.41" text-anchor="end" class="level-label">round 4610.00</text>
<line x1="70" y1="911.41" x2="1080" y2="911.41" class="entry-line"/>
<text x="1076" y="907.41" text-anchor="end" class="level-label">entry level 4610.00</text>
<text x="70" y="1056" class="axis-label">2026-05-04 04:30:00+00:00 to 2026-05-04 09:00:00+00:00</text>
<text x="1080" y="1056" text-anchor="end" class="axis-label">4588.94 - 4620.88</text>
</svg>