<svg xmlns="http://www.w3.org/2000/svg" width="1120" height="1054" viewBox="0 0 1120 1054">
<style>
text{font-family:Arial,Helvetica,sans-serif}.title{font-size:21px;font-weight:700;fill:#1f2937}.subtitle{font-size:12px;fill:#4b5563}.panel-title{font-size:15px;font-weight:700;fill:#111827}.muted{font-size:13px;fill:#6b7280}.plot-bg{fill:#f8fafc;stroke:#cbd5e1;stroke-width:1}.up-body{fill:#15803d;stroke:#14532d;stroke-width:.8}.down-body{fill:#b91c1c;stroke:#7f1d1d;stroke-width:.8}.up-wick{stroke:#14532d;stroke-width:1}.down-wick{stroke:#7f1d1d;stroke-width:1}.sweep-line{stroke:#7c3aed;stroke-width:1.6;stroke-dasharray:6 4}.number-line{stroke:#0f766e;stroke-width:1.4;stroke-dasharray:3 4}.entry-line{stroke:#2563eb;stroke-width:1.4}.sl-line{stroke:#dc2626;stroke-width:1.4}.tp-line{stroke:#16a34a;stroke-width:1.4}.level-label,.axis-label{font-size:11px;fill:#374151}
</style>
<text x="28" y="28" class="title">Adelin v2 visual review sample sample_059</text>
<text x="28" y="48" class="subtitle">Candidate windows are for visual labeling only and are not trade signals.</text>
<text x="560" y="48" class="subtitle" text-anchor="middle">M15_SWING_LOW_SWEEP_VISUAL_CANDIDATE | SWEPT_LIQUIDITY_LEVEL_METADATA_AVAILABLE</text>
<text x="70" y="82" class="panel-title">H1 liquidity context</text>
<rect x="70" y="96" width="1010" height="192" class="plot-bg"/>
<line x1="80.74" y1="142.29" x2="80.74" y2="166.34" class="up-wick"/>
<rect x="76.74" y="143.10" width="8.00" height="18.80" class="up-body"/>
<line x1="102.23" y1="137.27" x2="102.23" y2="149.85" class="up-wick"/>
<rect x="98.23" y="140.60" width="8.00" height="2.25" class="up-body"/>
<line x1="123.72" y1="122.77" x2="123.72" y2="141.31" class="up-wick"/>
<rect x="119.72" y="124.45" width="8.00" height="16.15" class="up-body"/>
<line x1="145.21" y1="113.60" x2="145.21" y2="129.47" class="up-wick"/>
<rect x="141.21" y="113.70" width="8.00" height="10.76" class="up-body"/>
<line x1="166.70" y1="109.24" x2="166.70" y2="127.84" class="down-wick"/>
<rect x="162.70" y="113.70" width="8.00" height="12.49" class="down-body"/>
<line x1="188.19" y1="121.40" x2="188.19" y2="132.17" class="up-wick"/>
<rect x="184.19" y="122.50" width="8.00" height="3.68" class="up-body"/>
<line x1="209.68" y1="120.16" x2="209.68" y2="135.80" class="down-wick"/>
<rect x="205.68" y="122.49" width="8.00" height="11.74" class="down-body"/>
<line x1="231.17" y1="127.12" x2="231.17" y2="140.22" class="down-wick"/>
<rect x="227.17" y="134.22" width="8.00" height="1.07" class="down-body"/>
<line x1="252.66" y1="130.45" x2="252.66" y2="153.25" class="down-wick"/>
<rect x="248.66" y="135.29" width="8.00" height="15.24" class="down-body"/>
<line x1="274.15" y1="144.55" x2="274.15" y2="167.67" class="down-wick"/>
<rect x="270.15" y="150.53" width="8.00" height="3.25" class="down-body"/>
<line x1="295.64" y1="150.97" x2="295.64" y2="178.16" class="up-wick"/>
<rect x="291.64" y="151.58" width="8.00" height="2.20" class="up-body"/>
<line x1="317.13" y1="141.56" x2="317.13" y2="155.75" class="up-wick"/>
<rect x="313.13" y="149.28" width="8.00" height="2.31" class="up-body"/>
<line x1="338.62" y1="140.21" x2="338.62" y2="159.28" class="up-wick"/>
<rect x="334.62" y="143.82" width="8.00" height="5.45" class="up-body"/>
<line x1="360.11" y1="130.54" x2="360.11" y2="152.72" class="up-wick"/>
<rect x="356.11" y="130.72" width="8.00" height="13.10" class="up-body"/>
<line x1="381.60" y1="116.12" x2="381.60" y2="134.03" class="up-wick"/>
<rect x="377.60" y="119.80" width="8.00" height="11.05" class="up-body"/>
<line x1="403.09" y1="116.69" x2="403.09" y2="142.15" class="down-wick"/>
<rect x="399.09" y="119.80" width="8.00" height="17.00" class="down-body"/>
<line x1="424.57" y1="130.33" x2="424.57" y2="204.45" class="down-wick"/>
<rect x="420.57" y="136.80" width="8.00" height="61.71" class="down-body"/>
<line x1="446.06" y1="167.96" x2="446.06" y2="208.61" class="down-wick"/>
<rect x="442.06" y="198.48" width="8.00" height="7.25" class="down-body"/>
<line x1="467.55" y1="186.92" x2="467.55" y2="221.87" class="up-wick"/>
<rect x="463.55" y="194.13" width="8.00" height="11.59" class="up-body"/>
<line x1="489.04" y1="175.74" x2="489.04" y2="196.70" class="up-wick"/>
<rect x="485.04" y="193.65" width="8.00" height="1.00" class="up-body"/>
<line x1="510.53" y1="188.15" x2="510.53" y2="204.35" class="up-wick"/>
<rect x="506.53" y="193.63" width="8.00" height="1.00" class="up-body"/>
<line x1="532.02" y1="190.22" x2="532.02" y2="231.51" class="down-wick"/>
<rect x="528.02" y="193.59" width="8.00" height="30.95" class="down-body"/>
<line x1="553.51" y1="215.27" x2="553.51" y2="228.80" class="up-wick"/>
<rect x="549.51" y="221.93" width="8.00" height="2.44" class="up-body"/>
<line x1="575.00" y1="210.31" x2="575.00" y2="240.55" class="up-wick"/>
<rect x="571.00" y="215.51" width="8.00" height="9.25" class="up-body"/>
<line x1="596.49" y1="214.57" x2="596.49" y2="274.76" class="down-wick"/>
<rect x="592.49" y="215.83" width="8.00" height="28.08" class="down-body"/>
<line x1="617.98" y1="209.51" x2="617.98" y2="244.75" class="up-wick"/>
<rect x="613.98" y="215.00" width="8.00" height="28.91" class="up-body"/>
<line x1="639.47" y1="214.16" x2="639.47" y2="259.32" class="down-wick"/>
<rect x="635.47" y="214.88" width="8.00" height="10.08" class="down-body"/>
<line x1="660.96" y1="222.02" x2="660.96" y2="243.59" class="down-wick"/>
<rect x="656.96" y="224.96" width="8.00" height="12.79" class="down-body"/>
<line x1="682.45" y1="220.09" x2="682.45" y2="243.29" class="up-wick"/>
<rect x="678.45" y="221.76" width="8.00" height="15.97" class="up-body"/>
<line x1="703.94" y1="214.41" x2="703.94" y2="228.77" class="down-wick"/>
<rect x="699.94" y="221.76" width="8.00" height="6.51" class="down-body"/>
<line x1="725.43" y1="220.80" x2="725.43" y2="238.08" class="up-wick"/>
<rect x="721.43" y="223.44" width="8.00" height="4.83" class="up-body"/>
<line x1="746.91" y1="204.25" x2="746.91" y2="235.81" class="down-wick"/>
<rect x="742.91" y="223.44" width="8.00" height="5.50" class="down-body"/>
<line x1="768.40" y1="224.51" x2="768.40" y2="249.76" class="down-wick"/>
<rect x="764.40" y="228.94" width="8.00" height="17.25" class="down-body"/>
<line x1="789.89" y1="237.89" x2="789.89" y2="256.90" class="down-wick"/>
<rect x="785.89" y="246.19" width="8.00" height="4.39" class="down-body"/>
<line x1="811.38" y1="250.03" x2="811.38" y2="269.49" class="down-wick"/>
<rect x="807.38" y="250.59" width="8.00" height="16.21" class="down-body"/>
<line x1="832.87" y1="242.01" x2="832.87" y2="272.20" class="up-wick"/>
<rect x="828.87" y="242.68" width="8.00" height="24.12" class="up-body"/>
<line x1="854.36" y1="218.17" x2="854.36" y2="248.82" class="down-wick"/>
<rect x="850.36" y="242.75" width="8.00" height="1.79" class="down-body"/>
<line x1="875.85" y1="215.57" x2="875.85" y2="247.23" class="up-wick"/>
<rect x="871.85" y="220.96" width="8.00" height="23.58" class="up-body"/>
<line x1="897.34" y1="206.04" x2="897.34" y2="227.15" class="up-wick"/>
<rect x="893.34" y="210.75" width="8.00" height="10.21" class="up-body"/>
<line x1="918.83" y1="202.30" x2="918.83" y2="253.81" class="down-wick"/>
<rect x="914.83" y="210.75" width="8.00" height="34.90" class="down-body"/>
<line x1="940.32" y1="235.55" x2="940.32" y2="257.99" class="down-wick"/>
<rect x="936.32" y="245.68" width="8.00" height="9.10" class="down-body"/>
<line x1="961.81" y1="242.66" x2="961.81" y2="268.17" class="up-wick"/>
<rect x="957.81" y="251.11" width="8.00" height="3.67" class="up-body"/>
<line x1="983.30" y1="237.46" x2="983.30" y2="257.95" class="down-wick"/>
<rect x="979.30" y="249.40" width="8.00" height="1.01" class="down-body"/>
<line x1="1004.79" y1="223.03" x2="1004.79" y2="251.75" class="up-wick"/>
<rect x="1000.79" y="228.34" width="8.00" height="22.07" class="up-body"/>
<line x1="1026.28" y1="220.60" x2="1026.28" y2="233.12" class="up-wick"/>
<rect x="1022.28" y="228.18" width="8.00" height="1.00" class="up-body"/>
<line x1="1047.77" y1="219.22" x2="1047.77" y2="236.66" class="down-wick"/>
<rect x="1043.77" y="228.16" width="8.00" height="7.40" class="down-body"/>
<line x1="1069.26" y1="224.81" x2="1069.26" y2="242.83" class="down-wick"/>
<rect x="1065.26" y="233.14" width="8.00" height="5.97" class="down-body"/>
<line x1="70" y1="231.51" x2="1080" y2="231.51" class="sweep-line"/>
<text x="1076" y="227.51" text-anchor="end" class="level-label">sweep 5009.66</text>
<line x1="70" y1="231.51" x2="1080" y2="231.51" class="entry-line"/>
<text x="1076" y="227.51" text-anchor="end" class="level-label">entry level 5009.66</text>
<text x="70" y="306" class="axis-label">2026-03-13 00:00:00+00:00 to 2026-03-17 00:00:00+00:00</text>
<text x="1080" y="306" text-anchor="end" class="axis-label">4954.75 - 5141.40</text>
<text x="70" y="332" class="panel-title">M15 liquidity / reaction context</text>
<rect x="70" y="346" width="1010" height="192" class="plot-bg"/>
<line x1="90.20" y1="361.28" x2="90.20" y2="417.95" class="up-wick"/>
<rect x="86.20" y="379.05" width="8.00" height="18.87" class="up-body"/>
<line x1="130.60" y1="382.96" x2="130.60" y2="437.97" class="down-wick"/>
<rect x="126.60" y="386.38" width="8.00" height="18.92" class="down-body"/>
<line x1="171.00" y1="392.62" x2="171.00" y2="418.63" class="down-wick"/>
<rect x="167.00" y="405.92" width="8.00" height="6.42" class="down-body"/>
<line x1="211.40" y1="372.52" x2="211.40" y2="412.92" class="up-wick"/>
<rect x="207.40" y="374.45" width="8.00" height="37.94" class="up-body"/>
<line x1="251.80" y1="372.08" x2="251.80" y2="434.32" class="down-wick"/>
<rect x="247.80" y="375.26" width="8.00" height="46.40" class="down-body"/>
<line x1="292.20" y1="419.49" x2="292.20" y2="524.76" class="down-wick"/>
<rect x="288.20" y="421.66" width="8.00" height="45.56" class="down-body"/>
<line x1="332.60" y1="459.76" x2="332.60" y2="495.19" class="down-wick"/>
<rect x="328.60" y="467.25" width="8.00" height="15.40" class="down-body"/>
<line x1="373.00" y1="443.58" x2="373.00" y2="512.70" class="up-wick"/>
<rect x="369.00" y="446.50" width="8.00" height="36.14" class="up-body"/>
<line x1="413.40" y1="365.45" x2="413.40" y2="448.64" class="up-wick"/>
<rect x="409.40" y="381.32" width="8.00" height="65.18" class="up-body"/>
<line x1="453.80" y1="378.26" x2="453.80" y2="400.99" class="down-wick"/>
<rect x="449.80" y="381.32" width="8.00" height="15.06" class="down-body"/>
<line x1="494.20" y1="359.24" x2="494.20" y2="401.18" class="up-wick"/>
<rect x="490.20" y="367.98" width="8.00" height="28.39" class="up-body"/>
<line x1="534.60" y1="361.72" x2="534.60" y2="395.70" class="down-wick"/>
<rect x="530.60" y="367.80" width="8.00" height="5.35" class="down-body"/>
<line x1="575.00" y1="371.04" x2="575.00" y2="475.78" class="down-wick"/>
<rect x="571.00" y="372.86" width="8.00" height="102.60" class="down-body"/>
<line x1="615.40" y1="425.52" x2="615.40" y2="481.96" class="up-wick"/>
<rect x="611.40" y="471.76" width="8.00" height="3.71" class="up-body"/>
<line x1="655.80" y1="429.04" x2="655.80" y2="485.59" class="up-wick"/>
<rect x="651.80" y="429.96" width="8.00" height="41.78" class="up-body"/>
<line x1="696.20" y1="397.34" x2="696.20" y2="433.56" class="up-wick"/>
<rect x="692.20" y="398.44" width="8.00" height="31.26" class="up-body"/>
<line x1="736.60" y1="390.97" x2="736.60" y2="412.40" class="down-wick"/>
<rect x="732.60" y="398.44" width="8.00" height="1.80" class="down-body"/>
<line x1="777.00" y1="391.76" x2="777.00" y2="412.76" class="down-wick"/>
<rect x="773.00" y="400.24" width="8.00" height="6.00" class="down-body"/>
<line x1="817.40" y1="402.22" x2="817.40" y2="433.48" class="down-wick"/>
<rect x="813.40" y="406.24" width="8.00" height="18.32" class="down-body"/>
<line x1="857.80" y1="417.69" x2="857.80" y2="445.69" class="down-wick"/>
<rect x="853.80" y="424.56" width="8.00" height="6.31" class="down-body"/>
<line x1="898.20" y1="422.21" x2="898.20" y2="444.94" class="down-wick"/>
<rect x="894.20" y="430.84" width="8.00" height="10.83" class="down-body"/>
<line x1="938.60" y1="409.86" x2="938.60" y2="443.89" class="up-wick"/>
<rect x="934.60" y="411.07" width="8.00" height="30.61" class="up-body"/>
<line x1="979.00" y1="390.66" x2="979.00" y2="413.60" class="up-wick"/>
<rect x="975.00" y="391.02" width="8.00" height="20.04" class="up-body"/>
<line x1="1019.40" y1="386.07" x2="1019.40" y2="398.38" class="up-wick"/>
<rect x="1015.40" y="390.32" width="8.00" height="1.00" class="up-body"/>
<line x1="1059.80" y1="372.29" x2="1059.80" y2="390.58" class="up-wick"/>
<rect x="1055.80" y="376.78" width="8.00" height="13.54" class="up-body"/>
<line x1="70" y1="415.06" x2="1080" y2="415.06" class="sweep-line"/>
<text x="1076" y="411.06" text-anchor="end" class="level-label">sweep 5009.66</text>
<line x1="70" y1="415.06" x2="1080" y2="415.06" class="entry-line"/>
<text x="1076" y="411.06" text-anchor="end" class="level-label">entry level 5009.66</text>
<text x="70" y="556" class="axis-label">2026-03-16 00:00:00+00:00 to 2026-03-16 06:00:00+00:00</text>
<text x="1080" y="556" text-anchor="end" class="axis-label">4962.55 - 5036.12</text>
<text x="70" y="582" class="panel-title">M5 reaction / execution context</text>
<rect x="70" y="596" width="1010" height="192" class="plot-bg"/>
<line x1="83.65" y1="633.87" x2="83.65" y2="667.95" class="down-wick"/>
<rect x="79.65" y="647.91" width="8.00" height="1.64" class="down-body"/>
<line x1="110.95" y1="611.28" x2="110.95" y2="649.69" class="up-wick"/>
<rect x="106.95" y="625.89" width="8.00" height="23.67" class="up-body"/>
<line x1="138.24" y1="622.76" x2="138.24" y2="639.33" class="down-wick"/>
<rect x="134.24" y="625.79" width="8.00" height="3.26" class="down-body"/>
<line x1="165.54" y1="632.96" x2="165.54" y2="672.60" class="down-wick"/>
<rect x="161.54" y="636.38" width="8.00" height="31.47" class="down-body"/>
<line x1="192.84" y1="651.85" x2="192.84" y2="687.97" class="up-wick"/>
<rect x="188.84" y="665.89" width="8.00" height="1.85" class="up-body"/>
<line x1="220.14" y1="653.94" x2="220.14" y2="670.67" class="up-wick"/>
<rect x="216.14" y="655.30" width="8.00" height="10.54" class="up-body"/>
<line x1="247.43" y1="642.62" x2="247.43" y2="662.68" class="up-wick"/>
<rect x="243.43" y="648.51" width="8.00" height="7.41" class="up-body"/>
<line x1="274.73" y1="644.23" x2="274.73" y2="660.54" class="down-wick"/>
<rect x="270.73" y="648.59" width="8.00" height="6.84" class="down-body"/>
<line x1="302.03" y1="651.96" x2="302.03" y2="668.63" class="down-wick"/>
<rect x="298.03" y="655.35" width="8.00" height="6.99" class="down-body"/>
<line x1="329.32" y1="634.61" x2="329.32" y2="662.92" class="up-wick"/>
<rect x="325.32" y="635.81" width="8.00" height="26.59" class="up-body"/>
<line x1="356.62" y1="628.45" x2="356.62" y2="642.77" class="up-wick"/>
<rect x="352.62" y="632.78" width="8.00" height="3.42" class="up-body"/>
<line x1="383.92" y1="622.52" x2="383.92" y2="632.86" class="up-wick"/>
<rect x="379.92" y="624.45" width="8.00" height="8.30" class="up-body"/>
<line x1="411.22" y1="622.08" x2="411.22" y2="674.82" class="down-wick"/>
<rect x="407.22" y="625.26" width="8.00" height="49.11" class="down-body"/>
<line x1="438.51" y1="659.26" x2="438.51" y2="684.32" class="up-wick"/>
<rect x="434.51" y="671.74" width="8.00" height="2.64" class="up-body"/>
<line x1="465.81" y1="664.98" x2="465.81" y2="679.23" class="up-wick"/>
<rect x="461.81" y="671.66" width="8.00" height="1.00" class="up-body"/>
<line x1="493.11" y1="669.49" x2="493.11" y2="684.84" class="down-wick"/>
<rect x="489.11" y="671.66" width="8.00" height="13.13" class="down-body"/>
<line x1="520.41" y1="682.91" x2="520.41" y2="774.76" class="down-wick"/>
<rect x="516.41" y="684.78" width="8.00" height="44.39" class="down-body"/>
<line x1="547.70" y1="714.74" x2="547.70" y2="734.60" class="up-wick"/>
<rect x="543.70" y="717.22" width="8.00" height="11.87" class="up-body"/>
<line x1="575.00" y1="709.76" x2="575.00" y2="745.19" class="down-wick"/>
<rect x="571.00" y="717.25" width="8.00" height="20.54" class="down-body"/>
<line x1="602.30" y1="717.53" x2="602.30" y2="737.78" class="up-wick"/>
<rect x="598.30" y="724.08" width="8.00" height="13.70" class="up-body"/>
<line x1="629.59" y1="723.33" x2="629.59" y2="742.98" class="down-wick"/>
<rect x="625.59" y="726.07" width="8.00" height="6.58" class="down-body"/>
<line x1="656.89" y1="730.63" x2="656.89" y2="762.70" class="down-wick"/>
<rect x="652.89" y="732.64" width="8.00" height="23.35" class="down-body"/>
<line x1="684.19" y1="723.72" x2="684.19" y2="756.00" class="up-wick"/>
<rect x="680.19" y="727.37" width="8.00" height="28.63" class="up-body"/>
<line x1="711.49" y1="693.58" x2="711.49" y2="727.40" class="up-wick"/>
<rect x="707.49" y="696.50" width="8.00" height="30.87" class="up-body"/>
<line x1="738.78" y1="629.26" x2="738.78" y2="698.64" class="up-wick"/>
<rect x="734.78" y="632.20" width="8.00" height="64.30" class="up-body"/>
<line x1="766.08" y1="615.45" x2="766.08" y2="639.07" class="down-wick"/>
<rect x="762.08" y="632.10" width="8.00" height="6.11" class="down-body"/>
<line x1="793.38" y1="621.38" x2="793.38" y2="643.74" class="up-wick"/>
<rect x="789.38" y="631.32" width="8.00" height="6.94" class="up-body"/>
<line x1="820.68" y1="628.26" x2="820.68" y2="650.71" class="down-wick"/>
<rect x="816.68" y="631.32" width="8.00" height="8.92" class="down-body"/>
<line x1="847.97" y1="634.47" x2="847.97" y2="645.98" class="up-wick"/>
<rect x="843.97" y="634.71" width="8.00" height="5.53" class="up-body"/>
<line x1="875.27" y1="632.62" x2="875.27" y2="650.99" class="down-wick"/>
<rect x="871.27" y="634.71" width="8.00" height="11.66" class="down-body"/>
<line x1="902.57" y1="609.24" x2="902.57" y2="651.18" class="up-wick"/>
<rect x="898.57" y="610.31" width="8.00" height="36.06" class="up-body"/>
<line x1="929.86" y1="610.02" x2="929.86" y2="632.18" class="down-wick"/>
<rect x="925.86" y="610.31" width="8.00" height="9.99" class="down-body"/>
<line x1="957.16" y1="615.95" x2="957.16" y2="629.99" class="up-wick"/>
<rect x="953.16" y="617.98" width="8.00" height="2.35" class="up-body"/>
<line x1="984.46" y1="611.72" x2="984.46" y2="623.78" class="down-wick"/>
<rect x="980.46" y="617.80" width="8.00" height="1.04" class="down-body"/>
<line x1="1011.76" y1="618.74" x2="1011.76" y2="645.70" class="down-wick"/>
<rect x="1007.76" y="618.84" width="8.00" height="13.49" class="down-body"/>
<line x1="1039.05" y1="615.92" x2="1039.05" y2="637.89" class="up-wick"/>
<rect x="1035.05" y="623.15" width="8.00" height="9.19" class="up-body"/>
<line x1="1066.35" y1="621.04" x2="1066.35" y2="659.84" class="down-wick"/>
<rect x="1062.35" y="622.86" width="8.00" height="22.39" class="down-body"/>
<line x1="70" y1="665.06" x2="1080" y2="665.06" class="sweep-line"/>
<text x="1076" y="661.06" text-anchor="end" class="level-label">sweep 5009.66</text>
<line x1="70" y1="665.06" x2="1080" y2="665.06" class="entry-line"/>
<text x="1076" y="661.06" text-anchor="end" class="level-label">entry level 5009.66</text>
<text x="70" y="806" class="axis-label">2026-03-16 00:00:00+00:00 to 2026-03-16 03:00:00+00:00</text>
<text x="1080" y="806" text-anchor="end" class="axis-label">4962.55 - 5036.12</text>
<text x="70" y="832" class="panel-title">M1 execution window</text>
<rect x="70" y="846" width="1010" height="192" class="plot-bg"/>
<line x1="72.79" y1="896.09" x2="72.79" y2="911.59" class="down-wick"/>
<rect x="70.98" y="897.91" width="3.63" height="11.74" class="down-body"/>
<line x1="78.37" y1="883.87" x2="78.37" y2="917.95" class="up-wick"/>
<rect x="76.56" y="898.51" width="3.63" height="10.12" class="up-body"/>
<line x1="83.95" y1="898.28" x2="83.95" y2="905.98" class="down-wick"/>
<rect x="82.14" y="898.54" width="3.63" height="4.12" class="down-body"/>
<line x1="89.53" y1="887.16" x2="89.53" y2="904.59" class="up-wick"/>
<rect x="87.72" y="894.57" width="3.63" height="9.42" class="up-body"/>
<line x1="95.11" y1="886.04" x2="95.11" y2="901.91" class="down-wick"/>
<rect x="93.30" y="894.57" width="3.63" height="4.98" class="down-body"/>
<line x1="100.69" y1="883.90" x2="100.69" y2="899.69" class="up-wick"/>
<rect x="98.88" y="888.36" width="3.63" height="11.19" class="up-body"/>
<line x1="106.27" y1="868.24" x2="106.27" y2="889.09" class="up-wick"/>
<rect x="104.46" y="868.24" width="3.63" height="20.12" class="up-body"/>
<line x1="111.85" y1="861.28" x2="111.85" y2="872.50" class="up-wick"/>
<rect x="110.04" y="864.41" width="3.63" height="1.75" class="up-body"/>
<line x1="117.43" y1="863.60" x2="117.43" y2="889.85" class="down-wick"/>
<rect x="115.62" y="863.96" width="3.63" height="16.62" class="down-body"/>
<line x1="123.01" y1="875.89" x2="123.01" y2="888.49" class="up-wick"/>
<rect x="121.20" y="875.89" width="3.63" height="4.44" class="up-body"/>
<line x1="128.59" y1="875.79" x2="128.59" y2="887.68" class="down-wick"/>
<rect x="126.78" y="875.79" width="3.63" height="2.04" class="down-body"/>
<line x1="134.17" y1="872.76" x2="134.17" y2="879.18" class="up-wick"/>
<rect x="132.36" y="877.74" width="3.63" height="1.00" class="up-body"/>
<line x1="139.75" y1="873.83" x2="139.75" y2="885.21" class="down-wick"/>
<rect x="137.94" y="877.74" width="3.63" height="1.00" class="down-body"/>
<line x1="145.33" y1="878.24" x2="145.33" y2="889.33" class="down-wick"/>
<rect x="143.52" y="878.24" width="3.63" height="3.57" class="down-body"/>
<line x1="150.91" y1="873.67" x2="150.91" y2="883.40" class="up-wick"/>
<rect x="149.10" y="879.05" width="3.63" height="2.77" class="up-body"/>
<line x1="156.49" y1="882.96" x2="156.49" y2="887.14" class="up-wick"/>
<rect x="154.68" y="884.84" width="3.63" height="1.54" class="up-body"/>
<line x1="162.07" y1="884.66" x2="162.07" y2="896.03" class="down-wick"/>
<rect x="160.26" y="884.81" width="3.63" height="4.12" class="down-body"/>
<line x1="167.65" y1="888.36" x2="167.65" y2="901.12" class="down-wick"/>
<rect x="165.84" y="888.78" width="3.63" height="12.34" class="down-body"/>
<line x1="173.23" y1="898.38" x2="173.23" y2="921.71" class="down-wick"/>
<rect x="171.42" y="901.28" width="3.63" height="20.25" class="down-body"/>
<line x1="178.81" y1="914.80" x2="178.81" y2="922.60" class="up-wick"/>
<rect x="177.00" y="917.85" width="3.63" height="2.97" class="up-body"/>
<line x1="184.39" y1="914.33" x2="184.39" y2="925.47" class="down-wick"/>
<rect x="182.58" y="917.75" width="3.63" height="2.51" class="down-body"/>
<line x1="189.97" y1="912.50" x2="189.97" y2="937.97" class="down-wick"/>
<rect x="188.16" y="920.22" width="3.63" height="10.46" class="down-body"/>
<line x1="195.55" y1="909.26" x2="195.55" y2="933.04" class="up-wick"/>
<rect x="193.74" y="909.89" width="3.63" height="20.59" class="up-body"/>
<line x1="201.13" y1="901.85" x2="201.13" y2="909.81" class="up-wick"/>
<rect x="199.32" y="908.98" width="3.63" height="1.00" class="up-body"/>
<line x1="206.71" y1="905.87" x2="206.71" y2="918.42" class="down-wick"/>
<rect x="204.90" y="908.61" width="3.63" height="7.28" class="down-body"/>
<line x1="212.29" y1="911.51" x2="212.29" y2="920.67" class="down-wick"/>
<rect x="210.48" y="915.84" width="3.63" height="1.20" class="down-body"/>
<line x1="217.87" y1="906.32" x2="217.87" y2="917.48" class="up-wick"/>
<rect x="216.06" y="907.62" width="3.63" height="9.47" class="up-body"/>
<line x1="223.45" y1="903.94" x2="223.45" y2="908.30" class="up-wick"/>
<rect x="221.64" y="905.25" width="3.63" height="2.27" class="up-body"/>
<line x1="229.03" y1="905.17" x2="229.03" y2="916.44" class="down-wick"/>
<rect x="227.22" y="905.22" width="3.63" height="9.97" class="down-body"/>
<line x1="234.61" y1="905.09" x2="234.61" y2="915.32" class="up-wick"/>
<rect x="232.80" y="905.30" width="3.63" height="9.92" class="up-body"/>
<line x1="240.19" y1="897.08" x2="240.19" y2="910.44" class="up-wick"/>
<rect x="238.38" y="900.63" width="3.63" height="5.30" class="up-body"/>
<line x1="245.77" y1="897.00" x2="245.77" y2="912.68" class="up-wick"/>
<rect x="243.96" y="899.87" width="3.63" height="1.90" class="up-body"/>
<line x1="251.35" y1="892.85" x2="251.35" y2="901.33" class="up-wick"/>
<rect x="249.54" y="897.16" width="3.63" height="2.74" class="up-body"/>
<line x1="256.93" y1="892.62" x2="256.93" y2="904.15" class="up-wick"/>
<rect x="255.12" y="893.89" width="3.63" height="2.84" class="up-body"/>
<line x1="262.51" y1="893.84" x2="262.51" y2="900.29" class="down-wick"/>
<rect x="260.70" y="893.84" width="3.63" height="4.67" class="down-body"/>
<line x1="268.09" y1="894.23" x2="268.09" y2="899.04" class="up-wick"/>
<rect x="266.28" y="896.97" width="3.63" height="1.62" class="up-body"/>
<line x1="273.67" y1="895.90" x2="273.67" y2="904.38" class="down-wick"/>
<rect x="271.86" y="897.26" width="3.63" height="7.12" class="down-body"/>
<line x1="279.25" y1="898.96" x2="279.25" y2="904.41" class="up-wick"/>
<rect x="277.44" y="900.97" width="3.63" height="3.39" class="up-body"/>
<line x1="284.83" y1="901.12" x2="284.83" y2="910.54" class="down-wick"/>
<rect x="283.02" y="901.12" width="3.63" height="3.57" class="down-body"/>
<line x1="290.41" y1="901.57" x2="290.41" y2="906.81" class="down-wick"/>
<rect x="288.60" y="904.75" width="3.63" height="1.00" class="down-body"/>
<line x1="295.99" y1="901.96" x2="295.99" y2="911.07" class="down-wick"/>
<rect x="294.18" y="905.35" width="3.63" height="2.40" class="down-body"/>
<line x1="301.57" y1="906.50" x2="301.57" y2="918.63" class="down-wick"/>
<rect x="299.76" y="907.70" width="3.63" height="7.07" class="down-body"/>
<line x1="307.15" y1="907.49" x2="307.15" y2="917.17" class="up-wick"/>
<rect x="305.34" y="910.10" width="3.63" height="4.78" class="up-body"/>
<line x1="312.73" y1="909.68" x2="312.73" y2="913.00" class="down-wick"/>
<rect x="310.92" y="910.10" width="3.63" height="2.90" class="down-body"/>
<line x1="318.31" y1="910.23" x2="318.31" y2="915.06" class="up-wick"/>
<rect x="316.50" y="912.34" width="3.63" height="1.00" class="up-body"/>
<line x1="323.90" y1="907.83" x2="323.90" y2="912.92" class="up-wick"/>
<rect x="322.08" y="908.01" width="3.63" height="4.38" class="up-body"/>
<line x1="329.48" y1="901.51" x2="329.48" y2="907.93" class="up-wick"/>
<rect x="327.66" y="903.05" width="3.63" height="4.88" class="up-body"/>
<line x1="335.06" y1="894.42" x2="335.06" y2="903.03" class="up-wick"/>
<rect x="333.24" y="895.54" width="3.63" height="7.44" class="up-body"/>
<line x1="340.64" y1="887.24" x2="340.64" y2="898.23" class="up-wick"/>
<rect x="338.82" y="890.37" width="3.63" height="4.80" class="up-body"/>
<line x1="346.22" y1="884.61" x2="346.22" y2="894.10" class="up-wick"/>
<rect x="344.40" y="885.81" width="3.63" height="3.91" class="up-body"/>
<line x1="351.80" y1="882.94" x2="351.80" y2="886.51" class="up-wick"/>
<rect x="349.98" y="883.46" width="3.63" height="2.74" class="up-body"/>
<line x1="357.38" y1="878.45" x2="357.38" y2="885.26" class="up-wick"/>
<rect x="355.56" y="878.79" width="3.63" height="4.54" class="up-body"/>
<line x1="362.96" y1="878.97" x2="362.96" y2="887.89" class="down-wick"/>
<rect x="361.14" y="878.97" width="3.63" height="7.28" class="down-body"/>
<line x1="368.54" y1="886.33" x2="368.54" y2="892.77" class="down-wick"/>
<rect x="366.72" y="886.33" width="3.63" height="4.10" class="down-body"/>
<line x1="374.12" y1="882.28" x2="374.12" y2="891.60" class="up-wick"/>
<rect x="372.30" y="882.78" width="3.63" height="7.83" class="up-body"/>
<line x1="379.70" y1="877.30" x2="379.70" y2="882.86" class="up-wick"/>
<rect x="377.88" y="879.18" width="3.63" height="3.57" class="up-body"/>
<line x1="385.28" y1="878.11" x2="385.28" y2="879.93" class="up-wick"/>
<rect x="383.46" y="878.97" width="3.63" height="1.00" class="up-body"/>
<line x1="390.86" y1="877.56" x2="390.86" y2="881.32" class="up-wick"/>
<rect x="389.04" y="878.42" width="3.63" height="1.00" class="up-body"/>
<line x1="396.44" y1="873.15" x2="396.44" y2="878.92" class="up-wick"/>
<rect x="394.62" y="873.15" width="3.63" height="5.27" class="up-body"/>
<line x1="402.02" y1="872.52" x2="402.02" y2="875.29" class="down-wick"/>
<rect x="400.20" y="873.44" width="3.63" height="1.02" class="down-body"/>
<line x1="407.60" y1="872.08" x2="407.60" y2="876.99" class="up-wick"/>
<rect x="405.78" y="874.79" width="3.63" height="1.00" class="up-body"/>
<line x1="413.18" y1="874.40" x2="413.18" y2="889.43" class="down-wick"/>
<rect x="411.36" y="874.79" width="3.63" height="14.14" class="down-body"/>
<line x1="418.76" y1="886.59" x2="418.76" y2="911.98" class="down-wick"/>
<rect x="416.94" y="888.94" width="3.63" height="17.07" class="down-body"/>
<line x1="424.34" y1="903.55" x2="424.34" y2="909.03" class="down-wick"/>
<rect x="422.52" y="906.00" width="3.63" height="1.00" class="down-body"/>
<line x1="429.92" y1="904.54" x2="429.92" y2="924.82" class="down-wick"/>
<rect x="428.10" y="906.66" width="3.63" height="17.72" class="down-body"/>
<line x1="435.50" y1="913.73" x2="435.50" y2="932.02" class="down-wick"/>
<rect x="433.68" y="924.37" width="3.63" height="2.19" class="down-body"/>
<line x1="441.08" y1="920.75" x2="441.08" y2="934.32" class="up-wick"/>
<rect x="439.26" y="925.16" width="3.63" height="1.41" class="up-body"/>
<line x1="446.66" y1="913.67" x2="446.66" y2="925.44" class="up-wick"/>
<rect x="444.84" y="916.31" width="3.63" height="8.85" class="up-body"/>
<line x1="452.24" y1="909.26" x2="452.24" y2="918.45" class="up-wick"/>
<rect x="450.42" y="915.27" width="3.63" height="1.04" class="up-body"/>
<line x1="457.82" y1="915.08" x2="457.82" y2="923.02" class="down-wick"/>
<rect x="456.00" y="915.08" width="3.63" height="6.65" class="down-body"/>
<line x1="463.40" y1="921.74" x2="463.40" y2="929.23" class="down-wick"/>
<rect x="461.58" y="921.74" width="3.63" height="2.87" class="down-body"/>
<line x1="468.98" y1="922.31" x2="468.98" y2="928.10" class="up-wick"/>
<rect x="467.16" y="922.83" width="3.63" height="1.77" class="up-body"/>
<line x1="474.56" y1="914.98" x2="474.56" y2="922.83" class="up-wick"/>
<rect x="472.74" y="920.95" width="3.63" height="1.88" class="up-body"/>
<line x1="480.14" y1="917.07" x2="480.14" y2="924.66" class="down-wick"/>
<rect x="478.32" y="920.95" width="3.63" height="1.07" class="down-body"/>
<line x1="485.72" y1="919.75" x2="485.72" y2="927.63" class="up-wick"/>
<rect x="483.90" y="921.66" width="3.63" height="1.00" class="up-body"/>
<line x1="491.30" y1="920.07" x2="491.30" y2="927.14" class="down-wick"/>
<rect x="489.48" y="921.66" width="3.63" height="2.22" class="down-body"/>
<line x1="496.88" y1="919.49" x2="496.88" y2="924.01" class="up-wick"/>
<rect x="495.06" y="923.83" width="3.63" height="1.00" class="up-body"/>
<line x1="502.46" y1="919.55" x2="502.46" y2="929.07" class="down-wick"/>
<rect x="500.65" y="923.83" width="3.63" height="1.77" class="down-body"/>
<line x1="508.04" y1="925.60" x2="508.04" y2="934.81" class="down-wick"/>
<rect x="506.23" y="925.60" width="3.63" height="5.48" class="down-body"/>
<line x1="513.62" y1="929.10" x2="513.62" y2="934.84" class="down-wick"/>
<rect x="511.81" y="931.08" width="3.63" height="3.71" class="down-body"/>
<line x1="519.20" y1="932.91" x2="519.20" y2="986.43" class="down-wick"/>
<rect x="517.39" y="934.78" width="3.63" height="40.97" class="down-body"/>
<line x1="524.78" y1="963.57" x2="524.78" y2="981.44" class="up-wick"/>
<rect x="522.97" y="970.64" width="3.63" height="5.11" class="up-body"/>
<line x1="530.36" y1="964.35" x2="530.36" y2="1000.15" class="down-wick"/>
<rect x="528.55" y="970.64" width="3.63" height="28.94" class="down-body"/>
<line x1="535.94" y1="988.25" x2="535.94" y2="1024.76" class="up-wick"/>
<rect x="534.13" y="989.82" width="3.63" height="9.63" class="up-body"/>
<line x1="541.52" y1="973.12" x2="541.52" y2="990.21" class="up-wick"/>
<rect x="539.71" y="979.17" width="3.63" height="10.65" class="up-body"/>
<line x1="547.10" y1="973.22" x2="547.10" y2="984.60" class="down-wick"/>
<rect x="545.29" y="979.09" width="3.63" height="1.00" class="down-body"/>
<line x1="552.68" y1="969.75" x2="552.68" y2="984.23" class="up-wick"/>
<rect x="550.87" y="974.00" width="3.63" height="6.03" class="up-body"/>
<line x1="558.26" y1="973.09" x2="558.26" y2="982.77" class="up-wick"/>
<rect x="556.45" y="973.30" width="3.63" height="1.00" class="up-body"/>
<line x1="563.84" y1="964.74" x2="563.84" y2="973.87" class="up-wick"/>
<rect x="562.03" y="969.65" width="3.63" height="3.65" class="up-body"/>
<line x1="569.42" y1="965.94" x2="569.42" y2="973.72" class="up-wick"/>
<rect x="567.61" y="967.22" width="3.63" height="2.37" class="up-body"/>
<line x1="575.00" y1="964.95" x2="575.00" y2="972.10" class="up-wick"/>
<rect x="573.19" y="965.39" width="3.63" height="1.85" class="up-body"/>
<line x1="580.58" y1="959.76" x2="580.58" y2="970.66" class="down-wick"/>
<rect x="578.77" y="965.39" width="3.63" height="3.42" class="down-body"/>
<line x1="586.16" y1="964.51" x2="586.16" y2="972.18" class="up-wick"/>
<rect x="584.35" y="966.93" width="3.63" height="1.88" class="up-body"/>
<line x1="591.74" y1="961.87" x2="591.74" y2="977.74" class="down-wick"/>
<rect x="589.93" y="966.93" width="3.63" height="10.59" class="down-body"/>
<line x1="597.32" y1="972.99" x2="597.32" y2="995.19" class="down-wick"/>
<rect x="595.51" y="977.53" width="3.63" height="10.26" class="down-body"/>
<line x1="602.90" y1="969.10" x2="602.90" y2="987.78" class="up-wick"/>
<rect x="601.09" y="969.20" width="3.63" height="18.58" class="up-body"/>
<line x1="608.48" y1="967.53" x2="608.48" y2="980.42" class="down-wick"/>
<rect x="606.67" y="969.20" width="3.63" height="10.65" class="down-body"/>
<line x1="614.06" y1="978.65" x2="614.06" y2="986.37" class="down-wick"/>
<rect x="612.25" y="979.80" width="3.63" height="6.42" class="down-body"/>
<line x1="619.64" y1="980.48" x2="619.64" y2="987.29" class="up-wick"/>
<rect x="617.83" y="985.30" width="3.63" height="1.00" class="up-body"/>
<line x1="625.22" y1="973.33" x2="625.22" y2="985.70" class="up-wick"/>
<rect x="623.41" y="974.08" width="3.63" height="11.53" class="up-body"/>
<line x1="630.80" y1="973.33" x2="630.80" y2="986.92" class="down-wick"/>
<rect x="628.99" y="976.07" width="3.63" height="8.87" class="down-body"/>
<line x1="636.38" y1="978.60" x2="636.38" y2="992.87" class="down-wick"/>
<rect x="634.57" y="984.94" width="3.63" height="7.93" class="down-body"/>
<line x1="641.96" y1="980.27" x2="641.96" y2="992.98" class="up-wick"/>
<rect x="640.15" y="983.32" width="3.63" height="9.65" class="up-body"/>
<line x1="647.54" y1="976.54" x2="647.54" y2="990.57" class="down-wick"/>
<rect x="645.73" y="983.06" width="3.63" height="4.33" class="down-body"/>
<line x1="653.12" y1="977.84" x2="653.12" y2="987.39" class="up-wick"/>
<rect x="651.31" y="982.64" width="3.63" height="4.75" class="up-body"/>
<line x1="658.70" y1="980.63" x2="658.70" y2="992.58" class="down-wick"/>
<rect x="656.89" y="982.64" width="3.63" height="9.92" class="down-body"/>
<line x1="664.28" y1="983.87" x2="664.28" y2="994.85" class="up-wick"/>
<rect x="662.47" y="984.55" width="3.63" height="8.01" class="up-body"/>
<line x1="669.86" y1="982.54" x2="669.86" y2="999.53" class="down-wick"/>
<rect x="668.05" y="984.55" width="3.63" height="14.51" class="down-body"/>
<line x1="675.44" y1="992.04" x2="675.44" y2="1000.62" class="up-wick"/>
<rect x="673.63" y="996.86" width="3.63" height="2.06" class="up-body"/>
<line x1="681.02" y1="996.71" x2="681.02" y2="1012.70" class="down-wick"/>
<rect x="679.21" y="996.86" width="3.63" height="9.13" class="down-body"/>
<line x1="686.60" y1="993.47" x2="686.60" y2="1006.00" class="up-wick"/>
<rect x="684.79" y="994.23" width="3.63" height="11.77" class="up-body"/>
<line x1="692.18" y1="990.91" x2="692.18" y2="1001.85" class="down-wick"/>
<rect x="690.37" y="994.12" width="3.63" height="6.00" class="down-body"/>
<line x1="697.76" y1="989.40" x2="697.76" y2="1002.00" class="up-wick"/>
<rect x="695.95" y="999.76" width="3.63" height="1.00" class="up-body"/>
<line x1="703.34" y1="978.13" x2="703.34" y2="1001.46" class="up-wick"/>
<rect x="701.53" y="978.13" width="3.63" height="21.63" class="up-body"/>
<line x1="708.92" y1="973.72" x2="708.92" y2="986.58" class="up-wick"/>
<rect x="707.11" y="977.37" width="3.63" height="1.00" class="up-body"/>
<line x1="714.50" y1="963.28" x2="714.50" y2="977.40" class="up-wick"/>
<rect x="712.69" y="967.69" width="3.63" height="9.68" class="up-body"/>
<line x1="720.08" y1="959.55" x2="720.08" y2="970.61" class="up-wick"/>
<rect x="718.27" y="960.04" width="3.63" height="7.78" class="up-body"/>
<line x1="725.66" y1="947.13" x2="725.66" y2="962.55" class="up-wick"/>
<rect x="723.85" y="947.57" width="3.63" height="12.47" class="up-body"/>
<line x1="731.24" y1="943.58" x2="731.24" y2="959.18" class="down-wick"/>
<rect x="729.43" y="947.57" width="3.63" height="9.52" class="down-body"/>
<line x1="736.82" y1="945.25" x2="736.82" y2="958.50" class="up-wick"/>
<rect x="735.01" y="946.50" width="3.63" height="10.52" class="up-body"/>
<line x1="742.40" y1="913.96" x2="742.40" y2="948.64" class="up-wick"/>
<rect x="740.59" y="913.96" width="3.63" height="32.54" class="up-body"/>
<line x1="747.98" y1="900.31" x2="747.98" y2="917.93" class="up-wick"/>
<rect x="746.17" y="900.31" width="3.63" height="13.65" class="up-body"/>
<line x1="753.56" y1="884.81" x2="753.56" y2="902.95" class="up-wick"/>
<rect x="751.75" y="885.00" width="3.63" height="15.32" class="up-body"/>
<line x1="759.14" y1="885.00" x2="759.14" y2="899.82" class="down-wick"/>
<rect x="757.33" y="885.00" width="3.63" height="11.77" class="down-body"/>
<line x1="764.72" y1="879.26" x2="764.72" y2="897.78" class="up-wick"/>
<rect x="762.91" y="882.20" width="3.63" height="14.38" class="up-body"/>
<line x1="770.30" y1="875.52" x2="770.30" y2="887.11" class="up-wick"/>
<rect x="768.49" y="876.33" width="3.63" height="5.77" class="up-body"/>
<line x1="775.88" y1="873.38" x2="775.88" y2="881.27" class="down-wick"/>
<rect x="774.07" y="876.33" width="3.63" height="3.29" class="down-body"/>
<line x1="781.46" y1="865.45" x2="781.46" y2="885.02" class="up-wick"/>
<rect x="779.65" y="868.82" width="3.63" height="10.80" class="up-body"/>
<line x1="787.04" y1="868.95" x2="787.04" y2="878.99" class="down-wick"/>
<rect x="785.23" y="868.95" width="3.63" height="5.92" class="down-body"/>
<line x1="792.62" y1="874.69" x2="792.62" y2="889.07" class="down-wick"/>
<rect x="790.81" y="874.87" width="3.63" height="13.33" class="down-body"/>
<line x1="798.20" y1="878.84" x2="798.20" y2="888.31" class="up-wick"/>
<rect x="796.39" y="887.66" width="3.63" height="1.00" class="up-body"/>
<line x1="803.78" y1="880.46" x2="803.78" y2="887.95" class="up-wick"/>
<rect x="801.97" y="885.18" width="3.63" height="2.51" class="up-body"/>
<line x1="809.36" y1="884.55" x2="809.36" y2="893.74" class="down-wick"/>
<rect x="807.55" y="885.18" width="3.63" height="5.71" class="down-body"/>
<line x1="814.94" y1="872.65" x2="814.94" y2="890.61" class="up-wick"/>
<rect x="813.13" y="872.97" width="3.63" height="16.49" class="up-body"/>
<line x1="820.52" y1="871.38" x2="820.52" y2="881.34" class="down-wick"/>
<rect x="818.71" y="872.97" width="3.63" height="8.35" class="down-body"/>
<line x1="826.10" y1="878.26" x2="826.10" y2="884.14" class="down-wick"/>
<rect x="824.29" y="881.32" width="3.63" height="2.82" class="down-body"/>
<line x1="831.69" y1="879.91" x2="831.69" y2="895.85" class="down-wick"/>
<rect x="829.87" y="884.55" width="3.63" height="11.09" class="down-body"/>
<line x1="837.27" y1="883.04" x2="837.27" y2="895.90" class="up-wick"/>
<rect x="835.45" y="890.11" width="3.63" height="5.53" class="up-body"/>
<line x1="842.85" y1="890.11" x2="842.85" y2="898.44" class="down-wick"/>
<rect x="841.03" y="890.11" width="3.63" height="7.15" class="down-body"/>
<line x1="848.43" y1="888.21" x2="848.43" y2="900.71" class="up-wick"/>
<rect x="846.61" y="890.24" width="3.63" height="7.02" class="up-body"/>
<line x1="854.01" y1="886.93" x2="854.01" y2="891.29" class="down-wick"/>
<rect x="852.19" y="890.24" width="3.63" height="1.00" class="down-body"/>
<line x1="859.59" y1="886.59" x2="859.59" y2="891.91" class="up-wick"/>
<rect x="857.77" y="887.76" width="3.63" height="2.92" class="up-body"/>
<line x1="865.17" y1="885.00" x2="865.17" y2="892.82" class="down-wick"/>
<rect x="863.35" y="887.76" width="3.63" height="5.06" class="down-body"/>
<line x1="870.75" y1="889.62" x2="870.75" y2="895.98" class="up-wick"/>
<rect x="868.93" y="891.89" width="3.63" height="1.00" class="up-body"/>
<line x1="876.33" y1="884.47" x2="876.33" y2="891.94" class="up-wick"/>
<rect x="874.51" y="884.71" width="3.63" height="7.18" class="up-body"/>
<line x1="881.91" y1="882.62" x2="881.91" y2="888.65" class="down-wick"/>
<rect x="880.09" y="884.71" width="3.63" height="3.94" class="down-body"/>
<line x1="887.49" y1="882.65" x2="887.49" y2="890.37" class="up-wick"/>
<rect x="885.67" y="885.21" width="3.63" height="3.44" class="up-body"/>
<line x1="893.07" y1="885.18" x2="893.07" y2="890.01" class="down-wick"/>
<rect x="891.25" y="885.21" width="3.63" height="4.72" class="down-body"/>
<line x1="898.65" y1="888.78" x2="898.65" y2="897.65" class="down-wick"/>
<rect x="896.83" y="889.93" width="3.63" height="6.39" class="down-body"/>
<line x1="904.23" y1="893.37" x2="904.23" y2="900.99" class="down-wick"/>
<rect x="902.41" y="896.32" width="3.63" height="1.00" class="down-body"/>
<line x1="909.81" y1="895.10" x2="909.81" y2="900.97" class="down-wick"/>
<rect x="907.99" y="896.37" width="3.63" height="4.10" class="down-body"/>
<line x1="915.39" y1="891.31" x2="915.39" y2="901.18" class="up-wick"/>
<rect x="913.57" y="893.16" width="3.63" height="7.88" class="up-body"/>
<line x1="920.97" y1="877.95" x2="920.97" y2="893.29" class="up-wick"/>
<rect x="919.15" y="880.22" width="3.63" height="12.94" class="up-body"/>
<line x1="926.55" y1="865.19" x2="926.55" y2="880.35" class="up-wick"/>
<rect x="924.73" y="869.00" width="3.63" height="11.12" class="up-body"/>
<line x1="932.13" y1="859.24" x2="932.13" y2="872.60" class="up-wick"/>
<rect x="930.31" y="860.31" width="3.63" height="8.66" class="up-body"/>
<line x1="937.71" y1="860.02" x2="937.71" y2="873.65" class="down-wick"/>
<rect x="935.89" y="860.31" width="3.63" height="12.79" class="down-body"/>
<line x1="943.29" y1="872.71" x2="943.29" y2="877.64" class="down-wick"/>
<rect x="941.47" y="873.10" width="3.63" height="1.38" class="down-body"/>
<line x1="948.87" y1="874.45" x2="948.87" y2="882.18" class="down-wick"/>
<rect x="947.05" y="874.45" width="3.63" height="2.43" class="down-body"/>
<line x1="954.45" y1="872.99" x2="954.45" y2="879.20" class="up-wick"/>
<rect x="952.63" y="875.94" width="3.63" height="1.00" class="up-body"/>
<line x1="960.03" y1="868.56" x2="960.03" y2="876.18" class="up-wick"/>
<rect x="958.21" y="870.31" width="3.63" height="5.64" class="up-body"/>
<line x1="965.61" y1="865.95" x2="965.61" y2="872.11" class="down-wick"/>
<rect x="963.79" y="870.33" width="3.63" height="1.00" class="down-body"/>
<line x1="971.19" y1="870.54" x2="971.19" y2="875.94" class="down-wick"/>
<rect x="969.37" y="870.67" width="3.63" height="5.14" class="down-body"/>
<line x1="976.77" y1="872.99" x2="976.77" y2="879.99" class="up-wick"/>
<rect x="974.95" y="875.52" width="3.63" height="1.00" class="up-body"/>
<line x1="982.35" y1="868.82" x2="982.35" y2="875.52" class="up-wick"/>
<rect x="980.53" y="869.52" width="3.63" height="6.00" class="up-body"/>
<line x1="987.93" y1="866.39" x2="987.93" y2="870.62" class="up-wick"/>
<rect x="986.11" y="867.98" width="3.63" height="1.51" class="up-body"/>
<line x1="993.51" y1="864.77" x2="993.51" y2="871.87" class="down-wick"/>
<rect x="991.69" y="867.80" width="3.63" height="1.00" class="down-body"/>
<line x1="999.09" y1="865.35" x2="999.09" y2="873.78" class="down-wick"/>
<rect x="997.27" y="868.56" width="3.63" height="2.22" class="down-body"/>
<line x1="1004.67" y1="861.72" x2="1004.67" y2="871.35" class="up-wick"/>
<rect x="1002.85" y="865.24" width="3.63" height="5.53" class="up-body"/>
<line x1="1010.25" y1="861.72" x2="1010.25" y2="866.00" class="up-wick"/>
<rect x="1008.44" y="863.16" width="3.63" height="2.09" class="up-body"/>
<line x1="1015.83" y1="862.76" x2="1015.83" y2="869.91" class="down-wick"/>
<rect x="1014.02" y="863.16" width="3.63" height="5.69" class="down-body"/>
<line x1="1021.41" y1="868.74" x2="1021.41" y2="884.24" class="down-wick"/>
<rect x="1019.60" y="868.84" width="3.63" height="15.40" class="down-body"/>
<line x1="1026.99" y1="882.99" x2="1026.99" y2="891.83" class="down-wick"/>
<rect x="1025.18" y="884.24" width="3.63" height="3.08" class="down-body"/>
<line x1="1032.57" y1="883.22" x2="1032.57" y2="892.30" class="down-wick"/>
<rect x="1030.76" y="887.29" width="3.63" height="1.70" class="down-body"/>
<line x1="1038.15" y1="882.70" x2="1038.15" y2="895.70" class="up-wick"/>
<rect x="1036.34" y="882.73" width="3.63" height="6.26" class="up-body"/>
<line x1="1043.73" y1="881.58" x2="1043.73" y2="885.54" class="up-wick"/>
<rect x="1041.92" y="882.33" width="3.63" height="1.00" class="up-body"/>
<line x1="1049.31" y1="869.94" x2="1049.31" y2="884.14" class="up-wick"/>
<rect x="1047.50" y="872.91" width="3.63" height="9.42" class="up-body"/>
<line x1="1054.89" y1="872.81" x2="1054.89" y2="886.20" class="down-wick"/>
<rect x="1053.08" y="872.91" width="3.63" height="13.18" class="down-body"/>
<line x1="1060.47" y1="876.46" x2="1060.47" y2="887.89" class="up-wick"/>
<rect x="1058.66" y="878.29" width="3.63" height="7.80" class="up-body"/>
<line x1="1066.05" y1="866.34" x2="1066.05" y2="881.66" class="up-wick"/>
<rect x="1064.24" y="872.03" width="3.63" height="6.26" class="up-body"/>
<line x1="1071.63" y1="865.92" x2="1071.63" y2="874.40" class="down-wick"/>
<rect x="1069.82" y="872.03" width="3.63" height="1.12" class="down-body"/>
<line x1="1077.21" y1="871.04" x2="1077.21" y2="908.56" class="down-wick"/>
<rect x="1075.40" y="872.86" width="3.63" height="19.34" class="down-body"/>
<line x1="70" y1="915.06" x2="1080" y2="915.06" class="sweep-line"/>
<text x="1076" y="911.06" text-anchor="end" class="level-label">sweep 5009.66</text>
<line x1="70" y1="915.06" x2="1080" y2="915.06" class="entry-line"/>
<text x="1076" y="911.06" text-anchor="end" class="level-label">entry level 5009.66</text>
<text x="70" y="1056" class="axis-label">2026-03-16 00:00:00+00:00 to 2026-03-16 03:00:00+00:00</text>
<text x="1080" y="1056" text-anchor="end" class="axis-label">4962.55 - 5036.12</text>
</svg>