<svg xmlns="http://www.w3.org/2000/svg" width="1120" height="1054" viewBox="0 0 1120 1054">
<style>
text{font-family:Arial,Helvetica,sans-serif}.title{font-size:21px;font-weight:700;fill:#1f2937}.subtitle{font-size:12px;fill:#4b5563}.panel-title{font-size:15px;font-weight:700;fill:#111827}.muted{font-size:13px;fill:#6b7280}.plot-bg{fill:#f8fafc;stroke:#cbd5e1;stroke-width:1}.up-body{fill:#15803d;stroke:#14532d;stroke-width:.8}.down-body{fill:#b91c1c;stroke:#7f1d1d;stroke-width:.8}.up-wick{stroke:#14532d;stroke-width:1}.down-wick{stroke:#7f1d1d;stroke-width:1}.sweep-line{stroke:#7c3aed;stroke-width:1.6;stroke-dasharray:6 4}.number-line{stroke:#0f766e;stroke-width:1.4;stroke-dasharray:3 4}.entry-line{stroke:#2563eb;stroke-width:1.4}.sl-line{stroke:#dc2626;stroke-width:1.4}.tp-line{stroke:#16a34a;stroke-width:1.4}.level-label,.axis-label{font-size:11px;fill:#374151}
</style>
<text x="28" y="28" class="title">Adelin v2 visual review sample sample_144</text>
<text x="28" y="48" class="subtitle">Candidate windows are for visual labeling only and are not trade signals.</text>
<text x="560" y="48" class="subtitle" text-anchor="middle">LARGE_UPPER_WICK_REVERSAL_VISUAL_CANDIDATE | PRE_ANCHOR_SWEEP_EXTREME_CANDIDATE</text>
<text x="70" y="82" class="panel-title">H1 liquidity context</text>
<rect x="70" y="96" width="1010" height="192" class="plot-bg"/>
<line x1="79.90" y1="185.40" x2="79.90" y2="252.83" class="down-wick"/>
<rect x="75.90" y="189.55" width="8.00" height="39.82" class="down-body"/>
<line x1="99.71" y1="226.40" x2="99.71" y2="264.61" class="down-wick"/>
<rect x="95.71" y="229.36" width="8.00" height="19.34" class="down-body"/>
<line x1="119.51" y1="220.85" x2="119.51" y2="274.76" class="up-wick"/>
<rect x="115.51" y="233.80" width="8.00" height="14.90" class="up-body"/>
<line x1="139.31" y1="212.22" x2="139.31" y2="244.65" class="up-wick"/>
<rect x="135.31" y="215.61" width="8.00" height="18.19" class="up-body"/>
<line x1="159.12" y1="209.88" x2="159.12" y2="225.20" class="down-wick"/>
<rect x="155.12" y="215.61" width="8.00" height="2.37" class="down-body"/>
<line x1="178.92" y1="213.70" x2="178.92" y2="222.49" class="down-wick"/>
<rect x="174.92" y="217.98" width="8.00" height="1.00" class="down-body"/>
<line x1="198.73" y1="181.66" x2="198.73" y2="225.79" class="up-wick"/>
<rect x="194.73" y="193.69" width="8.00" height="25.19" class="up-body"/>
<line x1="218.53" y1="186.45" x2="218.53" y2="213.84" class="down-wick"/>
<rect x="214.53" y="193.69" width="8.00" height="19.70" class="down-body"/>
<line x1="238.33" y1="205.84" x2="238.33" y2="220.10" class="up-wick"/>
<rect x="234.33" y="212.34" width="8.00" height="1.04" class="up-body"/>
<line x1="258.14" y1="203.65" x2="258.14" y2="221.23" class="down-wick"/>
<rect x="254.14" y="212.35" width="8.00" height="1.84" class="down-body"/>
<line x1="277.94" y1="187.58" x2="277.94" y2="215.28" class="up-wick"/>
<rect x="273.94" y="207.77" width="8.00" height="6.46" class="up-body"/>
<line x1="297.75" y1="203.46" x2="297.75" y2="223.33" class="down-wick"/>
<rect x="293.75" y="207.77" width="8.00" height="13.36" class="down-body"/>
<line x1="317.55" y1="213.63" x2="317.55" y2="226.60" class="up-wick"/>
<rect x="313.55" y="220.51" width="8.00" height="1.00" class="up-body"/>
<line x1="337.35" y1="202.71" x2="337.35" y2="220.51" class="up-wick"/>
<rect x="333.35" y="215.45" width="8.00" height="5.07" class="up-body"/>
<line x1="357.16" y1="203.33" x2="357.16" y2="235.83" class="down-wick"/>
<rect x="353.16" y="215.45" width="8.00" height="15.37" class="down-body"/>
<line x1="376.96" y1="199.77" x2="376.96" y2="240.50" class="up-wick"/>
<rect x="372.96" y="216.15" width="8.00" height="14.66" class="up-body"/>
<line x1="396.76" y1="209.13" x2="396.76" y2="226.73" class="up-wick"/>
<rect x="392.76" y="211.96" width="8.00" height="4.19" class="up-body"/>
<line x1="416.57" y1="203.76" x2="416.57" y2="215.62" class="up-wick"/>
<rect x="412.57" y="208.23" width="8.00" height="3.65" class="up-body"/>
<line x1="436.37" y1="206.57" x2="436.37" y2="219.73" class="down-wick"/>
<rect x="432.37" y="208.23" width="8.00" height="6.40" class="down-body"/>
<line x1="456.18" y1="192.10" x2="456.18" y2="217.22" class="up-wick"/>
<rect x="452.18" y="194.44" width="8.00" height="20.19" class="up-body"/>
<line x1="475.98" y1="179.07" x2="475.98" y2="198.00" class="up-wick"/>
<rect x="471.98" y="181.36" width="8.00" height="13.08" class="up-body"/>
<line x1="495.78" y1="176.08" x2="495.78" y2="186.68" class="down-wick"/>
<rect x="491.78" y="181.36" width="8.00" height="2.09" class="down-body"/>
<line x1="515.59" y1="183.45" x2="515.59" y2="183.45" class="up-wick"/>
<rect x="511.59" y="183.45" width="8.00" height="1.00" class="up-body"/>
<line x1="535.39" y1="170.22" x2="535.39" y2="185.21" class="down-wick"/>
<rect x="531.39" y="172.49" width="8.00" height="9.85" class="down-body"/>
<line x1="555.20" y1="181.15" x2="555.20" y2="193.34" class="down-wick"/>
<rect x="551.20" y="182.34" width="8.00" height="6.40" class="down-body"/>
<line x1="575.00" y1="147.91" x2="575.00" y2="193.46" class="up-wick"/>
<rect x="571.00" y="149.32" width="8.00" height="39.40" class="up-body"/>
<line x1="594.80" y1="147.30" x2="594.80" y2="164.46" class="down-wick"/>
<rect x="590.80" y="149.33" width="8.00" height="13.57" class="down-body"/>
<line x1="614.61" y1="157.34" x2="614.61" y2="170.40" class="down-wick"/>
<rect x="610.61" y="162.91" width="8.00" height="5.97" class="down-body"/>
<line x1="634.41" y1="162.43" x2="634.41" y2="171.49" class="up-wick"/>
<rect x="630.41" y="164.46" width="8.00" height="4.70" class="up-body"/>
<line x1="654.22" y1="153.03" x2="654.22" y2="164.49" class="up-wick"/>
<rect x="650.22" y="154.01" width="8.00" height="10.44" class="up-body"/>
<line x1="674.02" y1="151.84" x2="674.02" y2="158.56" class="down-wick"/>
<rect x="670.02" y="153.99" width="8.00" height="2.00" class="down-body"/>
<line x1="693.82" y1="151.58" x2="693.82" y2="168.37" class="up-wick"/>
<rect x="689.82" y="151.76" width="8.00" height="4.22" class="up-body"/>
<line x1="713.63" y1="141.33" x2="713.63" y2="156.23" class="up-wick"/>
<rect x="709.63" y="150.08" width="8.00" height="1.68" class="up-body"/>
<line x1="733.43" y1="145.58" x2="733.43" y2="152.05" class="down-wick"/>
<rect x="729.43" y="149.98" width="8.00" height="1.00" class="down-body"/>
<line x1="753.24" y1="149.58" x2="753.24" y2="169.88" class="down-wick"/>
<rect x="749.24" y="150.62" width="8.00" height="3.98" class="down-body"/>
<line x1="773.04" y1="143.71" x2="773.04" y2="158.59" class="down-wick"/>
<rect x="769.04" y="154.60" width="8.00" height="1.53" class="down-body"/>
<line x1="792.84" y1="145.54" x2="792.84" y2="165.52" class="up-wick"/>
<rect x="788.84" y="147.34" width="8.00" height="8.78" class="up-body"/>
<line x1="812.65" y1="116.54" x2="812.65" y2="148.09" class="up-wick"/>
<rect x="808.65" y="133.60" width="8.00" height="13.75" class="up-body"/>
<line x1="832.45" y1="127.08" x2="832.45" y2="148.54" class="up-wick"/>
<rect x="828.45" y="132.73" width="8.00" height="1.00" class="up-body"/>
<line x1="852.25" y1="109.24" x2="852.25" y2="135.35" class="up-wick"/>
<rect x="848.25" y="116.58" width="8.00" height="16.18" class="up-body"/>
<line x1="872.06" y1="111.44" x2="872.06" y2="121.01" class="down-wick"/>
<rect x="868.06" y="116.56" width="8.00" height="1.00" class="down-body"/>
<line x1="891.86" y1="111.53" x2="891.86" y2="120.29" class="down-wick"/>
<rect x="887.86" y="117.28" width="8.00" height="1.00" class="down-body"/>
<line x1="911.67" y1="116.95" x2="911.67" y2="166.77" class="down-wick"/>
<rect x="907.67" y="117.34" width="8.00" height="26.49" class="down-body"/>
<line x1="931.47" y1="132.07" x2="931.47" y2="152.60" class="up-wick"/>
<rect x="927.47" y="138.58" width="8.00" height="5.24" class="up-body"/>
<line x1="951.27" y1="138.42" x2="951.27" y2="144.22" class="down-wick"/>
<rect x="947.27" y="138.59" width="8.00" height="5.51" class="down-body"/>
<line x1="971.08" y1="144.10" x2="971.08" y2="144.10" class="up-wick"/>
<rect x="967.08" y="144.10" width="8.00" height="1.00" class="up-body"/>
<line x1="990.88" y1="139.58" x2="990.88" y2="146.85" class="up-wick"/>
<rect x="986.88" y="139.73" width="8.00" height="6.00" class="up-body"/>
<line x1="1010.69" y1="123.40" x2="1010.69" y2="147.49" class="up-wick"/>
<rect x="1006.69" y="126.31" width="8.00" height="13.43" class="up-body"/>
<line x1="1030.49" y1="120.53" x2="1030.49" y2="131.45" class="down-wick"/>
<rect x="1026.49" y="126.31" width="8.00" height="5.12" class="down-body"/>
<line x1="1050.29" y1="122.57" x2="1050.29" y2="142.02" class="up-wick"/>
<rect x="1046.29" y="124.90" width="8.00" height="6.53" class="up-body"/>
<line x1="1070.10" y1="122.63" x2="1070.10" y2="138.28" class="down-wick"/>
<rect x="1066.10" y="124.88" width="8.00" height="10.38" class="down-body"/>
<line x1="70" y1="156.23" x2="1080" y2="156.23" class="sweep-line"/>
<text x="1076" y="152.23" text-anchor="end" class="level-label">sweep 5175.01</text>
<line x1="70" y1="159.52" x2="1080" y2="159.52" class="entry-line"/>
<text x="1076" y="155.52" text-anchor="end" class="level-label">entry level 5170.55</text>
<text x="70" y="306" class="axis-label">2026-03-09 01:00:00+00:00 to 2026-03-11 05:00:00+00:00</text>
<text x="1080" y="306" text-anchor="end" class="axis-label">4996.80 - 5256.46</text>
<text x="70" y="332" class="panel-title">M15 liquidity / reaction context</text>
<rect x="70" y="346" width="1010" height="192" class="plot-bg"/>
<line x1="77.65" y1="503.23" x2="77.65" y2="524.76" class="down-wick"/>
<rect x="73.65" y="504.25" width="8.00" height="3.38" class="down-body"/>
<line x1="92.95" y1="495.13" x2="92.95" y2="521.38" class="up-wick"/>
<rect x="88.95" y="496.12" width="8.00" height="11.49" class="up-body"/>
<line x1="108.26" y1="491.90" x2="108.26" y2="505.55" class="down-wick"/>
<rect x="104.26" y="496.12" width="8.00" height="6.69" class="down-body"/>
<line x1="123.56" y1="490.63" x2="123.56" y2="503.95" class="up-wick"/>
<rect x="119.56" y="496.12" width="8.00" height="6.69" class="up-body"/>
<line x1="138.86" y1="482.02" x2="138.86" y2="500.01" class="up-wick"/>
<rect x="134.86" y="490.66" width="8.00" height="5.32" class="up-body"/>
<line x1="154.17" y1="487.93" x2="154.17" y2="503.22" class="up-wick"/>
<rect x="150.17" y="490.13" width="8.00" height="1.00" class="up-body"/>
<line x1="169.47" y1="480.23" x2="169.47" y2="491.61" class="up-wick"/>
<rect x="165.47" y="485.19" width="8.00" height="4.73" class="up-body"/>
<line x1="184.77" y1="483.05" x2="184.77" y2="491.24" class="down-wick"/>
<rect x="180.77" y="485.19" width="8.00" height="3.71" class="down-body"/>
<line x1="200.08" y1="485.69" x2="200.08" y2="498.06" class="down-wick"/>
<rect x="196.08" y="488.90" width="8.00" height="6.99" class="down-body"/>
<line x1="215.38" y1="492.30" x2="215.38" y2="508.39" class="down-wick"/>
<rect x="211.38" y="495.89" width="8.00" height="6.82" class="down-body"/>
<line x1="230.68" y1="498.52" x2="230.68" y2="511.19" class="down-wick"/>
<rect x="226.68" y="502.70" width="8.00" height="6.03" class="down-body"/>
<line x1="245.98" y1="496.24" x2="245.98" y2="508.82" class="up-wick"/>
<rect x="241.98" y="501.30" width="8.00" height="7.44" class="up-body"/>
<line x1="261.29" y1="498.30" x2="261.29" y2="506.31" class="up-wick"/>
<rect x="257.29" y="499.05" width="8.00" height="2.25" class="up-body"/>
<line x1="276.59" y1="485.48" x2="276.59" y2="500.34" class="up-wick"/>
<rect x="272.59" y="488.23" width="8.00" height="10.82" class="up-body"/>
<line x1="291.89" y1="466.50" x2="291.89" y2="489.52" class="up-wick"/>
<rect x="287.89" y="469.64" width="8.00" height="18.66" class="up-body"/>
<line x1="307.20" y1="457.64" x2="307.20" y2="473.32" class="up-wick"/>
<rect x="303.20" y="462.17" width="8.00" height="7.47" class="up-body"/>
<line x1="322.50" y1="451.75" x2="322.50" y2="469.02" class="down-wick"/>
<rect x="318.50" y="462.17" width="8.00" height="1.00" class="down-body"/>
<line x1="337.80" y1="433.01" x2="337.80" y2="469.08" class="up-wick"/>
<rect x="333.80" y="438.44" width="8.00" height="24.41" class="up-body"/>
<line x1="353.11" y1="438.32" x2="353.11" y2="459.75" class="down-wick"/>
<rect x="349.11" y="438.44" width="8.00" height="6.55" class="down-body"/>
<line x1="368.41" y1="432.39" x2="368.41" y2="453.97" class="up-wick"/>
<rect x="364.41" y="436.82" width="8.00" height="8.26" class="up-body"/>
<line x1="383.71" y1="426.59" x2="383.71" y2="441.38" class="down-wick"/>
<rect x="379.71" y="436.82" width="8.00" height="1.72" class="down-body"/>
<line x1="399.02" y1="437.68" x2="399.02" y2="446.31" class="down-wick"/>
<rect x="395.02" y="438.52" width="8.00" height="1.00" class="down-body"/>
<line x1="414.32" y1="438.62" x2="414.32" y2="445.53" class="down-wick"/>
<rect x="410.32" y="439.17" width="8.00" height="1.00" class="down-body"/>
<line x1="429.62" y1="437.19" x2="429.62" y2="447.14" class="down-wick"/>
<rect x="425.62" y="439.33" width="8.00" height="1.55" class="down-body"/>
<line x1="444.92" y1="440.87" x2="444.92" y2="440.87" class="up-wick"/>
<rect x="440.92" y="440.87" width="8.00" height="1.00" class="up-body"/>
<line x1="460.23" y1="417.31" x2="460.23" y2="440.22" class="down-wick"/>
<rect x="456.23" y="419.62" width="8.00" height="9.75" class="down-body"/>
<line x1="475.53" y1="415.22" x2="475.53" y2="434.44" class="down-wick"/>
<rect x="471.53" y="429.40" width="8.00" height="1.93" class="down-body"/>
<line x1="490.83" y1="424.45" x2="490.83" y2="444.29" class="down-wick"/>
<rect x="486.83" y="431.33" width="8.00" height="10.83" class="down-body"/>
<line x1="506.14" y1="433.47" x2="506.14" y2="442.59" class="up-wick"/>
<rect x="502.14" y="438.71" width="8.00" height="3.45" class="up-body"/>
<line x1="521.44" y1="436.42" x2="521.44" y2="451.22" class="down-wick"/>
<rect x="517.44" y="438.71" width="8.00" height="4.10" class="down-body"/>
<line x1="536.74" y1="441.36" x2="536.74" y2="453.97" class="down-wick"/>
<rect x="532.74" y="442.80" width="8.00" height="9.13" class="down-body"/>
<line x1="552.05" y1="441.41" x2="552.05" y2="460.04" class="up-wick"/>
<rect x="548.05" y="441.91" width="8.00" height="10.02" class="up-body"/>
<line x1="567.35" y1="439.40" x2="567.35" y2="455.31" class="down-wick"/>
<rect x="563.35" y="441.91" width="8.00" height="9.22" class="down-body"/>
<line x1="582.65" y1="418.78" x2="582.65" y2="460.28" class="up-wick"/>
<rect x="578.65" y="433.25" width="8.00" height="17.84" class="up-body"/>
<line x1="597.95" y1="398.35" x2="597.95" y2="435.24" class="up-wick"/>
<rect x="593.95" y="412.57" width="8.00" height="20.68" class="up-body"/>
<line x1="613.26" y1="396.83" x2="613.26" y2="419.85" class="up-wick"/>
<rect x="609.26" y="400.72" width="8.00" height="11.87" class="up-body"/>
<line x1="628.56" y1="371.98" x2="628.56" y2="403.43" class="up-wick"/>
<rect x="624.56" y="374.72" width="8.00" height="26.00" class="up-body"/>
<line x1="643.86" y1="370.81" x2="643.86" y2="394.50" class="down-wick"/>
<rect x="639.86" y="374.73" width="8.00" height="12.77" class="down-body"/>
<line x1="659.17" y1="379.25" x2="659.17" y2="391.59" class="up-wick"/>
<rect x="655.17" y="380.97" width="8.00" height="6.54" class="up-body"/>
<line x1="674.47" y1="374.19" x2="674.47" y2="386.92" class="up-wick"/>
<rect x="670.47" y="377.67" width="8.00" height="3.32" class="up-body"/>
<line x1="689.77" y1="372.63" x2="689.77" y2="404.06" class="down-wick"/>
<rect x="685.77" y="377.67" width="8.00" height="23.36" class="down-body"/>
<line x1="705.08" y1="390.27" x2="705.08" y2="402.16" class="up-wick"/>
<rect x="701.08" y="400.29" width="8.00" height="1.00" class="up-body"/>
<line x1="720.38" y1="394.37" x2="720.38" y2="407.07" class="up-wick"/>
<rect x="716.38" y="399.93" width="8.00" height="1.00" class="up-body"/>
<line x1="735.68" y1="398.20" x2="735.68" y2="409.50" class="down-wick"/>
<rect x="731.68" y="399.94" width="8.00" height="5.93" class="down-body"/>
<line x1="750.98" y1="405.22" x2="750.98" y2="415.58" class="down-wick"/>
<rect x="746.98" y="405.82" width="8.00" height="6.81" class="down-body"/>
<line x1="766.29" y1="402.16" x2="766.29" y2="417.69" class="up-wick"/>
<rect x="762.29" y="403.33" width="8.00" height="9.85" class="up-body"/>
<line x1="781.59" y1="400.13" x2="781.59" y2="407.57" class="down-wick"/>
<rect x="777.59" y="403.33" width="8.00" height="2.72" class="down-body"/>
<line x1="796.89" y1="401.62" x2="796.89" y2="407.54" class="down-wick"/>
<rect x="792.89" y="406.06" width="8.00" height="1.00" class="down-body"/>
<line x1="812.20" y1="401.79" x2="812.20" y2="407.35" class="up-wick"/>
<rect x="808.20" y="404.07" width="8.00" height="2.64" class="up-body"/>
<line x1="827.50" y1="390.40" x2="827.50" y2="404.11" class="up-wick"/>
<rect x="823.50" y="390.99" width="8.00" height="13.06" class="up-body"/>
<line x1="842.80" y1="388.95" x2="842.80" y2="396.62" class="down-wick"/>
<rect x="838.80" y="390.99" width="8.00" height="1.82" class="down-body"/>
<line x1="858.11" y1="389.05" x2="858.11" y2="399.03" class="down-wick"/>
<rect x="854.11" y="392.81" width="8.00" height="4.27" class="down-body"/>
<line x1="873.41" y1="381.91" x2="873.41" y2="399.70" class="up-wick"/>
<rect x="869.41" y="383.81" width="8.00" height="13.34" class="up-body"/>
<line x1="888.71" y1="379.61" x2="888.71" y2="389.37" class="up-wick"/>
<rect x="884.71" y="381.60" width="8.00" height="2.16" class="up-body"/>
<line x1="904.02" y1="381.40" x2="904.02" y2="392.63" class="down-wick"/>
<rect x="900.02" y="381.60" width="8.00" height="4.82" class="down-body"/>
<line x1="919.32" y1="382.17" x2="919.32" y2="390.13" class="down-wick"/>
<rect x="915.32" y="386.41" width="8.00" height="1.00" class="down-body"/>
<line x1="934.62" y1="384.72" x2="934.62" y2="390.48" class="down-wick"/>
<rect x="930.62" y="386.96" width="8.00" height="1.00" class="down-body"/>
<line x1="949.92" y1="382.39" x2="949.92" y2="394.12" class="down-wick"/>
<rect x="945.92" y="387.63" width="8.00" height="1.00" class="down-body"/>
<line x1="965.23" y1="384.42" x2="965.23" y2="411.65" class="down-wick"/>
<rect x="961.23" y="388.48" width="8.00" height="7.60" class="down-body"/>
<line x1="980.53" y1="383.29" x2="980.53" y2="401.65" class="up-wick"/>
<rect x="976.53" y="386.49" width="8.00" height="9.67" class="up-body"/>
<line x1="995.83" y1="379.11" x2="995.83" y2="388.06" class="up-wick"/>
<rect x="991.83" y="379.45" width="8.00" height="7.01" class="up-body"/>
<line x1="1011.14" y1="373.29" x2="1011.14" y2="388.12" class="down-wick"/>
<rect x="1007.14" y="379.45" width="8.00" height="1.78" class="down-body"/>
<line x1="1026.44" y1="374.91" x2="1026.44" y2="387.43" class="up-wick"/>
<rect x="1022.44" y="375.02" width="8.00" height="6.16" class="up-body"/>
<line x1="1041.74" y1="360.73" x2="1041.74" y2="376.60" class="up-wick"/>
<rect x="1037.74" y="366.85" width="8.00" height="8.21" class="up-body"/>
<line x1="1057.05" y1="359.24" x2="1057.05" y2="376.87" class="down-wick"/>
<rect x="1053.05" y="366.67" width="8.00" height="9.53" class="down-body"/>
<line x1="1072.35" y1="367.47" x2="1072.35" y2="380.01" class="up-wick"/>
<rect x="1068.35" y="369.62" width="8.00" height="6.38" class="up-body"/>
<line x1="70" y1="388.11" x2="1080" y2="388.11" class="sweep-line"/>
<text x="1076" y="384.11" text-anchor="end" class="level-label">sweep 5175.01</text>
<line x1="70" y1="394.50" x2="1080" y2="394.50" class="entry-line"/>
<text x="1076" y="390.50" text-anchor="end" class="level-label">entry level 5170.55</text>
<text x="70" y="556" class="axis-label">2026-03-09 17:00:00+00:00 to 2026-03-10 11:00:00+00:00</text>
<text x="1080" y="556" text-anchor="end" class="axis-label">5070.42 - 5204.39</text>
<text x="70" y="582" class="panel-title">M5 reaction / execution context</text>
<rect x="70" y="596" width="1010" height="192" class="plot-bg"/>
<line x1="79.18" y1="722.09" x2="79.18" y2="774.76" class="up-wick"/>
<rect x="75.18" y="723.73" width="8.00" height="26.51" class="up-body"/>
<line x1="97.55" y1="706.22" x2="97.55" y2="740.32" class="down-wick"/>
<rect x="93.55" y="723.73" width="8.00" height="10.21" class="down-body"/>
<line x1="115.91" y1="697.08" x2="115.91" y2="737.37" class="up-wick"/>
<rect x="111.91" y="710.19" width="8.00" height="24.23" class="up-body"/>
<line x1="134.27" y1="685.86" x2="134.27" y2="719.33" class="up-wick"/>
<rect x="130.27" y="688.13" width="8.00" height="22.06" class="up-body"/>
<line x1="152.64" y1="666.70" x2="152.64" y2="712.99" class="up-wick"/>
<rect x="148.64" y="671.25" width="8.00" height="16.93" class="up-body"/>
<line x1="171.00" y1="613.21" x2="171.00" y2="674.83" class="up-wick"/>
<rect x="167.00" y="622.45" width="8.00" height="48.80" class="up-body"/>
<line x1="189.36" y1="609.24" x2="189.36" y2="661.00" class="down-wick"/>
<rect x="185.36" y="622.49" width="8.00" height="37.24" class="down-body"/>
<line x1="207.73" y1="654.42" x2="207.73" y2="689.19" class="down-wick"/>
<rect x="203.73" y="659.93" width="8.00" height="10.83" class="down-body"/>
<line x1="226.09" y1="665.59" x2="226.09" y2="686.73" class="up-wick"/>
<rect x="222.09" y="665.59" width="8.00" height="5.18" class="up-body"/>
<line x1="244.45" y1="643.39" x2="244.45" y2="679.38" class="up-wick"/>
<rect x="240.45" y="653.45" width="8.00" height="12.14" class="up-body"/>
<line x1="262.82" y1="645.76" x2="262.82" y2="662.20" class="down-wick"/>
<rect x="258.82" y="653.45" width="8.00" height="4.55" class="down-body"/>
<line x1="281.18" y1="637.73" x2="281.18" y2="667.57" class="up-wick"/>
<rect x="277.18" y="643.53" width="8.00" height="14.80" class="up-body"/>
<line x1="299.55" y1="625.40" x2="299.55" y2="653.21" class="down-wick"/>
<rect x="295.55" y="643.63" width="8.00" height="5.47" class="down-body"/>
<line x1="317.91" y1="640.92" x2="317.91" y2="663.61" class="up-wick"/>
<rect x="313.91" y="646.92" width="8.00" height="2.13" class="up-body"/>
<line x1="336.27" y1="620.66" x2="336.27" y2="652.05" class="up-wick"/>
<rect x="332.27" y="632.41" width="8.00" height="14.51" class="up-body"/>
<line x1="354.64" y1="615.38" x2="354.64" y2="650.16" class="down-wick"/>
<rect x="350.64" y="632.41" width="8.00" height="14.12" class="down-body"/>
<line x1="373.00" y1="644.94" x2="373.00" y2="681.26" class="down-wick"/>
<rect x="369.00" y="646.58" width="8.00" height="23.22" class="down-body"/>
<line x1="391.36" y1="668.20" x2="391.36" y2="721.46" class="down-wick"/>
<rect x="387.36" y="669.80" width="8.00" height="41.45" class="down-body"/>
<line x1="409.73" y1="677.05" x2="409.73" y2="715.07" class="up-wick"/>
<rect x="405.73" y="693.84" width="8.00" height="17.51" class="up-body"/>
<line x1="428.09" y1="674.93" x2="428.09" y2="701.72" class="up-wick"/>
<rect x="424.09" y="690.98" width="8.00" height="2.85" class="up-body"/>
<line x1="446.45" y1="678.36" x2="446.45" y2="714.88" class="down-wick"/>
<rect x="442.45" y="690.98" width="8.00" height="17.75" class="down-body"/>
<line x1="464.82" y1="688.76" x2="464.82" y2="718.51" class="down-wick"/>
<rect x="460.82" y="708.74" width="8.00" height="4.01" class="down-body"/>
<line x1="483.18" y1="690.69" x2="483.18" y2="714.68" class="up-wick"/>
<rect x="479.18" y="705.79" width="8.00" height="7.01" class="up-body"/>
<line x1="501.55" y1="696.69" x2="501.55" y2="731.61" class="down-wick"/>
<rect x="497.55" y="705.79" width="8.00" height="1.74" class="down-body"/>
<line x1="519.91" y1="701.67" x2="519.91" y2="727.74" class="down-wick"/>
<rect x="515.91" y="707.57" width="8.00" height="14.03" class="down-body"/>
<line x1="538.27" y1="714.64" x2="538.27" y2="739.84" class="down-wick"/>
<rect x="534.27" y="721.70" width="8.00" height="3.68" class="down-body"/>
<line x1="556.64" y1="723.87" x2="556.64" y2="735.19" class="down-wick"/>
<rect x="552.64" y="725.42" width="8.00" height="2.18" class="down-body"/>
<line x1="575.00" y1="725.37" x2="575.00" y2="755.27" class="down-wick"/>
<rect x="571.00" y="727.41" width="8.00" height="18.62" class="down-body"/>
<line x1="593.36" y1="740.71" x2="593.36" y2="760.34" class="up-wick"/>
<rect x="589.36" y="743.66" width="8.00" height="1.89" class="up-body"/>
<line x1="611.73" y1="736.21" x2="611.73" y2="755.07" class="down-wick"/>
<rect x="607.73" y="743.66" width="8.00" height="6.72" class="down-body"/>
<line x1="630.09" y1="742.74" x2="630.09" y2="766.34" class="down-wick"/>
<rect x="626.09" y="752.22" width="8.00" height="8.90" class="down-body"/>
<line x1="648.45" y1="742.93" x2="648.45" y2="767.45" class="up-wick"/>
<rect x="644.45" y="750.57" width="8.00" height="10.45" class="up-body"/>
<line x1="666.82" y1="715.07" x2="666.82" y2="758.22" class="up-wick"/>
<rect x="662.82" y="718.99" width="8.00" height="31.58" class="up-body"/>
<line x1="685.18" y1="712.70" x2="685.18" y2="733.31" class="down-wick"/>
<rect x="681.18" y="718.99" width="8.00" height="5.71" class="down-body"/>
<line x1="703.55" y1="708.20" x2="703.55" y2="729.44" class="down-wick"/>
<rect x="699.55" y="724.70" width="8.00" height="4.30" class="down-body"/>
<line x1="721.91" y1="721.80" x2="721.91" y2="733.31" class="up-wick"/>
<rect x="717.91" y="728.18" width="8.00" height="1.00" class="up-body"/>
<line x1="740.27" y1="721.36" x2="740.27" y2="733.21" class="up-wick"/>
<rect x="736.27" y="721.84" width="8.00" height="6.38" class="up-body"/>
<line x1="758.64" y1="713.23" x2="758.64" y2="725.81" class="up-wick"/>
<rect x="754.64" y="720.30" width="8.00" height="1.21" class="up-body"/>
<line x1="777.00" y1="718.07" x2="777.00" y2="732.73" class="down-wick"/>
<rect x="773.00" y="720.30" width="8.00" height="9.96" class="down-body"/>
<line x1="795.36" y1="718.75" x2="795.36" y2="732.58" class="up-wick"/>
<rect x="791.36" y="718.80" width="8.00" height="11.61" class="up-body"/>
<line x1="813.73" y1="713.81" x2="813.73" y2="726.00" class="down-wick"/>
<rect x="809.73" y="718.80" width="8.00" height="2.52" class="down-body"/>
<line x1="832.09" y1="720.20" x2="832.09" y2="723.49" class="down-wick"/>
<rect x="828.09" y="721.31" width="8.00" height="1.00" class="down-body"/>
<line x1="850.45" y1="690.40" x2="850.45" y2="721.65" class="up-wick"/>
<rect x="846.45" y="697.95" width="8.00" height="23.46" class="up-body"/>
<line x1="868.82" y1="686.24" x2="868.82" y2="703.27" class="down-wick"/>
<rect x="864.82" y="697.95" width="8.00" height="5.22" class="down-body"/>
<line x1="887.18" y1="675.36" x2="887.18" y2="708.06" class="up-wick"/>
<rect x="883.18" y="677.34" width="8.00" height="25.59" class="up-body"/>
<line x1="905.55" y1="670.48" x2="905.55" y2="692.58" class="down-wick"/>
<rect x="901.55" y="677.34" width="8.00" height="12.91" class="down-body"/>
<line x1="923.91" y1="686.34" x2="923.91" y2="696.06" class="down-wick"/>
<rect x="919.91" y="690.26" width="8.00" height="5.13" class="down-body"/>
<line x1="942.27" y1="683.29" x2="942.27" y2="696.35" class="up-wick"/>
<rect x="938.27" y="683.49" width="8.00" height="11.90" class="up-body"/>
<line x1="960.64" y1="670.81" x2="960.64" y2="704.48" class="down-wick"/>
<rect x="956.64" y="683.49" width="8.00" height="15.82" class="down-body"/>
<line x1="979.00" y1="691.56" x2="979.00" y2="704.09" class="up-wick"/>
<rect x="975.00" y="695.58" width="8.00" height="3.72" class="up-body"/>
<line x1="997.36" y1="682.76" x2="997.36" y2="698.72" class="down-wick"/>
<rect x="993.36" y="695.58" width="8.00" height="2.32" class="down-body"/>
<line x1="1015.73" y1="672.70" x2="1015.73" y2="706.75" class="up-wick"/>
<rect x="1011.73" y="676.23" width="8.00" height="21.91" class="up-body"/>
<line x1="1034.09" y1="660.46" x2="1034.09" y2="677.15" class="up-wick"/>
<rect x="1030.09" y="664.33" width="8.00" height="11.90" class="up-body"/>
<line x1="1052.45" y1="646.73" x2="1052.45" y2="668.59" class="up-wick"/>
<rect x="1048.45" y="653.11" width="8.00" height="11.41" class="up-body"/>
<line x1="1070.82" y1="639.28" x2="1070.82" y2="661.14" class="down-wick"/>
<rect x="1066.82" y="652.97" width="8.00" height="1.40" class="down-body"/>
<line x1="70" y1="667.62" x2="1080" y2="667.62" class="sweep-line"/>
<text x="1076" y="663.62" text-anchor="end" class="level-label">sweep 5175.01</text>
<line x1="70" y1="689.19" x2="1080" y2="689.19" class="entry-line"/>
<text x="1076" y="685.19" text-anchor="end" class="level-label">entry level 5170.55</text>
<text x="70" y="806" class="axis-label">2026-03-10 03:30:00+00:00 to 2026-03-10 08:00:00+00:00</text>
<text x="1080" y="806" text-anchor="end" class="axis-label">5150.12 - 5189.82</text>
<text x="70" y="832" class="panel-title">M1 execution window</text>
<rect x="70" y="846" width="1010" height="192" class="plot-bg"/>
<line x1="73.71" y1="985.66" x2="73.71" y2="1017.56" class="down-wick"/>
<rect x="71.30" y="999.92" width="4.83" height="14.06" class="down-body"/>
<line x1="81.14" y1="1001.83" x2="81.14" y2="1024.76" class="up-wick"/>
<rect x="78.73" y="1016.48" width="4.83" height="6.96" class="up-body"/>
<line x1="88.57" y1="971.40" x2="88.57" y2="997.47" class="up-wick"/>
<rect x="86.15" y="973.07" width="4.83" height="21.56" class="up-body"/>
<line x1="95.99" y1="956.85" x2="95.99" y2="982.13" class="up-wick"/>
<rect x="93.58" y="960.67" width="4.83" height="11.81" class="up-body"/>
<line x1="103.42" y1="969.15" x2="103.42" y2="989.19" class="down-wick"/>
<rect x="101.01" y="969.15" width="4.83" height="2.84" class="down-body"/>
<line x1="110.85" y1="971.69" x2="110.85" y2="986.88" class="up-wick"/>
<rect x="108.43" y="981.20" width="4.83" height="2.69" class="up-body"/>
<line x1="118.27" y1="948.12" x2="118.27" y2="970.66" class="down-wick"/>
<rect x="115.86" y="948.12" width="4.83" height="18.23" class="down-body"/>
<line x1="125.70" y1="952.93" x2="125.70" y2="968.95" class="down-wick"/>
<rect x="123.28" y="954.69" width="4.83" height="4.65" class="down-body"/>
<line x1="133.12" y1="946.75" x2="133.12" y2="967.19" class="up-wick"/>
<rect x="130.71" y="949.45" width="4.83" height="14.50" class="up-body"/>
<line x1="140.55" y1="941.80" x2="140.55" y2="956.55" class="up-wick"/>
<rect x="138.14" y="944.50" width="4.83" height="10.39" class="up-body"/>
<line x1="147.98" y1="934.65" x2="147.98" y2="952.19" class="down-wick"/>
<rect x="145.56" y="937.05" width="4.83" height="13.77" class="down-body"/>
<line x1="155.40" y1="927.35" x2="155.40" y2="956.31" class="up-wick"/>
<rect x="152.99" y="930.49" width="4.83" height="20.14" class="up-body"/>
<line x1="162.83" y1="915.30" x2="162.83" y2="940.73" class="up-wick"/>
<rect x="160.42" y="919.90" width="4.83" height="19.31" class="up-body"/>
<line x1="170.26" y1="905.06" x2="170.26" y2="916.72" class="up-wick"/>
<rect x="167.84" y="906.77" width="4.83" height="7.10" class="up-body"/>
<line x1="177.68" y1="878.55" x2="177.68" y2="893.05" class="down-wick"/>
<rect x="175.27" y="888.79" width="4.83" height="1.42" class="down-body"/>
<line x1="185.11" y1="859.24" x2="185.11" y2="872.23" class="up-wick"/>
<rect x="182.70" y="861.59" width="4.83" height="8.92" class="up-body"/>
<line x1="192.54" y1="869.04" x2="192.54" y2="892.41" class="down-wick"/>
<rect x="190.12" y="874.23" width="4.83" height="9.41" class="down-body"/>
<line x1="199.96" y1="885.90" x2="199.96" y2="909.51" class="down-wick"/>
<rect x="197.55" y="887.02" width="4.83" height="21.22" class="down-body"/>
<line x1="207.39" y1="902.85" x2="207.39" y2="915.69" class="down-wick"/>
<rect x="204.98" y="909.86" width="4.83" height="4.07" class="down-body"/>
<line x1="214.82" y1="910.00" x2="214.82" y2="938.08" class="down-wick"/>
<rect x="212.40" y="910.00" width="4.83" height="23.08" class="down-body"/>
<line x1="222.24" y1="916.62" x2="222.24" y2="933.62" class="down-wick"/>
<rect x="219.83" y="919.41" width="4.83" height="9.80" class="down-body"/>
<line x1="229.67" y1="921.91" x2="229.67" y2="932.25" class="down-wick"/>
<rect x="227.26" y="924.31" width="4.83" height="3.67" class="down-body"/>
<line x1="237.10" y1="914.17" x2="237.10" y2="930.83" class="up-wick"/>
<rect x="234.68" y="914.17" width="4.83" height="11.86" class="up-body"/>
<line x1="244.52" y1="900.20" x2="244.52" y2="918.09" class="up-wick"/>
<rect x="242.11" y="909.42" width="4.83" height="7.79" class="up-body"/>
<line x1="251.95" y1="896.24" x2="251.95" y2="912.45" class="up-wick"/>
<rect x="249.53" y="896.43" width="4.83" height="14.21" class="up-body"/>
<line x1="259.38" y1="894.08" x2="259.38" y2="904.12" class="up-wick"/>
<rect x="256.96" y="898.05" width="4.83" height="3.82" class="up-body"/>
<line x1="266.80" y1="900.89" x2="266.80" y2="910.40" class="up-wick"/>
<rect x="264.39" y="901.38" width="4.83" height="5.34" class="up-body"/>
<line x1="274.23" y1="899.91" x2="274.23" y2="909.22" class="down-wick"/>
<rect x="271.81" y="902.31" width="4.83" height="4.16" class="down-body"/>
<line x1="281.65" y1="890.16" x2="281.65" y2="916.18" class="up-wick"/>
<rect x="279.24" y="890.65" width="4.83" height="20.87" class="up-body"/>
<line x1="289.08" y1="885.95" x2="289.08" y2="903.88" class="down-wick"/>
<rect x="286.67" y="889.72" width="4.83" height="13.38" class="down-body"/>
<line x1="296.51" y1="887.07" x2="296.51" y2="901.63" class="down-wick"/>
<rect x="294.09" y="891.92" width="4.83" height="2.25" class="down-body"/>
<line x1="303.93" y1="873.45" x2="303.93" y2="891.63" class="down-wick"/>
<rect x="301.52" y="884.18" width="4.83" height="3.43" class="down-body"/>
<line x1="311.36" y1="889.38" x2="311.36" y2="900.16" class="down-wick"/>
<rect x="308.95" y="890.55" width="4.83" height="6.91" class="down-body"/>
<line x1="318.79" y1="891.73" x2="318.79" y2="907.26" class="down-wick"/>
<rect x="316.37" y="892.02" width="4.83" height="13.92" class="down-body"/>
<line x1="326.21" y1="902.26" x2="326.21" y2="912.16" class="down-wick"/>
<rect x="323.80" y="902.56" width="4.83" height="2.40" class="down-body"/>
<line x1="333.64" y1="875.66" x2="333.64" y2="895.65" class="up-wick"/>
<rect x="331.23" y="876.29" width="4.83" height="18.96" class="up-body"/>
<line x1="341.07" y1="880.75" x2="341.07" y2="889.08" class="down-wick"/>
<rect x="338.65" y="881.49" width="4.83" height="5.00" class="down-body"/>
<line x1="348.49" y1="880.46" x2="348.49" y2="898.98" class="up-wick"/>
<rect x="346.08" y="880.56" width="4.83" height="18.18" class="up-body"/>
<line x1="355.92" y1="863.31" x2="355.92" y2="875.07" class="down-wick"/>
<rect x="353.51" y="873.65" width="4.83" height="1.42" class="down-body"/>
<line x1="363.35" y1="879.67" x2="363.35" y2="892.46" class="down-wick"/>
<rect x="360.93" y="885.26" width="4.83" height="2.30" class="down-body"/>
<line x1="370.77" y1="893.25" x2="370.77" y2="900.74" class="down-wick"/>
<rect x="368.36" y="894.91" width="4.83" height="3.63" class="down-body"/>
<line x1="378.20" y1="909.27" x2="378.20" y2="925.78" class="down-wick"/>
<rect x="375.78" y="910.89" width="4.83" height="14.01" class="down-body"/>
<line x1="385.62" y1="905.10" x2="385.62" y2="918.43" class="down-wick"/>
<rect x="383.21" y="912.80" width="4.83" height="5.63" class="down-body"/>
<line x1="393.05" y1="929.70" x2="393.05" y2="949.99" class="down-wick"/>
<rect x="390.64" y="931.27" width="4.83" height="13.72" class="down-body"/>
<line x1="400.48" y1="940.82" x2="400.48" y2="964.25" class="down-wick"/>
<rect x="398.06" y="944.94" width="4.83" height="15.29" class="down-body"/>
<line x1="407.90" y1="950.13" x2="407.90" y2="964.29" class="up-wick"/>
<rect x="405.49" y="956.60" width="4.83" height="3.92" class="up-body"/>
<line x1="415.33" y1="925.78" x2="415.33" y2="935.14" class="up-wick"/>
<rect x="412.92" y="932.54" width="4.83" height="2.16" class="up-body"/>
<line x1="422.76" y1="935.29" x2="422.76" y2="944.35" class="down-wick"/>
<rect x="420.34" y="938.86" width="4.83" height="3.92" class="down-body"/>
<line x1="430.18" y1="939.89" x2="430.18" y2="950.77" class="down-wick"/>
<rect x="427.77" y="943.57" width="4.83" height="2.89" class="down-body"/>
<line x1="437.61" y1="924.41" x2="437.61" y2="932.59" class="up-wick"/>
<rect x="435.20" y="924.56" width="4.83" height="4.56" class="up-body"/>
<line x1="445.04" y1="927.10" x2="445.04" y2="942.54" class="up-wick"/>
<rect x="442.62" y="934.85" width="4.83" height="5.05" class="up-body"/>
<line x1="452.46" y1="935.34" x2="452.46" y2="956.36" class="down-wick"/>
<rect x="450.05" y="939.26" width="4.83" height="15.24" class="down-body"/>
<line x1="459.89" y1="956.75" x2="459.89" y2="963.71" class="up-wick"/>
<rect x="457.48" y="957.88" width="4.83" height="5.44" class="up-body"/>
<line x1="467.32" y1="954.59" x2="467.32" y2="967.77" class="up-wick"/>
<rect x="464.90" y="956.80" width="4.83" height="4.56" class="up-body"/>
<line x1="474.74" y1="937.64" x2="474.74" y2="957.58" class="down-wick"/>
<rect x="472.33" y="939.70" width="4.83" height="17.88" class="down-body"/>
<line x1="482.17" y1="955.57" x2="482.17" y2="963.90" class="up-wick"/>
<rect x="479.76" y="956.70" width="4.83" height="5.29" class="up-body"/>
<line x1="489.60" y1="939.60" x2="489.60" y2="951.85" class="down-wick"/>
<rect x="487.18" y="941.95" width="4.83" height="5.68" class="down-body"/>
<line x1="497.02" y1="954.15" x2="497.02" y2="961.31" class="up-wick"/>
<rect x="494.61" y="954.89" width="4.83" height="2.01" class="up-body"/>
<line x1="504.45" y1="945.67" x2="504.45" y2="955.96" class="down-wick"/>
<rect x="502.03" y="951.65" width="4.83" height="4.26" class="down-body"/>
<line x1="511.88" y1="969.15" x2="511.88" y2="981.05" class="up-wick"/>
<rect x="509.46" y="970.81" width="4.83" height="2.01" class="up-body"/>
<line x1="519.30" y1="950.72" x2="519.30" y2="961.80" class="down-wick"/>
<rect x="516.89" y="956.70" width="4.83" height="3.18" class="down-body"/>
<line x1="526.73" y1="954.69" x2="526.73" y2="968.26" class="down-wick"/>
<rect x="524.31" y="959.15" width="4.83" height="8.67" class="down-body"/>
<line x1="534.15" y1="967.82" x2="534.15" y2="977.13" class="up-wick"/>
<rect x="531.74" y="970.91" width="4.83" height="2.99" class="up-body"/>
<line x1="541.58" y1="963.85" x2="541.58" y2="981.44" class="up-wick"/>
<rect x="539.17" y="967.23" width="4.83" height="12.98" class="up-body"/>
<line x1="549.01" y1="967.58" x2="549.01" y2="975.71" class="down-wick"/>
<rect x="546.59" y="969.00" width="4.83" height="6.71" class="down-body"/>
<line x1="556.43" y1="973.21" x2="556.43" y2="981.69" class="down-wick"/>
<rect x="554.02" y="974.78" width="4.83" height="5.88" class="down-body"/>
<line x1="563.86" y1="974.34" x2="563.86" y2="984.68" class="down-wick"/>
<rect x="561.45" y="980.86" width="4.83" height="1.00" class="down-body"/>
<line x1="571.29" y1="974.73" x2="571.29" y2="981.05" class="up-wick"/>
<rect x="568.87" y="976.98" width="4.83" height="2.40" class="up-body"/>
<line x1="578.71" y1="988.01" x2="578.71" y2="998.59" class="up-wick"/>
<rect x="576.30" y="991.73" width="4.83" height="1.81" class="up-body"/>
<line x1="586.14" y1="993.99" x2="586.14" y2="1002.32" class="up-wick"/>
<rect x="583.73" y="994.28" width="4.83" height="8.04" class="up-body"/>
<line x1="593.57" y1="994.72" x2="593.57" y2="1009.62" class="down-wick"/>
<rect x="591.15" y="995.16" width="4.83" height="10.73" class="down-body"/>
<line x1="600.99" y1="996.00" x2="600.99" y2="1010.16" class="up-wick"/>
<rect x="598.58" y="996.05" width="4.83" height="12.30" class="up-body"/>
<line x1="608.42" y1="990.26" x2="608.42" y2="995.85" class="up-wick"/>
<rect x="606.01" y="993.25" width="4.83" height="1.00" class="up-body"/>
<line x1="615.85" y1="985.71" x2="615.85" y2="991.68" class="down-wick"/>
<rect x="613.43" y="990.75" width="4.83" height="1.00" class="down-body"/>
<line x1="623.27" y1="992.42" x2="623.27" y2="1000.41" class="down-wick"/>
<rect x="620.86" y="994.38" width="4.83" height="4.16" class="down-body"/>
<line x1="630.70" y1="1001.73" x2="630.70" y2="1013.10" class="down-wick"/>
<rect x="628.28" y="1001.93" width="4.83" height="7.69" class="down-body"/>
<line x1="638.12" y1="992.32" x2="638.12" y2="1016.23" class="down-wick"/>
<rect x="635.71" y="1001.58" width="4.83" height="1.00" class="down-body"/>
<line x1="645.55" y1="1004.82" x2="645.55" y2="1016.13" class="up-wick"/>
<rect x="643.14" y="1010.94" width="4.83" height="1.27" class="up-body"/>
<line x1="652.98" y1="1004.42" x2="652.98" y2="1013.10" class="up-wick"/>
<rect x="650.56" y="1009.47" width="4.83" height="3.14" class="up-body"/>
<line x1="660.40" y1="1004.96" x2="660.40" y2="1012.12" class="down-wick"/>
<rect x="657.99" y="1005.16" width="4.83" height="1.00" class="down-body"/>
<line x1="667.83" y1="988.79" x2="667.83" y2="1008.00" class="down-wick"/>
<rect x="665.42" y="1000.26" width="4.83" height="3.09" class="down-body"/>
<line x1="675.26" y1="983.16" x2="675.26" y2="993.64" class="up-wick"/>
<rect x="672.84" y="983.21" width="4.83" height="10.44" class="up-body"/>
<line x1="682.68" y1="964.29" x2="682.68" y2="980.41" class="up-wick"/>
<rect x="680.27" y="968.26" width="4.83" height="11.61" class="up-body"/>
<line x1="690.11" y1="969.34" x2="690.11" y2="980.51" class="up-wick"/>
<rect x="687.70" y="969.88" width="4.83" height="8.72" class="up-body"/>
<line x1="697.54" y1="968.70" x2="697.54" y2="975.52" class="up-wick"/>
<rect x="695.12" y="973.80" width="4.83" height="1.00" class="up-body"/>
<line x1="704.96" y1="965.57" x2="704.96" y2="974.73" class="up-wick"/>
<rect x="702.55" y="965.57" width="4.83" height="8.48" class="up-body"/>
<line x1="712.39" y1="959.39" x2="712.39" y2="966.70" class="down-wick"/>
<rect x="709.98" y="960.42" width="4.83" height="4.21" class="down-body"/>
<line x1="719.82" y1="974.49" x2="719.82" y2="978.85" class="down-wick"/>
<rect x="717.40" y="974.98" width="4.83" height="3.43" class="down-body"/>
<line x1="727.24" y1="976.98" x2="727.24" y2="982.77" class="down-wick"/>
<rect x="724.83" y="978.70" width="4.83" height="1.00" class="down-body"/>
<line x1="734.67" y1="973.65" x2="734.67" y2="978.55" class="down-wick"/>
<rect x="732.26" y="975.81" width="4.83" height="1.00" class="down-body"/>
<line x1="742.10" y1="976.50" x2="742.10" y2="978.70" class="down-wick"/>
<rect x="739.68" y="977.62" width="4.83" height="1.08" class="down-body"/>
<line x1="749.52" y1="974.34" x2="749.52" y2="980.86" class="down-wick"/>
<rect x="747.11" y="975.52" width="4.83" height="2.84" class="down-body"/>
<line x1="756.95" y1="970.66" x2="756.95" y2="977.62" class="up-wick"/>
<rect x="754.53" y="971.15" width="4.83" height="1.32" class="up-body"/>
<line x1="764.38" y1="962.43" x2="764.38" y2="965.96" class="down-wick"/>
<rect x="761.96" y="963.51" width="4.83" height="1.13" class="down-body"/>
<line x1="771.80" y1="967.14" x2="771.80" y2="972.58" class="up-wick"/>
<rect x="769.39" y="971.30" width="4.83" height="1.00" class="up-body"/>
<line x1="779.23" y1="967.33" x2="779.23" y2="972.33" class="down-wick"/>
<rect x="776.81" y="969.59" width="4.83" height="2.69" class="down-body"/>
<line x1="786.65" y1="972.72" x2="786.65" y2="976.89" class="down-wick"/>
<rect x="784.24" y="972.97" width="4.83" height="3.63" class="down-body"/>
<line x1="794.08" y1="977.43" x2="794.08" y2="982.18" class="up-wick"/>
<rect x="791.67" y="979.68" width="4.83" height="1.91" class="up-body"/>
<line x1="801.51" y1="975.03" x2="801.51" y2="981.20" class="up-wick"/>
<rect x="799.09" y="978.45" width="4.83" height="1.00" class="up-body"/>
<line x1="808.93" y1="970.91" x2="808.93" y2="974.05" class="down-wick"/>
<rect x="806.52" y="972.38" width="4.83" height="1.00" class="down-body"/>
<line x1="816.36" y1="963.02" x2="816.36" y2="969.44" class="up-wick"/>
<rect x="813.95" y="967.63" width="4.83" height="1.00" class="up-body"/>
<line x1="823.79" y1="968.41" x2="823.79" y2="974.19" class="up-wick"/>
<rect x="821.37" y="969.59" width="4.83" height="1.96" class="up-body"/>
<line x1="831.21" y1="967.92" x2="831.21" y2="971.01" class="down-wick"/>
<rect x="828.80" y="968.07" width="4.83" height="2.55" class="down-body"/>
<line x1="838.64" y1="969.49" x2="838.64" y2="972.53" class="down-wick"/>
<rect x="836.23" y="970.17" width="4.83" height="1.13" class="down-body"/>
<line x1="846.07" y1="969.83" x2="846.07" y2="972.58" class="down-wick"/>
<rect x="843.65" y="971.11" width="4.83" height="1.00" class="down-body"/>
<line x1="853.49" y1="961.60" x2="853.49" y2="970.96" class="up-wick"/>
<rect x="851.08" y="967.53" width="4.83" height="3.18" class="up-body"/>
<line x1="860.92" y1="947.63" x2="860.92" y2="959.39" class="up-wick"/>
<rect x="858.51" y="948.42" width="4.83" height="8.82" class="up-body"/>
<line x1="868.35" y1="940.53" x2="868.35" y2="949.10" class="down-wick"/>
<rect x="865.93" y="940.53" width="4.83" height="6.42" class="down-body"/>
<line x1="875.77" y1="935.09" x2="875.77" y2="950.48" class="down-wick"/>
<rect x="873.36" y="946.07" width="4.83" height="2.84" class="down-body"/>
<line x1="883.20" y1="945.48" x2="883.20" y2="950.57" class="down-wick"/>
<rect x="880.78" y="946.56" width="4.83" height="1.00" class="down-body"/>
<line x1="890.62" y1="943.62" x2="890.62" y2="957.19" class="up-wick"/>
<rect x="888.21" y="944.50" width="4.83" height="7.50" class="up-body"/>
<line x1="898.05" y1="930.14" x2="898.05" y2="937.64" class="up-wick"/>
<rect x="895.64" y="933.13" width="4.83" height="3.04" class="up-body"/>
<line x1="905.48" y1="924.07" x2="905.48" y2="932.10" class="up-wick"/>
<rect x="903.06" y="926.08" width="4.83" height="5.88" class="up-body"/>
<line x1="912.90" y1="921.57" x2="912.90" y2="928.33" class="up-wick"/>
<rect x="910.49" y="923.92" width="4.83" height="3.14" class="up-body"/>
<line x1="920.33" y1="935.73" x2="920.33" y2="940.63" class="down-wick"/>
<rect x="917.92" y="938.52" width="4.83" height="1.00" class="down-body"/>
<line x1="927.76" y1="935.58" x2="927.76" y2="942.69" class="up-wick"/>
<rect x="925.34" y="939.01" width="4.83" height="1.00" class="up-body"/>
<line x1="935.18" y1="936.61" x2="935.18" y2="941.36" class="down-wick"/>
<rect x="932.77" y="936.61" width="4.83" height="4.26" class="down-body"/>
<line x1="942.61" y1="937.69" x2="942.61" y2="945.04" class="down-wick"/>
<rect x="940.20" y="939.60" width="4.83" height="4.75" class="down-body"/>
<line x1="950.04" y1="936.17" x2="950.04" y2="940.04" class="up-wick"/>
<rect x="947.62" y="937.00" width="4.83" height="1.86" class="up-body"/>
<line x1="957.46" y1="935.09" x2="957.46" y2="943.67" class="up-wick"/>
<rect x="955.05" y="937.84" width="4.83" height="3.97" class="up-body"/>
<line x1="964.89" y1="919.46" x2="964.89" y2="935.53" class="up-wick"/>
<rect x="962.48" y="919.46" width="4.83" height="12.84" class="up-body"/>
<line x1="972.32" y1="934.65" x2="972.32" y2="953.56" class="down-wick"/>
<rect x="969.90" y="935.19" width="4.83" height="12.54" class="down-body"/>
<line x1="979.74" y1="933.43" x2="979.74" y2="948.52" class="down-wick"/>
<rect x="977.33" y="934.75" width="4.83" height="13.57" class="down-body"/>
<line x1="987.17" y1="942.88" x2="987.17" y2="953.17" class="up-wick"/>
<rect x="984.76" y="943.96" width="4.83" height="8.13" class="up-body"/>
<line x1="994.60" y1="943.42" x2="994.60" y2="951.06" class="up-wick"/>
<rect x="992.18" y="943.86" width="4.83" height="5.39" class="up-body"/>
<line x1="1002.02" y1="935.48" x2="1002.02" y2="946.26" class="up-wick"/>
<rect x="999.61" y="939.94" width="4.83" height="4.61" class="up-body"/>
<line x1="1009.45" y1="935.24" x2="1009.45" y2="945.53" class="down-wick"/>
<rect x="1007.03" y="940.14" width="4.83" height="2.06" class="down-body"/>
<line x1="1016.88" y1="935.24" x2="1016.88" y2="947.73" class="down-wick"/>
<rect x="1014.46" y="939.99" width="4.83" height="6.91" class="down-body"/>
<line x1="1024.30" y1="938.67" x2="1024.30" y2="955.87" class="up-wick"/>
<rect x="1021.89" y="938.96" width="4.83" height="14.21" class="up-body"/>
<line x1="1031.73" y1="933.52" x2="1031.73" y2="940.92" class="up-wick"/>
<rect x="1029.31" y="933.82" width="4.83" height="1.57" class="up-body"/>
<line x1="1039.15" y1="913.87" x2="1039.15" y2="925.88" class="up-wick"/>
<rect x="1036.74" y="917.70" width="4.83" height="7.25" class="up-body"/>
<line x1="1046.58" y1="915.44" x2="1046.58" y2="921.27" class="up-wick"/>
<rect x="1044.17" y="915.44" width="4.83" height="1.18" class="up-body"/>
<line x1="1054.01" y1="908.97" x2="1054.01" y2="917.70" class="down-wick"/>
<rect x="1051.59" y="909.86" width="4.83" height="3.04" class="down-body"/>
<line x1="1061.43" y1="899.27" x2="1061.43" y2="906.53" class="up-wick"/>
<rect x="1059.02" y="901.09" width="4.83" height="3.92" class="up-body"/>
<line x1="1068.86" y1="895.06" x2="1068.86" y2="903.34" class="down-wick"/>
<rect x="1066.45" y="898.15" width="4.83" height="4.80" class="down-body"/>
<line x1="1076.29" y1="897.66" x2="1076.29" y2="908.39" class="down-wick"/>
<rect x="1073.87" y="901.38" width="4.83" height="7.01" class="down-body"/>
<line x1="70" y1="916.23" x2="1080" y2="916.23" class="sweep-line"/>
<text x="1076" y="912.23" text-anchor="end" class="level-label">sweep 5175.01</text>
<line x1="70" y1="938.08" x2="1080" y2="938.08" class="entry-line"/>
<text x="1076" y="934.08" text-anchor="end" class="level-label">entry level 5170.55</text>
<text x="70" y="1056" class="axis-label">2026-03-10 03:30:00+00:00 to 2026-03-10 08:00:00+00:00</text>
<text x="1080" y="1056" text-anchor="end" class="axis-label">5150.16 - 5189.34</text>
</svg>