<svg xmlns="http://www.w3.org/2000/svg" width="1120" height="1054" viewBox="0 0 1120 1054">
<style>
text{font-family:Arial,Helvetica,sans-serif}.title{font-size:21px;font-weight:700;fill:#1f2937}.subtitle{font-size:12px;fill:#4b5563}.panel-title{font-size:15px;font-weight:700;fill:#111827}.muted{font-size:13px;fill:#6b7280}.plot-bg{fill:#f8fafc;stroke:#cbd5e1;stroke-width:1}.up-body{fill:#15803d;stroke:#14532d;stroke-width:.8}.down-body{fill:#b91c1c;stroke:#7f1d1d;stroke-width:.8}.up-wick{stroke:#14532d;stroke-width:1}.down-wick{stroke:#7f1d1d;stroke-width:1}.sweep-line{stroke:#7c3aed;stroke-width:1.6;stroke-dasharray:6 4}.number-line{stroke:#0f766e;stroke-width:1.4;stroke-dasharray:3 4}.entry-line{stroke:#2563eb;stroke-width:1.4}.sl-line{stroke:#dc2626;stroke-width:1.4}.tp-line{stroke:#16a34a;stroke-width:1.4}.level-label,.axis-label{font-size:11px;fill:#374151}
</style>
<text x="28" y="28" class="title">Adelin v2 visual review sample sample_078</text>
<text x="28" y="48" class="subtitle">Candidate windows are for visual labeling only and are not trade signals.</text>
<text x="560" y="48" class="subtitle" text-anchor="middle">NUMBER_THEORY_LEVEL_NEAR | LARGE_LOWER_WICK_REVERSAL_VISUAL_CANDIDATE | ROUND_LEVEL_ENTRY_METADATA_AVAILABLE</text>
<text x="70" y="82" class="panel-title">H1 liquidity context</text>
<rect x="70" y="96" width="1010" height="192" class="plot-bg"/>
<line x1="81.48" y1="141.74" x2="81.48" y2="185.81" class="up-wick"/>
<rect x="77.48" y="144.84" width="8.00" height="36.11" class="up-body"/>
<line x1="104.43" y1="109.24" x2="104.43" y2="145.83" class="up-wick"/>
<rect x="100.43" y="138.42" width="8.00" height="6.45" class="up-body"/>
<line x1="127.39" y1="121.56" x2="127.39" y2="151.89" class="up-wick"/>
<rect x="123.39" y="126.82" width="8.00" height="11.59" class="up-body"/>
<line x1="150.34" y1="119.70" x2="150.34" y2="136.46" class="down-wick"/>
<rect x="146.34" y="126.82" width="8.00" height="4.45" class="down-body"/>
<line x1="173.30" y1="127.31" x2="173.30" y2="143.90" class="down-wick"/>
<rect x="169.30" y="131.27" width="8.00" height="9.85" class="down-body"/>
<line x1="196.25" y1="139.86" x2="196.25" y2="157.62" class="down-wick"/>
<rect x="192.25" y="141.12" width="8.00" height="5.40" class="down-body"/>
<line x1="219.20" y1="142.99" x2="219.20" y2="162.75" class="down-wick"/>
<rect x="215.20" y="146.50" width="8.00" height="14.05" class="down-body"/>
<line x1="242.16" y1="141.23" x2="242.16" y2="158.72" class="down-wick"/>
<rect x="238.16" y="143.58" width="8.00" height="8.67" class="down-body"/>
<line x1="265.11" y1="150.12" x2="265.11" y2="160.05" class="down-wick"/>
<rect x="261.11" y="152.25" width="8.00" height="5.12" class="down-body"/>
<line x1="288.07" y1="154.58" x2="288.07" y2="169.80" class="down-wick"/>
<rect x="284.07" y="157.36" width="8.00" height="1.00" class="down-body"/>
<line x1="311.02" y1="157.22" x2="311.02" y2="179.45" class="up-wick"/>
<rect x="307.02" y="158.17" width="8.00" height="1.00" class="up-body"/>
<line x1="333.98" y1="152.37" x2="333.98" y2="181.01" class="down-wick"/>
<rect x="329.98" y="158.17" width="8.00" height="7.50" class="down-body"/>
<line x1="356.93" y1="153.92" x2="356.93" y2="173.39" class="up-wick"/>
<rect x="352.93" y="156.20" width="8.00" height="9.47" class="up-body"/>
<line x1="379.89" y1="155.78" x2="379.89" y2="166.44" class="down-wick"/>
<rect x="375.89" y="156.14" width="8.00" height="9.47" class="down-body"/>
<line x1="402.84" y1="158.08" x2="402.84" y2="179.77" class="down-wick"/>
<rect x="398.84" y="165.59" width="8.00" height="7.17" class="down-body"/>
<line x1="425.80" y1="171.03" x2="425.80" y2="188.77" class="down-wick"/>
<rect x="421.80" y="172.76" width="8.00" height="10.85" class="down-body"/>
<line x1="448.75" y1="178.66" x2="448.75" y2="194.75" class="down-wick"/>
<rect x="444.75" y="183.61" width="8.00" height="10.07" class="down-body"/>
<line x1="471.70" y1="191.13" x2="471.70" y2="199.02" class="down-wick"/>
<rect x="467.70" y="193.67" width="8.00" height="2.03" class="down-body"/>
<line x1="494.66" y1="187.88" x2="494.66" y2="200.57" class="down-wick"/>
<rect x="490.66" y="195.77" width="8.00" height="1.58" class="down-body"/>
<line x1="517.61" y1="196.91" x2="517.61" y2="247.41" class="down-wick"/>
<rect x="513.61" y="197.36" width="8.00" height="13.27" class="down-body"/>
<line x1="540.57" y1="202.17" x2="540.57" y2="222.30" class="down-wick"/>
<rect x="536.57" y="210.62" width="8.00" height="2.10" class="down-body"/>
<line x1="563.52" y1="193.30" x2="563.52" y2="214.18" class="up-wick"/>
<rect x="559.52" y="204.72" width="8.00" height="8.01" class="up-body"/>
<line x1="586.48" y1="197.14" x2="586.48" y2="218.02" class="down-wick"/>
<rect x="582.48" y="204.72" width="8.00" height="4.44" class="down-body"/>
<line x1="609.43" y1="189.19" x2="609.43" y2="220.06" class="down-wick"/>
<rect x="605.43" y="209.16" width="8.00" height="2.67" class="down-body"/>
<line x1="632.39" y1="207.07" x2="632.39" y2="262.73" class="down-wick"/>
<rect x="628.39" y="211.83" width="8.00" height="41.52" class="down-body"/>
<line x1="655.34" y1="247.83" x2="655.34" y2="274.76" class="down-wick"/>
<rect x="651.34" y="253.35" width="8.00" height="11.28" class="down-body"/>
<line x1="678.30" y1="242.84" x2="678.30" y2="264.66" class="up-wick"/>
<rect x="674.30" y="252.48" width="8.00" height="12.16" class="up-body"/>
<line x1="701.25" y1="249.34" x2="701.25" y2="265.54" class="down-wick"/>
<rect x="697.25" y="252.48" width="8.00" height="6.32" class="down-body"/>
<line x1="724.20" y1="247.55" x2="724.20" y2="263.99" class="up-wick"/>
<rect x="720.20" y="257.26" width="8.00" height="1.54" class="up-body"/>
<line x1="747.16" y1="250.49" x2="747.16" y2="259.47" class="down-wick"/>
<rect x="743.16" y="251.35" width="8.00" height="6.20" class="down-body"/>
<line x1="770.11" y1="253.28" x2="770.11" y2="258.91" class="up-wick"/>
<rect x="766.11" y="256.01" width="8.00" height="1.54" class="up-body"/>
<line x1="793.07" y1="244.06" x2="793.07" y2="261.64" class="up-wick"/>
<rect x="789.07" y="244.55" width="8.00" height="11.46" class="up-body"/>
<line x1="816.02" y1="232.01" x2="816.02" y2="249.30" class="up-wick"/>
<rect x="812.02" y="233.26" width="8.00" height="11.42" class="up-body"/>
<line x1="838.98" y1="227.23" x2="838.98" y2="239.76" class="down-wick"/>
<rect x="834.98" y="233.26" width="8.00" height="1.92" class="down-body"/>
<line x1="861.93" y1="231.35" x2="861.93" y2="242.15" class="down-wick"/>
<rect x="857.93" y="235.18" width="8.00" height="4.66" class="down-body"/>
<line x1="884.89" y1="237.71" x2="884.89" y2="246.67" class="down-wick"/>
<rect x="880.89" y="239.84" width="8.00" height="1.00" class="down-body"/>
<line x1="907.84" y1="221.96" x2="907.84" y2="243.07" class="up-wick"/>
<rect x="903.84" y="228.30" width="8.00" height="12.42" class="up-body"/>
<line x1="930.80" y1="221.70" x2="930.80" y2="240.74" class="up-wick"/>
<rect x="926.80" y="225.77" width="8.00" height="2.51" class="up-body"/>
<line x1="953.75" y1="215.15" x2="953.75" y2="230.73" class="down-wick"/>
<rect x="949.75" y="225.77" width="8.00" height="2.67" class="down-body"/>
<line x1="976.70" y1="213.71" x2="976.70" y2="228.52" class="up-wick"/>
<rect x="972.70" y="214.91" width="8.00" height="13.54" class="up-body"/>
<line x1="999.66" y1="212.92" x2="999.66" y2="222.73" class="down-wick"/>
<rect x="995.66" y="214.91" width="8.00" height="2.36" class="down-body"/>
<line x1="1022.61" y1="216.61" x2="1022.61" y2="233.96" class="down-wick"/>
<rect x="1018.61" y="217.29" width="8.00" height="13.00" class="down-body"/>
<line x1="1045.57" y1="208.23" x2="1045.57" y2="234.37" class="up-wick"/>
<rect x="1041.57" y="210.48" width="8.00" height="19.80" class="up-body"/>
<line x1="1068.52" y1="198.19" x2="1068.52" y2="219.45" class="up-wick"/>
<rect x="1064.52" y="208.66" width="8.00" height="1.81" class="up-body"/>
<line x1="70" y1="202.99" x2="1080" y2="202.99" class="number-line"/>
<text x="1076" y="198.99" text-anchor="end" class="level-label">round 4570.00</text>
<line x1="70" y1="202.99" x2="1080" y2="202.99" class="entry-line"/>
<text x="1076" y="198.99" text-anchor="end" class="level-label">entry level 4570.00</text>
<text x="70" y="306" class="axis-label">2026-05-01 16:00:00+00:00 to 2026-05-05 15:00:00+00:00</text>
<text x="1080" y="306" text-anchor="end" class="axis-label">4488.25 - 4672.89</text>
<text x="70" y="332" class="panel-title">M15 liquidity / reaction context</text>
<rect x="70" y="346" width="1010" height="192" class="plot-bg"/>
<line x1="76.92" y1="371.35" x2="76.92" y2="378.39" class="down-wick"/>
<rect x="72.92" y="377.26" width="8.00" height="1.00" class="down-body"/>
<line x1="90.75" y1="366.61" x2="90.75" y2="378.69" class="up-wick"/>
<rect x="86.75" y="367.19" width="8.00" height="10.17" class="up-body"/>
<line x1="104.59" y1="365.79" x2="104.59" y2="391.19" class="down-wick"/>
<rect x="100.59" y="367.19" width="8.00" height="17.47" class="down-body"/>
<line x1="118.42" y1="379.18" x2="118.42" y2="393.72" class="down-wick"/>
<rect x="114.42" y="384.58" width="8.00" height="8.51" class="down-body"/>
<line x1="132.26" y1="383.26" x2="132.26" y2="395.86" class="up-wick"/>
<rect x="128.26" y="383.42" width="8.00" height="9.68" class="up-body"/>
<line x1="146.10" y1="366.08" x2="146.10" y2="384.12" class="up-wick"/>
<rect x="142.10" y="367.09" width="8.00" height="16.33" class="up-body"/>
<line x1="159.93" y1="359.24" x2="159.93" y2="380.50" class="down-wick"/>
<rect x="155.93" y="367.09" width="8.00" height="6.64" class="down-body"/>
<line x1="173.77" y1="373.73" x2="173.77" y2="397.51" class="down-wick"/>
<rect x="169.77" y="373.73" width="8.00" height="21.43" class="down-body"/>
<line x1="187.60" y1="379.90" x2="187.60" y2="397.97" class="up-wick"/>
<rect x="183.60" y="379.90" width="8.00" height="15.26" class="up-body"/>
<line x1="201.44" y1="369.87" x2="201.44" y2="383.84" class="up-wick"/>
<rect x="197.44" y="377.23" width="8.00" height="2.67" class="up-body"/>
<line x1="215.27" y1="368.97" x2="215.27" y2="379.24" class="up-wick"/>
<rect x="211.27" y="371.41" width="8.00" height="5.82" class="up-body"/>
<line x1="229.11" y1="370.04" x2="229.11" y2="373.91" class="down-wick"/>
<rect x="225.11" y="371.41" width="8.00" height="1.00" class="down-body"/>
<line x1="242.95" y1="369.77" x2="242.95" y2="387.66" class="down-wick"/>
<rect x="238.95" y="371.70" width="8.00" height="6.83" class="down-body"/>
<line x1="256.78" y1="361.34" x2="256.78" y2="378.48" class="up-wick"/>
<rect x="252.78" y="364.42" width="8.00" height="14.06" class="up-body"/>
<line x1="270.62" y1="363.85" x2="270.62" y2="374.51" class="down-wick"/>
<rect x="266.62" y="364.33" width="8.00" height="5.47" class="down-body"/>
<line x1="284.45" y1="367.03" x2="284.45" y2="375.53" class="down-wick"/>
<rect x="280.45" y="369.77" width="8.00" height="4.46" class="down-body"/>
<line x1="298.29" y1="367.21" x2="298.29" y2="375.46" class="up-wick"/>
<rect x="294.29" y="372.57" width="8.00" height="1.70" class="up-body"/>
<line x1="312.12" y1="370.79" x2="312.12" y2="378.27" class="down-wick"/>
<rect x="308.12" y="372.57" width="8.00" height="4.57" class="down-body"/>
<line x1="325.96" y1="375.93" x2="325.96" y2="382.77" class="down-wick"/>
<rect x="321.96" y="377.11" width="8.00" height="2.94" class="down-body"/>
<line x1="339.79" y1="366.96" x2="339.79" y2="391.59" class="down-wick"/>
<rect x="335.79" y="380.05" width="8.00" height="10.36" class="down-body"/>
<line x1="353.63" y1="386.52" x2="353.63" y2="396.30" class="up-wick"/>
<rect x="349.63" y="386.71" width="8.00" height="3.71" class="up-body"/>
<line x1="367.47" y1="382.63" x2="367.47" y2="393.36" class="down-wick"/>
<rect x="363.47" y="386.71" width="8.00" height="1.00" class="down-body"/>
<line x1="381.30" y1="384.47" x2="381.30" y2="402.72" class="down-wick"/>
<rect x="377.30" y="386.82" width="8.00" height="2.18" class="down-body"/>
<line x1="395.14" y1="388.48" x2="395.14" y2="400.87" class="down-wick"/>
<rect x="391.14" y="389.01" width="8.00" height="5.08" class="down-body"/>
<line x1="408.97" y1="391.71" x2="408.97" y2="407.56" class="down-wick"/>
<rect x="404.97" y="394.09" width="8.00" height="11.85" class="down-body"/>
<line x1="422.81" y1="396.17" x2="422.81" y2="408.46" class="up-wick"/>
<rect x="418.81" y="401.49" width="8.00" height="4.47" class="up-body"/>
<line x1="436.64" y1="394.79" x2="436.64" y2="405.87" class="up-wick"/>
<rect x="432.64" y="396.52" width="8.00" height="4.96" class="up-body"/>
<line x1="450.48" y1="395.71" x2="450.48" y2="409.08" class="down-wick"/>
<rect x="446.48" y="396.72" width="8.00" height="8.70" class="down-body"/>
<line x1="464.32" y1="402.12" x2="464.32" y2="409.98" class="up-wick"/>
<rect x="460.32" y="402.37" width="8.00" height="3.05" class="up-body"/>
<line x1="478.15" y1="398.36" x2="478.15" y2="416.55" class="down-wick"/>
<rect x="474.15" y="402.37" width="8.00" height="12.73" class="down-body"/>
<line x1="491.99" y1="412.19" x2="491.99" y2="421.79" class="up-wick"/>
<rect x="487.99" y="413.44" width="8.00" height="1.66" class="up-body"/>
<line x1="505.82" y1="411.85" x2="505.82" y2="421.71" class="down-wick"/>
<rect x="501.82" y="413.42" width="8.00" height="7.17" class="down-body"/>
<line x1="519.66" y1="411.65" x2="519.66" y2="422.33" class="up-wick"/>
<rect x="515.66" y="416.32" width="8.00" height="4.32" class="up-body"/>
<line x1="533.49" y1="414.09" x2="533.49" y2="419.49" class="down-wick"/>
<rect x="529.49" y="416.32" width="8.00" height="1.52" class="down-body"/>
<line x1="547.33" y1="407.50" x2="547.33" y2="418.91" class="up-wick"/>
<rect x="543.33" y="407.87" width="8.00" height="10.07" class="up-body"/>
<line x1="561.16" y1="407.27" x2="561.16" y2="413.05" class="down-wick"/>
<rect x="557.16" y="407.87" width="8.00" height="3.90" class="down-body"/>
<line x1="575.00" y1="407.27" x2="575.00" y2="412.97" class="up-wick"/>
<rect x="571.00" y="411.70" width="8.00" height="1.00" class="up-body"/>
<line x1="588.84" y1="410.39" x2="588.84" y2="424.42" class="down-wick"/>
<rect x="584.84" y="411.70" width="8.00" height="8.38" class="down-body"/>
<line x1="602.67" y1="419.47" x2="602.67" y2="473.36" class="down-wick"/>
<rect x="598.67" y="420.08" width="8.00" height="46.66" class="down-body"/>
<line x1="616.51" y1="462.48" x2="616.51" y2="487.77" class="up-wick"/>
<rect x="612.51" y="462.87" width="8.00" height="3.84" class="up-body"/>
<line x1="630.34" y1="436.23" x2="630.34" y2="465.47" class="up-wick"/>
<rect x="626.34" y="443.74" width="8.00" height="19.13" class="up-body"/>
<line x1="644.18" y1="432.06" x2="644.18" y2="444.14" class="up-wick"/>
<rect x="640.18" y="438.02" width="8.00" height="5.77" class="up-body"/>
<line x1="658.01" y1="426.59" x2="658.01" y2="439.85" class="up-wick"/>
<rect x="654.01" y="434.18" width="8.00" height="3.84" class="up-body"/>
<line x1="671.85" y1="427.64" x2="671.85" y2="439.24" class="down-wick"/>
<rect x="667.85" y="434.18" width="8.00" height="4.39" class="down-body"/>
<line x1="685.68" y1="437.95" x2="685.68" y2="453.81" class="down-wick"/>
<rect x="681.68" y="438.60" width="8.00" height="12.36" class="down-body"/>
<line x1="699.52" y1="437.18" x2="699.52" y2="451.44" class="up-wick"/>
<rect x="695.52" y="440.86" width="8.00" height="10.10" class="up-body"/>
<line x1="713.36" y1="433.52" x2="713.36" y2="442.83" class="up-wick"/>
<rect x="709.36" y="436.43" width="8.00" height="4.43" class="up-body"/>
<line x1="727.19" y1="414.59" x2="727.19" y2="437.04" class="up-wick"/>
<rect x="723.19" y="429.77" width="8.00" height="6.71" class="up-body"/>
<line x1="741.03" y1="425.38" x2="741.03" y2="440.07" class="up-wick"/>
<rect x="737.03" y="427.57" width="8.00" height="2.25" class="up-body"/>
<line x1="754.86" y1="419.26" x2="754.86" y2="432.58" class="down-wick"/>
<rect x="750.86" y="427.56" width="8.00" height="2.48" class="down-body"/>
<line x1="768.70" y1="419.78" x2="768.70" y2="445.64" class="down-wick"/>
<rect x="764.70" y="430.03" width="8.00" height="3.42" class="down-body"/>
<line x1="782.53" y1="430.81" x2="782.53" y2="440.26" class="down-wick"/>
<rect x="778.53" y="433.44" width="8.00" height="6.82" class="down-body"/>
<line x1="796.37" y1="426.38" x2="796.37" y2="448.02" class="up-wick"/>
<rect x="792.37" y="434.10" width="8.00" height="6.16" class="up-body"/>
<line x1="810.21" y1="432.23" x2="810.21" y2="445.28" class="down-wick"/>
<rect x="806.21" y="434.11" width="8.00" height="1.93" class="down-body"/>
<line x1="824.04" y1="433.97" x2="824.04" y2="450.79" class="down-wick"/>
<rect x="820.04" y="436.04" width="8.00" height="5.44" class="down-body"/>
<line x1="837.88" y1="410.43" x2="837.88" y2="442.44" class="up-wick"/>
<rect x="833.88" y="425.67" width="8.00" height="15.81" class="up-body"/>
<line x1="851.71" y1="409.04" x2="851.71" y2="427.04" class="up-wick"/>
<rect x="847.71" y="421.40" width="8.00" height="4.28" class="up-body"/>
<line x1="865.55" y1="417.94" x2="865.55" y2="442.35" class="down-wick"/>
<rect x="861.55" y="421.40" width="8.00" height="18.25" class="down-body"/>
<line x1="879.38" y1="433.21" x2="879.38" y2="458.41" class="down-wick"/>
<rect x="875.38" y="439.65" width="8.00" height="18.48" class="down-body"/>
<line x1="893.22" y1="447.86" x2="893.22" y2="506.04" class="down-wick"/>
<rect x="889.22" y="458.13" width="8.00" height="16.17" class="down-body"/>
<line x1="907.05" y1="465.82" x2="907.05" y2="487.38" class="down-wick"/>
<rect x="903.05" y="474.16" width="8.00" height="2.71" class="down-body"/>
<line x1="920.89" y1="476.88" x2="920.89" y2="508.49" class="down-wick"/>
<rect x="916.89" y="476.88" width="8.00" height="18.93" class="down-body"/>
<line x1="934.73" y1="490.35" x2="934.73" y2="524.76" class="down-wick"/>
<rect x="930.73" y="495.80" width="8.00" height="16.69" class="down-body"/>
<line x1="948.56" y1="488.34" x2="948.56" y2="514.06" class="up-wick"/>
<rect x="944.56" y="505.23" width="8.00" height="7.27" class="up-body"/>
<line x1="962.40" y1="499.47" x2="962.40" y2="510.16" class="down-wick"/>
<rect x="958.40" y="505.23" width="8.00" height="3.23" class="down-body"/>
<line x1="976.23" y1="503.54" x2="976.23" y2="515.60" class="down-wick"/>
<rect x="972.23" y="508.46" width="8.00" height="2.60" class="down-body"/>
<line x1="990.07" y1="489.38" x2="990.07" y2="511.10" class="up-wick"/>
<rect x="986.07" y="494.64" width="8.00" height="16.43" class="up-body"/>
<line x1="1003.90" y1="481.59" x2="1003.90" y2="495.63" class="up-wick"/>
<rect x="999.90" y="491.81" width="8.00" height="2.76" class="up-body"/>
<line x1="1017.74" y1="487.30" x2="1017.74" y2="495.68" class="up-wick"/>
<rect x="1013.74" y="489.39" width="8.00" height="2.42" class="up-body"/>
<line x1="1031.58" y1="488.56" x2="1031.58" y2="495.78" class="down-wick"/>
<rect x="1027.58" y="489.39" width="8.00" height="5.23" class="down-body"/>
<line x1="1045.41" y1="490.38" x2="1045.41" y2="499.97" class="down-wick"/>
<rect x="1041.41" y="494.62" width="8.00" height="3.45" class="down-body"/>
<line x1="1059.25" y1="497.63" x2="1059.25" y2="512.29" class="down-wick"/>
<rect x="1055.25" y="498.03" width="8.00" height="11.33" class="down-body"/>
<line x1="1073.08" y1="505.06" x2="1073.08" y2="511.22" class="down-wick"/>
<rect x="1069.08" y="509.36" width="8.00" height="1.00" class="down-body"/>
<line x1="70" y1="427.70" x2="1080" y2="427.70" class="number-line"/>
<text x="1076" y="423.70" text-anchor="end" class="level-label">round 4570.00</text>
<line x1="70" y1="427.70" x2="1080" y2="427.70" class="entry-line"/>
<text x="1076" y="423.70" text-anchor="end" class="level-label">entry level 4570.00</text>
<text x="70" y="556" class="axis-label">2026-05-04 03:30:00+00:00 to 2026-05-04 21:30:00+00:00</text>
<text x="1080" y="556" text-anchor="end" class="axis-label">4491.56 - 4628.10</text>
<text x="70" y="582" class="panel-title">M5 reaction / execution context</text>
<rect x="70" y="596" width="1010" height="192" class="plot-bg"/>
<line x1="79.18" y1="639.19" x2="79.18" y2="659.08" class="up-wick"/>
<rect x="75.18" y="658.60" width="8.00" height="1.00" class="up-body"/>
<line x1="97.55" y1="646.43" x2="97.55" y2="661.81" class="up-wick"/>
<rect x="93.55" y="648.67" width="8.00" height="10.01" class="up-body"/>
<line x1="115.91" y1="646.03" x2="115.91" y2="656.25" class="down-wick"/>
<rect x="111.91" y="648.67" width="8.00" height="3.48" class="down-body"/>
<line x1="134.27" y1="640.99" x2="134.27" y2="652.14" class="up-wick"/>
<rect x="130.27" y="643.91" width="8.00" height="8.23" class="up-body"/>
<line x1="152.64" y1="643.48" x2="152.64" y2="655.36" class="down-wick"/>
<rect x="148.64" y="643.91" width="8.00" height="10.80" class="down-body"/>
<line x1="171.00" y1="652.50" x2="171.00" y2="660.78" class="down-wick"/>
<rect x="167.00" y="654.71" width="8.00" height="4.92" class="down-body"/>
<line x1="189.36" y1="658.58" x2="189.36" y2="672.83" class="down-wick"/>
<rect x="185.36" y="659.68" width="8.00" height="13.15" class="down-body"/>
<line x1="207.73" y1="664.00" x2="207.73" y2="685.64" class="down-wick"/>
<rect x="203.73" y="672.83" width="8.00" height="6.84" class="down-body"/>
<line x1="226.09" y1="671.12" x2="226.09" y2="681.30" class="down-wick"/>
<rect x="222.09" y="679.67" width="8.00" height="1.10" class="down-body"/>
<line x1="244.45" y1="669.59" x2="244.45" y2="681.59" class="up-wick"/>
<rect x="240.45" y="675.18" width="8.00" height="5.59" class="up-body"/>
<line x1="262.82" y1="665.41" x2="262.82" y2="676.09" class="up-wick"/>
<rect x="258.82" y="667.62" width="8.00" height="7.51" class="up-body"/>
<line x1="281.18" y1="657.26" x2="281.18" y2="669.88" class="up-wick"/>
<rect x="277.18" y="663.54" width="8.00" height="4.08" class="up-body"/>
<line x1="299.55" y1="655.86" x2="299.55" y2="666.90" class="up-wick"/>
<rect x="295.55" y="658.12" width="8.00" height="5.42" class="up-body"/>
<line x1="317.91" y1="657.09" x2="317.91" y2="666.30" class="down-wick"/>
<rect x="313.91" y="658.12" width="8.00" height="5.40" class="down-body"/>
<line x1="336.27" y1="651.02" x2="336.27" y2="664.84" class="up-wick"/>
<rect x="332.27" y="655.98" width="8.00" height="7.53" class="up-body"/>
<line x1="354.64" y1="629.78" x2="354.64" y2="657.02" class="up-wick"/>
<rect x="350.64" y="633.00" width="8.00" height="23.06" class="up-body"/>
<line x1="373.00" y1="618.72" x2="373.00" y2="636.04" class="down-wick"/>
<rect x="369.00" y="633.00" width="8.00" height="2.42" class="down-body"/>
<line x1="391.36" y1="634.27" x2="391.36" y2="651.64" class="down-wick"/>
<rect x="387.36" y="635.42" width="8.00" height="9.19" class="down-body"/>
<line x1="409.73" y1="640.24" x2="409.73" y2="653.15" class="down-wick"/>
<rect x="405.73" y="644.71" width="8.00" height="5.90" class="down-body"/>
<line x1="428.09" y1="641.44" x2="428.09" y2="662.20" class="up-wick"/>
<rect x="424.09" y="644.80" width="8.00" height="5.81" class="up-body"/>
<line x1="446.45" y1="637.12" x2="446.45" y2="646.65" class="up-wick"/>
<rect x="442.45" y="640.87" width="8.00" height="3.94" class="up-body"/>
<line x1="464.82" y1="634.24" x2="464.82" y2="649.41" class="up-wick"/>
<rect x="460.82" y="639.57" width="8.00" height="1.27" class="up-body"/>
<line x1="483.18" y1="626.69" x2="483.18" y2="640.60" class="up-wick"/>
<rect x="479.18" y="636.19" width="8.00" height="3.38" class="up-body"/>
<line x1="501.55" y1="632.37" x2="501.55" y2="645.95" class="down-wick"/>
<rect x="497.55" y="636.21" width="8.00" height="8.85" class="down-body"/>
<line x1="519.91" y1="643.96" x2="519.91" y2="671.70" class="down-wick"/>
<rect x="515.91" y="645.07" width="8.00" height="6.55" class="down-body"/>
<line x1="538.27" y1="633.16" x2="538.27" y2="655.34" class="up-wick"/>
<rect x="534.27" y="635.28" width="8.00" height="16.34" class="up-body"/>
<line x1="556.64" y1="627.57" x2="556.64" y2="657.11" class="down-wick"/>
<rect x="552.64" y="635.28" width="8.00" height="15.62" class="down-body"/>
<line x1="575.00" y1="646.39" x2="575.00" y2="656.34" class="down-wick"/>
<rect x="571.00" y="650.87" width="8.00" height="2.81" class="down-body"/>
<line x1="593.36" y1="647.87" x2="593.36" y2="660.83" class="down-wick"/>
<rect x="589.36" y="653.68" width="8.00" height="5.09" class="down-body"/>
<line x1="611.73" y1="652.07" x2="611.73" y2="662.51" class="down-wick"/>
<rect x="607.73" y="658.77" width="8.00" height="3.74" class="down-body"/>
<line x1="630.09" y1="638.95" x2="630.09" y2="675.76" class="up-wick"/>
<rect x="626.09" y="641.42" width="8.00" height="21.09" class="up-body"/>
<line x1="648.45" y1="638.83" x2="648.45" y2="655.46" class="down-wick"/>
<rect x="644.45" y="641.49" width="8.00" height="7.27" class="down-body"/>
<line x1="666.82" y1="639.24" x2="666.82" y2="658.46" class="down-wick"/>
<rect x="662.82" y="648.76" width="8.00" height="3.24" class="down-body"/>
<line x1="685.18" y1="648.81" x2="685.18" y2="661.77" class="down-wick"/>
<rect x="681.18" y="652.02" width="8.00" height="9.41" class="down-body"/>
<line x1="703.55" y1="651.64" x2="703.55" y2="671.08" class="up-wick"/>
<rect x="699.55" y="657.38" width="8.00" height="4.06" class="up-body"/>
<line x1="721.91" y1="650.18" x2="721.91" y2="664.91" class="up-wick"/>
<rect x="717.91" y="655.31" width="8.00" height="2.09" class="up-body"/>
<line x1="740.27" y1="651.78" x2="740.27" y2="666.66" class="down-wick"/>
<rect x="736.27" y="655.31" width="8.00" height="9.31" class="down-body"/>
<line x1="758.64" y1="661.98" x2="758.64" y2="680.48" class="down-wick"/>
<rect x="754.64" y="664.62" width="8.00" height="12.29" class="down-body"/>
<line x1="777.00" y1="657.76" x2="777.00" y2="680.15" class="up-wick"/>
<rect x="773.00" y="664.60" width="8.00" height="12.33" class="up-body"/>
<line x1="795.36" y1="631.63" x2="795.36" y2="666.23" class="up-wick"/>
<rect x="791.36" y="634.17" width="8.00" height="30.43" class="up-body"/>
<line x1="813.73" y1="611.62" x2="813.73" y2="635.42" class="up-wick"/>
<rect x="809.73" y="624.33" width="8.00" height="9.84" class="up-body"/>
<line x1="832.09" y1="623.16" x2="832.09" y2="639.60" class="down-wick"/>
<rect x="828.09" y="624.33" width="8.00" height="13.29" class="down-body"/>
<line x1="850.45" y1="618.74" x2="850.45" y2="639.95" class="up-wick"/>
<rect x="846.45" y="626.95" width="8.00" height="10.68" class="up-body"/>
<line x1="868.82" y1="613.32" x2="868.82" y2="628.34" class="up-wick"/>
<rect x="864.82" y="617.81" width="8.00" height="9.14" class="up-body"/>
<line x1="887.18" y1="609.24" x2="887.18" y2="630.48" class="down-wick"/>
<rect x="883.18" y="617.78" width="8.00" height="12.55" class="down-body"/>
<line x1="905.55" y1="624.43" x2="905.55" y2="642.79" class="down-wick"/>
<rect x="901.55" y="630.33" width="8.00" height="8.59" class="down-body"/>
<line x1="923.91" y1="637.29" x2="923.91" y2="647.75" class="down-wick"/>
<rect x="919.91" y="638.92" width="8.00" height="1.63" class="down-body"/>
<line x1="942.27" y1="635.35" x2="942.27" y2="666.09" class="down-wick"/>
<rect x="938.27" y="640.55" width="8.00" height="20.92" class="down-body"/>
<line x1="960.64" y1="650.49" x2="960.64" y2="677.58" class="down-wick"/>
<rect x="956.64" y="661.48" width="8.00" height="1.00" class="down-body"/>
<line x1="979.00" y1="660.59" x2="979.00" y2="676.04" class="down-wick"/>
<rect x="975.00" y="661.98" width="8.00" height="8.01" class="down-body"/>
<line x1="997.36" y1="665.29" x2="997.36" y2="693.49" class="down-wick"/>
<rect x="993.36" y="670.00" width="8.00" height="23.01" class="down-body"/>
<line x1="1015.73" y1="675.49" x2="1015.73" y2="718.20" class="down-wick"/>
<rect x="1011.73" y="693.01" width="8.00" height="18.38" class="down-body"/>
<line x1="1034.09" y1="709.66" x2="1034.09" y2="774.76" class="down-wick"/>
<rect x="1030.09" y="711.39" width="8.00" height="45.30" class="down-body"/>
<line x1="1052.45" y1="713.52" x2="1052.45" y2="771.71" class="up-wick"/>
<rect x="1048.45" y="720.60" width="8.00" height="36.09" class="up-body"/>
<line x1="1070.82" y1="715.61" x2="1070.82" y2="742.92" class="down-wick"/>
<rect x="1066.82" y="720.36" width="8.00" height="4.42" class="down-body"/>
<line x1="70" y1="641.08" x2="1080" y2="641.08" class="number-line"/>
<text x="1076" y="637.08" text-anchor="end" class="level-label">round 4570.00</text>
<line x1="70" y1="641.08" x2="1080" y2="641.08" class="entry-line"/>
<text x="1076" y="637.08" text-anchor="end" class="level-label">entry level 4570.00</text>
<text x="70" y="806" class="axis-label">2026-05-04 14:00:00+00:00 to 2026-05-04 18:30:00+00:00</text>
<text x="1080" y="806" text-anchor="end" class="axis-label">4508.77 - 4588.79</text>
<text x="70" y="832" class="panel-title">M1 execution window</text>
<rect x="70" y="846" width="1010" height="192" class="plot-bg"/>
<line x1="73.71" y1="899.30" x2="73.71" y2="908.83" class="up-wick"/>
<rect x="71.30" y="900.53" width="4.83" height="8.30" class="up-body"/>
<line x1="81.14" y1="889.27" x2="81.14" y2="898.87" class="up-wick"/>
<rect x="78.73" y="896.78" width="4.83" height="2.09" class="up-body"/>
<line x1="88.57" y1="899.33" x2="88.57" y2="909.22" class="down-wick"/>
<rect x="86.15" y="899.71" width="4.83" height="9.02" class="down-body"/>
<line x1="95.99" y1="901.47" x2="95.99" y2="910.88" class="up-wick"/>
<rect x="93.58" y="901.47" width="4.83" height="7.96" class="up-body"/>
<line x1="103.42" y1="898.10" x2="103.42" y2="905.68" class="up-wick"/>
<rect x="101.01" y="902.07" width="4.83" height="1.00" class="up-body"/>
<line x1="110.85" y1="898.00" x2="110.85" y2="901.66" class="up-wick"/>
<rect x="108.43" y="898.75" width="4.83" height="1.00" class="up-body"/>
<line x1="118.27" y1="900.96" x2="118.27" y2="905.58" class="up-wick"/>
<rect x="115.86" y="902.72" width="4.83" height="1.47" class="up-body"/>
<line x1="125.70" y1="896.13" x2="125.70" y2="905.20" class="up-wick"/>
<rect x="123.28" y="902.26" width="4.83" height="2.65" class="up-body"/>
<line x1="133.12" y1="896.37" x2="133.12" y2="900.84" class="up-wick"/>
<rect x="130.71" y="899.09" width="4.83" height="1.00" class="up-body"/>
<line x1="140.55" y1="891.07" x2="140.55" y2="896.51" class="up-wick"/>
<rect x="138.14" y="892.73" width="4.83" height="1.80" class="up-body"/>
<line x1="147.98" y1="893.58" x2="147.98" y2="898.99" class="down-wick"/>
<rect x="145.56" y="894.01" width="4.83" height="1.85" class="down-body"/>
<line x1="155.40" y1="902.09" x2="155.40" y2="905.49" class="down-wick"/>
<rect x="152.99" y="903.35" width="4.83" height="1.00" class="down-body"/>
<line x1="162.83" y1="899.16" x2="162.83" y2="904.84" class="down-wick"/>
<rect x="160.42" y="899.16" width="4.83" height="5.68" class="down-body"/>
<line x1="170.26" y1="903.01" x2="170.26" y2="907.29" class="down-wick"/>
<rect x="167.84" y="904.79" width="4.83" height="1.78" class="down-body"/>
<line x1="177.68" y1="906.86" x2="177.68" y2="910.80" class="down-wick"/>
<rect x="175.27" y="908.74" width="4.83" height="1.00" class="down-body"/>
<line x1="185.11" y1="909.82" x2="185.11" y2="918.12" class="down-wick"/>
<rect x="182.70" y="909.82" width="4.83" height="4.38" class="down-body"/>
<line x1="192.54" y1="908.71" x2="192.54" y2="915.02" class="up-wick"/>
<rect x="190.12" y="909.43" width="4.83" height="4.50" class="up-body"/>
<line x1="199.96" y1="915.91" x2="199.96" y2="923.00" class="down-wick"/>
<rect x="197.55" y="915.91" width="4.83" height="7.10" class="down-body"/>
<line x1="207.39" y1="919.37" x2="207.39" y2="926.13" class="up-wick"/>
<rect x="204.98" y="922.35" width="4.83" height="2.00" class="up-body"/>
<line x1="214.82" y1="914.15" x2="214.82" y2="921.63" class="down-wick"/>
<rect x="212.40" y="914.34" width="4.83" height="6.95" class="down-body"/>
<line x1="222.24" y1="921.30" x2="222.24" y2="931.43" class="up-wick"/>
<rect x="219.83" y="923.29" width="4.83" height="6.57" class="up-body"/>
<line x1="229.67" y1="922.40" x2="229.67" y2="927.36" class="up-wick"/>
<rect x="227.26" y="922.74" width="4.83" height="1.68" class="up-body"/>
<line x1="237.10" y1="925.96" x2="237.10" y2="931.50" class="down-wick"/>
<rect x="234.68" y="927.98" width="4.83" height="2.98" class="down-body"/>
<line x1="244.52" y1="922.59" x2="244.52" y2="929.40" class="down-wick"/>
<rect x="242.11" y="922.71" width="4.83" height="6.59" class="down-body"/>
<line x1="251.95" y1="921.87" x2="251.95" y2="927.43" class="down-wick"/>
<rect x="249.53" y="925.05" width="4.83" height="1.54" class="down-body"/>
<line x1="259.38" y1="917.06" x2="259.38" y2="926.28" class="up-wick"/>
<rect x="256.96" y="917.13" width="4.83" height="8.18" class="up-body"/>
<line x1="266.80" y1="916.39" x2="266.80" y2="918.87" class="up-wick"/>
<rect x="264.39" y="918.29" width="4.83" height="1.00" class="up-body"/>
<line x1="274.23" y1="917.47" x2="274.23" y2="921.32" class="down-wick"/>
<rect x="271.81" y="917.71" width="4.83" height="1.00" class="down-body"/>
<line x1="281.65" y1="912.22" x2="281.65" y2="919.11" class="up-wick"/>
<rect x="279.24" y="912.46" width="4.83" height="5.68" class="up-body"/>
<line x1="289.08" y1="907.39" x2="289.08" y2="911.36" class="up-wick"/>
<rect x="286.67" y="910.30" width="4.83" height="1.06" class="up-body"/>
<line x1="296.51" y1="913.11" x2="296.51" y2="917.06" class="down-wick"/>
<rect x="294.09" y="913.69" width="4.83" height="2.24" class="down-body"/>
<line x1="303.93" y1="905.99" x2="303.93" y2="915.69" class="up-wick"/>
<rect x="301.52" y="908.74" width="4.83" height="6.93" class="up-body"/>
<line x1="311.36" y1="907.51" x2="311.36" y2="913.96" class="up-wick"/>
<rect x="308.95" y="908.25" width="4.83" height="3.92" class="up-body"/>
<line x1="318.79" y1="909.48" x2="318.79" y2="916.46" class="down-wick"/>
<rect x="316.37" y="909.70" width="4.83" height="3.80" class="down-body"/>
<line x1="326.21" y1="908.90" x2="326.21" y2="913.36" class="down-wick"/>
<rect x="323.80" y="911.29" width="4.83" height="2.02" class="down-body"/>
<line x1="333.64" y1="907.77" x2="333.64" y2="914.99" class="up-wick"/>
<rect x="331.23" y="908.16" width="4.83" height="5.51" class="up-body"/>
<line x1="341.07" y1="904.91" x2="341.07" y2="910.11" class="up-wick"/>
<rect x="338.65" y="904.91" width="4.83" height="2.65" class="up-body"/>
<line x1="348.49" y1="901.13" x2="348.49" y2="906.35" class="down-wick"/>
<rect x="346.08" y="903.80" width="4.83" height="2.31" class="down-body"/>
<line x1="355.92" y1="888.67" x2="355.92" y2="903.06" class="up-wick"/>
<rect x="353.51" y="890.18" width="4.83" height="12.49" class="up-body"/>
<line x1="363.35" y1="879.84" x2="363.35" y2="893.89" class="up-wick"/>
<rect x="360.93" y="883.42" width="4.83" height="10.47" class="up-body"/>
<line x1="370.77" y1="870.31" x2="370.77" y2="884.12" class="up-wick"/>
<rect x="368.36" y="872.33" width="4.83" height="10.73" class="up-body"/>
<line x1="378.20" y1="871.46" x2="378.20" y2="882.89" class="down-wick"/>
<rect x="375.78" y="871.97" width="4.83" height="8.45" class="down-body"/>
<line x1="385.62" y1="882.00" x2="385.62" y2="886.07" class="up-wick"/>
<rect x="383.21" y="885.49" width="4.83" height="1.00" class="up-body"/>
<line x1="393.05" y1="889.58" x2="393.05" y2="898.41" class="down-wick"/>
<rect x="390.64" y="890.64" width="4.83" height="6.47" class="down-body"/>
<line x1="400.48" y1="890.52" x2="400.48" y2="901.23" class="up-wick"/>
<rect x="398.06" y="891.15" width="4.83" height="9.91" class="up-body"/>
<line x1="407.90" y1="891.41" x2="407.90" y2="897.57" class="up-wick"/>
<rect x="405.49" y="891.96" width="4.83" height="2.84" class="up-body"/>
<line x1="415.33" y1="898.22" x2="415.33" y2="903.27" class="down-wick"/>
<rect x="412.92" y="899.64" width="4.83" height="1.52" class="down-body"/>
<line x1="422.76" y1="898.61" x2="422.76" y2="902.65" class="up-wick"/>
<rect x="420.34" y="900.72" width="4.83" height="1.00" class="up-body"/>
<line x1="430.18" y1="906.40" x2="430.18" y2="912.34" class="down-wick"/>
<rect x="427.77" y="908.04" width="4.83" height="1.00" class="down-body"/>
<line x1="437.61" y1="891.72" x2="437.61" y2="902.58" class="up-wick"/>
<rect x="435.20" y="895.04" width="4.83" height="7.43" class="up-body"/>
<line x1="445.04" y1="887.20" x2="445.04" y2="896.18" class="up-wick"/>
<rect x="442.62" y="892.42" width="4.83" height="2.48" class="up-body"/>
<line x1="452.46" y1="888.02" x2="452.46" y2="895.14" class="down-wick"/>
<rect x="450.05" y="889.68" width="4.83" height="5.10" class="down-body"/>
<line x1="459.89" y1="889.58" x2="459.89" y2="892.13" class="up-wick"/>
<rect x="457.48" y="890.95" width="4.83" height="1.00" class="up-body"/>
<line x1="467.32" y1="894.03" x2="467.32" y2="899.52" class="down-wick"/>
<rect x="464.90" y="894.78" width="4.83" height="3.49" class="down-body"/>
<line x1="474.74" y1="884.31" x2="474.74" y2="894.06" class="up-wick"/>
<rect x="472.33" y="885.18" width="4.83" height="8.88" class="up-body"/>
<line x1="482.17" y1="881.79" x2="482.17" y2="890.69" class="up-wick"/>
<rect x="479.76" y="883.42" width="4.83" height="6.23" class="up-body"/>
<line x1="489.60" y1="878.49" x2="489.60" y2="885.64" class="up-wick"/>
<rect x="487.18" y="879.62" width="4.83" height="5.39" class="up-body"/>
<line x1="497.02" y1="883.18" x2="497.02" y2="886.96" class="down-wick"/>
<rect x="494.61" y="884.29" width="4.83" height="1.97" class="down-body"/>
<line x1="504.45" y1="888.28" x2="504.45" y2="891.58" class="down-wick"/>
<rect x="502.03" y="888.91" width="4.83" height="2.57" class="down-body"/>
<line x1="511.88" y1="882.46" x2="511.88" y2="889.53" class="down-wick"/>
<rect x="509.46" y="882.82" width="4.83" height="4.40" class="down-body"/>
<line x1="519.30" y1="894.85" x2="519.30" y2="921.87" class="down-wick"/>
<rect x="516.89" y="895.16" width="4.83" height="11.14" class="down-body"/>
<line x1="526.73" y1="901.52" x2="526.73" y2="907.99" class="down-wick"/>
<rect x="524.31" y="902.72" width="4.83" height="4.62" class="down-body"/>
<line x1="534.15" y1="894.06" x2="534.15" y2="916.82" class="up-wick"/>
<rect x="531.74" y="901.73" width="4.83" height="7.00" class="up-body"/>
<line x1="541.58" y1="890.09" x2="541.58" y2="902.31" class="up-wick"/>
<rect x="539.17" y="892.13" width="4.83" height="10.18" class="up-body"/>
<line x1="549.01" y1="883.64" x2="549.01" y2="896.20" class="up-wick"/>
<rect x="546.59" y="885.06" width="4.83" height="8.76" class="up-body"/>
<line x1="556.43" y1="877.62" x2="556.43" y2="886.60" class="down-wick"/>
<rect x="554.02" y="885.35" width="4.83" height="1.00" class="down-body"/>
<line x1="563.86" y1="884.48" x2="563.86" y2="893.02" class="down-wick"/>
<rect x="561.45" y="887.06" width="4.83" height="5.85" class="down-body"/>
<line x1="571.29" y1="896.92" x2="571.29" y2="902.17" class="down-wick"/>
<rect x="568.87" y="899.78" width="4.83" height="1.23" class="down-body"/>
<line x1="578.71" y1="899.30" x2="578.71" y2="906.21" class="down-wick"/>
<rect x="576.30" y="899.69" width="4.83" height="5.25" class="down-body"/>
<line x1="586.14" y1="899.86" x2="586.14" y2="906.47" class="up-wick"/>
<rect x="583.73" y="899.88" width="4.83" height="1.00" class="up-body"/>
<line x1="593.57" y1="897.98" x2="593.57" y2="904.86" class="up-wick"/>
<rect x="591.15" y="902.82" width="4.83" height="1.00" class="up-body"/>
<line x1="600.99" y1="905.29" x2="600.99" y2="909.94" class="up-wick"/>
<rect x="598.58" y="907.63" width="4.83" height="1.06" class="up-body"/>
<line x1="608.42" y1="908.18" x2="608.42" y2="910.61" class="up-wick"/>
<rect x="606.01" y="908.90" width="4.83" height="1.42" class="up-body"/>
<line x1="615.85" y1="902.19" x2="615.85" y2="909.12" class="down-wick"/>
<rect x="613.43" y="905.73" width="4.83" height="2.17" class="down-body"/>
<line x1="623.27" y1="903.30" x2="623.27" y2="907.53" class="down-wick"/>
<rect x="620.86" y="903.30" width="4.83" height="2.62" class="down-body"/>
<line x1="630.70" y1="910.73" x2="630.70" y2="918.60" class="down-wick"/>
<rect x="628.28" y="912.66" width="4.83" height="1.00" class="down-body"/>
<line x1="638.12" y1="897.21" x2="638.12" y2="923.65" class="up-wick"/>
<rect x="635.71" y="898.17" width="4.83" height="22.98" class="up-body"/>
<line x1="645.55" y1="889.03" x2="645.55" y2="901.01" class="up-wick"/>
<rect x="643.14" y="891.51" width="4.83" height="9.19" class="up-body"/>
<line x1="652.98" y1="891.00" x2="652.98" y2="898.82" class="down-wick"/>
<rect x="650.56" y="893.26" width="4.83" height="2.00" class="down-body"/>
<line x1="660.40" y1="895.24" x2="660.40" y2="903.06" class="up-wick"/>
<rect x="657.99" y="896.46" width="4.83" height="6.02" class="up-body"/>
<line x1="667.83" y1="898.87" x2="667.83" y2="908.59" class="down-wick"/>
<rect x="665.42" y="898.87" width="4.83" height="8.57" class="down-body"/>
<line x1="675.26" y1="889.32" x2="675.26" y2="907.92" class="down-wick"/>
<rect x="672.84" y="897.74" width="4.83" height="5.22" class="down-body"/>
<line x1="682.68" y1="895.07" x2="682.68" y2="905.39" class="up-wick"/>
<rect x="680.27" y="902.12" width="4.83" height="1.40" class="up-body"/>
<line x1="690.11" y1="898.92" x2="690.11" y2="906.47" class="down-wick"/>
<rect x="687.70" y="902.77" width="4.83" height="2.96" class="down-body"/>
<line x1="697.54" y1="904.50" x2="697.54" y2="911.43" class="down-wick"/>
<rect x="695.12" y="906.81" width="4.83" height="4.31" class="down-body"/>
<line x1="704.96" y1="910.37" x2="704.96" y2="921.22" class="up-wick"/>
<rect x="702.55" y="911.38" width="4.83" height="1.00" class="up-body"/>
<line x1="712.39" y1="901.76" x2="712.39" y2="909.10" class="down-wick"/>
<rect x="709.98" y="906.09" width="4.83" height="1.92" class="down-body"/>
<line x1="719.82" y1="906.40" x2="719.82" y2="918.43" class="up-wick"/>
<rect x="717.40" y="907.51" width="4.83" height="7.63" class="up-body"/>
<line x1="727.24" y1="902.09" x2="727.24" y2="911.36" class="down-wick"/>
<rect x="724.83" y="903.11" width="4.83" height="5.97" class="down-body"/>
<line x1="734.67" y1="900.29" x2="734.67" y2="909.70" class="up-wick"/>
<rect x="732.26" y="901.61" width="4.83" height="7.58" class="up-body"/>
<line x1="742.10" y1="902.89" x2="742.10" y2="909.63" class="up-wick"/>
<rect x="739.68" y="903.78" width="4.83" height="1.66" class="up-body"/>
<line x1="749.52" y1="901.90" x2="749.52" y2="910.83" class="up-wick"/>
<rect x="747.11" y="907.46" width="4.83" height="1.00" class="up-body"/>
<line x1="756.95" y1="911.60" x2="756.95" y2="916.63" class="up-wick"/>
<rect x="754.53" y="914.77" width="4.83" height="1.00" class="up-body"/>
<line x1="764.38" y1="915.18" x2="764.38" y2="922.62" class="down-wick"/>
<rect x="761.96" y="916.19" width="4.83" height="2.57" class="down-body"/>
<line x1="771.80" y1="912.13" x2="771.80" y2="925.39" class="up-wick"/>
<rect x="769.39" y="914.25" width="4.83" height="3.13" class="up-body"/>
<line x1="779.23" y1="922.33" x2="779.23" y2="930.34" class="up-wick"/>
<rect x="776.81" y="922.33" width="4.83" height="4.79" class="up-body"/>
<line x1="786.65" y1="907.89" x2="786.65" y2="923.39" class="up-wick"/>
<rect x="784.24" y="911.50" width="4.83" height="9.31" class="up-body"/>
<line x1="794.08" y1="909.22" x2="794.08" y2="916.17" class="down-wick"/>
<rect x="791.67" y="914.00" width="4.83" height="1.00" class="down-body"/>
<line x1="801.51" y1="894.90" x2="801.51" y2="905.29" class="up-wick"/>
<rect x="799.09" y="896.18" width="4.83" height="7.46" class="up-body"/>
<line x1="808.93" y1="885.04" x2="808.93" y2="902.31" class="up-wick"/>
<rect x="806.52" y="885.04" width="4.83" height="14.53" class="up-body"/>
<line x1="816.36" y1="875.51" x2="816.36" y2="885.49" class="up-wick"/>
<rect x="813.95" y="878.18" width="4.83" height="6.06" class="up-body"/>
<line x1="823.79" y1="861.62" x2="823.79" y2="876.08" class="up-wick"/>
<rect x="821.37" y="864.27" width="4.83" height="10.68" class="up-body"/>
<line x1="831.21" y1="871.58" x2="831.21" y2="880.54" class="down-wick"/>
<rect x="828.80" y="871.71" width="4.83" height="2.67" class="down-body"/>
<line x1="838.64" y1="878.66" x2="838.64" y2="884.02" class="up-wick"/>
<rect x="836.23" y="878.78" width="4.83" height="4.23" class="up-body"/>
<line x1="846.07" y1="879.16" x2="846.07" y2="885.88" class="up-wick"/>
<rect x="843.65" y="882.58" width="4.83" height="1.30" class="up-body"/>
<line x1="853.49" y1="876.25" x2="853.49" y2="890.04" class="up-wick"/>
<rect x="851.08" y="876.25" width="4.83" height="11.45" class="up-body"/>
<line x1="860.92" y1="870.55" x2="860.92" y2="876.66" class="down-wick"/>
<rect x="858.51" y="871.49" width="4.83" height="3.44" class="down-body"/>
<line x1="868.35" y1="873.20" x2="868.35" y2="878.92" class="down-wick"/>
<rect x="865.93" y="874.30" width="4.83" height="2.69" class="down-body"/>
<line x1="875.77" y1="866.65" x2="875.77" y2="873.29" class="down-wick"/>
<rect x="873.36" y="867.11" width="4.83" height="3.10" class="down-body"/>
<line x1="883.20" y1="865.02" x2="883.20" y2="870.04" class="up-wick"/>
<rect x="880.78" y="865.81" width="4.83" height="3.03" class="up-body"/>
<line x1="890.62" y1="859.24" x2="890.62" y2="867.81" class="up-wick"/>
<rect x="888.21" y="863.40" width="4.83" height="4.40" class="up-body"/>
<line x1="898.05" y1="867.98" x2="898.05" y2="876.06" class="down-wick"/>
<rect x="895.64" y="868.36" width="4.83" height="7.60" class="down-body"/>
<line x1="905.48" y1="872.43" x2="905.48" y2="880.54" class="down-wick"/>
<rect x="903.06" y="877.96" width="4.83" height="2.43" class="down-body"/>
<line x1="912.90" y1="874.50" x2="912.90" y2="884.31" class="down-wick"/>
<rect x="910.49" y="877.00" width="4.83" height="7.31" class="down-body"/>
<line x1="920.33" y1="878.78" x2="920.33" y2="889.05" class="down-wick"/>
<rect x="917.92" y="880.73" width="4.83" height="7.07" class="down-body"/>
<line x1="927.76" y1="887.37" x2="927.76" y2="892.11" class="down-wick"/>
<rect x="925.34" y="889.01" width="4.83" height="2.02" class="down-body"/>
<line x1="935.18" y1="890.52" x2="935.18" y2="895.33" class="down-wick"/>
<rect x="932.77" y="892.64" width="4.83" height="1.00" class="down-body"/>
<line x1="942.61" y1="889.61" x2="942.61" y2="896.34" class="up-wick"/>
<rect x="940.20" y="890.64" width="4.83" height="5.32" class="up-body"/>
<line x1="950.04" y1="885.76" x2="950.04" y2="899.28" class="down-wick"/>
<rect x="947.62" y="887.03" width="4.83" height="8.97" class="down-body"/>
<line x1="957.46" y1="897.91" x2="957.46" y2="904.60" class="down-wick"/>
<rect x="955.05" y="900.55" width="4.83" height="2.29" class="down-body"/>
<line x1="964.89" y1="906.76" x2="964.89" y2="927.77" class="up-wick"/>
<rect x="962.48" y="907.46" width="4.83" height="4.16" class="up-body"/>
<line x1="972.32" y1="900.60" x2="972.32" y2="911.45" class="down-wick"/>
<rect x="969.90" y="907.60" width="4.83" height="3.27" class="down-body"/>
<line x1="979.74" y1="909.17" x2="979.74" y2="913.38" class="up-wick"/>
<rect x="977.33" y="912.13" width="4.83" height="1.00" class="up-body"/>
<line x1="987.17" y1="910.73" x2="987.17" y2="920.93" class="up-wick"/>
<rect x="984.76" y="913.43" width="4.83" height="1.06" class="up-body"/>
<line x1="994.60" y1="918.05" x2="994.60" y2="923.61" class="down-wick"/>
<rect x="992.18" y="919.06" width="4.83" height="3.68" class="down-body"/>
<line x1="1002.02" y1="915.74" x2="1002.02" y2="922.11" class="up-wick"/>
<rect x="999.61" y="916.92" width="4.83" height="3.25" class="up-body"/>
<line x1="1009.45" y1="922.86" x2="1009.45" y2="928.20" class="down-wick"/>
<rect x="1007.03" y="923.15" width="4.83" height="4.84" class="down-body"/>
<line x1="1016.88" y1="931.98" x2="1016.88" y2="943.72" class="down-wick"/>
<rect x="1014.46" y="934.58" width="4.83" height="8.66" class="down-body"/>
<line x1="1024.30" y1="925.67" x2="1024.30" y2="934.77" class="up-wick"/>
<rect x="1021.89" y="928.66" width="4.83" height="6.11" class="up-body"/>
<line x1="1031.73" y1="943.86" x2="1031.73" y2="955.58" class="down-wick"/>
<rect x="1029.31" y="944.54" width="4.83" height="8.42" class="down-body"/>
<line x1="1039.15" y1="959.94" x2="1039.15" y2="978.03" class="down-wick"/>
<rect x="1036.74" y="961.67" width="4.83" height="12.01" class="down-body"/>
<line x1="1046.58" y1="1002.45" x2="1046.58" y2="1024.76" class="up-wick"/>
<rect x="1044.17" y="1008.57" width="4.83" height="13.26" class="up-body"/>
<line x1="1054.01" y1="994.03" x2="1054.01" y2="1016.00" class="down-wick"/>
<rect x="1051.59" y="994.03" width="4.83" height="13.07" class="down-body"/>
<line x1="1061.43" y1="989.99" x2="1061.43" y2="1022.16" class="up-wick"/>
<rect x="1059.02" y="991.19" width="4.83" height="24.21" class="up-body"/>
<line x1="1068.86" y1="966.51" x2="1068.86" y2="986.04" class="up-wick"/>
<rect x="1066.45" y="966.72" width="4.83" height="17.93" class="up-body"/>
<line x1="1076.29" y1="965.90" x2="1076.29" y2="977.36" class="down-wick"/>
<rect x="1073.87" y="970.67" width="4.83" height="1.44" class="down-body"/>
<line x1="70" y1="891.17" x2="1080" y2="891.17" class="number-line"/>
<text x="1076" y="887.17" text-anchor="end" class="level-label">round 4570.00</text>
<line x1="70" y1="891.17" x2="1080" y2="891.17" class="entry-line"/>
<text x="1076" y="887.17" text-anchor="end" class="level-label">entry level 4570.00</text>
<text x="70" y="1056" class="axis-label">2026-05-04 14:00:00+00:00 to 2026-05-04 18:30:00+00:00</text>
<text x="1080" y="1056" text-anchor="end" class="axis-label">4508.98 - 4588.77</text>
</svg>