<svg xmlns="http://www.w3.org/2000/svg" width="1120" height="1054" viewBox="0 0 1120 1054">
<style>
text{font-family:Arial,Helvetica,sans-serif}.title{font-size:21px;font-weight:700;fill:#1f2937}.subtitle{font-size:12px;fill:#4b5563}.panel-title{font-size:15px;font-weight:700;fill:#111827}.muted{font-size:13px;fill:#6b7280}.plot-bg{fill:#f8fafc;stroke:#cbd5e1;stroke-width:1}.up-body{fill:#15803d;stroke:#14532d;stroke-width:.8}.down-body{fill:#b91c1c;stroke:#7f1d1d;stroke-width:.8}.up-wick{stroke:#14532d;stroke-width:1}.down-wick{stroke:#7f1d1d;stroke-width:1}.sweep-line{stroke:#7c3aed;stroke-width:1.6;stroke-dasharray:6 4}.number-line{stroke:#0f766e;stroke-width:1.4;stroke-dasharray:3 4}.entry-line{stroke:#2563eb;stroke-width:1.4}.sl-line{stroke:#dc2626;stroke-width:1.4}.tp-line{stroke:#16a34a;stroke-width:1.4}.level-label,.axis-label{font-size:11px;fill:#374151}
</style>
<text x="28" y="28" class="title">Adelin v2 visual review sample sample_234</text>
<text x="28" y="48" class="subtitle">Candidate windows are for visual labeling only and are not trade signals.</text>
<text x="560" y="48" class="subtitle" text-anchor="middle">LARGE_UPPER_WICK_REVERSAL_VISUAL_CANDIDATE | PRE_ANCHOR_SWEEP_EXTREME_CANDIDATE</text>
<text x="70" y="82" class="panel-title">H1 liquidity context</text>
<rect x="70" y="96" width="1010" height="192" class="plot-bg"/>
<line x1="81.48" y1="208.81" x2="81.48" y2="215.34" class="down-wick"/>
<rect x="77.48" y="211.52" width="8.00" height="3.82" class="down-body"/>
<line x1="104.43" y1="205.00" x2="104.43" y2="221.81" class="up-wick"/>
<rect x="100.43" y="211.97" width="8.00" height="3.36" class="up-body"/>
<line x1="127.39" y1="211.15" x2="127.39" y2="241.53" class="down-wick"/>
<rect x="123.39" y="211.97" width="8.00" height="5.76" class="down-body"/>
<line x1="150.34" y1="212.06" x2="150.34" y2="223.31" class="down-wick"/>
<rect x="146.34" y="217.73" width="8.00" height="5.45" class="down-body"/>
<line x1="173.30" y1="208.49" x2="173.30" y2="223.18" class="up-wick"/>
<rect x="169.30" y="213.67" width="8.00" height="9.51" class="up-body"/>
<line x1="196.25" y1="201.51" x2="196.25" y2="214.33" class="up-wick"/>
<rect x="192.25" y="203.12" width="8.00" height="10.55" class="up-body"/>
<line x1="219.20" y1="199.59" x2="219.20" y2="213.13" class="down-wick"/>
<rect x="215.20" y="203.16" width="8.00" height="9.48" class="down-body"/>
<line x1="242.16" y1="211.55" x2="242.16" y2="228.85" class="down-wick"/>
<rect x="238.16" y="212.64" width="8.00" height="9.95" class="down-body"/>
<line x1="265.11" y1="212.08" x2="265.11" y2="229.47" class="down-wick"/>
<rect x="261.11" y="222.59" width="8.00" height="1.00" class="down-body"/>
<line x1="288.07" y1="209.77" x2="288.07" y2="227.12" class="up-wick"/>
<rect x="284.07" y="210.81" width="8.00" height="12.54" class="up-body"/>
<line x1="311.02" y1="205.42" x2="311.02" y2="217.16" class="down-wick"/>
<rect x="307.02" y="210.81" width="8.00" height="6.03" class="down-body"/>
<line x1="333.98" y1="212.97" x2="333.98" y2="225.62" class="down-wick"/>
<rect x="329.98" y="216.84" width="8.00" height="3.26" class="down-body"/>
<line x1="356.93" y1="193.56" x2="356.93" y2="224.21" class="up-wick"/>
<rect x="352.93" y="207.35" width="8.00" height="12.74" class="up-body"/>
<line x1="379.89" y1="154.75" x2="379.89" y2="208.94" class="up-wick"/>
<rect x="375.89" y="156.15" width="8.00" height="51.21" class="up-body"/>
<line x1="402.84" y1="109.24" x2="402.84" y2="168.58" class="up-wick"/>
<rect x="398.84" y="119.36" width="8.00" height="36.79" class="up-body"/>
<line x1="425.80" y1="113.75" x2="425.80" y2="140.49" class="down-wick"/>
<rect x="421.80" y="119.32" width="8.00" height="8.02" class="down-body"/>
<line x1="448.75" y1="119.10" x2="448.75" y2="147.09" class="down-wick"/>
<rect x="444.75" y="127.31" width="8.00" height="5.87" class="down-body"/>
<line x1="471.70" y1="126.72" x2="471.70" y2="137.47" class="down-wick"/>
<rect x="467.70" y="133.18" width="8.00" height="1.00" class="down-body"/>
<line x1="494.66" y1="130.99" x2="494.66" y2="148.22" class="down-wick"/>
<rect x="490.66" y="133.81" width="8.00" height="4.70" class="down-body"/>
<line x1="517.61" y1="132.59" x2="517.61" y2="145.79" class="down-wick"/>
<rect x="513.61" y="138.52" width="8.00" height="4.74" class="down-body"/>
<line x1="540.57" y1="139.98" x2="540.57" y2="149.27" class="down-wick"/>
<rect x="536.57" y="143.27" width="8.00" height="4.12" class="down-body"/>
<line x1="563.52" y1="211.49" x2="563.52" y2="251.95" class="up-wick"/>
<rect x="559.52" y="228.76" width="8.00" height="9.44" class="up-body"/>
<line x1="586.48" y1="228.67" x2="586.48" y2="274.76" class="down-wick"/>
<rect x="582.48" y="228.76" width="8.00" height="26.31" class="down-body"/>
<line x1="609.43" y1="234.25" x2="609.43" y2="266.36" class="up-wick"/>
<rect x="605.43" y="236.23" width="8.00" height="18.84" class="up-body"/>
<line x1="632.39" y1="190.75" x2="632.39" y2="237.42" class="up-wick"/>
<rect x="628.39" y="198.01" width="8.00" height="38.22" class="up-body"/>
<line x1="655.34" y1="196.56" x2="655.34" y2="213.81" class="down-wick"/>
<rect x="651.34" y="198.01" width="8.00" height="11.25" class="down-body"/>
<line x1="678.30" y1="208.09" x2="678.30" y2="218.60" class="down-wick"/>
<rect x="674.30" y="209.26" width="8.00" height="7.08" class="down-body"/>
<line x1="701.25" y1="211.11" x2="701.25" y2="220.40" class="down-wick"/>
<rect x="697.25" y="216.09" width="8.00" height="2.44" class="down-body"/>
<line x1="724.20" y1="210.68" x2="724.20" y2="228.47" class="up-wick"/>
<rect x="720.20" y="216.36" width="8.00" height="2.15" class="up-body"/>
<line x1="747.16" y1="211.37" x2="747.16" y2="223.81" class="up-wick"/>
<rect x="743.16" y="211.37" width="8.00" height="4.99" class="up-body"/>
<line x1="770.11" y1="200.18" x2="770.11" y2="220.66" class="down-wick"/>
<rect x="766.11" y="211.38" width="8.00" height="6.16" class="down-body"/>
<line x1="793.07" y1="210.51" x2="793.07" y2="221.44" class="up-wick"/>
<rect x="789.07" y="210.55" width="8.00" height="6.99" class="up-body"/>
<line x1="816.02" y1="208.71" x2="816.02" y2="224.26" class="down-wick"/>
<rect x="812.02" y="210.55" width="8.00" height="4.90" class="down-body"/>
<line x1="838.98" y1="205.33" x2="838.98" y2="217.27" class="up-wick"/>
<rect x="834.98" y="210.94" width="8.00" height="4.51" class="up-body"/>
<line x1="861.93" y1="194.66" x2="861.93" y2="220.92" class="up-wick"/>
<rect x="857.93" y="195.03" width="8.00" height="15.91" class="up-body"/>
<line x1="884.89" y1="182.47" x2="884.89" y2="207.29" class="down-wick"/>
<rect x="880.89" y="195.03" width="8.00" height="7.63" class="down-body"/>
<line x1="907.84" y1="177.90" x2="907.84" y2="206.78" class="up-wick"/>
<rect x="903.84" y="186.95" width="8.00" height="15.69" class="up-body"/>
<line x1="930.80" y1="176.47" x2="930.80" y2="214.44" class="down-wick"/>
<rect x="926.80" y="186.95" width="8.00" height="13.61" class="down-body"/>
<line x1="953.75" y1="196.11" x2="953.75" y2="214.03" class="down-wick"/>
<rect x="949.75" y="200.57" width="8.00" height="6.18" class="down-body"/>
<line x1="976.70" y1="199.51" x2="976.70" y2="214.16" class="up-wick"/>
<rect x="972.70" y="200.41" width="8.00" height="6.33" class="up-body"/>
<line x1="999.66" y1="193.22" x2="999.66" y2="202.17" class="up-wick"/>
<rect x="995.66" y="199.09" width="8.00" height="1.31" class="up-body"/>
<line x1="1022.61" y1="188.44" x2="1022.61" y2="199.09" class="up-wick"/>
<rect x="1018.61" y="191.14" width="8.00" height="7.96" class="up-body"/>
<line x1="1045.57" y1="183.23" x2="1045.57" y2="194.93" class="up-wick"/>
<rect x="1041.57" y="190.90" width="8.00" height="1.00" class="up-body"/>
<line x1="1068.52" y1="170.37" x2="1068.52" y2="184.60" class="up-wick"/>
<rect x="1064.52" y="176.46" width="8.00" height="7.94" class="up-body"/>
<line x1="70" y1="212.25" x2="1080" y2="212.25" class="sweep-line"/>
<text x="1076" y="208.25" text-anchor="end" class="level-label">sweep 4794.60</text>
<line x1="70" y1="211.49" x2="1080" y2="211.49" class="entry-line"/>
<text x="1076" y="207.49" text-anchor="end" class="level-label">entry level 4795.30</text>
<text x="70" y="306" class="axis-label">2026-04-17 02:00:00+00:00 to 2026-04-21 01:00:00+00:00</text>
<text x="1080" y="306" text-anchor="end" class="axis-label">4724.71 - 4901.86</text>
<text x="70" y="332" class="panel-title">M15 liquidity / reaction context</text>
<rect x="70" y="346" width="1010" height="192" class="plot-bg"/>
<line x1="88.04" y1="401.61" x2="88.04" y2="479.83" class="up-wick"/>
<rect x="84.04" y="410.81" width="8.00" height="41.92" class="up-body"/>
<line x1="124.11" y1="400.11" x2="124.11" y2="424.09" class="down-wick"/>
<rect x="120.11" y="410.92" width="8.00" height="10.70" class="down-body"/>
<line x1="160.18" y1="409.53" x2="160.18" y2="434.00" class="down-wick"/>
<rect x="156.18" y="421.55" width="8.00" height="9.87" class="down-body"/>
<line x1="196.25" y1="418.03" x2="196.25" y2="436.97" class="down-wick"/>
<rect x="192.25" y="431.40" width="8.00" height="2.73" class="down-body"/>
<line x1="232.32" y1="433.96" x2="232.32" y2="449.83" class="down-wick"/>
<rect x="228.32" y="434.13" width="8.00" height="14.73" class="down-body"/>
<line x1="268.39" y1="441.63" x2="268.39" y2="458.26" class="down-wick"/>
<rect x="264.39" y="448.87" width="8.00" height="7.20" class="down-body"/>
<line x1="304.46" y1="446.88" x2="304.46" y2="505.58" class="down-wick"/>
<rect x="300.46" y="456.06" width="8.00" height="37.20" class="down-body"/>
<line x1="340.54" y1="485.49" x2="340.54" y2="524.76" class="up-wick"/>
<rect x="336.54" y="485.96" width="8.00" height="6.77" class="up-body"/>
<line x1="376.61" y1="485.51" x2="376.61" y2="508.21" class="down-wick"/>
<rect x="372.61" y="485.96" width="8.00" height="5.96" class="down-body"/>
<line x1="412.68" y1="462.81" x2="412.68" y2="492.58" class="up-wick"/>
<rect x="408.68" y="463.94" width="8.00" height="27.97" class="up-body"/>
<line x1="448.75" y1="458.13" x2="448.75" y2="473.10" class="down-wick"/>
<rect x="444.75" y="463.94" width="8.00" height="2.71" class="down-body"/>
<line x1="484.82" y1="444.96" x2="484.82" y2="476.58" class="up-wick"/>
<rect x="480.82" y="448.84" width="8.00" height="17.81" class="up-body"/>
<line x1="520.89" y1="401.82" x2="520.89" y2="451.19" class="up-wick"/>
<rect x="516.89" y="403.47" width="8.00" height="45.38" class="up-body"/>
<line x1="556.96" y1="382.18" x2="556.96" y2="414.53" class="up-wick"/>
<rect x="552.96" y="384.14" width="8.00" height="19.33" class="up-body"/>
<line x1="593.04" y1="363.79" x2="593.04" y2="387.28" class="up-wick"/>
<rect x="589.04" y="375.49" width="8.00" height="8.65" class="up-body"/>
<line x1="629.11" y1="359.24" x2="629.11" y2="377.39" class="up-wick"/>
<rect x="625.11" y="373.55" width="8.00" height="2.39" class="up-body"/>
<line x1="665.18" y1="370.69" x2="665.18" y2="388.67" class="down-wick"/>
<rect x="661.18" y="373.55" width="8.00" height="14.58" class="down-body"/>
<line x1="701.25" y1="382.03" x2="701.25" y2="393.62" class="down-wick"/>
<rect x="697.25" y="388.13" width="8.00" height="1.49" class="down-body"/>
<line x1="737.32" y1="385.85" x2="737.32" y2="401.22" class="down-wick"/>
<rect x="733.32" y="389.69" width="8.00" height="8.50" class="down-body"/>
<line x1="773.39" y1="395.35" x2="773.39" y2="404.68" class="up-wick"/>
<rect x="769.39" y="395.71" width="8.00" height="2.48" class="up-body"/>
<line x1="809.46" y1="393.41" x2="809.46" y2="410.34" class="down-wick"/>
<rect x="805.46" y="395.71" width="8.00" height="12.34" class="down-body"/>
<line x1="845.54" y1="398.79" x2="845.54" y2="414.12" class="up-wick"/>
<rect x="841.54" y="400.39" width="8.00" height="7.67" class="up-body"/>
<line x1="881.61" y1="397.00" x2="881.61" y2="411.37" class="down-wick"/>
<rect x="877.61" y="400.37" width="8.00" height="3.25" class="down-body"/>
<line x1="917.68" y1="401.54" x2="917.68" y2="413.42" class="down-wick"/>
<rect x="913.68" y="403.62" width="8.00" height="6.04" class="down-body"/>
<line x1="953.75" y1="399.37" x2="953.75" y2="409.32" class="up-wick"/>
<rect x="949.75" y="405.32" width="8.00" height="3.84" class="up-body"/>
<line x1="989.82" y1="399.37" x2="989.82" y2="407.99" class="up-wick"/>
<rect x="985.82" y="401.72" width="8.00" height="3.61" class="up-body"/>
<line x1="1025.89" y1="401.52" x2="1025.89" y2="417.67" class="down-wick"/>
<rect x="1021.89" y="401.54" width="8.00" height="15.67" class="down-body"/>
<line x1="1061.96" y1="404.47" x2="1061.96" y2="417.35" class="up-wick"/>
<rect x="1057.96" y="413.97" width="8.00" height="3.25" class="up-body"/>
<line x1="70" y1="401.61" x2="1080" y2="401.61" class="sweep-line"/>
<text x="1076" y="397.61" text-anchor="end" class="level-label">sweep 4794.60</text>
<line x1="70" y1="400.11" x2="1080" y2="400.11" class="entry-line"/>
<text x="1076" y="396.11" text-anchor="end" class="level-label">entry level 4795.30</text>
<text x="70" y="556" class="axis-label">2026-04-20 01:00:00+00:00 to 2026-04-20 07:45:00+00:00</text>
<text x="1080" y="556" text-anchor="end" class="axis-label">4730.73 - 4820.64</text>
<text x="70" y="582" class="panel-title">M5 reaction / execution context</text>
<rect x="70" y="596" width="1010" height="192" class="plot-bg"/>
<line x1="80.98" y1="664.36" x2="80.98" y2="729.12" class="up-wick"/>
<rect x="76.98" y="691.18" width="8.00" height="10.41" class="up-body"/>
<line x1="102.93" y1="653.10" x2="102.93" y2="701.35" class="up-wick"/>
<rect x="98.93" y="653.93" width="8.00" height="37.25" class="up-body"/>
<line x1="124.89" y1="649.66" x2="124.89" y2="676.42" class="down-wick"/>
<rect x="120.89" y="653.93" width="8.00" height="5.08" class="down-body"/>
<line x1="146.85" y1="648.14" x2="146.85" y2="662.15" class="up-wick"/>
<rect x="142.85" y="655.58" width="8.00" height="3.54" class="up-body"/>
<line x1="168.80" y1="650.94" x2="168.80" y2="672.26" class="down-wick"/>
<rect x="164.80" y="655.58" width="8.00" height="15.84" class="down-body"/>
<line x1="190.76" y1="661.54" x2="190.76" y2="672.50" class="up-wick"/>
<rect x="186.76" y="669.98" width="8.00" height="1.15" class="up-body"/>
<line x1="212.72" y1="657.70" x2="212.72" y2="671.37" class="up-wick"/>
<rect x="208.72" y="669.07" width="8.00" height="1.00" class="up-body"/>
<line x1="234.67" y1="665.62" x2="234.67" y2="674.39" class="down-wick"/>
<rect x="230.67" y="668.79" width="8.00" height="2.97" class="down-body"/>
<line x1="256.63" y1="671.07" x2="256.63" y2="682.56" class="down-wick"/>
<rect x="252.63" y="671.76" width="8.00" height="8.18" class="down-body"/>
<line x1="278.59" y1="668.70" x2="278.59" y2="680.33" class="up-wick"/>
<rect x="274.59" y="669.48" width="8.00" height="10.43" class="up-body"/>
<line x1="300.54" y1="666.34" x2="300.54" y2="676.25" class="down-wick"/>
<rect x="296.54" y="669.46" width="8.00" height="6.64" class="down-body"/>
<line x1="322.50" y1="674.21" x2="322.50" y2="685.58" class="down-wick"/>
<rect x="318.50" y="676.10" width="8.00" height="6.59" class="down-body"/>
<line x1="344.46" y1="682.52" x2="344.46" y2="696.75" class="down-wick"/>
<rect x="340.46" y="682.69" width="8.00" height="6.99" class="down-body"/>
<line x1="366.41" y1="687.77" x2="366.41" y2="698.64" class="down-wick"/>
<rect x="362.41" y="689.68" width="8.00" height="1.00" class="down-body"/>
<line x1="388.37" y1="683.65" x2="388.37" y2="698.16" class="down-wick"/>
<rect x="384.37" y="690.57" width="8.00" height="7.09" class="down-body"/>
<line x1="410.33" y1="690.31" x2="410.33" y2="701.20" class="up-wick"/>
<rect x="406.33" y="696.51" width="8.00" height="1.15" class="up-body"/>
<line x1="432.28" y1="696.56" x2="432.28" y2="706.08" class="down-wick"/>
<rect x="428.28" y="696.58" width="8.00" height="5.01" class="down-body"/>
<line x1="454.24" y1="698.72" x2="454.24" y2="707.21" class="down-wick"/>
<rect x="450.24" y="701.59" width="8.00" height="3.38" class="down-body"/>
<line x1="476.20" y1="695.64" x2="476.20" y2="707.21" class="up-wick"/>
<rect x="472.20" y="700.13" width="8.00" height="4.84" class="up-body"/>
<line x1="498.15" y1="699.46" x2="498.15" y2="726.19" class="down-wick"/>
<rect x="494.15" y="700.13" width="8.00" height="15.90" class="down-body"/>
<line x1="520.11" y1="715.60" x2="520.11" y2="755.28" class="down-wick"/>
<rect x="516.11" y="716.04" width="8.00" height="26.73" class="down-body"/>
<line x1="542.07" y1="742.00" x2="542.07" y2="774.76" class="down-wick"/>
<rect x="538.07" y="742.22" width="8.00" height="17.38" class="down-body"/>
<line x1="564.02" y1="740.48" x2="564.02" y2="759.81" class="up-wick"/>
<rect x="560.02" y="740.81" width="8.00" height="18.81" class="up-body"/>
<line x1="585.98" y1="734.87" x2="585.98" y2="746.45" class="up-wick"/>
<rect x="581.98" y="735.34" width="8.00" height="5.47" class="up-body"/>
<line x1="607.93" y1="735.10" x2="607.93" y2="757.95" class="down-wick"/>
<rect x="603.93" y="735.34" width="8.00" height="11.67" class="down-body"/>
<line x1="629.89" y1="737.23" x2="629.89" y2="752.89" class="up-wick"/>
<rect x="625.89" y="741.18" width="8.00" height="5.77" class="up-body"/>
<line x1="651.85" y1="734.89" x2="651.85" y2="747.38" class="down-wick"/>
<rect x="647.85" y="741.18" width="8.00" height="1.00" class="down-body"/>
<line x1="673.80" y1="726.47" x2="673.80" y2="742.07" class="up-wick"/>
<rect x="669.80" y="728.14" width="8.00" height="13.25" class="up-body"/>
<line x1="695.76" y1="718.34" x2="695.76" y2="731.76" class="up-wick"/>
<rect x="691.76" y="719.01" width="8.00" height="9.13" class="up-body"/>
<line x1="717.72" y1="711.83" x2="717.72" y2="720.33" class="up-wick"/>
<rect x="713.72" y="712.98" width="8.00" height="6.03" class="up-body"/>
<line x1="739.67" y1="707.08" x2="739.67" y2="720.72" class="up-wick"/>
<rect x="735.67" y="711.85" width="8.00" height="1.13" class="up-body"/>
<line x1="761.63" y1="711.13" x2="761.63" y2="722.28" class="down-wick"/>
<rect x="757.63" y="711.85" width="8.00" height="2.04" class="down-body"/>
<line x1="783.59" y1="712.28" x2="783.59" y2="716.95" class="down-wick"/>
<rect x="779.59" y="713.89" width="8.00" height="1.84" class="down-body"/>
<line x1="805.54" y1="707.32" x2="805.54" y2="718.96" class="up-wick"/>
<rect x="801.54" y="715.36" width="8.00" height="1.00" class="up-body"/>
<line x1="827.50" y1="713.78" x2="827.50" y2="725.82" class="down-wick"/>
<rect x="823.50" y="715.25" width="8.00" height="1.54" class="down-body"/>
<line x1="849.46" y1="693.69" x2="849.46" y2="721.37" class="up-wick"/>
<rect x="845.46" y="697.64" width="8.00" height="19.15" class="up-body"/>
<line x1="871.41" y1="662.80" x2="871.41" y2="700.03" class="up-wick"/>
<rect x="867.41" y="664.69" width="8.00" height="32.95" class="up-body"/>
<line x1="893.37" y1="661.22" x2="893.37" y2="678.42" class="up-wick"/>
<rect x="889.37" y="663.52" width="8.00" height="1.17" class="up-body"/>
<line x1="915.33" y1="649.87" x2="915.33" y2="667.55" class="up-wick"/>
<rect x="911.33" y="651.54" width="8.00" height="11.97" class="up-body"/>
<line x1="937.28" y1="649.00" x2="937.28" y2="662.78" class="down-wick"/>
<rect x="933.28" y="651.54" width="8.00" height="2.52" class="down-body"/>
<line x1="959.24" y1="641.33" x2="959.24" y2="655.53" class="up-wick"/>
<rect x="955.24" y="644.10" width="8.00" height="9.96" class="up-body"/>
<line x1="981.20" y1="629.91" x2="981.20" y2="646.84" class="up-wick"/>
<rect x="977.20" y="631.91" width="8.00" height="12.19" class="up-body"/>
<line x1="1003.15" y1="611.24" x2="1003.15" y2="635.10" class="up-wick"/>
<rect x="999.15" y="621.15" width="8.00" height="10.76" class="up-body"/>
<line x1="1025.11" y1="616.36" x2="1025.11" y2="631.06" class="up-wick"/>
<rect x="1021.11" y="620.22" width="8.00" height="1.00" class="up-body"/>
<line x1="1047.07" y1="615.73" x2="1047.07" y2="625.25" class="down-wick"/>
<rect x="1043.07" y="620.22" width="8.00" height="2.91" class="down-body"/>
<line x1="1069.02" y1="609.24" x2="1069.02" y2="625.06" class="up-wick"/>
<rect x="1065.02" y="615.27" width="8.00" height="8.31" class="up-body"/>
<line x1="70" y1="649.66" x2="1080" y2="649.66" class="sweep-line"/>
<text x="1076" y="645.66" text-anchor="end" class="level-label">sweep 4794.60</text>
<line x1="70" y1="648.14" x2="1080" y2="648.14" class="entry-line"/>
<text x="1076" y="644.14" text-anchor="end" class="level-label">entry level 4795.30</text>
<text x="70" y="806" class="axis-label">2026-04-20 01:00:00+00:00 to 2026-04-20 04:45:00+00:00</text>
<text x="1080" y="806" text-anchor="end" class="axis-label">4730.83 - 4819.33</text>
<text x="70" y="832" class="panel-title">M1 execution window</text>
<rect x="70" y="846" width="1010" height="192" class="plot-bg"/>
<line x1="74.47" y1="940.47" x2="74.47" y2="972.71" class="down-wick"/>
<rect x="71.56" y="949.24" width="5.81" height="17.37" class="down-body"/>
<line x1="83.41" y1="919.38" x2="83.41" y2="934.87" class="down-wick"/>
<rect x="80.50" y="930.66" width="5.81" height="1.28" class="down-body"/>
<line x1="92.35" y1="923.20" x2="92.35" y2="946.31" class="down-wick"/>
<rect x="89.44" y="923.20" width="5.81" height="15.29" class="down-body"/>
<line x1="101.28" y1="919.18" x2="101.28" y2="942.77" class="up-wick"/>
<rect x="98.38" y="921.70" width="5.81" height="20.75" class="up-body"/>
<line x1="110.22" y1="915.86" x2="110.22" y2="930.17" class="up-wick"/>
<rect x="107.32" y="919.60" width="5.81" height="2.89" class="up-body"/>
<line x1="119.16" y1="897.86" x2="119.16" y2="923.27" class="down-wick"/>
<rect x="116.25" y="900.06" width="5.81" height="12.40" class="down-body"/>
<line x1="128.10" y1="895.73" x2="128.10" y2="906.68" class="down-wick"/>
<rect x="125.19" y="898.62" width="5.81" height="7.66" class="down-body"/>
<line x1="137.04" y1="903.30" x2="137.04" y2="911.43" class="up-wick"/>
<rect x="134.13" y="905.29" width="5.81" height="2.98" class="up-body"/>
<line x1="145.97" y1="894.08" x2="145.97" y2="906.17" class="down-wick"/>
<rect x="143.07" y="900.86" width="5.81" height="4.28" class="down-body"/>
<line x1="154.91" y1="899.72" x2="154.91" y2="904.47" class="up-wick"/>
<rect x="152.01" y="904.09" width="5.81" height="1.00" class="up-body"/>
<line x1="163.85" y1="896.97" x2="163.85" y2="905.18" class="down-wick"/>
<rect x="160.94" y="901.76" width="5.81" height="3.31" class="down-body"/>
<line x1="172.79" y1="907.69" x2="172.79" y2="913.49" class="down-wick"/>
<rect x="169.88" y="908.14" width="5.81" height="3.81" class="down-body"/>
<line x1="181.73" y1="912.66" x2="181.73" y2="918.97" class="down-wick"/>
<rect x="178.82" y="916.53" width="5.81" height="1.57" class="down-body"/>
<line x1="190.66" y1="912.50" x2="190.66" y2="918.19" class="up-wick"/>
<rect x="187.76" y="913.29" width="5.81" height="2.69" class="up-body"/>
<line x1="199.60" y1="907.91" x2="199.60" y2="913.44" class="up-wick"/>
<rect x="196.70" y="909.79" width="5.81" height="3.22" class="up-body"/>
<line x1="208.54" y1="912.15" x2="208.54" y2="918.06" class="down-wick"/>
<rect x="205.63" y="916.56" width="5.81" height="1.07" class="down-body"/>
<line x1="217.48" y1="906.08" x2="217.48" y2="911.43" class="up-wick"/>
<rect x="214.57" y="907.26" width="5.81" height="4.14" class="up-body"/>
<line x1="226.42" y1="910.62" x2="226.42" y2="915.68" class="down-wick"/>
<rect x="223.51" y="910.91" width="5.81" height="4.77" class="down-body"/>
<line x1="235.35" y1="915.46" x2="235.35" y2="918.95" class="down-wick"/>
<rect x="232.45" y="916.82" width="5.81" height="1.00" class="down-body"/>
<line x1="244.29" y1="912.12" x2="244.29" y2="914.65" class="down-wick"/>
<rect x="241.39" y="914.09" width="5.81" height="1.00" class="down-body"/>
<line x1="253.23" y1="917.74" x2="253.23" y2="922.49" class="down-wick"/>
<rect x="250.33" y="918.46" width="5.81" height="2.69" class="down-body"/>
<line x1="262.17" y1="920.27" x2="262.17" y2="927.23" class="down-wick"/>
<rect x="259.26" y="920.68" width="5.81" height="3.49" class="down-body"/>
<line x1="271.11" y1="922.11" x2="271.11" y2="928.00" class="down-wick"/>
<rect x="268.20" y="922.26" width="5.81" height="4.63" class="down-body"/>
<line x1="280.04" y1="919.56" x2="280.04" y2="925.26" class="up-wick"/>
<rect x="277.14" y="922.44" width="5.81" height="2.35" class="up-body"/>
<line x1="288.98" y1="919.65" x2="288.98" y2="924.50" class="up-wick"/>
<rect x="286.08" y="920.81" width="5.81" height="2.73" class="up-body"/>
<line x1="297.92" y1="913.42" x2="297.92" y2="917.41" class="down-wick"/>
<rect x="295.02" y="916.09" width="5.81" height="1.00" class="down-body"/>
<line x1="306.86" y1="912.91" x2="306.86" y2="916.22" class="up-wick"/>
<rect x="303.95" y="913.15" width="5.81" height="2.33" class="up-body"/>
<line x1="315.80" y1="916.20" x2="315.80" y2="923.09" class="down-wick"/>
<rect x="312.89" y="916.40" width="5.81" height="6.54" class="down-body"/>
<line x1="324.73" y1="923.16" x2="324.73" y2="927.46" class="down-wick"/>
<rect x="321.83" y="923.16" width="5.81" height="3.09" class="down-body"/>
<line x1="333.67" y1="924.30" x2="333.67" y2="927.10" class="down-wick"/>
<rect x="330.77" y="924.97" width="5.81" height="1.19" class="down-body"/>
<line x1="342.61" y1="929.56" x2="342.61" y2="940.91" class="down-wick"/>
<rect x="339.71" y="929.74" width="5.81" height="6.52" class="down-body"/>
<line x1="351.55" y1="929.59" x2="351.55" y2="937.58" class="up-wick"/>
<rect x="348.64" y="931.38" width="5.81" height="6.20" class="up-body"/>
<line x1="360.49" y1="930.88" x2="360.49" y2="939.39" class="down-wick"/>
<rect x="357.58" y="931.11" width="5.81" height="5.84" class="down-body"/>
<line x1="369.42" y1="940.22" x2="369.42" y2="946.20" class="down-wick"/>
<rect x="366.52" y="941.14" width="5.81" height="1.00" class="down-body"/>
<line x1="378.36" y1="934.98" x2="378.36" y2="939.57" class="up-wick"/>
<rect x="375.46" y="937.18" width="5.81" height="1.00" class="up-body"/>
<line x1="387.30" y1="931.49" x2="387.30" y2="937.87" class="up-wick"/>
<rect x="384.40" y="932.29" width="5.81" height="5.57" class="up-body"/>
<line x1="396.24" y1="930.73" x2="396.24" y2="937.35" class="down-wick"/>
<rect x="393.33" y="932.05" width="5.81" height="5.26" class="down-body"/>
<line x1="405.18" y1="937.56" x2="405.18" y2="945.71" class="down-wick"/>
<rect x="402.27" y="937.67" width="5.81" height="7.52" class="down-body"/>
<line x1="414.12" y1="942.66" x2="414.12" y2="948.84" class="down-wick"/>
<rect x="411.21" y="943.56" width="5.81" height="3.60" class="down-body"/>
<line x1="423.05" y1="937.60" x2="423.05" y2="941.81" class="down-wick"/>
<rect x="420.15" y="939.10" width="5.81" height="2.37" class="down-body"/>
<line x1="431.99" y1="944.05" x2="431.99" y2="948.39" class="down-wick"/>
<rect x="429.09" y="944.07" width="5.81" height="1.00" class="down-body"/>
<line x1="440.93" y1="948.53" x2="440.93" y2="950.65" class="up-wick"/>
<rect x="438.02" y="949.02" width="5.81" height="1.28" class="up-body"/>
<line x1="449.87" y1="948.21" x2="449.87" y2="951.59" class="up-wick"/>
<rect x="446.96" y="949.24" width="5.81" height="2.17" class="up-body"/>
<line x1="458.81" y1="946.29" x2="458.81" y2="949.00" class="up-wick"/>
<rect x="455.90" y="946.78" width="5.81" height="1.68" class="up-body"/>
<line x1="467.74" y1="951.19" x2="467.74" y2="954.53" class="up-wick"/>
<rect x="464.84" y="952.04" width="5.81" height="1.00" class="up-body"/>
<line x1="476.68" y1="947.77" x2="476.68" y2="955.04" class="up-wick"/>
<rect x="473.78" y="947.88" width="5.81" height="4.86" class="up-body"/>
<line x1="485.62" y1="943.11" x2="485.62" y2="946.53" class="up-wick"/>
<rect x="482.71" y="944.32" width="5.81" height="1.07" class="up-body"/>
<line x1="494.56" y1="947.21" x2="494.56" y2="952.29" class="up-wick"/>
<rect x="491.65" y="947.74" width="5.81" height="2.53" class="up-body"/>
<line x1="503.50" y1="955.20" x2="503.50" y2="967.44" class="down-wick"/>
<rect x="500.59" y="955.87" width="5.81" height="9.34" class="down-body"/>
<line x1="512.43" y1="958.44" x2="512.43" y2="965.30" class="down-wick"/>
<rect x="509.53" y="960.80" width="5.81" height="3.83" class="down-body"/>
<line x1="521.37" y1="963.71" x2="521.37" y2="974.34" class="down-wick"/>
<rect x="518.47" y="964.15" width="5.81" height="8.78" class="down-body"/>
<line x1="530.31" y1="965.65" x2="530.31" y2="970.83" class="down-wick"/>
<rect x="527.40" y="967.96" width="5.81" height="2.46" class="down-body"/>
<line x1="539.25" y1="986.79" x2="539.25" y2="1000.29" class="up-wick"/>
<rect x="536.34" y="991.74" width="5.81" height="2.37" class="up-body"/>
<line x1="548.19" y1="1009.98" x2="548.19" y2="1024.76" class="down-wick"/>
<rect x="545.28" y="1014.53" width="5.81" height="1.00" class="down-body"/>
<line x1="557.12" y1="998.18" x2="557.12" y2="1017.59" class="up-wick"/>
<rect x="554.22" y="1005.39" width="5.81" height="12.18" class="up-body"/>
<line x1="566.06" y1="997.49" x2="566.06" y2="1009.33" class="up-wick"/>
<rect x="563.16" y="999.19" width="5.81" height="9.94" class="up-body"/>
<line x1="575.00" y1="997.36" x2="575.00" y2="1006.31" class="up-wick"/>
<rect x="572.10" y="999.33" width="5.81" height="2.40" class="up-body"/>
<line x1="583.94" y1="989.38" x2="583.94" y2="999.73" class="up-wick"/>
<rect x="581.03" y="989.72" width="5.81" height="10.01" class="up-body"/>
<line x1="592.88" y1="989.99" x2="592.88" y2="995.54" class="down-wick"/>
<rect x="589.97" y="990.33" width="5.81" height="1.34" class="down-body"/>
<line x1="601.81" y1="985.60" x2="601.81" y2="990.15" class="up-wick"/>
<rect x="598.91" y="987.01" width="5.81" height="3.13" class="up-body"/>
<line x1="610.75" y1="983.83" x2="610.75" y2="1007.41" class="down-wick"/>
<rect x="607.85" y="984.08" width="5.81" height="14.51" class="down-body"/>
<line x1="619.69" y1="987.88" x2="619.69" y2="1001.23" class="up-wick"/>
<rect x="616.79" y="993.59" width="5.81" height="6.69" class="up-body"/>
<line x1="628.63" y1="993.41" x2="628.63" y2="1001.74" class="up-wick"/>
<rect x="625.72" y="996.12" width="5.81" height="5.40" class="up-body"/>
<line x1="637.57" y1="986.54" x2="637.57" y2="994.87" class="up-wick"/>
<rect x="634.66" y="986.70" width="5.81" height="6.85" class="up-body"/>
<line x1="646.50" y1="992.00" x2="646.50" y2="997.58" class="up-wick"/>
<rect x="643.60" y="994.71" width="5.81" height="2.87" class="up-body"/>
<line x1="655.44" y1="983.61" x2="655.44" y2="990.95" class="up-wick"/>
<rect x="652.54" y="986.99" width="5.81" height="3.11" class="up-body"/>
<line x1="664.38" y1="984.88" x2="664.38" y2="991.65" class="down-wick"/>
<rect x="661.48" y="985.60" width="5.81" height="2.35" class="down-body"/>
<line x1="673.32" y1="988.29" x2="673.32" y2="993.26" class="up-wick"/>
<rect x="670.41" y="990.33" width="5.81" height="2.93" class="up-body"/>
<line x1="682.26" y1="975.86" x2="682.26" y2="986.83" class="down-wick"/>
<rect x="679.35" y="982.13" width="5.81" height="2.87" class="down-body"/>
<line x1="691.19" y1="979.20" x2="691.19" y2="988.04" class="up-wick"/>
<rect x="688.29" y="979.20" width="5.81" height="6.58" class="up-body"/>
<line x1="700.13" y1="971.09" x2="700.13" y2="978.35" class="up-wick"/>
<rect x="697.23" y="973.06" width="5.81" height="3.58" class="up-body"/>
<line x1="709.07" y1="974.07" x2="709.07" y2="980.38" class="down-wick"/>
<rect x="706.17" y="974.94" width="5.81" height="1.01" class="down-body"/>
<line x1="718.01" y1="966.53" x2="718.01" y2="972.82" class="up-wick"/>
<rect x="715.10" y="967.22" width="5.81" height="3.56" class="up-body"/>
<line x1="726.95" y1="962.83" x2="726.95" y2="967.40" class="down-wick"/>
<rect x="724.04" y="965.18" width="5.81" height="1.00" class="down-body"/>
<line x1="735.88" y1="962.97" x2="735.88" y2="965.81" class="up-wick"/>
<rect x="732.98" y="964.71" width="5.81" height="1.00" class="up-body"/>
<line x1="744.82" y1="958.02" x2="744.82" y2="962.34" class="up-wick"/>
<rect x="741.92" y="959.88" width="5.81" height="1.12" class="up-body"/>
<line x1="753.76" y1="957.19" x2="753.76" y2="963.35" class="up-wick"/>
<rect x="750.86" y="958.35" width="5.81" height="4.97" class="up-body"/>
<line x1="762.70" y1="956.43" x2="762.70" y2="962.23" class="down-wick"/>
<rect x="759.79" y="956.56" width="5.81" height="3.27" class="down-body"/>
<line x1="771.64" y1="961.87" x2="771.64" y2="970.60" class="up-wick"/>
<rect x="768.73" y="961.91" width="5.81" height="4.72" class="up-body"/>
<line x1="780.58" y1="960.55" x2="780.58" y2="965.23" class="down-wick"/>
<rect x="777.67" y="963.39" width="5.81" height="1.00" class="down-body"/>
<line x1="789.51" y1="960.28" x2="789.51" y2="964.98" class="up-wick"/>
<rect x="786.61" y="960.84" width="5.81" height="1.10" class="up-body"/>
<line x1="798.45" y1="960.37" x2="798.45" y2="964.22" class="up-wick"/>
<rect x="795.55" y="960.48" width="5.81" height="3.27" class="up-body"/>
<line x1="807.39" y1="961.11" x2="807.39" y2="964.33" class="down-wick"/>
<rect x="804.48" y="961.42" width="5.81" height="2.42" class="down-body"/>
<line x1="816.33" y1="955.15" x2="816.33" y2="962.09" class="up-wick"/>
<rect x="813.42" y="959.03" width="5.81" height="3.07" class="up-body"/>
<line x1="825.27" y1="963.64" x2="825.27" y2="967.18" class="up-wick"/>
<rect x="822.36" y="963.95" width="5.81" height="1.00" class="up-body"/>
<line x1="834.20" y1="962.61" x2="834.20" y2="966.17" class="down-wick"/>
<rect x="831.30" y="963.35" width="5.81" height="2.78" class="down-body"/>
<line x1="843.14" y1="968.50" x2="843.14" y2="974.25" class="up-wick"/>
<rect x="840.24" y="969.97" width="5.81" height="1.21" class="up-body"/>
<line x1="852.08" y1="961.82" x2="852.08" y2="965.90" class="down-wick"/>
<rect x="849.17" y="963.35" width="5.81" height="1.59" class="down-body"/>
<line x1="861.02" y1="964.09" x2="861.02" y2="968.30" class="up-wick"/>
<rect x="858.11" y="964.15" width="5.81" height="3.13" class="up-body"/>
<line x1="869.96" y1="951.46" x2="869.96" y2="954.39" class="down-wick"/>
<rect x="867.05" y="953.72" width="5.81" height="1.00" class="down-body"/>
<line x1="878.89" y1="930.08" x2="878.89" y2="947.63" class="up-wick"/>
<rect x="875.99" y="932.65" width="5.81" height="12.52" class="up-body"/>
<line x1="887.83" y1="924.95" x2="887.83" y2="936.62" class="up-wick"/>
<rect x="884.93" y="927.62" width="5.81" height="1.00" class="up-body"/>
<line x1="896.77" y1="909.21" x2="896.77" y2="916.49" class="up-wick"/>
<rect x="893.87" y="911.16" width="5.81" height="4.63" class="up-body"/>
<line x1="905.71" y1="915.79" x2="905.71" y2="925.33" class="down-wick"/>
<rect x="902.80" y="916.53" width="5.81" height="7.95" class="down-body"/>
<line x1="914.65" y1="912.48" x2="914.65" y2="921.15" class="up-wick"/>
<rect x="911.74" y="912.50" width="5.81" height="8.64" class="up-body"/>
<line x1="923.58" y1="905.63" x2="923.58" y2="914.12" class="up-wick"/>
<rect x="920.68" y="906.46" width="5.81" height="3.49" class="up-body"/>
<line x1="932.52" y1="899.18" x2="932.52" y2="904.71" class="up-wick"/>
<rect x="929.62" y="900.73" width="5.81" height="3.76" class="up-body"/>
<line x1="941.46" y1="895.87" x2="941.46" y2="900.50" class="down-wick"/>
<rect x="938.56" y="897.08" width="5.81" height="1.00" class="down-body"/>
<line x1="950.40" y1="902.34" x2="950.40" y2="907.94" class="down-wick"/>
<rect x="947.49" y="904.87" width="5.81" height="1.86" class="down-body"/>
<line x1="959.34" y1="899.59" x2="959.34" y2="904.04" class="down-wick"/>
<rect x="956.43" y="902.52" width="5.81" height="1.21" class="down-body"/>
<line x1="968.27" y1="895.87" x2="968.27" y2="901.64" class="up-wick"/>
<rect x="965.37" y="895.98" width="5.81" height="4.21" class="up-body"/>
<line x1="977.21" y1="894.93" x2="977.21" y2="901.71" class="up-wick"/>
<rect x="974.31" y="894.97" width="5.81" height="3.11" class="up-body"/>
<line x1="986.15" y1="888.55" x2="986.15" y2="892.06" class="down-wick"/>
<rect x="983.25" y="889.49" width="5.81" height="1.00" class="down-body"/>
<line x1="995.09" y1="887.36" x2="995.09" y2="891.59" class="up-wick"/>
<rect x="992.18" y="888.75" width="5.81" height="2.84" class="up-body"/>
<line x1="1004.03" y1="877.49" x2="1004.03" y2="881.52" class="up-wick"/>
<rect x="1001.12" y="878.76" width="5.81" height="2.75" class="up-body"/>
<line x1="1012.96" y1="873.17" x2="1012.96" y2="880.62" class="up-wick"/>
<rect x="1010.06" y="874.02" width="5.81" height="3.31" class="up-body"/>
<line x1="1021.90" y1="859.24" x2="1021.90" y2="865.78" class="up-wick"/>
<rect x="1019.00" y="860.07" width="5.81" height="4.59" class="up-body"/>
<line x1="1030.84" y1="863.36" x2="1030.84" y2="871.69" class="down-wick"/>
<rect x="1027.94" y="863.38" width="5.81" height="2.84" class="down-body"/>
<line x1="1039.78" y1="865.58" x2="1039.78" y2="871.64" class="down-wick"/>
<rect x="1036.87" y="869.20" width="5.81" height="2.13" class="down-body"/>
<line x1="1048.72" y1="866.85" x2="1048.72" y2="872.97" class="up-wick"/>
<rect x="1045.81" y="870.01" width="5.81" height="2.96" class="up-body"/>
<line x1="1057.65" y1="865.26" x2="1057.65" y2="870.46" class="down-wick"/>
<rect x="1054.75" y="865.26" width="5.81" height="2.73" class="down-body"/>
<line x1="1066.59" y1="861.17" x2="1066.59" y2="865.60" class="up-wick"/>
<rect x="1063.69" y="863.67" width="5.81" height="1.00" class="up-body"/>
<line x1="1075.53" y1="865.47" x2="1075.53" y2="869.72" class="down-wick"/>
<rect x="1072.63" y="865.98" width="5.81" height="2.28" class="down-body"/>
<line x1="70" y1="895.64" x2="1080" y2="895.64" class="sweep-line"/>
<text x="1076" y="891.64" text-anchor="end" class="level-label">sweep 4794.60</text>
<line x1="70" y1="894.08" x2="1080" y2="894.08" class="entry-line"/>
<text x="1076" y="890.08" text-anchor="end" class="level-label">entry level 4795.30</text>
<text x="70" y="1056" class="axis-label">2026-04-20 01:00:00+00:00 to 2026-04-20 04:44:00+00:00</text>
<text x="1080" y="1056" text-anchor="end" class="axis-label">4731.02 - 4816.77</text>
</svg>