<svg xmlns="http://www.w3.org/2000/svg" width="1120" height="1054" viewBox="0 0 1120 1054">
<style>
text{font-family:Arial,Helvetica,sans-serif}.title{font-size:21px;font-weight:700;fill:#1f2937}.subtitle{font-size:12px;fill:#4b5563}.panel-title{font-size:15px;font-weight:700;fill:#111827}.muted{font-size:13px;fill:#6b7280}.plot-bg{fill:#f8fafc;stroke:#cbd5e1;stroke-width:1}.up-body{fill:#15803d;stroke:#14532d;stroke-width:.8}.down-body{fill:#b91c1c;stroke:#7f1d1d;stroke-width:.8}.up-wick{stroke:#14532d;stroke-width:1}.down-wick{stroke:#7f1d1d;stroke-width:1}.sweep-line{stroke:#7c3aed;stroke-width:1.6;stroke-dasharray:6 4}.number-line{stroke:#0f766e;stroke-width:1.4;stroke-dasharray:3 4}.entry-line{stroke:#2563eb;stroke-width:1.4}.sl-line{stroke:#dc2626;stroke-width:1.4}.tp-line{stroke:#16a34a;stroke-width:1.4}.level-label,.axis-label{font-size:11px;fill:#374151}
</style>
<text x="28" y="28" class="title">Adelin v2 visual review sample sample_065</text>
<text x="28" y="48" class="subtitle">Candidate windows are for visual labeling only and are not trade signals.</text>
<text x="560" y="48" class="subtitle" text-anchor="middle">LARGE_LOWER_WICK_REVERSAL_VISUAL_CANDIDATE | PRE_ANCHOR_SWEEP_EXTREME_CANDIDATE</text>
<text x="70" y="82" class="panel-title">H1 liquidity context</text>
<rect x="70" y="96" width="1010" height="192" class="plot-bg"/>
<line x1="81.48" y1="136.41" x2="81.48" y2="144.42" class="down-wick"/>
<rect x="77.48" y="140.29" width="8.00" height="3.99" class="down-body"/>
<line x1="104.43" y1="139.54" x2="104.43" y2="152.65" class="down-wick"/>
<rect x="100.43" y="144.28" width="8.00" height="7.09" class="down-body"/>
<line x1="127.39" y1="148.73" x2="127.39" y2="157.40" class="up-wick"/>
<rect x="123.39" y="150.05" width="8.00" height="1.26" class="up-body"/>
<line x1="150.34" y1="134.35" x2="150.34" y2="154.60" class="down-wick"/>
<rect x="146.34" y="150.06" width="8.00" height="1.85" class="down-body"/>
<line x1="173.30" y1="138.60" x2="173.30" y2="153.37" class="up-wick"/>
<rect x="169.30" y="144.03" width="8.00" height="7.88" class="up-body"/>
<line x1="196.25" y1="141.78" x2="196.25" y2="162.26" class="down-wick"/>
<rect x="192.25" y="144.03" width="8.00" height="18.23" class="down-body"/>
<line x1="219.20" y1="154.96" x2="219.20" y2="168.90" class="down-wick"/>
<rect x="215.20" y="162.24" width="8.00" height="4.42" class="down-body"/>
<line x1="242.16" y1="163.63" x2="242.16" y2="181.33" class="down-wick"/>
<rect x="238.16" y="166.67" width="8.00" height="10.52" class="down-body"/>
<line x1="265.11" y1="173.80" x2="265.11" y2="196.86" class="down-wick"/>
<rect x="261.11" y="177.19" width="8.00" height="17.27" class="down-body"/>
<line x1="288.07" y1="189.95" x2="288.07" y2="208.08" class="down-wick"/>
<rect x="284.07" y="194.47" width="8.00" height="9.74" class="down-body"/>
<line x1="311.02" y1="199.89" x2="311.02" y2="213.28" class="down-wick"/>
<rect x="307.02" y="203.96" width="8.00" height="6.59" class="down-body"/>
<line x1="333.98" y1="196.73" x2="333.98" y2="211.92" class="up-wick"/>
<rect x="329.98" y="206.24" width="8.00" height="4.38" class="up-body"/>
<line x1="356.93" y1="193.01" x2="356.93" y2="210.74" class="up-wick"/>
<rect x="352.93" y="193.95" width="8.00" height="12.28" class="up-body"/>
<line x1="379.89" y1="163.74" x2="379.89" y2="197.90" class="up-wick"/>
<rect x="375.89" y="180.94" width="8.00" height="13.02" class="up-body"/>
<line x1="402.84" y1="141.74" x2="402.84" y2="185.81" class="up-wick"/>
<rect x="398.84" y="144.84" width="8.00" height="36.11" class="up-body"/>
<line x1="425.80" y1="109.24" x2="425.80" y2="145.83" class="up-wick"/>
<rect x="421.80" y="138.42" width="8.00" height="6.45" class="up-body"/>
<line x1="448.75" y1="121.56" x2="448.75" y2="151.89" class="up-wick"/>
<rect x="444.75" y="126.82" width="8.00" height="11.59" class="up-body"/>
<line x1="471.70" y1="119.70" x2="471.70" y2="136.46" class="down-wick"/>
<rect x="467.70" y="126.82" width="8.00" height="4.45" class="down-body"/>
<line x1="494.66" y1="127.31" x2="494.66" y2="143.90" class="down-wick"/>
<rect x="490.66" y="131.27" width="8.00" height="9.85" class="down-body"/>
<line x1="517.61" y1="139.86" x2="517.61" y2="157.62" class="down-wick"/>
<rect x="513.61" y="141.12" width="8.00" height="5.40" class="down-body"/>
<line x1="540.57" y1="142.99" x2="540.57" y2="162.75" class="down-wick"/>
<rect x="536.57" y="146.50" width="8.00" height="14.05" class="down-body"/>
<line x1="563.52" y1="141.23" x2="563.52" y2="158.72" class="down-wick"/>
<rect x="559.52" y="143.58" width="8.00" height="8.67" class="down-body"/>
<line x1="586.48" y1="150.12" x2="586.48" y2="160.05" class="down-wick"/>
<rect x="582.48" y="152.25" width="8.00" height="5.12" class="down-body"/>
<line x1="609.43" y1="154.58" x2="609.43" y2="169.80" class="down-wick"/>
<rect x="605.43" y="157.36" width="8.00" height="1.00" class="down-body"/>
<line x1="632.39" y1="157.22" x2="632.39" y2="179.45" class="up-wick"/>
<rect x="628.39" y="158.17" width="8.00" height="1.00" class="up-body"/>
<line x1="655.34" y1="152.37" x2="655.34" y2="181.01" class="down-wick"/>
<rect x="651.34" y="158.17" width="8.00" height="7.50" class="down-body"/>
<line x1="678.30" y1="153.92" x2="678.30" y2="173.39" class="up-wick"/>
<rect x="674.30" y="156.20" width="8.00" height="9.47" class="up-body"/>
<line x1="701.25" y1="155.78" x2="701.25" y2="166.44" class="down-wick"/>
<rect x="697.25" y="156.14" width="8.00" height="9.47" class="down-body"/>
<line x1="724.20" y1="158.08" x2="724.20" y2="179.77" class="down-wick"/>
<rect x="720.20" y="165.59" width="8.00" height="7.17" class="down-body"/>
<line x1="747.16" y1="171.03" x2="747.16" y2="188.77" class="down-wick"/>
<rect x="743.16" y="172.76" width="8.00" height="10.85" class="down-body"/>
<line x1="770.11" y1="178.66" x2="770.11" y2="194.75" class="down-wick"/>
<rect x="766.11" y="183.61" width="8.00" height="10.07" class="down-body"/>
<line x1="793.07" y1="191.13" x2="793.07" y2="199.02" class="down-wick"/>
<rect x="789.07" y="193.67" width="8.00" height="2.03" class="down-body"/>
<line x1="816.02" y1="187.88" x2="816.02" y2="200.57" class="down-wick"/>
<rect x="812.02" y="195.77" width="8.00" height="1.58" class="down-body"/>
<line x1="838.98" y1="196.91" x2="838.98" y2="247.41" class="down-wick"/>
<rect x="834.98" y="197.36" width="8.00" height="13.27" class="down-body"/>
<line x1="861.93" y1="202.17" x2="861.93" y2="222.30" class="down-wick"/>
<rect x="857.93" y="210.62" width="8.00" height="2.10" class="down-body"/>
<line x1="884.89" y1="193.30" x2="884.89" y2="214.18" class="up-wick"/>
<rect x="880.89" y="204.72" width="8.00" height="8.01" class="up-body"/>
<line x1="907.84" y1="197.14" x2="907.84" y2="218.02" class="down-wick"/>
<rect x="903.84" y="204.72" width="8.00" height="4.44" class="down-body"/>
<line x1="930.80" y1="189.19" x2="930.80" y2="220.06" class="down-wick"/>
<rect x="926.80" y="209.16" width="8.00" height="2.67" class="down-body"/>
<line x1="953.75" y1="207.07" x2="953.75" y2="262.73" class="down-wick"/>
<rect x="949.75" y="211.83" width="8.00" height="41.52" class="down-body"/>
<line x1="976.70" y1="247.83" x2="976.70" y2="274.76" class="down-wick"/>
<rect x="972.70" y="253.35" width="8.00" height="11.28" class="down-body"/>
<line x1="999.66" y1="242.84" x2="999.66" y2="264.66" class="up-wick"/>
<rect x="995.66" y="252.48" width="8.00" height="12.16" class="up-body"/>
<line x1="1022.61" y1="249.34" x2="1022.61" y2="265.54" class="down-wick"/>
<rect x="1018.61" y="252.48" width="8.00" height="6.32" class="down-body"/>
<line x1="1045.57" y1="247.55" x2="1045.57" y2="263.99" class="up-wick"/>
<rect x="1041.57" y="257.26" width="8.00" height="1.54" class="up-body"/>
<line x1="1068.52" y1="250.49" x2="1068.52" y2="259.47" class="down-wick"/>
<rect x="1064.52" y="251.35" width="8.00" height="6.20" class="down-body"/>
<line x1="70" y1="142.91" x2="1080" y2="142.91" class="sweep-line"/>
<text x="1076" y="138.91" text-anchor="end" class="level-label">sweep 4627.78</text>
<line x1="70" y1="142.03" x2="1080" y2="142.03" class="entry-line"/>
<text x="1076" y="138.03" text-anchor="end" class="level-label">entry level 4628.63</text>
<text x="70" y="306" class="axis-label">2026-05-01 02:00:00+00:00 to 2026-05-05 01:00:00+00:00</text>
<text x="1080" y="306" text-anchor="end" class="axis-label">4488.25 - 4672.89</text>
<text x="70" y="332" class="panel-title">M15 liquidity / reaction context</text>
<rect x="70" y="346" width="1010" height="192" class="plot-bg"/>
<line x1="89.42" y1="362.57" x2="89.42" y2="414.96" class="down-wick"/>
<rect x="85.42" y="369.02" width="8.00" height="18.17" class="down-body"/>
<line x1="128.27" y1="386.28" x2="128.27" y2="432.01" class="down-wick"/>
<rect x="124.27" y="386.67" width="8.00" height="9.69" class="down-body"/>
<line x1="167.12" y1="359.24" x2="167.12" y2="400.73" class="up-wick"/>
<rect x="163.12" y="364.74" width="8.00" height="31.58" class="up-body"/>
<line x1="205.96" y1="360.24" x2="205.96" y2="407.13" class="down-wick"/>
<rect x="201.96" y="364.78" width="8.00" height="40.32" class="down-body"/>
<line x1="244.81" y1="396.23" x2="244.81" y2="437.54" class="down-wick"/>
<rect x="240.81" y="405.10" width="8.00" height="16.01" class="down-body"/>
<line x1="283.65" y1="410.16" x2="283.65" y2="429.32" class="up-wick"/>
<rect x="279.65" y="412.58" width="8.00" height="8.52" class="up-body"/>
<line x1="322.50" y1="406.14" x2="322.50" y2="430.71" class="down-wick"/>
<rect x="318.50" y="412.58" width="8.00" height="15.53" class="down-body"/>
<line x1="361.35" y1="412.63" x2="361.35" y2="436.51" class="up-wick"/>
<rect x="357.35" y="426.38" width="8.00" height="1.86" class="up-body"/>
<line x1="400.19" y1="414.79" x2="400.19" y2="467.00" class="down-wick"/>
<rect x="396.19" y="426.38" width="8.00" height="7.35" class="down-body"/>
<line x1="439.04" y1="422.66" x2="439.04" y2="478.12" class="down-wick"/>
<rect x="435.04" y="433.74" width="8.00" height="27.30" class="down-body"/>
<line x1="477.88" y1="442.87" x2="477.88" y2="464.54" class="down-wick"/>
<rect x="473.88" y="461.03" width="8.00" height="1.00" class="down-body"/>
<line x1="516.73" y1="428.29" x2="516.73" y2="465.45" class="up-wick"/>
<rect x="512.73" y="430.06" width="8.00" height="31.28" class="up-body"/>
<line x1="555.58" y1="425.78" x2="555.58" y2="503.91" class="down-wick"/>
<rect x="551.58" y="430.06" width="8.00" height="53.73" class="down-body"/>
<line x1="594.42" y1="466.96" x2="594.42" y2="511.69" class="down-wick"/>
<rect x="590.42" y="483.57" width="8.00" height="26.17" class="down-body"/>
<line x1="633.27" y1="479.51" x2="633.27" y2="518.27" class="up-wick"/>
<rect x="629.27" y="479.98" width="8.00" height="29.76" class="up-body"/>
<line x1="672.12" y1="426.64" x2="672.12" y2="482.15" class="up-wick"/>
<rect x="668.12" y="429.76" width="8.00" height="50.23" class="up-body"/>
<line x1="710.96" y1="405.62" x2="710.96" y2="471.03" class="down-wick"/>
<rect x="706.96" y="429.76" width="8.00" height="20.42" class="down-body"/>
<line x1="749.81" y1="450.18" x2="749.81" y2="523.33" class="down-wick"/>
<rect x="745.81" y="450.18" width="8.00" height="65.93" class="down-body"/>
<line x1="788.65" y1="469.17" x2="788.65" y2="524.76" class="up-wick"/>
<rect x="784.65" y="469.17" width="8.00" height="46.94" class="up-body"/>
<line x1="827.50" y1="438.32" x2="827.50" y2="481.28" class="up-wick"/>
<rect x="823.50" y="460.95" width="8.00" height="8.22" class="up-body"/>
<line x1="866.35" y1="435.55" x2="866.35" y2="467.13" class="up-wick"/>
<rect x="862.35" y="443.04" width="8.00" height="17.91" class="up-body"/>
<line x1="905.19" y1="438.84" x2="905.19" y2="450.74" class="down-wick"/>
<rect x="901.19" y="443.04" width="8.00" height="1.00" class="down-body"/>
<line x1="944.04" y1="438.02" x2="944.04" y2="493.05" class="down-wick"/>
<rect x="940.04" y="443.95" width="8.00" height="21.02" class="down-body"/>
<line x1="982.88" y1="412.06" x2="982.88" y2="464.80" class="up-wick"/>
<rect x="978.88" y="421.54" width="8.00" height="43.26" class="up-body"/>
<line x1="1021.73" y1="419.81" x2="1021.73" y2="452.60" class="down-wick"/>
<rect x="1017.73" y="421.28" width="8.00" height="16.83" class="down-body"/>
<line x1="1060.58" y1="429.58" x2="1060.58" y2="455.71" class="down-wick"/>
<rect x="1056.58" y="438.02" width="8.00" height="13.71" class="down-body"/>
<line x1="70" y1="366.25" x2="1080" y2="366.25" class="sweep-line"/>
<text x="1076" y="362.25" text-anchor="end" class="level-label">sweep 4627.78</text>
<line x1="70" y1="362.57" x2="1080" y2="362.57" class="entry-line"/>
<text x="1076" y="358.57" text-anchor="end" class="level-label">entry level 4628.63</text>
<text x="70" y="556" class="axis-label">2026-05-04 01:00:00+00:00 to 2026-05-04 07:15:00+00:00</text>
<text x="1080" y="556" text-anchor="end" class="axis-label">4588.08 - 4632.46</text>
<text x="70" y="582" class="panel-title">M5 reaction / execution context</text>
<rect x="70" y="596" width="1010" height="192" class="plot-bg"/>
<line x1="82.62" y1="613.05" x2="82.62" y2="672.99" class="down-wick"/>
<rect x="78.62" y="620.43" width="8.00" height="9.21" class="down-body"/>
<line x1="107.88" y1="621.17" x2="107.88" y2="650.72" class="down-wick"/>
<rect x="103.88" y="628.59" width="8.00" height="18.46" class="down-body"/>
<line x1="133.12" y1="638.05" x2="133.12" y2="660.52" class="up-wick"/>
<rect x="129.12" y="641.22" width="8.00" height="5.84" class="up-body"/>
<line x1="158.38" y1="640.18" x2="158.38" y2="669.18" class="down-wick"/>
<rect x="154.38" y="640.62" width="8.00" height="5.74" class="down-body"/>
<line x1="183.62" y1="646.36" x2="183.62" y2="692.49" class="down-wick"/>
<rect x="179.62" y="646.36" width="8.00" height="23.11" class="down-body"/>
<line x1="208.88" y1="642.26" x2="208.88" y2="670.86" class="up-wick"/>
<rect x="204.88" y="651.71" width="8.00" height="18.21" class="up-body"/>
<line x1="234.12" y1="636.42" x2="234.12" y2="656.71" class="up-wick"/>
<rect x="230.12" y="638.39" width="8.00" height="13.27" class="up-body"/>
<line x1="259.38" y1="621.71" x2="259.38" y2="641.96" class="up-wick"/>
<rect x="255.38" y="628.45" width="8.00" height="10.10" class="up-body"/>
<line x1="284.62" y1="609.24" x2="284.62" y2="628.45" class="up-wick"/>
<rect x="280.62" y="615.53" width="8.00" height="12.92" class="up-body"/>
<line x1="309.88" y1="610.38" x2="309.88" y2="627.41" class="down-wick"/>
<rect x="305.88" y="615.58" width="8.00" height="9.16" class="down-body"/>
<line x1="335.12" y1="618.65" x2="335.12" y2="657.01" class="down-wick"/>
<rect x="331.12" y="624.54" width="8.00" height="32.12" class="down-body"/>
<line x1="360.38" y1="648.34" x2="360.38" y2="664.03" class="down-wick"/>
<rect x="356.38" y="656.66" width="8.00" height="5.05" class="down-body"/>
<line x1="385.62" y1="651.56" x2="385.62" y2="679.77" class="up-wick"/>
<rect x="381.62" y="659.33" width="8.00" height="2.38" class="up-body"/>
<line x1="410.88" y1="656.02" x2="410.88" y2="688.98" class="down-wick"/>
<rect x="406.88" y="659.43" width="8.00" height="18.91" class="down-body"/>
<line x1="436.12" y1="676.31" x2="436.12" y2="698.83" class="down-wick"/>
<rect x="432.12" y="678.34" width="8.00" height="1.68" class="down-body"/>
<line x1="461.38" y1="670.86" x2="461.38" y2="689.43" class="up-wick"/>
<rect x="457.38" y="674.13" width="8.00" height="5.89" class="up-body"/>
<line x1="486.62" y1="674.08" x2="486.62" y2="685.91" class="down-wick"/>
<rect x="482.62" y="674.13" width="8.00" height="2.43" class="down-body"/>
<line x1="511.88" y1="667.50" x2="511.88" y2="682.05" class="up-wick"/>
<rect x="507.88" y="670.27" width="8.00" height="6.29" class="up-body"/>
<line x1="537.12" y1="663.89" x2="537.12" y2="678.64" class="up-wick"/>
<rect x="533.12" y="667.90" width="8.00" height="2.38" class="up-body"/>
<line x1="562.38" y1="662.90" x2="562.38" y2="681.80" class="down-wick"/>
<rect x="558.38" y="667.90" width="8.00" height="13.61" class="down-body"/>
<line x1="587.62" y1="680.02" x2="587.62" y2="691.01" class="down-wick"/>
<rect x="583.62" y="681.51" width="8.00" height="6.53" class="down-body"/>
<line x1="612.88" y1="673.88" x2="612.88" y2="697.64" class="up-wick"/>
<rect x="608.88" y="683.78" width="8.00" height="4.41" class="up-body"/>
<line x1="638.12" y1="671.61" x2="638.12" y2="690.02" class="up-wick"/>
<rect x="634.12" y="674.73" width="8.00" height="9.45" class="up-body"/>
<line x1="663.38" y1="670.32" x2="663.38" y2="694.38" class="down-wick"/>
<rect x="659.38" y="674.73" width="8.00" height="11.33" class="down-body"/>
<line x1="688.62" y1="685.96" x2="688.62" y2="732.54" class="down-wick"/>
<rect x="684.62" y="686.06" width="8.00" height="26.63" class="down-body"/>
<line x1="713.88" y1="672.80" x2="713.88" y2="720.41" class="up-wick"/>
<rect x="709.88" y="679.28" width="8.00" height="33.46" class="up-body"/>
<line x1="739.12" y1="675.67" x2="739.12" y2="705.22" class="down-wick"/>
<rect x="735.12" y="679.28" width="8.00" height="15.20" class="down-body"/>
<line x1="764.38" y1="681.80" x2="764.38" y2="729.42" class="down-wick"/>
<rect x="760.38" y="694.47" width="8.00" height="21.83" class="down-body"/>
<line x1="789.62" y1="707.74" x2="789.62" y2="744.76" class="down-wick"/>
<rect x="785.62" y="716.30" width="8.00" height="16.43" class="down-body"/>
<line x1="814.88" y1="721.75" x2="814.88" y2="745.26" class="up-wick"/>
<rect x="810.88" y="725.71" width="8.00" height="7.23" class="up-body"/>
<line x1="840.12" y1="705.17" x2="840.12" y2="729.72" class="up-wick"/>
<rect x="836.12" y="713.68" width="8.00" height="12.03" class="up-body"/>
<line x1="865.38" y1="704.92" x2="865.38" y2="728.48" class="down-wick"/>
<rect x="861.38" y="713.38" width="8.00" height="9.50" class="down-body"/>
<line x1="890.62" y1="710.61" x2="890.62" y2="726.10" class="down-wick"/>
<rect x="886.62" y="722.89" width="8.00" height="3.22" class="down-body"/>
<line x1="915.88" y1="703.19" x2="915.88" y2="730.76" class="up-wick"/>
<rect x="911.88" y="708.04" width="8.00" height="18.02" class="up-body"/>
<line x1="941.12" y1="705.61" x2="941.12" y2="720.46" class="up-wick"/>
<rect x="937.12" y="707.64" width="8.00" height="1.00" class="up-body"/>
<line x1="966.38" y1="688.24" x2="966.38" y2="708.73" class="up-wick"/>
<rect x="962.38" y="690.27" width="8.00" height="17.18" class="up-body"/>
<line x1="991.62" y1="685.37" x2="991.62" y2="752.88" class="down-wick"/>
<rect x="987.62" y="690.27" width="8.00" height="58.95" class="down-body"/>
<line x1="1016.88" y1="737.39" x2="1016.88" y2="766.49" class="down-wick"/>
<rect x="1012.88" y="749.22" width="8.00" height="9.80" class="down-body"/>
<line x1="1042.12" y1="745.41" x2="1042.12" y2="774.76" class="up-wick"/>
<rect x="1038.12" y="751.74" width="8.00" height="7.28" class="up-body"/>
<line x1="1067.38" y1="732.49" x2="1067.38" y2="761.49" class="down-wick"/>
<rect x="1063.38" y="751.50" width="8.00" height="7.47" class="down-body"/>
<line x1="70" y1="617.26" x2="1080" y2="617.26" class="sweep-line"/>
<text x="1076" y="613.26" text-anchor="end" class="level-label">sweep 4627.78</text>
<line x1="70" y1="613.05" x2="1080" y2="613.05" class="entry-line"/>
<text x="1076" y="609.05" text-anchor="end" class="level-label">entry level 4628.63</text>
<text x="70" y="806" class="axis-label">2026-05-04 01:00:00+00:00 to 2026-05-04 04:15:00+00:00</text>
<text x="1080" y="806" text-anchor="end" class="axis-label">4593.28 - 4632.08</text>
<text x="70" y="832" class="panel-title">M1 execution window</text>
<rect x="70" y="846" width="1010" height="192" class="plot-bg"/>
<line x1="72.58" y1="870.43" x2="72.58" y2="922.99" class="down-wick"/>
<rect x="70.90" y="870.43" width="3.35" height="37.47" class="down-body"/>
<line x1="77.73" y1="867.26" x2="77.73" y2="911.02" class="up-wick"/>
<rect x="76.05" y="867.80" width="3.35" height="40.09" class="up-body"/>
<line x1="82.88" y1="863.05" x2="82.88" y2="896.66" class="down-wick"/>
<rect x="81.21" y="867.80" width="3.35" height="18.51" class="down-body"/>
<line x1="88.04" y1="875.28" x2="88.04" y2="895.67" class="up-wick"/>
<rect x="86.36" y="876.12" width="3.35" height="10.20" class="up-body"/>
<line x1="93.19" y1="875.48" x2="93.19" y2="894.43" class="down-wick"/>
<rect x="91.51" y="875.48" width="3.35" height="4.16" class="down-body"/>
<line x1="98.34" y1="872.16" x2="98.34" y2="891.36" class="up-wick"/>
<rect x="96.67" y="873.74" width="3.35" height="4.85" class="up-body"/>
<line x1="103.49" y1="872.36" x2="103.49" y2="879.58" class="up-wick"/>
<rect x="101.82" y="873.25" width="3.35" height="1.00" class="up-body"/>
<line x1="108.65" y1="872.31" x2="108.65" y2="881.02" class="down-wick"/>
<rect x="106.97" y="873.74" width="3.35" height="4.75" class="down-body"/>
<line x1="113.80" y1="871.17" x2="113.80" y2="878.84" class="up-wick"/>
<rect x="112.13" y="874.19" width="3.35" height="4.11" class="up-body"/>
<line x1="118.95" y1="874.39" x2="118.95" y2="900.72" class="down-wick"/>
<rect x="117.28" y="874.39" width="3.35" height="22.67" class="down-body"/>
<line x1="124.11" y1="894.24" x2="124.11" y2="910.07" class="down-wick"/>
<rect x="122.43" y="897.06" width="3.35" height="1.83" class="down-body"/>
<line x1="129.26" y1="891.12" x2="129.26" y2="902.75" class="up-wick"/>
<rect x="127.59" y="896.07" width="3.35" height="1.00" class="up-body"/>
<line x1="134.41" y1="890.52" x2="134.41" y2="905.82" class="down-wick"/>
<rect x="132.74" y="895.72" width="3.35" height="9.90" class="down-body"/>
<line x1="139.57" y1="898.44" x2="139.57" y2="910.52" class="up-wick"/>
<rect x="137.89" y="903.24" width="3.35" height="2.38" class="up-body"/>
<line x1="144.72" y1="888.05" x2="144.72" y2="903.24" class="up-wick"/>
<rect x="143.04" y="891.22" width="3.35" height="12.03" class="up-body"/>
<line x1="149.87" y1="890.62" x2="149.87" y2="911.41" class="down-wick"/>
<rect x="148.20" y="890.62" width="3.35" height="17.72" class="down-body"/>
<line x1="155.03" y1="899.38" x2="155.03" y2="919.18" class="up-wick"/>
<rect x="153.35" y="903.79" width="3.35" height="4.55" class="up-body"/>
<line x1="160.18" y1="890.18" x2="160.18" y2="904.09" class="up-wick"/>
<rect x="158.50" y="892.70" width="3.35" height="11.09" class="up-body"/>
<line x1="165.33" y1="892.65" x2="165.33" y2="902.35" class="down-wick"/>
<rect x="163.66" y="892.70" width="3.35" height="6.83" class="down-body"/>
<line x1="170.48" y1="895.57" x2="170.48" y2="904.53" class="up-wick"/>
<rect x="168.81" y="896.36" width="3.35" height="3.17" class="up-body"/>
<line x1="175.64" y1="896.36" x2="175.64" y2="907.45" class="down-wick"/>
<rect x="173.96" y="896.36" width="3.35" height="9.80" class="down-body"/>
<line x1="180.79" y1="898.49" x2="180.79" y2="925.47" class="down-wick"/>
<rect x="179.12" y="906.16" width="3.35" height="16.78" class="down-body"/>
<line x1="185.94" y1="920.77" x2="185.94" y2="942.49" class="down-wick"/>
<rect x="184.27" y="922.94" width="3.35" height="4.60" class="down-body"/>
<line x1="191.10" y1="911.02" x2="191.10" y2="927.55" class="up-wick"/>
<rect x="189.42" y="914.83" width="3.35" height="12.72" class="up-body"/>
<line x1="196.25" y1="914.13" x2="196.25" y2="920.91" class="down-wick"/>
<rect x="194.58" y="914.83" width="3.35" height="4.65" class="down-body"/>
<line x1="201.40" y1="908.09" x2="201.40" y2="920.86" class="up-wick"/>
<rect x="199.73" y="908.99" width="3.35" height="10.94" class="up-body"/>
<line x1="206.56" y1="900.42" x2="206.56" y2="909.53" class="up-wick"/>
<rect x="204.88" y="903.84" width="3.35" height="5.15" class="up-body"/>
<line x1="211.71" y1="898.89" x2="211.71" y2="903.84" class="up-wick"/>
<rect x="210.03" y="898.89" width="3.35" height="4.95" class="up-body"/>
<line x1="216.86" y1="892.26" x2="216.86" y2="902.75" class="up-wick"/>
<rect x="215.19" y="897.06" width="3.35" height="1.83" class="up-body"/>
<line x1="222.02" y1="896.07" x2="222.02" y2="907.60" class="down-wick"/>
<rect x="220.34" y="897.06" width="3.35" height="4.65" class="down-body"/>
<line x1="227.17" y1="899.88" x2="227.17" y2="906.71" class="up-wick"/>
<rect x="225.49" y="901.56" width="3.35" height="1.00" class="up-body"/>
<line x1="232.32" y1="893.39" x2="232.32" y2="902.65" class="up-wick"/>
<rect x="230.65" y="896.07" width="3.35" height="5.49" class="up-body"/>
<line x1="237.47" y1="895.97" x2="237.47" y2="900.32" class="down-wick"/>
<rect x="235.80" y="896.07" width="3.35" height="2.77" class="down-body"/>
<line x1="242.63" y1="897.21" x2="242.63" y2="899.98" class="down-wick"/>
<rect x="240.95" y="898.74" width="3.35" height="1.09" class="down-body"/>
<line x1="247.78" y1="886.42" x2="247.78" y2="899.88" class="up-wick"/>
<rect x="246.11" y="888.39" width="3.35" height="11.48" class="up-body"/>
<line x1="252.93" y1="886.42" x2="252.93" y2="891.96" class="down-wick"/>
<rect x="251.26" y="888.54" width="3.35" height="1.00" class="down-body"/>
<line x1="258.09" y1="880.67" x2="258.09" y2="890.42" class="up-wick"/>
<rect x="256.41" y="885.72" width="3.35" height="3.12" class="up-body"/>
<line x1="263.24" y1="880.48" x2="263.24" y2="889.09" class="up-wick"/>
<rect x="261.57" y="880.72" width="3.35" height="4.95" class="up-body"/>
<line x1="268.39" y1="871.71" x2="268.39" y2="880.72" class="up-wick"/>
<rect x="266.72" y="872.16" width="3.35" height="8.56" class="up-body"/>
<line x1="273.55" y1="872.31" x2="273.55" y2="879.88" class="down-wick"/>
<rect x="271.87" y="872.31" width="3.35" height="6.14" class="down-body"/>
<line x1="278.70" y1="866.86" x2="278.70" y2="878.45" class="up-wick"/>
<rect x="277.02" y="866.86" width="3.35" height="11.58" class="up-body"/>
<line x1="283.85" y1="865.92" x2="283.85" y2="867.51" class="up-wick"/>
<rect x="282.18" y="866.76" width="3.35" height="1.00" class="up-body"/>
<line x1="289.01" y1="866.72" x2="289.01" y2="870.72" class="down-wick"/>
<rect x="287.33" y="866.76" width="3.35" height="3.22" class="down-body"/>
<line x1="294.16" y1="859.24" x2="294.16" y2="870.03" class="up-wick"/>
<rect x="292.48" y="861.82" width="3.35" height="8.17" class="up-body"/>
<line x1="299.31" y1="861.72" x2="299.31" y2="868.45" class="down-wick"/>
<rect x="297.64" y="861.82" width="3.35" height="3.71" class="down-body"/>
<line x1="304.46" y1="861.32" x2="304.46" y2="869.39" class="up-wick"/>
<rect x="302.79" y="863.40" width="3.35" height="2.18" class="up-body"/>
<line x1="309.62" y1="861.91" x2="309.62" y2="864.98" class="up-wick"/>
<rect x="307.94" y="863.20" width="3.35" height="1.00" class="up-body"/>
<line x1="314.77" y1="860.38" x2="314.77" y2="868.50" class="down-wick"/>
<rect x="313.10" y="863.20" width="3.35" height="5.25" class="down-body"/>
<line x1="319.92" y1="866.57" x2="319.92" y2="870.33" class="down-wick"/>
<rect x="318.25" y="868.45" width="3.35" height="1.73" class="down-body"/>
<line x1="325.08" y1="870.28" x2="325.08" y2="877.41" class="down-wick"/>
<rect x="323.40" y="870.28" width="3.35" height="4.45" class="down-body"/>
<line x1="330.23" y1="871.17" x2="330.23" y2="877.01" class="up-wick"/>
<rect x="328.55" y="872.41" width="3.35" height="2.13" class="up-body"/>
<line x1="335.38" y1="868.65" x2="335.38" y2="873.40" class="up-wick"/>
<rect x="333.71" y="870.82" width="3.35" height="1.58" class="up-body"/>
<line x1="340.54" y1="870.72" x2="340.54" y2="886.66" class="down-wick"/>
<rect x="338.86" y="870.77" width="3.35" height="15.84" class="down-body"/>
<line x1="345.69" y1="885.87" x2="345.69" y2="906.41" class="down-wick"/>
<rect x="344.01" y="886.61" width="3.35" height="14.40" class="down-body"/>
<line x1="350.84" y1="899.53" x2="350.84" y2="907.01" class="down-wick"/>
<rect x="349.17" y="901.02" width="3.35" height="5.64" class="down-body"/>
<line x1="355.99" y1="898.34" x2="355.99" y2="909.58" class="down-wick"/>
<rect x="354.32" y="906.66" width="3.35" height="1.00" class="down-body"/>
<line x1="361.15" y1="903.69" x2="361.15" y2="910.57" class="up-wick"/>
<rect x="359.47" y="905.52" width="3.35" height="1.29" class="up-body"/>
<line x1="366.30" y1="900.27" x2="366.30" y2="906.02" class="up-wick"/>
<rect x="364.63" y="903.99" width="3.35" height="1.53" class="up-body"/>
<line x1="371.45" y1="902.85" x2="371.45" y2="914.03" class="down-wick"/>
<rect x="369.78" y="903.99" width="3.35" height="8.71" class="down-body"/>
<line x1="376.61" y1="905.82" x2="376.61" y2="913.14" class="up-wick"/>
<rect x="374.93" y="911.71" width="3.35" height="1.00" class="up-body"/>
<line x1="381.76" y1="911.66" x2="381.76" y2="921.56" class="down-wick"/>
<rect x="380.09" y="911.71" width="3.35" height="9.01" class="down-body"/>
<line x1="386.91" y1="910.32" x2="386.91" y2="929.77" class="up-wick"/>
<rect x="385.24" y="915.42" width="3.35" height="5.30" class="up-body"/>
<line x1="392.07" y1="908.14" x2="392.07" y2="924.38" class="down-wick"/>
<rect x="390.39" y="915.42" width="3.35" height="8.96" class="down-body"/>
<line x1="397.22" y1="911.31" x2="397.22" y2="924.73" class="up-wick"/>
<rect x="395.54" y="911.31" width="3.35" height="13.07" class="up-body"/>
<line x1="402.37" y1="901.56" x2="402.37" y2="911.71" class="up-wick"/>
<rect x="400.70" y="909.33" width="3.35" height="1.98" class="up-body"/>
<line x1="407.53" y1="906.02" x2="407.53" y2="911.31" class="up-wick"/>
<rect x="405.85" y="909.43" width="3.35" height="1.00" class="up-body"/>
<line x1="412.68" y1="906.71" x2="412.68" y2="911.46" class="up-wick"/>
<rect x="411.00" y="908.49" width="3.35" height="1.00" class="up-body"/>
<line x1="417.83" y1="907.01" x2="417.83" y2="919.08" class="down-wick"/>
<rect x="416.16" y="908.29" width="3.35" height="10.79" class="down-body"/>
<line x1="422.98" y1="915.87" x2="422.98" y2="938.98" class="down-wick"/>
<rect x="421.31" y="919.08" width="3.35" height="12.23" class="down-body"/>
<line x1="428.14" y1="927.70" x2="428.14" y2="933.14" class="up-wick"/>
<rect x="426.46" y="928.34" width="3.35" height="3.07" class="up-body"/>
<line x1="433.29" y1="928.04" x2="433.29" y2="938.29" class="down-wick"/>
<rect x="431.62" y="928.34" width="3.35" height="2.82" class="down-body"/>
<line x1="438.44" y1="926.31" x2="438.44" y2="938.09" class="down-wick"/>
<rect x="436.77" y="931.16" width="3.35" height="5.44" class="down-body"/>
<line x1="443.60" y1="934.82" x2="443.60" y2="948.83" class="down-wick"/>
<rect x="441.92" y="936.60" width="3.35" height="9.01" class="down-body"/>
<line x1="448.75" y1="939.53" x2="448.75" y2="946.60" class="up-wick"/>
<rect x="447.08" y="939.53" width="3.35" height="6.09" class="up-body"/>
<line x1="453.90" y1="929.92" x2="453.90" y2="940.66" class="up-wick"/>
<rect x="452.23" y="930.02" width="3.35" height="9.50" class="up-body"/>
<line x1="459.06" y1="928.54" x2="459.06" y2="939.43" class="down-wick"/>
<rect x="457.38" y="930.02" width="3.35" height="6.39" class="down-body"/>
<line x1="464.21" y1="925.86" x2="464.21" y2="938.29" class="up-wick"/>
<rect x="462.53" y="929.13" width="3.35" height="7.67" class="up-body"/>
<line x1="469.36" y1="923.69" x2="469.36" y2="929.92" class="up-wick"/>
<rect x="467.69" y="926.75" width="3.35" height="2.38" class="up-body"/>
<line x1="474.52" y1="921.51" x2="474.52" y2="932.55" class="up-wick"/>
<rect x="472.84" y="921.56" width="3.35" height="5.30" class="up-body"/>
<line x1="479.67" y1="920.86" x2="479.67" y2="925.77" class="down-wick"/>
<rect x="477.99" y="921.56" width="3.35" height="2.57" class="down-body"/>
<line x1="484.82" y1="924.08" x2="484.82" y2="933.19" class="down-wick"/>
<rect x="483.15" y="924.13" width="3.35" height="3.91" class="down-body"/>
<line x1="489.97" y1="926.21" x2="489.97" y2="935.57" class="down-wick"/>
<rect x="488.30" y="928.04" width="3.35" height="5.35" class="down-body"/>
<line x1="495.13" y1="933.34" x2="495.13" y2="935.91" class="down-wick"/>
<rect x="493.45" y="933.34" width="3.35" height="1.19" class="down-body"/>
<line x1="500.28" y1="926.80" x2="500.28" y2="934.97" class="up-wick"/>
<rect x="498.61" y="927.30" width="3.35" height="7.28" class="up-body"/>
<line x1="505.43" y1="924.43" x2="505.43" y2="929.08" class="up-wick"/>
<rect x="503.76" y="926.56" width="3.35" height="1.00" class="up-body"/>
<line x1="510.59" y1="921.26" x2="510.59" y2="932.05" class="up-wick"/>
<rect x="508.91" y="921.76" width="3.35" height="4.80" class="up-body"/>
<line x1="515.74" y1="920.52" x2="515.74" y2="924.28" class="down-wick"/>
<rect x="514.07" y="921.76" width="3.35" height="1.00" class="down-body"/>
<line x1="520.89" y1="922.20" x2="520.89" y2="928.54" class="down-wick"/>
<rect x="519.22" y="922.50" width="3.35" height="4.95" class="down-body"/>
<line x1="526.05" y1="925.07" x2="526.05" y2="929.53" class="down-wick"/>
<rect x="524.37" y="927.45" width="3.35" height="1.00" class="down-body"/>
<line x1="531.20" y1="917.50" x2="531.20" y2="928.49" class="up-wick"/>
<rect x="529.52" y="920.27" width="3.35" height="7.72" class="up-body"/>
<line x1="536.35" y1="918.74" x2="536.35" y2="923.04" class="down-wick"/>
<rect x="534.68" y="920.27" width="3.35" height="1.53" class="down-body"/>
<line x1="541.51" y1="920.57" x2="541.51" y2="928.64" class="up-wick"/>
<rect x="539.83" y="920.57" width="3.35" height="1.24" class="up-body"/>
<line x1="546.66" y1="915.87" x2="546.66" y2="921.06" class="up-wick"/>
<rect x="544.98" y="916.11" width="3.35" height="4.55" class="up-body"/>
<line x1="551.81" y1="913.89" x2="551.81" y2="920.77" class="down-wick"/>
<rect x="550.14" y="916.21" width="3.35" height="4.45" class="down-body"/>
<line x1="556.96" y1="915.42" x2="556.96" y2="920.67" class="up-wick"/>
<rect x="555.29" y="917.90" width="3.35" height="2.77" class="up-body"/>
<line x1="562.12" y1="915.42" x2="562.12" y2="918.19" class="up-wick"/>
<rect x="560.44" y="916.71" width="3.35" height="1.19" class="up-body"/>
<line x1="567.27" y1="913.44" x2="567.27" y2="920.91" class="up-wick"/>
<rect x="565.60" y="914.33" width="3.35" height="2.38" class="up-body"/>
<line x1="572.42" y1="912.90" x2="572.42" y2="924.82" class="down-wick"/>
<rect x="570.75" y="914.18" width="3.35" height="5.20" class="down-body"/>
<line x1="577.58" y1="915.37" x2="577.58" y2="919.87" class="up-wick"/>
<rect x="575.90" y="917.75" width="3.35" height="1.68" class="up-body"/>
<line x1="582.73" y1="914.28" x2="582.73" y2="931.80" class="down-wick"/>
<rect x="581.05" y="917.75" width="3.35" height="13.76" class="down-body"/>
<line x1="587.88" y1="930.02" x2="587.88" y2="935.47" class="down-wick"/>
<rect x="586.21" y="931.51" width="3.35" height="3.56" class="down-body"/>
<line x1="593.04" y1="931.56" x2="593.04" y2="936.36" class="up-wick"/>
<rect x="591.36" y="933.83" width="3.35" height="1.24" class="up-body"/>
<line x1="598.19" y1="933.24" x2="598.19" y2="935.81" class="down-wick"/>
<rect x="596.51" y="933.83" width="3.35" height="1.00" class="down-body"/>
<line x1="603.34" y1="932.84" x2="603.34" y2="936.70" class="up-wick"/>
<rect x="601.67" y="933.88" width="3.35" height="1.00" class="up-body"/>
<line x1="608.49" y1="931.56" x2="608.49" y2="941.01" class="down-wick"/>
<rect x="606.82" y="933.88" width="3.35" height="4.16" class="down-body"/>
<line x1="613.65" y1="938.19" x2="613.65" y2="947.64" class="down-wick"/>
<rect x="611.97" y="938.19" width="3.35" height="7.52" class="down-body"/>
<line x1="618.80" y1="930.37" x2="618.80" y2="946.60" class="up-wick"/>
<rect x="617.13" y="933.98" width="3.35" height="11.73" class="up-body"/>
<line x1="623.95" y1="923.88" x2="623.95" y2="933.98" class="up-wick"/>
<rect x="622.28" y="928.29" width="3.35" height="5.69" class="up-body"/>
<line x1="629.11" y1="928.14" x2="629.11" y2="934.03" class="down-wick"/>
<rect x="627.43" y="928.29" width="3.35" height="5.25" class="down-body"/>
<line x1="634.26" y1="928.49" x2="634.26" y2="935.61" class="down-wick"/>
<rect x="632.59" y="933.54" width="3.35" height="1.00" class="down-body"/>
<line x1="639.41" y1="933.14" x2="639.41" y2="940.02" class="down-wick"/>
<rect x="637.74" y="934.18" width="3.35" height="3.37" class="down-body"/>
<line x1="644.57" y1="922.94" x2="644.57" y2="937.59" class="up-wick"/>
<rect x="642.89" y="926.11" width="3.35" height="11.43" class="up-body"/>
<line x1="649.72" y1="924.97" x2="649.72" y2="929.87" class="up-wick"/>
<rect x="648.04" y="924.97" width="3.35" height="1.34" class="up-body"/>
<line x1="654.87" y1="921.61" x2="654.87" y2="925.32" class="up-wick"/>
<rect x="653.20" y="923.69" width="3.35" height="1.29" class="up-body"/>
<line x1="660.03" y1="922.94" x2="660.03" y2="925.02" class="down-wick"/>
<rect x="658.35" y="923.69" width="3.35" height="1.04" class="down-body"/>
<line x1="665.18" y1="923.49" x2="665.18" y2="928.19" class="up-wick"/>
<rect x="663.50" y="923.88" width="3.35" height="1.00" class="up-body"/>
<line x1="670.33" y1="920.32" x2="670.33" y2="924.38" class="up-wick"/>
<rect x="668.66" y="921.66" width="3.35" height="2.13" class="up-body"/>
<line x1="675.48" y1="920.67" x2="675.48" y2="934.28" class="down-wick"/>
<rect x="673.81" y="921.71" width="3.35" height="10.15" class="down-body"/>
<line x1="680.64" y1="929.13" x2="680.64" y2="944.38" class="down-wick"/>
<rect x="678.96" y="931.85" width="3.35" height="11.73" class="down-body"/>
<line x1="685.79" y1="934.58" x2="685.79" y2="943.58" class="up-wick"/>
<rect x="684.12" y="936.06" width="3.35" height="7.52" class="up-body"/>
<line x1="690.94" y1="935.96" x2="690.94" y2="959.42" class="down-wick"/>
<rect x="689.27" y="936.06" width="3.35" height="17.32" class="down-body"/>
<line x1="696.10" y1="952.79" x2="696.10" y2="975.66" class="down-wick"/>
<rect x="694.42" y="953.38" width="3.35" height="19.95" class="down-body"/>
<line x1="701.25" y1="963.14" x2="701.25" y2="982.54" class="up-wick"/>
<rect x="699.58" y="967.05" width="3.35" height="6.29" class="up-body"/>
<line x1="706.40" y1="962.99" x2="706.40" y2="976.85" class="down-wick"/>
<rect x="704.73" y="967.05" width="3.35" height="8.96" class="down-body"/>
<line x1="711.56" y1="959.72" x2="711.56" y2="976.85" class="up-wick"/>
<rect x="709.88" y="962.69" width="3.35" height="13.31" class="up-body"/>
<line x1="716.71" y1="954.42" x2="716.71" y2="970.41" class="up-wick"/>
<rect x="715.03" y="958.14" width="3.35" height="4.60" class="up-body"/>
<line x1="721.86" y1="945.51" x2="721.86" y2="959.72" class="up-wick"/>
<rect x="720.19" y="945.71" width="3.35" height="12.42" class="up-body"/>
<line x1="727.02" y1="925.96" x2="727.02" y2="949.47" class="up-wick"/>
<rect x="725.34" y="927.99" width="3.35" height="17.72" class="up-body"/>
<line x1="732.17" y1="922.80" x2="732.17" y2="936.36" class="down-wick"/>
<rect x="730.49" y="927.99" width="3.35" height="6.48" class="down-body"/>
<line x1="737.32" y1="924.97" x2="737.32" y2="935.42" class="up-wick"/>
<rect x="735.65" y="929.28" width="3.35" height="5.20" class="up-body"/>
<line x1="742.47" y1="925.67" x2="742.47" y2="939.48" class="down-wick"/>
<rect x="740.80" y="929.28" width="3.35" height="7.47" class="down-body"/>
<line x1="747.63" y1="930.62" x2="747.63" y2="941.01" class="up-wick"/>
<rect x="745.95" y="936.01" width="3.35" height="1.00" class="up-body"/>
<line x1="752.78" y1="936.01" x2="752.78" y2="955.22" class="down-wick"/>
<rect x="751.11" y="936.01" width="3.35" height="15.59" class="down-body"/>
<line x1="757.93" y1="944.23" x2="757.93" y2="951.60" class="up-wick"/>
<rect x="756.26" y="946.45" width="3.35" height="5.15" class="up-body"/>
<line x1="763.09" y1="940.96" x2="763.09" y2="950.56" class="up-wick"/>
<rect x="761.41" y="944.47" width="3.35" height="2.28" class="up-body"/>
<line x1="768.24" y1="931.80" x2="768.24" y2="945.91" class="up-wick"/>
<rect x="766.57" y="937.89" width="3.35" height="6.58" class="up-body"/>
<line x1="773.39" y1="937.64" x2="773.39" y2="948.83" class="down-wick"/>
<rect x="771.72" y="937.79" width="3.35" height="9.06" class="down-body"/>
<line x1="778.55" y1="944.52" x2="778.55" y2="959.42" class="down-wick"/>
<rect x="776.87" y="946.85" width="3.35" height="10.25" class="down-body"/>
<line x1="783.70" y1="956.21" x2="783.70" y2="967.59" class="down-wick"/>
<rect x="782.02" y="957.10" width="3.35" height="10.30" class="down-body"/>
<line x1="788.85" y1="966.15" x2="788.85" y2="979.42" class="up-wick"/>
<rect x="787.18" y="966.30" width="3.35" height="1.09" class="up-body"/>
<line x1="794.01" y1="957.74" x2="794.01" y2="972.00" class="down-wick"/>
<rect x="792.33" y="966.30" width="3.35" height="5.25" class="down-body"/>
<line x1="799.16" y1="971.55" x2="799.16" y2="984.67" class="down-wick"/>
<rect x="797.48" y="971.60" width="3.35" height="9.75" class="down-body"/>
<line x1="804.31" y1="977.54" x2="804.31" y2="991.94" class="down-wick"/>
<rect x="802.64" y="981.35" width="3.35" height="4.21" class="down-body"/>
<line x1="809.46" y1="981.65" x2="809.46" y2="994.76" class="down-wick"/>
<rect x="807.79" y="985.51" width="3.35" height="1.00" class="down-body"/>
<line x1="814.62" y1="978.88" x2="814.62" y2="988.13" class="up-wick"/>
<rect x="812.94" y="982.74" width="3.35" height="3.27" class="up-body"/>
<line x1="819.77" y1="978.53" x2="819.77" y2="986.99" class="up-wick"/>
<rect x="818.10" y="981.10" width="3.35" height="1.83" class="up-body"/>
<line x1="824.92" y1="979.37" x2="824.92" y2="995.26" class="down-wick"/>
<rect x="823.25" y="981.10" width="3.35" height="11.93" class="down-body"/>
<line x1="830.08" y1="983.13" x2="830.08" y2="995.11" class="up-wick"/>
<rect x="828.40" y="983.13" width="3.35" height="9.90" class="up-body"/>
<line x1="835.23" y1="976.60" x2="835.23" y2="984.81" class="up-wick"/>
<rect x="833.55" y="977.24" width="3.35" height="5.89" class="up-body"/>
<line x1="840.38" y1="971.75" x2="840.38" y2="978.13" class="up-wick"/>
<rect x="838.71" y="975.71" width="3.35" height="1.53" class="up-body"/>
<line x1="845.54" y1="969.97" x2="845.54" y2="979.42" class="down-wick"/>
<rect x="843.86" y="975.71" width="3.35" height="3.71" class="down-body"/>
<line x1="850.69" y1="959.03" x2="850.69" y2="979.72" class="up-wick"/>
<rect x="849.01" y="961.11" width="3.35" height="18.31" class="up-body"/>
<line x1="855.84" y1="958.83" x2="855.84" y2="963.63" class="down-wick"/>
<rect x="854.17" y="961.06" width="3.35" height="1.00" class="down-body"/>
<line x1="860.99" y1="955.17" x2="860.99" y2="961.75" class="up-wick"/>
<rect x="859.32" y="958.73" width="3.35" height="2.67" class="up-body"/>
<line x1="866.15" y1="957.20" x2="866.15" y2="966.45" class="down-wick"/>
<rect x="864.47" y="958.73" width="3.35" height="4.95" class="down-body"/>
<line x1="871.30" y1="954.92" x2="871.30" y2="963.88" class="up-wick"/>
<rect x="869.63" y="957.44" width="3.35" height="5.94" class="up-body"/>
<line x1="876.45" y1="957.00" x2="876.45" y2="968.63" class="down-wick"/>
<rect x="874.78" y="957.44" width="3.35" height="8.36" class="down-body"/>
<line x1="881.61" y1="965.07" x2="881.61" y2="974.02" class="down-wick"/>
<rect x="879.93" y="965.76" width="3.35" height="2.67" class="down-body"/>
<line x1="886.76" y1="966.01" x2="886.76" y2="974.47" class="down-wick"/>
<rect x="885.09" y="968.43" width="3.35" height="4.90" class="down-body"/>
<line x1="891.91" y1="969.82" x2="891.91" y2="978.48" class="up-wick"/>
<rect x="890.24" y="972.89" width="3.35" height="1.00" class="up-body"/>
<line x1="897.07" y1="962.54" x2="897.07" y2="973.13" class="up-wick"/>
<rect x="895.39" y="963.43" width="3.35" height="9.45" class="up-body"/>
<line x1="902.22" y1="960.61" x2="902.22" y2="967.09" class="down-wick"/>
<rect x="900.54" y="963.43" width="3.35" height="1.00" class="down-body"/>
<line x1="907.37" y1="961.70" x2="907.37" y2="969.92" class="down-wick"/>
<rect x="905.70" y="963.53" width="3.35" height="5.25" class="down-body"/>
<line x1="912.53" y1="962.84" x2="912.53" y2="970.91" class="up-wick"/>
<rect x="910.85" y="964.97" width="3.35" height="4.45" class="up-body"/>
<line x1="917.68" y1="964.42" x2="917.68" y2="976.10" class="down-wick"/>
<rect x="916.00" y="964.92" width="3.35" height="11.19" class="down-body"/>
<line x1="922.83" y1="973.08" x2="922.83" y2="980.76" class="down-wick"/>
<rect x="921.16" y="976.05" width="3.35" height="1.19" class="down-body"/>
<line x1="927.98" y1="959.47" x2="927.98" y2="977.24" class="up-wick"/>
<rect x="926.31" y="963.28" width="3.35" height="13.96" class="up-body"/>
<line x1="933.14" y1="958.53" x2="933.14" y2="966.95" class="up-wick"/>
<rect x="931.46" y="962.59" width="3.35" height="1.00" class="up-body"/>
<line x1="938.29" y1="953.19" x2="938.29" y2="962.59" class="up-wick"/>
<rect x="936.62" y="957.49" width="3.35" height="5.10" class="up-body"/>
<line x1="943.44" y1="954.92" x2="943.44" y2="959.03" class="down-wick"/>
<rect x="941.77" y="957.79" width="3.35" height="1.00" class="down-body"/>
<line x1="948.60" y1="956.16" x2="948.60" y2="960.86" class="up-wick"/>
<rect x="946.92" y="957.54" width="3.35" height="1.00" class="up-body"/>
<line x1="953.75" y1="955.61" x2="953.75" y2="970.26" class="down-wick"/>
<rect x="952.08" y="957.69" width="3.35" height="10.49" class="down-body"/>
<line x1="958.90" y1="962.89" x2="958.90" y2="970.46" class="up-wick"/>
<rect x="957.23" y="965.56" width="3.35" height="2.62" class="up-body"/>
<line x1="964.06" y1="960.07" x2="964.06" y2="967.39" class="up-wick"/>
<rect x="962.38" y="961.20" width="3.35" height="4.36" class="up-body"/>
<line x1="969.21" y1="957.39" x2="969.21" y2="964.87" class="up-wick"/>
<rect x="967.53" y="957.64" width="3.35" height="3.56" class="up-body"/>
<line x1="974.36" y1="943.53" x2="974.36" y2="958.73" class="up-wick"/>
<rect x="972.69" y="943.93" width="3.35" height="13.51" class="up-body"/>
<line x1="979.52" y1="938.24" x2="979.52" y2="946.06" class="up-wick"/>
<rect x="977.84" y="943.53" width="3.35" height="1.00" class="up-body"/>
<line x1="984.67" y1="940.22" x2="984.67" y2="944.08" class="down-wick"/>
<rect x="982.99" y="943.53" width="3.35" height="1.00" class="down-body"/>
<line x1="989.82" y1="941.85" x2="989.82" y2="951.01" class="down-wick"/>
<rect x="988.15" y="944.03" width="3.35" height="1.00" class="down-body"/>
<line x1="994.97" y1="939.67" x2="994.97" y2="946.65" class="up-wick"/>
<rect x="993.30" y="940.27" width="3.35" height="4.36" class="up-body"/>
<line x1="1000.13" y1="935.37" x2="1000.13" y2="951.01" class="down-wick"/>
<rect x="998.45" y="940.27" width="3.35" height="10.05" class="down-body"/>
<line x1="1005.28" y1="948.34" x2="1005.28" y2="960.51" class="down-wick"/>
<rect x="1003.61" y="950.36" width="3.35" height="9.80" class="down-body"/>
<line x1="1010.43" y1="957.54" x2="1010.43" y2="979.37" class="down-wick"/>
<rect x="1008.76" y="960.17" width="3.35" height="16.23" class="down-body"/>
<line x1="1015.59" y1="975.91" x2="1015.59" y2="991.69" class="down-wick"/>
<rect x="1013.91" y="976.40" width="3.35" height="9.40" class="down-body"/>
<line x1="1020.74" y1="982.29" x2="1020.74" y2="1002.88" class="down-wick"/>
<rect x="1019.07" y="986.05" width="3.35" height="13.17" class="down-body"/>
<line x1="1025.89" y1="987.39" x2="1025.89" y2="1006.64" class="up-wick"/>
<rect x="1024.22" y="987.98" width="3.35" height="11.24" class="up-body"/>
<line x1="1031.05" y1="987.98" x2="1031.05" y2="1009.07" class="down-wick"/>
<rect x="1029.37" y="987.98" width="3.35" height="15.69" class="down-body"/>
<line x1="1036.20" y1="1000.36" x2="1036.20" y2="1016.49" class="down-wick"/>
<rect x="1034.52" y="1003.67" width="3.35" height="6.63" class="down-body"/>
<line x1="1041.35" y1="999.32" x2="1041.35" y2="1011.74" class="up-wick"/>
<rect x="1039.68" y="1006.25" width="3.35" height="4.06" class="up-body"/>
<line x1="1046.51" y1="1001.50" x2="1046.51" y2="1013.77" class="down-wick"/>
<rect x="1044.83" y="1006.20" width="3.35" height="2.82" class="down-body"/>
<line x1="1051.66" y1="1008.23" x2="1051.66" y2="1024.76" class="down-wick"/>
<rect x="1049.98" y="1009.02" width="3.35" height="13.36" class="down-body"/>
<line x1="1056.81" y1="998.53" x2="1056.81" y2="1024.31" class="up-wick"/>
<rect x="1055.14" y="1004.07" width="3.35" height="18.31" class="up-body"/>
<line x1="1061.96" y1="995.41" x2="1061.96" y2="1010.90" class="down-wick"/>
<rect x="1060.29" y="1004.07" width="3.35" height="4.11" class="down-body"/>
<line x1="1067.12" y1="1006.84" x2="1067.12" y2="1016.74" class="down-wick"/>
<rect x="1065.44" y="1008.18" width="3.35" height="3.27" class="down-body"/>
<line x1="1072.27" y1="1001.20" x2="1072.27" y2="1012.73" class="up-wick"/>
<rect x="1070.60" y="1001.74" width="3.35" height="9.65" class="up-body"/>
<line x1="1077.42" y1="997.24" x2="1077.42" y2="1005.41" class="down-wick"/>
<rect x="1075.75" y="1001.50" width="3.35" height="3.07" class="down-body"/>
<line x1="70" y1="867.26" x2="1080" y2="867.26" class="sweep-line"/>
<text x="1076" y="863.26" text-anchor="end" class="level-label">sweep 4627.78</text>
<line x1="70" y1="863.05" x2="1080" y2="863.05" class="entry-line"/>
<text x="1076" y="859.05" text-anchor="end" class="level-label">entry level 4628.63</text>
<text x="70" y="1056" class="axis-label">2026-05-04 01:00:00+00:00 to 2026-05-04 04:15:00+00:00</text>
<text x="1080" y="1056" text-anchor="end" class="axis-label">4593.28 - 4632.08</text>
</svg>