<svg xmlns="http://www.w3.org/2000/svg" width="1120" height="1054" viewBox="0 0 1120 1054">
<style>
text{font-family:Arial,Helvetica,sans-serif}.title{font-size:21px;font-weight:700;fill:#1f2937}.subtitle{font-size:12px;fill:#4b5563}.panel-title{font-size:15px;font-weight:700;fill:#111827}.muted{font-size:13px;fill:#6b7280}.plot-bg{fill:#f8fafc;stroke:#cbd5e1;stroke-width:1}.up-body{fill:#15803d;stroke:#14532d;stroke-width:.8}.down-body{fill:#b91c1c;stroke:#7f1d1d;stroke-width:.8}.up-wick{stroke:#14532d;stroke-width:1}.down-wick{stroke:#7f1d1d;stroke-width:1}.sweep-line{stroke:#7c3aed;stroke-width:1.6;stroke-dasharray:6 4}.number-line{stroke:#0f766e;stroke-width:1.4;stroke-dasharray:3 4}.entry-line{stroke:#2563eb;stroke-width:1.4}.sl-line{stroke:#dc2626;stroke-width:1.4}.tp-line{stroke:#16a34a;stroke-width:1.4}.level-label,.axis-label{font-size:11px;fill:#374151}
</style>
<text x="28" y="28" class="title">Adelin v2 visual review sample sample_182</text>
<text x="28" y="48" class="subtitle">Candidate windows are for visual labeling only and are not trade signals.</text>
<text x="560" y="48" class="subtitle" text-anchor="middle">M15_SWING_LOW_SWEEP_VISUAL_CANDIDATE | PRE_ANCHOR_SWEEP_EXTREME_CANDIDATE</text>
<text x="70" y="82" class="panel-title">H1 liquidity context</text>
<rect x="70" y="96" width="1010" height="192" class="plot-bg"/>
<line x1="81.22" y1="185.56" x2="81.22" y2="206.40" class="down-wick"/>
<rect x="77.22" y="186.67" width="8.00" height="9.50" class="down-body"/>
<line x1="103.67" y1="174.89" x2="103.67" y2="207.61" class="down-wick"/>
<rect x="99.67" y="196.18" width="8.00" height="6.37" class="down-body"/>
<line x1="126.11" y1="189.29" x2="126.11" y2="245.25" class="down-wick"/>
<rect x="122.11" y="202.49" width="8.00" height="40.61" class="down-body"/>
<line x1="148.56" y1="213.03" x2="148.56" y2="243.54" class="up-wick"/>
<rect x="144.56" y="215.17" width="8.00" height="27.94" class="up-body"/>
<line x1="171.00" y1="194.47" x2="171.00" y2="236.72" class="up-wick"/>
<rect x="167.00" y="204.60" width="8.00" height="10.53" class="up-body"/>
<line x1="193.44" y1="185.13" x2="193.44" y2="209.45" class="up-wick"/>
<rect x="189.44" y="194.46" width="8.00" height="10.14" class="up-body"/>
<line x1="215.89" y1="194.26" x2="215.89" y2="223.04" class="down-wick"/>
<rect x="211.89" y="194.46" width="8.00" height="16.59" class="down-body"/>
<line x1="238.33" y1="197.04" x2="238.33" y2="242.20" class="down-wick"/>
<rect x="234.33" y="211.04" width="8.00" height="27.18" class="down-body"/>
<line x1="260.78" y1="230.91" x2="260.78" y2="260.23" class="up-wick"/>
<rect x="256.78" y="232.89" width="8.00" height="5.33" class="up-body"/>
<line x1="283.22" y1="206.08" x2="283.22" y2="235.28" class="up-wick"/>
<rect x="279.22" y="212.07" width="8.00" height="21.04" class="up-body"/>
<line x1="305.67" y1="171.91" x2="305.67" y2="228.13" class="up-wick"/>
<rect x="301.67" y="188.51" width="8.00" height="23.57" class="up-body"/>
<line x1="328.11" y1="156.18" x2="328.11" y2="219.17" class="up-wick"/>
<rect x="324.11" y="176.99" width="8.00" height="11.52" class="up-body"/>
<line x1="350.56" y1="143.44" x2="350.56" y2="206.04" class="down-wick"/>
<rect x="346.56" y="176.84" width="8.00" height="25.56" class="down-body"/>
<line x1="373.00" y1="125.50" x2="373.00" y2="204.15" class="up-wick"/>
<rect x="369.00" y="160.60" width="8.00" height="41.76" class="up-body"/>
<line x1="395.44" y1="131.88" x2="395.44" y2="163.18" class="up-wick"/>
<rect x="391.44" y="142.91" width="8.00" height="17.68" class="up-body"/>
<line x1="417.89" y1="123.44" x2="417.89" y2="150.48" class="up-wick"/>
<rect x="413.89" y="129.30" width="8.00" height="13.60" class="up-body"/>
<line x1="440.33" y1="109.24" x2="440.33" y2="139.68" class="down-wick"/>
<rect x="436.33" y="129.29" width="8.00" height="10.39" class="down-body"/>
<line x1="462.78" y1="124.49" x2="462.78" y2="142.32" class="up-wick"/>
<rect x="458.78" y="127.46" width="8.00" height="12.04" class="up-body"/>
<line x1="485.22" y1="109.39" x2="485.22" y2="131.55" class="up-wick"/>
<rect x="481.22" y="114.16" width="8.00" height="13.42" class="up-body"/>
<line x1="507.67" y1="112.29" x2="507.67" y2="157.49" class="down-wick"/>
<rect x="503.67" y="125.16" width="8.00" height="18.78" class="down-body"/>
<line x1="530.11" y1="140.60" x2="530.11" y2="170.94" class="down-wick"/>
<rect x="526.11" y="143.95" width="8.00" height="6.42" class="down-body"/>
<line x1="552.56" y1="129.33" x2="552.56" y2="161.75" class="up-wick"/>
<rect x="548.56" y="132.37" width="8.00" height="18.03" class="up-body"/>
<line x1="575.00" y1="129.22" x2="575.00" y2="181.59" class="down-wick"/>
<rect x="571.00" y="132.34" width="8.00" height="46.05" class="down-body"/>
<line x1="597.44" y1="171.17" x2="597.44" y2="202.70" class="down-wick"/>
<rect x="593.44" y="178.39" width="8.00" height="9.54" class="down-body"/>
<line x1="619.89" y1="181.72" x2="619.89" y2="207.29" class="down-wick"/>
<rect x="615.89" y="187.93" width="8.00" height="13.13" class="down-body"/>
<line x1="642.33" y1="183.56" x2="642.33" y2="217.50" class="up-wick"/>
<rect x="638.33" y="183.79" width="8.00" height="17.27" class="up-body"/>
<line x1="664.78" y1="167.01" x2="664.78" y2="191.21" class="up-wick"/>
<rect x="660.78" y="178.11" width="8.00" height="5.62" class="up-body"/>
<line x1="687.22" y1="157.65" x2="687.22" y2="185.98" class="up-wick"/>
<rect x="683.22" y="161.27" width="8.00" height="16.84" class="up-body"/>
<line x1="709.67" y1="153.27" x2="709.67" y2="176.83" class="up-wick"/>
<rect x="705.67" y="160.30" width="8.00" height="1.00" class="up-body"/>
<line x1="732.11" y1="148.05" x2="732.11" y2="160.53" class="up-wick"/>
<rect x="728.11" y="153.03" width="8.00" height="7.26" class="up-body"/>
<line x1="754.56" y1="148.01" x2="754.56" y2="170.78" class="down-wick"/>
<rect x="750.56" y="153.03" width="8.00" height="10.02" class="down-body"/>
<line x1="777.00" y1="160.29" x2="777.00" y2="172.62" class="down-wick"/>
<rect x="773.00" y="163.07" width="8.00" height="2.19" class="down-body"/>
<line x1="799.44" y1="160.33" x2="799.44" y2="180.70" class="down-wick"/>
<rect x="795.44" y="165.25" width="8.00" height="3.29" class="down-body"/>
<line x1="821.89" y1="166.25" x2="821.89" y2="185.16" class="down-wick"/>
<rect x="817.89" y="168.54" width="8.00" height="6.23" class="down-body"/>
<line x1="844.33" y1="171.76" x2="844.33" y2="195.92" class="down-wick"/>
<rect x="840.33" y="174.77" width="8.00" height="12.09" class="down-body"/>
<line x1="866.78" y1="186.89" x2="866.78" y2="212.99" class="down-wick"/>
<rect x="862.78" y="186.89" width="8.00" height="11.60" class="down-body"/>
<line x1="889.22" y1="184.18" x2="889.22" y2="207.32" class="up-wick"/>
<rect x="885.22" y="187.15" width="8.00" height="11.34" class="up-body"/>
<line x1="911.67" y1="176.47" x2="911.67" y2="187.26" class="up-wick"/>
<rect x="907.67" y="182.29" width="8.00" height="4.90" class="up-body"/>
<line x1="934.11" y1="174.20" x2="934.11" y2="186.49" class="up-wick"/>
<rect x="930.11" y="178.44" width="8.00" height="3.76" class="up-body"/>
<line x1="956.56" y1="176.12" x2="956.56" y2="183.91" class="down-wick"/>
<rect x="952.56" y="178.46" width="8.00" height="1.83" class="down-body"/>
<line x1="979.00" y1="169.84" x2="979.00" y2="191.07" class="down-wick"/>
<rect x="975.00" y="177.47" width="8.00" height="7.50" class="down-body"/>
<line x1="1001.44" y1="182.70" x2="1001.44" y2="262.67" class="down-wick"/>
<rect x="997.44" y="184.97" width="8.00" height="72.60" class="down-body"/>
<line x1="1023.89" y1="219.56" x2="1023.89" y2="274.76" class="up-wick"/>
<rect x="1019.89" y="227.82" width="8.00" height="29.80" class="up-body"/>
<line x1="1046.33" y1="209.84" x2="1046.33" y2="232.22" class="up-wick"/>
<rect x="1042.33" y="215.38" width="8.00" height="12.44" class="up-body"/>
<line x1="1068.78" y1="211.38" x2="1068.78" y2="238.42" class="down-wick"/>
<rect x="1064.78" y="215.37" width="8.00" height="13.84" class="down-body"/>
<line x1="70" y1="181.59" x2="1080" y2="181.59" class="sweep-line"/>
<text x="1076" y="177.59" text-anchor="end" class="level-label">sweep 4992.29</text>
<line x1="70" y1="181.59" x2="1080" y2="181.59" class="entry-line"/>
<text x="1076" y="177.59" text-anchor="end" class="level-label">entry level 4992.29</text>
<text x="70" y="306" class="axis-label">2026-02-13 05:00:00+00:00 to 2026-02-17 05:00:00+00:00</text>
<text x="1080" y="306" text-anchor="end" class="axis-label">4913.10 - 5055.98</text>
<text x="70" y="332" class="panel-title">M15 liquidity / reaction context</text>
<rect x="70" y="346" width="1010" height="192" class="plot-bg"/>
<line x1="82.32" y1="359.24" x2="82.32" y2="430.35" class="down-wick"/>
<rect x="78.32" y="379.49" width="8.00" height="24.92" class="down-body"/>
<line x1="106.95" y1="383.57" x2="106.95" y2="406.85" class="up-wick"/>
<rect x="102.95" y="390.04" width="8.00" height="14.40" class="up-body"/>
<line x1="131.59" y1="385.24" x2="131.59" y2="415.75" class="down-wick"/>
<rect x="127.59" y="390.04" width="8.00" height="22.03" class="down-body"/>
<line x1="156.22" y1="406.44" x2="156.22" y2="423.17" class="up-wick"/>
<rect x="152.22" y="409.04" width="8.00" height="3.00" class="up-body"/>
<line x1="180.85" y1="405.77" x2="180.85" y2="451.51" class="down-wick"/>
<rect x="176.85" y="409.04" width="8.00" height="6.05" class="down-body"/>
<line x1="205.49" y1="406.93" x2="205.49" y2="434.03" class="down-wick"/>
<rect x="201.49" y="415.13" width="8.00" height="10.82" class="down-body"/>
<line x1="230.12" y1="420.76" x2="230.12" y2="433.04" class="up-wick"/>
<rect x="226.12" y="422.17" width="8.00" height="3.38" class="up-body"/>
<line x1="254.76" y1="403.78" x2="254.76" y2="429.72" class="up-wick"/>
<rect x="250.76" y="419.15" width="8.00" height="3.02" class="up-body"/>
<line x1="279.39" y1="401.82" x2="279.39" y2="437.05" class="up-wick"/>
<rect x="275.39" y="402.96" width="8.00" height="16.23" class="up-body"/>
<line x1="304.02" y1="386.09" x2="304.02" y2="403.72" class="up-wick"/>
<rect x="300.02" y="390.00" width="8.00" height="12.96" class="up-body"/>
<line x1="328.66" y1="386.05" x2="328.66" y2="396.21" class="up-wick"/>
<rect x="324.66" y="387.61" width="8.00" height="2.39" class="up-body"/>
<line x1="353.29" y1="386.93" x2="353.29" y2="397.99" class="down-wick"/>
<rect x="349.29" y="387.61" width="8.00" height="3.21" class="down-body"/>
<line x1="377.93" y1="385.88" x2="377.93" y2="408.45" class="down-wick"/>
<rect x="373.93" y="390.78" width="8.00" height="14.52" class="down-body"/>
<line x1="402.56" y1="396.45" x2="402.56" y2="412.09" class="down-wick"/>
<rect x="398.56" y="404.84" width="8.00" height="5.83" class="down-body"/>
<line x1="427.20" y1="405.75" x2="427.20" y2="447.03" class="down-wick"/>
<rect x="423.20" y="410.59" width="8.00" height="36.30" class="down-body"/>
<line x1="451.83" y1="445.02" x2="451.83" y2="468.25" class="down-wick"/>
<rect x="447.83" y="446.90" width="8.00" height="16.32" class="down-body"/>
<line x1="476.46" y1="451.87" x2="476.46" y2="475.97" class="up-wick"/>
<rect x="472.46" y="457.14" width="8.00" height="6.09" class="up-body"/>
<line x1="501.10" y1="454.92" x2="501.10" y2="465.34" class="down-wick"/>
<rect x="497.10" y="457.14" width="8.00" height="5.50" class="down-body"/>
<line x1="525.73" y1="458.74" x2="525.73" y2="476.69" class="down-wick"/>
<rect x="521.73" y="462.61" width="8.00" height="8.58" class="down-body"/>
<line x1="550.37" y1="465.17" x2="550.37" y2="501.46" class="down-wick"/>
<rect x="546.37" y="471.19" width="8.00" height="7.04" class="down-body"/>
<line x1="575.00" y1="468.47" x2="575.00" y2="507.97" class="down-wick"/>
<rect x="571.00" y="478.23" width="8.00" height="23.06" class="down-body"/>
<line x1="599.63" y1="493.85" x2="599.63" y2="508.69" class="down-wick"/>
<rect x="595.63" y="501.23" width="8.00" height="1.00" class="down-body"/>
<line x1="624.27" y1="497.70" x2="624.27" y2="507.72" class="down-wick"/>
<rect x="620.27" y="501.89" width="8.00" height="1.00" class="down-body"/>
<line x1="648.90" y1="493.83" x2="648.90" y2="506.39" class="up-wick"/>
<rect x="644.90" y="498.88" width="8.00" height="3.49" class="up-body"/>
<line x1="673.54" y1="481.91" x2="673.54" y2="524.76" class="up-wick"/>
<rect x="669.54" y="486.88" width="8.00" height="12.01" class="up-body"/>
<line x1="698.17" y1="475.97" x2="698.17" y2="487.49" class="up-wick"/>
<rect x="694.17" y="480.75" width="8.00" height="6.13" class="up-body"/>
<line x1="722.80" y1="472.57" x2="722.80" y2="487.85" class="down-wick"/>
<rect x="718.80" y="480.75" width="8.00" height="1.00" class="down-body"/>
<line x1="747.44" y1="471.36" x2="747.44" y2="483.75" class="up-wick"/>
<rect x="743.44" y="471.72" width="8.00" height="9.96" class="up-body"/>
<line x1="772.07" y1="467.03" x2="772.07" y2="478.00" class="down-wick"/>
<rect x="768.07" y="471.62" width="8.00" height="1.00" class="down-body"/>
<line x1="796.71" y1="462.91" x2="796.71" y2="483.39" class="up-wick"/>
<rect x="792.71" y="466.61" width="8.00" height="5.90" class="up-body"/>
<line x1="821.34" y1="445.32" x2="821.34" y2="471.81" class="up-wick"/>
<rect x="817.34" y="446.90" width="8.00" height="19.66" class="up-body"/>
<line x1="845.98" y1="445.85" x2="845.98" y2="464.05" class="down-wick"/>
<rect x="841.98" y="446.88" width="8.00" height="15.90" class="down-body"/>
<line x1="870.61" y1="456.48" x2="870.61" y2="475.17" class="up-wick"/>
<rect x="866.61" y="459.63" width="8.00" height="3.15" class="up-body"/>
<line x1="895.24" y1="452.97" x2="895.24" y2="464.15" class="up-wick"/>
<rect x="891.24" y="455.70" width="8.00" height="3.93" class="up-body"/>
<line x1="919.88" y1="439.08" x2="919.88" y2="458.51" class="up-wick"/>
<rect x="915.88" y="448.70" width="8.00" height="7.00" class="up-body"/>
<line x1="944.51" y1="430.61" x2="944.51" y2="449.48" class="up-wick"/>
<rect x="940.51" y="436.29" width="8.00" height="12.41" class="up-body"/>
<line x1="969.15" y1="423.71" x2="969.15" y2="459.44" class="down-wick"/>
<rect x="965.15" y="436.31" width="8.00" height="19.26" class="down-body"/>
<line x1="993.78" y1="437.92" x2="993.78" y2="460.77" class="up-wick"/>
<rect x="989.78" y="438.68" width="8.00" height="16.91" class="up-body"/>
<line x1="1018.41" y1="433.44" x2="1018.41" y2="441.58" class="up-wick"/>
<rect x="1014.41" y="438.41" width="8.00" height="1.00" class="up-body"/>
<line x1="1043.05" y1="430.27" x2="1043.05" y2="444.28" class="up-wick"/>
<rect x="1039.05" y="434.77" width="8.00" height="3.64" class="up-body"/>
<line x1="1067.68" y1="418.96" x2="1067.68" y2="435.13" class="up-wick"/>
<rect x="1063.68" y="428.24" width="8.00" height="6.51" class="up-body"/>
<line x1="70" y1="468.25" x2="1080" y2="468.25" class="sweep-line"/>
<text x="1076" y="464.25" text-anchor="end" class="level-label">sweep 4992.29</text>
<line x1="70" y1="468.25" x2="1080" y2="468.25" class="entry-line"/>
<text x="1076" y="464.25" text-anchor="end" class="level-label">entry level 4992.29</text>
<text x="70" y="556" class="axis-label">2026-02-16 01:00:00+00:00 to 2026-02-16 11:00:00+00:00</text>
<text x="1080" y="556" text-anchor="end" class="axis-label">4959.30 - 5050.12</text>
<text x="70" y="582" class="panel-title">M5 reaction / execution context</text>
<rect x="70" y="596" width="1010" height="192" class="plot-bg"/>
<line x1="79.18" y1="609.44" x2="79.18" y2="621.56" class="down-wick"/>
<rect x="75.18" y="614.15" width="8.00" height="1.00" class="down-body"/>
<line x1="97.55" y1="610.73" x2="97.55" y2="620.05" class="down-wick"/>
<rect x="93.55" y="614.43" width="8.00" height="2.02" class="down-body"/>
<line x1="115.91" y1="610.88" x2="115.91" y2="618.39" class="up-wick"/>
<rect x="111.91" y="611.31" width="8.00" height="5.14" class="up-body"/>
<line x1="134.27" y1="610.50" x2="134.27" y2="616.45" class="down-wick"/>
<rect x="130.27" y="611.31" width="8.00" height="5.06" class="down-body"/>
<line x1="152.64" y1="616.32" x2="152.64" y2="623.68" class="down-wick"/>
<rect x="148.64" y="616.37" width="8.00" height="4.18" class="down-body"/>
<line x1="171.00" y1="614.56" x2="171.00" y2="622.92" class="up-wick"/>
<rect x="167.00" y="615.14" width="8.00" height="5.42" class="up-body"/>
<line x1="189.36" y1="609.24" x2="189.36" y2="615.09" class="up-wick"/>
<rect x="185.36" y="614.46" width="8.00" height="1.00" class="up-body"/>
<line x1="207.73" y1="614.46" x2="207.73" y2="630.28" class="down-wick"/>
<rect x="203.73" y="614.46" width="8.00" height="13.55" class="down-body"/>
<line x1="226.09" y1="625.67" x2="226.09" y2="636.15" class="down-wick"/>
<rect x="222.09" y="628.01" width="8.00" height="4.38" class="down-body"/>
<line x1="244.45" y1="621.84" x2="244.45" y2="632.14" class="up-wick"/>
<rect x="240.45" y="628.34" width="8.00" height="3.50" class="up-body"/>
<line x1="262.82" y1="624.56" x2="262.82" y2="629.72" class="up-wick"/>
<rect x="258.82" y="627.58" width="8.00" height="1.00" class="up-body"/>
<line x1="281.18" y1="626.95" x2="281.18" y2="640.48" class="down-wick"/>
<rect x="277.18" y="627.56" width="8.00" height="11.24" class="down-body"/>
<line x1="299.55" y1="632.92" x2="299.55" y2="641.11" class="down-wick"/>
<rect x="295.55" y="638.69" width="8.00" height="1.16" class="down-body"/>
<line x1="317.91" y1="638.59" x2="317.91" y2="682.07" class="down-wick"/>
<rect x="313.91" y="639.85" width="8.00" height="24.92" class="down-body"/>
<line x1="336.27" y1="662.60" x2="336.27" y2="682.12" class="down-wick"/>
<rect x="332.27" y="664.77" width="8.00" height="17.18" class="down-body"/>
<line x1="354.64" y1="679.73" x2="354.64" y2="700.21" class="down-wick"/>
<rect x="350.64" y="681.97" width="8.00" height="8.99" class="down-body"/>
<line x1="373.00" y1="690.59" x2="373.00" y2="707.42" class="down-wick"/>
<rect x="369.00" y="690.99" width="8.00" height="10.63" class="down-body"/>
<line x1="391.36" y1="695.75" x2="391.36" y2="705.93" class="up-wick"/>
<rect x="387.36" y="701.42" width="8.00" height="1.00" class="up-body"/>
<line x1="409.73" y1="692.25" x2="409.73" y2="714.98" class="up-wick"/>
<rect x="405.73" y="697.79" width="8.00" height="3.63" class="up-body"/>
<line x1="428.09" y1="687.89" x2="428.09" y2="716.61" class="down-wick"/>
<rect x="424.09" y="697.82" width="8.00" height="11.16" class="down-body"/>
<line x1="446.45" y1="693.94" x2="446.45" y2="709.51" class="up-wick"/>
<rect x="442.45" y="694.17" width="8.00" height="14.79" class="up-body"/>
<line x1="464.82" y1="691.52" x2="464.82" y2="698.35" class="down-wick"/>
<rect x="460.82" y="694.17" width="8.00" height="1.00" class="down-body"/>
<line x1="483.18" y1="693.51" x2="483.18" y2="703.94" class="down-wick"/>
<rect x="479.18" y="694.42" width="8.00" height="1.36" class="down-body"/>
<line x1="501.55" y1="692.68" x2="501.55" y2="701.40" class="down-wick"/>
<rect x="497.55" y="695.78" width="8.00" height="4.94" class="down-body"/>
<line x1="519.91" y1="696.08" x2="519.91" y2="706.99" class="up-wick"/>
<rect x="515.91" y="700.34" width="8.00" height="1.00" class="up-body"/>
<line x1="538.27" y1="697.84" x2="538.27" y2="717.47" class="down-wick"/>
<rect x="534.27" y="700.36" width="8.00" height="10.76" class="down-body"/>
<line x1="556.64" y1="702.71" x2="556.64" y2="713.34" class="up-wick"/>
<rect x="552.64" y="710.92" width="8.00" height="1.00" class="up-body"/>
<line x1="575.00" y1="705.15" x2="575.00" y2="747.00" class="down-wick"/>
<rect x="571.00" y="710.92" width="8.00" height="14.13" class="down-body"/>
<line x1="593.36" y1="703.74" x2="593.36" y2="726.92" class="up-wick"/>
<rect x="589.36" y="710.34" width="8.00" height="14.71" class="up-body"/>
<line x1="611.73" y1="706.99" x2="611.73" y2="719.44" class="down-wick"/>
<rect x="607.73" y="710.34" width="8.00" height="8.97" class="down-body"/>
<line x1="630.09" y1="707.67" x2="630.09" y2="721.68" class="up-wick"/>
<rect x="626.09" y="718.38" width="8.00" height="1.00" class="up-body"/>
<line x1="648.45" y1="718.35" x2="648.45" y2="749.52" class="down-wick"/>
<rect x="644.45" y="718.35" width="8.00" height="27.86" class="down-body"/>
<line x1="666.82" y1="738.23" x2="666.82" y2="754.76" class="down-wick"/>
<rect x="662.82" y="745.79" width="8.00" height="1.01" class="down-body"/>
<line x1="685.18" y1="745.53" x2="685.18" y2="754.63" class="down-wick"/>
<rect x="681.18" y="746.72" width="8.00" height="4.89" class="down-body"/>
<line x1="703.55" y1="739.84" x2="703.55" y2="755.61" class="up-wick"/>
<rect x="699.55" y="744.40" width="8.00" height="7.28" class="up-body"/>
<line x1="721.91" y1="737.93" x2="721.91" y2="747.20" class="down-wick"/>
<rect x="717.91" y="744.50" width="8.00" height="2.70" class="down-body"/>
<line x1="740.27" y1="742.51" x2="740.27" y2="754.15" class="down-wick"/>
<rect x="736.27" y="747.50" width="8.00" height="5.37" class="down-body"/>
<line x1="758.64" y1="748.41" x2="758.64" y2="754.45" class="up-wick"/>
<rect x="754.64" y="751.86" width="8.00" height="1.01" class="up-body"/>
<line x1="777.00" y1="744.05" x2="777.00" y2="754.13" class="up-wick"/>
<rect x="773.00" y="748.08" width="8.00" height="3.78" class="up-body"/>
<line x1="795.36" y1="740.67" x2="795.36" y2="748.41" class="up-wick"/>
<rect x="791.36" y="742.59" width="8.00" height="5.49" class="up-body"/>
<line x1="813.73" y1="737.90" x2="813.73" y2="747.37" class="up-wick"/>
<rect x="809.73" y="740.92" width="8.00" height="1.66" class="up-body"/>
<line x1="832.09" y1="740.07" x2="832.09" y2="752.87" class="down-wick"/>
<rect x="828.09" y="740.97" width="8.00" height="2.95" class="down-body"/>
<line x1="850.45" y1="743.32" x2="850.45" y2="774.76" class="down-wick"/>
<rect x="846.45" y="743.92" width="8.00" height="1.49" class="down-body"/>
<line x1="868.82" y1="726.44" x2="868.82" y2="746.06" class="up-wick"/>
<rect x="864.82" y="729.41" width="8.00" height="15.39" class="up-body"/>
<line x1="887.18" y1="723.69" x2="887.18" y2="737.40" class="down-wick"/>
<rect x="883.18" y="729.41" width="8.00" height="1.00" class="down-body"/>
<line x1="905.55" y1="720.09" x2="905.55" y2="730.34" class="up-wick"/>
<rect x="901.55" y="721.22" width="8.00" height="8.39" class="up-body"/>
<line x1="923.91" y1="720.42" x2="923.91" y2="727.42" class="down-wick"/>
<rect x="919.91" y="721.22" width="8.00" height="1.00" class="down-body"/>
<line x1="942.27" y1="716.61" x2="942.27" y2="725.15" class="down-wick"/>
<rect x="938.27" y="721.58" width="8.00" height="1.00" class="down-body"/>
<line x1="960.64" y1="712.56" x2="960.64" y2="727.07" class="down-wick"/>
<rect x="956.64" y="722.31" width="8.00" height="1.89" class="down-body"/>
<line x1="979.00" y1="721.07" x2="979.00" y2="728.10" class="down-wick"/>
<rect x="975.00" y="724.20" width="8.00" height="1.56" class="down-body"/>
<line x1="997.36" y1="721.80" x2="997.36" y2="730.77" class="up-wick"/>
<rect x="993.36" y="723.42" width="8.00" height="2.34" class="up-body"/>
<line x1="1015.73" y1="715.28" x2="1015.73" y2="724.88" class="up-wick"/>
<rect x="1011.73" y="720.80" width="8.00" height="2.62" class="up-body"/>
<line x1="1034.09" y1="713.16" x2="1034.09" y2="725.88" class="up-wick"/>
<rect x="1030.09" y="715.08" width="8.00" height="5.72" class="up-body"/>
<line x1="1052.45" y1="711.12" x2="1052.45" y2="717.12" class="up-wick"/>
<rect x="1048.45" y="711.55" width="8.00" height="3.83" class="up-body"/>
<line x1="1070.82" y1="705.96" x2="1070.82" y2="717.12" class="down-wick"/>
<rect x="1066.82" y="711.42" width="8.00" height="5.32" class="down-body"/>
<line x1="70" y1="707.42" x2="1080" y2="707.42" class="sweep-line"/>
<text x="1076" y="703.42" text-anchor="end" class="level-label">sweep 4992.29</text>
<line x1="70" y1="707.42" x2="1080" y2="707.42" class="entry-line"/>
<text x="1076" y="703.42" text-anchor="end" class="level-label">entry level 4992.29</text>
<text x="70" y="806" class="axis-label">2026-02-16 03:30:00+00:00 to 2026-02-16 08:00:00+00:00</text>
<text x="1080" y="806" text-anchor="end" class="axis-label">4960.30 - 5036.52</text>
<text x="70" y="832" class="panel-title">M1 execution window</text>
<rect x="70" y="846" width="1010" height="192" class="plot-bg"/>
<line x1="73.71" y1="861.23" x2="73.71" y2="865.38" class="up-wick"/>
<rect x="71.30" y="861.57" width="4.83" height="3.10" class="up-body"/>
<line x1="81.14" y1="862.91" x2="81.14" y2="866.66" class="up-wick"/>
<rect x="78.73" y="863.62" width="4.83" height="1.00" class="up-body"/>
<line x1="88.57" y1="862.85" x2="88.57" y2="871.04" class="up-wick"/>
<rect x="86.15" y="865.41" width="4.83" height="2.70" class="up-body"/>
<line x1="95.99" y1="861.17" x2="95.99" y2="865.64" class="up-wick"/>
<rect x="93.58" y="861.63" width="4.83" height="3.07" class="up-body"/>
<line x1="103.42" y1="862.40" x2="103.42" y2="870.13" class="down-wick"/>
<rect x="101.01" y="862.40" width="4.83" height="7.50" class="down-body"/>
<line x1="110.85" y1="866.09" x2="110.85" y2="869.45" class="up-wick"/>
<rect x="108.43" y="867.14" width="4.83" height="1.00" class="up-body"/>
<line x1="118.27" y1="862.31" x2="118.27" y2="867.85" class="up-wick"/>
<rect x="115.86" y="862.31" width="4.83" height="3.33" class="up-body"/>
<line x1="125.70" y1="860.98" x2="125.70" y2="864.78" class="up-wick"/>
<rect x="123.28" y="861.46" width="4.83" height="3.10" class="up-body"/>
<line x1="133.12" y1="860.95" x2="133.12" y2="867.23" class="down-wick"/>
<rect x="130.71" y="861.40" width="4.83" height="4.46" class="down-body"/>
<line x1="140.55" y1="863.73" x2="140.55" y2="866.32" class="up-wick"/>
<rect x="138.14" y="865.01" width="4.83" height="1.00" class="up-body"/>
<line x1="147.98" y1="867.12" x2="147.98" y2="870.53" class="down-wick"/>
<rect x="145.56" y="867.17" width="4.83" height="1.51" class="down-body"/>
<line x1="155.40" y1="867.63" x2="155.40" y2="871.09" class="up-wick"/>
<rect x="152.99" y="869.45" width="4.83" height="1.00" class="up-body"/>
<line x1="162.83" y1="870.33" x2="162.83" y2="875.42" class="down-wick"/>
<rect x="160.42" y="870.47" width="4.83" height="1.42" class="down-body"/>
<line x1="170.26" y1="868.05" x2="170.26" y2="874.56" class="up-wick"/>
<rect x="167.84" y="870.27" width="4.83" height="1.90" class="up-body"/>
<line x1="177.68" y1="865.41" x2="177.68" y2="868.14" class="down-wick"/>
<rect x="175.27" y="866.29" width="4.83" height="1.59" class="down-body"/>
<line x1="185.11" y1="859.24" x2="185.11" y2="865.72" class="up-wick"/>
<rect x="182.70" y="862.03" width="4.83" height="3.70" class="up-body"/>
<line x1="192.54" y1="861.20" x2="192.54" y2="865.35" class="up-wick"/>
<rect x="190.12" y="861.69" width="4.83" height="2.79" class="up-body"/>
<line x1="199.96" y1="859.44" x2="199.96" y2="865.49" class="down-wick"/>
<rect x="197.55" y="859.72" width="4.83" height="5.29" class="down-body"/>
<line x1="207.39" y1="871.75" x2="207.39" y2="874.85" class="down-wick"/>
<rect x="204.98" y="872.12" width="4.83" height="1.00" class="down-body"/>
<line x1="214.82" y1="874.62" x2="214.82" y2="882.86" class="up-wick"/>
<rect x="212.40" y="874.62" width="4.83" height="4.49" class="up-body"/>
<line x1="222.24" y1="877.66" x2="222.24" y2="882.92" class="down-wick"/>
<rect x="219.83" y="880.30" width="4.83" height="1.00" class="down-body"/>
<line x1="229.67" y1="880.08" x2="229.67" y2="885.73" class="up-wick"/>
<rect x="227.26" y="882.83" width="4.83" height="1.71" class="up-body"/>
<line x1="237.10" y1="883.86" x2="237.10" y2="889.49" class="up-wick"/>
<rect x="234.68" y="885.25" width="4.83" height="3.35" class="up-body"/>
<line x1="244.52" y1="876.75" x2="244.52" y2="882.83" class="up-wick"/>
<rect x="242.11" y="876.95" width="4.83" height="5.83" class="up-body"/>
<line x1="251.95" y1="875.36" x2="251.95" y2="879.68" class="down-wick"/>
<rect x="249.53" y="875.47" width="4.83" height="1.96" class="down-body"/>
<line x1="259.38" y1="878.77" x2="259.38" y2="881.84" class="down-wick"/>
<rect x="256.96" y="880.67" width="4.83" height="1.00" class="down-body"/>
<line x1="266.80" y1="877.66" x2="266.80" y2="880.99" class="up-wick"/>
<rect x="264.39" y="878.14" width="4.83" height="1.53" class="up-body"/>
<line x1="274.23" y1="878.00" x2="274.23" y2="880.93" class="up-wick"/>
<rect x="271.81" y="879.82" width="4.83" height="1.00" class="up-body"/>
<line x1="281.65" y1="884.40" x2="281.65" y2="888.86" class="down-wick"/>
<rect x="279.24" y="885.96" width="4.83" height="2.50" class="down-body"/>
<line x1="289.08" y1="888.43" x2="289.08" y2="894.37" class="down-wick"/>
<rect x="286.67" y="888.46" width="4.83" height="3.33" class="down-body"/>
<line x1="296.51" y1="885.85" x2="296.51" y2="892.38" class="up-wick"/>
<rect x="294.09" y="886.87" width="4.83" height="5.49" class="up-body"/>
<line x1="303.93" y1="885.99" x2="303.93" y2="889.63" class="up-wick"/>
<rect x="301.52" y="886.19" width="4.83" height="2.67" class="up-body"/>
<line x1="311.36" y1="886.84" x2="311.36" y2="893.78" class="down-wick"/>
<rect x="308.95" y="888.38" width="4.83" height="5.29" class="down-body"/>
<line x1="318.79" y1="915.10" x2="318.79" y2="918.90" class="up-wick"/>
<rect x="316.37" y="916.29" width="4.83" height="2.25" class="up-body"/>
<line x1="326.21" y1="923.77" x2="326.21" y2="929.28" class="down-wick"/>
<rect x="323.80" y="924.22" width="4.83" height="3.18" class="down-body"/>
<line x1="333.64" y1="919.33" x2="333.64" y2="928.31" class="up-wick"/>
<rect x="331.23" y="921.29" width="4.83" height="1.00" class="up-body"/>
<line x1="341.07" y1="927.32" x2="341.07" y2="935.70" class="down-wick"/>
<rect x="338.65" y="932.49" width="4.83" height="1.00" class="down-body"/>
<line x1="348.49" y1="933.23" x2="348.49" y2="941.36" class="down-wick"/>
<rect x="346.08" y="937.27" width="4.83" height="3.89" class="down-body"/>
<line x1="355.92" y1="942.18" x2="355.92" y2="949.55" class="down-wick"/>
<rect x="353.51" y="946.87" width="4.83" height="1.56" class="down-body"/>
<line x1="363.35" y1="949.38" x2="363.35" y2="961.77" class="down-wick"/>
<rect x="360.93" y="950.09" width="4.83" height="4.60" class="down-body"/>
<line x1="370.77" y1="950.91" x2="370.77" y2="963.59" class="down-wick"/>
<rect x="368.36" y="951.37" width="4.83" height="9.01" class="down-body"/>
<line x1="378.20" y1="956.74" x2="378.20" y2="964.56" class="up-wick"/>
<rect x="375.78" y="958.19" width="4.83" height="6.37" class="up-body"/>
<line x1="385.62" y1="960.58" x2="385.62" y2="965.12" class="up-wick"/>
<rect x="383.21" y="963.36" width="4.83" height="1.00" class="up-body"/>
<line x1="393.05" y1="957.02" x2="393.05" y2="964.70" class="down-wick"/>
<rect x="390.64" y="957.28" width="4.83" height="6.94" class="down-body"/>
<line x1="400.48" y1="961.85" x2="400.48" y2="968.22" class="up-wick"/>
<rect x="398.06" y="962.54" width="4.83" height="1.76" class="up-body"/>
<line x1="407.90" y1="963.13" x2="407.90" y2="973.48" class="down-wick"/>
<rect x="405.49" y="963.13" width="4.83" height="3.35" class="down-body"/>
<line x1="415.33" y1="963.84" x2="415.33" y2="975.92" class="up-wick"/>
<rect x="412.92" y="964.78" width="4.83" height="10.20" class="up-body"/>
<line x1="422.76" y1="952.79" x2="422.76" y2="959.13" class="down-wick"/>
<rect x="420.34" y="956.17" width="4.83" height="2.87" class="down-body"/>
<line x1="430.18" y1="947.87" x2="430.18" y2="952.02" class="down-wick"/>
<rect x="427.77" y="949.09" width="4.83" height="1.45" class="down-body"/>
<line x1="437.61" y1="956.51" x2="437.61" y2="967.71" class="down-wick"/>
<rect x="435.20" y="958.16" width="4.83" height="6.99" class="down-body"/>
<line x1="445.04" y1="965.21" x2="445.04" y2="972.26" class="up-wick"/>
<rect x="442.62" y="965.46" width="4.83" height="6.17" class="up-body"/>
<line x1="452.46" y1="958.73" x2="452.46" y2="963.53" class="down-wick"/>
<rect x="450.05" y="962.28" width="4.83" height="1.05" class="down-body"/>
<line x1="459.89" y1="954.69" x2="459.89" y2="965.44" class="up-wick"/>
<rect x="457.48" y="954.95" width="4.83" height="9.98" class="up-body"/>
<line x1="467.32" y1="956.77" x2="467.32" y2="959.67" class="down-wick"/>
<rect x="464.90" y="957.42" width="4.83" height="1.00" class="down-body"/>
<line x1="474.74" y1="953.90" x2="474.74" y2="959.32" class="up-wick"/>
<rect x="472.33" y="954.07" width="4.83" height="3.50" class="up-body"/>
<line x1="482.17" y1="955.17" x2="482.17" y2="965.98" class="down-wick"/>
<rect x="479.76" y="955.23" width="4.83" height="8.24" class="down-body"/>
<line x1="489.60" y1="954.21" x2="489.60" y2="961.54" class="down-wick"/>
<rect x="487.18" y="960.35" width="4.83" height="1.00" class="down-body"/>
<line x1="497.02" y1="955.17" x2="497.02" y2="958.50" class="up-wick"/>
<rect x="494.61" y="956.77" width="4.83" height="1.62" class="up-body"/>
<line x1="504.45" y1="953.27" x2="504.45" y2="956.77" class="up-wick"/>
<rect x="502.03" y="955.03" width="4.83" height="1.00" class="up-body"/>
<line x1="511.88" y1="955.35" x2="511.88" y2="960.60" class="down-wick"/>
<rect x="509.46" y="960.29" width="4.83" height="1.00" class="down-body"/>
<line x1="519.30" y1="957.11" x2="519.30" y2="964.33" class="down-wick"/>
<rect x="516.89" y="962.31" width="4.83" height="1.00" class="down-body"/>
<line x1="526.73" y1="959.15" x2="526.73" y2="964.73" class="up-wick"/>
<rect x="524.31" y="959.32" width="4.83" height="5.40" class="up-body"/>
<line x1="534.15" y1="961.37" x2="534.15" y2="963.45" class="up-wick"/>
<rect x="531.74" y="961.91" width="4.83" height="1.00" class="up-body"/>
<line x1="541.58" y1="961.09" x2="541.58" y2="968.53" class="down-wick"/>
<rect x="539.17" y="961.09" width="4.83" height="6.08" class="down-body"/>
<line x1="549.01" y1="971.35" x2="549.01" y2="981.24" class="up-wick"/>
<rect x="546.59" y="973.71" width="4.83" height="4.72" class="up-body"/>
<line x1="556.43" y1="964.58" x2="556.43" y2="976.21" class="up-wick"/>
<rect x="554.02" y="966.06" width="4.83" height="8.07" class="up-body"/>
<line x1="563.86" y1="973.05" x2="563.86" y2="976.12" class="down-wick"/>
<rect x="561.45" y="974.33" width="4.83" height="1.79" class="down-body"/>
<line x1="571.29" y1="972.06" x2="571.29" y2="974.76" class="down-wick"/>
<rect x="568.87" y="972.06" width="4.83" height="1.79" class="down-body"/>
<line x1="578.71" y1="969.79" x2="578.71" y2="978.26" class="up-wick"/>
<rect x="576.30" y="971.38" width="4.83" height="6.88" class="up-body"/>
<line x1="586.14" y1="973.03" x2="586.14" y2="980.42" class="down-wick"/>
<rect x="583.73" y="975.56" width="4.83" height="3.07" class="down-body"/>
<line x1="593.57" y1="979.11" x2="593.57" y2="991.90" class="up-wick"/>
<rect x="591.15" y="981.81" width="4.83" height="7.99" class="up-body"/>
<line x1="600.99" y1="965.75" x2="600.99" y2="975.87" class="up-wick"/>
<rect x="598.58" y="970.98" width="4.83" height="4.12" class="up-body"/>
<line x1="608.42" y1="970.50" x2="608.42" y2="976.55" class="up-wick"/>
<rect x="606.01" y="973.20" width="4.83" height="1.00" class="up-body"/>
<line x1="615.85" y1="969.42" x2="615.85" y2="973.91" class="down-wick"/>
<rect x="613.43" y="972.12" width="4.83" height="1.34" class="down-body"/>
<line x1="623.27" y1="976.38" x2="623.27" y2="981.61" class="down-wick"/>
<rect x="620.86" y="976.98" width="4.83" height="1.34" class="down-body"/>
<line x1="630.70" y1="973.40" x2="630.70" y2="985.99" class="up-wick"/>
<rect x="628.28" y="973.91" width="4.83" height="9.41" class="up-body"/>
<line x1="638.12" y1="974.53" x2="638.12" y2="976.55" class="down-wick"/>
<rect x="635.71" y="974.53" width="4.83" height="1.62" class="down-body"/>
<line x1="645.55" y1="980.67" x2="645.55" y2="984.03" class="up-wick"/>
<rect x="643.14" y="982.26" width="4.83" height="1.00" class="up-body"/>
<line x1="652.98" y1="991.05" x2="652.98" y2="1003.84" class="up-wick"/>
<rect x="650.56" y="993.72" width="4.83" height="3.33" class="up-body"/>
<line x1="660.40" y1="998.07" x2="660.40" y2="1015.01" class="down-wick"/>
<rect x="657.99" y="998.18" width="4.83" height="10.89" class="down-body"/>
<line x1="667.83" y1="1012.19" x2="667.83" y2="1023.31" class="down-wick"/>
<rect x="665.42" y="1013.19" width="4.83" height="4.95" class="down-body"/>
<line x1="675.26" y1="1008.44" x2="675.26" y2="1022.71" class="down-wick"/>
<rect x="672.84" y="1008.44" width="4.83" height="13.53" class="down-body"/>
<line x1="682.68" y1="1011.71" x2="682.68" y2="1018.65" class="up-wick"/>
<rect x="680.27" y="1014.33" width="4.83" height="3.89" class="up-body"/>
<line x1="690.11" y1="1015.41" x2="690.11" y2="1020.15" class="up-wick"/>
<rect x="687.70" y="1018.48" width="4.83" height="1.48" class="up-body"/>
<line x1="697.54" y1="1013.02" x2="697.54" y2="1023.17" class="up-wick"/>
<rect x="695.12" y="1017.06" width="4.83" height="1.00" class="up-body"/>
<line x1="704.96" y1="1018.70" x2="704.96" y2="1023.31" class="down-wick"/>
<rect x="702.55" y="1019.84" width="4.83" height="1.00" class="down-body"/>
<line x1="712.39" y1="1014.18" x2="712.39" y2="1022.77" class="up-wick"/>
<rect x="709.98" y="1015.07" width="4.83" height="6.68" class="up-body"/>
<line x1="719.82" y1="1006.48" x2="719.82" y2="1012.88" class="up-wick"/>
<rect x="717.40" y="1011.63" width="4.83" height="1.17" class="up-body"/>
<line x1="727.24" y1="1005.52" x2="727.24" y2="1009.98" class="up-wick"/>
<rect x="724.83" y="1006.71" width="4.83" height="3.27" class="up-body"/>
<line x1="734.67" y1="1006.34" x2="734.67" y2="1009.78" class="up-wick"/>
<rect x="732.26" y="1007.11" width="4.83" height="1.00" class="up-body"/>
<line x1="742.10" y1="1009.49" x2="742.10" y2="1017.34" class="down-wick"/>
<rect x="739.68" y="1015.12" width="4.83" height="1.00" class="down-body"/>
<line x1="749.52" y1="1016.71" x2="749.52" y2="1020.95" class="down-wick"/>
<rect x="747.11" y="1019.13" width="4.83" height="1.00" class="down-body"/>
<line x1="756.95" y1="1018.42" x2="756.95" y2="1021.63" class="down-wick"/>
<rect x="754.53" y="1019.07" width="4.83" height="2.10" class="down-body"/>
<line x1="764.38" y1="1016.15" x2="764.38" y2="1022.17" class="up-wick"/>
<rect x="761.96" y="1018.22" width="4.83" height="2.73" class="up-body"/>
<line x1="771.80" y1="1018.05" x2="771.80" y2="1022.97" class="down-wick"/>
<rect x="769.39" y="1019.24" width="4.83" height="2.87" class="down-body"/>
<line x1="779.23" y1="1018.93" x2="779.23" y2="1022.06" class="down-wick"/>
<rect x="776.81" y="1020.04" width="4.83" height="1.79" class="down-body"/>
<line x1="786.65" y1="1020.49" x2="786.65" y2="1022.40" class="up-wick"/>
<rect x="784.24" y="1021.26" width="4.83" height="1.14" class="up-body"/>
<line x1="794.08" y1="1013.59" x2="794.08" y2="1019.64" class="down-wick"/>
<rect x="791.67" y="1015.09" width="4.83" height="1.00" class="down-body"/>
<line x1="801.51" y1="1009.04" x2="801.51" y2="1011.40" class="down-wick"/>
<rect x="799.09" y="1010.38" width="4.83" height="1.00" class="down-body"/>
<line x1="808.93" y1="1009.35" x2="808.93" y2="1012.34" class="down-wick"/>
<rect x="806.52" y="1009.61" width="4.83" height="1.68" class="down-body"/>
<line x1="816.36" y1="1005.09" x2="816.36" y2="1009.58" class="up-wick"/>
<rect x="813.95" y="1005.20" width="4.83" height="4.38" class="up-body"/>
<line x1="823.79" y1="1006.40" x2="823.79" y2="1014.98" class="down-wick"/>
<rect x="821.37" y="1007.62" width="4.83" height="4.35" class="down-body"/>
<line x1="831.21" y1="1005.83" x2="831.21" y2="1011.71" class="up-wick"/>
<rect x="828.80" y="1007.70" width="4.83" height="2.53" class="up-body"/>
<line x1="838.64" y1="1008.93" x2="838.64" y2="1018.53" class="down-wick"/>
<rect x="836.23" y="1009.44" width="4.83" height="9.07" class="down-body"/>
<line x1="846.07" y1="1014.18" x2="846.07" y2="1020.21" class="up-wick"/>
<rect x="843.65" y="1017.62" width="4.83" height="2.59" class="up-body"/>
<line x1="853.49" y1="1010.94" x2="853.49" y2="1015.12" class="down-wick"/>
<rect x="851.08" y="1011.09" width="4.83" height="2.90" class="down-body"/>
<line x1="860.92" y1="1012.85" x2="860.92" y2="1021.97" class="down-wick"/>
<rect x="858.51" y="1012.85" width="4.83" height="5.91" class="down-body"/>
<line x1="868.35" y1="1010.40" x2="868.35" y2="1024.76" class="up-wick"/>
<rect x="865.93" y="1012.76" width="4.83" height="11.71" class="up-body"/>
<line x1="875.77" y1="991.36" x2="875.77" y2="1004.61" class="down-wick"/>
<rect x="873.36" y="1000.48" width="4.83" height="1.00" class="down-body"/>
<line x1="883.20" y1="992.61" x2="883.20" y2="1004.07" class="up-wick"/>
<rect x="880.78" y="994.06" width="4.83" height="9.98" class="up-body"/>
<line x1="890.62" y1="994.69" x2="890.62" y2="1002.81" class="down-wick"/>
<rect x="888.21" y="994.71" width="4.83" height="5.51" class="down-body"/>
<line x1="898.05" y1="990.88" x2="898.05" y2="999.60" class="up-wick"/>
<rect x="895.64" y="990.88" width="4.83" height="7.08" class="up-body"/>
<line x1="905.48" y1="990.19" x2="905.48" y2="997.13" class="down-wick"/>
<rect x="903.06" y="990.19" width="4.83" height="4.75" class="down-body"/>
<line x1="912.90" y1="986.73" x2="912.90" y2="994.49" class="up-wick"/>
<rect x="910.49" y="991.96" width="4.83" height="2.27" class="up-body"/>
<line x1="920.33" y1="984.20" x2="920.33" y2="991.39" class="up-wick"/>
<rect x="917.92" y="986.04" width="4.83" height="2.27" class="up-body"/>
<line x1="927.76" y1="984.99" x2="927.76" y2="989.31" class="down-wick"/>
<rect x="925.34" y="985.48" width="4.83" height="3.78" class="down-body"/>
<line x1="935.18" y1="985.48" x2="935.18" y2="992.47" class="up-wick"/>
<rect x="932.77" y="985.67" width="4.83" height="4.83" class="up-body"/>
<line x1="942.61" y1="985.42" x2="942.61" y2="989.23" class="up-wick"/>
<rect x="940.20" y="985.87" width="4.83" height="3.35" class="up-body"/>
<line x1="950.04" y1="980.79" x2="950.04" y2="986.07" class="down-wick"/>
<rect x="947.62" y="980.79" width="4.83" height="3.70" class="down-body"/>
<line x1="957.46" y1="985.25" x2="957.46" y2="989.91" class="up-wick"/>
<rect x="955.05" y="987.10" width="4.83" height="2.02" class="up-body"/>
<line x1="964.89" y1="975.70" x2="964.89" y2="986.73" class="up-wick"/>
<rect x="962.48" y="979.51" width="4.83" height="7.19" class="up-body"/>
<line x1="972.32" y1="981.52" x2="972.32" y2="983.74" class="down-wick"/>
<rect x="969.90" y="981.89" width="4.83" height="1.62" class="down-body"/>
<line x1="979.74" y1="987.12" x2="979.74" y2="992.07" class="up-wick"/>
<rect x="977.33" y="988.83" width="4.83" height="1.00" class="up-body"/>
<line x1="987.17" y1="988.55" x2="987.17" y2="991.22" class="down-wick"/>
<rect x="984.76" y="988.63" width="4.83" height="2.16" class="down-body"/>
<line x1="994.60" y1="985.31" x2="994.60" y2="991.84" class="down-wick"/>
<rect x="992.18" y="986.58" width="4.83" height="5.26" class="down-body"/>
<line x1="1002.02" y1="986.61" x2="1002.02" y2="996.25" class="up-wick"/>
<rect x="999.61" y="987.44" width="4.83" height="3.16" class="up-body"/>
<line x1="1009.45" y1="988.23" x2="1009.45" y2="990.88" class="up-wick"/>
<rect x="1007.03" y="988.55" width="4.83" height="1.00" class="up-body"/>
<line x1="1016.88" y1="986.13" x2="1016.88" y2="992.18" class="up-wick"/>
<rect x="1014.46" y="987.95" width="4.83" height="2.90" class="up-body"/>
<line x1="1024.30" y1="982.69" x2="1024.30" y2="987.18" class="down-wick"/>
<rect x="1021.89" y="982.89" width="4.83" height="3.33" class="down-body"/>
<line x1="1031.73" y1="978.77" x2="1031.73" y2="986.27" class="up-wick"/>
<rect x="1029.31" y="979.08" width="4.83" height="5.12" class="up-body"/>
<line x1="1039.15" y1="983.80" x2="1039.15" y2="986.58" class="down-wick"/>
<rect x="1036.74" y="984.99" width="4.83" height="1.00" class="down-body"/>
<line x1="1046.58" y1="980.30" x2="1046.58" y2="985.87" class="up-wick"/>
<rect x="1044.17" y="981.41" width="4.83" height="3.30" class="up-body"/>
<line x1="1054.01" y1="976.72" x2="1054.01" y2="980.81" class="down-wick"/>
<rect x="1051.59" y="978.31" width="4.83" height="1.00" class="down-body"/>
<line x1="1061.43" y1="975.19" x2="1061.43" y2="978.34" class="up-wick"/>
<rect x="1059.02" y="975.61" width="4.83" height="2.73" class="up-body"/>
<line x1="1068.86" y1="974.50" x2="1068.86" y2="978.82" class="up-wick"/>
<rect x="1066.45" y="976.04" width="4.83" height="1.00" class="up-body"/>
<line x1="1076.29" y1="973.59" x2="1076.29" y2="975.95" class="down-wick"/>
<rect x="1073.87" y="974.42" width="4.83" height="1.00" class="down-body"/>
<line x1="70" y1="969.90" x2="1080" y2="969.90" class="sweep-line"/>
<text x="1076" y="965.90" text-anchor="end" class="level-label">sweep 4992.29</text>
<line x1="70" y1="969.90" x2="1080" y2="969.90" class="entry-line"/>
<text x="1076" y="965.90" text-anchor="end" class="level-label">entry level 4992.29</text>
<text x="70" y="1056" class="axis-label">2026-02-16 03:30:00+00:00 to 2026-02-16 08:00:00+00:00</text>
<text x="1080" y="1056" text-anchor="end" class="axis-label">4968.33 - 5035.88</text>
</svg>