<svg xmlns="http://www.w3.org/2000/svg" width="1120" height="1054" viewBox="0 0 1120 1054">
<style>
text{font-family:Arial,Helvetica,sans-serif}.title{font-size:21px;font-weight:700;fill:#1f2937}.subtitle{font-size:12px;fill:#4b5563}.panel-title{font-size:15px;font-weight:700;fill:#111827}.muted{font-size:13px;fill:#6b7280}.plot-bg{fill:#f8fafc;stroke:#cbd5e1;stroke-width:1}.up-body{fill:#15803d;stroke:#14532d;stroke-width:.8}.down-body{fill:#b91c1c;stroke:#7f1d1d;stroke-width:.8}.up-wick{stroke:#14532d;stroke-width:1}.down-wick{stroke:#7f1d1d;stroke-width:1}.sweep-line{stroke:#7c3aed;stroke-width:1.6;stroke-dasharray:6 4}.number-line{stroke:#0f766e;stroke-width:1.4;stroke-dasharray:3 4}.entry-line{stroke:#2563eb;stroke-width:1.4}.sl-line{stroke:#dc2626;stroke-width:1.4}.tp-line{stroke:#16a34a;stroke-width:1.4}.level-label,.axis-label{font-size:11px;fill:#374151}
</style>
<text x="28" y="28" class="title">Adelin v2 visual review sample sample_244</text>
<text x="28" y="48" class="subtitle">Candidate windows are for visual labeling only and are not trade signals.</text>
<text x="560" y="48" class="subtitle" text-anchor="middle">LARGE_LOWER_WICK_REVERSAL_VISUAL_CANDIDATE | PRE_ANCHOR_SWEEP_EXTREME_CANDIDATE</text>
<text x="70" y="82" class="panel-title">H1 liquidity context</text>
<rect x="70" y="96" width="1010" height="192" class="plot-bg"/>
<line x1="82.62" y1="154.89" x2="82.62" y2="222.88" class="up-wick"/>
<rect x="78.62" y="166.45" width="8.00" height="9.77" class="up-body"/>
<line x1="107.88" y1="163.92" x2="107.88" y2="185.49" class="down-wick"/>
<rect x="103.88" y="166.45" width="8.00" height="12.03" class="down-body"/>
<line x1="133.12" y1="171.28" x2="133.12" y2="254.00" class="down-wick"/>
<rect x="129.12" y="178.45" width="8.00" height="28.12" class="down-body"/>
<line x1="158.38" y1="180.29" x2="158.38" y2="241.67" class="up-wick"/>
<rect x="154.38" y="193.99" width="8.00" height="13.26" class="up-body"/>
<line x1="183.62" y1="170.86" x2="183.62" y2="198.66" class="up-wick"/>
<rect x="179.62" y="183.02" width="8.00" height="10.98" class="up-body"/>
<line x1="208.88" y1="164.12" x2="208.88" y2="194.33" class="up-wick"/>
<rect x="204.88" y="173.08" width="8.00" height="9.94" class="up-body"/>
<line x1="234.12" y1="161.61" x2="234.12" y2="187.95" class="down-wick"/>
<rect x="230.12" y="173.09" width="8.00" height="1.00" class="down-body"/>
<line x1="259.38" y1="158.63" x2="259.38" y2="188.08" class="down-wick"/>
<rect x="255.38" y="173.74" width="8.00" height="12.97" class="down-body"/>
<line x1="284.62" y1="163.83" x2="284.62" y2="188.39" class="up-wick"/>
<rect x="280.62" y="165.61" width="8.00" height="21.10" class="up-body"/>
<line x1="309.88" y1="148.20" x2="309.88" y2="176.97" class="down-wick"/>
<rect x="305.88" y="165.61" width="8.00" height="1.00" class="down-body"/>
<line x1="335.12" y1="152.10" x2="335.12" y2="171.10" class="up-wick"/>
<rect x="331.12" y="161.38" width="8.00" height="4.96" class="up-body"/>
<line x1="360.38" y1="158.75" x2="360.38" y2="174.55" class="down-wick"/>
<rect x="356.38" y="161.38" width="8.00" height="9.34" class="down-body"/>
<line x1="385.62" y1="164.31" x2="385.62" y2="185.38" class="down-wick"/>
<rect x="381.62" y="170.73" width="8.00" height="3.61" class="down-body"/>
<line x1="410.88" y1="138.53" x2="410.88" y2="188.16" class="up-wick"/>
<rect x="406.88" y="160.53" width="8.00" height="13.81" class="up-body"/>
<line x1="436.12" y1="128.23" x2="436.12" y2="167.63" class="up-wick"/>
<rect x="432.12" y="133.19" width="8.00" height="27.36" class="up-body"/>
<line x1="461.38" y1="115.85" x2="461.38" y2="145.64" class="up-wick"/>
<rect x="457.38" y="126.95" width="8.00" height="6.25" class="up-body"/>
<line x1="486.62" y1="126.95" x2="486.62" y2="177.53" class="down-wick"/>
<rect x="482.62" y="126.95" width="8.00" height="39.08" class="down-body"/>
<line x1="511.88" y1="164.09" x2="511.88" y2="185.46" class="down-wick"/>
<rect x="507.88" y="166.05" width="8.00" height="3.85" class="down-body"/>
<line x1="537.12" y1="155.48" x2="537.12" y2="182.70" class="up-wick"/>
<rect x="533.12" y="161.11" width="8.00" height="8.80" class="up-body"/>
<line x1="562.38" y1="150.33" x2="562.38" y2="167.27" class="down-wick"/>
<rect x="558.38" y="161.11" width="8.00" height="4.27" class="down-body"/>
<line x1="587.62" y1="164.29" x2="587.62" y2="182.54" class="down-wick"/>
<rect x="583.62" y="165.37" width="8.00" height="14.71" class="down-body"/>
<line x1="612.88" y1="141.40" x2="612.88" y2="180.84" class="up-wick"/>
<rect x="608.88" y="150.18" width="8.00" height="29.90" class="up-body"/>
<line x1="638.12" y1="123.75" x2="638.12" y2="140.26" class="up-wick"/>
<rect x="634.12" y="129.64" width="8.00" height="9.95" class="up-body"/>
<line x1="663.38" y1="109.56" x2="663.38" y2="129.89" class="up-wick"/>
<rect x="659.38" y="119.14" width="8.00" height="10.52" class="up-body"/>
<line x1="688.62" y1="109.24" x2="688.62" y2="146.37" class="down-wick"/>
<rect x="684.62" y="119.14" width="8.00" height="24.42" class="down-body"/>
<line x1="713.88" y1="131.51" x2="713.88" y2="155.88" class="up-wick"/>
<rect x="709.88" y="143.01" width="8.00" height="1.00" class="up-body"/>
<line x1="739.12" y1="143.01" x2="739.12" y2="166.71" class="down-wick"/>
<rect x="735.12" y="143.01" width="8.00" height="22.11" class="down-body"/>
<line x1="764.38" y1="154.58" x2="764.38" y2="169.90" class="down-wick"/>
<rect x="760.38" y="165.12" width="8.00" height="2.79" class="down-body"/>
<line x1="789.62" y1="167.10" x2="789.62" y2="177.26" class="down-wick"/>
<rect x="785.62" y="167.91" width="8.00" height="3.53" class="down-body"/>
<line x1="814.88" y1="165.89" x2="814.88" y2="186.78" class="down-wick"/>
<rect x="810.88" y="171.42" width="8.00" height="2.05" class="down-body"/>
<line x1="840.12" y1="156.16" x2="840.12" y2="183.36" class="up-wick"/>
<rect x="836.12" y="163.82" width="8.00" height="9.65" class="up-body"/>
<line x1="865.38" y1="149.05" x2="865.38" y2="172.80" class="up-wick"/>
<rect x="861.38" y="151.79" width="8.00" height="12.03" class="up-body"/>
<line x1="890.62" y1="149.23" x2="890.62" y2="179.46" class="down-wick"/>
<rect x="886.62" y="151.79" width="8.00" height="19.17" class="down-body"/>
<line x1="915.88" y1="165.62" x2="915.88" y2="179.84" class="down-wick"/>
<rect x="911.88" y="170.98" width="8.00" height="1.24" class="down-body"/>
<line x1="941.12" y1="168.43" x2="941.12" y2="193.98" class="up-wick"/>
<rect x="937.12" y="168.43" width="8.00" height="3.79" class="up-body"/>
<line x1="966.38" y1="164.04" x2="966.38" y2="188.16" class="down-wick"/>
<rect x="962.38" y="168.43" width="8.00" height="18.58" class="down-body"/>
<line x1="991.62" y1="165.16" x2="991.62" y2="191.42" class="up-wick"/>
<rect x="987.62" y="178.50" width="8.00" height="8.50" class="up-body"/>
<line x1="1016.88" y1="178.09" x2="1016.88" y2="274.76" class="down-wick"/>
<rect x="1012.88" y="178.50" width="8.00" height="44.26" class="down-body"/>
<line x1="1042.12" y1="208.66" x2="1042.12" y2="248.47" class="down-wick"/>
<rect x="1038.12" y="222.76" width="8.00" height="12.89" class="down-body"/>
<line x1="1067.38" y1="215.56" x2="1067.38" y2="241.37" class="up-wick"/>
<rect x="1063.38" y="216.61" width="8.00" height="19.04" class="up-body"/>
<line x1="70" y1="211.49" x2="1080" y2="211.49" class="sweep-line"/>
<text x="1076" y="207.49" text-anchor="end" class="level-label">sweep 4512.29</text>
<line x1="70" y1="208.66" x2="1080" y2="208.66" class="entry-line"/>
<text x="1076" y="204.66" text-anchor="end" class="level-label">entry level 4514.42</text>
<text x="70" y="306" class="axis-label">2026-05-18 01:00:00+00:00 to 2026-05-19 18:00:00+00:00</text>
<text x="1080" y="306" text-anchor="end" class="axis-label">4454.72 - 4599.20</text>
<text x="70" y="332" class="panel-title">M15 liquidity / reaction context</text>
<rect x="70" y="346" width="1010" height="192" class="plot-bg"/>
<line x1="79.02" y1="361.57" x2="79.02" y2="382.49" class="down-wick"/>
<rect x="75.02" y="364.60" width="8.00" height="15.80" class="down-body"/>
<line x1="97.05" y1="370.72" x2="97.05" y2="386.69" class="up-wick"/>
<rect x="93.05" y="372.29" width="8.00" height="8.10" class="up-body"/>
<line x1="115.09" y1="370.19" x2="115.09" y2="381.09" class="down-wick"/>
<rect x="111.09" y="372.29" width="8.00" height="4.60" class="down-body"/>
<line x1="133.12" y1="366.52" x2="133.12" y2="380.69" class="down-wick"/>
<rect x="129.12" y="376.90" width="8.00" height="2.40" class="down-body"/>
<line x1="151.16" y1="376.48" x2="151.16" y2="385.52" class="down-wick"/>
<rect x="147.16" y="379.43" width="8.00" height="4.64" class="down-body"/>
<line x1="169.20" y1="383.00" x2="169.20" y2="395.21" class="down-wick"/>
<rect x="165.20" y="384.07" width="8.00" height="8.52" class="down-body"/>
<line x1="187.23" y1="387.46" x2="187.23" y2="396.04" class="up-wick"/>
<rect x="183.23" y="392.41" width="8.00" height="1.00" class="up-body"/>
<line x1="205.27" y1="389.13" x2="205.27" y2="396.39" class="down-wick"/>
<rect x="201.27" y="392.41" width="8.00" height="1.00" class="down-body"/>
<line x1="223.30" y1="386.40" x2="223.30" y2="393.39" class="up-wick"/>
<rect x="219.30" y="388.72" width="8.00" height="4.64" class="up-body"/>
<line x1="241.34" y1="381.41" x2="241.34" y2="392.64" class="up-wick"/>
<rect x="237.34" y="384.47" width="8.00" height="4.22" class="up-body"/>
<line x1="259.38" y1="383.58" x2="259.38" y2="408.91" class="down-wick"/>
<rect x="255.38" y="384.52" width="8.00" height="11.01" class="down-body"/>
<line x1="277.41" y1="385.66" x2="277.41" y2="405.27" class="down-wick"/>
<rect x="273.41" y="395.53" width="8.00" height="1.00" class="down-body"/>
<line x1="295.45" y1="386.90" x2="295.45" y2="405.01" class="up-wick"/>
<rect x="291.45" y="391.38" width="8.00" height="4.22" class="up-body"/>
<line x1="313.48" y1="382.69" x2="313.48" y2="404.42" class="up-wick"/>
<rect x="309.48" y="389.39" width="8.00" height="1.99" class="up-body"/>
<line x1="331.52" y1="368.60" x2="331.52" y2="391.30" class="up-wick"/>
<rect x="327.52" y="379.48" width="8.00" height="9.90" class="up-body"/>
<line x1="349.55" y1="370.51" x2="349.55" y2="384.44" class="up-wick"/>
<rect x="345.55" y="371.65" width="8.00" height="7.84" class="up-body"/>
<line x1="367.59" y1="370.79" x2="367.59" y2="387.50" class="down-wick"/>
<rect x="363.59" y="371.72" width="8.00" height="6.96" class="down-body"/>
<line x1="385.62" y1="366.22" x2="385.62" y2="385.61" class="up-wick"/>
<rect x="381.62" y="377.79" width="8.00" height="1.00" class="up-body"/>
<line x1="403.66" y1="375.32" x2="403.66" y2="387.53" class="down-wick"/>
<rect x="399.66" y="377.79" width="8.00" height="1.00" class="down-body"/>
<line x1="421.70" y1="376.74" x2="421.70" y2="390.51" class="down-wick"/>
<rect x="417.70" y="378.47" width="8.00" height="10.78" class="down-body"/>
<line x1="439.73" y1="359.24" x2="439.73" y2="389.53" class="up-wick"/>
<rect x="435.73" y="362.85" width="8.00" height="26.40" class="up-body"/>
<line x1="457.77" y1="359.47" x2="457.77" y2="388.41" class="down-wick"/>
<rect x="453.77" y="362.85" width="8.00" height="18.98" class="down-body"/>
<line x1="475.80" y1="378.85" x2="475.80" y2="399.27" class="down-wick"/>
<rect x="471.80" y="381.83" width="8.00" height="14.07" class="down-body"/>
<line x1="493.84" y1="384.28" x2="493.84" y2="398.35" class="up-wick"/>
<rect x="489.84" y="387.24" width="8.00" height="8.64" class="up-body"/>
<line x1="511.88" y1="377.86" x2="511.88" y2="396.23" class="down-wick"/>
<rect x="507.88" y="387.24" width="8.00" height="1.00" class="down-body"/>
<line x1="529.91" y1="388.11" x2="529.91" y2="398.40" class="down-wick"/>
<rect x="525.91" y="388.11" width="8.00" height="5.58" class="down-body"/>
<line x1="547.95" y1="381.06" x2="547.95" y2="399.78" class="up-wick"/>
<rect x="543.95" y="391.71" width="8.00" height="1.98" class="up-body"/>
<line x1="565.98" y1="387.48" x2="565.98" y2="398.73" class="down-wick"/>
<rect x="561.98" y="391.71" width="8.00" height="2.29" class="down-body"/>
<line x1="584.02" y1="384.70" x2="584.02" y2="395.86" class="up-wick"/>
<rect x="580.02" y="389.74" width="8.00" height="4.27" class="up-body"/>
<line x1="602.05" y1="389.00" x2="602.05" y2="399.96" class="down-wick"/>
<rect x="598.05" y="389.74" width="8.00" height="1.00" class="down-body"/>
<line x1="620.09" y1="389.67" x2="620.09" y2="395.79" class="down-wick"/>
<rect x="616.09" y="390.40" width="8.00" height="2.52" class="down-body"/>
<line x1="638.12" y1="387.90" x2="638.12" y2="418.40" class="down-wick"/>
<rect x="634.12" y="392.92" width="8.00" height="18.79" class="down-body"/>
<line x1="656.16" y1="384.75" x2="656.16" y2="414.46" class="up-wick"/>
<rect x="652.16" y="384.75" width="8.00" height="26.96" class="up-body"/>
<line x1="674.20" y1="378.98" x2="674.20" y2="400.06" class="down-wick"/>
<rect x="670.20" y="384.75" width="8.00" height="13.93" class="down-body"/>
<line x1="692.23" y1="389.14" x2="692.23" y2="400.36" class="up-wick"/>
<rect x="688.23" y="394.18" width="8.00" height="4.50" class="up-body"/>
<line x1="710.27" y1="387.46" x2="710.27" y2="398.45" class="up-wick"/>
<rect x="706.27" y="389.67" width="8.00" height="4.51" class="up-body"/>
<line x1="728.30" y1="388.99" x2="728.30" y2="410.73" class="down-wick"/>
<rect x="724.30" y="389.67" width="8.00" height="19.54" class="down-body"/>
<line x1="746.34" y1="381.29" x2="746.34" y2="415.02" class="up-wick"/>
<rect x="742.34" y="389.02" width="8.00" height="20.19" class="up-body"/>
<line x1="764.38" y1="385.43" x2="764.38" y2="398.73" class="up-wick"/>
<rect x="760.38" y="386.97" width="8.00" height="2.06" class="up-body"/>
<line x1="782.41" y1="380.45" x2="782.41" y2="398.63" class="down-wick"/>
<rect x="778.41" y="386.97" width="8.00" height="10.38" class="down-body"/>
<line x1="800.45" y1="390.12" x2="800.45" y2="400.60" class="down-wick"/>
<rect x="796.45" y="397.35" width="8.00" height="1.00" class="down-body"/>
<line x1="818.48" y1="397.47" x2="818.48" y2="437.00" class="down-wick"/>
<rect x="814.48" y="398.01" width="8.00" height="22.10" class="down-body"/>
<line x1="836.52" y1="417.05" x2="836.52" y2="478.81" class="down-wick"/>
<rect x="832.52" y="420.11" width="8.00" height="56.69" class="down-body"/>
<line x1="854.55" y1="470.68" x2="854.55" y2="524.76" class="down-wick"/>
<rect x="850.55" y="476.80" width="8.00" height="27.87" class="down-body"/>
<line x1="872.59" y1="443.17" x2="872.59" y2="508.15" class="up-wick"/>
<rect x="868.59" y="456.29" width="8.00" height="48.38" class="up-body"/>
<line x1="890.62" y1="437.73" x2="890.62" y2="476.40" class="down-wick"/>
<rect x="886.62" y="456.29" width="8.00" height="19.30" class="down-body"/>
<line x1="908.66" y1="461.35" x2="908.66" y2="490.15" class="down-wick"/>
<rect x="904.66" y="475.61" width="8.00" height="4.58" class="down-body"/>
<line x1="926.70" y1="465.18" x2="926.70" y2="484.94" class="up-wick"/>
<rect x="922.70" y="472.36" width="8.00" height="7.84" class="up-body"/>
<line x1="944.73" y1="468.73" x2="944.73" y2="487.04" class="down-wick"/>
<rect x="940.73" y="472.36" width="8.00" height="1.00" class="down-body"/>
<line x1="962.77" y1="463.07" x2="962.77" y2="480.79" class="up-wick"/>
<rect x="958.77" y="464.78" width="8.00" height="8.49" class="up-body"/>
<line x1="980.80" y1="454.11" x2="980.80" y2="473.60" class="down-wick"/>
<rect x="976.80" y="464.78" width="8.00" height="1.00" class="down-body"/>
<line x1="998.84" y1="449.51" x2="998.84" y2="466.53" class="up-wick"/>
<rect x="994.84" y="459.25" width="8.00" height="5.65" class="up-body"/>
<line x1="1016.88" y1="446.81" x2="1016.88" y2="462.61" class="up-wick"/>
<rect x="1012.88" y="448.19" width="8.00" height="11.06" class="up-body"/>
<line x1="1034.91" y1="445.03" x2="1034.91" y2="469.80" class="down-wick"/>
<rect x="1030.91" y="448.19" width="8.00" height="13.19" class="down-body"/>
<line x1="1052.95" y1="442.02" x2="1052.95" y2="465.15" class="up-wick"/>
<rect x="1048.95" y="447.84" width="8.00" height="13.54" class="up-body"/>
<line x1="1070.98" y1="441.18" x2="1070.98" y2="453.13" class="down-wick"/>
<rect x="1066.98" y="447.84" width="8.00" height="4.72" class="down-body"/>
<line x1="70" y1="441.46" x2="1080" y2="441.46" class="sweep-line"/>
<text x="1076" y="437.46" text-anchor="end" class="level-label">sweep 4512.29</text>
<line x1="70" y1="437.73" x2="1080" y2="437.73" class="entry-line"/>
<text x="1076" y="433.73" text-anchor="end" class="level-label">entry level 4514.42</text>
<text x="70" y="556" class="axis-label">2026-05-19 05:45:00+00:00 to 2026-05-19 19:30:00+00:00</text>
<text x="1080" y="556" text-anchor="end" class="axis-label">4457.11 - 4566.85</text>
<text x="70" y="582" class="panel-title">M5 reaction / execution context</text>
<rect x="70" y="596" width="1010" height="192" class="plot-bg"/>
<line x1="81.48" y1="609.24" x2="81.48" y2="635.86" class="down-wick"/>
<rect x="77.48" y="613.95" width="8.00" height="19.68" class="down-body"/>
<line x1="104.43" y1="626.61" x2="104.43" y2="669.87" class="down-wick"/>
<rect x="100.43" y="633.63" width="8.00" height="32.67" class="down-body"/>
<line x1="127.39" y1="666.19" x2="127.39" y2="704.15" class="down-wick"/>
<rect x="123.39" y="666.27" width="8.00" height="34.79" class="down-body"/>
<line x1="150.34" y1="691.65" x2="150.34" y2="774.76" class="down-wick"/>
<rect x="146.34" y="701.06" width="8.00" height="28.45" class="down-body"/>
<line x1="173.30" y1="715.39" x2="173.30" y2="756.82" class="up-wick"/>
<rect x="169.30" y="724.69" width="8.00" height="4.81" class="up-body"/>
<line x1="196.25" y1="724.21" x2="196.25" y2="759.84" class="down-wick"/>
<rect x="192.25" y="725.12" width="8.00" height="18.77" class="down-body"/>
<line x1="219.20" y1="727.17" x2="219.20" y2="749.24" class="up-wick"/>
<rect x="215.20" y="730.39" width="8.00" height="13.50" class="up-body"/>
<line x1="242.16" y1="665.46" x2="242.16" y2="734.05" class="up-wick"/>
<rect x="238.16" y="667.32" width="8.00" height="63.08" class="up-body"/>
<line x1="265.11" y1="649.38" x2="265.11" y2="685.17" class="down-wick"/>
<rect x="261.11" y="667.32" width="8.00" height="2.23" class="down-body"/>
<line x1="288.07" y1="646.75" x2="288.07" y2="691.17" class="up-wick"/>
<rect x="284.07" y="648.28" width="8.00" height="21.27" class="up-body"/>
<line x1="311.02" y1="641.02" x2="311.02" y2="693.48" class="down-wick"/>
<rect x="307.02" y="648.87" width="8.00" height="19.84" class="down-body"/>
<line x1="333.98" y1="668.72" x2="333.98" y2="700.44" class="down-wick"/>
<rect x="329.98" y="668.72" width="8.00" height="30.49" class="down-body"/>
<line x1="356.93" y1="677.32" x2="356.93" y2="701.09" class="up-wick"/>
<rect x="352.93" y="693.43" width="8.00" height="5.81" class="up-body"/>
<line x1="379.89" y1="690.36" x2="379.89" y2="720.61" class="down-wick"/>
<rect x="375.89" y="693.43" width="8.00" height="22.40" class="down-body"/>
<line x1="402.84" y1="695.12" x2="402.84" y2="721.58" class="up-wick"/>
<rect x="398.84" y="706.28" width="8.00" height="9.54" class="up-body"/>
<line x1="425.80" y1="684.71" x2="425.80" y2="710.23" class="up-wick"/>
<rect x="421.80" y="706.04" width="8.00" height="1.00" class="up-body"/>
<line x1="448.75" y1="683.21" x2="448.75" y2="709.15" class="down-wick"/>
<rect x="444.75" y="706.04" width="8.00" height="1.21" class="down-body"/>
<line x1="471.70" y1="685.55" x2="471.70" y2="713.56" class="up-wick"/>
<rect x="467.70" y="694.23" width="8.00" height="13.01" class="up-body"/>
<line x1="494.66" y1="689.69" x2="494.66" y2="712.62" class="down-wick"/>
<rect x="490.66" y="694.23" width="8.00" height="12.48" class="down-body"/>
<line x1="517.61" y1="695.60" x2="517.61" y2="716.79" class="down-wick"/>
<rect x="513.61" y="706.71" width="8.00" height="8.79" class="down-body"/>
<line x1="540.57" y1="688.67" x2="540.57" y2="715.63" class="up-wick"/>
<rect x="536.57" y="695.63" width="8.00" height="19.87" class="up-body"/>
<line x1="563.52" y1="679.98" x2="563.52" y2="695.87" class="up-wick"/>
<rect x="559.52" y="688.72" width="8.00" height="6.91" class="up-body"/>
<line x1="586.48" y1="679.95" x2="586.48" y2="707.19" class="up-wick"/>
<rect x="582.48" y="684.12" width="8.00" height="4.49" class="up-body"/>
<line x1="609.43" y1="680.30" x2="609.43" y2="691.25" class="up-wick"/>
<rect x="605.43" y="682.59" width="8.00" height="1.53" class="up-body"/>
<line x1="632.39" y1="666.19" x2="632.39" y2="684.63" class="up-wick"/>
<rect x="628.39" y="678.69" width="8.00" height="3.90" class="up-body"/>
<line x1="655.34" y1="673.90" x2="655.34" y2="696.14" class="down-wick"/>
<rect x="651.34" y="678.69" width="8.00" height="14.68" class="down-body"/>
<line x1="678.30" y1="679.52" x2="678.30" y2="694.96" class="up-wick"/>
<rect x="674.30" y="682.80" width="8.00" height="10.57" class="up-body"/>
<line x1="701.25" y1="659.12" x2="701.25" y2="685.28" class="up-wick"/>
<rect x="697.25" y="669.87" width="8.00" height="12.91" class="up-body"/>
<line x1="724.20" y1="665.41" x2="724.20" y2="682.78" class="down-wick"/>
<rect x="720.20" y="670.41" width="8.00" height="1.13" class="down-body"/>
<line x1="747.16" y1="666.05" x2="747.16" y2="678.07" class="down-wick"/>
<rect x="743.16" y="671.54" width="8.00" height="2.55" class="down-body"/>
<line x1="770.11" y1="668.74" x2="770.11" y2="679.26" class="up-wick"/>
<rect x="766.11" y="668.82" width="8.00" height="5.27" class="up-body"/>
<line x1="793.07" y1="664.28" x2="793.07" y2="675.20" class="down-wick"/>
<rect x="789.07" y="668.82" width="8.00" height="2.85" class="down-body"/>
<line x1="816.02" y1="654.98" x2="816.02" y2="671.83" class="up-wick"/>
<rect x="812.02" y="657.10" width="8.00" height="14.57" class="up-body"/>
<line x1="838.98" y1="652.23" x2="838.98" y2="665.62" class="down-wick"/>
<rect x="834.98" y="657.10" width="8.00" height="7.53" class="down-body"/>
<line x1="861.93" y1="664.60" x2="861.93" y2="686.84" class="down-wick"/>
<rect x="857.93" y="664.63" width="8.00" height="19.33" class="down-body"/>
<line x1="884.89" y1="676.59" x2="884.89" y2="690.31" class="up-wick"/>
<rect x="880.89" y="677.37" width="8.00" height="6.59" class="up-body"/>
<line x1="907.84" y1="671.67" x2="907.84" y2="683.15" class="down-wick"/>
<rect x="903.84" y="677.37" width="8.00" height="1.37" class="down-body"/>
<line x1="930.80" y1="663.71" x2="930.80" y2="679.15" class="up-wick"/>
<rect x="926.80" y="664.58" width="8.00" height="14.22" class="up-body"/>
<line x1="953.75" y1="647.61" x2="953.75" y2="664.63" class="up-wick"/>
<rect x="949.75" y="656.56" width="8.00" height="8.07" class="up-body"/>
<line x1="976.70" y1="646.32" x2="976.70" y2="661.86" class="down-wick"/>
<rect x="972.70" y="656.56" width="8.00" height="3.36" class="down-body"/>
<line x1="999.66" y1="653.44" x2="999.66" y2="664.09" class="up-wick"/>
<rect x="995.66" y="656.13" width="8.00" height="3.79" class="up-body"/>
<line x1="1022.61" y1="654.38" x2="1022.61" y2="664.68" class="down-wick"/>
<rect x="1018.61" y="656.13" width="8.00" height="7.69" class="down-body"/>
<line x1="1045.57" y1="662.32" x2="1045.57" y2="667.45" class="up-wick"/>
<rect x="1041.57" y="663.71" width="8.00" height="1.00" class="up-body"/>
<line x1="1068.52" y1="658.93" x2="1068.52" y2="667.05" class="down-wick"/>
<rect x="1064.52" y="663.69" width="8.00" height="1.10" class="down-body"/>
<line x1="70" y1="646.75" x2="1080" y2="646.75" class="sweep-line"/>
<text x="1076" y="642.75" text-anchor="end" class="level-label">sweep 4512.29</text>
<line x1="70" y1="641.02" x2="1080" y2="641.02" class="entry-line"/>
<text x="1076" y="637.02" text-anchor="end" class="level-label">entry level 4514.42</text>
<text x="70" y="806" class="axis-label">2026-05-19 16:15:00+00:00 to 2026-05-19 19:50:00+00:00</text>
<text x="1080" y="806" text-anchor="end" class="axis-label">4459.76 - 4531.16</text>
<text x="70" y="832" class="panel-title">M1 execution window</text>
<rect x="70" y="846" width="1010" height="192" class="plot-bg"/>
<line x1="74.55" y1="859.24" x2="74.55" y2="864.48" class="up-wick"/>
<rect x="71.59" y="861.47" width="5.91" height="2.47" class="up-body"/>
<line x1="83.65" y1="867.66" x2="83.65" y2="882.39" class="down-wick"/>
<rect x="80.69" y="869.43" width="5.91" height="12.96" class="down-body"/>
<line x1="92.75" y1="876.31" x2="92.75" y2="885.86" class="down-wick"/>
<rect x="89.79" y="876.31" width="5.91" height="7.31" class="down-body"/>
<line x1="101.85" y1="882.01" x2="101.85" y2="896.48" class="down-wick"/>
<rect x="98.89" y="886.16" width="5.91" height="9.17" class="down-body"/>
<line x1="110.95" y1="899.06" x2="110.95" y2="916.43" class="down-wick"/>
<rect x="107.99" y="901.00" width="5.91" height="14.68" class="down-body"/>
<line x1="120.05" y1="916.27" x2="120.05" y2="927.43" class="down-wick"/>
<rect x="117.09" y="916.27" width="5.91" height="10.41" class="down-body"/>
<line x1="129.14" y1="916.19" x2="129.14" y2="927.70" class="up-wick"/>
<rect x="126.19" y="924.58" width="5.91" height="2.66" class="up-body"/>
<line x1="138.24" y1="933.91" x2="138.24" y2="954.15" class="down-wick"/>
<rect x="135.29" y="934.15" width="5.91" height="16.91" class="down-body"/>
<line x1="147.34" y1="954.72" x2="147.34" y2="1024.76" class="down-wick"/>
<rect x="144.39" y="954.72" width="5.91" height="54.93" class="down-body"/>
<line x1="156.44" y1="971.82" x2="156.44" y2="992.87" class="down-wick"/>
<rect x="153.48" y="976.44" width="5.91" height="3.50" class="down-body"/>
<line x1="165.54" y1="978.16" x2="165.54" y2="1006.82" class="down-wick"/>
<rect x="162.58" y="979.51" width="5.91" height="17.77" class="down-body"/>
<line x1="174.64" y1="965.39" x2="174.64" y2="978.32" class="up-wick"/>
<rect x="171.68" y="970.02" width="5.91" height="6.40" class="up-body"/>
<line x1="183.74" y1="967.81" x2="183.74" y2="981.71" class="up-wick"/>
<rect x="180.78" y="974.69" width="5.91" height="1.00" class="up-body"/>
<line x1="192.84" y1="987.14" x2="192.84" y2="1004.54" class="down-wick"/>
<rect x="189.88" y="992.68" width="5.91" height="9.52" class="down-body"/>
<line x1="201.94" y1="984.78" x2="201.94" y2="998.11" class="up-wick"/>
<rect x="198.98" y="986.04" width="5.91" height="12.02" class="up-body"/>
<line x1="211.04" y1="977.17" x2="211.04" y2="993.89" class="up-wick"/>
<rect x="208.08" y="978.81" width="5.91" height="15.08" class="up-body"/>
<line x1="220.14" y1="981.93" x2="220.14" y2="999.24" class="down-wick"/>
<rect x="217.18" y="989.59" width="5.91" height="1.00" class="down-body"/>
<line x1="229.23" y1="977.68" x2="229.23" y2="996.29" class="up-wick"/>
<rect x="226.28" y="980.39" width="5.91" height="9.68" class="up-body"/>
<line x1="238.33" y1="945.68" x2="238.33" y2="958.64" class="up-wick"/>
<rect x="235.38" y="950.68" width="5.91" height="4.22" class="up-body"/>
<line x1="247.43" y1="938.32" x2="247.43" y2="944.66" class="down-wick"/>
<rect x="244.48" y="940.98" width="5.91" height="1.00" class="down-body"/>
<line x1="256.53" y1="899.38" x2="256.53" y2="917.32" class="up-wick"/>
<rect x="253.57" y="906.99" width="5.91" height="10.32" class="up-body"/>
<line x1="265.63" y1="919.76" x2="265.63" y2="933.26" class="up-wick"/>
<rect x="262.67" y="921.65" width="5.91" height="8.04" class="up-body"/>
<line x1="274.73" y1="907.50" x2="274.73" y2="921.59" class="down-wick"/>
<rect x="271.77" y="907.61" width="5.91" height="11.94" class="down-body"/>
<line x1="283.83" y1="923.69" x2="283.83" y2="937.19" class="up-wick"/>
<rect x="280.87" y="928.13" width="5.91" height="7.02" class="up-body"/>
<line x1="292.93" y1="927.99" x2="292.93" y2="939.63" class="up-wick"/>
<rect x="289.97" y="931.06" width="5.91" height="5.22" class="up-body"/>
<line x1="302.03" y1="891.02" x2="302.03" y2="918.77" class="down-wick"/>
<rect x="299.07" y="898.87" width="5.91" height="19.90" class="down-body"/>
<line x1="311.13" y1="912.50" x2="311.13" y2="942.08" class="down-wick"/>
<rect x="308.17" y="915.68" width="5.91" height="21.03" class="down-body"/>
<line x1="320.23" y1="916.75" x2="320.23" y2="931.65" class="up-wick"/>
<rect x="317.27" y="918.72" width="5.91" height="10.75" class="up-body"/>
<line x1="329.32" y1="925.89" x2="329.32" y2="936.38" class="up-wick"/>
<rect x="326.37" y="928.93" width="5.91" height="1.37" class="up-body"/>
<line x1="338.42" y1="926.67" x2="338.42" y2="940.06" class="down-wick"/>
<rect x="335.47" y="927.56" width="5.91" height="10.65" class="down-body"/>
<line x1="347.52" y1="938.85" x2="347.52" y2="951.09" class="up-wick"/>
<rect x="344.57" y="939.63" width="5.91" height="9.60" class="up-body"/>
<line x1="356.62" y1="931.59" x2="356.62" y2="947.40" class="up-wick"/>
<rect x="353.66" y="934.34" width="5.91" height="6.69" class="up-body"/>
<line x1="365.72" y1="927.32" x2="365.72" y2="943.80" class="down-wick"/>
<rect x="362.76" y="928.99" width="5.91" height="14.44" class="down-body"/>
<line x1="374.82" y1="954.02" x2="374.82" y2="970.53" class="down-wick"/>
<rect x="371.86" y="955.20" width="5.91" height="13.26" class="down-body"/>
<line x1="383.92" y1="955.55" x2="383.92" y2="968.21" class="down-wick"/>
<rect x="380.96" y="959.96" width="5.91" height="5.59" class="down-body"/>
<line x1="393.02" y1="962.68" x2="393.02" y2="971.58" class="up-wick"/>
<rect x="390.06" y="965.42" width="5.91" height="1.00" class="up-body"/>
<line x1="402.12" y1="947.67" x2="402.12" y2="956.06" class="up-wick"/>
<rect x="399.16" y="950.63" width="5.91" height="1.00" class="up-body"/>
<line x1="411.22" y1="949.82" x2="411.22" y2="957.03" class="down-wick"/>
<rect x="408.26" y="954.39" width="5.91" height="1.88" class="down-body"/>
<line x1="420.32" y1="934.71" x2="420.32" y2="944.10" class="down-wick"/>
<rect x="417.36" y="937.54" width="5.91" height="1.40" class="down-body"/>
<line x1="429.41" y1="948.78" x2="429.41" y2="958.13" class="up-wick"/>
<rect x="426.46" y="950.98" width="5.91" height="5.22" class="up-body"/>
<line x1="438.51" y1="938.50" x2="438.51" y2="956.55" class="up-wick"/>
<rect x="435.56" y="940.20" width="5.91" height="15.84" class="up-body"/>
<line x1="447.61" y1="939.20" x2="447.61" y2="948.91" class="down-wick"/>
<rect x="444.66" y="939.20" width="5.91" height="7.34" class="down-body"/>
<line x1="456.71" y1="946.87" x2="456.71" y2="959.15" class="down-wick"/>
<rect x="453.75" y="946.89" width="5.91" height="10.35" class="down-body"/>
<line x1="465.81" y1="943.16" x2="465.81" y2="959.56" class="up-wick"/>
<rect x="462.85" y="946.06" width="5.91" height="9.03" class="up-body"/>
<line x1="474.91" y1="935.55" x2="474.91" y2="947.59" class="down-wick"/>
<rect x="471.95" y="939.02" width="5.91" height="7.45" class="down-body"/>
<line x1="484.01" y1="939.69" x2="484.01" y2="956.47" class="down-wick"/>
<rect x="481.05" y="944.23" width="5.91" height="7.34" class="down-body"/>
<line x1="493.11" y1="943.02" x2="493.11" y2="951.76" class="down-wick"/>
<rect x="490.15" y="945.60" width="5.91" height="5.83" class="down-body"/>
<line x1="502.21" y1="952.35" x2="502.21" y2="958.05" class="down-wick"/>
<rect x="499.25" y="953.64" width="5.91" height="3.07" class="down-body"/>
<line x1="511.31" y1="945.79" x2="511.31" y2="953.70" class="down-wick"/>
<rect x="508.35" y="945.93" width="5.91" height="5.92" class="down-body"/>
<line x1="520.41" y1="951.09" x2="520.41" y2="963.62" class="down-wick"/>
<rect x="517.45" y="952.16" width="5.91" height="10.67" class="down-body"/>
<line x1="529.50" y1="953.72" x2="529.50" y2="965.63" class="up-wick"/>
<rect x="526.55" y="953.72" width="5.91" height="11.78" class="up-body"/>
<line x1="538.60" y1="949.18" x2="538.60" y2="960.39" class="up-wick"/>
<rect x="535.65" y="951.25" width="5.91" height="7.02" class="up-body"/>
<line x1="547.70" y1="940.82" x2="547.70" y2="946.73" class="down-wick"/>
<rect x="544.75" y="942.56" width="5.91" height="3.07" class="down-body"/>
<line x1="556.80" y1="933.50" x2="556.80" y2="940.25" class="up-wick"/>
<rect x="553.84" y="938.16" width="5.91" height="1.00" class="up-body"/>
<line x1="565.90" y1="932.21" x2="565.90" y2="939.90" class="up-wick"/>
<rect x="562.94" y="933.64" width="5.91" height="1.00" class="up-body"/>
<line x1="575.00" y1="937.64" x2="575.00" y2="946.57" class="down-wick"/>
<rect x="572.04" y="938.61" width="5.91" height="6.78" class="down-body"/>
<line x1="584.10" y1="940.82" x2="584.10" y2="957.19" class="down-wick"/>
<rect x="581.14" y="942.13" width="5.91" height="11.75" class="down-body"/>
<line x1="593.20" y1="929.95" x2="593.20" y2="945.87" class="up-wick"/>
<rect x="590.24" y="934.12" width="5.91" height="10.81" class="up-body"/>
<line x1="602.30" y1="934.20" x2="602.30" y2="941.25" class="down-wick"/>
<rect x="599.34" y="938.10" width="5.91" height="1.56" class="down-body"/>
<line x1="611.40" y1="934.31" x2="611.40" y2="939.20" class="up-wick"/>
<rect x="608.44" y="935.95" width="5.91" height="2.90" class="up-body"/>
<line x1="620.50" y1="926.78" x2="620.50" y2="933.34" class="up-wick"/>
<rect x="617.54" y="930.63" width="5.91" height="1.96" class="up-body"/>
<line x1="629.59" y1="927.70" x2="629.59" y2="933.29" class="up-wick"/>
<rect x="626.64" y="929.47" width="5.91" height="3.66" class="up-body"/>
<line x1="638.69" y1="917.72" x2="638.69" y2="932.00" class="down-wick"/>
<rect x="635.74" y="917.86" width="5.91" height="10.84" class="down-body"/>
<line x1="647.79" y1="923.90" x2="647.79" y2="932.48" class="up-wick"/>
<rect x="644.84" y="927.96" width="5.91" height="3.47" class="up-body"/>
<line x1="656.89" y1="936.49" x2="656.89" y2="945.55" class="down-wick"/>
<rect x="653.93" y="938.05" width="5.91" height="6.69" class="down-body"/>
<line x1="665.99" y1="935.49" x2="665.99" y2="944.96" class="up-wick"/>
<rect x="663.03" y="937.59" width="5.91" height="5.78" class="up-body"/>
<line x1="675.09" y1="930.81" x2="675.09" y2="938.48" class="up-wick"/>
<rect x="672.13" y="931.27" width="5.91" height="6.69" class="up-body"/>
<line x1="684.19" y1="930.20" x2="684.19" y2="935.90" class="up-wick"/>
<rect x="681.23" y="932.80" width="5.91" height="1.56" class="up-body"/>
<line x1="693.29" y1="909.12" x2="693.29" y2="925.03" class="up-wick"/>
<rect x="690.33" y="911.13" width="5.91" height="13.74" class="up-body"/>
<line x1="702.39" y1="913.12" x2="702.39" y2="917.10" class="down-wick"/>
<rect x="699.43" y="915.70" width="5.91" height="1.00" class="down-body"/>
<line x1="711.49" y1="920.41" x2="711.49" y2="932.05" class="down-wick"/>
<rect x="708.53" y="920.41" width="5.91" height="10.92" class="down-body"/>
<line x1="720.59" y1="917.61" x2="720.59" y2="928.93" class="up-wick"/>
<rect x="717.63" y="918.15" width="5.91" height="9.84" class="up-body"/>
<line x1="729.68" y1="916.13" x2="729.68" y2="922.45" class="down-wick"/>
<rect x="726.73" y="916.99" width="5.91" height="4.54" class="down-body"/>
<line x1="738.78" y1="919.15" x2="738.78" y2="924.60" class="up-wick"/>
<rect x="735.83" y="922.75" width="5.91" height="1.86" class="up-body"/>
<line x1="747.88" y1="920.03" x2="747.88" y2="928.07" class="down-wick"/>
<rect x="744.93" y="920.46" width="5.91" height="6.53" class="down-body"/>
<line x1="756.98" y1="920.33" x2="756.98" y2="927.48" class="down-wick"/>
<rect x="754.02" y="924.09" width="5.91" height="3.23" class="down-body"/>
<line x1="766.08" y1="924.87" x2="766.08" y2="929.26" class="up-wick"/>
<rect x="763.12" y="925.09" width="5.91" height="1.00" class="up-body"/>
<line x1="775.18" y1="918.74" x2="775.18" y2="924.17" class="up-wick"/>
<rect x="772.22" y="918.82" width="5.91" height="4.79" class="up-body"/>
<line x1="784.28" y1="917.91" x2="784.28" y2="922.75" class="up-wick"/>
<rect x="781.32" y="921.51" width="5.91" height="1.00" class="up-body"/>
<line x1="793.38" y1="914.28" x2="793.38" y2="923.21" class="down-wick"/>
<rect x="790.42" y="918.72" width="5.91" height="2.53" class="down-body"/>
<line x1="802.48" y1="913.15" x2="802.48" y2="921.83" class="up-wick"/>
<rect x="799.52" y="914.55" width="5.91" height="7.13" class="up-body"/>
<line x1="811.58" y1="905.30" x2="811.58" y2="913.10" class="up-wick"/>
<rect x="808.62" y="909.87" width="5.91" height="2.12" class="up-body"/>
<line x1="820.68" y1="904.98" x2="820.68" y2="911.48" class="up-wick"/>
<rect x="817.72" y="907.10" width="5.91" height="3.44" class="up-body"/>
<line x1="829.77" y1="903.66" x2="829.77" y2="910.35" class="down-wick"/>
<rect x="826.82" y="903.93" width="5.91" height="6.05" class="down-body"/>
<line x1="838.87" y1="908.88" x2="838.87" y2="913.42" class="down-wick"/>
<rect x="835.92" y="910.78" width="5.91" height="2.55" class="down-body"/>
<line x1="847.97" y1="914.60" x2="847.97" y2="923.45" class="down-wick"/>
<rect x="845.02" y="914.63" width="5.91" height="8.60" class="down-body"/>
<line x1="857.07" y1="923.58" x2="857.07" y2="929.15" class="up-wick"/>
<rect x="854.11" y="923.77" width="5.91" height="2.90" class="up-body"/>
<line x1="866.17" y1="926.38" x2="866.17" y2="936.84" class="down-wick"/>
<rect x="863.21" y="927.10" width="5.91" height="6.86" class="down-body"/>
<line x1="875.27" y1="929.85" x2="875.27" y2="934.23" class="down-wick"/>
<rect x="872.31" y="932.56" width="5.91" height="1.00" class="down-body"/>
<line x1="884.37" y1="929.36" x2="884.37" y2="934.61" class="up-wick"/>
<rect x="881.41" y="930.81" width="5.91" height="3.79" class="up-body"/>
<line x1="893.47" y1="921.67" x2="893.47" y2="927.91" class="up-wick"/>
<rect x="890.51" y="927.02" width="5.91" height="1.00" class="up-body"/>
<line x1="902.57" y1="927.45" x2="902.57" y2="932.05" class="up-wick"/>
<rect x="899.61" y="928.21" width="5.91" height="2.15" class="up-body"/>
<line x1="911.67" y1="927.83" x2="911.67" y2="929.85" class="up-wick"/>
<rect x="908.71" y="928.74" width="5.91" height="1.00" class="up-body"/>
<line x1="920.77" y1="923.47" x2="920.77" y2="925.38" class="down-wick"/>
<rect x="917.81" y="924.31" width="5.91" height="1.00" class="down-body"/>
<line x1="929.86" y1="918.12" x2="929.86" y2="925.30" class="up-wick"/>
<rect x="926.91" y="918.34" width="5.91" height="6.83" class="up-body"/>
<line x1="938.96" y1="904.65" x2="938.96" y2="914.63" class="up-wick"/>
<rect x="936.01" y="906.21" width="5.91" height="8.42" class="up-body"/>
<line x1="948.06" y1="905.65" x2="948.06" y2="910.22" class="up-wick"/>
<rect x="945.11" y="906.27" width="5.91" height="1.02" class="up-body"/>
<line x1="957.16" y1="904.44" x2="957.16" y2="907.96" class="up-wick"/>
<rect x="954.20" y="906.56" width="5.91" height="1.00" class="up-body"/>
<line x1="966.26" y1="898.90" x2="966.26" y2="907.80" class="up-wick"/>
<rect x="963.30" y="902.29" width="5.91" height="5.51" class="up-body"/>
<line x1="975.36" y1="903.42" x2="975.36" y2="908.47" class="down-wick"/>
<rect x="972.40" y="903.52" width="5.91" height="3.68" class="down-body"/>
<line x1="984.46" y1="905.76" x2="984.46" y2="909.98" class="up-wick"/>
<rect x="981.50" y="906.94" width="5.91" height="2.98" class="up-body"/>
<line x1="993.56" y1="907.32" x2="993.56" y2="911.54" class="down-wick"/>
<rect x="990.60" y="909.57" width="5.91" height="1.24" class="down-body"/>
<line x1="1002.66" y1="904.65" x2="1002.66" y2="908.01" class="up-wick"/>
<rect x="999.70" y="906.13" width="5.91" height="1.34" class="up-body"/>
<line x1="1011.76" y1="906.00" x2="1011.76" y2="911.64" class="up-wick"/>
<rect x="1008.80" y="906.37" width="5.91" height="2.69" class="up-body"/>
<line x1="1020.86" y1="909.33" x2="1020.86" y2="913.98" class="down-wick"/>
<rect x="1017.90" y="911.73" width="5.91" height="1.00" class="down-body"/>
<line x1="1029.95" y1="912.32" x2="1029.95" y2="915.89" class="down-wick"/>
<rect x="1027.00" y="913.82" width="5.91" height="1.16" class="down-body"/>
<line x1="1039.05" y1="913.55" x2="1039.05" y2="917.45" class="up-wick"/>
<rect x="1036.10" y="913.55" width="5.91" height="1.96" class="up-body"/>
<line x1="1048.15" y1="913.12" x2="1048.15" y2="916.59" class="up-wick"/>
<rect x="1045.20" y="913.71" width="5.91" height="1.37" class="up-body"/>
<line x1="1057.25" y1="911.97" x2="1057.25" y2="917.05" class="up-wick"/>
<rect x="1054.30" y="912.88" width="5.91" height="3.47" class="up-body"/>
<line x1="1066.35" y1="908.93" x2="1066.35" y2="914.58" class="down-wick"/>
<rect x="1063.39" y="910.70" width="5.91" height="3.20" class="down-body"/>
<line x1="1075.45" y1="913.02" x2="1075.45" y2="916.08" class="down-wick"/>
<rect x="1072.49" y="914.79" width="5.91" height="1.00" class="down-body"/>
<line x1="70" y1="896.75" x2="1080" y2="896.75" class="sweep-line"/>
<text x="1076" y="892.75" text-anchor="end" class="level-label">sweep 4512.29</text>
<line x1="70" y1="891.02" x2="1080" y2="891.02" class="entry-line"/>
<text x="1076" y="887.02" text-anchor="end" class="level-label">entry level 4514.42</text>
<text x="70" y="1056" class="axis-label">2026-05-19 16:15:00+00:00 to 2026-05-19 19:55:00+00:00</text>
<text x="1080" y="1056" text-anchor="end" class="axis-label">4459.76 - 4531.16</text>
</svg>