<svg xmlns="http://www.w3.org/2000/svg" width="1120" height="1054" viewBox="0 0 1120 1054">
<style>
text{font-family:Arial,Helvetica,sans-serif}.title{font-size:21px;font-weight:700;fill:#1f2937}.subtitle{font-size:12px;fill:#4b5563}.panel-title{font-size:15px;font-weight:700;fill:#111827}.muted{font-size:13px;fill:#6b7280}.plot-bg{fill:#f8fafc;stroke:#cbd5e1;stroke-width:1}.up-body{fill:#15803d;stroke:#14532d;stroke-width:.8}.down-body{fill:#b91c1c;stroke:#7f1d1d;stroke-width:.8}.up-wick{stroke:#14532d;stroke-width:1}.down-wick{stroke:#7f1d1d;stroke-width:1}.sweep-line{stroke:#7c3aed;stroke-width:1.6;stroke-dasharray:6 4}.number-line{stroke:#0f766e;stroke-width:1.4;stroke-dasharray:3 4}.entry-line{stroke:#2563eb;stroke-width:1.4}.sl-line{stroke:#dc2626;stroke-width:1.4}.tp-line{stroke:#16a34a;stroke-width:1.4}.level-label,.axis-label{font-size:11px;fill:#374151}
</style>
<text x="28" y="28" class="title">Adelin v2 visual review sample sample_260</text>
<text x="28" y="48" class="subtitle">Candidate windows are for visual labeling only and are not trade signals.</text>
<text x="560" y="48" class="subtitle" text-anchor="middle">LARGE_UPPER_WICK_REVERSAL_VISUAL_CANDIDATE | PRE_ANCHOR_SWEEP_EXTREME_CANDIDATE</text>
<text x="70" y="82" class="panel-title">H1 liquidity context</text>
<rect x="70" y="96" width="1010" height="192" class="plot-bg"/>
<line x1="82.62" y1="154.89" x2="82.62" y2="222.88" class="up-wick"/>
<rect x="78.62" y="166.45" width="8.00" height="9.77" class="up-body"/>
<line x1="107.88" y1="163.92" x2="107.88" y2="185.49" class="down-wick"/>
<rect x="103.88" y="166.45" width="8.00" height="12.03" class="down-body"/>
<line x1="133.12" y1="171.28" x2="133.12" y2="254.00" class="down-wick"/>
<rect x="129.12" y="178.45" width="8.00" height="28.12" class="down-body"/>
<line x1="158.38" y1="180.29" x2="158.38" y2="241.67" class="up-wick"/>
<rect x="154.38" y="193.99" width="8.00" height="13.26" class="up-body"/>
<line x1="183.62" y1="170.86" x2="183.62" y2="198.66" class="up-wick"/>
<rect x="179.62" y="183.02" width="8.00" height="10.98" class="up-body"/>
<line x1="208.88" y1="164.12" x2="208.88" y2="194.33" class="up-wick"/>
<rect x="204.88" y="173.08" width="8.00" height="9.94" class="up-body"/>
<line x1="234.12" y1="161.61" x2="234.12" y2="187.95" class="down-wick"/>
<rect x="230.12" y="173.09" width="8.00" height="1.00" class="down-body"/>
<line x1="259.38" y1="158.63" x2="259.38" y2="188.08" class="down-wick"/>
<rect x="255.38" y="173.74" width="8.00" height="12.97" class="down-body"/>
<line x1="284.62" y1="163.83" x2="284.62" y2="188.39" class="up-wick"/>
<rect x="280.62" y="165.61" width="8.00" height="21.10" class="up-body"/>
<line x1="309.88" y1="148.20" x2="309.88" y2="176.97" class="down-wick"/>
<rect x="305.88" y="165.61" width="8.00" height="1.00" class="down-body"/>
<line x1="335.12" y1="152.10" x2="335.12" y2="171.10" class="up-wick"/>
<rect x="331.12" y="161.38" width="8.00" height="4.96" class="up-body"/>
<line x1="360.38" y1="158.75" x2="360.38" y2="174.55" class="down-wick"/>
<rect x="356.38" y="161.38" width="8.00" height="9.34" class="down-body"/>
<line x1="385.62" y1="164.31" x2="385.62" y2="185.38" class="down-wick"/>
<rect x="381.62" y="170.73" width="8.00" height="3.61" class="down-body"/>
<line x1="410.88" y1="138.53" x2="410.88" y2="188.16" class="up-wick"/>
<rect x="406.88" y="160.53" width="8.00" height="13.81" class="up-body"/>
<line x1="436.12" y1="128.23" x2="436.12" y2="167.63" class="up-wick"/>
<rect x="432.12" y="133.19" width="8.00" height="27.36" class="up-body"/>
<line x1="461.38" y1="115.85" x2="461.38" y2="145.64" class="up-wick"/>
<rect x="457.38" y="126.95" width="8.00" height="6.25" class="up-body"/>
<line x1="486.62" y1="126.95" x2="486.62" y2="177.53" class="down-wick"/>
<rect x="482.62" y="126.95" width="8.00" height="39.08" class="down-body"/>
<line x1="511.88" y1="164.09" x2="511.88" y2="185.46" class="down-wick"/>
<rect x="507.88" y="166.05" width="8.00" height="3.85" class="down-body"/>
<line x1="537.12" y1="155.48" x2="537.12" y2="182.70" class="up-wick"/>
<rect x="533.12" y="161.11" width="8.00" height="8.80" class="up-body"/>
<line x1="562.38" y1="150.33" x2="562.38" y2="167.27" class="down-wick"/>
<rect x="558.38" y="161.11" width="8.00" height="4.27" class="down-body"/>
<line x1="587.62" y1="164.29" x2="587.62" y2="182.54" class="down-wick"/>
<rect x="583.62" y="165.37" width="8.00" height="14.71" class="down-body"/>
<line x1="612.88" y1="141.40" x2="612.88" y2="180.84" class="up-wick"/>
<rect x="608.88" y="150.18" width="8.00" height="29.90" class="up-body"/>
<line x1="638.12" y1="123.75" x2="638.12" y2="140.26" class="up-wick"/>
<rect x="634.12" y="129.64" width="8.00" height="9.95" class="up-body"/>
<line x1="663.38" y1="109.56" x2="663.38" y2="129.89" class="up-wick"/>
<rect x="659.38" y="119.14" width="8.00" height="10.52" class="up-body"/>
<line x1="688.62" y1="109.24" x2="688.62" y2="146.37" class="down-wick"/>
<rect x="684.62" y="119.14" width="8.00" height="24.42" class="down-body"/>
<line x1="713.88" y1="131.51" x2="713.88" y2="155.88" class="up-wick"/>
<rect x="709.88" y="143.01" width="8.00" height="1.00" class="up-body"/>
<line x1="739.12" y1="143.01" x2="739.12" y2="166.71" class="down-wick"/>
<rect x="735.12" y="143.01" width="8.00" height="22.11" class="down-body"/>
<line x1="764.38" y1="154.58" x2="764.38" y2="169.90" class="down-wick"/>
<rect x="760.38" y="165.12" width="8.00" height="2.79" class="down-body"/>
<line x1="789.62" y1="167.10" x2="789.62" y2="177.26" class="down-wick"/>
<rect x="785.62" y="167.91" width="8.00" height="3.53" class="down-body"/>
<line x1="814.88" y1="165.89" x2="814.88" y2="186.78" class="down-wick"/>
<rect x="810.88" y="171.42" width="8.00" height="2.05" class="down-body"/>
<line x1="840.12" y1="156.16" x2="840.12" y2="183.36" class="up-wick"/>
<rect x="836.12" y="163.82" width="8.00" height="9.65" class="up-body"/>
<line x1="865.38" y1="149.05" x2="865.38" y2="172.80" class="up-wick"/>
<rect x="861.38" y="151.79" width="8.00" height="12.03" class="up-body"/>
<line x1="890.62" y1="149.23" x2="890.62" y2="179.46" class="down-wick"/>
<rect x="886.62" y="151.79" width="8.00" height="19.17" class="down-body"/>
<line x1="915.88" y1="165.62" x2="915.88" y2="179.84" class="down-wick"/>
<rect x="911.88" y="170.98" width="8.00" height="1.24" class="down-body"/>
<line x1="941.12" y1="168.43" x2="941.12" y2="193.98" class="up-wick"/>
<rect x="937.12" y="168.43" width="8.00" height="3.79" class="up-body"/>
<line x1="966.38" y1="164.04" x2="966.38" y2="188.16" class="down-wick"/>
<rect x="962.38" y="168.43" width="8.00" height="18.58" class="down-body"/>
<line x1="991.62" y1="165.16" x2="991.62" y2="191.42" class="up-wick"/>
<rect x="987.62" y="178.50" width="8.00" height="8.50" class="up-body"/>
<line x1="1016.88" y1="178.09" x2="1016.88" y2="274.76" class="down-wick"/>
<rect x="1012.88" y="178.50" width="8.00" height="44.26" class="down-body"/>
<line x1="1042.12" y1="208.66" x2="1042.12" y2="248.47" class="down-wick"/>
<rect x="1038.12" y="222.76" width="8.00" height="12.89" class="down-body"/>
<line x1="1067.38" y1="215.56" x2="1067.38" y2="241.37" class="up-wick"/>
<rect x="1063.38" y="216.61" width="8.00" height="19.04" class="up-body"/>
<line x1="70" y1="158.17" x2="1080" y2="158.17" class="sweep-line"/>
<text x="1076" y="154.17" text-anchor="end" class="level-label">sweep 4552.42</text>
<line x1="70" y1="156.16" x2="1080" y2="156.16" class="entry-line"/>
<text x="1076" y="152.16" text-anchor="end" class="level-label">entry level 4553.93</text>
<text x="70" y="306" class="axis-label">2026-05-18 01:00:00+00:00 to 2026-05-19 18:00:00+00:00</text>
<text x="1080" y="306" text-anchor="end" class="axis-label">4454.72 - 4599.20</text>
<text x="70" y="332" class="panel-title">M15 liquidity / reaction context</text>
<rect x="70" y="346" width="1010" height="192" class="plot-bg"/>
<line x1="77.77" y1="413.08" x2="77.77" y2="479.11" class="up-wick"/>
<rect x="73.77" y="436.66" width="8.00" height="41.18" class="up-body"/>
<line x1="93.31" y1="433.72" x2="93.31" y2="454.37" class="down-wick"/>
<rect x="89.31" y="436.66" width="8.00" height="6.32" class="down-body"/>
<line x1="108.85" y1="421.40" x2="108.85" y2="446.14" class="up-wick"/>
<rect x="104.85" y="428.38" width="8.00" height="14.59" class="up-body"/>
<line x1="124.38" y1="417.62" x2="124.38" y2="430.16" class="up-wick"/>
<rect x="120.38" y="427.78" width="8.00" height="1.00" class="up-body"/>
<line x1="139.92" y1="394.75" x2="139.92" y2="411.17" class="up-wick"/>
<rect x="135.92" y="394.75" width="8.00" height="15.31" class="up-body"/>
<line x1="155.46" y1="391.94" x2="155.46" y2="399.60" class="down-wick"/>
<rect x="151.46" y="394.75" width="8.00" height="1.07" class="down-body"/>
<line x1="171.00" y1="383.54" x2="171.00" y2="398.51" class="up-wick"/>
<rect x="167.00" y="387.45" width="8.00" height="8.36" class="up-body"/>
<line x1="186.54" y1="386.74" x2="186.54" y2="396.46" class="down-wick"/>
<rect x="182.54" y="387.45" width="8.00" height="5.94" class="down-body"/>
<line x1="202.08" y1="364.94" x2="202.08" y2="393.81" class="up-wick"/>
<rect x="198.08" y="367.47" width="8.00" height="25.96" class="up-body"/>
<line x1="217.62" y1="359.78" x2="217.62" y2="372.41" class="up-wick"/>
<rect x="213.62" y="367.27" width="8.00" height="1.00" class="up-body"/>
<line x1="233.15" y1="361.93" x2="233.15" y2="373.70" class="down-wick"/>
<rect x="229.15" y="367.27" width="8.00" height="1.00" class="down-body"/>
<line x1="248.69" y1="364.94" x2="248.69" y2="381.53" class="down-wick"/>
<rect x="244.69" y="367.81" width="8.00" height="8.01" class="down-body"/>
<line x1="264.23" y1="359.24" x2="264.23" y2="386.87" class="down-wick"/>
<rect x="260.23" y="375.82" width="8.00" height="6.47" class="down-body"/>
<line x1="279.77" y1="367.07" x2="279.77" y2="404.60" class="down-wick"/>
<rect x="275.77" y="382.29" width="8.00" height="11.70" class="down-body"/>
<line x1="295.31" y1="388.54" x2="295.31" y2="406.00" class="down-wick"/>
<rect x="291.31" y="393.66" width="8.00" height="6.50" class="down-body"/>
<line x1="310.85" y1="396.28" x2="310.85" y2="421.40" class="down-wick"/>
<rect x="306.85" y="400.15" width="8.00" height="16.55" class="down-body"/>
<line x1="326.38" y1="403.65" x2="326.38" y2="429.76" class="up-wick"/>
<rect x="322.38" y="411.50" width="8.00" height="5.36" class="up-body"/>
<line x1="341.92" y1="405.23" x2="341.92" y2="437.33" class="down-wick"/>
<rect x="337.92" y="411.50" width="8.00" height="14.64" class="down-body"/>
<line x1="357.46" y1="396.53" x2="357.46" y2="434.86" class="up-wick"/>
<rect x="353.46" y="400.35" width="8.00" height="25.78" class="up-body"/>
<line x1="373.00" y1="398.00" x2="373.00" y2="421.07" class="down-wick"/>
<rect x="369.00" y="400.35" width="8.00" height="15.42" class="down-body"/>
<line x1="388.54" y1="415.77" x2="388.54" y2="440.02" class="down-wick"/>
<rect x="384.54" y="415.77" width="8.00" height="20.73" class="down-body"/>
<line x1="404.08" y1="419.33" x2="404.08" y2="443.18" class="up-wick"/>
<rect x="400.08" y="424.91" width="8.00" height="11.59" class="up-body"/>
<line x1="419.62" y1="424.71" x2="419.62" y2="444.49" class="down-wick"/>
<rect x="415.62" y="424.96" width="8.00" height="7.74" class="down-body"/>
<line x1="435.15" y1="428.85" x2="435.15" y2="455.46" class="down-wick"/>
<rect x="431.15" y="432.70" width="8.00" height="20.09" class="down-body"/>
<line x1="450.69" y1="440.49" x2="450.69" y2="460.80" class="up-wick"/>
<rect x="446.69" y="442.49" width="8.00" height="10.30" class="up-body"/>
<line x1="466.23" y1="439.82" x2="466.23" y2="453.68" class="down-wick"/>
<rect x="462.23" y="442.49" width="8.00" height="5.85" class="down-body"/>
<line x1="481.77" y1="435.15" x2="481.77" y2="453.17" class="down-wick"/>
<rect x="477.77" y="448.34" width="8.00" height="3.05" class="down-body"/>
<line x1="497.31" y1="447.81" x2="497.31" y2="459.31" class="down-wick"/>
<rect x="493.31" y="451.57" width="8.00" height="5.90" class="down-body"/>
<line x1="512.85" y1="456.10" x2="512.85" y2="471.63" class="down-wick"/>
<rect x="508.85" y="457.46" width="8.00" height="10.83" class="down-body"/>
<line x1="528.38" y1="461.78" x2="528.38" y2="472.68" class="up-wick"/>
<rect x="524.38" y="468.07" width="8.00" height="1.00" class="up-body"/>
<line x1="543.92" y1="463.89" x2="543.92" y2="473.12" class="down-wick"/>
<rect x="539.92" y="468.07" width="8.00" height="1.20" class="down-body"/>
<line x1="559.46" y1="460.42" x2="559.46" y2="469.32" class="up-wick"/>
<rect x="555.46" y="463.38" width="8.00" height="5.90" class="up-body"/>
<line x1="575.00" y1="454.08" x2="575.00" y2="468.36" class="up-wick"/>
<rect x="571.00" y="457.97" width="8.00" height="5.36" class="up-body"/>
<line x1="590.54" y1="456.84" x2="590.54" y2="489.05" class="down-wick"/>
<rect x="586.54" y="458.04" width="8.00" height="13.99" class="down-body"/>
<line x1="606.08" y1="459.49" x2="606.08" y2="484.42" class="down-wick"/>
<rect x="602.08" y="472.03" width="8.00" height="1.00" class="down-body"/>
<line x1="621.62" y1="461.07" x2="621.62" y2="484.09" class="up-wick"/>
<rect x="617.62" y="466.76" width="8.00" height="5.36" class="up-body"/>
<line x1="637.15" y1="455.70" x2="637.15" y2="483.33" class="up-wick"/>
<rect x="633.15" y="464.22" width="8.00" height="2.54" class="up-body"/>
<line x1="652.69" y1="437.80" x2="652.69" y2="466.65" class="up-wick"/>
<rect x="648.69" y="451.63" width="8.00" height="12.59" class="up-body"/>
<line x1="668.23" y1="440.22" x2="668.23" y2="457.93" class="up-wick"/>
<rect x="664.23" y="441.67" width="8.00" height="9.97" class="up-body"/>
<line x1="683.77" y1="440.58" x2="683.77" y2="461.82" class="down-wick"/>
<rect x="679.77" y="441.76" width="8.00" height="8.85" class="down-body"/>
<line x1="699.31" y1="434.77" x2="699.31" y2="459.42" class="up-wick"/>
<rect x="695.31" y="449.47" width="8.00" height="1.13" class="up-body"/>
<line x1="714.85" y1="446.34" x2="714.85" y2="461.87" class="down-wick"/>
<rect x="710.85" y="449.47" width="8.00" height="1.00" class="down-body"/>
<line x1="730.38" y1="448.14" x2="730.38" y2="465.65" class="down-wick"/>
<rect x="726.38" y="450.34" width="8.00" height="13.70" class="down-body"/>
<line x1="745.92" y1="425.89" x2="745.92" y2="464.40" class="up-wick"/>
<rect x="741.92" y="430.48" width="8.00" height="33.57" class="up-body"/>
<line x1="761.46" y1="426.18" x2="761.46" y2="462.98" class="down-wick"/>
<rect x="757.46" y="430.48" width="8.00" height="24.14" class="down-body"/>
<line x1="777.00" y1="450.83" x2="777.00" y2="476.79" class="down-wick"/>
<rect x="773.00" y="454.61" width="8.00" height="17.89" class="down-body"/>
<line x1="792.54" y1="457.73" x2="792.54" y2="475.62" class="up-wick"/>
<rect x="788.54" y="461.49" width="8.00" height="10.99" class="up-body"/>
<line x1="808.08" y1="449.56" x2="808.08" y2="472.92" class="down-wick"/>
<rect x="804.08" y="461.49" width="8.00" height="1.09" class="down-body"/>
<line x1="823.62" y1="462.60" x2="823.62" y2="475.68" class="down-wick"/>
<rect x="819.62" y="462.60" width="8.00" height="7.10" class="down-body"/>
<line x1="839.15" y1="453.64" x2="839.15" y2="477.44" class="up-wick"/>
<rect x="835.15" y="467.18" width="8.00" height="2.51" class="up-body"/>
<line x1="854.69" y1="461.80" x2="854.69" y2="476.10" class="down-wick"/>
<rect x="850.69" y="467.18" width="8.00" height="2.91" class="down-body"/>
<line x1="870.23" y1="458.26" x2="870.23" y2="472.46" class="up-wick"/>
<rect x="866.23" y="464.67" width="8.00" height="5.43" class="up-body"/>
<line x1="885.77" y1="463.74" x2="885.77" y2="477.66" class="down-wick"/>
<rect x="881.77" y="464.67" width="8.00" height="1.00" class="down-body"/>
<line x1="901.31" y1="464.58" x2="901.31" y2="472.37" class="down-wick"/>
<rect x="897.31" y="465.52" width="8.00" height="3.20" class="down-body"/>
<line x1="916.85" y1="462.33" x2="916.85" y2="501.11" class="down-wick"/>
<rect x="912.85" y="468.72" width="8.00" height="23.89" class="down-body"/>
<line x1="932.38" y1="458.33" x2="932.38" y2="496.10" class="up-wick"/>
<rect x="928.38" y="458.33" width="8.00" height="34.28" class="up-body"/>
<line x1="947.92" y1="450.99" x2="947.92" y2="477.80" class="down-wick"/>
<rect x="943.92" y="458.33" width="8.00" height="17.71" class="down-body"/>
<line x1="963.46" y1="463.91" x2="963.46" y2="478.17" class="up-wick"/>
<rect x="959.46" y="470.32" width="8.00" height="5.72" class="up-body"/>
<line x1="979.00" y1="461.78" x2="979.00" y2="475.75" class="up-wick"/>
<rect x="975.00" y="464.58" width="8.00" height="5.74" class="up-body"/>
<line x1="994.54" y1="463.71" x2="994.54" y2="491.37" class="down-wick"/>
<rect x="990.54" y="464.58" width="8.00" height="24.85" class="down-body"/>
<line x1="1010.08" y1="453.92" x2="1010.08" y2="496.82" class="up-wick"/>
<rect x="1006.08" y="463.76" width="8.00" height="25.67" class="up-body"/>
<line x1="1025.62" y1="459.20" x2="1025.62" y2="476.10" class="up-wick"/>
<rect x="1021.62" y="461.15" width="8.00" height="2.63" class="up-body"/>
<line x1="1041.15" y1="452.86" x2="1041.15" y2="475.97" class="down-wick"/>
<rect x="1037.15" y="461.15" width="8.00" height="13.19" class="down-body"/>
<line x1="1056.69" y1="465.16" x2="1056.69" y2="478.48" class="down-wick"/>
<rect x="1052.69" y="474.35" width="8.00" height="1.00" class="down-body"/>
<line x1="1072.23" y1="474.50" x2="1072.23" y2="524.76" class="down-wick"/>
<rect x="1068.23" y="475.19" width="8.00" height="28.10" class="down-body"/>
<line x1="70" y1="441.15" x2="1080" y2="441.15" class="sweep-line"/>
<text x="1076" y="437.15" text-anchor="end" class="level-label">sweep 4552.42</text>
<line x1="70" y1="437.80" x2="1080" y2="437.80" class="entry-line"/>
<text x="1076" y="433.80" text-anchor="end" class="level-label">entry level 4553.93</text>
<text x="70" y="556" class="axis-label">2026-05-18 22:00:00+00:00 to 2026-05-19 16:00:00+00:00</text>
<text x="1080" y="556" text-anchor="end" class="axis-label">4508.89 - 4595.19</text>
<text x="70" y="582" class="panel-title">M5 reaction / execution context</text>
<rect x="70" y="596" width="1010" height="192" class="plot-bg"/>
<line x1="79.18" y1="728.90" x2="79.18" y2="774.76" class="down-wick"/>
<rect x="75.18" y="739.72" width="8.00" height="9.81" class="down-body"/>
<line x1="97.55" y1="721.22" x2="97.55" y2="763.69" class="up-wick"/>
<rect x="93.55" y="731.67" width="8.00" height="18.18" class="up-body"/>
<line x1="115.91" y1="704.24" x2="115.91" y2="742.93" class="down-wick"/>
<rect x="111.91" y="731.67" width="8.00" height="8.30" class="down-body"/>
<line x1="134.27" y1="719.40" x2="134.27" y2="773.81" class="down-wick"/>
<rect x="130.27" y="739.97" width="8.00" height="30.32" class="down-body"/>
<line x1="152.64" y1="720.97" x2="152.64" y2="773.12" class="up-wick"/>
<rect x="148.64" y="731.35" width="8.00" height="38.94" class="up-body"/>
<line x1="171.00" y1="708.70" x2="171.00" y2="738.77" class="up-wick"/>
<rect x="167.00" y="724.81" width="8.00" height="6.48" class="up-body"/>
<line x1="189.36" y1="721.10" x2="189.36" y2="771.68" class="down-wick"/>
<rect x="185.36" y="724.81" width="8.00" height="12.33" class="down-body"/>
<line x1="207.73" y1="727.39" x2="207.73" y2="755.13" class="down-wick"/>
<rect x="203.73" y="737.14" width="8.00" height="7.61" class="down-body"/>
<line x1="226.09" y1="693.54" x2="226.09" y2="748.40" class="up-wick"/>
<rect x="222.09" y="717.64" width="8.00" height="27.37" class="up-body"/>
<line x1="244.45" y1="666.36" x2="244.45" y2="724.49" class="up-wick"/>
<rect x="240.45" y="667.24" width="8.00" height="50.39" class="up-body"/>
<line x1="262.82" y1="660.01" x2="262.82" y2="695.24" class="down-wick"/>
<rect x="258.82" y="667.31" width="8.00" height="4.03" class="down-body"/>
<line x1="281.18" y1="642.90" x2="281.18" y2="682.03" class="down-wick"/>
<rect x="277.18" y="671.33" width="8.00" height="10.69" class="down-body"/>
<line x1="299.55" y1="659.82" x2="299.55" y2="699.83" class="up-wick"/>
<rect x="295.55" y="666.05" width="8.00" height="15.98" class="up-body"/>
<line x1="317.91" y1="651.71" x2="317.91" y2="689.89" class="up-wick"/>
<rect x="313.91" y="653.15" width="8.00" height="12.90" class="up-body"/>
<line x1="336.27" y1="649.76" x2="336.27" y2="675.23" class="down-wick"/>
<rect x="332.27" y="653.15" width="8.00" height="1.00" class="down-body"/>
<line x1="354.64" y1="650.76" x2="354.64" y2="710.72" class="down-wick"/>
<rect x="350.64" y="654.10" width="8.00" height="56.24" class="down-body"/>
<line x1="373.00" y1="683.92" x2="373.00" y2="710.84" class="up-wick"/>
<rect x="369.00" y="687.75" width="8.00" height="22.58" class="up-body"/>
<line x1="391.36" y1="669.82" x2="391.36" y2="687.94" class="up-wick"/>
<rect x="387.36" y="679.13" width="8.00" height="8.62" class="up-body"/>
<line x1="409.73" y1="675.23" x2="409.73" y2="704.05" class="down-wick"/>
<rect x="405.73" y="679.13" width="8.00" height="1.82" class="down-body"/>
<line x1="428.09" y1="634.34" x2="428.09" y2="687.44" class="up-wick"/>
<rect x="424.09" y="648.62" width="8.00" height="32.34" class="up-body"/>
<line x1="446.45" y1="643.15" x2="446.45" y2="685.36" class="down-wick"/>
<rect x="442.45" y="648.62" width="8.00" height="27.30" class="down-body"/>
<line x1="464.82" y1="667.06" x2="464.82" y2="688.57" class="up-wick"/>
<rect x="460.82" y="675.86" width="8.00" height="1.00" class="up-body"/>
<line x1="483.18" y1="667.69" x2="483.18" y2="699.33" class="down-wick"/>
<rect x="479.18" y="675.86" width="8.00" height="10.38" class="down-body"/>
<line x1="501.55" y1="678.25" x2="501.55" y2="710.97" class="up-wick"/>
<rect x="497.55" y="678.38" width="8.00" height="7.86" class="up-body"/>
<line x1="519.91" y1="672.15" x2="519.91" y2="706.50" class="down-wick"/>
<rect x="515.91" y="678.38" width="8.00" height="26.42" class="down-body"/>
<line x1="538.27" y1="681.90" x2="538.27" y2="714.43" class="down-wick"/>
<rect x="534.27" y="704.99" width="8.00" height="4.84" class="down-body"/>
<line x1="556.64" y1="699.14" x2="556.64" y2="721.66" class="down-wick"/>
<rect x="552.64" y="709.84" width="8.00" height="7.30" class="down-body"/>
<line x1="575.00" y1="641.01" x2="575.00" y2="718.14" class="up-wick"/>
<rect x="571.00" y="661.52" width="8.00" height="55.61" class="up-body"/>
<line x1="593.36" y1="643.97" x2="593.36" y2="680.83" class="up-wick"/>
<rect x="589.36" y="653.78" width="8.00" height="7.74" class="up-body"/>
<line x1="611.73" y1="609.24" x2="611.73" y2="654.03" class="up-wick"/>
<rect x="607.73" y="622.20" width="8.00" height="31.58" class="up-body"/>
<line x1="630.09" y1="610.06" x2="630.09" y2="651.45" class="down-wick"/>
<rect x="626.09" y="622.20" width="8.00" height="27.30" class="down-body"/>
<line x1="648.45" y1="648.81" x2="648.45" y2="706.19" class="down-wick"/>
<rect x="644.45" y="649.50" width="8.00" height="53.73" class="down-body"/>
<line x1="666.82" y1="680.39" x2="666.82" y2="714.11" class="up-wick"/>
<rect x="662.82" y="690.46" width="8.00" height="12.77" class="up-body"/>
<line x1="685.18" y1="679.76" x2="685.18" y2="703.61" class="down-wick"/>
<rect x="681.18" y="690.46" width="8.00" height="12.90" class="down-body"/>
<line x1="703.55" y1="698.64" x2="703.55" y2="736.82" class="down-wick"/>
<rect x="699.55" y="703.36" width="8.00" height="23.15" class="down-body"/>
<line x1="721.91" y1="724.12" x2="721.91" y2="753.18" class="down-wick"/>
<rect x="717.91" y="726.51" width="8.00" height="14.53" class="down-body"/>
<line x1="740.27" y1="703.73" x2="740.27" y2="749.85" class="up-wick"/>
<rect x="736.27" y="704.11" width="8.00" height="36.87" class="up-body"/>
<line x1="758.64" y1="699.27" x2="758.64" y2="715.56" class="down-wick"/>
<rect x="754.64" y="703.98" width="8.00" height="6.29" class="down-body"/>
<line x1="777.00" y1="706.75" x2="777.00" y2="716.69" class="up-wick"/>
<rect x="773.00" y="709.90" width="8.00" height="1.00" class="up-body"/>
<line x1="795.36" y1="676.18" x2="795.36" y2="712.10" class="up-wick"/>
<rect x="791.36" y="692.35" width="8.00" height="17.55" class="up-body"/>
<line x1="813.73" y1="684.23" x2="813.73" y2="742.23" class="down-wick"/>
<rect x="809.73" y="692.28" width="8.00" height="21.70" class="down-body"/>
<line x1="832.09" y1="703.54" x2="832.09" y2="718.71" class="up-wick"/>
<rect x="828.09" y="712.98" width="8.00" height="1.01" class="up-body"/>
<line x1="850.45" y1="713.04" x2="850.45" y2="730.60" class="down-wick"/>
<rect x="846.45" y="713.04" width="8.00" height="8.37" class="down-body"/>
<line x1="868.82" y1="721.10" x2="868.82" y2="750.03" class="down-wick"/>
<rect x="864.82" y="721.41" width="8.00" height="5.16" class="down-body"/>
<line x1="887.18" y1="723.99" x2="887.18" y2="748.52" class="down-wick"/>
<rect x="883.18" y="726.44" width="8.00" height="6.67" class="down-body"/>
<line x1="905.55" y1="729.46" x2="905.55" y2="755.00" class="up-wick"/>
<rect x="901.55" y="730.47" width="8.00" height="2.64" class="up-body"/>
<line x1="923.91" y1="687.69" x2="923.91" y2="731.98" class="up-wick"/>
<rect x="919.91" y="689.33" width="8.00" height="41.14" class="up-body"/>
<line x1="942.27" y1="688.01" x2="942.27" y2="727.83" class="down-wick"/>
<rect x="938.27" y="689.33" width="8.00" height="36.68" class="down-body"/>
<line x1="960.64" y1="710.78" x2="960.64" y2="751.23" class="down-wick"/>
<rect x="956.64" y="726.00" width="8.00" height="9.56" class="down-body"/>
<line x1="979.00" y1="716.31" x2="979.00" y2="747.46" class="up-wick"/>
<rect x="975.00" y="734.12" width="8.00" height="1.38" class="up-body"/>
<line x1="997.36" y1="727.45" x2="997.36" y2="742.61" class="down-wick"/>
<rect x="993.36" y="734.12" width="8.00" height="1.00" class="down-body"/>
<line x1="1015.73" y1="722.48" x2="1015.73" y2="740.91" class="up-wick"/>
<rect x="1011.73" y="725.75" width="8.00" height="8.49" class="up-body"/>
<line x1="1034.09" y1="707.95" x2="1034.09" y2="736.01" class="up-wick"/>
<rect x="1030.09" y="709.21" width="8.00" height="16.48" class="up-body"/>
<line x1="1052.45" y1="700.78" x2="1052.45" y2="725.56" class="down-wick"/>
<rect x="1048.45" y="709.21" width="8.00" height="9.69" class="down-body"/>
<line x1="1070.82" y1="718.89" x2="1070.82" y2="752.61" class="down-wick"/>
<rect x="1066.82" y="718.89" width="8.00" height="32.84" class="down-body"/>
<line x1="70" y1="652.40" x2="1080" y2="652.40" class="sweep-line"/>
<text x="1076" y="648.40" text-anchor="end" class="level-label">sweep 4552.42</text>
<line x1="70" y1="642.90" x2="1080" y2="642.90" class="entry-line"/>
<text x="1076" y="638.90" text-anchor="end" class="level-label">entry level 4553.93</text>
<text x="70" y="806" class="axis-label">2026-05-19 08:30:00+00:00 to 2026-05-19 13:00:00+00:00</text>
<text x="1080" y="806" text-anchor="end" class="axis-label">4530.87 - 4561.38</text>
<text x="70" y="832" class="panel-title">M1 execution window</text>
<rect x="70" y="846" width="1010" height="192" class="plot-bg"/>
<line x1="73.71" y1="981.48" x2="73.71" y2="1024.76" class="down-wick"/>
<rect x="71.30" y="989.72" width="4.83" height="6.35" class="down-body"/>
<line x1="81.14" y1="988.27" x2="81.14" y2="1009.91" class="down-wick"/>
<rect x="78.73" y="999.78" width="4.83" height="8.43" class="down-body"/>
<line x1="88.57" y1="978.90" x2="88.57" y2="1001.23" class="down-wick"/>
<rect x="86.15" y="983.99" width="4.83" height="15.54" class="down-body"/>
<line x1="95.99" y1="994.12" x2="95.99" y2="1008.02" class="up-wick"/>
<rect x="93.58" y="997.77" width="4.83" height="5.66" class="up-body"/>
<line x1="103.42" y1="973.86" x2="103.42" y2="985.57" class="down-wick"/>
<rect x="101.01" y="977.01" width="4.83" height="3.27" class="down-body"/>
<line x1="110.85" y1="954.30" x2="110.85" y2="984.37" class="up-wick"/>
<rect x="108.43" y="954.30" width="4.83" height="27.37" class="up-body"/>
<line x1="118.27" y1="965.50" x2="118.27" y2="975.19" class="up-wick"/>
<rect x="115.86" y="970.97" width="4.83" height="2.64" class="up-body"/>
<line x1="125.70" y1="977.26" x2="125.70" y2="992.93" class="down-wick"/>
<rect x="123.28" y="977.51" width="4.83" height="12.46" class="down-body"/>
<line x1="133.12" y1="976.25" x2="133.12" y2="999.41" class="up-wick"/>
<rect x="130.71" y="976.76" width="4.83" height="22.46" class="up-body"/>
<line x1="140.55" y1="974.18" x2="140.55" y2="999.15" class="up-wick"/>
<rect x="138.14" y="977.45" width="4.83" height="2.52" class="up-body"/>
<line x1="147.98" y1="1002.93" x2="147.98" y2="1023.12" class="up-wick"/>
<rect x="145.56" y="1005.51" width="4.83" height="14.78" class="up-body"/>
<line x1="155.40" y1="997.39" x2="155.40" y2="1008.84" class="up-wick"/>
<rect x="152.99" y="999.66" width="4.83" height="8.37" class="up-body"/>
<line x1="162.83" y1="970.97" x2="162.83" y2="995.13" class="up-wick"/>
<rect x="160.42" y="981.35" width="4.83" height="11.51" class="up-body"/>
<line x1="170.26" y1="958.70" x2="170.26" y2="980.41" class="down-wick"/>
<rect x="167.84" y="969.08" width="4.83" height="2.01" class="down-body"/>
<line x1="177.68" y1="963.17" x2="177.68" y2="973.11" class="up-wick"/>
<rect x="175.27" y="965.94" width="4.83" height="2.89" class="up-body"/>
<line x1="185.11" y1="972.17" x2="185.11" y2="1017.21" class="down-wick"/>
<rect x="182.70" y="974.81" width="4.83" height="36.30" class="down-body"/>
<line x1="192.54" y1="971.10" x2="192.54" y2="1003.24" class="up-wick"/>
<rect x="190.12" y="976.76" width="4.83" height="22.46" class="up-body"/>
<line x1="199.96" y1="977.51" x2="199.96" y2="992.36" class="down-wick"/>
<rect x="197.55" y="979.53" width="4.83" height="7.61" class="down-body"/>
<line x1="207.39" y1="994.06" x2="207.39" y2="1005.13" class="up-wick"/>
<rect x="204.98" y="996.76" width="4.83" height="1.00" class="up-body"/>
<line x1="214.82" y1="979.59" x2="214.82" y2="991.92" class="down-wick"/>
<rect x="212.40" y="980.22" width="4.83" height="4.03" class="down-body"/>
<line x1="222.24" y1="980.09" x2="222.24" y2="998.40" class="up-wick"/>
<rect x="219.83" y="982.73" width="4.83" height="12.27" class="up-body"/>
<line x1="229.67" y1="969.46" x2="229.67" y2="989.53" class="up-wick"/>
<rect x="227.26" y="970.84" width="4.83" height="15.98" class="up-body"/>
<line x1="237.10" y1="953.80" x2="237.10" y2="973.11" class="down-wick"/>
<rect x="234.68" y="953.80" width="4.83" height="13.84" class="down-body"/>
<line x1="244.52" y1="948.26" x2="244.52" y2="962.67" class="down-wick"/>
<rect x="242.11" y="950.02" width="4.83" height="6.17" class="down-body"/>
<line x1="251.95" y1="918.63" x2="251.95" y2="959.46" class="up-wick"/>
<rect x="249.53" y="924.98" width="4.83" height="32.52" class="up-body"/>
<line x1="259.38" y1="914.98" x2="259.38" y2="933.16" class="down-wick"/>
<rect x="256.96" y="917.31" width="4.83" height="10.82" class="down-body"/>
<line x1="266.80" y1="910.01" x2="266.80" y2="928.69" class="down-wick"/>
<rect x="264.39" y="912.53" width="4.83" height="12.02" class="down-body"/>
<line x1="274.23" y1="920.45" x2="274.23" y2="945.24" class="up-wick"/>
<rect x="271.81" y="921.33" width="4.83" height="21.96" class="up-body"/>
<line x1="281.65" y1="902.40" x2="281.65" y2="918.31" class="up-wick"/>
<rect x="279.24" y="905.92" width="4.83" height="8.68" class="up-body"/>
<line x1="289.08" y1="906.05" x2="289.08" y2="925.74" class="down-wick"/>
<rect x="286.67" y="906.36" width="4.83" height="12.08" class="down-body"/>
<line x1="296.51" y1="926.74" x2="296.51" y2="938.82" class="down-wick"/>
<rect x="294.09" y="932.03" width="4.83" height="3.33" class="down-body"/>
<line x1="303.93" y1="925.74" x2="303.93" y2="941.72" class="up-wick"/>
<rect x="301.52" y="936.05" width="4.83" height="1.32" class="up-body"/>
<line x1="311.36" y1="909.82" x2="311.36" y2="923.98" class="up-wick"/>
<rect x="308.95" y="916.05" width="4.83" height="2.83" class="up-body"/>
<line x1="318.79" y1="928.51" x2="318.79" y2="939.89" class="down-wick"/>
<rect x="316.37" y="930.71" width="4.83" height="2.45" class="down-body"/>
<line x1="326.21" y1="907.56" x2="326.21" y2="929.51" class="up-wick"/>
<rect x="323.80" y="908.50" width="4.83" height="19.69" class="up-body"/>
<line x1="333.64" y1="900.70" x2="333.64" y2="913.34" class="down-wick"/>
<rect x="331.23" y="903.15" width="4.83" height="8.68" class="down-body"/>
<line x1="341.07" y1="911.08" x2="341.07" y2="920.33" class="up-wick"/>
<rect x="338.65" y="911.21" width="4.83" height="7.42" class="up-body"/>
<line x1="348.49" y1="899.76" x2="348.49" y2="925.23" class="up-wick"/>
<rect x="346.08" y="903.84" width="4.83" height="17.99" class="up-body"/>
<line x1="355.92" y1="913.66" x2="355.92" y2="942.85" class="down-wick"/>
<rect x="353.51" y="914.67" width="4.83" height="19.57" class="down-body"/>
<line x1="363.35" y1="938.19" x2="363.35" y2="951.15" class="up-wick"/>
<rect x="360.93" y="943.60" width="4.83" height="1.32" class="up-body"/>
<line x1="370.77" y1="948.76" x2="370.77" y2="960.84" class="up-wick"/>
<rect x="368.36" y="954.36" width="4.83" height="5.98" class="up-body"/>
<line x1="378.20" y1="947.38" x2="378.20" y2="955.05" class="up-wick"/>
<rect x="375.78" y="948.01" width="4.83" height="3.52" class="up-body"/>
<line x1="385.62" y1="933.92" x2="385.62" y2="941.59" class="up-wick"/>
<rect x="383.21" y="937.75" width="4.83" height="2.58" class="up-body"/>
<line x1="393.05" y1="926.43" x2="393.05" y2="934.36" class="down-wick"/>
<rect x="390.64" y="927.69" width="4.83" height="6.17" class="down-body"/>
<line x1="400.48" y1="926.05" x2="400.48" y2="936.12" class="down-wick"/>
<rect x="398.06" y="926.87" width="4.83" height="4.28" class="down-body"/>
<line x1="407.90" y1="929.13" x2="407.90" y2="954.05" class="down-wick"/>
<rect x="405.49" y="929.13" width="4.83" height="18.75" class="down-body"/>
<line x1="415.33" y1="933.04" x2="415.33" y2="945.93" class="down-wick"/>
<rect x="412.92" y="936.50" width="4.83" height="2.58" class="down-body"/>
<line x1="422.76" y1="925.23" x2="422.76" y2="944.11" class="up-wick"/>
<rect x="420.34" y="930.96" width="4.83" height="8.93" class="up-body"/>
<line x1="430.18" y1="917.37" x2="430.18" y2="933.66" class="up-wick"/>
<rect x="427.77" y="918.06" width="4.83" height="7.30" class="up-body"/>
<line x1="437.61" y1="899.32" x2="437.61" y2="912.65" class="up-wick"/>
<rect x="435.20" y="901.52" width="4.83" height="4.03" class="up-body"/>
<line x1="445.04" y1="893.15" x2="445.04" y2="914.73" class="down-wick"/>
<rect x="442.62" y="898.62" width="4.83" height="14.03" class="down-body"/>
<line x1="452.46" y1="914.48" x2="452.46" y2="931.09" class="down-wick"/>
<rect x="450.05" y="924.04" width="4.83" height="1.01" class="down-body"/>
<line x1="459.89" y1="921.02" x2="459.89" y2="930.14" class="down-wick"/>
<rect x="457.48" y="924.42" width="4.83" height="1.51" class="down-body"/>
<line x1="467.32" y1="923.03" x2="467.32" y2="938.57" class="up-wick"/>
<rect x="464.90" y="924.92" width="4.83" height="9.31" class="up-body"/>
<line x1="474.74" y1="917.06" x2="474.74" y2="925.55" class="up-wick"/>
<rect x="472.33" y="919.07" width="4.83" height="4.03" class="up-body"/>
<line x1="482.17" y1="917.69" x2="482.17" y2="949.33" class="down-wick"/>
<rect x="479.76" y="925.86" width="4.83" height="19.69" class="down-body"/>
<line x1="489.60" y1="937.82" x2="489.60" y2="945.43" class="up-wick"/>
<rect x="487.18" y="942.53" width="4.83" height="2.20" class="up-body"/>
<line x1="497.02" y1="934.23" x2="497.02" y2="942.16" class="down-wick"/>
<rect x="494.61" y="935.43" width="4.83" height="1.00" class="down-body"/>
<line x1="504.45" y1="937.38" x2="504.45" y2="943.16" class="up-wick"/>
<rect x="502.03" y="939.26" width="4.83" height="3.02" class="up-body"/>
<line x1="511.88" y1="942.28" x2="511.88" y2="960.97" class="up-wick"/>
<rect x="509.46" y="944.67" width="4.83" height="9.37" class="up-body"/>
<line x1="519.30" y1="922.15" x2="519.30" y2="943.42" class="down-wick"/>
<rect x="516.89" y="928.38" width="4.83" height="7.68" class="down-body"/>
<line x1="526.73" y1="930.20" x2="526.73" y2="940.71" class="down-wick"/>
<rect x="524.31" y="935.24" width="4.83" height="1.95" class="down-body"/>
<line x1="534.15" y1="947.76" x2="534.15" y2="956.50" class="down-wick"/>
<rect x="531.74" y="948.20" width="4.83" height="6.61" class="down-body"/>
<line x1="541.58" y1="936.81" x2="541.58" y2="945.87" class="down-wick"/>
<rect x="539.17" y="941.53" width="4.83" height="1.00" class="down-body"/>
<line x1="549.01" y1="946.75" x2="549.01" y2="963.74" class="down-wick"/>
<rect x="546.59" y="947.19" width="4.83" height="10.82" class="down-body"/>
<line x1="556.43" y1="955.37" x2="556.43" y2="966.82" class="down-wick"/>
<rect x="554.02" y="959.84" width="4.83" height="2.01" class="down-body"/>
<line x1="563.86" y1="957.19" x2="563.86" y2="968.20" class="down-wick"/>
<rect x="561.45" y="962.35" width="4.83" height="2.39" class="down-body"/>
<line x1="571.29" y1="955.31" x2="571.29" y2="971.66" class="down-wick"/>
<rect x="568.87" y="957.82" width="4.83" height="9.31" class="down-body"/>
<line x1="578.71" y1="909.63" x2="578.71" y2="964.43" class="up-wick"/>
<rect x="576.30" y="910.01" width="4.83" height="53.22" class="up-body"/>
<line x1="586.14" y1="893.59" x2="586.14" y2="910.14" class="up-wick"/>
<rect x="583.73" y="904.10" width="4.83" height="3.21" class="up-body"/>
<line x1="593.57" y1="907.12" x2="593.57" y2="930.83" class="down-wick"/>
<rect x="591.15" y="911.52" width="4.83" height="7.11" class="down-body"/>
<line x1="600.99" y1="910.39" x2="600.99" y2="923.22" class="down-wick"/>
<rect x="598.58" y="913.53" width="4.83" height="6.04" class="down-body"/>
<line x1="608.42" y1="893.97" x2="608.42" y2="921.84" class="up-wick"/>
<rect x="606.01" y="903.78" width="4.83" height="17.87" class="up-body"/>
<line x1="615.85" y1="859.24" x2="615.85" y2="880.25" class="up-wick"/>
<rect x="613.43" y="864.84" width="4.83" height="15.41" class="up-body"/>
<line x1="623.27" y1="864.78" x2="623.27" y2="879.50" class="down-wick"/>
<rect x="620.86" y="870.12" width="4.83" height="7.55" class="down-body"/>
<line x1="630.70" y1="860.06" x2="630.70" y2="890.38" class="down-wick"/>
<rect x="628.28" y="872.20" width="4.83" height="16.29" class="down-body"/>
<line x1="638.12" y1="882.14" x2="638.12" y2="900.38" class="up-wick"/>
<rect x="635.71" y="895.10" width="4.83" height="1.00" class="up-body"/>
<line x1="645.55" y1="887.68" x2="645.55" y2="900.95" class="down-wick"/>
<rect x="643.14" y="889.69" width="4.83" height="9.81" class="down-body"/>
<line x1="652.98" y1="905.35" x2="652.98" y2="921.40" class="down-wick"/>
<rect x="650.56" y="906.86" width="4.83" height="2.58" class="down-body"/>
<line x1="660.40" y1="923.35" x2="660.40" y2="954.55" class="down-wick"/>
<rect x="657.99" y="925.49" width="4.83" height="21.20" class="down-body"/>
<line x1="667.83" y1="935.17" x2="667.83" y2="956.38" class="up-wick"/>
<rect x="665.42" y="936.56" width="4.83" height="16.67" class="up-body"/>
<line x1="675.26" y1="950.90" x2="675.26" y2="963.67" class="down-wick"/>
<rect x="672.84" y="953.29" width="4.83" height="6.29" class="down-body"/>
<line x1="682.68" y1="936.75" x2="682.68" y2="951.85" class="up-wick"/>
<rect x="680.27" y="940.46" width="4.83" height="11.39" class="up-body"/>
<line x1="690.11" y1="937.06" x2="690.11" y2="946.18" class="up-wick"/>
<rect x="687.70" y="938.07" width="4.83" height="3.71" class="up-body"/>
<line x1="697.54" y1="929.76" x2="697.54" y2="947.50" class="up-wick"/>
<rect x="695.12" y="934.99" width="4.83" height="2.58" class="up-body"/>
<line x1="704.96" y1="948.64" x2="704.96" y2="954.87" class="up-wick"/>
<rect x="702.55" y="950.08" width="4.83" height="3.27" class="up-body"/>
<line x1="712.39" y1="956.56" x2="712.39" y2="969.15" class="down-wick"/>
<rect x="709.98" y="959.77" width="4.83" height="7.17" class="down-body"/>
<line x1="719.82" y1="970.78" x2="719.82" y2="978.20" class="down-wick"/>
<rect x="717.40" y="970.97" width="4.83" height="5.54" class="down-body"/>
<line x1="727.24" y1="977.14" x2="727.24" y2="995.32" class="down-wick"/>
<rect x="724.83" y="981.54" width="4.83" height="9.81" class="down-body"/>
<line x1="734.67" y1="988.40" x2="734.67" y2="1003.18" class="down-wick"/>
<rect x="732.26" y="988.40" width="4.83" height="10.69" class="down-body"/>
<line x1="742.10" y1="987.58" x2="742.10" y2="999.85" class="up-wick"/>
<rect x="739.68" y="989.03" width="4.83" height="1.95" class="up-body"/>
<line x1="749.52" y1="977.20" x2="749.52" y2="991.29" class="up-wick"/>
<rect x="747.11" y="980.47" width="4.83" height="9.06" class="up-body"/>
<line x1="756.95" y1="953.73" x2="756.95" y2="964.93" class="up-wick"/>
<rect x="754.53" y="954.11" width="4.83" height="10.07" class="up-body"/>
<line x1="764.38" y1="950.78" x2="764.38" y2="956.82" class="up-wick"/>
<rect x="761.96" y="953.73" width="4.83" height="1.51" class="up-body"/>
<line x1="771.80" y1="959.39" x2="771.80" y2="964.62" class="down-wick"/>
<rect x="769.39" y="961.91" width="4.83" height="1.07" class="down-body"/>
<line x1="779.23" y1="959.27" x2="779.23" y2="965.94" class="down-wick"/>
<rect x="776.81" y="960.21" width="4.83" height="4.47" class="down-body"/>
<line x1="786.65" y1="958.33" x2="786.65" y2="962.54" class="up-wick"/>
<rect x="784.24" y="961.09" width="4.83" height="1.00" class="up-body"/>
<line x1="794.08" y1="956.75" x2="794.08" y2="965.69" class="up-wick"/>
<rect x="791.67" y="959.90" width="4.83" height="4.34" class="up-body"/>
<line x1="801.51" y1="936.12" x2="801.51" y2="948.57" class="up-wick"/>
<rect x="799.09" y="936.75" width="4.83" height="10.69" class="up-body"/>
<line x1="808.93" y1="936.05" x2="808.93" y2="947.38" class="down-wick"/>
<rect x="806.52" y="938.82" width="4.83" height="5.41" class="down-body"/>
<line x1="816.36" y1="934.23" x2="816.36" y2="945.87" class="up-wick"/>
<rect x="813.95" y="939.14" width="4.83" height="3.15" class="up-body"/>
<line x1="823.79" y1="946.50" x2="823.79" y2="978.65" class="down-wick"/>
<rect x="821.37" y="947.06" width="4.83" height="27.24" class="down-body"/>
<line x1="831.21" y1="962.79" x2="831.21" y2="971.60" class="up-wick"/>
<rect x="828.80" y="963.99" width="4.83" height="1.95" class="up-body"/>
<line x1="838.64" y1="954.05" x2="838.64" y2="964.93" class="up-wick"/>
<rect x="836.23" y="954.36" width="4.83" height="8.93" class="up-body"/>
<line x1="846.07" y1="957.07" x2="846.07" y2="964.36" class="down-wick"/>
<rect x="843.65" y="958.95" width="4.83" height="1.95" class="down-body"/>
<line x1="853.49" y1="963.04" x2="853.49" y2="977.70" class="down-wick"/>
<rect x="851.08" y="963.04" width="4.83" height="7.80" class="down-body"/>
<line x1="860.92" y1="969.08" x2="860.92" y2="978.52" class="down-wick"/>
<rect x="858.51" y="972.42" width="4.83" height="5.91" class="down-body"/>
<line x1="868.35" y1="968.58" x2="868.35" y2="980.60" class="up-wick"/>
<rect x="865.93" y="971.41" width="4.83" height="5.79" class="up-body"/>
<line x1="875.77" y1="978.83" x2="875.77" y2="985.82" class="up-wick"/>
<rect x="873.36" y="980.34" width="4.83" height="4.53" class="up-body"/>
<line x1="883.20" y1="980.47" x2="883.20" y2="995.88" class="up-wick"/>
<rect x="880.78" y="981.04" width="4.83" height="10.88" class="up-body"/>
<line x1="890.62" y1="974.43" x2="890.62" y2="983.74" class="down-wick"/>
<rect x="888.21" y="976.44" width="4.83" height="1.95" class="down-body"/>
<line x1="898.05" y1="976.57" x2="898.05" y2="983.74" class="down-wick"/>
<rect x="895.64" y="976.76" width="4.83" height="5.16" class="down-body"/>
<line x1="905.48" y1="981.79" x2="905.48" y2="994.69" class="up-wick"/>
<rect x="903.06" y="983.11" width="4.83" height="10.51" class="up-body"/>
<line x1="912.90" y1="988.84" x2="912.90" y2="999.41" class="down-wick"/>
<rect x="910.49" y="990.47" width="4.83" height="8.24" class="down-body"/>
<line x1="920.33" y1="982.11" x2="920.33" y2="1001.54" class="up-wick"/>
<rect x="917.92" y="985.19" width="4.83" height="9.18" class="up-body"/>
<line x1="927.76" y1="969.59" x2="927.76" y2="981.98" class="up-wick"/>
<rect x="925.34" y="971.28" width="4.83" height="9.18" class="up-body"/>
<line x1="935.18" y1="956.88" x2="935.18" y2="970.28" class="up-wick"/>
<rect x="932.77" y="960.72" width="4.83" height="7.55" class="up-body"/>
<line x1="942.61" y1="937.69" x2="942.61" y2="951.53" class="up-wick"/>
<rect x="940.20" y="939.33" width="4.83" height="12.08" class="up-body"/>
<line x1="950.04" y1="938.07" x2="950.04" y2="950.84" class="up-wick"/>
<rect x="947.62" y="947.63" width="4.83" height="1.82" class="up-body"/>
<line x1="957.46" y1="938.26" x2="957.46" y2="962.73" class="down-wick"/>
<rect x="955.05" y="939.70" width="4.83" height="22.71" class="down-body"/>
<line x1="964.89" y1="960.78" x2="964.89" y2="983.62" class="up-wick"/>
<rect x="962.48" y="968.39" width="4.83" height="7.61" class="up-body"/>
<line x1="972.32" y1="979.40" x2="972.32" y2="1001.23" class="up-wick"/>
<rect x="969.90" y="980.66" width="4.83" height="2.26" class="up-body"/>
<line x1="979.74" y1="981.16" x2="979.74" y2="989.91" class="up-wick"/>
<rect x="977.33" y="985.57" width="4.83" height="2.14" class="up-body"/>
<line x1="987.17" y1="966.31" x2="987.17" y2="975.31" class="down-wick"/>
<rect x="984.76" y="970.91" width="4.83" height="3.96" class="down-body"/>
<line x1="994.60" y1="983.93" x2="994.60" y2="997.46" class="down-wick"/>
<rect x="992.18" y="986.89" width="4.83" height="6.98" class="down-body"/>
<line x1="1002.02" y1="980.28" x2="1002.02" y2="990.85" class="up-wick"/>
<rect x="999.61" y="980.85" width="4.83" height="3.27" class="up-body"/>
<line x1="1009.45" y1="981.85" x2="1009.45" y2="992.61" class="up-wick"/>
<rect x="1007.03" y="983.49" width="4.83" height="7.05" class="up-body"/>
<line x1="1016.88" y1="978.33" x2="1016.88" y2="989.72" class="down-wick"/>
<rect x="1014.46" y="979.40" width="4.83" height="4.84" class="down-body"/>
<line x1="1024.30" y1="982.92" x2="1024.30" y2="988.90" class="down-wick"/>
<rect x="1021.89" y="984.18" width="4.83" height="1.20" class="down-body"/>
<line x1="1031.73" y1="972.48" x2="1031.73" y2="981.41" class="down-wick"/>
<rect x="1029.31" y="977.26" width="4.83" height="1.00" class="down-body"/>
<line x1="1039.15" y1="969.27" x2="1039.15" y2="979.46" class="down-wick"/>
<rect x="1036.74" y="975.69" width="4.83" height="3.52" class="down-body"/>
<line x1="1046.58" y1="968.01" x2="1046.58" y2="978.83" class="up-wick"/>
<rect x="1044.17" y="968.58" width="4.83" height="7.42" class="up-body"/>
<line x1="1054.01" y1="957.95" x2="1054.01" y2="973.36" class="up-wick"/>
<rect x="1051.59" y="959.21" width="4.83" height="6.23" class="up-body"/>
<line x1="1061.43" y1="963.67" x2="1061.43" y2="969.90" class="down-wick"/>
<rect x="1059.02" y="965.18" width="4.83" height="1.00" class="down-body"/>
<line x1="1068.86" y1="950.78" x2="1068.86" y2="959.84" class="down-wick"/>
<rect x="1066.45" y="953.48" width="4.83" height="4.78" class="down-body"/>
<line x1="1076.29" y1="968.89" x2="1076.29" y2="980.41" class="down-wick"/>
<rect x="1073.87" y="968.89" width="4.83" height="3.52" class="down-body"/>
<line x1="70" y1="902.40" x2="1080" y2="902.40" class="sweep-line"/>
<text x="1076" y="898.40" text-anchor="end" class="level-label">sweep 4552.42</text>
<line x1="70" y1="892.90" x2="1080" y2="892.90" class="entry-line"/>
<text x="1076" y="888.90" text-anchor="end" class="level-label">entry level 4553.93</text>
<text x="70" y="1056" class="axis-label">2026-05-19 08:30:00+00:00 to 2026-05-19 13:00:00+00:00</text>
<text x="1080" y="1056" text-anchor="end" class="axis-label">4530.87 - 4561.38</text>
</svg>