<svg xmlns="http://www.w3.org/2000/svg" width="1120" height="1054" viewBox="0 0 1120 1054">
<style>
text{font-family:Arial,Helvetica,sans-serif}.title{font-size:21px;font-weight:700;fill:#1f2937}.subtitle{font-size:12px;fill:#4b5563}.panel-title{font-size:15px;font-weight:700;fill:#111827}.muted{font-size:13px;fill:#6b7280}.plot-bg{fill:#f8fafc;stroke:#cbd5e1;stroke-width:1}.up-body{fill:#15803d;stroke:#14532d;stroke-width:.8}.down-body{fill:#b91c1c;stroke:#7f1d1d;stroke-width:.8}.up-wick{stroke:#14532d;stroke-width:1}.down-wick{stroke:#7f1d1d;stroke-width:1}.sweep-line{stroke:#7c3aed;stroke-width:1.6;stroke-dasharray:6 4}.number-line{stroke:#0f766e;stroke-width:1.4;stroke-dasharray:3 4}.entry-line{stroke:#2563eb;stroke-width:1.4}.sl-line{stroke:#dc2626;stroke-width:1.4}.tp-line{stroke:#16a34a;stroke-width:1.4}.level-label,.axis-label{font-size:11px;fill:#374151}
</style>
<text x="28" y="28" class="title">Adelin v2 visual review sample sample_292</text>
<text x="28" y="48" class="subtitle">Candidate windows are for visual labeling only and are not trade signals.</text>
<text x="560" y="48" class="subtitle" text-anchor="middle">LONDON_OPEN_CONTEXT | PRE_ANCHOR_SWEEP_EXTREME_CANDIDATE</text>
<text x="70" y="82" class="panel-title">H1 liquidity context</text>
<rect x="70" y="96" width="1010" height="192" class="plot-bg"/>
<line x1="81.48" y1="236.42" x2="81.48" y2="274.76" class="up-wick"/>
<rect x="77.48" y="241.17" width="8.00" height="4.71" class="up-body"/>
<line x1="104.43" y1="215.37" x2="104.43" y2="250.84" class="up-wick"/>
<rect x="100.43" y="217.27" width="8.00" height="23.86" class="up-body"/>
<line x1="127.39" y1="213.93" x2="127.39" y2="256.67" class="down-wick"/>
<rect x="123.39" y="217.27" width="8.00" height="29.23" class="down-body"/>
<line x1="150.34" y1="199.41" x2="150.34" y2="248.09" class="up-wick"/>
<rect x="146.34" y="200.99" width="8.00" height="45.51" class="up-body"/>
<line x1="173.30" y1="195.24" x2="173.30" y2="219.90" class="down-wick"/>
<rect x="169.30" y="200.99" width="8.00" height="7.42" class="down-body"/>
<line x1="196.25" y1="196.54" x2="196.25" y2="231.57" class="down-wick"/>
<rect x="192.25" y="208.41" width="8.00" height="17.48" class="down-body"/>
<line x1="219.20" y1="217.71" x2="219.20" y2="241.03" class="down-wick"/>
<rect x="215.20" y="225.90" width="8.00" height="8.68" class="down-body"/>
<line x1="242.16" y1="155.46" x2="242.16" y2="234.68" class="up-wick"/>
<rect x="238.16" y="176.23" width="8.00" height="58.35" class="up-body"/>
<line x1="265.11" y1="166.45" x2="265.11" y2="209.29" class="down-wick"/>
<rect x="261.11" y="176.17" width="8.00" height="12.39" class="down-body"/>
<line x1="288.07" y1="154.92" x2="288.07" y2="210.72" class="up-wick"/>
<rect x="284.07" y="166.67" width="8.00" height="21.43" class="up-body"/>
<line x1="311.02" y1="109.24" x2="311.02" y2="176.35" class="up-wick"/>
<rect x="307.02" y="137.11" width="8.00" height="29.55" class="up-body"/>
<line x1="333.98" y1="122.66" x2="333.98" y2="160.47" class="up-wick"/>
<rect x="329.98" y="135.71" width="8.00" height="1.40" class="up-body"/>
<line x1="356.93" y1="130.49" x2="356.93" y2="151.85" class="down-wick"/>
<rect x="352.93" y="135.71" width="8.00" height="1.00" class="down-body"/>
<line x1="379.89" y1="129.61" x2="379.89" y2="152.05" class="down-wick"/>
<rect x="375.89" y="136.11" width="8.00" height="7.12" class="down-body"/>
<line x1="402.84" y1="140.32" x2="402.84" y2="156.72" class="down-wick"/>
<rect x="398.84" y="143.23" width="8.00" height="1.30" class="down-body"/>
<line x1="425.80" y1="137.77" x2="425.80" y2="162.64" class="down-wick"/>
<rect x="421.80" y="144.51" width="8.00" height="12.53" class="down-body"/>
<line x1="448.75" y1="190.37" x2="448.75" y2="230.21" class="down-wick"/>
<rect x="444.75" y="193.49" width="8.00" height="27.23" class="down-body"/>
<line x1="471.70" y1="220.32" x2="471.70" y2="240.53" class="down-wick"/>
<rect x="467.70" y="220.72" width="8.00" height="9.48" class="down-body"/>
<line x1="494.66" y1="193.63" x2="494.66" y2="246.05" class="up-wick"/>
<rect x="490.66" y="194.50" width="8.00" height="35.71" class="up-body"/>
<line x1="517.61" y1="170.60" x2="517.61" y2="208.45" class="up-wick"/>
<rect x="513.61" y="184.53" width="8.00" height="9.95" class="up-body"/>
<line x1="540.57" y1="142.91" x2="540.57" y2="197.56" class="up-wick"/>
<rect x="536.57" y="153.35" width="8.00" height="31.18" class="up-body"/>
<line x1="563.52" y1="131.00" x2="563.52" y2="160.97" class="up-wick"/>
<rect x="559.52" y="141.56" width="8.00" height="11.95" class="up-body"/>
<line x1="586.48" y1="129.65" x2="586.48" y2="144.35" class="up-wick"/>
<rect x="582.48" y="139.86" width="8.00" height="1.70" class="up-body"/>
<line x1="609.43" y1="138.84" x2="609.43" y2="172.38" class="down-wick"/>
<rect x="605.43" y="139.82" width="8.00" height="30.10" class="down-body"/>
<line x1="632.39" y1="158.67" x2="632.39" y2="171.50" class="up-wick"/>
<rect x="628.39" y="164.30" width="8.00" height="5.59" class="up-body"/>
<line x1="655.34" y1="153.13" x2="655.34" y2="169.83" class="up-wick"/>
<rect x="651.34" y="163.22" width="8.00" height="1.04" class="up-body"/>
<line x1="678.30" y1="160.41" x2="678.30" y2="179.36" class="down-wick"/>
<rect x="674.30" y="163.22" width="8.00" height="13.13" class="down-body"/>
<line x1="701.25" y1="173.40" x2="701.25" y2="190.93" class="down-wick"/>
<rect x="697.25" y="176.25" width="8.00" height="6.56" class="down-body"/>
<line x1="724.20" y1="168.09" x2="724.20" y2="191.03" class="up-wick"/>
<rect x="720.20" y="172.42" width="8.00" height="10.35" class="up-body"/>
<line x1="747.16" y1="171.72" x2="747.16" y2="189.76" class="down-wick"/>
<rect x="743.16" y="172.34" width="8.00" height="8.04" class="down-body"/>
<line x1="770.11" y1="164.68" x2="770.11" y2="196.20" class="down-wick"/>
<rect x="766.11" y="180.36" width="8.00" height="11.25" class="down-body"/>
<line x1="793.07" y1="183.09" x2="793.07" y2="211.46" class="down-wick"/>
<rect x="789.07" y="191.31" width="8.00" height="6.38" class="down-body"/>
<line x1="816.02" y1="196.56" x2="816.02" y2="237.04" class="down-wick"/>
<rect x="812.02" y="197.68" width="8.00" height="36.29" class="down-body"/>
<line x1="838.98" y1="225.01" x2="838.98" y2="255.73" class="down-wick"/>
<rect x="834.98" y="233.98" width="8.00" height="16.12" class="down-body"/>
<line x1="861.93" y1="231.11" x2="861.93" y2="255.75" class="up-wick"/>
<rect x="857.93" y="236.76" width="8.00" height="13.33" class="up-body"/>
<line x1="884.89" y1="217.77" x2="884.89" y2="253.81" class="up-wick"/>
<rect x="880.89" y="225.69" width="8.00" height="11.07" class="up-body"/>
<line x1="907.84" y1="219.16" x2="907.84" y2="232.19" class="down-wick"/>
<rect x="903.84" y="225.69" width="8.00" height="3.05" class="down-body"/>
<line x1="930.80" y1="224.73" x2="930.80" y2="236.80" class="up-wick"/>
<rect x="926.80" y="228.40" width="8.00" height="1.00" class="up-body"/>
<line x1="953.75" y1="207.65" x2="953.75" y2="227.54" class="up-wick"/>
<rect x="949.75" y="214.23" width="8.00" height="12.51" class="up-body"/>
<line x1="976.70" y1="200.05" x2="976.70" y2="215.59" class="up-wick"/>
<rect x="972.70" y="206.33" width="8.00" height="7.90" class="up-body"/>
<line x1="999.66" y1="187.54" x2="999.66" y2="209.19" class="down-wick"/>
<rect x="995.66" y="206.29" width="8.00" height="2.71" class="down-body"/>
<line x1="1022.61" y1="207.15" x2="1022.61" y2="251.20" class="down-wick"/>
<rect x="1018.61" y="208.99" width="8.00" height="39.80" class="down-body"/>
<line x1="1045.57" y1="230.51" x2="1045.57" y2="257.31" class="down-wick"/>
<rect x="1041.57" y="248.79" width="8.00" height="3.13" class="down-body"/>
<line x1="1068.52" y1="238.53" x2="1068.52" y2="253.24" class="up-wick"/>
<rect x="1064.52" y="248.39" width="8.00" height="3.53" class="up-body"/>
<line x1="70" y1="141.06" x2="1080" y2="141.06" class="sweep-line"/>
<text x="1076" y="137.06" text-anchor="end" class="level-label">sweep 4724.42</text>
<line x1="70" y1="138.88" x2="1080" y2="138.88" class="entry-line"/>
<text x="1076" y="134.88" text-anchor="end" class="level-label">entry level 4725.51</text>
<text x="70" y="306" class="axis-label">2026-04-24 07:00:00+00:00 to 2026-04-28 06:00:00+00:00</text>
<text x="1080" y="306" text-anchor="end" class="axis-label">4651.14 - 4746.89</text>
<text x="70" y="332" class="panel-title">M15 liquidity / reaction context</text>
<rect x="70" y="346" width="1010" height="192" class="plot-bg"/>
<line x1="80.52" y1="445.58" x2="80.52" y2="502.23" class="down-wick"/>
<rect x="76.52" y="450.03" width="8.00" height="36.98" class="down-body"/>
<line x1="101.56" y1="477.46" x2="101.56" y2="493.59" class="up-wick"/>
<rect x="97.56" y="482.50" width="8.00" height="4.19" class="up-body"/>
<line x1="122.60" y1="482.45" x2="122.60" y2="495.99" class="down-wick"/>
<rect x="118.60" y="482.50" width="8.00" height="6.30" class="down-body"/>
<line x1="143.65" y1="484.95" x2="143.65" y2="496.79" class="up-wick"/>
<rect x="139.65" y="488.75" width="8.00" height="1.00" class="up-body"/>
<line x1="164.69" y1="488.18" x2="164.69" y2="509.13" class="down-wick"/>
<rect x="160.69" y="488.75" width="8.00" height="2.77" class="down-body"/>
<line x1="185.73" y1="489.09" x2="185.73" y2="510.36" class="down-wick"/>
<rect x="181.73" y="491.54" width="8.00" height="18.31" class="down-body"/>
<line x1="206.77" y1="502.12" x2="206.77" y2="516.92" class="down-wick"/>
<rect x="202.77" y="509.85" width="8.00" height="1.37" class="down-body"/>
<line x1="227.81" y1="496.05" x2="227.81" y2="511.27" class="up-wick"/>
<rect x="223.81" y="502.23" width="8.00" height="8.98" class="up-body"/>
<line x1="248.85" y1="498.90" x2="248.85" y2="524.76" class="down-wick"/>
<rect x="244.85" y="502.23" width="8.00" height="1.00" class="down-body"/>
<line x1="269.90" y1="495.82" x2="269.90" y2="508.76" class="up-wick"/>
<rect x="265.90" y="499.78" width="8.00" height="2.85" class="up-body"/>
<line x1="290.94" y1="497.73" x2="290.94" y2="511.33" class="down-wick"/>
<rect x="286.94" y="499.78" width="8.00" height="1.00" class="down-body"/>
<line x1="311.98" y1="450.23" x2="311.98" y2="500.55" class="up-wick"/>
<rect x="307.98" y="451.45" width="8.00" height="49.10" class="up-body"/>
<line x1="333.02" y1="417.46" x2="333.02" y2="467.42" class="down-wick"/>
<rect x="329.02" y="451.42" width="8.00" height="14.20" class="down-body"/>
<line x1="354.06" y1="448.71" x2="354.06" y2="471.30" class="up-wick"/>
<rect x="350.06" y="450.74" width="8.00" height="14.88" class="up-body"/>
<line x1="375.10" y1="442.58" x2="375.10" y2="457.38" class="down-wick"/>
<rect x="371.10" y="450.68" width="8.00" height="1.00" class="down-body"/>
<line x1="396.15" y1="426.65" x2="396.15" y2="451.57" class="up-wick"/>
<rect x="392.15" y="437.28" width="8.00" height="13.80" class="up-body"/>
<line x1="417.19" y1="425.76" x2="417.19" y2="455.81" class="down-wick"/>
<rect x="413.19" y="437.28" width="8.00" height="8.90" class="down-body"/>
<line x1="438.23" y1="421.54" x2="438.23" y2="448.12" class="up-wick"/>
<rect x="434.23" y="428.73" width="8.00" height="17.48" class="up-body"/>
<line x1="459.27" y1="403.58" x2="459.27" y2="432.46" class="up-wick"/>
<rect x="455.27" y="406.77" width="8.00" height="21.95" class="up-body"/>
<line x1="480.31" y1="378.09" x2="480.31" y2="410.42" class="up-wick"/>
<rect x="476.31" y="392.94" width="8.00" height="13.66" class="up-body"/>
<line x1="501.35" y1="381.48" x2="501.35" y2="398.30" class="down-wick"/>
<rect x="497.35" y="393.17" width="8.00" height="1.00" class="down-body"/>
<line x1="522.40" y1="392.26" x2="522.40" y2="403.78" class="down-wick"/>
<rect x="518.40" y="394.06" width="8.00" height="6.24" class="down-body"/>
<line x1="543.44" y1="361.15" x2="543.44" y2="400.93" class="up-wick"/>
<rect x="539.44" y="364.12" width="8.00" height="36.04" class="up-body"/>
<line x1="564.48" y1="362.95" x2="564.48" y2="380.74" class="down-wick"/>
<rect x="560.48" y="364.12" width="8.00" height="12.06" class="down-body"/>
<line x1="585.52" y1="364.86" x2="585.52" y2="377.35" class="up-wick"/>
<rect x="581.52" y="366.65" width="8.00" height="9.52" class="up-body"/>
<line x1="606.56" y1="365.29" x2="606.56" y2="373.75" class="down-wick"/>
<rect x="602.56" y="366.65" width="8.00" height="1.57" class="down-body"/>
<line x1="627.60" y1="359.24" x2="627.60" y2="372.59" class="down-wick"/>
<rect x="623.60" y="368.22" width="8.00" height="1.91" class="down-body"/>
<line x1="648.65" y1="369.05" x2="648.65" y2="380.14" class="down-wick"/>
<rect x="644.65" y="370.13" width="8.00" height="3.62" class="down-body"/>
<line x1="669.69" y1="372.30" x2="669.69" y2="393.34" class="down-wick"/>
<rect x="665.69" y="373.70" width="8.00" height="18.90" class="down-body"/>
<line x1="690.73" y1="388.58" x2="690.73" y2="399.05" class="down-wick"/>
<rect x="686.73" y="392.60" width="8.00" height="1.00" class="down-body"/>
<line x1="711.77" y1="393.00" x2="711.77" y2="419.38" class="down-wick"/>
<rect x="707.77" y="393.34" width="8.00" height="18.90" class="down-body"/>
<line x1="732.81" y1="406.09" x2="732.81" y2="420.00" class="down-wick"/>
<rect x="728.81" y="412.25" width="8.00" height="4.25" class="down-body"/>
<line x1="753.85" y1="400.50" x2="753.85" y2="418.75" class="up-wick"/>
<rect x="749.85" y="403.35" width="8.00" height="13.12" class="up-body"/>
<line x1="774.90" y1="400.67" x2="774.90" y2="412.65" class="down-wick"/>
<rect x="770.90" y="403.35" width="8.00" height="1.00" class="down-body"/>
<line x1="795.94" y1="403.75" x2="795.94" y2="418.66" class="down-wick"/>
<rect x="791.94" y="404.04" width="8.00" height="10.55" class="down-body"/>
<line x1="816.98" y1="400.81" x2="816.98" y2="416.69" class="up-wick"/>
<rect x="812.98" y="408.51" width="8.00" height="6.07" class="up-body"/>
<line x1="838.02" y1="392.94" x2="838.02" y2="413.90" class="up-wick"/>
<rect x="834.02" y="396.45" width="8.00" height="12.00" class="up-body"/>
<line x1="859.06" y1="392.63" x2="859.06" y2="409.82" class="down-wick"/>
<rect x="855.06" y="396.45" width="8.00" height="2.77" class="down-body"/>
<line x1="880.10" y1="395.45" x2="880.10" y2="406.60" class="down-wick"/>
<rect x="876.10" y="399.22" width="8.00" height="3.34" class="down-body"/>
<line x1="901.15" y1="396.82" x2="901.15" y2="416.38" class="down-wick"/>
<rect x="897.15" y="402.55" width="8.00" height="4.42" class="down-body"/>
<line x1="922.19" y1="404.06" x2="922.19" y2="415.67" class="down-wick"/>
<rect x="918.19" y="406.97" width="8.00" height="6.90" class="down-body"/>
<line x1="943.23" y1="404.89" x2="943.23" y2="418.15" class="down-wick"/>
<rect x="939.23" y="413.87" width="8.00" height="1.00" class="down-body"/>
<line x1="964.27" y1="410.94" x2="964.27" y2="429.92" class="up-wick"/>
<rect x="960.27" y="411.05" width="8.00" height="3.39" class="up-body"/>
<line x1="985.31" y1="402.98" x2="985.31" y2="429.27" class="down-wick"/>
<rect x="981.31" y="411.05" width="8.00" height="14.60" class="down-body"/>
<line x1="1006.35" y1="421.46" x2="1006.35" y2="437.91" class="down-wick"/>
<rect x="1002.35" y="425.51" width="8.00" height="4.79" class="down-body"/>
<line x1="1027.40" y1="426.25" x2="1027.40" y2="440.62" class="down-wick"/>
<rect x="1023.40" y="430.30" width="8.00" height="8.38" class="down-body"/>
<line x1="1048.44" y1="429.61" x2="1048.44" y2="446.38" class="up-wick"/>
<rect x="1044.44" y="431.78" width="8.00" height="7.16" class="up-body"/>
<line x1="1069.48" y1="431.81" x2="1069.48" y2="446.32" class="down-wick"/>
<rect x="1065.48" y="431.81" width="8.00" height="3.02" class="down-body"/>
<line x1="70" y1="375.47" x2="1080" y2="375.47" class="sweep-line"/>
<text x="1076" y="371.47" text-anchor="end" class="level-label">sweep 4724.42</text>
<line x1="70" y1="372.36" x2="1080" y2="372.36" class="entry-line"/>
<text x="1076" y="368.36" text-anchor="end" class="level-label">entry level 4725.51</text>
<text x="70" y="556" class="axis-label">2026-04-27 01:00:00+00:00 to 2026-04-27 12:45:00+00:00</text>
<text x="1080" y="556" text-anchor="end" class="axis-label">4667.42 - 4734.75</text>
<text x="70" y="582" class="panel-title">M5 reaction / execution context</text>
<rect x="70" y="596" width="1010" height="192" class="plot-bg"/>
<line x1="79.18" y1="725.27" x2="79.18" y2="774.76" class="up-wick"/>
<rect x="75.18" y="741.20" width="8.00" height="30.00" class="up-body"/>
<line x1="97.55" y1="730.58" x2="97.55" y2="746.08" class="up-wick"/>
<rect x="93.55" y="740.56" width="8.00" height="1.00" class="up-body"/>
<line x1="115.91" y1="733.02" x2="115.91" y2="743.00" class="up-wick"/>
<rect x="111.91" y="738.65" width="8.00" height="1.91" class="up-body"/>
<line x1="134.27" y1="728.45" x2="134.27" y2="745.61" class="down-wick"/>
<rect x="130.27" y="738.65" width="8.00" height="1.00" class="down-body"/>
<line x1="152.64" y1="691.81" x2="152.64" y2="739.39" class="up-wick"/>
<rect x="148.64" y="704.08" width="8.00" height="35.15" class="up-body"/>
<line x1="171.00" y1="693.94" x2="171.00" y2="711.09" class="up-wick"/>
<rect x="167.00" y="697.76" width="8.00" height="6.32" class="up-body"/>
<line x1="189.36" y1="667.07" x2="189.36" y2="704.56" class="up-wick"/>
<rect x="185.36" y="670.36" width="8.00" height="27.08" class="up-body"/>
<line x1="207.73" y1="647.47" x2="207.73" y2="675.46" class="up-wick"/>
<rect x="203.73" y="655.44" width="8.00" height="15.08" class="up-body"/>
<line x1="226.09" y1="644.34" x2="226.09" y2="672.01" class="down-wick"/>
<rect x="222.09" y="655.44" width="8.00" height="16.57" class="down-body"/>
<line x1="244.45" y1="650.66" x2="244.45" y2="672.43" class="up-wick"/>
<rect x="240.45" y="661.55" width="8.00" height="10.89" class="up-body"/>
<line x1="262.82" y1="657.25" x2="262.82" y2="669.03" class="up-wick"/>
<rect x="258.82" y="660.54" width="8.00" height="1.01" class="up-body"/>
<line x1="281.18" y1="652.94" x2="281.18" y2="681.99" class="down-wick"/>
<rect x="277.18" y="660.54" width="8.00" height="13.54" class="down-body"/>
<line x1="299.55" y1="670.79" x2="299.55" y2="681.03" class="down-wick"/>
<rect x="295.55" y="674.08" width="8.00" height="5.26" class="down-body"/>
<line x1="317.91" y1="670.73" x2="317.91" y2="682.89" class="down-wick"/>
<rect x="313.91" y="679.34" width="8.00" height="2.76" class="down-body"/>
<line x1="336.27" y1="680.61" x2="336.27" y2="692.19" class="down-wick"/>
<rect x="332.27" y="681.78" width="8.00" height="3.93" class="down-body"/>
<line x1="354.64" y1="650.66" x2="354.64" y2="686.88" class="up-wick"/>
<rect x="350.64" y="652.41" width="8.00" height="33.03" class="up-body"/>
<line x1="373.00" y1="633.67" x2="373.00" y2="656.98" class="up-wick"/>
<rect x="369.00" y="642.96" width="8.00" height="9.45" class="up-body"/>
<line x1="391.36" y1="612.80" x2="391.36" y2="644.29" class="up-wick"/>
<rect x="387.36" y="618.32" width="8.00" height="24.64" class="up-body"/>
<line x1="409.73" y1="616.14" x2="409.73" y2="645.78" class="down-wick"/>
<rect x="405.73" y="618.32" width="8.00" height="21.51" class="down-body"/>
<line x1="428.09" y1="629.74" x2="428.09" y2="649.28" class="up-wick"/>
<rect x="424.09" y="635.53" width="8.00" height="4.30" class="up-body"/>
<line x1="446.45" y1="629.31" x2="446.45" y2="641.26" class="down-wick"/>
<rect x="442.45" y="635.53" width="8.00" height="5.26" class="down-body"/>
<line x1="464.82" y1="626.82" x2="464.82" y2="642.96" class="up-wick"/>
<rect x="460.82" y="629.31" width="8.00" height="11.47" class="up-body"/>
<line x1="483.18" y1="622.84" x2="483.18" y2="629.95" class="up-wick"/>
<rect x="479.18" y="625.33" width="8.00" height="3.98" class="up-body"/>
<line x1="501.55" y1="619.70" x2="501.55" y2="631.17" class="up-wick"/>
<rect x="497.55" y="623.05" width="8.00" height="2.28" class="up-body"/>
<line x1="519.91" y1="620.50" x2="519.91" y2="636.27" class="down-wick"/>
<rect x="515.91" y="623.05" width="8.00" height="5.31" class="down-body"/>
<line x1="538.27" y1="622.46" x2="538.27" y2="630.48" class="up-wick"/>
<rect x="534.27" y="628.30" width="8.00" height="1.00" class="up-body"/>
<line x1="556.64" y1="624.80" x2="556.64" y2="635.58" class="up-wick"/>
<rect x="552.64" y="625.97" width="8.00" height="2.34" class="up-body"/>
<line x1="575.00" y1="609.24" x2="575.00" y2="625.97" class="up-wick"/>
<rect x="571.00" y="624.11" width="8.00" height="1.86" class="up-body"/>
<line x1="593.36" y1="618.80" x2="593.36" y2="634.09" class="up-wick"/>
<rect x="589.36" y="620.23" width="8.00" height="3.88" class="up-body"/>
<line x1="611.73" y1="619.28" x2="611.73" y2="630.54" class="down-wick"/>
<rect x="607.73" y="620.23" width="8.00" height="9.29" class="down-body"/>
<line x1="630.09" y1="627.51" x2="630.09" y2="641.26" class="down-wick"/>
<rect x="626.09" y="629.53" width="8.00" height="10.25" class="down-body"/>
<line x1="648.45" y1="636.85" x2="648.45" y2="645.56" class="up-wick"/>
<rect x="644.45" y="638.61" width="8.00" height="1.17" class="up-body"/>
<line x1="666.82" y1="629.10" x2="666.82" y2="648.16" class="up-wick"/>
<rect x="662.82" y="636.27" width="8.00" height="2.34" class="up-body"/>
<line x1="685.18" y1="633.56" x2="685.18" y2="657.83" class="down-wick"/>
<rect x="681.18" y="636.16" width="8.00" height="19.91" class="down-body"/>
<line x1="703.55" y1="651.62" x2="703.55" y2="664.73" class="down-wick"/>
<rect x="699.55" y="656.24" width="8.00" height="8.39" class="down-body"/>
<line x1="721.91" y1="660.70" x2="721.91" y2="672.75" class="down-wick"/>
<rect x="717.91" y="664.63" width="8.00" height="6.74" class="down-body"/>
<line x1="740.27" y1="669.88" x2="740.27" y2="683.37" class="down-wick"/>
<rect x="736.27" y="671.37" width="8.00" height="1.86" class="down-body"/>
<line x1="758.64" y1="666.86" x2="758.64" y2="674.34" class="up-wick"/>
<rect x="754.64" y="667.28" width="8.00" height="5.95" class="up-body"/>
<line x1="777.00" y1="663.88" x2="777.00" y2="675.35" class="down-wick"/>
<rect x="773.00" y="667.18" width="8.00" height="5.58" class="down-body"/>
<line x1="795.36" y1="672.11" x2="795.36" y2="707.74" class="down-wick"/>
<rect x="791.36" y="672.75" width="8.00" height="28.62" class="down-body"/>
<line x1="813.73" y1="700.52" x2="813.73" y2="718.58" class="down-wick"/>
<rect x="809.73" y="700.63" width="8.00" height="12.59" class="down-body"/>
<line x1="832.09" y1="704.66" x2="832.09" y2="721.23" class="up-wick"/>
<rect x="828.09" y="707.96" width="8.00" height="5.26" class="up-body"/>
<line x1="850.45" y1="696.49" x2="850.45" y2="709.82" class="down-wick"/>
<rect x="846.45" y="707.96" width="8.00" height="1.00" class="down-body"/>
<line x1="868.82" y1="705.83" x2="868.82" y2="722.40" class="up-wick"/>
<rect x="864.82" y="708.49" width="8.00" height="1.00" class="up-body"/>
<line x1="887.18" y1="699.73" x2="887.18" y2="717.41" class="down-wick"/>
<rect x="883.18" y="708.49" width="8.00" height="7.38" class="down-body"/>
<line x1="905.55" y1="699.25" x2="905.55" y2="720.06" class="up-wick"/>
<rect x="901.55" y="711.09" width="8.00" height="4.73" class="up-body"/>
<line x1="923.91" y1="698.08" x2="923.91" y2="719.80" class="up-wick"/>
<rect x="919.91" y="698.82" width="8.00" height="12.27" class="up-body"/>
<line x1="942.27" y1="686.08" x2="942.27" y2="699.57" class="up-wick"/>
<rect x="938.27" y="691.39" width="8.00" height="7.43" class="up-body"/>
<line x1="960.64" y1="691.34" x2="960.64" y2="707.69" class="down-wick"/>
<rect x="956.64" y="691.39" width="8.00" height="12.96" class="down-body"/>
<line x1="979.00" y1="688.04" x2="979.00" y2="708.70" class="up-wick"/>
<rect x="975.00" y="691.50" width="8.00" height="13.06" class="up-body"/>
<line x1="997.36" y1="686.40" x2="997.36" y2="703.12" class="down-wick"/>
<rect x="993.36" y="691.50" width="8.00" height="1.17" class="down-body"/>
<line x1="1015.73" y1="692.13" x2="1015.73" y2="719.90" class="down-wick"/>
<rect x="1011.73" y="692.66" width="8.00" height="21.56" class="down-body"/>
<line x1="1034.09" y1="694.52" x2="1034.09" y2="718.10" class="up-wick"/>
<rect x="1030.09" y="705.94" width="8.00" height="8.28" class="up-body"/>
<line x1="1052.45" y1="700.58" x2="1052.45" y2="714.44" class="down-wick"/>
<rect x="1048.45" y="705.94" width="8.00" height="6.37" class="down-body"/>
<line x1="1070.82" y1="692.35" x2="1070.82" y2="716.24" class="up-wick"/>
<rect x="1066.82" y="693.78" width="8.00" height="18.53" class="up-body"/>
<line x1="70" y1="639.46" x2="1080" y2="639.46" class="sweep-line"/>
<text x="1076" y="635.46" text-anchor="end" class="level-label">sweep 4724.42</text>
<line x1="70" y1="633.67" x2="1080" y2="633.67" class="entry-line"/>
<text x="1076" y="629.67" text-anchor="end" class="level-label">entry level 4725.51</text>
<text x="70" y="806" class="axis-label">2026-04-27 05:15:00+00:00 to 2026-04-27 09:45:00+00:00</text>
<text x="1080" y="806" text-anchor="end" class="axis-label">4696.45 - 4732.60</text>
<text x="70" y="832" class="panel-title">M1 execution window</text>
<rect x="70" y="846" width="1010" height="192" class="plot-bg"/>
<line x1="73.71" y1="1017.21" x2="73.71" y2="1024.76" class="up-wick"/>
<rect x="71.30" y="1018.23" width="4.83" height="2.94" class="up-body"/>
<line x1="81.14" y1="985.95" x2="81.14" y2="997.78" class="up-wick"/>
<rect x="78.73" y="986.59" width="4.83" height="9.42" class="up-body"/>
<line x1="88.57" y1="983.38" x2="88.57" y2="994.14" class="down-wick"/>
<rect x="86.15" y="987.07" width="4.83" height="3.85" class="down-body"/>
<line x1="95.99" y1="989.80" x2="95.99" y2="995.53" class="down-wick"/>
<rect x="93.58" y="991.25" width="4.83" height="3.10" class="down-body"/>
<line x1="103.42" y1="980.22" x2="103.42" y2="985.73" class="up-wick"/>
<rect x="101.01" y="983.86" width="4.83" height="1.00" class="up-body"/>
<line x1="110.85" y1="983.43" x2="110.85" y2="991.84" class="down-wick"/>
<rect x="108.43" y="990.28" width="4.83" height="1.23" class="down-body"/>
<line x1="118.27" y1="984.08" x2="118.27" y2="991.89" class="down-wick"/>
<rect x="115.86" y="987.34" width="4.83" height="3.16" class="down-body"/>
<line x1="125.70" y1="983.65" x2="125.70" y2="988.41" class="down-wick"/>
<rect x="123.28" y="983.81" width="4.83" height="4.55" class="down-body"/>
<line x1="133.12" y1="978.08" x2="133.12" y2="989.48" class="up-wick"/>
<rect x="130.71" y="982.90" width="4.83" height="6.10" class="up-body"/>
<line x1="140.55" y1="980.49" x2="140.55" y2="988.36" class="down-wick"/>
<rect x="138.14" y="982.04" width="4.83" height="3.53" class="down-body"/>
<line x1="147.98" y1="972.99" x2="147.98" y2="989.11" class="up-wick"/>
<rect x="145.56" y="975.03" width="4.83" height="13.92" class="up-body"/>
<line x1="155.40" y1="960.04" x2="155.40" y2="976.53" class="up-wick"/>
<rect x="152.99" y="967.64" width="4.83" height="8.67" class="up-body"/>
<line x1="162.83" y1="945.43" x2="162.83" y2="955.44" class="down-wick"/>
<rect x="160.42" y="946.01" width="4.83" height="7.49" class="down-body"/>
<line x1="170.26" y1="944.41" x2="170.26" y2="955.54" class="down-wick"/>
<rect x="167.84" y="950.89" width="4.83" height="2.94" class="down-body"/>
<line x1="177.68" y1="949.12" x2="177.68" y2="958.17" class="up-wick"/>
<rect x="175.27" y="955.22" width="4.83" height="2.89" class="up-body"/>
<line x1="185.11" y1="941.14" x2="185.11" y2="953.99" class="down-wick"/>
<rect x="182.70" y="946.82" width="4.83" height="4.44" class="down-body"/>
<line x1="192.54" y1="925.78" x2="192.54" y2="947.14" class="up-wick"/>
<rect x="190.12" y="926.21" width="4.83" height="19.75" class="up-body"/>
<line x1="199.96" y1="917.38" x2="199.96" y2="929.85" class="up-wick"/>
<rect x="197.55" y="919.52" width="4.83" height="10.22" class="up-body"/>
<line x1="207.39" y1="906.56" x2="207.39" y2="914.65" class="up-wick"/>
<rect x="204.98" y="907.63" width="4.83" height="5.25" class="up-body"/>
<line x1="214.82" y1="896.82" x2="214.82" y2="906.29" class="up-wick"/>
<rect x="212.40" y="896.82" width="4.83" height="2.03" class="up-body"/>
<line x1="222.24" y1="893.29" x2="222.24" y2="905.22" class="up-wick"/>
<rect x="219.83" y="894.84" width="4.83" height="9.64" class="up-body"/>
<line x1="229.67" y1="908.12" x2="229.67" y2="918.71" class="down-wick"/>
<rect x="227.26" y="908.12" width="4.83" height="1.61" class="down-body"/>
<line x1="237.10" y1="908.49" x2="237.10" y2="921.18" class="down-wick"/>
<rect x="234.68" y="908.49" width="4.83" height="12.69" class="down-body"/>
<line x1="244.52" y1="905.17" x2="244.52" y2="914.75" class="up-wick"/>
<rect x="242.11" y="905.76" width="4.83" height="4.98" class="up-body"/>
<line x1="251.95" y1="900.67" x2="251.95" y2="911.65" class="down-wick"/>
<rect x="249.53" y="901.26" width="4.83" height="4.44" class="down-body"/>
<line x1="259.38" y1="907.90" x2="259.38" y2="915.72" class="down-wick"/>
<rect x="256.96" y="910.63" width="4.83" height="4.98" class="down-body"/>
<line x1="266.80" y1="911.70" x2="266.80" y2="916.47" class="up-wick"/>
<rect x="264.39" y="913.68" width="4.83" height="1.82" class="up-body"/>
<line x1="274.23" y1="906.29" x2="274.23" y2="915.45" class="up-wick"/>
<rect x="271.81" y="909.61" width="4.83" height="5.62" class="up-body"/>
<line x1="281.65" y1="904.64" x2="281.65" y2="922.84" class="down-wick"/>
<rect x="279.24" y="905.33" width="4.83" height="15.85" class="down-body"/>
<line x1="289.08" y1="924.76" x2="289.08" y2="931.24" class="down-wick"/>
<rect x="286.67" y="927.87" width="4.83" height="1.93" class="down-body"/>
<line x1="296.51" y1="919.95" x2="296.51" y2="925.03" class="down-wick"/>
<rect x="294.09" y="923.26" width="4.83" height="1.00" class="down-body"/>
<line x1="303.93" y1="921.60" x2="303.93" y2="928.83" class="up-wick"/>
<rect x="301.52" y="924.23" width="4.83" height="3.69" class="up-body"/>
<line x1="311.36" y1="925.57" x2="311.36" y2="928.78" class="down-wick"/>
<rect x="308.95" y="927.81" width="4.83" height="1.00" class="down-body"/>
<line x1="318.79" y1="922.03" x2="318.79" y2="927.23" class="down-wick"/>
<rect x="316.37" y="922.89" width="4.83" height="2.19" class="down-body"/>
<line x1="326.21" y1="928.88" x2="326.21" y2="932.04" class="up-wick"/>
<rect x="323.80" y="930.28" width="4.83" height="1.00" class="up-body"/>
<line x1="333.64" y1="929.85" x2="333.64" y2="936.65" class="down-wick"/>
<rect x="331.23" y="931.03" width="4.83" height="4.87" class="down-body"/>
<line x1="341.07" y1="935.20" x2="341.07" y2="941.52" class="up-wick"/>
<rect x="338.65" y="936.11" width="4.83" height="3.75" class="up-body"/>
<line x1="348.49" y1="933.44" x2="348.49" y2="938.20" class="up-wick"/>
<rect x="346.08" y="934.99" width="4.83" height="2.19" class="up-body"/>
<line x1="355.92" y1="911.86" x2="355.92" y2="930.01" class="up-wick"/>
<rect x="353.51" y="917.32" width="4.83" height="12.69" class="up-body"/>
<line x1="363.35" y1="907.31" x2="363.35" y2="914.11" class="up-wick"/>
<rect x="360.93" y="910.31" width="4.83" height="3.59" class="up-body"/>
<line x1="370.77" y1="896.93" x2="370.77" y2="902.55" class="down-wick"/>
<rect x="368.36" y="901.42" width="4.83" height="1.00" class="down-body"/>
<line x1="378.20" y1="893.39" x2="378.20" y2="903.08" class="up-wick"/>
<rect x="375.78" y="894.52" width="4.83" height="8.08" class="up-body"/>
<line x1="385.62" y1="882.53" x2="385.62" y2="892.16" class="down-wick"/>
<rect x="383.21" y="889.43" width="4.83" height="2.46" class="down-body"/>
<line x1="393.05" y1="869.36" x2="393.05" y2="888.52" class="up-wick"/>
<rect x="390.64" y="872.89" width="4.83" height="15.63" class="up-body"/>
<line x1="400.48" y1="866.09" x2="400.48" y2="877.87" class="up-wick"/>
<rect x="398.06" y="866.09" width="4.83" height="10.65" class="up-body"/>
<line x1="407.90" y1="864.86" x2="407.90" y2="868.72" class="down-wick"/>
<rect x="405.49" y="867.06" width="4.83" height="1.00" class="down-body"/>
<line x1="415.33" y1="870.48" x2="415.33" y2="888.63" class="down-wick"/>
<rect x="412.92" y="871.45" width="4.83" height="16.97" class="down-body"/>
<line x1="422.76" y1="888.58" x2="422.76" y2="894.14" class="up-wick"/>
<rect x="420.34" y="888.74" width="4.83" height="4.66" class="up-body"/>
<line x1="430.18" y1="883.17" x2="430.18" y2="888.15" class="down-wick"/>
<rect x="427.77" y="886.06" width="4.83" height="1.18" class="down-body"/>
<line x1="437.61" y1="889.22" x2="437.61" y2="898.27" class="down-wick"/>
<rect x="435.20" y="891.31" width="4.83" height="1.34" class="down-body"/>
<line x1="445.04" y1="879.37" x2="445.04" y2="885.79" class="up-wick"/>
<rect x="442.62" y="881.08" width="4.83" height="3.32" class="up-body"/>
<line x1="452.46" y1="880.60" x2="452.46" y2="884.72" class="down-wick"/>
<rect x="450.05" y="881.78" width="4.83" height="1.00" class="down-body"/>
<line x1="459.89" y1="887.18" x2="459.89" y2="890.18" class="down-wick"/>
<rect x="457.48" y="888.36" width="4.83" height="1.34" class="down-body"/>
<line x1="467.32" y1="875.62" x2="467.32" y2="881.78" class="up-wick"/>
<rect x="464.90" y="877.76" width="4.83" height="1.77" class="up-body"/>
<line x1="474.74" y1="883.81" x2="474.74" y2="891.90" class="up-wick"/>
<rect x="472.33" y="884.45" width="4.83" height="1.61" class="up-body"/>
<line x1="482.17" y1="873.27" x2="482.17" y2="878.19" class="up-wick"/>
<rect x="479.76" y="873.91" width="4.83" height="4.23" class="up-body"/>
<line x1="489.60" y1="872.46" x2="489.60" y2="876.26" class="up-wick"/>
<rect x="487.18" y="874.77" width="4.83" height="1.00" class="up-body"/>
<line x1="497.02" y1="871.61" x2="497.02" y2="877.17" class="up-wick"/>
<rect x="494.61" y="874.12" width="4.83" height="1.39" class="up-body"/>
<line x1="504.45" y1="872.41" x2="504.45" y2="878.03" class="down-wick"/>
<rect x="502.03" y="873.37" width="4.83" height="1.00" class="down-body"/>
<line x1="511.88" y1="872.95" x2="511.88" y2="880.01" class="up-wick"/>
<rect x="509.46" y="873.53" width="4.83" height="6.26" class="up-body"/>
<line x1="519.30" y1="869.25" x2="519.30" y2="872.36" class="up-wick"/>
<rect x="516.89" y="871.61" width="4.83" height="1.00" class="up-body"/>
<line x1="526.73" y1="872.62" x2="526.73" y2="880.33" class="down-wick"/>
<rect x="524.31" y="873.91" width="4.83" height="6.42" class="down-body"/>
<line x1="534.15" y1="876.59" x2="534.15" y2="882.74" class="up-wick"/>
<rect x="531.74" y="877.17" width="4.83" height="4.01" class="up-body"/>
<line x1="541.58" y1="871.23" x2="541.58" y2="875.03" class="up-wick"/>
<rect x="539.17" y="873.59" width="4.83" height="1.18" class="up-body"/>
<line x1="549.01" y1="872.57" x2="549.01" y2="875.94" class="up-wick"/>
<rect x="546.59" y="874.18" width="4.83" height="1.18" class="up-body"/>
<line x1="556.43" y1="876.00" x2="556.43" y2="881.30" class="down-wick"/>
<rect x="554.02" y="877.12" width="4.83" height="2.25" class="down-body"/>
<line x1="563.86" y1="881.30" x2="563.86" y2="884.45" class="down-wick"/>
<rect x="561.45" y="881.62" width="4.83" height="1.12" class="down-body"/>
<line x1="571.29" y1="873.59" x2="571.29" y2="878.78" class="up-wick"/>
<rect x="568.87" y="874.77" width="4.83" height="2.30" class="up-body"/>
<line x1="578.71" y1="865.83" x2="578.71" y2="868.61" class="down-wick"/>
<rect x="576.30" y="867.81" width="4.83" height="1.00" class="down-body"/>
<line x1="586.14" y1="859.24" x2="586.14" y2="873.32" class="up-wick"/>
<rect x="583.73" y="861.70" width="4.83" height="11.19" class="up-body"/>
<line x1="593.57" y1="872.89" x2="593.57" y2="882.96" class="down-wick"/>
<rect x="591.15" y="872.89" width="4.83" height="4.87" class="down-body"/>
<line x1="600.99" y1="872.46" x2="600.99" y2="879.26" class="down-wick"/>
<rect x="598.58" y="873.86" width="4.83" height="2.78" class="down-body"/>
<line x1="608.42" y1="867.54" x2="608.42" y2="872.14" class="up-wick"/>
<rect x="606.01" y="868.98" width="4.83" height="3.05" class="up-body"/>
<line x1="615.85" y1="868.98" x2="615.85" y2="872.41" class="up-wick"/>
<rect x="613.43" y="869.20" width="4.83" height="3.21" class="up-body"/>
<line x1="623.27" y1="869.04" x2="623.27" y2="876.42" class="down-wick"/>
<rect x="620.86" y="869.04" width="4.83" height="7.12" class="down-body"/>
<line x1="630.70" y1="876.32" x2="630.70" y2="880.28" class="down-wick"/>
<rect x="628.28" y="878.35" width="4.83" height="1.93" class="down-body"/>
<line x1="638.12" y1="879.58" x2="638.12" y2="885.58" class="down-wick"/>
<rect x="635.71" y="880.33" width="4.83" height="1.00" class="down-body"/>
<line x1="645.55" y1="880.23" x2="645.55" y2="890.18" class="down-wick"/>
<rect x="643.14" y="880.81" width="4.83" height="7.87" class="down-body"/>
<line x1="652.98" y1="887.88" x2="652.98" y2="891.79" class="down-wick"/>
<rect x="650.56" y="888.63" width="4.83" height="1.00" class="down-body"/>
<line x1="660.40" y1="887.83" x2="660.40" y2="894.52" class="down-wick"/>
<rect x="657.99" y="887.93" width="4.83" height="2.14" class="down-body"/>
<line x1="667.83" y1="885.31" x2="667.83" y2="892.27" class="down-wick"/>
<rect x="665.42" y="887.51" width="4.83" height="4.76" class="down-body"/>
<line x1="675.26" y1="892.81" x2="675.26" y2="895.75" class="up-wick"/>
<rect x="672.84" y="893.66" width="4.83" height="1.87" class="up-body"/>
<line x1="682.68" y1="877.92" x2="682.68" y2="886.44" class="up-wick"/>
<rect x="680.27" y="885.15" width="4.83" height="1.18" class="up-body"/>
<line x1="690.11" y1="890.40" x2="690.11" y2="897.36" class="down-wick"/>
<rect x="687.70" y="894.20" width="4.83" height="2.52" class="down-body"/>
<line x1="697.54" y1="900.30" x2="697.54" y2="903.46" class="down-wick"/>
<rect x="695.12" y="901.91" width="4.83" height="1.00" class="down-body"/>
<line x1="704.96" y1="900.62" x2="704.96" y2="907.10" class="down-wick"/>
<rect x="702.55" y="905.28" width="4.83" height="1.00" class="down-body"/>
<line x1="712.39" y1="903.62" x2="712.39" y2="909.72" class="up-wick"/>
<rect x="709.98" y="905.81" width="4.83" height="3.75" class="up-body"/>
<line x1="719.82" y1="909.08" x2="719.82" y2="913.84" class="down-wick"/>
<rect x="717.40" y="910.95" width="4.83" height="2.78" class="down-body"/>
<line x1="727.24" y1="910.20" x2="727.24" y2="915.45" class="up-wick"/>
<rect x="724.83" y="910.42" width="4.83" height="3.27" class="up-body"/>
<line x1="734.67" y1="915.77" x2="734.67" y2="921.93" class="up-wick"/>
<rect x="732.26" y="915.93" width="4.83" height="2.73" class="up-body"/>
<line x1="742.10" y1="919.41" x2="742.10" y2="925.30" class="down-wick"/>
<rect x="739.68" y="920.53" width="4.83" height="4.76" class="down-body"/>
<line x1="749.52" y1="924.28" x2="749.52" y2="932.63" class="down-wick"/>
<rect x="747.11" y="924.87" width="4.83" height="2.57" class="down-body"/>
<line x1="756.95" y1="919.20" x2="756.95" y2="925.62" class="down-wick"/>
<rect x="754.53" y="919.20" width="4.83" height="3.21" class="down-body"/>
<line x1="764.38" y1="918.45" x2="764.38" y2="922.41" class="down-wick"/>
<rect x="761.96" y="919.95" width="4.83" height="1.00" class="down-body"/>
<line x1="771.80" y1="918.71" x2="771.80" y2="922.46" class="up-wick"/>
<rect x="769.39" y="918.71" width="4.83" height="3.69" class="up-body"/>
<line x1="779.23" y1="914.16" x2="779.23" y2="924.55" class="down-wick"/>
<rect x="776.81" y="916.31" width="4.83" height="4.07" class="down-body"/>
<line x1="786.65" y1="912.99" x2="786.65" y2="920.11" class="up-wick"/>
<rect x="784.24" y="914.06" width="4.83" height="5.83" class="up-body"/>
<line x1="794.08" y1="918.13" x2="794.08" y2="922.78" class="down-wick"/>
<rect x="791.67" y="920.05" width="4.83" height="1.87" class="down-body"/>
<line x1="801.51" y1="933.11" x2="801.51" y2="943.39" class="down-wick"/>
<rect x="799.09" y="935.15" width="4.83" height="1.77" class="down-body"/>
<line x1="808.93" y1="936.43" x2="808.93" y2="951.58" class="down-wick"/>
<rect x="806.52" y="937.18" width="4.83" height="13.33" class="down-body"/>
<line x1="816.36" y1="949.92" x2="816.36" y2="965.34" class="down-wick"/>
<rect x="813.95" y="950.03" width="4.83" height="10.22" class="down-body"/>
<line x1="823.79" y1="953.29" x2="823.79" y2="962.23" class="down-wick"/>
<rect x="821.37" y="960.09" width="4.83" height="2.14" class="down-body"/>
<line x1="831.21" y1="958.92" x2="831.21" y2="965.87" class="down-wick"/>
<rect x="828.80" y="961.49" width="4.83" height="1.23" class="down-body"/>
<line x1="838.64" y1="955.92" x2="838.64" y2="966.62" class="down-wick"/>
<rect x="836.23" y="962.34" width="4.83" height="3.91" class="down-body"/>
<line x1="846.07" y1="954.10" x2="846.07" y2="967.43" class="up-wick"/>
<rect x="843.65" y="956.88" width="4.83" height="10.44" class="up-body"/>
<line x1="853.49" y1="951.53" x2="853.49" y2="958.86" class="up-wick"/>
<rect x="851.08" y="953.40" width="4.83" height="4.01" class="up-body"/>
<line x1="860.92" y1="945.85" x2="860.92" y2="951.96" class="up-wick"/>
<rect x="858.51" y="950.35" width="4.83" height="1.00" class="up-body"/>
<line x1="868.35" y1="948.00" x2="868.35" y2="959.29" class="down-wick"/>
<rect x="865.93" y="948.16" width="4.83" height="10.17" class="down-body"/>
<line x1="875.77" y1="956.67" x2="875.77" y2="971.98" class="down-wick"/>
<rect x="873.36" y="964.70" width="4.83" height="2.73" class="down-body"/>
<line x1="883.20" y1="961.43" x2="883.20" y2="971.07" class="up-wick"/>
<rect x="880.78" y="965.50" width="4.83" height="1.98" class="up-body"/>
<line x1="890.62" y1="955.22" x2="890.62" y2="960.20" class="up-wick"/>
<rect x="888.21" y="956.40" width="4.83" height="1.55" class="up-body"/>
<line x1="898.05" y1="949.12" x2="898.05" y2="955.38" class="down-wick"/>
<rect x="895.64" y="953.40" width="4.83" height="1.98" class="down-body"/>
<line x1="905.48" y1="962.07" x2="905.48" y2="966.95" class="down-wick"/>
<rect x="903.06" y="964.91" width="4.83" height="1.00" class="down-body"/>
<line x1="912.90" y1="952.76" x2="912.90" y2="965.18" class="up-wick"/>
<rect x="910.49" y="953.29" width="4.83" height="5.89" class="up-body"/>
<line x1="920.33" y1="954.26" x2="920.33" y2="965.45" class="up-wick"/>
<rect x="917.92" y="955.81" width="4.83" height="2.19" class="up-body"/>
<line x1="927.76" y1="950.56" x2="927.76" y2="969.35" class="up-wick"/>
<rect x="925.34" y="951.80" width="4.83" height="8.78" class="up-body"/>
<line x1="935.18" y1="957.52" x2="935.18" y2="968.93" class="up-wick"/>
<rect x="932.77" y="962.07" width="4.83" height="1.66" class="up-body"/>
<line x1="942.61" y1="947.46" x2="942.61" y2="955.49" class="up-wick"/>
<rect x="940.20" y="948.21" width="4.83" height="4.28" class="up-body"/>
<line x1="950.04" y1="938.95" x2="950.04" y2="943.02" class="down-wick"/>
<rect x="947.62" y="940.34" width="4.83" height="1.87" class="down-body"/>
<line x1="957.46" y1="939.22" x2="957.46" y2="946.50" class="down-wick"/>
<rect x="955.05" y="944.46" width="4.83" height="1.07" class="down-body"/>
<line x1="964.89" y1="940.66" x2="964.89" y2="953.08" class="down-wick"/>
<rect x="962.48" y="940.72" width="4.83" height="6.42" class="down-body"/>
<line x1="972.32" y1="949.28" x2="972.32" y2="957.15" class="down-wick"/>
<rect x="969.90" y="949.28" width="4.83" height="5.83" class="down-body"/>
<line x1="979.74" y1="951.05" x2="979.74" y2="957.10" class="down-wick"/>
<rect x="977.33" y="951.80" width="4.83" height="1.98" class="down-body"/>
<line x1="987.17" y1="940.82" x2="987.17" y2="946.44" class="up-wick"/>
<rect x="984.76" y="941.30" width="4.83" height="5.14" class="up-body"/>
<line x1="994.60" y1="939.06" x2="994.60" y2="943.55" class="down-wick"/>
<rect x="992.18" y="941.52" width="4.83" height="2.03" class="down-body"/>
<line x1="1002.02" y1="935.68" x2="1002.02" y2="945.69" class="down-wick"/>
<rect x="999.61" y="940.82" width="4.83" height="2.62" class="down-body"/>
<line x1="1009.45" y1="940.98" x2="1009.45" y2="951.85" class="up-wick"/>
<rect x="1007.03" y="943.07" width="4.83" height="2.30" class="up-body"/>
<line x1="1016.88" y1="941.57" x2="1016.88" y2="952.01" class="up-wick"/>
<rect x="1014.46" y="942.00" width="4.83" height="8.78" class="up-body"/>
<line x1="1024.30" y1="953.78" x2="1024.30" y2="964.64" class="up-wick"/>
<rect x="1021.89" y="956.13" width="4.83" height="8.19" class="up-body"/>
<line x1="1031.73" y1="948.05" x2="1031.73" y2="957.42" class="down-wick"/>
<rect x="1029.31" y="950.94" width="4.83" height="6.42" class="down-body"/>
<line x1="1039.15" y1="958.70" x2="1039.15" y2="967.64" class="up-wick"/>
<rect x="1036.74" y="959.34" width="4.83" height="4.39" class="up-body"/>
<line x1="1046.58" y1="953.51" x2="1046.58" y2="963.09" class="down-wick"/>
<rect x="1044.17" y="955.49" width="4.83" height="7.28" class="down-body"/>
<line x1="1054.01" y1="943.87" x2="1054.01" y2="955.92" class="down-wick"/>
<rect x="1051.59" y="947.09" width="4.83" height="8.30" class="down-body"/>
<line x1="1061.43" y1="959.08" x2="1061.43" y2="963.95" class="up-wick"/>
<rect x="1059.02" y="959.61" width="4.83" height="1.00" class="up-body"/>
<line x1="1068.86" y1="949.98" x2="1068.86" y2="957.47" class="up-wick"/>
<rect x="1066.45" y="954.47" width="4.83" height="2.84" class="up-body"/>
<line x1="1076.29" y1="958.33" x2="1076.29" y2="965.77" class="up-wick"/>
<rect x="1073.87" y="958.70" width="4.83" height="3.10" class="up-body"/>
<line x1="70" y1="888.36" x2="1080" y2="888.36" class="sweep-line"/>
<text x="1076" y="884.36" text-anchor="end" class="level-label">sweep 4724.42</text>
<line x1="70" y1="882.53" x2="1080" y2="882.53" class="entry-line"/>
<text x="1076" y="878.53" text-anchor="end" class="level-label">entry level 4725.51</text>
<text x="70" y="1056" class="axis-label">2026-04-27 05:15:00+00:00 to 2026-04-27 09:45:00+00:00</text>
<text x="1080" y="1056" text-anchor="end" class="axis-label">4696.47 - 4732.33</text>
</svg>