<svg xmlns="http://www.w3.org/2000/svg" width="1120" height="1054" viewBox="0 0 1120 1054">
<style>
text{font-family:Arial,Helvetica,sans-serif}.title{font-size:21px;font-weight:700;fill:#1f2937}.subtitle{font-size:12px;fill:#4b5563}.panel-title{font-size:15px;font-weight:700;fill:#111827}.muted{font-size:13px;fill:#6b7280}.plot-bg{fill:#f8fafc;stroke:#cbd5e1;stroke-width:1}.up-body{fill:#15803d;stroke:#14532d;stroke-width:.8}.down-body{fill:#b91c1c;stroke:#7f1d1d;stroke-width:.8}.up-wick{stroke:#14532d;stroke-width:1}.down-wick{stroke:#7f1d1d;stroke-width:1}.sweep-line{stroke:#7c3aed;stroke-width:1.6;stroke-dasharray:6 4}.number-line{stroke:#0f766e;stroke-width:1.4;stroke-dasharray:3 4}.entry-line{stroke:#2563eb;stroke-width:1.4}.sl-line{stroke:#dc2626;stroke-width:1.4}.tp-line{stroke:#16a34a;stroke-width:1.4}.level-label,.axis-label{font-size:11px;fill:#374151}
</style>
<text x="28" y="28" class="title">Adelin v2 visual review sample sample_039</text>
<text x="28" y="48" class="subtitle">Candidate windows are for visual labeling only and are not trade signals.</text>
<text x="560" y="48" class="subtitle" text-anchor="middle">NUMBER_THEORY_LEVEL_NEAR | ROUND_LEVEL_ENTRY_METADATA_AVAILABLE</text>
<text x="70" y="82" class="panel-title">H1 liquidity context</text>
<rect x="70" y="96" width="1010" height="192" class="plot-bg"/>
<line x1="79.71" y1="161.42" x2="79.71" y2="202.45" class="down-wick"/>
<rect x="75.71" y="184.18" width="8.00" height="7.81" class="down-body"/>
<line x1="99.13" y1="157.15" x2="99.13" y2="192.34" class="up-wick"/>
<rect x="95.13" y="185.86" width="8.00" height="6.05" class="up-body"/>
<line x1="118.56" y1="181.50" x2="118.56" y2="230.30" class="down-wick"/>
<rect x="114.56" y="185.86" width="8.00" height="7.27" class="down-body"/>
<line x1="137.98" y1="184.36" x2="137.98" y2="202.51" class="down-wick"/>
<rect x="133.98" y="193.13" width="8.00" height="6.33" class="down-body"/>
<line x1="157.40" y1="195.00" x2="157.40" y2="219.00" class="down-wick"/>
<rect x="153.40" y="199.49" width="8.00" height="15.64" class="down-body"/>
<line x1="176.83" y1="198.88" x2="176.83" y2="225.60" class="up-wick"/>
<rect x="172.83" y="207.13" width="8.00" height="8.00" class="up-body"/>
<line x1="196.25" y1="203.09" x2="196.25" y2="251.33" class="down-wick"/>
<rect x="192.25" y="207.12" width="8.00" height="31.71" class="down-body"/>
<line x1="215.67" y1="232.91" x2="215.67" y2="274.76" class="down-wick"/>
<rect x="211.67" y="238.82" width="8.00" height="10.89" class="down-body"/>
<line x1="235.10" y1="221.88" x2="235.10" y2="254.31" class="up-wick"/>
<rect x="231.10" y="229.67" width="8.00" height="20.04" class="up-body"/>
<line x1="254.52" y1="214.08" x2="254.52" y2="235.79" class="up-wick"/>
<rect x="250.52" y="216.58" width="8.00" height="13.09" class="up-body"/>
<line x1="273.94" y1="194.46" x2="273.94" y2="225.68" class="up-wick"/>
<rect x="269.94" y="197.39" width="8.00" height="19.19" class="up-body"/>
<line x1="293.37" y1="193.85" x2="293.37" y2="212.53" class="down-wick"/>
<rect x="289.37" y="197.39" width="8.00" height="3.37" class="down-body"/>
<line x1="312.79" y1="182.81" x2="312.79" y2="201.27" class="up-wick"/>
<rect x="308.79" y="186.11" width="8.00" height="14.65" class="up-body"/>
<line x1="332.21" y1="174.70" x2="332.21" y2="191.64" class="up-wick"/>
<rect x="328.21" y="179.16" width="8.00" height="6.95" class="up-body"/>
<line x1="351.63" y1="176.89" x2="351.63" y2="209.60" class="down-wick"/>
<rect x="347.63" y="179.16" width="8.00" height="21.50" class="down-body"/>
<line x1="371.06" y1="179.19" x2="371.06" y2="207.01" class="up-wick"/>
<rect x="367.06" y="197.45" width="8.00" height="3.21" class="up-body"/>
<line x1="390.48" y1="191.07" x2="390.48" y2="222.40" class="down-wick"/>
<rect x="386.48" y="197.45" width="8.00" height="24.17" class="down-body"/>
<line x1="409.90" y1="200.06" x2="409.90" y2="227.46" class="up-wick"/>
<rect x="405.90" y="210.46" width="8.00" height="11.16" class="up-body"/>
<line x1="429.33" y1="198.71" x2="429.33" y2="212.73" class="up-wick"/>
<rect x="425.33" y="208.50" width="8.00" height="1.96" class="up-body"/>
<line x1="448.75" y1="208.44" x2="448.75" y2="222.06" class="down-wick"/>
<rect x="444.75" y="208.50" width="8.00" height="3.94" class="down-body"/>
<line x1="468.17" y1="199.03" x2="468.17" y2="218.88" class="up-wick"/>
<rect x="464.17" y="205.69" width="8.00" height="6.76" class="up-body"/>
<line x1="487.60" y1="202.02" x2="487.60" y2="214.91" class="down-wick"/>
<rect x="483.60" y="205.66" width="8.00" height="8.04" class="down-body"/>
<line x1="507.02" y1="205.28" x2="507.02" y2="215.85" class="up-wick"/>
<rect x="503.02" y="212.25" width="8.00" height="1.45" class="up-body"/>
<line x1="526.44" y1="183.77" x2="526.44" y2="212.25" class="up-wick"/>
<rect x="522.44" y="184.07" width="8.00" height="28.18" class="up-body"/>
<line x1="545.87" y1="170.36" x2="545.87" y2="186.02" class="up-wick"/>
<rect x="541.87" y="182.58" width="8.00" height="1.49" class="up-body"/>
<line x1="565.29" y1="163.99" x2="565.29" y2="185.93" class="up-wick"/>
<rect x="561.29" y="167.63" width="8.00" height="14.95" class="up-body"/>
<line x1="584.71" y1="167.55" x2="584.71" y2="191.07" class="down-wick"/>
<rect x="580.71" y="167.63" width="8.00" height="14.22" class="down-body"/>
<line x1="604.13" y1="174.53" x2="604.13" y2="189.49" class="up-wick"/>
<rect x="600.13" y="175.54" width="8.00" height="6.31" class="up-body"/>
<line x1="623.56" y1="171.62" x2="623.56" y2="177.59" class="down-wick"/>
<rect x="619.56" y="175.56" width="8.00" height="1.00" class="down-body"/>
<line x1="642.98" y1="167.47" x2="642.98" y2="175.57" class="up-wick"/>
<rect x="638.98" y="171.65" width="8.00" height="3.92" class="up-body"/>
<line x1="662.40" y1="154.85" x2="662.40" y2="173.71" class="up-wick"/>
<rect x="658.40" y="157.93" width="8.00" height="13.72" class="up-body"/>
<line x1="681.83" y1="145.20" x2="681.83" y2="160.25" class="up-wick"/>
<rect x="677.83" y="149.21" width="8.00" height="8.78" class="up-body"/>
<line x1="701.25" y1="141.26" x2="701.25" y2="153.80" class="down-wick"/>
<rect x="697.25" y="149.21" width="8.00" height="1.14" class="down-body"/>
<line x1="720.67" y1="147.04" x2="720.67" y2="157.16" class="up-wick"/>
<rect x="716.67" y="149.49" width="8.00" height="1.00" class="up-body"/>
<line x1="740.10" y1="146.12" x2="740.10" y2="152.98" class="down-wick"/>
<rect x="736.10" y="149.45" width="8.00" height="3.38" class="down-body"/>
<line x1="759.52" y1="148.70" x2="759.52" y2="157.36" class="up-wick"/>
<rect x="755.52" y="149.28" width="8.00" height="3.56" class="up-body"/>
<line x1="778.94" y1="144.56" x2="778.94" y2="155.26" class="down-wick"/>
<rect x="774.94" y="149.28" width="8.00" height="1.00" class="down-body"/>
<line x1="798.37" y1="140.98" x2="798.37" y2="152.77" class="up-wick"/>
<rect x="794.37" y="145.42" width="8.00" height="4.63" class="up-body"/>
<line x1="817.79" y1="144.54" x2="817.79" y2="154.93" class="down-wick"/>
<rect x="813.79" y="145.41" width="8.00" height="3.79" class="down-body"/>
<line x1="837.21" y1="141.57" x2="837.21" y2="152.23" class="up-wick"/>
<rect x="833.21" y="144.78" width="8.00" height="4.41" class="up-body"/>
<line x1="856.63" y1="130.55" x2="856.63" y2="146.10" class="up-wick"/>
<rect x="852.63" y="139.86" width="8.00" height="4.93" class="up-body"/>
<line x1="876.06" y1="136.39" x2="876.06" y2="151.59" class="down-wick"/>
<rect x="872.06" y="139.87" width="8.00" height="6.45" class="down-body"/>
<line x1="895.48" y1="140.23" x2="895.48" y2="156.98" class="down-wick"/>
<rect x="891.48" y="146.32" width="8.00" height="5.03" class="down-body"/>
<line x1="914.90" y1="141.50" x2="914.90" y2="158.07" class="up-wick"/>
<rect x="910.90" y="146.79" width="8.00" height="4.56" class="up-body"/>
<line x1="934.33" y1="139.55" x2="934.33" y2="152.76" class="up-wick"/>
<rect x="930.33" y="142.56" width="8.00" height="4.22" class="up-body"/>
<line x1="953.75" y1="137.72" x2="953.75" y2="145.24" class="up-wick"/>
<rect x="949.75" y="142.13" width="8.00" height="1.00" class="up-body"/>
<line x1="973.17" y1="135.80" x2="973.17" y2="150.92" class="up-wick"/>
<rect x="969.17" y="141.86" width="8.00" height="1.00" class="up-body"/>
<line x1="992.60" y1="125.10" x2="992.60" y2="142.16" class="up-wick"/>
<rect x="988.60" y="125.20" width="8.00" height="16.66" class="up-body"/>
<line x1="1012.02" y1="115.96" x2="1012.02" y2="132.59" class="up-wick"/>
<rect x="1008.02" y="117.67" width="8.00" height="7.53" class="up-body"/>
<line x1="1031.44" y1="113.07" x2="1031.44" y2="120.38" class="down-wick"/>
<rect x="1027.44" y="117.67" width="8.00" height="1.49" class="down-body"/>
<line x1="1050.87" y1="111.09" x2="1050.87" y2="120.19" class="up-wick"/>
<rect x="1046.87" y="111.95" width="8.00" height="7.22" class="up-body"/>
<line x1="1070.29" y1="109.24" x2="1070.29" y2="115.30" class="up-wick"/>
<rect x="1066.29" y="109.40" width="8.00" height="2.55" class="up-body"/>
<line x1="70" y1="172.91" x2="1080" y2="172.91" class="number-line"/>
<text x="1076" y="168.91" text-anchor="end" class="level-label">round 4820.00</text>
<line x1="70" y1="172.91" x2="1080" y2="172.91" class="entry-line"/>
<text x="1076" y="168.91" text-anchor="end" class="level-label">entry level 4820.00</text>
<text x="70" y="306" class="axis-label">2026-02-02 01:00:00+00:00 to 2026-02-04 06:00:00+00:00</text>
<text x="1080" y="306" text-anchor="end" class="axis-label">4347.81 - 5135.54</text>
<text x="70" y="332" class="panel-title">M15 liquidity / reaction context</text>
<rect x="70" y="346" width="1010" height="192" class="plot-bg"/>
<line x1="77.32" y1="489.52" x2="77.32" y2="511.17" class="down-wick"/>
<rect x="73.32" y="498.18" width="8.00" height="1.04" class="down-body"/>
<line x1="91.96" y1="495.53" x2="91.96" y2="509.06" class="down-wick"/>
<rect x="87.96" y="499.30" width="8.00" height="1.70" class="down-body"/>
<line x1="106.59" y1="476.93" x2="106.59" y2="504.01" class="up-wick"/>
<rect x="102.59" y="480.11" width="8.00" height="20.89" class="up-body"/>
<line x1="121.23" y1="477.19" x2="121.23" y2="503.81" class="down-wick"/>
<rect x="117.23" y="480.11" width="8.00" height="19.99" class="down-body"/>
<line x1="135.87" y1="489.92" x2="135.87" y2="505.65" class="up-wick"/>
<rect x="131.87" y="496.52" width="8.00" height="3.59" class="up-body"/>
<line x1="150.51" y1="489.73" x2="150.51" y2="502.27" class="down-wick"/>
<rect x="146.51" y="496.52" width="8.00" height="1.00" class="down-body"/>
<line x1="165.14" y1="496.87" x2="165.14" y2="517.24" class="down-wick"/>
<rect x="161.14" y="496.99" width="8.00" height="18.98" class="down-body"/>
<line x1="179.78" y1="510.45" x2="179.78" y2="524.76" class="down-wick"/>
<rect x="175.78" y="515.97" width="8.00" height="1.85" class="down-body"/>
<line x1="194.42" y1="496.93" x2="194.42" y2="517.67" class="up-wick"/>
<rect x="190.42" y="505.33" width="8.00" height="12.34" class="up-body"/>
<line x1="209.06" y1="498.04" x2="209.06" y2="511.69" class="up-wick"/>
<rect x="205.06" y="505.07" width="8.00" height="1.00" class="up-body"/>
<line x1="223.70" y1="502.91" x2="223.70" y2="515.38" class="down-wick"/>
<rect x="219.70" y="505.07" width="8.00" height="5.33" class="down-body"/>
<line x1="238.33" y1="506.69" x2="238.33" y2="518.26" class="down-wick"/>
<rect x="234.33" y="510.40" width="8.00" height="1.74" class="down-body"/>
<line x1="252.97" y1="484.10" x2="252.97" y2="515.41" class="up-wick"/>
<rect x="248.97" y="486.71" width="8.00" height="25.44" class="up-body"/>
<line x1="267.61" y1="477.58" x2="267.61" y2="495.54" class="down-wick"/>
<rect x="263.61" y="486.65" width="8.00" height="4.57" class="down-body"/>
<line x1="282.25" y1="483.70" x2="282.25" y2="499.51" class="up-wick"/>
<rect x="278.25" y="487.70" width="8.00" height="3.47" class="up-body"/>
<line x1="296.88" y1="487.69" x2="296.88" y2="508.35" class="down-wick"/>
<rect x="292.88" y="487.69" width="8.00" height="11.04" class="down-body"/>
<line x1="311.52" y1="487.63" x2="311.52" y2="505.54" class="up-wick"/>
<rect x="307.52" y="493.74" width="8.00" height="4.98" class="up-body"/>
<line x1="326.16" y1="492.83" x2="326.16" y2="510.12" class="down-wick"/>
<rect x="322.16" y="493.74" width="8.00" height="13.91" class="down-body"/>
<line x1="340.80" y1="495.60" x2="340.80" y2="512.04" class="up-wick"/>
<rect x="336.80" y="496.43" width="8.00" height="11.20" class="up-body"/>
<line x1="355.43" y1="490.39" x2="355.43" y2="503.98" class="up-wick"/>
<rect x="351.43" y="493.48" width="8.00" height="2.95" class="up-body"/>
<line x1="370.07" y1="490.90" x2="370.07" y2="499.72" class="down-wick"/>
<rect x="366.07" y="493.48" width="8.00" height="5.86" class="down-body"/>
<line x1="384.71" y1="497.66" x2="384.71" y2="509.78" class="down-wick"/>
<rect x="380.71" y="499.33" width="8.00" height="5.33" class="down-body"/>
<line x1="399.35" y1="472.29" x2="399.35" y2="504.67" class="up-wick"/>
<rect x="395.35" y="474.76" width="8.00" height="29.91" class="up-body"/>
<line x1="413.99" y1="452.33" x2="413.99" y2="476.05" class="up-wick"/>
<rect x="409.99" y="464.91" width="8.00" height="9.84" class="up-body"/>
<line x1="428.62" y1="458.54" x2="428.62" y2="475.45" class="down-wick"/>
<rect x="424.62" y="464.91" width="8.00" height="3.31" class="down-body"/>
<line x1="443.26" y1="446.33" x2="443.26" y2="468.96" class="up-wick"/>
<rect x="439.26" y="446.94" width="8.00" height="21.28" class="up-body"/>
<line x1="457.90" y1="435.76" x2="457.90" y2="450.94" class="up-wick"/>
<rect x="453.90" y="440.42" width="8.00" height="6.52" class="up-body"/>
<line x1="472.54" y1="419.41" x2="472.54" y2="440.42" class="up-wick"/>
<rect x="468.54" y="424.09" width="8.00" height="16.33" class="up-body"/>
<line x1="487.17" y1="418.85" x2="487.17" y2="427.40" class="up-wick"/>
<rect x="483.17" y="423.43" width="8.00" height="1.00" class="up-body"/>
<line x1="501.81" y1="420.21" x2="501.81" y2="447.17" class="down-wick"/>
<rect x="497.81" y="423.40" width="8.00" height="20.49" class="down-body"/>
<line x1="516.45" y1="418.75" x2="516.45" y2="450.75" class="up-wick"/>
<rect x="512.45" y="419.15" width="8.00" height="24.73" class="up-body"/>
<line x1="531.09" y1="405.80" x2="531.09" y2="422.34" class="up-wick"/>
<rect x="527.09" y="407.25" width="8.00" height="11.90" class="up-body"/>
<line x1="545.72" y1="406.11" x2="545.72" y2="418.88" class="down-wick"/>
<rect x="541.72" y="407.23" width="8.00" height="4.02" class="down-body"/>
<line x1="560.36" y1="408.73" x2="560.36" y2="423.92" class="down-wick"/>
<rect x="556.36" y="411.30" width="8.00" height="1.95" class="down-body"/>
<line x1="575.00" y1="413.10" x2="575.00" y2="439.06" class="down-wick"/>
<rect x="571.00" y="413.25" width="8.00" height="20.26" class="down-body"/>
<line x1="589.64" y1="433.15" x2="589.64" y2="453.59" class="down-wick"/>
<rect x="585.64" y="433.52" width="8.00" height="14.06" class="down-body"/>
<line x1="604.28" y1="440.31" x2="604.28" y2="456.22" class="down-wick"/>
<rect x="600.28" y="447.58" width="8.00" height="8.63" class="down-body"/>
<line x1="618.91" y1="441.69" x2="618.91" y2="461.28" class="up-wick"/>
<rect x="614.91" y="442.38" width="8.00" height="14.10" class="up-body"/>
<line x1="633.55" y1="436.86" x2="633.55" y2="452.85" class="down-wick"/>
<rect x="629.55" y="442.39" width="8.00" height="7.39" class="down-body"/>
<line x1="648.19" y1="443.72" x2="648.19" y2="458.03" class="up-wick"/>
<rect x="644.19" y="447.24" width="8.00" height="2.52" class="up-body"/>
<line x1="662.83" y1="428.01" x2="662.83" y2="448.63" class="up-wick"/>
<rect x="658.83" y="431.40" width="8.00" height="15.84" class="up-body"/>
<line x1="677.46" y1="427.39" x2="677.46" y2="440.67" class="up-wick"/>
<rect x="673.46" y="429.46" width="8.00" height="1.94" class="up-body"/>
<line x1="692.10" y1="421.52" x2="692.10" y2="430.07" class="up-wick"/>
<rect x="688.10" y="426.14" width="8.00" height="3.36" class="up-body"/>
<line x1="706.74" y1="424.50" x2="706.74" y2="433.66" class="down-wick"/>
<rect x="702.74" y="426.24" width="8.00" height="4.63" class="down-body"/>
<line x1="721.38" y1="421.43" x2="721.38" y2="431.07" class="up-wick"/>
<rect x="717.38" y="423.95" width="8.00" height="6.91" class="up-body"/>
<line x1="736.01" y1="421.69" x2="736.01" y2="430.03" class="down-wick"/>
<rect x="732.01" y="423.90" width="8.00" height="5.64" class="down-body"/>
<line x1="750.65" y1="423.41" x2="750.65" y2="429.53" class="up-wick"/>
<rect x="746.65" y="427.58" width="8.00" height="1.95" class="up-body"/>
<line x1="765.29" y1="412.93" x2="765.29" y2="427.99" class="up-wick"/>
<rect x="761.29" y="414.25" width="8.00" height="13.33" class="up-body"/>
<line x1="779.93" y1="414.11" x2="779.93" y2="425.59" class="down-wick"/>
<rect x="775.93" y="414.25" width="8.00" height="9.35" class="down-body"/>
<line x1="794.57" y1="418.90" x2="794.57" y2="427.26" class="up-wick"/>
<rect x="790.57" y="421.50" width="8.00" height="2.10" class="up-body"/>
<line x1="809.20" y1="409.45" x2="809.20" y2="425.71" class="up-wick"/>
<rect x="805.20" y="412.43" width="8.00" height="9.07" class="up-body"/>
<line x1="823.84" y1="396.48" x2="823.84" y2="413.14" class="up-wick"/>
<rect x="819.84" y="398.29" width="8.00" height="14.14" class="up-body"/>
<line x1="838.48" y1="387.28" x2="838.48" y2="399.84" class="up-wick"/>
<rect x="834.48" y="388.39" width="8.00" height="10.01" class="up-body"/>
<line x1="853.12" y1="387.07" x2="853.12" y2="401.58" class="down-wick"/>
<rect x="849.12" y="388.39" width="8.00" height="5.00" class="down-body"/>
<line x1="867.75" y1="387.38" x2="867.75" y2="398.13" class="up-wick"/>
<rect x="863.75" y="387.43" width="8.00" height="6.08" class="up-body"/>
<line x1="882.39" y1="383.25" x2="882.39" y2="394.24" class="up-wick"/>
<rect x="878.39" y="384.03" width="8.00" height="3.49" class="up-body"/>
<line x1="897.03" y1="367.30" x2="897.03" y2="384.76" class="up-wick"/>
<rect x="893.03" y="373.45" width="8.00" height="10.56" class="up-body"/>
<line x1="911.67" y1="370.45" x2="911.67" y2="377.61" class="down-wick"/>
<rect x="907.67" y="373.44" width="8.00" height="2.09" class="down-body"/>
<line x1="926.30" y1="367.98" x2="926.30" y2="384.94" class="up-wick"/>
<rect x="922.30" y="369.92" width="8.00" height="5.61" class="up-body"/>
<line x1="940.94" y1="363.09" x2="940.94" y2="370.37" class="up-wick"/>
<rect x="936.94" y="365.94" width="8.00" height="3.98" class="up-body"/>
<line x1="955.58" y1="359.24" x2="955.58" y2="368.84" class="down-wick"/>
<rect x="951.58" y="365.94" width="8.00" height="1.00" class="down-body"/>
<line x1="970.22" y1="364.82" x2="970.22" y2="378.50" class="down-wick"/>
<rect x="966.22" y="366.33" width="8.00" height="11.54" class="down-body"/>
<line x1="984.86" y1="372.20" x2="984.86" y2="380.08" class="up-wick"/>
<rect x="980.86" y="375.99" width="8.00" height="1.88" class="up-body"/>
<line x1="999.49" y1="375.92" x2="999.49" y2="388.93" class="down-wick"/>
<rect x="995.49" y="375.99" width="8.00" height="12.48" class="down-body"/>
<line x1="1014.13" y1="372.93" x2="1014.13" y2="391.80" class="up-wick"/>
<rect x="1010.13" y="373.42" width="8.00" height="15.03" class="up-body"/>
<line x1="1028.77" y1="371.08" x2="1028.77" y2="376.79" class="down-wick"/>
<rect x="1024.77" y="373.42" width="8.00" height="2.68" class="down-body"/>
<line x1="1043.41" y1="369.20" x2="1043.41" y2="376.96" class="up-wick"/>
<rect x="1039.41" y="372.66" width="8.00" height="3.36" class="up-body"/>
<line x1="1058.04" y1="372.59" x2="1058.04" y2="377.09" class="down-wick"/>
<rect x="1054.04" y="372.66" width="8.00" height="4.27" class="down-body"/>
<line x1="1072.68" y1="372.12" x2="1072.68" y2="377.13" class="up-wick"/>
<rect x="1068.68" y="374.14" width="8.00" height="2.80" class="up-body"/>
<line x1="70" y1="424.07" x2="1080" y2="424.07" class="number-line"/>
<text x="1076" y="420.07" text-anchor="end" class="level-label">round 4820.00</text>
<line x1="70" y1="424.07" x2="1080" y2="424.07" class="entry-line"/>
<text x="1076" y="420.07" text-anchor="end" class="level-label">entry level 4820.00</text>
<text x="70" y="556" class="axis-label">2026-02-02 18:30:00+00:00 to 2026-02-03 12:30:00+00:00</text>
<text x="1080" y="556" text-anchor="end" class="axis-label">4591.84 - 4976.36</text>
<text x="70" y="582" class="panel-title">M5 reaction / execution context</text>
<rect x="70" y="596" width="1010" height="192" class="plot-bg"/>
<line x1="79.18" y1="734.63" x2="79.18" y2="746.66" class="up-wick"/>
<rect x="75.18" y="738.81" width="8.00" height="5.52" class="up-body"/>
<line x1="97.55" y1="733.58" x2="97.55" y2="755.19" class="down-wick"/>
<rect x="93.55" y="738.81" width="8.00" height="12.12" class="down-body"/>
<line x1="115.91" y1="750.66" x2="115.91" y2="764.67" class="down-wick"/>
<rect x="111.91" y="750.93" width="8.00" height="7.77" class="down-body"/>
<line x1="134.27" y1="753.51" x2="134.27" y2="768.31" class="up-wick"/>
<rect x="130.27" y="757.16" width="8.00" height="1.51" class="up-body"/>
<line x1="152.64" y1="746.92" x2="152.64" y2="766.79" class="down-wick"/>
<rect x="148.64" y="757.38" width="8.00" height="4.73" class="down-body"/>
<line x1="171.00" y1="753.40" x2="171.00" y2="774.76" class="up-wick"/>
<rect x="167.00" y="753.77" width="8.00" height="8.15" class="up-body"/>
<line x1="189.36" y1="739.10" x2="189.36" y2="756.46" class="up-wick"/>
<rect x="185.36" y="745.24" width="8.00" height="8.52" class="up-body"/>
<line x1="207.73" y1="722.85" x2="207.73" y2="747.58" class="up-wick"/>
<rect x="203.73" y="723.62" width="8.00" height="21.62" class="up-body"/>
<line x1="226.09" y1="716.37" x2="226.09" y2="728.46" class="up-wick"/>
<rect x="222.09" y="722.95" width="8.00" height="1.00" class="up-body"/>
<line x1="244.45" y1="721.86" x2="244.45" y2="734.28" class="down-wick"/>
<rect x="240.45" y="722.95" width="8.00" height="9.55" class="down-body"/>
<line x1="262.82" y1="727.70" x2="262.82" y2="740.98" class="up-wick"/>
<rect x="258.82" y="729.07" width="8.00" height="3.43" class="up-body"/>
<line x1="281.18" y1="715.16" x2="281.18" y2="729.07" class="up-wick"/>
<rect x="277.18" y="719.18" width="8.00" height="9.90" class="up-body"/>
<line x1="299.55" y1="708.44" x2="299.55" y2="720.36" class="up-wick"/>
<rect x="295.55" y="711.64" width="8.00" height="7.61" class="up-body"/>
<line x1="317.91" y1="703.74" x2="317.91" y2="715.56" class="down-wick"/>
<rect x="313.91" y="711.64" width="8.00" height="1.38" class="down-body"/>
<line x1="336.27" y1="704.99" x2="336.27" y2="714.05" class="up-wick"/>
<rect x="332.27" y="712.73" width="8.00" height="1.00" class="up-body"/>
<line x1="354.64" y1="710.02" x2="354.64" y2="721.09" class="down-wick"/>
<rect x="350.64" y="712.92" width="8.00" height="1.21" class="down-body"/>
<line x1="373.00" y1="709.53" x2="373.00" y2="727.35" class="down-wick"/>
<rect x="369.00" y="714.14" width="8.00" height="9.90" class="down-body"/>
<line x1="391.36" y1="716.99" x2="391.36" y2="726.01" class="up-wick"/>
<rect x="387.36" y="721.92" width="8.00" height="2.12" class="up-body"/>
<line x1="409.73" y1="712.61" x2="409.73" y2="722.09" class="up-wick"/>
<rect x="405.73" y="714.72" width="8.00" height="7.18" class="up-body"/>
<line x1="428.09" y1="703.56" x2="428.09" y2="722.32" class="up-wick"/>
<rect x="424.09" y="706.55" width="8.00" height="8.19" class="up-body"/>
<line x1="446.45" y1="705.80" x2="446.45" y2="713.25" class="down-wick"/>
<rect x="442.45" y="706.55" width="8.00" height="1.91" class="down-body"/>
<line x1="464.82" y1="704.06" x2="464.82" y2="710.10" class="up-wick"/>
<rect x="460.82" y="707.16" width="8.00" height="1.20" class="up-body"/>
<line x1="483.18" y1="705.93" x2="483.18" y2="711.73" class="down-wick"/>
<rect x="479.18" y="707.15" width="8.00" height="1.00" class="down-body"/>
<line x1="501.55" y1="707.50" x2="501.55" y2="720.29" class="down-wick"/>
<rect x="497.55" y="707.61" width="8.00" height="11.72" class="down-body"/>
<line x1="519.91" y1="707.41" x2="519.91" y2="719.31" class="up-wick"/>
<rect x="515.91" y="711.08" width="8.00" height="8.23" class="up-body"/>
<line x1="538.27" y1="707.60" x2="538.27" y2="717.59" class="up-wick"/>
<rect x="534.27" y="709.12" width="8.00" height="1.96" class="up-body"/>
<line x1="556.64" y1="707.45" x2="556.64" y2="719.09" class="down-wick"/>
<rect x="552.64" y="709.12" width="8.00" height="6.40" class="down-body"/>
<line x1="575.00" y1="703.98" x2="575.00" y2="716.33" class="up-wick"/>
<rect x="571.00" y="707.50" width="8.00" height="8.02" class="up-body"/>
<line x1="593.36" y1="700.29" x2="593.36" y2="708.45" class="up-wick"/>
<rect x="589.36" y="704.90" width="8.00" height="2.60" class="up-body"/>
<line x1="611.73" y1="687.04" x2="611.73" y2="706.79" class="up-wick"/>
<rect x="607.73" y="689.60" width="8.00" height="15.30" class="up-body"/>
<line x1="630.09" y1="689.32" x2="630.09" y2="707.10" class="down-wick"/>
<rect x="626.09" y="689.60" width="8.00" height="8.09" class="down-body"/>
<line x1="648.45" y1="694.69" x2="648.45" y2="710.18" class="down-wick"/>
<rect x="644.45" y="697.69" width="8.00" height="1.00" class="down-body"/>
<line x1="666.82" y1="692.63" x2="666.82" y2="711.66" class="down-wick"/>
<rect x="662.82" y="698.34" width="8.00" height="9.44" class="down-body"/>
<line x1="685.18" y1="699.41" x2="685.18" y2="714.91" class="up-wick"/>
<rect x="681.18" y="700.14" width="8.00" height="7.64" class="up-body"/>
<line x1="703.55" y1="698.63" x2="703.55" y2="706.30" class="down-wick"/>
<rect x="699.55" y="700.20" width="8.00" height="4.91" class="down-body"/>
<line x1="721.91" y1="698.73" x2="721.91" y2="708.67" class="up-wick"/>
<rect x="717.91" y="703.70" width="8.00" height="1.41" class="up-body"/>
<line x1="740.27" y1="699.38" x2="740.27" y2="711.89" class="down-wick"/>
<rect x="736.27" y="703.70" width="8.00" height="4.83" class="down-body"/>
<line x1="758.64" y1="699.90" x2="758.64" y2="710.83" class="up-wick"/>
<rect x="754.64" y="701.99" width="8.00" height="6.54" class="up-body"/>
<line x1="777.00" y1="680.26" x2="777.00" y2="703.75" class="up-wick"/>
<rect x="773.00" y="686.06" width="8.00" height="15.94" class="up-body"/>
<line x1="795.36" y1="672.64" x2="795.36" y2="687.44" class="up-wick"/>
<rect x="791.36" y="672.75" width="8.00" height="13.31" class="up-body"/>
<line x1="813.73" y1="667.00" x2="813.73" y2="681.86" class="up-wick"/>
<rect x="809.73" y="668.75" width="8.00" height="4.00" class="up-body"/>
<line x1="832.09" y1="655.03" x2="832.09" y2="670.11" class="up-wick"/>
<rect x="828.09" y="658.55" width="8.00" height="10.20" class="up-body"/>
<line x1="850.45" y1="653.81" x2="850.45" y2="661.56" class="up-wick"/>
<rect x="846.45" y="654.55" width="8.00" height="4.22" class="up-body"/>
<line x1="868.82" y1="651.54" x2="868.82" y2="660.31" class="down-wick"/>
<rect x="864.82" y="654.56" width="8.00" height="1.00" class="down-body"/>
<line x1="887.18" y1="637.14" x2="887.18" y2="657.14" class="up-wick"/>
<rect x="883.18" y="639.29" width="8.00" height="15.86" class="up-body"/>
<line x1="905.55" y1="636.73" x2="905.55" y2="656.57" class="down-wick"/>
<rect x="901.55" y="639.29" width="8.00" height="16.64" class="down-body"/>
<line x1="923.91" y1="646.59" x2="923.91" y2="664.96" class="down-wick"/>
<rect x="919.91" y="655.93" width="8.00" height="1.24" class="down-body"/>
<line x1="942.27" y1="646.25" x2="942.27" y2="657.19" class="up-wick"/>
<rect x="938.27" y="649.02" width="8.00" height="8.15" class="up-body"/>
<line x1="960.64" y1="648.35" x2="960.64" y2="658.25" class="down-wick"/>
<rect x="956.64" y="649.27" width="8.00" height="1.00" class="down-body"/>
<line x1="979.00" y1="641.19" x2="979.00" y2="650.15" class="up-wick"/>
<rect x="975.00" y="645.58" width="8.00" height="4.08" class="up-body"/>
<line x1="997.36" y1="637.33" x2="997.36" y2="647.61" class="up-wick"/>
<rect x="993.36" y="637.44" width="8.00" height="8.12" class="up-body"/>
<line x1="1015.73" y1="637.20" x2="1015.73" y2="650.68" class="down-wick"/>
<rect x="1011.73" y="637.59" width="8.00" height="10.12" class="down-body"/>
<line x1="1034.09" y1="637.85" x2="1034.09" y2="648.87" class="up-wick"/>
<rect x="1030.09" y="638.97" width="8.00" height="8.74" class="up-body"/>
<line x1="1052.45" y1="629.30" x2="1052.45" y2="640.91" class="up-wick"/>
<rect x="1048.45" y="630.81" width="8.00" height="8.02" class="up-body"/>
<line x1="1070.82" y1="609.24" x2="1070.82" y2="632.24" class="up-wick"/>
<rect x="1066.82" y="613.69" width="8.00" height="17.08" class="up-body"/>
<line x1="70" y1="708.71" x2="1080" y2="708.71" class="number-line"/>
<text x="1076" y="704.71" text-anchor="end" class="level-label">round 4820.00</text>
<line x1="70" y1="708.71" x2="1080" y2="708.71" class="entry-line"/>
<text x="1076" y="704.71" text-anchor="end" class="level-label">entry level 4820.00</text>
<text x="70" y="806" class="axis-label">2026-02-03 05:00:00+00:00 to 2026-02-03 09:30:00+00:00</text>
<text x="1080" y="806" text-anchor="end" class="axis-label">4738.36 - 4936.04</text>
<text x="70" y="832" class="panel-title">M1 execution window</text>
<rect x="70" y="846" width="1010" height="192" class="plot-bg"/>
<line x1="73.71" y1="982.63" x2="73.71" y2="992.58" class="up-wick"/>
<rect x="71.30" y="982.84" width="4.83" height="7.29" class="up-body"/>
<line x1="81.14" y1="984.28" x2="81.14" y2="992.79" class="up-wick"/>
<rect x="78.73" y="985.77" width="4.83" height="2.87" class="up-body"/>
<line x1="88.57" y1="979.09" x2="88.57" y2="991.15" class="up-wick"/>
<rect x="86.15" y="983.86" width="4.83" height="7.29" class="up-body"/>
<line x1="95.99" y1="983.18" x2="95.99" y2="989.24" class="down-wick"/>
<rect x="93.58" y="986.16" width="4.83" height="1.00" class="down-body"/>
<line x1="103.42" y1="990.17" x2="103.42" y2="1002.49" class="down-wick"/>
<rect x="101.01" y="995.21" width="4.83" height="5.81" class="down-body"/>
<line x1="110.85" y1="997.34" x2="110.85" y2="1007.75" class="down-wick"/>
<rect x="108.43" y="997.65" width="4.83" height="9.46" class="down-body"/>
<line x1="118.27" y1="1003.79" x2="118.27" y2="1013.28" class="down-wick"/>
<rect x="115.86" y="1003.79" width="4.83" height="9.27" class="down-body"/>
<line x1="125.70" y1="1004.07" x2="125.70" y2="1010.17" class="down-wick"/>
<rect x="123.28" y="1005.65" width="4.83" height="1.00" class="down-body"/>
<line x1="133.12" y1="1003.97" x2="133.12" y2="1015.55" class="down-wick"/>
<rect x="130.71" y="1011.35" width="4.83" height="1.95" class="down-body"/>
<line x1="140.55" y1="1003.73" x2="140.55" y2="1012.50" class="up-wick"/>
<rect x="138.14" y="1004.34" width="4.83" height="7.45" class="up-body"/>
<line x1="147.98" y1="1004.79" x2="147.98" y2="1015.70" class="down-wick"/>
<rect x="145.56" y="1004.99" width="4.83" height="9.70" class="down-body"/>
<line x1="155.40" y1="993.09" x2="155.40" y2="1004.30" class="down-wick"/>
<rect x="152.99" y="997.14" width="4.83" height="2.81" class="down-body"/>
<line x1="162.83" y1="1003.73" x2="162.83" y2="1012.92" class="down-wick"/>
<rect x="160.42" y="1008.63" width="4.83" height="1.74" class="down-body"/>
<line x1="170.26" y1="1014.81" x2="170.26" y2="1024.76" class="down-wick"/>
<rect x="167.84" y="1016.05" width="4.83" height="1.00" class="down-body"/>
<line x1="177.68" y1="1003.71" x2="177.68" y2="1013.88" class="up-wick"/>
<rect x="175.27" y="1005.81" width="4.83" height="6.68" class="up-body"/>
<line x1="185.11" y1="992.79" x2="185.11" y2="1003.94" class="up-wick"/>
<rect x="182.70" y="994.15" width="4.83" height="6.72" class="up-body"/>
<line x1="192.54" y1="984.19" x2="192.54" y2="994.48" class="down-wick"/>
<rect x="190.12" y="987.87" width="4.83" height="4.86" class="down-body"/>
<line x1="199.96" y1="988.36" x2="199.96" y2="992.96" class="up-wick"/>
<rect x="197.55" y="991.17" width="4.83" height="1.00" class="up-body"/>
<line x1="207.39" y1="980.61" x2="207.39" y2="989.89" class="up-wick"/>
<rect x="204.98" y="982.67" width="4.83" height="5.85" class="up-body"/>
<line x1="214.82" y1="968.78" x2="214.82" y2="977.28" class="up-wick"/>
<rect x="212.40" y="969.97" width="4.83" height="6.41" class="up-body"/>
<line x1="222.24" y1="964.25" x2="222.24" y2="972.08" class="up-wick"/>
<rect x="219.83" y="964.56" width="4.83" height="2.06" class="up-body"/>
<line x1="229.67" y1="959.06" x2="229.67" y2="965.77" class="up-wick"/>
<rect x="227.26" y="962.82" width="4.83" height="2.95" class="up-body"/>
<line x1="237.10" y1="959.16" x2="237.10" y2="965.81" class="down-wick"/>
<rect x="234.68" y="961.98" width="4.83" height="3.83" class="down-body"/>
<line x1="244.52" y1="972.84" x2="244.52" y2="977.65" class="down-wick"/>
<rect x="242.11" y="973.18" width="4.83" height="1.93" class="down-body"/>
<line x1="251.95" y1="971.93" x2="251.95" y2="976.61" class="down-wick"/>
<rect x="249.53" y="971.93" width="4.83" height="2.53" class="down-body"/>
<line x1="259.38" y1="971.57" x2="259.38" y2="976.95" class="up-wick"/>
<rect x="256.96" y="973.39" width="4.83" height="3.28" class="up-body"/>
<line x1="266.80" y1="971.21" x2="266.80" y2="977.29" class="down-wick"/>
<rect x="264.39" y="974.09" width="4.83" height="1.59" class="down-body"/>
<line x1="274.23" y1="971.91" x2="274.23" y2="979.55" class="up-wick"/>
<rect x="271.81" y="972.77" width="4.83" height="6.68" class="up-body"/>
<line x1="281.65" y1="963.64" x2="281.65" y2="967.43" class="up-wick"/>
<rect x="279.24" y="965.03" width="4.83" height="1.67" class="up-body"/>
<line x1="289.08" y1="960.42" x2="289.08" y2="965.95" class="up-wick"/>
<rect x="286.67" y="960.98" width="4.83" height="3.06" class="up-body"/>
<line x1="296.51" y1="954.96" x2="296.51" y2="962.86" class="up-wick"/>
<rect x="294.09" y="956.60" width="4.83" height="5.00" class="up-body"/>
<line x1="303.93" y1="953.48" x2="303.93" y2="960.40" class="up-wick"/>
<rect x="301.52" y="954.11" width="4.83" height="5.74" class="up-body"/>
<line x1="311.36" y1="949.30" x2="311.36" y2="954.42" class="down-wick"/>
<rect x="308.95" y="952.07" width="4.83" height="1.00" class="down-body"/>
<line x1="318.79" y1="944.24" x2="318.79" y2="953.28" class="down-wick"/>
<rect x="316.37" y="946.07" width="4.83" height="4.16" class="down-body"/>
<line x1="326.21" y1="949.60" x2="326.21" y2="956.10" class="up-wick"/>
<rect x="323.80" y="951.13" width="4.83" height="1.36" class="up-body"/>
<line x1="333.64" y1="952.48" x2="333.64" y2="955.00" class="up-wick"/>
<rect x="331.23" y="953.55" width="4.83" height="1.00" class="up-body"/>
<line x1="341.07" y1="945.55" x2="341.07" y2="949.00" class="down-wick"/>
<rect x="338.65" y="948.16" width="4.83" height="1.00" class="down-body"/>
<line x1="348.49" y1="953.18" x2="348.49" y2="955.25" class="up-wick"/>
<rect x="346.08" y="954.17" width="4.83" height="1.01" class="up-body"/>
<line x1="355.92" y1="956.73" x2="355.92" y2="963.69" class="down-wick"/>
<rect x="353.51" y="956.80" width="4.83" height="3.05" class="down-body"/>
<line x1="363.35" y1="953.55" x2="363.35" y2="958.77" class="up-wick"/>
<rect x="360.93" y="954.28" width="4.83" height="4.48" class="up-body"/>
<line x1="370.77" y1="951.84" x2="370.77" y2="957.71" class="up-wick"/>
<rect x="368.36" y="953.18" width="4.83" height="2.61" class="up-body"/>
<line x1="378.20" y1="950.54" x2="378.20" y2="954.24" class="up-wick"/>
<rect x="375.78" y="952.64" width="4.83" height="1.00" class="up-body"/>
<line x1="385.62" y1="961.06" x2="385.62" y2="970.82" class="down-wick"/>
<rect x="383.21" y="961.27" width="4.83" height="5.78" class="down-body"/>
<line x1="393.05" y1="959.38" x2="393.05" y2="963.82" class="up-wick"/>
<rect x="390.64" y="962.06" width="4.83" height="1.24" class="up-body"/>
<line x1="400.48" y1="960.77" x2="400.48" y2="964.37" class="down-wick"/>
<rect x="398.06" y="962.68" width="4.83" height="1.67" class="down-body"/>
<line x1="407.90" y1="955.94" x2="407.90" y2="964.83" class="up-wick"/>
<rect x="405.49" y="958.58" width="4.83" height="6.02" class="up-body"/>
<line x1="415.33" y1="956.70" x2="415.33" y2="960.89" class="up-wick"/>
<rect x="412.92" y="956.70" width="4.83" height="1.87" class="up-body"/>
<line x1="422.76" y1="954.04" x2="422.76" y2="957.09" class="up-wick"/>
<rect x="420.34" y="956.44" width="4.83" height="1.00" class="up-body"/>
<line x1="430.18" y1="957.33" x2="430.18" y2="960.59" class="up-wick"/>
<rect x="427.77" y="957.71" width="4.83" height="1.00" class="up-body"/>
<line x1="437.61" y1="943.74" x2="437.61" y2="949.39" class="up-wick"/>
<rect x="435.20" y="944.83" width="4.83" height="4.35" class="up-body"/>
<line x1="445.04" y1="946.29" x2="445.04" y2="951.60" class="down-wick"/>
<rect x="442.62" y="947.14" width="4.83" height="1.00" class="down-body"/>
<line x1="452.46" y1="951.32" x2="452.46" y2="954.77" class="up-wick"/>
<rect x="450.05" y="951.93" width="4.83" height="1.00" class="up-body"/>
<line x1="459.89" y1="948.42" x2="459.89" y2="953.43" class="up-wick"/>
<rect x="457.48" y="949.32" width="4.83" height="3.38" class="up-body"/>
<line x1="467.32" y1="944.39" x2="467.32" y2="948.67" class="up-wick"/>
<rect x="464.90" y="944.75" width="4.83" height="3.32" class="up-body"/>
<line x1="474.74" y1="945.54" x2="474.74" y2="947.58" class="up-wick"/>
<rect x="472.33" y="946.06" width="4.83" height="1.00" class="up-body"/>
<line x1="482.17" y1="946.44" x2="482.17" y2="949.69" class="down-wick"/>
<rect x="479.76" y="947.83" width="4.83" height="1.20" class="down-body"/>
<line x1="489.60" y1="948.37" x2="489.60" y2="953.03" class="down-wick"/>
<rect x="487.18" y="949.63" width="4.83" height="1.23" class="down-body"/>
<line x1="497.02" y1="947.97" x2="497.02" y2="951.70" class="up-wick"/>
<rect x="494.61" y="948.35" width="4.83" height="2.76" class="up-body"/>
<line x1="504.45" y1="953.11" x2="504.45" y2="957.06" class="up-wick"/>
<rect x="502.03" y="953.18" width="4.83" height="1.00" class="up-body"/>
<line x1="511.88" y1="954.67" x2="511.88" y2="961.90" class="down-wick"/>
<rect x="509.46" y="954.67" width="4.83" height="6.16" class="down-body"/>
<line x1="519.30" y1="955.95" x2="519.30" y2="961.67" class="up-wick"/>
<rect x="516.89" y="957.83" width="4.83" height="3.83" class="up-body"/>
<line x1="526.73" y1="948.97" x2="526.73" y2="951.94" class="down-wick"/>
<rect x="524.31" y="950.57" width="4.83" height="1.00" class="down-body"/>
<line x1="534.15" y1="948.13" x2="534.15" y2="955.21" class="up-wick"/>
<rect x="531.74" y="952.31" width="4.83" height="2.88" class="up-body"/>
<line x1="541.58" y1="953.29" x2="541.58" y2="959.71" class="up-wick"/>
<rect x="539.17" y="953.52" width="4.83" height="2.88" class="up-body"/>
<line x1="549.01" y1="949.52" x2="549.01" y2="953.29" class="down-wick"/>
<rect x="546.59" y="949.62" width="4.83" height="1.34" class="down-body"/>
<line x1="556.43" y1="948.17" x2="556.43" y2="956.98" class="down-wick"/>
<rect x="554.02" y="950.07" width="4.83" height="6.69" class="down-body"/>
<line x1="563.86" y1="954.11" x2="563.86" y2="957.73" class="up-wick"/>
<rect x="561.45" y="955.74" width="4.83" height="1.92" class="up-body"/>
<line x1="571.29" y1="956.28" x2="571.29" y2="960.14" class="up-wick"/>
<rect x="568.87" y="957.36" width="4.83" height="1.00" class="up-body"/>
<line x1="578.71" y1="949.24" x2="578.71" y2="954.35" class="up-wick"/>
<rect x="576.30" y="951.34" width="4.83" height="2.67" class="up-body"/>
<line x1="586.14" y1="944.22" x2="586.14" y2="946.90" class="up-wick"/>
<rect x="583.73" y="945.31" width="4.83" height="1.50" class="up-body"/>
<line x1="593.57" y1="947.43" x2="593.57" y2="949.31" class="up-wick"/>
<rect x="591.15" y="947.84" width="4.83" height="1.00" class="up-body"/>
<line x1="600.99" y1="944.04" x2="600.99" y2="948.26" class="down-wick"/>
<rect x="598.58" y="944.24" width="4.83" height="2.41" class="down-body"/>
<line x1="608.42" y1="940.03" x2="608.42" y2="945.27" class="down-wick"/>
<rect x="606.01" y="944.20" width="4.83" height="1.06" class="down-body"/>
<line x1="615.85" y1="939.26" x2="615.85" y2="943.23" class="up-wick"/>
<rect x="613.43" y="939.26" width="4.83" height="3.55" class="up-body"/>
<line x1="623.27" y1="933.83" x2="623.27" y2="942.12" class="up-wick"/>
<rect x="620.86" y="934.36" width="4.83" height="5.15" class="up-body"/>
<line x1="630.70" y1="927.54" x2="630.70" y2="946.23" class="down-wick"/>
<rect x="628.28" y="927.86" width="4.83" height="17.53" class="down-body"/>
<line x1="638.12" y1="938.89" x2="638.12" y2="947.77" class="up-wick"/>
<rect x="635.71" y="941.86" width="4.83" height="3.41" class="up-body"/>
<line x1="645.55" y1="936.75" x2="645.55" y2="943.36" class="up-wick"/>
<rect x="643.14" y="937.07" width="4.83" height="4.61" class="up-body"/>
<line x1="652.98" y1="937.04" x2="652.98" y2="950.23" class="down-wick"/>
<rect x="650.56" y="938.06" width="4.83" height="11.70" class="down-body"/>
<line x1="660.40" y1="933.76" x2="660.40" y2="939.09" class="up-wick"/>
<rect x="657.99" y="936.70" width="4.83" height="2.35" class="up-body"/>
<line x1="667.83" y1="931.31" x2="667.83" y2="938.97" class="down-wick"/>
<rect x="665.42" y="937.81" width="4.83" height="1.00" class="down-body"/>
<line x1="675.26" y1="939.64" x2="675.26" y2="944.66" class="down-wick"/>
<rect x="672.84" y="942.88" width="4.83" height="1.00" class="down-body"/>
<line x1="682.68" y1="942.39" x2="682.68" y2="952.96" class="down-wick"/>
<rect x="680.27" y="945.06" width="4.83" height="3.49" class="down-body"/>
<line x1="690.11" y1="949.93" x2="690.11" y2="956.66" class="up-wick"/>
<rect x="687.70" y="950.00" width="4.83" height="1.67" class="up-body"/>
<line x1="697.54" y1="939.53" x2="697.54" y2="943.32" class="down-wick"/>
<rect x="695.12" y="942.69" width="4.83" height="1.00" class="down-body"/>
<line x1="704.96" y1="938.29" x2="704.96" y2="941.14" class="down-wick"/>
<rect x="702.55" y="939.92" width="4.83" height="1.00" class="down-body"/>
<line x1="712.39" y1="938.78" x2="712.39" y2="945.14" class="up-wick"/>
<rect x="709.98" y="940.30" width="4.83" height="1.00" class="up-body"/>
<line x1="719.82" y1="938.14" x2="719.82" y2="945.61" class="down-wick"/>
<rect x="717.40" y="942.87" width="4.83" height="2.64" class="down-body"/>
<line x1="727.24" y1="938.25" x2="727.24" y2="942.82" class="down-wick"/>
<rect x="724.83" y="939.22" width="4.83" height="1.79" class="down-body"/>
<line x1="734.67" y1="944.46" x2="734.67" y2="949.09" class="down-wick"/>
<rect x="732.26" y="946.71" width="4.83" height="1.70" class="down-body"/>
<line x1="742.10" y1="938.99" x2="742.10" y2="948.75" class="down-wick"/>
<rect x="739.68" y="943.91" width="4.83" height="4.84" class="down-body"/>
<line x1="749.52" y1="945.80" x2="749.52" y2="951.12" class="down-wick"/>
<rect x="747.11" y="947.82" width="4.83" height="1.00" class="down-body"/>
<line x1="756.95" y1="947.12" x2="756.95" y2="952.07" class="up-wick"/>
<rect x="754.53" y="949.40" width="4.83" height="1.83" class="up-body"/>
<line x1="764.38" y1="943.19" x2="764.38" y2="949.39" class="up-wick"/>
<rect x="761.96" y="947.83" width="4.83" height="1.00" class="up-body"/>
<line x1="771.80" y1="941.66" x2="771.80" y2="948.88" class="up-wick"/>
<rect x="769.39" y="942.13" width="4.83" height="5.56" class="up-body"/>
<line x1="779.23" y1="934.77" x2="779.23" y2="943.96" class="up-wick"/>
<rect x="776.81" y="936.36" width="4.83" height="5.60" class="up-body"/>
<line x1="786.65" y1="927.86" x2="786.65" y2="932.59" class="up-wick"/>
<rect x="784.24" y="927.93" width="4.83" height="1.00" class="up-body"/>
<line x1="794.08" y1="917.23" x2="794.08" y2="925.94" class="up-wick"/>
<rect x="791.67" y="923.83" width="4.83" height="2.00" class="up-body"/>
<line x1="801.51" y1="916.41" x2="801.51" y2="921.33" class="up-wick"/>
<rect x="799.09" y="918.05" width="4.83" height="2.86" class="up-body"/>
<line x1="808.93" y1="910.96" x2="808.93" y2="919.01" class="up-wick"/>
<rect x="806.52" y="911.92" width="4.83" height="2.20" class="up-body"/>
<line x1="816.36" y1="902.14" x2="816.36" y2="915.96" class="down-wick"/>
<rect x="813.95" y="908.69" width="4.83" height="7.13" class="down-body"/>
<line x1="823.79" y1="907.66" x2="823.79" y2="911.56" class="up-wick"/>
<rect x="821.37" y="909.69" width="4.83" height="1.05" class="up-body"/>
<line x1="831.21" y1="904.03" x2="831.21" y2="914.26" class="up-wick"/>
<rect x="828.80" y="904.13" width="4.83" height="7.12" class="up-body"/>
<line x1="838.64" y1="894.14" x2="838.64" y2="899.31" class="up-wick"/>
<rect x="836.23" y="895.19" width="4.83" height="3.58" class="up-body"/>
<line x1="846.07" y1="889.44" x2="846.07" y2="895.40" class="up-wick"/>
<rect x="843.65" y="889.44" width="4.83" height="4.03" class="up-body"/>
<line x1="853.49" y1="890.90" x2="853.49" y2="895.95" class="down-wick"/>
<rect x="851.08" y="892.77" width="4.83" height="1.18" class="down-body"/>
<line x1="860.92" y1="892.06" x2="860.92" y2="895.20" class="down-wick"/>
<rect x="858.51" y="892.06" width="4.83" height="1.18" class="down-body"/>
<line x1="868.35" y1="887.14" x2="868.35" y2="893.28" class="up-wick"/>
<rect x="865.93" y="887.98" width="4.83" height="3.35" class="up-body"/>
<line x1="875.77" y1="885.96" x2="875.77" y2="894.53" class="down-wick"/>
<rect x="873.36" y="886.30" width="4.83" height="2.82" class="down-body"/>
<line x1="883.20" y1="886.36" x2="883.20" y2="892.82" class="down-wick"/>
<rect x="880.78" y="888.89" width="4.83" height="3.87" class="down-body"/>
<line x1="890.62" y1="877.42" x2="890.62" y2="890.93" class="up-wick"/>
<rect x="888.21" y="878.46" width="4.83" height="10.20" class="up-body"/>
<line x1="898.05" y1="868.16" x2="898.05" y2="873.16" class="up-wick"/>
<rect x="895.64" y="869.99" width="4.83" height="1.32" class="up-body"/>
<line x1="905.48" y1="868.61" x2="905.48" y2="873.08" class="up-wick"/>
<rect x="903.06" y="870.61" width="4.83" height="1.00" class="up-body"/>
<line x1="912.90" y1="868.85" x2="912.90" y2="877.49" class="down-wick"/>
<rect x="910.49" y="871.13" width="4.83" height="1.88" class="down-body"/>
<line x1="920.33" y1="874.36" x2="920.33" y2="879.40" class="up-wick"/>
<rect x="917.92" y="874.88" width="4.83" height="1.00" class="up-body"/>
<line x1="927.76" y1="888.94" x2="927.76" y2="899.82" class="down-wick"/>
<rect x="925.34" y="889.54" width="4.83" height="5.54" class="down-body"/>
<line x1="935.18" y1="882.22" x2="935.18" y2="890.34" class="up-wick"/>
<rect x="932.77" y="886.16" width="4.83" height="3.57" class="up-body"/>
<line x1="942.61" y1="882.65" x2="942.61" y2="892.98" class="down-wick"/>
<rect x="940.20" y="883.13" width="4.83" height="7.82" class="down-body"/>
<line x1="950.04" y1="881.13" x2="950.04" y2="888.59" class="down-wick"/>
<rect x="947.62" y="883.26" width="4.83" height="1.79" class="down-body"/>
<line x1="957.46" y1="881.89" x2="957.46" y2="890.91" class="up-wick"/>
<rect x="955.05" y="881.89" width="4.83" height="4.28" class="up-body"/>
<line x1="964.89" y1="881.94" x2="964.89" y2="892.19" class="down-wick"/>
<rect x="962.48" y="881.96" width="4.83" height="6.00" class="down-body"/>
<line x1="972.32" y1="882.00" x2="972.32" y2="887.26" class="down-wick"/>
<rect x="969.90" y="885.95" width="4.83" height="1.18" class="down-body"/>
<line x1="979.74" y1="880.92" x2="979.74" y2="885.68" class="up-wick"/>
<rect x="977.33" y="882.41" width="4.83" height="3.14" class="up-body"/>
<line x1="987.17" y1="873.56" x2="987.17" y2="881.81" class="down-wick"/>
<rect x="984.76" y="874.77" width="4.83" height="5.05" class="down-body"/>
<line x1="994.60" y1="878.18" x2="994.60" y2="881.95" class="up-wick"/>
<rect x="992.18" y="879.15" width="4.83" height="1.25" class="up-body"/>
<line x1="1002.02" y1="876.50" x2="1002.02" y2="880.08" class="up-wick"/>
<rect x="999.61" y="876.79" width="4.83" height="1.00" class="up-body"/>
<line x1="1009.45" y1="874.14" x2="1009.45" y2="878.06" class="up-wick"/>
<rect x="1007.03" y="874.85" width="4.83" height="1.72" class="up-body"/>
<line x1="1016.88" y1="868.38" x2="1016.88" y2="875.92" class="up-wick"/>
<rect x="1014.46" y="868.50" width="4.83" height="6.03" class="up-body"/>
<line x1="1024.30" y1="875.00" x2="1024.30" y2="882.41" class="down-wick"/>
<rect x="1021.89" y="877.91" width="4.83" height="3.90" class="down-body"/>
<line x1="1031.73" y1="874.86" x2="1031.73" y2="879.44" class="down-wick"/>
<rect x="1029.31" y="874.92" width="4.83" height="3.99" class="down-body"/>
<line x1="1039.15" y1="876.92" x2="1039.15" y2="881.51" class="up-wick"/>
<rect x="1036.74" y="877.19" width="4.83" height="3.01" class="up-body"/>
<line x1="1046.58" y1="874.79" x2="1046.58" y2="878.64" class="up-wick"/>
<rect x="1044.17" y="876.63" width="4.83" height="1.00" class="up-body"/>
<line x1="1054.01" y1="868.98" x2="1054.01" y2="872.05" class="down-wick"/>
<rect x="1051.59" y="870.14" width="4.83" height="1.00" class="down-body"/>
<line x1="1061.43" y1="859.24" x2="1061.43" y2="863.93" class="down-wick"/>
<rect x="1059.02" y="861.10" width="4.83" height="1.26" class="down-body"/>
<line x1="1068.86" y1="861.26" x2="1068.86" y2="866.10" class="down-wick"/>
<rect x="1066.45" y="862.45" width="4.83" height="1.00" class="down-body"/>
<line x1="1076.29" y1="860.21" x2="1076.29" y2="862.59" class="down-wick"/>
<rect x="1073.87" y="860.92" width="4.83" height="1.35" class="down-body"/>
<line x1="70" y1="949.60" x2="1080" y2="949.60" class="number-line"/>
<text x="1076" y="945.60" text-anchor="end" class="level-label">round 4820.00</text>
<line x1="70" y1="949.60" x2="1080" y2="949.60" class="entry-line"/>
<text x="1076" y="945.60" text-anchor="end" class="level-label">entry level 4820.00</text>
<text x="70" y="1056" class="axis-label">2026-02-03 05:00:00+00:00 to 2026-02-03 09:30:00+00:00</text>
<text x="1080" y="1056" text-anchor="end" class="axis-label">4740.01 - 4913.74</text>
</svg>