<svg xmlns="http://www.w3.org/2000/svg" width="1120" height="1054" viewBox="0 0 1120 1054">
<style>
text{font-family:Arial,Helvetica,sans-serif}.title{font-size:21px;font-weight:700;fill:#1f2937}.subtitle{font-size:12px;fill:#4b5563}.panel-title{font-size:15px;font-weight:700;fill:#111827}.muted{font-size:13px;fill:#6b7280}.plot-bg{fill:#f8fafc;stroke:#cbd5e1;stroke-width:1}.up-body{fill:#15803d;stroke:#14532d;stroke-width:.8}.down-body{fill:#b91c1c;stroke:#7f1d1d;stroke-width:.8}.up-wick{stroke:#14532d;stroke-width:1}.down-wick{stroke:#7f1d1d;stroke-width:1}.sweep-line{stroke:#7c3aed;stroke-width:1.6;stroke-dasharray:6 4}.number-line{stroke:#0f766e;stroke-width:1.4;stroke-dasharray:3 4}.entry-line{stroke:#2563eb;stroke-width:1.4}.sl-line{stroke:#dc2626;stroke-width:1.4}.tp-line{stroke:#16a34a;stroke-width:1.4}.level-label,.axis-label{font-size:11px;fill:#374151}
</style>
<text x="28" y="28" class="title">Adelin v2 visual review sample sample_009</text>
<text x="28" y="48" class="subtitle">Candidate windows are for visual labeling only and are not trade signals.</text>
<text x="560" y="48" class="subtitle" text-anchor="middle">LARGE_LOWER_WICK_REVERSAL_VISUAL_CANDIDATE | PRE_ANCHOR_SWEEP_EXTREME_CANDIDATE</text>
<text x="70" y="82" class="panel-title">H1 liquidity context</text>
<rect x="70" y="96" width="1010" height="192" class="plot-bg"/>
<line x1="80.98" y1="254.64" x2="80.98" y2="263.94" class="down-wick"/>
<rect x="76.98" y="255.52" width="8.00" height="8.00" class="down-body"/>
<line x1="102.93" y1="260.88" x2="102.93" y2="270.00" class="down-wick"/>
<rect x="98.93" y="263.55" width="8.00" height="6.27" class="down-body"/>
<line x1="124.89" y1="265.69" x2="124.89" y2="271.03" class="up-wick"/>
<rect x="120.89" y="268.07" width="8.00" height="1.74" class="up-body"/>
<line x1="146.85" y1="265.53" x2="146.85" y2="272.42" class="down-wick"/>
<rect x="142.85" y="268.07" width="8.00" height="1.87" class="down-body"/>
<line x1="168.80" y1="266.63" x2="168.80" y2="274.76" class="up-wick"/>
<rect x="164.80" y="268.81" width="8.00" height="1.13" class="up-body"/>
<line x1="190.76" y1="263.48" x2="190.76" y2="272.16" class="up-wick"/>
<rect x="186.76" y="263.50" width="8.00" height="5.31" class="up-body"/>
<line x1="212.72" y1="260.13" x2="212.72" y2="265.27" class="up-wick"/>
<rect x="208.72" y="262.33" width="8.00" height="1.18" class="up-body"/>
<line x1="234.67" y1="227.26" x2="234.67" y2="262.83" class="up-wick"/>
<rect x="230.67" y="238.80" width="8.00" height="23.52" class="up-body"/>
<line x1="256.63" y1="229.95" x2="256.63" y2="244.87" class="up-wick"/>
<rect x="252.63" y="238.39" width="8.00" height="1.00" class="up-body"/>
<line x1="278.59" y1="223.36" x2="278.59" y2="244.30" class="up-wick"/>
<rect x="274.59" y="227.91" width="8.00" height="10.48" class="up-body"/>
<line x1="300.54" y1="215.78" x2="300.54" y2="239.57" class="down-wick"/>
<rect x="296.54" y="227.91" width="8.00" height="6.94" class="down-body"/>
<line x1="322.50" y1="229.60" x2="322.50" y2="240.34" class="up-wick"/>
<rect x="318.50" y="231.15" width="8.00" height="3.58" class="up-body"/>
<line x1="344.46" y1="223.09" x2="344.46" y2="239.16" class="up-wick"/>
<rect x="340.46" y="224.17" width="8.00" height="6.98" class="up-body"/>
<line x1="366.41" y1="219.49" x2="366.41" y2="227.47" class="up-wick"/>
<rect x="362.41" y="221.02" width="8.00" height="3.15" class="up-body"/>
<line x1="388.37" y1="210.81" x2="388.37" y2="222.06" class="up-wick"/>
<rect x="384.37" y="212.19" width="8.00" height="8.83" class="up-body"/>
<line x1="410.33" y1="200.55" x2="410.33" y2="216.34" class="up-wick"/>
<rect x="406.33" y="202.05" width="8.00" height="10.15" class="up-body"/>
<line x1="432.28" y1="126.26" x2="432.28" y2="186.17" class="up-wick"/>
<rect x="428.28" y="130.51" width="8.00" height="15.81" class="up-body"/>
<line x1="454.24" y1="129.71" x2="454.24" y2="161.02" class="down-wick"/>
<rect x="450.24" y="130.51" width="8.00" height="26.17" class="down-body"/>
<line x1="476.20" y1="156.59" x2="476.20" y2="185.94" class="down-wick"/>
<rect x="472.20" y="156.75" width="8.00" height="14.73" class="down-body"/>
<line x1="498.15" y1="153.78" x2="498.15" y2="176.93" class="up-wick"/>
<rect x="494.15" y="157.31" width="8.00" height="14.18" class="up-body"/>
<line x1="520.11" y1="143.82" x2="520.11" y2="158.74" class="up-wick"/>
<rect x="516.11" y="144.10" width="8.00" height="13.21" class="up-body"/>
<line x1="542.07" y1="143.61" x2="542.07" y2="158.14" class="down-wick"/>
<rect x="538.07" y="144.10" width="8.00" height="6.96" class="down-body"/>
<line x1="564.02" y1="144.21" x2="564.02" y2="161.19" class="up-wick"/>
<rect x="560.02" y="144.35" width="8.00" height="6.70" class="up-body"/>
<line x1="585.98" y1="128.65" x2="585.98" y2="146.08" class="up-wick"/>
<rect x="581.98" y="130.18" width="8.00" height="14.18" class="up-body"/>
<line x1="607.93" y1="109.24" x2="607.93" y2="131.92" class="up-wick"/>
<rect x="603.93" y="116.60" width="8.00" height="13.58" class="up-body"/>
<line x1="629.89" y1="110.91" x2="629.89" y2="127.82" class="down-wick"/>
<rect x="625.89" y="116.60" width="8.00" height="9.28" class="down-body"/>
<line x1="651.85" y1="120.10" x2="651.85" y2="131.15" class="down-wick"/>
<rect x="647.85" y="125.88" width="8.00" height="1.31" class="down-body"/>
<line x1="673.80" y1="121.39" x2="673.80" y2="135.70" class="down-wick"/>
<rect x="669.80" y="127.13" width="8.00" height="1.80" class="down-body"/>
<line x1="695.76" y1="121.98" x2="695.76" y2="138.14" class="down-wick"/>
<rect x="691.76" y="128.93" width="8.00" height="2.68" class="down-body"/>
<line x1="717.72" y1="122.77" x2="717.72" y2="135.92" class="up-wick"/>
<rect x="713.72" y="123.81" width="8.00" height="7.85" class="up-body"/>
<line x1="739.67" y1="110.92" x2="739.67" y2="133.81" class="down-wick"/>
<rect x="735.67" y="123.81" width="8.00" height="2.16" class="down-body"/>
<line x1="761.63" y1="125.09" x2="761.63" y2="183.44" class="down-wick"/>
<rect x="757.63" y="125.97" width="8.00" height="39.86" class="down-body"/>
<line x1="783.59" y1="155.71" x2="783.59" y2="182.53" class="down-wick"/>
<rect x="779.59" y="165.83" width="8.00" height="11.73" class="down-body"/>
<line x1="805.54" y1="177.75" x2="805.54" y2="213.94" class="down-wick"/>
<rect x="801.54" y="177.75" width="8.00" height="16.72" class="down-body"/>
<line x1="827.50" y1="174.39" x2="827.50" y2="196.58" class="up-wick"/>
<rect x="823.50" y="183.49" width="8.00" height="10.98" class="up-body"/>
<line x1="849.46" y1="176.99" x2="849.46" y2="194.89" class="up-wick"/>
<rect x="845.46" y="177.75" width="8.00" height="5.71" class="up-body"/>
<line x1="871.41" y1="165.52" x2="871.41" y2="178.85" class="up-wick"/>
<rect x="867.41" y="167.91" width="8.00" height="9.85" class="up-body"/>
<line x1="893.37" y1="157.39" x2="893.37" y2="169.27" class="up-wick"/>
<rect x="889.37" y="166.52" width="8.00" height="1.39" class="up-body"/>
<line x1="915.33" y1="161.24" x2="915.33" y2="174.34" class="down-wick"/>
<rect x="911.33" y="166.52" width="8.00" height="7.59" class="down-body"/>
<line x1="937.28" y1="156.86" x2="937.28" y2="174.11" class="up-wick"/>
<rect x="933.28" y="157.62" width="8.00" height="16.49" class="up-body"/>
<line x1="959.24" y1="146.94" x2="959.24" y2="163.61" class="up-wick"/>
<rect x="955.24" y="154.78" width="8.00" height="2.84" class="up-body"/>
<line x1="981.20" y1="135.26" x2="981.20" y2="162.94" class="down-wick"/>
<rect x="977.20" y="154.78" width="8.00" height="7.25" class="down-body"/>
<line x1="1003.15" y1="143.04" x2="1003.15" y2="166.18" class="up-wick"/>
<rect x="999.15" y="143.82" width="8.00" height="18.21" class="up-body"/>
<line x1="1025.11" y1="139.42" x2="1025.11" y2="148.93" class="up-wick"/>
<rect x="1021.11" y="143.58" width="8.00" height="1.00" class="up-body"/>
<line x1="1047.07" y1="138.08" x2="1047.07" y2="148.73" class="down-wick"/>
<rect x="1043.07" y="143.57" width="8.00" height="4.02" class="down-body"/>
<line x1="1069.02" y1="143.58" x2="1069.02" y2="184.45" class="down-wick"/>
<rect x="1065.02" y="147.58" width="8.00" height="27.77" class="down-body"/>
<line x1="70" y1="153.26" x2="1080" y2="153.26" class="sweep-line"/>
<text x="1076" y="149.26" text-anchor="end" class="level-label">sweep 5352.63</text>
<line x1="70" y1="158.14" x2="1080" y2="158.14" class="entry-line"/>
<text x="1076" y="154.14" text-anchor="end" class="level-label">entry level 5345.23</text>
<text x="70" y="306" class="axis-label">2026-02-27 08:00:00+00:00 to 2026-03-03 07:00:00+00:00</text>
<text x="1080" y="306" text-anchor="end" class="axis-label">5148.66 - 5439.30</text>
<text x="70" y="332" class="panel-title">M15 liquidity / reaction context</text>
<rect x="70" y="346" width="1010" height="192" class="plot-bg"/>
<line x1="80.10" y1="415.94" x2="80.10" y2="524.76" class="down-wick"/>
<rect x="76.10" y="439.01" width="8.00" height="21.78" class="down-body"/>
<line x1="100.30" y1="445.39" x2="100.30" y2="466.40" class="up-wick"/>
<rect x="96.30" y="450.69" width="8.00" height="10.12" class="up-body"/>
<line x1="120.50" y1="395.86" x2="120.50" y2="453.49" class="up-wick"/>
<rect x="116.50" y="411.68" width="8.00" height="39.02" class="up-body"/>
<line x1="140.70" y1="399.42" x2="140.70" y2="423.63" class="up-wick"/>
<rect x="136.70" y="404.99" width="8.00" height="6.69" class="up-body"/>
<line x1="160.90" y1="403.28" x2="160.90" y2="437.60" class="down-wick"/>
<rect x="156.90" y="404.99" width="8.00" height="15.73" class="down-body"/>
<line x1="181.10" y1="420.56" x2="181.10" y2="459.13" class="down-wick"/>
<rect x="177.10" y="420.73" width="8.00" height="16.25" class="down-body"/>
<line x1="201.30" y1="424.30" x2="201.30" y2="444.49" class="up-wick"/>
<rect x="197.30" y="436.05" width="8.00" height="1.00" class="up-body"/>
<line x1="221.50" y1="434.25" x2="221.50" y2="470.65" class="down-wick"/>
<rect x="217.50" y="436.05" width="8.00" height="25.26" class="down-body"/>
<line x1="241.70" y1="461.12" x2="241.70" y2="506.00" class="down-wick"/>
<rect x="237.70" y="461.47" width="8.00" height="9.89" class="down-body"/>
<line x1="261.90" y1="463.04" x2="261.90" y2="524.28" class="down-wick"/>
<rect x="257.90" y="471.39" width="8.00" height="46.48" class="down-body"/>
<line x1="282.10" y1="473.16" x2="282.10" y2="520.51" class="up-wick"/>
<rect x="278.10" y="481.12" width="8.00" height="36.73" class="up-body"/>
<line x1="302.30" y1="474.51" x2="302.30" y2="497.33" class="down-wick"/>
<rect x="298.30" y="481.12" width="8.00" height="12.04" class="down-body"/>
<line x1="322.50" y1="478.24" x2="322.50" y2="504.89" class="up-wick"/>
<rect x="318.50" y="488.73" width="8.00" height="4.43" class="up-body"/>
<line x1="342.70" y1="477.23" x2="342.70" y2="491.40" class="up-wick"/>
<rect x="338.70" y="484.32" width="8.00" height="4.02" class="up-body"/>
<line x1="362.90" y1="455.31" x2="362.90" y2="488.83" class="up-wick"/>
<rect x="358.90" y="456.25" width="8.00" height="28.07" class="up-body"/>
<line x1="383.10" y1="455.08" x2="383.10" y2="470.68" class="down-wick"/>
<rect x="379.10" y="456.90" width="8.00" height="5.76" class="down-body"/>
<line x1="403.30" y1="446.98" x2="403.30" y2="465.74" class="up-wick"/>
<rect x="399.30" y="450.36" width="8.00" height="12.29" class="up-body"/>
<line x1="423.50" y1="444.12" x2="423.50" y2="458.13" class="up-wick"/>
<rect x="419.50" y="449.68" width="8.00" height="1.00" class="up-body"/>
<line x1="443.70" y1="436.36" x2="443.70" y2="452.55" class="up-wick"/>
<rect x="439.70" y="440.54" width="8.00" height="9.14" class="up-body"/>
<line x1="463.90" y1="433.65" x2="463.90" y2="443.81" class="up-wick"/>
<rect x="459.90" y="434.25" width="8.00" height="6.15" class="up-body"/>
<line x1="484.10" y1="433.19" x2="484.10" y2="449.71" class="down-wick"/>
<rect x="480.10" y="434.25" width="8.00" height="14.82" class="down-body"/>
<line x1="504.30" y1="434.84" x2="504.30" y2="449.34" class="up-wick"/>
<rect x="500.30" y="438.60" width="8.00" height="10.48" class="up-body"/>
<line x1="524.50" y1="437.07" x2="524.50" y2="464.46" class="down-wick"/>
<rect x="520.50" y="438.60" width="8.00" height="13.16" class="down-body"/>
<line x1="544.70" y1="445.67" x2="544.70" y2="456.55" class="up-wick"/>
<rect x="540.70" y="449.21" width="8.00" height="2.56" class="up-body"/>
<line x1="564.90" y1="449.04" x2="564.90" y2="463.85" class="down-wick"/>
<rect x="560.90" y="449.21" width="8.00" height="8.26" class="down-body"/>
<line x1="585.10" y1="451.67" x2="585.10" y2="471.02" class="up-wick"/>
<rect x="581.10" y="456.46" width="8.00" height="1.01" class="up-body"/>
<line x1="605.30" y1="438.21" x2="605.30" y2="459.32" class="up-wick"/>
<rect x="601.30" y="442.62" width="8.00" height="13.84" class="up-body"/>
<line x1="625.50" y1="434.47" x2="625.50" y2="444.45" class="up-wick"/>
<rect x="621.50" y="434.79" width="8.00" height="7.58" class="up-body"/>
<line x1="645.70" y1="414.96" x2="645.70" y2="438.50" class="up-wick"/>
<rect x="641.70" y="421.99" width="8.00" height="12.79" class="up-body"/>
<line x1="665.90" y1="413.04" x2="665.90" y2="423.98" class="up-wick"/>
<rect x="661.90" y="414.03" width="8.00" height="7.96" class="up-body"/>
<line x1="686.10" y1="410.78" x2="686.10" y2="423.17" class="down-wick"/>
<rect x="682.10" y="414.03" width="8.00" height="7.18" class="down-body"/>
<line x1="706.30" y1="401.00" x2="706.30" y2="421.24" class="up-wick"/>
<rect x="702.30" y="404.28" width="8.00" height="16.94" class="up-body"/>
<line x1="726.50" y1="376.81" x2="726.50" y2="408.04" class="up-wick"/>
<rect x="722.50" y="378.05" width="8.00" height="26.24" class="up-body"/>
<line x1="746.70" y1="359.24" x2="746.70" y2="380.31" class="up-wick"/>
<rect x="742.70" y="374.39" width="8.00" height="3.65" class="up-body"/>
<line x1="766.90" y1="369.97" x2="766.90" y2="383.55" class="down-wick"/>
<rect x="762.90" y="374.39" width="8.00" height="7.92" class="down-body"/>
<line x1="787.10" y1="366.04" x2="787.10" y2="383.12" class="up-wick"/>
<rect x="783.10" y="375.08" width="8.00" height="7.45" class="up-body"/>
<line x1="807.30" y1="368.03" x2="807.30" y2="382.91" class="up-wick"/>
<rect x="803.30" y="372.87" width="8.00" height="2.20" class="up-body"/>
<line x1="827.50" y1="363.69" x2="827.50" y2="383.39" class="up-wick"/>
<rect x="823.50" y="364.20" width="8.00" height="8.67" class="up-body"/>
<line x1="847.70" y1="362.82" x2="847.70" y2="391.63" class="down-wick"/>
<rect x="843.70" y="364.20" width="8.00" height="19.70" class="down-body"/>
<line x1="867.90" y1="370.80" x2="867.90" y2="399.21" class="down-wick"/>
<rect x="863.90" y="383.90" width="8.00" height="11.14" class="down-body"/>
<line x1="888.10" y1="386.42" x2="888.10" y2="401.37" class="up-wick"/>
<rect x="884.10" y="394.14" width="8.00" height="1.00" class="up-body"/>
<line x1="908.30" y1="388.41" x2="908.30" y2="406.37" class="down-wick"/>
<rect x="904.30" y="394.14" width="8.00" height="1.00" class="down-body"/>
<line x1="928.50" y1="382.61" x2="928.50" y2="394.79" class="up-wick"/>
<rect x="924.50" y="391.28" width="8.00" height="2.87" class="up-body"/>
<line x1="948.70" y1="390.35" x2="948.70" y2="404.68" class="down-wick"/>
<rect x="944.70" y="391.28" width="8.00" height="6.58" class="down-body"/>
<line x1="968.90" y1="394.35" x2="968.90" y2="416.18" class="down-wick"/>
<rect x="964.90" y="397.73" width="8.00" height="2.50" class="down-body"/>
<line x1="989.10" y1="397.35" x2="989.10" y2="409.80" class="down-wick"/>
<rect x="985.10" y="400.18" width="8.00" height="1.00" class="down-body"/>
<line x1="1009.30" y1="385.47" x2="1009.30" y2="405.04" class="up-wick"/>
<rect x="1005.30" y="386.05" width="8.00" height="14.65" class="up-body"/>
<line x1="1029.50" y1="385.38" x2="1029.50" y2="412.81" class="down-wick"/>
<rect x="1025.50" y="386.05" width="8.00" height="15.56" class="down-body"/>
<line x1="1049.70" y1="393.97" x2="1049.70" y2="411.68" class="down-wick"/>
<rect x="1045.70" y="401.61" width="8.00" height="1.21" class="down-body"/>
<line x1="1069.90" y1="390.61" x2="1069.90" y2="404.17" class="up-wick"/>
<rect x="1065.90" y="400.18" width="8.00" height="2.64" class="up-body"/>
<line x1="70" y1="453.95" x2="1080" y2="453.95" class="sweep-line"/>
<text x="1076" y="449.95" text-anchor="end" class="level-label">sweep 5352.63</text>
<line x1="70" y1="464.46" x2="1080" y2="464.46" class="entry-line"/>
<text x="1076" y="460.46" text-anchor="end" class="level-label">entry level 5345.23</text>
<text x="70" y="556" class="axis-label">2026-03-02 01:00:00+00:00 to 2026-03-02 13:15:00+00:00</text>
<text x="1080" y="556" text-anchor="end" class="axis-label">5293.49 - 5428.58</text>
<text x="70" y="582" class="panel-title">M5 reaction / execution context</text>
<rect x="70" y="596" width="1010" height="192" class="plot-bg"/>
<line x1="79.18" y1="724.77" x2="79.18" y2="734.47" class="up-wick"/>
<rect x="75.18" y="728.64" width="8.00" height="1.00" class="up-body"/>
<line x1="97.55" y1="725.32" x2="97.55" y2="732.64" class="up-wick"/>
<rect x="93.55" y="726.79" width="8.00" height="1.77" class="up-body"/>
<line x1="115.91" y1="719.42" x2="115.91" y2="729.28" class="up-wick"/>
<rect x="111.91" y="720.31" width="8.00" height="6.52" class="up-body"/>
<line x1="134.27" y1="718.75" x2="134.27" y2="733.76" class="down-wick"/>
<rect x="130.27" y="720.31" width="8.00" height="13.30" class="down-body"/>
<line x1="152.64" y1="725.99" x2="152.64" y2="743.21" class="down-wick"/>
<rect x="148.64" y="733.61" width="8.00" height="6.40" class="down-body"/>
<line x1="171.00" y1="729.11" x2="171.00" y2="742.72" class="down-wick"/>
<rect x="167.00" y="740.01" width="8.00" height="2.25" class="down-body"/>
<line x1="189.36" y1="723.38" x2="189.36" y2="742.66" class="up-wick"/>
<rect x="185.36" y="724.20" width="8.00" height="18.06" class="up-body"/>
<line x1="207.73" y1="721.19" x2="207.73" y2="728.45" class="down-wick"/>
<rect x="203.73" y="724.20" width="8.00" height="1.30" class="down-body"/>
<line x1="226.09" y1="722.14" x2="226.09" y2="728.01" class="down-wick"/>
<rect x="222.09" y="725.51" width="8.00" height="1.24" class="down-body"/>
<line x1="244.45" y1="724.50" x2="244.45" y2="736.68" class="down-wick"/>
<rect x="240.45" y="726.75" width="8.00" height="5.26" class="down-body"/>
<line x1="262.82" y1="731.59" x2="262.82" y2="765.06" class="down-wick"/>
<rect x="258.82" y="732.03" width="8.00" height="22.14" class="down-body"/>
<line x1="281.18" y1="744.13" x2="281.18" y2="761.54" class="up-wick"/>
<rect x="277.18" y="746.24" width="8.00" height="7.96" class="up-body"/>
<line x1="299.55" y1="743.63" x2="299.55" y2="753.33" class="down-wick"/>
<rect x="295.55" y="746.26" width="8.00" height="1.00" class="down-body"/>
<line x1="317.91" y1="737.23" x2="317.91" y2="749.40" class="up-wick"/>
<rect x="313.91" y="737.50" width="8.00" height="9.64" class="up-body"/>
<line x1="336.27" y1="737.46" x2="336.27" y2="743.69" class="down-wick"/>
<rect x="332.27" y="737.50" width="8.00" height="4.97" class="down-body"/>
<line x1="354.64" y1="742.22" x2="354.64" y2="756.24" class="down-wick"/>
<rect x="350.64" y="742.47" width="8.00" height="10.38" class="down-body"/>
<line x1="373.00" y1="751.92" x2="373.00" y2="761.14" class="down-wick"/>
<rect x="369.00" y="752.97" width="8.00" height="7.47" class="down-body"/>
<line x1="391.36" y1="744.83" x2="391.36" y2="764.15" class="up-wick"/>
<rect x="387.36" y="754.70" width="8.00" height="5.77" class="up-body"/>
<line x1="409.73" y1="754.30" x2="409.73" y2="774.76" class="down-wick"/>
<rect x="405.73" y="754.70" width="8.00" height="1.79" class="down-body"/>
<line x1="428.09" y1="751.19" x2="428.09" y2="758.83" class="up-wick"/>
<rect x="424.09" y="755.04" width="8.00" height="1.47" class="up-body"/>
<line x1="446.45" y1="746.11" x2="446.45" y2="755.75" class="up-wick"/>
<rect x="442.45" y="753.21" width="8.00" height="1.83" class="up-body"/>
<line x1="464.82" y1="737.34" x2="464.82" y2="757.44" class="up-wick"/>
<rect x="460.82" y="744.41" width="8.00" height="8.80" class="up-body"/>
<line x1="483.18" y1="735.40" x2="483.18" y2="748.05" class="up-wick"/>
<rect x="479.18" y="736.89" width="8.00" height="7.51" class="up-body"/>
<line x1="501.55" y1="726.18" x2="501.55" y2="741.08" class="up-wick"/>
<rect x="497.55" y="732.71" width="8.00" height="4.21" class="up-body"/>
<line x1="519.91" y1="723.00" x2="519.91" y2="735.42" class="up-wick"/>
<rect x="515.91" y="726.60" width="8.00" height="5.72" class="up-body"/>
<line x1="538.27" y1="721.00" x2="538.27" y2="728.29" class="down-wick"/>
<rect x="534.27" y="726.60" width="8.00" height="1.00" class="down-body"/>
<line x1="556.64" y1="720.65" x2="556.64" y2="730.64" class="up-wick"/>
<rect x="552.64" y="721.11" width="8.00" height="6.34" class="up-body"/>
<line x1="575.00" y1="719.97" x2="575.00" y2="726.60" class="down-wick"/>
<rect x="571.00" y="721.11" width="8.00" height="1.75" class="down-body"/>
<line x1="593.36" y1="691.96" x2="593.36" y2="724.71" class="up-wick"/>
<rect x="589.36" y="699.96" width="8.00" height="22.90" class="up-body"/>
<line x1="611.73" y1="691.75" x2="611.73" y2="705.20" class="down-wick"/>
<rect x="607.73" y="699.98" width="8.00" height="2.19" class="down-body"/>
<line x1="630.09" y1="694.63" x2="630.09" y2="705.11" class="up-wick"/>
<rect x="626.09" y="696.57" width="8.00" height="5.60" class="up-body"/>
<line x1="648.45" y1="692.78" x2="648.45" y2="698.17" class="up-wick"/>
<rect x="644.45" y="694.10" width="8.00" height="2.46" class="up-body"/>
<line x1="666.82" y1="688.91" x2="666.82" y2="697.72" class="up-wick"/>
<rect x="662.82" y="690.38" width="8.00" height="3.73" class="up-body"/>
<line x1="685.18" y1="686.78" x2="685.18" y2="702.67" class="down-wick"/>
<rect x="681.18" y="690.38" width="8.00" height="4.38" class="down-body"/>
<line x1="703.55" y1="685.56" x2="703.55" y2="702.67" class="down-wick"/>
<rect x="699.55" y="694.78" width="8.00" height="1.33" class="down-body"/>
<line x1="721.91" y1="694.13" x2="721.91" y2="703.91" class="down-wick"/>
<rect x="717.91" y="696.10" width="8.00" height="4.90" class="down-body"/>
<line x1="740.27" y1="676.57" x2="740.27" y2="701.05" class="up-wick"/>
<rect x="736.27" y="682.23" width="8.00" height="18.80" class="up-body"/>
<line x1="758.64" y1="676.00" x2="758.64" y2="687.39" class="up-wick"/>
<rect x="754.64" y="678.95" width="8.00" height="3.28" class="up-body"/>
<line x1="777.00" y1="671.08" x2="777.00" y2="681.98" class="up-wick"/>
<rect x="773.00" y="675.94" width="8.00" height="3.01" class="up-body"/>
<line x1="795.36" y1="670.09" x2="795.36" y2="681.50" class="up-wick"/>
<rect x="791.36" y="673.86" width="8.00" height="2.08" class="up-body"/>
<line x1="813.73" y1="647.78" x2="813.73" y2="674.85" class="up-wick"/>
<rect x="809.73" y="648.05" width="8.00" height="25.80" class="up-body"/>
<line x1="832.09" y1="635.26" x2="832.09" y2="657.88" class="up-wick"/>
<rect x="828.09" y="637.09" width="8.00" height="10.97" class="up-body"/>
<line x1="850.45" y1="610.36" x2="850.45" y2="640.43" class="up-wick"/>
<rect x="846.45" y="612.86" width="8.00" height="24.23" class="up-body"/>
<line x1="868.82" y1="609.24" x2="868.82" y2="621.62" class="down-wick"/>
<rect x="864.82" y="612.86" width="8.00" height="8.25" class="down-body"/>
<line x1="887.18" y1="613.14" x2="887.18" y2="631.68" class="down-wick"/>
<rect x="883.18" y="621.11" width="8.00" height="10.57" class="down-body"/>
<line x1="905.55" y1="625.93" x2="905.55" y2="634.77" class="up-wick"/>
<rect x="901.55" y="630.42" width="8.00" height="1.26" class="up-body"/>
<line x1="923.91" y1="625.13" x2="923.91" y2="642.81" class="down-wick"/>
<rect x="919.91" y="630.42" width="8.00" height="7.49" class="down-body"/>
<line x1="942.27" y1="633.38" x2="942.27" y2="645.23" class="down-wick"/>
<rect x="938.27" y="637.91" width="8.00" height="5.49" class="down-body"/>
<line x1="960.64" y1="619.30" x2="960.64" y2="644.01" class="up-wick"/>
<rect x="956.64" y="625.68" width="8.00" height="18.04" class="up-body"/>
<line x1="979.00" y1="625.17" x2="979.00" y2="638.94" class="down-wick"/>
<rect x="975.00" y="626.21" width="8.00" height="7.58" class="down-body"/>
<line x1="997.36" y1="631.93" x2="997.36" y2="644.60" class="up-wick"/>
<rect x="993.36" y="632.69" width="8.00" height="1.09" class="up-body"/>
<line x1="1015.73" y1="625.20" x2="1015.73" y2="644.29" class="down-wick"/>
<rect x="1011.73" y="632.69" width="8.00" height="5.72" class="down-body"/>
<line x1="1034.09" y1="623.03" x2="1034.09" y2="642.03" class="up-wick"/>
<rect x="1030.09" y="624.02" width="8.00" height="14.40" class="up-body"/>
<line x1="1052.45" y1="622.25" x2="1052.45" y2="635.53" class="down-wick"/>
<rect x="1048.45" y="624.02" width="8.00" height="5.41" class="down-body"/>
<line x1="1070.82" y1="626.29" x2="1070.82" y2="645.00" class="down-wick"/>
<rect x="1066.82" y="629.43" width="8.00" height="9.07" class="down-body"/>
<line x1="70" y1="749.48" x2="1080" y2="749.48" class="sweep-line"/>
<text x="1076" y="745.48" text-anchor="end" class="level-label">sweep 5352.63</text>
<line x1="70" y1="765.06" x2="1080" y2="765.06" class="entry-line"/>
<text x="1076" y="761.06" text-anchor="end" class="level-label">entry level 5345.23</text>
<text x="70" y="806" class="axis-label">2026-03-02 05:45:00+00:00 to 2026-03-02 10:15:00+00:00</text>
<text x="1080" y="806" text-anchor="end" class="axis-label">5334.33 - 5425.55</text>
<text x="70" y="832" class="panel-title">M1 execution window</text>
<rect x="70" y="846" width="1010" height="192" class="plot-bg"/>
<line x1="73.71" y1="975.09" x2="73.71" y2="981.43" class="down-wick"/>
<rect x="71.30" y="979.83" width="4.83" height="1.35" class="down-body"/>
<line x1="81.14" y1="976.44" x2="81.14" y2="983.96" class="up-wick"/>
<rect x="78.73" y="976.55" width="4.83" height="7.42" class="up-body"/>
<line x1="88.57" y1="977.23" x2="88.57" y2="980.17" class="down-wick"/>
<rect x="86.15" y="978.39" width="4.83" height="1.00" class="down-body"/>
<line x1="95.99" y1="977.55" x2="95.99" y2="983.11" class="down-wick"/>
<rect x="93.58" y="979.23" width="4.83" height="1.07" class="down-body"/>
<line x1="103.42" y1="975.65" x2="103.42" y2="977.81" class="up-wick"/>
<rect x="101.01" y="976.76" width="4.83" height="1.05" class="up-body"/>
<line x1="110.85" y1="971.66" x2="110.85" y2="979.68" class="up-wick"/>
<rect x="108.43" y="972.24" width="4.83" height="4.95" class="up-body"/>
<line x1="118.27" y1="970.31" x2="118.27" y2="972.22" class="up-wick"/>
<rect x="115.86" y="970.46" width="4.83" height="1.44" class="up-body"/>
<line x1="125.70" y1="969.64" x2="125.70" y2="974.38" class="up-wick"/>
<rect x="123.28" y="970.54" width="4.83" height="2.85" class="up-body"/>
<line x1="133.12" y1="969.21" x2="133.12" y2="976.63" class="down-wick"/>
<rect x="130.71" y="971.68" width="4.83" height="4.54" class="down-body"/>
<line x1="140.55" y1="972.75" x2="140.55" y2="975.54" class="down-wick"/>
<rect x="138.14" y="973.05" width="4.83" height="2.47" class="down-body"/>
<line x1="147.98" y1="978.54" x2="147.98" y2="992.45" class="up-wick"/>
<rect x="145.56" y="979.01" width="4.83" height="5.08" class="up-body"/>
<line x1="155.40" y1="982.96" x2="155.40" y2="990.16" class="down-wick"/>
<rect x="152.99" y="982.96" width="4.83" height="6.77" class="down-body"/>
<line x1="162.83" y1="989.07" x2="162.83" y2="993.80" class="up-wick"/>
<rect x="160.42" y="990.61" width="4.83" height="3.13" class="up-body"/>
<line x1="170.26" y1="985.40" x2="170.26" y2="989.58" class="up-wick"/>
<rect x="167.84" y="985.94" width="4.83" height="1.00" class="up-body"/>
<line x1="177.68" y1="983.26" x2="177.68" y2="989.37" class="down-wick"/>
<rect x="175.27" y="983.47" width="4.83" height="4.80" class="down-body"/>
<line x1="185.11" y1="988.44" x2="185.11" y2="993.31" class="up-wick"/>
<rect x="182.70" y="989.09" width="4.83" height="3.82" class="up-body"/>
<line x1="192.54" y1="984.44" x2="192.54" y2="987.03" class="up-wick"/>
<rect x="190.12" y="984.48" width="4.83" height="1.33" class="up-body"/>
<line x1="199.96" y1="973.67" x2="199.96" y2="985.61" class="up-wick"/>
<rect x="197.55" y="974.51" width="4.83" height="9.93" class="up-body"/>
<line x1="207.39" y1="974.40" x2="207.39" y2="977.98" class="down-wick"/>
<rect x="204.98" y="976.57" width="4.83" height="1.00" class="down-body"/>
<line x1="214.82" y1="971.44" x2="214.82" y2="974.49" class="up-wick"/>
<rect x="212.40" y="973.67" width="4.83" height="1.00" class="up-body"/>
<line x1="222.24" y1="972.41" x2="222.24" y2="977.28" class="down-wick"/>
<rect x="219.83" y="975.84" width="4.83" height="1.03" class="down-body"/>
<line x1="229.67" y1="972.67" x2="229.67" y2="978.07" class="down-wick"/>
<rect x="227.26" y="973.16" width="4.83" height="3.90" class="down-body"/>
<line x1="237.10" y1="975.54" x2="237.10" y2="977.98" class="up-wick"/>
<rect x="234.68" y="977.10" width="4.83" height="1.00" class="up-body"/>
<line x1="244.52" y1="978.86" x2="244.52" y2="984.86" class="up-wick"/>
<rect x="242.11" y="983.26" width="4.83" height="1.46" class="up-body"/>
<line x1="251.95" y1="981.88" x2="251.95" y2="987.22" class="up-wick"/>
<rect x="249.53" y="982.12" width="4.83" height="1.44" class="up-body"/>
<line x1="259.38" y1="982.03" x2="259.38" y2="990.39" class="down-wick"/>
<rect x="256.96" y="982.48" width="4.83" height="6.41" class="down-body"/>
<line x1="266.80" y1="997.70" x2="266.80" y2="1016.12" class="down-wick"/>
<rect x="264.39" y="998.58" width="4.83" height="15.46" class="down-body"/>
<line x1="274.23" y1="1003.15" x2="274.23" y2="1011.68" class="up-wick"/>
<rect x="271.81" y="1005.04" width="4.83" height="2.36" class="up-body"/>
<line x1="281.65" y1="1001.80" x2="281.65" y2="1005.01" class="down-wick"/>
<rect x="279.24" y="1001.89" width="4.83" height="2.02" class="down-body"/>
<line x1="289.08" y1="1000.21" x2="289.08" y2="1007.46" class="up-wick"/>
<rect x="286.67" y="1001.33" width="4.83" height="5.75" class="up-body"/>
<line x1="296.51" y1="994.30" x2="296.51" y2="1000.15" class="down-wick"/>
<rect x="294.09" y="996.98" width="4.83" height="2.62" class="down-body"/>
<line x1="303.93" y1="998.69" x2="303.93" y2="1003.64" class="up-wick"/>
<rect x="301.52" y="1000.06" width="4.83" height="2.38" class="up-body"/>
<line x1="311.36" y1="996.23" x2="311.36" y2="998.93" class="down-wick"/>
<rect x="308.95" y="997.47" width="4.83" height="1.00" class="down-body"/>
<line x1="318.79" y1="994.90" x2="318.79" y2="1000.17" class="up-wick"/>
<rect x="316.37" y="995.52" width="4.83" height="3.07" class="up-body"/>
<line x1="326.21" y1="990.89" x2="326.21" y2="994.10" class="up-wick"/>
<rect x="323.80" y="991.30" width="4.83" height="1.00" class="up-body"/>
<line x1="333.64" y1="988.02" x2="333.64" y2="991.04" class="down-wick"/>
<rect x="331.23" y="988.06" width="4.83" height="2.98" class="down-body"/>
<line x1="341.07" y1="989.13" x2="341.07" y2="991.34" class="down-wick"/>
<rect x="338.65" y="989.26" width="4.83" height="1.71" class="down-body"/>
<line x1="348.49" y1="991.02" x2="348.49" y2="994.12" class="down-wick"/>
<rect x="346.08" y="991.23" width="4.83" height="1.89" class="down-body"/>
<line x1="355.92" y1="996.50" x2="355.92" y2="1000.53" class="down-wick"/>
<rect x="353.51" y="996.50" width="4.83" height="3.58" class="down-body"/>
<line x1="363.35" y1="1000.51" x2="363.35" y2="1006.82" class="up-wick"/>
<rect x="360.93" y="1000.79" width="4.83" height="5.87" class="up-body"/>
<line x1="370.77" y1="1003.30" x2="370.77" y2="1008.98" class="up-wick"/>
<rect x="368.36" y="1003.47" width="4.83" height="1.00" class="up-body"/>
<line x1="378.20" y1="1002.74" x2="378.20" y2="1011.30" class="down-wick"/>
<rect x="375.78" y="1004.09" width="4.83" height="6.77" class="down-body"/>
<line x1="385.62" y1="1006.19" x2="385.62" y2="1012.13" class="down-wick"/>
<rect x="383.21" y="1007.95" width="4.83" height="3.47" class="down-body"/>
<line x1="393.05" y1="1003.04" x2="393.05" y2="1011.36" class="up-wick"/>
<rect x="390.64" y="1004.05" width="4.83" height="6.69" class="up-body"/>
<line x1="400.48" y1="996.31" x2="400.48" y2="1006.88" class="down-wick"/>
<rect x="398.06" y="997.94" width="4.83" height="1.71" class="down-body"/>
<line x1="407.90" y1="1005.16" x2="407.90" y2="1014.45" class="down-wick"/>
<rect x="405.49" y="1005.57" width="4.83" height="7.76" class="down-body"/>
<line x1="415.33" y1="1012.24" x2="415.33" y2="1024.76" class="up-wick"/>
<rect x="412.92" y="1014.96" width="4.83" height="9.56" class="up-body"/>
<line x1="422.76" y1="1007.14" x2="422.76" y2="1014.85" class="up-wick"/>
<rect x="420.34" y="1007.39" width="4.83" height="5.08" class="up-body"/>
<line x1="430.18" y1="1001.99" x2="430.18" y2="1009.73" class="down-wick"/>
<rect x="427.77" y="1004.18" width="4.83" height="4.39" class="down-body"/>
<line x1="437.61" y1="1003.71" x2="437.61" y2="1006.92" class="up-wick"/>
<rect x="435.20" y="1003.92" width="4.83" height="1.00" class="up-body"/>
<line x1="445.04" y1="1001.43" x2="445.04" y2="1006.64" class="up-wick"/>
<rect x="442.62" y="1002.83" width="4.83" height="3.09" class="up-body"/>
<line x1="452.46" y1="999.03" x2="452.46" y2="1004.07" class="up-wick"/>
<rect x="450.05" y="999.14" width="4.83" height="1.63" class="up-body"/>
<line x1="459.89" y1="1001.13" x2="459.89" y2="1006.58" class="down-wick"/>
<rect x="457.48" y="1001.20" width="4.83" height="2.85" class="down-body"/>
<line x1="467.32" y1="1000.79" x2="467.32" y2="1008.36" class="up-wick"/>
<rect x="464.90" y="1001.33" width="4.83" height="2.51" class="up-body"/>
<line x1="474.74" y1="990.63" x2="474.74" y2="1004.52" class="up-wick"/>
<rect x="472.33" y="990.87" width="4.83" height="12.43" class="up-body"/>
<line x1="482.17" y1="991.08" x2="482.17" y2="998.80" class="up-wick"/>
<rect x="479.76" y="992.56" width="4.83" height="2.53" class="up-body"/>
<line x1="489.60" y1="991.34" x2="489.60" y2="995.41" class="up-wick"/>
<rect x="487.18" y="992.65" width="4.83" height="1.00" class="up-body"/>
<line x1="497.02" y1="985.91" x2="497.02" y2="990.12" class="down-wick"/>
<rect x="494.61" y="987.11" width="4.83" height="1.00" class="down-body"/>
<line x1="504.45" y1="983.32" x2="504.45" y2="987.76" class="up-wick"/>
<rect x="502.03" y="983.66" width="4.83" height="2.32" class="up-body"/>
<line x1="511.88" y1="976.52" x2="511.88" y2="984.07" class="up-wick"/>
<rect x="509.46" y="981.78" width="4.83" height="1.14" class="up-body"/>
<line x1="519.30" y1="982.40" x2="519.30" y2="985.94" class="down-wick"/>
<rect x="516.89" y="982.78" width="4.83" height="1.00" class="down-body"/>
<line x1="526.73" y1="976.74" x2="526.73" y2="980.55" class="up-wick"/>
<rect x="524.31" y="978.80" width="4.83" height="1.11" class="up-body"/>
<line x1="534.15" y1="973.46" x2="534.15" y2="977.23" class="down-wick"/>
<rect x="531.74" y="975.41" width="4.83" height="1.54" class="down-body"/>
<line x1="541.58" y1="973.14" x2="541.58" y2="978.67" class="up-wick"/>
<rect x="539.17" y="973.85" width="4.83" height="1.52" class="up-body"/>
<line x1="549.01" y1="971.25" x2="549.01" y2="975.82" class="up-wick"/>
<rect x="546.59" y="973.18" width="4.83" height="1.00" class="up-body"/>
<line x1="556.43" y1="973.33" x2="556.43" y2="978.80" class="up-wick"/>
<rect x="554.02" y="977.28" width="4.83" height="1.00" class="up-body"/>
<line x1="563.86" y1="973.85" x2="563.86" y2="979.23" class="down-wick"/>
<rect x="561.45" y="974.15" width="4.83" height="4.50" class="down-body"/>
<line x1="571.29" y1="970.89" x2="571.29" y2="978.05" class="up-wick"/>
<rect x="568.87" y="971.36" width="4.83" height="6.67" class="up-body"/>
<line x1="578.71" y1="971.06" x2="578.71" y2="975.32" class="down-wick"/>
<rect x="576.30" y="972.67" width="4.83" height="2.29" class="down-body"/>
<line x1="586.14" y1="972.22" x2="586.14" y2="976.72" class="up-wick"/>
<rect x="583.73" y="973.18" width="4.83" height="1.46" class="up-body"/>
<line x1="593.57" y1="962.38" x2="593.57" y2="975.02" class="up-wick"/>
<rect x="591.15" y="963.77" width="4.83" height="9.37" class="up-body"/>
<line x1="600.99" y1="947.33" x2="600.99" y2="956.55" class="up-wick"/>
<rect x="598.58" y="947.33" width="4.83" height="5.87" class="up-body"/>
<line x1="608.42" y1="941.67" x2="608.42" y2="951.83" class="down-wick"/>
<rect x="606.01" y="946.81" width="4.83" height="3.00" class="down-body"/>
<line x1="615.85" y1="944.63" x2="615.85" y2="955.15" class="up-wick"/>
<rect x="613.43" y="946.98" width="4.83" height="4.37" class="up-body"/>
<line x1="623.27" y1="950.95" x2="623.27" y2="954.70" class="up-wick"/>
<rect x="620.86" y="951.10" width="4.83" height="1.18" class="up-body"/>
<line x1="630.70" y1="947.65" x2="630.70" y2="952.56" class="up-wick"/>
<rect x="628.28" y="950.56" width="4.83" height="1.50" class="up-body"/>
<line x1="638.12" y1="945.76" x2="638.12" y2="952.56" class="up-wick"/>
<rect x="635.71" y="946.88" width="4.83" height="5.30" class="up-body"/>
<line x1="645.55" y1="944.67" x2="645.55" y2="947.11" class="up-wick"/>
<rect x="643.14" y="946.36" width="4.83" height="1.00" class="up-body"/>
<line x1="652.98" y1="942.50" x2="652.98" y2="946.86" class="down-wick"/>
<rect x="650.56" y="943.53" width="4.83" height="1.67" class="down-body"/>
<line x1="660.40" y1="943.90" x2="660.40" y2="946.30" class="down-wick"/>
<rect x="657.99" y="945.31" width="4.83" height="1.00" class="down-body"/>
<line x1="667.83" y1="942.65" x2="667.83" y2="946.88" class="up-wick"/>
<rect x="665.42" y="943.15" width="4.83" height="1.00" class="up-body"/>
<line x1="675.26" y1="942.70" x2="675.26" y2="945.63" class="up-wick"/>
<rect x="672.84" y="944.09" width="4.83" height="1.20" class="up-body"/>
<line x1="682.68" y1="938.56" x2="682.68" y2="944.78" class="up-wick"/>
<rect x="680.27" y="940.06" width="4.83" height="3.60" class="up-body"/>
<line x1="690.11" y1="936.39" x2="690.11" y2="942.91" class="down-wick"/>
<rect x="687.70" y="938.90" width="4.83" height="2.34" class="down-body"/>
<line x1="697.54" y1="940.81" x2="697.54" y2="945.53" class="down-wick"/>
<rect x="695.12" y="944.43" width="4.83" height="1.00" class="down-body"/>
<line x1="704.96" y1="944.45" x2="704.96" y2="952.58" class="down-wick"/>
<rect x="702.55" y="944.54" width="4.83" height="4.01" class="down-body"/>
<line x1="712.39" y1="944.35" x2="712.39" y2="949.58" class="up-wick"/>
<rect x="709.98" y="945.14" width="4.83" height="3.28" class="up-body"/>
<line x1="719.82" y1="938.95" x2="719.82" y2="947.50" class="down-wick"/>
<rect x="717.40" y="940.19" width="4.83" height="5.70" class="down-body"/>
<line x1="727.24" y1="944.54" x2="727.24" y2="951.38" class="down-wick"/>
<rect x="724.83" y="944.54" width="4.83" height="2.49" class="down-body"/>
<line x1="734.67" y1="944.13" x2="734.67" y2="953.84" class="up-wick"/>
<rect x="732.26" y="944.15" width="4.83" height="5.32" class="up-body"/>
<line x1="742.10" y1="940.75" x2="742.10" y2="950.93" class="up-wick"/>
<rect x="739.68" y="940.81" width="4.83" height="10.10" class="up-body"/>
<line x1="749.52" y1="936.54" x2="749.52" y2="940.87" class="up-wick"/>
<rect x="747.11" y="936.89" width="4.83" height="2.02" class="up-body"/>
<line x1="756.95" y1="926.00" x2="756.95" y2="935.07" class="down-wick"/>
<rect x="754.53" y="930.93" width="4.83" height="1.00" class="down-body"/>
<line x1="764.38" y1="927.52" x2="764.38" y2="937.02" class="up-wick"/>
<rect x="761.96" y="927.99" width="4.83" height="7.95" class="up-body"/>
<line x1="771.80" y1="925.42" x2="771.80" y2="932.99" class="down-wick"/>
<rect x="769.39" y="929.23" width="4.83" height="2.94" class="down-body"/>
<line x1="779.23" y1="924.02" x2="779.23" y2="931.51" class="up-wick"/>
<rect x="776.81" y="925.63" width="4.83" height="2.79" class="up-body"/>
<line x1="786.65" y1="920.40" x2="786.65" y2="927.56" class="up-wick"/>
<rect x="784.24" y="922.29" width="4.83" height="4.63" class="up-body"/>
<line x1="794.08" y1="923.12" x2="794.08" y2="931.42" class="up-wick"/>
<rect x="791.67" y="925.35" width="4.83" height="1.95" class="up-body"/>
<line x1="801.51" y1="923.60" x2="801.51" y2="931.01" class="up-wick"/>
<rect x="799.09" y="924.28" width="4.83" height="2.94" class="up-body"/>
<line x1="808.93" y1="921.00" x2="808.93" y2="927.22" class="down-wick"/>
<rect x="806.52" y="921.67" width="4.83" height="1.24" class="down-body"/>
<line x1="816.36" y1="918.71" x2="816.36" y2="924.24" class="up-wick"/>
<rect x="813.95" y="921.13" width="4.83" height="2.10" class="up-body"/>
<line x1="823.79" y1="897.85" x2="823.79" y2="921.20" class="up-wick"/>
<rect x="821.37" y="903.08" width="4.83" height="17.04" class="up-body"/>
<line x1="831.21" y1="896.67" x2="831.21" y2="915.11" class="up-wick"/>
<rect x="828.80" y="896.95" width="4.83" height="14.77" class="up-body"/>
<line x1="838.64" y1="897.36" x2="838.64" y2="906.96" class="up-wick"/>
<rect x="836.23" y="899.39" width="4.83" height="1.39" class="up-body"/>
<line x1="846.07" y1="883.92" x2="846.07" y2="892.81" class="up-wick"/>
<rect x="843.65" y="885.48" width="4.83" height="6.17" class="up-body"/>
<line x1="853.49" y1="878.96" x2="853.49" y2="889.19" class="up-wick"/>
<rect x="851.08" y="879.35" width="4.83" height="6.43" class="up-body"/>
<line x1="860.92" y1="863.87" x2="860.92" y2="874.78" class="up-wick"/>
<rect x="858.51" y="865.33" width="4.83" height="9.03" class="up-body"/>
<line x1="868.35" y1="859.24" x2="868.35" y2="866.23" class="up-wick"/>
<rect x="865.93" y="861.11" width="4.83" height="3.49" class="up-body"/>
<line x1="875.77" y1="864.21" x2="875.77" y2="867.49" class="up-wick"/>
<rect x="873.36" y="864.41" width="4.83" height="1.00" class="up-body"/>
<line x1="883.20" y1="867.24" x2="883.20" y2="870.00" class="up-wick"/>
<rect x="880.78" y="868.63" width="4.83" height="1.00" class="up-body"/>
<line x1="890.62" y1="861.62" x2="890.62" y2="869.70" class="up-wick"/>
<rect x="888.21" y="861.71" width="4.83" height="7.80" class="up-body"/>
<line x1="898.05" y1="867.22" x2="898.05" y2="869.77" class="down-wick"/>
<rect x="895.64" y="868.95" width="4.83" height="1.00" class="down-body"/>
<line x1="905.48" y1="866.94" x2="905.48" y2="880.27" class="down-wick"/>
<rect x="903.06" y="868.93" width="4.83" height="11.34" class="down-body"/>
<line x1="912.90" y1="879.56" x2="912.90" y2="883.08" class="up-wick"/>
<rect x="910.49" y="880.59" width="4.83" height="1.44" class="up-body"/>
<line x1="920.33" y1="874.42" x2="920.33" y2="879.78" class="down-wick"/>
<rect x="917.92" y="876.78" width="4.83" height="2.32" class="down-body"/>
<line x1="927.76" y1="873.60" x2="927.76" y2="881.92" class="up-wick"/>
<rect x="925.34" y="876.93" width="4.83" height="2.06" class="up-body"/>
<line x1="935.18" y1="879.80" x2="935.18" y2="891.40" class="down-wick"/>
<rect x="932.77" y="881.51" width="4.83" height="3.07" class="down-body"/>
<line x1="942.61" y1="881.54" x2="942.61" y2="891.61" class="down-wick"/>
<rect x="940.20" y="885.50" width="4.83" height="1.11" class="down-body"/>
<line x1="950.04" y1="887.54" x2="950.04" y2="893.22" class="up-wick"/>
<rect x="947.62" y="890.75" width="4.83" height="1.95" class="up-body"/>
<line x1="957.46" y1="889.55" x2="957.46" y2="894.08" class="up-wick"/>
<rect x="955.05" y="891.31" width="4.83" height="1.22" class="up-body"/>
<line x1="964.89" y1="887.58" x2="964.89" y2="892.83" class="up-wick"/>
<rect x="962.48" y="887.95" width="4.83" height="4.59" class="up-body"/>
<line x1="972.32" y1="873.22" x2="972.32" y2="881.64" class="up-wick"/>
<rect x="969.90" y="873.80" width="4.83" height="4.89" class="up-body"/>
<line x1="979.74" y1="867.67" x2="979.74" y2="874.80" class="down-wick"/>
<rect x="977.33" y="872.43" width="4.83" height="1.74" class="down-body"/>
<line x1="987.17" y1="879.35" x2="987.17" y2="887.67" class="down-wick"/>
<rect x="984.76" y="879.35" width="4.83" height="5.19" class="down-body"/>
<line x1="994.60" y1="878.32" x2="994.60" y2="881.99" class="up-wick"/>
<rect x="992.18" y="878.47" width="4.83" height="1.00" class="up-body"/>
<line x1="1002.02" y1="882.42" x2="1002.02" y2="891.14" class="down-wick"/>
<rect x="999.61" y="882.42" width="4.83" height="4.16" class="down-body"/>
<line x1="1009.45" y1="887.82" x2="1009.45" y2="893.43" class="up-wick"/>
<rect x="1007.03" y="891.31" width="4.83" height="1.44" class="up-body"/>
<line x1="1016.88" y1="880.53" x2="1016.88" y2="887.84" class="up-wick"/>
<rect x="1014.46" y="881.30" width="4.83" height="3.39" class="up-body"/>
<line x1="1024.30" y1="877.83" x2="1024.30" y2="886.96" class="down-wick"/>
<rect x="1021.89" y="878.38" width="4.83" height="7.16" class="down-body"/>
<line x1="1031.73" y1="886.36" x2="1031.73" y2="890.82" class="down-wick"/>
<rect x="1029.31" y="889.28" width="4.83" height="1.54" class="down-body"/>
<line x1="1039.15" y1="881.92" x2="1039.15" y2="890.82" class="up-wick"/>
<rect x="1036.74" y="882.05" width="4.83" height="5.08" class="up-body"/>
<line x1="1046.58" y1="877.93" x2="1046.58" y2="882.31" class="up-wick"/>
<rect x="1044.17" y="879.97" width="4.83" height="1.22" class="up-body"/>
<line x1="1054.01" y1="871.46" x2="1054.01" y2="883.21" class="up-wick"/>
<rect x="1051.59" y="872.47" width="4.83" height="8.53" class="up-body"/>
<line x1="1061.43" y1="870.67" x2="1061.43" y2="882.99" class="down-wick"/>
<rect x="1059.02" y="874.57" width="4.83" height="5.62" class="down-body"/>
<line x1="1068.86" y1="875.62" x2="1068.86" y2="883.64" class="up-wick"/>
<rect x="1066.45" y="876.20" width="4.83" height="5.77" class="up-body"/>
<line x1="1076.29" y1="874.78" x2="1076.29" y2="887.82" class="down-wick"/>
<rect x="1073.87" y="877.98" width="4.83" height="9.84" class="down-body"/>
<line x1="70" y1="1000.26" x2="1080" y2="1000.26" class="sweep-line"/>
<text x="1076" y="996.26" text-anchor="end" class="level-label">sweep 5352.63</text>
<line x1="70" y1="1016.12" x2="1080" y2="1016.12" class="entry-line"/>
<text x="1076" y="1012.12" text-anchor="end" class="level-label">entry level 5345.23</text>
<text x="70" y="1056" class="axis-label">2026-03-02 05:45:00+00:00 to 2026-03-02 10:15:00+00:00</text>
<text x="1080" y="1056" text-anchor="end" class="axis-label">5335.02 - 5424.59</text>
</svg>