<svg xmlns="http://www.w3.org/2000/svg" width="1120" height="1054" viewBox="0 0 1120 1054">
<style>
text{font-family:Arial,Helvetica,sans-serif}.title{font-size:21px;font-weight:700;fill:#1f2937}.subtitle{font-size:12px;fill:#4b5563}.panel-title{font-size:15px;font-weight:700;fill:#111827}.muted{font-size:13px;fill:#6b7280}.plot-bg{fill:#f8fafc;stroke:#cbd5e1;stroke-width:1}.up-body{fill:#15803d;stroke:#14532d;stroke-width:.8}.down-body{fill:#b91c1c;stroke:#7f1d1d;stroke-width:.8}.up-wick{stroke:#14532d;stroke-width:1}.down-wick{stroke:#7f1d1d;stroke-width:1}.sweep-line{stroke:#7c3aed;stroke-width:1.6;stroke-dasharray:6 4}.number-line{stroke:#0f766e;stroke-width:1.4;stroke-dasharray:3 4}.entry-line{stroke:#2563eb;stroke-width:1.4}.sl-line{stroke:#dc2626;stroke-width:1.4}.tp-line{stroke:#16a34a;stroke-width:1.4}.level-label,.axis-label{font-size:11px;fill:#374151}
</style>
<text x="28" y="28" class="title">Adelin v2 visual review sample sample_100</text>
<text x="28" y="48" class="subtitle">Candidate windows are for visual labeling only and are not trade signals.</text>
<text x="560" y="48" class="subtitle" text-anchor="middle">M15_SWING_LOW_SWEEP_VISUAL_CANDIDATE | SWEPT_LIQUIDITY_LEVEL_METADATA_AVAILABLE</text>
<text x="70" y="82" class="panel-title">H1 liquidity context</text>
<rect x="70" y="96" width="1010" height="192" class="plot-bg"/>
<line x1="81.22" y1="243.31" x2="81.22" y2="262.83" class="down-wick"/>
<rect x="77.22" y="245.69" width="8.00" height="5.03" class="down-body"/>
<line x1="103.67" y1="245.95" x2="103.67" y2="274.76" class="down-wick"/>
<rect x="99.67" y="250.71" width="8.00" height="21.57" class="down-body"/>
<line x1="126.11" y1="238.38" x2="126.11" y2="273.20" class="up-wick"/>
<rect x="122.11" y="240.80" width="8.00" height="31.49" class="up-body"/>
<line x1="148.56" y1="222.25" x2="148.56" y2="240.96" class="up-wick"/>
<rect x="144.56" y="229.07" width="8.00" height="11.73" class="up-body"/>
<line x1="171.00" y1="217.79" x2="171.00" y2="237.88" class="up-wick"/>
<rect x="167.00" y="224.66" width="8.00" height="4.40" class="up-body"/>
<line x1="193.44" y1="215.01" x2="193.44" y2="229.69" class="up-wick"/>
<rect x="189.44" y="217.70" width="8.00" height="6.97" class="up-body"/>
<line x1="215.89" y1="194.27" x2="215.89" y2="222.34" class="up-wick"/>
<rect x="211.89" y="210.98" width="8.00" height="6.72" class="up-body"/>
<line x1="238.33" y1="195.98" x2="238.33" y2="213.24" class="up-wick"/>
<rect x="234.33" y="207.00" width="8.00" height="4.15" class="up-body"/>
<line x1="260.78" y1="204.12" x2="260.78" y2="220.34" class="down-wick"/>
<rect x="256.78" y="207.00" width="8.00" height="9.48" class="down-body"/>
<line x1="283.22" y1="213.72" x2="283.22" y2="235.72" class="down-wick"/>
<rect x="279.22" y="216.48" width="8.00" height="18.86" class="down-body"/>
<line x1="305.67" y1="224.05" x2="305.67" y2="238.24" class="up-wick"/>
<rect x="301.67" y="231.66" width="8.00" height="3.76" class="up-body"/>
<line x1="328.11" y1="228.32" x2="328.11" y2="246.05" class="down-wick"/>
<rect x="324.11" y="231.66" width="8.00" height="11.22" class="down-body"/>
<line x1="350.56" y1="233.70" x2="350.56" y2="251.60" class="up-wick"/>
<rect x="346.56" y="238.51" width="8.00" height="4.37" class="up-body"/>
<line x1="373.00" y1="218.37" x2="373.00" y2="244.72" class="up-wick"/>
<rect x="369.00" y="224.26" width="8.00" height="14.25" class="up-body"/>
<line x1="395.44" y1="219.48" x2="395.44" y2="243.89" class="down-wick"/>
<rect x="391.44" y="224.26" width="8.00" height="5.27" class="down-body"/>
<line x1="417.89" y1="162.36" x2="417.89" y2="229.96" class="up-wick"/>
<rect x="413.89" y="166.38" width="8.00" height="63.14" class="up-body"/>
<line x1="440.33" y1="129.68" x2="440.33" y2="172.97" class="up-wick"/>
<rect x="436.33" y="154.98" width="8.00" height="11.40" class="up-body"/>
<line x1="462.78" y1="147.04" x2="462.78" y2="169.75" class="down-wick"/>
<rect x="458.78" y="154.80" width="8.00" height="6.38" class="down-body"/>
<line x1="485.22" y1="156.48" x2="485.22" y2="185.22" class="down-wick"/>
<rect x="481.22" y="161.18" width="8.00" height="23.83" class="down-body"/>
<line x1="507.67" y1="151.06" x2="507.67" y2="185.04" class="up-wick"/>
<rect x="503.67" y="160.59" width="8.00" height="24.43" class="up-body"/>
<line x1="530.11" y1="152.88" x2="530.11" y2="173.53" class="down-wick"/>
<rect x="526.11" y="160.59" width="8.00" height="2.03" class="down-body"/>
<line x1="552.56" y1="157.75" x2="552.56" y2="181.47" class="down-wick"/>
<rect x="548.56" y="162.66" width="8.00" height="17.08" class="down-body"/>
<line x1="575.00" y1="162.97" x2="575.00" y2="199.74" class="up-wick"/>
<rect x="571.00" y="186.31" width="8.00" height="11.15" class="up-body"/>
<line x1="597.44" y1="179.91" x2="597.44" y2="219.46" class="down-wick"/>
<rect x="593.44" y="186.31" width="8.00" height="29.29" class="down-body"/>
<line x1="619.89" y1="201.08" x2="619.89" y2="239.15" class="down-wick"/>
<rect x="615.89" y="215.60" width="8.00" height="13.30" class="down-body"/>
<line x1="642.33" y1="193.91" x2="642.33" y2="229.16" class="up-wick"/>
<rect x="638.33" y="198.94" width="8.00" height="29.98" class="up-body"/>
<line x1="664.78" y1="174.84" x2="664.78" y2="207.56" class="up-wick"/>
<rect x="660.78" y="189.49" width="8.00" height="9.41" class="up-body"/>
<line x1="687.22" y1="160.33" x2="687.22" y2="191.52" class="up-wick"/>
<rect x="683.22" y="177.51" width="8.00" height="11.99" class="up-body"/>
<line x1="709.67" y1="175.38" x2="709.67" y2="185.37" class="up-wick"/>
<rect x="705.67" y="176.87" width="8.00" height="1.00" class="up-body"/>
<line x1="732.11" y1="151.26" x2="732.11" y2="176.85" class="up-wick"/>
<rect x="728.11" y="156.12" width="8.00" height="20.74" class="up-body"/>
<line x1="754.56" y1="133.43" x2="754.56" y2="160.58" class="up-wick"/>
<rect x="750.56" y="148.12" width="8.00" height="8.02" class="up-body"/>
<line x1="777.00" y1="146.06" x2="777.00" y2="161.27" class="down-wick"/>
<rect x="773.00" y="148.10" width="8.00" height="4.06" class="down-body"/>
<line x1="799.44" y1="141.53" x2="799.44" y2="154.10" class="up-wick"/>
<rect x="795.44" y="143.34" width="8.00" height="8.80" class="up-body"/>
<line x1="821.89" y1="141.36" x2="821.89" y2="155.21" class="down-wick"/>
<rect x="817.89" y="143.34" width="8.00" height="4.78" class="down-body"/>
<line x1="844.33" y1="141.91" x2="844.33" y2="151.84" class="down-wick"/>
<rect x="840.33" y="147.92" width="8.00" height="1.00" class="down-body"/>
<line x1="866.78" y1="109.24" x2="866.78" y2="153.73" class="up-wick"/>
<rect x="862.78" y="126.22" width="8.00" height="21.94" class="up-body"/>
<line x1="889.22" y1="111.35" x2="889.22" y2="137.64" class="up-wick"/>
<rect x="885.22" y="118.28" width="8.00" height="7.94" class="up-body"/>
<line x1="911.67" y1="110.75" x2="911.67" y2="160.79" class="down-wick"/>
<rect x="907.67" y="118.28" width="8.00" height="37.28" class="down-body"/>
<line x1="934.11" y1="140.82" x2="934.11" y2="164.34" class="up-wick"/>
<rect x="930.11" y="143.12" width="8.00" height="12.44" class="up-body"/>
<line x1="956.56" y1="128.42" x2="956.56" y2="154.23" class="up-wick"/>
<rect x="952.56" y="135.28" width="8.00" height="7.83" class="up-body"/>
<line x1="979.00" y1="134.16" x2="979.00" y2="148.18" class="down-wick"/>
<rect x="975.00" y="135.28" width="8.00" height="6.83" class="down-body"/>
<line x1="1001.44" y1="140.20" x2="1001.44" y2="165.17" class="down-wick"/>
<rect x="997.44" y="142.13" width="8.00" height="19.94" class="down-body"/>
<line x1="1023.89" y1="155.61" x2="1023.89" y2="175.61" class="down-wick"/>
<rect x="1019.89" y="162.07" width="8.00" height="13.01" class="down-body"/>
<line x1="1046.33" y1="159.42" x2="1046.33" y2="179.85" class="up-wick"/>
<rect x="1042.33" y="163.27" width="8.00" height="11.81" class="up-body"/>
<line x1="1068.78" y1="155.70" x2="1068.78" y2="172.46" class="up-wick"/>
<rect x="1064.78" y="165.48" width="8.00" height="1.00" class="up-body"/>
<line x1="70" y1="185.22" x2="1080" y2="185.22" class="sweep-line"/>
<text x="1076" y="181.22" text-anchor="end" class="level-label">sweep 4486.40</text>
<line x1="70" y1="185.22" x2="1080" y2="185.22" class="entry-line"/>
<text x="1076" y="181.22" text-anchor="end" class="level-label">entry level 4486.40</text>
<text x="70" y="306" class="axis-label">2026-03-27 01:00:00+00:00 to 2026-03-31 01:00:00+00:00</text>
<text x="1080" y="306" text-anchor="end" class="axis-label">4358.96 - 4597.02</text>
<text x="70" y="332" class="panel-title">M15 liquidity / reaction context</text>
<rect x="70" y="346" width="1010" height="192" class="plot-bg"/>
<line x1="90.20" y1="364.80" x2="90.20" y2="442.01" class="up-wick"/>
<rect x="86.20" y="394.32" width="8.00" height="42.88" class="up-body"/>
<line x1="130.60" y1="367.91" x2="130.60" y2="403.63" class="up-wick"/>
<rect x="126.60" y="373.01" width="8.00" height="21.31" class="up-body"/>
<line x1="171.00" y1="366.17" x2="171.00" y2="404.14" class="down-wick"/>
<rect x="167.00" y="373.01" width="8.00" height="26.47" class="down-body"/>
<line x1="211.40" y1="393.57" x2="211.40" y2="421.46" class="down-wick"/>
<rect x="207.40" y="399.48" width="8.00" height="14.31" class="down-body"/>
<line x1="251.80" y1="400.36" x2="251.80" y2="447.67" class="down-wick"/>
<rect x="247.80" y="413.79" width="8.00" height="10.79" class="down-body"/>
<line x1="292.20" y1="414.44" x2="292.20" y2="435.86" class="down-wick"/>
<rect x="288.20" y="424.58" width="8.00" height="10.81" class="down-body"/>
<line x1="332.60" y1="435.32" x2="332.60" y2="480.54" class="down-wick"/>
<rect x="328.60" y="435.49" width="8.00" height="33.99" class="down-body"/>
<line x1="373.00" y1="463.21" x2="373.00" y2="483.42" class="down-wick"/>
<rect x="369.00" y="469.48" width="8.00" height="5.83" class="down-body"/>
<line x1="413.40" y1="470.68" x2="413.40" y2="524.76" class="down-wick"/>
<rect x="409.40" y="475.30" width="8.00" height="38.39" class="down-body"/>
<line x1="453.80" y1="444.82" x2="453.80" y2="518.95" class="up-wick"/>
<rect x="449.80" y="474.53" width="8.00" height="39.17" class="up-body"/>
<line x1="494.20" y1="457.86" x2="494.20" y2="497.69" class="down-wick"/>
<rect x="490.20" y="474.54" width="8.00" height="18.24" class="down-body"/>
<line x1="534.60" y1="485.69" x2="534.60" y2="506.26" class="down-wick"/>
<rect x="530.60" y="492.78" width="8.00" height="10.45" class="down-body"/>
<line x1="575.00" y1="453.44" x2="575.00" y2="503.77" class="up-wick"/>
<rect x="571.00" y="456.51" width="8.00" height="46.76" class="up-body"/>
<line x1="615.40" y1="445.40" x2="615.40" y2="480.84" class="down-wick"/>
<rect x="611.40" y="456.40" width="8.00" height="19.32" class="down-body"/>
<line x1="655.80" y1="429.76" x2="655.80" y2="481.64" class="up-wick"/>
<rect x="651.80" y="437.30" width="8.00" height="38.43" class="up-body"/>
<line x1="696.20" y1="430.71" x2="696.20" y2="453.53" class="down-wick"/>
<rect x="692.20" y="437.30" width="8.00" height="3.01" class="down-body"/>
<line x1="736.60" y1="431.88" x2="736.60" y2="447.14" class="up-wick"/>
<rect x="732.60" y="434.88" width="8.00" height="5.37" class="up-body"/>
<line x1="777.00" y1="432.35" x2="777.00" y2="445.55" class="up-wick"/>
<rect x="773.00" y="434.66" width="8.00" height="1.00" class="up-body"/>
<line x1="817.40" y1="389.73" x2="817.40" y2="458.42" class="up-wick"/>
<rect x="813.40" y="397.43" width="8.00" height="37.16" class="up-body"/>
<line x1="857.80" y1="394.86" x2="857.80" y2="424.50" class="down-wick"/>
<rect x="853.80" y="397.43" width="8.00" height="23.05" class="down-body"/>
<line x1="898.20" y1="373.74" x2="898.20" y2="424.75" class="up-wick"/>
<rect x="894.20" y="380.85" width="8.00" height="39.63" class="up-body"/>
<line x1="938.60" y1="359.24" x2="938.60" y2="382.12" class="up-wick"/>
<rect x="934.60" y="376.72" width="8.00" height="4.15" class="up-body"/>
<line x1="979.00" y1="375.77" x2="979.00" y2="389.13" class="down-wick"/>
<rect x="975.00" y="376.72" width="8.00" height="6.03" class="down-body"/>
<line x1="1019.40" y1="376.06" x2="1019.40" y2="397.72" class="down-wick"/>
<rect x="1015.40" y="382.75" width="8.00" height="12.57" class="down-body"/>
<line x1="1059.80" y1="390.84" x2="1059.80" y2="411.07" class="down-wick"/>
<rect x="1055.80" y="395.32" width="8.00" height="14.16" class="down-body"/>
<line x1="70" y1="411.51" x2="1080" y2="411.51" class="sweep-line"/>
<text x="1076" y="407.51" text-anchor="end" class="level-label">sweep 4486.40</text>
<line x1="70" y1="411.51" x2="1080" y2="411.51" class="entry-line"/>
<text x="1076" y="407.51" text-anchor="end" class="level-label">entry level 4486.40</text>
<text x="70" y="556" class="axis-label">2026-03-30 01:00:00+00:00 to 2026-03-30 07:00:00+00:00</text>
<text x="1080" y="556" text-anchor="end" class="axis-label">4411.71 - 4525.08</text>
<text x="70" y="582" class="panel-title">M5 reaction / execution context</text>
<rect x="70" y="596" width="1010" height="192" class="plot-bg"/>
<line x1="83.65" y1="609.24" x2="83.65" y2="689.13" class="up-wick"/>
<rect x="79.65" y="613.64" width="8.00" height="70.52" class="up-body"/>
<line x1="110.95" y1="611.45" x2="110.95" y2="668.05" class="down-wick"/>
<rect x="106.95" y="613.64" width="8.00" height="43.83" class="down-body"/>
<line x1="138.24" y1="632.41" x2="138.24" y2="667.81" class="up-wick"/>
<rect x="134.24" y="639.79" width="8.00" height="19.03" class="up-body"/>
<line x1="165.54" y1="622.84" x2="165.54" y2="649.42" class="up-wick"/>
<rect x="161.54" y="623.21" width="8.00" height="16.58" class="up-body"/>
<line x1="192.84" y1="612.47" x2="192.84" y2="631.02" class="up-wick"/>
<rect x="188.84" y="622.77" width="8.00" height="1.00" class="up-body"/>
<line x1="220.14" y1="612.85" x2="220.14" y2="632.22" class="up-wick"/>
<rect x="216.14" y="617.74" width="8.00" height="5.03" class="up-body"/>
<line x1="247.43" y1="610.66" x2="247.43" y2="627.20" class="down-wick"/>
<rect x="243.43" y="617.74" width="8.00" height="2.66" class="down-body"/>
<line x1="274.73" y1="611.78" x2="274.73" y2="630.97" class="down-wick"/>
<rect x="270.73" y="620.39" width="8.00" height="8.85" class="down-body"/>
<line x1="302.03" y1="623.61" x2="302.03" y2="649.95" class="down-wick"/>
<rect x="298.03" y="629.24" width="8.00" height="15.89" class="down-body"/>
<line x1="329.32" y1="639.02" x2="329.32" y2="655.49" class="down-wick"/>
<rect x="325.32" y="645.13" width="8.00" height="6.36" class="down-body"/>
<line x1="356.62" y1="641.52" x2="356.62" y2="656.96" class="up-wick"/>
<rect x="352.62" y="651.62" width="8.00" height="1.00" class="up-body"/>
<line x1="383.92" y1="649.72" x2="383.92" y2="667.88" class="down-wick"/>
<rect x="379.92" y="651.62" width="8.00" height="8.32" class="down-body"/>
<line x1="411.22" y1="646.04" x2="411.22" y2="662.34" class="up-wick"/>
<rect x="407.22" y="653.46" width="8.00" height="6.48" class="up-body"/>
<line x1="438.51" y1="652.54" x2="438.51" y2="694.99" class="down-wick"/>
<rect x="434.51" y="653.70" width="8.00" height="18.82" class="down-body"/>
<line x1="465.81" y1="669.40" x2="465.81" y2="682.34" class="up-wick"/>
<rect x="461.81" y="671.10" width="8.00" height="1.42" class="up-body"/>
<line x1="493.11" y1="660.61" x2="493.11" y2="676.82" class="down-wick"/>
<rect x="489.11" y="671.10" width="8.00" height="5.38" class="down-body"/>
<line x1="520.41" y1="669.63" x2="520.41" y2="682.77" class="down-wick"/>
<rect x="516.41" y="676.62" width="8.00" height="2.44" class="down-body"/>
<line x1="547.70" y1="666.72" x2="547.70" y2="682.49" class="down-wick"/>
<rect x="543.70" y="679.06" width="8.00" height="3.22" class="down-body"/>
<line x1="575.00" y1="682.21" x2="575.00" y2="718.82" class="down-wick"/>
<rect x="571.00" y="682.39" width="8.00" height="22.85" class="down-body"/>
<line x1="602.30" y1="703.15" x2="602.30" y2="729.00" class="down-wick"/>
<rect x="598.30" y="705.24" width="8.00" height="12.42" class="down-body"/>
<line x1="629.59" y1="711.85" x2="629.59" y2="719.75" class="up-wick"/>
<rect x="625.59" y="717.56" width="8.00" height="1.00" class="up-body"/>
<line x1="656.89" y1="711.08" x2="656.89" y2="731.51" class="down-wick"/>
<rect x="652.89" y="717.56" width="8.00" height="12.76" class="down-body"/>
<line x1="684.19" y1="717.33" x2="684.19" y2="731.98" class="up-wick"/>
<rect x="680.19" y="722.13" width="8.00" height="8.18" class="up-body"/>
<line x1="711.49" y1="716.86" x2="711.49" y2="731.19" class="down-wick"/>
<rect x="707.49" y="722.13" width="8.00" height="1.45" class="down-body"/>
<line x1="738.78" y1="718.80" x2="738.78" y2="751.94" class="down-wick"/>
<rect x="734.78" y="723.59" width="8.00" height="23.66" class="down-body"/>
<line x1="766.08" y1="736.89" x2="766.08" y2="765.68" class="down-wick"/>
<rect x="762.08" y="747.19" width="8.00" height="10.81" class="down-body"/>
<line x1="793.38" y1="752.78" x2="793.38" y2="774.76" class="down-wick"/>
<rect x="789.38" y="758.04" width="8.00" height="5.27" class="down-body"/>
<line x1="820.68" y1="729.51" x2="820.68" y2="768.75" class="up-wick"/>
<rect x="816.68" y="729.51" width="8.00" height="33.80" class="up-body"/>
<line x1="847.97" y1="696.69" x2="847.97" y2="733.45" class="up-wick"/>
<rect x="843.97" y="700.44" width="8.00" height="29.07" class="up-body"/>
<line x1="875.27" y1="692.04" x2="875.27" y2="728.97" class="down-wick"/>
<rect x="871.27" y="700.44" width="8.00" height="22.34" class="down-body"/>
<line x1="902.57" y1="705.54" x2="902.57" y2="728.72" class="up-wick"/>
<rect x="898.57" y="717.40" width="8.00" height="5.40" class="up-body"/>
<line x1="929.86" y1="716.35" x2="929.86" y2="729.13" class="down-wick"/>
<rect x="925.86" y="717.40" width="8.00" height="8.27" class="down-body"/>
<line x1="957.16" y1="723.25" x2="957.16" y2="746.75" class="down-wick"/>
<rect x="953.16" y="725.67" width="8.00" height="16.00" class="down-body"/>
<line x1="984.46" y1="736.63" x2="984.46" y2="751.35" class="up-wick"/>
<rect x="980.46" y="737.54" width="8.00" height="4.14" class="up-body"/>
<line x1="1011.76" y1="734.33" x2="1011.76" y2="753.08" class="down-wick"/>
<rect x="1007.76" y="737.54" width="8.00" height="10.97" class="down-body"/>
<line x1="1039.05" y1="744.23" x2="1039.05" y2="755.62" class="down-wick"/>
<rect x="1035.05" y="748.82" width="8.00" height="3.66" class="down-body"/>
<line x1="1066.35" y1="718.14" x2="1066.35" y2="753.05" class="up-wick"/>
<rect x="1062.35" y="735.35" width="8.00" height="17.17" class="up-body"/>
<line x1="70" y1="657.57" x2="1080" y2="657.57" class="sweep-line"/>
<text x="1076" y="653.57" text-anchor="end" class="level-label">sweep 4486.40</text>
<line x1="70" y1="657.57" x2="1080" y2="657.57" class="entry-line"/>
<text x="1076" y="653.57" text-anchor="end" class="level-label">entry level 4486.40</text>
<text x="70" y="806" class="axis-label">2026-03-30 01:00:00+00:00 to 2026-03-30 04:00:00+00:00</text>
<text x="1080" y="806" text-anchor="end" class="axis-label">4411.97 - 4521.54</text>
<text x="70" y="832" class="panel-title">M1 execution window</text>
<rect x="70" y="846" width="1010" height="192" class="plot-bg"/>
<line x1="72.79" y1="904.49" x2="72.79" y2="939.13" class="up-wick"/>
<rect x="70.98" y="909.78" width="3.63" height="24.38" class="up-body"/>
<line x1="78.37" y1="906.49" x2="78.37" y2="927.99" class="up-wick"/>
<rect x="76.56" y="907.00" width="3.63" height="2.79" class="up-body"/>
<line x1="83.95" y1="882.01" x2="83.95" y2="908.03" class="up-wick"/>
<rect x="82.14" y="884.77" width="3.63" height="20.89" class="up-body"/>
<line x1="89.53" y1="880.95" x2="89.53" y2="897.46" class="up-wick"/>
<rect x="87.72" y="883.55" width="3.63" height="1.23" class="up-body"/>
<line x1="95.11" y1="859.24" x2="95.11" y2="884.32" class="up-wick"/>
<rect x="93.30" y="863.64" width="3.63" height="19.91" class="up-body"/>
<line x1="100.69" y1="861.45" x2="100.69" y2="879.04" class="down-wick"/>
<rect x="98.88" y="863.64" width="3.63" height="12.11" class="down-body"/>
<line x1="106.27" y1="871.12" x2="106.27" y2="885.90" class="down-wick"/>
<rect x="104.46" y="876.12" width="3.63" height="1.00" class="down-body"/>
<line x1="111.85" y1="873.75" x2="111.85" y2="890.42" class="down-wick"/>
<rect x="110.04" y="876.49" width="3.63" height="9.78" class="down-body"/>
<line x1="117.43" y1="881.97" x2="117.43" y2="909.68" class="down-wick"/>
<rect x="115.62" y="886.26" width="3.63" height="23.13" class="down-body"/>
<line x1="123.01" y1="898.22" x2="123.01" y2="918.05" class="up-wick"/>
<rect x="121.20" y="907.47" width="3.63" height="1.00" class="up-body"/>
<line x1="128.59" y1="898.64" x2="128.59" y2="913.83" class="up-wick"/>
<rect x="126.78" y="906.31" width="3.63" height="2.51" class="up-body"/>
<line x1="134.17" y1="895.57" x2="134.17" y2="917.81" class="down-wick"/>
<rect x="132.36" y="906.31" width="3.63" height="10.92" class="down-body"/>
<line x1="139.75" y1="904.54" x2="139.75" y2="917.23" class="up-wick"/>
<rect x="137.94" y="910.24" width="3.63" height="6.99" class="up-body"/>
<line x1="145.33" y1="900.63" x2="145.33" y2="911.80" class="up-wick"/>
<rect x="143.52" y="905.77" width="3.63" height="4.47" class="up-body"/>
<line x1="150.91" y1="882.41" x2="150.91" y2="906.98" class="up-wick"/>
<rect x="149.10" y="889.79" width="3.63" height="15.98" class="up-body"/>
<line x1="156.49" y1="886.19" x2="156.49" y2="899.42" class="down-wick"/>
<rect x="154.68" y="889.79" width="3.63" height="6.64" class="down-body"/>
<line x1="162.07" y1="876.05" x2="162.07" y2="896.71" class="up-wick"/>
<rect x="160.26" y="880.90" width="3.63" height="15.56" class="up-body"/>
<line x1="167.65" y1="879.80" x2="167.65" y2="895.13" class="down-wick"/>
<rect x="165.84" y="880.90" width="3.63" height="13.06" class="down-body"/>
<line x1="173.23" y1="884.49" x2="173.23" y2="896.95" class="up-wick"/>
<rect x="171.42" y="884.49" width="3.63" height="9.46" class="up-body"/>
<line x1="178.81" y1="872.84" x2="178.81" y2="887.86" class="up-wick"/>
<rect x="177.00" y="873.21" width="3.63" height="11.58" class="up-body"/>
<line x1="184.39" y1="869.60" x2="184.39" y2="878.34" class="up-wick"/>
<rect x="182.58" y="872.82" width="3.63" height="1.00" class="up-body"/>
<line x1="189.97" y1="862.47" x2="189.97" y2="875.29" class="up-wick"/>
<rect x="188.16" y="870.07" width="3.63" height="2.75" class="up-body"/>
<line x1="195.55" y1="864.83" x2="195.55" y2="881.02" class="down-wick"/>
<rect x="193.74" y="870.07" width="3.63" height="5.89" class="down-body"/>
<line x1="201.13" y1="874.15" x2="201.13" y2="880.92" class="up-wick"/>
<rect x="199.32" y="874.15" width="3.63" height="1.81" class="up-body"/>
<line x1="206.71" y1="869.25" x2="206.71" y2="877.45" class="up-wick"/>
<rect x="204.90" y="872.77" width="3.63" height="1.38" class="up-body"/>
<line x1="212.29" y1="871.53" x2="212.29" y2="882.22" class="down-wick"/>
<rect x="210.48" y="872.77" width="3.63" height="2.56" class="down-body"/>
<line x1="217.87" y1="870.37" x2="217.87" y2="876.24" class="up-wick"/>
<rect x="216.06" y="874.05" width="3.63" height="1.28" class="up-body"/>
<line x1="223.45" y1="868.20" x2="223.45" y2="875.59" class="up-wick"/>
<rect x="221.64" y="870.51" width="3.63" height="3.54" class="up-body"/>
<line x1="229.03" y1="862.85" x2="229.03" y2="870.51" class="up-wick"/>
<rect x="227.22" y="863.24" width="3.63" height="7.27" class="up-body"/>
<line x1="234.61" y1="863.04" x2="234.61" y2="870.37" class="down-wick"/>
<rect x="232.80" y="863.24" width="3.63" height="4.50" class="down-body"/>
<line x1="240.19" y1="860.66" x2="240.19" y2="867.74" class="up-wick"/>
<rect x="238.38" y="864.60" width="3.63" height="3.14" class="up-body"/>
<line x1="245.77" y1="864.62" x2="245.77" y2="877.20" class="down-wick"/>
<rect x="243.96" y="864.64" width="3.63" height="7.55" class="down-body"/>
<line x1="251.35" y1="865.50" x2="251.35" y2="874.52" class="up-wick"/>
<rect x="249.54" y="870.42" width="3.63" height="1.73" class="up-body"/>
<line x1="256.93" y1="862.94" x2="256.93" y2="873.94" class="up-wick"/>
<rect x="255.12" y="864.76" width="3.63" height="5.78" class="up-body"/>
<line x1="262.51" y1="863.11" x2="262.51" y2="872.77" class="down-wick"/>
<rect x="260.70" y="864.76" width="3.63" height="5.64" class="down-body"/>
<line x1="268.09" y1="862.61" x2="268.09" y2="870.97" class="up-wick"/>
<rect x="266.28" y="863.13" width="3.63" height="7.26" class="up-body"/>
<line x1="273.67" y1="861.78" x2="273.67" y2="866.32" class="down-wick"/>
<rect x="271.86" y="863.13" width="3.63" height="1.00" class="down-body"/>
<line x1="279.25" y1="862.73" x2="279.25" y2="868.77" class="down-wick"/>
<rect x="277.44" y="864.04" width="3.63" height="4.52" class="down-body"/>
<line x1="284.83" y1="868.56" x2="284.83" y2="877.80" class="down-wick"/>
<rect x="283.02" y="868.56" width="3.63" height="5.12" class="down-body"/>
<line x1="290.41" y1="873.30" x2="290.41" y2="880.97" class="down-wick"/>
<rect x="288.60" y="873.68" width="3.63" height="5.56" class="down-body"/>
<line x1="295.99" y1="878.50" x2="295.99" y2="884.48" class="down-wick"/>
<rect x="294.18" y="879.24" width="3.63" height="1.00" class="down-body"/>
<line x1="301.57" y1="873.61" x2="301.57" y2="880.43" class="up-wick"/>
<rect x="299.76" y="879.17" width="3.63" height="1.00" class="up-body"/>
<line x1="307.15" y1="876.99" x2="307.15" y2="886.02" class="down-wick"/>
<rect x="305.34" y="879.17" width="3.63" height="6.85" class="down-body"/>
<line x1="312.73" y1="879.99" x2="312.73" y2="887.21" class="down-wick"/>
<rect x="310.92" y="886.05" width="3.63" height="1.00" class="down-body"/>
<line x1="318.31" y1="885.88" x2="318.31" y2="899.95" class="down-wick"/>
<rect x="316.50" y="887.02" width="3.63" height="8.11" class="down-body"/>
<line x1="323.90" y1="890.31" x2="323.90" y2="895.92" class="up-wick"/>
<rect x="322.08" y="893.19" width="3.63" height="1.95" class="up-body"/>
<line x1="329.48" y1="889.21" x2="329.48" y2="893.38" class="up-wick"/>
<rect x="327.66" y="889.33" width="3.63" height="3.86" class="up-body"/>
<line x1="335.06" y1="889.02" x2="335.06" y2="892.99" class="down-wick"/>
<rect x="333.24" y="889.28" width="3.63" height="3.01" class="down-body"/>
<line x1="340.64" y1="892.17" x2="340.64" y2="905.49" class="down-wick"/>
<rect x="338.82" y="892.33" width="3.63" height="10.92" class="down-body"/>
<line x1="346.22" y1="898.06" x2="346.22" y2="903.89" class="up-wick"/>
<rect x="344.40" y="901.49" width="3.63" height="1.75" class="up-body"/>
<line x1="351.80" y1="901.62" x2="351.80" y2="906.33" class="down-wick"/>
<rect x="349.98" y="901.67" width="3.63" height="2.93" class="down-body"/>
<line x1="357.38" y1="891.52" x2="357.38" y2="905.70" class="up-wick"/>
<rect x="355.56" y="902.16" width="3.63" height="2.44" class="up-body"/>
<line x1="362.96" y1="901.70" x2="362.96" y2="905.66" class="up-wick"/>
<rect x="361.14" y="901.70" width="3.63" height="1.00" class="up-body"/>
<line x1="368.54" y1="896.11" x2="368.54" y2="906.96" class="down-wick"/>
<rect x="366.72" y="901.70" width="3.63" height="3.70" class="down-body"/>
<line x1="374.12" y1="896.92" x2="374.12" y2="905.51" class="up-wick"/>
<rect x="372.30" y="901.62" width="3.63" height="3.79" class="up-body"/>
<line x1="379.70" y1="899.72" x2="379.70" y2="905.82" class="up-wick"/>
<rect x="377.88" y="901.60" width="3.63" height="1.00" class="up-body"/>
<line x1="385.28" y1="901.55" x2="385.28" y2="909.78" class="down-wick"/>
<rect x="383.46" y="901.60" width="3.63" height="6.76" class="down-body"/>
<line x1="390.86" y1="904.02" x2="390.86" y2="910.76" class="down-wick"/>
<rect x="389.04" y="908.36" width="3.63" height="1.00" class="down-body"/>
<line x1="396.44" y1="905.49" x2="396.44" y2="910.25" class="down-wick"/>
<rect x="394.62" y="908.78" width="3.63" height="1.00" class="down-body"/>
<line x1="402.02" y1="908.61" x2="402.02" y2="917.88" class="down-wick"/>
<rect x="400.20" y="909.38" width="3.63" height="1.00" class="down-body"/>
<line x1="407.60" y1="896.04" x2="407.60" y2="912.34" class="up-wick"/>
<rect x="405.78" y="896.74" width="3.63" height="13.20" class="up-body"/>
<line x1="413.18" y1="896.41" x2="413.18" y2="901.91" class="down-wick"/>
<rect x="411.36" y="896.74" width="3.63" height="4.59" class="down-body"/>
<line x1="418.76" y1="899.00" x2="418.76" y2="907.98" class="down-wick"/>
<rect x="416.94" y="901.35" width="3.63" height="2.10" class="down-body"/>
<line x1="424.34" y1="898.36" x2="424.34" y2="904.38" class="up-wick"/>
<rect x="422.52" y="902.23" width="3.63" height="1.23" class="up-body"/>
<line x1="429.92" y1="901.21" x2="429.92" y2="905.98" class="down-wick"/>
<rect x="428.10" y="902.23" width="3.63" height="1.23" class="down-body"/>
<line x1="435.50" y1="902.54" x2="435.50" y2="922.92" class="down-wick"/>
<rect x="433.68" y="903.70" width="3.63" height="18.87" class="down-body"/>
<line x1="441.08" y1="919.12" x2="441.08" y2="944.99" class="down-wick"/>
<rect x="439.26" y="922.57" width="3.63" height="15.21" class="down-body"/>
<line x1="446.66" y1="928.22" x2="446.66" y2="937.86" class="up-wick"/>
<rect x="444.84" y="935.58" width="3.63" height="2.28" class="up-body"/>
<line x1="452.24" y1="924.24" x2="452.24" y2="935.58" class="up-wick"/>
<rect x="450.42" y="927.60" width="3.63" height="7.97" class="up-body"/>
<line x1="457.82" y1="919.58" x2="457.82" y2="928.22" class="up-wick"/>
<rect x="456.00" y="922.52" width="3.63" height="5.08" class="up-body"/>
<line x1="463.40" y1="921.03" x2="463.40" y2="932.34" class="down-wick"/>
<rect x="461.58" y="922.52" width="3.63" height="4.77" class="down-body"/>
<line x1="468.98" y1="924.08" x2="468.98" y2="931.25" class="down-wick"/>
<rect x="467.16" y="927.29" width="3.63" height="1.00" class="down-body"/>
<line x1="474.56" y1="921.45" x2="474.56" y2="928.94" class="up-wick"/>
<rect x="472.74" y="922.28" width="3.63" height="5.45" class="up-body"/>
<line x1="480.14" y1="919.40" x2="480.14" y2="922.38" class="up-wick"/>
<rect x="478.32" y="921.94" width="3.63" height="1.00" class="up-body"/>
<line x1="485.72" y1="920.14" x2="485.72" y2="923.77" class="up-wick"/>
<rect x="483.90" y="921.10" width="3.63" height="1.00" class="up-body"/>
<line x1="491.30" y1="913.44" x2="491.30" y2="921.35" class="up-wick"/>
<rect x="489.48" y="915.34" width="3.63" height="5.77" class="up-body"/>
<line x1="496.88" y1="910.61" x2="496.88" y2="916.95" class="down-wick"/>
<rect x="495.06" y="915.30" width="3.63" height="1.00" class="down-body"/>
<line x1="502.46" y1="914.27" x2="502.46" y2="916.83" class="up-wick"/>
<rect x="500.65" y="914.85" width="3.63" height="1.37" class="up-body"/>
<line x1="508.04" y1="913.37" x2="508.04" y2="916.67" class="down-wick"/>
<rect x="506.23" y="914.85" width="3.63" height="1.00" class="down-body"/>
<line x1="513.62" y1="914.97" x2="513.62" y2="926.82" class="down-wick"/>
<rect x="511.81" y="915.23" width="3.63" height="11.25" class="down-body"/>
<line x1="519.20" y1="919.63" x2="519.20" y2="926.76" class="up-wick"/>
<rect x="517.39" y="921.75" width="3.63" height="4.87" class="up-body"/>
<line x1="524.78" y1="920.05" x2="524.78" y2="924.01" class="down-wick"/>
<rect x="522.97" y="921.75" width="3.63" height="1.00" class="down-body"/>
<line x1="530.36" y1="922.21" x2="530.36" y2="926.55" class="down-wick"/>
<rect x="528.55" y="922.63" width="3.63" height="2.54" class="down-body"/>
<line x1="535.94" y1="924.92" x2="535.94" y2="929.36" class="down-wick"/>
<rect x="534.13" y="925.24" width="3.63" height="3.86" class="down-body"/>
<line x1="541.52" y1="928.44" x2="541.52" y2="932.77" class="up-wick"/>
<rect x="539.71" y="929.06" width="3.63" height="1.00" class="up-body"/>
<line x1="547.10" y1="921.03" x2="547.10" y2="929.32" class="up-wick"/>
<rect x="545.29" y="921.05" width="3.63" height="8.01" class="up-body"/>
<line x1="552.68" y1="920.24" x2="552.68" y2="924.94" class="down-wick"/>
<rect x="550.87" y="921.05" width="3.63" height="2.24" class="down-body"/>
<line x1="558.26" y1="916.72" x2="558.26" y2="925.33" class="down-wick"/>
<rect x="556.45" y="923.29" width="3.63" height="1.66" class="down-body"/>
<line x1="563.84" y1="924.82" x2="563.84" y2="929.15" class="down-wick"/>
<rect x="562.03" y="924.96" width="3.63" height="2.91" class="down-body"/>
<line x1="569.42" y1="927.78" x2="569.42" y2="932.49" class="down-wick"/>
<rect x="567.61" y="927.87" width="3.63" height="4.42" class="down-body"/>
<line x1="575.00" y1="932.21" x2="575.00" y2="936.52" class="down-wick"/>
<rect x="573.19" y="932.39" width="3.63" height="2.23" class="down-body"/>
<line x1="580.58" y1="934.07" x2="580.58" y2="939.71" class="down-wick"/>
<rect x="578.77" y="934.61" width="3.63" height="5.08" class="down-body"/>
<line x1="586.16" y1="938.07" x2="586.16" y2="968.82" class="down-wick"/>
<rect x="584.35" y="939.70" width="3.63" height="13.09" class="down-body"/>
<line x1="591.74" y1="946.00" x2="591.74" y2="958.11" class="up-wick"/>
<rect x="589.93" y="952.19" width="3.63" height="1.00" class="up-body"/>
<line x1="597.32" y1="948.74" x2="597.32" y2="956.54" class="down-wick"/>
<rect x="595.51" y="952.12" width="3.63" height="3.12" class="down-body"/>
<line x1="602.90" y1="953.15" x2="602.90" y2="972.20" class="down-wick"/>
<rect x="601.09" y="955.24" width="3.63" height="16.30" class="down-body"/>
<line x1="608.48" y1="966.61" x2="608.48" y2="972.20" class="up-wick"/>
<rect x="606.67" y="967.70" width="3.63" height="3.84" class="up-body"/>
<line x1="614.06" y1="962.49" x2="614.06" y2="979.00" class="down-wick"/>
<rect x="612.25" y="967.70" width="3.63" height="7.83" class="down-body"/>
<line x1="619.64" y1="971.71" x2="619.64" y2="977.44" class="up-wick"/>
<rect x="617.83" y="973.38" width="3.63" height="2.16" class="up-body"/>
<line x1="625.22" y1="966.77" x2="625.22" y2="973.62" class="up-wick"/>
<rect x="623.41" y="967.66" width="3.63" height="5.71" class="up-body"/>
<line x1="630.80" y1="963.04" x2="630.80" y2="967.86" class="up-wick"/>
<rect x="628.99" y="966.88" width="3.63" height="1.00" class="up-body"/>
<line x1="636.38" y1="961.85" x2="636.38" y2="969.73" class="down-wick"/>
<rect x="634.57" y="966.88" width="3.63" height="2.75" class="down-body"/>
<line x1="641.96" y1="963.84" x2="641.96" y2="969.64" class="up-wick"/>
<rect x="640.15" y="964.02" width="3.63" height="5.61" class="up-body"/>
<line x1="647.54" y1="963.91" x2="647.54" y2="969.75" class="down-wick"/>
<rect x="645.73" y="964.02" width="3.63" height="5.71" class="down-body"/>
<line x1="653.12" y1="965.53" x2="653.12" y2="969.73" class="up-wick"/>
<rect x="651.31" y="967.56" width="3.63" height="2.17" class="up-body"/>
<line x1="658.70" y1="964.26" x2="658.70" y2="968.14" class="up-wick"/>
<rect x="656.89" y="965.74" width="3.63" height="1.82" class="up-body"/>
<line x1="664.28" y1="965.19" x2="664.28" y2="977.79" class="down-wick"/>
<rect x="662.47" y="965.70" width="3.63" height="7.22" class="down-body"/>
<line x1="669.86" y1="968.05" x2="669.86" y2="975.45" class="up-wick"/>
<rect x="668.05" y="969.70" width="3.63" height="3.22" class="up-body"/>
<line x1="675.44" y1="961.08" x2="675.44" y2="970.29" class="up-wick"/>
<rect x="673.63" y="967.58" width="3.63" height="2.12" class="up-body"/>
<line x1="681.02" y1="963.97" x2="681.02" y2="981.51" class="down-wick"/>
<rect x="679.21" y="967.58" width="3.63" height="12.74" class="down-body"/>
<line x1="686.60" y1="973.04" x2="686.60" y2="980.32" class="up-wick"/>
<rect x="684.79" y="977.16" width="3.63" height="3.15" class="up-body"/>
<line x1="692.18" y1="974.62" x2="692.18" y2="981.53" class="down-wick"/>
<rect x="690.37" y="977.16" width="3.63" height="1.51" class="down-body"/>
<line x1="697.76" y1="972.87" x2="697.76" y2="981.98" class="up-wick"/>
<rect x="695.95" y="973.64" width="3.63" height="5.03" class="up-body"/>
<line x1="703.34" y1="967.33" x2="703.34" y2="973.25" class="up-wick"/>
<rect x="701.53" y="969.56" width="3.63" height="3.70" class="up-body"/>
<line x1="708.92" y1="967.38" x2="708.92" y2="975.16" class="down-wick"/>
<rect x="707.11" y="969.56" width="3.63" height="2.58" class="down-body"/>
<line x1="714.50" y1="966.86" x2="714.50" y2="974.52" class="down-wick"/>
<rect x="712.69" y="972.13" width="3.63" height="1.00" class="down-body"/>
<line x1="720.08" y1="968.82" x2="720.08" y2="975.53" class="down-wick"/>
<rect x="718.27" y="972.75" width="3.63" height="1.00" class="down-body"/>
<line x1="725.66" y1="973.41" x2="725.66" y2="980.26" class="down-wick"/>
<rect x="723.85" y="973.48" width="3.63" height="6.78" class="down-body"/>
<line x1="731.24" y1="972.33" x2="731.24" y2="981.19" class="up-wick"/>
<rect x="729.43" y="973.41" width="3.63" height="6.85" class="up-body"/>
<line x1="736.82" y1="970.19" x2="736.82" y2="977.92" class="down-wick"/>
<rect x="735.01" y="973.41" width="3.63" height="1.00" class="down-body"/>
<line x1="742.40" y1="968.80" x2="742.40" y2="1001.94" class="down-wick"/>
<rect x="740.59" y="973.59" width="3.63" height="23.76" class="down-body"/>
<line x1="747.98" y1="986.26" x2="747.98" y2="998.23" class="up-wick"/>
<rect x="746.17" y="996.46" width="3.63" height="1.00" class="up-body"/>
<line x1="753.56" y1="992.50" x2="753.56" y2="999.52" class="down-wick"/>
<rect x="751.75" y="996.46" width="3.63" height="1.00" class="down-body"/>
<line x1="759.14" y1="988.17" x2="759.14" y2="999.44" class="up-wick"/>
<rect x="757.33" y="988.45" width="3.63" height="8.29" class="up-body"/>
<line x1="764.72" y1="988.08" x2="764.72" y2="999.33" class="down-wick"/>
<rect x="762.91" y="988.55" width="3.63" height="8.69" class="down-body"/>
<line x1="770.30" y1="986.89" x2="770.30" y2="997.19" class="up-wick"/>
<rect x="768.49" y="994.20" width="3.63" height="3.00" class="up-body"/>
<line x1="775.88" y1="990.81" x2="775.88" y2="997.75" class="down-wick"/>
<rect x="774.07" y="994.16" width="3.63" height="1.33" class="down-body"/>
<line x1="781.46" y1="993.60" x2="781.46" y2="999.37" class="down-wick"/>
<rect x="779.65" y="995.49" width="3.63" height="1.00" class="down-body"/>
<line x1="787.04" y1="995.69" x2="787.04" y2="1015.68" class="down-wick"/>
<rect x="785.23" y="995.76" width="3.63" height="13.44" class="down-body"/>
<line x1="792.62" y1="1005.15" x2="792.62" y2="1012.44" class="up-wick"/>
<rect x="790.81" y="1008.01" width="3.63" height="1.19" class="up-body"/>
<line x1="798.20" y1="1002.78" x2="798.20" y2="1009.41" class="down-wick"/>
<rect x="796.39" y="1008.04" width="3.63" height="1.23" class="down-body"/>
<line x1="803.78" y1="1003.34" x2="803.78" y2="1010.41" class="up-wick"/>
<rect x="801.97" y="1007.44" width="3.63" height="1.82" class="up-body"/>
<line x1="809.36" y1="1007.18" x2="809.36" y2="1017.28" class="down-wick"/>
<rect x="807.55" y="1007.44" width="3.63" height="7.87" class="down-body"/>
<line x1="814.94" y1="1010.00" x2="814.94" y2="1024.76" class="up-wick"/>
<rect x="813.13" y="1011.49" width="3.63" height="3.82" class="up-body"/>
<line x1="820.52" y1="1006.53" x2="820.52" y2="1014.73" class="down-wick"/>
<rect x="818.71" y="1011.49" width="3.63" height="1.82" class="down-body"/>
<line x1="826.10" y1="1010.11" x2="826.10" y2="1018.75" class="up-wick"/>
<rect x="824.29" y="1012.65" width="3.63" height="1.00" class="up-body"/>
<line x1="831.69" y1="1008.23" x2="831.69" y2="1013.60" class="up-wick"/>
<rect x="829.87" y="1008.50" width="3.63" height="4.14" class="up-body"/>
<line x1="837.27" y1="991.51" x2="837.27" y2="1008.67" class="up-wick"/>
<rect x="835.45" y="997.72" width="3.63" height="10.76" class="up-body"/>
<line x1="842.85" y1="991.57" x2="842.85" y2="1012.07" class="up-wick"/>
<rect x="841.03" y="991.83" width="3.63" height="5.89" class="up-body"/>
<line x1="848.43" y1="979.51" x2="848.43" y2="997.16" class="up-wick"/>
<rect x="846.61" y="979.51" width="3.63" height="12.32" class="up-body"/>
<line x1="854.01" y1="964.00" x2="854.01" y2="983.45" class="up-wick"/>
<rect x="852.19" y="964.37" width="3.63" height="15.14" class="up-body"/>
<line x1="859.59" y1="946.69" x2="859.59" y2="968.87" class="up-wick"/>
<rect x="857.77" y="952.68" width="3.63" height="11.88" class="up-body"/>
<line x1="865.17" y1="951.12" x2="865.17" y2="965.26" class="down-wick"/>
<rect x="863.35" y="952.68" width="3.63" height="3.49" class="down-body"/>
<line x1="870.75" y1="954.22" x2="870.75" y2="962.37" class="down-wick"/>
<rect x="868.93" y="956.34" width="3.63" height="1.00" class="down-body"/>
<line x1="876.33" y1="948.30" x2="876.33" y2="960.25" class="up-wick"/>
<rect x="874.51" y="950.44" width="3.63" height="6.52" class="up-body"/>
<line x1="881.91" y1="949.35" x2="881.91" y2="962.70" class="down-wick"/>
<rect x="880.09" y="950.44" width="3.63" height="4.49" class="down-body"/>
<line x1="887.49" y1="943.85" x2="887.49" y2="958.10" class="up-wick"/>
<rect x="885.67" y="944.55" width="3.63" height="10.37" class="up-body"/>
<line x1="893.07" y1="942.04" x2="893.07" y2="956.64" class="down-wick"/>
<rect x="891.25" y="944.29" width="3.63" height="11.30" class="down-body"/>
<line x1="898.65" y1="951.75" x2="898.65" y2="962.16" class="down-wick"/>
<rect x="896.83" y="955.59" width="3.63" height="4.68" class="down-body"/>
<line x1="904.23" y1="960.23" x2="904.23" y2="978.97" class="down-wick"/>
<rect x="902.41" y="960.27" width="3.63" height="12.51" class="down-body"/>
<line x1="909.81" y1="967.82" x2="909.81" y2="978.72" class="down-wick"/>
<rect x="907.99" y="972.80" width="3.63" height="1.00" class="down-body"/>
<line x1="915.39" y1="968.26" x2="915.39" y2="974.95" class="up-wick"/>
<rect x="913.57" y="968.37" width="3.63" height="4.89" class="up-body"/>
<line x1="920.97" y1="957.38" x2="920.97" y2="968.38" class="up-wick"/>
<rect x="919.15" y="959.20" width="3.63" height="9.17" class="up-body"/>
<line x1="926.55" y1="955.54" x2="926.55" y2="962.34" class="down-wick"/>
<rect x="924.73" y="959.20" width="3.63" height="1.00" class="down-body"/>
<line x1="932.13" y1="959.60" x2="932.13" y2="972.01" class="down-wick"/>
<rect x="930.31" y="959.80" width="3.63" height="7.61" class="down-body"/>
<line x1="937.71" y1="966.35" x2="937.71" y2="975.99" class="down-wick"/>
<rect x="935.89" y="967.40" width="3.63" height="7.26" class="down-body"/>
<line x1="943.29" y1="971.66" x2="943.29" y2="975.99" class="up-wick"/>
<rect x="941.47" y="971.78" width="3.63" height="2.87" class="up-body"/>
<line x1="948.87" y1="967.54" x2="948.87" y2="979.13" class="down-wick"/>
<rect x="947.05" y="971.78" width="3.63" height="6.96" class="down-body"/>
<line x1="954.45" y1="969.80" x2="954.45" y2="978.77" class="up-wick"/>
<rect x="952.63" y="969.80" width="3.63" height="8.94" class="up-body"/>
<line x1="960.03" y1="969.40" x2="960.03" y2="976.93" class="down-wick"/>
<rect x="958.21" y="969.80" width="3.63" height="5.87" class="down-body"/>
<line x1="965.61" y1="973.25" x2="965.61" y2="996.63" class="down-wick"/>
<rect x="963.79" y="975.67" width="3.63" height="17.72" class="down-body"/>
<line x1="971.19" y1="986.99" x2="971.19" y2="996.75" class="down-wick"/>
<rect x="969.37" y="992.78" width="3.63" height="2.33" class="down-body"/>
<line x1="976.77" y1="987.10" x2="976.77" y2="995.34" class="up-wick"/>
<rect x="974.95" y="991.66" width="3.63" height="3.45" class="up-body"/>
<line x1="982.35" y1="983.96" x2="982.35" y2="993.02" class="up-wick"/>
<rect x="980.53" y="987.05" width="3.63" height="4.61" class="up-body"/>
<line x1="987.93" y1="986.94" x2="987.93" y2="993.83" class="down-wick"/>
<rect x="986.11" y="987.05" width="3.63" height="4.63" class="down-body"/>
<line x1="993.51" y1="987.20" x2="993.51" y2="993.78" class="down-wick"/>
<rect x="991.69" y="991.67" width="3.63" height="1.00" class="down-body"/>
<line x1="999.09" y1="987.90" x2="999.09" y2="992.53" class="up-wick"/>
<rect x="997.27" y="990.67" width="3.63" height="1.86" class="up-body"/>
<line x1="1004.67" y1="990.22" x2="1004.67" y2="1001.35" class="down-wick"/>
<rect x="1002.85" y="990.67" width="3.63" height="10.15" class="down-body"/>
<line x1="1010.25" y1="986.77" x2="1010.25" y2="1001.00" class="up-wick"/>
<rect x="1008.44" y="986.77" width="3.63" height="14.05" class="up-body"/>
<line x1="1015.83" y1="986.63" x2="1015.83" y2="993.04" class="down-wick"/>
<rect x="1014.02" y="986.80" width="3.63" height="1.00" class="down-body"/>
<line x1="1021.41" y1="984.33" x2="1021.41" y2="994.14" class="down-wick"/>
<rect x="1019.60" y="987.54" width="3.63" height="6.59" class="down-body"/>
<line x1="1026.99" y1="992.15" x2="1026.99" y2="997.63" class="down-wick"/>
<rect x="1025.18" y="994.13" width="3.63" height="1.38" class="down-body"/>
<line x1="1032.57" y1="988.52" x2="1032.57" y2="995.84" class="up-wick"/>
<rect x="1030.76" y="992.50" width="3.63" height="3.01" class="up-body"/>
<line x1="1038.15" y1="992.04" x2="1038.15" y2="994.81" class="down-wick"/>
<rect x="1036.34" y="992.50" width="3.63" height="1.00" class="down-body"/>
<line x1="1043.73" y1="992.22" x2="1043.73" y2="1003.08" class="down-wick"/>
<rect x="1041.92" y="993.27" width="3.63" height="5.24" class="down-body"/>
<line x1="1049.31" y1="994.23" x2="1049.31" y2="1004.57" class="down-wick"/>
<rect x="1047.50" y="998.82" width="3.63" height="1.00" class="down-body"/>
<line x1="1054.89" y1="997.09" x2="1054.89" y2="1002.15" class="up-wick"/>
<rect x="1053.08" y="998.51" width="3.63" height="1.00" class="up-body"/>
<line x1="1060.47" y1="998.54" x2="1060.47" y2="1005.03" class="down-wick"/>
<rect x="1058.66" y="998.54" width="3.63" height="4.57" class="down-body"/>
<line x1="1066.05" y1="1000.29" x2="1066.05" y2="1005.62" class="down-wick"/>
<rect x="1064.24" y="1003.12" width="3.63" height="1.61" class="down-body"/>
<line x1="1071.63" y1="998.65" x2="1071.63" y2="1005.20" class="up-wick"/>
<rect x="1069.82" y="1002.49" width="3.63" height="2.24" class="up-body"/>
<line x1="1077.21" y1="977.15" x2="1077.21" y2="1003.05" class="up-wick"/>
<rect x="1075.40" y="983.31" width="3.63" height="19.21" class="up-body"/>
<line x1="70" y1="907.57" x2="1080" y2="907.57" class="sweep-line"/>
<text x="1076" y="903.57" text-anchor="end" class="level-label">sweep 4486.40</text>
<line x1="70" y1="907.57" x2="1080" y2="907.57" class="entry-line"/>
<text x="1076" y="903.57" text-anchor="end" class="level-label">entry level 4486.40</text>
<text x="70" y="1056" class="axis-label">2026-03-30 01:00:00+00:00 to 2026-03-30 04:00:00+00:00</text>
<text x="1080" y="1056" text-anchor="end" class="axis-label">4411.97 - 4521.54</text>
</svg>