<svg xmlns="http://www.w3.org/2000/svg" width="1120" height="1054" viewBox="0 0 1120 1054">
<style>
text{font-family:Arial,Helvetica,sans-serif}.title{font-size:21px;font-weight:700;fill:#1f2937}.subtitle{font-size:12px;fill:#4b5563}.panel-title{font-size:15px;font-weight:700;fill:#111827}.muted{font-size:13px;fill:#6b7280}.plot-bg{fill:#f8fafc;stroke:#cbd5e1;stroke-width:1}.up-body{fill:#15803d;stroke:#14532d;stroke-width:.8}.down-body{fill:#b91c1c;stroke:#7f1d1d;stroke-width:.8}.up-wick{stroke:#14532d;stroke-width:1}.down-wick{stroke:#7f1d1d;stroke-width:1}.sweep-line{stroke:#7c3aed;stroke-width:1.6;stroke-dasharray:6 4}.number-line{stroke:#0f766e;stroke-width:1.4;stroke-dasharray:3 4}.entry-line{stroke:#2563eb;stroke-width:1.4}.sl-line{stroke:#dc2626;stroke-width:1.4}.tp-line{stroke:#16a34a;stroke-width:1.4}.level-label,.axis-label{font-size:11px;fill:#374151}
</style>
<text x="28" y="28" class="title">Adelin v2 visual review sample sample_093</text>
<text x="28" y="48" class="subtitle">Candidate windows are for visual labeling only and are not trade signals.</text>
<text x="560" y="48" class="subtitle" text-anchor="middle">M15_SWING_HIGH_SWEEP_VISUAL_CANDIDATE | PRE_ANCHOR_SWEEP_EXTREME_CANDIDATE</text>
<text x="70" y="82" class="panel-title">H1 liquidity context</text>
<rect x="70" y="96" width="1010" height="192" class="plot-bg"/>
<line x1="80.31" y1="123.81" x2="80.31" y2="143.58" class="down-wick"/>
<rect x="76.31" y="126.46" width="8.00" height="9.80" class="down-body"/>
<line x1="100.92" y1="133.86" x2="100.92" y2="145.08" class="down-wick"/>
<rect x="96.92" y="136.27" width="8.00" height="5.78" class="down-body"/>
<line x1="121.53" y1="138.90" x2="121.53" y2="156.11" class="down-wick"/>
<rect x="117.53" y="142.05" width="8.00" height="1.00" class="down-body"/>
<line x1="142.14" y1="141.88" x2="142.14" y2="167.02" class="up-wick"/>
<rect x="138.14" y="142.97" width="8.00" height="1.00" class="up-body"/>
<line x1="162.76" y1="136.41" x2="162.76" y2="168.78" class="down-wick"/>
<rect x="158.76" y="142.97" width="8.00" height="8.48" class="down-body"/>
<line x1="183.37" y1="138.16" x2="183.37" y2="160.16" class="up-wick"/>
<rect x="179.37" y="140.73" width="8.00" height="10.71" class="up-body"/>
<line x1="203.98" y1="140.26" x2="203.98" y2="152.31" class="down-wick"/>
<rect x="199.98" y="140.66" width="8.00" height="10.71" class="down-body"/>
<line x1="224.59" y1="142.86" x2="224.59" y2="167.38" class="down-wick"/>
<rect x="220.59" y="151.35" width="8.00" height="8.11" class="down-body"/>
<line x1="245.20" y1="157.49" x2="245.20" y2="177.55" class="down-wick"/>
<rect x="241.20" y="159.46" width="8.00" height="12.26" class="down-body"/>
<line x1="265.82" y1="166.12" x2="265.82" y2="184.31" class="down-wick"/>
<rect x="261.82" y="171.72" width="8.00" height="11.38" class="down-body"/>
<line x1="286.43" y1="180.22" x2="286.43" y2="189.14" class="down-wick"/>
<rect x="282.43" y="183.10" width="8.00" height="2.29" class="down-body"/>
<line x1="307.04" y1="176.55" x2="307.04" y2="190.89" class="down-wick"/>
<rect x="303.04" y="185.47" width="8.00" height="1.79" class="down-body"/>
<line x1="327.65" y1="186.75" x2="327.65" y2="243.84" class="down-wick"/>
<rect x="323.65" y="187.26" width="8.00" height="15.00" class="down-body"/>
<line x1="348.27" y1="192.70" x2="348.27" y2="215.46" class="down-wick"/>
<rect x="344.27" y="202.26" width="8.00" height="2.37" class="down-body"/>
<line x1="368.88" y1="182.67" x2="368.88" y2="206.28" class="up-wick"/>
<rect x="364.88" y="195.58" width="8.00" height="9.05" class="up-body"/>
<line x1="389.49" y1="187.01" x2="389.49" y2="210.61" class="down-wick"/>
<rect x="385.49" y="195.58" width="8.00" height="5.02" class="down-body"/>
<line x1="410.10" y1="178.03" x2="410.10" y2="212.93" class="down-wick"/>
<rect x="406.10" y="200.60" width="8.00" height="3.02" class="down-body"/>
<line x1="430.71" y1="198.24" x2="430.71" y2="261.16" class="down-wick"/>
<rect x="426.71" y="203.62" width="8.00" height="46.94" class="down-body"/>
<line x1="451.33" y1="244.31" x2="451.33" y2="274.76" class="down-wick"/>
<rect x="447.33" y="250.56" width="8.00" height="12.75" class="down-body"/>
<line x1="471.94" y1="238.67" x2="471.94" y2="263.34" class="up-wick"/>
<rect x="467.94" y="249.57" width="8.00" height="13.74" class="up-body"/>
<line x1="492.55" y1="246.02" x2="492.55" y2="264.33" class="down-wick"/>
<rect x="488.55" y="249.57" width="8.00" height="7.15" class="down-body"/>
<line x1="513.16" y1="244.00" x2="513.16" y2="262.58" class="up-wick"/>
<rect x="509.16" y="254.98" width="8.00" height="1.74" class="up-body"/>
<line x1="533.78" y1="247.32" x2="533.78" y2="257.48" class="down-wick"/>
<rect x="529.78" y="248.30" width="8.00" height="7.01" class="down-body"/>
<line x1="554.39" y1="250.47" x2="554.39" y2="256.84" class="up-wick"/>
<rect x="550.39" y="253.56" width="8.00" height="1.74" class="up-body"/>
<line x1="575.00" y1="240.06" x2="575.00" y2="259.92" class="up-wick"/>
<rect x="571.00" y="240.61" width="8.00" height="12.95" class="up-body"/>
<line x1="595.61" y1="226.44" x2="595.61" y2="245.98" class="up-wick"/>
<rect x="591.61" y="227.85" width="8.00" height="12.91" class="up-body"/>
<line x1="616.22" y1="221.03" x2="616.22" y2="235.19" class="down-wick"/>
<rect x="612.22" y="227.85" width="8.00" height="2.17" class="down-body"/>
<line x1="636.84" y1="225.68" x2="636.84" y2="237.90" class="down-wick"/>
<rect x="632.84" y="230.02" width="8.00" height="5.27" class="down-body"/>
<line x1="657.45" y1="232.88" x2="657.45" y2="243.01" class="down-wick"/>
<rect x="653.45" y="235.29" width="8.00" height="1.01" class="down-body"/>
<line x1="678.06" y1="215.07" x2="678.06" y2="238.93" class="up-wick"/>
<rect x="674.06" y="222.24" width="8.00" height="14.04" class="up-body"/>
<line x1="698.67" y1="214.77" x2="698.67" y2="236.30" class="up-wick"/>
<rect x="694.67" y="219.38" width="8.00" height="2.83" class="up-body"/>
<line x1="719.29" y1="207.37" x2="719.29" y2="224.99" class="down-wick"/>
<rect x="715.29" y="219.38" width="8.00" height="3.02" class="down-body"/>
<line x1="739.90" y1="205.75" x2="739.90" y2="222.49" class="up-wick"/>
<rect x="735.90" y="207.10" width="8.00" height="15.30" class="up-body"/>
<line x1="760.51" y1="204.85" x2="760.51" y2="215.94" class="down-wick"/>
<rect x="756.51" y="207.10" width="8.00" height="2.67" class="down-body"/>
<line x1="781.12" y1="209.03" x2="781.12" y2="228.63" class="down-wick"/>
<rect x="777.12" y="209.79" width="8.00" height="14.69" class="down-body"/>
<line x1="801.73" y1="199.55" x2="801.73" y2="229.10" class="up-wick"/>
<rect x="797.73" y="202.09" width="8.00" height="22.38" class="up-body"/>
<line x1="822.35" y1="188.20" x2="822.35" y2="212.24" class="up-wick"/>
<rect x="818.35" y="200.03" width="8.00" height="2.05" class="up-body"/>
<line x1="842.96" y1="175.85" x2="842.96" y2="200.35" class="up-wick"/>
<rect x="838.96" y="182.56" width="8.00" height="17.53" class="up-body"/>
<line x1="863.57" y1="173.90" x2="863.57" y2="198.47" class="up-wick"/>
<rect x="859.57" y="179.06" width="8.00" height="3.49" class="up-body"/>
<line x1="884.18" y1="177.29" x2="884.18" y2="195.60" class="down-wick"/>
<rect x="880.18" y="179.06" width="8.00" height="16.32" class="down-body"/>
<line x1="904.80" y1="194.78" x2="904.80" y2="212.82" class="down-wick"/>
<rect x="900.80" y="195.38" width="8.00" height="8.62" class="down-body"/>
<line x1="925.41" y1="202.16" x2="925.41" y2="213.42" class="down-wick"/>
<rect x="921.41" y="203.98" width="8.00" height="1.62" class="down-body"/>
<line x1="946.02" y1="198.61" x2="946.02" y2="208.13" class="up-wick"/>
<rect x="942.02" y="204.14" width="8.00" height="1.47" class="up-body"/>
<line x1="966.63" y1="203.56" x2="966.63" y2="215.27" class="down-wick"/>
<rect x="962.63" y="204.14" width="8.00" height="7.43" class="down-body"/>
<line x1="987.24" y1="184.91" x2="987.24" y2="221.67" class="up-wick"/>
<rect x="983.24" y="189.67" width="8.00" height="19.92" class="up-body"/>
<line x1="1007.86" y1="163.40" x2="1007.86" y2="194.17" class="up-wick"/>
<rect x="1003.86" y="165.44" width="8.00" height="24.23" class="up-body"/>
<line x1="1028.47" y1="134.82" x2="1028.47" y2="172.31" class="up-wick"/>
<rect x="1024.47" y="136.28" width="8.00" height="29.14" class="up-body"/>
<line x1="1049.08" y1="124.53" x2="1049.08" y2="147.22" class="up-wick"/>
<rect x="1045.08" y="127.78" width="8.00" height="8.71" class="up-body"/>
<line x1="1069.69" y1="109.24" x2="1069.69" y2="128.62" class="up-wick"/>
<rect x="1065.69" y="110.56" width="8.00" height="17.22" class="up-body"/>
<line x1="70" y1="222.05" x2="1080" y2="222.05" class="sweep-line"/>
<text x="1076" y="218.05" text-anchor="end" class="level-label">sweep 4545.82</text>
<line x1="70" y1="224.44" x2="1080" y2="224.44" class="entry-line"/>
<text x="1076" y="220.44" text-anchor="end" class="level-label">entry level 4543.79</text>
<text x="70" y="306" class="axis-label">2026-05-04 01:00:00+00:00 to 2026-05-06 05:00:00+00:00</text>
<text x="1080" y="306" text-anchor="end" class="axis-label">4489.72 - 4653.05</text>
<text x="70" y="332" class="panel-title">M15 liquidity / reaction context</text>
<rect x="70" y="346" width="1010" height="192" class="plot-bg"/>
<line x1="77.77" y1="359.24" x2="77.77" y2="397.07" class="down-wick"/>
<rect x="73.77" y="364.60" width="8.00" height="28.28" class="down-body"/>
<line x1="93.31" y1="382.91" x2="93.31" y2="421.95" class="down-wick"/>
<rect x="89.31" y="392.89" width="8.00" height="28.63" class="down-body"/>
<line x1="108.85" y1="405.61" x2="108.85" y2="495.76" class="down-wick"/>
<rect x="104.85" y="421.52" width="8.00" height="25.06" class="down-body"/>
<line x1="124.38" y1="433.44" x2="124.38" y2="466.84" class="down-wick"/>
<rect x="120.38" y="446.36" width="8.00" height="4.21" class="down-body"/>
<line x1="139.92" y1="450.56" x2="139.92" y2="499.55" class="down-wick"/>
<rect x="135.92" y="450.56" width="8.00" height="29.33" class="down-body"/>
<line x1="155.46" y1="471.44" x2="155.46" y2="524.76" class="down-wick"/>
<rect x="151.46" y="479.89" width="8.00" height="25.86" class="down-body"/>
<line x1="171.00" y1="468.32" x2="171.00" y2="508.18" class="up-wick"/>
<rect x="167.00" y="494.49" width="8.00" height="11.27" class="up-body"/>
<line x1="186.54" y1="485.58" x2="186.54" y2="502.14" class="down-wick"/>
<rect x="182.54" y="494.49" width="8.00" height="5.01" class="down-body"/>
<line x1="202.08" y1="491.88" x2="202.08" y2="510.57" class="down-wick"/>
<rect x="198.08" y="499.50" width="8.00" height="4.03" class="down-body"/>
<line x1="217.62" y1="469.93" x2="217.62" y2="503.60" class="up-wick"/>
<rect x="213.62" y="478.08" width="8.00" height="25.45" class="up-body"/>
<line x1="233.15" y1="457.86" x2="233.15" y2="479.63" class="up-wick"/>
<rect x="229.15" y="473.70" width="8.00" height="4.27" class="up-body"/>
<line x1="248.69" y1="466.71" x2="248.69" y2="479.70" class="up-wick"/>
<rect x="244.69" y="469.96" width="8.00" height="3.75" class="up-body"/>
<line x1="264.23" y1="468.67" x2="264.23" y2="479.85" class="down-wick"/>
<rect x="260.23" y="469.96" width="8.00" height="8.11" class="down-body"/>
<line x1="279.77" y1="471.48" x2="279.77" y2="486.34" class="down-wick"/>
<rect x="275.77" y="478.06" width="8.00" height="5.34" class="down-body"/>
<line x1="295.31" y1="482.73" x2="295.31" y2="505.43" class="down-wick"/>
<rect x="291.31" y="483.34" width="8.00" height="17.56" class="down-body"/>
<line x1="310.85" y1="494.23" x2="310.85" y2="503.77" class="down-wick"/>
<rect x="306.85" y="500.90" width="8.00" height="1.00" class="down-body"/>
<line x1="326.38" y1="490.96" x2="326.38" y2="503.27" class="up-wick"/>
<rect x="322.38" y="491.31" width="8.00" height="9.72" class="up-body"/>
<line x1="341.92" y1="475.97" x2="341.92" y2="502.18" class="up-wick"/>
<rect x="337.92" y="485.49" width="8.00" height="5.82" class="up-body"/>
<line x1="357.46" y1="470.39" x2="357.46" y2="488.70" class="up-wick"/>
<rect x="353.46" y="478.08" width="8.00" height="7.41" class="up-body"/>
<line x1="373.00" y1="467.73" x2="373.00" y2="482.16" class="down-wick"/>
<rect x="369.00" y="478.08" width="8.00" height="2.68" class="down-body"/>
<line x1="388.54" y1="476.01" x2="388.54" y2="493.42" class="down-wick"/>
<rect x="384.54" y="480.76" width="8.00" height="7.32" class="down-body"/>
<line x1="404.08" y1="473.90" x2="404.08" y2="488.13" class="down-wick"/>
<rect x="400.08" y="475.71" width="8.00" height="5.34" class="down-body"/>
<line x1="419.62" y1="477.47" x2="419.62" y2="484.77" class="down-wick"/>
<rect x="415.62" y="481.05" width="8.00" height="2.81" class="down-body"/>
<line x1="435.15" y1="478.69" x2="435.15" y2="485.69" class="down-wick"/>
<rect x="431.15" y="483.88" width="8.00" height="1.20" class="down-body"/>
<line x1="450.69" y1="484.47" x2="450.69" y2="492.73" class="down-wick"/>
<rect x="446.69" y="485.10" width="8.00" height="3.60" class="down-body"/>
<line x1="466.23" y1="480.83" x2="466.23" y2="491.55" class="up-wick"/>
<rect x="462.23" y="482.31" width="8.00" height="6.38" class="up-body"/>
<line x1="481.77" y1="479.74" x2="481.77" y2="484.64" class="up-wick"/>
<rect x="477.77" y="480.81" width="8.00" height="1.50" class="up-body"/>
<line x1="497.31" y1="480.35" x2="497.31" y2="487.19" class="down-wick"/>
<rect x="493.31" y="480.81" width="8.00" height="5.71" class="down-body"/>
<line x1="512.85" y1="481.72" x2="512.85" y2="489.61" class="up-wick"/>
<rect x="508.85" y="485.47" width="8.00" height="1.05" class="up-body"/>
<line x1="528.38" y1="464.66" x2="528.38" y2="488.30" class="up-wick"/>
<rect x="524.38" y="466.08" width="8.00" height="19.39" class="up-body"/>
<line x1="543.92" y1="466.10" x2="543.92" y2="497.26" class="down-wick"/>
<rect x="539.92" y="466.10" width="8.00" height="23.62" class="down-body"/>
<line x1="559.46" y1="473.99" x2="559.46" y2="491.94" class="up-wick"/>
<rect x="555.46" y="474.79" width="8.00" height="14.97" class="up-body"/>
<line x1="575.00" y1="460.43" x2="575.00" y2="474.79" class="up-wick"/>
<rect x="571.00" y="461.46" width="8.00" height="13.34" class="up-body"/>
<line x1="590.54" y1="440.82" x2="590.54" y2="471.42" class="up-wick"/>
<rect x="586.54" y="442.17" width="8.00" height="19.55" class="up-body"/>
<line x1="606.08" y1="439.41" x2="606.08" y2="450.06" class="down-wick"/>
<rect x="602.08" y="442.17" width="8.00" height="2.33" class="down-body"/>
<line x1="621.62" y1="435.18" x2="621.62" y2="452.46" class="down-wick"/>
<rect x="617.62" y="444.51" width="8.00" height="1.87" class="down-body"/>
<line x1="637.15" y1="436.97" x2="637.15" y2="447.86" class="up-wick"/>
<rect x="633.15" y="437.79" width="8.00" height="8.59" class="up-body"/>
<line x1="652.69" y1="434.11" x2="652.69" y2="445.09" class="down-wick"/>
<rect x="648.69" y="437.79" width="8.00" height="5.14" class="down-body"/>
<line x1="668.23" y1="435.92" x2="668.23" y2="451.41" class="up-wick"/>
<rect x="664.23" y="436.07" width="8.00" height="6.91" class="up-body"/>
<line x1="683.77" y1="427.05" x2="683.77" y2="439.43" class="up-wick"/>
<rect x="679.77" y="430.15" width="8.00" height="5.93" class="up-body"/>
<line x1="699.31" y1="425.16" x2="699.31" y2="442.28" class="down-wick"/>
<rect x="695.31" y="430.12" width="8.00" height="11.70" class="down-body"/>
<line x1="714.85" y1="435.09" x2="714.85" y2="445.16" class="up-wick"/>
<rect x="710.85" y="435.27" width="8.00" height="6.56" class="up-body"/>
<line x1="730.38" y1="433.79" x2="730.38" y2="445.77" class="down-wick"/>
<rect x="726.38" y="435.31" width="8.00" height="8.89" class="down-body"/>
<line x1="745.92" y1="441.46" x2="745.92" y2="449.43" class="down-wick"/>
<rect x="741.92" y="444.20" width="8.00" height="4.05" class="down-body"/>
<line x1="761.46" y1="446.03" x2="761.46" y2="456.43" class="down-wick"/>
<rect x="757.46" y="448.28" width="8.00" height="3.31" class="down-body"/>
<line x1="777.00" y1="448.99" x2="777.00" y2="455.86" class="down-wick"/>
<rect x="773.00" y="451.59" width="8.00" height="3.57" class="down-body"/>
<line x1="792.54" y1="453.18" x2="792.54" y2="462.85" class="down-wick"/>
<rect x="788.54" y="455.12" width="8.00" height="7.52" class="down-body"/>
<line x1="808.08" y1="453.37" x2="808.08" y2="465.90" class="up-wick"/>
<rect x="804.08" y="457.88" width="8.00" height="4.77" class="up-body"/>
<line x1="823.62" y1="447.12" x2="823.62" y2="458.65" class="up-wick"/>
<rect x="819.62" y="453.46" width="8.00" height="4.42" class="up-body"/>
<line x1="839.15" y1="427.79" x2="839.15" y2="458.34" class="up-wick"/>
<rect x="835.15" y="438.88" width="8.00" height="14.53" class="up-body"/>
<line x1="854.69" y1="438.60" x2="854.69" y2="449.13" class="down-wick"/>
<rect x="850.69" y="438.88" width="8.00" height="1.00" class="down-body"/>
<line x1="870.23" y1="414.11" x2="870.23" y2="440.04" class="up-wick"/>
<rect x="866.23" y="426.42" width="8.00" height="13.25" class="up-body"/>
<line x1="885.77" y1="420.21" x2="885.77" y2="431.85" class="down-wick"/>
<rect x="881.77" y="426.40" width="8.00" height="1.00" class="down-body"/>
<line x1="901.31" y1="413.56" x2="901.31" y2="436.03" class="down-wick"/>
<rect x="897.31" y="427.36" width="8.00" height="4.47" class="down-body"/>
<line x1="916.85" y1="429.19" x2="916.85" y2="453.46" class="down-wick"/>
<rect x="912.85" y="431.82" width="8.00" height="14.58" class="down-body"/>
<line x1="932.38" y1="419.03" x2="932.38" y2="447.80" class="up-wick"/>
<rect x="928.38" y="426.01" width="8.00" height="20.40" class="up-body"/>
<line x1="947.92" y1="415.83" x2="947.92" y2="427.75" class="up-wick"/>
<rect x="943.92" y="422.11" width="8.00" height="3.90" class="up-body"/>
<line x1="963.46" y1="406.66" x2="963.46" y2="423.39" class="up-wick"/>
<rect x="959.46" y="409.01" width="8.00" height="13.10" class="up-body"/>
<line x1="979.00" y1="405.70" x2="979.00" y2="421.34" class="down-wick"/>
<rect x="975.00" y="409.01" width="8.00" height="11.31" class="down-body"/>
<line x1="994.54" y1="399.84" x2="994.54" y2="420.32" class="up-wick"/>
<rect x="990.54" y="415.26" width="8.00" height="5.06" class="up-body"/>
<line x1="1010.08" y1="413.87" x2="1010.08" y2="432.50" class="down-wick"/>
<rect x="1006.08" y="415.26" width="8.00" height="12.44" class="down-body"/>
<line x1="1025.62" y1="410.62" x2="1025.62" y2="427.86" class="up-wick"/>
<rect x="1021.62" y="415.48" width="8.00" height="12.22" class="up-body"/>
<line x1="1041.15" y1="407.81" x2="1041.15" y2="420.04" class="up-wick"/>
<rect x="1037.15" y="415.13" width="8.00" height="1.00" class="up-body"/>
<line x1="1056.69" y1="411.08" x2="1056.69" y2="422.48" class="down-wick"/>
<rect x="1052.69" y="415.13" width="8.00" height="3.12" class="down-body"/>
<line x1="1072.23" y1="396.83" x2="1072.23" y2="421.65" class="up-wick"/>
<rect x="1068.23" y="399.34" width="8.00" height="18.87" class="up-body"/>
<line x1="70" y1="427.05" x2="1080" y2="427.05" class="sweep-line"/>
<text x="1076" y="423.05" text-anchor="end" class="level-label">sweep 4545.82</text>
<line x1="70" y1="431.48" x2="1080" y2="431.48" class="entry-line"/>
<text x="1076" y="427.48" text-anchor="end" class="level-label">entry level 4543.79</text>
<text x="70" y="556" class="axis-label">2026-05-04 17:45:00+00:00 to 2026-05-05 11:45:00+00:00</text>
<text x="1080" y="556" text-anchor="end" class="axis-label">4494.90 - 4583.02</text>
<text x="70" y="582" class="panel-title">M5 reaction / execution context</text>
<rect x="70" y="596" width="1010" height="192" class="plot-bg"/>
<line x1="79.18" y1="690.09" x2="79.18" y2="720.17" class="down-wick"/>
<rect x="75.18" y="698.93" width="8.00" height="13.58" class="down-body"/>
<line x1="97.55" y1="691.76" x2="97.55" y2="713.76" class="up-wick"/>
<rect x="93.55" y="705.68" width="8.00" height="6.96" class="up-body"/>
<line x1="115.91" y1="702.62" x2="115.91" y2="724.14" class="down-wick"/>
<rect x="111.91" y="705.68" width="8.00" height="1.00" class="down-body"/>
<line x1="134.27" y1="702.90" x2="134.27" y2="731.80" class="down-wick"/>
<rect x="130.27" y="706.38" width="8.00" height="20.89" class="down-body"/>
<line x1="152.64" y1="676.58" x2="152.64" y2="730.47" class="up-wick"/>
<rect x="148.64" y="710.77" width="8.00" height="16.50" class="up-body"/>
<line x1="171.00" y1="695.52" x2="171.00" y2="719.40" class="down-wick"/>
<rect x="167.00" y="710.77" width="8.00" height="1.60" class="down-body"/>
<line x1="189.36" y1="686.32" x2="189.36" y2="717.10" class="up-wick"/>
<rect x="185.36" y="693.43" width="8.00" height="18.94" class="up-body"/>
<line x1="207.73" y1="686.88" x2="207.73" y2="705.75" class="down-wick"/>
<rect x="203.73" y="693.43" width="8.00" height="10.58" class="down-body"/>
<line x1="226.09" y1="682.29" x2="226.09" y2="710.28" class="up-wick"/>
<rect x="222.09" y="684.93" width="8.00" height="19.08" class="up-body"/>
<line x1="244.45" y1="673.16" x2="244.45" y2="696.77" class="down-wick"/>
<rect x="240.45" y="684.93" width="8.00" height="11.56" class="down-body"/>
<line x1="262.82" y1="692.45" x2="262.82" y2="708.26" class="down-wick"/>
<rect x="258.82" y="696.49" width="8.00" height="5.08" class="down-body"/>
<line x1="281.18" y1="690.92" x2="281.18" y2="707.70" class="up-wick"/>
<rect x="277.18" y="701.37" width="8.00" height="1.00" class="up-body"/>
<line x1="299.55" y1="695.79" x2="299.55" y2="722.53" class="down-wick"/>
<rect x="295.55" y="701.50" width="8.00" height="21.03" class="down-body"/>
<line x1="317.91" y1="702.90" x2="317.91" y2="728.45" class="up-wick"/>
<rect x="313.91" y="703.32" width="8.00" height="18.80" class="up-body"/>
<line x1="336.27" y1="678.94" x2="336.27" y2="708.26" class="up-wick"/>
<rect x="332.27" y="679.43" width="8.00" height="23.95" class="up-body"/>
<line x1="354.64" y1="664.74" x2="354.64" y2="690.15" class="down-wick"/>
<rect x="350.64" y="679.43" width="8.00" height="1.18" class="down-body"/>
<line x1="373.00" y1="671.84" x2="373.00" y2="687.86" class="up-wick"/>
<rect x="369.00" y="674.56" width="8.00" height="6.06" class="up-body"/>
<line x1="391.36" y1="650.60" x2="391.36" y2="677.97" class="up-wick"/>
<rect x="387.36" y="660.49" width="8.00" height="14.07" class="up-body"/>
<line x1="409.73" y1="644.55" x2="409.73" y2="670.45" class="down-wick"/>
<rect x="405.73" y="660.42" width="8.00" height="1.32" class="down-body"/>
<line x1="428.09" y1="660.14" x2="428.09" y2="680.27" class="down-wick"/>
<rect x="424.09" y="661.74" width="8.00" height="15.95" class="down-body"/>
<line x1="446.45" y1="676.92" x2="446.45" y2="699.28" class="down-wick"/>
<rect x="442.45" y="677.69" width="8.00" height="20.12" class="down-body"/>
<line x1="464.82" y1="683.82" x2="464.82" y2="708.47" class="up-wick"/>
<rect x="460.82" y="683.82" width="8.00" height="14.00" class="up-body"/>
<line x1="483.18" y1="676.30" x2="483.18" y2="691.83" class="down-wick"/>
<rect x="479.18" y="683.89" width="8.00" height="1.00" class="down-body"/>
<line x1="501.55" y1="676.37" x2="501.55" y2="693.01" class="up-wick"/>
<rect x="497.55" y="676.85" width="8.00" height="7.73" class="up-body"/>
<line x1="519.91" y1="672.12" x2="519.91" y2="692.66" class="down-wick"/>
<rect x="515.91" y="676.99" width="8.00" height="10.31" class="down-body"/>
<line x1="538.27" y1="677.48" x2="538.27" y2="708.26" class="down-wick"/>
<rect x="534.27" y="687.37" width="8.00" height="15.95" class="down-body"/>
<line x1="556.64" y1="694.19" x2="556.64" y2="710.42" class="down-wick"/>
<rect x="552.64" y="703.18" width="8.00" height="2.23" class="down-body"/>
<line x1="575.00" y1="702.27" x2="575.00" y2="714.25" class="up-wick"/>
<rect x="571.00" y="702.76" width="8.00" height="2.65" class="up-body"/>
<line x1="593.36" y1="696.63" x2="593.36" y2="708.54" class="up-wick"/>
<rect x="589.36" y="701.16" width="8.00" height="2.09" class="up-body"/>
<line x1="611.73" y1="701.09" x2="611.73" y2="722.12" class="down-wick"/>
<rect x="607.73" y="701.30" width="8.00" height="17.06" class="down-body"/>
<line x1="630.09" y1="711.25" x2="630.09" y2="720.79" class="up-wick"/>
<rect x="626.09" y="715.99" width="8.00" height="2.44" class="up-body"/>
<line x1="648.45" y1="714.87" x2="648.45" y2="725.53" class="down-wick"/>
<rect x="644.45" y="715.99" width="8.00" height="8.22" class="down-body"/>
<line x1="666.82" y1="719.47" x2="666.82" y2="744.47" class="down-wick"/>
<rect x="662.82" y="724.21" width="8.00" height="4.80" class="down-body"/>
<line x1="685.18" y1="720.72" x2="685.18" y2="739.11" class="up-wick"/>
<rect x="681.18" y="726.09" width="8.00" height="2.92" class="up-body"/>
<line x1="703.55" y1="721.49" x2="703.55" y2="738.20" class="down-wick"/>
<rect x="699.55" y="726.09" width="8.00" height="8.50" class="down-body"/>
<line x1="721.91" y1="731.59" x2="721.91" y2="742.66" class="down-wick"/>
<rect x="717.91" y="734.58" width="8.00" height="5.85" class="down-body"/>
<line x1="740.27" y1="734.09" x2="740.27" y2="756.38" class="down-wick"/>
<rect x="736.27" y="740.29" width="8.00" height="15.04" class="down-body"/>
<line x1="758.64" y1="740.43" x2="758.64" y2="762.57" class="down-wick"/>
<rect x="754.64" y="755.33" width="8.00" height="1.00" class="down-body"/>
<line x1="777.00" y1="753.10" x2="777.00" y2="765.01" class="down-wick"/>
<rect x="773.00" y="755.96" width="8.00" height="8.36" class="down-body"/>
<line x1="795.36" y1="734.72" x2="795.36" y2="774.76" class="up-wick"/>
<rect x="791.36" y="739.94" width="8.00" height="24.44" class="up-body"/>
<line x1="813.73" y1="736.53" x2="813.73" y2="750.74" class="down-wick"/>
<rect x="809.73" y="739.94" width="8.00" height="7.87" class="down-body"/>
<line x1="832.09" y1="745.51" x2="832.09" y2="751.85" class="down-wick"/>
<rect x="828.09" y="747.81" width="8.00" height="1.32" class="down-body"/>
<line x1="850.45" y1="728.66" x2="850.45" y2="751.57" class="up-wick"/>
<rect x="846.45" y="728.73" width="8.00" height="20.40" class="up-body"/>
<line x1="868.82" y1="714.74" x2="868.82" y2="735.21" class="up-wick"/>
<rect x="864.82" y="727.13" width="8.00" height="1.60" class="up-body"/>
<line x1="887.18" y1="726.92" x2="887.18" y2="750.39" class="down-wick"/>
<rect x="883.18" y="727.13" width="8.00" height="7.87" class="down-body"/>
<line x1="905.55" y1="711.67" x2="905.55" y2="750.60" class="up-wick"/>
<rect x="901.55" y="711.74" width="8.00" height="23.12" class="up-body"/>
<line x1="923.91" y1="652.97" x2="923.91" y2="716.55" class="up-wick"/>
<rect x="919.91" y="669.20" width="8.00" height="42.55" class="up-body"/>
<line x1="942.27" y1="661.40" x2="942.27" y2="692.10" class="down-wick"/>
<rect x="938.27" y="669.20" width="8.00" height="19.22" class="down-body"/>
<line x1="960.64" y1="687.51" x2="960.64" y2="721.14" class="down-wick"/>
<rect x="956.64" y="688.41" width="8.00" height="25.76" class="down-body"/>
<line x1="979.00" y1="694.26" x2="979.00" y2="714.60" class="up-wick"/>
<rect x="975.00" y="695.24" width="8.00" height="18.94" class="up-body"/>
<line x1="997.36" y1="690.09" x2="997.36" y2="706.52" class="up-wick"/>
<rect x="993.36" y="690.92" width="8.00" height="4.32" class="up-body"/>
<line x1="1015.73" y1="639.53" x2="1015.73" y2="692.10" class="up-wick"/>
<rect x="1011.73" y="641.41" width="8.00" height="49.51" class="up-body"/>
<line x1="1034.09" y1="613.91" x2="1034.09" y2="644.34" class="up-wick"/>
<rect x="1030.09" y="632.15" width="8.00" height="8.98" class="up-body"/>
<line x1="1052.45" y1="609.24" x2="1052.45" y2="649.21" class="down-wick"/>
<rect x="1048.45" y="632.29" width="8.00" height="16.29" class="down-body"/>
<line x1="1070.82" y1="634.45" x2="1070.82" y2="654.02" class="up-wick"/>
<rect x="1066.82" y="639.11" width="8.00" height="9.40" class="up-body"/>
<line x1="70" y1="650.60" x2="1080" y2="650.60" class="sweep-line"/>
<text x="1076" y="646.60" text-anchor="end" class="level-label">sweep 4545.82</text>
<line x1="70" y1="664.74" x2="1080" y2="664.74" class="entry-line"/>
<text x="1076" y="660.74" text-anchor="end" class="level-label">entry level 4543.79</text>
<text x="70" y="806" class="axis-label">2026-05-05 04:15:00+00:00 to 2026-05-05 08:45:00+00:00</text>
<text x="1080" y="806" text-anchor="end" class="axis-label">4526.09 - 4553.66</text>
<text x="70" y="832" class="panel-title">M1 execution window</text>
<rect x="70" y="846" width="1010" height="192" class="plot-bg"/>
<line x1="73.71" y1="945.03" x2="73.71" y2="955.95" class="up-wick"/>
<rect x="71.30" y="948.84" width="4.83" height="5.68" class="up-body"/>
<line x1="81.14" y1="950.26" x2="81.14" y2="960.29" class="down-wick"/>
<rect x="78.73" y="953.11" width="4.83" height="4.86" class="down-body"/>
<line x1="88.57" y1="965.00" x2="88.57" y2="977.34" class="up-wick"/>
<rect x="86.15" y="969.11" width="4.83" height="2.69" class="up-body"/>
<line x1="95.99" y1="950.71" x2="95.99" y2="970.01" class="up-wick"/>
<rect x="93.58" y="957.44" width="4.83" height="3.81" class="up-body"/>
<line x1="103.42" y1="955.65" x2="103.42" y2="967.32" class="down-wick"/>
<rect x="101.01" y="955.65" width="4.83" height="5.16" class="down-body"/>
<line x1="110.85" y1="960.81" x2="110.85" y2="979.06" class="down-wick"/>
<rect x="108.43" y="961.78" width="4.83" height="17.20" class="down-body"/>
<line x1="118.27" y1="971.36" x2="118.27" y2="981.60" class="down-wick"/>
<rect x="115.86" y="976.97" width="4.83" height="1.12" class="down-body"/>
<line x1="125.70" y1="958.49" x2="125.70" y2="977.41" class="up-wick"/>
<rect x="123.28" y="962.53" width="4.83" height="14.66" class="up-body"/>
<line x1="133.12" y1="962.76" x2="133.12" y2="989.68" class="down-wick"/>
<rect x="130.71" y="963.28" width="4.83" height="20.94" class="down-body"/>
<line x1="140.55" y1="972.93" x2="140.55" y2="987.66" class="up-wick"/>
<rect x="138.14" y="976.44" width="4.83" height="6.96" class="up-body"/>
<line x1="147.98" y1="979.06" x2="147.98" y2="988.41" class="up-wick"/>
<rect x="145.56" y="983.70" width="4.83" height="1.27" class="up-body"/>
<line x1="155.40" y1="930.52" x2="155.40" y2="952.96" class="up-wick"/>
<rect x="152.99" y="948.92" width="4.83" height="1.00" class="up-body"/>
<line x1="162.83" y1="949.44" x2="162.83" y2="969.34" class="down-wick"/>
<rect x="160.42" y="953.26" width="4.83" height="13.99" class="down-body"/>
<line x1="170.26" y1="957.74" x2="170.26" y2="971.28" class="down-wick"/>
<rect x="167.84" y="962.38" width="4.83" height="6.06" class="down-body"/>
<line x1="177.68" y1="956.77" x2="177.68" y2="976.52" class="up-wick"/>
<rect x="175.27" y="957.89" width="4.83" height="7.11" class="up-body"/>
<line x1="185.11" y1="964.92" x2="185.11" y2="974.05" class="up-wick"/>
<rect x="182.70" y="967.24" width="4.83" height="1.72" class="up-body"/>
<line x1="192.54" y1="960.14" x2="192.54" y2="966.12" class="up-wick"/>
<rect x="190.12" y="960.59" width="4.83" height="5.46" class="up-body"/>
<line x1="199.96" y1="940.99" x2="199.96" y2="953.26" class="down-wick"/>
<rect x="197.55" y="946.75" width="4.83" height="1.87" class="down-body"/>
<line x1="207.39" y1="945.18" x2="207.39" y2="956.02" class="down-wick"/>
<rect x="204.98" y="949.29" width="4.83" height="2.62" class="down-body"/>
<line x1="214.82" y1="941.59" x2="214.82" y2="953.85" class="up-wick"/>
<rect x="212.40" y="946.90" width="4.83" height="5.68" class="up-body"/>
<line x1="222.24" y1="954.53" x2="222.24" y2="966.72" class="up-wick"/>
<rect x="219.83" y="955.13" width="4.83" height="4.86" class="up-body"/>
<line x1="229.67" y1="942.93" x2="229.67" y2="952.88" class="up-wick"/>
<rect x="227.26" y="947.65" width="4.83" height="3.52" class="up-body"/>
<line x1="237.10" y1="936.65" x2="237.10" y2="948.69" class="up-wick"/>
<rect x="234.68" y="939.49" width="4.83" height="4.41" class="up-body"/>
<line x1="244.52" y1="928.72" x2="244.52" y2="941.96" class="up-wick"/>
<rect x="242.11" y="929.47" width="4.83" height="9.65" class="up-body"/>
<line x1="251.95" y1="929.77" x2="251.95" y2="940.84" class="up-wick"/>
<rect x="249.53" y="932.16" width="4.83" height="8.08" class="up-body"/>
<line x1="259.38" y1="947.57" x2="259.38" y2="962.23" class="down-wick"/>
<rect x="256.96" y="951.91" width="4.83" height="5.31" class="down-body"/>
<line x1="266.80" y1="951.69" x2="266.80" y2="960.59" class="up-wick"/>
<rect x="264.39" y="954.08" width="4.83" height="2.47" class="up-body"/>
<line x1="274.23" y1="948.02" x2="274.23" y2="959.54" class="down-wick"/>
<rect x="271.81" y="949.44" width="4.83" height="7.93" class="down-body"/>
<line x1="281.65" y1="945.93" x2="281.65" y2="957.37" class="up-wick"/>
<rect x="279.24" y="947.50" width="4.83" height="8.75" class="up-body"/>
<line x1="289.08" y1="947.50" x2="289.08" y2="955.95" class="down-wick"/>
<rect x="286.67" y="951.76" width="4.83" height="3.96" class="down-body"/>
<line x1="296.51" y1="955.43" x2="296.51" y2="961.93" class="up-wick"/>
<rect x="294.09" y="956.10" width="4.83" height="1.20" class="up-body"/>
<line x1="303.93" y1="957.59" x2="303.93" y2="963.65" class="down-wick"/>
<rect x="301.52" y="958.27" width="4.83" height="2.84" class="down-body"/>
<line x1="311.36" y1="968.07" x2="311.36" y2="979.88" class="down-wick"/>
<rect x="308.95" y="970.31" width="4.83" height="9.57" class="down-body"/>
<line x1="318.79" y1="964.48" x2="318.79" y2="976.14" class="up-wick"/>
<rect x="316.37" y="966.20" width="4.83" height="4.94" class="up-body"/>
<line x1="326.21" y1="961.11" x2="326.21" y2="967.09" class="up-wick"/>
<rect x="323.80" y="961.63" width="4.83" height="5.39" class="up-body"/>
<line x1="333.64" y1="958.04" x2="333.64" y2="964.55" class="down-wick"/>
<rect x="331.23" y="959.31" width="4.83" height="3.14" class="down-body"/>
<line x1="341.07" y1="941.51" x2="341.07" y2="948.47" class="up-wick"/>
<rect x="338.65" y="941.74" width="4.83" height="6.66" class="up-body"/>
<line x1="348.49" y1="933.59" x2="348.49" y2="940.47" class="up-wick"/>
<rect x="346.08" y="933.59" width="4.83" height="2.84" class="up-body"/>
<line x1="355.92" y1="930.44" x2="355.92" y2="938.30" class="down-wick"/>
<rect x="353.51" y="933.66" width="4.83" height="1.00" class="down-body"/>
<line x1="363.35" y1="921.69" x2="363.35" y2="936.80" class="down-wick"/>
<rect x="360.93" y="923.79" width="4.83" height="10.55" class="down-body"/>
<line x1="370.77" y1="934.86" x2="370.77" y2="942.64" class="down-wick"/>
<rect x="368.36" y="934.86" width="4.83" height="2.17" class="down-body"/>
<line x1="378.20" y1="927.75" x2="378.20" y2="935.53" class="down-wick"/>
<rect x="375.78" y="931.87" width="4.83" height="2.17" class="down-body"/>
<line x1="385.62" y1="925.43" x2="385.62" y2="935.23" class="up-wick"/>
<rect x="383.21" y="928.35" width="4.83" height="6.88" class="up-body"/>
<line x1="393.05" y1="921.92" x2="393.05" y2="932.02" class="up-wick"/>
<rect x="390.64" y="926.33" width="4.83" height="1.05" class="up-body"/>
<line x1="400.48" y1="902.62" x2="400.48" y2="917.28" class="up-wick"/>
<rect x="398.06" y="907.56" width="4.83" height="9.72" class="up-body"/>
<line x1="407.90" y1="908.16" x2="407.90" y2="918.78" class="down-wick"/>
<rect x="405.49" y="913.17" width="4.83" height="3.96" class="down-body"/>
<line x1="415.33" y1="905.91" x2="415.33" y2="915.64" class="up-wick"/>
<rect x="412.92" y="906.29" width="4.83" height="9.35" class="up-body"/>
<line x1="422.76" y1="896.41" x2="422.76" y2="923.11" class="down-wick"/>
<rect x="420.34" y="900.45" width="4.83" height="14.14" class="down-body"/>
<line x1="430.18" y1="919.38" x2="430.18" y2="929.10" class="up-wick"/>
<rect x="427.77" y="919.67" width="4.83" height="8.45" class="up-body"/>
<line x1="437.61" y1="923.64" x2="437.61" y2="928.35" class="down-wick"/>
<rect x="435.20" y="924.61" width="4.83" height="1.05" class="down-body"/>
<line x1="445.04" y1="930.89" x2="445.04" y2="939.27" class="down-wick"/>
<rect x="442.62" y="931.72" width="4.83" height="5.61" class="down-body"/>
<line x1="452.46" y1="936.43" x2="452.46" y2="940.69" class="down-wick"/>
<rect x="450.05" y="939.12" width="4.83" height="1.00" class="down-body"/>
<line x1="459.89" y1="938.75" x2="459.89" y2="954.90" class="down-wick"/>
<rect x="457.48" y="938.82" width="4.83" height="14.51" class="down-body"/>
<line x1="467.32" y1="943.98" x2="467.32" y2="964.18" class="up-wick"/>
<rect x="464.90" y="948.39" width="4.83" height="15.78" class="up-body"/>
<line x1="474.74" y1="939.27" x2="474.74" y2="949.52" class="down-wick"/>
<rect x="472.33" y="939.27" width="4.83" height="4.04" class="down-body"/>
<line x1="482.17" y1="932.16" x2="482.17" y2="938.75" class="up-wick"/>
<rect x="479.76" y="934.48" width="4.83" height="3.89" class="up-body"/>
<line x1="489.60" y1="933.96" x2="489.60" y2="944.58" class="down-wick"/>
<rect x="487.18" y="933.96" width="4.83" height="8.68" class="down-body"/>
<line x1="497.02" y1="937.85" x2="497.02" y2="946.90" class="up-wick"/>
<rect x="494.61" y="938.97" width="4.83" height="5.61" class="up-body"/>
<line x1="504.45" y1="941.74" x2="504.45" y2="948.17" class="up-wick"/>
<rect x="502.03" y="942.26" width="4.83" height="2.77" class="up-body"/>
<line x1="511.88" y1="930.29" x2="511.88" y2="937.70" class="up-wick"/>
<rect x="509.46" y="935.75" width="4.83" height="1.35" class="up-body"/>
<line x1="519.30" y1="925.73" x2="519.30" y2="933.59" class="down-wick"/>
<rect x="516.89" y="930.97" width="4.83" height="1.94" class="down-body"/>
<line x1="526.73" y1="930.82" x2="526.73" y2="942.26" class="down-wick"/>
<rect x="524.31" y="930.82" width="4.83" height="10.47" class="down-body"/>
<line x1="534.15" y1="941.51" x2="534.15" y2="947.80" class="up-wick"/>
<rect x="531.74" y="942.04" width="4.83" height="2.54" class="up-body"/>
<line x1="541.58" y1="939.79" x2="541.58" y2="942.64" class="down-wick"/>
<rect x="539.17" y="940.54" width="4.83" height="1.94" class="down-body"/>
<line x1="549.01" y1="943.76" x2="549.01" y2="957.97" class="down-wick"/>
<rect x="546.59" y="943.83" width="4.83" height="13.46" class="down-body"/>
<line x1="556.43" y1="957.22" x2="556.43" y2="963.13" class="up-wick"/>
<rect x="554.02" y="958.12" width="4.83" height="1.00" class="up-body"/>
<line x1="563.86" y1="949.44" x2="563.86" y2="957.07" class="up-wick"/>
<rect x="561.45" y="951.61" width="4.83" height="4.11" class="up-body"/>
<line x1="571.29" y1="959.91" x2="571.29" y2="964.92" class="up-wick"/>
<rect x="568.87" y="961.48" width="4.83" height="2.54" class="up-body"/>
<line x1="578.71" y1="962.83" x2="578.71" y2="970.98" class="up-wick"/>
<rect x="576.30" y="962.98" width="4.83" height="2.32" class="up-body"/>
<line x1="586.14" y1="962.68" x2="586.14" y2="968.59" class="down-wick"/>
<rect x="583.73" y="967.02" width="4.83" height="1.00" class="down-body"/>
<line x1="593.57" y1="954.30" x2="593.57" y2="964.85" class="up-wick"/>
<rect x="591.15" y="957.44" width="4.83" height="1.72" class="up-body"/>
<line x1="600.99" y1="952.06" x2="600.99" y2="961.11" class="up-wick"/>
<rect x="598.58" y="956.92" width="4.83" height="1.50" class="up-body"/>
<line x1="608.42" y1="953.85" x2="608.42" y2="963.50" class="up-wick"/>
<rect x="606.01" y="956.92" width="4.83" height="6.06" class="up-body"/>
<line x1="615.85" y1="961.03" x2="615.85" y2="965.00" class="down-wick"/>
<rect x="613.43" y="963.43" width="4.83" height="1.50" class="down-body"/>
<line x1="623.27" y1="969.79" x2="623.27" y2="979.43" class="down-wick"/>
<rect x="620.86" y="969.86" width="4.83" height="5.53" class="down-body"/>
<line x1="630.70" y1="970.76" x2="630.70" y2="977.94" class="up-wick"/>
<rect x="628.28" y="970.76" width="4.83" height="4.71" class="up-body"/>
<line x1="638.12" y1="967.77" x2="638.12" y2="974.05" class="down-wick"/>
<rect x="635.71" y="967.84" width="4.83" height="6.21" class="down-body"/>
<line x1="645.55" y1="969.26" x2="645.55" y2="978.01" class="up-wick"/>
<rect x="643.14" y="972.85" width="4.83" height="3.29" class="up-body"/>
<line x1="652.98" y1="975.10" x2="652.98" y2="982.50" class="down-wick"/>
<rect x="650.56" y="975.10" width="4.83" height="7.18" class="down-body"/>
<line x1="660.40" y1="972.33" x2="660.40" y2="982.05" class="up-wick"/>
<rect x="657.99" y="972.93" width="4.83" height="7.18" class="up-body"/>
<line x1="667.83" y1="976.59" x2="667.83" y2="981.68" class="up-wick"/>
<rect x="665.42" y="981.38" width="4.83" height="1.00" class="up-body"/>
<line x1="675.26" y1="980.48" x2="675.26" y2="993.87" class="down-wick"/>
<rect x="672.84" y="982.35" width="4.83" height="11.52" class="down-body"/>
<line x1="682.68" y1="979.66" x2="682.68" y2="987.59" class="down-wick"/>
<rect x="680.27" y="979.66" width="4.83" height="7.18" class="down-body"/>
<line x1="690.11" y1="978.46" x2="690.11" y2="984.97" class="up-wick"/>
<rect x="687.70" y="980.03" width="4.83" height="2.92" class="up-body"/>
<line x1="697.54" y1="984.97" x2="697.54" y2="997.68" class="down-wick"/>
<rect x="695.12" y="985.04" width="4.83" height="10.02" class="down-body"/>
<line x1="704.96" y1="978.76" x2="704.96" y2="984.07" class="up-wick"/>
<rect x="702.55" y="980.63" width="4.83" height="3.07" class="up-body"/>
<line x1="712.39" y1="987.29" x2="712.39" y2="996.71" class="up-wick"/>
<rect x="709.98" y="988.86" width="4.83" height="1.57" class="up-body"/>
<line x1="719.82" y1="985.64" x2="719.82" y2="992.82" class="down-wick"/>
<rect x="717.40" y="990.58" width="4.83" height="2.24" class="down-body"/>
<line x1="727.24" y1="989.61" x2="727.24" y2="993.57" class="up-wick"/>
<rect x="724.83" y="992.82" width="4.83" height="1.00" class="up-body"/>
<line x1="734.67" y1="991.25" x2="734.67" y2="999.40" class="down-wick"/>
<rect x="732.26" y="992.52" width="4.83" height="6.88" class="down-body"/>
<line x1="742.10" y1="994.02" x2="742.10" y2="1001.72" class="up-wick"/>
<rect x="739.68" y="994.62" width="4.83" height="4.34" class="up-body"/>
<line x1="749.52" y1="993.64" x2="749.52" y2="1000.75" class="up-wick"/>
<rect x="747.11" y="994.02" width="4.83" height="6.73" class="up-body"/>
<line x1="756.95" y1="1009.05" x2="756.95" y2="1015.56" class="down-wick"/>
<rect x="754.53" y="1010.55" width="4.83" height="4.56" class="down-body"/>
<line x1="764.38" y1="1004.71" x2="764.38" y2="1020.27" class="up-wick"/>
<rect x="761.96" y="1006.73" width="4.83" height="12.49" class="up-body"/>
<line x1="771.80" y1="1000.82" x2="771.80" y2="1009.13" class="up-wick"/>
<rect x="769.39" y="1000.82" width="4.83" height="7.11" class="up-body"/>
<line x1="779.23" y1="1012.87" x2="779.23" y2="1022.14" class="up-wick"/>
<rect x="776.81" y="1013.69" width="4.83" height="2.09" class="up-body"/>
<line x1="786.65" y1="1012.72" x2="786.65" y2="1017.65" class="down-wick"/>
<rect x="784.24" y="1015.93" width="4.83" height="1.00" class="down-body"/>
<line x1="794.08" y1="1018.55" x2="794.08" y2="1024.76" class="down-wick"/>
<rect x="791.67" y="1019.82" width="4.83" height="4.94" class="down-body"/>
<line x1="801.51" y1="1009.20" x2="801.51" y2="1024.38" class="up-wick"/>
<rect x="799.09" y="1009.20" width="4.83" height="8.30" class="up-body"/>
<line x1="808.93" y1="995.66" x2="808.93" y2="1008.15" class="up-wick"/>
<rect x="806.52" y="999.03" width="4.83" height="1.00" class="up-body"/>
<line x1="816.36" y1="994.92" x2="816.36" y2="1008.60" class="down-wick"/>
<rect x="813.95" y="998.58" width="4.83" height="10.02" class="down-body"/>
<line x1="823.79" y1="1000.75" x2="823.79" y2="1005.39" class="down-wick"/>
<rect x="821.37" y="1003.82" width="4.83" height="1.00" class="down-body"/>
<line x1="831.21" y1="1005.76" x2="831.21" y2="1010.17" class="down-wick"/>
<rect x="828.80" y="1006.96" width="4.83" height="1.00" class="down-body"/>
<line x1="838.64" y1="1004.64" x2="838.64" y2="1009.20" class="up-wick"/>
<rect x="836.23" y="1006.28" width="4.83" height="2.92" class="up-body"/>
<line x1="846.07" y1="1007.41" x2="846.07" y2="1011.15" class="up-wick"/>
<rect x="843.65" y="1008.83" width="4.83" height="1.65" class="up-body"/>
<line x1="853.49" y1="1007.18" x2="853.49" y2="1011.07" class="up-wick"/>
<rect x="851.08" y="1008.23" width="4.83" height="1.00" class="up-body"/>
<line x1="860.92" y1="987.96" x2="860.92" y2="995.07" class="up-wick"/>
<rect x="858.51" y="991.92" width="4.83" height="1.72" class="up-body"/>
<line x1="868.35" y1="986.46" x2="868.35" y2="994.69" class="up-wick"/>
<rect x="865.93" y="986.54" width="4.83" height="7.85" class="up-body"/>
<line x1="875.77" y1="982.50" x2="875.77" y2="989.68" class="down-wick"/>
<rect x="873.36" y="985.12" width="4.83" height="4.19" class="down-body"/>
<line x1="883.20" y1="973.15" x2="883.20" y2="993.50" class="up-wick"/>
<rect x="880.78" y="975.69" width="4.83" height="13.31" class="up-body"/>
<line x1="890.62" y1="984.59" x2="890.62" y2="1007.03" class="down-wick"/>
<rect x="888.21" y="984.82" width="4.83" height="21.54" class="down-body"/>
<line x1="898.05" y1="1001.50" x2="898.05" y2="1009.80" class="up-wick"/>
<rect x="895.64" y="1002.17" width="4.83" height="1.00" class="up-body"/>
<line x1="905.48" y1="992.07" x2="905.48" y2="1000.82" class="up-wick"/>
<rect x="903.06" y="993.27" width="4.83" height="6.36" class="up-body"/>
<line x1="912.90" y1="986.31" x2="912.90" y2="1010.02" class="up-wick"/>
<rect x="910.49" y="987.06" width="4.83" height="22.66" class="up-body"/>
<line x1="920.33" y1="970.68" x2="920.33" y2="979.21" class="down-wick"/>
<rect x="917.92" y="977.94" width="4.83" height="1.20" class="down-body"/>
<line x1="927.76" y1="967.54" x2="927.76" y2="973.45" class="down-wick"/>
<rect x="925.34" y="968.29" width="4.83" height="2.17" class="down-body"/>
<line x1="935.18" y1="930.07" x2="935.18" y2="958.57" class="up-wick"/>
<rect x="932.77" y="930.52" width="4.83" height="28.05" class="up-body"/>
<line x1="942.61" y1="907.41" x2="942.61" y2="925.13" class="down-wick"/>
<rect x="940.20" y="910.10" width="4.83" height="12.49" class="down-body"/>
<line x1="950.04" y1="925.13" x2="950.04" y2="934.56" class="down-wick"/>
<rect x="947.62" y="926.03" width="4.83" height="1.00" class="down-body"/>
<line x1="957.46" y1="932.02" x2="957.46" y2="947.20" class="down-wick"/>
<rect x="955.05" y="935.38" width="4.83" height="1.72" class="down-body"/>
<line x1="964.89" y1="942.26" x2="964.89" y2="948.92" class="down-wick"/>
<rect x="962.48" y="943.23" width="4.83" height="5.16" class="down-body"/>
<line x1="972.32" y1="951.16" x2="972.32" y2="966.12" class="down-wick"/>
<rect x="969.90" y="951.76" width="4.83" height="13.91" class="down-body"/>
<line x1="979.74" y1="966.64" x2="979.74" y2="976.74" class="up-wick"/>
<rect x="977.33" y="970.91" width="4.83" height="2.92" class="up-body"/>
<line x1="987.17" y1="957.67" x2="987.17" y2="971.36" class="up-wick"/>
<rect x="984.76" y="961.78" width="4.83" height="7.33" class="up-body"/>
<line x1="994.60" y1="955.95" x2="994.60" y2="962.31" class="up-wick"/>
<rect x="992.18" y="958.34" width="4.83" height="3.59" class="up-body"/>
<line x1="1002.02" y1="945.78" x2="1002.02" y2="955.72" class="up-wick"/>
<rect x="999.61" y="946.23" width="4.83" height="4.34" class="up-body"/>
<line x1="1009.45" y1="949.74" x2="1009.45" y2="956.77" class="down-wick"/>
<rect x="1007.03" y="952.58" width="4.83" height="1.00" class="down-body"/>
<line x1="1016.88" y1="945.03" x2="1016.88" y2="951.84" class="up-wick"/>
<rect x="1014.46" y="945.93" width="4.83" height="2.47" class="up-body"/>
<line x1="1024.30" y1="926.78" x2="1024.30" y2="937.25" class="up-wick"/>
<rect x="1021.89" y="931.34" width="4.83" height="1.94" class="up-body"/>
<line x1="1031.73" y1="920.42" x2="1031.73" y2="946.00" class="up-wick"/>
<rect x="1029.31" y="925.51" width="4.83" height="20.49" class="up-body"/>
<line x1="1039.15" y1="863.21" x2="1039.15" y2="895.89" class="up-wick"/>
<rect x="1036.74" y="872.26" width="4.83" height="20.19" class="up-body"/>
<line x1="1046.58" y1="875.92" x2="1046.58" y2="892.00" class="up-wick"/>
<rect x="1044.17" y="878.76" width="4.83" height="9.42" class="up-body"/>
<line x1="1054.01" y1="863.65" x2="1054.01" y2="882.80" class="down-wick"/>
<rect x="1051.59" y="875.47" width="4.83" height="7.33" class="down-body"/>
<line x1="1061.43" y1="867.77" x2="1061.43" y2="877.27" class="down-wick"/>
<rect x="1059.02" y="871.21" width="4.83" height="5.16" class="down-body"/>
<line x1="1068.86" y1="859.24" x2="1068.86" y2="901.13" class="down-wick"/>
<rect x="1066.45" y="859.24" width="4.83" height="37.10" class="down-body"/>
<line x1="1076.29" y1="897.91" x2="1076.29" y2="906.29" class="up-wick"/>
<rect x="1073.87" y="898.88" width="4.83" height="1.50" class="up-body"/>
<line x1="70" y1="902.62" x2="1080" y2="902.62" class="sweep-line"/>
<text x="1076" y="898.62" text-anchor="end" class="level-label">sweep 4545.82</text>
<line x1="70" y1="917.80" x2="1080" y2="917.80" class="entry-line"/>
<text x="1076" y="913.80" text-anchor="end" class="level-label">entry level 4543.79</text>
<text x="70" y="1056" class="axis-label">2026-05-05 04:15:00+00:00 to 2026-05-05 08:45:00+00:00</text>
<text x="1080" y="1056" text-anchor="end" class="axis-label">4527.72 - 4553.39</text>
</svg>