<svg xmlns="http://www.w3.org/2000/svg" width="1120" height="1054" viewBox="0 0 1120 1054">
<style>
text{font-family:Arial,Helvetica,sans-serif}.title{font-size:21px;font-weight:700;fill:#1f2937}.subtitle{font-size:12px;fill:#4b5563}.panel-title{font-size:15px;font-weight:700;fill:#111827}.muted{font-size:13px;fill:#6b7280}.plot-bg{fill:#f8fafc;stroke:#cbd5e1;stroke-width:1}.up-body{fill:#15803d;stroke:#14532d;stroke-width:.8}.down-body{fill:#b91c1c;stroke:#7f1d1d;stroke-width:.8}.up-wick{stroke:#14532d;stroke-width:1}.down-wick{stroke:#7f1d1d;stroke-width:1}.sweep-line{stroke:#7c3aed;stroke-width:1.6;stroke-dasharray:6 4}.number-line{stroke:#0f766e;stroke-width:1.4;stroke-dasharray:3 4}.entry-line{stroke:#2563eb;stroke-width:1.4}.sl-line{stroke:#dc2626;stroke-width:1.4}.tp-line{stroke:#16a34a;stroke-width:1.4}.level-label,.axis-label{font-size:11px;fill:#374151}
</style>
<text x="28" y="28" class="title">Adelin v2 visual review sample sample_193</text>
<text x="28" y="48" class="subtitle">Candidate windows are for visual labeling only and are not trade signals.</text>
<text x="560" y="48" class="subtitle" text-anchor="middle">NUMBER_THEORY_LEVEL_NEAR | ROUND_LEVEL_ENTRY_METADATA_AVAILABLE</text>
<text x="70" y="82" class="panel-title">H1 liquidity context</text>
<rect x="70" y="96" width="1010" height="192" class="plot-bg"/>
<line x1="81.48" y1="129.28" x2="81.48" y2="142.52" class="up-wick"/>
<rect x="77.48" y="131.74" width="8.00" height="10.67" class="up-body"/>
<line x1="104.43" y1="128.37" x2="104.43" y2="138.55" class="down-wick"/>
<rect x="100.43" y="131.74" width="8.00" height="6.30" class="down-body"/>
<line x1="127.39" y1="129.64" x2="127.39" y2="138.91" class="up-wick"/>
<rect x="123.39" y="132.24" width="8.00" height="5.78" class="up-body"/>
<line x1="150.34" y1="132.24" x2="150.34" y2="150.46" class="down-wick"/>
<rect x="146.34" y="132.24" width="8.00" height="15.41" class="down-body"/>
<line x1="173.30" y1="138.78" x2="173.30" y2="151.65" class="up-wick"/>
<rect x="169.30" y="145.09" width="8.00" height="2.57" class="up-body"/>
<line x1="196.25" y1="142.18" x2="196.25" y2="160.03" class="down-wick"/>
<rect x="192.25" y="145.09" width="8.00" height="6.98" class="down-body"/>
<line x1="219.20" y1="136.23" x2="219.20" y2="152.19" class="up-wick"/>
<rect x="215.20" y="143.57" width="8.00" height="8.50" class="up-body"/>
<line x1="242.16" y1="136.31" x2="242.16" y2="150.85" class="up-wick"/>
<rect x="238.16" y="139.02" width="8.00" height="4.53" class="up-body"/>
<line x1="265.11" y1="129.93" x2="265.11" y2="142.10" class="up-wick"/>
<rect x="261.11" y="130.47" width="8.00" height="8.55" class="up-body"/>
<line x1="288.07" y1="119.29" x2="288.07" y2="137.04" class="up-wick"/>
<rect x="284.07" y="127.55" width="8.00" height="2.92" class="up-body"/>
<line x1="311.02" y1="120.94" x2="311.02" y2="132.84" class="up-wick"/>
<rect x="307.02" y="124.96" width="8.00" height="2.59" class="up-body"/>
<line x1="333.98" y1="109.24" x2="333.98" y2="131.01" class="down-wick"/>
<rect x="329.98" y="124.96" width="8.00" height="1.00" class="down-body"/>
<line x1="356.93" y1="115.37" x2="356.93" y2="140.60" class="down-wick"/>
<rect x="352.93" y="125.34" width="8.00" height="9.77" class="down-body"/>
<line x1="379.89" y1="132.04" x2="379.89" y2="146.69" class="up-wick"/>
<rect x="375.89" y="133.86" width="8.00" height="1.36" class="up-body"/>
<line x1="402.84" y1="130.05" x2="402.84" y2="138.33" class="down-wick"/>
<rect x="398.84" y="133.80" width="8.00" height="2.79" class="down-body"/>
<line x1="425.80" y1="126.50" x2="425.80" y2="143.99" class="up-wick"/>
<rect x="421.80" y="132.75" width="8.00" height="3.83" class="up-body"/>
<line x1="448.75" y1="128.63" x2="448.75" y2="138.19" class="down-wick"/>
<rect x="444.75" y="132.75" width="8.00" height="4.34" class="down-body"/>
<line x1="471.70" y1="165.61" x2="471.70" y2="274.76" class="down-wick"/>
<rect x="467.70" y="165.61" width="8.00" height="50.93" class="down-body"/>
<line x1="494.66" y1="206.41" x2="494.66" y2="228.30" class="up-wick"/>
<rect x="490.66" y="206.86" width="8.00" height="9.68" class="up-body"/>
<line x1="517.61" y1="185.41" x2="517.61" y2="212.11" class="up-wick"/>
<rect x="513.61" y="187.69" width="8.00" height="19.16" class="up-body"/>
<line x1="540.57" y1="162.07" x2="540.57" y2="189.15" class="up-wick"/>
<rect x="536.57" y="167.47" width="8.00" height="20.25" class="up-body"/>
<line x1="563.52" y1="162.27" x2="563.52" y2="175.43" class="down-wick"/>
<rect x="559.52" y="167.47" width="8.00" height="1.00" class="down-body"/>
<line x1="586.48" y1="165.33" x2="586.48" y2="174.55" class="down-wick"/>
<rect x="582.48" y="168.10" width="8.00" height="1.82" class="down-body"/>
<line x1="609.43" y1="164.52" x2="609.43" y2="177.35" class="up-wick"/>
<rect x="605.43" y="166.00" width="8.00" height="3.93" class="up-body"/>
<line x1="632.39" y1="159.95" x2="632.39" y2="171.26" class="up-wick"/>
<rect x="628.39" y="160.99" width="8.00" height="5.00" class="up-body"/>
<line x1="655.34" y1="158.36" x2="655.34" y2="167.88" class="down-wick"/>
<rect x="651.34" y="160.99" width="8.00" height="2.98" class="down-body"/>
<line x1="678.30" y1="152.65" x2="678.30" y2="164.58" class="up-wick"/>
<rect x="674.30" y="157.62" width="8.00" height="6.35" class="up-body"/>
<line x1="701.25" y1="153.74" x2="701.25" y2="168.23" class="down-wick"/>
<rect x="697.25" y="157.62" width="8.00" height="8.20" class="down-body"/>
<line x1="724.20" y1="161.74" x2="724.20" y2="175.91" class="down-wick"/>
<rect x="720.20" y="165.82" width="8.00" height="6.90" class="down-body"/>
<line x1="747.16" y1="165.33" x2="747.16" y2="177.68" class="up-wick"/>
<rect x="743.16" y="166.68" width="8.00" height="6.04" class="up-body"/>
<line x1="770.11" y1="161.26" x2="770.11" y2="181.33" class="down-wick"/>
<rect x="766.11" y="166.68" width="8.00" height="12.21" class="down-body"/>
<line x1="793.07" y1="164.36" x2="793.07" y2="181.38" class="up-wick"/>
<rect x="789.07" y="165.66" width="8.00" height="13.24" class="up-body"/>
<line x1="816.02" y1="148.95" x2="816.02" y2="167.49" class="up-wick"/>
<rect x="812.02" y="159.93" width="8.00" height="5.73" class="up-body"/>
<line x1="838.98" y1="159.54" x2="838.98" y2="177.41" class="down-wick"/>
<rect x="834.98" y="159.93" width="8.00" height="9.21" class="down-body"/>
<line x1="861.93" y1="168.56" x2="861.93" y2="184.07" class="down-wick"/>
<rect x="857.93" y="169.14" width="8.00" height="3.62" class="down-body"/>
<line x1="884.89" y1="147.77" x2="884.89" y2="176.91" class="up-wick"/>
<rect x="880.89" y="158.14" width="8.00" height="14.60" class="up-body"/>
<line x1="907.84" y1="144.69" x2="907.84" y2="164.16" class="down-wick"/>
<rect x="903.84" y="158.14" width="8.00" height="2.49" class="down-body"/>
<line x1="930.80" y1="152.08" x2="930.80" y2="165.89" class="up-wick"/>
<rect x="926.80" y="153.95" width="8.00" height="6.69" class="up-body"/>
<line x1="953.75" y1="146.79" x2="953.75" y2="160.09" class="up-wick"/>
<rect x="949.75" y="151.76" width="8.00" height="2.19" class="up-body"/>
<line x1="976.70" y1="137.27" x2="976.70" y2="152.31" class="up-wick"/>
<rect x="972.70" y="138.48" width="8.00" height="13.84" class="up-body"/>
<line x1="999.66" y1="132.21" x2="999.66" y2="141.30" class="down-wick"/>
<rect x="995.66" y="138.48" width="8.00" height="1.00" class="down-body"/>
<line x1="1022.61" y1="124.40" x2="1022.61" y2="143.48" class="up-wick"/>
<rect x="1018.61" y="129.11" width="8.00" height="9.49" class="up-body"/>
<line x1="1045.57" y1="123.50" x2="1045.57" y2="135.47" class="down-wick"/>
<rect x="1041.57" y="129.11" width="8.00" height="3.99" class="down-body"/>
<line x1="1068.52" y1="123.33" x2="1068.52" y2="135.32" class="up-wick"/>
<rect x="1064.52" y="125.00" width="8.00" height="8.09" class="up-body"/>
<line x1="70" y1="168.46" x2="1080" y2="168.46" class="number-line"/>
<text x="1076" y="164.46" text-anchor="end" class="level-label">round 4720.00</text>
<line x1="70" y1="168.46" x2="1080" y2="168.46" class="entry-line"/>
<text x="1076" y="164.46" text-anchor="end" class="level-label">entry level 4720.00</text>
<text x="70" y="306" class="axis-label">2026-04-10 06:00:00+00:00 to 2026-04-14 05:00:00+00:00</text>
<text x="1080" y="306" text-anchor="end" class="axis-label">4568.54 - 4811.81</text>
<text x="70" y="332" class="panel-title">M15 liquidity / reaction context</text>
<rect x="70" y="346" width="1010" height="192" class="plot-bg"/>
<line x1="82.02" y1="376.81" x2="82.02" y2="524.76" class="down-wick"/>
<rect x="78.02" y="376.81" width="8.00" height="50.85" class="down-body"/>
<line x1="106.07" y1="419.93" x2="106.07" y2="461.53" class="down-wick"/>
<rect x="102.07" y="426.95" width="8.00" height="31.16" class="down-body"/>
<line x1="130.12" y1="445.78" x2="130.12" y2="460.77" class="up-wick"/>
<rect x="126.12" y="447.07" width="8.00" height="11.05" class="up-body"/>
<line x1="154.17" y1="444.32" x2="154.17" y2="453.77" class="up-wick"/>
<rect x="150.17" y="445.85" width="8.00" height="1.22" class="up-body"/>
<line x1="178.21" y1="444.16" x2="178.21" y2="453.47" class="up-wick"/>
<rect x="174.21" y="445.38" width="8.00" height="1.00" class="up-body"/>
<line x1="202.26" y1="445.02" x2="202.26" y2="461.79" class="down-wick"/>
<rect x="198.26" y="445.38" width="8.00" height="6.54" class="down-body"/>
<line x1="226.31" y1="444.50" x2="226.31" y2="455.40" class="up-wick"/>
<rect x="222.31" y="449.45" width="8.00" height="2.46" class="up-body"/>
<line x1="250.36" y1="432.11" x2="250.36" y2="449.53" class="up-wick"/>
<rect x="246.36" y="432.72" width="8.00" height="16.73" class="up-body"/>
<line x1="274.40" y1="430.68" x2="274.40" y2="439.84" class="up-wick"/>
<rect x="270.40" y="431.69" width="8.00" height="1.01" class="up-body"/>
<line x1="298.45" y1="427.61" x2="298.45" y2="435.19" class="up-wick"/>
<rect x="294.45" y="431.00" width="8.00" height="1.00" class="up-body"/>
<line x1="322.50" y1="420.30" x2="322.50" y2="433.16" class="up-wick"/>
<rect x="318.50" y="425.14" width="8.00" height="5.85" class="up-body"/>
<line x1="346.55" y1="403.65" x2="346.55" y2="425.66" class="up-wick"/>
<rect x="342.55" y="406.73" width="8.00" height="18.41" class="up-body"/>
<line x1="370.60" y1="381.34" x2="370.60" y2="408.72" class="up-wick"/>
<rect x="366.60" y="385.76" width="8.00" height="21.01" class="up-body"/>
<line x1="394.64" y1="379.08" x2="394.64" y2="389.97" class="up-wick"/>
<rect x="390.64" y="383.48" width="8.00" height="2.31" class="up-body"/>
<line x1="418.69" y1="379.11" x2="418.69" y2="390.51" class="down-wick"/>
<rect x="414.69" y="383.48" width="8.00" height="3.35" class="down-body"/>
<line x1="442.74" y1="372.02" x2="442.74" y2="391.34" class="up-wick"/>
<rect x="438.74" y="379.32" width="8.00" height="7.49" class="up-body"/>
<line x1="466.79" y1="374.40" x2="466.79" y2="381.65" class="up-wick"/>
<rect x="462.79" y="377.87" width="8.00" height="1.46" class="up-body"/>
<line x1="490.83" y1="375.70" x2="490.83" y2="381.63" class="down-wick"/>
<rect x="486.83" y="377.89" width="8.00" height="2.80" class="down-body"/>
<line x1="514.88" y1="372.28" x2="514.88" y2="385.89" class="down-wick"/>
<rect x="510.88" y="380.69" width="8.00" height="4.90" class="down-body"/>
<line x1="538.93" y1="379.07" x2="538.93" y2="390.12" class="up-wick"/>
<rect x="534.93" y="380.16" width="8.00" height="5.43" class="up-body"/>
<line x1="562.98" y1="378.71" x2="562.98" y2="388.92" class="down-wick"/>
<rect x="558.98" y="380.19" width="8.00" height="6.99" class="down-body"/>
<line x1="587.02" y1="379.37" x2="587.02" y2="388.26" class="up-wick"/>
<rect x="583.02" y="381.91" width="8.00" height="5.26" class="up-body"/>
<line x1="611.07" y1="376.42" x2="611.07" y2="383.37" class="up-wick"/>
<rect x="607.07" y="378.22" width="8.00" height="3.67" class="up-body"/>
<line x1="635.12" y1="378.07" x2="635.12" y2="383.53" class="down-wick"/>
<rect x="631.12" y="378.22" width="8.00" height="4.44" class="down-body"/>
<line x1="659.17" y1="382.29" x2="659.17" y2="392.72" class="down-wick"/>
<rect x="655.17" y="382.66" width="8.00" height="3.59" class="down-body"/>
<line x1="683.21" y1="385.14" x2="683.21" y2="391.66" class="down-wick"/>
<rect x="679.21" y="386.26" width="8.00" height="2.20" class="down-body"/>
<line x1="707.26" y1="381.21" x2="707.26" y2="392.43" class="up-wick"/>
<rect x="703.26" y="381.97" width="8.00" height="6.47" class="up-body"/>
<line x1="731.31" y1="375.33" x2="731.31" y2="384.86" class="up-wick"/>
<rect x="727.31" y="377.33" width="8.00" height="4.64" class="up-body"/>
<line x1="755.36" y1="374.28" x2="755.36" y2="382.37" class="down-wick"/>
<rect x="751.36" y="377.33" width="8.00" height="4.08" class="down-body"/>
<line x1="779.40" y1="378.97" x2="779.40" y2="384.47" class="up-wick"/>
<rect x="775.40" y="380.04" width="8.00" height="1.37" class="up-body"/>
<line x1="803.45" y1="375.29" x2="803.45" y2="382.67" class="up-wick"/>
<rect x="799.45" y="379.34" width="8.00" height="1.00" class="up-body"/>
<line x1="827.50" y1="369.14" x2="827.50" y2="379.96" class="up-wick"/>
<rect x="823.50" y="370.55" width="8.00" height="8.79" class="up-body"/>
<line x1="851.55" y1="370.18" x2="851.55" y2="377.01" class="down-wick"/>
<rect x="847.55" y="370.55" width="8.00" height="3.67" class="down-body"/>
<line x1="875.60" y1="367.89" x2="875.60" y2="375.06" class="up-wick"/>
<rect x="871.60" y="368.21" width="8.00" height="6.00" class="up-body"/>
<line x1="899.64" y1="366.98" x2="899.64" y2="375.12" class="down-wick"/>
<rect x="895.64" y="368.16" width="8.00" height="5.62" class="down-body"/>
<line x1="923.69" y1="373.73" x2="923.69" y2="379.89" class="down-wick"/>
<rect x="919.69" y="373.78" width="8.00" height="1.00" class="down-body"/>
<line x1="947.74" y1="360.57" x2="947.74" y2="375.42" class="up-wick"/>
<rect x="943.74" y="371.88" width="8.00" height="2.71" class="up-body"/>
<line x1="971.79" y1="366.84" x2="971.79" y2="373.68" class="up-wick"/>
<rect x="967.79" y="369.13" width="8.00" height="2.75" class="up-body"/>
<line x1="995.83" y1="365.96" x2="995.83" y2="372.65" class="up-wick"/>
<rect x="991.83" y="367.55" width="8.00" height="1.57" class="up-body"/>
<line x1="1019.88" y1="359.24" x2="1019.88" y2="371.83" class="up-wick"/>
<rect x="1015.88" y="365.97" width="8.00" height="1.58" class="up-body"/>
<line x1="1043.93" y1="360.72" x2="1043.93" y2="367.52" class="down-wick"/>
<rect x="1039.93" y="365.97" width="8.00" height="1.00" class="down-body"/>
<line x1="1067.98" y1="365.36" x2="1067.98" y2="369.77" class="down-wick"/>
<rect x="1063.98" y="366.94" width="8.00" height="1.00" class="down-body"/>
<line x1="70" y1="380.67" x2="1080" y2="380.67" class="number-line"/>
<text x="1076" y="376.67" text-anchor="end" class="level-label">round 4720.00</text>
<line x1="70" y1="380.67" x2="1080" y2="380.67" class="entry-line"/>
<text x="1076" y="376.67" text-anchor="end" class="level-label">entry level 4720.00</text>
<text x="70" y="556" class="axis-label">2026-04-13 01:00:00+00:00 to 2026-04-13 11:15:00+00:00</text>
<text x="1080" y="556" text-anchor="end" class="axis-label">4572.94 - 4752.41</text>
<text x="70" y="582" class="panel-title">M5 reaction / execution context</text>
<rect x="70" y="596" width="1010" height="192" class="plot-bg"/>
<line x1="79.18" y1="744.36" x2="79.18" y2="774.76" class="up-wick"/>
<rect x="75.18" y="744.52" width="8.00" height="28.65" class="up-body"/>
<line x1="97.55" y1="730.56" x2="97.55" y2="751.55" class="up-wick"/>
<rect x="93.55" y="736.07" width="8.00" height="8.45" class="up-body"/>
<line x1="115.91" y1="706.85" x2="115.91" y2="745.48" class="up-wick"/>
<rect x="111.91" y="716.36" width="8.00" height="19.71" class="up-body"/>
<line x1="134.27" y1="671.90" x2="134.27" y2="722.50" class="up-wick"/>
<rect x="130.27" y="687.61" width="8.00" height="28.88" class="up-body"/>
<line x1="152.64" y1="673.68" x2="152.64" y2="701.97" class="up-wick"/>
<rect x="148.64" y="676.09" width="8.00" height="11.62" class="up-body"/>
<line x1="171.00" y1="638.03" x2="171.00" y2="682.62" class="up-wick"/>
<rect x="167.00" y="651.66" width="8.00" height="24.43" class="up-body"/>
<line x1="189.36" y1="642.85" x2="189.36" y2="664.63" class="up-wick"/>
<rect x="185.36" y="647.34" width="8.00" height="4.42" class="up-body"/>
<line x1="207.73" y1="631.03" x2="207.73" y2="654.66" class="down-wick"/>
<rect x="203.73" y="647.34" width="8.00" height="2.71" class="down-body"/>
<line x1="226.09" y1="634.53" x2="226.09" y2="655.49" class="up-wick"/>
<rect x="222.09" y="644.63" width="8.00" height="5.41" class="up-body"/>
<line x1="244.45" y1="631.75" x2="244.45" y2="666.32" class="up-wick"/>
<rect x="240.45" y="631.89" width="8.00" height="12.74" class="up-body"/>
<line x1="262.82" y1="631.13" x2="262.82" y2="658.72" class="down-wick"/>
<rect x="258.82" y="631.89" width="8.00" height="13.70" class="down-body"/>
<line x1="281.18" y1="639.81" x2="281.18" y2="661.30" class="down-wick"/>
<rect x="277.18" y="645.59" width="8.00" height="9.38" class="down-body"/>
<line x1="299.55" y1="642.29" x2="299.55" y2="668.86" class="up-wick"/>
<rect x="295.55" y="652.78" width="8.00" height="2.11" class="up-body"/>
<line x1="317.91" y1="623.80" x2="317.91" y2="653.94" class="up-wick"/>
<rect x="313.91" y="628.19" width="8.00" height="24.59" class="up-body"/>
<line x1="336.27" y1="609.24" x2="336.27" y2="633.04" class="down-wick"/>
<rect x="332.27" y="628.19" width="8.00" height="3.60" class="down-body"/>
<line x1="354.64" y1="617.03" x2="354.64" y2="638.98" class="up-wick"/>
<rect x="350.64" y="626.67" width="8.00" height="5.12" class="up-body"/>
<line x1="373.00" y1="616.60" x2="373.00" y2="638.19" class="up-wick"/>
<rect x="369.00" y="625.71" width="8.00" height="1.00" class="up-body"/>
<line x1="391.36" y1="622.15" x2="391.36" y2="633.24" class="down-wick"/>
<rect x="387.36" y="625.71" width="8.00" height="1.58" class="down-body"/>
<line x1="409.73" y1="621.49" x2="409.73" y2="636.94" class="down-wick"/>
<rect x="405.73" y="627.36" width="8.00" height="1.58" class="down-body"/>
<line x1="428.09" y1="628.78" x2="428.09" y2="637.53" class="down-wick"/>
<rect x="424.09" y="628.95" width="8.00" height="4.65" class="down-body"/>
<line x1="446.45" y1="620.60" x2="446.45" y2="638.92" class="down-wick"/>
<rect x="442.45" y="633.67" width="8.00" height="2.34" class="down-body"/>
<line x1="464.82" y1="610.07" x2="464.82" y2="637.60" class="up-wick"/>
<rect x="460.82" y="618.25" width="8.00" height="17.76" class="up-body"/>
<line x1="483.18" y1="618.25" x2="483.18" y2="648.62" class="down-wick"/>
<rect x="479.18" y="618.25" width="8.00" height="30.37" class="down-body"/>
<line x1="501.55" y1="637.27" x2="501.55" y2="652.06" class="down-wick"/>
<rect x="497.55" y="648.62" width="8.00" height="2.51" class="down-body"/>
<line x1="519.91" y1="642.09" x2="519.91" y2="665.00" class="down-wick"/>
<rect x="515.91" y="651.13" width="8.00" height="9.51" class="down-body"/>
<line x1="538.27" y1="639.64" x2="538.27" y2="665.10" class="up-wick"/>
<rect x="534.27" y="639.94" width="8.00" height="20.66" class="up-body"/>
<line x1="556.64" y1="631.00" x2="556.64" y2="640.17" class="up-wick"/>
<rect x="552.64" y="634.36" width="8.00" height="5.58" class="up-body"/>
<line x1="575.00" y1="629.91" x2="575.00" y2="652.22" class="down-wick"/>
<rect x="571.00" y="634.46" width="8.00" height="15.91" class="down-body"/>
<line x1="593.36" y1="650.37" x2="593.36" y2="660.34" class="down-wick"/>
<rect x="589.36" y="650.37" width="8.00" height="3.30" class="down-body"/>
<line x1="611.73" y1="650.44" x2="611.73" y2="661.40" class="down-wick"/>
<rect x="607.73" y="653.71" width="8.00" height="2.31" class="down-body"/>
<line x1="630.09" y1="644.40" x2="630.09" y2="659.35" class="up-wick"/>
<rect x="626.09" y="650.87" width="8.00" height="5.15" class="up-body"/>
<line x1="648.45" y1="642.85" x2="648.45" y2="657.07" class="up-wick"/>
<rect x="644.45" y="645.45" width="8.00" height="5.41" class="up-body"/>
<line x1="666.82" y1="631.92" x2="666.82" y2="648.06" class="up-wick"/>
<rect x="662.82" y="639.78" width="8.00" height="5.68" class="up-body"/>
<line x1="685.18" y1="629.18" x2="685.18" y2="640.93" class="up-wick"/>
<rect x="681.18" y="631.92" width="8.00" height="7.79" class="up-body"/>
<line x1="703.55" y1="629.51" x2="703.55" y2="644.27" class="down-wick"/>
<rect x="699.55" y="631.95" width="8.00" height="7.89" class="down-body"/>
<line x1="721.91" y1="622.84" x2="721.91" y2="640.37" class="up-wick"/>
<rect x="717.91" y="628.39" width="8.00" height="11.45" class="up-body"/>
<line x1="740.27" y1="627.93" x2="740.27" y2="639.88" class="down-wick"/>
<rect x="736.27" y="628.39" width="8.00" height="4.95" class="down-body"/>
<line x1="758.64" y1="632.88" x2="758.64" y2="643.47" class="down-wick"/>
<rect x="754.64" y="633.37" width="8.00" height="7.36" class="down-body"/>
<line x1="777.00" y1="634.73" x2="777.00" y2="644.76" class="down-wick"/>
<rect x="773.00" y="640.73" width="8.00" height="1.35" class="down-body"/>
<line x1="795.36" y1="640.93" x2="795.36" y2="658.92" class="down-wick"/>
<rect x="791.36" y="642.09" width="8.00" height="11.22" class="down-body"/>
<line x1="813.73" y1="650.77" x2="813.73" y2="673.12" class="down-wick"/>
<rect x="809.73" y="653.31" width="8.00" height="6.97" class="down-body"/>
<line x1="832.09" y1="652.95" x2="832.09" y2="665.76" class="up-wick"/>
<rect x="828.09" y="653.18" width="8.00" height="7.10" class="up-body"/>
<line x1="850.45" y1="649.75" x2="850.45" y2="666.25" class="down-wick"/>
<rect x="846.45" y="653.18" width="8.00" height="8.19" class="down-body"/>
<line x1="868.82" y1="660.77" x2="868.82" y2="669.85" class="up-wick"/>
<rect x="864.82" y="660.87" width="8.00" height="1.00" class="up-body"/>
<line x1="887.18" y1="650.44" x2="887.18" y2="661.33" class="up-wick"/>
<rect x="883.18" y="659.98" width="8.00" height="1.00" class="up-body"/>
<line x1="905.55" y1="656.35" x2="905.55" y2="672.23" class="up-wick"/>
<rect x="901.55" y="659.35" width="8.00" height="1.00" class="up-body"/>
<line x1="923.91" y1="659.15" x2="923.91" y2="667.87" class="down-wick"/>
<rect x="919.91" y="659.35" width="8.00" height="2.28" class="down-body"/>
<line x1="942.27" y1="637.60" x2="942.27" y2="661.60" class="up-wick"/>
<rect x="938.27" y="639.94" width="8.00" height="21.66" class="up-body"/>
<line x1="960.64" y1="638.26" x2="960.64" y2="648.89" class="up-wick"/>
<rect x="956.64" y="639.58" width="8.00" height="1.00" class="up-body"/>
<line x1="979.00" y1="622.41" x2="979.00" y2="642.12" class="up-wick"/>
<rect x="975.00" y="625.42" width="8.00" height="14.16" class="up-body"/>
<line x1="997.36" y1="619.47" x2="997.36" y2="630.34" class="down-wick"/>
<rect x="993.36" y="625.42" width="8.00" height="1.00" class="down-body"/>
<line x1="1015.73" y1="616.24" x2="1015.73" y2="633.17" class="down-wick"/>
<rect x="1011.73" y="625.65" width="8.00" height="5.41" class="down-body"/>
<line x1="1034.09" y1="624.39" x2="1034.09" y2="635.52" class="down-wick"/>
<rect x="1030.09" y="631.03" width="8.00" height="1.85" class="down-body"/>
<line x1="1052.45" y1="626.14" x2="1052.45" y2="641.20" class="down-wick"/>
<rect x="1048.45" y="632.15" width="8.00" height="6.07" class="down-body"/>
<line x1="1070.82" y1="631.16" x2="1070.82" y2="645.85" class="down-wick"/>
<rect x="1066.82" y="638.23" width="8.00" height="7.56" class="down-body"/>
<line x1="70" y1="635.95" x2="1080" y2="635.95" class="number-line"/>
<text x="1076" y="631.95" text-anchor="end" class="level-label">round 4720.00</text>
<line x1="70" y1="635.95" x2="1080" y2="635.95" class="entry-line"/>
<text x="1076" y="631.95" text-anchor="end" class="level-label">entry level 4720.00</text>
<text x="70" y="806" class="axis-label">2026-04-13 03:45:00+00:00 to 2026-04-13 08:15:00+00:00</text>
<text x="1080" y="806" text-anchor="end" class="axis-label">4673.94 - 4732.10</text>
<text x="70" y="832" class="panel-title">M1 execution window</text>
<rect x="70" y="846" width="1010" height="192" class="plot-bg"/>
<line x1="73.71" y1="1009.85" x2="73.71" y2="1024.76" class="up-wick"/>
<rect x="71.30" y="1009.85" width="4.83" height="13.28" class="up-body"/>
<line x1="81.14" y1="999.40" x2="81.14" y2="1008.39" class="up-wick"/>
<rect x="78.73" y="1000.25" width="4.83" height="6.79" class="up-body"/>
<line x1="88.57" y1="993.49" x2="88.57" y2="1001.94" class="up-wick"/>
<rect x="86.15" y="993.66" width="4.83" height="2.00" class="up-body"/>
<line x1="95.99" y1="993.93" x2="95.99" y2="1000.52" class="up-wick"/>
<rect x="93.58" y="994.47" width="4.83" height="3.84" class="up-body"/>
<line x1="103.42" y1="979.30" x2="103.42" y2="987.61" class="up-wick"/>
<rect x="101.01" y="981.67" width="4.83" height="2.65" class="up-body"/>
<line x1="110.85" y1="984.63" x2="110.85" y2="989.69" class="down-wick"/>
<rect x="108.43" y="984.97" width="4.83" height="2.38" class="down-body"/>
<line x1="118.27" y1="982.35" x2="118.27" y2="985.20" class="up-wick"/>
<rect x="115.86" y="983.44" width="4.83" height="1.00" class="up-body"/>
<line x1="125.70" y1="954.92" x2="125.70" y2="987.24" class="up-wick"/>
<rect x="123.28" y="964.70" width="4.83" height="22.54" class="up-body"/>
<line x1="133.12" y1="918.96" x2="133.12" y2="957.74" class="up-wick"/>
<rect x="130.71" y="921.07" width="4.83" height="26.04" class="up-body"/>
<line x1="140.55" y1="921.34" x2="140.55" y2="939.57" class="down-wick"/>
<rect x="138.14" y="924.60" width="4.83" height="8.90" class="down-body"/>
<line x1="147.98" y1="935.16" x2="147.98" y2="948.94" class="down-wick"/>
<rect x="145.56" y="935.23" width="4.83" height="12.26" class="down-body"/>
<line x1="155.40" y1="921.61" x2="155.40" y2="942.90" class="up-wick"/>
<rect x="152.99" y="930.34" width="4.83" height="12.56" class="up-body"/>
<line x1="162.83" y1="920.80" x2="162.83" y2="949.89" class="up-wick"/>
<rect x="160.42" y="923.28" width="4.83" height="24.65" class="up-body"/>
<line x1="170.26" y1="891.80" x2="170.26" y2="906.37" class="down-wick"/>
<rect x="167.84" y="891.80" width="4.83" height="7.67" class="down-body"/>
<line x1="177.68" y1="899.85" x2="177.68" y2="910.07" class="up-wick"/>
<rect x="175.27" y="903.65" width="4.83" height="1.00" class="up-body"/>
<line x1="185.11" y1="896.55" x2="185.11" y2="911.49" class="down-wick"/>
<rect x="182.70" y="898.25" width="4.83" height="1.22" class="down-body"/>
<line x1="192.54" y1="892.14" x2="192.54" y2="905.25" class="down-wick"/>
<rect x="190.12" y="900.46" width="4.83" height="2.89" class="down-body"/>
<line x1="199.96" y1="889.09" x2="199.96" y2="897.85" class="up-wick"/>
<rect x="197.55" y="893.70" width="4.83" height="2.48" class="up-body"/>
<line x1="207.39" y1="876.93" x2="207.39" y2="888.00" class="up-wick"/>
<rect x="204.98" y="882.33" width="4.83" height="1.97" class="up-body"/>
<line x1="214.82" y1="889.90" x2="214.82" y2="901.24" class="up-wick"/>
<rect x="212.40" y="892.31" width="4.83" height="6.65" class="up-body"/>
<line x1="222.24" y1="891.84" x2="222.24" y2="902.09" class="up-wick"/>
<rect x="219.83" y="895.67" width="4.83" height="1.00" class="up-body"/>
<line x1="229.67" y1="891.05" x2="229.67" y2="899.64" class="up-wick"/>
<rect x="227.26" y="891.80" width="4.83" height="1.00" class="up-body"/>
<line x1="237.10" y1="885.89" x2="237.10" y2="896.22" class="down-wick"/>
<rect x="234.68" y="885.89" width="4.83" height="5.02" class="down-body"/>
<line x1="244.52" y1="903.55" x2="244.52" y2="909.46" class="up-wick"/>
<rect x="242.11" y="905.79" width="4.83" height="1.22" class="up-body"/>
<line x1="251.95" y1="902.09" x2="251.95" y2="912.75" class="down-wick"/>
<rect x="249.53" y="906.16" width="4.83" height="1.00" class="down-body"/>
<line x1="259.38" y1="877.03" x2="259.38" y2="886.67" class="down-wick"/>
<rect x="256.96" y="877.81" width="4.83" height="4.14" class="down-body"/>
<line x1="266.80" y1="888.30" x2="266.80" y2="898.76" class="down-wick"/>
<rect x="264.39" y="894.28" width="4.83" height="2.38" class="down-body"/>
<line x1="274.23" y1="889.83" x2="274.23" y2="905.42" class="up-wick"/>
<rect x="271.81" y="891.90" width="4.83" height="10.49" class="up-body"/>
<line x1="281.65" y1="895.09" x2="281.65" y2="908.06" class="down-wick"/>
<rect x="279.24" y="898.39" width="4.83" height="9.34" class="down-body"/>
<line x1="289.08" y1="897.57" x2="289.08" y2="904.36" class="down-wick"/>
<rect x="286.67" y="899.85" width="4.83" height="1.39" class="down-body"/>
<line x1="296.51" y1="901.48" x2="296.51" y2="915.84" class="down-wick"/>
<rect x="294.09" y="901.48" width="4.83" height="5.16" class="down-body"/>
<line x1="303.93" y1="899.75" x2="303.93" y2="908.95" class="up-wick"/>
<rect x="301.52" y="901.44" width="4.83" height="3.97" class="up-body"/>
<line x1="311.36" y1="888.78" x2="311.36" y2="899.31" class="down-wick"/>
<rect x="308.95" y="891.29" width="4.83" height="8.01" class="down-body"/>
<line x1="318.79" y1="882.19" x2="318.79" y2="888.51" class="up-wick"/>
<rect x="316.37" y="884.23" width="4.83" height="1.46" class="up-body"/>
<line x1="326.21" y1="869.66" x2="326.21" y2="886.67" class="up-wick"/>
<rect x="323.80" y="872.62" width="4.83" height="6.62" class="up-body"/>
<line x1="333.64" y1="859.34" x2="333.64" y2="876.73" class="up-wick"/>
<rect x="331.23" y="861.14" width="4.83" height="12.87" class="up-body"/>
<line x1="341.07" y1="867.05" x2="341.07" y2="874.76" class="up-wick"/>
<rect x="338.65" y="869.26" width="4.83" height="3.60" class="up-body"/>
<line x1="348.49" y1="874.04" x2="348.49" y2="879.00" class="down-wick"/>
<rect x="346.08" y="876.56" width="4.83" height="1.15" class="down-body"/>
<line x1="355.92" y1="869.16" x2="355.92" y2="884.26" class="down-wick"/>
<rect x="353.51" y="872.18" width="4.83" height="5.36" class="down-body"/>
<line x1="363.35" y1="877.88" x2="363.35" y2="885.11" class="down-wick"/>
<rect x="360.93" y="877.95" width="4.83" height="5.50" class="down-body"/>
<line x1="370.77" y1="869.36" x2="370.77" y2="881.38" class="down-wick"/>
<rect x="368.36" y="872.45" width="4.83" height="8.93" class="down-body"/>
<line x1="378.20" y1="873.98" x2="378.20" y2="882.57" class="down-wick"/>
<rect x="375.78" y="881.65" width="4.83" height="1.00" class="down-body"/>
<line x1="385.62" y1="862.09" x2="385.62" y2="872.25" class="down-wick"/>
<rect x="383.21" y="868.82" width="4.83" height="2.65" class="down-body"/>
<line x1="393.05" y1="872.11" x2="393.05" y2="879.21" class="down-wick"/>
<rect x="390.64" y="876.76" width="4.83" height="1.00" class="down-body"/>
<line x1="400.48" y1="870.68" x2="400.48" y2="878.02" class="up-wick"/>
<rect x="398.06" y="871.57" width="4.83" height="4.99" class="up-body"/>
<line x1="407.90" y1="867.12" x2="407.90" y2="876.01" class="down-wick"/>
<rect x="405.49" y="873.16" width="4.83" height="2.04" class="down-body"/>
<line x1="415.33" y1="875.91" x2="415.33" y2="883.01" class="up-wick"/>
<rect x="412.92" y="879.17" width="4.83" height="1.94" class="up-body"/>
<line x1="422.76" y1="874.72" x2="422.76" y2="879.07" class="up-wick"/>
<rect x="420.34" y="874.79" width="4.83" height="2.34" class="up-body"/>
<line x1="430.18" y1="877.61" x2="430.18" y2="882.53" class="down-wick"/>
<rect x="427.77" y="878.19" width="4.83" height="4.24" class="down-body"/>
<line x1="437.61" y1="878.25" x2="437.61" y2="882.40" class="down-wick"/>
<rect x="435.20" y="879.41" width="4.83" height="1.56" class="down-body"/>
<line x1="445.04" y1="867.83" x2="445.04" y2="879.75" class="up-wick"/>
<rect x="442.62" y="868.14" width="4.83" height="11.51" class="up-body"/>
<line x1="452.46" y1="867.87" x2="452.46" y2="875.13" class="down-wick"/>
<rect x="450.05" y="870.85" width="4.83" height="3.67" class="down-body"/>
<line x1="459.89" y1="877.61" x2="459.89" y2="885.05" class="down-wick"/>
<rect x="457.48" y="877.61" width="4.83" height="4.45" class="down-body"/>
<line x1="467.32" y1="859.24" x2="467.32" y2="868.82" class="up-wick"/>
<rect x="464.90" y="861.24" width="4.83" height="5.81" class="up-body"/>
<line x1="474.74" y1="867.29" x2="474.74" y2="876.29" class="down-wick"/>
<rect x="472.33" y="868.61" width="4.83" height="6.01" class="down-body"/>
<line x1="482.17" y1="863.79" x2="482.17" y2="874.32" class="down-wick"/>
<rect x="479.76" y="863.79" width="4.83" height="9.34" class="down-body"/>
<line x1="489.60" y1="873.09" x2="489.60" y2="882.26" class="up-wick"/>
<rect x="487.18" y="876.69" width="4.83" height="1.56" class="up-body"/>
<line x1="497.02" y1="880.87" x2="497.02" y2="895.03" class="down-wick"/>
<rect x="494.61" y="881.07" width="4.83" height="13.95" class="down-body"/>
<line x1="504.45" y1="884.33" x2="504.45" y2="890.10" class="up-wick"/>
<rect x="502.03" y="884.64" width="4.83" height="5.47" class="up-body"/>
<line x1="511.88" y1="888.24" x2="511.88" y2="896.42" class="down-wick"/>
<rect x="509.46" y="888.24" width="4.83" height="5.40" class="down-body"/>
<line x1="519.30" y1="888.92" x2="519.30" y2="900.32" class="up-wick"/>
<rect x="516.89" y="888.92" width="4.83" height="8.69" class="up-body"/>
<line x1="526.73" y1="897.57" x2="526.73" y2="906.84" class="down-wick"/>
<rect x="524.31" y="900.63" width="4.83" height="5.94" class="down-body"/>
<line x1="534.15" y1="904.43" x2="534.15" y2="911.87" class="up-wick"/>
<rect x="531.74" y="907.39" width="4.83" height="4.48" class="up-body"/>
<line x1="541.58" y1="904.98" x2="541.58" y2="911.97" class="up-wick"/>
<rect x="539.17" y="906.37" width="4.83" height="2.89" class="up-body"/>
<line x1="549.01" y1="895.23" x2="549.01" y2="900.09" class="up-wick"/>
<rect x="546.59" y="895.84" width="4.83" height="2.92" class="up-body"/>
<line x1="556.43" y1="880.43" x2="556.43" y2="886.34" class="up-wick"/>
<rect x="554.02" y="881.24" width="4.83" height="4.86" class="up-body"/>
<line x1="563.86" y1="879.38" x2="563.86" y2="885.86" class="down-wick"/>
<rect x="561.45" y="879.38" width="4.83" height="5.94" class="down-body"/>
<line x1="571.29" y1="876.90" x2="571.29" y2="881.79" class="up-wick"/>
<rect x="568.87" y="880.36" width="4.83" height="1.00" class="up-body"/>
<line x1="578.71" y1="880.12" x2="578.71" y2="889.15" class="down-wick"/>
<rect x="576.30" y="880.39" width="4.83" height="5.77" class="down-body"/>
<line x1="586.14" y1="885.49" x2="586.14" y2="891.90" class="down-wick"/>
<rect x="583.73" y="889.36" width="4.83" height="2.48" class="down-body"/>
<line x1="593.57" y1="896.83" x2="593.57" y2="901.61" class="down-wick"/>
<rect x="591.15" y="896.83" width="4.83" height="3.23" class="down-body"/>
<line x1="600.99" y1="898.46" x2="600.99" y2="906.27" class="up-wick"/>
<rect x="598.58" y="899.17" width="4.83" height="5.33" class="up-body"/>
<line x1="608.42" y1="899.95" x2="608.42" y2="903.52" class="up-wick"/>
<rect x="606.01" y="900.22" width="4.83" height="1.15" class="up-body"/>
<line x1="615.85" y1="899.51" x2="615.85" y2="908.17" class="down-wick"/>
<rect x="613.43" y="901.95" width="4.83" height="5.13" class="down-body"/>
<line x1="623.27" y1="896.89" x2="623.27" y2="902.50" class="up-wick"/>
<rect x="620.86" y="898.42" width="4.83" height="3.33" class="up-body"/>
<line x1="630.70" y1="899.37" x2="630.70" y2="906.06" class="up-wick"/>
<rect x="628.28" y="900.15" width="4.83" height="2.48" class="up-body"/>
<line x1="638.12" y1="893.26" x2="638.12" y2="896.96" class="up-wick"/>
<rect x="635.71" y="894.79" width="4.83" height="1.97" class="up-body"/>
<line x1="645.55" y1="892.28" x2="645.55" y2="898.35" class="down-wick"/>
<rect x="643.14" y="892.85" width="4.83" height="4.48" class="down-body"/>
<line x1="652.98" y1="896.08" x2="652.98" y2="903.72" class="up-wick"/>
<rect x="650.56" y="896.28" width="4.83" height="4.72" class="up-body"/>
<line x1="660.40" y1="893.06" x2="660.40" y2="896.08" class="down-wick"/>
<rect x="657.99" y="893.06" width="4.83" height="1.00" class="down-body"/>
<line x1="667.83" y1="886.81" x2="667.83" y2="894.45" class="up-wick"/>
<rect x="665.42" y="887.63" width="4.83" height="4.14" class="up-body"/>
<line x1="675.26" y1="877.85" x2="675.26" y2="884.47" class="up-wick"/>
<rect x="672.84" y="879.24" width="4.83" height="3.50" class="up-body"/>
<line x1="682.68" y1="883.21" x2="682.68" y2="886.37" class="down-wick"/>
<rect x="680.27" y="884.03" width="4.83" height="1.90" class="down-body"/>
<line x1="690.11" y1="883.99" x2="690.11" y2="886.37" class="down-wick"/>
<rect x="687.70" y="885.25" width="4.83" height="1.00" class="down-body"/>
<line x1="697.54" y1="879.54" x2="697.54" y2="883.14" class="up-wick"/>
<rect x="695.12" y="879.65" width="4.83" height="1.43" class="up-body"/>
<line x1="704.96" y1="875.37" x2="704.96" y2="882.80" class="down-wick"/>
<rect x="702.55" y="877.88" width="4.83" height="2.44" class="down-body"/>
<line x1="712.39" y1="883.99" x2="712.39" y2="889.26" class="up-wick"/>
<rect x="709.98" y="886.98" width="4.83" height="1.00" class="up-body"/>
<line x1="719.82" y1="884.43" x2="719.82" y2="888.85" class="up-wick"/>
<rect x="717.40" y="886.00" width="4.83" height="1.60" class="up-body"/>
<line x1="727.24" y1="869.16" x2="727.24" y2="880.33" class="up-wick"/>
<rect x="724.83" y="870.51" width="4.83" height="8.96" class="up-body"/>
<line x1="734.67" y1="870.99" x2="734.67" y2="874.04" class="up-wick"/>
<rect x="732.26" y="871.84" width="4.83" height="1.46" class="up-body"/>
<line x1="742.10" y1="873.74" x2="742.10" y2="877.17" class="down-wick"/>
<rect x="739.68" y="874.21" width="4.83" height="2.92" class="down-body"/>
<line x1="749.52" y1="878.56" x2="749.52" y2="883.75" class="down-wick"/>
<rect x="747.11" y="878.56" width="4.83" height="4.21" class="down-body"/>
<line x1="756.95" y1="879.31" x2="756.95" y2="885.79" class="up-wick"/>
<rect x="754.53" y="879.31" width="4.83" height="6.42" class="up-body"/>
<line x1="764.38" y1="881.99" x2="764.38" y2="885.83" class="down-wick"/>
<rect x="761.96" y="884.06" width="4.83" height="1.29" class="down-body"/>
<line x1="771.80" y1="885.18" x2="771.80" y2="887.59" class="down-wick"/>
<rect x="769.39" y="885.18" width="4.83" height="1.12" class="down-body"/>
<line x1="779.23" y1="886.34" x2="779.23" y2="888.24" class="down-wick"/>
<rect x="776.81" y="886.91" width="4.83" height="1.00" class="down-body"/>
<line x1="786.65" y1="887.42" x2="786.65" y2="891.05" class="up-wick"/>
<rect x="784.24" y="887.73" width="4.83" height="1.12" class="up-body"/>
<line x1="794.08" y1="882.36" x2="794.08" y2="888.41" class="down-wick"/>
<rect x="791.67" y="882.84" width="4.83" height="5.47" class="down-body"/>
<line x1="801.51" y1="890.44" x2="801.51" y2="902.12" class="down-wick"/>
<rect x="799.09" y="891.09" width="4.83" height="10.66" class="down-body"/>
<line x1="808.93" y1="896.62" x2="808.93" y2="900.76" class="up-wick"/>
<rect x="806.52" y="896.86" width="4.83" height="3.90" class="up-body"/>
<line x1="816.36" y1="897.23" x2="816.36" y2="902.06" class="up-wick"/>
<rect x="813.95" y="899.07" width="4.83" height="1.00" class="up-body"/>
<line x1="823.79" y1="900.49" x2="823.79" y2="920.22" class="down-wick"/>
<rect x="821.37" y="900.49" width="4.83" height="8.93" class="down-body"/>
<line x1="831.21" y1="901.00" x2="831.21" y2="908.06" class="down-wick"/>
<rect x="828.80" y="905.96" width="4.83" height="1.05" class="down-body"/>
<line x1="838.64" y1="905.25" x2="838.64" y2="907.93" class="down-wick"/>
<rect x="836.23" y="905.69" width="4.83" height="1.00" class="down-body"/>
<line x1="846.07" y1="899.92" x2="846.07" y2="906.37" class="up-wick"/>
<rect x="843.65" y="900.02" width="4.83" height="6.35" class="up-body"/>
<line x1="853.49" y1="898.73" x2="853.49" y2="901.38" class="up-wick"/>
<rect x="851.08" y="899.51" width="4.83" height="1.00" class="up-body"/>
<line x1="860.92" y1="896.18" x2="860.92" y2="904.84" class="down-wick"/>
<rect x="858.51" y="897.27" width="4.83" height="5.91" class="down-body"/>
<line x1="868.35" y1="907.25" x2="868.35" y2="913.16" class="up-wick"/>
<rect x="865.93" y="908.13" width="4.83" height="1.19" class="up-body"/>
<line x1="875.77" y1="910.31" x2="875.77" y2="916.86" class="down-wick"/>
<rect x="873.36" y="910.31" width="4.83" height="3.33" class="down-body"/>
<line x1="883.20" y1="911.70" x2="883.20" y2="914.48" class="down-wick"/>
<rect x="880.78" y="913.09" width="4.83" height="1.00" class="down-body"/>
<line x1="890.62" y1="896.89" x2="890.62" y2="907.66" class="up-wick"/>
<rect x="888.21" y="900.90" width="4.83" height="6.72" class="up-body"/>
<line x1="898.05" y1="902.56" x2="898.05" y2="908.10" class="down-wick"/>
<rect x="895.64" y="904.09" width="4.83" height="1.00" class="down-body"/>
<line x1="905.48" y1="904.16" x2="905.48" y2="907.49" class="down-wick"/>
<rect x="903.06" y="905.96" width="4.83" height="1.00" class="down-body"/>
<line x1="912.90" y1="903.07" x2="912.90" y2="909.49" class="down-wick"/>
<rect x="910.49" y="906.10" width="4.83" height="2.82" class="down-body"/>
<line x1="920.33" y1="907.35" x2="920.33" y2="918.62" class="up-wick"/>
<rect x="917.92" y="907.66" width="4.83" height="10.56" class="up-body"/>
<line x1="927.76" y1="905.86" x2="927.76" y2="909.52" class="down-wick"/>
<rect x="925.34" y="906.06" width="4.83" height="2.38" class="down-body"/>
<line x1="935.18" y1="912.55" x2="935.18" y2="914.45" class="up-wick"/>
<rect x="932.77" y="913.77" width="4.83" height="1.00" class="up-body"/>
<line x1="942.61" y1="907.35" x2="942.61" y2="911.97" class="up-wick"/>
<rect x="940.20" y="908.40" width="4.83" height="2.92" class="up-body"/>
<line x1="950.04" y1="900.09" x2="950.04" y2="904.47" class="up-wick"/>
<rect x="947.62" y="900.49" width="4.83" height="3.67" class="up-body"/>
<line x1="957.46" y1="883.82" x2="957.46" y2="891.09" class="up-wick"/>
<rect x="955.05" y="887.66" width="4.83" height="1.56" class="up-body"/>
<line x1="964.89" y1="886.13" x2="964.89" y2="895.30" class="down-wick"/>
<rect x="962.48" y="886.13" width="4.83" height="7.44" class="down-body"/>
<line x1="972.32" y1="887.08" x2="972.32" y2="892.01" class="down-wick"/>
<rect x="969.90" y="887.08" width="4.83" height="4.48" class="down-body"/>
<line x1="979.74" y1="884.37" x2="979.74" y2="892.79" class="up-wick"/>
<rect x="977.33" y="885.72" width="4.83" height="6.86" class="up-body"/>
<line x1="987.17" y1="883.04" x2="987.17" y2="888.34" class="up-wick"/>
<rect x="984.76" y="883.04" width="4.83" height="1.77" class="up-body"/>
<line x1="994.60" y1="874.76" x2="994.60" y2="880.22" class="up-wick"/>
<rect x="992.18" y="876.25" width="4.83" height="1.77" class="up-body"/>
<line x1="1002.02" y1="868.41" x2="1002.02" y2="876.22" class="down-wick"/>
<rect x="999.61" y="871.16" width="4.83" height="1.83" class="down-body"/>
<line x1="1009.45" y1="865.05" x2="1009.45" y2="872.31" class="up-wick"/>
<rect x="1007.03" y="869.49" width="4.83" height="1.46" class="up-body"/>
<line x1="1016.88" y1="870.24" x2="1016.88" y2="874.52" class="up-wick"/>
<rect x="1014.46" y="871.40" width="4.83" height="1.29" class="up-body"/>
<line x1="1024.30" y1="868.78" x2="1024.30" y2="875.91" class="up-wick"/>
<rect x="1021.89" y="871.02" width="4.83" height="3.19" class="up-body"/>
<line x1="1031.73" y1="865.28" x2="1031.73" y2="874.59" class="down-wick"/>
<rect x="1029.31" y="865.96" width="4.83" height="5.70" class="down-body"/>
<line x1="1039.15" y1="876.22" x2="1039.15" y2="881.45" class="down-wick"/>
<rect x="1036.74" y="876.93" width="4.83" height="4.38" class="down-body"/>
<line x1="1046.58" y1="873.47" x2="1046.58" y2="880.02" class="up-wick"/>
<rect x="1044.17" y="875.10" width="4.83" height="4.72" class="up-body"/>
<line x1="1054.01" y1="874.86" x2="1054.01" y2="880.39" class="down-wick"/>
<rect x="1051.59" y="875.44" width="4.83" height="3.40" class="down-body"/>
<line x1="1061.43" y1="874.83" x2="1061.43" y2="879.75" class="down-wick"/>
<rect x="1059.02" y="874.83" width="4.83" height="4.52" class="down-body"/>
<line x1="1068.86" y1="882.16" x2="1068.86" y2="887.39" class="down-wick"/>
<rect x="1066.45" y="883.38" width="4.83" height="2.38" class="down-body"/>
<line x1="1076.29" y1="877.07" x2="1076.29" y2="884.91" class="up-wick"/>
<rect x="1073.87" y="879.68" width="4.83" height="4.65" class="up-body"/>
<line x1="70" y1="881.99" x2="1080" y2="881.99" class="number-line"/>
<text x="1076" y="877.99" text-anchor="end" class="level-label">round 4720.00</text>
<line x1="70" y1="881.99" x2="1080" y2="881.99" class="entry-line"/>
<text x="1076" y="877.99" text-anchor="end" class="level-label">entry level 4720.00</text>
<text x="70" y="1056" class="axis-label">2026-04-13 03:45:00+00:00 to 2026-04-13 08:15:00+00:00</text>
<text x="1080" y="1056" text-anchor="end" class="axis-label">4674.05 - 4730.60</text>
</svg>