<svg xmlns="http://www.w3.org/2000/svg" width="1120" height="1054" viewBox="0 0 1120 1054">
<style>
text{font-family:Arial,Helvetica,sans-serif}.title{font-size:21px;font-weight:700;fill:#1f2937}.subtitle{font-size:12px;fill:#4b5563}.panel-title{font-size:15px;font-weight:700;fill:#111827}.muted{font-size:13px;fill:#6b7280}.plot-bg{fill:#f8fafc;stroke:#cbd5e1;stroke-width:1}.up-body{fill:#15803d;stroke:#14532d;stroke-width:.8}.down-body{fill:#b91c1c;stroke:#7f1d1d;stroke-width:.8}.up-wick{stroke:#14532d;stroke-width:1}.down-wick{stroke:#7f1d1d;stroke-width:1}.sweep-line{stroke:#7c3aed;stroke-width:1.6;stroke-dasharray:6 4}.number-line{stroke:#0f766e;stroke-width:1.4;stroke-dasharray:3 4}.entry-line{stroke:#2563eb;stroke-width:1.4}.sl-line{stroke:#dc2626;stroke-width:1.4}.tp-line{stroke:#16a34a;stroke-width:1.4}.level-label,.axis-label{font-size:11px;fill:#374151}
</style>
<text x="28" y="28" class="title">Adelin v2 visual review sample sample_102</text>
<text x="28" y="48" class="subtitle">Candidate windows are for visual labeling only and are not trade signals.</text>
<text x="560" y="48" class="subtitle" text-anchor="middle">NUMBER_THEORY_LEVEL_NEAR | ROUND_LEVEL_ENTRY_METADATA_AVAILABLE</text>
<text x="70" y="82" class="panel-title">H1 liquidity context</text>
<rect x="70" y="96" width="1010" height="192" class="plot-bg"/>
<line x1="85.30" y1="174.54" x2="85.30" y2="263.36" class="down-wick"/>
<rect x="81.30" y="198.37" width="8.00" height="6.16" class="down-body"/>
<line x1="115.91" y1="196.12" x2="115.91" y2="267.99" class="down-wick"/>
<rect x="111.91" y="204.53" width="8.00" height="55.00" class="down-body"/>
<line x1="146.52" y1="229.91" x2="146.52" y2="274.76" class="up-wick"/>
<rect x="142.52" y="241.08" width="8.00" height="18.45" class="up-body"/>
<line x1="177.12" y1="208.50" x2="177.12" y2="243.97" class="up-wick"/>
<rect x="173.12" y="235.48" width="8.00" height="5.55" class="up-body"/>
<line x1="207.73" y1="163.44" x2="207.73" y2="238.95" class="up-wick"/>
<rect x="203.73" y="200.89" width="8.00" height="34.59" class="up-body"/>
<line x1="238.33" y1="200.81" x2="238.33" y2="236.39" class="down-wick"/>
<rect x="234.33" y="200.89" width="8.00" height="11.70" class="down-body"/>
<line x1="268.94" y1="182.34" x2="268.94" y2="213.45" class="up-wick"/>
<rect x="264.94" y="183.56" width="8.00" height="29.02" class="up-body"/>
<line x1="299.55" y1="152.68" x2="299.55" y2="195.60" class="down-wick"/>
<rect x="295.55" y="183.53" width="8.00" height="10.04" class="down-body"/>
<line x1="330.15" y1="169.83" x2="330.15" y2="208.47" class="up-wick"/>
<rect x="326.15" y="172.63" width="8.00" height="20.94" class="up-body"/>
<line x1="360.76" y1="137.89" x2="360.76" y2="205.72" class="up-wick"/>
<rect x="356.76" y="143.27" width="8.00" height="29.37" class="up-body"/>
<line x1="391.36" y1="122.35" x2="391.36" y2="149.15" class="up-wick"/>
<rect x="387.36" y="126.11" width="8.00" height="17.15" class="up-body"/>
<line x1="421.97" y1="109.24" x2="421.97" y2="133.76" class="down-wick"/>
<rect x="417.97" y="126.11" width="8.00" height="3.41" class="down-body"/>
<line x1="452.58" y1="123.30" x2="452.58" y2="143.36" class="down-wick"/>
<rect x="448.58" y="129.52" width="8.00" height="6.05" class="down-body"/>
<line x1="483.18" y1="124.60" x2="483.18" y2="155.42" class="down-wick"/>
<rect x="479.18" y="135.57" width="8.00" height="18.50" class="down-body"/>
<line x1="513.79" y1="140.23" x2="513.79" y2="182.70" class="down-wick"/>
<rect x="509.79" y="154.12" width="8.00" height="3.16" class="down-body"/>
<line x1="544.39" y1="147.72" x2="544.39" y2="182.50" class="up-wick"/>
<rect x="540.39" y="151.18" width="8.00" height="6.10" class="up-body"/>
<line x1="575.00" y1="123.52" x2="575.00" y2="181.61" class="up-wick"/>
<rect x="571.00" y="146.00" width="8.00" height="5.16" class="up-body"/>
<line x1="605.61" y1="144.33" x2="605.61" y2="194.89" class="down-wick"/>
<rect x="601.61" y="146.00" width="8.00" height="23.31" class="down-body"/>
<line x1="636.21" y1="162.34" x2="636.21" y2="185.33" class="down-wick"/>
<rect x="632.21" y="169.32" width="8.00" height="12.26" class="down-body"/>
<line x1="666.82" y1="180.19" x2="666.82" y2="204.19" class="down-wick"/>
<rect x="662.82" y="181.52" width="8.00" height="10.65" class="down-body"/>
<line x1="697.42" y1="172.02" x2="697.42" y2="199.65" class="up-wick"/>
<rect x="693.42" y="184.88" width="8.00" height="7.21" class="up-body"/>
<line x1="728.03" y1="183.14" x2="728.03" y2="204.85" class="down-wick"/>
<rect x="724.03" y="184.88" width="8.00" height="4.43" class="down-body"/>
<line x1="758.64" y1="169.83" x2="758.64" y2="200.19" class="up-wick"/>
<rect x="754.64" y="184.69" width="8.00" height="15.50" class="up-body"/>
<line x1="789.24" y1="180.31" x2="789.24" y2="195.54" class="up-wick"/>
<rect x="785.24" y="183.97" width="8.00" height="1.00" class="up-body"/>
<line x1="819.85" y1="179.94" x2="819.85" y2="199.14" class="down-wick"/>
<rect x="815.85" y="183.94" width="8.00" height="6.27" class="down-body"/>
<line x1="850.45" y1="175.23" x2="850.45" y2="250.57" class="down-wick"/>
<rect x="846.45" y="190.21" width="8.00" height="43.56" class="down-body"/>
<line x1="881.06" y1="191.59" x2="881.06" y2="244.72" class="up-wick"/>
<rect x="877.06" y="196.89" width="8.00" height="36.89" class="up-body"/>
<line x1="911.67" y1="191.29" x2="911.67" y2="214.01" class="down-wick"/>
<rect x="907.67" y="196.89" width="8.00" height="1.16" class="down-body"/>
<line x1="942.27" y1="175.68" x2="942.27" y2="205.00" class="up-wick"/>
<rect x="938.27" y="182.58" width="8.00" height="15.46" class="up-body"/>
<line x1="972.88" y1="179.70" x2="972.88" y2="239.83" class="down-wick"/>
<rect x="968.88" y="181.81" width="8.00" height="27.01" class="down-body"/>
<line x1="1003.48" y1="187.50" x2="1003.48" y2="216.70" class="up-wick"/>
<rect x="999.48" y="192.29" width="8.00" height="16.53" class="up-body"/>
<line x1="1034.09" y1="186.58" x2="1034.09" y2="218.78" class="down-wick"/>
<rect x="1030.09" y="192.29" width="8.00" height="11.88" class="down-body"/>
<line x1="1064.70" y1="133.95" x2="1064.70" y2="206.69" class="up-wick"/>
<rect x="1060.70" y="146.38" width="8.00" height="57.79" class="up-body"/>
<line x1="70" y1="135.21" x2="1080" y2="135.21" class="number-line"/>
<text x="1076" y="131.21" text-anchor="end" class="level-label">round 4690.00</text>
<line x1="70" y1="135.21" x2="1080" y2="135.21" class="entry-line"/>
<text x="1076" y="131.21" text-anchor="end" class="level-label">entry level 4690.00</text>
<text x="70" y="306" class="axis-label">2026-04-06 01:00:00+00:00 to 2026-04-07 11:00:00+00:00</text>
<text x="1080" y="306" text-anchor="end" class="axis-label">4592.29 - 4715.08</text>
<text x="70" y="332" class="panel-title">M15 liquidity / reaction context</text>
<rect x="70" y="346" width="1010" height="192" class="plot-bg"/>
<line x1="77.77" y1="424.54" x2="77.77" y2="505.27" class="down-wick"/>
<rect x="73.77" y="448.37" width="8.00" height="30.93" class="down-body"/>
<line x1="93.31" y1="459.80" x2="93.31" y2="479.44" class="up-wick"/>
<rect x="89.31" y="469.31" width="8.00" height="10.13" class="up-body"/>
<line x1="108.85" y1="453.77" x2="108.85" y2="475.78" class="up-wick"/>
<rect x="104.85" y="459.24" width="8.00" height="9.95" class="up-body"/>
<line x1="124.38" y1="440.55" x2="124.38" y2="513.36" class="up-wick"/>
<rect x="120.38" y="454.53" width="8.00" height="4.71" class="up-body"/>
<line x1="139.92" y1="446.12" x2="139.92" y2="483.88" class="down-wick"/>
<rect x="135.92" y="454.53" width="8.00" height="20.61" class="down-body"/>
<line x1="155.46" y1="472.64" x2="155.46" y2="511.22" class="down-wick"/>
<rect x="151.46" y="475.14" width="8.00" height="35.48" class="down-body"/>
<line x1="171.00" y1="499.08" x2="171.00" y2="517.99" class="down-wick"/>
<rect x="167.00" y="510.62" width="8.00" height="4.27" class="down-body"/>
<line x1="186.54" y1="495.81" x2="186.54" y2="514.95" class="up-wick"/>
<rect x="182.54" y="509.53" width="8.00" height="5.33" class="up-body"/>
<line x1="202.08" y1="484.07" x2="202.08" y2="514.81" class="up-wick"/>
<rect x="198.08" y="485.18" width="8.00" height="24.35" class="up-body"/>
<line x1="217.62" y1="479.91" x2="217.62" y2="524.76" class="down-wick"/>
<rect x="213.62" y="485.18" width="8.00" height="35.46" class="down-body"/>
<line x1="233.15" y1="492.20" x2="233.15" y2="521.13" class="up-wick"/>
<rect x="229.15" y="496.06" width="8.00" height="24.58" class="up-body"/>
<line x1="248.69" y1="484.96" x2="248.69" y2="501.19" class="up-wick"/>
<rect x="244.69" y="491.08" width="8.00" height="4.99" class="up-body"/>
<line x1="264.23" y1="458.71" x2="264.23" y2="491.03" class="up-wick"/>
<rect x="260.23" y="460.63" width="8.00" height="30.40" class="up-body"/>
<line x1="279.77" y1="458.50" x2="279.77" y2="493.97" class="down-wick"/>
<rect x="275.77" y="460.65" width="8.00" height="1.00" class="down-body"/>
<line x1="295.31" y1="461.10" x2="295.31" y2="489.03" class="down-wick"/>
<rect x="291.31" y="461.43" width="8.00" height="21.00" class="down-body"/>
<line x1="310.85" y1="480.88" x2="310.85" y2="492.31" class="down-wick"/>
<rect x="306.85" y="482.43" width="8.00" height="3.05" class="down-body"/>
<line x1="326.38" y1="463.07" x2="326.38" y2="488.95" class="up-wick"/>
<rect x="322.38" y="469.20" width="8.00" height="16.28" class="up-body"/>
<line x1="341.92" y1="413.44" x2="341.92" y2="469.20" class="up-wick"/>
<rect x="337.92" y="430.36" width="8.00" height="38.84" class="up-body"/>
<line x1="357.46" y1="421.80" x2="357.46" y2="456.55" class="down-wick"/>
<rect x="353.46" y="430.36" width="8.00" height="15.68" class="down-body"/>
<line x1="373.00" y1="438.07" x2="373.00" y2="452.19" class="down-wick"/>
<rect x="369.00" y="446.04" width="8.00" height="4.85" class="down-body"/>
<line x1="388.54" y1="450.81" x2="388.54" y2="480.91" class="down-wick"/>
<rect x="384.54" y="450.89" width="8.00" height="22.97" class="down-body"/>
<line x1="404.08" y1="469.08" x2="404.08" y2="486.39" class="down-wick"/>
<rect x="400.08" y="473.86" width="8.00" height="4.64" class="down-body"/>
<line x1="419.62" y1="473.64" x2="419.62" y2="486.06" class="up-wick"/>
<rect x="415.62" y="475.02" width="8.00" height="3.49" class="up-body"/>
<line x1="435.15" y1="460.07" x2="435.15" y2="478.22" class="up-wick"/>
<rect x="431.15" y="462.59" width="8.00" height="12.43" class="up-body"/>
<line x1="450.69" y1="449.98" x2="450.69" y2="463.45" class="up-wick"/>
<rect x="446.69" y="457.96" width="8.00" height="4.63" class="up-body"/>
<line x1="466.23" y1="452.92" x2="466.23" y2="461.44" class="up-wick"/>
<rect x="462.23" y="452.94" width="8.00" height="5.02" class="up-body"/>
<line x1="481.77" y1="446.03" x2="481.77" y2="458.76" class="up-wick"/>
<rect x="477.77" y="449.47" width="8.00" height="3.47" class="up-body"/>
<line x1="497.31" y1="432.34" x2="497.31" y2="452.67" class="up-wick"/>
<rect x="493.31" y="433.56" width="8.00" height="15.90" class="up-body"/>
<line x1="512.85" y1="405.60" x2="512.85" y2="435.36" class="up-wick"/>
<rect x="508.85" y="410.66" width="8.00" height="22.88" class="up-body"/>
<line x1="528.38" y1="402.68" x2="528.38" y2="421.30" class="down-wick"/>
<rect x="524.38" y="410.66" width="8.00" height="9.95" class="down-body"/>
<line x1="543.92" y1="418.02" x2="543.92" y2="430.05" class="down-wick"/>
<rect x="539.92" y="420.60" width="8.00" height="9.10" class="down-body"/>
<line x1="559.46" y1="420.46" x2="559.46" y2="445.60" class="down-wick"/>
<rect x="555.46" y="429.69" width="8.00" height="13.89" class="down-body"/>
<line x1="575.00" y1="429.06" x2="575.00" y2="458.47" class="up-wick"/>
<rect x="571.00" y="430.55" width="8.00" height="13.03" class="up-body"/>
<line x1="590.54" y1="428.48" x2="590.54" y2="443.49" class="down-wick"/>
<rect x="586.54" y="430.55" width="8.00" height="5.69" class="down-body"/>
<line x1="606.08" y1="432.08" x2="606.08" y2="444.90" class="down-wick"/>
<rect x="602.08" y="436.24" width="8.00" height="2.72" class="down-body"/>
<line x1="621.62" y1="419.83" x2="621.62" y2="441.96" class="up-wick"/>
<rect x="617.62" y="422.63" width="8.00" height="16.32" class="up-body"/>
<line x1="637.15" y1="421.60" x2="637.15" y2="450.89" class="down-wick"/>
<rect x="633.15" y="422.63" width="8.00" height="22.13" class="down-body"/>
<line x1="652.69" y1="438.85" x2="652.69" y2="455.72" class="down-wick"/>
<rect x="648.69" y="444.76" width="8.00" height="1.77" class="down-body"/>
<line x1="668.23" y1="423.37" x2="668.23" y2="447.43" class="up-wick"/>
<rect x="664.23" y="425.20" width="8.00" height="21.33" class="up-body"/>
<line x1="683.77" y1="387.89" x2="683.77" y2="427.90" class="up-wick"/>
<rect x="679.77" y="393.27" width="8.00" height="31.95" class="up-body"/>
<line x1="699.31" y1="378.07" x2="699.31" y2="399.15" class="up-wick"/>
<rect x="695.31" y="385.56" width="8.00" height="7.71" class="up-body"/>
<line x1="714.85" y1="375.86" x2="714.85" y2="393.83" class="up-wick"/>
<rect x="710.85" y="382.98" width="8.00" height="2.58" class="up-body"/>
<line x1="730.38" y1="376.19" x2="730.38" y2="385.36" class="up-wick"/>
<rect x="726.38" y="380.24" width="8.00" height="2.74" class="up-body"/>
<line x1="745.92" y1="372.35" x2="745.92" y2="382.60" class="up-wick"/>
<rect x="741.92" y="376.11" width="8.00" height="4.13" class="up-body"/>
<line x1="761.46" y1="364.45" x2="761.46" y2="376.11" class="up-wick"/>
<rect x="757.46" y="367.58" width="8.00" height="8.54" class="up-body"/>
<line x1="777.00" y1="363.70" x2="777.00" y2="373.88" class="up-wick"/>
<rect x="773.00" y="365.76" width="8.00" height="1.85" class="up-body"/>
<line x1="792.54" y1="359.24" x2="792.54" y2="368.11" class="up-wick"/>
<rect x="788.54" y="364.32" width="8.00" height="1.47" class="up-body"/>
<line x1="808.08" y1="361.63" x2="808.08" y2="383.76" class="down-wick"/>
<rect x="804.08" y="364.32" width="8.00" height="15.20" class="down-body"/>
<line x1="823.62" y1="373.30" x2="823.62" y2="391.31" class="down-wick"/>
<rect x="819.62" y="379.52" width="8.00" height="10.66" class="down-body"/>
<line x1="839.15" y1="380.37" x2="839.15" y2="391.19" class="up-wick"/>
<rect x="835.15" y="385.48" width="8.00" height="4.85" class="up-body"/>
<line x1="854.69" y1="374.50" x2="854.69" y2="388.76" class="up-wick"/>
<rect x="850.69" y="377.21" width="8.00" height="8.27" class="up-body"/>
<line x1="870.23" y1="376.04" x2="870.23" y2="393.36" class="down-wick"/>
<rect x="866.23" y="376.61" width="8.00" height="8.96" class="down-body"/>
<line x1="885.77" y1="374.60" x2="885.77" y2="387.09" class="down-wick"/>
<rect x="881.77" y="385.57" width="8.00" height="1.00" class="down-body"/>
<line x1="901.31" y1="381.59" x2="901.31" y2="392.50" class="down-wick"/>
<rect x="897.31" y="386.07" width="8.00" height="1.61" class="down-body"/>
<line x1="916.85" y1="378.10" x2="916.85" y2="392.49" class="down-wick"/>
<rect x="912.85" y="387.69" width="8.00" height="4.80" class="down-body"/>
<line x1="932.38" y1="391.75" x2="932.38" y2="405.42" class="down-wick"/>
<rect x="928.38" y="392.49" width="8.00" height="11.59" class="down-body"/>
<line x1="947.92" y1="390.23" x2="947.92" y2="414.21" class="down-wick"/>
<rect x="943.92" y="404.12" width="8.00" height="8.46" class="down-body"/>
<line x1="963.46" y1="410.14" x2="963.46" y2="432.70" class="down-wick"/>
<rect x="959.46" y="412.58" width="8.00" height="10.13" class="down-body"/>
<line x1="979.00" y1="402.85" x2="979.00" y2="423.32" class="up-wick"/>
<rect x="975.00" y="405.67" width="8.00" height="17.04" class="up-body"/>
<line x1="994.54" y1="399.15" x2="994.54" y2="410.06" class="down-wick"/>
<rect x="990.54" y="405.67" width="8.00" height="1.61" class="down-body"/>
<line x1="1010.08" y1="404.81" x2="1010.08" y2="428.76" class="down-wick"/>
<rect x="1006.08" y="407.28" width="8.00" height="11.34" class="down-body"/>
<line x1="1025.62" y1="411.19" x2="1025.62" y2="432.50" class="up-wick"/>
<rect x="1021.62" y="418.57" width="8.00" height="1.00" class="up-body"/>
<line x1="1041.15" y1="402.21" x2="1041.15" y2="430.25" class="down-wick"/>
<rect x="1037.15" y="418.57" width="8.00" height="4.66" class="down-body"/>
<line x1="1056.69" y1="397.72" x2="1056.69" y2="429.47" class="up-wick"/>
<rect x="1052.69" y="401.18" width="8.00" height="22.05" class="up-body"/>
<line x1="1072.23" y1="384.17" x2="1072.23" y2="431.61" class="down-wick"/>
<rect x="1068.23" y="401.16" width="8.00" height="10.98" class="down-body"/>
<line x1="70" y1="385.21" x2="1080" y2="385.21" class="number-line"/>
<text x="1076" y="381.21" text-anchor="end" class="level-label">round 4690.00</text>
<line x1="70" y1="385.21" x2="1080" y2="385.21" class="entry-line"/>
<text x="1076" y="381.21" text-anchor="end" class="level-label">entry level 4690.00</text>
<text x="70" y="556" class="axis-label">2026-04-06 01:00:00+00:00 to 2026-04-06 17:00:00+00:00</text>
<text x="1080" y="556" text-anchor="end" class="axis-label">4592.29 - 4715.08</text>
<text x="70" y="582" class="panel-title">M5 reaction / execution context</text>
<rect x="70" y="596" width="1010" height="192" class="plot-bg"/>
<line x1="79.18" y1="734.20" x2="79.18" y2="746.27" class="up-wick"/>
<rect x="75.18" y="739.13" width="8.00" height="2.20" class="up-body"/>
<line x1="97.55" y1="736.99" x2="97.55" y2="756.19" class="down-wick"/>
<rect x="93.55" y="739.13" width="8.00" height="8.91" class="down-body"/>
<line x1="115.91" y1="738.70" x2="115.91" y2="752.31" class="up-wick"/>
<rect x="111.91" y="746.00" width="8.00" height="2.04" class="up-body"/>
<line x1="134.27" y1="742.08" x2="134.27" y2="751.15" class="up-wick"/>
<rect x="130.27" y="743.32" width="8.00" height="2.68" class="up-body"/>
<line x1="152.64" y1="713.19" x2="152.64" y2="746.05" class="up-wick"/>
<rect x="148.64" y="728.40" width="8.00" height="14.67" class="up-body"/>
<line x1="171.00" y1="717.89" x2="171.00" y2="737.93" class="up-wick"/>
<rect x="167.00" y="717.99" width="8.00" height="10.41" class="up-body"/>
<line x1="189.36" y1="716.22" x2="189.36" y2="738.73" class="down-wick"/>
<rect x="185.36" y="717.99" width="8.00" height="19.61" class="down-body"/>
<line x1="207.73" y1="734.25" x2="207.73" y2="746.24" class="down-wick"/>
<rect x="203.73" y="737.60" width="8.00" height="4.99" class="down-body"/>
<line x1="226.09" y1="742.38" x2="226.09" y2="766.47" class="down-wick"/>
<rect x="222.09" y="742.59" width="8.00" height="13.36" class="down-body"/>
<line x1="244.45" y1="745.81" x2="244.45" y2="770.31" class="down-wick"/>
<rect x="240.45" y="755.95" width="8.00" height="6.65" class="down-body"/>
<line x1="262.82" y1="760.76" x2="262.82" y2="774.36" class="down-wick"/>
<rect x="258.82" y="762.61" width="8.00" height="10.68" class="down-body"/>
<line x1="281.18" y1="758.98" x2="281.18" y2="774.76" class="up-wick"/>
<rect x="277.18" y="758.98" width="8.00" height="14.30" class="up-body"/>
<line x1="299.55" y1="751.15" x2="299.55" y2="760.54" class="up-wick"/>
<rect x="295.55" y="752.06" width="8.00" height="6.92" class="up-body"/>
<line x1="317.91" y1="740.18" x2="317.91" y2="752.57" class="up-wick"/>
<rect x="313.91" y="742.67" width="8.00" height="9.39" class="up-body"/>
<line x1="336.27" y1="719.26" x2="336.27" y2="743.53" class="up-wick"/>
<rect x="332.27" y="722.39" width="8.00" height="20.28" class="up-body"/>
<line x1="354.64" y1="701.58" x2="354.64" y2="727.03" class="up-wick"/>
<rect x="350.64" y="701.60" width="8.00" height="20.82" class="up-body"/>
<line x1="373.00" y1="665.15" x2="373.00" y2="701.66" class="up-wick"/>
<rect x="369.00" y="677.92" width="8.00" height="23.69" class="up-body"/>
<line x1="391.36" y1="658.39" x2="391.36" y2="679.18" class="up-wick"/>
<rect x="387.36" y="667.62" width="8.00" height="10.30" class="up-body"/>
<line x1="409.73" y1="641.54" x2="409.73" y2="677.70" class="up-wick"/>
<rect x="405.73" y="644.33" width="8.00" height="23.29" class="up-body"/>
<line x1="428.09" y1="644.33" x2="428.09" y2="674.03" class="down-wick"/>
<rect x="424.09" y="644.33" width="8.00" height="23.69" class="down-body"/>
<line x1="446.45" y1="648.35" x2="446.45" y2="670.49" class="up-wick"/>
<rect x="442.45" y="654.39" width="8.00" height="13.57" class="up-body"/>
<line x1="464.82" y1="647.28" x2="464.82" y2="666.03" class="down-wick"/>
<rect x="460.82" y="654.39" width="8.00" height="8.45" class="down-body"/>
<line x1="483.18" y1="644.84" x2="483.18" y2="668.58" class="up-wick"/>
<rect x="479.18" y="646.07" width="8.00" height="16.82" class="up-body"/>
<line x1="501.55" y1="637.76" x2="501.55" y2="653.75" class="down-wick"/>
<rect x="497.55" y="646.07" width="8.00" height="3.89" class="down-body"/>
<line x1="519.91" y1="641.03" x2="519.91" y2="653.69" class="up-wick"/>
<rect x="515.91" y="642.00" width="8.00" height="7.97" class="up-body"/>
<line x1="538.27" y1="638.32" x2="538.27" y2="653.37" class="down-wick"/>
<rect x="534.27" y="642.00" width="8.00" height="10.57" class="down-body"/>
<line x1="556.64" y1="643.77" x2="556.64" y2="654.04" class="up-wick"/>
<rect x="552.64" y="645.27" width="8.00" height="7.48" class="up-body"/>
<line x1="575.00" y1="634.62" x2="575.00" y2="646.56" class="up-wick"/>
<rect x="571.00" y="635.45" width="8.00" height="9.82" class="up-body"/>
<line x1="593.36" y1="634.32" x2="593.36" y2="649.32" class="down-wick"/>
<rect x="589.36" y="635.45" width="8.00" height="6.89" class="down-body"/>
<line x1="611.73" y1="631.72" x2="611.73" y2="644.71" class="up-wick"/>
<rect x="607.73" y="638.19" width="8.00" height="4.16" class="up-body"/>
<line x1="630.09" y1="619.97" x2="630.09" y2="638.19" class="up-wick"/>
<rect x="626.09" y="629.71" width="8.00" height="8.48" class="up-body"/>
<line x1="648.45" y1="618.17" x2="648.45" y2="631.72" class="up-wick"/>
<rect x="644.45" y="629.15" width="8.00" height="1.00" class="up-body"/>
<line x1="666.82" y1="623.11" x2="666.82" y2="634.16" class="up-wick"/>
<rect x="662.82" y="623.54" width="8.00" height="5.61" class="up-body"/>
<line x1="685.18" y1="616.89" x2="685.18" y2="631.59" class="down-wick"/>
<rect x="681.18" y="623.59" width="8.00" height="2.60" class="down-body"/>
<line x1="703.55" y1="619.78" x2="703.55" y2="634.35" class="up-wick"/>
<rect x="699.55" y="623.30" width="8.00" height="2.90" class="up-body"/>
<line x1="721.91" y1="618.79" x2="721.91" y2="628.13" class="up-wick"/>
<rect x="717.91" y="620.43" width="8.00" height="2.87" class="up-body"/>
<line x1="740.27" y1="613.51" x2="740.27" y2="624.45" class="up-wick"/>
<rect x="736.27" y="616.91" width="8.00" height="3.57" class="up-body"/>
<line x1="758.64" y1="615.33" x2="758.64" y2="621.61" class="down-wick"/>
<rect x="754.64" y="616.91" width="8.00" height="2.66" class="down-body"/>
<line x1="777.00" y1="609.24" x2="777.00" y2="621.21" class="up-wick"/>
<rect x="773.00" y="617.96" width="8.00" height="1.61" class="up-body"/>
<line x1="795.36" y1="613.35" x2="795.36" y2="626.22" class="down-wick"/>
<rect x="791.36" y="617.96" width="8.00" height="7.59" class="down-body"/>
<line x1="813.73" y1="625.07" x2="813.73" y2="650.07" class="down-wick"/>
<rect x="809.73" y="625.42" width="8.00" height="18.24" class="down-body"/>
<line x1="832.09" y1="639.61" x2="832.09" y2="651.30" class="down-wick"/>
<rect x="828.09" y="643.66" width="8.00" height="1.00" class="down-body"/>
<line x1="850.45" y1="633.57" x2="850.45" y2="645.70" class="up-wick"/>
<rect x="846.45" y="633.84" width="8.00" height="10.19" class="up-body"/>
<line x1="868.82" y1="633.36" x2="868.82" y2="649.43" class="down-wick"/>
<rect x="864.82" y="633.73" width="8.00" height="10.68" class="down-body"/>
<line x1="887.18" y1="635.69" x2="887.18" y2="664.26" class="down-wick"/>
<rect x="883.18" y="644.41" width="8.00" height="17.92" class="down-body"/>
<line x1="905.55" y1="651.49" x2="905.55" y2="664.05" class="up-wick"/>
<rect x="901.55" y="652.65" width="8.00" height="9.93" class="up-body"/>
<line x1="923.91" y1="645.48" x2="923.91" y2="655.62" class="down-wick"/>
<rect x="919.91" y="652.65" width="8.00" height="1.00" class="down-body"/>
<line x1="942.27" y1="654.26" x2="942.27" y2="663.11" class="up-wick"/>
<rect x="938.27" y="654.26" width="8.00" height="3.84" class="up-body"/>
<line x1="960.64" y1="643.31" x2="960.64" y2="656.21" class="up-wick"/>
<rect x="956.64" y="653.64" width="8.00" height="1.00" class="up-body"/>
<line x1="979.00" y1="648.22" x2="979.00" y2="659.89" class="up-wick"/>
<rect x="975.00" y="648.73" width="8.00" height="4.91" class="up-body"/>
<line x1="997.36" y1="635.42" x2="997.36" y2="648.76" class="up-wick"/>
<rect x="993.36" y="640.06" width="8.00" height="8.66" class="up-body"/>
<line x1="1015.73" y1="638.05" x2="1015.73" y2="667.78" class="down-wick"/>
<rect x="1011.73" y="639.05" width="8.00" height="7.46" class="down-body"/>
<line x1="1034.09" y1="641.54" x2="1034.09" y2="651.17" class="down-wick"/>
<rect x="1030.09" y="646.50" width="8.00" height="4.32" class="down-body"/>
<line x1="1052.45" y1="646.48" x2="1052.45" y2="657.13" class="down-wick"/>
<rect x="1048.45" y="650.82" width="8.00" height="3.59" class="down-body"/>
<line x1="1070.82" y1="637.70" x2="1070.82" y2="656.08" class="up-wick"/>
<rect x="1066.82" y="645.89" width="8.00" height="8.53" class="up-body"/>
<line x1="70" y1="653.80" x2="1080" y2="653.80" class="number-line"/>
<text x="1076" y="649.80" text-anchor="end" class="level-label">round 4690.00</text>
<line x1="70" y1="653.80" x2="1080" y2="653.80" class="entry-line"/>
<text x="1076" y="649.80" text-anchor="end" class="level-label">entry level 4690.00</text>
<text x="70" y="806" class="axis-label">2026-04-06 09:30:00+00:00 to 2026-04-06 14:00:00+00:00</text>
<text x="1080" y="806" text-anchor="end" class="axis-label">4639.97 - 4711.55</text>
<text x="70" y="832" class="panel-title">M1 execution window</text>
<rect x="70" y="846" width="1010" height="192" class="plot-bg"/>
<line x1="73.71" y1="990.74" x2="73.71" y2="993.99" class="down-wick"/>
<rect x="71.30" y="991.06" width="4.83" height="2.38" class="down-body"/>
<line x1="81.14" y1="983.78" x2="81.14" y2="989.12" class="up-wick"/>
<rect x="78.73" y="985.84" width="4.83" height="1.94" class="up-body"/>
<line x1="88.57" y1="985.78" x2="88.57" y2="989.61" class="down-wick"/>
<rect x="86.15" y="987.40" width="4.83" height="1.42" class="down-body"/>
<line x1="95.99" y1="987.15" x2="95.99" y2="994.84" class="down-wick"/>
<rect x="93.58" y="988.38" width="4.83" height="4.08" class="down-body"/>
<line x1="103.42" y1="1001.66" x2="103.42" y2="1006.23" class="down-wick"/>
<rect x="101.01" y="1002.12" width="4.83" height="2.30" class="down-body"/>
<line x1="110.85" y1="994.70" x2="110.85" y2="1000.37" class="down-wick"/>
<rect x="108.43" y="997.91" width="4.83" height="2.46" class="down-body"/>
<line x1="118.27" y1="995.31" x2="118.27" y2="1000.26" class="up-wick"/>
<rect x="115.86" y="995.74" width="4.83" height="4.16" class="up-body"/>
<line x1="125.70" y1="989.86" x2="125.70" y2="995.94" class="down-wick"/>
<rect x="123.28" y="990.22" width="4.83" height="5.61" class="down-body"/>
<line x1="133.12" y1="995.88" x2="133.12" y2="1001.08" class="down-wick"/>
<rect x="130.71" y="995.96" width="4.83" height="1.00" class="down-body"/>
<line x1="140.55" y1="991.97" x2="140.55" y2="997.77" class="up-wick"/>
<rect x="138.14" y="992.60" width="4.83" height="4.84" class="up-body"/>
<line x1="147.98" y1="972.86" x2="147.98" y2="995.88" class="up-wick"/>
<rect x="145.56" y="973.00" width="4.83" height="19.84" class="up-body"/>
<line x1="155.40" y1="962.35" x2="155.40" y2="974.31" class="up-wick"/>
<rect x="152.99" y="968.24" width="4.83" height="1.51" class="up-body"/>
<line x1="162.83" y1="974.48" x2="162.83" y2="980.96" class="down-wick"/>
<rect x="160.42" y="975.00" width="4.83" height="2.87" class="down-body"/>
<line x1="170.26" y1="978.94" x2="170.26" y2="984.03" class="up-wick"/>
<rect x="167.84" y="981.07" width="4.83" height="2.19" class="up-body"/>
<line x1="177.68" y1="970.78" x2="177.68" y2="977.65" class="down-wick"/>
<rect x="175.27" y="974.07" width="4.83" height="2.30" class="down-body"/>
<line x1="185.11" y1="965.44" x2="185.11" y2="973.27" class="down-wick"/>
<rect x="182.70" y="967.25" width="4.83" height="3.78" class="down-body"/>
<line x1="192.54" y1="976.64" x2="192.54" y2="978.58" class="up-wick"/>
<rect x="190.12" y="977.27" width="4.83" height="1.00" class="up-body"/>
<line x1="199.96" y1="980.91" x2="199.96" y2="988.41" class="down-wick"/>
<rect x="197.55" y="981.29" width="4.83" height="5.97" class="down-body"/>
<line x1="207.39" y1="983.84" x2="207.39" y2="991.34" class="down-wick"/>
<rect x="204.98" y="985.26" width="4.83" height="1.00" class="down-body"/>
<line x1="214.82" y1="985.37" x2="214.82" y2="991.12" class="down-wick"/>
<rect x="212.40" y="988.38" width="4.83" height="1.00" class="down-body"/>
<line x1="222.24" y1="992.13" x2="222.24" y2="997.30" class="down-wick"/>
<rect x="219.83" y="992.35" width="4.83" height="1.72" class="down-body"/>
<line x1="229.67" y1="1002.83" x2="229.67" y2="1012.28" class="down-wick"/>
<rect x="227.26" y="1003.03" width="4.83" height="5.75" class="down-body"/>
<line x1="237.10" y1="1005.82" x2="237.10" y2="1016.71" class="up-wick"/>
<rect x="234.68" y="1005.98" width="4.83" height="1.48" class="up-body"/>
<line x1="244.52" y1="995.64" x2="244.52" y2="1009.13" class="down-wick"/>
<rect x="242.11" y="1000.70" width="4.83" height="7.55" class="down-body"/>
<line x1="251.95" y1="1008.99" x2="251.95" y2="1020.63" class="down-wick"/>
<rect x="249.53" y="1009.32" width="4.83" height="3.48" class="down-body"/>
<line x1="259.38" y1="1010.88" x2="259.38" y2="1013.81" class="up-wick"/>
<rect x="256.96" y="1011.48" width="4.83" height="1.29" class="up-body"/>
<line x1="266.80" y1="1011.57" x2="266.80" y2="1015.34" class="down-wick"/>
<rect x="264.39" y="1012.22" width="4.83" height="1.81" class="down-body"/>
<line x1="274.23" y1="1012.58" x2="274.23" y2="1024.76" class="down-wick"/>
<rect x="271.81" y="1013.43" width="4.83" height="10.24" class="down-body"/>
<line x1="281.65" y1="1018.96" x2="281.65" y2="1022.71" class="up-wick"/>
<rect x="279.24" y="1019.17" width="4.83" height="2.41" class="up-body"/>
<line x1="289.08" y1="1010.36" x2="289.08" y2="1021.42" class="up-wick"/>
<rect x="286.67" y="1010.88" width="4.83" height="9.47" class="up-body"/>
<line x1="296.51" y1="1005.35" x2="296.51" y2="1010.66" class="up-wick"/>
<rect x="294.09" y="1008.45" width="4.83" height="1.00" class="up-body"/>
<line x1="303.93" y1="1005.05" x2="303.93" y2="1008.77" class="up-wick"/>
<rect x="301.52" y="1005.05" width="4.83" height="1.00" class="up-body"/>
<line x1="311.36" y1="1001.82" x2="311.36" y2="1005.87" class="up-wick"/>
<rect x="308.95" y="1002.01" width="4.83" height="3.26" class="up-body"/>
<line x1="318.79" y1="993.80" x2="318.79" y2="999.85" class="up-wick"/>
<rect x="316.37" y="994.73" width="4.83" height="2.38" class="up-body"/>
<line x1="326.21" y1="993.12" x2="326.21" y2="998.59" class="down-wick"/>
<rect x="323.80" y="993.45" width="4.83" height="1.07" class="down-body"/>
<line x1="333.64" y1="989.67" x2="333.64" y2="993.31" class="up-wick"/>
<rect x="331.23" y="992.35" width="4.83" height="1.00" class="up-body"/>
<line x1="341.07" y1="972.23" x2="341.07" y2="985.64" class="up-wick"/>
<rect x="338.65" y="972.23" width="4.83" height="13.41" class="up-body"/>
<line x1="348.49" y1="970.86" x2="348.49" y2="976.69" class="up-wick"/>
<rect x="346.08" y="971.74" width="4.83" height="1.00" class="up-body"/>
<line x1="355.92" y1="970.29" x2="355.92" y2="976.47" class="down-wick"/>
<rect x="353.51" y="974.53" width="4.83" height="1.00" class="down-body"/>
<line x1="363.35" y1="966.92" x2="363.35" y2="974.83" class="up-wick"/>
<rect x="360.93" y="967.28" width="4.83" height="7.01" class="up-body"/>
<line x1="370.77" y1="937.06" x2="370.77" y2="950.58" class="up-wick"/>
<rect x="368.36" y="937.91" width="4.83" height="12.62" class="up-body"/>
<line x1="378.20" y1="919.24" x2="378.20" y2="936.98" class="up-wick"/>
<rect x="375.78" y="923.48" width="4.83" height="8.92" class="up-body"/>
<line x1="385.62" y1="913.33" x2="385.62" y2="931.97" class="down-wick"/>
<rect x="383.21" y="921.16" width="4.83" height="5.20" class="down-body"/>
<line x1="393.05" y1="911.22" x2="393.05" y2="918.56" class="up-wick"/>
<rect x="390.64" y="912.53" width="4.83" height="5.42" class="up-body"/>
<line x1="400.48" y1="906.43" x2="400.48" y2="918.34" class="up-wick"/>
<rect x="398.06" y="908.18" width="4.83" height="7.53" class="up-body"/>
<line x1="407.90" y1="912.86" x2="407.90" y2="926.14" class="up-wick"/>
<rect x="405.49" y="913.71" width="4.83" height="2.13" class="up-body"/>
<line x1="415.33" y1="907.53" x2="415.33" y2="916.34" class="up-wick"/>
<rect x="412.92" y="910.32" width="4.83" height="2.82" class="up-body"/>
<line x1="422.76" y1="889.24" x2="422.76" y2="907.44" class="up-wick"/>
<rect x="420.34" y="892.09" width="4.83" height="13.17" class="up-body"/>
<line x1="430.18" y1="905.58" x2="430.18" y2="916.42" class="down-wick"/>
<rect x="427.77" y="908.51" width="4.83" height="4.38" class="down-body"/>
<line x1="437.61" y1="914.81" x2="437.61" y2="922.39" class="down-wick"/>
<rect x="435.20" y="915.33" width="4.83" height="3.12" class="down-body"/>
<line x1="445.04" y1="914.37" x2="445.04" y2="918.78" class="down-wick"/>
<rect x="442.62" y="916.20" width="4.83" height="1.00" class="down-body"/>
<line x1="452.46" y1="905.20" x2="452.46" y2="912.73" class="up-wick"/>
<rect x="450.05" y="906.43" width="4.83" height="5.28" class="up-body"/>
<line x1="459.89" y1="896.19" x2="459.89" y2="903.67" class="down-wick"/>
<rect x="457.48" y="902.08" width="4.83" height="1.00" class="down-body"/>
<line x1="467.32" y1="897.73" x2="467.32" y2="909.52" class="up-wick"/>
<rect x="464.90" y="900.44" width="4.83" height="3.97" class="up-body"/>
<line x1="474.74" y1="902.68" x2="474.74" y2="909.82" class="down-wick"/>
<rect x="472.33" y="903.17" width="4.83" height="6.57" class="down-body"/>
<line x1="482.17" y1="908.81" x2="482.17" y2="916.83" class="down-wick"/>
<rect x="479.76" y="911.03" width="4.83" height="2.44" class="down-body"/>
<line x1="489.60" y1="910.78" x2="489.60" y2="914.31" class="up-wick"/>
<rect x="487.18" y="910.78" width="4.83" height="1.92" class="up-body"/>
<line x1="497.02" y1="892.61" x2="497.02" y2="905.53" class="up-wick"/>
<rect x="494.61" y="893.87" width="4.83" height="8.46" class="up-body"/>
<line x1="504.45" y1="885.98" x2="504.45" y2="893.05" class="down-wick"/>
<rect x="502.03" y="886.12" width="4.83" height="4.74" class="down-body"/>
<line x1="511.88" y1="893.13" x2="511.88" y2="901.70" class="down-wick"/>
<rect x="509.46" y="893.73" width="4.83" height="6.87" class="down-body"/>
<line x1="519.30" y1="892.50" x2="519.30" y2="901.09" class="down-wick"/>
<rect x="516.89" y="897.84" width="4.83" height="1.20" class="down-body"/>
<line x1="526.73" y1="893.32" x2="526.73" y2="901.64" class="up-wick"/>
<rect x="524.31" y="897.43" width="4.83" height="1.00" class="up-body"/>
<line x1="534.15" y1="888.72" x2="534.15" y2="895.89" class="up-wick"/>
<rect x="531.74" y="889.71" width="4.83" height="5.15" class="up-body"/>
<line x1="541.58" y1="885.96" x2="541.58" y2="898.41" class="down-wick"/>
<rect x="539.17" y="891.49" width="4.83" height="6.02" class="down-body"/>
<line x1="549.01" y1="890.14" x2="549.01" y2="895.59" class="up-wick"/>
<rect x="546.59" y="891.21" width="4.83" height="3.50" class="up-body"/>
<line x1="556.43" y1="896.41" x2="556.43" y2="900.87" class="up-wick"/>
<rect x="554.02" y="897.64" width="4.83" height="3.04" class="up-body"/>
<line x1="563.86" y1="897.78" x2="563.86" y2="901.59" class="up-wick"/>
<rect x="561.45" y="898.88" width="4.83" height="2.33" class="up-body"/>
<line x1="571.29" y1="891.51" x2="571.29" y2="897.51" class="up-wick"/>
<rect x="568.87" y="893.05" width="4.83" height="3.15" class="up-body"/>
<line x1="578.71" y1="883.14" x2="578.71" y2="890.61" class="up-wick"/>
<rect x="576.30" y="883.30" width="4.83" height="4.52" class="up-body"/>
<line x1="586.14" y1="884.59" x2="586.14" y2="892.69" class="up-wick"/>
<rect x="583.73" y="886.20" width="4.83" height="2.90" class="up-body"/>
<line x1="593.57" y1="881.88" x2="593.57" y2="888.50" class="down-wick"/>
<rect x="591.15" y="883.03" width="4.83" height="4.57" class="down-body"/>
<line x1="600.99" y1="889.35" x2="600.99" y2="896.52" class="down-wick"/>
<rect x="598.58" y="889.95" width="4.83" height="4.43" class="down-body"/>
<line x1="608.42" y1="888.86" x2="608.42" y2="895.81" class="up-wick"/>
<rect x="606.01" y="890.06" width="4.83" height="5.72" class="up-body"/>
<line x1="615.85" y1="882.84" x2="615.85" y2="892.17" class="up-wick"/>
<rect x="613.43" y="887.98" width="4.83" height="4.19" class="up-body"/>
<line x1="623.27" y1="879.22" x2="623.27" y2="885.44" class="down-wick"/>
<rect x="620.86" y="883.33" width="4.83" height="1.00" class="down-body"/>
<line x1="630.70" y1="867.23" x2="630.70" y2="885.82" class="up-wick"/>
<rect x="628.28" y="879.36" width="4.83" height="6.46" class="up-body"/>
<line x1="638.12" y1="873.56" x2="638.12" y2="880.35" class="up-wick"/>
<rect x="635.71" y="877.96" width="4.83" height="1.20" class="up-body"/>
<line x1="645.55" y1="871.45" x2="645.55" y2="881.55" class="down-wick"/>
<rect x="643.14" y="873.39" width="4.83" height="3.78" class="down-body"/>
<line x1="652.98" y1="866.03" x2="652.98" y2="872.71" class="up-wick"/>
<rect x="650.56" y="867.01" width="4.83" height="5.34" class="up-body"/>
<line x1="660.40" y1="870.00" x2="660.40" y2="877.53" class="down-wick"/>
<rect x="657.99" y="870.41" width="4.83" height="5.20" class="down-body"/>
<line x1="667.83" y1="876.60" x2="667.83" y2="879.55" class="down-wick"/>
<rect x="665.42" y="876.60" width="4.83" height="1.56" class="down-body"/>
<line x1="675.26" y1="876.13" x2="675.26" y2="879.41" class="up-wick"/>
<rect x="672.84" y="877.69" width="4.83" height="1.00" class="up-body"/>
<line x1="682.68" y1="870.44" x2="682.68" y2="876.32" class="up-wick"/>
<rect x="680.27" y="870.87" width="4.83" height="5.45" class="up-body"/>
<line x1="690.11" y1="864.09" x2="690.11" y2="874.79" class="up-wick"/>
<rect x="687.70" y="873.69" width="4.83" height="1.00" class="up-body"/>
<line x1="697.54" y1="871.34" x2="697.54" y2="879.09" class="down-wick"/>
<rect x="695.12" y="872.95" width="4.83" height="2.52" class="down-body"/>
<line x1="704.96" y1="870.98" x2="704.96" y2="875.53" class="down-wick"/>
<rect x="702.55" y="873.58" width="4.83" height="1.01" class="down-body"/>
<line x1="712.39" y1="869.26" x2="712.39" y2="872.35" class="up-wick"/>
<rect x="709.98" y="871.53" width="4.83" height="1.00" class="up-body"/>
<line x1="719.82" y1="867.04" x2="719.82" y2="881.85" class="up-wick"/>
<rect x="717.40" y="870.63" width="4.83" height="10.81" class="up-body"/>
<line x1="727.24" y1="869.23" x2="727.24" y2="875.55" class="down-wick"/>
<rect x="724.83" y="871.28" width="4.83" height="2.19" class="down-body"/>
<line x1="734.67" y1="868.88" x2="734.67" y2="874.46" class="up-wick"/>
<rect x="732.26" y="871.04" width="4.83" height="3.42" class="up-body"/>
<line x1="742.10" y1="862.83" x2="742.10" y2="867.75" class="up-wick"/>
<rect x="739.68" y="867.48" width="4.83" height="1.00" class="up-body"/>
<line x1="749.52" y1="863.62" x2="749.52" y2="871.81" class="up-wick"/>
<rect x="747.11" y="864.14" width="4.83" height="1.04" class="up-body"/>
<line x1="756.95" y1="863.16" x2="756.95" y2="868.58" class="up-wick"/>
<rect x="754.53" y="864.11" width="4.83" height="1.86" class="up-body"/>
<line x1="764.38" y1="862.50" x2="764.38" y2="867.78" class="down-wick"/>
<rect x="761.96" y="864.44" width="4.83" height="1.00" class="down-body"/>
<line x1="771.80" y1="865.32" x2="771.80" y2="868.30" class="up-wick"/>
<rect x="769.39" y="866.88" width="4.83" height="1.00" class="up-body"/>
<line x1="779.23" y1="865.62" x2="779.23" y2="868.41" class="up-wick"/>
<rect x="776.81" y="866.47" width="4.83" height="1.00" class="up-body"/>
<line x1="786.65" y1="860.06" x2="786.65" y2="867.54" class="up-wick"/>
<rect x="784.24" y="860.06" width="4.83" height="7.42" class="up-body"/>
<line x1="794.08" y1="859.24" x2="794.08" y2="865.45" class="down-wick"/>
<rect x="791.67" y="861.13" width="4.83" height="4.05" class="down-body"/>
<line x1="801.51" y1="864.61" x2="801.51" y2="868.88" class="up-wick"/>
<rect x="799.09" y="865.26" width="4.83" height="2.98" class="up-body"/>
<line x1="808.93" y1="868.22" x2="808.93" y2="873.50" class="up-wick"/>
<rect x="806.52" y="869.18" width="4.83" height="4.05" class="up-body"/>
<line x1="816.36" y1="872.43" x2="816.36" y2="894.39" class="down-wick"/>
<rect x="813.95" y="872.79" width="4.83" height="10.67" class="down-body"/>
<line x1="823.79" y1="875.25" x2="823.79" y2="881.69" class="down-wick"/>
<rect x="821.37" y="877.61" width="4.83" height="1.51" class="down-body"/>
<line x1="831.21" y1="884.89" x2="831.21" y2="897.95" class="down-wick"/>
<rect x="828.80" y="884.89" width="4.83" height="6.51" class="down-body"/>
<line x1="838.64" y1="888.56" x2="838.64" y2="896.33" class="down-wick"/>
<rect x="836.23" y="888.56" width="4.83" height="4.02" class="down-body"/>
<line x1="846.07" y1="893.40" x2="846.07" y2="899.20" class="up-wick"/>
<rect x="843.65" y="894.44" width="4.83" height="1.00" class="up-body"/>
<line x1="853.49" y1="888.94" x2="853.49" y2="893.48" class="up-wick"/>
<rect x="851.08" y="889.02" width="4.83" height="2.76" class="up-body"/>
<line x1="860.92" y1="881.36" x2="860.92" y2="887.98" class="up-wick"/>
<rect x="858.51" y="883.16" width="4.83" height="4.68" class="up-body"/>
<line x1="868.35" y1="881.11" x2="868.35" y2="887.95" class="up-wick"/>
<rect x="865.93" y="881.39" width="4.83" height="6.27" class="up-body"/>
<line x1="875.77" y1="883.30" x2="875.77" y2="890.03" class="up-wick"/>
<rect x="873.36" y="884.26" width="4.83" height="2.87" class="up-body"/>
<line x1="883.20" y1="889.98" x2="883.20" y2="897.29" class="down-wick"/>
<rect x="880.78" y="890.34" width="4.83" height="3.09" class="down-body"/>
<line x1="890.62" y1="883.27" x2="890.62" y2="894.88" class="up-wick"/>
<rect x="888.21" y="884.12" width="4.83" height="8.05" class="up-body"/>
<line x1="898.05" y1="892.94" x2="898.05" y2="897.67" class="down-wick"/>
<rect x="895.64" y="893.21" width="4.83" height="2.60" class="down-body"/>
<line x1="905.48" y1="896.90" x2="905.48" y2="912.42" class="down-wick"/>
<rect x="903.06" y="898.08" width="4.83" height="12.37" class="down-body"/>
<line x1="912.90" y1="900.82" x2="912.90" y2="908.10" class="up-wick"/>
<rect x="910.49" y="901.48" width="4.83" height="5.06" class="up-body"/>
<line x1="920.33" y1="902.38" x2="920.33" y2="906.70" class="up-wick"/>
<rect x="917.92" y="902.49" width="4.83" height="1.12" class="up-body"/>
<line x1="927.76" y1="898.66" x2="927.76" y2="903.61" class="up-wick"/>
<rect x="925.34" y="898.96" width="4.83" height="1.61" class="up-body"/>
<line x1="935.18" y1="893.26" x2="935.18" y2="902.79" class="down-wick"/>
<rect x="932.77" y="893.81" width="4.83" height="5.72" class="down-body"/>
<line x1="942.61" y1="897.29" x2="942.61" y2="901.15" class="down-wick"/>
<rect x="940.20" y="897.29" width="4.83" height="3.42" class="down-body"/>
<line x1="950.04" y1="905.25" x2="950.04" y2="910.76" class="down-wick"/>
<rect x="947.62" y="906.35" width="4.83" height="4.08" class="down-body"/>
<line x1="957.46" y1="907.74" x2="957.46" y2="910.13" class="up-wick"/>
<rect x="955.05" y="907.74" width="4.83" height="1.67" class="up-body"/>
<line x1="964.89" y1="900.90" x2="964.89" y2="904.21" class="up-wick"/>
<rect x="962.48" y="902.02" width="4.83" height="1.00" class="up-body"/>
<line x1="972.32" y1="894.33" x2="972.32" y2="900.00" class="up-wick"/>
<rect x="969.90" y="894.61" width="4.83" height="4.13" class="up-body"/>
<line x1="979.74" y1="892.01" x2="979.74" y2="903.23" class="down-wick"/>
<rect x="977.33" y="892.01" width="4.83" height="9.58" class="down-body"/>
<line x1="987.17" y1="905.12" x2="987.17" y2="907.96" class="up-wick"/>
<rect x="984.76" y="905.94" width="4.83" height="1.37" class="up-body"/>
<line x1="994.60" y1="897.43" x2="994.60" y2="900.49" class="down-wick"/>
<rect x="992.18" y="900.03" width="4.83" height="1.00" class="down-body"/>
<line x1="1002.02" y1="888.20" x2="1002.02" y2="896.60" class="up-wick"/>
<rect x="999.61" y="889.76" width="4.83" height="6.82" class="up-body"/>
<line x1="1009.45" y1="886.91" x2="1009.45" y2="888.78" class="up-wick"/>
<rect x="1007.03" y="887.19" width="4.83" height="1.37" class="up-body"/>
<line x1="1016.88" y1="883.00" x2="1016.88" y2="887.74" class="down-wick"/>
<rect x="1014.46" y="886.42" width="4.83" height="1.31" class="down-body"/>
<line x1="1024.30" y1="888.20" x2="1024.30" y2="916.01" class="down-wick"/>
<rect x="1021.89" y="889.84" width="4.83" height="20.09" class="down-body"/>
<line x1="1031.73" y1="892.99" x2="1031.73" y2="905.83" class="up-wick"/>
<rect x="1029.31" y="893.18" width="4.83" height="12.32" class="up-body"/>
<line x1="1039.15" y1="891.07" x2="1039.15" y2="897.48" class="up-wick"/>
<rect x="1036.74" y="891.35" width="4.83" height="2.96" class="up-body"/>
<line x1="1046.58" y1="892.39" x2="1046.58" y2="896.25" class="up-wick"/>
<rect x="1044.17" y="895.67" width="4.83" height="1.00" class="up-body"/>
<line x1="1054.01" y1="890.42" x2="1054.01" y2="899.07" class="down-wick"/>
<rect x="1051.59" y="890.45" width="4.83" height="8.27" class="down-body"/>
<line x1="1061.43" y1="894.28" x2="1061.43" y2="900.55" class="down-wick"/>
<rect x="1059.02" y="898.41" width="4.83" height="2.13" class="down-body"/>
<line x1="1068.86" y1="900.00" x2="1068.86" y2="905.14" class="down-wick"/>
<rect x="1066.45" y="900.57" width="4.83" height="1.26" class="down-body"/>
<line x1="1076.29" y1="898.90" x2="1076.29" y2="904.08" class="up-wick"/>
<rect x="1073.87" y="899.59" width="4.83" height="2.79" class="up-body"/>
<line x1="70" y1="901.75" x2="1080" y2="901.75" class="number-line"/>
<text x="1076" y="897.75" text-anchor="end" class="level-label">round 4690.00</text>
<line x1="70" y1="901.75" x2="1080" y2="901.75" class="entry-line"/>
<text x="1076" y="897.75" text-anchor="end" class="level-label">entry level 4690.00</text>
<text x="70" y="1056" class="axis-label">2026-04-06 09:30:00+00:00 to 2026-04-06 14:00:00+00:00</text>
<text x="1080" y="1056" text-anchor="end" class="axis-label">4640.22 - 4710.37</text>
</svg>