<svg xmlns="http://www.w3.org/2000/svg" width="1120" height="1054" viewBox="0 0 1120 1054">
<style>
text{font-family:Arial,Helvetica,sans-serif}.title{font-size:21px;font-weight:700;fill:#1f2937}.subtitle{font-size:12px;fill:#4b5563}.panel-title{font-size:15px;font-weight:700;fill:#111827}.muted{font-size:13px;fill:#6b7280}.plot-bg{fill:#f8fafc;stroke:#cbd5e1;stroke-width:1}.up-body{fill:#15803d;stroke:#14532d;stroke-width:.8}.down-body{fill:#b91c1c;stroke:#7f1d1d;stroke-width:.8}.up-wick{stroke:#14532d;stroke-width:1}.down-wick{stroke:#7f1d1d;stroke-width:1}.sweep-line{stroke:#7c3aed;stroke-width:1.6;stroke-dasharray:6 4}.number-line{stroke:#0f766e;stroke-width:1.4;stroke-dasharray:3 4}.entry-line{stroke:#2563eb;stroke-width:1.4}.sl-line{stroke:#dc2626;stroke-width:1.4}.tp-line{stroke:#16a34a;stroke-width:1.4}.level-label,.axis-label{font-size:11px;fill:#374151}
</style>
<text x="28" y="28" class="title">Adelin v2 visual review sample sample_133</text>
<text x="28" y="48" class="subtitle">Candidate windows are for visual labeling only and are not trade signals.</text>
<text x="560" y="48" class="subtitle" text-anchor="middle">NUMBER_THEORY_LEVEL_NEAR | ROUND_LEVEL_ENTRY_METADATA_AVAILABLE</text>
<text x="70" y="82" class="panel-title">H1 liquidity context</text>
<rect x="70" y="96" width="1010" height="192" class="plot-bg"/>
<line x1="80.98" y1="225.57" x2="80.98" y2="274.76" class="down-wick"/>
<rect x="76.98" y="229.01" width="8.00" height="32.52" class="down-body"/>
<line x1="102.93" y1="251.76" x2="102.93" y2="266.76" class="down-wick"/>
<rect x="98.93" y="261.53" width="8.00" height="3.43" class="down-body"/>
<line x1="124.89" y1="238.80" x2="124.89" y2="272.25" class="up-wick"/>
<rect x="120.89" y="251.76" width="8.00" height="13.19" class="up-body"/>
<line x1="146.85" y1="245.00" x2="146.85" y2="266.49" class="up-wick"/>
<rect x="142.85" y="248.83" width="8.00" height="2.94" class="up-body"/>
<line x1="168.80" y1="240.19" x2="168.80" y2="258.21" class="up-wick"/>
<rect x="164.80" y="241.25" width="8.00" height="7.58" class="up-body"/>
<line x1="190.76" y1="230.19" x2="190.76" y2="250.50" class="up-wick"/>
<rect x="186.76" y="235.72" width="8.00" height="5.53" class="up-body"/>
<line x1="212.72" y1="225.40" x2="212.72" y2="245.45" class="up-wick"/>
<rect x="208.72" y="227.39" width="8.00" height="8.32" class="up-body"/>
<line x1="234.67" y1="203.23" x2="234.67" y2="229.38" class="up-wick"/>
<rect x="230.67" y="209.14" width="8.00" height="18.26" class="up-body"/>
<line x1="256.63" y1="195.80" x2="256.63" y2="231.02" class="up-wick"/>
<rect x="252.63" y="197.09" width="8.00" height="11.96" class="up-body"/>
<line x1="278.59" y1="186.43" x2="278.59" y2="209.42" class="down-wick"/>
<rect x="274.59" y="197.10" width="8.00" height="2.82" class="down-body"/>
<line x1="300.54" y1="193.74" x2="300.54" y2="213.73" class="up-wick"/>
<rect x="296.54" y="194.80" width="8.00" height="5.11" class="up-body"/>
<line x1="322.50" y1="184.06" x2="322.50" y2="197.03" class="up-wick"/>
<rect x="318.50" y="189.16" width="8.00" height="5.64" class="up-body"/>
<line x1="344.46" y1="182.27" x2="344.46" y2="199.74" class="up-wick"/>
<rect x="340.46" y="187.95" width="8.00" height="1.21" class="up-body"/>
<line x1="366.41" y1="187.46" x2="366.41" y2="196.64" class="down-wick"/>
<rect x="362.41" y="187.95" width="8.00" height="3.39" class="down-body"/>
<line x1="388.37" y1="190.05" x2="388.37" y2="204.39" class="down-wick"/>
<rect x="384.37" y="191.33" width="8.00" height="2.40" class="down-body"/>
<line x1="410.33" y1="183.76" x2="410.33" y2="198.17" class="up-wick"/>
<rect x="406.33" y="186.46" width="8.00" height="7.28" class="up-body"/>
<line x1="432.28" y1="134.12" x2="432.28" y2="186.28" class="up-wick"/>
<rect x="428.28" y="141.29" width="8.00" height="31.31" class="up-body"/>
<line x1="454.24" y1="135.57" x2="454.24" y2="156.50" class="down-wick"/>
<rect x="450.24" y="141.28" width="8.00" height="10.18" class="down-body"/>
<line x1="476.20" y1="137.42" x2="476.20" y2="179.34" class="down-wick"/>
<rect x="472.20" y="151.46" width="8.00" height="23.74" class="down-body"/>
<line x1="498.15" y1="153.03" x2="498.15" y2="183.77" class="up-wick"/>
<rect x="494.15" y="159.61" width="8.00" height="15.59" class="up-body"/>
<line x1="520.11" y1="144.18" x2="520.11" y2="160.55" class="up-wick"/>
<rect x="516.11" y="153.98" width="8.00" height="5.64" class="up-body"/>
<line x1="542.07" y1="148.40" x2="542.07" y2="159.38" class="down-wick"/>
<rect x="538.07" y="153.98" width="8.00" height="2.51" class="down-body"/>
<line x1="564.02" y1="137.82" x2="564.02" y2="156.95" class="up-wick"/>
<rect x="560.02" y="141.05" width="8.00" height="15.42" class="up-body"/>
<line x1="585.98" y1="135.18" x2="585.98" y2="155.32" class="down-wick"/>
<rect x="581.98" y="141.05" width="8.00" height="3.28" class="down-body"/>
<line x1="607.93" y1="144.33" x2="607.93" y2="165.65" class="down-wick"/>
<rect x="603.93" y="144.33" width="8.00" height="15.81" class="down-body"/>
<line x1="629.89" y1="141.46" x2="629.89" y2="162.40" class="up-wick"/>
<rect x="625.89" y="146.77" width="8.00" height="13.34" class="up-body"/>
<line x1="651.85" y1="138.17" x2="651.85" y2="162.33" class="down-wick"/>
<rect x="647.85" y="146.77" width="8.00" height="12.46" class="down-body"/>
<line x1="673.80" y1="154.40" x2="673.80" y2="175.40" class="down-wick"/>
<rect x="669.80" y="159.23" width="8.00" height="10.62" class="down-body"/>
<line x1="695.76" y1="152.74" x2="695.76" y2="171.31" class="up-wick"/>
<rect x="691.76" y="157.25" width="8.00" height="12.61" class="up-body"/>
<line x1="717.72" y1="150.26" x2="717.72" y2="159.50" class="up-wick"/>
<rect x="713.72" y="155.69" width="8.00" height="1.55" class="up-body"/>
<line x1="739.67" y1="148.42" x2="739.67" y2="167.28" class="down-wick"/>
<rect x="735.67" y="155.69" width="8.00" height="3.96" class="down-body"/>
<line x1="761.63" y1="138.32" x2="761.63" y2="162.69" class="up-wick"/>
<rect x="757.63" y="140.19" width="8.00" height="19.46" class="up-body"/>
<line x1="783.59" y1="125.83" x2="783.59" y2="149.18" class="up-wick"/>
<rect x="779.59" y="126.82" width="8.00" height="13.37" class="up-body"/>
<line x1="805.54" y1="112.91" x2="805.54" y2="128.16" class="up-wick"/>
<rect x="801.54" y="117.55" width="8.00" height="9.27" class="up-body"/>
<line x1="827.50" y1="116.21" x2="827.50" y2="138.26" class="down-wick"/>
<rect x="823.50" y="117.55" width="8.00" height="17.28" class="down-body"/>
<line x1="849.46" y1="123.59" x2="849.46" y2="136.09" class="up-wick"/>
<rect x="845.46" y="124.38" width="8.00" height="10.46" class="up-body"/>
<line x1="871.41" y1="113.42" x2="871.41" y2="124.57" class="up-wick"/>
<rect x="867.41" y="116.88" width="8.00" height="7.49" class="up-body"/>
<line x1="893.37" y1="109.24" x2="893.37" y2="118.35" class="up-wick"/>
<rect x="889.37" y="113.67" width="8.00" height="3.25" class="up-body"/>
<line x1="915.33" y1="111.50" x2="915.33" y2="133.58" class="down-wick"/>
<rect x="911.33" y="113.68" width="8.00" height="13.68" class="down-body"/>
<line x1="937.28" y1="115.32" x2="937.28" y2="171.99" class="down-wick"/>
<rect x="933.28" y="127.34" width="8.00" height="16.60" class="down-body"/>
<line x1="959.24" y1="133.37" x2="959.24" y2="158.42" class="down-wick"/>
<rect x="955.24" y="143.94" width="8.00" height="8.24" class="down-body"/>
<line x1="981.20" y1="140.23" x2="981.20" y2="156.26" class="up-wick"/>
<rect x="977.20" y="143.28" width="8.00" height="8.91" class="up-body"/>
<line x1="1003.15" y1="128.44" x2="1003.15" y2="144.15" class="up-wick"/>
<rect x="999.15" y="139.83" width="8.00" height="3.46" class="up-body"/>
<line x1="1025.11" y1="139.83" x2="1025.11" y2="153.71" class="down-wick"/>
<rect x="1021.11" y="139.83" width="8.00" height="5.23" class="down-body"/>
<line x1="1047.07" y1="142.64" x2="1047.07" y2="152.88" class="up-wick"/>
<rect x="1043.07" y="144.08" width="8.00" height="1.01" class="up-body"/>
<line x1="1069.02" y1="138.40" x2="1069.02" y2="156.94" class="up-wick"/>
<rect x="1065.02" y="139.17" width="8.00" height="4.90" class="up-body"/>
<line x1="70" y1="145.15" x2="1080" y2="145.15" class="number-line"/>
<text x="1076" y="141.15" text-anchor="end" class="level-label">round 5030.00</text>
<line x1="70" y1="145.15" x2="1080" y2="145.15" class="entry-line"/>
<text x="1076" y="141.15" text-anchor="end" class="level-label">entry level 5030.00</text>
<text x="70" y="306" class="axis-label">2026-02-06 08:00:00+00:00 to 2026-02-10 07:00:00+00:00</text>
<text x="1080" y="306" text-anchor="end" class="axis-label">4804.79 - 5107.49</text>
<text x="70" y="332" class="panel-title">M15 liquidity / reaction context</text>
<rect x="70" y="346" width="1010" height="192" class="plot-bg"/>
<line x1="80.10" y1="470.90" x2="80.10" y2="524.76" class="down-wick"/>
<rect x="76.10" y="481.35" width="8.00" height="13.67" class="down-body"/>
<line x1="100.30" y1="401.20" x2="100.30" y2="500.93" class="up-wick"/>
<rect x="96.30" y="404.99" width="8.00" height="90.02" class="up-body"/>
<line x1="120.50" y1="365.96" x2="120.50" y2="414.25" class="up-wick"/>
<rect x="116.50" y="371.54" width="8.00" height="33.49" class="up-body"/>
<line x1="140.70" y1="359.24" x2="140.70" y2="386.98" class="down-wick"/>
<rect x="136.70" y="371.54" width="8.00" height="10.47" class="down-body"/>
<line x1="160.90" y1="363.83" x2="160.90" y2="404.02" class="down-wick"/>
<rect x="156.90" y="381.96" width="8.00" height="12.52" class="down-body"/>
<line x1="181.10" y1="371.52" x2="181.10" y2="409.34" class="up-wick"/>
<rect x="177.10" y="383.39" width="8.00" height="11.03" class="up-body"/>
<line x1="201.30" y1="378.92" x2="201.30" y2="420.97" class="down-wick"/>
<rect x="197.30" y="383.37" width="8.00" height="14.59" class="down-body"/>
<line x1="221.50" y1="397.90" x2="221.50" y2="430.27" class="down-wick"/>
<rect x="217.50" y="397.96" width="8.00" height="16.30" class="down-body"/>
<line x1="241.70" y1="369.71" x2="241.70" y2="442.97" class="down-wick"/>
<rect x="237.70" y="414.27" width="8.00" height="2.05" class="down-body"/>
<line x1="261.90" y1="389.57" x2="261.90" y2="433.97" class="down-wick"/>
<rect x="257.90" y="416.34" width="8.00" height="4.25" class="down-body"/>
<line x1="282.10" y1="409.46" x2="282.10" y2="502.72" class="down-wick"/>
<rect x="278.10" y="420.61" width="8.00" height="14.13" class="down-body"/>
<line x1="302.30" y1="430.11" x2="302.30" y2="493.74" class="down-wick"/>
<rect x="298.30" y="434.73" width="8.00" height="54.84" class="down-body"/>
<line x1="322.50" y1="453.13" x2="322.50" y2="516.79" class="up-wick"/>
<rect x="318.50" y="459.83" width="8.00" height="29.75" class="up-body"/>
<line x1="342.70" y1="451.12" x2="342.70" y2="476.09" class="up-wick"/>
<rect x="338.70" y="451.98" width="8.00" height="7.85" class="up-body"/>
<line x1="362.90" y1="441.72" x2="362.90" y2="475.41" class="down-wick"/>
<rect x="358.90" y="452.00" width="8.00" height="11.37" class="down-body"/>
<line x1="383.10" y1="419.26" x2="383.10" y2="481.97" class="up-wick"/>
<rect x="379.10" y="440.11" width="8.00" height="19.42" class="up-body"/>
<line x1="403.30" y1="411.09" x2="403.30" y2="443.11" class="up-wick"/>
<rect x="399.30" y="413.34" width="8.00" height="26.81" class="up-body"/>
<line x1="423.50" y1="401.16" x2="423.50" y2="430.11" class="up-wick"/>
<rect x="419.50" y="404.10" width="8.00" height="9.28" class="up-body"/>
<line x1="443.70" y1="391.16" x2="443.70" y2="416.86" class="up-wick"/>
<rect x="439.70" y="404.38" width="8.00" height="1.00" class="up-body"/>
<line x1="463.90" y1="398.69" x2="463.90" y2="429.88" class="down-wick"/>
<rect x="459.90" y="404.38" width="8.00" height="17.87" class="down-body"/>
<line x1="484.10" y1="406.50" x2="484.10" y2="429.70" class="down-wick"/>
<rect x="480.10" y="422.26" width="8.00" height="7.45" class="down-body"/>
<line x1="504.30" y1="404.57" x2="504.30" y2="436.99" class="up-wick"/>
<rect x="500.30" y="418.96" width="8.00" height="10.75" class="up-body"/>
<line x1="524.50" y1="408.15" x2="524.50" y2="424.27" class="up-wick"/>
<rect x="520.50" y="417.18" width="8.00" height="1.77" class="up-body"/>
<line x1="544.70" y1="413.56" x2="544.70" y2="439.40" class="down-wick"/>
<rect x="540.70" y="417.18" width="8.00" height="13.04" class="down-body"/>
<line x1="564.90" y1="414.31" x2="564.90" y2="431.70" class="up-wick"/>
<rect x="560.90" y="423.83" width="8.00" height="6.32" class="up-body"/>
<line x1="585.10" y1="391.00" x2="585.10" y2="423.83" class="up-wick"/>
<rect x="581.10" y="393.78" width="8.00" height="30.05" class="up-body"/>
<line x1="605.30" y1="371.00" x2="605.30" y2="402.29" class="up-wick"/>
<rect x="601.30" y="385.34" width="8.00" height="8.43" class="up-body"/>
<line x1="625.50" y1="377.76" x2="625.50" y2="407.52" class="up-wick"/>
<rect x="621.50" y="381.22" width="8.00" height="4.11" class="up-body"/>
<line x1="645.70" y1="362.60" x2="645.70" y2="391.02" class="down-wick"/>
<rect x="641.70" y="381.22" width="8.00" height="4.23" class="down-body"/>
<line x1="665.90" y1="379.09" x2="665.90" y2="426.52" class="down-wick"/>
<rect x="661.90" y="385.45" width="8.00" height="17.97" class="down-body"/>
<line x1="686.10" y1="381.56" x2="686.10" y2="411.87" class="up-wick"/>
<rect x="682.10" y="382.91" width="8.00" height="20.51" class="up-body"/>
<line x1="706.30" y1="373.95" x2="706.30" y2="399.78" class="down-wick"/>
<rect x="702.30" y="382.91" width="8.00" height="8.71" class="down-body"/>
<line x1="726.50" y1="391.62" x2="726.50" y2="437.09" class="down-wick"/>
<rect x="722.50" y="391.62" width="8.00" height="36.71" class="down-body"/>
<line x1="746.70" y1="424.15" x2="746.70" y2="459.29" class="down-wick"/>
<rect x="742.70" y="428.33" width="8.00" height="8.61" class="down-body"/>
<line x1="766.90" y1="423.26" x2="766.90" y2="439.60" class="up-wick"/>
<rect x="762.90" y="428.78" width="8.00" height="8.15" class="up-body"/>
<line x1="787.10" y1="428.52" x2="787.10" y2="452.71" class="down-wick"/>
<rect x="783.10" y="428.70" width="8.00" height="13.08" class="down-body"/>
<line x1="807.30" y1="411.71" x2="807.30" y2="448.96" class="up-wick"/>
<rect x="803.30" y="414.11" width="8.00" height="27.61" class="up-body"/>
<line x1="827.50" y1="390.34" x2="827.50" y2="414.06" class="up-wick"/>
<rect x="823.50" y="402.75" width="8.00" height="11.31" class="up-body"/>
<line x1="847.70" y1="388.87" x2="847.70" y2="410.22" class="up-wick"/>
<rect x="843.70" y="394.82" width="8.00" height="7.93" class="up-body"/>
<line x1="867.90" y1="382.53" x2="867.90" y2="406.03" class="down-wick"/>
<rect x="863.90" y="394.82" width="8.00" height="4.57" class="down-body"/>
<line x1="888.10" y1="372.08" x2="888.10" y2="407.93" class="down-wick"/>
<rect x="884.10" y="399.39" width="8.00" height="2.94" class="down-body"/>
<line x1="908.30" y1="399.07" x2="908.30" y2="421.23" class="down-wick"/>
<rect x="904.30" y="402.39" width="8.00" height="3.04" class="down-body"/>
<line x1="928.50" y1="399.37" x2="928.50" y2="430.49" class="down-wick"/>
<rect x="924.50" y="405.43" width="8.00" height="19.58" class="down-body"/>
<line x1="948.70" y1="422.98" x2="948.70" y2="448.76" class="down-wick"/>
<rect x="944.70" y="425.03" width="8.00" height="13.89" class="down-body"/>
<line x1="968.90" y1="426.87" x2="968.90" y2="461.44" class="up-wick"/>
<rect x="964.90" y="434.03" width="8.00" height="4.89" class="up-body"/>
<line x1="989.10" y1="423.60" x2="989.10" y2="482.47" class="down-wick"/>
<rect x="985.10" y="434.03" width="8.00" height="38.52" class="down-body"/>
<line x1="1009.30" y1="455.83" x2="1009.30" y2="490.22" class="down-wick"/>
<rect x="1005.30" y="472.55" width="8.00" height="8.23" class="down-body"/>
<line x1="1029.50" y1="456.49" x2="1029.50" y2="488.07" class="up-wick"/>
<rect x="1025.50" y="472.63" width="8.00" height="8.15" class="up-body"/>
<line x1="1049.70" y1="456.61" x2="1049.70" y2="477.24" class="up-wick"/>
<rect x="1045.70" y="468.26" width="8.00" height="4.37" class="up-body"/>
<line x1="1069.90" y1="441.01" x2="1069.90" y2="471.91" class="up-wick"/>
<rect x="1065.90" y="442.12" width="8.00" height="26.14" class="up-body"/>
<line x1="70" y1="394.24" x2="1080" y2="394.24" class="number-line"/>
<text x="1076" y="390.24" text-anchor="end" class="level-label">round 5030.00</text>
<line x1="70" y1="394.24" x2="1080" y2="394.24" class="entry-line"/>
<text x="1076" y="390.24" text-anchor="end" class="level-label">entry level 5030.00</text>
<text x="70" y="556" class="axis-label">2026-02-09 01:00:00+00:00 to 2026-02-09 13:15:00+00:00</text>
<text x="1080" y="556" text-anchor="end" class="axis-label">4958.57 - 5053.97</text>
<text x="70" y="582" class="panel-title">M5 reaction / execution context</text>
<rect x="70" y="596" width="1010" height="192" class="plot-bg"/>
<line x1="79.18" y1="671.02" x2="79.18" y2="711.71" class="down-wick"/>
<rect x="75.18" y="680.77" width="8.00" height="9.54" class="down-body"/>
<line x1="97.55" y1="687.87" x2="97.55" y2="705.40" class="down-wick"/>
<rect x="93.55" y="690.31" width="8.00" height="8.06" class="down-body"/>
<line x1="115.91" y1="697.86" x2="115.91" y2="724.42" class="down-wick"/>
<rect x="111.91" y="698.37" width="8.00" height="12.99" class="down-body"/>
<line x1="134.27" y1="698.06" x2="134.27" y2="723.04" class="up-wick"/>
<rect x="130.27" y="698.13" width="8.00" height="13.23" class="up-body"/>
<line x1="152.64" y1="684.39" x2="152.64" y2="698.13" class="up-wick"/>
<rect x="148.64" y="684.63" width="8.00" height="13.44" class="up-body"/>
<line x1="171.00" y1="684.63" x2="171.00" y2="724.11" class="down-wick"/>
<rect x="167.00" y="684.63" width="8.00" height="39.48" class="down-body"/>
<line x1="189.36" y1="681.08" x2="189.36" y2="736.58" class="up-wick"/>
<rect x="185.36" y="697.51" width="8.00" height="26.60" class="up-body"/>
<line x1="207.73" y1="685.21" x2="207.73" y2="707.23" class="down-wick"/>
<rect x="203.73" y="697.51" width="8.00" height="3.20" class="down-body"/>
<line x1="226.09" y1="693.65" x2="226.09" y2="718.98" class="down-wick"/>
<rect x="222.09" y="700.72" width="8.00" height="5.00" class="down-body"/>
<line x1="244.45" y1="695.89" x2="244.45" y2="714.81" class="up-wick"/>
<rect x="240.45" y="698.41" width="8.00" height="7.30" class="up-body"/>
<line x1="262.82" y1="687.21" x2="262.82" y2="704.89" class="up-wick"/>
<rect x="258.82" y="687.97" width="8.00" height="10.44" class="up-body"/>
<line x1="281.18" y1="687.38" x2="281.18" y2="714.53" class="down-wick"/>
<rect x="277.18" y="687.97" width="8.00" height="14.71" class="down-body"/>
<line x1="299.55" y1="696.48" x2="299.55" y2="721.04" class="down-wick"/>
<rect x="295.55" y="702.68" width="8.00" height="14.99" class="down-body"/>
<line x1="317.91" y1="708.61" x2="317.91" y2="735.00" class="up-wick"/>
<rect x="313.91" y="713.95" width="8.00" height="3.72" class="up-body"/>
<line x1="336.27" y1="711.29" x2="336.27" y2="740.72" class="down-wick"/>
<rect x="332.27" y="713.95" width="8.00" height="11.06" class="down-body"/>
<line x1="354.64" y1="714.95" x2="354.64" y2="727.52" class="up-wick"/>
<rect x="350.64" y="715.12" width="8.00" height="9.75" class="up-body"/>
<line x1="373.00" y1="698.27" x2="373.00" y2="721.35" class="up-wick"/>
<rect x="369.00" y="699.55" width="8.00" height="15.57" class="up-body"/>
<line x1="391.36" y1="697.75" x2="391.36" y2="718.87" class="down-wick"/>
<rect x="387.36" y="699.55" width="8.00" height="14.51" class="down-body"/>
<line x1="409.73" y1="690.97" x2="409.73" y2="714.05" class="up-wick"/>
<rect x="405.73" y="691.14" width="8.00" height="22.91" class="up-body"/>
<line x1="428.09" y1="679.73" x2="428.09" y2="693.69" class="up-wick"/>
<rect x="424.09" y="683.35" width="8.00" height="7.79" class="up-body"/>
<line x1="446.45" y1="657.86" x2="446.45" y2="685.21" class="up-wick"/>
<rect x="442.45" y="662.61" width="8.00" height="20.74" class="up-body"/>
<line x1="464.82" y1="652.41" x2="464.82" y2="677.18" class="up-wick"/>
<rect x="460.82" y="657.37" width="8.00" height="5.24" class="up-body"/>
<line x1="483.18" y1="645.14" x2="483.18" y2="667.23" class="up-wick"/>
<rect x="479.18" y="651.21" width="8.00" height="6.17" class="up-body"/>
<line x1="501.55" y1="623.61" x2="501.55" y2="660.06" class="up-wick"/>
<rect x="497.55" y="648.17" width="8.00" height="3.10" class="up-body"/>
<line x1="519.91" y1="647.42" x2="519.91" y2="686.14" class="down-wick"/>
<rect x="515.91" y="648.14" width="8.00" height="12.44" class="down-body"/>
<line x1="538.27" y1="643.35" x2="538.27" y2="668.26" class="up-wick"/>
<rect x="534.27" y="644.97" width="8.00" height="15.61" class="up-body"/>
<line x1="556.64" y1="635.19" x2="556.64" y2="652.00" class="up-wick"/>
<rect x="552.64" y="641.11" width="8.00" height="3.76" class="up-body"/>
<line x1="575.00" y1="609.24" x2="575.00" y2="645.62" class="up-wick"/>
<rect x="571.00" y="615.13" width="8.00" height="25.98" class="up-body"/>
<line x1="593.36" y1="611.79" x2="593.36" y2="642.11" class="down-wick"/>
<rect x="589.36" y="615.13" width="8.00" height="23.29" class="down-body"/>
<line x1="611.73" y1="633.05" x2="611.73" y2="657.89" class="down-wick"/>
<rect x="607.73" y="638.42" width="8.00" height="9.92" class="down-body"/>
<line x1="630.09" y1="637.46" x2="630.09" y2="670.74" class="down-wick"/>
<rect x="626.09" y="648.35" width="8.00" height="22.40" class="down-body"/>
<line x1="648.45" y1="670.74" x2="648.45" y2="718.67" class="down-wick"/>
<rect x="644.45" y="670.74" width="8.00" height="20.22" class="down-body"/>
<line x1="666.82" y1="667.64" x2="666.82" y2="693.31" class="up-wick"/>
<rect x="662.82" y="679.11" width="8.00" height="11.75" class="up-body"/>
<line x1="685.18" y1="654.79" x2="685.18" y2="693.58" class="up-wick"/>
<rect x="681.18" y="674.33" width="8.00" height="4.79" class="up-body"/>
<line x1="703.55" y1="654.38" x2="703.55" y2="686.32" class="up-wick"/>
<rect x="699.55" y="656.62" width="8.00" height="17.71" class="up-body"/>
<line x1="721.91" y1="641.70" x2="721.91" y2="677.60" class="up-wick"/>
<rect x="717.91" y="644.01" width="8.00" height="12.61" class="up-body"/>
<line x1="740.27" y1="640.18" x2="740.27" y2="663.61" class="down-wick"/>
<rect x="736.27" y="644.01" width="8.00" height="16.19" class="down-body"/>
<line x1="758.64" y1="636.80" x2="758.64" y2="672.88" class="up-wick"/>
<rect x="754.64" y="639.11" width="8.00" height="21.09" class="up-body"/>
<line x1="777.00" y1="628.67" x2="777.00" y2="665.30" class="down-wick"/>
<rect x="773.00" y="639.08" width="8.00" height="19.85" class="down-body"/>
<line x1="795.36" y1="658.92" x2="795.36" y2="687.93" class="down-wick"/>
<rect x="791.36" y="658.92" width="8.00" height="7.03" class="down-body"/>
<line x1="813.73" y1="665.57" x2="813.73" y2="703.99" class="down-wick"/>
<rect x="809.73" y="665.95" width="8.00" height="28.94" class="down-body"/>
<line x1="832.09" y1="691.72" x2="832.09" y2="736.76" class="down-wick"/>
<rect x="828.09" y="694.93" width="8.00" height="26.84" class="down-body"/>
<line x1="850.45" y1="714.60" x2="850.45" y2="739.93" class="up-wick"/>
<rect x="846.45" y="719.08" width="8.00" height="2.69" class="up-body"/>
<line x1="868.82" y1="719.08" x2="868.82" y2="774.76" class="down-wick"/>
<rect x="864.82" y="719.08" width="8.00" height="33.28" class="down-body"/>
<line x1="887.18" y1="732.24" x2="887.18" y2="768.38" class="up-wick"/>
<rect x="883.18" y="736.51" width="8.00" height="16.40" class="up-body"/>
<line x1="905.55" y1="713.09" x2="905.55" y2="739.20" class="up-wick"/>
<rect x="901.55" y="732.93" width="8.00" height="3.55" class="up-body"/>
<line x1="923.91" y1="726.76" x2="923.91" y2="741.06" class="up-wick"/>
<rect x="919.91" y="731.83" width="8.00" height="1.00" class="up-body"/>
<line x1="942.27" y1="715.70" x2="942.27" y2="735.65" class="up-wick"/>
<rect x="938.27" y="722.53" width="8.00" height="9.30" class="up-body"/>
<line x1="960.64" y1="722.08" x2="960.64" y2="761.63" class="down-wick"/>
<rect x="956.64" y="722.39" width="8.00" height="32.70" class="down-body"/>
<line x1="979.00" y1="738.13" x2="979.00" y2="763.49" class="up-wick"/>
<rect x="975.00" y="748.64" width="8.00" height="6.44" class="up-body"/>
<line x1="997.36" y1="738.24" x2="997.36" y2="753.53" class="up-wick"/>
<rect x="993.36" y="744.78" width="8.00" height="3.86" class="up-body"/>
<line x1="1015.73" y1="703.96" x2="1015.73" y2="757.08" class="up-wick"/>
<rect x="1011.73" y="708.74" width="8.00" height="35.94" class="up-body"/>
<line x1="1034.09" y1="693.31" x2="1034.09" y2="720.32" class="up-wick"/>
<rect x="1030.09" y="705.75" width="8.00" height="3.00" class="up-body"/>
<line x1="1052.45" y1="696.34" x2="1052.45" y2="709.33" class="up-wick"/>
<rect x="1048.45" y="697.41" width="8.00" height="8.41" class="up-body"/>
<line x1="1070.82" y1="656.72" x2="1070.82" y2="697.34" class="up-wick"/>
<rect x="1066.82" y="671.95" width="8.00" height="25.39" class="up-body"/>
<line x1="70" y1="663.40" x2="1080" y2="663.40" class="number-line"/>
<text x="1076" y="659.40" text-anchor="end" class="level-label">round 5030.00</text>
<line x1="70" y1="663.40" x2="1080" y2="663.40" class="entry-line"/>
<text x="1076" y="659.40" text-anchor="end" class="level-label">entry level 5030.00</text>
<text x="70" y="806" class="axis-label">2026-02-09 05:45:00+00:00 to 2026-02-09 10:15:00+00:00</text>
<text x="1080" y="806" text-anchor="end" class="axis-label">4993.84 - 5049.56</text>
<text x="70" y="832" class="panel-title">M1 execution window</text>
<rect x="70" y="846" width="1010" height="192" class="plot-bg"/>
<line x1="73.71" y1="919.43" x2="73.71" y2="942.82" class="down-wick"/>
<rect x="71.30" y="929.34" width="4.83" height="13.48" class="down-body"/>
<line x1="81.14" y1="943.73" x2="81.14" y2="960.79" class="up-wick"/>
<rect x="78.73" y="944.22" width="4.83" height="7.70" class="up-body"/>
<line x1="88.57" y1="936.20" x2="88.57" y2="949.51" class="up-wick"/>
<rect x="86.15" y="939.04" width="4.83" height="8.61" class="up-body"/>
<line x1="95.99" y1="940.06" x2="95.99" y2="946.74" class="down-wick"/>
<rect x="93.58" y="940.09" width="4.83" height="5.04" class="down-body"/>
<line x1="103.42" y1="946.67" x2="103.42" y2="954.38" class="up-wick"/>
<rect x="101.01" y="947.09" width="4.83" height="4.59" class="up-body"/>
<line x1="110.85" y1="946.71" x2="110.85" y2="956.72" class="down-wick"/>
<rect x="108.43" y="947.23" width="4.83" height="8.89" class="down-body"/>
<line x1="118.27" y1="962.50" x2="118.27" y2="973.71" class="down-wick"/>
<rect x="115.86" y="964.64" width="4.83" height="7.04" class="down-body"/>
<line x1="125.70" y1="957.77" x2="125.70" y2="964.43" class="up-wick"/>
<rect x="123.28" y="960.44" width="4.83" height="3.08" class="up-body"/>
<line x1="133.12" y1="964.74" x2="133.12" y2="971.75" class="up-wick"/>
<rect x="130.71" y="967.44" width="4.83" height="2.45" class="up-body"/>
<line x1="140.55" y1="961.35" x2="140.55" y2="968.00" class="up-wick"/>
<rect x="138.14" y="962.85" width="4.83" height="5.11" class="up-body"/>
<line x1="147.98" y1="938.59" x2="147.98" y2="946.99" class="up-wick"/>
<rect x="145.56" y="946.04" width="4.83" height="1.00" class="up-body"/>
<line x1="155.40" y1="940.97" x2="155.40" y2="946.18" class="down-wick"/>
<rect x="152.99" y="940.97" width="4.83" height="5.04" class="down-body"/>
<line x1="162.83" y1="933.19" x2="162.83" y2="943.07" class="up-wick"/>
<rect x="160.42" y="933.26" width="4.83" height="3.36" class="up-body"/>
<line x1="170.26" y1="953.26" x2="170.26" y2="956.16" class="up-wick"/>
<rect x="167.84" y="953.26" width="4.83" height="1.00" class="up-body"/>
<line x1="177.68" y1="944.19" x2="177.68" y2="950.95" class="up-wick"/>
<rect x="175.27" y="945.83" width="4.83" height="5.11" class="up-body"/>
<line x1="185.11" y1="951.05" x2="185.11" y2="986.07" class="up-wick"/>
<rect x="182.70" y="952.28" width="4.83" height="21.11" class="up-body"/>
<line x1="192.54" y1="936.28" x2="192.54" y2="942.37" class="down-wick"/>
<rect x="190.12" y="941.39" width="4.83" height="1.00" class="down-body"/>
<line x1="199.96" y1="938.06" x2="199.96" y2="947.44" class="down-wick"/>
<rect x="197.55" y="939.22" width="4.83" height="7.14" class="down-body"/>
<line x1="207.39" y1="939.99" x2="207.39" y2="949.13" class="up-wick"/>
<rect x="204.98" y="942.33" width="4.83" height="1.79" class="up-body"/>
<line x1="214.82" y1="933.86" x2="214.82" y2="942.72" class="down-wick"/>
<rect x="212.40" y="936.66" width="4.83" height="6.06" class="down-body"/>
<line x1="222.24" y1="942.44" x2="222.24" y2="952.28" class="up-wick"/>
<rect x="219.83" y="943.70" width="4.83" height="5.92" class="up-body"/>
<line x1="229.67" y1="952.24" x2="229.67" y2="961.49" class="down-wick"/>
<rect x="227.26" y="952.24" width="4.83" height="3.47" class="down-body"/>
<line x1="237.10" y1="953.15" x2="237.10" y2="968.17" class="down-wick"/>
<rect x="234.68" y="953.57" width="4.83" height="1.12" class="down-body"/>
<line x1="244.52" y1="954.55" x2="244.52" y2="962.85" class="down-wick"/>
<rect x="242.11" y="957.91" width="4.83" height="4.45" class="down-body"/>
<line x1="251.95" y1="949.79" x2="251.95" y2="963.94" class="up-wick"/>
<rect x="249.53" y="950.11" width="4.83" height="8.58" class="up-body"/>
<line x1="259.38" y1="942.58" x2="259.38" y2="952.17" class="down-wick"/>
<rect x="256.96" y="947.27" width="4.83" height="3.47" class="down-body"/>
<line x1="266.80" y1="939.25" x2="266.80" y2="946.11" class="up-wick"/>
<rect x="264.39" y="943.59" width="4.83" height="1.51" class="up-body"/>
<line x1="274.23" y1="935.89" x2="274.23" y2="952.42" class="up-wick"/>
<rect x="271.81" y="936.66" width="4.83" height="12.85" class="up-body"/>
<line x1="281.65" y1="940.97" x2="281.65" y2="949.27" class="down-wick"/>
<rect x="279.24" y="945.90" width="4.83" height="3.26" class="down-body"/>
<line x1="289.08" y1="955.57" x2="289.08" y2="963.66" class="down-wick"/>
<rect x="286.67" y="956.97" width="4.83" height="3.78" class="down-body"/>
<line x1="296.51" y1="945.31" x2="296.51" y2="967.12" class="down-wick"/>
<rect x="294.09" y="951.61" width="4.83" height="9.14" class="down-body"/>
<line x1="303.93" y1="960.02" x2="303.93" y2="966.98" class="down-wick"/>
<rect x="301.52" y="961.17" width="4.83" height="1.00" class="down-body"/>
<line x1="311.36" y1="957.18" x2="311.36" y2="970.27" class="down-wick"/>
<rect x="308.95" y="958.40" width="4.83" height="8.44" class="down-body"/>
<line x1="318.79" y1="973.04" x2="318.79" y2="984.46" class="down-wick"/>
<rect x="316.37" y="973.50" width="4.83" height="9.59" class="down-body"/>
<line x1="326.21" y1="957.63" x2="326.21" y2="971.71" class="up-wick"/>
<rect x="323.80" y="961.17" width="4.83" height="10.54" class="up-body"/>
<line x1="333.64" y1="960.37" x2="333.64" y2="973.67" class="down-wick"/>
<rect x="331.23" y="963.06" width="4.83" height="7.18" class="down-body"/>
<line x1="341.07" y1="979.76" x2="341.07" y2="990.23" class="down-wick"/>
<rect x="338.65" y="980.04" width="4.83" height="9.91" class="down-body"/>
<line x1="348.49" y1="967.51" x2="348.49" y2="976.89" class="down-wick"/>
<rect x="346.08" y="971.75" width="4.83" height="2.56" class="down-body"/>
<line x1="355.92" y1="970.70" x2="355.92" y2="976.86" class="up-wick"/>
<rect x="353.51" y="971.89" width="4.83" height="1.00" class="up-body"/>
<line x1="363.35" y1="966.98" x2="363.35" y2="970.73" class="up-wick"/>
<rect x="360.93" y="967.37" width="4.83" height="2.87" class="up-body"/>
<line x1="370.77" y1="960.05" x2="370.77" y2="969.29" class="down-wick"/>
<rect x="368.36" y="964.25" width="4.83" height="2.03" class="down-body"/>
<line x1="378.20" y1="959.56" x2="378.20" y2="970.59" class="up-wick"/>
<rect x="375.78" y="959.88" width="4.83" height="9.07" class="up-body"/>
<line x1="385.62" y1="947.13" x2="385.62" y2="951.89" class="up-wick"/>
<rect x="383.21" y="948.43" width="4.83" height="3.40" class="up-body"/>
<line x1="393.05" y1="946.60" x2="393.05" y2="953.36" class="down-wick"/>
<rect x="390.64" y="948.81" width="4.83" height="1.00" class="down-body"/>
<line x1="400.48" y1="950.07" x2="400.48" y2="968.07" class="down-wick"/>
<rect x="398.06" y="953.50" width="4.83" height="11.03" class="down-body"/>
<line x1="407.90" y1="949.62" x2="407.90" y2="963.17" class="up-wick"/>
<rect x="405.49" y="949.97" width="4.83" height="13.20" class="up-body"/>
<line x1="415.33" y1="941.04" x2="415.33" y2="949.65" class="down-wick"/>
<rect x="412.92" y="942.40" width="4.83" height="5.46" class="down-body"/>
<line x1="422.76" y1="939.71" x2="422.76" y2="944.89" class="up-wick"/>
<rect x="420.34" y="939.88" width="4.83" height="4.94" class="up-body"/>
<line x1="430.18" y1="936.98" x2="430.18" y2="941.11" class="up-wick"/>
<rect x="427.77" y="939.29" width="4.83" height="1.00" class="up-body"/>
<line x1="437.61" y1="930.92" x2="437.61" y2="942.37" class="down-wick"/>
<rect x="435.20" y="935.12" width="4.83" height="7.25" class="down-body"/>
<line x1="445.04" y1="926.19" x2="445.04" y2="933.86" class="up-wick"/>
<rect x="442.62" y="926.30" width="4.83" height="5.67" class="up-body"/>
<line x1="452.46" y1="918.28" x2="452.46" y2="929.27" class="up-wick"/>
<rect x="450.05" y="919.05" width="4.83" height="8.65" class="up-body"/>
<line x1="459.89" y1="906.06" x2="459.89" y2="912.85" class="up-wick"/>
<rect x="457.48" y="910.89" width="4.83" height="1.00" class="up-body"/>
<line x1="467.32" y1="902.66" x2="467.32" y2="918.70" class="down-wick"/>
<rect x="464.90" y="912.85" width="4.83" height="5.11" class="down-body"/>
<line x1="474.74" y1="916.00" x2="474.74" y2="925.70" class="up-wick"/>
<rect x="472.33" y="917.54" width="4.83" height="1.51" class="up-body"/>
<line x1="482.17" y1="896.60" x2="482.17" y2="908.05" class="up-wick"/>
<rect x="479.76" y="904.13" width="4.83" height="1.44" class="up-body"/>
<line x1="489.60" y1="893.38" x2="489.60" y2="915.58" class="up-wick"/>
<rect x="487.18" y="900.91" width="4.83" height="13.27" class="up-body"/>
<line x1="497.02" y1="893.66" x2="497.02" y2="902.00" class="down-wick"/>
<rect x="494.61" y="897.37" width="4.83" height="1.93" class="down-body"/>
<line x1="504.45" y1="884.56" x2="504.45" y2="897.65" class="up-wick"/>
<rect x="502.03" y="891.88" width="4.83" height="2.80" class="up-body"/>
<line x1="511.88" y1="877.76" x2="511.88" y2="885.99" class="up-wick"/>
<rect x="509.46" y="882.63" width="4.83" height="2.21" class="up-body"/>
<line x1="519.30" y1="895.45" x2="519.30" y2="927.31" class="down-wick"/>
<rect x="516.89" y="896.18" width="4.83" height="24.65" class="down-body"/>
<line x1="526.73" y1="912.71" x2="526.73" y2="923.39" class="up-wick"/>
<rect x="524.31" y="912.71" width="4.83" height="10.68" class="up-body"/>
<line x1="534.15" y1="908.82" x2="534.15" y2="934.80" class="up-wick"/>
<rect x="531.74" y="908.82" width="4.83" height="18.07" class="up-body"/>
<line x1="541.58" y1="897.86" x2="541.58" y2="913.73" class="up-wick"/>
<rect x="539.17" y="901.78" width="4.83" height="8.40" class="up-body"/>
<line x1="549.01" y1="895.48" x2="549.01" y2="899.79" class="up-wick"/>
<rect x="546.59" y="896.36" width="4.83" height="3.19" class="up-body"/>
<line x1="556.43" y1="883.02" x2="556.43" y2="893.14" class="up-wick"/>
<rect x="554.02" y="884.87" width="4.83" height="7.98" class="up-body"/>
<line x1="563.86" y1="886.41" x2="563.86" y2="897.41" class="down-wick"/>
<rect x="561.45" y="887.29" width="4.83" height="7.84" class="down-body"/>
<line x1="571.29" y1="886.76" x2="571.29" y2="899.68" class="up-wick"/>
<rect x="568.87" y="889.04" width="4.83" height="10.22" class="up-body"/>
<line x1="578.71" y1="864.07" x2="578.71" y2="878.88" class="down-wick"/>
<rect x="576.30" y="870.94" width="4.83" height="6.48" class="down-body"/>
<line x1="586.14" y1="866.35" x2="586.14" y2="893.03" class="up-wick"/>
<rect x="583.73" y="869.71" width="4.83" height="22.86" class="up-body"/>
<line x1="593.57" y1="859.24" x2="593.57" y2="865.30" class="up-wick"/>
<rect x="591.15" y="861.97" width="4.83" height="1.00" class="up-body"/>
<line x1="600.99" y1="861.69" x2="600.99" y2="870.10" class="down-wick"/>
<rect x="598.58" y="865.51" width="4.83" height="4.59" class="down-body"/>
<line x1="608.42" y1="875.10" x2="608.42" y2="890.05" class="down-wick"/>
<rect x="606.01" y="876.33" width="4.83" height="9.98" class="down-body"/>
<line x1="615.85" y1="880.85" x2="615.85" y2="899.47" class="up-wick"/>
<rect x="613.43" y="882.88" width="4.83" height="16.60" class="up-body"/>
<line x1="623.27" y1="889.11" x2="623.27" y2="906.09" class="down-wick"/>
<rect x="620.86" y="889.63" width="4.83" height="16.35" class="down-body"/>
<line x1="630.70" y1="893.07" x2="630.70" y2="908.02" class="down-wick"/>
<rect x="628.28" y="896.39" width="4.83" height="11.31" class="down-body"/>
<line x1="638.12" y1="889.95" x2="638.12" y2="914.25" class="down-wick"/>
<rect x="635.71" y="891.00" width="4.83" height="17.16" class="down-body"/>
<line x1="645.55" y1="905.32" x2="645.55" y2="919.15" class="down-wick"/>
<rect x="643.14" y="912.43" width="4.83" height="6.72" class="down-body"/>
<line x1="652.98" y1="922.27" x2="652.98" y2="939.53" class="down-wick"/>
<rect x="650.56" y="925.63" width="4.83" height="13.66" class="down-body"/>
<line x1="660.40" y1="946.22" x2="660.40" y2="958.82" class="up-wick"/>
<rect x="657.99" y="948.99" width="4.83" height="4.03" class="up-body"/>
<line x1="667.83" y1="923.70" x2="667.83" y2="942.09" class="up-wick"/>
<rect x="665.42" y="931.44" width="4.83" height="8.16" class="up-body"/>
<line x1="675.26" y1="918.07" x2="675.26" y2="931.48" class="up-wick"/>
<rect x="672.84" y="925.35" width="4.83" height="1.37" class="up-body"/>
<line x1="682.68" y1="916.00" x2="682.68" y2="932.70" class="up-wick"/>
<rect x="680.27" y="927.66" width="4.83" height="4.90" class="up-body"/>
<line x1="690.11" y1="902.94" x2="690.11" y2="914.64" class="up-wick"/>
<rect x="687.70" y="910.64" width="4.83" height="2.73" class="up-body"/>
<line x1="697.54" y1="925.00" x2="697.54" y2="942.23" class="up-wick"/>
<rect x="695.12" y="928.54" width="4.83" height="1.00" class="up-body"/>
<line x1="704.96" y1="922.51" x2="704.96" y2="934.98" class="down-wick"/>
<rect x="702.55" y="922.79" width="4.83" height="11.27" class="down-body"/>
<line x1="712.39" y1="908.40" x2="712.39" y2="919.36" class="down-wick"/>
<rect x="709.98" y="912.81" width="4.83" height="6.27" class="down-body"/>
<line x1="719.82" y1="902.52" x2="719.82" y2="906.58" class="down-wick"/>
<rect x="717.40" y="903.61" width="4.83" height="1.19" class="down-body"/>
<line x1="727.24" y1="916.18" x2="727.24" y2="926.12" class="down-wick"/>
<rect x="724.83" y="917.96" width="4.83" height="4.03" class="down-body"/>
<line x1="734.67" y1="895.13" x2="734.67" y2="903.19" class="up-wick"/>
<rect x="732.26" y="901.78" width="4.83" height="1.00" class="up-body"/>
<line x1="742.10" y1="888.09" x2="742.10" y2="896.64" class="down-wick"/>
<rect x="739.68" y="891.98" width="4.83" height="2.59" class="down-body"/>
<line x1="749.52" y1="889.67" x2="749.52" y2="899.19" class="up-wick"/>
<rect x="747.11" y="890.40" width="4.83" height="7.56" class="up-body"/>
<line x1="756.95" y1="900.77" x2="756.95" y2="911.83" class="down-wick"/>
<rect x="754.53" y="906.20" width="4.83" height="2.24" class="down-body"/>
<line x1="764.38" y1="903.71" x2="764.38" y2="917.02" class="up-wick"/>
<rect x="761.96" y="904.73" width="4.83" height="11.98" class="up-body"/>
<line x1="771.80" y1="886.03" x2="771.80" y2="898.67" class="up-wick"/>
<rect x="769.39" y="886.03" width="4.83" height="6.69" class="up-body"/>
<line x1="779.23" y1="886.52" x2="779.23" y2="897.72" class="down-wick"/>
<rect x="776.81" y="886.97" width="4.83" height="6.93" class="down-body"/>
<line x1="786.65" y1="877.20" x2="786.65" y2="894.96" class="down-wick"/>
<rect x="784.24" y="877.34" width="4.83" height="16.74" class="down-body"/>
<line x1="794.08" y1="903.05" x2="794.08" y2="913.62" class="down-wick"/>
<rect x="791.67" y="903.78" width="4.83" height="3.36" class="down-body"/>
<line x1="801.51" y1="917.44" x2="801.51" y2="928.71" class="down-wick"/>
<rect x="799.09" y="918.98" width="4.83" height="9.42" class="down-body"/>
<line x1="808.93" y1="912.53" x2="808.93" y2="934.07" class="up-wick"/>
<rect x="806.52" y="920.13" width="4.83" height="12.50" class="up-body"/>
<line x1="816.36" y1="913.90" x2="816.36" y2="947.20" class="down-wick"/>
<rect x="813.95" y="914.29" width="4.83" height="16.46" class="down-body"/>
<line x1="823.79" y1="925.53" x2="823.79" y2="934.24" class="down-wick"/>
<rect x="821.37" y="925.53" width="4.83" height="8.37" class="down-body"/>
<line x1="831.21" y1="940.41" x2="831.21" y2="952.94" class="down-wick"/>
<rect x="828.80" y="942.30" width="4.83" height="1.40" class="down-body"/>
<line x1="838.64" y1="940.48" x2="838.64" y2="956.30" class="down-wick"/>
<rect x="836.23" y="941.42" width="4.83" height="5.60" class="down-body"/>
<line x1="846.07" y1="952.84" x2="846.07" y2="965.65" class="down-wick"/>
<rect x="843.65" y="956.76" width="4.83" height="8.61" class="down-body"/>
<line x1="853.49" y1="965.86" x2="853.49" y2="978.19" class="down-wick"/>
<rect x="851.08" y="971.01" width="4.83" height="3.36" class="down-body"/>
<line x1="860.92" y1="967.05" x2="860.92" y2="983.48" class="down-wick"/>
<rect x="858.51" y="972.10" width="4.83" height="4.48" class="down-body"/>
<line x1="868.35" y1="963.73" x2="868.35" y2="975.25" class="up-wick"/>
<rect x="865.93" y="968.28" width="4.83" height="1.00" class="up-body"/>
<line x1="875.77" y1="974.27" x2="875.77" y2="987.89" class="down-wick"/>
<rect x="873.36" y="974.62" width="4.83" height="4.03" class="down-body"/>
<line x1="883.20" y1="998.11" x2="883.20" y2="1024.76" class="down-wick"/>
<rect x="880.78" y="998.15" width="4.83" height="11.17" class="down-body"/>
<line x1="890.62" y1="1000.21" x2="890.62" y2="1018.39" class="down-wick"/>
<rect x="888.21" y="1002.66" width="4.83" height="9.35" class="down-body"/>
<line x1="898.05" y1="990.76" x2="898.05" y2="1012.40" class="up-wick"/>
<rect x="895.64" y="991.56" width="4.83" height="19.75" class="up-body"/>
<line x1="905.48" y1="981.65" x2="905.48" y2="1004.48" class="up-wick"/>
<rect x="903.06" y="986.00" width="4.83" height="12.92" class="up-body"/>
<line x1="912.90" y1="966.32" x2="912.90" y2="981.37" class="up-wick"/>
<rect x="910.49" y="969.26" width="4.83" height="1.44" class="up-body"/>
<line x1="920.33" y1="968.63" x2="920.33" y2="981.41" class="up-wick"/>
<rect x="917.92" y="977.24" width="4.83" height="1.00" class="up-body"/>
<line x1="927.76" y1="976.26" x2="927.76" y2="986.66" class="up-wick"/>
<rect x="925.34" y="977.10" width="4.83" height="5.11" class="up-body"/>
<line x1="935.18" y1="976.09" x2="935.18" y2="985.89" class="up-wick"/>
<rect x="932.77" y="977.38" width="4.83" height="7.67" class="up-body"/>
<line x1="942.61" y1="979.80" x2="942.61" y2="990.62" class="up-wick"/>
<rect x="940.20" y="981.23" width="4.83" height="2.28" class="up-body"/>
<line x1="950.04" y1="965.65" x2="950.04" y2="975.70" class="down-wick"/>
<rect x="947.62" y="966.81" width="4.83" height="7.91" class="down-body"/>
<line x1="957.46" y1="970.27" x2="957.46" y2="984.00" class="up-wick"/>
<rect x="955.05" y="972.48" width="4.83" height="2.63" class="up-body"/>
<line x1="964.89" y1="971.33" x2="964.89" y2="983.69" class="down-wick"/>
<rect x="962.48" y="971.64" width="4.83" height="11.77" class="down-body"/>
<line x1="972.32" y1="984.70" x2="972.32" y2="998.01" class="down-wick"/>
<rect x="969.90" y="985.51" width="4.83" height="9.10" class="down-body"/>
<line x1="979.74" y1="1003.92" x2="979.74" y2="1011.52" class="down-wick"/>
<rect x="977.33" y="1004.48" width="4.83" height="1.00" class="down-body"/>
<line x1="987.17" y1="999.13" x2="987.17" y2="1005.57" class="down-wick"/>
<rect x="984.76" y="1000.07" width="4.83" height="1.00" class="down-body"/>
<line x1="994.60" y1="987.64" x2="994.60" y2="1009.18" class="down-wick"/>
<rect x="992.18" y="1003.47" width="4.83" height="5.67" class="down-body"/>
<line x1="1002.02" y1="994.68" x2="1002.02" y2="1001.96" class="down-wick"/>
<rect x="999.61" y="998.32" width="4.83" height="2.94" class="down-body"/>
<line x1="1009.45" y1="987.75" x2="1009.45" y2="996.71" class="down-wick"/>
<rect x="1007.03" y="988.69" width="4.83" height="1.00" class="down-body"/>
<line x1="1016.88" y1="993.28" x2="1016.88" y2="999.41" class="down-wick"/>
<rect x="1014.46" y="993.28" width="4.83" height="1.12" class="down-body"/>
<line x1="1024.30" y1="979.69" x2="1024.30" y2="995.35" class="up-wick"/>
<rect x="1021.89" y="986.70" width="4.83" height="8.65" class="up-body"/>
<line x1="1031.73" y1="960.19" x2="1031.73" y2="985.47" class="up-wick"/>
<rect x="1029.31" y="965.20" width="4.83" height="12.47" class="up-body"/>
<line x1="1039.15" y1="953.99" x2="1039.15" y2="969.54" class="up-wick"/>
<rect x="1036.74" y="955.39" width="4.83" height="2.38" class="up-body"/>
<line x1="1046.58" y1="942.09" x2="1046.58" y2="955.92" class="down-wick"/>
<rect x="1044.17" y="944.22" width="4.83" height="7.49" class="down-body"/>
<line x1="1054.01" y1="947.62" x2="1054.01" y2="957.77" class="down-wick"/>
<rect x="1051.59" y="947.83" width="4.83" height="6.90" class="down-body"/>
<line x1="1061.43" y1="951.65" x2="1061.43" y2="957.39" class="down-wick"/>
<rect x="1059.02" y="951.65" width="4.83" height="2.28" class="down-body"/>
<line x1="1068.86" y1="951.37" x2="1068.86" y2="957.70" class="up-wick"/>
<rect x="1066.45" y="954.45" width="4.83" height="3.05" class="up-body"/>
<line x1="1076.29" y1="937.22" x2="1076.29" y2="946.18" class="up-wick"/>
<rect x="1073.87" y="940.20" width="4.83" height="5.99" class="up-body"/>
<line x1="70" y1="911.69" x2="1080" y2="911.69" class="number-line"/>
<text x="1076" y="907.69" text-anchor="end" class="level-label">round 5030.00</text>
<line x1="70" y1="911.69" x2="1080" y2="911.69" class="entry-line"/>
<text x="1076" y="907.69" text-anchor="end" class="level-label">entry level 5030.00</text>
<text x="70" y="1056" class="axis-label">2026-02-09 05:45:00+00:00 to 2026-02-09 10:15:00+00:00</text>
<text x="1080" y="1056" text-anchor="end" class="axis-label">4993.93 - 5048.76</text>
</svg>