<svg xmlns="http://www.w3.org/2000/svg" width="1120" height="1054" viewBox="0 0 1120 1054">
<style>
text{font-family:Arial,Helvetica,sans-serif}.title{font-size:21px;font-weight:700;fill:#1f2937}.subtitle{font-size:12px;fill:#4b5563}.panel-title{font-size:15px;font-weight:700;fill:#111827}.muted{font-size:13px;fill:#6b7280}.plot-bg{fill:#f8fafc;stroke:#cbd5e1;stroke-width:1}.up-body{fill:#15803d;stroke:#14532d;stroke-width:.8}.down-body{fill:#b91c1c;stroke:#7f1d1d;stroke-width:.8}.up-wick{stroke:#14532d;stroke-width:1}.down-wick{stroke:#7f1d1d;stroke-width:1}.sweep-line{stroke:#7c3aed;stroke-width:1.6;stroke-dasharray:6 4}.number-line{stroke:#0f766e;stroke-width:1.4;stroke-dasharray:3 4}.entry-line{stroke:#2563eb;stroke-width:1.4}.sl-line{stroke:#dc2626;stroke-width:1.4}.tp-line{stroke:#16a34a;stroke-width:1.4}.level-label,.axis-label{font-size:11px;fill:#374151}
</style>
<text x="28" y="28" class="title">Adelin v2 visual review sample sample_197</text>
<text x="28" y="48" class="subtitle">Candidate windows are for visual labeling only and are not trade signals.</text>
<text x="560" y="48" class="subtitle" text-anchor="middle">NUMBER_THEORY_LEVEL_NEAR | ROUND_LEVEL_ENTRY_METADATA_AVAILABLE</text>
<text x="70" y="82" class="panel-title">H1 liquidity context</text>
<rect x="70" y="96" width="1010" height="192" class="plot-bg"/>
<line x1="80.10" y1="109.24" x2="80.10" y2="136.75" class="down-wick"/>
<rect x="76.10" y="117.08" width="8.00" height="11.43" class="down-body"/>
<line x1="100.30" y1="126.47" x2="100.30" y2="144.94" class="down-wick"/>
<rect x="96.30" y="128.51" width="8.00" height="3.91" class="down-body"/>
<line x1="120.50" y1="119.61" x2="120.50" y2="139.35" class="up-wick"/>
<rect x="116.50" y="121.46" width="8.00" height="10.98" class="up-body"/>
<line x1="140.70" y1="119.55" x2="140.70" y2="151.42" class="down-wick"/>
<rect x="136.70" y="121.44" width="8.00" height="28.03" class="down-body"/>
<line x1="160.90" y1="145.08" x2="160.90" y2="164.27" class="down-wick"/>
<rect x="156.90" y="149.47" width="8.00" height="5.81" class="down-body"/>
<line x1="181.10" y1="151.50" x2="181.10" y2="167.06" class="down-wick"/>
<rect x="177.10" y="155.28" width="8.00" height="7.99" class="down-body"/>
<line x1="201.30" y1="152.62" x2="201.30" y2="173.28" class="up-wick"/>
<rect x="197.30" y="152.76" width="8.00" height="10.51" class="up-body"/>
<line x1="221.50" y1="142.54" x2="221.50" y2="157.27" class="up-wick"/>
<rect x="217.50" y="149.30" width="8.00" height="3.42" class="up-body"/>
<line x1="241.70" y1="136.85" x2="241.70" y2="154.09" class="up-wick"/>
<rect x="237.70" y="139.05" width="8.00" height="10.25" class="up-body"/>
<line x1="261.90" y1="134.19" x2="261.90" y2="148.52" class="up-wick"/>
<rect x="257.90" y="138.46" width="8.00" height="1.00" class="up-body"/>
<line x1="282.10" y1="131.00" x2="282.10" y2="138.60" class="up-wick"/>
<rect x="278.10" y="134.04" width="8.00" height="4.42" class="up-body"/>
<line x1="302.30" y1="130.98" x2="302.30" y2="144.84" class="down-wick"/>
<rect x="298.30" y="134.04" width="8.00" height="6.10" class="down-body"/>
<line x1="322.50" y1="138.46" x2="322.50" y2="145.96" class="down-wick"/>
<rect x="318.50" y="140.15" width="8.00" height="1.33" class="down-body"/>
<line x1="342.70" y1="138.48" x2="342.70" y2="150.88" class="down-wick"/>
<rect x="338.70" y="141.47" width="8.00" height="2.00" class="down-body"/>
<line x1="362.90" y1="142.09" x2="362.90" y2="153.59" class="down-wick"/>
<rect x="358.90" y="143.48" width="8.00" height="3.79" class="down-body"/>
<line x1="383.10" y1="145.44" x2="383.10" y2="160.14" class="down-wick"/>
<rect x="379.10" y="147.27" width="8.00" height="7.36" class="down-body"/>
<line x1="403.30" y1="154.65" x2="403.30" y2="170.53" class="down-wick"/>
<rect x="399.30" y="154.65" width="8.00" height="7.06" class="down-body"/>
<line x1="423.50" y1="153.00" x2="423.50" y2="167.08" class="up-wick"/>
<rect x="419.50" y="154.80" width="8.00" height="6.90" class="up-body"/>
<line x1="443.70" y1="148.30" x2="443.70" y2="154.87" class="up-wick"/>
<rect x="439.70" y="151.84" width="8.00" height="2.99" class="up-body"/>
<line x1="463.90" y1="146.92" x2="463.90" y2="154.40" class="up-wick"/>
<rect x="459.90" y="149.50" width="8.00" height="2.29" class="up-body"/>
<line x1="484.10" y1="148.09" x2="484.10" y2="152.83" class="down-wick"/>
<rect x="480.10" y="149.51" width="8.00" height="1.11" class="down-body"/>
<line x1="504.30" y1="144.27" x2="504.30" y2="157.19" class="down-wick"/>
<rect x="500.30" y="148.92" width="8.00" height="4.56" class="down-body"/>
<line x1="524.50" y1="152.10" x2="524.50" y2="200.77" class="down-wick"/>
<rect x="520.50" y="153.48" width="8.00" height="44.19" class="down-body"/>
<line x1="544.70" y1="174.53" x2="544.70" y2="208.13" class="up-wick"/>
<rect x="540.70" y="179.56" width="8.00" height="18.14" class="up-body"/>
<line x1="564.90" y1="168.62" x2="564.90" y2="182.23" class="up-wick"/>
<rect x="560.90" y="171.99" width="8.00" height="7.57" class="up-body"/>
<line x1="585.10" y1="169.55" x2="585.10" y2="186.01" class="down-wick"/>
<rect x="581.10" y="171.98" width="8.00" height="8.42" class="down-body"/>
<line x1="605.30" y1="177.52" x2="605.30" y2="188.65" class="down-wick"/>
<rect x="601.30" y="180.43" width="8.00" height="3.20" class="down-body"/>
<line x1="625.50" y1="182.53" x2="625.50" y2="260.36" class="down-wick"/>
<rect x="621.50" y="183.63" width="8.00" height="52.29" class="down-body"/>
<line x1="645.70" y1="215.23" x2="645.70" y2="237.73" class="up-wick"/>
<rect x="641.70" y="218.39" width="8.00" height="17.53" class="up-body"/>
<line x1="665.90" y1="208.73" x2="665.90" y2="223.53" class="up-wick"/>
<rect x="661.90" y="212.90" width="8.00" height="5.46" class="up-body"/>
<line x1="686.10" y1="202.01" x2="686.10" y2="213.47" class="up-wick"/>
<rect x="682.10" y="209.87" width="8.00" height="3.03" class="up-body"/>
<line x1="706.30" y1="200.19" x2="706.30" y2="215.93" class="up-wick"/>
<rect x="702.30" y="205.60" width="8.00" height="4.33" class="up-body"/>
<line x1="726.50" y1="194.63" x2="726.50" y2="220.60" class="down-wick"/>
<rect x="722.50" y="205.60" width="8.00" height="10.45" class="down-body"/>
<line x1="746.70" y1="201.63" x2="746.70" y2="216.07" class="up-wick"/>
<rect x="742.70" y="202.84" width="8.00" height="13.20" class="up-body"/>
<line x1="766.90" y1="190.49" x2="766.90" y2="203.74" class="up-wick"/>
<rect x="762.90" y="200.62" width="8.00" height="2.22" class="up-body"/>
<line x1="787.10" y1="199.66" x2="787.10" y2="251.28" class="down-wick"/>
<rect x="783.10" y="200.60" width="8.00" height="50.18" class="down-body"/>
<line x1="807.30" y1="220.93" x2="807.30" y2="274.76" class="down-wick"/>
<rect x="803.30" y="250.78" width="8.00" height="5.63" class="down-body"/>
<line x1="827.50" y1="241.19" x2="827.50" y2="268.47" class="up-wick"/>
<rect x="823.50" y="244.44" width="8.00" height="11.97" class="up-body"/>
<line x1="847.70" y1="232.09" x2="847.70" y2="252.66" class="down-wick"/>
<rect x="843.70" y="244.38" width="8.00" height="7.63" class="down-body"/>
<line x1="867.90" y1="250.24" x2="867.90" y2="267.66" class="down-wick"/>
<rect x="863.90" y="252.01" width="8.00" height="3.39" class="down-body"/>
<line x1="888.10" y1="218.36" x2="888.10" y2="257.48" class="up-wick"/>
<rect x="884.10" y="227.73" width="8.00" height="27.64" class="up-body"/>
<line x1="908.30" y1="225.91" x2="908.30" y2="245.98" class="down-wick"/>
<rect x="904.30" y="227.72" width="8.00" height="15.24" class="down-body"/>
<line x1="928.50" y1="239.85" x2="928.50" y2="248.74" class="down-wick"/>
<rect x="924.50" y="242.94" width="8.00" height="2.00" class="down-body"/>
<line x1="948.70" y1="237.70" x2="948.70" y2="247.36" class="down-wick"/>
<rect x="944.70" y="244.95" width="8.00" height="1.00" class="down-body"/>
<line x1="968.90" y1="239.53" x2="968.90" y2="264.53" class="down-wick"/>
<rect x="964.90" y="244.96" width="8.00" height="15.31" class="down-body"/>
<line x1="989.10" y1="240.65" x2="989.10" y2="260.95" class="up-wick"/>
<rect x="985.10" y="247.41" width="8.00" height="12.86" class="up-body"/>
<line x1="1009.30" y1="232.82" x2="1009.30" y2="247.65" class="up-wick"/>
<rect x="1005.30" y="235.12" width="8.00" height="12.29" class="up-body"/>
<line x1="1029.50" y1="220.89" x2="1029.50" y2="237.95" class="up-wick"/>
<rect x="1025.50" y="222.56" width="8.00" height="12.55" class="up-body"/>
<line x1="1049.70" y1="208.69" x2="1049.70" y2="223.36" class="up-wick"/>
<rect x="1045.70" y="209.87" width="8.00" height="12.68" class="up-body"/>
<line x1="1069.90" y1="193.93" x2="1069.90" y2="211.93" class="up-wick"/>
<rect x="1065.90" y="199.03" width="8.00" height="10.84" class="up-body"/>
<line x1="70" y1="177.83" x2="1080" y2="177.83" class="number-line"/>
<text x="1076" y="173.83" text-anchor="end" class="level-label">round 4960.00</text>
<line x1="70" y1="177.83" x2="1080" y2="177.83" class="entry-line"/>
<text x="1076" y="173.83" text-anchor="end" class="level-label">entry level 4960.00</text>
<text x="70" y="306" class="axis-label">2026-02-16 01:00:00+00:00 to 2026-02-18 06:00:00+00:00</text>
<text x="1080" y="306" text-anchor="end" class="axis-label">4825.29 - 5060.05</text>
<text x="70" y="332" class="panel-title">M15 liquidity / reaction context</text>
<rect x="70" y="346" width="1010" height="192" class="plot-bg"/>
<line x1="78.56" y1="374.89" x2="78.56" y2="389.20" class="up-wick"/>
<rect x="74.56" y="376.46" width="8.00" height="7.92" class="up-body"/>
<line x1="95.68" y1="371.68" x2="95.68" y2="376.79" class="up-wick"/>
<rect x="91.68" y="373.26" width="8.00" height="3.21" class="up-body"/>
<line x1="112.80" y1="373.25" x2="112.80" y2="377.78" class="down-wick"/>
<rect x="108.80" y="373.26" width="8.00" height="1.00" class="down-body"/>
<line x1="129.92" y1="367.02" x2="129.92" y2="374.35" class="up-wick"/>
<rect x="125.92" y="370.59" width="8.00" height="3.71" class="up-body"/>
<line x1="147.03" y1="365.81" x2="147.03" y2="371.37" class="up-wick"/>
<rect x="143.03" y="366.60" width="8.00" height="4.00" class="up-body"/>
<line x1="164.15" y1="364.99" x2="164.15" y2="370.34" class="down-wick"/>
<rect x="160.15" y="366.60" width="8.00" height="1.78" class="down-body"/>
<line x1="181.27" y1="368.34" x2="181.27" y2="371.96" class="down-wick"/>
<rect x="177.27" y="368.38" width="8.00" height="1.66" class="down-body"/>
<line x1="198.39" y1="367.25" x2="198.39" y2="373.69" class="up-wick"/>
<rect x="194.39" y="367.73" width="8.00" height="2.24" class="up-body"/>
<line x1="215.51" y1="363.40" x2="215.51" y2="369.05" class="up-wick"/>
<rect x="211.51" y="367.10" width="8.00" height="1.00" class="up-body"/>
<line x1="232.63" y1="365.72" x2="232.63" y2="370.59" class="up-wick"/>
<rect x="228.63" y="365.76" width="8.00" height="1.34" class="up-body"/>
<line x1="249.75" y1="363.02" x2="249.75" y2="366.91" class="down-wick"/>
<rect x="245.75" y="365.76" width="8.00" height="1.00" class="down-body"/>
<line x1="266.86" y1="364.90" x2="266.86" y2="371.37" class="down-wick"/>
<rect x="262.86" y="366.72" width="8.00" height="4.16" class="down-body"/>
<line x1="283.98" y1="364.69" x2="283.98" y2="371.45" class="up-wick"/>
<rect x="279.98" y="368.30" width="8.00" height="2.57" class="up-body"/>
<line x1="301.10" y1="361.06" x2="301.10" y2="376.37" class="down-wick"/>
<rect x="297.10" y="365.86" width="8.00" height="4.90" class="down-body"/>
<line x1="318.22" y1="359.24" x2="318.22" y2="377.66" class="up-wick"/>
<rect x="314.22" y="367.07" width="8.00" height="3.70" class="up-body"/>
<line x1="335.34" y1="365.33" x2="335.34" y2="375.02" class="down-wick"/>
<rect x="331.34" y="367.08" width="8.00" height="5.15" class="down-body"/>
<line x1="352.46" y1="367.46" x2="352.46" y2="373.46" class="down-wick"/>
<rect x="348.46" y="372.23" width="8.00" height="1.00" class="down-body"/>
<line x1="369.58" y1="370.40" x2="369.58" y2="389.41" class="down-wick"/>
<rect x="365.58" y="372.37" width="8.00" height="12.18" class="down-body"/>
<line x1="386.69" y1="381.86" x2="386.69" y2="394.20" class="down-wick"/>
<rect x="382.69" y="384.56" width="8.00" height="6.83" class="down-body"/>
<line x1="403.81" y1="384.78" x2="403.81" y2="397.04" class="down-wick"/>
<rect x="399.81" y="391.39" width="8.00" height="3.63" class="down-body"/>
<line x1="420.93" y1="395.02" x2="420.93" y2="439.79" class="down-wick"/>
<rect x="416.93" y="395.02" width="8.00" height="40.36" class="down-body"/>
<line x1="438.05" y1="417.32" x2="438.05" y2="450.28" class="up-wick"/>
<rect x="434.05" y="418.42" width="8.00" height="17.00" class="up-body"/>
<line x1="455.17" y1="409.42" x2="455.17" y2="425.16" class="up-wick"/>
<rect x="451.17" y="410.80" width="8.00" height="7.58" class="up-body"/>
<line x1="472.29" y1="402.38" x2="472.29" y2="412.94" class="up-wick"/>
<rect x="468.29" y="403.10" width="8.00" height="7.68" class="up-body"/>
<line x1="489.41" y1="402.58" x2="489.41" y2="411.98" class="down-wick"/>
<rect x="485.41" y="403.10" width="8.00" height="6.46" class="down-body"/>
<line x1="506.53" y1="400.38" x2="506.53" y2="413.37" class="up-wick"/>
<rect x="502.53" y="400.89" width="8.00" height="8.66" class="up-body"/>
<line x1="523.64" y1="393.95" x2="523.64" y2="403.04" class="up-wick"/>
<rect x="519.64" y="400.68" width="8.00" height="1.00" class="up-body"/>
<line x1="540.76" y1="399.04" x2="540.76" y2="407.78" class="down-wick"/>
<rect x="536.76" y="400.68" width="8.00" height="5.20" class="down-body"/>
<line x1="557.88" y1="398.61" x2="557.88" y2="406.75" class="up-wick"/>
<rect x="553.88" y="398.76" width="8.00" height="7.12" class="up-body"/>
<line x1="575.00" y1="395.28" x2="575.00" y2="408.10" class="down-wick"/>
<rect x="571.00" y="398.75" width="8.00" height="6.51" class="down-body"/>
<line x1="592.12" y1="404.96" x2="592.12" y2="414.22" class="down-wick"/>
<rect x="588.12" y="405.26" width="8.00" height="7.24" class="down-body"/>
<line x1="609.24" y1="406.61" x2="609.24" y2="418.76" class="down-wick"/>
<rect x="605.24" y="412.51" width="8.00" height="1.91" class="down-body"/>
<line x1="626.36" y1="406.59" x2="626.36" y2="415.00" class="up-wick"/>
<rect x="622.36" y="410.76" width="8.00" height="3.66" class="up-body"/>
<line x1="643.47" y1="410.79" x2="643.47" y2="422.51" class="down-wick"/>
<rect x="639.47" y="410.79" width="8.00" height="5.42" class="down-body"/>
<line x1="660.59" y1="406.64" x2="660.59" y2="418.14" class="up-wick"/>
<rect x="656.59" y="407.47" width="8.00" height="8.75" class="up-body"/>
<line x1="677.71" y1="406.80" x2="677.71" y2="418.20" class="down-wick"/>
<rect x="673.71" y="407.47" width="8.00" height="8.63" class="down-body"/>
<line x1="694.83" y1="414.27" x2="694.83" y2="419.44" class="up-wick"/>
<rect x="690.83" y="415.35" width="8.00" height="1.00" class="up-body"/>
<line x1="711.95" y1="413.79" x2="711.95" y2="445.12" class="down-wick"/>
<rect x="707.95" y="415.35" width="8.00" height="28.85" class="down-body"/>
<line x1="729.07" y1="443.92" x2="729.07" y2="490.43" class="down-wick"/>
<rect x="725.07" y="444.20" width="8.00" height="31.96" class="down-body"/>
<line x1="746.19" y1="474.21" x2="746.19" y2="524.76" class="down-wick"/>
<rect x="742.19" y="476.16" width="8.00" height="24.11" class="down-body"/>
<line x1="763.31" y1="479.31" x2="763.31" y2="507.43" class="up-wick"/>
<rect x="759.31" y="489.91" width="8.00" height="10.58" class="up-body"/>
<line x1="780.42" y1="483.22" x2="780.42" y2="491.20" class="up-wick"/>
<rect x="776.42" y="486.78" width="8.00" height="3.12" class="up-body"/>
<line x1="797.54" y1="475.00" x2="797.54" y2="492.48" class="up-wick"/>
<rect x="793.54" y="483.10" width="8.00" height="3.67" class="up-body"/>
<line x1="814.66" y1="460.41" x2="814.66" y2="487.05" class="up-wick"/>
<rect x="810.66" y="466.66" width="8.00" height="16.45" class="up-body"/>
<line x1="831.78" y1="460.69" x2="831.78" y2="477.70" class="up-wick"/>
<rect x="827.78" y="464.92" width="8.00" height="1.74" class="up-body"/>
<line x1="848.90" y1="460.85" x2="848.90" y2="472.24" class="down-wick"/>
<rect x="844.90" y="464.86" width="8.00" height="4.20" class="down-body"/>
<line x1="866.02" y1="457.56" x2="866.02" y2="470.32" class="up-wick"/>
<rect x="862.02" y="467.60" width="8.00" height="1.46" class="up-body"/>
<line x1="883.14" y1="452.22" x2="883.14" y2="472.18" class="up-wick"/>
<rect x="879.14" y="456.64" width="8.00" height="10.96" class="up-body"/>
<line x1="900.25" y1="451.14" x2="900.25" y2="459.76" class="down-wick"/>
<rect x="896.25" y="456.59" width="8.00" height="1.00" class="down-body"/>
<line x1="917.37" y1="441.56" x2="917.37" y2="457.90" class="up-wick"/>
<rect x="913.37" y="444.65" width="8.00" height="12.43" class="up-body"/>
<line x1="934.49" y1="442.99" x2="934.49" y2="454.53" class="down-wick"/>
<rect x="930.49" y="444.65" width="8.00" height="8.92" class="down-body"/>
<line x1="951.61" y1="446.96" x2="951.61" y2="457.75" class="down-wick"/>
<rect x="947.61" y="453.57" width="8.00" height="2.36" class="down-body"/>
<line x1="968.73" y1="447.32" x2="968.73" y2="456.06" class="up-wick"/>
<rect x="964.73" y="452.77" width="8.00" height="3.16" class="up-body"/>
<line x1="985.85" y1="442.96" x2="985.85" y2="453.64" class="up-wick"/>
<rect x="981.85" y="451.44" width="8.00" height="1.42" class="up-body"/>
<line x1="1002.97" y1="448.72" x2="1002.97" y2="455.78" class="down-wick"/>
<rect x="998.97" y="451.44" width="8.00" height="3.49" class="down-body"/>
<line x1="1020.08" y1="448.56" x2="1020.08" y2="457.71" class="up-wick"/>
<rect x="1016.08" y="452.63" width="8.00" height="2.30" class="up-body"/>
<line x1="1037.20" y1="438.96" x2="1037.20" y2="461.41" class="up-wick"/>
<rect x="1033.20" y="446.68" width="8.00" height="5.95" class="up-body"/>
<line x1="1054.32" y1="431.03" x2="1054.32" y2="449.29" class="up-wick"/>
<rect x="1050.32" y="434.69" width="8.00" height="11.99" class="up-body"/>
<line x1="1071.44" y1="433.04" x2="1071.44" y2="444.17" class="down-wick"/>
<rect x="1067.44" y="434.66" width="8.00" height="9.51" class="down-body"/>
<line x1="70" y1="407.08" x2="1080" y2="407.08" class="number-line"/>
<text x="1076" y="403.08" text-anchor="end" class="level-label">round 4960.00</text>
<line x1="70" y1="407.08" x2="1080" y2="407.08" class="entry-line"/>
<text x="1076" y="403.08" text-anchor="end" class="level-label">entry level 4960.00</text>
<text x="70" y="556" class="axis-label">2026-02-16 18:15:00+00:00 to 2026-02-17 12:15:00+00:00</text>
<text x="1080" y="556" text-anchor="end" class="axis-label">4847.72 - 5012.39</text>
<text x="70" y="582" class="panel-title">M5 reaction / execution context</text>
<rect x="70" y="596" width="1010" height="192" class="plot-bg"/>
<line x1="79.18" y1="617.93" x2="79.18" y2="623.89" class="up-wick"/>
<rect x="75.18" y="620.66" width="8.00" height="2.13" class="up-body"/>
<line x1="97.55" y1="617.48" x2="97.55" y2="622.64" class="up-wick"/>
<rect x="93.55" y="619.29" width="8.00" height="1.39" class="up-body"/>
<line x1="115.91" y1="613.49" x2="115.91" y2="619.66" class="up-wick"/>
<rect x="111.91" y="613.68" width="8.00" height="5.60" class="up-body"/>
<line x1="134.27" y1="609.24" x2="134.27" y2="620.82" class="down-wick"/>
<rect x="130.27" y="613.67" width="8.00" height="6.93" class="down-body"/>
<line x1="152.64" y1="616.17" x2="152.64" y2="623.43" class="up-wick"/>
<rect x="148.64" y="618.72" width="8.00" height="1.79" class="up-body"/>
<line x1="171.00" y1="617.20" x2="171.00" y2="625.62" class="down-wick"/>
<rect x="167.00" y="618.72" width="8.00" height="3.26" class="down-body"/>
<line x1="189.36" y1="621.61" x2="189.36" y2="629.26" class="down-wick"/>
<rect x="185.36" y="622.00" width="8.00" height="6.04" class="down-body"/>
<line x1="207.73" y1="621.72" x2="207.73" y2="628.93" class="up-wick"/>
<rect x="203.73" y="627.16" width="8.00" height="1.00" class="up-body"/>
<line x1="226.09" y1="625.58" x2="226.09" y2="633.45" class="down-wick"/>
<rect x="222.09" y="627.16" width="8.00" height="4.10" class="down-body"/>
<line x1="244.45" y1="623.72" x2="244.45" y2="633.31" class="down-wick"/>
<rect x="240.45" y="631.26" width="8.00" height="1.00" class="down-body"/>
<line x1="262.82" y1="631.39" x2="262.82" y2="638.79" class="down-wick"/>
<rect x="258.82" y="632.02" width="8.00" height="5.49" class="down-body"/>
<line x1="281.18" y1="630.04" x2="281.18" y2="639.25" class="up-wick"/>
<rect x="277.18" y="633.70" width="8.00" height="3.80" class="up-body"/>
<line x1="299.55" y1="627.31" x2="299.55" y2="634.45" class="up-wick"/>
<rect x="295.55" y="628.71" width="8.00" height="4.99" class="up-body"/>
<line x1="317.91" y1="624.79" x2="317.91" y2="628.83" class="up-wick"/>
<rect x="313.91" y="627.95" width="8.00" height="1.00" class="up-body"/>
<line x1="336.27" y1="623.70" x2="336.27" y2="630.65" class="down-wick"/>
<rect x="332.27" y="627.95" width="8.00" height="1.07" class="down-body"/>
<line x1="354.64" y1="629.07" x2="354.64" y2="639.34" class="down-wick"/>
<rect x="350.64" y="629.07" width="8.00" height="9.00" class="down-body"/>
<line x1="373.00" y1="638.01" x2="373.00" y2="644.05" class="down-wick"/>
<rect x="369.00" y="638.07" width="8.00" height="1.67" class="down-body"/>
<line x1="391.36" y1="633.43" x2="391.36" y2="639.86" class="up-wick"/>
<rect x="387.36" y="636.00" width="8.00" height="3.73" class="up-body"/>
<line x1="409.73" y1="631.45" x2="409.73" y2="638.46" class="up-wick"/>
<rect x="405.73" y="633.54" width="8.00" height="2.46" class="up-body"/>
<line x1="428.09" y1="627.35" x2="428.09" y2="633.54" class="up-wick"/>
<rect x="424.09" y="628.31" width="8.00" height="5.23" class="up-body"/>
<line x1="446.45" y1="623.76" x2="446.45" y2="628.81" class="up-wick"/>
<rect x="442.45" y="624.82" width="8.00" height="3.49" class="up-body"/>
<line x1="464.82" y1="623.97" x2="464.82" y2="634.18" class="down-wick"/>
<rect x="460.82" y="624.82" width="8.00" height="8.71" class="down-body"/>
<line x1="483.18" y1="631.60" x2="483.18" y2="638.53" class="up-wick"/>
<rect x="479.18" y="632.44" width="8.00" height="1.07" class="up-body"/>
<line x1="501.55" y1="630.96" x2="501.55" y2="636.92" class="down-wick"/>
<rect x="497.55" y="632.44" width="8.00" height="3.41" class="down-body"/>
<line x1="519.91" y1="633.54" x2="519.91" y2="639.68" class="down-wick"/>
<rect x="515.91" y="635.85" width="8.00" height="1.48" class="down-body"/>
<line x1="538.27" y1="635.19" x2="538.27" y2="640.13" class="down-wick"/>
<rect x="534.27" y="637.32" width="8.00" height="1.00" class="down-body"/>
<line x1="556.64" y1="633.51" x2="556.64" y2="638.59" class="up-wick"/>
<rect x="552.64" y="634.89" width="8.00" height="2.85" class="up-body"/>
<line x1="575.00" y1="632.90" x2="575.00" y2="641.08" class="down-wick"/>
<rect x="571.00" y="634.89" width="8.00" height="5.22" class="down-body"/>
<line x1="593.36" y1="639.71" x2="593.36" y2="657.94" class="down-wick"/>
<rect x="589.36" y="640.11" width="8.00" height="7.18" class="down-body"/>
<line x1="611.73" y1="646.40" x2="611.73" y2="672.95" class="down-wick"/>
<rect x="607.73" y="647.30" width="8.00" height="24.48" class="down-body"/>
<line x1="630.09" y1="671.41" x2="630.09" y2="719.46" class="down-wick"/>
<rect x="626.09" y="671.77" width="8.00" height="40.32" class="down-body"/>
<line x1="648.45" y1="708.34" x2="648.45" y2="730.58" class="down-wick"/>
<rect x="644.45" y="712.11" width="8.00" height="5.35" class="down-body"/>
<line x1="666.82" y1="707.70" x2="666.82" y2="730.88" class="up-wick"/>
<rect x="662.82" y="712.63" width="8.00" height="4.56" class="up-body"/>
<line x1="685.18" y1="710.14" x2="685.18" y2="774.76" class="down-wick"/>
<rect x="681.18" y="712.63" width="8.00" height="23.58" class="down-body"/>
<line x1="703.55" y1="727.70" x2="703.55" y2="749.76" class="down-wick"/>
<rect x="699.55" y="736.21" width="8.00" height="1.70" class="down-body"/>
<line x1="721.91" y1="732.92" x2="721.91" y2="750.92" class="down-wick"/>
<rect x="717.91" y="737.64" width="8.00" height="5.81" class="down-body"/>
<line x1="740.27" y1="731.56" x2="740.27" y2="752.61" class="up-wick"/>
<rect x="736.27" y="733.95" width="8.00" height="9.78" class="up-body"/>
<line x1="758.64" y1="716.65" x2="758.64" y2="735.85" class="up-wick"/>
<rect x="754.64" y="729.65" width="8.00" height="4.16" class="up-body"/>
<line x1="777.00" y1="727.67" x2="777.00" y2="737.11" class="down-wick"/>
<rect x="773.00" y="729.65" width="8.00" height="1.00" class="down-body"/>
<line x1="795.36" y1="722.95" x2="795.36" y2="731.86" class="up-wick"/>
<rect x="791.36" y="726.42" width="8.00" height="3.79" class="up-body"/>
<line x1="813.73" y1="721.66" x2="813.73" y2="729.28" class="up-wick"/>
<rect x="809.73" y="726.05" width="8.00" height="1.00" class="up-body"/>
<line x1="832.09" y1="724.08" x2="832.09" y2="731.23" class="down-wick"/>
<rect x="828.09" y="725.99" width="8.00" height="1.00" class="down-body"/>
<line x1="850.45" y1="711.15" x2="850.45" y2="733.50" class="up-wick"/>
<rect x="846.45" y="714.28" width="8.00" height="11.91" class="up-body"/>
<line x1="868.82" y1="712.09" x2="868.82" y2="720.41" class="down-wick"/>
<rect x="864.82" y="714.28" width="8.00" height="5.52" class="down-body"/>
<line x1="887.18" y1="719.67" x2="887.18" y2="725.97" class="down-wick"/>
<rect x="883.18" y="719.80" width="8.00" height="1.70" class="down-body"/>
<line x1="905.55" y1="705.74" x2="905.55" y2="726.55" class="up-wick"/>
<rect x="901.55" y="707.29" width="8.00" height="14.22" class="up-body"/>
<line x1="923.91" y1="699.23" x2="923.91" y2="708.56" class="up-wick"/>
<rect x="919.91" y="699.54" width="8.00" height="7.75" class="up-body"/>
<line x1="942.27" y1="692.49" x2="942.27" y2="704.42" class="down-wick"/>
<rect x="938.27" y="699.48" width="8.00" height="1.00" class="down-body"/>
<line x1="960.64" y1="699.48" x2="960.64" y2="714.60" class="up-wick"/>
<rect x="956.64" y="700.45" width="8.00" height="1.00" class="up-body"/>
<line x1="979.00" y1="692.85" x2="979.00" y2="701.88" class="up-wick"/>
<rect x="975.00" y="693.68" width="8.00" height="6.77" class="up-body"/>
<line x1="997.36" y1="693.68" x2="997.36" y2="701.51" class="down-wick"/>
<rect x="993.36" y="693.70" width="8.00" height="4.56" class="down-body"/>
<line x1="1015.73" y1="697.32" x2="1015.73" y2="707.62" class="up-wick"/>
<rect x="1011.73" y="697.37" width="8.00" height="1.00" class="up-body"/>
<line x1="1034.09" y1="693.06" x2="1034.09" y2="701.64" class="down-wick"/>
<rect x="1030.09" y="697.37" width="8.00" height="3.55" class="down-body"/>
<line x1="1052.45" y1="697.44" x2="1052.45" y2="705.01" class="down-wick"/>
<rect x="1048.45" y="700.91" width="8.00" height="2.64" class="down-body"/>
<line x1="1070.82" y1="700.53" x2="1070.82" y2="705.16" class="up-wick"/>
<rect x="1066.82" y="702.20" width="8.00" height="1.36" class="up-body"/>
<line x1="70" y1="624.33" x2="1080" y2="624.33" class="number-line"/>
<text x="1076" y="620.33" text-anchor="end" class="level-label">round 4960.00</text>
<line x1="70" y1="624.33" x2="1080" y2="624.33" class="entry-line"/>
<text x="1076" y="620.33" text-anchor="end" class="level-label">entry level 4960.00</text>
<text x="70" y="806" class="axis-label">2026-02-17 04:45:00+00:00 to 2026-02-17 09:15:00+00:00</text>
<text x="1080" y="806" text-anchor="end" class="axis-label">4850.20 - 4979.00</text>
<text x="70" y="832" class="panel-title">M1 execution window</text>
<rect x="70" y="846" width="1010" height="192" class="plot-bg"/>
<line x1="73.71" y1="871.16" x2="73.71" y2="874.89" class="up-wick"/>
<rect x="71.30" y="873.02" width="4.83" height="1.00" class="up-body"/>
<line x1="81.14" y1="870.75" x2="81.14" y2="872.51" class="up-wick"/>
<rect x="78.73" y="870.95" width="4.83" height="1.56" class="up-body"/>
<line x1="88.57" y1="870.12" x2="88.57" y2="871.38" class="down-wick"/>
<rect x="86.15" y="871.19" width="4.83" height="1.00" class="down-body"/>
<line x1="95.99" y1="871.00" x2="95.99" y2="872.60" class="up-wick"/>
<rect x="93.58" y="871.09" width="4.83" height="1.00" class="up-body"/>
<line x1="103.42" y1="867.59" x2="103.42" y2="870.10" class="down-wick"/>
<rect x="101.01" y="869.57" width="4.83" height="1.00" class="down-body"/>
<line x1="110.85" y1="866.36" x2="110.85" y2="870.07" class="up-wick"/>
<rect x="108.43" y="866.92" width="4.83" height="2.72" class="up-body"/>
<line x1="118.27" y1="865.89" x2="118.27" y2="867.25" class="down-wick"/>
<rect x="115.86" y="865.90" width="4.83" height="1.00" class="down-body"/>
<line x1="125.70" y1="863.03" x2="125.70" y2="864.56" class="up-wick"/>
<rect x="123.28" y="863.25" width="4.83" height="1.00" class="up-body"/>
<line x1="133.12" y1="859.24" x2="133.12" y2="862.79" class="down-wick"/>
<rect x="130.71" y="859.26" width="4.83" height="2.31" class="down-body"/>
<line x1="140.55" y1="864.75" x2="140.55" y2="867.25" class="down-wick"/>
<rect x="138.14" y="865.14" width="4.83" height="1.43" class="down-body"/>
<line x1="147.98" y1="868.78" x2="147.98" y2="874.37" class="down-wick"/>
<rect x="145.56" y="871.04" width="4.83" height="1.27" class="down-body"/>
<line x1="155.40" y1="866.41" x2="155.40" y2="870.51" class="up-wick"/>
<rect x="152.99" y="866.69" width="4.83" height="3.81" class="up-body"/>
<line x1="162.83" y1="867.42" x2="162.83" y2="869.23" class="up-wick"/>
<rect x="160.42" y="869.00" width="4.83" height="1.00" class="up-body"/>
<line x1="170.26" y1="867.74" x2="170.26" y2="870.90" class="down-wick"/>
<rect x="167.84" y="868.50" width="4.83" height="2.09" class="down-body"/>
<line x1="177.68" y1="870.25" x2="177.68" y2="876.87" class="down-wick"/>
<rect x="175.27" y="870.25" width="4.83" height="5.64" class="down-body"/>
<line x1="185.11" y1="872.29" x2="185.11" y2="879.79" class="down-wick"/>
<rect x="182.70" y="872.74" width="4.83" height="7.02" class="down-body"/>
<line x1="192.54" y1="873.50" x2="192.54" y2="874.96" class="down-wick"/>
<rect x="190.12" y="874.30" width="4.83" height="1.00" class="down-body"/>
<line x1="199.96" y1="875.08" x2="199.96" y2="879.65" class="down-wick"/>
<rect x="197.55" y="875.91" width="4.83" height="3.70" class="down-body"/>
<line x1="207.39" y1="873.30" x2="207.39" y2="880.40" class="up-wick"/>
<rect x="204.98" y="874.20" width="4.83" height="6.10" class="up-body"/>
<line x1="214.82" y1="873.50" x2="214.82" y2="876.63" class="down-wick"/>
<rect x="212.40" y="873.72" width="4.83" height="2.82" class="down-body"/>
<line x1="222.24" y1="876.81" x2="222.24" y2="883.53" class="down-wick"/>
<rect x="219.83" y="878.62" width="4.83" height="4.62" class="down-body"/>
<line x1="229.67" y1="882.47" x2="229.67" y2="885.79" class="down-wick"/>
<rect x="227.26" y="884.85" width="4.83" height="1.00" class="down-body"/>
<line x1="237.10" y1="881.66" x2="237.10" y2="883.34" class="down-wick"/>
<rect x="234.68" y="881.66" width="4.83" height="1.63" class="down-body"/>
<line x1="244.52" y1="875.25" x2="244.52" y2="881.01" class="up-wick"/>
<rect x="242.11" y="875.27" width="4.83" height="5.71" class="up-body"/>
<line x1="251.95" y1="881.08" x2="251.95" y2="885.64" class="down-wick"/>
<rect x="249.53" y="882.02" width="4.83" height="1.00" class="down-body"/>
<line x1="259.38" y1="883.44" x2="259.38" y2="888.01" class="down-wick"/>
<rect x="256.96" y="884.16" width="4.83" height="1.00" class="down-body"/>
<line x1="266.80" y1="888.76" x2="266.80" y2="891.60" class="down-wick"/>
<rect x="264.39" y="888.85" width="4.83" height="1.00" class="down-body"/>
<line x1="274.23" y1="890.21" x2="274.23" y2="891.36" class="up-wick"/>
<rect x="271.81" y="890.41" width="4.83" height="1.00" class="up-body"/>
<line x1="281.65" y1="887.62" x2="281.65" y2="892.40" class="up-wick"/>
<rect x="279.24" y="889.17" width="4.83" height="1.00" class="up-body"/>
<line x1="289.08" y1="881.90" x2="289.08" y2="884.41" class="up-wick"/>
<rect x="286.67" y="882.92" width="4.83" height="1.50" class="up-body"/>
<line x1="296.51" y1="882.80" x2="296.51" y2="886.52" class="up-wick"/>
<rect x="294.09" y="885.48" width="4.83" height="1.00" class="up-body"/>
<line x1="303.93" y1="879.43" x2="303.93" y2="885.50" class="up-wick"/>
<rect x="301.52" y="879.55" width="4.83" height="5.69" class="up-body"/>
<line x1="311.36" y1="878.79" x2="311.36" y2="881.10" class="up-wick"/>
<rect x="308.95" y="880.38" width="4.83" height="1.00" class="up-body"/>
<line x1="318.79" y1="875.91" x2="318.79" y2="880.50" class="up-wick"/>
<rect x="316.37" y="877.41" width="4.83" height="1.70" class="up-body"/>
<line x1="326.21" y1="877.53" x2="326.21" y2="878.99" class="down-wick"/>
<rect x="323.80" y="877.89" width="4.83" height="1.05" class="down-body"/>
<line x1="333.64" y1="874.67" x2="333.64" y2="879.52" class="up-wick"/>
<rect x="331.23" y="875.56" width="4.83" height="3.96" class="up-body"/>
<line x1="341.07" y1="877.68" x2="341.07" y2="879.48" class="up-wick"/>
<rect x="338.65" y="879.30" width="4.83" height="1.00" class="up-body"/>
<line x1="348.49" y1="877.99" x2="348.49" y2="882.59" class="down-wick"/>
<rect x="346.08" y="878.09" width="4.83" height="2.65" class="down-body"/>
<line x1="355.92" y1="885.48" x2="355.92" y2="887.83" class="up-wick"/>
<rect x="353.51" y="885.48" width="4.83" height="2.19" class="up-body"/>
<line x1="363.35" y1="887.52" x2="363.35" y2="891.48" class="down-wick"/>
<rect x="360.93" y="887.56" width="4.83" height="2.57" class="down-body"/>
<line x1="370.77" y1="890.99" x2="370.77" y2="892.65" class="down-wick"/>
<rect x="368.36" y="891.06" width="4.83" height="1.48" class="down-body"/>
<line x1="378.20" y1="894.20" x2="378.20" y2="896.26" class="up-wick"/>
<rect x="375.78" y="895.27" width="4.83" height="1.00" class="up-body"/>
<line x1="385.62" y1="892.09" x2="385.62" y2="896.26" class="up-wick"/>
<rect x="383.21" y="892.96" width="4.83" height="3.18" class="up-body"/>
<line x1="393.05" y1="888.95" x2="393.05" y2="890.12" class="down-wick"/>
<rect x="390.64" y="888.95" width="4.83" height="1.00" class="down-body"/>
<line x1="400.48" y1="886.72" x2="400.48" y2="888.88" class="down-wick"/>
<rect x="398.06" y="887.30" width="4.83" height="1.00" class="down-body"/>
<line x1="407.90" y1="884.58" x2="407.90" y2="891.50" class="up-wick"/>
<rect x="405.49" y="884.63" width="4.83" height="4.06" class="up-body"/>
<line x1="415.33" y1="885.87" x2="415.33" y2="886.99" class="up-wick"/>
<rect x="412.92" y="886.43" width="4.83" height="1.00" class="up-body"/>
<line x1="422.76" y1="883.51" x2="422.76" y2="888.29" class="up-wick"/>
<rect x="420.34" y="885.89" width="4.83" height="2.40" class="up-body"/>
<line x1="430.18" y1="881.34" x2="430.18" y2="884.56" class="up-wick"/>
<rect x="427.77" y="882.66" width="4.83" height="1.90" class="up-body"/>
<line x1="437.61" y1="879.79" x2="437.61" y2="882.59" class="up-wick"/>
<rect x="435.20" y="879.98" width="4.83" height="2.62" class="up-body"/>
<line x1="445.04" y1="878.48" x2="445.04" y2="880.26" class="down-wick"/>
<rect x="442.62" y="879.92" width="4.83" height="1.00" class="down-body"/>
<line x1="452.46" y1="874.74" x2="452.46" y2="879.53" class="up-wick"/>
<rect x="450.05" y="875.30" width="4.83" height="4.08" class="up-body"/>
<line x1="459.89" y1="875.11" x2="459.89" y2="876.17" class="down-wick"/>
<rect x="457.48" y="875.45" width="4.83" height="1.00" class="down-body"/>
<line x1="467.32" y1="880.13" x2="467.32" y2="884.87" class="down-wick"/>
<rect x="464.90" y="880.13" width="4.83" height="4.06" class="down-body"/>
<line x1="474.74" y1="880.49" x2="474.74" y2="883.90" class="down-wick"/>
<rect x="472.33" y="881.88" width="4.83" height="2.01" class="down-body"/>
<line x1="482.17" y1="885.40" x2="482.17" y2="887.95" class="down-wick"/>
<rect x="479.76" y="885.86" width="4.83" height="2.02" class="down-body"/>
<line x1="489.60" y1="887.98" x2="489.60" y2="891.58" class="down-wick"/>
<rect x="487.18" y="888.20" width="4.83" height="1.00" class="down-body"/>
<line x1="497.02" y1="883.68" x2="497.02" y2="890.48" class="up-wick"/>
<rect x="494.61" y="884.63" width="4.83" height="5.81" class="up-body"/>
<line x1="504.45" y1="883.19" x2="504.45" y2="885.67" class="down-wick"/>
<rect x="502.03" y="883.53" width="4.83" height="1.70" class="down-body"/>
<line x1="511.88" y1="885.50" x2="511.88" y2="887.28" class="down-wick"/>
<rect x="509.46" y="885.70" width="4.83" height="1.58" class="down-body"/>
<line x1="519.30" y1="888.51" x2="519.30" y2="890.63" class="down-wick"/>
<rect x="516.89" y="888.52" width="4.83" height="1.00" class="down-body"/>
<line x1="526.73" y1="888.92" x2="526.73" y2="890.34" class="down-wick"/>
<rect x="524.31" y="888.97" width="4.83" height="1.33" class="down-body"/>
<line x1="534.15" y1="886.23" x2="534.15" y2="892.89" class="down-wick"/>
<rect x="531.74" y="886.28" width="4.83" height="3.93" class="down-body"/>
<line x1="541.58" y1="889.63" x2="541.58" y2="892.88" class="up-wick"/>
<rect x="539.17" y="889.92" width="4.83" height="2.46" class="up-body"/>
<line x1="549.01" y1="887.78" x2="549.01" y2="890.90" class="down-wick"/>
<rect x="546.59" y="887.91" width="4.83" height="2.86" class="down-body"/>
<line x1="556.43" y1="890.07" x2="556.43" y2="891.65" class="down-wick"/>
<rect x="554.02" y="890.68" width="4.83" height="1.00" class="down-body"/>
<line x1="563.86" y1="888.10" x2="563.86" y2="890.73" class="up-wick"/>
<rect x="561.45" y="888.18" width="4.83" height="1.72" class="up-body"/>
<line x1="571.29" y1="886.81" x2="571.29" y2="888.29" class="down-wick"/>
<rect x="568.87" y="887.33" width="4.83" height="1.00" class="down-body"/>
<line x1="578.71" y1="887.40" x2="578.71" y2="889.27" class="up-wick"/>
<rect x="576.30" y="887.45" width="4.83" height="1.00" class="up-body"/>
<line x1="586.14" y1="890.09" x2="586.14" y2="893.49" class="down-wick"/>
<rect x="583.73" y="890.36" width="4.83" height="2.99" class="down-body"/>
<line x1="593.57" y1="892.93" x2="593.57" y2="894.56" class="down-wick"/>
<rect x="591.15" y="893.38" width="4.83" height="1.05" class="down-body"/>
<line x1="600.99" y1="905.32" x2="600.99" y2="913.71" class="down-wick"/>
<rect x="598.58" y="905.35" width="4.83" height="1.00" class="down-body"/>
<line x1="608.42" y1="901.07" x2="608.42" y2="904.21" class="up-wick"/>
<rect x="606.01" y="901.58" width="4.83" height="1.85" class="up-body"/>
<line x1="615.85" y1="902.41" x2="615.85" y2="907.24" class="up-wick"/>
<rect x="613.43" y="905.09" width="4.83" height="1.63" class="up-body"/>
<line x1="623.27" y1="912.27" x2="623.27" y2="917.86" class="down-wick"/>
<rect x="620.86" y="912.39" width="4.83" height="4.18" class="down-body"/>
<line x1="630.70" y1="929.08" x2="630.70" y2="952.44" class="down-wick"/>
<rect x="628.28" y="929.48" width="4.83" height="15.26" class="down-body"/>
<line x1="638.12" y1="949.54" x2="638.12" y2="979.02" class="down-wick"/>
<rect x="635.71" y="957.42" width="4.83" height="21.13" class="down-body"/>
<line x1="645.55" y1="970.53" x2="645.55" y2="983.85" class="up-wick"/>
<rect x="643.14" y="975.46" width="4.83" height="1.16" class="up-body"/>
<line x1="652.98" y1="971.17" x2="652.98" y2="981.30" class="down-wick"/>
<rect x="650.56" y="971.95" width="4.83" height="9.14" class="down-body"/>
<line x1="660.40" y1="975.32" x2="660.40" y2="984.45" class="up-wick"/>
<rect x="657.99" y="975.34" width="4.83" height="4.49" class="up-body"/>
<line x1="667.83" y1="981.27" x2="667.83" y2="996.87" class="down-wick"/>
<rect x="665.42" y="981.27" width="4.83" height="2.58" class="down-body"/>
<line x1="675.26" y1="975.00" x2="675.26" y2="986.91" class="down-wick"/>
<rect x="672.84" y="978.17" width="4.83" height="1.00" class="down-body"/>
<line x1="682.68" y1="973.09" x2="682.68" y2="980.81" class="up-wick"/>
<rect x="680.27" y="976.07" width="4.83" height="4.25" class="up-body"/>
<line x1="690.11" y1="979.77" x2="690.11" y2="1015.36" class="down-wick"/>
<rect x="687.70" y="985.48" width="4.83" height="20.90" class="down-body"/>
<line x1="697.54" y1="1012.69" x2="697.54" y2="1024.76" class="up-wick"/>
<rect x="695.12" y="1013.78" width="4.83" height="10.88" class="up-body"/>
<line x1="704.96" y1="1001.97" x2="704.96" y2="1018.40" class="down-wick"/>
<rect x="702.55" y="1002.95" width="4.83" height="13.60" class="down-body"/>
<line x1="712.39" y1="993.25" x2="712.39" y2="1007.53" class="up-wick"/>
<rect x="709.98" y="996.78" width="4.83" height="10.71" class="up-body"/>
<line x1="719.82" y1="996.51" x2="719.82" y2="1007.13" class="up-wick"/>
<rect x="717.40" y="1004.89" width="4.83" height="1.00" class="up-body"/>
<line x1="727.24" y1="1002.61" x2="727.24" y2="1019.73" class="up-wick"/>
<rect x="724.83" y="1009.14" width="4.83" height="1.10" class="up-body"/>
<line x1="734.67" y1="1000.51" x2="734.67" y2="1005.49" class="up-wick"/>
<rect x="732.26" y="1003.46" width="4.83" height="1.60" class="up-body"/>
<line x1="742.10" y1="1009.80" x2="742.10" y2="1018.18" class="down-wick"/>
<rect x="739.68" y="1011.52" width="4.83" height="3.64" class="down-body"/>
<line x1="749.52" y1="998.06" x2="749.52" y2="1012.57" class="down-wick"/>
<rect x="747.11" y="998.62" width="4.83" height="13.95" class="down-body"/>
<line x1="756.95" y1="999.59" x2="756.95" y2="1013.25" class="up-wick"/>
<rect x="754.53" y="1000.37" width="4.83" height="6.44" class="up-body"/>
<line x1="764.38" y1="997.48" x2="764.38" y2="1001.19" class="down-wick"/>
<rect x="761.96" y="997.70" width="4.83" height="1.77" class="down-body"/>
<line x1="771.80" y1="980.66" x2="771.80" y2="990.39" class="up-wick"/>
<rect x="769.39" y="987.35" width="4.83" height="1.82" class="up-body"/>
<line x1="779.23" y1="994.95" x2="779.23" y2="1003.97" class="down-wick"/>
<rect x="776.81" y="995.48" width="4.83" height="2.35" class="down-body"/>
<line x1="786.65" y1="993.91" x2="786.65" y2="1000.01" class="up-wick"/>
<rect x="784.24" y="994.81" width="4.83" height="2.62" class="up-body"/>
<line x1="794.08" y1="995.42" x2="794.08" y2="998.77" class="up-wick"/>
<rect x="791.67" y="996.10" width="4.83" height="1.00" class="up-body"/>
<line x1="801.51" y1="988.20" x2="801.51" y2="993.20" class="down-wick"/>
<rect x="799.09" y="991.09" width="4.83" height="1.00" class="down-body"/>
<line x1="808.93" y1="990.21" x2="808.93" y2="994.27" class="down-wick"/>
<rect x="806.52" y="990.77" width="4.83" height="1.00" class="down-body"/>
<line x1="816.36" y1="990.97" x2="816.36" y2="994.74" class="down-wick"/>
<rect x="813.95" y="991.80" width="4.83" height="1.00" class="down-body"/>
<line x1="823.79" y1="988.80" x2="823.79" y2="993.42" class="up-wick"/>
<rect x="821.37" y="989.41" width="4.83" height="3.81" class="up-body"/>
<line x1="831.21" y1="986.84" x2="831.21" y2="993.13" class="down-wick"/>
<rect x="828.80" y="986.84" width="4.83" height="4.52" class="down-body"/>
<line x1="838.64" y1="990.82" x2="838.64" y2="994.86" class="up-wick"/>
<rect x="836.23" y="991.67" width="4.83" height="1.99" class="up-body"/>
<line x1="846.07" y1="992.28" x2="846.07" y2="997.28" class="down-wick"/>
<rect x="843.65" y="992.79" width="4.83" height="2.41" class="down-body"/>
<line x1="853.49" y1="990.56" x2="853.49" y2="999.86" class="down-wick"/>
<rect x="851.08" y="991.53" width="4.83" height="6.87" class="down-body"/>
<line x1="860.92" y1="993.13" x2="860.92" y2="998.31" class="up-wick"/>
<rect x="858.51" y="993.47" width="4.83" height="2.57" class="up-body"/>
<line x1="868.35" y1="974.38" x2="868.35" y2="986.01" class="up-wick"/>
<rect x="865.93" y="977.95" width="4.83" height="6.00" class="up-body"/>
<line x1="875.77" y1="979.13" x2="875.77" y2="982.87" class="down-wick"/>
<rect x="873.36" y="980.84" width="4.83" height="1.00" class="down-body"/>
<line x1="883.20" y1="975.46" x2="883.20" y2="979.67" class="down-wick"/>
<rect x="880.78" y="978.84" width="4.83" height="1.00" class="down-body"/>
<line x1="890.62" y1="984.09" x2="890.62" y2="989.43" class="down-wick"/>
<rect x="888.21" y="984.24" width="4.83" height="2.63" class="down-body"/>
<line x1="898.05" y1="987.08" x2="898.05" y2="990.50" class="up-wick"/>
<rect x="895.64" y="988.71" width="4.83" height="1.00" class="up-body"/>
<line x1="905.48" y1="984.92" x2="905.48" y2="987.88" class="down-wick"/>
<rect x="903.06" y="985.09" width="4.83" height="1.09" class="down-body"/>
<line x1="912.90" y1="985.16" x2="912.90" y2="989.56" class="up-wick"/>
<rect x="910.49" y="985.45" width="4.83" height="2.67" class="up-body"/>
<line x1="920.33" y1="968.42" x2="920.33" y2="979.79" class="up-wick"/>
<rect x="917.92" y="970.14" width="4.83" height="9.60" class="up-body"/>
<line x1="927.76" y1="967.93" x2="927.76" y2="970.85" class="down-wick"/>
<rect x="925.34" y="969.98" width="4.83" height="1.00" class="down-body"/>
<line x1="935.18" y1="967.77" x2="935.18" y2="970.19" class="down-wick"/>
<rect x="932.77" y="968.66" width="4.83" height="1.53" class="down-body"/>
<line x1="942.61" y1="960.92" x2="942.61" y2="963.61" class="up-wick"/>
<rect x="940.20" y="961.15" width="4.83" height="1.90" class="up-body"/>
<line x1="950.04" y1="953.11" x2="950.04" y2="964.95" class="up-wick"/>
<rect x="947.62" y="959.38" width="4.83" height="5.57" class="up-body"/>
<line x1="957.46" y1="961.77" x2="957.46" y2="963.27" class="up-wick"/>
<rect x="955.05" y="962.37" width="4.83" height="1.00" class="up-body"/>
<line x1="964.89" y1="961.08" x2="964.89" y2="963.35" class="up-wick"/>
<rect x="962.48" y="962.11" width="4.83" height="1.00" class="up-body"/>
<line x1="972.32" y1="962.40" x2="972.32" y2="978.31" class="down-wick"/>
<rect x="969.90" y="963.03" width="4.83" height="8.51" class="down-body"/>
<line x1="979.74" y1="961.94" x2="979.74" y2="964.48" class="up-wick"/>
<rect x="977.33" y="962.18" width="4.83" height="1.85" class="up-body"/>
<line x1="987.17" y1="959.87" x2="987.17" y2="963.81" class="up-wick"/>
<rect x="984.76" y="960.24" width="4.83" height="2.19" class="up-body"/>
<line x1="994.60" y1="957.66" x2="994.60" y2="959.84" class="up-wick"/>
<rect x="992.18" y="957.92" width="4.83" height="1.24" class="up-body"/>
<line x1="1002.02" y1="954.47" x2="1002.02" y2="956.78" class="down-wick"/>
<rect x="999.61" y="954.48" width="4.83" height="1.87" class="down-body"/>
<line x1="1009.45" y1="957.07" x2="1009.45" y2="959.09" class="up-wick"/>
<rect x="1007.03" y="957.90" width="4.83" height="1.19" class="up-body"/>
<line x1="1016.88" y1="956.68" x2="1016.88" y2="963.39" class="up-wick"/>
<rect x="1014.46" y="959.68" width="4.83" height="3.01" class="up-body"/>
<line x1="1024.30" y1="961.89" x2="1024.30" y2="970.20" class="down-wick"/>
<rect x="1021.89" y="962.01" width="4.83" height="6.99" class="down-body"/>
<line x1="1031.73" y1="963.75" x2="1031.73" y2="968.47" class="up-wick"/>
<rect x="1029.31" y="963.86" width="4.83" height="2.36" class="up-body"/>
<line x1="1039.15" y1="957.46" x2="1039.15" y2="962.81" class="down-wick"/>
<rect x="1036.74" y="958.66" width="4.83" height="3.50" class="down-body"/>
<line x1="1046.58" y1="953.75" x2="1046.58" y2="959.14" class="up-wick"/>
<rect x="1044.17" y="956.47" width="4.83" height="1.97" class="up-body"/>
<line x1="1054.01" y1="959.99" x2="1054.01" y2="963.54" class="down-wick"/>
<rect x="1051.59" y="960.70" width="4.83" height="2.01" class="down-body"/>
<line x1="1061.43" y1="963.10" x2="1061.43" y2="966.70" class="down-wick"/>
<rect x="1059.02" y="963.78" width="4.83" height="1.31" class="down-body"/>
<line x1="1068.86" y1="958.75" x2="1068.86" y2="962.06" class="up-wick"/>
<rect x="1066.45" y="959.70" width="4.83" height="1.55" class="up-body"/>
<line x1="1076.29" y1="963.68" x2="1076.29" y2="966.26" class="up-wick"/>
<rect x="1073.87" y="965.41" width="4.83" height="1.00" class="up-body"/>
<line x1="70" y1="875.39" x2="1080" y2="875.39" class="number-line"/>
<text x="1076" y="871.39" text-anchor="end" class="level-label">round 4960.00</text>
<line x1="70" y1="875.39" x2="1080" y2="875.39" class="entry-line"/>
<text x="1076" y="871.39" text-anchor="end" class="level-label">entry level 4960.00</text>
<text x="70" y="1056" class="axis-label">2026-02-17 04:45:00+00:00 to 2026-02-17 09:15:00+00:00</text>
<text x="1080" y="1056" text-anchor="end" class="axis-label">4864.32 - 4977.29</text>
</svg>