<svg xmlns="http://www.w3.org/2000/svg" width="1120" height="1054" viewBox="0 0 1120 1054">
<style>
text{font-family:Arial,Helvetica,sans-serif}.title{font-size:21px;font-weight:700;fill:#1f2937}.subtitle{font-size:12px;fill:#4b5563}.panel-title{font-size:15px;font-weight:700;fill:#111827}.muted{font-size:13px;fill:#6b7280}.plot-bg{fill:#f8fafc;stroke:#cbd5e1;stroke-width:1}.up-body{fill:#15803d;stroke:#14532d;stroke-width:.8}.down-body{fill:#b91c1c;stroke:#7f1d1d;stroke-width:.8}.up-wick{stroke:#14532d;stroke-width:1}.down-wick{stroke:#7f1d1d;stroke-width:1}.sweep-line{stroke:#7c3aed;stroke-width:1.6;stroke-dasharray:6 4}.number-line{stroke:#0f766e;stroke-width:1.4;stroke-dasharray:3 4}.entry-line{stroke:#2563eb;stroke-width:1.4}.sl-line{stroke:#dc2626;stroke-width:1.4}.tp-line{stroke:#16a34a;stroke-width:1.4}.level-label,.axis-label{font-size:11px;fill:#374151}
</style>
<text x="28" y="28" class="title">Adelin v2 visual review sample sample_114</text>
<text x="28" y="48" class="subtitle">Candidate windows are for visual labeling only and are not trade signals.</text>
<text x="560" y="48" class="subtitle" text-anchor="middle">NUMBER_THEORY_LEVEL_NEAR | ROUND_LEVEL_ENTRY_METADATA_AVAILABLE</text>
<text x="70" y="82" class="panel-title">H1 liquidity context</text>
<rect x="70" y="96" width="1010" height="192" class="plot-bg"/>
<line x1="77.89" y1="178.96" x2="77.89" y2="191.51" class="down-wick"/>
<rect x="73.89" y="180.65" width="8.00" height="6.22" class="down-body"/>
<line x1="93.67" y1="185.34" x2="93.67" y2="192.47" class="down-wick"/>
<rect x="89.67" y="186.87" width="8.00" height="3.67" class="down-body"/>
<line x1="109.45" y1="188.54" x2="109.45" y2="199.46" class="down-wick"/>
<rect x="105.45" y="190.54" width="8.00" height="1.00" class="down-body"/>
<line x1="125.23" y1="190.44" x2="125.23" y2="206.39" class="up-wick"/>
<rect x="121.23" y="191.12" width="8.00" height="1.00" class="up-body"/>
<line x1="141.02" y1="186.96" x2="141.02" y2="207.50" class="down-wick"/>
<rect x="137.02" y="191.12" width="8.00" height="5.38" class="down-body"/>
<line x1="156.80" y1="188.07" x2="156.80" y2="202.04" class="up-wick"/>
<rect x="152.80" y="189.71" width="8.00" height="6.80" class="up-body"/>
<line x1="172.58" y1="189.41" x2="172.58" y2="197.05" class="down-wick"/>
<rect x="168.58" y="189.66" width="8.00" height="6.80" class="down-body"/>
<line x1="188.36" y1="191.06" x2="188.36" y2="206.62" class="down-wick"/>
<rect x="184.36" y="196.44" width="8.00" height="5.15" class="down-body"/>
<line x1="204.14" y1="200.34" x2="204.14" y2="213.07" class="down-wick"/>
<rect x="200.14" y="201.59" width="8.00" height="7.78" class="down-body"/>
<line x1="219.92" y1="205.82" x2="219.92" y2="217.36" class="down-wick"/>
<rect x="215.92" y="209.37" width="8.00" height="7.22" class="down-body"/>
<line x1="235.70" y1="214.76" x2="235.70" y2="220.42" class="down-wick"/>
<rect x="231.70" y="216.59" width="8.00" height="1.45" class="down-body"/>
<line x1="251.48" y1="212.44" x2="251.48" y2="221.54" class="down-wick"/>
<rect x="247.48" y="218.10" width="8.00" height="1.13" class="down-body"/>
<line x1="267.27" y1="218.91" x2="267.27" y2="255.14" class="down-wick"/>
<rect x="263.27" y="219.23" width="8.00" height="9.52" class="down-body"/>
<line x1="283.05" y1="222.68" x2="283.05" y2="237.13" class="down-wick"/>
<rect x="279.05" y="228.75" width="8.00" height="1.51" class="down-body"/>
<line x1="298.83" y1="216.32" x2="298.83" y2="231.30" class="up-wick"/>
<rect x="294.83" y="224.51" width="8.00" height="5.74" class="up-body"/>
<line x1="314.61" y1="219.07" x2="314.61" y2="234.05" class="down-wick"/>
<rect x="310.61" y="224.51" width="8.00" height="3.19" class="down-body"/>
<line x1="330.39" y1="213.37" x2="330.39" y2="235.52" class="down-wick"/>
<rect x="326.39" y="227.70" width="8.00" height="1.92" class="down-body"/>
<line x1="346.17" y1="226.20" x2="346.17" y2="266.13" class="down-wick"/>
<rect x="342.17" y="229.61" width="8.00" height="29.79" class="down-body"/>
<line x1="361.95" y1="255.44" x2="361.95" y2="274.76" class="down-wick"/>
<rect x="357.95" y="259.40" width="8.00" height="8.09" class="down-body"/>
<line x1="377.73" y1="251.86" x2="377.73" y2="267.52" class="up-wick"/>
<rect x="373.73" y="258.77" width="8.00" height="8.72" class="up-body"/>
<line x1="393.52" y1="256.52" x2="393.52" y2="268.14" class="down-wick"/>
<rect x="389.52" y="258.77" width="8.00" height="4.54" class="down-body"/>
<line x1="409.30" y1="255.24" x2="409.30" y2="267.03" class="up-wick"/>
<rect x="405.30" y="262.20" width="8.00" height="1.10" class="up-body"/>
<line x1="425.08" y1="257.35" x2="425.08" y2="263.79" class="down-wick"/>
<rect x="421.08" y="257.97" width="8.00" height="4.45" class="down-body"/>
<line x1="440.86" y1="259.35" x2="440.86" y2="263.39" class="up-wick"/>
<rect x="436.86" y="261.31" width="8.00" height="1.10" class="up-body"/>
<line x1="456.64" y1="252.74" x2="456.64" y2="265.34" class="up-wick"/>
<rect x="452.64" y="253.09" width="8.00" height="8.22" class="up-body"/>
<line x1="472.42" y1="244.09" x2="472.42" y2="256.50" class="up-wick"/>
<rect x="468.42" y="244.99" width="8.00" height="8.19" class="up-body"/>
<line x1="488.20" y1="240.66" x2="488.20" y2="249.65" class="down-wick"/>
<rect x="484.20" y="244.99" width="8.00" height="1.38" class="down-body"/>
<line x1="503.98" y1="243.62" x2="503.98" y2="251.37" class="down-wick"/>
<rect x="499.98" y="246.37" width="8.00" height="3.34" class="down-body"/>
<line x1="519.77" y1="248.18" x2="519.77" y2="254.61" class="down-wick"/>
<rect x="515.77" y="249.71" width="8.00" height="1.00" class="down-body"/>
<line x1="535.55" y1="236.88" x2="535.55" y2="252.02" class="up-wick"/>
<rect x="531.55" y="241.43" width="8.00" height="8.91" class="up-body"/>
<line x1="551.33" y1="236.69" x2="551.33" y2="250.35" class="up-wick"/>
<rect x="547.33" y="239.62" width="8.00" height="1.80" class="up-body"/>
<line x1="567.11" y1="231.99" x2="567.11" y2="243.18" class="down-wick"/>
<rect x="563.11" y="239.62" width="8.00" height="1.92" class="down-body"/>
<line x1="582.89" y1="230.96" x2="582.89" y2="241.59" class="up-wick"/>
<rect x="578.89" y="231.82" width="8.00" height="9.71" class="up-body"/>
<line x1="598.67" y1="230.40" x2="598.67" y2="237.43" class="down-wick"/>
<rect x="594.67" y="231.82" width="8.00" height="1.69" class="down-body"/>
<line x1="614.45" y1="233.05" x2="614.45" y2="245.49" class="down-wick"/>
<rect x="610.45" y="233.53" width="8.00" height="9.32" class="down-body"/>
<line x1="630.23" y1="227.03" x2="630.23" y2="245.79" class="up-wick"/>
<rect x="626.23" y="228.64" width="8.00" height="14.20" class="up-body"/>
<line x1="646.02" y1="219.83" x2="646.02" y2="235.08" class="up-wick"/>
<rect x="642.02" y="227.34" width="8.00" height="1.30" class="up-body"/>
<line x1="661.80" y1="211.99" x2="661.80" y2="227.54" class="up-wick"/>
<rect x="657.80" y="216.25" width="8.00" height="11.12" class="up-body"/>
<line x1="677.58" y1="210.76" x2="677.58" y2="226.35" class="up-wick"/>
<rect x="673.58" y="214.03" width="8.00" height="2.22" class="up-body"/>
<line x1="693.36" y1="212.91" x2="693.36" y2="224.53" class="down-wick"/>
<rect x="689.36" y="214.03" width="8.00" height="10.35" class="down-body"/>
<line x1="709.14" y1="224.00" x2="709.14" y2="235.45" class="down-wick"/>
<rect x="705.14" y="224.39" width="8.00" height="5.47" class="down-body"/>
<line x1="724.92" y1="228.69" x2="724.92" y2="235.84" class="down-wick"/>
<rect x="720.92" y="229.85" width="8.00" height="1.03" class="down-body"/>
<line x1="740.70" y1="226.44" x2="740.70" y2="232.48" class="up-wick"/>
<rect x="736.70" y="229.94" width="8.00" height="1.00" class="up-body"/>
<line x1="756.48" y1="229.58" x2="756.48" y2="237.01" class="down-wick"/>
<rect x="752.48" y="229.94" width="8.00" height="4.71" class="down-body"/>
<line x1="772.27" y1="217.74" x2="772.27" y2="241.07" class="up-wick"/>
<rect x="768.27" y="220.76" width="8.00" height="12.64" class="up-body"/>
<line x1="788.05" y1="204.09" x2="788.05" y2="223.62" class="up-wick"/>
<rect x="784.05" y="205.39" width="8.00" height="15.37" class="up-body"/>
<line x1="803.83" y1="185.95" x2="803.83" y2="209.74" class="up-wick"/>
<rect x="799.83" y="186.88" width="8.00" height="18.49" class="up-body"/>
<line x1="819.61" y1="179.43" x2="819.61" y2="193.82" class="up-wick"/>
<rect x="815.61" y="181.49" width="8.00" height="5.53" class="up-body"/>
<line x1="835.39" y1="169.72" x2="835.39" y2="182.02" class="up-wick"/>
<rect x="831.39" y="170.56" width="8.00" height="10.93" class="up-body"/>
<line x1="851.17" y1="162.11" x2="851.17" y2="172.13" class="up-wick"/>
<rect x="847.17" y="168.37" width="8.00" height="2.19" class="up-body"/>
<line x1="866.95" y1="160.85" x2="866.95" y2="168.50" class="up-wick"/>
<rect x="862.95" y="164.37" width="8.00" height="4.01" class="up-body"/>
<line x1="882.73" y1="153.21" x2="882.73" y2="167.66" class="up-wick"/>
<rect x="878.73" y="153.98" width="8.00" height="10.37" class="up-body"/>
<line x1="898.52" y1="149.05" x2="898.52" y2="158.24" class="up-wick"/>
<rect x="894.52" y="149.19" width="8.00" height="4.79" class="up-body"/>
<line x1="914.30" y1="139.88" x2="914.30" y2="158.03" class="up-wick"/>
<rect x="910.30" y="140.05" width="8.00" height="9.13" class="up-body"/>
<line x1="930.08" y1="124.43" x2="930.08" y2="147.49" class="up-wick"/>
<rect x="926.08" y="126.29" width="8.00" height="13.83" class="up-body"/>
<line x1="945.86" y1="119.95" x2="945.86" y2="134.42" class="up-wick"/>
<rect x="941.86" y="124.97" width="8.00" height="1.10" class="up-body"/>
<line x1="961.64" y1="109.24" x2="961.64" y2="129.66" class="up-wick"/>
<rect x="957.64" y="112.92" width="8.00" height="12.07" class="up-body"/>
<line x1="977.42" y1="110.52" x2="977.42" y2="133.16" class="down-wick"/>
<rect x="973.42" y="112.92" width="8.00" height="19.22" class="down-body"/>
<line x1="993.20" y1="131.52" x2="993.20" y2="155.94" class="down-wick"/>
<rect x="989.20" y="132.14" width="8.00" height="6.59" class="down-body"/>
<line x1="1008.98" y1="120.52" x2="1008.98" y2="149.63" class="up-wick"/>
<rect x="1004.98" y="124.70" width="8.00" height="14.03" class="up-body"/>
<line x1="1024.77" y1="113.16" x2="1024.77" y2="128.08" class="up-wick"/>
<rect x="1020.77" y="124.01" width="8.00" height="1.00" class="up-body"/>
<line x1="1040.55" y1="121.92" x2="1040.55" y2="135.48" class="down-wick"/>
<rect x="1036.55" y="124.01" width="8.00" height="11.47" class="down-body"/>
<line x1="1056.33" y1="132.19" x2="1056.33" y2="141.61" class="down-wick"/>
<rect x="1052.33" y="135.54" width="8.00" height="3.39" class="down-body"/>
<line x1="1072.11" y1="135.22" x2="1072.11" y2="142.01" class="up-wick"/>
<rect x="1068.11" y="138.17" width="8.00" height="1.00" class="up-body"/>
<line x1="70" y1="230.73" x2="1080" y2="230.73" class="number-line"/>
<text x="1076" y="226.73" text-anchor="end" class="level-label">round 4560.00</text>
<line x1="70" y1="230.73" x2="1080" y2="230.73" class="entry-line"/>
<text x="1076" y="226.73" text-anchor="end" class="level-label">entry level 4560.00</text>
<text x="70" y="306" class="axis-label">2026-05-04 01:00:00+00:00 to 2026-05-06 20:00:00+00:00</text>
<text x="1080" y="306" text-anchor="end" class="axis-label">4483.23 - 4740.62</text>
<text x="70" y="332" class="panel-title">M15 liquidity / reaction context</text>
<rect x="70" y="346" width="1010" height="192" class="plot-bg"/>
<line x1="77.77" y1="472.45" x2="77.77" y2="506.92" class="up-wick"/>
<rect x="73.77" y="488.82" width="8.00" height="17.61" class="up-body"/>
<line x1="93.31" y1="480.56" x2="93.31" y2="496.03" class="down-wick"/>
<rect x="89.31" y="488.79" width="8.00" height="1.33" class="down-body"/>
<line x1="108.85" y1="471.73" x2="108.85" y2="501.59" class="down-wick"/>
<rect x="104.85" y="490.06" width="8.00" height="5.94" class="down-body"/>
<line x1="124.38" y1="492.50" x2="124.38" y2="524.76" class="down-wick"/>
<rect x="120.38" y="496.00" width="8.00" height="19.38" class="down-body"/>
<line x1="139.92" y1="479.00" x2="139.92" y2="517.23" class="up-wick"/>
<rect x="135.92" y="488.27" width="8.00" height="27.11" class="up-body"/>
<line x1="155.46" y1="474.74" x2="155.46" y2="490.58" class="up-wick"/>
<rect x="151.46" y="483.08" width="8.00" height="5.18" class="up-body"/>
<line x1="171.00" y1="462.55" x2="171.00" y2="484.79" class="up-wick"/>
<rect x="167.00" y="465.68" width="8.00" height="17.41" class="up-body"/>
<line x1="186.54" y1="461.27" x2="186.54" y2="482.07" class="down-wick"/>
<rect x="182.54" y="465.68" width="8.00" height="15.03" class="down-body"/>
<line x1="202.08" y1="453.48" x2="202.08" y2="480.71" class="up-wick"/>
<rect x="198.08" y="473.99" width="8.00" height="6.72" class="up-body"/>
<line x1="217.62" y1="472.13" x2="217.62" y2="496.90" class="down-wick"/>
<rect x="213.62" y="473.99" width="8.00" height="16.54" class="down-body"/>
<line x1="233.15" y1="467.82" x2="233.15" y2="490.73" class="up-wick"/>
<rect x="229.15" y="474.28" width="8.00" height="16.25" class="up-body"/>
<line x1="248.69" y1="464.08" x2="248.69" y2="480.33" class="up-wick"/>
<rect x="244.69" y="473.81" width="8.00" height="1.00" class="up-body"/>
<line x1="264.23" y1="468.43" x2="264.23" y2="483.57" class="down-wick"/>
<rect x="260.23" y="473.81" width="8.00" height="4.14" class="down-body"/>
<line x1="279.77" y1="449.49" x2="279.77" y2="482.47" class="up-wick"/>
<rect x="275.77" y="452.82" width="8.00" height="25.08" class="up-body"/>
<line x1="295.31" y1="447.29" x2="295.31" y2="466.86" class="down-wick"/>
<rect x="291.31" y="452.82" width="8.00" height="2.20" class="down-body"/>
<line x1="310.85" y1="454.53" x2="310.85" y2="471.09" class="down-wick"/>
<rect x="306.85" y="455.02" width="8.00" height="15.96" class="down-body"/>
<line x1="326.38" y1="453.28" x2="326.38" y2="474.60" class="up-wick"/>
<rect x="322.38" y="461.56" width="8.00" height="9.41" class="up-body"/>
<line x1="341.92" y1="456.09" x2="341.92" y2="469.44" class="up-wick"/>
<rect x="337.92" y="459.39" width="8.00" height="2.17" class="up-body"/>
<line x1="357.46" y1="457.57" x2="357.46" y2="475.61" class="down-wick"/>
<rect x="353.46" y="459.45" width="8.00" height="8.98" class="down-body"/>
<line x1="373.00" y1="462.55" x2="373.00" y2="486.53" class="down-wick"/>
<rect x="369.00" y="468.40" width="8.00" height="15.20" class="down-body"/>
<line x1="388.54" y1="465.21" x2="388.54" y2="493.91" class="down-wick"/>
<rect x="384.54" y="483.60" width="8.00" height="8.05" class="down-body"/>
<line x1="404.08" y1="489.69" x2="404.08" y2="505.88" class="down-wick"/>
<rect x="400.08" y="491.54" width="8.00" height="4.11" class="down-body"/>
<line x1="419.62" y1="468.51" x2="419.62" y2="507.03" class="up-wick"/>
<rect x="415.62" y="469.70" width="8.00" height="25.92" class="up-body"/>
<line x1="435.15" y1="455.05" x2="435.15" y2="478.01" class="up-wick"/>
<rect x="431.15" y="459.91" width="8.00" height="9.79" class="up-body"/>
<line x1="450.69" y1="434.57" x2="450.69" y2="462.84" class="up-wick"/>
<rect x="446.69" y="438.68" width="8.00" height="21.23" class="up-body"/>
<line x1="466.23" y1="434.22" x2="466.23" y2="450.96" class="down-wick"/>
<rect x="462.23" y="438.68" width="8.00" height="1.80" class="down-body"/>
<line x1="481.77" y1="428.69" x2="481.77" y2="465.47" class="up-wick"/>
<rect x="477.77" y="434.17" width="8.00" height="6.28" class="up-body"/>
<line x1="497.31" y1="407.14" x2="497.31" y2="445.20" class="up-wick"/>
<rect x="493.31" y="408.62" width="8.00" height="25.54" class="up-body"/>
<line x1="512.85" y1="406.25" x2="512.85" y2="429.16" class="down-wick"/>
<rect x="508.85" y="408.48" width="8.00" height="19.46" class="down-body"/>
<line x1="528.38" y1="423.62" x2="528.38" y2="443.72" class="down-wick"/>
<rect x="524.38" y="427.94" width="8.00" height="7.47" class="down-body"/>
<line x1="543.92" y1="387.65" x2="543.92" y2="436.19" class="up-wick"/>
<rect x="539.92" y="394.55" width="8.00" height="40.98" class="up-body"/>
<line x1="559.46" y1="375.84" x2="559.46" y2="401.64" class="down-wick"/>
<rect x="555.46" y="394.34" width="8.00" height="5.36" class="down-body"/>
<line x1="575.00" y1="385.48" x2="575.00" y2="414.88" class="down-wick"/>
<rect x="571.00" y="399.70" width="8.00" height="8.40" class="down-body"/>
<line x1="590.54" y1="381.74" x2="590.54" y2="411.37" class="up-wick"/>
<rect x="586.54" y="392.34" width="8.00" height="15.76" class="up-body"/>
<line x1="606.08" y1="378.18" x2="606.08" y2="417.43" class="down-wick"/>
<rect x="602.08" y="392.34" width="8.00" height="16.77" class="down-body"/>
<line x1="621.62" y1="371.03" x2="621.62" y2="431.56" class="up-wick"/>
<rect x="617.62" y="378.79" width="8.00" height="30.12" class="up-body"/>
<line x1="637.15" y1="374.10" x2="637.15" y2="397.70" class="down-wick"/>
<rect x="633.15" y="378.79" width="8.00" height="3.30" class="down-body"/>
<line x1="652.69" y1="381.98" x2="652.69" y2="403.67" class="down-wick"/>
<rect x="648.69" y="382.09" width="8.00" height="1.65" class="down-body"/>
<line x1="668.23" y1="379.37" x2="668.23" y2="397.04" class="down-wick"/>
<rect x="664.23" y="383.74" width="8.00" height="4.49" class="down-body"/>
<line x1="683.77" y1="386.15" x2="683.77" y2="404.36" class="down-wick"/>
<rect x="679.77" y="388.23" width="8.00" height="4.66" class="down-body"/>
<line x1="699.31" y1="387.57" x2="699.31" y2="412.07" class="down-wick"/>
<rect x="695.31" y="392.90" width="8.00" height="18.13" class="down-body"/>
<line x1="714.85" y1="402.83" x2="714.85" y2="424.49" class="down-wick"/>
<rect x="710.85" y="410.97" width="8.00" height="12.97" class="down-body"/>
<line x1="730.38" y1="422.47" x2="730.38" y2="441.81" class="down-wick"/>
<rect x="726.38" y="423.94" width="8.00" height="6.57" class="down-body"/>
<line x1="745.92" y1="430.34" x2="745.92" y2="459.88" class="down-wick"/>
<rect x="741.92" y="430.52" width="8.00" height="18.80" class="down-body"/>
<line x1="761.46" y1="448.47" x2="761.46" y2="466.92" class="down-wick"/>
<rect x="757.46" y="449.31" width="8.00" height="9.04" class="down-body"/>
<line x1="777.00" y1="440.16" x2="777.00" y2="461.01" class="up-wick"/>
<rect x="773.00" y="445.17" width="8.00" height="13.18" class="up-body"/>
<line x1="792.54" y1="441.03" x2="792.54" y2="468.40" class="down-wick"/>
<rect x="788.54" y="445.14" width="8.00" height="14.57" class="down-body"/>
<line x1="808.08" y1="444.42" x2="808.08" y2="460.09" class="up-wick"/>
<rect x="804.08" y="452.56" width="8.00" height="7.15" class="up-body"/>
<line x1="823.62" y1="440.65" x2="823.62" y2="460.00" class="up-wick"/>
<rect x="819.62" y="447.37" width="8.00" height="5.18" class="up-body"/>
<line x1="839.15" y1="442.16" x2="839.15" y2="453.74" class="down-wick"/>
<rect x="835.15" y="447.37" width="8.00" height="1.77" class="down-body"/>
<line x1="854.69" y1="434.28" x2="854.69" y2="452.27" class="up-wick"/>
<rect x="850.69" y="435.93" width="8.00" height="13.21" class="up-body"/>
<line x1="870.23" y1="432.57" x2="870.23" y2="445.00" class="down-wick"/>
<rect x="866.23" y="435.93" width="8.00" height="6.52" class="down-body"/>
<line x1="885.77" y1="441.15" x2="885.77" y2="455.37" class="down-wick"/>
<rect x="881.77" y="442.42" width="8.00" height="1.51" class="down-body"/>
<line x1="901.31" y1="431.91" x2="901.31" y2="449.63" class="down-wick"/>
<rect x="897.31" y="443.93" width="8.00" height="1.59" class="down-body"/>
<line x1="916.85" y1="444.10" x2="916.85" y2="457.54" class="down-wick"/>
<rect x="912.85" y="445.52" width="8.00" height="11.06" class="down-body"/>
<line x1="932.38" y1="451.98" x2="932.38" y2="463.33" class="down-wick"/>
<rect x="928.38" y="456.67" width="8.00" height="2.90" class="down-body"/>
<line x1="947.92" y1="453.95" x2="947.92" y2="461.45" class="down-wick"/>
<rect x="943.92" y="459.57" width="8.00" height="1.62" class="down-body"/>
<line x1="963.46" y1="451.98" x2="963.46" y2="472.95" class="down-wick"/>
<rect x="959.46" y="461.19" width="8.00" height="2.64" class="down-body"/>
<line x1="979.00" y1="452.85" x2="979.00" y2="480.45" class="down-wick"/>
<rect x="975.00" y="458.96" width="8.00" height="16.80" class="down-body"/>
<line x1="994.54" y1="474.28" x2="994.54" y2="487.98" class="down-wick"/>
<rect x="990.54" y="475.29" width="8.00" height="11.76" class="down-body"/>
<line x1="1010.08" y1="474.89" x2="1010.08" y2="488.73" class="up-wick"/>
<rect x="1006.08" y="481.29" width="8.00" height="5.76" class="up-body"/>
<line x1="1025.62" y1="398.14" x2="1025.62" y2="486.21" class="up-wick"/>
<rect x="1021.62" y="409.87" width="8.00" height="71.42" class="up-body"/>
<line x1="1041.15" y1="359.24" x2="1041.15" y2="420.96" class="up-wick"/>
<rect x="1037.15" y="365.12" width="8.00" height="44.75" class="up-body"/>
<line x1="1056.69" y1="362.86" x2="1056.69" y2="384.81" class="down-wick"/>
<rect x="1052.69" y="365.15" width="8.00" height="19.32" class="down-body"/>
<line x1="1072.23" y1="365.38" x2="1072.23" y2="391.97" class="up-wick"/>
<rect x="1068.23" y="375.55" width="8.00" height="8.92" class="up-body"/>
<line x1="70" y1="448.59" x2="1080" y2="448.59" class="number-line"/>
<text x="1076" y="444.59" text-anchor="end" class="level-label">round 4560.00</text>
<line x1="70" y1="448.59" x2="1080" y2="448.59" class="entry-line"/>
<text x="1076" y="444.59" text-anchor="end" class="level-label">entry level 4560.00</text>
<text x="70" y="556" class="axis-label">2026-05-05 08:30:00+00:00 to 2026-05-06 02:30:00+00:00</text>
<text x="1080" y="556" text-anchor="end" class="axis-label">4529.13 - 4595.42</text>
<text x="70" y="582" class="panel-title">M5 reaction / execution context</text>
<rect x="70" y="596" width="1010" height="192" class="plot-bg"/>
<line x1="80.52" y1="609.24" x2="80.52" y2="652.16" class="down-wick"/>
<rect x="76.52" y="614.08" width="8.00" height="13.58" class="down-body"/>
<line x1="101.56" y1="619.40" x2="101.56" y2="668.78" class="down-wick"/>
<rect x="97.56" y="627.66" width="8.00" height="26.11" class="down-body"/>
<line x1="122.60" y1="632.79" x2="122.60" y2="672.68" class="up-wick"/>
<rect x="118.60" y="635.64" width="8.00" height="18.14" class="up-body"/>
<line x1="143.65" y1="635.07" x2="143.65" y2="660.71" class="down-wick"/>
<rect x="139.65" y="635.64" width="8.00" height="16.90" class="down-body"/>
<line x1="164.69" y1="641.53" x2="164.69" y2="679.70" class="down-wick"/>
<rect x="160.69" y="652.64" width="8.00" height="26.49" class="down-body"/>
<line x1="185.73" y1="676.38" x2="185.73" y2="731.93" class="down-wick"/>
<rect x="181.73" y="679.13" width="8.00" height="18.14" class="down-body"/>
<line x1="206.77" y1="694.52" x2="206.77" y2="755.01" class="down-wick"/>
<rect x="202.77" y="697.27" width="8.00" height="17.66" class="down-body"/>
<line x1="227.81" y1="701.64" x2="227.81" y2="736.20" class="down-wick"/>
<rect x="223.81" y="714.93" width="8.00" height="18.90" class="down-body"/>
<line x1="248.85" y1="707.24" x2="248.85" y2="734.87" class="up-wick"/>
<rect x="244.85" y="726.90" width="8.00" height="6.74" class="up-body"/>
<line x1="269.90" y1="713.22" x2="269.90" y2="735.63" class="up-wick"/>
<rect x="265.90" y="719.97" width="8.00" height="6.93" class="up-body"/>
<line x1="290.94" y1="691.10" x2="290.94" y2="720.16" class="up-wick"/>
<rect x="286.94" y="693.47" width="8.00" height="26.21" class="up-body"/>
<line x1="311.98" y1="667.26" x2="311.98" y2="695.18" class="up-wick"/>
<rect x="307.98" y="683.69" width="8.00" height="9.78" class="up-body"/>
<line x1="333.02" y1="670.11" x2="333.02" y2="706.96" class="down-wick"/>
<rect x="329.02" y="683.60" width="8.00" height="17.85" class="down-body"/>
<line x1="354.06" y1="697.08" x2="354.06" y2="757.76" class="down-wick"/>
<rect x="350.06" y="701.45" width="8.00" height="43.40" class="down-body"/>
<line x1="375.10" y1="730.60" x2="375.10" y2="759.85" class="up-wick"/>
<rect x="371.10" y="731.36" width="8.00" height="13.48" class="up-body"/>
<line x1="396.15" y1="686.73" x2="396.15" y2="732.60" class="up-wick"/>
<rect x="392.15" y="687.20" width="8.00" height="44.16" class="up-body"/>
<line x1="417.19" y1="681.22" x2="417.19" y2="703.54" class="down-wick"/>
<rect x="413.19" y="687.20" width="8.00" height="15.19" class="down-body"/>
<line x1="438.23" y1="693.57" x2="438.23" y2="718.54" class="down-wick"/>
<rect x="434.23" y="702.40" width="8.00" height="5.51" class="down-body"/>
<line x1="459.27" y1="678.56" x2="459.27" y2="732.31" class="up-wick"/>
<rect x="455.27" y="681.89" width="8.00" height="26.02" class="up-body"/>
<line x1="480.31" y1="668.88" x2="480.31" y2="696.42" class="down-wick"/>
<rect x="476.31" y="681.89" width="8.00" height="5.32" class="down-body"/>
<line x1="501.35" y1="672.87" x2="501.35" y2="691.10" class="down-wick"/>
<rect x="497.35" y="687.20" width="8.00" height="3.70" class="down-body"/>
<line x1="522.40" y1="673.81" x2="522.40" y2="697.27" class="up-wick"/>
<rect x="518.40" y="674.95" width="8.00" height="15.95" class="up-body"/>
<line x1="543.44" y1="675.05" x2="543.44" y2="711.80" class="down-wick"/>
<rect x="539.44" y="675.05" width="8.00" height="32.00" class="down-body"/>
<line x1="564.48" y1="692.52" x2="564.48" y2="709.90" class="up-wick"/>
<rect x="560.48" y="696.70" width="8.00" height="10.16" class="up-body"/>
<line x1="585.52" y1="682.93" x2="585.52" y2="706.96" class="down-wick"/>
<rect x="581.52" y="696.70" width="8.00" height="1.99" class="down-body"/>
<line x1="606.56" y1="675.62" x2="606.56" y2="698.79" class="up-wick"/>
<rect x="602.56" y="685.88" width="8.00" height="12.82" class="up-body"/>
<line x1="627.60" y1="647.99" x2="627.60" y2="695.37" class="up-wick"/>
<rect x="623.60" y="653.40" width="8.00" height="32.48" class="up-body"/>
<line x1="648.65" y1="642.38" x2="648.65" y2="671.06" class="down-wick"/>
<rect x="644.65" y="653.40" width="8.00" height="17.38" class="down-body"/>
<line x1="669.69" y1="660.90" x2="669.69" y2="683.12" class="down-wick"/>
<rect x="665.69" y="670.78" width="8.00" height="4.94" class="down-body"/>
<line x1="690.73" y1="664.32" x2="690.73" y2="681.13" class="up-wick"/>
<rect x="686.73" y="674.76" width="8.00" height="1.00" class="up-body"/>
<line x1="711.77" y1="670.59" x2="711.77" y2="705.82" class="down-wick"/>
<rect x="707.77" y="674.67" width="8.00" height="30.58" class="down-body"/>
<line x1="732.81" y1="695.18" x2="732.81" y2="708.95" class="up-wick"/>
<rect x="728.81" y="698.22" width="8.00" height="7.03" class="up-body"/>
<line x1="753.85" y1="670.49" x2="753.85" y2="717.12" class="up-wick"/>
<rect x="749.85" y="679.61" width="8.00" height="18.61" class="up-body"/>
<line x1="774.90" y1="640.20" x2="774.90" y2="680.56" class="up-wick"/>
<rect x="770.90" y="668.12" width="8.00" height="11.49" class="up-body"/>
<line x1="795.94" y1="662.51" x2="795.94" y2="690.24" class="down-wick"/>
<rect x="791.94" y="668.12" width="8.00" height="20.32" class="down-body"/>
<line x1="816.98" y1="681.03" x2="816.98" y2="698.31" class="up-wick"/>
<rect x="812.98" y="684.83" width="8.00" height="3.61" class="up-body"/>
<line x1="838.02" y1="680.18" x2="838.02" y2="711.32" class="down-wick"/>
<rect x="834.02" y="684.83" width="8.00" height="21.08" class="down-body"/>
<line x1="859.06" y1="692.81" x2="859.06" y2="716.93" class="down-wick"/>
<rect x="855.06" y="705.82" width="8.00" height="9.78" class="down-body"/>
<line x1="880.10" y1="705.15" x2="880.10" y2="724.24" class="down-wick"/>
<rect x="876.10" y="715.60" width="8.00" height="5.51" class="down-body"/>
<line x1="901.15" y1="708.19" x2="901.15" y2="743.23" class="up-wick"/>
<rect x="897.15" y="711.13" width="8.00" height="10.26" class="up-body"/>
<line x1="922.19" y1="706.01" x2="922.19" y2="725.76" class="down-wick"/>
<rect x="918.19" y="711.13" width="8.00" height="10.64" class="down-body"/>
<line x1="943.23" y1="720.63" x2="943.23" y2="737.06" class="down-wick"/>
<rect x="939.23" y="721.96" width="8.00" height="8.93" class="down-body"/>
<line x1="964.27" y1="718.45" x2="964.27" y2="731.65" class="up-wick"/>
<rect x="960.27" y="728.80" width="8.00" height="2.09" class="up-body"/>
<line x1="985.31" y1="712.46" x2="985.31" y2="736.01" class="up-wick"/>
<rect x="981.31" y="724.05" width="8.00" height="4.75" class="up-body"/>
<line x1="1006.35" y1="722.34" x2="1006.35" y2="737.06" class="down-wick"/>
<rect x="1002.35" y="724.05" width="8.00" height="12.16" class="down-body"/>
<line x1="1027.40" y1="706.01" x2="1027.40" y2="742.28" class="up-wick"/>
<rect x="1023.40" y="706.86" width="8.00" height="29.34" class="up-body"/>
<line x1="1048.44" y1="707.05" x2="1048.44" y2="749.50" class="down-wick"/>
<rect x="1044.44" y="707.05" width="8.00" height="35.90" class="down-body"/>
<line x1="1069.48" y1="736.68" x2="1069.48" y2="774.76" class="down-wick"/>
<rect x="1065.48" y="742.95" width="8.00" height="1.90" class="down-body"/>
<line x1="70" y1="694.90" x2="1080" y2="694.90" class="number-line"/>
<text x="1076" y="690.90" text-anchor="end" class="level-label">round 4560.00</text>
<line x1="70" y1="694.90" x2="1080" y2="694.90" class="entry-line"/>
<text x="1076" y="690.90" text-anchor="end" class="level-label">entry level 4560.00</text>
<text x="70" y="806" class="axis-label">2026-05-05 19:00:00+00:00 to 2026-05-05 22:55:00+00:00</text>
<text x="1080" y="806" text-anchor="end" class="axis-label">4550.20 - 4570.41</text>
<text x="70" y="832" class="panel-title">M1 execution window</text>
<rect x="70" y="846" width="1010" height="192" class="plot-bg"/>
<line x1="74.21" y1="859.24" x2="74.21" y2="877.66" class="down-wick"/>
<rect x="71.47" y="864.08" width="5.47" height="11.21" class="down-body"/>
<line x1="82.62" y1="871.02" x2="82.62" y2="882.60" class="down-wick"/>
<rect x="79.89" y="872.06" width="5.47" height="3.80" class="down-body"/>
<line x1="91.04" y1="874.91" x2="91.04" y2="902.16" class="up-wick"/>
<rect x="88.31" y="877.66" width="5.47" height="16.62" class="up-body"/>
<line x1="99.46" y1="890.67" x2="99.46" y2="910.52" class="down-wick"/>
<rect x="96.72" y="891.43" width="5.47" height="17.66" class="down-body"/>
<line x1="107.88" y1="901.50" x2="107.88" y2="918.59" class="down-wick"/>
<rect x="105.14" y="912.42" width="5.47" height="1.00" class="down-body"/>
<line x1="116.29" y1="903.40" x2="116.29" y2="922.68" class="down-wick"/>
<rect x="113.56" y="903.78" width="5.47" height="4.37" class="down-body"/>
<line x1="124.71" y1="902.92" x2="124.71" y2="915.46" class="up-wick"/>
<rect x="121.97" y="904.73" width="5.47" height="9.50" class="up-body"/>
<line x1="133.12" y1="882.79" x2="133.12" y2="892.19" class="up-wick"/>
<rect x="130.39" y="885.64" width="5.47" height="1.42" class="up-body"/>
<line x1="141.54" y1="896.56" x2="141.54" y2="910.14" class="up-wick"/>
<rect x="138.81" y="903.78" width="5.47" height="5.98" class="up-body"/>
<line x1="149.96" y1="894.19" x2="149.96" y2="908.91" class="down-wick"/>
<rect x="147.22" y="897.04" width="5.47" height="11.49" class="down-body"/>
<line x1="158.38" y1="895.61" x2="158.38" y2="910.14" class="up-wick"/>
<rect x="155.64" y="901.40" width="5.47" height="1.23" class="up-body"/>
<line x1="166.79" y1="891.91" x2="166.79" y2="904.63" class="down-wick"/>
<rect x="164.06" y="897.99" width="5.47" height="5.13" class="down-body"/>
<line x1="175.21" y1="908.53" x2="175.21" y2="929.70" class="down-wick"/>
<rect x="172.47" y="911.00" width="5.47" height="18.14" class="down-body"/>
<line x1="183.62" y1="958.10" x2="183.62" y2="975.57" class="up-wick"/>
<rect x="180.89" y="961.70" width="5.47" height="8.74" class="up-body"/>
<line x1="192.04" y1="952.78" x2="192.04" y2="981.93" class="up-wick"/>
<rect x="189.31" y="953.44" width="5.47" height="17.76" class="up-body"/>
<line x1="200.46" y1="944.52" x2="200.46" y2="972.34" class="down-wick"/>
<rect x="197.72" y="947.27" width="5.47" height="24.97" class="down-body"/>
<line x1="208.88" y1="989.24" x2="208.88" y2="1004.82" class="down-wick"/>
<rect x="206.14" y="994.09" width="5.47" height="2.47" class="down-body"/>
<line x1="217.29" y1="963.79" x2="217.29" y2="986.58" class="up-wick"/>
<rect x="214.56" y="964.93" width="5.47" height="18.71" class="up-body"/>
<line x1="225.71" y1="951.64" x2="225.71" y2="970.82" class="down-wick"/>
<rect x="222.97" y="960.47" width="5.47" height="8.83" class="down-body"/>
<line x1="234.12" y1="960.47" x2="234.12" y2="973.67" class="up-wick"/>
<rect x="231.39" y="967.59" width="5.47" height="2.56" class="up-body"/>
<line x1="242.54" y1="961.89" x2="242.54" y2="984.87" class="up-wick"/>
<rect x="239.81" y="976.61" width="5.47" height="7.03" class="up-body"/>
<line x1="250.96" y1="957.24" x2="250.96" y2="972.53" class="up-wick"/>
<rect x="248.22" y="965.69" width="5.47" height="1.61" class="up-body"/>
<line x1="259.38" y1="957.24" x2="259.38" y2="978.80" class="down-wick"/>
<rect x="256.64" y="966.64" width="5.47" height="10.26" class="down-body"/>
<line x1="267.79" y1="963.22" x2="267.79" y2="980.13" class="down-wick"/>
<rect x="265.06" y="963.22" width="5.47" height="14.72" class="down-body"/>
<line x1="276.21" y1="970.63" x2="276.21" y2="985.06" class="up-wick"/>
<rect x="273.47" y="972.53" width="5.47" height="3.70" class="up-body"/>
<line x1="284.62" y1="951.73" x2="284.62" y2="970.16" class="up-wick"/>
<rect x="281.89" y="952.11" width="5.47" height="17.57" class="up-body"/>
<line x1="293.04" y1="948.41" x2="293.04" y2="958.95" class="down-wick"/>
<rect x="290.31" y="953.73" width="5.47" height="1.33" class="down-body"/>
<line x1="301.46" y1="941.10" x2="301.46" y2="950.31" class="up-wick"/>
<rect x="298.72" y="943.47" width="5.47" height="5.98" class="up-body"/>
<line x1="309.88" y1="928.28" x2="309.88" y2="937.77" class="down-wick"/>
<rect x="307.14" y="929.89" width="5.47" height="4.56" class="down-body"/>
<line x1="318.29" y1="917.26" x2="318.29" y2="929.70" class="up-wick"/>
<rect x="315.56" y="925.33" width="5.47" height="4.37" class="up-body"/>
<line x1="326.71" y1="932.55" x2="326.71" y2="947.75" class="up-wick"/>
<rect x="323.97" y="932.74" width="5.47" height="1.00" class="up-body"/>
<line x1="335.12" y1="925.62" x2="335.12" y2="948.50" class="down-wick"/>
<rect x="332.39" y="925.71" width="5.47" height="18.80" class="down-body"/>
<line x1="343.54" y1="942.24" x2="343.54" y2="956.96" class="down-wick"/>
<rect x="340.81" y="942.24" width="5.47" height="9.21" class="down-body"/>
<line x1="351.96" y1="951.07" x2="351.96" y2="974.52" class="down-wick"/>
<rect x="349.22" y="952.30" width="5.47" height="21.18" class="down-body"/>
<line x1="360.38" y1="981.08" x2="360.38" y2="995.61" class="down-wick"/>
<rect x="357.64" y="982.79" width="5.47" height="12.63" class="down-body"/>
<line x1="368.79" y1="991.90" x2="368.79" y2="1009.85" class="down-wick"/>
<rect x="366.06" y="994.85" width="5.47" height="1.23" class="down-body"/>
<line x1="377.21" y1="985.63" x2="377.21" y2="1004.25" class="down-wick"/>
<rect x="374.47" y="985.63" width="5.47" height="18.52" class="down-body"/>
<line x1="385.62" y1="980.60" x2="385.62" y2="1004.63" class="up-wick"/>
<rect x="382.89" y="981.36" width="5.47" height="23.27" class="up-body"/>
<line x1="394.04" y1="973.29" x2="394.04" y2="980.70" class="up-wick"/>
<rect x="391.31" y="976.14" width="5.47" height="3.99" class="up-body"/>
<line x1="402.46" y1="941.76" x2="402.46" y2="968.73" class="up-wick"/>
<rect x="399.72" y="945.85" width="5.47" height="22.89" class="up-body"/>
<line x1="410.88" y1="931.22" x2="410.88" y2="946.13" class="up-wick"/>
<rect x="408.14" y="934.36" width="5.47" height="2.85" class="up-body"/>
<line x1="419.29" y1="937.68" x2="419.29" y2="947.65" class="up-wick"/>
<rect x="416.56" y="937.87" width="5.47" height="3.32" class="up-body"/>
<line x1="427.71" y1="934.17" x2="427.71" y2="953.54" class="down-wick"/>
<rect x="424.97" y="941.95" width="5.47" height="10.45" class="down-body"/>
<line x1="436.12" y1="952.87" x2="436.12" y2="968.54" class="down-wick"/>
<rect x="433.39" y="952.87" width="5.47" height="3.61" class="down-body"/>
<line x1="444.54" y1="945.66" x2="444.54" y2="960.85" class="down-wick"/>
<rect x="441.81" y="947.84" width="5.47" height="7.41" class="down-body"/>
<line x1="452.96" y1="955.06" x2="452.96" y2="967.78" class="down-wick"/>
<rect x="450.22" y="957.91" width="5.47" height="9.88" class="down-body"/>
<line x1="461.38" y1="960.47" x2="461.38" y2="980.98" class="up-wick"/>
<rect x="458.64" y="966.74" width="5.47" height="8.07" class="up-body"/>
<line x1="469.79" y1="928.56" x2="469.79" y2="959.52" class="up-wick"/>
<rect x="467.06" y="931.89" width="5.47" height="23.27" class="up-body"/>
<line x1="478.21" y1="918.88" x2="478.21" y2="939.86" class="up-wick"/>
<rect x="475.47" y="919.54" width="5.47" height="19.85" class="up-body"/>
<line x1="486.62" y1="930.37" x2="486.62" y2="945.47" class="down-wick"/>
<rect x="483.89" y="930.75" width="5.47" height="11.40" class="down-body"/>
<line x1="495.04" y1="922.87" x2="495.04" y2="940.24" class="up-wick"/>
<rect x="492.31" y="927.23" width="5.47" height="9.97" class="up-body"/>
<line x1="503.46" y1="925.05" x2="503.46" y2="934.36" class="down-wick"/>
<rect x="500.72" y="928.56" width="5.47" height="5.79" class="down-body"/>
<line x1="511.87" y1="934.83" x2="511.87" y2="941.10" class="down-wick"/>
<rect x="509.14" y="937.01" width="5.47" height="3.89" class="down-body"/>
<line x1="520.29" y1="938.82" x2="520.29" y2="947.27" class="down-wick"/>
<rect x="517.56" y="939.39" width="5.47" height="7.41" class="down-body"/>
<line x1="528.71" y1="931.60" x2="528.71" y2="944.33" class="up-wick"/>
<rect x="525.97" y="934.93" width="5.47" height="7.12" class="up-body"/>
<line x1="537.12" y1="925.05" x2="537.12" y2="947.65" class="down-wick"/>
<rect x="534.39" y="925.05" width="5.47" height="22.60" class="down-body"/>
<line x1="545.54" y1="937.87" x2="545.54" y2="952.40" class="down-wick"/>
<rect x="542.81" y="938.53" width="5.47" height="11.30" class="down-body"/>
<line x1="553.96" y1="951.73" x2="553.96" y2="961.80" class="down-wick"/>
<rect x="551.22" y="951.92" width="5.47" height="5.13" class="down-body"/>
<line x1="562.38" y1="950.69" x2="562.38" y2="958.29" class="up-wick"/>
<rect x="559.64" y="953.35" width="5.47" height="4.94" class="up-body"/>
<line x1="570.79" y1="942.52" x2="570.79" y2="955.72" class="up-wick"/>
<rect x="568.06" y="945.85" width="5.47" height="9.78" class="up-body"/>
<line x1="579.21" y1="935.40" x2="579.21" y2="951.64" class="up-wick"/>
<rect x="576.47" y="938.34" width="5.47" height="8.36" class="up-body"/>
<line x1="587.62" y1="932.93" x2="587.62" y2="940.34" class="up-wick"/>
<rect x="584.89" y="934.07" width="5.47" height="6.08" class="up-body"/>
<line x1="596.04" y1="943.66" x2="596.04" y2="956.96" class="down-wick"/>
<rect x="593.31" y="943.66" width="5.47" height="5.03" class="down-body"/>
<line x1="604.46" y1="933.50" x2="604.46" y2="942.81" class="up-wick"/>
<rect x="601.72" y="935.40" width="5.47" height="7.41" class="up-body"/>
<line x1="612.88" y1="930.18" x2="612.88" y2="933.69" class="down-wick"/>
<rect x="610.14" y="930.18" width="5.47" height="2.56" class="down-body"/>
<line x1="621.29" y1="932.93" x2="621.29" y2="939.39" class="up-wick"/>
<rect x="618.56" y="934.93" width="5.47" height="1.00" class="up-body"/>
<line x1="629.71" y1="931.51" x2="629.71" y2="945.37" class="up-wick"/>
<rect x="626.97" y="932.27" width="5.47" height="10.16" class="up-body"/>
<line x1="638.12" y1="897.99" x2="638.12" y2="926.19" class="up-wick"/>
<rect x="635.39" y="903.40" width="5.47" height="21.65" class="up-body"/>
<line x1="646.54" y1="906.15" x2="646.54" y2="917.07" class="down-wick"/>
<rect x="643.81" y="907.96" width="5.47" height="4.37" class="down-body"/>
<line x1="654.96" y1="903.78" x2="654.96" y2="915.84" class="up-wick"/>
<rect x="652.22" y="909.95" width="5.47" height="5.89" class="up-body"/>
<line x1="663.38" y1="912.13" x2="663.38" y2="924.00" class="up-wick"/>
<rect x="660.64" y="918.69" width="5.47" height="2.09" class="up-body"/>
<line x1="671.79" y1="913.75" x2="671.79" y2="925.33" class="down-wick"/>
<rect x="669.06" y="913.75" width="5.47" height="10.45" class="down-body"/>
<line x1="680.21" y1="925.71" x2="680.21" y2="933.12" class="up-wick"/>
<rect x="677.47" y="925.71" width="5.47" height="5.13" class="up-body"/>
<line x1="688.62" y1="914.32" x2="688.62" y2="924.48" class="up-wick"/>
<rect x="685.89" y="920.49" width="5.47" height="1.00" class="up-body"/>
<line x1="697.04" y1="917.45" x2="697.04" y2="924.57" class="down-wick"/>
<rect x="694.31" y="918.31" width="5.47" height="3.80" class="down-body"/>
<line x1="705.46" y1="920.59" x2="705.46" y2="932.27" class="down-wick"/>
<rect x="702.72" y="924.67" width="5.47" height="7.50" class="down-body"/>
<line x1="713.88" y1="925.14" x2="713.88" y2="946.61" class="down-wick"/>
<rect x="711.14" y="925.62" width="5.47" height="17.57" class="down-body"/>
<line x1="722.29" y1="944.33" x2="722.29" y2="955.82" class="down-wick"/>
<rect x="719.56" y="947.46" width="5.47" height="7.79" class="down-body"/>
<line x1="730.71" y1="945.28" x2="730.71" y2="956.29" class="down-wick"/>
<rect x="727.97" y="947.46" width="5.47" height="8.83" class="down-body"/>
<line x1="739.12" y1="948.03" x2="739.12" y2="956.96" class="up-wick"/>
<rect x="736.39" y="948.79" width="5.47" height="4.08" class="up-body"/>
<line x1="747.54" y1="947.75" x2="747.54" y2="961.42" class="down-wick"/>
<rect x="744.81" y="948.22" width="5.47" height="12.06" class="down-body"/>
<line x1="755.96" y1="943.19" x2="755.96" y2="953.63" class="up-wick"/>
<rect x="753.22" y="943.19" width="5.47" height="8.83" class="up-body"/>
<line x1="764.38" y1="920.49" x2="764.38" y2="936.25" class="up-wick"/>
<rect x="761.64" y="929.61" width="5.47" height="5.70" class="up-body"/>
<line x1="772.79" y1="890.77" x2="772.79" y2="917.93" class="up-wick"/>
<rect x="770.06" y="892.48" width="5.47" height="22.22" class="up-body"/>
<line x1="781.21" y1="902.35" x2="781.21" y2="914.13" class="down-wick"/>
<rect x="778.47" y="904.16" width="5.47" height="3.51" class="down-body"/>
<line x1="789.62" y1="912.51" x2="789.62" y2="919.92" class="up-wick"/>
<rect x="786.89" y="916.12" width="5.47" height="1.99" class="up-body"/>
<line x1="798.04" y1="922.96" x2="798.04" y2="930.08" class="down-wick"/>
<rect x="795.31" y="924.38" width="5.47" height="1.00" class="down-body"/>
<line x1="806.46" y1="933.41" x2="806.46" y2="940.24" class="down-wick"/>
<rect x="803.72" y="937.58" width="5.47" height="1.00" class="down-body"/>
<line x1="814.88" y1="941.10" x2="814.88" y2="948.31" class="up-wick"/>
<rect x="812.14" y="942.14" width="5.47" height="2.18" class="up-body"/>
<line x1="823.29" y1="935.31" x2="823.29" y2="943.66" class="up-wick"/>
<rect x="820.56" y="936.54" width="5.47" height="4.94" class="up-body"/>
<line x1="831.71" y1="930.18" x2="831.71" y2="944.23" class="down-wick"/>
<rect x="828.97" y="934.83" width="5.47" height="8.93" class="down-body"/>
<line x1="840.12" y1="939.67" x2="840.12" y2="953.16" class="down-wick"/>
<rect x="837.39" y="939.96" width="5.47" height="11.21" class="down-body"/>
<line x1="848.54" y1="948.98" x2="848.54" y2="961.32" class="down-wick"/>
<rect x="845.81" y="952.59" width="5.47" height="3.32" class="down-body"/>
<line x1="856.96" y1="943.19" x2="856.96" y2="954.58" class="up-wick"/>
<rect x="854.22" y="944.71" width="5.47" height="9.88" class="up-body"/>
<line x1="865.38" y1="942.81" x2="865.38" y2="963.70" class="down-wick"/>
<rect x="862.64" y="943.57" width="5.47" height="16.71" class="down-body"/>
<line x1="873.79" y1="962.56" x2="873.79" y2="972.15" class="down-wick"/>
<rect x="871.06" y="965.60" width="5.47" height="1.00" class="down-body"/>
<line x1="882.21" y1="966.55" x2="882.21" y2="974.24" class="down-wick"/>
<rect x="879.47" y="969.11" width="5.47" height="1.14" class="down-body"/>
<line x1="890.62" y1="963.98" x2="890.62" y2="972.06" class="down-wick"/>
<rect x="887.89" y="963.98" width="5.47" height="7.12" class="down-body"/>
<line x1="899.04" y1="978.51" x2="899.04" y2="985.92" class="down-wick"/>
<rect x="896.31" y="978.89" width="5.47" height="5.32" class="down-body"/>
<line x1="907.46" y1="978.99" x2="907.46" y2="990.67" class="up-wick"/>
<rect x="904.72" y="979.08" width="5.47" height="8.36" class="up-body"/>
<line x1="915.87" y1="956.01" x2="915.87" y2="967.40" class="down-wick"/>
<rect x="913.14" y="961.13" width="5.47" height="3.23" class="down-body"/>
<line x1="924.29" y1="964.27" x2="924.29" y2="971.39" class="down-wick"/>
<rect x="921.56" y="965.60" width="5.47" height="5.32" class="down-body"/>
<line x1="932.71" y1="968.35" x2="932.71" y2="975.76" class="down-wick"/>
<rect x="929.97" y="968.73" width="5.47" height="3.04" class="down-body"/>
<line x1="941.12" y1="970.82" x2="941.12" y2="983.36" class="down-wick"/>
<rect x="938.39" y="970.92" width="5.47" height="12.44" class="down-body"/>
<line x1="949.54" y1="974.52" x2="949.54" y2="983.74" class="up-wick"/>
<rect x="946.81" y="978.80" width="5.47" height="4.84" class="up-body"/>
<line x1="957.96" y1="969.21" x2="957.96" y2="980.89" class="up-wick"/>
<rect x="955.22" y="973.10" width="5.47" height="7.79" class="up-body"/>
<line x1="966.37" y1="971.68" x2="966.37" y2="979.94" class="up-wick"/>
<rect x="963.64" y="977.47" width="5.47" height="2.37" class="up-body"/>
<line x1="974.79" y1="975.66" x2="974.79" y2="981.27" class="up-wick"/>
<rect x="972.06" y="978.80" width="5.47" height="2.47" class="up-body"/>
<line x1="983.21" y1="973.48" x2="983.21" y2="980.41" class="up-wick"/>
<rect x="980.47" y="975.66" width="5.47" height="3.42" class="up-body"/>
<line x1="991.62" y1="969.78" x2="991.62" y2="986.01" class="down-wick"/>
<rect x="988.89" y="969.78" width="5.47" height="9.02" class="down-body"/>
<line x1="1000.04" y1="972.34" x2="1000.04" y2="979.94" class="down-wick"/>
<rect x="997.31" y="974.05" width="5.47" height="4.84" class="down-body"/>
<line x1="1008.46" y1="976.23" x2="1008.46" y2="983.64" class="down-wick"/>
<rect x="1005.72" y="976.23" width="5.47" height="7.31" class="down-body"/>
<line x1="1016.87" y1="980.98" x2="1016.87" y2="987.06" class="down-wick"/>
<rect x="1014.14" y="980.98" width="5.47" height="5.22" class="down-body"/>
<line x1="1025.29" y1="979.75" x2="1025.29" y2="986.96" class="down-wick"/>
<rect x="1022.56" y="981.46" width="5.47" height="5.51" class="down-body"/>
<line x1="1033.71" y1="967.02" x2="1033.71" y2="983.45" class="up-wick"/>
<rect x="1030.97" y="969.97" width="5.47" height="13.48" class="up-body"/>
<line x1="1042.12" y1="957.05" x2="1042.12" y2="983.74" class="down-wick"/>
<rect x="1039.39" y="957.05" width="5.47" height="21.18" class="down-body"/>
<line x1="1050.54" y1="986.11" x2="1050.54" y2="994.09" class="down-wick"/>
<rect x="1047.81" y="989.53" width="5.47" height="1.00" class="down-body"/>
<line x1="1058.96" y1="989.91" x2="1058.96" y2="999.50" class="down-wick"/>
<rect x="1056.22" y="991.52" width="5.47" height="1.42" class="down-body"/>
<line x1="1067.38" y1="997.69" x2="1067.38" y2="1017.54" class="down-wick"/>
<rect x="1064.64" y="1000.54" width="5.47" height="15.95" class="down-body"/>
<line x1="1075.79" y1="992.09" x2="1075.79" y2="1024.76" class="up-wick"/>
<rect x="1073.06" y="997.69" width="5.47" height="12.44" class="up-body"/>
<line x1="70" y1="944.90" x2="1080" y2="944.90" class="number-line"/>
<text x="1076" y="940.90" text-anchor="end" class="level-label">round 4560.00</text>
<line x1="70" y1="944.90" x2="1080" y2="944.90" class="entry-line"/>
<text x="1076" y="940.90" text-anchor="end" class="level-label">entry level 4560.00</text>
<text x="70" y="1056" class="axis-label">2026-05-05 19:00:00+00:00 to 2026-05-05 22:58:00+00:00</text>
<text x="1080" y="1056" text-anchor="end" class="axis-label">4550.20 - 4570.41</text>
</svg>