<svg xmlns="http://www.w3.org/2000/svg" width="1120" height="1054" viewBox="0 0 1120 1054">
<style>
text{font-family:Arial,Helvetica,sans-serif}.title{font-size:21px;font-weight:700;fill:#1f2937}.subtitle{font-size:12px;fill:#4b5563}.panel-title{font-size:15px;font-weight:700;fill:#111827}.muted{font-size:13px;fill:#6b7280}.plot-bg{fill:#f8fafc;stroke:#cbd5e1;stroke-width:1}.up-body{fill:#15803d;stroke:#14532d;stroke-width:.8}.down-body{fill:#b91c1c;stroke:#7f1d1d;stroke-width:.8}.up-wick{stroke:#14532d;stroke-width:1}.down-wick{stroke:#7f1d1d;stroke-width:1}.sweep-line{stroke:#7c3aed;stroke-width:1.6;stroke-dasharray:6 4}.number-line{stroke:#0f766e;stroke-width:1.4;stroke-dasharray:3 4}.entry-line{stroke:#2563eb;stroke-width:1.4}.sl-line{stroke:#dc2626;stroke-width:1.4}.tp-line{stroke:#16a34a;stroke-width:1.4}.level-label,.axis-label{font-size:11px;fill:#374151}
</style>
<text x="28" y="28" class="title">Adelin v2 visual review sample sample_259</text>
<text x="28" y="48" class="subtitle">Candidate windows are for visual labeling only and are not trade signals.</text>
<text x="560" y="48" class="subtitle" text-anchor="middle">M15_SWING_LOW_SWEEP_VISUAL_CANDIDATE | NUMBER_THEORY_LEVEL_NEAR | ROUND_LEVEL_ENTRY_METADATA_AVAILABLE</text>
<text x="70" y="82" class="panel-title">H1 liquidity context</text>
<rect x="70" y="96" width="1010" height="192" class="plot-bg"/>
<line x1="80.98" y1="116.27" x2="80.98" y2="126.59" class="up-wick"/>
<rect x="76.98" y="116.66" width="8.00" height="9.62" class="up-body"/>
<line x1="102.93" y1="109.24" x2="102.93" y2="122.19" class="down-wick"/>
<rect x="98.93" y="116.65" width="8.00" height="3.32" class="down-body"/>
<line x1="124.89" y1="118.22" x2="124.89" y2="128.75" class="down-wick"/>
<rect x="120.89" y="119.97" width="8.00" height="6.77" class="down-body"/>
<line x1="146.85" y1="126.10" x2="146.85" y2="134.39" class="down-wick"/>
<rect x="142.85" y="126.74" width="8.00" height="5.78" class="down-body"/>
<line x1="168.80" y1="124.99" x2="168.80" y2="134.64" class="up-wick"/>
<rect x="164.80" y="125.69" width="8.00" height="6.84" class="up-body"/>
<line x1="190.76" y1="119.50" x2="190.76" y2="128.17" class="up-wick"/>
<rect x="186.76" y="123.93" width="8.00" height="1.75" class="up-body"/>
<line x1="212.72" y1="123.60" x2="212.72" y2="141.03" class="down-wick"/>
<rect x="208.72" y="123.93" width="8.00" height="16.11" class="down-body"/>
<line x1="234.67" y1="138.45" x2="234.67" y2="157.90" class="down-wick"/>
<rect x="230.67" y="140.05" width="8.00" height="13.60" class="down-body"/>
<line x1="256.63" y1="149.51" x2="256.63" y2="159.79" class="down-wick"/>
<rect x="252.63" y="153.70" width="8.00" height="2.76" class="down-body"/>
<line x1="278.59" y1="140.79" x2="278.59" y2="156.82" class="up-wick"/>
<rect x="274.59" y="148.67" width="8.00" height="7.78" class="up-body"/>
<line x1="300.54" y1="144.14" x2="300.54" y2="156.26" class="down-wick"/>
<rect x="296.54" y="148.67" width="8.00" height="2.59" class="down-body"/>
<line x1="322.50" y1="149.95" x2="322.50" y2="176.25" class="down-wick"/>
<rect x="318.50" y="151.25" width="8.00" height="19.16" class="down-body"/>
<line x1="344.46" y1="165.97" x2="344.46" y2="174.10" class="up-wick"/>
<rect x="340.46" y="169.89" width="8.00" height="1.00" class="up-body"/>
<line x1="366.41" y1="166.58" x2="366.41" y2="172.15" class="down-wick"/>
<rect x="362.41" y="169.92" width="8.00" height="2.23" class="down-body"/>
<line x1="388.37" y1="160.89" x2="388.37" y2="183.45" class="up-wick"/>
<rect x="384.37" y="170.75" width="8.00" height="2.90" class="up-body"/>
<line x1="410.33" y1="167.49" x2="410.33" y2="182.71" class="down-wick"/>
<rect x="406.33" y="170.84" width="8.00" height="8.71" class="down-body"/>
<line x1="432.28" y1="177.27" x2="432.28" y2="217.16" class="down-wick"/>
<rect x="428.28" y="179.55" width="8.00" height="28.69" class="down-body"/>
<line x1="454.24" y1="182.28" x2="454.24" y2="214.52" class="up-wick"/>
<rect x="450.24" y="199.56" width="8.00" height="8.69" class="up-body"/>
<line x1="476.20" y1="190.60" x2="476.20" y2="208.08" class="down-wick"/>
<rect x="472.20" y="199.56" width="8.00" height="7.04" class="down-body"/>
<line x1="498.15" y1="202.05" x2="498.15" y2="213.20" class="down-wick"/>
<rect x="494.15" y="206.60" width="8.00" height="2.00" class="down-body"/>
<line x1="520.11" y1="201.12" x2="520.11" y2="209.27" class="up-wick"/>
<rect x="516.11" y="204.83" width="8.00" height="3.77" class="up-body"/>
<line x1="542.07" y1="201.55" x2="542.07" y2="221.74" class="down-wick"/>
<rect x="538.07" y="204.83" width="8.00" height="14.84" class="down-body"/>
<line x1="564.02" y1="219.65" x2="564.02" y2="258.03" class="down-wick"/>
<rect x="560.02" y="219.67" width="8.00" height="23.44" class="down-body"/>
<line x1="585.98" y1="239.91" x2="585.98" y2="274.76" class="down-wick"/>
<rect x="581.98" y="243.10" width="8.00" height="4.16" class="down-body"/>
<line x1="607.93" y1="230.04" x2="607.93" y2="247.51" class="up-wick"/>
<rect x="603.93" y="235.06" width="8.00" height="12.20" class="up-body"/>
<line x1="629.89" y1="220.20" x2="629.89" y2="242.22" class="up-wick"/>
<rect x="625.89" y="234.41" width="8.00" height="1.00" class="up-body"/>
<line x1="651.85" y1="227.08" x2="651.85" y2="237.64" class="up-wick"/>
<rect x="647.85" y="230.41" width="8.00" height="3.91" class="up-body"/>
<line x1="673.80" y1="180.02" x2="673.80" y2="230.41" class="up-wick"/>
<rect x="669.80" y="201.81" width="8.00" height="28.60" class="up-body"/>
<line x1="695.76" y1="172.30" x2="695.76" y2="212.76" class="up-wick"/>
<rect x="691.76" y="175.99" width="8.00" height="25.82" class="up-body"/>
<line x1="717.72" y1="174.13" x2="717.72" y2="195.92" class="down-wick"/>
<rect x="713.72" y="175.99" width="8.00" height="6.18" class="down-body"/>
<line x1="739.67" y1="167.00" x2="739.67" y2="182.43" class="up-wick"/>
<rect x="735.67" y="180.31" width="8.00" height="1.87" class="up-body"/>
<line x1="761.63" y1="173.74" x2="761.63" y2="209.09" class="down-wick"/>
<rect x="757.63" y="180.29" width="8.00" height="25.48" class="down-body"/>
<line x1="783.59" y1="198.55" x2="783.59" y2="208.69" class="up-wick"/>
<rect x="779.59" y="202.75" width="8.00" height="3.01" class="up-body"/>
<line x1="805.54" y1="186.24" x2="805.54" y2="203.95" class="up-wick"/>
<rect x="801.54" y="189.52" width="8.00" height="13.23" class="up-body"/>
<line x1="827.50" y1="178.93" x2="827.50" y2="195.72" class="up-wick"/>
<rect x="823.50" y="183.59" width="8.00" height="5.93" class="up-body"/>
<line x1="849.46" y1="183.18" x2="849.46" y2="198.17" class="down-wick"/>
<rect x="845.46" y="183.59" width="8.00" height="13.33" class="down-body"/>
<line x1="871.41" y1="192.91" x2="871.41" y2="200.76" class="up-wick"/>
<rect x="867.41" y="194.84" width="8.00" height="2.08" class="up-body"/>
<line x1="893.37" y1="188.19" x2="893.37" y2="206.42" class="up-wick"/>
<rect x="889.37" y="189.35" width="8.00" height="2.70" class="up-body"/>
<line x1="915.33" y1="183.76" x2="915.33" y2="190.69" class="up-wick"/>
<rect x="911.33" y="185.68" width="8.00" height="3.68" class="up-body"/>
<line x1="937.28" y1="184.25" x2="937.28" y2="214.16" class="down-wick"/>
<rect x="933.28" y="185.68" width="8.00" height="19.87" class="down-body"/>
<line x1="959.24" y1="203.06" x2="959.24" y2="220.27" class="down-wick"/>
<rect x="955.24" y="205.55" width="8.00" height="10.99" class="down-body"/>
<line x1="981.20" y1="201.73" x2="981.20" y2="220.82" class="up-wick"/>
<rect x="977.20" y="205.15" width="8.00" height="11.39" class="up-body"/>
<line x1="1003.15" y1="204.57" x2="1003.15" y2="213.24" class="down-wick"/>
<rect x="999.15" y="205.15" width="8.00" height="4.91" class="down-body"/>
<line x1="1025.11" y1="207.51" x2="1025.11" y2="215.41" class="down-wick"/>
<rect x="1021.11" y="210.06" width="8.00" height="3.58" class="down-body"/>
<line x1="1047.07" y1="203.07" x2="1047.07" y2="217.18" class="up-wick"/>
<rect x="1043.07" y="210.05" width="8.00" height="3.59" class="up-body"/>
<line x1="1069.02" y1="195.07" x2="1069.02" y2="211.18" class="up-wick"/>
<rect x="1065.02" y="195.82" width="8.00" height="14.23" class="up-body"/>
<line x1="70" y1="252.93" x2="1080" y2="252.93" class="sweep-line"/>
<text x="1076" y="248.93" text-anchor="end" class="level-label">sweep 4182.45</text>
<line x1="70" y1="243.16" x2="1080" y2="243.16" class="number-line"/>
<text x="1076" y="239.16" text-anchor="end" class="level-label">round 4220.00</text>
<line x1="70" y1="243.16" x2="1080" y2="243.16" class="entry-line"/>
<text x="1076" y="239.16" text-anchor="end" class="level-label">entry level 4220.00</text>
<text x="70" y="306" class="axis-label">2026-03-20 09:00:00+00:00 to 2026-03-24 08:00:00+00:00</text>
<text x="1080" y="306" text-anchor="end" class="axis-label">4047.62 - 4785.78</text>
<text x="70" y="332" class="panel-title">M15 liquidity / reaction context</text>
<rect x="70" y="346" width="1010" height="192" class="plot-bg"/>
<line x1="78.42" y1="366.80" x2="78.42" y2="392.02" class="up-wick"/>
<rect x="74.42" y="369.85" width="8.00" height="7.93" class="up-body"/>
<line x1="95.25" y1="359.24" x2="95.25" y2="371.48" class="up-wick"/>
<rect x="91.25" y="363.74" width="8.00" height="6.37" class="up-body"/>
<line x1="112.08" y1="362.87" x2="112.08" y2="371.03" class="down-wick"/>
<rect x="108.08" y="363.74" width="8.00" height="6.53" class="down-body"/>
<line x1="128.92" y1="367.17" x2="128.92" y2="376.66" class="down-wick"/>
<rect x="124.92" y="370.25" width="8.00" height="3.32" class="down-body"/>
<line x1="145.75" y1="368.83" x2="145.75" y2="378.58" class="down-wick"/>
<rect x="141.75" y="373.70" width="8.00" height="2.97" class="down-body"/>
<line x1="162.58" y1="372.95" x2="162.58" y2="379.60" class="down-wick"/>
<rect x="158.58" y="376.67" width="8.00" height="1.83" class="down-body"/>
<line x1="179.42" y1="376.42" x2="179.42" y2="383.40" class="up-wick"/>
<rect x="175.42" y="377.31" width="8.00" height="1.20" class="up-body"/>
<line x1="196.25" y1="375.39" x2="196.25" y2="390.96" class="down-wick"/>
<rect x="192.25" y="377.31" width="8.00" height="9.06" class="down-body"/>
<line x1="213.08" y1="383.05" x2="213.08" y2="401.11" class="down-wick"/>
<rect x="209.08" y="386.36" width="8.00" height="10.52" class="down-body"/>
<line x1="229.92" y1="393.55" x2="229.92" y2="409.08" class="down-wick"/>
<rect x="225.92" y="396.88" width="8.00" height="3.67" class="down-body"/>
<line x1="246.75" y1="396.91" x2="246.75" y2="437.16" class="down-wick"/>
<rect x="242.75" y="400.55" width="8.00" height="24.58" class="down-body"/>
<line x1="263.58" y1="421.83" x2="263.58" y2="441.03" class="down-wick"/>
<rect x="259.58" y="424.83" width="8.00" height="3.24" class="down-body"/>
<line x1="280.42" y1="402.19" x2="280.42" y2="437.19" class="up-wick"/>
<rect x="276.42" y="407.71" width="8.00" height="20.38" class="up-body"/>
<line x1="297.25" y1="394.28" x2="297.25" y2="408.02" class="up-wick"/>
<rect x="293.25" y="402.36" width="8.00" height="5.21" class="up-body"/>
<line x1="314.08" y1="390.34" x2="314.08" y2="404.51" class="up-wick"/>
<rect x="310.08" y="397.37" width="8.00" height="4.99" class="up-body"/>
<line x1="330.92" y1="396.93" x2="330.92" y2="417.84" class="down-wick"/>
<rect x="326.92" y="397.37" width="8.00" height="18.08" class="down-body"/>
<line x1="347.75" y1="402.43" x2="347.75" y2="417.13" class="up-wick"/>
<rect x="343.75" y="412.39" width="8.00" height="3.06" class="up-body"/>
<line x1="364.58" y1="404.38" x2="364.58" y2="413.03" class="up-wick"/>
<rect x="360.58" y="411.06" width="8.00" height="1.33" class="up-body"/>
<line x1="381.42" y1="410.51" x2="381.42" y2="422.30" class="down-wick"/>
<rect x="377.42" y="411.06" width="8.00" height="5.48" class="down-body"/>
<line x1="398.25" y1="416.54" x2="398.25" y2="427.83" class="down-wick"/>
<rect x="394.25" y="416.54" width="8.00" height="9.14" class="down-body"/>
<line x1="415.08" y1="419.07" x2="415.08" y2="430.45" class="down-wick"/>
<rect x="411.08" y="425.68" width="8.00" height="4.12" class="down-body"/>
<line x1="431.92" y1="423.74" x2="431.92" y2="430.77" class="up-wick"/>
<rect x="427.92" y="429.23" width="8.00" height="1.00" class="up-body"/>
<line x1="448.75" y1="424.17" x2="448.75" y2="435.28" class="down-wick"/>
<rect x="444.75" y="429.23" width="8.00" height="3.49" class="down-body"/>
<line x1="465.58" y1="425.84" x2="465.58" y2="434.62" class="up-wick"/>
<rect x="461.58" y="428.58" width="8.00" height="4.13" class="up-body"/>
<line x1="482.42" y1="421.93" x2="482.42" y2="428.58" class="up-wick"/>
<rect x="478.42" y="424.47" width="8.00" height="4.11" class="up-body"/>
<line x1="499.25" y1="421.84" x2="499.25" y2="425.44" class="up-wick"/>
<rect x="495.25" y="422.66" width="8.00" height="1.81" class="up-body"/>
<line x1="516.08" y1="417.71" x2="516.08" y2="425.81" class="up-wick"/>
<rect x="512.08" y="420.12" width="8.00" height="2.54" class="up-body"/>
<line x1="532.92" y1="419.66" x2="532.92" y2="429.56" class="down-wick"/>
<rect x="528.92" y="420.12" width="8.00" height="2.99" class="down-body"/>
<line x1="549.75" y1="418.34" x2="549.75" y2="423.65" class="up-wick"/>
<rect x="545.75" y="421.13" width="8.00" height="1.97" class="up-body"/>
<line x1="566.58" y1="420.58" x2="566.58" y2="429.03" class="down-wick"/>
<rect x="562.58" y="421.13" width="8.00" height="6.23" class="down-body"/>
<line x1="583.42" y1="427.37" x2="583.42" y2="440.97" class="down-wick"/>
<rect x="579.42" y="427.37" width="8.00" height="12.84" class="down-body"/>
<line x1="600.25" y1="438.51" x2="600.25" y2="447.69" class="down-wick"/>
<rect x="596.25" y="440.20" width="8.00" height="4.47" class="down-body"/>
<line x1="617.08" y1="444.66" x2="617.08" y2="459.68" class="down-wick"/>
<rect x="613.08" y="444.67" width="8.00" height="5.96" class="down-body"/>
<line x1="633.92" y1="444.81" x2="633.92" y2="471.47" class="down-wick"/>
<rect x="629.92" y="450.65" width="8.00" height="19.10" class="down-body"/>
<line x1="650.75" y1="467.54" x2="650.75" y2="493.03" class="down-wick"/>
<rect x="646.75" y="469.75" width="8.00" height="23.06" class="down-body"/>
<line x1="667.58" y1="474.91" x2="667.58" y2="500.45" class="up-wick"/>
<rect x="663.58" y="478.74" width="8.00" height="14.08" class="up-body"/>
<line x1="684.42" y1="478.04" x2="684.42" y2="514.16" class="down-wick"/>
<rect x="680.42" y="478.74" width="8.00" height="33.97" class="down-body"/>
<line x1="701.25" y1="501.52" x2="701.25" y2="524.76" class="up-wick"/>
<rect x="697.25" y="510.71" width="8.00" height="2.00" class="up-body"/>
<line x1="718.08" y1="480.22" x2="718.08" y2="513.06" class="up-wick"/>
<rect x="714.08" y="480.62" width="8.00" height="30.09" class="up-body"/>
<line x1="734.92" y1="474.10" x2="734.92" y2="491.49" class="down-wick"/>
<rect x="730.92" y="480.62" width="8.00" height="4.17" class="down-body"/>
<line x1="751.75" y1="465.32" x2="751.75" y2="485.15" class="up-wick"/>
<rect x="747.75" y="466.30" width="8.00" height="18.49" class="up-body"/>
<line x1="768.58" y1="465.17" x2="768.58" y2="482.10" class="down-wick"/>
<rect x="764.58" y="466.29" width="8.00" height="9.95" class="down-body"/>
<line x1="785.42" y1="459.76" x2="785.42" y2="477.85" class="up-wick"/>
<rect x="781.42" y="464.68" width="8.00" height="11.58" class="up-body"/>
<line x1="802.25" y1="460.08" x2="802.25" y2="478.94" class="down-wick"/>
<rect x="798.25" y="464.68" width="8.00" height="2.37" class="down-body"/>
<line x1="819.08" y1="460.24" x2="819.08" y2="468.88" class="up-wick"/>
<rect x="815.08" y="460.32" width="8.00" height="6.74" class="up-body"/>
<line x1="835.92" y1="447.06" x2="835.92" y2="460.83" class="up-wick"/>
<rect x="831.92" y="447.08" width="8.00" height="13.24" class="up-body"/>
<line x1="852.75" y1="445.45" x2="852.75" y2="476.92" class="down-wick"/>
<rect x="848.75" y="447.08" width="8.00" height="29.52" class="down-body"/>
<line x1="869.58" y1="464.81" x2="869.58" y2="477.45" class="up-wick"/>
<rect x="865.58" y="466.10" width="8.00" height="10.50" class="up-body"/>
<line x1="886.42" y1="458.99" x2="886.42" y2="469.82" class="up-wick"/>
<rect x="882.42" y="462.25" width="8.00" height="3.73" class="up-body"/>
<line x1="903.25" y1="458.07" x2="903.25" y2="465.11" class="up-wick"/>
<rect x="899.25" y="460.35" width="8.00" height="1.89" class="up-body"/>
<line x1="920.08" y1="460.13" x2="920.08" y2="470.80" class="down-wick"/>
<rect x="916.08" y="460.35" width="8.00" height="4.45" class="down-body"/>
<line x1="936.92" y1="455.46" x2="936.92" y2="467.53" class="up-wick"/>
<rect x="932.92" y="460.29" width="8.00" height="4.52" class="up-body"/>
<line x1="953.75" y1="387.05" x2="953.75" y2="460.29" class="up-wick"/>
<rect x="949.75" y="389.26" width="8.00" height="71.03" class="up-body"/>
<line x1="970.58" y1="387.63" x2="970.58" y2="427.76" class="down-wick"/>
<rect x="966.58" y="389.26" width="8.00" height="21.70" class="down-body"/>
<line x1="987.42" y1="398.59" x2="987.42" y2="416.91" class="up-wick"/>
<rect x="983.42" y="406.04" width="8.00" height="4.85" class="up-body"/>
<line x1="1004.25" y1="404.25" x2="1004.25" y2="425.33" class="down-wick"/>
<rect x="1000.25" y="406.04" width="8.00" height="12.69" class="down-body"/>
<line x1="1021.08" y1="418.17" x2="1021.08" y2="434.64" class="down-wick"/>
<rect x="1017.08" y="418.72" width="8.00" height="9.81" class="down-body"/>
<line x1="1037.92" y1="408.80" x2="1037.92" y2="428.70" class="up-wick"/>
<rect x="1033.92" y="414.50" width="8.00" height="14.04" class="up-body"/>
<line x1="1054.75" y1="394.90" x2="1054.75" y2="420.39" class="up-wick"/>
<rect x="1050.75" y="395.09" width="8.00" height="19.41" class="up-body"/>
<line x1="1071.58" y1="375.82" x2="1071.58" y2="398.18" class="up-wick"/>
<rect x="1067.58" y="381.19" width="8.00" height="13.91" class="up-body"/>
<line x1="70" y1="493.03" x2="1080" y2="493.03" class="sweep-line"/>
<text x="1076" y="489.03" text-anchor="end" class="level-label">sweep 4182.45</text>
<line x1="70" y1="478.83" x2="1080" y2="478.83" class="number-line"/>
<text x="1076" y="474.83" text-anchor="end" class="level-label">round 4220.00</text>
<line x1="70" y1="478.83" x2="1080" y2="478.83" class="entry-line"/>
<text x="1076" y="474.83" text-anchor="end" class="level-label">entry level 4220.00</text>
<text x="70" y="556" class="axis-label">2026-03-23 00:00:00+00:00 to 2026-03-23 14:45:00+00:00</text>
<text x="1080" y="556" text-anchor="end" class="axis-label">4063.51 - 4571.31</text>
<text x="70" y="582" class="panel-title">M5 reaction / execution context</text>
<rect x="70" y="596" width="1010" height="192" class="plot-bg"/>
<line x1="79.18" y1="609.24" x2="79.18" y2="615.55" class="down-wick"/>
<rect x="75.18" y="610.12" width="8.00" height="2.43" class="down-body"/>
<line x1="97.55" y1="612.56" x2="97.55" y2="621.15" class="down-wick"/>
<rect x="93.55" y="612.56" width="8.00" height="8.49" class="down-body"/>
<line x1="115.91" y1="618.18" x2="115.91" y2="622.68" class="up-wick"/>
<rect x="111.91" y="620.03" width="8.00" height="1.02" class="up-body"/>
<line x1="134.27" y1="620.03" x2="134.27" y2="640.86" class="down-wick"/>
<rect x="130.27" y="620.03" width="8.00" height="13.83" class="down-body"/>
<line x1="152.64" y1="629.55" x2="152.64" y2="640.31" class="down-wick"/>
<rect x="148.64" y="633.86" width="8.00" height="3.86" class="down-body"/>
<line x1="171.00" y1="636.15" x2="171.00" y2="641.64" class="down-wick"/>
<rect x="167.00" y="637.73" width="8.00" height="2.70" class="down-body"/>
<line x1="189.36" y1="637.73" x2="189.36" y2="642.13" class="down-wick"/>
<rect x="185.36" y="640.42" width="8.00" height="1.00" class="down-body"/>
<line x1="207.73" y1="639.17" x2="207.73" y2="651.43" class="down-wick"/>
<rect x="203.73" y="641.29" width="8.00" height="10.12" class="down-body"/>
<line x1="226.09" y1="640.32" x2="226.09" y2="652.32" class="up-wick"/>
<rect x="222.09" y="647.52" width="8.00" height="3.88" class="up-body"/>
<line x1="244.45" y1="647.50" x2="244.45" y2="662.17" class="down-wick"/>
<rect x="240.45" y="647.52" width="8.00" height="14.13" class="down-body"/>
<line x1="262.82" y1="661.65" x2="262.82" y2="671.37" class="down-wick"/>
<rect x="258.82" y="661.65" width="8.00" height="6.89" class="down-body"/>
<line x1="281.18" y1="656.35" x2="281.18" y2="670.86" class="up-wick"/>
<rect x="277.18" y="657.00" width="8.00" height="11.55" class="up-body"/>
<line x1="299.55" y1="647.74" x2="299.55" y2="667.31" class="down-wick"/>
<rect x="295.55" y="657.02" width="8.00" height="5.51" class="down-body"/>
<line x1="317.91" y1="662.49" x2="317.91" y2="670.75" class="down-wick"/>
<rect x="313.91" y="662.52" width="8.00" height="6.08" class="down-body"/>
<line x1="336.27" y1="664.07" x2="336.27" y2="690.10" class="down-wick"/>
<rect x="332.27" y="668.63" width="8.00" height="18.74" class="down-body"/>
<line x1="354.64" y1="683.85" x2="354.64" y2="700.37" class="down-wick"/>
<rect x="350.64" y="687.37" width="8.00" height="4.00" class="down-body"/>
<line x1="373.00" y1="687.96" x2="373.00" y2="704.47" class="down-wick"/>
<rect x="369.00" y="691.37" width="8.00" height="1.76" class="down-body"/>
<line x1="391.36" y1="687.34" x2="391.36" y2="724.35" class="down-wick"/>
<rect x="387.36" y="693.13" width="8.00" height="30.88" class="down-body"/>
<line x1="409.73" y1="709.62" x2="409.73" y2="736.13" class="up-wick"/>
<rect x="405.73" y="709.64" width="8.00" height="14.37" class="up-body"/>
<line x1="428.09" y1="695.56" x2="428.09" y2="711.41" class="up-wick"/>
<rect x="424.09" y="706.19" width="8.00" height="3.45" class="up-body"/>
<line x1="446.45" y1="696.52" x2="446.45" y2="709.62" class="up-wick"/>
<rect x="442.45" y="701.65" width="8.00" height="4.54" class="up-body"/>
<line x1="464.82" y1="700.53" x2="464.82" y2="725.80" class="down-wick"/>
<rect x="460.82" y="701.65" width="8.00" height="23.98" class="down-body"/>
<line x1="483.18" y1="725.50" x2="483.18" y2="754.64" class="down-wick"/>
<rect x="479.18" y="725.63" width="8.00" height="13.45" class="down-body"/>
<line x1="501.55" y1="731.34" x2="501.55" y2="757.93" class="down-wick"/>
<rect x="497.55" y="739.02" width="8.00" height="16.60" class="down-body"/>
<line x1="519.91" y1="737.83" x2="519.91" y2="765.76" class="down-wick"/>
<rect x="515.91" y="755.61" width="8.00" height="8.04" class="down-body"/>
<line x1="538.27" y1="746.27" x2="538.27" y2="774.76" class="up-wick"/>
<rect x="534.27" y="755.45" width="8.00" height="8.20" class="up-body"/>
<line x1="556.64" y1="750.15" x2="556.64" y2="766.11" class="up-wick"/>
<rect x="552.64" y="752.44" width="8.00" height="3.02" class="up-body"/>
<line x1="575.00" y1="734.78" x2="575.00" y2="756.17" class="up-wick"/>
<rect x="571.00" y="740.25" width="8.00" height="12.19" class="up-body"/>
<line x1="593.36" y1="713.95" x2="593.36" y2="742.70" class="up-wick"/>
<rect x="589.36" y="725.60" width="8.00" height="14.65" class="up-body"/>
<line x1="611.73" y1="704.00" x2="611.73" y2="730.53" class="up-wick"/>
<rect x="607.73" y="704.64" width="8.00" height="20.96" class="up-body"/>
<line x1="630.09" y1="694.28" x2="630.09" y2="710.37" class="down-wick"/>
<rect x="626.09" y="704.64" width="8.00" height="1.00" class="down-body"/>
<line x1="648.45" y1="700.83" x2="648.45" y2="720.72" class="down-wick"/>
<rect x="644.45" y="704.92" width="8.00" height="9.76" class="down-body"/>
<line x1="666.82" y1="710.78" x2="666.82" y2="721.91" class="up-wick"/>
<rect x="662.82" y="711.26" width="8.00" height="3.41" class="up-body"/>
<line x1="685.18" y1="696.73" x2="685.18" y2="711.84" class="up-wick"/>
<rect x="681.18" y="701.98" width="8.00" height="9.27" class="up-body"/>
<line x1="703.55" y1="688.50" x2="703.55" y2="705.15" class="up-wick"/>
<rect x="699.55" y="693.68" width="8.00" height="8.33" class="up-body"/>
<line x1="721.91" y1="680.32" x2="721.91" y2="699.18" class="up-wick"/>
<rect x="717.91" y="681.88" width="8.00" height="11.80" class="up-body"/>
<line x1="740.27" y1="680.08" x2="740.27" y2="706.37" class="down-wick"/>
<rect x="736.27" y="681.87" width="8.00" height="20.08" class="down-body"/>
<line x1="758.64" y1="696.37" x2="758.64" y2="706.99" class="up-wick"/>
<rect x="754.64" y="701.31" width="8.00" height="1.00" class="up-body"/>
<line x1="777.00" y1="693.17" x2="777.00" y2="706.26" class="up-wick"/>
<rect x="773.00" y="697.68" width="8.00" height="3.66" class="up-body"/>
<line x1="795.36" y1="675.61" x2="795.36" y2="700.24" class="up-wick"/>
<rect x="791.36" y="675.82" width="8.00" height="21.89" class="up-body"/>
<line x1="813.73" y1="671.49" x2="813.73" y2="693.21" class="down-wick"/>
<rect x="809.73" y="675.82" width="8.00" height="15.08" class="down-body"/>
<line x1="832.09" y1="678.53" x2="832.09" y2="691.35" class="up-wick"/>
<rect x="828.09" y="679.31" width="8.00" height="11.60" class="up-body"/>
<line x1="850.45" y1="672.00" x2="850.45" y2="689.19" class="down-wick"/>
<rect x="846.45" y="679.31" width="8.00" height="9.37" class="down-body"/>
<line x1="868.82" y1="688.68" x2="868.82" y2="698.30" class="down-wick"/>
<rect x="864.82" y="688.68" width="8.00" height="7.79" class="down-body"/>
<line x1="887.18" y1="681.82" x2="887.18" y2="701.97" class="up-wick"/>
<rect x="883.18" y="683.09" width="8.00" height="13.38" class="up-body"/>
<line x1="905.55" y1="677.64" x2="905.55" y2="685.99" class="up-wick"/>
<rect x="901.55" y="681.57" width="8.00" height="1.52" class="up-body"/>
<line x1="923.91" y1="679.25" x2="923.91" y2="683.58" class="up-wick"/>
<rect x="919.91" y="681.11" width="8.00" height="1.00" class="up-body"/>
<line x1="942.27" y1="672.26" x2="942.27" y2="682.03" class="up-wick"/>
<rect x="938.27" y="672.38" width="8.00" height="8.73" class="up-body"/>
<line x1="960.64" y1="658.83" x2="960.64" y2="673.20" class="up-wick"/>
<rect x="956.64" y="660.39" width="8.00" height="11.98" class="up-body"/>
<line x1="979.00" y1="652.96" x2="979.00" y2="663.45" class="down-wick"/>
<rect x="975.00" y="660.39" width="8.00" height="1.00" class="down-body"/>
<line x1="997.36" y1="651.32" x2="997.36" y2="661.02" class="up-wick"/>
<rect x="993.36" y="651.34" width="8.00" height="9.05" class="up-body"/>
<line x1="1015.73" y1="648.76" x2="1015.73" y2="665.54" class="down-wick"/>
<rect x="1011.73" y="651.34" width="8.00" height="13.27" class="down-body"/>
<line x1="1034.09" y1="662.88" x2="1034.09" y2="690.01" class="down-wick"/>
<rect x="1030.09" y="664.75" width="8.00" height="24.60" class="down-body"/>
<line x1="1052.45" y1="684.08" x2="1052.45" y2="698.75" class="down-wick"/>
<rect x="1048.45" y="689.35" width="8.00" height="8.90" class="down-body"/>
<line x1="1070.82" y1="686.38" x2="1070.82" y2="699.60" class="up-wick"/>
<rect x="1066.82" y="691.19" width="8.00" height="7.06" class="up-body"/>
<line x1="70" y1="724.35" x2="1080" y2="724.35" class="sweep-line"/>
<text x="1076" y="720.35" text-anchor="end" class="level-label">sweep 4182.45</text>
<line x1="70" y1="701.79" x2="1080" y2="701.79" class="number-line"/>
<text x="1076" y="697.79" text-anchor="end" class="level-label">round 4220.00</text>
<line x1="70" y1="701.79" x2="1080" y2="701.79" class="entry-line"/>
<text x="1076" y="697.79" text-anchor="end" class="level-label">entry level 4220.00</text>
<text x="70" y="806" class="axis-label">2026-03-23 07:15:00+00:00 to 2026-03-23 11:45:00+00:00</text>
<text x="1080" y="806" text-anchor="end" class="axis-label">4076.49 - 4396.11</text>
<text x="70" y="832" class="panel-title">M1 execution window</text>
<rect x="70" y="846" width="1010" height="192" class="plot-bg"/>
<line x1="73.71" y1="859.79" x2="73.71" y2="862.01" class="down-wick"/>
<rect x="71.30" y="860.00" width="4.83" height="2.01" class="down-body"/>
<line x1="81.14" y1="859.24" x2="81.14" y2="862.49" class="down-wick"/>
<rect x="78.73" y="859.36" width="4.83" height="3.00" class="down-body"/>
<line x1="88.57" y1="861.83" x2="88.57" y2="865.49" class="up-wick"/>
<rect x="86.15" y="862.46" width="4.83" height="1.50" class="up-body"/>
<line x1="95.99" y1="863.72" x2="95.99" y2="866.36" class="down-wick"/>
<rect x="93.58" y="864.51" width="4.83" height="1.79" class="down-body"/>
<line x1="103.42" y1="866.92" x2="103.42" y2="869.38" class="down-wick"/>
<rect x="101.01" y="868.07" width="4.83" height="1.00" class="down-body"/>
<line x1="110.85" y1="869.36" x2="110.85" y2="871.23" class="up-wick"/>
<rect x="108.43" y="869.94" width="4.83" height="1.11" class="up-body"/>
<line x1="118.27" y1="870.55" x2="118.27" y2="872.70" class="up-wick"/>
<rect x="115.86" y="870.95" width="4.83" height="1.00" class="up-body"/>
<line x1="125.70" y1="868.71" x2="125.70" y2="870.35" class="down-wick"/>
<rect x="123.28" y="869.13" width="4.83" height="1.00" class="down-body"/>
<line x1="133.12" y1="884.02" x2="133.12" y2="888.52" class="down-wick"/>
<rect x="130.71" y="885.01" width="4.83" height="2.78" class="down-body"/>
<line x1="140.55" y1="887.20" x2="140.55" y2="891.10" class="down-wick"/>
<rect x="138.14" y="887.20" width="4.83" height="3.52" class="down-body"/>
<line x1="147.98" y1="880.99" x2="147.98" y2="884.58" class="up-wick"/>
<rect x="145.56" y="883.19" width="4.83" height="1.00" class="up-body"/>
<line x1="155.40" y1="880.40" x2="155.40" y2="884.48" class="up-wick"/>
<rect x="152.99" y="881.21" width="4.83" height="1.00" class="up-body"/>
<line x1="162.83" y1="887.23" x2="162.83" y2="890.54" class="down-wick"/>
<rect x="160.42" y="887.23" width="4.83" height="1.00" class="down-body"/>
<line x1="170.26" y1="887.50" x2="170.26" y2="891.80" class="up-wick"/>
<rect x="167.84" y="887.50" width="4.83" height="2.92" class="up-body"/>
<line x1="177.68" y1="888.32" x2="177.68" y2="891.73" class="down-wick"/>
<rect x="175.27" y="889.16" width="4.83" height="1.32" class="down-body"/>
<line x1="185.11" y1="890.66" x2="185.11" y2="892.38" class="down-wick"/>
<rect x="182.70" y="890.66" width="4.83" height="1.35" class="down-body"/>
<line x1="192.54" y1="889.76" x2="192.54" y2="892.23" class="up-wick"/>
<rect x="190.12" y="891.14" width="4.83" height="1.00" class="up-body"/>
<line x1="199.96" y1="887.93" x2="199.96" y2="891.63" class="down-wick"/>
<rect x="197.55" y="888.37" width="4.83" height="3.17" class="down-body"/>
<line x1="207.39" y1="891.08" x2="207.39" y2="895.22" class="down-wick"/>
<rect x="204.98" y="891.32" width="4.83" height="3.85" class="down-body"/>
<line x1="214.82" y1="897.77" x2="214.82" y2="900.45" class="down-wick"/>
<rect x="212.40" y="899.93" width="4.83" height="1.00" class="down-body"/>
<line x1="222.24" y1="895.97" x2="222.24" y2="902.70" class="up-wick"/>
<rect x="219.83" y="896.26" width="4.83" height="5.51" class="up-body"/>
<line x1="229.67" y1="890.55" x2="229.67" y2="893.44" class="up-wick"/>
<rect x="227.26" y="891.86" width="4.83" height="1.00" class="up-body"/>
<line x1="237.10" y1="896.09" x2="237.10" y2="897.86" class="down-wick"/>
<rect x="234.68" y="896.94" width="4.83" height="1.00" class="down-body"/>
<line x1="244.52" y1="901.57" x2="244.52" y2="903.94" class="down-wick"/>
<rect x="242.11" y="902.12" width="4.83" height="1.00" class="down-body"/>
<line x1="251.95" y1="906.68" x2="251.95" y2="911.80" class="up-wick"/>
<rect x="249.53" y="907.82" width="4.83" height="1.00" class="up-body"/>
<line x1="259.38" y1="912.14" x2="259.38" y2="918.14" class="down-wick"/>
<rect x="256.96" y="912.14" width="4.83" height="5.27" class="down-body"/>
<line x1="266.80" y1="914.11" x2="266.80" y2="921.98" class="up-wick"/>
<rect x="264.39" y="914.48" width="4.83" height="3.07" class="up-body"/>
<line x1="274.23" y1="916.31" x2="274.23" y2="920.51" class="up-wick"/>
<rect x="271.81" y="919.12" width="4.83" height="1.00" class="up-body"/>
<line x1="281.65" y1="917.74" x2="281.65" y2="921.46" class="down-wick"/>
<rect x="279.24" y="918.83" width="4.83" height="2.04" class="down-body"/>
<line x1="289.08" y1="915.98" x2="289.08" y2="919.47" class="down-wick"/>
<rect x="286.67" y="919.29" width="4.83" height="1.00" class="down-body"/>
<line x1="296.51" y1="898.06" x2="296.51" y2="907.54" class="up-wick"/>
<rect x="294.09" y="905.48" width="4.83" height="1.98" class="up-body"/>
<line x1="303.93" y1="909.38" x2="303.93" y2="916.86" class="down-wick"/>
<rect x="301.52" y="909.61" width="4.83" height="3.77" class="down-body"/>
<line x1="311.36" y1="912.35" x2="311.36" y2="917.86" class="up-wick"/>
<rect x="308.95" y="913.04" width="4.83" height="4.16" class="up-body"/>
<line x1="318.79" y1="916.43" x2="318.79" y2="919.69" class="up-wick"/>
<rect x="316.37" y="917.81" width="4.83" height="1.00" class="up-body"/>
<line x1="326.21" y1="917.48" x2="326.21" y2="920.10" class="down-wick"/>
<rect x="323.80" y="918.77" width="4.83" height="1.00" class="down-body"/>
<line x1="333.64" y1="914.59" x2="333.64" y2="920.20" class="up-wick"/>
<rect x="331.23" y="916.60" width="4.83" height="2.60" class="up-body"/>
<line x1="341.07" y1="917.62" x2="341.07" y2="924.07" class="down-wick"/>
<rect x="338.65" y="920.28" width="4.83" height="3.76" class="down-body"/>
<line x1="348.49" y1="932.85" x2="348.49" y2="940.93" class="down-wick"/>
<rect x="346.08" y="933.58" width="4.83" height="4.59" class="down-body"/>
<line x1="355.92" y1="934.60" x2="355.92" y2="946.69" class="up-wick"/>
<rect x="353.51" y="938.61" width="4.83" height="1.65" class="up-body"/>
<line x1="363.35" y1="945.71" x2="363.35" y2="950.71" class="up-wick"/>
<rect x="360.93" y="948.06" width="4.83" height="1.00" class="up-body"/>
<line x1="370.77" y1="939.89" x2="370.77" y2="946.09" class="down-wick"/>
<rect x="368.36" y="942.22" width="4.83" height="2.50" class="down-body"/>
<line x1="378.20" y1="948.65" x2="378.20" y2="955.47" class="down-wick"/>
<rect x="375.78" y="953.75" width="4.83" height="1.00" class="down-body"/>
<line x1="385.62" y1="938.77" x2="385.62" y2="944.82" class="up-wick"/>
<rect x="383.21" y="944.00" width="4.83" height="1.00" class="up-body"/>
<line x1="393.05" y1="940.73" x2="393.05" y2="945.51" class="down-wick"/>
<rect x="390.64" y="943.96" width="4.83" height="1.00" class="down-body"/>
<line x1="400.48" y1="952.50" x2="400.48" y2="970.28" class="down-wick"/>
<rect x="398.06" y="954.64" width="4.83" height="11.80" class="down-body"/>
<line x1="407.90" y1="965.09" x2="407.90" y2="976.09" class="up-wick"/>
<rect x="405.49" y="966.58" width="4.83" height="8.67" class="up-body"/>
<line x1="415.33" y1="971.36" x2="415.33" y2="987.52" class="down-wick"/>
<rect x="412.92" y="974.07" width="4.83" height="8.79" class="down-body"/>
<line x1="422.76" y1="960.68" x2="422.76" y2="973.09" class="up-wick"/>
<rect x="420.34" y="960.70" width="4.83" height="8.85" class="up-body"/>
<line x1="430.18" y1="948.19" x2="430.18" y2="956.18" class="up-wick"/>
<rect x="427.77" y="949.66" width="4.83" height="4.88" class="up-body"/>
<line x1="437.61" y1="947.32" x2="437.61" y2="952.07" class="down-wick"/>
<rect x="435.20" y="947.52" width="4.83" height="1.69" class="down-body"/>
<line x1="445.04" y1="947.43" x2="445.04" y2="957.77" class="up-wick"/>
<rect x="442.62" y="950.94" width="4.83" height="6.27" class="up-body"/>
<line x1="452.46" y1="947.64" x2="452.46" y2="951.44" class="up-wick"/>
<rect x="450.05" y="948.43" width="4.83" height="1.29" class="up-body"/>
<line x1="459.89" y1="950.93" x2="459.89" y2="960.69" class="up-wick"/>
<rect x="457.48" y="952.62" width="4.83" height="1.00" class="up-body"/>
<line x1="467.32" y1="957.33" x2="467.32" y2="974.28" class="down-wick"/>
<rect x="464.90" y="957.97" width="4.83" height="12.39" class="down-body"/>
<line x1="474.74" y1="963.63" x2="474.74" y2="972.88" class="down-wick"/>
<rect x="472.33" y="969.17" width="4.83" height="3.05" class="down-body"/>
<line x1="482.17" y1="976.75" x2="482.17" y2="983.46" class="down-wick"/>
<rect x="479.76" y="976.89" width="4.83" height="2.67" class="down-body"/>
<line x1="489.60" y1="984.99" x2="489.60" y2="994.75" class="up-wick"/>
<rect x="487.18" y="987.67" width="4.83" height="6.24" class="up-body"/>
<line x1="497.02" y1="988.79" x2="497.02" y2="999.47" class="up-wick"/>
<rect x="494.61" y="990.50" width="4.83" height="8.87" class="up-body"/>
<line x1="504.45" y1="986.53" x2="504.45" y2="1000.50" class="down-wick"/>
<rect x="502.03" y="986.62" width="4.83" height="10.52" class="down-body"/>
<line x1="511.88" y1="994.39" x2="511.88" y2="1004.89" class="down-wick"/>
<rect x="509.46" y="999.01" width="4.83" height="2.47" class="down-body"/>
<line x1="519.30" y1="1003.52" x2="519.30" y2="1012.45" class="down-wick"/>
<rect x="516.89" y="1007.23" width="4.83" height="1.67" class="down-body"/>
<line x1="526.73" y1="989.24" x2="526.73" y2="1004.14" class="up-wick"/>
<rect x="524.31" y="999.55" width="4.83" height="4.59" class="up-body"/>
<line x1="534.15" y1="1013.00" x2="534.15" y2="1017.50" class="up-wick"/>
<rect x="531.74" y="1015.37" width="4.83" height="1.00" class="up-body"/>
<line x1="541.58" y1="1016.63" x2="541.58" y2="1024.76" class="down-wick"/>
<rect x="539.17" y="1019.54" width="4.83" height="4.90" class="down-body"/>
<line x1="549.01" y1="1010.36" x2="549.01" y2="1023.55" class="up-wick"/>
<rect x="546.59" y="1011.89" width="4.83" height="9.37" class="up-body"/>
<line x1="556.43" y1="1006.22" x2="556.43" y2="1017.33" class="down-wick"/>
<rect x="554.02" y="1007.07" width="4.83" height="9.28" class="down-body"/>
<line x1="563.86" y1="1001.70" x2="563.86" y2="1014.99" class="up-wick"/>
<rect x="561.45" y="1014.00" width="4.83" height="1.00" class="up-body"/>
<line x1="571.29" y1="1002.95" x2="571.29" y2="1011.51" class="down-wick"/>
<rect x="568.87" y="1003.76" width="4.83" height="1.00" class="down-body"/>
<line x1="578.71" y1="993.31" x2="578.71" y2="1004.19" class="up-wick"/>
<rect x="576.30" y="997.57" width="4.83" height="6.62" class="up-body"/>
<line x1="586.14" y1="988.74" x2="586.14" y2="997.86" class="up-wick"/>
<rect x="583.73" y="989.29" width="4.83" height="8.12" class="up-body"/>
<line x1="593.57" y1="986.42" x2="593.57" y2="994.16" class="up-wick"/>
<rect x="591.15" y="986.62" width="4.83" height="5.06" class="up-body"/>
<line x1="600.99" y1="975.07" x2="600.99" y2="979.38" class="up-wick"/>
<rect x="598.58" y="976.59" width="4.83" height="1.00" class="up-body"/>
<line x1="608.42" y1="969.31" x2="608.42" y2="976.96" class="down-wick"/>
<rect x="606.01" y="969.35" width="4.83" height="7.51" class="down-body"/>
<line x1="615.85" y1="956.99" x2="615.85" y2="973.44" class="up-wick"/>
<rect x="613.43" y="963.33" width="4.83" height="10.11" class="up-body"/>
<line x1="623.27" y1="962.92" x2="623.27" y2="971.07" class="up-wick"/>
<rect x="620.86" y="964.40" width="4.83" height="6.23" class="up-body"/>
<line x1="630.70" y1="953.74" x2="630.70" y2="961.44" class="up-wick"/>
<rect x="628.28" y="953.99" width="4.83" height="1.65" class="up-body"/>
<line x1="638.12" y1="948.80" x2="638.12" y2="955.33" class="down-wick"/>
<rect x="635.71" y="949.52" width="4.83" height="1.52" class="down-body"/>
<line x1="645.55" y1="951.13" x2="645.55" y2="956.52" class="down-wick"/>
<rect x="643.14" y="951.28" width="4.83" height="4.65" class="down-body"/>
<line x1="652.98" y1="953.53" x2="652.98" y2="959.46" class="up-wick"/>
<rect x="650.56" y="955.68" width="4.83" height="2.41" class="up-body"/>
<line x1="660.40" y1="961.82" x2="660.40" y2="971.92" class="down-wick"/>
<rect x="657.99" y="964.85" width="4.83" height="6.21" class="down-body"/>
<line x1="667.83" y1="965.31" x2="667.83" y2="970.60" class="down-wick"/>
<rect x="665.42" y="965.80" width="4.83" height="3.00" class="down-body"/>
<line x1="675.26" y1="962.36" x2="675.26" y2="968.27" class="down-wick"/>
<rect x="672.84" y="965.46" width="4.83" height="1.70" class="down-body"/>
<line x1="682.68" y1="961.86" x2="682.68" y2="967.97" class="up-wick"/>
<rect x="680.27" y="962.34" width="4.83" height="3.70" class="up-body"/>
<line x1="690.11" y1="947.69" x2="690.11" y2="955.52" class="down-wick"/>
<rect x="687.70" y="949.11" width="4.83" height="5.83" class="down-body"/>
<line x1="697.54" y1="947.64" x2="697.54" y2="952.84" class="up-wick"/>
<rect x="695.12" y="947.77" width="4.83" height="2.61" class="up-body"/>
<line x1="704.96" y1="952.05" x2="704.96" y2="956.16" class="up-wick"/>
<rect x="702.55" y="952.85" width="4.83" height="1.00" class="up-body"/>
<line x1="712.39" y1="942.06" x2="712.39" y2="946.63" class="down-wick"/>
<rect x="709.98" y="942.38" width="4.83" height="3.06" class="down-body"/>
<line x1="719.82" y1="939.32" x2="719.82" y2="946.76" class="down-wick"/>
<rect x="717.40" y="940.99" width="4.83" height="3.56" class="down-body"/>
<line x1="727.24" y1="936.12" x2="727.24" y2="950.12" class="up-wick"/>
<rect x="724.83" y="936.56" width="4.83" height="8.97" class="up-body"/>
<line x1="734.67" y1="935.35" x2="734.67" y2="938.87" class="down-wick"/>
<rect x="732.26" y="935.50" width="4.83" height="1.00" class="down-body"/>
<line x1="742.10" y1="930.79" x2="742.10" y2="935.48" class="down-wick"/>
<rect x="739.68" y="932.60" width="4.83" height="1.00" class="down-body"/>
<line x1="749.52" y1="944.42" x2="749.52" y2="952.19" class="down-wick"/>
<rect x="747.11" y="944.60" width="4.83" height="7.57" class="down-body"/>
<line x1="756.95" y1="951.04" x2="756.95" y2="957.40" class="down-wick"/>
<rect x="754.53" y="952.87" width="4.83" height="1.00" class="down-body"/>
<line x1="764.38" y1="953.41" x2="764.38" y2="958.00" class="up-wick"/>
<rect x="761.96" y="955.12" width="4.83" height="1.99" class="up-body"/>
<line x1="771.80" y1="947.27" x2="771.80" y2="954.58" class="down-wick"/>
<rect x="769.39" y="949.70" width="4.83" height="4.52" class="down-body"/>
<line x1="779.23" y1="950.86" x2="779.23" y2="956.83" class="up-wick"/>
<rect x="776.81" y="951.64" width="4.83" height="1.00" class="up-body"/>
<line x1="786.65" y1="948.96" x2="786.65" y2="957.01" class="up-wick"/>
<rect x="784.24" y="950.19" width="4.83" height="6.81" class="up-body"/>
<line x1="794.08" y1="944.04" x2="794.08" y2="949.15" class="down-wick"/>
<rect x="791.67" y="947.62" width="4.83" height="1.00" class="down-body"/>
<line x1="801.51" y1="937.07" x2="801.51" y2="941.42" class="up-wick"/>
<rect x="799.09" y="938.91" width="4.83" height="2.35" class="up-body"/>
<line x1="808.93" y1="926.26" x2="808.93" y2="930.15" class="down-wick"/>
<rect x="806.52" y="929.10" width="4.83" height="1.00" class="down-body"/>
<line x1="816.36" y1="922.10" x2="816.36" y2="931.18" class="down-wick"/>
<rect x="813.95" y="926.48" width="4.83" height="4.57" class="down-body"/>
<line x1="823.79" y1="932.82" x2="823.79" y2="937.95" class="down-wick"/>
<rect x="821.37" y="933.47" width="4.83" height="3.69" class="down-body"/>
<line x1="831.21" y1="939.50" x2="831.21" y2="944.08" class="down-wick"/>
<rect x="828.80" y="940.25" width="4.83" height="1.50" class="down-body"/>
<line x1="838.64" y1="932.23" x2="838.64" y2="942.04" class="up-wick"/>
<rect x="836.23" y="932.37" width="4.83" height="9.67" class="up-body"/>
<line x1="846.07" y1="933.39" x2="846.07" y2="939.29" class="down-wick"/>
<rect x="843.65" y="933.70" width="4.83" height="3.60" class="down-body"/>
<line x1="853.49" y1="922.62" x2="853.49" y2="930.06" class="up-wick"/>
<rect x="851.08" y="924.61" width="4.83" height="5.40" class="up-body"/>
<line x1="860.92" y1="928.06" x2="860.92" y2="933.18" class="up-wick"/>
<rect x="858.51" y="930.91" width="4.83" height="1.27" class="up-body"/>
<line x1="868.35" y1="932.25" x2="868.35" y2="940.02" class="down-wick"/>
<rect x="865.93" y="932.74" width="4.83" height="6.75" class="down-body"/>
<line x1="875.77" y1="941.70" x2="875.77" y2="949.23" class="up-wick"/>
<rect x="873.36" y="944.99" width="4.83" height="1.57" class="up-body"/>
<line x1="883.20" y1="940.31" x2="883.20" y2="945.02" class="down-wick"/>
<rect x="880.78" y="942.73" width="4.83" height="1.12" class="down-body"/>
<line x1="890.62" y1="945.27" x2="890.62" y2="950.06" class="down-wick"/>
<rect x="888.21" y="947.38" width="4.83" height="2.38" class="down-body"/>
<line x1="898.05" y1="941.72" x2="898.05" y2="950.09" class="up-wick"/>
<rect x="895.64" y="942.31" width="4.83" height="7.79" class="up-body"/>
<line x1="905.48" y1="932.56" x2="905.48" y2="937.93" class="up-wick"/>
<rect x="903.06" y="933.83" width="4.83" height="3.65" class="up-body"/>
<line x1="912.90" y1="930.23" x2="912.90" y2="935.67" class="down-wick"/>
<rect x="910.49" y="930.40" width="4.83" height="4.67" class="down-body"/>
<line x1="920.33" y1="933.12" x2="920.33" y2="936.26" class="down-wick"/>
<rect x="917.92" y="933.81" width="4.83" height="1.00" class="down-body"/>
<line x1="927.76" y1="929.95" x2="927.76" y2="934.12" class="down-wick"/>
<rect x="925.34" y="932.28" width="4.83" height="1.00" class="down-body"/>
<line x1="935.18" y1="930.05" x2="935.18" y2="933.52" class="up-wick"/>
<rect x="932.77" y="931.30" width="4.83" height="2.21" class="up-body"/>
<line x1="942.61" y1="930.40" x2="942.61" y2="934.33" class="up-wick"/>
<rect x="940.20" y="931.83" width="4.83" height="1.98" class="up-body"/>
<line x1="950.04" y1="924.18" x2="950.04" y2="930.51" class="down-wick"/>
<rect x="947.62" y="926.65" width="4.83" height="1.12" class="down-body"/>
<line x1="957.46" y1="927.26" x2="957.46" y2="931.13" class="down-wick"/>
<rect x="955.05" y="927.57" width="4.83" height="1.36" class="down-body"/>
<line x1="964.89" y1="915.02" x2="964.89" y2="923.83" class="up-wick"/>
<rect x="962.48" y="916.33" width="4.83" height="6.66" class="up-body"/>
<line x1="972.32" y1="909.58" x2="972.32" y2="914.56" class="down-wick"/>
<rect x="969.90" y="911.03" width="4.83" height="2.40" class="down-body"/>
<line x1="979.74" y1="910.40" x2="979.74" y2="914.00" class="up-wick"/>
<rect x="977.33" y="910.87" width="4.83" height="2.40" class="up-body"/>
<line x1="987.17" y1="905.27" x2="987.17" y2="909.90" class="up-wick"/>
<rect x="984.76" y="905.86" width="4.83" height="3.82" class="up-body"/>
<line x1="994.60" y1="903.35" x2="994.60" y2="906.90" class="down-wick"/>
<rect x="992.18" y="905.34" width="4.83" height="1.10" class="down-body"/>
<line x1="1002.02" y1="906.56" x2="1002.02" y2="911.50" class="up-wick"/>
<rect x="999.61" y="910.13" width="4.83" height="1.00" class="up-body"/>
<line x1="1009.45" y1="903.49" x2="1009.45" y2="909.70" class="up-wick"/>
<rect x="1007.03" y="906.59" width="4.83" height="1.83" class="up-body"/>
<line x1="1016.88" y1="901.69" x2="1016.88" y2="907.56" class="up-wick"/>
<rect x="1014.46" y="901.71" width="4.83" height="5.27" class="up-body"/>
<line x1="1024.30" y1="900.03" x2="1024.30" y2="907.64" class="down-wick"/>
<rect x="1021.89" y="900.13" width="4.83" height="5.77" class="down-body"/>
<line x1="1031.73" y1="910.69" x2="1031.73" y2="915.64" class="down-wick"/>
<rect x="1029.31" y="911.72" width="4.83" height="1.08" class="down-body"/>
<line x1="1039.15" y1="914.35" x2="1039.15" y2="917.19" class="down-wick"/>
<rect x="1036.74" y="915.28" width="4.83" height="1.00" class="down-body"/>
<line x1="1046.58" y1="922.99" x2="1046.58" y2="930.28" class="down-wick"/>
<rect x="1044.17" y="923.87" width="4.83" height="3.58" class="down-body"/>
<line x1="1054.01" y1="930.85" x2="1054.01" y2="940.84" class="down-wick"/>
<rect x="1051.59" y="931.78" width="4.83" height="8.39" class="down-body"/>
<line x1="1061.43" y1="936.17" x2="1061.43" y2="944.36" class="up-wick"/>
<rect x="1059.02" y="937.41" width="4.83" height="5.50" class="up-body"/>
<line x1="1068.86" y1="939.05" x2="1068.86" y2="947.57" class="down-wick"/>
<rect x="1066.45" y="945.71" width="4.83" height="1.55" class="down-body"/>
<line x1="1076.29" y1="944.02" x2="1076.29" y2="950.55" class="up-wick"/>
<rect x="1073.87" y="944.02" width="4.83" height="5.16" class="up-body"/>
<line x1="70" y1="975.59" x2="1080" y2="975.59" class="sweep-line"/>
<text x="1076" y="971.59" text-anchor="end" class="level-label">sweep 4182.45</text>
<line x1="70" y1="952.76" x2="1080" y2="952.76" class="number-line"/>
<text x="1076" y="948.76" text-anchor="end" class="level-label">round 4220.00</text>
<line x1="70" y1="952.76" x2="1080" y2="952.76" class="entry-line"/>
<text x="1076" y="948.76" text-anchor="end" class="level-label">entry level 4220.00</text>
<text x="70" y="1056" class="axis-label">2026-03-23 07:15:00+00:00 to 2026-03-23 11:45:00+00:00</text>
<text x="1080" y="1056" text-anchor="end" class="axis-label">4079.79 - 4395.62</text>
</svg>