<svg xmlns="http://www.w3.org/2000/svg" width="1120" height="1054" viewBox="0 0 1120 1054">
<style>
text{font-family:Arial,Helvetica,sans-serif}.title{font-size:21px;font-weight:700;fill:#1f2937}.subtitle{font-size:12px;fill:#4b5563}.panel-title{font-size:15px;font-weight:700;fill:#111827}.muted{font-size:13px;fill:#6b7280}.plot-bg{fill:#f8fafc;stroke:#cbd5e1;stroke-width:1}.up-body{fill:#15803d;stroke:#14532d;stroke-width:.8}.down-body{fill:#b91c1c;stroke:#7f1d1d;stroke-width:.8}.up-wick{stroke:#14532d;stroke-width:1}.down-wick{stroke:#7f1d1d;stroke-width:1}.sweep-line{stroke:#7c3aed;stroke-width:1.6;stroke-dasharray:6 4}.number-line{stroke:#0f766e;stroke-width:1.4;stroke-dasharray:3 4}.entry-line{stroke:#2563eb;stroke-width:1.4}.sl-line{stroke:#dc2626;stroke-width:1.4}.tp-line{stroke:#16a34a;stroke-width:1.4}.level-label,.axis-label{font-size:11px;fill:#374151}
</style>
<text x="28" y="28" class="title">Adelin v2 visual review sample sample_027</text>
<text x="28" y="48" class="subtitle">Candidate windows are for visual labeling only and are not trade signals.</text>
<text x="560" y="48" class="subtitle" text-anchor="middle">M15_SWING_LOW_SWEEP_VISUAL_CANDIDATE | PRE_ANCHOR_SWEEP_EXTREME_CANDIDATE</text>
<text x="70" y="82" class="panel-title">H1 liquidity context</text>
<rect x="70" y="96" width="1010" height="192" class="plot-bg"/>
<line x1="80.98" y1="180.12" x2="80.98" y2="193.12" class="up-wick"/>
<rect x="76.98" y="182.95" width="8.00" height="6.51" class="up-body"/>
<line x1="102.93" y1="175.41" x2="102.93" y2="190.19" class="down-wick"/>
<rect x="98.93" y="182.95" width="8.00" height="4.31" class="down-body"/>
<line x1="124.89" y1="184.00" x2="124.89" y2="190.66" class="up-wick"/>
<rect x="120.89" y="184.96" width="8.00" height="2.22" class="up-body"/>
<line x1="146.85" y1="179.95" x2="146.85" y2="189.93" class="up-wick"/>
<rect x="142.85" y="180.62" width="8.00" height="4.34" class="up-body"/>
<line x1="168.80" y1="177.72" x2="168.80" y2="182.67" class="up-wick"/>
<rect x="164.80" y="178.67" width="8.00" height="1.96" class="up-body"/>
<line x1="190.76" y1="172.33" x2="190.76" y2="179.31" class="up-wick"/>
<rect x="186.76" y="173.18" width="8.00" height="5.48" class="up-body"/>
<line x1="212.72" y1="165.96" x2="212.72" y2="175.76" class="up-wick"/>
<rect x="208.72" y="166.88" width="8.00" height="6.30" class="up-body"/>
<line x1="234.67" y1="119.81" x2="234.67" y2="157.02" class="up-wick"/>
<rect x="230.67" y="122.45" width="8.00" height="9.82" class="up-body"/>
<line x1="256.63" y1="121.95" x2="256.63" y2="141.40" class="down-wick"/>
<rect x="252.63" y="122.45" width="8.00" height="16.26" class="down-body"/>
<line x1="278.59" y1="138.65" x2="278.59" y2="156.88" class="down-wick"/>
<rect x="274.59" y="138.75" width="8.00" height="9.15" class="down-body"/>
<line x1="300.54" y1="136.91" x2="300.54" y2="151.28" class="up-wick"/>
<rect x="296.54" y="139.09" width="8.00" height="8.80" class="up-body"/>
<line x1="322.50" y1="130.72" x2="322.50" y2="139.98" class="up-wick"/>
<rect x="318.50" y="130.89" width="8.00" height="8.20" class="up-body"/>
<line x1="344.46" y1="130.59" x2="344.46" y2="139.61" class="down-wick"/>
<rect x="340.46" y="130.89" width="8.00" height="4.32" class="down-body"/>
<line x1="366.41" y1="130.96" x2="366.41" y2="141.51" class="up-wick"/>
<rect x="362.41" y="131.05" width="8.00" height="4.16" class="up-body"/>
<line x1="388.37" y1="121.30" x2="388.37" y2="132.12" class="up-wick"/>
<rect x="384.37" y="122.24" width="8.00" height="8.80" class="up-body"/>
<line x1="410.33" y1="109.24" x2="410.33" y2="123.33" class="up-wick"/>
<rect x="406.33" y="113.81" width="8.00" height="8.43" class="up-body"/>
<line x1="432.28" y1="110.28" x2="432.28" y2="120.78" class="down-wick"/>
<rect x="428.28" y="113.81" width="8.00" height="5.76" class="down-body"/>
<line x1="454.24" y1="115.99" x2="454.24" y2="122.85" class="down-wick"/>
<rect x="450.24" y="119.58" width="8.00" height="1.00" class="down-body"/>
<line x1="476.20" y1="116.79" x2="476.20" y2="125.68" class="down-wick"/>
<rect x="472.20" y="120.35" width="8.00" height="1.12" class="down-body"/>
<line x1="498.15" y1="117.15" x2="498.15" y2="127.19" class="down-wick"/>
<rect x="494.15" y="121.47" width="8.00" height="1.67" class="down-body"/>
<line x1="520.11" y1="117.64" x2="520.11" y2="125.81" class="up-wick"/>
<rect x="516.11" y="118.29" width="8.00" height="4.87" class="up-body"/>
<line x1="542.07" y1="110.28" x2="542.07" y2="124.50" class="down-wick"/>
<rect x="538.07" y="118.29" width="8.00" height="1.34" class="down-body"/>
<line x1="564.02" y1="119.08" x2="564.02" y2="155.32" class="down-wick"/>
<rect x="560.02" y="119.63" width="8.00" height="24.76" class="down-body"/>
<line x1="585.98" y1="138.10" x2="585.98" y2="154.76" class="down-wick"/>
<rect x="581.98" y="144.39" width="8.00" height="7.28" class="down-body"/>
<line x1="607.93" y1="151.79" x2="607.93" y2="174.27" class="down-wick"/>
<rect x="603.93" y="151.79" width="8.00" height="10.38" class="down-body"/>
<line x1="629.89" y1="149.70" x2="629.89" y2="163.49" class="up-wick"/>
<rect x="625.89" y="155.36" width="8.00" height="6.82" class="up-body"/>
<line x1="651.85" y1="151.32" x2="651.85" y2="162.43" class="up-wick"/>
<rect x="647.85" y="151.79" width="8.00" height="3.54" class="up-body"/>
<line x1="673.80" y1="144.19" x2="673.80" y2="152.48" class="up-wick"/>
<rect x="669.80" y="145.68" width="8.00" height="6.12" class="up-body"/>
<line x1="695.76" y1="139.15" x2="695.76" y2="146.52" class="up-wick"/>
<rect x="691.76" y="144.82" width="8.00" height="1.00" class="up-body"/>
<line x1="717.72" y1="141.54" x2="717.72" y2="149.67" class="down-wick"/>
<rect x="713.72" y="144.82" width="8.00" height="4.71" class="down-body"/>
<line x1="739.67" y1="138.82" x2="739.67" y2="149.53" class="up-wick"/>
<rect x="735.67" y="139.29" width="8.00" height="10.24" class="up-body"/>
<line x1="761.63" y1="132.66" x2="761.63" y2="143.01" class="up-wick"/>
<rect x="757.63" y="137.53" width="8.00" height="1.76" class="up-body"/>
<line x1="783.59" y1="125.40" x2="783.59" y2="142.59" class="down-wick"/>
<rect x="779.59" y="137.53" width="8.00" height="4.50" class="down-body"/>
<line x1="805.54" y1="130.24" x2="805.54" y2="144.61" class="up-wick"/>
<rect x="801.54" y="130.72" width="8.00" height="11.31" class="up-body"/>
<line x1="827.50" y1="127.99" x2="827.50" y2="133.89" class="up-wick"/>
<rect x="823.50" y="130.57" width="8.00" height="1.00" class="up-body"/>
<line x1="849.46" y1="127.15" x2="849.46" y2="133.77" class="down-wick"/>
<rect x="845.46" y="130.56" width="8.00" height="2.49" class="down-body"/>
<line x1="871.41" y1="130.57" x2="871.41" y2="155.95" class="down-wick"/>
<rect x="867.41" y="133.05" width="8.00" height="17.25" class="down-body"/>
<line x1="893.37" y1="148.70" x2="893.37" y2="166.79" class="down-wick"/>
<rect x="889.37" y="150.31" width="8.00" height="3.50" class="down-body"/>
<line x1="915.33" y1="145.36" x2="915.33" y2="155.69" class="up-wick"/>
<rect x="911.33" y="146.78" width="8.00" height="7.02" class="up-body"/>
<line x1="937.28" y1="143.43" x2="937.28" y2="162.14" class="down-wick"/>
<rect x="933.28" y="146.78" width="8.00" height="13.11" class="down-body"/>
<line x1="959.24" y1="156.56" x2="959.24" y2="188.41" class="down-wick"/>
<rect x="955.24" y="159.89" width="8.00" height="8.51" class="down-body"/>
<line x1="981.20" y1="163.04" x2="981.20" y2="183.38" class="down-wick"/>
<rect x="977.20" y="168.40" width="8.00" height="11.00" class="down-body"/>
<line x1="1003.15" y1="172.90" x2="1003.15" y2="250.37" class="down-wick"/>
<rect x="999.15" y="179.39" width="8.00" height="42.56" class="down-body"/>
<line x1="1025.11" y1="188.22" x2="1025.11" y2="224.45" class="up-wick"/>
<rect x="1021.11" y="189.16" width="8.00" height="32.79" class="up-body"/>
<line x1="1047.07" y1="189.10" x2="1047.07" y2="228.99" class="down-wick"/>
<rect x="1043.07" y="189.16" width="8.00" height="27.79" class="down-body"/>
<line x1="1069.02" y1="209.21" x2="1069.02" y2="274.76" class="down-wick"/>
<rect x="1065.02" y="216.95" width="8.00" height="48.55" class="down-body"/>
<line x1="70" y1="155.19" x2="1080" y2="155.19" class="sweep-line"/>
<text x="1076" y="151.19" text-anchor="end" class="level-label">sweep 5307.27</text>
<line x1="70" y1="148.06" x2="1080" y2="148.06" class="entry-line"/>
<text x="1076" y="144.06" text-anchor="end" class="level-label">entry level 5324.65</text>
<text x="70" y="306" class="axis-label">2026-02-27 17:00:00+00:00 to 2026-03-03 16:00:00+00:00</text>
<text x="1080" y="306" text-anchor="end" class="axis-label">4983.57 - 5451.53</text>
<text x="70" y="332" class="panel-title">M15 liquidity / reaction context</text>
<rect x="70" y="346" width="1010" height="192" class="plot-bg"/>
<line x1="76.92" y1="429.83" x2="76.92" y2="454.45" class="up-wick"/>
<rect x="72.92" y="430.52" width="8.00" height="20.63" class="up-body"/>
<line x1="90.75" y1="429.66" x2="90.75" y2="441.12" class="down-wick"/>
<rect x="86.75" y="431.00" width="8.00" height="4.23" class="down-body"/>
<line x1="104.59" y1="423.71" x2="104.59" y2="437.49" class="up-wick"/>
<rect x="100.59" y="426.19" width="8.00" height="9.03" class="up-body"/>
<line x1="118.42" y1="421.61" x2="118.42" y2="431.90" class="up-wick"/>
<rect x="114.42" y="425.69" width="8.00" height="1.00" class="up-body"/>
<line x1="132.26" y1="415.91" x2="132.26" y2="427.80" class="up-wick"/>
<rect x="128.26" y="418.98" width="8.00" height="6.72" class="up-body"/>
<line x1="146.10" y1="413.91" x2="146.10" y2="421.38" class="up-wick"/>
<rect x="142.10" y="414.35" width="8.00" height="4.52" class="up-body"/>
<line x1="159.93" y1="413.58" x2="159.93" y2="425.71" class="down-wick"/>
<rect x="155.93" y="414.35" width="8.00" height="10.89" class="down-body"/>
<line x1="173.77" y1="414.79" x2="173.77" y2="425.44" class="up-wick"/>
<rect x="169.77" y="417.55" width="8.00" height="7.70" class="up-body"/>
<line x1="187.60" y1="416.43" x2="187.60" y2="436.55" class="down-wick"/>
<rect x="183.60" y="417.55" width="8.00" height="9.67" class="down-body"/>
<line x1="201.44" y1="422.75" x2="201.44" y2="430.74" class="up-wick"/>
<rect x="197.44" y="425.35" width="8.00" height="1.88" class="up-body"/>
<line x1="215.27" y1="425.22" x2="215.27" y2="436.10" class="down-wick"/>
<rect x="211.27" y="425.35" width="8.00" height="6.07" class="down-body"/>
<line x1="229.11" y1="427.15" x2="229.11" y2="441.37" class="up-wick"/>
<rect x="225.11" y="430.67" width="8.00" height="1.00" class="up-body"/>
<line x1="242.95" y1="417.26" x2="242.95" y2="432.77" class="up-wick"/>
<rect x="238.95" y="420.50" width="8.00" height="10.17" class="up-body"/>
<line x1="256.78" y1="414.52" x2="256.78" y2="421.85" class="up-wick"/>
<rect x="252.78" y="414.75" width="8.00" height="5.57" class="up-body"/>
<line x1="270.62" y1="400.18" x2="270.62" y2="417.47" class="up-wick"/>
<rect x="266.62" y="405.35" width="8.00" height="9.40" class="up-body"/>
<line x1="284.45" y1="398.77" x2="284.45" y2="406.81" class="up-wick"/>
<rect x="280.45" y="399.50" width="8.00" height="5.85" class="up-body"/>
<line x1="298.29" y1="397.11" x2="298.29" y2="406.22" class="down-wick"/>
<rect x="294.29" y="399.50" width="8.00" height="5.27" class="down-body"/>
<line x1="312.12" y1="389.92" x2="312.12" y2="404.80" class="up-wick"/>
<rect x="308.12" y="392.34" width="8.00" height="12.45" class="up-body"/>
<line x1="325.96" y1="372.15" x2="325.96" y2="395.09" class="up-wick"/>
<rect x="321.96" y="373.06" width="8.00" height="19.28" class="up-body"/>
<line x1="339.79" y1="359.24" x2="339.79" y2="374.72" class="up-wick"/>
<rect x="335.79" y="370.37" width="8.00" height="2.68" class="up-body"/>
<line x1="353.63" y1="367.13" x2="353.63" y2="377.10" class="down-wick"/>
<rect x="349.63" y="370.37" width="8.00" height="5.82" class="down-body"/>
<line x1="367.47" y1="364.23" x2="367.47" y2="376.79" class="up-wick"/>
<rect x="363.47" y="370.88" width="8.00" height="5.47" class="up-body"/>
<line x1="381.30" y1="365.70" x2="381.30" y2="376.63" class="up-wick"/>
<rect x="377.30" y="369.26" width="8.00" height="1.62" class="up-body"/>
<line x1="395.14" y1="362.51" x2="395.14" y2="376.98" class="up-wick"/>
<rect x="391.14" y="362.89" width="8.00" height="6.37" class="up-body"/>
<line x1="408.97" y1="361.87" x2="408.97" y2="383.04" class="down-wick"/>
<rect x="404.97" y="362.89" width="8.00" height="14.47" class="down-body"/>
<line x1="422.81" y1="367.73" x2="422.81" y2="388.61" class="down-wick"/>
<rect x="418.81" y="377.36" width="8.00" height="8.19" class="down-body"/>
<line x1="436.64" y1="379.21" x2="436.64" y2="390.20" class="up-wick"/>
<rect x="432.64" y="384.88" width="8.00" height="1.00" class="up-body"/>
<line x1="450.48" y1="380.67" x2="450.48" y2="393.87" class="down-wick"/>
<rect x="446.48" y="384.88" width="8.00" height="1.00" class="down-body"/>
<line x1="464.32" y1="376.41" x2="464.32" y2="385.36" class="up-wick"/>
<rect x="460.32" y="382.78" width="8.00" height="2.11" class="up-body"/>
<line x1="478.15" y1="382.10" x2="478.15" y2="392.63" class="down-wick"/>
<rect x="474.15" y="382.78" width="8.00" height="4.84" class="down-body"/>
<line x1="491.99" y1="385.04" x2="491.99" y2="401.08" class="down-wick"/>
<rect x="487.99" y="387.52" width="8.00" height="1.84" class="down-body"/>
<line x1="505.82" y1="387.24" x2="505.82" y2="396.39" class="down-wick"/>
<rect x="501.82" y="389.32" width="8.00" height="1.00" class="down-body"/>
<line x1="519.66" y1="378.51" x2="519.66" y2="392.89" class="up-wick"/>
<rect x="515.66" y="378.94" width="8.00" height="10.77" class="up-body"/>
<line x1="533.49" y1="378.45" x2="533.49" y2="398.60" class="down-wick"/>
<rect x="529.49" y="378.94" width="8.00" height="11.44" class="down-body"/>
<line x1="547.33" y1="384.75" x2="547.33" y2="397.77" class="down-wick"/>
<rect x="543.33" y="390.37" width="8.00" height="1.00" class="down-body"/>
<line x1="561.16" y1="382.29" x2="561.16" y2="392.25" class="up-wick"/>
<rect x="557.16" y="389.32" width="8.00" height="1.94" class="up-body"/>
<line x1="575.00" y1="379.38" x2="575.00" y2="390.86" class="down-wick"/>
<rect x="571.00" y="389.32" width="8.00" height="1.32" class="down-body"/>
<line x1="588.84" y1="389.90" x2="588.84" y2="404.93" class="down-wick"/>
<rect x="584.84" y="390.63" width="8.00" height="3.98" class="down-body"/>
<line x1="602.67" y1="380.98" x2="602.67" y2="401.41" class="up-wick"/>
<rect x="598.67" y="388.22" width="8.00" height="6.45" class="up-body"/>
<line x1="616.51" y1="383.49" x2="616.51" y2="395.26" class="up-wick"/>
<rect x="612.51" y="385.58" width="8.00" height="2.63" class="up-body"/>
<line x1="630.34" y1="380.63" x2="630.34" y2="391.06" class="up-wick"/>
<rect x="626.34" y="382.93" width="8.00" height="2.65" class="up-body"/>
<line x1="644.18" y1="380.88" x2="644.18" y2="394.44" class="up-wick"/>
<rect x="640.18" y="382.27" width="8.00" height="1.00" class="up-body"/>
<line x1="658.01" y1="368.76" x2="658.01" y2="398.08" class="down-wick"/>
<rect x="654.01" y="382.27" width="8.00" height="13.48" class="down-body"/>
<line x1="671.85" y1="369.62" x2="671.85" y2="397.52" class="up-wick"/>
<rect x="667.85" y="377.62" width="8.00" height="18.13" class="up-body"/>
<line x1="685.68" y1="361.89" x2="685.68" y2="387.38" class="down-wick"/>
<rect x="681.68" y="377.54" width="8.00" height="9.02" class="down-body"/>
<line x1="699.52" y1="381.10" x2="699.52" y2="390.40" class="up-wick"/>
<rect x="695.52" y="385.68" width="8.00" height="1.00" class="up-body"/>
<line x1="713.36" y1="384.30" x2="713.36" y2="417.38" class="down-wick"/>
<rect x="709.36" y="385.68" width="8.00" height="19.36" class="down-body"/>
<line x1="727.19" y1="403.51" x2="727.19" y2="476.20" class="down-wick"/>
<rect x="723.19" y="405.05" width="8.00" height="43.61" class="down-body"/>
<line x1="741.03" y1="425.35" x2="741.03" y2="476.54" class="up-wick"/>
<rect x="737.03" y="434.03" width="8.00" height="14.67" class="up-body"/>
<line x1="754.86" y1="429.94" x2="754.86" y2="461.91" class="down-wick"/>
<rect x="750.86" y="434.03" width="8.00" height="14.67" class="down-body"/>
<line x1="768.70" y1="434.83" x2="768.70" y2="472.00" class="up-wick"/>
<rect x="764.70" y="448.53" width="8.00" height="1.00" class="up-body"/>
<line x1="782.53" y1="442.95" x2="782.53" y2="465.42" class="down-wick"/>
<rect x="778.53" y="448.53" width="8.00" height="2.86" class="down-body"/>
<line x1="796.37" y1="432.71" x2="796.37" y2="452.49" class="up-wick"/>
<rect x="792.37" y="439.67" width="8.00" height="11.74" class="up-body"/>
<line x1="810.21" y1="436.66" x2="810.21" y2="475.10" class="down-wick"/>
<rect x="806.21" y="439.67" width="8.00" height="27.57" class="down-body"/>
<line x1="824.04" y1="467.55" x2="824.04" y2="524.76" class="down-wick"/>
<rect x="820.04" y="467.55" width="8.00" height="15.56" class="down-body"/>
<line x1="837.88" y1="468.65" x2="837.88" y2="502.26" class="up-wick"/>
<rect x="833.88" y="473.44" width="8.00" height="9.67" class="up-body"/>
<line x1="851.71" y1="471.42" x2="851.71" y2="502.20" class="down-wick"/>
<rect x="847.71" y="473.43" width="8.00" height="8.80" class="down-body"/>
<line x1="865.55" y1="477.17" x2="865.55" y2="494.70" class="down-wick"/>
<rect x="861.55" y="482.23" width="8.00" height="11.75" class="down-body"/>
<line x1="879.38" y1="473.39" x2="879.38" y2="497.32" class="up-wick"/>
<rect x="875.38" y="485.21" width="8.00" height="8.77" class="up-body"/>
<line x1="893.22" y1="471.02" x2="893.22" y2="492.14" class="up-wick"/>
<rect x="889.22" y="478.89" width="8.00" height="6.32" class="up-body"/>
<line x1="907.05" y1="462.23" x2="907.05" y2="480.22" class="down-wick"/>
<rect x="903.05" y="478.72" width="8.00" height="1.00" class="down-body"/>
<line x1="920.89" y1="472.18" x2="920.89" y2="485.82" class="up-wick"/>
<rect x="916.89" y="476.63" width="8.00" height="2.59" class="up-body"/>
<line x1="934.73" y1="475.06" x2="934.73" y2="494.64" class="down-wick"/>
<rect x="930.73" y="476.57" width="8.00" height="11.99" class="down-body"/>
<line x1="948.56" y1="477.52" x2="948.56" y2="490.22" class="up-wick"/>
<rect x="944.56" y="486.10" width="8.00" height="2.46" class="up-body"/>
<line x1="962.40" y1="480.30" x2="962.40" y2="493.13" class="up-wick"/>
<rect x="958.40" y="480.32" width="8.00" height="5.78" class="up-body"/>
<line x1="976.23" y1="466.35" x2="976.23" y2="481.49" class="up-wick"/>
<rect x="972.23" y="467.55" width="8.00" height="12.77" class="up-body"/>
<line x1="990.07" y1="449.00" x2="990.07" y2="469.29" class="up-wick"/>
<rect x="986.07" y="451.92" width="8.00" height="15.64" class="up-body"/>
<line x1="1003.90" y1="449.44" x2="1003.90" y2="464.17" class="up-wick"/>
<rect x="999.90" y="451.56" width="8.00" height="1.00" class="up-body"/>
<line x1="1017.74" y1="448.21" x2="1017.74" y2="458.10" class="down-wick"/>
<rect x="1013.74" y="451.56" width="8.00" height="6.16" class="down-body"/>
<line x1="1031.58" y1="450.10" x2="1031.58" y2="459.85" class="up-wick"/>
<rect x="1027.58" y="451.99" width="8.00" height="5.73" class="up-body"/>
<line x1="1045.41" y1="435.42" x2="1045.41" y2="454.14" class="up-wick"/>
<rect x="1041.41" y="444.66" width="8.00" height="7.33" class="up-body"/>
<line x1="1059.25" y1="435.36" x2="1059.25" y2="453.93" class="down-wick"/>
<rect x="1055.25" y="444.69" width="8.00" height="4.03" class="down-body"/>
<line x1="1073.08" y1="436.99" x2="1073.08" y2="450.05" class="up-wick"/>
<rect x="1069.08" y="439.93" width="8.00" height="8.79" class="up-body"/>
<line x1="70" y1="476.20" x2="1080" y2="476.20" class="sweep-line"/>
<text x="1076" y="472.20" text-anchor="end" class="level-label">sweep 5307.27</text>
<line x1="70" y1="458.05" x2="1080" y2="458.05" class="entry-line"/>
<text x="1076" y="454.05" text-anchor="end" class="level-label">entry level 5324.65</text>
<text x="70" y="556" class="axis-label">2026-03-02 04:30:00+00:00 to 2026-03-02 22:30:00+00:00</text>
<text x="1080" y="556" text-anchor="end" class="axis-label">5248.09 - 5431.94</text>
<text x="70" y="582" class="panel-title">M5 reaction / execution context</text>
<rect x="70" y="596" width="1010" height="192" class="plot-bg"/>
<line x1="79.18" y1="624.58" x2="79.18" y2="637.98" class="up-wick"/>
<rect x="75.18" y="625.67" width="8.00" height="4.28" class="up-body"/>
<line x1="97.55" y1="616.21" x2="97.55" y2="632.07" class="down-wick"/>
<rect x="93.55" y="625.67" width="8.00" height="4.03" class="down-body"/>
<line x1="115.91" y1="626.02" x2="115.91" y2="646.02" class="down-wick"/>
<rect x="111.91" y="629.70" width="8.00" height="13.95" class="down-body"/>
<line x1="134.27" y1="632.85" x2="134.27" y2="645.44" class="up-wick"/>
<rect x="130.27" y="634.31" width="8.00" height="9.34" class="up-body"/>
<line x1="152.64" y1="617.42" x2="152.64" y2="636.10" class="up-wick"/>
<rect x="148.64" y="620.94" width="8.00" height="13.37" class="up-body"/>
<line x1="171.00" y1="617.10" x2="171.00" y2="629.66" class="down-wick"/>
<rect x="167.00" y="620.88" width="8.00" height="4.34" class="down-body"/>
<line x1="189.36" y1="609.24" x2="189.36" y2="626.41" class="down-wick"/>
<rect x="185.36" y="625.14" width="8.00" height="1.27" class="down-body"/>
<line x1="207.73" y1="622.36" x2="207.73" y2="630.61" class="down-wick"/>
<rect x="203.73" y="626.18" width="8.00" height="1.28" class="down-body"/>
<line x1="226.09" y1="618.85" x2="226.09" y2="635.14" class="down-wick"/>
<rect x="222.09" y="627.46" width="8.00" height="6.85" class="down-body"/>
<line x1="244.45" y1="629.76" x2="244.45" y2="636.65" class="up-wick"/>
<rect x="240.45" y="632.29" width="8.00" height="2.02" class="up-body"/>
<line x1="262.82" y1="628.76" x2="262.82" y2="638.22" class="down-wick"/>
<rect x="258.82" y="632.25" width="8.00" height="1.60" class="down-body"/>
<line x1="281.18" y1="630.13" x2="281.18" y2="635.41" class="up-wick"/>
<rect x="277.18" y="633.42" width="8.00" height="1.00" class="up-body"/>
<line x1="299.55" y1="632.01" x2="299.55" y2="651.56" class="down-wick"/>
<rect x="295.55" y="633.42" width="8.00" height="17.88" class="down-body"/>
<line x1="317.91" y1="640.71" x2="317.91" y2="657.47" class="down-wick"/>
<rect x="313.91" y="651.30" width="8.00" height="6.02" class="down-body"/>
<line x1="336.27" y1="650.36" x2="336.27" y2="665.63" class="up-wick"/>
<rect x="332.27" y="653.10" width="8.00" height="4.22" class="up-body"/>
<line x1="354.64" y1="651.54" x2="354.64" y2="668.23" class="down-wick"/>
<rect x="350.64" y="653.10" width="8.00" height="11.78" class="down-body"/>
<line x1="373.00" y1="659.06" x2="373.00" y2="686.10" class="down-wick"/>
<rect x="369.00" y="664.88" width="8.00" height="17.24" class="down-body"/>
<line x1="391.36" y1="677.54" x2="391.36" y2="725.41" class="down-wick"/>
<rect x="387.36" y="682.01" width="8.00" height="15.41" class="down-body"/>
<line x1="409.73" y1="690.38" x2="409.73" y2="725.76" class="down-wick"/>
<rect x="405.73" y="697.46" width="8.00" height="17.86" class="down-body"/>
<line x1="428.09" y1="679.21" x2="428.09" y2="721.28" class="up-wick"/>
<rect x="424.09" y="685.82" width="8.00" height="29.47" class="up-body"/>
<line x1="446.45" y1="673.73" x2="446.45" y2="685.82" class="up-wick"/>
<rect x="442.45" y="682.55" width="8.00" height="3.27" class="up-body"/>
<line x1="464.82" y1="678.40" x2="464.82" y2="698.61" class="down-wick"/>
<rect x="460.82" y="682.55" width="8.00" height="6.72" class="down-body"/>
<line x1="483.18" y1="687.10" x2="483.18" y2="710.89" class="down-wick"/>
<rect x="479.18" y="689.27" width="8.00" height="4.42" class="down-body"/>
<line x1="501.55" y1="692.14" x2="501.55" y2="703.61" class="down-wick"/>
<rect x="497.55" y="693.82" width="8.00" height="3.64" class="down-body"/>
<line x1="519.91" y1="697.46" x2="519.91" y2="713.94" class="down-wick"/>
<rect x="515.91" y="697.46" width="8.00" height="3.12" class="down-body"/>
<line x1="538.27" y1="683.37" x2="538.27" y2="721.14" class="up-wick"/>
<rect x="534.27" y="694.85" width="8.00" height="5.73" class="up-body"/>
<line x1="556.64" y1="687.81" x2="556.64" y2="706.99" class="down-wick"/>
<rect x="552.64" y="694.86" width="8.00" height="2.43" class="down-body"/>
<line x1="575.00" y1="694.44" x2="575.00" y2="714.45" class="down-wick"/>
<rect x="571.00" y="697.29" width="8.00" height="11.93" class="down-body"/>
<line x1="593.36" y1="696.62" x2="593.36" y2="711.34" class="up-wick"/>
<rect x="589.36" y="697.67" width="8.00" height="11.55" class="up-body"/>
<line x1="611.73" y1="691.61" x2="611.73" y2="704.21" class="down-wick"/>
<rect x="607.73" y="697.67" width="8.00" height="2.53" class="down-body"/>
<line x1="630.09" y1="681.99" x2="630.09" y2="701.31" class="up-wick"/>
<rect x="626.09" y="684.14" width="8.00" height="16.07" class="up-body"/>
<line x1="648.45" y1="681.21" x2="648.45" y2="694.90" class="up-wick"/>
<rect x="644.45" y="682.27" width="8.00" height="1.87" class="up-body"/>
<line x1="666.82" y1="681.44" x2="666.82" y2="693.42" class="down-wick"/>
<rect x="662.82" y="682.34" width="8.00" height="5.94" class="down-body"/>
<line x1="685.18" y1="685.22" x2="685.18" y2="705.62" class="down-wick"/>
<rect x="681.18" y="688.28" width="8.00" height="8.33" class="down-body"/>
<line x1="703.55" y1="694.04" x2="703.55" y2="704.99" class="down-wick"/>
<rect x="699.55" y="696.61" width="8.00" height="1.29" class="down-body"/>
<line x1="721.91" y1="697.90" x2="721.91" y2="724.29" class="down-wick"/>
<rect x="717.91" y="697.90" width="8.00" height="18.40" class="down-body"/>
<line x1="740.27" y1="716.62" x2="740.27" y2="774.76" class="down-wick"/>
<rect x="736.27" y="716.62" width="8.00" height="44.44" class="down-body"/>
<line x1="758.64" y1="738.22" x2="758.64" y2="761.38" class="up-wick"/>
<rect x="754.64" y="744.22" width="8.00" height="16.83" class="up-body"/>
<line x1="777.00" y1="730.57" x2="777.00" y2="750.16" class="up-wick"/>
<rect x="773.00" y="732.43" width="8.00" height="11.78" class="up-body"/>
<line x1="795.36" y1="732.10" x2="795.36" y2="751.38" class="down-wick"/>
<rect x="791.36" y="732.43" width="8.00" height="16.37" class="down-body"/>
<line x1="813.73" y1="732.02" x2="813.73" y2="751.90" class="up-wick"/>
<rect x="809.73" y="733.83" width="8.00" height="14.97" class="up-body"/>
<line x1="832.09" y1="717.73" x2="832.09" y2="733.65" class="up-wick"/>
<rect x="828.09" y="722.60" width="8.00" height="11.05" class="up-body"/>
<line x1="850.45" y1="720.56" x2="850.45" y2="739.70" class="down-wick"/>
<rect x="846.45" y="722.59" width="8.00" height="13.19" class="down-body"/>
<line x1="868.82" y1="726.23" x2="868.82" y2="751.83" class="up-wick"/>
<rect x="864.82" y="726.42" width="8.00" height="9.36" class="up-body"/>
<line x1="887.18" y1="720.56" x2="887.18" y2="735.70" class="down-wick"/>
<rect x="883.18" y="726.42" width="8.00" height="5.12" class="down-body"/>
<line x1="905.55" y1="726.39" x2="905.55" y2="739.32" class="down-wick"/>
<rect x="901.55" y="731.54" width="8.00" height="2.73" class="down-body"/>
<line x1="923.91" y1="728.96" x2="923.91" y2="743.16" class="down-wick"/>
<rect x="919.91" y="734.24" width="8.00" height="2.72" class="down-body"/>
<line x1="942.27" y1="731.37" x2="942.27" y2="744.21" class="down-wick"/>
<rect x="938.27" y="736.93" width="8.00" height="6.55" class="down-body"/>
<line x1="960.64" y1="733.30" x2="960.64" y2="746.88" class="up-wick"/>
<rect x="956.64" y="733.30" width="8.00" height="10.18" class="up-body"/>
<line x1="979.00" y1="722.55" x2="979.00" y2="733.40" class="up-wick"/>
<rect x="975.00" y="728.75" width="8.00" height="4.55" class="up-body"/>
<line x1="997.36" y1="728.75" x2="997.36" y2="739.93" class="down-wick"/>
<rect x="993.36" y="728.75" width="8.00" height="5.82" class="down-body"/>
<line x1="1015.73" y1="733.61" x2="1015.73" y2="741.61" class="down-wick"/>
<rect x="1011.73" y="734.57" width="8.00" height="2.63" class="down-body"/>
<line x1="1034.09" y1="727.31" x2="1034.09" y2="737.91" class="up-wick"/>
<rect x="1030.09" y="728.00" width="8.00" height="9.20" class="up-body"/>
<line x1="1052.45" y1="720.14" x2="1052.45" y2="730.12" class="down-wick"/>
<rect x="1048.45" y="727.79" width="8.00" height="1.00" class="down-body"/>
<line x1="1070.82" y1="711.22" x2="1070.82" y2="728.37" class="up-wick"/>
<rect x="1066.82" y="712.22" width="8.00" height="15.75" class="up-body"/>
<line x1="70" y1="725.41" x2="1080" y2="725.41" class="sweep-line"/>
<text x="1076" y="721.41" text-anchor="end" class="level-label">sweep 5307.27</text>
<line x1="70" y1="706.96" x2="1080" y2="706.96" class="entry-line"/>
<text x="1076" y="702.96" text-anchor="end" class="level-label">entry level 5324.65</text>
<text x="70" y="806" class="axis-label">2026-03-02 15:00:00+00:00 to 2026-03-02 19:30:00+00:00</text>
<text x="1080" y="806" text-anchor="end" class="axis-label">5248.29 - 5429.20</text>
<text x="70" y="832" class="panel-title">M1 execution window</text>
<rect x="70" y="846" width="1010" height="192" class="plot-bg"/>
<line x1="73.71" y1="879.06" x2="73.71" y2="883.78" class="down-wick"/>
<rect x="71.30" y="879.41" width="4.83" height="3.52" class="down-body"/>
<line x1="81.14" y1="881.02" x2="81.14" y2="887.47" class="up-wick"/>
<rect x="78.73" y="881.02" width="4.83" height="5.29" class="up-body"/>
<line x1="88.57" y1="874.02" x2="88.57" y2="876.64" class="up-wick"/>
<rect x="86.15" y="875.11" width="4.83" height="1.19" class="up-body"/>
<line x1="95.99" y1="865.62" x2="95.99" y2="870.66" class="up-wick"/>
<rect x="93.58" y="866.45" width="4.83" height="2.55" class="up-body"/>
<line x1="103.42" y1="869.44" x2="103.42" y2="881.54" class="down-wick"/>
<rect x="101.01" y="869.57" width="4.83" height="5.53" class="down-body"/>
<line x1="110.85" y1="875.47" x2="110.85" y2="881.53" class="down-wick"/>
<rect x="108.43" y="879.16" width="4.83" height="1.76" class="down-body"/>
<line x1="118.27" y1="885.52" x2="118.27" y2="892.97" class="down-wick"/>
<rect x="115.86" y="885.65" width="4.83" height="7.24" class="down-body"/>
<line x1="125.70" y1="888.04" x2="125.70" y2="895.54" class="down-wick"/>
<rect x="123.28" y="890.20" width="4.83" height="2.96" class="down-body"/>
<line x1="133.12" y1="887.43" x2="133.12" y2="894.96" class="up-wick"/>
<rect x="130.71" y="887.50" width="4.83" height="7.37" class="up-body"/>
<line x1="140.55" y1="883.18" x2="140.55" y2="886.95" class="down-wick"/>
<rect x="138.14" y="884.87" width="4.83" height="1.01" class="down-body"/>
<line x1="147.98" y1="880.07" x2="147.98" y2="885.59" class="up-wick"/>
<rect x="145.56" y="880.09" width="4.83" height="3.70" class="up-body"/>
<line x1="155.40" y1="877.16" x2="155.40" y2="882.86" class="up-wick"/>
<rect x="152.99" y="878.40" width="4.83" height="3.93" class="up-body"/>
<line x1="162.83" y1="868.21" x2="162.83" y2="871.80" class="down-wick"/>
<rect x="160.42" y="868.70" width="4.83" height="1.66" class="down-body"/>
<line x1="170.26" y1="866.51" x2="170.26" y2="869.48" class="down-wick"/>
<rect x="167.84" y="867.91" width="4.83" height="1.11" class="down-body"/>
<line x1="177.68" y1="872.76" x2="177.68" y2="878.74" class="up-wick"/>
<rect x="175.27" y="874.70" width="4.83" height="3.80" class="up-body"/>
<line x1="185.11" y1="863.72" x2="185.11" y2="874.58" class="up-wick"/>
<rect x="182.70" y="864.23" width="4.83" height="10.35" class="up-body"/>
<line x1="192.54" y1="859.24" x2="192.54" y2="865.15" class="down-wick"/>
<rect x="190.12" y="860.57" width="4.83" height="3.23" class="down-body"/>
<line x1="199.96" y1="870.54" x2="199.96" y2="875.86" class="down-wick"/>
<rect x="197.55" y="874.46" width="4.83" height="1.40" class="down-body"/>
<line x1="207.39" y1="872.61" x2="207.39" y2="878.03" class="down-wick"/>
<rect x="204.98" y="873.04" width="4.83" height="4.03" class="down-body"/>
<line x1="214.82" y1="873.32" x2="214.82" y2="878.69" class="down-wick"/>
<rect x="212.40" y="873.32" width="4.83" height="4.57" class="down-body"/>
<line x1="222.24" y1="870.89" x2="222.24" y2="877.03" class="up-wick"/>
<rect x="219.83" y="871.45" width="4.83" height="5.47" class="up-body"/>
<line x1="229.67" y1="869.04" x2="229.67" y2="874.02" class="down-wick"/>
<rect x="227.26" y="870.65" width="4.83" height="3.06" class="down-body"/>
<line x1="237.10" y1="877.33" x2="237.10" y2="884.62" class="down-wick"/>
<rect x="234.68" y="879.10" width="4.83" height="4.69" class="down-body"/>
<line x1="244.52" y1="879.22" x2="244.52" y2="886.13" class="down-wick"/>
<rect x="242.11" y="880.29" width="4.83" height="1.37" class="down-body"/>
<line x1="251.95" y1="879.92" x2="251.95" y2="883.83" class="up-wick"/>
<rect x="249.53" y="881.70" width="4.83" height="1.93" class="up-body"/>
<line x1="259.38" y1="878.77" x2="259.38" y2="882.24" class="down-wick"/>
<rect x="256.96" y="881.72" width="4.83" height="1.00" class="down-body"/>
<line x1="266.80" y1="878.44" x2="266.80" y2="883.45" class="down-wick"/>
<rect x="264.39" y="878.64" width="4.83" height="2.52" class="down-body"/>
<line x1="274.23" y1="882.15" x2="274.23" y2="887.71" class="up-wick"/>
<rect x="271.81" y="883.33" width="4.83" height="3.27" class="up-body"/>
<line x1="281.65" y1="879.59" x2="281.65" y2="882.45" class="down-wick"/>
<rect x="279.24" y="880.72" width="4.83" height="1.00" class="down-body"/>
<line x1="289.08" y1="881.10" x2="289.08" y2="884.89" class="down-wick"/>
<rect x="286.67" y="883.33" width="4.83" height="1.00" class="down-body"/>
<line x1="296.51" y1="881.47" x2="296.51" y2="888.98" class="down-wick"/>
<rect x="294.09" y="882.89" width="4.83" height="4.51" class="down-body"/>
<line x1="303.93" y1="889.49" x2="303.93" y2="894.06" class="up-wick"/>
<rect x="301.52" y="891.01" width="4.83" height="1.00" class="up-body"/>
<line x1="311.36" y1="890.21" x2="311.36" y2="901.10" class="down-wick"/>
<rect x="308.95" y="891.87" width="4.83" height="8.97" class="down-body"/>
<line x1="318.79" y1="890.91" x2="318.79" y2="895.93" class="up-wick"/>
<rect x="316.37" y="890.95" width="4.83" height="1.58" class="up-body"/>
<line x1="326.21" y1="890.89" x2="326.21" y2="895.11" class="down-wick"/>
<rect x="323.80" y="892.65" width="4.83" height="2.06" class="down-body"/>
<line x1="333.64" y1="906.86" x2="333.64" y2="915.22" class="down-wick"/>
<rect x="331.23" y="906.88" width="4.83" height="1.12" class="down-body"/>
<line x1="341.07" y1="899.89" x2="341.07" y2="907.40" class="down-wick"/>
<rect x="338.65" y="902.27" width="4.83" height="3.40" class="down-body"/>
<line x1="348.49" y1="902.57" x2="348.49" y2="911.06" class="up-wick"/>
<rect x="346.08" y="902.64" width="4.83" height="3.45" class="up-body"/>
<line x1="355.92" y1="902.60" x2="355.92" y2="910.44" class="down-wick"/>
<rect x="353.51" y="902.67" width="4.83" height="6.03" class="down-body"/>
<line x1="363.35" y1="910.20" x2="363.35" y2="917.83" class="down-wick"/>
<rect x="360.93" y="911.14" width="4.83" height="1.49" class="down-body"/>
<line x1="370.77" y1="910.23" x2="370.77" y2="915.22" class="up-wick"/>
<rect x="368.36" y="912.20" width="4.83" height="2.27" class="up-body"/>
<line x1="378.20" y1="920.41" x2="378.20" y2="931.87" class="down-wick"/>
<rect x="375.78" y="920.51" width="4.83" height="10.04" class="down-body"/>
<line x1="385.62" y1="925.70" x2="385.62" y2="935.77" class="down-wick"/>
<rect x="383.21" y="927.83" width="4.83" height="3.94" class="down-body"/>
<line x1="393.05" y1="950.58" x2="393.05" y2="975.22" class="down-wick"/>
<rect x="390.64" y="951.07" width="4.83" height="16.43" class="down-body"/>
<line x1="400.48" y1="946.27" x2="400.48" y2="960.93" class="up-wick"/>
<rect x="398.06" y="947.78" width="4.83" height="10.61" class="up-body"/>
<line x1="407.90" y1="940.07" x2="407.90" y2="949.71" class="down-wick"/>
<rect x="405.49" y="947.17" width="4.83" height="1.00" class="down-body"/>
<line x1="415.33" y1="948.12" x2="415.33" y2="963.22" class="up-wick"/>
<rect x="412.92" y="956.92" width="4.83" height="1.00" class="up-body"/>
<line x1="422.76" y1="959.99" x2="422.76" y2="975.57" class="up-wick"/>
<rect x="420.34" y="965.10" width="4.83" height="8.66" class="up-body"/>
<line x1="430.18" y1="945.27" x2="430.18" y2="956.25" class="up-wick"/>
<rect x="427.77" y="949.89" width="4.83" height="3.95" class="up-body"/>
<line x1="437.61" y1="935.44" x2="437.61" y2="943.78" class="up-wick"/>
<rect x="435.20" y="935.81" width="4.83" height="5.86" class="up-body"/>
<line x1="445.04" y1="928.66" x2="445.04" y2="935.49" class="up-wick"/>
<rect x="442.62" y="930.34" width="4.83" height="5.15" class="up-body"/>
<line x1="452.46" y1="925.34" x2="452.46" y2="929.72" class="up-wick"/>
<rect x="450.05" y="926.89" width="4.83" height="2.70" class="up-body"/>
<line x1="459.89" y1="928.68" x2="459.89" y2="934.46" class="down-wick"/>
<rect x="457.48" y="930.55" width="4.83" height="1.65" class="down-body"/>
<line x1="467.32" y1="937.26" x2="467.32" y2="947.62" class="down-wick"/>
<rect x="464.90" y="940.82" width="4.83" height="6.19" class="down-body"/>
<line x1="474.74" y1="937.78" x2="474.74" y2="946.81" class="up-wick"/>
<rect x="472.33" y="939.95" width="4.83" height="5.98" class="up-body"/>
<line x1="482.17" y1="936.77" x2="482.17" y2="944.76" class="down-wick"/>
<rect x="479.76" y="938.95" width="4.83" height="5.51" class="down-body"/>
<line x1="489.60" y1="945.00" x2="489.60" y2="960.65" class="down-wick"/>
<rect x="487.18" y="945.89" width="4.83" height="1.19" class="down-body"/>
<line x1="497.02" y1="941.10" x2="497.02" y2="946.97" class="up-wick"/>
<rect x="494.61" y="943.38" width="4.83" height="1.07" class="up-body"/>
<line x1="504.45" y1="944.21" x2="504.45" y2="951.34" class="down-wick"/>
<rect x="502.03" y="944.21" width="4.83" height="7.13" class="down-body"/>
<line x1="511.88" y1="944.39" x2="511.88" y2="953.34" class="up-wick"/>
<rect x="509.46" y="948.44" width="4.83" height="2.63" class="up-body"/>
<line x1="519.30" y1="947.17" x2="519.30" y2="960.86" class="down-wick"/>
<rect x="516.89" y="947.17" width="4.83" height="12.14" class="down-body"/>
<line x1="526.73" y1="948.18" x2="526.73" y2="958.04" class="up-wick"/>
<rect x="524.31" y="954.90" width="4.83" height="2.28" class="up-body"/>
<line x1="534.15" y1="950.26" x2="534.15" y2="959.32" class="up-wick"/>
<rect x="531.74" y="950.30" width="4.83" height="7.77" class="up-body"/>
<line x1="541.58" y1="957.68" x2="541.58" y2="970.94" class="down-wick"/>
<rect x="539.17" y="959.72" width="4.83" height="1.89" class="down-body"/>
<line x1="549.01" y1="933.02" x2="549.01" y2="944.73" class="up-wick"/>
<rect x="546.59" y="935.07" width="4.83" height="5.33" class="up-body"/>
<line x1="556.43" y1="937.49" x2="556.43" y2="944.60" class="up-wick"/>
<rect x="554.02" y="943.43" width="4.83" height="1.13" class="up-body"/>
<line x1="563.86" y1="944.33" x2="563.86" y2="952.23" class="down-wick"/>
<rect x="561.45" y="945.05" width="4.83" height="5.43" class="down-body"/>
<line x1="571.29" y1="945.33" x2="571.29" y2="952.26" class="up-wick"/>
<rect x="568.87" y="947.00" width="4.83" height="4.58" class="up-body"/>
<line x1="578.71" y1="944.14" x2="578.71" y2="950.09" class="up-wick"/>
<rect x="576.30" y="947.31" width="4.83" height="1.50" class="up-body"/>
<line x1="586.14" y1="957.95" x2="586.14" y2="963.20" class="down-wick"/>
<rect x="583.73" y="959.51" width="4.83" height="1.99" class="down-body"/>
<line x1="593.57" y1="954.47" x2="593.57" y2="961.11" class="up-wick"/>
<rect x="591.15" y="955.04" width="4.83" height="3.93" class="up-body"/>
<line x1="600.99" y1="948.98" x2="600.99" y2="953.17" class="up-wick"/>
<rect x="598.58" y="949.62" width="4.83" height="3.09" class="up-body"/>
<line x1="608.42" y1="946.64" x2="608.42" y2="953.71" class="up-wick"/>
<rect x="606.01" y="947.39" width="4.83" height="1.61" class="up-body"/>
<line x1="615.85" y1="942.23" x2="615.85" y2="947.30" class="up-wick"/>
<rect x="613.43" y="942.25" width="4.83" height="3.91" class="up-body"/>
<line x1="623.27" y1="942.93" x2="623.27" y2="953.95" class="down-wick"/>
<rect x="620.86" y="943.41" width="4.83" height="6.57" class="down-body"/>
<line x1="630.70" y1="937.93" x2="630.70" y2="951.04" class="up-wick"/>
<rect x="628.28" y="938.70" width="4.83" height="11.23" class="up-body"/>
<line x1="638.12" y1="931.98" x2="638.12" y2="936.84" class="down-wick"/>
<rect x="635.71" y="931.98" width="4.83" height="3.10" class="down-body"/>
<line x1="645.55" y1="933.73" x2="645.55" y2="938.88" class="up-wick"/>
<rect x="643.14" y="933.80" width="4.83" height="3.59" class="up-body"/>
<line x1="652.98" y1="940.19" x2="652.98" y2="944.60" class="down-wick"/>
<rect x="650.56" y="941.05" width="4.83" height="1.42" class="down-body"/>
<line x1="660.40" y1="933.70" x2="660.40" y2="937.91" class="up-wick"/>
<rect x="657.99" y="933.73" width="4.83" height="1.56" class="up-body"/>
<line x1="667.83" y1="931.10" x2="667.83" y2="937.21" class="down-wick"/>
<rect x="665.42" y="931.99" width="4.83" height="4.59" class="down-body"/>
<line x1="675.26" y1="938.42" x2="675.26" y2="941.88" class="down-wick"/>
<rect x="672.84" y="939.83" width="4.83" height="1.52" class="down-body"/>
<line x1="682.68" y1="936.81" x2="682.68" y2="941.90" class="up-wick"/>
<rect x="680.27" y="937.96" width="4.83" height="1.96" class="up-body"/>
<line x1="690.11" y1="943.82" x2="690.11" y2="954.80" class="down-wick"/>
<rect x="687.70" y="944.74" width="4.83" height="10.06" class="down-body"/>
<line x1="697.54" y1="943.93" x2="697.54" y2="947.10" class="down-wick"/>
<rect x="695.12" y="945.34" width="4.83" height="1.32" class="down-body"/>
<line x1="704.96" y1="943.74" x2="704.96" y2="947.67" class="up-wick"/>
<rect x="702.55" y="944.59" width="4.83" height="1.73" class="up-body"/>
<line x1="712.39" y1="950.62" x2="712.39" y2="954.73" class="down-wick"/>
<rect x="709.98" y="951.35" width="4.83" height="1.73" class="down-body"/>
<line x1="719.82" y1="947.58" x2="719.82" y2="954.20" class="up-wick"/>
<rect x="717.40" y="947.62" width="4.83" height="3.40" class="up-body"/>
<line x1="727.24" y1="951.17" x2="727.24" y2="958.76" class="down-wick"/>
<rect x="724.83" y="952.37" width="4.83" height="6.36" class="down-body"/>
<line x1="734.67" y1="967.59" x2="734.67" y2="974.10" class="down-wick"/>
<rect x="732.26" y="969.32" width="4.83" height="1.33" class="down-body"/>
<line x1="742.10" y1="966.40" x2="742.10" y2="995.94" class="down-wick"/>
<rect x="739.68" y="966.40" width="4.83" height="27.73" class="down-body"/>
<line x1="749.52" y1="1010.94" x2="749.52" y2="1024.76" class="down-wick"/>
<rect x="747.11" y="1015.59" width="4.83" height="3.38" class="down-body"/>
<line x1="756.95" y1="1003.43" x2="756.95" y2="1017.25" class="up-wick"/>
<rect x="754.53" y="1011.01" width="4.83" height="1.24" class="up-body"/>
<line x1="764.38" y1="991.11" x2="764.38" y2="1003.83" class="up-wick"/>
<rect x="761.96" y="991.72" width="4.83" height="12.07" class="up-body"/>
<line x1="771.80" y1="991.52" x2="771.80" y2="1006.58" class="up-wick"/>
<rect x="769.39" y="992.41" width="4.83" height="9.69" class="up-body"/>
<line x1="779.23" y1="991.29" x2="779.23" y2="997.86" class="up-wick"/>
<rect x="776.81" y="993.09" width="4.83" height="1.01" class="up-body"/>
<line x1="786.65" y1="983.25" x2="786.65" y2="991.13" class="up-wick"/>
<rect x="784.24" y="987.58" width="4.83" height="1.00" class="up-body"/>
<line x1="794.08" y1="980.41" x2="794.08" y2="983.45" class="down-wick"/>
<rect x="791.67" y="981.32" width="4.83" height="1.00" class="down-body"/>
<line x1="801.51" y1="984.47" x2="801.51" y2="989.53" class="down-wick"/>
<rect x="799.09" y="985.99" width="4.83" height="1.00" class="down-body"/>
<line x1="808.93" y1="987.96" x2="808.93" y2="996.92" class="down-wick"/>
<rect x="806.52" y="991.98" width="4.83" height="4.29" class="down-body"/>
<line x1="816.36" y1="995.57" x2="816.36" y2="1001.81" class="up-wick"/>
<rect x="813.95" y="998.00" width="4.83" height="1.00" class="up-body"/>
<line x1="823.79" y1="990.57" x2="823.79" y2="1001.35" class="up-wick"/>
<rect x="821.37" y="994.66" width="4.83" height="6.08" class="up-body"/>
<line x1="831.21" y1="981.86" x2="831.21" y2="985.33" class="down-wick"/>
<rect x="828.80" y="983.24" width="4.83" height="1.00" class="down-body"/>
<line x1="838.64" y1="969.83" x2="838.64" y2="978.64" class="down-wick"/>
<rect x="836.23" y="973.96" width="4.83" height="1.00" class="down-body"/>
<line x1="846.07" y1="970.66" x2="846.07" y2="975.53" class="up-wick"/>
<rect x="843.65" y="971.95" width="4.83" height="1.00" class="up-body"/>
<line x1="853.49" y1="970.35" x2="853.49" y2="975.55" class="down-wick"/>
<rect x="851.08" y="972.40" width="4.83" height="1.66" class="down-body"/>
<line x1="860.92" y1="975.51" x2="860.92" y2="980.04" class="up-wick"/>
<rect x="858.51" y="977.81" width="4.83" height="1.00" class="up-body"/>
<line x1="868.35" y1="981.42" x2="868.35" y2="989.57" class="down-wick"/>
<rect x="865.93" y="982.61" width="4.83" height="3.03" class="down-body"/>
<line x1="875.77" y1="986.42" x2="875.77" y2="1001.63" class="up-wick"/>
<rect x="873.36" y="990.14" width="4.83" height="7.39" class="up-body"/>
<line x1="883.20" y1="977.84" x2="883.20" y2="990.92" class="up-wick"/>
<rect x="880.78" y="978.71" width="4.83" height="11.81" class="up-body"/>
<line x1="890.62" y1="970.35" x2="890.62" y2="976.39" class="up-wick"/>
<rect x="888.21" y="973.95" width="4.83" height="2.29" class="up-body"/>
<line x1="898.05" y1="972.76" x2="898.05" y2="981.10" class="down-wick"/>
<rect x="895.64" y="973.31" width="4.83" height="7.60" class="down-body"/>
<line x1="905.48" y1="980.78" x2="905.48" y2="985.56" class="up-wick"/>
<rect x="903.06" y="981.38" width="4.83" height="1.00" class="up-body"/>
<line x1="912.90" y1="977.74" x2="912.90" y2="986.15" class="down-wick"/>
<rect x="910.49" y="978.56" width="4.83" height="7.60" class="down-body"/>
<line x1="920.33" y1="979.48" x2="920.33" y2="985.92" class="down-wick"/>
<rect x="917.92" y="979.86" width="4.83" height="4.59" class="down-body"/>
<line x1="927.76" y1="978.79" x2="927.76" y2="984.09" class="up-wick"/>
<rect x="925.34" y="983.00" width="4.83" height="1.09" class="up-body"/>
<line x1="935.18" y1="989.13" x2="935.18" y2="993.04" class="down-wick"/>
<rect x="932.77" y="989.29" width="4.83" height="1.00" class="down-body"/>
<line x1="942.61" y1="984.67" x2="942.61" y2="991.51" class="up-wick"/>
<rect x="940.20" y="986.81" width="4.83" height="1.00" class="up-body"/>
<line x1="950.04" y1="981.34" x2="950.04" y2="988.26" class="down-wick"/>
<rect x="947.62" y="982.33" width="4.83" height="1.99" class="down-body"/>
<line x1="957.46" y1="985.75" x2="957.46" y2="991.00" class="up-wick"/>
<rect x="955.05" y="986.65" width="4.83" height="1.42" class="up-body"/>
<line x1="964.89" y1="985.43" x2="964.89" y2="996.23" class="up-wick"/>
<rect x="962.48" y="986.45" width="4.83" height="6.91" class="up-body"/>
<line x1="972.32" y1="984.85" x2="972.32" y2="996.37" class="down-wick"/>
<rect x="969.90" y="986.21" width="4.83" height="8.85" class="down-body"/>
<line x1="979.74" y1="983.15" x2="979.74" y2="990.59" class="up-wick"/>
<rect x="977.33" y="983.15" width="4.83" height="7.08" class="up-body"/>
<line x1="987.17" y1="975.38" x2="987.17" y2="980.26" class="up-wick"/>
<rect x="984.76" y="976.79" width="4.83" height="2.34" class="up-body"/>
<line x1="994.60" y1="975.14" x2="994.60" y2="980.76" class="down-wick"/>
<rect x="992.18" y="978.07" width="4.83" height="1.60" class="down-body"/>
<line x1="1002.02" y1="978.58" x2="1002.02" y2="981.94" class="down-wick"/>
<rect x="999.61" y="978.58" width="4.83" height="2.79" class="down-body"/>
<line x1="1009.45" y1="982.98" x2="1009.45" y2="989.80" class="up-wick"/>
<rect x="1007.03" y="983.02" width="4.83" height="3.33" class="up-body"/>
<line x1="1016.88" y1="981.67" x2="1016.88" y2="984.80" class="down-wick"/>
<rect x="1014.46" y="982.50" width="4.83" height="1.92" class="down-body"/>
<line x1="1024.30" y1="984.59" x2="1024.30" y2="987.89" class="down-wick"/>
<rect x="1021.89" y="986.02" width="4.83" height="1.00" class="down-body"/>
<line x1="1031.73" y1="986.44" x2="1031.73" y2="991.49" class="down-wick"/>
<rect x="1029.31" y="987.39" width="4.83" height="1.07" class="down-body"/>
<line x1="1039.15" y1="980.12" x2="1039.15" y2="987.77" class="up-wick"/>
<rect x="1036.74" y="980.57" width="4.83" height="6.49" class="up-body"/>
<line x1="1046.58" y1="980.78" x2="1046.58" y2="984.85" class="up-wick"/>
<rect x="1044.17" y="982.63" width="4.83" height="1.09" class="up-body"/>
<line x1="1054.01" y1="977.47" x2="1054.01" y2="980.91" class="up-wick"/>
<rect x="1051.59" y="977.82" width="4.83" height="1.00" class="up-body"/>
<line x1="1061.43" y1="972.27" x2="1061.43" y2="975.91" class="up-wick"/>
<rect x="1059.02" y="973.25" width="4.83" height="1.15" class="up-body"/>
<line x1="1068.86" y1="970.59" x2="1068.86" y2="975.70" class="down-wick"/>
<rect x="1066.45" y="970.63" width="4.83" height="4.27" class="down-body"/>
<line x1="1076.29" y1="971.48" x2="1076.29" y2="978.19" class="up-wick"/>
<rect x="1073.87" y="973.08" width="4.83" height="4.72" class="up-body"/>
<line x1="70" y1="975.22" x2="1080" y2="975.22" class="sweep-line"/>
<text x="1076" y="971.22" text-anchor="end" class="level-label">sweep 5307.27</text>
<line x1="70" y1="956.71" x2="1080" y2="956.71" class="entry-line"/>
<text x="1076" y="952.71" text-anchor="end" class="level-label">entry level 5324.65</text>
<text x="70" y="1056" class="axis-label">2026-03-02 15:00:00+00:00 to 2026-03-02 19:30:00+00:00</text>
<text x="1080" y="1056" text-anchor="end" class="axis-label">5248.34 - 5428.57</text>
</svg>