<svg xmlns="http://www.w3.org/2000/svg" width="1120" height="1054" viewBox="0 0 1120 1054">
<style>
text{font-family:Arial,Helvetica,sans-serif}.title{font-size:21px;font-weight:700;fill:#1f2937}.subtitle{font-size:12px;fill:#4b5563}.panel-title{font-size:15px;font-weight:700;fill:#111827}.muted{font-size:13px;fill:#6b7280}.plot-bg{fill:#f8fafc;stroke:#cbd5e1;stroke-width:1}.up-body{fill:#15803d;stroke:#14532d;stroke-width:.8}.down-body{fill:#b91c1c;stroke:#7f1d1d;stroke-width:.8}.up-wick{stroke:#14532d;stroke-width:1}.down-wick{stroke:#7f1d1d;stroke-width:1}.sweep-line{stroke:#7c3aed;stroke-width:1.6;stroke-dasharray:6 4}.number-line{stroke:#0f766e;stroke-width:1.4;stroke-dasharray:3 4}.entry-line{stroke:#2563eb;stroke-width:1.4}.sl-line{stroke:#dc2626;stroke-width:1.4}.tp-line{stroke:#16a34a;stroke-width:1.4}.level-label,.axis-label{font-size:11px;fill:#374151}
</style>
<text x="28" y="28" class="title">Adelin v2 visual review sample sample_268</text>
<text x="28" y="48" class="subtitle">Candidate windows are for visual labeling only and are not trade signals.</text>
<text x="560" y="48" class="subtitle" text-anchor="middle">NUMBER_THEORY_LEVEL_NEAR | ROUND_LEVEL_ENTRY_METADATA_AVAILABLE</text>
<text x="70" y="82" class="panel-title">H1 liquidity context</text>
<rect x="70" y="96" width="1010" height="192" class="plot-bg"/>
<line x1="80.98" y1="260.34" x2="80.98" y2="269.20" class="up-wick"/>
<rect x="76.98" y="260.35" width="8.00" height="7.74" class="up-body"/>
<line x1="102.93" y1="248.89" x2="102.93" y2="260.45" class="up-wick"/>
<rect x="98.93" y="254.90" width="8.00" height="5.44" class="up-body"/>
<line x1="124.89" y1="250.09" x2="124.89" y2="264.15" class="down-wick"/>
<rect x="120.89" y="254.90" width="8.00" height="8.92" class="down-body"/>
<line x1="146.85" y1="248.40" x2="146.85" y2="264.85" class="up-wick"/>
<rect x="142.85" y="249.59" width="8.00" height="14.23" class="up-body"/>
<line x1="168.80" y1="240.89" x2="168.80" y2="250.50" class="down-wick"/>
<rect x="164.80" y="249.59" width="8.00" height="1.00" class="down-body"/>
<line x1="190.76" y1="243.56" x2="190.76" y2="255.53" class="up-wick"/>
<rect x="186.76" y="245.94" width="8.00" height="4.47" class="up-body"/>
<line x1="212.72" y1="245.85" x2="212.72" y2="258.14" class="down-wick"/>
<rect x="208.72" y="245.94" width="8.00" height="11.04" class="down-body"/>
<line x1="234.67" y1="251.05" x2="234.67" y2="263.60" class="up-wick"/>
<rect x="230.67" y="251.96" width="8.00" height="5.03" class="up-body"/>
<line x1="256.63" y1="236.99" x2="256.63" y2="256.32" class="up-wick"/>
<rect x="252.63" y="240.28" width="8.00" height="11.69" class="up-body"/>
<line x1="278.59" y1="229.53" x2="278.59" y2="244.35" class="up-wick"/>
<rect x="274.59" y="233.41" width="8.00" height="6.87" class="up-body"/>
<line x1="300.54" y1="227.18" x2="300.54" y2="274.76" class="down-wick"/>
<rect x="296.54" y="233.42" width="8.00" height="7.41" class="down-body"/>
<line x1="322.50" y1="224.02" x2="322.50" y2="243.31" class="up-wick"/>
<rect x="318.50" y="225.61" width="8.00" height="15.22" class="up-body"/>
<line x1="344.46" y1="219.44" x2="344.46" y2="233.28" class="up-wick"/>
<rect x="340.46" y="221.62" width="8.00" height="3.99" class="up-body"/>
<line x1="366.41" y1="220.28" x2="366.41" y2="233.67" class="down-wick"/>
<rect x="362.41" y="221.63" width="8.00" height="1.00" class="down-body"/>
<line x1="388.37" y1="217.23" x2="388.37" y2="224.31" class="up-wick"/>
<rect x="384.37" y="217.47" width="8.00" height="5.12" class="up-body"/>
<line x1="410.33" y1="205.62" x2="410.33" y2="219.18" class="up-wick"/>
<rect x="406.33" y="206.47" width="8.00" height="11.00" class="up-body"/>
<line x1="432.28" y1="199.46" x2="432.28" y2="209.77" class="up-wick"/>
<rect x="428.28" y="199.91" width="8.00" height="6.55" class="up-body"/>
<line x1="454.24" y1="158.75" x2="454.24" y2="202.75" class="up-wick"/>
<rect x="450.24" y="162.88" width="8.00" height="35.51" class="up-body"/>
<line x1="476.20" y1="162.04" x2="476.20" y2="185.64" class="down-wick"/>
<rect x="472.20" y="162.88" width="8.00" height="13.18" class="down-body"/>
<line x1="498.15" y1="161.35" x2="498.15" y2="178.95" class="up-wick"/>
<rect x="494.15" y="167.86" width="8.00" height="8.21" class="up-body"/>
<line x1="520.11" y1="155.62" x2="520.11" y2="168.33" class="up-wick"/>
<rect x="516.11" y="157.52" width="8.00" height="10.36" class="up-body"/>
<line x1="542.07" y1="156.14" x2="542.07" y2="171.44" class="down-wick"/>
<rect x="538.07" y="157.50" width="8.00" height="4.49" class="down-body"/>
<line x1="564.02" y1="160.67" x2="564.02" y2="169.13" class="down-wick"/>
<rect x="560.02" y="161.99" width="8.00" height="3.79" class="down-body"/>
<line x1="585.98" y1="165.15" x2="585.98" y2="171.24" class="down-wick"/>
<rect x="581.98" y="165.76" width="8.00" height="1.58" class="down-body"/>
<line x1="607.93" y1="165.22" x2="607.93" y2="175.79" class="down-wick"/>
<rect x="603.93" y="167.35" width="8.00" height="7.97" class="down-body"/>
<line x1="629.89" y1="169.95" x2="629.89" y2="188.56" class="down-wick"/>
<rect x="625.89" y="175.32" width="8.00" height="5.75" class="down-body"/>
<line x1="651.85" y1="177.58" x2="651.85" y2="190.25" class="up-wick"/>
<rect x="647.85" y="178.77" width="8.00" height="2.30" class="up-body"/>
<line x1="673.80" y1="172.55" x2="673.80" y2="179.55" class="up-wick"/>
<rect x="669.80" y="172.94" width="8.00" height="5.86" class="up-body"/>
<line x1="695.76" y1="163.98" x2="695.76" y2="175.77" class="up-wick"/>
<rect x="691.76" y="164.44" width="8.00" height="8.49" class="up-body"/>
<line x1="717.72" y1="164.08" x2="717.72" y2="174.87" class="down-wick"/>
<rect x="713.72" y="164.44" width="8.00" height="8.35" class="down-body"/>
<line x1="739.67" y1="162.79" x2="739.67" y2="175.50" class="up-wick"/>
<rect x="735.67" y="163.67" width="8.00" height="9.12" class="up-body"/>
<line x1="761.63" y1="162.89" x2="761.63" y2="176.62" class="down-wick"/>
<rect x="757.63" y="163.67" width="8.00" height="11.29" class="down-body"/>
<line x1="783.59" y1="140.56" x2="783.59" y2="178.11" class="up-wick"/>
<rect x="779.59" y="145.57" width="8.00" height="29.39" class="up-body"/>
<line x1="805.54" y1="137.68" x2="805.54" y2="153.07" class="up-wick"/>
<rect x="801.54" y="143.27" width="8.00" height="2.29" class="up-body"/>
<line x1="827.50" y1="128.74" x2="827.50" y2="156.16" class="up-wick"/>
<rect x="823.50" y="134.47" width="8.00" height="8.86" class="up-body"/>
<line x1="849.46" y1="132.22" x2="849.46" y2="146.60" class="down-wick"/>
<rect x="845.46" y="134.47" width="8.00" height="1.37" class="down-body"/>
<line x1="871.41" y1="130.77" x2="871.41" y2="140.16" class="up-wick"/>
<rect x="867.41" y="134.77" width="8.00" height="1.06" class="up-body"/>
<line x1="893.37" y1="129.20" x2="893.37" y2="136.65" class="up-wick"/>
<rect x="889.37" y="130.89" width="8.00" height="3.88" class="up-body"/>
<line x1="915.33" y1="116.74" x2="915.33" y2="131.38" class="up-wick"/>
<rect x="911.33" y="117.76" width="8.00" height="13.16" class="up-body"/>
<line x1="937.28" y1="116.88" x2="937.28" y2="123.96" class="down-wick"/>
<rect x="933.28" y="117.78" width="8.00" height="5.30" class="down-body"/>
<line x1="959.24" y1="109.24" x2="959.24" y2="126.69" class="up-wick"/>
<rect x="955.24" y="118.12" width="8.00" height="4.95" class="up-body"/>
<line x1="981.20" y1="116.58" x2="981.20" y2="129.32" class="down-wick"/>
<rect x="977.20" y="118.17" width="8.00" height="7.53" class="down-body"/>
<line x1="1003.15" y1="125.55" x2="1003.15" y2="175.68" class="down-wick"/>
<rect x="999.15" y="125.70" width="8.00" height="29.52" class="down-body"/>
<line x1="1025.11" y1="146.70" x2="1025.11" y2="162.72" class="up-wick"/>
<rect x="1021.11" y="147.31" width="8.00" height="7.91" class="up-body"/>
<line x1="1047.07" y1="146.01" x2="1047.07" y2="159.22" class="down-wick"/>
<rect x="1043.07" y="147.31" width="8.00" height="11.35" class="down-body"/>
<line x1="1069.02" y1="156.69" x2="1069.02" y2="165.76" class="down-wick"/>
<rect x="1065.02" y="158.67" width="8.00" height="2.38" class="down-body"/>
<line x1="70" y1="166.30" x2="1080" y2="166.30" class="number-line"/>
<text x="1076" y="162.30" text-anchor="end" class="level-label">round 5160.00</text>
<line x1="70" y1="166.30" x2="1080" y2="166.30" class="entry-line"/>
<text x="1076" y="162.30" text-anchor="end" class="level-label">entry level 5160.00</text>
<text x="70" y="306" class="axis-label">2026-02-20 07:00:00+00:00 to 2026-02-24 06:00:00+00:00</text>
<text x="1080" y="306" text-anchor="end" class="axis-label">4968.57 - 5270.59</text>
<text x="70" y="332" class="panel-title">M15 liquidity / reaction context</text>
<rect x="70" y="346" width="1010" height="192" class="plot-bg"/>
<line x1="80.98" y1="426.39" x2="80.98" y2="524.76" class="up-wick"/>
<rect x="76.98" y="427.02" width="8.00" height="82.40" class="up-body"/>
<line x1="102.93" y1="414.52" x2="102.93" y2="440.10" class="down-wick"/>
<rect x="98.93" y="427.02" width="8.00" height="1.00" class="down-body"/>
<line x1="124.89" y1="398.04" x2="124.89" y2="431.02" class="up-wick"/>
<rect x="120.89" y="399.90" width="8.00" height="27.50" class="up-body"/>
<line x1="146.85" y1="370.25" x2="146.85" y2="410.75" class="up-wick"/>
<rect x="142.85" y="384.74" width="8.00" height="15.16" class="up-body"/>
<line x1="168.80" y1="381.81" x2="168.80" y2="457.85" class="down-wick"/>
<rect x="164.80" y="384.74" width="8.00" height="60.39" class="down-body"/>
<line x1="190.76" y1="411.21" x2="190.76" y2="464.68" class="up-wick"/>
<rect x="186.76" y="411.73" width="8.00" height="33.40" class="up-body"/>
<line x1="212.72" y1="394.56" x2="212.72" y2="442.47" class="down-wick"/>
<rect x="208.72" y="411.50" width="8.00" height="28.04" class="down-body"/>
<line x1="234.67" y1="427.00" x2="234.67" y2="452.25" class="up-wick"/>
<rect x="230.67" y="431.04" width="8.00" height="8.51" class="up-body"/>
<line x1="256.63" y1="400.92" x2="256.63" y2="441.20" class="up-wick"/>
<rect x="252.63" y="424.47" width="8.00" height="6.59" class="up-body"/>
<line x1="278.59" y1="397.82" x2="278.59" y2="427.11" class="up-wick"/>
<rect x="274.59" y="398.49" width="8.00" height="26.01" class="up-body"/>
<line x1="300.54" y1="381.95" x2="300.54" y2="406.91" class="up-wick"/>
<rect x="296.54" y="383.13" width="8.00" height="15.38" class="up-body"/>
<line x1="322.50" y1="379.38" x2="322.50" y2="405.28" class="down-wick"/>
<rect x="318.50" y="383.13" width="8.00" height="19.09" class="down-body"/>
<line x1="344.46" y1="380.92" x2="344.46" y2="403.89" class="up-wick"/>
<rect x="340.46" y="395.43" width="8.00" height="6.85" class="up-body"/>
<line x1="366.41" y1="380.38" x2="366.41" y2="402.19" class="up-wick"/>
<rect x="362.41" y="394.00" width="8.00" height="1.43" class="up-body"/>
<line x1="388.37" y1="359.24" x2="388.37" y2="394.29" class="up-wick"/>
<rect x="384.37" y="364.40" width="8.00" height="29.65" class="up-body"/>
<line x1="410.33" y1="359.71" x2="410.33" y2="388.26" class="down-wick"/>
<rect x="406.33" y="364.40" width="8.00" height="1.52" class="down-body"/>
<line x1="432.28" y1="361.07" x2="432.28" y2="414.81" class="down-wick"/>
<rect x="428.28" y="365.85" width="8.00" height="35.01" class="down-body"/>
<line x1="454.24" y1="386.37" x2="454.24" y2="411.01" class="up-wick"/>
<rect x="450.24" y="387.30" width="8.00" height="13.55" class="up-body"/>
<line x1="476.20" y1="372.61" x2="476.20" y2="387.28" class="up-wick"/>
<rect x="472.20" y="377.24" width="8.00" height="10.05" class="up-body"/>
<line x1="498.15" y1="371.56" x2="498.15" y2="382.21" class="down-wick"/>
<rect x="494.15" y="377.26" width="8.00" height="4.35" class="down-body"/>
<line x1="520.11" y1="376.97" x2="520.11" y2="406.70" class="down-wick"/>
<rect x="516.11" y="381.61" width="8.00" height="9.82" class="down-body"/>
<line x1="542.07" y1="386.14" x2="542.07" y2="398.73" class="down-wick"/>
<rect x="538.07" y="391.43" width="8.00" height="4.69" class="down-body"/>
<line x1="564.02" y1="388.35" x2="564.02" y2="405.74" class="down-wick"/>
<rect x="560.02" y="396.12" width="8.00" height="1.81" class="down-body"/>
<line x1="585.98" y1="392.77" x2="585.98" y2="401.08" class="up-wick"/>
<rect x="581.98" y="394.92" width="8.00" height="3.01" class="up-body"/>
<line x1="607.93" y1="392.71" x2="607.93" y2="414.12" class="down-wick"/>
<rect x="603.93" y="394.87" width="8.00" height="5.42" class="down-body"/>
<line x1="629.89" y1="397.98" x2="629.89" y2="412.29" class="down-wick"/>
<rect x="625.89" y="400.30" width="8.00" height="1.21" class="down-body"/>
<line x1="651.85" y1="401.15" x2="651.85" y2="411.21" class="down-wick"/>
<rect x="647.85" y="401.50" width="8.00" height="1.94" class="down-body"/>
<line x1="673.80" y1="397.08" x2="673.80" y2="405.36" class="up-wick"/>
<rect x="669.80" y="400.41" width="8.00" height="3.04" class="up-body"/>
<line x1="695.76" y1="394.45" x2="695.76" y2="402.62" class="up-wick"/>
<rect x="691.76" y="397.91" width="8.00" height="2.52" class="up-body"/>
<line x1="717.72" y1="392.95" x2="717.72" y2="413.67" class="down-wick"/>
<rect x="713.72" y="397.93" width="8.00" height="14.96" class="down-body"/>
<line x1="739.67" y1="403.09" x2="739.67" y2="426.06" class="down-wick"/>
<rect x="735.67" y="412.84" width="8.00" height="9.85" class="down-body"/>
<line x1="761.63" y1="411.71" x2="761.63" y2="430.08" class="down-wick"/>
<rect x="757.63" y="422.60" width="8.00" height="5.83" class="down-body"/>
<line x1="783.59" y1="409.56" x2="783.59" y2="445.62" class="up-wick"/>
<rect x="779.59" y="425.84" width="8.00" height="2.59" class="up-body"/>
<line x1="805.54" y1="420.50" x2="805.54" y2="474.48" class="down-wick"/>
<rect x="801.54" y="425.84" width="8.00" height="23.35" class="down-body"/>
<line x1="827.50" y1="447.45" x2="827.50" y2="474.93" class="up-wick"/>
<rect x="823.50" y="448.59" width="8.00" height="1.00" class="up-body"/>
<line x1="849.46" y1="442.85" x2="849.46" y2="452.85" class="down-wick"/>
<rect x="845.46" y="448.59" width="8.00" height="1.00" class="down-body"/>
<line x1="871.41" y1="442.13" x2="871.41" y2="461.13" class="up-wick"/>
<rect x="867.41" y="445.15" width="8.00" height="3.48" class="up-body"/>
<line x1="893.37" y1="442.09" x2="893.37" y2="480.76" class="down-wick"/>
<rect x="889.37" y="445.15" width="8.00" height="28.78" class="down-body"/>
<line x1="915.33" y1="458.27" x2="915.33" y2="480.87" class="up-wick"/>
<rect x="911.33" y="467.96" width="8.00" height="6.03" class="up-body"/>
<line x1="937.28" y1="436.37" x2="937.28" y2="468.79" class="up-wick"/>
<rect x="933.28" y="440.55" width="8.00" height="27.42" class="up-body"/>
<line x1="959.24" y1="425.90" x2="959.24" y2="443.27" class="up-wick"/>
<rect x="955.24" y="428.09" width="8.00" height="12.55" class="up-body"/>
<line x1="981.20" y1="419.94" x2="981.20" y2="430.46" class="up-wick"/>
<rect x="977.20" y="420.84" width="8.00" height="7.23" class="up-body"/>
<line x1="1003.15" y1="418.72" x2="1003.15" y2="433.99" class="down-wick"/>
<rect x="999.15" y="420.84" width="8.00" height="5.29" class="down-body"/>
<line x1="1025.11" y1="419.50" x2="1025.11" y2="431.66" class="up-wick"/>
<rect x="1021.11" y="420.08" width="8.00" height="6.05" class="up-body"/>
<line x1="1047.07" y1="411.97" x2="1047.07" y2="426.98" class="up-wick"/>
<rect x="1043.07" y="419.90" width="8.00" height="1.00" class="up-body"/>
<line x1="1069.02" y1="404.27" x2="1069.02" y2="420.48" class="up-wick"/>
<rect x="1065.02" y="405.34" width="8.00" height="14.56" class="up-body"/>
<line x1="70" y1="396.77" x2="1080" y2="396.77" class="number-line"/>
<text x="1076" y="392.77" text-anchor="end" class="level-label">round 5160.00</text>
<line x1="70" y1="396.77" x2="1080" y2="396.77" class="entry-line"/>
<text x="1076" y="392.77" text-anchor="end" class="level-label">entry level 5160.00</text>
<text x="70" y="556" class="axis-label">2026-02-23 01:00:00+00:00 to 2026-02-23 12:15:00+00:00</text>
<text x="1080" y="556" text-anchor="end" class="axis-label">5096.74 - 5182.74</text>
<text x="70" y="582" class="panel-title">M5 reaction / execution context</text>
<rect x="70" y="596" width="1010" height="192" class="plot-bg"/>
<line x1="79.18" y1="609.24" x2="79.18" y2="634.62" class="down-wick"/>
<rect x="75.18" y="618.27" width="8.00" height="15.83" class="down-body"/>
<line x1="97.55" y1="622.96" x2="97.55" y2="664.26" class="up-wick"/>
<rect x="93.55" y="622.96" width="8.00" height="11.14" class="up-body"/>
<line x1="115.91" y1="618.23" x2="115.91" y2="630.53" class="up-wick"/>
<rect x="111.91" y="621.20" width="8.00" height="1.76" class="up-body"/>
<line x1="134.27" y1="611.87" x2="134.27" y2="629.85" class="down-wick"/>
<rect x="130.27" y="621.07" width="8.00" height="6.71" class="down-body"/>
<line x1="152.64" y1="615.74" x2="152.64" y2="666.23" class="down-wick"/>
<rect x="148.64" y="627.78" width="8.00" height="31.62" class="down-body"/>
<line x1="171.00" y1="658.41" x2="171.00" y2="715.40" class="down-wick"/>
<rect x="167.00" y="659.40" width="8.00" height="29.12" class="down-body"/>
<line x1="189.36" y1="684.69" x2="189.36" y2="708.09" class="down-wick"/>
<rect x="185.36" y="688.52" width="8.00" height="11.27" class="down-body"/>
<line x1="207.73" y1="670.36" x2="207.73" y2="700.13" class="up-wick"/>
<rect x="203.73" y="672.30" width="8.00" height="27.49" class="up-body"/>
<line x1="226.09" y1="660.60" x2="226.09" y2="672.69" class="up-wick"/>
<rect x="222.09" y="662.41" width="8.00" height="9.85" class="up-body"/>
<line x1="244.45" y1="639.95" x2="244.45" y2="662.36" class="up-wick"/>
<rect x="240.45" y="652.21" width="8.00" height="10.15" class="up-body"/>
<line x1="262.82" y1="634.10" x2="262.82" y2="656.69" class="up-wick"/>
<rect x="258.82" y="643.39" width="8.00" height="8.82" class="up-body"/>
<line x1="281.18" y1="635.91" x2="281.18" y2="650.96" class="up-wick"/>
<rect x="277.18" y="643.01" width="8.00" height="1.00" class="up-body"/>
<line x1="299.55" y1="635.74" x2="299.55" y2="644.04" class="up-wick"/>
<rect x="295.55" y="636.86" width="8.00" height="6.19" class="up-body"/>
<line x1="317.91" y1="632.08" x2="317.91" y2="645.11" class="up-wick"/>
<rect x="313.91" y="636.73" width="8.00" height="1.00" class="up-body"/>
<line x1="336.27" y1="634.10" x2="336.27" y2="652.60" class="down-wick"/>
<rect x="332.27" y="636.73" width="8.00" height="14.71" class="down-body"/>
<line x1="354.64" y1="642.49" x2="354.64" y2="671.74" class="down-wick"/>
<rect x="350.64" y="651.44" width="8.00" height="16.35" class="down-body"/>
<line x1="373.00" y1="658.23" x2="373.00" y2="699.79" class="down-wick"/>
<rect x="369.00" y="667.78" width="8.00" height="30.32" class="down-body"/>
<line x1="391.36" y1="661.16" x2="391.36" y2="697.59" class="up-wick"/>
<rect x="387.36" y="670.36" width="8.00" height="27.23" class="up-body"/>
<line x1="409.73" y1="660.47" x2="409.73" y2="677.59" class="up-wick"/>
<rect x="405.73" y="662.28" width="8.00" height="8.09" class="up-body"/>
<line x1="428.09" y1="660.17" x2="428.09" y2="674.88" class="down-wick"/>
<rect x="424.09" y="662.28" width="8.00" height="8.17" class="down-body"/>
<line x1="446.45" y1="670.45" x2="446.45" y2="684.43" class="down-wick"/>
<rect x="442.45" y="670.45" width="8.00" height="8.95" class="down-body"/>
<line x1="464.82" y1="664.43" x2="464.82" y2="686.71" class="down-wick"/>
<rect x="460.82" y="679.40" width="8.00" height="5.38" class="down-body"/>
<line x1="483.18" y1="680.00" x2="483.18" y2="697.94" class="up-wick"/>
<rect x="479.18" y="683.87" width="8.00" height="1.00" class="up-body"/>
<line x1="501.55" y1="675.48" x2="501.55" y2="685.94" class="up-wick"/>
<rect x="497.55" y="682.88" width="8.00" height="1.00" class="up-body"/>
<line x1="519.91" y1="672.94" x2="519.91" y2="687.40" class="up-wick"/>
<rect x="515.91" y="676.95" width="8.00" height="5.94" class="up-body"/>
<line x1="538.27" y1="676.73" x2="538.27" y2="688.95" class="down-wick"/>
<rect x="534.27" y="676.95" width="8.00" height="6.37" class="down-body"/>
<line x1="556.64" y1="673.59" x2="556.64" y2="683.87" class="up-wick"/>
<rect x="552.64" y="677.07" width="8.00" height="6.24" class="up-body"/>
<line x1="575.00" y1="672.82" x2="575.00" y2="702.28" class="down-wick"/>
<rect x="571.00" y="676.99" width="8.00" height="24.95" class="down-body"/>
<line x1="593.36" y1="693.42" x2="593.36" y2="714.07" class="up-wick"/>
<rect x="589.36" y="696.56" width="8.00" height="5.38" class="up-body"/>
<line x1="611.73" y1="678.84" x2="611.73" y2="703.48" class="up-wick"/>
<rect x="607.73" y="687.44" width="8.00" height="9.12" class="up-body"/>
<line x1="630.09" y1="682.97" x2="630.09" y2="702.32" class="down-wick"/>
<rect x="626.09" y="687.44" width="8.00" height="14.84" class="down-body"/>
<line x1="648.45" y1="693.59" x2="648.45" y2="710.54" class="down-wick"/>
<rect x="644.45" y="702.28" width="8.00" height="1.76" class="down-body"/>
<line x1="666.82" y1="688.99" x2="666.82" y2="707.53" class="up-wick"/>
<rect x="662.82" y="689.76" width="8.00" height="14.28" class="up-body"/>
<line x1="685.18" y1="689.08" x2="685.18" y2="702.67" class="down-wick"/>
<rect x="681.18" y="689.76" width="8.00" height="11.14" class="down-body"/>
<line x1="703.55" y1="694.71" x2="703.55" y2="708.47" class="down-wick"/>
<rect x="699.55" y="700.60" width="8.00" height="6.84" class="down-body"/>
<line x1="721.91" y1="693.33" x2="721.91" y2="708.04" class="up-wick"/>
<rect x="717.91" y="693.51" width="8.00" height="13.94" class="up-body"/>
<line x1="740.27" y1="681.25" x2="740.27" y2="695.70" class="up-wick"/>
<rect x="736.27" y="686.06" width="8.00" height="7.44" class="up-body"/>
<line x1="758.64" y1="685.46" x2="758.64" y2="697.20" class="down-wick"/>
<rect x="754.64" y="686.06" width="8.00" height="1.00" class="down-body"/>
<line x1="777.00" y1="683.53" x2="777.00" y2="692.30" class="down-wick"/>
<rect x="773.00" y="686.80" width="8.00" height="1.00" class="down-body"/>
<line x1="795.36" y1="676.17" x2="795.36" y2="690.80" class="up-wick"/>
<rect x="791.36" y="683.53" width="8.00" height="4.17" class="up-body"/>
<line x1="813.73" y1="676.56" x2="813.73" y2="691.91" class="down-wick"/>
<rect x="809.73" y="683.44" width="8.00" height="4.17" class="down-body"/>
<line x1="832.09" y1="678.02" x2="832.09" y2="688.77" class="up-wick"/>
<rect x="828.09" y="682.84" width="8.00" height="4.77" class="up-body"/>
<line x1="850.45" y1="677.29" x2="850.45" y2="685.20" class="up-wick"/>
<rect x="846.45" y="677.46" width="8.00" height="5.42" class="up-body"/>
<line x1="868.82" y1="673.29" x2="868.82" y2="687.78" class="down-wick"/>
<rect x="864.82" y="677.46" width="8.00" height="9.89" class="down-body"/>
<line x1="887.18" y1="676.69" x2="887.18" y2="713.21" class="down-wick"/>
<rect x="883.18" y="687.35" width="8.00" height="24.35" class="down-body"/>
<line x1="905.55" y1="695.31" x2="905.55" y2="715.40" class="up-wick"/>
<rect x="901.55" y="697.55" width="8.00" height="14.07" class="up-body"/>
<line x1="923.91" y1="692.82" x2="923.91" y2="713.16" class="down-wick"/>
<rect x="919.91" y="697.55" width="8.00" height="7.48" class="down-body"/>
<line x1="942.27" y1="702.15" x2="942.27" y2="737.08" class="down-wick"/>
<rect x="938.27" y="705.03" width="8.00" height="25.55" class="down-body"/>
<line x1="960.64" y1="709.68" x2="960.64" y2="739.83" class="up-wick"/>
<rect x="956.64" y="714.45" width="8.00" height="15.96" class="up-body"/>
<line x1="979.00" y1="709.42" x2="979.00" y2="731.31" class="down-wick"/>
<rect x="975.00" y="713.89" width="8.00" height="15.10" class="down-body"/>
<line x1="997.36" y1="726.63" x2="997.36" y2="744.82" class="down-wick"/>
<rect x="993.36" y="728.99" width="8.00" height="12.65" class="down-body"/>
<line x1="1015.73" y1="725.64" x2="1015.73" y2="767.92" class="down-wick"/>
<rect x="1011.73" y="741.64" width="8.00" height="24.86" class="down-body"/>
<line x1="1034.09" y1="705.29" x2="1034.09" y2="774.76" class="up-wick"/>
<rect x="1030.09" y="719.57" width="8.00" height="46.93" class="up-body"/>
<line x1="1052.45" y1="719.57" x2="1052.45" y2="736.65" class="down-wick"/>
<rect x="1048.45" y="719.57" width="8.00" height="17.08" class="down-body"/>
<line x1="1070.82" y1="726.37" x2="1070.82" y2="746.46" class="down-wick"/>
<rect x="1066.82" y="736.65" width="8.00" height="7.96" class="down-body"/>
<line x1="70" y1="680.64" x2="1080" y2="680.64" class="number-line"/>
<text x="1076" y="676.64" text-anchor="end" class="level-label">round 5160.00</text>
<line x1="70" y1="680.64" x2="1080" y2="680.64" class="entry-line"/>
<text x="1076" y="676.64" text-anchor="end" class="level-label">entry level 5160.00</text>
<text x="70" y="806" class="axis-label">2026-02-23 04:45:00+00:00 to 2026-02-23 09:15:00+00:00</text>
<text x="1080" y="806" text-anchor="end" class="axis-label">5135.04 - 5179.68</text>
<text x="70" y="832" class="panel-title">M1 execution window</text>
<rect x="70" y="846" width="1010" height="192" class="plot-bg"/>
<line x1="73.71" y1="859.24" x2="73.71" y2="870.08" class="up-wick"/>
<rect x="71.30" y="864.36" width="4.83" height="3.91" class="up-body"/>
<line x1="81.14" y1="865.99" x2="81.14" y2="871.29" class="down-wick"/>
<rect x="78.73" y="867.50" width="4.83" height="3.53" class="down-body"/>
<line x1="88.57" y1="872.70" x2="88.57" y2="884.62" class="down-wick"/>
<rect x="86.15" y="873.31" width="4.83" height="10.80" class="down-body"/>
<line x1="95.99" y1="900.53" x2="95.99" y2="914.26" class="up-wick"/>
<rect x="93.58" y="900.62" width="4.83" height="1.55" class="up-body"/>
<line x1="103.42" y1="885.74" x2="103.42" y2="889.52" class="up-wick"/>
<rect x="101.01" y="888.62" width="4.83" height="1.00" class="up-body"/>
<line x1="110.85" y1="872.36" x2="110.85" y2="879.41" class="down-wick"/>
<rect x="108.43" y="872.96" width="4.83" height="1.00" class="down-body"/>
<line x1="118.27" y1="868.23" x2="118.27" y2="874.00" class="down-wick"/>
<rect x="115.86" y="872.32" width="4.83" height="1.68" class="down-body"/>
<line x1="125.70" y1="869.18" x2="125.70" y2="880.53" class="up-wick"/>
<rect x="123.28" y="871.20" width="4.83" height="8.95" class="up-body"/>
<line x1="133.12" y1="861.87" x2="133.12" y2="869.91" class="up-wick"/>
<rect x="130.71" y="865.52" width="4.83" height="4.22" class="up-body"/>
<line x1="140.55" y1="864.36" x2="140.55" y2="875.97" class="down-wick"/>
<rect x="138.14" y="865.44" width="4.83" height="8.86" class="down-body"/>
<line x1="147.98" y1="877.26" x2="147.98" y2="880.66" class="down-wick"/>
<rect x="145.56" y="877.78" width="4.83" height="1.33" class="down-body"/>
<line x1="155.40" y1="871.80" x2="155.40" y2="890.08" class="down-wick"/>
<rect x="152.99" y="871.97" width="4.83" height="14.50" class="down-body"/>
<line x1="162.83" y1="877.69" x2="162.83" y2="916.23" class="down-wick"/>
<rect x="160.42" y="883.20" width="4.83" height="26.20" class="down-body"/>
<line x1="170.26" y1="922.47" x2="170.26" y2="939.38" class="down-wick"/>
<rect x="167.84" y="926.34" width="4.83" height="8.17" class="down-body"/>
<line x1="177.68" y1="928.62" x2="177.68" y2="960.45" class="up-wick"/>
<rect x="175.27" y="928.62" width="4.83" height="31.66" class="up-body"/>
<line x1="185.11" y1="938.52" x2="185.11" y2="956.45" class="down-wick"/>
<rect x="182.70" y="938.52" width="4.83" height="11.96" class="down-body"/>
<line x1="192.54" y1="941.78" x2="192.54" y2="951.29" class="up-wick"/>
<rect x="190.12" y="949.53" width="4.83" height="1.00" class="up-body"/>
<line x1="199.96" y1="947.81" x2="199.96" y2="951.94" class="up-wick"/>
<rect x="197.55" y="949.79" width="4.83" height="1.42" class="up-body"/>
<line x1="207.39" y1="927.72" x2="207.39" y2="938.34" class="up-wick"/>
<rect x="204.98" y="931.72" width="4.83" height="4.13" class="up-body"/>
<line x1="214.82" y1="922.26" x2="214.82" y2="928.06" class="up-wick"/>
<rect x="212.40" y="922.82" width="4.83" height="2.06" class="up-body"/>
<line x1="222.24" y1="910.60" x2="222.24" y2="922.39" class="up-wick"/>
<rect x="219.83" y="911.89" width="4.83" height="10.37" class="up-body"/>
<line x1="229.67" y1="911.16" x2="229.67" y2="922.69" class="up-wick"/>
<rect x="227.26" y="912.41" width="4.83" height="7.05" class="up-body"/>
<line x1="237.10" y1="911.68" x2="237.10" y2="916.28" class="up-wick"/>
<rect x="234.68" y="912.41" width="4.83" height="2.15" class="up-body"/>
<line x1="244.52" y1="892.41" x2="244.52" y2="904.06" class="down-wick"/>
<rect x="242.11" y="898.47" width="4.83" height="5.55" class="down-body"/>
<line x1="251.95" y1="897.09" x2="251.95" y2="906.64" class="up-wick"/>
<rect x="249.53" y="897.70" width="4.83" height="8.00" class="up-body"/>
<line x1="259.38" y1="887.42" x2="259.38" y2="906.69" class="up-wick"/>
<rect x="256.96" y="888.40" width="4.83" height="13.81" class="up-body"/>
<line x1="266.80" y1="884.10" x2="266.80" y2="890.56" class="down-wick"/>
<rect x="264.39" y="887.11" width="4.83" height="3.36" class="down-body"/>
<line x1="274.23" y1="888.58" x2="274.23" y2="893.74" class="down-wick"/>
<rect x="271.81" y="889.82" width="4.83" height="3.57" class="down-body"/>
<line x1="281.65" y1="886.64" x2="281.65" y2="888.88" class="down-wick"/>
<rect x="279.24" y="886.90" width="4.83" height="1.08" class="down-body"/>
<line x1="289.08" y1="888.92" x2="289.08" y2="895.89" class="down-wick"/>
<rect x="286.67" y="891.93" width="4.83" height="3.53" class="down-body"/>
<line x1="296.51" y1="885.78" x2="296.51" y2="894.04" class="up-wick"/>
<rect x="294.09" y="892.62" width="4.83" height="1.00" class="up-body"/>
<line x1="303.93" y1="887.85" x2="303.93" y2="891.97" class="up-wick"/>
<rect x="301.52" y="888.88" width="4.83" height="2.75" class="up-body"/>
<line x1="311.36" y1="885.74" x2="311.36" y2="890.04" class="down-wick"/>
<rect x="308.95" y="886.60" width="4.83" height="1.00" class="down-body"/>
<line x1="318.79" y1="889.18" x2="318.79" y2="895.11" class="down-wick"/>
<rect x="316.37" y="891.97" width="4.83" height="2.92" class="down-body"/>
<line x1="326.21" y1="882.47" x2="326.21" y2="887.93" class="up-wick"/>
<rect x="323.80" y="886.21" width="4.83" height="1.00" class="up-body"/>
<line x1="333.64" y1="884.10" x2="333.64" y2="902.13" class="down-wick"/>
<rect x="331.23" y="886.73" width="4.83" height="10.02" class="down-body"/>
<line x1="341.07" y1="898.73" x2="341.07" y2="902.60" class="up-wick"/>
<rect x="338.65" y="900.58" width="4.83" height="1.00" class="up-body"/>
<line x1="348.49" y1="897.61" x2="348.49" y2="901.48" class="down-wick"/>
<rect x="346.08" y="897.78" width="4.83" height="3.66" class="down-body"/>
<line x1="355.92" y1="892.49" x2="355.92" y2="897.61" class="down-wick"/>
<rect x="353.51" y="896.66" width="4.83" height="1.00" class="down-body"/>
<line x1="363.35" y1="902.86" x2="363.35" y2="921.74" class="down-wick"/>
<rect x="360.93" y="903.24" width="4.83" height="11.01" class="down-body"/>
<line x1="370.77" y1="913.35" x2="370.77" y2="923.63" class="up-wick"/>
<rect x="368.36" y="914.30" width="4.83" height="3.48" class="up-body"/>
<line x1="378.20" y1="911.55" x2="378.20" y2="923.16" class="down-wick"/>
<rect x="375.78" y="915.93" width="4.83" height="5.25" class="down-body"/>
<line x1="385.62" y1="923.85" x2="385.62" y2="949.79" class="down-wick"/>
<rect x="383.21" y="927.72" width="4.83" height="20.39" class="down-body"/>
<line x1="393.05" y1="919.03" x2="393.05" y2="929.14" class="up-wick"/>
<rect x="390.64" y="923.50" width="4.83" height="5.63" class="up-body"/>
<line x1="400.48" y1="912.71" x2="400.48" y2="922.82" class="up-wick"/>
<rect x="398.06" y="912.92" width="4.83" height="9.68" class="up-body"/>
<line x1="407.90" y1="919.33" x2="407.90" y2="924.06" class="down-wick"/>
<rect x="405.49" y="920.36" width="4.83" height="1.00" class="down-body"/>
<line x1="415.33" y1="919.33" x2="415.33" y2="927.59" class="up-wick"/>
<rect x="412.92" y="920.11" width="4.83" height="3.79" class="up-body"/>
<line x1="422.76" y1="910.47" x2="422.76" y2="922.94" class="up-wick"/>
<rect x="420.34" y="912.28" width="4.83" height="10.54" class="up-body"/>
<line x1="430.18" y1="917.61" x2="430.18" y2="924.88" class="up-wick"/>
<rect x="427.77" y="918.30" width="4.83" height="3.96" class="up-body"/>
<line x1="437.61" y1="915.80" x2="437.61" y2="919.80" class="up-wick"/>
<rect x="435.20" y="918.99" width="4.83" height="1.00" class="up-body"/>
<line x1="445.04" y1="920.45" x2="445.04" y2="933.96" class="down-wick"/>
<rect x="442.62" y="920.45" width="4.83" height="13.46" class="down-body"/>
<line x1="452.46" y1="924.75" x2="452.46" y2="934.43" class="down-wick"/>
<rect x="450.05" y="926.39" width="4.83" height="1.68" class="down-body"/>
<line x1="459.89" y1="925.44" x2="459.89" y2="932.84" class="down-wick"/>
<rect x="457.48" y="925.91" width="4.83" height="3.48" class="down-body"/>
<line x1="467.32" y1="918.69" x2="467.32" y2="925.44" class="down-wick"/>
<rect x="464.90" y="918.82" width="4.83" height="4.09" class="down-body"/>
<line x1="474.74" y1="928.49" x2="474.74" y2="932.11" class="down-wick"/>
<rect x="472.33" y="929.78" width="4.83" height="1.68" class="down-body"/>
<line x1="482.17" y1="930.00" x2="482.17" y2="939.59" class="up-wick"/>
<rect x="479.76" y="933.48" width="4.83" height="1.29" class="up-body"/>
<line x1="489.60" y1="932.80" x2="489.60" y2="942.34" class="down-wick"/>
<rect x="487.18" y="932.80" width="4.83" height="5.33" class="down-body"/>
<line x1="497.02" y1="933.31" x2="497.02" y2="947.94" class="up-wick"/>
<rect x="494.61" y="933.87" width="4.83" height="2.32" class="up-body"/>
<line x1="504.45" y1="928.36" x2="504.45" y2="931.72" class="up-wick"/>
<rect x="502.03" y="928.41" width="4.83" height="3.31" class="up-body"/>
<line x1="511.88" y1="929.78" x2="511.88" y2="932.88" class="down-wick"/>
<rect x="509.46" y="929.78" width="4.83" height="2.45" class="down-body"/>
<line x1="519.30" y1="922.94" x2="519.30" y2="933.18" class="up-wick"/>
<rect x="516.89" y="925.65" width="4.83" height="7.23" class="up-body"/>
<line x1="526.73" y1="925.61" x2="526.73" y2="929.74" class="down-wick"/>
<rect x="524.31" y="926.17" width="4.83" height="1.29" class="down-body"/>
<line x1="534.15" y1="926.82" x2="534.15" y2="930.95" class="up-wick"/>
<rect x="531.74" y="926.95" width="4.83" height="1.00" class="up-body"/>
<line x1="541.58" y1="927.25" x2="541.58" y2="930.64" class="down-wick"/>
<rect x="539.17" y="928.02" width="4.83" height="1.08" class="down-body"/>
<line x1="549.01" y1="929.44" x2="549.01" y2="938.95" class="up-wick"/>
<rect x="546.59" y="930.13" width="4.83" height="6.62" class="up-body"/>
<line x1="556.43" y1="925.70" x2="556.43" y2="933.66" class="up-wick"/>
<rect x="554.02" y="926.21" width="4.83" height="7.10" class="up-body"/>
<line x1="563.86" y1="923.59" x2="563.86" y2="933.70" class="down-wick"/>
<rect x="561.45" y="927.42" width="4.83" height="4.90" class="down-body"/>
<line x1="571.29" y1="927.07" x2="571.29" y2="931.16" class="up-wick"/>
<rect x="568.87" y="927.07" width="4.83" height="3.31" class="up-body"/>
<line x1="578.71" y1="923.12" x2="578.71" y2="930.69" class="down-wick"/>
<rect x="576.30" y="927.50" width="4.83" height="1.00" class="down-body"/>
<line x1="586.14" y1="934.73" x2="586.14" y2="945.87" class="down-wick"/>
<rect x="583.73" y="935.03" width="4.83" height="9.38" class="down-body"/>
<line x1="593.57" y1="948.62" x2="593.57" y2="962.86" class="down-wick"/>
<rect x="591.15" y="951.94" width="4.83" height="9.81" class="down-body"/>
<line x1="600.99" y1="943.42" x2="600.99" y2="948.28" class="down-wick"/>
<rect x="598.58" y="947.46" width="4.83" height="1.00" class="down-body"/>
<line x1="608.42" y1="946.43" x2="608.42" y2="954.47" class="up-wick"/>
<rect x="606.01" y="946.56" width="4.83" height="2.71" class="up-body"/>
<line x1="615.85" y1="935.20" x2="615.85" y2="953.14" class="up-wick"/>
<rect x="613.43" y="935.42" width="4.83" height="16.95" class="up-body"/>
<line x1="623.27" y1="929.10" x2="623.27" y2="938.56" class="down-wick"/>
<rect x="620.86" y="930.04" width="4.83" height="8.47" class="down-body"/>
<line x1="630.70" y1="934.43" x2="630.70" y2="938.86" class="down-wick"/>
<rect x="628.28" y="937.44" width="4.83" height="1.25" class="down-body"/>
<line x1="638.12" y1="933.23" x2="638.12" y2="948.93" class="down-wick"/>
<rect x="635.71" y="933.31" width="4.83" height="12.47" class="down-body"/>
<line x1="645.55" y1="943.38" x2="645.55" y2="952.32" class="down-wick"/>
<rect x="643.14" y="947.46" width="4.83" height="4.82" class="down-body"/>
<line x1="652.98" y1="944.15" x2="652.98" y2="948.50" class="up-wick"/>
<rect x="650.56" y="944.80" width="4.83" height="3.14" class="up-body"/>
<line x1="660.40" y1="951.29" x2="660.40" y2="959.81" class="down-wick"/>
<rect x="657.99" y="951.29" width="4.83" height="7.57" class="down-body"/>
<line x1="667.83" y1="946.39" x2="667.83" y2="954.04" class="up-wick"/>
<rect x="665.42" y="953.40" width="4.83" height="1.00" class="up-body"/>
<line x1="675.26" y1="944.11" x2="675.26" y2="952.75" class="up-wick"/>
<rect x="672.84" y="946.60" width="4.83" height="5.08" class="up-body"/>
<line x1="682.68" y1="938.99" x2="682.68" y2="944.80" class="up-wick"/>
<rect x="680.27" y="939.76" width="4.83" height="3.23" class="up-body"/>
<line x1="690.11" y1="947.51" x2="690.11" y2="952.54" class="up-wick"/>
<rect x="687.70" y="947.51" width="4.83" height="3.66" class="up-body"/>
<line x1="697.54" y1="940.37" x2="697.54" y2="948.45" class="down-wick"/>
<rect x="695.12" y="944.92" width="4.83" height="1.00" class="down-body"/>
<line x1="704.96" y1="944.71" x2="704.96" y2="951.25" class="up-wick"/>
<rect x="702.55" y="945.83" width="4.83" height="4.77" class="up-body"/>
<line x1="712.39" y1="948.19" x2="712.39" y2="951.29" class="up-wick"/>
<rect x="709.98" y="949.23" width="4.83" height="1.00" class="up-body"/>
<line x1="719.82" y1="954.43" x2="719.82" y2="958.47" class="down-wick"/>
<rect x="717.40" y="954.73" width="4.83" height="2.71" class="down-body"/>
<line x1="727.24" y1="953.53" x2="727.24" y2="957.31" class="up-wick"/>
<rect x="724.83" y="954.13" width="4.83" height="2.84" class="up-body"/>
<line x1="734.67" y1="943.51" x2="734.67" y2="946.34" class="down-wick"/>
<rect x="732.26" y="944.97" width="4.83" height="1.00" class="down-body"/>
<line x1="742.10" y1="943.16" x2="742.10" y2="945.70" class="down-wick"/>
<rect x="739.68" y="943.51" width="4.83" height="1.08" class="down-body"/>
<line x1="749.52" y1="935.07" x2="749.52" y2="945.14" class="up-wick"/>
<rect x="747.11" y="939.33" width="4.83" height="3.27" class="up-body"/>
<line x1="756.95" y1="931.25" x2="756.95" y2="939.46" class="up-wick"/>
<rect x="754.53" y="936.06" width="4.83" height="3.27" class="up-body"/>
<line x1="764.38" y1="940.37" x2="764.38" y2="946.65" class="down-wick"/>
<rect x="761.96" y="940.41" width="4.83" height="1.63" class="down-body"/>
<line x1="771.80" y1="936.02" x2="771.80" y2="944.75" class="up-wick"/>
<rect x="769.39" y="937.61" width="4.83" height="5.85" class="up-body"/>
<line x1="779.23" y1="934.17" x2="779.23" y2="939.63" class="up-wick"/>
<rect x="776.81" y="936.11" width="4.83" height="1.00" class="up-body"/>
<line x1="786.65" y1="933.53" x2="786.65" y2="938.43" class="up-wick"/>
<rect x="784.24" y="936.54" width="4.83" height="1.89" class="up-body"/>
<line x1="794.08" y1="936.71" x2="794.08" y2="940.28" class="down-wick"/>
<rect x="791.67" y="936.97" width="4.83" height="1.00" class="down-body"/>
<line x1="801.51" y1="935.89" x2="801.51" y2="940.80" class="up-wick"/>
<rect x="799.09" y="937.40" width="4.83" height="1.76" class="up-body"/>
<line x1="808.93" y1="935.07" x2="808.93" y2="939.98" class="up-wick"/>
<rect x="806.52" y="938.00" width="4.83" height="1.98" class="up-body"/>
<line x1="816.36" y1="927.29" x2="816.36" y2="933.66" class="up-wick"/>
<rect x="813.95" y="928.97" width="4.83" height="4.47" class="up-body"/>
<line x1="823.79" y1="927.76" x2="823.79" y2="932.84" class="up-wick"/>
<rect x="821.37" y="928.45" width="4.83" height="1.59" class="up-body"/>
<line x1="831.21" y1="935.59" x2="831.21" y2="940.11" class="up-wick"/>
<rect x="828.80" y="937.61" width="4.83" height="2.49" class="up-body"/>
<line x1="838.64" y1="933.87" x2="838.64" y2="937.74" class="up-wick"/>
<rect x="836.23" y="936.19" width="4.83" height="1.00" class="up-body"/>
<line x1="846.07" y1="928.54" x2="846.07" y2="936.45" class="up-wick"/>
<rect x="843.65" y="928.54" width="4.83" height="5.08" class="up-body"/>
<line x1="853.49" y1="929.61" x2="853.49" y2="933.57" class="up-wick"/>
<rect x="851.08" y="931.85" width="4.83" height="1.03" class="up-body"/>
<line x1="860.92" y1="931.46" x2="860.92" y2="933.18" class="down-wick"/>
<rect x="858.51" y="931.63" width="4.83" height="1.25" class="down-body"/>
<line x1="868.35" y1="927.29" x2="868.35" y2="932.62" class="up-wick"/>
<rect x="865.93" y="927.46" width="4.83" height="5.16" class="up-body"/>
<line x1="875.77" y1="927.29" x2="875.77" y2="936.97" class="up-wick"/>
<rect x="873.36" y="927.38" width="4.83" height="4.56" class="up-body"/>
<line x1="883.20" y1="930.69" x2="883.20" y2="937.05" class="down-wick"/>
<rect x="880.78" y="930.69" width="4.83" height="6.02" class="down-body"/>
<line x1="890.62" y1="926.69" x2="890.62" y2="937.91" class="up-wick"/>
<rect x="888.21" y="933.66" width="4.83" height="3.70" class="up-body"/>
<line x1="898.05" y1="934.77" x2="898.05" y2="938.17" class="up-wick"/>
<rect x="895.64" y="935.55" width="4.83" height="1.00" class="up-body"/>
<line x1="905.48" y1="941.70" x2="905.48" y2="963.21" class="down-wick"/>
<rect x="903.06" y="941.87" width="4.83" height="19.83" class="down-body"/>
<line x1="912.90" y1="947.46" x2="912.90" y2="953.74" class="up-wick"/>
<rect x="910.49" y="948.06" width="4.83" height="5.68" class="up-body"/>
<line x1="920.33" y1="946.99" x2="920.33" y2="956.84" class="down-wick"/>
<rect x="917.92" y="947.08" width="4.83" height="4.34" class="down-body"/>
<line x1="927.76" y1="947.51" x2="927.76" y2="954.95" class="down-wick"/>
<rect x="925.34" y="947.55" width="4.83" height="6.24" class="down-body"/>
<line x1="935.18" y1="948.97" x2="935.18" y2="963.16" class="down-wick"/>
<rect x="932.77" y="948.97" width="4.83" height="10.07" class="down-body"/>
<line x1="942.61" y1="953.44" x2="942.61" y2="957.23" class="up-wick"/>
<rect x="940.20" y="955.03" width="4.83" height="1.00" class="up-body"/>
<line x1="950.04" y1="955.98" x2="950.04" y2="987.08" class="down-wick"/>
<rect x="947.62" y="956.84" width="4.83" height="4.26" class="down-body"/>
<line x1="957.46" y1="956.67" x2="957.46" y2="972.54" class="down-wick"/>
<rect x="955.05" y="956.67" width="4.83" height="15.61" class="down-body"/>
<line x1="964.89" y1="972.15" x2="964.89" y2="989.83" class="down-wick"/>
<rect x="962.48" y="980.41" width="4.83" height="5.89" class="down-body"/>
<line x1="972.32" y1="971.81" x2="972.32" y2="979.25" class="up-wick"/>
<rect x="969.90" y="973.66" width="4.83" height="5.59" class="up-body"/>
<line x1="979.74" y1="962.52" x2="979.74" y2="968.24" class="down-wick"/>
<rect x="977.33" y="963.81" width="4.83" height="1.00" class="down-body"/>
<line x1="987.17" y1="959.42" x2="987.17" y2="977.14" class="down-wick"/>
<rect x="984.76" y="963.12" width="4.83" height="12.99" class="down-body"/>
<line x1="994.60" y1="970.52" x2="994.60" y2="978.39" class="down-wick"/>
<rect x="992.18" y="976.45" width="4.83" height="1.63" class="down-body"/>
<line x1="1002.02" y1="976.63" x2="1002.02" y2="994.82" class="down-wick"/>
<rect x="999.61" y="978.99" width="4.83" height="10.15" class="down-body"/>
<line x1="1009.45" y1="983.98" x2="1009.45" y2="991.59" class="down-wick"/>
<rect x="1007.03" y="984.41" width="4.83" height="4.13" class="down-body"/>
<line x1="1016.88" y1="988.02" x2="1016.88" y2="994.56" class="down-wick"/>
<rect x="1014.46" y="989.36" width="4.83" height="2.28" class="down-body"/>
<line x1="1024.30" y1="975.64" x2="1024.30" y2="995.77" class="down-wick"/>
<rect x="1021.89" y="982.13" width="4.83" height="3.31" class="down-body"/>
<line x1="1031.73" y1="998.52" x2="1031.73" y2="1017.66" class="down-wick"/>
<rect x="1029.31" y="998.52" width="4.83" height="14.88" class="down-body"/>
<line x1="1039.15" y1="1007.42" x2="1039.15" y2="1024.76" class="down-wick"/>
<rect x="1036.74" y="1016.50" width="4.83" height="2.97" class="down-body"/>
<line x1="1046.58" y1="966.86" x2="1046.58" y2="987.85" class="up-wick"/>
<rect x="1044.17" y="969.96" width="4.83" height="17.08" class="up-body"/>
<line x1="1054.01" y1="955.29" x2="1054.01" y2="971.98" class="down-wick"/>
<rect x="1051.59" y="961.83" width="4.83" height="7.74" class="down-body"/>
<line x1="1061.43" y1="972.93" x2="1061.43" y2="984.45" class="up-wick"/>
<rect x="1059.02" y="976.33" width="4.83" height="4.52" class="up-body"/>
<line x1="1068.86" y1="971.46" x2="1068.86" y2="982.13" class="down-wick"/>
<rect x="1066.45" y="974.78" width="4.83" height="5.16" class="down-body"/>
<line x1="1076.29" y1="980.63" x2="1076.29" y2="987.98" class="up-wick"/>
<rect x="1073.87" y="984.02" width="4.83" height="2.62" class="up-body"/>
<line x1="70" y1="930.64" x2="1080" y2="930.64" class="number-line"/>
<text x="1076" y="926.64" text-anchor="end" class="level-label">round 5160.00</text>
<line x1="70" y1="930.64" x2="1080" y2="930.64" class="entry-line"/>
<text x="1076" y="926.64" text-anchor="end" class="level-label">entry level 5160.00</text>
<text x="70" y="1056" class="axis-label">2026-02-23 04:45:00+00:00 to 2026-02-23 09:15:00+00:00</text>
<text x="1080" y="1056" text-anchor="end" class="axis-label">5135.04 - 5179.68</text>
</svg>