<svg xmlns="http://www.w3.org/2000/svg" width="1120" height="1054" viewBox="0 0 1120 1054">
<style>
text{font-family:Arial,Helvetica,sans-serif}.title{font-size:21px;font-weight:700;fill:#1f2937}.subtitle{font-size:12px;fill:#4b5563}.panel-title{font-size:15px;font-weight:700;fill:#111827}.muted{font-size:13px;fill:#6b7280}.plot-bg{fill:#f8fafc;stroke:#cbd5e1;stroke-width:1}.up-body{fill:#15803d;stroke:#14532d;stroke-width:.8}.down-body{fill:#b91c1c;stroke:#7f1d1d;stroke-width:.8}.up-wick{stroke:#14532d;stroke-width:1}.down-wick{stroke:#7f1d1d;stroke-width:1}.sweep-line{stroke:#7c3aed;stroke-width:1.6;stroke-dasharray:6 4}.number-line{stroke:#0f766e;stroke-width:1.4;stroke-dasharray:3 4}.entry-line{stroke:#2563eb;stroke-width:1.4}.sl-line{stroke:#dc2626;stroke-width:1.4}.tp-line{stroke:#16a34a;stroke-width:1.4}.level-label,.axis-label{font-size:11px;fill:#374151}
</style>
<text x="28" y="28" class="title">Adelin v2 visual review sample sample_273</text>
<text x="28" y="48" class="subtitle">Candidate windows are for visual labeling only and are not trade signals.</text>
<text x="560" y="48" class="subtitle" text-anchor="middle">LONDON_OPEN_CONTEXT | PRE_ANCHOR_SWEEP_EXTREME_CANDIDATE</text>
<text x="70" y="82" class="panel-title">H1 liquidity context</text>
<rect x="70" y="96" width="1010" height="192" class="plot-bg"/>
<line x1="81.48" y1="201.51" x2="81.48" y2="214.33" class="up-wick"/>
<rect x="77.48" y="203.12" width="8.00" height="10.55" class="up-body"/>
<line x1="104.43" y1="199.59" x2="104.43" y2="213.13" class="down-wick"/>
<rect x="100.43" y="203.16" width="8.00" height="9.48" class="down-body"/>
<line x1="127.39" y1="211.55" x2="127.39" y2="228.85" class="down-wick"/>
<rect x="123.39" y="212.64" width="8.00" height="9.95" class="down-body"/>
<line x1="150.34" y1="212.08" x2="150.34" y2="229.47" class="down-wick"/>
<rect x="146.34" y="222.59" width="8.00" height="1.00" class="down-body"/>
<line x1="173.30" y1="209.77" x2="173.30" y2="227.12" class="up-wick"/>
<rect x="169.30" y="210.81" width="8.00" height="12.54" class="up-body"/>
<line x1="196.25" y1="205.42" x2="196.25" y2="217.16" class="down-wick"/>
<rect x="192.25" y="210.81" width="8.00" height="6.03" class="down-body"/>
<line x1="219.20" y1="212.97" x2="219.20" y2="225.62" class="down-wick"/>
<rect x="215.20" y="216.84" width="8.00" height="3.26" class="down-body"/>
<line x1="242.16" y1="193.56" x2="242.16" y2="224.21" class="up-wick"/>
<rect x="238.16" y="207.35" width="8.00" height="12.74" class="up-body"/>
<line x1="265.11" y1="154.75" x2="265.11" y2="208.94" class="up-wick"/>
<rect x="261.11" y="156.15" width="8.00" height="51.21" class="up-body"/>
<line x1="288.07" y1="109.24" x2="288.07" y2="168.58" class="up-wick"/>
<rect x="284.07" y="119.36" width="8.00" height="36.79" class="up-body"/>
<line x1="311.02" y1="113.75" x2="311.02" y2="140.49" class="down-wick"/>
<rect x="307.02" y="119.32" width="8.00" height="8.02" class="down-body"/>
<line x1="333.98" y1="119.10" x2="333.98" y2="147.09" class="down-wick"/>
<rect x="329.98" y="127.31" width="8.00" height="5.87" class="down-body"/>
<line x1="356.93" y1="126.72" x2="356.93" y2="137.47" class="down-wick"/>
<rect x="352.93" y="133.18" width="8.00" height="1.00" class="down-body"/>
<line x1="379.89" y1="130.99" x2="379.89" y2="148.22" class="down-wick"/>
<rect x="375.89" y="133.81" width="8.00" height="4.70" class="down-body"/>
<line x1="402.84" y1="132.59" x2="402.84" y2="145.79" class="down-wick"/>
<rect x="398.84" y="138.52" width="8.00" height="4.74" class="down-body"/>
<line x1="425.80" y1="139.98" x2="425.80" y2="149.27" class="down-wick"/>
<rect x="421.80" y="143.27" width="8.00" height="4.12" class="down-body"/>
<line x1="448.75" y1="211.49" x2="448.75" y2="251.95" class="up-wick"/>
<rect x="444.75" y="228.76" width="8.00" height="9.44" class="up-body"/>
<line x1="471.70" y1="228.67" x2="471.70" y2="274.76" class="down-wick"/>
<rect x="467.70" y="228.76" width="8.00" height="26.31" class="down-body"/>
<line x1="494.66" y1="234.25" x2="494.66" y2="266.36" class="up-wick"/>
<rect x="490.66" y="236.23" width="8.00" height="18.84" class="up-body"/>
<line x1="517.61" y1="190.75" x2="517.61" y2="237.42" class="up-wick"/>
<rect x="513.61" y="198.01" width="8.00" height="38.22" class="up-body"/>
<line x1="540.57" y1="196.56" x2="540.57" y2="213.81" class="down-wick"/>
<rect x="536.57" y="198.01" width="8.00" height="11.25" class="down-body"/>
<line x1="563.52" y1="208.09" x2="563.52" y2="218.60" class="down-wick"/>
<rect x="559.52" y="209.26" width="8.00" height="7.08" class="down-body"/>
<line x1="586.48" y1="211.11" x2="586.48" y2="220.40" class="down-wick"/>
<rect x="582.48" y="216.09" width="8.00" height="2.44" class="down-body"/>
<line x1="609.43" y1="210.68" x2="609.43" y2="228.47" class="up-wick"/>
<rect x="605.43" y="216.36" width="8.00" height="2.15" class="up-body"/>
<line x1="632.39" y1="211.37" x2="632.39" y2="223.81" class="up-wick"/>
<rect x="628.39" y="211.37" width="8.00" height="4.99" class="up-body"/>
<line x1="655.34" y1="200.18" x2="655.34" y2="220.66" class="down-wick"/>
<rect x="651.34" y="211.38" width="8.00" height="6.16" class="down-body"/>
<line x1="678.30" y1="210.51" x2="678.30" y2="221.44" class="up-wick"/>
<rect x="674.30" y="210.55" width="8.00" height="6.99" class="up-body"/>
<line x1="701.25" y1="208.71" x2="701.25" y2="224.26" class="down-wick"/>
<rect x="697.25" y="210.55" width="8.00" height="4.90" class="down-body"/>
<line x1="724.20" y1="205.33" x2="724.20" y2="217.27" class="up-wick"/>
<rect x="720.20" y="210.94" width="8.00" height="4.51" class="up-body"/>
<line x1="747.16" y1="194.66" x2="747.16" y2="220.92" class="up-wick"/>
<rect x="743.16" y="195.03" width="8.00" height="15.91" class="up-body"/>
<line x1="770.11" y1="182.47" x2="770.11" y2="207.29" class="down-wick"/>
<rect x="766.11" y="195.03" width="8.00" height="7.63" class="down-body"/>
<line x1="793.07" y1="177.90" x2="793.07" y2="206.78" class="up-wick"/>
<rect x="789.07" y="186.95" width="8.00" height="15.69" class="up-body"/>
<line x1="816.02" y1="176.47" x2="816.02" y2="214.44" class="down-wick"/>
<rect x="812.02" y="186.95" width="8.00" height="13.61" class="down-body"/>
<line x1="838.98" y1="196.11" x2="838.98" y2="214.03" class="down-wick"/>
<rect x="834.98" y="200.57" width="8.00" height="6.18" class="down-body"/>
<line x1="861.93" y1="199.51" x2="861.93" y2="214.16" class="up-wick"/>
<rect x="857.93" y="200.41" width="8.00" height="6.33" class="up-body"/>
<line x1="884.89" y1="193.22" x2="884.89" y2="202.17" class="up-wick"/>
<rect x="880.89" y="199.09" width="8.00" height="1.31" class="up-body"/>
<line x1="907.84" y1="188.44" x2="907.84" y2="199.09" class="up-wick"/>
<rect x="903.84" y="191.14" width="8.00" height="7.96" class="up-body"/>
<line x1="930.80" y1="183.23" x2="930.80" y2="194.93" class="up-wick"/>
<rect x="926.80" y="190.90" width="8.00" height="1.00" class="up-body"/>
<line x1="953.75" y1="170.37" x2="953.75" y2="184.60" class="up-wick"/>
<rect x="949.75" y="176.46" width="8.00" height="7.94" class="up-body"/>
<line x1="976.70" y1="172.04" x2="976.70" y2="185.00" class="down-wick"/>
<rect x="972.70" y="176.46" width="8.00" height="6.37" class="down-body"/>
<line x1="999.66" y1="173.07" x2="999.66" y2="188.09" class="up-wick"/>
<rect x="995.66" y="180.42" width="8.00" height="2.29" class="up-body"/>
<line x1="1022.61" y1="179.75" x2="1022.61" y2="200.17" class="down-wick"/>
<rect x="1018.61" y="180.42" width="8.00" height="14.90" class="down-body"/>
<line x1="1045.57" y1="195.11" x2="1045.57" y2="203.72" class="down-wick"/>
<rect x="1041.57" y="195.33" width="8.00" height="3.63" class="down-body"/>
<line x1="1068.52" y1="198.05" x2="1068.52" y2="214.46" class="down-wick"/>
<rect x="1064.52" y="198.96" width="8.00" height="10.56" class="down-body"/>
<line x1="70" y1="217.39" x2="1080" y2="217.39" class="sweep-line"/>
<text x="1076" y="213.39" text-anchor="end" class="level-label">sweep 4789.86</text>
<line x1="70" y1="218.60" x2="1080" y2="218.60" class="entry-line"/>
<text x="1076" y="214.60" text-anchor="end" class="level-label">entry level 4788.74</text>
<text x="70" y="306" class="axis-label">2026-04-17 07:00:00+00:00 to 2026-04-21 06:00:00+00:00</text>
<text x="1080" y="306" text-anchor="end" class="axis-label">4724.71 - 4901.86</text>
<text x="70" y="332" class="panel-title">M15 liquidity / reaction context</text>
<rect x="70" y="346" width="1010" height="192" class="plot-bg"/>
<line x1="80.52" y1="401.61" x2="80.52" y2="479.83" class="up-wick"/>
<rect x="76.52" y="410.81" width="8.00" height="41.92" class="up-body"/>
<line x1="101.56" y1="400.11" x2="101.56" y2="424.09" class="down-wick"/>
<rect x="97.56" y="410.92" width="8.00" height="10.70" class="down-body"/>
<line x1="122.60" y1="409.53" x2="122.60" y2="434.00" class="down-wick"/>
<rect x="118.60" y="421.55" width="8.00" height="9.87" class="down-body"/>
<line x1="143.65" y1="418.03" x2="143.65" y2="436.97" class="down-wick"/>
<rect x="139.65" y="431.40" width="8.00" height="2.73" class="down-body"/>
<line x1="164.69" y1="433.96" x2="164.69" y2="449.83" class="down-wick"/>
<rect x="160.69" y="434.13" width="8.00" height="14.73" class="down-body"/>
<line x1="185.73" y1="441.63" x2="185.73" y2="458.26" class="down-wick"/>
<rect x="181.73" y="448.87" width="8.00" height="7.20" class="down-body"/>
<line x1="206.77" y1="446.88" x2="206.77" y2="505.58" class="down-wick"/>
<rect x="202.77" y="456.06" width="8.00" height="37.20" class="down-body"/>
<line x1="227.81" y1="485.49" x2="227.81" y2="524.76" class="up-wick"/>
<rect x="223.81" y="485.96" width="8.00" height="6.77" class="up-body"/>
<line x1="248.85" y1="485.51" x2="248.85" y2="508.21" class="down-wick"/>
<rect x="244.85" y="485.96" width="8.00" height="5.96" class="down-body"/>
<line x1="269.90" y1="462.81" x2="269.90" y2="492.58" class="up-wick"/>
<rect x="265.90" y="463.94" width="8.00" height="27.97" class="up-body"/>
<line x1="290.94" y1="458.13" x2="290.94" y2="473.10" class="down-wick"/>
<rect x="286.94" y="463.94" width="8.00" height="2.71" class="down-body"/>
<line x1="311.98" y1="444.96" x2="311.98" y2="476.58" class="up-wick"/>
<rect x="307.98" y="448.84" width="8.00" height="17.81" class="up-body"/>
<line x1="333.02" y1="401.82" x2="333.02" y2="451.19" class="up-wick"/>
<rect x="329.02" y="403.47" width="8.00" height="45.38" class="up-body"/>
<line x1="354.06" y1="382.18" x2="354.06" y2="414.53" class="up-wick"/>
<rect x="350.06" y="384.14" width="8.00" height="19.33" class="up-body"/>
<line x1="375.10" y1="363.79" x2="375.10" y2="387.28" class="up-wick"/>
<rect x="371.10" y="375.49" width="8.00" height="8.65" class="up-body"/>
<line x1="396.15" y1="359.24" x2="396.15" y2="377.39" class="up-wick"/>
<rect x="392.15" y="373.55" width="8.00" height="2.39" class="up-body"/>
<line x1="417.19" y1="370.69" x2="417.19" y2="388.67" class="down-wick"/>
<rect x="413.19" y="373.55" width="8.00" height="14.58" class="down-body"/>
<line x1="438.23" y1="382.03" x2="438.23" y2="393.62" class="down-wick"/>
<rect x="434.23" y="388.13" width="8.00" height="1.49" class="down-body"/>
<line x1="459.27" y1="385.85" x2="459.27" y2="401.22" class="down-wick"/>
<rect x="455.27" y="389.69" width="8.00" height="8.50" class="down-body"/>
<line x1="480.31" y1="395.35" x2="480.31" y2="404.68" class="up-wick"/>
<rect x="476.31" y="395.71" width="8.00" height="2.48" class="up-body"/>
<line x1="501.35" y1="393.41" x2="501.35" y2="410.34" class="down-wick"/>
<rect x="497.35" y="395.71" width="8.00" height="12.34" class="down-body"/>
<line x1="522.40" y1="398.79" x2="522.40" y2="414.12" class="up-wick"/>
<rect x="518.40" y="400.39" width="8.00" height="7.67" class="up-body"/>
<line x1="543.44" y1="397.00" x2="543.44" y2="411.37" class="down-wick"/>
<rect x="539.44" y="400.37" width="8.00" height="3.25" class="down-body"/>
<line x1="564.48" y1="401.54" x2="564.48" y2="413.42" class="down-wick"/>
<rect x="560.48" y="403.62" width="8.00" height="6.04" class="down-body"/>
<line x1="585.52" y1="399.37" x2="585.52" y2="409.32" class="up-wick"/>
<rect x="581.52" y="405.32" width="8.00" height="3.84" class="up-body"/>
<line x1="606.56" y1="399.37" x2="606.56" y2="407.99" class="up-wick"/>
<rect x="602.56" y="401.72" width="8.00" height="3.61" class="up-body"/>
<line x1="627.60" y1="401.52" x2="627.60" y2="417.67" class="down-wick"/>
<rect x="623.60" y="401.54" width="8.00" height="15.67" class="down-body"/>
<line x1="648.65" y1="404.47" x2="648.65" y2="417.35" class="up-wick"/>
<rect x="644.65" y="413.97" width="8.00" height="3.25" class="up-body"/>
<line x1="669.69" y1="405.03" x2="669.69" y2="423.35" class="down-wick"/>
<rect x="665.69" y="413.93" width="8.00" height="4.91" class="down-body"/>
<line x1="690.73" y1="412.31" x2="690.73" y2="421.53" class="up-wick"/>
<rect x="686.73" y="415.85" width="8.00" height="2.99" class="up-body"/>
<line x1="711.77" y1="398.51" x2="711.77" y2="433.55" class="down-wick"/>
<rect x="707.77" y="415.85" width="8.00" height="15.38" class="down-body"/>
<line x1="732.81" y1="404.79" x2="732.81" y2="431.23" class="up-wick"/>
<rect x="728.81" y="409.70" width="8.00" height="21.53" class="up-body"/>
<line x1="753.85" y1="402.87" x2="753.85" y2="420.91" class="down-wick"/>
<rect x="749.85" y="409.70" width="8.00" height="1.00" class="down-body"/>
<line x1="774.90" y1="410.09" x2="774.90" y2="424.37" class="down-wick"/>
<rect x="770.90" y="410.19" width="8.00" height="9.46" class="down-body"/>
<line x1="795.94" y1="407.05" x2="795.94" y2="420.87" class="up-wick"/>
<rect x="791.94" y="411.09" width="8.00" height="8.56" class="up-body"/>
<line x1="816.98" y1="399.88" x2="816.98" y2="420.93" class="up-wick"/>
<rect x="812.98" y="399.88" width="8.00" height="11.21" class="up-body"/>
<line x1="838.02" y1="386.79" x2="838.02" y2="402.87" class="up-wick"/>
<rect x="834.02" y="395.59" width="8.00" height="4.31" class="up-body"/>
<line x1="859.06" y1="377.82" x2="859.06" y2="402.33" class="up-wick"/>
<rect x="855.06" y="394.67" width="8.00" height="1.00" class="up-body"/>
<line x1="880.10" y1="392.68" x2="880.10" y2="411.07" class="down-wick"/>
<rect x="876.10" y="394.67" width="8.00" height="1.00" class="down-body"/>
<line x1="901.15" y1="395.03" x2="901.15" y2="418.18" class="down-wick"/>
<rect x="897.15" y="395.03" width="8.00" height="17.00" class="down-body"/>
<line x1="922.19" y1="407.63" x2="922.19" y2="419.72" class="down-wick"/>
<rect x="918.19" y="412.03" width="8.00" height="1.24" class="down-body"/>
<line x1="943.23" y1="406.09" x2="943.23" y2="419.23" class="up-wick"/>
<rect x="939.23" y="407.14" width="8.00" height="6.15" class="up-body"/>
<line x1="964.27" y1="406.16" x2="964.27" y2="414.40" class="up-wick"/>
<rect x="960.27" y="406.43" width="8.00" height="1.00" class="up-body"/>
<line x1="985.31" y1="398.17" x2="985.31" y2="406.90" class="up-wick"/>
<rect x="981.31" y="398.26" width="8.00" height="8.20" class="up-body"/>
<line x1="1006.35" y1="394.63" x2="1006.35" y2="404.11" class="down-wick"/>
<rect x="1002.35" y="398.26" width="8.00" height="1.00" class="down-body"/>
<line x1="1027.40" y1="399.00" x2="1027.40" y2="407.80" class="down-wick"/>
<rect x="1023.40" y="399.13" width="8.00" height="7.37" class="down-body"/>
<line x1="1048.44" y1="402.25" x2="1048.44" y2="425.27" class="down-wick"/>
<rect x="1044.44" y="406.48" width="8.00" height="1.00" class="down-body"/>
<line x1="1069.48" y1="396.33" x2="1069.48" y2="413.14" class="down-wick"/>
<rect x="1065.48" y="407.25" width="8.00" height="1.00" class="down-body"/>
<line x1="70" y1="411.73" x2="1080" y2="411.73" class="sweep-line"/>
<text x="1076" y="407.73" text-anchor="end" class="level-label">sweep 4789.86</text>
<line x1="70" y1="414.12" x2="1080" y2="414.12" class="entry-line"/>
<text x="1076" y="410.12" text-anchor="end" class="level-label">entry level 4788.74</text>
<text x="70" y="556" class="axis-label">2026-04-20 01:00:00+00:00 to 2026-04-20 12:45:00+00:00</text>
<text x="1080" y="556" text-anchor="end" class="axis-label">4730.73 - 4820.64</text>
<text x="70" y="582" class="panel-title">M5 reaction / execution context</text>
<rect x="70" y="596" width="1010" height="192" class="plot-bg"/>
<line x1="79.18" y1="619.26" x2="79.18" y2="637.16" class="down-wick"/>
<rect x="75.18" y="628.86" width="8.00" height="1.00" class="down-body"/>
<line x1="97.55" y1="609.24" x2="97.55" y2="646.49" class="up-wick"/>
<rect x="93.55" y="613.29" width="8.00" height="16.19" class="up-body"/>
<line x1="115.91" y1="612.12" x2="115.91" y2="643.20" class="down-wick"/>
<rect x="111.91" y="613.29" width="8.00" height="20.37" class="down-body"/>
<line x1="134.27" y1="621.66" x2="134.27" y2="646.56" class="up-wick"/>
<rect x="130.27" y="624.74" width="8.00" height="9.12" class="up-body"/>
<line x1="152.64" y1="621.52" x2="152.64" y2="663.36" class="down-wick"/>
<rect x="148.64" y="624.40" width="8.00" height="32.58" class="down-body"/>
<line x1="171.00" y1="648.96" x2="171.00" y2="670.91" class="down-wick"/>
<rect x="167.00" y="656.98" width="8.00" height="4.18" class="down-body"/>
<line x1="189.36" y1="652.11" x2="189.36" y2="682.02" class="down-wick"/>
<rect x="185.36" y="661.17" width="8.00" height="6.72" class="down-body"/>
<line x1="207.73" y1="653.14" x2="207.73" y2="680.30" class="up-wick"/>
<rect x="203.73" y="664.39" width="8.00" height="3.50" class="up-body"/>
<line x1="226.09" y1="652.04" x2="226.09" y2="682.02" class="up-wick"/>
<rect x="222.09" y="653.21" width="8.00" height="11.18" class="up-body"/>
<line x1="244.45" y1="645.80" x2="244.45" y2="674.20" class="down-wick"/>
<rect x="240.45" y="653.21" width="8.00" height="15.43" class="down-body"/>
<line x1="262.82" y1="649.64" x2="262.82" y2="677.29" class="down-wick"/>
<rect x="258.82" y="668.64" width="8.00" height="8.64" class="down-body"/>
<line x1="281.18" y1="676.53" x2="281.18" y2="700.20" class="down-wick"/>
<rect x="277.18" y="676.53" width="8.00" height="16.33" class="down-body"/>
<line x1="299.55" y1="684.42" x2="299.55" y2="712.34" class="up-wick"/>
<rect x="295.55" y="691.21" width="8.00" height="1.65" class="up-body"/>
<line x1="317.91" y1="668.58" x2="317.91" y2="691.21" class="up-wick"/>
<rect x="313.91" y="669.54" width="8.00" height="21.68" class="up-body"/>
<line x1="336.27" y1="663.09" x2="336.27" y2="681.27" class="up-wick"/>
<rect x="332.27" y="668.23" width="8.00" height="1.30" class="up-body"/>
<line x1="354.64" y1="657.33" x2="354.64" y2="703.49" class="down-wick"/>
<rect x="350.64" y="668.16" width="8.00" height="19.14" class="down-body"/>
<line x1="373.00" y1="670.70" x2="373.00" y2="697.86" class="up-wick"/>
<rect x="369.00" y="673.72" width="8.00" height="13.72" class="up-body"/>
<line x1="391.36" y1="666.72" x2="391.36" y2="688.40" class="down-wick"/>
<rect x="387.36" y="673.72" width="8.00" height="4.87" class="down-body"/>
<line x1="409.73" y1="678.59" x2="409.73" y2="692.72" class="down-wick"/>
<rect x="405.73" y="678.59" width="8.00" height="9.74" class="down-body"/>
<line x1="428.09" y1="671.94" x2="428.09" y2="698.48" class="down-wick"/>
<rect x="424.09" y="688.33" width="8.00" height="5.90" class="down-body"/>
<line x1="446.45" y1="690.25" x2="446.45" y2="710.07" class="down-wick"/>
<rect x="442.45" y="694.23" width="8.00" height="3.77" class="down-body"/>
<line x1="464.82" y1="678.45" x2="464.82" y2="696.90" class="up-wick"/>
<rect x="460.82" y="680.72" width="8.00" height="15.71" class="up-body"/>
<line x1="483.18" y1="664.94" x2="483.18" y2="687.23" class="up-wick"/>
<rect x="479.18" y="673.10" width="8.00" height="7.61" class="up-body"/>
<line x1="501.55" y1="668.78" x2="501.55" y2="687.71" class="down-wick"/>
<rect x="497.55" y="673.10" width="8.00" height="10.98" class="down-body"/>
<line x1="519.91" y1="671.66" x2="519.91" y2="691.55" class="up-wick"/>
<rect x="515.91" y="681.81" width="8.00" height="2.26" class="up-body"/>
<line x1="538.27" y1="675.91" x2="538.27" y2="692.65" class="up-wick"/>
<rect x="534.27" y="677.08" width="8.00" height="4.73" class="up-body"/>
<line x1="556.64" y1="664.94" x2="556.64" y2="684.08" class="up-wick"/>
<rect x="552.64" y="672.49" width="8.00" height="4.60" class="up-body"/>
<line x1="575.00" y1="671.87" x2="575.00" y2="716.45" class="down-wick"/>
<rect x="571.00" y="671.94" width="8.00" height="38.48" class="down-body"/>
<line x1="593.36" y1="698.14" x2="593.36" y2="715.97" class="up-wick"/>
<rect x="589.36" y="699.65" width="8.00" height="10.77" class="up-body"/>
<line x1="611.73" y1="694.30" x2="611.73" y2="723.72" class="down-wick"/>
<rect x="607.73" y="699.24" width="8.00" height="23.05" class="down-body"/>
<line x1="630.09" y1="681.33" x2="630.09" y2="722.70" class="up-wick"/>
<rect x="626.09" y="684.28" width="8.00" height="38.00" class="up-body"/>
<line x1="648.45" y1="682.98" x2="648.45" y2="713.71" class="down-wick"/>
<rect x="644.45" y="684.42" width="8.00" height="28.19" class="down-body"/>
<line x1="666.82" y1="705.00" x2="666.82" y2="720.84" class="up-wick"/>
<rect x="662.82" y="711.86" width="8.00" height="1.00" class="up-body"/>
<line x1="685.18" y1="683.12" x2="685.18" y2="721.39" class="up-wick"/>
<rect x="681.18" y="703.01" width="8.00" height="8.71" class="up-body"/>
<line x1="703.55" y1="693.68" x2="703.55" y2="728.11" class="down-wick"/>
<rect x="699.55" y="703.01" width="8.00" height="21.20" class="down-body"/>
<line x1="721.91" y1="712.75" x2="721.91" y2="741.97" class="down-wick"/>
<rect x="717.91" y="724.20" width="8.00" height="3.29" class="down-body"/>
<line x1="740.27" y1="706.51" x2="740.27" y2="727.63" class="up-wick"/>
<rect x="736.27" y="718.65" width="8.00" height="8.85" class="up-body"/>
<line x1="758.64" y1="712.06" x2="758.64" y2="728.39" class="down-wick"/>
<rect x="754.64" y="718.65" width="8.00" height="3.02" class="down-body"/>
<line x1="777.00" y1="710.28" x2="777.00" y2="736.14" class="up-wick"/>
<rect x="773.00" y="717.89" width="8.00" height="3.91" class="up-body"/>
<line x1="795.36" y1="662.20" x2="795.36" y2="719.68" class="up-wick"/>
<rect x="791.36" y="671.32" width="8.00" height="46.58" class="up-body"/>
<line x1="813.73" y1="663.36" x2="813.73" y2="688.19" class="down-wick"/>
<rect x="809.73" y="671.32" width="8.00" height="14.47" class="down-body"/>
<line x1="832.09" y1="674.68" x2="832.09" y2="774.76" class="down-wick"/>
<rect x="828.09" y="685.79" width="8.00" height="81.49" class="down-body"/>
<line x1="850.45" y1="731.82" x2="850.45" y2="767.28" class="up-wick"/>
<rect x="846.45" y="733.33" width="8.00" height="33.95" class="up-body"/>
<line x1="868.82" y1="694.23" x2="868.82" y2="753.29" class="up-wick"/>
<rect x="864.82" y="699.92" width="8.00" height="32.51" class="up-body"/>
<line x1="887.18" y1="682.36" x2="887.18" y2="707.19" class="up-wick"/>
<rect x="883.18" y="698.14" width="8.00" height="1.78" class="up-body"/>
<line x1="905.55" y1="676.19" x2="905.55" y2="734.15" class="down-wick"/>
<rect x="901.55" y="698.14" width="8.00" height="2.13" class="down-body"/>
<line x1="923.91" y1="689.98" x2="923.91" y2="714.26" class="up-wick"/>
<rect x="919.91" y="692.51" width="8.00" height="7.89" class="up-body"/>
<line x1="942.27" y1="677.01" x2="942.27" y2="706.51" class="down-wick"/>
<rect x="938.27" y="692.51" width="8.00" height="7.20" class="down-body"/>
<line x1="960.64" y1="699.37" x2="960.64" y2="722.90" class="down-wick"/>
<rect x="956.64" y="699.72" width="8.00" height="21.06" class="down-body"/>
<line x1="979.00" y1="714.94" x2="979.00" y2="744.78" class="down-wick"/>
<rect x="975.00" y="720.78" width="8.00" height="1.99" class="down-body"/>
<line x1="997.36" y1="717.14" x2="997.36" y2="745.26" class="down-wick"/>
<rect x="993.36" y="722.76" width="8.00" height="7.34" class="down-body"/>
<line x1="1015.73" y1="689.63" x2="1015.73" y2="734.01" class="up-wick"/>
<rect x="1011.73" y="723.11" width="8.00" height="7.00" class="up-body"/>
<line x1="1034.09" y1="699.99" x2="1034.09" y2="728.94" class="up-wick"/>
<rect x="1030.09" y="701.29" width="8.00" height="21.81" class="up-body"/>
<line x1="1052.45" y1="696.49" x2="1052.45" y2="722.35" class="down-wick"/>
<rect x="1048.45" y="701.29" width="8.00" height="1.30" class="down-body"/>
<line x1="1070.82" y1="702.46" x2="1070.82" y2="731.68" class="down-wick"/>
<rect x="1066.82" y="702.60" width="8.00" height="18.31" class="down-body"/>
<line x1="70" y1="704.66" x2="1080" y2="704.66" class="sweep-line"/>
<text x="1076" y="700.66" text-anchor="end" class="level-label">sweep 4789.86</text>
<line x1="70" y1="712.34" x2="1080" y2="712.34" class="entry-line"/>
<text x="1076" y="708.34" text-anchor="end" class="level-label">entry level 4788.74</text>
<text x="70" y="806" class="axis-label">2026-04-20 05:15:00+00:00 to 2026-04-20 09:45:00+00:00</text>
<text x="1080" y="806" text-anchor="end" class="axis-label">4777.71 - 4805.70</text>
<text x="70" y="832" class="panel-title">M1 execution window</text>
<rect x="70" y="846" width="1010" height="192" class="plot-bg"/>
<line x1="73.71" y1="877.06" x2="73.71" y2="887.33" class="down-wick"/>
<rect x="71.30" y="879.79" width="4.83" height="6.61" class="down-body"/>
<line x1="81.14" y1="870.66" x2="81.14" y2="884.89" class="up-wick"/>
<rect x="78.73" y="871.24" width="4.83" height="11.93" class="up-body"/>
<line x1="88.57" y1="873.82" x2="88.57" y2="886.32" class="down-wick"/>
<rect x="86.15" y="876.63" width="4.83" height="3.38" class="down-body"/>
<line x1="95.99" y1="888.55" x2="95.99" y2="895.74" class="up-wick"/>
<rect x="93.58" y="889.20" width="4.83" height="1.87" class="up-body"/>
<line x1="103.42" y1="859.24" x2="103.42" y2="886.83" class="up-wick"/>
<rect x="101.01" y="859.82" width="4.83" height="27.01" class="up-body"/>
<line x1="110.85" y1="862.33" x2="110.85" y2="872.39" class="down-wick"/>
<rect x="108.43" y="863.48" width="4.83" height="5.32" class="down-body"/>
<line x1="118.27" y1="876.05" x2="118.27" y2="894.80" class="down-wick"/>
<rect x="115.86" y="876.48" width="4.83" height="7.69" class="down-body"/>
<line x1="125.70" y1="874.83" x2="125.70" y2="887.33" class="up-wick"/>
<rect x="123.28" y="884.82" width="4.83" height="1.44" class="up-body"/>
<line x1="133.12" y1="884.96" x2="133.12" y2="898.32" class="down-wick"/>
<rect x="130.71" y="889.92" width="4.83" height="6.11" class="down-body"/>
<line x1="140.55" y1="883.24" x2="140.55" y2="894.16" class="down-wick"/>
<rect x="138.14" y="888.19" width="4.83" height="2.51" class="down-body"/>
<line x1="147.98" y1="872.10" x2="147.98" y2="887.76" class="down-wick"/>
<rect x="145.56" y="875.12" width="4.83" height="12.64" class="down-body"/>
<line x1="155.40" y1="882.88" x2="155.40" y2="896.96" class="down-wick"/>
<rect x="152.99" y="886.61" width="4.83" height="6.03" class="down-body"/>
<line x1="162.83" y1="893.22" x2="162.83" y2="915.92" class="down-wick"/>
<rect x="160.42" y="893.44" width="4.83" height="15.80" class="down-body"/>
<line x1="170.26" y1="900.84" x2="170.26" y2="912.19" class="up-wick"/>
<rect x="167.84" y="910.39" width="4.83" height="1.00" class="up-body"/>
<line x1="177.68" y1="912.55" x2="177.68" y2="923.82" class="down-wick"/>
<rect x="175.27" y="912.83" width="4.83" height="4.02" class="down-body"/>
<line x1="185.11" y1="904.14" x2="185.11" y2="915.35" class="up-wick"/>
<rect x="182.70" y="909.31" width="4.83" height="4.31" class="up-body"/>
<line x1="192.54" y1="911.25" x2="192.54" y2="932.30" class="down-wick"/>
<rect x="190.12" y="912.33" width="4.83" height="18.18" class="down-body"/>
<line x1="199.96" y1="913.05" x2="199.96" y2="928.21" class="up-wick"/>
<rect x="197.55" y="920.66" width="4.83" height="7.54" class="up-body"/>
<line x1="207.39" y1="911.90" x2="207.39" y2="933.67" class="up-wick"/>
<rect x="204.98" y="915.99" width="4.83" height="6.97" class="up-body"/>
<line x1="214.82" y1="905.22" x2="214.82" y2="910.25" class="down-wick"/>
<rect x="212.40" y="908.74" width="4.83" height="1.51" class="down-body"/>
<line x1="222.24" y1="917.00" x2="222.24" y2="931.87" class="down-wick"/>
<rect x="219.83" y="917.00" width="4.83" height="14.30" class="down-body"/>
<line x1="229.67" y1="917.72" x2="229.67" y2="930.94" class="up-wick"/>
<rect x="227.26" y="918.22" width="4.83" height="12.72" class="up-body"/>
<line x1="237.10" y1="904.07" x2="237.10" y2="920.59" class="up-wick"/>
<rect x="234.68" y="905.29" width="4.83" height="7.26" class="up-body"/>
<line x1="244.52" y1="907.59" x2="244.52" y2="927.27" class="down-wick"/>
<rect x="242.11" y="907.66" width="4.83" height="13.43" class="down-body"/>
<line x1="251.95" y1="908.38" x2="251.95" y2="919.01" class="up-wick"/>
<rect x="249.53" y="910.82" width="4.83" height="1.72" class="up-body"/>
<line x1="259.38" y1="909.74" x2="259.38" y2="922.53" class="up-wick"/>
<rect x="256.96" y="914.99" width="4.83" height="6.47" class="up-body"/>
<line x1="266.80" y1="907.52" x2="266.80" y2="912.11" class="up-wick"/>
<rect x="264.39" y="908.38" width="4.83" height="2.51" class="up-body"/>
<line x1="274.23" y1="914.70" x2="274.23" y2="930.51" class="down-wick"/>
<rect x="271.81" y="918.22" width="4.83" height="12.28" class="down-body"/>
<line x1="281.65" y1="939.99" x2="281.65" y2="949.26" class="down-wick"/>
<rect x="279.24" y="942.07" width="4.83" height="4.74" class="down-body"/>
<line x1="289.08" y1="942.22" x2="289.08" y2="953.85" class="down-wick"/>
<rect x="286.67" y="947.39" width="4.83" height="6.03" class="down-body"/>
<line x1="296.51" y1="937.98" x2="296.51" y2="949.97" class="up-wick"/>
<rect x="294.09" y="940.28" width="4.83" height="6.54" class="up-body"/>
<line x1="303.93" y1="942.22" x2="303.93" y2="953.49" class="down-wick"/>
<rect x="301.52" y="942.22" width="4.83" height="8.33" class="down-body"/>
<line x1="311.36" y1="943.15" x2="311.36" y2="967.22" class="up-wick"/>
<rect x="308.95" y="945.09" width="4.83" height="12.57" class="up-body"/>
<line x1="318.79" y1="926.55" x2="318.79" y2="935.39" class="down-wick"/>
<rect x="316.37" y="926.70" width="4.83" height="5.96" class="down-body"/>
<line x1="326.21" y1="921.38" x2="326.21" y2="934.60" class="up-wick"/>
<rect x="323.80" y="922.53" width="4.83" height="12.07" class="up-body"/>
<line x1="333.64" y1="915.64" x2="333.64" y2="925.62" class="up-wick"/>
<rect x="331.23" y="917.57" width="4.83" height="4.81" class="up-body"/>
<line x1="341.07" y1="925.12" x2="341.07" y2="934.67" class="down-wick"/>
<rect x="338.65" y="926.05" width="4.83" height="2.95" class="down-body"/>
<line x1="348.49" y1="917.72" x2="348.49" y2="924.40" class="up-wick"/>
<rect x="346.08" y="921.02" width="4.83" height="1.00" class="up-body"/>
<line x1="355.92" y1="915.42" x2="355.92" y2="929.07" class="up-wick"/>
<rect x="353.51" y="915.42" width="4.83" height="6.11" class="up-body"/>
<line x1="363.35" y1="934.10" x2="363.35" y2="957.95" class="down-wick"/>
<rect x="360.93" y="934.10" width="4.83" height="14.08" class="down-body"/>
<line x1="370.77" y1="937.98" x2="370.77" y2="943.65" class="up-wick"/>
<rect x="368.36" y="939.63" width="4.83" height="1.51" class="up-body"/>
<line x1="378.20" y1="943.29" x2="378.20" y2="948.61" class="up-wick"/>
<rect x="375.78" y="946.67" width="4.83" height="1.00" class="up-body"/>
<line x1="385.62" y1="923.61" x2="385.62" y2="939.77" class="up-wick"/>
<rect x="383.21" y="926.77" width="4.83" height="13.00" class="up-body"/>
<line x1="393.05" y1="919.44" x2="393.05" y2="924.47" class="up-wick"/>
<rect x="390.64" y="922.82" width="4.83" height="1.44" class="up-body"/>
<line x1="400.48" y1="935.32" x2="400.48" y2="942.14" class="down-wick"/>
<rect x="398.06" y="937.47" width="4.83" height="3.02" class="down-body"/>
<line x1="407.90" y1="931.87" x2="407.90" y2="941.57" class="down-wick"/>
<rect x="405.49" y="931.87" width="4.83" height="8.69" class="down-body"/>
<line x1="415.33" y1="941.57" x2="415.33" y2="945.45" class="down-wick"/>
<rect x="412.92" y="942.29" width="4.83" height="2.95" class="down-body"/>
<line x1="422.76" y1="939.70" x2="422.76" y2="944.30" class="down-wick"/>
<rect x="420.34" y="939.70" width="4.83" height="2.37" class="down-body"/>
<line x1="430.18" y1="925.48" x2="430.18" y2="930.51" class="up-wick"/>
<rect x="427.77" y="928.14" width="4.83" height="1.00" class="up-body"/>
<line x1="437.61" y1="925.05" x2="437.61" y2="943.29" class="down-wick"/>
<rect x="435.20" y="929.00" width="4.83" height="14.30" class="down-body"/>
<line x1="445.04" y1="944.37" x2="445.04" y2="948.25" class="up-wick"/>
<rect x="442.62" y="947.53" width="4.83" height="1.00" class="up-body"/>
<line x1="452.46" y1="948.18" x2="452.46" y2="954.57" class="up-wick"/>
<rect x="450.05" y="952.78" width="4.83" height="1.00" class="up-body"/>
<line x1="459.89" y1="944.08" x2="459.89" y2="952.49" class="down-wick"/>
<rect x="457.48" y="947.68" width="4.83" height="4.53" class="down-body"/>
<line x1="467.32" y1="940.56" x2="467.32" y2="946.38" class="up-wick"/>
<rect x="464.90" y="945.59" width="4.83" height="1.00" class="up-body"/>
<line x1="474.74" y1="943.29" x2="474.74" y2="947.89" class="up-wick"/>
<rect x="472.33" y="945.45" width="4.83" height="1.00" class="up-body"/>
<line x1="482.17" y1="926.55" x2="482.17" y2="934.10" class="up-wick"/>
<rect x="479.76" y="929.79" width="4.83" height="4.31" class="up-body"/>
<line x1="489.60" y1="926.12" x2="489.60" y2="936.25" class="up-wick"/>
<rect x="487.18" y="928.57" width="4.83" height="1.00" class="up-body"/>
<line x1="497.02" y1="917.57" x2="497.02" y2="926.12" class="down-wick"/>
<rect x="494.61" y="924.04" width="4.83" height="2.08" class="down-body"/>
<line x1="504.45" y1="926.48" x2="504.45" y2="934.60" class="up-wick"/>
<rect x="502.03" y="928.35" width="4.83" height="1.80" class="up-body"/>
<line x1="511.88" y1="922.60" x2="511.88" y2="929.21" class="down-wick"/>
<rect x="509.46" y="924.33" width="4.83" height="4.38" class="down-body"/>
<line x1="519.30" y1="936.90" x2="519.30" y2="945.38" class="up-wick"/>
<rect x="516.89" y="937.19" width="4.83" height="1.00" class="up-body"/>
<line x1="526.73" y1="924.61" x2="526.73" y2="932.23" class="down-wick"/>
<rect x="524.31" y="930.72" width="4.83" height="1.00" class="down-body"/>
<line x1="534.15" y1="933.52" x2="534.15" y2="945.45" class="up-wick"/>
<rect x="531.74" y="935.25" width="4.83" height="2.59" class="up-body"/>
<line x1="541.58" y1="935.68" x2="541.58" y2="941.93" class="down-wick"/>
<rect x="539.17" y="935.75" width="4.83" height="5.46" class="down-body"/>
<line x1="549.01" y1="932.45" x2="549.01" y2="946.60" class="up-wick"/>
<rect x="546.59" y="935.97" width="4.83" height="8.41" class="up-body"/>
<line x1="556.43" y1="928.14" x2="556.43" y2="934.39" class="up-wick"/>
<rect x="554.02" y="929.72" width="4.83" height="1.00" class="up-body"/>
<line x1="563.86" y1="931.87" x2="563.86" y2="937.62" class="down-wick"/>
<rect x="561.45" y="933.09" width="4.83" height="3.74" class="down-body"/>
<line x1="571.29" y1="917.72" x2="571.29" y2="925.48" class="down-wick"/>
<rect x="568.87" y="917.72" width="4.83" height="7.76" class="down-body"/>
<line x1="578.71" y1="934.53" x2="578.71" y2="946.17" class="down-wick"/>
<rect x="576.30" y="934.60" width="4.83" height="11.14" class="down-body"/>
<line x1="586.14" y1="952.99" x2="586.14" y2="963.70" class="up-wick"/>
<rect x="583.73" y="960.97" width="4.83" height="1.00" class="up-body"/>
<line x1="593.57" y1="962.40" x2="593.57" y2="971.02" class="up-wick"/>
<rect x="591.15" y="963.77" width="4.83" height="1.44" class="up-body"/>
<line x1="600.99" y1="962.04" x2="600.99" y2="967.57" class="up-wick"/>
<rect x="598.58" y="966.14" width="4.83" height="1.44" class="up-body"/>
<line x1="608.42" y1="952.34" x2="608.42" y2="969.95" class="up-wick"/>
<rect x="606.01" y="953.93" width="4.83" height="15.66" class="up-body"/>
<line x1="615.85" y1="948.39" x2="615.85" y2="955.15" class="down-wick"/>
<rect x="613.43" y="950.69" width="4.83" height="3.52" class="down-body"/>
<line x1="623.27" y1="951.05" x2="623.27" y2="959.60" class="up-wick"/>
<rect x="620.86" y="957.01" width="4.83" height="2.51" class="up-body"/>
<line x1="630.70" y1="959.74" x2="630.70" y2="978.06" class="up-wick"/>
<rect x="628.28" y="961.47" width="4.83" height="16.16" class="up-body"/>
<line x1="638.12" y1="937.69" x2="638.12" y2="954.79" class="up-wick"/>
<rect x="635.71" y="943.01" width="4.83" height="11.57" class="up-body"/>
<line x1="645.55" y1="934.74" x2="645.55" y2="944.87" class="up-wick"/>
<rect x="643.14" y="937.83" width="4.83" height="4.31" class="up-body"/>
<line x1="652.98" y1="944.01" x2="652.98" y2="968.65" class="down-wick"/>
<rect x="650.56" y="944.01" width="4.83" height="23.20" class="down-body"/>
<line x1="660.40" y1="957.88" x2="660.40" y2="964.41" class="up-wick"/>
<rect x="657.99" y="958.52" width="4.83" height="5.68" class="up-body"/>
<line x1="667.83" y1="960.61" x2="667.83" y2="969.51" class="up-wick"/>
<rect x="665.42" y="961.83" width="4.83" height="5.68" class="up-body"/>
<line x1="675.26" y1="965.78" x2="675.26" y2="972.17" class="down-wick"/>
<rect x="672.84" y="968.80" width="4.83" height="1.00" class="down-body"/>
<line x1="682.68" y1="966.71" x2="682.68" y2="976.12" class="up-wick"/>
<rect x="680.27" y="966.71" width="4.83" height="4.45" class="up-body"/>
<line x1="690.11" y1="936.61" x2="690.11" y2="962.69" class="down-wick"/>
<rect x="687.70" y="952.27" width="4.83" height="9.20" class="down-body"/>
<line x1="697.54" y1="957.23" x2="697.54" y2="976.70" class="down-wick"/>
<rect x="695.12" y="957.23" width="4.83" height="8.19" class="down-body"/>
<line x1="704.96" y1="947.68" x2="704.96" y2="973.68" class="down-wick"/>
<rect x="702.55" y="957.45" width="4.83" height="13.36" class="down-body"/>
<line x1="712.39" y1="967.14" x2="712.39" y2="983.16" class="up-wick"/>
<rect x="709.98" y="970.74" width="4.83" height="12.28" class="up-body"/>
<line x1="719.82" y1="955.43" x2="719.82" y2="981.58" class="down-wick"/>
<rect x="717.40" y="968.65" width="4.83" height="10.99" class="down-body"/>
<line x1="727.24" y1="969.73" x2="727.24" y2="993.08" class="down-wick"/>
<rect x="724.83" y="970.45" width="4.83" height="19.83" class="down-body"/>
<line x1="734.67" y1="989.20" x2="734.67" y2="998.25" class="down-wick"/>
<rect x="732.26" y="993.65" width="4.83" height="2.08" class="down-body"/>
<line x1="742.10" y1="979.43" x2="742.10" y2="983.24" class="up-wick"/>
<rect x="739.68" y="980.51" width="4.83" height="2.59" class="up-body"/>
<line x1="749.52" y1="961.11" x2="749.52" y2="975.19" class="up-wick"/>
<rect x="747.11" y="967.07" width="4.83" height="8.05" class="up-body"/>
<line x1="756.95" y1="964.70" x2="756.95" y2="974.61" class="down-wick"/>
<rect x="754.53" y="966.28" width="4.83" height="7.54" class="down-body"/>
<line x1="764.38" y1="975.62" x2="764.38" y2="984.03" class="down-wick"/>
<rect x="761.96" y="975.62" width="4.83" height="6.25" class="down-body"/>
<line x1="771.80" y1="969.37" x2="771.80" y2="979.36" class="down-wick"/>
<rect x="769.39" y="969.95" width="4.83" height="5.03" class="down-body"/>
<line x1="779.23" y1="969.73" x2="779.23" y2="981.66" class="down-wick"/>
<rect x="776.81" y="977.13" width="4.83" height="1.00" class="down-body"/>
<line x1="786.65" y1="978.06" x2="786.65" y2="988.34" class="up-wick"/>
<rect x="784.24" y="980.36" width="4.83" height="5.24" class="up-body"/>
<line x1="794.08" y1="966.43" x2="794.08" y2="975.26" class="down-wick"/>
<rect x="791.67" y="966.43" width="4.83" height="6.61" class="down-body"/>
<line x1="801.51" y1="920.81" x2="801.51" y2="947.32" class="up-wick"/>
<rect x="799.09" y="921.24" width="4.83" height="22.13" class="up-body"/>
<line x1="808.93" y1="914.70" x2="808.93" y2="930.36" class="down-wick"/>
<rect x="806.52" y="922.96" width="4.83" height="1.00" class="down-body"/>
<line x1="816.36" y1="916.57" x2="816.36" y2="941.93" class="down-wick"/>
<rect x="813.95" y="924.26" width="4.83" height="12.43" class="down-body"/>
<line x1="823.79" y1="918.29" x2="823.79" y2="929.64" class="up-wick"/>
<rect x="821.37" y="919.59" width="4.83" height="7.83" class="up-body"/>
<line x1="831.21" y1="928.93" x2="831.21" y2="940.49" class="down-wick"/>
<rect x="828.80" y="933.24" width="4.83" height="6.18" class="down-body"/>
<line x1="838.64" y1="942.22" x2="838.64" y2="967.72" class="down-wick"/>
<rect x="836.23" y="946.17" width="4.83" height="20.19" class="down-body"/>
<line x1="846.07" y1="989.27" x2="846.07" y2="1008.31" class="down-wick"/>
<rect x="843.65" y="997.03" width="4.83" height="8.55" class="down-body"/>
<line x1="853.49" y1="998.75" x2="853.49" y2="1024.76" class="up-wick"/>
<rect x="851.08" y="1000.48" width="4.83" height="24.28" class="up-body"/>
<line x1="860.92" y1="1002.78" x2="860.92" y2="1014.34" class="up-wick"/>
<rect x="858.51" y="1003.49" width="4.83" height="10.85" class="up-body"/>
<line x1="868.35" y1="987.62" x2="868.35" y2="1000.55" class="up-wick"/>
<rect x="865.93" y="989.20" width="4.83" height="8.48" class="up-body"/>
<line x1="875.77" y1="992.79" x2="875.77" y2="1004.00" class="down-wick"/>
<rect x="873.36" y="992.79" width="4.83" height="3.88" class="down-body"/>
<line x1="883.20" y1="973.18" x2="883.20" y2="1010.10" class="up-wick"/>
<rect x="880.78" y="981.22" width="4.83" height="23.06" class="up-body"/>
<line x1="890.62" y1="945.74" x2="890.62" y2="961.83" class="up-wick"/>
<rect x="888.21" y="949.97" width="4.83" height="4.24" class="up-body"/>
<line x1="898.05" y1="944.66" x2="898.05" y2="955.00" class="down-wick"/>
<rect x="895.64" y="947.24" width="4.83" height="3.23" class="down-body"/>
<line x1="905.48" y1="941.57" x2="905.48" y2="955.22" class="down-wick"/>
<rect x="903.06" y="951.05" width="4.83" height="1.29" class="down-body"/>
<line x1="912.90" y1="966.64" x2="912.90" y2="984.53" class="up-wick"/>
<rect x="910.49" y="967.50" width="4.83" height="8.62" class="up-body"/>
<line x1="920.33" y1="935.25" x2="920.33" y2="950.19" class="down-wick"/>
<rect x="917.92" y="941.78" width="4.83" height="4.60" class="down-body"/>
<line x1="927.76" y1="953.49" x2="927.76" y2="969.23" class="up-wick"/>
<rect x="925.34" y="953.78" width="4.83" height="1.00" class="up-body"/>
<line x1="935.18" y1="952.20" x2="935.18" y2="961.61" class="up-wick"/>
<rect x="932.77" y="954.72" width="4.83" height="6.90" class="up-body"/>
<line x1="942.61" y1="943.80" x2="942.61" y2="959.31" class="up-wick"/>
<rect x="940.20" y="946.45" width="4.83" height="11.78" class="up-body"/>
<line x1="950.04" y1="949.40" x2="950.04" y2="961.11" class="up-wick"/>
<rect x="947.62" y="950.12" width="4.83" height="1.36" class="up-body"/>
<line x1="957.46" y1="932.45" x2="957.46" y2="946.02" class="down-wick"/>
<rect x="955.05" y="934.03" width="4.83" height="4.02" class="down-body"/>
<line x1="964.89" y1="953.64" x2="964.89" y2="973.11" class="down-wick"/>
<rect x="962.48" y="954.00" width="4.83" height="8.12" class="down-body"/>
<line x1="972.32" y1="958.81" x2="972.32" y2="971.53" class="up-wick"/>
<rect x="969.90" y="960.03" width="4.83" height="10.85" class="up-body"/>
<line x1="979.74" y1="970.02" x2="979.74" y2="978.28" class="down-wick"/>
<rect x="977.33" y="974.90" width="4.83" height="1.15" class="down-body"/>
<line x1="987.17" y1="975.69" x2="987.17" y2="988.70" class="up-wick"/>
<rect x="984.76" y="977.56" width="4.83" height="7.04" class="up-body"/>
<line x1="994.60" y1="979.79" x2="994.60" y2="1001.20" class="up-wick"/>
<rect x="992.18" y="980.65" width="4.83" height="7.97" class="up-body"/>
<line x1="1002.02" y1="976.70" x2="1002.02" y2="992.36" class="up-wick"/>
<rect x="999.61" y="976.84" width="4.83" height="1.29" class="up-body"/>
<line x1="1009.45" y1="985.46" x2="1009.45" y2="997.53" class="up-wick"/>
<rect x="1007.03" y="989.70" width="4.83" height="7.04" class="up-body"/>
<line x1="1016.88" y1="985.61" x2="1016.88" y2="1001.70" class="up-wick"/>
<rect x="1014.46" y="985.82" width="4.83" height="8.19" class="up-body"/>
<line x1="1024.30" y1="943.44" x2="1024.30" y2="972.24" class="down-wick"/>
<rect x="1021.89" y="947.46" width="4.83" height="22.63" class="down-body"/>
<line x1="1031.73" y1="956.51" x2="1031.73" y2="969.16" class="down-wick"/>
<rect x="1029.31" y="959.39" width="4.83" height="8.05" class="down-body"/>
<line x1="1039.15" y1="975.76" x2="1039.15" y2="984.60" class="up-wick"/>
<rect x="1036.74" y="977.27" width="4.83" height="1.22" class="up-body"/>
<line x1="1046.58" y1="960.61" x2="1046.58" y2="974.69" class="down-wick"/>
<rect x="1044.17" y="961.47" width="4.83" height="12.50" class="down-body"/>
<line x1="1054.01" y1="954.28" x2="1054.01" y2="974.47" class="up-wick"/>
<rect x="1051.59" y="955.65" width="4.83" height="18.82" class="up-body"/>
<line x1="1061.43" y1="966.28" x2="1061.43" y2="977.70" class="up-wick"/>
<rect x="1059.02" y="967.00" width="4.83" height="2.87" class="up-body"/>
<line x1="1068.86" y1="952.27" x2="1068.86" y2="963.98" class="down-wick"/>
<rect x="1066.45" y="959.10" width="4.83" height="2.44" class="down-body"/>
<line x1="1076.29" y1="956.87" x2="1076.29" y2="971.24" class="down-wick"/>
<rect x="1073.87" y="957.01" width="4.83" height="12.07" class="down-body"/>
<line x1="70" y1="959.17" x2="1080" y2="959.17" class="sweep-line"/>
<text x="1076" y="955.17" text-anchor="end" class="level-label">sweep 4789.86</text>
<line x1="70" y1="967.22" x2="1080" y2="967.22" class="entry-line"/>
<text x="1076" y="963.22" text-anchor="end" class="level-label">entry level 4788.74</text>
<text x="70" y="1056" class="axis-label">2026-04-20 05:15:00+00:00 to 2026-04-20 09:45:00+00:00</text>
<text x="1080" y="1056" text-anchor="end" class="axis-label">4778.89 - 4805.61</text>
</svg>