<svg xmlns="http://www.w3.org/2000/svg" width="1120" height="1054" viewBox="0 0 1120 1054">
<style>
text{font-family:Arial,Helvetica,sans-serif}.title{font-size:21px;font-weight:700;fill:#1f2937}.subtitle{font-size:12px;fill:#4b5563}.panel-title{font-size:15px;font-weight:700;fill:#111827}.muted{font-size:13px;fill:#6b7280}.plot-bg{fill:#f8fafc;stroke:#cbd5e1;stroke-width:1}.up-body{fill:#15803d;stroke:#14532d;stroke-width:.8}.down-body{fill:#b91c1c;stroke:#7f1d1d;stroke-width:.8}.up-wick{stroke:#14532d;stroke-width:1}.down-wick{stroke:#7f1d1d;stroke-width:1}.sweep-line{stroke:#7c3aed;stroke-width:1.6;stroke-dasharray:6 4}.number-line{stroke:#0f766e;stroke-width:1.4;stroke-dasharray:3 4}.entry-line{stroke:#2563eb;stroke-width:1.4}.sl-line{stroke:#dc2626;stroke-width:1.4}.tp-line{stroke:#16a34a;stroke-width:1.4}.level-label,.axis-label{font-size:11px;fill:#374151}
</style>
<text x="28" y="28" class="title">Adelin v2 visual review sample sample_296</text>
<text x="28" y="48" class="subtitle">Candidate windows are for visual labeling only and are not trade signals.</text>
<text x="560" y="48" class="subtitle" text-anchor="middle">M15_SWING_LOW_SWEEP_VISUAL_CANDIDATE | PRE_ANCHOR_SWEEP_EXTREME_CANDIDATE</text>
<text x="70" y="82" class="panel-title">H1 liquidity context</text>
<rect x="70" y="96" width="1010" height="192" class="plot-bg"/>
<line x1="81.48" y1="166.64" x2="81.48" y2="189.67" class="down-wick"/>
<rect x="77.48" y="174.44" width="8.00" height="11.49" class="down-body"/>
<line x1="104.43" y1="180.56" x2="104.43" y2="195.89" class="down-wick"/>
<rect x="100.43" y="185.94" width="8.00" height="5.71" class="down-body"/>
<line x1="127.39" y1="139.63" x2="127.39" y2="191.71" class="up-wick"/>
<rect x="123.39" y="153.28" width="8.00" height="38.36" class="up-body"/>
<line x1="150.34" y1="146.85" x2="150.34" y2="175.02" class="down-wick"/>
<rect x="146.34" y="153.24" width="8.00" height="8.15" class="down-body"/>
<line x1="173.30" y1="139.27" x2="173.30" y2="175.96" class="up-wick"/>
<rect x="169.30" y="147.00" width="8.00" height="14.09" class="up-body"/>
<line x1="196.25" y1="109.24" x2="196.25" y2="153.36" class="up-wick"/>
<rect x="192.25" y="127.56" width="8.00" height="19.43" class="up-body"/>
<line x1="219.20" y1="118.06" x2="219.20" y2="142.92" class="up-wick"/>
<rect x="215.20" y="126.64" width="8.00" height="1.00" class="up-body"/>
<line x1="242.16" y1="123.21" x2="242.16" y2="137.25" class="down-wick"/>
<rect x="238.16" y="126.64" width="8.00" height="1.00" class="down-body"/>
<line x1="265.11" y1="122.63" x2="265.11" y2="137.39" class="down-wick"/>
<rect x="261.11" y="126.91" width="8.00" height="4.68" class="down-body"/>
<line x1="288.07" y1="129.67" x2="288.07" y2="140.46" class="down-wick"/>
<rect x="284.07" y="131.59" width="8.00" height="1.00" class="down-body"/>
<line x1="311.02" y1="128.00" x2="311.02" y2="144.35" class="down-wick"/>
<rect x="307.02" y="132.43" width="8.00" height="8.24" class="down-body"/>
<line x1="333.98" y1="162.58" x2="333.98" y2="188.77" class="down-wick"/>
<rect x="329.98" y="164.63" width="8.00" height="17.90" class="down-body"/>
<line x1="356.93" y1="182.27" x2="356.93" y2="195.56" class="down-wick"/>
<rect x="352.93" y="182.54" width="8.00" height="6.24" class="down-body"/>
<line x1="379.89" y1="164.73" x2="379.89" y2="199.18" class="up-wick"/>
<rect x="375.89" y="165.29" width="8.00" height="23.48" class="up-body"/>
<line x1="402.84" y1="149.58" x2="402.84" y2="174.47" class="up-wick"/>
<rect x="398.84" y="158.74" width="8.00" height="6.54" class="up-body"/>
<line x1="425.80" y1="131.37" x2="425.80" y2="167.31" class="up-wick"/>
<rect x="421.80" y="138.24" width="8.00" height="20.50" class="up-body"/>
<line x1="448.75" y1="123.54" x2="448.75" y2="143.25" class="up-wick"/>
<rect x="444.75" y="130.49" width="8.00" height="7.86" class="up-body"/>
<line x1="471.70" y1="122.66" x2="471.70" y2="132.32" class="up-wick"/>
<rect x="467.70" y="129.37" width="8.00" height="1.12" class="up-body"/>
<line x1="494.66" y1="128.70" x2="494.66" y2="150.75" class="down-wick"/>
<rect x="490.66" y="129.34" width="8.00" height="19.79" class="down-body"/>
<line x1="517.61" y1="141.74" x2="517.61" y2="150.17" class="up-wick"/>
<rect x="513.61" y="145.44" width="8.00" height="3.68" class="up-body"/>
<line x1="540.57" y1="138.10" x2="540.57" y2="149.08" class="up-wick"/>
<rect x="536.57" y="144.73" width="8.00" height="1.00" class="up-body"/>
<line x1="563.52" y1="142.88" x2="563.52" y2="155.34" class="down-wick"/>
<rect x="559.52" y="144.73" width="8.00" height="8.63" class="down-body"/>
<line x1="586.48" y1="151.42" x2="586.48" y2="162.95" class="down-wick"/>
<rect x="582.48" y="153.30" width="8.00" height="4.31" class="down-body"/>
<line x1="609.43" y1="147.93" x2="609.43" y2="163.01" class="up-wick"/>
<rect x="605.43" y="150.78" width="8.00" height="6.80" class="up-body"/>
<line x1="632.39" y1="150.32" x2="632.39" y2="162.18" class="down-wick"/>
<rect x="628.39" y="150.73" width="8.00" height="5.29" class="down-body"/>
<line x1="655.34" y1="145.69" x2="655.34" y2="166.41" class="down-wick"/>
<rect x="651.34" y="156.00" width="8.00" height="7.40" class="down-body"/>
<line x1="678.30" y1="157.79" x2="678.30" y2="176.44" class="down-wick"/>
<rect x="674.30" y="163.20" width="8.00" height="4.19" class="down-body"/>
<line x1="701.25" y1="166.65" x2="701.25" y2="193.27" class="down-wick"/>
<rect x="697.25" y="167.39" width="8.00" height="23.86" class="down-body"/>
<line x1="724.20" y1="185.36" x2="724.20" y2="205.55" class="down-wick"/>
<rect x="720.20" y="191.25" width="8.00" height="10.60" class="down-body"/>
<line x1="747.16" y1="189.36" x2="747.16" y2="205.56" class="up-wick"/>
<rect x="743.16" y="193.08" width="8.00" height="8.77" class="up-body"/>
<line x1="770.11" y1="180.60" x2="770.11" y2="204.29" class="up-wick"/>
<rect x="766.11" y="185.80" width="8.00" height="7.28" class="up-body"/>
<line x1="793.07" y1="181.51" x2="793.07" y2="190.08" class="down-wick"/>
<rect x="789.07" y="185.80" width="8.00" height="2.00" class="down-body"/>
<line x1="816.02" y1="185.17" x2="816.02" y2="193.11" class="up-wick"/>
<rect x="812.02" y="187.58" width="8.00" height="1.00" class="up-body"/>
<line x1="838.98" y1="173.94" x2="838.98" y2="187.02" class="up-wick"/>
<rect x="834.98" y="178.26" width="8.00" height="8.23" class="up-body"/>
<line x1="861.93" y1="168.94" x2="861.93" y2="179.16" class="up-wick"/>
<rect x="857.93" y="173.07" width="8.00" height="5.19" class="up-body"/>
<line x1="884.89" y1="160.72" x2="884.89" y2="174.96" class="down-wick"/>
<rect x="880.89" y="173.04" width="8.00" height="1.78" class="down-body"/>
<line x1="907.84" y1="173.61" x2="907.84" y2="202.57" class="down-wick"/>
<rect x="903.84" y="174.82" width="8.00" height="26.17" class="down-body"/>
<line x1="930.80" y1="188.97" x2="930.80" y2="206.59" class="down-wick"/>
<rect x="926.80" y="200.99" width="8.00" height="2.06" class="down-body"/>
<line x1="953.75" y1="194.24" x2="953.75" y2="203.92" class="up-wick"/>
<rect x="949.75" y="200.73" width="8.00" height="2.32" class="up-body"/>
<line x1="976.70" y1="200.27" x2="976.70" y2="206.43" class="down-wick"/>
<rect x="972.70" y="200.73" width="8.00" height="4.31" class="down-body"/>
<line x1="999.66" y1="204.52" x2="999.66" y2="262.70" class="down-wick"/>
<rect x="995.66" y="205.01" width="8.00" height="46.70" class="down-body"/>
<line x1="1022.61" y1="237.54" x2="1022.61" y2="263.55" class="down-wick"/>
<rect x="1018.61" y="251.72" width="8.00" height="4.24" class="down-body"/>
<line x1="1045.57" y1="242.17" x2="1045.57" y2="267.22" class="up-wick"/>
<rect x="1041.57" y="250.31" width="8.00" height="5.66" class="up-body"/>
<line x1="1068.52" y1="247.39" x2="1068.52" y2="274.76" class="down-wick"/>
<rect x="1064.52" y="250.31" width="8.00" height="4.73" class="down-body"/>
<line x1="70" y1="150.75" x2="1080" y2="150.75" class="sweep-line"/>
<text x="1076" y="146.75" text-anchor="end" class="level-label">sweep 4708.80</text>
<line x1="70" y1="149.90" x2="1080" y2="149.90" class="entry-line"/>
<text x="1076" y="145.90" text-anchor="end" class="level-label">entry level 4709.45</text>
<text x="70" y="306" class="axis-label">2026-04-24 12:00:00+00:00 to 2026-04-28 11:00:00+00:00</text>
<text x="1080" y="306" text-anchor="end" class="axis-label">4604.69 - 4750.33</text>
<text x="70" y="332" class="panel-title">M15 liquidity / reaction context</text>
<rect x="70" y="346" width="1010" height="192" class="plot-bg"/>
<line x1="77.54" y1="445.58" x2="77.54" y2="502.23" class="down-wick"/>
<rect x="73.54" y="450.03" width="8.00" height="36.98" class="down-body"/>
<line x1="92.61" y1="477.46" x2="92.61" y2="493.59" class="up-wick"/>
<rect x="88.61" y="482.50" width="8.00" height="4.19" class="up-body"/>
<line x1="107.69" y1="482.45" x2="107.69" y2="495.99" class="down-wick"/>
<rect x="103.69" y="482.50" width="8.00" height="6.30" class="down-body"/>
<line x1="122.76" y1="484.95" x2="122.76" y2="496.79" class="up-wick"/>
<rect x="118.76" y="488.75" width="8.00" height="1.00" class="up-body"/>
<line x1="137.84" y1="488.18" x2="137.84" y2="509.13" class="down-wick"/>
<rect x="133.84" y="488.75" width="8.00" height="2.77" class="down-body"/>
<line x1="152.91" y1="489.09" x2="152.91" y2="510.36" class="down-wick"/>
<rect x="148.91" y="491.54" width="8.00" height="18.31" class="down-body"/>
<line x1="167.99" y1="502.12" x2="167.99" y2="516.92" class="down-wick"/>
<rect x="163.99" y="509.85" width="8.00" height="1.37" class="down-body"/>
<line x1="183.06" y1="496.05" x2="183.06" y2="511.27" class="up-wick"/>
<rect x="179.06" y="502.23" width="8.00" height="8.98" class="up-body"/>
<line x1="198.13" y1="498.90" x2="198.13" y2="524.76" class="down-wick"/>
<rect x="194.13" y="502.23" width="8.00" height="1.00" class="down-body"/>
<line x1="213.21" y1="495.82" x2="213.21" y2="508.76" class="up-wick"/>
<rect x="209.21" y="499.78" width="8.00" height="2.85" class="up-body"/>
<line x1="228.28" y1="497.73" x2="228.28" y2="511.33" class="down-wick"/>
<rect x="224.28" y="499.78" width="8.00" height="1.00" class="down-body"/>
<line x1="243.36" y1="450.23" x2="243.36" y2="500.55" class="up-wick"/>
<rect x="239.36" y="451.45" width="8.00" height="49.10" class="up-body"/>
<line x1="258.43" y1="417.46" x2="258.43" y2="467.42" class="down-wick"/>
<rect x="254.43" y="451.42" width="8.00" height="14.20" class="down-body"/>
<line x1="273.51" y1="448.71" x2="273.51" y2="471.30" class="up-wick"/>
<rect x="269.51" y="450.74" width="8.00" height="14.88" class="up-body"/>
<line x1="288.58" y1="442.58" x2="288.58" y2="457.38" class="down-wick"/>
<rect x="284.58" y="450.68" width="8.00" height="1.00" class="down-body"/>
<line x1="303.66" y1="426.65" x2="303.66" y2="451.57" class="up-wick"/>
<rect x="299.66" y="437.28" width="8.00" height="13.80" class="up-body"/>
<line x1="318.73" y1="425.76" x2="318.73" y2="455.81" class="down-wick"/>
<rect x="314.73" y="437.28" width="8.00" height="8.90" class="down-body"/>
<line x1="333.81" y1="421.54" x2="333.81" y2="448.12" class="up-wick"/>
<rect x="329.81" y="428.73" width="8.00" height="17.48" class="up-body"/>
<line x1="348.88" y1="403.58" x2="348.88" y2="432.46" class="up-wick"/>
<rect x="344.88" y="406.77" width="8.00" height="21.95" class="up-body"/>
<line x1="363.96" y1="378.09" x2="363.96" y2="410.42" class="up-wick"/>
<rect x="359.96" y="392.94" width="8.00" height="13.66" class="up-body"/>
<line x1="379.03" y1="381.48" x2="379.03" y2="398.30" class="down-wick"/>
<rect x="375.03" y="393.17" width="8.00" height="1.00" class="down-body"/>
<line x1="394.10" y1="392.26" x2="394.10" y2="403.78" class="down-wick"/>
<rect x="390.10" y="394.06" width="8.00" height="6.24" class="down-body"/>
<line x1="409.18" y1="361.15" x2="409.18" y2="400.93" class="up-wick"/>
<rect x="405.18" y="364.12" width="8.00" height="36.04" class="up-body"/>
<line x1="424.25" y1="362.95" x2="424.25" y2="380.74" class="down-wick"/>
<rect x="420.25" y="364.12" width="8.00" height="12.06" class="down-body"/>
<line x1="439.33" y1="364.86" x2="439.33" y2="377.35" class="up-wick"/>
<rect x="435.33" y="366.65" width="8.00" height="9.52" class="up-body"/>
<line x1="454.40" y1="365.29" x2="454.40" y2="373.75" class="down-wick"/>
<rect x="450.40" y="366.65" width="8.00" height="1.57" class="down-body"/>
<line x1="469.48" y1="359.24" x2="469.48" y2="372.59" class="down-wick"/>
<rect x="465.48" y="368.22" width="8.00" height="1.91" class="down-body"/>
<line x1="484.55" y1="369.05" x2="484.55" y2="380.14" class="down-wick"/>
<rect x="480.55" y="370.13" width="8.00" height="3.62" class="down-body"/>
<line x1="499.63" y1="372.30" x2="499.63" y2="393.34" class="down-wick"/>
<rect x="495.63" y="373.70" width="8.00" height="18.90" class="down-body"/>
<line x1="514.70" y1="388.58" x2="514.70" y2="399.05" class="down-wick"/>
<rect x="510.70" y="392.60" width="8.00" height="1.00" class="down-body"/>
<line x1="529.78" y1="393.00" x2="529.78" y2="419.38" class="down-wick"/>
<rect x="525.78" y="393.34" width="8.00" height="18.90" class="down-body"/>
<line x1="544.85" y1="406.09" x2="544.85" y2="420.00" class="down-wick"/>
<rect x="540.85" y="412.25" width="8.00" height="4.25" class="down-body"/>
<line x1="559.93" y1="400.50" x2="559.93" y2="418.75" class="up-wick"/>
<rect x="555.93" y="403.35" width="8.00" height="13.12" class="up-body"/>
<line x1="575.00" y1="400.67" x2="575.00" y2="412.65" class="down-wick"/>
<rect x="571.00" y="403.35" width="8.00" height="1.00" class="down-body"/>
<line x1="590.07" y1="403.75" x2="590.07" y2="418.66" class="down-wick"/>
<rect x="586.07" y="404.04" width="8.00" height="10.55" class="down-body"/>
<line x1="605.15" y1="400.81" x2="605.15" y2="416.69" class="up-wick"/>
<rect x="601.15" y="408.51" width="8.00" height="6.07" class="up-body"/>
<line x1="620.22" y1="392.94" x2="620.22" y2="413.90" class="up-wick"/>
<rect x="616.22" y="396.45" width="8.00" height="12.00" class="up-body"/>
<line x1="635.30" y1="392.63" x2="635.30" y2="409.82" class="down-wick"/>
<rect x="631.30" y="396.45" width="8.00" height="2.77" class="down-body"/>
<line x1="650.37" y1="395.45" x2="650.37" y2="406.60" class="down-wick"/>
<rect x="646.37" y="399.22" width="8.00" height="3.34" class="down-body"/>
<line x1="665.45" y1="396.82" x2="665.45" y2="416.38" class="down-wick"/>
<rect x="661.45" y="402.55" width="8.00" height="4.42" class="down-body"/>
<line x1="680.52" y1="404.06" x2="680.52" y2="415.67" class="down-wick"/>
<rect x="676.52" y="406.97" width="8.00" height="6.90" class="down-body"/>
<line x1="695.60" y1="404.89" x2="695.60" y2="418.15" class="down-wick"/>
<rect x="691.60" y="413.87" width="8.00" height="1.00" class="down-body"/>
<line x1="710.67" y1="410.94" x2="710.67" y2="429.92" class="up-wick"/>
<rect x="706.67" y="411.05" width="8.00" height="3.39" class="up-body"/>
<line x1="725.75" y1="402.98" x2="725.75" y2="429.27" class="down-wick"/>
<rect x="721.75" y="411.05" width="8.00" height="14.60" class="down-body"/>
<line x1="740.82" y1="421.46" x2="740.82" y2="437.91" class="down-wick"/>
<rect x="736.82" y="425.51" width="8.00" height="4.79" class="down-body"/>
<line x1="755.90" y1="426.25" x2="755.90" y2="440.62" class="down-wick"/>
<rect x="751.90" y="430.30" width="8.00" height="8.38" class="down-body"/>
<line x1="770.97" y1="429.61" x2="770.97" y2="446.38" class="up-wick"/>
<rect x="766.97" y="431.78" width="8.00" height="7.16" class="up-body"/>
<line x1="786.04" y1="431.81" x2="786.04" y2="446.32" class="down-wick"/>
<rect x="782.04" y="431.81" width="8.00" height="3.02" class="down-body"/>
<line x1="801.12" y1="425.53" x2="801.12" y2="440.65" class="down-wick"/>
<rect x="797.12" y="434.77" width="8.00" height="4.79" class="down-body"/>
<line x1="816.19" y1="428.33" x2="816.19" y2="446.52" class="up-wick"/>
<rect x="812.19" y="430.52" width="8.00" height="9.04" class="up-body"/>
<line x1="831.27" y1="414.90" x2="831.27" y2="431.92" class="up-wick"/>
<rect x="827.27" y="419.35" width="8.00" height="11.18" class="up-body"/>
<line x1="846.34" y1="413.90" x2="846.34" y2="424.79" class="down-wick"/>
<rect x="842.34" y="419.35" width="8.00" height="1.00" class="down-body"/>
<line x1="861.42" y1="419.06" x2="861.42" y2="433.86" class="down-wick"/>
<rect x="857.42" y="419.95" width="8.00" height="13.46" class="down-body"/>
<line x1="876.49" y1="425.19" x2="876.49" y2="444.35" class="up-wick"/>
<rect x="872.49" y="430.18" width="8.00" height="3.22" class="up-body"/>
<line x1="891.57" y1="420.80" x2="891.57" y2="444.72" class="down-wick"/>
<rect x="887.57" y="430.18" width="8.00" height="7.38" class="down-body"/>
<line x1="906.64" y1="429.98" x2="906.64" y2="442.50" class="up-wick"/>
<rect x="902.64" y="431.38" width="8.00" height="6.19" class="up-body"/>
<line x1="921.72" y1="418.80" x2="921.72" y2="437.91" class="up-wick"/>
<rect x="917.72" y="419.69" width="8.00" height="11.66" class="up-body"/>
<line x1="936.79" y1="409.05" x2="936.79" y2="439.08" class="down-wick"/>
<rect x="932.79" y="419.69" width="8.00" height="5.47" class="down-body"/>
<line x1="951.87" y1="422.88" x2="951.87" y2="453.70" class="down-wick"/>
<rect x="947.87" y="425.16" width="8.00" height="23.15" class="down-body"/>
<line x1="966.94" y1="432.18" x2="966.94" y2="453.88" class="up-wick"/>
<rect x="962.94" y="447.35" width="8.00" height="1.00" class="up-body"/>
<line x1="982.01" y1="443.35" x2="982.01" y2="464.17" class="down-wick"/>
<rect x="978.01" y="446.92" width="8.00" height="9.58" class="down-body"/>
<line x1="997.09" y1="435.23" x2="997.09" y2="457.72" class="up-wick"/>
<rect x="993.09" y="444.81" width="8.00" height="11.69" class="up-body"/>
<line x1="1012.16" y1="437.68" x2="1012.16" y2="475.52" class="down-wick"/>
<rect x="1008.16" y="444.81" width="8.00" height="19.33" class="down-body"/>
<line x1="1027.24" y1="452.51" x2="1027.24" y2="475.57" class="up-wick"/>
<rect x="1023.24" y="455.99" width="8.00" height="8.15" class="up-body"/>
<line x1="1042.31" y1="455.67" x2="1042.31" y2="479.65" class="down-wick"/>
<rect x="1038.31" y="455.99" width="8.00" height="10.35" class="down-body"/>
<line x1="1057.39" y1="454.67" x2="1057.39" y2="484.56" class="down-wick"/>
<rect x="1053.39" y="466.34" width="8.00" height="10.18" class="down-body"/>
<line x1="1072.46" y1="454.39" x2="1072.46" y2="492.20" class="up-wick"/>
<rect x="1068.46" y="463.83" width="8.00" height="12.69" class="up-body"/>
<line x1="70" y1="420.00" x2="1080" y2="420.00" class="sweep-line"/>
<text x="1076" y="416.00" text-anchor="end" class="level-label">sweep 4708.80</text>
<line x1="70" y1="418.15" x2="1080" y2="418.15" class="entry-line"/>
<text x="1076" y="414.15" text-anchor="end" class="level-label">entry level 4709.45</text>
<text x="70" y="556" class="axis-label">2026-04-27 01:00:00+00:00 to 2026-04-27 17:30:00+00:00</text>
<text x="1080" y="556" text-anchor="end" class="axis-label">4667.42 - 4734.75</text>
<text x="70" y="582" class="panel-title">M5 reaction / execution context</text>
<rect x="70" y="596" width="1010" height="192" class="plot-bg"/>
<line x1="79.18" y1="615.11" x2="79.18" y2="674.57" class="up-wick"/>
<rect x="75.18" y="618.00" width="8.00" height="39.85" class="up-body"/>
<line x1="97.55" y1="610.20" x2="97.55" y2="641.03" class="down-wick"/>
<rect x="93.55" y="618.00" width="8.00" height="2.63" class="down-body"/>
<line x1="115.91" y1="616.07" x2="115.91" y2="646.37" class="down-wick"/>
<rect x="111.91" y="620.63" width="8.00" height="1.00" class="down-body"/>
<line x1="134.27" y1="618.61" x2="134.27" y2="662.05" class="down-wick"/>
<rect x="130.27" y="620.98" width="8.00" height="16.11" class="down-body"/>
<line x1="152.64" y1="609.24" x2="152.64" y2="650.84" class="up-wick"/>
<rect x="148.64" y="614.76" width="8.00" height="22.59" class="up-body"/>
<line x1="171.00" y1="610.64" x2="171.00" y2="645.85" class="down-wick"/>
<rect x="167.00" y="614.58" width="8.00" height="14.89" class="down-body"/>
<line x1="189.36" y1="617.91" x2="189.36" y2="649.88" class="up-wick"/>
<rect x="185.36" y="625.00" width="8.00" height="4.47" class="up-body"/>
<line x1="207.73" y1="624.48" x2="207.73" y2="652.15" class="down-wick"/>
<rect x="203.73" y="625.00" width="8.00" height="5.96" class="down-body"/>
<line x1="226.09" y1="622.99" x2="226.09" y2="642.70" class="down-wick"/>
<rect x="222.09" y="630.78" width="8.00" height="8.93" class="down-body"/>
<line x1="244.45" y1="622.11" x2="244.45" y2="655.31" class="down-wick"/>
<rect x="240.45" y="639.72" width="8.00" height="4.90" class="down-body"/>
<line x1="262.82" y1="640.77" x2="262.82" y2="682.19" class="down-wick"/>
<rect x="258.82" y="644.71" width="8.00" height="19.79" class="down-body"/>
<line x1="281.18" y1="644.01" x2="281.18" y2="668.27" class="up-wick"/>
<rect x="277.18" y="653.29" width="8.00" height="11.56" class="up-body"/>
<line x1="299.55" y1="644.36" x2="299.55" y2="679.39" class="down-wick"/>
<rect x="295.55" y="653.29" width="8.00" height="10.51" class="down-body"/>
<line x1="317.91" y1="652.24" x2="317.91" y2="680.00" class="down-wick"/>
<rect x="313.91" y="663.80" width="8.00" height="3.15" class="down-body"/>
<line x1="336.27" y1="649.44" x2="336.27" y2="676.24" class="down-wick"/>
<rect x="332.27" y="666.95" width="8.00" height="7.53" class="down-body"/>
<line x1="354.64" y1="646.90" x2="354.64" y2="678.69" class="down-wick"/>
<rect x="350.64" y="674.48" width="8.00" height="3.68" class="down-body"/>
<line x1="373.00" y1="661.52" x2="373.00" y2="687.62" class="up-wick"/>
<rect x="369.00" y="672.65" width="8.00" height="5.52" class="up-body"/>
<line x1="391.36" y1="666.43" x2="391.36" y2="687.36" class="down-wick"/>
<rect x="387.36" y="672.65" width="8.00" height="3.59" class="down-body"/>
<line x1="409.73" y1="675.89" x2="409.73" y2="708.38" class="down-wick"/>
<rect x="405.73" y="676.24" width="8.00" height="9.98" class="down-body"/>
<line x1="428.09" y1="683.59" x2="428.09" y2="709.16" class="down-wick"/>
<rect x="424.09" y="686.22" width="8.00" height="18.13" class="down-body"/>
<line x1="446.45" y1="665.46" x2="446.45" y2="723.79" class="up-wick"/>
<rect x="442.45" y="665.81" width="8.00" height="38.53" class="up-body"/>
<line x1="464.82" y1="641.03" x2="464.82" y2="670.19" class="up-wick"/>
<rect x="460.82" y="662.93" width="8.00" height="2.89" class="up-body"/>
<line x1="483.18" y1="661.17" x2="483.18" y2="710.65" class="down-wick"/>
<rect x="479.18" y="662.93" width="8.00" height="46.41" class="down-body"/>
<line x1="501.55" y1="694.98" x2="501.55" y2="721.78" class="down-wick"/>
<rect x="497.55" y="709.34" width="8.00" height="1.31" class="down-body"/>
<line x1="519.91" y1="698.66" x2="519.91" y2="721.34" class="down-wick"/>
<rect x="515.91" y="710.22" width="8.00" height="3.50" class="down-body"/>
<line x1="538.27" y1="697.78" x2="538.27" y2="732.46" class="down-wick"/>
<rect x="534.27" y="713.72" width="8.00" height="16.29" class="down-body"/>
<line x1="556.64" y1="716.87" x2="556.64" y2="748.31" class="up-wick"/>
<rect x="552.64" y="724.93" width="8.00" height="5.08" class="up-body"/>
<line x1="575.00" y1="717.40" x2="575.00" y2="740.08" class="up-wick"/>
<rect x="571.00" y="720.99" width="8.00" height="3.94" class="up-body"/>
<line x1="593.36" y1="716.52" x2="593.36" y2="727.73" class="up-wick"/>
<rect x="589.36" y="719.32" width="8.00" height="1.66" class="up-body"/>
<line x1="611.73" y1="712.49" x2="611.73" y2="756.63" class="down-wick"/>
<rect x="607.73" y="719.32" width="8.00" height="31.35" class="down-body"/>
<line x1="630.09" y1="736.58" x2="630.09" y2="774.32" class="up-wick"/>
<rect x="626.09" y="744.46" width="8.00" height="7.01" class="up-body"/>
<line x1="648.45" y1="732.20" x2="648.45" y2="763.72" class="up-wick"/>
<rect x="644.45" y="732.20" width="8.00" height="11.91" class="up-body"/>
<line x1="666.82" y1="722.83" x2="666.82" y2="741.30" class="up-wick"/>
<rect x="662.82" y="729.48" width="8.00" height="2.71" class="up-body"/>
<line x1="685.18" y1="729.57" x2="685.18" y2="768.98" class="down-wick"/>
<rect x="681.18" y="729.57" width="8.00" height="37.13" class="down-body"/>
<line x1="703.55" y1="747.26" x2="703.55" y2="774.15" class="up-wick"/>
<rect x="699.55" y="766.09" width="8.00" height="1.00" class="up-body"/>
<line x1="721.91" y1="732.20" x2="721.91" y2="766.35" class="up-wick"/>
<rect x="717.91" y="738.85" width="8.00" height="27.15" class="up-body"/>
<line x1="740.27" y1="717.05" x2="740.27" y2="746.38" class="up-wick"/>
<rect x="736.27" y="724.23" width="8.00" height="14.45" class="up-body"/>
<line x1="758.64" y1="710.30" x2="758.64" y2="740.34" class="down-wick"/>
<rect x="754.64" y="724.23" width="8.00" height="12.96" class="down-body"/>
<line x1="777.00" y1="733.34" x2="777.00" y2="756.72" class="down-wick"/>
<rect x="773.00" y="737.19" width="8.00" height="16.20" class="down-body"/>
<line x1="795.36" y1="743.58" x2="795.36" y2="774.76" class="up-wick"/>
<rect x="791.36" y="751.29" width="8.00" height="2.10" class="up-body"/>
<line x1="813.73" y1="718.89" x2="813.73" y2="751.29" class="up-wick"/>
<rect x="809.73" y="732.02" width="8.00" height="19.27" class="up-body"/>
<line x1="832.09" y1="721.95" x2="832.09" y2="740.08" class="up-wick"/>
<rect x="828.09" y="725.63" width="8.00" height="6.39" class="up-body"/>
<line x1="850.45" y1="699.01" x2="850.45" y2="729.92" class="up-wick"/>
<rect x="846.45" y="705.49" width="8.00" height="20.14" class="up-body"/>
<line x1="868.82" y1="685.87" x2="868.82" y2="723.53" class="up-wick"/>
<rect x="864.82" y="697.34" width="8.00" height="8.14" class="up-body"/>
<line x1="887.18" y1="677.64" x2="887.18" y2="697.34" class="up-wick"/>
<rect x="883.18" y="691.30" width="8.00" height="6.04" class="up-body"/>
<line x1="905.55" y1="676.59" x2="905.55" y2="702.16" class="down-wick"/>
<rect x="901.55" y="691.30" width="8.00" height="5.78" class="down-body"/>
<line x1="923.91" y1="680.44" x2="923.91" y2="708.03" class="up-wick"/>
<rect x="919.91" y="689.29" width="8.00" height="7.79" class="up-body"/>
<line x1="942.27" y1="674.57" x2="942.27" y2="698.04" class="down-wick"/>
<rect x="938.27" y="689.29" width="8.00" height="4.20" class="down-body"/>
<line x1="960.64" y1="690.42" x2="960.64" y2="723.35" class="down-wick"/>
<rect x="956.64" y="693.14" width="8.00" height="26.27" class="down-body"/>
<line x1="979.00" y1="702.77" x2="979.00" y2="722.91" class="up-wick"/>
<rect x="975.00" y="709.52" width="8.00" height="9.90" class="up-body"/>
<line x1="997.36" y1="709.16" x2="997.36" y2="735.88" class="down-wick"/>
<rect x="993.36" y="709.52" width="8.00" height="24.96" class="down-body"/>
<line x1="1015.73" y1="728.17" x2="1015.73" y2="765.30" class="down-wick"/>
<rect x="1011.73" y="734.47" width="8.00" height="1.00" class="down-body"/>
<line x1="1034.09" y1="728.69" x2="1034.09" y2="768.10" class="up-wick"/>
<rect x="1030.09" y="734.74" width="8.00" height="1.00" class="up-body"/>
<line x1="1052.45" y1="709.25" x2="1052.45" y2="743.06" class="up-wick"/>
<rect x="1048.45" y="724.58" width="8.00" height="10.16" class="up-body"/>
<line x1="1070.82" y1="695.77" x2="1070.82" y2="731.93" class="up-wick"/>
<rect x="1066.82" y="722.56" width="8.00" height="2.01" class="up-body"/>
<line x1="70" y1="693.31" x2="1080" y2="693.31" class="sweep-line"/>
<text x="1076" y="689.31" text-anchor="end" class="level-label">sweep 4708.80</text>
<line x1="70" y1="687.62" x2="1080" y2="687.62" class="entry-line"/>
<text x="1076" y="683.62" text-anchor="end" class="level-label">entry level 4709.45</text>
<text x="70" y="806" class="axis-label">2026-04-27 10:00:00+00:00 to 2026-04-27 14:30:00+00:00</text>
<text x="1080" y="806" text-anchor="end" class="axis-label">4697.99 - 4719.91</text>
<text x="70" y="832" class="panel-title">M1 execution window</text>
<rect x="70" y="846" width="1010" height="192" class="plot-bg"/>
<line x1="73.71" y1="906.31" x2="73.71" y2="924.75" class="down-wick"/>
<rect x="71.30" y="907.97" width="4.83" height="5.18" class="down-body"/>
<line x1="81.14" y1="893.31" x2="81.14" y2="911.93" class="up-wick"/>
<rect x="78.73" y="893.75" width="4.83" height="11.94" class="up-body"/>
<line x1="88.57" y1="865.12" x2="88.57" y2="887.69" class="up-wick"/>
<rect x="86.15" y="868.02" width="4.83" height="17.74" class="up-body"/>
<line x1="95.99" y1="866.09" x2="95.99" y2="889.53" class="up-wick"/>
<rect x="93.58" y="866.88" width="4.83" height="22.65" class="up-body"/>
<line x1="103.42" y1="862.75" x2="103.42" y2="890.85" class="down-wick"/>
<rect x="101.01" y="862.75" width="4.83" height="19.41" class="down-body"/>
<line x1="110.85" y1="866.09" x2="110.85" y2="885.23" class="down-wick"/>
<rect x="108.43" y="870.66" width="4.83" height="13.08" class="down-body"/>
<line x1="118.27" y1="875.40" x2="118.27" y2="892.26" class="up-wick"/>
<rect x="115.86" y="876.45" width="4.83" height="11.15" class="up-body"/>
<line x1="125.70" y1="867.14" x2="125.70" y2="874.87" class="up-wick"/>
<rect x="123.28" y="871.01" width="4.83" height="3.51" class="up-body"/>
<line x1="133.12" y1="881.46" x2="133.12" y2="912.19" class="down-wick"/>
<rect x="130.71" y="884.18" width="4.83" height="14.93" class="down-body"/>
<line x1="140.55" y1="895.42" x2="140.55" y2="909.73" class="down-wick"/>
<rect x="138.14" y="902.97" width="4.83" height="4.92" class="down-body"/>
<line x1="147.98" y1="873.82" x2="147.98" y2="892.78" class="up-wick"/>
<rect x="145.56" y="885.76" width="4.83" height="1.67" class="up-body"/>
<line x1="155.40" y1="881.02" x2="155.40" y2="890.33" class="up-wick"/>
<rect x="152.99" y="884.18" width="4.83" height="3.25" class="up-body"/>
<line x1="162.83" y1="859.24" x2="162.83" y2="872.06" class="up-wick"/>
<rect x="160.42" y="864.77" width="4.83" height="5.44" class="up-body"/>
<line x1="170.26" y1="860.65" x2="170.26" y2="872.15" class="down-wick"/>
<rect x="167.84" y="865.83" width="4.83" height="3.60" class="down-body"/>
<line x1="177.68" y1="887.25" x2="177.68" y2="895.94" class="up-wick"/>
<rect x="175.27" y="888.74" width="4.83" height="3.51" class="up-body"/>
<line x1="185.11" y1="873.73" x2="185.11" y2="899.98" class="down-wick"/>
<rect x="182.70" y="879.52" width="4.83" height="14.58" class="down-body"/>
<line x1="192.54" y1="872.41" x2="192.54" y2="881.63" class="down-wick"/>
<rect x="190.12" y="878.47" width="4.83" height="1.76" class="down-body"/>
<line x1="199.96" y1="871.53" x2="199.96" y2="877.68" class="down-wick"/>
<rect x="197.55" y="872.24" width="4.83" height="2.81" class="down-body"/>
<line x1="207.39" y1="885.76" x2="207.39" y2="898.93" class="down-wick"/>
<rect x="204.98" y="891.99" width="4.83" height="6.76" class="down-body"/>
<line x1="214.82" y1="888.31" x2="214.82" y2="902.27" class="up-wick"/>
<rect x="212.40" y="895.51" width="4.83" height="4.39" class="up-body"/>
<line x1="222.24" y1="878.12" x2="222.24" y2="892.17" class="down-wick"/>
<rect x="219.83" y="880.84" width="4.83" height="7.64" class="down-body"/>
<line x1="229.67" y1="873.03" x2="229.67" y2="892.78" class="up-wick"/>
<rect x="227.26" y="879.26" width="4.83" height="6.06" class="up-body"/>
<line x1="237.10" y1="875.40" x2="237.10" y2="891.12" class="down-wick"/>
<rect x="234.68" y="886.29" width="4.83" height="3.51" class="down-body"/>
<line x1="244.52" y1="872.15" x2="244.52" y2="888.04" class="up-wick"/>
<rect x="242.11" y="875.75" width="4.83" height="11.77" class="up-body"/>
<line x1="251.95" y1="884.00" x2="251.95" y2="892.34" class="down-wick"/>
<rect x="249.53" y="885.14" width="4.83" height="6.59" class="down-body"/>
<line x1="259.38" y1="891.99" x2="259.38" y2="908.94" class="down-wick"/>
<rect x="256.96" y="894.80" width="4.83" height="5.01" class="down-body"/>
<line x1="266.80" y1="899.72" x2="266.80" y2="908.59" class="down-wick"/>
<rect x="264.39" y="901.04" width="4.83" height="4.74" class="down-body"/>
<line x1="274.23" y1="913.51" x2="274.23" y2="932.39" class="up-wick"/>
<rect x="271.81" y="914.65" width="4.83" height="8.69" class="up-body"/>
<line x1="281.65" y1="902.09" x2="281.65" y2="918.42" class="up-wick"/>
<rect x="279.24" y="904.90" width="4.83" height="9.31" class="up-body"/>
<line x1="289.08" y1="894.63" x2="289.08" y2="904.64" class="up-wick"/>
<rect x="286.67" y="895.07" width="4.83" height="7.29" class="up-body"/>
<line x1="296.51" y1="903.41" x2="296.51" y2="929.58" class="down-wick"/>
<rect x="294.09" y="903.41" width="4.83" height="10.45" class="down-body"/>
<line x1="303.93" y1="915.97" x2="303.93" y2="927.47" class="up-wick"/>
<rect x="301.52" y="918.16" width="4.83" height="1.67" class="up-body"/>
<line x1="311.36" y1="910.52" x2="311.36" y2="925.18" class="up-wick"/>
<rect x="308.95" y="913.95" width="4.83" height="5.88" class="up-body"/>
<line x1="318.79" y1="909.12" x2="318.79" y2="930.10" class="down-wick"/>
<rect x="316.37" y="911.40" width="4.83" height="14.75" class="down-body"/>
<line x1="326.21" y1="905.25" x2="326.21" y2="914.47" class="up-wick"/>
<rect x="323.80" y="909.12" width="4.83" height="2.37" class="up-body"/>
<line x1="333.64" y1="910.61" x2="333.64" y2="926.41" class="down-wick"/>
<rect x="331.23" y="917.11" width="4.83" height="6.59" class="down-body"/>
<line x1="341.07" y1="899.55" x2="341.07" y2="920.00" class="down-wick"/>
<rect x="338.65" y="907.54" width="4.83" height="5.80" class="down-body"/>
<line x1="348.49" y1="915.61" x2="348.49" y2="925.62" class="down-wick"/>
<rect x="346.08" y="915.61" width="4.83" height="9.04" class="down-body"/>
<line x1="355.92" y1="897.00" x2="355.92" y2="908.85" class="up-wick"/>
<rect x="353.51" y="903.58" width="4.83" height="5.01" class="up-body"/>
<line x1="363.35" y1="897.53" x2="363.35" y2="912.10" class="down-wick"/>
<rect x="360.93" y="897.61" width="4.83" height="10.19" class="down-body"/>
<line x1="370.77" y1="918.51" x2="370.77" y2="933.18" class="up-wick"/>
<rect x="368.36" y="921.41" width="4.83" height="6.94" class="up-body"/>
<line x1="378.20" y1="911.66" x2="378.20" y2="924.75" class="down-wick"/>
<rect x="375.78" y="920.09" width="4.83" height="1.32" class="down-body"/>
<line x1="385.62" y1="921.32" x2="385.62" y2="936.16" class="up-wick"/>
<rect x="383.21" y="922.81" width="4.83" height="13.35" class="up-body"/>
<line x1="393.05" y1="926.68" x2="393.05" y2="937.57" class="down-wick"/>
<rect x="390.64" y="928.17" width="4.83" height="7.99" class="down-body"/>
<line x1="400.48" y1="922.64" x2="400.48" y2="930.01" class="down-wick"/>
<rect x="398.06" y="927.29" width="4.83" height="1.40" class="down-body"/>
<line x1="407.90" y1="926.06" x2="407.90" y2="958.64" class="down-wick"/>
<rect x="405.49" y="926.41" width="4.83" height="24.94" class="down-body"/>
<line x1="415.33" y1="930.01" x2="415.33" y2="945.73" class="up-wick"/>
<rect x="412.92" y="940.55" width="4.83" height="1.23" class="up-body"/>
<line x1="422.76" y1="935.19" x2="422.76" y2="947.58" class="up-wick"/>
<rect x="420.34" y="936.42" width="4.83" height="6.67" class="up-body"/>
<line x1="430.18" y1="937.65" x2="430.18" y2="945.91" class="down-wick"/>
<rect x="427.77" y="938.97" width="4.83" height="4.21" class="down-body"/>
<line x1="437.61" y1="944.41" x2="437.61" y2="957.15" class="up-wick"/>
<rect x="435.20" y="946.26" width="4.83" height="9.83" class="up-body"/>
<line x1="445.04" y1="954.42" x2="445.04" y2="974.09" class="down-wick"/>
<rect x="442.62" y="954.60" width="4.83" height="10.45" class="down-body"/>
<line x1="452.46" y1="948.72" x2="452.46" y2="960.57" class="up-wick"/>
<rect x="450.05" y="951.70" width="4.83" height="5.27" class="up-body"/>
<line x1="459.89" y1="915.61" x2="459.89" y2="929.93" class="up-wick"/>
<rect x="457.48" y="915.97" width="4.83" height="11.68" class="up-body"/>
<line x1="467.32" y1="894.89" x2="467.32" y2="912.72" class="up-wick"/>
<rect x="464.90" y="900.77" width="4.83" height="6.59" class="up-body"/>
<line x1="474.74" y1="895.59" x2="474.74" y2="905.43" class="down-wick"/>
<rect x="472.33" y="897.96" width="4.83" height="5.62" class="down-body"/>
<line x1="482.17" y1="911.31" x2="482.17" y2="925.89" class="down-wick"/>
<rect x="479.76" y="913.07" width="4.83" height="8.25" class="down-body"/>
<line x1="489.60" y1="925.62" x2="489.60" y2="940.99" class="down-wick"/>
<rect x="487.18" y="926.24" width="4.83" height="14.14" class="down-body"/>
<line x1="497.02" y1="951.88" x2="497.02" y2="960.92" class="down-wick"/>
<rect x="494.61" y="953.20" width="4.83" height="6.41" class="down-body"/>
<line x1="504.45" y1="945.20" x2="504.45" y2="963.12" class="up-wick"/>
<rect x="502.03" y="946.35" width="4.83" height="15.89" class="up-body"/>
<line x1="511.88" y1="950.91" x2="511.88" y2="960.40" class="down-wick"/>
<rect x="509.46" y="952.41" width="4.83" height="5.97" class="down-body"/>
<line x1="519.30" y1="948.89" x2="519.30" y2="965.75" class="up-wick"/>
<rect x="516.89" y="956.71" width="4.83" height="3.78" class="up-body"/>
<line x1="526.73" y1="957.50" x2="526.73" y2="971.64" class="up-wick"/>
<rect x="524.31" y="962.06" width="4.83" height="1.23" class="up-body"/>
<line x1="534.15" y1="962.59" x2="534.15" y2="969.70" class="up-wick"/>
<rect x="531.74" y="964.00" width="4.83" height="5.62" class="up-body"/>
<line x1="541.58" y1="956.88" x2="541.58" y2="968.30" class="up-wick"/>
<rect x="539.17" y="960.57" width="4.83" height="5.01" class="up-body"/>
<line x1="549.01" y1="948.01" x2="549.01" y2="963.91" class="down-wick"/>
<rect x="546.59" y="950.82" width="4.83" height="7.29" class="down-body"/>
<line x1="556.43" y1="977.87" x2="556.43" y2="990.07" class="down-wick"/>
<rect x="554.02" y="980.33" width="4.83" height="1.67" class="down-body"/>
<line x1="563.86" y1="978.92" x2="563.86" y2="992.71" class="up-wick"/>
<rect x="561.45" y="982.87" width="4.83" height="9.48" class="up-body"/>
<line x1="571.29" y1="967.16" x2="571.29" y2="979.01" class="down-wick"/>
<rect x="568.87" y="971.81" width="4.83" height="3.42" class="down-body"/>
<line x1="578.71" y1="980.24" x2="578.71" y2="990.43" class="down-wick"/>
<rect x="576.30" y="983.84" width="4.83" height="5.44" class="down-body"/>
<line x1="586.14" y1="967.68" x2="586.14" y2="978.92" class="up-wick"/>
<rect x="583.73" y="972.69" width="4.83" height="3.51" class="up-body"/>
<line x1="593.57" y1="969.79" x2="593.57" y2="978.05" class="down-wick"/>
<rect x="591.15" y="971.28" width="4.83" height="4.65" class="down-body"/>
<line x1="600.99" y1="968.47" x2="600.99" y2="976.29" class="up-wick"/>
<rect x="598.58" y="970.84" width="4.83" height="4.39" class="up-body"/>
<line x1="608.42" y1="966.81" x2="608.42" y2="972.16" class="up-wick"/>
<rect x="606.01" y="969.62" width="4.83" height="1.76" class="up-body"/>
<line x1="615.85" y1="972.86" x2="615.85" y2="979.63" class="down-wick"/>
<rect x="613.43" y="972.95" width="4.83" height="2.99" class="down-body"/>
<line x1="623.27" y1="979.80" x2="623.27" y2="997.36" class="down-wick"/>
<rect x="620.86" y="989.02" width="4.83" height="6.50" class="down-body"/>
<line x1="630.70" y1="993.85" x2="630.70" y2="1024.76" class="down-wick"/>
<rect x="628.28" y="1001.84" width="4.83" height="13.08" class="down-body"/>
<line x1="638.12" y1="986.91" x2="638.12" y2="1004.65" class="up-wick"/>
<rect x="635.71" y="987.00" width="4.83" height="17.65" class="up-body"/>
<line x1="645.55" y1="987.70" x2="645.55" y2="996.92" class="up-wick"/>
<rect x="643.14" y="994.82" width="4.83" height="1.49" class="up-body"/>
<line x1="652.98" y1="998.24" x2="652.98" y2="1014.13" class="down-wick"/>
<rect x="650.56" y="1005.09" width="4.83" height="2.90" class="down-body"/>
<line x1="660.40" y1="991.04" x2="660.40" y2="1004.83" class="up-wick"/>
<rect x="657.99" y="995.43" width="4.83" height="7.20" class="up-body"/>
<line x1="667.83" y1="973.48" x2="667.83" y2="986.56" class="down-wick"/>
<rect x="665.42" y="982.52" width="4.83" height="1.00" class="down-body"/>
<line x1="675.26" y1="973.48" x2="675.26" y2="987.53" class="down-wick"/>
<rect x="672.84" y="973.48" width="4.83" height="10.54" class="down-body"/>
<line x1="682.68" y1="979.63" x2="682.68" y2="989.55" class="up-wick"/>
<rect x="680.27" y="979.80" width="4.83" height="9.22" class="up-body"/>
<line x1="690.11" y1="995.43" x2="690.11" y2="1002.72" class="up-wick"/>
<rect x="687.70" y="997.89" width="4.83" height="2.63" class="up-body"/>
<line x1="697.54" y1="1007.99" x2="697.54" y2="1017.38" class="down-wick"/>
<rect x="695.12" y="1007.99" width="4.83" height="5.44" class="down-body"/>
<line x1="704.96" y1="1016.59" x2="704.96" y2="1024.58" class="down-wick"/>
<rect x="702.55" y="1017.12" width="4.83" height="7.46" class="down-body"/>
<line x1="712.39" y1="1005.09" x2="712.39" y2="1020.10" class="up-wick"/>
<rect x="709.98" y="1008.60" width="4.83" height="9.92" class="up-body"/>
<line x1="719.82" y1="1000.52" x2="719.82" y2="1018.88" class="down-wick"/>
<rect x="717.40" y="1000.61" width="4.83" height="15.89" class="down-body"/>
<line x1="727.24" y1="999.65" x2="727.24" y2="1006.67" class="down-wick"/>
<rect x="724.83" y="1001.05" width="4.83" height="1.76" class="down-body"/>
<line x1="734.67" y1="990.51" x2="734.67" y2="1002.81" class="up-wick"/>
<rect x="732.26" y="995.34" width="4.83" height="6.23" class="up-body"/>
<line x1="742.10" y1="985.95" x2="742.10" y2="994.47" class="down-wick"/>
<rect x="739.68" y="989.02" width="4.83" height="5.01" class="down-body"/>
<line x1="749.52" y1="978.92" x2="749.52" y2="991.92" class="up-wick"/>
<rect x="747.11" y="986.83" width="4.83" height="2.02" class="up-body"/>
<line x1="756.95" y1="967.33" x2="756.95" y2="979.98" class="up-wick"/>
<rect x="754.53" y="974.53" width="4.83" height="4.57" class="up-body"/>
<line x1="764.38" y1="960.57" x2="764.38" y2="967.77" class="up-wick"/>
<rect x="761.96" y="964.96" width="4.83" height="2.55" class="up-body"/>
<line x1="771.80" y1="973.04" x2="771.80" y2="980.50" class="down-wick"/>
<rect x="769.39" y="975.59" width="4.83" height="2.90" class="down-body"/>
<line x1="779.23" y1="985.16" x2="779.23" y2="992.27" class="up-wick"/>
<rect x="776.81" y="985.68" width="4.83" height="1.84" class="up-body"/>
<line x1="786.65" y1="985.95" x2="786.65" y2="992.71" class="down-wick"/>
<rect x="784.24" y="986.83" width="4.83" height="5.62" class="down-body"/>
<line x1="794.08" y1="996.40" x2="794.08" y2="1007.11" class="down-wick"/>
<rect x="791.67" y="996.48" width="4.83" height="7.29" class="down-body"/>
<line x1="801.51" y1="1011.76" x2="801.51" y2="1019.49" class="down-wick"/>
<rect x="799.09" y="1014.40" width="4.83" height="1.32" class="down-body"/>
<line x1="808.93" y1="994.03" x2="808.93" y2="1002.72" class="up-wick"/>
<rect x="806.52" y="996.66" width="4.83" height="1.49" class="up-body"/>
<line x1="816.36" y1="987.88" x2="816.36" y2="1001.67" class="up-wick"/>
<rect x="813.95" y="989.37" width="4.83" height="12.29" class="up-body"/>
<line x1="823.79" y1="984.63" x2="823.79" y2="988.41" class="up-wick"/>
<rect x="821.37" y="986.65" width="4.83" height="1.00" class="up-body"/>
<line x1="831.21" y1="969.18" x2="831.21" y2="983.23" class="down-wick"/>
<rect x="828.80" y="969.88" width="4.83" height="12.47" class="down-body"/>
<line x1="838.64" y1="982.08" x2="838.64" y2="986.47" class="up-wick"/>
<rect x="836.23" y="985.68" width="4.83" height="1.00" class="up-body"/>
<line x1="846.07" y1="972.25" x2="846.07" y2="982.96" class="down-wick"/>
<rect x="843.65" y="981.29" width="4.83" height="1.67" class="down-body"/>
<line x1="853.49" y1="974.01" x2="853.49" y2="979.27" class="up-wick"/>
<rect x="851.08" y="975.76" width="4.83" height="1.00" class="up-body"/>
<line x1="860.92" y1="956.36" x2="860.92" y2="972.34" class="up-wick"/>
<rect x="858.51" y="960.57" width="4.83" height="11.41" class="up-body"/>
<line x1="868.35" y1="949.24" x2="868.35" y2="956.80" class="down-wick"/>
<rect x="865.93" y="952.67" width="4.83" height="3.07" class="down-body"/>
<line x1="875.77" y1="949.24" x2="875.77" y2="973.83" class="up-wick"/>
<rect x="873.36" y="949.24" width="4.83" height="23.62" class="up-body"/>
<line x1="883.20" y1="940.29" x2="883.20" y2="951.61" class="down-wick"/>
<rect x="880.78" y="941.52" width="4.83" height="6.15" class="down-body"/>
<line x1="890.62" y1="941.78" x2="890.62" y2="947.58" class="up-wick"/>
<rect x="888.21" y="943.54" width="4.83" height="4.04" class="up-body"/>
<line x1="898.05" y1="931.07" x2="898.05" y2="937.83" class="up-wick"/>
<rect x="895.64" y="933.53" width="4.83" height="2.20" class="up-body"/>
<line x1="905.48" y1="935.72" x2="905.48" y2="945.73" class="down-wick"/>
<rect x="903.06" y="940.55" width="4.83" height="1.00" class="down-body"/>
<line x1="912.90" y1="927.56" x2="912.90" y2="942.83" class="down-wick"/>
<rect x="910.49" y="928.96" width="4.83" height="13.70" class="down-body"/>
<line x1="920.33" y1="938.88" x2="920.33" y2="952.41" class="up-wick"/>
<rect x="917.92" y="940.29" width="4.83" height="5.36" class="up-body"/>
<line x1="927.76" y1="942.57" x2="927.76" y2="957.06" class="down-wick"/>
<rect x="925.34" y="947.31" width="4.83" height="8.25" class="down-body"/>
<line x1="935.18" y1="938.18" x2="935.18" y2="946.70" class="up-wick"/>
<rect x="932.77" y="939.15" width="4.83" height="5.18" class="up-body"/>
<line x1="942.61" y1="933.97" x2="942.61" y2="942.31" class="down-wick"/>
<rect x="940.20" y="935.72" width="4.83" height="3.78" class="down-body"/>
<line x1="950.04" y1="924.75" x2="950.04" y2="937.39" class="down-wick"/>
<rect x="947.62" y="929.58" width="4.83" height="7.64" class="down-body"/>
<line x1="957.46" y1="932.12" x2="957.46" y2="946.35" class="down-wick"/>
<rect x="955.05" y="932.21" width="4.83" height="12.29" class="down-body"/>
<line x1="964.89" y1="940.64" x2="964.89" y2="956.88" class="down-wick"/>
<rect x="962.48" y="943.36" width="4.83" height="6.23" class="down-body"/>
<line x1="972.32" y1="955.22" x2="972.32" y2="973.65" class="down-wick"/>
<rect x="969.90" y="956.71" width="4.83" height="8.25" class="down-body"/>
<line x1="979.74" y1="965.49" x2="979.74" y2="971.55" class="down-wick"/>
<rect x="977.33" y="966.98" width="4.83" height="2.72" class="down-body"/>
<line x1="987.17" y1="953.02" x2="987.17" y2="965.40" class="up-wick"/>
<rect x="984.76" y="962.42" width="4.83" height="2.99" class="up-body"/>
<line x1="994.60" y1="957.59" x2="994.60" y2="964.43" class="down-wick"/>
<rect x="992.18" y="958.73" width="4.83" height="1.84" class="down-body"/>
<line x1="1002.02" y1="959.43" x2="1002.02" y2="969.18" class="down-wick"/>
<rect x="999.61" y="959.78" width="4.83" height="9.31" class="down-body"/>
<line x1="1009.45" y1="969.44" x2="1009.45" y2="978.92" class="down-wick"/>
<rect x="1007.03" y="972.07" width="4.83" height="3.78" class="down-body"/>
<line x1="1016.88" y1="976.55" x2="1016.88" y2="986.21" class="down-wick"/>
<rect x="1014.46" y="980.15" width="4.83" height="4.65" class="down-body"/>
<line x1="1024.30" y1="993.85" x2="1024.30" y2="1009.13" class="down-wick"/>
<rect x="1021.89" y="993.94" width="4.83" height="12.73" class="down-body"/>
<line x1="1031.73" y1="994.29" x2="1031.73" y2="1002.98" class="up-wick"/>
<rect x="1029.31" y="994.82" width="4.83" height="3.86" class="up-body"/>
<line x1="1039.15" y1="979.01" x2="1039.15" y2="994.64" class="down-wick"/>
<rect x="1036.74" y="985.16" width="4.83" height="9.48" class="down-body"/>
<line x1="1046.58" y1="1001.40" x2="1046.58" y2="1018.52" class="up-wick"/>
<rect x="1044.17" y="1002.81" width="4.83" height="1.49" class="up-body"/>
<line x1="1054.01" y1="982.00" x2="1054.01" y2="991.66" class="up-wick"/>
<rect x="1051.59" y="985.07" width="4.83" height="1.00" class="up-body"/>
<line x1="1061.43" y1="965.93" x2="1061.43" y2="985.25" class="up-wick"/>
<rect x="1059.02" y="968.83" width="4.83" height="14.84" class="up-body"/>
<line x1="1068.86" y1="962.68" x2="1068.86" y2="975.50" class="up-wick"/>
<rect x="1066.45" y="962.68" width="4.83" height="5.62" class="up-body"/>
<line x1="1076.29" y1="967.68" x2="1076.29" y2="977.43" class="down-wick"/>
<rect x="1073.87" y="974.88" width="4.83" height="1.00" class="down-body"/>
<line x1="70" y1="943.54" x2="1080" y2="943.54" class="sweep-line"/>
<text x="1076" y="939.54" text-anchor="end" class="level-label">sweep 4708.80</text>
<line x1="70" y1="937.83" x2="1080" y2="937.83" class="entry-line"/>
<text x="1076" y="933.83" text-anchor="end" class="level-label">entry level 4709.45</text>
<text x="70" y="1056" class="axis-label">2026-04-27 10:00:00+00:00 to 2026-04-27 14:30:00+00:00</text>
<text x="1080" y="1056" text-anchor="end" class="axis-label">4698.04 - 4719.91</text>
</svg>