<svg xmlns="http://www.w3.org/2000/svg" width="1120" height="1054" viewBox="0 0 1120 1054">
<style>
text{font-family:Arial,Helvetica,sans-serif}.title{font-size:21px;font-weight:700;fill:#1f2937}.subtitle{font-size:12px;fill:#4b5563}.panel-title{font-size:15px;font-weight:700;fill:#111827}.muted{font-size:13px;fill:#6b7280}.plot-bg{fill:#f8fafc;stroke:#cbd5e1;stroke-width:1}.up-body{fill:#15803d;stroke:#14532d;stroke-width:.8}.down-body{fill:#b91c1c;stroke:#7f1d1d;stroke-width:.8}.up-wick{stroke:#14532d;stroke-width:1}.down-wick{stroke:#7f1d1d;stroke-width:1}.sweep-line{stroke:#7c3aed;stroke-width:1.6;stroke-dasharray:6 4}.number-line{stroke:#0f766e;stroke-width:1.4;stroke-dasharray:3 4}.entry-line{stroke:#2563eb;stroke-width:1.4}.sl-line{stroke:#dc2626;stroke-width:1.4}.tp-line{stroke:#16a34a;stroke-width:1.4}.level-label,.axis-label{font-size:11px;fill:#374151}
</style>
<text x="28" y="28" class="title">Adelin v2 visual review sample sample_064</text>
<text x="28" y="48" class="subtitle">Candidate windows are for visual labeling only and are not trade signals.</text>
<text x="560" y="48" class="subtitle" text-anchor="middle">M15_SWING_LOW_SWEEP_VISUAL_CANDIDATE | NUMBER_THEORY_LEVEL_NEAR | LARGE_LOWER_WICK_REVERSAL_VISUAL_CANDIDATE | ROUND_LEVEL_ENTRY_METADATA_AVAILABLE</text>
<text x="70" y="82" class="panel-title">H1 liquidity context</text>
<rect x="70" y="96" width="1010" height="192" class="plot-bg"/>
<line x1="81.22" y1="189.95" x2="81.22" y2="208.08" class="down-wick"/>
<rect x="77.22" y="194.47" width="8.00" height="9.74" class="down-body"/>
<line x1="103.67" y1="199.89" x2="103.67" y2="213.28" class="down-wick"/>
<rect x="99.67" y="203.96" width="8.00" height="6.59" class="down-body"/>
<line x1="126.11" y1="196.73" x2="126.11" y2="211.92" class="up-wick"/>
<rect x="122.11" y="206.24" width="8.00" height="4.38" class="up-body"/>
<line x1="148.56" y1="193.01" x2="148.56" y2="210.74" class="up-wick"/>
<rect x="144.56" y="193.95" width="8.00" height="12.28" class="up-body"/>
<line x1="171.00" y1="163.74" x2="171.00" y2="197.90" class="up-wick"/>
<rect x="167.00" y="180.94" width="8.00" height="13.02" class="up-body"/>
<line x1="193.44" y1="141.74" x2="193.44" y2="185.81" class="up-wick"/>
<rect x="189.44" y="144.84" width="8.00" height="36.11" class="up-body"/>
<line x1="215.89" y1="109.24" x2="215.89" y2="145.83" class="up-wick"/>
<rect x="211.89" y="138.42" width="8.00" height="6.45" class="up-body"/>
<line x1="238.33" y1="121.56" x2="238.33" y2="151.89" class="up-wick"/>
<rect x="234.33" y="126.82" width="8.00" height="11.59" class="up-body"/>
<line x1="260.78" y1="119.70" x2="260.78" y2="136.46" class="down-wick"/>
<rect x="256.78" y="126.82" width="8.00" height="4.45" class="down-body"/>
<line x1="283.22" y1="127.31" x2="283.22" y2="143.90" class="down-wick"/>
<rect x="279.22" y="131.27" width="8.00" height="9.85" class="down-body"/>
<line x1="305.67" y1="139.86" x2="305.67" y2="157.62" class="down-wick"/>
<rect x="301.67" y="141.12" width="8.00" height="5.40" class="down-body"/>
<line x1="328.11" y1="142.99" x2="328.11" y2="162.75" class="down-wick"/>
<rect x="324.11" y="146.50" width="8.00" height="14.05" class="down-body"/>
<line x1="350.56" y1="141.23" x2="350.56" y2="158.72" class="down-wick"/>
<rect x="346.56" y="143.58" width="8.00" height="8.67" class="down-body"/>
<line x1="373.00" y1="150.12" x2="373.00" y2="160.05" class="down-wick"/>
<rect x="369.00" y="152.25" width="8.00" height="5.12" class="down-body"/>
<line x1="395.44" y1="154.58" x2="395.44" y2="169.80" class="down-wick"/>
<rect x="391.44" y="157.36" width="8.00" height="1.00" class="down-body"/>
<line x1="417.89" y1="157.22" x2="417.89" y2="179.45" class="up-wick"/>
<rect x="413.89" y="158.17" width="8.00" height="1.00" class="up-body"/>
<line x1="440.33" y1="152.37" x2="440.33" y2="181.01" class="down-wick"/>
<rect x="436.33" y="158.17" width="8.00" height="7.50" class="down-body"/>
<line x1="462.78" y1="153.92" x2="462.78" y2="173.39" class="up-wick"/>
<rect x="458.78" y="156.20" width="8.00" height="9.47" class="up-body"/>
<line x1="485.22" y1="155.78" x2="485.22" y2="166.44" class="down-wick"/>
<rect x="481.22" y="156.14" width="8.00" height="9.47" class="down-body"/>
<line x1="507.67" y1="158.08" x2="507.67" y2="179.77" class="down-wick"/>
<rect x="503.67" y="165.59" width="8.00" height="7.17" class="down-body"/>
<line x1="530.11" y1="171.03" x2="530.11" y2="188.77" class="down-wick"/>
<rect x="526.11" y="172.76" width="8.00" height="10.85" class="down-body"/>
<line x1="552.56" y1="178.66" x2="552.56" y2="194.75" class="down-wick"/>
<rect x="548.56" y="183.61" width="8.00" height="10.07" class="down-body"/>
<line x1="575.00" y1="191.13" x2="575.00" y2="199.02" class="down-wick"/>
<rect x="571.00" y="193.67" width="8.00" height="2.03" class="down-body"/>
<line x1="597.44" y1="187.88" x2="597.44" y2="200.57" class="down-wick"/>
<rect x="593.44" y="195.77" width="8.00" height="1.58" class="down-body"/>
<line x1="619.89" y1="196.91" x2="619.89" y2="247.41" class="down-wick"/>
<rect x="615.89" y="197.36" width="8.00" height="13.27" class="down-body"/>
<line x1="642.33" y1="202.17" x2="642.33" y2="222.30" class="down-wick"/>
<rect x="638.33" y="210.62" width="8.00" height="2.10" class="down-body"/>
<line x1="664.78" y1="193.30" x2="664.78" y2="214.18" class="up-wick"/>
<rect x="660.78" y="204.72" width="8.00" height="8.01" class="up-body"/>
<line x1="687.22" y1="197.14" x2="687.22" y2="218.02" class="down-wick"/>
<rect x="683.22" y="204.72" width="8.00" height="4.44" class="down-body"/>
<line x1="709.67" y1="189.19" x2="709.67" y2="220.06" class="down-wick"/>
<rect x="705.67" y="209.16" width="8.00" height="2.67" class="down-body"/>
<line x1="732.11" y1="207.07" x2="732.11" y2="262.73" class="down-wick"/>
<rect x="728.11" y="211.83" width="8.00" height="41.52" class="down-body"/>
<line x1="754.56" y1="247.83" x2="754.56" y2="274.76" class="down-wick"/>
<rect x="750.56" y="253.35" width="8.00" height="11.28" class="down-body"/>
<line x1="777.00" y1="242.84" x2="777.00" y2="264.66" class="up-wick"/>
<rect x="773.00" y="252.48" width="8.00" height="12.16" class="up-body"/>
<line x1="799.44" y1="249.34" x2="799.44" y2="265.54" class="down-wick"/>
<rect x="795.44" y="252.48" width="8.00" height="6.32" class="down-body"/>
<line x1="821.89" y1="247.55" x2="821.89" y2="263.99" class="up-wick"/>
<rect x="817.89" y="257.26" width="8.00" height="1.54" class="up-body"/>
<line x1="844.33" y1="250.49" x2="844.33" y2="259.47" class="down-wick"/>
<rect x="840.33" y="251.35" width="8.00" height="6.20" class="down-body"/>
<line x1="866.78" y1="253.28" x2="866.78" y2="258.91" class="up-wick"/>
<rect x="862.78" y="256.01" width="8.00" height="1.54" class="up-body"/>
<line x1="889.22" y1="244.06" x2="889.22" y2="261.64" class="up-wick"/>
<rect x="885.22" y="244.55" width="8.00" height="11.46" class="up-body"/>
<line x1="911.67" y1="232.01" x2="911.67" y2="249.30" class="up-wick"/>
<rect x="907.67" y="233.26" width="8.00" height="11.42" class="up-body"/>
<line x1="934.11" y1="227.23" x2="934.11" y2="239.76" class="down-wick"/>
<rect x="930.11" y="233.26" width="8.00" height="1.92" class="down-body"/>
<line x1="956.56" y1="231.35" x2="956.56" y2="242.15" class="down-wick"/>
<rect x="952.56" y="235.18" width="8.00" height="4.66" class="down-body"/>
<line x1="979.00" y1="237.71" x2="979.00" y2="246.67" class="down-wick"/>
<rect x="975.00" y="239.84" width="8.00" height="1.00" class="down-body"/>
<line x1="1001.44" y1="221.96" x2="1001.44" y2="243.07" class="up-wick"/>
<rect x="997.44" y="228.30" width="8.00" height="12.42" class="up-body"/>
<line x1="1023.89" y1="221.70" x2="1023.89" y2="240.74" class="up-wick"/>
<rect x="1019.89" y="225.77" width="8.00" height="2.51" class="up-body"/>
<line x1="1046.33" y1="215.15" x2="1046.33" y2="230.73" class="down-wick"/>
<rect x="1042.33" y="225.77" width="8.00" height="2.67" class="down-body"/>
<line x1="1068.78" y1="213.71" x2="1068.78" y2="228.52" class="up-wick"/>
<rect x="1064.78" y="214.91" width="8.00" height="13.54" class="up-body"/>
<line x1="70" y1="194.75" x2="1080" y2="194.75" class="sweep-line"/>
<text x="1076" y="190.75" text-anchor="end" class="level-label">sweep 4577.93</text>
<line x1="70" y1="192.59" x2="1080" y2="192.59" class="number-line"/>
<text x="1076" y="188.59" text-anchor="end" class="level-label">round 4580.00</text>
<line x1="70" y1="192.59" x2="1080" y2="192.59" class="entry-line"/>
<text x="1076" y="188.59" text-anchor="end" class="level-label">entry level 4580.00</text>
<text x="70" y="306" class="axis-label">2026-05-01 11:00:00+00:00 to 2026-05-05 11:00:00+00:00</text>
<text x="1080" y="306" text-anchor="end" class="axis-label">4488.25 - 4672.89</text>
<text x="70" y="332" class="panel-title">M15 liquidity / reaction context</text>
<rect x="70" y="346" width="1010" height="192" class="plot-bg"/>
<line x1="77.77" y1="360.49" x2="77.77" y2="380.12" class="down-wick"/>
<rect x="73.77" y="362.90" width="8.00" height="6.81" class="down-body"/>
<line x1="93.31" y1="369.37" x2="93.31" y2="386.50" class="down-wick"/>
<rect x="89.31" y="369.52" width="8.00" height="3.63" class="down-body"/>
<line x1="108.85" y1="359.24" x2="108.85" y2="374.78" class="up-wick"/>
<rect x="104.85" y="361.30" width="8.00" height="11.83" class="up-body"/>
<line x1="124.38" y1="359.61" x2="124.38" y2="377.18" class="down-wick"/>
<rect x="120.38" y="361.32" width="8.00" height="15.11" class="down-body"/>
<line x1="139.92" y1="373.10" x2="139.92" y2="388.58" class="down-wick"/>
<rect x="135.92" y="376.42" width="8.00" height="6.00" class="down-body"/>
<line x1="155.46" y1="378.32" x2="155.46" y2="385.50" class="up-wick"/>
<rect x="151.46" y="379.23" width="8.00" height="3.19" class="up-body"/>
<line x1="171.00" y1="376.81" x2="171.00" y2="386.02" class="down-wick"/>
<rect x="167.00" y="379.23" width="8.00" height="5.82" class="down-body"/>
<line x1="186.54" y1="379.24" x2="186.54" y2="388.19" class="up-wick"/>
<rect x="182.54" y="384.40" width="8.00" height="1.00" class="up-body"/>
<line x1="202.08" y1="380.05" x2="202.08" y2="399.62" class="down-wick"/>
<rect x="198.08" y="384.40" width="8.00" height="2.76" class="down-body"/>
<line x1="217.62" y1="383.00" x2="217.62" y2="403.78" class="down-wick"/>
<rect x="213.62" y="387.15" width="8.00" height="10.23" class="down-body"/>
<line x1="233.15" y1="390.57" x2="233.15" y2="398.69" class="down-wick"/>
<rect x="229.15" y="397.38" width="8.00" height="1.00" class="down-body"/>
<line x1="248.69" y1="385.11" x2="248.69" y2="399.03" class="up-wick"/>
<rect x="244.69" y="385.77" width="8.00" height="11.72" class="up-body"/>
<line x1="264.23" y1="384.17" x2="264.23" y2="413.44" class="down-wick"/>
<rect x="260.23" y="385.77" width="8.00" height="20.13" class="down-body"/>
<line x1="279.77" y1="399.60" x2="279.77" y2="416.36" class="down-wick"/>
<rect x="275.77" y="405.82" width="8.00" height="9.81" class="down-body"/>
<line x1="295.31" y1="404.30" x2="295.31" y2="418.82" class="up-wick"/>
<rect x="291.31" y="404.48" width="8.00" height="11.15" class="up-body"/>
<line x1="310.85" y1="384.49" x2="310.85" y2="405.29" class="up-wick"/>
<rect x="306.85" y="385.66" width="8.00" height="18.82" class="up-body"/>
<line x1="326.38" y1="376.62" x2="326.38" y2="401.12" class="down-wick"/>
<rect x="322.38" y="385.66" width="8.00" height="7.65" class="down-body"/>
<line x1="341.92" y1="393.31" x2="341.92" y2="420.72" class="down-wick"/>
<rect x="337.92" y="393.31" width="8.00" height="24.70" class="down-body"/>
<line x1="357.46" y1="400.43" x2="357.46" y2="421.25" class="up-wick"/>
<rect x="353.46" y="400.43" width="8.00" height="17.59" class="up-body"/>
<line x1="373.00" y1="388.87" x2="373.00" y2="404.96" class="up-wick"/>
<rect x="369.00" y="397.35" width="8.00" height="3.08" class="up-body"/>
<line x1="388.54" y1="387.83" x2="388.54" y2="399.66" class="up-wick"/>
<rect x="384.54" y="390.64" width="8.00" height="6.71" class="up-body"/>
<line x1="404.08" y1="389.06" x2="404.08" y2="393.52" class="down-wick"/>
<rect x="400.08" y="390.64" width="8.00" height="1.00" class="down-body"/>
<line x1="419.62" y1="388.76" x2="419.62" y2="409.37" class="down-wick"/>
<rect x="415.62" y="390.98" width="8.00" height="7.88" class="down-body"/>
<line x1="435.15" y1="379.03" x2="435.15" y2="398.79" class="up-wick"/>
<rect x="431.15" y="382.58" width="8.00" height="16.21" class="up-body"/>
<line x1="450.69" y1="381.93" x2="450.69" y2="394.22" class="down-wick"/>
<rect x="446.69" y="382.48" width="8.00" height="6.30" class="down-body"/>
<line x1="466.23" y1="385.60" x2="466.23" y2="395.39" class="down-wick"/>
<rect x="462.23" y="388.76" width="8.00" height="5.14" class="down-body"/>
<line x1="481.77" y1="385.81" x2="481.77" y2="395.30" class="up-wick"/>
<rect x="477.77" y="391.98" width="8.00" height="1.96" class="up-body"/>
<line x1="497.31" y1="389.92" x2="497.31" y2="398.55" class="down-wick"/>
<rect x="493.31" y="391.98" width="8.00" height="5.27" class="down-body"/>
<line x1="512.85" y1="395.86" x2="512.85" y2="403.73" class="down-wick"/>
<rect x="508.85" y="397.22" width="8.00" height="3.39" class="down-body"/>
<line x1="528.38" y1="385.51" x2="528.38" y2="413.90" class="down-wick"/>
<rect x="524.38" y="400.60" width="8.00" height="11.95" class="down-body"/>
<line x1="543.92" y1="408.06" x2="543.92" y2="419.32" class="up-wick"/>
<rect x="539.92" y="408.27" width="8.00" height="4.28" class="up-body"/>
<line x1="559.46" y1="403.57" x2="559.46" y2="415.94" class="down-wick"/>
<rect x="555.46" y="408.27" width="8.00" height="1.00" class="down-body"/>
<line x1="575.00" y1="405.69" x2="575.00" y2="426.73" class="down-wick"/>
<rect x="571.00" y="408.40" width="8.00" height="2.51" class="down-body"/>
<line x1="590.54" y1="410.31" x2="590.54" y2="424.59" class="down-wick"/>
<rect x="586.54" y="410.93" width="8.00" height="5.85" class="down-body"/>
<line x1="606.08" y1="414.04" x2="606.08" y2="432.31" class="down-wick"/>
<rect x="602.08" y="416.78" width="8.00" height="13.66" class="down-body"/>
<line x1="621.62" y1="419.18" x2="621.62" y2="433.34" class="up-wick"/>
<rect x="617.62" y="425.31" width="8.00" height="5.15" class="up-body"/>
<line x1="637.15" y1="417.59" x2="637.15" y2="430.36" class="up-wick"/>
<rect x="633.15" y="419.58" width="8.00" height="5.72" class="up-body"/>
<line x1="652.69" y1="418.64" x2="652.69" y2="434.06" class="down-wick"/>
<rect x="648.69" y="419.81" width="8.00" height="10.03" class="down-body"/>
<line x1="668.23" y1="426.04" x2="668.23" y2="435.10" class="up-wick"/>
<rect x="664.23" y="426.33" width="8.00" height="3.52" class="up-body"/>
<line x1="683.77" y1="421.71" x2="683.77" y2="442.66" class="down-wick"/>
<rect x="679.77" y="426.33" width="8.00" height="14.67" class="down-body"/>
<line x1="699.31" y1="437.64" x2="699.31" y2="448.71" class="up-wick"/>
<rect x="695.31" y="439.08" width="8.00" height="1.91" class="up-body"/>
<line x1="714.85" y1="437.25" x2="714.85" y2="448.61" class="down-wick"/>
<rect x="710.85" y="439.07" width="8.00" height="8.27" class="down-body"/>
<line x1="730.38" y1="437.02" x2="730.38" y2="449.33" class="up-wick"/>
<rect x="726.38" y="442.41" width="8.00" height="4.98" class="up-body"/>
<line x1="745.92" y1="439.83" x2="745.92" y2="446.05" class="down-wick"/>
<rect x="741.92" y="442.41" width="8.00" height="1.75" class="down-body"/>
<line x1="761.46" y1="432.24" x2="761.46" y2="445.39" class="up-wick"/>
<rect x="757.46" y="432.66" width="8.00" height="11.61" class="up-body"/>
<line x1="777.00" y1="431.97" x2="777.00" y2="438.63" class="down-wick"/>
<rect x="773.00" y="432.66" width="8.00" height="4.49" class="down-body"/>
<line x1="792.54" y1="431.97" x2="792.54" y2="438.55" class="up-wick"/>
<rect x="788.54" y="437.07" width="8.00" height="1.00" class="up-body"/>
<line x1="808.08" y1="435.57" x2="808.08" y2="451.74" class="down-wick"/>
<rect x="804.08" y="437.07" width="8.00" height="9.66" class="down-body"/>
<line x1="823.62" y1="446.04" x2="823.62" y2="508.15" class="down-wick"/>
<rect x="819.62" y="446.73" width="8.00" height="53.78" class="down-body"/>
<line x1="839.15" y1="495.60" x2="839.15" y2="524.76" class="up-wick"/>
<rect x="835.15" y="496.05" width="8.00" height="4.42" class="up-body"/>
<line x1="854.69" y1="465.36" x2="854.69" y2="499.05" class="up-wick"/>
<rect x="850.69" y="474.01" width="8.00" height="22.04" class="up-body"/>
<line x1="870.23" y1="460.54" x2="870.23" y2="474.46" class="up-wick"/>
<rect x="866.23" y="467.41" width="8.00" height="6.65" class="up-body"/>
<line x1="885.77" y1="454.24" x2="885.77" y2="469.52" class="up-wick"/>
<rect x="881.77" y="462.99" width="8.00" height="4.42" class="up-body"/>
<line x1="901.31" y1="455.45" x2="901.31" y2="468.82" class="down-wick"/>
<rect x="897.31" y="462.99" width="8.00" height="5.06" class="down-body"/>
<line x1="916.85" y1="467.33" x2="916.85" y2="485.62" class="down-wick"/>
<rect x="912.85" y="468.08" width="8.00" height="14.25" class="down-body"/>
<line x1="932.38" y1="466.44" x2="932.38" y2="482.88" class="up-wick"/>
<rect x="928.38" y="470.69" width="8.00" height="11.64" class="up-body"/>
<line x1="947.92" y1="462.23" x2="947.92" y2="472.96" class="up-wick"/>
<rect x="943.92" y="465.58" width="8.00" height="5.11" class="up-body"/>
<line x1="963.46" y1="440.41" x2="963.46" y2="466.28" class="up-wick"/>
<rect x="959.46" y="457.90" width="8.00" height="7.73" class="up-body"/>
<line x1="979.00" y1="452.84" x2="979.00" y2="469.78" class="up-wick"/>
<rect x="975.00" y="455.37" width="8.00" height="2.59" class="up-body"/>
<line x1="994.54" y1="445.79" x2="994.54" y2="461.14" class="down-wick"/>
<rect x="990.54" y="455.36" width="8.00" height="2.85" class="down-body"/>
<line x1="1010.08" y1="446.39" x2="1010.08" y2="476.20" class="down-wick"/>
<rect x="1006.08" y="458.21" width="8.00" height="3.94" class="down-body"/>
<line x1="1025.62" y1="459.10" x2="1025.62" y2="469.99" class="down-wick"/>
<rect x="1021.62" y="462.13" width="8.00" height="7.86" class="down-body"/>
<line x1="1041.15" y1="453.99" x2="1041.15" y2="478.94" class="up-wick"/>
<rect x="1037.15" y="462.89" width="8.00" height="7.10" class="up-body"/>
<line x1="1056.69" y1="460.74" x2="1056.69" y2="475.78" class="down-wick"/>
<rect x="1052.69" y="462.91" width="8.00" height="2.22" class="down-body"/>
<line x1="1072.23" y1="462.75" x2="1072.23" y2="482.13" class="down-wick"/>
<rect x="1068.23" y="465.13" width="8.00" height="6.27" class="down-body"/>
<line x1="70" y1="442.66" x2="1080" y2="442.66" class="sweep-line"/>
<text x="1076" y="438.66" text-anchor="end" class="level-label">sweep 4577.93</text>
<line x1="70" y1="439.31" x2="1080" y2="439.31" class="number-line"/>
<text x="1076" y="435.31" text-anchor="end" class="level-label">round 4580.00</text>
<line x1="70" y1="439.31" x2="1080" y2="439.31" class="entry-line"/>
<text x="1076" y="435.31" text-anchor="end" class="level-label">entry level 4580.00</text>
<text x="70" y="556" class="axis-label">2026-05-04 01:00:00+00:00 to 2026-05-04 17:00:00+00:00</text>
<text x="1080" y="556" text-anchor="end" class="axis-label">4519.11 - 4637.57</text>
<text x="70" y="582" class="panel-title">M5 reaction / execution context</text>
<rect x="70" y="596" width="1010" height="192" class="plot-bg"/>
<line x1="79.18" y1="609.24" x2="79.18" y2="629.21" class="down-wick"/>
<rect x="75.18" y="613.34" width="8.00" height="9.50" class="down-body"/>
<line x1="97.55" y1="618.81" x2="97.55" y2="635.41" class="down-wick"/>
<rect x="93.55" y="622.83" width="8.00" height="7.97" class="down-body"/>
<line x1="115.91" y1="627.12" x2="115.91" y2="636.55" class="down-wick"/>
<rect x="111.91" y="630.81" width="8.00" height="2.96" class="down-body"/>
<line x1="134.27" y1="622.83" x2="134.27" y2="638.10" class="up-wick"/>
<rect x="130.27" y="622.86" width="8.00" height="10.93" class="up-body"/>
<line x1="152.64" y1="616.92" x2="152.64" y2="626.42" class="down-wick"/>
<rect x="148.64" y="622.86" width="8.00" height="2.57" class="down-body"/>
<line x1="171.00" y1="620.63" x2="171.00" y2="629.86" class="down-wick"/>
<rect x="167.00" y="625.43" width="8.00" height="1.00" class="down-body"/>
<line x1="189.36" y1="619.13" x2="189.36" y2="633.64" class="down-wick"/>
<rect x="185.36" y="626.08" width="8.00" height="1.55" class="down-body"/>
<line x1="207.73" y1="618.59" x2="207.73" y2="628.94" class="up-wick"/>
<rect x="203.73" y="620.36" width="8.00" height="7.27" class="up-body"/>
<line x1="226.09" y1="614.55" x2="226.09" y2="627.37" class="up-wick"/>
<rect x="222.09" y="617.53" width="8.00" height="2.83" class="up-body"/>
<line x1="244.45" y1="616.12" x2="244.45" y2="630.22" class="down-wick"/>
<rect x="240.45" y="617.87" width="8.00" height="8.97" class="down-body"/>
<line x1="262.82" y1="620.27" x2="262.82" y2="629.04" class="down-wick"/>
<rect x="258.82" y="626.83" width="8.00" height="1.00" class="down-body"/>
<line x1="281.18" y1="624.87" x2="281.18" y2="639.17" class="down-wick"/>
<rect x="277.18" y="627.56" width="8.00" height="5.31" class="down-body"/>
<line x1="299.55" y1="630.10" x2="299.55" y2="639.80" class="up-wick"/>
<rect x="295.55" y="632.33" width="8.00" height="1.00" class="up-body"/>
<line x1="317.91" y1="627.17" x2="317.91" y2="640.72" class="down-wick"/>
<rect x="313.91" y="632.28" width="8.00" height="2.25" class="down-body"/>
<line x1="336.27" y1="627.61" x2="336.27" y2="640.38" class="up-wick"/>
<rect x="332.27" y="627.61" width="8.00" height="6.93" class="up-body"/>
<line x1="354.64" y1="620.70" x2="354.64" y2="630.61" class="down-wick"/>
<rect x="350.64" y="627.61" width="8.00" height="1.09" class="down-body"/>
<line x1="373.00" y1="628.63" x2="373.00" y2="643.65" class="down-wick"/>
<rect x="369.00" y="628.67" width="8.00" height="12.89" class="down-body"/>
<line x1="391.36" y1="639.31" x2="391.36" y2="652.03" class="down-wick"/>
<rect x="387.36" y="641.56" width="8.00" height="7.97" class="down-body"/>
<line x1="409.73" y1="644.52" x2="409.73" y2="658.33" class="down-wick"/>
<rect x="405.73" y="649.54" width="8.00" height="8.38" class="down-body"/>
<line x1="428.09" y1="650.19" x2="428.09" y2="661.07" class="up-wick"/>
<rect x="424.09" y="650.19" width="8.00" height="7.73" class="up-body"/>
<line x1="446.45" y1="646.48" x2="446.45" y2="654.38" class="up-wick"/>
<rect x="442.45" y="646.68" width="8.00" height="3.51" class="up-body"/>
<line x1="464.82" y1="643.94" x2="464.82" y2="660.49" class="down-wick"/>
<rect x="460.82" y="646.65" width="8.00" height="10.06" class="down-body"/>
<line x1="483.18" y1="650.26" x2="483.18" y2="657.22" class="up-wick"/>
<rect x="479.18" y="653.70" width="8.00" height="3.00" class="up-body"/>
<line x1="501.55" y1="648.86" x2="501.55" y2="660.92" class="down-wick"/>
<rect x="497.55" y="653.70" width="8.00" height="5.31" class="down-body"/>
<line x1="519.91" y1="650.72" x2="519.91" y2="661.99" class="up-wick"/>
<rect x="515.91" y="652.71" width="8.00" height="6.37" class="up-body"/>
<line x1="538.27" y1="648.57" x2="538.27" y2="657.31" class="up-wick"/>
<rect x="534.27" y="649.10" width="8.00" height="3.61" class="up-body"/>
<line x1="556.64" y1="643.60" x2="556.64" y2="651.89" class="down-wick"/>
<rect x="552.64" y="649.10" width="8.00" height="2.54" class="down-body"/>
<line x1="575.00" y1="649.61" x2="575.00" y2="655.13" class="down-wick"/>
<rect x="571.00" y="651.64" width="8.00" height="1.62" class="down-body"/>
<line x1="593.36" y1="648.23" x2="593.36" y2="655.50" class="up-wick"/>
<rect x="589.36" y="652.78" width="8.00" height="1.00" class="up-body"/>
<line x1="611.73" y1="647.79" x2="611.73" y2="657.10" class="down-wick"/>
<rect x="607.73" y="652.78" width="8.00" height="1.48" class="down-body"/>
<line x1="630.09" y1="645.15" x2="630.09" y2="656.10" class="up-wick"/>
<rect x="626.09" y="645.20" width="8.00" height="9.23" class="up-body"/>
<line x1="648.45" y1="643.48" x2="648.45" y2="648.11" class="down-wick"/>
<rect x="644.45" y="645.20" width="8.00" height="1.57" class="down-body"/>
<line x1="666.82" y1="636.45" x2="666.82" y2="648.49" class="up-wick"/>
<rect x="662.82" y="637.08" width="8.00" height="9.69" class="up-body"/>
<line x1="685.18" y1="636.04" x2="685.18" y2="644.42" class="down-wick"/>
<rect x="681.18" y="637.08" width="8.00" height="3.61" class="down-body"/>
<line x1="703.55" y1="638.92" x2="703.55" y2="645.30" class="down-wick"/>
<rect x="699.55" y="640.69" width="8.00" height="4.58" class="down-body"/>
<line x1="721.91" y1="641.81" x2="721.91" y2="646.00" class="up-wick"/>
<rect x="717.91" y="643.79" width="8.00" height="1.48" class="up-body"/>
<line x1="740.27" y1="640.60" x2="740.27" y2="645.88" class="up-wick"/>
<rect x="736.27" y="641.08" width="8.00" height="2.71" class="up-body"/>
<line x1="758.64" y1="636.04" x2="758.64" y2="641.30" class="up-wick"/>
<rect x="754.64" y="637.78" width="8.00" height="3.32" class="up-body"/>
<line x1="777.00" y1="636.65" x2="777.00" y2="644.33" class="down-wick"/>
<rect x="773.00" y="637.78" width="8.00" height="5.89" class="down-body"/>
<line x1="795.36" y1="641.42" x2="795.36" y2="648.01" class="up-wick"/>
<rect x="791.36" y="642.10" width="8.00" height="1.57" class="up-body"/>
<line x1="813.73" y1="641.95" x2="813.73" y2="652.49" class="down-wick"/>
<rect x="809.73" y="642.17" width="8.00" height="6.76" class="down-body"/>
<line x1="832.09" y1="648.13" x2="832.09" y2="665.60" class="down-wick"/>
<rect x="828.09" y="648.93" width="8.00" height="9.18" class="down-body"/>
<line x1="850.45" y1="657.07" x2="850.45" y2="717.07" class="down-wick"/>
<rect x="846.45" y="658.11" width="8.00" height="36.83" class="down-body"/>
<line x1="868.82" y1="694.94" x2="868.82" y2="737.10" class="down-wick"/>
<rect x="864.82" y="694.94" width="8.00" height="30.99" class="down-body"/>
<line x1="887.18" y1="722.35" x2="887.18" y2="749.92" class="down-wick"/>
<rect x="883.18" y="725.93" width="8.00" height="12.58" class="down-body"/>
<line x1="905.55" y1="734.85" x2="905.55" y2="757.46" class="down-wick"/>
<rect x="901.55" y="738.46" width="8.00" height="9.98" class="down-body"/>
<line x1="923.91" y1="745.00" x2="923.91" y2="774.76" class="down-wick"/>
<rect x="919.91" y="748.44" width="8.00" height="4.39" class="down-body"/>
<line x1="942.27" y1="731.17" x2="942.27" y2="752.83" class="up-wick"/>
<rect x="938.27" y="731.85" width="8.00" height="20.98" class="up-body"/>
<line x1="960.64" y1="700.52" x2="960.64" y2="736.33" class="up-wick"/>
<rect x="956.64" y="700.86" width="8.00" height="30.99" class="up-body"/>
<line x1="979.00" y1="688.01" x2="979.00" y2="705.97" class="up-wick"/>
<rect x="975.00" y="692.18" width="8.00" height="8.67" class="up-body"/>
<line x1="997.36" y1="685.95" x2="997.36" y2="699.94" class="down-wick"/>
<rect x="993.36" y="692.25" width="8.00" height="6.64" class="down-body"/>
<line x1="1015.73" y1="678.76" x2="1015.73" y2="699.57" class="up-wick"/>
<rect x="1011.73" y="679.61" width="8.00" height="19.36" class="up-body"/>
<line x1="1034.09" y1="679.39" x2="1034.09" y2="691.50" class="down-wick"/>
<rect x="1030.09" y="679.61" width="8.00" height="11.44" class="down-body"/>
<line x1="1052.45" y1="683.82" x2="1052.45" y2="694.17" class="up-wick"/>
<rect x="1048.45" y="689.03" width="8.00" height="1.89" class="up-body"/>
<line x1="1070.82" y1="669.33" x2="1070.82" y2="689.42" class="up-wick"/>
<rect x="1066.82" y="688.93" width="8.00" height="1.00" class="up-body"/>
<line x1="70" y1="652.03" x2="1080" y2="652.03" class="sweep-line"/>
<text x="1076" y="648.03" text-anchor="end" class="level-label">sweep 4577.93</text>
<line x1="70" y1="647.02" x2="1080" y2="647.02" class="number-line"/>
<text x="1076" y="643.02" text-anchor="end" class="level-label">round 4580.00</text>
<line x1="70" y1="647.02" x2="1080" y2="647.02" class="entry-line"/>
<text x="1076" y="643.02" text-anchor="end" class="level-label">entry level 4580.00</text>
<text x="70" y="806" class="axis-label">2026-05-04 09:30:00+00:00 to 2026-05-04 14:00:00+00:00</text>
<text x="1080" y="806" text-anchor="end" class="axis-label">4521.82 - 4601.05</text>
<text x="70" y="832" class="panel-title">M1 execution window</text>
<rect x="70" y="846" width="1010" height="192" class="plot-bg"/>
<line x1="73.71" y1="859.24" x2="73.71" y2="863.53" class="up-wick"/>
<rect x="71.30" y="863.26" width="4.83" height="1.00" class="up-body"/>
<line x1="81.14" y1="863.41" x2="81.14" y2="867.89" class="up-wick"/>
<rect x="78.73" y="865.57" width="4.83" height="2.16" class="up-body"/>
<line x1="88.57" y1="871.24" x2="88.57" y2="877.85" class="up-wick"/>
<rect x="86.15" y="872.83" width="4.83" height="3.93" class="up-body"/>
<line x1="95.99" y1="868.81" x2="95.99" y2="878.07" class="down-wick"/>
<rect x="93.58" y="873.03" width="4.83" height="3.68" class="down-body"/>
<line x1="103.42" y1="877.07" x2="103.42" y2="885.41" class="down-wick"/>
<rect x="101.01" y="877.85" width="4.83" height="6.01" class="down-body"/>
<line x1="110.85" y1="880.15" x2="110.85" y2="884.42" class="down-wick"/>
<rect x="108.43" y="880.81" width="4.83" height="1.00" class="down-body"/>
<line x1="118.27" y1="877.27" x2="118.27" y2="884.20" class="down-wick"/>
<rect x="115.86" y="877.27" width="4.83" height="5.62" class="down-body"/>
<line x1="125.70" y1="878.19" x2="125.70" y2="886.55" class="down-wick"/>
<rect x="123.28" y="881.82" width="4.83" height="1.94" class="down-body"/>
<line x1="133.12" y1="882.82" x2="133.12" y2="888.10" class="up-wick"/>
<rect x="130.71" y="882.96" width="4.83" height="2.18" class="up-body"/>
<line x1="140.55" y1="878.21" x2="140.55" y2="883.25" class="up-wick"/>
<rect x="138.14" y="878.55" width="4.83" height="2.42" class="up-body"/>
<line x1="147.98" y1="866.92" x2="147.98" y2="872.86" class="up-wick"/>
<rect x="145.56" y="867.36" width="4.83" height="5.50" class="up-body"/>
<line x1="155.40" y1="870.70" x2="155.40" y2="874.24" class="down-wick"/>
<rect x="152.99" y="870.70" width="4.83" height="2.57" class="down-body"/>
<line x1="162.83" y1="870.78" x2="162.83" y2="876.42" class="down-wick"/>
<rect x="160.42" y="871.40" width="4.83" height="4.02" class="down-body"/>
<line x1="170.26" y1="873.15" x2="170.26" y2="879.86" class="down-wick"/>
<rect x="167.84" y="873.44" width="4.83" height="4.19" class="down-body"/>
<line x1="177.68" y1="870.63" x2="177.68" y2="879.26" class="up-wick"/>
<rect x="175.27" y="870.63" width="4.83" height="7.15" class="up-body"/>
<line x1="185.11" y1="875.45" x2="185.11" y2="883.64" class="down-wick"/>
<rect x="182.70" y="876.08" width="4.83" height="3.90" class="down-body"/>
<line x1="192.54" y1="869.13" x2="192.54" y2="874.82" class="up-wick"/>
<rect x="190.12" y="872.08" width="4.83" height="1.00" class="up-body"/>
<line x1="199.96" y1="873.39" x2="199.96" y2="879.18" class="down-wick"/>
<rect x="197.55" y="873.71" width="4.83" height="3.93" class="down-body"/>
<line x1="207.39" y1="869.54" x2="207.39" y2="878.50" class="down-wick"/>
<rect x="204.98" y="870.05" width="4.83" height="8.14" class="down-body"/>
<line x1="214.82" y1="870.87" x2="214.82" y2="875.02" class="up-wick"/>
<rect x="212.40" y="871.40" width="4.83" height="2.40" class="up-body"/>
<line x1="222.24" y1="869.01" x2="222.24" y2="877.37" class="down-wick"/>
<rect x="219.83" y="870.36" width="4.83" height="5.67" class="down-body"/>
<line x1="229.67" y1="869.88" x2="229.67" y2="874.77" class="up-wick"/>
<rect x="227.26" y="871.84" width="4.83" height="2.93" class="up-body"/>
<line x1="237.10" y1="864.55" x2="237.10" y2="868.04" class="down-wick"/>
<rect x="234.68" y="867.50" width="4.83" height="1.00" class="down-body"/>
<line x1="244.52" y1="868.04" x2="244.52" y2="871.91" class="down-wick"/>
<rect x="242.11" y="868.38" width="4.83" height="2.93" class="down-body"/>
<line x1="251.95" y1="875.84" x2="251.95" y2="879.28" class="down-wick"/>
<rect x="249.53" y="876.83" width="4.83" height="1.00" class="down-body"/>
<line x1="259.38" y1="871.94" x2="259.38" y2="878.24" class="up-wick"/>
<rect x="256.96" y="873.03" width="4.83" height="3.80" class="up-body"/>
<line x1="266.80" y1="870.31" x2="266.80" y2="873.44" class="up-wick"/>
<rect x="264.39" y="870.51" width="4.83" height="2.86" class="up-body"/>
<line x1="274.23" y1="875.45" x2="274.23" y2="879.04" class="down-wick"/>
<rect x="271.81" y="876.11" width="4.83" height="1.45" class="down-body"/>
<line x1="281.65" y1="877.49" x2="281.65" y2="884.08" class="up-wick"/>
<rect x="279.24" y="878.00" width="4.83" height="6.01" class="up-body"/>
<line x1="289.08" y1="877.63" x2="289.08" y2="889.17" class="down-wick"/>
<rect x="286.67" y="877.66" width="4.83" height="6.86" class="down-body"/>
<line x1="296.51" y1="880.10" x2="296.51" y2="884.37" class="down-wick"/>
<rect x="294.09" y="882.87" width="4.83" height="1.41" class="down-body"/>
<line x1="303.93" y1="885.12" x2="303.93" y2="889.65" class="up-wick"/>
<rect x="301.52" y="885.12" width="4.83" height="4.41" class="up-body"/>
<line x1="311.36" y1="881.58" x2="311.36" y2="886.04" class="up-wick"/>
<rect x="308.95" y="882.33" width="4.83" height="2.67" class="up-body"/>
<line x1="318.79" y1="878.92" x2="318.79" y2="889.80" class="down-wick"/>
<rect x="316.37" y="879.38" width="4.83" height="9.62" class="down-body"/>
<line x1="326.21" y1="881.10" x2="326.21" y2="886.94" class="up-wick"/>
<rect x="323.80" y="881.63" width="4.83" height="3.76" class="up-body"/>
<line x1="333.64" y1="882.99" x2="333.64" y2="885.77" class="up-wick"/>
<rect x="331.23" y="884.32" width="4.83" height="1.00" class="up-body"/>
<line x1="341.07" y1="885.07" x2="341.07" y2="888.92" class="down-wick"/>
<rect x="338.65" y="886.06" width="4.83" height="1.00" class="down-body"/>
<line x1="348.49" y1="877.61" x2="348.49" y2="881.99" class="up-wick"/>
<rect x="346.08" y="877.61" width="4.83" height="3.61" class="up-body"/>
<line x1="355.92" y1="873.08" x2="355.92" y2="879.72" class="up-wick"/>
<rect x="353.51" y="874.19" width="4.83" height="5.45" class="up-body"/>
<line x1="363.35" y1="872.74" x2="363.35" y2="876.06" class="down-wick"/>
<rect x="360.93" y="872.83" width="4.83" height="1.02" class="down-body"/>
<line x1="370.77" y1="878.63" x2="370.77" y2="885.14" class="down-wick"/>
<rect x="368.36" y="878.67" width="4.83" height="5.04" class="down-body"/>
<line x1="378.20" y1="879.79" x2="378.20" y2="888.22" class="down-wick"/>
<rect x="375.78" y="879.79" width="4.83" height="8.38" class="down-body"/>
<line x1="385.62" y1="890.06" x2="385.62" y2="893.16" class="down-wick"/>
<rect x="383.21" y="891.39" width="4.83" height="1.00" class="down-body"/>
<line x1="393.05" y1="890.21" x2="393.05" y2="895.37" class="up-wick"/>
<rect x="390.64" y="892.12" width="4.83" height="1.70" class="up-body"/>
<line x1="400.48" y1="890.72" x2="400.48" y2="894.84" class="down-wick"/>
<rect x="398.06" y="891.95" width="4.83" height="2.76" class="down-body"/>
<line x1="407.90" y1="898.95" x2="407.90" y2="903.12" class="down-wick"/>
<rect x="405.49" y="899.54" width="4.83" height="1.96" class="down-body"/>
<line x1="415.33" y1="894.52" x2="415.33" y2="901.50" class="down-wick"/>
<rect x="412.92" y="896.10" width="4.83" height="4.05" class="down-body"/>
<line x1="422.76" y1="900.17" x2="422.76" y2="908.33" class="down-wick"/>
<rect x="420.34" y="900.17" width="4.83" height="7.75" class="down-body"/>
<line x1="430.18" y1="906.05" x2="430.18" y2="909.79" class="up-wick"/>
<rect x="427.77" y="907.75" width="4.83" height="1.00" class="up-body"/>
<line x1="437.61" y1="901.40" x2="437.61" y2="905.40" class="down-wick"/>
<rect x="435.20" y="901.52" width="4.83" height="1.60" class="down-body"/>
<line x1="445.04" y1="898.86" x2="445.04" y2="902.40" class="up-wick"/>
<rect x="442.62" y="899.27" width="4.83" height="1.00" class="up-body"/>
<line x1="452.46" y1="899.51" x2="452.46" y2="902.78" class="up-wick"/>
<rect x="450.05" y="901.21" width="4.83" height="1.00" class="up-body"/>
<line x1="459.89" y1="896.48" x2="459.89" y2="900.21" class="up-wick"/>
<rect x="457.48" y="896.68" width="4.83" height="2.93" class="up-body"/>
<line x1="467.32" y1="898.88" x2="467.32" y2="908.89" class="down-wick"/>
<rect x="464.90" y="898.88" width="4.83" height="9.45" class="down-body"/>
<line x1="474.74" y1="904.72" x2="474.74" y2="910.49" class="down-wick"/>
<rect x="472.33" y="907.63" width="4.83" height="1.07" class="down-body"/>
<line x1="482.17" y1="903.22" x2="482.17" y2="907.22" class="up-wick"/>
<rect x="479.76" y="903.41" width="4.83" height="3.30" class="up-body"/>
<line x1="489.60" y1="900.48" x2="489.60" y2="904.50" class="up-wick"/>
<rect x="487.18" y="902.88" width="4.83" height="1.00" class="up-body"/>
<line x1="497.02" y1="900.43" x2="497.02" y2="904.99" class="up-wick"/>
<rect x="494.61" y="903.70" width="4.83" height="1.14" class="up-body"/>
<line x1="504.45" y1="899.80" x2="504.45" y2="902.54" class="down-wick"/>
<rect x="502.03" y="899.97" width="4.83" height="2.35" class="down-body"/>
<line x1="511.88" y1="905.01" x2="511.88" y2="907.24" class="up-wick"/>
<rect x="509.46" y="905.18" width="4.83" height="1.00" class="up-body"/>
<line x1="519.30" y1="905.25" x2="519.30" y2="910.78" class="up-wick"/>
<rect x="516.89" y="906.68" width="4.83" height="2.40" class="up-body"/>
<line x1="526.73" y1="901.77" x2="526.73" y2="905.67" class="up-wick"/>
<rect x="524.31" y="901.91" width="4.83" height="3.76" class="up-body"/>
<line x1="534.15" y1="900.72" x2="534.15" y2="903.99" class="up-wick"/>
<rect x="531.74" y="902.71" width="4.83" height="1.24" class="up-body"/>
<line x1="541.58" y1="902.83" x2="541.58" y2="907.31" class="down-wick"/>
<rect x="539.17" y="904.02" width="4.83" height="2.59" class="down-body"/>
<line x1="549.01" y1="903.36" x2="549.01" y2="907.24" class="down-wick"/>
<rect x="546.59" y="903.75" width="4.83" height="2.91" class="down-body"/>
<line x1="556.43" y1="893.60" x2="556.43" y2="899.85" class="up-wick"/>
<rect x="554.02" y="895.37" width="4.83" height="3.73" class="up-body"/>
<line x1="563.86" y1="897.16" x2="563.86" y2="899.75" class="down-wick"/>
<rect x="561.45" y="897.16" width="4.83" height="1.72" class="down-body"/>
<line x1="571.29" y1="898.95" x2="571.29" y2="901.89" class="down-wick"/>
<rect x="568.87" y="900.87" width="4.83" height="1.00" class="down-body"/>
<line x1="578.71" y1="899.61" x2="578.71" y2="901.91" class="up-wick"/>
<rect x="576.30" y="900.63" width="4.83" height="1.00" class="up-body"/>
<line x1="586.14" y1="901.74" x2="586.14" y2="905.13" class="down-wick"/>
<rect x="583.73" y="901.74" width="4.83" height="1.31" class="down-body"/>
<line x1="593.57" y1="899.05" x2="593.57" y2="905.50" class="up-wick"/>
<rect x="591.15" y="899.27" width="4.83" height="4.02" class="up-body"/>
<line x1="600.99" y1="901.40" x2="600.99" y2="904.38" class="up-wick"/>
<rect x="598.58" y="901.72" width="4.83" height="1.00" class="up-body"/>
<line x1="608.42" y1="899.85" x2="608.42" y2="904.38" class="down-wick"/>
<rect x="606.01" y="900.77" width="4.83" height="2.01" class="down-body"/>
<line x1="615.85" y1="898.74" x2="615.85" y2="901.43" class="up-wick"/>
<rect x="613.43" y="899.05" width="4.83" height="1.00" class="up-body"/>
<line x1="623.27" y1="901.81" x2="623.27" y2="906.15" class="down-wick"/>
<rect x="620.86" y="902.71" width="4.83" height="3.08" class="down-body"/>
<line x1="630.70" y1="902.03" x2="630.70" y2="906.10" class="up-wick"/>
<rect x="628.28" y="902.15" width="4.83" height="2.28" class="up-body"/>
<line x1="638.12" y1="896.82" x2="638.12" y2="903.27" class="up-wick"/>
<rect x="635.71" y="898.69" width="4.83" height="4.58" class="up-body"/>
<line x1="645.55" y1="895.15" x2="645.55" y2="899.75" class="up-wick"/>
<rect x="643.14" y="895.20" width="4.83" height="4.24" class="up-body"/>
<line x1="652.98" y1="894.04" x2="652.98" y2="897.79" class="up-wick"/>
<rect x="650.56" y="895.27" width="4.83" height="1.00" class="up-body"/>
<line x1="660.40" y1="893.99" x2="660.40" y2="896.63" class="down-wick"/>
<rect x="657.99" y="895.17" width="4.83" height="1.36" class="down-body"/>
<line x1="667.83" y1="893.77" x2="667.83" y2="897.33" class="up-wick"/>
<rect x="665.42" y="896.17" width="4.83" height="1.00" class="up-body"/>
<line x1="675.26" y1="895.61" x2="675.26" y2="898.13" class="up-wick"/>
<rect x="672.84" y="895.64" width="4.83" height="1.00" class="up-body"/>
<line x1="682.68" y1="886.45" x2="682.68" y2="893.55" class="up-wick"/>
<rect x="680.27" y="887.08" width="4.83" height="6.01" class="up-body"/>
<line x1="690.11" y1="890.60" x2="690.11" y2="892.46" class="up-wick"/>
<rect x="687.70" y="890.96" width="4.83" height="1.00" class="up-body"/>
<line x1="697.54" y1="888.66" x2="697.54" y2="893.09" class="up-wick"/>
<rect x="695.12" y="890.38" width="4.83" height="1.00" class="up-body"/>
<line x1="704.96" y1="888.92" x2="704.96" y2="891.73" class="up-wick"/>
<rect x="702.55" y="889.58" width="4.83" height="1.11" class="up-body"/>
<line x1="712.39" y1="891.73" x2="712.39" y2="893.87" class="down-wick"/>
<rect x="709.98" y="892.02" width="4.83" height="1.77" class="down-body"/>
<line x1="719.82" y1="893.09" x2="719.82" y2="895.27" class="down-wick"/>
<rect x="717.40" y="894.01" width="4.83" height="1.26" class="down-body"/>
<line x1="727.24" y1="893.72" x2="727.24" y2="895.66" class="down-wick"/>
<rect x="724.83" y="894.33" width="4.83" height="1.00" class="down-body"/>
<line x1="734.67" y1="891.81" x2="734.67" y2="895.13" class="down-wick"/>
<rect x="732.26" y="894.35" width="4.83" height="1.00" class="down-body"/>
<line x1="742.10" y1="893.58" x2="742.10" y2="895.80" class="down-wick"/>
<rect x="739.68" y="893.79" width="4.83" height="1.60" class="down-body"/>
<line x1="749.52" y1="892.95" x2="749.52" y2="895.88" class="down-wick"/>
<rect x="747.11" y="893.75" width="4.83" height="1.00" class="down-body"/>
<line x1="756.95" y1="890.60" x2="756.95" y2="892.41" class="up-wick"/>
<rect x="754.53" y="891.08" width="4.83" height="1.26" class="up-body"/>
<line x1="764.38" y1="887.40" x2="764.38" y2="889.12" class="down-wick"/>
<rect x="761.96" y="887.40" width="4.83" height="1.33" class="down-body"/>
<line x1="771.80" y1="886.04" x2="771.80" y2="889.34" class="up-wick"/>
<rect x="769.39" y="887.57" width="4.83" height="1.24" class="up-body"/>
<line x1="779.23" y1="886.65" x2="779.23" y2="889.41" class="down-wick"/>
<rect x="776.81" y="887.78" width="4.83" height="1.00" class="down-body"/>
<line x1="786.65" y1="888.05" x2="786.65" y2="890.79" class="up-wick"/>
<rect x="784.24" y="889.26" width="4.83" height="1.11" class="up-body"/>
<line x1="794.08" y1="890.64" x2="794.08" y2="894.33" class="down-wick"/>
<rect x="791.67" y="891.54" width="4.83" height="2.13" class="down-body"/>
<line x1="801.51" y1="892.78" x2="801.51" y2="898.01" class="down-wick"/>
<rect x="799.09" y="892.78" width="4.83" height="2.64" class="down-body"/>
<line x1="808.93" y1="891.78" x2="808.93" y2="893.91" class="up-wick"/>
<rect x="806.52" y="893.26" width="4.83" height="1.00" class="up-body"/>
<line x1="816.36" y1="891.95" x2="816.36" y2="894.30" class="down-wick"/>
<rect x="813.95" y="892.17" width="4.83" height="1.96" class="down-body"/>
<line x1="823.79" y1="899.29" x2="823.79" y2="902.49" class="down-wick"/>
<rect x="821.37" y="899.56" width="4.83" height="1.45" class="down-body"/>
<line x1="831.21" y1="897.74" x2="831.21" y2="899.39" class="down-wick"/>
<rect x="828.80" y="898.79" width="4.83" height="1.00" class="down-body"/>
<line x1="838.64" y1="898.42" x2="838.64" y2="903.17" class="down-wick"/>
<rect x="836.23" y="899.12" width="4.83" height="3.59" class="down-body"/>
<line x1="846.07" y1="908.79" x2="846.07" y2="915.60" class="down-wick"/>
<rect x="843.65" y="909.66" width="4.83" height="1.00" class="down-body"/>
<line x1="853.49" y1="907.07" x2="853.49" y2="914.53" class="down-wick"/>
<rect x="851.08" y="908.11" width="4.83" height="3.03" class="down-body"/>
<line x1="860.92" y1="918.61" x2="860.92" y2="932.00" class="down-wick"/>
<rect x="858.51" y="920.25" width="4.83" height="7.63" class="down-body"/>
<line x1="868.35" y1="944.94" x2="868.35" y2="967.07" class="up-wick"/>
<rect x="865.93" y="944.94" width="4.83" height="9.47" class="up-body"/>
<line x1="875.77" y1="964.23" x2="875.77" y2="982.84" class="down-wick"/>
<rect x="873.36" y="966.39" width="4.83" height="12.77" class="down-body"/>
<line x1="883.20" y1="972.35" x2="883.20" y2="986.55" class="down-wick"/>
<rect x="880.78" y="972.35" width="4.83" height="10.95" class="down-body"/>
<line x1="890.62" y1="972.35" x2="890.62" y2="980.61" class="down-wick"/>
<rect x="888.21" y="975.93" width="4.83" height="1.00" class="down-body"/>
<line x1="898.05" y1="982.31" x2="898.05" y2="998.15" class="down-wick"/>
<rect x="895.64" y="982.31" width="4.83" height="6.59" class="down-body"/>
<line x1="905.48" y1="988.22" x2="905.48" y2="999.92" class="up-wick"/>
<rect x="903.06" y="988.51" width="4.83" height="7.85" class="up-body"/>
<line x1="912.90" y1="989.36" x2="912.90" y2="998.93" class="up-wick"/>
<rect x="910.49" y="990.21" width="4.83" height="3.83" class="up-body"/>
<line x1="920.33" y1="984.85" x2="920.33" y2="1005.57" class="down-wick"/>
<rect x="917.92" y="994.16" width="4.83" height="1.28" class="down-body"/>
<line x1="927.76" y1="995.00" x2="927.76" y2="1000.63" class="down-wick"/>
<rect x="925.34" y="998.44" width="4.83" height="1.00" class="down-body"/>
<line x1="935.18" y1="1009.81" x2="935.18" y2="1024.76" class="down-wick"/>
<rect x="932.77" y="1010.90" width="4.83" height="7.73" class="down-body"/>
<line x1="942.61" y1="1001.67" x2="942.61" y2="1014.65" class="up-wick"/>
<rect x="940.20" y="1002.83" width="4.83" height="11.80" class="up-body"/>
<line x1="950.04" y1="984.78" x2="950.04" y2="998.54" class="up-wick"/>
<rect x="947.62" y="985.77" width="4.83" height="12.77" class="up-body"/>
<line x1="957.46" y1="982.55" x2="957.46" y2="990.57" class="down-wick"/>
<rect x="955.05" y="982.60" width="4.83" height="5.26" class="down-body"/>
<line x1="964.89" y1="978.99" x2="964.89" y2="986.33" class="up-wick"/>
<rect x="962.48" y="980.85" width="4.83" height="1.00" class="up-body"/>
<line x1="972.32" y1="951.87" x2="972.32" y2="978.04" class="up-wick"/>
<rect x="969.90" y="966.99" width="4.83" height="10.20" class="up-body"/>
<line x1="979.74" y1="950.52" x2="979.74" y2="956.28" class="up-wick"/>
<rect x="977.33" y="950.86" width="4.83" height="5.43" class="up-body"/>
<line x1="987.17" y1="943.05" x2="987.17" y2="954.56" class="down-wick"/>
<rect x="984.76" y="949.43" width="4.83" height="1.00" class="down-body"/>
<line x1="994.60" y1="949.40" x2="994.60" y2="955.97" class="up-wick"/>
<rect x="992.18" y="951.03" width="4.83" height="1.00" class="up-body"/>
<line x1="1002.02" y1="937.19" x2="1002.02" y2="943.88" class="up-wick"/>
<rect x="999.61" y="941.82" width="4.83" height="1.00" class="up-body"/>
<line x1="1009.45" y1="938.11" x2="1009.45" y2="949.72" class="down-wick"/>
<rect x="1007.03" y="939.56" width="4.83" height="9.35" class="down-body"/>
<line x1="1016.88" y1="945.36" x2="1016.88" y2="949.94" class="down-wick"/>
<rect x="1014.46" y="948.12" width="4.83" height="1.00" class="down-body"/>
<line x1="1024.30" y1="936.51" x2="1024.30" y2="944.80" class="up-wick"/>
<rect x="1021.89" y="936.56" width="4.83" height="7.08" class="up-body"/>
<line x1="1031.73" y1="929.90" x2="1031.73" y2="938.28" class="up-wick"/>
<rect x="1029.31" y="931.91" width="4.83" height="5.23" class="up-body"/>
<line x1="1039.15" y1="929.39" x2="1039.15" y2="935.71" class="down-wick"/>
<rect x="1036.74" y="929.61" width="4.83" height="5.57" class="down-body"/>
<line x1="1046.58" y1="930.67" x2="1046.58" y2="938.79" class="down-wick"/>
<rect x="1044.17" y="934.82" width="4.83" height="3.68" class="down-body"/>
<line x1="1054.01" y1="934.60" x2="1054.01" y2="941.19" class="down-wick"/>
<rect x="1051.59" y="937.36" width="4.83" height="3.68" class="down-body"/>
<line x1="1061.43" y1="937.75" x2="1061.43" y2="944.17" class="down-wick"/>
<rect x="1059.02" y="937.75" width="4.83" height="3.54" class="down-body"/>
<line x1="1068.86" y1="933.82" x2="1068.86" y2="939.88" class="up-wick"/>
<rect x="1066.45" y="937.00" width="4.83" height="2.67" class="up-body"/>
<line x1="1076.29" y1="929.44" x2="1076.29" y2="939.03" class="up-wick"/>
<rect x="1073.87" y="930.67" width="4.83" height="8.36" class="up-body"/>
<line x1="70" y1="902.03" x2="1080" y2="902.03" class="sweep-line"/>
<text x="1076" y="898.03" text-anchor="end" class="level-label">sweep 4577.93</text>
<line x1="70" y1="897.02" x2="1080" y2="897.02" class="number-line"/>
<text x="1076" y="893.02" text-anchor="end" class="level-label">round 4580.00</text>
<line x1="70" y1="897.02" x2="1080" y2="897.02" class="entry-line"/>
<text x="1076" y="893.02" text-anchor="end" class="level-label">entry level 4580.00</text>
<text x="70" y="1056" class="axis-label">2026-05-04 09:30:00+00:00 to 2026-05-04 14:00:00+00:00</text>
<text x="1080" y="1056" text-anchor="end" class="axis-label">4521.82 - 4601.05</text>
</svg>