<svg xmlns="http://www.w3.org/2000/svg" width="1120" height="1054" viewBox="0 0 1120 1054">
<style>
text{font-family:Arial,Helvetica,sans-serif}.title{font-size:21px;font-weight:700;fill:#1f2937}.subtitle{font-size:12px;fill:#4b5563}.panel-title{font-size:15px;font-weight:700;fill:#111827}.muted{font-size:13px;fill:#6b7280}.plot-bg{fill:#f8fafc;stroke:#cbd5e1;stroke-width:1}.up-body{fill:#15803d;stroke:#14532d;stroke-width:.8}.down-body{fill:#b91c1c;stroke:#7f1d1d;stroke-width:.8}.up-wick{stroke:#14532d;stroke-width:1}.down-wick{stroke:#7f1d1d;stroke-width:1}.sweep-line{stroke:#7c3aed;stroke-width:1.6;stroke-dasharray:6 4}.number-line{stroke:#0f766e;stroke-width:1.4;stroke-dasharray:3 4}.entry-line{stroke:#2563eb;stroke-width:1.4}.sl-line{stroke:#dc2626;stroke-width:1.4}.tp-line{stroke:#16a34a;stroke-width:1.4}.level-label,.axis-label{font-size:11px;fill:#374151}
</style>
<text x="28" y="28" class="title">Adelin v2 visual review sample sample_236</text>
<text x="28" y="48" class="subtitle">Candidate windows are for visual labeling only and are not trade signals.</text>
<text x="560" y="48" class="subtitle" text-anchor="middle">LONDON_OPEN_CONTEXT | PRE_ANCHOR_SWEEP_EXTREME_CANDIDATE</text>
<text x="70" y="82" class="panel-title">H1 liquidity context</text>
<rect x="70" y="96" width="1010" height="192" class="plot-bg"/>
<line x1="81.48" y1="109.24" x2="81.48" y2="129.24" class="down-wick"/>
<rect x="77.48" y="116.38" width="8.00" height="11.25" class="down-body"/>
<line x1="104.43" y1="126.89" x2="104.43" y2="183.72" class="down-wick"/>
<rect x="100.43" y="127.39" width="8.00" height="55.42" class="down-body"/>
<line x1="127.39" y1="157.25" x2="127.39" y2="185.63" class="up-wick"/>
<rect x="123.39" y="169.70" width="8.00" height="13.10" class="up-body"/>
<line x1="150.34" y1="147.78" x2="150.34" y2="174.37" class="up-wick"/>
<rect x="146.34" y="168.75" width="8.00" height="1.00" class="up-body"/>
<line x1="173.30" y1="167.27" x2="173.30" y2="192.92" class="down-wick"/>
<rect x="169.30" y="168.75" width="8.00" height="19.13" class="down-body"/>
<line x1="196.25" y1="176.87" x2="196.25" y2="214.29" class="down-wick"/>
<rect x="192.25" y="187.88" width="8.00" height="10.12" class="down-body"/>
<line x1="219.20" y1="166.59" x2="219.20" y2="199.86" class="up-wick"/>
<rect x="215.20" y="174.18" width="8.00" height="23.82" class="up-body"/>
<line x1="242.16" y1="169.21" x2="242.16" y2="193.14" class="down-wick"/>
<rect x="238.16" y="174.25" width="8.00" height="16.50" class="down-body"/>
<line x1="265.11" y1="182.83" x2="265.11" y2="200.50" class="down-wick"/>
<rect x="261.11" y="190.75" width="8.00" height="7.16" class="down-body"/>
<line x1="288.07" y1="184.14" x2="288.07" y2="237.88" class="down-wick"/>
<rect x="284.07" y="197.91" width="8.00" height="14.51" class="down-body"/>
<line x1="311.02" y1="173.73" x2="311.02" y2="221.87" class="up-wick"/>
<rect x="307.02" y="178.12" width="8.00" height="34.36" class="up-body"/>
<line x1="333.98" y1="177.48" x2="333.98" y2="212.14" class="down-wick"/>
<rect x="329.98" y="177.95" width="8.00" height="27.01" class="down-body"/>
<line x1="356.93" y1="195.31" x2="356.93" y2="217.27" class="up-wick"/>
<rect x="352.93" y="199.65" width="8.00" height="5.31" class="up-body"/>
<line x1="379.89" y1="176.10" x2="379.89" y2="201.08" class="up-wick"/>
<rect x="375.89" y="181.82" width="8.00" height="17.88" class="up-body"/>
<line x1="402.84" y1="177.71" x2="402.84" y2="190.29" class="down-wick"/>
<rect x="398.84" y="181.73" width="8.00" height="1.00" class="down-body"/>
<line x1="425.80" y1="181.08" x2="425.80" y2="198.97" class="down-wick"/>
<rect x="421.80" y="182.15" width="8.00" height="15.77" class="down-body"/>
<line x1="448.75" y1="187.33" x2="448.75" y2="247.31" class="up-wick"/>
<rect x="444.75" y="197.53" width="8.00" height="8.62" class="up-body"/>
<line x1="471.70" y1="195.30" x2="471.70" y2="214.32" class="down-wick"/>
<rect x="467.70" y="197.53" width="8.00" height="10.61" class="down-body"/>
<line x1="494.66" y1="201.79" x2="494.66" y2="274.76" class="down-wick"/>
<rect x="490.66" y="208.11" width="8.00" height="24.80" class="down-body"/>
<line x1="517.61" y1="209.74" x2="517.61" y2="263.88" class="up-wick"/>
<rect x="513.61" y="221.82" width="8.00" height="11.70" class="up-body"/>
<line x1="540.57" y1="201.42" x2="540.57" y2="225.94" class="up-wick"/>
<rect x="536.57" y="212.14" width="8.00" height="9.68" class="up-body"/>
<line x1="563.52" y1="195.48" x2="563.52" y2="222.12" class="up-wick"/>
<rect x="559.52" y="203.38" width="8.00" height="8.77" class="up-body"/>
<line x1="586.48" y1="193.26" x2="586.48" y2="216.49" class="down-wick"/>
<rect x="582.48" y="203.39" width="8.00" height="1.00" class="down-body"/>
<line x1="609.43" y1="190.63" x2="609.43" y2="216.61" class="down-wick"/>
<rect x="605.43" y="203.96" width="8.00" height="11.44" class="down-body"/>
<line x1="632.39" y1="195.22" x2="632.39" y2="216.88" class="up-wick"/>
<rect x="628.39" y="196.79" width="8.00" height="18.61" class="up-body"/>
<line x1="655.34" y1="181.43" x2="655.34" y2="206.81" class="down-wick"/>
<rect x="651.34" y="196.79" width="8.00" height="1.00" class="down-body"/>
<line x1="678.30" y1="184.87" x2="678.30" y2="201.63" class="up-wick"/>
<rect x="674.30" y="193.06" width="8.00" height="4.37" class="up-body"/>
<line x1="701.25" y1="190.74" x2="701.25" y2="204.68" class="down-wick"/>
<rect x="697.25" y="193.06" width="8.00" height="8.24" class="down-body"/>
<line x1="724.20" y1="195.64" x2="724.20" y2="214.23" class="down-wick"/>
<rect x="720.20" y="201.30" width="8.00" height="3.19" class="down-body"/>
<line x1="747.16" y1="172.90" x2="747.16" y2="216.68" class="up-wick"/>
<rect x="743.16" y="192.31" width="8.00" height="12.18" class="up-body"/>
<line x1="770.11" y1="163.82" x2="770.11" y2="198.57" class="up-wick"/>
<rect x="766.11" y="168.19" width="8.00" height="24.13" class="up-body"/>
<line x1="793.07" y1="152.89" x2="793.07" y2="179.17" class="up-wick"/>
<rect x="789.07" y="162.69" width="8.00" height="5.51" class="up-body"/>
<line x1="816.02" y1="162.69" x2="816.02" y2="207.30" class="down-wick"/>
<rect x="812.02" y="162.69" width="8.00" height="34.47" class="down-body"/>
<line x1="838.98" y1="195.45" x2="838.98" y2="214.30" class="down-wick"/>
<rect x="834.98" y="197.17" width="8.00" height="3.40" class="down-body"/>
<line x1="861.93" y1="187.86" x2="861.93" y2="211.86" class="up-wick"/>
<rect x="857.93" y="192.81" width="8.00" height="7.76" class="up-body"/>
<line x1="884.89" y1="183.31" x2="884.89" y2="198.25" class="down-wick"/>
<rect x="880.89" y="192.81" width="8.00" height="3.76" class="down-body"/>
<line x1="907.84" y1="195.63" x2="907.84" y2="211.72" class="down-wick"/>
<rect x="903.84" y="196.58" width="8.00" height="12.98" class="down-body"/>
<line x1="930.80" y1="175.43" x2="930.80" y2="210.22" class="up-wick"/>
<rect x="926.80" y="183.18" width="8.00" height="26.37" class="up-body"/>
<line x1="953.75" y1="159.87" x2="953.75" y2="174.42" class="up-wick"/>
<rect x="949.75" y="165.06" width="8.00" height="8.78" class="up-body"/>
<line x1="976.70" y1="147.35" x2="976.70" y2="165.28" class="up-wick"/>
<rect x="972.70" y="155.80" width="8.00" height="9.28" class="up-body"/>
<line x1="999.66" y1="147.07" x2="999.66" y2="179.82" class="down-wick"/>
<rect x="995.66" y="155.80" width="8.00" height="21.54" class="down-body"/>
<line x1="1022.61" y1="166.71" x2="1022.61" y2="188.21" class="up-wick"/>
<rect x="1018.61" y="176.85" width="8.00" height="1.00" class="up-body"/>
<line x1="1045.57" y1="176.85" x2="1045.57" y2="197.76" class="down-wick"/>
<rect x="1041.57" y="176.85" width="8.00" height="19.50" class="down-body"/>
<line x1="1068.52" y1="187.06" x2="1068.52" y2="200.57" class="down-wick"/>
<rect x="1064.52" y="196.35" width="8.00" height="2.46" class="down-body"/>
<line x1="70" y1="220.79" x2="1080" y2="220.79" class="sweep-line"/>
<text x="1076" y="216.79" text-anchor="end" class="level-label">sweep 4526.34</text>
<line x1="70" y1="222.12" x2="1080" y2="222.12" class="entry-line"/>
<text x="1076" y="218.12" text-anchor="end" class="level-label">entry level 4525.21</text>
<text x="70" y="306" class="axis-label">2026-05-15 07:00:00+00:00 to 2026-05-19 06:00:00+00:00</text>
<text x="1080" y="306" text-anchor="end" class="axis-label">4469.00 - 4632.81</text>
<text x="70" y="332" class="panel-title">M15 liquidity / reaction context</text>
<rect x="70" y="346" width="1010" height="192" class="plot-bg"/>
<line x1="80.52" y1="369.70" x2="80.52" y2="476.07" class="up-wick"/>
<rect x="76.52" y="383.25" width="8.00" height="19.81" class="up-body"/>
<line x1="101.56" y1="379.82" x2="101.56" y2="404.64" class="down-wick"/>
<rect x="97.56" y="383.25" width="8.00" height="15.15" class="down-body"/>
<line x1="122.60" y1="371.98" x2="122.60" y2="398.61" class="up-wick"/>
<rect x="118.60" y="379.91" width="8.00" height="18.48" class="up-body"/>
<line x1="143.65" y1="370.22" x2="143.65" y2="393.02" class="down-wick"/>
<rect x="139.65" y="379.91" width="8.00" height="7.88" class="down-body"/>
<line x1="164.69" y1="383.83" x2="164.69" y2="401.71" class="down-wick"/>
<rect x="160.69" y="387.78" width="8.00" height="9.52" class="down-body"/>
<line x1="185.73" y1="391.61" x2="185.73" y2="405.12" class="down-wick"/>
<rect x="181.73" y="397.28" width="8.00" height="7.57" class="down-body"/>
<line x1="206.77" y1="397.70" x2="206.77" y2="416.22" class="up-wick"/>
<rect x="202.77" y="402.44" width="8.00" height="2.41" class="up-body"/>
<line x1="227.81" y1="392.07" x2="227.81" y2="417.57" class="down-wick"/>
<rect x="223.81" y="402.61" width="8.00" height="3.99" class="down-body"/>
<line x1="248.85" y1="395.35" x2="248.85" y2="436.10" class="down-wick"/>
<rect x="244.85" y="406.56" width="8.00" height="22.60" class="down-body"/>
<line x1="269.90" y1="413.91" x2="269.90" y2="453.93" class="down-wick"/>
<rect x="265.90" y="429.15" width="8.00" height="21.87" class="down-body"/>
<line x1="290.94" y1="444.08" x2="290.94" y2="524.51" class="down-wick"/>
<rect x="286.94" y="451.02" width="8.00" height="71.03" class="down-body"/>
<line x1="311.98" y1="449.09" x2="311.98" y2="524.76" class="up-wick"/>
<rect x="307.98" y="450.54" width="8.00" height="71.51" class="up-body"/>
<line x1="333.02" y1="450.19" x2="333.02" y2="505.47" class="down-wick"/>
<rect x="329.02" y="451.63" width="8.00" height="40.52" class="down-body"/>
<line x1="354.06" y1="463.02" x2="354.06" y2="498.61" class="up-wick"/>
<rect x="350.06" y="475.45" width="8.00" height="16.71" class="up-body"/>
<line x1="375.10" y1="455.01" x2="375.10" y2="484.22" class="up-wick"/>
<rect x="371.10" y="457.72" width="8.00" height="17.73" class="up-body"/>
<line x1="396.15" y1="409.45" x2="396.15" y2="460.96" class="up-wick"/>
<rect x="392.15" y="430.88" width="8.00" height="26.84" class="up-body"/>
<line x1="417.19" y1="403.60" x2="417.19" y2="438.17" class="up-wick"/>
<rect x="413.19" y="407.55" width="8.00" height="23.32" class="up-body"/>
<line x1="438.23" y1="399.20" x2="438.23" y2="417.47" class="down-wick"/>
<rect x="434.23" y="407.55" width="8.00" height="6.55" class="down-body"/>
<line x1="459.27" y1="398.20" x2="459.27" y2="422.48" class="up-wick"/>
<rect x="455.27" y="408.47" width="8.00" height="5.63" class="up-body"/>
<line x1="480.31" y1="394.69" x2="480.31" y2="420.53" class="down-wick"/>
<rect x="476.31" y="408.47" width="8.00" height="5.24" class="down-body"/>
<line x1="501.35" y1="409.36" x2="501.35" y2="428.24" class="down-wick"/>
<rect x="497.35" y="413.71" width="8.00" height="8.46" class="down-body"/>
<line x1="522.40" y1="403.92" x2="522.40" y2="424.93" class="up-wick"/>
<rect x="518.40" y="409.01" width="8.00" height="13.16" class="up-body"/>
<line x1="543.44" y1="384.15" x2="543.44" y2="431.40" class="up-wick"/>
<rect x="539.44" y="388.72" width="8.00" height="20.29" class="up-body"/>
<line x1="564.48" y1="384.37" x2="564.48" y2="401.96" class="down-wick"/>
<rect x="560.48" y="388.72" width="8.00" height="9.44" class="down-body"/>
<line x1="585.52" y1="380.22" x2="585.52" y2="398.61" class="up-wick"/>
<rect x="581.52" y="391.55" width="8.00" height="6.63" class="up-body"/>
<line x1="606.56" y1="385.83" x2="606.56" y2="421.42" class="down-wick"/>
<rect x="602.56" y="391.55" width="8.00" height="24.28" class="down-body"/>
<line x1="627.60" y1="391.75" x2="627.60" y2="416.87" class="up-wick"/>
<rect x="623.60" y="397.08" width="8.00" height="18.88" class="up-body"/>
<line x1="648.65" y1="388.84" x2="648.65" y2="410.69" class="down-wick"/>
<rect x="644.65" y="397.08" width="8.00" height="2.16" class="down-body"/>
<line x1="669.69" y1="394.69" x2="669.69" y2="415.29" class="down-wick"/>
<rect x="665.69" y="399.20" width="8.00" height="5.09" class="down-body"/>
<line x1="690.73" y1="378.45" x2="690.73" y2="411.23" class="up-wick"/>
<rect x="686.73" y="382.38" width="8.00" height="21.91" class="up-body"/>
<line x1="711.77" y1="375.56" x2="711.77" y2="403.89" class="down-wick"/>
<rect x="707.77" y="382.38" width="8.00" height="19.10" class="down-body"/>
<line x1="732.81" y1="394.27" x2="732.81" y2="421.63" class="down-wick"/>
<rect x="728.81" y="401.48" width="8.00" height="18.00" class="down-body"/>
<line x1="753.85" y1="399.61" x2="753.85" y2="422.11" class="up-wick"/>
<rect x="749.85" y="405.97" width="8.00" height="13.51" class="up-body"/>
<line x1="774.90" y1="383.69" x2="774.90" y2="412.15" class="up-wick"/>
<rect x="770.90" y="405.70" width="8.00" height="1.00" class="up-body"/>
<line x1="795.94" y1="385.85" x2="795.94" y2="411.94" class="up-wick"/>
<rect x="791.94" y="399.16" width="8.00" height="6.53" class="up-body"/>
<line x1="816.98" y1="384.56" x2="816.98" y2="403.69" class="up-wick"/>
<rect x="812.98" y="386.47" width="8.00" height="12.68" class="up-body"/>
<line x1="838.02" y1="381.01" x2="838.02" y2="396.43" class="down-wick"/>
<rect x="834.02" y="386.47" width="8.00" height="6.63" class="down-body"/>
<line x1="859.06" y1="376.89" x2="859.06" y2="404.25" class="up-wick"/>
<rect x="855.06" y="378.66" width="8.00" height="14.45" class="up-body"/>
<line x1="880.10" y1="359.24" x2="880.10" y2="384.33" class="down-wick"/>
<rect x="876.10" y="378.66" width="8.00" height="3.20" class="down-body"/>
<line x1="901.15" y1="376.12" x2="901.15" y2="400.53" class="down-wick"/>
<rect x="897.15" y="381.86" width="8.00" height="5.76" class="down-body"/>
<line x1="922.19" y1="382.21" x2="922.19" y2="395.06" class="up-wick"/>
<rect x="918.19" y="387.01" width="8.00" height="1.00" class="up-body"/>
<line x1="943.23" y1="376.75" x2="943.23" y2="394.83" class="up-wick"/>
<rect x="939.23" y="384.04" width="8.00" height="2.97" class="up-body"/>
<line x1="964.27" y1="373.38" x2="964.27" y2="387.80" class="up-wick"/>
<rect x="960.27" y="383.94" width="8.00" height="1.00" class="up-body"/>
<line x1="985.31" y1="365.33" x2="985.31" y2="383.96" class="up-wick"/>
<rect x="981.31" y="379.86" width="8.00" height="4.10" class="up-body"/>
<line x1="1006.35" y1="375.75" x2="1006.35" y2="397.97" class="down-wick"/>
<rect x="1002.35" y="379.86" width="8.00" height="7.69" class="down-body"/>
<line x1="1027.40" y1="382.07" x2="1027.40" y2="391.19" class="down-wick"/>
<rect x="1023.40" y="387.53" width="8.00" height="2.70" class="down-body"/>
<line x1="1048.44" y1="387.22" x2="1048.44" y2="399.20" class="down-wick"/>
<rect x="1044.44" y="390.57" width="8.00" height="3.95" class="down-body"/>
<line x1="1069.48" y1="390.94" x2="1069.48" y2="400.46" class="down-wick"/>
<rect x="1065.48" y="394.46" width="8.00" height="1.00" class="down-body"/>
<line x1="70" y1="429.05" x2="1080" y2="429.05" class="sweep-line"/>
<text x="1076" y="425.05" text-anchor="end" class="level-label">sweep 4526.34</text>
<line x1="70" y1="431.40" x2="1080" y2="431.40" class="entry-line"/>
<text x="1076" y="427.40" text-anchor="end" class="level-label">entry level 4525.21</text>
<text x="70" y="556" class="axis-label">2026-05-18 01:00:00+00:00 to 2026-05-18 12:45:00+00:00</text>
<text x="1080" y="556" text-anchor="end" class="axis-label">4473.93 - 4566.29</text>
<text x="70" y="582" class="panel-title">M5 reaction / execution context</text>
<rect x="70" y="596" width="1010" height="192" class="plot-bg"/>
<line x1="79.18" y1="696.56" x2="79.18" y2="733.47" class="down-wick"/>
<rect x="75.18" y="704.08" width="8.00" height="11.09" class="down-body"/>
<line x1="97.55" y1="679.31" x2="97.55" y2="726.08" class="up-wick"/>
<rect x="93.55" y="698.66" width="8.00" height="16.51" class="up-body"/>
<line x1="115.91" y1="683.06" x2="115.91" y2="723.49" class="down-wick"/>
<rect x="111.91" y="698.66" width="8.00" height="24.83" class="down-body"/>
<line x1="134.27" y1="697.42" x2="134.27" y2="748.32" class="down-wick"/>
<rect x="130.27" y="723.49" width="8.00" height="8.44" class="down-body"/>
<line x1="152.64" y1="692.74" x2="152.64" y2="740.87" class="up-wick"/>
<rect x="148.64" y="694.65" width="8.00" height="37.22" class="up-body"/>
<line x1="171.00" y1="676.35" x2="171.00" y2="714.12" class="down-wick"/>
<rect x="167.00" y="694.65" width="8.00" height="12.14" class="down-body"/>
<line x1="189.36" y1="665.93" x2="189.36" y2="742.16" class="down-wick"/>
<rect x="185.36" y="706.79" width="8.00" height="34.14" class="down-body"/>
<line x1="207.73" y1="711.10" x2="207.73" y2="742.53" class="up-wick"/>
<rect x="203.73" y="720.04" width="8.00" height="20.89" class="up-body"/>
<line x1="226.09" y1="714.00" x2="226.09" y2="739.51" class="down-wick"/>
<rect x="222.09" y="720.04" width="8.00" height="2.28" class="down-body"/>
<line x1="244.45" y1="709.44" x2="244.45" y2="746.41" class="down-wick"/>
<rect x="240.45" y="722.32" width="8.00" height="14.91" class="down-body"/>
<line x1="262.82" y1="715.35" x2="262.82" y2="759.91" class="up-wick"/>
<rect x="258.82" y="726.39" width="8.00" height="10.85" class="up-body"/>
<line x1="281.18" y1="709.62" x2="281.18" y2="765.39" class="down-wick"/>
<rect x="277.18" y="726.14" width="8.00" height="21.26" class="down-body"/>
<line x1="299.55" y1="725.65" x2="299.55" y2="755.59" class="up-wick"/>
<rect x="295.55" y="740.50" width="8.00" height="6.90" class="up-body"/>
<line x1="317.91" y1="704.26" x2="317.91" y2="749.62" class="up-wick"/>
<rect x="313.91" y="723.18" width="8.00" height="17.32" class="up-body"/>
<line x1="336.27" y1="693.29" x2="336.27" y2="749.43" class="up-wick"/>
<rect x="332.27" y="708.39" width="8.00" height="14.79" class="up-body"/>
<line x1="354.64" y1="696.07" x2="354.64" y2="767.80" class="down-wick"/>
<rect x="350.64" y="708.39" width="8.00" height="55.40" class="down-body"/>
<line x1="373.00" y1="698.66" x2="373.00" y2="774.76" class="up-wick"/>
<rect x="369.00" y="712.52" width="8.00" height="51.45" class="up-body"/>
<line x1="391.36" y1="634.69" x2="391.36" y2="721.58" class="up-wick"/>
<rect x="387.36" y="648.25" width="8.00" height="64.27" class="up-body"/>
<line x1="409.73" y1="635.37" x2="409.73" y2="686.27" class="down-wick"/>
<rect x="405.73" y="648.25" width="8.00" height="22.31" class="down-body"/>
<line x1="428.09" y1="636.17" x2="428.09" y2="687.50" class="down-wick"/>
<rect x="424.09" y="670.56" width="8.00" height="5.30" class="down-body"/>
<line x1="446.45" y1="659.22" x2="446.45" y2="679.55" class="down-wick"/>
<rect x="442.45" y="675.85" width="8.00" height="1.00" class="down-body"/>
<line x1="464.82" y1="631.49" x2="464.82" y2="677.58" class="up-wick"/>
<rect x="460.82" y="647.63" width="8.00" height="28.65" class="up-body"/>
<line x1="483.18" y1="623.04" x2="483.18" y2="663.22" class="down-wick"/>
<rect x="479.18" y="647.63" width="8.00" height="1.00" class="down-body"/>
<line x1="501.55" y1="636.29" x2="501.55" y2="662.17" class="down-wick"/>
<rect x="497.55" y="648.56" width="8.00" height="8.07" class="down-body"/>
<line x1="519.91" y1="639.68" x2="519.91" y2="659.65" class="up-wick"/>
<rect x="515.91" y="649.23" width="8.00" height="7.39" class="up-body"/>
<line x1="538.27" y1="646.58" x2="538.27" y2="703.03" class="down-wick"/>
<rect x="534.27" y="649.11" width="8.00" height="50.35" class="down-body"/>
<line x1="556.64" y1="690.83" x2="556.64" y2="745.18" class="down-wick"/>
<rect x="552.64" y="699.46" width="8.00" height="29.15" class="down-body"/>
<line x1="575.00" y1="675.24" x2="575.00" y2="731.68" class="up-wick"/>
<rect x="571.00" y="684.17" width="8.00" height="44.80" class="up-body"/>
<line x1="593.36" y1="666.55" x2="593.36" y2="693.91" class="up-wick"/>
<rect x="589.36" y="666.55" width="8.00" height="17.62" class="up-body"/>
<line x1="611.73" y1="657.25" x2="611.73" y2="685.41" class="down-wick"/>
<rect x="607.73" y="666.55" width="8.00" height="6.47" class="down-body"/>
<line x1="630.09" y1="672.90" x2="630.09" y2="692.62" class="down-wick"/>
<rect x="626.09" y="673.02" width="8.00" height="7.89" class="down-body"/>
<line x1="648.45" y1="648.62" x2="648.45" y2="696.62" class="up-wick"/>
<rect x="644.45" y="663.22" width="8.00" height="17.69" class="up-body"/>
<line x1="666.82" y1="658.29" x2="666.82" y2="713.38" class="down-wick"/>
<rect x="662.82" y="663.22" width="8.00" height="16.21" class="down-body"/>
<line x1="685.18" y1="665.93" x2="685.18" y2="727.00" class="down-wick"/>
<rect x="681.18" y="679.31" width="8.00" height="29.95" class="down-body"/>
<line x1="703.55" y1="684.17" x2="703.55" y2="721.52" class="up-wick"/>
<rect x="699.55" y="696.31" width="8.00" height="12.94" class="up-body"/>
<line x1="721.91" y1="689.29" x2="721.91" y2="711.04" class="up-wick"/>
<rect x="717.91" y="694.40" width="8.00" height="1.79" class="up-body"/>
<line x1="740.27" y1="627.42" x2="740.27" y2="714.99" class="up-wick"/>
<rect x="736.27" y="646.71" width="8.00" height="47.70" class="up-body"/>
<line x1="758.64" y1="624.52" x2="758.64" y2="674.07" class="up-wick"/>
<rect x="754.64" y="645.72" width="8.00" height="1.00" class="up-body"/>
<line x1="777.00" y1="617.81" x2="777.00" y2="652.19" class="up-wick"/>
<rect x="773.00" y="629.45" width="8.00" height="15.84" class="up-body"/>
<line x1="795.36" y1="609.24" x2="795.36" y2="684.79" class="down-wick"/>
<rect x="791.36" y="629.45" width="8.00" height="38.02" class="down-body"/>
<line x1="813.73" y1="639.19" x2="813.73" y2="679.98" class="up-wick"/>
<rect x="809.73" y="656.81" width="8.00" height="10.66" class="up-body"/>
<line x1="832.09" y1="654.53" x2="832.09" y2="693.23" class="down-wick"/>
<rect x="828.09" y="656.88" width="8.00" height="29.21" class="down-body"/>
<line x1="850.45" y1="664.70" x2="850.45" y2="699.21" class="down-wick"/>
<rect x="846.45" y="686.08" width="8.00" height="4.99" class="down-body"/>
<line x1="868.82" y1="684.85" x2="868.82" y2="715.72" class="down-wick"/>
<rect x="864.82" y="691.08" width="8.00" height="15.28" class="down-body"/>
<line x1="887.18" y1="690.40" x2="887.18" y2="745.80" class="down-wick"/>
<rect x="883.18" y="706.42" width="8.00" height="33.03" class="down-body"/>
<line x1="905.55" y1="687.32" x2="905.55" y2="747.21" class="up-wick"/>
<rect x="901.55" y="711.97" width="8.00" height="27.48" class="up-body"/>
<line x1="923.91" y1="680.54" x2="923.91" y2="723.61" class="up-wick"/>
<rect x="919.91" y="695.82" width="8.00" height="16.15" class="up-body"/>
<line x1="942.27" y1="694.10" x2="942.27" y2="731.01" class="down-wick"/>
<rect x="938.27" y="695.82" width="8.00" height="3.57" class="down-body"/>
<line x1="960.64" y1="673.94" x2="960.64" y2="717.39" class="down-wick"/>
<rect x="956.64" y="699.39" width="8.00" height="6.78" class="down-body"/>
<line x1="979.00" y1="657.98" x2="979.00" y2="717.70" class="up-wick"/>
<rect x="975.00" y="662.61" width="8.00" height="43.51" class="up-body"/>
<line x1="997.36" y1="633.34" x2="997.36" y2="700.81" class="down-wick"/>
<rect x="993.36" y="662.61" width="8.00" height="35.99" class="down-body"/>
<line x1="1015.73" y1="639.74" x2="1015.73" y2="717.08" class="up-wick"/>
<rect x="1011.73" y="683.80" width="8.00" height="14.73" class="up-body"/>
<line x1="1034.09" y1="670.37" x2="1034.09" y2="696.87" class="down-wick"/>
<rect x="1030.09" y="683.80" width="8.00" height="11.71" class="down-body"/>
<line x1="1052.45" y1="678.32" x2="1052.45" y2="713.75" class="up-wick"/>
<rect x="1048.45" y="679.18" width="8.00" height="16.33" class="up-body"/>
<line x1="1070.82" y1="644.98" x2="1070.82" y2="692.62" class="up-wick"/>
<rect x="1066.82" y="660.33" width="8.00" height="18.86" class="up-body"/>
<line x1="70" y1="767.80" x2="1080" y2="767.80" class="sweep-line"/>
<text x="1076" y="763.80" text-anchor="end" class="level-label">sweep 4526.34</text>
<line x1="70" y1="774.76" x2="1080" y2="774.76" class="entry-line"/>
<text x="1076" y="770.76" text-anchor="end" class="level-label">entry level 4525.21</text>
<text x="70" y="806" class="axis-label">2026-05-18 05:15:00+00:00 to 2026-05-18 09:45:00+00:00</text>
<text x="1080" y="806" text-anchor="end" class="axis-label">4523.06 - 4554.22</text>
<text x="70" y="832" class="panel-title">M1 execution window</text>
<rect x="70" y="846" width="1010" height="192" class="plot-bg"/>
<line x1="73.71" y1="942.29" x2="73.71" y2="959.97" class="down-wick"/>
<rect x="71.30" y="950.22" width="4.83" height="6.50" class="down-body"/>
<line x1="81.14" y1="944.70" x2="81.14" y2="977.51" class="down-wick"/>
<rect x="78.73" y="944.70" width="4.83" height="30.02" class="down-body"/>
<line x1="88.57" y1="949.38" x2="88.57" y2="970.63" class="up-wick"/>
<rect x="86.15" y="961.92" width="4.83" height="8.71" class="up-body"/>
<line x1="95.99" y1="960.42" x2="95.99" y2="970.17" class="down-wick"/>
<rect x="93.58" y="963.67" width="4.83" height="1.75" class="down-body"/>
<line x1="103.42" y1="924.10" x2="103.42" y2="949.57" class="up-wick"/>
<rect x="101.01" y="934.43" width="4.83" height="7.15" class="up-body"/>
<line x1="110.85" y1="942.55" x2="110.85" y2="953.01" class="down-wick"/>
<rect x="108.43" y="944.50" width="4.83" height="1.00" class="down-body"/>
<line x1="118.27" y1="928.06" x2="118.27" y2="952.56" class="down-wick"/>
<rect x="115.86" y="929.23" width="4.83" height="22.68" class="down-body"/>
<line x1="125.70" y1="949.77" x2="125.70" y2="970.69" class="down-wick"/>
<rect x="123.28" y="958.80" width="4.83" height="11.89" class="down-body"/>
<line x1="133.12" y1="943.27" x2="133.12" y2="992.20" class="up-wick"/>
<rect x="130.71" y="954.31" width="4.83" height="36.26" class="up-body"/>
<line x1="140.55" y1="964.84" x2="140.55" y2="981.80" class="down-wick"/>
<rect x="138.14" y="967.44" width="4.83" height="5.07" class="down-body"/>
<line x1="147.98" y1="963.35" x2="147.98" y2="989.02" class="up-wick"/>
<rect x="145.56" y="963.35" width="4.83" height="16.18" class="up-body"/>
<line x1="155.40" y1="938.26" x2="155.40" y2="969.78" class="up-wick"/>
<rect x="152.99" y="947.69" width="4.83" height="13.13" class="up-body"/>
<line x1="162.83" y1="938.52" x2="162.83" y2="960.03" class="up-wick"/>
<rect x="160.42" y="940.28" width="4.83" height="14.62" class="up-body"/>
<line x1="170.26" y1="920.98" x2="170.26" y2="942.36" class="down-wick"/>
<rect x="167.84" y="927.67" width="4.83" height="7.67" class="down-body"/>
<line x1="177.68" y1="941.58" x2="177.68" y2="960.81" class="down-wick"/>
<rect x="175.27" y="943.72" width="4.83" height="5.46" class="down-body"/>
<line x1="185.11" y1="950.48" x2="185.11" y2="961.79" class="down-wick"/>
<rect x="182.70" y="953.08" width="4.83" height="4.09" class="down-body"/>
<line x1="192.54" y1="909.99" x2="192.54" y2="930.08" class="down-wick"/>
<rect x="190.12" y="912.66" width="4.83" height="17.42" class="down-body"/>
<line x1="199.96" y1="945.54" x2="199.96" y2="990.38" class="down-wick"/>
<rect x="197.55" y="946.06" width="4.83" height="43.02" class="down-body"/>
<line x1="207.39" y1="962.96" x2="207.39" y2="982.26" class="up-wick"/>
<rect x="204.98" y="969.85" width="4.83" height="10.14" class="up-body"/>
<line x1="214.82" y1="957.63" x2="214.82" y2="978.68" class="up-wick"/>
<rect x="212.40" y="958.08" width="4.83" height="19.11" class="up-body"/>
<line x1="222.24" y1="961.07" x2="222.24" y2="977.38" class="down-wick"/>
<rect x="219.83" y="967.05" width="4.83" height="4.42" class="down-body"/>
<line x1="229.67" y1="966.40" x2="229.67" y2="977.19" class="up-wick"/>
<rect x="227.26" y="969.98" width="4.83" height="6.63" class="up-body"/>
<line x1="237.10" y1="966.14" x2="237.10" y2="976.21" class="up-wick"/>
<rect x="234.68" y="969.46" width="4.83" height="1.00" class="up-body"/>
<line x1="244.52" y1="965.82" x2="244.52" y2="979.85" class="up-wick"/>
<rect x="242.11" y="966.01" width="4.83" height="7.41" class="up-body"/>
<line x1="251.95" y1="970.76" x2="251.95" y2="988.89" class="down-wick"/>
<rect x="249.53" y="971.02" width="4.83" height="17.48" class="down-body"/>
<line x1="259.38" y1="981.35" x2="259.38" y2="1001.69" class="down-wick"/>
<rect x="256.96" y="985.18" width="4.83" height="16.38" class="down-body"/>
<line x1="266.80" y1="996.49" x2="266.80" y2="1009.10" class="up-wick"/>
<rect x="264.39" y="1006.24" width="4.83" height="1.00" class="up-body"/>
<line x1="274.23" y1="966.86" x2="274.23" y2="976.15" class="down-wick"/>
<rect x="271.81" y="966.86" width="4.83" height="6.89" class="down-body"/>
<line x1="281.65" y1="956.07" x2="281.65" y2="970.17" class="down-wick"/>
<rect x="279.24" y="966.79" width="4.83" height="2.92" class="down-body"/>
<line x1="289.08" y1="986.29" x2="289.08" y2="1014.88" class="down-wick"/>
<rect x="286.67" y="988.43" width="4.83" height="1.00" class="down-body"/>
<line x1="296.51" y1="984.66" x2="296.51" y2="1004.55" class="up-wick"/>
<rect x="294.09" y="984.86" width="4.83" height="11.05" class="up-body"/>
<line x1="303.93" y1="982.58" x2="303.93" y2="995.71" class="up-wick"/>
<rect x="301.52" y="986.22" width="4.83" height="8.90" class="up-body"/>
<line x1="311.36" y1="972.97" x2="311.36" y2="988.63" class="down-wick"/>
<rect x="308.95" y="980.44" width="4.83" height="8.19" class="down-body"/>
<line x1="318.79" y1="982.32" x2="318.79" y2="993.76" class="down-wick"/>
<rect x="316.37" y="985.57" width="4.83" height="2.86" class="down-body"/>
<line x1="326.21" y1="954.18" x2="326.21" y2="979.98" class="up-wick"/>
<rect x="323.80" y="956.20" width="4.83" height="17.09" class="up-body"/>
<line x1="333.64" y1="969.39" x2="333.64" y2="983.43" class="down-wick"/>
<rect x="331.23" y="970.37" width="4.83" height="6.30" class="down-body"/>
<line x1="341.07" y1="938.85" x2="341.07" y2="986.03" class="up-wick"/>
<rect x="338.65" y="946.19" width="4.83" height="37.37" class="up-body"/>
<line x1="348.49" y1="948.86" x2="348.49" y2="963.54" class="up-wick"/>
<rect x="346.08" y="954.77" width="4.83" height="3.38" class="up-body"/>
<line x1="355.92" y1="972.77" x2="355.92" y2="995.78" class="down-wick"/>
<rect x="353.51" y="985.44" width="4.83" height="6.37" class="down-body"/>
<line x1="363.35" y1="1001.56" x2="363.35" y2="1017.42" class="up-wick"/>
<rect x="360.93" y="1002.34" width="4.83" height="2.21" class="up-body"/>
<line x1="370.77" y1="1008.97" x2="370.77" y2="1024.76" class="up-wick"/>
<rect x="368.36" y="1011.05" width="4.83" height="2.34" class="up-body"/>
<line x1="378.20" y1="955.61" x2="378.20" y2="972.06" class="down-wick"/>
<rect x="375.78" y="960.49" width="4.83" height="4.03" class="down-body"/>
<line x1="385.62" y1="956.39" x2="385.62" y2="984.21" class="up-wick"/>
<rect x="383.21" y="959.12" width="4.83" height="9.88" class="up-body"/>
<line x1="393.05" y1="953.86" x2="393.05" y2="963.22" class="up-wick"/>
<rect x="390.64" y="955.55" width="4.83" height="3.70" class="up-body"/>
<line x1="400.48" y1="922.28" x2="400.48" y2="954.83" class="up-wick"/>
<rect x="398.06" y="922.34" width="4.83" height="23.00" class="up-body"/>
<line x1="407.90" y1="877.76" x2="407.90" y2="917.66" class="down-wick"/>
<rect x="405.49" y="891.34" width="4.83" height="25.80" class="down-body"/>
<line x1="415.33" y1="890.56" x2="415.33" y2="916.10" class="down-wick"/>
<rect x="412.92" y="890.56" width="4.83" height="9.29" class="down-body"/>
<line x1="422.76" y1="912.59" x2="422.76" y2="931.44" class="up-wick"/>
<rect x="420.34" y="914.87" width="4.83" height="1.23" class="up-body"/>
<line x1="430.18" y1="878.61" x2="430.18" y2="917.08" class="down-wick"/>
<rect x="427.77" y="895.37" width="4.83" height="19.11" class="down-body"/>
<line x1="437.61" y1="914.67" x2="437.61" y2="932.67" class="up-wick"/>
<rect x="435.20" y="919.09" width="4.83" height="9.88" class="up-body"/>
<line x1="445.04" y1="905.32" x2="445.04" y2="922.67" class="up-wick"/>
<rect x="442.62" y="915.91" width="4.83" height="4.55" class="up-body"/>
<line x1="452.46" y1="902.91" x2="452.46" y2="917.27" class="up-wick"/>
<rect x="450.05" y="909.54" width="4.83" height="7.73" class="up-body"/>
<line x1="459.89" y1="908.70" x2="459.89" y2="921.56" class="down-wick"/>
<rect x="457.48" y="909.02" width="4.83" height="11.83" class="down-body"/>
<line x1="467.32" y1="891.93" x2="467.32" y2="916.30" class="up-wick"/>
<rect x="464.90" y="901.29" width="4.83" height="10.20" class="up-body"/>
<line x1="474.74" y1="881.73" x2="474.74" y2="894.20" class="down-wick"/>
<rect x="472.33" y="885.76" width="4.83" height="1.00" class="down-body"/>
<line x1="482.17" y1="864.77" x2="482.17" y2="894.40" class="up-wick"/>
<rect x="479.76" y="885.82" width="4.83" height="4.87" class="up-body"/>
<line x1="489.60" y1="892.19" x2="489.60" y2="907.01" class="down-wick"/>
<rect x="487.18" y="894.92" width="4.83" height="9.03" class="down-body"/>
<line x1="497.02" y1="884.91" x2="497.02" y2="901.35" class="up-wick"/>
<rect x="494.61" y="891.67" width="4.83" height="3.57" class="up-body"/>
<line x1="504.45" y1="885.69" x2="504.45" y2="894.46" class="down-wick"/>
<rect x="502.03" y="892.32" width="4.83" height="1.00" class="down-body"/>
<line x1="511.88" y1="882.31" x2="511.88" y2="890.95" class="up-wick"/>
<rect x="509.46" y="886.67" width="4.83" height="3.05" class="up-body"/>
<line x1="519.30" y1="886.54" x2="519.30" y2="901.94" class="up-wick"/>
<rect x="516.89" y="888.48" width="4.83" height="11.70" class="up-body"/>
<line x1="526.73" y1="882.31" x2="526.73" y2="903.37" class="up-wick"/>
<rect x="524.31" y="888.09" width="4.83" height="7.86" class="up-body"/>
<line x1="534.15" y1="885.95" x2="534.15" y2="896.22" class="down-wick"/>
<rect x="531.74" y="890.76" width="4.83" height="1.62" class="down-body"/>
<line x1="541.58" y1="899.01" x2="541.58" y2="910.64" class="down-wick"/>
<rect x="539.17" y="906.62" width="4.83" height="3.12" class="down-body"/>
<line x1="549.01" y1="911.81" x2="549.01" y2="929.95" class="down-wick"/>
<rect x="546.59" y="916.62" width="4.83" height="8.38" class="down-body"/>
<line x1="556.43" y1="936.25" x2="556.43" y2="959.19" class="up-wick"/>
<rect x="554.02" y="944.89" width="4.83" height="1.00" class="up-body"/>
<line x1="563.86" y1="948.86" x2="563.86" y2="963.80" class="down-wick"/>
<rect x="561.45" y="948.86" width="4.83" height="11.63" class="down-body"/>
<line x1="571.29" y1="973.36" x2="571.29" y2="993.57" class="up-wick"/>
<rect x="568.87" y="976.08" width="4.83" height="7.34" class="up-body"/>
<line x1="578.71" y1="919.81" x2="578.71" y2="936.90" class="up-wick"/>
<rect x="576.30" y="928.26" width="4.83" height="5.33" class="up-body"/>
<line x1="586.14" y1="920.72" x2="586.14" y2="940.73" class="down-wick"/>
<rect x="583.73" y="924.23" width="4.83" height="12.61" class="down-body"/>
<line x1="593.57" y1="928.19" x2="593.57" y2="939.50" class="down-wick"/>
<rect x="591.15" y="929.23" width="4.83" height="3.70" class="down-body"/>
<line x1="600.99" y1="914.67" x2="600.99" y2="929.43" class="down-wick"/>
<rect x="598.58" y="915.26" width="4.83" height="6.24" class="down-body"/>
<line x1="608.42" y1="910.64" x2="608.42" y2="927.28" class="up-wick"/>
<rect x="606.01" y="910.64" width="4.83" height="11.37" class="up-body"/>
<line x1="615.85" y1="902.07" x2="615.85" y2="912.07" class="down-wick"/>
<rect x="613.43" y="902.46" width="4.83" height="3.25" class="down-body"/>
<line x1="623.27" y1="909.41" x2="623.27" y2="930.40" class="up-wick"/>
<rect x="620.86" y="909.73" width="4.83" height="19.04" class="up-body"/>
<line x1="630.70" y1="917.34" x2="630.70" y2="930.34" class="down-wick"/>
<rect x="628.28" y="917.47" width="4.83" height="11.31" class="down-body"/>
<line x1="638.12" y1="917.79" x2="638.12" y2="930.01" class="down-wick"/>
<rect x="635.71" y="925.85" width="4.83" height="1.00" class="down-body"/>
<line x1="645.55" y1="921.50" x2="645.55" y2="930.47" class="up-wick"/>
<rect x="643.14" y="925.79" width="4.83" height="4.68" class="up-body"/>
<line x1="652.98" y1="916.82" x2="652.98" y2="939.30" class="up-wick"/>
<rect x="650.56" y="917.86" width="4.83" height="21.06" class="up-body"/>
<line x1="660.40" y1="891.73" x2="660.40" y2="913.44" class="up-wick"/>
<rect x="657.99" y="906.03" width="4.83" height="1.00" class="up-body"/>
<line x1="667.83" y1="901.94" x2="667.83" y2="955.16" class="down-wick"/>
<rect x="665.42" y="907.14" width="4.83" height="46.46" class="down-body"/>
<line x1="675.26" y1="922.80" x2="675.26" y2="943.72" class="up-wick"/>
<rect x="672.84" y="929.10" width="4.83" height="14.43" class="up-body"/>
<line x1="682.68" y1="923.45" x2="682.68" y2="938.65" class="up-wick"/>
<rect x="680.27" y="924.23" width="4.83" height="5.20" class="up-body"/>
<line x1="690.11" y1="946.78" x2="690.11" y2="961.85" class="down-wick"/>
<rect x="687.70" y="946.84" width="4.83" height="10.53" class="down-body"/>
<line x1="697.54" y1="955.35" x2="697.54" y2="974.01" class="down-wick"/>
<rect x="695.12" y="960.49" width="4.83" height="13.45" class="down-body"/>
<line x1="704.96" y1="952.95" x2="704.96" y2="968.61" class="down-wick"/>
<rect x="702.55" y="955.68" width="4.83" height="6.17" class="down-body"/>
<line x1="712.39" y1="956.98" x2="712.39" y2="964.19" class="up-wick"/>
<rect x="709.98" y="958.80" width="4.83" height="1.00" class="up-body"/>
<line x1="719.82" y1="941.12" x2="719.82" y2="951.13" class="up-wick"/>
<rect x="717.40" y="942.03" width="4.83" height="5.00" class="up-body"/>
<line x1="727.24" y1="941.06" x2="727.24" y2="952.56" class="down-wick"/>
<rect x="724.83" y="950.61" width="4.83" height="1.00" class="down-body"/>
<line x1="734.67" y1="934.62" x2="734.67" y2="952.63" class="down-wick"/>
<rect x="732.26" y="944.76" width="4.83" height="4.03" class="down-body"/>
<line x1="742.10" y1="939.82" x2="742.10" y2="961.72" class="down-wick"/>
<rect x="739.68" y="940.02" width="4.83" height="20.54" class="down-body"/>
<line x1="749.52" y1="924.29" x2="749.52" y2="960.55" class="up-wick"/>
<rect x="747.11" y="929.95" width="4.83" height="26.51" class="up-body"/>
<line x1="756.95" y1="869.38" x2="756.95" y2="895.57" class="up-wick"/>
<rect x="754.53" y="889.72" width="4.83" height="5.65" class="up-body"/>
<line x1="764.38" y1="885.76" x2="764.38" y2="906.03" class="down-wick"/>
<rect x="761.96" y="894.59" width="4.83" height="7.99" class="down-body"/>
<line x1="771.80" y1="866.32" x2="771.80" y2="902.46" class="down-wick"/>
<rect x="769.39" y="882.64" width="4.83" height="14.43" class="down-body"/>
<line x1="779.23" y1="883.09" x2="779.23" y2="895.50" class="up-wick"/>
<rect x="776.81" y="887.44" width="4.83" height="1.00" class="up-body"/>
<line x1="786.65" y1="859.24" x2="786.65" y2="871.59" class="up-wick"/>
<rect x="784.24" y="865.87" width="4.83" height="4.09" class="up-body"/>
<line x1="794.08" y1="867.10" x2="794.08" y2="879.39" class="up-wick"/>
<rect x="791.67" y="871.52" width="4.83" height="3.51" class="up-body"/>
<line x1="801.51" y1="861.78" x2="801.51" y2="906.68" class="down-wick"/>
<rect x="799.09" y="861.78" width="4.83" height="43.54" class="down-body"/>
<line x1="808.93" y1="914.48" x2="808.93" y2="927.67" class="down-wick"/>
<rect x="806.52" y="918.57" width="4.83" height="1.00" class="down-body"/>
<line x1="816.36" y1="902.33" x2="816.36" y2="924.81" class="down-wick"/>
<rect x="813.95" y="911.62" width="4.83" height="5.33" class="down-body"/>
<line x1="823.79" y1="886.02" x2="823.79" y2="906.88" class="up-wick"/>
<rect x="821.37" y="899.92" width="4.83" height="6.89" class="up-body"/>
<line x1="831.21" y1="887.06" x2="831.21" y2="901.29" class="down-wick"/>
<rect x="828.80" y="890.95" width="4.83" height="9.42" class="down-body"/>
<line x1="838.64" y1="921.50" x2="838.64" y2="938.78" class="down-wick"/>
<rect x="836.23" y="923.32" width="4.83" height="10.46" class="down-body"/>
<line x1="846.07" y1="915.32" x2="846.07" y2="934.04" class="up-wick"/>
<rect x="843.65" y="918.51" width="4.83" height="10.01" class="up-body"/>
<line x1="853.49" y1="926.05" x2="853.49" y2="939.63" class="up-wick"/>
<rect x="851.08" y="928.32" width="4.83" height="2.92" class="up-body"/>
<line x1="860.92" y1="908.70" x2="860.92" y2="940.67" class="up-wick"/>
<rect x="858.51" y="917.34" width="4.83" height="22.48" class="up-body"/>
<line x1="868.35" y1="921.63" x2="868.35" y2="945.09" class="down-wick"/>
<rect x="865.93" y="922.15" width="4.83" height="14.36" class="down-body"/>
<line x1="875.77" y1="939.56" x2="875.77" y2="957.69" class="down-wick"/>
<rect x="873.36" y="942.03" width="4.83" height="5.46" class="down-body"/>
<line x1="883.20" y1="946.32" x2="883.20" y2="962.50" class="down-wick"/>
<rect x="880.78" y="951.98" width="4.83" height="2.01" class="down-body"/>
<line x1="890.62" y1="947.82" x2="890.62" y2="961.59" class="up-wick"/>
<rect x="888.21" y="948.34" width="4.83" height="4.35" class="up-body"/>
<line x1="898.05" y1="935.79" x2="898.05" y2="957.56" class="down-wick"/>
<rect x="895.64" y="954.38" width="4.83" height="2.01" class="down-body"/>
<line x1="905.48" y1="977.45" x2="905.48" y2="994.22" class="down-wick"/>
<rect x="903.06" y="985.57" width="4.83" height="1.95" class="down-body"/>
<line x1="912.90" y1="971.02" x2="912.90" y2="981.28" class="up-wick"/>
<rect x="910.49" y="975.43" width="4.83" height="1.10" class="up-body"/>
<line x1="920.33" y1="935.86" x2="920.33" y2="973.23" class="up-wick"/>
<rect x="917.92" y="938.91" width="4.83" height="30.15" class="up-body"/>
<line x1="927.76" y1="953.73" x2="927.76" y2="970.82" class="up-wick"/>
<rect x="925.34" y="954.25" width="4.83" height="4.29" class="up-body"/>
<line x1="935.18" y1="925.40" x2="935.18" y2="956.39" class="down-wick"/>
<rect x="932.77" y="928.97" width="4.83" height="20.21" class="down-body"/>
<line x1="942.61" y1="930.27" x2="942.61" y2="943.33" class="down-wick"/>
<rect x="940.20" y="935.79" width="4.83" height="5.72" class="down-body"/>
<line x1="950.04" y1="952.17" x2="950.04" y2="978.62" class="down-wick"/>
<rect x="947.62" y="952.76" width="4.83" height="11.70" class="down-body"/>
<line x1="957.46" y1="948.40" x2="957.46" y2="968.29" class="up-wick"/>
<rect x="955.05" y="950.74" width="4.83" height="15.60" class="up-body"/>
<line x1="964.89" y1="935.79" x2="964.89" y2="959.06" class="up-wick"/>
<rect x="962.48" y="939.24" width="4.83" height="6.04" class="up-body"/>
<line x1="972.32" y1="930.73" x2="972.32" y2="950.03" class="down-wick"/>
<rect x="969.90" y="930.73" width="4.83" height="16.57" class="down-body"/>
<line x1="979.74" y1="946.13" x2="979.74" y2="963.93" class="up-wick"/>
<rect x="977.33" y="952.43" width="4.83" height="9.23" class="up-body"/>
<line x1="987.17" y1="942.62" x2="987.17" y2="962.18" class="up-wick"/>
<rect x="984.76" y="946.39" width="4.83" height="2.34" class="up-body"/>
<line x1="994.60" y1="908.57" x2="994.60" y2="940.41" class="up-wick"/>
<rect x="992.18" y="908.57" width="4.83" height="30.80" class="up-body"/>
<line x1="1002.02" y1="875.62" x2="1002.02" y2="906.75" class="up-wick"/>
<rect x="999.61" y="889.46" width="4.83" height="17.03" class="up-body"/>
<line x1="1009.45" y1="918.12" x2="1009.45" y2="943.40" class="up-wick"/>
<rect x="1007.03" y="926.18" width="4.83" height="15.47" class="up-body"/>
<line x1="1016.88" y1="923.90" x2="1016.88" y2="946.78" class="down-wick"/>
<rect x="1014.46" y="929.82" width="4.83" height="14.62" class="down-body"/>
<line x1="1024.30" y1="935.60" x2="1024.30" y2="960.81" class="up-wick"/>
<rect x="1021.89" y="938.78" width="4.83" height="20.41" class="up-body"/>
<line x1="1031.73" y1="882.38" x2="1031.73" y2="913.57" class="up-wick"/>
<rect x="1029.31" y="900.05" width="4.83" height="9.94" class="up-body"/>
<line x1="1039.15" y1="920.72" x2="1039.15" y2="936.77" class="up-wick"/>
<rect x="1036.74" y="920.85" width="4.83" height="7.99" class="up-body"/>
<line x1="1046.58" y1="917.92" x2="1046.58" y2="929.95" class="up-wick"/>
<rect x="1044.17" y="921.37" width="4.83" height="4.22" class="up-body"/>
<line x1="1054.01" y1="931.37" x2="1054.01" y2="942.62" class="down-wick"/>
<rect x="1051.59" y="932.74" width="4.83" height="8.45" class="down-body"/>
<line x1="1061.43" y1="935.86" x2="1061.43" y2="953.40" class="down-wick"/>
<rect x="1059.02" y="939.04" width="4.83" height="1.00" class="down-body"/>
<line x1="1068.86" y1="949.31" x2="1068.86" y2="960.42" class="up-wick"/>
<rect x="1066.45" y="952.43" width="4.83" height="4.94" class="up-body"/>
<line x1="1076.29" y1="921.95" x2="1076.29" y2="938.13" class="down-wick"/>
<rect x="1073.87" y="923.97" width="4.83" height="6.95" class="down-body"/>
<line x1="70" y1="1017.42" x2="1080" y2="1017.42" class="sweep-line"/>
<text x="1076" y="1013.42" text-anchor="end" class="level-label">sweep 4526.34</text>
<line x1="70" y1="1024.76" x2="1080" y2="1024.76" class="entry-line"/>
<text x="1076" y="1020.76" text-anchor="end" class="level-label">entry level 4525.21</text>
<text x="70" y="1056" class="axis-label">2026-05-18 05:15:00+00:00 to 2026-05-18 09:45:00+00:00</text>
<text x="1080" y="1056" text-anchor="end" class="axis-label">4523.17 - 4552.72</text>
</svg>