<svg xmlns="http://www.w3.org/2000/svg" width="1120" height="1054" viewBox="0 0 1120 1054">
<style>
text{font-family:Arial,Helvetica,sans-serif}.title{font-size:21px;font-weight:700;fill:#1f2937}.subtitle{font-size:12px;fill:#4b5563}.panel-title{font-size:15px;font-weight:700;fill:#111827}.muted{font-size:13px;fill:#6b7280}.plot-bg{fill:#f8fafc;stroke:#cbd5e1;stroke-width:1}.up-body{fill:#15803d;stroke:#14532d;stroke-width:.8}.down-body{fill:#b91c1c;stroke:#7f1d1d;stroke-width:.8}.up-wick{stroke:#14532d;stroke-width:1}.down-wick{stroke:#7f1d1d;stroke-width:1}.sweep-line{stroke:#7c3aed;stroke-width:1.6;stroke-dasharray:6 4}.number-line{stroke:#0f766e;stroke-width:1.4;stroke-dasharray:3 4}.entry-line{stroke:#2563eb;stroke-width:1.4}.sl-line{stroke:#dc2626;stroke-width:1.4}.tp-line{stroke:#16a34a;stroke-width:1.4}.level-label,.axis-label{font-size:11px;fill:#374151}
</style>
<text x="28" y="28" class="title">Adelin v2 visual review sample sample_119</text>
<text x="28" y="48" class="subtitle">Candidate windows are for visual labeling only and are not trade signals.</text>
<text x="560" y="48" class="subtitle" text-anchor="middle">NUMBER_THEORY_LEVEL_NEAR | ROUND_LEVEL_ENTRY_METADATA_AVAILABLE</text>
<text x="70" y="82" class="panel-title">H1 liquidity context</text>
<rect x="70" y="96" width="1010" height="192" class="plot-bg"/>
<line x1="80.98" y1="163.88" x2="80.98" y2="179.04" class="down-wick"/>
<rect x="76.98" y="166.40" width="8.00" height="9.76" class="down-body"/>
<line x1="102.93" y1="170.78" x2="102.93" y2="183.97" class="down-wick"/>
<rect x="98.93" y="176.15" width="8.00" height="1.58" class="down-body"/>
<line x1="124.89" y1="172.84" x2="124.89" y2="187.23" class="up-wick"/>
<rect x="120.89" y="173.96" width="8.00" height="3.77" class="up-body"/>
<line x1="146.85" y1="170.53" x2="146.85" y2="196.36" class="down-wick"/>
<rect x="142.85" y="173.90" width="8.00" height="10.59" class="down-body"/>
<line x1="168.80" y1="183.59" x2="168.80" y2="208.81" class="down-wick"/>
<rect x="164.80" y="184.50" width="8.00" height="22.00" class="down-body"/>
<line x1="190.76" y1="199.54" x2="190.76" y2="216.17" class="up-wick"/>
<rect x="186.76" y="201.42" width="8.00" height="5.08" class="up-body"/>
<line x1="212.72" y1="193.03" x2="212.72" y2="228.56" class="down-wick"/>
<rect x="208.72" y="201.42" width="8.00" height="13.34" class="down-body"/>
<line x1="234.67" y1="195.95" x2="234.67" y2="215.57" class="up-wick"/>
<rect x="230.67" y="208.76" width="8.00" height="5.99" class="up-body"/>
<line x1="256.63" y1="163.02" x2="256.63" y2="225.88" class="up-wick"/>
<rect x="252.63" y="207.08" width="8.00" height="1.68" class="up-body"/>
<line x1="278.59" y1="162.13" x2="278.59" y2="211.11" class="up-wick"/>
<rect x="274.59" y="163.74" width="8.00" height="43.34" class="up-body"/>
<line x1="300.54" y1="123.93" x2="300.54" y2="165.88" class="up-wick"/>
<rect x="296.54" y="152.64" width="8.00" height="11.10" class="up-body"/>
<line x1="322.50" y1="141.76" x2="322.50" y2="167.85" class="down-wick"/>
<rect x="318.50" y="152.72" width="8.00" height="1.84" class="down-body"/>
<line x1="344.46" y1="142.42" x2="344.46" y2="165.03" class="up-wick"/>
<rect x="340.46" y="153.72" width="8.00" height="1.00" class="up-body"/>
<line x1="366.41" y1="127.82" x2="366.41" y2="155.72" class="up-wick"/>
<rect x="362.41" y="134.16" width="8.00" height="19.56" class="up-body"/>
<line x1="388.37" y1="121.19" x2="388.37" y2="138.47" class="down-wick"/>
<rect x="384.37" y="134.20" width="8.00" height="1.20" class="down-body"/>
<line x1="410.33" y1="132.67" x2="410.33" y2="145.38" class="down-wick"/>
<rect x="406.33" y="135.44" width="8.00" height="6.18" class="down-body"/>
<line x1="432.28" y1="119.81" x2="432.28" y2="143.98" class="up-wick"/>
<rect x="428.28" y="123.80" width="8.00" height="17.85" class="up-body"/>
<line x1="454.24" y1="158.72" x2="454.24" y2="246.28" class="down-wick"/>
<rect x="450.24" y="164.10" width="8.00" height="51.71" class="down-body"/>
<line x1="476.20" y1="211.96" x2="476.20" y2="261.57" class="down-wick"/>
<rect x="472.20" y="215.81" width="8.00" height="25.11" class="down-body"/>
<line x1="498.15" y1="204.76" x2="498.15" y2="274.76" class="up-wick"/>
<rect x="494.15" y="221.57" width="8.00" height="19.35" class="up-body"/>
<line x1="520.11" y1="193.55" x2="520.11" y2="235.66" class="up-wick"/>
<rect x="516.11" y="197.95" width="8.00" height="23.62" class="up-body"/>
<line x1="542.07" y1="190.51" x2="542.07" y2="210.40" class="down-wick"/>
<rect x="538.07" y="197.95" width="8.00" height="3.08" class="down-body"/>
<line x1="564.02" y1="195.47" x2="564.02" y2="206.88" class="down-wick"/>
<rect x="560.02" y="201.03" width="8.00" height="1.15" class="down-body"/>
<line x1="585.98" y1="153.86" x2="585.98" y2="211.16" class="up-wick"/>
<rect x="581.98" y="169.48" width="8.00" height="32.71" class="up-body"/>
<line x1="607.93" y1="160.09" x2="607.93" y2="195.65" class="down-wick"/>
<rect x="603.93" y="169.48" width="8.00" height="25.58" class="down-body"/>
<line x1="629.89" y1="185.25" x2="629.89" y2="203.78" class="up-wick"/>
<rect x="625.89" y="193.70" width="8.00" height="1.35" class="up-body"/>
<line x1="651.85" y1="182.41" x2="651.85" y2="205.25" class="down-wick"/>
<rect x="647.85" y="193.71" width="8.00" height="2.39" class="down-body"/>
<line x1="673.80" y1="161.55" x2="673.80" y2="197.52" class="up-wick"/>
<rect x="669.80" y="187.77" width="8.00" height="8.39" class="up-body"/>
<line x1="695.76" y1="182.17" x2="695.76" y2="207.97" class="down-wick"/>
<rect x="691.76" y="187.77" width="8.00" height="17.35" class="down-body"/>
<line x1="717.72" y1="195.38" x2="717.72" y2="212.22" class="up-wick"/>
<rect x="713.72" y="204.32" width="8.00" height="1.00" class="up-body"/>
<line x1="739.67" y1="181.20" x2="739.67" y2="204.32" class="up-wick"/>
<rect x="735.67" y="197.74" width="8.00" height="6.58" class="up-body"/>
<line x1="761.63" y1="182.00" x2="761.63" y2="224.20" class="down-wick"/>
<rect x="757.63" y="197.74" width="8.00" height="19.95" class="down-body"/>
<line x1="783.59" y1="177.38" x2="783.59" y2="230.27" class="up-wick"/>
<rect x="779.59" y="198.65" width="8.00" height="19.04" class="up-body"/>
<line x1="805.54" y1="189.53" x2="805.54" y2="212.39" class="up-wick"/>
<rect x="801.54" y="193.21" width="8.00" height="5.44" class="up-body"/>
<line x1="827.50" y1="182.56" x2="827.50" y2="197.96" class="up-wick"/>
<rect x="823.50" y="188.37" width="8.00" height="4.74" class="up-body"/>
<line x1="849.46" y1="186.21" x2="849.46" y2="203.30" class="down-wick"/>
<rect x="845.46" y="188.37" width="8.00" height="8.31" class="down-body"/>
<line x1="871.41" y1="167.42" x2="871.41" y2="200.03" class="up-wick"/>
<rect x="867.41" y="170.46" width="8.00" height="26.21" class="up-body"/>
<line x1="893.37" y1="150.50" x2="893.37" y2="175.09" class="up-wick"/>
<rect x="889.37" y="153.47" width="8.00" height="16.99" class="up-body"/>
<line x1="915.33" y1="146.61" x2="915.33" y2="160.38" class="down-wick"/>
<rect x="911.33" y="153.47" width="8.00" height="2.72" class="down-body"/>
<line x1="937.28" y1="156.19" x2="937.28" y2="156.19" class="up-wick"/>
<rect x="933.28" y="156.19" width="8.00" height="1.00" class="up-body"/>
<line x1="959.24" y1="139.00" x2="959.24" y2="158.47" class="down-wick"/>
<rect x="955.24" y="141.95" width="8.00" height="12.79" class="down-body"/>
<line x1="981.20" y1="153.20" x2="981.20" y2="169.03" class="down-wick"/>
<rect x="977.20" y="154.74" width="8.00" height="8.32" class="down-body"/>
<line x1="1003.15" y1="110.03" x2="1003.15" y2="169.19" class="up-wick"/>
<rect x="999.15" y="111.86" width="8.00" height="51.17" class="up-body"/>
<line x1="1025.11" y1="109.24" x2="1025.11" y2="131.52" class="down-wick"/>
<rect x="1021.11" y="111.87" width="8.00" height="17.62" class="down-body"/>
<line x1="1047.07" y1="122.28" x2="1047.07" y2="139.24" class="down-wick"/>
<rect x="1043.07" y="129.51" width="8.00" height="7.75" class="down-body"/>
<line x1="1069.02" y1="128.89" x2="1069.02" y2="140.65" class="up-wick"/>
<rect x="1065.02" y="131.53" width="8.00" height="6.10" class="up-body"/>
<line x1="70" y1="202.46" x2="1080" y2="202.46" class="number-line"/>
<text x="1076" y="198.46" text-anchor="end" class="level-label">round 5090.00</text>
<line x1="70" y1="202.46" x2="1080" y2="202.46" class="entry-line"/>
<text x="1076" y="198.46" text-anchor="end" class="level-label">entry level 5090.00</text>
<text x="70" y="306" class="axis-label">2026-03-06 07:00:00+00:00 to 2026-03-10 06:00:00+00:00</text>
<text x="1080" y="306" text-anchor="end" class="axis-label">5000.92 - 5200.87</text>
<text x="70" y="332" class="panel-title">M15 liquidity / reaction context</text>
<rect x="70" y="346" width="1010" height="192" class="plot-bg"/>
<line x1="80.74" y1="365.89" x2="80.74" y2="421.64" class="down-wick"/>
<rect x="76.74" y="373.26" width="8.00" height="36.94" class="down-body"/>
<line x1="102.23" y1="403.61" x2="102.23" y2="418.94" class="up-wick"/>
<rect x="98.23" y="406.62" width="8.00" height="3.56" class="up-body"/>
<line x1="123.72" y1="405.99" x2="123.72" y2="485.77" class="down-wick"/>
<rect x="119.72" y="406.54" width="8.00" height="41.50" class="down-body"/>
<line x1="145.21" y1="439.21" x2="145.21" y2="472.78" class="up-wick"/>
<rect x="141.21" y="444.05" width="8.00" height="4.10" class="up-body"/>
<line x1="166.70" y1="438.78" x2="166.70" y2="506.71" class="down-wick"/>
<rect x="162.70" y="444.05" width="8.00" height="52.35" class="down-body"/>
<line x1="188.19" y1="474.33" x2="188.19" y2="501.04" class="up-wick"/>
<rect x="184.19" y="483.64" width="8.00" height="12.77" class="up-body"/>
<line x1="209.68" y1="464.68" x2="209.68" y2="486.16" class="up-wick"/>
<rect x="205.68" y="474.54" width="8.00" height="8.89" class="up-body"/>
<line x1="231.17" y1="468.29" x2="231.17" y2="499.87" class="down-wick"/>
<rect x="227.17" y="474.55" width="8.00" height="3.88" class="down-body"/>
<line x1="252.66" y1="446.19" x2="252.66" y2="524.76" class="up-wick"/>
<rect x="248.66" y="448.95" width="8.00" height="29.47" class="up-body"/>
<line x1="274.15" y1="428.92" x2="274.15" y2="452.18" class="down-wick"/>
<rect x="270.15" y="448.95" width="8.00" height="1.00" class="down-body"/>
<line x1="295.64" y1="430.79" x2="295.64" y2="449.97" class="up-wick"/>
<rect x="291.64" y="438.36" width="8.00" height="11.02" class="up-body"/>
<line x1="317.13" y1="435.62" x2="317.13" y2="459.05" class="down-wick"/>
<rect x="313.13" y="438.49" width="8.00" height="13.45" class="down-body"/>
<line x1="338.62" y1="418.91" x2="338.62" y2="471.23" class="up-wick"/>
<rect x="334.62" y="419.98" width="8.00" height="31.96" class="up-body"/>
<line x1="360.11" y1="419.76" x2="360.11" y2="448.34" class="down-wick"/>
<rect x="356.11" y="419.93" width="8.00" height="21.88" class="down-body"/>
<line x1="381.60" y1="420.58" x2="381.60" y2="443.13" class="up-wick"/>
<rect x="377.60" y="422.27" width="8.00" height="19.60" class="up-body"/>
<line x1="403.09" y1="413.58" x2="403.09" y2="431.34" class="up-wick"/>
<rect x="399.09" y="419.60" width="8.00" height="2.67" class="up-body"/>
<line x1="424.57" y1="413.00" x2="424.57" y2="433.36" class="down-wick"/>
<rect x="420.57" y="419.60" width="8.00" height="9.83" class="down-body"/>
<line x1="446.06" y1="409.41" x2="446.06" y2="433.64" class="down-wick"/>
<rect x="442.06" y="429.43" width="8.00" height="4.21" class="down-body"/>
<line x1="467.55" y1="420.36" x2="467.55" y2="436.65" class="up-wick"/>
<rect x="463.55" y="429.62" width="8.00" height="4.02" class="up-body"/>
<line x1="489.04" y1="421.07" x2="489.04" y2="429.71" class="up-wick"/>
<rect x="485.04" y="423.82" width="8.00" height="5.80" class="up-body"/>
<line x1="510.53" y1="416.21" x2="510.53" y2="429.58" class="down-wick"/>
<rect x="506.53" y="423.82" width="8.00" height="1.00" class="down-body"/>
<line x1="532.02" y1="419.60" x2="532.02" y2="428.00" class="down-wick"/>
<rect x="528.02" y="424.37" width="8.00" height="2.22" class="down-body"/>
<line x1="553.51" y1="421.68" x2="553.51" y2="429.21" class="up-wick"/>
<rect x="549.51" y="425.20" width="8.00" height="1.26" class="up-body"/>
<line x1="575.00" y1="423.88" x2="575.00" y2="431.82" class="down-wick"/>
<rect x="571.00" y="425.19" width="8.00" height="1.00" class="down-body"/>
<line x1="596.49" y1="409.82" x2="596.49" y2="437.69" class="up-wick"/>
<rect x="592.49" y="417.05" width="8.00" height="8.35" class="up-body"/>
<line x1="617.98" y1="407.16" x2="617.98" y2="429.16" class="down-wick"/>
<rect x="613.98" y="417.19" width="8.00" height="1.38" class="down-body"/>
<line x1="639.47" y1="384.55" x2="639.47" y2="423.15" class="up-wick"/>
<rect x="635.47" y="385.22" width="8.00" height="33.35" class="up-body"/>
<line x1="660.96" y1="359.24" x2="660.96" y2="386.94" class="up-wick"/>
<rect x="656.96" y="380.62" width="8.00" height="4.60" class="up-body"/>
<line x1="682.45" y1="367.76" x2="682.45" y2="387.44" class="up-wick"/>
<rect x="678.45" y="376.10" width="8.00" height="4.52" class="up-body"/>
<line x1="703.94" y1="371.42" x2="703.94" y2="382.06" class="down-wick"/>
<rect x="699.94" y="376.10" width="8.00" height="1.72" class="down-body"/>
<line x1="725.43" y1="373.44" x2="725.43" y2="406.23" class="down-wick"/>
<rect x="721.43" y="377.82" width="8.00" height="25.60" class="down-body"/>
<line x1="746.91" y1="397.63" x2="746.91" y2="416.46" class="down-wick"/>
<rect x="742.91" y="403.40" width="8.00" height="12.24" class="down-body"/>
<line x1="768.40" y1="409.83" x2="768.40" y2="427.58" class="down-wick"/>
<rect x="764.40" y="415.64" width="8.00" height="1.00" class="down-body"/>
<line x1="789.89" y1="403.39" x2="789.89" y2="418.78" class="up-wick"/>
<rect x="785.89" y="403.81" width="8.00" height="12.82" class="up-body"/>
<line x1="811.38" y1="402.22" x2="811.38" y2="412.79" class="down-wick"/>
<rect x="807.38" y="403.81" width="8.00" height="7.30" class="down-body"/>
<line x1="832.87" y1="410.63" x2="832.87" y2="420.95" class="down-wick"/>
<rect x="828.87" y="411.12" width="8.00" height="2.67" class="down-body"/>
<line x1="854.36" y1="398.33" x2="854.36" y2="414.04" class="up-wick"/>
<rect x="850.36" y="412.68" width="8.00" height="1.12" class="up-body"/>
<line x1="875.85" y1="403.98" x2="875.85" y2="424.69" class="down-wick"/>
<rect x="871.85" y="412.68" width="8.00" height="10.91" class="down-body"/>
<line x1="897.34" y1="416.80" x2="897.34" y2="429.59" class="down-wick"/>
<rect x="893.34" y="423.59" width="8.00" height="1.97" class="down-body"/>
<line x1="918.83" y1="409.21" x2="918.83" y2="429.39" class="up-wick"/>
<rect x="914.83" y="417.07" width="8.00" height="8.49" class="up-body"/>
<line x1="940.32" y1="390.50" x2="940.32" y2="419.01" class="up-wick"/>
<rect x="936.32" y="395.83" width="8.00" height="21.32" class="up-body"/>
<line x1="961.81" y1="377.13" x2="961.81" y2="396.41" class="up-wick"/>
<rect x="957.81" y="379.34" width="8.00" height="16.49" class="up-body"/>
<line x1="983.30" y1="369.76" x2="983.30" y2="408.88" class="down-wick"/>
<rect x="979.30" y="379.30" width="8.00" height="29.57" class="down-body"/>
<line x1="1004.79" y1="402.68" x2="1004.79" y2="417.18" class="up-wick"/>
<rect x="1000.79" y="405.66" width="8.00" height="3.21" class="up-body"/>
<line x1="1026.28" y1="398.00" x2="1026.28" y2="408.88" class="up-wick"/>
<rect x="1022.28" y="400.51" width="8.00" height="5.15" class="up-body"/>
<line x1="1047.77" y1="398.91" x2="1047.77" y2="414.89" class="down-wick"/>
<rect x="1043.77" y="400.51" width="8.00" height="12.45" class="down-body"/>
<line x1="1069.26" y1="412.34" x2="1069.26" y2="427.07" class="down-wick"/>
<rect x="1065.26" y="412.96" width="8.00" height="5.15" class="down-body"/>
<line x1="70" y1="425.78" x2="1080" y2="425.78" class="number-line"/>
<text x="1076" y="421.78" text-anchor="end" class="level-label">round 5090.00</text>
<line x1="70" y1="425.78" x2="1080" y2="425.78" class="entry-line"/>
<text x="1076" y="421.78" text-anchor="end" class="level-label">entry level 5090.00</text>
<text x="70" y="556" class="axis-label">2026-03-09 01:00:00+00:00 to 2026-03-09 12:30:00+00:00</text>
<text x="1080" y="556" text-anchor="end" class="axis-label">5004.64 - 5150.68</text>
<text x="70" y="582" class="panel-title">M5 reaction / execution context</text>
<rect x="70" y="596" width="1010" height="192" class="plot-bg"/>
<line x1="79.18" y1="722.67" x2="79.18" y2="746.44" class="down-wick"/>
<rect x="75.18" y="736.59" width="8.00" height="6.49" class="down-body"/>
<line x1="97.55" y1="735.95" x2="97.55" y2="752.98" class="down-wick"/>
<rect x="93.55" y="743.28" width="8.00" height="5.55" class="down-body"/>
<line x1="115.91" y1="743.80" x2="115.91" y2="765.63" class="down-wick"/>
<rect x="111.91" y="748.96" width="8.00" height="8.38" class="down-body"/>
<line x1="134.27" y1="732.21" x2="134.27" y2="759.17" class="up-wick"/>
<rect x="130.27" y="739.11" width="8.00" height="18.22" class="up-body"/>
<line x1="152.64" y1="727.66" x2="152.64" y2="743.41" class="down-wick"/>
<rect x="148.64" y="739.11" width="8.00" height="2.16" class="down-body"/>
<line x1="171.00" y1="715.09" x2="171.00" y2="766.22" class="down-wick"/>
<rect x="167.00" y="741.53" width="8.00" height="24.69" class="down-body"/>
<line x1="189.36" y1="742.44" x2="189.36" y2="766.44" class="up-wick"/>
<rect x="185.36" y="747.35" width="8.00" height="18.86" class="up-body"/>
<line x1="207.73" y1="738.20" x2="207.73" y2="765.99" class="down-wick"/>
<rect x="203.73" y="747.32" width="8.00" height="14.40" class="down-body"/>
<line x1="226.09" y1="755.26" x2="226.09" y2="772.57" class="up-wick"/>
<rect x="222.09" y="757.73" width="8.00" height="3.99" class="up-body"/>
<line x1="244.45" y1="740.33" x2="244.45" y2="757.92" class="up-wick"/>
<rect x="240.45" y="743.25" width="8.00" height="14.48" class="up-body"/>
<line x1="262.82" y1="739.70" x2="262.82" y2="747.99" class="down-wick"/>
<rect x="258.82" y="743.25" width="8.00" height="2.61" class="down-body"/>
<line x1="281.18" y1="741.08" x2="281.18" y2="750.04" class="up-wick"/>
<rect x="277.18" y="745.49" width="8.00" height="1.00" class="up-body"/>
<line x1="299.55" y1="745.02" x2="299.55" y2="757.28" class="down-wick"/>
<rect x="295.55" y="745.49" width="8.00" height="4.94" class="down-body"/>
<line x1="317.91" y1="729.43" x2="317.91" y2="757.64" class="up-wick"/>
<rect x="313.91" y="739.64" width="8.00" height="10.79" class="up-body"/>
<line x1="336.27" y1="733.26" x2="336.27" y2="747.60" class="down-wick"/>
<rect x="332.27" y="739.64" width="8.00" height="7.41" class="down-body"/>
<line x1="354.64" y1="740.64" x2="354.64" y2="751.32" class="up-wick"/>
<rect x="350.64" y="746.08" width="8.00" height="1.00" class="up-body"/>
<line x1="373.00" y1="740.36" x2="373.00" y2="751.32" class="down-wick"/>
<rect x="369.00" y="746.08" width="8.00" height="3.63" class="down-body"/>
<line x1="391.36" y1="736.59" x2="391.36" y2="754.32" class="down-wick"/>
<rect x="387.36" y="749.66" width="8.00" height="1.69" class="down-body"/>
<line x1="409.73" y1="741.58" x2="409.73" y2="756.87" class="up-wick"/>
<rect x="405.73" y="742.44" width="8.00" height="8.63" class="up-body"/>
<line x1="428.09" y1="740.97" x2="428.09" y2="749.57" class="down-wick"/>
<rect x="424.09" y="742.44" width="8.00" height="4.80" class="down-body"/>
<line x1="446.45" y1="744.83" x2="446.45" y2="755.06" class="down-wick"/>
<rect x="442.45" y="747.24" width="8.00" height="1.17" class="down-body"/>
<line x1="464.82" y1="748.24" x2="464.82" y2="762.11" class="down-wick"/>
<rect x="460.82" y="748.38" width="8.00" height="2.30" class="down-body"/>
<line x1="483.18" y1="748.41" x2="483.18" y2="762.39" class="down-wick"/>
<rect x="479.18" y="750.68" width="8.00" height="11.40" class="down-body"/>
<line x1="501.55" y1="745.63" x2="501.55" y2="762.08" class="up-wick"/>
<rect x="497.55" y="748.82" width="8.00" height="13.26" class="up-body"/>
<line x1="519.91" y1="733.09" x2="519.91" y2="774.76" class="up-wick"/>
<rect x="515.91" y="735.62" width="8.00" height="13.20" class="up-body"/>
<line x1="538.27" y1="715.95" x2="538.27" y2="741.53" class="up-wick"/>
<rect x="534.27" y="733.15" width="8.00" height="2.69" class="up-body"/>
<line x1="556.64" y1="722.97" x2="556.64" y2="738.67" class="up-wick"/>
<rect x="552.64" y="731.21" width="8.00" height="1.89" class="up-body"/>
<line x1="575.00" y1="727.88" x2="575.00" y2="756.76" class="down-wick"/>
<rect x="571.00" y="731.51" width="8.00" height="22.22" class="down-body"/>
<line x1="593.36" y1="710.35" x2="593.36" y2="756.15" class="up-wick"/>
<rect x="589.36" y="736.06" width="8.00" height="17.67" class="up-body"/>
<line x1="611.73" y1="723.05" x2="611.73" y2="742.19" class="up-wick"/>
<rect x="607.73" y="734.43" width="8.00" height="1.64" class="up-body"/>
<line x1="630.09" y1="698.67" x2="630.09" y2="744.08" class="up-wick"/>
<rect x="626.09" y="704.11" width="8.00" height="30.32" class="up-body"/>
<line x1="648.45" y1="685.30" x2="648.45" y2="708.63" class="down-wick"/>
<rect x="644.45" y="704.14" width="8.00" height="1.55" class="down-body"/>
<line x1="666.82" y1="662.64" x2="666.82" y2="706.41" class="up-wick"/>
<rect x="662.82" y="664.05" width="8.00" height="41.64" class="up-body"/>
<line x1="685.18" y1="609.24" x2="685.18" y2="667.69" class="up-wick"/>
<rect x="681.18" y="620.00" width="8.00" height="44.05" class="up-body"/>
<line x1="703.55" y1="610.85" x2="703.55" y2="649.19" class="down-wick"/>
<rect x="699.55" y="620.00" width="8.00" height="28.77" class="down-body"/>
<line x1="721.91" y1="646.38" x2="721.91" y2="667.63" class="down-wick"/>
<rect x="717.91" y="648.77" width="8.00" height="5.58" class="down-body"/>
<line x1="740.27" y1="638.12" x2="740.27" y2="668.74" class="down-wick"/>
<rect x="736.27" y="654.34" width="8.00" height="2.33" class="down-body"/>
<line x1="758.64" y1="629.19" x2="758.64" y2="658.98" class="up-wick"/>
<rect x="754.64" y="639.03" width="8.00" height="17.64" class="up-body"/>
<line x1="777.00" y1="627.22" x2="777.00" y2="648.44" class="down-wick"/>
<rect x="773.00" y="639.03" width="8.00" height="5.77" class="down-body"/>
<line x1="795.36" y1="634.93" x2="795.36" y2="647.91" class="down-wick"/>
<rect x="791.36" y="644.80" width="8.00" height="1.00" class="down-body"/>
<line x1="813.73" y1="638.89" x2="813.73" y2="653.96" class="down-wick"/>
<rect x="809.73" y="645.30" width="8.00" height="3.63" class="down-body"/>
<line x1="832.09" y1="640.78" x2="832.09" y2="657.40" class="up-wick"/>
<rect x="828.09" y="648.44" width="8.00" height="1.00" class="up-body"/>
<line x1="850.45" y1="639.20" x2="850.45" y2="655.12" class="down-wick"/>
<rect x="846.45" y="648.44" width="8.00" height="5.46" class="down-body"/>
<line x1="868.82" y1="651.29" x2="868.82" y2="681.45" class="down-wick"/>
<rect x="864.82" y="653.90" width="8.00" height="18.22" class="down-body"/>
<line x1="887.18" y1="669.41" x2="887.18" y2="708.38" class="down-wick"/>
<rect x="883.18" y="672.10" width="8.00" height="30.35" class="down-body"/>
<line x1="905.55" y1="690.24" x2="905.55" y2="717.23" class="down-wick"/>
<rect x="901.55" y="702.42" width="8.00" height="2.30" class="down-body"/>
<line x1="923.91" y1="698.20" x2="923.91" y2="729.96" class="down-wick"/>
<rect x="919.91" y="704.66" width="8.00" height="16.20" class="down-body"/>
<line x1="942.27" y1="709.10" x2="942.27" y2="728.82" class="down-wick"/>
<rect x="938.27" y="720.86" width="8.00" height="7.38" class="down-body"/>
<line x1="960.64" y1="725.30" x2="960.64" y2="753.43" class="down-wick"/>
<rect x="956.64" y="728.24" width="8.00" height="10.21" class="down-body"/>
<line x1="979.00" y1="725.86" x2="979.00" y2="751.74" class="up-wick"/>
<rect x="975.00" y="727.46" width="8.00" height="10.71" class="up-body"/>
<line x1="997.36" y1="715.98" x2="997.36" y2="732.79" class="down-wick"/>
<rect x="993.36" y="727.44" width="8.00" height="2.88" class="down-body"/>
<line x1="1015.73" y1="717.37" x2="1015.73" y2="734.87" class="up-wick"/>
<rect x="1011.73" y="726.85" width="8.00" height="3.47" class="up-body"/>
<line x1="1034.09" y1="706.52" x2="1034.09" y2="730.49" class="up-wick"/>
<rect x="1030.09" y="707.82" width="8.00" height="18.17" class="up-body"/>
<line x1="1052.45" y1="702.39" x2="1052.45" y2="718.95" class="up-wick"/>
<rect x="1048.45" y="703.28" width="8.00" height="4.55" class="up-body"/>
<line x1="1070.82" y1="699.92" x2="1070.82" y2="722.22" class="down-wick"/>
<rect x="1066.82" y="703.28" width="8.00" height="11.62" class="down-body"/>
<line x1="70" y1="749.63" x2="1080" y2="749.63" class="number-line"/>
<text x="1076" y="745.63" text-anchor="end" class="level-label">round 5090.00</text>
<line x1="70" y1="749.63" x2="1080" y2="749.63" class="entry-line"/>
<text x="1076" y="745.63" text-anchor="end" class="level-label">entry level 5090.00</text>
<text x="70" y="806" class="axis-label">2026-03-09 05:00:00+00:00 to 2026-03-09 09:30:00+00:00</text>
<text x="1080" y="806" text-anchor="end" class="axis-label">5076.17 - 5145.38</text>
<text x="70" y="832" class="panel-title">M1 execution window</text>
<rect x="70" y="846" width="1010" height="192" class="plot-bg"/>
<line x1="73.71" y1="972.44" x2="73.71" y2="987.41" class="up-wick"/>
<rect x="71.30" y="982.86" width="4.83" height="3.68" class="up-body"/>
<line x1="81.14" y1="987.38" x2="81.14" y2="996.51" class="up-wick"/>
<rect x="78.73" y="989.82" width="4.83" height="5.36" class="up-body"/>
<line x1="88.57" y1="978.23" x2="88.57" y2="996.40" class="down-wick"/>
<rect x="86.15" y="979.88" width="4.83" height="13.23" class="down-body"/>
<line x1="95.99" y1="987.07" x2="95.99" y2="999.96" class="down-wick"/>
<rect x="93.58" y="988.25" width="4.83" height="3.73" class="down-body"/>
<line x1="103.42" y1="988.90" x2="103.42" y2="1000.19" class="down-wick"/>
<rect x="101.01" y="991.93" width="4.83" height="7.27" class="down-body"/>
<line x1="110.85" y1="998.67" x2="110.85" y2="1015.94" class="down-wick"/>
<rect x="108.43" y="999.06" width="4.83" height="6.46" class="down-body"/>
<line x1="118.27" y1="994.82" x2="118.27" y2="1010.24" class="down-wick"/>
<rect x="115.86" y="994.99" width="4.83" height="9.60" class="down-body"/>
<line x1="125.70" y1="1000.80" x2="125.70" y2="1012.66" class="down-wick"/>
<rect x="123.28" y="1007.32" width="4.83" height="1.00" class="down-body"/>
<line x1="133.12" y1="993.59" x2="133.12" y2="1003.08" class="down-wick"/>
<rect x="130.71" y="995.44" width="4.83" height="4.52" class="down-body"/>
<line x1="140.55" y1="982.52" x2="140.55" y2="996.09" class="up-wick"/>
<rect x="138.14" y="983.22" width="4.83" height="11.29" class="up-body"/>
<line x1="147.98" y1="984.38" x2="147.98" y2="990.61" class="up-wick"/>
<rect x="145.56" y="986.57" width="4.83" height="2.53" class="up-body"/>
<line x1="155.40" y1="977.50" x2="155.40" y2="984.04" class="down-wick"/>
<rect x="152.99" y="980.64" width="4.83" height="1.00" class="down-body"/>
<line x1="162.83" y1="983.51" x2="162.83" y2="993.45" class="down-wick"/>
<rect x="160.42" y="987.61" width="4.83" height="3.68" class="down-body"/>
<line x1="170.26" y1="968.26" x2="170.26" y2="980.22" class="up-wick"/>
<rect x="167.84" y="971.43" width="4.83" height="8.23" class="up-body"/>
<line x1="177.68" y1="970.45" x2="177.68" y2="983.90" class="down-wick"/>
<rect x="175.27" y="970.45" width="4.83" height="13.45" class="down-body"/>
<line x1="185.11" y1="999.82" x2="185.11" y2="1016.76" class="up-wick"/>
<rect x="182.70" y="1001.42" width="4.83" height="15.11" class="up-body"/>
<line x1="192.54" y1="992.46" x2="192.54" y2="1006.20" class="down-wick"/>
<rect x="190.12" y="996.84" width="4.83" height="5.14" class="down-body"/>
<line x1="199.96" y1="994.65" x2="199.96" y2="1003.92" class="up-wick"/>
<rect x="197.55" y="997.43" width="4.83" height="6.07" class="up-body"/>
<line x1="207.39" y1="989.77" x2="207.39" y2="994.32" class="up-wick"/>
<rect x="204.98" y="990.08" width="4.83" height="4.07" class="up-body"/>
<line x1="214.82" y1="991.76" x2="214.82" y2="1012.99" class="down-wick"/>
<rect x="212.40" y="993.53" width="4.83" height="18.67" class="down-body"/>
<line x1="222.24" y1="1009.76" x2="222.24" y2="1022.96" class="down-wick"/>
<rect x="219.83" y="1011.98" width="4.83" height="6.74" class="down-body"/>
<line x1="229.67" y1="1005.44" x2="229.67" y2="1013.75" class="down-wick"/>
<rect x="227.26" y="1009.93" width="4.83" height="2.86" class="down-body"/>
<line x1="237.10" y1="1006.08" x2="237.10" y2="1014.06" class="down-wick"/>
<rect x="234.68" y="1007.57" width="4.83" height="1.00" class="down-body"/>
<line x1="244.52" y1="993.56" x2="244.52" y2="998.56" class="up-wick"/>
<rect x="242.11" y="997.77" width="4.83" height="1.00" class="up-body"/>
<line x1="251.95" y1="992.77" x2="251.95" y2="999.82" class="up-wick"/>
<rect x="249.53" y="994.40" width="4.83" height="3.79" class="up-body"/>
<line x1="259.38" y1="990.75" x2="259.38" y2="997.57" class="up-wick"/>
<rect x="256.96" y="992.69" width="4.83" height="1.00" class="up-body"/>
<line x1="266.80" y1="990.36" x2="266.80" y2="994.60" class="up-wick"/>
<rect x="264.39" y="991.42" width="4.83" height="1.00" class="up-body"/>
<line x1="274.23" y1="993.45" x2="274.23" y2="998.08" class="up-wick"/>
<rect x="271.81" y="995.92" width="4.83" height="1.32" class="up-body"/>
<line x1="281.65" y1="991.09" x2="281.65" y2="998.50" class="up-wick"/>
<rect x="279.24" y="991.96" width="4.83" height="6.26" class="up-body"/>
<line x1="289.08" y1="993.03" x2="289.08" y2="996.45" class="up-wick"/>
<rect x="286.67" y="993.98" width="4.83" height="1.00" class="up-body"/>
<line x1="296.51" y1="995.08" x2="296.51" y2="999.74" class="down-wick"/>
<rect x="294.09" y="995.55" width="4.83" height="3.20" class="down-body"/>
<line x1="303.93" y1="996.82" x2="303.93" y2="1002.91" class="up-wick"/>
<rect x="301.52" y="998.78" width="4.83" height="4.10" class="up-body"/>
<line x1="311.36" y1="999.79" x2="311.36" y2="1007.49" class="up-wick"/>
<rect x="308.95" y="1000.55" width="4.83" height="5.87" class="up-body"/>
<line x1="318.79" y1="998.42" x2="318.79" y2="1003.89" class="up-wick"/>
<rect x="316.37" y="998.42" width="4.83" height="5.20" class="up-body"/>
<line x1="326.21" y1="979.29" x2="326.21" y2="987.91" class="up-wick"/>
<rect x="323.80" y="983.39" width="4.83" height="2.36" class="up-body"/>
<line x1="333.64" y1="983.17" x2="333.64" y2="991.06" class="up-wick"/>
<rect x="331.23" y="988.28" width="4.83" height="1.35" class="up-body"/>
<line x1="341.07" y1="984.54" x2="341.07" y2="991.45" class="up-wick"/>
<rect x="338.65" y="989.01" width="4.83" height="2.44" class="up-body"/>
<line x1="348.49" y1="993.11" x2="348.49" y2="997.69" class="down-wick"/>
<rect x="346.08" y="993.11" width="4.83" height="4.02" class="down-body"/>
<line x1="355.92" y1="990.64" x2="355.92" y2="997.52" class="up-wick"/>
<rect x="353.51" y="995.30" width="4.83" height="1.00" class="up-body"/>
<line x1="363.35" y1="995.19" x2="363.35" y2="999.18" class="up-wick"/>
<rect x="360.93" y="996.79" width="4.83" height="1.12" class="up-body"/>
<line x1="370.77" y1="990.36" x2="370.77" y2="996.76" class="up-wick"/>
<rect x="368.36" y="992.32" width="4.83" height="3.82" class="up-body"/>
<line x1="378.20" y1="993.84" x2="378.20" y2="1000.86" class="up-wick"/>
<rect x="375.78" y="993.84" width="4.83" height="3.62" class="up-body"/>
<line x1="385.62" y1="993.00" x2="385.62" y2="1001.45" class="down-wick"/>
<rect x="383.21" y="993.00" width="4.83" height="6.82" class="down-body"/>
<line x1="393.05" y1="990.39" x2="393.05" y2="994.71" class="up-wick"/>
<rect x="390.64" y="991.85" width="4.83" height="2.53" class="up-body"/>
<line x1="400.48" y1="990.25" x2="400.48" y2="1001.96" class="down-wick"/>
<rect x="398.06" y="990.25" width="4.83" height="11.18" class="down-body"/>
<line x1="407.90" y1="998.61" x2="407.90" y2="1007.07" class="down-wick"/>
<rect x="405.49" y="1001.20" width="4.83" height="5.28" class="down-body"/>
<line x1="415.33" y1="994.49" x2="415.33" y2="998.67" class="down-wick"/>
<rect x="412.92" y="996.84" width="4.83" height="1.00" class="down-body"/>
<line x1="422.76" y1="991.59" x2="422.76" y2="996.11" class="up-wick"/>
<rect x="420.34" y="992.46" width="4.83" height="2.22" class="up-body"/>
<line x1="430.18" y1="991.65" x2="430.18" y2="998.47" class="down-wick"/>
<rect x="427.77" y="992.35" width="4.83" height="1.00" class="down-body"/>
<line x1="437.61" y1="990.98" x2="437.61" y2="997.63" class="down-wick"/>
<rect x="435.20" y="993.36" width="4.83" height="2.75" class="down-body"/>
<line x1="445.04" y1="995.92" x2="445.04" y2="999.06" class="down-wick"/>
<rect x="442.62" y="997.32" width="4.83" height="1.04" class="down-body"/>
<line x1="452.46" y1="995.36" x2="452.46" y2="997.91" class="down-wick"/>
<rect x="450.05" y="996.79" width="4.83" height="1.00" class="down-body"/>
<line x1="459.89" y1="995.89" x2="459.89" y2="1005.24" class="up-wick"/>
<rect x="457.48" y="998.50" width="4.83" height="1.00" class="up-body"/>
<line x1="467.32" y1="1004.29" x2="467.32" y2="1012.37" class="down-wick"/>
<rect x="464.90" y="1005.89" width="4.83" height="2.36" class="down-body"/>
<line x1="474.74" y1="1001.09" x2="474.74" y2="1010.89" class="up-wick"/>
<rect x="472.33" y="1005.77" width="4.83" height="1.71" class="up-body"/>
<line x1="482.17" y1="998.50" x2="482.17" y2="1002.80" class="up-wick"/>
<rect x="479.76" y="999.46" width="4.83" height="1.35" class="up-body"/>
<line x1="489.60" y1="1001.96" x2="489.60" y2="1009.68" class="up-wick"/>
<rect x="487.18" y="1002.77" width="4.83" height="3.40" class="up-body"/>
<line x1="497.02" y1="1006.90" x2="497.02" y2="1012.66" class="down-wick"/>
<rect x="494.61" y="1008.70" width="4.83" height="3.65" class="down-body"/>
<line x1="504.45" y1="1003.64" x2="504.45" y2="1011.48" class="up-wick"/>
<rect x="502.03" y="1004.71" width="4.83" height="3.62" class="up-body"/>
<line x1="511.88" y1="999.91" x2="511.88" y2="1004.15" class="down-wick"/>
<rect x="509.46" y="1000.41" width="4.83" height="3.57" class="down-body"/>
<line x1="519.30" y1="997.80" x2="519.30" y2="1012.35" class="down-wick"/>
<rect x="516.89" y="998.92" width="4.83" height="12.47" class="down-body"/>
<line x1="526.73" y1="1017.40" x2="526.73" y2="1024.76" class="up-wick"/>
<rect x="524.31" y="1019.51" width="4.83" height="2.42" class="up-body"/>
<line x1="534.15" y1="983.00" x2="534.15" y2="1001.65" class="up-wick"/>
<rect x="531.74" y="985.56" width="4.83" height="15.70" class="up-body"/>
<line x1="541.58" y1="967.55" x2="541.58" y2="982.41" class="up-wick"/>
<rect x="539.17" y="968.62" width="4.83" height="10.45" class="up-body"/>
<line x1="549.01" y1="965.65" x2="549.01" y2="978.87" class="up-wick"/>
<rect x="546.59" y="968.51" width="4.83" height="9.91" class="up-body"/>
<line x1="556.43" y1="978.79" x2="556.43" y2="986.17" class="down-wick"/>
<rect x="554.02" y="983.00" width="4.83" height="1.00" class="down-body"/>
<line x1="563.86" y1="972.75" x2="563.86" y2="980.25" class="up-wick"/>
<rect x="561.45" y="976.34" width="4.83" height="3.48" class="up-body"/>
<line x1="571.29" y1="977.75" x2="571.29" y2="986.96" class="down-wick"/>
<rect x="568.87" y="979.83" width="4.83" height="1.26" class="down-body"/>
<line x1="578.71" y1="981.48" x2="578.71" y2="992.27" class="down-wick"/>
<rect x="576.30" y="981.68" width="4.83" height="3.51" class="down-body"/>
<line x1="586.14" y1="988.84" x2="586.14" y2="998.45" class="down-wick"/>
<rect x="583.73" y="989.09" width="4.83" height="5.64" class="down-body"/>
<line x1="593.57" y1="996.42" x2="593.57" y2="1006.34" class="up-wick"/>
<rect x="591.15" y="997.01" width="4.83" height="6.88" class="up-body"/>
<line x1="600.99" y1="966.40" x2="600.99" y2="985.70" class="up-wick"/>
<rect x="598.58" y="969.24" width="4.83" height="16.12" class="up-body"/>
<line x1="608.42" y1="975.31" x2="608.42" y2="989.01" class="down-wick"/>
<rect x="606.01" y="981.48" width="4.83" height="4.52" class="down-body"/>
<line x1="615.85" y1="980.22" x2="615.85" y2="990.72" class="up-wick"/>
<rect x="613.43" y="981.40" width="4.83" height="7.61" class="up-body"/>
<line x1="623.27" y1="972.83" x2="623.27" y2="987.89" class="up-wick"/>
<rect x="620.86" y="984.91" width="4.83" height="1.32" class="up-body"/>
<line x1="630.70" y1="972.44" x2="630.70" y2="994.12" class="up-wick"/>
<rect x="628.28" y="981.99" width="4.83" height="2.36" class="up-body"/>
<line x1="638.12" y1="960.70" x2="638.12" y2="967.47" class="up-wick"/>
<rect x="635.71" y="964.86" width="4.83" height="1.85" class="up-body"/>
<line x1="645.55" y1="948.46" x2="645.55" y2="960.51" class="down-wick"/>
<rect x="643.14" y="951.01" width="4.83" height="2.64" class="down-body"/>
<line x1="652.98" y1="935.96" x2="652.98" y2="947.14" class="down-wick"/>
<rect x="650.56" y="938.69" width="4.83" height="8.40" class="down-body"/>
<line x1="660.40" y1="944.81" x2="660.40" y2="953.51" class="down-wick"/>
<rect x="657.99" y="945.51" width="4.83" height="3.88" class="down-body"/>
<line x1="667.83" y1="947.03" x2="667.83" y2="955.98" class="up-wick"/>
<rect x="665.42" y="948.99" width="4.83" height="6.26" class="up-body"/>
<line x1="675.26" y1="932.28" x2="675.26" y2="950.93" class="up-wick"/>
<rect x="672.84" y="938.77" width="4.83" height="11.06" class="up-body"/>
<line x1="682.68" y1="911.67" x2="682.68" y2="930.80" class="up-wick"/>
<rect x="680.27" y="913.10" width="4.83" height="15.30" class="up-body"/>
<line x1="690.11" y1="887.83" x2="690.11" y2="898.64" class="up-wick"/>
<rect x="687.70" y="888.48" width="4.83" height="8.12" class="up-body"/>
<line x1="697.54" y1="868.20" x2="697.54" y2="885.41" class="up-wick"/>
<rect x="695.12" y="871.85" width="4.83" height="13.56" class="up-body"/>
<line x1="704.96" y1="859.24" x2="704.96" y2="868.65" class="up-wick"/>
<rect x="702.55" y="860.51" width="4.83" height="8.00" class="up-body"/>
<line x1="712.39" y1="879.60" x2="712.39" y2="894.99" class="down-wick"/>
<rect x="709.98" y="879.77" width="4.83" height="11.49" class="down-body"/>
<line x1="719.82" y1="880.95" x2="719.82" y2="898.05" class="down-wick"/>
<rect x="717.40" y="884.96" width="4.83" height="12.67" class="down-body"/>
<line x1="727.24" y1="903.08" x2="727.24" y2="914.03" class="down-wick"/>
<rect x="724.83" y="903.30" width="4.83" height="9.10" class="down-body"/>
<line x1="734.67" y1="901.28" x2="734.67" y2="916.73" class="up-wick"/>
<rect x="732.26" y="902.74" width="4.83" height="10.70" class="up-body"/>
<line x1="742.10" y1="891.99" x2="742.10" y2="905.04" class="up-wick"/>
<rect x="739.68" y="895.61" width="4.83" height="7.67" class="up-body"/>
<line x1="749.52" y1="898.53" x2="749.52" y2="911.36" class="down-wick"/>
<rect x="747.11" y="898.53" width="4.83" height="2.05" class="down-body"/>
<line x1="756.95" y1="905.24" x2="756.95" y2="917.85" class="up-wick"/>
<rect x="754.53" y="905.63" width="4.83" height="8.20" class="up-body"/>
<line x1="764.38" y1="886.37" x2="764.38" y2="897.26" class="up-wick"/>
<rect x="761.96" y="890.61" width="4.83" height="6.46" class="up-body"/>
<line x1="771.80" y1="882.80" x2="771.80" y2="896.39" class="down-wick"/>
<rect x="769.39" y="886.43" width="4.83" height="6.32" class="down-body"/>
<line x1="779.23" y1="882.52" x2="779.23" y2="890.92" class="up-wick"/>
<rect x="776.81" y="885.22" width="4.83" height="2.56" class="up-body"/>
<line x1="786.65" y1="875.81" x2="786.65" y2="888.56" class="up-wick"/>
<rect x="784.24" y="882.77" width="4.83" height="1.15" class="up-body"/>
<line x1="794.08" y1="888.48" x2="794.08" y2="897.29" class="down-wick"/>
<rect x="791.67" y="889.54" width="4.83" height="4.07" class="down-body"/>
<line x1="801.51" y1="885.50" x2="801.51" y2="896.76" class="up-wick"/>
<rect x="799.09" y="888.42" width="4.83" height="4.97" class="up-body"/>
<line x1="808.93" y1="883.62" x2="808.93" y2="891.59" class="down-wick"/>
<rect x="806.52" y="886.96" width="4.83" height="1.66" class="down-body"/>
<line x1="816.36" y1="887.63" x2="816.36" y2="897.63" class="up-wick"/>
<rect x="813.95" y="891.87" width="4.83" height="2.25" class="up-body"/>
<line x1="823.79" y1="891.93" x2="823.79" y2="900.89" class="up-wick"/>
<rect x="821.37" y="896.14" width="4.83" height="3.54" class="up-body"/>
<line x1="831.21" y1="895.36" x2="831.21" y2="900.97" class="up-wick"/>
<rect x="828.80" y="897.80" width="4.83" height="1.32" class="up-body"/>
<line x1="838.64" y1="889.54" x2="838.64" y2="896.39" class="up-wick"/>
<rect x="836.23" y="895.50" width="4.83" height="1.00" class="up-body"/>
<line x1="846.07" y1="896.34" x2="846.07" y2="906.31" class="up-wick"/>
<rect x="843.65" y="897.01" width="4.83" height="8.14" class="up-body"/>
<line x1="853.49" y1="887.94" x2="853.49" y2="897.38" class="up-wick"/>
<rect x="851.08" y="896.79" width="4.83" height="1.00" class="up-body"/>
<line x1="860.92" y1="893.81" x2="860.92" y2="903.70" class="down-wick"/>
<rect x="858.51" y="895.83" width="4.83" height="3.12" class="down-body"/>
<line x1="868.35" y1="895.92" x2="868.35" y2="904.06" class="down-wick"/>
<rect x="865.93" y="896.65" width="4.83" height="6.18" class="down-body"/>
<line x1="875.77" y1="907.49" x2="875.77" y2="918.19" class="down-wick"/>
<rect x="873.36" y="907.63" width="4.83" height="9.66" class="down-body"/>
<line x1="883.20" y1="920.60" x2="883.20" y2="930.71" class="down-wick"/>
<rect x="880.78" y="921.98" width="4.83" height="4.55" class="down-body"/>
<line x1="890.62" y1="918.52" x2="890.62" y2="929.48" class="down-wick"/>
<rect x="888.21" y="921.25" width="4.83" height="1.32" class="down-body"/>
<line x1="898.05" y1="922.96" x2="898.05" y2="928.44" class="up-wick"/>
<rect x="895.64" y="924.20" width="4.83" height="1.66" class="up-body"/>
<line x1="905.48" y1="944.27" x2="905.48" y2="957.98" class="up-wick"/>
<rect x="903.06" y="951.97" width="4.83" height="2.27" class="up-body"/>
<line x1="912.90" y1="942.22" x2="912.90" y2="954.47" class="down-wick"/>
<rect x="910.49" y="944.44" width="4.83" height="5.70" class="down-body"/>
<line x1="920.33" y1="947.20" x2="920.33" y2="962.42" class="down-wick"/>
<rect x="917.92" y="948.46" width="4.83" height="12.02" class="down-body"/>
<line x1="927.76" y1="953.01" x2="927.76" y2="962.75" class="up-wick"/>
<rect x="925.34" y="954.02" width="4.83" height="1.00" class="up-body"/>
<line x1="935.18" y1="961.38" x2="935.18" y2="970.19" class="down-wick"/>
<rect x="932.77" y="964.33" width="4.83" height="3.26" class="down-body"/>
<line x1="942.61" y1="967.89" x2="942.61" y2="979.83" class="down-wick"/>
<rect x="940.20" y="969.83" width="4.83" height="1.00" class="down-body"/>
<line x1="950.04" y1="963.31" x2="950.04" y2="970.81" class="up-wick"/>
<rect x="947.62" y="963.31" width="4.83" height="6.99" class="up-body"/>
<line x1="957.46" y1="965.42" x2="957.46" y2="973.54" class="up-wick"/>
<rect x="955.05" y="969.18" width="4.83" height="1.00" class="up-body"/>
<line x1="964.89" y1="978.00" x2="964.89" y2="991.87" class="down-wick"/>
<rect x="962.48" y="978.09" width="4.83" height="2.16" class="down-body"/>
<line x1="972.32" y1="975.90" x2="972.32" y2="988.98" class="up-wick"/>
<rect x="969.90" y="977.27" width="4.83" height="5.98" class="up-body"/>
<line x1="979.74" y1="983.51" x2="979.74" y2="997.32" class="up-wick"/>
<rect x="977.33" y="988.42" width="4.83" height="8.68" class="up-body"/>
<line x1="987.17" y1="983.42" x2="987.17" y2="990.16" class="up-wick"/>
<rect x="984.76" y="986.06" width="4.83" height="2.05" class="up-body"/>
<line x1="994.60" y1="977.13" x2="994.60" y2="989.12" class="up-wick"/>
<rect x="992.18" y="981.37" width="4.83" height="5.22" class="up-body"/>
<line x1="1002.02" y1="973.06" x2="1002.02" y2="980.89" class="up-wick"/>
<rect x="999.61" y="974.29" width="4.83" height="2.98" class="up-body"/>
<line x1="1009.45" y1="965.67" x2="1009.45" y2="975.45" class="down-wick"/>
<rect x="1007.03" y="972.39" width="4.83" height="3.06" class="down-body"/>
<line x1="1016.88" y1="971.63" x2="1016.88" y2="981.85" class="down-wick"/>
<rect x="1014.46" y="975.25" width="4.83" height="4.94" class="down-body"/>
<line x1="1024.30" y1="974.91" x2="1024.30" y2="981.43" class="up-wick"/>
<rect x="1021.89" y="975.19" width="4.83" height="2.81" class="up-body"/>
<line x1="1031.73" y1="967.08" x2="1031.73" y2="979.21" class="down-wick"/>
<rect x="1029.31" y="978.03" width="4.83" height="1.00" class="down-body"/>
<line x1="1039.15" y1="968.12" x2="1039.15" y2="976.04" class="up-wick"/>
<rect x="1036.74" y="975.42" width="4.83" height="1.00" class="up-body"/>
<line x1="1046.58" y1="971.43" x2="1046.58" y2="976.51" class="down-wick"/>
<rect x="1044.17" y="973.17" width="4.83" height="1.00" class="down-body"/>
<line x1="1054.01" y1="956.10" x2="1054.01" y2="977.13" class="up-wick"/>
<rect x="1051.59" y="957.42" width="4.83" height="19.57" class="up-body"/>
<line x1="1061.43" y1="960.82" x2="1061.43" y2="968.68" class="down-wick"/>
<rect x="1059.02" y="962.02" width="4.83" height="1.00" class="down-body"/>
<line x1="1068.86" y1="953.60" x2="1068.86" y2="958.29" class="down-wick"/>
<rect x="1066.45" y="955.14" width="4.83" height="1.49" class="down-body"/>
<line x1="1076.29" y1="949.41" x2="1076.29" y2="962.89" class="down-wick"/>
<rect x="1073.87" y="952.81" width="4.83" height="9.97" class="down-body"/>
<line x1="70" y1="999.74" x2="1080" y2="999.74" class="number-line"/>
<text x="1076" y="995.74" text-anchor="end" class="level-label">round 5090.00</text>
<line x1="70" y1="999.74" x2="1080" y2="999.74" class="entry-line"/>
<text x="1076" y="995.74" text-anchor="end" class="level-label">entry level 5090.00</text>
<text x="70" y="1056" class="axis-label">2026-03-09 05:00:00+00:00 to 2026-03-09 09:30:00+00:00</text>
<text x="1080" y="1056" text-anchor="end" class="axis-label">5076.37 - 5144.75</text>
</svg>