<svg xmlns="http://www.w3.org/2000/svg" width="1120" height="1054" viewBox="0 0 1120 1054">
<style>
text{font-family:Arial,Helvetica,sans-serif}.title{font-size:21px;font-weight:700;fill:#1f2937}.subtitle{font-size:12px;fill:#4b5563}.panel-title{font-size:15px;font-weight:700;fill:#111827}.muted{font-size:13px;fill:#6b7280}.plot-bg{fill:#f8fafc;stroke:#cbd5e1;stroke-width:1}.up-body{fill:#15803d;stroke:#14532d;stroke-width:.8}.down-body{fill:#b91c1c;stroke:#7f1d1d;stroke-width:.8}.up-wick{stroke:#14532d;stroke-width:1}.down-wick{stroke:#7f1d1d;stroke-width:1}.sweep-line{stroke:#7c3aed;stroke-width:1.6;stroke-dasharray:6 4}.number-line{stroke:#0f766e;stroke-width:1.4;stroke-dasharray:3 4}.entry-line{stroke:#2563eb;stroke-width:1.4}.sl-line{stroke:#dc2626;stroke-width:1.4}.tp-line{stroke:#16a34a;stroke-width:1.4}.level-label,.axis-label{font-size:11px;fill:#374151}
</style>
<text x="28" y="28" class="title">Adelin v2 visual review sample sample_249</text>
<text x="28" y="48" class="subtitle">Candidate windows are for visual labeling only and are not trade signals.</text>
<text x="560" y="48" class="subtitle" text-anchor="middle">NUMBER_THEORY_LEVEL_NEAR | ROUND_LEVEL_ENTRY_METADATA_AVAILABLE</text>
<text x="70" y="82" class="panel-title">H1 liquidity context</text>
<rect x="70" y="96" width="1010" height="192" class="plot-bg"/>
<line x1="81.48" y1="109.24" x2="81.48" y2="121.02" class="down-wick"/>
<rect x="77.48" y="114.53" width="8.00" height="4.22" class="down-body"/>
<line x1="104.43" y1="115.83" x2="104.43" y2="124.12" class="down-wick"/>
<rect x="100.43" y="118.77" width="8.00" height="3.67" class="down-body"/>
<line x1="127.39" y1="179.62" x2="127.39" y2="215.72" class="up-wick"/>
<rect x="123.39" y="195.03" width="8.00" height="8.42" class="up-body"/>
<line x1="150.34" y1="194.95" x2="150.34" y2="236.06" class="down-wick"/>
<rect x="146.34" y="195.03" width="8.00" height="23.46" class="down-body"/>
<line x1="173.30" y1="199.93" x2="173.30" y2="228.56" class="up-wick"/>
<rect x="169.30" y="201.69" width="8.00" height="16.80" class="up-body"/>
<line x1="196.25" y1="161.12" x2="196.25" y2="202.75" class="up-wick"/>
<rect x="192.25" y="167.60" width="8.00" height="34.09" class="up-body"/>
<line x1="219.20" y1="166.30" x2="219.20" y2="181.69" class="down-wick"/>
<rect x="215.20" y="167.60" width="8.00" height="10.04" class="down-body"/>
<line x1="242.16" y1="176.59" x2="242.16" y2="185.97" class="down-wick"/>
<rect x="238.16" y="177.63" width="8.00" height="6.31" class="down-body"/>
<line x1="265.11" y1="179.29" x2="265.11" y2="187.57" class="down-wick"/>
<rect x="261.11" y="183.72" width="8.00" height="2.18" class="down-body"/>
<line x1="288.07" y1="178.90" x2="288.07" y2="194.77" class="up-wick"/>
<rect x="284.07" y="183.97" width="8.00" height="1.91" class="up-body"/>
<line x1="311.02" y1="179.52" x2="311.02" y2="190.61" class="up-wick"/>
<rect x="307.02" y="179.52" width="8.00" height="4.45" class="up-body"/>
<line x1="333.98" y1="169.53" x2="333.98" y2="187.80" class="down-wick"/>
<rect x="329.98" y="179.53" width="8.00" height="5.49" class="down-body"/>
<line x1="356.93" y1="178.75" x2="356.93" y2="188.50" class="up-wick"/>
<rect x="352.93" y="178.78" width="8.00" height="6.24" class="up-body"/>
<line x1="379.89" y1="177.14" x2="379.89" y2="191.01" class="down-wick"/>
<rect x="375.89" y="178.78" width="8.00" height="4.37" class="down-body"/>
<line x1="402.84" y1="174.12" x2="402.84" y2="184.78" class="up-wick"/>
<rect x="398.84" y="179.13" width="8.00" height="4.02" class="up-body"/>
<line x1="425.80" y1="164.61" x2="425.80" y2="188.04" class="up-wick"/>
<rect x="421.80" y="164.94" width="8.00" height="14.19" class="up-body"/>
<line x1="448.75" y1="153.73" x2="448.75" y2="175.87" class="down-wick"/>
<rect x="444.75" y="164.94" width="8.00" height="6.81" class="down-body"/>
<line x1="471.70" y1="149.66" x2="471.70" y2="175.42" class="up-wick"/>
<rect x="467.70" y="157.74" width="8.00" height="14.00" class="up-body"/>
<line x1="494.66" y1="148.39" x2="494.66" y2="182.25" class="down-wick"/>
<rect x="490.66" y="157.74" width="8.00" height="12.14" class="down-body"/>
<line x1="517.61" y1="165.91" x2="517.61" y2="181.89" class="down-wick"/>
<rect x="513.61" y="169.88" width="8.00" height="5.51" class="down-body"/>
<line x1="540.57" y1="168.93" x2="540.57" y2="182.00" class="up-wick"/>
<rect x="536.57" y="169.73" width="8.00" height="5.65" class="up-body"/>
<line x1="563.52" y1="163.32" x2="563.52" y2="171.31" class="up-wick"/>
<rect x="559.52" y="168.56" width="8.00" height="1.17" class="up-body"/>
<line x1="586.48" y1="159.06" x2="586.48" y2="168.56" class="up-wick"/>
<rect x="582.48" y="161.47" width="8.00" height="7.10" class="up-body"/>
<line x1="609.43" y1="154.41" x2="609.43" y2="164.85" class="up-wick"/>
<rect x="605.43" y="161.26" width="8.00" height="1.00" class="up-body"/>
<line x1="632.39" y1="142.94" x2="632.39" y2="155.64" class="up-wick"/>
<rect x="628.39" y="148.38" width="8.00" height="7.09" class="up-body"/>
<line x1="655.34" y1="144.43" x2="655.34" y2="156.00" class="down-wick"/>
<rect x="651.34" y="148.38" width="8.00" height="5.68" class="down-body"/>
<line x1="678.30" y1="145.35" x2="678.30" y2="158.75" class="up-wick"/>
<rect x="674.30" y="151.91" width="8.00" height="2.04" class="up-body"/>
<line x1="701.25" y1="151.31" x2="701.25" y2="169.52" class="down-wick"/>
<rect x="697.25" y="151.91" width="8.00" height="13.29" class="down-body"/>
<line x1="724.20" y1="165.01" x2="724.20" y2="172.69" class="down-wick"/>
<rect x="720.20" y="165.21" width="8.00" height="3.24" class="down-body"/>
<line x1="747.16" y1="167.64" x2="747.16" y2="182.27" class="down-wick"/>
<rect x="743.16" y="168.45" width="8.00" height="9.42" class="down-body"/>
<line x1="770.11" y1="177.23" x2="770.11" y2="186.03" class="down-wick"/>
<rect x="766.11" y="177.87" width="8.00" height="7.74" class="down-body"/>
<line x1="793.07" y1="177.98" x2="793.07" y2="191.26" class="down-wick"/>
<rect x="789.07" y="185.61" width="8.00" height="4.77" class="down-body"/>
<line x1="816.02" y1="184.13" x2="816.02" y2="199.69" class="down-wick"/>
<rect x="812.02" y="190.38" width="8.00" height="5.23" class="down-body"/>
<line x1="838.98" y1="182.22" x2="838.98" y2="201.52" class="up-wick"/>
<rect x="834.98" y="188.59" width="8.00" height="7.44" class="up-body"/>
<line x1="861.93" y1="181.75" x2="861.93" y2="199.51" class="down-wick"/>
<rect x="857.93" y="188.59" width="8.00" height="1.00" class="down-body"/>
<line x1="884.89" y1="185.09" x2="884.89" y2="193.23" class="down-wick"/>
<rect x="880.89" y="188.66" width="8.00" height="2.16" class="down-body"/>
<line x1="907.84" y1="184.29" x2="907.84" y2="193.55" class="up-wick"/>
<rect x="903.84" y="184.95" width="8.00" height="5.87" class="up-body"/>
<line x1="930.80" y1="177.06" x2="930.80" y2="198.87" class="up-wick"/>
<rect x="926.80" y="180.24" width="8.00" height="4.71" class="up-body"/>
<line x1="953.75" y1="178.00" x2="953.75" y2="207.35" class="down-wick"/>
<rect x="949.75" y="180.22" width="8.00" height="15.43" class="down-body"/>
<line x1="976.70" y1="180.50" x2="976.70" y2="212.90" class="up-wick"/>
<rect x="972.70" y="195.17" width="8.00" height="1.00" class="up-body"/>
<line x1="999.66" y1="191.92" x2="999.66" y2="248.83" class="down-wick"/>
<rect x="995.66" y="195.15" width="8.00" height="38.87" class="down-body"/>
<line x1="1022.61" y1="216.06" x2="1022.61" y2="244.95" class="up-wick"/>
<rect x="1018.61" y="231.58" width="8.00" height="2.46" class="up-body"/>
<line x1="1045.57" y1="226.36" x2="1045.57" y2="263.90" class="down-wick"/>
<rect x="1041.57" y="231.61" width="8.00" height="29.44" class="down-body"/>
<line x1="1068.52" y1="250.33" x2="1068.52" y2="274.76" class="down-wick"/>
<rect x="1064.52" y="261.05" width="8.00" height="1.00" class="down-body"/>
<line x1="70" y1="165.41" x2="1080" y2="165.41" class="number-line"/>
<text x="1076" y="161.41" text-anchor="end" class="level-label">round 4810.00</text>
<line x1="70" y1="165.41" x2="1080" y2="165.41" class="entry-line"/>
<text x="1076" y="161.41" text-anchor="end" class="level-label">entry level 4810.00</text>
<text x="70" y="306" class="axis-label">2026-04-17 21:00:00+00:00 to 2026-04-21 20:00:00+00:00</text>
<text x="1080" y="306" text-anchor="end" class="axis-label">4683.20 - 4881.80</text>
<text x="70" y="332" class="panel-title">M15 liquidity / reaction context</text>
<rect x="70" y="346" width="1010" height="192" class="plot-bg"/>
<line x1="77.77" y1="494.03" x2="77.77" y2="507.37" class="up-wick"/>
<rect x="73.77" y="499.16" width="8.00" height="4.32" class="up-body"/>
<line x1="93.31" y1="474.08" x2="93.31" y2="524.76" class="down-wick"/>
<rect x="89.31" y="499.16" width="8.00" height="22.23" class="down-body"/>
<line x1="108.85" y1="483.16" x2="108.85" y2="521.39" class="up-wick"/>
<rect x="104.85" y="490.27" width="8.00" height="31.13" class="up-body"/>
<line x1="124.38" y1="480.38" x2="124.38" y2="506.48" class="down-wick"/>
<rect x="120.38" y="490.27" width="8.00" height="1.00" class="down-body"/>
<line x1="139.92" y1="490.82" x2="139.92" y2="511.48" class="down-wick"/>
<rect x="135.92" y="490.98" width="8.00" height="13.68" class="down-body"/>
<line x1="155.46" y1="486.44" x2="155.46" y2="506.42" class="up-wick"/>
<rect x="151.46" y="492.27" width="8.00" height="12.38" class="up-body"/>
<line x1="171.00" y1="476.06" x2="171.00" y2="506.51" class="up-wick"/>
<rect x="167.00" y="476.06" width="8.00" height="16.21" class="up-body"/>
<line x1="186.54" y1="457.13" x2="186.54" y2="480.38" class="up-wick"/>
<rect x="182.54" y="469.85" width="8.00" height="6.24" class="up-body"/>
<line x1="202.08" y1="444.16" x2="202.08" y2="479.61" class="up-wick"/>
<rect x="198.08" y="468.53" width="8.00" height="1.33" class="up-body"/>
<line x1="217.62" y1="465.65" x2="217.62" y2="492.24" class="down-wick"/>
<rect x="213.62" y="468.53" width="8.00" height="1.00" class="down-body"/>
<line x1="233.15" y1="469.05" x2="233.15" y2="502.52" class="down-wick"/>
<rect x="229.15" y="469.05" width="8.00" height="24.58" class="down-body"/>
<line x1="248.69" y1="487.27" x2="248.69" y2="504.75" class="down-wick"/>
<rect x="244.69" y="493.63" width="8.00" height="1.79" class="down-body"/>
<line x1="264.23" y1="485.05" x2="264.23" y2="504.04" class="up-wick"/>
<rect x="260.23" y="486.56" width="8.00" height="8.89" class="up-body"/>
<line x1="279.77" y1="485.14" x2="279.77" y2="497.06" class="up-wick"/>
<rect x="275.77" y="485.54" width="8.00" height="1.02" class="up-body"/>
<line x1="295.31" y1="473.59" x2="295.31" y2="486.22" class="up-wick"/>
<rect x="291.31" y="473.71" width="8.00" height="11.86" class="up-body"/>
<line x1="310.85" y1="468.46" x2="310.85" y2="482.17" class="down-wick"/>
<rect x="306.85" y="473.71" width="8.00" height="1.14" class="down-body"/>
<line x1="326.38" y1="474.79" x2="326.38" y2="487.52" class="down-wick"/>
<rect x="322.38" y="474.98" width="8.00" height="10.65" class="down-body"/>
<line x1="341.92" y1="479.49" x2="341.92" y2="512.78" class="down-wick"/>
<rect x="337.92" y="485.60" width="8.00" height="1.11" class="down-body"/>
<line x1="357.46" y1="470.93" x2="357.46" y2="495.24" class="down-wick"/>
<rect x="353.46" y="486.71" width="8.00" height="1.00" class="down-body"/>
<line x1="373.00" y1="463.25" x2="373.00" y2="492.86" class="up-wick"/>
<rect x="369.00" y="474.95" width="8.00" height="12.72" class="up-body"/>
<line x1="388.54" y1="458.83" x2="388.54" y2="476.93" class="up-wick"/>
<rect x="384.54" y="467.38" width="8.00" height="7.57" class="up-body"/>
<line x1="404.08" y1="461.52" x2="404.08" y2="477.42" class="down-wick"/>
<rect x="400.08" y="467.35" width="8.00" height="10.01" class="down-body"/>
<line x1="419.62" y1="470.47" x2="419.62" y2="478.81" class="up-wick"/>
<rect x="415.62" y="474.83" width="8.00" height="2.53" class="up-body"/>
<line x1="435.15" y1="473.34" x2="435.15" y2="502.12" class="down-wick"/>
<rect x="431.15" y="474.83" width="8.00" height="18.50" class="down-body"/>
<line x1="450.69" y1="489.28" x2="450.69" y2="503.27" class="down-wick"/>
<rect x="446.69" y="493.32" width="8.00" height="4.05" class="down-body"/>
<line x1="466.23" y1="477.94" x2="466.23" y2="499.56" class="up-wick"/>
<rect x="462.23" y="477.94" width="8.00" height="19.42" class="up-body"/>
<line x1="481.77" y1="428.44" x2="481.77" y2="478.07" class="up-wick"/>
<rect x="477.77" y="429.49" width="8.00" height="48.45" class="up-body"/>
<line x1="497.31" y1="421.50" x2="497.31" y2="452.87" class="up-wick"/>
<rect x="493.31" y="427.58" width="8.00" height="1.91" class="up-body"/>
<line x1="512.85" y1="393.70" x2="512.85" y2="448.98" class="down-wick"/>
<rect x="508.85" y="427.58" width="8.00" height="16.27" class="down-body"/>
<line x1="528.38" y1="432.64" x2="528.38" y2="464.42" class="up-wick"/>
<rect x="524.38" y="442.96" width="8.00" height="1.00" class="up-body"/>
<line x1="543.92" y1="435.98" x2="543.92" y2="458.64" class="down-wick"/>
<rect x="539.92" y="442.96" width="8.00" height="8.28" class="down-body"/>
<line x1="559.46" y1="409.51" x2="559.46" y2="462.97" class="up-wick"/>
<rect x="555.46" y="414.39" width="8.00" height="36.81" class="up-body"/>
<line x1="575.00" y1="382.12" x2="575.00" y2="424.24" class="up-wick"/>
<rect x="571.00" y="386.42" width="8.00" height="27.98" class="up-body"/>
<line x1="590.54" y1="380.70" x2="590.54" y2="412.29" class="down-wick"/>
<rect x="586.54" y="386.42" width="8.00" height="6.08" class="down-body"/>
<line x1="606.08" y1="386.14" x2="606.08" y2="409.30" class="down-wick"/>
<rect x="602.08" y="392.38" width="8.00" height="14.11" class="down-body"/>
<line x1="621.62" y1="404.91" x2="621.62" y2="440.24" class="down-wick"/>
<rect x="617.62" y="406.49" width="8.00" height="5.13" class="down-body"/>
<line x1="637.15" y1="378.88" x2="637.15" y2="417.33" class="up-wick"/>
<rect x="633.15" y="390.03" width="8.00" height="21.59" class="up-body"/>
<line x1="652.69" y1="376.63" x2="652.69" y2="429.15" class="down-wick"/>
<rect x="648.69" y="389.60" width="8.00" height="28.19" class="down-body"/>
<line x1="668.23" y1="415.35" x2="668.23" y2="484.80" class="down-wick"/>
<rect x="664.23" y="417.79" width="8.00" height="27.48" class="down-body"/>
<line x1="683.77" y1="439.13" x2="683.77" y2="483.63" class="down-wick"/>
<rect x="679.77" y="445.27" width="8.00" height="21.80" class="down-body"/>
<line x1="699.31" y1="432.58" x2="699.31" y2="480.11" class="up-wick"/>
<rect x="695.31" y="436.69" width="8.00" height="30.39" class="up-body"/>
<line x1="714.85" y1="433.32" x2="714.85" y2="463.03" class="down-wick"/>
<rect x="710.85" y="436.69" width="8.00" height="23.99" class="down-body"/>
<line x1="730.38" y1="456.48" x2="730.38" y2="476.22" class="down-wick"/>
<rect x="726.38" y="460.84" width="8.00" height="2.04" class="down-body"/>
<line x1="745.92" y1="457.13" x2="745.92" y2="479.58" class="down-wick"/>
<rect x="741.92" y="462.84" width="8.00" height="3.64" class="down-body"/>
<line x1="761.46" y1="456.14" x2="761.46" y2="484.00" class="up-wick"/>
<rect x="757.46" y="458.61" width="8.00" height="7.87" class="up-body"/>
<line x1="777.00" y1="447.59" x2="777.00" y2="465.59" class="up-wick"/>
<rect x="773.00" y="455.93" width="8.00" height="2.38" class="up-body"/>
<line x1="792.54" y1="442.25" x2="792.54" y2="456.67" class="up-wick"/>
<rect x="788.54" y="444.81" width="8.00" height="11.12" class="up-body"/>
<line x1="808.08" y1="429.18" x2="808.08" y2="449.84" class="up-wick"/>
<rect x="804.08" y="434.80" width="8.00" height="10.01" class="up-body"/>
<line x1="823.62" y1="426.93" x2="823.62" y2="442.56" class="up-wick"/>
<rect x="819.62" y="430.94" width="8.00" height="3.86" class="up-body"/>
<line x1="839.15" y1="424.34" x2="839.15" y2="446.20" class="down-wick"/>
<rect x="835.15" y="430.94" width="8.00" height="1.82" class="down-body"/>
<line x1="854.69" y1="431.93" x2="854.69" y2="444.38" class="down-wick"/>
<rect x="850.69" y="432.77" width="8.00" height="8.31" class="down-body"/>
<line x1="870.23" y1="412.79" x2="870.23" y2="441.07" class="up-wick"/>
<rect x="866.23" y="414.02" width="8.00" height="27.05" class="up-body"/>
<line x1="885.77" y1="413.99" x2="885.77" y2="425.11" class="down-wick"/>
<rect x="881.77" y="414.05" width="8.00" height="5.96" class="down-body"/>
<line x1="901.31" y1="413.74" x2="901.31" y2="427.83" class="up-wick"/>
<rect x="897.31" y="416.96" width="8.00" height="3.06" class="up-body"/>
<line x1="916.85" y1="410.72" x2="916.85" y2="421.13" class="down-wick"/>
<rect x="912.85" y="416.99" width="8.00" height="1.42" class="down-body"/>
<line x1="932.38" y1="395.87" x2="932.38" y2="418.81" class="up-wick"/>
<rect x="928.38" y="398.77" width="8.00" height="19.64" class="up-body"/>
<line x1="947.92" y1="398.46" x2="947.92" y2="411.52" class="down-wick"/>
<rect x="943.92" y="398.77" width="8.00" height="9.82" class="down-body"/>
<line x1="963.46" y1="407.97" x2="963.46" y2="429.22" class="down-wick"/>
<rect x="959.46" y="408.59" width="8.00" height="17.17" class="down-body"/>
<line x1="979.00" y1="417.64" x2="979.00" y2="427.18" class="up-wick"/>
<rect x="975.00" y="417.73" width="8.00" height="8.03" class="up-body"/>
<line x1="994.54" y1="361.80" x2="994.54" y2="399.79" class="up-wick"/>
<rect x="990.54" y="371.78" width="8.00" height="27.45" class="up-body"/>
<line x1="1010.08" y1="359.24" x2="1010.08" y2="373.29" class="down-wick"/>
<rect x="1006.08" y="371.78" width="8.00" height="1.00" class="down-body"/>
<line x1="1025.62" y1="366.25" x2="1025.62" y2="384.04" class="up-wick"/>
<rect x="1021.62" y="367.24" width="8.00" height="5.43" class="up-body"/>
<line x1="1041.15" y1="363.90" x2="1041.15" y2="383.85" class="down-wick"/>
<rect x="1037.15" y="367.30" width="8.00" height="9.29" class="down-body"/>
<line x1="1056.69" y1="364.00" x2="1056.69" y2="388.02" class="down-wick"/>
<rect x="1052.69" y="376.60" width="8.00" height="5.59" class="down-body"/>
<line x1="1072.23" y1="379.07" x2="1072.23" y2="388.64" class="down-wick"/>
<rect x="1068.23" y="382.19" width="8.00" height="1.00" class="down-body"/>
<line x1="70" y1="431.01" x2="1080" y2="431.01" class="number-line"/>
<text x="1076" y="427.01" text-anchor="end" class="level-label">round 4810.00</text>
<line x1="70" y1="431.01" x2="1080" y2="431.01" class="entry-line"/>
<text x="1076" y="427.01" text-anchor="end" class="level-label">entry level 4810.00</text>
<text x="70" y="556" class="axis-label">2026-04-20 08:15:00+00:00 to 2026-04-21 02:15:00+00:00</text>
<text x="1080" y="556" text-anchor="end" class="axis-label">4775.35 - 4837.53</text>
<text x="70" y="582" class="panel-title">M5 reaction / execution context</text>
<rect x="70" y="596" width="1010" height="192" class="plot-bg"/>
<line x1="79.90" y1="723.09" x2="79.90" y2="745.76" class="down-wick"/>
<rect x="75.90" y="731.26" width="8.00" height="1.97" class="down-body"/>
<line x1="99.71" y1="731.15" x2="99.71" y2="759.10" class="down-wick"/>
<rect x="95.71" y="733.23" width="8.00" height="25.34" class="down-body"/>
<line x1="119.51" y1="727.03" x2="119.51" y2="760.14" class="up-wick"/>
<rect x="115.51" y="735.09" width="8.00" height="23.55" class="up-body"/>
<line x1="139.31" y1="724.30" x2="139.31" y2="765.60" class="down-wick"/>
<rect x="135.31" y="735.03" width="8.00" height="27.43" class="down-body"/>
<line x1="159.12" y1="743.04" x2="159.12" y2="766.47" class="up-wick"/>
<rect x="155.12" y="745.76" width="8.00" height="16.70" class="up-body"/>
<line x1="178.92" y1="735.09" x2="178.92" y2="745.94" class="up-wick"/>
<rect x="174.92" y="741.88" width="8.00" height="3.89" class="up-body"/>
<line x1="198.73" y1="733.52" x2="198.73" y2="774.76" class="down-wick"/>
<rect x="194.73" y="741.88" width="8.00" height="9.69" class="down-body"/>
<line x1="218.53" y1="736.42" x2="218.53" y2="752.89" class="up-wick"/>
<rect x="214.53" y="745.76" width="8.00" height="5.74" class="up-body"/>
<line x1="238.33" y1="722.45" x2="238.33" y2="747.91" class="up-wick"/>
<rect x="234.33" y="727.09" width="8.00" height="18.50" class="up-body"/>
<line x1="258.14" y1="708.53" x2="258.14" y2="732.65" class="down-wick"/>
<rect x="254.14" y="726.51" width="8.00" height="5.16" class="down-body"/>
<line x1="277.94" y1="729.17" x2="277.94" y2="740.19" class="down-wick"/>
<rect x="273.94" y="731.78" width="8.00" height="1.22" class="down-body"/>
<line x1="297.75" y1="706.38" x2="297.75" y2="739.21" class="up-wick"/>
<rect x="293.75" y="722.04" width="8.00" height="10.67" class="up-body"/>
<line x1="317.55" y1="706.03" x2="317.55" y2="723.43" class="up-wick"/>
<rect x="313.55" y="711.83" width="8.00" height="10.21" class="up-body"/>
<line x1="337.35" y1="696.35" x2="337.35" y2="714.50" class="up-wick"/>
<rect x="333.35" y="704.24" width="8.00" height="7.31" class="up-body"/>
<line x1="357.16" y1="699.54" x2="357.16" y2="712.12" class="up-wick"/>
<rect x="353.16" y="701.16" width="8.00" height="3.07" class="up-body"/>
<line x1="376.96" y1="683.18" x2="376.96" y2="710.62" class="up-wick"/>
<rect x="372.96" y="689.74" width="8.00" height="11.42" class="up-body"/>
<line x1="396.76" y1="676.69" x2="396.76" y2="693.22" class="up-wick"/>
<rect x="392.76" y="678.84" width="8.00" height="10.90" class="up-body"/>
<line x1="416.57" y1="671.82" x2="416.57" y2="684.05" class="down-wick"/>
<rect x="412.57" y="678.84" width="8.00" height="3.54" class="down-body"/>
<line x1="436.37" y1="673.04" x2="436.37" y2="688.35" class="up-wick"/>
<rect x="432.37" y="680.69" width="8.00" height="1.68" class="up-body"/>
<line x1="456.18" y1="667.58" x2="456.18" y2="691.42" class="down-wick"/>
<rect x="452.18" y="680.69" width="8.00" height="6.26" class="down-body"/>
<line x1="475.98" y1="674.02" x2="475.98" y2="696.93" class="up-wick"/>
<rect x="471.98" y="675.12" width="8.00" height="11.83" class="up-body"/>
<line x1="495.78" y1="663.70" x2="495.78" y2="703.77" class="down-wick"/>
<rect x="491.78" y="675.12" width="8.00" height="28.19" class="down-body"/>
<line x1="515.59" y1="670.89" x2="515.59" y2="703.71" class="up-wick"/>
<rect x="511.59" y="676.46" width="8.00" height="26.85" class="up-body"/>
<line x1="535.39" y1="662.71" x2="535.39" y2="686.20" class="down-wick"/>
<rect x="531.39" y="676.28" width="8.00" height="2.26" class="down-body"/>
<line x1="555.20" y1="678.14" x2="555.20" y2="688.06" class="down-wick"/>
<rect x="551.20" y="678.55" width="8.00" height="3.07" class="down-body"/>
<line x1="575.00" y1="676.98" x2="575.00" y2="689.97" class="up-wick"/>
<rect x="571.00" y="679.24" width="8.00" height="2.49" class="up-body"/>
<line x1="594.80" y1="678.43" x2="594.80" y2="700.35" class="down-wick"/>
<rect x="590.80" y="679.24" width="8.00" height="14.90" class="down-body"/>
<line x1="614.61" y1="664.39" x2="614.61" y2="694.15" class="up-wick"/>
<rect x="610.61" y="667.58" width="8.00" height="26.56" class="up-body"/>
<line x1="634.41" y1="646.01" x2="634.41" y2="670.43" class="up-wick"/>
<rect x="630.41" y="652.16" width="8.00" height="15.48" class="up-body"/>
<line x1="654.22" y1="641.02" x2="654.22" y2="671.41" class="up-wick"/>
<rect x="650.22" y="643.34" width="8.00" height="8.82" class="up-body"/>
<line x1="674.02" y1="643.28" x2="674.02" y2="659.00" class="down-wick"/>
<rect x="670.02" y="643.40" width="8.00" height="11.02" class="down-body"/>
<line x1="693.82" y1="644.50" x2="693.82" y2="661.15" class="down-wick"/>
<rect x="689.82" y="654.07" width="8.00" height="1.00" class="down-body"/>
<line x1="713.63" y1="648.21" x2="713.63" y2="664.16" class="down-wick"/>
<rect x="709.63" y="654.19" width="8.00" height="1.00" class="down-body"/>
<line x1="733.43" y1="642.82" x2="733.43" y2="663.64" class="up-wick"/>
<rect x="729.43" y="647.29" width="8.00" height="7.31" class="up-body"/>
<line x1="753.24" y1="644.15" x2="753.24" y2="669.27" class="down-wick"/>
<rect x="749.24" y="646.94" width="8.00" height="15.48" class="down-body"/>
<line x1="773.04" y1="643.52" x2="773.04" y2="662.65" class="up-wick"/>
<rect x="769.04" y="648.85" width="8.00" height="13.57" class="up-body"/>
<line x1="792.84" y1="640.21" x2="792.84" y2="651.81" class="up-wick"/>
<rect x="788.84" y="646.47" width="8.00" height="2.44" class="up-body"/>
<line x1="812.65" y1="637.14" x2="812.65" y2="647.81" class="up-wick"/>
<rect x="808.65" y="646.36" width="8.00" height="1.00" class="up-body"/>
<line x1="832.45" y1="638.99" x2="832.45" y2="656.68" class="down-wick"/>
<rect x="828.45" y="646.36" width="8.00" height="5.22" class="down-body"/>
<line x1="852.25" y1="624.09" x2="852.25" y2="652.33" class="up-wick"/>
<rect x="848.25" y="631.22" width="8.00" height="20.36" class="up-body"/>
<line x1="872.06" y1="616.55" x2="872.06" y2="632.27" class="up-wick"/>
<rect x="868.06" y="617.30" width="8.00" height="13.92" class="up-body"/>
<line x1="891.86" y1="609.24" x2="891.86" y2="625.07" class="up-wick"/>
<rect x="887.86" y="614.69" width="8.00" height="2.61" class="up-body"/>
<line x1="911.67" y1="614.11" x2="911.67" y2="629.02" class="down-wick"/>
<rect x="907.67" y="614.69" width="8.00" height="9.92" class="down-body"/>
<line x1="931.47" y1="621.07" x2="931.47" y2="634.70" class="down-wick"/>
<rect x="927.47" y="624.61" width="8.00" height="1.00" class="down-body"/>
<line x1="951.27" y1="624.32" x2="951.27" y2="638.64" class="down-wick"/>
<rect x="947.27" y="625.07" width="8.00" height="8.06" class="down-body"/>
<line x1="971.08" y1="631.98" x2="971.08" y2="651.58" class="down-wick"/>
<rect x="967.08" y="633.14" width="8.00" height="13.92" class="down-body"/>
<line x1="990.88" y1="645.89" x2="990.88" y2="671.88" class="down-wick"/>
<rect x="986.88" y="647.05" width="8.00" height="21.63" class="down-body"/>
<line x1="1010.69" y1="657.55" x2="1010.69" y2="671.88" class="up-wick"/>
<rect x="1006.69" y="665.38" width="8.00" height="3.31" class="up-body"/>
<line x1="1030.49" y1="655.81" x2="1030.49" y2="665.44" class="up-wick"/>
<rect x="1026.49" y="659.87" width="8.00" height="5.51" class="up-body"/>
<line x1="1050.29" y1="655.23" x2="1050.29" y2="666.83" class="down-wick"/>
<rect x="1046.29" y="659.87" width="8.00" height="6.96" class="down-body"/>
<line x1="1070.10" y1="650.13" x2="1070.10" y2="668.05" class="up-wick"/>
<rect x="1066.10" y="650.30" width="8.00" height="16.53" class="up-body"/>
<line x1="70" y1="675.24" x2="1080" y2="675.24" class="number-line"/>
<text x="1076" y="671.24" text-anchor="end" class="level-label">round 4810.00</text>
<line x1="70" y1="675.24" x2="1080" y2="675.24" class="entry-line"/>
<text x="1076" y="671.24" text-anchor="end" class="level-label">entry level 4810.00</text>
<text x="70" y="806" class="axis-label">2026-04-20 18:45:00+00:00 to 2026-04-20 22:55:00+00:00</text>
<text x="1080" y="806" text-anchor="end" class="axis-label">4790.56 - 4823.66</text>
<text x="70" y="832" class="panel-title">M1 execution window</text>
<rect x="70" y="846" width="1010" height="192" class="plot-bg"/>
<line x1="73.95" y1="987.04" x2="73.95" y2="1002.22" class="down-wick"/>
<rect x="71.38" y="987.04" width="5.13" height="11.97" class="down-body"/>
<line x1="81.84" y1="980.18" x2="81.84" y2="994.02" class="down-wick"/>
<rect x="79.27" y="990.93" width="5.13" height="1.00" class="down-body"/>
<line x1="89.73" y1="978.47" x2="89.73" y2="989.35" class="down-wick"/>
<rect x="87.16" y="980.48" width="5.13" height="8.63" class="down-body"/>
<line x1="97.62" y1="998.64" x2="97.62" y2="1007.63" class="up-wick"/>
<rect x="95.05" y="1001.25" width="5.13" height="1.46" class="up-body"/>
<line x1="105.51" y1="1004.41" x2="105.51" y2="1014.43" class="down-wick"/>
<rect x="102.94" y="1005.38" width="5.13" height="6.62" class="down-body"/>
<line x1="113.40" y1="992.93" x2="113.40" y2="1017.29" class="up-wick"/>
<rect x="110.83" y="994.57" width="5.13" height="21.14" class="up-body"/>
<line x1="121.29" y1="984.61" x2="121.29" y2="994.45" class="up-wick"/>
<rect x="118.72" y="989.77" width="5.13" height="4.68" class="up-body"/>
<line x1="129.18" y1="983.39" x2="129.18" y2="992.99" class="down-wick"/>
<rect x="126.62" y="987.40" width="5.13" height="3.64" class="down-body"/>
<line x1="137.07" y1="988.31" x2="137.07" y2="1005.26" class="down-wick"/>
<rect x="134.51" y="989.71" width="5.13" height="13.30" class="down-body"/>
<line x1="144.96" y1="999.49" x2="144.96" y2="1013.10" class="down-wick"/>
<rect x="142.40" y="1009.57" width="5.13" height="3.34" class="down-body"/>
<line x1="152.85" y1="1000.77" x2="152.85" y2="1023.91" class="up-wick"/>
<rect x="150.29" y="1005.87" width="5.13" height="13.85" class="up-body"/>
<line x1="160.74" y1="1008.54" x2="160.74" y2="1017.17" class="down-wick"/>
<rect x="158.18" y="1008.60" width="5.13" height="5.04" class="down-body"/>
<line x1="168.63" y1="999.55" x2="168.63" y2="1012.06" class="up-wick"/>
<rect x="166.07" y="1002.22" width="5.13" height="7.47" class="up-body"/>
<line x1="176.52" y1="994.08" x2="176.52" y2="1000.22" class="up-wick"/>
<rect x="173.96" y="996.94" width="5.13" height="1.76" class="up-body"/>
<line x1="184.41" y1="992.08" x2="184.41" y2="1002.41" class="down-wick"/>
<rect x="181.85" y="995.60" width="5.13" height="4.56" class="down-body"/>
<line x1="192.30" y1="989.41" x2="192.30" y2="998.15" class="up-wick"/>
<rect x="189.74" y="993.17" width="5.13" height="4.98" class="up-body"/>
<line x1="200.20" y1="999.98" x2="200.20" y2="1018.14" class="down-wick"/>
<rect x="197.63" y="1006.90" width="5.13" height="11.24" class="down-body"/>
<line x1="208.09" y1="1007.33" x2="208.09" y2="1024.76" class="up-wick"/>
<rect x="205.52" y="1008.30" width="5.13" height="14.46" class="up-body"/>
<line x1="215.98" y1="993.23" x2="215.98" y2="1000.95" class="down-wick"/>
<rect x="213.41" y="995.36" width="5.13" height="1.00" class="down-body"/>
<line x1="223.87" y1="993.72" x2="223.87" y2="1009.70" class="up-wick"/>
<rect x="221.30" y="996.09" width="5.13" height="12.27" class="up-body"/>
<line x1="231.76" y1="992.63" x2="231.76" y2="1004.47" class="up-wick"/>
<rect x="229.19" y="998.82" width="5.13" height="3.22" class="up-body"/>
<line x1="239.65" y1="979.20" x2="239.65" y2="992.57" class="up-wick"/>
<rect x="237.08" y="979.20" width="5.13" height="11.91" class="up-body"/>
<line x1="247.54" y1="980.24" x2="247.54" y2="985.03" class="up-wick"/>
<rect x="244.97" y="982.67" width="5.13" height="1.76" class="up-body"/>
<line x1="255.43" y1="967.72" x2="255.43" y2="978.54" class="down-wick"/>
<rect x="252.87" y="968.45" width="5.13" height="7.59" class="down-body"/>
<line x1="263.32" y1="976.17" x2="263.32" y2="981.27" class="up-wick"/>
<rect x="260.76" y="979.39" width="5.13" height="1.00" class="up-body"/>
<line x1="271.21" y1="984.85" x2="271.21" y2="996.39" class="down-wick"/>
<rect x="268.65" y="987.59" width="5.13" height="6.68" class="down-body"/>
<line x1="279.10" y1="987.95" x2="279.10" y2="994.15" class="down-wick"/>
<rect x="276.54" y="987.95" width="5.13" height="4.80" class="down-body"/>
<line x1="286.99" y1="986.37" x2="286.99" y2="990.08" class="down-wick"/>
<rect x="284.43" y="987.28" width="5.13" height="1.58" class="down-body"/>
<line x1="294.88" y1="973.25" x2="294.88" y2="982.79" class="up-wick"/>
<rect x="292.32" y="974.22" width="5.13" height="8.56" class="up-body"/>
<line x1="302.77" y1="967.72" x2="302.77" y2="972.04" class="down-wick"/>
<rect x="300.21" y="967.72" width="5.13" height="3.16" class="down-body"/>
<line x1="310.66" y1="968.82" x2="310.66" y2="978.84" class="up-wick"/>
<rect x="308.10" y="970.21" width="5.13" height="7.17" class="up-body"/>
<line x1="318.55" y1="962.99" x2="318.55" y2="976.71" class="up-wick"/>
<rect x="315.99" y="965.05" width="5.13" height="8.02" class="up-body"/>
<line x1="326.45" y1="965.96" x2="326.45" y2="973.07" class="up-wick"/>
<rect x="323.88" y="966.69" width="5.13" height="2.00" class="up-body"/>
<line x1="334.34" y1="959.04" x2="334.34" y2="968.39" class="up-wick"/>
<rect x="331.77" y="962.26" width="5.13" height="5.77" class="up-body"/>
<line x1="342.23" y1="950.47" x2="342.23" y2="964.08" class="down-wick"/>
<rect x="339.66" y="953.81" width="5.13" height="7.65" class="down-body"/>
<line x1="350.12" y1="958.55" x2="350.12" y2="966.99" class="down-wick"/>
<rect x="347.55" y="958.73" width="5.13" height="3.46" class="down-body"/>
<line x1="358.01" y1="956.18" x2="358.01" y2="961.95" class="down-wick"/>
<rect x="355.44" y="956.61" width="5.13" height="4.49" class="down-body"/>
<line x1="365.90" y1="953.81" x2="365.90" y2="961.04" class="up-wick"/>
<rect x="363.33" y="955.51" width="5.13" height="3.64" class="up-body"/>
<line x1="373.79" y1="945.92" x2="373.79" y2="960.56" class="down-wick"/>
<rect x="371.22" y="947.38" width="5.13" height="11.97" class="down-body"/>
<line x1="381.68" y1="938.20" x2="381.68" y2="951.75" class="up-wick"/>
<rect x="379.12" y="942.27" width="5.13" height="3.71" class="up-body"/>
<line x1="389.57" y1="939.90" x2="389.57" y2="947.19" class="down-wick"/>
<rect x="387.01" y="943.55" width="5.13" height="1.82" class="down-body"/>
<line x1="397.46" y1="930.85" x2="397.46" y2="940.94" class="up-wick"/>
<rect x="394.90" y="934.92" width="5.13" height="4.31" class="up-body"/>
<line x1="405.35" y1="929.88" x2="405.35" y2="937.66" class="up-wick"/>
<rect x="402.79" y="932.13" width="5.13" height="3.16" class="up-body"/>
<line x1="413.24" y1="925.87" x2="413.24" y2="933.47" class="up-wick"/>
<rect x="410.68" y="929.09" width="5.13" height="4.07" class="up-body"/>
<line x1="421.13" y1="929.34" x2="421.13" y2="935.96" class="down-wick"/>
<rect x="418.57" y="932.86" width="5.13" height="1.00" class="down-body"/>
<line x1="429.02" y1="934.98" x2="429.02" y2="942.09" class="down-wick"/>
<rect x="426.46" y="935.83" width="5.13" height="1.03" class="down-body"/>
<line x1="436.91" y1="926.06" x2="436.91" y2="938.69" class="up-wick"/>
<rect x="434.35" y="931.89" width="5.13" height="5.89" class="up-body"/>
<line x1="444.80" y1="930.91" x2="444.80" y2="935.47" class="down-wick"/>
<rect x="442.24" y="931.70" width="5.13" height="2.37" class="down-body"/>
<line x1="452.70" y1="938.69" x2="452.70" y2="945.31" class="up-wick"/>
<rect x="450.13" y="938.87" width="5.13" height="4.37" class="up-body"/>
<line x1="460.59" y1="920.35" x2="460.59" y2="936.26" class="up-wick"/>
<rect x="458.02" y="924.54" width="5.13" height="11.72" class="up-body"/>
<line x1="468.48" y1="938.08" x2="468.48" y2="944.52" class="down-wick"/>
<rect x="465.91" y="940.63" width="5.13" height="1.00" class="down-body"/>
<line x1="476.37" y1="938.63" x2="476.37" y2="945.92" class="up-wick"/>
<rect x="473.80" y="943.12" width="5.13" height="2.19" class="up-body"/>
<line x1="484.26" y1="927.09" x2="484.26" y2="946.59" class="up-wick"/>
<rect x="481.69" y="928.24" width="5.13" height="18.34" class="up-body"/>
<line x1="492.15" y1="922.59" x2="492.15" y2="928.67" class="down-wick"/>
<rect x="489.58" y="925.69" width="5.13" height="1.00" class="down-body"/>
<line x1="500.04" y1="944.70" x2="500.04" y2="958.13" class="down-wick"/>
<rect x="497.47" y="947.13" width="5.13" height="9.96" class="down-body"/>
<line x1="507.93" y1="935.05" x2="507.93" y2="958.19" class="up-wick"/>
<rect x="505.37" y="945.13" width="5.13" height="12.63" class="up-body"/>
<line x1="515.82" y1="923.81" x2="515.82" y2="938.39" class="down-wick"/>
<rect x="513.26" y="932.01" width="5.13" height="5.71" class="down-body"/>
<line x1="523.71" y1="924.78" x2="523.71" y2="934.98" class="up-wick"/>
<rect x="521.15" y="929.64" width="5.13" height="1.21" class="up-body"/>
<line x1="531.60" y1="923.26" x2="531.60" y2="931.58" class="down-wick"/>
<rect x="529.04" y="925.57" width="5.13" height="3.64" class="down-body"/>
<line x1="539.49" y1="928.67" x2="539.49" y2="939.84" class="up-wick"/>
<rect x="536.93" y="931.70" width="5.13" height="7.23" class="up-body"/>
<line x1="547.38" y1="931.40" x2="547.38" y2="938.87" class="down-wick"/>
<rect x="544.82" y="931.83" width="5.13" height="6.13" class="down-body"/>
<line x1="555.27" y1="935.71" x2="555.27" y2="940.03" class="down-wick"/>
<rect x="552.71" y="937.29" width="5.13" height="1.82" class="down-body"/>
<line x1="563.16" y1="934.56" x2="563.16" y2="940.33" class="up-wick"/>
<rect x="560.60" y="935.05" width="5.13" height="4.68" class="up-body"/>
<line x1="571.05" y1="935.35" x2="571.05" y2="941.79" class="down-wick"/>
<rect x="568.49" y="936.44" width="5.13" height="1.00" class="down-body"/>
<line x1="578.95" y1="937.84" x2="578.95" y2="941.67" class="up-wick"/>
<rect x="576.38" y="938.69" width="5.13" height="1.00" class="up-body"/>
<line x1="586.84" y1="931.70" x2="586.84" y2="937.60" class="down-wick"/>
<rect x="584.27" y="932.55" width="5.13" height="3.28" class="down-body"/>
<line x1="594.73" y1="940.82" x2="594.73" y2="952.78" class="down-wick"/>
<rect x="592.16" y="940.88" width="5.13" height="10.45" class="down-body"/>
<line x1="602.62" y1="945.01" x2="602.62" y2="950.78" class="down-wick"/>
<rect x="600.05" y="945.25" width="5.13" height="2.92" class="down-body"/>
<line x1="610.51" y1="926.36" x2="610.51" y2="936.93" class="up-wick"/>
<rect x="607.94" y="928.00" width="5.13" height="5.10" class="up-body"/>
<line x1="618.40" y1="917.01" x2="618.40" y2="925.51" class="up-wick"/>
<rect x="615.83" y="917.19" width="5.13" height="8.32" class="up-body"/>
<line x1="626.29" y1="903.58" x2="626.29" y2="923.32" class="up-wick"/>
<rect x="623.72" y="903.76" width="5.13" height="16.64" class="up-body"/>
<line x1="634.18" y1="903.04" x2="634.18" y2="910.63" class="down-wick"/>
<rect x="631.62" y="903.04" width="5.13" height="6.74" class="down-body"/>
<line x1="642.07" y1="902.25" x2="642.07" y2="910.08" class="up-wick"/>
<rect x="639.51" y="904.19" width="5.13" height="5.83" class="up-body"/>
<line x1="649.96" y1="901.76" x2="649.96" y2="924.35" class="down-wick"/>
<rect x="647.40" y="908.44" width="5.13" height="7.17" class="down-body"/>
<line x1="657.85" y1="902.31" x2="657.85" y2="913.85" class="up-wick"/>
<rect x="655.29" y="903.10" width="5.13" height="6.56" class="up-body"/>
<line x1="665.74" y1="894.90" x2="665.74" y2="903.40" class="down-wick"/>
<rect x="663.18" y="895.02" width="5.13" height="8.20" class="down-body"/>
<line x1="673.63" y1="899.57" x2="673.63" y2="903.89" class="down-wick"/>
<rect x="671.07" y="902.18" width="5.13" height="1.00" class="down-body"/>
<line x1="681.52" y1="903.46" x2="681.52" y2="911.36" class="up-wick"/>
<rect x="678.96" y="906.56" width="5.13" height="1.09" class="up-body"/>
<line x1="689.41" y1="897.51" x2="689.41" y2="913.60" class="down-wick"/>
<rect x="686.85" y="898.30" width="5.13" height="11.05" class="down-body"/>
<line x1="697.30" y1="902.91" x2="697.30" y2="910.81" class="down-wick"/>
<rect x="694.74" y="904.01" width="5.13" height="5.10" class="down-body"/>
<line x1="705.20" y1="904.43" x2="705.20" y2="911.90" class="down-wick"/>
<rect x="702.63" y="906.32" width="5.13" height="2.55" class="down-body"/>
<line x1="713.09" y1="903.70" x2="713.09" y2="908.14" class="down-wick"/>
<rect x="710.52" y="905.16" width="5.13" height="1.70" class="down-body"/>
<line x1="720.98" y1="904.13" x2="720.98" y2="908.99" class="up-wick"/>
<rect x="718.41" y="906.74" width="5.13" height="1.00" class="up-body"/>
<line x1="728.87" y1="905.46" x2="728.87" y2="911.42" class="up-wick"/>
<rect x="726.30" y="908.56" width="5.13" height="1.00" class="up-body"/>
<line x1="736.76" y1="894.41" x2="736.76" y2="908.14" class="up-wick"/>
<rect x="734.19" y="900.42" width="5.13" height="7.53" class="up-body"/>
<line x1="744.65" y1="895.81" x2="744.65" y2="905.28" class="down-wick"/>
<rect x="742.08" y="898.72" width="5.13" height="5.71" class="down-body"/>
<line x1="752.54" y1="915.12" x2="752.54" y2="921.99" class="up-wick"/>
<rect x="749.97" y="915.73" width="5.13" height="4.92" class="up-body"/>
<line x1="760.43" y1="908.87" x2="760.43" y2="918.95" class="down-wick"/>
<rect x="757.87" y="913.00" width="5.13" height="1.94" class="down-body"/>
<line x1="768.32" y1="899.03" x2="768.32" y2="905.59" class="up-wick"/>
<rect x="765.76" y="900.00" width="5.13" height="5.16" class="up-body"/>
<line x1="776.21" y1="896.96" x2="776.21" y2="902.97" class="down-wick"/>
<rect x="773.65" y="897.69" width="5.13" height="2.73" class="down-body"/>
<line x1="784.10" y1="898.78" x2="784.10" y2="903.82" class="down-wick"/>
<rect x="781.54" y="900.79" width="5.13" height="1.00" class="down-body"/>
<line x1="791.99" y1="893.80" x2="791.99" y2="897.26" class="up-wick"/>
<rect x="789.43" y="895.75" width="5.13" height="1.00" class="up-body"/>
<line x1="799.88" y1="892.22" x2="799.88" y2="898.36" class="down-wick"/>
<rect x="797.32" y="894.53" width="5.13" height="3.71" class="down-body"/>
<line x1="807.77" y1="888.46" x2="807.77" y2="897.02" class="up-wick"/>
<rect x="805.21" y="889.49" width="5.13" height="7.05" class="up-body"/>
<line x1="815.66" y1="892.34" x2="815.66" y2="897.93" class="down-wick"/>
<rect x="813.10" y="893.80" width="5.13" height="1.76" class="down-body"/>
<line x1="823.55" y1="890.40" x2="823.55" y2="898.30" class="up-wick"/>
<rect x="820.99" y="894.11" width="5.13" height="4.01" class="up-body"/>
<line x1="831.45" y1="895.32" x2="831.45" y2="898.78" class="up-wick"/>
<rect x="828.88" y="896.78" width="5.13" height="1.00" class="up-body"/>
<line x1="839.34" y1="900.79" x2="839.34" y2="908.93" class="down-wick"/>
<rect x="836.77" y="900.85" width="5.13" height="2.73" class="down-body"/>
<line x1="847.23" y1="874.79" x2="847.23" y2="882.57" class="up-wick"/>
<rect x="844.66" y="876.01" width="5.13" height="4.49" class="up-body"/>
<line x1="855.12" y1="875.70" x2="855.12" y2="885.78" class="up-wick"/>
<rect x="852.55" y="883.54" width="5.13" height="1.00" class="up-body"/>
<line x1="863.01" y1="872.97" x2="863.01" y2="883.36" class="up-wick"/>
<rect x="860.44" y="873.88" width="5.13" height="8.38" class="up-body"/>
<line x1="870.90" y1="872.30" x2="870.90" y2="878.92" class="down-wick"/>
<rect x="868.33" y="873.03" width="5.13" height="4.31" class="down-body"/>
<line x1="878.79" y1="866.89" x2="878.79" y2="875.09" class="up-wick"/>
<rect x="876.22" y="867.68" width="5.13" height="5.71" class="up-body"/>
<line x1="886.68" y1="865.25" x2="886.68" y2="874.30" class="up-wick"/>
<rect x="884.12" y="869.99" width="5.13" height="4.25" class="up-body"/>
<line x1="894.57" y1="859.24" x2="894.57" y2="870.11" class="up-wick"/>
<rect x="892.01" y="864.71" width="5.13" height="4.25" class="up-body"/>
<line x1="902.46" y1="864.34" x2="902.46" y2="871.21" class="down-wick"/>
<rect x="899.90" y="864.95" width="5.13" height="4.19" class="down-body"/>
<line x1="910.35" y1="873.58" x2="910.35" y2="879.95" class="up-wick"/>
<rect x="907.79" y="875.34" width="5.13" height="3.40" class="up-body"/>
<line x1="918.24" y1="873.76" x2="918.24" y2="876.86" class="up-wick"/>
<rect x="915.68" y="875.34" width="5.13" height="1.00" class="up-body"/>
<line x1="926.13" y1="873.45" x2="926.13" y2="882.50" class="up-wick"/>
<rect x="923.57" y="873.58" width="5.13" height="8.87" class="up-body"/>
<line x1="934.02" y1="873.33" x2="934.02" y2="879.04" class="down-wick"/>
<rect x="931.46" y="873.39" width="5.13" height="2.19" class="down-body"/>
<line x1="941.91" y1="875.03" x2="941.91" y2="879.35" class="down-wick"/>
<rect x="939.35" y="875.82" width="5.13" height="3.04" class="down-body"/>
<line x1="949.80" y1="883.29" x2="949.80" y2="889.73" class="down-wick"/>
<rect x="947.24" y="884.39" width="5.13" height="4.19" class="down-body"/>
<line x1="957.70" y1="882.08" x2="957.70" y2="887.49" class="up-wick"/>
<rect x="955.13" y="884.27" width="5.13" height="2.67" class="up-body"/>
<line x1="965.59" y1="887.97" x2="965.59" y2="892.34" class="up-wick"/>
<rect x="963.02" y="887.97" width="5.13" height="3.71" class="up-body"/>
<line x1="973.48" y1="892.59" x2="973.48" y2="897.75" class="down-wick"/>
<rect x="970.91" y="895.99" width="5.13" height="1.00" class="down-body"/>
<line x1="981.37" y1="897.63" x2="981.37" y2="924.84" class="down-wick"/>
<rect x="978.80" y="898.84" width="5.13" height="13.06" class="down-body"/>
<line x1="989.26" y1="908.74" x2="989.26" y2="919.86" class="up-wick"/>
<rect x="986.69" y="918.65" width="5.13" height="1.00" class="up-body"/>
<line x1="997.15" y1="918.10" x2="997.15" y2="923.26" class="down-wick"/>
<rect x="994.58" y="920.22" width="5.13" height="1.28" class="down-body"/>
<line x1="1005.04" y1="916.52" x2="1005.04" y2="924.84" class="up-wick"/>
<rect x="1002.47" y="918.22" width="5.13" height="4.31" class="up-body"/>
<line x1="1012.93" y1="909.84" x2="1012.93" y2="916.70" class="up-wick"/>
<rect x="1010.37" y="915.12" width="5.13" height="1.40" class="up-body"/>
<line x1="1020.82" y1="911.36" x2="1020.82" y2="918.10" class="up-wick"/>
<rect x="1018.26" y="911.66" width="5.13" height="6.38" class="up-body"/>
<line x1="1028.71" y1="908.02" x2="1028.71" y2="913.73" class="down-wick"/>
<rect x="1026.15" y="909.84" width="5.13" height="2.43" class="down-body"/>
<line x1="1036.60" y1="911.17" x2="1036.60" y2="917.98" class="up-wick"/>
<rect x="1034.04" y="912.27" width="5.13" height="2.49" class="up-body"/>
<line x1="1044.49" y1="907.89" x2="1044.49" y2="918.40" class="up-wick"/>
<rect x="1041.93" y="912.81" width="5.13" height="5.59" class="up-body"/>
<line x1="1052.38" y1="907.41" x2="1052.38" y2="915.85" class="down-wick"/>
<rect x="1049.82" y="910.45" width="5.13" height="4.98" class="down-body"/>
<line x1="1060.27" y1="910.93" x2="1060.27" y2="920.83" class="up-wick"/>
<rect x="1057.71" y="915.18" width="5.13" height="4.37" class="up-body"/>
<line x1="1068.16" y1="909.78" x2="1068.16" y2="917.43" class="up-wick"/>
<rect x="1065.60" y="912.27" width="5.13" height="3.04" class="up-body"/>
<line x1="1076.05" y1="902.06" x2="1076.05" y2="913.60" class="up-wick"/>
<rect x="1073.49" y="902.25" width="5.13" height="9.72" class="up-body"/>
<line x1="70" y1="928.36" x2="1080" y2="928.36" class="number-line"/>
<text x="1076" y="924.36" text-anchor="end" class="level-label">round 4810.00</text>
<line x1="70" y1="928.36" x2="1080" y2="928.36" class="entry-line"/>
<text x="1076" y="924.36" text-anchor="end" class="level-label">entry level 4810.00</text>
<text x="70" y="1056" class="axis-label">2026-04-20 18:45:00+00:00 to 2026-04-20 22:59:00+00:00</text>
<text x="1080" y="1056" text-anchor="end" class="axis-label">4791.95 - 4823.56</text>
</svg>