<svg xmlns="http://www.w3.org/2000/svg" width="1120" height="1054" viewBox="0 0 1120 1054">
<style>
text{font-family:Arial,Helvetica,sans-serif}.title{font-size:21px;font-weight:700;fill:#1f2937}.subtitle{font-size:12px;fill:#4b5563}.panel-title{font-size:15px;font-weight:700;fill:#111827}.muted{font-size:13px;fill:#6b7280}.plot-bg{fill:#f8fafc;stroke:#cbd5e1;stroke-width:1}.up-body{fill:#15803d;stroke:#14532d;stroke-width:.8}.down-body{fill:#b91c1c;stroke:#7f1d1d;stroke-width:.8}.up-wick{stroke:#14532d;stroke-width:1}.down-wick{stroke:#7f1d1d;stroke-width:1}.sweep-line{stroke:#7c3aed;stroke-width:1.6;stroke-dasharray:6 4}.number-line{stroke:#0f766e;stroke-width:1.4;stroke-dasharray:3 4}.entry-line{stroke:#2563eb;stroke-width:1.4}.sl-line{stroke:#dc2626;stroke-width:1.4}.tp-line{stroke:#16a34a;stroke-width:1.4}.level-label,.axis-label{font-size:11px;fill:#374151}
</style>
<text x="28" y="28" class="title">Adelin v2 visual review sample sample_127</text>
<text x="28" y="48" class="subtitle">Candidate windows are for visual labeling only and are not trade signals.</text>
<text x="560" y="48" class="subtitle" text-anchor="middle">NUMBER_THEORY_LEVEL_NEAR | ROUND_LEVEL_ENTRY_METADATA_AVAILABLE</text>
<text x="70" y="82" class="panel-title">H1 liquidity context</text>
<rect x="70" y="96" width="1010" height="192" class="plot-bg"/>
<line x1="77.32" y1="190.59" x2="77.32" y2="239.03" class="up-wick"/>
<rect x="73.32" y="195.33" width="8.00" height="39.88" class="up-body"/>
<line x1="91.96" y1="179.30" x2="91.96" y2="216.03" class="up-wick"/>
<rect x="87.96" y="181.14" width="8.00" height="14.19" class="up-body"/>
<line x1="106.59" y1="138.58" x2="106.59" y2="181.19" class="up-wick"/>
<rect x="102.59" y="142.33" width="8.00" height="38.80" class="up-body"/>
<line x1="121.23" y1="125.29" x2="121.23" y2="164.93" class="down-wick"/>
<rect x="117.23" y="142.33" width="8.00" height="19.95" class="down-body"/>
<line x1="135.87" y1="139.74" x2="135.87" y2="178.65" class="up-wick"/>
<rect x="131.87" y="143.04" width="8.00" height="19.22" class="up-body"/>
<line x1="150.51" y1="136.01" x2="150.51" y2="166.82" class="down-wick"/>
<rect x="146.51" y="142.96" width="8.00" height="18.73" class="down-body"/>
<line x1="165.14" y1="149.56" x2="165.14" y2="166.80" class="up-wick"/>
<rect x="161.14" y="158.35" width="8.00" height="3.34" class="up-body"/>
<line x1="179.78" y1="157.56" x2="179.78" y2="198.52" class="up-wick"/>
<rect x="175.78" y="157.56" width="8.00" height="1.00" class="up-body"/>
<line x1="194.42" y1="141.39" x2="194.42" y2="160.09" class="up-wick"/>
<rect x="190.42" y="149.59" width="8.00" height="8.21" class="up-body"/>
<line x1="209.06" y1="134.74" x2="209.06" y2="171.32" class="down-wick"/>
<rect x="205.06" y="149.59" width="8.00" height="1.00" class="down-body"/>
<line x1="223.70" y1="131.76" x2="223.70" y2="159.24" class="up-wick"/>
<rect x="219.70" y="134.61" width="8.00" height="15.68" class="up-body"/>
<line x1="238.33" y1="113.04" x2="238.33" y2="137.55" class="up-wick"/>
<rect x="234.33" y="126.59" width="8.00" height="8.03" class="up-body"/>
<line x1="252.97" y1="114.97" x2="252.97" y2="128.86" class="up-wick"/>
<rect x="248.97" y="124.07" width="8.00" height="2.52" class="up-body"/>
<line x1="267.61" y1="109.24" x2="267.61" y2="162.41" class="down-wick"/>
<rect x="263.61" y="124.07" width="8.00" height="22.43" class="down-body"/>
<line x1="282.25" y1="119.71" x2="282.25" y2="150.46" class="down-wick"/>
<rect x="278.25" y="146.50" width="8.00" height="3.44" class="down-body"/>
<line x1="296.88" y1="131.59" x2="296.88" y2="181.09" class="down-wick"/>
<rect x="292.88" y="149.94" width="8.00" height="22.90" class="down-body"/>
<line x1="311.52" y1="150.83" x2="311.52" y2="189.03" class="up-wick"/>
<rect x="307.52" y="167.56" width="8.00" height="6.35" class="up-body"/>
<line x1="326.16" y1="155.69" x2="326.16" y2="181.55" class="down-wick"/>
<rect x="322.16" y="167.53" width="8.00" height="1.77" class="down-body"/>
<line x1="340.80" y1="165.81" x2="340.80" y2="200.72" class="down-wick"/>
<rect x="336.80" y="169.30" width="8.00" height="9.25" class="down-body"/>
<line x1="355.43" y1="175.97" x2="355.43" y2="212.98" class="down-wick"/>
<rect x="351.43" y="178.56" width="8.00" height="7.58" class="down-body"/>
<line x1="370.07" y1="180.10" x2="370.07" y2="197.48" class="up-wick"/>
<rect x="366.07" y="181.95" width="8.00" height="4.19" class="up-body"/>
<line x1="384.71" y1="172.52" x2="384.71" y2="197.04" class="down-wick"/>
<rect x="380.71" y="182.04" width="8.00" height="3.26" class="down-body"/>
<line x1="399.35" y1="175.40" x2="399.35" y2="190.92" class="up-wick"/>
<rect x="395.35" y="179.73" width="8.00" height="5.55" class="up-body"/>
<line x1="413.99" y1="151.83" x2="413.99" y2="179.57" class="up-wick"/>
<rect x="409.99" y="152.91" width="8.00" height="26.66" class="up-body"/>
<line x1="428.62" y1="137.24" x2="428.62" y2="158.96" class="up-wick"/>
<rect x="424.62" y="144.98" width="8.00" height="7.93" class="up-body"/>
<line x1="443.26" y1="130.14" x2="443.26" y2="150.37" class="up-wick"/>
<rect x="439.26" y="144.86" width="8.00" height="1.00" class="up-body"/>
<line x1="457.90" y1="123.78" x2="457.90" y2="145.92" class="up-wick"/>
<rect x="453.90" y="124.26" width="8.00" height="20.64" class="up-body"/>
<line x1="472.54" y1="121.11" x2="472.54" y2="138.91" class="down-wick"/>
<rect x="468.54" y="124.26" width="8.00" height="12.56" class="down-body"/>
<line x1="487.17" y1="130.00" x2="487.17" y2="151.66" class="down-wick"/>
<rect x="483.17" y="136.83" width="8.00" height="9.10" class="down-body"/>
<line x1="501.81" y1="140.50" x2="501.81" y2="170.80" class="down-wick"/>
<rect x="497.81" y="145.94" width="8.00" height="24.63" class="down-body"/>
<line x1="516.45" y1="149.04" x2="516.45" y2="200.38" class="up-wick"/>
<rect x="512.45" y="150.26" width="8.00" height="20.30" class="up-body"/>
<line x1="531.09" y1="144.81" x2="531.09" y2="159.51" class="down-wick"/>
<rect x="527.09" y="150.26" width="8.00" height="5.72" class="down-body"/>
<line x1="545.72" y1="147.55" x2="545.72" y2="182.11" class="up-wick"/>
<rect x="541.72" y="152.35" width="8.00" height="3.64" class="up-body"/>
<line x1="560.36" y1="136.46" x2="560.36" y2="165.19" class="down-wick"/>
<rect x="556.36" y="152.37" width="8.00" height="4.96" class="down-body"/>
<line x1="575.00" y1="150.30" x2="575.00" y2="172.98" class="up-wick"/>
<rect x="571.00" y="153.46" width="8.00" height="3.94" class="up-body"/>
<line x1="589.64" y1="149.88" x2="589.64" y2="161.66" class="down-wick"/>
<rect x="585.64" y="153.46" width="8.00" height="1.00" class="down-body"/>
<line x1="604.28" y1="146.14" x2="604.28" y2="157.44" class="down-wick"/>
<rect x="600.28" y="154.38" width="8.00" height="1.19" class="down-body"/>
<line x1="618.91" y1="153.99" x2="618.91" y2="240.20" class="down-wick"/>
<rect x="614.91" y="155.57" width="8.00" height="47.56" class="down-body"/>
<line x1="633.55" y1="190.35" x2="633.55" y2="232.09" class="down-wick"/>
<rect x="629.55" y="203.13" width="8.00" height="16.89" class="down-body"/>
<line x1="648.19" y1="201.09" x2="648.19" y2="264.56" class="up-wick"/>
<rect x="644.19" y="219.66" width="8.00" height="1.00" class="up-body"/>
<line x1="662.83" y1="217.44" x2="662.83" y2="271.05" class="down-wick"/>
<rect x="658.83" y="219.63" width="8.00" height="26.50" class="down-body"/>
<line x1="677.46" y1="233.50" x2="677.46" y2="270.35" class="down-wick"/>
<rect x="673.46" y="246.13" width="8.00" height="15.76" class="down-body"/>
<line x1="692.10" y1="237.85" x2="692.10" y2="274.76" class="up-wick"/>
<rect x="688.10" y="254.91" width="8.00" height="7.00" class="up-body"/>
<line x1="706.74" y1="242.25" x2="706.74" y2="269.53" class="down-wick"/>
<rect x="702.74" y="254.90" width="8.00" height="3.62" class="down-body"/>
<line x1="721.38" y1="227.94" x2="721.38" y2="263.32" class="up-wick"/>
<rect x="717.38" y="247.22" width="8.00" height="11.30" class="up-body"/>
<line x1="736.01" y1="238.58" x2="736.01" y2="252.32" class="up-wick"/>
<rect x="732.01" y="242.06" width="8.00" height="5.16" class="up-body"/>
<line x1="750.65" y1="220.25" x2="750.65" y2="249.66" class="up-wick"/>
<rect x="746.65" y="237.07" width="8.00" height="4.97" class="up-body"/>
<line x1="765.29" y1="230.54" x2="765.29" y2="249.90" class="down-wick"/>
<rect x="761.29" y="237.05" width="8.00" height="1.74" class="down-body"/>
<line x1="779.93" y1="175.55" x2="779.93" y2="258.11" class="up-wick"/>
<rect x="775.93" y="185.34" width="8.00" height="53.45" class="up-body"/>
<line x1="794.57" y1="181.30" x2="794.57" y2="198.77" class="down-wick"/>
<rect x="790.57" y="185.35" width="8.00" height="8.87" class="down-body"/>
<line x1="809.20" y1="178.12" x2="809.20" y2="196.53" class="up-wick"/>
<rect x="805.20" y="189.29" width="8.00" height="4.96" class="up-body"/>
<line x1="823.84" y1="183.59" x2="823.84" y2="194.38" class="down-wick"/>
<rect x="819.84" y="189.29" width="8.00" height="3.72" class="down-body"/>
<line x1="838.48" y1="190.22" x2="838.48" y2="207.05" class="down-wick"/>
<rect x="834.48" y="193.01" width="8.00" height="10.83" class="down-body"/>
<line x1="853.12" y1="197.88" x2="853.12" y2="212.52" class="down-wick"/>
<rect x="849.12" y="203.84" width="8.00" height="1.76" class="down-body"/>
<line x1="867.75" y1="200.17" x2="867.75" y2="216.15" class="up-wick"/>
<rect x="863.75" y="201.41" width="8.00" height="4.19" class="up-body"/>
<line x1="882.39" y1="197.61" x2="882.39" y2="226.28" class="down-wick"/>
<rect x="878.39" y="201.35" width="8.00" height="11.76" class="down-body"/>
<line x1="897.03" y1="212.11" x2="897.03" y2="240.10" class="down-wick"/>
<rect x="893.03" y="213.11" width="8.00" height="24.42" class="down-body"/>
<line x1="911.67" y1="229.81" x2="911.67" y2="248.28" class="up-wick"/>
<rect x="907.67" y="231.89" width="8.00" height="5.64" class="up-body"/>
<line x1="926.30" y1="222.59" x2="926.30" y2="262.03" class="down-wick"/>
<rect x="922.30" y="231.89" width="8.00" height="14.81" class="down-body"/>
<line x1="940.94" y1="225.83" x2="940.94" y2="247.61" class="up-wick"/>
<rect x="936.94" y="240.05" width="8.00" height="6.65" class="up-body"/>
<line x1="955.58" y1="189.27" x2="955.58" y2="259.06" class="up-wick"/>
<rect x="951.58" y="238.18" width="8.00" height="1.87" class="up-body"/>
<line x1="970.22" y1="188.28" x2="970.22" y2="242.66" class="up-wick"/>
<rect x="966.22" y="190.07" width="8.00" height="48.11" class="up-body"/>
<line x1="984.86" y1="145.87" x2="984.86" y2="192.44" class="up-wick"/>
<rect x="980.86" y="177.75" width="8.00" height="12.32" class="up-body"/>
<line x1="999.49" y1="165.67" x2="999.49" y2="194.63" class="down-wick"/>
<rect x="995.49" y="177.83" width="8.00" height="2.05" class="down-body"/>
<line x1="1014.13" y1="166.39" x2="1014.13" y2="191.50" class="up-wick"/>
<rect x="1010.13" y="178.94" width="8.00" height="1.00" class="up-body"/>
<line x1="1028.77" y1="150.19" x2="1028.77" y2="181.16" class="up-wick"/>
<rect x="1024.77" y="157.22" width="8.00" height="21.72" class="up-body"/>
<line x1="1043.41" y1="142.82" x2="1043.41" y2="162.01" class="down-wick"/>
<rect x="1039.41" y="157.27" width="8.00" height="1.33" class="down-body"/>
<line x1="1058.04" y1="155.57" x2="1058.04" y2="169.68" class="down-wick"/>
<rect x="1054.04" y="158.64" width="8.00" height="6.87" class="down-body"/>
<line x1="1072.68" y1="141.30" x2="1072.68" y2="168.13" class="up-wick"/>
<rect x="1068.68" y="145.72" width="8.00" height="19.82" class="up-body"/>
<line x1="70" y1="147.77" x2="1080" y2="147.77" class="number-line"/>
<text x="1076" y="143.77" text-anchor="end" class="level-label">round 5170.00</text>
<line x1="70" y1="147.77" x2="1080" y2="147.77" class="entry-line"/>
<text x="1076" y="143.77" text-anchor="end" class="level-label">entry level 5170.00</text>
<text x="70" y="306" class="axis-label">2026-03-04 01:00:00+00:00 to 2026-03-06 23:00:00+00:00</text>
<text x="1080" y="306" text-anchor="end" class="axis-label">5038.46 - 5218.56</text>
<text x="70" y="332" class="panel-title">M15 liquidity / reaction context</text>
<rect x="70" y="346" width="1010" height="192" class="plot-bg"/>
<line x1="80.10" y1="464.79" x2="80.10" y2="488.24" class="down-wick"/>
<rect x="76.10" y="471.76" width="8.00" height="4.12" class="down-body"/>
<line x1="100.30" y1="474.26" x2="100.30" y2="494.70" class="down-wick"/>
<rect x="96.30" y="475.89" width="8.00" height="15.29" class="down-body"/>
<line x1="120.50" y1="484.08" x2="120.50" y2="505.91" class="down-wick"/>
<rect x="116.50" y="491.17" width="8.00" height="4.55" class="down-body"/>
<line x1="140.70" y1="480.59" x2="140.70" y2="499.83" class="up-wick"/>
<rect x="136.70" y="488.76" width="8.00" height="6.96" class="up-body"/>
<line x1="160.90" y1="482.48" x2="160.90" y2="498.33" class="down-wick"/>
<rect x="156.90" y="488.83" width="8.00" height="8.39" class="down-body"/>
<line x1="181.10" y1="480.81" x2="181.10" y2="497.22" class="up-wick"/>
<rect x="177.10" y="483.44" width="8.00" height="13.78" class="up-body"/>
<line x1="201.30" y1="482.68" x2="201.30" y2="498.77" class="down-wick"/>
<rect x="197.30" y="483.44" width="8.00" height="7.13" class="down-body"/>
<line x1="221.50" y1="472.89" x2="221.50" y2="491.33" class="up-wick"/>
<rect x="217.50" y="478.24" width="8.00" height="12.34" class="up-body"/>
<line x1="241.70" y1="470.68" x2="241.70" y2="498.22" class="down-wick"/>
<rect x="237.70" y="478.24" width="8.00" height="19.61" class="down-body"/>
<line x1="261.90" y1="489.13" x2="261.90" y2="524.76" class="down-wick"/>
<rect x="257.90" y="497.85" width="8.00" height="5.89" class="down-body"/>
<line x1="282.10" y1="483.24" x2="282.10" y2="504.98" class="up-wick"/>
<rect x="278.10" y="485.05" width="8.00" height="18.69" class="up-body"/>
<line x1="302.30" y1="475.29" x2="302.30" y2="490.57" class="down-wick"/>
<rect x="298.30" y="485.05" width="8.00" height="1.99" class="down-body"/>
<line x1="322.50" y1="475.26" x2="322.50" y2="491.70" class="up-wick"/>
<rect x="318.50" y="475.68" width="8.00" height="11.36" class="up-body"/>
<line x1="342.70" y1="475.13" x2="342.70" y2="497.55" class="down-wick"/>
<rect x="338.70" y="475.71" width="8.00" height="18.91" class="down-body"/>
<line x1="362.90" y1="494.34" x2="362.90" y2="520.68" class="down-wick"/>
<rect x="358.90" y="494.62" width="8.00" height="14.94" class="down-body"/>
<line x1="383.10" y1="486.77" x2="383.10" y2="510.41" class="up-wick"/>
<rect x="379.10" y="495.82" width="8.00" height="13.74" class="up-body"/>
<line x1="403.30" y1="425.01" x2="403.30" y2="495.82" class="up-wick"/>
<rect x="399.30" y="438.44" width="8.00" height="57.38" class="up-body"/>
<line x1="423.50" y1="437.56" x2="423.50" y2="508.46" class="down-wick"/>
<rect x="419.50" y="438.44" width="8.00" height="53.62" class="down-body"/>
<line x1="443.70" y1="466.28" x2="443.70" y2="498.20" class="up-wick"/>
<rect x="439.70" y="474.86" width="8.00" height="17.20" class="up-body"/>
<line x1="463.90" y1="456.65" x2="463.90" y2="487.65" class="up-wick"/>
<rect x="459.90" y="463.86" width="8.00" height="10.95" class="up-body"/>
<line x1="484.10" y1="448.07" x2="484.10" y2="493.37" class="down-wick"/>
<rect x="480.10" y="463.86" width="8.00" height="21.94" class="down-body"/>
<line x1="504.30" y1="423.65" x2="504.30" y2="488.47" class="up-wick"/>
<rect x="500.30" y="426.11" width="8.00" height="59.69" class="up-body"/>
<line x1="524.50" y1="383.79" x2="524.50" y2="429.35" class="up-wick"/>
<rect x="520.50" y="398.48" width="8.00" height="27.62" class="up-body"/>
<line x1="544.70" y1="365.51" x2="544.70" y2="405.51" class="up-wick"/>
<rect x="540.70" y="380.18" width="8.00" height="18.30" class="up-body"/>
<line x1="564.90" y1="373.08" x2="564.90" y2="397.93" class="down-wick"/>
<rect x="560.90" y="380.18" width="8.00" height="11.30" class="down-body"/>
<line x1="585.10" y1="386.38" x2="585.10" y2="419.97" class="down-wick"/>
<rect x="581.10" y="391.48" width="8.00" height="17.73" class="down-body"/>
<line x1="605.30" y1="396.16" x2="605.30" y2="417.50" class="up-wick"/>
<rect x="601.30" y="406.45" width="8.00" height="2.88" class="up-body"/>
<line x1="625.50" y1="392.65" x2="625.50" y2="417.22" class="down-wick"/>
<rect x="621.50" y="406.42" width="8.00" height="2.09" class="down-body"/>
<line x1="645.70" y1="402.94" x2="645.70" y2="432.36" class="down-wick"/>
<rect x="641.70" y="408.41" width="8.00" height="1.00" class="down-body"/>
<line x1="665.90" y1="400.03" x2="665.90" y2="426.59" class="down-wick"/>
<rect x="661.90" y="408.92" width="8.00" height="3.22" class="down-body"/>
<line x1="686.10" y1="408.39" x2="686.10" y2="428.06" class="down-wick"/>
<rect x="682.10" y="412.13" width="8.00" height="4.69" class="down-body"/>
<line x1="706.30" y1="404.12" x2="706.30" y2="421.90" class="up-wick"/>
<rect x="702.30" y="408.79" width="8.00" height="8.04" class="up-body"/>
<line x1="726.50" y1="393.65" x2="726.50" y2="416.80" class="down-wick"/>
<rect x="722.50" y="408.79" width="8.00" height="6.81" class="down-body"/>
<line x1="746.70" y1="410.72" x2="746.70" y2="422.35" class="up-wick"/>
<rect x="742.70" y="410.85" width="8.00" height="4.75" class="up-body"/>
<line x1="766.90" y1="401.16" x2="766.90" y2="413.89" class="up-wick"/>
<rect x="762.90" y="404.02" width="8.00" height="6.83" class="up-body"/>
<line x1="787.10" y1="395.84" x2="787.10" y2="407.52" class="up-wick"/>
<rect x="783.10" y="396.80" width="8.00" height="7.22" class="up-body"/>
<line x1="807.30" y1="374.91" x2="807.30" y2="399.07" class="up-wick"/>
<rect x="803.30" y="375.13" width="8.00" height="21.66" class="up-body"/>
<line x1="827.50" y1="371.43" x2="827.50" y2="387.61" class="down-wick"/>
<rect x="823.50" y="375.11" width="8.00" height="5.96" class="down-body"/>
<line x1="847.70" y1="366.18" x2="847.70" y2="381.88" class="up-wick"/>
<rect x="843.70" y="366.26" width="8.00" height="14.88" class="up-body"/>
<line x1="867.90" y1="361.33" x2="867.90" y2="376.25" class="down-wick"/>
<rect x="863.90" y="366.26" width="8.00" height="8.83" class="down-body"/>
<line x1="888.10" y1="370.88" x2="888.10" y2="386.09" class="down-wick"/>
<rect x="884.10" y="375.08" width="8.00" height="10.32" class="down-body"/>
<line x1="908.30" y1="376.94" x2="908.30" y2="387.64" class="up-wick"/>
<rect x="904.30" y="382.96" width="8.00" height="2.44" class="up-body"/>
<line x1="928.50" y1="378.81" x2="928.50" y2="391.75" class="down-wick"/>
<rect x="924.50" y="383.02" width="8.00" height="6.55" class="down-body"/>
<line x1="948.70" y1="381.82" x2="948.70" y2="393.63" class="down-wick"/>
<rect x="944.70" y="389.57" width="8.00" height="2.29" class="down-body"/>
<line x1="968.90" y1="380.33" x2="968.90" y2="398.15" class="up-wick"/>
<rect x="964.90" y="386.22" width="8.00" height="5.60" class="up-body"/>
<line x1="989.10" y1="381.97" x2="989.10" y2="396.25" class="down-wick"/>
<rect x="985.10" y="386.24" width="8.00" height="6.20" class="down-body"/>
<line x1="1009.30" y1="371.83" x2="1009.30" y2="396.03" class="up-wick"/>
<rect x="1005.30" y="375.17" width="8.00" height="17.30" class="up-body"/>
<line x1="1029.50" y1="367.41" x2="1029.50" y2="376.02" class="up-wick"/>
<rect x="1025.50" y="370.70" width="8.00" height="4.46" class="up-body"/>
<line x1="1049.70" y1="365.61" x2="1049.70" y2="373.83" class="up-wick"/>
<rect x="1045.70" y="367.81" width="8.00" height="3.20" class="up-body"/>
<line x1="1069.90" y1="359.24" x2="1069.90" y2="369.62" class="up-wick"/>
<rect x="1065.90" y="365.31" width="8.00" height="2.50" class="up-body"/>
<line x1="70" y1="368.11" x2="1080" y2="368.11" class="number-line"/>
<text x="1076" y="364.11" text-anchor="end" class="level-label">round 5170.00</text>
<line x1="70" y1="368.11" x2="1080" y2="368.11" class="entry-line"/>
<text x="1076" y="364.11" text-anchor="end" class="level-label">entry level 5170.00</text>
<text x="70" y="556" class="axis-label">2026-03-06 11:30:00+00:00 to 2026-03-06 23:45:00+00:00</text>
<text x="1080" y="556" text-anchor="end" class="axis-label">5053.76 - 5185.13</text>
<text x="70" y="582" class="panel-title">M5 reaction / execution context</text>
<rect x="70" y="596" width="1010" height="192" class="plot-bg"/>
<line x1="91.04" y1="692.50" x2="91.04" y2="735.28" class="down-wick"/>
<rect x="87.04" y="710.40" width="8.00" height="20.95" class="down-body"/>
<line x1="133.12" y1="700.33" x2="133.12" y2="731.79" class="up-wick"/>
<rect x="129.12" y="714.57" width="8.00" height="16.79" class="up-body"/>
<line x1="175.21" y1="714.57" x2="175.21" y2="747.52" class="down-wick"/>
<rect x="171.21" y="714.57" width="8.00" height="23.69" class="down-body"/>
<line x1="217.29" y1="720.60" x2="217.29" y2="744.23" class="down-wick"/>
<rect x="213.29" y="738.26" width="8.00" height="2.24" class="down-body"/>
<line x1="259.38" y1="714.94" x2="259.38" y2="755.55" class="up-wick"/>
<rect x="255.38" y="719.05" width="8.00" height="21.45" class="up-body"/>
<line x1="301.46" y1="705.31" x2="301.46" y2="752.87" class="down-wick"/>
<rect x="297.46" y="719.05" width="8.00" height="28.97" class="down-body"/>
<line x1="343.54" y1="730.55" x2="343.54" y2="764.75" class="down-wick"/>
<rect x="339.54" y="747.84" width="8.00" height="15.79" class="down-body"/>
<line x1="385.62" y1="734.28" x2="385.62" y2="774.76" class="up-wick"/>
<rect x="381.62" y="737.33" width="8.00" height="26.30" class="up-body"/>
<line x1="427.71" y1="698.96" x2="427.71" y2="752.00" class="up-wick"/>
<rect x="423.71" y="724.02" width="8.00" height="13.31" class="up-body"/>
<line x1="469.79" y1="711.71" x2="469.79" y2="732.91" class="up-wick"/>
<rect x="465.79" y="712.33" width="8.00" height="11.75" class="up-body"/>
<line x1="511.88" y1="705.93" x2="511.88" y2="749.64" class="down-wick"/>
<rect x="507.88" y="713.08" width="8.00" height="18.47" class="down-body"/>
<line x1="553.96" y1="731.42" x2="553.96" y2="766.68" class="down-wick"/>
<rect x="549.96" y="731.55" width="8.00" height="18.90" class="down-body"/>
<line x1="596.04" y1="699.90" x2="596.04" y2="765.74" class="up-wick"/>
<rect x="592.04" y="703.25" width="8.00" height="47.38" class="up-body"/>
<line x1="638.12" y1="663.90" x2="638.12" y2="703.32" class="up-wick"/>
<rect x="634.12" y="692.50" width="8.00" height="10.76" class="up-body"/>
<line x1="680.21" y1="662.78" x2="680.21" y2="695.05" class="up-wick"/>
<rect x="676.21" y="677.02" width="8.00" height="15.48" class="up-body"/>
<line x1="722.29" y1="645.24" x2="722.29" y2="680.62" class="up-wick"/>
<rect x="718.29" y="649.97" width="8.00" height="26.99" class="up-body"/>
<line x1="764.38" y1="644.00" x2="764.38" y2="656.99" class="down-wick"/>
<rect x="760.38" y="649.97" width="8.00" height="7.03" class="down-body"/>
<line x1="806.46" y1="645.68" x2="806.46" y2="675.90" class="down-wick"/>
<rect x="802.46" y="656.99" width="8.00" height="1.00" class="down-body"/>
<line x1="848.54" y1="640.45" x2="848.54" y2="671.29" class="up-wick"/>
<rect x="844.54" y="641.33" width="8.00" height="17.97" class="up-body"/>
<line x1="890.62" y1="636.35" x2="890.62" y2="652.27" class="down-wick"/>
<rect x="886.62" y="641.33" width="8.00" height="2.30" class="down-body"/>
<line x1="932.71" y1="639.21" x2="932.71" y2="658.30" class="down-wick"/>
<rect x="928.71" y="644.25" width="8.00" height="1.43" class="down-body"/>
<line x1="974.79" y1="636.10" x2="974.79" y2="653.39" class="up-wick"/>
<rect x="970.79" y="641.82" width="8.00" height="3.86" class="up-body"/>
<line x1="1016.88" y1="634.36" x2="1016.88" y2="648.10" class="up-wick"/>
<rect x="1012.88" y="640.45" width="8.00" height="1.37" class="up-body"/>
<line x1="1058.96" y1="609.24" x2="1058.96" y2="647.05" class="up-wick"/>
<rect x="1054.96" y="635.05" width="8.00" height="5.41" class="up-body"/>
<line x1="70" y1="646.98" x2="1080" y2="646.98" class="number-line"/>
<text x="1076" y="642.98" text-anchor="end" class="level-label">round 5170.00</text>
<line x1="70" y1="646.98" x2="1080" y2="646.98" class="entry-line"/>
<text x="1076" y="642.98" text-anchor="end" class="level-label">entry level 5170.00</text>
<text x="70" y="806" class="axis-label">2026-03-06 22:00:00+00:00 to 2026-03-06 23:55:00+00:00</text>
<text x="1080" y="806" text-anchor="end" class="axis-label">5147.32 - 5178.20</text>
<text x="70" y="832" class="panel-title">M1 execution window</text>
<rect x="70" y="846" width="1010" height="192" class="plot-bg"/>
<line x1="74.21" y1="942.56" x2="74.21" y2="970.48" class="up-wick"/>
<rect x="71.47" y="957.30" width="5.47" height="3.11" class="up-body"/>
<line x1="82.62" y1="950.89" x2="82.62" y2="970.85" class="down-wick"/>
<rect x="79.89" y="957.30" width="5.47" height="7.65" class="down-body"/>
<line x1="91.04" y1="942.50" x2="91.04" y2="965.63" class="up-wick"/>
<rect x="88.31" y="955.31" width="5.47" height="10.13" class="up-body"/>
<line x1="99.46" y1="949.27" x2="99.46" y2="962.27" class="up-wick"/>
<rect x="96.72" y="953.50" width="5.47" height="1.74" class="up-body"/>
<line x1="107.88" y1="953.50" x2="107.88" y2="985.28" class="down-wick"/>
<rect x="105.14" y="953.57" width="5.47" height="27.79" class="down-body"/>
<line x1="116.29" y1="958.60" x2="116.29" y2="981.48" class="up-wick"/>
<rect x="113.56" y="969.42" width="5.47" height="11.94" class="up-body"/>
<line x1="124.71" y1="953.63" x2="124.71" y2="970.97" class="up-wick"/>
<rect x="121.97" y="962.46" width="5.47" height="6.96" class="up-body"/>
<line x1="133.12" y1="950.33" x2="133.12" y2="968.80" class="up-wick"/>
<rect x="130.39" y="952.76" width="5.47" height="9.70" class="up-body"/>
<line x1="141.54" y1="952.69" x2="141.54" y2="981.79" class="down-wick"/>
<rect x="138.81" y="952.69" width="5.47" height="22.38" class="down-body"/>
<line x1="149.96" y1="964.57" x2="149.96" y2="975.89" class="up-wick"/>
<rect x="147.22" y="964.57" width="5.47" height="10.57" class="up-body"/>
<line x1="158.38" y1="964.57" x2="158.38" y2="997.52" class="down-wick"/>
<rect x="155.64" y="964.57" width="5.47" height="26.74" class="down-body"/>
<line x1="166.79" y1="980.24" x2="166.79" y2="993.61" class="up-wick"/>
<rect x="164.06" y="983.10" width="5.47" height="8.02" class="up-body"/>
<line x1="175.21" y1="975.20" x2="175.21" y2="986.64" class="down-wick"/>
<rect x="172.47" y="983.10" width="5.47" height="1.06" class="down-body"/>
<line x1="183.62" y1="978.56" x2="183.62" y2="989.01" class="down-wick"/>
<rect x="180.89" y="984.96" width="5.47" height="1.00" class="down-body"/>
<line x1="192.04" y1="979.99" x2="192.04" y2="991.18" class="down-wick"/>
<rect x="189.31" y="985.65" width="5.47" height="2.61" class="down-body"/>
<line x1="200.46" y1="982.35" x2="200.46" y2="993.55" class="up-wick"/>
<rect x="197.72" y="984.59" width="5.47" height="3.67" class="up-body"/>
<line x1="208.88" y1="972.22" x2="208.88" y2="984.59" class="up-wick"/>
<rect x="206.14" y="975.58" width="5.47" height="9.02" class="up-body"/>
<line x1="217.29" y1="971.29" x2="217.29" y2="982.17" class="down-wick"/>
<rect x="214.56" y="975.58" width="5.47" height="1.31" class="down-body"/>
<line x1="225.71" y1="970.60" x2="225.71" y2="981.42" class="down-wick"/>
<rect x="222.97" y="976.88" width="5.47" height="2.61" class="down-body"/>
<line x1="234.12" y1="979.12" x2="234.12" y2="994.23" class="down-wick"/>
<rect x="231.39" y="979.49" width="5.47" height="11.01" class="down-body"/>
<line x1="242.54" y1="985.84" x2="242.54" y2="996.59" class="up-wick"/>
<rect x="239.81" y="989.19" width="5.47" height="1.31" class="up-body"/>
<line x1="250.96" y1="988.07" x2="250.96" y2="1005.55" class="up-wick"/>
<rect x="248.22" y="988.63" width="5.47" height="1.00" class="up-body"/>
<line x1="259.38" y1="980.74" x2="259.38" y2="991.37" class="up-wick"/>
<rect x="256.64" y="982.35" width="5.47" height="6.28" class="up-body"/>
<line x1="267.79" y1="969.61" x2="267.79" y2="983.10" class="up-wick"/>
<rect x="265.06" y="979.12" width="5.47" height="3.23" class="up-body"/>
<line x1="276.21" y1="964.94" x2="276.21" y2="983.85" class="up-wick"/>
<rect x="273.47" y="969.05" width="5.47" height="10.07" class="up-body"/>
<line x1="284.62" y1="955.31" x2="284.62" y2="973.09" class="up-wick"/>
<rect x="281.89" y="957.73" width="5.47" height="11.32" class="up-body"/>
<line x1="293.04" y1="955.43" x2="293.04" y2="989.07" class="down-wick"/>
<rect x="290.31" y="957.73" width="5.47" height="26.67" class="down-body"/>
<line x1="301.46" y1="984.41" x2="301.46" y2="1001.38" class="down-wick"/>
<rect x="298.72" y="984.41" width="5.47" height="16.17" class="down-body"/>
<line x1="309.88" y1="984.78" x2="309.88" y2="1002.87" class="up-wick"/>
<rect x="307.14" y="990.50" width="5.47" height="10.07" class="up-body"/>
<line x1="318.29" y1="987.64" x2="318.29" y2="998.02" class="down-wick"/>
<rect x="315.56" y="991.24" width="5.47" height="6.78" class="down-body"/>
<line x1="326.71" y1="980.55" x2="326.71" y2="997.96" class="up-wick"/>
<rect x="323.97" y="994.66" width="5.47" height="3.17" class="up-body"/>
<line x1="335.12" y1="990.93" x2="335.12" y2="1000.57" class="down-wick"/>
<rect x="332.39" y="994.66" width="5.47" height="1.31" class="down-body"/>
<line x1="343.54" y1="990.75" x2="343.54" y2="1012.07" class="down-wick"/>
<rect x="340.81" y="995.97" width="5.47" height="14.43" class="down-body"/>
<line x1="351.96" y1="984.72" x2="351.96" y2="1010.46" class="up-wick"/>
<rect x="349.22" y="989.75" width="5.47" height="20.64" class="up-body"/>
<line x1="360.38" y1="989.75" x2="360.38" y2="1014.75" class="down-wick"/>
<rect x="357.64" y="989.75" width="5.47" height="23.88" class="down-body"/>
<line x1="368.79" y1="1008.03" x2="368.79" y2="1024.76" class="up-wick"/>
<rect x="366.06" y="1011.27" width="5.47" height="2.36" class="up-body"/>
<line x1="377.21" y1="1002.44" x2="377.21" y2="1014.13" class="up-wick"/>
<rect x="374.47" y="1005.73" width="5.47" height="5.53" class="up-body"/>
<line x1="385.62" y1="994.29" x2="385.62" y2="1008.65" class="up-wick"/>
<rect x="382.89" y="995.85" width="5.47" height="9.89" class="up-body"/>
<line x1="394.04" y1="995.66" x2="394.04" y2="1012.57" class="down-wick"/>
<rect x="391.31" y="995.85" width="5.47" height="14.80" class="down-body"/>
<line x1="402.46" y1="984.28" x2="402.46" y2="1009.77" class="up-wick"/>
<rect x="399.72" y="987.33" width="5.47" height="22.45" class="up-body"/>
<line x1="410.88" y1="948.96" x2="410.88" y2="1002.00" class="up-wick"/>
<rect x="408.14" y="954.44" width="5.47" height="32.89" class="up-body"/>
<line x1="419.29" y1="952.51" x2="419.29" y2="974.52" class="down-wick"/>
<rect x="416.56" y="954.50" width="5.47" height="14.36" class="down-body"/>
<line x1="427.71" y1="961.59" x2="427.71" y2="977.19" class="up-wick"/>
<rect x="424.97" y="966.00" width="5.47" height="3.48" class="up-body"/>
<line x1="436.12" y1="966.00" x2="436.12" y2="976.63" class="down-wick"/>
<rect x="433.39" y="966.06" width="5.47" height="5.91" class="down-body"/>
<line x1="444.54" y1="968.05" x2="444.54" y2="979.80" class="down-wick"/>
<rect x="441.81" y="971.97" width="5.47" height="2.05" class="down-body"/>
<line x1="452.96" y1="961.96" x2="452.96" y2="976.01" class="up-wick"/>
<rect x="450.22" y="965.19" width="5.47" height="8.89" class="up-body"/>
<line x1="461.38" y1="961.83" x2="461.38" y2="971.16" class="down-wick"/>
<rect x="458.64" y="965.25" width="5.47" height="2.80" class="down-body"/>
<line x1="469.79" y1="967.80" x2="469.79" y2="982.91" class="down-wick"/>
<rect x="467.06" y="968.05" width="5.47" height="8.27" class="down-body"/>
<line x1="478.21" y1="965.57" x2="478.21" y2="978.00" class="up-wick"/>
<rect x="475.47" y="968.99" width="5.47" height="7.34" class="up-body"/>
<line x1="486.62" y1="961.71" x2="486.62" y2="970.23" class="up-wick"/>
<rect x="483.89" y="962.33" width="5.47" height="6.65" class="up-body"/>
<line x1="495.04" y1="955.93" x2="495.04" y2="968.24" class="up-wick"/>
<rect x="492.31" y="960.72" width="5.47" height="2.36" class="up-body"/>
<line x1="503.46" y1="958.10" x2="503.46" y2="970.42" class="down-wick"/>
<rect x="500.72" y="960.72" width="5.47" height="9.58" class="down-body"/>
<line x1="511.87" y1="966.62" x2="511.87" y2="979.18" class="down-wick"/>
<rect x="509.14" y="970.29" width="5.47" height="6.34" class="down-body"/>
<line x1="520.29" y1="974.02" x2="520.29" y2="999.64" class="down-wick"/>
<rect x="517.56" y="976.63" width="5.47" height="21.39" class="down-body"/>
<line x1="528.71" y1="979.18" x2="528.71" y2="998.27" class="up-wick"/>
<rect x="525.97" y="981.55" width="5.47" height="16.73" class="up-body"/>
<line x1="537.12" y1="981.42" x2="537.12" y2="1003.74" class="down-wick"/>
<rect x="534.39" y="981.55" width="5.47" height="14.80" class="down-body"/>
<line x1="545.54" y1="992.86" x2="545.54" y2="1006.23" class="down-wick"/>
<rect x="542.81" y="996.34" width="5.47" height="6.40" class="down-body"/>
<line x1="553.96" y1="997.84" x2="553.96" y2="1008.65" class="down-wick"/>
<rect x="551.22" y="1002.75" width="5.47" height="5.72" class="down-body"/>
<line x1="562.38" y1="990.13" x2="562.38" y2="1010.77" class="up-wick"/>
<rect x="559.64" y="990.31" width="5.47" height="18.53" class="up-body"/>
<line x1="570.79" y1="986.89" x2="570.79" y2="1016.68" class="down-wick"/>
<rect x="568.06" y="990.56" width="5.47" height="9.89" class="down-body"/>
<line x1="579.21" y1="992.30" x2="579.21" y2="1015.74" class="up-wick"/>
<rect x="576.47" y="995.04" width="5.47" height="5.60" class="up-body"/>
<line x1="587.62" y1="978.37" x2="587.62" y2="999.64" class="up-wick"/>
<rect x="584.89" y="978.37" width="5.47" height="16.66" class="up-body"/>
<line x1="596.04" y1="976.14" x2="596.04" y2="984.53" class="up-wick"/>
<rect x="593.31" y="976.88" width="5.47" height="1.55" class="up-body"/>
<line x1="604.46" y1="964.88" x2="604.46" y2="976.88" class="up-wick"/>
<rect x="601.72" y="965.07" width="5.47" height="11.81" class="up-body"/>
<line x1="612.88" y1="949.90" x2="612.88" y2="965.07" class="up-wick"/>
<rect x="610.14" y="953.25" width="5.47" height="11.75" class="up-body"/>
<line x1="621.29" y1="915.26" x2="621.29" y2="953.32" class="up-wick"/>
<rect x="618.56" y="932.67" width="5.47" height="20.58" class="up-body"/>
<line x1="629.71" y1="924.59" x2="629.71" y2="939.51" class="up-wick"/>
<rect x="626.97" y="924.59" width="5.47" height="8.08" class="up-body"/>
<line x1="638.12" y1="913.90" x2="638.12" y2="924.59" class="up-wick"/>
<rect x="635.39" y="923.16" width="5.47" height="1.43" class="up-body"/>
<line x1="646.54" y1="923.47" x2="646.54" y2="942.81" class="down-wick"/>
<rect x="643.81" y="923.47" width="5.47" height="16.79" class="down-body"/>
<line x1="654.96" y1="936.40" x2="654.96" y2="943.93" class="down-wick"/>
<rect x="652.22" y="940.26" width="5.47" height="2.24" class="down-body"/>
<line x1="663.38" y1="924.65" x2="663.38" y2="945.05" class="up-wick"/>
<rect x="660.64" y="924.71" width="5.47" height="17.78" class="up-body"/>
<line x1="671.79" y1="914.33" x2="671.79" y2="927.33" class="up-wick"/>
<rect x="669.06" y="915.33" width="5.47" height="9.39" class="up-body"/>
<line x1="680.21" y1="913.27" x2="680.21" y2="927.33" class="down-wick"/>
<rect x="677.47" y="915.33" width="5.47" height="1.80" class="down-body"/>
<line x1="688.62" y1="912.78" x2="688.62" y2="928.26" class="down-wick"/>
<rect x="685.89" y="917.13" width="5.47" height="11.13" class="down-body"/>
<line x1="697.04" y1="924.40" x2="697.04" y2="928.69" class="up-wick"/>
<rect x="694.31" y="927.02" width="5.47" height="1.31" class="up-body"/>
<line x1="705.46" y1="919.68" x2="705.46" y2="930.62" class="down-wick"/>
<rect x="702.72" y="926.95" width="5.47" height="1.00" class="down-body"/>
<line x1="713.88" y1="905.69" x2="713.88" y2="928.76" class="up-wick"/>
<rect x="711.14" y="911.16" width="5.47" height="16.04" class="up-body"/>
<line x1="722.29" y1="902.14" x2="722.29" y2="916.07" class="down-wick"/>
<rect x="719.56" y="911.16" width="5.47" height="1.49" class="down-body"/>
<line x1="730.71" y1="901.34" x2="730.71" y2="914.52" class="up-wick"/>
<rect x="727.97" y="902.21" width="5.47" height="10.45" class="up-body"/>
<line x1="739.12" y1="895.24" x2="739.12" y2="903.57" class="up-wick"/>
<rect x="736.39" y="899.97" width="5.47" height="2.24" class="up-body"/>
<line x1="747.54" y1="895.37" x2="747.54" y2="906.37" class="up-wick"/>
<rect x="744.81" y="897.36" width="5.47" height="2.61" class="up-body"/>
<line x1="755.96" y1="894.00" x2="755.96" y2="901.02" class="down-wick"/>
<rect x="753.22" y="897.36" width="5.47" height="1.93" class="down-body"/>
<line x1="764.38" y1="897.29" x2="764.38" y2="899.72" class="up-wick"/>
<rect x="761.64" y="897.79" width="5.47" height="1.49" class="up-body"/>
<line x1="772.79" y1="895.55" x2="772.79" y2="898.85" class="up-wick"/>
<rect x="770.06" y="896.49" width="5.47" height="1.24" class="up-body"/>
<line x1="781.21" y1="896.49" x2="781.21" y2="906.99" class="down-wick"/>
<rect x="778.47" y="896.49" width="5.47" height="10.51" class="down-body"/>
<line x1="789.62" y1="906.99" x2="789.62" y2="922.23" class="down-wick"/>
<rect x="786.89" y="906.99" width="5.47" height="13.49" class="down-body"/>
<line x1="798.04" y1="913.77" x2="798.04" y2="925.90" class="up-wick"/>
<rect x="795.31" y="913.83" width="5.47" height="6.65" class="up-body"/>
<line x1="806.46" y1="909.11" x2="806.46" y2="923.35" class="up-wick"/>
<rect x="803.72" y="909.17" width="5.47" height="4.66" class="up-body"/>
<line x1="814.88" y1="895.68" x2="814.88" y2="911.53" class="up-wick"/>
<rect x="812.14" y="906.62" width="5.47" height="2.55" class="up-body"/>
<line x1="823.29" y1="900.09" x2="823.29" y2="908.11" class="down-wick"/>
<rect x="820.56" y="906.62" width="5.47" height="1.37" class="down-body"/>
<line x1="831.71" y1="907.37" x2="831.71" y2="921.29" class="down-wick"/>
<rect x="828.97" y="909.29" width="5.47" height="8.83" class="down-body"/>
<line x1="840.12" y1="909.29" x2="840.12" y2="918.19" class="up-wick"/>
<rect x="837.39" y="910.79" width="5.47" height="7.40" class="up-body"/>
<line x1="848.54" y1="906.50" x2="848.54" y2="912.84" class="up-wick"/>
<rect x="845.81" y="910.04" width="5.47" height="1.00" class="up-body"/>
<line x1="856.96" y1="890.45" x2="856.96" y2="910.04" class="up-wick"/>
<rect x="854.22" y="894.43" width="5.47" height="14.92" class="up-body"/>
<line x1="865.38" y1="891.26" x2="865.38" y2="904.20" class="up-wick"/>
<rect x="862.64" y="891.33" width="5.47" height="3.11" class="up-body"/>
<line x1="873.79" y1="886.35" x2="873.79" y2="893.07" class="up-wick"/>
<rect x="871.06" y="888.65" width="5.47" height="2.67" class="up-body"/>
<line x1="882.21" y1="888.03" x2="882.21" y2="897.23" class="down-wick"/>
<rect x="879.47" y="888.65" width="5.47" height="5.41" class="down-body"/>
<line x1="890.62" y1="891.20" x2="890.62" y2="902.27" class="down-wick"/>
<rect x="887.89" y="894.06" width="5.47" height="8.21" class="down-body"/>
<line x1="899.04" y1="892.51" x2="899.04" y2="902.27" class="up-wick"/>
<rect x="896.31" y="893.56" width="5.47" height="8.64" class="up-body"/>
<line x1="907.46" y1="890.64" x2="907.46" y2="895.99" class="up-wick"/>
<rect x="904.72" y="893.63" width="5.47" height="1.18" class="up-body"/>
<line x1="915.87" y1="889.21" x2="915.87" y2="894.56" class="up-wick"/>
<rect x="913.14" y="890.45" width="5.47" height="3.79" class="up-body"/>
<line x1="924.29" y1="890.45" x2="924.29" y2="904.38" class="down-wick"/>
<rect x="921.56" y="890.45" width="5.47" height="8.27" class="down-body"/>
<line x1="932.71" y1="889.58" x2="932.71" y2="898.85" class="up-wick"/>
<rect x="929.97" y="893.87" width="5.47" height="4.85" class="up-body"/>
<line x1="941.12" y1="890.89" x2="941.12" y2="896.92" class="up-wick"/>
<rect x="938.39" y="891.20" width="5.47" height="2.92" class="up-body"/>
<line x1="949.54" y1="891.14" x2="949.54" y2="908.30" class="down-wick"/>
<rect x="946.81" y="891.20" width="5.47" height="4.48" class="down-body"/>
<line x1="957.96" y1="893.19" x2="957.96" y2="901.15" class="down-wick"/>
<rect x="955.22" y="895.68" width="5.47" height="5.35" class="down-body"/>
<line x1="966.37" y1="895.43" x2="966.37" y2="903.39" class="up-wick"/>
<rect x="963.64" y="895.43" width="5.47" height="5.60" class="up-body"/>
<line x1="974.79" y1="893.69" x2="974.79" y2="897.17" class="up-wick"/>
<rect x="972.06" y="894.50" width="5.47" height="1.00" class="up-body"/>
<line x1="983.21" y1="891.45" x2="983.21" y2="897.92" class="up-wick"/>
<rect x="980.47" y="893.31" width="5.47" height="1.18" class="up-body"/>
<line x1="991.62" y1="886.10" x2="991.62" y2="897.67" class="up-wick"/>
<rect x="988.89" y="891.82" width="5.47" height="1.49" class="up-body"/>
<line x1="1000.04" y1="887.72" x2="1000.04" y2="892.32" class="down-wick"/>
<rect x="997.31" y="891.82" width="5.47" height="1.00" class="down-body"/>
<line x1="1008.46" y1="888.78" x2="1008.46" y2="893.75" class="up-wick"/>
<rect x="1005.72" y="888.90" width="5.47" height="3.36" class="up-body"/>
<line x1="1016.87" y1="888.84" x2="1016.87" y2="898.10" class="down-wick"/>
<rect x="1014.14" y="888.84" width="5.47" height="3.73" class="down-body"/>
<line x1="1025.29" y1="884.36" x2="1025.29" y2="893.50" class="up-wick"/>
<rect x="1022.56" y="892.13" width="5.47" height="1.00" class="up-body"/>
<line x1="1033.71" y1="884.61" x2="1033.71" y2="893.94" class="up-wick"/>
<rect x="1030.97" y="890.45" width="5.47" height="1.49" class="up-body"/>
<line x1="1042.12" y1="883.12" x2="1042.12" y2="896.30" class="up-wick"/>
<rect x="1039.39" y="887.35" width="5.47" height="3.11" class="up-body"/>
<line x1="1050.54" y1="870.93" x2="1050.54" y2="887.16" class="up-wick"/>
<rect x="1047.81" y="873.36" width="5.47" height="13.31" class="up-body"/>
<line x1="1058.96" y1="859.24" x2="1058.96" y2="880.32" class="down-wick"/>
<rect x="1056.22" y="873.36" width="5.47" height="1.55" class="down-body"/>
<line x1="1067.38" y1="873.42" x2="1067.38" y2="895.24" class="down-wick"/>
<rect x="1064.64" y="873.54" width="5.47" height="18.65" class="down-body"/>
<line x1="1075.79" y1="879.64" x2="1075.79" y2="897.05" class="up-wick"/>
<rect x="1073.06" y="885.05" width="5.47" height="7.15" class="up-body"/>
<line x1="70" y1="896.98" x2="1080" y2="896.98" class="number-line"/>
<text x="1076" y="892.98" text-anchor="end" class="level-label">round 5170.00</text>
<line x1="70" y1="896.98" x2="1080" y2="896.98" class="entry-line"/>
<text x="1076" y="892.98" text-anchor="end" class="level-label">entry level 5170.00</text>
<text x="70" y="1056" class="axis-label">2026-03-06 22:00:00+00:00 to 2026-03-06 23:59:00+00:00</text>
<text x="1080" y="1056" text-anchor="end" class="axis-label">5147.32 - 5178.20</text>
</svg>