<svg xmlns="http://www.w3.org/2000/svg" width="1120" height="1054" viewBox="0 0 1120 1054">
<style>
text{font-family:Arial,Helvetica,sans-serif}.title{font-size:21px;font-weight:700;fill:#1f2937}.subtitle{font-size:12px;fill:#4b5563}.panel-title{font-size:15px;font-weight:700;fill:#111827}.muted{font-size:13px;fill:#6b7280}.plot-bg{fill:#f8fafc;stroke:#cbd5e1;stroke-width:1}.up-body{fill:#15803d;stroke:#14532d;stroke-width:.8}.down-body{fill:#b91c1c;stroke:#7f1d1d;stroke-width:.8}.up-wick{stroke:#14532d;stroke-width:1}.down-wick{stroke:#7f1d1d;stroke-width:1}.sweep-line{stroke:#7c3aed;stroke-width:1.6;stroke-dasharray:6 4}.number-line{stroke:#0f766e;stroke-width:1.4;stroke-dasharray:3 4}.entry-line{stroke:#2563eb;stroke-width:1.4}.sl-line{stroke:#dc2626;stroke-width:1.4}.tp-line{stroke:#16a34a;stroke-width:1.4}.level-label,.axis-label{font-size:11px;fill:#374151}
</style>
<text x="28" y="28" class="title">Adelin v2 visual review sample sample_272</text>
<text x="28" y="48" class="subtitle">Candidate windows are for visual labeling only and are not trade signals.</text>
<text x="560" y="48" class="subtitle" text-anchor="middle">NUMBER_THEORY_LEVEL_NEAR | ROUND_LEVEL_ENTRY_METADATA_AVAILABLE</text>
<text x="70" y="82" class="panel-title">H1 liquidity context</text>
<rect x="70" y="96" width="1010" height="192" class="plot-bg"/>
<line x1="81.22" y1="208.56" x2="81.22" y2="218.61" class="up-wick"/>
<rect x="77.22" y="211.52" width="8.00" height="7.10" class="up-body"/>
<line x1="103.67" y1="208.81" x2="103.67" y2="215.34" class="down-wick"/>
<rect x="99.67" y="211.52" width="8.00" height="3.82" class="down-body"/>
<line x1="126.11" y1="205.00" x2="126.11" y2="221.81" class="up-wick"/>
<rect x="122.11" y="211.97" width="8.00" height="3.36" class="up-body"/>
<line x1="148.56" y1="211.15" x2="148.56" y2="241.53" class="down-wick"/>
<rect x="144.56" y="211.97" width="8.00" height="5.76" class="down-body"/>
<line x1="171.00" y1="212.06" x2="171.00" y2="223.31" class="down-wick"/>
<rect x="167.00" y="217.73" width="8.00" height="5.45" class="down-body"/>
<line x1="193.44" y1="208.49" x2="193.44" y2="223.18" class="up-wick"/>
<rect x="189.44" y="213.67" width="8.00" height="9.51" class="up-body"/>
<line x1="215.89" y1="201.51" x2="215.89" y2="214.33" class="up-wick"/>
<rect x="211.89" y="203.12" width="8.00" height="10.55" class="up-body"/>
<line x1="238.33" y1="199.59" x2="238.33" y2="213.13" class="down-wick"/>
<rect x="234.33" y="203.16" width="8.00" height="9.48" class="down-body"/>
<line x1="260.78" y1="211.55" x2="260.78" y2="228.85" class="down-wick"/>
<rect x="256.78" y="212.64" width="8.00" height="9.95" class="down-body"/>
<line x1="283.22" y1="212.08" x2="283.22" y2="229.47" class="down-wick"/>
<rect x="279.22" y="222.59" width="8.00" height="1.00" class="down-body"/>
<line x1="305.67" y1="209.77" x2="305.67" y2="227.12" class="up-wick"/>
<rect x="301.67" y="210.81" width="8.00" height="12.54" class="up-body"/>
<line x1="328.11" y1="205.42" x2="328.11" y2="217.16" class="down-wick"/>
<rect x="324.11" y="210.81" width="8.00" height="6.03" class="down-body"/>
<line x1="350.56" y1="212.97" x2="350.56" y2="225.62" class="down-wick"/>
<rect x="346.56" y="216.84" width="8.00" height="3.26" class="down-body"/>
<line x1="373.00" y1="193.56" x2="373.00" y2="224.21" class="up-wick"/>
<rect x="369.00" y="207.35" width="8.00" height="12.74" class="up-body"/>
<line x1="395.44" y1="154.75" x2="395.44" y2="208.94" class="up-wick"/>
<rect x="391.44" y="156.15" width="8.00" height="51.21" class="up-body"/>
<line x1="417.89" y1="109.24" x2="417.89" y2="168.58" class="up-wick"/>
<rect x="413.89" y="119.36" width="8.00" height="36.79" class="up-body"/>
<line x1="440.33" y1="113.75" x2="440.33" y2="140.49" class="down-wick"/>
<rect x="436.33" y="119.32" width="8.00" height="8.02" class="down-body"/>
<line x1="462.78" y1="119.10" x2="462.78" y2="147.09" class="down-wick"/>
<rect x="458.78" y="127.31" width="8.00" height="5.87" class="down-body"/>
<line x1="485.22" y1="126.72" x2="485.22" y2="137.47" class="down-wick"/>
<rect x="481.22" y="133.18" width="8.00" height="1.00" class="down-body"/>
<line x1="507.67" y1="130.99" x2="507.67" y2="148.22" class="down-wick"/>
<rect x="503.67" y="133.81" width="8.00" height="4.70" class="down-body"/>
<line x1="530.11" y1="132.59" x2="530.11" y2="145.79" class="down-wick"/>
<rect x="526.11" y="138.52" width="8.00" height="4.74" class="down-body"/>
<line x1="552.56" y1="139.98" x2="552.56" y2="149.27" class="down-wick"/>
<rect x="548.56" y="143.27" width="8.00" height="4.12" class="down-body"/>
<line x1="575.00" y1="211.49" x2="575.00" y2="251.95" class="up-wick"/>
<rect x="571.00" y="228.76" width="8.00" height="9.44" class="up-body"/>
<line x1="597.44" y1="228.67" x2="597.44" y2="274.76" class="down-wick"/>
<rect x="593.44" y="228.76" width="8.00" height="26.31" class="down-body"/>
<line x1="619.89" y1="234.25" x2="619.89" y2="266.36" class="up-wick"/>
<rect x="615.89" y="236.23" width="8.00" height="18.84" class="up-body"/>
<line x1="642.33" y1="190.75" x2="642.33" y2="237.42" class="up-wick"/>
<rect x="638.33" y="198.01" width="8.00" height="38.22" class="up-body"/>
<line x1="664.78" y1="196.56" x2="664.78" y2="213.81" class="down-wick"/>
<rect x="660.78" y="198.01" width="8.00" height="11.25" class="down-body"/>
<line x1="687.22" y1="208.09" x2="687.22" y2="218.60" class="down-wick"/>
<rect x="683.22" y="209.26" width="8.00" height="7.08" class="down-body"/>
<line x1="709.67" y1="211.11" x2="709.67" y2="220.40" class="down-wick"/>
<rect x="705.67" y="216.09" width="8.00" height="2.44" class="down-body"/>
<line x1="732.11" y1="210.68" x2="732.11" y2="228.47" class="up-wick"/>
<rect x="728.11" y="216.36" width="8.00" height="2.15" class="up-body"/>
<line x1="754.56" y1="211.37" x2="754.56" y2="223.81" class="up-wick"/>
<rect x="750.56" y="211.37" width="8.00" height="4.99" class="up-body"/>
<line x1="777.00" y1="200.18" x2="777.00" y2="220.66" class="down-wick"/>
<rect x="773.00" y="211.38" width="8.00" height="6.16" class="down-body"/>
<line x1="799.44" y1="210.51" x2="799.44" y2="221.44" class="up-wick"/>
<rect x="795.44" y="210.55" width="8.00" height="6.99" class="up-body"/>
<line x1="821.89" y1="208.71" x2="821.89" y2="224.26" class="down-wick"/>
<rect x="817.89" y="210.55" width="8.00" height="4.90" class="down-body"/>
<line x1="844.33" y1="205.33" x2="844.33" y2="217.27" class="up-wick"/>
<rect x="840.33" y="210.94" width="8.00" height="4.51" class="up-body"/>
<line x1="866.78" y1="194.66" x2="866.78" y2="220.92" class="up-wick"/>
<rect x="862.78" y="195.03" width="8.00" height="15.91" class="up-body"/>
<line x1="889.22" y1="182.47" x2="889.22" y2="207.29" class="down-wick"/>
<rect x="885.22" y="195.03" width="8.00" height="7.63" class="down-body"/>
<line x1="911.67" y1="177.90" x2="911.67" y2="206.78" class="up-wick"/>
<rect x="907.67" y="186.95" width="8.00" height="15.69" class="up-body"/>
<line x1="934.11" y1="176.47" x2="934.11" y2="214.44" class="down-wick"/>
<rect x="930.11" y="186.95" width="8.00" height="13.61" class="down-body"/>
<line x1="956.56" y1="196.11" x2="956.56" y2="214.03" class="down-wick"/>
<rect x="952.56" y="200.57" width="8.00" height="6.18" class="down-body"/>
<line x1="979.00" y1="199.51" x2="979.00" y2="214.16" class="up-wick"/>
<rect x="975.00" y="200.41" width="8.00" height="6.33" class="up-body"/>
<line x1="1001.44" y1="193.22" x2="1001.44" y2="202.17" class="up-wick"/>
<rect x="997.44" y="199.09" width="8.00" height="1.31" class="up-body"/>
<line x1="1023.89" y1="188.44" x2="1023.89" y2="199.09" class="up-wick"/>
<rect x="1019.89" y="191.14" width="8.00" height="7.96" class="up-body"/>
<line x1="1046.33" y1="183.23" x2="1046.33" y2="194.93" class="up-wick"/>
<rect x="1042.33" y="190.90" width="8.00" height="1.00" class="up-body"/>
<line x1="1068.78" y1="170.37" x2="1068.78" y2="184.60" class="up-wick"/>
<rect x="1064.78" y="176.46" width="8.00" height="7.94" class="up-body"/>
<line x1="70" y1="217.24" x2="1080" y2="217.24" class="number-line"/>
<text x="1076" y="213.24" text-anchor="end" class="level-label">round 4790.00</text>
<line x1="70" y1="217.24" x2="1080" y2="217.24" class="entry-line"/>
<text x="1076" y="213.24" text-anchor="end" class="level-label">entry level 4790.00</text>
<text x="70" y="306" class="axis-label">2026-04-17 01:00:00+00:00 to 2026-04-21 01:00:00+00:00</text>
<text x="1080" y="306" text-anchor="end" class="axis-label">4724.71 - 4901.86</text>
<text x="70" y="332" class="panel-title">M15 liquidity / reaction context</text>
<rect x="70" y="346" width="1010" height="192" class="plot-bg"/>
<line x1="90.20" y1="401.61" x2="90.20" y2="479.83" class="up-wick"/>
<rect x="86.20" y="410.81" width="8.00" height="41.92" class="up-body"/>
<line x1="130.60" y1="400.11" x2="130.60" y2="424.09" class="down-wick"/>
<rect x="126.60" y="410.92" width="8.00" height="10.70" class="down-body"/>
<line x1="171.00" y1="409.53" x2="171.00" y2="434.00" class="down-wick"/>
<rect x="167.00" y="421.55" width="8.00" height="9.87" class="down-body"/>
<line x1="211.40" y1="418.03" x2="211.40" y2="436.97" class="down-wick"/>
<rect x="207.40" y="431.40" width="8.00" height="2.73" class="down-body"/>
<line x1="251.80" y1="433.96" x2="251.80" y2="449.83" class="down-wick"/>
<rect x="247.80" y="434.13" width="8.00" height="14.73" class="down-body"/>
<line x1="292.20" y1="441.63" x2="292.20" y2="458.26" class="down-wick"/>
<rect x="288.20" y="448.87" width="8.00" height="7.20" class="down-body"/>
<line x1="332.60" y1="446.88" x2="332.60" y2="505.58" class="down-wick"/>
<rect x="328.60" y="456.06" width="8.00" height="37.20" class="down-body"/>
<line x1="373.00" y1="485.49" x2="373.00" y2="524.76" class="up-wick"/>
<rect x="369.00" y="485.96" width="8.00" height="6.77" class="up-body"/>
<line x1="413.40" y1="485.51" x2="413.40" y2="508.21" class="down-wick"/>
<rect x="409.40" y="485.96" width="8.00" height="5.96" class="down-body"/>
<line x1="453.80" y1="462.81" x2="453.80" y2="492.58" class="up-wick"/>
<rect x="449.80" y="463.94" width="8.00" height="27.97" class="up-body"/>
<line x1="494.20" y1="458.13" x2="494.20" y2="473.10" class="down-wick"/>
<rect x="490.20" y="463.94" width="8.00" height="2.71" class="down-body"/>
<line x1="534.60" y1="444.96" x2="534.60" y2="476.58" class="up-wick"/>
<rect x="530.60" y="448.84" width="8.00" height="17.81" class="up-body"/>
<line x1="575.00" y1="401.82" x2="575.00" y2="451.19" class="up-wick"/>
<rect x="571.00" y="403.47" width="8.00" height="45.38" class="up-body"/>
<line x1="615.40" y1="382.18" x2="615.40" y2="414.53" class="up-wick"/>
<rect x="611.40" y="384.14" width="8.00" height="19.33" class="up-body"/>
<line x1="655.80" y1="363.79" x2="655.80" y2="387.28" class="up-wick"/>
<rect x="651.80" y="375.49" width="8.00" height="8.65" class="up-body"/>
<line x1="696.20" y1="359.24" x2="696.20" y2="377.39" class="up-wick"/>
<rect x="692.20" y="373.55" width="8.00" height="2.39" class="up-body"/>
<line x1="736.60" y1="370.69" x2="736.60" y2="388.67" class="down-wick"/>
<rect x="732.60" y="373.55" width="8.00" height="14.58" class="down-body"/>
<line x1="777.00" y1="382.03" x2="777.00" y2="393.62" class="down-wick"/>
<rect x="773.00" y="388.13" width="8.00" height="1.49" class="down-body"/>
<line x1="817.40" y1="385.85" x2="817.40" y2="401.22" class="down-wick"/>
<rect x="813.40" y="389.69" width="8.00" height="8.50" class="down-body"/>
<line x1="857.80" y1="395.35" x2="857.80" y2="404.68" class="up-wick"/>
<rect x="853.80" y="395.71" width="8.00" height="2.48" class="up-body"/>
<line x1="898.20" y1="393.41" x2="898.20" y2="410.34" class="down-wick"/>
<rect x="894.20" y="395.71" width="8.00" height="12.34" class="down-body"/>
<line x1="938.60" y1="398.79" x2="938.60" y2="414.12" class="up-wick"/>
<rect x="934.60" y="400.39" width="8.00" height="7.67" class="up-body"/>
<line x1="979.00" y1="397.00" x2="979.00" y2="411.37" class="down-wick"/>
<rect x="975.00" y="400.37" width="8.00" height="3.25" class="down-body"/>
<line x1="1019.40" y1="401.54" x2="1019.40" y2="413.42" class="down-wick"/>
<rect x="1015.40" y="403.62" width="8.00" height="6.04" class="down-body"/>
<line x1="1059.80" y1="399.37" x2="1059.80" y2="409.32" class="up-wick"/>
<rect x="1055.80" y="405.32" width="8.00" height="3.84" class="up-body"/>
<line x1="70" y1="411.43" x2="1080" y2="411.43" class="number-line"/>
<text x="1076" y="407.43" text-anchor="end" class="level-label">round 4790.00</text>
<line x1="70" y1="411.43" x2="1080" y2="411.43" class="entry-line"/>
<text x="1076" y="407.43" text-anchor="end" class="level-label">entry level 4790.00</text>
<text x="70" y="556" class="axis-label">2026-04-20 01:00:00+00:00 to 2026-04-20 07:00:00+00:00</text>
<text x="1080" y="556" text-anchor="end" class="axis-label">4730.73 - 4820.64</text>
<text x="70" y="582" class="panel-title">M5 reaction / execution context</text>
<rect x="70" y="596" width="1010" height="192" class="plot-bg"/>
<line x1="83.65" y1="630.45" x2="83.65" y2="715.10" class="up-wick"/>
<rect x="79.65" y="665.50" width="8.00" height="13.61" class="up-body"/>
<line x1="110.95" y1="615.74" x2="110.95" y2="678.80" class="up-wick"/>
<rect x="106.95" y="616.81" width="8.00" height="48.69" class="up-body"/>
<line x1="138.24" y1="611.23" x2="138.24" y2="646.22" class="down-wick"/>
<rect x="134.24" y="616.81" width="8.00" height="6.64" class="down-body"/>
<line x1="165.54" y1="609.24" x2="165.54" y2="627.56" class="up-wick"/>
<rect x="161.54" y="618.97" width="8.00" height="4.62" class="up-body"/>
<line x1="192.84" y1="612.90" x2="192.84" y2="640.77" class="down-wick"/>
<rect x="188.84" y="618.97" width="8.00" height="20.70" class="down-body"/>
<line x1="220.14" y1="626.77" x2="220.14" y2="641.09" class="up-wick"/>
<rect x="216.14" y="637.80" width="8.00" height="1.50" class="up-body"/>
<line x1="247.43" y1="621.75" x2="247.43" y2="639.61" class="up-wick"/>
<rect x="243.43" y="636.61" width="8.00" height="1.11" class="up-body"/>
<line x1="274.73" y1="632.10" x2="274.73" y2="643.55" class="down-wick"/>
<rect x="270.73" y="636.24" width="8.00" height="3.88" class="down-body"/>
<line x1="302.03" y1="639.21" x2="302.03" y2="654.24" class="down-wick"/>
<rect x="298.03" y="640.12" width="8.00" height="10.69" class="down-body"/>
<line x1="329.32" y1="636.12" x2="329.32" y2="651.32" class="up-wick"/>
<rect x="325.32" y="637.14" width="8.00" height="13.64" class="up-body"/>
<line x1="356.62" y1="633.03" x2="356.62" y2="645.99" class="down-wick"/>
<rect x="352.62" y="637.12" width="8.00" height="8.68" class="down-body"/>
<line x1="383.92" y1="643.33" x2="383.92" y2="658.18" class="down-wick"/>
<rect x="379.92" y="645.79" width="8.00" height="8.62" class="down-body"/>
<line x1="411.22" y1="654.19" x2="411.22" y2="672.79" class="down-wick"/>
<rect x="407.22" y="654.41" width="8.00" height="9.13" class="down-body"/>
<line x1="438.51" y1="661.05" x2="438.51" y2="675.26" class="down-wick"/>
<rect x="434.51" y="663.54" width="8.00" height="1.28" class="down-body"/>
<line x1="465.81" y1="655.66" x2="465.81" y2="674.63" class="down-wick"/>
<rect x="461.81" y="664.71" width="8.00" height="9.27" class="down-body"/>
<line x1="493.11" y1="664.37" x2="493.11" y2="678.60" class="up-wick"/>
<rect x="489.11" y="672.48" width="8.00" height="1.50" class="up-body"/>
<line x1="520.41" y1="672.53" x2="520.41" y2="684.98" class="down-wick"/>
<rect x="516.41" y="672.56" width="8.00" height="6.55" class="down-body"/>
<line x1="547.70" y1="675.37" x2="547.70" y2="686.46" class="down-wick"/>
<rect x="543.70" y="679.11" width="8.00" height="4.42" class="down-body"/>
<line x1="575.00" y1="671.34" x2="575.00" y2="686.46" class="up-wick"/>
<rect x="571.00" y="677.21" width="8.00" height="6.32" class="up-body"/>
<line x1="602.30" y1="676.33" x2="602.30" y2="711.27" class="down-wick"/>
<rect x="598.30" y="677.21" width="8.00" height="20.79" class="down-body"/>
<line x1="629.59" y1="697.43" x2="629.59" y2="749.29" class="down-wick"/>
<rect x="625.59" y="698.00" width="8.00" height="34.94" class="down-body"/>
<line x1="656.89" y1="731.94" x2="656.89" y2="774.76" class="down-wick"/>
<rect x="652.89" y="732.22" width="8.00" height="22.71" class="down-body"/>
<line x1="684.19" y1="729.96" x2="684.19" y2="755.22" class="up-wick"/>
<rect x="680.19" y="730.38" width="8.00" height="24.59" class="up-body"/>
<line x1="711.49" y1="722.61" x2="711.49" y2="737.75" class="up-wick"/>
<rect x="707.49" y="723.23" width="8.00" height="7.15" class="up-body"/>
<line x1="738.78" y1="722.92" x2="738.78" y2="752.78" class="down-wick"/>
<rect x="734.78" y="723.23" width="8.00" height="15.26" class="down-body"/>
<line x1="766.08" y1="725.70" x2="766.08" y2="746.18" class="up-wick"/>
<rect x="762.08" y="730.86" width="8.00" height="7.54" class="up-body"/>
<line x1="793.38" y1="722.64" x2="793.38" y2="738.97" class="down-wick"/>
<rect x="789.38" y="730.86" width="8.00" height="1.00" class="down-body"/>
<line x1="820.68" y1="711.64" x2="820.68" y2="732.03" class="up-wick"/>
<rect x="816.68" y="713.82" width="8.00" height="17.33" class="up-body"/>
<line x1="847.97" y1="701.00" x2="847.97" y2="718.56" class="up-wick"/>
<rect x="843.97" y="701.88" width="8.00" height="11.94" class="up-body"/>
<line x1="875.27" y1="692.50" x2="875.27" y2="703.61" class="up-wick"/>
<rect x="871.27" y="694.00" width="8.00" height="7.88" class="up-body"/>
<line x1="902.57" y1="686.29" x2="902.57" y2="704.12" class="up-wick"/>
<rect x="898.57" y="692.52" width="8.00" height="1.47" class="up-body"/>
<line x1="929.86" y1="691.59" x2="929.86" y2="706.16" class="down-wick"/>
<rect x="925.86" y="692.52" width="8.00" height="2.67" class="down-body"/>
<line x1="957.16" y1="693.09" x2="957.16" y2="699.19" class="down-wick"/>
<rect x="953.16" y="695.19" width="8.00" height="2.41" class="down-body"/>
<line x1="984.46" y1="686.60" x2="984.46" y2="701.83" class="up-wick"/>
<rect x="980.46" y="697.12" width="8.00" height="1.00" class="up-body"/>
<line x1="1011.76" y1="695.05" x2="1011.76" y2="710.79" class="down-wick"/>
<rect x="1007.76" y="696.98" width="8.00" height="2.01" class="down-body"/>
<line x1="1039.05" y1="668.79" x2="1039.05" y2="704.97" class="up-wick"/>
<rect x="1035.05" y="673.95" width="8.00" height="25.04" class="up-body"/>
<line x1="1066.35" y1="628.41" x2="1066.35" y2="677.07" class="up-wick"/>
<rect x="1062.35" y="630.88" width="8.00" height="43.07" class="up-body"/>
<line x1="70" y1="624.27" x2="1080" y2="624.27" class="number-line"/>
<text x="1076" y="620.27" text-anchor="end" class="level-label">round 4790.00</text>
<line x1="70" y1="624.27" x2="1080" y2="624.27" class="entry-line"/>
<text x="1076" y="620.27" text-anchor="end" class="level-label">entry level 4790.00</text>
<text x="70" y="806" class="axis-label">2026-04-20 01:00:00+00:00 to 2026-04-20 04:00:00+00:00</text>
<text x="1080" y="806" text-anchor="end" class="axis-label">4732.26 - 4799.97</text>
<text x="70" y="832" class="panel-title">M1 execution window</text>
<rect x="70" y="846" width="1010" height="192" class="plot-bg"/>
<line x1="72.79" y1="918.00" x2="72.79" y2="958.83" class="down-wick"/>
<rect x="70.98" y="929.11" width="3.63" height="22.00" class="down-body"/>
<line x1="78.37" y1="900.81" x2="78.37" y2="965.10" class="up-wick"/>
<rect x="76.56" y="905.58" width="3.63" height="45.54" class="up-body"/>
<line x1="83.95" y1="891.28" x2="83.95" y2="910.91" class="down-wick"/>
<rect x="82.14" y="905.58" width="3.63" height="1.62" class="down-body"/>
<line x1="89.53" y1="880.45" x2="89.53" y2="907.19" class="up-wick"/>
<rect x="87.72" y="896.13" width="3.63" height="11.06" class="up-body"/>
<line x1="95.11" y1="896.13" x2="95.11" y2="925.40" class="down-wick"/>
<rect x="93.30" y="896.13" width="3.63" height="19.37" class="down-body"/>
<line x1="100.69" y1="912.10" x2="100.69" y2="928.80" class="down-wick"/>
<rect x="98.88" y="915.50" width="3.63" height="4.65" class="down-body"/>
<line x1="106.27" y1="891.03" x2="106.27" y2="920.92" class="up-wick"/>
<rect x="104.46" y="894.23" width="3.63" height="26.29" class="up-body"/>
<line x1="111.85" y1="888.56" x2="111.85" y2="909.09" class="down-wick"/>
<rect x="110.04" y="894.23" width="3.63" height="1.00" class="down-body"/>
<line x1="117.43" y1="886.83" x2="117.43" y2="904.95" class="up-wick"/>
<rect x="115.62" y="891.57" width="3.63" height="3.66" class="up-body"/>
<line x1="123.01" y1="865.74" x2="123.01" y2="892.53" class="up-wick"/>
<rect x="121.20" y="866.81" width="3.63" height="24.76" class="up-body"/>
<line x1="128.59" y1="864.03" x2="128.59" y2="896.22" class="down-wick"/>
<rect x="126.78" y="866.81" width="3.63" height="15.71" class="down-body"/>
<line x1="134.17" y1="861.23" x2="134.17" y2="884.99" class="up-wick"/>
<rect x="132.36" y="865.00" width="3.63" height="17.64" class="up-body"/>
<line x1="139.75" y1="861.34" x2="139.75" y2="875.21" class="down-wick"/>
<rect x="137.94" y="865.00" width="3.63" height="9.70" class="down-body"/>
<line x1="145.33" y1="868.29" x2="145.33" y2="880.76" class="down-wick"/>
<rect x="143.52" y="874.70" width="3.63" height="2.52" class="down-body"/>
<line x1="150.91" y1="870.92" x2="150.91" y2="881.22" class="up-wick"/>
<rect x="149.10" y="873.45" width="3.63" height="3.77" class="up-body"/>
<line x1="156.49" y1="866.84" x2="156.49" y2="877.56" class="up-wick"/>
<rect x="154.68" y="867.83" width="3.63" height="5.76" class="up-body"/>
<line x1="162.07" y1="859.24" x2="162.07" y2="874.55" class="down-wick"/>
<rect x="160.26" y="867.83" width="3.63" height="5.42" class="down-body"/>
<line x1="167.65" y1="867.01" x2="167.65" y2="873.90" class="up-wick"/>
<rect x="165.84" y="872.06" width="3.63" height="1.19" class="up-body"/>
<line x1="173.23" y1="866.39" x2="173.23" y2="872.40" class="up-wick"/>
<rect x="171.42" y="871.92" width="3.63" height="1.00" class="up-body"/>
<line x1="178.81" y1="862.96" x2="178.81" y2="874.21" class="up-wick"/>
<rect x="177.00" y="868.97" width="3.63" height="2.95" class="up-body"/>
<line x1="184.39" y1="862.90" x2="184.39" y2="873.31" class="down-wick"/>
<rect x="182.58" y="868.97" width="3.63" height="4.20" class="down-body"/>
<line x1="189.97" y1="872.06" x2="189.97" y2="880.31" class="down-wick"/>
<rect x="188.16" y="873.16" width="3.63" height="3.88" class="down-body"/>
<line x1="195.55" y1="876.48" x2="195.55" y2="883.83" class="down-wick"/>
<rect x="193.74" y="877.05" width="3.63" height="4.82" class="down-body"/>
<line x1="201.13" y1="881.25" x2="201.13" y2="889.84" class="down-wick"/>
<rect x="199.32" y="881.90" width="3.63" height="5.78" class="down-body"/>
<line x1="206.71" y1="882.78" x2="206.71" y2="890.77" class="down-wick"/>
<rect x="204.90" y="887.68" width="3.63" height="1.98" class="down-body"/>
<line x1="212.29" y1="886.72" x2="212.29" y2="891.09" class="up-wick"/>
<rect x="210.48" y="886.97" width="3.63" height="2.33" class="up-body"/>
<line x1="217.87" y1="882.58" x2="217.87" y2="889.78" class="up-wick"/>
<rect x="216.06" y="883.57" width="3.63" height="3.40" class="up-body"/>
<line x1="223.45" y1="883.34" x2="223.45" y2="886.80" class="up-wick"/>
<rect x="221.64" y="883.34" width="3.63" height="1.00" class="up-body"/>
<line x1="229.03" y1="876.77" x2="229.03" y2="883.77" class="up-wick"/>
<rect x="227.22" y="879.15" width="3.63" height="4.08" class="up-body"/>
<line x1="234.61" y1="877.45" x2="234.61" y2="889.07" class="down-wick"/>
<rect x="232.80" y="879.06" width="3.63" height="8.73" class="down-body"/>
<line x1="240.19" y1="882.13" x2="240.19" y2="889.61" class="down-wick"/>
<rect x="238.38" y="887.71" width="3.63" height="1.36" class="down-body"/>
<line x1="245.77" y1="879.97" x2="245.77" y2="889.07" class="up-wick"/>
<rect x="243.96" y="881.19" width="3.63" height="7.88" class="up-body"/>
<line x1="251.35" y1="874.44" x2="251.35" y2="881.22" class="up-wick"/>
<rect x="249.54" y="875.94" width="3.63" height="5.25" class="up-body"/>
<line x1="256.93" y1="871.75" x2="256.93" y2="881.98" class="down-wick"/>
<rect x="255.12" y="876.09" width="3.63" height="4.48" class="down-body"/>
<line x1="262.51" y1="880.20" x2="262.51" y2="886.61" class="down-wick"/>
<rect x="260.70" y="880.57" width="3.63" height="6.04" class="down-body"/>
<line x1="268.09" y1="886.24" x2="268.09" y2="893.55" class="down-wick"/>
<rect x="266.28" y="886.24" width="3.63" height="1.81" class="down-body"/>
<line x1="273.67" y1="886.32" x2="273.67" y2="890.75" class="down-wick"/>
<rect x="271.86" y="888.05" width="3.63" height="1.00" class="down-body"/>
<line x1="279.25" y1="884.00" x2="279.25" y2="889.58" class="up-wick"/>
<rect x="277.44" y="884.65" width="3.63" height="3.69" class="up-body"/>
<line x1="284.83" y1="882.10" x2="284.83" y2="885.30" class="down-wick"/>
<rect x="283.02" y="884.59" width="3.63" height="1.00" class="down-body"/>
<line x1="290.41" y1="884.20" x2="290.41" y2="891.00" class="down-wick"/>
<rect x="288.60" y="885.22" width="3.63" height="4.91" class="down-body"/>
<line x1="295.99" y1="889.21" x2="295.99" y2="895.23" class="down-wick"/>
<rect x="294.18" y="890.12" width="3.63" height="3.40" class="down-body"/>
<line x1="301.57" y1="891.37" x2="301.57" y2="893.55" class="up-wick"/>
<rect x="299.76" y="892.87" width="3.63" height="1.00" class="up-body"/>
<line x1="307.15" y1="892.42" x2="307.15" y2="901.24" class="down-wick"/>
<rect x="305.34" y="892.93" width="3.63" height="4.42" class="down-body"/>
<line x1="312.73" y1="894.32" x2="312.73" y2="904.24" class="up-wick"/>
<rect x="310.92" y="894.94" width="3.63" height="2.41" class="up-body"/>
<line x1="318.31" y1="894.74" x2="318.31" y2="902.20" class="down-wick"/>
<rect x="316.50" y="894.94" width="3.63" height="5.87" class="down-body"/>
<line x1="323.90" y1="894.26" x2="323.90" y2="901.32" class="up-wick"/>
<rect x="322.08" y="897.58" width="3.63" height="3.20" class="up-body"/>
<line x1="329.48" y1="891.51" x2="329.48" y2="898.74" class="up-wick"/>
<rect x="327.66" y="895.17" width="3.63" height="2.98" class="up-body"/>
<line x1="335.06" y1="889.84" x2="335.06" y2="896.84" class="down-wick"/>
<rect x="333.24" y="895.25" width="3.63" height="1.28" class="down-body"/>
<line x1="340.64" y1="891.62" x2="340.64" y2="897.78" class="up-wick"/>
<rect x="338.82" y="893.10" width="3.63" height="3.46" class="up-body"/>
<line x1="346.22" y1="886.12" x2="346.22" y2="893.21" class="up-wick"/>
<rect x="344.40" y="887.14" width="3.63" height="5.95" class="up-body"/>
<line x1="351.80" y1="883.74" x2="351.80" y2="888.79" class="down-wick"/>
<rect x="349.98" y="887.12" width="3.63" height="1.00" class="down-body"/>
<line x1="357.38" y1="886.01" x2="357.38" y2="889.58" class="up-wick"/>
<rect x="355.56" y="886.35" width="3.63" height="1.42" class="up-body"/>
<line x1="362.96" y1="883.09" x2="362.96" y2="887.29" class="up-wick"/>
<rect x="361.14" y="883.40" width="3.63" height="2.95" class="up-body"/>
<line x1="368.54" y1="883.03" x2="368.54" y2="887.71" class="down-wick"/>
<rect x="366.72" y="883.40" width="3.63" height="4.11" class="down-body"/>
<line x1="374.12" y1="887.26" x2="374.12" y2="895.99" class="down-wick"/>
<rect x="372.30" y="887.51" width="3.63" height="8.28" class="down-body"/>
<line x1="379.70" y1="893.33" x2="379.70" y2="897.07" class="down-wick"/>
<rect x="377.88" y="895.79" width="3.63" height="1.00" class="down-body"/>
<line x1="385.28" y1="896.08" x2="385.28" y2="901.52" class="down-wick"/>
<rect x="383.46" y="896.08" width="3.63" height="3.91" class="down-body"/>
<line x1="390.86" y1="898.35" x2="390.86" y2="901.38" class="up-wick"/>
<rect x="389.04" y="898.37" width="3.63" height="1.62" class="up-body"/>
<line x1="396.44" y1="897.52" x2="396.44" y2="901.07" class="down-wick"/>
<rect x="394.62" y="898.37" width="3.63" height="1.50" class="down-body"/>
<line x1="402.02" y1="899.88" x2="402.02" y2="908.18" class="down-wick"/>
<rect x="400.20" y="899.88" width="3.63" height="4.54" class="down-body"/>
<line x1="407.60" y1="904.19" x2="407.60" y2="918.56" class="down-wick"/>
<rect x="405.78" y="904.41" width="3.63" height="8.25" class="down-body"/>
<line x1="413.18" y1="912.44" x2="413.18" y2="922.79" class="down-wick"/>
<rect x="411.36" y="912.67" width="3.63" height="1.67" class="down-body"/>
<line x1="418.76" y1="904.21" x2="418.76" y2="914.34" class="up-wick"/>
<rect x="416.94" y="906.48" width="3.63" height="7.85" class="up-body"/>
<line x1="424.34" y1="905.75" x2="424.34" y2="911.30" class="up-wick"/>
<rect x="422.52" y="906.14" width="3.63" height="1.00" class="up-body"/>
<line x1="429.92" y1="905.86" x2="429.92" y2="916.64" class="down-wick"/>
<rect x="428.10" y="906.14" width="3.63" height="7.40" class="down-body"/>
<line x1="435.50" y1="913.46" x2="435.50" y2="922.08" class="down-wick"/>
<rect x="433.68" y="913.54" width="3.63" height="5.30" class="down-body"/>
<line x1="441.08" y1="917.68" x2="441.08" y2="925.26" class="down-wick"/>
<rect x="439.26" y="918.85" width="3.63" height="1.00" class="down-body"/>
<line x1="446.66" y1="913.49" x2="446.66" y2="920.75" class="up-wick"/>
<rect x="444.84" y="914.45" width="3.63" height="5.33" class="up-body"/>
<line x1="452.24" y1="911.05" x2="452.24" y2="916.86" class="up-wick"/>
<rect x="450.42" y="913.83" width="3.63" height="1.00" class="up-body"/>
<line x1="457.82" y1="912.27" x2="457.82" y2="916.89" class="down-wick"/>
<rect x="456.00" y="913.83" width="3.63" height="1.00" class="down-body"/>
<line x1="463.40" y1="906.63" x2="463.40" y2="914.71" class="up-wick"/>
<rect x="461.58" y="907.65" width="3.63" height="7.06" class="up-body"/>
<line x1="468.98" y1="906.40" x2="468.98" y2="909.29" class="up-wick"/>
<rect x="467.16" y="907.33" width="3.63" height="1.00" class="up-body"/>
<line x1="474.56" y1="905.66" x2="474.56" y2="914.05" class="down-wick"/>
<rect x="472.74" y="907.33" width="3.63" height="6.66" class="down-body"/>
<line x1="480.14" y1="912.72" x2="480.14" y2="923.36" class="down-wick"/>
<rect x="478.32" y="913.97" width="3.63" height="1.00" class="down-body"/>
<line x1="485.72" y1="914.31" x2="485.72" y2="924.63" class="down-wick"/>
<rect x="483.90" y="914.45" width="3.63" height="9.53" class="down-body"/>
<line x1="491.30" y1="919.56" x2="491.30" y2="926.02" class="up-wick"/>
<rect x="489.48" y="921.88" width="3.63" height="2.10" class="up-body"/>
<line x1="496.88" y1="920.78" x2="496.88" y2="928.60" class="down-wick"/>
<rect x="495.06" y="921.91" width="3.63" height="4.57" class="down-body"/>
<line x1="502.46" y1="916.10" x2="502.46" y2="926.62" class="up-wick"/>
<rect x="500.65" y="916.24" width="3.63" height="10.24" class="up-body"/>
<line x1="508.04" y1="914.37" x2="508.04" y2="919.70" class="down-wick"/>
<rect x="506.23" y="916.27" width="3.63" height="3.01" class="down-body"/>
<line x1="513.62" y1="919.16" x2="513.62" y2="922.76" class="down-wick"/>
<rect x="511.81" y="919.24" width="3.63" height="3.23" class="down-body"/>
<line x1="519.20" y1="922.53" x2="519.20" y2="928.03" class="down-wick"/>
<rect x="517.39" y="922.56" width="3.63" height="1.13" class="down-body"/>
<line x1="524.78" y1="922.70" x2="524.78" y2="930.44" class="down-wick"/>
<rect x="522.97" y="923.55" width="3.63" height="6.89" class="down-body"/>
<line x1="530.36" y1="928.20" x2="530.36" y2="930.90" class="up-wick"/>
<rect x="528.55" y="928.83" width="3.63" height="1.62" class="up-body"/>
<line x1="535.94" y1="927.72" x2="535.94" y2="934.98" class="down-wick"/>
<rect x="534.13" y="928.83" width="3.63" height="3.03" class="down-body"/>
<line x1="541.52" y1="927.81" x2="541.52" y2="932.09" class="up-wick"/>
<rect x="539.71" y="929.11" width="3.63" height="2.75" class="up-body"/>
<line x1="547.10" y1="927.64" x2="547.10" y2="933.17" class="up-wick"/>
<rect x="545.29" y="928.12" width="3.63" height="1.00" class="up-body"/>
<line x1="552.68" y1="925.37" x2="552.68" y2="928.80" class="up-wick"/>
<rect x="550.87" y="925.99" width="3.63" height="2.13" class="up-body"/>
<line x1="558.26" y1="925.99" x2="558.26" y2="933.37" class="down-wick"/>
<rect x="556.45" y="925.99" width="3.63" height="6.64" class="down-body"/>
<line x1="563.84" y1="931.58" x2="563.84" y2="935.80" class="up-wick"/>
<rect x="562.03" y="932.66" width="3.63" height="1.00" class="up-body"/>
<line x1="569.42" y1="930.22" x2="569.42" y2="936.46" class="down-wick"/>
<rect x="567.61" y="932.57" width="3.63" height="1.00" class="down-body"/>
<line x1="575.00" y1="927.24" x2="575.00" y2="936.46" class="up-wick"/>
<rect x="573.19" y="927.38" width="3.63" height="6.15" class="up-body"/>
<line x1="580.58" y1="923.58" x2="580.58" y2="933.20" class="up-wick"/>
<rect x="578.77" y="924.23" width="3.63" height="3.15" class="up-body"/>
<line x1="586.16" y1="921.34" x2="586.16" y2="925.68" class="up-wick"/>
<rect x="584.35" y="922.87" width="3.63" height="1.36" class="up-body"/>
<line x1="591.74" y1="922.73" x2="591.74" y2="931.07" class="down-wick"/>
<rect x="589.93" y="922.73" width="3.63" height="7.77" class="down-body"/>
<line x1="597.32" y1="926.53" x2="597.32" y2="932.97" class="up-wick"/>
<rect x="595.51" y="927.21" width="3.63" height="3.20" class="up-body"/>
<line x1="602.90" y1="926.33" x2="602.90" y2="939.41" class="down-wick"/>
<rect x="601.09" y="927.21" width="3.63" height="10.29" class="down-body"/>
<line x1="608.48" y1="936.65" x2="608.48" y2="952.17" class="down-wick"/>
<rect x="606.67" y="937.51" width="3.63" height="11.82" class="down-body"/>
<line x1="614.06" y1="940.68" x2="614.06" y2="951.91" class="up-wick"/>
<rect x="612.25" y="943.74" width="3.63" height="5.59" class="up-body"/>
<line x1="619.64" y1="940.77" x2="619.64" y2="949.44" class="down-wick"/>
<rect x="617.83" y="943.74" width="3.63" height="4.85" class="down-body"/>
<line x1="625.22" y1="945.98" x2="625.22" y2="961.27" class="up-wick"/>
<rect x="623.41" y="948.00" width="3.63" height="1.00" class="up-body"/>
<line x1="630.80" y1="947.43" x2="630.80" y2="960.90" class="down-wick"/>
<rect x="628.99" y="948.00" width="3.63" height="11.12" class="down-body"/>
<line x1="636.38" y1="952.00" x2="636.38" y2="960.13" class="up-wick"/>
<rect x="634.57" y="952.73" width="3.63" height="6.38" class="up-body"/>
<line x1="641.96" y1="949.90" x2="641.96" y2="956.45" class="down-wick"/>
<rect x="640.15" y="952.82" width="3.63" height="3.12" class="down-body"/>
<line x1="647.54" y1="950.63" x2="647.54" y2="999.29" class="down-wick"/>
<rect x="645.73" y="955.94" width="3.63" height="30.00" class="down-body"/>
<line x1="653.12" y1="976.67" x2="653.12" y2="993.76" class="up-wick"/>
<rect x="651.31" y="982.93" width="3.63" height="3.01" class="up-body"/>
<line x1="658.70" y1="981.94" x2="658.70" y2="1013.33" class="down-wick"/>
<rect x="656.89" y="982.22" width="3.63" height="29.58" class="down-body"/>
<line x1="664.28" y1="1006.04" x2="664.28" y2="1024.76" class="down-wick"/>
<rect x="662.47" y="1011.80" width="3.63" height="1.08" class="down-body"/>
<line x1="669.86" y1="1004.51" x2="669.86" y2="1017.50" class="down-wick"/>
<rect x="668.05" y="1012.88" width="3.63" height="2.78" class="down-body"/>
<line x1="675.44" y1="991.10" x2="675.44" y2="1015.68" class="up-wick"/>
<rect x="673.63" y="1000.23" width="3.63" height="15.43" class="up-body"/>
<line x1="681.02" y1="996.52" x2="681.02" y2="1005.65" class="down-wick"/>
<rect x="679.21" y="1000.23" width="3.63" height="4.71" class="down-body"/>
<line x1="686.60" y1="990.22" x2="686.60" y2="1005.22" class="up-wick"/>
<rect x="684.79" y="992.38" width="3.63" height="12.59" class="up-body"/>
<line x1="692.18" y1="986.19" x2="692.18" y2="1001.34" class="down-wick"/>
<rect x="690.37" y="992.38" width="3.63" height="3.20" class="down-body"/>
<line x1="697.76" y1="990.05" x2="697.76" y2="1001.39" class="up-wick"/>
<rect x="695.95" y="992.55" width="3.63" height="3.03" class="up-body"/>
<line x1="703.34" y1="984.46" x2="703.34" y2="993.31" class="down-wick"/>
<rect x="701.53" y="992.55" width="3.63" height="1.00" class="down-body"/>
<line x1="708.92" y1="979.96" x2="708.92" y2="993.06" class="up-wick"/>
<rect x="707.11" y="980.38" width="3.63" height="12.68" class="up-body"/>
<line x1="714.50" y1="980.15" x2="714.50" y2="984.83" class="down-wick"/>
<rect x="712.69" y="980.38" width="3.63" height="1.00" class="down-body"/>
<line x1="720.08" y1="980.72" x2="720.08" y2="987.75" class="down-wick"/>
<rect x="718.27" y="981.15" width="3.63" height="1.70" class="down-body"/>
<line x1="725.66" y1="978.42" x2="725.66" y2="984.55" class="up-wick"/>
<rect x="723.85" y="981.03" width="3.63" height="1.81" class="up-body"/>
<line x1="731.24" y1="975.16" x2="731.24" y2="980.92" class="up-wick"/>
<rect x="729.43" y="976.95" width="3.63" height="3.97" class="up-body"/>
<line x1="736.82" y1="972.61" x2="736.82" y2="976.95" class="up-wick"/>
<rect x="735.01" y="973.23" width="3.63" height="3.71" class="up-body"/>
<line x1="742.40" y1="972.92" x2="742.40" y2="1002.78" class="down-wick"/>
<rect x="740.59" y="973.23" width="3.63" height="18.38" class="down-body"/>
<line x1="747.98" y1="985.94" x2="747.98" y2="1000.57" class="down-wick"/>
<rect x="746.17" y="991.61" width="3.63" height="2.16" class="down-body"/>
<line x1="753.56" y1="978.06" x2="753.56" y2="994.96" class="up-wick"/>
<rect x="751.75" y="985.29" width="3.63" height="8.48" class="up-body"/>
<line x1="759.14" y1="979.96" x2="759.14" y2="996.52" class="down-wick"/>
<rect x="757.33" y="985.29" width="3.63" height="10.04" class="down-body"/>
<line x1="764.72" y1="985.06" x2="764.72" y2="995.61" class="up-wick"/>
<rect x="762.91" y="988.49" width="3.63" height="6.83" class="up-body"/>
<line x1="770.30" y1="983.81" x2="770.30" y2="991.27" class="up-wick"/>
<rect x="768.49" y="985.23" width="3.63" height="3.18" class="up-body"/>
<line x1="775.88" y1="976.35" x2="775.88" y2="986.90" class="up-wick"/>
<rect x="774.07" y="976.55" width="3.63" height="8.68" class="up-body"/>
<line x1="781.46" y1="975.70" x2="781.46" y2="996.18" class="down-wick"/>
<rect x="779.65" y="976.55" width="3.63" height="13.75" class="down-body"/>
<line x1="787.04" y1="983.27" x2="787.04" y2="990.33" class="up-wick"/>
<rect x="785.23" y="986.70" width="3.63" height="3.63" class="up-body"/>
<line x1="792.62" y1="977.60" x2="792.62" y2="987.16" class="up-wick"/>
<rect x="790.81" y="980.86" width="3.63" height="5.93" class="up-body"/>
<line x1="798.20" y1="972.64" x2="798.20" y2="981.94" class="up-wick"/>
<rect x="796.39" y="976.92" width="3.63" height="3.94" class="up-body"/>
<line x1="803.78" y1="973.23" x2="803.78" y2="982.31" class="up-wick"/>
<rect x="801.97" y="975.16" width="3.63" height="1.76" class="up-body"/>
<line x1="809.36" y1="974.26" x2="809.36" y2="982.82" class="down-wick"/>
<rect x="807.55" y="975.16" width="3.63" height="2.98" class="down-body"/>
<line x1="814.94" y1="977.72" x2="814.94" y2="988.97" class="down-wick"/>
<rect x="813.13" y="978.25" width="3.63" height="6.61" class="down-body"/>
<line x1="820.52" y1="978.57" x2="820.52" y2="984.86" class="up-wick"/>
<rect x="818.71" y="981.15" width="3.63" height="3.71" class="up-body"/>
<line x1="826.10" y1="970.43" x2="826.10" y2="982.03" class="up-wick"/>
<rect x="824.29" y="970.77" width="3.63" height="10.38" class="up-body"/>
<line x1="831.69" y1="962.83" x2="831.69" y2="976.72" class="down-wick"/>
<rect x="829.87" y="970.77" width="3.63" height="3.63" class="down-body"/>
<line x1="837.27" y1="969.58" x2="837.27" y2="978.99" class="down-wick"/>
<rect x="835.45" y="974.40" width="3.63" height="1.00" class="down-body"/>
<line x1="842.85" y1="967.05" x2="842.85" y2="978.25" class="up-wick"/>
<rect x="841.03" y="967.05" width="3.63" height="8.34" class="up-body"/>
<line x1="848.43" y1="961.64" x2="848.43" y2="970.51" class="up-wick"/>
<rect x="846.61" y="963.82" width="3.63" height="3.23" class="up-body"/>
<line x1="854.01" y1="956.79" x2="854.01" y2="965.98" class="up-wick"/>
<rect x="852.19" y="959.28" width="3.63" height="4.54" class="up-body"/>
<line x1="859.59" y1="955.63" x2="859.59" y2="964.81" class="down-wick"/>
<rect x="857.77" y="959.34" width="3.63" height="2.33" class="down-body"/>
<line x1="865.17" y1="960.56" x2="865.17" y2="968.56" class="down-wick"/>
<rect x="863.35" y="961.67" width="3.63" height="1.28" class="down-body"/>
<line x1="870.75" y1="955.09" x2="870.75" y2="964.13" class="up-wick"/>
<rect x="868.93" y="956.33" width="3.63" height="6.61" class="up-body"/>
<line x1="876.33" y1="951.00" x2="876.33" y2="958.97" class="up-wick"/>
<rect x="874.51" y="951.88" width="3.63" height="4.51" class="up-body"/>
<line x1="881.91" y1="947.97" x2="881.91" y2="953.61" class="up-wick"/>
<rect x="880.09" y="949.30" width="3.63" height="2.58" class="up-body"/>
<line x1="887.49" y1="946.32" x2="887.49" y2="952.11" class="down-wick"/>
<rect x="885.67" y="949.30" width="3.63" height="1.00" class="down-body"/>
<line x1="893.07" y1="946.44" x2="893.07" y2="952.51" class="down-wick"/>
<rect x="891.25" y="949.39" width="3.63" height="1.00" class="down-body"/>
<line x1="898.65" y1="946.49" x2="898.65" y2="950.10" class="up-wick"/>
<rect x="896.83" y="948.71" width="3.63" height="1.22" class="up-body"/>
<line x1="904.23" y1="942.50" x2="904.23" y2="950.35" class="up-wick"/>
<rect x="902.41" y="944.00" width="3.63" height="4.71" class="up-body"/>
<line x1="909.81" y1="940.23" x2="909.81" y2="945.70" class="up-wick"/>
<rect x="907.99" y="942.58" width="3.63" height="1.42" class="up-body"/>
<line x1="915.39" y1="941.39" x2="915.39" y2="954.12" class="down-wick"/>
<rect x="913.57" y="942.58" width="3.63" height="4.37" class="down-body"/>
<line x1="920.97" y1="939.18" x2="920.97" y2="946.98" class="up-wick"/>
<rect x="919.15" y="940.65" width="3.63" height="6.30" class="up-body"/>
<line x1="926.55" y1="936.29" x2="926.55" y2="941.90" class="up-wick"/>
<rect x="924.73" y="938.38" width="3.63" height="2.27" class="up-body"/>
<line x1="932.13" y1="938.21" x2="932.13" y2="945.56" class="down-wick"/>
<rect x="930.31" y="938.38" width="3.63" height="4.14" class="down-body"/>
<line x1="937.71" y1="942.52" x2="937.71" y2="951.14" class="down-wick"/>
<rect x="935.89" y="942.52" width="3.63" height="8.56" class="down-body"/>
<line x1="943.29" y1="945.11" x2="943.29" y2="956.16" class="up-wick"/>
<rect x="941.47" y="945.16" width="3.63" height="5.98" class="up-body"/>
<line x1="948.87" y1="941.59" x2="948.87" y2="948.54" class="down-wick"/>
<rect x="947.05" y="945.16" width="3.63" height="1.87" class="down-body"/>
<line x1="954.45" y1="943.43" x2="954.45" y2="949.36" class="down-wick"/>
<rect x="952.63" y="947.03" width="3.63" height="1.00" class="down-body"/>
<line x1="960.03" y1="943.35" x2="960.03" y2="948.59" class="up-wick"/>
<rect x="958.21" y="945.19" width="3.63" height="2.69" class="up-body"/>
<line x1="965.61" y1="943.09" x2="965.61" y2="949.05" class="up-wick"/>
<rect x="963.79" y="943.80" width="3.63" height="1.39" class="up-body"/>
<line x1="971.19" y1="943.60" x2="971.19" y2="949.19" class="down-wick"/>
<rect x="969.37" y="943.80" width="3.63" height="3.66" class="down-body"/>
<line x1="976.77" y1="943.21" x2="976.77" y2="948.08" class="up-wick"/>
<rect x="974.95" y="943.35" width="3.63" height="4.14" class="up-body"/>
<line x1="982.35" y1="943.23" x2="982.35" y2="948.68" class="down-wick"/>
<rect x="980.53" y="943.35" width="3.63" height="1.25" class="down-body"/>
<line x1="987.93" y1="944.14" x2="987.93" y2="948.22" class="down-wick"/>
<rect x="986.11" y="944.54" width="3.63" height="3.06" class="down-body"/>
<line x1="993.51" y1="943.86" x2="993.51" y2="949.33" class="up-wick"/>
<rect x="991.69" y="945.05" width="3.63" height="2.55" class="up-body"/>
<line x1="999.09" y1="936.60" x2="999.09" y2="945.39" class="up-wick"/>
<rect x="997.27" y="941.50" width="3.63" height="3.88" class="up-body"/>
<line x1="1004.67" y1="939.75" x2="1004.67" y2="948.56" class="down-wick"/>
<rect x="1002.85" y="941.50" width="3.63" height="7.03" class="down-body"/>
<line x1="1010.25" y1="947.35" x2="1010.25" y2="951.83" class="up-wick"/>
<rect x="1008.44" y="947.74" width="3.63" height="1.00" class="up-body"/>
<line x1="1015.83" y1="946.27" x2="1015.83" y2="949.78" class="up-wick"/>
<rect x="1014.02" y="947.12" width="3.63" height="1.00" class="up-body"/>
<line x1="1021.41" y1="946.04" x2="1021.41" y2="950.55" class="down-wick"/>
<rect x="1019.60" y="946.98" width="3.63" height="3.52" class="down-body"/>
<line x1="1026.99" y1="948.99" x2="1026.99" y2="958.97" class="down-wick"/>
<rect x="1025.18" y="950.49" width="3.63" height="6.41" class="down-body"/>
<line x1="1032.57" y1="953.50" x2="1032.57" y2="960.79" class="up-wick"/>
<rect x="1030.76" y="955.37" width="3.63" height="1.53" class="up-body"/>
<line x1="1038.15" y1="946.47" x2="1038.15" y2="956.93" class="up-wick"/>
<rect x="1036.34" y="947.15" width="3.63" height="8.22" class="up-body"/>
<line x1="1043.73" y1="945.05" x2="1043.73" y2="950.21" class="down-wick"/>
<rect x="1041.92" y="946.98" width="3.63" height="2.01" class="down-body"/>
<line x1="1049.31" y1="948.93" x2="1049.31" y2="954.97" class="down-wick"/>
<rect x="1047.50" y="948.99" width="3.63" height="2.98" class="down-body"/>
<line x1="1054.89" y1="947.91" x2="1054.89" y2="953.24" class="up-wick"/>
<rect x="1053.08" y="948.00" width="3.63" height="3.97" class="up-body"/>
<line x1="1060.47" y1="933.90" x2="1060.47" y2="948.00" class="up-wick"/>
<rect x="1058.66" y="934.78" width="3.63" height="13.21" class="up-body"/>
<line x1="1066.05" y1="931.92" x2="1066.05" y2="935.63" class="down-wick"/>
<rect x="1064.24" y="934.78" width="3.63" height="1.00" class="down-body"/>
<line x1="1071.63" y1="918.79" x2="1071.63" y2="935.27" class="up-wick"/>
<rect x="1069.82" y="923.95" width="3.63" height="11.26" class="up-body"/>
<line x1="1077.21" y1="904.84" x2="1077.21" y2="927.07" class="up-wick"/>
<rect x="1075.40" y="908.10" width="3.63" height="15.85" class="up-body"/>
<line x1="70" y1="874.27" x2="1080" y2="874.27" class="number-line"/>
<text x="1076" y="870.27" text-anchor="end" class="level-label">round 4790.00</text>
<line x1="70" y1="874.27" x2="1080" y2="874.27" class="entry-line"/>
<text x="1076" y="870.27" text-anchor="end" class="level-label">entry level 4790.00</text>
<text x="70" y="1056" class="axis-label">2026-04-20 01:00:00+00:00 to 2026-04-20 04:00:00+00:00</text>
<text x="1080" y="1056" text-anchor="end" class="axis-label">4732.26 - 4799.97</text>
</svg>