<svg xmlns="http://www.w3.org/2000/svg" width="1120" height="1054" viewBox="0 0 1120 1054">
<style>
text{font-family:Arial,Helvetica,sans-serif}.title{font-size:21px;font-weight:700;fill:#1f2937}.subtitle{font-size:12px;fill:#4b5563}.panel-title{font-size:15px;font-weight:700;fill:#111827}.muted{font-size:13px;fill:#6b7280}.plot-bg{fill:#f8fafc;stroke:#cbd5e1;stroke-width:1}.up-body{fill:#15803d;stroke:#14532d;stroke-width:.8}.down-body{fill:#b91c1c;stroke:#7f1d1d;stroke-width:.8}.up-wick{stroke:#14532d;stroke-width:1}.down-wick{stroke:#7f1d1d;stroke-width:1}.sweep-line{stroke:#7c3aed;stroke-width:1.6;stroke-dasharray:6 4}.number-line{stroke:#0f766e;stroke-width:1.4;stroke-dasharray:3 4}.entry-line{stroke:#2563eb;stroke-width:1.4}.sl-line{stroke:#dc2626;stroke-width:1.4}.tp-line{stroke:#16a34a;stroke-width:1.4}.level-label,.axis-label{font-size:11px;fill:#374151}
</style>
<text x="28" y="28" class="title">Adelin v2 visual review sample sample_113</text>
<text x="28" y="48" class="subtitle">Candidate windows are for visual labeling only and are not trade signals.</text>
<text x="560" y="48" class="subtitle" text-anchor="middle">LARGE_LOWER_WICK_REVERSAL_VISUAL_CANDIDATE | PRE_ANCHOR_SWEEP_EXTREME_CANDIDATE</text>
<text x="70" y="82" class="panel-title">H1 liquidity context</text>
<rect x="70" y="96" width="1010" height="192" class="plot-bg"/>
<line x1="80.74" y1="233.47" x2="80.74" y2="270.06" class="down-wick"/>
<rect x="76.74" y="243.29" width="8.00" height="2.54" class="down-body"/>
<line x1="102.23" y1="242.36" x2="102.23" y2="271.97" class="down-wick"/>
<rect x="98.23" y="245.83" width="8.00" height="22.66" class="down-body"/>
<line x1="123.72" y1="256.28" x2="123.72" y2="274.76" class="up-wick"/>
<rect x="119.72" y="260.88" width="8.00" height="7.60" class="up-body"/>
<line x1="145.21" y1="247.47" x2="145.21" y2="262.08" class="up-wick"/>
<rect x="141.21" y="258.58" width="8.00" height="2.29" class="up-body"/>
<line x1="166.70" y1="228.90" x2="166.70" y2="260.01" class="up-wick"/>
<rect x="162.70" y="244.33" width="8.00" height="14.25" class="up-body"/>
<line x1="188.19" y1="244.30" x2="188.19" y2="258.95" class="down-wick"/>
<rect x="184.19" y="244.33" width="8.00" height="4.82" class="down-body"/>
<line x1="209.68" y1="236.69" x2="209.68" y2="249.50" class="up-wick"/>
<rect x="205.68" y="237.19" width="8.00" height="11.96" class="up-body"/>
<line x1="231.17" y1="224.47" x2="231.17" y2="242.15" class="down-wick"/>
<rect x="227.17" y="237.18" width="8.00" height="4.14" class="down-body"/>
<line x1="252.66" y1="231.54" x2="252.66" y2="247.45" class="up-wick"/>
<rect x="248.66" y="232.69" width="8.00" height="8.63" class="up-body"/>
<line x1="274.15" y1="218.38" x2="274.15" y2="246.32" class="up-wick"/>
<rect x="270.15" y="220.59" width="8.00" height="12.10" class="up-body"/>
<line x1="295.64" y1="211.97" x2="295.64" y2="223.01" class="up-wick"/>
<rect x="291.64" y="213.52" width="8.00" height="7.07" class="up-body"/>
<line x1="317.13" y1="206.57" x2="317.13" y2="216.67" class="down-wick"/>
<rect x="313.13" y="213.52" width="8.00" height="1.40" class="down-body"/>
<line x1="338.62" y1="212.37" x2="338.62" y2="220.63" class="down-wick"/>
<rect x="334.62" y="214.93" width="8.00" height="2.49" class="down-body"/>
<line x1="360.11" y1="212.90" x2="360.11" y2="225.60" class="down-wick"/>
<rect x="356.11" y="217.42" width="8.00" height="7.62" class="down-body"/>
<line x1="381.60" y1="219.34" x2="381.60" y2="236.84" class="down-wick"/>
<rect x="377.60" y="225.06" width="8.00" height="1.30" class="down-body"/>
<line x1="403.09" y1="222.43" x2="403.09" y2="236.75" class="up-wick"/>
<rect x="399.09" y="223.85" width="8.00" height="2.51" class="up-body"/>
<line x1="424.57" y1="212.46" x2="424.57" y2="236.39" class="up-wick"/>
<rect x="420.57" y="221.72" width="8.00" height="2.13" class="up-body"/>
<line x1="446.06" y1="221.03" x2="446.06" y2="241.85" class="down-wick"/>
<rect x="442.06" y="221.72" width="8.00" height="9.60" class="down-body"/>
<line x1="467.55" y1="228.45" x2="467.55" y2="237.92" class="down-wick"/>
<rect x="463.55" y="231.32" width="8.00" height="5.05" class="down-body"/>
<line x1="489.04" y1="235.80" x2="489.04" y2="245.69" class="down-wick"/>
<rect x="485.04" y="236.35" width="8.00" height="4.39" class="down-body"/>
<line x1="510.53" y1="232.44" x2="510.53" y2="243.82" class="up-wick"/>
<rect x="506.53" y="237.73" width="8.00" height="2.97" class="up-body"/>
<line x1="532.02" y1="237.02" x2="532.02" y2="245.96" class="down-wick"/>
<rect x="528.02" y="237.73" width="8.00" height="1.82" class="down-body"/>
<line x1="553.51" y1="231.54" x2="553.51" y2="244.04" class="up-wick"/>
<rect x="549.51" y="237.65" width="8.00" height="6.38" class="up-body"/>
<line x1="575.00" y1="235.85" x2="575.00" y2="242.13" class="up-wick"/>
<rect x="571.00" y="237.36" width="8.00" height="1.00" class="up-body"/>
<line x1="596.49" y1="235.70" x2="596.49" y2="243.61" class="down-wick"/>
<rect x="592.49" y="237.35" width="8.00" height="2.58" class="down-body"/>
<line x1="617.98" y1="233.76" x2="617.98" y2="264.79" class="down-wick"/>
<rect x="613.98" y="239.93" width="8.00" height="17.95" class="down-body"/>
<line x1="639.47" y1="240.50" x2="639.47" y2="262.38" class="up-wick"/>
<rect x="635.47" y="242.68" width="8.00" height="15.20" class="up-body"/>
<line x1="660.96" y1="240.37" x2="660.96" y2="249.73" class="down-wick"/>
<rect x="656.96" y="242.68" width="8.00" height="1.00" class="down-body"/>
<line x1="682.45" y1="233.94" x2="682.45" y2="246.02" class="up-wick"/>
<rect x="678.45" y="236.79" width="8.00" height="6.37" class="up-body"/>
<line x1="703.94" y1="235.60" x2="703.94" y2="260.37" class="down-wick"/>
<rect x="699.94" y="236.47" width="8.00" height="11.12" class="down-body"/>
<line x1="725.43" y1="238.81" x2="725.43" y2="250.84" class="up-wick"/>
<rect x="721.43" y="240.79" width="8.00" height="6.81" class="up-body"/>
<line x1="746.91" y1="238.43" x2="746.91" y2="251.70" class="down-wick"/>
<rect x="742.91" y="240.79" width="8.00" height="4.90" class="down-body"/>
<line x1="768.40" y1="216.75" x2="768.40" y2="246.72" class="up-wick"/>
<rect x="764.40" y="221.87" width="8.00" height="23.81" class="up-body"/>
<line x1="789.89" y1="214.38" x2="789.89" y2="237.44" class="down-wick"/>
<rect x="785.89" y="221.87" width="8.00" height="7.68" class="down-body"/>
<line x1="811.38" y1="223.27" x2="811.38" y2="243.52" class="down-wick"/>
<rect x="807.38" y="229.54" width="8.00" height="12.08" class="down-body"/>
<line x1="832.87" y1="233.91" x2="832.87" y2="256.60" class="up-wick"/>
<rect x="828.87" y="236.73" width="8.00" height="4.90" class="up-body"/>
<line x1="854.36" y1="229.49" x2="854.36" y2="245.09" class="down-wick"/>
<rect x="850.36" y="236.73" width="8.00" height="5.25" class="down-body"/>
<line x1="875.85" y1="234.63" x2="875.85" y2="252.35" class="down-wick"/>
<rect x="871.85" y="241.98" width="8.00" height="4.89" class="down-body"/>
<line x1="897.34" y1="235.68" x2="897.34" y2="270.56" class="down-wick"/>
<rect x="893.34" y="246.87" width="8.00" height="7.05" class="down-body"/>
<line x1="918.83" y1="236.99" x2="918.83" y2="259.16" class="up-wick"/>
<rect x="914.83" y="239.46" width="8.00" height="14.47" class="up-body"/>
<line x1="940.32" y1="231.17" x2="940.32" y2="241.37" class="up-wick"/>
<rect x="936.32" y="238.48" width="8.00" height="1.00" class="up-body"/>
<line x1="961.81" y1="219.46" x2="961.81" y2="240.53" class="up-wick"/>
<rect x="957.81" y="226.26" width="8.00" height="12.22" class="up-body"/>
<line x1="983.30" y1="219.64" x2="983.30" y2="238.20" class="down-wick"/>
<rect x="979.30" y="226.26" width="8.00" height="8.92" class="down-body"/>
<line x1="1004.79" y1="198.82" x2="1004.79" y2="236.05" class="up-wick"/>
<rect x="1000.79" y="210.37" width="8.00" height="24.81" class="up-body"/>
<line x1="1026.28" y1="133.76" x2="1026.28" y2="207.15" class="up-wick"/>
<rect x="1022.28" y="134.71" width="8.00" height="72.44" class="up-body"/>
<line x1="1047.77" y1="123.07" x2="1047.77" y2="145.04" class="up-wick"/>
<rect x="1043.77" y="124.89" width="8.00" height="9.82" class="up-body"/>
<line x1="1069.26" y1="109.24" x2="1069.26" y2="140.79" class="down-wick"/>
<rect x="1065.26" y="124.89" width="8.00" height="10.02" class="down-body"/>
<line x1="70" y1="241.89" x2="1080" y2="241.89" class="sweep-line"/>
<text x="1076" y="237.89" text-anchor="end" class="level-label">sweep 4651.79</text>
<line x1="70" y1="242.13" x2="1080" y2="242.13" class="entry-line"/>
<text x="1076" y="238.13" text-anchor="end" class="level-label">entry level 4651.42</text>
<text x="70" y="306" class="axis-label">2026-04-06 01:00:00+00:00 to 2026-04-08 03:00:00+00:00</text>
<text x="1080" y="306" text-anchor="end" class="axis-label">4580.20 - 4878.27</text>
<text x="70" y="332" class="panel-title">M15 liquidity / reaction context</text>
<rect x="70" y="346" width="1010" height="192" class="plot-bg"/>
<line x1="77.77" y1="381.02" x2="77.77" y2="412.25" class="down-wick"/>
<rect x="73.77" y="399.11" width="8.00" height="11.02" class="down-body"/>
<line x1="93.31" y1="406.95" x2="93.31" y2="436.35" class="down-wick"/>
<rect x="89.31" y="410.13" width="8.00" height="13.20" class="down-body"/>
<line x1="108.85" y1="397.46" x2="108.85" y2="424.12" class="up-wick"/>
<rect x="104.85" y="401.12" width="8.00" height="22.20" class="up-body"/>
<line x1="124.38" y1="392.63" x2="124.38" y2="406.85" class="down-wick"/>
<rect x="120.38" y="401.12" width="8.00" height="2.10" class="down-body"/>
<line x1="139.92" y1="400.00" x2="139.92" y2="431.21" class="down-wick"/>
<rect x="135.92" y="403.22" width="8.00" height="14.77" class="down-body"/>
<line x1="155.46" y1="408.32" x2="155.46" y2="436.08" class="up-wick"/>
<rect x="151.46" y="417.93" width="8.00" height="1.00" class="up-body"/>
<line x1="171.00" y1="396.62" x2="171.00" y2="433.15" class="down-wick"/>
<rect x="167.00" y="417.93" width="8.00" height="6.07" class="down-body"/>
<line x1="186.54" y1="390.78" x2="186.54" y2="432.13" class="up-wick"/>
<rect x="182.54" y="395.28" width="8.00" height="28.72" class="up-body"/>
<line x1="202.08" y1="373.11" x2="202.08" y2="434.92" class="down-wick"/>
<rect x="198.08" y="395.26" width="8.00" height="14.30" class="down-body"/>
<line x1="217.62" y1="377.94" x2="217.62" y2="413.86" class="up-wick"/>
<rect x="213.62" y="382.16" width="8.00" height="27.40" class="up-body"/>
<line x1="233.15" y1="359.24" x2="233.15" y2="397.52" class="down-wick"/>
<rect x="229.15" y="381.77" width="8.00" height="3.52" class="down-body"/>
<line x1="248.69" y1="378.00" x2="248.69" y2="405.20" class="down-wick"/>
<rect x="244.69" y="385.30" width="8.00" height="3.24" class="down-body"/>
<line x1="264.23" y1="386.36" x2="264.23" y2="432.78" class="down-wick"/>
<rect x="260.23" y="388.54" width="8.00" height="42.60" class="down-body"/>
<line x1="279.77" y1="414.96" x2="279.77" y2="445.13" class="up-wick"/>
<rect x="275.77" y="420.64" width="8.00" height="10.49" class="up-body"/>
<line x1="295.31" y1="412.96" x2="295.31" y2="452.22" class="down-wick"/>
<rect x="291.31" y="420.64" width="8.00" height="13.36" class="down-body"/>
<line x1="310.85" y1="417.10" x2="310.85" y2="436.16" class="up-wick"/>
<rect x="306.85" y="418.91" width="8.00" height="15.10" class="up-body"/>
<line x1="326.38" y1="412.94" x2="326.38" y2="430.52" class="up-wick"/>
<rect x="322.38" y="414.24" width="8.00" height="4.67" class="up-body"/>
<line x1="341.92" y1="409.82" x2="341.92" y2="424.82" class="down-wick"/>
<rect x="337.92" y="414.24" width="8.00" height="9.88" class="down-body"/>
<line x1="357.46" y1="413.04" x2="357.46" y2="429.97" class="down-wick"/>
<rect x="353.46" y="424.10" width="8.00" height="4.52" class="down-body"/>
<line x1="373.00" y1="421.80" x2="373.00" y2="439.77" class="down-wick"/>
<rect x="369.00" y="428.63" width="8.00" height="6.25" class="down-body"/>
<line x1="388.54" y1="433.07" x2="388.54" y2="464.34" class="down-wick"/>
<rect x="384.54" y="434.80" width="8.00" height="13.10" class="down-body"/>
<line x1="404.08" y1="434.86" x2="404.08" y2="455.11" class="up-wick"/>
<rect x="400.08" y="443.38" width="8.00" height="4.52" class="up-body"/>
<line x1="419.62" y1="434.57" x2="419.62" y2="450.83" class="up-wick"/>
<rect x="415.62" y="442.91" width="8.00" height="1.00" class="up-body"/>
<line x1="435.15" y1="440.89" x2="435.15" y2="452.42" class="down-wick"/>
<rect x="431.15" y="442.91" width="8.00" height="5.77" class="down-body"/>
<line x1="450.69" y1="422.43" x2="450.69" y2="454.15" class="up-wick"/>
<rect x="446.69" y="436.75" width="8.00" height="11.82" class="up-body"/>
<line x1="466.23" y1="426.63" x2="466.23" y2="437.43" class="up-wick"/>
<rect x="462.23" y="435.27" width="8.00" height="1.49" class="up-body"/>
<line x1="481.77" y1="428.75" x2="481.77" y2="458.08" class="down-wick"/>
<rect x="477.77" y="435.29" width="8.00" height="20.27" class="down-body"/>
<line x1="497.31" y1="437.57" x2="497.31" y2="458.43" class="up-wick"/>
<rect x="493.31" y="439.18" width="8.00" height="16.38" class="up-body"/>
<line x1="512.85" y1="436.92" x2="512.85" y2="455.74" class="down-wick"/>
<rect x="508.85" y="439.18" width="8.00" height="15.71" class="down-body"/>
<line x1="528.38" y1="453.28" x2="528.38" y2="465.19" class="down-wick"/>
<rect x="524.38" y="454.88" width="8.00" height="1.00" class="down-body"/>
<line x1="543.92" y1="448.24" x2="543.92" y2="459.00" class="up-wick"/>
<rect x="539.92" y="452.50" width="8.00" height="3.16" class="up-body"/>
<line x1="559.46" y1="439.59" x2="559.46" y2="452.89" class="up-wick"/>
<rect x="555.46" y="444.94" width="8.00" height="7.58" class="up-body"/>
<line x1="575.00" y1="419.58" x2="575.00" y2="459.12" class="up-wick"/>
<rect x="571.00" y="427.75" width="8.00" height="31.37" class="up-body"/>
<line x1="590.54" y1="422.54" x2="590.54" y2="437.41" class="down-wick"/>
<rect x="586.54" y="427.75" width="8.00" height="3.56" class="down-body"/>
<line x1="606.08" y1="429.46" x2="606.08" y2="437.26" class="down-wick"/>
<rect x="602.08" y="431.32" width="8.00" height="5.68" class="down-body"/>
<line x1="621.62" y1="431.17" x2="621.62" y2="442.21" class="down-wick"/>
<rect x="617.62" y="437.02" width="8.00" height="1.91" class="down-body"/>
<line x1="637.15" y1="433.23" x2="637.15" y2="441.70" class="up-wick"/>
<rect x="633.15" y="435.45" width="8.00" height="3.48" class="up-body"/>
<line x1="652.69" y1="434.27" x2="652.69" y2="449.47" class="down-wick"/>
<rect x="648.69" y="435.45" width="8.00" height="11.43" class="down-body"/>
<line x1="668.23" y1="443.29" x2="668.23" y2="453.07" class="up-wick"/>
<rect x="664.23" y="445.74" width="8.00" height="1.14" class="up-body"/>
<line x1="683.77" y1="434.68" x2="683.77" y2="447.35" class="up-wick"/>
<rect x="679.77" y="438.00" width="8.00" height="7.74" class="up-body"/>
<line x1="699.31" y1="434.37" x2="699.31" y2="457.76" class="down-wick"/>
<rect x="695.31" y="437.96" width="8.00" height="2.55" class="down-body"/>
<line x1="714.85" y1="433.41" x2="714.85" y2="443.05" class="up-wick"/>
<rect x="710.85" y="437.47" width="8.00" height="3.04" class="up-body"/>
<line x1="730.38" y1="433.58" x2="730.38" y2="440.75" class="up-wick"/>
<rect x="726.38" y="434.31" width="8.00" height="3.16" class="up-body"/>
<line x1="745.92" y1="432.74" x2="745.92" y2="447.04" class="down-wick"/>
<rect x="741.92" y="434.31" width="8.00" height="11.82" class="down-body"/>
<line x1="761.46" y1="426.61" x2="761.46" y2="499.89" class="down-wick"/>
<rect x="757.46" y="446.13" width="8.00" height="29.03" class="down-body"/>
<line x1="777.00" y1="440.71" x2="777.00" y2="481.33" class="up-wick"/>
<rect x="773.00" y="445.98" width="8.00" height="29.17" class="up-body"/>
<line x1="792.54" y1="430.66" x2="792.54" y2="499.17" class="down-wick"/>
<rect x="788.54" y="446.13" width="8.00" height="27.05" class="down-body"/>
<line x1="808.08" y1="461.69" x2="808.08" y2="524.76" class="down-wick"/>
<rect x="804.08" y="473.04" width="8.00" height="29.84" class="down-body"/>
<line x1="823.62" y1="487.91" x2="823.62" y2="517.14" class="down-wick"/>
<rect x="819.62" y="502.88" width="8.00" height="1.00" class="down-body"/>
<line x1="839.15" y1="485.93" x2="839.15" y2="511.19" class="up-wick"/>
<rect x="835.15" y="487.19" width="8.00" height="16.38" class="up-body"/>
<line x1="854.69" y1="462.16" x2="854.69" y2="488.62" class="up-wick"/>
<rect x="850.69" y="463.40" width="8.00" height="23.79" class="up-body"/>
<line x1="870.23" y1="447.92" x2="870.23" y2="465.29" class="up-wick"/>
<rect x="866.23" y="454.82" width="8.00" height="8.54" class="up-body"/>
<line x1="885.77" y1="447.53" x2="885.77" y2="473.24" class="down-wick"/>
<rect x="881.77" y="454.82" width="8.00" height="11.16" class="down-body"/>
<line x1="901.31" y1="460.47" x2="901.31" y2="477.13" class="down-wick"/>
<rect x="897.31" y="465.99" width="8.00" height="5.17" class="down-body"/>
<line x1="916.85" y1="459.35" x2="916.85" y2="472.24" class="up-wick"/>
<rect x="912.85" y="459.73" width="8.00" height="11.43" class="up-body"/>
<line x1="932.38" y1="453.52" x2="932.38" y2="461.24" class="up-wick"/>
<rect x="928.38" y="456.33" width="8.00" height="3.40" class="up-body"/>
<line x1="947.92" y1="453.36" x2="947.92" y2="465.40" class="down-wick"/>
<rect x="943.92" y="456.33" width="8.00" height="7.42" class="down-body"/>
<line x1="963.46" y1="453.52" x2="963.46" y2="464.54" class="up-wick"/>
<rect x="959.46" y="455.68" width="8.00" height="8.07" class="up-body"/>
<line x1="979.00" y1="427.20" x2="979.00" y2="456.56" class="up-wick"/>
<rect x="975.00" y="430.74" width="8.00" height="24.83" class="up-body"/>
<line x1="994.54" y1="427.24" x2="994.54" y2="436.98" class="down-wick"/>
<rect x="990.54" y="430.74" width="8.00" height="5.44" class="down-body"/>
<line x1="1010.08" y1="432.44" x2="1010.08" y2="447.67" class="down-wick"/>
<rect x="1006.08" y="435.19" width="8.00" height="9.11" class="down-body"/>
<line x1="1025.62" y1="439.40" x2="1025.62" y2="496.08" class="down-wick"/>
<rect x="1021.62" y="444.29" width="8.00" height="47.08" class="down-body"/>
<line x1="1041.15" y1="473.38" x2="1041.15" y2="510.76" class="down-wick"/>
<rect x="1037.15" y="491.37" width="8.00" height="2.71" class="down-body"/>
<line x1="1056.69" y1="463.11" x2="1056.69" y2="498.01" class="up-wick"/>
<rect x="1052.69" y="470.37" width="8.00" height="23.71" class="up-body"/>
<line x1="1072.23" y1="460.10" x2="1072.23" y2="480.31" class="up-wick"/>
<rect x="1068.23" y="462.01" width="8.00" height="8.35" class="up-body"/>
<line x1="70" y1="452.32" x2="1080" y2="452.32" class="sweep-line"/>
<text x="1076" y="448.32" text-anchor="end" class="level-label">sweep 4651.79</text>
<line x1="70" y1="453.07" x2="1080" y2="453.07" class="entry-line"/>
<text x="1076" y="449.07" text-anchor="end" class="level-label">entry level 4651.42</text>
<text x="70" y="556" class="axis-label">2026-04-06 15:00:00+00:00 to 2026-04-07 09:00:00+00:00</text>
<text x="1080" y="556" text-anchor="end" class="axis-label">4609.73 - 4703.98</text>
<text x="70" y="582" class="panel-title">M5 reaction / execution context</text>
<rect x="70" y="596" width="1010" height="192" class="plot-bg"/>
<line x1="79.18" y1="614.05" x2="79.18" y2="627.07" class="down-wick"/>
<rect x="75.18" y="617.18" width="8.00" height="6.56" class="down-body"/>
<line x1="97.55" y1="618.24" x2="97.55" y2="627.21" class="up-wick"/>
<rect x="93.55" y="622.02" width="8.00" height="1.72" class="up-body"/>
<line x1="115.91" y1="618.35" x2="115.91" y2="626.93" class="down-wick"/>
<rect x="111.91" y="622.02" width="8.00" height="4.74" class="down-body"/>
<line x1="134.27" y1="616.94" x2="134.27" y2="630.30" class="up-wick"/>
<rect x="130.27" y="620.20" width="8.00" height="6.60" class="up-body"/>
<line x1="152.64" y1="618.14" x2="152.64" y2="634.04" class="down-wick"/>
<rect x="148.64" y="620.23" width="8.00" height="11.71" class="down-body"/>
<line x1="171.00" y1="629.85" x2="171.00" y2="635.56" class="up-wick"/>
<rect x="167.00" y="630.03" width="8.00" height="1.92" class="up-body"/>
<line x1="189.36" y1="626.21" x2="189.36" y2="634.70" class="up-wick"/>
<rect x="185.36" y="626.21" width="8.00" height="3.81" class="up-body"/>
<line x1="207.73" y1="620.41" x2="207.73" y2="629.72" class="up-wick"/>
<rect x="203.73" y="623.50" width="8.00" height="2.71" class="up-body"/>
<line x1="226.09" y1="621.13" x2="226.09" y2="627.04" class="down-wick"/>
<rect x="222.09" y="623.50" width="8.00" height="1.00" class="down-body"/>
<line x1="244.45" y1="622.16" x2="244.45" y2="631.74" class="down-wick"/>
<rect x="240.45" y="624.15" width="8.00" height="6.01" class="down-body"/>
<line x1="262.82" y1="629.41" x2="262.82" y2="647.79" class="down-wick"/>
<rect x="258.82" y="630.16" width="8.00" height="15.87" class="down-body"/>
<line x1="281.18" y1="639.54" x2="281.18" y2="647.41" class="up-wick"/>
<rect x="277.18" y="643.42" width="8.00" height="2.61" class="up-body"/>
<line x1="299.55" y1="641.09" x2="299.55" y2="646.76" class="down-wick"/>
<rect x="295.55" y="643.42" width="8.00" height="2.58" class="down-body"/>
<line x1="317.91" y1="640.30" x2="317.91" y2="653.87" class="up-wick"/>
<rect x="313.91" y="641.43" width="8.00" height="4.57" class="up-body"/>
<line x1="336.27" y1="637.38" x2="336.27" y2="650.53" class="down-wick"/>
<rect x="332.27" y="641.43" width="8.00" height="1.00" class="down-body"/>
<line x1="354.64" y1="633.87" x2="354.64" y2="644.21" class="up-wick"/>
<rect x="350.64" y="637.21" width="8.00" height="4.29" class="up-body"/>
<line x1="373.00" y1="625.01" x2="373.00" y2="641.43" class="up-wick"/>
<rect x="369.00" y="625.42" width="8.00" height="11.78" class="up-body"/>
<line x1="391.36" y1="622.85" x2="391.36" y2="632.64" class="down-wick"/>
<rect x="387.36" y="625.49" width="8.00" height="2.95" class="down-body"/>
<line x1="409.73" y1="628.10" x2="409.73" y2="661.77" class="down-wick"/>
<rect x="405.73" y="628.38" width="8.00" height="13.05" class="down-body"/>
<line x1="428.09" y1="639.03" x2="428.09" y2="656.44" class="down-wick"/>
<rect x="424.09" y="641.43" width="8.00" height="4.19" class="down-body"/>
<line x1="446.45" y1="622.33" x2="446.45" y2="649.06" class="up-wick"/>
<rect x="442.45" y="632.67" width="8.00" height="12.95" class="up-body"/>
<line x1="464.82" y1="620.72" x2="464.82" y2="633.05" class="up-wick"/>
<rect x="460.82" y="629.75" width="8.00" height="2.92" class="up-body"/>
<line x1="483.18" y1="625.53" x2="483.18" y2="636.97" class="up-wick"/>
<rect x="479.18" y="627.93" width="8.00" height="1.82" class="up-body"/>
<line x1="501.55" y1="622.85" x2="501.55" y2="632.57" class="up-wick"/>
<rect x="497.55" y="627.55" width="8.00" height="1.00" class="up-body"/>
<line x1="519.91" y1="621.20" x2="519.91" y2="633.08" class="up-wick"/>
<rect x="515.91" y="622.40" width="8.00" height="5.15" class="up-body"/>
<line x1="538.27" y1="621.09" x2="538.27" y2="625.87" class="down-wick"/>
<rect x="534.27" y="622.40" width="8.00" height="1.58" class="down-body"/>
<line x1="556.64" y1="620.99" x2="556.64" y2="629.20" class="up-wick"/>
<rect x="552.64" y="622.23" width="8.00" height="1.75" class="up-body"/>
<line x1="575.00" y1="619.58" x2="575.00" y2="631.26" class="down-wick"/>
<rect x="571.00" y="622.23" width="8.00" height="6.97" class="down-body"/>
<line x1="593.36" y1="627.11" x2="593.36" y2="640.61" class="down-wick"/>
<rect x="589.36" y="629.20" width="8.00" height="4.78" class="down-body"/>
<line x1="611.73" y1="632.36" x2="611.73" y2="643.70" class="down-wick"/>
<rect x="607.73" y="633.77" width="8.00" height="8.38" class="down-body"/>
<line x1="630.09" y1="617.49" x2="630.09" y2="732.81" class="up-wick"/>
<rect x="626.09" y="619.03" width="8.00" height="23.12" class="up-body"/>
<line x1="648.45" y1="609.24" x2="648.45" y2="700.21" class="down-wick"/>
<rect x="644.45" y="619.03" width="8.00" height="58.75" class="down-body"/>
<line x1="666.82" y1="672.18" x2="666.82" y2="730.03" class="down-wick"/>
<rect x="662.82" y="677.78" width="8.00" height="13.33" class="down-body"/>
<line x1="685.18" y1="654.18" x2="685.18" y2="701.52" class="up-wick"/>
<rect x="681.18" y="654.62" width="8.00" height="36.48" class="up-body"/>
<line x1="703.55" y1="633.01" x2="703.55" y2="661.77" class="down-wick"/>
<rect x="699.55" y="655.00" width="8.00" height="3.54" class="down-body"/>
<line x1="721.91" y1="640.74" x2="721.91" y2="672.56" class="up-wick"/>
<rect x="717.91" y="641.91" width="8.00" height="16.63" class="up-body"/>
<line x1="740.27" y1="616.08" x2="740.27" y2="656.34" class="up-wick"/>
<rect x="736.27" y="632.29" width="8.00" height="9.86" class="up-body"/>
<line x1="758.64" y1="626.04" x2="758.64" y2="731.61" class="down-wick"/>
<rect x="754.64" y="632.29" width="8.00" height="64.21" class="down-body"/>
<line x1="777.00" y1="668.36" x2="777.00" y2="710.31" class="up-wick"/>
<rect x="773.00" y="687.77" width="8.00" height="8.73" class="up-body"/>
<line x1="795.36" y1="668.40" x2="795.36" y2="714.71" class="down-wick"/>
<rect x="791.36" y="687.53" width="8.00" height="25.18" class="down-body"/>
<line x1="813.73" y1="704.75" x2="813.73" y2="761.88" class="down-wick"/>
<rect x="809.73" y="712.72" width="8.00" height="24.56" class="down-body"/>
<line x1="832.09" y1="736.39" x2="832.09" y2="774.76" class="down-wick"/>
<rect x="828.09" y="737.28" width="8.00" height="1.00" class="down-body"/>
<line x1="850.45" y1="719.59" x2="850.45" y2="748.96" class="up-wick"/>
<rect x="846.45" y="733.71" width="8.00" height="4.16" class="up-body"/>
<line x1="868.82" y1="720.45" x2="868.82" y2="761.91" class="up-wick"/>
<rect x="864.82" y="722.88" width="8.00" height="10.82" class="up-body"/>
<line x1="887.18" y1="712.61" x2="887.18" y2="748.48" class="down-wick"/>
<rect x="883.18" y="722.88" width="8.00" height="16.15" class="down-body"/>
<line x1="905.55" y1="721.30" x2="905.55" y2="751.88" class="up-wick"/>
<rect x="901.55" y="724.36" width="8.00" height="14.67" class="up-body"/>
<line x1="923.91" y1="720.75" x2="923.91" y2="738.38" class="down-wick"/>
<rect x="919.91" y="724.36" width="8.00" height="1.92" class="down-body"/>
<line x1="942.27" y1="709.28" x2="942.27" y2="730.13" class="up-wick"/>
<rect x="938.27" y="711.41" width="8.00" height="14.88" class="up-body"/>
<line x1="960.64" y1="691.62" x2="960.64" y2="713.81" class="up-wick"/>
<rect x="956.64" y="700.00" width="8.00" height="11.41" class="up-body"/>
<line x1="979.00" y1="682.72" x2="979.00" y2="708.66" class="up-wick"/>
<rect x="975.00" y="685.61" width="8.00" height="14.36" class="up-body"/>
<line x1="997.36" y1="669.19" x2="997.36" y2="689.18" class="up-wick"/>
<rect x="993.36" y="671.28" width="8.00" height="14.29" class="up-body"/>
<line x1="1015.73" y1="645.18" x2="1015.73" y2="674.48" class="up-wick"/>
<rect x="1011.73" y="653.90" width="8.00" height="17.31" class="up-body"/>
<line x1="1034.09" y1="646.14" x2="1034.09" y2="659.33" class="down-wick"/>
<rect x="1030.09" y="653.73" width="8.00" height="2.78" class="down-body"/>
<line x1="1052.45" y1="655.38" x2="1052.45" y2="668.26" class="down-wick"/>
<rect x="1048.45" y="656.41" width="8.00" height="1.00" class="down-body"/>
<line x1="1070.82" y1="644.52" x2="1070.82" y2="665.75" class="down-wick"/>
<rect x="1066.82" y="656.82" width="8.00" height="7.39" class="down-body"/>
<line x1="70" y1="652.60" x2="1080" y2="652.60" class="sweep-line"/>
<text x="1076" y="648.60" text-anchor="end" class="level-label">sweep 4651.79</text>
<line x1="70" y1="653.87" x2="1080" y2="653.87" class="entry-line"/>
<text x="1076" y="649.87" text-anchor="end" class="level-label">entry level 4651.42</text>
<text x="70" y="806" class="axis-label">2026-04-07 01:30:00+00:00 to 2026-04-07 06:00:00+00:00</text>
<text x="1080" y="806" text-anchor="end" class="axis-label">4612.38 - 4668.26</text>
<text x="70" y="832" class="panel-title">M1 execution window</text>
<rect x="70" y="846" width="1010" height="192" class="plot-bg"/>
<line x1="73.71" y1="864.05" x2="73.71" y2="868.21" class="up-wick"/>
<rect x="71.30" y="864.70" width="4.83" height="2.47" class="up-body"/>
<line x1="81.14" y1="868.69" x2="81.14" y2="874.91" class="down-wick"/>
<rect x="78.73" y="868.69" width="4.83" height="4.19" class="down-body"/>
<line x1="88.57" y1="871.40" x2="88.57" y2="875.04" class="down-wick"/>
<rect x="86.15" y="871.44" width="4.83" height="2.30" class="down-body"/>
<line x1="95.99" y1="873.98" x2="95.99" y2="874.74" class="down-wick"/>
<rect x="93.58" y="873.98" width="4.83" height="1.00" class="down-body"/>
<line x1="103.42" y1="868.24" x2="103.42" y2="873.09" class="down-wick"/>
<rect x="101.01" y="869.10" width="4.83" height="2.44" class="down-body"/>
<line x1="110.85" y1="869.48" x2="110.85" y2="872.06" class="up-wick"/>
<rect x="108.43" y="870.72" width="4.83" height="1.31" class="up-body"/>
<line x1="118.27" y1="868.35" x2="118.27" y2="871.20" class="up-wick"/>
<rect x="115.86" y="870.65" width="4.83" height="1.00" class="up-body"/>
<line x1="125.70" y1="873.64" x2="125.70" y2="876.93" class="down-wick"/>
<rect x="123.28" y="873.67" width="4.83" height="3.09" class="down-body"/>
<line x1="133.12" y1="871.81" x2="133.12" y2="873.29" class="up-wick"/>
<rect x="130.71" y="872.33" width="4.83" height="1.00" class="up-body"/>
<line x1="140.55" y1="868.00" x2="140.55" y2="871.68" class="up-wick"/>
<rect x="138.14" y="868.00" width="4.83" height="3.09" class="up-body"/>
<line x1="147.98" y1="868.14" x2="147.98" y2="876.14" class="down-wick"/>
<rect x="145.56" y="870.23" width="4.83" height="4.74" class="down-body"/>
<line x1="155.40" y1="875.97" x2="155.40" y2="877.86" class="down-wick"/>
<rect x="152.99" y="876.01" width="4.83" height="1.61" class="down-body"/>
<line x1="162.83" y1="880.47" x2="162.83" y2="884.04" class="down-wick"/>
<rect x="160.42" y="881.26" width="4.83" height="1.00" class="down-body"/>
<line x1="170.26" y1="882.16" x2="170.26" y2="885.52" class="down-wick"/>
<rect x="167.84" y="882.57" width="4.83" height="1.34" class="down-body"/>
<line x1="177.68" y1="880.30" x2="177.68" y2="884.87" class="up-wick"/>
<rect x="175.27" y="880.40" width="4.83" height="3.16" class="up-body"/>
<line x1="185.11" y1="879.30" x2="185.11" y2="884.70" class="down-wick"/>
<rect x="182.70" y="880.03" width="4.83" height="4.19" class="down-body"/>
<line x1="192.54" y1="878.58" x2="192.54" y2="881.06" class="down-wick"/>
<rect x="190.12" y="878.58" width="4.83" height="2.06" class="down-body"/>
<line x1="199.96" y1="876.21" x2="199.96" y2="879.58" class="up-wick"/>
<rect x="197.55" y="876.21" width="4.83" height="1.89" class="up-body"/>
<line x1="207.39" y1="871.02" x2="207.39" y2="875.28" class="up-wick"/>
<rect x="204.98" y="871.02" width="4.83" height="2.85" class="up-body"/>
<line x1="214.82" y1="874.74" x2="214.82" y2="878.89" class="up-wick"/>
<rect x="212.40" y="877.41" width="4.83" height="1.06" class="up-body"/>
<line x1="222.24" y1="871.13" x2="222.24" y2="875.97" class="up-wick"/>
<rect x="219.83" y="873.29" width="4.83" height="1.00" class="up-body"/>
<line x1="229.67" y1="873.19" x2="229.67" y2="876.35" class="up-wick"/>
<rect x="227.26" y="873.22" width="4.83" height="1.99" class="up-body"/>
<line x1="237.10" y1="872.61" x2="237.10" y2="877.04" class="down-wick"/>
<rect x="234.68" y="872.67" width="4.83" height="1.48" class="down-body"/>
<line x1="244.52" y1="872.78" x2="244.52" y2="874.01" class="down-wick"/>
<rect x="242.11" y="873.64" width="4.83" height="1.00" class="down-body"/>
<line x1="251.95" y1="872.16" x2="251.95" y2="880.20" class="down-wick"/>
<rect x="249.53" y="873.98" width="4.83" height="2.92" class="down-body"/>
<line x1="259.38" y1="879.41" x2="259.38" y2="881.98" class="up-wick"/>
<rect x="256.96" y="879.82" width="4.83" height="1.00" class="up-body"/>
<line x1="266.80" y1="892.84" x2="266.80" y2="896.55" class="down-wick"/>
<rect x="264.39" y="892.87" width="4.83" height="3.19" class="down-body"/>
<line x1="274.23" y1="895.52" x2="274.23" y2="897.07" class="down-wick"/>
<rect x="271.81" y="895.76" width="4.83" height="1.00" class="down-body"/>
<line x1="281.65" y1="892.39" x2="281.65" y2="894.69" class="up-wick"/>
<rect x="279.24" y="892.39" width="4.83" height="2.27" class="up-body"/>
<line x1="289.08" y1="889.54" x2="289.08" y2="895.83" class="up-wick"/>
<rect x="286.67" y="890.54" width="4.83" height="3.19" class="up-body"/>
<line x1="296.51" y1="892.22" x2="296.51" y2="895.83" class="up-wick"/>
<rect x="294.09" y="892.53" width="4.83" height="1.00" class="up-body"/>
<line x1="303.93" y1="892.56" x2="303.93" y2="896.76" class="up-wick"/>
<rect x="301.52" y="892.60" width="4.83" height="2.23" class="up-body"/>
<line x1="311.36" y1="891.81" x2="311.36" y2="896.03" class="down-wick"/>
<rect x="308.95" y="891.88" width="4.83" height="4.12" class="down-body"/>
<line x1="318.79" y1="898.20" x2="318.79" y2="903.87" class="up-wick"/>
<rect x="316.37" y="898.95" width="4.83" height="1.61" class="up-body"/>
<line x1="326.21" y1="894.21" x2="326.21" y2="897.03" class="up-wick"/>
<rect x="323.80" y="894.32" width="4.83" height="1.00" class="up-body"/>
<line x1="333.64" y1="887.38" x2="333.64" y2="891.43" class="up-wick"/>
<rect x="331.23" y="889.13" width="4.83" height="2.30" class="up-body"/>
<line x1="341.07" y1="888.10" x2="341.07" y2="890.26" class="up-wick"/>
<rect x="338.65" y="888.55" width="4.83" height="1.00" class="up-body"/>
<line x1="348.49" y1="891.09" x2="348.49" y2="900.53" class="up-wick"/>
<rect x="346.08" y="891.50" width="4.83" height="4.81" class="up-body"/>
<line x1="355.92" y1="885.76" x2="355.92" y2="894.21" class="down-wick"/>
<rect x="353.51" y="885.76" width="4.83" height="5.63" class="down-body"/>
<line x1="363.35" y1="885.80" x2="363.35" y2="889.30" class="up-wick"/>
<rect x="360.93" y="885.80" width="4.83" height="3.02" class="up-body"/>
<line x1="370.77" y1="887.21" x2="370.77" y2="891.43" class="down-wick"/>
<rect x="368.36" y="887.21" width="4.83" height="2.16" class="down-body"/>
<line x1="378.20" y1="875.70" x2="378.20" y2="883.50" class="up-wick"/>
<rect x="375.78" y="875.94" width="4.83" height="6.49" class="up-body"/>
<line x1="385.62" y1="875.01" x2="385.62" y2="878.17" class="up-wick"/>
<rect x="383.21" y="875.42" width="4.83" height="2.75" class="up-body"/>
<line x1="393.05" y1="875.42" x2="393.05" y2="878.20" class="down-wick"/>
<rect x="390.64" y="877.11" width="4.83" height="1.00" class="down-body"/>
<line x1="400.48" y1="879.58" x2="400.48" y2="881.40" class="up-wick"/>
<rect x="398.06" y="880.37" width="4.83" height="1.00" class="up-body"/>
<line x1="407.90" y1="878.10" x2="407.90" y2="908.20" class="down-wick"/>
<rect x="405.49" y="878.38" width="4.83" height="24.25" class="down-body"/>
<line x1="415.33" y1="901.57" x2="415.33" y2="911.77" class="up-wick"/>
<rect x="412.92" y="904.49" width="4.83" height="3.50" class="up-body"/>
<line x1="422.76" y1="888.72" x2="422.76" y2="906.03" class="up-wick"/>
<rect x="420.34" y="891.43" width="4.83" height="14.33" class="up-body"/>
<line x1="430.18" y1="890.78" x2="430.18" y2="905.04" class="down-wick"/>
<rect x="427.77" y="898.47" width="4.83" height="1.37" class="down-body"/>
<line x1="437.61" y1="893.46" x2="437.61" y2="906.44" class="up-wick"/>
<rect x="435.20" y="893.80" width="4.83" height="9.86" class="up-body"/>
<line x1="445.04" y1="886.97" x2="445.04" y2="899.06" class="up-wick"/>
<rect x="442.62" y="888.17" width="4.83" height="7.45" class="up-body"/>
<line x1="452.46" y1="875.11" x2="452.46" y2="886.93" class="up-wick"/>
<rect x="450.05" y="876.01" width="4.83" height="7.63" class="up-body"/>
<line x1="459.89" y1="873.09" x2="459.89" y2="884.84" class="down-wick"/>
<rect x="457.48" y="874.15" width="4.83" height="8.52" class="down-body"/>
<line x1="467.32" y1="871.88" x2="467.32" y2="877.31" class="up-wick"/>
<rect x="464.90" y="872.61" width="4.83" height="1.03" class="up-body"/>
<line x1="474.74" y1="873.15" x2="474.74" y2="880.20" class="down-wick"/>
<rect x="472.33" y="873.15" width="4.83" height="2.27" class="down-body"/>
<line x1="482.17" y1="879.03" x2="482.17" y2="885.83" class="down-wick"/>
<rect x="479.76" y="879.75" width="4.83" height="5.32" class="down-body"/>
<line x1="489.60" y1="878.38" x2="489.60" y2="882.77" class="down-wick"/>
<rect x="487.18" y="879.92" width="4.83" height="1.00" class="down-body"/>
<line x1="497.02" y1="876.04" x2="497.02" y2="885.52" class="up-wick"/>
<rect x="494.61" y="877.93" width="4.83" height="7.49" class="up-body"/>
<line x1="504.45" y1="875.11" x2="504.45" y2="878.27" class="up-wick"/>
<rect x="502.03" y="876.66" width="4.83" height="1.00" class="up-body"/>
<line x1="511.88" y1="878.55" x2="511.88" y2="882.57" class="up-wick"/>
<rect x="509.46" y="880.47" width="4.83" height="1.00" class="up-body"/>
<line x1="519.30" y1="873.50" x2="519.30" y2="883.08" class="down-wick"/>
<rect x="516.89" y="877.55" width="4.83" height="1.00" class="down-body"/>
<line x1="526.73" y1="872.95" x2="526.73" y2="880.27" class="down-wick"/>
<rect x="524.31" y="873.43" width="4.83" height="2.95" class="down-body"/>
<line x1="534.15" y1="871.64" x2="534.15" y2="875.32" class="up-wick"/>
<rect x="531.74" y="872.40" width="4.83" height="1.92" class="up-body"/>
<line x1="541.58" y1="872.23" x2="541.58" y2="875.59" class="down-wick"/>
<rect x="539.17" y="872.26" width="4.83" height="1.82" class="down-body"/>
<line x1="549.01" y1="871.44" x2="549.01" y2="875.77" class="up-wick"/>
<rect x="546.59" y="871.47" width="4.83" height="1.92" class="up-body"/>
<line x1="556.43" y1="872.23" x2="556.43" y2="874.12" class="down-wick"/>
<rect x="554.02" y="873.98" width="4.83" height="1.00" class="down-body"/>
<line x1="563.86" y1="871.57" x2="563.86" y2="874.53" class="down-wick"/>
<rect x="561.45" y="871.88" width="4.83" height="1.89" class="down-body"/>
<line x1="571.29" y1="871.92" x2="571.29" y2="874.25" class="down-wick"/>
<rect x="568.87" y="872.06" width="4.83" height="1.00" class="down-body"/>
<line x1="578.71" y1="870.41" x2="578.71" y2="877.24" class="down-wick"/>
<rect x="576.30" y="871.40" width="4.83" height="4.88" class="down-body"/>
<line x1="586.14" y1="871.44" x2="586.14" y2="878.62" class="down-wick"/>
<rect x="583.73" y="873.94" width="4.83" height="3.47" class="down-body"/>
<line x1="593.57" y1="877.11" x2="593.57" y2="885.66" class="down-wick"/>
<rect x="591.15" y="879.20" width="4.83" height="5.46" class="down-body"/>
<line x1="600.99" y1="877.62" x2="600.99" y2="887.76" class="up-wick"/>
<rect x="598.58" y="878.86" width="4.83" height="7.70" class="up-body"/>
<line x1="608.42" y1="877.17" x2="608.42" y2="887.03" class="down-wick"/>
<rect x="606.01" y="879.24" width="4.83" height="4.74" class="down-body"/>
<line x1="615.85" y1="884.18" x2="615.85" y2="889.92" class="down-wick"/>
<rect x="613.43" y="885.49" width="4.83" height="1.99" class="down-body"/>
<line x1="623.27" y1="882.40" x2="623.27" y2="888.44" class="up-wick"/>
<rect x="620.86" y="886.48" width="4.83" height="1.00" class="up-body"/>
<line x1="630.70" y1="892.15" x2="630.70" y2="982.81" class="down-wick"/>
<rect x="628.28" y="892.15" width="4.83" height="39.78" class="down-body"/>
<line x1="638.12" y1="880.23" x2="638.12" y2="912.87" class="up-wick"/>
<rect x="635.71" y="883.70" width="4.83" height="29.17" class="up-body"/>
<line x1="645.55" y1="867.49" x2="645.55" y2="881.06" class="up-wick"/>
<rect x="643.14" y="869.03" width="4.83" height="5.19" class="up-body"/>
<line x1="652.98" y1="869.24" x2="652.98" y2="878.48" class="up-wick"/>
<rect x="650.56" y="873.50" width="4.83" height="4.98" class="up-body"/>
<line x1="660.40" y1="859.24" x2="660.40" y2="884.11" class="down-wick"/>
<rect x="657.99" y="864.60" width="4.83" height="14.70" class="down-body"/>
<line x1="667.83" y1="922.18" x2="667.83" y2="980.03" class="down-wick"/>
<rect x="665.42" y="927.78" width="4.83" height="27.69" class="down-body"/>
<line x1="675.26" y1="925.13" x2="675.26" y2="946.71" class="down-wick"/>
<rect x="672.84" y="938.50" width="4.83" height="8.04" class="down-body"/>
<line x1="682.68" y1="938.01" x2="682.68" y2="951.65" class="up-wick"/>
<rect x="680.27" y="941.11" width="4.83" height="3.44" class="up-body"/>
<line x1="690.11" y1="913.38" x2="690.11" y2="947.29" class="up-wick"/>
<rect x="687.70" y="920.63" width="4.83" height="19.41" class="up-body"/>
<line x1="697.54" y1="905.31" x2="697.54" y2="921.35" class="down-wick"/>
<rect x="695.12" y="913.18" width="4.83" height="2.65" class="down-body"/>
<line x1="704.96" y1="883.01" x2="704.96" y2="906.65" class="up-wick"/>
<rect x="702.55" y="893.05" width="4.83" height="11.96" class="up-body"/>
<line x1="712.39" y1="888.20" x2="712.39" y2="902.25" class="down-wick"/>
<rect x="709.98" y="890.43" width="4.83" height="3.74" class="down-body"/>
<line x1="719.82" y1="900.26" x2="719.82" y2="911.77" class="up-wick"/>
<rect x="717.40" y="908.54" width="4.83" height="1.00" class="up-body"/>
<line x1="727.24" y1="902.15" x2="727.24" y2="922.56" class="up-wick"/>
<rect x="724.83" y="902.15" width="4.83" height="13.26" class="up-body"/>
<line x1="734.67" y1="894.25" x2="734.67" y2="904.31" class="down-wick"/>
<rect x="732.26" y="897.10" width="4.83" height="1.51" class="down-body"/>
<line x1="742.10" y1="888.24" x2="742.10" y2="904.31" class="down-wick"/>
<rect x="739.68" y="892.15" width="4.83" height="5.98" class="down-body"/>
<line x1="749.52" y1="870.92" x2="749.52" y2="889.75" class="up-wick"/>
<rect x="747.11" y="874.98" width="4.83" height="14.43" class="up-body"/>
<line x1="756.95" y1="866.08" x2="756.95" y2="883.74" class="down-wick"/>
<rect x="754.53" y="874.46" width="4.83" height="7.83" class="down-body"/>
<line x1="764.38" y1="880.99" x2="764.38" y2="903.08" class="down-wick"/>
<rect x="761.96" y="886.38" width="4.83" height="14.57" class="down-body"/>
<line x1="771.80" y1="927.06" x2="771.80" y2="978.66" class="down-wick"/>
<rect x="769.39" y="933.69" width="4.83" height="29.06" class="down-body"/>
<line x1="779.23" y1="938.05" x2="779.23" y2="960.31" class="down-wick"/>
<rect x="776.81" y="946.50" width="4.83" height="5.12" class="down-body"/>
<line x1="786.65" y1="918.36" x2="786.65" y2="937.22" class="up-wick"/>
<rect x="784.24" y="931.14" width="4.83" height="3.37" class="up-body"/>
<line x1="794.08" y1="934.92" x2="794.08" y2="948.56" class="down-wick"/>
<rect x="791.67" y="936.19" width="4.83" height="1.58" class="down-body"/>
<line x1="801.51" y1="921.35" x2="801.51" y2="935.27" class="up-wick"/>
<rect x="799.09" y="922.28" width="4.83" height="12.99" class="up-body"/>
<line x1="808.93" y1="922.90" x2="808.93" y2="944.95" class="down-wick"/>
<rect x="806.52" y="923.86" width="4.83" height="16.46" class="down-body"/>
<line x1="816.36" y1="954.88" x2="816.36" y2="977.59" class="up-wick"/>
<rect x="813.95" y="955.57" width="4.83" height="7.15" class="up-body"/>
<line x1="823.79" y1="971.68" x2="823.79" y2="1010.91" class="down-wick"/>
<rect x="821.37" y="975.15" width="4.83" height="34.46" class="down-body"/>
<line x1="831.21" y1="981.92" x2="831.21" y2="993.70" class="up-wick"/>
<rect x="828.80" y="987.28" width="4.83" height="3.54" class="up-body"/>
<line x1="838.64" y1="996.24" x2="838.64" y2="1024.76" class="down-wick"/>
<rect x="836.23" y="997.52" width="4.83" height="22.19" class="down-body"/>
<line x1="846.07" y1="990.51" x2="846.07" y2="1000.16" class="up-wick"/>
<rect x="843.65" y="996.28" width="4.83" height="2.27" class="up-body"/>
<line x1="853.49" y1="980.17" x2="853.49" y2="998.03" class="up-wick"/>
<rect x="851.08" y="981.78" width="4.83" height="6.08" class="up-body"/>
<line x1="860.92" y1="980.34" x2="860.92" y2="998.96" class="up-wick"/>
<rect x="858.51" y="987.86" width="4.83" height="6.60" class="up-body"/>
<line x1="868.35" y1="975.36" x2="868.35" y2="984.94" class="down-wick"/>
<rect x="865.93" y="976.49" width="4.83" height="7.21" class="down-body"/>
<line x1="875.77" y1="976.42" x2="875.77" y2="986.52" class="up-wick"/>
<rect x="873.36" y="977.97" width="4.83" height="5.63" class="up-body"/>
<line x1="883.20" y1="986.32" x2="883.20" y2="1011.91" class="up-wick"/>
<rect x="880.78" y="986.93" width="4.83" height="20.17" class="up-body"/>
<line x1="890.62" y1="962.61" x2="890.62" y2="972.88" class="up-wick"/>
<rect x="888.21" y="967.97" width="4.83" height="4.91" class="up-body"/>
<line x1="898.05" y1="977.21" x2="898.05" y2="985.01" class="down-wick"/>
<rect x="895.64" y="978.52" width="4.83" height="4.19" class="down-body"/>
<line x1="905.48" y1="981.40" x2="905.48" y2="996.62" class="up-wick"/>
<rect x="903.06" y="989.03" width="4.83" height="6.73" class="up-body"/>
<line x1="912.90" y1="987.83" x2="912.90" y2="995.90" class="up-wick"/>
<rect x="910.49" y="991.13" width="4.83" height="4.78" class="up-body"/>
<line x1="920.33" y1="976.97" x2="920.33" y2="989.75" class="up-wick"/>
<rect x="917.92" y="979.14" width="4.83" height="10.62" class="up-body"/>
<line x1="927.76" y1="970.75" x2="927.76" y2="980.06" class="up-wick"/>
<rect x="925.34" y="973.78" width="4.83" height="1.00" class="up-body"/>
<line x1="935.18" y1="977.97" x2="935.18" y2="988.38" class="up-wick"/>
<rect x="932.77" y="981.34" width="4.83" height="2.82" class="up-body"/>
<line x1="942.61" y1="971.03" x2="942.61" y2="979.72" class="down-wick"/>
<rect x="940.20" y="974.67" width="4.83" height="1.61" class="down-body"/>
<line x1="950.04" y1="972.51" x2="950.04" y2="978.11" class="up-wick"/>
<rect x="947.62" y="972.92" width="4.83" height="3.85" class="up-body"/>
<line x1="957.46" y1="963.61" x2="957.46" y2="974.50" class="up-wick"/>
<rect x="955.05" y="967.08" width="4.83" height="7.39" class="up-body"/>
<line x1="964.89" y1="943.61" x2="964.89" y2="963.81" class="up-wick"/>
<rect x="962.48" y="948.66" width="4.83" height="12.75" class="up-body"/>
<line x1="972.32" y1="946.57" x2="972.32" y2="955.26" class="up-wick"/>
<rect x="969.90" y="951.21" width="4.83" height="1.48" class="up-body"/>
<line x1="979.74" y1="946.88" x2="979.74" y2="951.96" class="up-wick"/>
<rect x="977.33" y="950.00" width="4.83" height="1.00" class="up-body"/>
<line x1="987.17" y1="945.02" x2="987.17" y2="958.66" class="up-wick"/>
<rect x="984.76" y="945.99" width="4.83" height="10.58" class="up-body"/>
<line x1="994.60" y1="938.84" x2="994.60" y2="948.87" class="up-wick"/>
<rect x="992.18" y="943.24" width="4.83" height="1.58" class="up-body"/>
<line x1="1002.02" y1="930.01" x2="1002.02" y2="939.18" class="up-wick"/>
<rect x="999.61" y="932.52" width="4.83" height="3.06" class="up-body"/>
<line x1="1009.45" y1="931.56" x2="1009.45" y2="937.26" class="up-wick"/>
<rect x="1007.03" y="933.21" width="4.83" height="1.00" class="up-body"/>
<line x1="1016.88" y1="919.19" x2="1016.88" y2="929.29" class="up-wick"/>
<rect x="1014.46" y="921.28" width="4.83" height="4.53" class="up-body"/>
<line x1="1024.30" y1="911.77" x2="1024.30" y2="924.45" class="up-wick"/>
<rect x="1021.89" y="912.90" width="4.83" height="10.96" class="up-body"/>
<line x1="1031.73" y1="901.08" x2="1031.73" y2="916.78" class="up-wick"/>
<rect x="1029.31" y="901.19" width="4.83" height="15.49" class="up-body"/>
<line x1="1039.15" y1="896.52" x2="1039.15" y2="904.86" class="up-wick"/>
<rect x="1036.74" y="896.52" width="4.83" height="7.21" class="up-body"/>
<line x1="1046.58" y1="897.24" x2="1046.58" y2="909.33" class="up-wick"/>
<rect x="1044.17" y="897.72" width="4.83" height="6.80" class="up-body"/>
<line x1="1054.01" y1="898.78" x2="1054.01" y2="906.96" class="down-wick"/>
<rect x="1051.59" y="900.81" width="4.83" height="5.70" class="down-body"/>
<line x1="1061.43" y1="910.94" x2="1061.43" y2="917.27" class="down-wick"/>
<rect x="1059.02" y="911.80" width="4.83" height="3.23" class="down-body"/>
<line x1="1068.86" y1="906.31" x2="1068.86" y2="913.38" class="up-wick"/>
<rect x="1066.45" y="908.09" width="4.83" height="3.44" class="up-body"/>
<line x1="1076.29" y1="906.68" x2="1076.29" y2="911.32" class="down-wick"/>
<rect x="1073.87" y="906.82" width="4.83" height="4.47" class="down-body"/>
<line x1="70" y1="902.60" x2="1080" y2="902.60" class="sweep-line"/>
<text x="1076" y="898.60" text-anchor="end" class="level-label">sweep 4651.79</text>
<line x1="70" y1="903.87" x2="1080" y2="903.87" class="entry-line"/>
<text x="1076" y="899.87" text-anchor="end" class="level-label">entry level 4651.42</text>
<text x="70" y="1056" class="axis-label">2026-04-07 01:30:00+00:00 to 2026-04-07 06:00:00+00:00</text>
<text x="1080" y="1056" text-anchor="end" class="axis-label">4612.38 - 4668.26</text>
</svg>