<svg xmlns="http://www.w3.org/2000/svg" width="1120" height="1054" viewBox="0 0 1120 1054">
<style>
text{font-family:Arial,Helvetica,sans-serif}.title{font-size:21px;font-weight:700;fill:#1f2937}.subtitle{font-size:12px;fill:#4b5563}.panel-title{font-size:15px;font-weight:700;fill:#111827}.muted{font-size:13px;fill:#6b7280}.plot-bg{fill:#f8fafc;stroke:#cbd5e1;stroke-width:1}.up-body{fill:#15803d;stroke:#14532d;stroke-width:.8}.down-body{fill:#b91c1c;stroke:#7f1d1d;stroke-width:.8}.up-wick{stroke:#14532d;stroke-width:1}.down-wick{stroke:#7f1d1d;stroke-width:1}.sweep-line{stroke:#7c3aed;stroke-width:1.6;stroke-dasharray:6 4}.number-line{stroke:#0f766e;stroke-width:1.4;stroke-dasharray:3 4}.entry-line{stroke:#2563eb;stroke-width:1.4}.sl-line{stroke:#dc2626;stroke-width:1.4}.tp-line{stroke:#16a34a;stroke-width:1.4}.level-label,.axis-label{font-size:11px;fill:#374151}
</style>
<text x="28" y="28" class="title">Adelin v2 visual review sample sample_016</text>
<text x="28" y="48" class="subtitle">Candidate windows are for visual labeling only and are not trade signals.</text>
<text x="560" y="48" class="subtitle" text-anchor="middle">NUMBER_THEORY_LEVEL_NEAR | ROUND_LEVEL_ENTRY_METADATA_AVAILABLE</text>
<text x="70" y="82" class="panel-title">H1 liquidity context</text>
<rect x="70" y="96" width="1010" height="192" class="plot-bg"/>
<line x1="75.80" y1="114.64" x2="75.80" y2="121.35" class="up-wick"/>
<rect x="72.03" y="117.35" width="7.55" height="3.41" class="up-body"/>
<line x1="87.41" y1="109.24" x2="87.41" y2="118.59" class="down-wick"/>
<rect x="83.64" y="117.33" width="7.55" height="1.17" class="down-body"/>
<line x1="99.02" y1="117.71" x2="99.02" y2="136.72" class="down-wick"/>
<rect x="95.25" y="118.50" width="7.55" height="17.18" class="down-body"/>
<line x1="110.63" y1="127.79" x2="110.63" y2="139.36" class="down-wick"/>
<rect x="106.86" y="135.69" width="7.55" height="1.35" class="down-body"/>
<line x1="122.24" y1="131.25" x2="122.24" y2="137.61" class="up-wick"/>
<rect x="118.47" y="135.51" width="7.55" height="1.52" class="up-body"/>
<line x1="133.85" y1="135.21" x2="133.85" y2="139.26" class="down-wick"/>
<rect x="130.08" y="135.51" width="7.55" height="2.83" class="down-body"/>
<line x1="145.46" y1="138.00" x2="145.46" y2="176.20" class="down-wick"/>
<rect x="141.69" y="138.33" width="7.55" height="30.67" class="down-body"/>
<line x1="157.07" y1="159.69" x2="157.07" y2="176.77" class="down-wick"/>
<rect x="153.30" y="168.99" width="7.55" height="2.79" class="down-body"/>
<line x1="168.68" y1="162.73" x2="168.68" y2="179.17" class="up-wick"/>
<rect x="164.91" y="168.07" width="7.55" height="3.71" class="up-body"/>
<line x1="180.29" y1="166.15" x2="180.29" y2="184.12" class="down-wick"/>
<rect x="176.51" y="168.07" width="7.55" height="3.11" class="down-body"/>
<line x1="191.90" y1="170.88" x2="191.90" y2="192.91" class="down-wick"/>
<rect x="188.12" y="171.17" width="7.55" height="21.48" class="down-body"/>
<line x1="203.51" y1="182.60" x2="203.51" y2="194.22" class="down-wick"/>
<rect x="199.73" y="192.66" width="7.55" height="1.45" class="down-body"/>
<line x1="215.11" y1="189.32" x2="215.11" y2="235.40" class="down-wick"/>
<rect x="211.34" y="194.10" width="7.55" height="35.19" class="down-body"/>
<line x1="226.72" y1="196.73" x2="226.72" y2="235.97" class="up-wick"/>
<rect x="222.95" y="202.26" width="7.55" height="27.03" class="up-body"/>
<line x1="238.33" y1="201.49" x2="238.33" y2="222.13" class="down-wick"/>
<rect x="234.56" y="202.26" width="7.55" height="11.75" class="down-body"/>
<line x1="249.94" y1="213.66" x2="249.94" y2="233.84" class="down-wick"/>
<rect x="246.17" y="213.99" width="7.55" height="5.01" class="down-body"/>
<line x1="261.55" y1="208.50" x2="261.55" y2="225.43" class="up-wick"/>
<rect x="257.78" y="208.50" width="7.55" height="10.50" class="up-body"/>
<line x1="273.16" y1="201.42" x2="273.16" y2="216.05" class="up-wick"/>
<rect x="269.39" y="203.60" width="7.55" height="4.90" class="up-body"/>
<line x1="284.77" y1="195.57" x2="284.77" y2="207.96" class="up-wick"/>
<rect x="281.00" y="201.43" width="7.55" height="2.16" class="up-body"/>
<line x1="296.38" y1="196.45" x2="296.38" y2="203.80" class="down-wick"/>
<rect x="292.61" y="201.43" width="7.55" height="1.00" class="down-body"/>
<line x1="307.99" y1="196.93" x2="307.99" y2="202.62" class="up-wick"/>
<rect x="304.22" y="200.62" width="7.55" height="1.22" class="up-body"/>
<line x1="319.60" y1="197.22" x2="319.60" y2="203.47" class="down-wick"/>
<rect x="315.82" y="199.87" width="7.55" height="2.13" class="down-body"/>
<line x1="331.21" y1="200.15" x2="331.21" y2="207.35" class="up-wick"/>
<rect x="327.43" y="200.64" width="7.55" height="1.36" class="up-body"/>
<line x1="342.82" y1="188.00" x2="342.82" y2="201.24" class="up-wick"/>
<rect x="339.04" y="196.74" width="7.55" height="3.87" class="up-body"/>
<line x1="354.43" y1="196.54" x2="354.43" y2="217.66" class="down-wick"/>
<rect x="350.65" y="196.74" width="7.55" height="13.30" class="down-body"/>
<line x1="366.03" y1="193.18" x2="366.03" y2="210.04" class="up-wick"/>
<rect x="362.26" y="202.36" width="7.55" height="7.68" class="up-body"/>
<line x1="377.64" y1="193.96" x2="377.64" y2="203.62" class="up-wick"/>
<rect x="373.87" y="200.81" width="7.55" height="1.56" class="up-body"/>
<line x1="389.25" y1="192.02" x2="389.25" y2="200.96" class="up-wick"/>
<rect x="385.48" y="192.75" width="7.55" height="8.05" class="up-body"/>
<line x1="400.86" y1="190.18" x2="400.86" y2="204.81" class="down-wick"/>
<rect x="397.09" y="192.74" width="7.55" height="11.84" class="down-body"/>
<line x1="412.47" y1="198.02" x2="412.47" y2="213.33" class="down-wick"/>
<rect x="408.70" y="204.58" width="7.55" height="5.70" class="down-body"/>
<line x1="424.08" y1="206.47" x2="424.08" y2="225.19" class="down-wick"/>
<rect x="420.31" y="210.28" width="7.55" height="14.44" class="down-body"/>
<line x1="435.69" y1="217.02" x2="435.69" y2="233.93" class="up-wick"/>
<rect x="431.92" y="220.13" width="7.55" height="4.45" class="up-body"/>
<line x1="447.30" y1="213.44" x2="447.30" y2="238.85" class="down-wick"/>
<rect x="443.53" y="220.13" width="7.55" height="15.11" class="down-body"/>
<line x1="458.91" y1="217.13" x2="458.91" y2="235.81" class="up-wick"/>
<rect x="455.14" y="223.01" width="7.55" height="12.24" class="up-body"/>
<line x1="470.52" y1="221.12" x2="470.52" y2="232.10" class="down-wick"/>
<rect x="466.74" y="222.99" width="7.55" height="7.17" class="down-body"/>
<line x1="482.13" y1="223.61" x2="482.13" y2="247.16" class="down-wick"/>
<rect x="478.35" y="230.16" width="7.55" height="14.40" class="down-body"/>
<line x1="493.74" y1="237.26" x2="493.74" y2="274.76" class="down-wick"/>
<rect x="489.96" y="244.56" width="7.55" height="19.98" class="down-body"/>
<line x1="505.34" y1="246.43" x2="505.34" y2="267.97" class="up-wick"/>
<rect x="501.57" y="249.45" width="7.55" height="15.10" class="up-body"/>
<line x1="516.95" y1="232.41" x2="516.95" y2="252.02" class="up-wick"/>
<rect x="513.18" y="242.19" width="7.55" height="7.26" class="up-body"/>
<line x1="528.56" y1="227.30" x2="528.56" y2="245.97" class="down-wick"/>
<rect x="524.79" y="242.25" width="7.55" height="1.84" class="down-body"/>
<line x1="540.17" y1="236.22" x2="540.17" y2="247.40" class="up-wick"/>
<rect x="536.40" y="242.49" width="7.55" height="1.59" class="up-body"/>
<line x1="551.78" y1="237.73" x2="551.78" y2="267.57" class="down-wick"/>
<rect x="548.01" y="242.49" width="7.55" height="7.85" class="down-body"/>
<line x1="563.39" y1="239.58" x2="563.39" y2="254.70" class="up-wick"/>
<rect x="559.62" y="242.91" width="7.55" height="7.45" class="up-body"/>
<line x1="575.00" y1="237.77" x2="575.00" y2="249.64" class="up-wick"/>
<rect x="571.23" y="238.32" width="7.55" height="7.43" class="up-body"/>
<line x1="586.61" y1="229.70" x2="586.61" y2="240.44" class="up-wick"/>
<rect x="582.84" y="230.02" width="7.55" height="8.30" class="up-body"/>
<line x1="598.22" y1="219.27" x2="598.22" y2="234.62" class="up-wick"/>
<rect x="594.45" y="222.96" width="7.55" height="7.05" class="up-body"/>
<line x1="609.83" y1="211.96" x2="609.83" y2="227.52" class="up-wick"/>
<rect x="606.05" y="214.80" width="7.55" height="8.16" class="up-body"/>
<line x1="621.44" y1="212.52" x2="621.44" y2="231.65" class="down-wick"/>
<rect x="617.66" y="214.80" width="7.55" height="12.45" class="down-body"/>
<line x1="633.05" y1="223.65" x2="633.05" y2="235.25" class="down-wick"/>
<rect x="629.27" y="227.25" width="7.55" height="7.70" class="down-body"/>
<line x1="644.66" y1="234.10" x2="644.66" y2="248.00" class="down-wick"/>
<rect x="640.88" y="234.95" width="7.55" height="12.03" class="down-body"/>
<line x1="656.26" y1="223.06" x2="656.26" y2="247.10" class="up-wick"/>
<rect x="652.49" y="229.19" width="7.55" height="17.78" class="up-body"/>
<line x1="667.87" y1="204.24" x2="667.87" y2="231.23" class="up-wick"/>
<rect x="664.10" y="205.93" width="7.55" height="23.26" class="up-body"/>
<line x1="679.48" y1="192.12" x2="679.48" y2="209.89" class="up-wick"/>
<rect x="675.71" y="198.21" width="7.55" height="7.72" class="up-body"/>
<line x1="691.09" y1="171.29" x2="691.09" y2="199.19" class="up-wick"/>
<rect x="687.32" y="182.69" width="7.55" height="15.50" class="up-body"/>
<line x1="702.70" y1="169.32" x2="702.70" y2="184.50" class="up-wick"/>
<rect x="698.93" y="175.05" width="7.55" height="7.64" class="up-body"/>
<line x1="714.31" y1="156.29" x2="714.31" y2="176.26" class="up-wick"/>
<rect x="710.54" y="162.54" width="7.55" height="12.50" class="up-body"/>
<line x1="725.92" y1="157.20" x2="725.92" y2="173.66" class="down-wick"/>
<rect x="722.15" y="162.54" width="7.55" height="8.27" class="down-body"/>
<line x1="737.53" y1="162.18" x2="737.53" y2="175.61" class="up-wick"/>
<rect x="733.76" y="162.61" width="7.55" height="8.19" class="up-body"/>
<line x1="749.14" y1="156.97" x2="749.14" y2="187.68" class="down-wick"/>
<rect x="745.36" y="162.59" width="7.55" height="24.82" class="down-body"/>
<line x1="760.75" y1="174.35" x2="760.75" y2="188.73" class="up-wick"/>
<rect x="756.97" y="179.84" width="7.55" height="7.78" class="up-body"/>
<line x1="772.36" y1="174.83" x2="772.36" y2="187.08" class="down-wick"/>
<rect x="768.58" y="179.84" width="7.55" height="3.78" class="down-body"/>
<line x1="783.97" y1="181.55" x2="783.97" y2="192.23" class="down-wick"/>
<rect x="780.19" y="183.66" width="7.55" height="6.64" class="down-body"/>
<line x1="795.57" y1="178.11" x2="795.57" y2="190.28" class="up-wick"/>
<rect x="791.80" y="182.30" width="7.55" height="7.95" class="up-body"/>
<line x1="807.18" y1="175.04" x2="807.18" y2="182.37" class="up-wick"/>
<rect x="803.41" y="177.45" width="7.55" height="4.82" class="up-body"/>
<line x1="818.79" y1="173.02" x2="818.79" y2="184.26" class="down-wick"/>
<rect x="815.02" y="177.45" width="7.55" height="4.78" class="down-body"/>
<line x1="830.40" y1="168.51" x2="830.40" y2="177.88" class="up-wick"/>
<rect x="826.63" y="170.65" width="7.55" height="7.24" class="up-body"/>
<line x1="842.01" y1="167.42" x2="842.01" y2="174.08" class="down-wick"/>
<rect x="838.24" y="170.65" width="7.55" height="3.32" class="down-body"/>
<line x1="853.62" y1="170.02" x2="853.62" y2="180.94" class="down-wick"/>
<rect x="849.85" y="173.97" width="7.55" height="5.90" class="down-body"/>
<line x1="865.23" y1="177.67" x2="865.23" y2="184.88" class="up-wick"/>
<rect x="861.46" y="178.77" width="7.55" height="1.05" class="up-body"/>
<line x1="876.84" y1="165.70" x2="876.84" y2="182.56" class="down-wick"/>
<rect x="873.07" y="178.78" width="7.55" height="1.54" class="down-body"/>
<line x1="888.45" y1="169.24" x2="888.45" y2="181.54" class="up-wick"/>
<rect x="884.68" y="173.76" width="7.55" height="6.56" class="up-body"/>
<line x1="900.06" y1="171.88" x2="900.06" y2="188.94" class="down-wick"/>
<rect x="896.28" y="173.76" width="7.55" height="15.17" class="down-body"/>
<line x1="911.67" y1="182.86" x2="911.67" y2="194.46" class="down-wick"/>
<rect x="907.89" y="188.92" width="7.55" height="3.68" class="down-body"/>
<line x1="923.28" y1="190.08" x2="923.28" y2="204.81" class="down-wick"/>
<rect x="919.50" y="192.61" width="7.55" height="8.76" class="down-body"/>
<line x1="934.89" y1="198.54" x2="934.89" y2="217.73" class="down-wick"/>
<rect x="931.11" y="201.37" width="7.55" height="14.38" class="down-body"/>
<line x1="946.49" y1="211.99" x2="946.49" y2="227.07" class="down-wick"/>
<rect x="942.72" y="215.75" width="7.55" height="8.11" class="down-body"/>
<line x1="958.10" y1="220.26" x2="958.10" y2="231.41" class="down-wick"/>
<rect x="954.33" y="223.65" width="7.55" height="5.49" class="down-body"/>
<line x1="969.71" y1="217.63" x2="969.71" y2="230.28" class="up-wick"/>
<rect x="965.94" y="225.54" width="7.55" height="3.64" class="up-body"/>
<line x1="981.32" y1="214.53" x2="981.32" y2="229.29" class="up-wick"/>
<rect x="977.55" y="215.32" width="7.55" height="10.22" class="up-body"/>
<line x1="992.93" y1="190.16" x2="992.93" y2="218.60" class="up-wick"/>
<rect x="989.16" y="204.48" width="7.55" height="10.84" class="up-body"/>
<line x1="1004.54" y1="171.85" x2="1004.54" y2="208.54" class="up-wick"/>
<rect x="1000.77" y="174.44" width="7.55" height="30.06" class="up-body"/>
<line x1="1016.15" y1="144.80" x2="1016.15" y2="175.26" class="up-wick"/>
<rect x="1012.38" y="169.09" width="7.55" height="5.37" class="up-body"/>
<line x1="1027.76" y1="155.06" x2="1027.76" y2="180.31" class="up-wick"/>
<rect x="1023.99" y="159.44" width="7.55" height="9.65" class="up-body"/>
<line x1="1039.37" y1="153.51" x2="1039.37" y2="167.46" class="down-wick"/>
<rect x="1035.59" y="159.44" width="7.55" height="3.70" class="down-body"/>
<line x1="1050.98" y1="159.84" x2="1050.98" y2="173.65" class="down-wick"/>
<rect x="1047.20" y="163.14" width="7.55" height="8.20" class="down-body"/>
<line x1="1062.59" y1="170.29" x2="1062.59" y2="185.08" class="down-wick"/>
<rect x="1058.81" y="171.34" width="7.55" height="4.49" class="down-body"/>
<line x1="1074.20" y1="172.90" x2="1074.20" y2="189.34" class="down-wick"/>
<rect x="1070.42" y="175.81" width="7.55" height="11.69" class="down-body"/>
<line x1="70" y1="170.91" x2="1080" y2="170.91" class="number-line"/>
<text x="1076" y="166.91" text-anchor="end" class="level-label">round 4630.00</text>
<line x1="70" y1="170.91" x2="1080" y2="170.91" class="entry-line"/>
<text x="1076" y="166.91" text-anchor="end" class="level-label">entry level 4630.00</text>
<text x="70" y="306" class="axis-label">2026-04-28 02:00:00+00:00 to 2026-05-01 22:00:00+00:00</text>
<text x="1080" y="306" text-anchor="end" class="axis-label">4494.72 - 4716.54</text>
<text x="70" y="332" class="panel-title">M15 liquidity / reaction context</text>
<rect x="70" y="346" width="1010" height="192" class="plot-bg"/>
<line x1="77.77" y1="384.84" x2="77.77" y2="408.48" class="up-wick"/>
<rect x="73.77" y="385.36" width="8.00" height="11.94" class="up-body"/>
<line x1="93.31" y1="360.34" x2="93.31" y2="400.32" class="down-wick"/>
<rect x="89.31" y="385.36" width="8.00" height="14.91" class="down-body"/>
<line x1="108.85" y1="368.91" x2="108.85" y2="423.23" class="up-wick"/>
<rect x="104.85" y="389.75" width="8.00" height="10.32" class="up-body"/>
<line x1="124.38" y1="389.75" x2="124.38" y2="437.57" class="down-wick"/>
<rect x="120.38" y="389.75" width="8.00" height="36.24" class="down-body"/>
<line x1="139.92" y1="402.75" x2="139.92" y2="432.45" class="up-wick"/>
<rect x="135.92" y="424.16" width="8.00" height="1.83" class="up-body"/>
<line x1="155.46" y1="394.38" x2="155.46" y2="426.97" class="up-wick"/>
<rect x="151.46" y="401.05" width="8.00" height="23.12" class="up-body"/>
<line x1="171.00" y1="394.42" x2="171.00" y2="431.03" class="down-wick"/>
<rect x="167.00" y="401.05" width="8.00" height="24.58" class="down-body"/>
<line x1="186.54" y1="398.77" x2="186.54" y2="444.60" class="down-wick"/>
<rect x="182.54" y="425.34" width="8.00" height="16.33" class="down-body"/>
<line x1="202.08" y1="383.70" x2="202.08" y2="446.75" class="up-wick"/>
<rect x="198.08" y="385.73" width="8.00" height="55.94" class="up-body"/>
<line x1="217.62" y1="367.20" x2="217.62" y2="406.09" class="up-wick"/>
<rect x="213.62" y="379.76" width="8.00" height="5.85" class="up-body"/>
<line x1="233.15" y1="359.24" x2="233.15" y2="412.63" class="down-wick"/>
<rect x="229.15" y="379.80" width="8.00" height="30.39" class="down-body"/>
<line x1="248.69" y1="406.04" x2="248.69" y2="464.67" class="down-wick"/>
<rect x="244.69" y="410.19" width="8.00" height="32.83" class="down-body"/>
<line x1="264.23" y1="443.02" x2="264.23" y2="503.39" class="down-wick"/>
<rect x="260.23" y="443.02" width="8.00" height="59.07" class="down-body"/>
<line x1="279.77" y1="442.20" x2="279.77" y2="508.30" class="up-wick"/>
<rect x="275.77" y="463.45" width="8.00" height="39.65" class="up-body"/>
<line x1="295.31" y1="440.82" x2="295.31" y2="480.60" class="up-wick"/>
<rect x="291.31" y="453.09" width="8.00" height="10.36" class="up-body"/>
<line x1="310.85" y1="453.09" x2="310.85" y2="502.62" class="down-wick"/>
<rect x="306.85" y="453.09" width="8.00" height="21.37" class="down-body"/>
<line x1="326.38" y1="449.52" x2="326.38" y2="476.66" class="up-wick"/>
<rect x="322.38" y="466.58" width="8.00" height="7.88" class="up-body"/>
<line x1="341.92" y1="448.74" x2="341.92" y2="485.84" class="up-wick"/>
<rect x="337.92" y="465.56" width="8.00" height="1.02" class="up-body"/>
<line x1="357.46" y1="446.71" x2="357.46" y2="482.55" class="up-wick"/>
<rect x="353.46" y="453.25" width="8.00" height="12.31" class="up-body"/>
<line x1="373.00" y1="443.06" x2="373.00" y2="491.93" class="down-wick"/>
<rect x="369.00" y="453.25" width="8.00" height="30.31" class="down-body"/>
<line x1="388.54" y1="476.45" x2="388.54" y2="500.59" class="down-wick"/>
<rect x="384.54" y="483.56" width="8.00" height="1.00" class="down-body"/>
<line x1="404.08" y1="475.76" x2="404.08" y2="505.87" class="down-wick"/>
<rect x="400.08" y="484.50" width="8.00" height="14.71" class="down-body"/>
<line x1="419.62" y1="498.43" x2="419.62" y2="523.99" class="down-wick"/>
<rect x="415.62" y="499.20" width="8.00" height="14.87" class="down-body"/>
<line x1="435.15" y1="490.55" x2="435.15" y2="517.93" class="up-wick"/>
<rect x="431.15" y="509.85" width="8.00" height="4.27" class="up-body"/>
<line x1="450.69" y1="474.62" x2="450.69" y2="524.76" class="down-wick"/>
<rect x="446.69" y="509.85" width="8.00" height="5.81" class="down-body"/>
<line x1="466.23" y1="465.65" x2="466.23" y2="515.58" class="up-wick"/>
<rect x="462.23" y="482.10" width="8.00" height="33.36" class="up-body"/>
<line x1="481.77" y1="462.27" x2="481.77" y2="494.13" class="up-wick"/>
<rect x="477.77" y="474.22" width="8.00" height="7.92" class="up-body"/>
<line x1="497.31" y1="458.45" x2="497.31" y2="485.67" class="up-wick"/>
<rect x="493.31" y="473.81" width="8.00" height="1.00" class="up-body"/>
<line x1="512.85" y1="465.85" x2="512.85" y2="484.42" class="down-wick"/>
<rect x="508.85" y="473.69" width="8.00" height="4.43" class="down-body"/>
<line x1="528.38" y1="446.75" x2="528.38" y2="478.48" class="up-wick"/>
<rect x="524.38" y="462.68" width="8.00" height="15.32" class="up-body"/>
<line x1="543.92" y1="444.07" x2="543.92" y2="465.60" class="up-wick"/>
<rect x="539.92" y="462.23" width="8.00" height="1.00" class="up-body"/>
<line x1="559.46" y1="451.26" x2="559.46" y2="468.73" class="down-wick"/>
<rect x="555.46" y="462.23" width="8.00" height="1.00" class="down-body"/>
<line x1="575.00" y1="444.80" x2="575.00" y2="465.12" class="up-wick"/>
<rect x="571.00" y="455.37" width="8.00" height="7.35" class="up-body"/>
<line x1="590.54" y1="434.57" x2="590.54" y2="456.59" class="up-wick"/>
<rect x="586.54" y="448.58" width="8.00" height="6.78" class="up-body"/>
<line x1="606.08" y1="443.50" x2="606.08" y2="478.12" class="down-wick"/>
<rect x="602.08" y="448.58" width="8.00" height="25.92" class="down-body"/>
<line x1="621.62" y1="453.21" x2="621.62" y2="484.66" class="up-wick"/>
<rect x="617.62" y="454.76" width="8.00" height="19.66" class="up-body"/>
<line x1="637.15" y1="452.16" x2="637.15" y2="487.34" class="down-wick"/>
<rect x="633.15" y="454.68" width="8.00" height="23.12" class="down-body"/>
<line x1="652.69" y1="413.40" x2="652.69" y2="457.40" class="up-wick"/>
<rect x="648.69" y="419.41" width="8.00" height="37.99" class="up-body"/>
<line x1="668.23" y1="418.80" x2="668.23" y2="429.77" class="down-wick"/>
<rect x="664.23" y="419.41" width="8.00" height="1.00" class="down-body"/>
<line x1="683.77" y1="415.51" x2="683.77" y2="438.02" class="up-wick"/>
<rect x="679.77" y="415.51" width="8.00" height="4.23" class="up-body"/>
<line x1="699.31" y1="415.43" x2="699.31" y2="431.31" class="down-wick"/>
<rect x="695.31" y="415.51" width="8.00" height="7.92" class="down-body"/>
<line x1="714.85" y1="418.03" x2="714.85" y2="432.17" class="down-wick"/>
<rect x="710.85" y="423.43" width="8.00" height="1.00" class="down-body"/>
<line x1="730.38" y1="416.00" x2="730.38" y2="428.76" class="up-wick"/>
<rect x="726.38" y="421.77" width="8.00" height="2.64" class="up-body"/>
<line x1="745.92" y1="408.28" x2="745.92" y2="422.17" class="up-wick"/>
<rect x="741.92" y="419.45" width="8.00" height="2.28" class="up-body"/>
<line x1="761.46" y1="411.61" x2="761.46" y2="439.56" class="down-wick"/>
<rect x="757.46" y="419.45" width="8.00" height="19.58" class="down-body"/>
<line x1="777.00" y1="420.51" x2="777.00" y2="462.11" class="down-wick"/>
<rect x="773.00" y="439.03" width="8.00" height="16.62" class="down-body"/>
<line x1="792.54" y1="431.07" x2="792.54" y2="461.42" class="up-wick"/>
<rect x="788.54" y="450.04" width="8.00" height="5.65" class="up-body"/>
<line x1="808.08" y1="445.01" x2="808.08" y2="471.74" class="down-wick"/>
<rect x="804.08" y="450.04" width="8.00" height="12.31" class="down-body"/>
<line x1="823.62" y1="444.84" x2="823.62" y2="467.11" class="down-wick"/>
<rect x="819.62" y="462.19" width="8.00" height="4.55" class="down-body"/>
<line x1="839.15" y1="461.87" x2="839.15" y2="483.48" class="down-wick"/>
<rect x="835.15" y="466.50" width="8.00" height="5.40" class="down-body"/>
<line x1="854.69" y1="469.55" x2="854.69" y2="490.27" class="down-wick"/>
<rect x="850.69" y="471.90" width="8.00" height="8.65" class="down-body"/>
<line x1="870.23" y1="457.68" x2="870.23" y2="481.00" class="up-wick"/>
<rect x="866.23" y="465.00" width="8.00" height="15.56" class="up-body"/>
<line x1="885.77" y1="456.42" x2="885.77" y2="470.60" class="up-wick"/>
<rect x="881.77" y="461.58" width="8.00" height="3.41" class="up-body"/>
<line x1="901.31" y1="405.84" x2="901.31" y2="466.30" class="up-wick"/>
<rect x="897.31" y="420.83" width="8.00" height="40.79" class="up-body"/>
<line x1="916.85" y1="400.23" x2="916.85" y2="430.79" class="down-wick"/>
<rect x="912.85" y="420.79" width="8.00" height="5.97" class="down-body"/>
<line x1="932.38" y1="420.06" x2="932.38" y2="449.52" class="down-wick"/>
<rect x="928.38" y="426.76" width="8.00" height="21.13" class="down-body"/>
<line x1="947.92" y1="447.32" x2="947.92" y2="479.34" class="down-wick"/>
<rect x="943.92" y="447.89" width="8.00" height="20.96" class="down-body"/>
<line x1="963.46" y1="459.84" x2="963.46" y2="474.54" class="up-wick"/>
<rect x="959.46" y="462.60" width="8.00" height="6.26" class="up-body"/>
<line x1="979.00" y1="438.10" x2="979.00" y2="462.80" class="up-wick"/>
<rect x="975.00" y="439.60" width="8.00" height="23.04" class="up-body"/>
<line x1="994.54" y1="416.81" x2="994.54" y2="443.26" class="down-wick"/>
<rect x="990.54" y="439.52" width="8.00" height="1.00" class="down-body"/>
<line x1="1010.08" y1="432.62" x2="1010.08" y2="442.65" class="up-wick"/>
<rect x="1006.08" y="438.06" width="8.00" height="1.91" class="up-body"/>
<line x1="1025.62" y1="429.24" x2="1025.62" y2="466.01" class="down-wick"/>
<rect x="1021.62" y="438.06" width="8.00" height="20.03" class="down-body"/>
<line x1="1041.15" y1="451.67" x2="1041.15" y2="476.37" class="down-wick"/>
<rect x="1037.15" y="458.17" width="8.00" height="16.45" class="down-body"/>
<line x1="1056.69" y1="472.47" x2="1056.69" y2="497.42" class="down-wick"/>
<rect x="1052.69" y="474.62" width="8.00" height="17.43" class="down-body"/>
<line x1="1072.23" y1="487.62" x2="1072.23" y2="509.28" class="down-wick"/>
<rect x="1068.23" y="492.05" width="8.00" height="17.23" class="down-body"/>
<line x1="70" y1="424.65" x2="1080" y2="424.65" class="number-line"/>
<text x="1076" y="420.65" text-anchor="end" class="level-label">round 4630.00</text>
<line x1="70" y1="424.65" x2="1080" y2="424.65" class="entry-line"/>
<text x="1076" y="420.65" text-anchor="end" class="level-label">entry level 4630.00</text>
<text x="70" y="556" class="axis-label">2026-04-30 13:45:00+00:00 to 2026-05-01 07:45:00+00:00</text>
<text x="1080" y="556" text-anchor="end" class="axis-label">4602.10 - 4649.36</text>
<text x="70" y="582" class="panel-title">M5 reaction / execution context</text>
<rect x="70" y="596" width="1010" height="192" class="plot-bg"/>
<line x1="80.98" y1="639.18" x2="80.98" y2="708.40" class="up-wick"/>
<rect x="76.98" y="655.83" width="8.00" height="52.58" class="up-body"/>
<line x1="102.93" y1="627.45" x2="102.93" y2="672.64" class="up-wick"/>
<rect x="98.93" y="633.52" width="8.00" height="19.68" class="up-body"/>
<line x1="124.89" y1="619.58" x2="124.89" y2="644.43" class="up-wick"/>
<rect x="120.89" y="631.71" width="8.00" height="1.00" class="up-body"/>
<line x1="146.85" y1="630.48" x2="146.85" y2="652.63" class="down-wick"/>
<rect x="142.85" y="631.71" width="8.00" height="7.46" class="down-body"/>
<line x1="168.80" y1="633.60" x2="168.80" y2="644.84" class="up-wick"/>
<rect x="164.80" y="638.36" width="8.00" height="1.00" class="up-body"/>
<line x1="190.76" y1="632.37" x2="190.76" y2="648.37" class="up-wick"/>
<rect x="186.76" y="632.45" width="8.00" height="6.07" class="up-body"/>
<line x1="212.72" y1="626.30" x2="212.72" y2="658.45" class="down-wick"/>
<rect x="208.72" y="632.37" width="8.00" height="26.08" class="down-body"/>
<line x1="234.67" y1="636.39" x2="234.67" y2="669.28" class="up-wick"/>
<rect x="230.67" y="642.71" width="8.00" height="15.75" class="up-body"/>
<line x1="256.63" y1="623.84" x2="256.63" y2="642.71" class="up-wick"/>
<rect x="252.63" y="623.84" width="8.00" height="18.86" class="up-body"/>
<line x1="278.59" y1="623.68" x2="278.59" y2="655.75" class="down-wick"/>
<rect x="274.59" y="623.84" width="8.00" height="4.02" class="down-body"/>
<line x1="300.54" y1="627.86" x2="300.54" y2="649.51" class="down-wick"/>
<rect x="296.54" y="627.86" width="8.00" height="18.04" class="down-body"/>
<line x1="322.50" y1="628.93" x2="322.50" y2="647.54" class="up-wick"/>
<rect x="318.50" y="639.84" width="8.00" height="6.40" class="up-body"/>
<line x1="344.46" y1="636.55" x2="344.46" y2="657.47" class="down-wick"/>
<rect x="340.46" y="639.84" width="8.00" height="7.30" class="down-body"/>
<line x1="366.41" y1="632.21" x2="366.41" y2="652.47" class="down-wick"/>
<rect x="362.41" y="647.38" width="8.00" height="1.00" class="down-body"/>
<line x1="388.37" y1="628.93" x2="388.37" y2="652.55" class="up-wick"/>
<rect x="384.37" y="641.80" width="8.00" height="6.56" class="up-body"/>
<line x1="410.33" y1="632.62" x2="410.33" y2="650.58" class="down-wick"/>
<rect x="406.33" y="641.80" width="8.00" height="2.13" class="down-body"/>
<line x1="432.28" y1="636.06" x2="432.28" y2="644.02" class="up-wick"/>
<rect x="428.28" y="641.48" width="8.00" height="2.46" class="up-body"/>
<line x1="454.24" y1="624.83" x2="454.24" y2="641.48" class="up-wick"/>
<rect x="450.24" y="636.47" width="8.00" height="5.00" class="up-body"/>
<line x1="476.20" y1="613.59" x2="476.20" y2="637.29" class="up-wick"/>
<rect x="472.20" y="619.41" width="8.00" height="16.98" class="up-body"/>
<line x1="498.15" y1="609.65" x2="498.15" y2="628.27" class="up-wick"/>
<rect x="494.15" y="615.23" width="8.00" height="4.10" class="up-body"/>
<line x1="520.11" y1="609.24" x2="520.11" y2="631.88" class="down-wick"/>
<rect x="516.11" y="615.15" width="8.00" height="16.65" class="down-body"/>
<line x1="542.07" y1="615.97" x2="542.07" y2="638.11" class="up-wick"/>
<rect x="538.07" y="631.14" width="8.00" height="1.00" class="up-body"/>
<line x1="564.02" y1="623.92" x2="564.02" y2="642.54" class="up-wick"/>
<rect x="560.02" y="626.88" width="8.00" height="4.27" class="up-body"/>
<line x1="585.98" y1="620.97" x2="585.98" y2="672.40" class="down-wick"/>
<rect x="581.98" y="626.88" width="8.00" height="44.46" class="down-body"/>
<line x1="607.93" y1="653.53" x2="607.93" y2="697.99" class="up-wick"/>
<rect x="603.93" y="660.42" width="8.00" height="10.91" class="up-body"/>
<line x1="629.89" y1="633.93" x2="629.89" y2="680.35" class="down-wick"/>
<rect x="625.89" y="660.42" width="8.00" height="7.71" class="down-body"/>
<line x1="651.85" y1="661.49" x2="651.85" y2="717.92" class="down-wick"/>
<rect x="647.85" y="668.13" width="8.00" height="36.75" class="down-body"/>
<line x1="673.80" y1="663.62" x2="673.80" y2="716.52" class="up-wick"/>
<rect x="669.80" y="674.45" width="8.00" height="30.51" class="up-body"/>
<line x1="695.76" y1="655.25" x2="695.76" y2="695.44" class="down-wick"/>
<rect x="691.76" y="674.45" width="8.00" height="21.00" class="down-body"/>
<line x1="717.72" y1="678.63" x2="717.72" y2="697.99" class="up-wick"/>
<rect x="713.72" y="693.56" width="8.00" height="1.89" class="up-body"/>
<line x1="739.67" y1="683.39" x2="739.67" y2="713.16" class="down-wick"/>
<rect x="735.67" y="693.56" width="8.00" height="17.80" class="down-body"/>
<line x1="761.63" y1="705.45" x2="761.63" y2="737.36" class="down-wick"/>
<rect x="757.63" y="711.36" width="8.00" height="3.94" class="down-body"/>
<line x1="783.59" y1="707.75" x2="783.59" y2="734.24" class="down-wick"/>
<rect x="779.59" y="715.38" width="8.00" height="3.03" class="down-body"/>
<line x1="805.54" y1="696.02" x2="805.54" y2="719.97" class="up-wick"/>
<rect x="801.54" y="705.62" width="8.00" height="12.47" class="up-body"/>
<line x1="827.50" y1="689.95" x2="827.50" y2="716.44" class="up-wick"/>
<rect x="823.50" y="689.95" width="8.00" height="15.50" class="up-body"/>
<line x1="849.46" y1="683.06" x2="849.46" y2="728.01" class="down-wick"/>
<rect x="845.46" y="689.13" width="8.00" height="38.14" class="down-body"/>
<line x1="871.41" y1="717.43" x2="871.41" y2="749.74" class="down-wick"/>
<rect x="867.41" y="726.78" width="8.00" height="18.78" class="down-body"/>
<line x1="893.37" y1="728.09" x2="893.37" y2="756.22" class="up-wick"/>
<rect x="889.37" y="741.29" width="8.00" height="4.35" class="up-body"/>
<line x1="915.33" y1="729.98" x2="915.33" y2="761.06" class="up-wick"/>
<rect x="911.33" y="737.69" width="8.00" height="3.61" class="up-body"/>
<line x1="937.28" y1="732.93" x2="937.28" y2="770.41" class="down-wick"/>
<rect x="933.28" y="737.69" width="8.00" height="32.48" class="down-body"/>
<line x1="959.24" y1="752.70" x2="959.24" y2="774.76" class="up-wick"/>
<rect x="955.24" y="766.23" width="8.00" height="3.94" class="up-body"/>
<line x1="981.20" y1="752.45" x2="981.20" y2="769.84" class="up-wick"/>
<rect x="977.20" y="755.16" width="8.00" height="11.07" class="up-body"/>
<line x1="1003.15" y1="718.16" x2="1003.15" y2="756.06" class="up-wick"/>
<rect x="999.15" y="729.16" width="8.00" height="26.00" class="up-body"/>
<line x1="1025.11" y1="714.31" x2="1025.11" y2="732.52" class="up-wick"/>
<rect x="1021.11" y="715.87" width="8.00" height="13.29" class="up-body"/>
<line x1="1047.07" y1="708.98" x2="1047.07" y2="732.68" class="down-wick"/>
<rect x="1043.07" y="715.95" width="8.00" height="7.79" class="down-body"/>
<line x1="1069.02" y1="719.15" x2="1069.02" y2="734.08" class="down-wick"/>
<rect x="1065.02" y="723.74" width="8.00" height="2.21" class="down-body"/>
<line x1="70" y1="642.30" x2="1080" y2="642.30" class="number-line"/>
<text x="1076" y="638.30" text-anchor="end" class="level-label">round 4630.00</text>
<line x1="70" y1="642.30" x2="1080" y2="642.30" class="entry-line"/>
<text x="1076" y="638.30" text-anchor="end" class="level-label">entry level 4630.00</text>
<text x="70" y="806" class="axis-label">2026-05-01 01:00:00+00:00 to 2026-05-01 04:45:00+00:00</text>
<text x="1080" y="806" text-anchor="end" class="axis-label">4612.24 - 4635.64</text>
<text x="70" y="832" class="panel-title">M1 execution window</text>
<rect x="70" y="846" width="1010" height="192" class="plot-bg"/>
<line x1="74.47" y1="908.90" x2="74.47" y2="958.24" class="up-wick"/>
<rect x="71.56" y="913.67" width="5.81" height="44.57" class="up-body"/>
<line x1="83.41" y1="903.89" x2="83.41" y2="928.15" class="down-wick"/>
<rect x="80.50" y="907.59" width="5.81" height="7.40" class="down-body"/>
<line x1="92.35" y1="899.20" x2="92.35" y2="935.55" class="up-wick"/>
<rect x="89.44" y="905.53" width="5.81" height="28.45" class="up-body"/>
<line x1="101.28" y1="897.56" x2="101.28" y2="909.15" class="down-wick"/>
<rect x="98.38" y="903.89" width="5.81" height="5.26" class="down-body"/>
<line x1="110.22" y1="894.19" x2="110.22" y2="910.80" class="up-wick"/>
<rect x="107.32" y="895.83" width="5.81" height="11.02" class="up-body"/>
<line x1="119.16" y1="876.43" x2="119.16" y2="890.08" class="down-wick"/>
<rect x="116.25" y="881.94" width="5.81" height="4.85" class="down-body"/>
<line x1="128.10" y1="877.66" x2="128.10" y2="888.02" class="up-wick"/>
<rect x="125.19" y="877.66" width="5.81" height="9.04" class="up-body"/>
<line x1="137.04" y1="879.88" x2="137.04" y2="885.06" class="up-wick"/>
<rect x="134.13" y="881.36" width="5.81" height="1.64" class="up-body"/>
<line x1="145.97" y1="885.64" x2="145.97" y2="898.87" class="up-wick"/>
<rect x="143.07" y="886.13" width="5.81" height="12.17" class="up-body"/>
<line x1="154.91" y1="880.13" x2="154.91" y2="892.38" class="down-wick"/>
<rect x="152.01" y="884.90" width="5.81" height="5.92" class="down-body"/>
<line x1="163.85" y1="883.25" x2="163.85" y2="889.25" class="up-wick"/>
<rect x="160.94" y="883.25" width="5.81" height="5.59" class="up-body"/>
<line x1="172.79" y1="886.13" x2="172.79" y2="889.09" class="down-wick"/>
<rect x="169.88" y="886.38" width="5.81" height="2.06" class="down-body"/>
<line x1="181.73" y1="883.58" x2="181.73" y2="889.01" class="down-wick"/>
<rect x="178.82" y="883.58" width="5.81" height="4.44" class="down-body"/>
<line x1="190.66" y1="893.36" x2="190.66" y2="898.05" class="down-wick"/>
<rect x="187.76" y="894.27" width="5.81" height="2.63" class="down-body"/>
<line x1="199.60" y1="884.07" x2="199.60" y2="891.72" class="up-wick"/>
<rect x="196.70" y="884.32" width="5.81" height="6.50" class="up-body"/>
<line x1="208.54" y1="875.93" x2="208.54" y2="882.02" class="up-wick"/>
<rect x="205.63" y="877.82" width="5.81" height="4.19" class="up-body"/>
<line x1="217.48" y1="882.10" x2="217.48" y2="890.65" class="down-wick"/>
<rect x="214.57" y="882.26" width="5.81" height="8.30" class="down-body"/>
<line x1="226.42" y1="898.71" x2="226.42" y2="908.16" class="down-wick"/>
<rect x="223.51" y="901.92" width="5.81" height="6.25" class="down-body"/>
<line x1="235.35" y1="900.02" x2="235.35" y2="915.15" class="down-wick"/>
<rect x="232.45" y="903.64" width="5.81" height="5.76" class="down-body"/>
<line x1="244.29" y1="899.28" x2="244.29" y2="913.92" class="up-wick"/>
<rect x="241.39" y="902.00" width="5.81" height="8.06" class="up-body"/>
<line x1="253.23" y1="881.36" x2="253.23" y2="892.38" class="up-wick"/>
<rect x="250.33" y="882.35" width="5.81" height="10.03" class="up-body"/>
<line x1="262.17" y1="881.03" x2="262.17" y2="886.29" class="down-wick"/>
<rect x="259.26" y="883.58" width="5.81" height="1.00" class="down-body"/>
<line x1="271.11" y1="873.47" x2="271.11" y2="885.22" class="up-wick"/>
<rect x="268.20" y="873.47" width="5.81" height="7.24" class="up-body"/>
<line x1="280.04" y1="881.03" x2="280.04" y2="884.73" class="down-wick"/>
<rect x="277.14" y="881.61" width="5.81" height="1.97" class="down-body"/>
<line x1="288.98" y1="887.77" x2="288.98" y2="905.45" class="up-wick"/>
<rect x="286.08" y="890.24" width="5.81" height="12.33" class="up-body"/>
<line x1="297.92" y1="877.50" x2="297.92" y2="893.28" class="down-wick"/>
<rect x="295.02" y="877.50" width="5.81" height="14.06" class="down-body"/>
<line x1="306.86" y1="885.55" x2="306.86" y2="897.06" class="up-wick"/>
<rect x="303.95" y="886.21" width="5.81" height="10.85" class="up-body"/>
<line x1="315.80" y1="893.36" x2="315.80" y2="896.57" class="down-wick"/>
<rect x="312.89" y="894.10" width="5.81" height="1.48" class="down-body"/>
<line x1="324.73" y1="889.25" x2="324.73" y2="892.71" class="up-wick"/>
<rect x="321.83" y="891.88" width="5.81" height="1.00" class="up-body"/>
<line x1="333.67" y1="879.72" x2="333.67" y2="895.09" class="up-wick"/>
<rect x="330.77" y="886.54" width="5.81" height="8.55" class="up-body"/>
<line x1="342.61" y1="886.87" x2="342.61" y2="894.02" class="up-wick"/>
<rect x="339.71" y="888.35" width="5.81" height="1.15" class="up-body"/>
<line x1="351.55" y1="890.32" x2="351.55" y2="899.45" class="down-wick"/>
<rect x="348.64" y="890.73" width="5.81" height="6.50" class="down-body"/>
<line x1="360.49" y1="896.65" x2="360.49" y2="904.46" class="up-wick"/>
<rect x="357.58" y="896.82" width="5.81" height="4.60" class="up-body"/>
<line x1="369.42" y1="881.85" x2="369.42" y2="894.43" class="up-wick"/>
<rect x="366.52" y="886.79" width="5.81" height="4.93" class="up-body"/>
<line x1="378.36" y1="883.66" x2="378.36" y2="888.92" class="up-wick"/>
<rect x="375.46" y="887.44" width="5.81" height="1.00" class="up-body"/>
<line x1="387.30" y1="894.84" x2="387.30" y2="902.24" class="down-wick"/>
<rect x="384.40" y="898.05" width="5.81" height="3.37" class="down-body"/>
<line x1="396.24" y1="881.77" x2="396.24" y2="888.10" class="down-wick"/>
<rect x="393.33" y="885.80" width="5.81" height="1.97" class="down-body"/>
<line x1="405.18" y1="887.77" x2="405.18" y2="896.74" class="down-wick"/>
<rect x="402.27" y="891.14" width="5.81" height="1.00" class="down-body"/>
<line x1="414.12" y1="885.72" x2="414.12" y2="896.41" class="up-wick"/>
<rect x="411.21" y="891.39" width="5.81" height="4.11" class="up-body"/>
<line x1="423.05" y1="882.26" x2="423.05" y2="900.27" class="down-wick"/>
<rect x="420.15" y="884.98" width="5.81" height="6.74" class="down-body"/>
<line x1="431.99" y1="891.64" x2="431.99" y2="893.69" class="up-wick"/>
<rect x="429.09" y="891.97" width="5.81" height="1.64" class="up-body"/>
<line x1="440.93" y1="888.10" x2="440.93" y2="892.05" class="down-wick"/>
<rect x="438.02" y="888.27" width="5.81" height="3.54" class="down-body"/>
<line x1="449.87" y1="888.18" x2="449.87" y2="891.39" class="down-wick"/>
<rect x="446.96" y="888.76" width="5.81" height="2.38" class="down-body"/>
<line x1="458.81" y1="875.52" x2="458.81" y2="882.92" class="up-wick"/>
<rect x="455.90" y="877.08" width="5.81" height="5.84" class="up-body"/>
<line x1="467.74" y1="876.34" x2="467.74" y2="884.48" class="down-wick"/>
<rect x="464.84" y="876.51" width="5.81" height="3.45" class="down-body"/>
<line x1="476.68" y1="872.32" x2="476.68" y2="886.95" class="up-wick"/>
<rect x="473.78" y="877.00" width="5.81" height="9.04" class="up-body"/>
<line x1="485.62" y1="868.12" x2="485.62" y2="873.63" class="down-wick"/>
<rect x="482.71" y="871.00" width="5.81" height="1.00" class="down-body"/>
<line x1="494.56" y1="864.26" x2="494.56" y2="875.85" class="up-wick"/>
<rect x="491.65" y="869.03" width="5.81" height="1.00" class="up-body"/>
<line x1="503.50" y1="864.67" x2="503.50" y2="877.91" class="up-wick"/>
<rect x="500.59" y="865.00" width="5.81" height="9.95" class="up-body"/>
<line x1="512.43" y1="859.24" x2="512.43" y2="865.41" class="up-wick"/>
<rect x="509.53" y="859.24" width="5.81" height="4.93" class="up-body"/>
<line x1="521.37" y1="860.56" x2="521.37" y2="870.42" class="up-wick"/>
<rect x="518.47" y="862.69" width="5.81" height="2.06" class="up-body"/>
<line x1="530.31" y1="862.45" x2="530.31" y2="866.31" class="up-wick"/>
<rect x="527.40" y="863.43" width="5.81" height="1.00" class="up-body"/>
<line x1="539.25" y1="865.98" x2="539.25" y2="881.52" class="down-wick"/>
<rect x="536.34" y="871.66" width="5.81" height="9.78" class="down-body"/>
<line x1="548.19" y1="870.83" x2="548.19" y2="884.40" class="up-wick"/>
<rect x="545.28" y="871.99" width="5.81" height="12.42" class="up-body"/>
<line x1="557.12" y1="869.19" x2="557.12" y2="874.78" class="down-wick"/>
<rect x="554.22" y="872.15" width="5.81" height="1.64" class="down-body"/>
<line x1="566.06" y1="876.02" x2="566.06" y2="881.03" class="up-wick"/>
<rect x="563.16" y="878.89" width="5.81" height="1.89" class="up-body"/>
<line x1="575.00" y1="879.80" x2="575.00" y2="892.21" class="down-wick"/>
<rect x="572.10" y="879.88" width="5.81" height="10.20" class="down-body"/>
<line x1="583.94" y1="875.03" x2="583.94" y2="879.72" class="down-wick"/>
<rect x="581.03" y="875.60" width="5.81" height="1.00" class="down-body"/>
<line x1="592.88" y1="884.32" x2="592.88" y2="896.57" class="down-wick"/>
<rect x="589.97" y="884.90" width="5.81" height="10.94" class="down-body"/>
<line x1="601.81" y1="903.23" x2="601.81" y2="918.61" class="up-wick"/>
<rect x="598.91" y="912.11" width="5.81" height="3.62" class="up-body"/>
<line x1="610.75" y1="917.70" x2="610.75" y2="947.80" class="down-wick"/>
<rect x="607.85" y="921.07" width="5.81" height="9.21" class="down-body"/>
<line x1="619.69" y1="906.77" x2="619.69" y2="918.11" class="up-wick"/>
<rect x="616.79" y="912.69" width="5.81" height="1.00" class="up-body"/>
<line x1="628.63" y1="903.23" x2="628.63" y2="924.03" class="up-wick"/>
<rect x="625.72" y="910.14" width="5.81" height="13.90" class="up-body"/>
<line x1="637.57" y1="883.58" x2="637.57" y2="904.79" class="down-wick"/>
<rect x="634.66" y="900.52" width="5.81" height="2.55" class="down-body"/>
<line x1="646.50" y1="911.62" x2="646.50" y2="923.54" class="down-wick"/>
<rect x="643.60" y="913.76" width="5.81" height="9.21" class="down-body"/>
<line x1="655.44" y1="911.21" x2="655.44" y2="922.31" class="down-wick"/>
<rect x="652.54" y="917.87" width="5.81" height="2.30" class="down-body"/>
<line x1="664.38" y1="934.15" x2="664.38" y2="947.55" class="up-wick"/>
<rect x="661.48" y="940.15" width="5.81" height="4.60" class="up-body"/>
<line x1="673.32" y1="954.70" x2="673.32" y2="967.78" class="up-wick"/>
<rect x="670.41" y="954.70" width="5.81" height="7.81" class="up-body"/>
<line x1="682.26" y1="919.35" x2="682.26" y2="940.73" class="up-wick"/>
<rect x="679.35" y="927.24" width="5.81" height="12.74" class="up-body"/>
<line x1="691.19" y1="914.99" x2="691.19" y2="929.30" class="up-wick"/>
<rect x="688.29" y="919.59" width="5.81" height="7.89" class="up-body"/>
<line x1="700.13" y1="913.18" x2="700.13" y2="936.12" class="up-wick"/>
<rect x="697.23" y="913.51" width="5.81" height="10.69" class="up-body"/>
<line x1="709.07" y1="911.86" x2="709.07" y2="924.61" class="down-wick"/>
<rect x="706.17" y="913.10" width="5.81" height="10.85" class="down-body"/>
<line x1="718.01" y1="934.07" x2="718.01" y2="945.25" class="down-wick"/>
<rect x="715.10" y="937.85" width="5.81" height="7.40" class="down-body"/>
<line x1="726.95" y1="928.39" x2="726.95" y2="941.63" class="up-wick"/>
<rect x="724.04" y="937.60" width="5.81" height="3.62" class="up-body"/>
<line x1="735.88" y1="933.41" x2="735.88" y2="946.65" class="down-wick"/>
<rect x="732.98" y="937.93" width="5.81" height="5.34" class="down-body"/>
<line x1="744.82" y1="942.29" x2="744.82" y2="953.80" class="down-wick"/>
<rect x="741.92" y="943.36" width="5.81" height="10.36" class="down-body"/>
<line x1="753.76" y1="934.72" x2="753.76" y2="957.66" class="up-wick"/>
<rect x="750.86" y="945.17" width="5.81" height="9.29" class="up-body"/>
<line x1="762.70" y1="935.13" x2="762.70" y2="961.20" class="down-wick"/>
<rect x="759.79" y="941.88" width="5.81" height="19.32" class="down-body"/>
<line x1="771.64" y1="959.23" x2="771.64" y2="982.17" class="down-wick"/>
<rect x="768.73" y="963.67" width="5.81" height="16.94" class="down-body"/>
<line x1="780.58" y1="967.04" x2="780.58" y2="975.34" class="up-wick"/>
<rect x="777.67" y="971.40" width="5.81" height="1.32" class="up-body"/>
<line x1="789.51" y1="965.23" x2="789.51" y2="974.85" class="down-wick"/>
<rect x="786.61" y="965.23" width="5.81" height="7.24" class="down-body"/>
<line x1="798.45" y1="960.95" x2="798.45" y2="980.36" class="down-wick"/>
<rect x="795.55" y="961.53" width="5.81" height="18.34" class="down-body"/>
<line x1="807.39" y1="968.27" x2="807.39" y2="979.95" class="up-wick"/>
<rect x="804.48" y="968.27" width="5.81" height="10.44" class="up-body"/>
<line x1="816.33" y1="946.23" x2="816.33" y2="953.22" class="up-wick"/>
<rect x="813.42" y="950.02" width="5.81" height="1.00" class="up-body"/>
<line x1="825.27" y1="946.81" x2="825.27" y2="953.72" class="up-wick"/>
<rect x="822.36" y="946.81" width="5.81" height="2.80" class="up-body"/>
<line x1="834.20" y1="955.28" x2="834.20" y2="966.30" class="down-wick"/>
<rect x="831.30" y="955.28" width="5.81" height="9.46" class="down-body"/>
<line x1="843.14" y1="949.28" x2="843.14" y2="959.06" class="up-wick"/>
<rect x="840.24" y="952.65" width="5.81" height="6.25" class="up-body"/>
<line x1="852.08" y1="939.74" x2="852.08" y2="955.28" class="up-wick"/>
<rect x="849.17" y="939.74" width="5.81" height="13.57" class="up-body"/>
<line x1="861.02" y1="932.83" x2="861.02" y2="945.08" class="down-wick"/>
<rect x="858.11" y="937.60" width="5.81" height="7.07" class="down-body"/>
<line x1="869.96" y1="955.85" x2="869.96" y2="969.26" class="down-wick"/>
<rect x="867.05" y="958.98" width="5.81" height="7.48" class="down-body"/>
<line x1="878.89" y1="967.28" x2="878.89" y2="995.40" class="up-wick"/>
<rect x="875.99" y="974.60" width="5.81" height="2.06" class="up-body"/>
<line x1="887.83" y1="985.29" x2="887.83" y2="999.02" class="up-wick"/>
<rect x="884.93" y="987.92" width="5.81" height="7.89" class="up-body"/>
<line x1="896.77" y1="989.65" x2="896.77" y2="998.78" class="up-wick"/>
<rect x="893.87" y="995.49" width="5.81" height="2.06" class="up-body"/>
<line x1="905.71" y1="977.97" x2="905.71" y2="988.50" class="down-wick"/>
<rect x="902.80" y="981.18" width="5.81" height="6.66" class="down-body"/>
<line x1="914.65" y1="988.58" x2="914.65" y2="1002.39" class="down-wick"/>
<rect x="911.74" y="989.40" width="5.81" height="9.21" class="down-body"/>
<line x1="923.58" y1="979.86" x2="923.58" y2="994.25" class="down-wick"/>
<rect x="920.68" y="991.21" width="5.81" height="3.04" class="down-body"/>
<line x1="932.52" y1="1004.61" x2="932.52" y2="1011.03" class="down-wick"/>
<rect x="929.62" y="1007.66" width="5.81" height="2.06" class="down-body"/>
<line x1="941.46" y1="984.22" x2="941.46" y2="1001.98" class="up-wick"/>
<rect x="938.56" y="987.59" width="5.81" height="14.39" class="up-body"/>
<line x1="950.40" y1="989.16" x2="950.40" y2="1001.65" class="down-wick"/>
<rect x="947.49" y="989.40" width="5.81" height="8.63" class="down-body"/>
<line x1="959.34" y1="994.01" x2="959.34" y2="1005.76" class="down-wick"/>
<rect x="956.43" y="997.13" width="5.81" height="7.32" class="down-body"/>
<line x1="968.27" y1="1017.52" x2="968.27" y2="1024.76" class="up-wick"/>
<rect x="965.37" y="1018.84" width="5.81" height="1.32" class="up-body"/>
<line x1="977.21" y1="1002.64" x2="977.21" y2="1012.26" class="down-wick"/>
<rect x="974.31" y="1009.38" width="5.81" height="2.30" class="down-body"/>
<line x1="986.15" y1="1004.61" x2="986.15" y2="1019.50" class="down-wick"/>
<rect x="983.25" y="1007.24" width="5.81" height="8.96" class="down-body"/>
<line x1="995.09" y1="1008.48" x2="995.09" y2="1016.13" class="up-wick"/>
<rect x="992.18" y="1010.70" width="5.81" height="1.48" class="up-body"/>
<line x1="1004.03" y1="1002.39" x2="1004.03" y2="1010.37" class="down-wick"/>
<rect x="1001.12" y="1002.89" width="5.81" height="4.93" class="down-body"/>
<line x1="1012.96" y1="994.75" x2="1012.96" y2="1006.01" class="up-wick"/>
<rect x="1010.06" y="1001.16" width="5.81" height="3.95" class="up-body"/>
<line x1="1021.90" y1="991.62" x2="1021.90" y2="1005.68" class="down-wick"/>
<rect x="1019.00" y="992.28" width="5.81" height="7.40" class="down-body"/>
<line x1="1030.84" y1="968.02" x2="1030.84" y2="979.78" class="down-wick"/>
<rect x="1027.94" y="972.46" width="5.81" height="6.58" class="down-body"/>
<line x1="1039.78" y1="966.79" x2="1039.78" y2="982.33" class="up-wick"/>
<rect x="1036.87" y="970.98" width="5.81" height="7.73" class="up-body"/>
<line x1="1048.72" y1="967.04" x2="1048.72" y2="980.93" class="down-wick"/>
<rect x="1045.81" y="974.85" width="5.81" height="5.76" class="down-body"/>
<line x1="1057.65" y1="963.42" x2="1057.65" y2="968.60" class="down-wick"/>
<rect x="1054.75" y="965.80" width="5.81" height="1.00" class="down-body"/>
<line x1="1066.59" y1="958.81" x2="1066.59" y2="975.67" class="up-wick"/>
<rect x="1063.69" y="960.05" width="5.81" height="14.64" class="up-body"/>
<line x1="1075.53" y1="961.03" x2="1075.53" y2="982.58" class="down-wick"/>
<rect x="1072.63" y="966.71" width="5.81" height="6.91" class="down-body"/>
<line x1="70" y1="891.97" x2="1080" y2="891.97" class="number-line"/>
<text x="1076" y="887.97" text-anchor="end" class="level-label">round 4630.00</text>
<line x1="70" y1="891.97" x2="1080" y2="891.97" class="entry-line"/>
<text x="1076" y="887.97" text-anchor="end" class="level-label">entry level 4630.00</text>
<text x="70" y="1056" class="axis-label">2026-05-01 01:00:00+00:00 to 2026-05-01 04:44:00+00:00</text>
<text x="1080" y="1056" text-anchor="end" class="axis-label">4612.24 - 4635.59</text>
</svg>