<svg xmlns="http://www.w3.org/2000/svg" width="1120" height="1054" viewBox="0 0 1120 1054">
<style>
text{font-family:Arial,Helvetica,sans-serif}.title{font-size:21px;font-weight:700;fill:#1f2937}.subtitle{font-size:12px;fill:#4b5563}.panel-title{font-size:15px;font-weight:700;fill:#111827}.muted{font-size:13px;fill:#6b7280}.plot-bg{fill:#f8fafc;stroke:#cbd5e1;stroke-width:1}.up-body{fill:#15803d;stroke:#14532d;stroke-width:.8}.down-body{fill:#b91c1c;stroke:#7f1d1d;stroke-width:.8}.up-wick{stroke:#14532d;stroke-width:1}.down-wick{stroke:#7f1d1d;stroke-width:1}.sweep-line{stroke:#7c3aed;stroke-width:1.6;stroke-dasharray:6 4}.number-line{stroke:#0f766e;stroke-width:1.4;stroke-dasharray:3 4}.entry-line{stroke:#2563eb;stroke-width:1.4}.sl-line{stroke:#dc2626;stroke-width:1.4}.tp-line{stroke:#16a34a;stroke-width:1.4}.level-label,.axis-label{font-size:11px;fill:#374151}
</style>
<text x="28" y="28" class="title">Adelin v2 visual review sample sample_251</text>
<text x="28" y="48" class="subtitle">Candidate windows are for visual labeling only and are not trade signals.</text>
<text x="560" y="48" class="subtitle" text-anchor="middle">NUMBER_THEORY_LEVEL_NEAR | ROUND_LEVEL_ENTRY_METADATA_AVAILABLE</text>
<text x="70" y="82" class="panel-title">H1 liquidity context</text>
<rect x="70" y="96" width="1010" height="192" class="plot-bg"/>
<line x1="81.74" y1="142.16" x2="81.74" y2="170.47" class="up-wick"/>
<rect x="77.74" y="148.64" width="8.00" height="20.26" class="up-body"/>
<line x1="105.23" y1="143.98" x2="105.23" y2="158.25" class="down-wick"/>
<rect x="101.23" y="148.53" width="8.00" height="1.00" class="down-body"/>
<line x1="128.72" y1="147.80" x2="128.72" y2="168.08" class="down-wick"/>
<rect x="124.72" y="149.01" width="8.00" height="17.87" class="down-body"/>
<line x1="152.21" y1="154.89" x2="152.21" y2="222.88" class="up-wick"/>
<rect x="148.21" y="166.45" width="8.00" height="9.77" class="up-body"/>
<line x1="175.70" y1="163.92" x2="175.70" y2="185.49" class="down-wick"/>
<rect x="171.70" y="166.45" width="8.00" height="12.03" class="down-body"/>
<line x1="199.19" y1="171.28" x2="199.19" y2="254.00" class="down-wick"/>
<rect x="195.19" y="178.45" width="8.00" height="28.12" class="down-body"/>
<line x1="222.67" y1="180.29" x2="222.67" y2="241.67" class="up-wick"/>
<rect x="218.67" y="193.99" width="8.00" height="13.26" class="up-body"/>
<line x1="246.16" y1="170.86" x2="246.16" y2="198.66" class="up-wick"/>
<rect x="242.16" y="183.02" width="8.00" height="10.98" class="up-body"/>
<line x1="269.65" y1="164.12" x2="269.65" y2="194.33" class="up-wick"/>
<rect x="265.65" y="173.08" width="8.00" height="9.94" class="up-body"/>
<line x1="293.14" y1="161.61" x2="293.14" y2="187.95" class="down-wick"/>
<rect x="289.14" y="173.09" width="8.00" height="1.00" class="down-body"/>
<line x1="316.63" y1="158.63" x2="316.63" y2="188.08" class="down-wick"/>
<rect x="312.63" y="173.74" width="8.00" height="12.97" class="down-body"/>
<line x1="340.12" y1="163.83" x2="340.12" y2="188.39" class="up-wick"/>
<rect x="336.12" y="165.61" width="8.00" height="21.10" class="up-body"/>
<line x1="363.60" y1="148.20" x2="363.60" y2="176.97" class="down-wick"/>
<rect x="359.60" y="165.61" width="8.00" height="1.00" class="down-body"/>
<line x1="387.09" y1="152.10" x2="387.09" y2="171.10" class="up-wick"/>
<rect x="383.09" y="161.38" width="8.00" height="4.96" class="up-body"/>
<line x1="410.58" y1="158.75" x2="410.58" y2="174.55" class="down-wick"/>
<rect x="406.58" y="161.38" width="8.00" height="9.34" class="down-body"/>
<line x1="434.07" y1="164.31" x2="434.07" y2="185.38" class="down-wick"/>
<rect x="430.07" y="170.73" width="8.00" height="3.61" class="down-body"/>
<line x1="457.56" y1="138.53" x2="457.56" y2="188.16" class="up-wick"/>
<rect x="453.56" y="160.53" width="8.00" height="13.81" class="up-body"/>
<line x1="481.05" y1="128.23" x2="481.05" y2="167.63" class="up-wick"/>
<rect x="477.05" y="133.19" width="8.00" height="27.36" class="up-body"/>
<line x1="504.53" y1="115.85" x2="504.53" y2="145.64" class="up-wick"/>
<rect x="500.53" y="126.95" width="8.00" height="6.25" class="up-body"/>
<line x1="528.02" y1="126.95" x2="528.02" y2="177.53" class="down-wick"/>
<rect x="524.02" y="126.95" width="8.00" height="39.08" class="down-body"/>
<line x1="551.51" y1="164.09" x2="551.51" y2="185.46" class="down-wick"/>
<rect x="547.51" y="166.05" width="8.00" height="3.85" class="down-body"/>
<line x1="575.00" y1="155.48" x2="575.00" y2="182.70" class="up-wick"/>
<rect x="571.00" y="161.11" width="8.00" height="8.80" class="up-body"/>
<line x1="598.49" y1="150.33" x2="598.49" y2="167.27" class="down-wick"/>
<rect x="594.49" y="161.11" width="8.00" height="4.27" class="down-body"/>
<line x1="621.98" y1="164.29" x2="621.98" y2="182.54" class="down-wick"/>
<rect x="617.98" y="165.37" width="8.00" height="14.71" class="down-body"/>
<line x1="645.47" y1="141.40" x2="645.47" y2="180.84" class="up-wick"/>
<rect x="641.47" y="150.18" width="8.00" height="29.90" class="up-body"/>
<line x1="668.95" y1="123.75" x2="668.95" y2="140.26" class="up-wick"/>
<rect x="664.95" y="129.64" width="8.00" height="9.95" class="up-body"/>
<line x1="692.44" y1="109.56" x2="692.44" y2="129.89" class="up-wick"/>
<rect x="688.44" y="119.14" width="8.00" height="10.52" class="up-body"/>
<line x1="715.93" y1="109.24" x2="715.93" y2="146.37" class="down-wick"/>
<rect x="711.93" y="119.14" width="8.00" height="24.42" class="down-body"/>
<line x1="739.42" y1="131.51" x2="739.42" y2="155.88" class="up-wick"/>
<rect x="735.42" y="143.01" width="8.00" height="1.00" class="up-body"/>
<line x1="762.91" y1="143.01" x2="762.91" y2="166.71" class="down-wick"/>
<rect x="758.91" y="143.01" width="8.00" height="22.11" class="down-body"/>
<line x1="786.40" y1="154.58" x2="786.40" y2="169.90" class="down-wick"/>
<rect x="782.40" y="165.12" width="8.00" height="2.79" class="down-body"/>
<line x1="809.88" y1="167.10" x2="809.88" y2="177.26" class="down-wick"/>
<rect x="805.88" y="167.91" width="8.00" height="3.53" class="down-body"/>
<line x1="833.37" y1="165.89" x2="833.37" y2="186.78" class="down-wick"/>
<rect x="829.37" y="171.42" width="8.00" height="2.05" class="down-body"/>
<line x1="856.86" y1="156.16" x2="856.86" y2="183.36" class="up-wick"/>
<rect x="852.86" y="163.82" width="8.00" height="9.65" class="up-body"/>
<line x1="880.35" y1="149.05" x2="880.35" y2="172.80" class="up-wick"/>
<rect x="876.35" y="151.79" width="8.00" height="12.03" class="up-body"/>
<line x1="903.84" y1="149.23" x2="903.84" y2="179.46" class="down-wick"/>
<rect x="899.84" y="151.79" width="8.00" height="19.17" class="down-body"/>
<line x1="927.33" y1="165.62" x2="927.33" y2="179.84" class="down-wick"/>
<rect x="923.33" y="170.98" width="8.00" height="1.24" class="down-body"/>
<line x1="950.81" y1="168.43" x2="950.81" y2="193.98" class="up-wick"/>
<rect x="946.81" y="168.43" width="8.00" height="3.79" class="up-body"/>
<line x1="974.30" y1="164.04" x2="974.30" y2="188.16" class="down-wick"/>
<rect x="970.30" y="168.43" width="8.00" height="18.58" class="down-body"/>
<line x1="997.79" y1="165.16" x2="997.79" y2="191.42" class="up-wick"/>
<rect x="993.79" y="178.50" width="8.00" height="8.50" class="up-body"/>
<line x1="1021.28" y1="178.09" x2="1021.28" y2="274.76" class="down-wick"/>
<rect x="1017.28" y="178.50" width="8.00" height="44.26" class="down-body"/>
<line x1="1044.77" y1="208.66" x2="1044.77" y2="248.47" class="down-wick"/>
<rect x="1040.77" y="222.76" width="8.00" height="12.89" class="down-body"/>
<line x1="1068.26" y1="215.56" x2="1068.26" y2="241.37" class="up-wick"/>
<rect x="1064.26" y="216.61" width="8.00" height="19.04" class="up-body"/>
<line x1="70" y1="161.38" x2="1080" y2="161.38" class="number-line"/>
<text x="1076" y="157.38" text-anchor="end" class="level-label">round 4550.00</text>
<line x1="70" y1="161.38" x2="1080" y2="161.38" class="entry-line"/>
<text x="1076" y="157.38" text-anchor="end" class="level-label">entry level 4550.00</text>
<text x="70" y="306" class="axis-label">2026-05-15 20:00:00+00:00 to 2026-05-19 18:00:00+00:00</text>
<text x="1080" y="306" text-anchor="end" class="axis-label">4454.72 - 4599.20</text>
<text x="70" y="332" class="panel-title">M15 liquidity / reaction context</text>
<rect x="70" y="346" width="1010" height="192" class="plot-bg"/>
<line x1="77.77" y1="476.25" x2="77.77" y2="508.11" class="down-wick"/>
<rect x="73.77" y="488.25" width="8.00" height="3.15" class="down-body"/>
<line x1="93.31" y1="484.77" x2="93.31" y2="514.81" class="down-wick"/>
<rect x="89.31" y="491.35" width="8.00" height="7.43" class="down-body"/>
<line x1="108.85" y1="461.09" x2="108.85" y2="508.90" class="up-wick"/>
<rect x="104.85" y="466.82" width="8.00" height="31.96" class="up-body"/>
<line x1="124.38" y1="456.87" x2="124.38" y2="498.20" class="down-wick"/>
<rect x="120.38" y="466.82" width="8.00" height="27.86" class="down-body"/>
<line x1="139.92" y1="484.16" x2="139.92" y2="524.06" class="down-wick"/>
<rect x="135.92" y="494.68" width="8.00" height="26.26" class="down-body"/>
<line x1="155.46" y1="491.95" x2="155.46" y2="524.76" class="up-wick"/>
<rect x="151.46" y="501.23" width="8.00" height="19.71" class="up-body"/>
<line x1="171.00" y1="468.73" x2="171.00" y2="510.24" class="up-wick"/>
<rect x="167.00" y="500.84" width="8.00" height="1.00" class="up-body"/>
<line x1="186.54" y1="471.88" x2="186.54" y2="509.93" class="up-wick"/>
<rect x="182.54" y="491.29" width="8.00" height="9.52" class="up-body"/>
<line x1="202.08" y1="470.00" x2="202.08" y2="497.90" class="up-wick"/>
<rect x="198.08" y="472.79" width="8.00" height="18.50" class="up-body"/>
<line x1="217.62" y1="464.82" x2="217.62" y2="487.31" class="down-wick"/>
<rect x="213.62" y="472.79" width="8.00" height="9.67" class="down-body"/>
<line x1="233.15" y1="458.81" x2="233.15" y2="498.71" class="up-wick"/>
<rect x="229.15" y="461.39" width="8.00" height="21.07" class="up-body"/>
<line x1="248.69" y1="433.07" x2="248.69" y2="469.67" class="down-wick"/>
<rect x="244.69" y="461.39" width="8.00" height="4.67" class="down-body"/>
<line x1="264.23" y1="457.69" x2="264.23" y2="493.29" class="down-wick"/>
<rect x="260.23" y="466.06" width="8.00" height="8.40" class="down-body"/>
<line x1="279.77" y1="466.57" x2="279.77" y2="485.31" class="up-wick"/>
<rect x="275.77" y="473.58" width="8.00" height="1.00" class="up-body"/>
<line x1="295.31" y1="458.60" x2="295.31" y2="484.98" class="up-wick"/>
<rect x="291.31" y="469.24" width="8.00" height="4.34" class="up-body"/>
<line x1="310.85" y1="453.69" x2="310.85" y2="474.73" class="up-wick"/>
<rect x="306.85" y="469.09" width="8.00" height="1.00" class="up-body"/>
<line x1="326.38" y1="441.95" x2="326.38" y2="469.12" class="up-wick"/>
<rect x="322.38" y="463.15" width="8.00" height="5.97" class="up-body"/>
<line x1="341.92" y1="457.14" x2="341.92" y2="489.56" class="down-wick"/>
<rect x="337.92" y="463.15" width="8.00" height="11.22" class="down-body"/>
<line x1="357.46" y1="466.36" x2="357.46" y2="479.67" class="down-wick"/>
<rect x="353.46" y="474.34" width="8.00" height="3.94" class="down-body"/>
<line x1="373.00" y1="473.88" x2="373.00" y2="491.35" class="down-wick"/>
<rect x="369.00" y="478.76" width="8.00" height="5.76" class="down-body"/>
<line x1="388.54" y1="479.31" x2="388.54" y2="493.20" class="down-wick"/>
<rect x="384.54" y="484.43" width="8.00" height="1.00" class="down-body"/>
<line x1="404.08" y1="478.22" x2="404.08" y2="506.51" class="down-wick"/>
<rect x="400.08" y="484.46" width="8.00" height="11.37" class="down-body"/>
<line x1="419.62" y1="486.13" x2="419.62" y2="499.23" class="up-wick"/>
<rect x="415.62" y="494.47" width="8.00" height="1.36" class="up-body"/>
<line x1="435.15" y1="481.04" x2="435.15" y2="517.91" class="up-wick"/>
<rect x="431.15" y="481.80" width="8.00" height="12.67" class="up-body"/>
<line x1="450.69" y1="469.82" x2="450.69" y2="503.29" class="down-wick"/>
<rect x="446.69" y="481.80" width="8.00" height="10.92" class="down-body"/>
<line x1="466.23" y1="488.07" x2="466.23" y2="524.24" class="down-wick"/>
<rect x="462.23" y="492.71" width="8.00" height="2.27" class="down-body"/>
<line x1="481.77" y1="492.77" x2="481.77" y2="517.97" class="down-wick"/>
<rect x="477.77" y="494.98" width="8.00" height="9.76" class="down-body"/>
<line x1="497.31" y1="411.00" x2="497.31" y2="507.20" class="up-wick"/>
<rect x="493.31" y="426.37" width="8.00" height="78.53" class="up-body"/>
<line x1="512.85" y1="419.34" x2="512.85" y2="464.60" class="down-wick"/>
<rect x="508.85" y="426.43" width="8.00" height="34.78" class="down-body"/>
<line x1="528.38" y1="443.38" x2="528.38" y2="470.55" class="up-wick"/>
<rect x="524.38" y="452.72" width="8.00" height="8.52" class="up-body"/>
<line x1="543.92" y1="447.41" x2="543.92" y2="477.40" class="down-wick"/>
<rect x="539.92" y="452.72" width="8.00" height="8.52" class="down-body"/>
<line x1="559.46" y1="402.45" x2="559.46" y2="462.39" class="up-wick"/>
<rect x="555.46" y="402.93" width="8.00" height="58.31" class="up-body"/>
<line x1="575.00" y1="387.50" x2="575.00" y2="425.10" class="up-wick"/>
<rect x="571.00" y="398.81" width="8.00" height="4.12" class="up-body"/>
<line x1="590.54" y1="381.62" x2="590.54" y2="427.22" class="down-wick"/>
<rect x="586.54" y="398.84" width="8.00" height="10.76" class="down-body"/>
<line x1="606.08" y1="383.35" x2="606.08" y2="420.85" class="up-wick"/>
<rect x="602.08" y="396.41" width="8.00" height="13.19" class="up-body"/>
<line x1="621.62" y1="372.34" x2="621.62" y2="418.40" class="down-wick"/>
<rect x="617.62" y="396.41" width="8.00" height="17.19" class="down-body"/>
<line x1="637.15" y1="359.24" x2="637.15" y2="421.52" class="up-wick"/>
<rect x="633.15" y="384.59" width="8.00" height="29.02" class="up-body"/>
<line x1="652.69" y1="384.59" x2="652.69" y2="433.89" class="down-wick"/>
<rect x="648.69" y="384.59" width="8.00" height="35.41" class="down-body"/>
<line x1="668.23" y1="405.99" x2="668.23" y2="448.17" class="down-wick"/>
<rect x="664.23" y="420.00" width="8.00" height="8.13" class="down-body"/>
<line x1="683.77" y1="423.73" x2="683.77" y2="497.96" class="down-wick"/>
<rect x="679.77" y="428.13" width="8.00" height="42.05" class="down-body"/>
<line x1="699.31" y1="467.57" x2="699.31" y2="499.99" class="down-wick"/>
<rect x="695.31" y="470.18" width="8.00" height="3.58" class="down-body"/>
<line x1="714.85" y1="469.33" x2="714.85" y2="518.09" class="down-wick"/>
<rect x="710.85" y="473.79" width="8.00" height="17.89" class="down-body"/>
<line x1="730.38" y1="485.16" x2="730.38" y2="510.24" class="down-wick"/>
<rect x="726.38" y="491.68" width="8.00" height="17.86" class="down-body"/>
<line x1="745.92" y1="480.28" x2="745.92" y2="511.45" class="up-wick"/>
<rect x="741.92" y="497.93" width="8.00" height="11.61" class="up-body"/>
<line x1="761.46" y1="472.46" x2="761.46" y2="499.50" class="up-wick"/>
<rect x="757.46" y="482.58" width="8.00" height="15.34" class="up-body"/>
<line x1="777.00" y1="466.24" x2="777.00" y2="492.98" class="up-wick"/>
<rect x="773.00" y="467.27" width="8.00" height="15.31" class="up-body"/>
<line x1="792.54" y1="460.97" x2="792.54" y2="511.78" class="down-wick"/>
<rect x="788.54" y="467.27" width="8.00" height="34.99" class="down-body"/>
<line x1="808.08" y1="478.25" x2="808.08" y2="511.05" class="up-wick"/>
<rect x="804.08" y="483.22" width="8.00" height="19.04" class="up-body"/>
<line x1="823.62" y1="449.69" x2="823.62" y2="484.68" class="up-wick"/>
<rect x="819.62" y="462.51" width="8.00" height="20.53" class="up-body"/>
<line x1="839.15" y1="437.92" x2="839.15" y2="469.18" class="up-wick"/>
<rect x="835.15" y="453.26" width="8.00" height="9.25" class="up-body"/>
<line x1="854.69" y1="446.41" x2="854.69" y2="457.69" class="up-wick"/>
<rect x="850.69" y="451.23" width="8.00" height="2.03" class="up-body"/>
<line x1="870.23" y1="450.38" x2="870.23" y2="471.36" class="down-wick"/>
<rect x="866.23" y="451.38" width="8.00" height="16.95" class="down-body"/>
<line x1="885.77" y1="464.09" x2="885.77" y2="476.58" class="down-wick"/>
<rect x="881.77" y="468.33" width="8.00" height="3.91" class="down-body"/>
<line x1="901.31" y1="469.79" x2="901.31" y2="482.13" class="down-wick"/>
<rect x="897.31" y="472.24" width="8.00" height="5.40" class="down-body"/>
<line x1="916.85" y1="477.10" x2="916.85" y2="503.60" class="down-wick"/>
<rect x="912.85" y="477.64" width="8.00" height="9.79" class="down-body"/>
<line x1="932.38" y1="481.19" x2="932.38" y2="496.35" class="down-wick"/>
<rect x="928.38" y="487.50" width="8.00" height="1.39" class="down-body"/>
<line x1="947.92" y1="483.49" x2="947.92" y2="511.42" class="down-wick"/>
<rect x="943.92" y="488.89" width="8.00" height="16.92" class="down-body"/>
<line x1="963.46" y1="417.55" x2="963.46" y2="507.54" class="up-wick"/>
<rect x="959.46" y="449.69" width="8.00" height="56.12" class="up-body"/>
<line x1="979.00" y1="445.68" x2="979.00" y2="473.82" class="down-wick"/>
<rect x="975.00" y="449.69" width="8.00" height="8.61" class="down-body"/>
<line x1="994.54" y1="428.89" x2="994.54" y2="462.60" class="up-wick"/>
<rect x="990.54" y="438.41" width="8.00" height="19.89" class="up-body"/>
<line x1="1010.08" y1="423.73" x2="1010.08" y2="440.83" class="up-wick"/>
<rect x="1006.08" y="437.59" width="8.00" height="1.00" class="up-body"/>
<line x1="1025.62" y1="392.56" x2="1025.62" y2="414.94" class="up-wick"/>
<rect x="1021.62" y="392.56" width="8.00" height="20.86" class="up-body"/>
<line x1="1041.15" y1="388.74" x2="1041.15" y2="399.17" class="down-wick"/>
<rect x="1037.15" y="392.56" width="8.00" height="1.46" class="down-body"/>
<line x1="1056.69" y1="377.28" x2="1056.69" y2="397.69" class="up-wick"/>
<rect x="1052.69" y="382.62" width="8.00" height="11.40" class="up-body"/>
<line x1="1072.23" y1="381.65" x2="1072.23" y2="394.90" class="down-wick"/>
<rect x="1068.23" y="382.62" width="8.00" height="8.10" class="down-body"/>
<line x1="70" y1="463.15" x2="1080" y2="463.15" class="number-line"/>
<text x="1076" y="459.15" text-anchor="end" class="level-label">round 4550.00</text>
<line x1="70" y1="463.15" x2="1080" y2="463.15" class="entry-line"/>
<text x="1076" y="459.15" text-anchor="end" class="level-label">entry level 4550.00</text>
<text x="70" y="556" class="axis-label">2026-05-18 07:45:00+00:00 to 2026-05-19 01:45:00+00:00</text>
<text x="1080" y="556" text-anchor="end" class="axis-label">4525.31 - 4588.64</text>
<text x="70" y="582" class="panel-title">M5 reaction / execution context</text>
<rect x="70" y="596" width="1010" height="192" class="plot-bg"/>
<line x1="79.18" y1="728.00" x2="79.18" y2="772.04" class="down-wick"/>
<rect x="75.18" y="739.45" width="8.00" height="20.24" class="down-body"/>
<line x1="97.55" y1="740.04" x2="97.55" y2="763.95" class="up-wick"/>
<rect x="93.55" y="748.02" width="8.00" height="11.66" class="up-body"/>
<line x1="115.91" y1="740.99" x2="115.91" y2="771.14" class="down-wick"/>
<rect x="111.91" y="748.02" width="8.00" height="22.79" class="down-body"/>
<line x1="134.27" y1="735.62" x2="134.27" y2="774.17" class="up-wick"/>
<rect x="130.27" y="738.01" width="8.00" height="32.81" class="up-body"/>
<line x1="152.64" y1="730.77" x2="152.64" y2="752.50" class="up-wick"/>
<rect x="148.64" y="732.63" width="8.00" height="5.38" class="up-body"/>
<line x1="171.00" y1="719.43" x2="171.00" y2="750.58" class="down-wick"/>
<rect x="167.00" y="732.63" width="8.00" height="17.79" class="down-body"/>
<line x1="189.36" y1="723.42" x2="189.36" y2="753.19" class="up-wick"/>
<rect x="185.36" y="736.04" width="8.00" height="14.38" class="up-body"/>
<line x1="207.73" y1="718.15" x2="207.73" y2="744.62" class="up-wick"/>
<rect x="203.73" y="719.37" width="8.00" height="16.67" class="up-body"/>
<line x1="226.09" y1="705.69" x2="226.09" y2="730.56" class="down-wick"/>
<rect x="222.09" y="719.37" width="8.00" height="4.10" class="down-body"/>
<line x1="244.45" y1="718.25" x2="244.45" y2="741.74" class="down-wick"/>
<rect x="240.45" y="723.47" width="8.00" height="10.81" class="down-body"/>
<line x1="262.82" y1="718.36" x2="262.82" y2="736.36" class="up-wick"/>
<rect x="258.82" y="723.58" width="8.00" height="10.33" class="up-body"/>
<line x1="281.18" y1="694.77" x2="281.18" y2="728.00" class="up-wick"/>
<rect x="277.18" y="696.58" width="8.00" height="27.00" class="up-body"/>
<line x1="299.55" y1="687.58" x2="299.55" y2="707.02" class="down-wick"/>
<rect x="295.55" y="696.58" width="8.00" height="8.04" class="down-body"/>
<line x1="317.91" y1="685.50" x2="317.91" y2="718.73" class="down-wick"/>
<rect x="313.91" y="704.62" width="8.00" height="7.40" class="down-body"/>
<line x1="336.27" y1="705.69" x2="336.27" y2="774.76" class="down-wick"/>
<rect x="332.27" y="712.02" width="8.00" height="46.01" class="down-body"/>
<line x1="354.64" y1="732.10" x2="354.64" y2="773.48" class="up-wick"/>
<rect x="350.64" y="743.76" width="8.00" height="14.27" class="up-body"/>
<line x1="373.00" y1="716.92" x2="373.00" y2="745.68" class="up-wick"/>
<rect x="369.00" y="720.39" width="8.00" height="23.43" class="up-body"/>
<line x1="391.36" y1="715.86" x2="391.36" y2="732.53" class="down-wick"/>
<rect x="387.36" y="720.39" width="8.00" height="4.21" class="down-body"/>
<line x1="409.73" y1="695.83" x2="409.73" y2="727.15" class="up-wick"/>
<rect x="405.73" y="698.44" width="8.00" height="25.83" class="up-body"/>
<line x1="428.09" y1="666.92" x2="428.09" y2="698.44" class="up-wick"/>
<rect x="424.09" y="673.15" width="8.00" height="25.19" class="up-body"/>
<line x1="446.45" y1="665.69" x2="446.45" y2="690.62" class="down-wick"/>
<rect x="442.45" y="673.15" width="8.00" height="15.07" class="down-body"/>
<line x1="464.82" y1="650.89" x2="464.82" y2="699.94" class="up-wick"/>
<rect x="460.82" y="653.12" width="8.00" height="35.10" class="up-body"/>
<line x1="483.18" y1="645.03" x2="483.18" y2="664.09" class="down-wick"/>
<rect x="479.18" y="653.12" width="8.00" height="3.14" class="down-body"/>
<line x1="501.55" y1="653.18" x2="501.55" y2="673.25" class="down-wick"/>
<rect x="497.55" y="656.27" width="8.00" height="15.71" class="down-body"/>
<line x1="519.91" y1="659.94" x2="519.91" y2="678.58" class="up-wick"/>
<rect x="515.91" y="665.05" width="8.00" height="6.92" class="up-body"/>
<line x1="538.27" y1="661.38" x2="538.27" y2="676.50" class="down-wick"/>
<rect x="534.27" y="665.05" width="8.00" height="3.46" class="down-body"/>
<line x1="556.64" y1="664.25" x2="556.64" y2="679.75" class="up-wick"/>
<rect x="552.64" y="668.41" width="8.00" height="1.00" class="up-body"/>
<line x1="575.00" y1="666.92" x2="575.00" y2="695.51" class="down-wick"/>
<rect x="571.00" y="668.67" width="8.00" height="26.36" class="down-body"/>
<line x1="593.36" y1="687.15" x2="593.36" y2="703.77" class="up-wick"/>
<rect x="589.36" y="692.00" width="8.00" height="3.04" class="up-body"/>
<line x1="611.73" y1="683.43" x2="611.73" y2="700.47" class="down-wick"/>
<rect x="607.73" y="692.00" width="8.00" height="6.44" class="down-body"/>
<line x1="630.09" y1="690.99" x2="630.09" y2="706.49" class="down-wick"/>
<rect x="626.09" y="698.44" width="8.00" height="7.78" class="down-body"/>
<line x1="648.45" y1="693.28" x2="648.45" y2="708.03" class="up-wick"/>
<rect x="644.45" y="701.75" width="8.00" height="4.53" class="up-body"/>
<line x1="666.82" y1="700.63" x2="666.82" y2="712.93" class="down-wick"/>
<rect x="662.82" y="701.75" width="8.00" height="3.57" class="down-body"/>
<line x1="685.18" y1="705.05" x2="685.18" y2="722.68" class="down-wick"/>
<rect x="681.18" y="705.31" width="8.00" height="6.12" class="down-body"/>
<line x1="703.55" y1="701.00" x2="703.55" y2="722.04" class="down-wick"/>
<rect x="699.55" y="711.44" width="8.00" height="4.31" class="down-body"/>
<line x1="721.91" y1="707.87" x2="721.91" y2="721.13" class="up-wick"/>
<rect x="717.91" y="714.79" width="8.00" height="1.01" class="up-body"/>
<line x1="740.27" y1="713.83" x2="740.27" y2="734.82" class="down-wick"/>
<rect x="736.27" y="714.79" width="8.00" height="14.06" class="down-body"/>
<line x1="758.64" y1="728.53" x2="758.64" y2="740.46" class="down-wick"/>
<rect x="754.64" y="728.85" width="8.00" height="7.62" class="down-body"/>
<line x1="777.00" y1="727.63" x2="777.00" y2="760.38" class="up-wick"/>
<rect x="773.00" y="731.99" width="8.00" height="4.31" class="up-body"/>
<line x1="795.36" y1="721.02" x2="795.36" y2="738.81" class="up-wick"/>
<rect x="791.36" y="727.89" width="8.00" height="4.21" class="up-body"/>
<line x1="813.73" y1="724.11" x2="813.73" y2="746.21" class="down-wick"/>
<rect x="809.73" y="727.84" width="8.00" height="16.19" class="down-body"/>
<line x1="832.09" y1="734.02" x2="832.09" y2="747.65" class="up-wick"/>
<rect x="828.09" y="734.55" width="8.00" height="9.48" class="up-body"/>
<line x1="850.45" y1="725.07" x2="850.45" y2="738.12" class="up-wick"/>
<rect x="846.45" y="733.65" width="8.00" height="1.00" class="up-body"/>
<line x1="868.82" y1="730.93" x2="868.82" y2="743.13" class="down-wick"/>
<rect x="864.82" y="733.65" width="8.00" height="7.24" class="down-body"/>
<line x1="887.18" y1="733.11" x2="887.18" y2="774.12" class="down-wick"/>
<rect x="883.18" y="740.89" width="8.00" height="23.38" class="down-body"/>
<line x1="905.55" y1="609.24" x2="905.55" y2="767.30" class="up-wick"/>
<rect x="901.55" y="670.91" width="8.00" height="93.36" class="up-body"/>
<line x1="923.91" y1="635.82" x2="923.91" y2="683.21" class="up-wick"/>
<rect x="919.91" y="651.26" width="8.00" height="19.65" class="up-body"/>
<line x1="942.27" y1="644.87" x2="942.27" y2="671.12" class="down-wick"/>
<rect x="938.27" y="652.11" width="8.00" height="13.58" class="down-body"/>
<line x1="960.64" y1="659.04" x2="960.64" y2="684.12" class="down-wick"/>
<rect x="956.64" y="665.69" width="8.00" height="15.76" class="down-body"/>
<line x1="979.00" y1="658.66" x2="979.00" y2="690.56" class="down-wick"/>
<rect x="975.00" y="681.46" width="8.00" height="6.87" class="down-body"/>
<line x1="997.36" y1="679.17" x2="997.36" y2="708.08" class="up-wick"/>
<rect x="993.36" y="680.82" width="8.00" height="7.51" class="up-body"/>
<line x1="1015.73" y1="649.88" x2="1015.73" y2="688.38" class="up-wick"/>
<rect x="1011.73" y="655.57" width="8.00" height="25.24" class="up-body"/>
<line x1="1034.09" y1="638.32" x2="1034.09" y2="657.60" class="up-wick"/>
<rect x="1030.09" y="638.85" width="8.00" height="15.76" class="up-body"/>
<line x1="1052.45" y1="629.16" x2="1052.45" y2="647.11" class="down-wick"/>
<rect x="1048.45" y="638.85" width="8.00" height="7.03" class="down-body"/>
<line x1="1070.82" y1="620.11" x2="1070.82" y2="647.11" class="up-wick"/>
<rect x="1066.82" y="629.43" width="8.00" height="16.46" class="up-body"/>
<line x1="70" y1="689.34" x2="1080" y2="689.34" class="number-line"/>
<text x="1076" y="685.34" text-anchor="end" class="level-label">round 4550.00</text>
<line x1="70" y1="689.34" x2="1080" y2="689.34" class="entry-line"/>
<text x="1076" y="685.34" text-anchor="end" class="level-label">entry level 4550.00</text>
<text x="70" y="806" class="axis-label">2026-05-18 18:15:00+00:00 to 2026-05-18 22:45:00+00:00</text>
<text x="1080" y="806" text-anchor="end" class="axis-label">4531.47 - 4567.53</text>
<text x="70" y="832" class="panel-title">M1 execution window</text>
<rect x="70" y="846" width="1010" height="192" class="plot-bg"/>
<line x1="73.71" y1="978.00" x2="73.71" y2="994.88" class="down-wick"/>
<rect x="71.30" y="989.45" width="4.83" height="3.89" class="down-body"/>
<line x1="81.14" y1="984.44" x2="81.14" y2="991.21" class="down-wick"/>
<rect x="78.73" y="986.47" width="4.83" height="3.99" class="down-body"/>
<line x1="88.57" y1="1009.47" x2="88.57" y2="1022.04" class="up-wick"/>
<rect x="86.15" y="1009.69" width="4.83" height="6.02" class="up-body"/>
<line x1="95.99" y1="999.36" x2="95.99" y2="1013.95" class="up-wick"/>
<rect x="93.58" y="1001.01" width="4.83" height="4.85" class="up-body"/>
<line x1="103.42" y1="992.49" x2="103.42" y2="1003.46" class="down-wick"/>
<rect x="101.01" y="993.82" width="4.83" height="5.01" class="down-body"/>
<line x1="110.85" y1="996.75" x2="110.85" y2="1009.21" class="down-wick"/>
<rect x="108.43" y="998.02" width="4.83" height="9.80" class="down-body"/>
<line x1="118.27" y1="996.21" x2="118.27" y2="1016.50" class="down-wick"/>
<rect x="115.86" y="999.89" width="4.83" height="2.93" class="down-body"/>
<line x1="125.70" y1="990.99" x2="125.70" y2="1021.14" class="down-wick"/>
<rect x="123.28" y="993.23" width="4.83" height="27.59" class="down-body"/>
<line x1="133.12" y1="993.34" x2="133.12" y2="1023.69" class="up-wick"/>
<rect x="130.71" y="997.86" width="4.83" height="25.40" class="up-body"/>
<line x1="140.55" y1="991.53" x2="140.55" y2="1003.19" class="up-wick"/>
<rect x="138.14" y="996.21" width="4.83" height="1.00" class="up-body"/>
<line x1="147.98" y1="980.98" x2="147.98" y2="1002.50" class="down-wick"/>
<rect x="145.56" y="988.01" width="4.83" height="10.60" class="down-body"/>
<line x1="155.40" y1="982.79" x2="155.40" y2="992.17" class="up-wick"/>
<rect x="152.99" y="983.38" width="4.83" height="5.01" class="up-body"/>
<line x1="162.83" y1="981.83" x2="162.83" y2="992.27" class="up-wick"/>
<rect x="160.42" y="982.63" width="4.83" height="8.84" class="up-body"/>
<line x1="170.26" y1="970.54" x2="170.26" y2="977.52" class="down-wick"/>
<rect x="167.84" y="970.81" width="4.83" height="1.49" class="down-body"/>
<line x1="177.68" y1="975.71" x2="177.68" y2="992.33" class="down-wick"/>
<rect x="175.27" y="978.16" width="4.83" height="10.76" class="down-body"/>
<line x1="185.11" y1="996.59" x2="185.11" y2="1003.19" class="up-wick"/>
<rect x="182.70" y="997.55" width="4.83" height="2.88" class="up-body"/>
<line x1="192.54" y1="983.65" x2="192.54" y2="995.10" class="up-wick"/>
<rect x="190.12" y="984.07" width="4.83" height="4.95" class="up-body"/>
<line x1="199.96" y1="973.42" x2="199.96" y2="986.31" class="down-wick"/>
<rect x="197.55" y="977.95" width="4.83" height="8.09" class="down-body"/>
<line x1="207.39" y1="977.89" x2="207.39" y2="989.66" class="down-wick"/>
<rect x="204.98" y="982.47" width="4.83" height="5.49" class="down-body"/>
<line x1="214.82" y1="982.74" x2="214.82" y2="994.30" class="up-wick"/>
<rect x="212.40" y="983.54" width="4.83" height="9.11" class="up-body"/>
<line x1="222.24" y1="961.49" x2="222.24" y2="970.33" class="up-wick"/>
<rect x="219.83" y="965.96" width="4.83" height="3.41" class="up-body"/>
<line x1="229.67" y1="955.69" x2="229.67" y2="970.81" class="up-wick"/>
<rect x="227.26" y="961.12" width="4.83" height="8.52" class="up-body"/>
<line x1="237.10" y1="972.94" x2="237.10" y2="980.56" class="up-wick"/>
<rect x="234.68" y="973.47" width="4.83" height="2.93" class="up-body"/>
<line x1="244.52" y1="980.40" x2="244.52" y2="991.69" class="down-wick"/>
<rect x="242.11" y="981.94" width="4.83" height="4.74" class="down-body"/>
<line x1="251.95" y1="978.48" x2="251.95" y2="991.15" class="down-wick"/>
<rect x="249.53" y="981.89" width="4.83" height="8.79" class="down-body"/>
<line x1="259.38" y1="977.89" x2="259.38" y2="985.94" class="up-wick"/>
<rect x="256.96" y="981.68" width="4.83" height="2.24" class="up-body"/>
<line x1="266.80" y1="971.40" x2="266.80" y2="986.36" class="down-wick"/>
<rect x="264.39" y="971.72" width="4.83" height="7.46" class="down-body"/>
<line x1="274.23" y1="968.36" x2="274.23" y2="977.04" class="up-wick"/>
<rect x="271.81" y="973.58" width="4.83" height="1.00" class="up-body"/>
<line x1="281.65" y1="950.95" x2="281.65" y2="968.79" class="up-wick"/>
<rect x="279.24" y="954.57" width="4.83" height="12.83" class="up-body"/>
<line x1="289.08" y1="947.33" x2="289.08" y2="955.85" class="up-wick"/>
<rect x="286.67" y="947.54" width="4.83" height="7.56" class="up-body"/>
<line x1="296.51" y1="943.44" x2="296.51" y2="951.43" class="up-wick"/>
<rect x="294.09" y="944.40" width="4.83" height="2.18" class="up-body"/>
<line x1="303.93" y1="938.54" x2="303.93" y2="954.83" class="down-wick"/>
<rect x="301.52" y="938.59" width="4.83" height="10.38" class="down-body"/>
<line x1="311.36" y1="947.59" x2="311.36" y2="955.69" class="down-wick"/>
<rect x="308.95" y="954.14" width="4.83" height="1.00" class="down-body"/>
<line x1="318.79" y1="935.50" x2="318.79" y2="944.45" class="up-wick"/>
<rect x="316.37" y="940.78" width="4.83" height="2.34" class="up-body"/>
<line x1="326.21" y1="956.65" x2="326.21" y2="967.40" class="down-wick"/>
<rect x="323.80" y="959.57" width="4.83" height="3.57" class="down-body"/>
<line x1="333.64" y1="955.69" x2="333.64" y2="974.11" class="down-wick"/>
<rect x="331.23" y="962.02" width="4.83" height="8.52" class="down-body"/>
<line x1="341.07" y1="986.84" x2="341.07" y2="998.98" class="up-wick"/>
<rect x="338.65" y="989.66" width="4.83" height="3.78" class="up-body"/>
<line x1="348.49" y1="1005.64" x2="348.49" y2="1024.76" class="up-wick"/>
<rect x="346.08" y="1008.04" width="4.83" height="12.62" class="up-body"/>
<line x1="355.92" y1="987.05" x2="355.92" y2="1010.86" class="up-wick"/>
<rect x="353.51" y="987.43" width="4.83" height="23.43" class="up-body"/>
<line x1="363.35" y1="982.10" x2="363.35" y2="991.05" class="down-wick"/>
<rect x="360.93" y="988.49" width="4.83" height="1.07" class="down-body"/>
<line x1="370.77" y1="977.63" x2="370.77" y2="995.68" class="up-wick"/>
<rect x="368.36" y="981.46" width="4.83" height="12.36" class="up-body"/>
<line x1="378.20" y1="967.78" x2="378.20" y2="978.48" class="down-wick"/>
<rect x="375.78" y="970.86" width="4.83" height="3.25" class="down-body"/>
<line x1="385.62" y1="969.85" x2="385.62" y2="978.75" class="up-wick"/>
<rect x="383.21" y="970.39" width="4.83" height="6.60" class="up-body"/>
<line x1="393.05" y1="968.89" x2="393.05" y2="973.42" class="down-wick"/>
<rect x="390.64" y="970.60" width="4.83" height="2.82" class="down-body"/>
<line x1="400.48" y1="973.26" x2="400.48" y2="982.53" class="up-wick"/>
<rect x="398.06" y="976.51" width="4.83" height="4.47" class="up-body"/>
<line x1="407.90" y1="967.62" x2="407.90" y2="977.15" class="up-wick"/>
<rect x="405.49" y="967.78" width="4.83" height="6.50" class="up-body"/>
<line x1="415.33" y1="957.98" x2="415.33" y2="967.08" class="up-wick"/>
<rect x="412.92" y="958.14" width="4.83" height="8.79" class="up-body"/>
<line x1="422.76" y1="945.83" x2="422.76" y2="957.34" class="up-wick"/>
<rect x="420.34" y="948.44" width="4.83" height="8.25" class="up-body"/>
<line x1="430.18" y1="922.77" x2="430.18" y2="933.37" class="down-wick"/>
<rect x="427.77" y="926.88" width="4.83" height="1.00" class="down-body"/>
<line x1="437.61" y1="920.91" x2="437.61" y2="934.49" class="up-wick"/>
<rect x="435.20" y="920.96" width="4.83" height="7.99" class="up-body"/>
<line x1="445.04" y1="915.69" x2="445.04" y2="925.97" class="up-wick"/>
<rect x="442.62" y="922.19" width="4.83" height="1.00" class="up-body"/>
<line x1="452.46" y1="921.23" x2="452.46" y2="926.40" class="down-wick"/>
<rect x="450.05" y="922.35" width="4.83" height="4.05" class="down-body"/>
<line x1="459.89" y1="924.59" x2="459.89" y2="940.62" class="down-wick"/>
<rect x="457.48" y="926.66" width="4.83" height="11.56" class="down-body"/>
<line x1="467.32" y1="929.38" x2="467.32" y2="949.94" class="up-wick"/>
<rect x="464.90" y="929.54" width="4.83" height="18.21" class="up-body"/>
<line x1="474.74" y1="911.75" x2="474.74" y2="927.62" class="up-wick"/>
<rect x="472.33" y="911.80" width="4.83" height="15.71" class="up-body"/>
<line x1="482.17" y1="903.12" x2="482.17" y2="914.09" class="down-wick"/>
<rect x="479.76" y="903.12" width="4.83" height="8.57" class="down-body"/>
<line x1="489.60" y1="897.64" x2="489.60" y2="907.12" class="up-wick"/>
<rect x="487.18" y="899.45" width="4.83" height="1.00" class="up-body"/>
<line x1="497.02" y1="904.99" x2="497.02" y2="912.82" class="up-wick"/>
<rect x="494.61" y="906.27" width="4.83" height="5.75" class="up-body"/>
<line x1="504.45" y1="904.51" x2="504.45" y2="911.38" class="down-wick"/>
<rect x="502.03" y="906.00" width="4.83" height="1.17" class="down-body"/>
<line x1="511.88" y1="903.18" x2="511.88" y2="910.90" class="up-wick"/>
<rect x="509.46" y="907.33" width="4.83" height="1.00" class="up-body"/>
<line x1="519.30" y1="919.10" x2="519.30" y2="928.58" class="up-wick"/>
<rect x="516.89" y="919.74" width="4.83" height="2.24" class="up-body"/>
<line x1="526.73" y1="913.24" x2="526.73" y2="921.71" class="down-wick"/>
<rect x="524.31" y="913.77" width="4.83" height="6.76" class="down-body"/>
<line x1="534.15" y1="909.94" x2="534.15" y2="916.70" class="down-wick"/>
<rect x="531.74" y="910.05" width="4.83" height="5.01" class="down-body"/>
<line x1="541.58" y1="914.73" x2="541.58" y2="918.57" class="down-wick"/>
<rect x="539.17" y="915.27" width="4.83" height="2.88" class="down-body"/>
<line x1="549.01" y1="912.55" x2="549.01" y2="921.92" class="down-wick"/>
<rect x="546.59" y="916.33" width="4.83" height="3.94" class="down-body"/>
<line x1="556.43" y1="915.85" x2="556.43" y2="920.43" class="down-wick"/>
<rect x="554.02" y="918.51" width="4.83" height="1.54" class="down-body"/>
<line x1="563.86" y1="917.56" x2="563.86" y2="927.57" class="down-wick"/>
<rect x="561.45" y="918.25" width="4.83" height="9.00" class="down-body"/>
<line x1="571.29" y1="914.25" x2="571.29" y2="927.51" class="up-wick"/>
<rect x="568.87" y="918.41" width="4.83" height="8.89" class="up-body"/>
<line x1="578.71" y1="925.01" x2="578.71" y2="929.11" class="down-wick"/>
<rect x="576.30" y="927.30" width="4.83" height="1.00" class="down-body"/>
<line x1="586.14" y1="935.93" x2="586.14" y2="945.51" class="down-wick"/>
<rect x="583.73" y="938.22" width="4.83" height="2.61" class="down-body"/>
<line x1="593.57" y1="943.38" x2="593.57" y2="948.50" class="up-wick"/>
<rect x="591.15" y="944.34" width="4.83" height="1.00" class="up-body"/>
<line x1="600.99" y1="937.37" x2="600.99" y2="945.78" class="down-wick"/>
<rect x="598.58" y="941.47" width="4.83" height="3.78" class="down-body"/>
<line x1="608.42" y1="941.25" x2="608.42" y2="951.53" class="up-wick"/>
<rect x="606.01" y="942.00" width="4.83" height="8.41" class="up-body"/>
<line x1="615.85" y1="933.43" x2="615.85" y2="950.41" class="down-wick"/>
<rect x="613.43" y="937.15" width="4.83" height="9.37" class="down-body"/>
<line x1="623.27" y1="941.25" x2="623.27" y2="950.47" class="up-wick"/>
<rect x="620.86" y="942.48" width="4.83" height="7.40" class="up-body"/>
<line x1="630.70" y1="946.15" x2="630.70" y2="950.09" class="up-wick"/>
<rect x="628.28" y="946.42" width="4.83" height="2.02" class="up-body"/>
<line x1="638.12" y1="945.67" x2="638.12" y2="954.04" class="up-wick"/>
<rect x="635.71" y="946.05" width="4.83" height="7.67" class="up-body"/>
<line x1="645.55" y1="943.33" x2="645.55" y2="956.49" class="down-wick"/>
<rect x="643.14" y="943.54" width="4.83" height="12.67" class="down-body"/>
<line x1="652.98" y1="947.91" x2="652.98" y2="953.08" class="down-wick"/>
<rect x="650.56" y="950.15" width="4.83" height="1.81" class="down-body"/>
<line x1="660.40" y1="946.31" x2="660.40" y2="952.44" class="up-wick"/>
<rect x="657.99" y="947.27" width="4.83" height="1.00" class="up-body"/>
<line x1="667.83" y1="950.63" x2="667.83" y2="958.67" class="down-wick"/>
<rect x="665.42" y="951.75" width="4.83" height="1.60" class="down-body"/>
<line x1="675.26" y1="955.05" x2="675.26" y2="962.93" class="down-wick"/>
<rect x="672.84" y="955.26" width="4.83" height="4.26" class="down-body"/>
<line x1="682.68" y1="953.61" x2="682.68" y2="958.62" class="up-wick"/>
<rect x="680.27" y="955.31" width="4.83" height="3.14" class="up-body"/>
<line x1="690.11" y1="958.67" x2="690.11" y2="964.53" class="down-wick"/>
<rect x="687.70" y="960.27" width="4.83" height="3.94" class="down-body"/>
<line x1="697.54" y1="958.14" x2="697.54" y2="965.86" class="up-wick"/>
<rect x="695.12" y="963.83" width="4.83" height="1.54" class="up-body"/>
<line x1="704.96" y1="951.00" x2="704.96" y2="961.44" class="up-wick"/>
<rect x="702.55" y="957.28" width="4.83" height="4.15" class="up-body"/>
<line x1="712.39" y1="964.21" x2="712.39" y2="971.08" class="up-wick"/>
<rect x="709.98" y="964.58" width="4.83" height="5.70" class="up-body"/>
<line x1="719.82" y1="963.52" x2="719.82" y2="969.85" class="up-wick"/>
<rect x="717.40" y="965.75" width="4.83" height="2.34" class="up-body"/>
<line x1="727.24" y1="957.87" x2="727.24" y2="966.76" class="up-wick"/>
<rect x="724.83" y="963.62" width="4.83" height="1.00" class="up-body"/>
<line x1="734.67" y1="962.24" x2="734.67" y2="964.85" class="down-wick"/>
<rect x="732.26" y="964.21" width="4.83" height="1.00" class="down-body"/>
<line x1="742.10" y1="963.83" x2="742.10" y2="976.35" class="down-wick"/>
<rect x="739.68" y="964.79" width="4.83" height="7.30" class="down-body"/>
<line x1="749.52" y1="975.92" x2="749.52" y2="984.07" class="up-wick"/>
<rect x="747.11" y="978.27" width="4.83" height="3.30" class="up-body"/>
<line x1="756.95" y1="977.47" x2="756.95" y2="983.81" class="up-wick"/>
<rect x="754.53" y="978.85" width="4.83" height="4.37" class="up-body"/>
<line x1="764.38" y1="979.39" x2="764.38" y2="989.29" class="up-wick"/>
<rect x="761.96" y="980.45" width="4.83" height="7.46" class="up-body"/>
<line x1="771.80" y1="979.49" x2="771.80" y2="989.29" class="up-wick"/>
<rect x="769.39" y="984.18" width="4.83" height="2.93" class="up-body"/>
<line x1="779.23" y1="985.56" x2="779.23" y2="998.77" class="down-wick"/>
<rect x="776.81" y="986.31" width="4.83" height="11.18" class="down-body"/>
<line x1="786.65" y1="999.20" x2="786.65" y2="1010.38" class="up-wick"/>
<rect x="784.24" y="999.25" width="4.83" height="1.44" class="up-body"/>
<line x1="794.08" y1="977.63" x2="794.08" y2="985.19" class="down-wick"/>
<rect x="791.67" y="981.52" width="4.83" height="1.00" class="down-body"/>
<line x1="801.51" y1="977.36" x2="801.51" y2="985.14" class="up-wick"/>
<rect x="799.09" y="978.64" width="4.83" height="1.86" class="up-body"/>
<line x1="808.93" y1="973.58" x2="808.93" y2="988.60" class="down-wick"/>
<rect x="806.52" y="975.23" width="4.83" height="13.37" class="down-body"/>
<line x1="816.36" y1="974.11" x2="816.36" y2="980.29" class="down-wick"/>
<rect x="813.95" y="977.84" width="4.83" height="1.76" class="down-body"/>
<line x1="823.79" y1="983.17" x2="823.79" y2="993.60" class="down-wick"/>
<rect x="821.37" y="983.17" width="4.83" height="4.79" class="down-body"/>
<line x1="831.21" y1="986.47" x2="831.21" y2="996.21" class="down-wick"/>
<rect x="828.80" y="988.33" width="4.83" height="5.70" class="down-body"/>
<line x1="838.64" y1="987.21" x2="838.64" y2="997.65" class="down-wick"/>
<rect x="836.23" y="990.94" width="4.83" height="1.07" class="down-body"/>
<line x1="846.07" y1="985.46" x2="846.07" y2="990.09" class="up-wick"/>
<rect x="843.65" y="985.72" width="4.83" height="2.02" class="up-body"/>
<line x1="853.49" y1="982.47" x2="853.49" y2="987.91" class="down-wick"/>
<rect x="851.08" y="984.55" width="4.83" height="2.88" class="down-body"/>
<line x1="860.92" y1="975.07" x2="860.92" y2="981.09" class="up-wick"/>
<rect x="858.51" y="976.24" width="4.83" height="2.40" class="up-body"/>
<line x1="868.35" y1="978.96" x2="868.35" y2="985.30" class="down-wick"/>
<rect x="865.93" y="982.42" width="4.83" height="1.22" class="down-body"/>
<line x1="875.77" y1="986.84" x2="875.77" y2="993.07" class="down-wick"/>
<rect x="873.36" y="989.34" width="4.83" height="1.00" class="down-body"/>
<line x1="883.20" y1="980.98" x2="883.20" y2="993.13" class="up-wick"/>
<rect x="880.78" y="980.98" width="4.83" height="11.08" class="up-body"/>
<line x1="890.62" y1="987.80" x2="890.62" y2="993.23" class="up-wick"/>
<rect x="888.21" y="990.04" width="4.83" height="1.00" class="up-body"/>
<line x1="898.05" y1="983.11" x2="898.05" y2="990.89" class="up-wick"/>
<rect x="895.64" y="983.22" width="4.83" height="4.63" class="up-body"/>
<line x1="905.48" y1="1011.07" x2="905.48" y2="1024.12" class="up-wick"/>
<rect x="903.06" y="1014.27" width="4.83" height="3.73" class="up-body"/>
<line x1="912.90" y1="906.96" x2="912.90" y2="1003.99" class="up-wick"/>
<rect x="910.49" y="927.25" width="4.83" height="76.69" class="up-body"/>
<line x1="920.33" y1="859.24" x2="920.33" y2="903.55" class="up-wick"/>
<rect x="917.92" y="893.91" width="4.83" height="9.27" class="up-body"/>
<line x1="927.76" y1="895.45" x2="927.76" y2="920.91" class="up-wick"/>
<rect x="925.34" y="898.22" width="4.83" height="22.69" class="up-body"/>
<line x1="935.18" y1="908.08" x2="935.18" y2="923.31" class="down-wick"/>
<rect x="932.77" y="917.24" width="4.83" height="1.00" class="down-body"/>
<line x1="942.61" y1="900.03" x2="942.61" y2="925.97" class="up-wick"/>
<rect x="940.20" y="901.26" width="4.83" height="21.83" class="up-body"/>
<line x1="950.04" y1="894.87" x2="950.04" y2="918.25" class="up-wick"/>
<rect x="947.62" y="897.27" width="4.83" height="14.49" class="up-body"/>
<line x1="957.46" y1="903.23" x2="957.46" y2="913.88" class="up-wick"/>
<rect x="955.05" y="905.57" width="4.83" height="6.07" class="up-body"/>
<line x1="964.89" y1="910.21" x2="964.89" y2="928.26" class="down-wick"/>
<rect x="962.48" y="915.69" width="4.83" height="6.92" class="down-body"/>
<line x1="972.32" y1="915.48" x2="972.32" y2="934.12" class="down-wick"/>
<rect x="969.90" y="921.39" width="4.83" height="10.65" class="down-body"/>
<line x1="979.74" y1="918.51" x2="979.74" y2="933.53" class="down-wick"/>
<rect x="977.33" y="922.83" width="4.83" height="8.63" class="down-body"/>
<line x1="987.17" y1="911.86" x2="987.17" y2="925.01" class="up-wick"/>
<rect x="984.76" y="917.45" width="4.83" height="2.02" class="up-body"/>
<line x1="994.60" y1="914.73" x2="994.60" y2="927.46" class="down-wick"/>
<rect x="992.18" y="919.31" width="4.83" height="2.82" class="down-body"/>
<line x1="1002.02" y1="937.15" x2="1002.02" y2="958.08" class="down-wick"/>
<rect x="999.61" y="938.33" width="4.83" height="6.71" class="down-body"/>
<line x1="1009.45" y1="937.69" x2="1009.45" y2="952.33" class="down-wick"/>
<rect x="1007.03" y="942.59" width="4.83" height="8.57" class="down-body"/>
<line x1="1016.88" y1="929.17" x2="1016.88" y2="949.19" class="up-wick"/>
<rect x="1014.46" y="930.82" width="4.83" height="18.37" class="up-body"/>
<line x1="1024.30" y1="911.22" x2="1024.30" y2="931.83" class="up-wick"/>
<rect x="1021.89" y="911.70" width="4.83" height="19.92" class="up-body"/>
<line x1="1031.73" y1="899.88" x2="1031.73" y2="911.32" class="down-wick"/>
<rect x="1029.31" y="904.61" width="4.83" height="1.22" class="down-body"/>
<line x1="1039.15" y1="892.15" x2="1039.15" y2="906.32" class="up-wick"/>
<rect x="1036.74" y="892.26" width="4.83" height="12.36" class="up-body"/>
<line x1="1046.58" y1="898.92" x2="1046.58" y2="907.60" class="up-wick"/>
<rect x="1044.17" y="902.01" width="4.83" height="1.54" class="up-body"/>
<line x1="1054.01" y1="888.32" x2="1054.01" y2="895.35" class="up-wick"/>
<rect x="1051.59" y="888.85" width="4.83" height="5.80" class="up-body"/>
<line x1="1061.43" y1="884.01" x2="1061.43" y2="894.60" class="down-wick"/>
<rect x="1059.02" y="891.57" width="4.83" height="1.22" class="down-body"/>
<line x1="1068.86" y1="885.12" x2="1068.86" y2="896.84" class="up-wick"/>
<rect x="1066.45" y="888.16" width="4.83" height="8.68" class="up-body"/>
<line x1="1076.29" y1="888.69" x2="1076.29" y2="897.11" class="up-wick"/>
<rect x="1073.87" y="893.32" width="4.83" height="2.56" class="up-body"/>
<line x1="70" y1="939.34" x2="1080" y2="939.34" class="number-line"/>
<text x="1076" y="935.34" text-anchor="end" class="level-label">round 4550.00</text>
<line x1="70" y1="939.34" x2="1080" y2="939.34" class="entry-line"/>
<text x="1076" y="935.34" text-anchor="end" class="level-label">entry level 4550.00</text>
<text x="70" y="1056" class="axis-label">2026-05-18 18:15:00+00:00 to 2026-05-18 22:45:00+00:00</text>
<text x="1080" y="1056" text-anchor="end" class="axis-label">4531.47 - 4567.53</text>
</svg>