<svg xmlns="http://www.w3.org/2000/svg" width="1120" height="1054" viewBox="0 0 1120 1054">
<style>
text{font-family:Arial,Helvetica,sans-serif}.title{font-size:21px;font-weight:700;fill:#1f2937}.subtitle{font-size:12px;fill:#4b5563}.panel-title{font-size:15px;font-weight:700;fill:#111827}.muted{font-size:13px;fill:#6b7280}.plot-bg{fill:#f8fafc;stroke:#cbd5e1;stroke-width:1}.up-body{fill:#15803d;stroke:#14532d;stroke-width:.8}.down-body{fill:#b91c1c;stroke:#7f1d1d;stroke-width:.8}.up-wick{stroke:#14532d;stroke-width:1}.down-wick{stroke:#7f1d1d;stroke-width:1}.sweep-line{stroke:#7c3aed;stroke-width:1.6;stroke-dasharray:6 4}.number-line{stroke:#0f766e;stroke-width:1.4;stroke-dasharray:3 4}.entry-line{stroke:#2563eb;stroke-width:1.4}.sl-line{stroke:#dc2626;stroke-width:1.4}.tp-line{stroke:#16a34a;stroke-width:1.4}.level-label,.axis-label{font-size:11px;fill:#374151}
</style>
<text x="28" y="28" class="title">Adelin v2 visual review sample sample_300</text>
<text x="28" y="48" class="subtitle">Candidate windows are for visual labeling only and are not trade signals.</text>
<text x="560" y="48" class="subtitle" text-anchor="middle">M15_SWING_HIGH_SWEEP_VISUAL_CANDIDATE | PRE_ANCHOR_SWEEP_EXTREME_CANDIDATE</text>
<text x="70" y="82" class="panel-title">H1 liquidity context</text>
<rect x="70" y="96" width="1010" height="192" class="plot-bg"/>
<line x1="80.98" y1="137.83" x2="80.98" y2="156.60" class="down-wick"/>
<rect x="76.98" y="139.31" width="8.00" height="12.82" class="down-body"/>
<line x1="102.93" y1="151.94" x2="102.93" y2="161.46" class="down-wick"/>
<rect x="98.93" y="152.13" width="8.00" height="4.47" class="down-body"/>
<line x1="124.89" y1="139.37" x2="124.89" y2="164.06" class="up-wick"/>
<rect x="120.89" y="139.78" width="8.00" height="16.82" class="up-body"/>
<line x1="146.85" y1="128.52" x2="146.85" y2="146.35" class="up-wick"/>
<rect x="142.85" y="135.09" width="8.00" height="4.68" class="up-body"/>
<line x1="168.80" y1="115.48" x2="168.80" y2="141.22" class="up-wick"/>
<rect x="164.80" y="120.40" width="8.00" height="14.68" class="up-body"/>
<line x1="190.76" y1="109.87" x2="190.76" y2="123.99" class="up-wick"/>
<rect x="186.76" y="114.85" width="8.00" height="5.63" class="up-body"/>
<line x1="212.72" y1="109.24" x2="212.72" y2="116.16" class="up-wick"/>
<rect x="208.72" y="114.05" width="8.00" height="1.00" class="up-body"/>
<line x1="234.67" y1="113.57" x2="234.67" y2="129.36" class="down-wick"/>
<rect x="230.67" y="114.03" width="8.00" height="14.17" class="down-body"/>
<line x1="256.63" y1="122.91" x2="256.63" y2="128.95" class="up-wick"/>
<rect x="252.63" y="125.56" width="8.00" height="2.63" class="up-body"/>
<line x1="278.59" y1="120.30" x2="278.59" y2="128.17" class="up-wick"/>
<rect x="274.59" y="125.05" width="8.00" height="1.00" class="up-body"/>
<line x1="300.54" y1="123.73" x2="300.54" y2="132.65" class="down-wick"/>
<rect x="296.54" y="125.05" width="8.00" height="6.19" class="down-body"/>
<line x1="322.50" y1="129.85" x2="322.50" y2="138.10" class="down-wick"/>
<rect x="318.50" y="131.19" width="8.00" height="3.09" class="down-body"/>
<line x1="344.46" y1="127.34" x2="344.46" y2="138.15" class="up-wick"/>
<rect x="340.46" y="129.38" width="8.00" height="4.87" class="up-body"/>
<line x1="366.41" y1="129.05" x2="366.41" y2="137.55" class="down-wick"/>
<rect x="362.41" y="129.35" width="8.00" height="3.79" class="down-body"/>
<line x1="388.37" y1="125.74" x2="388.37" y2="140.58" class="down-wick"/>
<rect x="384.37" y="133.12" width="8.00" height="5.30" class="down-body"/>
<line x1="410.33" y1="134.41" x2="410.33" y2="147.77" class="down-wick"/>
<rect x="406.33" y="138.28" width="8.00" height="3.00" class="down-body"/>
<line x1="432.28" y1="140.75" x2="432.28" y2="159.82" class="down-wick"/>
<rect x="428.28" y="141.28" width="8.00" height="17.09" class="down-body"/>
<line x1="454.24" y1="154.15" x2="454.24" y2="168.62" class="down-wick"/>
<rect x="450.24" y="158.37" width="8.00" height="7.59" class="down-body"/>
<line x1="476.20" y1="157.02" x2="476.20" y2="168.63" class="up-wick"/>
<rect x="472.20" y="159.69" width="8.00" height="6.28" class="up-body"/>
<line x1="498.15" y1="150.74" x2="498.15" y2="167.71" class="up-wick"/>
<rect x="494.15" y="154.47" width="8.00" height="5.21" class="up-body"/>
<line x1="520.11" y1="151.40" x2="520.11" y2="157.53" class="down-wick"/>
<rect x="516.11" y="154.47" width="8.00" height="1.44" class="down-body"/>
<line x1="542.07" y1="154.02" x2="542.07" y2="159.70" class="up-wick"/>
<rect x="538.07" y="155.75" width="8.00" height="1.00" class="up-body"/>
<line x1="564.02" y1="145.97" x2="564.02" y2="155.34" class="up-wick"/>
<rect x="560.02" y="149.07" width="8.00" height="5.89" class="up-body"/>
<line x1="585.98" y1="142.40" x2="585.98" y2="149.71" class="up-wick"/>
<rect x="581.98" y="145.35" width="8.00" height="3.72" class="up-body"/>
<line x1="607.93" y1="136.50" x2="607.93" y2="146.70" class="down-wick"/>
<rect x="603.93" y="145.33" width="8.00" height="1.27" class="down-body"/>
<line x1="629.89" y1="145.74" x2="629.89" y2="166.48" class="down-wick"/>
<rect x="625.89" y="146.61" width="8.00" height="18.74" class="down-body"/>
<line x1="651.85" y1="156.74" x2="651.85" y2="169.37" class="down-wick"/>
<rect x="647.85" y="165.35" width="8.00" height="1.47" class="down-body"/>
<line x1="673.80" y1="160.52" x2="673.80" y2="167.45" class="up-wick"/>
<rect x="669.80" y="165.16" width="8.00" height="1.66" class="up-body"/>
<line x1="695.76" y1="164.83" x2="695.76" y2="169.25" class="down-wick"/>
<rect x="691.76" y="165.16" width="8.00" height="3.09" class="down-body"/>
<line x1="717.72" y1="167.88" x2="717.72" y2="209.55" class="down-wick"/>
<rect x="713.72" y="168.23" width="8.00" height="33.46" class="down-body"/>
<line x1="739.67" y1="191.54" x2="739.67" y2="210.17" class="down-wick"/>
<rect x="735.67" y="201.69" width="8.00" height="3.04" class="down-body"/>
<line x1="761.63" y1="194.85" x2="761.63" y2="212.79" class="up-wick"/>
<rect x="757.63" y="200.68" width="8.00" height="4.05" class="up-body"/>
<line x1="783.59" y1="198.59" x2="783.59" y2="218.19" class="down-wick"/>
<rect x="779.59" y="200.68" width="8.00" height="3.39" class="down-body"/>
<line x1="805.54" y1="203.75" x2="805.54" y2="227.78" class="down-wick"/>
<rect x="801.54" y="204.07" width="8.00" height="23.44" class="down-body"/>
<line x1="827.50" y1="216.53" x2="827.50" y2="229.21" class="down-wick"/>
<rect x="823.50" y="227.51" width="8.00" height="1.58" class="down-body"/>
<line x1="849.46" y1="223.86" x2="849.46" y2="274.14" class="down-wick"/>
<rect x="845.46" y="229.08" width="8.00" height="38.39" class="down-body"/>
<line x1="871.41" y1="231.95" x2="871.41" y2="274.76" class="up-wick"/>
<rect x="867.41" y="237.98" width="8.00" height="29.49" class="up-body"/>
<line x1="893.37" y1="237.14" x2="893.37" y2="259.66" class="down-wick"/>
<rect x="889.37" y="237.98" width="8.00" height="12.82" class="down-body"/>
<line x1="915.33" y1="250.41" x2="915.33" y2="272.44" class="down-wick"/>
<rect x="911.33" y="250.77" width="8.00" height="5.47" class="down-body"/>
<line x1="937.28" y1="244.79" x2="937.28" y2="263.26" class="up-wick"/>
<rect x="933.28" y="244.79" width="8.00" height="11.45" class="up-body"/>
<line x1="959.24" y1="237.06" x2="959.24" y2="253.03" class="up-wick"/>
<rect x="955.24" y="239.44" width="8.00" height="5.34" class="up-body"/>
<line x1="981.20" y1="230.68" x2="981.20" y2="244.20" class="up-wick"/>
<rect x="977.20" y="237.08" width="8.00" height="2.36" class="up-body"/>
<line x1="1003.15" y1="231.64" x2="1003.15" y2="239.66" class="down-wick"/>
<rect x="999.15" y="237.08" width="8.00" height="1.00" class="down-body"/>
<line x1="1025.11" y1="232.17" x2="1025.11" y2="238.37" class="up-wick"/>
<rect x="1021.11" y="236.19" width="8.00" height="1.33" class="up-body"/>
<line x1="1047.07" y1="232.48" x2="1047.07" y2="239.30" class="down-wick"/>
<rect x="1043.07" y="235.37" width="8.00" height="2.32" class="down-body"/>
<line x1="1069.02" y1="235.68" x2="1069.02" y2="243.53" class="up-wick"/>
<rect x="1065.02" y="236.21" width="8.00" height="1.48" class="up-body"/>
<line x1="70" y1="145.97" x2="1080" y2="145.97" class="sweep-line"/>
<text x="1076" y="141.97" text-anchor="end" class="level-label">sweep 4691.21</text>
<line x1="70" y1="150.65" x2="1080" y2="150.65" class="entry-line"/>
<text x="1076" y="146.65" text-anchor="end" class="level-label">entry level 4686.26</text>
<text x="70" y="306" class="axis-label">2026-04-27 01:00:00+00:00 to 2026-04-29 02:00:00+00:00</text>
<text x="1080" y="306" text-anchor="end" class="axis-label">4540.81 - 4744.13</text>
<text x="70" y="332" class="panel-title">M15 liquidity / reaction context</text>
<rect x="70" y="346" width="1010" height="192" class="plot-bg"/>
<line x1="77.77" y1="373.95" x2="77.77" y2="391.40" class="up-wick"/>
<rect x="73.77" y="378.49" width="8.00" height="2.94" class="up-body"/>
<line x1="93.31" y1="369.95" x2="93.31" y2="391.74" class="down-wick"/>
<rect x="89.31" y="378.49" width="8.00" height="6.73" class="down-body"/>
<line x1="108.85" y1="378.31" x2="108.85" y2="389.72" class="up-wick"/>
<rect x="104.85" y="379.58" width="8.00" height="5.64" class="up-body"/>
<line x1="124.38" y1="368.13" x2="124.38" y2="385.53" class="up-wick"/>
<rect x="120.38" y="368.93" width="8.00" height="10.63" class="up-body"/>
<line x1="139.92" y1="359.24" x2="139.92" y2="386.60" class="down-wick"/>
<rect x="135.92" y="368.93" width="8.00" height="4.99" class="down-body"/>
<line x1="155.46" y1="371.84" x2="155.46" y2="399.93" class="down-wick"/>
<rect x="151.46" y="373.92" width="8.00" height="21.10" class="down-body"/>
<line x1="171.00" y1="380.31" x2="171.00" y2="400.08" class="up-wick"/>
<rect x="167.00" y="394.13" width="8.00" height="1.00" class="up-body"/>
<line x1="186.54" y1="390.50" x2="186.54" y2="409.46" class="down-wick"/>
<rect x="182.54" y="393.74" width="8.00" height="8.73" class="down-body"/>
<line x1="202.08" y1="383.09" x2="202.08" y2="403.59" class="up-wick"/>
<rect x="198.08" y="391.82" width="8.00" height="10.65" class="up-body"/>
<line x1="217.62" y1="385.33" x2="217.62" y2="419.80" class="down-wick"/>
<rect x="213.62" y="391.82" width="8.00" height="17.61" class="down-body"/>
<line x1="233.15" y1="398.83" x2="233.15" y2="419.85" class="up-wick"/>
<rect x="229.15" y="402.00" width="8.00" height="7.43" class="up-body"/>
<line x1="248.69" y1="401.72" x2="248.69" y2="423.57" class="down-wick"/>
<rect x="244.69" y="402.00" width="8.00" height="9.43" class="down-body"/>
<line x1="264.23" y1="400.81" x2="264.23" y2="428.04" class="down-wick"/>
<rect x="260.23" y="411.43" width="8.00" height="9.27" class="down-body"/>
<line x1="279.77" y1="400.55" x2="279.77" y2="435.00" class="up-wick"/>
<rect x="275.77" y="409.15" width="8.00" height="11.56" class="up-body"/>
<line x1="295.31" y1="407.62" x2="295.31" y2="453.00" class="down-wick"/>
<rect x="291.31" y="409.15" width="8.00" height="39.88" class="down-body"/>
<line x1="310.85" y1="445.65" x2="310.85" y2="477.22" class="down-wick"/>
<rect x="306.85" y="449.03" width="8.00" height="9.12" class="down-body"/>
<line x1="326.38" y1="441.00" x2="326.38" y2="464.98" class="up-wick"/>
<rect x="322.38" y="441.10" width="8.00" height="17.04" class="up-body"/>
<line x1="341.92" y1="437.41" x2="341.92" y2="451.78" class="down-wick"/>
<rect x="337.92" y="441.10" width="8.00" height="9.01" class="down-body"/>
<line x1="357.46" y1="449.03" x2="357.46" y2="474.98" class="down-wick"/>
<rect x="353.46" y="450.12" width="8.00" height="19.80" class="down-body"/>
<line x1="373.00" y1="457.19" x2="373.00" y2="477.24" class="up-wick"/>
<rect x="369.00" y="458.30" width="8.00" height="11.61" class="up-body"/>
<line x1="388.54" y1="449.91" x2="388.54" y2="460.48" class="up-wick"/>
<rect x="384.54" y="453.47" width="8.00" height="4.83" class="up-body"/>
<line x1="404.08" y1="445.31" x2="404.08" y2="458.87" class="down-wick"/>
<rect x="400.08" y="453.47" width="8.00" height="4.00" class="down-body"/>
<line x1="419.62" y1="449.00" x2="419.62" y2="457.68" class="up-wick"/>
<rect x="415.62" y="452.64" width="8.00" height="4.83" class="up-body"/>
<line x1="435.15" y1="447.96" x2="435.15" y2="465.71" class="down-wick"/>
<rect x="431.15" y="452.64" width="8.00" height="7.74" class="down-body"/>
<line x1="450.69" y1="444.14" x2="450.69" y2="474.72" class="up-wick"/>
<rect x="446.69" y="444.79" width="8.00" height="15.56" class="up-body"/>
<line x1="466.23" y1="428.04" x2="466.23" y2="445.39" class="up-wick"/>
<rect x="462.23" y="435.78" width="8.00" height="9.01" class="up-body"/>
<line x1="481.77" y1="432.40" x2="481.77" y2="441.26" class="down-wick"/>
<rect x="477.77" y="435.78" width="8.00" height="2.52" class="down-body"/>
<line x1="497.31" y1="436.71" x2="497.31" y2="446.72" class="down-wick"/>
<rect x="493.31" y="438.30" width="8.00" height="2.08" class="down-body"/>
<line x1="512.85" y1="429.83" x2="512.85" y2="442.38" class="up-wick"/>
<rect x="508.85" y="433.41" width="8.00" height="6.96" class="up-body"/>
<line x1="528.38" y1="430.37" x2="528.38" y2="437.41" class="down-wick"/>
<rect x="524.38" y="433.36" width="8.00" height="3.30" class="down-body"/>
<line x1="543.92" y1="430.92" x2="543.92" y2="442.25" class="down-wick"/>
<rect x="539.92" y="436.71" width="8.00" height="5.53" class="down-body"/>
<line x1="559.46" y1="440.90" x2="559.46" y2="447.81" class="down-wick"/>
<rect x="555.46" y="442.25" width="8.00" height="1.12" class="down-body"/>
<line x1="575.00" y1="437.05" x2="575.00" y2="444.66" class="up-wick"/>
<rect x="571.00" y="438.25" width="8.00" height="5.14" class="up-body"/>
<line x1="590.54" y1="437.93" x2="590.54" y2="452.69" class="down-wick"/>
<rect x="586.54" y="438.19" width="8.00" height="5.87" class="down-body"/>
<line x1="606.08" y1="440.04" x2="606.08" y2="448.12" class="up-wick"/>
<rect x="602.08" y="441.81" width="8.00" height="2.31" class="up-body"/>
<line x1="621.62" y1="414.92" x2="621.62" y2="440.69" class="up-wick"/>
<rect x="617.62" y="420.03" width="8.00" height="19.61" class="up-body"/>
<line x1="637.15" y1="418.55" x2="637.15" y2="426.11" class="down-wick"/>
<rect x="633.15" y="420.03" width="8.00" height="1.00" class="down-body"/>
<line x1="652.69" y1="418.58" x2="652.69" y2="427.23" class="down-wick"/>
<rect x="648.69" y="420.48" width="8.00" height="4.44" class="down-body"/>
<line x1="668.23" y1="422.89" x2="668.23" y2="427.78" class="up-wick"/>
<rect x="664.23" y="423.44" width="8.00" height="1.48" class="up-body"/>
<line x1="683.77" y1="418.45" x2="683.77" y2="425.20" class="up-wick"/>
<rect x="679.77" y="418.48" width="8.00" height="4.96" class="up-body"/>
<line x1="699.31" y1="413.77" x2="699.31" y2="419.44" class="up-wick"/>
<rect x="695.31" y="416.53" width="8.00" height="1.97" class="up-body"/>
<line x1="714.85" y1="406.86" x2="714.85" y2="416.92" class="up-wick"/>
<rect x="710.85" y="406.89" width="8.00" height="9.64" class="up-body"/>
<line x1="730.38" y1="405.07" x2="730.38" y2="413.20" class="down-wick"/>
<rect x="726.38" y="406.89" width="8.00" height="6.31" class="down-body"/>
<line x1="745.92" y1="388.86" x2="745.92" y2="413.54" class="up-wick"/>
<rect x="741.92" y="397.54" width="8.00" height="15.61" class="up-body"/>
<line x1="761.46" y1="393.46" x2="761.46" y2="412.29" class="down-wick"/>
<rect x="757.46" y="397.54" width="8.00" height="7.61" class="down-body"/>
<line x1="777.00" y1="404.55" x2="777.00" y2="413.51" class="down-wick"/>
<rect x="773.00" y="405.15" width="8.00" height="3.56" class="down-body"/>
<line x1="792.54" y1="406.03" x2="792.54" y2="416.92" class="down-wick"/>
<rect x="788.54" y="408.71" width="8.00" height="7.95" class="down-body"/>
<line x1="808.08" y1="415.64" x2="808.08" y2="432.32" class="down-wick"/>
<rect x="804.08" y="416.66" width="8.00" height="6.62" class="down-body"/>
<line x1="823.62" y1="416.37" x2="823.62" y2="429.31" class="down-wick"/>
<rect x="819.62" y="423.44" width="8.00" height="1.01" class="down-body"/>
<line x1="839.15" y1="414.27" x2="839.15" y2="433.88" class="down-wick"/>
<rect x="835.15" y="424.45" width="8.00" height="1.00" class="down-body"/>
<line x1="854.69" y1="424.14" x2="854.69" y2="471.34" class="down-wick"/>
<rect x="850.69" y="425.20" width="8.00" height="43.02" class="down-body"/>
<line x1="870.23" y1="449.42" x2="870.23" y2="479.27" class="up-wick"/>
<rect x="866.23" y="451.08" width="8.00" height="17.15" class="up-body"/>
<line x1="885.77" y1="444.53" x2="885.77" y2="458.17" class="down-wick"/>
<rect x="881.77" y="451.08" width="8.00" height="4.55" class="down-body"/>
<line x1="901.31" y1="455.37" x2="901.31" y2="468.49" class="down-wick"/>
<rect x="897.31" y="455.60" width="8.00" height="11.77" class="down-body"/>
<line x1="916.85" y1="466.67" x2="916.85" y2="478.96" class="down-wick"/>
<rect x="912.85" y="467.45" width="8.00" height="4.83" class="down-body"/>
<line x1="932.38" y1="458.95" x2="932.38" y2="473.99" class="up-wick"/>
<rect x="928.38" y="462.23" width="8.00" height="10.05" class="up-body"/>
<line x1="947.92" y1="454.92" x2="947.92" y2="466.38" class="up-wick"/>
<rect x="943.92" y="457.29" width="8.00" height="4.94" class="up-body"/>
<line x1="963.46" y1="455.99" x2="963.46" y2="465.63" class="down-wick"/>
<rect x="959.46" y="457.29" width="8.00" height="7.59" class="down-body"/>
<line x1="979.00" y1="463.19" x2="979.00" y2="471.97" class="down-wick"/>
<rect x="975.00" y="464.88" width="8.00" height="2.83" class="down-body"/>
<line x1="994.54" y1="466.80" x2="994.54" y2="478.36" class="down-wick"/>
<rect x="990.54" y="467.71" width="8.00" height="2.99" class="down-body"/>
<line x1="1010.08" y1="470.72" x2="1010.08" y2="478.96" class="down-wick"/>
<rect x="1006.08" y="470.72" width="8.00" height="5.95" class="down-body"/>
<line x1="1025.62" y1="470.25" x2="1025.62" y2="478.28" class="up-wick"/>
<rect x="1021.62" y="470.49" width="8.00" height="6.18" class="up-body"/>
<line x1="1041.15" y1="470.23" x2="1041.15" y2="477.06" class="down-wick"/>
<rect x="1037.15" y="470.46" width="8.00" height="5.74" class="down-body"/>
<line x1="1056.69" y1="475.19" x2="1056.69" y2="524.76" class="down-wick"/>
<rect x="1052.69" y="476.15" width="8.00" height="39.62" class="down-body"/>
<line x1="1072.23" y1="497.27" x2="1072.23" y2="518.81" class="up-wick"/>
<rect x="1068.23" y="500.36" width="8.00" height="15.41" class="up-body"/>
<line x1="70" y1="414.92" x2="1080" y2="414.92" class="sweep-line"/>
<text x="1076" y="410.92" text-anchor="end" class="level-label">sweep 4691.21</text>
<line x1="70" y1="427.78" x2="1080" y2="427.78" class="entry-line"/>
<text x="1076" y="423.78" text-anchor="end" class="level-label">entry level 4686.26</text>
<text x="70" y="556" class="axis-label">2026-04-27 14:15:00+00:00 to 2026-04-28 08:15:00+00:00</text>
<text x="1080" y="556" text-anchor="end" class="axis-label">4643.83 - 4717.74</text>
<text x="70" y="582" class="panel-title">M5 reaction / execution context</text>
<rect x="70" y="596" width="1010" height="192" class="plot-bg"/>
<line x1="79.71" y1="683.44" x2="79.71" y2="704.13" class="up-wick"/>
<rect x="75.71" y="700.70" width="8.00" height="1.52" class="up-body"/>
<line x1="99.13" y1="665.13" x2="99.13" y2="699.32" class="up-wick"/>
<rect x="95.13" y="668.17" width="8.00" height="31.06" class="up-body"/>
<line x1="118.56" y1="656.95" x2="118.56" y2="669.84" class="up-wick"/>
<rect x="114.56" y="666.32" width="8.00" height="1.62" class="up-body"/>
<line x1="137.98" y1="663.61" x2="137.98" y2="675.69" class="down-wick"/>
<rect x="133.98" y="666.32" width="8.00" height="4.33" class="down-body"/>
<line x1="157.40" y1="670.45" x2="157.40" y2="677.45" class="down-wick"/>
<rect x="153.40" y="670.64" width="8.00" height="4.09" class="down-body"/>
<line x1="176.83" y1="666.03" x2="176.83" y2="674.54" class="up-wick"/>
<rect x="172.83" y="667.12" width="8.00" height="7.42" class="up-body"/>
<line x1="196.25" y1="663.65" x2="196.25" y2="669.41" class="down-wick"/>
<rect x="192.25" y="667.12" width="8.00" height="1.00" class="down-body"/>
<line x1="215.67" y1="667.70" x2="215.67" y2="676.92" class="down-wick"/>
<rect x="211.67" y="668.03" width="8.00" height="3.71" class="down-body"/>
<line x1="235.10" y1="667.46" x2="235.10" y2="679.49" class="down-wick"/>
<rect x="231.10" y="671.74" width="8.00" height="3.52" class="down-body"/>
<line x1="254.52" y1="674.02" x2="254.52" y2="680.49" class="down-wick"/>
<rect x="250.52" y="675.26" width="8.00" height="1.57" class="down-body"/>
<line x1="273.94" y1="673.78" x2="273.94" y2="680.20" class="up-wick"/>
<rect x="269.94" y="674.88" width="8.00" height="1.95" class="up-body"/>
<line x1="293.37" y1="671.55" x2="293.37" y2="677.02" class="up-wick"/>
<rect x="289.37" y="672.55" width="8.00" height="2.33" class="up-body"/>
<line x1="312.79" y1="665.32" x2="312.79" y2="675.78" class="up-wick"/>
<rect x="308.79" y="669.46" width="8.00" height="3.09" class="up-body"/>
<line x1="332.21" y1="669.22" x2="332.21" y2="675.73" class="down-wick"/>
<rect x="328.21" y="669.46" width="8.00" height="2.09" class="down-body"/>
<line x1="351.63" y1="663.41" x2="351.63" y2="675.02" class="up-wick"/>
<rect x="347.63" y="663.46" width="8.00" height="8.09" class="up-body"/>
<line x1="371.06" y1="656.52" x2="371.06" y2="665.22" class="up-wick"/>
<rect x="367.06" y="658.04" width="8.00" height="5.47" class="up-body"/>
<line x1="390.48" y1="656.61" x2="390.48" y2="662.84" class="down-wick"/>
<rect x="386.48" y="658.04" width="8.00" height="1.00" class="down-body"/>
<line x1="409.90" y1="654.85" x2="409.90" y2="662.51" class="down-wick"/>
<rect x="405.90" y="658.75" width="8.00" height="1.14" class="down-body"/>
<line x1="429.33" y1="652.43" x2="429.33" y2="660.61" class="up-wick"/>
<rect x="425.33" y="653.52" width="8.00" height="6.37" class="up-body"/>
<line x1="448.75" y1="642.39" x2="448.75" y2="653.47" class="up-wick"/>
<rect x="444.75" y="646.34" width="8.00" height="7.13" class="up-body"/>
<line x1="468.17" y1="642.20" x2="468.17" y2="654.24" class="up-wick"/>
<rect x="464.17" y="642.25" width="8.00" height="4.09" class="up-body"/>
<line x1="487.60" y1="638.92" x2="487.60" y2="646.86" class="up-wick"/>
<rect x="483.60" y="641.11" width="8.00" height="1.14" class="up-body"/>
<line x1="507.02" y1="639.44" x2="507.02" y2="644.96" class="up-wick"/>
<rect x="503.02" y="640.73" width="8.00" height="1.00" class="up-body"/>
<line x1="526.44" y1="640.73" x2="526.44" y2="653.81" class="down-wick"/>
<rect x="522.44" y="640.78" width="8.00" height="13.03" class="down-body"/>
<line x1="545.87" y1="627.51" x2="545.87" y2="654.43" class="up-wick"/>
<rect x="541.87" y="629.88" width="8.00" height="23.83" class="up-body"/>
<line x1="565.29" y1="609.24" x2="565.29" y2="630.98" class="up-wick"/>
<rect x="561.29" y="614.76" width="8.00" height="15.12" class="up-body"/>
<line x1="584.71" y1="609.62" x2="584.71" y2="625.79" class="down-wick"/>
<rect x="580.71" y="614.76" width="8.00" height="10.37" class="down-body"/>
<line x1="604.13" y1="617.66" x2="604.13" y2="631.31" class="down-wick"/>
<rect x="600.13" y="625.13" width="8.00" height="3.80" class="down-body"/>
<line x1="623.56" y1="626.60" x2="623.56" y2="636.54" class="down-wick"/>
<rect x="619.56" y="628.74" width="8.00" height="1.09" class="down-body"/>
<line x1="642.98" y1="625.27" x2="642.98" y2="652.14" class="down-wick"/>
<rect x="638.98" y="629.84" width="8.00" height="9.23" class="down-body"/>
<line x1="662.40" y1="637.97" x2="662.40" y2="651.19" class="down-wick"/>
<rect x="658.40" y="639.06" width="8.00" height="8.80" class="down-body"/>
<line x1="681.83" y1="640.59" x2="681.83" y2="653.66" class="down-wick"/>
<rect x="677.83" y="647.72" width="8.00" height="5.90" class="down-body"/>
<line x1="701.25" y1="641.16" x2="701.25" y2="654.38" class="up-wick"/>
<rect x="697.25" y="645.58" width="8.00" height="7.94" class="up-body"/>
<line x1="720.67" y1="640.68" x2="720.67" y2="651.24" class="up-wick"/>
<rect x="716.67" y="644.82" width="8.00" height="1.00" class="up-body"/>
<line x1="740.10" y1="643.11" x2="740.10" y2="651.29" class="down-wick"/>
<rect x="736.10" y="644.77" width="8.00" height="3.23" class="down-body"/>
<line x1="759.52" y1="645.82" x2="759.52" y2="660.61" class="down-wick"/>
<rect x="755.52" y="648.00" width="8.00" height="12.13" class="down-body"/>
<line x1="778.94" y1="658.28" x2="778.94" y2="688.81" class="down-wick"/>
<rect x="774.94" y="660.13" width="8.00" height="5.71" class="down-body"/>
<line x1="798.37" y1="659.94" x2="798.37" y2="679.35" class="down-wick"/>
<rect x="794.37" y="665.84" width="8.00" height="2.14" class="down-body"/>
<line x1="817.79" y1="658.61" x2="817.79" y2="675.88" class="down-wick"/>
<rect x="813.79" y="667.98" width="8.00" height="4.28" class="down-body"/>
<line x1="837.21" y1="664.98" x2="837.21" y2="683.30" class="up-wick"/>
<rect x="833.21" y="666.13" width="8.00" height="6.42" class="up-body"/>
<line x1="856.63" y1="659.61" x2="856.63" y2="679.16" class="up-wick"/>
<rect x="852.63" y="664.98" width="8.00" height="1.33" class="up-body"/>
<line x1="876.06" y1="663.56" x2="876.06" y2="677.26" class="down-wick"/>
<rect x="872.06" y="664.98" width="8.00" height="9.42" class="down-body"/>
<line x1="895.48" y1="672.88" x2="895.48" y2="691.67" class="down-wick"/>
<rect x="891.48" y="674.40" width="8.00" height="15.89" class="down-body"/>
<line x1="914.90" y1="661.27" x2="914.90" y2="690.00" class="up-wick"/>
<rect x="910.90" y="661.32" width="8.00" height="28.68" class="up-body"/>
<line x1="934.33" y1="655.76" x2="934.33" y2="676.68" class="down-wick"/>
<rect x="930.33" y="661.32" width="8.00" height="14.46" class="down-body"/>
<line x1="953.75" y1="673.83" x2="953.75" y2="686.77" class="down-wick"/>
<rect x="949.75" y="675.78" width="8.00" height="10.56" class="down-body"/>
<line x1="973.17" y1="683.91" x2="973.17" y2="707.12" class="down-wick"/>
<rect x="969.17" y="686.44" width="8.00" height="19.98" class="down-body"/>
<line x1="992.60" y1="705.37" x2="992.60" y2="760.25" class="down-wick"/>
<rect x="988.60" y="706.41" width="8.00" height="48.13" class="down-body"/>
<line x1="1012.02" y1="741.23" x2="1012.02" y2="774.76" class="up-wick"/>
<rect x="1008.02" y="744.70" width="8.00" height="9.85" class="up-body"/>
<line x1="1031.44" y1="726.05" x2="1031.44" y2="746.79" class="up-wick"/>
<rect x="1027.44" y="733.19" width="8.00" height="11.51" class="up-body"/>
<line x1="1050.87" y1="720.11" x2="1050.87" y2="737.90" class="up-wick"/>
<rect x="1046.87" y="723.15" width="8.00" height="10.04" class="up-body"/>
<line x1="1070.29" y1="711.17" x2="1070.29" y2="724.06" class="up-wick"/>
<rect x="1066.29" y="719.11" width="8.00" height="4.04" class="up-body"/>
<line x1="70" y1="656.95" x2="1080" y2="656.95" class="sweep-line"/>
<text x="1076" y="652.95" text-anchor="end" class="level-label">sweep 4691.21</text>
<line x1="70" y1="680.49" x2="1080" y2="680.49" class="entry-line"/>
<text x="1076" y="676.49" text-anchor="end" class="level-label">entry level 4686.26</text>
<text x="70" y="806" class="axis-label">2026-04-28 01:00:00+00:00 to 2026-04-28 05:15:00+00:00</text>
<text x="1080" y="806" text-anchor="end" class="axis-label">4663.66 - 4704.02</text>
<text x="70" y="832" class="panel-title">M1 execution window</text>
<rect x="70" y="846" width="1010" height="192" class="plot-bg"/>
<line x1="73.95" y1="932.71" x2="73.95" y2="951.72" class="up-wick"/>
<rect x="71.38" y="941.95" width="5.13" height="9.77" class="up-body"/>
<line x1="81.84" y1="942.77" x2="81.84" y2="947.15" class="down-wick"/>
<rect x="79.27" y="944.12" width="5.13" height="2.07" class="down-body"/>
<line x1="89.73" y1="940.27" x2="89.73" y2="953.65" class="down-wick"/>
<rect x="87.16" y="943.73" width="5.13" height="6.45" class="down-body"/>
<line x1="97.62" y1="921.35" x2="97.62" y2="938.15" class="up-wick"/>
<rect x="95.05" y="930.59" width="5.13" height="3.71" class="up-body"/>
<line x1="105.51" y1="914.17" x2="105.51" y2="924.43" class="up-wick"/>
<rect x="102.94" y="917.06" width="5.13" height="5.68" class="up-body"/>
<line x1="113.40" y1="905.89" x2="113.40" y2="917.78" class="up-wick"/>
<rect x="110.83" y="908.59" width="5.13" height="8.43" class="up-body"/>
<line x1="121.29" y1="913.69" x2="121.29" y2="918.94" class="down-wick"/>
<rect x="118.72" y="913.69" width="5.13" height="1.00" class="down-body"/>
<line x1="129.18" y1="908.16" x2="129.18" y2="916.82" class="down-wick"/>
<rect x="126.62" y="913.26" width="5.13" height="2.12" class="down-body"/>
<line x1="137.07" y1="914.51" x2="137.07" y2="919.81" class="down-wick"/>
<rect x="134.51" y="917.11" width="5.13" height="1.20" class="down-body"/>
<line x1="144.96" y1="917.74" x2="144.96" y2="924.48" class="up-wick"/>
<rect x="142.40" y="919.90" width="5.13" height="1.93" class="up-body"/>
<line x1="152.85" y1="919.76" x2="152.85" y2="922.65" class="down-wick"/>
<rect x="150.29" y="919.76" width="5.13" height="2.21" class="down-body"/>
<line x1="160.74" y1="921.11" x2="160.74" y2="926.64" class="down-wick"/>
<rect x="158.18" y="921.11" width="5.13" height="3.51" class="down-body"/>
<line x1="168.63" y1="920.72" x2="168.63" y2="925.58" class="down-wick"/>
<rect x="166.07" y="922.36" width="5.13" height="1.54" class="down-body"/>
<line x1="176.52" y1="921.35" x2="176.52" y2="923.22" class="up-wick"/>
<rect x="173.96" y="921.83" width="5.13" height="1.00" class="up-body"/>
<line x1="184.41" y1="915.09" x2="184.41" y2="917.30" class="up-wick"/>
<rect x="181.85" y="915.14" width="5.13" height="1.00" class="up-body"/>
<line x1="192.30" y1="912.68" x2="192.30" y2="918.51" class="up-wick"/>
<rect x="189.74" y="913.40" width="5.13" height="2.79" class="up-body"/>
<line x1="200.20" y1="913.84" x2="200.20" y2="918.46" class="down-wick"/>
<rect x="197.63" y="914.22" width="5.13" height="2.70" class="down-body"/>
<line x1="208.09" y1="915.38" x2="208.09" y2="918.46" class="up-wick"/>
<rect x="205.52" y="917.21" width="5.13" height="1.00" class="up-body"/>
<line x1="215.98" y1="923.85" x2="215.98" y2="926.11" class="down-wick"/>
<rect x="213.41" y="924.38" width="5.13" height="1.40" class="down-body"/>
<line x1="223.87" y1="919.37" x2="223.87" y2="922.55" class="up-wick"/>
<rect x="221.30" y="919.37" width="5.13" height="3.18" class="up-body"/>
<line x1="231.76" y1="919.52" x2="231.76" y2="921.97" class="up-wick"/>
<rect x="229.19" y="920.77" width="5.13" height="1.00" class="up-body"/>
<line x1="239.65" y1="916.53" x2="239.65" y2="921.06" class="down-wick"/>
<rect x="237.08" y="919.52" width="5.13" height="1.49" class="down-body"/>
<line x1="247.54" y1="924.19" x2="247.54" y2="925.58" class="up-wick"/>
<rect x="244.97" y="924.43" width="5.13" height="1.06" class="up-body"/>
<line x1="255.43" y1="925.39" x2="255.43" y2="929.15" class="up-wick"/>
<rect x="252.87" y="925.44" width="5.13" height="3.03" class="up-body"/>
<line x1="263.32" y1="925.01" x2="263.32" y2="927.41" class="up-wick"/>
<rect x="260.76" y="925.78" width="5.13" height="1.54" class="up-body"/>
<line x1="271.21" y1="924.33" x2="271.21" y2="927.46" class="up-wick"/>
<rect x="268.65" y="925.10" width="5.13" height="1.00" class="up-body"/>
<line x1="279.10" y1="925.10" x2="279.10" y2="929.43" class="up-wick"/>
<rect x="276.54" y="925.25" width="5.13" height="1.64" class="up-body"/>
<line x1="286.99" y1="923.95" x2="286.99" y2="926.31" class="up-wick"/>
<rect x="284.43" y="924.04" width="5.13" height="1.00" class="up-body"/>
<line x1="294.88" y1="923.90" x2="294.88" y2="926.11" class="down-wick"/>
<rect x="292.32" y="925.39" width="5.13" height="1.00" class="down-body"/>
<line x1="302.77" y1="921.11" x2="302.77" y2="925.39" class="up-wick"/>
<rect x="300.21" y="923.08" width="5.13" height="1.83" class="up-body"/>
<line x1="310.66" y1="918.17" x2="310.66" y2="924.96" class="down-wick"/>
<rect x="308.10" y="921.68" width="5.13" height="1.20" class="down-body"/>
<line x1="318.55" y1="917.83" x2="318.55" y2="919.90" class="down-wick"/>
<rect x="315.99" y="918.12" width="5.13" height="1.00" class="down-body"/>
<line x1="326.45" y1="914.37" x2="326.45" y2="919.23" class="down-wick"/>
<rect x="323.88" y="916.58" width="5.13" height="1.97" class="down-body"/>
<line x1="334.34" y1="922.50" x2="334.34" y2="924.91" class="up-wick"/>
<rect x="331.77" y="923.42" width="5.13" height="1.00" class="up-body"/>
<line x1="342.23" y1="918.51" x2="342.23" y2="921.54" class="up-wick"/>
<rect x="339.66" y="918.79" width="5.13" height="1.44" class="up-body"/>
<line x1="350.12" y1="920.43" x2="350.12" y2="924.19" class="down-wick"/>
<rect x="347.55" y="920.67" width="5.13" height="2.94" class="down-body"/>
<line x1="358.01" y1="919.90" x2="358.01" y2="924.09" class="up-wick"/>
<rect x="355.44" y="921.15" width="5.13" height="1.00" class="up-body"/>
<line x1="365.90" y1="912.44" x2="365.90" y2="915.47" class="up-wick"/>
<rect x="363.33" y="912.49" width="5.13" height="2.55" class="up-body"/>
<line x1="373.79" y1="910.13" x2="373.79" y2="914.27" class="up-wick"/>
<rect x="371.22" y="910.23" width="5.13" height="1.69" class="up-body"/>
<line x1="381.68" y1="907.05" x2="381.68" y2="909.17" class="down-wick"/>
<rect x="379.12" y="907.38" width="5.13" height="1.35" class="down-body"/>
<line x1="389.57" y1="905.56" x2="389.57" y2="910.95" class="down-wick"/>
<rect x="387.01" y="907.00" width="5.13" height="3.90" class="down-body"/>
<line x1="397.46" y1="909.36" x2="397.46" y2="911.86" class="down-wick"/>
<rect x="394.90" y="909.74" width="5.13" height="1.88" class="down-body"/>
<line x1="405.35" y1="905.89" x2="405.35" y2="908.78" class="up-wick"/>
<rect x="402.79" y="907.72" width="5.13" height="1.00" class="up-body"/>
<line x1="413.24" y1="906.61" x2="413.24" y2="910.80" class="down-wick"/>
<rect x="410.68" y="906.61" width="5.13" height="3.47" class="down-body"/>
<line x1="421.13" y1="903.77" x2="421.13" y2="911.24" class="up-wick"/>
<rect x="418.57" y="909.31" width="5.13" height="1.93" class="up-body"/>
<line x1="429.02" y1="902.76" x2="429.02" y2="909.60" class="up-wick"/>
<rect x="426.46" y="903.92" width="5.13" height="4.96" class="up-body"/>
<line x1="436.91" y1="903.24" x2="436.91" y2="906.47" class="down-wick"/>
<rect x="434.35" y="903.24" width="5.13" height="1.00" class="down-body"/>
<line x1="444.80" y1="901.32" x2="444.80" y2="904.69" class="up-wick"/>
<rect x="442.24" y="902.43" width="5.13" height="1.83" class="up-body"/>
<line x1="452.70" y1="895.30" x2="452.70" y2="900.84" class="up-wick"/>
<rect x="450.13" y="896.79" width="5.13" height="3.51" class="up-body"/>
<line x1="460.59" y1="894.63" x2="460.59" y2="898.82" class="up-wick"/>
<rect x="458.02" y="895.01" width="5.13" height="3.18" class="up-body"/>
<line x1="468.48" y1="894.96" x2="468.48" y2="898.33" class="down-wick"/>
<rect x="465.91" y="895.16" width="5.13" height="3.03" class="down-body"/>
<line x1="476.37" y1="898.62" x2="476.37" y2="903.10" class="down-wick"/>
<rect x="473.80" y="899.39" width="5.13" height="2.31" class="down-body"/>
<line x1="484.26" y1="890.97" x2="484.26" y2="897.18" class="up-wick"/>
<rect x="481.69" y="891.02" width="5.13" height="4.04" class="up-body"/>
<line x1="492.15" y1="893.09" x2="492.15" y2="895.69" class="down-wick"/>
<rect x="489.58" y="893.86" width="5.13" height="1.01" class="down-body"/>
<line x1="500.04" y1="891.59" x2="500.04" y2="895.45" class="up-wick"/>
<rect x="497.47" y="891.59" width="5.13" height="3.85" class="up-body"/>
<line x1="507.93" y1="889.86" x2="507.93" y2="892.08" class="down-wick"/>
<rect x="505.37" y="889.86" width="5.13" height="1.88" class="down-body"/>
<line x1="515.82" y1="888.18" x2="515.82" y2="892.12" class="up-wick"/>
<rect x="513.26" y="890.53" width="5.13" height="1.11" class="up-body"/>
<line x1="523.71" y1="889.33" x2="523.71" y2="891.40" class="up-wick"/>
<rect x="521.15" y="889.48" width="5.13" height="1.59" class="up-body"/>
<line x1="531.60" y1="891.21" x2="531.60" y2="893.66" class="down-wick"/>
<rect x="529.04" y="891.45" width="5.13" height="1.00" class="down-body"/>
<line x1="539.49" y1="895.20" x2="539.49" y2="899.68" class="down-wick"/>
<rect x="536.93" y="895.20" width="5.13" height="4.43" class="down-body"/>
<line x1="547.38" y1="889.62" x2="547.38" y2="903.34" class="up-wick"/>
<rect x="544.82" y="891.93" width="5.13" height="10.69" class="up-body"/>
<line x1="555.27" y1="879.70" x2="555.27" y2="884.52" class="up-wick"/>
<rect x="552.71" y="880.18" width="5.13" height="3.27" class="up-body"/>
<line x1="563.16" y1="876.09" x2="563.16" y2="889.91" class="up-wick"/>
<rect x="560.60" y="878.50" width="5.13" height="8.09" class="up-body"/>
<line x1="571.05" y1="872.10" x2="571.05" y2="877.01" class="down-wick"/>
<rect x="568.49" y="872.19" width="5.13" height="1.93" class="down-body"/>
<line x1="578.95" y1="862.80" x2="578.95" y2="869.93" class="down-wick"/>
<rect x="576.38" y="864.73" width="5.13" height="3.61" class="down-body"/>
<line x1="586.84" y1="859.24" x2="586.84" y2="863.29" class="up-wick"/>
<rect x="584.27" y="860.54" width="5.13" height="2.65" class="up-body"/>
<line x1="594.73" y1="859.63" x2="594.73" y2="867.86" class="down-wick"/>
<rect x="592.16" y="859.63" width="5.13" height="6.74" class="down-body"/>
<line x1="602.62" y1="870.75" x2="602.62" y2="874.36" class="down-wick"/>
<rect x="600.05" y="870.89" width="5.13" height="2.79" class="down-body"/>
<line x1="610.51" y1="866.13" x2="610.51" y2="871.95" class="down-wick"/>
<rect x="607.94" y="868.48" width="5.13" height="1.00" class="down-body"/>
<line x1="618.40" y1="870.70" x2="618.40" y2="874.07" class="up-wick"/>
<rect x="615.83" y="871.13" width="5.13" height="2.94" class="up-body"/>
<line x1="626.29" y1="877.05" x2="626.29" y2="885.24" class="down-wick"/>
<rect x="623.72" y="877.34" width="5.13" height="3.51" class="down-body"/>
<line x1="634.18" y1="875.18" x2="634.18" y2="882.93" class="up-wick"/>
<rect x="631.62" y="875.18" width="5.13" height="7.56" class="up-body"/>
<line x1="642.07" y1="875.37" x2="642.07" y2="879.22" class="up-wick"/>
<rect x="639.51" y="878.45" width="5.13" height="1.00" class="up-body"/>
<line x1="649.96" y1="875.03" x2="649.96" y2="885.34" class="down-wick"/>
<rect x="647.40" y="875.08" width="5.13" height="8.57" class="down-body"/>
<line x1="657.85" y1="888.42" x2="657.85" y2="895.54" class="up-wick"/>
<rect x="655.29" y="891.16" width="5.13" height="4.33" class="up-body"/>
<line x1="665.74" y1="886.88" x2="665.74" y2="893.90" class="down-wick"/>
<rect x="663.18" y="887.79" width="5.13" height="5.58" class="down-body"/>
<line x1="673.63" y1="886.68" x2="673.63" y2="896.22" class="up-wick"/>
<rect x="671.07" y="888.80" width="5.13" height="7.27" class="up-body"/>
<line x1="681.52" y1="893.38" x2="681.52" y2="898.96" class="down-wick"/>
<rect x="678.96" y="893.62" width="5.13" height="3.08" class="down-body"/>
<line x1="689.41" y1="897.18" x2="689.41" y2="899.97" class="down-wick"/>
<rect x="686.85" y="897.18" width="5.13" height="1.00" class="down-body"/>
<line x1="697.30" y1="889.33" x2="697.30" y2="897.08" class="up-wick"/>
<rect x="694.74" y="891.30" width="5.13" height="3.27" class="up-body"/>
<line x1="705.20" y1="892.12" x2="705.20" y2="903.29" class="up-wick"/>
<rect x="702.63" y="894.87" width="5.13" height="7.56" class="up-body"/>
<line x1="713.09" y1="893.90" x2="713.09" y2="901.17" class="down-wick"/>
<rect x="710.52" y="893.90" width="5.13" height="2.26" class="down-body"/>
<line x1="720.98" y1="890.05" x2="720.98" y2="898.00" class="down-wick"/>
<rect x="718.41" y="890.20" width="5.13" height="4.19" class="down-body"/>
<line x1="728.87" y1="892.12" x2="728.87" y2="900.12" class="down-wick"/>
<rect x="726.30" y="892.17" width="5.13" height="4.72" class="down-body"/>
<line x1="736.76" y1="892.94" x2="736.76" y2="897.03" class="down-wick"/>
<rect x="734.19" y="892.94" width="5.13" height="1.00" class="down-body"/>
<line x1="744.65" y1="892.56" x2="744.65" y2="897.66" class="up-wick"/>
<rect x="742.08" y="893.33" width="5.13" height="1.00" class="up-body"/>
<line x1="752.54" y1="895.49" x2="752.54" y2="900.16" class="down-wick"/>
<rect x="749.97" y="895.49" width="5.13" height="4.14" class="down-body"/>
<line x1="760.43" y1="896.07" x2="760.43" y2="898.96" class="down-wick"/>
<rect x="757.87" y="896.22" width="5.13" height="1.00" class="down-body"/>
<line x1="768.32" y1="894.63" x2="768.32" y2="896.84" class="down-wick"/>
<rect x="765.76" y="896.12" width="5.13" height="1.00" class="down-body"/>
<line x1="776.21" y1="898.14" x2="776.21" y2="900.50" class="down-wick"/>
<rect x="773.65" y="898.14" width="5.13" height="1.30" class="down-body"/>
<line x1="784.10" y1="907.24" x2="784.10" y2="922.50" class="down-wick"/>
<rect x="781.54" y="909.12" width="5.13" height="10.54" class="down-body"/>
<line x1="791.99" y1="923.71" x2="791.99" y2="938.15" class="down-wick"/>
<rect x="789.43" y="924.24" width="5.13" height="6.21" class="down-body"/>
<line x1="799.88" y1="914.85" x2="799.88" y2="924.33" class="up-wick"/>
<rect x="797.32" y="914.90" width="5.13" height="8.18" class="up-body"/>
<line x1="807.77" y1="918.75" x2="807.77" y2="928.57" class="up-wick"/>
<rect x="805.21" y="918.79" width="5.13" height="2.98" class="up-body"/>
<line x1="815.66" y1="908.93" x2="815.66" y2="916.05" class="down-wick"/>
<rect x="813.10" y="912.10" width="5.13" height="1.11" class="down-body"/>
<line x1="823.55" y1="915.18" x2="823.55" y2="921.30" class="down-wick"/>
<rect x="820.99" y="917.06" width="5.13" height="1.40" class="down-body"/>
<line x1="831.45" y1="910.18" x2="831.45" y2="925.05" class="down-wick"/>
<rect x="828.88" y="910.23" width="5.13" height="13.77" class="down-body"/>
<line x1="839.34" y1="918.36" x2="839.34" y2="922.74" class="down-wick"/>
<rect x="836.77" y="919.42" width="5.13" height="1.97" class="down-body"/>
<line x1="847.23" y1="922.26" x2="847.23" y2="929.58" class="up-wick"/>
<rect x="844.66" y="922.36" width="5.13" height="6.31" class="up-body"/>
<line x1="855.12" y1="914.99" x2="855.12" y2="923.08" class="up-wick"/>
<rect x="852.55" y="916.00" width="5.13" height="5.63" class="up-body"/>
<line x1="863.01" y1="915.38" x2="863.01" y2="928.38" class="down-wick"/>
<rect x="860.44" y="915.38" width="5.13" height="9.05" class="down-body"/>
<line x1="870.90" y1="908.59" x2="870.90" y2="916.34" class="down-wick"/>
<rect x="868.33" y="910.95" width="5.13" height="3.47" class="down-body"/>
<line x1="878.79" y1="912.44" x2="878.79" y2="920.72" class="down-wick"/>
<rect x="876.22" y="912.44" width="5.13" height="1.59" class="down-body"/>
<line x1="886.68" y1="912.97" x2="886.68" y2="918.12" class="up-wick"/>
<rect x="884.12" y="915.67" width="5.13" height="1.06" class="up-body"/>
<line x1="894.57" y1="916.15" x2="894.57" y2="922.45" class="down-wick"/>
<rect x="892.01" y="916.72" width="5.13" height="5.10" class="down-body"/>
<line x1="902.46" y1="922.02" x2="902.46" y2="931.79" class="down-wick"/>
<rect x="899.90" y="923.56" width="5.13" height="7.75" class="down-body"/>
<line x1="910.35" y1="932.32" x2="910.35" y2="938.82" class="down-wick"/>
<rect x="907.79" y="934.49" width="5.13" height="1.69" class="down-body"/>
<line x1="918.24" y1="936.75" x2="918.24" y2="940.70" class="down-wick"/>
<rect x="915.68" y="938.29" width="5.13" height="1.35" class="down-body"/>
<line x1="926.13" y1="927.17" x2="926.13" y2="933.48" class="up-wick"/>
<rect x="923.57" y="928.90" width="5.13" height="3.42" class="up-body"/>
<line x1="934.02" y1="913.69" x2="934.02" y2="924.43" class="down-wick"/>
<rect x="931.46" y="916.92" width="5.13" height="1.00" class="down-body"/>
<line x1="941.91" y1="904.69" x2="941.91" y2="914.27" class="down-wick"/>
<rect x="939.35" y="910.32" width="5.13" height="3.95" class="down-body"/>
<line x1="949.80" y1="905.70" x2="949.80" y2="916.77" class="down-wick"/>
<rect x="947.24" y="905.89" width="5.13" height="6.21" class="down-body"/>
<line x1="957.70" y1="917.93" x2="957.70" y2="925.87" class="down-wick"/>
<rect x="955.13" y="918.07" width="5.13" height="6.88" class="down-body"/>
<line x1="965.59" y1="929.77" x2="965.59" y2="934.44" class="up-wick"/>
<rect x="963.02" y="929.96" width="5.13" height="1.20" class="up-body"/>
<line x1="973.48" y1="925.44" x2="973.48" y2="930.25" class="down-wick"/>
<rect x="970.91" y="925.44" width="5.13" height="2.60" class="down-body"/>
<line x1="981.37" y1="933.19" x2="981.37" y2="950.91" class="down-wick"/>
<rect x="978.80" y="935.74" width="5.13" height="12.04" class="down-body"/>
<line x1="989.26" y1="940.65" x2="989.26" y2="955.29" class="down-wick"/>
<rect x="986.69" y="942.58" width="5.13" height="6.55" class="down-body"/>
<line x1="997.15" y1="951.97" x2="997.15" y2="956.68" class="down-wick"/>
<rect x="994.58" y="955.62" width="5.13" height="1.00" class="down-body"/>
<line x1="1005.04" y1="961.50" x2="1005.04" y2="974.40" class="down-wick"/>
<rect x="1002.47" y="961.50" width="5.13" height="10.59" class="down-body"/>
<line x1="1012.93" y1="991.40" x2="1012.93" y2="1010.46" class="down-wick"/>
<rect x="1010.37" y="992.07" width="5.13" height="7.37" class="down-body"/>
<line x1="1020.82" y1="1003.82" x2="1020.82" y2="1023.70" class="down-wick"/>
<rect x="1018.26" y="1004.68" width="5.13" height="17.19" class="down-body"/>
<line x1="1028.71" y1="1014.12" x2="1028.71" y2="1024.76" class="up-wick"/>
<rect x="1026.15" y="1016.24" width="5.13" height="7.03" class="up-body"/>
<line x1="1036.60" y1="991.20" x2="1036.60" y2="999.00" class="up-wick"/>
<rect x="1034.04" y="994.72" width="5.13" height="2.84" class="up-body"/>
<line x1="1044.49" y1="975.84" x2="1044.49" y2="983.11" class="down-wick"/>
<rect x="1041.93" y="979.12" width="5.13" height="1.16" class="down-body"/>
<line x1="1052.38" y1="978.40" x2="1052.38" y2="984.56" class="down-wick"/>
<rect x="1049.82" y="981.33" width="5.13" height="3.18" class="down-body"/>
<line x1="1060.27" y1="981.72" x2="1060.27" y2="985.81" class="down-wick"/>
<rect x="1057.71" y="983.07" width="5.13" height="1.44" class="down-body"/>
<line x1="1068.16" y1="969.83" x2="1068.16" y2="976.33" class="up-wick"/>
<rect x="1065.60" y="971.90" width="5.13" height="4.43" class="up-body"/>
<line x1="1076.05" y1="972.33" x2="1076.05" y2="977.77" class="up-wick"/>
<rect x="1073.49" y="972.91" width="5.13" height="2.98" class="up-body"/>
<line x1="70" y1="905.89" x2="1080" y2="905.89" class="sweep-line"/>
<text x="1076" y="901.89" text-anchor="end" class="level-label">sweep 4691.21</text>
<line x1="70" y1="929.72" x2="1080" y2="929.72" class="entry-line"/>
<text x="1076" y="925.72" text-anchor="end" class="level-label">entry level 4686.26</text>
<text x="70" y="1056" class="axis-label">2026-04-28 01:00:00+00:00 to 2026-04-28 05:14:00+00:00</text>
<text x="1080" y="1056" text-anchor="end" class="axis-label">4663.77 - 4703.65</text>
</svg>