<svg xmlns="http://www.w3.org/2000/svg" width="1120" height="1054" viewBox="0 0 1120 1054">
<style>
text{font-family:Arial,Helvetica,sans-serif}.title{font-size:21px;font-weight:700;fill:#1f2937}.subtitle{font-size:12px;fill:#4b5563}.panel-title{font-size:15px;font-weight:700;fill:#111827}.muted{font-size:13px;fill:#6b7280}.plot-bg{fill:#f8fafc;stroke:#cbd5e1;stroke-width:1}.up-body{fill:#15803d;stroke:#14532d;stroke-width:.8}.down-body{fill:#b91c1c;stroke:#7f1d1d;stroke-width:.8}.up-wick{stroke:#14532d;stroke-width:1}.down-wick{stroke:#7f1d1d;stroke-width:1}.sweep-line{stroke:#7c3aed;stroke-width:1.6;stroke-dasharray:6 4}.number-line{stroke:#0f766e;stroke-width:1.4;stroke-dasharray:3 4}.entry-line{stroke:#2563eb;stroke-width:1.4}.sl-line{stroke:#dc2626;stroke-width:1.4}.tp-line{stroke:#16a34a;stroke-width:1.4}.level-label,.axis-label{font-size:11px;fill:#374151}
</style>
<text x="28" y="28" class="title">Adelin v2 visual review sample sample_187</text>
<text x="28" y="48" class="subtitle">Candidate windows are for visual labeling only and are not trade signals.</text>
<text x="560" y="48" class="subtitle" text-anchor="middle">NUMBER_THEORY_LEVEL_NEAR | ROUND_LEVEL_ENTRY_METADATA_AVAILABLE</text>
<text x="70" y="82" class="panel-title">H1 liquidity context</text>
<rect x="70" y="96" width="1010" height="192" class="plot-bg"/>
<line x1="77.89" y1="197.51" x2="77.89" y2="226.11" class="down-wick"/>
<rect x="73.89" y="207.63" width="8.00" height="1.57" class="down-body"/>
<line x1="93.67" y1="200.98" x2="93.67" y2="212.88" class="down-wick"/>
<rect x="89.67" y="209.20" width="8.00" height="1.00" class="down-body"/>
<line x1="109.45" y1="207.34" x2="109.45" y2="235.62" class="down-wick"/>
<rect x="105.45" y="209.51" width="8.00" height="9.96" class="down-body"/>
<line x1="125.23" y1="192.43" x2="125.23" y2="230.16" class="up-wick"/>
<rect x="121.23" y="216.71" width="8.00" height="2.76" class="up-body"/>
<line x1="141.02" y1="198.84" x2="141.02" y2="227.97" class="down-wick"/>
<rect x="137.02" y="216.72" width="8.00" height="4.89" class="down-body"/>
<line x1="156.80" y1="210.92" x2="156.80" y2="229.71" class="down-wick"/>
<rect x="152.80" y="221.62" width="8.00" height="3.66" class="down-body"/>
<line x1="172.58" y1="223.80" x2="172.58" y2="237.84" class="down-wick"/>
<rect x="168.58" y="225.27" width="8.00" height="8.10" class="down-body"/>
<line x1="188.36" y1="222.78" x2="188.36" y2="262.73" class="down-wick"/>
<rect x="184.36" y="233.35" width="8.00" height="24.31" class="down-body"/>
<line x1="204.14" y1="223.14" x2="204.14" y2="261.40" class="up-wick"/>
<rect x="200.14" y="225.65" width="8.00" height="32.00" class="up-body"/>
<line x1="219.92" y1="223.28" x2="219.92" y2="242.86" class="down-wick"/>
<rect x="215.92" y="225.65" width="8.00" height="12.97" class="down-body"/>
<line x1="235.70" y1="225.23" x2="235.70" y2="243.04" class="down-wick"/>
<rect x="231.70" y="238.63" width="8.00" height="1.00" class="down-body"/>
<line x1="251.48" y1="236.02" x2="251.48" y2="259.71" class="down-wick"/>
<rect x="247.48" y="238.98" width="8.00" height="13.13" class="down-body"/>
<line x1="267.27" y1="239.02" x2="267.27" y2="252.67" class="up-wick"/>
<rect x="263.27" y="243.36" width="8.00" height="8.76" class="up-body"/>
<line x1="283.05" y1="226.94" x2="283.05" y2="243.36" class="up-wick"/>
<rect x="279.05" y="230.42" width="8.00" height="12.94" class="up-body"/>
<line x1="298.83" y1="197.81" x2="298.83" y2="239.02" class="up-wick"/>
<rect x="294.83" y="199.20" width="8.00" height="31.22" class="up-body"/>
<line x1="314.61" y1="139.63" x2="314.61" y2="200.82" class="up-wick"/>
<rect x="310.61" y="154.73" width="8.00" height="44.47" class="up-body"/>
<line x1="330.39" y1="151.97" x2="330.39" y2="180.32" class="down-wick"/>
<rect x="326.39" y="154.73" width="8.00" height="13.16" class="down-body"/>
<line x1="346.17" y1="152.35" x2="346.17" y2="171.18" class="up-wick"/>
<rect x="342.17" y="159.84" width="8.00" height="8.05" class="up-body"/>
<line x1="361.95" y1="158.16" x2="361.95" y2="189.29" class="down-wick"/>
<rect x="357.95" y="159.69" width="8.00" height="19.26" class="down-body"/>
<line x1="377.73" y1="169.05" x2="377.73" y2="179.69" class="up-wick"/>
<rect x="373.73" y="170.18" width="8.00" height="8.77" class="up-body"/>
<line x1="393.52" y1="163.18" x2="393.52" y2="173.38" class="up-wick"/>
<rect x="389.52" y="168.61" width="8.00" height="1.64" class="up-body"/>
<line x1="409.30" y1="154.88" x2="409.30" y2="171.69" class="up-wick"/>
<rect x="405.30" y="158.06" width="8.00" height="10.55" class="up-body"/>
<line x1="425.08" y1="131.69" x2="425.08" y2="156.09" class="up-wick"/>
<rect x="421.08" y="136.87" width="8.00" height="18.63" class="up-body"/>
<line x1="440.86" y1="113.71" x2="440.86" y2="142.70" class="up-wick"/>
<rect x="436.86" y="116.73" width="8.00" height="20.14" class="up-body"/>
<line x1="456.64" y1="109.24" x2="456.64" y2="139.61" class="down-wick"/>
<rect x="452.64" y="116.73" width="8.00" height="22.05" class="down-body"/>
<line x1="472.42" y1="131.18" x2="472.42" y2="174.35" class="down-wick"/>
<rect x="468.42" y="138.94" width="8.00" height="27.03" class="down-body"/>
<line x1="488.20" y1="157.60" x2="488.20" y2="171.91" class="up-wick"/>
<rect x="484.20" y="162.36" width="8.00" height="3.60" class="up-body"/>
<line x1="503.98" y1="158.44" x2="503.98" y2="176.98" class="down-wick"/>
<rect x="499.98" y="162.42" width="8.00" height="12.02" class="down-body"/>
<line x1="519.77" y1="161.95" x2="519.77" y2="185.27" class="down-wick"/>
<rect x="515.77" y="174.48" width="8.00" height="7.31" class="down-body"/>
<line x1="535.55" y1="172.13" x2="535.55" y2="188.62" class="up-wick"/>
<rect x="531.55" y="181.65" width="8.00" height="1.00" class="up-body"/>
<line x1="551.33" y1="181.48" x2="551.33" y2="206.02" class="down-wick"/>
<rect x="547.33" y="181.65" width="8.00" height="21.23" class="down-body"/>
<line x1="567.11" y1="194.54" x2="567.11" y2="215.33" class="up-wick"/>
<rect x="563.11" y="199.34" width="8.00" height="3.54" class="up-body"/>
<line x1="582.89" y1="190.85" x2="582.89" y2="202.73" class="up-wick"/>
<rect x="578.89" y="194.98" width="8.00" height="4.36" class="up-body"/>
<line x1="598.67" y1="192.65" x2="598.67" y2="206.20" class="down-wick"/>
<rect x="594.67" y="194.96" width="8.00" height="4.84" class="down-body"/>
<line x1="614.45" y1="188.90" x2="614.45" y2="217.36" class="down-wick"/>
<rect x="610.45" y="199.84" width="8.00" height="6.17" class="down-body"/>
<line x1="630.23" y1="187.91" x2="630.23" y2="214.89" class="up-wick"/>
<rect x="626.23" y="190.98" width="8.00" height="15.03" class="up-body"/>
<line x1="646.02" y1="184.67" x2="646.02" y2="211.92" class="down-wick"/>
<rect x="642.02" y="190.98" width="8.00" height="1.14" class="down-body"/>
<line x1="661.80" y1="188.06" x2="661.80" y2="227.50" class="down-wick"/>
<rect x="657.80" y="192.18" width="8.00" height="32.25" class="down-body"/>
<line x1="677.58" y1="205.22" x2="677.58" y2="236.30" class="down-wick"/>
<rect x="673.58" y="224.43" width="8.00" height="7.99" class="down-body"/>
<line x1="693.36" y1="228.39" x2="693.36" y2="274.76" class="down-wick"/>
<rect x="689.36" y="232.47" width="8.00" height="8.22" class="down-body"/>
<line x1="709.14" y1="229.75" x2="709.14" y2="243.04" class="up-wick"/>
<rect x="705.14" y="234.54" width="8.00" height="6.15" class="up-body"/>
<line x1="724.92" y1="220.71" x2="724.92" y2="234.54" class="up-wick"/>
<rect x="720.92" y="225.10" width="8.00" height="9.43" class="up-body"/>
<line x1="740.70" y1="201.36" x2="740.70" y2="228.25" class="up-wick"/>
<rect x="736.70" y="204.03" width="8.00" height="21.04" class="up-body"/>
<line x1="756.48" y1="179.86" x2="756.48" y2="204.03" class="up-wick"/>
<rect x="752.48" y="179.94" width="8.00" height="24.09" class="up-body"/>
<line x1="772.27" y1="171.80" x2="772.27" y2="186.29" class="up-wick"/>
<rect x="768.27" y="178.41" width="8.00" height="1.97" class="up-body"/>
<line x1="788.05" y1="169.92" x2="788.05" y2="180.32" class="up-wick"/>
<rect x="784.05" y="178.35" width="8.00" height="1.00" class="up-body"/>
<line x1="803.83" y1="166.10" x2="803.83" y2="181.94" class="down-wick"/>
<rect x="799.83" y="178.33" width="8.00" height="3.01" class="down-body"/>
<line x1="819.61" y1="178.18" x2="819.61" y2="197.83" class="down-wick"/>
<rect x="815.61" y="181.34" width="8.00" height="14.79" class="down-body"/>
<line x1="835.39" y1="189.83" x2="835.39" y2="214.42" class="down-wick"/>
<rect x="831.39" y="196.13" width="8.00" height="13.00" class="down-body"/>
<line x1="851.17" y1="192.00" x2="851.17" y2="212.77" class="up-wick"/>
<rect x="847.17" y="204.09" width="8.00" height="5.04" class="up-body"/>
<line x1="866.95" y1="195.06" x2="866.95" y2="204.73" class="up-wick"/>
<rect x="862.95" y="199.58" width="8.00" height="4.56" class="up-body"/>
<line x1="882.73" y1="190.20" x2="882.73" y2="206.91" class="up-wick"/>
<rect x="878.73" y="194.19" width="8.00" height="5.37" class="up-body"/>
<line x1="898.52" y1="180.31" x2="898.52" y2="200.23" class="down-wick"/>
<rect x="894.52" y="194.19" width="8.00" height="2.89" class="down-body"/>
<line x1="914.30" y1="188.40" x2="914.30" y2="203.22" class="up-wick"/>
<rect x="910.30" y="195.64" width="8.00" height="1.38" class="up-body"/>
<line x1="930.08" y1="193.92" x2="930.08" y2="206.02" class="down-wick"/>
<rect x="926.08" y="195.79" width="8.00" height="2.65" class="down-body"/>
<line x1="945.86" y1="196.96" x2="945.86" y2="216.33" class="up-wick"/>
<rect x="941.86" y="198.08" width="8.00" height="1.00" class="up-body"/>
<line x1="961.64" y1="186.39" x2="961.64" y2="206.89" class="down-wick"/>
<rect x="957.64" y="198.08" width="8.00" height="8.25" class="down-body"/>
<line x1="977.42" y1="192.54" x2="977.42" y2="209.56" class="up-wick"/>
<rect x="973.42" y="202.34" width="8.00" height="3.99" class="up-body"/>
<line x1="993.20" y1="197.24" x2="993.20" y2="228.44" class="down-wick"/>
<rect x="989.20" y="202.34" width="8.00" height="16.64" class="down-body"/>
<line x1="1008.98" y1="205.64" x2="1008.98" y2="236.62" class="down-wick"/>
<rect x="1004.98" y="218.99" width="8.00" height="5.49" class="down-body"/>
<line x1="1024.77" y1="210.19" x2="1024.77" y2="232.39" class="up-wick"/>
<rect x="1020.77" y="223.98" width="8.00" height="1.00" class="up-body"/>
<line x1="1040.55" y1="199.15" x2="1040.55" y2="224.99" class="up-wick"/>
<rect x="1036.55" y="204.66" width="8.00" height="19.32" class="up-body"/>
<line x1="1056.33" y1="187.09" x2="1056.33" y2="205.31" class="up-wick"/>
<rect x="1052.33" y="204.50" width="8.00" height="1.00" class="up-body"/>
<line x1="1072.11" y1="197.60" x2="1072.11" y2="218.07" class="down-wick"/>
<rect x="1068.11" y="204.50" width="8.00" height="12.35" class="down-body"/>
<line x1="70" y1="223.69" x2="1080" y2="223.69" class="number-line"/>
<text x="1076" y="219.69" text-anchor="end" class="level-label">round 4680.00</text>
<line x1="70" y1="223.69" x2="1080" y2="223.69" class="entry-line"/>
<text x="1076" y="219.69" text-anchor="end" class="level-label">entry level 4680.00</text>
<text x="70" y="306" class="axis-label">2026-05-11 01:00:00+00:00 to 2026-05-13 20:00:00+00:00</text>
<text x="1080" y="306" text-anchor="end" class="axis-label">4627.51 - 4784.23</text>
<text x="70" y="332" class="panel-title">M15 liquidity / reaction context</text>
<rect x="70" y="346" width="1010" height="192" class="plot-bg"/>
<line x1="77.77" y1="362.72" x2="77.77" y2="380.15" class="down-wick"/>
<rect x="73.77" y="375.74" width="8.00" height="1.00" class="down-body"/>
<line x1="93.31" y1="366.46" x2="93.31" y2="385.95" class="down-wick"/>
<rect x="89.31" y="376.22" width="8.00" height="1.53" class="down-body"/>
<line x1="108.85" y1="377.48" x2="108.85" y2="399.92" class="down-wick"/>
<rect x="104.85" y="377.75" width="8.00" height="17.72" class="down-body"/>
<line x1="124.38" y1="391.99" x2="124.38" y2="414.81" class="down-wick"/>
<rect x="120.38" y="395.55" width="8.00" height="17.58" class="down-body"/>
<line x1="139.92" y1="396.17" x2="139.92" y2="414.56" class="up-wick"/>
<rect x="135.92" y="400.65" width="8.00" height="12.48" class="up-body"/>
<line x1="155.46" y1="397.04" x2="155.46" y2="416.23" class="down-wick"/>
<rect x="151.46" y="400.65" width="8.00" height="10.62" class="down-body"/>
<line x1="171.00" y1="408.68" x2="171.00" y2="430.93" class="down-wick"/>
<rect x="167.00" y="411.27" width="8.00" height="2.17" class="down-body"/>
<line x1="186.54" y1="406.09" x2="186.54" y2="417.17" class="up-wick"/>
<rect x="182.54" y="409.46" width="8.00" height="3.98" class="up-body"/>
<line x1="202.08" y1="400.58" x2="202.08" y2="413.94" class="up-wick"/>
<rect x="198.08" y="404.64" width="8.00" height="4.82" class="up-body"/>
<line x1="217.62" y1="398.10" x2="217.62" y2="409.86" class="down-wick"/>
<rect x="213.62" y="404.64" width="8.00" height="1.04" class="down-body"/>
<line x1="233.15" y1="392.28" x2="233.15" y2="406.96" class="down-wick"/>
<rect x="229.15" y="405.68" width="8.00" height="1.00" class="down-body"/>
<line x1="248.69" y1="397.46" x2="248.69" y2="411.04" class="up-wick"/>
<rect x="244.69" y="399.82" width="8.00" height="6.38" class="up-body"/>
<line x1="264.23" y1="396.81" x2="264.23" y2="409.15" class="down-wick"/>
<rect x="260.23" y="399.61" width="8.00" height="5.69" class="down-body"/>
<line x1="279.77" y1="392.51" x2="279.77" y2="407.33" class="up-wick"/>
<rect x="275.77" y="398.80" width="8.00" height="6.50" class="up-body"/>
<line x1="295.31" y1="398.78" x2="295.31" y2="409.38" class="down-wick"/>
<rect x="291.31" y="398.78" width="8.00" height="10.48" class="down-body"/>
<line x1="310.85" y1="400.87" x2="310.85" y2="410.09" class="up-wick"/>
<rect x="306.85" y="405.97" width="8.00" height="3.29" class="up-body"/>
<line x1="326.38" y1="395.12" x2="326.38" y2="416.23" class="down-wick"/>
<rect x="322.38" y="405.97" width="8.00" height="8.45" class="down-body"/>
<line x1="341.92" y1="402.34" x2="341.92" y2="416.52" class="up-wick"/>
<rect x="337.92" y="406.42" width="8.00" height="8.01" class="up-body"/>
<line x1="357.46" y1="389.20" x2="357.46" y2="407.75" class="up-wick"/>
<rect x="353.46" y="395.82" width="8.00" height="10.66" class="up-body"/>
<line x1="373.00" y1="395.16" x2="373.00" y2="407.48" class="down-wick"/>
<rect x="369.00" y="395.84" width="8.00" height="9.28" class="down-body"/>
<line x1="388.54" y1="404.95" x2="388.54" y2="434.14" class="down-wick"/>
<rect x="384.54" y="405.12" width="8.00" height="18.38" class="down-body"/>
<line x1="404.08" y1="416.21" x2="404.08" y2="425.14" class="up-wick"/>
<rect x="400.08" y="416.23" width="8.00" height="7.25" class="up-body"/>
<line x1="419.62" y1="409.07" x2="419.62" y2="430.23" class="down-wick"/>
<rect x="415.62" y="416.23" width="8.00" height="5.26" class="down-body"/>
<line x1="435.15" y1="404.89" x2="435.15" y2="421.68" class="up-wick"/>
<rect x="431.15" y="405.32" width="8.00" height="16.17" class="up-body"/>
<line x1="450.69" y1="393.63" x2="450.69" y2="409.63" class="up-wick"/>
<rect x="446.69" y="397.08" width="8.00" height="8.24" class="up-body"/>
<line x1="466.23" y1="387.64" x2="466.23" y2="400.38" class="up-wick"/>
<rect x="462.23" y="392.49" width="8.00" height="4.58" class="up-body"/>
<line x1="481.77" y1="389.45" x2="481.77" y2="408.43" class="down-wick"/>
<rect x="477.77" y="392.49" width="8.00" height="1.84" class="down-body"/>
<line x1="497.31" y1="389.22" x2="497.31" y2="415.03" class="down-wick"/>
<rect x="493.31" y="394.33" width="8.00" height="16.52" class="down-body"/>
<line x1="512.85" y1="388.66" x2="512.85" y2="425.55" class="up-wick"/>
<rect x="508.85" y="400.00" width="8.00" height="10.85" class="up-body"/>
<line x1="528.38" y1="382.53" x2="528.38" y2="404.43" class="up-wick"/>
<rect x="524.38" y="394.29" width="8.00" height="5.71" class="up-body"/>
<line x1="543.92" y1="387.87" x2="543.92" y2="429.80" class="down-wick"/>
<rect x="539.92" y="394.39" width="8.00" height="32.34" class="down-body"/>
<line x1="559.46" y1="414.19" x2="559.46" y2="445.09" class="up-wick"/>
<rect x="555.46" y="423.09" width="8.00" height="3.64" class="up-body"/>
<line x1="575.00" y1="402.22" x2="575.00" y2="437.23" class="up-wick"/>
<rect x="571.00" y="407.06" width="8.00" height="16.04" class="up-body"/>
<line x1="590.54" y1="402.51" x2="590.54" y2="450.15" class="down-wick"/>
<rect x="586.54" y="407.06" width="8.00" height="38.24" class="down-body"/>
<line x1="606.08" y1="414.97" x2="606.08" y2="451.99" class="up-wick"/>
<rect x="602.08" y="419.30" width="8.00" height="26.00" class="up-body"/>
<line x1="621.62" y1="416.84" x2="621.62" y2="439.36" class="down-wick"/>
<rect x="617.62" y="419.22" width="8.00" height="18.63" class="down-body"/>
<line x1="637.15" y1="428.76" x2="637.15" y2="460.35" class="up-wick"/>
<rect x="633.15" y="432.76" width="8.00" height="5.09" class="up-body"/>
<line x1="652.69" y1="432.86" x2="652.69" y2="464.04" class="down-wick"/>
<rect x="648.69" y="432.86" width="8.00" height="25.05" class="down-body"/>
<line x1="668.23" y1="451.55" x2="668.23" y2="474.66" class="down-wick"/>
<rect x="664.23" y="457.99" width="8.00" height="16.23" class="down-body"/>
<line x1="683.77" y1="470.70" x2="683.77" y2="524.76" class="down-wick"/>
<rect x="679.77" y="474.22" width="8.00" height="16.23" class="down-body"/>
<line x1="699.31" y1="466.59" x2="699.31" y2="494.58" class="up-wick"/>
<rect x="695.31" y="471.88" width="8.00" height="18.57" class="up-body"/>
<line x1="714.85" y1="463.34" x2="714.85" y2="474.06" class="up-wick"/>
<rect x="710.85" y="470.97" width="8.00" height="1.00" class="up-body"/>
<line x1="730.38" y1="457.33" x2="730.38" y2="474.68" class="up-wick"/>
<rect x="726.38" y="459.81" width="8.00" height="11.16" class="up-body"/>
<line x1="745.92" y1="453.69" x2="745.92" y2="470.64" class="down-wick"/>
<rect x="741.92" y="459.79" width="8.00" height="7.02" class="down-body"/>
<line x1="761.46" y1="460.33" x2="761.46" y2="472.90" class="up-wick"/>
<rect x="757.46" y="463.91" width="8.00" height="2.77" class="up-body"/>
<line x1="777.00" y1="455.30" x2="777.00" y2="469.65" class="up-wick"/>
<rect x="773.00" y="461.26" width="8.00" height="2.65" class="up-body"/>
<line x1="792.54" y1="444.87" x2="792.54" y2="461.26" class="up-wick"/>
<rect x="788.54" y="449.57" width="8.00" height="11.68" class="up-body"/>
<line x1="808.08" y1="439.42" x2="808.08" y2="450.00" class="up-wick"/>
<rect x="804.08" y="445.49" width="8.00" height="4.08" class="up-body"/>
<line x1="823.62" y1="442.78" x2="823.62" y2="451.51" class="up-wick"/>
<rect x="819.62" y="444.74" width="8.00" height="1.00" class="up-body"/>
<line x1="839.15" y1="442.94" x2="839.15" y2="448.41" class="down-wick"/>
<rect x="835.15" y="444.80" width="8.00" height="1.57" class="down-body"/>
<line x1="854.69" y1="437.17" x2="854.69" y2="451.33" class="up-wick"/>
<rect x="850.69" y="441.56" width="8.00" height="4.74" class="up-body"/>
<line x1="870.23" y1="429.07" x2="870.23" y2="444.06" class="up-wick"/>
<rect x="866.23" y="433.29" width="8.00" height="8.20" class="up-body"/>
<line x1="885.77" y1="410.17" x2="885.77" y2="434.31" class="up-wick"/>
<rect x="881.77" y="414.47" width="8.00" height="18.82" class="up-body"/>
<line x1="901.31" y1="408.88" x2="901.31" y2="423.31" class="up-wick"/>
<rect x="897.31" y="413.09" width="8.00" height="1.37" class="up-body"/>
<line x1="916.85" y1="400.09" x2="916.85" y2="413.09" class="up-wick"/>
<rect x="912.85" y="405.51" width="8.00" height="7.58" class="up-body"/>
<line x1="932.38" y1="396.67" x2="932.38" y2="407.19" class="up-wick"/>
<rect x="928.38" y="398.49" width="8.00" height="7.02" class="up-body"/>
<line x1="947.92" y1="384.83" x2="947.92" y2="398.49" class="up-wick"/>
<rect x="943.92" y="387.10" width="8.00" height="11.39" class="up-body"/>
<line x1="963.46" y1="374.93" x2="963.46" y2="387.66" class="up-wick"/>
<rect x="959.46" y="375.06" width="8.00" height="12.03" class="up-body"/>
<line x1="979.00" y1="365.70" x2="979.00" y2="385.08" class="down-wick"/>
<rect x="975.00" y="375.76" width="8.00" height="1.70" class="down-body"/>
<line x1="994.54" y1="367.89" x2="994.54" y2="379.22" class="up-wick"/>
<rect x="990.54" y="372.34" width="8.00" height="5.13" class="up-body"/>
<line x1="1010.08" y1="365.99" x2="1010.08" y2="375.37" class="down-wick"/>
<rect x="1006.08" y="372.41" width="8.00" height="1.12" class="down-body"/>
<line x1="1025.62" y1="362.20" x2="1025.62" y2="373.57" class="up-wick"/>
<rect x="1021.62" y="372.65" width="8.00" height="1.00" class="up-body"/>
<line x1="1041.15" y1="360.69" x2="1041.15" y2="374.75" class="up-wick"/>
<rect x="1037.15" y="371.08" width="8.00" height="1.57" class="up-body"/>
<line x1="1056.69" y1="359.24" x2="1056.69" y2="371.58" class="up-wick"/>
<rect x="1052.69" y="365.93" width="8.00" height="5.15" class="up-body"/>
<line x1="1072.23" y1="363.03" x2="1072.23" y2="373.67" class="up-wick"/>
<rect x="1068.23" y="364.35" width="8.00" height="1.59" class="up-body"/>
<line x1="70" y1="444.14" x2="1080" y2="444.14" class="number-line"/>
<text x="1076" y="440.14" text-anchor="end" class="level-label">round 4680.00</text>
<line x1="70" y1="444.14" x2="1080" y2="444.14" class="entry-line"/>
<text x="1076" y="440.14" text-anchor="end" class="level-label">entry level 4680.00</text>
<text x="70" y="556" class="axis-label">2026-05-12 08:30:00+00:00 to 2026-05-13 02:30:00+00:00</text>
<text x="1080" y="556" text-anchor="end" class="axis-label">4631.47 - 4730.74</text>
<text x="70" y="582" class="panel-title">M5 reaction / execution context</text>
<rect x="70" y="596" width="1010" height="192" class="plot-bg"/>
<line x1="80.52" y1="750.94" x2="80.52" y2="774.76" class="up-wick"/>
<rect x="76.52" y="753.32" width="8.00" height="15.28" class="up-body"/>
<line x1="101.56" y1="751.39" x2="101.56" y2="761.09" class="down-wick"/>
<rect x="97.56" y="753.32" width="8.00" height="5.91" class="down-body"/>
<line x1="122.60" y1="745.97" x2="122.60" y2="761.34" class="up-wick"/>
<rect x="118.60" y="750.08" width="8.00" height="9.28" class="up-body"/>
<line x1="143.65" y1="739.93" x2="143.65" y2="753.45" class="down-wick"/>
<rect x="139.65" y="750.04" width="8.00" height="1.00" class="down-body"/>
<line x1="164.69" y1="746.61" x2="164.69" y2="766.29" class="down-wick"/>
<rect x="160.69" y="750.69" width="8.00" height="13.29" class="down-body"/>
<line x1="185.73" y1="757.36" x2="185.73" y2="768.05" class="up-wick"/>
<rect x="181.73" y="761.70" width="8.00" height="2.44" class="up-body"/>
<line x1="206.77" y1="759.83" x2="206.77" y2="771.81" class="up-wick"/>
<rect x="202.77" y="761.21" width="8.00" height="1.00" class="up-body"/>
<line x1="227.81" y1="754.25" x2="227.81" y2="764.30" class="up-wick"/>
<rect x="223.81" y="754.80" width="8.00" height="6.42" class="up-body"/>
<line x1="248.85" y1="750.94" x2="248.85" y2="761.76" class="down-wick"/>
<rect x="244.85" y="754.80" width="8.00" height="2.09" class="down-body"/>
<line x1="269.90" y1="754.89" x2="269.90" y2="766.41" class="up-wick"/>
<rect x="265.90" y="756.72" width="8.00" height="1.00" class="up-body"/>
<line x1="290.94" y1="748.92" x2="290.94" y2="761.44" class="up-wick"/>
<rect x="286.94" y="755.69" width="8.00" height="1.09" class="up-body"/>
<line x1="311.98" y1="742.60" x2="311.98" y2="757.56" class="up-wick"/>
<rect x="307.98" y="752.48" width="8.00" height="3.21" class="up-body"/>
<line x1="333.02" y1="731.14" x2="333.02" y2="752.48" class="up-wick"/>
<rect x="329.02" y="736.34" width="8.00" height="16.14" class="up-body"/>
<line x1="354.06" y1="725.30" x2="354.06" y2="737.59" class="up-wick"/>
<rect x="350.06" y="729.54" width="8.00" height="6.80" class="up-body"/>
<line x1="375.10" y1="727.32" x2="375.10" y2="740.80" class="down-wick"/>
<rect x="371.10" y="729.44" width="8.00" height="3.66" class="down-body"/>
<line x1="396.15" y1="721.16" x2="396.15" y2="733.80" class="up-wick"/>
<rect x="392.15" y="723.73" width="8.00" height="9.37" class="up-body"/>
<line x1="417.19" y1="720.29" x2="417.19" y2="726.23" class="up-wick"/>
<rect x="413.19" y="722.73" width="8.00" height="1.00" class="up-body"/>
<line x1="438.23" y1="716.25" x2="438.23" y2="728.03" class="down-wick"/>
<rect x="434.23" y="722.64" width="8.00" height="3.69" class="down-body"/>
<line x1="459.27" y1="723.63" x2="459.27" y2="734.54" class="down-wick"/>
<rect x="455.27" y="726.33" width="8.00" height="1.77" class="down-body"/>
<line x1="480.31" y1="727.22" x2="480.31" y2="736.31" class="up-wick"/>
<rect x="476.31" y="727.55" width="8.00" height="1.00" class="up-body"/>
<line x1="501.35" y1="721.83" x2="501.35" y2="732.65" class="up-wick"/>
<rect x="497.35" y="725.07" width="8.00" height="2.47" class="up-body"/>
<line x1="522.40" y1="724.08" x2="522.40" y2="730.34" class="down-wick"/>
<rect x="518.40" y="725.17" width="8.00" height="3.50" class="down-body"/>
<line x1="543.44" y1="723.73" x2="543.44" y2="731.17" class="up-wick"/>
<rect x="539.44" y="725.14" width="8.00" height="3.37" class="up-body"/>
<line x1="564.48" y1="722.09" x2="564.48" y2="730.31" class="down-wick"/>
<rect x="560.48" y="725.11" width="8.00" height="2.66" class="down-body"/>
<line x1="585.52" y1="712.53" x2="585.52" y2="730.43" class="down-wick"/>
<rect x="581.52" y="727.67" width="8.00" height="1.00" class="down-body"/>
<line x1="606.56" y1="723.05" x2="606.56" y2="736.02" class="up-wick"/>
<rect x="602.56" y="723.60" width="8.00" height="4.33" class="up-body"/>
<line x1="627.60" y1="718.56" x2="627.60" y2="730.15" class="up-wick"/>
<rect x="623.60" y="719.81" width="8.00" height="3.79" class="up-body"/>
<line x1="648.65" y1="715.57" x2="648.65" y2="723.95" class="up-wick"/>
<rect x="644.65" y="716.44" width="8.00" height="3.24" class="up-body"/>
<line x1="669.69" y1="709.35" x2="669.69" y2="717.21" class="up-wick"/>
<rect x="665.69" y="715.64" width="8.00" height="1.00" class="up-body"/>
<line x1="690.73" y1="699.08" x2="690.73" y2="715.64" class="up-wick"/>
<rect x="686.73" y="706.07" width="8.00" height="9.56" class="up-body"/>
<line x1="711.77" y1="690.41" x2="711.77" y2="707.78" class="up-wick"/>
<rect x="707.77" y="691.28" width="8.00" height="14.80" class="up-body"/>
<line x1="732.81" y1="682.03" x2="732.81" y2="694.13" class="up-wick"/>
<rect x="728.81" y="687.75" width="8.00" height="3.59" class="up-body"/>
<line x1="753.85" y1="667.72" x2="753.85" y2="689.26" class="up-wick"/>
<rect x="749.85" y="674.84" width="8.00" height="12.90" class="up-body"/>
<line x1="774.90" y1="673.43" x2="774.90" y2="689.51" class="down-wick"/>
<rect x="770.90" y="674.84" width="8.00" height="12.39" class="down-body"/>
<line x1="795.94" y1="665.57" x2="795.94" y2="687.27" class="up-wick"/>
<rect x="791.94" y="669.48" width="8.00" height="17.78" class="up-body"/>
<line x1="816.98" y1="667.01" x2="816.98" y2="674.40" class="down-wick"/>
<rect x="812.98" y="669.52" width="8.00" height="3.05" class="down-body"/>
<line x1="838.02" y1="661.88" x2="838.02" y2="672.57" class="up-wick"/>
<rect x="834.02" y="668.78" width="8.00" height="3.79" class="up-body"/>
<line x1="859.06" y1="658.89" x2="859.06" y2="671.41" class="up-wick"/>
<rect x="855.06" y="663.58" width="8.00" height="5.46" class="up-body"/>
<line x1="880.10" y1="651.00" x2="880.10" y2="665.31" class="up-wick"/>
<rect x="876.10" y="659.98" width="8.00" height="3.69" class="up-body"/>
<line x1="901.15" y1="651.38" x2="901.15" y2="662.78" class="up-wick"/>
<rect x="897.15" y="652.70" width="8.00" height="7.29" class="up-body"/>
<line x1="922.19" y1="647.50" x2="922.19" y2="659.54" class="up-wick"/>
<rect x="918.19" y="650.23" width="8.00" height="2.47" class="up-body"/>
<line x1="943.23" y1="645.32" x2="943.23" y2="651.16" class="up-wick"/>
<rect x="939.23" y="648.33" width="8.00" height="1.89" class="up-body"/>
<line x1="964.27" y1="629.46" x2="964.27" y2="648.33" class="up-wick"/>
<rect x="960.27" y="631.03" width="8.00" height="17.30" class="up-body"/>
<line x1="985.31" y1="625.67" x2="985.31" y2="632.99" class="down-wick"/>
<rect x="981.31" y="631.00" width="8.00" height="1.80" class="down-body"/>
<line x1="1006.35" y1="628.21" x2="1006.35" y2="636.55" class="up-wick"/>
<rect x="1002.35" y="629.43" width="8.00" height="3.34" class="up-body"/>
<line x1="1027.40" y1="625.13" x2="1027.40" y2="630.36" class="up-wick"/>
<rect x="1023.40" y="628.11" width="8.00" height="1.32" class="up-body"/>
<line x1="1048.44" y1="614.99" x2="1048.44" y2="629.37" class="up-wick"/>
<rect x="1044.44" y="619.42" width="8.00" height="8.73" class="up-body"/>
<line x1="1069.48" y1="609.24" x2="1069.48" y2="620.38" class="up-wick"/>
<rect x="1065.48" y="609.47" width="8.00" height="9.95" class="up-body"/>
<line x1="70" y1="724.08" x2="1080" y2="724.08" class="number-line"/>
<text x="1076" y="720.08" text-anchor="end" class="level-label">round 4680.00</text>
<line x1="70" y1="724.08" x2="1080" y2="724.08" class="entry-line"/>
<text x="1076" y="720.08" text-anchor="end" class="level-label">entry level 4680.00</text>
<text x="70" y="806" class="axis-label">2026-05-12 19:00:00+00:00 to 2026-05-12 22:55:00+00:00</text>
<text x="1080" y="806" text-anchor="end" class="axis-label">4660.08 - 4719.91</text>
<text x="70" y="832" class="panel-title">M1 execution window</text>
<rect x="70" y="846" width="1010" height="192" class="plot-bg"/>
<line x1="74.21" y1="1007.76" x2="74.21" y2="1024.76" class="up-wick"/>
<rect x="71.47" y="1007.76" width="5.47" height="10.71" class="up-body"/>
<line x1="82.62" y1="1003.48" x2="82.62" y2="1008.71" class="down-wick"/>
<rect x="79.89" y="1005.11" width="5.47" height="1.00" class="down-body"/>
<line x1="91.04" y1="1000.46" x2="91.04" y2="1007.24" class="up-wick"/>
<rect x="88.31" y="1002.89" width="5.47" height="4.35" class="up-body"/>
<line x1="99.46" y1="1003.08" x2="99.46" y2="1008.88" class="down-wick"/>
<rect x="96.72" y="1004.95" width="5.47" height="3.01" class="down-body"/>
<line x1="107.88" y1="1005.34" x2="107.88" y2="1010.81" class="down-wick"/>
<rect x="105.14" y="1005.96" width="5.47" height="1.24" class="down-body"/>
<line x1="116.29" y1="1005.57" x2="116.29" y2="1011.07" class="up-wick"/>
<rect x="113.56" y="1006.36" width="5.47" height="2.68" class="up-body"/>
<line x1="124.71" y1="1000.56" x2="124.71" y2="1004.10" class="up-wick"/>
<rect x="121.97" y="1001.64" width="5.47" height="2.26" class="up-body"/>
<line x1="133.12" y1="995.39" x2="133.12" y2="1000.73" class="down-wick"/>
<rect x="130.39" y="995.98" width="5.47" height="3.60" class="down-body"/>
<line x1="141.54" y1="989.23" x2="141.54" y2="997.58" class="up-wick"/>
<rect x="138.81" y="991.95" width="5.47" height="5.24" class="up-body"/>
<line x1="149.96" y1="992.57" x2="149.96" y2="999.78" class="down-wick"/>
<rect x="147.22" y="994.73" width="5.47" height="4.81" class="down-body"/>
<line x1="158.38" y1="996.11" x2="158.38" y2="1001.51" class="up-wick"/>
<rect x="155.64" y="997.35" width="5.47" height="2.85" class="up-body"/>
<line x1="166.79" y1="1000.92" x2="166.79" y2="1006.39" class="down-wick"/>
<rect x="164.06" y="1004.26" width="5.47" height="1.00" class="down-body"/>
<line x1="175.21" y1="1009.27" x2="175.21" y2="1016.11" class="down-wick"/>
<rect x="172.47" y="1012.09" width="5.47" height="1.67" class="down-body"/>
<line x1="183.62" y1="1010.65" x2="183.62" y2="1016.05" class="down-wick"/>
<rect x="180.89" y="1012.64" width="5.47" height="2.65" class="down-body"/>
<line x1="192.04" y1="1007.47" x2="192.04" y2="1011.40" class="up-wick"/>
<rect x="189.31" y="1007.57" width="5.47" height="2.65" class="up-body"/>
<line x1="200.46" y1="1009.53" x2="200.46" y2="1017.46" class="down-wick"/>
<rect x="197.72" y="1011.20" width="5.47" height="4.22" class="down-body"/>
<line x1="208.88" y1="1011.07" x2="208.88" y2="1021.75" class="up-wick"/>
<rect x="206.14" y="1013.13" width="5.47" height="4.22" class="up-body"/>
<line x1="217.29" y1="1010.91" x2="217.29" y2="1016.28" class="up-wick"/>
<rect x="214.56" y="1010.94" width="5.47" height="4.94" class="up-body"/>
<line x1="225.71" y1="1004.06" x2="225.71" y2="1011.76" class="up-wick"/>
<rect x="222.97" y="1005.47" width="5.47" height="6.12" class="up-body"/>
<line x1="234.12" y1="1005.70" x2="234.12" y2="1009.76" class="up-wick"/>
<rect x="231.39" y="1007.96" width="5.47" height="1.00" class="up-body"/>
<line x1="242.54" y1="1000.46" x2="242.54" y2="1004.82" class="up-wick"/>
<rect x="239.81" y="1003.67" width="5.47" height="1.00" class="up-body"/>
<line x1="250.96" y1="1006.91" x2="250.96" y2="1011.50" class="down-wick"/>
<rect x="248.22" y="1008.65" width="5.47" height="1.70" class="down-body"/>
<line x1="259.38" y1="1002.72" x2="259.38" y2="1007.50" class="down-wick"/>
<rect x="256.64" y="1003.64" width="5.47" height="2.88" class="down-body"/>
<line x1="267.79" y1="1009.79" x2="267.79" y2="1014.84" class="up-wick"/>
<rect x="265.06" y="1009.79" width="5.47" height="1.28" class="up-body"/>
<line x1="276.21" y1="1012.05" x2="276.21" y2="1016.25" class="up-wick"/>
<rect x="273.47" y="1012.68" width="5.47" height="1.02" class="up-body"/>
<line x1="284.62" y1="1004.69" x2="284.62" y2="1011.17" class="up-wick"/>
<rect x="281.89" y="1005.05" width="5.47" height="1.38" class="up-body"/>
<line x1="293.04" y1="999.09" x2="293.04" y2="1004.72" class="down-wick"/>
<rect x="290.31" y="999.87" width="5.47" height="3.08" class="down-body"/>
<line x1="301.46" y1="1005.28" x2="301.46" y2="1010.45" class="up-wick"/>
<rect x="298.72" y="1005.31" width="5.47" height="1.24" class="up-body"/>
<line x1="309.88" y1="991.95" x2="309.88" y2="998.04" class="up-wick"/>
<rect x="307.14" y="993.85" width="5.47" height="4.19" class="up-body"/>
<line x1="318.29" y1="993.78" x2="318.29" y2="998.50" class="down-wick"/>
<rect x="315.56" y="995.52" width="5.47" height="2.59" class="down-body"/>
<line x1="326.71" y1="995.72" x2="326.71" y2="1002.03" class="up-wick"/>
<rect x="323.97" y="996.80" width="5.47" height="5.24" class="up-body"/>
<line x1="335.12" y1="983.01" x2="335.12" y2="996.01" class="up-wick"/>
<rect x="332.39" y="984.58" width="5.47" height="11.20" class="up-body"/>
<line x1="343.54" y1="980.26" x2="343.54" y2="985.60" class="down-wick"/>
<rect x="340.81" y="983.63" width="5.47" height="1.93" class="down-body"/>
<line x1="351.96" y1="974.30" x2="351.96" y2="982.52" class="up-wick"/>
<rect x="349.22" y="974.63" width="5.47" height="5.37" class="up-body"/>
<line x1="360.38" y1="976.89" x2="360.38" y2="981.54" class="down-wick"/>
<rect x="357.64" y="977.31" width="5.47" height="3.44" class="down-body"/>
<line x1="368.79" y1="976.36" x2="368.79" y2="979.83" class="up-wick"/>
<rect x="366.06" y="977.22" width="5.47" height="1.31" class="up-body"/>
<line x1="377.21" y1="982.81" x2="377.21" y2="988.28" class="down-wick"/>
<rect x="374.47" y="983.53" width="5.47" height="4.45" class="down-body"/>
<line x1="385.62" y1="980.56" x2="385.62" y2="985.73" class="up-wick"/>
<rect x="382.89" y="982.26" width="5.47" height="1.00" class="up-body"/>
<line x1="394.04" y1="973.25" x2="394.04" y2="982.98" class="up-wick"/>
<rect x="391.31" y="974.01" width="5.47" height="7.24" class="up-body"/>
<line x1="402.46" y1="970.08" x2="402.46" y2="974.46" class="down-wick"/>
<rect x="399.72" y="971.62" width="5.47" height="1.15" class="down-body"/>
<line x1="410.88" y1="969.72" x2="410.88" y2="975.25" class="up-wick"/>
<rect x="408.14" y="971.75" width="5.47" height="1.00" class="up-body"/>
<line x1="419.29" y1="970.27" x2="419.29" y2="974.10" class="down-wick"/>
<rect x="416.56" y="970.57" width="5.47" height="3.27" class="down-body"/>
<line x1="427.71" y1="969.62" x2="427.71" y2="973.25" class="down-wick"/>
<rect x="424.97" y="970.47" width="5.47" height="1.21" class="down-body"/>
<line x1="436.12" y1="966.90" x2="436.12" y2="972.57" class="down-wick"/>
<rect x="433.39" y="966.90" width="5.47" height="1.00" class="down-body"/>
<line x1="444.54" y1="967.46" x2="444.54" y2="971.19" class="down-wick"/>
<rect x="441.81" y="968.87" width="5.47" height="1.24" class="down-body"/>
<line x1="452.96" y1="972.60" x2="452.96" y2="975.91" class="up-wick"/>
<rect x="450.22" y="974.37" width="5.47" height="1.00" class="up-body"/>
<line x1="461.38" y1="975.38" x2="461.38" y2="980.33" class="up-wick"/>
<rect x="458.64" y="978.00" width="5.47" height="1.83" class="up-body"/>
<line x1="469.79" y1="976.27" x2="469.79" y2="983.73" class="up-wick"/>
<rect x="467.06" y="977.15" width="5.47" height="5.76" class="up-body"/>
<line x1="478.21" y1="979.41" x2="478.21" y2="982.62" class="up-wick"/>
<rect x="475.47" y="980.69" width="5.47" height="1.77" class="up-body"/>
<line x1="486.62" y1="978.98" x2="486.62" y2="983.70" class="up-wick"/>
<rect x="483.89" y="980.00" width="5.47" height="3.60" class="up-body"/>
<line x1="495.04" y1="976.59" x2="495.04" y2="980.36" class="down-wick"/>
<rect x="492.31" y="976.59" width="5.47" height="1.41" class="down-body"/>
<line x1="503.46" y1="977.84" x2="503.46" y2="981.05" class="up-wick"/>
<rect x="500.72" y="978.30" width="5.47" height="2.46" class="up-body"/>
<line x1="511.87" y1="970.76" x2="511.87" y2="976.43" class="up-wick"/>
<rect x="509.14" y="974.07" width="5.47" height="2.36" class="up-body"/>
<line x1="520.29" y1="975.19" x2="520.29" y2="979.38" class="up-wick"/>
<rect x="517.56" y="975.97" width="5.47" height="1.00" class="up-body"/>
<line x1="528.71" y1="975.84" x2="528.71" y2="978.10" class="down-wick"/>
<rect x="525.97" y="976.46" width="5.47" height="1.00" class="down-body"/>
<line x1="537.12" y1="975.94" x2="537.12" y2="979.31" class="down-wick"/>
<rect x="534.39" y="977.58" width="5.47" height="1.51" class="down-body"/>
<line x1="545.54" y1="974.24" x2="545.54" y2="977.58" class="up-wick"/>
<rect x="542.81" y="976.50" width="5.47" height="1.00" class="up-body"/>
<line x1="553.96" y1="974.04" x2="553.96" y2="976.50" class="up-wick"/>
<rect x="551.22" y="974.14" width="5.47" height="1.00" class="up-body"/>
<line x1="562.38" y1="972.53" x2="562.38" y2="977.61" class="down-wick"/>
<rect x="559.64" y="973.78" width="5.47" height="2.91" class="down-body"/>
<line x1="570.79" y1="975.28" x2="570.79" y2="979.41" class="down-wick"/>
<rect x="568.06" y="975.45" width="5.47" height="3.11" class="down-body"/>
<line x1="579.21" y1="973.78" x2="579.21" y2="979.54" class="up-wick"/>
<rect x="576.47" y="974.43" width="5.47" height="2.29" class="up-body"/>
<line x1="587.62" y1="962.55" x2="587.62" y2="979.15" class="down-wick"/>
<rect x="584.89" y="962.81" width="5.47" height="10.71" class="down-body"/>
<line x1="596.04" y1="970.57" x2="596.04" y2="977.84" class="down-wick"/>
<rect x="593.31" y="970.67" width="5.47" height="6.32" class="down-body"/>
<line x1="604.46" y1="973.29" x2="604.46" y2="976.36" class="up-wick"/>
<rect x="601.72" y="973.29" width="5.47" height="1.00" class="up-body"/>
<line x1="612.88" y1="974.20" x2="612.88" y2="982.59" class="up-wick"/>
<rect x="610.14" y="976.86" width="5.47" height="3.96" class="up-body"/>
<line x1="621.29" y1="969.29" x2="621.29" y2="972.83" class="up-wick"/>
<rect x="618.56" y="971.06" width="5.47" height="1.51" class="up-body"/>
<line x1="629.71" y1="973.32" x2="629.71" y2="977.67" class="up-wick"/>
<rect x="626.97" y="974.14" width="5.47" height="3.44" class="up-body"/>
<line x1="638.12" y1="967.43" x2="638.12" y2="974.89" class="up-wick"/>
<rect x="635.39" y="968.70" width="5.47" height="6.19" class="up-body"/>
<line x1="646.54" y1="967.36" x2="646.54" y2="971.49" class="up-wick"/>
<rect x="643.81" y="968.73" width="5.47" height="1.28" class="up-body"/>
<line x1="654.96" y1="966.64" x2="654.96" y2="969.00" class="down-wick"/>
<rect x="652.22" y="968.57" width="5.47" height="1.00" class="down-body"/>
<line x1="663.38" y1="958.03" x2="663.38" y2="966.05" class="up-wick"/>
<rect x="660.64" y="962.68" width="5.47" height="2.55" class="up-body"/>
<line x1="671.79" y1="959.08" x2="671.79" y2="964.05" class="up-wick"/>
<rect x="669.06" y="959.80" width="5.47" height="2.26" class="up-body"/>
<line x1="680.21" y1="960.52" x2="680.21" y2="964.61" class="down-wick"/>
<rect x="677.47" y="961.33" width="5.47" height="3.11" class="down-body"/>
<line x1="688.62" y1="952.59" x2="688.62" y2="960.61" class="up-wick"/>
<rect x="685.89" y="952.69" width="5.47" height="7.76" class="up-body"/>
<line x1="697.04" y1="947.55" x2="697.04" y2="951.54" class="down-wick"/>
<rect x="694.31" y="950.89" width="5.47" height="1.00" class="down-body"/>
<line x1="705.46" y1="952.10" x2="705.46" y2="956.42" class="up-wick"/>
<rect x="702.72" y="953.57" width="5.47" height="1.11" class="up-body"/>
<line x1="713.88" y1="939.17" x2="713.88" y2="950.63" class="up-wick"/>
<rect x="711.14" y="940.08" width="5.47" height="10.38" class="up-body"/>
<line x1="722.29" y1="938.71" x2="722.29" y2="944.77" class="up-wick"/>
<rect x="719.56" y="939.59" width="5.47" height="4.49" class="up-body"/>
<line x1="730.71" y1="932.10" x2="730.71" y2="935.93" class="up-wick"/>
<rect x="727.97" y="934.19" width="5.47" height="1.51" class="up-body"/>
<line x1="739.12" y1="932.49" x2="739.12" y2="936.02" class="up-wick"/>
<rect x="736.39" y="933.80" width="5.47" height="2.10" class="up-body"/>
<line x1="747.54" y1="932.36" x2="747.54" y2="937.53" class="up-wick"/>
<rect x="744.81" y="933.04" width="5.47" height="2.95" class="up-body"/>
<line x1="755.96" y1="915.56" x2="755.96" y2="928.69" class="up-wick"/>
<rect x="753.22" y="922.63" width="5.47" height="5.08" class="up-body"/>
<line x1="764.38" y1="915.56" x2="764.38" y2="923.19" class="down-wick"/>
<rect x="761.64" y="920.08" width="5.47" height="2.75" class="down-body"/>
<line x1="772.79" y1="923.16" x2="772.79" y2="933.27" class="down-wick"/>
<rect x="770.06" y="923.25" width="5.47" height="8.94" class="down-body"/>
<line x1="781.21" y1="931.96" x2="781.21" y2="935.89" class="down-wick"/>
<rect x="778.47" y="932.10" width="5.47" height="1.31" class="down-body"/>
<line x1="789.62" y1="930.72" x2="789.62" y2="935.50" class="up-wick"/>
<rect x="786.89" y="931.28" width="5.47" height="4.22" class="up-body"/>
<line x1="798.04" y1="920.64" x2="798.04" y2="927.41" class="up-wick"/>
<rect x="795.31" y="920.70" width="5.47" height="6.12" class="up-body"/>
<line x1="806.46" y1="915.66" x2="806.46" y2="918.64" class="down-wick"/>
<rect x="803.72" y="916.77" width="5.47" height="1.00" class="down-body"/>
<line x1="814.88" y1="915.69" x2="814.88" y2="919.46" class="up-wick"/>
<rect x="812.14" y="915.82" width="5.47" height="1.38" class="up-body"/>
<line x1="823.29" y1="916.54" x2="823.29" y2="920.77" class="down-wick"/>
<rect x="820.56" y="918.05" width="5.47" height="1.05" class="down-body"/>
<line x1="831.71" y1="913.56" x2="831.71" y2="920.50" class="up-wick"/>
<rect x="828.97" y="915.23" width="5.47" height="5.27" class="up-body"/>
<line x1="840.12" y1="912.09" x2="840.12" y2="914.94" class="up-wick"/>
<rect x="837.39" y="912.32" width="5.47" height="1.00" class="up-body"/>
<line x1="848.54" y1="915.89" x2="848.54" y2="918.24" class="up-wick"/>
<rect x="845.81" y="916.64" width="5.47" height="1.31" class="up-body"/>
<line x1="856.96" y1="914.15" x2="856.96" y2="919.33" class="up-wick"/>
<rect x="854.22" y="914.28" width="5.47" height="3.11" class="up-body"/>
<line x1="865.38" y1="907.41" x2="865.38" y2="912.22" class="down-wick"/>
<rect x="862.64" y="907.41" width="5.47" height="2.46" class="down-body"/>
<line x1="873.79" y1="909.14" x2="873.79" y2="913.10" class="down-wick"/>
<rect x="871.06" y="911.43" width="5.47" height="1.00" class="down-body"/>
<line x1="882.21" y1="898.50" x2="882.21" y2="905.87" class="up-wick"/>
<rect x="879.47" y="900.43" width="5.47" height="5.04" class="up-body"/>
<line x1="890.62" y1="903.35" x2="890.62" y2="908.81" class="down-wick"/>
<rect x="887.89" y="903.41" width="5.47" height="4.26" class="down-body"/>
<line x1="899.04" y1="904.43" x2="899.04" y2="910.52" class="up-wick"/>
<rect x="896.31" y="905.47" width="5.47" height="3.93" class="up-body"/>
<line x1="907.46" y1="899.55" x2="907.46" y2="905.93" class="up-wick"/>
<rect x="904.72" y="900.10" width="5.47" height="5.53" class="up-body"/>
<line x1="915.87" y1="898.53" x2="915.87" y2="901.45" class="up-wick"/>
<rect x="913.14" y="899.45" width="5.47" height="1.00" class="up-body"/>
<line x1="924.29" y1="901.35" x2="924.29" y2="907.21" class="up-wick"/>
<rect x="921.56" y="901.61" width="5.47" height="1.00" class="up-body"/>
<line x1="932.71" y1="894.93" x2="932.71" y2="901.58" class="up-wick"/>
<rect x="929.97" y="897.71" width="5.47" height="3.34" class="up-body"/>
<line x1="941.12" y1="892.77" x2="941.12" y2="894.90" class="down-wick"/>
<rect x="938.39" y="893.23" width="5.47" height="1.00" class="down-body"/>
<line x1="949.54" y1="894.34" x2="949.54" y2="896.24" class="down-wick"/>
<rect x="946.81" y="895.00" width="5.47" height="1.00" class="down-body"/>
<line x1="957.96" y1="890.64" x2="957.96" y2="895.78" class="up-wick"/>
<rect x="955.22" y="891.33" width="5.47" height="4.45" class="up-body"/>
<line x1="966.37" y1="883.14" x2="966.37" y2="892.12" class="up-wick"/>
<rect x="963.64" y="883.57" width="5.47" height="1.64" class="up-body"/>
<line x1="974.79" y1="876.53" x2="974.79" y2="883.11" class="up-wick"/>
<rect x="972.06" y="878.13" width="5.47" height="3.21" class="up-body"/>
<line x1="983.21" y1="872.67" x2="983.21" y2="878.20" class="up-wick"/>
<rect x="980.47" y="875.32" width="5.47" height="2.88" class="up-body"/>
<line x1="991.62" y1="873.65" x2="991.62" y2="877.97" class="up-wick"/>
<rect x="988.89" y="877.09" width="5.47" height="1.00" class="up-body"/>
<line x1="1000.04" y1="879.84" x2="1000.04" y2="883.77" class="down-wick"/>
<rect x="997.31" y="879.90" width="5.47" height="3.67" class="down-body"/>
<line x1="1008.46" y1="876.37" x2="1008.46" y2="880.26" class="down-wick"/>
<rect x="1005.72" y="876.53" width="5.47" height="1.38" class="down-body"/>
<line x1="1016.87" y1="876.30" x2="1016.87" y2="878.36" class="up-wick"/>
<rect x="1014.14" y="876.50" width="5.47" height="1.05" class="up-body"/>
<line x1="1025.29" y1="874.43" x2="1025.29" y2="877.45" class="up-wick"/>
<rect x="1022.56" y="874.93" width="5.47" height="1.00" class="up-body"/>
<line x1="1033.71" y1="872.11" x2="1033.71" y2="876.20" class="up-wick"/>
<rect x="1030.97" y="872.44" width="5.47" height="3.77" class="up-body"/>
<line x1="1042.12" y1="870.60" x2="1042.12" y2="876.01" class="up-wick"/>
<rect x="1039.39" y="871.06" width="5.47" height="4.13" class="up-body"/>
<line x1="1050.54" y1="872.63" x2="1050.54" y2="876.43" class="down-wick"/>
<rect x="1047.81" y="872.80" width="5.47" height="1.60" class="down-body"/>
<line x1="1058.96" y1="861.76" x2="1058.96" y2="870.44" class="up-wick"/>
<rect x="1056.22" y="866.28" width="5.47" height="2.36" class="up-body"/>
<line x1="1067.38" y1="862.61" x2="1067.38" y2="865.76" class="up-wick"/>
<rect x="1064.64" y="862.97" width="5.47" height="1.00" class="up-body"/>
<line x1="1075.79" y1="859.24" x2="1075.79" y2="863.01" class="up-wick"/>
<rect x="1073.06" y="859.27" width="5.47" height="1.67" class="up-body"/>
<line x1="70" y1="973.06" x2="1080" y2="973.06" class="number-line"/>
<text x="1076" y="969.06" text-anchor="end" class="level-label">round 4680.00</text>
<line x1="70" y1="973.06" x2="1080" y2="973.06" class="entry-line"/>
<text x="1076" y="969.06" text-anchor="end" class="level-label">entry level 4680.00</text>
<text x="70" y="1056" class="axis-label">2026-05-12 19:00:00+00:00 to 2026-05-12 22:58:00+00:00</text>
<text x="1080" y="1056" text-anchor="end" class="axis-label">4660.17 - 4718.80</text>
</svg>