<svg xmlns="http://www.w3.org/2000/svg" width="1120" height="1054" viewBox="0 0 1120 1054">
<style>
text{font-family:Arial,Helvetica,sans-serif}.title{font-size:21px;font-weight:700;fill:#1f2937}.subtitle{font-size:12px;fill:#4b5563}.panel-title{font-size:15px;font-weight:700;fill:#111827}.muted{font-size:13px;fill:#6b7280}.plot-bg{fill:#f8fafc;stroke:#cbd5e1;stroke-width:1}.up-body{fill:#15803d;stroke:#14532d;stroke-width:.8}.down-body{fill:#b91c1c;stroke:#7f1d1d;stroke-width:.8}.up-wick{stroke:#14532d;stroke-width:1}.down-wick{stroke:#7f1d1d;stroke-width:1}.sweep-line{stroke:#7c3aed;stroke-width:1.6;stroke-dasharray:6 4}.number-line{stroke:#0f766e;stroke-width:1.4;stroke-dasharray:3 4}.entry-line{stroke:#2563eb;stroke-width:1.4}.sl-line{stroke:#dc2626;stroke-width:1.4}.tp-line{stroke:#16a34a;stroke-width:1.4}.level-label,.axis-label{font-size:11px;fill:#374151}
</style>
<text x="28" y="28" class="title">Adelin v2 visual review sample sample_103</text>
<text x="28" y="48" class="subtitle">Candidate windows are for visual labeling only and are not trade signals.</text>
<text x="560" y="48" class="subtitle" text-anchor="middle">LARGE_UPPER_WICK_REVERSAL_VISUAL_CANDIDATE | PRE_ANCHOR_SWEEP_EXTREME_CANDIDATE</text>
<text x="70" y="82" class="panel-title">H1 liquidity context</text>
<rect x="70" y="96" width="1010" height="192" class="plot-bg"/>
<line x1="83.65" y1="174.54" x2="83.65" y2="263.36" class="down-wick"/>
<rect x="79.65" y="198.37" width="8.00" height="6.16" class="down-body"/>
<line x1="110.95" y1="196.12" x2="110.95" y2="267.99" class="down-wick"/>
<rect x="106.95" y="204.53" width="8.00" height="55.00" class="down-body"/>
<line x1="138.24" y1="229.91" x2="138.24" y2="274.76" class="up-wick"/>
<rect x="134.24" y="241.08" width="8.00" height="18.45" class="up-body"/>
<line x1="165.54" y1="208.50" x2="165.54" y2="243.97" class="up-wick"/>
<rect x="161.54" y="235.48" width="8.00" height="5.55" class="up-body"/>
<line x1="192.84" y1="163.44" x2="192.84" y2="238.95" class="up-wick"/>
<rect x="188.84" y="200.89" width="8.00" height="34.59" class="up-body"/>
<line x1="220.14" y1="200.81" x2="220.14" y2="236.39" class="down-wick"/>
<rect x="216.14" y="200.89" width="8.00" height="11.70" class="down-body"/>
<line x1="247.43" y1="182.34" x2="247.43" y2="213.45" class="up-wick"/>
<rect x="243.43" y="183.56" width="8.00" height="29.02" class="up-body"/>
<line x1="274.73" y1="152.68" x2="274.73" y2="195.60" class="down-wick"/>
<rect x="270.73" y="183.53" width="8.00" height="10.04" class="down-body"/>
<line x1="302.03" y1="169.83" x2="302.03" y2="208.47" class="up-wick"/>
<rect x="298.03" y="172.63" width="8.00" height="20.94" class="up-body"/>
<line x1="329.32" y1="137.89" x2="329.32" y2="205.72" class="up-wick"/>
<rect x="325.32" y="143.27" width="8.00" height="29.37" class="up-body"/>
<line x1="356.62" y1="122.35" x2="356.62" y2="149.15" class="up-wick"/>
<rect x="352.62" y="126.11" width="8.00" height="17.15" class="up-body"/>
<line x1="383.92" y1="109.24" x2="383.92" y2="133.76" class="down-wick"/>
<rect x="379.92" y="126.11" width="8.00" height="3.41" class="down-body"/>
<line x1="411.22" y1="123.30" x2="411.22" y2="143.36" class="down-wick"/>
<rect x="407.22" y="129.52" width="8.00" height="6.05" class="down-body"/>
<line x1="438.51" y1="124.60" x2="438.51" y2="155.42" class="down-wick"/>
<rect x="434.51" y="135.57" width="8.00" height="18.50" class="down-body"/>
<line x1="465.81" y1="140.23" x2="465.81" y2="182.70" class="down-wick"/>
<rect x="461.81" y="154.12" width="8.00" height="3.16" class="down-body"/>
<line x1="493.11" y1="147.72" x2="493.11" y2="182.50" class="up-wick"/>
<rect x="489.11" y="151.18" width="8.00" height="6.10" class="up-body"/>
<line x1="520.41" y1="123.52" x2="520.41" y2="181.61" class="up-wick"/>
<rect x="516.41" y="146.00" width="8.00" height="5.16" class="up-body"/>
<line x1="547.70" y1="144.33" x2="547.70" y2="194.89" class="down-wick"/>
<rect x="543.70" y="146.00" width="8.00" height="23.31" class="down-body"/>
<line x1="575.00" y1="162.34" x2="575.00" y2="185.33" class="down-wick"/>
<rect x="571.00" y="169.32" width="8.00" height="12.26" class="down-body"/>
<line x1="602.30" y1="180.19" x2="602.30" y2="204.19" class="down-wick"/>
<rect x="598.30" y="181.52" width="8.00" height="10.65" class="down-body"/>
<line x1="629.59" y1="172.02" x2="629.59" y2="199.65" class="up-wick"/>
<rect x="625.59" y="184.88" width="8.00" height="7.21" class="up-body"/>
<line x1="656.89" y1="183.14" x2="656.89" y2="204.85" class="down-wick"/>
<rect x="652.89" y="184.88" width="8.00" height="4.43" class="down-body"/>
<line x1="684.19" y1="169.83" x2="684.19" y2="200.19" class="up-wick"/>
<rect x="680.19" y="184.69" width="8.00" height="15.50" class="up-body"/>
<line x1="711.49" y1="180.31" x2="711.49" y2="195.54" class="up-wick"/>
<rect x="707.49" y="183.97" width="8.00" height="1.00" class="up-body"/>
<line x1="738.78" y1="179.94" x2="738.78" y2="199.14" class="down-wick"/>
<rect x="734.78" y="183.94" width="8.00" height="6.27" class="down-body"/>
<line x1="766.08" y1="175.23" x2="766.08" y2="250.57" class="down-wick"/>
<rect x="762.08" y="190.21" width="8.00" height="43.56" class="down-body"/>
<line x1="793.38" y1="191.59" x2="793.38" y2="244.72" class="up-wick"/>
<rect x="789.38" y="196.89" width="8.00" height="36.89" class="up-body"/>
<line x1="820.68" y1="191.29" x2="820.68" y2="214.01" class="down-wick"/>
<rect x="816.68" y="196.89" width="8.00" height="1.16" class="down-body"/>
<line x1="847.97" y1="175.68" x2="847.97" y2="205.00" class="up-wick"/>
<rect x="843.97" y="182.58" width="8.00" height="15.46" class="up-body"/>
<line x1="875.27" y1="179.70" x2="875.27" y2="239.83" class="down-wick"/>
<rect x="871.27" y="181.81" width="8.00" height="27.01" class="down-body"/>
<line x1="902.57" y1="187.50" x2="902.57" y2="216.70" class="up-wick"/>
<rect x="898.57" y="192.29" width="8.00" height="16.53" class="up-body"/>
<line x1="929.86" y1="186.58" x2="929.86" y2="218.78" class="down-wick"/>
<rect x="925.86" y="192.29" width="8.00" height="11.88" class="down-body"/>
<line x1="957.16" y1="133.95" x2="957.16" y2="206.69" class="up-wick"/>
<rect x="953.16" y="146.38" width="8.00" height="57.79" class="up-body"/>
<line x1="984.46" y1="128.19" x2="984.46" y2="184.16" class="down-wick"/>
<rect x="980.46" y="146.38" width="8.00" height="18.64" class="down-body"/>
<line x1="1011.76" y1="149.77" x2="1011.76" y2="198.93" class="down-wick"/>
<rect x="1007.76" y="165.00" width="8.00" height="29.33" class="down-body"/>
<line x1="1039.05" y1="175.60" x2="1039.05" y2="230.68" class="up-wick"/>
<rect x="1035.05" y="182.45" width="8.00" height="11.88" class="up-body"/>
<line x1="1066.35" y1="164.86" x2="1066.35" y2="202.73" class="down-wick"/>
<rect x="1062.35" y="182.45" width="8.00" height="12.74" class="down-body"/>
<line x1="70" y1="149.91" x2="1080" y2="149.91" class="sweep-line"/>
<text x="1076" y="145.91" text-anchor="end" class="level-label">sweep 4680.60</text>
<line x1="70" y1="152.74" x2="1080" y2="152.74" class="entry-line"/>
<text x="1076" y="148.74" text-anchor="end" class="level-label">entry level 4678.79</text>
<text x="70" y="306" class="axis-label">2026-04-06 01:00:00+00:00 to 2026-04-07 15:00:00+00:00</text>
<text x="1080" y="306" text-anchor="end" class="axis-label">4592.29 - 4715.08</text>
<text x="70" y="332" class="panel-title">M15 liquidity / reaction context</text>
<rect x="70" y="346" width="1010" height="192" class="plot-bg"/>
<line x1="76.92" y1="484.07" x2="76.92" y2="514.81" class="up-wick"/>
<rect x="72.92" y="485.18" width="8.00" height="24.35" class="up-body"/>
<line x1="90.75" y1="479.91" x2="90.75" y2="524.76" class="down-wick"/>
<rect x="86.75" y="485.18" width="8.00" height="35.46" class="down-body"/>
<line x1="104.59" y1="492.20" x2="104.59" y2="521.13" class="up-wick"/>
<rect x="100.59" y="496.06" width="8.00" height="24.58" class="up-body"/>
<line x1="118.42" y1="484.96" x2="118.42" y2="501.19" class="up-wick"/>
<rect x="114.42" y="491.08" width="8.00" height="4.99" class="up-body"/>
<line x1="132.26" y1="458.71" x2="132.26" y2="491.03" class="up-wick"/>
<rect x="128.26" y="460.63" width="8.00" height="30.40" class="up-body"/>
<line x1="146.10" y1="458.50" x2="146.10" y2="493.97" class="down-wick"/>
<rect x="142.10" y="460.65" width="8.00" height="1.00" class="down-body"/>
<line x1="159.93" y1="461.10" x2="159.93" y2="489.03" class="down-wick"/>
<rect x="155.93" y="461.43" width="8.00" height="21.00" class="down-body"/>
<line x1="173.77" y1="480.88" x2="173.77" y2="492.31" class="down-wick"/>
<rect x="169.77" y="482.43" width="8.00" height="3.05" class="down-body"/>
<line x1="187.60" y1="463.07" x2="187.60" y2="488.95" class="up-wick"/>
<rect x="183.60" y="469.20" width="8.00" height="16.28" class="up-body"/>
<line x1="201.44" y1="413.44" x2="201.44" y2="469.20" class="up-wick"/>
<rect x="197.44" y="430.36" width="8.00" height="38.84" class="up-body"/>
<line x1="215.27" y1="421.80" x2="215.27" y2="456.55" class="down-wick"/>
<rect x="211.27" y="430.36" width="8.00" height="15.68" class="down-body"/>
<line x1="229.11" y1="438.07" x2="229.11" y2="452.19" class="down-wick"/>
<rect x="225.11" y="446.04" width="8.00" height="4.85" class="down-body"/>
<line x1="242.95" y1="450.81" x2="242.95" y2="480.91" class="down-wick"/>
<rect x="238.95" y="450.89" width="8.00" height="22.97" class="down-body"/>
<line x1="256.78" y1="469.08" x2="256.78" y2="486.39" class="down-wick"/>
<rect x="252.78" y="473.86" width="8.00" height="4.64" class="down-body"/>
<line x1="270.62" y1="473.64" x2="270.62" y2="486.06" class="up-wick"/>
<rect x="266.62" y="475.02" width="8.00" height="3.49" class="up-body"/>
<line x1="284.45" y1="460.07" x2="284.45" y2="478.22" class="up-wick"/>
<rect x="280.45" y="462.59" width="8.00" height="12.43" class="up-body"/>
<line x1="298.29" y1="449.98" x2="298.29" y2="463.45" class="up-wick"/>
<rect x="294.29" y="457.96" width="8.00" height="4.63" class="up-body"/>
<line x1="312.12" y1="452.92" x2="312.12" y2="461.44" class="up-wick"/>
<rect x="308.12" y="452.94" width="8.00" height="5.02" class="up-body"/>
<line x1="325.96" y1="446.03" x2="325.96" y2="458.76" class="up-wick"/>
<rect x="321.96" y="449.47" width="8.00" height="3.47" class="up-body"/>
<line x1="339.79" y1="432.34" x2="339.79" y2="452.67" class="up-wick"/>
<rect x="335.79" y="433.56" width="8.00" height="15.90" class="up-body"/>
<line x1="353.63" y1="405.60" x2="353.63" y2="435.36" class="up-wick"/>
<rect x="349.63" y="410.66" width="8.00" height="22.88" class="up-body"/>
<line x1="367.47" y1="402.68" x2="367.47" y2="421.30" class="down-wick"/>
<rect x="363.47" y="410.66" width="8.00" height="9.95" class="down-body"/>
<line x1="381.30" y1="418.02" x2="381.30" y2="430.05" class="down-wick"/>
<rect x="377.30" y="420.60" width="8.00" height="9.10" class="down-body"/>
<line x1="395.14" y1="420.46" x2="395.14" y2="445.60" class="down-wick"/>
<rect x="391.14" y="429.69" width="8.00" height="13.89" class="down-body"/>
<line x1="408.97" y1="429.06" x2="408.97" y2="458.47" class="up-wick"/>
<rect x="404.97" y="430.55" width="8.00" height="13.03" class="up-body"/>
<line x1="422.81" y1="428.48" x2="422.81" y2="443.49" class="down-wick"/>
<rect x="418.81" y="430.55" width="8.00" height="5.69" class="down-body"/>
<line x1="436.64" y1="432.08" x2="436.64" y2="444.90" class="down-wick"/>
<rect x="432.64" y="436.24" width="8.00" height="2.72" class="down-body"/>
<line x1="450.48" y1="419.83" x2="450.48" y2="441.96" class="up-wick"/>
<rect x="446.48" y="422.63" width="8.00" height="16.32" class="up-body"/>
<line x1="464.32" y1="421.60" x2="464.32" y2="450.89" class="down-wick"/>
<rect x="460.32" y="422.63" width="8.00" height="22.13" class="down-body"/>
<line x1="478.15" y1="438.85" x2="478.15" y2="455.72" class="down-wick"/>
<rect x="474.15" y="444.76" width="8.00" height="1.77" class="down-body"/>
<line x1="491.99" y1="423.37" x2="491.99" y2="447.43" class="up-wick"/>
<rect x="487.99" y="425.20" width="8.00" height="21.33" class="up-body"/>
<line x1="505.82" y1="387.89" x2="505.82" y2="427.90" class="up-wick"/>
<rect x="501.82" y="393.27" width="8.00" height="31.95" class="up-body"/>
<line x1="519.66" y1="378.07" x2="519.66" y2="399.15" class="up-wick"/>
<rect x="515.66" y="385.56" width="8.00" height="7.71" class="up-body"/>
<line x1="533.49" y1="375.86" x2="533.49" y2="393.83" class="up-wick"/>
<rect x="529.49" y="382.98" width="8.00" height="2.58" class="up-body"/>
<line x1="547.33" y1="376.19" x2="547.33" y2="385.36" class="up-wick"/>
<rect x="543.33" y="380.24" width="8.00" height="2.74" class="up-body"/>
<line x1="561.16" y1="372.35" x2="561.16" y2="382.60" class="up-wick"/>
<rect x="557.16" y="376.11" width="8.00" height="4.13" class="up-body"/>
<line x1="575.00" y1="364.45" x2="575.00" y2="376.11" class="up-wick"/>
<rect x="571.00" y="367.58" width="8.00" height="8.54" class="up-body"/>
<line x1="588.84" y1="363.70" x2="588.84" y2="373.88" class="up-wick"/>
<rect x="584.84" y="365.76" width="8.00" height="1.85" class="up-body"/>
<line x1="602.67" y1="359.24" x2="602.67" y2="368.11" class="up-wick"/>
<rect x="598.67" y="364.32" width="8.00" height="1.47" class="up-body"/>
<line x1="616.51" y1="361.63" x2="616.51" y2="383.76" class="down-wick"/>
<rect x="612.51" y="364.32" width="8.00" height="15.20" class="down-body"/>
<line x1="630.34" y1="373.30" x2="630.34" y2="391.31" class="down-wick"/>
<rect x="626.34" y="379.52" width="8.00" height="10.66" class="down-body"/>
<line x1="644.18" y1="380.37" x2="644.18" y2="391.19" class="up-wick"/>
<rect x="640.18" y="385.48" width="8.00" height="4.85" class="up-body"/>
<line x1="658.01" y1="374.50" x2="658.01" y2="388.76" class="up-wick"/>
<rect x="654.01" y="377.21" width="8.00" height="8.27" class="up-body"/>
<line x1="671.85" y1="376.04" x2="671.85" y2="393.36" class="down-wick"/>
<rect x="667.85" y="376.61" width="8.00" height="8.96" class="down-body"/>
<line x1="685.68" y1="374.60" x2="685.68" y2="387.09" class="down-wick"/>
<rect x="681.68" y="385.57" width="8.00" height="1.00" class="down-body"/>
<line x1="699.52" y1="381.59" x2="699.52" y2="392.50" class="down-wick"/>
<rect x="695.52" y="386.07" width="8.00" height="1.61" class="down-body"/>
<line x1="713.36" y1="378.10" x2="713.36" y2="392.49" class="down-wick"/>
<rect x="709.36" y="387.69" width="8.00" height="4.80" class="down-body"/>
<line x1="727.19" y1="391.75" x2="727.19" y2="405.42" class="down-wick"/>
<rect x="723.19" y="392.49" width="8.00" height="11.59" class="down-body"/>
<line x1="741.03" y1="390.23" x2="741.03" y2="414.21" class="down-wick"/>
<rect x="737.03" y="404.12" width="8.00" height="8.46" class="down-body"/>
<line x1="754.86" y1="410.14" x2="754.86" y2="432.70" class="down-wick"/>
<rect x="750.86" y="412.58" width="8.00" height="10.13" class="down-body"/>
<line x1="768.70" y1="402.85" x2="768.70" y2="423.32" class="up-wick"/>
<rect x="764.70" y="405.67" width="8.00" height="17.04" class="up-body"/>
<line x1="782.53" y1="399.15" x2="782.53" y2="410.06" class="down-wick"/>
<rect x="778.53" y="405.67" width="8.00" height="1.61" class="down-body"/>
<line x1="796.37" y1="404.81" x2="796.37" y2="428.76" class="down-wick"/>
<rect x="792.37" y="407.28" width="8.00" height="11.34" class="down-body"/>
<line x1="810.21" y1="411.19" x2="810.21" y2="432.50" class="up-wick"/>
<rect x="806.21" y="418.57" width="8.00" height="1.00" class="up-body"/>
<line x1="824.04" y1="402.21" x2="824.04" y2="430.25" class="down-wick"/>
<rect x="820.04" y="418.57" width="8.00" height="4.66" class="down-body"/>
<line x1="837.88" y1="397.72" x2="837.88" y2="429.47" class="up-wick"/>
<rect x="833.88" y="401.18" width="8.00" height="22.05" class="up-body"/>
<line x1="851.71" y1="384.17" x2="851.71" y2="431.61" class="down-wick"/>
<rect x="847.71" y="401.16" width="8.00" height="10.98" class="down-body"/>
<line x1="865.55" y1="387.87" x2="865.55" y2="415.44" class="up-wick"/>
<rect x="861.55" y="391.11" width="8.00" height="21.03" class="up-body"/>
<line x1="879.38" y1="373.52" x2="879.38" y2="402.90" class="down-wick"/>
<rect x="875.38" y="390.81" width="8.00" height="2.71" class="down-body"/>
<line x1="893.22" y1="387.92" x2="893.22" y2="408.79" class="down-wick"/>
<rect x="889.22" y="393.52" width="8.00" height="2.49" class="down-body"/>
<line x1="907.05" y1="394.33" x2="907.05" y2="429.97" class="down-wick"/>
<rect x="903.05" y="396.00" width="8.00" height="32.70" class="down-body"/>
<line x1="920.89" y1="416.29" x2="920.89" y2="439.44" class="up-wick"/>
<rect x="916.89" y="420.65" width="8.00" height="8.05" class="up-body"/>
<line x1="934.73" y1="414.75" x2="934.73" y2="444.89" class="down-wick"/>
<rect x="930.73" y="420.65" width="8.00" height="10.26" class="down-body"/>
<line x1="948.56" y1="417.93" x2="948.56" y2="432.56" class="up-wick"/>
<rect x="944.56" y="419.32" width="8.00" height="11.59" class="up-body"/>
<line x1="962.40" y1="414.74" x2="962.40" y2="428.23" class="up-wick"/>
<rect x="958.40" y="415.74" width="8.00" height="3.58" class="up-body"/>
<line x1="976.23" y1="412.34" x2="976.23" y2="423.85" class="down-wick"/>
<rect x="972.23" y="415.74" width="8.00" height="7.58" class="down-body"/>
<line x1="990.07" y1="414.82" x2="990.07" y2="427.81" class="down-wick"/>
<rect x="986.07" y="423.31" width="8.00" height="3.47" class="down-body"/>
<line x1="1003.90" y1="421.54" x2="1003.90" y2="435.33" class="down-wick"/>
<rect x="999.90" y="426.78" width="8.00" height="4.80" class="down-body"/>
<line x1="1017.74" y1="430.19" x2="1017.74" y2="454.19" class="down-wick"/>
<rect x="1013.74" y="431.52" width="8.00" height="10.05" class="down-body"/>
<line x1="1031.58" y1="431.56" x2="1031.58" y2="447.11" class="up-wick"/>
<rect x="1027.58" y="438.10" width="8.00" height="3.47" class="up-body"/>
<line x1="1045.41" y1="431.34" x2="1045.41" y2="443.82" class="up-wick"/>
<rect x="1041.41" y="437.74" width="8.00" height="1.00" class="up-body"/>
<line x1="1059.25" y1="436.19" x2="1059.25" y2="445.04" class="down-wick"/>
<rect x="1055.25" y="437.74" width="8.00" height="4.43" class="down-body"/>
<line x1="1073.08" y1="422.02" x2="1073.08" y2="446.37" class="up-wick"/>
<rect x="1069.08" y="433.02" width="8.00" height="9.07" class="up-body"/>
<line x1="70" y1="399.91" x2="1080" y2="399.91" class="sweep-line"/>
<text x="1076" y="395.91" text-anchor="end" class="level-label">sweep 4680.60</text>
<line x1="70" y1="402.74" x2="1080" y2="402.74" class="entry-line"/>
<text x="1076" y="398.74" text-anchor="end" class="level-label">entry level 4678.79</text>
<text x="70" y="556" class="axis-label">2026-04-06 03:00:00+00:00 to 2026-04-06 21:00:00+00:00</text>
<text x="1080" y="556" text-anchor="end" class="axis-label">4592.29 - 4715.08</text>
<text x="70" y="582" class="panel-title">M5 reaction / execution context</text>
<rect x="70" y="596" width="1010" height="192" class="plot-bg"/>
<line x1="79.18" y1="624.85" x2="79.18" y2="645.89" class="up-wick"/>
<rect x="75.18" y="641.69" width="8.00" height="1.01" class="up-body"/>
<line x1="97.55" y1="632.86" x2="97.55" y2="651.88" class="up-wick"/>
<rect x="93.55" y="633.69" width="8.00" height="8.00" class="up-body"/>
<line x1="115.91" y1="612.00" x2="115.91" y2="633.73" class="up-wick"/>
<rect x="111.91" y="619.56" width="8.00" height="14.12" class="up-body"/>
<line x1="134.27" y1="616.28" x2="134.27" y2="664.73" class="down-wick"/>
<rect x="130.27" y="617.90" width="8.00" height="12.16" class="down-body"/>
<line x1="152.64" y1="621.97" x2="152.64" y2="637.67" class="down-wick"/>
<rect x="148.64" y="630.06" width="8.00" height="7.04" class="down-body"/>
<line x1="171.00" y1="630.01" x2="171.00" y2="647.37" class="down-wick"/>
<rect x="167.00" y="637.10" width="8.00" height="5.86" class="down-body"/>
<line x1="189.36" y1="615.71" x2="189.36" y2="645.67" class="up-wick"/>
<rect x="185.36" y="629.05" width="8.00" height="13.91" class="up-body"/>
<line x1="207.73" y1="612.26" x2="207.73" y2="633.64" class="down-wick"/>
<rect x="203.73" y="629.05" width="8.00" height="1.49" class="down-body"/>
<line x1="226.09" y1="626.60" x2="226.09" y2="647.20" class="down-wick"/>
<rect x="222.09" y="630.63" width="8.00" height="13.86" class="down-body"/>
<line x1="244.45" y1="633.69" x2="244.45" y2="651.22" class="up-wick"/>
<rect x="240.45" y="634.74" width="8.00" height="9.62" class="up-body"/>
<line x1="262.82" y1="631.81" x2="262.82" y2="662.33" class="down-wick"/>
<rect x="258.82" y="634.74" width="8.00" height="15.66" class="down-body"/>
<line x1="281.18" y1="639.68" x2="281.18" y2="658.18" class="up-wick"/>
<rect x="277.18" y="648.86" width="8.00" height="1.97" class="up-body"/>
<line x1="299.55" y1="637.23" x2="299.55" y2="653.98" class="up-wick"/>
<rect x="295.55" y="645.10" width="8.00" height="3.76" class="up-body"/>
<line x1="317.91" y1="625.90" x2="317.91" y2="662.11" class="up-wick"/>
<rect x="313.91" y="643.70" width="8.00" height="1.40" class="up-body"/>
<line x1="336.27" y1="622.05" x2="336.27" y2="662.29" class="down-wick"/>
<rect x="332.27" y="643.70" width="8.00" height="18.59" class="down-body"/>
<line x1="354.64" y1="660.23" x2="354.64" y2="680.21" class="down-wick"/>
<rect x="350.64" y="662.29" width="8.00" height="11.06" class="down-body"/>
<line x1="373.00" y1="669.68" x2="373.00" y2="690.97" class="up-wick"/>
<rect x="369.00" y="670.77" width="8.00" height="2.58" class="up-body"/>
<line x1="391.36" y1="665.65" x2="391.36" y2="698.45" class="down-wick"/>
<rect x="387.36" y="670.77" width="8.00" height="23.92" class="down-body"/>
<line x1="409.73" y1="669.81" x2="409.73" y2="694.82" class="up-wick"/>
<rect x="405.73" y="676.85" width="8.00" height="17.97" class="up-body"/>
<line x1="428.09" y1="655.99" x2="428.09" y2="693.42" class="down-wick"/>
<rect x="424.09" y="676.85" width="8.00" height="11.33" class="down-body"/>
<line x1="446.45" y1="686.34" x2="446.45" y2="723.03" class="down-wick"/>
<rect x="442.45" y="688.17" width="8.00" height="30.30" class="down-body"/>
<line x1="464.82" y1="711.66" x2="464.82" y2="732.60" class="up-wick"/>
<rect x="460.82" y="716.16" width="8.00" height="2.32" class="up-body"/>
<line x1="483.18" y1="715.81" x2="483.18" y2="766.67" class="down-wick"/>
<rect x="479.18" y="716.16" width="8.00" height="39.36" class="down-body"/>
<line x1="501.55" y1="739.08" x2="501.55" y2="774.76" class="up-wick"/>
<rect x="497.55" y="746.82" width="8.00" height="8.66" class="up-body"/>
<line x1="519.91" y1="704.53" x2="519.91" y2="748.52" class="up-wick"/>
<rect x="515.91" y="714.06" width="8.00" height="32.75" class="up-body"/>
<line x1="538.27" y1="696.26" x2="538.27" y2="727.57" class="up-wick"/>
<rect x="534.27" y="700.99" width="8.00" height="13.08" class="up-body"/>
<line x1="556.64" y1="691.28" x2="556.64" y2="714.32" class="up-wick"/>
<rect x="552.64" y="699.15" width="8.00" height="1.84" class="up-body"/>
<line x1="575.00" y1="680.91" x2="575.00" y2="702.95" class="up-wick"/>
<rect x="571.00" y="691.72" width="8.00" height="7.43" class="up-body"/>
<line x1="593.36" y1="690.97" x2="593.36" y2="711.44" class="down-wick"/>
<rect x="589.36" y="691.72" width="8.00" height="6.60" class="down-body"/>
<line x1="611.73" y1="692.42" x2="611.73" y2="710.96" class="down-wick"/>
<rect x="607.73" y="698.32" width="8.00" height="5.34" class="down-body"/>
<line x1="630.09" y1="696.74" x2="630.09" y2="724.43" class="down-wick"/>
<rect x="626.09" y="703.65" width="8.00" height="18.06" class="down-body"/>
<line x1="648.45" y1="718.87" x2="648.45" y2="763.74" class="down-wick"/>
<rect x="644.45" y="721.71" width="8.00" height="6.60" class="down-body"/>
<line x1="666.82" y1="724.25" x2="666.82" y2="741.44" class="down-wick"/>
<rect x="662.82" y="728.32" width="8.00" height="7.04" class="down-body"/>
<line x1="685.18" y1="730.46" x2="685.18" y2="757.14" class="down-wick"/>
<rect x="681.18" y="735.36" width="8.00" height="21.25" class="down-body"/>
<line x1="703.55" y1="717.65" x2="703.55" y2="774.19" class="up-wick"/>
<rect x="699.55" y="717.95" width="8.00" height="38.66" class="up-body"/>
<line x1="721.91" y1="714.59" x2="721.91" y2="741.61" class="down-wick"/>
<rect x="717.91" y="717.95" width="8.00" height="17.27" class="down-body"/>
<line x1="740.27" y1="701.34" x2="740.27" y2="767.89" class="up-wick"/>
<rect x="736.27" y="722.81" width="8.00" height="12.42" class="up-body"/>
<line x1="758.64" y1="706.15" x2="758.64" y2="757.27" class="up-wick"/>
<rect x="754.64" y="712.23" width="8.00" height="10.58" class="up-body"/>
<line x1="777.00" y1="689.49" x2="777.00" y2="750.71" class="down-wick"/>
<rect x="773.00" y="712.23" width="8.00" height="36.03" class="down-body"/>
<line x1="795.36" y1="699.81" x2="795.36" y2="765.71" class="down-wick"/>
<rect x="791.36" y="748.26" width="8.00" height="6.56" class="down-body"/>
<line x1="813.73" y1="684.54" x2="813.73" y2="758.40" class="up-wick"/>
<rect x="809.73" y="689.70" width="8.00" height="65.11" class="up-body"/>
<line x1="832.09" y1="676.94" x2="832.09" y2="706.45" class="up-wick"/>
<rect x="828.09" y="686.60" width="8.00" height="3.19" class="up-body"/>
<line x1="850.45" y1="639.02" x2="850.45" y2="734.26" class="down-wick"/>
<rect x="846.45" y="686.56" width="8.00" height="44.52" class="down-body"/>
<line x1="868.82" y1="711.61" x2="868.82" y2="746.68" class="up-wick"/>
<rect x="864.82" y="724.47" width="8.00" height="6.60" class="up-body"/>
<line x1="887.18" y1="717.25" x2="887.18" y2="771.70" class="up-wick"/>
<rect x="883.18" y="717.25" width="8.00" height="6.95" class="up-body"/>
<line x1="905.55" y1="671.43" x2="905.55" y2="726.48" class="up-wick"/>
<rect x="901.55" y="671.43" width="8.00" height="45.83" class="up-body"/>
<line x1="923.91" y1="658.00" x2="923.91" y2="696.53" class="up-wick"/>
<rect x="919.91" y="660.45" width="8.00" height="10.98" class="up-body"/>
<line x1="942.27" y1="649.39" x2="942.27" y2="669.24" class="up-wick"/>
<rect x="938.27" y="658.44" width="8.00" height="2.01" class="up-body"/>
<line x1="960.64" y1="634.08" x2="960.64" y2="670.86" class="up-wick"/>
<rect x="956.64" y="634.87" width="8.00" height="22.74" class="up-body"/>
<line x1="979.00" y1="609.24" x2="979.00" y2="691.41" class="down-wick"/>
<rect x="975.00" y="634.87" width="8.00" height="32.27" class="down-body"/>
<line x1="997.36" y1="633.99" x2="997.36" y2="675.14" class="up-wick"/>
<rect x="993.36" y="665.17" width="8.00" height="1.97" class="up-body"/>
<line x1="1015.73" y1="665.17" x2="1015.73" y2="697.27" class="down-wick"/>
<rect x="1011.73" y="665.17" width="8.00" height="26.63" class="down-body"/>
<line x1="1034.09" y1="658.22" x2="1034.09" y2="707.90" class="up-wick"/>
<rect x="1030.09" y="664.73" width="8.00" height="27.07" class="up-body"/>
<line x1="1052.45" y1="649.52" x2="1052.45" y2="685.42" class="down-wick"/>
<rect x="1048.45" y="664.73" width="8.00" height="7.39" class="down-body"/>
<line x1="1070.82" y1="667.45" x2="1070.82" y2="732.95" class="down-wick"/>
<rect x="1066.82" y="672.12" width="8.00" height="47.80" class="down-body"/>
<line x1="70" y1="683.06" x2="1080" y2="683.06" class="sweep-line"/>
<text x="1076" y="679.06" text-anchor="end" class="level-label">sweep 4680.60</text>
<line x1="70" y1="690.97" x2="1080" y2="690.97" class="entry-line"/>
<text x="1076" y="686.97" text-anchor="end" class="level-label">entry level 4678.79</text>
<text x="70" y="806" class="axis-label">2026-04-06 13:30:00+00:00 to 2026-04-06 18:00:00+00:00</text>
<text x="1080" y="806" text-anchor="end" class="axis-label">4656.60 - 4700.51</text>
<text x="70" y="832" class="panel-title">M1 execution window</text>
<rect x="70" y="846" width="1010" height="192" class="plot-bg"/>
<line x1="73.71" y1="888.88" x2="73.71" y2="894.37" class="up-wick"/>
<rect x="71.30" y="890.74" width="4.83" height="1.00" class="up-body"/>
<line x1="81.14" y1="878.00" x2="81.14" y2="887.39" class="up-wick"/>
<rect x="78.73" y="878.46" width="4.83" height="6.84" class="up-body"/>
<line x1="88.57" y1="874.15" x2="88.57" y2="892.73" class="down-wick"/>
<rect x="86.15" y="874.15" width="4.83" height="15.86" class="down-body"/>
<line x1="95.99" y1="895.86" x2="95.99" y2="900.58" class="up-wick"/>
<rect x="93.58" y="897.22" width="4.83" height="2.27" class="up-body"/>
<line x1="103.42" y1="883.13" x2="103.42" y2="888.20" class="down-wick"/>
<rect x="101.01" y="887.43" width="4.83" height="1.00" class="down-body"/>
<line x1="110.85" y1="867.85" x2="110.85" y2="881.77" class="up-wick"/>
<rect x="108.43" y="870.44" width="4.83" height="11.29" class="up-body"/>
<line x1="118.27" y1="865.72" x2="118.27" y2="868.80" class="up-wick"/>
<rect x="115.86" y="866.18" width="4.83" height="2.27" class="up-body"/>
<line x1="125.70" y1="859.24" x2="125.70" y2="867.08" class="down-wick"/>
<rect x="123.28" y="864.91" width="4.83" height="2.18" class="down-body"/>
<line x1="133.12" y1="867.85" x2="133.12" y2="913.90" class="down-wick"/>
<rect x="130.71" y="870.57" width="4.83" height="33.27" class="down-body"/>
<line x1="140.55" y1="875.78" x2="140.55" y2="897.04" class="up-wick"/>
<rect x="138.14" y="876.10" width="4.83" height="20.40" class="up-body"/>
<line x1="147.98" y1="872.61" x2="147.98" y2="883.22" class="up-wick"/>
<rect x="145.56" y="873.06" width="4.83" height="4.89" class="up-body"/>
<line x1="155.40" y1="874.79" x2="155.40" y2="881.18" class="up-wick"/>
<rect x="152.99" y="880.23" width="4.83" height="1.00" class="up-body"/>
<line x1="162.83" y1="871.52" x2="162.83" y2="885.85" class="down-wick"/>
<rect x="160.42" y="871.57" width="4.83" height="13.69" class="down-body"/>
<line x1="170.26" y1="877.91" x2="170.26" y2="888.29" class="down-wick"/>
<rect x="167.84" y="884.76" width="4.83" height="3.54" class="down-body"/>
<line x1="177.68" y1="887.39" x2="177.68" y2="895.91" class="down-wick"/>
<rect x="175.27" y="888.34" width="4.83" height="2.08" class="down-body"/>
<line x1="185.11" y1="885.57" x2="185.11" y2="894.14" class="up-wick"/>
<rect x="182.70" y="886.71" width="4.83" height="4.62" class="up-body"/>
<line x1="192.54" y1="863.59" x2="192.54" y2="881.31" class="up-wick"/>
<rect x="190.12" y="867.31" width="4.83" height="11.74" class="up-body"/>
<line x1="199.96" y1="864.73" x2="199.96" y2="876.96" class="down-wick"/>
<rect x="197.55" y="867.94" width="4.83" height="8.97" class="down-body"/>
<line x1="207.39" y1="869.12" x2="207.39" y2="873.34" class="down-wick"/>
<rect x="204.98" y="870.44" width="4.83" height="2.76" class="down-body"/>
<line x1="214.82" y1="859.51" x2="214.82" y2="869.89" class="up-wick"/>
<rect x="212.40" y="868.49" width="4.83" height="1.36" class="up-body"/>
<line x1="222.24" y1="874.38" x2="222.24" y2="880.04" class="down-wick"/>
<rect x="219.83" y="878.55" width="4.83" height="1.00" class="down-body"/>
<line x1="229.67" y1="888.66" x2="229.67" y2="895.73" class="up-wick"/>
<rect x="227.26" y="890.38" width="4.83" height="2.45" class="up-body"/>
<line x1="237.10" y1="886.25" x2="237.10" y2="893.87" class="down-wick"/>
<rect x="234.68" y="891.24" width="4.83" height="1.68" class="down-body"/>
<line x1="244.52" y1="891.42" x2="244.52" y2="899.90" class="up-wick"/>
<rect x="242.11" y="892.33" width="4.83" height="4.31" class="up-body"/>
<line x1="251.95" y1="885.26" x2="251.95" y2="894.73" class="down-wick"/>
<rect x="249.53" y="887.61" width="4.83" height="1.95" class="down-body"/>
<line x1="259.38" y1="879.77" x2="259.38" y2="890.02" class="down-wick"/>
<rect x="256.96" y="882.81" width="4.83" height="6.80" class="down-body"/>
<line x1="266.80" y1="894.14" x2="266.80" y2="911.41" class="down-wick"/>
<rect x="264.39" y="894.46" width="4.83" height="14.96" class="down-body"/>
<line x1="274.23" y1="896.41" x2="274.23" y2="901.48" class="down-wick"/>
<rect x="271.81" y="898.49" width="4.83" height="1.00" class="down-body"/>
<line x1="281.65" y1="901.39" x2="281.65" y2="907.10" class="down-wick"/>
<rect x="279.24" y="905.97" width="4.83" height="1.00" class="down-body"/>
<line x1="289.08" y1="887.93" x2="289.08" y2="895.00" class="up-wick"/>
<rect x="286.67" y="889.70" width="4.83" height="4.76" class="up-body"/>
<line x1="296.51" y1="894.91" x2="296.51" y2="902.75" class="down-wick"/>
<rect x="294.09" y="897.45" width="4.83" height="1.00" class="down-body"/>
<line x1="303.93" y1="894.91" x2="303.93" y2="899.99" class="up-wick"/>
<rect x="301.52" y="895.27" width="4.83" height="2.36" class="up-body"/>
<line x1="311.36" y1="886.66" x2="311.36" y2="898.94" class="down-wick"/>
<rect x="308.95" y="886.89" width="4.83" height="6.66" class="down-body"/>
<line x1="318.79" y1="896.36" x2="318.79" y2="902.66" class="up-wick"/>
<rect x="316.37" y="899.62" width="4.83" height="1.68" class="up-body"/>
<line x1="326.21" y1="903.34" x2="326.21" y2="911.18" class="down-wick"/>
<rect x="323.80" y="904.16" width="4.83" height="5.17" class="down-body"/>
<line x1="333.64" y1="872.38" x2="333.64" y2="892.24" class="up-wick"/>
<rect x="331.23" y="875.97" width="4.83" height="16.13" class="up-body"/>
<line x1="341.07" y1="883.58" x2="341.07" y2="892.83" class="down-wick"/>
<rect x="338.65" y="886.07" width="4.83" height="1.13" class="down-body"/>
<line x1="348.49" y1="889.06" x2="348.49" y2="911.36" class="down-wick"/>
<rect x="346.08" y="890.11" width="4.83" height="21.26" class="down-body"/>
<line x1="355.92" y1="915.62" x2="355.92" y2="925.55" class="down-wick"/>
<rect x="353.51" y="917.25" width="4.83" height="3.63" class="down-body"/>
<line x1="363.35" y1="916.48" x2="363.35" y2="929.94" class="down-wick"/>
<rect x="360.93" y="917.93" width="4.83" height="3.58" class="down-body"/>
<line x1="370.77" y1="922.19" x2="370.77" y2="932.89" class="down-wick"/>
<rect x="368.36" y="922.83" width="4.83" height="7.07" class="down-body"/>
<line x1="378.20" y1="919.02" x2="378.20" y2="928.49" class="up-wick"/>
<rect x="375.78" y="921.20" width="4.83" height="4.17" class="up-body"/>
<line x1="385.62" y1="920.11" x2="385.62" y2="929.63" class="up-wick"/>
<rect x="383.21" y="920.15" width="4.83" height="4.94" class="up-body"/>
<line x1="393.05" y1="917.84" x2="393.05" y2="936.02" class="down-wick"/>
<rect x="390.64" y="917.89" width="4.83" height="15.27" class="down-body"/>
<line x1="400.48" y1="937.74" x2="400.48" y2="946.99" class="down-wick"/>
<rect x="398.06" y="940.46" width="4.83" height="5.26" class="down-body"/>
<line x1="407.90" y1="929.36" x2="407.90" y2="945.08" class="up-wick"/>
<rect x="405.49" y="932.57" width="4.83" height="12.51" class="up-body"/>
<line x1="415.33" y1="919.16" x2="415.33" y2="929.36" class="up-wick"/>
<rect x="412.92" y="922.10" width="4.83" height="4.67" class="up-body"/>
<line x1="422.76" y1="920.70" x2="422.76" y2="926.59" class="down-wick"/>
<rect x="420.34" y="921.42" width="4.83" height="5.03" class="down-body"/>
<line x1="430.18" y1="904.84" x2="430.18" y2="916.94" class="down-wick"/>
<rect x="427.77" y="914.99" width="4.83" height="1.18" class="down-body"/>
<line x1="437.61" y1="932.48" x2="437.61" y2="943.63" class="down-wick"/>
<rect x="435.20" y="933.07" width="4.83" height="6.84" class="down-body"/>
<line x1="445.04" y1="936.29" x2="445.04" y2="944.04" class="down-wick"/>
<rect x="442.62" y="938.19" width="4.83" height="5.21" class="down-body"/>
<line x1="452.46" y1="952.11" x2="452.46" y2="962.08" class="up-wick"/>
<rect x="450.05" y="958.77" width="4.83" height="1.54" class="up-body"/>
<line x1="459.89" y1="965.25" x2="459.89" y2="972.86" class="up-wick"/>
<rect x="457.48" y="969.60" width="4.83" height="2.49" class="up-body"/>
<line x1="467.32" y1="968.92" x2="467.32" y2="984.24" class="up-wick"/>
<rect x="464.90" y="971.60" width="4.83" height="8.02" class="up-body"/>
<line x1="474.74" y1="962.53" x2="474.74" y2="976.94" class="up-wick"/>
<rect x="472.33" y="968.29" width="4.83" height="7.57" class="up-body"/>
<line x1="482.17" y1="966.84" x2="482.17" y2="992.40" class="down-wick"/>
<rect x="479.76" y="967.20" width="4.83" height="20.80" class="down-body"/>
<line x1="489.60" y1="993.26" x2="489.60" y2="1014.15" class="down-wick"/>
<rect x="487.18" y="1003.82" width="4.83" height="9.16" class="down-body"/>
<line x1="497.02" y1="1003.37" x2="497.02" y2="1012.57" class="down-wick"/>
<rect x="494.61" y="1005.22" width="4.83" height="2.76" class="down-body"/>
<line x1="504.45" y1="1005.68" x2="504.45" y2="1023.04" class="up-wick"/>
<rect x="502.03" y="1010.12" width="4.83" height="12.28" class="up-body"/>
<line x1="511.88" y1="990.95" x2="511.88" y2="1000.24" class="up-wick"/>
<rect x="509.46" y="996.84" width="4.83" height="1.72" class="up-body"/>
<line x1="519.30" y1="987.10" x2="519.30" y2="1000.74" class="up-wick"/>
<rect x="516.89" y="987.41" width="4.83" height="11.56" class="up-body"/>
<line x1="526.73" y1="967.88" x2="526.73" y2="977.44" class="up-wick"/>
<rect x="524.31" y="968.29" width="4.83" height="4.71" class="up-body"/>
<line x1="534.15" y1="955.14" x2="534.15" y2="971.69" class="down-wick"/>
<rect x="531.74" y="956.87" width="4.83" height="8.16" class="down-body"/>
<line x1="541.58" y1="959.45" x2="541.58" y2="977.49" class="up-wick"/>
<rect x="539.17" y="959.54" width="4.83" height="10.06" class="up-body"/>
<line x1="549.01" y1="946.58" x2="549.01" y2="954.87" class="down-wick"/>
<rect x="546.59" y="950.84" width="4.83" height="3.90" class="down-body"/>
<line x1="556.43" y1="941.41" x2="556.43" y2="956.55" class="down-wick"/>
<rect x="554.02" y="951.47" width="4.83" height="5.08" class="down-body"/>
<line x1="563.86" y1="952.79" x2="563.86" y2="957.82" class="up-wick"/>
<rect x="561.45" y="955.64" width="4.83" height="1.00" class="up-body"/>
<line x1="571.29" y1="949.30" x2="571.29" y2="962.35" class="up-wick"/>
<rect x="568.87" y="949.57" width="4.83" height="6.30" class="up-body"/>
<line x1="578.71" y1="944.18" x2="578.71" y2="949.98" class="down-wick"/>
<rect x="576.30" y="944.40" width="4.83" height="3.99" class="down-body"/>
<line x1="586.14" y1="936.92" x2="586.14" y2="952.92" class="up-wick"/>
<rect x="583.73" y="937.88" width="4.83" height="15.05" class="up-body"/>
<line x1="593.57" y1="941.09" x2="593.57" y2="947.17" class="down-wick"/>
<rect x="591.15" y="941.86" width="4.83" height="1.13" class="down-body"/>
<line x1="600.99" y1="951.16" x2="600.99" y2="962.30" class="down-wick"/>
<rect x="598.58" y="952.20" width="4.83" height="3.81" class="down-body"/>
<line x1="608.42" y1="945.31" x2="608.42" y2="954.01" class="up-wick"/>
<rect x="606.01" y="948.71" width="4.83" height="4.08" class="up-body"/>
<line x1="615.85" y1="942.91" x2="615.85" y2="960.49" class="down-wick"/>
<rect x="613.43" y="942.95" width="4.83" height="13.32" class="down-body"/>
<line x1="623.27" y1="955.05" x2="623.27" y2="960.94" class="down-wick"/>
<rect x="620.86" y="957.09" width="4.83" height="1.00" class="down-body"/>
<line x1="630.70" y1="947.08" x2="630.70" y2="956.28" class="up-wick"/>
<rect x="628.28" y="953.01" width="4.83" height="1.22" class="up-body"/>
<line x1="638.12" y1="947.35" x2="638.12" y2="965.43" class="up-wick"/>
<rect x="635.71" y="957.23" width="4.83" height="1.36" class="up-body"/>
<line x1="645.55" y1="964.25" x2="645.55" y2="975.77" class="down-wick"/>
<rect x="643.14" y="964.62" width="4.83" height="8.34" class="down-body"/>
<line x1="652.98" y1="980.71" x2="652.98" y2="991.81" class="down-wick"/>
<rect x="650.56" y="984.78" width="4.83" height="4.80" class="down-body"/>
<line x1="660.40" y1="999.20" x2="660.40" y2="1016.51" class="up-wick"/>
<rect x="657.99" y="1011.52" width="4.83" height="2.04" class="up-body"/>
<line x1="667.83" y1="977.53" x2="667.83" y2="988.05" class="down-wick"/>
<rect x="665.42" y="979.80" width="4.83" height="3.99" class="down-body"/>
<line x1="675.26" y1="978.30" x2="675.26" y2="987.01" class="up-wick"/>
<rect x="672.84" y="978.35" width="4.83" height="6.21" class="up-body"/>
<line x1="682.68" y1="983.79" x2="682.68" y2="993.40" class="up-wick"/>
<rect x="680.27" y="987.10" width="4.83" height="4.35" class="up-body"/>
<line x1="690.11" y1="982.02" x2="690.11" y2="994.80" class="up-wick"/>
<rect x="687.70" y="984.15" width="4.83" height="1.00" class="up-body"/>
<line x1="697.54" y1="986.73" x2="697.54" y2="993.30" class="up-wick"/>
<rect x="695.12" y="989.36" width="4.83" height="1.13" class="up-body"/>
<line x1="704.96" y1="1000.28" x2="704.96" y2="1012.25" class="up-wick"/>
<rect x="702.55" y="1003.32" width="4.83" height="5.80" class="up-body"/>
<line x1="712.39" y1="988.55" x2="712.39" y2="1024.58" class="up-wick"/>
<rect x="709.98" y="993.08" width="4.83" height="28.33" class="up-body"/>
<line x1="719.82" y1="968.74" x2="719.82" y2="985.46" class="up-wick"/>
<rect x="717.40" y="969.06" width="4.83" height="16.41" class="up-body"/>
<line x1="727.24" y1="982.20" x2="727.24" y2="989.68" class="up-wick"/>
<rect x="724.83" y="983.47" width="4.83" height="3.04" class="up-body"/>
<line x1="734.67" y1="971.19" x2="734.67" y2="978.30" class="down-wick"/>
<rect x="732.26" y="971.19" width="4.83" height="6.30" class="down-body"/>
<line x1="742.10" y1="954.28" x2="742.10" y2="986.96" class="up-wick"/>
<rect x="739.68" y="971.46" width="4.83" height="15.50" class="up-body"/>
<line x1="749.52" y1="960.04" x2="749.52" y2="1020.82" class="down-wick"/>
<rect x="747.11" y="965.07" width="4.83" height="40.43" class="down-body"/>
<line x1="756.95" y1="974.00" x2="756.95" y2="999.97" class="up-wick"/>
<rect x="754.53" y="974.09" width="4.83" height="1.00" class="up-body"/>
<line x1="764.38" y1="976.63" x2="764.38" y2="1009.80" class="down-wick"/>
<rect x="761.96" y="976.81" width="4.83" height="22.93" class="down-body"/>
<line x1="771.80" y1="977.53" x2="771.80" y2="991.27" class="up-wick"/>
<rect x="769.39" y="983.11" width="4.83" height="2.27" class="up-body"/>
<line x1="779.23" y1="957.09" x2="779.23" y2="981.84" class="up-wick"/>
<rect x="776.81" y="959.31" width="4.83" height="3.81" class="up-body"/>
<line x1="786.65" y1="939.60" x2="786.65" y2="953.83" class="down-wick"/>
<rect x="784.24" y="940.60" width="4.83" height="8.61" class="down-body"/>
<line x1="794.08" y1="967.83" x2="794.08" y2="1003.00" class="down-wick"/>
<rect x="791.67" y="970.87" width="4.83" height="29.60" class="down-body"/>
<line x1="801.51" y1="950.25" x2="801.51" y2="991.49" class="up-wick"/>
<rect x="799.09" y="971.14" width="4.83" height="19.90" class="up-body"/>
<line x1="808.93" y1="976.26" x2="808.93" y2="993.08" class="down-wick"/>
<rect x="806.52" y="978.35" width="4.83" height="2.49" class="down-body"/>
<line x1="816.36" y1="982.79" x2="816.36" y2="1010.98" class="up-wick"/>
<rect x="813.95" y="987.78" width="4.83" height="19.49" class="up-body"/>
<line x1="823.79" y1="940.50" x2="823.79" y2="979.30" class="up-wick"/>
<rect x="821.37" y="959.04" width="4.83" height="17.27" class="up-body"/>
<line x1="831.21" y1="934.43" x2="831.21" y2="947.94" class="up-wick"/>
<rect x="828.80" y="939.78" width="4.83" height="5.53" class="up-body"/>
<line x1="838.64" y1="928.13" x2="838.64" y2="957.14" class="up-wick"/>
<rect x="836.23" y="931.53" width="4.83" height="23.98" class="up-body"/>
<line x1="846.07" y1="933.93" x2="846.07" y2="946.49" class="down-wick"/>
<rect x="843.65" y="935.34" width="4.83" height="5.12" class="down-body"/>
<line x1="853.49" y1="887.25" x2="853.49" y2="936.52" class="up-wick"/>
<rect x="851.08" y="914.94" width="4.83" height="21.57" class="up-body"/>
<line x1="860.92" y1="917.07" x2="860.92" y2="935.70" class="down-wick"/>
<rect x="858.51" y="923.92" width="4.83" height="11.47" class="down-body"/>
<line x1="868.35" y1="948.98" x2="868.35" y2="985.96" class="down-wick"/>
<rect x="865.93" y="957.45" width="4.83" height="25.20" class="down-body"/>
<line x1="875.77" y1="976.67" x2="875.77" y2="995.30" class="down-wick"/>
<rect x="873.36" y="985.15" width="4.83" height="3.67" class="down-body"/>
<line x1="883.20" y1="984.60" x2="883.20" y2="998.83" class="up-wick"/>
<rect x="880.78" y="987.19" width="4.83" height="5.26" class="up-body"/>
<line x1="890.62" y1="971.19" x2="890.62" y2="1024.76" class="down-wick"/>
<rect x="888.21" y="975.54" width="4.83" height="31.54" class="down-body"/>
<line x1="898.05" y1="985.46" x2="898.05" y2="1006.04" class="up-wick"/>
<rect x="895.64" y="999.20" width="4.83" height="2.22" class="up-body"/>
<line x1="905.48" y1="968.33" x2="905.48" y2="987.59" class="up-wick"/>
<rect x="903.06" y="968.33" width="4.83" height="12.74" class="up-body"/>
<line x1="912.90" y1="964.57" x2="912.90" y2="976.54" class="up-wick"/>
<rect x="910.49" y="964.80" width="4.83" height="5.76" class="up-body"/>
<line x1="920.33" y1="944.72" x2="920.33" y2="959.27" class="up-wick"/>
<rect x="917.92" y="946.89" width="4.83" height="2.31" class="up-body"/>
<line x1="927.76" y1="906.92" x2="927.76" y2="946.85" class="down-wick"/>
<rect x="925.34" y="920.83" width="4.83" height="14.28" class="down-body"/>
<line x1="935.18" y1="911.68" x2="935.18" y2="932.44" class="up-wick"/>
<rect x="932.77" y="919.61" width="4.83" height="9.88" class="up-body"/>
<line x1="942.61" y1="909.28" x2="942.61" y2="924.46" class="up-wick"/>
<rect x="940.20" y="909.46" width="4.83" height="10.61" class="up-body"/>
<line x1="950.04" y1="897.99" x2="950.04" y2="915.67" class="up-wick"/>
<rect x="947.62" y="903.48" width="4.83" height="8.16" class="up-body"/>
<line x1="957.46" y1="900.21" x2="957.46" y2="916.66" class="up-wick"/>
<rect x="955.05" y="902.71" width="4.83" height="6.71" class="up-body"/>
<line x1="964.89" y1="892.46" x2="964.89" y2="910.55" class="up-wick"/>
<rect x="962.48" y="892.51" width="4.83" height="14.00" class="up-body"/>
<line x1="972.32" y1="891.83" x2="972.32" y2="913.40" class="down-wick"/>
<rect x="969.90" y="900.03" width="4.83" height="7.98" class="down-body"/>
<line x1="979.74" y1="882.13" x2="979.74" y2="911.68" class="up-wick"/>
<rect x="977.33" y="882.94" width="4.83" height="28.73" class="up-body"/>
<line x1="987.17" y1="870.44" x2="987.17" y2="891.33" class="down-wick"/>
<rect x="984.76" y="875.78" width="4.83" height="12.15" class="down-body"/>
<line x1="994.60" y1="874.79" x2="994.60" y2="941.55" class="down-wick"/>
<rect x="992.18" y="894.86" width="4.83" height="36.58" class="down-body"/>
<line x1="1002.02" y1="899.44" x2="1002.02" y2="924.69" class="up-wick"/>
<rect x="999.61" y="900.71" width="4.83" height="15.68" class="up-body"/>
<line x1="1009.45" y1="887.84" x2="1009.45" y2="909.37" class="down-wick"/>
<rect x="1007.03" y="895.77" width="4.83" height="12.37" class="down-body"/>
<line x1="1016.88" y1="891.01" x2="1016.88" y2="917.84" class="down-wick"/>
<rect x="1014.46" y="897.81" width="4.83" height="16.54" class="down-body"/>
<line x1="1024.30" y1="925.91" x2="1024.30" y2="947.62" class="up-wick"/>
<rect x="1021.89" y="926.73" width="4.83" height="8.61" class="up-body"/>
<line x1="1031.73" y1="928.27" x2="1031.73" y2="941.64" class="down-wick"/>
<rect x="1029.31" y="932.30" width="4.83" height="5.94" class="down-body"/>
<line x1="1039.15" y1="936.29" x2="1039.15" y2="954.83" class="down-wick"/>
<rect x="1036.74" y="941.95" width="4.83" height="7.43" class="down-body"/>
<line x1="1046.58" y1="918.12" x2="1046.58" y2="937.74" class="up-wick"/>
<rect x="1044.17" y="919.97" width="4.83" height="9.34" class="up-body"/>
<line x1="1054.01" y1="909.82" x2="1054.01" y2="923.19" class="down-wick"/>
<rect x="1051.59" y="913.85" width="4.83" height="1.00" class="down-body"/>
<line x1="1061.43" y1="912.00" x2="1061.43" y2="935.34" class="up-wick"/>
<rect x="1059.02" y="912.09" width="4.83" height="13.01" class="up-body"/>
<line x1="1068.86" y1="898.76" x2="1068.86" y2="913.49" class="up-wick"/>
<rect x="1066.45" y="902.25" width="4.83" height="8.29" class="up-body"/>
<line x1="1076.29" y1="916.71" x2="1076.29" y2="940.28" class="down-wick"/>
<rect x="1073.87" y="921.56" width="4.83" height="17.27" class="down-body"/>
<line x1="70" y1="932.89" x2="1080" y2="932.89" class="sweep-line"/>
<text x="1076" y="928.89" text-anchor="end" class="level-label">sweep 4680.60</text>
<line x1="70" y1="941.09" x2="1080" y2="941.09" class="entry-line"/>
<text x="1076" y="937.09" text-anchor="end" class="level-label">entry level 4678.79</text>
<text x="70" y="1056" class="axis-label">2026-04-06 13:30:00+00:00 to 2026-04-06 18:00:00+00:00</text>
<text x="1080" y="1056" text-anchor="end" class="axis-label">4657.41 - 4699.77</text>
</svg>