<svg xmlns="http://www.w3.org/2000/svg" width="1120" height="1054" viewBox="0 0 1120 1054">
<style>
text{font-family:Arial,Helvetica,sans-serif}.title{font-size:21px;font-weight:700;fill:#1f2937}.subtitle{font-size:12px;fill:#4b5563}.panel-title{font-size:15px;font-weight:700;fill:#111827}.muted{font-size:13px;fill:#6b7280}.plot-bg{fill:#f8fafc;stroke:#cbd5e1;stroke-width:1}.up-body{fill:#15803d;stroke:#14532d;stroke-width:.8}.down-body{fill:#b91c1c;stroke:#7f1d1d;stroke-width:.8}.up-wick{stroke:#14532d;stroke-width:1}.down-wick{stroke:#7f1d1d;stroke-width:1}.sweep-line{stroke:#7c3aed;stroke-width:1.6;stroke-dasharray:6 4}.number-line{stroke:#0f766e;stroke-width:1.4;stroke-dasharray:3 4}.entry-line{stroke:#2563eb;stroke-width:1.4}.sl-line{stroke:#dc2626;stroke-width:1.4}.tp-line{stroke:#16a34a;stroke-width:1.4}.level-label,.axis-label{font-size:11px;fill:#374151}
</style>
<text x="28" y="28" class="title">Adelin v2 visual review sample sample_023</text>
<text x="28" y="48" class="subtitle">Candidate windows are for visual labeling only and are not trade signals.</text>
<text x="560" y="48" class="subtitle" text-anchor="middle">LARGE_LOWER_WICK_REVERSAL_VISUAL_CANDIDATE | PRE_ANCHOR_SWEEP_EXTREME_CANDIDATE</text>
<text x="70" y="82" class="panel-title">H1 liquidity context</text>
<rect x="70" y="96" width="1010" height="192" class="plot-bg"/>
<line x1="80.98" y1="109.24" x2="80.98" y2="132.22" class="up-wick"/>
<rect x="76.98" y="114.97" width="8.00" height="4.30" class="up-body"/>
<line x1="102.93" y1="114.69" x2="102.93" y2="141.62" class="down-wick"/>
<rect x="98.93" y="114.97" width="8.00" height="16.05" class="down-body"/>
<line x1="124.89" y1="130.89" x2="124.89" y2="176.50" class="down-wick"/>
<rect x="120.89" y="131.11" width="8.00" height="33.29" class="down-body"/>
<line x1="146.85" y1="153.58" x2="146.85" y2="205.75" class="up-wick"/>
<rect x="142.85" y="157.00" width="8.00" height="7.39" class="up-body"/>
<line x1="168.80" y1="140.27" x2="168.80" y2="166.33" class="up-wick"/>
<rect x="164.80" y="143.99" width="8.00" height="13.01" class="up-body"/>
<line x1="190.76" y1="143.92" x2="190.76" y2="174.45" class="down-wick"/>
<rect x="186.76" y="143.99" width="8.00" height="20.98" class="down-body"/>
<line x1="212.72" y1="152.99" x2="212.72" y2="168.96" class="up-wick"/>
<rect x="208.72" y="153.44" width="8.00" height="11.53" class="up-body"/>
<line x1="234.67" y1="160.18" x2="234.67" y2="201.65" class="down-wick"/>
<rect x="230.67" y="183.19" width="8.00" height="7.90" class="down-body"/>
<line x1="256.63" y1="155.86" x2="256.63" y2="191.44" class="up-wick"/>
<rect x="252.63" y="184.88" width="8.00" height="6.12" class="up-body"/>
<line x1="278.59" y1="180.48" x2="278.59" y2="229.81" class="down-wick"/>
<rect x="274.59" y="184.88" width="8.00" height="7.35" class="down-body"/>
<line x1="300.54" y1="183.37" x2="300.54" y2="201.72" class="down-wick"/>
<rect x="296.54" y="192.23" width="8.00" height="6.40" class="down-body"/>
<line x1="322.50" y1="194.13" x2="322.50" y2="218.39" class="down-wick"/>
<rect x="318.50" y="198.66" width="8.00" height="15.81" class="down-body"/>
<line x1="344.46" y1="198.04" x2="344.46" y2="225.06" class="up-wick"/>
<rect x="340.46" y="206.38" width="8.00" height="8.09" class="up-body"/>
<line x1="366.41" y1="202.31" x2="366.41" y2="251.08" class="down-wick"/>
<rect x="362.41" y="206.37" width="8.00" height="32.06" class="down-body"/>
<line x1="388.37" y1="232.45" x2="388.37" y2="274.76" class="down-wick"/>
<rect x="384.37" y="238.43" width="8.00" height="11.01" class="down-body"/>
<line x1="410.33" y1="221.30" x2="410.33" y2="254.08" class="up-wick"/>
<rect x="406.33" y="229.18" width="8.00" height="20.26" class="up-body"/>
<line x1="432.28" y1="213.41" x2="432.28" y2="235.36" class="up-wick"/>
<rect x="428.28" y="215.94" width="8.00" height="13.23" class="up-body"/>
<line x1="454.24" y1="193.58" x2="454.24" y2="225.15" class="up-wick"/>
<rect x="450.24" y="196.54" width="8.00" height="19.40" class="up-body"/>
<line x1="476.20" y1="192.96" x2="476.20" y2="211.84" class="down-wick"/>
<rect x="472.20" y="196.54" width="8.00" height="3.41" class="down-body"/>
<line x1="498.15" y1="181.80" x2="498.15" y2="200.46" class="up-wick"/>
<rect x="494.15" y="185.13" width="8.00" height="14.81" class="up-body"/>
<line x1="520.11" y1="173.61" x2="520.11" y2="190.73" class="up-wick"/>
<rect x="516.11" y="178.11" width="8.00" height="7.02" class="up-body"/>
<line x1="542.07" y1="175.82" x2="542.07" y2="208.89" class="down-wick"/>
<rect x="538.07" y="178.11" width="8.00" height="21.73" class="down-body"/>
<line x1="564.02" y1="178.14" x2="564.02" y2="206.26" class="up-wick"/>
<rect x="560.02" y="196.61" width="8.00" height="3.24" class="up-body"/>
<line x1="585.98" y1="190.15" x2="585.98" y2="221.82" class="down-wick"/>
<rect x="581.98" y="196.61" width="8.00" height="24.43" class="down-body"/>
<line x1="607.93" y1="199.24" x2="607.93" y2="226.94" class="up-wick"/>
<rect x="603.93" y="209.76" width="8.00" height="11.28" class="up-body"/>
<line x1="629.89" y1="197.88" x2="629.89" y2="212.05" class="up-wick"/>
<rect x="625.89" y="207.77" width="8.00" height="1.98" class="up-body"/>
<line x1="651.85" y1="207.71" x2="651.85" y2="221.48" class="down-wick"/>
<rect x="647.85" y="207.77" width="8.00" height="3.99" class="down-body"/>
<line x1="673.80" y1="198.19" x2="673.80" y2="218.27" class="up-wick"/>
<rect x="669.80" y="204.93" width="8.00" height="6.83" class="up-body"/>
<line x1="695.76" y1="201.22" x2="695.76" y2="214.25" class="down-wick"/>
<rect x="691.76" y="204.90" width="8.00" height="8.13" class="down-body"/>
<line x1="717.72" y1="204.52" x2="717.72" y2="215.20" class="up-wick"/>
<rect x="713.72" y="211.56" width="8.00" height="1.46" class="up-body"/>
<line x1="739.67" y1="182.77" x2="739.67" y2="211.56" class="up-wick"/>
<rect x="735.67" y="183.07" width="8.00" height="28.49" class="up-body"/>
<line x1="761.63" y1="169.21" x2="761.63" y2="185.05" class="up-wick"/>
<rect x="757.63" y="181.57" width="8.00" height="1.51" class="up-body"/>
<line x1="783.59" y1="162.78" x2="783.59" y2="184.96" class="up-wick"/>
<rect x="779.59" y="166.45" width="8.00" height="15.11" class="up-body"/>
<line x1="805.54" y1="166.38" x2="805.54" y2="190.15" class="down-wick"/>
<rect x="801.54" y="166.45" width="8.00" height="14.38" class="down-body"/>
<line x1="827.50" y1="173.43" x2="827.50" y2="188.55" class="up-wick"/>
<rect x="823.50" y="174.45" width="8.00" height="6.38" class="up-body"/>
<line x1="849.46" y1="170.49" x2="849.46" y2="176.52" class="down-wick"/>
<rect x="845.46" y="174.47" width="8.00" height="1.00" class="down-body"/>
<line x1="871.41" y1="166.29" x2="871.41" y2="174.48" class="up-wick"/>
<rect x="867.41" y="170.52" width="8.00" height="3.96" class="up-body"/>
<line x1="893.37" y1="153.53" x2="893.37" y2="172.60" class="up-wick"/>
<rect x="889.37" y="156.65" width="8.00" height="13.87" class="up-body"/>
<line x1="915.33" y1="143.77" x2="915.33" y2="158.99" class="up-wick"/>
<rect x="911.33" y="147.83" width="8.00" height="8.88" class="up-body"/>
<line x1="937.28" y1="139.80" x2="937.28" y2="152.48" class="down-wick"/>
<rect x="933.28" y="147.83" width="8.00" height="1.15" class="down-body"/>
<line x1="959.24" y1="145.64" x2="959.24" y2="155.87" class="up-wick"/>
<rect x="955.24" y="148.11" width="8.00" height="1.00" class="up-body"/>
<line x1="981.20" y1="144.71" x2="981.20" y2="151.64" class="down-wick"/>
<rect x="977.20" y="148.08" width="8.00" height="3.42" class="down-body"/>
<line x1="1003.15" y1="147.32" x2="1003.15" y2="156.07" class="up-wick"/>
<rect x="999.15" y="147.90" width="8.00" height="3.60" class="up-body"/>
<line x1="1025.11" y1="143.14" x2="1025.11" y2="153.95" class="down-wick"/>
<rect x="1021.11" y="147.90" width="8.00" height="1.00" class="down-body"/>
<line x1="1047.07" y1="139.51" x2="1047.07" y2="151.43" class="up-wick"/>
<rect x="1043.07" y="144.01" width="8.00" height="4.68" class="up-body"/>
<line x1="1069.02" y1="143.11" x2="1069.02" y2="153.62" class="down-wick"/>
<rect x="1065.02" y="143.99" width="8.00" height="3.83" class="down-body"/>
<line x1="70" y1="207.92" x2="1080" y2="207.92" class="sweep-line"/>
<text x="1076" y="203.92" text-anchor="end" class="level-label">sweep 4673.38</text>
<line x1="70" y1="208.89" x2="1080" y2="208.89" class="entry-line"/>
<text x="1076" y="204.89" text-anchor="end" class="level-label">entry level 4669.45</text>
<text x="70" y="306" class="axis-label">2026-01-30 17:00:00+00:00 to 2026-02-03 16:00:00+00:00</text>
<text x="1080" y="306" text-anchor="end" class="axis-label">4348.40 - 5127.58</text>
<text x="70" y="332" class="panel-title">M15 liquidity / reaction context</text>
<rect x="70" y="346" width="1010" height="192" class="plot-bg"/>
<line x1="76.92" y1="386.14" x2="76.92" y2="398.46" class="up-wick"/>
<rect x="72.92" y="389.25" width="8.00" height="2.66" class="up-body"/>
<line x1="90.75" y1="375.22" x2="90.75" y2="390.26" class="up-wick"/>
<rect x="86.75" y="378.63" width="8.00" height="10.36" class="up-body"/>
<line x1="104.59" y1="378.62" x2="104.59" y2="405.24" class="down-wick"/>
<rect x="100.59" y="378.63" width="8.00" height="21.57" class="down-body"/>
<line x1="118.42" y1="393.21" x2="118.42" y2="408.35" class="down-wick"/>
<rect x="114.42" y="400.24" width="8.00" height="7.44" class="down-body"/>
<line x1="132.26" y1="392.82" x2="132.26" y2="420.11" class="up-wick"/>
<rect x="128.26" y="406.17" width="8.00" height="1.52" class="up-body"/>
<line x1="146.10" y1="404.47" x2="146.10" y2="432.52" class="down-wick"/>
<rect x="142.10" y="406.17" width="8.00" height="12.12" class="down-body"/>
<line x1="159.93" y1="406.88" x2="159.93" y2="429.00" class="down-wick"/>
<rect x="155.93" y="418.24" width="8.00" height="7.87" class="down-body"/>
<line x1="173.77" y1="419.25" x2="173.77" y2="443.43" class="up-wick"/>
<rect x="169.77" y="420.00" width="8.00" height="6.11" class="up-body"/>
<line x1="187.60" y1="402.59" x2="187.60" y2="420.59" class="up-wick"/>
<rect x="183.60" y="416.28" width="8.00" height="3.66" class="up-body"/>
<line x1="201.44" y1="404.68" x2="201.44" y2="421.39" class="up-wick"/>
<rect x="197.44" y="409.24" width="8.00" height="7.04" class="up-body"/>
<line x1="215.27" y1="399.23" x2="215.27" y2="415.88" class="down-wick"/>
<rect x="211.27" y="409.24" width="8.00" height="3.64" class="down-body"/>
<line x1="229.11" y1="406.21" x2="229.11" y2="424.98" class="down-wick"/>
<rect x="225.11" y="412.86" width="8.00" height="7.09" class="down-body"/>
<line x1="242.95" y1="414.98" x2="242.95" y2="425.04" class="down-wick"/>
<rect x="238.95" y="419.90" width="8.00" height="1.52" class="down-body"/>
<line x1="256.78" y1="421.38" x2="256.78" y2="455.81" class="down-wick"/>
<rect x="252.78" y="421.41" width="8.00" height="33.27" class="down-body"/>
<line x1="270.62" y1="453.28" x2="270.62" y2="486.01" class="down-wick"/>
<rect x="266.62" y="454.69" width="8.00" height="10.62" class="down-body"/>
<line x1="284.45" y1="455.54" x2="284.45" y2="476.89" class="down-wick"/>
<rect x="280.45" y="465.31" width="8.00" height="5.66" class="down-body"/>
<line x1="298.29" y1="465.22" x2="298.29" y2="512.17" class="down-wick"/>
<rect x="294.29" y="470.97" width="8.00" height="19.77" class="down-body"/>
<line x1="312.12" y1="484.97" x2="312.12" y2="524.76" class="down-wick"/>
<rect x="308.12" y="490.77" width="8.00" height="13.42" class="down-body"/>
<line x1="325.96" y1="475.86" x2="325.96" y2="513.39" class="up-wick"/>
<rect x="321.96" y="483.33" width="8.00" height="20.87" class="up-body"/>
<line x1="339.79" y1="463.31" x2="339.79" y2="490.93" class="up-wick"/>
<rect x="335.79" y="470.24" width="8.00" height="13.09" class="up-body"/>
<line x1="353.63" y1="455.13" x2="353.63" y2="475.72" class="up-wick"/>
<rect x="349.63" y="460.99" width="8.00" height="9.35" class="up-body"/>
<line x1="367.47" y1="447.95" x2="367.47" y2="475.28" class="up-wick"/>
<rect x="363.47" y="451.82" width="8.00" height="9.17" class="up-body"/>
<line x1="381.30" y1="437.28" x2="381.30" y2="452.23" class="up-wick"/>
<rect x="377.30" y="450.18" width="8.00" height="1.64" class="up-body"/>
<line x1="395.14" y1="433.54" x2="395.14" y2="460.29" class="up-wick"/>
<rect x="391.14" y="440.67" width="8.00" height="9.49" class="up-body"/>
<line x1="408.97" y1="424.86" x2="408.97" y2="444.60" class="up-wick"/>
<rect x="404.97" y="426.25" width="8.00" height="14.42" class="up-body"/>
<line x1="422.81" y1="424.82" x2="422.81" y2="441.95" class="down-wick"/>
<rect x="418.81" y="426.25" width="8.00" height="2.01" class="down-body"/>
<line x1="436.64" y1="424.38" x2="436.64" y2="434.11" class="down-wick"/>
<rect x="432.64" y="428.26" width="8.00" height="1.00" class="down-body"/>
<line x1="450.48" y1="421.50" x2="450.48" y2="443.58" class="up-wick"/>
<rect x="446.48" y="426.17" width="8.00" height="2.34" class="up-body"/>
<line x1="464.32" y1="404.63" x2="464.32" y2="434.40" class="up-wick"/>
<rect x="460.32" y="408.53" width="8.00" height="17.64" class="up-body"/>
<line x1="478.15" y1="399.20" x2="478.15" y2="412.95" class="down-wick"/>
<rect x="474.15" y="408.47" width="8.00" height="1.01" class="down-body"/>
<line x1="491.99" y1="391.92" x2="491.99" y2="410.86" class="up-wick"/>
<rect x="487.99" y="396.76" width="8.00" height="12.71" class="up-body"/>
<line x1="505.82" y1="390.91" x2="505.82" y2="403.19" class="up-wick"/>
<rect x="501.82" y="392.41" width="8.00" height="4.35" class="up-body"/>
<line x1="519.66" y1="392.23" x2="519.66" y2="416.51" class="down-wick"/>
<rect x="515.66" y="392.41" width="8.00" height="19.17" class="down-body"/>
<line x1="533.49" y1="405.24" x2="533.49" y2="420.15" class="down-wick"/>
<rect x="529.49" y="411.59" width="8.00" height="3.59" class="down-body"/>
<line x1="547.33" y1="399.60" x2="547.33" y2="421.81" class="up-wick"/>
<rect x="543.33" y="402.34" width="8.00" height="12.84" class="up-body"/>
<line x1="561.16" y1="384.70" x2="561.16" y2="403.18" class="up-wick"/>
<rect x="557.16" y="384.83" width="8.00" height="17.51" class="up-body"/>
<line x1="575.00" y1="380.31" x2="575.00" y2="388.59" class="up-wick"/>
<rect x="571.00" y="383.12" width="8.00" height="1.71" class="up-body"/>
<line x1="588.84" y1="372.76" x2="588.84" y2="385.40" class="up-wick"/>
<rect x="584.84" y="375.31" width="8.00" height="7.75" class="up-body"/>
<line x1="602.67" y1="372.65" x2="602.67" y2="381.65" class="down-wick"/>
<rect x="598.67" y="375.21" width="8.00" height="2.90" class="down-body"/>
<line x1="616.51" y1="373.72" x2="616.51" y2="387.26" class="down-wick"/>
<rect x="612.51" y="378.11" width="8.00" height="1.19" class="down-body"/>
<line x1="630.34" y1="368.30" x2="630.34" y2="380.56" class="up-wick"/>
<rect x="626.34" y="373.31" width="8.00" height="6.01" class="up-body"/>
<line x1="644.18" y1="365.30" x2="644.18" y2="376.33" class="up-wick"/>
<rect x="640.18" y="365.40" width="8.00" height="7.91" class="up-body"/>
<line x1="658.01" y1="359.24" x2="658.01" y2="375.04" class="down-wick"/>
<rect x="654.01" y="365.40" width="8.00" height="1.22" class="down-body"/>
<line x1="671.85" y1="362.87" x2="671.85" y2="396.38" class="down-wick"/>
<rect x="667.85" y="366.62" width="8.00" height="4.70" class="down-body"/>
<line x1="685.68" y1="366.64" x2="685.68" y2="393.24" class="down-wick"/>
<rect x="681.68" y="371.26" width="8.00" height="17.52" class="down-body"/>
<line x1="699.52" y1="387.66" x2="699.52" y2="416.98" class="down-wick"/>
<rect x="695.52" y="388.78" width="8.00" height="21.65" class="down-body"/>
<line x1="713.36" y1="395.57" x2="713.36" y2="411.15" class="up-wick"/>
<rect x="709.36" y="402.18" width="8.00" height="8.16" class="up-body"/>
<line x1="727.19" y1="389.05" x2="727.19" y2="404.80" class="up-wick"/>
<rect x="723.19" y="394.01" width="8.00" height="8.17" class="up-body"/>
<line x1="741.03" y1="392.59" x2="741.03" y2="412.68" class="down-wick"/>
<rect x="737.03" y="394.01" width="8.00" height="1.96" class="down-body"/>
<line x1="754.86" y1="366.66" x2="754.86" y2="400.84" class="up-wick"/>
<rect x="750.86" y="382.89" width="8.00" height="13.07" class="up-body"/>
<line x1="768.70" y1="379.41" x2="768.70" y2="404.64" class="down-wick"/>
<rect x="764.70" y="382.89" width="8.00" height="13.99" class="down-body"/>
<line x1="782.53" y1="386.31" x2="782.53" y2="408.39" class="down-wick"/>
<rect x="778.53" y="396.88" width="8.00" height="2.96" class="down-body"/>
<line x1="796.37" y1="393.61" x2="796.37" y2="415.37" class="down-wick"/>
<rect x="792.37" y="399.93" width="8.00" height="12.39" class="down-body"/>
<line x1="810.21" y1="402.69" x2="810.21" y2="425.14" class="down-wick"/>
<rect x="806.21" y="412.32" width="8.00" height="2.04" class="down-body"/>
<line x1="824.04" y1="413.65" x2="824.04" y2="438.14" class="down-wick"/>
<rect x="820.04" y="414.36" width="8.00" height="22.50" class="down-body"/>
<line x1="837.88" y1="402.93" x2="837.88" y2="446.51" class="up-wick"/>
<rect x="833.88" y="405.80" width="8.00" height="31.06" class="up-body"/>
<line x1="851.71" y1="401.19" x2="851.71" y2="419.70" class="down-wick"/>
<rect x="847.71" y="405.80" width="8.00" height="10.32" class="down-body"/>
<line x1="865.55" y1="409.12" x2="865.55" y2="426.60" class="down-wick"/>
<rect x="861.55" y="416.12" width="8.00" height="1.00" class="down-body"/>
<line x1="879.38" y1="413.97" x2="879.38" y2="424.90" class="down-wick"/>
<rect x="875.38" y="417.02" width="8.00" height="1.37" class="down-body"/>
<line x1="893.22" y1="398.96" x2="893.22" y2="420.82" class="up-wick"/>
<rect x="889.22" y="401.53" width="8.00" height="16.87" class="up-body"/>
<line x1="907.05" y1="399.17" x2="907.05" y2="420.66" class="down-wick"/>
<rect x="903.05" y="401.53" width="8.00" height="16.14" class="down-body"/>
<line x1="920.89" y1="409.44" x2="920.89" y2="422.15" class="up-wick"/>
<rect x="916.89" y="414.77" width="8.00" height="2.90" class="up-body"/>
<line x1="934.73" y1="409.29" x2="934.73" y2="419.42" class="down-wick"/>
<rect x="930.73" y="414.77" width="8.00" height="1.00" class="down-body"/>
<line x1="948.56" y1="415.05" x2="948.56" y2="431.51" class="down-wick"/>
<rect x="944.56" y="415.15" width="8.00" height="15.33" class="down-body"/>
<line x1="962.40" y1="426.02" x2="962.40" y2="437.58" class="down-wick"/>
<rect x="958.40" y="430.48" width="8.00" height="1.49" class="down-body"/>
<line x1="976.23" y1="415.10" x2="976.23" y2="431.85" class="up-wick"/>
<rect x="972.23" y="421.89" width="8.00" height="9.96" class="up-body"/>
<line x1="990.07" y1="416.00" x2="990.07" y2="427.02" class="up-wick"/>
<rect x="986.07" y="421.67" width="8.00" height="1.00" class="up-body"/>
<line x1="1003.90" y1="419.93" x2="1003.90" y2="430.00" class="down-wick"/>
<rect x="999.90" y="421.67" width="8.00" height="4.31" class="down-body"/>
<line x1="1017.74" y1="422.98" x2="1017.74" y2="432.33" class="down-wick"/>
<rect x="1013.74" y="425.98" width="8.00" height="1.40" class="down-body"/>
<line x1="1031.58" y1="404.74" x2="1031.58" y2="430.03" class="up-wick"/>
<rect x="1027.58" y="406.86" width="8.00" height="20.54" class="up-body"/>
<line x1="1045.41" y1="399.48" x2="1045.41" y2="413.98" class="down-wick"/>
<rect x="1041.41" y="406.80" width="8.00" height="3.69" class="down-body"/>
<line x1="1059.25" y1="404.42" x2="1059.25" y2="417.19" class="up-wick"/>
<rect x="1055.25" y="407.65" width="8.00" height="2.80" class="up-body"/>
<line x1="1073.08" y1="407.64" x2="1073.08" y2="424.32" class="down-wick"/>
<rect x="1069.08" y="407.64" width="8.00" height="8.91" class="down-body"/>
<line x1="70" y1="415.39" x2="1080" y2="415.39" class="sweep-line"/>
<text x="1076" y="411.39" text-anchor="end" class="level-label">sweep 4673.38</text>
<line x1="70" y1="416.98" x2="1080" y2="416.98" class="entry-line"/>
<text x="1076" y="412.98" text-anchor="end" class="level-label">entry level 4669.45</text>
<text x="70" y="556" class="axis-label">2026-02-02 04:15:00+00:00 to 2026-02-02 22:15:00+00:00</text>
<text x="1080" y="556" text-anchor="end" class="axis-label">4369.30 - 4845.48</text>
<text x="70" y="582" class="panel-title">M5 reaction / execution context</text>
<rect x="70" y="596" width="1010" height="192" class="plot-bg"/>
<line x1="79.18" y1="609.24" x2="79.18" y2="630.29" class="down-wick"/>
<rect x="75.18" y="620.92" width="8.00" height="6.16" class="down-body"/>
<line x1="97.55" y1="622.78" x2="97.55" y2="637.57" class="down-wick"/>
<rect x="93.55" y="627.07" width="8.00" height="3.27" class="down-body"/>
<line x1="115.91" y1="622.26" x2="115.91" y2="639.20" class="up-wick"/>
<rect x="111.91" y="623.23" width="8.00" height="7.11" class="up-body"/>
<line x1="134.27" y1="622.42" x2="134.27" y2="679.67" class="down-wick"/>
<rect x="130.27" y="623.23" width="8.00" height="35.87" class="down-body"/>
<line x1="152.64" y1="627.86" x2="152.64" y2="668.13" class="up-wick"/>
<rect x="148.64" y="629.65" width="8.00" height="29.44" class="up-body"/>
<line x1="171.00" y1="616.12" x2="171.00" y2="637.00" class="down-wick"/>
<rect x="167.00" y="629.65" width="8.00" height="2.49" class="down-body"/>
<line x1="189.36" y1="623.27" x2="189.36" y2="658.52" class="down-wick"/>
<rect x="185.36" y="632.04" width="8.00" height="24.36" class="down-body"/>
<line x1="207.73" y1="648.74" x2="207.73" y2="670.76" class="down-wick"/>
<rect x="203.73" y="656.39" width="8.00" height="9.48" class="down-body"/>
<line x1="226.09" y1="654.54" x2="226.09" y2="673.73" class="up-wick"/>
<rect x="222.09" y="665.26" width="8.00" height="1.00" class="up-body"/>
<line x1="244.45" y1="663.14" x2="244.45" y2="694.84" class="down-wick"/>
<rect x="240.45" y="665.26" width="8.00" height="22.21" class="down-body"/>
<line x1="262.82" y1="683.98" x2="262.82" y2="708.63" class="down-wick"/>
<rect x="258.82" y="687.47" width="8.00" height="15.21" class="down-body"/>
<line x1="281.18" y1="699.79" x2="281.18" y2="718.74" class="down-wick"/>
<rect x="277.18" y="702.85" width="8.00" height="3.47" class="down-body"/>
<line x1="299.55" y1="689.19" x2="299.55" y2="707.69" class="up-wick"/>
<rect x="295.55" y="696.59" width="8.00" height="9.57" class="up-body"/>
<line x1="317.91" y1="678.14" x2="317.91" y2="700.05" class="up-wick"/>
<rect x="313.91" y="680.33" width="8.00" height="16.26" class="up-body"/>
<line x1="336.27" y1="680.23" x2="336.27" y2="695.31" class="down-wick"/>
<rect x="332.27" y="680.23" width="8.00" height="10.45" class="down-body"/>
<line x1="354.64" y1="673.58" x2="354.64" y2="695.64" class="down-wick"/>
<rect x="350.64" y="690.68" width="8.00" height="1.02" class="down-body"/>
<line x1="373.00" y1="673.34" x2="373.00" y2="692.02" class="up-wick"/>
<rect x="369.00" y="684.01" width="8.00" height="7.72" class="up-body"/>
<line x1="391.36" y1="665.78" x2="391.36" y2="689.46" class="up-wick"/>
<rect x="387.36" y="675.18" width="8.00" height="8.83" class="up-body"/>
<line x1="409.73" y1="672.48" x2="409.73" y2="699.30" class="down-wick"/>
<rect x="405.73" y="675.18" width="8.00" height="23.37" class="down-body"/>
<line x1="428.09" y1="694.13" x2="428.09" y2="710.59" class="up-wick"/>
<rect x="424.09" y="694.45" width="8.00" height="4.17" class="up-body"/>
<line x1="446.45" y1="672.99" x2="446.45" y2="701.04" class="up-wick"/>
<rect x="442.45" y="678.90" width="8.00" height="15.55" class="up-body"/>
<line x1="464.82" y1="646.87" x2="464.82" y2="688.15" class="up-wick"/>
<rect x="460.82" y="649.63" width="8.00" height="29.25" class="up-body"/>
<line x1="483.18" y1="624.52" x2="483.18" y2="656.97" class="up-wick"/>
<rect x="479.18" y="634.66" width="8.00" height="14.97" class="up-body"/>
<line x1="501.55" y1="623.32" x2="501.55" y2="655.71" class="down-wick"/>
<rect x="497.55" y="634.66" width="8.00" height="19.43" class="down-body"/>
<line x1="519.91" y1="647.49" x2="519.91" y2="674.37" class="down-wick"/>
<rect x="515.91" y="654.09" width="8.00" height="17.24" class="down-body"/>
<line x1="538.27" y1="658.61" x2="538.27" y2="681.37" class="down-wick"/>
<rect x="534.27" y="671.33" width="8.00" height="9.56" class="down-body"/>
<line x1="556.64" y1="671.72" x2="556.64" y2="695.34" class="up-wick"/>
<rect x="552.64" y="680.62" width="8.00" height="1.00" class="up-body"/>
<line x1="575.00" y1="668.49" x2="575.00" y2="702.46" class="up-wick"/>
<rect x="571.00" y="671.38" width="8.00" height="9.24" class="up-body"/>
<line x1="593.36" y1="660.58" x2="593.36" y2="687.72" class="up-wick"/>
<rect x="589.36" y="670.37" width="8.00" height="1.01" class="up-body"/>
<line x1="611.73" y1="670.01" x2="611.73" y2="699.39" class="down-wick"/>
<rect x="607.73" y="670.37" width="8.00" height="15.87" class="down-body"/>
<line x1="630.09" y1="674.42" x2="630.09" y2="696.18" class="down-wick"/>
<rect x="626.09" y="686.41" width="8.00" height="1.93" class="down-body"/>
<line x1="648.45" y1="686.54" x2="648.45" y2="706.24" class="down-wick"/>
<rect x="644.45" y="688.37" width="8.00" height="8.63" class="down-body"/>
<line x1="666.82" y1="683.04" x2="666.82" y2="715.69" class="down-wick"/>
<rect x="662.82" y="697.00" width="8.00" height="12.92" class="down-body"/>
<line x1="685.18" y1="705.58" x2="685.18" y2="734.22" class="up-wick"/>
<rect x="681.18" y="707.45" width="8.00" height="2.47" class="up-body"/>
<line x1="703.55" y1="692.28" x2="703.55" y2="714.14" class="up-wick"/>
<rect x="699.55" y="692.73" width="8.00" height="14.71" class="up-body"/>
<line x1="721.91" y1="691.64" x2="721.91" y2="720.12" class="down-wick"/>
<rect x="717.91" y="692.73" width="8.00" height="21.05" class="down-body"/>
<line x1="740.27" y1="712.43" x2="740.27" y2="733.73" class="down-wick"/>
<rect x="736.27" y="713.79" width="8.00" height="12.37" class="down-body"/>
<line x1="758.64" y1="723.38" x2="758.64" y2="749.79" class="down-wick"/>
<rect x="754.64" y="725.49" width="8.00" height="13.87" class="down-body"/>
<line x1="777.00" y1="737.56" x2="777.00" y2="758.88" class="down-wick"/>
<rect x="773.00" y="739.37" width="8.00" height="17.08" class="down-body"/>
<line x1="795.36" y1="736.61" x2="795.36" y2="774.76" class="up-wick"/>
<rect x="791.36" y="737.85" width="8.00" height="18.61" class="up-body"/>
<line x1="813.73" y1="710.35" x2="813.73" y2="741.31" class="up-wick"/>
<rect x="809.73" y="713.39" width="8.00" height="24.46" class="up-body"/>
<line x1="832.09" y1="692.11" x2="832.09" y2="720.00" class="up-wick"/>
<rect x="828.09" y="697.54" width="8.00" height="15.87" class="up-body"/>
<line x1="850.45" y1="694.36" x2="850.45" y2="715.98" class="down-wick"/>
<rect x="846.45" y="697.54" width="8.00" height="8.89" class="down-body"/>
<line x1="868.82" y1="688.80" x2="868.82" y2="708.40" class="up-wick"/>
<rect x="864.82" y="697.90" width="8.00" height="8.53" class="up-body"/>
<line x1="887.18" y1="697.30" x2="887.18" y2="723.91" class="down-wick"/>
<rect x="883.18" y="697.90" width="8.00" height="19.21" class="down-body"/>
<line x1="905.55" y1="709.97" x2="905.55" y2="737.00" class="down-wick"/>
<rect x="901.55" y="717.11" width="8.00" height="10.07" class="down-body"/>
<line x1="923.91" y1="711.72" x2="923.91" y2="728.89" class="up-wick"/>
<rect x="919.91" y="711.94" width="8.00" height="15.46" class="up-body"/>
<line x1="942.27" y1="703.84" x2="942.27" y2="718.70" class="down-wick"/>
<rect x="938.27" y="711.94" width="8.00" height="6.76" class="down-body"/>
<line x1="960.64" y1="718.18" x2="960.64" y2="732.16" class="down-wick"/>
<rect x="956.64" y="718.83" width="8.00" height="9.31" class="down-body"/>
<line x1="979.00" y1="719.68" x2="979.00" y2="733.77" class="up-wick"/>
<rect x="975.00" y="721.29" width="8.00" height="6.85" class="up-body"/>
<line x1="997.36" y1="713.05" x2="997.36" y2="727.22" class="down-wick"/>
<rect x="993.36" y="721.29" width="8.00" height="1.00" class="down-body"/>
<line x1="1015.73" y1="708.68" x2="1015.73" y2="726.03" class="up-wick"/>
<rect x="1011.73" y="716.54" width="8.00" height="4.89" class="up-body"/>
<line x1="1034.09" y1="684.64" x2="1034.09" y2="719.71" class="up-wick"/>
<rect x="1030.09" y="685.68" width="8.00" height="30.86" class="up-body"/>
<line x1="1052.45" y1="684.57" x2="1052.45" y2="697.48" class="down-wick"/>
<rect x="1048.45" y="685.59" width="8.00" height="3.85" class="down-body"/>
<line x1="1070.82" y1="684.96" x2="1070.82" y2="715.76" class="down-wick"/>
<rect x="1066.82" y="689.44" width="8.00" height="22.72" class="down-body"/>
<line x1="70" y1="715.74" x2="1080" y2="715.74" class="sweep-line"/>
<text x="1076" y="711.74" text-anchor="end" class="level-label">sweep 4673.38</text>
<line x1="70" y1="718.74" x2="1080" y2="718.74" class="entry-line"/>
<text x="1076" y="714.74" text-anchor="end" class="level-label">entry level 4669.45</text>
<text x="70" y="806" class="axis-label">2026-02-02 14:45:00+00:00 to 2026-02-02 19:15:00+00:00</text>
<text x="1080" y="806" text-anchor="end" class="axis-label">4578.88 - 4829.96</text>
<text x="70" y="832" class="panel-title">M1 execution window</text>
<rect x="70" y="846" width="1010" height="192" class="plot-bg"/>
<line x1="73.71" y1="859.24" x2="73.71" y2="868.31" class="up-wick"/>
<rect x="71.30" y="861.18" width="4.83" height="6.22" class="up-body"/>
<line x1="81.14" y1="859.87" x2="81.14" y2="865.18" class="down-wick"/>
<rect x="78.73" y="861.01" width="4.83" height="3.94" class="down-body"/>
<line x1="88.57" y1="873.20" x2="88.57" y2="877.11" class="up-wick"/>
<rect x="86.15" y="873.78" width="4.83" height="1.05" class="up-body"/>
<line x1="95.99" y1="873.64" x2="95.99" y2="884.65" class="up-wick"/>
<rect x="93.58" y="874.13" width="4.83" height="6.84" class="up-body"/>
<line x1="103.42" y1="869.64" x2="103.42" y2="877.26" class="down-wick"/>
<rect x="101.01" y="871.32" width="4.83" height="4.95" class="down-body"/>
<line x1="110.85" y1="874.36" x2="110.85" y2="879.57" class="down-wick"/>
<rect x="108.43" y="877.16" width="4.83" height="1.01" class="down-body"/>
<line x1="118.27" y1="874.17" x2="118.27" y2="883.37" class="up-wick"/>
<rect x="115.86" y="878.58" width="4.83" height="4.79" class="up-body"/>
<line x1="125.70" y1="868.80" x2="125.70" y2="876.02" class="up-wick"/>
<rect x="123.28" y="869.80" width="4.83" height="2.53" class="up-body"/>
<line x1="133.12" y1="894.30" x2="133.12" y2="915.88" class="down-wick"/>
<rect x="130.71" y="905.03" width="4.83" height="8.03" class="down-body"/>
<line x1="140.55" y1="911.36" x2="140.55" y2="926.15" class="up-wick"/>
<rect x="138.14" y="918.58" width="4.83" height="7.57" class="up-body"/>
<line x1="147.98" y1="905.90" x2="147.98" y2="916.29" class="down-wick"/>
<rect x="145.56" y="906.93" width="4.83" height="1.00" class="down-body"/>
<line x1="155.40" y1="888.35" x2="155.40" y2="900.95" class="up-wick"/>
<rect x="152.99" y="889.14" width="4.83" height="10.93" class="up-body"/>
<line x1="162.83" y1="874.59" x2="162.83" y2="888.84" class="up-wick"/>
<rect x="160.42" y="876.45" width="4.83" height="12.05" class="up-body"/>
<line x1="170.26" y1="862.43" x2="170.26" y2="872.65" class="down-wick"/>
<rect x="167.84" y="868.02" width="4.83" height="3.46" class="down-body"/>
<line x1="177.68" y1="873.70" x2="177.68" y2="880.62" class="up-wick"/>
<rect x="175.27" y="875.27" width="4.83" height="2.65" class="up-body"/>
<line x1="185.11" y1="869.84" x2="185.11" y2="886.77" class="down-wick"/>
<rect x="182.70" y="878.92" width="4.83" height="7.78" class="down-body"/>
<line x1="192.54" y1="884.22" x2="192.54" y2="895.77" class="down-wick"/>
<rect x="190.12" y="892.12" width="4.83" height="3.48" class="down-body"/>
<line x1="199.96" y1="898.99" x2="199.96" y2="906.34" class="down-wick"/>
<rect x="197.55" y="903.28" width="4.83" height="1.00" class="down-body"/>
<line x1="207.39" y1="904.39" x2="207.39" y2="912.21" class="down-wick"/>
<rect x="204.98" y="906.69" width="4.83" height="1.00" class="down-body"/>
<line x1="214.82" y1="897.76" x2="214.82" y2="912.07" class="down-wick"/>
<rect x="212.40" y="898.64" width="4.83" height="8.54" class="down-body"/>
<line x1="222.24" y1="908.61" x2="222.24" y2="919.07" class="up-wick"/>
<rect x="219.83" y="912.42" width="4.83" height="1.30" class="up-body"/>
<line x1="229.67" y1="902.21" x2="229.67" y2="914.21" class="down-wick"/>
<rect x="227.26" y="907.52" width="4.83" height="5.95" class="down-body"/>
<line x1="237.10" y1="909.11" x2="237.10" y2="917.61" class="up-wick"/>
<rect x="234.68" y="913.31" width="4.83" height="3.63" class="up-body"/>
<line x1="244.52" y1="917.51" x2="244.52" y2="931.31" class="down-wick"/>
<rect x="242.11" y="919.85" width="4.83" height="10.72" class="down-body"/>
<line x1="251.95" y1="925.41" x2="251.95" y2="943.94" class="down-wick"/>
<rect x="249.53" y="929.80" width="4.83" height="8.34" class="down-body"/>
<line x1="259.38" y1="932.69" x2="259.38" y2="943.34" class="down-wick"/>
<rect x="256.96" y="936.30" width="4.83" height="6.10" class="down-body"/>
<line x1="266.80" y1="944.70" x2="266.80" y2="952.64" class="up-wick"/>
<rect x="264.39" y="946.13" width="4.83" height="1.00" class="up-body"/>
<line x1="274.23" y1="948.70" x2="274.23" y2="958.22" class="down-wick"/>
<rect x="271.81" y="949.05" width="4.83" height="3.00" class="down-body"/>
<line x1="281.65" y1="955.22" x2="281.65" y2="965.57" class="down-wick"/>
<rect x="279.24" y="955.65" width="4.83" height="7.93" class="down-body"/>
<line x1="289.08" y1="955.24" x2="289.08" y2="965.22" class="down-wick"/>
<rect x="286.67" y="962.06" width="4.83" height="1.00" class="down-body"/>
<line x1="296.51" y1="938.15" x2="296.51" y2="957.25" class="up-wick"/>
<rect x="294.09" y="938.15" width="4.83" height="17.51" class="up-body"/>
<line x1="303.93" y1="939.11" x2="303.93" y2="951.62" class="up-wick"/>
<rect x="301.52" y="941.66" width="4.83" height="3.64" class="up-body"/>
<line x1="311.36" y1="944.11" x2="311.36" y2="949.49" class="up-wick"/>
<rect x="308.95" y="945.75" width="4.83" height="1.21" class="up-body"/>
<line x1="318.79" y1="941.11" x2="318.79" y2="948.17" class="down-wick"/>
<rect x="316.37" y="945.50" width="4.83" height="1.00" class="down-body"/>
<line x1="326.21" y1="926.65" x2="326.21" y2="945.43" class="up-wick"/>
<rect x="323.80" y="929.25" width="4.83" height="14.45" class="up-body"/>
<line x1="333.64" y1="928.81" x2="333.64" y2="936.41" class="down-wick"/>
<rect x="331.23" y="928.81" width="4.83" height="6.13" class="down-body"/>
<line x1="341.07" y1="936.10" x2="341.07" y2="939.98" class="up-wick"/>
<rect x="338.65" y="936.83" width="4.83" height="2.72" class="up-body"/>
<line x1="348.49" y1="935.11" x2="348.49" y2="944.43" class="up-wick"/>
<rect x="346.08" y="939.63" width="4.83" height="2.42" class="up-body"/>
<line x1="355.92" y1="923.14" x2="355.92" y2="930.00" class="up-wick"/>
<rect x="353.51" y="925.09" width="4.83" height="1.00" class="up-body"/>
<line x1="363.35" y1="932.52" x2="363.35" y2="944.77" class="down-wick"/>
<rect x="360.93" y="932.53" width="4.83" height="8.54" class="down-body"/>
<line x1="370.77" y1="931.32" x2="370.77" y2="941.01" class="up-wick"/>
<rect x="368.36" y="933.26" width="4.83" height="7.45" class="up-body"/>
<line x1="378.20" y1="921.84" x2="378.20" y2="931.50" class="up-wick"/>
<rect x="375.78" y="929.99" width="4.83" height="1.00" class="up-body"/>
<line x1="385.62" y1="926.96" x2="385.62" y2="933.41" class="down-wick"/>
<rect x="383.21" y="928.81" width="4.83" height="3.92" class="down-body"/>
<line x1="393.05" y1="923.58" x2="393.05" y2="929.63" class="down-wick"/>
<rect x="390.64" y="925.54" width="4.83" height="3.97" class="down-body"/>
<line x1="400.48" y1="913.85" x2="400.48" y2="921.74" class="up-wick"/>
<rect x="398.06" y="921.13" width="4.83" height="1.00" class="up-body"/>
<line x1="407.90" y1="920.79" x2="407.90" y2="928.54" class="down-wick"/>
<rect x="405.49" y="923.58" width="4.83" height="4.01" class="down-body"/>
<line x1="415.33" y1="924.23" x2="415.33" y2="931.43" class="up-wick"/>
<rect x="412.92" y="924.70" width="4.83" height="6.74" class="up-body"/>
<line x1="422.76" y1="931.44" x2="422.76" y2="948.56" class="down-wick"/>
<rect x="420.34" y="931.45" width="4.83" height="16.33" class="down-body"/>
<line x1="430.18" y1="945.53" x2="430.18" y2="952.49" class="down-wick"/>
<rect x="427.77" y="947.59" width="4.83" height="1.20" class="down-body"/>
<line x1="437.61" y1="951.80" x2="437.61" y2="960.25" class="up-wick"/>
<rect x="435.20" y="952.29" width="4.83" height="2.67" class="up-body"/>
<line x1="445.04" y1="940.60" x2="445.04" y2="946.47" class="down-wick"/>
<rect x="442.62" y="943.53" width="4.83" height="2.43" class="down-body"/>
<line x1="452.46" y1="934.04" x2="452.46" y2="943.96" class="up-wick"/>
<rect x="450.05" y="934.52" width="4.83" height="9.13" class="up-body"/>
<line x1="459.89" y1="921.32" x2="459.89" y2="928.75" class="down-wick"/>
<rect x="457.48" y="926.10" width="4.83" height="1.34" class="down-body"/>
<line x1="467.32" y1="920.29" x2="467.32" y2="934.64" class="down-wick"/>
<rect x="464.90" y="924.67" width="4.83" height="4.51" class="down-body"/>
<line x1="474.74" y1="905.16" x2="474.74" y2="919.26" class="up-wick"/>
<rect x="472.33" y="906.54" width="4.83" height="12.62" class="up-body"/>
<line x1="482.17" y1="889.13" x2="482.17" y2="899.76" class="down-wick"/>
<rect x="479.76" y="897.13" width="4.83" height="1.59" class="down-body"/>
<line x1="489.60" y1="881.32" x2="489.60" y2="897.50" class="up-wick"/>
<rect x="487.18" y="882.04" width="4.83" height="14.66" class="up-body"/>
<line x1="497.02" y1="871.13" x2="497.02" y2="884.40" class="down-wick"/>
<rect x="494.61" y="880.14" width="4.83" height="1.49" class="down-body"/>
<line x1="504.45" y1="869.89" x2="504.45" y2="883.35" class="down-wick"/>
<rect x="502.03" y="870.94" width="4.83" height="8.99" class="down-body"/>
<line x1="511.88" y1="881.72" x2="511.88" y2="899.75" class="down-wick"/>
<rect x="509.46" y="883.62" width="4.83" height="12.98" class="down-body"/>
<line x1="519.30" y1="901.65" x2="519.30" y2="916.56" class="down-wick"/>
<rect x="516.89" y="901.75" width="4.83" height="5.38" class="down-body"/>
<line x1="526.73" y1="901.56" x2="526.73" y2="910.94" class="down-wick"/>
<rect x="524.31" y="901.80" width="4.83" height="3.59" class="down-body"/>
<line x1="534.15" y1="909.63" x2="534.15" y2="922.74" class="down-wick"/>
<rect x="531.74" y="910.02" width="4.83" height="9.57" class="down-body"/>
<line x1="541.58" y1="906.43" x2="541.58" y2="919.65" class="down-wick"/>
<rect x="539.17" y="914.02" width="4.83" height="4.06" class="down-body"/>
<line x1="549.01" y1="911.56" x2="549.01" y2="922.23" class="down-wick"/>
<rect x="546.59" y="912.02" width="4.83" height="4.73" class="down-body"/>
<line x1="556.43" y1="927.94" x2="556.43" y2="938.21" class="up-wick"/>
<rect x="554.02" y="928.03" width="4.83" height="1.45" class="up-body"/>
<line x1="563.86" y1="934.22" x2="563.86" y2="944.46" class="up-wick"/>
<rect x="561.45" y="937.02" width="4.83" height="1.42" class="up-body"/>
<line x1="571.29" y1="925.16" x2="571.29" y2="939.13" class="up-wick"/>
<rect x="568.87" y="929.22" width="4.83" height="1.00" class="up-body"/>
<line x1="578.71" y1="933.78" x2="578.71" y2="951.83" class="down-wick"/>
<rect x="576.30" y="934.47" width="4.83" height="10.38" class="down-body"/>
<line x1="586.14" y1="921.32" x2="586.14" y2="940.08" class="up-wick"/>
<rect x="583.73" y="921.45" width="4.83" height="17.74" class="up-body"/>
<line x1="593.57" y1="909.80" x2="593.57" y2="919.66" class="up-wick"/>
<rect x="591.15" y="918.44" width="4.83" height="1.21" class="up-body"/>
<line x1="600.99" y1="913.98" x2="600.99" y2="929.36" class="down-wick"/>
<rect x="598.58" y="916.05" width="4.83" height="12.12" class="down-body"/>
<line x1="608.42" y1="918.00" x2="608.42" y2="931.76" class="up-wick"/>
<rect x="606.01" y="918.61" width="4.83" height="12.49" class="up-body"/>
<line x1="615.85" y1="927.44" x2="615.85" y2="937.11" class="down-wick"/>
<rect x="613.43" y="932.12" width="4.83" height="4.62" class="down-body"/>
<line x1="623.27" y1="934.85" x2="623.27" y2="948.51" class="down-wick"/>
<rect x="620.86" y="935.09" width="4.83" height="11.96" class="down-body"/>
<line x1="630.70" y1="927.78" x2="630.70" y2="938.92" class="up-wick"/>
<rect x="628.28" y="929.95" width="4.83" height="5.26" class="up-body"/>
<line x1="638.12" y1="922.80" x2="638.12" y2="936.45" class="down-wick"/>
<rect x="635.71" y="925.81" width="4.83" height="10.37" class="down-body"/>
<line x1="645.55" y1="935.34" x2="645.55" y2="945.32" class="up-wick"/>
<rect x="643.14" y="937.21" width="4.83" height="6.04" class="up-body"/>
<line x1="652.98" y1="935.35" x2="652.98" y2="946.53" class="up-wick"/>
<rect x="650.56" y="936.12" width="4.83" height="9.83" class="up-body"/>
<line x1="660.40" y1="941.63" x2="660.40" y2="952.44" class="down-wick"/>
<rect x="657.99" y="944.32" width="4.83" height="1.02" class="down-body"/>
<line x1="667.83" y1="935.38" x2="667.83" y2="946.71" class="up-wick"/>
<rect x="665.42" y="938.35" width="4.83" height="7.82" class="up-body"/>
<line x1="675.26" y1="934.71" x2="675.26" y2="953.33" class="down-wick"/>
<rect x="672.84" y="934.93" width="4.83" height="16.79" class="down-body"/>
<line x1="682.68" y1="956.10" x2="682.68" y2="963.31" class="up-wick"/>
<rect x="680.27" y="959.55" width="4.83" height="2.06" class="up-body"/>
<line x1="690.11" y1="972.14" x2="690.11" y2="982.81" class="down-wick"/>
<rect x="687.70" y="978.42" width="4.83" height="2.72" class="down-body"/>
<line x1="697.54" y1="962.29" x2="697.54" y2="975.84" class="up-wick"/>
<rect x="695.12" y="963.24" width="4.83" height="11.07" class="up-body"/>
<line x1="704.96" y1="948.49" x2="704.96" y2="962.81" class="up-wick"/>
<rect x="702.55" y="953.39" width="4.83" height="3.60" class="up-body"/>
<line x1="712.39" y1="955.54" x2="712.39" y2="963.92" class="down-wick"/>
<rect x="709.98" y="955.86" width="4.83" height="5.99" class="down-body"/>
<line x1="719.82" y1="941.29" x2="719.82" y2="957.74" class="up-wick"/>
<rect x="717.40" y="941.76" width="4.83" height="12.30" class="up-body"/>
<line x1="727.24" y1="945.53" x2="727.24" y2="955.23" class="down-wick"/>
<rect x="724.83" y="945.70" width="4.83" height="1.00" class="down-body"/>
<line x1="734.67" y1="958.49" x2="734.67" y2="968.42" class="down-wick"/>
<rect x="732.26" y="958.49" width="4.83" height="5.99" class="down-body"/>
<line x1="742.10" y1="962.15" x2="742.10" y2="978.56" class="down-wick"/>
<rect x="739.68" y="963.56" width="4.83" height="7.28" class="down-body"/>
<line x1="749.52" y1="973.54" x2="749.52" y2="984.09" class="down-wick"/>
<rect x="747.11" y="976.38" width="4.83" height="5.15" class="down-body"/>
<line x1="756.95" y1="974.50" x2="756.95" y2="982.20" class="up-wick"/>
<rect x="754.53" y="976.36" width="4.83" height="3.88" class="up-body"/>
<line x1="764.38" y1="973.49" x2="764.38" y2="985.57" class="up-wick"/>
<rect x="761.96" y="975.52" width="4.83" height="2.22" class="up-body"/>
<line x1="771.80" y1="982.01" x2="771.80" y2="1000.83" class="down-wick"/>
<rect x="769.39" y="982.01" width="4.83" height="9.46" class="down-body"/>
<line x1="779.23" y1="988.17" x2="779.23" y2="995.85" class="up-wick"/>
<rect x="776.81" y="988.86" width="4.83" height="1.18" class="up-body"/>
<line x1="786.65" y1="991.74" x2="786.65" y2="1005.84" class="down-wick"/>
<rect x="784.24" y="995.20" width="4.83" height="5.02" class="down-body"/>
<line x1="794.08" y1="1000.97" x2="794.08" y2="1010.25" class="down-wick"/>
<rect x="791.67" y="1001.42" width="4.83" height="6.31" class="down-body"/>
<line x1="801.51" y1="1013.84" x2="801.51" y2="1024.76" class="down-wick"/>
<rect x="799.09" y="1014.51" width="4.83" height="9.78" class="down-body"/>
<line x1="808.93" y1="995.15" x2="808.93" y2="1010.75" class="up-wick"/>
<rect x="806.52" y="999.14" width="4.83" height="10.25" class="up-body"/>
<line x1="816.36" y1="984.83" x2="816.36" y2="992.05" class="up-wick"/>
<rect x="813.95" y="985.66" width="4.83" height="2.80" class="up-body"/>
<line x1="823.79" y1="969.11" x2="823.79" y2="976.17" class="up-wick"/>
<rect x="821.37" y="972.09" width="4.83" height="1.00" class="up-body"/>
<line x1="831.21" y1="959.99" x2="831.21" y2="967.59" class="up-wick"/>
<rect x="828.80" y="963.14" width="4.83" height="3.78" class="up-body"/>
<line x1="838.64" y1="952.00" x2="838.64" y2="959.04" class="up-wick"/>
<rect x="836.23" y="956.46" width="4.83" height="2.00" class="up-body"/>
<line x1="846.07" y1="948.33" x2="846.07" y2="954.87" class="up-wick"/>
<rect x="843.65" y="949.12" width="4.83" height="2.21" class="up-body"/>
<line x1="853.49" y1="943.44" x2="853.49" y2="953.32" class="down-wick"/>
<rect x="851.08" y="946.74" width="4.83" height="4.83" class="down-body"/>
<line x1="860.92" y1="959.65" x2="860.92" y2="965.83" class="down-wick"/>
<rect x="858.51" y="962.66" width="4.83" height="1.14" class="down-body"/>
<line x1="868.35" y1="949.27" x2="868.35" y2="956.86" class="down-wick"/>
<rect x="865.93" y="950.02" width="4.83" height="5.92" class="down-body"/>
<line x1="875.77" y1="937.68" x2="875.77" y2="948.10" class="up-wick"/>
<rect x="873.36" y="940.78" width="4.83" height="7.32" class="up-body"/>
<line x1="883.20" y1="941.47" x2="883.20" y2="951.33" class="up-wick"/>
<rect x="880.78" y="944.55" width="4.83" height="1.13" class="up-body"/>
<line x1="890.62" y1="946.49" x2="890.62" y2="956.70" class="down-wick"/>
<rect x="888.21" y="947.11" width="4.83" height="9.36" class="down-body"/>
<line x1="898.05" y1="957.89" x2="898.05" y2="965.00" class="down-wick"/>
<rect x="895.64" y="961.04" width="4.83" height="2.22" class="down-body"/>
<line x1="905.48" y1="964.09" x2="905.48" y2="974.04" class="up-wick"/>
<rect x="903.06" y="967.00" width="4.83" height="4.48" class="up-body"/>
<line x1="912.90" y1="961.02" x2="912.90" y2="973.29" class="down-wick"/>
<rect x="910.49" y="961.04" width="4.83" height="11.77" class="down-body"/>
<line x1="920.33" y1="974.89" x2="920.33" y2="987.59" class="up-wick"/>
<rect x="917.92" y="976.22" width="4.83" height="6.51" class="up-body"/>
<line x1="927.76" y1="968.77" x2="927.76" y2="979.09" class="up-wick"/>
<rect x="925.34" y="969.74" width="4.83" height="7.92" class="up-body"/>
<line x1="935.18" y1="969.65" x2="935.18" y2="979.19" class="up-wick"/>
<rect x="932.77" y="969.79" width="4.83" height="5.59" class="up-body"/>
<line x1="942.61" y1="961.42" x2="942.61" y2="975.34" class="up-wick"/>
<rect x="940.20" y="961.65" width="4.83" height="8.28" class="up-body"/>
<line x1="950.04" y1="956.36" x2="950.04" y2="961.45" class="up-wick"/>
<rect x="947.62" y="958.80" width="4.83" height="1.51" class="up-body"/>
<line x1="957.46" y1="953.25" x2="957.46" y2="960.82" class="up-wick"/>
<rect x="955.05" y="954.87" width="4.83" height="5.95" class="up-body"/>
<line x1="964.89" y1="968.11" x2="964.89" y2="976.53" class="down-wick"/>
<rect x="962.48" y="968.77" width="4.83" height="6.41" class="down-body"/>
<line x1="972.32" y1="969.64" x2="972.32" y2="975.98" class="up-wick"/>
<rect x="969.90" y="975.65" width="4.83" height="1.00" class="up-body"/>
<line x1="979.74" y1="974.91" x2="979.74" y2="982.57" class="down-wick"/>
<rect x="977.33" y="975.07" width="4.83" height="3.35" class="down-body"/>
<line x1="987.17" y1="977.25" x2="987.17" y2="984.24" class="up-wick"/>
<rect x="984.76" y="978.07" width="4.83" height="2.41" class="up-body"/>
<line x1="994.60" y1="970.66" x2="994.60" y2="979.64" class="up-wick"/>
<rect x="992.18" y="972.74" width="4.83" height="6.52" class="up-body"/>
<line x1="1002.02" y1="964.76" x2="1002.02" y2="977.46" class="down-wick"/>
<rect x="999.61" y="971.32" width="4.83" height="5.60" class="down-body"/>
<line x1="1009.45" y1="966.05" x2="1009.45" y2="972.92" class="up-wick"/>
<rect x="1007.03" y="966.57" width="4.83" height="2.60" class="up-body"/>
<line x1="1016.88" y1="969.57" x2="1016.88" y2="975.93" class="down-wick"/>
<rect x="1014.46" y="971.35" width="4.83" height="1.00" class="down-body"/>
<line x1="1024.30" y1="958.27" x2="1024.30" y2="971.24" class="up-wick"/>
<rect x="1021.89" y="963.03" width="4.83" height="8.21" class="up-body"/>
<line x1="1031.73" y1="961.35" x2="1031.73" y2="971.56" class="up-wick"/>
<rect x="1029.31" y="962.13" width="4.83" height="6.02" class="up-body"/>
<line x1="1039.15" y1="961.18" x2="1039.15" y2="969.68" class="up-wick"/>
<rect x="1036.74" y="961.57" width="4.83" height="4.84" class="up-body"/>
<line x1="1046.58" y1="941.99" x2="1046.58" y2="948.44" class="up-wick"/>
<rect x="1044.17" y="944.31" width="4.83" height="2.51" class="up-body"/>
<line x1="1054.01" y1="933.38" x2="1054.01" y2="939.87" class="up-wick"/>
<rect x="1051.59" y="934.45" width="4.83" height="4.62" class="up-body"/>
<line x1="1061.43" y1="937.81" x2="1061.43" y2="944.18" class="up-wick"/>
<rect x="1059.02" y="938.80" width="4.83" height="2.74" class="up-body"/>
<line x1="1068.86" y1="940.18" x2="1068.86" y2="946.68" class="up-wick"/>
<rect x="1066.45" y="940.67" width="4.83" height="1.12" class="up-body"/>
<line x1="1076.29" y1="933.71" x2="1076.29" y2="943.29" class="down-wick"/>
<rect x="1073.87" y="938.35" width="4.83" height="4.24" class="down-body"/>
<line x1="70" y1="965.57" x2="1080" y2="965.57" class="sweep-line"/>
<text x="1076" y="961.57" text-anchor="end" class="level-label">sweep 4673.38</text>
<line x1="70" y1="968.69" x2="1080" y2="968.69" class="entry-line"/>
<text x="1076" y="964.69" text-anchor="end" class="level-label">entry level 4669.45</text>
<text x="70" y="1056" class="axis-label">2026-02-02 14:45:00+00:00 to 2026-02-02 19:15:00+00:00</text>
<text x="1080" y="1056" text-anchor="end" class="axis-label">4581.91 - 4824.40</text>
</svg>