<svg xmlns="http://www.w3.org/2000/svg" width="1120" height="1054" viewBox="0 0 1120 1054">
<style>
text{font-family:Arial,Helvetica,sans-serif}.title{font-size:21px;font-weight:700;fill:#1f2937}.subtitle{font-size:12px;fill:#4b5563}.panel-title{font-size:15px;font-weight:700;fill:#111827}.muted{font-size:13px;fill:#6b7280}.plot-bg{fill:#f8fafc;stroke:#cbd5e1;stroke-width:1}.up-body{fill:#15803d;stroke:#14532d;stroke-width:.8}.down-body{fill:#b91c1c;stroke:#7f1d1d;stroke-width:.8}.up-wick{stroke:#14532d;stroke-width:1}.down-wick{stroke:#7f1d1d;stroke-width:1}.sweep-line{stroke:#7c3aed;stroke-width:1.6;stroke-dasharray:6 4}.number-line{stroke:#0f766e;stroke-width:1.4;stroke-dasharray:3 4}.entry-line{stroke:#2563eb;stroke-width:1.4}.sl-line{stroke:#dc2626;stroke-width:1.4}.tp-line{stroke:#16a34a;stroke-width:1.4}.level-label,.axis-label{font-size:11px;fill:#374151}
</style>
<text x="28" y="28" class="title">Adelin v2 visual review sample sample_005</text>
<text x="28" y="48" class="subtitle">Candidate windows are for visual labeling only and are not trade signals.</text>
<text x="560" y="48" class="subtitle" text-anchor="middle">ASIA_OPEN_CONTEXT | PRE_ANCHOR_SWEEP_EXTREME_CANDIDATE</text>
<text x="70" y="82" class="panel-title">H1 liquidity context</text>
<rect x="70" y="96" width="1010" height="192" class="plot-bg"/>
<line x1="80.98" y1="109.24" x2="80.98" y2="118.87" class="down-wick"/>
<rect x="76.98" y="111.22" width="8.00" height="4.93" class="down-body"/>
<line x1="102.93" y1="115.71" x2="102.93" y2="134.52" class="down-wick"/>
<rect x="98.93" y="116.15" width="8.00" height="16.68" class="down-body"/>
<line x1="124.89" y1="131.06" x2="124.89" y2="162.68" class="down-wick"/>
<rect x="120.89" y="132.83" width="8.00" height="12.06" class="down-body"/>
<line x1="146.85" y1="144.19" x2="146.85" y2="156.53" class="down-wick"/>
<rect x="142.85" y="144.89" width="8.00" height="4.51" class="down-body"/>
<line x1="168.80" y1="143.99" x2="168.80" y2="149.81" class="up-wick"/>
<rect x="164.80" y="146.50" width="8.00" height="2.92" class="up-body"/>
<line x1="190.76" y1="142.31" x2="190.76" y2="152.01" class="down-wick"/>
<rect x="186.76" y="146.50" width="8.00" height="4.72" class="down-body"/>
<line x1="212.72" y1="148.00" x2="212.72" y2="157.44" class="down-wick"/>
<rect x="208.72" y="151.22" width="8.00" height="4.58" class="down-body"/>
<line x1="234.67" y1="150.97" x2="234.67" y2="161.80" class="up-wick"/>
<rect x="230.67" y="151.80" width="8.00" height="3.99" class="up-body"/>
<line x1="256.63" y1="151.80" x2="256.63" y2="171.50" class="down-wick"/>
<rect x="252.63" y="151.80" width="8.00" height="10.07" class="down-body"/>
<line x1="278.59" y1="159.47" x2="278.59" y2="189.56" class="down-wick"/>
<rect x="274.59" y="161.87" width="8.00" height="16.38" class="down-body"/>
<line x1="300.54" y1="161.07" x2="300.54" y2="180.24" class="up-wick"/>
<rect x="296.54" y="161.50" width="8.00" height="16.76" class="up-body"/>
<line x1="322.50" y1="157.62" x2="322.50" y2="166.19" class="up-wick"/>
<rect x="318.50" y="158.96" width="8.00" height="2.54" class="up-body"/>
<line x1="344.46" y1="157.41" x2="344.46" y2="171.66" class="down-wick"/>
<rect x="340.46" y="158.97" width="8.00" height="11.26" class="down-body"/>
<line x1="366.41" y1="164.64" x2="366.41" y2="181.61" class="down-wick"/>
<rect x="362.41" y="170.22" width="8.00" height="7.10" class="down-body"/>
<line x1="388.37" y1="162.49" x2="388.37" y2="178.08" class="up-wick"/>
<rect x="384.37" y="175.17" width="8.00" height="2.15" class="up-body"/>
<line x1="410.33" y1="168.76" x2="410.33" y2="183.47" class="up-wick"/>
<rect x="406.33" y="172.42" width="8.00" height="2.75" class="up-body"/>
<line x1="432.28" y1="172.25" x2="432.28" y2="189.49" class="down-wick"/>
<rect x="428.28" y="172.42" width="8.00" height="10.28" class="down-body"/>
<line x1="454.24" y1="182.62" x2="454.24" y2="211.83" class="down-wick"/>
<rect x="450.24" y="182.76" width="8.00" height="21.32" class="down-body"/>
<line x1="476.20" y1="197.15" x2="476.20" y2="230.56" class="up-wick"/>
<rect x="472.20" y="199.34" width="8.00" height="4.74" class="up-body"/>
<line x1="498.15" y1="188.63" x2="498.15" y2="205.31" class="up-wick"/>
<rect x="494.15" y="191.01" width="8.00" height="8.33" class="up-body"/>
<line x1="520.11" y1="190.97" x2="520.11" y2="210.51" class="down-wick"/>
<rect x="516.11" y="191.01" width="8.00" height="13.44" class="down-body"/>
<line x1="542.07" y1="196.77" x2="542.07" y2="207.00" class="up-wick"/>
<rect x="538.07" y="197.06" width="8.00" height="7.39" class="up-body"/>
<line x1="564.02" y1="201.38" x2="564.02" y2="227.94" class="down-wick"/>
<rect x="560.02" y="216.11" width="8.00" height="5.06" class="down-body"/>
<line x1="585.98" y1="198.61" x2="585.98" y2="221.40" class="up-wick"/>
<rect x="581.98" y="217.20" width="8.00" height="3.92" class="up-body"/>
<line x1="607.93" y1="214.38" x2="607.93" y2="245.97" class="down-wick"/>
<rect x="603.93" y="217.20" width="8.00" height="4.70" class="down-body"/>
<line x1="629.89" y1="216.23" x2="629.89" y2="227.98" class="down-wick"/>
<rect x="625.89" y="221.91" width="8.00" height="4.10" class="down-body"/>
<line x1="651.85" y1="223.12" x2="651.85" y2="238.66" class="down-wick"/>
<rect x="647.85" y="226.02" width="8.00" height="10.13" class="down-body"/>
<line x1="673.80" y1="225.63" x2="673.80" y2="242.93" class="up-wick"/>
<rect x="669.80" y="230.97" width="8.00" height="5.18" class="up-body"/>
<line x1="695.76" y1="228.36" x2="695.76" y2="259.59" class="down-wick"/>
<rect x="691.76" y="230.96" width="8.00" height="20.53" class="down-body"/>
<line x1="717.72" y1="247.67" x2="717.72" y2="274.76" class="down-wick"/>
<rect x="713.72" y="251.49" width="8.00" height="7.05" class="down-body"/>
<line x1="739.67" y1="240.52" x2="739.67" y2="261.52" class="up-wick"/>
<rect x="735.67" y="245.57" width="8.00" height="12.98" class="up-body"/>
<line x1="761.63" y1="235.47" x2="761.63" y2="249.53" class="up-wick"/>
<rect x="757.63" y="237.09" width="8.00" height="8.47" class="up-body"/>
<line x1="783.59" y1="222.77" x2="783.59" y2="242.98" class="up-wick"/>
<rect x="779.59" y="224.66" width="8.00" height="12.42" class="up-body"/>
<line x1="805.54" y1="222.37" x2="805.54" y2="234.47" class="down-wick"/>
<rect x="801.54" y="224.66" width="8.00" height="2.18" class="down-body"/>
<line x1="827.50" y1="215.23" x2="827.50" y2="227.17" class="up-wick"/>
<rect x="823.50" y="217.36" width="8.00" height="9.48" class="up-body"/>
<line x1="849.46" y1="209.98" x2="849.46" y2="220.94" class="up-wick"/>
<rect x="845.46" y="212.86" width="8.00" height="4.50" class="up-body"/>
<line x1="871.41" y1="211.40" x2="871.41" y2="232.57" class="down-wick"/>
<rect x="867.41" y="212.86" width="8.00" height="13.92" class="down-body"/>
<line x1="893.37" y1="212.88" x2="893.37" y2="230.89" class="up-wick"/>
<rect x="889.37" y="224.71" width="8.00" height="2.08" class="up-body"/>
<line x1="915.33" y1="220.57" x2="915.33" y2="240.86" class="down-wick"/>
<rect x="911.33" y="224.71" width="8.00" height="15.65" class="down-body"/>
<line x1="937.28" y1="226.39" x2="937.28" y2="244.13" class="up-wick"/>
<rect x="933.28" y="233.13" width="8.00" height="7.23" class="up-body"/>
<line x1="959.24" y1="225.52" x2="959.24" y2="234.60" class="up-wick"/>
<rect x="955.24" y="231.86" width="8.00" height="1.27" class="up-body"/>
<line x1="981.20" y1="231.82" x2="981.20" y2="240.64" class="down-wick"/>
<rect x="977.20" y="231.86" width="8.00" height="2.55" class="down-body"/>
<line x1="1003.15" y1="225.72" x2="1003.15" y2="238.58" class="up-wick"/>
<rect x="999.15" y="230.04" width="8.00" height="4.37" class="up-body"/>
<line x1="1025.11" y1="227.66" x2="1025.11" y2="236.01" class="down-wick"/>
<rect x="1021.11" y="230.02" width="8.00" height="5.21" class="down-body"/>
<line x1="1047.07" y1="229.77" x2="1047.07" y2="236.62" class="up-wick"/>
<rect x="1043.07" y="234.29" width="8.00" height="1.00" class="up-body"/>
<line x1="1069.02" y1="215.85" x2="1069.02" y2="234.29" class="up-wick"/>
<rect x="1065.02" y="216.04" width="8.00" height="18.24" class="up-body"/>
<line x1="70" y1="204.02" x2="1080" y2="204.02" class="sweep-line"/>
<text x="1076" y="200.02" text-anchor="end" class="level-label">sweep 4850.41</text>
<line x1="70" y1="201.38" x2="1080" y2="201.38" class="entry-line"/>
<text x="1076" y="197.38" text-anchor="end" class="level-label">entry level 4867.12</text>
<text x="70" y="306" class="axis-label">2026-01-30 02:00:00+00:00 to 2026-02-03 01:00:00+00:00</text>
<text x="1080" y="306" text-anchor="end" class="axis-label">4318.23 - 5534.87</text>
<text x="70" y="332" class="panel-title">M15 liquidity / reaction context</text>
<rect x="70" y="346" width="1010" height="192" class="plot-bg"/>
<line x1="89.42" y1="368.90" x2="89.42" y2="454.75" class="down-wick"/>
<rect x="85.42" y="420.40" width="8.00" height="18.03" class="down-body"/>
<line x1="128.27" y1="428.52" x2="128.27" y2="461.73" class="down-wick"/>
<rect x="124.27" y="438.39" width="8.00" height="7.66" class="down-body"/>
<line x1="167.12" y1="411.84" x2="167.12" y2="452.60" class="up-wick"/>
<rect x="163.12" y="420.02" width="8.00" height="26.04" class="up-body"/>
<line x1="205.96" y1="418.01" x2="205.96" y2="448.76" class="down-wick"/>
<rect x="201.96" y="420.00" width="8.00" height="18.08" class="down-body"/>
<line x1="244.81" y1="380.59" x2="244.81" y2="438.87" class="up-wick"/>
<rect x="240.81" y="380.91" width="8.00" height="56.97" class="up-body"/>
<line x1="283.65" y1="359.24" x2="283.65" y2="390.81" class="up-wick"/>
<rect x="279.65" y="380.27" width="8.00" height="1.00" class="up-body"/>
<line x1="322.50" y1="379.76" x2="322.50" y2="408.54" class="down-wick"/>
<rect x="318.50" y="380.17" width="8.00" height="23.51" class="down-body"/>
<line x1="361.35" y1="401.68" x2="361.35" y2="428.11" class="down-wick"/>
<rect x="357.35" y="403.60" width="8.00" height="20.59" class="down-body"/>
<line x1="400.19" y1="414.33" x2="400.19" y2="524.76" class="down-wick"/>
<rect x="396.19" y="424.19" width="8.00" height="68.21" class="down-body"/>
<line x1="439.04" y1="455.82" x2="439.04" y2="492.85" class="up-wick"/>
<rect x="435.04" y="462.61" width="8.00" height="29.44" class="up-body"/>
<line x1="477.88" y1="438.81" x2="477.88" y2="478.90" class="up-wick"/>
<rect x="473.88" y="452.73" width="8.00" height="9.86" class="up-body"/>
<line x1="516.73" y1="433.56" x2="516.73" y2="458.21" class="up-wick"/>
<rect x="512.73" y="440.63" width="8.00" height="12.17" class="up-body"/>
<line x1="555.58" y1="433.93" x2="555.58" y2="461.63" class="down-wick"/>
<rect x="551.58" y="440.65" width="8.00" height="2.96" class="down-body"/>
<line x1="594.42" y1="435.75" x2="594.42" y2="452.60" class="up-wick"/>
<rect x="590.42" y="440.00" width="8.00" height="3.63" class="up-body"/>
<line x1="633.27" y1="420.81" x2="633.27" y2="441.38" class="up-wick"/>
<rect x="629.27" y="425.47" width="8.00" height="14.17" class="up-body"/>
<line x1="672.12" y1="425.45" x2="672.12" y2="461.88" class="down-wick"/>
<rect x="668.12" y="425.47" width="8.00" height="29.50" class="down-body"/>
<line x1="710.96" y1="445.42" x2="710.96" y2="466.12" class="down-wick"/>
<rect x="706.96" y="455.04" width="8.00" height="10.18" class="down-body"/>
<line x1="749.81" y1="444.89" x2="749.81" y2="482.21" class="up-wick"/>
<rect x="745.81" y="463.14" width="8.00" height="2.08" class="up-body"/>
<line x1="788.65" y1="460.82" x2="788.65" y2="499.19" class="down-wick"/>
<rect x="784.65" y="463.14" width="8.00" height="16.58" class="down-body"/>
<line x1="827.50" y1="464.12" x2="827.50" y2="494.38" class="down-wick"/>
<rect x="823.50" y="479.65" width="8.00" height="10.77" class="down-body"/>
<line x1="866.35" y1="481.03" x2="866.35" y2="514.11" class="up-wick"/>
<rect x="862.35" y="482.07" width="8.00" height="8.36" class="up-body"/>
<line x1="905.19" y1="458.25" x2="905.19" y2="482.86" class="up-wick"/>
<rect x="901.19" y="476.98" width="8.00" height="5.00" class="up-body"/>
<line x1="944.04" y1="461.11" x2="944.04" y2="483.97" class="up-wick"/>
<rect x="940.04" y="467.34" width="8.00" height="9.64" class="up-body"/>
<line x1="982.88" y1="453.65" x2="982.88" y2="476.42" class="down-wick"/>
<rect x="978.88" y="467.34" width="8.00" height="4.98" class="down-body"/>
<line x1="1021.73" y1="463.20" x2="1021.73" y2="488.88" class="down-wick"/>
<rect x="1017.73" y="472.30" width="8.00" height="9.70" class="down-body"/>
<line x1="1060.58" y1="475.19" x2="1060.58" y2="488.96" class="down-wick"/>
<rect x="1056.58" y="481.92" width="8.00" height="2.07" class="down-body"/>
<line x1="70" y1="378.12" x2="1080" y2="378.12" class="sweep-line"/>
<text x="1076" y="374.12" text-anchor="end" class="level-label">sweep 4850.41</text>
<line x1="70" y1="368.90" x2="1080" y2="368.90" class="entry-line"/>
<text x="1076" y="364.90" text-anchor="end" class="level-label">entry level 4867.12</text>
<text x="70" y="556" class="axis-label">2026-02-02 01:00:00+00:00 to 2026-02-02 07:15:00+00:00</text>
<text x="1080" y="556" text-anchor="end" class="axis-label">4560.53 - 4908.65</text>
<text x="70" y="582" class="panel-title">M5 reaction / execution context</text>
<rect x="70" y="596" width="1010" height="192" class="plot-bg"/>
<line x1="82.62" y1="618.90" x2="82.62" y2="674.48" class="up-wick"/>
<rect x="78.62" y="640.51" width="8.00" height="29.89" class="up-body"/>
<line x1="107.88" y1="638.64" x2="107.88" y2="650.79" class="down-wick"/>
<rect x="103.88" y="640.30" width="8.00" height="7.03" class="down-body"/>
<line x1="133.12" y1="645.32" x2="133.12" y2="704.75" class="down-wick"/>
<rect x="129.12" y="647.34" width="8.00" height="41.10" class="down-body"/>
<line x1="158.38" y1="678.52" x2="158.38" y2="711.73" class="down-wick"/>
<rect x="154.38" y="688.39" width="8.00" height="12.62" class="down-body"/>
<line x1="183.62" y1="687.47" x2="183.62" y2="703.81" class="up-wick"/>
<rect x="179.62" y="699.42" width="8.00" height="1.46" class="up-body"/>
<line x1="208.88" y1="688.76" x2="208.88" y2="702.50" class="up-wick"/>
<rect x="204.88" y="696.05" width="8.00" height="3.38" class="up-body"/>
<line x1="234.12" y1="684.82" x2="234.12" y2="702.60" class="up-wick"/>
<rect x="230.12" y="684.97" width="8.00" height="11.10" class="up-body"/>
<line x1="259.38" y1="665.58" x2="259.38" y2="687.03" class="up-wick"/>
<rect x="255.38" y="667.87" width="8.00" height="17.10" class="up-body"/>
<line x1="284.62" y1="661.84" x2="284.62" y2="673.15" class="down-wick"/>
<rect x="280.62" y="667.87" width="8.00" height="2.15" class="down-body"/>
<line x1="309.88" y1="668.01" x2="309.88" y2="698.76" class="down-wick"/>
<rect x="305.88" y="670.00" width="8.00" height="14.81" class="down-body"/>
<line x1="335.12" y1="673.04" x2="335.12" y2="689.61" class="up-wick"/>
<rect x="331.12" y="682.87" width="8.00" height="1.91" class="up-body"/>
<line x1="360.38" y1="677.18" x2="360.38" y2="689.31" class="down-wick"/>
<rect x="356.38" y="682.87" width="8.00" height="5.21" class="down-body"/>
<line x1="385.62" y1="663.88" x2="385.62" y2="688.87" class="up-wick"/>
<rect x="381.62" y="664.20" width="8.00" height="23.68" class="up-body"/>
<line x1="410.88" y1="643.57" x2="410.88" y2="668.18" class="up-wick"/>
<rect x="406.88" y="645.60" width="8.00" height="18.60" class="up-body"/>
<line x1="436.12" y1="630.59" x2="436.12" y2="648.10" class="up-wick"/>
<rect x="432.12" y="630.91" width="8.00" height="14.70" class="up-body"/>
<line x1="461.38" y1="614.52" x2="461.38" y2="633.07" class="up-wick"/>
<rect x="457.38" y="619.69" width="8.00" height="11.23" class="up-body"/>
<line x1="486.62" y1="609.24" x2="486.62" y2="629.60" class="down-wick"/>
<rect x="482.62" y="619.69" width="8.00" height="4.93" class="down-body"/>
<line x1="511.88" y1="624.35" x2="511.88" y2="640.81" class="down-wick"/>
<rect x="507.88" y="624.62" width="8.00" height="5.65" class="down-body"/>
<line x1="537.12" y1="629.76" x2="537.12" y2="649.16" class="down-wick"/>
<rect x="533.12" y="630.17" width="8.00" height="15.14" class="down-body"/>
<line x1="562.38" y1="630.96" x2="562.38" y2="647.60" class="up-wick"/>
<rect x="558.38" y="637.45" width="8.00" height="7.86" class="up-body"/>
<line x1="587.62" y1="634.06" x2="587.62" y2="658.54" class="down-wick"/>
<rect x="583.62" y="637.45" width="8.00" height="16.23" class="down-body"/>
<line x1="612.88" y1="651.68" x2="612.88" y2="668.13" class="down-wick"/>
<rect x="608.88" y="653.60" width="8.00" height="3.67" class="down-body"/>
<line x1="638.12" y1="656.45" x2="638.12" y2="666.73" class="down-wick"/>
<rect x="634.12" y="657.28" width="8.00" height="3.41" class="down-body"/>
<line x1="663.38" y1="658.31" x2="663.38" y2="678.11" class="down-wick"/>
<rect x="659.38" y="660.68" width="8.00" height="13.51" class="down-body"/>
<line x1="688.62" y1="664.33" x2="688.62" y2="693.69" class="down-wick"/>
<rect x="684.62" y="674.19" width="8.00" height="6.01" class="down-body"/>
<line x1="713.88" y1="674.38" x2="713.88" y2="739.31" class="down-wick"/>
<rect x="709.88" y="680.20" width="8.00" height="54.98" class="down-body"/>
<line x1="739.12" y1="732.27" x2="739.12" y2="774.76" class="down-wick"/>
<rect x="735.12" y="735.03" width="8.00" height="7.38" class="down-body"/>
<line x1="764.38" y1="710.56" x2="764.38" y2="742.85" class="up-wick"/>
<rect x="760.38" y="723.07" width="8.00" height="18.98" class="up-body"/>
<line x1="789.62" y1="705.82" x2="789.62" y2="740.93" class="down-wick"/>
<rect x="785.62" y="723.07" width="8.00" height="2.71" class="down-body"/>
<line x1="814.88" y1="706.95" x2="814.88" y2="734.37" class="up-wick"/>
<rect x="810.88" y="712.61" width="8.00" height="13.02" class="up-body"/>
<line x1="840.12" y1="705.63" x2="840.12" y2="728.90" class="up-wick"/>
<rect x="836.12" y="709.08" width="8.00" height="3.51" class="up-body"/>
<line x1="865.38" y1="688.81" x2="865.38" y2="709.07" class="up-wick"/>
<rect x="861.38" y="704.17" width="8.00" height="4.90" class="up-body"/>
<line x1="890.62" y1="697.96" x2="890.62" y2="716.04" class="up-wick"/>
<rect x="886.62" y="702.73" width="8.00" height="1.44" class="up-body"/>
<line x1="915.88" y1="693.81" x2="915.88" y2="708.21" class="up-wick"/>
<rect x="911.88" y="699.19" width="8.00" height="3.61" class="up-body"/>
<line x1="941.12" y1="683.56" x2="941.12" y2="701.46" class="up-wick"/>
<rect x="937.12" y="691.24" width="8.00" height="7.91" class="up-body"/>
<line x1="966.38" y1="686.40" x2="966.38" y2="698.84" class="up-wick"/>
<rect x="962.38" y="690.63" width="8.00" height="1.00" class="up-body"/>
<line x1="991.62" y1="683.93" x2="991.62" y2="705.09" class="down-wick"/>
<rect x="987.62" y="690.65" width="8.00" height="6.40" class="down-body"/>
<line x1="1016.88" y1="696.63" x2="1016.88" y2="706.68" class="down-wick"/>
<rect x="1012.88" y="697.09" width="8.00" height="7.42" class="down-body"/>
<line x1="1042.12" y1="688.66" x2="1042.12" y2="711.63" class="up-wick"/>
<rect x="1038.12" y="693.60" width="8.00" height="10.95" class="up-body"/>
<line x1="1067.38" y1="686.05" x2="1067.38" y2="698.95" class="up-wick"/>
<rect x="1063.38" y="691.70" width="8.00" height="1.94" class="up-body"/>
<line x1="70" y1="628.12" x2="1080" y2="628.12" class="sweep-line"/>
<text x="1076" y="624.12" text-anchor="end" class="level-label">sweep 4850.41</text>
<line x1="70" y1="618.90" x2="1080" y2="618.90" class="entry-line"/>
<text x="1076" y="614.90" text-anchor="end" class="level-label">entry level 4867.12</text>
<text x="70" y="806" class="axis-label">2026-02-02 01:00:00+00:00 to 2026-02-02 04:15:00+00:00</text>
<text x="1080" y="806" text-anchor="end" class="axis-label">4560.53 - 4908.65</text>
<text x="70" y="832" class="panel-title">M1 execution window</text>
<rect x="70" y="846" width="1010" height="192" class="plot-bg"/>
<line x1="72.58" y1="913.44" x2="72.58" y2="924.48" class="up-wick"/>
<rect x="70.90" y="913.78" width="3.35" height="6.62" class="up-body"/>
<line x1="77.73" y1="899.93" x2="77.73" y2="917.27" class="up-wick"/>
<rect x="76.05" y="900.15" width="3.35" height="13.61" class="up-body"/>
<line x1="82.88" y1="878.12" x2="82.88" y2="902.05" class="up-wick"/>
<rect x="81.21" y="878.36" width="3.35" height="21.80" class="up-body"/>
<line x1="88.04" y1="868.90" x2="88.04" y2="887.97" class="down-wick"/>
<rect x="86.36" y="878.35" width="3.35" height="8.52" class="down-body"/>
<line x1="93.19" y1="882.64" x2="93.19" y2="890.81" class="down-wick"/>
<rect x="91.51" y="886.92" width="3.35" height="3.59" class="down-body"/>
<line x1="98.34" y1="888.64" x2="98.34" y2="900.29" class="down-wick"/>
<rect x="96.67" y="890.30" width="3.35" height="4.99" class="down-body"/>
<line x1="103.49" y1="893.85" x2="103.49" y2="898.00" class="down-wick"/>
<rect x="101.82" y="895.42" width="3.35" height="1.00" class="down-body"/>
<line x1="108.65" y1="893.48" x2="108.65" y2="900.79" class="up-wick"/>
<rect x="106.97" y="893.56" width="3.35" height="2.27" class="up-body"/>
<line x1="113.80" y1="892.90" x2="113.80" y2="895.33" class="down-wick"/>
<rect x="112.13" y="893.68" width="3.35" height="1.00" class="down-body"/>
<line x1="118.95" y1="893.50" x2="118.95" y2="897.66" class="down-wick"/>
<rect x="117.28" y="894.47" width="3.35" height="2.86" class="down-body"/>
<line x1="124.11" y1="895.32" x2="124.11" y2="922.28" class="down-wick"/>
<rect x="122.43" y="897.34" width="3.35" height="24.21" class="down-body"/>
<line x1="129.26" y1="908.66" x2="129.26" y2="954.75" class="down-wick"/>
<rect x="127.59" y="933.27" width="3.35" height="20.69" class="down-body"/>
<line x1="134.41" y1="927.24" x2="134.41" y2="953.96" class="up-wick"/>
<rect x="132.74" y="930.04" width="3.35" height="23.93" class="up-body"/>
<line x1="139.57" y1="918.80" x2="139.57" y2="929.64" class="up-wick"/>
<rect x="137.89" y="924.12" width="3.35" height="5.52" class="up-body"/>
<line x1="144.72" y1="922.38" x2="144.72" y2="940.20" class="down-wick"/>
<rect x="143.04" y="924.10" width="3.35" height="14.33" class="down-body"/>
<line x1="149.87" y1="928.52" x2="149.87" y2="946.21" class="down-wick"/>
<rect x="148.20" y="938.39" width="3.35" height="3.74" class="down-body"/>
<line x1="155.03" y1="934.67" x2="155.03" y2="944.99" class="down-wick"/>
<rect x="153.35" y="942.79" width="3.35" height="1.00" class="down-body"/>
<line x1="160.18" y1="941.78" x2="160.18" y2="946.10" class="down-wick"/>
<rect x="158.50" y="943.66" width="3.35" height="1.25" class="down-body"/>
<line x1="165.33" y1="944.67" x2="165.33" y2="961.73" class="down-wick"/>
<rect x="163.66" y="944.91" width="3.35" height="14.45" class="down-body"/>
<line x1="170.48" y1="946.85" x2="170.48" y2="959.86" class="up-wick"/>
<rect x="168.81" y="951.02" width="3.35" height="8.34" class="up-body"/>
<line x1="175.64" y1="946.36" x2="175.64" y2="953.81" class="up-wick"/>
<rect x="173.96" y="946.57" width="3.35" height="4.31" class="up-body"/>
<line x1="180.79" y1="943.10" x2="180.79" y2="951.13" class="up-wick"/>
<rect x="179.12" y="945.99" width="3.35" height="1.00" class="up-body"/>
<line x1="185.94" y1="942.70" x2="185.94" y2="947.70" class="up-wick"/>
<rect x="184.27" y="945.41" width="3.35" height="1.00" class="up-body"/>
<line x1="191.10" y1="937.47" x2="191.10" y2="946.11" class="up-wick"/>
<rect x="189.42" y="938.28" width="3.35" height="7.13" class="up-body"/>
<line x1="196.25" y1="937.58" x2="196.25" y2="951.23" class="down-wick"/>
<rect x="194.58" y="938.28" width="3.35" height="11.14" class="down-body"/>
<line x1="201.40" y1="940.89" x2="201.40" y2="952.50" class="up-wick"/>
<rect x="199.73" y="942.39" width="3.35" height="7.03" class="up-body"/>
<line x1="206.56" y1="938.77" x2="206.56" y2="945.68" class="up-wick"/>
<rect x="204.88" y="939.13" width="3.35" height="3.20" class="up-body"/>
<line x1="211.71" y1="938.76" x2="211.71" y2="949.36" class="down-wick"/>
<rect x="210.03" y="939.01" width="3.35" height="8.53" class="down-body"/>
<line x1="216.86" y1="943.29" x2="216.86" y2="951.43" class="up-wick"/>
<rect x="215.19" y="946.49" width="3.35" height="1.04" class="up-body"/>
<line x1="222.02" y1="943.22" x2="222.02" y2="947.27" class="up-wick"/>
<rect x="220.34" y="946.05" width="3.35" height="1.00" class="up-body"/>
<line x1="227.17" y1="944.41" x2="227.17" y2="950.85" class="down-wick"/>
<rect x="225.49" y="946.06" width="3.35" height="3.90" class="down-body"/>
<line x1="232.32" y1="946.94" x2="232.32" y2="952.60" class="up-wick"/>
<rect x="230.65" y="947.91" width="3.35" height="2.06" class="up-body"/>
<line x1="237.47" y1="940.76" x2="237.47" y2="947.91" class="up-wick"/>
<rect x="235.80" y="942.90" width="3.35" height="5.00" class="up-body"/>
<line x1="242.63" y1="941.56" x2="242.63" y2="946.22" class="up-wick"/>
<rect x="240.95" y="942.81" width="3.35" height="1.00" class="up-body"/>
<line x1="247.78" y1="934.82" x2="247.78" y2="942.81" class="up-wick"/>
<rect x="246.11" y="934.97" width="3.35" height="7.84" class="up-body"/>
<line x1="252.93" y1="929.30" x2="252.93" y2="937.03" class="up-wick"/>
<rect x="251.26" y="929.30" width="3.35" height="5.67" class="up-body"/>
<line x1="258.09" y1="928.17" x2="258.09" y2="933.87" class="down-wick"/>
<rect x="256.41" y="929.79" width="3.35" height="1.00" class="down-body"/>
<line x1="263.24" y1="922.98" x2="263.24" y2="930.87" class="up-wick"/>
<rect x="261.57" y="925.53" width="3.35" height="4.96" class="up-body"/>
<line x1="268.39" y1="915.83" x2="268.39" y2="925.53" class="up-wick"/>
<rect x="266.72" y="917.77" width="3.35" height="7.77" class="up-body"/>
<line x1="273.55" y1="915.58" x2="273.55" y2="921.15" class="down-wick"/>
<rect x="271.87" y="917.77" width="3.35" height="1.00" class="down-body"/>
<line x1="278.70" y1="911.84" x2="278.70" y2="919.71" class="up-wick"/>
<rect x="277.02" y="915.16" width="3.35" height="2.71" class="up-body"/>
<line x1="283.85" y1="915.03" x2="283.85" y2="922.13" class="down-wick"/>
<rect x="282.18" y="915.14" width="3.35" height="5.34" class="down-body"/>
<line x1="289.01" y1="916.98" x2="289.01" y2="923.15" class="up-wick"/>
<rect x="287.33" y="920.11" width="3.35" height="1.00" class="up-body"/>
<line x1="294.16" y1="917.48" x2="294.16" y2="922.60" class="down-wick"/>
<rect x="292.48" y="920.11" width="3.35" height="1.13" class="down-body"/>
<line x1="299.31" y1="918.28" x2="299.31" y2="922.44" class="up-wick"/>
<rect x="297.64" y="920.02" width="3.35" height="1.22" class="up-body"/>
<line x1="304.46" y1="918.01" x2="304.46" y2="945.02" class="down-wick"/>
<rect x="302.79" y="920.00" width="3.35" height="15.95" class="down-body"/>
<line x1="309.62" y1="929.41" x2="309.62" y2="944.32" class="up-wick"/>
<rect x="307.94" y="933.95" width="3.35" height="1.85" class="up-body"/>
<line x1="314.77" y1="933.93" x2="314.77" y2="948.76" class="down-wick"/>
<rect x="313.10" y="933.93" width="3.35" height="8.23" class="down-body"/>
<line x1="319.92" y1="941.33" x2="319.92" y2="946.93" class="down-wick"/>
<rect x="318.25" y="942.34" width="3.35" height="1.80" class="down-body"/>
<line x1="325.08" y1="933.03" x2="325.08" y2="944.02" class="up-wick"/>
<rect x="323.40" y="934.81" width="3.35" height="9.21" class="up-body"/>
<line x1="330.23" y1="923.04" x2="330.23" y2="935.00" class="up-wick"/>
<rect x="328.55" y="927.84" width="3.35" height="6.94" class="up-body"/>
<line x1="335.38" y1="925.87" x2="335.38" y2="939.61" class="down-wick"/>
<rect x="333.71" y="927.85" width="3.35" height="9.26" class="down-body"/>
<line x1="340.54" y1="926.99" x2="340.54" y2="937.15" class="up-wick"/>
<rect x="338.86" y="930.63" width="3.35" height="6.48" class="up-body"/>
<line x1="345.69" y1="928.99" x2="345.69" y2="939.05" class="down-wick"/>
<rect x="344.01" y="930.63" width="3.35" height="7.31" class="down-body"/>
<line x1="350.84" y1="928.82" x2="350.84" y2="938.42" class="up-wick"/>
<rect x="349.17" y="932.87" width="3.35" height="5.12" class="up-body"/>
<line x1="355.99" y1="927.59" x2="355.99" y2="933.09" class="up-wick"/>
<rect x="354.32" y="929.01" width="3.35" height="3.86" class="up-body"/>
<line x1="361.15" y1="927.18" x2="361.15" y2="933.74" class="down-wick"/>
<rect x="359.47" y="929.00" width="3.35" height="1.00" class="down-body"/>
<line x1="366.30" y1="929.78" x2="366.30" y2="937.53" class="down-wick"/>
<rect x="364.63" y="930.01" width="3.35" height="3.24" class="down-body"/>
<line x1="371.45" y1="930.92" x2="371.45" y2="934.35" class="down-wick"/>
<rect x="369.78" y="933.16" width="3.35" height="1.00" class="down-body"/>
<line x1="376.61" y1="933.20" x2="376.61" y2="939.31" class="down-wick"/>
<rect x="374.93" y="933.56" width="3.35" height="4.52" class="down-body"/>
<line x1="381.76" y1="928.49" x2="381.76" y2="938.87" class="up-wick"/>
<rect x="380.09" y="929.03" width="3.35" height="8.85" class="up-body"/>
<line x1="386.91" y1="923.51" x2="386.91" y2="929.68" class="up-wick"/>
<rect x="385.24" y="924.73" width="3.35" height="4.30" class="up-body"/>
<line x1="392.07" y1="920.59" x2="392.07" y2="924.73" class="up-wick"/>
<rect x="390.39" y="921.57" width="3.35" height="3.17" class="up-body"/>
<line x1="397.22" y1="920.61" x2="397.22" y2="923.48" class="down-wick"/>
<rect x="395.54" y="921.57" width="3.35" height="1.41" class="down-body"/>
<line x1="402.37" y1="913.88" x2="402.37" y2="923.14" class="up-wick"/>
<rect x="400.70" y="914.20" width="3.35" height="8.79" class="up-body"/>
<line x1="407.53" y1="913.11" x2="407.53" y2="917.90" class="down-wick"/>
<rect x="405.85" y="914.20" width="3.35" height="1.00" class="down-body"/>
<line x1="412.68" y1="911.38" x2="412.68" y2="916.56" class="up-wick"/>
<rect x="411.00" y="914.13" width="3.35" height="1.00" class="up-body"/>
<line x1="417.83" y1="910.60" x2="417.83" y2="917.46" class="down-wick"/>
<rect x="416.16" y="914.17" width="3.35" height="3.18" class="down-body"/>
<line x1="422.98" y1="900.71" x2="422.98" y2="918.18" class="up-wick"/>
<rect x="421.31" y="901.23" width="3.35" height="16.12" class="up-body"/>
<line x1="428.14" y1="893.57" x2="428.14" y2="902.96" class="up-wick"/>
<rect x="426.46" y="895.60" width="3.35" height="5.63" class="up-body"/>
<line x1="433.29" y1="892.64" x2="433.29" y2="897.95" class="down-wick"/>
<rect x="431.62" y="895.61" width="3.35" height="1.00" class="down-body"/>
<line x1="438.44" y1="886.97" x2="438.44" y2="898.10" class="up-wick"/>
<rect x="436.77" y="887.20" width="3.35" height="9.33" class="up-body"/>
<line x1="443.60" y1="886.00" x2="443.60" y2="896.08" class="down-wick"/>
<rect x="441.92" y="887.20" width="3.35" height="5.91" class="down-body"/>
<line x1="448.75" y1="883.64" x2="448.75" y2="893.11" class="up-wick"/>
<rect x="447.08" y="884.64" width="3.35" height="8.47" class="up-body"/>
<line x1="453.90" y1="880.59" x2="453.90" y2="884.64" class="up-wick"/>
<rect x="452.23" y="880.91" width="3.35" height="3.73" class="up-body"/>
<line x1="459.06" y1="875.56" x2="459.06" y2="883.07" class="up-wick"/>
<rect x="457.38" y="876.31" width="3.35" height="4.61" class="up-body"/>
<line x1="464.21" y1="875.45" x2="464.21" y2="880.56" class="down-wick"/>
<rect x="462.53" y="876.31" width="3.35" height="3.90" class="down-body"/>
<line x1="469.36" y1="876.64" x2="469.36" y2="881.19" class="up-wick"/>
<rect x="467.69" y="877.99" width="3.35" height="2.18" class="up-body"/>
<line x1="474.52" y1="865.99" x2="474.52" y2="880.33" class="up-wick"/>
<rect x="472.84" y="868.07" width="3.35" height="9.92" class="up-body"/>
<line x1="479.67" y1="864.52" x2="479.67" y2="871.70" class="down-wick"/>
<rect x="477.99" y="867.87" width="3.35" height="1.81" class="down-body"/>
<line x1="484.82" y1="869.20" x2="484.82" y2="879.60" class="down-wick"/>
<rect x="483.15" y="869.69" width="3.35" height="3.79" class="down-body"/>
<line x1="489.97" y1="859.86" x2="489.97" y2="873.80" class="up-wick"/>
<rect x="488.30" y="860.22" width="3.35" height="13.26" class="up-body"/>
<line x1="495.13" y1="859.24" x2="495.13" y2="865.61" class="down-wick"/>
<rect x="493.45" y="860.00" width="3.35" height="2.71" class="down-body"/>
<line x1="500.28" y1="862.70" x2="500.28" y2="872.99" class="down-wick"/>
<rect x="498.61" y="862.70" width="3.35" height="6.41" class="down-body"/>
<line x1="505.43" y1="863.48" x2="505.43" y2="875.29" class="down-wick"/>
<rect x="503.76" y="869.11" width="3.35" height="5.51" class="down-body"/>
<line x1="510.59" y1="874.35" x2="510.59" y2="890.81" class="down-wick"/>
<rect x="508.91" y="874.62" width="3.35" height="5.79" class="down-body"/>
<line x1="515.74" y1="876.06" x2="515.74" y2="882.21" class="down-wick"/>
<rect x="514.07" y="880.24" width="3.35" height="1.60" class="down-body"/>
<line x1="520.89" y1="875.89" x2="520.89" y2="881.82" class="up-wick"/>
<rect x="519.22" y="878.05" width="3.35" height="3.62" class="up-body"/>
<line x1="526.05" y1="877.39" x2="526.05" y2="887.89" class="down-wick"/>
<rect x="524.37" y="878.05" width="3.35" height="3.29" class="down-body"/>
<line x1="531.20" y1="876.97" x2="531.20" y2="882.19" class="up-wick"/>
<rect x="529.52" y="880.27" width="3.35" height="1.21" class="up-body"/>
<line x1="536.35" y1="879.76" x2="536.35" y2="890.49" class="down-wick"/>
<rect x="534.68" y="880.17" width="3.35" height="7.84" class="down-body"/>
<line x1="541.51" y1="886.63" x2="541.51" y2="892.25" class="down-wick"/>
<rect x="539.83" y="888.03" width="3.35" height="2.91" class="down-body"/>
<line x1="546.66" y1="886.92" x2="546.66" y2="893.17" class="down-wick"/>
<rect x="544.98" y="890.93" width="3.35" height="1.71" class="down-body"/>
<line x1="551.81" y1="887.13" x2="551.81" y2="899.16" class="down-wick"/>
<rect x="550.14" y="892.72" width="3.35" height="5.45" class="down-body"/>
<line x1="556.96" y1="892.80" x2="556.96" y2="898.69" class="up-wick"/>
<rect x="555.29" y="895.31" width="3.35" height="2.91" class="up-body"/>
<line x1="562.12" y1="888.84" x2="562.12" y2="897.60" class="up-wick"/>
<rect x="560.44" y="890.67" width="3.35" height="4.63" class="up-body"/>
<line x1="567.27" y1="880.96" x2="567.27" y2="890.80" class="up-wick"/>
<rect x="565.60" y="888.79" width="3.35" height="1.59" class="up-body"/>
<line x1="572.42" y1="886.27" x2="572.42" y2="892.05" class="up-wick"/>
<rect x="570.75" y="888.06" width="3.35" height="1.00" class="up-body"/>
<line x1="577.58" y1="887.33" x2="577.58" y2="891.67" class="down-wick"/>
<rect x="575.90" y="888.06" width="3.35" height="3.17" class="down-body"/>
<line x1="582.73" y1="886.60" x2="582.73" y2="893.21" class="up-wick"/>
<rect x="581.05" y="887.45" width="3.35" height="3.78" class="up-body"/>
<line x1="587.88" y1="884.06" x2="587.88" y2="890.41" class="down-wick"/>
<rect x="586.21" y="887.45" width="3.35" height="2.81" class="down-body"/>
<line x1="593.04" y1="884.52" x2="593.04" y2="890.74" class="up-wick"/>
<rect x="591.36" y="888.70" width="3.35" height="1.56" class="up-body"/>
<line x1="598.19" y1="886.81" x2="598.19" y2="891.79" class="down-wick"/>
<rect x="596.51" y="888.73" width="3.35" height="1.74" class="down-body"/>
<line x1="603.34" y1="887.84" x2="603.34" y2="903.51" class="down-wick"/>
<rect x="601.67" y="890.48" width="3.35" height="11.80" class="down-body"/>
<line x1="608.49" y1="895.67" x2="608.49" y2="908.54" class="down-wick"/>
<rect x="606.82" y="902.26" width="3.35" height="1.42" class="down-body"/>
<line x1="613.65" y1="901.73" x2="613.65" y2="911.87" class="down-wick"/>
<rect x="611.97" y="903.60" width="3.35" height="5.60" class="down-body"/>
<line x1="618.80" y1="901.68" x2="618.80" y2="909.84" class="up-wick"/>
<rect x="617.13" y="908.52" width="3.35" height="1.00" class="up-body"/>
<line x1="623.95" y1="906.45" x2="623.95" y2="915.84" class="down-wick"/>
<rect x="622.28" y="908.52" width="3.35" height="6.73" class="down-body"/>
<line x1="629.11" y1="906.80" x2="629.11" y2="918.13" class="up-wick"/>
<rect x="627.43" y="910.37" width="3.35" height="4.88" class="up-body"/>
<line x1="634.26" y1="906.40" x2="634.26" y2="910.37" class="up-wick"/>
<rect x="632.59" y="907.28" width="3.35" height="3.09" class="up-body"/>
<line x1="639.41" y1="906.56" x2="639.41" y2="910.61" class="down-wick"/>
<rect x="637.74" y="907.28" width="3.35" height="1.15" class="down-body"/>
<line x1="644.57" y1="908.21" x2="644.57" y2="916.73" class="down-wick"/>
<rect x="642.89" y="908.43" width="3.35" height="3.95" class="down-body"/>
<line x1="649.72" y1="906.45" x2="649.72" y2="913.29" class="up-wick"/>
<rect x="648.04" y="908.09" width="3.35" height="4.30" class="up-body"/>
<line x1="654.87" y1="908.07" x2="654.87" y2="911.46" class="down-wick"/>
<rect x="653.20" y="908.13" width="3.35" height="3.33" class="down-body"/>
<line x1="660.03" y1="908.98" x2="660.03" y2="912.36" class="up-wick"/>
<rect x="658.35" y="910.68" width="3.35" height="1.00" class="up-body"/>
<line x1="665.18" y1="908.31" x2="665.18" y2="917.29" class="down-wick"/>
<rect x="663.50" y="910.68" width="3.35" height="6.51" class="down-body"/>
<line x1="670.33" y1="916.13" x2="670.33" y2="928.11" class="down-wick"/>
<rect x="668.66" y="917.24" width="3.35" height="7.42" class="down-body"/>
<line x1="675.48" y1="919.34" x2="675.48" y2="925.00" class="up-wick"/>
<rect x="673.81" y="921.49" width="3.35" height="3.17" class="up-body"/>
<line x1="680.64" y1="915.95" x2="680.64" y2="922.06" class="up-wick"/>
<rect x="678.96" y="916.02" width="3.35" height="5.50" class="up-body"/>
<line x1="685.79" y1="915.37" x2="685.79" y2="926.00" class="down-wick"/>
<rect x="684.12" y="916.06" width="3.35" height="8.13" class="down-body"/>
<line x1="690.94" y1="924.04" x2="690.94" y2="943.69" class="down-wick"/>
<rect x="689.27" y="924.19" width="3.35" height="15.55" class="down-body"/>
<line x1="696.10" y1="927.59" x2="696.10" y2="942.17" class="up-wick"/>
<rect x="694.42" y="933.96" width="3.35" height="5.78" class="up-body"/>
<line x1="701.25" y1="916.15" x2="701.25" y2="936.05" class="up-wick"/>
<rect x="699.58" y="917.59" width="3.35" height="16.38" class="up-body"/>
<line x1="706.40" y1="914.33" x2="706.40" y2="923.53" class="down-wick"/>
<rect x="704.73" y="917.45" width="3.35" height="3.52" class="down-body"/>
<line x1="711.56" y1="918.63" x2="711.56" y2="931.01" class="down-wick"/>
<rect x="709.88" y="920.97" width="3.35" height="9.23" class="down-body"/>
<line x1="716.71" y1="924.38" x2="716.71" y2="931.09" class="up-wick"/>
<rect x="715.03" y="926.69" width="3.35" height="3.51" class="up-body"/>
<line x1="721.86" y1="926.24" x2="721.86" y2="944.47" class="down-wick"/>
<rect x="720.19" y="926.69" width="3.35" height="7.16" class="down-body"/>
<line x1="727.02" y1="933.80" x2="727.02" y2="962.27" class="down-wick"/>
<rect x="725.34" y="933.84" width="3.35" height="27.10" class="down-body"/>
<line x1="732.17" y1="953.02" x2="732.17" y2="964.71" class="up-wick"/>
<rect x="730.49" y="954.13" width="3.35" height="6.81" class="up-body"/>
<line x1="737.32" y1="953.63" x2="737.32" y2="989.31" class="down-wick"/>
<rect x="735.65" y="954.04" width="3.35" height="31.14" class="down-body"/>
<line x1="742.47" y1="982.27" x2="742.47" y2="1024.38" class="down-wick"/>
<rect x="740.80" y="985.03" width="3.35" height="39.13" class="down-body"/>
<line x1="747.63" y1="1000.40" x2="747.63" y2="1024.76" class="up-wick"/>
<rect x="745.95" y="1007.67" width="3.35" height="16.71" class="up-body"/>
<line x1="752.78" y1="998.09" x2="752.78" y2="1020.74" class="down-wick"/>
<rect x="751.11" y="1007.66" width="3.35" height="12.45" class="down-body"/>
<line x1="757.93" y1="989.98" x2="757.93" y2="1020.48" class="up-wick"/>
<rect x="756.26" y="997.02" width="3.35" height="22.85" class="up-body"/>
<line x1="763.09" y1="988.00" x2="763.09" y2="1006.48" class="up-wick"/>
<rect x="761.41" y="992.41" width="3.35" height="4.61" class="up-body"/>
<line x1="768.24" y1="975.29" x2="768.24" y2="992.85" class="up-wick"/>
<rect x="766.57" y="977.46" width="3.35" height="14.59" class="up-body"/>
<line x1="773.39" y1="966.23" x2="773.39" y2="986.55" class="up-wick"/>
<rect x="771.72" y="969.46" width="3.35" height="8.36" class="up-body"/>
<line x1="778.55" y1="960.56" x2="778.55" y2="975.47" class="down-wick"/>
<rect x="776.87" y="969.09" width="3.35" height="1.41" class="down-body"/>
<line x1="783.70" y1="965.08" x2="783.70" y2="979.01" class="down-wick"/>
<rect x="782.02" y="970.64" width="3.35" height="6.94" class="down-body"/>
<line x1="788.85" y1="969.89" x2="788.85" y2="978.18" class="up-wick"/>
<rect x="787.18" y="973.07" width="3.35" height="4.52" class="up-body"/>
<line x1="794.01" y1="955.82" x2="794.01" y2="977.84" class="up-wick"/>
<rect x="792.33" y="959.72" width="3.35" height="13.35" class="up-body"/>
<line x1="799.16" y1="959.69" x2="799.16" y2="973.17" class="down-wick"/>
<rect x="797.48" y="959.71" width="3.35" height="5.78" class="down-body"/>
<line x1="804.31" y1="965.46" x2="804.31" y2="973.42" class="down-wick"/>
<rect x="802.64" y="965.49" width="3.35" height="4.53" class="down-body"/>
<line x1="809.46" y1="970.00" x2="809.46" y2="990.93" class="down-wick"/>
<rect x="807.79" y="970.00" width="3.35" height="18.60" class="down-body"/>
<line x1="814.62" y1="974.61" x2="814.62" y2="989.47" class="up-wick"/>
<rect x="812.94" y="975.78" width="3.35" height="13.09" class="up-body"/>
<line x1="819.77" y1="970.40" x2="819.77" y2="984.37" class="down-wick"/>
<rect x="818.10" y="975.63" width="3.35" height="6.58" class="down-body"/>
<line x1="824.92" y1="964.68" x2="824.92" y2="982.21" class="up-wick"/>
<rect x="823.25" y="966.91" width="3.35" height="15.30" class="up-body"/>
<line x1="830.08" y1="964.92" x2="830.08" y2="972.46" class="down-wick"/>
<rect x="828.40" y="966.91" width="3.35" height="3.21" class="down-body"/>
<line x1="835.23" y1="956.95" x2="835.23" y2="970.75" class="up-wick"/>
<rect x="833.55" y="958.94" width="3.35" height="11.18" class="up-body"/>
<line x1="840.38" y1="958.71" x2="840.38" y2="967.41" class="down-wick"/>
<rect x="838.71" y="958.94" width="3.35" height="3.67" class="down-body"/>
<line x1="845.54" y1="962.05" x2="845.54" y2="978.90" class="down-wick"/>
<rect x="843.86" y="962.59" width="3.35" height="10.98" class="down-body"/>
<line x1="850.69" y1="965.67" x2="850.69" y2="973.56" class="up-wick"/>
<rect x="849.01" y="969.08" width="3.35" height="4.48" class="up-body"/>
<line x1="855.84" y1="965.21" x2="855.84" y2="972.53" class="up-wick"/>
<rect x="854.17" y="965.51" width="3.35" height="3.57" class="up-body"/>
<line x1="860.99" y1="955.84" x2="860.99" y2="966.23" class="up-wick"/>
<rect x="859.32" y="955.85" width="3.35" height="9.66" class="up-body"/>
<line x1="866.15" y1="955.63" x2="866.15" y2="966.58" class="down-wick"/>
<rect x="864.47" y="955.84" width="3.35" height="3.24" class="down-body"/>
<line x1="871.30" y1="946.62" x2="871.30" y2="959.07" class="up-wick"/>
<rect x="869.63" y="947.05" width="3.35" height="12.02" class="up-body"/>
<line x1="876.45" y1="938.81" x2="876.45" y2="948.65" class="up-wick"/>
<rect x="874.78" y="941.76" width="3.35" height="5.29" class="up-body"/>
<line x1="881.61" y1="941.71" x2="881.61" y2="952.30" class="down-wick"/>
<rect x="879.93" y="941.75" width="3.35" height="9.89" class="down-body"/>
<line x1="886.76" y1="946.90" x2="886.76" y2="956.16" class="down-wick"/>
<rect x="885.09" y="951.65" width="3.35" height="1.53" class="down-body"/>
<line x1="891.91" y1="947.31" x2="891.91" y2="955.93" class="down-wick"/>
<rect x="890.24" y="953.19" width="3.35" height="1.00" class="down-body"/>
<line x1="897.07" y1="947.96" x2="897.07" y2="957.82" class="up-wick"/>
<rect x="895.39" y="951.90" width="3.35" height="2.27" class="up-body"/>
<line x1="902.22" y1="951.63" x2="902.22" y2="964.87" class="down-wick"/>
<rect x="900.54" y="951.90" width="3.35" height="9.87" class="down-body"/>
<line x1="907.37" y1="956.60" x2="907.37" y2="966.04" class="up-wick"/>
<rect x="905.70" y="959.75" width="3.35" height="2.01" class="up-body"/>
<line x1="912.53" y1="952.87" x2="912.53" y2="964.62" class="up-wick"/>
<rect x="910.85" y="952.96" width="3.35" height="6.79" class="up-body"/>
<line x1="917.68" y1="951.67" x2="917.68" y2="960.27" class="up-wick"/>
<rect x="916.00" y="952.73" width="3.35" height="1.00" class="up-body"/>
<line x1="922.83" y1="950.12" x2="922.83" y2="956.86" class="down-wick"/>
<rect x="921.16" y="952.80" width="3.35" height="2.49" class="down-body"/>
<line x1="927.98" y1="950.20" x2="927.98" y2="958.21" class="up-wick"/>
<rect x="926.31" y="950.24" width="3.35" height="4.94" class="up-body"/>
<line x1="933.14" y1="943.81" x2="933.14" y2="951.32" class="up-wick"/>
<rect x="931.46" y="944.37" width="3.35" height="5.87" class="up-body"/>
<line x1="938.29" y1="944.27" x2="938.29" y2="949.72" class="down-wick"/>
<rect x="936.62" y="944.37" width="3.35" height="2.37" class="down-body"/>
<line x1="943.44" y1="944.28" x2="943.44" y2="949.85" class="down-wick"/>
<rect x="941.77" y="946.74" width="3.35" height="2.45" class="down-body"/>
<line x1="948.60" y1="944.18" x2="948.60" y2="951.46" class="up-wick"/>
<rect x="946.92" y="944.21" width="3.35" height="4.95" class="up-body"/>
<line x1="953.75" y1="933.56" x2="953.75" y2="944.21" class="up-wick"/>
<rect x="952.08" y="937.14" width="3.35" height="7.07" class="up-body"/>
<line x1="958.90" y1="936.25" x2="958.90" y2="942.03" class="down-wick"/>
<rect x="957.23" y="937.14" width="3.35" height="4.90" class="down-body"/>
<line x1="964.06" y1="937.73" x2="964.06" y2="942.66" class="up-wick"/>
<rect x="962.38" y="940.25" width="3.35" height="1.79" class="up-body"/>
<line x1="969.21" y1="937.13" x2="969.21" y2="941.92" class="down-wick"/>
<rect x="967.53" y="940.25" width="3.35" height="1.00" class="down-body"/>
<line x1="974.36" y1="936.40" x2="974.36" y2="943.56" class="down-wick"/>
<rect x="972.69" y="941.12" width="3.35" height="1.15" class="down-body"/>
<line x1="979.52" y1="941.78" x2="979.52" y2="948.84" class="down-wick"/>
<rect x="977.84" y="942.25" width="3.35" height="1.00" class="down-body"/>
<line x1="984.67" y1="936.88" x2="984.67" y2="943.22" class="up-wick"/>
<rect x="982.99" y="939.81" width="3.35" height="2.65" class="up-body"/>
<line x1="989.82" y1="937.17" x2="989.82" y2="945.60" class="down-wick"/>
<rect x="988.15" y="939.89" width="3.35" height="3.35" class="down-body"/>
<line x1="994.97" y1="937.80" x2="994.97" y2="943.26" class="up-wick"/>
<rect x="993.30" y="940.63" width="3.35" height="2.61" class="up-body"/>
<line x1="1000.13" y1="933.93" x2="1000.13" y2="942.89" class="up-wick"/>
<rect x="998.45" y="939.87" width="3.35" height="1.00" class="up-body"/>
<line x1="1005.28" y1="938.61" x2="1005.28" y2="946.73" class="down-wick"/>
<rect x="1003.61" y="939.87" width="3.35" height="4.51" class="down-body"/>
<line x1="1010.43" y1="940.68" x2="1010.43" y2="948.78" class="down-wick"/>
<rect x="1008.76" y="944.39" width="3.35" height="1.00" class="down-body"/>
<line x1="1015.59" y1="942.41" x2="1015.59" y2="954.39" class="down-wick"/>
<rect x="1013.91" y="944.40" width="3.35" height="7.38" class="down-body"/>
<line x1="1020.74" y1="944.91" x2="1020.74" y2="955.09" class="up-wick"/>
<rect x="1019.07" y="947.05" width="3.35" height="4.66" class="up-body"/>
<line x1="1025.89" y1="947.05" x2="1025.89" y2="955.99" class="down-wick"/>
<rect x="1024.22" y="947.09" width="3.35" height="8.11" class="down-body"/>
<line x1="1031.05" y1="947.40" x2="1031.05" y2="956.68" class="up-wick"/>
<rect x="1029.37" y="948.39" width="3.35" height="6.65" class="up-body"/>
<line x1="1036.20" y1="946.63" x2="1036.20" y2="952.93" class="up-wick"/>
<rect x="1034.52" y="948.07" width="3.35" height="1.00" class="up-body"/>
<line x1="1041.35" y1="947.48" x2="1041.35" y2="953.35" class="down-wick"/>
<rect x="1039.68" y="948.07" width="3.35" height="2.48" class="down-body"/>
<line x1="1046.51" y1="948.14" x2="1046.51" y2="954.51" class="down-wick"/>
<rect x="1044.83" y="950.60" width="3.35" height="3.90" class="down-body"/>
<line x1="1051.66" y1="949.63" x2="1051.66" y2="961.63" class="down-wick"/>
<rect x="1049.98" y="954.56" width="3.35" height="6.75" class="down-body"/>
<line x1="1056.81" y1="954.92" x2="1056.81" y2="961.57" class="up-wick"/>
<rect x="1055.14" y="955.18" width="3.35" height="6.00" class="up-body"/>
<line x1="1061.96" y1="951.31" x2="1061.96" y2="955.88" class="up-wick"/>
<rect x="1060.29" y="951.59" width="3.35" height="3.73" class="up-body"/>
<line x1="1067.12" y1="943.79" x2="1067.12" y2="954.98" class="up-wick"/>
<rect x="1065.44" y="944.04" width="3.35" height="7.54" class="up-body"/>
<line x1="1072.27" y1="938.66" x2="1072.27" y2="944.11" class="up-wick"/>
<rect x="1070.60" y="943.60" width="3.35" height="1.00" class="up-body"/>
<line x1="1077.42" y1="940.51" x2="1077.42" y2="946.25" class="up-wick"/>
<rect x="1075.75" y="941.93" width="3.35" height="1.70" class="up-body"/>
<line x1="70" y1="878.12" x2="1080" y2="878.12" class="sweep-line"/>
<text x="1076" y="874.12" text-anchor="end" class="level-label">sweep 4850.41</text>
<line x1="70" y1="868.90" x2="1080" y2="868.90" class="entry-line"/>
<text x="1076" y="864.90" text-anchor="end" class="level-label">entry level 4867.12</text>
<text x="70" y="1056" class="axis-label">2026-02-02 01:00:00+00:00 to 2026-02-02 04:15:00+00:00</text>
<text x="1080" y="1056" text-anchor="end" class="axis-label">4560.53 - 4908.65</text>
</svg>