<svg xmlns="http://www.w3.org/2000/svg" width="1120" height="1054" viewBox="0 0 1120 1054">
<style>
text{font-family:Arial,Helvetica,sans-serif}.title{font-size:21px;font-weight:700;fill:#1f2937}.subtitle{font-size:12px;fill:#4b5563}.panel-title{font-size:15px;font-weight:700;fill:#111827}.muted{font-size:13px;fill:#6b7280}.plot-bg{fill:#f8fafc;stroke:#cbd5e1;stroke-width:1}.up-body{fill:#15803d;stroke:#14532d;stroke-width:.8}.down-body{fill:#b91c1c;stroke:#7f1d1d;stroke-width:.8}.up-wick{stroke:#14532d;stroke-width:1}.down-wick{stroke:#7f1d1d;stroke-width:1}.sweep-line{stroke:#7c3aed;stroke-width:1.6;stroke-dasharray:6 4}.number-line{stroke:#0f766e;stroke-width:1.4;stroke-dasharray:3 4}.entry-line{stroke:#2563eb;stroke-width:1.4}.sl-line{stroke:#dc2626;stroke-width:1.4}.tp-line{stroke:#16a34a;stroke-width:1.4}.level-label,.axis-label{font-size:11px;fill:#374151}
</style>
<text x="28" y="28" class="title">Adelin v2 visual review sample sample_004</text>
<text x="28" y="48" class="subtitle">Candidate windows are for visual labeling only and are not trade signals.</text>
<text x="560" y="48" class="subtitle" text-anchor="middle">NUMBER_THEORY_LEVEL_NEAR | LARGE_UPPER_WICK_REVERSAL_VISUAL_CANDIDATE | ROUND_LEVEL_ENTRY_METADATA_AVAILABLE</text>
<text x="70" y="82" class="panel-title">H1 liquidity context</text>
<rect x="70" y="96" width="1010" height="192" class="plot-bg"/>
<line x1="80.98" y1="109.24" x2="80.98" y2="121.36" class="down-wick"/>
<rect x="76.98" y="114.47" width="8.00" height="5.90" class="down-body"/>
<line x1="102.93" y1="116.34" x2="102.93" y2="128.14" class="down-wick"/>
<rect x="98.93" y="120.37" width="8.00" height="5.72" class="down-body"/>
<line x1="124.89" y1="120.06" x2="124.89" y2="133.59" class="up-wick"/>
<rect x="120.89" y="121.10" width="8.00" height="4.99" class="up-body"/>
<line x1="146.85" y1="121.10" x2="146.85" y2="145.72" class="down-wick"/>
<rect x="142.85" y="121.10" width="8.00" height="12.58" class="down-body"/>
<line x1="168.80" y1="130.69" x2="168.80" y2="168.29" class="down-wick"/>
<rect x="164.80" y="133.68" width="8.00" height="20.47" class="down-body"/>
<line x1="190.76" y1="132.68" x2="190.76" y2="156.63" class="up-wick"/>
<rect x="186.76" y="133.22" width="8.00" height="20.94" class="up-body"/>
<line x1="212.72" y1="128.37" x2="212.72" y2="139.08" class="up-wick"/>
<rect x="208.72" y="130.04" width="8.00" height="3.18" class="up-body"/>
<line x1="234.67" y1="128.11" x2="234.67" y2="145.91" class="down-wick"/>
<rect x="230.67" y="130.05" width="8.00" height="14.07" class="down-body"/>
<line x1="256.63" y1="137.15" x2="256.63" y2="158.35" class="down-wick"/>
<rect x="252.63" y="144.12" width="8.00" height="8.87" class="down-body"/>
<line x1="278.59" y1="134.45" x2="278.59" y2="153.94" class="up-wick"/>
<rect x="274.59" y="150.31" width="8.00" height="2.69" class="up-body"/>
<line x1="300.54" y1="142.29" x2="300.54" y2="160.67" class="up-wick"/>
<rect x="296.54" y="146.87" width="8.00" height="3.44" class="up-body"/>
<line x1="322.50" y1="146.65" x2="322.50" y2="168.20" class="down-wick"/>
<rect x="318.50" y="146.87" width="8.00" height="12.85" class="down-body"/>
<line x1="344.46" y1="159.61" x2="344.46" y2="196.12" class="down-wick"/>
<rect x="340.46" y="159.79" width="8.00" height="26.64" class="down-body"/>
<line x1="366.41" y1="177.77" x2="366.41" y2="219.53" class="up-wick"/>
<rect x="362.41" y="180.51" width="8.00" height="5.92" class="up-body"/>
<line x1="388.37" y1="167.12" x2="388.37" y2="187.97" class="up-wick"/>
<rect x="384.37" y="170.10" width="8.00" height="10.41" class="up-body"/>
<line x1="410.33" y1="170.04" x2="410.33" y2="194.47" class="down-wick"/>
<rect x="406.33" y="170.10" width="8.00" height="16.79" class="down-body"/>
<line x1="432.28" y1="177.30" x2="432.28" y2="190.08" class="up-wick"/>
<rect x="428.28" y="177.66" width="8.00" height="9.23" class="up-body"/>
<line x1="454.24" y1="183.06" x2="454.24" y2="216.25" class="down-wick"/>
<rect x="450.24" y="201.47" width="8.00" height="6.32" class="down-body"/>
<line x1="476.20" y1="179.60" x2="476.20" y2="208.07" class="up-wick"/>
<rect x="472.20" y="202.82" width="8.00" height="4.90" class="up-body"/>
<line x1="498.15" y1="199.30" x2="498.15" y2="238.79" class="down-wick"/>
<rect x="494.15" y="202.82" width="8.00" height="5.88" class="down-body"/>
<line x1="520.11" y1="201.62" x2="520.11" y2="216.30" class="down-wick"/>
<rect x="516.11" y="208.71" width="8.00" height="5.12" class="down-body"/>
<line x1="542.07" y1="210.23" x2="542.07" y2="229.64" class="down-wick"/>
<rect x="538.07" y="213.85" width="8.00" height="12.65" class="down-body"/>
<line x1="564.02" y1="213.36" x2="564.02" y2="234.98" class="up-wick"/>
<rect x="560.02" y="220.03" width="8.00" height="6.47" class="up-body"/>
<line x1="585.98" y1="216.77" x2="585.98" y2="255.80" class="down-wick"/>
<rect x="581.98" y="220.03" width="8.00" height="25.66" class="down-body"/>
<line x1="607.93" y1="240.90" x2="607.93" y2="274.76" class="down-wick"/>
<rect x="603.93" y="245.68" width="8.00" height="8.81" class="down-body"/>
<line x1="629.89" y1="231.97" x2="629.89" y2="258.21" class="up-wick"/>
<rect x="625.89" y="238.28" width="8.00" height="16.22" class="up-body"/>
<line x1="651.85" y1="225.66" x2="651.85" y2="243.23" class="up-wick"/>
<rect x="647.85" y="227.68" width="8.00" height="10.59" class="up-body"/>
<line x1="673.80" y1="209.78" x2="673.80" y2="235.05" class="up-wick"/>
<rect x="669.80" y="212.15" width="8.00" height="15.53" class="up-body"/>
<line x1="695.76" y1="209.29" x2="695.76" y2="224.40" class="down-wick"/>
<rect x="691.76" y="212.15" width="8.00" height="2.73" class="down-body"/>
<line x1="717.72" y1="200.36" x2="717.72" y2="215.29" class="up-wick"/>
<rect x="713.72" y="203.03" width="8.00" height="11.85" class="up-body"/>
<line x1="739.67" y1="193.80" x2="739.67" y2="207.51" class="up-wick"/>
<rect x="735.67" y="197.41" width="8.00" height="5.62" class="up-body"/>
<line x1="761.63" y1="195.57" x2="761.63" y2="222.04" class="down-wick"/>
<rect x="757.63" y="197.41" width="8.00" height="17.39" class="down-body"/>
<line x1="783.59" y1="197.43" x2="783.59" y2="219.94" class="up-wick"/>
<rect x="779.59" y="212.21" width="8.00" height="2.59" class="up-body"/>
<line x1="805.54" y1="207.04" x2="805.54" y2="232.39" class="down-wick"/>
<rect x="801.54" y="212.21" width="8.00" height="19.56" class="down-body"/>
<line x1="827.50" y1="214.32" x2="827.50" y2="236.49" class="up-wick"/>
<rect x="823.50" y="222.73" width="8.00" height="9.03" class="up-body"/>
<line x1="849.46" y1="213.23" x2="849.46" y2="224.57" class="up-wick"/>
<rect x="845.46" y="221.15" width="8.00" height="1.59" class="up-body"/>
<line x1="871.41" y1="221.10" x2="871.41" y2="232.12" class="down-wick"/>
<rect x="867.41" y="221.15" width="8.00" height="3.19" class="down-body"/>
<line x1="893.37" y1="213.48" x2="893.37" y2="229.55" class="up-wick"/>
<rect x="889.37" y="218.87" width="8.00" height="5.47" class="up-body"/>
<line x1="915.33" y1="215.90" x2="915.33" y2="226.33" class="down-wick"/>
<rect x="911.33" y="218.85" width="8.00" height="6.51" class="down-body"/>
<line x1="937.28" y1="218.54" x2="937.28" y2="227.09" class="up-wick"/>
<rect x="933.28" y="224.18" width="8.00" height="1.17" class="up-body"/>
<line x1="959.24" y1="201.14" x2="959.24" y2="224.18" class="up-wick"/>
<rect x="955.24" y="201.38" width="8.00" height="22.80" class="up-body"/>
<line x1="981.20" y1="190.29" x2="981.20" y2="202.96" class="up-wick"/>
<rect x="977.20" y="200.17" width="8.00" height="1.21" class="up-body"/>
<line x1="1003.15" y1="185.13" x2="1003.15" y2="202.89" class="up-wick"/>
<rect x="999.15" y="188.07" width="8.00" height="12.10" class="up-body"/>
<line x1="1025.11" y1="188.02" x2="1025.11" y2="207.04" class="down-wick"/>
<rect x="1021.11" y="188.07" width="8.00" height="11.51" class="down-body"/>
<line x1="1047.07" y1="193.66" x2="1047.07" y2="205.76" class="up-wick"/>
<rect x="1043.07" y="194.47" width="8.00" height="5.11" class="up-body"/>
<line x1="1069.02" y1="191.30" x2="1069.02" y2="196.13" class="down-wick"/>
<rect x="1065.02" y="194.49" width="8.00" height="1.00" class="down-body"/>
<line x1="70" y1="219.96" x2="1080" y2="219.96" class="number-line"/>
<text x="1076" y="215.96" text-anchor="end" class="level-label">round 4680.00</text>
<line x1="70" y1="219.96" x2="1080" y2="219.96" class="entry-line"/>
<text x="1076" y="215.96" text-anchor="end" class="level-label">entry level 4680.00</text>
<text x="70" y="306" class="axis-label">2026-01-30 07:00:00+00:00 to 2026-02-03 06:00:00+00:00</text>
<text x="1080" y="306" text-anchor="end" class="axis-label">4335.00 - 5308.53</text>
<text x="70" y="332" class="panel-title">M15 liquidity / reaction context</text>
<rect x="70" y="346" width="1010" height="192" class="plot-bg"/>
<line x1="80.52" y1="365.25" x2="80.52" y2="418.64" class="down-wick"/>
<rect x="76.52" y="397.28" width="8.00" height="11.21" class="down-body"/>
<line x1="101.56" y1="402.33" x2="101.56" y2="422.99" class="down-wick"/>
<rect x="97.56" y="408.47" width="8.00" height="4.76" class="down-body"/>
<line x1="122.60" y1="391.95" x2="122.60" y2="417.30" class="up-wick"/>
<rect x="118.60" y="397.04" width="8.00" height="16.20" class="up-body"/>
<line x1="143.65" y1="395.79" x2="143.65" y2="414.92" class="down-wick"/>
<rect x="139.65" y="397.03" width="8.00" height="11.24" class="down-body"/>
<line x1="164.69" y1="372.52" x2="164.69" y2="408.77" class="up-wick"/>
<rect x="160.69" y="372.72" width="8.00" height="35.44" class="up-body"/>
<line x1="185.73" y1="359.24" x2="185.73" y2="378.87" class="up-wick"/>
<rect x="181.73" y="372.32" width="8.00" height="1.00" class="up-body"/>
<line x1="206.77" y1="372.01" x2="206.77" y2="389.90" class="down-wick"/>
<rect x="202.77" y="372.26" width="8.00" height="14.62" class="down-body"/>
<line x1="227.81" y1="385.64" x2="227.81" y2="402.08" class="down-wick"/>
<rect x="223.81" y="386.83" width="8.00" height="12.81" class="down-body"/>
<line x1="248.85" y1="393.50" x2="248.85" y2="462.19" class="down-wick"/>
<rect x="244.85" y="399.64" width="8.00" height="42.43" class="down-body"/>
<line x1="269.90" y1="419.31" x2="269.90" y2="442.34" class="up-wick"/>
<rect x="265.90" y="423.53" width="8.00" height="18.31" class="up-body"/>
<line x1="290.94" y1="408.73" x2="290.94" y2="433.66" class="up-wick"/>
<rect x="286.94" y="417.39" width="8.00" height="6.13" class="up-body"/>
<line x1="311.98" y1="405.46" x2="311.98" y2="420.80" class="up-wick"/>
<rect x="307.98" y="409.86" width="8.00" height="7.57" class="up-body"/>
<line x1="333.02" y1="405.70" x2="333.02" y2="422.93" class="down-wick"/>
<rect x="329.02" y="409.87" width="8.00" height="1.84" class="down-body"/>
<line x1="354.06" y1="406.82" x2="354.06" y2="417.31" class="up-wick"/>
<rect x="350.06" y="409.47" width="8.00" height="2.26" class="up-body"/>
<line x1="375.10" y1="397.54" x2="375.10" y2="410.33" class="up-wick"/>
<rect x="371.10" y="400.43" width="8.00" height="8.82" class="up-body"/>
<line x1="396.15" y1="400.42" x2="396.15" y2="423.08" class="down-wick"/>
<rect x="392.15" y="400.43" width="8.00" height="18.35" class="down-body"/>
<line x1="417.19" y1="412.84" x2="417.19" y2="425.72" class="down-wick"/>
<rect x="413.19" y="418.82" width="8.00" height="6.33" class="down-body"/>
<line x1="438.23" y1="412.51" x2="438.23" y2="435.72" class="up-wick"/>
<rect x="434.23" y="423.86" width="8.00" height="1.29" class="up-body"/>
<line x1="459.27" y1="422.42" x2="459.27" y2="446.29" class="down-wick"/>
<rect x="455.27" y="423.86" width="8.00" height="10.32" class="down-body"/>
<line x1="480.31" y1="424.47" x2="480.31" y2="443.29" class="down-wick"/>
<rect x="476.31" y="434.13" width="8.00" height="6.70" class="down-body"/>
<line x1="501.35" y1="434.99" x2="501.35" y2="455.57" class="up-wick"/>
<rect x="497.35" y="435.64" width="8.00" height="5.20" class="up-body"/>
<line x1="522.40" y1="420.82" x2="522.40" y2="436.13" class="up-wick"/>
<rect x="518.40" y="432.47" width="8.00" height="3.11" class="up-body"/>
<line x1="543.44" y1="422.60" x2="543.44" y2="436.82" class="up-wick"/>
<rect x="539.44" y="426.48" width="8.00" height="5.99" class="up-body"/>
<line x1="564.48" y1="417.96" x2="564.48" y2="432.12" class="down-wick"/>
<rect x="560.48" y="426.47" width="8.00" height="3.10" class="down-body"/>
<line x1="585.52" y1="423.90" x2="585.52" y2="439.87" class="down-wick"/>
<rect x="581.52" y="429.56" width="8.00" height="6.03" class="down-body"/>
<line x1="606.56" y1="431.36" x2="606.56" y2="439.92" class="down-wick"/>
<rect x="602.56" y="435.54" width="8.00" height="1.29" class="down-body"/>
<line x1="627.60" y1="436.81" x2="627.60" y2="466.10" class="down-wick"/>
<rect x="623.60" y="436.83" width="8.00" height="28.30" class="down-body"/>
<line x1="648.65" y1="463.94" x2="648.65" y2="491.79" class="down-wick"/>
<rect x="644.65" y="465.15" width="8.00" height="9.04" class="down-body"/>
<line x1="669.69" y1="465.87" x2="669.69" y2="484.04" class="down-wick"/>
<rect x="665.69" y="474.18" width="8.00" height="4.82" class="down-body"/>
<line x1="690.73" y1="474.11" x2="690.73" y2="514.05" class="down-wick"/>
<rect x="686.73" y="479.00" width="8.00" height="16.82" class="down-body"/>
<line x1="711.77" y1="490.91" x2="711.77" y2="524.76" class="down-wick"/>
<rect x="707.77" y="495.84" width="8.00" height="11.42" class="down-body"/>
<line x1="732.81" y1="483.16" x2="732.81" y2="515.08" class="up-wick"/>
<rect x="728.81" y="489.51" width="8.00" height="17.75" class="up-body"/>
<line x1="753.85" y1="472.48" x2="753.85" y2="495.98" class="up-wick"/>
<rect x="749.85" y="478.37" width="8.00" height="11.14" class="up-body"/>
<line x1="774.90" y1="465.52" x2="774.90" y2="483.03" class="up-wick"/>
<rect x="770.90" y="470.50" width="8.00" height="7.95" class="up-body"/>
<line x1="795.94" y1="459.41" x2="795.94" y2="482.67" class="up-wick"/>
<rect x="791.94" y="462.70" width="8.00" height="7.80" class="up-body"/>
<line x1="816.98" y1="450.33" x2="816.98" y2="463.06" class="up-wick"/>
<rect x="812.98" y="461.31" width="8.00" height="1.40" class="up-body"/>
<line x1="838.02" y1="447.16" x2="838.02" y2="469.91" class="up-wick"/>
<rect x="834.02" y="453.22" width="8.00" height="8.08" class="up-body"/>
<line x1="859.06" y1="439.76" x2="859.06" y2="456.56" class="up-wick"/>
<rect x="855.06" y="440.95" width="8.00" height="12.27" class="up-body"/>
<line x1="880.10" y1="439.73" x2="880.10" y2="454.30" class="down-wick"/>
<rect x="876.10" y="440.95" width="8.00" height="1.71" class="down-body"/>
<line x1="901.15" y1="439.36" x2="901.15" y2="447.64" class="down-wick"/>
<rect x="897.15" y="442.66" width="8.00" height="1.00" class="down-body"/>
<line x1="922.19" y1="436.91" x2="922.19" y2="455.69" class="up-wick"/>
<rect x="918.19" y="440.88" width="8.00" height="1.99" class="up-body"/>
<line x1="943.23" y1="422.55" x2="943.23" y2="447.89" class="up-wick"/>
<rect x="939.23" y="425.87" width="8.00" height="15.01" class="up-body"/>
<line x1="964.27" y1="417.94" x2="964.27" y2="429.64" class="down-wick"/>
<rect x="960.27" y="425.82" width="8.00" height="1.00" class="down-body"/>
<line x1="985.31" y1="411.74" x2="985.31" y2="427.85" class="up-wick"/>
<rect x="981.31" y="415.86" width="8.00" height="10.82" class="up-body"/>
<line x1="1006.35" y1="410.89" x2="1006.35" y2="421.33" class="up-wick"/>
<rect x="1002.35" y="412.16" width="8.00" height="3.70" class="up-body"/>
<line x1="1027.40" y1="412.00" x2="1027.40" y2="432.66" class="down-wick"/>
<rect x="1023.40" y="412.16" width="8.00" height="16.31" class="down-body"/>
<line x1="1048.44" y1="423.07" x2="1048.44" y2="435.76" class="down-wick"/>
<rect x="1044.44" y="428.47" width="8.00" height="3.06" class="down-body"/>
<line x1="1069.48" y1="418.28" x2="1069.48" y2="437.17" class="up-wick"/>
<rect x="1065.48" y="420.60" width="8.00" height="10.93" class="up-body"/>
<line x1="70" y1="429.44" x2="1080" y2="429.44" class="number-line"/>
<text x="1076" y="425.44" text-anchor="end" class="level-label">round 4680.00</text>
<line x1="70" y1="429.44" x2="1080" y2="429.44" class="entry-line"/>
<text x="1076" y="425.44" text-anchor="end" class="level-label">entry level 4680.00</text>
<text x="70" y="556" class="axis-label">2026-02-02 01:00:00+00:00 to 2026-02-02 12:45:00+00:00</text>
<text x="1080" y="556" text-anchor="end" class="axis-label">4363.54 - 4923.24</text>
<text x="70" y="582" class="panel-title">M5 reaction / execution context</text>
<rect x="70" y="596" width="1010" height="192" class="plot-bg"/>
<line x1="79.18" y1="614.35" x2="79.18" y2="643.47" class="up-wick"/>
<rect x="75.18" y="615.44" width="8.00" height="12.44" class="up-body"/>
<line x1="97.55" y1="609.24" x2="97.55" y2="617.23" class="down-wick"/>
<rect x="93.55" y="615.46" width="8.00" height="1.00" class="down-body"/>
<line x1="115.91" y1="614.85" x2="115.91" y2="627.13" class="down-wick"/>
<rect x="111.91" y="616.12" width="8.00" height="9.86" class="down-body"/>
<line x1="134.27" y1="623.85" x2="134.27" y2="638.27" class="down-wick"/>
<rect x="130.27" y="625.98" width="8.00" height="11.75" class="down-body"/>
<line x1="152.64" y1="634.22" x2="152.64" y2="651.37" class="down-wick"/>
<rect x="148.64" y="637.73" width="8.00" height="9.40" class="down-body"/>
<line x1="171.00" y1="637.80" x2="171.00" y2="659.05" class="up-wick"/>
<rect x="167.00" y="641.19" width="8.00" height="5.93" class="up-body"/>
<line x1="189.36" y1="626.88" x2="189.36" y2="642.25" class="up-wick"/>
<rect x="185.36" y="631.00" width="8.00" height="10.12" class="up-body"/>
<line x1="207.73" y1="630.95" x2="207.73" y2="645.10" class="down-wick"/>
<rect x="203.73" y="631.00" width="8.00" height="14.06" class="down-body"/>
<line x1="226.09" y1="641.87" x2="226.09" y2="654.63" class="down-wick"/>
<rect x="222.09" y="645.00" width="8.00" height="6.00" class="down-body"/>
<line x1="244.45" y1="644.73" x2="244.45" y2="670.64" class="down-wick"/>
<rect x="240.45" y="651.00" width="8.00" height="18.47" class="down-body"/>
<line x1="262.82" y1="644.40" x2="262.82" y2="672.73" class="up-wick"/>
<rect x="258.82" y="646.68" width="8.00" height="23.02" class="up-body"/>
<line x1="281.18" y1="642.39" x2="281.18" y2="657.96" class="up-wick"/>
<rect x="277.18" y="643.34" width="8.00" height="3.36" class="up-body"/>
<line x1="299.55" y1="625.17" x2="299.55" y2="644.07" class="up-wick"/>
<rect x="295.55" y="625.20" width="8.00" height="18.06" class="up-body"/>
<line x1="317.91" y1="621.50" x2="317.91" y2="636.54" class="down-wick"/>
<rect x="313.91" y="625.20" width="8.00" height="8.48" class="down-body"/>
<line x1="336.27" y1="629.46" x2="336.27" y2="639.81" class="down-wick"/>
<rect x="332.27" y="633.68" width="8.00" height="4.99" class="down-body"/>
<line x1="354.64" y1="624.11" x2="354.64" y2="639.31" class="up-wick"/>
<rect x="350.64" y="630.80" width="8.00" height="7.88" class="up-body"/>
<line x1="373.00" y1="627.25" x2="373.00" y2="641.50" class="down-wick"/>
<rect x="369.00" y="630.81" width="8.00" height="9.80" class="down-body"/>
<line x1="391.36" y1="628.48" x2="391.36" y2="645.08" class="up-wick"/>
<rect x="387.36" y="629.83" width="8.00" height="10.75" class="up-body"/>
<line x1="409.73" y1="617.28" x2="409.73" y2="631.54" class="down-wick"/>
<rect x="405.73" y="629.83" width="8.00" height="1.00" class="down-body"/>
<line x1="428.09" y1="628.02" x2="428.09" y2="636.68" class="down-wick"/>
<rect x="424.09" y="630.71" width="8.00" height="1.00" class="down-body"/>
<line x1="446.45" y1="629.67" x2="446.45" y2="638.16" class="down-wick"/>
<rect x="442.45" y="631.12" width="8.00" height="3.27" class="down-body"/>
<line x1="464.82" y1="627.29" x2="464.82" y2="638.88" class="up-wick"/>
<rect x="460.82" y="628.76" width="8.00" height="5.62" class="up-body"/>
<line x1="483.18" y1="626.03" x2="483.18" y2="643.50" class="down-wick"/>
<rect x="479.18" y="628.75" width="8.00" height="8.83" class="down-body"/>
<line x1="501.55" y1="635.45" x2="501.55" y2="649.59" class="down-wick"/>
<rect x="497.55" y="637.58" width="8.00" height="5.70" class="down-body"/>
<line x1="519.91" y1="637.03" x2="519.91" y2="645.50" class="down-wick"/>
<rect x="515.91" y="643.20" width="8.00" height="1.00" class="down-body"/>
<line x1="538.27" y1="639.53" x2="538.27" y2="649.66" class="up-wick"/>
<rect x="534.27" y="640.77" width="8.00" height="2.94" class="up-body"/>
<line x1="556.64" y1="638.96" x2="556.64" y2="647.04" class="down-wick"/>
<rect x="552.64" y="640.77" width="8.00" height="4.34" class="down-body"/>
<line x1="575.00" y1="645.07" x2="575.00" y2="664.88" class="down-wick"/>
<rect x="571.00" y="645.11" width="8.00" height="13.54" class="down-body"/>
<line x1="593.36" y1="652.79" x2="593.36" y2="672.74" class="down-wick"/>
<rect x="589.36" y="658.40" width="8.00" height="4.44" class="down-body"/>
<line x1="611.73" y1="661.97" x2="611.73" y2="688.25" class="down-wick"/>
<rect x="607.73" y="662.84" width="8.00" height="24.00" class="down-body"/>
<line x1="630.09" y1="685.08" x2="630.09" y2="712.40" class="down-wick"/>
<rect x="626.09" y="686.86" width="8.00" height="11.48" class="down-body"/>
<line x1="648.45" y1="689.62" x2="648.45" y2="726.14" class="down-wick"/>
<rect x="644.45" y="698.38" width="8.00" height="7.45" class="down-body"/>
<line x1="666.82" y1="691.66" x2="666.82" y2="714.57" class="up-wick"/>
<rect x="662.82" y="700.18" width="8.00" height="5.60" class="up-body"/>
<line x1="685.18" y1="687.92" x2="685.18" y2="702.77" class="up-wick"/>
<rect x="681.18" y="695.74" width="8.00" height="4.44" class="up-body"/>
<line x1="703.55" y1="692.73" x2="703.55" y2="714.71" class="down-wick"/>
<rect x="699.55" y="695.74" width="8.00" height="3.43" class="down-body"/>
<line x1="721.91" y1="693.20" x2="721.91" y2="708.85" class="down-wick"/>
<rect x="717.91" y="699.17" width="8.00" height="8.11" class="down-body"/>
<line x1="740.27" y1="700.07" x2="740.27" y2="717.73" class="down-wick"/>
<rect x="736.27" y="707.28" width="8.00" height="2.85" class="down-body"/>
<line x1="758.64" y1="709.38" x2="758.64" y2="754.83" class="down-wick"/>
<rect x="754.64" y="710.13" width="8.00" height="40.45" class="down-body"/>
<line x1="777.00" y1="727.75" x2="777.00" y2="758.97" class="up-wick"/>
<rect x="773.00" y="732.09" width="8.00" height="18.46" class="up-body"/>
<line x1="795.36" y1="724.85" x2="795.36" y2="743.31" class="down-wick"/>
<rect x="791.36" y="732.12" width="8.00" height="8.95" class="down-body"/>
<line x1="813.73" y1="738.26" x2="813.73" y2="774.76" class="down-wick"/>
<rect x="809.73" y="741.07" width="8.00" height="31.68" class="down-body"/>
<line x1="832.09" y1="747.37" x2="832.09" y2="773.68" class="up-wick"/>
<rect x="828.09" y="748.96" width="8.00" height="23.79" class="up-body"/>
<line x1="850.45" y1="744.12" x2="850.45" y2="760.49" class="down-wick"/>
<rect x="846.45" y="748.96" width="8.00" height="6.99" class="down-body"/>
<line x1="868.82" y1="732.40" x2="868.82" y2="756.64" class="up-wick"/>
<rect x="864.82" y="732.96" width="8.00" height="22.99" class="up-body"/>
<line x1="887.18" y1="713.41" x2="887.18" y2="734.47" class="up-wick"/>
<rect x="883.18" y="722.78" width="8.00" height="10.15" class="up-body"/>
<line x1="905.55" y1="706.42" x2="905.55" y2="732.32" class="up-wick"/>
<rect x="901.55" y="707.77" width="8.00" height="15.01" class="up-body"/>
<line x1="923.91" y1="698.13" x2="923.91" y2="715.14" class="up-wick"/>
<rect x="919.91" y="698.13" width="8.00" height="9.64" class="up-body"/>
<line x1="942.27" y1="697.67" x2="942.27" y2="711.80" class="down-wick"/>
<rect x="938.27" y="698.02" width="8.00" height="8.34" class="down-body"/>
<line x1="960.64" y1="694.29" x2="960.64" y2="713.23" class="down-wick"/>
<rect x="956.64" y="706.48" width="8.00" height="3.96" class="down-body"/>
<line x1="979.00" y1="695.99" x2="979.00" y2="711.91" class="up-wick"/>
<rect x="975.00" y="700.76" width="8.00" height="9.76" class="up-body"/>
<line x1="997.36" y1="687.40" x2="997.36" y2="700.83" class="up-wick"/>
<rect x="993.36" y="694.75" width="8.00" height="6.02" class="up-body"/>
<line x1="1015.73" y1="691.62" x2="1015.73" y2="712.69" class="down-wick"/>
<rect x="1011.73" y="694.75" width="8.00" height="12.59" class="down-body"/>
<line x1="1034.09" y1="688.64" x2="1034.09" y2="710.62" class="up-wick"/>
<rect x="1030.09" y="690.60" width="8.00" height="16.74" class="up-body"/>
<line x1="1052.45" y1="678.40" x2="1052.45" y2="691.09" class="up-wick"/>
<rect x="1048.45" y="683.25" width="8.00" height="7.34" class="up-body"/>
<line x1="1070.82" y1="665.01" x2="1070.82" y2="683.28" class="up-wick"/>
<rect x="1066.82" y="666.95" width="8.00" height="16.30" class="up-body"/>
<line x1="70" y1="634.20" x2="1080" y2="634.20" class="number-line"/>
<text x="1076" y="630.20" text-anchor="end" class="level-label">round 4680.00</text>
<line x1="70" y1="634.20" x2="1080" y2="634.20" class="entry-line"/>
<text x="1076" y="630.20" text-anchor="end" class="level-label">entry level 4680.00</text>
<text x="70" y="806" class="axis-label">2026-02-02 05:15:00+00:00 to 2026-02-02 09:45:00+00:00</text>
<text x="1080" y="806" text-anchor="end" class="axis-label">4375.96 - 4755.53</text>
<text x="70" y="832" class="panel-title">M1 execution window</text>
<rect x="70" y="846" width="1010" height="192" class="plot-bg"/>
<line x1="73.71" y1="874.34" x2="73.71" y2="892.02" class="down-wick"/>
<rect x="71.30" y="876.10" width="4.83" height="9.84" class="down-body"/>
<line x1="81.14" y1="872.13" x2="81.14" y2="884.27" class="up-wick"/>
<rect x="78.73" y="872.97" width="4.83" height="9.10" class="up-body"/>
<line x1="88.57" y1="862.26" x2="88.57" y2="870.62" class="up-wick"/>
<rect x="86.15" y="863.38" width="4.83" height="6.57" class="up-body"/>
<line x1="95.99" y1="859.24" x2="95.99" y2="864.80" class="up-wick"/>
<rect x="93.58" y="859.45" width="4.83" height="4.70" class="up-body"/>
<line x1="103.42" y1="861.02" x2="103.42" y2="864.33" class="down-wick"/>
<rect x="101.01" y="861.88" width="4.83" height="1.00" class="down-body"/>
<line x1="110.85" y1="862.84" x2="110.85" y2="864.60" class="down-wick"/>
<rect x="108.43" y="864.07" width="4.83" height="1.00" class="down-body"/>
<line x1="118.27" y1="864.59" x2="118.27" y2="870.21" class="down-wick"/>
<rect x="115.86" y="864.59" width="4.83" height="4.32" class="down-body"/>
<line x1="125.70" y1="871.13" x2="125.70" y2="874.92" class="down-wick"/>
<rect x="123.28" y="872.74" width="4.83" height="1.41" class="down-body"/>
<line x1="133.12" y1="873.97" x2="133.12" y2="880.25" class="down-wick"/>
<rect x="130.71" y="874.10" width="4.83" height="5.01" class="down-body"/>
<line x1="140.55" y1="880.77" x2="140.55" y2="886.71" class="down-wick"/>
<rect x="138.14" y="882.82" width="4.83" height="1.39" class="down-body"/>
<line x1="147.98" y1="882.57" x2="147.98" y2="893.63" class="down-wick"/>
<rect x="145.56" y="886.15" width="4.83" height="7.13" class="down-body"/>
<line x1="155.40" y1="886.28" x2="155.40" y2="892.93" class="up-wick"/>
<rect x="152.99" y="888.71" width="4.83" height="2.96" class="up-body"/>
<line x1="162.83" y1="894.31" x2="162.83" y2="900.09" class="up-wick"/>
<rect x="160.42" y="895.76" width="4.83" height="2.65" class="up-body"/>
<line x1="170.26" y1="896.80" x2="170.26" y2="907.94" class="up-wick"/>
<rect x="167.84" y="897.70" width="4.83" height="5.99" class="up-body"/>
<line x1="177.68" y1="890.42" x2="177.68" y2="898.97" class="up-wick"/>
<rect x="175.27" y="891.02" width="4.83" height="7.56" class="up-body"/>
<line x1="185.11" y1="887.10" x2="185.11" y2="890.78" class="down-wick"/>
<rect x="182.70" y="889.62" width="4.83" height="1.00" class="down-body"/>
<line x1="192.54" y1="883.68" x2="192.54" y2="888.91" class="up-wick"/>
<rect x="190.12" y="883.89" width="4.83" height="4.91" class="up-body"/>
<line x1="199.96" y1="875.07" x2="199.96" y2="880.87" class="up-wick"/>
<rect x="197.55" y="879.28" width="4.83" height="1.21" class="up-body"/>
<line x1="207.39" y1="882.32" x2="207.39" y2="887.37" class="down-wick"/>
<rect x="204.98" y="882.33" width="4.83" height="3.21" class="down-body"/>
<line x1="214.82" y1="885.48" x2="214.82" y2="890.01" class="down-wick"/>
<rect x="212.40" y="885.49" width="4.83" height="2.17" class="down-body"/>
<line x1="222.24" y1="890.58" x2="222.24" y2="896.63" class="up-wick"/>
<rect x="219.83" y="893.40" width="4.83" height="1.00" class="up-body"/>
<line x1="229.67" y1="892.10" x2="229.67" y2="899.45" class="down-wick"/>
<rect x="227.26" y="894.08" width="4.83" height="5.33" class="down-body"/>
<line x1="237.10" y1="897.43" x2="237.10" y2="901.92" class="up-wick"/>
<rect x="234.68" y="899.72" width="4.83" height="1.00" class="up-body"/>
<line x1="244.52" y1="893.31" x2="244.52" y2="913.90" class="down-wick"/>
<rect x="242.11" y="893.88" width="4.83" height="19.54" class="down-body"/>
<line x1="251.95" y1="914.71" x2="251.95" y2="919.79" class="up-wick"/>
<rect x="249.53" y="914.71" width="4.83" height="1.49" class="up-body"/>
<line x1="259.38" y1="910.32" x2="259.38" y2="921.93" class="up-wick"/>
<rect x="256.96" y="913.92" width="4.83" height="4.91" class="up-body"/>
<line x1="266.80" y1="904.32" x2="266.80" y2="908.95" class="down-wick"/>
<rect x="264.39" y="904.79" width="4.83" height="1.00" class="down-body"/>
<line x1="274.23" y1="892.97" x2="274.23" y2="898.44" class="up-wick"/>
<rect x="271.81" y="895.30" width="4.83" height="2.72" class="up-body"/>
<line x1="281.65" y1="894.78" x2="281.65" y2="899.85" class="down-wick"/>
<rect x="279.24" y="894.78" width="4.83" height="4.33" class="down-body"/>
<line x1="289.08" y1="897.14" x2="289.08" y2="904.20" class="up-wick"/>
<rect x="286.67" y="897.82" width="4.83" height="4.33" class="up-body"/>
<line x1="296.51" y1="885.67" x2="296.51" y2="892.63" class="up-wick"/>
<rect x="294.09" y="886.64" width="4.83" height="5.17" class="up-body"/>
<line x1="303.93" y1="884.53" x2="303.93" y2="890.70" class="down-wick"/>
<rect x="301.52" y="885.61" width="4.83" height="3.16" class="down-body"/>
<line x1="311.36" y1="873.32" x2="311.36" y2="884.08" class="up-wick"/>
<rect x="308.95" y="873.35" width="4.83" height="10.73" class="up-body"/>
<line x1="318.79" y1="875.83" x2="318.79" y2="881.39" class="down-wick"/>
<rect x="316.37" y="877.23" width="4.83" height="3.75" class="down-body"/>
<line x1="326.21" y1="880.12" x2="326.21" y2="884.94" class="down-wick"/>
<rect x="323.80" y="880.23" width="4.83" height="2.87" class="down-body"/>
<line x1="333.64" y1="877.70" x2="333.64" y2="882.97" class="up-wick"/>
<rect x="331.23" y="879.73" width="4.83" height="2.29" class="up-body"/>
<line x1="341.07" y1="878.62" x2="341.07" y2="884.50" class="up-wick"/>
<rect x="338.65" y="883.63" width="4.83" height="1.00" class="up-body"/>
<line x1="348.49" y1="882.97" x2="348.49" y2="888.28" class="down-wick"/>
<rect x="346.08" y="884.30" width="4.83" height="2.81" class="down-body"/>
<line x1="355.92" y1="873.02" x2="355.92" y2="884.28" class="up-wick"/>
<rect x="353.51" y="873.31" width="4.83" height="10.80" class="up-body"/>
<line x1="363.35" y1="874.40" x2="363.35" y2="879.23" class="up-wick"/>
<rect x="360.93" y="876.73" width="4.83" height="1.00" class="up-body"/>
<line x1="370.77" y1="878.96" x2="370.77" y2="884.04" class="down-wick"/>
<rect x="368.36" y="879.08" width="4.83" height="3.04" class="down-body"/>
<line x1="378.20" y1="876.38" x2="378.20" y2="880.55" class="down-wick"/>
<rect x="375.78" y="876.97" width="4.83" height="3.56" class="down-body"/>
<line x1="385.62" y1="886.71" x2="385.62" y2="890.01" class="down-wick"/>
<rect x="383.21" y="887.58" width="4.83" height="1.51" class="down-body"/>
<line x1="393.05" y1="883.68" x2="393.05" y2="889.68" class="up-wick"/>
<rect x="390.64" y="883.70" width="4.83" height="5.75" class="up-body"/>
<line x1="400.48" y1="879.57" x2="400.48" y2="888.68" class="up-wick"/>
<rect x="398.06" y="879.82" width="4.83" height="8.86" class="up-body"/>
<line x1="407.90" y1="872.49" x2="407.90" y2="879.83" class="up-wick"/>
<rect x="405.49" y="872.50" width="4.83" height="5.58" class="up-body"/>
<line x1="415.33" y1="865.25" x2="415.33" y2="871.88" class="down-wick"/>
<rect x="412.92" y="870.03" width="4.83" height="1.00" class="down-body"/>
<line x1="422.76" y1="875.41" x2="422.76" y2="879.17" class="down-wick"/>
<rect x="420.34" y="878.09" width="4.83" height="1.00" class="down-body"/>
<line x1="430.18" y1="876.23" x2="430.18" y2="880.38" class="down-wick"/>
<rect x="427.77" y="878.36" width="4.83" height="2.02" class="down-body"/>
<line x1="437.61" y1="878.35" x2="437.61" y2="884.35" class="up-wick"/>
<rect x="435.20" y="879.67" width="4.83" height="1.00" class="up-body"/>
<line x1="445.04" y1="877.92" x2="445.04" y2="883.91" class="down-wick"/>
<rect x="442.62" y="879.40" width="4.83" height="3.64" class="down-body"/>
<line x1="452.46" y1="880.50" x2="452.46" y2="885.74" class="up-wick"/>
<rect x="450.05" y="883.54" width="4.83" height="1.76" class="up-body"/>
<line x1="459.89" y1="880.56" x2="459.89" y2="883.84" class="up-wick"/>
<rect x="457.48" y="882.75" width="4.83" height="1.00" class="up-body"/>
<line x1="467.32" y1="877.15" x2="467.32" y2="883.16" class="up-wick"/>
<rect x="464.90" y="877.89" width="4.83" height="5.25" class="up-body"/>
<line x1="474.74" y1="878.58" x2="474.74" y2="882.96" class="up-wick"/>
<rect x="472.33" y="879.19" width="4.83" height="1.88" class="up-body"/>
<line x1="482.17" y1="874.20" x2="482.17" y2="878.34" class="down-wick"/>
<rect x="479.76" y="876.98" width="4.83" height="1.00" class="down-body"/>
<line x1="489.60" y1="884.61" x2="489.60" y2="892.05" class="down-wick"/>
<rect x="487.18" y="884.61" width="4.83" height="1.51" class="down-body"/>
<line x1="497.02" y1="884.55" x2="497.02" y2="888.94" class="down-wick"/>
<rect x="494.61" y="885.73" width="4.83" height="1.00" class="down-body"/>
<line x1="504.45" y1="884.45" x2="504.45" y2="890.37" class="down-wick"/>
<rect x="502.03" y="885.81" width="4.83" height="3.18" class="down-body"/>
<line x1="511.88" y1="891.40" x2="511.88" y2="898.27" class="down-wick"/>
<rect x="509.46" y="892.40" width="4.83" height="4.96" class="down-body"/>
<line x1="519.30" y1="887.67" x2="519.30" y2="893.74" class="down-wick"/>
<rect x="516.89" y="891.75" width="4.83" height="1.90" class="down-body"/>
<line x1="526.73" y1="885.44" x2="526.73" y2="888.28" class="down-wick"/>
<rect x="524.31" y="885.93" width="4.83" height="1.89" class="down-body"/>
<line x1="534.15" y1="889.40" x2="534.15" y2="894.09" class="down-wick"/>
<rect x="531.74" y="889.68" width="4.83" height="2.58" class="down-body"/>
<line x1="541.58" y1="887.99" x2="541.58" y2="896.46" class="down-wick"/>
<rect x="539.17" y="890.07" width="4.83" height="4.99" class="down-body"/>
<line x1="549.01" y1="890.22" x2="549.01" y2="896.31" class="up-wick"/>
<rect x="546.59" y="890.58" width="4.83" height="5.55" class="up-body"/>
<line x1="556.43" y1="888.64" x2="556.43" y2="891.88" class="up-wick"/>
<rect x="554.02" y="889.10" width="4.83" height="1.00" class="up-body"/>
<line x1="563.86" y1="888.21" x2="563.86" y2="891.91" class="down-wick"/>
<rect x="561.45" y="889.36" width="4.83" height="2.32" class="down-body"/>
<line x1="571.29" y1="889.95" x2="571.29" y2="895.37" class="down-wick"/>
<rect x="568.87" y="892.63" width="4.83" height="1.06" class="down-body"/>
<line x1="578.71" y1="902.20" x2="578.71" y2="913.90" class="down-wick"/>
<rect x="576.30" y="904.89" width="4.83" height="4.37" class="down-body"/>
<line x1="586.14" y1="901.89" x2="586.14" y2="910.60" class="up-wick"/>
<rect x="583.73" y="902.47" width="4.83" height="4.71" class="up-body"/>
<line x1="593.57" y1="901.55" x2="593.57" y2="907.50" class="up-wick"/>
<rect x="591.15" y="904.99" width="4.83" height="2.29" class="up-body"/>
<line x1="600.99" y1="915.65" x2="600.99" y2="920.95" class="down-wick"/>
<rect x="598.58" y="915.79" width="4.83" height="5.16" class="down-body"/>
<line x1="608.42" y1="911.03" x2="608.42" y2="915.11" class="up-wick"/>
<rect x="606.01" y="911.82" width="4.83" height="2.96" class="up-body"/>
<line x1="615.85" y1="916.04" x2="615.85" y2="921.76" class="down-wick"/>
<rect x="613.43" y="916.93" width="4.83" height="4.73" class="down-body"/>
<line x1="623.27" y1="916.37" x2="623.27" y2="924.81" class="up-wick"/>
<rect x="620.86" y="923.27" width="4.83" height="1.00" class="up-body"/>
<line x1="630.70" y1="934.55" x2="630.70" y2="943.56" class="down-wick"/>
<rect x="628.28" y="936.36" width="4.83" height="6.69" class="down-body"/>
<line x1="638.12" y1="934.88" x2="638.12" y2="946.62" class="down-wick"/>
<rect x="635.71" y="936.27" width="4.83" height="10.36" class="down-body"/>
<line x1="645.55" y1="946.15" x2="645.55" y2="962.47" class="up-wick"/>
<rect x="643.14" y="948.10" width="4.83" height="2.78" class="up-body"/>
<line x1="652.98" y1="942.53" x2="652.98" y2="961.16" class="down-wick"/>
<rect x="650.56" y="950.32" width="4.83" height="10.48" class="down-body"/>
<line x1="660.40" y1="961.84" x2="660.40" y2="976.51" class="up-wick"/>
<rect x="657.99" y="963.27" width="4.83" height="4.12" class="up-body"/>
<line x1="667.83" y1="953.69" x2="667.83" y2="962.44" class="up-wick"/>
<rect x="665.42" y="954.50" width="4.83" height="1.21" class="up-body"/>
<line x1="675.26" y1="954.49" x2="675.26" y2="964.69" class="up-wick"/>
<rect x="672.84" y="954.73" width="4.83" height="4.16" class="up-body"/>
<line x1="682.68" y1="942.09" x2="682.68" y2="953.89" class="down-wick"/>
<rect x="680.27" y="942.09" width="4.83" height="7.89" class="down-body"/>
<line x1="690.11" y1="938.72" x2="690.11" y2="947.00" class="down-wick"/>
<rect x="687.70" y="939.50" width="4.83" height="1.50" class="down-body"/>
<line x1="697.54" y1="942.75" x2="697.54" y2="950.89" class="up-wick"/>
<rect x="695.12" y="942.79" width="4.83" height="5.10" class="up-body"/>
<line x1="704.96" y1="945.24" x2="704.96" y2="950.75" class="down-wick"/>
<rect x="702.55" y="945.44" width="4.83" height="2.18" class="down-body"/>
<line x1="712.39" y1="951.89" x2="712.39" y2="962.57" class="down-wick"/>
<rect x="709.98" y="957.05" width="4.83" height="5.34" class="down-body"/>
<line x1="719.82" y1="942.36" x2="719.82" y2="957.85" class="up-wick"/>
<rect x="717.40" y="948.95" width="4.83" height="8.03" class="up-body"/>
<line x1="727.24" y1="943.59" x2="727.24" y2="950.13" class="up-wick"/>
<rect x="724.83" y="946.45" width="4.83" height="1.94" class="up-body"/>
<line x1="734.67" y1="953.89" x2="734.67" y2="958.06" class="down-wick"/>
<rect x="732.26" y="955.16" width="4.83" height="2.49" class="down-body"/>
<line x1="742.10" y1="949.86" x2="742.10" y2="958.42" class="up-wick"/>
<rect x="739.68" y="952.92" width="4.83" height="4.32" class="up-body"/>
<line x1="749.52" y1="957.88" x2="749.52" y2="967.92" class="down-wick"/>
<rect x="747.11" y="958.05" width="4.83" height="5.62" class="down-body"/>
<line x1="756.95" y1="957.14" x2="756.95" y2="964.01" class="up-wick"/>
<rect x="754.53" y="960.15" width="4.83" height="2.88" class="up-body"/>
<line x1="764.38" y1="971.73" x2="764.38" y2="983.94" class="down-wick"/>
<rect x="761.96" y="971.88" width="4.83" height="9.64" class="down-body"/>
<line x1="771.80" y1="981.06" x2="771.80" y2="992.48" class="down-wick"/>
<rect x="769.39" y="981.06" width="4.83" height="3.95" class="down-body"/>
<line x1="779.23" y1="986.08" x2="779.23" y2="1002.72" class="up-wick"/>
<rect x="776.81" y="992.00" width="4.83" height="9.46" class="up-body"/>
<line x1="786.65" y1="997.29" x2="786.65" y2="1010.06" class="up-wick"/>
<rect x="784.24" y="997.29" width="4.83" height="2.70" class="up-body"/>
<line x1="794.08" y1="978.16" x2="794.08" y2="990.09" class="up-wick"/>
<rect x="791.67" y="982.59" width="4.83" height="5.12" class="up-body"/>
<line x1="801.51" y1="977.12" x2="801.51" y2="986.56" class="down-wick"/>
<rect x="799.09" y="978.24" width="4.83" height="7.47" class="down-body"/>
<line x1="808.93" y1="986.00" x2="808.93" y2="994.06" class="down-wick"/>
<rect x="806.52" y="987.84" width="4.83" height="4.58" class="down-body"/>
<line x1="816.36" y1="988.90" x2="816.36" y2="994.53" class="down-wick"/>
<rect x="813.95" y="991.78" width="4.83" height="2.45" class="down-body"/>
<line x1="823.79" y1="997.78" x2="823.79" y2="1013.35" class="down-wick"/>
<rect x="821.37" y="997.99" width="4.83" height="14.09" class="down-body"/>
<line x1="831.21" y1="1011.88" x2="831.21" y2="1024.76" class="up-wick"/>
<rect x="828.80" y="1024.15" width="4.83" height="1.00" class="up-body"/>
<line x1="838.64" y1="1010.53" x2="838.64" y2="1017.20" class="up-wick"/>
<rect x="836.23" y="1011.19" width="4.83" height="5.93" class="up-body"/>
<line x1="846.07" y1="1000.20" x2="846.07" y2="1012.85" class="down-wick"/>
<rect x="843.65" y="1006.45" width="4.83" height="5.73" class="down-body"/>
<line x1="853.49" y1="995.21" x2="853.49" y2="1003.17" class="up-wick"/>
<rect x="851.08" y="997.79" width="4.83" height="2.04" class="up-body"/>
<line x1="860.92" y1="997.08" x2="860.92" y2="1003.90" class="down-wick"/>
<rect x="858.51" y="998.76" width="4.83" height="4.29" class="down-body"/>
<line x1="868.35" y1="1003.38" x2="868.35" y2="1011.62" class="down-wick"/>
<rect x="865.93" y="1004.28" width="4.83" height="2.70" class="down-body"/>
<line x1="875.77" y1="989.65" x2="875.77" y2="997.20" class="down-wick"/>
<rect x="873.36" y="990.38" width="4.83" height="1.50" class="down-body"/>
<line x1="883.20" y1="984.30" x2="883.20" y2="989.66" class="up-wick"/>
<rect x="880.78" y="987.89" width="4.83" height="1.00" class="up-body"/>
<line x1="890.62" y1="975.90" x2="890.62" y2="985.02" class="up-wick"/>
<rect x="888.21" y="976.07" width="4.83" height="7.38" class="up-body"/>
<line x1="898.05" y1="963.51" x2="898.05" y2="971.86" class="up-wick"/>
<rect x="895.64" y="966.01" width="4.83" height="4.93" class="up-body"/>
<line x1="905.48" y1="972.37" x2="905.48" y2="977.76" class="up-wick"/>
<rect x="903.06" y="973.08" width="4.83" height="1.00" class="up-body"/>
<line x1="912.90" y1="968.06" x2="912.90" y2="974.85" class="up-wick"/>
<rect x="910.49" y="969.51" width="4.83" height="2.47" class="up-body"/>
<line x1="920.33" y1="956.46" x2="920.33" y2="963.39" class="up-wick"/>
<rect x="917.92" y="956.72" width="4.83" height="6.66" class="up-body"/>
<line x1="927.76" y1="957.10" x2="927.76" y2="961.47" class="up-wick"/>
<rect x="925.34" y="957.60" width="4.83" height="1.00" class="up-body"/>
<line x1="935.18" y1="949.58" x2="935.18" y2="963.27" class="up-wick"/>
<rect x="932.77" y="951.07" width="4.83" height="11.46" class="up-body"/>
<line x1="942.61" y1="947.89" x2="942.61" y2="955.65" class="up-wick"/>
<rect x="940.20" y="947.89" width="4.83" height="2.40" class="up-body"/>
<line x1="950.04" y1="956.12" x2="950.04" y2="961.86" class="up-wick"/>
<rect x="947.62" y="956.34" width="4.83" height="1.00" class="up-body"/>
<line x1="957.46" y1="953.19" x2="957.46" y2="960.27" class="up-wick"/>
<rect x="955.05" y="954.00" width="4.83" height="4.66" class="up-body"/>
<line x1="964.89" y1="943.96" x2="964.89" y2="959.55" class="up-wick"/>
<rect x="962.48" y="949.44" width="4.83" height="6.98" class="up-body"/>
<line x1="972.32" y1="955.53" x2="972.32" y2="963.32" class="up-wick"/>
<rect x="969.90" y="955.61" width="4.83" height="1.46" class="up-body"/>
<line x1="979.74" y1="956.53" x2="979.74" y2="960.90" class="down-wick"/>
<rect x="977.33" y="958.10" width="4.83" height="2.37" class="down-body"/>
<line x1="987.17" y1="950.11" x2="987.17" y2="957.95" class="up-wick"/>
<rect x="984.76" y="954.93" width="4.83" height="1.00" class="up-body"/>
<line x1="994.60" y1="952.74" x2="994.60" y2="960.76" class="up-wick"/>
<rect x="992.18" y="952.78" width="4.83" height="5.15" class="up-body"/>
<line x1="1002.02" y1="939.03" x2="1002.02" y2="950.64" class="up-wick"/>
<rect x="999.61" y="939.13" width="4.83" height="11.46" class="up-body"/>
<line x1="1009.45" y1="937.66" x2="1009.45" y2="942.93" class="up-wick"/>
<rect x="1007.03" y="937.66" width="4.83" height="1.23" class="up-body"/>
<line x1="1016.88" y1="943.07" x2="1016.88" y2="949.42" class="up-wick"/>
<rect x="1014.46" y="944.43" width="4.83" height="1.00" class="up-body"/>
<line x1="1024.30" y1="945.87" x2="1024.30" y2="955.74" class="down-wick"/>
<rect x="1021.89" y="947.30" width="4.83" height="8.35" class="down-body"/>
<line x1="1031.73" y1="957.08" x2="1031.73" y2="962.15" class="up-wick"/>
<rect x="1029.31" y="958.23" width="4.83" height="3.49" class="up-body"/>
<line x1="1039.15" y1="954.45" x2="1039.15" y2="960.65" class="up-wick"/>
<rect x="1036.74" y="956.70" width="4.83" height="1.00" class="up-body"/>
<line x1="1046.58" y1="940.71" x2="1046.58" y2="952.04" class="up-wick"/>
<rect x="1044.17" y="941.32" width="4.83" height="10.49" class="up-body"/>
<line x1="1054.01" y1="938.18" x2="1054.01" y2="944.25" class="up-wick"/>
<rect x="1051.59" y="940.19" width="4.83" height="3.97" class="up-body"/>
<line x1="1061.43" y1="927.72" x2="1061.43" y2="933.71" class="up-wick"/>
<rect x="1059.02" y="932.04" width="4.83" height="1.00" class="up-body"/>
<line x1="1068.86" y1="936.49" x2="1068.86" y2="940.66" class="down-wick"/>
<rect x="1066.45" y="938.52" width="4.83" height="1.60" class="down-body"/>
<line x1="1076.29" y1="925.40" x2="1076.29" y2="932.70" class="up-wick"/>
<rect x="1073.87" y="925.46" width="4.83" height="7.22" class="up-body"/>
<line x1="70" y1="882.55" x2="1080" y2="882.55" class="number-line"/>
<text x="1076" y="878.55" text-anchor="end" class="level-label">round 4680.00</text>
<line x1="70" y1="882.55" x2="1080" y2="882.55" class="entry-line"/>
<text x="1076" y="878.55" text-anchor="end" class="level-label">entry level 4680.00</text>
<text x="70" y="1056" class="axis-label">2026-02-02 05:15:00+00:00 to 2026-02-02 09:45:00+00:00</text>
<text x="1080" y="1056" text-anchor="end" class="axis-label">4379.32 - 4750.70</text>
</svg>