<svg xmlns="http://www.w3.org/2000/svg" width="1120" height="1054" viewBox="0 0 1120 1054">
<style>
text{font-family:Arial,Helvetica,sans-serif}.title{font-size:21px;font-weight:700;fill:#1f2937}.subtitle{font-size:12px;fill:#4b5563}.panel-title{font-size:15px;font-weight:700;fill:#111827}.muted{font-size:13px;fill:#6b7280}.plot-bg{fill:#f8fafc;stroke:#cbd5e1;stroke-width:1}.up-body{fill:#15803d;stroke:#14532d;stroke-width:.8}.down-body{fill:#b91c1c;stroke:#7f1d1d;stroke-width:.8}.up-wick{stroke:#14532d;stroke-width:1}.down-wick{stroke:#7f1d1d;stroke-width:1}.sweep-line{stroke:#7c3aed;stroke-width:1.6;stroke-dasharray:6 4}.number-line{stroke:#0f766e;stroke-width:1.4;stroke-dasharray:3 4}.entry-line{stroke:#2563eb;stroke-width:1.4}.sl-line{stroke:#dc2626;stroke-width:1.4}.tp-line{stroke:#16a34a;stroke-width:1.4}.level-label,.axis-label{font-size:11px;fill:#374151}
</style>
<text x="28" y="28" class="title">Adelin v2 visual review sample sample_191</text>
<text x="28" y="48" class="subtitle">Candidate windows are for visual labeling only and are not trade signals.</text>
<text x="560" y="48" class="subtitle" text-anchor="middle">NUMBER_THEORY_LEVEL_NEAR | LARGE_UPPER_WICK_REVERSAL_VISUAL_CANDIDATE | ROUND_LEVEL_ENTRY_METADATA_AVAILABLE</text>
<text x="70" y="82" class="panel-title">H1 liquidity context</text>
<rect x="70" y="96" width="1010" height="192" class="plot-bg"/>
<line x1="80.74" y1="138.91" x2="80.74" y2="163.02" class="down-wick"/>
<rect x="76.74" y="145.14" width="8.00" height="3.39" class="down-body"/>
<line x1="102.23" y1="145.60" x2="102.23" y2="173.97" class="up-wick"/>
<rect x="98.23" y="146.24" width="8.00" height="2.30" class="up-body"/>
<line x1="123.72" y1="135.78" x2="123.72" y2="150.58" class="up-wick"/>
<rect x="119.72" y="143.83" width="8.00" height="2.41" class="up-body"/>
<line x1="145.21" y1="134.38" x2="145.21" y2="154.28" class="up-wick"/>
<rect x="141.21" y="138.14" width="8.00" height="5.69" class="up-body"/>
<line x1="166.70" y1="124.29" x2="166.70" y2="147.43" class="up-wick"/>
<rect x="162.70" y="124.47" width="8.00" height="13.67" class="up-body"/>
<line x1="188.19" y1="109.24" x2="188.19" y2="127.93" class="up-wick"/>
<rect x="184.19" y="113.07" width="8.00" height="11.53" class="up-body"/>
<line x1="209.68" y1="109.83" x2="209.68" y2="136.39" class="down-wick"/>
<rect x="205.68" y="113.07" width="8.00" height="17.74" class="down-body"/>
<line x1="231.17" y1="124.06" x2="231.17" y2="201.40" class="down-wick"/>
<rect x="227.17" y="130.81" width="8.00" height="64.38" class="down-body"/>
<line x1="252.66" y1="163.32" x2="252.66" y2="205.74" class="down-wick"/>
<rect x="248.66" y="195.17" width="8.00" height="7.57" class="down-body"/>
<line x1="274.15" y1="183.11" x2="274.15" y2="219.57" class="up-wick"/>
<rect x="270.15" y="190.64" width="8.00" height="12.10" class="up-body"/>
<line x1="295.64" y1="171.45" x2="295.64" y2="193.31" class="up-wick"/>
<rect x="291.64" y="190.13" width="8.00" height="1.00" class="up-body"/>
<line x1="317.13" y1="184.39" x2="317.13" y2="201.29" class="up-wick"/>
<rect x="313.13" y="190.11" width="8.00" height="1.00" class="up-body"/>
<line x1="338.62" y1="186.55" x2="338.62" y2="229.64" class="down-wick"/>
<rect x="334.62" y="190.07" width="8.00" height="32.29" class="down-body"/>
<line x1="360.11" y1="212.69" x2="360.11" y2="226.81" class="up-wick"/>
<rect x="356.11" y="219.64" width="8.00" height="2.54" class="up-body"/>
<line x1="381.60" y1="207.52" x2="381.60" y2="239.06" class="up-wick"/>
<rect x="377.60" y="212.94" width="8.00" height="9.65" class="up-body"/>
<line x1="403.09" y1="211.96" x2="403.09" y2="274.76" class="down-wick"/>
<rect x="399.09" y="213.27" width="8.00" height="29.30" class="down-body"/>
<line x1="424.57" y1="206.68" x2="424.57" y2="243.45" class="up-wick"/>
<rect x="420.57" y="212.40" width="8.00" height="30.17" class="up-body"/>
<line x1="446.06" y1="211.53" x2="446.06" y2="258.65" class="down-wick"/>
<rect x="442.06" y="212.28" width="8.00" height="10.52" class="down-body"/>
<line x1="467.55" y1="219.73" x2="467.55" y2="242.24" class="down-wick"/>
<rect x="463.55" y="222.80" width="8.00" height="13.34" class="down-body"/>
<line x1="489.04" y1="217.72" x2="489.04" y2="241.93" class="up-wick"/>
<rect x="485.04" y="219.46" width="8.00" height="16.67" class="up-body"/>
<line x1="510.53" y1="211.79" x2="510.53" y2="226.77" class="down-wick"/>
<rect x="506.53" y="219.46" width="8.00" height="6.79" class="down-body"/>
<line x1="532.02" y1="218.46" x2="532.02" y2="236.49" class="up-wick"/>
<rect x="528.02" y="221.21" width="8.00" height="5.04" class="up-body"/>
<line x1="553.51" y1="201.19" x2="553.51" y2="234.13" class="down-wick"/>
<rect x="549.51" y="221.21" width="8.00" height="5.74" class="down-body"/>
<line x1="575.00" y1="222.33" x2="575.00" y2="248.68" class="down-wick"/>
<rect x="571.00" y="226.96" width="8.00" height="18.00" class="down-body"/>
<line x1="596.49" y1="236.29" x2="596.49" y2="256.13" class="down-wick"/>
<rect x="592.49" y="244.95" width="8.00" height="4.58" class="down-body"/>
<line x1="617.98" y1="248.96" x2="617.98" y2="269.26" class="down-wick"/>
<rect x="613.98" y="249.54" width="8.00" height="16.91" class="down-body"/>
<line x1="639.47" y1="240.59" x2="639.47" y2="272.09" class="up-wick"/>
<rect x="635.47" y="241.28" width="8.00" height="25.17" class="up-body"/>
<line x1="660.96" y1="215.72" x2="660.96" y2="247.69" class="down-wick"/>
<rect x="656.96" y="241.36" width="8.00" height="1.87" class="down-body"/>
<line x1="682.45" y1="213.00" x2="682.45" y2="246.04" class="up-wick"/>
<rect x="678.45" y="218.63" width="8.00" height="24.60" class="up-body"/>
<line x1="703.94" y1="203.05" x2="703.94" y2="225.09" class="up-wick"/>
<rect x="699.94" y="207.97" width="8.00" height="10.66" class="up-body"/>
<line x1="725.43" y1="199.16" x2="725.43" y2="252.90" class="down-wick"/>
<rect x="721.43" y="207.97" width="8.00" height="36.42" class="down-body"/>
<line x1="746.91" y1="233.85" x2="746.91" y2="257.26" class="down-wick"/>
<rect x="742.91" y="244.42" width="8.00" height="9.50" class="down-body"/>
<line x1="768.40" y1="241.26" x2="768.40" y2="267.88" class="up-wick"/>
<rect x="764.40" y="250.08" width="8.00" height="3.83" class="up-body"/>
<line x1="789.89" y1="235.84" x2="789.89" y2="257.22" class="down-wick"/>
<rect x="785.89" y="248.30" width="8.00" height="1.05" class="down-body"/>
<line x1="811.38" y1="220.78" x2="811.38" y2="250.75" class="up-wick"/>
<rect x="807.38" y="226.32" width="8.00" height="23.03" class="up-body"/>
<line x1="832.87" y1="218.25" x2="832.87" y2="231.31" class="up-wick"/>
<rect x="828.87" y="226.16" width="8.00" height="1.00" class="up-body"/>
<line x1="854.36" y1="216.81" x2="854.36" y2="235.01" class="down-wick"/>
<rect x="850.36" y="226.14" width="8.00" height="7.72" class="down-body"/>
<line x1="875.85" y1="222.64" x2="875.85" y2="241.44" class="down-wick"/>
<rect x="871.85" y="231.33" width="8.00" height="6.22" class="down-body"/>
<line x1="897.34" y1="223.36" x2="897.34" y2="238.02" class="up-wick"/>
<rect x="893.34" y="226.19" width="8.00" height="11.38" class="up-body"/>
<line x1="918.83" y1="224.82" x2="918.83" y2="241.92" class="down-wick"/>
<rect x="914.83" y="226.19" width="8.00" height="10.65" class="down-body"/>
<line x1="940.32" y1="209.99" x2="940.32" y2="245.68" class="up-wick"/>
<rect x="936.32" y="210.05" width="8.00" height="26.79" class="up-body"/>
<line x1="961.81" y1="208.15" x2="961.81" y2="218.61" class="down-wick"/>
<rect x="957.81" y="210.08" width="8.00" height="5.56" class="down-body"/>
<line x1="983.30" y1="203.87" x2="983.30" y2="217.89" class="up-wick"/>
<rect x="979.30" y="210.46" width="8.00" height="5.18" class="up-body"/>
<line x1="1004.79" y1="195.02" x2="1004.79" y2="211.70" class="up-wick"/>
<rect x="1000.79" y="199.31" width="8.00" height="11.15" class="up-body"/>
<line x1="1026.28" y1="192.21" x2="1026.28" y2="218.37" class="down-wick"/>
<rect x="1022.28" y="199.31" width="8.00" height="18.42" class="down-body"/>
<line x1="1047.77" y1="215.50" x2="1047.77" y2="234.28" class="down-wick"/>
<rect x="1043.77" y="217.65" width="8.00" height="11.53" class="down-body"/>
<line x1="1069.26" y1="209.91" x2="1069.26" y2="230.37" class="up-wick"/>
<rect x="1065.26" y="217.17" width="8.00" height="12.01" class="up-body"/>
<line x1="70" y1="229.27" x2="1080" y2="229.27" class="number-line"/>
<text x="1076" y="225.27" text-anchor="end" class="level-label">round 5010.00</text>
<line x1="70" y1="229.27" x2="1080" y2="229.27" class="entry-line"/>
<text x="1076" y="225.27" text-anchor="end" class="level-label">entry level 5010.00</text>
<text x="70" y="306" class="axis-label">2026-03-13 09:00:00+00:00 to 2026-03-17 09:00:00+00:00</text>
<text x="1080" y="306" text-anchor="end" class="axis-label">4955.28 - 5134.18</text>
<text x="70" y="332" class="panel-title">M15 liquidity / reaction context</text>
<rect x="70" y="346" width="1010" height="192" class="plot-bg"/>
<line x1="78.28" y1="373.49" x2="78.28" y2="425.93" class="up-wick"/>
<rect x="74.28" y="389.93" width="8.00" height="17.46" class="up-body"/>
<line x1="94.84" y1="393.55" x2="94.84" y2="444.45" class="down-wick"/>
<rect x="90.84" y="396.72" width="8.00" height="17.51" class="down-body"/>
<line x1="111.39" y1="402.49" x2="111.39" y2="426.56" class="down-wick"/>
<rect x="107.39" y="414.80" width="8.00" height="5.94" class="down-body"/>
<line x1="127.95" y1="383.89" x2="127.95" y2="421.27" class="up-wick"/>
<rect x="123.95" y="385.68" width="8.00" height="35.11" class="up-body"/>
<line x1="144.51" y1="383.48" x2="144.51" y2="441.07" class="down-wick"/>
<rect x="140.51" y="386.43" width="8.00" height="42.93" class="down-body"/>
<line x1="161.07" y1="427.36" x2="161.07" y2="524.76" class="down-wick"/>
<rect x="157.07" y="429.36" width="8.00" height="42.16" class="down-body"/>
<line x1="177.62" y1="464.61" x2="177.62" y2="497.40" class="down-wick"/>
<rect x="173.62" y="471.54" width="8.00" height="14.25" class="down-body"/>
<line x1="194.18" y1="449.64" x2="194.18" y2="513.60" class="up-wick"/>
<rect x="190.18" y="452.35" width="8.00" height="33.44" class="up-body"/>
<line x1="210.74" y1="377.35" x2="210.74" y2="454.33" class="up-wick"/>
<rect x="206.74" y="392.03" width="8.00" height="60.32" class="up-body"/>
<line x1="227.30" y1="389.21" x2="227.30" y2="410.24" class="down-wick"/>
<rect x="223.30" y="392.03" width="8.00" height="13.93" class="down-body"/>
<line x1="243.85" y1="371.60" x2="243.85" y2="410.41" class="up-wick"/>
<rect x="239.85" y="379.69" width="8.00" height="26.27" class="up-body"/>
<line x1="260.41" y1="373.90" x2="260.41" y2="405.34" class="down-wick"/>
<rect x="256.41" y="379.52" width="8.00" height="4.95" class="down-body"/>
<line x1="276.97" y1="382.52" x2="276.97" y2="479.44" class="down-wick"/>
<rect x="272.97" y="384.21" width="8.00" height="94.94" class="down-body"/>
<line x1="293.52" y1="432.93" x2="293.52" y2="485.16" class="up-wick"/>
<rect x="289.52" y="475.72" width="8.00" height="3.43" class="up-body"/>
<line x1="310.08" y1="436.19" x2="310.08" y2="488.52" class="up-wick"/>
<rect x="306.08" y="437.04" width="8.00" height="38.66" class="up-body"/>
<line x1="326.64" y1="406.86" x2="326.64" y2="440.37" class="up-wick"/>
<rect x="322.64" y="407.87" width="8.00" height="28.93" class="up-body"/>
<line x1="343.20" y1="400.96" x2="343.20" y2="420.79" class="down-wick"/>
<rect x="339.20" y="407.87" width="8.00" height="1.67" class="down-body"/>
<line x1="359.75" y1="401.69" x2="359.75" y2="421.13" class="down-wick"/>
<rect x="355.75" y="409.54" width="8.00" height="5.55" class="down-body"/>
<line x1="376.31" y1="411.37" x2="376.31" y2="440.30" class="down-wick"/>
<rect x="372.31" y="415.09" width="8.00" height="16.95" class="down-body"/>
<line x1="392.87" y1="425.69" x2="392.87" y2="451.60" class="down-wick"/>
<rect x="388.87" y="432.04" width="8.00" height="5.84" class="down-body"/>
<line x1="409.43" y1="429.87" x2="409.43" y2="450.90" class="down-wick"/>
<rect x="405.43" y="437.86" width="8.00" height="10.02" class="down-body"/>
<line x1="425.98" y1="418.45" x2="425.98" y2="449.93" class="up-wick"/>
<rect x="421.98" y="419.56" width="8.00" height="28.32" class="up-body"/>
<line x1="442.54" y1="400.68" x2="442.54" y2="421.90" class="up-wick"/>
<rect x="438.54" y="401.01" width="8.00" height="18.54" class="up-body"/>
<line x1="459.10" y1="396.43" x2="459.10" y2="407.82" class="up-wick"/>
<rect x="455.10" y="400.36" width="8.00" height="1.00" class="up-body"/>
<line x1="475.66" y1="383.68" x2="475.66" y2="400.60" class="up-wick"/>
<rect x="471.66" y="387.83" width="8.00" height="12.53" class="up-body"/>
<line x1="492.21" y1="383.10" x2="492.21" y2="396.43" class="down-wick"/>
<rect x="488.21" y="387.88" width="8.00" height="6.66" class="down-body"/>
<line x1="508.77" y1="386.67" x2="508.77" y2="411.30" class="down-wick"/>
<rect x="504.77" y="394.54" width="8.00" height="11.03" class="down-body"/>
<line x1="525.33" y1="405.41" x2="525.33" y2="416.80" class="down-wick"/>
<rect x="521.33" y="405.58" width="8.00" height="10.07" class="down-body"/>
<line x1="541.89" y1="408.50" x2="541.89" y2="419.65" class="down-wick"/>
<rect x="537.89" y="415.65" width="8.00" height="1.00" class="down-body"/>
<line x1="558.44" y1="414.78" x2="558.44" y2="427.21" class="down-wick"/>
<rect x="554.44" y="415.98" width="8.00" height="4.20" class="down-body"/>
<line x1="575.00" y1="404.61" x2="575.00" y2="438.66" class="up-wick"/>
<rect x="571.00" y="407.15" width="8.00" height="13.04" class="up-body"/>
<line x1="591.56" y1="398.09" x2="591.56" y2="409.29" class="up-wick"/>
<rect x="587.56" y="404.30" width="8.00" height="2.85" class="up-body"/>
<line x1="608.11" y1="379.38" x2="608.11" y2="415.09" class="up-wick"/>
<rect x="604.11" y="380.68" width="8.00" height="23.61" class="up-body"/>
<line x1="624.67" y1="359.24" x2="624.67" y2="384.79" class="up-wick"/>
<rect x="620.67" y="379.62" width="8.00" height="1.06" class="up-body"/>
<line x1="641.23" y1="375.20" x2="641.23" y2="395.94" class="down-wick"/>
<rect x="637.23" y="379.60" width="8.00" height="12.68" class="down-body"/>
<line x1="657.79" y1="391.07" x2="657.79" y2="433.34" class="down-wick"/>
<rect x="653.79" y="392.27" width="8.00" height="24.94" class="down-body"/>
<line x1="674.34" y1="406.81" x2="674.34" y2="423.25" class="down-wick"/>
<rect x="670.34" y="417.21" width="8.00" height="5.41" class="down-body"/>
<line x1="690.90" y1="422.53" x2="690.90" y2="450.87" class="down-wick"/>
<rect x="686.90" y="422.53" width="8.00" height="18.18" class="down-body"/>
<line x1="707.46" y1="428.90" x2="707.46" y2="466.09" class="down-wick"/>
<rect x="703.46" y="440.71" width="8.00" height="23.40" class="down-body"/>
<line x1="724.02" y1="446.29" x2="724.02" y2="464.06" class="up-wick"/>
<rect x="720.02" y="457.71" width="8.00" height="6.35" class="up-body"/>
<line x1="740.57" y1="445.39" x2="740.57" y2="474.17" class="down-wick"/>
<rect x="736.57" y="457.71" width="8.00" height="16.06" class="down-body"/>
<line x1="757.13" y1="438.22" x2="757.13" y2="475.77" class="up-wick"/>
<rect x="753.13" y="453.82" width="8.00" height="19.94" class="up-body"/>
<line x1="773.69" y1="449.96" x2="773.69" y2="482.84" class="down-wick"/>
<rect x="769.69" y="453.82" width="8.00" height="23.52" class="down-body"/>
<line x1="790.25" y1="451.91" x2="790.25" y2="480.98" class="up-wick"/>
<rect x="786.25" y="468.02" width="8.00" height="9.32" class="up-body"/>
<line x1="806.80" y1="467.29" x2="806.80" y2="495.13" class="down-wick"/>
<rect x="802.80" y="468.02" width="8.00" height="14.05" class="down-body"/>
<line x1="823.36" y1="468.93" x2="823.36" y2="485.62" class="up-wick"/>
<rect x="819.36" y="473.14" width="8.00" height="8.93" class="up-body"/>
<line x1="839.92" y1="466.71" x2="839.92" y2="491.99" class="down-wick"/>
<rect x="835.92" y="473.14" width="8.00" height="18.13" class="down-body"/>
<line x1="856.48" y1="481.68" x2="856.48" y2="512.40" class="down-wick"/>
<rect x="852.48" y="491.27" width="8.00" height="14.80" class="down-body"/>
<line x1="873.03" y1="494.21" x2="873.03" y2="518.75" class="up-wick"/>
<rect x="869.03" y="502.54" width="8.00" height="3.53" class="up-body"/>
<line x1="889.59" y1="468.19" x2="889.59" y2="503.03" class="up-wick"/>
<rect x="885.59" y="478.50" width="8.00" height="24.07" class="up-body"/>
<line x1="906.15" y1="475.24" x2="906.15" y2="493.59" class="down-wick"/>
<rect x="902.15" y="478.50" width="8.00" height="2.99" class="down-body"/>
<line x1="922.70" y1="447.88" x2="922.70" y2="485.18" class="up-wick"/>
<rect x="918.70" y="449.45" width="8.00" height="32.04" class="up-body"/>
<line x1="939.26" y1="431.17" x2="939.26" y2="456.91" class="up-wick"/>
<rect x="935.26" y="441.05" width="8.00" height="8.57" class="up-body"/>
<line x1="955.82" y1="391.93" x2="955.82" y2="441.05" class="up-wick"/>
<rect x="951.82" y="400.19" width="8.00" height="40.85" class="up-body"/>
<line x1="972.38" y1="398.26" x2="972.38" y2="413.13" class="down-wick"/>
<rect x="968.38" y="400.19" width="8.00" height="8.76" class="down-body"/>
<line x1="988.93" y1="402.92" x2="988.93" y2="463.86" class="down-wick"/>
<rect x="984.93" y="408.96" width="8.00" height="44.86" class="down-body"/>
<line x1="1005.49" y1="430.49" x2="1005.49" y2="460.15" class="up-wick"/>
<rect x="1001.49" y="433.13" width="8.00" height="20.69" class="up-body"/>
<line x1="1022.05" y1="386.79" x2="1022.05" y2="439.94" class="up-wick"/>
<rect x="1018.05" y="391.02" width="8.00" height="42.11" class="up-body"/>
<line x1="1038.61" y1="385.83" x2="1038.61" y2="400.87" class="down-wick"/>
<rect x="1034.61" y="391.02" width="8.00" height="2.73" class="down-body"/>
<line x1="1055.16" y1="392.83" x2="1055.16" y2="417.05" class="down-wick"/>
<rect x="1051.16" y="393.79" width="8.00" height="4.68" class="down-body"/>
<line x1="1071.72" y1="389.59" x2="1071.72" y2="413.01" class="up-wick"/>
<rect x="1067.72" y="392.32" width="8.00" height="6.16" class="up-body"/>
<line x1="70" y1="422.43" x2="1080" y2="422.43" class="number-line"/>
<text x="1076" y="418.43" text-anchor="end" class="level-label">round 5010.00</text>
<line x1="70" y1="422.43" x2="1080" y2="422.43" class="entry-line"/>
<text x="1076" y="418.43" text-anchor="end" class="level-label">entry level 5010.00</text>
<text x="70" y="556" class="axis-label">2026-03-16 00:00:00+00:00 to 2026-03-16 15:00:00+00:00</text>
<text x="1080" y="556" text-anchor="end" class="axis-label">4962.14 - 5041.65</text>
<text x="70" y="582" class="panel-title">M5 reaction / execution context</text>
<rect x="70" y="596" width="1010" height="192" class="plot-bg"/>
<line x1="79.18" y1="672.48" x2="79.18" y2="689.92" class="down-wick"/>
<rect x="75.18" y="672.48" width="8.00" height="17.36" class="down-body"/>
<line x1="97.55" y1="669.55" x2="97.55" y2="691.65" class="up-wick"/>
<rect x="93.55" y="669.55" width="8.00" height="20.32" class="up-body"/>
<line x1="115.91" y1="656.32" x2="115.91" y2="672.63" class="up-wick"/>
<rect x="111.91" y="658.95" width="8.00" height="10.60" class="up-body"/>
<line x1="134.27" y1="655.04" x2="134.27" y2="660.03" class="down-wick"/>
<rect x="130.27" y="658.95" width="8.00" height="1.00" class="down-body"/>
<line x1="152.64" y1="649.83" x2="152.64" y2="661.18" class="up-wick"/>
<rect x="148.64" y="650.18" width="8.00" height="8.97" class="up-body"/>
<line x1="171.00" y1="649.56" x2="171.00" y2="660.05" class="down-wick"/>
<rect x="167.00" y="649.61" width="8.00" height="6.39" class="down-body"/>
<line x1="189.36" y1="652.54" x2="189.36" y2="667.19" class="down-wick"/>
<rect x="185.36" y="656.00" width="8.00" height="2.03" class="down-body"/>
<line x1="207.73" y1="644.17" x2="207.73" y2="659.58" class="up-wick"/>
<rect x="203.73" y="645.07" width="8.00" height="12.95" class="up-body"/>
<line x1="226.09" y1="630.14" x2="226.09" y2="647.98" class="up-wick"/>
<rect x="222.09" y="631.49" width="8.00" height="13.58" class="up-body"/>
<line x1="244.45" y1="609.24" x2="244.45" y2="634.50" class="up-wick"/>
<rect x="240.45" y="615.03" width="8.00" height="16.46" class="up-body"/>
<line x1="262.82" y1="612.67" x2="262.82" y2="630.34" class="down-wick"/>
<rect x="258.82" y="615.03" width="8.00" height="15.06" class="down-body"/>
<line x1="281.18" y1="623.85" x2="281.18" y2="635.75" class="down-wick"/>
<rect x="277.18" y="630.09" width="8.00" height="1.00" class="down-body"/>
<line x1="299.55" y1="625.80" x2="299.55" y2="637.30" class="down-wick"/>
<rect x="295.55" y="630.36" width="8.00" height="6.94" class="down-body"/>
<line x1="317.91" y1="632.84" x2="317.91" y2="641.04" class="up-wick"/>
<rect x="313.91" y="636.05" width="8.00" height="1.18" class="up-body"/>
<line x1="336.27" y1="635.90" x2="336.27" y2="647.33" class="down-wick"/>
<rect x="332.27" y="636.05" width="8.00" height="7.47" class="down-body"/>
<line x1="354.64" y1="642.26" x2="354.64" y2="676.19" class="down-wick"/>
<rect x="350.64" y="643.52" width="8.00" height="24.60" class="down-body"/>
<line x1="373.00" y1="664.86" x2="373.00" y2="686.14" class="down-wick"/>
<rect x="369.00" y="668.12" width="8.00" height="7.92" class="down-body"/>
<line x1="391.36" y1="662.26" x2="391.36" y2="677.54" class="up-wick"/>
<rect x="387.36" y="669.40" width="8.00" height="6.64" class="up-body"/>
<line x1="409.73" y1="660.43" x2="409.73" y2="674.71" class="up-wick"/>
<rect x="405.73" y="661.13" width="8.00" height="8.27" class="up-body"/>
<line x1="428.09" y1="658.60" x2="428.09" y2="675.66" class="down-wick"/>
<rect x="424.09" y="661.13" width="8.00" height="1.00" class="down-body"/>
<line x1="446.45" y1="661.28" x2="446.45" y2="675.51" class="down-wick"/>
<rect x="442.45" y="661.46" width="8.00" height="13.56" class="down-body"/>
<line x1="464.82" y1="674.91" x2="464.82" y2="697.44" class="down-wick"/>
<rect x="460.82" y="674.91" width="8.00" height="7.02" class="down-body"/>
<line x1="483.18" y1="679.77" x2="483.18" y2="695.23" class="down-wick"/>
<rect x="479.18" y="681.98" width="8.00" height="9.32" class="down-body"/>
<line x1="501.55" y1="685.41" x2="501.55" y2="704.33" class="down-wick"/>
<rect x="497.55" y="691.30" width="8.00" height="2.48" class="down-body"/>
<line x1="519.91" y1="681.53" x2="519.91" y2="693.90" class="up-wick"/>
<rect x="515.91" y="688.44" width="8.00" height="5.34" class="up-body"/>
<line x1="538.27" y1="686.56" x2="538.27" y2="720.04" class="down-wick"/>
<rect x="534.27" y="688.44" width="8.00" height="15.41" class="down-body"/>
<line x1="556.64" y1="703.85" x2="556.64" y2="720.11" class="down-wick"/>
<rect x="552.64" y="703.85" width="8.00" height="14.21" class="down-body"/>
<line x1="575.00" y1="699.57" x2="575.00" y2="718.01" class="up-wick"/>
<rect x="571.00" y="708.59" width="8.00" height="9.42" class="up-body"/>
<line x1="593.36" y1="700.97" x2="593.36" y2="715.85" class="down-wick"/>
<rect x="589.36" y="708.59" width="8.00" height="6.87" class="down-body"/>
<line x1="611.73" y1="704.73" x2="611.73" y2="716.28" class="up-wick"/>
<rect x="607.73" y="711.42" width="8.00" height="4.03" class="up-body"/>
<line x1="630.09" y1="701.17" x2="630.09" y2="719.11" class="up-wick"/>
<rect x="626.09" y="707.71" width="8.00" height="3.71" class="up-body"/>
<line x1="648.45" y1="701.82" x2="648.45" y2="715.83" class="down-wick"/>
<rect x="644.45" y="707.71" width="8.00" height="1.00" class="down-body"/>
<line x1="666.82" y1="698.64" x2="666.82" y2="728.51" class="down-wick"/>
<rect x="662.82" y="708.19" width="8.00" height="19.89" class="down-body"/>
<line x1="685.18" y1="716.00" x2="685.18" y2="730.16" class="up-wick"/>
<rect x="681.18" y="723.37" width="8.00" height="4.71" class="up-body"/>
<line x1="703.55" y1="691.85" x2="703.55" y2="726.30" class="up-wick"/>
<rect x="699.55" y="696.01" width="8.00" height="27.36" class="up-body"/>
<line x1="721.91" y1="691.20" x2="721.91" y2="712.45" class="down-wick"/>
<rect x="717.91" y="695.51" width="8.00" height="11.88" class="down-body"/>
<line x1="740.27" y1="703.38" x2="740.27" y2="719.66" class="down-wick"/>
<rect x="736.27" y="707.38" width="8.00" height="10.30" class="down-body"/>
<line x1="758.64" y1="711.44" x2="758.64" y2="735.62" class="down-wick"/>
<rect x="754.64" y="717.68" width="8.00" height="8.39" class="down-body"/>
<line x1="777.00" y1="723.80" x2="777.00" y2="737.50" class="down-wick"/>
<rect x="773.00" y="726.08" width="8.00" height="5.71" class="down-body"/>
<line x1="795.36" y1="715.95" x2="795.36" y2="735.57" class="up-wick"/>
<rect x="791.36" y="717.78" width="8.00" height="14.01" class="up-body"/>
<line x1="813.73" y1="705.40" x2="813.73" y2="721.87" class="up-wick"/>
<rect x="809.73" y="710.97" width="8.00" height="6.82" class="up-body"/>
<line x1="832.09" y1="709.79" x2="832.09" y2="724.97" class="down-wick"/>
<rect x="828.09" y="710.99" width="8.00" height="11.12" class="down-body"/>
<line x1="850.45" y1="721.37" x2="850.45" y2="741.06" class="down-wick"/>
<rect x="846.45" y="722.12" width="8.00" height="12.85" class="down-body"/>
<line x1="868.82" y1="733.89" x2="868.82" y2="750.25" class="down-wick"/>
<rect x="864.82" y="735.00" width="8.00" height="3.46" class="down-body"/>
<line x1="887.18" y1="732.14" x2="887.18" y2="741.06" class="up-wick"/>
<rect x="883.18" y="736.70" width="8.00" height="1.75" class="up-body"/>
<line x1="905.55" y1="728.05" x2="905.55" y2="738.45" class="up-wick"/>
<rect x="901.55" y="731.14" width="8.00" height="5.56" class="up-body"/>
<line x1="923.91" y1="728.48" x2="923.91" y2="734.72" class="down-wick"/>
<rect x="919.91" y="730.89" width="8.00" height="3.06" class="down-body"/>
<line x1="942.27" y1="723.07" x2="942.27" y2="740.38" class="up-wick"/>
<rect x="938.27" y="727.43" width="8.00" height="6.51" class="up-body"/>
<line x1="960.64" y1="720.76" x2="960.64" y2="738.88" class="down-wick"/>
<rect x="956.64" y="727.43" width="8.00" height="1.43" class="down-body"/>
<line x1="979.00" y1="725.85" x2="979.00" y2="743.04" class="down-wick"/>
<rect x="975.00" y="728.76" width="8.00" height="11.88" class="down-body"/>
<line x1="997.36" y1="733.84" x2="997.36" y2="747.00" class="down-wick"/>
<rect x="993.36" y="740.63" width="8.00" height="5.61" class="down-body"/>
<line x1="1015.73" y1="741.51" x2="1015.73" y2="767.09" class="down-wick"/>
<rect x="1011.73" y="746.25" width="8.00" height="3.26" class="down-body"/>
<line x1="1034.09" y1="736.30" x2="1034.09" y2="758.07" class="down-wick"/>
<rect x="1030.09" y="749.50" width="8.00" height="7.79" class="down-body"/>
<line x1="1052.45" y1="750.55" x2="1052.45" y2="768.17" class="down-wick"/>
<rect x="1048.45" y="757.29" width="8.00" height="4.31" class="down-body"/>
<line x1="1070.82" y1="759.40" x2="1070.82" y2="774.76" class="down-wick"/>
<rect x="1066.82" y="761.60" width="8.00" height="2.18" class="down-body"/>
<line x1="70" y1="674.81" x2="1080" y2="674.81" class="number-line"/>
<text x="1076" y="670.81" text-anchor="end" class="level-label">round 5010.00</text>
<line x1="70" y1="674.81" x2="1080" y2="674.81" class="entry-line"/>
<text x="1076" y="670.81" text-anchor="end" class="level-label">entry level 5010.00</text>
<text x="70" y="806" class="axis-label">2026-03-16 07:30:00+00:00 to 2026-03-16 12:00:00+00:00</text>
<text x="1080" y="806" text-anchor="end" class="axis-label">4964.83 - 5041.45</text>
<text x="70" y="832" class="panel-title">M1 execution window</text>
<rect x="70" y="846" width="1010" height="192" class="plot-bg"/>
<line x1="73.71" y1="923.26" x2="73.71" y2="934.64" class="down-wick"/>
<rect x="71.30" y="923.26" width="4.83" height="9.90" class="down-body"/>
<line x1="81.14" y1="932.12" x2="81.14" y2="941.24" class="up-wick"/>
<rect x="78.73" y="934.77" width="4.83" height="3.41" class="up-body"/>
<line x1="88.57" y1="934.83" x2="88.57" y2="941.93" class="down-wick"/>
<rect x="86.15" y="936.73" width="4.83" height="5.12" class="down-body"/>
<line x1="95.99" y1="935.36" x2="95.99" y2="938.93" class="up-wick"/>
<rect x="93.58" y="937.51" width="4.83" height="1.10" class="up-body"/>
<line x1="103.42" y1="926.51" x2="103.42" y2="936.19" class="up-wick"/>
<rect x="101.01" y="930.35" width="4.83" height="5.44" class="up-body"/>
<line x1="110.85" y1="911.25" x2="110.85" y2="923.43" class="up-wick"/>
<rect x="108.43" y="912.11" width="4.83" height="8.02" class="up-body"/>
<line x1="118.27" y1="907.20" x2="118.27" y2="915.51" class="down-wick"/>
<rect x="115.86" y="909.53" width="4.83" height="3.03" class="down-body"/>
<line x1="125.70" y1="907.09" x2="125.70" y2="912.21" class="up-wick"/>
<rect x="123.28" y="908.78" width="4.83" height="2.01" class="up-body"/>
<line x1="133.12" y1="905.54" x2="133.12" y2="909.29" class="down-wick"/>
<rect x="130.71" y="905.59" width="4.83" height="1.93" class="down-body"/>
<line x1="140.55" y1="906.47" x2="140.55" y2="908.67" class="down-wick"/>
<rect x="138.14" y="907.06" width="4.83" height="1.00" class="down-body"/>
<line x1="147.98" y1="906.98" x2="147.98" y2="911.17" class="up-wick"/>
<rect x="145.56" y="907.17" width="4.83" height="1.82" class="up-body"/>
<line x1="155.40" y1="904.52" x2="155.40" y2="910.18" class="up-wick"/>
<rect x="152.99" y="904.52" width="4.83" height="2.76" class="up-body"/>
<line x1="162.83" y1="899.02" x2="162.83" y2="902.48" class="up-wick"/>
<rect x="160.42" y="899.39" width="4.83" height="2.74" class="up-body"/>
<line x1="170.26" y1="902.50" x2="170.26" y2="908.33" class="up-wick"/>
<rect x="167.84" y="906.05" width="4.83" height="1.05" class="up-body"/>
<line x1="177.68" y1="904.70" x2="177.68" y2="909.96" class="up-wick"/>
<rect x="175.27" y="904.76" width="4.83" height="1.66" class="up-body"/>
<line x1="185.11" y1="902.85" x2="185.11" y2="906.85" class="up-wick"/>
<rect x="182.70" y="904.65" width="4.83" height="1.00" class="up-body"/>
<line x1="192.54" y1="901.91" x2="192.54" y2="910.36" class="down-wick"/>
<rect x="190.12" y="905.19" width="4.83" height="3.84" class="down-body"/>
<line x1="199.96" y1="906.21" x2="199.96" y2="916.77" class="up-wick"/>
<rect x="197.55" y="907.79" width="4.83" height="6.20" class="up-body"/>
<line x1="207.39" y1="899.15" x2="207.39" y2="904.38" class="down-wick"/>
<rect x="204.98" y="901.97" width="4.83" height="2.01" class="down-body"/>
<line x1="214.82" y1="900.20" x2="214.82" y2="904.38" class="up-wick"/>
<rect x="212.40" y="900.98" width="4.83" height="3.19" class="up-body"/>
<line x1="222.24" y1="889.66" x2="222.24" y2="894.78" class="up-wick"/>
<rect x="219.83" y="891.27" width="4.83" height="2.66" class="up-body"/>
<line x1="229.67" y1="892.47" x2="229.67" y2="896.39" class="up-wick"/>
<rect x="227.26" y="893.41" width="4.83" height="1.56" class="up-body"/>
<line x1="237.10" y1="877.94" x2="237.10" y2="888.83" class="up-wick"/>
<rect x="234.68" y="879.38" width="4.83" height="9.39" class="up-body"/>
<line x1="244.52" y1="859.38" x2="244.52" y2="868.47" class="up-wick"/>
<rect x="242.11" y="863.96" width="4.83" height="4.51" class="up-body"/>
<line x1="251.95" y1="860.66" x2="251.95" y2="865.28" class="down-wick"/>
<rect x="249.53" y="861.79" width="4.83" height="3.38" class="down-body"/>
<line x1="259.38" y1="859.24" x2="259.38" y2="863.43" class="down-wick"/>
<rect x="256.96" y="861.76" width="4.83" height="1.61" class="down-body"/>
<line x1="266.80" y1="866.32" x2="266.80" y2="874.18" class="down-wick"/>
<rect x="264.39" y="866.35" width="4.83" height="7.72" class="down-body"/>
<line x1="274.23" y1="870.61" x2="274.23" y2="878.15" class="down-wick"/>
<rect x="271.81" y="873.73" width="4.83" height="4.16" class="down-body"/>
<line x1="281.65" y1="878.58" x2="281.65" y2="883.94" class="up-wick"/>
<rect x="279.24" y="879.22" width="4.83" height="1.00" class="up-body"/>
<line x1="289.08" y1="871.20" x2="289.08" y2="879.71" class="down-wick"/>
<rect x="286.67" y="872.14" width="4.83" height="6.01" class="down-body"/>
<line x1="296.51" y1="873.30" x2="296.51" y2="878.18" class="up-wick"/>
<rect x="294.09" y="876.97" width="4.83" height="1.21" class="up-body"/>
<line x1="303.93" y1="875.33" x2="303.93" y2="880.99" class="up-wick"/>
<rect x="301.52" y="876.97" width="4.83" height="2.17" class="up-body"/>
<line x1="311.36" y1="878.20" x2="311.36" y2="885.61" class="down-wick"/>
<rect x="308.95" y="879.60" width="4.83" height="6.01" class="down-body"/>
<line x1="318.79" y1="882.55" x2="318.79" y2="888.50" class="down-wick"/>
<rect x="316.37" y="882.55" width="4.83" height="2.28" class="down-body"/>
<line x1="326.21" y1="882.60" x2="326.21" y2="889.60" class="up-wick"/>
<rect x="323.80" y="884.37" width="4.83" height="1.64" class="up-body"/>
<line x1="333.64" y1="884.11" x2="333.64" y2="896.34" class="down-wick"/>
<rect x="331.23" y="884.27" width="4.83" height="7.75" class="down-body"/>
<line x1="341.07" y1="886.79" x2="341.07" y2="890.14" class="up-wick"/>
<rect x="338.65" y="887.89" width="4.83" height="1.66" class="up-body"/>
<line x1="348.49" y1="887.70" x2="348.49" y2="892.31" class="down-wick"/>
<rect x="346.08" y="889.85" width="4.83" height="2.41" class="down-body"/>
<line x1="355.92" y1="892.66" x2="355.92" y2="899.93" class="down-wick"/>
<rect x="353.51" y="895.45" width="4.83" height="3.38" class="down-body"/>
<line x1="363.35" y1="909.72" x2="363.35" y2="926.97" class="down-wick"/>
<rect x="360.93" y="910.82" width="4.83" height="10.97" class="down-body"/>
<line x1="370.77" y1="915.11" x2="370.77" y2="936.62" class="down-wick"/>
<rect x="368.36" y="918.60" width="4.83" height="7.83" class="down-body"/>
<line x1="378.20" y1="927.50" x2="378.20" y2="937.88" class="down-wick"/>
<rect x="375.78" y="929.35" width="4.83" height="6.03" class="down-body"/>
<line x1="385.62" y1="925.92" x2="385.62" y2="931.02" class="up-wick"/>
<rect x="383.21" y="927.07" width="4.83" height="1.00" class="up-body"/>
<line x1="393.05" y1="916.96" x2="393.05" y2="925.79" class="up-wick"/>
<rect x="390.64" y="921.90" width="4.83" height="3.25" class="up-body"/>
<line x1="400.48" y1="912.32" x2="400.48" y2="917.85" class="up-wick"/>
<rect x="398.06" y="916.48" width="4.83" height="1.37" class="up-body"/>
<line x1="407.90" y1="917.04" x2="407.90" y2="925.65" class="up-wick"/>
<rect x="405.49" y="917.07" width="4.83" height="2.90" class="up-body"/>
<line x1="415.33" y1="910.55" x2="415.33" y2="914.04" class="up-wick"/>
<rect x="412.92" y="912.86" width="4.83" height="1.00" class="up-body"/>
<line x1="422.76" y1="910.36" x2="422.76" y2="915.11" class="up-wick"/>
<rect x="420.34" y="911.11" width="4.83" height="2.55" class="up-body"/>
<line x1="430.18" y1="916.80" x2="430.18" y2="924.26" class="up-wick"/>
<rect x="427.77" y="918.65" width="4.83" height="1.58" class="up-body"/>
<line x1="437.61" y1="912.46" x2="437.61" y2="919.78" class="up-wick"/>
<rect x="435.20" y="912.51" width="4.83" height="6.17" class="up-body"/>
<line x1="445.04" y1="911.28" x2="445.04" y2="920.31" class="down-wick"/>
<rect x="442.62" y="911.46" width="4.83" height="8.85" class="down-body"/>
<line x1="452.46" y1="915.92" x2="452.46" y2="920.13" class="up-wick"/>
<rect x="450.05" y="916.32" width="4.83" height="2.12" class="up-body"/>
<line x1="459.89" y1="919.00" x2="459.89" y2="926.51" class="down-wick"/>
<rect x="457.48" y="919.30" width="4.83" height="6.68" class="down-body"/>
<line x1="467.32" y1="926.99" x2="467.32" y2="941.77" class="up-wick"/>
<rect x="464.90" y="931.74" width="4.83" height="10.03" class="up-body"/>
<line x1="474.74" y1="931.07" x2="474.74" y2="938.29" class="down-wick"/>
<rect x="472.33" y="935.50" width="4.83" height="1.88" class="down-body"/>
<line x1="482.17" y1="931.93" x2="482.17" y2="936.84" class="up-wick"/>
<rect x="479.76" y="932.28" width="4.83" height="1.15" class="up-body"/>
<line x1="489.60" y1="932.33" x2="489.60" y2="942.98" class="down-wick"/>
<rect x="487.18" y="934.96" width="4.83" height="5.10" class="down-body"/>
<line x1="497.02" y1="941.53" x2="497.02" y2="947.62" class="up-wick"/>
<rect x="494.61" y="943.41" width="4.83" height="4.05" class="up-body"/>
<line x1="504.45" y1="942.04" x2="504.45" y2="946.79" class="down-wick"/>
<rect x="502.03" y="942.07" width="4.83" height="4.61" class="down-body"/>
<line x1="511.88" y1="946.79" x2="511.88" y2="957.36" class="down-wick"/>
<rect x="509.46" y="947.16" width="4.83" height="5.28" class="down-body"/>
<line x1="519.30" y1="938.39" x2="519.30" y2="946.20" class="up-wick"/>
<rect x="516.89" y="943.94" width="4.83" height="2.12" class="up-body"/>
<line x1="526.73" y1="939.76" x2="526.73" y2="944.99" class="up-wick"/>
<rect x="524.31" y="939.89" width="4.83" height="1.42" class="up-body"/>
<line x1="534.15" y1="934.29" x2="534.15" y2="941.45" class="down-wick"/>
<rect x="531.74" y="936.49" width="4.83" height="3.86" class="down-body"/>
<line x1="541.58" y1="940.16" x2="541.58" y2="948.21" class="down-wick"/>
<rect x="539.17" y="944.00" width="4.83" height="3.00" class="down-body"/>
<line x1="549.01" y1="954.30" x2="549.01" y2="969.61" class="up-wick"/>
<rect x="546.59" y="961.46" width="4.83" height="1.72" class="up-body"/>
<line x1="556.43" y1="956.85" x2="556.43" y2="965.08" class="down-wick"/>
<rect x="554.02" y="956.85" width="4.83" height="5.23" class="down-body"/>
<line x1="563.86" y1="964.03" x2="563.86" y2="969.05" class="up-wick"/>
<rect x="561.45" y="966.13" width="4.83" height="2.92" class="up-body"/>
<line x1="571.29" y1="966.05" x2="571.29" y2="974.25" class="down-wick"/>
<rect x="568.87" y="966.05" width="4.83" height="6.01" class="down-body"/>
<line x1="578.71" y1="953.06" x2="578.71" y2="962.16" class="up-wick"/>
<rect x="576.30" y="953.79" width="4.83" height="8.37" class="up-body"/>
<line x1="586.14" y1="953.71" x2="586.14" y2="962.18" class="down-wick"/>
<rect x="583.73" y="954.08" width="4.83" height="6.89" class="down-body"/>
<line x1="593.57" y1="955.32" x2="593.57" y2="962.08" class="up-wick"/>
<rect x="591.15" y="955.37" width="4.83" height="6.54" class="up-body"/>
<line x1="600.99" y1="961.22" x2="600.99" y2="965.21" class="down-wick"/>
<rect x="598.58" y="961.57" width="4.83" height="1.00" class="down-body"/>
<line x1="608.42" y1="963.50" x2="608.42" y2="969.26" class="down-wick"/>
<rect x="606.01" y="967.01" width="4.83" height="2.25" class="down-body"/>
<line x1="615.85" y1="957.78" x2="615.85" y2="964.95" class="down-wick"/>
<rect x="613.43" y="958.80" width="4.83" height="6.03" class="down-body"/>
<line x1="623.27" y1="958.19" x2="623.27" y2="970.15" class="down-wick"/>
<rect x="620.86" y="958.29" width="4.83" height="9.58" class="down-body"/>
<line x1="630.70" y1="955.10" x2="630.70" y2="966.96" class="up-wick"/>
<rect x="628.28" y="955.91" width="4.83" height="9.04" class="up-body"/>
<line x1="638.12" y1="959.72" x2="638.12" y2="965.48" class="down-wick"/>
<rect x="635.71" y="960.44" width="4.83" height="3.94" class="down-body"/>
<line x1="645.55" y1="958.88" x2="645.55" y2="965.62" class="down-wick"/>
<rect x="643.14" y="959.45" width="4.83" height="1.53" class="down-body"/>
<line x1="652.98" y1="959.53" x2="652.98" y2="969.24" class="up-wick"/>
<rect x="650.56" y="960.39" width="4.83" height="8.61" class="up-body"/>
<line x1="660.40" y1="961.86" x2="660.40" y2="967.60" class="down-wick"/>
<rect x="657.99" y="964.97" width="4.83" height="1.00" class="down-body"/>
<line x1="667.83" y1="951.56" x2="667.83" y2="963.31" class="up-wick"/>
<rect x="665.42" y="951.94" width="4.83" height="9.55" class="up-body"/>
<line x1="675.26" y1="955.00" x2="675.26" y2="965.48" class="down-wick"/>
<rect x="672.84" y="956.77" width="4.83" height="8.29" class="down-body"/>
<line x1="682.68" y1="976.08" x2="682.68" y2="983.24" class="down-wick"/>
<rect x="680.27" y="980.72" width="4.83" height="2.07" class="down-body"/>
<line x1="690.11" y1="974.33" x2="690.11" y2="983.86" class="up-wick"/>
<rect x="687.70" y="975.08" width="4.83" height="8.77" class="up-body"/>
<line x1="697.54" y1="971.92" x2="697.54" y2="978.17" class="up-wick"/>
<rect x="695.12" y="972.27" width="4.83" height="4.51" class="up-body"/>
<line x1="704.96" y1="971.03" x2="704.96" y2="980.88" class="up-wick"/>
<rect x="702.55" y="972.78" width="4.83" height="4.96" class="up-body"/>
<line x1="712.39" y1="956.85" x2="712.39" y2="978.14" class="up-wick"/>
<rect x="709.98" y="956.85" width="4.83" height="18.72" class="up-body"/>
<line x1="719.82" y1="944.00" x2="719.82" y2="954.16" class="up-wick"/>
<rect x="717.40" y="948.45" width="4.83" height="1.05" class="up-body"/>
<line x1="727.24" y1="948.05" x2="727.24" y2="960.95" class="down-wick"/>
<rect x="724.83" y="948.64" width="4.83" height="12.28" class="down-body"/>
<line x1="734.67" y1="951.16" x2="734.67" y2="957.81" class="down-wick"/>
<rect x="732.26" y="951.86" width="4.83" height="5.44" class="down-body"/>
<line x1="742.10" y1="959.72" x2="742.10" y2="966.64" class="down-wick"/>
<rect x="739.68" y="960.63" width="4.83" height="3.43" class="down-body"/>
<line x1="749.52" y1="960.41" x2="749.52" y2="964.52" class="down-wick"/>
<rect x="747.11" y="963.18" width="4.83" height="1.00" class="down-body"/>
<line x1="756.95" y1="967.20" x2="756.95" y2="972.05" class="down-wick"/>
<rect x="754.53" y="970.98" width="4.83" height="1.00" class="down-body"/>
<line x1="764.38" y1="966.64" x2="764.38" y2="972.62" class="up-wick"/>
<rect x="761.96" y="967.39" width="4.83" height="2.79" class="up-body"/>
<line x1="771.80" y1="968.70" x2="771.80" y2="983.16" class="down-wick"/>
<rect x="769.39" y="969.00" width="4.83" height="12.58" class="down-body"/>
<line x1="779.23" y1="979.48" x2="779.23" y2="989.09" class="down-wick"/>
<rect x="776.81" y="980.64" width="4.83" height="4.88" class="down-body"/>
<line x1="786.65" y1="978.60" x2="786.65" y2="986.27" class="down-wick"/>
<rect x="784.24" y="979.35" width="4.83" height="6.92" class="down-body"/>
<line x1="794.08" y1="985.12" x2="794.08" y2="990.32" class="up-wick"/>
<rect x="791.67" y="986.75" width="4.83" height="3.54" class="up-body"/>
<line x1="801.51" y1="980.34" x2="801.51" y2="990.80" class="up-wick"/>
<rect x="799.09" y="981.15" width="4.83" height="6.33" class="up-body"/>
<line x1="808.93" y1="974.92" x2="808.93" y2="983.86" class="up-wick"/>
<rect x="806.52" y="975.86" width="4.83" height="7.99" class="up-body"/>
<line x1="816.36" y1="971.73" x2="816.36" y2="974.71" class="down-wick"/>
<rect x="813.95" y="971.76" width="4.83" height="1.00" class="down-body"/>
<line x1="823.79" y1="965.70" x2="823.79" y2="972.89" class="up-wick"/>
<rect x="821.37" y="966.53" width="4.83" height="6.30" class="up-body"/>
<line x1="831.21" y1="958.51" x2="831.21" y2="965.46" class="down-wick"/>
<rect x="828.80" y="963.23" width="4.83" height="1.23" class="down-body"/>
<line x1="838.64" y1="963.90" x2="838.64" y2="975.14" class="down-wick"/>
<rect x="836.23" y="963.90" width="4.83" height="10.97" class="down-body"/>
<line x1="846.07" y1="975.57" x2="846.07" y2="979.00" class="down-wick"/>
<rect x="843.65" y="976.80" width="4.83" height="1.23" class="down-body"/>
<line x1="853.49" y1="975.59" x2="853.49" y2="980.18" class="down-wick"/>
<rect x="851.08" y="976.40" width="4.83" height="3.38" class="down-body"/>
<line x1="860.92" y1="981.12" x2="860.92" y2="994.88" class="down-wick"/>
<rect x="858.51" y="984.69" width="4.83" height="7.46" class="down-body"/>
<line x1="868.35" y1="985.95" x2="868.35" y2="991.93" class="down-wick"/>
<rect x="865.93" y="989.27" width="4.83" height="1.00" class="down-body"/>
<line x1="875.77" y1="991.88" x2="875.77" y2="1003.01" class="up-wick"/>
<rect x="873.36" y="997.64" width="4.83" height="5.36" class="up-body"/>
<line x1="883.20" y1="990.02" x2="883.20" y2="997.59" class="up-wick"/>
<rect x="880.78" y="991.82" width="4.83" height="3.92" class="up-body"/>
<line x1="890.62" y1="990.75" x2="890.62" y2="996.22" class="down-wick"/>
<rect x="888.21" y="993.89" width="4.83" height="1.74" class="down-body"/>
<line x1="898.05" y1="988.68" x2="898.05" y2="995.50" class="up-wick"/>
<rect x="895.64" y="991.66" width="4.83" height="2.17" class="up-body"/>
<line x1="905.48" y1="987.13" x2="905.48" y2="992.79" class="down-wick"/>
<rect x="903.06" y="989.86" width="4.83" height="2.15" class="down-body"/>
<line x1="912.90" y1="989.03" x2="912.90" y2="993.89" class="down-wick"/>
<rect x="910.49" y="989.03" width="4.83" height="2.15" class="down-body"/>
<line x1="920.33" y1="982.76" x2="920.33" y2="987.66" class="up-wick"/>
<rect x="917.92" y="984.15" width="4.83" height="2.39" class="up-body"/>
<line x1="927.76" y1="983.21" x2="927.76" y2="989.70" class="down-wick"/>
<rect x="925.34" y="985.79" width="4.83" height="3.41" class="down-body"/>
<line x1="935.18" y1="983.94" x2="935.18" y2="989.89" class="up-wick"/>
<rect x="932.77" y="985.28" width="4.83" height="4.43" class="up-body"/>
<line x1="942.61" y1="984.34" x2="942.61" y2="989.06" class="down-wick"/>
<rect x="940.20" y="985.79" width="4.83" height="3.27" class="down-body"/>
<line x1="950.04" y1="977.42" x2="950.04" y2="986.56" class="up-wick"/>
<rect x="947.62" y="980.07" width="4.83" height="6.46" class="up-body"/>
<line x1="957.46" y1="981.74" x2="957.46" y2="983.48" class="down-wick"/>
<rect x="955.05" y="981.74" width="4.83" height="1.23" class="down-body"/>
<line x1="964.89" y1="981.71" x2="964.89" y2="987.96" class="down-wick"/>
<rect x="962.48" y="982.09" width="4.83" height="3.43" class="down-body"/>
<line x1="972.32" y1="983.37" x2="972.32" y2="993.94" class="up-wick"/>
<rect x="969.90" y="985.81" width="4.83" height="7.43" class="up-body"/>
<line x1="979.74" y1="979.16" x2="979.74" y2="983.67" class="down-wick"/>
<rect x="977.33" y="981.36" width="4.83" height="2.25" class="down-body"/>
<line x1="987.17" y1="980.40" x2="987.17" y2="987.34" class="down-wick"/>
<rect x="984.76" y="981.90" width="4.83" height="3.81" class="down-body"/>
<line x1="994.60" y1="988.92" x2="994.60" y2="991.77" class="down-wick"/>
<rect x="992.18" y="990.56" width="4.83" height="1.00" class="down-body"/>
<line x1="1002.02" y1="989.01" x2="1002.02" y2="996.27" class="up-wick"/>
<rect x="999.61" y="991.58" width="4.83" height="4.64" class="up-body"/>
<line x1="1009.45" y1="988.95" x2="1009.45" y2="997.37" class="down-wick"/>
<rect x="1007.03" y="990.78" width="4.83" height="3.73" class="down-body"/>
<line x1="1016.88" y1="995.12" x2="1016.88" y2="1003.03" class="down-wick"/>
<rect x="1014.46" y="998.50" width="4.83" height="3.73" class="down-body"/>
<line x1="1024.30" y1="1010.95" x2="1024.30" y2="1024.54" class="down-wick"/>
<rect x="1021.89" y="1010.97" width="4.83" height="4.61" class="down-body"/>
<line x1="1031.73" y1="1010.30" x2="1031.73" y2="1014.43" class="up-wick"/>
<rect x="1029.31" y="1012.15" width="4.83" height="1.02" class="up-body"/>
<line x1="1039.15" y1="991.58" x2="1039.15" y2="1009.95" class="up-wick"/>
<rect x="1036.74" y="991.58" width="4.83" height="14.14" class="up-body"/>
<line x1="1046.58" y1="995.79" x2="1046.58" y2="1000.81" class="down-wick"/>
<rect x="1044.17" y="997.21" width="4.83" height="3.27" class="down-body"/>
<line x1="1054.01" y1="1005.77" x2="1054.01" y2="1014.89" class="down-wick"/>
<rect x="1051.59" y="1007.78" width="4.83" height="6.28" class="down-body"/>
<line x1="1061.43" y1="1008.61" x2="1061.43" y2="1014.62" class="down-wick"/>
<rect x="1059.02" y="1012.29" width="4.83" height="1.98" class="down-body"/>
<line x1="1068.86" y1="1007.16" x2="1068.86" y2="1016.50" class="down-wick"/>
<rect x="1066.45" y="1007.16" width="4.83" height="8.26" class="down-body"/>
<line x1="1076.29" y1="1017.54" x2="1076.29" y2="1024.76" class="down-wick"/>
<rect x="1073.87" y="1018.67" width="4.83" height="4.80" class="down-body"/>
<line x1="70" y1="925.76" x2="1080" y2="925.76" class="number-line"/>
<text x="1076" y="921.76" text-anchor="end" class="level-label">round 5010.00</text>
<line x1="70" y1="925.76" x2="1080" y2="925.76" class="entry-line"/>
<text x="1076" y="921.76" text-anchor="end" class="level-label">entry level 5010.00</text>
<text x="70" y="1056" class="axis-label">2026-03-16 07:30:00+00:00 to 2026-03-16 12:00:00+00:00</text>
<text x="1080" y="1056" text-anchor="end" class="axis-label">4968.15 - 5039.74</text>
</svg>