<svg xmlns="http://www.w3.org/2000/svg" width="1120" height="1054" viewBox="0 0 1120 1054">
<style>
text{font-family:Arial,Helvetica,sans-serif}.title{font-size:21px;font-weight:700;fill:#1f2937}.subtitle{font-size:12px;fill:#4b5563}.panel-title{font-size:15px;font-weight:700;fill:#111827}.muted{font-size:13px;fill:#6b7280}.plot-bg{fill:#f8fafc;stroke:#cbd5e1;stroke-width:1}.up-body{fill:#15803d;stroke:#14532d;stroke-width:.8}.down-body{fill:#b91c1c;stroke:#7f1d1d;stroke-width:.8}.up-wick{stroke:#14532d;stroke-width:1}.down-wick{stroke:#7f1d1d;stroke-width:1}.sweep-line{stroke:#7c3aed;stroke-width:1.6;stroke-dasharray:6 4}.number-line{stroke:#0f766e;stroke-width:1.4;stroke-dasharray:3 4}.entry-line{stroke:#2563eb;stroke-width:1.4}.sl-line{stroke:#dc2626;stroke-width:1.4}.tp-line{stroke:#16a34a;stroke-width:1.4}.level-label,.axis-label{font-size:11px;fill:#374151}
</style>
<text x="28" y="28" class="title">Adelin v2 visual review sample sample_104</text>
<text x="28" y="48" class="subtitle">Candidate windows are for visual labeling only and are not trade signals.</text>
<text x="560" y="48" class="subtitle" text-anchor="middle">NUMBER_THEORY_LEVEL_NEAR | ROUND_LEVEL_ENTRY_METADATA_AVAILABLE</text>
<text x="70" y="82" class="panel-title">H1 liquidity context</text>
<rect x="70" y="96" width="1010" height="192" class="plot-bg"/>
<line x1="79.18" y1="169.29" x2="79.18" y2="183.10" class="down-wick"/>
<rect x="75.18" y="171.14" width="8.00" height="6.85" class="down-body"/>
<line x1="97.55" y1="176.31" x2="97.55" y2="184.15" class="down-wick"/>
<rect x="93.55" y="177.99" width="8.00" height="4.04" class="down-body"/>
<line x1="115.91" y1="179.83" x2="115.91" y2="191.86" class="down-wick"/>
<rect x="111.91" y="182.03" width="8.00" height="1.00" class="down-body"/>
<line x1="134.27" y1="181.92" x2="134.27" y2="199.48" class="up-wick"/>
<rect x="130.27" y="182.67" width="8.00" height="1.00" class="up-body"/>
<line x1="152.64" y1="178.09" x2="152.64" y2="200.71" class="down-wick"/>
<rect x="148.64" y="182.67" width="8.00" height="5.92" class="down-body"/>
<line x1="171.00" y1="179.31" x2="171.00" y2="194.69" class="up-wick"/>
<rect x="167.00" y="181.11" width="8.00" height="7.48" class="up-body"/>
<line x1="189.36" y1="180.79" x2="189.36" y2="189.20" class="down-wick"/>
<rect x="185.36" y="181.06" width="8.00" height="7.48" class="down-body"/>
<line x1="207.73" y1="182.60" x2="207.73" y2="199.73" class="down-wick"/>
<rect x="203.73" y="188.53" width="8.00" height="5.67" class="down-body"/>
<line x1="226.09" y1="192.83" x2="226.09" y2="206.84" class="down-wick"/>
<rect x="222.09" y="194.20" width="8.00" height="8.57" class="down-body"/>
<line x1="244.45" y1="198.85" x2="244.45" y2="211.56" class="down-wick"/>
<rect x="240.45" y="202.76" width="8.00" height="7.95" class="down-body"/>
<line x1="262.82" y1="208.70" x2="262.82" y2="214.93" class="down-wick"/>
<rect x="258.82" y="210.71" width="8.00" height="1.60" class="down-body"/>
<line x1="281.18" y1="206.14" x2="281.18" y2="216.16" class="down-wick"/>
<rect x="277.18" y="212.37" width="8.00" height="1.25" class="down-body"/>
<line x1="299.55" y1="213.27" x2="299.55" y2="253.16" class="down-wick"/>
<rect x="295.55" y="213.62" width="8.00" height="10.48" class="down-body"/>
<line x1="317.91" y1="217.42" x2="317.91" y2="233.32" class="down-wick"/>
<rect x="313.91" y="224.10" width="8.00" height="1.66" class="down-body"/>
<line x1="336.27" y1="210.42" x2="336.27" y2="226.91" class="up-wick"/>
<rect x="332.27" y="219.44" width="8.00" height="6.32" class="up-body"/>
<line x1="354.64" y1="213.45" x2="354.64" y2="229.94" class="down-wick"/>
<rect x="350.64" y="219.44" width="8.00" height="3.51" class="down-body"/>
<line x1="373.00" y1="207.17" x2="373.00" y2="231.56" class="down-wick"/>
<rect x="369.00" y="222.94" width="8.00" height="2.11" class="down-body"/>
<line x1="391.36" y1="221.29" x2="391.36" y2="265.26" class="down-wick"/>
<rect x="387.36" y="225.05" width="8.00" height="32.79" class="down-body"/>
<line x1="409.73" y1="253.49" x2="409.73" y2="274.76" class="down-wick"/>
<rect x="405.73" y="257.85" width="8.00" height="8.91" class="down-body"/>
<line x1="428.09" y1="249.54" x2="428.09" y2="266.78" class="up-wick"/>
<rect x="424.09" y="257.16" width="8.00" height="9.60" class="up-body"/>
<line x1="446.45" y1="254.68" x2="446.45" y2="267.47" class="down-wick"/>
<rect x="442.45" y="257.16" width="8.00" height="4.99" class="down-body"/>
<line x1="464.82" y1="253.27" x2="464.82" y2="266.25" class="up-wick"/>
<rect x="460.82" y="260.94" width="8.00" height="1.22" class="up-body"/>
<line x1="483.18" y1="255.59" x2="483.18" y2="262.69" class="down-wick"/>
<rect x="479.18" y="256.27" width="8.00" height="4.89" class="down-body"/>
<line x1="501.55" y1="257.79" x2="501.55" y2="262.24" class="up-wick"/>
<rect x="497.55" y="259.95" width="8.00" height="1.22" class="up-body"/>
<line x1="519.91" y1="250.51" x2="519.91" y2="264.39" class="up-wick"/>
<rect x="515.91" y="250.90" width="8.00" height="9.05" class="up-body"/>
<line x1="538.27" y1="240.99" x2="538.27" y2="254.65" class="up-wick"/>
<rect x="534.27" y="241.98" width="8.00" height="9.02" class="up-body"/>
<line x1="556.64" y1="237.22" x2="556.64" y2="247.11" class="down-wick"/>
<rect x="552.64" y="241.98" width="8.00" height="1.52" class="down-body"/>
<line x1="575.00" y1="240.47" x2="575.00" y2="249.00" class="down-wick"/>
<rect x="571.00" y="243.50" width="8.00" height="3.68" class="down-body"/>
<line x1="593.36" y1="245.50" x2="593.36" y2="252.58" class="down-wick"/>
<rect x="589.36" y="247.18" width="8.00" height="1.00" class="down-body"/>
<line x1="611.73" y1="233.05" x2="611.73" y2="249.73" class="up-wick"/>
<rect x="607.73" y="238.06" width="8.00" height="9.81" class="up-body"/>
<line x1="630.09" y1="232.85" x2="630.09" y2="247.89" class="up-wick"/>
<rect x="626.09" y="236.07" width="8.00" height="1.98" class="up-body"/>
<line x1="648.45" y1="227.67" x2="648.45" y2="239.98" class="down-wick"/>
<rect x="644.45" y="236.07" width="8.00" height="2.11" class="down-body"/>
<line x1="666.82" y1="226.54" x2="666.82" y2="238.24" class="up-wick"/>
<rect x="662.82" y="227.48" width="8.00" height="10.69" class="up-body"/>
<line x1="685.18" y1="225.92" x2="685.18" y2="233.66" class="down-wick"/>
<rect x="681.18" y="227.48" width="8.00" height="1.86" class="down-body"/>
<line x1="703.55" y1="228.83" x2="703.55" y2="242.53" class="down-wick"/>
<rect x="699.55" y="229.37" width="8.00" height="10.27" class="down-body"/>
<line x1="721.91" y1="222.21" x2="721.91" y2="242.86" class="up-wick"/>
<rect x="717.91" y="223.99" width="8.00" height="15.64" class="up-body"/>
<line x1="740.27" y1="214.28" x2="740.27" y2="231.07" class="up-wick"/>
<rect x="736.27" y="222.55" width="8.00" height="1.43" class="up-body"/>
<line x1="758.64" y1="205.65" x2="758.64" y2="222.77" class="up-wick"/>
<rect x="754.64" y="210.34" width="8.00" height="12.25" class="up-body"/>
<line x1="777.00" y1="204.29" x2="777.00" y2="221.46" class="up-wick"/>
<rect x="773.00" y="207.90" width="8.00" height="2.44" class="up-body"/>
<line x1="795.36" y1="206.66" x2="795.36" y2="219.45" class="down-wick"/>
<rect x="791.36" y="207.90" width="8.00" height="11.40" class="down-body"/>
<line x1="813.73" y1="218.88" x2="813.73" y2="231.48" class="down-wick"/>
<rect x="809.73" y="219.30" width="8.00" height="6.02" class="down-body"/>
<line x1="832.09" y1="224.03" x2="832.09" y2="231.90" class="down-wick"/>
<rect x="828.09" y="225.31" width="8.00" height="1.13" class="down-body"/>
<line x1="850.45" y1="221.55" x2="850.45" y2="228.21" class="up-wick"/>
<rect x="846.45" y="225.41" width="8.00" height="1.03" class="up-body"/>
<line x1="868.82" y1="225.01" x2="868.82" y2="233.19" class="down-wick"/>
<rect x="864.82" y="225.41" width="8.00" height="5.19" class="down-body"/>
<line x1="887.18" y1="211.98" x2="887.18" y2="237.67" class="up-wick"/>
<rect x="883.18" y="215.30" width="8.00" height="13.92" class="up-body"/>
<line x1="905.55" y1="196.95" x2="905.55" y2="218.45" class="up-wick"/>
<rect x="901.55" y="198.38" width="8.00" height="16.93" class="up-body"/>
<line x1="923.91" y1="176.98" x2="923.91" y2="203.17" class="up-wick"/>
<rect x="919.91" y="178.00" width="8.00" height="20.36" class="up-body"/>
<line x1="942.27" y1="169.80" x2="942.27" y2="185.65" class="up-wick"/>
<rect x="938.27" y="172.06" width="8.00" height="6.09" class="up-body"/>
<line x1="960.64" y1="159.11" x2="960.64" y2="172.65" class="up-wick"/>
<rect x="956.64" y="160.03" width="8.00" height="12.03" class="up-body"/>
<line x1="979.00" y1="150.73" x2="979.00" y2="161.76" class="up-wick"/>
<rect x="975.00" y="157.62" width="8.00" height="2.41" class="up-body"/>
<line x1="997.36" y1="149.35" x2="997.36" y2="157.76" class="up-wick"/>
<rect x="993.36" y="153.21" width="8.00" height="4.41" class="up-body"/>
<line x1="1015.73" y1="140.94" x2="1015.73" y2="156.84" class="up-wick"/>
<rect x="1011.73" y="141.78" width="8.00" height="11.42" class="up-body"/>
<line x1="1034.09" y1="136.35" x2="1034.09" y2="146.47" class="up-wick"/>
<rect x="1030.09" y="136.51" width="8.00" height="5.27" class="up-body"/>
<line x1="1052.45" y1="126.25" x2="1052.45" y2="146.24" class="up-wick"/>
<rect x="1048.45" y="126.44" width="8.00" height="10.05" class="up-body"/>
<line x1="1070.82" y1="109.24" x2="1070.82" y2="134.63" class="up-wick"/>
<rect x="1066.82" y="111.29" width="8.00" height="15.23" class="up-body"/>
<line x1="70" y1="234.50" x2="1080" y2="234.50" class="number-line"/>
<text x="1076" y="230.50" text-anchor="end" class="level-label">round 4550.00</text>
<line x1="70" y1="234.50" x2="1080" y2="234.50" class="entry-line"/>
<text x="1076" y="230.50" text-anchor="end" class="level-label">entry level 4550.00</text>
<text x="70" y="306" class="axis-label">2026-05-04 01:00:00+00:00 to 2026-05-06 11:00:00+00:00</text>
<text x="1080" y="306" text-anchor="end" class="axis-label">4484.86 - 4718.63</text>
<text x="70" y="332" class="panel-title">M15 liquidity / reaction context</text>
<rect x="70" y="346" width="1010" height="192" class="plot-bg"/>
<line x1="77.54" y1="500.51" x2="77.54" y2="515.28" class="down-wick"/>
<rect x="73.54" y="502.39" width="8.00" height="5.54" class="down-body"/>
<line x1="92.61" y1="504.22" x2="92.61" y2="511.80" class="down-wick"/>
<rect x="88.61" y="507.93" width="8.00" height="2.92" class="down-body"/>
<line x1="107.69" y1="505.49" x2="107.69" y2="512.75" class="down-wick"/>
<rect x="103.69" y="510.87" width="8.00" height="1.24" class="down-body"/>
<line x1="122.76" y1="511.48" x2="122.76" y2="520.05" class="down-wick"/>
<rect x="118.76" y="512.14" width="8.00" height="3.73" class="down-body"/>
<line x1="137.84" y1="507.70" x2="137.84" y2="518.83" class="up-wick"/>
<rect x="133.84" y="509.24" width="8.00" height="6.63" class="up-body"/>
<line x1="152.91" y1="506.57" x2="152.91" y2="511.66" class="up-wick"/>
<rect x="148.91" y="507.68" width="8.00" height="1.56" class="up-body"/>
<line x1="167.99" y1="507.21" x2="167.99" y2="514.31" class="down-wick"/>
<rect x="163.99" y="507.68" width="8.00" height="5.93" class="down-body"/>
<line x1="183.06" y1="508.63" x2="183.06" y2="516.82" class="up-wick"/>
<rect x="179.06" y="512.52" width="8.00" height="1.09" class="up-body"/>
<line x1="198.13" y1="490.92" x2="198.13" y2="515.46" class="up-wick"/>
<rect x="194.13" y="492.39" width="8.00" height="20.13" class="up-body"/>
<line x1="213.21" y1="492.42" x2="213.21" y2="524.76" class="down-wick"/>
<rect x="209.21" y="492.42" width="8.00" height="24.52" class="down-body"/>
<line x1="228.28" y1="500.60" x2="228.28" y2="519.24" class="up-wick"/>
<rect x="224.28" y="501.44" width="8.00" height="15.54" class="up-body"/>
<line x1="243.36" y1="486.53" x2="243.36" y2="501.44" class="up-wick"/>
<rect x="239.36" y="487.60" width="8.00" height="13.84" class="up-body"/>
<line x1="258.43" y1="466.18" x2="258.43" y2="497.93" class="up-wick"/>
<rect x="254.43" y="467.58" width="8.00" height="20.29" class="up-body"/>
<line x1="273.51" y1="464.71" x2="273.51" y2="475.77" class="down-wick"/>
<rect x="269.51" y="467.58" width="8.00" height="2.42" class="down-body"/>
<line x1="288.58" y1="460.32" x2="288.58" y2="478.26" class="down-wick"/>
<rect x="284.58" y="470.00" width="8.00" height="1.95" class="down-body"/>
<line x1="303.66" y1="462.18" x2="303.66" y2="473.48" class="up-wick"/>
<rect x="299.66" y="463.03" width="8.00" height="8.91" class="up-body"/>
<line x1="318.73" y1="459.21" x2="318.73" y2="470.61" class="down-wick"/>
<rect x="314.73" y="463.03" width="8.00" height="5.34" class="down-body"/>
<line x1="333.81" y1="461.09" x2="333.81" y2="477.17" class="up-wick"/>
<rect x="329.81" y="461.25" width="8.00" height="7.17" class="up-body"/>
<line x1="348.88" y1="451.88" x2="348.88" y2="464.73" class="up-wick"/>
<rect x="344.88" y="455.10" width="8.00" height="6.15" class="up-body"/>
<line x1="363.96" y1="449.92" x2="363.96" y2="467.69" class="down-wick"/>
<rect x="359.96" y="455.07" width="8.00" height="12.15" class="down-body"/>
<line x1="379.03" y1="460.23" x2="379.03" y2="470.68" class="up-wick"/>
<rect x="375.03" y="460.41" width="8.00" height="6.81" class="up-body"/>
<line x1="394.10" y1="458.87" x2="394.10" y2="471.31" class="down-wick"/>
<rect x="390.10" y="460.46" width="8.00" height="9.23" class="down-body"/>
<line x1="409.18" y1="466.83" x2="409.18" y2="475.11" class="down-wick"/>
<rect x="405.18" y="469.68" width="8.00" height="4.21" class="down-body"/>
<line x1="424.25" y1="471.58" x2="424.25" y2="482.37" class="down-wick"/>
<rect x="420.25" y="473.91" width="8.00" height="3.44" class="down-body"/>
<line x1="439.33" y1="474.66" x2="439.33" y2="481.78" class="down-wick"/>
<rect x="435.33" y="477.35" width="8.00" height="3.71" class="down-body"/>
<line x1="454.40" y1="479.00" x2="454.40" y2="489.05" class="down-wick"/>
<rect x="450.40" y="481.02" width="8.00" height="7.80" class="down-body"/>
<line x1="469.48" y1="479.21" x2="469.48" y2="492.21" class="up-wick"/>
<rect x="465.48" y="483.89" width="8.00" height="4.95" class="up-body"/>
<line x1="484.55" y1="472.72" x2="484.55" y2="484.68" class="up-wick"/>
<rect x="480.55" y="479.30" width="8.00" height="4.59" class="up-body"/>
<line x1="499.63" y1="452.65" x2="499.63" y2="484.36" class="up-wick"/>
<rect x="495.63" y="464.17" width="8.00" height="15.09" class="up-body"/>
<line x1="514.70" y1="463.87" x2="514.70" y2="474.80" class="down-wick"/>
<rect x="510.70" y="464.17" width="8.00" height="1.00" class="down-body"/>
<line x1="529.78" y1="438.45" x2="529.78" y2="465.36" class="up-wick"/>
<rect x="525.78" y="451.23" width="8.00" height="13.75" class="up-body"/>
<line x1="544.85" y1="444.78" x2="544.85" y2="456.86" class="down-wick"/>
<rect x="540.85" y="451.21" width="8.00" height="1.04" class="down-body"/>
<line x1="559.93" y1="437.88" x2="559.93" y2="461.20" class="down-wick"/>
<rect x="555.93" y="452.20" width="8.00" height="4.64" class="down-body"/>
<line x1="575.00" y1="454.10" x2="575.00" y2="479.30" class="down-wick"/>
<rect x="571.00" y="456.84" width="8.00" height="15.13" class="down-body"/>
<line x1="590.07" y1="443.56" x2="590.07" y2="473.42" class="up-wick"/>
<rect x="586.07" y="450.80" width="8.00" height="21.17" class="up-body"/>
<line x1="605.15" y1="440.24" x2="605.15" y2="452.61" class="up-wick"/>
<rect x="601.15" y="446.75" width="8.00" height="4.05" class="up-body"/>
<line x1="620.22" y1="430.71" x2="620.22" y2="448.08" class="up-wick"/>
<rect x="616.22" y="433.16" width="8.00" height="13.59" class="up-body"/>
<line x1="635.30" y1="429.72" x2="635.30" y2="445.96" class="down-wick"/>
<rect x="631.30" y="433.16" width="8.00" height="11.74" class="down-body"/>
<line x1="650.37" y1="423.63" x2="650.37" y2="444.90" class="up-wick"/>
<rect x="646.37" y="439.65" width="8.00" height="5.25" class="up-body"/>
<line x1="665.45" y1="438.20" x2="665.45" y2="457.54" class="down-wick"/>
<rect x="661.45" y="439.65" width="8.00" height="12.91" class="down-body"/>
<line x1="680.52" y1="434.83" x2="680.52" y2="452.72" class="up-wick"/>
<rect x="676.52" y="439.87" width="8.00" height="12.69" class="up-body"/>
<line x1="695.60" y1="431.91" x2="695.60" y2="444.60" class="up-wick"/>
<rect x="691.60" y="439.51" width="8.00" height="1.00" class="up-body"/>
<line x1="710.67" y1="435.31" x2="710.67" y2="447.13" class="down-wick"/>
<rect x="706.67" y="439.51" width="8.00" height="3.23" class="down-body"/>
<line x1="725.75" y1="420.51" x2="725.75" y2="446.27" class="up-wick"/>
<rect x="721.75" y="423.11" width="8.00" height="19.59" class="up-body"/>
<line x1="740.82" y1="418.79" x2="740.82" y2="434.08" class="down-wick"/>
<rect x="736.82" y="423.11" width="8.00" height="1.72" class="down-body"/>
<line x1="755.90" y1="424.45" x2="755.90" y2="437.39" class="down-wick"/>
<rect x="751.90" y="424.83" width="8.00" height="12.46" class="down-body"/>
<line x1="770.97" y1="423.48" x2="770.97" y2="440.12" class="up-wick"/>
<rect x="766.97" y="429.94" width="8.00" height="7.35" class="up-body"/>
<line x1="786.04" y1="425.67" x2="786.04" y2="436.10" class="up-wick"/>
<rect x="782.04" y="428.25" width="8.00" height="1.70" class="up-body"/>
<line x1="801.12" y1="426.82" x2="801.12" y2="440.91" class="down-wick"/>
<rect x="797.12" y="428.29" width="8.00" height="7.01" class="down-body"/>
<line x1="816.19" y1="430.71" x2="816.19" y2="449.44" class="down-wick"/>
<rect x="812.19" y="435.28" width="8.00" height="11.87" class="down-body"/>
<line x1="831.27" y1="432.79" x2="831.27" y2="455.21" class="down-wick"/>
<rect x="827.27" y="447.16" width="8.00" height="6.29" class="down-body"/>
<line x1="846.34" y1="451.91" x2="846.34" y2="464.55" class="down-wick"/>
<rect x="842.34" y="453.35" width="8.00" height="3.21" class="down-body"/>
<line x1="861.42" y1="435.37" x2="861.42" y2="465.45" class="up-wick"/>
<rect x="857.42" y="436.30" width="8.00" height="20.24" class="up-body"/>
<line x1="876.49" y1="424.86" x2="876.49" y2="442.79" class="up-wick"/>
<rect x="872.49" y="428.66" width="8.00" height="7.64" class="up-body"/>
<line x1="891.57" y1="408.86" x2="891.57" y2="430.94" class="up-wick"/>
<rect x="887.57" y="412.08" width="8.00" height="16.58" class="up-body"/>
<line x1="906.64" y1="408.59" x2="906.64" y2="421.67" class="down-wick"/>
<rect x="902.64" y="412.08" width="8.00" height="1.40" class="down-body"/>
<line x1="921.72" y1="404.27" x2="921.72" y2="433.00" class="up-wick"/>
<rect x="917.72" y="408.55" width="8.00" height="4.91" class="up-body"/>
<line x1="936.79" y1="387.45" x2="936.79" y2="417.17" class="up-wick"/>
<rect x="932.79" y="388.60" width="8.00" height="19.95" class="up-body"/>
<line x1="951.87" y1="386.74" x2="951.87" y2="404.64" class="down-wick"/>
<rect x="947.87" y="388.49" width="8.00" height="15.20" class="down-body"/>
<line x1="966.94" y1="400.32" x2="966.94" y2="416.01" class="down-wick"/>
<rect x="962.94" y="403.69" width="8.00" height="5.84" class="down-body"/>
<line x1="982.01" y1="372.22" x2="982.01" y2="410.13" class="up-wick"/>
<rect x="978.01" y="377.61" width="8.00" height="32.00" class="up-body"/>
<line x1="997.09" y1="363.00" x2="997.09" y2="383.15" class="down-wick"/>
<rect x="993.09" y="377.45" width="8.00" height="4.18" class="down-body"/>
<line x1="1012.16" y1="370.53" x2="1012.16" y2="393.48" class="down-wick"/>
<rect x="1008.16" y="381.63" width="8.00" height="6.56" class="down-body"/>
<line x1="1027.24" y1="367.61" x2="1027.24" y2="390.75" class="up-wick"/>
<rect x="1023.24" y="375.89" width="8.00" height="12.30" class="up-body"/>
<line x1="1042.31" y1="364.83" x2="1042.31" y2="395.48" class="down-wick"/>
<rect x="1038.31" y="375.89" width="8.00" height="13.10" class="down-body"/>
<line x1="1057.39" y1="359.24" x2="1057.39" y2="406.51" class="up-wick"/>
<rect x="1053.39" y="365.30" width="8.00" height="23.52" class="up-body"/>
<line x1="1072.46" y1="361.64" x2="1072.46" y2="380.07" class="down-wick"/>
<rect x="1068.46" y="365.30" width="8.00" height="2.58" class="down-body"/>
<line x1="70" y1="442.43" x2="1080" y2="442.43" class="number-line"/>
<text x="1076" y="438.43" text-anchor="end" class="level-label">round 4550.00</text>
<line x1="70" y1="442.43" x2="1080" y2="442.43" class="entry-line"/>
<text x="1076" y="438.43" text-anchor="end" class="level-label">entry level 4550.00</text>
<text x="70" y="556" class="axis-label">2026-05-05 01:00:00+00:00 to 2026-05-05 17:30:00+00:00</text>
<text x="1080" y="556" text-anchor="end" class="axis-label">4507.75 - 4592.63</text>
<text x="70" y="582" class="panel-title">M5 reaction / execution context</text>
<rect x="70" y="596" width="1010" height="192" class="plot-bg"/>
<line x1="79.18" y1="659.55" x2="79.18" y2="713.14" class="up-wick"/>
<rect x="75.18" y="669.66" width="8.00" height="38.75" class="up-body"/>
<line x1="97.55" y1="654.41" x2="97.55" y2="682.97" class="down-wick"/>
<rect x="93.55" y="669.66" width="8.00" height="4.97" class="down-body"/>
<line x1="115.91" y1="651.52" x2="115.91" y2="687.07" class="up-wick"/>
<rect x="111.91" y="660.19" width="8.00" height="14.36" class="up-body"/>
<line x1="134.27" y1="647.99" x2="134.27" y2="673.35" class="up-wick"/>
<rect x="130.27" y="653.69" width="8.00" height="6.50" class="up-body"/>
<line x1="152.64" y1="648.31" x2="152.64" y2="682.25" class="down-wick"/>
<rect x="148.64" y="653.69" width="8.00" height="28.48" class="down-body"/>
<line x1="171.00" y1="679.76" x2="171.00" y2="705.60" class="down-wick"/>
<rect x="167.00" y="682.01" width="8.00" height="19.82" class="down-body"/>
<line x1="189.36" y1="672.86" x2="189.36" y2="701.83" class="up-wick"/>
<rect x="185.36" y="673.27" width="8.00" height="28.56" class="up-body"/>
<line x1="207.73" y1="626.41" x2="207.73" y2="677.68" class="up-wick"/>
<rect x="203.73" y="656.66" width="8.00" height="16.53" class="up-body"/>
<line x1="226.09" y1="643.98" x2="226.09" y2="683.21" class="down-wick"/>
<rect x="222.09" y="656.66" width="8.00" height="26.56" class="down-body"/>
<line x1="244.45" y1="678.08" x2="244.45" y2="728.06" class="down-wick"/>
<rect x="240.45" y="683.21" width="8.00" height="44.85" class="down-body"/>
<line x1="262.82" y1="708.33" x2="262.82" y2="738.17" class="up-wick"/>
<rect x="258.82" y="726.54" width="8.00" height="1.52" class="up-body"/>
<line x1="281.18" y1="725.26" x2="281.18" y2="746.68" class="down-wick"/>
<rect x="277.18" y="727.50" width="8.00" height="1.52" class="down-body"/>
<line x1="299.55" y1="692.60" x2="299.55" y2="729.59" class="up-wick"/>
<rect x="295.55" y="693.40" width="8.00" height="35.62" class="up-body"/>
<line x1="317.91" y1="680.73" x2="317.91" y2="718.04" class="down-wick"/>
<rect x="313.91" y="693.40" width="8.00" height="17.33" class="down-body"/>
<line x1="336.27" y1="666.13" x2="336.27" y2="720.44" class="up-wick"/>
<rect x="332.27" y="684.02" width="8.00" height="26.72" class="up-body"/>
<line x1="354.64" y1="671.02" x2="354.64" y2="700.79" class="down-wick"/>
<rect x="350.64" y="684.02" width="8.00" height="2.09" class="down-body"/>
<line x1="373.00" y1="662.03" x2="373.00" y2="697.09" class="up-wick"/>
<rect x="369.00" y="677.76" width="8.00" height="8.34" class="up-body"/>
<line x1="391.36" y1="655.78" x2="391.36" y2="683.13" class="down-wick"/>
<rect x="387.36" y="677.84" width="8.00" height="4.89" class="down-body"/>
<line x1="409.73" y1="668.69" x2="409.73" y2="688.27" class="up-wick"/>
<rect x="405.73" y="680.73" width="8.00" height="2.01" class="up-body"/>
<line x1="428.09" y1="667.81" x2="428.09" y2="709.77" class="down-wick"/>
<rect x="424.09" y="680.73" width="8.00" height="11.31" class="down-body"/>
<line x1="446.45" y1="680.01" x2="446.45" y2="706.64" class="down-wick"/>
<rect x="442.45" y="692.04" width="8.00" height="2.17" class="down-body"/>
<line x1="464.82" y1="676.80" x2="464.82" y2="706.72" class="up-wick"/>
<rect x="460.82" y="678.72" width="8.00" height="15.32" class="up-body"/>
<line x1="483.18" y1="630.90" x2="483.18" y2="678.80" class="up-wick"/>
<rect x="479.18" y="635.24" width="8.00" height="43.49" class="up-body"/>
<line x1="501.55" y1="615.34" x2="501.55" y2="649.36" class="up-wick"/>
<rect x="497.55" y="624.57" width="8.00" height="10.67" class="up-body"/>
<line x1="519.91" y1="620.71" x2="519.91" y2="663.48" class="down-wick"/>
<rect x="515.91" y="624.57" width="8.00" height="26.96" class="down-body"/>
<line x1="538.27" y1="609.24" x2="538.27" y2="651.84" class="up-wick"/>
<rect x="534.27" y="619.27" width="8.00" height="32.25" class="up-body"/>
<line x1="556.64" y1="609.88" x2="556.64" y2="638.37" class="down-wick"/>
<rect x="552.64" y="619.27" width="8.00" height="11.39" class="down-body"/>
<line x1="575.00" y1="629.30" x2="575.00" y2="661.23" class="down-wick"/>
<rect x="571.00" y="630.66" width="8.00" height="28.80" class="down-body"/>
<line x1="593.36" y1="638.20" x2="593.36" y2="667.01" class="up-wick"/>
<rect x="589.36" y="653.69" width="8.00" height="5.86" class="up-body"/>
<line x1="611.73" y1="645.51" x2="611.73" y2="675.19" class="down-wick"/>
<rect x="607.73" y="653.69" width="8.00" height="21.18" class="down-body"/>
<line x1="630.09" y1="625.85" x2="630.09" y2="684.90" class="up-wick"/>
<rect x="626.09" y="664.28" width="8.00" height="10.59" class="up-body"/>
<line x1="648.45" y1="637.40" x2="648.45" y2="668.05" class="up-wick"/>
<rect x="644.45" y="651.76" width="8.00" height="12.52" class="up-body"/>
<line x1="666.82" y1="641.65" x2="666.82" y2="662.35" class="up-wick"/>
<rect x="662.82" y="648.80" width="8.00" height="3.13" class="up-body"/>
<line x1="685.18" y1="633.63" x2="685.18" y2="667.73" class="down-wick"/>
<rect x="681.18" y="648.80" width="8.00" height="12.60" class="down-body"/>
<line x1="703.55" y1="655.45" x2="703.55" y2="670.62" class="up-wick"/>
<rect x="699.55" y="659.87" width="8.00" height="1.52" class="up-body"/>
<line x1="721.91" y1="641.09" x2="721.91" y2="666.13" class="up-wick"/>
<rect x="717.91" y="642.78" width="8.00" height="17.09" class="up-body"/>
<line x1="740.27" y1="637.72" x2="740.27" y2="656.58" class="down-wick"/>
<rect x="736.27" y="642.94" width="8.00" height="3.61" class="down-body"/>
<line x1="758.64" y1="641.82" x2="758.64" y2="676.23" class="down-wick"/>
<rect x="754.64" y="646.55" width="8.00" height="28.72" class="down-body"/>
<line x1="777.00" y1="655.37" x2="777.00" y2="687.71" class="up-wick"/>
<rect x="773.00" y="667.81" width="8.00" height="7.38" class="up-body"/>
<line x1="795.36" y1="651.52" x2="795.36" y2="682.17" class="down-wick"/>
<rect x="791.36" y="667.73" width="8.00" height="4.65" class="down-body"/>
<line x1="813.73" y1="660.11" x2="813.73" y2="674.79" class="up-wick"/>
<rect x="809.73" y="670.30" width="8.00" height="2.01" class="up-body"/>
<line x1="832.09" y1="670.30" x2="832.09" y2="717.95" class="down-wick"/>
<rect x="828.09" y="670.30" width="8.00" height="39.55" class="down-body"/>
<line x1="850.45" y1="658.90" x2="850.45" y2="720.12" class="up-wick"/>
<rect x="846.45" y="665.56" width="8.00" height="44.29" class="up-body"/>
<line x1="868.82" y1="661.39" x2="868.82" y2="686.10" class="down-wick"/>
<rect x="864.82" y="665.56" width="8.00" height="20.22" class="down-body"/>
<line x1="887.18" y1="685.78" x2="887.18" y2="738.41" class="down-wick"/>
<rect x="883.18" y="685.78" width="8.00" height="46.37" class="down-body"/>
<line x1="905.55" y1="726.70" x2="905.55" y2="739.94" class="down-wick"/>
<rect x="901.55" y="731.83" width="8.00" height="5.30" class="down-body"/>
<line x1="923.91" y1="734.08" x2="923.91" y2="771.55" class="down-wick"/>
<rect x="919.91" y="737.13" width="8.00" height="28.24" class="down-body"/>
<line x1="942.27" y1="733.68" x2="942.27" y2="766.01" class="up-wick"/>
<rect x="938.27" y="743.23" width="8.00" height="22.22" class="up-body"/>
<line x1="960.64" y1="735.69" x2="960.64" y2="774.76" class="down-wick"/>
<rect x="956.64" y="743.15" width="8.00" height="3.29" class="down-body"/>
<line x1="979.00" y1="692.84" x2="979.00" y2="750.61" class="up-wick"/>
<rect x="975.00" y="693.16" width="8.00" height="52.95" class="up-body"/>
<line x1="997.36" y1="668.05" x2="997.36" y2="697.17" class="up-wick"/>
<rect x="993.36" y="671.34" width="8.00" height="21.82" class="up-body"/>
<line x1="1015.73" y1="645.19" x2="1015.73" y2="694.37" class="down-wick"/>
<rect x="1011.73" y="671.34" width="8.00" height="21.18" class="down-body"/>
<line x1="1034.09" y1="641.49" x2="1034.09" y2="693.16" class="up-wick"/>
<rect x="1030.09" y="659.07" width="8.00" height="33.46" class="up-body"/>
<line x1="1052.45" y1="630.74" x2="1052.45" y2="664.36" class="up-wick"/>
<rect x="1048.45" y="644.22" width="8.00" height="14.92" class="up-body"/>
<line x1="1070.82" y1="622.40" x2="1070.82" y2="652.33" class="up-wick"/>
<rect x="1066.82" y="636.60" width="8.00" height="7.62" class="up-body"/>
<line x1="70" y1="693.08" x2="1080" y2="693.08" class="number-line"/>
<text x="1076" y="689.08" text-anchor="end" class="level-label">round 4550.00</text>
<line x1="70" y1="693.08" x2="1080" y2="693.08" class="entry-line"/>
<text x="1076" y="689.08" text-anchor="end" class="level-label">entry level 4550.00</text>
<text x="70" y="806" class="axis-label">2026-05-05 10:00:00+00:00 to 2026-05-05 14:30:00+00:00</text>
<text x="1080" y="806" text-anchor="end" class="axis-label">4538.17 - 4562.10</text>
<text x="70" y="832" class="panel-title">M1 execution window</text>
<rect x="70" y="846" width="1010" height="192" class="plot-bg"/>
<line x1="73.71" y1="928.25" x2="73.71" y2="964.88" class="up-wick"/>
<rect x="71.30" y="936.49" width="4.83" height="23.58" class="up-body"/>
<line x1="81.14" y1="915.61" x2="81.14" y2="936.58" class="up-wick"/>
<rect x="78.73" y="915.61" width="4.83" height="20.31" class="up-body"/>
<line x1="88.57" y1="910.39" x2="88.57" y2="924.67" class="down-wick"/>
<rect x="86.15" y="920.50" width="4.83" height="1.00" class="down-body"/>
<line x1="95.99" y1="915.04" x2="95.99" y2="927.52" class="up-wick"/>
<rect x="93.58" y="920.42" width="4.83" height="4.32" class="up-body"/>
<line x1="103.42" y1="908.02" x2="103.42" y2="924.01" class="down-wick"/>
<rect x="101.01" y="911.45" width="4.83" height="12.56" class="down-body"/>
<line x1="110.85" y1="923.93" x2="110.85" y2="935.03" class="down-wick"/>
<rect x="108.43" y="925.64" width="4.83" height="7.75" class="down-body"/>
<line x1="118.27" y1="927.36" x2="118.27" y2="938.37" class="down-wick"/>
<rect x="115.86" y="928.17" width="4.83" height="1.00" class="down-body"/>
<line x1="125.70" y1="905.66" x2="125.70" y2="921.97" class="down-wick"/>
<rect x="123.28" y="905.66" width="4.83" height="5.38" class="down-body"/>
<line x1="133.12" y1="898.64" x2="133.12" y2="920.67" class="down-wick"/>
<rect x="130.71" y="911.86" width="4.83" height="6.69" class="down-body"/>
<line x1="140.55" y1="908.84" x2="140.55" y2="920.18" class="up-wick"/>
<rect x="138.14" y="910.14" width="4.83" height="8.40" class="up-body"/>
<line x1="147.98" y1="898.97" x2="147.98" y2="910.39" class="down-wick"/>
<rect x="145.56" y="904.43" width="4.83" height="5.87" class="down-body"/>
<line x1="155.40" y1="916.83" x2="155.40" y2="925.07" class="down-wick"/>
<rect x="152.99" y="917.57" width="4.83" height="6.20" class="down-body"/>
<line x1="162.83" y1="918.79" x2="162.83" y2="933.48" class="down-wick"/>
<rect x="160.42" y="920.75" width="4.83" height="12.64" class="down-body"/>
<line x1="170.26" y1="933.15" x2="170.26" y2="942.77" class="down-wick"/>
<rect x="167.84" y="934.86" width="4.83" height="2.94" class="down-body"/>
<line x1="177.68" y1="942.45" x2="177.68" y2="952.07" class="up-wick"/>
<rect x="175.27" y="947.18" width="4.83" height="2.28" class="up-body"/>
<line x1="185.11" y1="942.53" x2="185.11" y2="953.38" class="up-wick"/>
<rect x="182.70" y="946.36" width="4.83" height="7.02" class="up-body"/>
<line x1="192.54" y1="923.93" x2="192.54" y2="933.07" class="down-wick"/>
<rect x="190.12" y="930.46" width="4.83" height="1.39" class="down-body"/>
<line x1="199.96" y1="924.18" x2="199.96" y2="943.59" class="up-wick"/>
<rect x="197.55" y="924.34" width="4.83" height="15.74" class="up-body"/>
<line x1="207.39" y1="876.70" x2="207.39" y2="917.73" class="up-wick"/>
<rect x="204.98" y="891.30" width="4.83" height="16.56" class="up-body"/>
<line x1="214.82" y1="882.00" x2="214.82" y2="915.20" class="up-wick"/>
<rect x="212.40" y="888.61" width="4.83" height="26.59" class="up-body"/>
<line x1="222.24" y1="905.01" x2="222.24" y2="916.02" class="down-wick"/>
<rect x="219.83" y="907.45" width="4.83" height="2.61" class="down-body"/>
<line x1="229.67" y1="894.56" x2="229.67" y2="907.70" class="down-wick"/>
<rect x="227.26" y="898.72" width="4.83" height="5.71" class="down-body"/>
<line x1="237.10" y1="920.18" x2="237.10" y2="934.45" class="down-wick"/>
<rect x="234.68" y="924.67" width="4.83" height="9.79" class="down-body"/>
<line x1="244.52" y1="945.63" x2="244.52" y2="969.37" class="down-wick"/>
<rect x="242.11" y="948.32" width="4.83" height="21.05" class="down-body"/>
<line x1="251.95" y1="968.06" x2="251.95" y2="977.28" class="up-wick"/>
<rect x="249.53" y="973.69" width="4.83" height="1.00" class="up-body"/>
<line x1="259.38" y1="972.22" x2="259.38" y2="990.01" class="down-wick"/>
<rect x="256.96" y="980.06" width="4.83" height="9.87" class="down-body"/>
<line x1="266.80" y1="959.99" x2="266.80" y2="975.00" class="down-wick"/>
<rect x="264.39" y="967.25" width="4.83" height="4.73" class="down-body"/>
<line x1="274.23" y1="965.13" x2="274.23" y2="979.65" class="down-wick"/>
<rect x="271.81" y="967.90" width="4.83" height="10.60" class="down-body"/>
<line x1="281.65" y1="982.26" x2="281.65" y2="998.98" class="down-wick"/>
<rect x="279.24" y="988.70" width="4.83" height="7.50" class="down-body"/>
<line x1="289.08" y1="981.03" x2="289.08" y2="991.07" class="up-wick"/>
<rect x="286.67" y="981.36" width="4.83" height="1.63" class="up-body"/>
<line x1="296.51" y1="964.80" x2="296.51" y2="981.61" class="up-wick"/>
<rect x="294.09" y="972.31" width="4.83" height="8.73" class="up-body"/>
<line x1="303.93" y1="971.49" x2="303.93" y2="979.81" class="down-wick"/>
<rect x="301.52" y="976.06" width="4.83" height="1.00" class="down-body"/>
<line x1="311.36" y1="944.00" x2="311.36" y2="967.33" class="up-wick"/>
<rect x="308.95" y="944.81" width="4.83" height="17.05" class="up-body"/>
<line x1="318.79" y1="946.45" x2="318.79" y2="963.50" class="down-wick"/>
<rect x="316.37" y="946.45" width="4.83" height="8.48" class="down-body"/>
<line x1="326.21" y1="950.52" x2="326.21" y2="964.15" class="up-wick"/>
<rect x="323.80" y="950.69" width="4.83" height="10.77" class="up-body"/>
<line x1="333.64" y1="958.52" x2="333.64" y2="972.31" class="up-wick"/>
<rect x="331.23" y="958.85" width="4.83" height="3.59" class="up-body"/>
<line x1="341.07" y1="940.49" x2="341.07" y2="963.01" class="up-wick"/>
<rect x="338.65" y="941.39" width="4.83" height="19.50" class="up-body"/>
<line x1="348.49" y1="917.08" x2="348.49" y2="937.15" class="down-wick"/>
<rect x="346.08" y="920.26" width="4.83" height="15.01" class="down-body"/>
<line x1="355.92" y1="928.74" x2="355.92" y2="942.04" class="down-wick"/>
<rect x="353.51" y="931.27" width="4.83" height="9.63" class="down-body"/>
<line x1="363.35" y1="927.19" x2="363.35" y2="951.75" class="up-wick"/>
<rect x="360.93" y="927.19" width="4.83" height="24.55" class="up-body"/>
<line x1="370.77" y1="933.39" x2="370.77" y2="948.57" class="down-wick"/>
<rect x="368.36" y="937.39" width="4.83" height="2.69" class="down-body"/>
<line x1="378.20" y1="912.92" x2="378.20" y2="941.23" class="up-wick"/>
<rect x="375.78" y="923.69" width="4.83" height="17.54" class="up-body"/>
<line x1="385.62" y1="921.32" x2="385.62" y2="936.09" class="down-wick"/>
<rect x="383.21" y="922.87" width="4.83" height="6.04" class="down-body"/>
<line x1="393.05" y1="909.41" x2="393.05" y2="922.14" class="up-wick"/>
<rect x="390.64" y="917.89" width="4.83" height="1.63" class="up-body"/>
<line x1="400.48" y1="906.88" x2="400.48" y2="912.76" class="up-wick"/>
<rect x="398.06" y="910.06" width="4.83" height="1.00" class="up-body"/>
<line x1="407.90" y1="927.36" x2="407.90" y2="939.59" class="down-wick"/>
<rect x="405.49" y="933.96" width="4.83" height="1.71" class="down-body"/>
<line x1="415.33" y1="919.77" x2="415.33" y2="931.93" class="up-wick"/>
<rect x="412.92" y="920.83" width="4.83" height="9.79" class="up-body"/>
<line x1="422.76" y1="928.09" x2="422.76" y2="937.96" class="up-wick"/>
<rect x="420.34" y="931.93" width="4.83" height="3.83" class="up-body"/>
<line x1="430.18" y1="921.73" x2="430.18" y2="930.13" class="down-wick"/>
<rect x="427.77" y="923.28" width="4.83" height="2.37" class="down-body"/>
<line x1="437.61" y1="935.03" x2="437.61" y2="955.66" class="down-wick"/>
<rect x="435.20" y="935.27" width="4.83" height="20.39" class="down-body"/>
<line x1="445.04" y1="931.19" x2="445.04" y2="950.04" class="up-wick"/>
<rect x="442.62" y="939.76" width="4.83" height="3.67" class="up-body"/>
<line x1="452.46" y1="932.25" x2="452.46" y2="950.77" class="down-wick"/>
<rect x="450.05" y="936.58" width="4.83" height="10.44" class="down-body"/>
<line x1="459.89" y1="940.00" x2="459.89" y2="958.27" class="up-wick"/>
<rect x="457.48" y="945.63" width="4.83" height="4.24" class="up-body"/>
<line x1="467.32" y1="936.82" x2="467.32" y2="951.91" class="down-wick"/>
<rect x="464.90" y="943.35" width="4.83" height="7.75" class="down-body"/>
<line x1="474.74" y1="936.58" x2="474.74" y2="945.06" class="up-wick"/>
<rect x="472.33" y="936.98" width="4.83" height="1.79" class="up-body"/>
<line x1="482.17" y1="911.86" x2="482.17" y2="929.97" class="up-wick"/>
<rect x="479.76" y="913.33" width="4.83" height="16.56" class="up-body"/>
<line x1="489.60" y1="907.45" x2="489.60" y2="927.19" class="up-wick"/>
<rect x="487.18" y="909.33" width="4.83" height="10.36" class="up-body"/>
<line x1="497.02" y1="881.92" x2="497.02" y2="894.73" class="up-wick"/>
<rect x="494.61" y="885.67" width="4.83" height="4.08" class="up-body"/>
<line x1="504.45" y1="878.90" x2="504.45" y2="887.96" class="up-wick"/>
<rect x="502.03" y="880.21" width="4.83" height="6.93" class="up-body"/>
<line x1="511.88" y1="866.91" x2="511.88" y2="884.29" class="up-wick"/>
<rect x="509.46" y="869.68" width="4.83" height="12.64" class="up-body"/>
<line x1="519.30" y1="870.91" x2="519.30" y2="914.06" class="down-wick"/>
<rect x="516.89" y="874.82" width="4.83" height="27.90" class="down-body"/>
<line x1="526.73" y1="894.56" x2="526.73" y2="910.63" class="down-wick"/>
<rect x="524.31" y="894.65" width="4.83" height="10.44" class="down-body"/>
<line x1="534.15" y1="901.66" x2="534.15" y2="914.39" class="up-wick"/>
<rect x="531.74" y="902.23" width="4.83" height="3.59" class="up-body"/>
<line x1="541.58" y1="883.55" x2="541.58" y2="901.42" class="down-wick"/>
<rect x="539.17" y="884.20" width="4.83" height="7.83" class="down-body"/>
<line x1="549.01" y1="859.24" x2="549.01" y2="881.19" class="up-wick"/>
<rect x="546.59" y="871.89" width="4.83" height="8.40" class="up-body"/>
<line x1="556.43" y1="859.89" x2="556.43" y2="871.31" class="up-wick"/>
<rect x="554.02" y="866.83" width="4.83" height="2.61" class="up-body"/>
<line x1="563.86" y1="867.40" x2="563.86" y2="888.85" class="up-wick"/>
<rect x="561.45" y="869.44" width="4.83" height="18.44" class="up-body"/>
<line x1="571.29" y1="875.31" x2="571.29" y2="884.61" class="down-wick"/>
<rect x="568.87" y="875.39" width="4.83" height="5.63" class="down-body"/>
<line x1="578.71" y1="884.20" x2="578.71" y2="900.11" class="down-wick"/>
<rect x="576.30" y="893.01" width="4.83" height="7.02" class="down-body"/>
<line x1="586.14" y1="900.93" x2="586.14" y2="912.10" class="up-wick"/>
<rect x="583.73" y="901.25" width="4.83" height="6.53" class="up-body"/>
<line x1="593.57" y1="908.02" x2="593.57" y2="917.98" class="down-wick"/>
<rect x="591.15" y="910.39" width="4.83" height="1.00" class="down-body"/>
<line x1="600.99" y1="894.32" x2="600.99" y2="912.76" class="up-wick"/>
<rect x="598.58" y="896.11" width="4.83" height="15.42" class="up-body"/>
<line x1="608.42" y1="898.81" x2="608.42" y2="905.82" class="down-wick"/>
<rect x="606.01" y="899.54" width="4.83" height="4.89" class="down-body"/>
<line x1="615.85" y1="897.91" x2="615.85" y2="906.15" class="up-wick"/>
<rect x="613.43" y="904.76" width="4.83" height="1.00" class="up-body"/>
<line x1="623.27" y1="896.44" x2="623.27" y2="903.54" class="down-wick"/>
<rect x="620.86" y="897.66" width="4.83" height="1.88" class="down-body"/>
<line x1="630.70" y1="881.02" x2="630.70" y2="936.17" class="up-wick"/>
<rect x="628.28" y="884.20" width="4.83" height="41.77" class="up-body"/>
<line x1="638.12" y1="892.28" x2="638.12" y2="921.16" class="down-wick"/>
<rect x="635.71" y="904.11" width="4.83" height="16.56" class="down-body"/>
<line x1="645.55" y1="904.35" x2="645.55" y2="915.61" class="down-wick"/>
<rect x="643.14" y="909.17" width="4.83" height="6.04" class="down-body"/>
<line x1="652.98" y1="909.66" x2="652.98" y2="918.30" class="up-wick"/>
<rect x="650.56" y="914.31" width="4.83" height="1.00" class="up-body"/>
<line x1="660.40" y1="904.52" x2="660.40" y2="913.24" class="up-wick"/>
<rect x="657.99" y="906.07" width="4.83" height="1.96" class="up-body"/>
<line x1="667.83" y1="902.64" x2="667.83" y2="913.24" class="down-wick"/>
<rect x="665.42" y="902.64" width="4.83" height="5.96" class="down-body"/>
<line x1="675.26" y1="892.52" x2="675.26" y2="906.56" class="up-wick"/>
<rect x="672.84" y="893.18" width="4.83" height="13.30" class="up-body"/>
<line x1="682.68" y1="899.38" x2="682.68" y2="905.33" class="up-wick"/>
<rect x="680.27" y="899.46" width="4.83" height="3.34" class="up-body"/>
<line x1="690.11" y1="885.92" x2="690.11" y2="897.01" class="up-wick"/>
<rect x="687.70" y="888.12" width="4.83" height="6.36" class="up-body"/>
<line x1="697.54" y1="884.04" x2="697.54" y2="911.78" class="down-wick"/>
<rect x="695.12" y="886.65" width="4.83" height="23.49" class="down-body"/>
<line x1="704.96" y1="910.47" x2="704.96" y2="919.93" class="down-wick"/>
<rect x="702.55" y="912.27" width="4.83" height="4.73" class="down-body"/>
<line x1="712.39" y1="912.27" x2="712.39" y2="919.12" class="down-wick"/>
<rect x="709.98" y="912.51" width="4.83" height="1.00" class="down-body"/>
<line x1="719.82" y1="906.80" x2="719.82" y2="913.00" class="down-wick"/>
<rect x="717.40" y="910.39" width="4.83" height="1.00" class="down-body"/>
<line x1="727.24" y1="909.66" x2="727.24" y2="917.08" class="up-wick"/>
<rect x="724.83" y="909.98" width="4.83" height="3.02" class="up-body"/>
<line x1="734.67" y1="903.37" x2="734.67" y2="910.80" class="up-wick"/>
<rect x="732.26" y="904.27" width="4.83" height="3.10" class="up-body"/>
<line x1="742.10" y1="888.20" x2="742.10" y2="896.85" class="up-wick"/>
<rect x="739.68" y="893.34" width="4.83" height="1.00" class="up-body"/>
<line x1="749.52" y1="891.79" x2="749.52" y2="900.44" class="down-wick"/>
<rect x="747.11" y="891.79" width="4.83" height="4.57" class="down-body"/>
<line x1="756.95" y1="895.30" x2="756.95" y2="907.37" class="up-wick"/>
<rect x="754.53" y="897.17" width="4.83" height="7.18" class="up-body"/>
<line x1="764.38" y1="892.36" x2="764.38" y2="900.76" class="down-wick"/>
<rect x="761.96" y="897.09" width="4.83" height="3.02" class="down-body"/>
<line x1="771.80" y1="902.23" x2="771.80" y2="912.10" class="down-wick"/>
<rect x="769.39" y="903.29" width="4.83" height="4.32" class="down-body"/>
<line x1="779.23" y1="925.81" x2="779.23" y2="939.02" class="down-wick"/>
<rect x="776.81" y="926.30" width="4.83" height="5.96" class="down-body"/>
<line x1="786.65" y1="919.28" x2="786.65" y2="926.62" class="up-wick"/>
<rect x="784.24" y="923.28" width="4.83" height="2.37" class="up-body"/>
<line x1="794.08" y1="906.15" x2="794.08" y2="921.32" class="up-wick"/>
<rect x="791.67" y="918.79" width="4.83" height="1.00" class="up-body"/>
<line x1="801.51" y1="904.35" x2="801.51" y2="909.90" class="up-wick"/>
<rect x="799.09" y="906.31" width="4.83" height="2.37" class="up-body"/>
<line x1="808.93" y1="911.78" x2="808.93" y2="926.30" class="down-wick"/>
<rect x="806.52" y="913.08" width="4.83" height="9.95" class="down-body"/>
<line x1="816.36" y1="918.71" x2="816.36" y2="925.89" class="up-wick"/>
<rect x="813.95" y="921.57" width="4.83" height="1.79" class="up-body"/>
<line x1="823.79" y1="915.04" x2="823.79" y2="920.10" class="down-wick"/>
<rect x="821.37" y="917.16" width="4.83" height="1.00" class="down-body"/>
<line x1="831.21" y1="915.04" x2="831.21" y2="922.79" class="down-wick"/>
<rect x="828.80" y="916.02" width="4.83" height="5.30" class="down-body"/>
<line x1="838.64" y1="939.10" x2="838.64" y2="953.54" class="up-wick"/>
<rect x="836.23" y="939.10" width="4.83" height="1.55" class="up-body"/>
<line x1="846.07" y1="929.64" x2="846.07" y2="956.48" class="down-wick"/>
<rect x="843.65" y="934.45" width="4.83" height="19.99" class="down-body"/>
<line x1="853.49" y1="954.36" x2="853.49" y2="964.39" class="down-wick"/>
<rect x="851.08" y="961.54" width="4.83" height="1.71" class="down-body"/>
<line x1="860.92" y1="953.87" x2="860.92" y2="971.00" class="down-wick"/>
<rect x="858.51" y="958.76" width="4.83" height="2.69" class="down-body"/>
<line x1="868.35" y1="909.74" x2="868.35" y2="950.61" class="up-wick"/>
<rect x="865.93" y="916.51" width="4.83" height="33.36" class="up-body"/>
<line x1="875.77" y1="921.32" x2="875.77" y2="932.50" class="down-wick"/>
<rect x="873.36" y="921.48" width="4.83" height="9.05" class="down-body"/>
<line x1="883.20" y1="917.16" x2="883.20" y2="925.89" class="down-wick"/>
<rect x="880.78" y="918.38" width="4.83" height="7.10" class="down-body"/>
<line x1="890.62" y1="937.06" x2="890.62" y2="951.42" class="down-wick"/>
<rect x="888.21" y="937.06" width="4.83" height="9.30" class="down-body"/>
<line x1="898.05" y1="961.21" x2="898.05" y2="970.84" class="down-wick"/>
<rect x="895.64" y="961.37" width="4.83" height="3.02" class="down-body"/>
<line x1="905.48" y1="980.46" x2="905.48" y2="990.58" class="down-wick"/>
<rect x="903.06" y="983.56" width="4.83" height="1.00" class="down-body"/>
<line x1="912.90" y1="978.67" x2="912.90" y2="990.82" class="down-wick"/>
<rect x="910.49" y="981.28" width="4.83" height="1.00" class="down-body"/>
<line x1="920.33" y1="983.97" x2="920.33" y2="989.76" class="up-wick"/>
<rect x="917.92" y="984.54" width="4.83" height="4.49" class="up-body"/>
<line x1="927.76" y1="986.17" x2="927.76" y2="994.90" class="down-wick"/>
<rect x="925.34" y="989.27" width="4.83" height="5.06" class="down-body"/>
<line x1="935.18" y1="996.70" x2="935.18" y2="1006.49" class="down-wick"/>
<rect x="932.77" y="1004.36" width="4.83" height="1.00" class="down-body"/>
<line x1="942.61" y1="1005.67" x2="942.61" y2="1024.27" class="down-wick"/>
<rect x="940.20" y="1007.63" width="4.83" height="10.36" class="down-body"/>
<line x1="950.04" y1="998.00" x2="950.04" y2="1014.56" class="up-wick"/>
<rect x="947.62" y="1000.86" width="4.83" height="11.75" class="up-body"/>
<line x1="957.46" y1="986.74" x2="957.46" y2="997.51" class="down-wick"/>
<rect x="955.05" y="995.23" width="4.83" height="1.47" class="down-body"/>
<line x1="964.89" y1="987.80" x2="964.89" y2="1021.41" class="down-wick"/>
<rect x="962.48" y="995.39" width="4.83" height="18.19" class="down-body"/>
<line x1="972.32" y1="1001.02" x2="972.32" y2="1024.76" class="up-wick"/>
<rect x="969.90" y="1013.09" width="4.83" height="11.67" class="up-body"/>
<line x1="979.74" y1="997.35" x2="979.74" y2="1012.60" class="up-wick"/>
<rect x="977.33" y="998.74" width="4.83" height="12.48" class="up-body"/>
<line x1="987.17" y1="972.55" x2="987.17" y2="983.73" class="up-wick"/>
<rect x="984.76" y="975.24" width="4.83" height="8.24" class="up-body"/>
<line x1="994.60" y1="950.44" x2="994.60" y2="971.24" class="up-wick"/>
<rect x="992.18" y="955.01" width="4.83" height="16.23" class="up-body"/>
<line x1="1002.02" y1="934.21" x2="1002.02" y2="948.65" class="up-wick"/>
<rect x="999.61" y="935.68" width="4.83" height="8.89" class="up-body"/>
<line x1="1009.45" y1="919.04" x2="1009.45" y2="930.38" class="up-wick"/>
<rect x="1007.03" y="922.46" width="4.83" height="7.91" class="up-body"/>
<line x1="1016.88" y1="920.18" x2="1016.88" y2="937.55" class="up-wick"/>
<rect x="1014.46" y="922.38" width="4.83" height="6.44" class="up-body"/>
<line x1="1024.30" y1="895.79" x2="1024.30" y2="925.56" class="down-wick"/>
<rect x="1021.89" y="913.82" width="4.83" height="8.40" class="down-body"/>
<line x1="1031.73" y1="927.19" x2="1031.73" y2="936.09" class="down-wick"/>
<rect x="1029.31" y="928.09" width="4.83" height="3.02" class="down-body"/>
<line x1="1039.15" y1="931.11" x2="1039.15" y2="944.57" class="up-wick"/>
<rect x="1036.74" y="932.01" width="4.83" height="11.91" class="up-body"/>
<line x1="1046.58" y1="901.91" x2="1046.58" y2="920.10" class="up-wick"/>
<rect x="1044.17" y="906.07" width="4.83" height="13.46" class="up-body"/>
<line x1="1054.01" y1="903.78" x2="1054.01" y2="913.00" class="down-wick"/>
<rect x="1051.59" y="903.78" width="4.83" height="6.12" class="down-body"/>
<line x1="1061.43" y1="897.50" x2="1061.43" y2="910.06" class="up-wick"/>
<rect x="1059.02" y="900.11" width="4.83" height="9.46" class="up-body"/>
<line x1="1068.86" y1="881.10" x2="1068.86" y2="910.88" class="up-wick"/>
<rect x="1066.45" y="889.59" width="4.83" height="14.60" class="up-body"/>
<line x1="1076.29" y1="887.47" x2="1076.29" y2="903.05" class="down-wick"/>
<rect x="1073.87" y="894.81" width="4.83" height="5.55" class="down-body"/>
<line x1="70" y1="944.49" x2="1080" y2="944.49" class="number-line"/>
<text x="1076" y="940.49" text-anchor="end" class="level-label">round 4550.00</text>
<line x1="70" y1="944.49" x2="1080" y2="944.49" class="entry-line"/>
<text x="1076" y="940.49" text-anchor="end" class="level-label">entry level 4550.00</text>
<text x="70" y="1056" class="axis-label">2026-05-05 10:00:00+00:00 to 2026-05-05 14:30:00+00:00</text>
<text x="1080" y="1056" text-anchor="end" class="axis-label">4538.54 - 4562.07</text>
</svg>