<svg xmlns="http://www.w3.org/2000/svg" width="1120" height="1054" viewBox="0 0 1120 1054">
<style>
text{font-family:Arial,Helvetica,sans-serif}.title{font-size:21px;font-weight:700;fill:#1f2937}.subtitle{font-size:12px;fill:#4b5563}.panel-title{font-size:15px;font-weight:700;fill:#111827}.muted{font-size:13px;fill:#6b7280}.plot-bg{fill:#f8fafc;stroke:#cbd5e1;stroke-width:1}.up-body{fill:#15803d;stroke:#14532d;stroke-width:.8}.down-body{fill:#b91c1c;stroke:#7f1d1d;stroke-width:.8}.up-wick{stroke:#14532d;stroke-width:1}.down-wick{stroke:#7f1d1d;stroke-width:1}.sweep-line{stroke:#7c3aed;stroke-width:1.6;stroke-dasharray:6 4}.number-line{stroke:#0f766e;stroke-width:1.4;stroke-dasharray:3 4}.entry-line{stroke:#2563eb;stroke-width:1.4}.sl-line{stroke:#dc2626;stroke-width:1.4}.tp-line{stroke:#16a34a;stroke-width:1.4}.level-label,.axis-label{font-size:11px;fill:#374151}
</style>
<text x="28" y="28" class="title">Adelin v2 visual review sample sample_205</text>
<text x="28" y="48" class="subtitle">Candidate windows are for visual labeling only and are not trade signals.</text>
<text x="560" y="48" class="subtitle" text-anchor="middle">NUMBER_THEORY_LEVEL_NEAR | ROUND_LEVEL_ENTRY_METADATA_AVAILABLE</text>
<text x="70" y="82" class="panel-title">H1 liquidity context</text>
<rect x="70" y="96" width="1010" height="192" class="plot-bg"/>
<line x1="81.48" y1="119.03" x2="81.48" y2="166.37" class="up-wick"/>
<rect x="77.48" y="140.15" width="8.00" height="25.14" class="up-body"/>
<line x1="104.43" y1="122.87" x2="104.43" y2="141.71" class="up-wick"/>
<rect x="100.43" y="129.51" width="8.00" height="10.64" class="up-body"/>
<line x1="127.39" y1="117.79" x2="127.39" y2="134.06" class="up-wick"/>
<rect x="123.39" y="121.32" width="8.00" height="8.18" class="up-body"/>
<line x1="150.34" y1="109.24" x2="150.34" y2="127.56" class="down-wick"/>
<rect x="146.34" y="121.31" width="8.00" height="6.25" class="down-body"/>
<line x1="173.30" y1="118.42" x2="173.30" y2="129.15" class="up-wick"/>
<rect x="169.30" y="120.21" width="8.00" height="7.25" class="up-body"/>
<line x1="196.25" y1="109.33" x2="196.25" y2="122.67" class="up-wick"/>
<rect x="192.25" y="112.20" width="8.00" height="8.08" class="up-body"/>
<line x1="219.20" y1="111.08" x2="219.20" y2="138.28" class="down-wick"/>
<rect x="215.20" y="118.83" width="8.00" height="11.31" class="down-body"/>
<line x1="242.16" y1="128.12" x2="242.16" y2="146.38" class="down-wick"/>
<rect x="238.16" y="130.13" width="8.00" height="3.87" class="down-body"/>
<line x1="265.11" y1="121.33" x2="265.11" y2="140.85" class="up-wick"/>
<rect x="261.11" y="123.16" width="8.00" height="10.85" class="up-body"/>
<line x1="288.07" y1="121.27" x2="288.07" y2="152.79" class="down-wick"/>
<rect x="284.07" y="123.14" width="8.00" height="27.72" class="down-body"/>
<line x1="311.02" y1="146.52" x2="311.02" y2="165.49" class="down-wick"/>
<rect x="307.02" y="150.86" width="8.00" height="5.74" class="down-body"/>
<line x1="333.98" y1="152.87" x2="333.98" y2="168.26" class="down-wick"/>
<rect x="329.98" y="156.60" width="8.00" height="7.90" class="down-body"/>
<line x1="356.93" y1="153.98" x2="356.93" y2="174.40" class="up-wick"/>
<rect x="352.93" y="154.11" width="8.00" height="10.39" class="up-body"/>
<line x1="379.89" y1="144.01" x2="379.89" y2="158.58" class="up-wick"/>
<rect x="375.89" y="150.69" width="8.00" height="3.38" class="up-body"/>
<line x1="402.84" y1="138.38" x2="402.84" y2="155.43" class="up-wick"/>
<rect x="398.84" y="140.56" width="8.00" height="10.13" class="up-body"/>
<line x1="425.80" y1="135.75" x2="425.80" y2="149.92" class="up-wick"/>
<rect x="421.80" y="139.98" width="8.00" height="1.00" class="up-body"/>
<line x1="448.75" y1="132.60" x2="448.75" y2="140.11" class="up-wick"/>
<rect x="444.75" y="135.60" width="8.00" height="4.37" class="up-body"/>
<line x1="471.70" y1="132.57" x2="471.70" y2="146.28" class="down-wick"/>
<rect x="467.70" y="135.60" width="8.00" height="6.03" class="down-body"/>
<line x1="494.66" y1="139.97" x2="494.66" y2="147.39" class="down-wick"/>
<rect x="490.66" y="141.64" width="8.00" height="1.32" class="down-body"/>
<line x1="517.61" y1="139.99" x2="517.61" y2="152.25" class="down-wick"/>
<rect x="513.61" y="142.95" width="8.00" height="1.98" class="down-body"/>
<line x1="540.57" y1="143.56" x2="540.57" y2="154.94" class="down-wick"/>
<rect x="536.57" y="144.93" width="8.00" height="3.75" class="down-body"/>
<line x1="563.52" y1="146.87" x2="563.52" y2="161.42" class="down-wick"/>
<rect x="559.52" y="148.69" width="8.00" height="7.28" class="down-body"/>
<line x1="586.48" y1="155.98" x2="586.48" y2="171.69" class="down-wick"/>
<rect x="582.48" y="155.98" width="8.00" height="6.98" class="down-body"/>
<line x1="609.43" y1="154.35" x2="609.43" y2="168.27" class="up-wick"/>
<rect x="605.43" y="156.13" width="8.00" height="6.83" class="up-body"/>
<line x1="632.39" y1="149.70" x2="632.39" y2="156.20" class="up-wick"/>
<rect x="628.39" y="153.21" width="8.00" height="2.95" class="up-body"/>
<line x1="655.34" y1="148.34" x2="655.34" y2="155.74" class="up-wick"/>
<rect x="651.34" y="150.89" width="8.00" height="2.26" class="up-body"/>
<line x1="678.30" y1="149.49" x2="678.30" y2="154.19" class="down-wick"/>
<rect x="674.30" y="150.90" width="8.00" height="1.10" class="down-body"/>
<line x1="701.25" y1="145.72" x2="701.25" y2="158.50" class="down-wick"/>
<rect x="697.25" y="150.31" width="8.00" height="4.51" class="down-body"/>
<line x1="724.20" y1="153.46" x2="724.20" y2="201.59" class="down-wick"/>
<rect x="720.20" y="154.82" width="8.00" height="43.70" class="down-body"/>
<line x1="747.16" y1="175.64" x2="747.16" y2="208.87" class="up-wick"/>
<rect x="743.16" y="180.62" width="8.00" height="17.94" class="up-body"/>
<line x1="770.11" y1="169.79" x2="770.11" y2="183.26" class="up-wick"/>
<rect x="766.11" y="173.13" width="8.00" height="7.49" class="up-body"/>
<line x1="793.07" y1="170.72" x2="793.07" y2="187.00" class="down-wick"/>
<rect x="789.07" y="173.12" width="8.00" height="8.33" class="down-body"/>
<line x1="816.02" y1="178.59" x2="816.02" y2="189.60" class="down-wick"/>
<rect x="812.02" y="181.47" width="8.00" height="3.16" class="down-body"/>
<line x1="838.98" y1="183.55" x2="838.98" y2="260.52" class="down-wick"/>
<rect x="834.98" y="184.64" width="8.00" height="51.71" class="down-body"/>
<line x1="861.93" y1="215.89" x2="861.93" y2="238.14" class="up-wick"/>
<rect x="857.93" y="219.02" width="8.00" height="17.33" class="up-body"/>
<line x1="884.89" y1="209.46" x2="884.89" y2="224.10" class="up-wick"/>
<rect x="880.89" y="213.58" width="8.00" height="5.39" class="up-body"/>
<line x1="907.84" y1="202.82" x2="907.84" y2="214.15" class="up-wick"/>
<rect x="903.84" y="210.59" width="8.00" height="2.99" class="up-body"/>
<line x1="930.80" y1="201.01" x2="930.80" y2="216.58" class="up-wick"/>
<rect x="926.80" y="206.37" width="8.00" height="4.29" class="up-body"/>
<line x1="953.75" y1="195.51" x2="953.75" y2="221.20" class="down-wick"/>
<rect x="949.75" y="206.37" width="8.00" height="10.34" class="down-body"/>
<line x1="976.70" y1="202.44" x2="976.70" y2="216.72" class="up-wick"/>
<rect x="972.70" y="203.64" width="8.00" height="13.05" class="up-body"/>
<line x1="999.66" y1="191.42" x2="999.66" y2="204.53" class="up-wick"/>
<rect x="995.66" y="201.44" width="8.00" height="2.20" class="up-body"/>
<line x1="1022.61" y1="200.49" x2="1022.61" y2="251.54" class="down-wick"/>
<rect x="1018.61" y="201.42" width="8.00" height="49.62" class="down-body"/>
<line x1="1045.57" y1="221.52" x2="1045.57" y2="274.76" class="down-wick"/>
<rect x="1041.57" y="251.05" width="8.00" height="5.56" class="down-body"/>
<line x1="1068.52" y1="241.56" x2="1068.52" y2="268.54" class="up-wick"/>
<rect x="1064.52" y="244.78" width="8.00" height="11.83" class="up-body"/>
<line x1="70" y1="162.73" x2="1080" y2="162.73" class="number-line"/>
<text x="1076" y="158.73" text-anchor="end" class="level-label">round 4980.00</text>
<line x1="70" y1="162.73" x2="1080" y2="162.73" class="entry-line"/>
<text x="1076" y="158.73" text-anchor="end" class="level-label">entry level 4980.00</text>
<text x="70" y="306" class="axis-label">2026-02-13 18:00:00+00:00 to 2026-02-17 17:00:00+00:00</text>
<text x="1080" y="306" text-anchor="end" class="axis-label">4825.11 - 5062.50</text>
<text x="70" y="332" class="panel-title">M15 liquidity / reaction context</text>
<rect x="70" y="346" width="1010" height="192" class="plot-bg"/>
<line x1="77.77" y1="419.02" x2="77.77" y2="434.80" class="down-wick"/>
<rect x="73.77" y="422.38" width="8.00" height="8.32" class="down-body"/>
<line x1="93.31" y1="424.81" x2="93.31" y2="451.98" class="down-wick"/>
<rect x="89.31" y="430.67" width="8.00" height="12.99" class="down-body"/>
<line x1="108.85" y1="434.54" x2="108.85" y2="489.49" class="down-wick"/>
<rect x="104.85" y="443.66" width="8.00" height="10.66" class="down-body"/>
<line x1="124.38" y1="439.54" x2="124.38" y2="499.35" class="down-wick"/>
<rect x="120.38" y="454.32" width="8.00" height="34.91" class="down-body"/>
<line x1="139.92" y1="477.97" x2="139.92" y2="500.44" class="down-wick"/>
<rect x="135.92" y="489.14" width="8.00" height="1.00" class="down-body"/>
<line x1="155.46" y1="483.80" x2="155.46" y2="498.96" class="down-wick"/>
<rect x="151.46" y="490.13" width="8.00" height="1.00" class="down-body"/>
<line x1="171.00" y1="477.94" x2="171.00" y2="496.95" class="up-wick"/>
<rect x="167.00" y="485.59" width="8.00" height="5.28" class="up-body"/>
<line x1="186.54" y1="459.89" x2="186.54" y2="524.76" class="up-wick"/>
<rect x="182.54" y="467.41" width="8.00" height="18.18" class="up-body"/>
<line x1="202.08" y1="450.90" x2="202.08" y2="468.34" class="up-wick"/>
<rect x="198.08" y="458.13" width="8.00" height="9.28" class="up-body"/>
<line x1="217.62" y1="445.74" x2="217.62" y2="468.88" class="down-wick"/>
<rect x="213.62" y="458.13" width="8.00" height="1.41" class="down-body"/>
<line x1="233.15" y1="443.92" x2="233.15" y2="462.67" class="up-wick"/>
<rect x="229.15" y="444.46" width="8.00" height="15.07" class="up-body"/>
<line x1="248.69" y1="437.36" x2="248.69" y2="453.97" class="down-wick"/>
<rect x="244.69" y="444.30" width="8.00" height="1.34" class="down-body"/>
<line x1="264.23" y1="431.12" x2="264.23" y2="462.13" class="up-wick"/>
<rect x="260.23" y="436.72" width="8.00" height="8.93" class="up-body"/>
<line x1="279.77" y1="404.49" x2="279.77" y2="444.59" class="up-wick"/>
<rect x="275.77" y="406.89" width="8.00" height="29.76" class="up-body"/>
<line x1="295.31" y1="405.29" x2="295.31" y2="432.85" class="down-wick"/>
<rect x="291.31" y="406.86" width="8.00" height="24.07" class="down-body"/>
<line x1="310.85" y1="421.39" x2="310.85" y2="449.68" class="up-wick"/>
<rect x="306.85" y="426.16" width="8.00" height="4.77" class="up-body"/>
<line x1="326.38" y1="416.08" x2="326.38" y2="433.01" class="up-wick"/>
<rect x="322.38" y="420.21" width="8.00" height="5.95" class="up-body"/>
<line x1="341.92" y1="395.05" x2="341.92" y2="424.46" class="up-wick"/>
<rect x="337.92" y="409.61" width="8.00" height="10.59" class="up-body"/>
<line x1="357.46" y1="382.22" x2="357.46" y2="410.80" class="up-wick"/>
<rect x="353.46" y="390.83" width="8.00" height="18.79" class="up-body"/>
<line x1="373.00" y1="371.79" x2="373.00" y2="425.87" class="down-wick"/>
<rect x="369.00" y="390.86" width="8.00" height="29.15" class="down-body"/>
<line x1="388.54" y1="393.29" x2="388.54" y2="427.89" class="up-wick"/>
<rect x="384.54" y="394.44" width="8.00" height="25.60" class="up-body"/>
<line x1="404.08" y1="386.51" x2="404.08" y2="398.83" class="up-wick"/>
<rect x="400.08" y="394.03" width="8.00" height="1.00" class="up-body"/>
<line x1="419.62" y1="381.71" x2="419.62" y2="402.92" class="up-wick"/>
<rect x="415.62" y="388.52" width="8.00" height="5.50" class="up-body"/>
<line x1="435.15" y1="364.59" x2="435.15" y2="389.07" class="up-wick"/>
<rect x="431.15" y="378.63" width="8.00" height="9.86" class="up-body"/>
<line x1="450.69" y1="362.54" x2="450.69" y2="378.79" class="up-wick"/>
<rect x="446.69" y="371.37" width="8.00" height="7.26" class="up-body"/>
<line x1="466.23" y1="367.08" x2="466.23" y2="382.12" class="down-wick"/>
<rect x="462.23" y="371.34" width="8.00" height="9.15" class="down-body"/>
<line x1="481.77" y1="359.34" x2="481.77" y2="387.18" class="up-wick"/>
<rect x="477.77" y="371.21" width="8.00" height="9.28" class="up-body"/>
<line x1="497.31" y1="359.24" x2="497.31" y2="393.00" class="down-wick"/>
<rect x="493.31" y="371.21" width="8.00" height="18.75" class="down-body"/>
<line x1="512.85" y1="375.37" x2="512.85" y2="399.24" class="down-wick"/>
<rect x="508.85" y="389.96" width="8.00" height="8.10" class="down-body"/>
<line x1="528.38" y1="382.96" x2="528.38" y2="413.49" class="up-wick"/>
<rect x="524.38" y="387.63" width="8.00" height="10.78" class="up-body"/>
<line x1="543.92" y1="379.63" x2="543.92" y2="396.33" class="down-wick"/>
<rect x="539.92" y="387.63" width="8.00" height="7.46" class="down-body"/>
<line x1="559.46" y1="391.82" x2="559.46" y2="417.87" class="down-wick"/>
<rect x="555.46" y="395.12" width="8.00" height="15.65" class="down-body"/>
<line x1="575.00" y1="396.81" x2="575.00" y2="414.80" class="up-wick"/>
<rect x="571.00" y="399.82" width="8.00" height="10.91" class="up-body"/>
<line x1="590.54" y1="392.40" x2="590.54" y2="405.33" class="up-wick"/>
<rect x="586.54" y="393.29" width="8.00" height="6.53" class="up-body"/>
<line x1="606.08" y1="388.49" x2="606.08" y2="407.82" class="down-wick"/>
<rect x="602.08" y="393.29" width="8.00" height="7.04" class="down-body"/>
<line x1="621.62" y1="398.67" x2="621.62" y2="422.41" class="down-wick"/>
<rect x="617.62" y="400.30" width="8.00" height="21.63" class="down-body"/>
<line x1="637.15" y1="416.53" x2="637.15" y2="437.10" class="down-wick"/>
<rect x="633.15" y="421.93" width="8.00" height="4.29" class="down-body"/>
<line x1="652.69" y1="388.59" x2="652.69" y2="430.10" class="up-wick"/>
<rect x="648.69" y="398.51" width="8.00" height="27.71" class="up-body"/>
<line x1="668.23" y1="395.63" x2="668.23" y2="416.72" class="down-wick"/>
<rect x="664.23" y="398.51" width="8.00" height="9.63" class="down-body"/>
<line x1="683.77" y1="402.70" x2="683.77" y2="421.45" class="down-wick"/>
<rect x="679.77" y="408.14" width="8.00" height="12.58" class="down-body"/>
<line x1="699.31" y1="408.17" x2="699.31" y2="436.18" class="down-wick"/>
<rect x="695.31" y="420.69" width="8.00" height="12.03" class="down-body"/>
<line x1="714.85" y1="418.73" x2="714.85" y2="437.97" class="up-wick"/>
<rect x="710.85" y="429.45" width="8.00" height="3.26" class="up-body"/>
<line x1="730.38" y1="419.66" x2="730.38" y2="447.73" class="up-wick"/>
<rect x="726.38" y="422.99" width="8.00" height="6.40" class="up-body"/>
<line x1="745.92" y1="419.57" x2="745.92" y2="432.66" class="down-wick"/>
<rect x="741.92" y="422.99" width="8.00" height="6.75" class="down-body"/>
<line x1="761.46" y1="415.82" x2="761.46" y2="446.64" class="down-wick"/>
<rect x="757.46" y="429.74" width="8.00" height="9.06" class="down-body"/>
<line x1="777.00" y1="432.27" x2="777.00" y2="467.09" class="down-wick"/>
<rect x="773.00" y="438.80" width="8.00" height="11.49" class="down-body"/>
<line x1="792.54" y1="448.85" x2="792.54" y2="473.36" class="down-wick"/>
<rect x="788.54" y="450.29" width="8.00" height="1.50" class="down-body"/>
<line x1="808.08" y1="451.86" x2="808.08" y2="514.01" class="down-wick"/>
<rect x="804.08" y="451.86" width="8.00" height="37.73" class="down-body"/>
<line x1="823.62" y1="473.81" x2="823.62" y2="491.99" class="up-wick"/>
<rect x="819.62" y="477.17" width="8.00" height="12.42" class="up-body"/>
<line x1="839.15" y1="475.89" x2="839.15" y2="494.68" class="up-wick"/>
<rect x="835.15" y="476.24" width="8.00" height="1.00" class="up-body"/>
<line x1="854.69" y1="467.92" x2="854.69" y2="488.44" class="down-wick"/>
<rect x="850.69" y="476.24" width="8.00" height="3.23" class="down-body"/>
<line x1="870.23" y1="477.91" x2="870.23" y2="500.50" class="down-wick"/>
<rect x="866.23" y="479.47" width="8.00" height="1.00" class="down-body"/>
<line x1="885.77" y1="454.19" x2="885.77" y2="493.46" class="up-wick"/>
<rect x="881.77" y="458.51" width="8.00" height="21.73" class="up-body"/>
<line x1="901.31" y1="445.39" x2="901.31" y2="459.41" class="up-wick"/>
<rect x="897.31" y="449.71" width="8.00" height="8.80" class="up-body"/>
<line x1="916.85" y1="449.68" x2="916.85" y2="462.13" class="down-wick"/>
<rect x="912.85" y="449.71" width="8.00" height="2.75" class="down-body"/>
<line x1="932.38" y1="432.59" x2="932.38" y2="452.72" class="up-wick"/>
<rect x="928.38" y="442.38" width="8.00" height="10.18" class="up-body"/>
<line x1="947.92" y1="429.26" x2="947.92" y2="444.53" class="up-wick"/>
<rect x="943.92" y="431.44" width="8.00" height="10.98" class="up-body"/>
<line x1="963.46" y1="427.02" x2="963.46" y2="441.71" class="down-wick"/>
<rect x="959.46" y="431.44" width="8.00" height="4.90" class="down-body"/>
<line x1="979.00" y1="436.21" x2="979.00" y2="446.16" class="down-wick"/>
<rect x="975.00" y="436.34" width="8.00" height="4.54" class="down-body"/>
<line x1="994.54" y1="433.23" x2="994.54" y2="450.90" class="up-wick"/>
<rect x="990.54" y="434.54" width="8.00" height="6.14" class="up-body"/>
<line x1="1010.08" y1="422.67" x2="1010.08" y2="438.16" class="up-wick"/>
<rect x="1006.08" y="432.82" width="8.00" height="1.73" class="up-body"/>
<line x1="1025.62" y1="429.04" x2="1025.62" y2="442.38" class="up-wick"/>
<rect x="1021.62" y="429.13" width="8.00" height="3.68" class="up-body"/>
<line x1="1041.15" y1="421.61" x2="1041.15" y2="432.30" class="down-wick"/>
<rect x="1037.15" y="429.13" width="8.00" height="2.59" class="down-body"/>
<line x1="1056.69" y1="426.77" x2="1056.69" y2="444.53" class="down-wick"/>
<rect x="1052.69" y="431.76" width="8.00" height="11.42" class="down-body"/>
<line x1="1072.23" y1="426.19" x2="1072.23" y2="444.75" class="up-wick"/>
<rect x="1068.23" y="436.11" width="8.00" height="7.04" class="up-body"/>
<line x1="70" y1="478.55" x2="1080" y2="478.55" class="number-line"/>
<text x="1076" y="474.55" text-anchor="end" class="level-label">round 4980.00</text>
<line x1="70" y1="478.55" x2="1080" y2="478.55" class="entry-line"/>
<text x="1076" y="474.55" text-anchor="end" class="level-label">entry level 4980.00</text>
<text x="70" y="556" class="axis-label">2026-02-16 05:15:00+00:00 to 2026-02-16 21:15:00+00:00</text>
<text x="1080" y="556" text-anchor="end" class="axis-label">4961.42 - 5021.42</text>
<text x="70" y="582" class="panel-title">M5 reaction / execution context</text>
<rect x="70" y="596" width="1010" height="192" class="plot-bg"/>
<line x1="79.18" y1="629.58" x2="79.18" y2="663.03" class="down-wick"/>
<rect x="75.18" y="632.12" width="8.00" height="9.55" class="down-body"/>
<line x1="97.55" y1="617.39" x2="97.55" y2="642.58" class="up-wick"/>
<rect x="93.55" y="635.78" width="8.00" height="5.88" class="up-body"/>
<line x1="115.91" y1="615.72" x2="115.91" y2="637.89" class="up-wick"/>
<rect x="111.91" y="621.33" width="8.00" height="14.46" class="up-body"/>
<line x1="134.27" y1="618.79" x2="134.27" y2="637.62" class="down-wick"/>
<rect x="130.27" y="621.33" width="8.00" height="11.22" class="down-body"/>
<line x1="152.64" y1="615.55" x2="152.64" y2="633.30" class="up-wick"/>
<rect x="148.64" y="624.19" width="8.00" height="8.31" class="up-body"/>
<line x1="171.00" y1="622.30" x2="171.00" y2="636.49" class="down-wick"/>
<rect x="167.00" y="624.13" width="8.00" height="8.58" class="down-body"/>
<line x1="189.36" y1="609.24" x2="189.36" y2="638.21" class="down-wick"/>
<rect x="185.36" y="632.71" width="8.00" height="1.13" class="down-body"/>
<line x1="207.73" y1="633.57" x2="207.73" y2="658.39" class="down-wick"/>
<rect x="203.73" y="633.63" width="8.00" height="2.54" class="down-body"/>
<line x1="226.09" y1="633.84" x2="226.09" y2="661.19" class="down-wick"/>
<rect x="222.09" y="636.16" width="8.00" height="11.81" class="down-body"/>
<line x1="244.45" y1="636.97" x2="244.45" y2="650.35" class="up-wick"/>
<rect x="240.45" y="641.50" width="8.00" height="6.47" class="up-body"/>
<line x1="262.82" y1="637.73" x2="262.82" y2="671.39" class="down-wick"/>
<rect x="258.82" y="641.45" width="8.00" height="20.12" class="down-body"/>
<line x1="281.18" y1="650.78" x2="281.18" y2="695.67" class="down-wick"/>
<rect x="277.18" y="661.57" width="8.00" height="5.77" class="down-body"/>
<line x1="299.55" y1="667.35" x2="299.55" y2="706.24" class="down-wick"/>
<rect x="295.55" y="667.35" width="8.00" height="10.20" class="down-body"/>
<line x1="317.91" y1="664.92" x2="317.91" y2="686.44" class="down-wick"/>
<rect x="313.91" y="677.54" width="8.00" height="4.53" class="down-body"/>
<line x1="336.27" y1="669.56" x2="336.27" y2="690.27" class="up-wick"/>
<rect x="332.27" y="669.88" width="8.00" height="12.19" class="up-body"/>
<line x1="354.64" y1="669.99" x2="354.64" y2="759.11" class="down-wick"/>
<rect x="350.64" y="669.99" width="8.00" height="78.39" class="down-body"/>
<line x1="373.00" y1="717.30" x2="373.00" y2="774.76" class="up-wick"/>
<rect x="369.00" y="726.96" width="8.00" height="21.42" class="up-body"/>
<line x1="391.36" y1="720.86" x2="391.36" y2="741.31" class="down-wick"/>
<rect x="387.36" y="726.91" width="8.00" height="6.69" class="down-body"/>
<line x1="409.73" y1="722.54" x2="409.73" y2="737.64" class="up-wick"/>
<rect x="405.73" y="726.85" width="8.00" height="6.74" class="up-body"/>
<line x1="428.09" y1="707.75" x2="428.09" y2="732.46" class="up-wick"/>
<rect x="424.09" y="718.38" width="8.00" height="8.47" class="up-body"/>
<line x1="446.45" y1="707.00" x2="446.45" y2="720.70" class="up-wick"/>
<rect x="442.45" y="712.66" width="8.00" height="5.77" class="up-body"/>
<line x1="464.82" y1="710.50" x2="464.82" y2="737.86" class="down-wick"/>
<rect x="460.82" y="712.66" width="8.00" height="19.04" class="down-body"/>
<line x1="483.18" y1="722.91" x2="483.18" y2="742.17" class="up-wick"/>
<rect x="479.18" y="729.12" width="8.00" height="2.59" class="up-body"/>
<line x1="501.55" y1="710.61" x2="501.55" y2="730.30" class="up-wick"/>
<rect x="497.55" y="711.10" width="8.00" height="18.02" class="up-body"/>
<line x1="519.91" y1="708.35" x2="519.91" y2="725.72" class="down-wick"/>
<rect x="515.91" y="711.10" width="8.00" height="13.33" class="down-body"/>
<line x1="538.27" y1="702.30" x2="538.27" y2="731.65" class="up-wick"/>
<rect x="534.27" y="707.16" width="8.00" height="17.26" class="up-body"/>
<line x1="556.64" y1="697.07" x2="556.64" y2="718.87" class="down-wick"/>
<rect x="552.64" y="707.21" width="8.00" height="9.33" class="down-body"/>
<line x1="575.00" y1="713.90" x2="575.00" y2="751.99" class="down-wick"/>
<rect x="571.00" y="716.55" width="8.00" height="18.13" class="down-body"/>
<line x1="593.36" y1="726.64" x2="593.36" y2="745.03" class="down-wick"/>
<rect x="589.36" y="734.67" width="8.00" height="6.10" class="down-body"/>
<line x1="611.73" y1="715.31" x2="611.73" y2="744.87" class="up-wick"/>
<rect x="607.73" y="717.79" width="8.00" height="22.98" class="up-body"/>
<line x1="630.09" y1="706.73" x2="630.09" y2="738.56" class="down-wick"/>
<rect x="626.09" y="717.84" width="8.00" height="19.31" class="down-body"/>
<line x1="648.45" y1="716.39" x2="648.45" y2="740.12" class="up-wick"/>
<rect x="644.45" y="716.49" width="8.00" height="20.61" class="up-body"/>
<line x1="666.82" y1="673.93" x2="666.82" y2="716.98" class="up-wick"/>
<rect x="662.82" y="681.21" width="8.00" height="35.07" class="up-body"/>
<line x1="685.18" y1="666.21" x2="685.18" y2="682.72" class="up-wick"/>
<rect x="681.18" y="673.77" width="8.00" height="7.45" class="up-body"/>
<line x1="703.55" y1="664.27" x2="703.55" y2="677.70" class="down-wick"/>
<rect x="699.55" y="673.77" width="8.00" height="1.83" class="down-body"/>
<line x1="721.91" y1="659.09" x2="721.91" y2="677.43" class="up-wick"/>
<rect x="717.91" y="666.37" width="8.00" height="9.23" class="up-body"/>
<line x1="740.27" y1="666.32" x2="740.27" y2="687.31" class="down-wick"/>
<rect x="736.27" y="666.37" width="8.00" height="10.95" class="down-body"/>
<line x1="758.64" y1="667.40" x2="758.64" y2="678.30" class="up-wick"/>
<rect x="754.64" y="670.80" width="8.00" height="6.53" class="up-body"/>
<line x1="777.00" y1="666.64" x2="777.00" y2="675.06" class="down-wick"/>
<rect x="773.00" y="670.85" width="8.00" height="1.00" class="down-body"/>
<line x1="795.36" y1="637.51" x2="795.36" y2="671.45" class="up-wick"/>
<rect x="791.36" y="646.20" width="8.00" height="24.98" class="up-body"/>
<line x1="813.73" y1="642.42" x2="813.73" y2="652.67" class="down-wick"/>
<rect x="809.73" y="646.25" width="8.00" height="1.00" class="down-body"/>
<line x1="832.09" y1="639.78" x2="832.09" y2="655.48" class="down-wick"/>
<rect x="828.09" y="646.52" width="8.00" height="7.50" class="down-body"/>
<line x1="850.45" y1="634.87" x2="850.45" y2="657.63" class="up-wick"/>
<rect x="846.45" y="653.05" width="8.00" height="1.03" class="up-body"/>
<line x1="868.82" y1="640.59" x2="868.82" y2="653.05" class="up-wick"/>
<rect x="864.82" y="643.23" width="8.00" height="9.82" class="up-body"/>
<line x1="887.18" y1="631.90" x2="887.18" y2="645.12" class="up-wick"/>
<rect x="883.18" y="635.57" width="8.00" height="7.71" class="up-body"/>
<line x1="905.55" y1="628.12" x2="905.55" y2="642.58" class="down-wick"/>
<rect x="901.55" y="635.57" width="8.00" height="6.64" class="down-body"/>
<line x1="923.91" y1="639.99" x2="923.91" y2="650.57" class="down-wick"/>
<rect x="919.91" y="642.20" width="8.00" height="7.71" class="down-body"/>
<line x1="942.27" y1="641.45" x2="942.27" y2="652.89" class="up-wick"/>
<rect x="938.27" y="643.82" width="8.00" height="6.10" class="up-body"/>
<line x1="960.64" y1="643.77" x2="960.64" y2="657.15" class="down-wick"/>
<rect x="956.64" y="643.82" width="8.00" height="8.96" class="down-body"/>
<line x1="979.00" y1="644.69" x2="979.00" y2="660.39" class="up-wick"/>
<rect x="975.00" y="645.82" width="8.00" height="6.96" class="up-body"/>
<line x1="997.36" y1="643.61" x2="997.36" y2="658.50" class="down-wick"/>
<rect x="993.36" y="645.82" width="8.00" height="5.66" class="down-body"/>
<line x1="1015.73" y1="649.54" x2="1015.73" y2="668.37" class="down-wick"/>
<rect x="1011.73" y="651.16" width="8.00" height="13.87" class="down-body"/>
<line x1="1034.09" y1="648.52" x2="1034.09" y2="665.35" class="up-wick"/>
<rect x="1030.09" y="654.07" width="8.00" height="10.95" class="up-body"/>
<line x1="1052.45" y1="638.59" x2="1052.45" y2="654.94" class="up-wick"/>
<rect x="1048.45" y="640.80" width="8.00" height="13.27" class="up-body"/>
<line x1="1070.82" y1="638.10" x2="1070.82" y2="646.90" class="down-wick"/>
<rect x="1066.82" y="640.80" width="8.00" height="4.32" class="down-body"/>
<line x1="70" y1="714.98" x2="1080" y2="714.98" class="number-line"/>
<text x="1076" y="710.98" text-anchor="end" class="level-label">round 4980.00</text>
<line x1="70" y1="714.98" x2="1080" y2="714.98" class="entry-line"/>
<text x="1076" y="710.98" text-anchor="end" class="level-label">entry level 4980.00</text>
<text x="70" y="806" class="axis-label">2026-02-16 15:45:00+00:00 to 2026-02-16 20:15:00+00:00</text>
<text x="1080" y="806" text-anchor="end" class="axis-label">4966.47 - 5002.05</text>
<text x="70" y="832" class="panel-title">M1 execution window</text>
<rect x="70" y="846" width="1010" height="192" class="plot-bg"/>
<line x1="73.71" y1="879.58" x2="73.71" y2="888.81" class="down-wick"/>
<rect x="71.30" y="882.12" width="4.83" height="4.53" class="down-body"/>
<line x1="81.14" y1="894.42" x2="81.14" y2="910.71" class="down-wick"/>
<rect x="78.73" y="894.47" width="4.83" height="16.08" class="down-body"/>
<line x1="88.57" y1="888.97" x2="88.57" y2="895.60" class="up-wick"/>
<rect x="86.15" y="891.67" width="4.83" height="3.83" class="up-body"/>
<line x1="95.99" y1="869.71" x2="95.99" y2="878.83" class="up-wick"/>
<rect x="93.58" y="870.46" width="4.83" height="7.71" class="up-body"/>
<line x1="103.42" y1="870.03" x2="103.42" y2="884.54" class="down-wick"/>
<rect x="101.01" y="870.35" width="4.83" height="12.30" class="down-body"/>
<line x1="110.85" y1="873.21" x2="110.85" y2="887.89" class="up-wick"/>
<rect x="108.43" y="874.24" width="4.83" height="11.55" class="up-body"/>
<line x1="118.27" y1="873.05" x2="118.27" y2="880.71" class="down-wick"/>
<rect x="115.86" y="873.65" width="4.83" height="2.32" class="down-body"/>
<line x1="125.70" y1="870.95" x2="125.70" y2="875.70" class="up-wick"/>
<rect x="123.28" y="871.33" width="4.83" height="1.51" class="up-body"/>
<line x1="133.12" y1="874.24" x2="133.12" y2="878.88" class="up-wick"/>
<rect x="130.71" y="874.94" width="4.83" height="2.10" class="up-body"/>
<line x1="140.55" y1="873.97" x2="140.55" y2="877.53" class="up-wick"/>
<rect x="138.14" y="875.64" width="4.83" height="1.00" class="up-body"/>
<line x1="147.98" y1="876.72" x2="147.98" y2="883.30" class="up-wick"/>
<rect x="145.56" y="876.72" width="4.83" height="5.77" class="up-body"/>
<line x1="155.40" y1="865.55" x2="155.40" y2="872.62" class="up-wick"/>
<rect x="152.99" y="868.41" width="4.83" height="4.21" class="up-body"/>
<line x1="162.83" y1="871.54" x2="162.83" y2="877.10" class="down-wick"/>
<rect x="160.42" y="872.67" width="4.83" height="1.51" class="down-body"/>
<line x1="170.26" y1="875.16" x2="170.26" y2="879.80" class="down-wick"/>
<rect x="167.84" y="875.64" width="4.83" height="1.00" class="down-body"/>
<line x1="177.68" y1="876.88" x2="177.68" y2="885.73" class="up-wick"/>
<rect x="175.27" y="876.94" width="4.83" height="7.98" class="up-body"/>
<line x1="185.11" y1="879.09" x2="185.11" y2="883.14" class="up-wick"/>
<rect x="182.70" y="882.39" width="4.83" height="1.00" class="up-body"/>
<line x1="192.54" y1="859.24" x2="192.54" y2="879.31" class="down-wick"/>
<rect x="190.12" y="866.31" width="4.83" height="11.92" class="down-body"/>
<line x1="199.96" y1="879.90" x2="199.96" y2="887.46" class="up-wick"/>
<rect x="197.55" y="883.84" width="4.83" height="2.48" class="up-body"/>
<line x1="207.39" y1="893.72" x2="207.39" y2="906.34" class="up-wick"/>
<rect x="204.98" y="895.60" width="4.83" height="10.74" class="up-body"/>
<line x1="214.82" y1="890.53" x2="214.82" y2="896.84" class="up-wick"/>
<rect x="212.40" y="892.85" width="4.83" height="1.00" class="up-body"/>
<line x1="222.24" y1="884.49" x2="222.24" y2="889.29" class="down-wick"/>
<rect x="219.83" y="886.16" width="4.83" height="1.00" class="down-body"/>
<line x1="229.67" y1="894.96" x2="229.67" y2="911.19" class="down-wick"/>
<rect x="227.26" y="894.96" width="4.83" height="10.63" class="down-body"/>
<line x1="237.10" y1="893.93" x2="237.10" y2="901.38" class="up-wick"/>
<rect x="234.68" y="897.98" width="4.83" height="3.18" class="up-body"/>
<line x1="244.52" y1="886.97" x2="244.52" y2="894.15" class="up-wick"/>
<rect x="242.11" y="891.88" width="4.83" height="1.83" class="up-body"/>
<line x1="251.95" y1="887.56" x2="251.95" y2="894.42" class="up-wick"/>
<rect x="249.53" y="891.88" width="4.83" height="2.27" class="up-body"/>
<line x1="259.38" y1="887.73" x2="259.38" y2="896.52" class="down-wick"/>
<rect x="256.96" y="891.45" width="4.83" height="1.29" class="down-body"/>
<line x1="266.80" y1="900.46" x2="266.80" y2="921.39" class="down-wick"/>
<rect x="264.39" y="900.46" width="4.83" height="17.91" class="down-body"/>
<line x1="274.23" y1="910.66" x2="274.23" y2="917.29" class="up-wick"/>
<rect x="271.81" y="911.57" width="4.83" height="1.89" class="up-body"/>
<line x1="281.65" y1="901.21" x2="281.65" y2="911.14" class="up-wick"/>
<rect x="279.24" y="901.92" width="4.83" height="7.88" class="up-body"/>
<line x1="289.08" y1="908.07" x2="289.08" y2="931.05" class="down-wick"/>
<rect x="286.67" y="910.17" width="4.83" height="16.51" class="down-body"/>
<line x1="296.51" y1="917.35" x2="296.51" y2="950.42" class="down-wick"/>
<rect x="294.09" y="917.35" width="4.83" height="30.37" class="down-body"/>
<line x1="303.93" y1="940.92" x2="303.93" y2="956.24" class="up-wick"/>
<rect x="301.52" y="941.03" width="4.83" height="11.55" class="up-body"/>
<line x1="311.36" y1="927.27" x2="311.36" y2="935.74" class="up-wick"/>
<rect x="308.95" y="927.54" width="4.83" height="5.34" class="up-body"/>
<line x1="318.79" y1="929.21" x2="318.79" y2="935.58" class="up-wick"/>
<rect x="316.37" y="930.45" width="4.83" height="3.40" class="up-body"/>
<line x1="326.21" y1="914.92" x2="326.21" y2="924.52" class="down-wick"/>
<rect x="323.80" y="921.61" width="4.83" height="2.10" class="down-body"/>
<line x1="333.64" y1="926.35" x2="333.64" y2="934.02" class="up-wick"/>
<rect x="331.23" y="927.22" width="4.83" height="4.86" class="up-body"/>
<line x1="341.07" y1="927.81" x2="341.07" y2="940.27" class="up-wick"/>
<rect x="338.65" y="929.65" width="4.83" height="2.00" class="up-body"/>
<line x1="348.49" y1="919.56" x2="348.49" y2="927.00" class="up-wick"/>
<rect x="346.08" y="919.88" width="4.83" height="5.13" class="up-body"/>
<line x1="355.92" y1="945.99" x2="355.92" y2="963.96" class="down-wick"/>
<rect x="353.51" y="949.07" width="4.83" height="10.20" class="down-body"/>
<line x1="363.35" y1="975.07" x2="363.35" y2="1006.42" class="down-wick"/>
<rect x="360.93" y="975.72" width="4.83" height="10.74" class="down-body"/>
<line x1="370.77" y1="989.48" x2="370.77" y2="1024.76" class="up-wick"/>
<rect x="368.36" y="991.36" width="4.83" height="7.01" class="up-body"/>
<line x1="378.20" y1="972.97" x2="378.20" y2="1010.30" class="up-wick"/>
<rect x="375.78" y="974.15" width="4.83" height="27.57" class="up-body"/>
<line x1="385.62" y1="967.30" x2="385.62" y2="978.47" class="down-wick"/>
<rect x="383.21" y="971.94" width="4.83" height="5.02" class="down-body"/>
<line x1="393.05" y1="979.82" x2="393.05" y2="989.91" class="down-wick"/>
<rect x="390.64" y="979.98" width="4.83" height="5.45" class="down-body"/>
<line x1="400.48" y1="971.67" x2="400.48" y2="979.23" class="down-wick"/>
<rect x="398.06" y="972.97" width="4.83" height="5.02" class="down-body"/>
<line x1="407.90" y1="977.50" x2="407.90" y2="987.64" class="up-wick"/>
<rect x="405.49" y="981.01" width="4.83" height="2.59" class="up-body"/>
<line x1="415.33" y1="973.56" x2="415.33" y2="981.33" class="up-wick"/>
<rect x="412.92" y="977.07" width="4.83" height="1.62" class="up-body"/>
<line x1="422.76" y1="974.42" x2="422.76" y2="980.14" class="down-wick"/>
<rect x="420.34" y="975.66" width="4.83" height="1.19" class="down-body"/>
<line x1="430.18" y1="971.19" x2="430.18" y2="981.71" class="up-wick"/>
<rect x="427.77" y="973.29" width="4.83" height="7.98" class="up-body"/>
<line x1="437.61" y1="957.75" x2="437.61" y2="967.68" class="down-wick"/>
<rect x="435.20" y="965.85" width="4.83" height="1.13" class="down-body"/>
<line x1="445.04" y1="957.00" x2="445.04" y2="970.70" class="up-wick"/>
<rect x="442.62" y="959.43" width="4.83" height="9.01" class="up-body"/>
<line x1="452.46" y1="959.48" x2="452.46" y2="965.52" class="up-wick"/>
<rect x="450.05" y="960.99" width="4.83" height="4.53" class="up-body"/>
<line x1="459.89" y1="960.56" x2="459.89" y2="965.25" class="down-wick"/>
<rect x="457.48" y="960.61" width="4.83" height="2.05" class="down-body"/>
<line x1="467.32" y1="962.66" x2="467.32" y2="980.74" class="down-wick"/>
<rect x="464.90" y="964.93" width="4.83" height="15.38" class="down-body"/>
<line x1="474.74" y1="969.73" x2="474.74" y2="987.70" class="down-wick"/>
<rect x="472.33" y="975.50" width="4.83" height="6.91" class="down-body"/>
<line x1="482.17" y1="979.01" x2="482.17" y2="986.18" class="down-wick"/>
<rect x="479.76" y="981.71" width="4.83" height="4.26" class="down-body"/>
<line x1="489.60" y1="972.91" x2="489.60" y2="991.20" class="up-wick"/>
<rect x="487.18" y="974.80" width="4.83" height="11.60" class="up-body"/>
<line x1="497.02" y1="976.91" x2="497.02" y2="982.52" class="up-wick"/>
<rect x="494.61" y="979.12" width="4.83" height="2.75" class="up-body"/>
<line x1="504.45" y1="972.91" x2="504.45" y2="979.33" class="down-wick"/>
<rect x="502.03" y="974.75" width="4.83" height="1.00" class="down-body"/>
<line x1="511.88" y1="960.61" x2="511.88" y2="974.53" class="up-wick"/>
<rect x="509.46" y="964.60" width="4.83" height="9.93" class="up-body"/>
<line x1="519.30" y1="958.35" x2="519.30" y2="963.58" class="down-wick"/>
<rect x="516.89" y="961.10" width="4.83" height="1.67" class="down-body"/>
<line x1="526.73" y1="960.13" x2="526.73" y2="974.53" class="down-wick"/>
<rect x="524.31" y="962.12" width="4.83" height="12.41" class="down-body"/>
<line x1="534.15" y1="970.22" x2="534.15" y2="975.50" class="down-wick"/>
<rect x="531.74" y="971.73" width="4.83" height="2.70" class="down-body"/>
<line x1="541.58" y1="969.68" x2="541.58" y2="977.07" class="up-wick"/>
<rect x="539.17" y="970.54" width="4.83" height="3.99" class="up-body"/>
<line x1="549.01" y1="961.80" x2="549.01" y2="967.25" class="up-wick"/>
<rect x="546.59" y="964.87" width="4.83" height="1.67" class="up-body"/>
<line x1="556.43" y1="947.07" x2="556.43" y2="964.23" class="up-wick"/>
<rect x="554.02" y="953.11" width="4.83" height="4.10" class="up-body"/>
<line x1="563.86" y1="955.97" x2="563.86" y2="962.66" class="down-wick"/>
<rect x="561.45" y="957.75" width="4.83" height="2.43" class="down-body"/>
<line x1="571.29" y1="961.15" x2="571.29" y2="967.68" class="down-wick"/>
<rect x="568.87" y="961.15" width="4.83" height="5.39" class="down-body"/>
<line x1="578.71" y1="967.57" x2="578.71" y2="978.58" class="up-wick"/>
<rect x="576.30" y="973.29" width="4.83" height="1.00" class="up-body"/>
<line x1="586.14" y1="977.61" x2="586.14" y2="1001.99" class="down-wick"/>
<rect x="583.73" y="980.63" width="4.83" height="11.49" class="down-body"/>
<line x1="593.57" y1="978.69" x2="593.57" y2="984.89" class="up-wick"/>
<rect x="591.15" y="980.68" width="4.83" height="3.99" class="up-body"/>
<line x1="600.99" y1="977.93" x2="600.99" y2="990.93" class="down-wick"/>
<rect x="598.58" y="980.25" width="4.83" height="9.39" class="down-body"/>
<line x1="608.42" y1="980.79" x2="608.42" y2="993.04" class="up-wick"/>
<rect x="606.01" y="990.77" width="4.83" height="2.27" class="up-body"/>
<line x1="615.85" y1="968.27" x2="615.85" y2="980.79" class="up-wick"/>
<rect x="613.43" y="969.73" width="4.83" height="11.06" class="up-body"/>
<line x1="623.27" y1="968.06" x2="623.27" y2="973.56" class="up-wick"/>
<rect x="620.86" y="968.49" width="4.83" height="5.07" class="up-body"/>
<line x1="630.70" y1="967.03" x2="630.70" y2="972.75" class="down-wick"/>
<rect x="628.28" y="967.84" width="4.83" height="4.48" class="down-body"/>
<line x1="638.12" y1="956.73" x2="638.12" y2="975.13" class="up-wick"/>
<rect x="635.71" y="965.74" width="4.83" height="9.23" class="up-body"/>
<line x1="645.55" y1="973.99" x2="645.55" y2="988.56" class="down-wick"/>
<rect x="643.14" y="974.15" width="4.83" height="13.00" class="down-body"/>
<line x1="652.98" y1="979.98" x2="652.98" y2="986.40" class="up-wick"/>
<rect x="650.56" y="981.44" width="4.83" height="1.00" class="up-body"/>
<line x1="660.40" y1="979.49" x2="660.40" y2="984.73" class="down-wick"/>
<rect x="657.99" y="979.49" width="4.83" height="1.00" class="down-body"/>
<line x1="667.83" y1="944.64" x2="667.83" y2="966.98" class="up-wick"/>
<rect x="665.42" y="946.80" width="4.83" height="19.48" class="up-body"/>
<line x1="675.26" y1="934.82" x2="675.26" y2="941.08" class="up-wick"/>
<rect x="672.84" y="935.09" width="4.83" height="1.00" class="up-body"/>
<line x1="682.68" y1="929.16" x2="682.68" y2="937.14" class="down-wick"/>
<rect x="680.27" y="930.83" width="4.83" height="1.00" class="down-body"/>
<line x1="690.11" y1="916.21" x2="690.11" y2="932.40" class="up-wick"/>
<rect x="687.70" y="922.96" width="4.83" height="9.44" class="up-body"/>
<line x1="697.54" y1="924.74" x2="697.54" y2="930.62" class="up-wick"/>
<rect x="695.12" y="925.33" width="4.83" height="2.21" class="up-body"/>
<line x1="704.96" y1="919.13" x2="704.96" y2="924.20" class="up-wick"/>
<rect x="702.55" y="919.13" width="4.83" height="4.64" class="up-body"/>
<line x1="712.39" y1="914.27" x2="712.39" y2="919.88" class="down-wick"/>
<rect x="709.98" y="916.75" width="4.83" height="1.00" class="down-body"/>
<line x1="719.82" y1="923.98" x2="719.82" y2="925.71" class="down-wick"/>
<rect x="717.40" y="925.28" width="4.83" height="1.00" class="down-body"/>
<line x1="727.24" y1="909.09" x2="727.24" y2="923.23" class="down-wick"/>
<rect x="724.83" y="916.16" width="4.83" height="6.53" class="down-body"/>
<line x1="734.67" y1="915.83" x2="734.67" y2="922.52" class="down-wick"/>
<rect x="732.26" y="917.40" width="4.83" height="2.21" class="down-body"/>
<line x1="742.10" y1="916.32" x2="742.10" y2="928.40" class="down-wick"/>
<rect x="739.68" y="916.37" width="4.83" height="7.55" class="down-body"/>
<line x1="749.52" y1="931.64" x2="749.52" y2="937.31" class="down-wick"/>
<rect x="747.11" y="931.86" width="4.83" height="2.21" class="down-body"/>
<line x1="756.95" y1="924.57" x2="756.95" y2="928.24" class="down-wick"/>
<rect x="754.53" y="925.82" width="4.83" height="1.51" class="down-body"/>
<line x1="764.38" y1="924.68" x2="764.38" y2="927.65" class="down-wick"/>
<rect x="761.96" y="926.25" width="4.83" height="1.03" class="down-body"/>
<line x1="771.80" y1="925.06" x2="771.80" y2="927.87" class="up-wick"/>
<rect x="769.39" y="925.98" width="4.83" height="1.00" class="up-body"/>
<line x1="779.23" y1="918.53" x2="779.23" y2="925.06" class="up-wick"/>
<rect x="776.81" y="920.04" width="4.83" height="1.00" class="up-body"/>
<line x1="786.65" y1="916.64" x2="786.65" y2="920.42" class="down-wick"/>
<rect x="784.24" y="918.48" width="4.83" height="1.08" class="down-body"/>
<line x1="794.08" y1="918.69" x2="794.08" y2="922.09" class="down-wick"/>
<rect x="791.67" y="919.61" width="4.83" height="1.40" class="down-body"/>
<line x1="801.51" y1="905.69" x2="801.51" y2="912.11" class="up-wick"/>
<rect x="799.09" y="906.72" width="4.83" height="2.00" class="up-body"/>
<line x1="808.93" y1="887.51" x2="808.93" y2="907.15" class="up-wick"/>
<rect x="806.52" y="895.50" width="4.83" height="11.65" class="up-body"/>
<line x1="816.36" y1="892.96" x2="816.36" y2="897.33" class="up-wick"/>
<rect x="813.95" y="894.47" width="4.83" height="1.78" class="up-body"/>
<line x1="823.79" y1="894.09" x2="823.79" y2="898.09" class="down-wick"/>
<rect x="821.37" y="895.60" width="4.83" height="1.19" class="down-body"/>
<line x1="831.21" y1="892.42" x2="831.21" y2="897.87" class="down-wick"/>
<rect x="828.80" y="894.42" width="4.83" height="2.10" class="down-body"/>
<line x1="838.64" y1="889.78" x2="838.64" y2="896.03" class="up-wick"/>
<rect x="836.23" y="894.74" width="4.83" height="1.00" class="up-body"/>
<line x1="846.07" y1="894.52" x2="846.07" y2="901.92" class="down-wick"/>
<rect x="843.65" y="898.09" width="4.83" height="2.10" class="down-body"/>
<line x1="853.49" y1="894.47" x2="853.49" y2="907.63" class="up-wick"/>
<rect x="851.08" y="894.63" width="4.83" height="9.44" class="up-body"/>
<line x1="860.92" y1="884.87" x2="860.92" y2="896.95" class="down-wick"/>
<rect x="858.51" y="890.26" width="4.83" height="6.37" class="down-body"/>
<line x1="868.35" y1="899.38" x2="868.35" y2="905.69" class="down-wick"/>
<rect x="865.93" y="899.38" width="4.83" height="3.67" class="down-body"/>
<line x1="875.77" y1="897.06" x2="875.77" y2="899.43" class="up-wick"/>
<rect x="873.36" y="898.35" width="4.83" height="1.00" class="up-body"/>
<line x1="883.20" y1="890.59" x2="883.20" y2="899.27" class="down-wick"/>
<rect x="880.78" y="893.88" width="4.83" height="1.00" class="down-body"/>
<line x1="890.62" y1="891.99" x2="890.62" y2="894.20" class="up-wick"/>
<rect x="888.21" y="892.91" width="4.83" height="1.00" class="up-body"/>
<line x1="898.05" y1="886.76" x2="898.05" y2="893.23" class="down-wick"/>
<rect x="895.64" y="889.29" width="4.83" height="3.61" class="down-body"/>
<line x1="905.48" y1="881.90" x2="905.48" y2="895.06" class="up-wick"/>
<rect x="903.06" y="885.57" width="4.83" height="4.48" class="up-body"/>
<line x1="912.90" y1="878.12" x2="912.90" y2="886.38" class="up-wick"/>
<rect x="910.49" y="882.12" width="4.83" height="1.13" class="up-body"/>
<line x1="920.33" y1="880.01" x2="920.33" y2="884.49" class="down-wick"/>
<rect x="917.92" y="882.82" width="4.83" height="1.00" class="down-body"/>
<line x1="927.76" y1="889.99" x2="927.76" y2="893.61" class="down-wick"/>
<rect x="925.34" y="892.20" width="4.83" height="1.00" class="down-body"/>
<line x1="935.18" y1="892.69" x2="935.18" y2="895.23" class="up-wick"/>
<rect x="932.77" y="894.52" width="4.83" height="1.00" class="up-body"/>
<line x1="942.61" y1="894.58" x2="942.61" y2="900.57" class="down-wick"/>
<rect x="940.20" y="895.33" width="4.83" height="4.59" class="down-body"/>
<line x1="950.04" y1="897.55" x2="950.04" y2="902.89" class="up-wick"/>
<rect x="947.62" y="897.55" width="4.83" height="4.10" class="up-body"/>
<line x1="957.46" y1="891.45" x2="957.46" y2="901.59" class="down-wick"/>
<rect x="955.05" y="895.33" width="4.83" height="5.45" class="down-body"/>
<line x1="964.89" y1="893.77" x2="964.89" y2="902.56" class="down-wick"/>
<rect x="962.48" y="893.82" width="4.83" height="7.71" class="down-body"/>
<line x1="972.32" y1="898.84" x2="972.32" y2="903.26" class="down-wick"/>
<rect x="969.90" y="900.94" width="4.83" height="2.21" class="down-body"/>
<line x1="979.74" y1="901.92" x2="979.74" y2="904.56" class="up-wick"/>
<rect x="977.33" y="902.78" width="4.83" height="1.00" class="up-body"/>
<line x1="987.17" y1="901.43" x2="987.17" y2="907.47" class="down-wick"/>
<rect x="984.76" y="903.97" width="4.83" height="1.83" class="down-body"/>
<line x1="994.60" y1="899.22" x2="994.60" y2="908.87" class="up-wick"/>
<rect x="992.18" y="899.27" width="4.83" height="9.55" class="up-body"/>
<line x1="1002.02" y1="893.61" x2="1002.02" y2="899.70" class="down-wick"/>
<rect x="999.61" y="895.82" width="4.83" height="1.78" class="down-body"/>
<line x1="1009.45" y1="894.47" x2="1009.45" y2="904.61" class="up-wick"/>
<rect x="1007.03" y="896.47" width="4.83" height="5.56" class="up-body"/>
<line x1="1016.88" y1="901.38" x2="1016.88" y2="908.50" class="up-wick"/>
<rect x="1014.46" y="901.48" width="4.83" height="1.00" class="up-body"/>
<line x1="1024.30" y1="906.34" x2="1024.30" y2="908.82" class="up-wick"/>
<rect x="1021.89" y="908.07" width="4.83" height="1.00" class="up-body"/>
<line x1="1031.73" y1="910.12" x2="1031.73" y2="915.03" class="down-wick"/>
<rect x="1029.31" y="914.16" width="4.83" height="1.00" class="down-body"/>
<line x1="1039.15" y1="901.70" x2="1039.15" y2="915.35" class="up-wick"/>
<rect x="1036.74" y="908.34" width="4.83" height="6.69" class="up-body"/>
<line x1="1046.58" y1="899.92" x2="1046.58" y2="908.01" class="down-wick"/>
<rect x="1044.17" y="901.21" width="4.83" height="5.50" class="down-body"/>
<line x1="1054.01" y1="902.24" x2="1054.01" y2="904.88" class="up-wick"/>
<rect x="1051.59" y="904.07" width="4.83" height="1.00" class="up-body"/>
<line x1="1061.43" y1="894.20" x2="1061.43" y2="901.65" class="up-wick"/>
<rect x="1059.02" y="895.77" width="4.83" height="4.75" class="up-body"/>
<line x1="1068.86" y1="889.72" x2="1068.86" y2="895.93" class="up-wick"/>
<rect x="1066.45" y="890.80" width="4.83" height="5.13" class="up-body"/>
<line x1="1076.29" y1="888.37" x2="1076.29" y2="893.93" class="up-wick"/>
<rect x="1073.87" y="888.86" width="4.83" height="1.94" class="up-body"/>
<line x1="70" y1="964.98" x2="1080" y2="964.98" class="number-line"/>
<text x="1076" y="960.98" text-anchor="end" class="level-label">round 4980.00</text>
<line x1="70" y1="964.98" x2="1080" y2="964.98" class="entry-line"/>
<text x="1076" y="960.98" text-anchor="end" class="level-label">entry level 4980.00</text>
<text x="70" y="1056" class="axis-label">2026-02-16 15:45:00+00:00 to 2026-02-16 20:15:00+00:00</text>
<text x="1080" y="1056" text-anchor="end" class="axis-label">4966.47 - 5002.05</text>
</svg>