<svg xmlns="http://www.w3.org/2000/svg" width="1120" height="1054" viewBox="0 0 1120 1054">
<style>
text{font-family:Arial,Helvetica,sans-serif}.title{font-size:21px;font-weight:700;fill:#1f2937}.subtitle{font-size:12px;fill:#4b5563}.panel-title{font-size:15px;font-weight:700;fill:#111827}.muted{font-size:13px;fill:#6b7280}.plot-bg{fill:#f8fafc;stroke:#cbd5e1;stroke-width:1}.up-body{fill:#15803d;stroke:#14532d;stroke-width:.8}.down-body{fill:#b91c1c;stroke:#7f1d1d;stroke-width:.8}.up-wick{stroke:#14532d;stroke-width:1}.down-wick{stroke:#7f1d1d;stroke-width:1}.sweep-line{stroke:#7c3aed;stroke-width:1.6;stroke-dasharray:6 4}.number-line{stroke:#0f766e;stroke-width:1.4;stroke-dasharray:3 4}.entry-line{stroke:#2563eb;stroke-width:1.4}.sl-line{stroke:#dc2626;stroke-width:1.4}.tp-line{stroke:#16a34a;stroke-width:1.4}.level-label,.axis-label{font-size:11px;fill:#374151}
</style>
<text x="28" y="28" class="title">Adelin v2 visual review sample sample_056</text>
<text x="28" y="48" class="subtitle">Candidate windows are for visual labeling only and are not trade signals.</text>
<text x="560" y="48" class="subtitle" text-anchor="middle">ASIA_OPEN_CONTEXT</text>
<text x="70" y="82" class="panel-title">H1 liquidity context</text>
<rect x="70" y="96" width="1010" height="192" class="plot-bg"/>
<line x1="81.22" y1="229.90" x2="81.22" y2="274.76" class="down-wick"/>
<rect x="77.22" y="238.48" width="8.00" height="1.48" class="down-body"/>
<line x1="103.67" y1="210.65" x2="103.67" y2="246.57" class="up-wick"/>
<rect x="99.67" y="231.79" width="8.00" height="8.15" class="up-body"/>
<line x1="126.11" y1="168.79" x2="126.11" y2="232.61" class="up-wick"/>
<rect x="122.11" y="177.02" width="8.00" height="54.73" class="up-body"/>
<line x1="148.56" y1="166.01" x2="148.56" y2="185.96" class="up-wick"/>
<rect x="144.56" y="169.04" width="8.00" height="7.98" class="up-body"/>
<line x1="171.00" y1="168.19" x2="171.00" y2="184.29" class="down-wick"/>
<rect x="167.00" y="169.04" width="8.00" height="7.34" class="down-body"/>
<line x1="193.44" y1="159.95" x2="193.44" y2="185.22" class="down-wick"/>
<rect x="189.44" y="176.39" width="8.00" height="4.92" class="down-body"/>
<line x1="215.89" y1="171.07" x2="215.89" y2="214.29" class="down-wick"/>
<rect x="211.89" y="181.27" width="8.00" height="31.36" class="down-body"/>
<line x1="238.33" y1="189.41" x2="238.33" y2="212.98" class="up-wick"/>
<rect x="234.33" y="191.06" width="8.00" height="21.58" class="up-body"/>
<line x1="260.78" y1="175.07" x2="260.78" y2="207.70" class="up-wick"/>
<rect x="256.78" y="182.90" width="8.00" height="8.14" class="up-body"/>
<line x1="283.22" y1="167.86" x2="283.22" y2="186.64" class="up-wick"/>
<rect x="279.22" y="175.06" width="8.00" height="7.84" class="up-body"/>
<line x1="305.67" y1="174.91" x2="305.67" y2="197.14" class="down-wick"/>
<rect x="301.67" y="175.06" width="8.00" height="12.82" class="down-body"/>
<line x1="328.11" y1="177.05" x2="328.11" y2="211.94" class="down-wick"/>
<rect x="324.11" y="187.87" width="8.00" height="21.00" class="down-body"/>
<line x1="350.56" y1="203.22" x2="350.56" y2="225.87" class="up-wick"/>
<rect x="346.56" y="204.74" width="8.00" height="4.12" class="up-body"/>
<line x1="373.00" y1="184.04" x2="373.00" y2="206.59" class="up-wick"/>
<rect x="369.00" y="188.67" width="8.00" height="16.25" class="up-body"/>
<line x1="395.44" y1="157.65" x2="395.44" y2="201.07" class="up-wick"/>
<rect x="391.44" y="170.46" width="8.00" height="18.20" class="up-body"/>
<line x1="417.89" y1="145.49" x2="417.89" y2="194.15" class="up-wick"/>
<rect x="413.89" y="161.57" width="8.00" height="8.89" class="up-body"/>
<line x1="440.33" y1="135.65" x2="440.33" y2="184.01" class="down-wick"/>
<rect x="436.33" y="161.46" width="8.00" height="19.74" class="down-body"/>
<line x1="462.78" y1="121.80" x2="462.78" y2="182.55" class="up-wick"/>
<rect x="458.78" y="148.91" width="8.00" height="32.26" class="up-body"/>
<line x1="485.22" y1="126.73" x2="485.22" y2="150.90" class="up-wick"/>
<rect x="481.22" y="135.25" width="8.00" height="13.66" class="up-body"/>
<line x1="507.67" y1="120.21" x2="507.67" y2="141.09" class="up-wick"/>
<rect x="503.67" y="124.74" width="8.00" height="10.50" class="up-body"/>
<line x1="530.11" y1="109.24" x2="530.11" y2="132.75" class="down-wick"/>
<rect x="526.11" y="124.73" width="8.00" height="8.02" class="down-body"/>
<line x1="552.56" y1="121.02" x2="552.56" y2="134.79" class="up-wick"/>
<rect x="548.56" y="123.31" width="8.00" height="9.30" class="up-body"/>
<line x1="575.00" y1="109.36" x2="575.00" y2="126.47" class="up-wick"/>
<rect x="571.00" y="113.04" width="8.00" height="10.37" class="up-body"/>
<line x1="597.44" y1="111.60" x2="597.44" y2="146.51" class="down-wick"/>
<rect x="593.44" y="121.54" width="8.00" height="14.51" class="down-body"/>
<line x1="619.89" y1="133.46" x2="619.89" y2="156.90" class="down-wick"/>
<rect x="615.89" y="136.05" width="8.00" height="4.96" class="down-body"/>
<line x1="642.33" y1="124.76" x2="642.33" y2="149.80" class="up-wick"/>
<rect x="638.33" y="127.10" width="8.00" height="13.93" class="up-body"/>
<line x1="664.78" y1="124.67" x2="664.78" y2="165.12" class="down-wick"/>
<rect x="660.78" y="127.08" width="8.00" height="35.57" class="down-body"/>
<line x1="687.22" y1="157.08" x2="687.22" y2="181.42" class="down-wick"/>
<rect x="683.22" y="162.65" width="8.00" height="7.37" class="down-body"/>
<line x1="709.67" y1="165.22" x2="709.67" y2="184.97" class="down-wick"/>
<rect x="705.67" y="170.02" width="8.00" height="10.14" class="down-body"/>
<line x1="732.11" y1="166.65" x2="732.11" y2="192.86" class="up-wick"/>
<rect x="728.11" y="166.82" width="8.00" height="13.34" class="up-body"/>
<line x1="754.56" y1="153.86" x2="754.56" y2="172.55" class="up-wick"/>
<rect x="750.56" y="162.43" width="8.00" height="4.34" class="up-body"/>
<line x1="777.00" y1="146.64" x2="777.00" y2="168.51" class="up-wick"/>
<rect x="773.00" y="149.43" width="8.00" height="13.00" class="up-body"/>
<line x1="799.44" y1="143.25" x2="799.44" y2="161.45" class="up-wick"/>
<rect x="795.44" y="148.68" width="8.00" height="1.00" class="up-body"/>
<line x1="821.89" y1="139.21" x2="821.89" y2="148.86" class="up-wick"/>
<rect x="817.89" y="143.07" width="8.00" height="5.60" class="up-body"/>
<line x1="844.33" y1="139.18" x2="844.33" y2="156.78" class="down-wick"/>
<rect x="840.33" y="143.07" width="8.00" height="7.74" class="down-body"/>
<line x1="866.78" y1="148.67" x2="866.78" y2="158.20" class="down-wick"/>
<rect x="862.78" y="150.82" width="8.00" height="1.69" class="down-body"/>
<line x1="889.22" y1="148.70" x2="889.22" y2="164.43" class="down-wick"/>
<rect x="885.22" y="152.50" width="8.00" height="2.54" class="down-body"/>
<line x1="911.67" y1="153.28" x2="911.67" y2="167.88" class="down-wick"/>
<rect x="907.67" y="155.04" width="8.00" height="4.82" class="down-body"/>
<line x1="934.11" y1="157.53" x2="934.11" y2="176.19" class="down-wick"/>
<rect x="930.11" y="159.86" width="8.00" height="9.34" class="down-body"/>
<line x1="956.56" y1="169.22" x2="956.56" y2="189.37" class="down-wick"/>
<rect x="952.56" y="169.22" width="8.00" height="8.96" class="down-body"/>
<line x1="979.00" y1="167.12" x2="979.00" y2="184.99" class="up-wick"/>
<rect x="975.00" y="169.42" width="8.00" height="8.76" class="up-body"/>
<line x1="1001.44" y1="161.17" x2="1001.44" y2="169.50" class="up-wick"/>
<rect x="997.44" y="165.66" width="8.00" height="3.79" class="up-body"/>
<line x1="1023.89" y1="159.41" x2="1023.89" y2="168.91" class="up-wick"/>
<rect x="1019.89" y="162.69" width="8.00" height="2.91" class="up-body"/>
<line x1="1046.33" y1="160.90" x2="1046.33" y2="166.92" class="down-wick"/>
<rect x="1042.33" y="162.70" width="8.00" height="1.41" class="down-body"/>
<line x1="1068.78" y1="156.05" x2="1068.78" y2="172.45" class="down-wick"/>
<rect x="1064.78" y="161.94" width="8.00" height="5.79" class="down-body"/>
<text x="70" y="306" class="axis-label">2026-02-13 01:00:00+00:00 to 2026-02-17 01:00:00+00:00</text>
<text x="1080" y="306" text-anchor="end" class="axis-label">4873.89 - 5058.89</text>
<text x="70" y="332" class="panel-title">M15 liquidity / reaction context</text>
<rect x="70" y="346" width="1010" height="192" class="plot-bg"/>
<line x1="90.20" y1="359.24" x2="90.20" y2="430.35" class="down-wick"/>
<rect x="86.20" y="379.49" width="8.00" height="24.92" class="down-body"/>
<line x1="130.60" y1="383.57" x2="130.60" y2="406.85" class="up-wick"/>
<rect x="126.60" y="390.04" width="8.00" height="14.40" class="up-body"/>
<line x1="171.00" y1="385.24" x2="171.00" y2="415.75" class="down-wick"/>
<rect x="167.00" y="390.04" width="8.00" height="22.03" class="down-body"/>
<line x1="211.40" y1="406.44" x2="211.40" y2="423.17" class="up-wick"/>
<rect x="207.40" y="409.04" width="8.00" height="3.00" class="up-body"/>
<line x1="251.80" y1="405.77" x2="251.80" y2="451.51" class="down-wick"/>
<rect x="247.80" y="409.04" width="8.00" height="6.05" class="down-body"/>
<line x1="292.20" y1="406.93" x2="292.20" y2="434.03" class="down-wick"/>
<rect x="288.20" y="415.13" width="8.00" height="10.82" class="down-body"/>
<line x1="332.60" y1="420.76" x2="332.60" y2="433.04" class="up-wick"/>
<rect x="328.60" y="422.17" width="8.00" height="3.38" class="up-body"/>
<line x1="373.00" y1="403.78" x2="373.00" y2="429.72" class="up-wick"/>
<rect x="369.00" y="419.15" width="8.00" height="3.02" class="up-body"/>
<line x1="413.40" y1="401.82" x2="413.40" y2="437.05" class="up-wick"/>
<rect x="409.40" y="402.96" width="8.00" height="16.23" class="up-body"/>
<line x1="453.80" y1="386.09" x2="453.80" y2="403.72" class="up-wick"/>
<rect x="449.80" y="390.00" width="8.00" height="12.96" class="up-body"/>
<line x1="494.20" y1="386.05" x2="494.20" y2="396.21" class="up-wick"/>
<rect x="490.20" y="387.61" width="8.00" height="2.39" class="up-body"/>
<line x1="534.60" y1="386.93" x2="534.60" y2="397.99" class="down-wick"/>
<rect x="530.60" y="387.61" width="8.00" height="3.21" class="down-body"/>
<line x1="575.00" y1="385.88" x2="575.00" y2="408.45" class="down-wick"/>
<rect x="571.00" y="390.78" width="8.00" height="14.52" class="down-body"/>
<line x1="615.40" y1="396.45" x2="615.40" y2="412.09" class="down-wick"/>
<rect x="611.40" y="404.84" width="8.00" height="5.83" class="down-body"/>
<line x1="655.80" y1="405.75" x2="655.80" y2="447.03" class="down-wick"/>
<rect x="651.80" y="410.59" width="8.00" height="36.30" class="down-body"/>
<line x1="696.20" y1="445.02" x2="696.20" y2="468.25" class="down-wick"/>
<rect x="692.20" y="446.90" width="8.00" height="16.32" class="down-body"/>
<line x1="736.60" y1="451.87" x2="736.60" y2="475.97" class="up-wick"/>
<rect x="732.60" y="457.14" width="8.00" height="6.09" class="up-body"/>
<line x1="777.00" y1="454.92" x2="777.00" y2="465.34" class="down-wick"/>
<rect x="773.00" y="457.14" width="8.00" height="5.50" class="down-body"/>
<line x1="817.40" y1="458.74" x2="817.40" y2="476.69" class="down-wick"/>
<rect x="813.40" y="462.61" width="8.00" height="8.58" class="down-body"/>
<line x1="857.80" y1="465.17" x2="857.80" y2="501.46" class="down-wick"/>
<rect x="853.80" y="471.19" width="8.00" height="7.04" class="down-body"/>
<line x1="898.20" y1="468.47" x2="898.20" y2="507.97" class="down-wick"/>
<rect x="894.20" y="478.23" width="8.00" height="23.06" class="down-body"/>
<line x1="938.60" y1="493.85" x2="938.60" y2="508.69" class="down-wick"/>
<rect x="934.60" y="501.23" width="8.00" height="1.00" class="down-body"/>
<line x1="979.00" y1="497.70" x2="979.00" y2="507.72" class="down-wick"/>
<rect x="975.00" y="501.89" width="8.00" height="1.00" class="down-body"/>
<line x1="1019.40" y1="493.83" x2="1019.40" y2="506.39" class="up-wick"/>
<rect x="1015.40" y="498.88" width="8.00" height="3.49" class="up-body"/>
<line x1="1059.80" y1="481.91" x2="1059.80" y2="524.76" class="up-wick"/>
<rect x="1055.80" y="486.88" width="8.00" height="12.01" class="up-body"/>
<text x="70" y="556" class="axis-label">2026-02-16 01:00:00+00:00 to 2026-02-16 07:00:00+00:00</text>
<text x="1080" y="556" text-anchor="end" class="axis-label">4959.30 - 5050.12</text>
<text x="70" y="582" class="panel-title">M5 reaction / execution context</text>
<rect x="70" y="596" width="1010" height="192" class="plot-bg"/>
<line x1="83.65" y1="609.24" x2="83.65" y2="727.09" class="down-wick"/>
<rect x="79.65" y="645.57" width="8.00" height="73.11" class="down-body"/>
<line x1="110.95" y1="688.26" x2="110.95" y2="736.80" class="up-wick"/>
<rect x="106.95" y="688.26" width="8.00" height="30.11" class="up-body"/>
<line x1="138.24" y1="680.61" x2="138.24" y2="724.06" class="down-wick"/>
<rect x="134.24" y="688.26" width="8.00" height="2.01" class="down-body"/>
<line x1="165.54" y1="652.89" x2="165.54" y2="694.64" class="up-wick"/>
<rect x="161.54" y="678.06" width="8.00" height="12.25" class="up-body"/>
<line x1="192.84" y1="659.48" x2="192.84" y2="693.00" class="up-wick"/>
<rect x="188.84" y="677.31" width="8.00" height="1.00" class="up-body"/>
<line x1="220.14" y1="659.79" x2="220.14" y2="677.31" class="up-wick"/>
<rect x="216.14" y="664.49" width="8.00" height="12.82" class="up-body"/>
<line x1="247.43" y1="657.44" x2="247.43" y2="673.97" class="up-wick"/>
<rect x="243.43" y="663.50" width="8.00" height="1.00" class="up-body"/>
<line x1="274.73" y1="658.42" x2="274.73" y2="692.55" class="down-wick"/>
<rect x="270.73" y="663.50" width="8.00" height="13.01" class="down-body"/>
<line x1="302.03" y1="655.88" x2="302.03" y2="710.60" class="down-wick"/>
<rect x="298.03" y="676.47" width="8.00" height="27.53" class="down-body"/>
<line x1="329.32" y1="697.86" x2="329.32" y2="723.91" class="down-wick"/>
<rect x="325.32" y="703.96" width="8.00" height="15.02" class="down-body"/>
<line x1="356.62" y1="701.46" x2="356.62" y2="721.37" class="up-wick"/>
<rect x="352.62" y="702.83" width="8.00" height="16.15" class="up-body"/>
<line x1="383.92" y1="693.91" x2="383.92" y2="708.82" class="up-wick"/>
<rect x="379.92" y="698.58" width="8.00" height="4.47" class="up-body"/>
<line x1="411.22" y1="692.70" x2="411.22" y2="774.76" class="down-wick"/>
<rect x="407.22" y="698.58" width="8.00" height="47.02" class="down-body"/>
<line x1="438.51" y1="711.89" x2="438.51" y2="744.12" class="up-wick"/>
<rect x="434.51" y="716.14" width="8.00" height="27.98" class="up-body"/>
<line x1="465.81" y1="706.43" x2="465.81" y2="727.93" class="up-wick"/>
<rect x="461.81" y="709.42" width="8.00" height="6.71" class="up-body"/>
<line x1="493.11" y1="694.79" x2="493.11" y2="716.59" class="up-wick"/>
<rect x="489.11" y="706.20" width="8.00" height="3.30" class="up-body"/>
<line x1="520.41" y1="705.03" x2="520.41" y2="727.74" class="down-wick"/>
<rect x="516.41" y="706.20" width="8.00" height="13.35" class="down-body"/>
<line x1="547.70" y1="717.77" x2="547.70" y2="743.40" class="down-wick"/>
<rect x="543.70" y="718.30" width="8.00" height="10.62" class="down-body"/>
<line x1="575.00" y1="720.69" x2="575.00" y2="741.62" class="down-wick"/>
<rect x="571.00" y="728.19" width="8.00" height="10.16" class="down-body"/>
<line x1="602.30" y1="723.00" x2="602.30" y2="740.82" class="up-wick"/>
<rect x="598.30" y="723.72" width="8.00" height="14.64" class="up-body"/>
<line x1="629.59" y1="719.59" x2="629.59" y2="726.26" class="up-wick"/>
<rect x="625.59" y="722.13" width="8.00" height="1.52" class="up-body"/>
<line x1="656.89" y1="705.67" x2="656.89" y2="735.66" class="up-wick"/>
<rect x="652.89" y="706.24" width="8.00" height="15.89" class="up-body"/>
<line x1="684.19" y1="689.14" x2="684.19" y2="710.14" class="up-wick"/>
<rect x="680.19" y="698.92" width="8.00" height="7.32" class="up-body"/>
<line x1="711.49" y1="691.72" x2="711.49" y2="718.79" class="down-wick"/>
<rect x="707.49" y="698.92" width="8.00" height="17.78" class="down-body"/>
<line x1="738.78" y1="708.02" x2="738.78" y2="748.82" class="up-wick"/>
<rect x="734.78" y="711.93" width="8.00" height="4.85" class="up-body"/>
<line x1="766.08" y1="691.60" x2="766.08" y2="711.89" class="up-wick"/>
<rect x="762.08" y="693.08" width="8.00" height="18.81" class="up-body"/>
<line x1="793.38" y1="685.61" x2="793.38" y2="710.94" class="up-wick"/>
<rect x="789.38" y="687.66" width="8.00" height="5.42" class="up-body"/>
<line x1="820.68" y1="663.20" x2="820.68" y2="689.02" class="up-wick"/>
<rect x="816.68" y="665.51" width="8.00" height="22.14" class="up-body"/>
<line x1="847.97" y1="657.40" x2="847.97" y2="679.62" class="down-wick"/>
<rect x="843.97" y="665.48" width="8.00" height="7.17" class="down-body"/>
<line x1="875.27" y1="657.93" x2="875.27" y2="672.57" class="up-wick"/>
<rect x="871.27" y="664.41" width="8.00" height="8.04" class="up-body"/>
<line x1="902.57" y1="657.32" x2="902.57" y2="675.56" class="down-wick"/>
<rect x="898.57" y="664.41" width="8.00" height="1.00" class="down-body"/>
<line x1="929.86" y1="659.26" x2="929.86" y2="673.29" class="down-wick"/>
<rect x="925.86" y="664.83" width="8.00" height="3.03" class="down-body"/>
<line x1="957.16" y1="659.48" x2="957.16" y2="670.78" class="up-wick"/>
<rect x="953.16" y="660.13" width="8.00" height="7.74" class="up-body"/>
<line x1="984.46" y1="658.92" x2="984.46" y2="667.86" class="down-wick"/>
<rect x="980.46" y="660.13" width="8.00" height="7.62" class="down-body"/>
<line x1="1011.76" y1="667.67" x2="1011.76" y2="678.75" class="down-wick"/>
<rect x="1007.76" y="667.75" width="8.00" height="6.29" class="down-body"/>
<line x1="1039.05" y1="665.02" x2="1039.05" y2="677.61" class="up-wick"/>
<rect x="1035.05" y="665.89" width="8.00" height="8.15" class="up-body"/>
<line x1="1066.35" y1="657.02" x2="1066.35" y2="665.82" class="up-wick"/>
<rect x="1062.35" y="664.87" width="8.00" height="1.00" class="up-body"/>
<text x="70" y="806" class="axis-label">2026-02-16 01:00:00+00:00 to 2026-02-16 04:00:00+00:00</text>
<text x="1080" y="806" text-anchor="end" class="axis-label">4996.72 - 5047.35</text>
<text x="70" y="832" class="panel-title">M1 execution window</text>
<rect x="70" y="846" width="1010" height="192" class="plot-bg"/>
<line x1="72.79" y1="859.24" x2="72.79" y2="910.51" class="up-wick"/>
<rect x="70.98" y="891.28" width="3.63" height="4.28" class="up-body"/>
<line x1="78.37" y1="890.52" x2="78.37" y2="956.43" class="down-wick"/>
<rect x="76.56" y="892.16" width="3.63" height="58.47" class="down-body"/>
<line x1="83.95" y1="926.97" x2="83.95" y2="975.50" class="down-wick"/>
<rect x="82.14" y="950.63" width="3.63" height="12.21" class="down-body"/>
<line x1="89.53" y1="925.68" x2="89.53" y2="965.42" class="up-wick"/>
<rect x="87.72" y="949.38" width="3.63" height="13.46" class="up-body"/>
<line x1="95.11" y1="945.39" x2="95.11" y2="977.09" class="down-wick"/>
<rect x="93.30" y="949.38" width="3.63" height="19.30" class="down-body"/>
<line x1="100.69" y1="963.97" x2="100.69" y2="986.57" class="down-wick"/>
<rect x="98.88" y="968.37" width="3.63" height="7.81" class="down-body"/>
<line x1="106.27" y1="960.37" x2="106.27" y2="986.80" class="up-wick"/>
<rect x="104.46" y="973.45" width="3.63" height="1.00" class="up-body"/>
<line x1="111.85" y1="947.25" x2="111.85" y2="981.30" class="up-wick"/>
<rect x="110.04" y="954.04" width="3.63" height="19.60" class="up-body"/>
<line x1="117.43" y1="950.63" x2="117.43" y2="970.31" class="down-wick"/>
<rect x="115.62" y="954.04" width="3.63" height="9.67" class="down-body"/>
<line x1="123.01" y1="938.26" x2="123.01" y2="971.79" class="up-wick"/>
<rect x="121.20" y="938.26" width="3.63" height="25.63" class="up-body"/>
<line x1="128.59" y1="930.61" x2="128.59" y2="972.89" class="down-wick"/>
<rect x="126.78" y="938.26" width="3.63" height="13.27" class="down-body"/>
<line x1="134.17" y1="942.09" x2="134.17" y2="974.06" class="down-wick"/>
<rect x="132.36" y="951.54" width="3.63" height="17.25" class="down-body"/>
<line x1="139.75" y1="946.42" x2="139.75" y2="969.93" class="up-wick"/>
<rect x="137.94" y="950.97" width="3.63" height="17.82" class="up-body"/>
<line x1="145.33" y1="949.11" x2="145.33" y2="953.85" class="down-wick"/>
<rect x="143.52" y="950.97" width="3.63" height="1.00" class="down-body"/>
<line x1="150.91" y1="932.16" x2="150.91" y2="951.69" class="up-wick"/>
<rect x="149.10" y="940.27" width="3.63" height="11.41" class="up-body"/>
<line x1="156.49" y1="914.83" x2="156.49" y2="940.31" class="up-wick"/>
<rect x="154.68" y="915.55" width="3.63" height="24.76" class="up-body"/>
<line x1="162.07" y1="902.89" x2="162.07" y2="921.81" class="up-wick"/>
<rect x="160.26" y="904.37" width="3.63" height="11.22" class="up-body"/>
<line x1="167.65" y1="904.33" x2="167.65" y2="944.64" class="down-wick"/>
<rect x="165.84" y="904.40" width="3.63" height="16.57" class="down-body"/>
<line x1="173.23" y1="916.99" x2="173.23" y2="936.98" class="down-wick"/>
<rect x="171.42" y="920.97" width="3.63" height="11.22" class="down-body"/>
<line x1="178.81" y1="917.37" x2="178.81" y2="934.66" class="up-wick"/>
<rect x="177.00" y="928.06" width="3.63" height="4.13" class="up-body"/>
<line x1="184.39" y1="921.05" x2="184.39" y2="936.26" class="up-wick"/>
<rect x="182.58" y="923.25" width="3.63" height="4.85" class="up-body"/>
<line x1="189.97" y1="909.48" x2="189.97" y2="925.79" class="up-wick"/>
<rect x="188.16" y="914.15" width="3.63" height="9.10" class="up-body"/>
<line x1="195.55" y1="914.15" x2="195.55" y2="943.00" class="down-wick"/>
<rect x="193.74" y="914.15" width="3.63" height="18.28" class="down-body"/>
<line x1="201.13" y1="925.11" x2="201.13" y2="938.19" class="up-wick"/>
<rect x="199.32" y="927.95" width="3.63" height="4.47" class="up-body"/>
<line x1="206.71" y1="924.50" x2="206.71" y2="931.82" class="up-wick"/>
<rect x="204.90" y="927.31" width="3.63" height="1.00" class="up-body"/>
<line x1="212.29" y1="922.41" x2="212.29" y2="927.31" class="up-wick"/>
<rect x="210.48" y="923.48" width="3.63" height="3.83" class="up-body"/>
<line x1="217.87" y1="921.09" x2="217.87" y2="924.61" class="up-wick"/>
<rect x="216.06" y="921.54" width="3.63" height="1.93" class="up-body"/>
<line x1="223.45" y1="909.79" x2="223.45" y2="922.04" class="up-wick"/>
<rect x="221.64" y="914.26" width="3.63" height="7.28" class="up-body"/>
<line x1="229.03" y1="911.72" x2="229.03" y2="916.69" class="down-wick"/>
<rect x="227.22" y="914.26" width="3.63" height="1.00" class="down-body"/>
<line x1="234.61" y1="911.99" x2="234.61" y2="918.28" class="down-wick"/>
<rect x="232.80" y="914.41" width="3.63" height="1.00" class="down-body"/>
<line x1="240.19" y1="913.50" x2="240.19" y2="923.97" class="down-wick"/>
<rect x="238.38" y="914.49" width="3.63" height="6.71" class="down-body"/>
<line x1="245.77" y1="913.69" x2="245.77" y2="922.38" class="up-wick"/>
<rect x="243.96" y="914.76" width="3.63" height="6.45" class="up-body"/>
<line x1="251.35" y1="907.44" x2="251.35" y2="920.29" class="down-wick"/>
<rect x="249.54" y="914.87" width="3.63" height="3.03" class="down-body"/>
<line x1="256.93" y1="912.29" x2="256.93" y2="920.06" class="up-wick"/>
<rect x="255.12" y="914.34" width="3.63" height="3.56" class="up-body"/>
<line x1="262.51" y1="908.01" x2="262.51" y2="917.94" class="up-wick"/>
<rect x="260.70" y="913.50" width="3.63" height="1.00" class="up-body"/>
<line x1="268.09" y1="908.42" x2="268.09" y2="925.98" class="down-wick"/>
<rect x="266.28" y="913.50" width="3.63" height="12.48" class="down-body"/>
<line x1="273.67" y1="926.05" x2="273.67" y2="942.55" class="down-wick"/>
<rect x="271.86" y="926.05" width="3.63" height="12.44" class="down-body"/>
<line x1="279.25" y1="923.78" x2="279.25" y2="938.49" class="up-wick"/>
<rect x="277.44" y="927.04" width="3.63" height="11.45" class="up-body"/>
<line x1="284.83" y1="923.48" x2="284.83" y2="928.44" class="up-wick"/>
<rect x="283.02" y="923.59" width="3.63" height="3.41" class="up-body"/>
<line x1="290.41" y1="923.59" x2="290.41" y2="927.04" class="down-wick"/>
<rect x="288.60" y="923.59" width="3.63" height="2.92" class="down-body"/>
<line x1="295.99" y1="905.88" x2="295.99" y2="926.47" class="up-wick"/>
<rect x="294.18" y="909.33" width="3.63" height="17.14" class="up-body"/>
<line x1="301.57" y1="908.84" x2="301.57" y2="924.88" class="down-wick"/>
<rect x="299.76" y="909.33" width="3.63" height="12.82" class="down-body"/>
<line x1="307.15" y1="914.79" x2="307.15" y2="929.85" class="down-wick"/>
<rect x="305.34" y="922.15" width="3.63" height="4.66" class="down-body"/>
<line x1="312.73" y1="925.83" x2="312.73" y2="937.73" class="down-wick"/>
<rect x="310.92" y="926.93" width="3.63" height="9.71" class="down-body"/>
<line x1="318.31" y1="934.06" x2="318.31" y2="960.60" class="down-wick"/>
<rect x="316.50" y="936.63" width="3.63" height="17.37" class="down-body"/>
<line x1="323.90" y1="948.96" x2="323.90" y2="958.82" class="up-wick"/>
<rect x="322.08" y="950.21" width="3.63" height="3.75" class="up-body"/>
<line x1="329.48" y1="947.86" x2="329.48" y2="963.59" class="down-wick"/>
<rect x="327.66" y="950.21" width="3.63" height="13.16" class="down-body"/>
<line x1="335.06" y1="955.40" x2="335.06" y2="963.71" class="up-wick"/>
<rect x="333.24" y="956.58" width="3.63" height="6.79" class="up-body"/>
<line x1="340.64" y1="956.62" x2="340.64" y2="967.01" class="down-wick"/>
<rect x="338.82" y="956.66" width="3.63" height="7.89" class="down-body"/>
<line x1="346.22" y1="964.51" x2="346.22" y2="973.91" class="down-wick"/>
<rect x="344.40" y="964.54" width="3.63" height="4.44" class="down-body"/>
<line x1="351.80" y1="959.61" x2="351.80" y2="968.98" class="up-wick"/>
<rect x="349.98" y="965.07" width="3.63" height="3.91" class="up-body"/>
<line x1="357.38" y1="957.26" x2="357.38" y2="965.60" class="up-wick"/>
<rect x="355.56" y="959.73" width="3.63" height="5.46" class="up-body"/>
<line x1="362.96" y1="956.43" x2="362.96" y2="963.44" class="down-wick"/>
<rect x="361.14" y="959.73" width="3.63" height="2.84" class="down-body"/>
<line x1="368.54" y1="959.84" x2="368.54" y2="966.25" class="down-wick"/>
<rect x="366.72" y="962.57" width="3.63" height="3.68" class="down-body"/>
<line x1="374.12" y1="951.46" x2="374.12" y2="971.37" class="up-wick"/>
<rect x="372.30" y="952.83" width="3.63" height="13.42" class="up-body"/>
<line x1="379.70" y1="950.55" x2="379.70" y2="953.77" class="down-wick"/>
<rect x="377.88" y="953.05" width="3.63" height="1.00" class="down-body"/>
<line x1="385.28" y1="947.18" x2="385.28" y2="955.06" class="up-wick"/>
<rect x="383.46" y="949.94" width="3.63" height="3.19" class="up-body"/>
<line x1="390.86" y1="949.00" x2="390.86" y2="958.82" class="down-wick"/>
<rect x="389.04" y="949.94" width="3.63" height="1.21" class="down-body"/>
<line x1="396.44" y1="943.91" x2="396.44" y2="951.16" class="up-wick"/>
<rect x="394.62" y="947.90" width="3.63" height="3.26" class="up-body"/>
<line x1="402.02" y1="944.60" x2="402.02" y2="949.07" class="down-wick"/>
<rect x="400.20" y="947.90" width="3.63" height="1.00" class="down-body"/>
<line x1="407.60" y1="942.70" x2="407.60" y2="968.26" class="down-wick"/>
<rect x="405.78" y="948.58" width="3.63" height="17.37" class="down-body"/>
<line x1="413.18" y1="961.32" x2="413.18" y2="972.39" class="down-wick"/>
<rect x="411.36" y="965.95" width="3.63" height="5.08" class="down-body"/>
<line x1="418.76" y1="965.15" x2="418.76" y2="973.95" class="down-wick"/>
<rect x="416.94" y="971.33" width="3.63" height="1.00" class="down-body"/>
<line x1="424.34" y1="970.34" x2="424.34" y2="1024.76" class="down-wick"/>
<rect x="422.52" y="971.75" width="3.63" height="25.56" class="down-body"/>
<line x1="429.92" y1="982.10" x2="429.92" y2="1000.34" class="up-wick"/>
<rect x="428.10" y="995.60" width="3.63" height="1.71" class="up-body"/>
<line x1="435.50" y1="977.21" x2="435.50" y2="994.12" class="up-wick"/>
<rect x="433.68" y="980.01" width="3.63" height="14.11" class="up-body"/>
<line x1="441.08" y1="971.60" x2="441.08" y2="986.08" class="down-wick"/>
<rect x="439.26" y="980.01" width="3.63" height="5.27" class="down-body"/>
<line x1="446.66" y1="968.75" x2="446.66" y2="985.28" class="up-wick"/>
<rect x="444.84" y="968.83" width="3.63" height="16.46" class="up-body"/>
<line x1="452.24" y1="962.23" x2="452.24" y2="975.88" class="down-wick"/>
<rect x="450.42" y="968.83" width="3.63" height="1.90" class="down-body"/>
<line x1="457.82" y1="961.89" x2="457.82" y2="973.45" class="up-wick"/>
<rect x="456.00" y="966.14" width="3.63" height="4.59" class="up-body"/>
<line x1="463.40" y1="963.41" x2="463.40" y2="976.75" class="down-wick"/>
<rect x="461.58" y="966.14" width="3.63" height="9.48" class="down-body"/>
<line x1="468.98" y1="971.03" x2="468.98" y2="977.93" class="up-wick"/>
<rect x="467.16" y="972.28" width="3.63" height="3.34" class="up-body"/>
<line x1="474.56" y1="959.54" x2="474.56" y2="973.91" class="up-wick"/>
<rect x="472.74" y="959.88" width="3.63" height="12.40" class="up-body"/>
<line x1="480.14" y1="956.43" x2="480.14" y2="963.78" class="down-wick"/>
<rect x="478.32" y="959.88" width="3.63" height="2.35" class="down-body"/>
<line x1="485.72" y1="957.91" x2="485.72" y2="962.80" class="up-wick"/>
<rect x="483.90" y="959.42" width="3.63" height="2.92" class="up-body"/>
<line x1="491.30" y1="957.76" x2="491.30" y2="963.56" class="down-wick"/>
<rect x="489.48" y="959.50" width="3.63" height="4.06" class="down-body"/>
<line x1="496.88" y1="950.82" x2="496.88" y2="966.59" class="up-wick"/>
<rect x="495.06" y="950.93" width="3.63" height="12.63" class="up-body"/>
<line x1="502.46" y1="944.79" x2="502.46" y2="955.90" class="down-wick"/>
<rect x="500.65" y="950.93" width="3.63" height="1.63" class="down-body"/>
<line x1="508.04" y1="950.21" x2="508.04" y2="957.95" class="down-wick"/>
<rect x="506.23" y="952.56" width="3.63" height="1.37" class="down-body"/>
<line x1="513.62" y1="952.94" x2="513.62" y2="959.46" class="down-wick"/>
<rect x="511.81" y="953.93" width="3.63" height="2.28" class="down-body"/>
<line x1="519.20" y1="956.12" x2="519.20" y2="968.15" class="down-wick"/>
<rect x="517.39" y="956.20" width="3.63" height="8.53" class="down-body"/>
<line x1="524.78" y1="955.03" x2="524.78" y2="969.93" class="down-wick"/>
<rect x="522.97" y="964.73" width="3.63" height="4.89" class="down-body"/>
<line x1="530.36" y1="968.64" x2="530.36" y2="977.74" class="down-wick"/>
<rect x="528.55" y="969.62" width="3.63" height="3.53" class="down-body"/>
<line x1="535.94" y1="967.80" x2="535.94" y2="974.33" class="up-wick"/>
<rect x="534.13" y="972.85" width="3.63" height="1.00" class="up-body"/>
<line x1="541.52" y1="962.87" x2="541.52" y2="975.12" class="up-wick"/>
<rect x="539.71" y="969.55" width="3.63" height="3.30" class="up-body"/>
<line x1="547.10" y1="967.77" x2="547.10" y2="991.77" class="down-wick"/>
<rect x="545.29" y="968.30" width="3.63" height="21.61" class="down-body"/>
<line x1="552.68" y1="984.19" x2="552.68" y2="993.40" class="up-wick"/>
<rect x="550.87" y="987.33" width="3.63" height="2.54" class="up-body"/>
<line x1="558.26" y1="985.97" x2="558.26" y2="990.90" class="up-wick"/>
<rect x="556.45" y="987.10" width="3.63" height="1.00" class="up-body"/>
<line x1="563.84" y1="979.94" x2="563.84" y2="988.43" class="up-wick"/>
<rect x="562.03" y="981.34" width="3.63" height="5.76" class="up-body"/>
<line x1="569.42" y1="978.88" x2="569.42" y2="983.88" class="up-wick"/>
<rect x="567.61" y="978.91" width="3.63" height="2.43" class="up-body"/>
<line x1="575.00" y1="977.44" x2="575.00" y2="980.01" class="down-wick"/>
<rect x="573.19" y="978.19" width="3.63" height="1.00" class="down-body"/>
<line x1="580.58" y1="975.35" x2="580.58" y2="981.61" class="up-wick"/>
<rect x="578.77" y="975.54" width="3.63" height="2.88" class="up-body"/>
<line x1="586.16" y1="970.69" x2="586.16" y2="981.53" class="down-wick"/>
<rect x="584.35" y="975.54" width="3.63" height="1.82" class="down-body"/>
<line x1="591.74" y1="976.75" x2="591.74" y2="984.72" class="up-wick"/>
<rect x="589.93" y="977.09" width="3.63" height="1.00" class="up-body"/>
<line x1="597.32" y1="972.32" x2="597.32" y2="991.62" class="down-wick"/>
<rect x="595.51" y="977.09" width="3.63" height="11.26" class="down-body"/>
<line x1="602.90" y1="987.83" x2="602.90" y2="990.82" class="down-wick"/>
<rect x="601.09" y="988.36" width="3.63" height="1.00" class="down-body"/>
<line x1="608.48" y1="975.01" x2="608.48" y2="989.95" class="up-wick"/>
<rect x="606.67" y="983.65" width="3.63" height="5.38" class="up-body"/>
<line x1="614.06" y1="982.14" x2="614.06" y2="989.19" class="down-wick"/>
<rect x="612.25" y="983.65" width="3.63" height="2.01" class="down-body"/>
<line x1="619.64" y1="982.48" x2="619.64" y2="988.92" class="up-wick"/>
<rect x="617.83" y="982.63" width="3.63" height="3.11" class="up-body"/>
<line x1="625.22" y1="973.00" x2="625.22" y2="984.72" class="up-wick"/>
<rect x="623.41" y="973.72" width="3.63" height="8.91" class="up-body"/>
<line x1="630.80" y1="969.59" x2="630.80" y2="974.17" class="up-wick"/>
<rect x="628.99" y="973.00" width="3.63" height="1.00" class="up-body"/>
<line x1="636.38" y1="971.56" x2="636.38" y2="973.23" class="up-wick"/>
<rect x="634.57" y="972.58" width="3.63" height="1.00" class="up-body"/>
<line x1="641.96" y1="971.86" x2="641.96" y2="976.26" class="down-wick"/>
<rect x="640.15" y="972.58" width="3.63" height="1.00" class="down-body"/>
<line x1="647.54" y1="971.60" x2="647.54" y2="975.08" class="up-wick"/>
<rect x="645.73" y="972.54" width="3.63" height="1.00" class="up-body"/>
<line x1="653.12" y1="971.71" x2="653.12" y2="972.85" class="up-wick"/>
<rect x="651.31" y="972.13" width="3.63" height="1.00" class="up-body"/>
<line x1="658.70" y1="972.13" x2="658.70" y2="978.31" class="down-wick"/>
<rect x="656.89" y="972.13" width="3.63" height="4.36" class="down-body"/>
<line x1="664.28" y1="972.43" x2="664.28" y2="982.67" class="down-wick"/>
<rect x="662.47" y="976.49" width="3.63" height="5.35" class="down-body"/>
<line x1="669.86" y1="977.36" x2="669.86" y2="985.66" class="up-wick"/>
<rect x="668.05" y="979.94" width="3.63" height="2.01" class="up-body"/>
<line x1="675.44" y1="966.36" x2="675.44" y2="979.94" class="up-wick"/>
<rect x="673.63" y="967.01" width="3.63" height="12.93" class="up-body"/>
<line x1="681.02" y1="955.67" x2="681.02" y2="971.14" class="up-wick"/>
<rect x="679.21" y="956.24" width="3.63" height="10.77" class="up-body"/>
<line x1="686.60" y1="955.44" x2="686.60" y2="960.14" class="down-wick"/>
<rect x="684.79" y="956.24" width="3.63" height="2.92" class="down-body"/>
<line x1="692.18" y1="953.96" x2="692.18" y2="959.99" class="up-wick"/>
<rect x="690.37" y="955.71" width="3.63" height="3.45" class="up-body"/>
<line x1="697.76" y1="939.14" x2="697.76" y2="955.82" class="up-wick"/>
<rect x="695.95" y="948.39" width="3.63" height="7.43" class="up-body"/>
<line x1="703.34" y1="945.09" x2="703.34" y2="951.99" class="down-wick"/>
<rect x="701.53" y="948.43" width="3.63" height="2.39" class="down-body"/>
<line x1="708.92" y1="946.34" x2="708.92" y2="954.84" class="up-wick"/>
<rect x="707.11" y="948.92" width="3.63" height="1.90" class="up-body"/>
<line x1="714.50" y1="941.72" x2="714.50" y2="948.92" class="up-wick"/>
<rect x="712.69" y="948.50" width="3.63" height="1.00" class="up-body"/>
<line x1="720.08" y1="948.50" x2="720.08" y2="964.47" class="down-wick"/>
<rect x="718.27" y="948.50" width="3.63" height="15.93" class="down-body"/>
<line x1="725.66" y1="961.02" x2="725.66" y2="968.22" class="down-wick"/>
<rect x="723.85" y="964.43" width="3.63" height="1.21" class="down-body"/>
<line x1="731.24" y1="962.42" x2="731.24" y2="965.87" class="up-wick"/>
<rect x="729.43" y="964.58" width="3.63" height="1.06" class="up-body"/>
<line x1="736.82" y1="964.54" x2="736.82" y2="968.79" class="down-wick"/>
<rect x="735.01" y="964.58" width="3.63" height="2.12" class="down-body"/>
<line x1="742.40" y1="966.29" x2="742.40" y2="987.41" class="down-wick"/>
<rect x="740.59" y="966.78" width="3.63" height="20.51" class="down-body"/>
<line x1="747.98" y1="982.86" x2="747.98" y2="998.82" class="down-wick"/>
<rect x="746.17" y="987.22" width="3.63" height="3.49" class="down-body"/>
<line x1="753.56" y1="980.73" x2="753.56" y2="994.88" class="up-wick"/>
<rect x="751.75" y="980.73" width="3.63" height="9.56" class="up-body"/>
<line x1="759.14" y1="968.41" x2="759.14" y2="981.42" class="up-wick"/>
<rect x="757.33" y="969.32" width="3.63" height="11.49" class="up-body"/>
<line x1="764.72" y1="958.02" x2="764.72" y2="969.55" class="up-wick"/>
<rect x="762.91" y="961.93" width="3.63" height="7.24" class="up-body"/>
<line x1="770.30" y1="956.01" x2="770.30" y2="961.89" class="up-wick"/>
<rect x="768.49" y="956.12" width="3.63" height="5.76" class="up-body"/>
<line x1="775.88" y1="942.28" x2="775.88" y2="956.12" class="up-wick"/>
<rect x="774.07" y="944.98" width="3.63" height="11.15" class="up-body"/>
<line x1="781.46" y1="941.60" x2="781.46" y2="953.85" class="down-wick"/>
<rect x="779.65" y="944.75" width="3.63" height="5.95" class="down-body"/>
<line x1="787.04" y1="947.63" x2="787.04" y2="953.28" class="up-wick"/>
<rect x="785.23" y="947.90" width="3.63" height="3.11" class="up-body"/>
<line x1="792.62" y1="942.21" x2="792.62" y2="950.66" class="up-wick"/>
<rect x="790.81" y="943.08" width="3.63" height="4.82" class="up-body"/>
<line x1="798.20" y1="936.67" x2="798.20" y2="948.09" class="down-wick"/>
<rect x="796.39" y="943.08" width="3.63" height="3.68" class="down-body"/>
<line x1="803.78" y1="943.91" x2="803.78" y2="960.94" class="down-wick"/>
<rect x="801.97" y="946.76" width="3.63" height="7.93" class="down-body"/>
<line x1="809.36" y1="936.33" x2="809.36" y2="956.28" class="up-wick"/>
<rect x="807.55" y="943.57" width="3.63" height="11.11" class="up-body"/>
<line x1="814.94" y1="940.69" x2="814.94" y2="945.92" class="up-wick"/>
<rect x="813.13" y="940.69" width="3.63" height="2.88" class="up-body"/>
<line x1="820.52" y1="935.61" x2="820.52" y2="944.67" class="up-wick"/>
<rect x="818.71" y="937.66" width="3.63" height="3.03" class="up-body"/>
<line x1="826.10" y1="930.30" x2="826.10" y2="938.80" class="up-wick"/>
<rect x="824.29" y="936.37" width="3.63" height="1.29" class="up-body"/>
<line x1="831.69" y1="935.31" x2="831.69" y2="939.02" class="up-wick"/>
<rect x="829.87" y="935.46" width="3.63" height="1.00" class="up-body"/>
<line x1="837.27" y1="927.53" x2="837.27" y2="935.57" class="up-wick"/>
<rect x="835.45" y="932.35" width="3.63" height="3.11" class="up-body"/>
<line x1="842.85" y1="923.21" x2="842.85" y2="932.46" class="up-wick"/>
<rect x="841.03" y="923.44" width="3.63" height="8.91" class="up-body"/>
<line x1="848.43" y1="913.20" x2="848.43" y2="925.79" class="up-wick"/>
<rect x="846.61" y="915.51" width="3.63" height="7.93" class="up-body"/>
<line x1="854.01" y1="907.40" x2="854.01" y2="915.97" class="up-wick"/>
<rect x="852.19" y="907.97" width="3.63" height="7.51" class="up-body"/>
<line x1="859.59" y1="907.55" x2="859.59" y2="912.82" class="down-wick"/>
<rect x="857.77" y="908.31" width="3.63" height="2.16" class="down-body"/>
<line x1="865.17" y1="909.94" x2="865.17" y2="919.27" class="down-wick"/>
<rect x="863.35" y="910.47" width="3.63" height="8.30" class="down-body"/>
<line x1="870.75" y1="918.40" x2="870.75" y2="929.62" class="down-wick"/>
<rect x="868.93" y="918.77" width="3.63" height="6.98" class="down-body"/>
<line x1="876.33" y1="921.43" x2="876.33" y2="928.44" class="up-wick"/>
<rect x="874.51" y="922.64" width="3.63" height="3.11" class="up-body"/>
<line x1="881.91" y1="907.93" x2="881.91" y2="922.45" class="up-wick"/>
<rect x="880.09" y="912.90" width="3.63" height="9.56" class="up-body"/>
<line x1="887.49" y1="911.46" x2="887.49" y2="919.68" class="down-wick"/>
<rect x="885.67" y="912.90" width="3.63" height="4.02" class="down-body"/>
<line x1="893.07" y1="912.06" x2="893.07" y2="922.38" class="up-wick"/>
<rect x="891.25" y="915.02" width="3.63" height="1.90" class="up-body"/>
<line x1="898.65" y1="913.35" x2="898.65" y2="922.57" class="down-wick"/>
<rect x="896.83" y="915.10" width="3.63" height="2.01" class="down-body"/>
<line x1="904.23" y1="914.34" x2="904.23" y2="920.03" class="up-wick"/>
<rect x="902.41" y="914.41" width="3.63" height="2.69" class="up-body"/>
<line x1="909.81" y1="909.83" x2="909.81" y2="915.36" class="up-wick"/>
<rect x="907.99" y="910.28" width="3.63" height="4.13" class="up-body"/>
<line x1="915.39" y1="907.32" x2="915.39" y2="915.51" class="down-wick"/>
<rect x="913.57" y="910.36" width="3.63" height="3.53" class="down-body"/>
<line x1="920.97" y1="912.06" x2="920.97" y2="917.07" class="up-wick"/>
<rect x="919.15" y="913.01" width="3.63" height="1.00" class="up-body"/>
<line x1="926.55" y1="913.12" x2="926.55" y2="925.56" class="down-wick"/>
<rect x="924.73" y="913.12" width="3.63" height="5.88" class="down-body"/>
<line x1="932.13" y1="911.99" x2="932.13" y2="922.91" class="up-wick"/>
<rect x="930.31" y="915.40" width="3.63" height="3.60" class="up-body"/>
<line x1="937.71" y1="911.76" x2="937.71" y2="917.30" class="up-wick"/>
<rect x="935.89" y="914.45" width="3.63" height="1.00" class="up-body"/>
<line x1="943.29" y1="909.75" x2="943.29" y2="915.70" class="up-wick"/>
<rect x="941.47" y="910.36" width="3.63" height="4.10" class="up-body"/>
<line x1="948.87" y1="909.26" x2="948.87" y2="912.44" class="down-wick"/>
<rect x="947.05" y="910.36" width="3.63" height="1.06" class="down-body"/>
<line x1="954.45" y1="911.38" x2="954.45" y2="921.69" class="down-wick"/>
<rect x="952.63" y="911.38" width="3.63" height="10.01" class="down-body"/>
<line x1="960.03" y1="917.56" x2="960.03" y2="923.29" class="up-wick"/>
<rect x="958.21" y="917.86" width="3.63" height="3.53" class="up-body"/>
<line x1="965.61" y1="916.31" x2="965.61" y2="920.78" class="up-wick"/>
<rect x="963.79" y="917.71" width="3.63" height="1.00" class="up-body"/>
<line x1="971.19" y1="912.52" x2="971.19" y2="919.49" class="up-wick"/>
<rect x="969.37" y="915.13" width="3.63" height="2.58" class="up-body"/>
<line x1="976.77" y1="911.27" x2="976.77" y2="918.66" class="up-wick"/>
<rect x="974.95" y="911.27" width="3.63" height="4.44" class="up-body"/>
<line x1="982.35" y1="910.66" x2="982.35" y2="914.57" class="down-wick"/>
<rect x="980.53" y="911.23" width="3.63" height="2.81" class="down-body"/>
<line x1="987.93" y1="909.48" x2="987.93" y2="914.57" class="up-wick"/>
<rect x="986.11" y="910.13" width="3.63" height="4.13" class="up-body"/>
<line x1="993.51" y1="908.92" x2="993.51" y2="912.67" class="up-wick"/>
<rect x="991.69" y="910.13" width="3.63" height="1.00" class="up-body"/>
<line x1="999.09" y1="909.45" x2="999.09" y2="917.83" class="down-wick"/>
<rect x="997.27" y="910.05" width="3.63" height="5.95" class="down-body"/>
<line x1="1004.67" y1="912.56" x2="1004.67" y2="917.30" class="up-wick"/>
<rect x="1002.85" y="915.93" width="3.63" height="1.00" class="up-body"/>
<line x1="1010.25" y1="913.16" x2="1010.25" y2="916.61" class="up-wick"/>
<rect x="1008.44" y="914.87" width="3.63" height="1.06" class="up-body"/>
<line x1="1015.83" y1="914.00" x2="1015.83" y2="917.86" class="down-wick"/>
<rect x="1014.02" y="914.87" width="3.63" height="2.88" class="down-body"/>
<line x1="1021.41" y1="917.67" x2="1021.41" y2="922.23" class="down-wick"/>
<rect x="1019.60" y="917.75" width="3.63" height="2.01" class="down-body"/>
<line x1="1026.99" y1="919.57" x2="1026.99" y2="925.14" class="down-wick"/>
<rect x="1025.18" y="919.76" width="3.63" height="1.71" class="down-body"/>
<line x1="1032.57" y1="918.36" x2="1032.57" y2="922.98" class="up-wick"/>
<rect x="1030.76" y="920.78" width="3.63" height="1.00" class="up-body"/>
<line x1="1038.15" y1="919.27" x2="1038.15" y2="926.09" class="down-wick"/>
<rect x="1036.34" y="920.78" width="3.63" height="1.37" class="down-body"/>
<line x1="1043.73" y1="921.96" x2="1043.73" y2="928.75" class="down-wick"/>
<rect x="1041.92" y="922.15" width="3.63" height="1.90" class="down-body"/>
<line x1="1049.31" y1="922.87" x2="1049.31" y2="925.98" class="down-wick"/>
<rect x="1047.50" y="924.05" width="3.63" height="1.00" class="down-body"/>
<line x1="1054.89" y1="918.93" x2="1054.89" y2="927.61" class="up-wick"/>
<rect x="1053.08" y="921.88" width="3.63" height="2.54" class="up-body"/>
<line x1="1060.47" y1="915.78" x2="1060.47" y2="923.10" class="up-wick"/>
<rect x="1058.66" y="916.95" width="3.63" height="4.93" class="up-body"/>
<line x1="1066.05" y1="915.40" x2="1066.05" y2="919.04" class="down-wick"/>
<rect x="1064.24" y="916.58" width="3.63" height="2.12" class="down-body"/>
<line x1="1071.63" y1="915.02" x2="1071.63" y2="919.53" class="up-wick"/>
<rect x="1069.82" y="915.89" width="3.63" height="2.81" class="up-body"/>
<line x1="1077.21" y1="907.17" x2="1077.21" y2="915.82" class="up-wick"/>
<rect x="1075.40" y="910.89" width="3.63" height="4.93" class="up-body"/>
<text x="70" y="1056" class="axis-label">2026-02-16 01:00:00+00:00 to 2026-02-16 04:00:00+00:00</text>
<text x="1080" y="1056" text-anchor="end" class="axis-label">4996.72 - 5047.35</text>
</svg>