<svg xmlns="http://www.w3.org/2000/svg" width="1120" height="1054" viewBox="0 0 1120 1054">
<style>
text{font-family:Arial,Helvetica,sans-serif}.title{font-size:21px;font-weight:700;fill:#1f2937}.subtitle{font-size:12px;fill:#4b5563}.panel-title{font-size:15px;font-weight:700;fill:#111827}.muted{font-size:13px;fill:#6b7280}.plot-bg{fill:#f8fafc;stroke:#cbd5e1;stroke-width:1}.up-body{fill:#15803d;stroke:#14532d;stroke-width:.8}.down-body{fill:#b91c1c;stroke:#7f1d1d;stroke-width:.8}.up-wick{stroke:#14532d;stroke-width:1}.down-wick{stroke:#7f1d1d;stroke-width:1}.sweep-line{stroke:#7c3aed;stroke-width:1.6;stroke-dasharray:6 4}.number-line{stroke:#0f766e;stroke-width:1.4;stroke-dasharray:3 4}.entry-line{stroke:#2563eb;stroke-width:1.4}.sl-line{stroke:#dc2626;stroke-width:1.4}.tp-line{stroke:#16a34a;stroke-width:1.4}.level-label,.axis-label{font-size:11px;fill:#374151}
</style>
<text x="28" y="28" class="title">Adelin v2 visual review sample sample_278</text>
<text x="28" y="48" class="subtitle">Candidate windows are for visual labeling only and are not trade signals.</text>
<text x="560" y="48" class="subtitle" text-anchor="middle">NUMBER_THEORY_LEVEL_NEAR | ROUND_LEVEL_ENTRY_METADATA_AVAILABLE</text>
<text x="70" y="82" class="panel-title">H1 liquidity context</text>
<rect x="70" y="96" width="1010" height="192" class="plot-bg"/>
<line x1="81.48" y1="209.77" x2="81.48" y2="227.12" class="up-wick"/>
<rect x="77.48" y="210.81" width="8.00" height="12.54" class="up-body"/>
<line x1="104.43" y1="205.42" x2="104.43" y2="217.16" class="down-wick"/>
<rect x="100.43" y="210.81" width="8.00" height="6.03" class="down-body"/>
<line x1="127.39" y1="212.97" x2="127.39" y2="225.62" class="down-wick"/>
<rect x="123.39" y="216.84" width="8.00" height="3.26" class="down-body"/>
<line x1="150.34" y1="193.56" x2="150.34" y2="224.21" class="up-wick"/>
<rect x="146.34" y="207.35" width="8.00" height="12.74" class="up-body"/>
<line x1="173.30" y1="154.75" x2="173.30" y2="208.94" class="up-wick"/>
<rect x="169.30" y="156.15" width="8.00" height="51.21" class="up-body"/>
<line x1="196.25" y1="109.24" x2="196.25" y2="168.58" class="up-wick"/>
<rect x="192.25" y="119.36" width="8.00" height="36.79" class="up-body"/>
<line x1="219.20" y1="113.75" x2="219.20" y2="140.49" class="down-wick"/>
<rect x="215.20" y="119.32" width="8.00" height="8.02" class="down-body"/>
<line x1="242.16" y1="119.10" x2="242.16" y2="147.09" class="down-wick"/>
<rect x="238.16" y="127.31" width="8.00" height="5.87" class="down-body"/>
<line x1="265.11" y1="126.72" x2="265.11" y2="137.47" class="down-wick"/>
<rect x="261.11" y="133.18" width="8.00" height="1.00" class="down-body"/>
<line x1="288.07" y1="130.99" x2="288.07" y2="148.22" class="down-wick"/>
<rect x="284.07" y="133.81" width="8.00" height="4.70" class="down-body"/>
<line x1="311.02" y1="132.59" x2="311.02" y2="145.79" class="down-wick"/>
<rect x="307.02" y="138.52" width="8.00" height="4.74" class="down-body"/>
<line x1="333.98" y1="139.98" x2="333.98" y2="149.27" class="down-wick"/>
<rect x="329.98" y="143.27" width="8.00" height="4.12" class="down-body"/>
<line x1="356.93" y1="211.49" x2="356.93" y2="251.95" class="up-wick"/>
<rect x="352.93" y="228.76" width="8.00" height="9.44" class="up-body"/>
<line x1="379.89" y1="228.67" x2="379.89" y2="274.76" class="down-wick"/>
<rect x="375.89" y="228.76" width="8.00" height="26.31" class="down-body"/>
<line x1="402.84" y1="234.25" x2="402.84" y2="266.36" class="up-wick"/>
<rect x="398.84" y="236.23" width="8.00" height="18.84" class="up-body"/>
<line x1="425.80" y1="190.75" x2="425.80" y2="237.42" class="up-wick"/>
<rect x="421.80" y="198.01" width="8.00" height="38.22" class="up-body"/>
<line x1="448.75" y1="196.56" x2="448.75" y2="213.81" class="down-wick"/>
<rect x="444.75" y="198.01" width="8.00" height="11.25" class="down-body"/>
<line x1="471.70" y1="208.09" x2="471.70" y2="218.60" class="down-wick"/>
<rect x="467.70" y="209.26" width="8.00" height="7.08" class="down-body"/>
<line x1="494.66" y1="211.11" x2="494.66" y2="220.40" class="down-wick"/>
<rect x="490.66" y="216.09" width="8.00" height="2.44" class="down-body"/>
<line x1="517.61" y1="210.68" x2="517.61" y2="228.47" class="up-wick"/>
<rect x="513.61" y="216.36" width="8.00" height="2.15" class="up-body"/>
<line x1="540.57" y1="211.37" x2="540.57" y2="223.81" class="up-wick"/>
<rect x="536.57" y="211.37" width="8.00" height="4.99" class="up-body"/>
<line x1="563.52" y1="200.18" x2="563.52" y2="220.66" class="down-wick"/>
<rect x="559.52" y="211.38" width="8.00" height="6.16" class="down-body"/>
<line x1="586.48" y1="210.51" x2="586.48" y2="221.44" class="up-wick"/>
<rect x="582.48" y="210.55" width="8.00" height="6.99" class="up-body"/>
<line x1="609.43" y1="208.71" x2="609.43" y2="224.26" class="down-wick"/>
<rect x="605.43" y="210.55" width="8.00" height="4.90" class="down-body"/>
<line x1="632.39" y1="205.33" x2="632.39" y2="217.27" class="up-wick"/>
<rect x="628.39" y="210.94" width="8.00" height="4.51" class="up-body"/>
<line x1="655.34" y1="194.66" x2="655.34" y2="220.92" class="up-wick"/>
<rect x="651.34" y="195.03" width="8.00" height="15.91" class="up-body"/>
<line x1="678.30" y1="182.47" x2="678.30" y2="207.29" class="down-wick"/>
<rect x="674.30" y="195.03" width="8.00" height="7.63" class="down-body"/>
<line x1="701.25" y1="177.90" x2="701.25" y2="206.78" class="up-wick"/>
<rect x="697.25" y="186.95" width="8.00" height="15.69" class="up-body"/>
<line x1="724.20" y1="176.47" x2="724.20" y2="214.44" class="down-wick"/>
<rect x="720.20" y="186.95" width="8.00" height="13.61" class="down-body"/>
<line x1="747.16" y1="196.11" x2="747.16" y2="214.03" class="down-wick"/>
<rect x="743.16" y="200.57" width="8.00" height="6.18" class="down-body"/>
<line x1="770.11" y1="199.51" x2="770.11" y2="214.16" class="up-wick"/>
<rect x="766.11" y="200.41" width="8.00" height="6.33" class="up-body"/>
<line x1="793.07" y1="193.22" x2="793.07" y2="202.17" class="up-wick"/>
<rect x="789.07" y="199.09" width="8.00" height="1.31" class="up-body"/>
<line x1="816.02" y1="188.44" x2="816.02" y2="199.09" class="up-wick"/>
<rect x="812.02" y="191.14" width="8.00" height="7.96" class="up-body"/>
<line x1="838.98" y1="183.23" x2="838.98" y2="194.93" class="up-wick"/>
<rect x="834.98" y="190.90" width="8.00" height="1.00" class="up-body"/>
<line x1="861.93" y1="170.37" x2="861.93" y2="184.60" class="up-wick"/>
<rect x="857.93" y="176.46" width="8.00" height="7.94" class="up-body"/>
<line x1="884.89" y1="172.04" x2="884.89" y2="185.00" class="down-wick"/>
<rect x="880.89" y="176.46" width="8.00" height="6.37" class="down-body"/>
<line x1="907.84" y1="173.07" x2="907.84" y2="188.09" class="up-wick"/>
<rect x="903.84" y="180.42" width="8.00" height="2.29" class="up-body"/>
<line x1="930.80" y1="179.75" x2="930.80" y2="200.17" class="down-wick"/>
<rect x="926.80" y="180.42" width="8.00" height="14.90" class="down-body"/>
<line x1="953.75" y1="195.11" x2="953.75" y2="203.72" class="down-wick"/>
<rect x="949.75" y="195.33" width="8.00" height="3.63" class="down-body"/>
<line x1="976.70" y1="198.05" x2="976.70" y2="214.46" class="down-wick"/>
<rect x="972.70" y="198.96" width="8.00" height="10.56" class="down-body"/>
<line x1="999.66" y1="208.81" x2="999.66" y2="218.68" class="down-wick"/>
<rect x="995.66" y="209.52" width="8.00" height="8.68" class="down-body"/>
<line x1="1022.61" y1="209.65" x2="1022.61" y2="224.53" class="down-wick"/>
<rect x="1018.61" y="218.20" width="8.00" height="5.34" class="down-body"/>
<line x1="1045.57" y1="216.54" x2="1045.57" y2="233.98" class="down-wick"/>
<rect x="1041.57" y="223.55" width="8.00" height="5.86" class="down-body"/>
<line x1="1068.52" y1="214.40" x2="1068.52" y2="236.04" class="up-wick"/>
<rect x="1064.52" y="221.54" width="8.00" height="8.35" class="up-body"/>
<line x1="70" y1="217.24" x2="1080" y2="217.24" class="number-line"/>
<text x="1076" y="213.24" text-anchor="end" class="level-label">round 4790.00</text>
<line x1="70" y1="217.24" x2="1080" y2="217.24" class="entry-line"/>
<text x="1076" y="213.24" text-anchor="end" class="level-label">entry level 4790.00</text>
<text x="70" y="306" class="axis-label">2026-04-17 11:00:00+00:00 to 2026-04-21 10:00:00+00:00</text>
<text x="1080" y="306" text-anchor="end" class="axis-label">4724.71 - 4901.86</text>
<text x="70" y="332" class="panel-title">M15 liquidity / reaction context</text>
<rect x="70" y="346" width="1010" height="192" class="plot-bg"/>
<line x1="77.89" y1="417.94" x2="77.89" y2="485.79" class="up-wick"/>
<rect x="73.89" y="425.92" width="8.00" height="36.36" class="up-body"/>
<line x1="93.67" y1="416.64" x2="93.67" y2="437.44" class="down-wick"/>
<rect x="89.67" y="426.02" width="8.00" height="9.28" class="down-body"/>
<line x1="109.45" y1="424.81" x2="109.45" y2="446.04" class="down-wick"/>
<rect x="105.45" y="435.24" width="8.00" height="8.56" class="down-body"/>
<line x1="125.23" y1="432.18" x2="125.23" y2="448.61" class="down-wick"/>
<rect x="121.23" y="443.78" width="8.00" height="2.37" class="down-body"/>
<line x1="141.02" y1="446.00" x2="141.02" y2="459.76" class="down-wick"/>
<rect x="137.02" y="446.15" width="8.00" height="12.78" class="down-body"/>
<line x1="156.80" y1="452.65" x2="156.80" y2="467.08" class="down-wick"/>
<rect x="152.80" y="458.93" width="8.00" height="6.24" class="down-body"/>
<line x1="172.58" y1="457.21" x2="172.58" y2="508.13" class="down-wick"/>
<rect x="168.58" y="465.17" width="8.00" height="32.27" class="down-body"/>
<line x1="188.36" y1="490.70" x2="188.36" y2="524.76" class="up-wick"/>
<rect x="184.36" y="491.10" width="8.00" height="5.87" class="up-body"/>
<line x1="204.14" y1="490.71" x2="204.14" y2="510.40" class="down-wick"/>
<rect x="200.14" y="491.10" width="8.00" height="5.17" class="down-body"/>
<line x1="219.92" y1="471.02" x2="219.92" y2="496.85" class="up-wick"/>
<rect x="215.92" y="472.01" width="8.00" height="24.26" class="up-body"/>
<line x1="235.70" y1="466.97" x2="235.70" y2="479.95" class="down-wick"/>
<rect x="231.70" y="472.01" width="8.00" height="2.35" class="down-body"/>
<line x1="251.48" y1="455.54" x2="251.48" y2="482.97" class="up-wick"/>
<rect x="247.48" y="458.91" width="8.00" height="15.45" class="up-body"/>
<line x1="267.27" y1="418.12" x2="267.27" y2="460.95" class="up-wick"/>
<rect x="263.27" y="419.55" width="8.00" height="39.36" class="up-body"/>
<line x1="283.05" y1="401.08" x2="283.05" y2="429.15" class="up-wick"/>
<rect x="279.05" y="402.79" width="8.00" height="16.76" class="up-body"/>
<line x1="298.83" y1="385.14" x2="298.83" y2="405.51" class="up-wick"/>
<rect x="294.83" y="395.29" width="8.00" height="7.50" class="up-body"/>
<line x1="314.61" y1="381.19" x2="314.61" y2="396.93" class="up-wick"/>
<rect x="310.61" y="393.60" width="8.00" height="2.07" class="up-body"/>
<line x1="330.39" y1="391.12" x2="330.39" y2="406.71" class="down-wick"/>
<rect x="326.39" y="393.60" width="8.00" height="12.65" class="down-body"/>
<line x1="346.17" y1="400.95" x2="346.17" y2="411.01" class="down-wick"/>
<rect x="342.17" y="406.25" width="8.00" height="1.30" class="down-body"/>
<line x1="361.95" y1="404.27" x2="361.95" y2="417.61" class="down-wick"/>
<rect x="357.95" y="407.60" width="8.00" height="7.37" class="down-body"/>
<line x1="377.73" y1="412.51" x2="377.73" y2="420.61" class="up-wick"/>
<rect x="373.73" y="412.83" width="8.00" height="2.15" class="up-body"/>
<line x1="393.52" y1="410.83" x2="393.52" y2="425.51" class="down-wick"/>
<rect x="389.52" y="412.83" width="8.00" height="10.71" class="down-body"/>
<line x1="409.30" y1="415.49" x2="409.30" y2="428.79" class="up-wick"/>
<rect x="405.30" y="416.88" width="8.00" height="6.65" class="up-body"/>
<line x1="425.08" y1="413.94" x2="425.08" y2="426.40" class="down-wick"/>
<rect x="421.08" y="416.86" width="8.00" height="2.82" class="down-body"/>
<line x1="440.86" y1="417.88" x2="440.86" y2="428.18" class="down-wick"/>
<rect x="436.86" y="419.68" width="8.00" height="5.24" class="down-body"/>
<line x1="456.64" y1="415.99" x2="456.64" y2="424.63" class="up-wick"/>
<rect x="452.64" y="421.16" width="8.00" height="3.33" class="up-body"/>
<line x1="472.42" y1="415.99" x2="472.42" y2="423.48" class="up-wick"/>
<rect x="468.42" y="418.03" width="8.00" height="3.13" class="up-body"/>
<line x1="488.20" y1="417.87" x2="488.20" y2="431.87" class="down-wick"/>
<rect x="484.20" y="417.88" width="8.00" height="13.60" class="down-body"/>
<line x1="503.98" y1="420.42" x2="503.98" y2="431.59" class="up-wick"/>
<rect x="499.98" y="428.66" width="8.00" height="2.82" class="up-body"/>
<line x1="519.77" y1="420.90" x2="519.77" y2="436.80" class="down-wick"/>
<rect x="515.77" y="428.63" width="8.00" height="4.26" class="down-body"/>
<line x1="535.55" y1="427.22" x2="535.55" y2="435.22" class="up-wick"/>
<rect x="531.55" y="430.29" width="8.00" height="2.59" class="up-body"/>
<line x1="551.33" y1="415.25" x2="551.33" y2="445.65" class="down-wick"/>
<rect x="547.33" y="430.29" width="8.00" height="13.34" class="down-body"/>
<line x1="567.11" y1="420.70" x2="567.11" y2="443.63" class="up-wick"/>
<rect x="563.11" y="424.96" width="8.00" height="18.67" class="up-body"/>
<line x1="582.89" y1="419.03" x2="582.89" y2="434.68" class="down-wick"/>
<rect x="578.89" y="424.96" width="8.00" height="1.00" class="down-body"/>
<line x1="598.67" y1="425.29" x2="598.67" y2="437.68" class="down-wick"/>
<rect x="594.67" y="425.39" width="8.00" height="8.21" class="down-body"/>
<line x1="614.45" y1="422.66" x2="614.45" y2="434.65" class="up-wick"/>
<rect x="610.45" y="426.16" width="8.00" height="7.43" class="up-body"/>
<line x1="630.23" y1="416.44" x2="630.23" y2="434.70" class="up-wick"/>
<rect x="626.23" y="416.44" width="8.00" height="9.72" class="up-body"/>
<line x1="646.02" y1="405.08" x2="646.02" y2="419.03" class="up-wick"/>
<rect x="642.02" y="412.72" width="8.00" height="3.74" class="up-body"/>
<line x1="661.80" y1="397.31" x2="661.80" y2="418.57" class="up-wick"/>
<rect x="657.80" y="411.92" width="8.00" height="1.00" class="up-body"/>
<line x1="677.58" y1="410.20" x2="677.58" y2="426.14" class="down-wick"/>
<rect x="673.58" y="411.92" width="8.00" height="1.00" class="down-body"/>
<line x1="693.36" y1="412.23" x2="693.36" y2="432.31" class="down-wick"/>
<rect x="689.36" y="412.23" width="8.00" height="14.74" class="down-body"/>
<line x1="709.14" y1="423.16" x2="709.14" y2="433.65" class="down-wick"/>
<rect x="705.14" y="426.98" width="8.00" height="1.07" class="down-body"/>
<line x1="724.92" y1="421.83" x2="724.92" y2="433.22" class="up-wick"/>
<rect x="720.92" y="422.74" width="8.00" height="5.33" class="up-body"/>
<line x1="740.70" y1="421.88" x2="740.70" y2="429.03" class="up-wick"/>
<rect x="736.70" y="422.13" width="8.00" height="1.00" class="up-body"/>
<line x1="756.48" y1="414.96" x2="756.48" y2="422.53" class="up-wick"/>
<rect x="752.48" y="415.03" width="8.00" height="7.11" class="up-body"/>
<line x1="772.27" y1="411.88" x2="772.27" y2="420.11" class="down-wick"/>
<rect x="768.27" y="415.03" width="8.00" height="1.00" class="down-body"/>
<line x1="788.05" y1="415.68" x2="788.05" y2="423.31" class="down-wick"/>
<rect x="784.05" y="415.79" width="8.00" height="6.39" class="down-body"/>
<line x1="803.83" y1="418.49" x2="803.83" y2="438.46" class="down-wick"/>
<rect x="799.83" y="422.16" width="8.00" height="1.00" class="down-body"/>
<line x1="819.61" y1="413.36" x2="819.61" y2="427.94" class="down-wick"/>
<rect x="815.61" y="422.83" width="8.00" height="1.00" class="down-body"/>
<line x1="835.39" y1="408.75" x2="835.39" y2="426.52" class="up-wick"/>
<rect x="831.39" y="415.77" width="8.00" height="7.63" class="up-body"/>
<line x1="851.17" y1="406.10" x2="851.17" y2="416.96" class="up-wick"/>
<rect x="847.17" y="411.23" width="8.00" height="4.54" class="up-body"/>
<line x1="866.95" y1="407.71" x2="866.95" y2="417.25" class="down-wick"/>
<rect x="862.95" y="411.22" width="8.00" height="6.00" class="down-body"/>
<line x1="882.73" y1="413.09" x2="882.73" y2="418.09" class="up-wick"/>
<rect x="878.73" y="415.70" width="8.00" height="1.52" class="up-body"/>
<line x1="898.52" y1="414.81" x2="898.52" y2="432.07" class="down-wick"/>
<rect x="894.52" y="415.70" width="8.00" height="11.09" class="down-body"/>
<line x1="914.30" y1="424.37" x2="914.30" y2="432.76" class="down-wick"/>
<rect x="910.30" y="426.79" width="8.00" height="2.43" class="down-body"/>
<line x1="930.08" y1="417.57" x2="930.08" y2="430.53" class="up-wick"/>
<rect x="926.08" y="417.57" width="8.00" height="11.65" class="up-body"/>
<line x1="945.86" y1="387.88" x2="945.86" y2="417.64" class="up-wick"/>
<rect x="941.86" y="388.51" width="8.00" height="29.06" class="up-body"/>
<line x1="961.64" y1="383.71" x2="961.64" y2="402.53" class="up-wick"/>
<rect x="957.64" y="387.36" width="8.00" height="1.15" class="up-body"/>
<line x1="977.42" y1="367.04" x2="977.42" y2="400.19" class="down-wick"/>
<rect x="973.42" y="387.36" width="8.00" height="9.76" class="down-body"/>
<line x1="993.20" y1="390.40" x2="993.20" y2="409.46" class="up-wick"/>
<rect x="989.20" y="396.58" width="8.00" height="1.00" class="up-body"/>
<line x1="1008.98" y1="392.40" x2="1008.98" y2="405.99" class="down-wick"/>
<rect x="1004.98" y="396.58" width="8.00" height="4.96" class="down-body"/>
<line x1="1024.77" y1="376.52" x2="1024.77" y2="408.59" class="up-wick"/>
<rect x="1020.77" y="379.45" width="8.00" height="22.08" class="up-body"/>
<line x1="1040.55" y1="360.09" x2="1040.55" y2="385.36" class="up-wick"/>
<rect x="1036.55" y="362.67" width="8.00" height="16.78" class="up-body"/>
<line x1="1056.33" y1="359.24" x2="1056.33" y2="378.19" class="down-wick"/>
<rect x="1052.33" y="362.67" width="8.00" height="3.65" class="down-body"/>
<line x1="1072.11" y1="362.50" x2="1072.11" y2="376.39" class="down-wick"/>
<rect x="1068.11" y="366.24" width="8.00" height="8.46" class="down-body"/>
<line x1="70" y1="426.46" x2="1080" y2="426.46" class="number-line"/>
<text x="1076" y="422.46" text-anchor="end" class="level-label">round 4790.00</text>
<line x1="70" y1="426.46" x2="1080" y2="426.46" class="entry-line"/>
<text x="1076" y="422.46" text-anchor="end" class="level-label">entry level 4790.00</text>
<text x="70" y="556" class="axis-label">2026-04-20 01:00:00+00:00 to 2026-04-20 16:45:00+00:00</text>
<text x="1080" y="556" text-anchor="end" class="axis-label">4729.78 - 4833.44</text>
<text x="70" y="582" class="panel-title">M5 reaction / execution context</text>
<rect x="70" y="596" width="1010" height="192" class="plot-bg"/>
<line x1="79.18" y1="721.80" x2="79.18" y2="747.35" class="down-wick"/>
<rect x="75.18" y="722.17" width="8.00" height="22.87" class="down-body"/>
<line x1="97.55" y1="738.71" x2="97.55" y2="771.11" class="down-wick"/>
<rect x="93.55" y="745.04" width="8.00" height="2.16" class="down-body"/>
<line x1="115.91" y1="741.09" x2="115.91" y2="771.63" class="down-wick"/>
<rect x="111.91" y="747.20" width="8.00" height="7.97" class="down-body"/>
<line x1="134.27" y1="711.22" x2="134.27" y2="759.41" class="up-wick"/>
<rect x="130.27" y="747.57" width="8.00" height="7.60" class="up-body"/>
<line x1="152.64" y1="722.47" x2="152.64" y2="753.90" class="up-wick"/>
<rect x="148.64" y="723.88" width="8.00" height="23.69" class="up-body"/>
<line x1="171.00" y1="718.67" x2="171.00" y2="746.75" class="down-wick"/>
<rect x="167.00" y="723.88" width="8.00" height="1.42" class="down-body"/>
<line x1="189.36" y1="725.15" x2="189.36" y2="756.88" class="down-wick"/>
<rect x="185.36" y="725.30" width="8.00" height="19.89" class="down-body"/>
<line x1="207.73" y1="734.16" x2="207.73" y2="759.64" class="down-wick"/>
<rect x="203.73" y="745.19" width="8.00" height="2.98" class="down-body"/>
<line x1="226.09" y1="686.19" x2="226.09" y2="751.22" class="up-wick"/>
<rect x="222.09" y="686.19" width="8.00" height="61.75" class="up-body"/>
<line x1="244.45" y1="640.53" x2="244.45" y2="690.81" class="up-wick"/>
<rect x="240.45" y="667.49" width="8.00" height="18.77" class="up-body"/>
<line x1="262.82" y1="661.61" x2="262.82" y2="695.87" class="down-wick"/>
<rect x="258.82" y="668.68" width="8.00" height="13.63" class="down-body"/>
<line x1="281.18" y1="669.50" x2="281.18" y2="696.62" class="up-wick"/>
<rect x="277.18" y="671.22" width="8.00" height="11.10" class="up-body"/>
<line x1="299.55" y1="622.43" x2="299.55" y2="694.76" class="up-wick"/>
<rect x="295.55" y="631.66" width="8.00" height="39.55" class="up-body"/>
<line x1="317.91" y1="609.24" x2="317.91" y2="642.24" class="down-wick"/>
<rect x="313.91" y="631.66" width="8.00" height="7.23" class="down-body"/>
<line x1="336.27" y1="637.25" x2="336.27" y2="677.33" class="down-wick"/>
<rect x="332.27" y="638.89" width="8.00" height="29.13" class="down-body"/>
<line x1="354.64" y1="661.98" x2="354.64" y2="721.20" class="down-wick"/>
<rect x="350.64" y="668.01" width="8.00" height="24.81" class="down-body"/>
<line x1="373.00" y1="676.80" x2="373.00" y2="725.22" class="up-wick"/>
<rect x="369.00" y="680.23" width="8.00" height="12.59" class="up-body"/>
<line x1="391.36" y1="661.09" x2="391.36" y2="690.58" class="up-wick"/>
<rect x="387.36" y="669.28" width="8.00" height="10.95" class="up-body"/>
<line x1="409.73" y1="669.28" x2="409.73" y2="707.64" class="down-wick"/>
<rect x="405.73" y="669.28" width="8.00" height="37.25" class="down-body"/>
<line x1="428.09" y1="696.47" x2="428.09" y2="739.90" class="down-wick"/>
<rect x="424.09" y="706.67" width="8.00" height="33.07" class="down-body"/>
<line x1="446.45" y1="718.00" x2="446.45" y2="750.03" class="up-wick"/>
<rect x="442.45" y="728.57" width="8.00" height="11.47" class="up-body"/>
<line x1="464.82" y1="718.74" x2="464.82" y2="755.39" class="down-wick"/>
<rect x="460.82" y="728.57" width="8.00" height="7.67" class="down-body"/>
<line x1="483.18" y1="717.40" x2="483.18" y2="749.13" class="down-wick"/>
<rect x="479.18" y="736.25" width="8.00" height="2.16" class="down-body"/>
<line x1="501.55" y1="713.23" x2="501.55" y2="742.06" class="up-wick"/>
<rect x="497.55" y="732.90" width="8.00" height="5.51" class="up-body"/>
<line x1="519.91" y1="730.66" x2="519.91" y2="753.68" class="down-wick"/>
<rect x="515.91" y="732.97" width="8.00" height="3.95" class="down-body"/>
<line x1="538.27" y1="716.13" x2="538.27" y2="748.02" class="up-wick"/>
<rect x="534.27" y="735.73" width="8.00" height="1.19" class="up-body"/>
<line x1="556.64" y1="707.87" x2="556.64" y2="737.59" class="up-wick"/>
<rect x="552.64" y="711.52" width="8.00" height="24.21" class="up-body"/>
<line x1="575.00" y1="708.09" x2="575.00" y2="734.46" class="down-wick"/>
<rect x="571.00" y="711.52" width="8.00" height="14.08" class="down-body"/>
<line x1="593.36" y1="719.71" x2="593.36" y2="736.84" class="down-wick"/>
<rect x="589.36" y="725.67" width="8.00" height="3.65" class="down-body"/>
<line x1="611.73" y1="708.16" x2="611.73" y2="734.24" class="up-wick"/>
<rect x="607.73" y="709.06" width="8.00" height="20.26" class="up-body"/>
<line x1="630.09" y1="688.72" x2="630.09" y2="710.70" class="up-wick"/>
<rect x="626.09" y="692.89" width="8.00" height="16.24" class="up-body"/>
<line x1="648.45" y1="680.75" x2="648.45" y2="702.43" class="down-wick"/>
<rect x="644.45" y="692.89" width="8.00" height="5.59" class="down-body"/>
<line x1="666.82" y1="680.23" x2="666.82" y2="706.90" class="up-wick"/>
<rect x="662.82" y="680.53" width="8.00" height="17.95" class="up-body"/>
<line x1="685.18" y1="669.35" x2="685.18" y2="700.94" class="down-wick"/>
<rect x="681.18" y="680.53" width="8.00" height="4.92" class="down-body"/>
<line x1="703.55" y1="667.87" x2="703.55" y2="700.19" class="down-wick"/>
<rect x="699.55" y="685.44" width="8.00" height="3.28" class="down-body"/>
<line x1="721.91" y1="671.07" x2="721.91" y2="695.58" class="up-wick"/>
<rect x="717.91" y="683.28" width="8.00" height="5.44" class="up-body"/>
<line x1="740.27" y1="683.14" x2="740.27" y2="710.77" class="down-wick"/>
<rect x="736.27" y="683.58" width="8.00" height="8.94" class="down-body"/>
<line x1="758.64" y1="683.43" x2="758.64" y2="701.09" class="down-wick"/>
<rect x="754.64" y="692.60" width="8.00" height="7.75" class="down-body"/>
<line x1="777.00" y1="698.70" x2="777.00" y2="713.83" class="down-wick"/>
<rect x="773.00" y="700.42" width="8.00" height="8.86" class="down-body"/>
<line x1="795.36" y1="694.46" x2="795.36" y2="774.76" class="down-wick"/>
<rect x="791.36" y="709.21" width="8.00" height="45.89" class="down-body"/>
<line x1="813.73" y1="731.93" x2="813.73" y2="764.48" class="up-wick"/>
<rect x="809.73" y="739.23" width="8.00" height="15.87" class="up-body"/>
<line x1="832.09" y1="708.69" x2="832.09" y2="743.03" class="up-wick"/>
<rect x="828.09" y="711.89" width="8.00" height="27.11" class="up-body"/>
<line x1="850.45" y1="681.05" x2="850.45" y2="717.25" class="up-wick"/>
<rect x="846.45" y="687.46" width="8.00" height="24.43" class="up-body"/>
<line x1="868.82" y1="673.82" x2="868.82" y2="714.94" class="down-wick"/>
<rect x="864.82" y="687.46" width="8.00" height="23.39" class="down-body"/>
<line x1="887.18" y1="696.25" x2="887.18" y2="732.45" class="down-wick"/>
<rect x="883.18" y="711.22" width="8.00" height="2.98" class="down-body"/>
<line x1="905.55" y1="698.93" x2="905.55" y2="726.71" class="down-wick"/>
<rect x="901.55" y="714.20" width="8.00" height="1.86" class="down-body"/>
<line x1="923.91" y1="657.29" x2="923.91" y2="718.44" class="up-wick"/>
<rect x="919.91" y="668.39" width="8.00" height="47.67" class="up-body"/>
<line x1="942.27" y1="655.28" x2="942.27" y2="688.87" class="down-wick"/>
<rect x="938.27" y="668.39" width="8.00" height="15.12" class="down-body"/>
<line x1="960.64" y1="648.80" x2="960.64" y2="688.28" class="up-wick"/>
<rect x="956.64" y="650.06" width="8.00" height="33.45" class="up-body"/>
<line x1="979.00" y1="644.62" x2="979.00" y2="668.98" class="down-wick"/>
<rect x="975.00" y="650.21" width="8.00" height="16.46" class="down-body"/>
<line x1="997.36" y1="659.00" x2="997.36" y2="676.28" class="up-wick"/>
<rect x="993.36" y="665.26" width="8.00" height="1.42" class="up-body"/>
<line x1="1015.73" y1="651.10" x2="1015.73" y2="674.94" class="down-wick"/>
<rect x="1011.73" y="665.18" width="8.00" height="8.79" class="down-body"/>
<line x1="1034.09" y1="669.50" x2="1034.09" y2="681.65" class="down-wick"/>
<rect x="1030.09" y="674.05" width="8.00" height="3.05" class="down-body"/>
<line x1="1052.45" y1="672.26" x2="1052.45" y2="689.47" class="down-wick"/>
<rect x="1048.45" y="677.18" width="8.00" height="12.14" class="down-body"/>
<line x1="1070.82" y1="676.06" x2="1070.82" y2="689.77" class="up-wick"/>
<rect x="1066.82" y="678.59" width="8.00" height="10.73" class="up-body"/>
<line x1="70" y1="726.49" x2="1080" y2="726.49" class="number-line"/>
<text x="1076" y="722.49" text-anchor="end" class="level-label">round 4790.00</text>
<line x1="70" y1="726.49" x2="1080" y2="726.49" class="entry-line"/>
<text x="1076" y="722.49" text-anchor="end" class="level-label">entry level 4790.00</text>
<text x="70" y="806" class="axis-label">2026-04-20 09:15:00+00:00 to 2026-04-20 13:45:00+00:00</text>
<text x="1080" y="806" text-anchor="end" class="axis-label">4781.74 - 4807.52</text>
<text x="70" y="832" class="panel-title">M1 execution window</text>
<rect x="70" y="846" width="1010" height="192" class="plot-bg"/>
<line x1="73.71" y1="970.95" x2="73.71" y2="991.46" class="down-wick"/>
<rect x="71.30" y="971.33" width="4.83" height="8.55" class="down-body"/>
<line x1="81.14" y1="976.40" x2="81.14" y2="989.79" class="up-wick"/>
<rect x="78.73" y="977.68" width="4.83" height="11.43" class="up-body"/>
<line x1="88.57" y1="988.20" x2="88.57" y2="996.91" class="down-wick"/>
<rect x="86.15" y="993.35" width="4.83" height="1.21" class="down-body"/>
<line x1="95.99" y1="994.18" x2="95.99" y2="1007.88" class="up-wick"/>
<rect x="93.58" y="996.15" width="4.83" height="7.42" class="up-body"/>
<line x1="103.42" y1="998.50" x2="103.42" y2="1021.05" class="up-wick"/>
<rect x="101.01" y="999.41" width="4.83" height="8.40" class="up-body"/>
<line x1="110.85" y1="995.24" x2="110.85" y2="1011.74" class="up-wick"/>
<rect x="108.43" y="995.39" width="4.83" height="1.36" class="up-body"/>
<line x1="118.27" y1="1004.48" x2="118.27" y2="1017.19" class="up-wick"/>
<rect x="115.86" y="1008.94" width="4.83" height="7.42" class="up-body"/>
<line x1="125.70" y1="1004.63" x2="125.70" y2="1021.58" class="up-wick"/>
<rect x="123.28" y="1004.85" width="4.83" height="8.63" class="up-body"/>
<line x1="133.12" y1="960.20" x2="133.12" y2="990.55" class="down-wick"/>
<rect x="130.71" y="964.44" width="4.83" height="23.84" class="down-body"/>
<line x1="140.55" y1="973.98" x2="140.55" y2="987.30" class="down-wick"/>
<rect x="138.14" y="977.00" width="4.83" height="8.48" class="down-body"/>
<line x1="147.98" y1="994.26" x2="147.98" y2="1003.57" class="up-wick"/>
<rect x="145.56" y="995.85" width="4.83" height="1.29" class="up-body"/>
<line x1="155.40" y1="978.29" x2="155.40" y2="993.12" class="down-wick"/>
<rect x="152.99" y="979.20" width="4.83" height="13.17" class="down-body"/>
<line x1="162.83" y1="971.63" x2="162.83" y2="992.90" class="up-wick"/>
<rect x="160.42" y="973.07" width="4.83" height="19.83" class="up-body"/>
<line x1="170.26" y1="984.27" x2="170.26" y2="996.30" class="up-wick"/>
<rect x="167.84" y="985.03" width="4.83" height="3.03" class="up-body"/>
<line x1="177.68" y1="969.51" x2="177.68" y2="981.85" class="down-wick"/>
<rect x="175.27" y="976.70" width="4.83" height="2.57" class="down-body"/>
<line x1="185.11" y1="974.35" x2="185.11" y2="989.49" class="down-wick"/>
<rect x="182.70" y="974.51" width="4.83" height="12.71" class="down-body"/>
<line x1="192.54" y1="991.16" x2="192.54" y2="1005.23" class="down-wick"/>
<rect x="190.12" y="993.80" width="4.83" height="8.85" class="down-body"/>
<line x1="199.96" y1="987.75" x2="199.96" y2="996.83" class="down-wick"/>
<rect x="197.55" y="987.83" width="4.83" height="6.89" class="down-body"/>
<line x1="207.39" y1="999.25" x2="207.39" y2="1007.20" class="up-wick"/>
<rect x="204.98" y="1002.28" width="4.83" height="3.94" class="up-body"/>
<line x1="214.82" y1="983.51" x2="214.82" y2="995.32" class="up-wick"/>
<rect x="212.40" y="991.23" width="4.83" height="1.06" class="up-body"/>
<line x1="222.24" y1="980.94" x2="222.24" y2="997.51" class="up-wick"/>
<rect x="219.83" y="983.13" width="4.83" height="14.38" class="up-body"/>
<line x1="229.67" y1="959.52" x2="229.67" y2="981.92" class="down-wick"/>
<rect x="227.26" y="959.52" width="4.83" height="2.65" class="down-body"/>
<line x1="237.10" y1="934.77" x2="237.10" y2="948.62" class="up-wick"/>
<rect x="234.68" y="934.77" width="4.83" height="7.27" class="up-body"/>
<line x1="244.52" y1="918.27" x2="244.52" y2="939.46" class="down-wick"/>
<rect x="242.11" y="920.77" width="4.83" height="3.78" class="down-body"/>
<line x1="251.95" y1="888.38" x2="251.95" y2="919.18" class="up-wick"/>
<rect x="249.53" y="904.27" width="4.83" height="12.87" class="up-body"/>
<line x1="259.38" y1="909.80" x2="259.38" y2="928.11" class="down-wick"/>
<rect x="256.96" y="916.99" width="4.83" height="9.08" class="down-body"/>
<line x1="266.80" y1="919.33" x2="266.80" y2="937.80" class="down-wick"/>
<rect x="264.39" y="933.41" width="4.83" height="1.97" class="down-body"/>
<line x1="274.23" y1="918.50" x2="274.23" y2="935.08" class="down-wick"/>
<rect x="271.81" y="928.64" width="4.83" height="2.19" class="down-body"/>
<line x1="281.65" y1="922.59" x2="281.65" y2="945.07" class="down-wick"/>
<rect x="279.24" y="932.73" width="4.83" height="7.27" class="down-body"/>
<line x1="289.08" y1="922.59" x2="289.08" y2="940.22" class="up-wick"/>
<rect x="286.67" y="922.66" width="4.83" height="13.47" class="up-body"/>
<line x1="296.51" y1="919.56" x2="296.51" y2="933.11" class="down-wick"/>
<rect x="294.09" y="919.56" width="4.83" height="8.70" class="down-body"/>
<line x1="303.93" y1="899.81" x2="303.93" y2="933.49" class="up-wick"/>
<rect x="301.52" y="900.34" width="4.83" height="29.29" class="up-body"/>
<line x1="311.36" y1="869.99" x2="311.36" y2="882.48" class="down-wick"/>
<rect x="308.95" y="874.08" width="4.83" height="5.30" class="down-body"/>
<line x1="318.79" y1="859.24" x2="318.79" y2="876.27" class="down-wick"/>
<rect x="316.37" y="867.19" width="4.83" height="1.00" class="down-body"/>
<line x1="326.21" y1="867.57" x2="326.21" y2="890.12" class="down-wick"/>
<rect x="323.80" y="867.57" width="4.83" height="11.43" class="down-body"/>
<line x1="333.64" y1="885.05" x2="333.64" y2="894.74" class="down-wick"/>
<rect x="331.23" y="886.71" width="4.83" height="4.69" class="down-body"/>
<line x1="341.07" y1="907.07" x2="341.07" y2="916.31" class="up-wick"/>
<rect x="338.65" y="908.96" width="4.83" height="7.11" class="up-body"/>
<line x1="348.49" y1="915.85" x2="348.49" y2="925.77" class="up-wick"/>
<rect x="346.08" y="916.31" width="4.83" height="6.36" class="up-body"/>
<line x1="355.92" y1="938.78" x2="355.92" y2="958.76" class="down-wick"/>
<rect x="353.51" y="947.41" width="4.83" height="1.14" class="down-body"/>
<line x1="363.35" y1="938.10" x2="363.35" y2="970.34" class="down-wick"/>
<rect x="360.93" y="938.10" width="4.83" height="19.45" class="down-body"/>
<line x1="370.77" y1="936.59" x2="370.77" y2="947.34" class="down-wick"/>
<rect x="368.36" y="941.51" width="4.83" height="4.31" class="down-body"/>
<line x1="378.20" y1="949.68" x2="378.20" y2="965.35" class="up-wick"/>
<rect x="375.78" y="950.89" width="4.83" height="8.70" class="up-body"/>
<line x1="385.62" y1="925.24" x2="385.62" y2="934.62" class="up-wick"/>
<rect x="383.21" y="928.72" width="4.83" height="1.00" class="up-body"/>
<line x1="393.05" y1="927.66" x2="393.05" y2="939.24" class="up-wick"/>
<rect x="390.64" y="928.79" width="4.83" height="1.00" class="up-body"/>
<line x1="400.48" y1="919.03" x2="400.48" y2="929.55" class="up-wick"/>
<rect x="398.06" y="922.44" width="4.83" height="6.58" class="up-body"/>
<line x1="407.90" y1="917.59" x2="407.90" y2="943.10" class="down-wick"/>
<rect x="405.49" y="917.59" width="4.83" height="21.42" class="down-body"/>
<line x1="415.33" y1="930.61" x2="415.33" y2="949.76" class="down-wick"/>
<rect x="412.92" y="934.77" width="4.83" height="14.99" class="down-body"/>
<line x1="422.76" y1="944.01" x2="422.76" y2="956.57" class="down-wick"/>
<rect x="420.34" y="945.52" width="4.83" height="9.91" class="down-body"/>
<line x1="430.18" y1="949.91" x2="430.18" y2="977.68" class="up-wick"/>
<rect x="427.77" y="952.33" width="4.83" height="16.20" class="up-body"/>
<line x1="437.61" y1="964.89" x2="437.61" y2="980.48" class="up-wick"/>
<rect x="435.20" y="964.89" width="4.83" height="1.00" class="up-body"/>
<line x1="445.04" y1="967.09" x2="445.04" y2="990.32" class="up-wick"/>
<rect x="442.62" y="979.58" width="4.83" height="9.91" class="up-body"/>
<line x1="452.46" y1="975.79" x2="452.46" y2="992.14" class="up-wick"/>
<rect x="450.05" y="984.50" width="4.83" height="1.00" class="up-body"/>
<line x1="459.89" y1="975.57" x2="459.89" y2="992.14" class="up-wick"/>
<rect x="457.48" y="977.84" width="4.83" height="14.30" class="up-body"/>
<line x1="467.32" y1="967.85" x2="467.32" y2="979.88" class="up-wick"/>
<rect x="464.90" y="971.86" width="4.83" height="7.80" class="up-body"/>
<line x1="474.74" y1="974.43" x2="474.74" y2="991.23" class="up-wick"/>
<rect x="472.33" y="982.60" width="4.83" height="7.34" class="up-body"/>
<line x1="482.17" y1="966.48" x2="482.17" y2="986.77" class="up-wick"/>
<rect x="479.76" y="980.18" width="4.83" height="5.45" class="up-body"/>
<line x1="489.60" y1="974.20" x2="489.60" y2="998.72" class="down-wick"/>
<rect x="487.18" y="986.01" width="4.83" height="9.84" class="down-body"/>
<line x1="497.02" y1="979.58" x2="497.02" y2="990.02" class="down-wick"/>
<rect x="494.61" y="985.40" width="4.83" height="2.42" class="down-body"/>
<line x1="504.45" y1="966.63" x2="504.45" y2="977.91" class="down-wick"/>
<rect x="502.03" y="969.59" width="4.83" height="1.06" class="down-body"/>
<line x1="511.88" y1="963.53" x2="511.88" y2="971.33" class="up-wick"/>
<rect x="509.46" y="965.73" width="4.83" height="1.67" class="up-body"/>
<line x1="519.30" y1="979.95" x2="519.30" y2="994.86" class="down-wick"/>
<rect x="516.89" y="982.30" width="4.83" height="8.48" class="down-body"/>
<line x1="526.73" y1="990.93" x2="526.73" y2="1003.34" class="down-wick"/>
<rect x="524.31" y="996.76" width="4.83" height="4.47" class="down-body"/>
<line x1="534.15" y1="981.47" x2="534.15" y2="998.19" class="up-wick"/>
<rect x="531.74" y="986.31" width="4.83" height="7.19" class="up-body"/>
<line x1="541.58" y1="965.20" x2="541.58" y2="997.59" class="up-wick"/>
<rect x="539.17" y="982.07" width="4.83" height="7.87" class="up-body"/>
<line x1="549.01" y1="972.31" x2="549.01" y2="989.34" class="down-wick"/>
<rect x="546.59" y="981.92" width="4.83" height="5.52" class="down-body"/>
<line x1="556.43" y1="977.00" x2="556.43" y2="985.86" class="up-wick"/>
<rect x="554.02" y="980.64" width="4.83" height="4.47" class="up-body"/>
<line x1="563.86" y1="966.79" x2="563.86" y2="981.09" class="up-wick"/>
<rect x="561.45" y="971.40" width="4.83" height="8.40" class="up-body"/>
<line x1="571.29" y1="956.80" x2="571.29" y2="966.86" class="up-wick"/>
<rect x="568.87" y="960.50" width="4.83" height="6.36" class="up-body"/>
<line x1="578.71" y1="972.76" x2="578.71" y2="981.01" class="up-wick"/>
<rect x="576.30" y="975.41" width="4.83" height="1.06" class="up-body"/>
<line x1="586.14" y1="962.09" x2="586.14" y2="974.58" class="up-wick"/>
<rect x="583.73" y="969.13" width="4.83" height="1.00" class="up-body"/>
<line x1="593.57" y1="972.84" x2="593.57" y2="984.19" class="down-wick"/>
<rect x="591.15" y="974.88" width="4.83" height="5.75" class="down-body"/>
<line x1="600.99" y1="978.74" x2="600.99" y2="986.24" class="up-wick"/>
<rect x="598.58" y="978.90" width="4.83" height="3.33" class="up-body"/>
<line x1="608.42" y1="974.20" x2="608.42" y2="983.06" class="down-wick"/>
<rect x="606.01" y="976.09" width="4.83" height="2.50" class="down-body"/>
<line x1="615.85" y1="964.14" x2="615.85" y2="977.99" class="up-wick"/>
<rect x="613.43" y="966.56" width="4.83" height="11.35" class="up-body"/>
<line x1="623.27" y1="962.93" x2="623.27" y2="970.04" class="down-wick"/>
<rect x="620.86" y="962.93" width="4.83" height="3.78" class="down-body"/>
<line x1="630.70" y1="947.03" x2="630.70" y2="959.67" class="up-wick"/>
<rect x="628.28" y="951.27" width="4.83" height="6.81" class="up-body"/>
<line x1="638.12" y1="940.07" x2="638.12" y2="950.44" class="up-wick"/>
<rect x="635.71" y="943.02" width="4.83" height="5.60" class="up-body"/>
<line x1="645.55" y1="939.24" x2="645.55" y2="948.70" class="up-wick"/>
<rect x="643.14" y="941.58" width="4.83" height="6.96" class="up-body"/>
<line x1="652.98" y1="930.53" x2="652.98" y2="942.64" class="down-wick"/>
<rect x="650.56" y="930.53" width="4.83" height="7.49" class="down-body"/>
<line x1="660.40" y1="943.55" x2="660.40" y2="951.27" class="down-wick"/>
<rect x="657.99" y="946.05" width="4.83" height="1.36" class="down-body"/>
<line x1="667.83" y1="942.95" x2="667.83" y2="949.38" class="up-wick"/>
<rect x="665.42" y="946.58" width="4.83" height="1.00" class="up-body"/>
<line x1="675.26" y1="933.94" x2="675.26" y2="955.81" class="up-wick"/>
<rect x="672.84" y="935.38" width="4.83" height="16.42" class="up-body"/>
<line x1="682.68" y1="928.72" x2="682.68" y2="935.83" class="up-wick"/>
<rect x="680.27" y="929.02" width="4.83" height="2.80" class="up-body"/>
<line x1="690.11" y1="917.67" x2="690.11" y2="929.02" class="up-wick"/>
<rect x="687.70" y="922.13" width="4.83" height="6.28" class="up-body"/>
<line x1="697.54" y1="922.97" x2="697.54" y2="936.97" class="up-wick"/>
<rect x="695.12" y="927.05" width="4.83" height="5.75" class="up-body"/>
<line x1="704.96" y1="916.15" x2="704.96" y2="940.52" class="up-wick"/>
<rect x="702.55" y="920.39" width="4.83" height="13.62" class="up-body"/>
<line x1="712.39" y1="925.61" x2="712.39" y2="932.12" class="down-wick"/>
<rect x="709.98" y="929.10" width="4.83" height="1.00" class="down-body"/>
<line x1="719.82" y1="933.71" x2="719.82" y2="949.00" class="down-wick"/>
<rect x="717.40" y="933.94" width="4.83" height="3.41" class="down-body"/>
<line x1="727.24" y1="937.95" x2="727.24" y2="943.63" class="down-wick"/>
<rect x="724.83" y="938.86" width="4.83" height="1.44" class="down-body"/>
<line x1="734.67" y1="919.41" x2="734.67" y2="932.27" class="up-wick"/>
<rect x="732.26" y="922.74" width="4.83" height="6.58" class="up-body"/>
<line x1="742.10" y1="931.67" x2="742.10" y2="949.38" class="down-wick"/>
<rect x="739.68" y="932.12" width="4.83" height="17.18" class="down-body"/>
<line x1="749.52" y1="941.81" x2="749.52" y2="947.87" class="up-wick"/>
<rect x="747.11" y="944.01" width="4.83" height="2.80" class="up-body"/>
<line x1="756.95" y1="939.69" x2="756.95" y2="952.56" class="up-wick"/>
<rect x="754.53" y="941.21" width="4.83" height="10.22" class="up-body"/>
<line x1="764.38" y1="932.35" x2="764.38" y2="946.81" class="up-wick"/>
<rect x="761.96" y="935.91" width="4.83" height="9.54" class="up-body"/>
<line x1="771.80" y1="936.51" x2="771.80" y2="949.91" class="up-wick"/>
<rect x="769.39" y="937.72" width="4.83" height="8.70" class="up-body"/>
<line x1="779.23" y1="947.49" x2="779.23" y2="953.84" class="up-wick"/>
<rect x="776.81" y="948.55" width="4.83" height="1.00" class="up-body"/>
<line x1="786.65" y1="948.17" x2="786.65" y2="959.52" class="down-wick"/>
<rect x="784.24" y="949.08" width="4.83" height="6.36" class="down-body"/>
<line x1="794.08" y1="953.39" x2="794.08" y2="962.85" class="down-wick"/>
<rect x="791.67" y="954.30" width="4.83" height="3.94" class="down-body"/>
<line x1="801.51" y1="977.76" x2="801.51" y2="994.86" class="down-wick"/>
<rect x="799.09" y="977.76" width="4.83" height="15.14" class="down-body"/>
<line x1="808.93" y1="1006.44" x2="808.93" y2="1024.76" class="up-wick"/>
<rect x="806.52" y="1009.47" width="4.83" height="2.57" class="up-body"/>
<line x1="816.36" y1="996.45" x2="816.36" y2="1004.78" class="up-wick"/>
<rect x="813.95" y="1000.16" width="4.83" height="4.62" class="up-body"/>
<line x1="823.79" y1="1002.58" x2="823.79" y2="1014.31" class="down-wick"/>
<rect x="821.37" y="1003.72" width="4.83" height="2.57" class="down-body"/>
<line x1="831.21" y1="981.24" x2="831.21" y2="992.52" class="down-wick"/>
<rect x="828.80" y="985.03" width="4.83" height="3.63" class="down-body"/>
<line x1="838.64" y1="975.49" x2="838.64" y2="986.31" class="up-wick"/>
<rect x="836.23" y="976.17" width="4.83" height="6.21" class="up-body"/>
<line x1="846.07" y1="973.37" x2="846.07" y2="983.51" class="up-wick"/>
<rect x="843.65" y="975.19" width="4.83" height="7.27" class="up-body"/>
<line x1="853.49" y1="960.20" x2="853.49" y2="966.33" class="up-wick"/>
<rect x="851.08" y="960.66" width="4.83" height="1.00" class="up-body"/>
<line x1="860.92" y1="929.55" x2="860.92" y2="949.98" class="up-wick"/>
<rect x="858.51" y="934.39" width="4.83" height="14.76" class="up-body"/>
<line x1="868.35" y1="935.23" x2="868.35" y2="942.34" class="up-wick"/>
<rect x="865.93" y="936.06" width="4.83" height="4.24" class="up-body"/>
<line x1="875.77" y1="922.21" x2="875.77" y2="934.62" class="up-wick"/>
<rect x="873.36" y="926.45" width="4.83" height="5.07" class="up-body"/>
<line x1="883.20" y1="922.51" x2="883.20" y2="941.51" class="down-wick"/>
<rect x="880.78" y="924.48" width="4.83" height="14.08" class="down-body"/>
<line x1="890.62" y1="959.82" x2="890.62" y2="977.31" class="down-wick"/>
<rect x="888.21" y="960.20" width="4.83" height="13.24" class="down-body"/>
<line x1="898.05" y1="966.56" x2="898.05" y2="978.06" class="up-wick"/>
<rect x="895.64" y="967.85" width="4.83" height="8.85" class="up-body"/>
<line x1="905.48" y1="944.99" x2="905.48" y2="966.03" class="down-wick"/>
<rect x="903.06" y="949.98" width="4.83" height="13.24" class="down-body"/>
<line x1="912.90" y1="954.30" x2="912.90" y2="966.18" class="up-wick"/>
<rect x="910.49" y="959.52" width="4.83" height="1.44" class="up-body"/>
<line x1="920.33" y1="947.71" x2="920.33" y2="975.94" class="down-wick"/>
<rect x="917.92" y="950.21" width="4.83" height="18.01" class="down-body"/>
<line x1="927.76" y1="954.83" x2="927.76" y2="967.54" class="up-wick"/>
<rect x="925.34" y="955.96" width="4.83" height="9.16" class="up-body"/>
<line x1="935.18" y1="919.64" x2="935.18" y2="939.84" class="up-wick"/>
<rect x="932.77" y="925.16" width="4.83" height="14.68" class="up-body"/>
<line x1="942.61" y1="905.41" x2="942.61" y2="920.17" class="up-wick"/>
<rect x="940.20" y="916.68" width="4.83" height="1.00" class="up-body"/>
<line x1="950.04" y1="903.36" x2="950.04" y2="926.83" class="down-wick"/>
<rect x="947.62" y="911.01" width="4.83" height="15.21" class="down-body"/>
<line x1="957.46" y1="925.61" x2="957.46" y2="937.50" class="down-wick"/>
<rect x="955.05" y="927.43" width="4.83" height="7.11" class="down-body"/>
<line x1="964.89" y1="922.36" x2="964.89" y2="936.89" class="up-wick"/>
<rect x="962.48" y="925.69" width="4.83" height="6.36" class="up-body"/>
<line x1="972.32" y1="904.80" x2="972.32" y2="918.35" class="up-wick"/>
<rect x="969.90" y="906.24" width="4.83" height="10.90" class="up-body"/>
<line x1="979.74" y1="896.78" x2="979.74" y2="906.24" class="up-wick"/>
<rect x="977.33" y="898.07" width="4.83" height="3.25" class="up-body"/>
<line x1="987.17" y1="897.01" x2="987.17" y2="905.10" class="up-wick"/>
<rect x="984.76" y="898.44" width="4.83" height="3.63" class="up-body"/>
<line x1="994.60" y1="894.36" x2="994.60" y2="908.96" class="down-wick"/>
<rect x="992.18" y="894.43" width="4.83" height="10.60" class="down-body"/>
<line x1="1002.02" y1="910.18" x2="1002.02" y2="918.88" class="down-wick"/>
<rect x="999.61" y="914.94" width="4.83" height="3.94" class="down-body"/>
<line x1="1009.45" y1="912.67" x2="1009.45" y2="922.74" class="up-wick"/>
<rect x="1007.03" y="913.96" width="4.83" height="8.25" class="up-body"/>
<line x1="1016.88" y1="907.15" x2="1016.88" y2="914.04" class="down-wick"/>
<rect x="1014.46" y="907.75" width="4.83" height="5.75" class="down-body"/>
<line x1="1024.30" y1="904.35" x2="1024.30" y2="916.91" class="down-wick"/>
<rect x="1021.89" y="906.16" width="4.83" height="9.01" class="down-body"/>
<line x1="1031.73" y1="913.66" x2="1031.73" y2="923.34" class="down-wick"/>
<rect x="1029.31" y="913.66" width="4.83" height="5.00" class="down-body"/>
<line x1="1039.15" y1="917.82" x2="1039.15" y2="922.74" class="up-wick"/>
<rect x="1036.74" y="919.71" width="4.83" height="2.72" class="up-body"/>
<line x1="1046.58" y1="923.34" x2="1046.58" y2="930.16" class="down-wick"/>
<rect x="1044.17" y="923.34" width="4.83" height="4.01" class="down-body"/>
<line x1="1054.01" y1="921.75" x2="1054.01" y2="928.87" class="down-wick"/>
<rect x="1051.59" y="921.91" width="4.83" height="3.63" class="down-body"/>
<line x1="1061.43" y1="920.62" x2="1061.43" y2="931.37" class="down-wick"/>
<rect x="1059.02" y="925.46" width="4.83" height="1.00" class="down-body"/>
<line x1="1068.86" y1="929.85" x2="1068.86" y2="935.23" class="up-wick"/>
<rect x="1066.45" y="933.41" width="4.83" height="1.00" class="up-body"/>
<line x1="1076.29" y1="933.18" x2="1076.29" y2="937.95" class="up-wick"/>
<rect x="1073.87" y="934.85" width="4.83" height="3.10" class="up-body"/>
<line x1="70" y1="975.72" x2="1080" y2="975.72" class="number-line"/>
<text x="1076" y="971.72" text-anchor="end" class="level-label">round 4790.00</text>
<line x1="70" y1="975.72" x2="1080" y2="975.72" class="entry-line"/>
<text x="1076" y="971.72" text-anchor="end" class="level-label">entry level 4790.00</text>
<text x="70" y="1056" class="axis-label">2026-04-20 09:15:00+00:00 to 2026-04-20 13:45:00+00:00</text>
<text x="1080" y="1056" text-anchor="end" class="axis-label">4781.77 - 4807.14</text>
</svg>