<svg xmlns="http://www.w3.org/2000/svg" width="1120" height="1054" viewBox="0 0 1120 1054">
<style>
text{font-family:Arial,Helvetica,sans-serif}.title{font-size:21px;font-weight:700;fill:#1f2937}.subtitle{font-size:12px;fill:#4b5563}.panel-title{font-size:15px;font-weight:700;fill:#111827}.muted{font-size:13px;fill:#6b7280}.plot-bg{fill:#f8fafc;stroke:#cbd5e1;stroke-width:1}.up-body{fill:#15803d;stroke:#14532d;stroke-width:.8}.down-body{fill:#b91c1c;stroke:#7f1d1d;stroke-width:.8}.up-wick{stroke:#14532d;stroke-width:1}.down-wick{stroke:#7f1d1d;stroke-width:1}.sweep-line{stroke:#7c3aed;stroke-width:1.6;stroke-dasharray:6 4}.number-line{stroke:#0f766e;stroke-width:1.4;stroke-dasharray:3 4}.entry-line{stroke:#2563eb;stroke-width:1.4}.sl-line{stroke:#dc2626;stroke-width:1.4}.tp-line{stroke:#16a34a;stroke-width:1.4}.level-label,.axis-label{font-size:11px;fill:#374151}
</style>
<text x="28" y="28" class="title">Adelin v2 visual review sample sample_201</text>
<text x="28" y="48" class="subtitle">Candidate windows are for visual labeling only and are not trade signals.</text>
<text x="560" y="48" class="subtitle" text-anchor="middle">NUMBER_THEORY_LEVEL_NEAR | ROUND_LEVEL_ENTRY_METADATA_AVAILABLE</text>
<text x="70" y="82" class="panel-title">H1 liquidity context</text>
<rect x="70" y="96" width="1010" height="192" class="plot-bg"/>
<line x1="81.22" y1="147.47" x2="81.22" y2="160.54" class="up-wick"/>
<rect x="77.22" y="149.09" width="8.00" height="1.21" class="up-body"/>
<line x1="103.67" y1="145.69" x2="103.67" y2="153.08" class="down-wick"/>
<rect x="99.67" y="149.04" width="8.00" height="2.49" class="down-body"/>
<line x1="126.11" y1="142.53" x2="126.11" y2="158.13" class="up-wick"/>
<rect x="122.11" y="148.11" width="8.00" height="3.41" class="up-body"/>
<line x1="148.56" y1="144.43" x2="148.56" y2="152.96" class="down-wick"/>
<rect x="144.56" y="148.11" width="8.00" height="3.87" class="down-body"/>
<line x1="171.00" y1="177.41" x2="171.00" y2="274.76" class="down-wick"/>
<rect x="167.00" y="177.41" width="8.00" height="45.43" class="down-body"/>
<line x1="193.44" y1="213.80" x2="193.44" y2="233.32" class="up-wick"/>
<rect x="189.44" y="214.20" width="8.00" height="8.64" class="up-body"/>
<line x1="215.89" y1="195.07" x2="215.89" y2="218.89" class="up-wick"/>
<rect x="211.89" y="197.10" width="8.00" height="17.08" class="up-body"/>
<line x1="238.33" y1="174.26" x2="238.33" y2="198.41" class="up-wick"/>
<rect x="234.33" y="179.07" width="8.00" height="18.06" class="up-body"/>
<line x1="260.78" y1="174.43" x2="260.78" y2="186.17" class="down-wick"/>
<rect x="256.78" y="179.07" width="8.00" height="1.00" class="down-body"/>
<line x1="283.22" y1="177.16" x2="283.22" y2="185.38" class="down-wick"/>
<rect x="279.22" y="179.64" width="8.00" height="1.63" class="down-body"/>
<line x1="305.67" y1="176.44" x2="305.67" y2="187.88" class="up-wick"/>
<rect x="301.67" y="177.76" width="8.00" height="3.51" class="up-body"/>
<line x1="328.11" y1="172.36" x2="328.11" y2="182.45" class="up-wick"/>
<rect x="324.11" y="173.29" width="8.00" height="4.46" class="up-body"/>
<line x1="350.56" y1="170.94" x2="350.56" y2="179.44" class="down-wick"/>
<rect x="346.56" y="173.29" width="8.00" height="2.65" class="down-body"/>
<line x1="373.00" y1="165.85" x2="373.00" y2="176.50" class="up-wick"/>
<rect x="369.00" y="170.28" width="8.00" height="5.67" class="up-body"/>
<line x1="395.44" y1="166.82" x2="395.44" y2="179.75" class="down-wick"/>
<rect x="391.44" y="170.28" width="8.00" height="7.31" class="down-body"/>
<line x1="417.89" y1="173.96" x2="417.89" y2="186.60" class="down-wick"/>
<rect x="413.89" y="177.59" width="8.00" height="6.15" class="down-body"/>
<line x1="440.33" y1="177.16" x2="440.33" y2="188.17" class="up-wick"/>
<rect x="436.33" y="178.36" width="8.00" height="5.39" class="up-body"/>
<line x1="462.78" y1="173.53" x2="462.78" y2="191.43" class="down-wick"/>
<rect x="458.78" y="178.36" width="8.00" height="10.89" class="down-body"/>
<line x1="485.22" y1="176.30" x2="485.22" y2="191.48" class="up-wick"/>
<rect x="481.22" y="177.45" width="8.00" height="11.81" class="up-body"/>
<line x1="507.67" y1="162.55" x2="507.67" y2="179.09" class="up-wick"/>
<rect x="503.67" y="172.34" width="8.00" height="5.11" class="up-body"/>
<line x1="530.11" y1="172.00" x2="530.11" y2="187.93" class="down-wick"/>
<rect x="526.11" y="172.34" width="8.00" height="8.21" class="down-body"/>
<line x1="552.56" y1="180.04" x2="552.56" y2="193.88" class="down-wick"/>
<rect x="548.56" y="180.56" width="8.00" height="3.23" class="down-body"/>
<line x1="575.00" y1="161.49" x2="575.00" y2="187.49" class="up-wick"/>
<rect x="571.00" y="170.74" width="8.00" height="13.02" class="up-body"/>
<line x1="597.44" y1="158.75" x2="597.44" y2="176.12" class="down-wick"/>
<rect x="593.44" y="170.74" width="8.00" height="2.22" class="down-body"/>
<line x1="619.89" y1="165.35" x2="619.89" y2="177.66" class="up-wick"/>
<rect x="615.89" y="167.01" width="8.00" height="5.96" class="up-body"/>
<line x1="642.33" y1="160.62" x2="642.33" y2="172.49" class="up-wick"/>
<rect x="638.33" y="165.06" width="8.00" height="1.96" class="up-body"/>
<line x1="664.78" y1="152.13" x2="664.78" y2="165.55" class="up-wick"/>
<rect x="660.78" y="153.21" width="8.00" height="12.34" class="up-body"/>
<line x1="687.22" y1="147.62" x2="687.22" y2="155.73" class="down-wick"/>
<rect x="683.22" y="153.21" width="8.00" height="1.00" class="down-body"/>
<line x1="709.67" y1="140.66" x2="709.67" y2="157.67" class="up-wick"/>
<rect x="705.67" y="144.85" width="8.00" height="8.46" class="up-body"/>
<line x1="732.11" y1="139.86" x2="732.11" y2="150.53" class="down-wick"/>
<rect x="728.11" y="144.85" width="8.00" height="3.55" class="down-body"/>
<line x1="754.56" y1="139.70" x2="754.56" y2="150.39" class="up-wick"/>
<rect x="750.56" y="141.19" width="8.00" height="7.22" class="up-body"/>
<line x1="777.00" y1="140.83" x2="777.00" y2="147.73" class="down-wick"/>
<rect x="773.00" y="141.20" width="8.00" height="4.94" class="down-body"/>
<line x1="799.44" y1="139.81" x2="799.44" y2="146.87" class="up-wick"/>
<rect x="795.44" y="141.82" width="8.00" height="4.21" class="up-body"/>
<line x1="821.89" y1="141.69" x2="821.89" y2="153.20" class="down-wick"/>
<rect x="817.89" y="141.81" width="8.00" height="9.95" class="down-body"/>
<line x1="844.33" y1="135.58" x2="844.33" y2="151.77" class="up-wick"/>
<rect x="840.33" y="136.15" width="8.00" height="15.61" class="up-body"/>
<line x1="866.78" y1="126.21" x2="866.78" y2="146.26" class="down-wick"/>
<rect x="862.78" y="136.15" width="8.00" height="3.58" class="down-body"/>
<line x1="889.22" y1="130.69" x2="889.22" y2="141.75" class="up-wick"/>
<rect x="885.22" y="132.97" width="8.00" height="6.76" class="up-body"/>
<line x1="911.67" y1="131.14" x2="911.67" y2="143.60" class="down-wick"/>
<rect x="907.67" y="132.97" width="8.00" height="5.93" class="down-body"/>
<line x1="934.11" y1="132.07" x2="934.11" y2="157.31" class="down-wick"/>
<rect x="930.11" y="138.90" width="8.00" height="6.98" class="down-body"/>
<line x1="956.56" y1="135.56" x2="956.56" y2="146.97" class="up-wick"/>
<rect x="952.56" y="141.26" width="8.00" height="4.62" class="up-body"/>
<line x1="979.00" y1="139.39" x2="979.00" y2="150.17" class="down-wick"/>
<rect x="975.00" y="141.26" width="8.00" height="2.54" class="down-body"/>
<line x1="1001.44" y1="121.18" x2="1001.44" y2="143.99" class="up-wick"/>
<rect x="997.44" y="127.39" width="8.00" height="16.41" class="up-body"/>
<line x1="1023.89" y1="110.97" x2="1023.89" y2="128.56" class="up-wick"/>
<rect x="1019.89" y="120.93" width="8.00" height="6.44" class="up-body"/>
<line x1="1046.33" y1="112.23" x2="1046.33" y2="129.89" class="up-wick"/>
<rect x="1042.33" y="117.91" width="8.00" height="3.01" class="up-body"/>
<line x1="1068.78" y1="109.24" x2="1068.78" y2="120.06" class="up-wick"/>
<rect x="1064.78" y="116.44" width="8.00" height="1.44" class="up-body"/>
<line x1="70" y1="179.95" x2="1080" y2="179.95" class="number-line"/>
<text x="1076" y="175.95" text-anchor="end" class="level-label">round 4720.00</text>
<line x1="70" y1="179.95" x2="1080" y2="179.95" class="entry-line"/>
<text x="1076" y="175.95" text-anchor="end" class="level-label">entry level 4720.00</text>
<text x="70" y="306" class="axis-label">2026-04-10 19:00:00+00:00 to 2026-04-14 19:00:00+00:00</text>
<text x="1080" y="306" text-anchor="end" class="axis-label">4566.51 - 4839.26</text>
<text x="70" y="332" class="panel-title">M15 liquidity / reaction context</text>
<rect x="70" y="346" width="1010" height="192" class="plot-bg"/>
<line x1="77.77" y1="469.97" x2="77.77" y2="499.21" class="down-wick"/>
<rect x="73.77" y="471.02" width="8.00" height="10.08" class="down-body"/>
<line x1="93.31" y1="477.97" x2="93.31" y2="496.24" class="down-wick"/>
<rect x="89.31" y="481.09" width="8.00" height="6.18" class="down-body"/>
<line x1="108.85" y1="466.94" x2="108.85" y2="498.40" class="up-wick"/>
<rect x="104.85" y="469.07" width="8.00" height="18.14" class="up-body"/>
<line x1="124.38" y1="450.47" x2="124.38" y2="477.19" class="up-wick"/>
<rect x="120.38" y="456.08" width="8.00" height="13.02" class="up-body"/>
<line x1="139.92" y1="447.53" x2="139.92" y2="470.21" class="down-wick"/>
<rect x="135.92" y="456.08" width="8.00" height="11.43" class="down-body"/>
<line x1="155.46" y1="460.67" x2="155.46" y2="476.08" class="up-wick"/>
<rect x="151.46" y="463.67" width="8.00" height="3.84" class="up-body"/>
<line x1="171.00" y1="450.35" x2="171.00" y2="471.05" class="up-wick"/>
<rect x="167.00" y="461.72" width="8.00" height="1.95" class="up-body"/>
<line x1="186.54" y1="433.11" x2="186.54" y2="463.46" class="up-wick"/>
<rect x="182.54" y="437.07" width="8.00" height="24.65" class="up-body"/>
<line x1="202.08" y1="436.02" x2="202.08" y2="455.18" class="down-wick"/>
<rect x="198.08" y="437.07" width="8.00" height="10.29" class="down-body"/>
<line x1="217.62" y1="429.60" x2="217.62" y2="449.72" class="up-wick"/>
<rect x="213.62" y="430.50" width="8.00" height="16.82" class="up-body"/>
<line x1="233.15" y1="427.05" x2="233.15" y2="449.87" class="down-wick"/>
<rect x="229.15" y="430.38" width="8.00" height="15.74" class="down-body"/>
<line x1="248.69" y1="445.97" x2="248.69" y2="463.25" class="down-wick"/>
<rect x="244.69" y="446.12" width="8.00" height="2.25" class="down-body"/>
<line x1="264.23" y1="409.09" x2="264.23" y2="450.71" class="up-wick"/>
<rect x="260.23" y="440.79" width="8.00" height="7.59" class="up-body"/>
<line x1="279.77" y1="426.66" x2="279.77" y2="445.85" class="up-wick"/>
<rect x="275.77" y="433.08" width="8.00" height="7.71" class="up-body"/>
<line x1="295.31" y1="424.20" x2="295.31" y2="442.94" class="up-wick"/>
<rect x="291.31" y="428.67" width="8.00" height="4.41" class="up-body"/>
<line x1="310.85" y1="405.37" x2="310.85" y2="440.67" class="up-wick"/>
<rect x="306.85" y="424.23" width="8.00" height="4.44" class="up-body"/>
<line x1="326.38" y1="409.51" x2="326.38" y2="428.58" class="down-wick"/>
<rect x="322.38" y="424.23" width="8.00" height="2.73" class="down-body"/>
<line x1="341.92" y1="422.52" x2="341.92" y2="434.88" class="down-wick"/>
<rect x="337.92" y="426.96" width="8.00" height="2.37" class="down-body"/>
<line x1="357.46" y1="416.52" x2="357.46" y2="462.71" class="down-wick"/>
<rect x="353.46" y="429.33" width="8.00" height="31.79" class="down-body"/>
<line x1="373.00" y1="436.20" x2="373.00" y2="464.57" class="up-wick"/>
<rect x="369.00" y="455.39" width="8.00" height="5.73" class="up-body"/>
<line x1="388.54" y1="439.92" x2="388.54" y2="477.58" class="down-wick"/>
<rect x="384.54" y="455.39" width="8.00" height="12.51" class="down-body"/>
<line x1="404.08" y1="461.51" x2="404.08" y2="482.35" class="down-wick"/>
<rect x="400.08" y="467.90" width="8.00" height="12.00" class="down-body"/>
<line x1="419.62" y1="466.04" x2="419.62" y2="493.75" class="down-wick"/>
<rect x="415.62" y="479.62" width="8.00" height="2.76" class="down-body"/>
<line x1="435.15" y1="475.63" x2="435.15" y2="492.46" class="up-wick"/>
<rect x="431.15" y="481.60" width="8.00" height="1.00" class="up-body"/>
<line x1="450.69" y1="468.74" x2="450.69" y2="484.36" class="up-wick"/>
<rect x="446.69" y="471.86" width="8.00" height="9.75" class="up-body"/>
<line x1="466.23" y1="471.20" x2="466.23" y2="500.47" class="down-wick"/>
<rect x="462.23" y="471.86" width="8.00" height="16.04" class="down-body"/>
<line x1="481.77" y1="469.88" x2="481.77" y2="490.18" class="up-wick"/>
<rect x="477.77" y="471.41" width="8.00" height="16.52" class="up-body"/>
<line x1="497.31" y1="453.53" x2="497.31" y2="472.97" class="up-wick"/>
<rect x="493.31" y="458.66" width="8.00" height="12.75" class="up-body"/>
<line x1="512.85" y1="438.09" x2="512.85" y2="465.38" class="down-wick"/>
<rect x="508.85" y="458.66" width="8.00" height="2.31" class="down-body"/>
<line x1="528.38" y1="454.67" x2="528.38" y2="469.67" class="down-wick"/>
<rect x="524.38" y="460.76" width="8.00" height="1.44" class="down-body"/>
<line x1="543.92" y1="457.52" x2="543.92" y2="513.09" class="down-wick"/>
<rect x="539.92" y="462.26" width="8.00" height="39.98" class="down-body"/>
<line x1="559.46" y1="489.49" x2="559.46" y2="514.32" class="down-wick"/>
<rect x="555.46" y="502.24" width="8.00" height="2.82" class="down-body"/>
<line x1="575.00" y1="464.39" x2="575.00" y2="514.53" class="up-wick"/>
<rect x="571.00" y="473.50" width="8.00" height="31.58" class="up-body"/>
<line x1="590.54" y1="471.47" x2="590.54" y2="514.14" class="down-wick"/>
<rect x="586.54" y="473.50" width="8.00" height="20.00" class="down-body"/>
<line x1="606.08" y1="475.81" x2="606.08" y2="498.16" class="up-wick"/>
<rect x="602.08" y="478.03" width="8.00" height="15.48" class="up-body"/>
<line x1="621.62" y1="449.87" x2="621.62" y2="478.87" class="up-wick"/>
<rect x="617.62" y="454.79" width="8.00" height="23.24" class="up-body"/>
<line x1="637.15" y1="416.58" x2="637.15" y2="457.25" class="up-wick"/>
<rect x="633.15" y="422.46" width="8.00" height="32.33" class="up-body"/>
<line x1="652.69" y1="413.10" x2="652.69" y2="438.72" class="down-wick"/>
<rect x="648.69" y="422.46" width="8.00" height="2.97" class="down-body"/>
<line x1="668.23" y1="413.76" x2="668.23" y2="452.09" class="down-wick"/>
<rect x="664.23" y="425.43" width="8.00" height="19.34" class="down-body"/>
<line x1="683.77" y1="391.30" x2="683.77" y2="461.75" class="up-wick"/>
<rect x="679.77" y="433.02" width="8.00" height="11.76" class="up-body"/>
<line x1="699.31" y1="431.55" x2="699.31" y2="463.76" class="down-wick"/>
<rect x="695.31" y="433.02" width="8.00" height="10.08" class="down-body"/>
<line x1="714.85" y1="441.06" x2="714.85" y2="497.32" class="down-wick"/>
<rect x="710.85" y="443.09" width="8.00" height="36.05" class="down-body"/>
<line x1="730.38" y1="457.46" x2="730.38" y2="499.45" class="up-wick"/>
<rect x="726.38" y="460.07" width="8.00" height="19.07" class="up-body"/>
<line x1="745.92" y1="454.85" x2="745.92" y2="494.65" class="down-wick"/>
<rect x="741.92" y="460.13" width="8.00" height="7.89" class="down-body"/>
<line x1="761.46" y1="465.83" x2="761.46" y2="524.76" class="down-wick"/>
<rect x="757.46" y="468.02" width="8.00" height="34.40" class="down-body"/>
<line x1="777.00" y1="491.02" x2="777.00" y2="516.66" class="down-wick"/>
<rect x="773.00" y="502.42" width="8.00" height="11.79" class="down-body"/>
<line x1="792.54" y1="470.42" x2="792.54" y2="518.58" class="up-wick"/>
<rect x="788.54" y="487.93" width="8.00" height="26.09" class="up-body"/>
<line x1="808.08" y1="478.27" x2="808.08" y2="492.79" class="up-wick"/>
<rect x="804.08" y="481.78" width="8.00" height="6.15" class="up-body"/>
<line x1="823.62" y1="462.59" x2="823.62" y2="497.56" class="up-wick"/>
<rect x="819.62" y="465.80" width="8.00" height="15.89" class="up-body"/>
<line x1="839.15" y1="423.12" x2="839.15" y2="468.92" class="up-wick"/>
<rect x="835.15" y="434.34" width="8.00" height="31.43" class="up-body"/>
<line x1="854.69" y1="403.69" x2="854.69" y2="439.77" class="up-wick"/>
<rect x="850.69" y="404.47" width="8.00" height="29.87" class="up-body"/>
<line x1="870.23" y1="386.80" x2="870.23" y2="428.91" class="down-wick"/>
<rect x="866.23" y="404.47" width="8.00" height="21.74" class="down-body"/>
<line x1="885.77" y1="409.63" x2="885.77" y2="449.09" class="down-wick"/>
<rect x="881.77" y="426.21" width="8.00" height="6.57" class="down-body"/>
<line x1="901.31" y1="375.11" x2="901.31" y2="436.50" class="up-wick"/>
<rect x="897.31" y="396.01" width="8.00" height="36.77" class="up-body"/>
<line x1="916.85" y1="383.11" x2="916.85" y2="397.42" class="up-wick"/>
<rect x="912.85" y="393.43" width="8.00" height="2.58" class="up-body"/>
<line x1="932.38" y1="393.16" x2="932.38" y2="443.87" class="down-wick"/>
<rect x="928.38" y="393.43" width="8.00" height="42.26" class="down-body"/>
<line x1="947.92" y1="426.54" x2="947.92" y2="438.93" class="up-wick"/>
<rect x="943.92" y="435.06" width="8.00" height="1.00" class="up-body"/>
<line x1="963.46" y1="432.03" x2="963.46" y2="455.66" class="down-wick"/>
<rect x="959.46" y="435.00" width="8.00" height="8.52" class="down-body"/>
<line x1="979.00" y1="419.52" x2="979.00" y2="445.28" class="up-wick"/>
<rect x="975.00" y="424.92" width="8.00" height="18.59" class="up-body"/>
<line x1="994.54" y1="403.21" x2="994.54" y2="425.16" class="up-wick"/>
<rect x="990.54" y="410.32" width="8.00" height="14.52" class="up-body"/>
<line x1="1010.08" y1="406.84" x2="1010.08" y2="433.65" class="down-wick"/>
<rect x="1006.08" y="410.32" width="8.00" height="10.68" class="down-body"/>
<line x1="1025.62" y1="393.31" x2="1025.62" y2="421.02" class="up-wick"/>
<rect x="1021.62" y="395.80" width="8.00" height="25.19" class="up-body"/>
<line x1="1041.15" y1="383.08" x2="1041.15" y2="408.43" class="down-wick"/>
<rect x="1037.15" y="395.80" width="8.00" height="4.02" class="down-body"/>
<line x1="1056.69" y1="388.12" x2="1056.69" y2="407.05" class="down-wick"/>
<rect x="1052.69" y="399.82" width="8.00" height="2.16" class="down-body"/>
<line x1="1072.23" y1="359.24" x2="1072.23" y2="404.08" class="up-wick"/>
<rect x="1068.23" y="380.44" width="8.00" height="23.63" class="up-body"/>
<line x1="70" y1="465.44" x2="1080" y2="465.44" class="number-line"/>
<text x="1076" y="461.44" text-anchor="end" class="level-label">round 4720.00</text>
<line x1="70" y1="465.44" x2="1080" y2="465.44" class="entry-line"/>
<text x="1076" y="461.44" text-anchor="end" class="level-label">entry level 4720.00</text>
<text x="70" y="556" class="axis-label">2026-04-13 07:00:00+00:00 to 2026-04-14 01:00:00+00:00</text>
<text x="1080" y="556" text-anchor="end" class="axis-label">4695.80 - 4759.83</text>
<text x="70" y="582" class="panel-title">M5 reaction / execution context</text>
<rect x="70" y="596" width="1010" height="192" class="plot-bg"/>
<line x1="79.18" y1="708.22" x2="79.18" y2="746.76" class="up-wick"/>
<rect x="75.18" y="709.91" width="8.00" height="14.40" class="up-body"/>
<line x1="97.55" y1="707.52" x2="97.55" y2="725.10" class="down-wick"/>
<rect x="93.55" y="709.91" width="8.00" height="2.32" class="down-body"/>
<line x1="115.91" y1="700.33" x2="115.91" y2="717.87" class="up-wick"/>
<rect x="111.91" y="703.21" width="8.00" height="9.02" class="up-body"/>
<line x1="134.27" y1="697.44" x2="134.27" y2="726.43" class="down-wick"/>
<rect x="130.27" y="703.28" width="8.00" height="21.53" class="down-body"/>
<line x1="152.64" y1="723.31" x2="152.64" y2="741.46" class="down-wick"/>
<rect x="148.64" y="724.84" width="8.00" height="3.38" class="down-body"/>
<line x1="171.00" y1="708.02" x2="171.00" y2="736.28" class="up-wick"/>
<rect x="167.00" y="712.00" width="8.00" height="16.22" class="up-body"/>
<line x1="189.36" y1="709.58" x2="189.36" y2="756.35" class="down-wick"/>
<rect x="185.36" y="712.00" width="8.00" height="38.48" class="down-body"/>
<line x1="207.73" y1="747.19" x2="207.73" y2="774.76" class="down-wick"/>
<rect x="203.73" y="750.48" width="8.00" height="7.00" class="down-body"/>
<line x1="226.09" y1="741.52" x2="226.09" y2="764.31" class="up-wick"/>
<rect x="222.09" y="750.05" width="8.00" height="7.43" class="up-body"/>
<line x1="244.45" y1="737.44" x2="244.45" y2="754.46" class="down-wick"/>
<rect x="240.45" y="750.05" width="8.00" height="3.32" class="down-body"/>
<line x1="262.82" y1="741.36" x2="262.82" y2="760.26" class="down-wick"/>
<rect x="258.82" y="753.36" width="8.00" height="6.50" class="down-body"/>
<line x1="281.18" y1="755.06" x2="281.18" y2="765.80" class="down-wick"/>
<rect x="277.18" y="759.87" width="8.00" height="3.22" class="down-body"/>
<line x1="299.55" y1="744.38" x2="299.55" y2="767.93" class="up-wick"/>
<rect x="295.55" y="745.20" width="8.00" height="17.68" class="up-body"/>
<line x1="317.91" y1="714.65" x2="317.91" y2="745.10" class="up-wick"/>
<rect x="313.91" y="722.02" width="8.00" height="22.95" class="up-body"/>
<line x1="336.27" y1="720.56" x2="336.27" y2="738.27" class="down-wick"/>
<rect x="332.27" y="722.02" width="8.00" height="12.01" class="down-body"/>
<line x1="354.64" y1="724.01" x2="354.64" y2="739.40" class="up-wick"/>
<rect x="350.64" y="724.94" width="8.00" height="9.09" class="up-body"/>
<line x1="373.00" y1="723.35" x2="373.00" y2="734.59" class="down-wick"/>
<rect x="369.00" y="724.94" width="8.00" height="9.52" class="down-body"/>
<line x1="391.36" y1="725.80" x2="391.36" y2="735.98" class="up-wick"/>
<rect x="387.36" y="727.23" width="8.00" height="7.23" class="up-body"/>
<line x1="409.73" y1="722.08" x2="409.73" y2="741.49" class="down-wick"/>
<rect x="405.73" y="727.13" width="8.00" height="9.52" class="down-body"/>
<line x1="428.09" y1="710.24" x2="428.09" y2="744.67" class="up-wick"/>
<rect x="424.09" y="719.56" width="8.00" height="17.08" class="up-body"/>
<line x1="446.45" y1="706.00" x2="446.45" y2="724.34" class="up-wick"/>
<rect x="442.45" y="709.55" width="8.00" height="10.02" class="up-body"/>
<line x1="464.82" y1="676.74" x2="464.82" y2="713.00" class="up-wick"/>
<rect x="460.82" y="689.61" width="8.00" height="19.90" class="up-body"/>
<line x1="483.18" y1="671.00" x2="483.18" y2="700.72" class="up-wick"/>
<rect x="479.18" y="688.12" width="8.00" height="1.49" class="up-body"/>
<line x1="501.55" y1="662.35" x2="501.55" y2="688.28" class="up-wick"/>
<rect x="497.55" y="674.75" width="8.00" height="13.37" class="up-body"/>
<line x1="519.91" y1="654.09" x2="519.91" y2="680.76" class="up-wick"/>
<rect x="515.91" y="662.64" width="8.00" height="12.11" class="up-body"/>
<line x1="538.27" y1="652.06" x2="538.27" y2="668.42" class="up-wick"/>
<rect x="534.27" y="656.61" width="8.00" height="6.04" class="up-body"/>
<line x1="556.64" y1="640.85" x2="556.64" y2="675.75" class="up-wick"/>
<rect x="552.64" y="641.71" width="8.00" height="14.89" class="up-body"/>
<line x1="575.00" y1="622.18" x2="575.00" y2="654.29" class="down-wick"/>
<rect x="571.00" y="641.71" width="8.00" height="8.62" class="down-body"/>
<line x1="593.36" y1="631.10" x2="593.36" y2="659.13" class="down-wick"/>
<rect x="589.36" y="650.34" width="8.00" height="1.72" class="down-body"/>
<line x1="611.73" y1="649.77" x2="611.73" y2="668.75" class="down-wick"/>
<rect x="607.73" y="652.06" width="8.00" height="13.70" class="down-body"/>
<line x1="630.09" y1="647.42" x2="630.09" y2="665.76" class="up-wick"/>
<rect x="626.09" y="647.42" width="8.00" height="18.34" class="up-body"/>
<line x1="648.45" y1="647.42" x2="648.45" y2="691.07" class="down-wick"/>
<rect x="644.45" y="647.42" width="8.00" height="32.08" class="down-body"/>
<line x1="666.82" y1="669.74" x2="666.82" y2="680.46" class="up-wick"/>
<rect x="662.82" y="673.03" width="8.00" height="6.47" class="up-body"/>
<line x1="685.18" y1="627.39" x2="685.18" y2="677.14" class="up-wick"/>
<rect x="681.18" y="628.38" width="8.00" height="44.65" class="up-body"/>
<line x1="703.55" y1="616.21" x2="703.55" y2="637.60" class="up-wick"/>
<rect x="699.55" y="627.19" width="8.00" height="1.19" class="up-body"/>
<line x1="721.91" y1="609.24" x2="721.91" y2="633.36" class="down-wick"/>
<rect x="717.91" y="627.02" width="8.00" height="5.34" class="down-body"/>
<line x1="740.27" y1="618.10" x2="740.27" y2="633.46" class="up-wick"/>
<rect x="736.27" y="631.23" width="8.00" height="1.13" class="up-body"/>
<line x1="758.64" y1="619.89" x2="758.64" y2="632.03" class="up-wick"/>
<rect x="754.64" y="622.41" width="8.00" height="8.82" class="up-body"/>
<line x1="777.00" y1="620.12" x2="777.00" y2="633.92" class="down-wick"/>
<rect x="773.00" y="622.41" width="8.00" height="7.10" class="down-body"/>
<line x1="795.36" y1="629.21" x2="795.36" y2="652.56" class="down-wick"/>
<rect x="791.36" y="629.51" width="8.00" height="18.18" class="down-body"/>
<line x1="813.73" y1="641.91" x2="813.73" y2="685.30" class="down-wick"/>
<rect x="809.73" y="647.69" width="8.00" height="27.30" class="down-body"/>
<line x1="832.09" y1="670.34" x2="832.09" y2="679.73" class="down-wick"/>
<rect x="828.09" y="674.98" width="8.00" height="1.26" class="down-body"/>
<line x1="850.45" y1="666.13" x2="850.45" y2="678.63" class="up-wick"/>
<rect x="846.45" y="669.51" width="8.00" height="6.77" class="up-body"/>
<line x1="868.82" y1="667.59" x2="868.82" y2="679.83" class="down-wick"/>
<rect x="864.82" y="669.51" width="8.00" height="7.93" class="down-body"/>
<line x1="887.18" y1="668.35" x2="887.18" y2="678.50" class="up-wick"/>
<rect x="883.18" y="675.55" width="8.00" height="1.89" class="up-body"/>
<line x1="905.55" y1="672.20" x2="905.55" y2="694.09" class="down-wick"/>
<rect x="901.55" y="675.48" width="8.00" height="18.41" class="down-body"/>
<line x1="923.91" y1="675.71" x2="923.91" y2="694.52" class="up-wick"/>
<rect x="919.91" y="679.63" width="8.00" height="14.26" class="up-body"/>
<line x1="942.27" y1="679.59" x2="942.27" y2="698.34" class="down-wick"/>
<rect x="938.27" y="679.63" width="8.00" height="5.27" class="down-body"/>
<line x1="960.64" y1="662.81" x2="960.64" y2="686.86" class="up-wick"/>
<rect x="956.64" y="664.83" width="8.00" height="20.07" class="up-body"/>
<line x1="979.00" y1="658.37" x2="979.00" y2="671.87" class="down-wick"/>
<rect x="975.00" y="664.83" width="8.00" height="5.34" class="down-body"/>
<line x1="997.36" y1="664.14" x2="997.36" y2="672.86" class="up-wick"/>
<rect x="993.36" y="664.34" width="8.00" height="5.74" class="up-body"/>
<line x1="1015.73" y1="654.32" x2="1015.73" y2="664.60" class="up-wick"/>
<rect x="1011.73" y="657.04" width="8.00" height="7.20" class="up-body"/>
<line x1="1034.09" y1="641.58" x2="1034.09" y2="662.58" class="up-wick"/>
<rect x="1030.09" y="645.13" width="8.00" height="11.87" class="up-body"/>
<line x1="1052.45" y1="640.32" x2="1052.45" y2="651.86" class="down-wick"/>
<rect x="1048.45" y="645.13" width="8.00" height="3.05" class="down-body"/>
<line x1="1070.82" y1="644.34" x2="1070.82" y2="658.27" class="down-wick"/>
<rect x="1066.82" y="648.18" width="8.00" height="9.32" class="down-body"/>
<line x1="70" y1="709.15" x2="1080" y2="709.15" class="number-line"/>
<text x="1076" y="705.15" text-anchor="end" class="level-label">round 4720.00</text>
<line x1="70" y1="709.15" x2="1080" y2="709.15" class="entry-line"/>
<text x="1076" y="705.15" text-anchor="end" class="level-label">entry level 4720.00</text>
<text x="70" y="806" class="axis-label">2026-04-13 17:30:00+00:00 to 2026-04-13 22:00:00+00:00</text>
<text x="1080" y="806" text-anchor="end" class="axis-label">4696.23 - 4754.11</text>
<text x="70" y="832" class="panel-title">M1 execution window</text>
<rect x="70" y="846" width="1010" height="192" class="plot-bg"/>
<line x1="73.71" y1="973.73" x2="73.71" y2="991.14" class="down-wick"/>
<rect x="71.30" y="974.93" width="4.83" height="14.11" class="down-body"/>
<line x1="81.14" y1="980.17" x2="81.14" y2="989.91" class="down-wick"/>
<rect x="78.73" y="981.84" width="4.83" height="5.94" class="down-body"/>
<line x1="88.57" y1="958.76" x2="88.57" y2="972.83" class="up-wick"/>
<rect x="86.15" y="960.46" width="4.83" height="12.34" class="up-body"/>
<line x1="95.99" y1="958.06" x2="95.99" y2="966.86" class="up-wick"/>
<rect x="93.58" y="962.56" width="4.83" height="1.53" class="up-body"/>
<line x1="103.42" y1="958.36" x2="103.42" y2="975.73" class="up-wick"/>
<rect x="101.01" y="962.16" width="4.83" height="6.14" class="up-body"/>
<line x1="110.85" y1="955.66" x2="110.85" y2="965.20" class="up-wick"/>
<rect x="108.43" y="958.36" width="4.83" height="4.44" class="up-body"/>
<line x1="118.27" y1="958.59" x2="118.27" y2="964.53" class="down-wick"/>
<rect x="115.86" y="958.59" width="4.83" height="4.54" class="down-body"/>
<line x1="125.70" y1="950.82" x2="125.70" y2="967.70" class="up-wick"/>
<rect x="123.28" y="953.72" width="4.83" height="13.51" class="up-body"/>
<line x1="133.12" y1="948.25" x2="133.12" y2="959.96" class="up-wick"/>
<rect x="130.71" y="951.79" width="4.83" height="4.40" class="up-body"/>
<line x1="140.55" y1="963.96" x2="140.55" y2="972.63" class="down-wick"/>
<rect x="138.14" y="964.73" width="4.83" height="7.87" class="down-body"/>
<line x1="147.98" y1="975.47" x2="147.98" y2="991.34" class="down-wick"/>
<rect x="145.56" y="975.47" width="4.83" height="15.07" class="down-body"/>
<line x1="155.40" y1="973.93" x2="155.40" y2="984.84" class="up-wick"/>
<rect x="152.99" y="979.60" width="4.83" height="4.04" class="up-body"/>
<line x1="162.83" y1="975.97" x2="162.83" y2="983.97" class="up-wick"/>
<rect x="160.42" y="978.87" width="4.83" height="2.20" class="up-body"/>
<line x1="170.26" y1="964.59" x2="170.26" y2="975.10" class="up-wick"/>
<rect x="167.84" y="969.86" width="4.83" height="4.77" class="up-body"/>
<line x1="177.68" y1="958.56" x2="177.68" y2="968.03" class="up-wick"/>
<rect x="175.27" y="962.16" width="4.83" height="5.74" class="up-body"/>
<line x1="185.11" y1="960.13" x2="185.11" y2="995.94" class="down-wick"/>
<rect x="182.70" y="962.56" width="4.83" height="24.98" class="down-body"/>
<line x1="192.54" y1="978.20" x2="192.54" y2="994.58" class="down-wick"/>
<rect x="190.12" y="980.00" width="4.83" height="12.14" class="down-body"/>
<line x1="199.96" y1="995.54" x2="199.96" y2="1007.15" class="up-wick"/>
<rect x="197.55" y="1001.25" width="4.83" height="1.00" class="up-body"/>
<line x1="207.39" y1="1004.75" x2="207.39" y2="1017.35" class="up-wick"/>
<rect x="204.98" y="1011.99" width="4.83" height="4.60" class="up-body"/>
<line x1="214.82" y1="1001.38" x2="214.82" y2="1024.76" class="down-wick"/>
<rect x="212.40" y="1003.45" width="4.83" height="17.51" class="down-body"/>
<line x1="222.24" y1="1006.08" x2="222.24" y2="1015.15" class="down-wick"/>
<rect x="219.83" y="1008.28" width="4.83" height="1.00" class="down-body"/>
<line x1="229.67" y1="992.24" x2="229.67" y2="1000.08" class="down-wick"/>
<rect x="227.26" y="996.51" width="4.83" height="3.47" class="down-body"/>
<line x1="237.10" y1="999.11" x2="237.10" y2="1009.85" class="up-wick"/>
<rect x="234.68" y="1000.81" width="4.83" height="6.74" class="up-body"/>
<line x1="244.52" y1="996.64" x2="244.52" y2="1005.15" class="up-wick"/>
<rect x="242.11" y="997.08" width="4.83" height="1.33" class="up-body"/>
<line x1="251.95" y1="991.98" x2="251.95" y2="998.55" class="up-wick"/>
<rect x="249.53" y="993.21" width="4.83" height="1.83" class="up-body"/>
<line x1="259.38" y1="992.08" x2="259.38" y2="1004.78" class="up-wick"/>
<rect x="256.96" y="994.31" width="4.83" height="9.84" class="up-body"/>
<line x1="266.80" y1="994.18" x2="266.80" y2="1002.01" class="down-wick"/>
<rect x="264.39" y="997.95" width="4.83" height="1.00" class="down-body"/>
<line x1="274.23" y1="995.04" x2="274.23" y2="1011.09" class="down-wick"/>
<rect x="271.81" y="998.18" width="4.83" height="12.51" class="down-body"/>
<line x1="281.65" y1="1007.78" x2="281.65" y2="1015.39" class="down-wick"/>
<rect x="279.24" y="1008.42" width="4.83" height="1.57" class="down-body"/>
<line x1="289.08" y1="1005.85" x2="289.08" y2="1012.49" class="up-wick"/>
<rect x="286.67" y="1007.45" width="4.83" height="4.34" class="up-body"/>
<line x1="296.51" y1="1010.82" x2="296.51" y2="1018.79" class="up-wick"/>
<rect x="294.09" y="1010.88" width="4.83" height="2.83" class="up-body"/>
<line x1="303.93" y1="1004.08" x2="303.93" y2="1011.49" class="up-wick"/>
<rect x="301.52" y="1008.28" width="4.83" height="2.87" class="up-body"/>
<line x1="311.36" y1="995.14" x2="311.36" y2="1000.28" class="down-wick"/>
<rect x="308.95" y="995.28" width="4.83" height="1.00" class="down-body"/>
<line x1="318.79" y1="984.14" x2="318.79" y2="992.98" class="up-wick"/>
<rect x="316.37" y="984.60" width="4.83" height="4.44" class="up-body"/>
<line x1="326.21" y1="965.23" x2="326.21" y2="983.07" class="up-wick"/>
<rect x="323.80" y="974.60" width="4.83" height="4.57" class="up-body"/>
<line x1="333.64" y1="971.16" x2="333.64" y2="978.13" class="down-wick"/>
<rect x="331.23" y="972.63" width="4.83" height="3.27" class="down-body"/>
<line x1="341.07" y1="978.03" x2="341.07" y2="987.41" class="down-wick"/>
<rect x="338.65" y="980.17" width="4.83" height="5.87" class="down-body"/>
<line x1="348.49" y1="982.54" x2="348.49" y2="986.41" class="up-wick"/>
<rect x="346.08" y="984.70" width="4.83" height="1.20" class="up-body"/>
<line x1="355.92" y1="982.70" x2="355.92" y2="988.57" class="up-wick"/>
<rect x="353.51" y="985.51" width="4.83" height="2.80" class="up-body"/>
<line x1="363.35" y1="980.17" x2="363.35" y2="983.90" class="up-wick"/>
<rect x="360.93" y="983.77" width="4.83" height="1.00" class="up-body"/>
<line x1="370.77" y1="974.13" x2="370.77" y2="982.27" class="up-wick"/>
<rect x="368.36" y="974.73" width="4.83" height="1.00" class="up-body"/>
<line x1="378.20" y1="975.60" x2="378.20" y2="980.44" class="up-wick"/>
<rect x="375.78" y="977.77" width="4.83" height="2.67" class="up-body"/>
<line x1="385.62" y1="976.30" x2="385.62" y2="985.27" class="down-wick"/>
<rect x="383.21" y="976.43" width="4.83" height="8.70" class="down-body"/>
<line x1="393.05" y1="976.43" x2="393.05" y2="982.70" class="up-wick"/>
<rect x="390.64" y="980.64" width="4.83" height="1.23" class="up-body"/>
<line x1="400.48" y1="980.70" x2="400.48" y2="984.00" class="up-wick"/>
<rect x="398.06" y="982.24" width="4.83" height="1.37" class="up-body"/>
<line x1="407.90" y1="972.70" x2="407.90" y2="977.80" class="up-wick"/>
<rect x="405.49" y="976.83" width="4.83" height="1.00" class="up-body"/>
<line x1="415.33" y1="983.20" x2="415.33" y2="992.21" class="down-wick"/>
<rect x="412.92" y="984.17" width="4.83" height="6.87" class="down-body"/>
<line x1="422.76" y1="982.30" x2="422.76" y2="990.81" class="up-wick"/>
<rect x="420.34" y="987.34" width="4.83" height="2.23" class="up-body"/>
<line x1="430.18" y1="960.79" x2="430.18" y2="990.37" class="up-wick"/>
<rect x="427.77" y="964.73" width="4.83" height="24.98" class="up-body"/>
<line x1="437.61" y1="970.86" x2="437.61" y2="980.27" class="up-wick"/>
<rect x="435.20" y="972.40" width="4.83" height="5.84" class="up-body"/>
<line x1="445.04" y1="965.70" x2="445.04" y2="974.97" class="up-wick"/>
<rect x="442.62" y="966.10" width="4.83" height="4.07" class="up-body"/>
<line x1="452.46" y1="962.23" x2="452.46" y2="967.26" class="up-wick"/>
<rect x="450.05" y="963.33" width="4.83" height="1.50" class="up-body"/>
<line x1="459.89" y1="959.86" x2="459.89" y2="966.13" class="up-wick"/>
<rect x="457.48" y="960.09" width="4.83" height="4.74" class="up-body"/>
<line x1="467.32" y1="950.85" x2="467.32" y2="961.99" class="up-wick"/>
<rect x="464.90" y="952.12" width="4.83" height="9.87" class="up-body"/>
<line x1="474.74" y1="927.11" x2="474.74" y2="943.82" class="up-wick"/>
<rect x="472.33" y="933.78" width="4.83" height="8.97" class="up-body"/>
<line x1="482.17" y1="921.34" x2="482.17" y2="945.82" class="down-wick"/>
<rect x="479.76" y="940.05" width="4.83" height="4.50" class="down-body"/>
<line x1="489.60" y1="938.31" x2="489.60" y2="944.52" class="down-wick"/>
<rect x="487.18" y="943.22" width="4.83" height="1.20" class="down-body"/>
<line x1="497.02" y1="938.05" x2="497.02" y2="946.69" class="up-wick"/>
<rect x="494.61" y="938.55" width="4.83" height="6.97" class="up-body"/>
<line x1="504.45" y1="930.01" x2="504.45" y2="935.15" class="down-wick"/>
<rect x="502.03" y="930.64" width="4.83" height="2.40" class="down-body"/>
<line x1="511.88" y1="922.87" x2="511.88" y2="929.58" class="up-wick"/>
<rect x="509.46" y="924.11" width="4.83" height="3.44" class="up-body"/>
<line x1="519.30" y1="921.64" x2="519.30" y2="930.01" class="up-wick"/>
<rect x="516.89" y="924.24" width="4.83" height="1.00" class="up-body"/>
<line x1="526.73" y1="919.07" x2="526.73" y2="930.91" class="down-wick"/>
<rect x="524.31" y="919.84" width="4.83" height="10.87" class="down-body"/>
<line x1="534.15" y1="907.70" x2="534.15" y2="916.67" class="down-wick"/>
<rect x="531.74" y="912.20" width="4.83" height="1.00" class="down-body"/>
<line x1="541.58" y1="906.53" x2="541.58" y2="914.34" class="down-wick"/>
<rect x="539.17" y="908.20" width="4.83" height="5.80" class="down-body"/>
<line x1="549.01" y1="908.03" x2="549.01" y2="914.24" class="down-wick"/>
<rect x="546.59" y="909.47" width="4.83" height="4.77" class="down-body"/>
<line x1="556.43" y1="896.13" x2="556.43" y2="910.90" class="up-wick"/>
<rect x="554.02" y="902.83" width="4.83" height="4.04" class="up-body"/>
<line x1="563.86" y1="910.63" x2="563.86" y2="925.74" class="down-wick"/>
<rect x="561.45" y="913.34" width="4.83" height="7.87" class="down-body"/>
<line x1="571.29" y1="891.02" x2="571.29" y2="903.73" class="up-wick"/>
<rect x="568.87" y="891.89" width="4.83" height="11.11" class="up-body"/>
<line x1="578.71" y1="887.59" x2="578.71" y2="894.93" class="up-wick"/>
<rect x="576.30" y="894.36" width="4.83" height="1.00" class="up-body"/>
<line x1="586.14" y1="889.26" x2="586.14" y2="899.30" class="down-wick"/>
<rect x="583.73" y="890.36" width="4.83" height="8.44" class="down-body"/>
<line x1="593.57" y1="883.82" x2="593.57" y2="904.50" class="up-wick"/>
<rect x="591.15" y="884.79" width="4.83" height="15.77" class="up-body"/>
<line x1="600.99" y1="895.76" x2="600.99" y2="902.06" class="down-wick"/>
<rect x="598.58" y="895.76" width="4.83" height="4.37" class="down-body"/>
<line x1="608.42" y1="898.89" x2="608.42" y2="908.33" class="up-wick"/>
<rect x="606.01" y="902.30" width="4.83" height="6.04" class="up-body"/>
<line x1="615.85" y1="900.00" x2="615.85" y2="910.13" class="down-wick"/>
<rect x="613.43" y="903.90" width="4.83" height="4.27" class="down-body"/>
<line x1="623.27" y1="907.70" x2="623.27" y2="915.07" class="down-wick"/>
<rect x="620.86" y="909.07" width="4.83" height="5.57" class="down-body"/>
<line x1="630.70" y1="905.53" x2="630.70" y2="916.07" class="up-wick"/>
<rect x="628.28" y="914.30" width="4.83" height="1.77" class="up-body"/>
<line x1="638.12" y1="902.13" x2="638.12" y2="911.93" class="up-wick"/>
<rect x="635.71" y="902.16" width="4.83" height="9.64" class="up-body"/>
<line x1="645.55" y1="897.63" x2="645.55" y2="904.10" class="up-wick"/>
<rect x="643.14" y="897.63" width="4.83" height="6.47" class="up-body"/>
<line x1="652.98" y1="906.97" x2="652.98" y2="923.24" class="down-wick"/>
<rect x="650.56" y="906.97" width="4.83" height="16.07" class="down-body"/>
<line x1="660.40" y1="926.51" x2="660.40" y2="941.52" class="up-wick"/>
<rect x="657.99" y="930.04" width="4.83" height="6.44" class="up-body"/>
<line x1="667.83" y1="923.67" x2="667.83" y2="930.61" class="up-wick"/>
<rect x="665.42" y="924.94" width="4.83" height="4.94" class="up-body"/>
<line x1="675.26" y1="922.34" x2="675.26" y2="930.84" class="down-wick"/>
<rect x="672.84" y="922.71" width="4.83" height="3.03" class="down-body"/>
<line x1="682.68" y1="922.31" x2="682.68" y2="928.11" class="down-wick"/>
<rect x="680.27" y="922.44" width="4.83" height="1.00" class="down-body"/>
<line x1="690.11" y1="917.10" x2="690.11" y2="925.17" class="up-wick"/>
<rect x="687.70" y="919.67" width="4.83" height="5.47" class="up-body"/>
<line x1="697.54" y1="889.49" x2="697.54" y2="903.96" class="up-wick"/>
<rect x="695.12" y="890.16" width="4.83" height="13.81" class="up-body"/>
<line x1="704.96" y1="873.42" x2="704.96" y2="885.19" class="down-wick"/>
<rect x="702.55" y="878.48" width="4.83" height="4.74" class="down-body"/>
<line x1="712.39" y1="866.24" x2="712.39" y2="878.68" class="down-wick"/>
<rect x="709.98" y="875.42" width="4.83" height="3.23" class="down-body"/>
<line x1="719.82" y1="873.55" x2="719.82" y2="880.39" class="down-wick"/>
<rect x="717.40" y="873.75" width="4.83" height="3.54" class="down-body"/>
<line x1="727.24" y1="860.88" x2="727.24" y2="872.35" class="up-wick"/>
<rect x="724.83" y="862.41" width="4.83" height="7.50" class="up-body"/>
<line x1="734.67" y1="859.24" x2="734.67" y2="870.58" class="down-wick"/>
<rect x="732.26" y="860.58" width="4.83" height="9.91" class="down-body"/>
<line x1="742.10" y1="870.28" x2="742.10" y2="883.59" class="up-wick"/>
<rect x="739.68" y="873.65" width="4.83" height="8.84" class="up-body"/>
<line x1="749.52" y1="869.88" x2="749.52" y2="876.78" class="up-wick"/>
<rect x="747.11" y="870.21" width="4.83" height="4.34" class="up-body"/>
<line x1="756.95" y1="874.25" x2="756.95" y2="882.35" class="down-wick"/>
<rect x="754.53" y="874.35" width="4.83" height="7.00" class="down-body"/>
<line x1="764.38" y1="873.15" x2="764.38" y2="880.75" class="up-wick"/>
<rect x="761.96" y="874.18" width="4.83" height="5.67" class="up-body"/>
<line x1="771.80" y1="869.95" x2="771.80" y2="875.55" class="up-wick"/>
<rect x="769.39" y="872.21" width="4.83" height="3.23" class="up-body"/>
<line x1="779.23" y1="870.18" x2="779.23" y2="882.35" class="down-wick"/>
<rect x="776.81" y="872.48" width="4.83" height="8.87" class="down-body"/>
<line x1="786.65" y1="880.42" x2="786.65" y2="883.65" class="down-wick"/>
<rect x="784.24" y="881.32" width="4.83" height="1.00" class="down-body"/>
<line x1="794.08" y1="875.42" x2="794.08" y2="880.92" class="down-wick"/>
<rect x="791.67" y="876.85" width="4.83" height="2.77" class="down-body"/>
<line x1="801.51" y1="881.15" x2="801.51" y2="885.89" class="up-wick"/>
<rect x="799.09" y="881.15" width="4.83" height="3.27" class="up-body"/>
<line x1="808.93" y1="893.59" x2="808.93" y2="896.83" class="down-wick"/>
<rect x="806.52" y="895.56" width="4.83" height="1.00" class="down-body"/>
<line x1="816.36" y1="896.69" x2="816.36" y2="905.60" class="down-wick"/>
<rect x="813.95" y="897.89" width="4.83" height="5.54" class="down-body"/>
<line x1="823.79" y1="892.09" x2="823.79" y2="902.26" class="down-wick"/>
<rect x="821.37" y="895.83" width="4.83" height="4.94" class="down-body"/>
<line x1="831.21" y1="921.94" x2="831.21" y2="935.71" class="up-wick"/>
<rect x="828.80" y="925.34" width="4.83" height="1.57" class="up-body"/>
<line x1="838.64" y1="922.47" x2="838.64" y2="926.81" class="up-wick"/>
<rect x="836.23" y="925.07" width="4.83" height="1.27" class="up-body"/>
<line x1="846.07" y1="921.07" x2="846.07" y2="927.08" class="down-wick"/>
<rect x="843.65" y="922.37" width="4.83" height="2.13" class="down-body"/>
<line x1="853.49" y1="918.54" x2="853.49" y2="927.01" class="up-wick"/>
<rect x="851.08" y="922.11" width="4.83" height="4.54" class="up-body"/>
<line x1="860.92" y1="917.84" x2="860.92" y2="927.31" class="up-wick"/>
<rect x="858.51" y="917.87" width="4.83" height="6.44" class="up-body"/>
<line x1="868.35" y1="916.44" x2="868.35" y2="920.07" class="down-wick"/>
<rect x="865.93" y="919.67" width="4.83" height="1.00" class="down-body"/>
<line x1="875.77" y1="919.11" x2="875.77" y2="924.84" class="down-wick"/>
<rect x="873.36" y="921.24" width="4.83" height="2.97" class="down-body"/>
<line x1="883.20" y1="917.90" x2="883.20" y2="924.01" class="up-wick"/>
<rect x="880.78" y="921.94" width="4.83" height="1.93" class="up-body"/>
<line x1="890.62" y1="923.74" x2="890.62" y2="928.88" class="up-wick"/>
<rect x="888.21" y="927.54" width="4.83" height="1.00" class="up-body"/>
<line x1="898.05" y1="918.67" x2="898.05" y2="923.41" class="up-wick"/>
<rect x="895.64" y="919.37" width="4.83" height="4.04" class="up-body"/>
<line x1="905.48" y1="921.77" x2="905.48" y2="926.84" class="down-wick"/>
<rect x="903.06" y="924.31" width="4.83" height="1.60" class="down-body"/>
<line x1="912.90" y1="928.41" x2="912.90" y2="941.25" class="down-wick"/>
<rect x="910.49" y="930.64" width="4.83" height="6.60" class="down-body"/>
<line x1="920.33" y1="934.25" x2="920.33" y2="940.25" class="up-wick"/>
<rect x="917.92" y="936.71" width="4.83" height="2.30" class="up-body"/>
<line x1="927.76" y1="940.02" x2="927.76" y2="944.98" class="up-wick"/>
<rect x="925.34" y="941.05" width="4.83" height="3.30" class="up-body"/>
<line x1="935.18" y1="929.04" x2="935.18" y2="934.15" class="up-wick"/>
<rect x="932.77" y="929.84" width="4.83" height="1.53" class="up-body"/>
<line x1="942.61" y1="928.68" x2="942.61" y2="933.11" class="up-wick"/>
<rect x="940.20" y="930.01" width="4.83" height="1.00" class="up-body"/>
<line x1="950.04" y1="934.45" x2="950.04" y2="941.02" class="down-wick"/>
<rect x="947.62" y="935.65" width="4.83" height="3.60" class="down-body"/>
<line x1="957.46" y1="934.38" x2="957.46" y2="943.52" class="up-wick"/>
<rect x="955.05" y="935.91" width="4.83" height="7.44" class="up-body"/>
<line x1="964.89" y1="926.91" x2="964.89" y2="937.28" class="up-wick"/>
<rect x="962.48" y="926.91" width="4.83" height="8.40" class="up-body"/>
<line x1="972.32" y1="921.44" x2="972.32" y2="926.84" class="up-wick"/>
<rect x="969.90" y="923.21" width="4.83" height="1.63" class="up-body"/>
<line x1="979.74" y1="913.10" x2="979.74" y2="918.60" class="up-wick"/>
<rect x="977.33" y="915.14" width="4.83" height="1.97" class="up-body"/>
<line x1="987.17" y1="912.94" x2="987.17" y2="918.17" class="up-wick"/>
<rect x="984.76" y="913.34" width="4.83" height="4.70" class="up-body"/>
<line x1="994.60" y1="916.34" x2="994.60" y2="920.57" class="down-wick"/>
<rect x="992.18" y="917.04" width="4.83" height="1.00" class="down-body"/>
<line x1="1002.02" y1="917.97" x2="1002.02" y2="922.04" class="down-wick"/>
<rect x="999.61" y="920.41" width="4.83" height="1.60" class="down-body"/>
<line x1="1009.45" y1="918.00" x2="1009.45" y2="923.21" class="up-wick"/>
<rect x="1007.03" y="918.10" width="4.83" height="1.00" class="up-body"/>
<line x1="1016.88" y1="914.44" x2="1016.88" y2="919.91" class="up-wick"/>
<rect x="1014.46" y="914.64" width="4.83" height="2.97" class="up-body"/>
<line x1="1024.30" y1="904.56" x2="1024.30" y2="911.27" class="down-wick"/>
<rect x="1021.89" y="906.50" width="4.83" height="3.80" class="down-body"/>
<line x1="1031.73" y1="907.23" x2="1031.73" y2="912.60" class="up-wick"/>
<rect x="1029.31" y="909.70" width="4.83" height="1.63" class="up-body"/>
<line x1="1039.15" y1="907.10" x2="1039.15" y2="909.43" class="down-wick"/>
<rect x="1036.74" y="907.27" width="4.83" height="1.77" class="down-body"/>
<line x1="1046.58" y1="891.76" x2="1046.58" y2="901.33" class="up-wick"/>
<rect x="1044.17" y="891.96" width="4.83" height="9.37" class="up-body"/>
<line x1="1054.01" y1="894.43" x2="1054.01" y2="900.83" class="up-wick"/>
<rect x="1051.59" y="895.33" width="4.83" height="4.00" class="up-body"/>
<line x1="1061.43" y1="891.62" x2="1061.43" y2="897.79" class="down-wick"/>
<rect x="1059.02" y="891.76" width="4.83" height="4.70" class="down-body"/>
<line x1="1068.86" y1="894.93" x2="1068.86" y2="902.10" class="down-wick"/>
<rect x="1066.45" y="897.63" width="4.83" height="3.50" class="down-body"/>
<line x1="1076.29" y1="895.49" x2="1076.29" y2="900.76" class="up-wick"/>
<rect x="1073.87" y="896.56" width="4.83" height="1.83" class="up-body"/>
<line x1="70" y1="959.69" x2="1080" y2="959.69" class="number-line"/>
<text x="1076" y="955.69" text-anchor="end" class="level-label">round 4720.00</text>
<line x1="70" y1="959.69" x2="1080" y2="959.69" class="entry-line"/>
<text x="1076" y="955.69" text-anchor="end" class="level-label">entry level 4720.00</text>
<text x="70" y="1056" class="axis-label">2026-04-13 17:30:00+00:00 to 2026-04-13 22:00:00+00:00</text>
<text x="1080" y="1056" text-anchor="end" class="axis-label">4696.52 - 4754.09</text>
</svg>