<svg xmlns="http://www.w3.org/2000/svg" width="1120" height="1054" viewBox="0 0 1120 1054">
<style>
text{font-family:Arial,Helvetica,sans-serif}.title{font-size:21px;font-weight:700;fill:#1f2937}.subtitle{font-size:12px;fill:#4b5563}.panel-title{font-size:15px;font-weight:700;fill:#111827}.muted{font-size:13px;fill:#6b7280}.plot-bg{fill:#f8fafc;stroke:#cbd5e1;stroke-width:1}.up-body{fill:#15803d;stroke:#14532d;stroke-width:.8}.down-body{fill:#b91c1c;stroke:#7f1d1d;stroke-width:.8}.up-wick{stroke:#14532d;stroke-width:1}.down-wick{stroke:#7f1d1d;stroke-width:1}.sweep-line{stroke:#7c3aed;stroke-width:1.6;stroke-dasharray:6 4}.number-line{stroke:#0f766e;stroke-width:1.4;stroke-dasharray:3 4}.entry-line{stroke:#2563eb;stroke-width:1.4}.sl-line{stroke:#dc2626;stroke-width:1.4}.tp-line{stroke:#16a34a;stroke-width:1.4}.level-label,.axis-label{font-size:11px;fill:#374151}
</style>
<text x="28" y="28" class="title">Adelin v2 visual review sample sample_288</text>
<text x="28" y="48" class="subtitle">Candidate windows are for visual labeling only and are not trade signals.</text>
<text x="560" y="48" class="subtitle" text-anchor="middle">NUMBER_THEORY_LEVEL_NEAR | LARGE_UPPER_WICK_REVERSAL_VISUAL_CANDIDATE | ROUND_LEVEL_ENTRY_METADATA_AVAILABLE</text>
<text x="70" y="82" class="panel-title">H1 liquidity context</text>
<rect x="70" y="96" width="1010" height="192" class="plot-bg"/>
<line x1="80.74" y1="109.24" x2="80.74" y2="120.32" class="up-wick"/>
<rect x="76.74" y="111.89" width="8.00" height="7.12" class="up-body"/>
<line x1="102.23" y1="111.41" x2="102.23" y2="114.55" class="down-wick"/>
<rect x="98.23" y="111.89" width="8.00" height="1.06" class="down-body"/>
<line x1="123.72" y1="112.39" x2="123.72" y2="122.22" class="down-wick"/>
<rect x="119.72" y="112.94" width="8.00" height="8.64" class="down-body"/>
<line x1="145.21" y1="118.25" x2="145.21" y2="128.55" class="down-wick"/>
<rect x="141.21" y="121.58" width="8.00" height="4.93" class="down-body"/>
<line x1="166.70" y1="116.51" x2="166.70" y2="126.82" class="up-wick"/>
<rect x="162.70" y="116.90" width="8.00" height="9.61" class="up-body"/>
<line x1="188.19" y1="109.49" x2="188.19" y2="122.42" class="down-wick"/>
<rect x="184.19" y="116.89" width="8.00" height="3.32" class="down-body"/>
<line x1="209.68" y1="118.46" x2="209.68" y2="128.97" class="down-wick"/>
<rect x="205.68" y="120.21" width="8.00" height="6.76" class="down-body"/>
<line x1="231.17" y1="126.33" x2="231.17" y2="134.61" class="down-wick"/>
<rect x="227.17" y="126.96" width="8.00" height="5.77" class="down-body"/>
<line x1="252.66" y1="125.22" x2="252.66" y2="134.85" class="up-wick"/>
<rect x="248.66" y="125.91" width="8.00" height="6.83" class="up-body"/>
<line x1="274.15" y1="119.73" x2="274.15" y2="128.40" class="up-wick"/>
<rect x="270.15" y="124.16" width="8.00" height="1.75" class="up-body"/>
<line x1="295.64" y1="123.83" x2="295.64" y2="141.23" class="down-wick"/>
<rect x="291.64" y="124.16" width="8.00" height="16.09" class="down-body"/>
<line x1="317.13" y1="138.66" x2="317.13" y2="158.08" class="down-wick"/>
<rect x="313.13" y="140.26" width="8.00" height="13.58" class="down-body"/>
<line x1="338.62" y1="149.70" x2="338.62" y2="159.97" class="down-wick"/>
<rect x="334.62" y="153.89" width="8.00" height="2.76" class="down-body"/>
<line x1="360.11" y1="140.99" x2="360.11" y2="157.00" class="up-wick"/>
<rect x="356.11" y="148.86" width="8.00" height="7.77" class="up-body"/>
<line x1="381.60" y1="144.34" x2="381.60" y2="156.44" class="down-wick"/>
<rect x="377.60" y="148.86" width="8.00" height="2.58" class="down-body"/>
<line x1="403.09" y1="150.14" x2="403.09" y2="176.40" class="down-wick"/>
<rect x="399.09" y="151.44" width="8.00" height="19.14" class="down-body"/>
<line x1="424.57" y1="166.14" x2="424.57" y2="174.26" class="up-wick"/>
<rect x="420.57" y="170.05" width="8.00" height="1.00" class="up-body"/>
<line x1="446.06" y1="166.74" x2="446.06" y2="172.31" class="down-wick"/>
<rect x="442.06" y="170.08" width="8.00" height="2.22" class="down-body"/>
<line x1="467.55" y1="161.07" x2="467.55" y2="183.58" class="up-wick"/>
<rect x="463.55" y="170.91" width="8.00" height="2.90" class="up-body"/>
<line x1="489.04" y1="167.65" x2="489.04" y2="182.85" class="down-wick"/>
<rect x="485.04" y="171.00" width="8.00" height="8.70" class="down-body"/>
<line x1="510.53" y1="177.42" x2="510.53" y2="217.25" class="down-wick"/>
<rect x="506.53" y="179.70" width="8.00" height="28.65" class="down-body"/>
<line x1="532.02" y1="182.43" x2="532.02" y2="214.61" class="up-wick"/>
<rect x="528.02" y="199.68" width="8.00" height="8.68" class="up-body"/>
<line x1="553.51" y1="190.73" x2="553.51" y2="208.18" class="down-wick"/>
<rect x="549.51" y="199.68" width="8.00" height="7.03" class="down-body"/>
<line x1="575.00" y1="202.16" x2="575.00" y2="213.30" class="down-wick"/>
<rect x="571.00" y="206.70" width="8.00" height="1.99" class="down-body"/>
<line x1="596.49" y1="201.23" x2="596.49" y2="209.37" class="up-wick"/>
<rect x="592.49" y="204.93" width="8.00" height="3.76" class="up-body"/>
<line x1="617.98" y1="201.66" x2="617.98" y2="221.82" class="down-wick"/>
<rect x="613.98" y="204.93" width="8.00" height="14.81" class="down-body"/>
<line x1="639.47" y1="219.74" x2="639.47" y2="258.06" class="down-wick"/>
<rect x="635.47" y="219.75" width="8.00" height="23.40" class="down-body"/>
<line x1="660.96" y1="239.96" x2="660.96" y2="274.76" class="down-wick"/>
<rect x="656.96" y="243.15" width="8.00" height="4.16" class="down-body"/>
<line x1="682.45" y1="230.11" x2="682.45" y2="247.55" class="up-wick"/>
<rect x="678.45" y="235.12" width="8.00" height="12.18" class="up-body"/>
<line x1="703.94" y1="220.28" x2="703.94" y2="242.27" class="up-wick"/>
<rect x="699.94" y="234.47" width="8.00" height="1.00" class="up-body"/>
<line x1="725.43" y1="227.16" x2="725.43" y2="237.69" class="up-wick"/>
<rect x="721.43" y="230.48" width="8.00" height="3.90" class="up-body"/>
<line x1="746.91" y1="180.17" x2="746.91" y2="230.48" class="up-wick"/>
<rect x="742.91" y="201.92" width="8.00" height="28.55" class="up-body"/>
<line x1="768.40" y1="172.46" x2="768.40" y2="212.86" class="up-wick"/>
<rect x="764.40" y="176.14" width="8.00" height="25.78" class="up-body"/>
<line x1="789.89" y1="174.28" x2="789.89" y2="196.04" class="down-wick"/>
<rect x="785.89" y="176.14" width="8.00" height="6.17" class="down-body"/>
<line x1="811.38" y1="167.17" x2="811.38" y2="182.57" class="up-wick"/>
<rect x="807.38" y="180.45" width="8.00" height="1.86" class="up-body"/>
<line x1="832.87" y1="173.90" x2="832.87" y2="209.19" class="down-wick"/>
<rect x="828.87" y="180.43" width="8.00" height="25.44" class="down-body"/>
<line x1="854.36" y1="198.66" x2="854.36" y2="208.79" class="up-wick"/>
<rect x="850.36" y="202.86" width="8.00" height="3.01" class="up-body"/>
<line x1="875.85" y1="186.37" x2="875.85" y2="204.06" class="up-wick"/>
<rect x="871.85" y="189.65" width="8.00" height="13.21" class="up-body"/>
<line x1="897.34" y1="179.08" x2="897.34" y2="195.84" class="up-wick"/>
<rect x="893.34" y="183.73" width="8.00" height="5.92" class="up-body"/>
<line x1="918.83" y1="183.32" x2="918.83" y2="198.29" class="down-wick"/>
<rect x="914.83" y="183.73" width="8.00" height="13.31" class="down-body"/>
<line x1="940.32" y1="193.04" x2="940.32" y2="200.87" class="up-wick"/>
<rect x="936.32" y="194.96" width="8.00" height="2.07" class="up-body"/>
<line x1="961.81" y1="188.32" x2="961.81" y2="206.52" class="up-wick"/>
<rect x="957.81" y="189.48" width="8.00" height="2.70" class="up-body"/>
<line x1="983.30" y1="183.90" x2="983.30" y2="190.82" class="up-wick"/>
<rect x="979.30" y="185.82" width="8.00" height="3.67" class="up-body"/>
<line x1="1004.79" y1="184.38" x2="1004.79" y2="214.26" class="down-wick"/>
<rect x="1000.79" y="185.81" width="8.00" height="19.84" class="down-body"/>
<line x1="1026.28" y1="203.17" x2="1026.28" y2="220.35" class="down-wick"/>
<rect x="1022.28" y="205.65" width="8.00" height="10.97" class="down-body"/>
<line x1="1047.77" y1="201.84" x2="1047.77" y2="220.90" class="up-wick"/>
<rect x="1043.77" y="205.25" width="8.00" height="11.37" class="up-body"/>
<line x1="1069.26" y1="204.68" x2="1069.26" y2="213.33" class="down-wick"/>
<rect x="1065.26" y="205.25" width="8.00" height="4.91" class="down-body"/>
<line x1="70" y1="209.45" x2="1080" y2="209.45" class="number-line"/>
<text x="1076" y="205.45" text-anchor="end" class="level-label">round 4350.00</text>
<line x1="70" y1="209.45" x2="1080" y2="209.45" class="entry-line"/>
<text x="1076" y="205.45" text-anchor="end" class="level-label">entry level 4350.00</text>
<text x="70" y="306" class="axis-label">2026-03-20 05:00:00+00:00 to 2026-03-24 05:00:00+00:00</text>
<text x="1080" y="306" text-anchor="end" class="axis-label">4047.55 - 4786.82</text>
<text x="70" y="332" class="panel-title">M15 liquidity / reaction context</text>
<rect x="70" y="346" width="1010" height="192" class="plot-bg"/>
<line x1="81.22" y1="366.80" x2="81.22" y2="392.02" class="up-wick"/>
<rect x="77.22" y="369.85" width="8.00" height="7.93" class="up-body"/>
<line x1="103.67" y1="359.24" x2="103.67" y2="371.48" class="up-wick"/>
<rect x="99.67" y="363.74" width="8.00" height="6.37" class="up-body"/>
<line x1="126.11" y1="362.87" x2="126.11" y2="371.03" class="down-wick"/>
<rect x="122.11" y="363.74" width="8.00" height="6.53" class="down-body"/>
<line x1="148.56" y1="367.17" x2="148.56" y2="376.66" class="down-wick"/>
<rect x="144.56" y="370.25" width="8.00" height="3.32" class="down-body"/>
<line x1="171.00" y1="368.83" x2="171.00" y2="378.58" class="down-wick"/>
<rect x="167.00" y="373.70" width="8.00" height="2.97" class="down-body"/>
<line x1="193.44" y1="372.95" x2="193.44" y2="379.60" class="down-wick"/>
<rect x="189.44" y="376.67" width="8.00" height="1.83" class="down-body"/>
<line x1="215.89" y1="376.42" x2="215.89" y2="383.40" class="up-wick"/>
<rect x="211.89" y="377.31" width="8.00" height="1.20" class="up-body"/>
<line x1="238.33" y1="375.39" x2="238.33" y2="390.96" class="down-wick"/>
<rect x="234.33" y="377.31" width="8.00" height="9.06" class="down-body"/>
<line x1="260.78" y1="383.05" x2="260.78" y2="401.11" class="down-wick"/>
<rect x="256.78" y="386.36" width="8.00" height="10.52" class="down-body"/>
<line x1="283.22" y1="393.55" x2="283.22" y2="409.08" class="down-wick"/>
<rect x="279.22" y="396.88" width="8.00" height="3.67" class="down-body"/>
<line x1="305.67" y1="396.91" x2="305.67" y2="437.16" class="down-wick"/>
<rect x="301.67" y="400.55" width="8.00" height="24.58" class="down-body"/>
<line x1="328.11" y1="421.83" x2="328.11" y2="441.03" class="down-wick"/>
<rect x="324.11" y="424.83" width="8.00" height="3.24" class="down-body"/>
<line x1="350.56" y1="402.19" x2="350.56" y2="437.19" class="up-wick"/>
<rect x="346.56" y="407.71" width="8.00" height="20.38" class="up-body"/>
<line x1="373.00" y1="394.28" x2="373.00" y2="408.02" class="up-wick"/>
<rect x="369.00" y="402.36" width="8.00" height="5.21" class="up-body"/>
<line x1="395.44" y1="390.34" x2="395.44" y2="404.51" class="up-wick"/>
<rect x="391.44" y="397.37" width="8.00" height="4.99" class="up-body"/>
<line x1="417.89" y1="396.93" x2="417.89" y2="417.84" class="down-wick"/>
<rect x="413.89" y="397.37" width="8.00" height="18.08" class="down-body"/>
<line x1="440.33" y1="402.43" x2="440.33" y2="417.13" class="up-wick"/>
<rect x="436.33" y="412.39" width="8.00" height="3.06" class="up-body"/>
<line x1="462.78" y1="404.38" x2="462.78" y2="413.03" class="up-wick"/>
<rect x="458.78" y="411.06" width="8.00" height="1.33" class="up-body"/>
<line x1="485.22" y1="410.51" x2="485.22" y2="422.30" class="down-wick"/>
<rect x="481.22" y="411.06" width="8.00" height="5.48" class="down-body"/>
<line x1="507.67" y1="416.54" x2="507.67" y2="427.83" class="down-wick"/>
<rect x="503.67" y="416.54" width="8.00" height="9.14" class="down-body"/>
<line x1="530.11" y1="419.07" x2="530.11" y2="430.45" class="down-wick"/>
<rect x="526.11" y="425.68" width="8.00" height="4.12" class="down-body"/>
<line x1="552.56" y1="423.74" x2="552.56" y2="430.77" class="up-wick"/>
<rect x="548.56" y="429.23" width="8.00" height="1.00" class="up-body"/>
<line x1="575.00" y1="424.17" x2="575.00" y2="435.28" class="down-wick"/>
<rect x="571.00" y="429.23" width="8.00" height="3.49" class="down-body"/>
<line x1="597.44" y1="425.84" x2="597.44" y2="434.62" class="up-wick"/>
<rect x="593.44" y="428.58" width="8.00" height="4.13" class="up-body"/>
<line x1="619.89" y1="421.93" x2="619.89" y2="428.58" class="up-wick"/>
<rect x="615.89" y="424.47" width="8.00" height="4.11" class="up-body"/>
<line x1="642.33" y1="421.84" x2="642.33" y2="425.44" class="up-wick"/>
<rect x="638.33" y="422.66" width="8.00" height="1.81" class="up-body"/>
<line x1="664.78" y1="417.71" x2="664.78" y2="425.81" class="up-wick"/>
<rect x="660.78" y="420.12" width="8.00" height="2.54" class="up-body"/>
<line x1="687.22" y1="419.66" x2="687.22" y2="429.56" class="down-wick"/>
<rect x="683.22" y="420.12" width="8.00" height="2.99" class="down-body"/>
<line x1="709.67" y1="418.34" x2="709.67" y2="423.65" class="up-wick"/>
<rect x="705.67" y="421.13" width="8.00" height="1.97" class="up-body"/>
<line x1="732.11" y1="420.58" x2="732.11" y2="429.03" class="down-wick"/>
<rect x="728.11" y="421.13" width="8.00" height="6.23" class="down-body"/>
<line x1="754.56" y1="427.37" x2="754.56" y2="440.97" class="down-wick"/>
<rect x="750.56" y="427.37" width="8.00" height="12.84" class="down-body"/>
<line x1="777.00" y1="438.51" x2="777.00" y2="447.69" class="down-wick"/>
<rect x="773.00" y="440.20" width="8.00" height="4.47" class="down-body"/>
<line x1="799.44" y1="444.66" x2="799.44" y2="459.68" class="down-wick"/>
<rect x="795.44" y="444.67" width="8.00" height="5.96" class="down-body"/>
<line x1="821.89" y1="444.81" x2="821.89" y2="471.47" class="down-wick"/>
<rect x="817.89" y="450.65" width="8.00" height="19.10" class="down-body"/>
<line x1="844.33" y1="467.54" x2="844.33" y2="493.03" class="down-wick"/>
<rect x="840.33" y="469.75" width="8.00" height="23.06" class="down-body"/>
<line x1="866.78" y1="474.91" x2="866.78" y2="500.45" class="up-wick"/>
<rect x="862.78" y="478.74" width="8.00" height="14.08" class="up-body"/>
<line x1="889.22" y1="478.04" x2="889.22" y2="514.16" class="down-wick"/>
<rect x="885.22" y="478.74" width="8.00" height="33.97" class="down-body"/>
<line x1="911.67" y1="501.52" x2="911.67" y2="524.76" class="up-wick"/>
<rect x="907.67" y="510.71" width="8.00" height="2.00" class="up-body"/>
<line x1="934.11" y1="480.22" x2="934.11" y2="513.06" class="up-wick"/>
<rect x="930.11" y="480.62" width="8.00" height="30.09" class="up-body"/>
<line x1="956.56" y1="474.10" x2="956.56" y2="491.49" class="down-wick"/>
<rect x="952.56" y="480.62" width="8.00" height="4.17" class="down-body"/>
<line x1="979.00" y1="465.32" x2="979.00" y2="485.15" class="up-wick"/>
<rect x="975.00" y="466.30" width="8.00" height="18.49" class="up-body"/>
<line x1="1001.44" y1="465.17" x2="1001.44" y2="482.10" class="down-wick"/>
<rect x="997.44" y="466.29" width="8.00" height="9.95" class="down-body"/>
<line x1="1023.89" y1="459.76" x2="1023.89" y2="477.85" class="up-wick"/>
<rect x="1019.89" y="464.68" width="8.00" height="11.58" class="up-body"/>
<line x1="1046.33" y1="460.08" x2="1046.33" y2="478.94" class="down-wick"/>
<rect x="1042.33" y="464.68" width="8.00" height="2.37" class="down-body"/>
<line x1="1068.78" y1="460.24" x2="1068.78" y2="468.88" class="up-wick"/>
<rect x="1064.78" y="460.32" width="8.00" height="6.74" class="up-body"/>
<line x1="70" y1="429.68" x2="1080" y2="429.68" class="number-line"/>
<text x="1076" y="425.68" text-anchor="end" class="level-label">round 4350.00</text>
<line x1="70" y1="429.68" x2="1080" y2="429.68" class="entry-line"/>
<text x="1076" y="425.68" text-anchor="end" class="level-label">entry level 4350.00</text>
<text x="70" y="556" class="axis-label">2026-03-23 00:00:00+00:00 to 2026-03-23 11:00:00+00:00</text>
<text x="1080" y="556" text-anchor="end" class="axis-label">4063.51 - 4571.31</text>
<text x="70" y="582" class="panel-title">M5 reaction / execution context</text>
<rect x="70" y="596" width="1010" height="192" class="plot-bg"/>
<line x1="79.18" y1="609.24" x2="79.18" y2="646.15" class="up-wick"/>
<rect x="75.18" y="621.70" width="8.00" height="18.86" class="up-body"/>
<line x1="97.55" y1="613.39" x2="97.55" y2="630.37" class="up-wick"/>
<rect x="93.55" y="618.34" width="8.00" height="3.36" class="up-body"/>
<line x1="115.91" y1="617.90" x2="115.91" y2="634.72" class="down-wick"/>
<rect x="111.91" y="618.19" width="8.00" height="9.36" class="down-body"/>
<line x1="134.27" y1="626.42" x2="134.27" y2="651.57" class="down-wick"/>
<rect x="130.27" y="627.56" width="8.00" height="22.23" class="down-body"/>
<line x1="152.64" y1="647.56" x2="152.64" y2="658.19" class="down-wick"/>
<rect x="148.64" y="649.79" width="8.00" height="5.35" class="down-body"/>
<line x1="171.00" y1="651.56" x2="171.00" y2="680.87" class="down-wick"/>
<rect x="167.00" y="655.10" width="8.00" height="19.55" class="down-body"/>
<line x1="189.36" y1="642.59" x2="189.36" y2="679.03" class="up-wick"/>
<rect x="185.36" y="645.52" width="8.00" height="29.13" class="up-body"/>
<line x1="207.73" y1="640.73" x2="207.73" y2="655.96" class="down-wick"/>
<rect x="203.73" y="645.52" width="8.00" height="10.39" class="down-body"/>
<line x1="226.09" y1="649.36" x2="226.09" y2="672.18" class="down-wick"/>
<rect x="222.09" y="655.94" width="8.00" height="10.75" class="down-body"/>
<line x1="244.45" y1="645.82" x2="244.45" y2="668.34" class="up-wick"/>
<rect x="240.45" y="658.80" width="8.00" height="7.89" class="up-body"/>
<line x1="262.82" y1="648.79" x2="262.82" y2="659.26" class="up-wick"/>
<rect x="258.82" y="658.04" width="8.00" height="1.00" class="up-body"/>
<line x1="281.18" y1="648.45" x2="281.18" y2="665.38" class="down-wick"/>
<rect x="277.18" y="658.04" width="8.00" height="5.18" class="down-body"/>
<line x1="299.55" y1="661.77" x2="299.55" y2="680.84" class="down-wick"/>
<rect x="295.55" y="663.22" width="8.00" height="10.79" class="down-body"/>
<line x1="317.91" y1="670.70" x2="317.91" y2="691.44" class="down-wick"/>
<rect x="313.91" y="674.02" width="8.00" height="13.81" class="down-body"/>
<line x1="336.27" y1="676.70" x2="336.27" y2="692.49" class="up-wick"/>
<rect x="332.27" y="677.49" width="8.00" height="10.34" class="up-body"/>
<line x1="354.64" y1="677.49" x2="354.64" y2="692.32" class="down-wick"/>
<rect x="350.64" y="677.49" width="8.00" height="11.07" class="down-body"/>
<line x1="373.00" y1="682.35" x2="373.00" y2="706.88" class="down-wick"/>
<rect x="369.00" y="688.53" width="8.00" height="13.39" class="down-body"/>
<line x1="391.36" y1="692.06" x2="391.36" y2="704.59" class="up-wick"/>
<rect x="387.36" y="701.29" width="8.00" height="1.00" class="up-body"/>
<line x1="409.73" y1="684.08" x2="409.73" y2="701.68" class="up-wick"/>
<rect x="405.73" y="694.76" width="8.00" height="6.53" class="up-body"/>
<line x1="428.09" y1="688.22" x2="428.09" y2="707.48" class="down-wick"/>
<rect x="424.09" y="694.76" width="8.00" height="10.90" class="down-body"/>
<line x1="446.45" y1="704.39" x2="446.45" y2="713.72" class="down-wick"/>
<rect x="442.45" y="705.66" width="8.00" height="6.36" class="down-body"/>
<line x1="464.82" y1="700.27" x2="464.82" y2="712.31" class="up-wick"/>
<rect x="460.82" y="708.07" width="8.00" height="3.97" class="up-body"/>
<line x1="483.18" y1="696.24" x2="483.18" y2="709.84" class="up-wick"/>
<rect x="479.18" y="706.69" width="8.00" height="1.38" class="up-body"/>
<line x1="501.55" y1="704.48" x2="501.55" y2="714.55" class="down-wick"/>
<rect x="497.55" y="706.64" width="8.00" height="3.90" class="down-body"/>
<line x1="519.91" y1="697.36" x2="519.91" y2="710.77" class="up-wick"/>
<rect x="515.91" y="702.58" width="8.00" height="7.95" class="up-body"/>
<line x1="538.27" y1="701.66" x2="538.27" y2="716.38" class="down-wick"/>
<rect x="534.27" y="702.45" width="8.00" height="13.38" class="down-body"/>
<line x1="556.64" y1="713.69" x2="556.64" y2="726.29" class="down-wick"/>
<rect x="552.64" y="715.82" width="8.00" height="3.78" class="down-body"/>
<line x1="575.00" y1="710.08" x2="575.00" y2="724.57" class="up-wick"/>
<rect x="571.00" y="710.23" width="8.00" height="9.37" class="up-body"/>
<line x1="593.36" y1="701.71" x2="593.36" y2="713.58" class="down-wick"/>
<rect x="589.36" y="710.23" width="8.00" height="1.00" class="down-body"/>
<line x1="611.73" y1="707.04" x2="611.73" y2="713.25" class="up-wick"/>
<rect x="607.73" y="708.85" width="8.00" height="2.17" class="up-body"/>
<line x1="630.09" y1="691.91" x2="630.09" y2="708.85" class="up-wick"/>
<rect x="626.09" y="699.35" width="8.00" height="9.50" class="up-body"/>
<line x1="648.45" y1="691.53" x2="648.45" y2="700.07" class="up-wick"/>
<rect x="644.45" y="693.04" width="8.00" height="6.31" class="up-body"/>
<line x1="666.82" y1="692.33" x2="666.82" y2="700.09" class="down-wick"/>
<rect x="662.82" y="693.03" width="8.00" height="5.11" class="down-body"/>
<line x1="685.18" y1="691.50" x2="685.18" y2="700.67" class="up-wick"/>
<rect x="681.18" y="693.27" width="8.00" height="4.87" class="up-body"/>
<line x1="703.55" y1="691.92" x2="703.55" y2="695.84" class="up-wick"/>
<rect x="699.55" y="691.94" width="8.00" height="1.33" class="up-body"/>
<line x1="721.91" y1="691.29" x2="721.91" y2="696.06" class="down-wick"/>
<rect x="717.91" y="691.94" width="8.00" height="1.49" class="down-body"/>
<line x1="740.27" y1="693.42" x2="740.27" y2="701.64" class="down-wick"/>
<rect x="736.27" y="693.42" width="8.00" height="2.40" class="down-body"/>
<line x1="758.64" y1="680.53" x2="758.64" y2="696.27" class="up-wick"/>
<rect x="754.64" y="688.27" width="8.00" height="7.55" class="up-body"/>
<line x1="777.00" y1="684.28" x2="777.00" y2="692.00" class="up-wick"/>
<rect x="773.00" y="686.82" width="8.00" height="1.46" class="up-body"/>
<line x1="795.36" y1="685.61" x2="795.36" y2="693.90" class="down-wick"/>
<rect x="791.36" y="686.80" width="8.00" height="6.05" class="down-body"/>
<line x1="813.73" y1="692.82" x2="813.73" y2="711.38" class="down-wick"/>
<rect x="809.73" y="692.84" width="8.00" height="14.66" class="down-body"/>
<line x1="832.09" y1="694.41" x2="832.09" y2="709.24" class="up-wick"/>
<rect x="828.09" y="694.58" width="8.00" height="12.96" class="up-body"/>
<line x1="850.45" y1="682.17" x2="850.45" y2="696.00" class="up-wick"/>
<rect x="846.45" y="689.43" width="8.00" height="5.16" class="up-body"/>
<line x1="868.82" y1="682.57" x2="868.82" y2="690.31" class="up-wick"/>
<rect x="864.82" y="687.86" width="8.00" height="1.50" class="up-body"/>
<line x1="887.18" y1="685.41" x2="887.18" y2="692.46" class="down-wick"/>
<rect x="883.18" y="687.50" width="8.00" height="1.94" class="down-body"/>
<line x1="905.55" y1="688.00" x2="905.55" y2="698.35" class="down-wick"/>
<rect x="901.55" y="689.44" width="8.00" height="3.99" class="down-body"/>
<line x1="923.91" y1="693.43" x2="923.91" y2="707.52" class="down-wick"/>
<rect x="919.91" y="693.43" width="8.00" height="13.91" class="down-body"/>
<line x1="942.27" y1="702.65" x2="942.27" y2="710.02" class="up-wick"/>
<rect x="938.27" y="705.68" width="8.00" height="1.66" class="up-body"/>
<line x1="960.64" y1="705.68" x2="960.64" y2="739.82" class="down-wick"/>
<rect x="956.64" y="705.68" width="8.00" height="22.68" class="down-body"/>
<line x1="979.00" y1="721.29" x2="979.00" y2="738.93" class="down-wick"/>
<rect x="975.00" y="728.36" width="8.00" height="6.33" class="down-body"/>
<line x1="997.36" y1="732.10" x2="997.36" y2="741.10" class="down-wick"/>
<rect x="993.36" y="734.69" width="8.00" height="4.42" class="down-body"/>
<line x1="1015.73" y1="734.69" x2="1015.73" y2="741.91" class="down-wick"/>
<rect x="1011.73" y="739.11" width="8.00" height="1.42" class="down-body"/>
<line x1="1034.09" y1="737.06" x2="1034.09" y2="757.15" class="down-wick"/>
<rect x="1030.09" y="740.53" width="8.00" height="16.58" class="down-body"/>
<line x1="1052.45" y1="738.94" x2="1052.45" y2="758.62" class="up-wick"/>
<rect x="1048.45" y="750.75" width="8.00" height="6.36" class="up-body"/>
<line x1="1070.82" y1="750.71" x2="1070.82" y2="774.76" class="down-wick"/>
<rect x="1066.82" y="750.75" width="8.00" height="23.16" class="down-body"/>
<line x1="70" y1="711.70" x2="1080" y2="711.70" class="number-line"/>
<text x="1076" y="707.70" text-anchor="end" class="level-label">round 4350.00</text>
<line x1="70" y1="711.70" x2="1080" y2="711.70" class="entry-line"/>
<text x="1076" y="707.70" text-anchor="end" class="level-label">entry level 4350.00</text>
<text x="70" y="806" class="axis-label">2026-03-23 03:30:00+00:00 to 2026-03-23 08:00:00+00:00</text>
<text x="1080" y="806" text-anchor="end" class="axis-label">4272.51 - 4467.50</text>
<text x="70" y="832" class="panel-title">M1 execution window</text>
<rect x="70" y="846" width="1010" height="192" class="plot-bg"/>
<line x1="73.71" y1="878.13" x2="73.71" y2="896.84" class="up-wick"/>
<rect x="71.30" y="878.13" width="4.83" height="12.33" class="up-body"/>
<line x1="81.14" y1="860.68" x2="81.14" y2="868.88" class="down-wick"/>
<rect x="78.73" y="864.64" width="4.83" height="1.63" class="down-body"/>
<line x1="88.57" y1="859.24" x2="88.57" y2="872.10" class="down-wick"/>
<rect x="86.15" y="861.51" width="4.83" height="7.45" class="down-body"/>
<line x1="95.99" y1="871.35" x2="95.99" y2="878.85" class="down-wick"/>
<rect x="93.58" y="875.81" width="4.83" height="1.00" class="down-body"/>
<line x1="103.42" y1="859.48" x2="103.42" y2="865.44" class="up-wick"/>
<rect x="101.01" y="862.06" width="4.83" height="2.62" class="up-body"/>
<line x1="110.85" y1="864.62" x2="110.85" y2="871.01" class="down-wick"/>
<rect x="108.43" y="864.96" width="4.83" height="5.24" class="down-body"/>
<line x1="118.27" y1="870.91" x2="118.27" y2="875.92" class="down-wick"/>
<rect x="115.86" y="871.24" width="4.83" height="1.10" class="down-body"/>
<line x1="125.70" y1="875.62" x2="125.70" y2="883.80" class="up-wick"/>
<rect x="123.28" y="875.64" width="4.83" height="5.46" class="up-body"/>
<line x1="133.12" y1="878.92" x2="133.12" y2="887.52" class="down-wick"/>
<rect x="130.71" y="878.92" width="4.83" height="5.24" class="down-body"/>
<line x1="140.55" y1="888.00" x2="140.55" y2="900.83" class="down-wick"/>
<rect x="138.14" y="888.27" width="4.83" height="6.57" class="down-body"/>
<line x1="147.98" y1="898.45" x2="147.98" y2="904.40" class="down-wick"/>
<rect x="145.56" y="901.00" width="4.83" height="2.86" class="down-body"/>
<line x1="155.40" y1="903.67" x2="155.40" y2="910.58" class="down-wick"/>
<rect x="152.99" y="904.92" width="4.83" height="4.94" class="down-body"/>
<line x1="162.83" y1="901.54" x2="162.83" y2="909.39" class="down-wick"/>
<rect x="160.42" y="902.02" width="4.83" height="5.08" class="down-body"/>
<line x1="170.26" y1="907.11" x2="170.26" y2="915.32" class="down-wick"/>
<rect x="167.84" y="909.66" width="4.83" height="2.79" class="down-body"/>
<line x1="177.68" y1="922.03" x2="177.68" y2="930.92" class="up-wick"/>
<rect x="175.27" y="923.96" width="4.83" height="1.82" class="up-body"/>
<line x1="185.11" y1="927.10" x2="185.11" y2="934.34" class="down-wick"/>
<rect x="182.70" y="929.34" width="4.83" height="1.00" class="down-body"/>
<line x1="192.54" y1="895.03" x2="192.54" y2="911.88" class="up-wick"/>
<rect x="190.12" y="897.52" width="4.83" height="9.74" class="up-body"/>
<line x1="199.96" y1="892.79" x2="199.96" y2="903.05" class="up-wick"/>
<rect x="197.55" y="896.12" width="4.83" height="5.01" class="up-body"/>
<line x1="207.39" y1="893.82" x2="207.39" y2="902.67" class="up-wick"/>
<rect x="204.98" y="898.25" width="4.83" height="1.00" class="up-body"/>
<line x1="214.82" y1="896.36" x2="214.82" y2="905.59" class="down-wick"/>
<rect x="212.40" y="900.09" width="4.83" height="1.75" class="down-body"/>
<line x1="222.24" y1="904.97" x2="222.24" y2="917.25" class="up-wick"/>
<rect x="219.83" y="904.97" width="4.83" height="3.03" class="up-body"/>
<line x1="229.67" y1="903.01" x2="229.67" y2="921.64" class="down-wick"/>
<rect x="227.26" y="903.98" width="4.83" height="16.06" class="down-body"/>
<line x1="237.10" y1="919.75" x2="237.10" y2="925.67" class="up-wick"/>
<rect x="234.68" y="920.27" width="4.83" height="3.80" class="up-body"/>
<line x1="244.52" y1="896.47" x2="244.52" y2="910.98" class="up-wick"/>
<rect x="242.11" y="898.54" width="4.83" height="7.77" class="up-body"/>
<line x1="251.95" y1="907.85" x2="251.95" y2="917.70" class="down-wick"/>
<rect x="249.53" y="907.93" width="4.83" height="6.50" class="down-body"/>
<line x1="259.38" y1="901.27" x2="259.38" y2="911.80" class="up-wick"/>
<rect x="256.96" y="901.27" width="4.83" height="10.01" class="up-body"/>
<line x1="266.80" y1="901.08" x2="266.80" y2="907.81" class="down-wick"/>
<rect x="264.39" y="904.04" width="4.83" height="2.79" class="down-body"/>
<line x1="274.23" y1="906.06" x2="274.23" y2="910.46" class="down-wick"/>
<rect x="271.81" y="908.13" width="4.83" height="2.28" class="down-body"/>
<line x1="281.65" y1="899.47" x2="281.65" y2="911.85" class="up-wick"/>
<rect x="279.24" y="901.55" width="4.83" height="9.82" class="up-body"/>
<line x1="289.08" y1="907.56" x2="289.08" y2="917.88" class="down-wick"/>
<rect x="286.67" y="907.56" width="4.83" height="8.78" class="down-body"/>
<line x1="296.51" y1="914.66" x2="296.51" y2="921.28" class="up-wick"/>
<rect x="294.09" y="914.84" width="4.83" height="1.47" class="up-body"/>
<line x1="303.93" y1="922.62" x2="303.93" y2="936.41" class="down-wick"/>
<rect x="301.52" y="922.62" width="4.83" height="10.70" class="down-body"/>
<line x1="311.36" y1="928.25" x2="311.36" y2="936.16" class="up-wick"/>
<rect x="308.95" y="928.62" width="4.83" height="3.21" class="up-body"/>
<line x1="318.79" y1="924.84" x2="318.79" y2="931.52" class="up-wick"/>
<rect x="316.37" y="929.68" width="4.83" height="1.00" class="up-body"/>
<line x1="326.21" y1="943.12" x2="326.21" y2="948.42" class="up-wick"/>
<rect x="323.80" y="944.08" width="4.83" height="1.00" class="up-body"/>
<line x1="333.64" y1="943.86" x2="333.64" y2="949.69" class="down-wick"/>
<rect x="331.23" y="944.38" width="4.83" height="4.53" class="down-body"/>
<line x1="341.07" y1="943.07" x2="341.07" y2="948.29" class="up-wick"/>
<rect x="338.65" y="943.19" width="4.83" height="2.12" class="up-body"/>
<line x1="348.49" y1="931.69" x2="348.49" y2="936.86" class="up-wick"/>
<rect x="346.08" y="932.59" width="4.83" height="4.19" class="up-body"/>
<line x1="355.92" y1="943.90" x2="355.92" y2="949.50" class="down-wick"/>
<rect x="353.51" y="943.90" width="4.83" height="5.11" class="down-body"/>
<line x1="363.35" y1="942.10" x2="363.35" y2="947.75" class="up-wick"/>
<rect x="360.93" y="942.70" width="4.83" height="3.65" class="up-body"/>
<line x1="370.77" y1="938.14" x2="370.77" y2="946.60" class="up-wick"/>
<rect x="368.36" y="944.31" width="4.83" height="1.00" class="up-body"/>
<line x1="378.20" y1="944.09" x2="378.20" y2="949.21" class="down-wick"/>
<rect x="375.78" y="944.09" width="4.83" height="3.68" class="down-body"/>
<line x1="385.62" y1="957.17" x2="385.62" y2="966.11" class="up-wick"/>
<rect x="383.21" y="960.45" width="4.83" height="2.71" class="up-body"/>
<line x1="393.05" y1="953.32" x2="393.05" y2="961.35" class="up-wick"/>
<rect x="390.64" y="955.79" width="4.83" height="4.75" class="up-body"/>
<line x1="400.48" y1="949.21" x2="400.48" y2="955.22" class="up-wick"/>
<rect x="398.06" y="951.43" width="4.83" height="2.35" class="up-body"/>
<line x1="407.90" y1="950.27" x2="407.90" y2="960.18" class="up-wick"/>
<rect x="405.49" y="954.43" width="4.83" height="5.30" class="up-body"/>
<line x1="415.33" y1="940.10" x2="415.33" y2="947.00" class="up-wick"/>
<rect x="412.92" y="940.36" width="4.83" height="5.55" class="up-body"/>
<line x1="422.76" y1="948.35" x2="422.76" y2="952.78" class="down-wick"/>
<rect x="420.34" y="949.36" width="4.83" height="2.93" class="down-body"/>
<line x1="430.18" y1="944.83" x2="430.18" y2="949.01" class="up-wick"/>
<rect x="427.77" y="946.21" width="4.83" height="1.73" class="up-body"/>
<line x1="437.61" y1="948.08" x2="437.61" y2="953.08" class="down-wick"/>
<rect x="435.20" y="951.23" width="4.83" height="1.24" class="down-body"/>
<line x1="445.04" y1="964.01" x2="445.04" y2="967.26" class="down-wick"/>
<rect x="442.62" y="964.72" width="4.83" height="1.00" class="down-body"/>
<line x1="452.46" y1="964.12" x2="452.46" y2="973.91" class="down-wick"/>
<rect x="450.05" y="964.19" width="4.83" height="9.48" class="down-body"/>
<line x1="459.89" y1="969.96" x2="459.89" y2="973.22" class="up-wick"/>
<rect x="457.48" y="971.97" width="4.83" height="1.00" class="up-body"/>
<line x1="467.32" y1="962.23" x2="467.32" y2="969.13" class="up-wick"/>
<rect x="464.90" y="963.47" width="4.83" height="2.72" class="up-body"/>
<line x1="474.74" y1="958.57" x2="474.74" y2="966.77" class="down-wick"/>
<rect x="472.33" y="958.70" width="4.83" height="6.33" class="down-body"/>
<line x1="482.17" y1="954.51" x2="482.17" y2="969.12" class="up-wick"/>
<rect x="479.76" y="956.15" width="4.83" height="11.31" class="up-body"/>
<line x1="489.60" y1="958.53" x2="489.60" y2="962.33" class="down-wick"/>
<rect x="487.18" y="959.03" width="4.83" height="2.57" class="down-body"/>
<line x1="497.02" y1="962.59" x2="497.02" y2="969.48" class="up-wick"/>
<rect x="494.61" y="965.89" width="4.83" height="1.00" class="up-body"/>
<line x1="504.45" y1="964.48" x2="504.45" y2="974.86" class="up-wick"/>
<rect x="502.03" y="965.39" width="4.83" height="3.61" class="up-body"/>
<line x1="511.88" y1="967.95" x2="511.88" y2="972.56" class="down-wick"/>
<rect x="509.46" y="968.32" width="4.83" height="1.13" class="down-body"/>
<line x1="519.30" y1="961.23" x2="519.30" y2="970.55" class="up-wick"/>
<rect x="516.89" y="961.87" width="4.83" height="8.40" class="up-body"/>
<line x1="526.73" y1="955.39" x2="526.73" y2="962.51" class="down-wick"/>
<rect x="524.31" y="955.81" width="4.83" height="6.59" class="down-body"/>
<line x1="534.15" y1="960.68" x2="534.15" y2="967.01" class="up-wick"/>
<rect x="531.74" y="961.20" width="4.83" height="5.80" class="up-body"/>
<line x1="541.58" y1="967.59" x2="541.58" y2="976.60" class="down-wick"/>
<rect x="539.17" y="967.83" width="4.83" height="7.47" class="down-body"/>
<line x1="549.01" y1="970.68" x2="549.01" y2="974.38" class="down-wick"/>
<rect x="546.59" y="972.67" width="4.83" height="1.08" class="down-body"/>
<line x1="556.43" y1="973.87" x2="556.43" y2="984.54" class="down-wick"/>
<rect x="554.02" y="976.31" width="4.83" height="8.00" class="down-body"/>
<line x1="563.86" y1="983.94" x2="563.86" y2="988.25" class="up-wick"/>
<rect x="561.45" y="985.51" width="4.83" height="1.00" class="up-body"/>
<line x1="571.29" y1="980.43" x2="571.29" y2="985.36" class="up-wick"/>
<rect x="568.87" y="980.62" width="4.83" height="2.32" class="up-body"/>
<line x1="578.71" y1="973.73" x2="578.71" y2="983.53" class="up-wick"/>
<rect x="576.30" y="976.22" width="4.83" height="7.30" class="up-body"/>
<line x1="586.14" y1="971.40" x2="586.14" y2="974.88" class="down-wick"/>
<rect x="583.73" y="971.86" width="4.83" height="1.00" class="down-body"/>
<line x1="593.57" y1="969.76" x2="593.57" y2="973.75" class="down-wick"/>
<rect x="591.15" y="969.93" width="4.83" height="1.00" class="down-body"/>
<line x1="600.99" y1="960.22" x2="600.99" y2="966.73" class="down-wick"/>
<rect x="598.58" y="962.28" width="4.83" height="4.45" class="down-body"/>
<line x1="608.42" y1="966.73" x2="608.42" y2="970.89" class="down-wick"/>
<rect x="606.01" y="966.89" width="4.83" height="3.93" class="down-body"/>
<line x1="615.85" y1="968.61" x2="615.85" y2="971.10" class="down-wick"/>
<rect x="613.43" y="969.95" width="4.83" height="1.00" class="down-body"/>
<line x1="623.27" y1="968.14" x2="623.27" y2="973.38" class="up-wick"/>
<rect x="620.86" y="968.65" width="4.83" height="4.19" class="up-body"/>
<line x1="630.70" y1="949.19" x2="630.70" y2="968.36" class="up-wick"/>
<rect x="628.28" y="951.19" width="4.83" height="17.17" class="up-body"/>
<line x1="638.12" y1="954.57" x2="638.12" y2="961.22" class="down-wick"/>
<rect x="635.71" y="956.36" width="4.83" height="4.25" class="down-body"/>
<line x1="645.55" y1="954.76" x2="645.55" y2="959.35" class="down-wick"/>
<rect x="643.14" y="957.42" width="4.83" height="1.00" class="down-body"/>
<line x1="652.98" y1="949.37" x2="652.98" y2="956.71" class="up-wick"/>
<rect x="650.56" y="949.58" width="4.83" height="5.81" class="up-body"/>
<line x1="660.40" y1="948.91" x2="660.40" y2="953.57" class="down-wick"/>
<rect x="657.99" y="951.75" width="4.83" height="1.04" class="down-body"/>
<line x1="667.83" y1="949.51" x2="667.83" y2="952.31" class="down-wick"/>
<rect x="665.42" y="950.31" width="4.83" height="1.97" class="down-body"/>
<line x1="675.26" y1="951.00" x2="675.26" y2="956.40" class="down-wick"/>
<rect x="672.84" y="952.35" width="4.83" height="3.95" class="down-body"/>
<line x1="682.68" y1="954.15" x2="682.68" y2="958.36" class="down-wick"/>
<rect x="680.27" y="955.11" width="4.83" height="1.03" class="down-body"/>
<line x1="690.11" y1="950.56" x2="690.11" y2="958.14" class="up-wick"/>
<rect x="687.70" y="950.56" width="4.83" height="7.03" class="up-body"/>
<line x1="697.54" y1="949.81" x2="697.54" y2="954.97" class="down-wick"/>
<rect x="695.12" y="949.83" width="4.83" height="2.10" class="down-body"/>
<line x1="704.96" y1="950.20" x2="704.96" y2="953.04" class="down-wick"/>
<rect x="702.55" y="950.58" width="4.83" height="1.83" class="down-body"/>
<line x1="712.39" y1="951.20" x2="712.39" y2="953.51" class="up-wick"/>
<rect x="709.98" y="951.51" width="4.83" height="1.35" class="up-body"/>
<line x1="719.82" y1="949.04" x2="719.82" y2="951.22" class="up-wick"/>
<rect x="717.40" y="949.06" width="4.83" height="2.00" class="up-body"/>
<line x1="727.24" y1="948.32" x2="727.24" y2="949.45" class="down-wick"/>
<rect x="724.83" y="948.92" width="4.83" height="1.00" class="down-body"/>
<line x1="734.67" y1="949.08" x2="734.67" y2="951.28" class="up-wick"/>
<rect x="732.26" y="949.85" width="4.83" height="1.18" class="up-body"/>
<line x1="742.10" y1="950.76" x2="742.10" y2="959.63" class="down-wick"/>
<rect x="739.68" y="950.76" width="4.83" height="5.50" class="down-body"/>
<line x1="749.52" y1="952.24" x2="749.52" y2="953.77" class="up-wick"/>
<rect x="747.11" y="952.37" width="4.83" height="1.35" class="up-body"/>
<line x1="756.95" y1="953.05" x2="756.95" y2="960.13" class="up-wick"/>
<rect x="754.53" y="953.50" width="4.83" height="5.96" class="up-body"/>
<line x1="764.38" y1="936.06" x2="764.38" y2="952.12" class="up-wick"/>
<rect x="761.96" y="943.85" width="4.83" height="7.72" class="up-body"/>
<line x1="771.80" y1="943.89" x2="771.80" y2="950.25" class="up-wick"/>
<rect x="769.39" y="943.98" width="4.83" height="3.00" class="up-body"/>
<line x1="779.23" y1="943.79" x2="779.23" y2="949.14" class="down-wick"/>
<rect x="776.81" y="944.89" width="4.83" height="2.52" class="down-body"/>
<line x1="786.65" y1="945.46" x2="786.65" y2="947.92" class="up-wick"/>
<rect x="784.24" y="946.04" width="4.83" height="1.00" class="up-body"/>
<line x1="794.08" y1="940.34" x2="794.08" y2="945.44" class="down-wick"/>
<rect x="791.67" y="942.34" width="4.83" height="1.00" class="down-body"/>
<line x1="801.51" y1="941.97" x2="801.51" y2="946.44" class="down-wick"/>
<rect x="799.09" y="942.36" width="4.83" height="2.50" class="down-body"/>
<line x1="808.93" y1="947.38" x2="808.93" y2="951.30" class="down-wick"/>
<rect x="806.52" y="948.73" width="4.83" height="1.11" class="down-body"/>
<line x1="816.36" y1="950.07" x2="816.36" y2="957.15" class="down-wick"/>
<rect x="813.95" y="950.10" width="4.83" height="6.50" class="down-body"/>
<line x1="823.79" y1="954.63" x2="823.79" y2="966.63" class="down-wick"/>
<rect x="821.37" y="954.85" width="4.83" height="10.87" class="down-body"/>
<line x1="831.21" y1="965.80" x2="831.21" y2="971.24" class="down-wick"/>
<rect x="828.80" y="965.80" width="4.83" height="1.02" class="down-body"/>
<line x1="838.64" y1="956.11" x2="838.64" y2="967.66" class="up-wick"/>
<rect x="836.23" y="956.94" width="4.83" height="10.73" class="up-body"/>
<line x1="846.07" y1="957.76" x2="846.07" y2="960.96" class="up-wick"/>
<rect x="843.65" y="958.19" width="4.83" height="1.00" class="up-body"/>
<line x1="853.49" y1="949.58" x2="853.49" y2="953.70" class="up-wick"/>
<rect x="851.08" y="951.36" width="4.83" height="1.00" class="up-body"/>
<line x1="860.92" y1="937.92" x2="860.92" y2="943.89" class="up-wick"/>
<rect x="858.51" y="941.84" width="4.83" height="2.04" class="up-body"/>
<line x1="868.35" y1="942.21" x2="868.35" y2="947.09" class="down-wick"/>
<rect x="865.93" y="942.48" width="4.83" height="3.72" class="down-body"/>
<line x1="875.77" y1="942.90" x2="875.77" y2="945.38" class="up-wick"/>
<rect x="873.36" y="943.29" width="4.83" height="1.00" class="up-body"/>
<line x1="883.20" y1="938.61" x2="883.20" y2="946.68" class="down-wick"/>
<rect x="880.78" y="938.61" width="4.83" height="7.46" class="down-body"/>
<line x1="890.62" y1="941.62" x2="890.62" y2="946.35" class="down-wick"/>
<rect x="888.21" y="944.01" width="4.83" height="1.65" class="down-body"/>
<line x1="898.05" y1="942.60" x2="898.05" y2="944.71" class="up-wick"/>
<rect x="895.64" y="942.67" width="4.83" height="1.42" class="up-body"/>
<line x1="905.48" y1="945.95" x2="905.48" y2="949.66" class="up-wick"/>
<rect x="903.06" y="946.22" width="4.83" height="2.04" class="up-body"/>
<line x1="912.90" y1="944.57" x2="912.90" y2="949.94" class="up-wick"/>
<rect x="910.49" y="945.04" width="4.83" height="4.90" class="up-body"/>
<line x1="920.33" y1="949.23" x2="920.33" y2="953.76" class="down-wick"/>
<rect x="917.92" y="950.59" width="4.83" height="2.93" class="down-body"/>
<line x1="927.76" y1="950.77" x2="927.76" y2="956.36" class="down-wick"/>
<rect x="925.34" y="950.77" width="4.83" height="3.80" class="down-body"/>
<line x1="935.18" y1="956.61" x2="935.18" y2="961.86" class="down-wick"/>
<rect x="932.77" y="957.82" width="4.83" height="3.31" class="down-body"/>
<line x1="942.61" y1="961.74" x2="942.61" y2="966.84" class="down-wick"/>
<rect x="940.20" y="961.77" width="4.83" height="4.87" class="down-body"/>
<line x1="950.04" y1="963.59" x2="950.04" y2="967.98" class="down-wick"/>
<rect x="947.62" y="964.60" width="4.83" height="3.01" class="down-body"/>
<line x1="957.46" y1="961.28" x2="957.46" y2="966.70" class="up-wick"/>
<rect x="955.05" y="963.06" width="4.83" height="3.40" class="up-body"/>
<line x1="964.89" y1="964.74" x2="964.89" y2="993.66" class="down-wick"/>
<rect x="962.48" y="964.74" width="4.83" height="27.55" class="down-body"/>
<line x1="972.32" y1="992.87" x2="972.32" y2="999.53" class="up-wick"/>
<rect x="969.90" y="996.48" width="4.83" height="1.09" class="up-body"/>
<line x1="979.74" y1="984.18" x2="979.74" y2="1003.40" class="up-wick"/>
<rect x="977.33" y="990.61" width="4.83" height="12.38" class="up-body"/>
<line x1="987.17" y1="983.77" x2="987.17" y2="994.64" class="up-wick"/>
<rect x="984.76" y="986.60" width="4.83" height="2.47" class="up-body"/>
<line x1="994.60" y1="982.54" x2="994.60" y2="999.03" class="down-wick"/>
<rect x="992.18" y="985.42" width="4.83" height="11.12" class="down-body"/>
<line x1="1002.02" y1="997.83" x2="1002.02" y2="1005.14" class="down-wick"/>
<rect x="999.61" y="997.83" width="4.83" height="4.62" class="down-body"/>
<line x1="1009.45" y1="994.87" x2="1009.45" y2="1000.11" class="down-wick"/>
<rect x="1007.03" y="997.04" width="4.83" height="3.07" class="down-body"/>
<line x1="1016.88" y1="995.37" x2="1016.88" y2="1004.64" class="down-wick"/>
<rect x="1014.46" y="1002.53" width="4.83" height="1.00" class="down-body"/>
<line x1="1024.30" y1="1003.09" x2="1024.30" y2="1005.59" class="up-wick"/>
<rect x="1021.89" y="1004.32" width="4.83" height="1.00" class="up-body"/>
<line x1="1031.73" y1="998.12" x2="1031.73" y2="1005.54" class="up-wick"/>
<rect x="1029.31" y="998.64" width="4.83" height="5.12" class="up-body"/>
<line x1="1039.15" y1="1000.53" x2="1039.15" y2="1005.94" class="up-wick"/>
<rect x="1036.74" y="1004.11" width="4.83" height="1.00" class="up-body"/>
<line x1="1046.58" y1="1010.84" x2="1046.58" y2="1020.12" class="down-wick"/>
<rect x="1044.17" y="1011.20" width="4.83" height="8.79" class="down-body"/>
<line x1="1054.01" y1="1016.12" x2="1054.01" y2="1023.44" class="down-wick"/>
<rect x="1051.59" y="1020.04" width="4.83" height="3.36" class="down-body"/>
<line x1="1061.43" y1="1004.91" x2="1061.43" y2="1013.22" class="up-wick"/>
<rect x="1059.02" y="1005.94" width="4.83" height="7.29" class="up-body"/>
<line x1="1068.86" y1="1005.08" x2="1068.86" y2="1015.25" class="down-wick"/>
<rect x="1066.45" y="1005.08" width="4.83" height="9.40" class="down-body"/>
<line x1="1076.29" y1="1016.10" x2="1076.29" y2="1024.76" class="down-wick"/>
<rect x="1073.87" y="1016.14" width="4.83" height="7.90" class="down-body"/>
<line x1="70" y1="971.60" x2="1080" y2="971.60" class="number-line"/>
<text x="1076" y="967.60" text-anchor="end" class="level-label">round 4350.00</text>
<line x1="70" y1="971.60" x2="1080" y2="971.60" class="entry-line"/>
<text x="1076" y="967.60" text-anchor="end" class="level-label">entry level 4350.00</text>
<text x="70" y="1056" class="axis-label">2026-03-23 03:30:00+00:00 to 2026-03-23 08:00:00+00:00</text>
<text x="1080" y="1056" text-anchor="end" class="axis-label">4290.88 - 4461.84</text>
</svg>