<svg xmlns="http://www.w3.org/2000/svg" width="1120" height="1054" viewBox="0 0 1120 1054">
<style>
text{font-family:Arial,Helvetica,sans-serif}.title{font-size:21px;font-weight:700;fill:#1f2937}.subtitle{font-size:12px;fill:#4b5563}.panel-title{font-size:15px;font-weight:700;fill:#111827}.muted{font-size:13px;fill:#6b7280}.plot-bg{fill:#f8fafc;stroke:#cbd5e1;stroke-width:1}.up-body{fill:#15803d;stroke:#14532d;stroke-width:.8}.down-body{fill:#b91c1c;stroke:#7f1d1d;stroke-width:.8}.up-wick{stroke:#14532d;stroke-width:1}.down-wick{stroke:#7f1d1d;stroke-width:1}.sweep-line{stroke:#7c3aed;stroke-width:1.6;stroke-dasharray:6 4}.number-line{stroke:#0f766e;stroke-width:1.4;stroke-dasharray:3 4}.entry-line{stroke:#2563eb;stroke-width:1.4}.sl-line{stroke:#dc2626;stroke-width:1.4}.tp-line{stroke:#16a34a;stroke-width:1.4}.level-label,.axis-label{font-size:11px;fill:#374151}
</style>
<text x="28" y="28" class="title">Adelin v2 visual review sample sample_251</text>
<text x="28" y="48" class="subtitle">Candidate windows are for visual labeling only and are not trade signals.</text>
<text x="560" y="48" class="subtitle" text-anchor="middle">NUMBER_THEORY_LEVEL_NEAR | LARGE_LOWER_WICK_REVERSAL_VISUAL_CANDIDATE | NEW_YORK_OPEN_CONTEXT | ROUND_LEVEL_ENTRY_METADATA_AVAILABLE</text>
<text x="70" y="82" class="panel-title">H1 liquidity context</text>
<rect x="70" y="96" width="1010" height="192" class="plot-bg"/>
<line x1="80.98" y1="236.99" x2="80.98" y2="256.32" class="up-wick"/>
<rect x="76.98" y="240.28" width="8.00" height="11.69" class="up-body"/>
<line x1="102.93" y1="229.53" x2="102.93" y2="244.35" class="up-wick"/>
<rect x="98.93" y="233.41" width="8.00" height="6.87" class="up-body"/>
<line x1="124.89" y1="227.18" x2="124.89" y2="274.76" class="down-wick"/>
<rect x="120.89" y="233.42" width="8.00" height="7.41" class="down-body"/>
<line x1="146.85" y1="224.02" x2="146.85" y2="243.31" class="up-wick"/>
<rect x="142.85" y="225.61" width="8.00" height="15.22" class="up-body"/>
<line x1="168.80" y1="219.44" x2="168.80" y2="233.28" class="up-wick"/>
<rect x="164.80" y="221.62" width="8.00" height="3.99" class="up-body"/>
<line x1="190.76" y1="220.28" x2="190.76" y2="233.67" class="down-wick"/>
<rect x="186.76" y="221.63" width="8.00" height="1.00" class="down-body"/>
<line x1="212.72" y1="217.23" x2="212.72" y2="224.31" class="up-wick"/>
<rect x="208.72" y="217.47" width="8.00" height="5.12" class="up-body"/>
<line x1="234.67" y1="205.62" x2="234.67" y2="219.18" class="up-wick"/>
<rect x="230.67" y="206.47" width="8.00" height="11.00" class="up-body"/>
<line x1="256.63" y1="199.46" x2="256.63" y2="209.77" class="up-wick"/>
<rect x="252.63" y="199.91" width="8.00" height="6.55" class="up-body"/>
<line x1="278.59" y1="158.75" x2="278.59" y2="202.75" class="up-wick"/>
<rect x="274.59" y="162.88" width="8.00" height="35.51" class="up-body"/>
<line x1="300.54" y1="162.04" x2="300.54" y2="185.64" class="down-wick"/>
<rect x="296.54" y="162.88" width="8.00" height="13.18" class="down-body"/>
<line x1="322.50" y1="161.35" x2="322.50" y2="178.95" class="up-wick"/>
<rect x="318.50" y="167.86" width="8.00" height="8.21" class="up-body"/>
<line x1="344.46" y1="155.62" x2="344.46" y2="168.33" class="up-wick"/>
<rect x="340.46" y="157.52" width="8.00" height="10.36" class="up-body"/>
<line x1="366.41" y1="156.14" x2="366.41" y2="171.44" class="down-wick"/>
<rect x="362.41" y="157.50" width="8.00" height="4.49" class="down-body"/>
<line x1="388.37" y1="160.67" x2="388.37" y2="169.13" class="down-wick"/>
<rect x="384.37" y="161.99" width="8.00" height="3.79" class="down-body"/>
<line x1="410.33" y1="165.15" x2="410.33" y2="171.24" class="down-wick"/>
<rect x="406.33" y="165.76" width="8.00" height="1.58" class="down-body"/>
<line x1="432.28" y1="165.22" x2="432.28" y2="175.79" class="down-wick"/>
<rect x="428.28" y="167.35" width="8.00" height="7.97" class="down-body"/>
<line x1="454.24" y1="169.95" x2="454.24" y2="188.56" class="down-wick"/>
<rect x="450.24" y="175.32" width="8.00" height="5.75" class="down-body"/>
<line x1="476.20" y1="177.58" x2="476.20" y2="190.25" class="up-wick"/>
<rect x="472.20" y="178.77" width="8.00" height="2.30" class="up-body"/>
<line x1="498.15" y1="172.55" x2="498.15" y2="179.55" class="up-wick"/>
<rect x="494.15" y="172.94" width="8.00" height="5.86" class="up-body"/>
<line x1="520.11" y1="163.98" x2="520.11" y2="175.77" class="up-wick"/>
<rect x="516.11" y="164.44" width="8.00" height="8.49" class="up-body"/>
<line x1="542.07" y1="164.08" x2="542.07" y2="174.87" class="down-wick"/>
<rect x="538.07" y="164.44" width="8.00" height="8.35" class="down-body"/>
<line x1="564.02" y1="162.79" x2="564.02" y2="175.50" class="up-wick"/>
<rect x="560.02" y="163.67" width="8.00" height="9.12" class="up-body"/>
<line x1="585.98" y1="162.89" x2="585.98" y2="176.62" class="down-wick"/>
<rect x="581.98" y="163.67" width="8.00" height="11.29" class="down-body"/>
<line x1="607.93" y1="140.56" x2="607.93" y2="178.11" class="up-wick"/>
<rect x="603.93" y="145.57" width="8.00" height="29.39" class="up-body"/>
<line x1="629.89" y1="137.68" x2="629.89" y2="153.07" class="up-wick"/>
<rect x="625.89" y="143.27" width="8.00" height="2.29" class="up-body"/>
<line x1="651.85" y1="128.74" x2="651.85" y2="156.16" class="up-wick"/>
<rect x="647.85" y="134.47" width="8.00" height="8.86" class="up-body"/>
<line x1="673.80" y1="132.22" x2="673.80" y2="146.60" class="down-wick"/>
<rect x="669.80" y="134.47" width="8.00" height="1.37" class="down-body"/>
<line x1="695.76" y1="130.77" x2="695.76" y2="140.16" class="up-wick"/>
<rect x="691.76" y="134.77" width="8.00" height="1.06" class="up-body"/>
<line x1="717.72" y1="129.20" x2="717.72" y2="136.65" class="up-wick"/>
<rect x="713.72" y="130.89" width="8.00" height="3.88" class="up-body"/>
<line x1="739.67" y1="116.74" x2="739.67" y2="131.38" class="up-wick"/>
<rect x="735.67" y="117.76" width="8.00" height="13.16" class="up-body"/>
<line x1="761.63" y1="116.88" x2="761.63" y2="123.96" class="down-wick"/>
<rect x="757.63" y="117.78" width="8.00" height="5.30" class="down-body"/>
<line x1="783.59" y1="109.24" x2="783.59" y2="126.69" class="up-wick"/>
<rect x="779.59" y="118.12" width="8.00" height="4.95" class="up-body"/>
<line x1="805.54" y1="116.58" x2="805.54" y2="129.32" class="down-wick"/>
<rect x="801.54" y="118.17" width="8.00" height="7.53" class="down-body"/>
<line x1="827.50" y1="125.55" x2="827.50" y2="175.68" class="down-wick"/>
<rect x="823.50" y="125.70" width="8.00" height="29.52" class="down-body"/>
<line x1="849.46" y1="146.70" x2="849.46" y2="162.72" class="up-wick"/>
<rect x="845.46" y="147.31" width="8.00" height="7.91" class="up-body"/>
<line x1="871.41" y1="146.01" x2="871.41" y2="159.22" class="down-wick"/>
<rect x="867.41" y="147.31" width="8.00" height="11.35" class="down-body"/>
<line x1="893.37" y1="156.69" x2="893.37" y2="165.76" class="down-wick"/>
<rect x="889.37" y="158.67" width="8.00" height="2.38" class="down-body"/>
<line x1="915.33" y1="149.88" x2="915.33" y2="163.74" class="up-wick"/>
<rect x="911.33" y="151.87" width="8.00" height="9.18" class="up-body"/>
<line x1="937.28" y1="150.48" x2="937.28" y2="168.58" class="down-wick"/>
<rect x="933.28" y="151.87" width="8.00" height="5.80" class="down-body"/>
<line x1="959.24" y1="151.01" x2="959.24" y2="163.60" class="up-wick"/>
<rect x="955.24" y="153.97" width="8.00" height="3.69" class="up-body"/>
<line x1="981.20" y1="152.34" x2="981.20" y2="163.09" class="down-wick"/>
<rect x="977.20" y="153.97" width="8.00" height="3.78" class="down-body"/>
<line x1="1003.15" y1="153.23" x2="1003.15" y2="162.19" class="down-wick"/>
<rect x="999.15" y="157.75" width="8.00" height="1.24" class="down-body"/>
<line x1="1025.11" y1="152.66" x2="1025.11" y2="164.24" class="up-wick"/>
<rect x="1021.11" y="158.13" width="8.00" height="1.00" class="up-body"/>
<line x1="1047.07" y1="154.47" x2="1047.07" y2="159.33" class="down-wick"/>
<rect x="1043.07" y="158.13" width="8.00" height="1.00" class="down-body"/>
<line x1="1069.02" y1="157.67" x2="1069.02" y2="175.74" class="down-wick"/>
<rect x="1065.02" y="158.16" width="8.00" height="14.13" class="down-body"/>
<line x1="70" y1="172.66" x2="1080" y2="172.66" class="number-line"/>
<text x="1076" y="168.66" text-anchor="end" class="level-label">round 5150.00</text>
<line x1="70" y1="172.66" x2="1080" y2="172.66" class="entry-line"/>
<text x="1076" y="168.66" text-anchor="end" class="level-label">entry level 5150.00</text>
<text x="70" y="306" class="axis-label">2026-02-20 15:00:00+00:00 to 2026-02-24 14:00:00+00:00</text>
<text x="1080" y="306" text-anchor="end" class="axis-label">4968.57 - 5270.59</text>
<text x="70" y="332" class="panel-title">M15 liquidity / reaction context</text>
<rect x="70" y="346" width="1010" height="192" class="plot-bg"/>
<line x1="76.92" y1="471.39" x2="76.92" y2="512.36" class="up-wick"/>
<rect x="72.92" y="471.78" width="8.00" height="25.59" class="up-body"/>
<line x1="90.75" y1="458.63" x2="90.75" y2="495.34" class="down-wick"/>
<rect x="86.75" y="471.61" width="8.00" height="21.49" class="down-body"/>
<line x1="104.59" y1="483.48" x2="104.59" y2="502.83" class="up-wick"/>
<rect x="100.59" y="486.58" width="8.00" height="6.52" class="up-body"/>
<line x1="118.42" y1="463.50" x2="118.42" y2="494.36" class="up-wick"/>
<rect x="114.42" y="481.55" width="8.00" height="5.05" class="up-body"/>
<line x1="132.26" y1="461.12" x2="132.26" y2="483.57" class="up-wick"/>
<rect x="128.26" y="461.64" width="8.00" height="19.93" class="up-body"/>
<line x1="146.10" y1="448.96" x2="146.10" y2="468.09" class="up-wick"/>
<rect x="142.10" y="449.87" width="8.00" height="11.79" class="up-body"/>
<line x1="159.93" y1="446.99" x2="159.93" y2="466.84" class="down-wick"/>
<rect x="155.93" y="449.87" width="8.00" height="14.63" class="down-body"/>
<line x1="173.77" y1="448.18" x2="173.77" y2="465.78" class="up-wick"/>
<rect x="169.77" y="459.29" width="8.00" height="5.25" class="up-body"/>
<line x1="187.60" y1="447.76" x2="187.60" y2="464.48" class="up-wick"/>
<rect x="183.60" y="458.20" width="8.00" height="1.09" class="up-body"/>
<line x1="201.44" y1="431.57" x2="201.44" y2="458.42" class="up-wick"/>
<rect x="197.44" y="435.52" width="8.00" height="22.72" class="up-body"/>
<line x1="215.27" y1="431.92" x2="215.27" y2="453.80" class="down-wick"/>
<rect x="211.27" y="435.52" width="8.00" height="1.16" class="down-body"/>
<line x1="229.11" y1="432.97" x2="229.11" y2="474.14" class="down-wick"/>
<rect x="225.11" y="436.63" width="8.00" height="26.82" class="down-body"/>
<line x1="242.95" y1="452.35" x2="242.95" y2="471.23" class="up-wick"/>
<rect x="238.95" y="453.07" width="8.00" height="10.38" class="up-body"/>
<line x1="256.78" y1="441.81" x2="256.78" y2="453.05" class="up-wick"/>
<rect x="252.78" y="445.35" width="8.00" height="7.70" class="up-body"/>
<line x1="270.62" y1="441.01" x2="270.62" y2="449.17" class="down-wick"/>
<rect x="266.62" y="445.37" width="8.00" height="3.34" class="down-body"/>
<line x1="284.45" y1="445.15" x2="284.45" y2="467.93" class="down-wick"/>
<rect x="280.45" y="448.71" width="8.00" height="7.53" class="down-body"/>
<line x1="298.29" y1="452.18" x2="298.29" y2="461.83" class="down-wick"/>
<rect x="294.29" y="456.23" width="8.00" height="3.59" class="down-body"/>
<line x1="312.12" y1="453.87" x2="312.12" y2="467.20" class="down-wick"/>
<rect x="308.12" y="459.82" width="8.00" height="1.39" class="down-body"/>
<line x1="325.96" y1="457.26" x2="325.96" y2="463.62" class="up-wick"/>
<rect x="321.96" y="458.90" width="8.00" height="2.31" class="up-body"/>
<line x1="339.79" y1="457.21" x2="339.79" y2="473.61" class="down-wick"/>
<rect x="335.79" y="458.87" width="8.00" height="4.16" class="down-body"/>
<line x1="353.63" y1="461.24" x2="353.63" y2="472.21" class="down-wick"/>
<rect x="349.63" y="463.02" width="8.00" height="1.00" class="down-body"/>
<line x1="367.47" y1="463.67" x2="367.47" y2="471.39" class="down-wick"/>
<rect x="363.47" y="463.95" width="8.00" height="1.49" class="down-body"/>
<line x1="381.30" y1="460.56" x2="381.30" y2="466.91" class="up-wick"/>
<rect x="377.30" y="463.11" width="8.00" height="2.33" class="up-body"/>
<line x1="395.14" y1="458.54" x2="395.14" y2="464.80" class="up-wick"/>
<rect x="391.14" y="461.19" width="8.00" height="1.93" class="up-body"/>
<line x1="408.97" y1="457.40" x2="408.97" y2="473.27" class="down-wick"/>
<rect x="404.97" y="461.21" width="8.00" height="11.46" class="down-body"/>
<line x1="422.81" y1="465.16" x2="422.81" y2="482.76" class="down-wick"/>
<rect x="418.81" y="472.64" width="8.00" height="7.54" class="down-body"/>
<line x1="436.64" y1="471.76" x2="436.64" y2="485.84" class="down-wick"/>
<rect x="432.64" y="480.11" width="8.00" height="4.46" class="down-body"/>
<line x1="450.48" y1="470.12" x2="450.48" y2="497.75" class="up-wick"/>
<rect x="446.48" y="482.59" width="8.00" height="1.98" class="up-body"/>
<line x1="464.32" y1="478.50" x2="464.32" y2="519.87" class="down-wick"/>
<rect x="460.32" y="482.59" width="8.00" height="17.89" class="down-body"/>
<line x1="478.15" y1="499.15" x2="478.15" y2="520.21" class="up-wick"/>
<rect x="474.15" y="500.02" width="8.00" height="1.00" class="up-body"/>
<line x1="491.99" y1="495.63" x2="491.99" y2="503.29" class="down-wick"/>
<rect x="487.99" y="500.02" width="8.00" height="1.00" class="down-body"/>
<line x1="505.82" y1="495.08" x2="505.82" y2="509.64" class="up-wick"/>
<rect x="501.82" y="497.39" width="8.00" height="2.67" class="up-body"/>
<line x1="519.66" y1="495.05" x2="519.66" y2="524.67" class="down-wick"/>
<rect x="515.66" y="497.39" width="8.00" height="22.05" class="down-body"/>
<line x1="533.49" y1="507.45" x2="533.49" y2="524.76" class="up-wick"/>
<rect x="529.49" y="514.87" width="8.00" height="4.62" class="up-body"/>
<line x1="547.33" y1="490.67" x2="547.33" y2="515.50" class="up-wick"/>
<rect x="543.33" y="493.87" width="8.00" height="21.01" class="up-body"/>
<line x1="561.16" y1="482.64" x2="561.16" y2="495.95" class="up-wick"/>
<rect x="557.16" y="484.32" width="8.00" height="9.61" class="up-body"/>
<line x1="575.00" y1="478.08" x2="575.00" y2="486.13" class="up-wick"/>
<rect x="571.00" y="478.76" width="8.00" height="5.54" class="up-body"/>
<line x1="588.84" y1="477.14" x2="588.84" y2="488.84" class="down-wick"/>
<rect x="584.84" y="478.76" width="8.00" height="4.05" class="down-body"/>
<line x1="602.67" y1="477.73" x2="602.67" y2="487.06" class="up-wick"/>
<rect x="598.67" y="478.18" width="8.00" height="4.64" class="up-body"/>
<line x1="616.51" y1="471.97" x2="616.51" y2="483.46" class="up-wick"/>
<rect x="612.51" y="478.04" width="8.00" height="1.00" class="up-body"/>
<line x1="630.34" y1="466.07" x2="630.34" y2="478.49" class="up-wick"/>
<rect x="626.34" y="466.89" width="8.00" height="11.15" class="up-body"/>
<line x1="644.18" y1="464.24" x2="644.18" y2="485.79" class="down-wick"/>
<rect x="640.18" y="467.11" width="8.00" height="6.11" class="down-body"/>
<line x1="658.01" y1="454.08" x2="658.01" y2="473.85" class="up-wick"/>
<rect x="654.01" y="455.31" width="8.00" height="17.91" class="up-body"/>
<line x1="671.85" y1="454.33" x2="671.85" y2="472.28" class="down-wick"/>
<rect x="667.85" y="455.31" width="8.00" height="16.34" class="down-body"/>
<line x1="685.68" y1="469.69" x2="685.68" y2="483.36" class="down-wick"/>
<rect x="681.68" y="471.56" width="8.00" height="4.67" class="down-body"/>
<line x1="699.52" y1="470.93" x2="699.52" y2="481.04" class="up-wick"/>
<rect x="695.52" y="475.51" width="8.00" height="1.00" class="up-body"/>
<line x1="713.36" y1="469.47" x2="713.36" y2="478.30" class="down-wick"/>
<rect x="709.36" y="475.49" width="8.00" height="2.28" class="down-body"/>
<line x1="727.19" y1="469.44" x2="727.19" y2="482.49" class="down-wick"/>
<rect x="723.19" y="477.77" width="8.00" height="1.00" class="down-body"/>
<line x1="741.03" y1="473.29" x2="741.03" y2="485.06" class="up-wick"/>
<rect x="737.03" y="477.17" width="8.00" height="1.00" class="up-body"/>
<line x1="754.86" y1="452.37" x2="754.86" y2="477.77" class="up-wick"/>
<rect x="750.86" y="452.64" width="8.00" height="24.53" class="up-body"/>
<line x1="768.70" y1="450.88" x2="768.70" y2="460.88" class="down-wick"/>
<rect x="764.70" y="452.64" width="8.00" height="1.00" class="down-body"/>
<line x1="782.53" y1="451.13" x2="782.53" y2="471.90" class="down-wick"/>
<rect x="778.53" y="453.22" width="8.00" height="15.60" class="down-body"/>
<line x1="796.37" y1="465.91" x2="796.37" y2="488.07" class="down-wick"/>
<rect x="792.37" y="468.77" width="8.00" height="8.93" class="down-body"/>
<line x1="810.21" y1="470.43" x2="810.21" y2="481.94" class="up-wick"/>
<rect x="806.21" y="472.43" width="8.00" height="5.27" class="up-body"/>
<line x1="824.04" y1="471.64" x2="824.04" y2="484.99" class="down-wick"/>
<rect x="820.04" y="472.48" width="8.00" height="11.12" class="down-body"/>
<line x1="837.88" y1="465.13" x2="837.88" y2="492.09" class="up-wick"/>
<rect x="833.88" y="465.40" width="8.00" height="18.20" class="up-body"/>
<line x1="851.71" y1="450.86" x2="851.71" y2="467.09" class="up-wick"/>
<rect x="847.71" y="451.05" width="8.00" height="14.35" class="up-body"/>
<line x1="865.55" y1="407.24" x2="865.55" y2="452.01" class="up-wick"/>
<rect x="861.55" y="407.51" width="8.00" height="43.53" class="up-body"/>
<line x1="879.38" y1="391.06" x2="879.38" y2="413.35" class="up-wick"/>
<rect x="875.38" y="404.52" width="8.00" height="2.99" class="up-body"/>
<line x1="893.22" y1="393.18" x2="893.22" y2="424.72" class="up-wick"/>
<rect x="889.22" y="393.45" width="8.00" height="11.07" class="up-body"/>
<line x1="907.05" y1="385.50" x2="907.05" y2="406.44" class="down-wick"/>
<rect x="903.05" y="393.45" width="8.00" height="2.29" class="down-body"/>
<line x1="920.89" y1="386.80" x2="920.89" y2="415.19" class="up-wick"/>
<rect x="916.89" y="389.69" width="8.00" height="6.11" class="up-body"/>
<line x1="934.73" y1="383.29" x2="934.73" y2="408.06" class="down-wick"/>
<rect x="930.73" y="389.69" width="8.00" height="8.66" class="down-body"/>
<line x1="948.56" y1="384.15" x2="948.56" y2="433.02" class="up-wick"/>
<rect x="944.56" y="387.50" width="8.00" height="11.00" class="up-body"/>
<line x1="962.40" y1="359.24" x2="962.40" y2="389.38" class="up-wick"/>
<rect x="958.40" y="367.01" width="8.00" height="20.42" class="up-body"/>
<line x1="976.23" y1="364.97" x2="976.23" y2="380.47" class="down-wick"/>
<rect x="972.23" y="366.85" width="8.00" height="8.36" class="down-body"/>
<line x1="990.07" y1="361.26" x2="990.07" y2="380.71" class="up-wick"/>
<rect x="986.07" y="374.65" width="8.00" height="1.00" class="up-body"/>
<line x1="1003.90" y1="368.62" x2="1003.90" y2="392.46" class="down-wick"/>
<rect x="999.90" y="374.65" width="8.00" height="10.76" class="down-body"/>
<line x1="1017.74" y1="370.33" x2="1017.74" y2="387.35" class="up-wick"/>
<rect x="1013.74" y="374.33" width="8.00" height="11.07" class="up-body"/>
<line x1="1031.58" y1="372.79" x2="1031.58" y2="407.29" class="down-wick"/>
<rect x="1027.58" y="374.33" width="8.00" height="18.08" class="down-body"/>
<line x1="1045.41" y1="378.01" x2="1045.41" y2="397.75" class="up-wick"/>
<rect x="1041.41" y="378.33" width="8.00" height="14.08" class="up-body"/>
<line x1="1059.25" y1="364.72" x2="1059.25" y2="379.65" class="up-wick"/>
<rect x="1055.25" y="370.34" width="8.00" height="7.97" class="up-body"/>
<line x1="1073.08" y1="369.08" x2="1073.08" y2="389.96" class="down-wick"/>
<rect x="1069.08" y="370.34" width="8.00" height="10.98" class="down-body"/>
<line x1="70" y1="477.43" x2="1080" y2="477.43" class="number-line"/>
<text x="1076" y="473.43" text-anchor="end" class="level-label">round 5150.00</text>
<line x1="70" y1="477.43" x2="1080" y2="477.43" class="entry-line"/>
<text x="1076" y="473.43" text-anchor="end" class="level-label">entry level 5150.00</text>
<text x="70" y="556" class="axis-label">2026-02-23 02:15:00+00:00 to 2026-02-23 20:15:00+00:00</text>
<text x="1080" y="556" text-anchor="end" class="axis-label">5114.59 - 5226.83</text>
<text x="70" y="582" class="panel-title">M5 reaction / execution context</text>
<rect x="70" y="596" width="1010" height="192" class="plot-bg"/>
<line x1="79.18" y1="737.46" x2="79.18" y2="744.88" class="up-wick"/>
<rect x="75.18" y="737.93" width="8.00" height="5.91" class="up-body"/>
<line x1="97.55" y1="721.62" x2="97.55" y2="743.73" class="up-wick"/>
<rect x="93.55" y="722.63" width="8.00" height="15.19" class="up-body"/>
<line x1="115.91" y1="712.49" x2="115.91" y2="722.94" class="up-wick"/>
<rect x="111.91" y="714.50" width="8.00" height="8.13" class="up-body"/>
<line x1="134.27" y1="712.91" x2="134.27" y2="720.98" class="down-wick"/>
<rect x="130.27" y="714.50" width="8.00" height="1.35" class="down-body"/>
<line x1="152.64" y1="714.78" x2="152.64" y2="729.25" class="down-wick"/>
<rect x="148.64" y="715.85" width="8.00" height="8.46" class="down-body"/>
<line x1="171.00" y1="721.45" x2="171.00" y2="742.31" class="down-wick"/>
<rect x="167.00" y="724.31" width="8.00" height="16.96" class="down-body"/>
<line x1="189.36" y1="738.07" x2="189.36" y2="757.66" class="down-wick"/>
<rect x="185.36" y="741.13" width="8.00" height="10.40" class="down-body"/>
<line x1="207.73" y1="749.76" x2="207.73" y2="760.47" class="down-wick"/>
<rect x="203.73" y="751.53" width="8.00" height="3.25" class="down-body"/>
<line x1="226.09" y1="741.13" x2="226.09" y2="754.92" class="up-wick"/>
<rect x="222.09" y="748.78" width="8.00" height="5.97" class="up-body"/>
<line x1="244.45" y1="743.15" x2="244.45" y2="756.65" class="up-wick"/>
<rect x="240.45" y="748.78" width="8.00" height="1.00" class="up-body"/>
<line x1="262.82" y1="740.09" x2="262.82" y2="749.84" class="up-wick"/>
<rect x="258.82" y="747.15" width="8.00" height="1.65" class="up-body"/>
<line x1="281.18" y1="745.64" x2="281.18" y2="752.84" class="down-wick"/>
<rect x="277.18" y="747.18" width="8.00" height="1.00" class="down-body"/>
<line x1="299.55" y1="737.71" x2="299.55" y2="747.94" class="up-wick"/>
<rect x="295.55" y="739.67" width="8.00" height="7.90" class="up-body"/>
<line x1="317.91" y1="737.74" x2="317.91" y2="743.48" class="down-wick"/>
<rect x="313.91" y="739.67" width="8.00" height="3.53" class="down-body"/>
<line x1="336.27" y1="742.28" x2="336.27" y2="752.17" class="down-wick"/>
<rect x="332.27" y="743.23" width="8.00" height="8.07" class="down-body"/>
<line x1="354.64" y1="737.65" x2="354.64" y2="754.47" class="up-wick"/>
<rect x="350.64" y="741.60" width="8.00" height="9.70" class="up-body"/>
<line x1="373.00" y1="741.32" x2="373.00" y2="759.04" class="down-wick"/>
<rect x="369.00" y="741.60" width="8.00" height="11.60" class="down-body"/>
<line x1="391.36" y1="747.52" x2="391.36" y2="756.91" class="up-wick"/>
<rect x="387.36" y="751.61" width="8.00" height="1.60" class="up-body"/>
<line x1="409.73" y1="745.92" x2="409.73" y2="754.30" class="up-wick"/>
<rect x="405.73" y="751.58" width="8.00" height="1.00" class="up-body"/>
<line x1="428.09" y1="743.96" x2="428.09" y2="754.80" class="down-wick"/>
<rect x="424.09" y="751.16" width="8.00" height="1.00" class="down-body"/>
<line x1="446.45" y1="749.98" x2="446.45" y2="763.24" class="up-wick"/>
<rect x="442.45" y="750.32" width="8.00" height="1.37" class="up-body"/>
<line x1="464.82" y1="739.33" x2="464.82" y2="750.35" class="up-wick"/>
<rect x="460.82" y="745.58" width="8.00" height="4.74" class="up-body"/>
<line x1="483.18" y1="727.70" x2="483.18" y2="751.30" class="up-wick"/>
<rect x="479.18" y="727.87" width="8.00" height="17.71" class="up-body"/>
<line x1="501.55" y1="709.68" x2="501.55" y2="729.58" class="up-wick"/>
<rect x="497.55" y="710.13" width="8.00" height="17.74" class="up-body"/>
<line x1="519.91" y1="709.49" x2="519.91" y2="721.68" class="down-wick"/>
<rect x="515.91" y="710.13" width="8.00" height="11.55" class="down-body"/>
<line x1="538.27" y1="708.76" x2="538.27" y2="723.64" class="up-wick"/>
<rect x="534.27" y="712.26" width="8.00" height="9.42" class="up-body"/>
<line x1="556.64" y1="707.25" x2="556.64" y2="715.68" class="up-wick"/>
<rect x="552.64" y="711.09" width="8.00" height="1.18" class="up-body"/>
<line x1="575.00" y1="707.67" x2="575.00" y2="723.50" class="down-wick"/>
<rect x="571.00" y="711.09" width="8.00" height="11.57" class="down-body"/>
<line x1="593.36" y1="721.87" x2="593.36" y2="737.96" class="down-wick"/>
<rect x="589.36" y="722.66" width="8.00" height="10.79" class="down-body"/>
<line x1="611.73" y1="730.28" x2="611.73" y2="741.69" class="down-wick"/>
<rect x="607.73" y="733.45" width="8.00" height="3.19" class="down-body"/>
<line x1="630.09" y1="731.88" x2="630.09" y2="745.61" class="up-wick"/>
<rect x="626.09" y="734.54" width="8.00" height="2.02" class="up-body"/>
<line x1="648.45" y1="732.44" x2="648.45" y2="756.49" class="down-wick"/>
<rect x="644.45" y="734.60" width="8.00" height="18.92" class="down-body"/>
<line x1="666.82" y1="748.16" x2="666.82" y2="768.17" class="up-wick"/>
<rect x="662.82" y="751.19" width="8.00" height="2.33" class="up-body"/>
<line x1="685.18" y1="739.28" x2="685.18" y2="758.14" class="up-wick"/>
<rect x="681.18" y="740.85" width="8.00" height="10.34" class="up-body"/>
<line x1="703.55" y1="739.36" x2="703.55" y2="750.68" class="down-wick"/>
<rect x="699.55" y="740.82" width="8.00" height="7.43" class="down-body"/>
<line x1="721.91" y1="741.55" x2="721.91" y2="755.00" class="up-wick"/>
<rect x="717.91" y="742.56" width="8.00" height="5.69" class="up-body"/>
<line x1="740.27" y1="741.27" x2="740.27" y2="757.97" class="down-wick"/>
<rect x="736.27" y="742.64" width="8.00" height="6.36" class="down-body"/>
<line x1="758.64" y1="744.46" x2="758.64" y2="752.20" class="down-wick"/>
<rect x="754.64" y="749.00" width="8.00" height="2.89" class="down-body"/>
<line x1="777.00" y1="747.71" x2="777.00" y2="763.13" class="down-wick"/>
<rect x="773.00" y="751.89" width="8.00" height="8.97" class="down-body"/>
<line x1="795.36" y1="750.91" x2="795.36" y2="774.76" class="up-wick"/>
<rect x="791.36" y="751.58" width="8.00" height="9.28" class="up-body"/>
<line x1="813.73" y1="743.06" x2="813.73" y2="754.41" class="up-wick"/>
<rect x="809.73" y="749.76" width="8.00" height="1.82" class="up-body"/>
<line x1="832.09" y1="730.59" x2="832.09" y2="753.82" class="up-wick"/>
<rect x="828.09" y="731.04" width="8.00" height="18.72" class="up-body"/>
<line x1="850.45" y1="722.60" x2="850.45" y2="733.81" class="up-wick"/>
<rect x="846.45" y="723.56" width="8.00" height="7.48" class="up-body"/>
<line x1="868.82" y1="707.22" x2="868.82" y2="724.99" class="up-wick"/>
<rect x="864.82" y="712.71" width="8.00" height="10.85" class="up-body"/>
<line x1="887.18" y1="707.27" x2="887.18" y2="715.82" class="up-wick"/>
<rect x="883.18" y="707.53" width="8.00" height="5.18" class="up-body"/>
<line x1="905.55" y1="683.34" x2="905.55" y2="709.10" class="up-wick"/>
<rect x="901.55" y="689.65" width="8.00" height="17.88" class="up-body"/>
<line x1="923.91" y1="655.06" x2="923.91" y2="690.96" class="up-wick"/>
<rect x="919.91" y="655.12" width="8.00" height="34.78" class="up-body"/>
<line x1="942.27" y1="635.75" x2="942.27" y2="660.56" class="up-wick"/>
<rect x="938.27" y="636.20" width="8.00" height="18.92" class="up-body"/>
<line x1="960.64" y1="613.08" x2="960.64" y2="637.18" class="up-wick"/>
<rect x="956.64" y="624.96" width="8.00" height="11.24" class="up-body"/>
<line x1="979.00" y1="609.24" x2="979.00" y2="630.99" class="up-wick"/>
<rect x="975.00" y="620.56" width="8.00" height="4.40" class="up-body"/>
<line x1="997.36" y1="609.38" x2="997.36" y2="645.76" class="down-wick"/>
<rect x="993.36" y="620.70" width="8.00" height="10.59" class="down-body"/>
<line x1="1015.73" y1="625.66" x2="1015.73" y2="664.40" class="down-wick"/>
<rect x="1011.73" y="631.30" width="8.00" height="10.73" class="down-body"/>
<line x1="1034.09" y1="614.96" x2="1034.09" y2="646.46" class="up-wick"/>
<rect x="1030.09" y="618.55" width="8.00" height="23.46" class="up-body"/>
<line x1="1052.45" y1="612.72" x2="1052.45" y2="647.64" class="up-wick"/>
<rect x="1048.45" y="613.16" width="8.00" height="5.38" class="up-body"/>
<line x1="1070.82" y1="610.42" x2="1070.82" y2="625.61" class="up-wick"/>
<rect x="1066.82" y="611.46" width="8.00" height="1.71" class="up-body"/>
<line x1="70" y1="750.74" x2="1080" y2="750.74" class="number-line"/>
<text x="1076" y="746.74" text-anchor="end" class="level-label">round 5150.00</text>
<line x1="70" y1="750.74" x2="1080" y2="750.74" class="entry-line"/>
<text x="1076" y="746.74" text-anchor="end" class="level-label">entry level 5150.00</text>
<text x="70" y="806" class="axis-label">2026-02-23 12:45:00+00:00 to 2026-02-23 17:15:00+00:00</text>
<text x="1080" y="806" text-anchor="end" class="axis-label">5136.71 - 5205.21</text>
<text x="70" y="832" class="panel-title">M1 execution window</text>
<rect x="70" y="846" width="1010" height="192" class="plot-bg"/>
<line x1="73.71" y1="998.53" x2="73.71" y2="1001.70" class="up-wick"/>
<rect x="71.30" y="999.27" width="4.83" height="1.33" class="up-body"/>
<line x1="81.14" y1="995.07" x2="81.14" y2="1000.78" class="up-wick"/>
<rect x="78.73" y="995.07" width="4.83" height="5.26" class="up-body"/>
<line x1="88.57" y1="993.86" x2="88.57" y2="998.56" class="up-wick"/>
<rect x="86.15" y="994.36" width="4.83" height="3.84" class="up-body"/>
<line x1="95.99" y1="981.21" x2="95.99" y2="989.48" class="up-wick"/>
<rect x="93.58" y="981.62" width="4.83" height="7.42" class="up-body"/>
<line x1="103.42" y1="979.31" x2="103.42" y2="982.98" class="up-wick"/>
<rect x="101.01" y="980.35" width="4.83" height="2.31" class="up-body"/>
<line x1="110.85" y1="973.43" x2="110.85" y2="978.55" class="up-wick"/>
<rect x="108.43" y="973.58" width="4.83" height="4.64" class="up-body"/>
<line x1="118.27" y1="969.85" x2="118.27" y2="974.29" class="up-wick"/>
<rect x="115.86" y="970.18" width="4.83" height="3.40" class="up-body"/>
<line x1="125.70" y1="967.52" x2="125.70" y2="972.57" class="up-wick"/>
<rect x="123.28" y="969.65" width="4.83" height="1.00" class="up-body"/>
<line x1="133.12" y1="969.32" x2="133.12" y2="976.48" class="up-wick"/>
<rect x="130.71" y="970.21" width="4.83" height="1.89" class="up-body"/>
<line x1="140.55" y1="968.34" x2="140.55" y2="974.11" class="up-wick"/>
<rect x="138.14" y="968.76" width="4.83" height="5.35" class="up-body"/>
<line x1="147.98" y1="969.94" x2="147.98" y2="973.84" class="down-wick"/>
<rect x="145.56" y="971.06" width="4.83" height="2.07" class="down-body"/>
<line x1="155.40" y1="981.47" x2="155.40" y2="985.20" class="down-wick"/>
<rect x="152.99" y="982.48" width="4.83" height="1.36" class="down-body"/>
<line x1="162.83" y1="979.43" x2="162.83" y2="983.31" class="up-wick"/>
<rect x="160.42" y="979.99" width="4.83" height="1.00" class="up-body"/>
<line x1="170.26" y1="978.96" x2="170.26" y2="986.17" class="down-wick"/>
<rect x="167.84" y="979.25" width="4.83" height="5.91" class="down-body"/>
<line x1="177.68" y1="991.20" x2="177.68" y2="998.98" class="up-wick"/>
<rect x="175.27" y="991.91" width="4.83" height="1.54" class="up-body"/>
<line x1="185.11" y1="994.51" x2="185.11" y2="1006.28" class="down-wick"/>
<rect x="182.70" y="997.73" width="4.83" height="7.51" class="down-body"/>
<line x1="192.54" y1="1005.39" x2="192.54" y2="1009.74" class="down-wick"/>
<rect x="190.12" y="1005.75" width="4.83" height="3.73" class="down-body"/>
<line x1="199.96" y1="1005.81" x2="199.96" y2="1015.18" class="down-wick"/>
<rect x="197.55" y="1005.87" width="4.83" height="2.84" class="down-body"/>
<line x1="207.39" y1="1008.64" x2="207.39" y2="1012.22" class="down-wick"/>
<rect x="204.98" y="1008.82" width="4.83" height="3.22" class="down-body"/>
<line x1="214.82" y1="1010.27" x2="214.82" y2="1016.54" class="up-wick"/>
<rect x="212.40" y="1010.33" width="4.83" height="4.91" class="up-body"/>
<line x1="222.24" y1="1005.30" x2="222.24" y2="1012.28" class="up-wick"/>
<rect x="219.83" y="1005.72" width="4.83" height="6.39" class="up-body"/>
<line x1="229.67" y1="997.73" x2="229.67" y2="1004.80" class="down-wick"/>
<rect x="227.26" y="998.74" width="4.83" height="5.65" class="down-body"/>
<line x1="237.10" y1="1000.57" x2="237.10" y2="1006.34" class="down-wick"/>
<rect x="234.68" y="1002.73" width="4.83" height="3.07" class="down-body"/>
<line x1="244.52" y1="1006.46" x2="244.52" y2="1011.51" class="up-wick"/>
<rect x="242.11" y="1008.11" width="4.83" height="3.34" class="up-body"/>
<line x1="251.95" y1="999.86" x2="251.95" y2="1004.51" class="up-wick"/>
<rect x="249.53" y="1000.72" width="4.83" height="3.40" class="up-body"/>
<line x1="259.38" y1="1002.14" x2="259.38" y2="1006.93" class="up-wick"/>
<rect x="256.96" y="1002.23" width="4.83" height="3.61" class="up-body"/>
<line x1="266.80" y1="997.85" x2="266.80" y2="1003.26" class="down-wick"/>
<rect x="264.39" y="999.95" width="4.83" height="1.71" class="down-body"/>
<line x1="274.23" y1="1000.78" x2="274.23" y2="1004.80" class="down-wick"/>
<rect x="271.81" y="1003.97" width="4.83" height="1.00" class="down-body"/>
<line x1="281.65" y1="1004.24" x2="281.65" y2="1009.41" class="down-wick"/>
<rect x="279.24" y="1005.27" width="4.83" height="1.06" class="down-body"/>
<line x1="289.08" y1="1002.49" x2="289.08" y2="1008.29" class="down-wick"/>
<rect x="286.67" y="1005.13" width="4.83" height="1.00" class="down-body"/>
<line x1="296.51" y1="999.77" x2="296.51" y2="1004.92" class="up-wick"/>
<rect x="294.09" y="1000.37" width="4.83" height="4.17" class="up-body"/>
<line x1="303.93" y1="996.20" x2="303.93" y2="1001.05" class="down-wick"/>
<rect x="301.52" y="996.73" width="4.83" height="4.29" class="down-body"/>
<line x1="311.36" y1="994.13" x2="311.36" y2="1002.05" class="up-wick"/>
<rect x="308.95" y="996.20" width="4.83" height="5.12" class="up-body"/>
<line x1="318.79" y1="994.16" x2="318.79" y2="998.92" class="up-wick"/>
<rect x="316.37" y="995.66" width="4.83" height="2.19" class="up-body"/>
<line x1="326.21" y1="995.63" x2="326.21" y2="998.53" class="up-wick"/>
<rect x="323.80" y="998.33" width="4.83" height="1.00" class="up-body"/>
<line x1="333.64" y1="998.95" x2="333.64" y2="1001.84" class="up-wick"/>
<rect x="331.23" y="999.80" width="4.83" height="1.00" class="up-body"/>
<line x1="341.07" y1="1005.72" x2="341.07" y2="1008.88" class="down-wick"/>
<rect x="338.65" y="1006.93" width="4.83" height="1.60" class="down-body"/>
<line x1="348.49" y1="1003.65" x2="348.49" y2="1008.59" class="down-wick"/>
<rect x="346.08" y="1005.66" width="4.83" height="2.81" class="down-body"/>
<line x1="355.92" y1="995.01" x2="355.92" y2="1003.09" class="up-wick"/>
<rect x="353.51" y="998.77" width="4.83" height="3.84" class="up-body"/>
<line x1="363.35" y1="997.47" x2="363.35" y2="1005.48" class="up-wick"/>
<rect x="360.93" y="998.59" width="4.83" height="3.70" class="up-body"/>
<line x1="370.77" y1="997.94" x2="370.77" y2="1003.94" class="down-wick"/>
<rect x="368.36" y="998.24" width="4.83" height="3.58" class="down-body"/>
<line x1="378.20" y1="1002.64" x2="378.20" y2="1009.12" class="down-wick"/>
<rect x="375.78" y="1004.36" width="4.83" height="3.52" class="down-body"/>
<line x1="385.62" y1="1010.48" x2="385.62" y2="1016.63" class="up-wick"/>
<rect x="383.21" y="1010.48" width="4.83" height="1.00" class="up-body"/>
<line x1="393.05" y1="1005.33" x2="393.05" y2="1012.93" class="down-wick"/>
<rect x="390.64" y="1006.19" width="4.83" height="5.29" class="down-body"/>
<line x1="400.48" y1="1007.17" x2="400.48" y2="1013.61" class="up-wick"/>
<rect x="398.06" y="1011.25" width="4.83" height="2.07" class="up-body"/>
<line x1="407.90" y1="1007.28" x2="407.90" y2="1011.63" class="up-wick"/>
<rect x="405.49" y="1008.76" width="4.83" height="1.00" class="up-body"/>
<line x1="415.33" y1="1002.79" x2="415.33" y2="1008.70" class="up-wick"/>
<rect x="412.92" y="1004.51" width="4.83" height="3.34" class="up-body"/>
<line x1="422.76" y1="1006.37" x2="422.76" y2="1009.38" class="down-wick"/>
<rect x="420.34" y="1006.96" width="4.83" height="1.80" class="down-body"/>
<line x1="430.18" y1="1009.35" x2="430.18" y2="1012.16" class="up-wick"/>
<rect x="427.77" y="1009.89" width="4.83" height="1.00" class="up-body"/>
<line x1="437.61" y1="1000.72" x2="437.61" y2="1006.60" class="down-wick"/>
<rect x="435.20" y="1005.69" width="4.83" height="1.00" class="down-body"/>
<line x1="445.04" y1="1007.08" x2="445.04" y2="1010.48" class="down-wick"/>
<rect x="442.62" y="1008.88" width="4.83" height="1.36" class="down-body"/>
<line x1="452.46" y1="1008.79" x2="452.46" y2="1013.46" class="down-wick"/>
<rect x="450.05" y="1009.53" width="4.83" height="2.39" class="down-body"/>
<line x1="459.89" y1="1007.43" x2="459.89" y2="1021.06" class="up-wick"/>
<rect x="457.48" y="1007.43" width="4.83" height="13.22" class="up-body"/>
<line x1="467.32" y1="995.84" x2="467.32" y2="1002.82" class="up-wick"/>
<rect x="464.90" y="1001.25" width="4.83" height="1.00" class="up-body"/>
<line x1="474.74" y1="1000.48" x2="474.74" y2="1004.09" class="up-wick"/>
<rect x="472.33" y="1000.72" width="4.83" height="2.10" class="up-body"/>
<line x1="482.17" y1="1000.40" x2="482.17" y2="1008.47" class="up-wick"/>
<rect x="479.76" y="1002.08" width="4.83" height="1.00" class="up-body"/>
<line x1="489.60" y1="995.93" x2="489.60" y2="1001.73" class="up-wick"/>
<rect x="487.18" y="996.73" width="4.83" height="4.38" class="up-body"/>
<line x1="497.02" y1="983.57" x2="497.02" y2="993.71" class="up-wick"/>
<rect x="494.61" y="983.75" width="4.83" height="9.79" class="up-body"/>
<line x1="504.45" y1="974.55" x2="504.45" y2="983.28" class="up-wick"/>
<rect x="502.03" y="976.03" width="4.83" height="5.77" class="up-body"/>
<line x1="511.88" y1="969.85" x2="511.88" y2="972.51" class="up-wick"/>
<rect x="509.46" y="970.15" width="4.83" height="1.51" class="up-body"/>
<line x1="519.30" y1="964.35" x2="519.30" y2="969.73" class="down-wick"/>
<rect x="516.89" y="965.03" width="4.83" height="3.76" class="down-body"/>
<line x1="526.73" y1="968.73" x2="526.73" y2="975.97" class="down-wick"/>
<rect x="524.31" y="969.08" width="4.83" height="6.89" class="down-body"/>
<line x1="534.15" y1="968.61" x2="534.15" y2="977.21" class="down-wick"/>
<rect x="531.74" y="968.70" width="4.83" height="8.52" class="down-body"/>
<line x1="541.58" y1="972.87" x2="541.58" y2="978.04" class="down-wick"/>
<rect x="539.17" y="972.87" width="4.83" height="1.00" class="down-body"/>
<line x1="549.01" y1="965.77" x2="549.01" y2="970.80" class="up-wick"/>
<rect x="546.59" y="966.36" width="4.83" height="2.87" class="up-body"/>
<line x1="556.43" y1="964.23" x2="556.43" y2="970.89" class="up-wick"/>
<rect x="554.02" y="965.33" width="4.83" height="1.95" class="up-body"/>
<line x1="563.86" y1="962.37" x2="563.86" y2="964.86" class="up-wick"/>
<rect x="561.45" y="963.26" width="4.83" height="1.00" class="up-body"/>
<line x1="571.29" y1="965.24" x2="571.29" y2="968.82" class="down-wick"/>
<rect x="568.87" y="965.24" width="4.83" height="1.00" class="down-body"/>
<line x1="578.71" y1="962.43" x2="578.71" y2="970.71" class="down-wick"/>
<rect x="576.30" y="963.32" width="4.83" height="6.86" class="down-body"/>
<line x1="586.14" y1="973.08" x2="586.14" y2="978.96" class="down-wick"/>
<rect x="583.73" y="973.96" width="4.83" height="3.13" class="down-body"/>
<line x1="593.57" y1="977.42" x2="593.57" y2="984.25" class="down-wick"/>
<rect x="591.15" y="978.25" width="4.83" height="3.76" class="down-body"/>
<line x1="600.99" y1="981.80" x2="600.99" y2="987.24" class="up-wick"/>
<rect x="598.58" y="982.48" width="4.83" height="2.72" class="up-body"/>
<line x1="608.42" y1="989.37" x2="608.42" y2="994.39" class="up-wick"/>
<rect x="606.01" y="989.63" width="4.83" height="1.54" class="up-body"/>
<line x1="615.85" y1="986.29" x2="615.85" y2="991.61" class="up-wick"/>
<rect x="613.43" y="987.59" width="4.83" height="2.84" class="up-body"/>
<line x1="623.27" y1="991.50" x2="623.27" y2="998.33" class="down-wick"/>
<rect x="620.86" y="993.36" width="4.83" height="1.00" class="down-body"/>
<line x1="630.70" y1="992.89" x2="630.70" y2="1002.46" class="down-wick"/>
<rect x="628.28" y="992.91" width="4.83" height="4.64" class="down-body"/>
<line x1="638.12" y1="991.47" x2="638.12" y2="997.29" class="up-wick"/>
<rect x="635.71" y="991.53" width="4.83" height="2.22" class="up-body"/>
<line x1="645.55" y1="987.98" x2="645.55" y2="992.83" class="up-wick"/>
<rect x="643.14" y="990.79" width="4.83" height="1.09" class="up-body"/>
<line x1="652.98" y1="992.09" x2="652.98" y2="1000.66" class="down-wick"/>
<rect x="650.56" y="992.35" width="4.83" height="5.97" class="down-body"/>
<line x1="660.40" y1="998.59" x2="660.40" y2="1013.40" class="down-wick"/>
<rect x="657.99" y="999.06" width="4.83" height="12.03" class="down-body"/>
<line x1="667.83" y1="1008.94" x2="667.83" y2="1019.44" class="down-wick"/>
<rect x="665.42" y="1010.80" width="4.83" height="8.19" class="down-body"/>
<line x1="675.26" y1="1015.83" x2="675.26" y2="1022.57" class="up-wick"/>
<rect x="672.84" y="1016.42" width="4.83" height="1.00" class="up-body"/>
<line x1="682.68" y1="1005.16" x2="682.68" y2="1011.10" class="up-wick"/>
<rect x="680.27" y="1008.35" width="4.83" height="2.42" class="up-body"/>
<line x1="690.11" y1="999.42" x2="690.11" y2="1006.37" class="down-wick"/>
<rect x="687.70" y="1000.84" width="4.83" height="1.00" class="down-body"/>
<line x1="697.54" y1="996.37" x2="697.54" y2="1000.66" class="down-wick"/>
<rect x="695.12" y="998.15" width="4.83" height="1.00" class="down-body"/>
<line x1="704.96" y1="996.31" x2="704.96" y2="1003.68" class="down-wick"/>
<rect x="702.55" y="997.41" width="4.83" height="2.25" class="down-body"/>
<line x1="712.39" y1="997.68" x2="712.39" y2="1007.82" class="down-wick"/>
<rect x="709.98" y="997.97" width="4.83" height="6.03" class="down-body"/>
<line x1="719.82" y1="1001.25" x2="719.82" y2="1007.52" class="down-wick"/>
<rect x="717.40" y="1001.78" width="4.83" height="3.46" class="down-body"/>
<line x1="727.24" y1="1008.17" x2="727.24" y2="1012.19" class="down-wick"/>
<rect x="724.83" y="1010.39" width="4.83" height="1.54" class="down-body"/>
<line x1="734.67" y1="1000.48" x2="734.67" y2="1004.59" class="down-wick"/>
<rect x="732.26" y="1000.96" width="4.83" height="2.57" class="down-body"/>
<line x1="742.10" y1="997.88" x2="742.10" y2="1013.85" class="down-wick"/>
<rect x="739.68" y="999.33" width="4.83" height="13.69" class="down-body"/>
<line x1="749.52" y1="1005.78" x2="749.52" y2="1012.28" class="up-wick"/>
<rect x="747.11" y="1005.78" width="4.83" height="3.25" class="up-body"/>
<line x1="756.95" y1="1002.70" x2="756.95" y2="1009.27" class="up-wick"/>
<rect x="754.53" y="1006.04" width="4.83" height="1.00" class="up-body"/>
<line x1="764.38" y1="1001.25" x2="764.38" y2="1006.13" class="up-wick"/>
<rect x="761.96" y="1004.21" width="4.83" height="1.30" class="up-body"/>
<line x1="771.80" y1="1004.39" x2="771.80" y2="1009.41" class="up-wick"/>
<rect x="769.39" y="1006.49" width="4.83" height="1.00" class="up-body"/>
<line x1="779.23" y1="1006.99" x2="779.23" y2="1012.19" class="down-wick"/>
<rect x="776.81" y="1009.09" width="4.83" height="1.00" class="down-body"/>
<line x1="786.65" y1="1005.89" x2="786.65" y2="1018.73" class="down-wick"/>
<rect x="784.24" y="1005.92" width="4.83" height="3.76" class="down-body"/>
<line x1="794.08" y1="1016.81" x2="794.08" y2="1020.94" class="down-wick"/>
<rect x="791.67" y="1018.08" width="4.83" height="1.00" class="down-body"/>
<line x1="801.51" y1="1015.21" x2="801.51" y2="1024.76" class="up-wick"/>
<rect x="799.09" y="1017.60" width="4.83" height="4.32" class="up-body"/>
<line x1="808.93" y1="1012.72" x2="808.93" y2="1018.87" class="down-wick"/>
<rect x="806.52" y="1012.75" width="4.83" height="3.99" class="down-body"/>
<line x1="816.36" y1="1007.02" x2="816.36" y2="1011.75" class="up-wick"/>
<rect x="813.95" y="1007.64" width="4.83" height="1.12" class="up-body"/>
<line x1="823.79" y1="999.77" x2="823.79" y2="1003.06" class="up-wick"/>
<rect x="821.37" y="1002.94" width="4.83" height="1.00" class="up-body"/>
<line x1="831.21" y1="1001.96" x2="831.21" y2="1009.41" class="down-wick"/>
<rect x="828.80" y="1003.71" width="4.83" height="3.13" class="down-body"/>
<line x1="838.64" y1="1007.61" x2="838.64" y2="1010.98" class="up-wick"/>
<rect x="836.23" y="1009.77" width="4.83" height="1.00" class="up-body"/>
<line x1="846.07" y1="994.54" x2="846.07" y2="1000.22" class="up-wick"/>
<rect x="843.65" y="998.59" width="4.83" height="1.00" class="up-body"/>
<line x1="853.49" y1="984.78" x2="853.49" y2="988.80" class="up-wick"/>
<rect x="851.08" y="986.85" width="4.83" height="1.00" class="up-body"/>
<line x1="860.92" y1="984.25" x2="860.92" y2="988.30" class="up-wick"/>
<rect x="858.51" y="984.78" width="4.83" height="1.00" class="up-body"/>
<line x1="868.35" y1="978.19" x2="868.35" y2="983.69" class="up-wick"/>
<rect x="865.93" y="979.20" width="4.83" height="3.40" class="up-body"/>
<line x1="875.77" y1="969.53" x2="875.77" y2="975.91" class="up-wick"/>
<rect x="873.36" y="973.43" width="4.83" height="1.00" class="up-body"/>
<line x1="883.20" y1="970.68" x2="883.20" y2="973.61" class="up-wick"/>
<rect x="880.78" y="970.74" width="4.83" height="1.03" class="up-body"/>
<line x1="890.62" y1="963.02" x2="890.62" y2="967.96" class="up-wick"/>
<rect x="888.21" y="967.31" width="4.83" height="1.00" class="up-body"/>
<line x1="898.05" y1="965.15" x2="898.05" y2="970.27" class="down-wick"/>
<rect x="895.64" y="965.77" width="4.83" height="3.73" class="down-body"/>
<line x1="905.48" y1="962.02" x2="905.48" y2="969.08" class="up-wick"/>
<rect x="903.06" y="962.28" width="4.83" height="5.65" class="up-body"/>
<line x1="912.90" y1="945.16" x2="912.90" y2="952.73" class="down-wick"/>
<rect x="910.49" y="948.36" width="4.83" height="1.00" class="down-body"/>
<line x1="920.33" y1="938.69" x2="920.33" y2="945.52" class="up-wick"/>
<rect x="917.92" y="938.75" width="4.83" height="4.88" class="up-body"/>
<line x1="927.76" y1="936.86" x2="927.76" y2="944.81" class="up-wick"/>
<rect x="925.34" y="939.19" width="4.83" height="4.49" class="up-body"/>
<line x1="935.18" y1="913.67" x2="935.18" y2="924.79" class="up-wick"/>
<rect x="932.77" y="913.88" width="4.83" height="3.76" class="up-body"/>
<line x1="942.61" y1="906.93" x2="942.61" y2="916.37" class="up-wick"/>
<rect x="940.20" y="906.99" width="4.83" height="3.28" class="up-body"/>
<line x1="950.04" y1="906.11" x2="950.04" y2="912.73" class="up-wick"/>
<rect x="947.62" y="906.28" width="4.83" height="3.40" class="up-body"/>
<line x1="957.46" y1="896.32" x2="957.46" y2="904.72" class="up-wick"/>
<rect x="955.05" y="896.67" width="4.83" height="6.48" class="up-body"/>
<line x1="964.89" y1="867.61" x2="964.89" y2="888.07" class="up-wick"/>
<rect x="962.48" y="869.62" width="4.83" height="17.42" class="up-body"/>
<line x1="972.32" y1="874.44" x2="972.32" y2="884.52" class="up-wick"/>
<rect x="969.90" y="876.57" width="4.83" height="6.03" class="up-body"/>
<line x1="979.74" y1="869.56" x2="979.74" y2="878.11" class="down-wick"/>
<rect x="977.33" y="872.61" width="4.83" height="2.57" class="down-body"/>
<line x1="987.17" y1="861.49" x2="987.17" y2="879.85" class="down-wick"/>
<rect x="984.76" y="864.06" width="4.83" height="11.97" class="down-body"/>
<line x1="994.60" y1="860.54" x2="994.60" y2="871.54" class="up-wick"/>
<rect x="992.18" y="864.33" width="4.83" height="5.71" class="up-body"/>
<line x1="1002.02" y1="869.09" x2="1002.02" y2="884.82" class="up-wick"/>
<rect x="999.61" y="869.50" width="4.83" height="1.18" class="up-body"/>
<line x1="1009.45" y1="859.24" x2="1009.45" y2="874.29" class="down-wick"/>
<rect x="1007.03" y="861.73" width="4.83" height="12.33" class="down-body"/>
<line x1="1016.88" y1="880.20" x2="1016.88" y2="897.12" class="up-wick"/>
<rect x="1014.46" y="881.86" width="4.83" height="10.76" class="up-body"/>
<line x1="1024.30" y1="878.70" x2="1024.30" y2="916.19" class="down-wick"/>
<rect x="1021.89" y="884.34" width="4.83" height="31.84" class="down-body"/>
<line x1="1031.73" y1="890.55" x2="1031.73" y2="906.08" class="down-wick"/>
<rect x="1029.31" y="902.47" width="4.83" height="1.83" class="down-body"/>
<line x1="1039.15" y1="882.72" x2="1039.15" y2="897.86" class="down-wick"/>
<rect x="1036.74" y="893.15" width="4.83" height="1.00" class="down-body"/>
<line x1="1046.58" y1="871.69" x2="1046.58" y2="884.96" class="up-wick"/>
<rect x="1044.17" y="872.40" width="4.83" height="10.44" class="up-body"/>
<line x1="1054.01" y1="864.65" x2="1054.01" y2="874.00" class="down-wick"/>
<rect x="1051.59" y="866.99" width="4.83" height="1.42" class="down-body"/>
<line x1="1061.43" y1="870.18" x2="1061.43" y2="891.59" class="down-wick"/>
<rect x="1059.02" y="870.18" width="4.83" height="18.95" class="down-body"/>
<line x1="1068.86" y1="877.43" x2="1068.86" y2="894.46" class="up-wick"/>
<rect x="1066.45" y="880.35" width="4.83" height="13.54" class="up-body"/>
<line x1="1076.29" y1="861.73" x2="1076.29" y2="869.77" class="down-wick"/>
<rect x="1073.87" y="862.73" width="4.83" height="2.78" class="down-body"/>
<line x1="70" y1="1007.88" x2="1080" y2="1007.88" class="number-line"/>
<text x="1076" y="1003.88" text-anchor="end" class="level-label">round 5150.00</text>
<line x1="70" y1="1007.88" x2="1080" y2="1007.88" class="entry-line"/>
<text x="1076" y="1003.88" text-anchor="end" class="level-label">entry level 5150.00</text>
<text x="70" y="1056" class="axis-label">2026-02-23 12:45:00+00:00 to 2026-02-23 17:15:00+00:00</text>
<text x="1080" y="1056" text-anchor="end" class="axis-label">5139.81 - 5204.75</text>
</svg>