<svg xmlns="http://www.w3.org/2000/svg" width="1120" height="1054" viewBox="0 0 1120 1054">
<style>
text{font-family:Arial,Helvetica,sans-serif}.title{font-size:21px;font-weight:700;fill:#1f2937}.subtitle{font-size:12px;fill:#4b5563}.panel-title{font-size:15px;font-weight:700;fill:#111827}.muted{font-size:13px;fill:#6b7280}.plot-bg{fill:#f8fafc;stroke:#cbd5e1;stroke-width:1}.up-body{fill:#15803d;stroke:#14532d;stroke-width:.8}.down-body{fill:#b91c1c;stroke:#7f1d1d;stroke-width:.8}.up-wick{stroke:#14532d;stroke-width:1}.down-wick{stroke:#7f1d1d;stroke-width:1}.sweep-line{stroke:#7c3aed;stroke-width:1.6;stroke-dasharray:6 4}.number-line{stroke:#0f766e;stroke-width:1.4;stroke-dasharray:3 4}.entry-line{stroke:#2563eb;stroke-width:1.4}.sl-line{stroke:#dc2626;stroke-width:1.4}.tp-line{stroke:#16a34a;stroke-width:1.4}.level-label,.axis-label{font-size:11px;fill:#374151}
</style>
<text x="28" y="28" class="title">Adelin v2 visual review sample sample_120</text>
<text x="28" y="48" class="subtitle">Candidate windows are for visual labeling only and are not trade signals.</text>
<text x="560" y="48" class="subtitle" text-anchor="middle">LARGE_LOWER_WICK_REVERSAL_VISUAL_CANDIDATE | PRE_ANCHOR_SWEEP_EXTREME_CANDIDATE</text>
<text x="70" y="82" class="panel-title">H1 liquidity context</text>
<rect x="70" y="96" width="1010" height="192" class="plot-bg"/>
<line x1="80.98" y1="202.91" x2="80.98" y2="218.79" class="up-wick"/>
<rect x="76.98" y="204.70" width="8.00" height="4.85" class="up-body"/>
<line x1="102.93" y1="196.69" x2="102.93" y2="230.63" class="down-wick"/>
<rect x="98.93" y="204.70" width="8.00" height="12.74" class="down-body"/>
<line x1="124.89" y1="199.48" x2="124.89" y2="218.22" class="up-wick"/>
<rect x="120.89" y="211.71" width="8.00" height="5.72" class="up-body"/>
<line x1="146.85" y1="168.02" x2="146.85" y2="228.07" class="up-wick"/>
<rect x="142.85" y="210.11" width="8.00" height="1.61" class="up-body"/>
<line x1="168.80" y1="167.17" x2="168.80" y2="213.96" class="up-wick"/>
<rect x="164.80" y="168.71" width="8.00" height="41.40" class="up-body"/>
<line x1="190.76" y1="130.68" x2="190.76" y2="170.75" class="up-wick"/>
<rect x="186.76" y="158.11" width="8.00" height="10.60" class="up-body"/>
<line x1="212.72" y1="147.71" x2="212.72" y2="172.64" class="down-wick"/>
<rect x="208.72" y="158.18" width="8.00" height="1.76" class="down-body"/>
<line x1="234.67" y1="148.34" x2="234.67" y2="169.94" class="up-wick"/>
<rect x="230.67" y="159.13" width="8.00" height="1.00" class="up-body"/>
<line x1="256.63" y1="134.39" x2="256.63" y2="161.04" class="up-wick"/>
<rect x="252.63" y="140.45" width="8.00" height="18.69" class="up-body"/>
<line x1="278.59" y1="128.06" x2="278.59" y2="144.57" class="down-wick"/>
<rect x="274.59" y="140.48" width="8.00" height="1.15" class="down-body"/>
<line x1="300.54" y1="139.03" x2="300.54" y2="151.16" class="down-wick"/>
<rect x="296.54" y="141.67" width="8.00" height="5.91" class="down-body"/>
<line x1="322.50" y1="126.74" x2="322.50" y2="149.83" class="up-wick"/>
<rect x="318.50" y="130.55" width="8.00" height="17.05" class="up-body"/>
<line x1="344.46" y1="163.91" x2="344.46" y2="247.55" class="down-wick"/>
<rect x="340.46" y="169.05" width="8.00" height="49.40" class="down-body"/>
<line x1="366.41" y1="214.77" x2="366.41" y2="262.16" class="down-wick"/>
<rect x="362.41" y="218.45" width="8.00" height="23.99" class="down-body"/>
<line x1="388.37" y1="207.89" x2="388.37" y2="274.76" class="up-wick"/>
<rect x="384.37" y="223.95" width="8.00" height="18.48" class="up-body"/>
<line x1="410.33" y1="197.18" x2="410.33" y2="237.41" class="up-wick"/>
<rect x="406.33" y="201.38" width="8.00" height="22.57" class="up-body"/>
<line x1="432.28" y1="194.27" x2="432.28" y2="213.28" class="down-wick"/>
<rect x="428.28" y="201.38" width="8.00" height="2.94" class="down-body"/>
<line x1="454.24" y1="199.02" x2="454.24" y2="209.91" class="down-wick"/>
<rect x="450.24" y="204.33" width="8.00" height="1.10" class="down-body"/>
<line x1="476.20" y1="159.27" x2="476.20" y2="214.01" class="up-wick"/>
<rect x="472.20" y="174.19" width="8.00" height="31.24" class="up-body"/>
<line x1="498.15" y1="165.21" x2="498.15" y2="199.19" class="down-wick"/>
<rect x="494.15" y="174.19" width="8.00" height="24.44" class="down-body"/>
<line x1="520.11" y1="189.26" x2="520.11" y2="206.95" class="up-wick"/>
<rect x="516.11" y="197.33" width="8.00" height="1.29" class="up-body"/>
<line x1="542.07" y1="186.54" x2="542.07" y2="208.36" class="down-wick"/>
<rect x="538.07" y="197.34" width="8.00" height="2.28" class="down-body"/>
<line x1="564.02" y1="166.61" x2="564.02" y2="200.97" class="up-wick"/>
<rect x="560.02" y="191.66" width="8.00" height="8.02" class="up-body"/>
<line x1="585.98" y1="186.31" x2="585.98" y2="210.96" class="down-wick"/>
<rect x="581.98" y="191.66" width="8.00" height="16.58" class="down-body"/>
<line x1="607.93" y1="198.93" x2="607.93" y2="215.02" class="up-wick"/>
<rect x="603.93" y="207.47" width="8.00" height="1.00" class="up-body"/>
<line x1="629.89" y1="185.39" x2="629.89" y2="207.47" class="up-wick"/>
<rect x="625.89" y="201.18" width="8.00" height="6.28" class="up-body"/>
<line x1="651.85" y1="186.15" x2="651.85" y2="226.46" class="down-wick"/>
<rect x="647.85" y="201.18" width="8.00" height="19.06" class="down-body"/>
<line x1="673.80" y1="181.74" x2="673.80" y2="232.26" class="up-wick"/>
<rect x="669.80" y="202.05" width="8.00" height="18.19" class="up-body"/>
<line x1="695.76" y1="193.34" x2="695.76" y2="215.18" class="up-wick"/>
<rect x="691.76" y="196.85" width="8.00" height="5.20" class="up-body"/>
<line x1="717.72" y1="186.68" x2="717.72" y2="201.39" class="up-wick"/>
<rect x="713.72" y="192.23" width="8.00" height="4.53" class="up-body"/>
<line x1="739.67" y1="190.17" x2="739.67" y2="206.49" class="down-wick"/>
<rect x="735.67" y="192.23" width="8.00" height="7.93" class="down-body"/>
<line x1="761.63" y1="172.22" x2="761.63" y2="203.37" class="up-wick"/>
<rect x="757.63" y="175.12" width="8.00" height="25.04" class="up-body"/>
<line x1="783.59" y1="156.06" x2="783.59" y2="179.54" class="up-wick"/>
<rect x="779.59" y="158.89" width="8.00" height="16.23" class="up-body"/>
<line x1="805.54" y1="152.35" x2="805.54" y2="165.50" class="down-wick"/>
<rect x="801.54" y="158.89" width="8.00" height="2.60" class="down-body"/>
<line x1="827.50" y1="161.49" x2="827.50" y2="161.49" class="up-wick"/>
<rect x="823.50" y="161.49" width="8.00" height="1.00" class="up-body"/>
<line x1="849.46" y1="145.07" x2="849.46" y2="163.67" class="down-wick"/>
<rect x="845.46" y="147.89" width="8.00" height="12.22" class="down-body"/>
<line x1="871.41" y1="158.64" x2="871.41" y2="173.75" class="down-wick"/>
<rect x="867.41" y="160.11" width="8.00" height="7.94" class="down-body"/>
<line x1="893.37" y1="117.40" x2="893.37" y2="173.91" class="up-wick"/>
<rect x="889.37" y="119.15" width="8.00" height="48.88" class="up-body"/>
<line x1="915.33" y1="116.64" x2="915.33" y2="137.93" class="down-wick"/>
<rect x="911.33" y="119.16" width="8.00" height="16.83" class="down-body"/>
<line x1="937.28" y1="129.10" x2="937.28" y2="145.30" class="down-wick"/>
<rect x="933.28" y="136.01" width="8.00" height="7.40" class="down-body"/>
<line x1="959.24" y1="135.41" x2="959.24" y2="146.65" class="up-wick"/>
<rect x="955.24" y="137.93" width="8.00" height="5.82" class="up-body"/>
<line x1="981.20" y1="123.75" x2="981.20" y2="137.96" class="up-wick"/>
<rect x="977.20" y="124.96" width="8.00" height="12.95" class="up-body"/>
<line x1="1003.15" y1="122.28" x2="1003.15" y2="130.61" class="down-wick"/>
<rect x="999.15" y="124.94" width="8.00" height="2.48" class="down-body"/>
<line x1="1025.11" y1="121.96" x2="1025.11" y2="142.79" class="up-wick"/>
<rect x="1021.11" y="122.18" width="8.00" height="5.24" class="up-body"/>
<line x1="1047.07" y1="109.24" x2="1047.07" y2="127.72" class="up-wick"/>
<rect x="1043.07" y="120.09" width="8.00" height="2.08" class="up-body"/>
<line x1="1069.02" y1="114.51" x2="1069.02" y2="122.53" class="down-wick"/>
<rect x="1065.02" y="119.96" width="8.00" height="1.00" class="down-body"/>
<line x1="70" y1="168.10" x2="1080" y2="168.10" class="sweep-line"/>
<text x="1076" y="164.10" text-anchor="end" class="level-label">sweep 5130.98</text>
<line x1="70" y1="166.61" x2="1080" y2="166.61" class="entry-line"/>
<text x="1076" y="162.61" text-anchor="end" class="level-label">entry level 5132.61</text>
<text x="70" y="306" class="axis-label">2026-03-06 12:00:00+00:00 to 2026-03-10 11:00:00+00:00</text>
<text x="1080" y="306" text-anchor="end" class="axis-label">5000.27 - 5209.59</text>
<text x="70" y="332" class="panel-title">M15 liquidity / reaction context</text>
<rect x="70" y="346" width="1010" height="192" class="plot-bg"/>
<line x1="77.43" y1="365.89" x2="77.43" y2="421.64" class="down-wick"/>
<rect x="73.43" y="373.26" width="8.00" height="36.94" class="down-body"/>
<line x1="92.28" y1="403.61" x2="92.28" y2="418.94" class="up-wick"/>
<rect x="88.28" y="406.62" width="8.00" height="3.56" class="up-body"/>
<line x1="107.13" y1="405.99" x2="107.13" y2="485.77" class="down-wick"/>
<rect x="103.13" y="406.54" width="8.00" height="41.50" class="down-body"/>
<line x1="121.99" y1="439.21" x2="121.99" y2="472.78" class="up-wick"/>
<rect x="117.99" y="444.05" width="8.00" height="4.10" class="up-body"/>
<line x1="136.84" y1="438.78" x2="136.84" y2="506.71" class="down-wick"/>
<rect x="132.84" y="444.05" width="8.00" height="52.35" class="down-body"/>
<line x1="151.69" y1="474.33" x2="151.69" y2="501.04" class="up-wick"/>
<rect x="147.69" y="483.64" width="8.00" height="12.77" class="up-body"/>
<line x1="166.54" y1="464.68" x2="166.54" y2="486.16" class="up-wick"/>
<rect x="162.54" y="474.54" width="8.00" height="8.89" class="up-body"/>
<line x1="181.40" y1="468.29" x2="181.40" y2="499.87" class="down-wick"/>
<rect x="177.40" y="474.55" width="8.00" height="3.88" class="down-body"/>
<line x1="196.25" y1="446.19" x2="196.25" y2="524.76" class="up-wick"/>
<rect x="192.25" y="448.95" width="8.00" height="29.47" class="up-body"/>
<line x1="211.10" y1="428.92" x2="211.10" y2="452.18" class="down-wick"/>
<rect x="207.10" y="448.95" width="8.00" height="1.00" class="down-body"/>
<line x1="225.96" y1="430.79" x2="225.96" y2="449.97" class="up-wick"/>
<rect x="221.96" y="438.36" width="8.00" height="11.02" class="up-body"/>
<line x1="240.81" y1="435.62" x2="240.81" y2="459.05" class="down-wick"/>
<rect x="236.81" y="438.49" width="8.00" height="13.45" class="down-body"/>
<line x1="255.66" y1="418.91" x2="255.66" y2="471.23" class="up-wick"/>
<rect x="251.66" y="419.98" width="8.00" height="31.96" class="up-body"/>
<line x1="270.51" y1="419.76" x2="270.51" y2="448.34" class="down-wick"/>
<rect x="266.51" y="419.93" width="8.00" height="21.88" class="down-body"/>
<line x1="285.37" y1="420.58" x2="285.37" y2="443.13" class="up-wick"/>
<rect x="281.37" y="422.27" width="8.00" height="19.60" class="up-body"/>
<line x1="300.22" y1="413.58" x2="300.22" y2="431.34" class="up-wick"/>
<rect x="296.22" y="419.60" width="8.00" height="2.67" class="up-body"/>
<line x1="315.07" y1="413.00" x2="315.07" y2="433.36" class="down-wick"/>
<rect x="311.07" y="419.60" width="8.00" height="9.83" class="down-body"/>
<line x1="329.93" y1="409.41" x2="329.93" y2="433.64" class="down-wick"/>
<rect x="325.93" y="429.43" width="8.00" height="4.21" class="down-body"/>
<line x1="344.78" y1="420.36" x2="344.78" y2="436.65" class="up-wick"/>
<rect x="340.78" y="429.62" width="8.00" height="4.02" class="up-body"/>
<line x1="359.63" y1="421.07" x2="359.63" y2="429.71" class="up-wick"/>
<rect x="355.63" y="423.82" width="8.00" height="5.80" class="up-body"/>
<line x1="374.49" y1="416.21" x2="374.49" y2="429.58" class="down-wick"/>
<rect x="370.49" y="423.82" width="8.00" height="1.00" class="down-body"/>
<line x1="389.34" y1="419.60" x2="389.34" y2="428.00" class="down-wick"/>
<rect x="385.34" y="424.37" width="8.00" height="2.22" class="down-body"/>
<line x1="404.19" y1="421.68" x2="404.19" y2="429.21" class="up-wick"/>
<rect x="400.19" y="425.20" width="8.00" height="1.26" class="up-body"/>
<line x1="419.04" y1="423.88" x2="419.04" y2="431.82" class="down-wick"/>
<rect x="415.04" y="425.19" width="8.00" height="1.00" class="down-body"/>
<line x1="433.90" y1="409.82" x2="433.90" y2="437.69" class="up-wick"/>
<rect x="429.90" y="417.05" width="8.00" height="8.35" class="up-body"/>
<line x1="448.75" y1="407.16" x2="448.75" y2="429.16" class="down-wick"/>
<rect x="444.75" y="417.19" width="8.00" height="1.38" class="down-body"/>
<line x1="463.60" y1="384.55" x2="463.60" y2="423.15" class="up-wick"/>
<rect x="459.60" y="385.22" width="8.00" height="33.35" class="up-body"/>
<line x1="478.46" y1="359.24" x2="478.46" y2="386.94" class="up-wick"/>
<rect x="474.46" y="380.62" width="8.00" height="4.60" class="up-body"/>
<line x1="493.31" y1="367.76" x2="493.31" y2="387.44" class="up-wick"/>
<rect x="489.31" y="376.10" width="8.00" height="4.52" class="up-body"/>
<line x1="508.16" y1="371.42" x2="508.16" y2="382.06" class="down-wick"/>
<rect x="504.16" y="376.10" width="8.00" height="1.72" class="down-body"/>
<line x1="523.01" y1="373.44" x2="523.01" y2="406.23" class="down-wick"/>
<rect x="519.01" y="377.82" width="8.00" height="25.60" class="down-body"/>
<line x1="537.87" y1="397.63" x2="537.87" y2="416.46" class="down-wick"/>
<rect x="533.87" y="403.40" width="8.00" height="12.24" class="down-body"/>
<line x1="552.72" y1="409.83" x2="552.72" y2="427.58" class="down-wick"/>
<rect x="548.72" y="415.64" width="8.00" height="1.00" class="down-body"/>
<line x1="567.57" y1="403.39" x2="567.57" y2="418.78" class="up-wick"/>
<rect x="563.57" y="403.81" width="8.00" height="12.82" class="up-body"/>
<line x1="582.43" y1="402.22" x2="582.43" y2="412.79" class="down-wick"/>
<rect x="578.43" y="403.81" width="8.00" height="7.30" class="down-body"/>
<line x1="597.28" y1="410.63" x2="597.28" y2="420.95" class="down-wick"/>
<rect x="593.28" y="411.12" width="8.00" height="2.67" class="down-body"/>
<line x1="612.13" y1="398.33" x2="612.13" y2="414.04" class="up-wick"/>
<rect x="608.13" y="412.68" width="8.00" height="1.12" class="up-body"/>
<line x1="626.99" y1="403.98" x2="626.99" y2="424.69" class="down-wick"/>
<rect x="622.99" y="412.68" width="8.00" height="10.91" class="down-body"/>
<line x1="641.84" y1="416.80" x2="641.84" y2="429.59" class="down-wick"/>
<rect x="637.84" y="423.59" width="8.00" height="1.97" class="down-body"/>
<line x1="656.69" y1="409.21" x2="656.69" y2="429.39" class="up-wick"/>
<rect x="652.69" y="417.07" width="8.00" height="8.49" class="up-body"/>
<line x1="671.54" y1="390.50" x2="671.54" y2="419.01" class="up-wick"/>
<rect x="667.54" y="395.83" width="8.00" height="21.32" class="up-body"/>
<line x1="686.40" y1="377.13" x2="686.40" y2="396.41" class="up-wick"/>
<rect x="682.40" y="379.34" width="8.00" height="16.49" class="up-body"/>
<line x1="701.25" y1="369.76" x2="701.25" y2="408.88" class="down-wick"/>
<rect x="697.25" y="379.30" width="8.00" height="29.57" class="down-body"/>
<line x1="716.10" y1="402.68" x2="716.10" y2="417.18" class="up-wick"/>
<rect x="712.10" y="405.66" width="8.00" height="3.21" class="up-body"/>
<line x1="730.96" y1="398.00" x2="730.96" y2="408.88" class="up-wick"/>
<rect x="726.96" y="400.51" width="8.00" height="5.15" class="up-body"/>
<line x1="745.81" y1="398.91" x2="745.81" y2="414.89" class="down-wick"/>
<rect x="741.81" y="400.51" width="8.00" height="12.45" class="down-body"/>
<line x1="760.66" y1="412.34" x2="760.66" y2="427.07" class="down-wick"/>
<rect x="756.66" y="412.96" width="8.00" height="5.15" class="down-body"/>
<line x1="775.51" y1="417.02" x2="775.51" y2="433.32" class="down-wick"/>
<rect x="771.51" y="418.11" width="8.00" height="11.31" class="down-body"/>
<line x1="790.37" y1="416.07" x2="790.37" y2="429.42" class="up-wick"/>
<rect x="786.37" y="425.17" width="8.00" height="4.25" class="up-body"/>
<line x1="805.22" y1="422.52" x2="805.22" y2="439.13" class="down-wick"/>
<rect x="801.22" y="425.17" width="8.00" height="6.06" class="down-body"/>
<line x1="820.07" y1="421.62" x2="820.07" y2="436.10" class="down-wick"/>
<rect x="816.07" y="431.23" width="8.00" height="1.00" class="down-body"/>
<line x1="834.93" y1="419.68" x2="834.93" y2="433.52" class="up-wick"/>
<rect x="830.93" y="428.31" width="8.00" height="2.94" class="up-body"/>
<line x1="849.78" y1="412.87" x2="849.78" y2="428.31" class="up-wick"/>
<rect x="845.78" y="417.36" width="8.00" height="10.95" class="up-body"/>
<line x1="864.63" y1="399.40" x2="864.63" y2="419.83" class="up-wick"/>
<rect x="860.63" y="400.27" width="8.00" height="17.09" class="up-body"/>
<line x1="879.49" y1="396.67" x2="879.49" y2="407.56" class="down-wick"/>
<rect x="875.49" y="400.27" width="8.00" height="3.22" class="down-body"/>
<line x1="894.34" y1="403.31" x2="894.34" y2="421.29" class="down-wick"/>
<rect x="890.34" y="403.47" width="8.00" height="15.84" class="down-body"/>
<line x1="909.19" y1="413.52" x2="909.19" y2="428.25" class="down-wick"/>
<rect x="905.19" y="419.31" width="8.00" height="3.04" class="down-body"/>
<line x1="924.04" y1="414.77" x2="924.04" y2="432.88" class="up-wick"/>
<rect x="920.04" y="419.47" width="8.00" height="2.88" class="up-body"/>
<line x1="938.90" y1="397.76" x2="938.90" y2="446.35" class="down-wick"/>
<rect x="934.90" y="419.47" width="8.00" height="24.60" class="down-body"/>
<line x1="953.75" y1="432.76" x2="953.75" y2="455.54" class="down-wick"/>
<rect x="949.75" y="444.06" width="8.00" height="2.56" class="down-body"/>
<line x1="968.60" y1="427.83" x2="968.60" y2="463.85" class="down-wick"/>
<rect x="964.60" y="446.63" width="8.00" height="3.60" class="down-body"/>
<line x1="983.46" y1="433.20" x2="983.46" y2="458.88" class="up-wick"/>
<rect x="979.46" y="436.61" width="8.00" height="13.62" class="up-body"/>
<line x1="998.31" y1="393.21" x2="998.31" y2="438.74" class="up-wick"/>
<rect x="994.31" y="396.21" width="8.00" height="40.48" class="up-body"/>
<line x1="1013.16" y1="391.44" x2="1013.16" y2="431.01" class="down-wick"/>
<rect x="1009.16" y="396.21" width="8.00" height="24.35" class="down-body"/>
<line x1="1028.01" y1="419.62" x2="1028.01" y2="439.37" class="down-wick"/>
<rect x="1024.01" y="420.56" width="8.00" height="3.10" class="down-body"/>
<line x1="1042.87" y1="412.20" x2="1042.87" y2="436.27" class="up-wick"/>
<rect x="1038.87" y="413.10" width="8.00" height="10.54" class="up-body"/>
<line x1="1057.72" y1="409.23" x2="1057.72" y2="421.75" class="down-wick"/>
<rect x="1053.72" y="413.10" width="8.00" height="6.14" class="down-body"/>
<line x1="1072.57" y1="408.07" x2="1072.57" y2="420.28" class="up-wick"/>
<rect x="1068.57" y="413.10" width="8.00" height="6.14" class="up-body"/>
<line x1="70" y1="371.90" x2="1080" y2="371.90" class="sweep-line"/>
<text x="1076" y="367.90" text-anchor="end" class="level-label">sweep 5130.98</text>
<line x1="70" y1="369.76" x2="1080" y2="369.76" class="entry-line"/>
<text x="1076" y="365.76" text-anchor="end" class="level-label">entry level 5132.61</text>
<text x="70" y="556" class="axis-label">2026-03-09 01:00:00+00:00 to 2026-03-09 17:45:00+00:00</text>
<text x="1080" y="556" text-anchor="end" class="axis-label">5004.64 - 5150.68</text>
<text x="70" y="582" class="panel-title">M5 reaction / execution context</text>
<rect x="70" y="596" width="1010" height="192" class="plot-bg"/>
<line x1="79.18" y1="690.89" x2="79.18" y2="727.52" class="up-wick"/>
<rect x="75.18" y="708.58" width="8.00" height="3.07" class="up-body"/>
<line x1="97.55" y1="708.01" x2="97.55" y2="726.61" class="down-wick"/>
<rect x="93.55" y="708.58" width="8.00" height="8.50" class="down-body"/>
<line x1="115.91" y1="712.18" x2="115.91" y2="740.29" class="down-wick"/>
<rect x="111.91" y="717.08" width="8.00" height="20.61" class="down-body"/>
<line x1="134.27" y1="722.60" x2="134.27" y2="751.99" class="up-wick"/>
<rect x="130.27" y="724.35" width="8.00" height="13.33" class="up-body"/>
<line x1="152.64" y1="721.47" x2="152.64" y2="738.47" class="down-wick"/>
<rect x="148.64" y="724.23" width="8.00" height="4.77" class="down-body"/>
<line x1="171.00" y1="723.73" x2="171.00" y2="745.65" class="down-wick"/>
<rect x="167.00" y="728.68" width="8.00" height="13.71" class="down-body"/>
<line x1="189.36" y1="708.67" x2="189.36" y2="751.52" class="up-wick"/>
<rect x="185.36" y="708.77" width="8.00" height="33.62" class="up-body"/>
<line x1="207.73" y1="703.37" x2="207.73" y2="726.42" class="down-wick"/>
<rect x="203.73" y="708.77" width="8.00" height="14.27" class="down-body"/>
<line x1="226.09" y1="711.81" x2="226.09" y2="734.92" class="up-wick"/>
<rect x="222.09" y="722.13" width="8.00" height="1.00" class="up-body"/>
<line x1="244.45" y1="697.29" x2="244.45" y2="726.46" class="down-wick"/>
<rect x="240.45" y="722.32" width="8.00" height="1.00" class="down-body"/>
<line x1="262.82" y1="674.86" x2="262.82" y2="726.74" class="up-wick"/>
<rect x="258.82" y="682.36" width="8.00" height="40.02" class="up-body"/>
<line x1="281.18" y1="658.74" x2="281.18" y2="682.39" class="up-wick"/>
<rect x="277.18" y="671.44" width="8.00" height="10.92" class="up-body"/>
<line x1="299.55" y1="650.52" x2="299.55" y2="672.82" class="up-wick"/>
<rect x="295.55" y="656.76" width="8.00" height="14.68" class="up-body"/>
<line x1="317.91" y1="640.61" x2="317.91" y2="665.20" class="up-wick"/>
<rect x="313.91" y="653.72" width="8.00" height="3.04" class="up-body"/>
<line x1="336.27" y1="626.84" x2="336.27" y2="660.05" class="up-wick"/>
<rect x="332.27" y="632.11" width="8.00" height="21.61" class="up-body"/>
<line x1="354.64" y1="609.24" x2="354.64" y2="634.27" class="up-wick"/>
<rect x="350.64" y="621.69" width="8.00" height="10.32" class="up-body"/>
<line x1="373.00" y1="614.07" x2="373.00" y2="654.91" class="down-wick"/>
<rect x="369.00" y="621.44" width="8.00" height="32.21" class="down-body"/>
<line x1="391.36" y1="648.61" x2="391.36" y2="702.59" class="down-wick"/>
<rect x="387.36" y="653.69" width="8.00" height="48.87" class="down-body"/>
<line x1="409.73" y1="692.67" x2="409.73" y2="722.38" class="down-wick"/>
<rect x="405.73" y="702.55" width="8.00" height="5.71" class="down-body"/>
<line x1="428.09" y1="687.78" x2="428.09" y2="708.70" class="up-wick"/>
<rect x="424.09" y="695.18" width="8.00" height="13.08" class="up-body"/>
<line x1="446.45" y1="692.58" x2="446.45" y2="706.29" class="up-wick"/>
<rect x="442.45" y="694.90" width="8.00" height="1.00" class="up-body"/>
<line x1="464.82" y1="684.74" x2="464.82" y2="702.59" class="up-wick"/>
<rect x="460.82" y="690.01" width="8.00" height="4.89" class="up-body"/>
<line x1="483.18" y1="681.10" x2="483.18" y2="694.52" class="up-wick"/>
<rect x="479.18" y="683.83" width="8.00" height="6.18" class="up-body"/>
<line x1="501.55" y1="676.62" x2="501.55" y2="687.12" class="up-wick"/>
<rect x="497.55" y="682.61" width="8.00" height="1.22" class="up-body"/>
<line x1="519.91" y1="678.78" x2="519.91" y2="698.76" class="down-wick"/>
<rect x="515.91" y="682.61" width="8.00" height="15.68" class="down-body"/>
<line x1="538.27" y1="692.89" x2="538.27" y2="705.35" class="down-wick"/>
<rect x="534.27" y="698.29" width="8.00" height="5.68" class="down-body"/>
<line x1="556.64" y1="693.33" x2="556.64" y2="716.92" class="down-wick"/>
<rect x="552.64" y="703.97" width="8.00" height="8.34" class="down-body"/>
<line x1="575.00" y1="712.31" x2="575.00" y2="741.32" class="down-wick"/>
<rect x="571.00" y="712.31" width="8.00" height="20.07" class="down-body"/>
<line x1="593.36" y1="726.58" x2="593.36" y2="745.96" class="up-wick"/>
<rect x="589.36" y="730.60" width="8.00" height="1.79" class="up-body"/>
<line x1="611.73" y1="710.84" x2="611.73" y2="731.29" class="up-wick"/>
<rect x="607.73" y="724.60" width="8.00" height="5.99" class="up-body"/>
<line x1="630.09" y1="722.57" x2="630.09" y2="743.86" class="down-wick"/>
<rect x="626.09" y="724.60" width="8.00" height="14.49" class="down-body"/>
<line x1="648.45" y1="722.85" x2="648.45" y2="760.89" class="up-wick"/>
<rect x="644.45" y="722.88" width="8.00" height="16.18" class="up-body"/>
<line x1="666.82" y1="722.00" x2="666.82" y2="751.61" class="down-wick"/>
<rect x="662.82" y="722.88" width="8.00" height="28.70" class="down-body"/>
<line x1="685.18" y1="721.34" x2="685.18" y2="751.58" class="up-wick"/>
<rect x="681.18" y="723.10" width="8.00" height="28.48" class="up-body"/>
<line x1="703.55" y1="719.74" x2="703.55" y2="739.03" class="down-wick"/>
<rect x="699.55" y="723.07" width="8.00" height="10.38" class="down-body"/>
<line x1="721.91" y1="728.37" x2="721.91" y2="741.57" class="down-wick"/>
<rect x="717.91" y="733.45" width="8.00" height="8.00" class="down-body"/>
<line x1="740.27" y1="735.11" x2="740.27" y2="754.43" class="down-wick"/>
<rect x="736.27" y="741.45" width="8.00" height="6.18" class="down-body"/>
<line x1="758.64" y1="744.71" x2="758.64" y2="774.76" class="down-wick"/>
<rect x="754.64" y="747.63" width="8.00" height="12.61" class="down-body"/>
<line x1="777.00" y1="750.95" x2="777.00" y2="774.13" class="up-wick"/>
<rect x="773.00" y="755.91" width="8.00" height="4.33" class="up-body"/>
<line x1="795.36" y1="741.70" x2="795.36" y2="767.51" class="up-wick"/>
<rect x="791.36" y="754.90" width="8.00" height="1.00" class="up-body"/>
<line x1="813.73" y1="732.98" x2="813.73" y2="757.51" class="up-wick"/>
<rect x="809.73" y="739.63" width="8.00" height="15.53" class="up-body"/>
<line x1="832.09" y1="739.06" x2="832.09" y2="761.96" class="down-wick"/>
<rect x="828.09" y="739.63" width="8.00" height="16.34" class="down-body"/>
<line x1="850.45" y1="742.17" x2="850.45" y2="760.33" class="up-wick"/>
<rect x="846.45" y="755.69" width="8.00" height="1.00" class="up-body"/>
<line x1="868.82" y1="733.58" x2="868.82" y2="761.37" class="up-wick"/>
<rect x="864.82" y="735.61" width="8.00" height="20.07" class="up-body"/>
<line x1="887.18" y1="728.34" x2="887.18" y2="749.54" class="down-wick"/>
<rect x="883.18" y="735.61" width="8.00" height="13.33" class="down-body"/>
<line x1="905.55" y1="715.45" x2="905.55" y2="748.94" class="up-wick"/>
<rect x="901.55" y="720.03" width="8.00" height="28.92" class="up-body"/>
<line x1="923.91" y1="713.91" x2="923.91" y2="729.44" class="up-wick"/>
<rect x="919.91" y="717.80" width="8.00" height="2.23" class="up-body"/>
<line x1="942.27" y1="712.09" x2="942.27" y2="729.34" class="down-wick"/>
<rect x="938.27" y="717.80" width="8.00" height="5.02" class="down-body"/>
<line x1="960.64" y1="711.59" x2="960.64" y2="728.71" class="up-wick"/>
<rect x="956.64" y="714.85" width="8.00" height="7.97" class="up-body"/>
<line x1="979.00" y1="691.67" x2="979.00" y2="717.17" class="up-wick"/>
<rect x="975.00" y="697.76" width="8.00" height="17.25" class="up-body"/>
<line x1="997.36" y1="679.97" x2="997.36" y2="703.93" class="up-wick"/>
<rect x="993.36" y="682.04" width="8.00" height="15.62" class="up-body"/>
<line x1="1015.73" y1="673.45" x2="1015.73" y2="684.02" class="down-wick"/>
<rect x="1011.73" y="682.04" width="8.00" height="1.00" class="down-body"/>
<line x1="1034.09" y1="678.81" x2="1034.09" y2="688.79" class="up-wick"/>
<rect x="1030.09" y="681.70" width="8.00" height="1.00" class="up-body"/>
<line x1="1052.45" y1="677.24" x2="1052.45" y2="699.42" class="down-wick"/>
<rect x="1048.45" y="681.70" width="8.00" height="8.03" class="down-body"/>
<line x1="1070.82" y1="689.29" x2="1070.82" y2="710.08" class="down-wick"/>
<rect x="1066.82" y="689.66" width="8.00" height="19.79" class="down-body"/>
<line x1="70" y1="614.35" x2="1080" y2="614.35" class="sweep-line"/>
<text x="1076" y="610.35" text-anchor="end" class="level-label">sweep 5130.98</text>
<line x1="70" y1="609.24" x2="1080" y2="609.24" class="entry-line"/>
<text x="1076" y="605.24" text-anchor="end" class="level-label">entry level 5132.61</text>
<text x="70" y="806" class="axis-label">2026-03-09 10:15:00+00:00 to 2026-03-09 14:45:00+00:00</text>
<text x="1080" y="806" text-anchor="end" class="axis-label">5075.62 - 5136.83</text>
<text x="70" y="832" class="panel-title">M1 execution window</text>
<rect x="70" y="846" width="1010" height="192" class="plot-bg"/>
<line x1="73.71" y1="962.04" x2="73.71" y2="977.97" class="down-wick"/>
<rect x="71.30" y="962.04" width="4.83" height="5.45" class="down-body"/>
<line x1="81.14" y1="946.86" x2="81.14" y2="967.99" class="up-wick"/>
<rect x="78.73" y="947.68" width="4.83" height="18.61" class="up-body"/>
<line x1="88.57" y1="944.75" x2="88.57" y2="963.27" class="down-wick"/>
<rect x="86.15" y="944.75" width="4.83" height="14.20" class="down-body"/>
<line x1="95.99" y1="965.94" x2="95.99" y2="971.93" class="down-wick"/>
<rect x="93.58" y="971.01" width="4.83" height="1.00" class="down-body"/>
<line x1="103.42" y1="969.50" x2="103.42" y2="977.06" class="up-wick"/>
<rect x="101.01" y="975.11" width="4.83" height="1.00" class="up-body"/>
<line x1="110.85" y1="962.58" x2="110.85" y2="972.21" class="down-wick"/>
<rect x="108.43" y="967.49" width="4.83" height="4.57" class="down-body"/>
<line x1="118.27" y1="966.13" x2="118.27" y2="975.93" class="down-wick"/>
<rect x="115.86" y="971.30" width="4.83" height="1.16" class="down-body"/>
<line x1="125.70" y1="982.03" x2="125.70" y2="990.79" class="down-wick"/>
<rect x="123.28" y="982.03" width="4.83" height="6.14" class="down-body"/>
<line x1="133.12" y1="974.10" x2="133.12" y2="986.50" class="down-wick"/>
<rect x="130.71" y="979.23" width="4.83" height="6.27" class="down-body"/>
<line x1="140.55" y1="989.18" x2="140.55" y2="1001.84" class="up-wick"/>
<rect x="138.14" y="991.83" width="4.83" height="5.67" class="up-body"/>
<line x1="147.98" y1="971.90" x2="147.98" y2="979.39" class="down-wick"/>
<rect x="145.56" y="974.67" width="4.83" height="1.76" class="down-body"/>
<line x1="155.40" y1="975.04" x2="155.40" y2="988.96" class="up-wick"/>
<rect x="152.99" y="979.58" width="4.83" height="2.14" class="up-body"/>
<line x1="162.83" y1="973.47" x2="162.83" y2="981.72" class="up-wick"/>
<rect x="160.42" y="979.45" width="4.83" height="1.00" class="up-body"/>
<line x1="170.26" y1="976.81" x2="170.26" y2="982.82" class="down-wick"/>
<rect x="167.84" y="981.72" width="4.83" height="1.00" class="down-body"/>
<line x1="177.68" y1="974.16" x2="177.68" y2="986.03" class="down-wick"/>
<rect x="175.27" y="984.46" width="4.83" height="1.57" class="down-body"/>
<line x1="185.11" y1="992.39" x2="185.11" y2="999.38" class="down-wick"/>
<rect x="182.70" y="992.90" width="4.83" height="4.41" class="down-body"/>
<line x1="192.54" y1="989.68" x2="192.54" y2="1002.06" class="up-wick"/>
<rect x="190.12" y="990.79" width="4.83" height="9.38" class="up-body"/>
<line x1="199.96" y1="959.05" x2="199.96" y2="969.41" class="up-wick"/>
<rect x="197.55" y="959.14" width="4.83" height="10.26" class="up-body"/>
<line x1="207.39" y1="953.73" x2="207.39" y2="969.69" class="up-wick"/>
<rect x="204.98" y="963.33" width="4.83" height="6.36" class="up-body"/>
<line x1="214.82" y1="966.39" x2="214.82" y2="976.87" class="down-wick"/>
<rect x="212.40" y="968.94" width="4.83" height="3.31" class="down-body"/>
<line x1="222.24" y1="971.11" x2="222.24" y2="977.06" class="down-wick"/>
<rect x="219.83" y="973.47" width="4.83" height="2.20" class="down-body"/>
<line x1="229.67" y1="975.20" x2="229.67" y2="985.40" class="up-wick"/>
<rect x="227.26" y="976.02" width="4.83" height="4.69" class="up-body"/>
<line x1="237.10" y1="962.20" x2="237.10" y2="974.29" class="down-wick"/>
<rect x="234.68" y="969.47" width="4.83" height="3.09" class="down-body"/>
<line x1="244.52" y1="957.82" x2="244.52" y2="974.60" class="up-wick"/>
<rect x="242.11" y="957.82" width="4.83" height="14.45" class="up-body"/>
<line x1="251.95" y1="952.56" x2="251.95" y2="965.82" class="down-wick"/>
<rect x="249.53" y="954.11" width="4.83" height="9.23" class="down-body"/>
<line x1="259.38" y1="958.64" x2="259.38" y2="977.18" class="up-wick"/>
<rect x="256.96" y="958.64" width="4.83" height="14.17" class="up-body"/>
<line x1="266.80" y1="942.02" x2="266.80" y2="957.38" class="up-wick"/>
<rect x="264.39" y="951.18" width="4.83" height="5.98" class="up-body"/>
<line x1="274.23" y1="925.11" x2="274.23" y2="941.73" class="up-wick"/>
<rect x="271.81" y="932.63" width="4.83" height="1.95" class="up-body"/>
<line x1="281.65" y1="917.87" x2="281.65" y2="928.07" class="up-wick"/>
<rect x="279.24" y="922.02" width="4.83" height="3.59" class="up-body"/>
<line x1="289.08" y1="908.92" x2="289.08" y2="926.37" class="down-wick"/>
<rect x="286.67" y="910.81" width="4.83" height="14.20" class="down-body"/>
<line x1="296.51" y1="907.22" x2="296.51" y2="923.06" class="up-wick"/>
<rect x="294.09" y="907.22" width="4.83" height="14.45" class="up-body"/>
<line x1="303.93" y1="903.48" x2="303.93" y2="911.54" class="down-wick"/>
<rect x="301.52" y="906.85" width="4.83" height="2.99" class="down-body"/>
<line x1="311.36" y1="905.56" x2="311.36" y2="910.94" class="up-wick"/>
<rect x="308.95" y="906.94" width="4.83" height="1.00" class="up-body"/>
<line x1="318.79" y1="898.22" x2="318.79" y2="910.75" class="up-wick"/>
<rect x="316.37" y="899.04" width="4.83" height="10.89" class="up-body"/>
<line x1="326.21" y1="897.68" x2="326.21" y2="904.36" class="down-wick"/>
<rect x="323.80" y="900.36" width="4.83" height="2.33" class="down-body"/>
<line x1="333.64" y1="901.21" x2="333.64" y2="910.25" class="up-wick"/>
<rect x="331.23" y="903.45" width="4.83" height="1.00" class="up-body"/>
<line x1="341.07" y1="892.24" x2="341.07" y2="899.07" class="down-wick"/>
<rect x="338.65" y="892.58" width="4.83" height="3.12" class="down-body"/>
<line x1="348.49" y1="876.90" x2="348.49" y2="883.58" class="down-wick"/>
<rect x="346.08" y="881.00" width="4.83" height="1.20" class="down-body"/>
<line x1="355.92" y1="871.49" x2="355.92" y2="880.97" class="up-wick"/>
<rect x="353.51" y="871.77" width="4.83" height="7.52" class="up-body"/>
<line x1="363.35" y1="859.24" x2="363.35" y2="865.54" class="up-wick"/>
<rect x="360.93" y="864.37" width="4.83" height="1.00" class="up-body"/>
<line x1="370.77" y1="864.09" x2="370.77" y2="880.53" class="down-wick"/>
<rect x="368.36" y="871.49" width="4.83" height="7.84" class="down-body"/>
<line x1="378.20" y1="873.72" x2="378.20" y2="887.52" class="down-wick"/>
<rect x="375.78" y="881.03" width="4.83" height="1.00" class="down-body"/>
<line x1="385.62" y1="878.89" x2="385.62" y2="905.08" class="down-wick"/>
<rect x="383.21" y="880.30" width="4.83" height="23.52" class="down-body"/>
<line x1="393.05" y1="904.67" x2="393.05" y2="919.00" class="down-wick"/>
<rect x="390.64" y="908.61" width="4.83" height="6.55" class="down-body"/>
<line x1="400.48" y1="922.75" x2="400.48" y2="937.20" class="down-wick"/>
<rect x="398.06" y="925.77" width="4.83" height="10.99" class="down-body"/>
<line x1="407.90" y1="946.86" x2="407.90" y2="972.81" class="down-wick"/>
<rect x="405.49" y="952.91" width="4.83" height="18.51" class="down-body"/>
<line x1="415.33" y1="942.99" x2="415.33" y2="954.36" class="up-wick"/>
<rect x="412.92" y="951.08" width="4.83" height="2.24" class="up-body"/>
<line x1="422.76" y1="956.88" x2="422.76" y2="968.24" class="up-wick"/>
<rect x="420.34" y="958.64" width="4.83" height="3.97" class="up-body"/>
<line x1="430.18" y1="938.90" x2="430.18" y2="946.30" class="down-wick"/>
<rect x="427.77" y="940.69" width="4.83" height="2.58" class="down-body"/>
<line x1="437.61" y1="948.25" x2="437.61" y2="956.00" class="down-wick"/>
<rect x="435.20" y="948.38" width="4.83" height="2.52" class="down-body"/>
<line x1="445.04" y1="945.20" x2="445.04" y2="956.66" class="down-wick"/>
<rect x="442.62" y="945.54" width="4.83" height="2.27" class="down-body"/>
<line x1="452.46" y1="947.15" x2="452.46" y2="952.66" class="down-wick"/>
<rect x="450.05" y="948.53" width="4.83" height="4.12" class="down-body"/>
<line x1="459.89" y1="943.94" x2="459.89" y2="950.23" class="up-wick"/>
<rect x="457.48" y="945.23" width="4.83" height="3.49" class="up-body"/>
<line x1="467.32" y1="935.03" x2="467.32" y2="945.32" class="up-wick"/>
<rect x="464.90" y="936.19" width="4.83" height="4.25" class="up-body"/>
<line x1="474.74" y1="945.83" x2="474.74" y2="952.94" class="up-wick"/>
<rect x="472.33" y="946.52" width="4.83" height="1.00" class="up-body"/>
<line x1="482.17" y1="934.55" x2="482.17" y2="944.75" class="up-wick"/>
<rect x="479.76" y="936.98" width="4.83" height="3.34" class="up-body"/>
<line x1="489.60" y1="931.37" x2="489.60" y2="944.85" class="up-wick"/>
<rect x="487.18" y="937.54" width="4.83" height="2.33" class="up-body"/>
<line x1="497.02" y1="933.26" x2="497.02" y2="937.54" class="up-wick"/>
<rect x="494.61" y="934.11" width="4.83" height="1.57" class="up-body"/>
<line x1="504.45" y1="926.87" x2="504.45" y2="932.29" class="down-wick"/>
<rect x="502.03" y="927.09" width="4.83" height="1.92" class="down-body"/>
<line x1="511.88" y1="929.42" x2="511.88" y2="936.16" class="down-wick"/>
<rect x="509.46" y="929.61" width="4.83" height="5.57" class="down-body"/>
<line x1="519.30" y1="931.12" x2="519.30" y2="938.02" class="down-wick"/>
<rect x="516.89" y="932.89" width="4.83" height="2.14" class="down-body"/>
<line x1="526.73" y1="930.49" x2="526.73" y2="935.31" class="down-wick"/>
<rect x="524.31" y="930.62" width="4.83" height="2.52" class="down-body"/>
<line x1="534.15" y1="941.70" x2="534.15" y2="949.10" class="down-wick"/>
<rect x="531.74" y="941.70" width="4.83" height="6.93" class="down-body"/>
<line x1="541.58" y1="946.49" x2="541.58" y2="953.04" class="up-wick"/>
<rect x="539.17" y="948.85" width="4.83" height="2.96" class="up-body"/>
<line x1="549.01" y1="946.77" x2="549.01" y2="955.71" class="down-wick"/>
<rect x="546.59" y="948.34" width="4.83" height="5.57" class="down-body"/>
<line x1="556.43" y1="945.61" x2="556.43" y2="955.30" class="up-wick"/>
<rect x="554.02" y="947.18" width="4.83" height="7.15" class="up-body"/>
<line x1="563.86" y1="944.85" x2="563.86" y2="952.75" class="down-wick"/>
<rect x="561.45" y="945.83" width="4.83" height="4.60" class="down-body"/>
<line x1="571.29" y1="953.98" x2="571.29" y2="967.33" class="down-wick"/>
<rect x="568.87" y="958.83" width="4.83" height="3.87" class="down-body"/>
<line x1="578.71" y1="978.26" x2="578.71" y2="991.83" class="up-wick"/>
<rect x="576.30" y="981.75" width="4.83" height="1.00" class="up-body"/>
<line x1="586.14" y1="975.04" x2="586.14" y2="984.93" class="down-wick"/>
<rect x="583.73" y="977.18" width="4.83" height="4.06" class="down-body"/>
<line x1="593.57" y1="982.82" x2="593.57" y2="993.49" class="down-wick"/>
<rect x="591.15" y="982.85" width="4.83" height="6.39" class="down-body"/>
<line x1="600.99" y1="982.03" x2="600.99" y2="992.20" class="up-wick"/>
<rect x="598.58" y="986.16" width="4.83" height="1.51" class="up-body"/>
<line x1="608.42" y1="980.62" x2="608.42" y2="991.51" class="up-wick"/>
<rect x="606.01" y="981.06" width="4.83" height="6.20" class="up-body"/>
<line x1="615.85" y1="970.19" x2="615.85" y2="975.70" class="down-wick"/>
<rect x="613.43" y="972.18" width="4.83" height="3.31" class="down-body"/>
<line x1="623.27" y1="963.27" x2="623.27" y2="981.75" class="down-wick"/>
<rect x="620.86" y="963.43" width="4.83" height="14.42" class="down-body"/>
<line x1="630.70" y1="974.92" x2="630.70" y2="982.54" class="down-wick"/>
<rect x="628.28" y="975.04" width="4.83" height="4.28" class="down-body"/>
<line x1="638.12" y1="976.33" x2="638.12" y2="990.60" class="down-wick"/>
<rect x="635.71" y="976.74" width="4.83" height="13.54" class="down-body"/>
<line x1="645.55" y1="983.92" x2="645.55" y2="991.70" class="down-wick"/>
<rect x="643.14" y="984.02" width="4.83" height="5.57" class="down-body"/>
<line x1="652.98" y1="994.03" x2="652.98" y2="1011.47" class="down-wick"/>
<rect x="650.56" y="997.49" width="4.83" height="2.02" class="down-body"/>
<line x1="660.40" y1="981.97" x2="660.40" y2="990.47" class="up-wick"/>
<rect x="657.99" y="983.36" width="4.83" height="4.22" class="up-body"/>
<line x1="667.83" y1="972.43" x2="667.83" y2="979.67" class="down-wick"/>
<rect x="665.42" y="973.31" width="4.83" height="2.02" class="down-body"/>
<line x1="675.26" y1="974.89" x2="675.26" y2="981.09" class="down-wick"/>
<rect x="672.84" y="975.99" width="4.83" height="3.65" class="down-body"/>
<line x1="682.68" y1="983.92" x2="682.68" y2="1002.15" class="down-wick"/>
<rect x="680.27" y="984.84" width="4.83" height="17.29" class="down-body"/>
<line x1="690.11" y1="975.14" x2="690.11" y2="984.52" class="down-wick"/>
<rect x="687.70" y="979.55" width="4.83" height="4.57" class="down-body"/>
<line x1="697.54" y1="971.77" x2="697.54" y2="986.66" class="up-wick"/>
<rect x="695.12" y="976.24" width="4.83" height="7.93" class="up-body"/>
<line x1="704.96" y1="971.90" x2="704.96" y2="978.29" class="down-wick"/>
<rect x="702.55" y="973.50" width="4.83" height="3.15" class="down-body"/>
<line x1="712.39" y1="970.16" x2="712.39" y2="985.24" class="up-wick"/>
<rect x="709.98" y="974.48" width="4.83" height="10.77" class="up-body"/>
<line x1="719.82" y1="974.51" x2="719.82" y2="984.46" class="down-wick"/>
<rect x="717.40" y="977.50" width="4.83" height="6.42" class="down-body"/>
<line x1="727.24" y1="981.25" x2="727.24" y2="987.26" class="up-wick"/>
<rect x="724.83" y="985.59" width="4.83" height="1.00" class="up-body"/>
<line x1="734.67" y1="979.83" x2="734.67" y2="984.46" class="up-wick"/>
<rect x="732.26" y="981.09" width="4.83" height="2.11" class="up-body"/>
<line x1="742.10" y1="986.85" x2="742.10" y2="993.27" class="up-wick"/>
<rect x="739.68" y="990.38" width="4.83" height="1.57" class="up-body"/>
<line x1="749.52" y1="987.45" x2="749.52" y2="997.05" class="down-wick"/>
<rect x="747.11" y="987.95" width="4.83" height="1.00" class="down-body"/>
<line x1="756.95" y1="994.97" x2="756.95" y2="1004.99" class="down-wick"/>
<rect x="754.53" y="995.48" width="4.83" height="2.68" class="down-body"/>
<line x1="764.38" y1="1007.25" x2="764.38" y2="1019.53" class="up-wick"/>
<rect x="761.96" y="1008.04" width="4.83" height="11.46" class="up-body"/>
<line x1="771.80" y1="1000.17" x2="771.80" y2="1014.59" class="down-wick"/>
<rect x="769.39" y="1006.69" width="4.83" height="7.02" class="down-body"/>
<line x1="779.23" y1="1004.26" x2="779.23" y2="1020.60" class="down-wick"/>
<rect x="776.81" y="1010.81" width="4.83" height="1.00" class="down-body"/>
<line x1="786.65" y1="1001.49" x2="786.65" y2="1018.87" class="down-wick"/>
<rect x="784.24" y="1005.90" width="4.83" height="12.88" class="down-body"/>
<line x1="794.08" y1="1006.47" x2="794.08" y2="1024.76" class="up-wick"/>
<rect x="791.67" y="1006.47" width="4.83" height="6.90" class="up-body"/>
<line x1="801.51" y1="993.75" x2="801.51" y2="1003.73" class="down-wick"/>
<rect x="799.09" y="994.88" width="4.83" height="8.82" class="down-body"/>
<line x1="808.93" y1="1007.06" x2="808.93" y2="1018.12" class="up-wick"/>
<rect x="806.52" y="1009.17" width="4.83" height="4.69" class="up-body"/>
<line x1="816.36" y1="989.37" x2="816.36" y2="1006.37" class="up-wick"/>
<rect x="813.95" y="989.37" width="4.83" height="16.34" class="up-body"/>
<line x1="823.79" y1="983.45" x2="823.79" y2="994.34" class="down-wick"/>
<rect x="821.37" y="990.06" width="4.83" height="3.81" class="down-body"/>
<line x1="831.21" y1="990.12" x2="831.21" y2="998.56" class="up-wick"/>
<rect x="828.80" y="990.12" width="4.83" height="6.64" class="up-body"/>
<line x1="838.64" y1="989.56" x2="838.64" y2="998.50" class="down-wick"/>
<rect x="836.23" y="991.29" width="4.83" height="2.93" class="down-body"/>
<line x1="846.07" y1="1001.08" x2="846.07" y2="1009.68" class="down-wick"/>
<rect x="843.65" y="1001.40" width="4.83" height="5.95" class="down-body"/>
<line x1="853.49" y1="1006.53" x2="853.49" y2="1010.91" class="down-wick"/>
<rect x="851.08" y="1006.53" width="4.83" height="1.42" class="down-body"/>
<line x1="860.92" y1="992.68" x2="860.92" y2="997.56" class="down-wick"/>
<rect x="858.51" y="994.97" width="4.83" height="1.92" class="down-body"/>
<line x1="868.35" y1="996.64" x2="868.35" y2="1006.25" class="down-wick"/>
<rect x="865.93" y="997.59" width="4.83" height="8.66" class="down-body"/>
<line x1="875.77" y1="1000.89" x2="875.77" y2="1008.51" class="up-wick"/>
<rect x="873.36" y="1005.96" width="4.83" height="2.55" class="up-body"/>
<line x1="883.20" y1="989.02" x2="883.20" y2="996.93" class="down-wick"/>
<rect x="880.78" y="990.41" width="4.83" height="2.96" class="down-body"/>
<line x1="890.62" y1="984.08" x2="890.62" y2="988.55" class="up-wick"/>
<rect x="888.21" y="984.36" width="4.83" height="1.73" class="up-body"/>
<line x1="898.05" y1="984.71" x2="898.05" y2="992.86" class="down-wick"/>
<rect x="895.64" y="989.75" width="4.83" height="2.58" class="down-body"/>
<line x1="905.48" y1="992.55" x2="905.48" y2="1000.07" class="down-wick"/>
<rect x="903.06" y="995.54" width="4.83" height="3.94" class="down-body"/>
<line x1="912.90" y1="972.52" x2="912.90" y2="987.80" class="up-wick"/>
<rect x="910.49" y="973.03" width="4.83" height="13.85" class="up-body"/>
<line x1="920.33" y1="967.74" x2="920.33" y2="977.85" class="down-wick"/>
<rect x="917.92" y="968.62" width="4.83" height="2.36" class="down-body"/>
<line x1="927.76" y1="967.08" x2="927.76" y2="975.42" class="down-wick"/>
<rect x="925.34" y="970.45" width="4.83" height="4.28" class="down-body"/>
<line x1="935.18" y1="973.47" x2="935.18" y2="979.89" class="down-wick"/>
<rect x="932.77" y="973.97" width="4.83" height="1.00" class="down-body"/>
<line x1="942.61" y1="964.31" x2="942.61" y2="970.07" class="up-wick"/>
<rect x="940.20" y="968.21" width="4.83" height="1.00" class="up-body"/>
<line x1="950.04" y1="964.24" x2="950.04" y2="975.14" class="down-wick"/>
<rect x="947.62" y="965.22" width="4.83" height="9.19" class="down-body"/>
<line x1="957.46" y1="968.18" x2="957.46" y2="974.67" class="down-wick"/>
<rect x="955.05" y="970.04" width="4.83" height="1.00" class="down-body"/>
<line x1="964.89" y1="971.45" x2="964.89" y2="978.38" class="down-wick"/>
<rect x="962.48" y="973.25" width="4.83" height="4.88" class="down-body"/>
<line x1="972.32" y1="961.98" x2="972.32" y2="971.90" class="up-wick"/>
<rect x="969.90" y="962.45" width="4.83" height="5.07" class="up-body"/>
<line x1="979.74" y1="963.80" x2="979.74" y2="970.76" class="up-wick"/>
<rect x="977.33" y="965.25" width="4.83" height="1.00" class="up-body"/>
<line x1="987.17" y1="952.56" x2="987.17" y2="962.42" class="down-wick"/>
<rect x="984.76" y="954.39" width="4.83" height="1.00" class="down-body"/>
<line x1="994.60" y1="949.10" x2="994.60" y2="959.30" class="up-wick"/>
<rect x="992.18" y="953.60" width="4.83" height="1.32" class="up-body"/>
<line x1="1002.02" y1="945.98" x2="1002.02" y2="954.29" class="down-wick"/>
<rect x="999.61" y="948.00" width="4.83" height="5.35" class="down-body"/>
<line x1="1009.45" y1="942.33" x2="1009.45" y2="948.75" class="up-wick"/>
<rect x="1007.03" y="944.03" width="4.83" height="4.44" class="up-body"/>
<line x1="1016.88" y1="930.24" x2="1016.88" y2="935.18" class="up-wick"/>
<rect x="1014.46" y="932.32" width="4.83" height="2.83" class="up-body"/>
<line x1="1024.30" y1="923.69" x2="1024.30" y2="929.14" class="up-wick"/>
<rect x="1021.89" y="925.90" width="4.83" height="3.05" class="up-body"/>
<line x1="1031.73" y1="925.36" x2="1031.73" y2="932.29" class="up-wick"/>
<rect x="1029.31" y="926.43" width="4.83" height="1.00" class="up-body"/>
<line x1="1039.15" y1="929.08" x2="1039.15" y2="939.09" class="down-wick"/>
<rect x="1036.74" y="932.60" width="4.83" height="1.00" class="down-body"/>
<line x1="1046.58" y1="932.19" x2="1046.58" y2="937.58" class="down-wick"/>
<rect x="1044.17" y="934.77" width="4.83" height="1.13" class="down-body"/>
<line x1="1054.01" y1="931.56" x2="1054.01" y2="934.55" class="up-wick"/>
<rect x="1051.59" y="931.97" width="4.83" height="1.29" class="up-body"/>
<line x1="1061.43" y1="927.50" x2="1061.43" y2="935.03" class="up-wick"/>
<rect x="1059.02" y="929.36" width="4.83" height="4.88" class="up-body"/>
<line x1="1068.86" y1="942.33" x2="1068.86" y2="949.04" class="up-wick"/>
<rect x="1066.45" y="946.01" width="4.83" height="3.02" class="up-body"/>
<line x1="1076.29" y1="939.59" x2="1076.29" y2="948.69" class="down-wick"/>
<rect x="1073.87" y="939.97" width="4.83" height="5.89" class="down-body"/>
<line x1="70" y1="864.37" x2="1080" y2="864.37" class="sweep-line"/>
<text x="1076" y="860.37" text-anchor="end" class="level-label">sweep 5130.98</text>
<line x1="70" y1="859.24" x2="1080" y2="859.24" class="entry-line"/>
<text x="1076" y="855.24" text-anchor="end" class="level-label">entry level 5132.61</text>
<text x="70" y="1056" class="axis-label">2026-03-09 10:15:00+00:00 to 2026-03-09 14:45:00+00:00</text>
<text x="1080" y="1056" text-anchor="end" class="axis-label">5075.83 - 5136.82</text>
</svg>