<svg xmlns="http://www.w3.org/2000/svg" width="1120" height="1054" viewBox="0 0 1120 1054">
<style>
text{font-family:Arial,Helvetica,sans-serif}.title{font-size:21px;font-weight:700;fill:#1f2937}.subtitle{font-size:12px;fill:#4b5563}.panel-title{font-size:15px;font-weight:700;fill:#111827}.muted{font-size:13px;fill:#6b7280}.plot-bg{fill:#f8fafc;stroke:#cbd5e1;stroke-width:1}.up-body{fill:#15803d;stroke:#14532d;stroke-width:.8}.down-body{fill:#b91c1c;stroke:#7f1d1d;stroke-width:.8}.up-wick{stroke:#14532d;stroke-width:1}.down-wick{stroke:#7f1d1d;stroke-width:1}.sweep-line{stroke:#7c3aed;stroke-width:1.6;stroke-dasharray:6 4}.number-line{stroke:#0f766e;stroke-width:1.4;stroke-dasharray:3 4}.entry-line{stroke:#2563eb;stroke-width:1.4}.sl-line{stroke:#dc2626;stroke-width:1.4}.tp-line{stroke:#16a34a;stroke-width:1.4}.level-label,.axis-label{font-size:11px;fill:#374151}
</style>
<text x="28" y="28" class="title">Adelin v2 visual review sample sample_298</text>
<text x="28" y="48" class="subtitle">Candidate windows are for visual labeling only and are not trade signals.</text>
<text x="560" y="48" class="subtitle" text-anchor="middle">LARGE_LOWER_WICK_REVERSAL_VISUAL_CANDIDATE | PRE_ANCHOR_SWEEP_EXTREME_CANDIDATE</text>
<text x="70" y="82" class="panel-title">H1 liquidity context</text>
<rect x="70" y="96" width="1010" height="192" class="plot-bg"/>
<line x1="81.48" y1="239.90" x2="81.48" y2="253.88" class="up-wick"/>
<rect x="77.48" y="242.46" width="8.00" height="6.64" class="up-body"/>
<line x1="104.43" y1="220.14" x2="104.43" y2="246.88" class="up-wick"/>
<rect x="100.43" y="236.06" width="8.00" height="6.40" class="up-body"/>
<line x1="127.39" y1="221.76" x2="127.39" y2="238.21" class="up-wick"/>
<rect x="123.39" y="232.27" width="8.00" height="3.95" class="up-body"/>
<line x1="150.34" y1="229.52" x2="150.34" y2="244.98" class="down-wick"/>
<rect x="146.34" y="232.27" width="8.00" height="9.03" class="down-body"/>
<line x1="173.30" y1="238.67" x2="173.30" y2="259.63" class="down-wick"/>
<rect x="169.30" y="241.30" width="8.00" height="17.97" class="down-body"/>
<line x1="196.25" y1="248.51" x2="196.25" y2="262.03" class="up-wick"/>
<rect x="192.25" y="255.76" width="8.00" height="3.58" class="up-body"/>
<line x1="219.20" y1="252.58" x2="219.20" y2="269.46" class="down-wick"/>
<rect x="215.20" y="255.76" width="8.00" height="10.69" class="down-body"/>
<line x1="242.16" y1="257.70" x2="242.16" y2="274.76" class="up-wick"/>
<rect x="238.16" y="262.29" width="8.00" height="4.16" class="up-body"/>
<line x1="265.11" y1="243.10" x2="265.11" y2="268.20" class="up-wick"/>
<rect x="261.11" y="248.71" width="8.00" height="13.58" class="up-body"/>
<line x1="288.07" y1="244.15" x2="288.07" y2="267.41" class="down-wick"/>
<rect x="284.07" y="248.71" width="8.00" height="5.02" class="down-body"/>
<line x1="311.02" y1="189.74" x2="311.02" y2="254.14" class="up-wick"/>
<rect x="307.02" y="193.57" width="8.00" height="60.16" class="up-body"/>
<line x1="333.98" y1="158.60" x2="333.98" y2="199.84" class="up-wick"/>
<rect x="329.98" y="182.71" width="8.00" height="10.86" class="up-body"/>
<line x1="356.93" y1="175.15" x2="356.93" y2="196.78" class="down-wick"/>
<rect x="352.93" y="182.54" width="8.00" height="6.08" class="down-body"/>
<line x1="379.89" y1="184.14" x2="379.89" y2="211.51" class="down-wick"/>
<rect x="375.89" y="188.62" width="8.00" height="22.71" class="down-body"/>
<line x1="402.84" y1="178.97" x2="402.84" y2="211.34" class="up-wick"/>
<rect x="398.84" y="188.05" width="8.00" height="23.27" class="up-body"/>
<line x1="425.80" y1="180.71" x2="425.80" y2="200.38" class="down-wick"/>
<rect x="421.80" y="188.05" width="8.00" height="1.94" class="down-body"/>
<line x1="448.75" y1="185.34" x2="448.75" y2="207.95" class="down-wick"/>
<rect x="444.75" y="190.02" width="8.00" height="16.27" class="down-body"/>
<line x1="471.70" y1="190.32" x2="471.70" y2="225.35" class="up-wick"/>
<rect x="467.70" y="212.55" width="8.00" height="10.62" class="up-body"/>
<line x1="494.66" y1="206.46" x2="494.66" y2="244.14" class="down-wick"/>
<rect x="490.66" y="212.55" width="8.00" height="27.91" class="down-body"/>
<line x1="517.61" y1="226.63" x2="517.61" y2="262.89" class="down-wick"/>
<rect x="513.61" y="240.46" width="8.00" height="12.67" class="down-body"/>
<line x1="540.57" y1="219.80" x2="540.57" y2="253.37" class="up-wick"/>
<rect x="536.57" y="224.58" width="8.00" height="28.56" class="up-body"/>
<line x1="563.52" y1="201.63" x2="563.52" y2="232.80" class="up-wick"/>
<rect x="559.52" y="215.59" width="8.00" height="8.97" class="up-body"/>
<line x1="586.48" y1="187.80" x2="586.48" y2="217.52" class="up-wick"/>
<rect x="582.48" y="204.17" width="8.00" height="11.42" class="up-body"/>
<line x1="609.43" y1="202.14" x2="609.43" y2="211.66" class="up-wick"/>
<rect x="605.43" y="203.56" width="8.00" height="1.00" class="up-body"/>
<line x1="632.39" y1="179.16" x2="632.39" y2="203.54" class="up-wick"/>
<rect x="628.39" y="183.79" width="8.00" height="19.76" class="up-body"/>
<line x1="655.34" y1="162.18" x2="655.34" y2="188.04" class="up-wick"/>
<rect x="651.34" y="176.17" width="8.00" height="7.64" class="up-body"/>
<line x1="678.30" y1="174.21" x2="678.30" y2="188.70" class="down-wick"/>
<rect x="674.30" y="176.15" width="8.00" height="3.87" class="down-body"/>
<line x1="701.25" y1="169.89" x2="701.25" y2="181.87" class="up-wick"/>
<rect x="697.25" y="171.62" width="8.00" height="8.38" class="up-body"/>
<line x1="724.20" y1="169.73" x2="724.20" y2="182.93" class="down-wick"/>
<rect x="720.20" y="171.62" width="8.00" height="4.56" class="down-body"/>
<line x1="747.16" y1="170.26" x2="747.16" y2="179.72" class="down-wick"/>
<rect x="743.16" y="175.98" width="8.00" height="1.00" class="down-body"/>
<line x1="770.11" y1="139.13" x2="770.11" y2="181.52" class="up-wick"/>
<rect x="766.11" y="155.31" width="8.00" height="20.90" class="up-body"/>
<line x1="793.07" y1="141.14" x2="793.07" y2="166.19" class="up-wick"/>
<rect x="789.07" y="147.75" width="8.00" height="7.56" class="up-body"/>
<line x1="816.02" y1="140.57" x2="816.02" y2="188.24" class="down-wick"/>
<rect x="812.02" y="147.75" width="8.00" height="35.51" class="down-body"/>
<line x1="838.98" y1="169.21" x2="838.98" y2="191.62" class="up-wick"/>
<rect x="834.98" y="171.40" width="8.00" height="11.86" class="up-body"/>
<line x1="861.93" y1="157.40" x2="861.93" y2="181.99" class="up-wick"/>
<rect x="857.93" y="163.94" width="8.00" height="7.46" class="up-body"/>
<line x1="884.89" y1="162.87" x2="884.89" y2="176.23" class="down-wick"/>
<rect x="880.89" y="163.94" width="8.00" height="6.51" class="down-body"/>
<line x1="907.84" y1="168.62" x2="907.84" y2="192.42" class="down-wick"/>
<rect x="903.84" y="170.47" width="8.00" height="18.99" class="down-body"/>
<line x1="930.80" y1="183.31" x2="930.80" y2="202.36" class="down-wick"/>
<rect x="926.80" y="189.46" width="8.00" height="12.39" class="down-body"/>
<line x1="953.75" y1="186.93" x2="953.75" y2="206.40" class="up-wick"/>
<rect x="949.75" y="190.61" width="8.00" height="11.25" class="up-body"/>
<line x1="976.70" y1="183.39" x2="976.70" y2="199.36" class="up-wick"/>
<rect x="972.70" y="192.71" width="8.00" height="1.00" class="up-body"/>
<line x1="999.66" y1="184.76" x2="999.66" y2="206.96" class="up-wick"/>
<rect x="995.66" y="190.51" width="8.00" height="2.21" class="up-body"/>
<line x1="1022.61" y1="163.99" x2="1022.61" y2="214.44" class="up-wick"/>
<rect x="1018.61" y="164.38" width="8.00" height="26.12" class="up-body"/>
<line x1="1045.57" y1="109.24" x2="1045.57" y2="176.45" class="up-wick"/>
<rect x="1041.57" y="120.37" width="8.00" height="44.01" class="up-body"/>
<line x1="1068.52" y1="118.65" x2="1068.52" y2="150.66" class="down-wick"/>
<rect x="1064.52" y="120.37" width="8.00" height="28.31" class="down-body"/>
<line x1="70" y1="219.83" x2="1080" y2="219.83" class="sweep-line"/>
<text x="1076" y="215.83" text-anchor="end" class="level-label">sweep 4475.58</text>
<line x1="70" y1="219.80" x2="1080" y2="219.80" class="entry-line"/>
<text x="1076" y="215.80" text-anchor="end" class="level-label">entry level 4475.62</text>
<text x="70" y="306" class="axis-label">2026-03-27 06:00:00+00:00 to 2026-03-31 05:00:00+00:00</text>
<text x="1080" y="306" text-anchor="end" class="axis-label">4386.86 - 4636.73</text>
<text x="70" y="332" class="panel-title">M15 liquidity / reaction context</text>
<rect x="70" y="346" width="1010" height="192" class="plot-bg"/>
<line x1="82.02" y1="405.49" x2="82.02" y2="463.06" class="up-wick"/>
<rect x="78.02" y="427.50" width="8.00" height="31.97" class="up-body"/>
<line x1="106.07" y1="407.82" x2="106.07" y2="434.45" class="up-wick"/>
<rect x="102.07" y="411.62" width="8.00" height="15.89" class="up-body"/>
<line x1="130.12" y1="406.52" x2="130.12" y2="434.83" class="down-wick"/>
<rect x="126.12" y="411.62" width="8.00" height="19.74" class="down-body"/>
<line x1="154.17" y1="426.95" x2="154.17" y2="447.75" class="down-wick"/>
<rect x="150.17" y="431.36" width="8.00" height="10.67" class="down-body"/>
<line x1="178.21" y1="432.01" x2="178.21" y2="467.28" class="down-wick"/>
<rect x="174.21" y="442.03" width="8.00" height="8.04" class="down-body"/>
<line x1="202.26" y1="442.51" x2="202.26" y2="458.48" class="down-wick"/>
<rect x="198.26" y="450.07" width="8.00" height="8.06" class="down-body"/>
<line x1="226.31" y1="458.07" x2="226.31" y2="491.79" class="down-wick"/>
<rect x="222.31" y="458.20" width="8.00" height="25.34" class="down-body"/>
<line x1="250.36" y1="478.87" x2="250.36" y2="493.94" class="down-wick"/>
<rect x="246.36" y="483.54" width="8.00" height="4.34" class="down-body"/>
<line x1="274.40" y1="484.44" x2="274.40" y2="524.76" class="down-wick"/>
<rect x="270.40" y="487.89" width="8.00" height="28.63" class="down-body"/>
<line x1="298.45" y1="465.16" x2="298.45" y2="520.43" class="up-wick"/>
<rect x="294.45" y="487.31" width="8.00" height="29.21" class="up-body"/>
<line x1="322.50" y1="474.88" x2="322.50" y2="504.58" class="down-wick"/>
<rect x="318.50" y="487.32" width="8.00" height="13.60" class="down-body"/>
<line x1="346.55" y1="495.63" x2="346.55" y2="510.97" class="down-wick"/>
<rect x="342.55" y="500.92" width="8.00" height="7.79" class="down-body"/>
<line x1="370.60" y1="471.59" x2="370.60" y2="509.11" class="up-wick"/>
<rect x="366.60" y="473.87" width="8.00" height="34.86" class="up-body"/>
<line x1="394.64" y1="465.59" x2="394.64" y2="492.02" class="down-wick"/>
<rect x="390.64" y="473.80" width="8.00" height="14.41" class="down-body"/>
<line x1="418.69" y1="453.93" x2="418.69" y2="492.61" class="up-wick"/>
<rect x="414.69" y="459.55" width="8.00" height="28.65" class="up-body"/>
<line x1="442.74" y1="454.64" x2="442.74" y2="471.65" class="down-wick"/>
<rect x="438.74" y="459.55" width="8.00" height="2.25" class="down-body"/>
<line x1="466.79" y1="455.51" x2="466.79" y2="466.89" class="up-wick"/>
<rect x="462.79" y="457.75" width="8.00" height="4.00" class="up-body"/>
<line x1="490.83" y1="455.86" x2="490.83" y2="465.70" class="up-wick"/>
<rect x="486.83" y="457.58" width="8.00" height="1.00" class="up-body"/>
<line x1="514.88" y1="424.08" x2="514.88" y2="475.30" class="up-wick"/>
<rect x="510.88" y="429.83" width="8.00" height="27.70" class="up-body"/>
<line x1="538.93" y1="427.91" x2="538.93" y2="450.01" class="down-wick"/>
<rect x="534.93" y="429.83" width="8.00" height="17.19" class="down-body"/>
<line x1="562.98" y1="412.16" x2="562.98" y2="450.20" class="up-wick"/>
<rect x="558.98" y="417.47" width="8.00" height="29.55" class="up-body"/>
<line x1="587.02" y1="401.35" x2="587.02" y2="418.41" class="up-wick"/>
<rect x="583.02" y="414.38" width="8.00" height="3.09" class="up-body"/>
<line x1="611.07" y1="413.68" x2="611.07" y2="423.64" class="down-wick"/>
<rect x="607.07" y="414.38" width="8.00" height="4.50" class="down-body"/>
<line x1="635.12" y1="413.89" x2="635.12" y2="430.04" class="down-wick"/>
<rect x="631.12" y="418.88" width="8.00" height="9.37" class="down-body"/>
<line x1="659.17" y1="424.92" x2="659.17" y2="439.99" class="down-wick"/>
<rect x="655.17" y="428.25" width="8.00" height="10.56" class="down-body"/>
<line x1="683.21" y1="428.97" x2="683.21" y2="439.26" class="up-wick"/>
<rect x="679.21" y="435.08" width="8.00" height="3.73" class="up-body"/>
<line x1="707.26" y1="434.32" x2="707.26" y2="440.56" class="down-wick"/>
<rect x="703.26" y="435.08" width="8.00" height="3.07" class="down-body"/>
<line x1="731.31" y1="424.93" x2="731.31" y2="439.78" class="up-wick"/>
<rect x="727.31" y="427.25" width="8.00" height="10.90" class="up-body"/>
<line x1="755.36" y1="413.13" x2="755.36" y2="427.23" class="up-wick"/>
<rect x="751.36" y="417.19" width="8.00" height="10.04" class="up-body"/>
<line x1="779.40" y1="403.31" x2="779.40" y2="418.06" class="up-wick"/>
<rect x="775.40" y="416.38" width="8.00" height="1.00" class="up-body"/>
<line x1="803.45" y1="403.99" x2="803.45" y2="418.78" class="up-wick"/>
<rect x="799.45" y="409.99" width="8.00" height="6.39" class="up-body"/>
<line x1="827.50" y1="387.16" x2="827.50" y2="410.28" class="up-wick"/>
<rect x="823.50" y="394.76" width="8.00" height="15.17" class="up-body"/>
<line x1="851.55" y1="379.76" x2="851.55" y2="401.74" class="up-wick"/>
<rect x="847.55" y="384.67" width="8.00" height="10.11" class="up-body"/>
<line x1="875.60" y1="378.49" x2="875.60" y2="389.24" class="down-wick"/>
<rect x="871.60" y="384.67" width="8.00" height="2.46" class="down-body"/>
<line x1="899.64" y1="370.19" x2="899.64" y2="390.01" class="up-wick"/>
<rect x="895.64" y="372.26" width="8.00" height="14.87" class="up-body"/>
<line x1="923.69" y1="359.24" x2="923.69" y2="383.61" class="down-wick"/>
<rect x="919.69" y="372.21" width="8.00" height="10.03" class="down-body"/>
<line x1="947.74" y1="379.31" x2="947.74" y2="393.02" class="up-wick"/>
<rect x="943.74" y="379.85" width="8.00" height="2.36" class="up-body"/>
<line x1="971.79" y1="379.02" x2="971.79" y2="397.07" class="down-wick"/>
<rect x="967.79" y="379.85" width="8.00" height="14.38" class="down-body"/>
<line x1="995.83" y1="390.27" x2="995.83" y2="402.83" class="down-wick"/>
<rect x="991.83" y="394.23" width="8.00" height="1.97" class="down-body"/>
<line x1="1019.88" y1="387.73" x2="1019.88" y2="398.88" class="up-wick"/>
<rect x="1015.88" y="388.57" width="8.00" height="7.63" class="up-body"/>
<line x1="1043.93" y1="376.29" x2="1043.93" y2="391.60" class="up-wick"/>
<rect x="1039.93" y="380.28" width="8.00" height="8.26" class="up-body"/>
<line x1="1067.98" y1="377.66" x2="1067.98" y2="390.39" class="down-wick"/>
<rect x="1063.98" y="380.28" width="8.00" height="6.41" class="down-body"/>
<line x1="70" y1="453.98" x2="1080" y2="453.98" class="sweep-line"/>
<text x="1076" y="449.98" text-anchor="end" class="level-label">sweep 4475.58</text>
<line x1="70" y1="453.93" x2="1080" y2="453.93" class="entry-line"/>
<text x="1076" y="449.93" text-anchor="end" class="level-label">entry level 4475.62</text>
<text x="70" y="556" class="axis-label">2026-03-30 01:00:00+00:00 to 2026-03-30 11:15:00+00:00</text>
<text x="1080" y="556" text-anchor="end" class="axis-label">4409.04 - 4561.10</text>
<text x="70" y="582" class="panel-title">M5 reaction / execution context</text>
<rect x="70" y="596" width="1010" height="192" class="plot-bg"/>
<line x1="79.18" y1="754.09" x2="79.18" y2="770.11" class="up-wick"/>
<rect x="75.18" y="755.08" width="8.00" height="4.50" class="up-body"/>
<line x1="97.55" y1="751.59" x2="97.55" y2="771.99" class="down-wick"/>
<rect x="93.55" y="755.08" width="8.00" height="11.94" class="down-body"/>
<line x1="115.91" y1="762.37" x2="115.91" y2="774.76" class="down-wick"/>
<rect x="111.91" y="767.36" width="8.00" height="3.98" class="down-body"/>
<line x1="134.27" y1="733.98" x2="134.27" y2="771.96" class="up-wick"/>
<rect x="130.27" y="752.70" width="8.00" height="18.69" class="up-body"/>
<line x1="152.64" y1="723.22" x2="152.64" y2="755.50" class="up-wick"/>
<rect x="148.64" y="725.47" width="8.00" height="27.23" class="up-body"/>
<line x1="171.00" y1="715.29" x2="171.00" y2="729.17" class="up-wick"/>
<rect x="167.00" y="718.74" width="8.00" height="6.52" class="up-body"/>
<line x1="189.36" y1="718.63" x2="189.36" y2="738.13" class="down-wick"/>
<rect x="185.36" y="718.63" width="8.00" height="8.41" class="down-body"/>
<line x1="207.73" y1="706.23" x2="207.73" y2="729.86" class="down-wick"/>
<rect x="203.73" y="727.03" width="8.00" height="2.71" class="down-body"/>
<line x1="226.09" y1="719.24" x2="226.09" y2="746.14" class="down-wick"/>
<rect x="222.09" y="729.74" width="8.00" height="10.64" class="down-body"/>
<line x1="244.45" y1="700.70" x2="244.45" y2="747.04" class="up-wick"/>
<rect x="240.45" y="703.79" width="8.00" height="36.59" class="up-body"/>
<line x1="262.82" y1="688.63" x2="262.82" y2="707.03" class="down-wick"/>
<rect x="258.82" y="703.70" width="8.00" height="1.00" class="down-body"/>
<line x1="281.18" y1="691.30" x2="281.18" y2="713.76" class="up-wick"/>
<rect x="277.18" y="697.12" width="8.00" height="7.21" class="up-body"/>
<line x1="299.55" y1="689.70" x2="299.55" y2="697.69" class="up-wick"/>
<rect x="295.55" y="691.80" width="8.00" height="5.32" class="up-body"/>
<line x1="317.91" y1="691.74" x2="317.91" y2="715.39" class="down-wick"/>
<rect x="313.91" y="691.78" width="8.00" height="19.09" class="down-body"/>
<line x1="336.27" y1="695.67" x2="336.27" y2="710.92" class="up-wick"/>
<rect x="332.27" y="700.51" width="8.00" height="10.35" class="up-body"/>
<line x1="354.64" y1="691.02" x2="354.64" y2="704.54" class="down-wick"/>
<rect x="350.64" y="700.44" width="8.00" height="1.00" class="down-body"/>
<line x1="373.00" y1="691.32" x2="373.00" y2="707.11" class="down-wick"/>
<rect x="369.00" y="701.35" width="8.00" height="1.00" class="down-body"/>
<line x1="391.36" y1="693.17" x2="391.36" y2="708.20" class="up-wick"/>
<rect x="387.36" y="694.39" width="8.00" height="7.57" class="up-body"/>
<line x1="409.73" y1="691.55" x2="409.73" y2="706.40" class="down-wick"/>
<rect x="405.73" y="694.39" width="8.00" height="8.68" class="down-body"/>
<line x1="428.09" y1="692.35" x2="428.09" y2="705.97" class="up-wick"/>
<rect x="424.09" y="697.69" width="8.00" height="5.38" class="up-body"/>
<line x1="446.45" y1="693.00" x2="446.45" y2="700.88" class="up-wick"/>
<rect x="442.45" y="694.14" width="8.00" height="3.55" class="up-body"/>
<line x1="464.82" y1="688.77" x2="464.82" y2="720.90" class="down-wick"/>
<rect x="460.82" y="694.07" width="8.00" height="16.17" class="down-body"/>
<line x1="483.18" y1="697.00" x2="483.18" y2="716.05" class="up-wick"/>
<rect x="479.18" y="698.42" width="8.00" height="11.84" class="up-body"/>
<line x1="501.55" y1="643.56" x2="501.55" y2="698.74" class="up-wick"/>
<rect x="497.55" y="652.24" width="8.00" height="46.16" class="up-body"/>
<line x1="519.91" y1="649.34" x2="519.91" y2="662.57" class="down-wick"/>
<rect x="515.91" y="652.24" width="8.00" height="6.08" class="down-body"/>
<line x1="538.27" y1="656.35" x2="538.27" y2="673.32" class="down-wick"/>
<rect x="534.27" y="658.20" width="8.00" height="15.12" class="down-body"/>
<line x1="556.64" y1="668.90" x2="556.64" y2="682.71" class="down-wick"/>
<rect x="552.64" y="673.32" width="8.00" height="4.86" class="down-body"/>
<line x1="575.00" y1="651.45" x2="575.00" y2="682.99" class="up-wick"/>
<rect x="571.00" y="652.35" width="8.00" height="25.84" class="up-body"/>
<line x1="593.36" y1="627.81" x2="593.36" y2="654.30" class="up-wick"/>
<rect x="589.36" y="630.31" width="8.00" height="22.04" class="up-body"/>
<line x1="611.73" y1="625.56" x2="611.73" y2="638.38" class="down-wick"/>
<rect x="607.73" y="630.31" width="8.00" height="3.26" class="down-body"/>
<line x1="630.09" y1="624.49" x2="630.09" y2="635.00" class="up-wick"/>
<rect x="626.09" y="630.20" width="8.00" height="3.39" class="up-body"/>
<line x1="648.45" y1="609.24" x2="648.45" y2="630.82" class="up-wick"/>
<rect x="644.45" y="620.34" width="8.00" height="9.86" class="up-body"/>
<line x1="666.82" y1="618.16" x2="666.82" y2="630.35" class="down-wick"/>
<rect x="662.82" y="620.28" width="8.00" height="8.64" class="down-body"/>
<line x1="685.18" y1="627.85" x2="685.18" y2="634.87" class="down-wick"/>
<rect x="681.18" y="628.92" width="8.00" height="3.22" class="down-body"/>
<line x1="703.55" y1="631.28" x2="703.55" y2="637.57" class="down-wick"/>
<rect x="699.55" y="632.14" width="8.00" height="3.85" class="down-body"/>
<line x1="721.91" y1="632.52" x2="721.91" y2="642.89" class="up-wick"/>
<rect x="717.91" y="635.71" width="8.00" height="1.00" class="up-body"/>
<line x1="740.27" y1="628.17" x2="740.27" y2="641.81" class="up-wick"/>
<rect x="736.27" y="631.72" width="8.00" height="3.98" class="up-body"/>
<line x1="758.64" y1="630.16" x2="758.64" y2="637.17" class="down-wick"/>
<rect x="754.64" y="631.72" width="8.00" height="3.22" class="down-body"/>
<line x1="777.00" y1="634.52" x2="777.00" y2="652.56" class="down-wick"/>
<rect x="773.00" y="634.89" width="8.00" height="14.97" class="down-body"/>
<line x1="795.36" y1="644.82" x2="795.36" y2="653.09" class="down-wick"/>
<rect x="791.36" y="649.85" width="8.00" height="2.84" class="down-body"/>
<line x1="813.73" y1="652.10" x2="813.73" y2="662.69" class="down-wick"/>
<rect x="809.73" y="652.69" width="8.00" height="7.68" class="down-body"/>
<line x1="832.09" y1="658.97" x2="832.09" y2="667.59" class="down-wick"/>
<rect x="828.09" y="660.38" width="8.00" height="5.41" class="down-body"/>
<line x1="850.45" y1="659.06" x2="850.45" y2="666.17" class="up-wick"/>
<rect x="846.45" y="664.82" width="8.00" height="1.00" class="up-body"/>
<line x1="868.82" y1="650.94" x2="868.82" y2="666.48" class="up-wick"/>
<rect x="864.82" y="653.02" width="8.00" height="11.80" class="up-body"/>
<line x1="887.18" y1="652.98" x2="887.18" y2="660.61" class="down-wick"/>
<rect x="883.18" y="653.21" width="8.00" height="6.96" class="down-body"/>
<line x1="905.55" y1="659.02" x2="905.55" y2="667.07" class="down-wick"/>
<rect x="901.55" y="660.17" width="8.00" height="5.51" class="down-body"/>
<line x1="923.91" y1="661.05" x2="923.91" y2="667.87" class="up-wick"/>
<rect x="919.91" y="665.37" width="8.00" height="1.00" class="up-body"/>
<line x1="942.27" y1="662.21" x2="942.27" y2="668.44" class="up-wick"/>
<rect x="938.27" y="664.80" width="8.00" height="1.00" class="up-body"/>
<line x1="960.64" y1="658.87" x2="960.64" y2="667.26" class="up-wick"/>
<rect x="956.64" y="664.19" width="8.00" height="1.00" class="up-body"/>
<line x1="979.00" y1="657.40" x2="979.00" y2="664.93" class="up-wick"/>
<rect x="975.00" y="657.94" width="8.00" height="6.25" class="up-body"/>
<line x1="997.36" y1="644.84" x2="997.36" y2="657.94" class="up-wick"/>
<rect x="993.36" y="648.35" width="8.00" height="9.59" class="up-body"/>
<line x1="1015.73" y1="640.00" x2="1015.73" y2="648.31" class="up-wick"/>
<rect x="1011.73" y="643.41" width="8.00" height="4.90" class="up-body"/>
<line x1="1034.09" y1="632.06" x2="1034.09" y2="645.12" class="up-wick"/>
<rect x="1030.09" y="633.30" width="8.00" height="10.11" class="up-body"/>
<line x1="1052.45" y1="627.03" x2="1052.45" y2="635.32" class="up-wick"/>
<rect x="1048.45" y="633.15" width="8.00" height="1.00" class="up-body"/>
<line x1="1070.82" y1="616.81" x2="1070.82" y2="633.28" class="up-wick"/>
<rect x="1066.82" y="620.30" width="8.00" height="12.85" class="up-body"/>
<line x1="70" y1="688.71" x2="1080" y2="688.71" class="sweep-line"/>
<text x="1076" y="684.71" text-anchor="end" class="level-label">sweep 4475.58</text>
<line x1="70" y1="688.63" x2="1080" y2="688.63" class="entry-line"/>
<text x="1076" y="684.63" text-anchor="end" class="level-label">entry level 4475.62</text>
<text x="70" y="806" class="axis-label">2026-03-30 03:45:00+00:00 to 2026-03-30 08:15:00+00:00</text>
<text x="1080" y="806" text-anchor="end" class="axis-label">4423.51 - 4524.20</text>
<text x="70" y="832" class="panel-title">M1 execution window</text>
<rect x="70" y="846" width="1010" height="192" class="plot-bg"/>
<line x1="73.71" y1="1005.12" x2="73.71" y2="1012.29" class="down-wick"/>
<rect x="71.30" y="1010.00" width="4.83" height="1.00" class="down-body"/>
<line x1="81.14" y1="1008.41" x2="81.14" y2="1020.55" class="down-wick"/>
<rect x="78.73" y="1008.91" width="4.83" height="11.07" class="down-body"/>
<line x1="88.57" y1="1004.49" x2="88.57" y2="1011.49" class="down-wick"/>
<rect x="86.15" y="1004.68" width="4.83" height="1.00" class="down-body"/>
<line x1="95.99" y1="1010.51" x2="95.99" y2="1016.50" class="down-wick"/>
<rect x="93.58" y="1012.68" width="4.83" height="1.51" class="down-body"/>
<line x1="103.42" y1="1010.40" x2="103.42" y2="1013.42" class="down-wick"/>
<rect x="101.01" y="1010.90" width="4.83" height="1.00" class="down-body"/>
<line x1="110.85" y1="1012.79" x2="110.85" y2="1024.07" class="down-wick"/>
<rect x="108.43" y="1017.80" width="4.83" height="1.00" class="down-body"/>
<line x1="118.27" y1="1017.49" x2="118.27" y2="1024.57" class="down-wick"/>
<rect x="115.86" y="1017.49" width="4.83" height="4.99" class="down-body"/>
<line x1="125.70" y1="1017.61" x2="125.70" y2="1024.76" class="up-wick"/>
<rect x="123.28" y="1021.80" width="4.83" height="2.45" class="up-body"/>
<line x1="133.12" y1="990.65" x2="133.12" y2="1008.74" class="up-wick"/>
<rect x="130.71" y="998.49" width="4.83" height="2.39" class="up-body"/>
<line x1="140.55" y1="993.17" x2="140.55" y2="1004.84" class="up-wick"/>
<rect x="138.14" y="999.75" width="4.83" height="1.00" class="up-body"/>
<line x1="147.98" y1="991.49" x2="147.98" y2="1005.91" class="up-wick"/>
<rect x="145.56" y="995.74" width="4.83" height="7.36" class="up-body"/>
<line x1="155.40" y1="977.06" x2="155.40" y2="991.82" class="down-wick"/>
<rect x="152.99" y="987.06" width="4.83" height="1.82" class="down-body"/>
<line x1="162.83" y1="973.54" x2="162.83" y2="990.78" class="up-wick"/>
<rect x="160.42" y="975.79" width="4.83" height="14.00" class="up-body"/>
<line x1="170.26" y1="967.46" x2="170.26" y2="974.46" class="up-wick"/>
<rect x="167.84" y="968.22" width="4.83" height="4.49" class="up-body"/>
<line x1="177.68" y1="972.52" x2="177.68" y2="979.31" class="down-wick"/>
<rect x="175.27" y="974.49" width="4.83" height="2.60" class="down-body"/>
<line x1="185.11" y1="968.93" x2="185.11" y2="988.03" class="down-wick"/>
<rect x="182.70" y="968.93" width="4.83" height="16.40" class="down-body"/>
<line x1="192.54" y1="977.53" x2="192.54" y2="985.77" class="up-wick"/>
<rect x="190.12" y="977.53" width="4.83" height="6.81" class="up-body"/>
<line x1="199.96" y1="975.56" x2="199.96" y2="985.70" class="up-wick"/>
<rect x="197.55" y="977.36" width="4.83" height="2.60" class="up-body"/>
<line x1="207.39" y1="956.50" x2="207.39" y2="972.43" class="up-wick"/>
<rect x="204.98" y="960.73" width="4.83" height="10.10" class="up-body"/>
<line x1="214.82" y1="967.97" x2="214.82" y2="977.76" class="down-wick"/>
<rect x="212.40" y="967.97" width="4.83" height="5.33" class="down-body"/>
<line x1="222.24" y1="973.40" x2="222.24" y2="984.07" class="up-wick"/>
<rect x="219.83" y="976.33" width="4.83" height="3.75" class="up-body"/>
<line x1="229.67" y1="976.29" x2="229.67" y2="984.45" class="down-wick"/>
<rect x="227.26" y="977.13" width="4.83" height="4.11" class="down-body"/>
<line x1="237.10" y1="986.63" x2="237.10" y2="996.52" class="down-wick"/>
<rect x="234.68" y="988.55" width="4.83" height="2.20" class="down-body"/>
<line x1="244.52" y1="979.58" x2="244.52" y2="995.12" class="up-wick"/>
<rect x="242.11" y="980.96" width="4.83" height="13.21" class="up-body"/>
<line x1="251.95" y1="969.66" x2="251.95" y2="979.90" class="up-wick"/>
<rect x="249.53" y="971.87" width="4.83" height="8.01" class="up-body"/>
<line x1="259.38" y1="938.93" x2="259.38" y2="957.31" class="up-wick"/>
<rect x="256.96" y="942.58" width="4.83" height="11.38" class="up-body"/>
<line x1="266.80" y1="939.56" x2="266.80" y2="945.41" class="down-wick"/>
<rect x="264.39" y="939.56" width="4.83" height="1.13" class="down-body"/>
<line x1="274.23" y1="941.99" x2="274.23" y2="955.05" class="down-wick"/>
<rect x="271.81" y="944.57" width="4.83" height="10.00" class="down-body"/>
<line x1="281.65" y1="941.53" x2="281.65" y2="964.05" class="up-wick"/>
<rect x="279.24" y="949.27" width="4.83" height="11.11" class="up-body"/>
<line x1="289.08" y1="948.82" x2="289.08" y2="960.59" class="down-wick"/>
<rect x="286.67" y="948.89" width="4.83" height="8.83" class="down-body"/>
<line x1="296.51" y1="939.93" x2="296.51" y2="947.36" class="up-wick"/>
<rect x="294.09" y="944.51" width="4.83" height="2.85" class="up-body"/>
<line x1="303.93" y1="939.94" x2="303.93" y2="947.94" class="up-wick"/>
<rect x="301.52" y="940.86" width="4.83" height="1.57" class="up-body"/>
<line x1="311.36" y1="941.09" x2="311.36" y2="944.00" class="up-wick"/>
<rect x="308.95" y="942.03" width="4.83" height="1.00" class="up-body"/>
<line x1="318.79" y1="945.74" x2="318.79" y2="958.66" class="down-wick"/>
<rect x="316.37" y="947.78" width="4.83" height="8.20" class="down-body"/>
<line x1="326.21" y1="950.27" x2="326.21" y2="961.32" class="down-wick"/>
<rect x="323.80" y="953.90" width="4.83" height="5.70" class="down-body"/>
<line x1="333.64" y1="955.87" x2="333.64" y2="961.21" class="up-wick"/>
<rect x="331.23" y="957.59" width="4.83" height="3.56" class="up-body"/>
<line x1="341.07" y1="945.91" x2="341.07" y2="954.28" class="up-wick"/>
<rect x="338.65" y="946.60" width="4.83" height="5.91" class="up-body"/>
<line x1="348.49" y1="948.61" x2="348.49" y2="954.19" class="up-wick"/>
<rect x="346.08" y="950.77" width="4.83" height="1.00" class="up-body"/>
<line x1="355.92" y1="942.77" x2="355.92" y2="946.66" class="down-wick"/>
<rect x="353.51" y="943.86" width="4.83" height="2.71" class="down-body"/>
<line x1="363.35" y1="941.24" x2="363.35" y2="946.83" class="down-wick"/>
<rect x="360.93" y="944.06" width="4.83" height="2.77" class="down-body"/>
<line x1="370.77" y1="950.52" x2="370.77" y2="955.51" class="up-wick"/>
<rect x="368.36" y="951.34" width="4.83" height="1.00" class="up-body"/>
<line x1="378.20" y1="941.55" x2="378.20" y2="951.63" class="up-wick"/>
<rect x="375.78" y="942.66" width="4.83" height="7.65" class="up-body"/>
<line x1="385.62" y1="948.17" x2="385.62" y2="957.38" class="down-wick"/>
<rect x="383.21" y="950.25" width="4.83" height="1.97" class="down-body"/>
<line x1="393.05" y1="949.71" x2="393.05" y2="958.47" class="down-wick"/>
<rect x="390.64" y="949.71" width="4.83" height="5.70" class="down-body"/>
<line x1="400.48" y1="946.92" x2="400.48" y2="950.92" class="up-wick"/>
<rect x="398.06" y="948.13" width="4.83" height="1.51" class="up-body"/>
<line x1="407.90" y1="941.78" x2="407.90" y2="945.30" class="up-wick"/>
<rect x="405.49" y="943.44" width="4.83" height="1.19" class="up-body"/>
<line x1="415.33" y1="943.60" x2="415.33" y2="953.69" class="down-wick"/>
<rect x="412.92" y="943.67" width="4.83" height="6.94" class="down-body"/>
<line x1="422.76" y1="949.64" x2="422.76" y2="956.67" class="up-wick"/>
<rect x="420.34" y="953.33" width="4.83" height="2.68" class="up-body"/>
<line x1="430.18" y1="949.91" x2="430.18" y2="956.23" class="up-wick"/>
<rect x="427.77" y="954.02" width="4.83" height="1.00" class="up-body"/>
<line x1="437.61" y1="945.01" x2="437.61" y2="950.42" class="up-wick"/>
<rect x="435.20" y="945.26" width="4.83" height="3.80" class="up-body"/>
<line x1="445.04" y1="945.11" x2="445.04" y2="951.13" class="up-wick"/>
<rect x="442.62" y="947.17" width="4.83" height="1.00" class="up-body"/>
<line x1="452.46" y1="943.31" x2="452.46" y2="950.54" class="down-wick"/>
<rect x="450.05" y="943.98" width="4.83" height="2.45" class="down-body"/>
<line x1="459.89" y1="943.65" x2="459.89" y2="950.50" class="up-wick"/>
<rect x="457.48" y="944.38" width="4.83" height="6.12" class="up-body"/>
<line x1="467.32" y1="938.99" x2="467.32" y2="942.30" class="up-wick"/>
<rect x="464.90" y="941.40" width="4.83" height="1.00" class="up-body"/>
<line x1="474.74" y1="951.21" x2="474.74" y2="971.20" class="down-wick"/>
<rect x="472.33" y="951.86" width="4.83" height="14.11" class="down-body"/>
<line x1="482.17" y1="958.34" x2="482.17" y2="963.58" class="down-wick"/>
<rect x="479.76" y="960.54" width="4.83" height="2.75" class="down-body"/>
<line x1="489.60" y1="955.55" x2="489.60" y2="962.10" class="up-wick"/>
<rect x="487.18" y="955.55" width="4.83" height="3.35" class="up-body"/>
<line x1="497.02" y1="947.25" x2="497.02" y2="958.82" class="up-wick"/>
<rect x="494.61" y="948.66" width="4.83" height="8.39" class="up-body"/>
<line x1="504.45" y1="920.40" x2="504.45" y2="942.62" class="up-wick"/>
<rect x="502.03" y="920.56" width="4.83" height="21.20" class="up-body"/>
<line x1="511.88" y1="904.75" x2="511.88" y2="914.11" class="down-wick"/>
<rect x="509.46" y="907.50" width="4.83" height="1.00" class="down-body"/>
<line x1="519.30" y1="899.60" x2="519.30" y2="911.88" class="up-wick"/>
<rect x="516.89" y="902.18" width="4.83" height="1.00" class="up-body"/>
<line x1="526.73" y1="899.45" x2="526.73" y2="910.50" class="down-wick"/>
<rect x="524.31" y="905.07" width="4.83" height="4.17" class="down-body"/>
<line x1="534.15" y1="904.82" x2="534.15" y2="910.69" class="down-wick"/>
<rect x="531.74" y="908.44" width="4.83" height="1.00" class="down-body"/>
<line x1="541.58" y1="906.77" x2="541.58" y2="912.24" class="up-wick"/>
<rect x="539.17" y="910.98" width="4.83" height="1.00" class="up-body"/>
<line x1="549.01" y1="915.15" x2="549.01" y2="921.59" class="up-wick"/>
<rect x="546.59" y="917.19" width="4.83" height="1.00" class="up-body"/>
<line x1="556.43" y1="919.07" x2="556.43" y2="926.94" class="down-wick"/>
<rect x="554.02" y="923.50" width="4.83" height="2.73" class="down-body"/>
<line x1="563.86" y1="926.04" x2="563.86" y2="932.91" class="up-wick"/>
<rect x="561.45" y="929.47" width="4.83" height="1.00" class="up-body"/>
<line x1="571.29" y1="922.39" x2="571.29" y2="929.12" class="down-wick"/>
<rect x="568.87" y="925.66" width="4.83" height="2.71" class="down-body"/>
<line x1="578.71" y1="911.27" x2="578.71" y2="918.00" class="up-wick"/>
<rect x="576.30" y="912.62" width="4.83" height="2.54" class="up-body"/>
<line x1="586.14" y1="909.41" x2="586.14" y2="914.53" class="up-wick"/>
<rect x="583.73" y="909.79" width="4.83" height="4.02" class="up-body"/>
<line x1="593.57" y1="897.67" x2="593.57" y2="904.42" class="up-wick"/>
<rect x="591.15" y="902.07" width="4.83" height="1.00" class="up-body"/>
<line x1="600.99" y1="885.45" x2="600.99" y2="895.86" class="up-wick"/>
<rect x="598.58" y="889.16" width="4.83" height="5.97" class="up-body"/>
<line x1="608.42" y1="879.45" x2="608.42" y2="887.31" class="up-wick"/>
<rect x="606.01" y="880.37" width="4.83" height="1.00" class="up-body"/>
<line x1="615.85" y1="875.61" x2="615.85" y2="885.91" class="up-wick"/>
<rect x="613.43" y="877.33" width="4.83" height="3.73" class="up-body"/>
<line x1="623.27" y1="881.06" x2="623.27" y2="886.93" class="down-wick"/>
<rect x="620.86" y="881.09" width="4.83" height="4.91" class="down-body"/>
<line x1="630.70" y1="879.16" x2="630.70" y2="883.89" class="up-wick"/>
<rect x="628.28" y="879.79" width="4.83" height="3.86" class="up-body"/>
<line x1="638.12" y1="878.46" x2="638.12" y2="885.07" class="down-wick"/>
<rect x="635.71" y="880.31" width="4.83" height="3.27" class="down-body"/>
<line x1="645.55" y1="878.65" x2="645.55" y2="884.31" class="up-wick"/>
<rect x="643.14" y="880.25" width="4.83" height="3.06" class="up-body"/>
<line x1="652.98" y1="869.20" x2="652.98" y2="875.89" class="up-wick"/>
<rect x="650.56" y="869.76" width="4.83" height="1.00" class="up-body"/>
<line x1="660.40" y1="859.24" x2="660.40" y2="870.64" class="up-wick"/>
<rect x="657.99" y="862.91" width="4.83" height="7.71" class="up-body"/>
<line x1="667.83" y1="868.19" x2="667.83" y2="874.58" class="down-wick"/>
<rect x="665.42" y="870.31" width="4.83" height="2.85" class="down-body"/>
<line x1="675.26" y1="872.53" x2="675.26" y2="879.41" class="down-wick"/>
<rect x="672.84" y="873.16" width="4.83" height="5.22" class="down-body"/>
<line x1="682.68" y1="876.64" x2="682.68" y2="880.10" class="down-wick"/>
<rect x="680.27" y="877.50" width="4.83" height="1.47" class="down-body"/>
<line x1="690.11" y1="877.90" x2="690.11" y2="884.88" class="down-wick"/>
<rect x="687.70" y="880.64" width="4.83" height="1.87" class="down-body"/>
<line x1="697.54" y1="879.85" x2="697.54" y2="882.40" class="down-wick"/>
<rect x="695.12" y="880.29" width="4.83" height="1.00" class="down-body"/>
<line x1="704.96" y1="881.34" x2="704.96" y2="884.02" class="down-wick"/>
<rect x="702.55" y="882.20" width="4.83" height="1.19" class="down-body"/>
<line x1="712.39" y1="883.39" x2="712.39" y2="885.80" class="up-wick"/>
<rect x="709.98" y="883.77" width="4.83" height="1.00" class="up-body"/>
<line x1="719.82" y1="881.63" x2="719.82" y2="887.65" class="down-wick"/>
<rect x="717.40" y="884.59" width="4.83" height="1.47" class="down-body"/>
<line x1="727.24" y1="885.21" x2="727.24" y2="891.53" class="down-wick"/>
<rect x="724.83" y="885.24" width="4.83" height="5.81" class="down-body"/>
<line x1="734.67" y1="885.38" x2="734.67" y2="892.49" class="up-wick"/>
<rect x="732.26" y="885.38" width="4.83" height="6.42" class="up-body"/>
<line x1="742.10" y1="885.66" x2="742.10" y2="890.23" class="down-wick"/>
<rect x="739.68" y="885.78" width="4.83" height="4.28" class="down-body"/>
<line x1="749.52" y1="881.29" x2="749.52" y2="888.84" class="up-wick"/>
<rect x="747.11" y="883.33" width="4.83" height="4.32" class="up-body"/>
<line x1="756.95" y1="879.30" x2="756.95" y2="882.53" class="up-wick"/>
<rect x="754.53" y="881.78" width="4.83" height="1.00" class="up-body"/>
<line x1="764.38" y1="881.61" x2="764.38" y2="883.16" class="up-wick"/>
<rect x="761.96" y="882.61" width="4.83" height="1.00" class="up-body"/>
<line x1="771.80" y1="880.22" x2="771.80" y2="886.31" class="down-wick"/>
<rect x="769.39" y="880.22" width="4.83" height="6.10" class="down-body"/>
<line x1="779.23" y1="884.59" x2="779.23" y2="892.64" class="down-wick"/>
<rect x="776.81" y="884.96" width="4.83" height="7.67" class="down-body"/>
<line x1="786.65" y1="895.21" x2="786.65" y2="899.45" class="up-wick"/>
<rect x="784.24" y="895.40" width="4.83" height="2.91" class="up-body"/>
<line x1="794.08" y1="896.47" x2="794.08" y2="902.68" class="down-wick"/>
<rect x="791.67" y="896.58" width="4.83" height="3.38" class="down-body"/>
<line x1="801.51" y1="897.86" x2="801.51" y2="901.76" class="down-wick"/>
<rect x="799.09" y="899.97" width="4.83" height="1.00" class="down-body"/>
<line x1="808.93" y1="900.64" x2="808.93" y2="903.22" class="down-wick"/>
<rect x="806.52" y="901.97" width="4.83" height="1.00" class="down-body"/>
<line x1="816.36" y1="902.22" x2="816.36" y2="909.79" class="down-wick"/>
<rect x="813.95" y="902.81" width="4.83" height="1.00" class="down-body"/>
<line x1="823.79" y1="908.03" x2="823.79" y2="912.70" class="down-wick"/>
<rect x="821.37" y="909.81" width="4.83" height="1.89" class="down-body"/>
<line x1="831.21" y1="909.95" x2="831.21" y2="911.92" class="up-wick"/>
<rect x="828.80" y="910.52" width="4.83" height="1.00" class="up-body"/>
<line x1="838.64" y1="910.02" x2="838.64" y2="913.88" class="up-wick"/>
<rect x="836.23" y="911.69" width="4.83" height="2.14" class="up-body"/>
<line x1="846.07" y1="912.58" x2="846.07" y2="916.33" class="down-wick"/>
<rect x="843.65" y="913.22" width="4.83" height="2.93" class="down-body"/>
<line x1="853.49" y1="913.02" x2="853.49" y2="916.33" class="up-wick"/>
<rect x="851.08" y="913.02" width="4.83" height="2.93" class="up-body"/>
<line x1="860.92" y1="909.20" x2="860.92" y2="911.99" class="up-wick"/>
<rect x="858.51" y="909.70" width="4.83" height="1.99" class="up-body"/>
<line x1="868.35" y1="910.90" x2="868.35" y2="915.13" class="down-wick"/>
<rect x="865.93" y="912.32" width="4.83" height="2.66" class="down-body"/>
<line x1="875.77" y1="907.50" x2="875.77" y2="913.98" class="up-wick"/>
<rect x="873.36" y="908.28" width="4.83" height="5.53" class="up-body"/>
<line x1="883.20" y1="904.61" x2="883.20" y2="909.18" class="up-wick"/>
<rect x="880.78" y="905.68" width="4.83" height="2.58" class="up-body"/>
<line x1="890.62" y1="903.10" x2="890.62" y2="910.75" class="down-wick"/>
<rect x="888.21" y="903.33" width="4.83" height="2.14" class="down-body"/>
<line x1="898.05" y1="906.37" x2="898.05" y2="907.94" class="up-wick"/>
<rect x="895.64" y="906.98" width="4.83" height="1.00" class="up-body"/>
<line x1="905.48" y1="908.84" x2="905.48" y2="910.73" class="down-wick"/>
<rect x="903.06" y="909.70" width="4.83" height="1.00" class="down-body"/>
<line x1="912.90" y1="909.70" x2="912.90" y2="913.98" class="down-wick"/>
<rect x="910.49" y="909.70" width="4.83" height="3.82" class="down-body"/>
<line x1="920.33" y1="912.68" x2="920.33" y2="916.20" class="up-wick"/>
<rect x="917.92" y="915.36" width="4.83" height="1.00" class="up-body"/>
<line x1="927.76" y1="914.02" x2="927.76" y2="918.03" class="up-wick"/>
<rect x="925.34" y="914.25" width="4.83" height="1.59" class="up-body"/>
<line x1="935.18" y1="912.70" x2="935.18" y2="916.92" class="up-wick"/>
<rect x="932.77" y="913.37" width="4.83" height="2.60" class="up-body"/>
<line x1="942.61" y1="913.35" x2="942.61" y2="916.16" class="down-wick"/>
<rect x="940.20" y="914.99" width="4.83" height="1.00" class="down-body"/>
<line x1="950.04" y1="915.45" x2="950.04" y2="916.56" class="down-wick"/>
<rect x="947.62" y="915.93" width="4.83" height="1.00" class="down-body"/>
<line x1="957.46" y1="912.91" x2="957.46" y2="918.47" class="down-wick"/>
<rect x="955.05" y="913.33" width="4.83" height="4.70" class="down-body"/>
<line x1="964.89" y1="913.29" x2="964.89" y2="915.43" class="up-wick"/>
<rect x="962.48" y="914.57" width="4.83" height="1.00" class="up-body"/>
<line x1="972.32" y1="914.80" x2="972.32" y2="917.42" class="up-wick"/>
<rect x="969.90" y="914.96" width="4.83" height="1.05" class="up-body"/>
<line x1="979.74" y1="912.34" x2="979.74" y2="916.01" class="up-wick"/>
<rect x="977.33" y="914.34" width="4.83" height="1.00" class="up-body"/>
<line x1="987.17" y1="908.44" x2="987.17" y2="912.11" class="down-wick"/>
<rect x="984.76" y="909.72" width="4.83" height="1.38" class="down-body"/>
<line x1="994.60" y1="908.34" x2="994.60" y2="910.12" class="down-wick"/>
<rect x="992.18" y="908.59" width="4.83" height="1.00" class="down-body"/>
<line x1="1002.02" y1="901.99" x2="1002.02" y2="908.07" class="up-wick"/>
<rect x="999.61" y="902.20" width="4.83" height="5.87" class="up-body"/>
<line x1="1009.45" y1="894.94" x2="1009.45" y2="903.43" class="up-wick"/>
<rect x="1007.03" y="895.53" width="4.83" height="6.71" class="up-body"/>
<line x1="1016.88" y1="896.62" x2="1016.88" y2="899.22" class="down-wick"/>
<rect x="1014.46" y="898.17" width="4.83" height="1.00" class="down-body"/>
<line x1="1024.30" y1="891.19" x2="1024.30" y2="895.11" class="up-wick"/>
<rect x="1021.89" y="892.07" width="4.83" height="3.02" class="up-body"/>
<line x1="1031.73" y1="890.08" x2="1031.73" y2="897.06" class="down-wick"/>
<rect x="1029.31" y="891.90" width="4.83" height="4.45" class="down-body"/>
<line x1="1039.15" y1="890.02" x2="1039.15" y2="893.52" class="up-wick"/>
<rect x="1036.74" y="892.47" width="4.83" height="1.03" class="up-body"/>
<line x1="1046.58" y1="889.70" x2="1046.58" y2="894.23" class="up-wick"/>
<rect x="1044.17" y="892.24" width="4.83" height="1.99" class="up-body"/>
<line x1="1054.01" y1="882.13" x2="1054.01" y2="892.28" class="up-wick"/>
<rect x="1051.59" y="883.37" width="4.83" height="8.91" class="up-body"/>
<line x1="1061.43" y1="880.81" x2="1061.43" y2="884.77" class="down-wick"/>
<rect x="1059.02" y="882.24" width="4.83" height="1.00" class="down-body"/>
<line x1="1068.86" y1="877.08" x2="1068.86" y2="880.79" class="up-wick"/>
<rect x="1066.45" y="878.32" width="4.83" height="2.47" class="up-body"/>
<line x1="1076.29" y1="881.42" x2="1076.29" y2="883.35" class="up-wick"/>
<rect x="1073.87" y="881.96" width="4.83" height="1.26" class="up-body"/>
<line x1="70" y1="938.93" x2="1080" y2="938.93" class="sweep-line"/>
<text x="1076" y="934.93" text-anchor="end" class="level-label">sweep 4475.58</text>
<line x1="70" y1="938.85" x2="1080" y2="938.85" class="entry-line"/>
<text x="1076" y="934.85" text-anchor="end" class="level-label">entry level 4475.62</text>
<text x="70" y="1056" class="axis-label">2026-03-30 03:45:00+00:00 to 2026-03-30 08:15:00+00:00</text>
<text x="1080" y="1056" text-anchor="end" class="axis-label">4423.76 - 4524.19</text>
</svg>