<svg xmlns="http://www.w3.org/2000/svg" width="1120" height="1054" viewBox="0 0 1120 1054">
<style>
text{font-family:Arial,Helvetica,sans-serif}.title{font-size:21px;font-weight:700;fill:#1f2937}.subtitle{font-size:12px;fill:#4b5563}.panel-title{font-size:15px;font-weight:700;fill:#111827}.muted{font-size:13px;fill:#6b7280}.plot-bg{fill:#f8fafc;stroke:#cbd5e1;stroke-width:1}.up-body{fill:#15803d;stroke:#14532d;stroke-width:.8}.down-body{fill:#b91c1c;stroke:#7f1d1d;stroke-width:.8}.up-wick{stroke:#14532d;stroke-width:1}.down-wick{stroke:#7f1d1d;stroke-width:1}.sweep-line{stroke:#7c3aed;stroke-width:1.6;stroke-dasharray:6 4}.number-line{stroke:#0f766e;stroke-width:1.4;stroke-dasharray:3 4}.entry-line{stroke:#2563eb;stroke-width:1.4}.sl-line{stroke:#dc2626;stroke-width:1.4}.tp-line{stroke:#16a34a;stroke-width:1.4}.level-label,.axis-label{font-size:11px;fill:#374151}
</style>
<text x="28" y="28" class="title">Adelin v2 visual review sample sample_112</text>
<text x="28" y="48" class="subtitle">Candidate windows are for visual labeling only and are not trade signals.</text>
<text x="560" y="48" class="subtitle" text-anchor="middle">NUMBER_THEORY_LEVEL_NEAR | LARGE_LOWER_WICK_REVERSAL_VISUAL_CANDIDATE | ROUND_LEVEL_ENTRY_METADATA_AVAILABLE</text>
<text x="70" y="82" class="panel-title">H1 liquidity context</text>
<rect x="70" y="96" width="1010" height="192" class="plot-bg"/>
<line x1="82.32" y1="174.54" x2="82.32" y2="263.36" class="down-wick"/>
<rect x="78.32" y="198.37" width="8.00" height="6.16" class="down-body"/>
<line x1="106.95" y1="196.12" x2="106.95" y2="267.99" class="down-wick"/>
<rect x="102.95" y="204.53" width="8.00" height="55.00" class="down-body"/>
<line x1="131.59" y1="229.91" x2="131.59" y2="274.76" class="up-wick"/>
<rect x="127.59" y="241.08" width="8.00" height="18.45" class="up-body"/>
<line x1="156.22" y1="208.50" x2="156.22" y2="243.97" class="up-wick"/>
<rect x="152.22" y="235.48" width="8.00" height="5.55" class="up-body"/>
<line x1="180.85" y1="163.44" x2="180.85" y2="238.95" class="up-wick"/>
<rect x="176.85" y="200.89" width="8.00" height="34.59" class="up-body"/>
<line x1="205.49" y1="200.81" x2="205.49" y2="236.39" class="down-wick"/>
<rect x="201.49" y="200.89" width="8.00" height="11.70" class="down-body"/>
<line x1="230.12" y1="182.34" x2="230.12" y2="213.45" class="up-wick"/>
<rect x="226.12" y="183.56" width="8.00" height="29.02" class="up-body"/>
<line x1="254.76" y1="152.68" x2="254.76" y2="195.60" class="down-wick"/>
<rect x="250.76" y="183.53" width="8.00" height="10.04" class="down-body"/>
<line x1="279.39" y1="169.83" x2="279.39" y2="208.47" class="up-wick"/>
<rect x="275.39" y="172.63" width="8.00" height="20.94" class="up-body"/>
<line x1="304.02" y1="137.89" x2="304.02" y2="205.72" class="up-wick"/>
<rect x="300.02" y="143.27" width="8.00" height="29.37" class="up-body"/>
<line x1="328.66" y1="122.35" x2="328.66" y2="149.15" class="up-wick"/>
<rect x="324.66" y="126.11" width="8.00" height="17.15" class="up-body"/>
<line x1="353.29" y1="109.24" x2="353.29" y2="133.76" class="down-wick"/>
<rect x="349.29" y="126.11" width="8.00" height="3.41" class="down-body"/>
<line x1="377.93" y1="123.30" x2="377.93" y2="143.36" class="down-wick"/>
<rect x="373.93" y="129.52" width="8.00" height="6.05" class="down-body"/>
<line x1="402.56" y1="124.60" x2="402.56" y2="155.42" class="down-wick"/>
<rect x="398.56" y="135.57" width="8.00" height="18.50" class="down-body"/>
<line x1="427.20" y1="140.23" x2="427.20" y2="182.70" class="down-wick"/>
<rect x="423.20" y="154.12" width="8.00" height="3.16" class="down-body"/>
<line x1="451.83" y1="147.72" x2="451.83" y2="182.50" class="up-wick"/>
<rect x="447.83" y="151.18" width="8.00" height="6.10" class="up-body"/>
<line x1="476.46" y1="123.52" x2="476.46" y2="181.61" class="up-wick"/>
<rect x="472.46" y="146.00" width="8.00" height="5.16" class="up-body"/>
<line x1="501.10" y1="144.33" x2="501.10" y2="194.89" class="down-wick"/>
<rect x="497.10" y="146.00" width="8.00" height="23.31" class="down-body"/>
<line x1="525.73" y1="162.34" x2="525.73" y2="185.33" class="down-wick"/>
<rect x="521.73" y="169.32" width="8.00" height="12.26" class="down-body"/>
<line x1="550.37" y1="180.19" x2="550.37" y2="204.19" class="down-wick"/>
<rect x="546.37" y="181.52" width="8.00" height="10.65" class="down-body"/>
<line x1="575.00" y1="172.02" x2="575.00" y2="199.65" class="up-wick"/>
<rect x="571.00" y="184.88" width="8.00" height="7.21" class="up-body"/>
<line x1="599.63" y1="183.14" x2="599.63" y2="204.85" class="down-wick"/>
<rect x="595.63" y="184.88" width="8.00" height="4.43" class="down-body"/>
<line x1="624.27" y1="169.83" x2="624.27" y2="200.19" class="up-wick"/>
<rect x="620.27" y="184.69" width="8.00" height="15.50" class="up-body"/>
<line x1="648.90" y1="180.31" x2="648.90" y2="195.54" class="up-wick"/>
<rect x="644.90" y="183.97" width="8.00" height="1.00" class="up-body"/>
<line x1="673.54" y1="179.94" x2="673.54" y2="199.14" class="down-wick"/>
<rect x="669.54" y="183.94" width="8.00" height="6.27" class="down-body"/>
<line x1="698.17" y1="175.23" x2="698.17" y2="250.57" class="down-wick"/>
<rect x="694.17" y="190.21" width="8.00" height="43.56" class="down-body"/>
<line x1="722.80" y1="191.59" x2="722.80" y2="244.72" class="up-wick"/>
<rect x="718.80" y="196.89" width="8.00" height="36.89" class="up-body"/>
<line x1="747.44" y1="191.29" x2="747.44" y2="214.01" class="down-wick"/>
<rect x="743.44" y="196.89" width="8.00" height="1.16" class="down-body"/>
<line x1="772.07" y1="175.68" x2="772.07" y2="205.00" class="up-wick"/>
<rect x="768.07" y="182.58" width="8.00" height="15.46" class="up-body"/>
<line x1="796.71" y1="179.70" x2="796.71" y2="239.83" class="down-wick"/>
<rect x="792.71" y="181.81" width="8.00" height="27.01" class="down-body"/>
<line x1="821.34" y1="187.50" x2="821.34" y2="216.70" class="up-wick"/>
<rect x="817.34" y="192.29" width="8.00" height="16.53" class="up-body"/>
<line x1="845.98" y1="186.58" x2="845.98" y2="218.78" class="down-wick"/>
<rect x="841.98" y="192.29" width="8.00" height="11.88" class="down-body"/>
<line x1="870.61" y1="133.95" x2="870.61" y2="206.69" class="up-wick"/>
<rect x="866.61" y="146.38" width="8.00" height="57.79" class="up-body"/>
<line x1="895.24" y1="128.19" x2="895.24" y2="184.16" class="down-wick"/>
<rect x="891.24" y="146.38" width="8.00" height="18.64" class="down-body"/>
<line x1="919.88" y1="149.77" x2="919.88" y2="198.93" class="down-wick"/>
<rect x="915.88" y="165.00" width="8.00" height="29.33" class="down-body"/>
<line x1="944.51" y1="175.60" x2="944.51" y2="230.68" class="up-wick"/>
<rect x="940.51" y="182.45" width="8.00" height="11.88" class="up-body"/>
<line x1="969.15" y1="164.86" x2="969.15" y2="202.73" class="down-wick"/>
<rect x="965.15" y="182.45" width="8.00" height="12.74" class="down-body"/>
<line x1="993.78" y1="177.36" x2="993.78" y2="220.36" class="down-wick"/>
<rect x="989.78" y="195.20" width="8.00" height="11.87" class="down-body"/>
<line x1="1018.41" y1="179.89" x2="1018.41" y2="264.56" class="down-wick"/>
<rect x="1014.41" y="207.07" width="8.00" height="17.12" class="down-body"/>
<line x1="1043.05" y1="183.06" x2="1043.05" y2="236.89" class="up-wick"/>
<rect x="1039.05" y="189.07" width="8.00" height="35.12" class="up-body"/>
<line x1="1067.68" y1="168.96" x2="1067.68" y2="193.71" class="up-wick"/>
<rect x="1063.68" y="186.69" width="8.00" height="2.38" class="up-body"/>
<line x1="70" y1="166.49" x2="1080" y2="166.49" class="number-line"/>
<text x="1076" y="162.49" text-anchor="end" class="level-label">round 4670.00</text>
<line x1="70" y1="166.49" x2="1080" y2="166.49" class="entry-line"/>
<text x="1076" y="162.49" text-anchor="end" class="level-label">entry level 4670.00</text>
<text x="70" y="306" class="axis-label">2026-04-06 01:00:00+00:00 to 2026-04-07 19:00:00+00:00</text>
<text x="1080" y="306" text-anchor="end" class="axis-label">4592.29 - 4715.08</text>
<text x="70" y="332" class="panel-title">M15 liquidity / reaction context</text>
<rect x="70" y="346" width="1010" height="192" class="plot-bg"/>
<line x1="77.77" y1="503.37" x2="77.77" y2="524.76" class="up-wick"/>
<rect x="73.77" y="516.04" width="8.00" height="7.35" class="up-body"/>
<line x1="93.31" y1="508.04" x2="93.31" y2="521.58" class="up-wick"/>
<rect x="89.31" y="508.07" width="8.00" height="7.97" class="up-body"/>
<line x1="108.85" y1="497.09" x2="108.85" y2="517.31" class="up-wick"/>
<rect x="104.85" y="502.55" width="8.00" height="5.51" class="up-body"/>
<line x1="124.38" y1="475.36" x2="124.38" y2="507.65" class="up-wick"/>
<rect x="120.38" y="477.29" width="8.00" height="25.26" class="up-body"/>
<line x1="139.92" y1="432.88" x2="139.92" y2="480.15" class="up-wick"/>
<rect x="135.92" y="440.91" width="8.00" height="36.34" class="up-body"/>
<line x1="155.46" y1="428.24" x2="155.46" y2="457.82" class="down-wick"/>
<rect x="151.46" y="440.91" width="8.00" height="15.80" class="down-body"/>
<line x1="171.00" y1="452.61" x2="171.00" y2="471.71" class="down-wick"/>
<rect x="167.00" y="456.70" width="8.00" height="14.46" class="down-body"/>
<line x1="186.54" y1="456.48" x2="186.54" y2="496.42" class="down-wick"/>
<rect x="182.54" y="471.13" width="8.00" height="22.06" class="down-body"/>
<line x1="202.08" y1="470.14" x2="202.08" y2="516.86" class="up-wick"/>
<rect x="198.08" y="472.50" width="8.00" height="20.69" class="up-body"/>
<line x1="217.62" y1="469.22" x2="217.62" y2="493.07" class="down-wick"/>
<rect x="213.62" y="472.50" width="8.00" height="9.04" class="down-body"/>
<line x1="233.15" y1="474.93" x2="233.15" y2="495.30" class="down-wick"/>
<rect x="229.15" y="481.54" width="8.00" height="4.32" class="down-body"/>
<line x1="248.69" y1="455.49" x2="248.69" y2="490.63" class="up-wick"/>
<rect x="244.69" y="459.93" width="8.00" height="25.93" class="up-body"/>
<line x1="264.23" y1="458.29" x2="264.23" y2="504.81" class="down-wick"/>
<rect x="260.23" y="459.93" width="8.00" height="35.15" class="down-body"/>
<line x1="279.77" y1="485.69" x2="279.77" y2="512.49" class="down-wick"/>
<rect x="275.77" y="495.08" width="8.00" height="2.81" class="down-body"/>
<line x1="295.31" y1="461.10" x2="295.31" y2="499.32" class="up-wick"/>
<rect x="291.31" y="464.01" width="8.00" height="33.88" class="up-body"/>
<line x1="310.85" y1="404.74" x2="310.85" y2="468.30" class="up-wick"/>
<rect x="306.85" y="413.29" width="8.00" height="50.74" class="up-body"/>
<line x1="326.38" y1="389.15" x2="326.38" y2="422.63" class="up-wick"/>
<rect x="322.38" y="401.04" width="8.00" height="12.24" class="up-body"/>
<line x1="341.92" y1="385.64" x2="341.92" y2="414.18" class="up-wick"/>
<rect x="337.92" y="396.94" width="8.00" height="4.10" class="up-body"/>
<line x1="357.46" y1="386.17" x2="357.46" y2="400.72" class="up-wick"/>
<rect x="353.46" y="392.60" width="8.00" height="4.35" class="up-body"/>
<line x1="373.00" y1="380.06" x2="373.00" y2="396.35" class="up-wick"/>
<rect x="369.00" y="386.04" width="8.00" height="6.56" class="up-body"/>
<line x1="388.54" y1="367.51" x2="388.54" y2="386.04" class="up-wick"/>
<rect x="384.54" y="372.48" width="8.00" height="13.56" class="up-body"/>
<line x1="404.08" y1="366.32" x2="404.08" y2="382.49" class="up-wick"/>
<rect x="400.08" y="369.60" width="8.00" height="2.93" class="up-body"/>
<line x1="419.62" y1="359.24" x2="419.62" y2="373.32" class="up-wick"/>
<rect x="415.62" y="367.31" width="8.00" height="2.33" class="up-body"/>
<line x1="435.15" y1="363.04" x2="435.15" y2="398.19" class="down-wick"/>
<rect x="431.15" y="367.31" width="8.00" height="24.14" class="down-body"/>
<line x1="450.69" y1="381.57" x2="450.69" y2="410.18" class="down-wick"/>
<rect x="446.69" y="391.46" width="8.00" height="16.94" class="down-body"/>
<line x1="466.23" y1="392.80" x2="466.23" y2="409.98" class="up-wick"/>
<rect x="462.23" y="400.92" width="8.00" height="7.70" class="up-body"/>
<line x1="481.77" y1="383.48" x2="481.77" y2="406.13" class="up-wick"/>
<rect x="477.77" y="387.78" width="8.00" height="13.14" class="up-body"/>
<line x1="497.31" y1="385.92" x2="497.31" y2="413.44" class="down-wick"/>
<rect x="493.31" y="386.84" width="8.00" height="14.23" class="down-body"/>
<line x1="512.85" y1="383.63" x2="512.85" y2="403.48" class="down-wick"/>
<rect x="508.85" y="401.07" width="8.00" height="1.00" class="down-body"/>
<line x1="528.38" y1="394.73" x2="528.38" y2="412.07" class="down-wick"/>
<rect x="524.38" y="401.86" width="8.00" height="2.56" class="down-body"/>
<line x1="543.92" y1="389.20" x2="543.92" y2="412.05" class="down-wick"/>
<rect x="539.92" y="404.42" width="8.00" height="7.63" class="down-body"/>
<line x1="559.46" y1="410.88" x2="559.46" y2="432.59" class="down-wick"/>
<rect x="555.46" y="412.05" width="8.00" height="18.40" class="down-body"/>
<line x1="575.00" y1="408.47" x2="575.00" y2="446.55" class="down-wick"/>
<rect x="571.00" y="430.53" width="8.00" height="13.44" class="down-body"/>
<line x1="590.54" y1="440.09" x2="590.54" y2="475.93" class="down-wick"/>
<rect x="586.54" y="443.96" width="8.00" height="16.09" class="down-body"/>
<line x1="606.08" y1="428.51" x2="606.08" y2="461.03" class="up-wick"/>
<rect x="602.08" y="432.98" width="8.00" height="27.07" class="up-body"/>
<line x1="621.62" y1="422.63" x2="621.62" y2="439.96" class="down-wick"/>
<rect x="617.62" y="432.98" width="8.00" height="2.56" class="down-body"/>
<line x1="637.15" y1="431.62" x2="637.15" y2="469.67" class="down-wick"/>
<rect x="633.15" y="435.54" width="8.00" height="18.01" class="down-body"/>
<line x1="652.69" y1="441.75" x2="652.69" y2="475.61" class="up-wick"/>
<rect x="648.69" y="453.47" width="8.00" height="1.00" class="up-body"/>
<line x1="668.23" y1="427.49" x2="668.23" y2="472.03" class="down-wick"/>
<rect x="664.23" y="453.47" width="8.00" height="7.40" class="down-body"/>
<line x1="683.77" y1="420.37" x2="683.77" y2="470.79" class="up-wick"/>
<rect x="679.77" y="425.86" width="8.00" height="35.02" class="up-body"/>
<line x1="699.31" y1="398.83" x2="699.31" y2="474.19" class="down-wick"/>
<rect x="695.31" y="425.83" width="8.00" height="17.44" class="down-body"/>
<line x1="714.85" y1="404.72" x2="714.85" y2="448.51" class="up-wick"/>
<rect x="710.85" y="409.86" width="8.00" height="33.41" class="up-body"/>
<line x1="730.38" y1="381.92" x2="730.38" y2="428.59" class="down-wick"/>
<rect x="726.38" y="409.39" width="8.00" height="4.30" class="down-body"/>
<line x1="745.92" y1="404.79" x2="745.92" y2="437.95" class="down-wick"/>
<rect x="741.92" y="413.69" width="8.00" height="3.95" class="down-body"/>
<line x1="761.46" y1="414.98" x2="761.46" y2="471.58" class="down-wick"/>
<rect x="757.46" y="417.63" width="8.00" height="51.94" class="down-body"/>
<line x1="777.00" y1="449.85" x2="777.00" y2="486.63" class="up-wick"/>
<rect x="773.00" y="456.78" width="8.00" height="12.79" class="up-body"/>
<line x1="792.54" y1="447.41" x2="792.54" y2="495.28" class="down-wick"/>
<rect x="788.54" y="456.78" width="8.00" height="16.29" class="down-body"/>
<line x1="808.08" y1="452.46" x2="808.08" y2="475.70" class="up-wick"/>
<rect x="804.08" y="454.67" width="8.00" height="18.40" class="up-body"/>
<line x1="823.62" y1="447.39" x2="823.62" y2="468.82" class="up-wick"/>
<rect x="819.62" y="448.98" width="8.00" height="5.69" class="up-body"/>
<line x1="839.15" y1="443.59" x2="839.15" y2="461.87" class="down-wick"/>
<rect x="835.15" y="448.98" width="8.00" height="12.05" class="down-body"/>
<line x1="854.69" y1="447.51" x2="854.69" y2="468.15" class="down-wick"/>
<rect x="850.69" y="461.00" width="8.00" height="5.51" class="down-body"/>
<line x1="870.23" y1="458.19" x2="870.23" y2="480.10" class="down-wick"/>
<rect x="866.23" y="466.51" width="8.00" height="7.63" class="down-body"/>
<line x1="885.77" y1="471.93" x2="885.77" y2="510.05" class="down-wick"/>
<rect x="881.77" y="474.04" width="8.00" height="15.97" class="down-body"/>
<line x1="901.31" y1="474.11" x2="901.31" y2="498.80" class="up-wick"/>
<rect x="897.31" y="484.50" width="8.00" height="5.51" class="up-body"/>
<line x1="916.85" y1="473.77" x2="916.85" y2="493.59" class="up-wick"/>
<rect x="912.85" y="483.93" width="8.00" height="1.00" class="up-body"/>
<line x1="932.38" y1="481.47" x2="932.38" y2="495.52" class="down-wick"/>
<rect x="928.38" y="483.93" width="8.00" height="7.03" class="down-body"/>
<line x1="947.92" y1="458.96" x2="947.92" y2="497.64" class="up-wick"/>
<rect x="943.92" y="476.42" width="8.00" height="14.41" class="up-body"/>
<line x1="963.46" y1="464.08" x2="963.46" y2="477.24" class="up-wick"/>
<rect x="959.46" y="474.61" width="8.00" height="1.81" class="up-body"/>
<line x1="979.00" y1="466.66" x2="979.00" y2="502.43" class="down-wick"/>
<rect x="975.00" y="474.64" width="8.00" height="24.71" class="down-body"/>
<line x1="994.54" y1="477.42" x2="994.54" y2="502.85" class="up-wick"/>
<rect x="990.54" y="479.38" width="8.00" height="19.97" class="up-body"/>
<line x1="1010.08" y1="476.62" x2="1010.08" y2="499.57" class="down-wick"/>
<rect x="1006.08" y="479.38" width="8.00" height="19.15" class="down-body"/>
<line x1="1025.62" y1="496.57" x2="1025.62" y2="511.10" class="down-wick"/>
<rect x="1021.62" y="498.53" width="8.00" height="1.00" class="down-body"/>
<line x1="1041.15" y1="490.43" x2="1041.15" y2="503.55" class="up-wick"/>
<rect x="1037.15" y="495.62" width="8.00" height="3.85" class="up-body"/>
<line x1="1056.69" y1="479.88" x2="1056.69" y2="496.10" class="up-wick"/>
<rect x="1052.69" y="486.41" width="8.00" height="9.24" class="up-body"/>
<line x1="1072.23" y1="455.49" x2="1072.23" y2="503.70" class="up-wick"/>
<rect x="1068.23" y="465.45" width="8.00" height="38.25" class="up-body"/>
<line x1="70" y1="450.17" x2="1080" y2="450.17" class="number-line"/>
<text x="1076" y="446.17" text-anchor="end" class="level-label">round 4670.00</text>
<line x1="70" y1="450.17" x2="1080" y2="450.17" class="entry-line"/>
<text x="1076" y="446.17" text-anchor="end" class="level-label">entry level 4670.00</text>
<text x="70" y="556" class="axis-label">2026-04-06 07:00:00+00:00 to 2026-04-07 01:00:00+00:00</text>
<text x="1080" y="556" text-anchor="end" class="axis-label">4634.64 - 4711.94</text>
<text x="70" y="582" class="panel-title">M5 reaction / execution context</text>
<rect x="70" y="596" width="1010" height="192" class="plot-bg"/>
<line x1="79.18" y1="627.46" x2="79.18" y2="654.45" class="up-wick"/>
<rect x="75.18" y="628.04" width="8.00" height="16.68" class="up-body"/>
<line x1="97.55" y1="609.24" x2="97.55" y2="669.53" class="down-wick"/>
<rect x="93.55" y="628.04" width="8.00" height="23.68" class="down-body"/>
<line x1="115.91" y1="627.40" x2="115.91" y2="657.59" class="up-wick"/>
<rect x="111.91" y="650.28" width="8.00" height="1.44" class="up-body"/>
<line x1="134.27" y1="650.28" x2="134.27" y2="673.82" class="down-wick"/>
<rect x="130.27" y="650.28" width="8.00" height="19.54" class="down-body"/>
<line x1="152.64" y1="645.17" x2="152.64" y2="681.62" class="up-wick"/>
<rect x="148.64" y="649.95" width="8.00" height="19.86" class="up-body"/>
<line x1="171.00" y1="638.79" x2="171.00" y2="665.13" class="down-wick"/>
<rect x="167.00" y="649.95" width="8.00" height="5.42" class="down-body"/>
<line x1="189.36" y1="651.94" x2="189.36" y2="700.00" class="down-wick"/>
<rect x="185.36" y="655.38" width="8.00" height="35.07" class="down-body"/>
<line x1="207.73" y1="689.26" x2="207.73" y2="717.62" class="down-wick"/>
<rect x="203.73" y="690.44" width="8.00" height="15.08" class="down-body"/>
<line x1="226.09" y1="697.63" x2="226.09" y2="725.06" class="down-wick"/>
<rect x="222.09" y="705.52" width="8.00" height="16.94" class="down-body"/>
<line x1="244.45" y1="706.77" x2="244.45" y2="744.50" class="up-wick"/>
<rect x="240.45" y="708.51" width="8.00" height="13.96" class="up-body"/>
<line x1="262.82" y1="696.99" x2="262.82" y2="714.86" class="down-wick"/>
<rect x="258.82" y="708.51" width="8.00" height="1.86" class="down-body"/>
<line x1="281.18" y1="701.61" x2="281.18" y2="723.59" class="up-wick"/>
<rect x="277.18" y="705.94" width="8.00" height="4.43" class="up-body"/>
<line x1="299.55" y1="693.84" x2="299.55" y2="707.64" class="up-wick"/>
<rect x="295.55" y="704.91" width="8.00" height="1.03" class="up-body"/>
<line x1="317.91" y1="703.82" x2="317.91" y2="755.67" class="down-wick"/>
<rect x="313.91" y="705.01" width="8.00" height="39.72" class="down-body"/>
<line x1="336.27" y1="725.06" x2="336.27" y2="750.12" class="up-wick"/>
<rect x="332.27" y="726.99" width="8.00" height="17.74" class="up-body"/>
<line x1="354.64" y1="709.50" x2="354.64" y2="730.39" class="up-wick"/>
<rect x="350.64" y="715.95" width="8.00" height="11.04" class="up-body"/>
<line x1="373.00" y1="703.63" x2="373.00" y2="721.50" class="up-wick"/>
<rect x="369.00" y="710.88" width="8.00" height="5.07" class="up-body"/>
<line x1="391.36" y1="700.36" x2="391.36" y2="719.67" class="up-wick"/>
<rect x="387.36" y="703.21" width="8.00" height="7.67" class="up-body"/>
<line x1="409.73" y1="695.83" x2="409.73" y2="712.71" class="down-wick"/>
<rect x="405.73" y="703.21" width="8.00" height="4.65" class="down-body"/>
<line x1="428.09" y1="706.10" x2="428.09" y2="719.74" class="down-wick"/>
<rect x="424.09" y="707.87" width="8.00" height="11.00" class="down-body"/>
<line x1="446.45" y1="693.81" x2="446.45" y2="721.50" class="up-wick"/>
<rect x="442.45" y="695.87" width="8.00" height="23.00" class="up-body"/>
<line x1="464.82" y1="688.90" x2="464.82" y2="712.52" class="down-wick"/>
<rect x="460.82" y="695.87" width="8.00" height="5.94" class="down-body"/>
<line x1="483.18" y1="694.74" x2="483.18" y2="710.82" class="up-wick"/>
<rect x="479.18" y="701.61" width="8.00" height="1.00" class="up-body"/>
<line x1="501.55" y1="696.67" x2="501.55" y2="711.55" class="down-wick"/>
<rect x="497.55" y="701.61" width="8.00" height="9.82" class="down-body"/>
<line x1="519.91" y1="705.01" x2="519.91" y2="713.70" class="up-wick"/>
<rect x="515.91" y="707.26" width="8.00" height="4.14" class="up-body"/>
<line x1="538.27" y1="693.97" x2="538.27" y2="715.40" class="down-wick"/>
<rect x="534.27" y="707.38" width="8.00" height="7.60" class="down-body"/>
<line x1="556.64" y1="709.21" x2="556.64" y2="720.63" class="down-wick"/>
<rect x="552.64" y="714.99" width="8.00" height="3.53" class="down-body"/>
<line x1="575.00" y1="712.39" x2="575.00" y2="725.16" class="up-wick"/>
<rect x="571.00" y="714.54" width="8.00" height="3.98" class="up-body"/>
<line x1="593.36" y1="707.77" x2="593.36" y2="723.04" class="down-wick"/>
<rect x="589.36" y="714.54" width="8.00" height="5.84" class="down-body"/>
<line x1="611.73" y1="719.25" x2="611.73" y2="736.07" class="down-wick"/>
<rect x="607.73" y="720.38" width="8.00" height="7.99" class="down-body"/>
<line x1="630.09" y1="725.51" x2="630.09" y2="745.43" class="down-wick"/>
<rect x="626.09" y="728.24" width="8.00" height="4.59" class="down-body"/>
<line x1="648.45" y1="729.33" x2="648.45" y2="742.58" class="down-wick"/>
<rect x="644.45" y="732.83" width="8.00" height="2.09" class="down-body"/>
<line x1="666.82" y1="730.03" x2="666.82" y2="774.76" class="down-wick"/>
<rect x="662.82" y="734.91" width="8.00" height="13.96" class="down-body"/>
<line x1="685.18" y1="730.16" x2="685.18" y2="760.22" class="up-wick"/>
<rect x="681.18" y="730.29" width="8.00" height="18.58" class="up-body"/>
<line x1="703.55" y1="728.62" x2="703.55" y2="735.84" class="up-wick"/>
<rect x="699.55" y="729.30" width="8.00" height="1.00" class="up-body"/>
<line x1="721.91" y1="728.33" x2="721.91" y2="745.21" class="down-wick"/>
<rect x="717.91" y="729.30" width="8.00" height="12.45" class="down-body"/>
<line x1="740.27" y1="727.89" x2="740.27" y2="753.49" class="up-wick"/>
<rect x="736.27" y="732.51" width="8.00" height="9.24" class="up-body"/>
<line x1="758.64" y1="729.33" x2="758.64" y2="735.46" class="up-wick"/>
<rect x="754.64" y="730.90" width="8.00" height="1.60" class="up-body"/>
<line x1="777.00" y1="729.87" x2="777.00" y2="745.92" class="down-wick"/>
<rect x="773.00" y="730.90" width="8.00" height="10.11" class="down-body"/>
<line x1="795.36" y1="737.83" x2="795.36" y2="755.99" class="down-wick"/>
<rect x="791.36" y="741.01" width="8.00" height="12.64" class="down-body"/>
<line x1="813.73" y1="741.10" x2="813.73" y2="755.70" class="up-wick"/>
<rect x="809.73" y="743.06" width="8.00" height="10.52" class="up-body"/>
<line x1="832.09" y1="741.84" x2="832.09" y2="751.15" class="down-wick"/>
<rect x="828.09" y="743.06" width="8.00" height="7.03" class="down-body"/>
<line x1="850.45" y1="744.38" x2="850.45" y2="758.72" class="down-wick"/>
<rect x="846.45" y="749.93" width="8.00" height="3.24" class="down-body"/>
<line x1="868.82" y1="732.95" x2="868.82" y2="755.25" class="up-wick"/>
<rect x="864.82" y="735.20" width="8.00" height="17.97" class="up-body"/>
<line x1="887.18" y1="708.76" x2="887.18" y2="738.73" class="up-wick"/>
<rect x="883.18" y="731.32" width="8.00" height="3.72" class="up-body"/>
<line x1="905.55" y1="717.71" x2="905.55" y2="732.38" class="up-wick"/>
<rect x="901.55" y="720.41" width="8.00" height="10.91" class="up-body"/>
<line x1="923.91" y1="718.16" x2="923.91" y2="727.53" class="down-wick"/>
<rect x="919.91" y="720.41" width="8.00" height="2.05" class="down-body"/>
<line x1="942.27" y1="715.37" x2="942.27" y2="729.78" class="down-wick"/>
<rect x="938.27" y="722.46" width="8.00" height="6.51" class="down-body"/>
<line x1="960.64" y1="718.71" x2="960.64" y2="738.57" class="down-wick"/>
<rect x="956.64" y="729.01" width="8.00" height="3.53" class="down-body"/>
<line x1="979.00" y1="728.37" x2="979.00" y2="763.59" class="down-wick"/>
<rect x="975.00" y="732.54" width="8.00" height="30.38" class="down-body"/>
<line x1="997.36" y1="754.19" x2="997.36" y2="764.91" class="up-wick"/>
<rect x="993.36" y="760.93" width="8.00" height="1.99" class="up-body"/>
<line x1="1015.73" y1="755.64" x2="1015.73" y2="764.27" class="up-wick"/>
<rect x="1011.73" y="759.10" width="8.00" height="1.83" class="up-body"/>
<line x1="1034.09" y1="753.74" x2="1034.09" y2="765.45" class="up-wick"/>
<rect x="1030.09" y="757.53" width="8.00" height="1.57" class="up-body"/>
<line x1="1052.45" y1="732.60" x2="1052.45" y2="765.42" class="up-wick"/>
<rect x="1048.45" y="735.14" width="8.00" height="22.39" class="up-body"/>
<line x1="1070.82" y1="731.57" x2="1070.82" y2="742.77" class="up-wick"/>
<rect x="1066.82" y="734.88" width="8.00" height="1.00" class="up-body"/>
<line x1="70" y1="697.41" x2="1080" y2="697.41" class="number-line"/>
<text x="1076" y="693.41" text-anchor="end" class="level-label">round 4670.00</text>
<line x1="70" y1="697.41" x2="1080" y2="697.41" class="entry-line"/>
<text x="1076" y="693.41" text-anchor="end" class="level-label">entry level 4670.00</text>
<text x="70" y="806" class="axis-label">2026-04-06 17:30:00+00:00 to 2026-04-06 22:00:00+00:00</text>
<text x="1080" y="806" text-anchor="end" class="axis-label">4641.76 - 4701.61</text>
<text x="70" y="832" class="panel-title">M1 execution window</text>
<rect x="70" y="846" width="1010" height="192" class="plot-bg"/>
<line x1="73.71" y1="875.83" x2="73.71" y2="889.45" class="up-wick"/>
<rect x="71.30" y="875.86" width="4.83" height="10.55" class="up-body"/>
<line x1="81.14" y1="875.35" x2="81.14" y2="891.60" class="down-wick"/>
<rect x="78.73" y="881.53" width="4.83" height="6.01" class="down-body"/>
<line x1="88.57" y1="868.05" x2="88.57" y2="890.30" class="up-wick"/>
<rect x="86.15" y="868.66" width="4.83" height="21.64" class="up-body"/>
<line x1="95.99" y1="859.24" x2="95.99" y2="874.98" class="down-wick"/>
<rect x="93.58" y="863.27" width="4.83" height="9.15" class="down-body"/>
<line x1="103.42" y1="862.52" x2="103.42" y2="912.80" class="down-wick"/>
<rect x="101.01" y="877.64" width="4.83" height="27.55" class="down-body"/>
<line x1="110.85" y1="881.09" x2="110.85" y2="900.10" class="up-wick"/>
<rect x="108.43" y="882.04" width="4.83" height="11.81" class="up-body"/>
<line x1="118.27" y1="872.35" x2="118.27" y2="888.56" class="down-wick"/>
<rect x="115.86" y="878.32" width="4.83" height="9.32" class="down-body"/>
<line x1="125.70" y1="874.74" x2="125.70" y2="894.95" class="down-wick"/>
<rect x="123.28" y="879.86" width="4.83" height="12.46" class="down-body"/>
<line x1="133.12" y1="901.02" x2="133.12" y2="917.37" class="up-wick"/>
<rect x="130.71" y="901.64" width="4.83" height="6.49" class="up-body"/>
<line x1="140.55" y1="902.80" x2="140.55" y2="912.87" class="down-wick"/>
<rect x="138.14" y="905.83" width="4.83" height="4.47" class="down-body"/>
<line x1="147.98" y1="908.84" x2="147.98" y2="922.80" class="down-wick"/>
<rect x="145.56" y="913.11" width="4.83" height="5.60" class="down-body"/>
<line x1="155.40" y1="895.15" x2="155.40" y2="909.93" class="up-wick"/>
<rect x="152.99" y="896.55" width="4.83" height="7.03" class="up-body"/>
<line x1="162.83" y1="888.90" x2="162.83" y2="898.97" class="down-wick"/>
<rect x="160.42" y="891.94" width="4.83" height="1.00" class="down-body"/>
<line x1="170.26" y1="890.54" x2="170.26" y2="908.12" class="up-wick"/>
<rect x="167.84" y="890.61" width="4.83" height="9.80" class="up-body"/>
<line x1="177.68" y1="880.58" x2="177.68" y2="891.67" class="up-wick"/>
<rect x="175.27" y="883.20" width="4.83" height="6.25" class="up-body"/>
<line x1="185.11" y1="894.09" x2="185.11" y2="911.84" class="down-wick"/>
<rect x="182.70" y="897.74" width="4.83" height="13.01" class="down-body"/>
<line x1="192.54" y1="911.02" x2="192.54" y2="931.44" class="down-wick"/>
<rect x="190.12" y="914.91" width="4.83" height="7.44" class="down-body"/>
<line x1="199.96" y1="931.64" x2="199.96" y2="945.23" class="up-wick"/>
<rect x="197.55" y="935.05" width="4.83" height="3.58" class="up-body"/>
<line x1="207.39" y1="943.72" x2="207.39" y2="963.97" class="down-wick"/>
<rect x="204.98" y="946.59" width="4.83" height="7.75" class="down-body"/>
<line x1="214.82" y1="933.79" x2="214.82" y2="950.41" class="down-wick"/>
<rect x="212.40" y="934.78" width="4.83" height="9.83" class="down-body"/>
<line x1="222.24" y1="949.94" x2="222.24" y2="971.88" class="down-wick"/>
<rect x="219.83" y="951.10" width="4.83" height="18.02" class="down-body"/>
<line x1="229.67" y1="948.06" x2="229.67" y2="962.43" class="down-wick"/>
<rect x="227.26" y="948.91" width="4.83" height="4.95" class="down-body"/>
<line x1="237.10" y1="957.04" x2="237.10" y2="971.47" class="down-wick"/>
<rect x="234.68" y="957.04" width="4.83" height="12.08" class="down-body"/>
<line x1="244.52" y1="972.26" x2="244.52" y2="991.24" class="up-wick"/>
<rect x="242.11" y="974.04" width="4.83" height="8.26" class="up-body"/>
<line x1="251.95" y1="956.32" x2="251.95" y2="971.82" class="up-wick"/>
<rect x="249.53" y="965.98" width="4.83" height="5.84" class="up-body"/>
<line x1="259.38" y1="944.71" x2="259.38" y2="954.41" class="up-wick"/>
<rect x="256.96" y="947.99" width="4.83" height="6.28" class="up-body"/>
<line x1="266.80" y1="942.02" x2="266.80" y2="952.67" class="down-wick"/>
<rect x="264.39" y="946.83" width="4.83" height="1.16" class="down-body"/>
<line x1="274.23" y1="953.32" x2="274.23" y2="961.03" class="down-wick"/>
<rect x="271.81" y="954.07" width="4.83" height="2.18" class="down-body"/>
<line x1="281.65" y1="961.47" x2="281.65" y2="970.21" class="up-wick"/>
<rect x="279.24" y="965.91" width="4.83" height="3.04" class="up-body"/>
<line x1="289.08" y1="949.12" x2="289.08" y2="956.69" class="up-wick"/>
<rect x="286.67" y="949.90" width="4.83" height="3.75" class="up-body"/>
<line x1="296.51" y1="943.42" x2="296.51" y2="952.19" class="up-wick"/>
<rect x="294.09" y="946.90" width="4.83" height="4.64" class="up-body"/>
<line x1="303.93" y1="941.44" x2="303.93" y2="950.79" class="down-wick"/>
<rect x="301.52" y="946.35" width="4.83" height="4.44" class="down-body"/>
<line x1="311.36" y1="940.24" x2="311.36" y2="951.23" class="down-wick"/>
<rect x="308.95" y="942.60" width="4.83" height="7.85" class="down-body"/>
<line x1="318.79" y1="949.29" x2="318.79" y2="964.27" class="down-wick"/>
<rect x="316.37" y="950.93" width="4.83" height="10.68" class="down-body"/>
<line x1="326.21" y1="984.28" x2="326.21" y2="998.61" class="down-wick"/>
<rect x="323.80" y="984.38" width="4.83" height="11.74" class="down-body"/>
<line x1="333.64" y1="984.89" x2="333.64" y2="996.19" class="up-wick"/>
<rect x="331.23" y="987.25" width="4.83" height="5.56" class="up-body"/>
<line x1="341.07" y1="977.69" x2="341.07" y2="989.22" class="up-wick"/>
<rect x="338.65" y="985.91" width="4.83" height="1.23" class="up-body"/>
<line x1="348.49" y1="971.88" x2="348.49" y2="984.24" class="up-wick"/>
<rect x="346.08" y="973.93" width="4.83" height="9.93" class="up-body"/>
<line x1="355.92" y1="961.92" x2="355.92" y2="974.38" class="up-wick"/>
<rect x="353.51" y="962.87" width="4.83" height="11.50" class="up-body"/>
<line x1="363.35" y1="955.60" x2="363.35" y2="964.55" class="down-wick"/>
<rect x="360.93" y="959.22" width="4.83" height="4.37" class="down-body"/>
<line x1="370.77" y1="958.03" x2="370.77" y2="968.10" class="up-wick"/>
<rect x="368.36" y="958.74" width="4.83" height="3.45" class="up-body"/>
<line x1="378.20" y1="950.69" x2="378.20" y2="960.72" class="up-wick"/>
<rect x="375.78" y="952.87" width="4.83" height="2.63" class="up-body"/>
<line x1="385.62" y1="956.29" x2="385.62" y2="960.96" class="up-wick"/>
<rect x="383.21" y="956.80" width="4.83" height="1.43" class="up-body"/>
<line x1="393.05" y1="959.36" x2="393.05" y2="966.15" class="up-wick"/>
<rect x="390.64" y="962.29" width="4.83" height="1.54" class="up-body"/>
<line x1="400.48" y1="954.41" x2="400.48" y2="958.98" class="up-wick"/>
<rect x="398.06" y="956.59" width="4.83" height="1.00" class="up-body"/>
<line x1="407.90" y1="940.79" x2="407.90" y2="948.64" class="up-wick"/>
<rect x="405.49" y="944.03" width="4.83" height="4.61" class="up-body"/>
<line x1="415.33" y1="940.86" x2="415.33" y2="953.28" class="down-wick"/>
<rect x="412.92" y="942.77" width="4.83" height="8.16" class="down-body"/>
<line x1="422.76" y1="945.12" x2="422.76" y2="954.72" class="down-wick"/>
<rect x="420.34" y="945.74" width="4.83" height="7.85" class="down-body"/>
<line x1="430.18" y1="951.71" x2="430.18" y2="959.66" class="down-wick"/>
<rect x="427.77" y="954.03" width="4.83" height="1.98" class="down-body"/>
<line x1="437.61" y1="956.69" x2="437.61" y2="966.01" class="down-wick"/>
<rect x="435.20" y="960.04" width="4.83" height="5.43" class="down-body"/>
<line x1="445.04" y1="959.84" x2="445.04" y2="968.10" class="up-wick"/>
<rect x="442.62" y="960.14" width="4.83" height="5.15" class="up-body"/>
<line x1="452.46" y1="946.22" x2="452.46" y2="953.93" class="down-wick"/>
<rect x="450.05" y="948.78" width="4.83" height="1.47" class="down-body"/>
<line x1="459.89" y1="938.64" x2="459.89" y2="946.18" class="up-wick"/>
<rect x="457.48" y="940.82" width="4.83" height="3.89" class="up-body"/>
<line x1="467.32" y1="935.94" x2="467.32" y2="944.20" class="up-wick"/>
<rect x="464.90" y="937.55" width="4.83" height="4.61" class="up-body"/>
<line x1="474.74" y1="947.21" x2="474.74" y2="957.45" class="down-wick"/>
<rect x="472.33" y="948.64" width="4.83" height="3.75" class="down-body"/>
<line x1="482.17" y1="942.60" x2="482.17" y2="951.34" class="up-wick"/>
<rect x="479.76" y="942.90" width="4.83" height="4.23" class="up-body"/>
<line x1="489.60" y1="948.95" x2="489.60" y2="956.73" class="down-wick"/>
<rect x="487.18" y="951.44" width="4.83" height="5.29" class="down-body"/>
<line x1="497.02" y1="945.06" x2="497.02" y2="953.01" class="up-wick"/>
<rect x="494.61" y="946.93" width="4.83" height="1.00" class="up-body"/>
<line x1="504.45" y1="942.22" x2="504.45" y2="949.83" class="down-wick"/>
<rect x="502.03" y="943.21" width="4.83" height="6.62" class="down-body"/>
<line x1="511.88" y1="948.16" x2="511.88" y2="954.89" class="up-wick"/>
<rect x="509.46" y="948.84" width="4.83" height="2.80" class="up-body"/>
<line x1="519.30" y1="953.93" x2="519.30" y2="959.80" class="up-wick"/>
<rect x="516.89" y="955.74" width="4.83" height="1.60" class="up-body"/>
<line x1="526.73" y1="951.78" x2="526.73" y2="954.00" class="up-wick"/>
<rect x="524.31" y="952.43" width="4.83" height="1.00" class="up-body"/>
<line x1="534.15" y1="950.55" x2="534.15" y2="956.22" class="up-wick"/>
<rect x="531.74" y="952.94" width="4.83" height="2.39" class="up-body"/>
<line x1="541.58" y1="950.69" x2="541.58" y2="953.45" class="down-wick"/>
<rect x="539.17" y="951.98" width="4.83" height="1.00" class="down-body"/>
<line x1="549.01" y1="938.81" x2="549.01" y2="952.19" class="up-wick"/>
<rect x="546.59" y="951.37" width="4.83" height="1.00" class="up-body"/>
<line x1="556.43" y1="958.40" x2="556.43" y2="965.13" class="down-wick"/>
<rect x="554.02" y="961.17" width="4.83" height="1.13" class="down-body"/>
<line x1="563.86" y1="955.02" x2="563.86" y2="959.87" class="up-wick"/>
<rect x="561.45" y="955.84" width="4.83" height="1.91" class="up-body"/>
<line x1="571.29" y1="955.98" x2="571.29" y2="967.17" class="down-wick"/>
<rect x="568.87" y="957.99" width="4.83" height="6.93" class="down-body"/>
<line x1="578.71" y1="961.68" x2="578.71" y2="971.99" class="up-wick"/>
<rect x="576.30" y="963.04" width="4.83" height="4.92" class="up-body"/>
<line x1="586.14" y1="958.40" x2="586.14" y2="969.26" class="up-wick"/>
<rect x="583.73" y="962.74" width="4.83" height="5.46" class="up-body"/>
<line x1="593.57" y1="953.93" x2="593.57" y2="962.67" class="up-wick"/>
<rect x="591.15" y="955.64" width="4.83" height="5.05" class="up-body"/>
<line x1="600.99" y1="955.88" x2="600.99" y2="959.19" class="down-wick"/>
<rect x="598.58" y="956.59" width="4.83" height="1.77" class="down-body"/>
<line x1="608.42" y1="955.70" x2="608.42" y2="969.73" class="down-wick"/>
<rect x="606.01" y="957.55" width="4.83" height="9.35" class="down-body"/>
<line x1="615.85" y1="970.45" x2="615.85" y2="977.04" class="down-wick"/>
<rect x="613.43" y="972.36" width="4.83" height="3.21" class="down-body"/>
<line x1="623.27" y1="973.56" x2="623.27" y2="983.59" class="down-wick"/>
<rect x="620.86" y="974.17" width="4.83" height="6.42" class="down-body"/>
<line x1="630.70" y1="973.22" x2="630.70" y2="984.89" class="down-wick"/>
<rect x="628.28" y="975.26" width="4.83" height="8.47" class="down-body"/>
<line x1="638.12" y1="972.36" x2="638.12" y2="988.17" class="down-wick"/>
<rect x="635.71" y="978.06" width="4.83" height="8.33" class="down-body"/>
<line x1="645.55" y1="980.15" x2="645.55" y2="989.02" class="up-wick"/>
<rect x="643.14" y="980.15" width="4.83" height="5.80" class="up-body"/>
<line x1="652.98" y1="982.43" x2="652.98" y2="990.52" class="up-wick"/>
<rect x="650.56" y="982.67" width="4.83" height="4.27" class="up-body"/>
<line x1="660.40" y1="976.42" x2="660.40" y2="980.59" class="up-wick"/>
<rect x="657.99" y="978.88" width="4.83" height="1.71" class="up-body"/>
<line x1="667.83" y1="977.18" x2="667.83" y2="991.27" class="down-wick"/>
<rect x="665.42" y="982.36" width="4.83" height="7.82" class="down-body"/>
<line x1="675.26" y1="980.04" x2="675.26" y2="1007.01" class="down-wick"/>
<rect x="672.84" y="983.59" width="4.83" height="22.22" class="down-body"/>
<line x1="682.68" y1="995.85" x2="682.68" y2="1024.76" class="up-wick"/>
<rect x="680.27" y="997.21" width="4.83" height="7.68" class="up-body"/>
<line x1="690.11" y1="992.95" x2="690.11" y2="1009.30" class="up-wick"/>
<rect x="687.70" y="999.09" width="4.83" height="2.12" class="up-body"/>
<line x1="697.54" y1="981.58" x2="697.54" y2="991.51" class="up-wick"/>
<rect x="695.12" y="985.23" width="4.83" height="3.31" class="up-body"/>
<line x1="704.96" y1="976.77" x2="704.96" y2="982.02" class="down-wick"/>
<rect x="702.55" y="977.45" width="4.83" height="4.51" class="down-body"/>
<line x1="712.39" y1="976.12" x2="712.39" y2="983.35" class="down-wick"/>
<rect x="709.98" y="976.70" width="4.83" height="2.94" class="down-body"/>
<line x1="719.82" y1="975.67" x2="719.82" y2="980.45" class="up-wick"/>
<rect x="717.40" y="976.39" width="4.83" height="2.66" class="up-body"/>
<line x1="727.24" y1="976.12" x2="727.24" y2="980.55" class="up-wick"/>
<rect x="724.83" y="976.53" width="4.83" height="2.22" class="up-body"/>
<line x1="734.67" y1="975.84" x2="734.67" y2="980.08" class="down-wick"/>
<rect x="732.26" y="978.47" width="4.83" height="1.00" class="down-body"/>
<line x1="742.10" y1="985.71" x2="742.10" y2="1002.13" class="down-wick"/>
<rect x="739.68" y="989.63" width="4.83" height="8.94" class="down-body"/>
<line x1="749.52" y1="983.80" x2="749.52" y2="988.58" class="up-wick"/>
<rect x="747.11" y="985.27" width="4.83" height="3.31" class="up-body"/>
<line x1="756.95" y1="974.89" x2="756.95" y2="981.99" class="down-wick"/>
<rect x="754.53" y="978.68" width="4.83" height="1.13" class="down-body"/>
<line x1="764.38" y1="977.18" x2="764.38" y2="981.27" class="up-wick"/>
<rect x="761.96" y="977.55" width="4.83" height="2.15" class="up-body"/>
<line x1="771.80" y1="978.51" x2="771.80" y2="982.94" class="up-wick"/>
<rect x="769.39" y="979.39" width="4.83" height="1.00" class="up-body"/>
<line x1="779.23" y1="977.00" x2="779.23" y2="982.94" class="down-wick"/>
<rect x="776.81" y="978.10" width="4.83" height="2.29" class="down-body"/>
<line x1="786.65" y1="988.17" x2="786.65" y2="993.39" class="up-wick"/>
<rect x="784.24" y="988.23" width="4.83" height="1.19" class="up-body"/>
<line x1="794.08" y1="986.26" x2="794.08" y2="993.87" class="up-wick"/>
<rect x="791.67" y="988.85" width="4.83" height="2.25" class="up-body"/>
<line x1="801.51" y1="989.63" x2="801.51" y2="996.50" class="down-wick"/>
<rect x="799.09" y="990.42" width="4.83" height="4.40" class="down-body"/>
<line x1="808.93" y1="994.72" x2="808.93" y2="1004.79" class="down-wick"/>
<rect x="806.52" y="1000.90" width="4.83" height="1.88" class="down-body"/>
<line x1="816.36" y1="993.90" x2="816.36" y2="1004.48" class="up-wick"/>
<rect x="813.95" y="997.62" width="4.83" height="4.61" class="up-body"/>
<line x1="823.79" y1="992.43" x2="823.79" y2="1000.32" class="up-wick"/>
<rect x="821.37" y="992.54" width="4.83" height="4.81" class="up-body"/>
<line x1="831.21" y1="990.90" x2="831.21" y2="994.62" class="up-wick"/>
<rect x="828.80" y="991.03" width="4.83" height="2.32" class="up-body"/>
<line x1="838.64" y1="994.48" x2="838.64" y2="999.12" class="up-wick"/>
<rect x="836.23" y="994.96" width="4.83" height="3.86" class="up-body"/>
<line x1="846.07" y1="992.37" x2="846.07" y2="995.95" class="up-wick"/>
<rect x="843.65" y="995.13" width="4.83" height="1.00" class="up-body"/>
<line x1="853.49" y1="995.78" x2="853.49" y2="999.50" class="up-wick"/>
<rect x="851.08" y="995.88" width="4.83" height="2.46" class="up-body"/>
<line x1="860.92" y1="995.44" x2="860.92" y2="999.23" class="up-wick"/>
<rect x="858.51" y="997.14" width="4.83" height="1.00" class="up-body"/>
<line x1="868.35" y1="995.54" x2="868.35" y2="1007.69" class="up-wick"/>
<rect x="865.93" y="1001.79" width="4.83" height="4.30" class="up-body"/>
<line x1="875.77" y1="991.82" x2="875.77" y2="999.74" class="up-wick"/>
<rect x="873.36" y="993.90" width="4.83" height="2.87" class="up-body"/>
<line x1="883.20" y1="982.36" x2="883.20" y2="987.42" class="up-wick"/>
<rect x="880.78" y="984.07" width="4.83" height="3.04" class="up-body"/>
<line x1="890.62" y1="975.64" x2="890.62" y2="982.71" class="up-wick"/>
<rect x="888.21" y="976.05" width="4.83" height="6.45" class="up-body"/>
<line x1="898.05" y1="959.66" x2="898.05" y2="974.14" class="down-wick"/>
<rect x="895.64" y="959.87" width="4.83" height="7.58" class="down-body"/>
<line x1="905.48" y1="974.21" x2="905.48" y2="986.43" class="down-wick"/>
<rect x="903.06" y="974.51" width="4.83" height="4.03" class="down-body"/>
<line x1="912.90" y1="964.92" x2="912.90" y2="971.82" class="down-wick"/>
<rect x="910.49" y="966.01" width="4.83" height="4.74" class="down-body"/>
<line x1="920.33" y1="964.07" x2="920.33" y2="971.00" class="up-wick"/>
<rect x="917.92" y="965.60" width="4.83" height="4.30" class="up-body"/>
<line x1="927.76" y1="965.54" x2="927.76" y2="968.57" class="down-wick"/>
<rect x="925.34" y="966.94" width="4.83" height="1.00" class="down-body"/>
<line x1="935.18" y1="967.31" x2="935.18" y2="974.51" class="down-wick"/>
<rect x="932.77" y="967.31" width="4.83" height="5.02" class="down-body"/>
<line x1="942.61" y1="964.55" x2="942.61" y2="972.91" class="down-wick"/>
<rect x="940.20" y="968.85" width="4.83" height="1.00" class="down-body"/>
<line x1="950.04" y1="966.83" x2="950.04" y2="971.68" class="down-wick"/>
<rect x="947.62" y="966.90" width="4.83" height="4.78" class="down-body"/>
<line x1="957.46" y1="961.64" x2="957.46" y2="968.03" class="down-wick"/>
<rect x="955.05" y="963.73" width="4.83" height="4.20" class="down-body"/>
<line x1="964.89" y1="965.13" x2="964.89" y2="976.08" class="up-wick"/>
<rect x="962.48" y="970.96" width="4.83" height="5.12" class="up-body"/>
<line x1="972.32" y1="965.98" x2="972.32" y2="974.17" class="down-wick"/>
<rect x="969.90" y="966.66" width="4.83" height="4.68" class="down-body"/>
<line x1="979.74" y1="977.48" x2="979.74" y2="986.26" class="down-wick"/>
<rect x="977.33" y="977.76" width="4.83" height="2.08" class="down-body"/>
<line x1="987.17" y1="981.75" x2="987.17" y2="989.87" class="down-wick"/>
<rect x="984.76" y="984.00" width="4.83" height="3.21" class="down-body"/>
<line x1="994.60" y1="995.03" x2="994.60" y2="1002.47" class="down-wick"/>
<rect x="992.18" y="995.03" width="4.83" height="6.04" class="down-body"/>
<line x1="1002.02" y1="1007.04" x2="1002.02" y2="1014.28" class="up-wick"/>
<rect x="999.61" y="1008.68" width="4.83" height="3.48" class="up-body"/>
<line x1="1009.45" y1="1002.88" x2="1009.45" y2="1008.54" class="up-wick"/>
<rect x="1007.03" y="1004.04" width="4.83" height="3.24" class="up-body"/>
<line x1="1016.88" y1="1005.75" x2="1016.88" y2="1010.05" class="down-wick"/>
<rect x="1014.46" y="1008.27" width="4.83" height="1.77" class="down-body"/>
<line x1="1024.30" y1="1004.65" x2="1024.30" y2="1010.12" class="down-wick"/>
<rect x="1021.89" y="1005.95" width="4.83" height="2.56" class="down-body"/>
<line x1="1031.73" y1="1005.92" x2="1031.73" y2="1012.03" class="up-wick"/>
<rect x="1029.31" y="1006.84" width="4.83" height="2.39" class="up-body"/>
<line x1="1039.15" y1="1006.09" x2="1039.15" y2="1010.39" class="down-wick"/>
<rect x="1036.74" y="1008.10" width="4.83" height="1.74" class="down-body"/>
<line x1="1046.58" y1="1008.61" x2="1046.58" y2="1013.56" class="down-wick"/>
<rect x="1044.17" y="1010.22" width="4.83" height="1.98" class="down-body"/>
<line x1="1054.01" y1="1002.40" x2="1054.01" y2="1010.83" class="up-wick"/>
<rect x="1051.59" y="1006.43" width="4.83" height="3.65" class="up-body"/>
<line x1="1061.43" y1="982.98" x2="1061.43" y2="1014.83" class="up-wick"/>
<rect x="1059.02" y="983.93" width="4.83" height="28.98" class="up-body"/>
<line x1="1068.86" y1="981.27" x2="1068.86" y2="989.26" class="up-wick"/>
<rect x="1066.45" y="982.74" width="4.83" height="6.35" class="up-body"/>
<line x1="1076.29" y1="979.39" x2="1076.29" y2="986.87" class="up-wick"/>
<rect x="1073.87" y="980.59" width="4.83" height="2.01" class="up-body"/>
<line x1="70" y1="942.46" x2="1080" y2="942.46" class="number-line"/>
<text x="1076" y="938.46" text-anchor="end" class="level-label">round 4670.00</text>
<line x1="70" y1="942.46" x2="1080" y2="942.46" class="entry-line"/>
<text x="1076" y="938.46" text-anchor="end" class="level-label">entry level 4670.00</text>
<text x="70" y="1056" class="axis-label">2026-04-06 17:30:00+00:00 to 2026-04-06 22:00:00+00:00</text>
<text x="1080" y="1056" text-anchor="end" class="axis-label">4642.01 - 4698.26</text>
</svg>