<svg xmlns="http://www.w3.org/2000/svg" width="1120" height="1054" viewBox="0 0 1120 1054">
<style>
text{font-family:Arial,Helvetica,sans-serif}.title{font-size:21px;font-weight:700;fill:#1f2937}.subtitle{font-size:12px;fill:#4b5563}.panel-title{font-size:15px;font-weight:700;fill:#111827}.muted{font-size:13px;fill:#6b7280}.plot-bg{fill:#f8fafc;stroke:#cbd5e1;stroke-width:1}.up-body{fill:#15803d;stroke:#14532d;stroke-width:.8}.down-body{fill:#b91c1c;stroke:#7f1d1d;stroke-width:.8}.up-wick{stroke:#14532d;stroke-width:1}.down-wick{stroke:#7f1d1d;stroke-width:1}.sweep-line{stroke:#7c3aed;stroke-width:1.6;stroke-dasharray:6 4}.number-line{stroke:#0f766e;stroke-width:1.4;stroke-dasharray:3 4}.entry-line{stroke:#2563eb;stroke-width:1.4}.sl-line{stroke:#dc2626;stroke-width:1.4}.tp-line{stroke:#16a34a;stroke-width:1.4}.level-label,.axis-label{font-size:11px;fill:#374151}
</style>
<text x="28" y="28" class="title">Adelin v2 visual review sample sample_090</text>
<text x="28" y="48" class="subtitle">Candidate windows are for visual labeling only and are not trade signals.</text>
<text x="560" y="48" class="subtitle" text-anchor="middle">LARGE_LOWER_WICK_REVERSAL_VISUAL_CANDIDATE | PRE_ANCHOR_SWEEP_EXTREME_CANDIDATE</text>
<text x="70" y="82" class="panel-title">H1 liquidity context</text>
<rect x="70" y="96" width="1010" height="192" class="plot-bg"/>
<line x1="77.65" y1="253.72" x2="77.65" y2="264.54" class="up-wick"/>
<rect x="73.65" y="260.03" width="8.00" height="1.00" class="up-body"/>
<line x1="92.95" y1="254.64" x2="92.95" y2="269.69" class="up-wick"/>
<rect x="88.95" y="258.54" width="8.00" height="1.49" class="up-body"/>
<line x1="108.26" y1="240.57" x2="108.26" y2="274.76" class="up-wick"/>
<rect x="104.26" y="240.83" width="8.00" height="17.70" class="up-body"/>
<line x1="123.56" y1="203.47" x2="123.56" y2="249.01" class="up-wick"/>
<rect x="119.56" y="211.01" width="8.00" height="29.83" class="up-body"/>
<line x1="138.86" y1="209.84" x2="138.86" y2="231.54" class="down-wick"/>
<rect x="134.86" y="211.01" width="8.00" height="19.18" class="down-body"/>
<line x1="154.17" y1="225.65" x2="154.17" y2="239.52" class="down-wick"/>
<rect x="150.17" y="230.18" width="8.00" height="5.82" class="down-body"/>
<line x1="169.47" y1="229.53" x2="169.47" y2="236.00" class="up-wick"/>
<rect x="165.47" y="231.91" width="8.00" height="4.08" class="up-body"/>
<line x1="184.77" y1="223.09" x2="184.77" y2="240.78" class="up-wick"/>
<rect x="180.77" y="229.79" width="8.00" height="2.11" class="up-body"/>
<line x1="200.08" y1="229.67" x2="200.08" y2="237.95" class="down-wick"/>
<rect x="196.08" y="229.79" width="8.00" height="6.14" class="down-body"/>
<line x1="215.38" y1="231.51" x2="215.38" y2="243.18" class="up-wick"/>
<rect x="211.38" y="232.14" width="8.00" height="3.79" class="up-body"/>
<line x1="230.68" y1="226.53" x2="230.68" y2="234.24" class="up-wick"/>
<rect x="226.68" y="229.99" width="8.00" height="2.15" class="up-body"/>
<line x1="245.98" y1="228.01" x2="245.98" y2="239.56" class="down-wick"/>
<rect x="241.98" y="229.99" width="8.00" height="6.75" class="down-body"/>
<line x1="261.29" y1="233.51" x2="261.29" y2="250.34" class="down-wick"/>
<rect x="257.29" y="236.75" width="8.00" height="4.49" class="down-body"/>
<line x1="276.59" y1="217.15" x2="276.59" y2="244.34" class="up-wick"/>
<rect x="272.59" y="222.86" width="8.00" height="18.39" class="up-body"/>
<line x1="291.89" y1="214.89" x2="291.89" y2="229.68" class="down-wick"/>
<rect x="287.89" y="222.86" width="8.00" height="3.92" class="down-body"/>
<line x1="307.20" y1="208.45" x2="307.20" y2="230.37" class="up-wick"/>
<rect x="303.20" y="209.92" width="8.00" height="16.86" class="up-body"/>
<line x1="322.50" y1="197.93" x2="322.50" y2="216.23" class="down-wick"/>
<rect x="318.50" y="209.96" width="8.00" height="4.16" class="down-body"/>
<line x1="337.80" y1="200.36" x2="337.80" y2="214.12" class="up-wick"/>
<rect x="333.80" y="208.67" width="8.00" height="5.45" class="up-body"/>
<line x1="353.11" y1="186.73" x2="353.11" y2="210.00" class="up-wick"/>
<rect x="349.11" y="193.76" width="8.00" height="14.91" class="up-body"/>
<line x1="368.41" y1="178.59" x2="368.41" y2="194.69" class="up-wick"/>
<rect x="364.41" y="184.99" width="8.00" height="8.74" class="up-body"/>
<line x1="383.71" y1="176.59" x2="383.71" y2="185.71" class="up-wick"/>
<rect x="379.71" y="178.49" width="8.00" height="6.70" class="up-body"/>
<line x1="399.02" y1="169.01" x2="399.02" y2="181.42" class="up-wick"/>
<rect x="395.02" y="170.58" width="8.00" height="7.90" class="up-body"/>
<line x1="414.32" y1="163.40" x2="414.32" y2="181.53" class="up-wick"/>
<rect x="410.32" y="171.53" width="8.00" height="6.92" class="up-body"/>
<line x1="429.62" y1="161.48" x2="429.62" y2="176.18" class="up-wick"/>
<rect x="425.62" y="163.52" width="8.00" height="8.01" class="up-body"/>
<line x1="444.92" y1="149.90" x2="444.92" y2="164.97" class="up-wick"/>
<rect x="440.92" y="155.88" width="8.00" height="7.61" class="up-body"/>
<line x1="460.23" y1="148.93" x2="460.23" y2="171.20" class="down-wick"/>
<rect x="456.23" y="155.88" width="8.00" height="9.43" class="down-body"/>
<line x1="475.53" y1="161.30" x2="475.53" y2="172.86" class="down-wick"/>
<rect x="471.53" y="165.33" width="8.00" height="4.31" class="down-body"/>
<line x1="490.83" y1="164.56" x2="490.83" y2="172.10" class="down-wick"/>
<rect x="486.83" y="169.64" width="8.00" height="1.33" class="down-body"/>
<line x1="506.14" y1="170.90" x2="506.14" y2="178.70" class="down-wick"/>
<rect x="502.14" y="170.97" width="8.00" height="2.85" class="down-body"/>
<line x1="521.44" y1="159.72" x2="521.44" y2="174.62" class="up-wick"/>
<rect x="517.44" y="169.80" width="8.00" height="4.01" class="up-body"/>
<line x1="536.74" y1="144.25" x2="536.74" y2="170.63" class="up-wick"/>
<rect x="532.74" y="145.60" width="8.00" height="24.17" class="up-body"/>
<line x1="552.05" y1="136.73" x2="552.05" y2="156.54" class="down-wick"/>
<rect x="548.05" y="145.60" width="8.00" height="9.20" class="down-body"/>
<line x1="567.35" y1="140.43" x2="567.35" y2="156.08" class="up-wick"/>
<rect x="563.35" y="146.63" width="8.00" height="8.17" class="up-body"/>
<line x1="582.65" y1="145.80" x2="582.65" y2="154.64" class="down-wick"/>
<rect x="578.65" y="146.63" width="8.00" height="2.85" class="down-body"/>
<line x1="597.95" y1="141.32" x2="597.95" y2="153.73" class="up-wick"/>
<rect x="593.95" y="145.20" width="8.00" height="4.28" class="up-body"/>
<line x1="613.26" y1="128.72" x2="613.26" y2="146.88" class="up-wick"/>
<rect x="609.26" y="134.24" width="8.00" height="10.96" class="up-body"/>
<line x1="628.56" y1="133.58" x2="628.56" y2="148.85" class="down-wick"/>
<rect x="624.56" y="134.24" width="8.00" height="14.40" class="down-body"/>
<line x1="643.86" y1="135.73" x2="643.86" y2="153.11" class="up-wick"/>
<rect x="639.86" y="141.66" width="8.00" height="6.98" class="up-body"/>
<line x1="659.17" y1="125.71" x2="659.17" y2="148.92" class="up-wick"/>
<rect x="655.17" y="129.91" width="8.00" height="11.75" class="up-body"/>
<line x1="674.47" y1="115.59" x2="674.47" y2="131.17" class="up-wick"/>
<rect x="670.47" y="116.47" width="8.00" height="13.44" class="up-body"/>
<line x1="689.77" y1="114.32" x2="689.77" y2="122.80" class="up-wick"/>
<rect x="685.77" y="116.08" width="8.00" height="1.00" class="up-body"/>
<line x1="705.08" y1="113.08" x2="705.08" y2="123.21" class="down-wick"/>
<rect x="701.08" y="116.08" width="8.00" height="6.77" class="down-body"/>
<line x1="720.38" y1="122.36" x2="720.38" y2="139.60" class="down-wick"/>
<rect x="716.38" y="122.86" width="8.00" height="11.05" class="down-body"/>
<line x1="735.68" y1="120.79" x2="735.68" y2="134.90" class="up-wick"/>
<rect x="731.68" y="127.10" width="8.00" height="6.81" class="up-body"/>
<line x1="750.98" y1="118.43" x2="750.98" y2="136.18" class="up-wick"/>
<rect x="746.98" y="121.75" width="8.00" height="9.95" class="up-body"/>
<line x1="766.29" y1="109.24" x2="766.29" y2="123.22" class="up-wick"/>
<rect x="762.29" y="117.77" width="8.00" height="3.98" class="up-body"/>
<line x1="781.59" y1="110.12" x2="781.59" y2="122.44" class="up-wick"/>
<rect x="777.59" y="117.47" width="8.00" height="1.00" class="up-body"/>
<line x1="796.89" y1="116.61" x2="796.89" y2="187.56" class="down-wick"/>
<rect x="792.89" y="117.47" width="8.00" height="45.85" class="down-body"/>
<line x1="812.20" y1="159.42" x2="812.20" y2="184.70" class="down-wick"/>
<rect x="808.20" y="163.38" width="8.00" height="5.05" class="down-body"/>
<line x1="827.50" y1="161.94" x2="827.50" y2="174.27" class="down-wick"/>
<rect x="823.50" y="168.43" width="8.00" height="5.56" class="down-body"/>
<line x1="842.80" y1="171.24" x2="842.80" y2="183.87" class="down-wick"/>
<rect x="838.80" y="173.99" width="8.00" height="1.85" class="down-body"/>
<line x1="858.11" y1="171.74" x2="858.11" y2="220.79" class="down-wick"/>
<rect x="854.11" y="175.83" width="8.00" height="40.84" class="down-body"/>
<line x1="873.41" y1="209.11" x2="873.41" y2="237.66" class="up-wick"/>
<rect x="869.41" y="214.03" width="8.00" height="2.63" class="up-body"/>
<line x1="888.71" y1="187.06" x2="888.71" y2="215.04" class="up-wick"/>
<rect x="884.71" y="191.35" width="8.00" height="22.68" class="up-body"/>
<line x1="904.02" y1="188.17" x2="904.02" y2="204.63" class="down-wick"/>
<rect x="900.02" y="191.35" width="8.00" height="11.44" class="down-body"/>
<line x1="919.32" y1="197.04" x2="919.32" y2="206.73" class="up-wick"/>
<rect x="915.32" y="202.25" width="8.00" height="1.00" class="up-body"/>
<line x1="934.62" y1="195.41" x2="934.62" y2="211.48" class="down-wick"/>
<rect x="930.62" y="202.25" width="8.00" height="1.00" class="down-body"/>
<line x1="949.92" y1="197.67" x2="949.92" y2="217.30" class="down-wick"/>
<rect x="945.92" y="203.08" width="8.00" height="10.50" class="down-body"/>
<line x1="965.23" y1="197.86" x2="965.23" y2="216.44" class="up-wick"/>
<rect x="961.23" y="212.71" width="8.00" height="1.00" class="up-body"/>
<line x1="980.53" y1="186.82" x2="980.53" y2="223.64" class="up-wick"/>
<rect x="976.53" y="189.43" width="8.00" height="23.18" class="up-body"/>
<line x1="995.83" y1="161.68" x2="995.83" y2="197.21" class="up-wick"/>
<rect x="991.83" y="171.21" width="8.00" height="18.23" class="up-body"/>
<line x1="1011.14" y1="169.86" x2="1011.14" y2="186.22" class="down-wick"/>
<rect x="1007.14" y="171.21" width="8.00" height="10.63" class="down-body"/>
<line x1="1026.44" y1="176.93" x2="1026.44" y2="191.21" class="down-wick"/>
<rect x="1022.44" y="181.84" width="8.00" height="1.00" class="down-body"/>
<line x1="1041.74" y1="178.00" x2="1041.74" y2="189.79" class="down-wick"/>
<rect x="1037.74" y="182.78" width="8.00" height="5.56" class="down-body"/>
<line x1="1057.05" y1="176.10" x2="1057.05" y2="188.95" class="up-wick"/>
<rect x="1053.05" y="177.95" width="8.00" height="10.39" class="up-body"/>
<line x1="1072.35" y1="171.00" x2="1072.35" y2="181.63" class="up-wick"/>
<rect x="1068.35" y="176.14" width="8.00" height="1.80" class="up-body"/>
<line x1="70" y1="171.37" x2="1080" y2="171.37" class="sweep-line"/>
<text x="1076" y="167.37" text-anchor="end" class="level-label">sweep 4681.14</text>
<line x1="70" y1="171.00" x2="1080" y2="171.00" class="entry-line"/>
<text x="1076" y="167.00" text-anchor="end" class="level-label">entry level 4681.85</text>
<text x="70" y="306" class="axis-label">2026-03-31 01:00:00+00:00 to 2026-04-02 22:00:00+00:00</text>
<text x="1080" y="306" text-anchor="end" class="axis-label">4457.16 - 4825.88</text>
<text x="70" y="332" class="panel-title">M15 liquidity / reaction context</text>
<rect x="70" y="346" width="1010" height="192" class="plot-bg"/>
<line x1="80.10" y1="440.16" x2="80.10" y2="471.00" class="up-wick"/>
<rect x="76.10" y="445.91" width="8.00" height="23.33" class="up-body"/>
<line x1="100.30" y1="427.05" x2="100.30" y2="447.70" class="up-wick"/>
<rect x="96.30" y="438.49" width="8.00" height="7.59" class="up-body"/>
<line x1="120.50" y1="430.01" x2="120.50" y2="457.65" class="down-wick"/>
<rect x="116.50" y="438.49" width="8.00" height="2.32" class="down-body"/>
<line x1="140.70" y1="435.60" x2="140.70" y2="454.23" class="down-wick"/>
<rect x="136.70" y="440.82" width="8.00" height="9.33" class="down-body"/>
<line x1="160.90" y1="437.13" x2="160.90" y2="455.48" class="down-wick"/>
<rect x="156.90" y="450.15" width="8.00" height="5.24" class="down-body"/>
<line x1="181.10" y1="450.05" x2="181.10" y2="473.98" class="down-wick"/>
<rect x="177.10" y="455.39" width="8.00" height="13.66" class="down-body"/>
<line x1="201.30" y1="462.77" x2="201.30" y2="479.57" class="up-wick"/>
<rect x="197.30" y="464.89" width="8.00" height="4.16" class="up-body"/>
<line x1="221.50" y1="453.68" x2="221.50" y2="474.03" class="down-wick"/>
<rect x="217.50" y="464.89" width="8.00" height="3.82" class="down-body"/>
<line x1="241.70" y1="462.63" x2="241.70" y2="476.51" class="up-wick"/>
<rect x="237.70" y="468.04" width="8.00" height="1.00" class="up-body"/>
<line x1="261.90" y1="458.50" x2="261.90" y2="473.24" class="up-wick"/>
<rect x="257.90" y="467.62" width="8.00" height="1.00" class="up-body"/>
<line x1="282.10" y1="449.33" x2="282.10" y2="472.28" class="up-wick"/>
<rect x="278.10" y="462.96" width="8.00" height="4.66" class="up-body"/>
<line x1="302.30" y1="460.54" x2="302.30" y2="492.25" class="down-wick"/>
<rect x="298.30" y="462.96" width="8.00" height="9.12" class="down-body"/>
<line x1="322.50" y1="454.31" x2="322.50" y2="479.05" class="up-wick"/>
<rect x="318.50" y="463.80" width="8.00" height="8.29" class="up-body"/>
<line x1="342.70" y1="456.72" x2="342.70" y2="470.53" class="down-wick"/>
<rect x="338.70" y="463.82" width="8.00" height="5.61" class="down-body"/>
<line x1="362.90" y1="456.42" x2="362.90" y2="474.74" class="up-wick"/>
<rect x="358.90" y="459.66" width="8.00" height="10.15" class="up-body"/>
<line x1="383.10" y1="455.37" x2="383.10" y2="478.36" class="down-wick"/>
<rect x="379.10" y="459.66" width="8.00" height="17.69" class="down-body"/>
<line x1="403.30" y1="473.50" x2="403.30" y2="507.82" class="down-wick"/>
<rect x="399.30" y="477.36" width="8.00" height="20.56" class="down-body"/>
<line x1="423.50" y1="481.15" x2="423.50" y2="503.27" class="up-wick"/>
<rect x="419.50" y="497.86" width="8.00" height="1.00" class="up-body"/>
<line x1="443.70" y1="480.14" x2="443.70" y2="505.51" class="up-wick"/>
<rect x="439.70" y="480.47" width="8.00" height="17.34" class="up-body"/>
<line x1="463.90" y1="455.88" x2="463.90" y2="484.66" class="up-wick"/>
<rect x="459.90" y="461.47" width="8.00" height="19.00" class="up-body"/>
<line x1="484.10" y1="460.74" x2="484.10" y2="476.04" class="down-wick"/>
<rect x="480.10" y="461.47" width="8.00" height="11.21" class="down-body"/>
<line x1="504.30" y1="461.22" x2="504.30" y2="497.36" class="down-wick"/>
<rect x="500.30" y="472.60" width="8.00" height="22.96" class="down-body"/>
<line x1="524.50" y1="478.48" x2="524.50" y2="524.76" class="down-wick"/>
<rect x="520.50" y="495.29" width="8.00" height="20.04" class="down-body"/>
<line x1="544.70" y1="497.55" x2="544.70" y2="524.29" class="up-wick"/>
<rect x="540.70" y="501.38" width="8.00" height="13.95" class="up-body"/>
<line x1="564.90" y1="487.44" x2="564.90" y2="517.21" class="up-wick"/>
<rect x="560.90" y="494.95" width="8.00" height="6.43" class="up-body"/>
<line x1="585.10" y1="426.41" x2="585.10" y2="497.09" class="up-wick"/>
<rect x="581.10" y="433.38" width="8.00" height="61.58" class="up-body"/>
<line x1="605.30" y1="414.65" x2="605.30" y2="454.14" class="up-wick"/>
<rect x="601.30" y="431.51" width="8.00" height="1.86" class="up-body"/>
<line x1="625.50" y1="392.72" x2="625.50" y2="434.20" class="up-wick"/>
<rect x="621.50" y="407.26" width="8.00" height="24.26" class="up-body"/>
<line x1="645.70" y1="359.24" x2="645.70" y2="415.86" class="up-wick"/>
<rect x="641.70" y="367.89" width="8.00" height="39.36" class="up-body"/>
<line x1="665.90" y1="367.99" x2="665.90" y2="396.95" class="down-wick"/>
<rect x="661.90" y="368.12" width="8.00" height="16.58" class="down-body"/>
<line x1="686.10" y1="381.09" x2="686.10" y2="403.96" class="down-wick"/>
<rect x="682.10" y="384.69" width="8.00" height="12.73" class="down-body"/>
<line x1="706.30" y1="384.06" x2="706.30" y2="417.20" class="up-wick"/>
<rect x="702.30" y="397.20" width="8.00" height="1.00" class="up-body"/>
<line x1="726.50" y1="392.05" x2="726.50" y2="411.40" class="down-wick"/>
<rect x="722.50" y="397.20" width="8.00" height="8.83" class="down-body"/>
<line x1="746.70" y1="405.04" x2="746.70" y2="424.79" class="down-wick"/>
<rect x="742.70" y="406.03" width="8.00" height="7.05" class="down-body"/>
<line x1="766.90" y1="402.76" x2="766.90" y2="431.40" class="down-wick"/>
<rect x="762.90" y="413.10" width="8.00" height="8.53" class="down-body"/>
<line x1="787.10" y1="418.84" x2="787.10" y2="438.13" class="down-wick"/>
<rect x="783.10" y="421.62" width="8.00" height="5.80" class="down-body"/>
<line x1="807.30" y1="400.27" x2="807.30" y2="427.76" class="up-wick"/>
<rect x="803.30" y="416.09" width="8.00" height="11.34" class="up-body"/>
<line x1="827.50" y1="399.98" x2="827.50" y2="419.02" class="up-wick"/>
<rect x="823.50" y="415.59" width="8.00" height="1.00" class="up-body"/>
<line x1="847.70" y1="402.85" x2="847.70" y2="419.65" class="up-wick"/>
<rect x="843.70" y="408.97" width="8.00" height="6.65" class="up-body"/>
<line x1="867.90" y1="406.49" x2="867.90" y2="426.67" class="down-wick"/>
<rect x="863.90" y="408.97" width="8.00" height="16.91" class="down-body"/>
<line x1="888.10" y1="417.27" x2="888.10" y2="433.74" class="up-wick"/>
<rect x="884.10" y="417.95" width="8.00" height="7.83" class="up-body"/>
<line x1="908.30" y1="416.35" x2="908.30" y2="434.32" class="down-wick"/>
<rect x="904.30" y="417.95" width="8.00" height="12.50" class="down-body"/>
<line x1="928.50" y1="416.17" x2="928.50" y2="432.08" class="up-wick"/>
<rect x="924.50" y="423.50" width="8.00" height="6.95" class="up-body"/>
<line x1="948.70" y1="419.19" x2="948.70" y2="428.55" class="down-wick"/>
<rect x="944.70" y="423.50" width="8.00" height="2.75" class="down-body"/>
<line x1="968.90" y1="409.68" x2="968.90" y2="426.25" class="up-wick"/>
<rect x="964.90" y="410.94" width="8.00" height="15.31" class="up-body"/>
<line x1="989.10" y1="397.76" x2="989.10" y2="411.82" class="up-wick"/>
<rect x="985.10" y="402.69" width="8.00" height="8.25" class="up-body"/>
<line x1="1009.30" y1="384.14" x2="1009.30" y2="402.71" class="up-wick"/>
<rect x="1005.30" y="394.33" width="8.00" height="8.36" class="up-body"/>
<line x1="1029.50" y1="389.40" x2="1029.50" y2="408.55" class="down-wick"/>
<rect x="1025.50" y="394.33" width="8.00" height="12.94" class="down-body"/>
<line x1="1049.70" y1="403.05" x2="1049.70" y2="412.53" class="up-wick"/>
<rect x="1045.70" y="406.25" width="8.00" height="1.02" class="up-body"/>
<line x1="1069.90" y1="391.73" x2="1069.90" y2="406.53" class="up-wick"/>
<rect x="1065.90" y="397.88" width="8.00" height="8.37" class="up-body"/>
<line x1="70" y1="385.13" x2="1080" y2="385.13" class="sweep-line"/>
<text x="1076" y="381.13" text-anchor="end" class="level-label">sweep 4681.14</text>
<line x1="70" y1="384.14" x2="1080" y2="384.14" class="entry-line"/>
<text x="1076" y="380.14" text-anchor="end" class="level-label">entry level 4681.85</text>
<text x="70" y="556" class="axis-label">2026-04-02 10:30:00+00:00 to 2026-04-02 22:45:00+00:00</text>
<text x="1080" y="556" text-anchor="end" class="axis-label">4571.23 - 4709.27</text>
<text x="70" y="582" class="panel-title">M5 reaction / execution context</text>
<rect x="70" y="596" width="1010" height="192" class="plot-bg"/>
<line x1="91.04" y1="746.09" x2="91.04" y2="774.76" class="up-wick"/>
<rect x="87.04" y="746.09" width="8.00" height="23.05" class="up-body"/>
<line x1="133.12" y1="721.17" x2="133.12" y2="748.35" class="up-wick"/>
<rect x="129.12" y="733.22" width="8.00" height="12.15" class="up-body"/>
<line x1="175.21" y1="719.83" x2="175.21" y2="747.72" class="down-wick"/>
<rect x="171.21" y="733.22" width="8.00" height="11.91" class="down-body"/>
<line x1="217.29" y1="732.41" x2="217.29" y2="752.29" class="up-wick"/>
<rect x="213.29" y="743.60" width="8.00" height="1.54" class="up-body"/>
<line x1="259.38" y1="730.25" x2="259.38" y2="755.41" class="down-wick"/>
<rect x="255.38" y="743.60" width="8.00" height="11.81" class="down-body"/>
<line x1="301.46" y1="746.91" x2="301.46" y2="762.56" class="up-wick"/>
<rect x="297.46" y="754.64" width="8.00" height="1.00" class="up-body"/>
<line x1="343.54" y1="717.86" x2="343.54" y2="754.64" class="up-wick"/>
<rect x="339.54" y="719.97" width="8.00" height="34.67" class="up-body"/>
<line x1="385.62" y1="714.16" x2="385.62" y2="740.95" class="down-wick"/>
<rect x="381.62" y="719.97" width="8.00" height="16.09" class="down-body"/>
<line x1="427.71" y1="697.40" x2="427.71" y2="737.78" class="up-wick"/>
<rect x="423.71" y="701.77" width="8.00" height="34.28" class="up-body"/>
<line x1="469.79" y1="670.13" x2="469.79" y2="704.80" class="up-wick"/>
<rect x="465.79" y="670.70" width="8.00" height="31.07" class="up-body"/>
<line x1="511.88" y1="664.99" x2="511.88" y2="698.60" class="down-wick"/>
<rect x="507.88" y="670.70" width="8.00" height="3.99" class="down-body"/>
<line x1="553.96" y1="656.25" x2="553.96" y2="681.17" class="up-wick"/>
<rect x="549.96" y="673.30" width="8.00" height="1.39" class="up-body"/>
<line x1="596.04" y1="638.58" x2="596.04" y2="673.35" class="up-wick"/>
<rect x="592.04" y="654.95" width="8.00" height="18.34" class="up-body"/>
<line x1="638.12" y1="618.60" x2="638.12" y2="655.63" class="up-wick"/>
<rect x="634.12" y="619.90" width="8.00" height="35.05" class="up-body"/>
<line x1="680.21" y1="609.24" x2="680.21" y2="647.99" class="down-wick"/>
<rect x="676.21" y="619.90" width="8.00" height="24.54" class="down-body"/>
<line x1="722.29" y1="642.81" x2="722.29" y2="671.86" class="down-wick"/>
<rect x="718.29" y="644.44" width="8.00" height="21.46" class="down-body"/>
<line x1="764.38" y1="627.39" x2="764.38" y2="681.41" class="up-wick"/>
<rect x="760.38" y="651.64" width="8.00" height="14.26" class="up-body"/>
<line x1="806.46" y1="647.56" x2="806.46" y2="693.51" class="down-wick"/>
<rect x="802.46" y="651.93" width="8.00" height="37.17" class="down-body"/>
<line x1="848.54" y1="679.68" x2="848.54" y2="704.51" class="down-wick"/>
<rect x="844.54" y="689.09" width="8.00" height="7.15" class="down-body"/>
<line x1="890.62" y1="683.86" x2="890.62" y2="707.25" class="up-wick"/>
<rect x="886.62" y="693.27" width="8.00" height="2.93" class="up-body"/>
<line x1="932.71" y1="674.55" x2="932.71" y2="696.15" class="up-wick"/>
<rect x="928.71" y="685.59" width="8.00" height="7.68" class="up-body"/>
<line x1="974.79" y1="665.81" x2="974.79" y2="686.55" class="up-wick"/>
<rect x="970.79" y="671.66" width="8.00" height="13.93" class="up-body"/>
<line x1="1016.88" y1="639.68" x2="1016.88" y2="671.62" class="up-wick"/>
<rect x="1012.88" y="640.98" width="8.00" height="30.64" class="up-body"/>
<line x1="1058.96" y1="635.46" x2="1058.96" y2="658.08" class="down-wick"/>
<rect x="1054.96" y="640.93" width="8.00" height="15.75" class="down-body"/>
<line x1="70" y1="612.65" x2="1080" y2="612.65" class="sweep-line"/>
<text x="1076" y="608.65" text-anchor="end" class="level-label">sweep 4681.14</text>
<line x1="70" y1="609.24" x2="1080" y2="609.24" class="entry-line"/>
<text x="1076" y="605.24" text-anchor="end" class="level-label">entry level 4681.85</text>
<text x="70" y="806" class="axis-label">2026-04-02 21:00:00+00:00 to 2026-04-02 22:55:00+00:00</text>
<text x="1080" y="806" text-anchor="end" class="axis-label">4644.62 - 4684.61</text>
<text x="70" y="832" class="panel-title">M1 execution window</text>
<rect x="70" y="846" width="1010" height="192" class="plot-bg"/>
<line x1="74.21" y1="997.20" x2="74.21" y2="1019.14" class="up-wick"/>
<rect x="71.47" y="1007.18" width="5.47" height="11.96" class="up-body"/>
<line x1="82.62" y1="1002.77" x2="82.62" y2="1024.76" class="down-wick"/>
<rect x="79.89" y="1007.18" width="5.47" height="6.19" class="down-body"/>
<line x1="91.04" y1="1005.26" x2="91.04" y2="1016.50" class="up-wick"/>
<rect x="88.31" y="1008.38" width="5.47" height="5.04" class="up-body"/>
<line x1="99.46" y1="997.82" x2="99.46" y2="1012.47" class="up-wick"/>
<rect x="96.72" y="1006.56" width="5.47" height="1.54" class="up-body"/>
<line x1="107.88" y1="996.09" x2="107.88" y2="1009.44" class="up-wick"/>
<rect x="105.14" y="996.09" width="5.47" height="10.47" class="up-body"/>
<line x1="116.29" y1="971.17" x2="116.29" y2="998.35" class="up-wick"/>
<rect x="113.56" y="980.68" width="5.47" height="14.69" class="up-body"/>
<line x1="124.71" y1="979.57" x2="124.71" y2="991.63" class="down-wick"/>
<rect x="121.97" y="980.68" width="5.47" height="1.06" class="down-body"/>
<line x1="133.12" y1="978.09" x2="133.12" y2="986.54" class="down-wick"/>
<rect x="130.39" y="981.73" width="5.47" height="4.27" class="down-body"/>
<line x1="141.54" y1="985.00" x2="141.54" y2="993.74" class="down-wick"/>
<rect x="138.81" y="986.01" width="5.47" height="2.69" class="down-body"/>
<line x1="149.96" y1="982.17" x2="149.96" y2="989.27" class="up-wick"/>
<rect x="147.22" y="983.22" width="5.47" height="5.47" class="up-body"/>
<line x1="158.38" y1="970.79" x2="158.38" y2="988.79" class="up-wick"/>
<rect x="155.64" y="975.30" width="5.47" height="7.92" class="up-body"/>
<line x1="166.79" y1="969.83" x2="166.79" y2="976.07" class="up-wick"/>
<rect x="164.06" y="975.20" width="5.47" height="1.00" class="up-body"/>
<line x1="175.21" y1="974.68" x2="175.21" y2="990.19" class="down-wick"/>
<rect x="172.47" y="975.30" width="5.47" height="12.05" class="down-body"/>
<line x1="183.62" y1="986.97" x2="183.62" y2="993.74" class="down-wick"/>
<rect x="180.89" y="987.59" width="5.47" height="2.50" class="down-body"/>
<line x1="192.04" y1="988.89" x2="192.04" y2="997.72" class="down-wick"/>
<rect x="189.31" y="989.47" width="5.47" height="5.67" class="down-body"/>
<line x1="200.46" y1="988.65" x2="200.46" y2="1002.29" class="up-wick"/>
<rect x="197.72" y="993.60" width="5.47" height="1.54" class="up-body"/>
<line x1="208.88" y1="989.85" x2="208.88" y2="1001.90" class="down-wick"/>
<rect x="206.14" y="993.60" width="5.47" height="1.06" class="down-body"/>
<line x1="217.29" y1="982.89" x2="217.29" y2="997.15" class="up-wick"/>
<rect x="214.56" y="987.26" width="5.47" height="7.39" class="up-body"/>
<line x1="225.71" y1="982.41" x2="225.71" y2="994.17" class="down-wick"/>
<rect x="222.97" y="987.26" width="5.47" height="1.01" class="down-body"/>
<line x1="234.12" y1="986.30" x2="234.12" y2="997.92" class="down-wick"/>
<rect x="231.39" y="988.27" width="5.47" height="5.33" class="down-body"/>
<line x1="242.54" y1="984.62" x2="242.54" y2="995.56" class="up-wick"/>
<rect x="239.81" y="985.29" width="5.47" height="8.31" class="up-body"/>
<line x1="250.96" y1="980.25" x2="250.96" y2="989.61" class="up-wick"/>
<rect x="248.22" y="980.97" width="5.47" height="4.32" class="up-body"/>
<line x1="259.38" y1="980.97" x2="259.38" y2="995.71" class="down-wick"/>
<rect x="256.64" y="980.97" width="5.47" height="6.15" class="down-body"/>
<line x1="267.79" y1="985.91" x2="267.79" y2="995.90" class="down-wick"/>
<rect x="265.06" y="987.11" width="5.47" height="6.00" class="down-body"/>
<line x1="276.21" y1="987.06" x2="276.21" y2="1005.41" class="down-wick"/>
<rect x="273.47" y="993.11" width="5.47" height="12.29" class="down-body"/>
<line x1="284.62" y1="1002.24" x2="284.62" y2="1009.39" class="up-wick"/>
<rect x="281.89" y="1002.81" width="5.47" height="2.54" class="up-body"/>
<line x1="293.04" y1="996.91" x2="293.04" y2="1005.79" class="up-wick"/>
<rect x="290.31" y="999.07" width="5.47" height="3.75" class="up-body"/>
<line x1="301.46" y1="997.72" x2="301.46" y2="1009.39" class="down-wick"/>
<rect x="298.72" y="999.07" width="5.47" height="6.72" class="down-body"/>
<line x1="309.88" y1="1000.46" x2="309.88" y2="1012.56" class="down-wick"/>
<rect x="307.14" y="1005.79" width="5.47" height="1.25" class="down-body"/>
<line x1="318.29" y1="1001.95" x2="318.29" y2="1011.51" class="up-wick"/>
<rect x="315.56" y="1004.64" width="5.47" height="2.40" class="up-body"/>
<line x1="326.71" y1="978.71" x2="326.71" y2="1004.64" class="up-wick"/>
<rect x="323.97" y="979.33" width="5.47" height="25.31" class="up-body"/>
<line x1="335.12" y1="975.54" x2="335.12" y2="984.76" class="down-wick"/>
<rect x="332.39" y="979.33" width="5.47" height="2.74" class="down-body"/>
<line x1="343.54" y1="978.23" x2="343.54" y2="988.07" class="down-wick"/>
<rect x="340.81" y="982.07" width="5.47" height="3.22" class="down-body"/>
<line x1="351.96" y1="977.70" x2="351.96" y2="987.78" class="up-wick"/>
<rect x="349.22" y="982.21" width="5.47" height="3.07" class="up-body"/>
<line x1="360.38" y1="967.86" x2="360.38" y2="982.21" class="up-wick"/>
<rect x="357.64" y="969.97" width="5.47" height="12.24" class="up-body"/>
<line x1="368.79" y1="965.79" x2="368.79" y2="978.66" class="up-wick"/>
<rect x="366.06" y="968.82" width="5.47" height="1.15" class="up-body"/>
<line x1="377.21" y1="965.46" x2="377.21" y2="973.76" class="up-wick"/>
<rect x="374.47" y="965.94" width="5.47" height="2.88" class="up-body"/>
<line x1="385.62" y1="964.16" x2="385.62" y2="973.72" class="up-wick"/>
<rect x="382.89" y="964.74" width="5.47" height="1.20" class="up-body"/>
<line x1="394.04" y1="964.74" x2="394.04" y2="987.11" class="down-wick"/>
<rect x="391.31" y="964.74" width="5.47" height="21.85" class="down-body"/>
<line x1="402.46" y1="982.55" x2="402.46" y2="990.95" class="up-wick"/>
<rect x="399.72" y="986.06" width="5.47" height="1.00" class="up-body"/>
<line x1="410.88" y1="966.66" x2="410.88" y2="987.78" class="up-wick"/>
<rect x="408.14" y="967.23" width="5.47" height="18.82" class="up-body"/>
<line x1="419.29" y1="947.40" x2="419.29" y2="973.43" class="up-wick"/>
<rect x="416.56" y="957.63" width="5.47" height="9.60" class="up-body"/>
<line x1="427.71" y1="952.73" x2="427.71" y2="960.70" class="up-wick"/>
<rect x="424.97" y="956.43" width="5.47" height="1.20" class="up-body"/>
<line x1="436.12" y1="956.19" x2="436.12" y2="970.11" class="down-wick"/>
<rect x="433.39" y="956.43" width="5.47" height="7.54" class="down-body"/>
<line x1="444.54" y1="951.39" x2="444.54" y2="963.97" class="up-wick"/>
<rect x="441.81" y="951.77" width="5.47" height="12.20" class="up-body"/>
<line x1="452.96" y1="945.63" x2="452.96" y2="954.80" class="up-wick"/>
<rect x="450.22" y="946.25" width="5.47" height="5.52" class="up-body"/>
<line x1="461.38" y1="930.60" x2="461.38" y2="948.46" class="up-wick"/>
<rect x="458.64" y="934.73" width="5.47" height="11.52" class="up-body"/>
<line x1="469.79" y1="928.63" x2="469.79" y2="935.35" class="up-wick"/>
<rect x="467.06" y="932.23" width="5.47" height="2.50" class="up-body"/>
<line x1="478.21" y1="921.90" x2="478.21" y2="937.03" class="down-wick"/>
<rect x="475.47" y="932.52" width="5.47" height="1.25" class="down-body"/>
<line x1="486.62" y1="920.13" x2="486.62" y2="934.39" class="up-wick"/>
<rect x="483.89" y="920.70" width="5.47" height="13.06" class="up-body"/>
<line x1="495.04" y1="914.99" x2="495.04" y2="933.96" class="down-wick"/>
<rect x="492.31" y="920.70" width="5.47" height="12.10" class="down-body"/>
<line x1="503.46" y1="925.60" x2="503.46" y2="948.60" class="down-wick"/>
<rect x="500.72" y="932.80" width="5.47" height="11.04" class="down-body"/>
<line x1="511.87" y1="919.46" x2="511.87" y2="947.50" class="up-wick"/>
<rect x="509.14" y="919.46" width="5.47" height="24.39" class="up-body"/>
<line x1="520.29" y1="916.14" x2="520.29" y2="924.26" class="down-wick"/>
<rect x="517.56" y="919.46" width="5.47" height="1.00" class="down-body"/>
<line x1="528.71" y1="918.93" x2="528.71" y2="928.29" class="down-wick"/>
<rect x="525.97" y="919.74" width="5.47" height="4.95" class="down-body"/>
<line x1="537.12" y1="922.24" x2="537.12" y2="929.78" class="down-wick"/>
<rect x="534.39" y="924.69" width="5.47" height="1.97" class="down-body"/>
<line x1="545.54" y1="923.35" x2="545.54" y2="931.17" class="up-wick"/>
<rect x="542.81" y="925.75" width="5.47" height="1.73" class="up-body"/>
<line x1="553.96" y1="916.29" x2="553.96" y2="926.23" class="up-wick"/>
<rect x="551.22" y="916.29" width="5.47" height="9.46" class="up-body"/>
<line x1="562.38" y1="906.25" x2="562.38" y2="917.73" class="up-wick"/>
<rect x="559.64" y="908.17" width="5.47" height="8.12" class="up-body"/>
<line x1="570.79" y1="907.74" x2="570.79" y2="925.79" class="down-wick"/>
<rect x="568.06" y="908.17" width="5.47" height="15.13" class="down-body"/>
<line x1="579.21" y1="906.20" x2="579.21" y2="923.35" class="up-wick"/>
<rect x="576.47" y="909.85" width="5.47" height="13.44" class="up-body"/>
<line x1="587.62" y1="901.74" x2="587.62" y2="910.96" class="up-wick"/>
<rect x="584.89" y="902.07" width="5.47" height="7.78" class="up-body"/>
<line x1="596.04" y1="888.58" x2="596.04" y2="902.12" class="up-wick"/>
<rect x="593.31" y="898.76" width="5.47" height="3.36" class="up-body"/>
<line x1="604.46" y1="895.01" x2="604.46" y2="905.19" class="down-wick"/>
<rect x="601.72" y="898.76" width="5.47" height="4.56" class="down-body"/>
<line x1="612.88" y1="903.27" x2="612.88" y2="918.64" class="down-wick"/>
<rect x="610.14" y="903.42" width="5.47" height="1.54" class="down-body"/>
<line x1="621.29" y1="879.26" x2="621.29" y2="905.63" class="up-wick"/>
<rect x="618.56" y="880.47" width="5.47" height="24.49" class="up-body"/>
<line x1="629.71" y1="878.35" x2="629.71" y2="889.25" class="down-wick"/>
<rect x="626.97" y="880.47" width="5.47" height="4.03" class="down-body"/>
<line x1="638.12" y1="878.59" x2="638.12" y2="887.19" class="up-wick"/>
<rect x="635.39" y="878.59" width="5.47" height="5.91" class="up-body"/>
<line x1="646.54" y1="868.60" x2="646.54" y2="884.26" class="up-wick"/>
<rect x="643.81" y="876.00" width="5.47" height="2.59" class="up-body"/>
<line x1="654.96" y1="869.81" x2="654.96" y2="880.03" class="up-wick"/>
<rect x="652.22" y="869.90" width="5.47" height="6.10" class="up-body"/>
<line x1="663.38" y1="862.65" x2="663.38" y2="873.60" class="up-wick"/>
<rect x="660.64" y="862.65" width="5.47" height="7.25" class="up-body"/>
<line x1="671.79" y1="859.24" x2="671.79" y2="871.20" class="down-wick"/>
<rect x="669.06" y="862.65" width="5.47" height="3.89" class="down-body"/>
<line x1="680.21" y1="865.68" x2="680.21" y2="885.32" class="down-wick"/>
<rect x="677.47" y="866.49" width="5.47" height="18.58" class="down-body"/>
<line x1="688.62" y1="884.69" x2="688.62" y2="895.83" class="down-wick"/>
<rect x="685.89" y="885.17" width="5.47" height="6.05" class="down-body"/>
<line x1="697.04" y1="891.08" x2="697.04" y2="897.99" class="down-wick"/>
<rect x="694.31" y="891.17" width="5.47" height="3.27" class="down-body"/>
<line x1="705.46" y1="892.81" x2="705.46" y2="909.90" class="down-wick"/>
<rect x="702.72" y="894.44" width="5.47" height="13.83" class="down-body"/>
<line x1="713.88" y1="905.72" x2="713.88" y2="914.89" class="down-wick"/>
<rect x="711.14" y="908.46" width="5.47" height="1.54" class="down-body"/>
<line x1="722.29" y1="900.54" x2="722.29" y2="911.44" class="down-wick"/>
<rect x="719.56" y="910.00" width="5.47" height="1.44" class="down-body"/>
<line x1="730.71" y1="908.65" x2="730.71" y2="918.45" class="down-wick"/>
<rect x="727.97" y="911.68" width="5.47" height="3.46" class="down-body"/>
<line x1="739.12" y1="910.33" x2="739.12" y2="921.86" class="down-wick"/>
<rect x="736.39" y="915.13" width="5.47" height="1.00" class="down-body"/>
<line x1="747.54" y1="915.90" x2="747.54" y2="924.59" class="down-wick"/>
<rect x="744.81" y="915.90" width="5.47" height="3.41" class="down-body"/>
<line x1="755.96" y1="916.29" x2="755.96" y2="923.78" class="down-wick"/>
<rect x="753.22" y="919.36" width="5.47" height="3.79" class="down-body"/>
<line x1="764.38" y1="914.61" x2="764.38" y2="931.41" class="up-wick"/>
<rect x="761.64" y="914.61" width="5.47" height="8.50" class="up-body"/>
<line x1="772.79" y1="877.39" x2="772.79" y2="923.83" class="up-wick"/>
<rect x="770.06" y="882.19" width="5.47" height="32.41" class="up-body"/>
<line x1="781.21" y1="882.19" x2="781.21" y2="908.46" class="down-wick"/>
<rect x="778.47" y="882.19" width="5.47" height="19.45" class="down-body"/>
<line x1="789.62" y1="897.56" x2="789.62" y2="911.87" class="down-wick"/>
<rect x="786.89" y="901.93" width="5.47" height="3.60" class="down-body"/>
<line x1="798.04" y1="900.30" x2="798.04" y2="914.56" class="down-wick"/>
<rect x="795.31" y="905.48" width="5.47" height="3.89" class="down-body"/>
<line x1="806.46" y1="903.37" x2="806.46" y2="912.11" class="down-wick"/>
<rect x="803.72" y="909.37" width="5.47" height="1.00" class="down-body"/>
<line x1="814.88" y1="909.42" x2="814.88" y2="934.63" class="down-wick"/>
<rect x="812.14" y="909.47" width="5.47" height="24.39" class="down-body"/>
<line x1="823.29" y1="932.23" x2="823.29" y2="943.51" class="down-wick"/>
<rect x="820.56" y="933.86" width="5.47" height="5.23" class="down-body"/>
<line x1="831.71" y1="935.11" x2="831.71" y2="954.51" class="down-wick"/>
<rect x="828.97" y="939.09" width="5.47" height="1.00" class="down-body"/>
<line x1="840.12" y1="933.48" x2="840.12" y2="947.59" class="up-wick"/>
<rect x="837.39" y="938.71" width="5.47" height="1.00" class="up-body"/>
<line x1="848.54" y1="929.68" x2="848.54" y2="943.46" class="down-wick"/>
<rect x="845.81" y="938.71" width="5.47" height="1.00" class="down-body"/>
<line x1="856.96" y1="933.43" x2="856.96" y2="948.03" class="down-wick"/>
<rect x="854.22" y="939.19" width="5.47" height="6.87" class="down-body"/>
<line x1="865.38" y1="941.59" x2="865.38" y2="948.36" class="down-wick"/>
<rect x="862.64" y="946.06" width="5.47" height="1.00" class="down-body"/>
<line x1="873.79" y1="933.86" x2="873.79" y2="946.25" class="up-wick"/>
<rect x="871.06" y="945.29" width="5.47" height="1.00" class="up-body"/>
<line x1="882.21" y1="940.15" x2="882.21" y2="949.13" class="down-wick"/>
<rect x="879.47" y="945.29" width="5.47" height="3.84" class="down-body"/>
<line x1="890.62" y1="943.37" x2="890.62" y2="955.76" class="down-wick"/>
<rect x="887.89" y="949.18" width="5.47" height="6.58" class="down-body"/>
<line x1="899.04" y1="948.46" x2="899.04" y2="956.91" class="up-wick"/>
<rect x="896.31" y="952.44" width="5.47" height="3.31" class="up-body"/>
<line x1="907.46" y1="943.27" x2="907.46" y2="957.25" class="up-wick"/>
<rect x="904.72" y="943.27" width="5.47" height="9.12" class="up-body"/>
<line x1="915.87" y1="928.92" x2="915.87" y2="946.15" class="up-wick"/>
<rect x="913.14" y="933.28" width="5.47" height="9.99" class="up-body"/>
<line x1="924.29" y1="924.55" x2="924.29" y2="936.07" class="up-wick"/>
<rect x="921.56" y="928.82" width="5.47" height="4.47" class="up-body"/>
<line x1="932.71" y1="924.83" x2="932.71" y2="935.25" class="up-wick"/>
<rect x="929.97" y="929.40" width="5.47" height="1.00" class="up-body"/>
<line x1="941.12" y1="928.19" x2="941.12" y2="934.25" class="up-wick"/>
<rect x="938.39" y="928.29" width="5.47" height="1.10" class="up-body"/>
<line x1="949.54" y1="928.29" x2="949.54" y2="936.89" class="down-wick"/>
<rect x="946.81" y="928.34" width="5.47" height="7.25" class="down-body"/>
<line x1="957.96" y1="924.69" x2="957.96" y2="935.73" class="up-wick"/>
<rect x="955.22" y="929.35" width="5.47" height="6.24" class="up-body"/>
<line x1="966.37" y1="925.17" x2="966.37" y2="936.55" class="up-wick"/>
<rect x="963.64" y="925.17" width="5.47" height="4.27" class="up-body"/>
<line x1="974.79" y1="919.02" x2="974.79" y2="928.58" class="up-wick"/>
<rect x="972.06" y="920.56" width="5.47" height="4.61" class="up-body"/>
<line x1="983.21" y1="915.81" x2="983.21" y2="925.27" class="down-wick"/>
<rect x="980.47" y="920.66" width="5.47" height="2.21" class="down-body"/>
<line x1="991.62" y1="918.74" x2="991.62" y2="926.27" class="up-wick"/>
<rect x="988.89" y="921.66" width="5.47" height="1.10" class="up-body"/>
<line x1="1000.04" y1="903.18" x2="1000.04" y2="921.62" class="up-wick"/>
<rect x="997.31" y="913.21" width="5.47" height="8.40" class="up-body"/>
<line x1="1008.46" y1="905.05" x2="1008.46" y2="920.85" class="up-wick"/>
<rect x="1005.72" y="905.05" width="5.47" height="8.16" class="up-body"/>
<line x1="1016.87" y1="896.98" x2="1016.87" y2="911.20" class="up-wick"/>
<rect x="1014.14" y="901.45" width="5.47" height="3.60" class="up-body"/>
<line x1="1025.29" y1="895.11" x2="1025.29" y2="901.55" class="up-wick"/>
<rect x="1022.56" y="897.46" width="5.47" height="4.08" class="up-body"/>
<line x1="1033.71" y1="889.68" x2="1033.71" y2="897.56" class="up-wick"/>
<rect x="1030.97" y="890.98" width="5.47" height="6.19" class="up-body"/>
<line x1="1042.12" y1="888.10" x2="1042.12" y2="905.91" class="down-wick"/>
<rect x="1039.39" y="890.93" width="5.47" height="3.75" class="down-body"/>
<line x1="1050.54" y1="893.62" x2="1050.54" y2="901.35" class="down-wick"/>
<rect x="1047.81" y="894.68" width="5.47" height="3.94" class="down-body"/>
<line x1="1058.96" y1="898.28" x2="1058.96" y2="905.15" class="up-wick"/>
<rect x="1056.22" y="898.52" width="5.47" height="1.00" class="up-body"/>
<line x1="1067.38" y1="887.24" x2="1067.38" y2="899.34" class="up-wick"/>
<rect x="1064.64" y="892.13" width="5.47" height="6.34" class="up-body"/>
<line x1="1075.79" y1="885.46" x2="1075.79" y2="908.08" class="down-wick"/>
<rect x="1073.06" y="892.13" width="5.47" height="14.55" class="down-body"/>
<line x1="70" y1="862.65" x2="1080" y2="862.65" class="sweep-line"/>
<text x="1076" y="858.65" text-anchor="end" class="level-label">sweep 4681.14</text>
<line x1="70" y1="859.24" x2="1080" y2="859.24" class="entry-line"/>
<text x="1076" y="855.24" text-anchor="end" class="level-label">entry level 4681.85</text>
<text x="70" y="1056" class="axis-label">2026-04-02 21:00:00+00:00 to 2026-04-02 22:59:00+00:00</text>
<text x="1080" y="1056" text-anchor="end" class="axis-label">4644.62 - 4684.61</text>
</svg>