<svg xmlns="http://www.w3.org/2000/svg" width="1120" height="1054" viewBox="0 0 1120 1054">
<style>
text{font-family:Arial,Helvetica,sans-serif}.title{font-size:21px;font-weight:700;fill:#1f2937}.subtitle{font-size:12px;fill:#4b5563}.panel-title{font-size:15px;font-weight:700;fill:#111827}.muted{font-size:13px;fill:#6b7280}.plot-bg{fill:#f8fafc;stroke:#cbd5e1;stroke-width:1}.up-body{fill:#15803d;stroke:#14532d;stroke-width:.8}.down-body{fill:#b91c1c;stroke:#7f1d1d;stroke-width:.8}.up-wick{stroke:#14532d;stroke-width:1}.down-wick{stroke:#7f1d1d;stroke-width:1}.sweep-line{stroke:#7c3aed;stroke-width:1.6;stroke-dasharray:6 4}.number-line{stroke:#0f766e;stroke-width:1.4;stroke-dasharray:3 4}.entry-line{stroke:#2563eb;stroke-width:1.4}.sl-line{stroke:#dc2626;stroke-width:1.4}.tp-line{stroke:#16a34a;stroke-width:1.4}.level-label,.axis-label{font-size:11px;fill:#374151}
</style>
<text x="28" y="28" class="title">Adelin v2 visual review sample sample_135</text>
<text x="28" y="48" class="subtitle">Candidate windows are for visual labeling only and are not trade signals.</text>
<text x="560" y="48" class="subtitle" text-anchor="middle">NUMBER_THEORY_LEVEL_NEAR | LARGE_UPPER_WICK_REVERSAL_VISUAL_CANDIDATE | ROUND_LEVEL_ENTRY_METADATA_AVAILABLE</text>
<text x="70" y="82" class="panel-title">H1 liquidity context</text>
<rect x="70" y="96" width="1010" height="192" class="plot-bg"/>
<line x1="80.74" y1="175.20" x2="80.74" y2="199.87" class="down-wick"/>
<rect x="76.74" y="178.41" width="8.00" height="10.12" class="down-body"/>
<line x1="102.23" y1="187.67" x2="102.23" y2="211.76" class="down-wick"/>
<rect x="98.23" y="188.53" width="8.00" height="21.02" class="down-body"/>
<line x1="123.72" y1="202.91" x2="123.72" y2="218.79" class="up-wick"/>
<rect x="119.72" y="204.70" width="8.00" height="4.85" class="up-body"/>
<line x1="145.21" y1="196.69" x2="145.21" y2="230.63" class="down-wick"/>
<rect x="141.21" y="204.70" width="8.00" height="12.74" class="down-body"/>
<line x1="166.70" y1="199.48" x2="166.70" y2="218.22" class="up-wick"/>
<rect x="162.70" y="211.71" width="8.00" height="5.72" class="up-body"/>
<line x1="188.19" y1="168.02" x2="188.19" y2="228.07" class="up-wick"/>
<rect x="184.19" y="210.11" width="8.00" height="1.61" class="up-body"/>
<line x1="209.68" y1="167.17" x2="209.68" y2="213.96" class="up-wick"/>
<rect x="205.68" y="168.71" width="8.00" height="41.40" class="up-body"/>
<line x1="231.17" y1="130.68" x2="231.17" y2="170.75" class="up-wick"/>
<rect x="227.17" y="158.11" width="8.00" height="10.60" class="up-body"/>
<line x1="252.66" y1="147.71" x2="252.66" y2="172.64" class="down-wick"/>
<rect x="248.66" y="158.18" width="8.00" height="1.76" class="down-body"/>
<line x1="274.15" y1="148.34" x2="274.15" y2="169.94" class="up-wick"/>
<rect x="270.15" y="159.13" width="8.00" height="1.00" class="up-body"/>
<line x1="295.64" y1="134.39" x2="295.64" y2="161.04" class="up-wick"/>
<rect x="291.64" y="140.45" width="8.00" height="18.69" class="up-body"/>
<line x1="317.13" y1="128.06" x2="317.13" y2="144.57" class="down-wick"/>
<rect x="313.13" y="140.48" width="8.00" height="1.15" class="down-body"/>
<line x1="338.62" y1="139.03" x2="338.62" y2="151.16" class="down-wick"/>
<rect x="334.62" y="141.67" width="8.00" height="5.91" class="down-body"/>
<line x1="360.11" y1="126.74" x2="360.11" y2="149.83" class="up-wick"/>
<rect x="356.11" y="130.55" width="8.00" height="17.05" class="up-body"/>
<line x1="381.60" y1="163.91" x2="381.60" y2="247.55" class="down-wick"/>
<rect x="377.60" y="169.05" width="8.00" height="49.40" class="down-body"/>
<line x1="403.09" y1="214.77" x2="403.09" y2="262.16" class="down-wick"/>
<rect x="399.09" y="218.45" width="8.00" height="23.99" class="down-body"/>
<line x1="424.57" y1="207.89" x2="424.57" y2="274.76" class="up-wick"/>
<rect x="420.57" y="223.95" width="8.00" height="18.48" class="up-body"/>
<line x1="446.06" y1="197.18" x2="446.06" y2="237.41" class="up-wick"/>
<rect x="442.06" y="201.38" width="8.00" height="22.57" class="up-body"/>
<line x1="467.55" y1="194.27" x2="467.55" y2="213.28" class="down-wick"/>
<rect x="463.55" y="201.38" width="8.00" height="2.94" class="down-body"/>
<line x1="489.04" y1="199.02" x2="489.04" y2="209.91" class="down-wick"/>
<rect x="485.04" y="204.33" width="8.00" height="1.10" class="down-body"/>
<line x1="510.53" y1="159.27" x2="510.53" y2="214.01" class="up-wick"/>
<rect x="506.53" y="174.19" width="8.00" height="31.24" class="up-body"/>
<line x1="532.02" y1="165.21" x2="532.02" y2="199.19" class="down-wick"/>
<rect x="528.02" y="174.19" width="8.00" height="24.44" class="down-body"/>
<line x1="553.51" y1="189.26" x2="553.51" y2="206.95" class="up-wick"/>
<rect x="549.51" y="197.33" width="8.00" height="1.29" class="up-body"/>
<line x1="575.00" y1="186.54" x2="575.00" y2="208.36" class="down-wick"/>
<rect x="571.00" y="197.34" width="8.00" height="2.28" class="down-body"/>
<line x1="596.49" y1="166.61" x2="596.49" y2="200.97" class="up-wick"/>
<rect x="592.49" y="191.66" width="8.00" height="8.02" class="up-body"/>
<line x1="617.98" y1="186.31" x2="617.98" y2="210.96" class="down-wick"/>
<rect x="613.98" y="191.66" width="8.00" height="16.58" class="down-body"/>
<line x1="639.47" y1="198.93" x2="639.47" y2="215.02" class="up-wick"/>
<rect x="635.47" y="207.47" width="8.00" height="1.00" class="up-body"/>
<line x1="660.96" y1="185.39" x2="660.96" y2="207.47" class="up-wick"/>
<rect x="656.96" y="201.18" width="8.00" height="6.28" class="up-body"/>
<line x1="682.45" y1="186.15" x2="682.45" y2="226.46" class="down-wick"/>
<rect x="678.45" y="201.18" width="8.00" height="19.06" class="down-body"/>
<line x1="703.94" y1="181.74" x2="703.94" y2="232.26" class="up-wick"/>
<rect x="699.94" y="202.05" width="8.00" height="18.19" class="up-body"/>
<line x1="725.43" y1="193.34" x2="725.43" y2="215.18" class="up-wick"/>
<rect x="721.43" y="196.85" width="8.00" height="5.20" class="up-body"/>
<line x1="746.91" y1="186.68" x2="746.91" y2="201.39" class="up-wick"/>
<rect x="742.91" y="192.23" width="8.00" height="4.53" class="up-body"/>
<line x1="768.40" y1="190.17" x2="768.40" y2="206.49" class="down-wick"/>
<rect x="764.40" y="192.23" width="8.00" height="7.93" class="down-body"/>
<line x1="789.89" y1="172.22" x2="789.89" y2="203.37" class="up-wick"/>
<rect x="785.89" y="175.12" width="8.00" height="25.04" class="up-body"/>
<line x1="811.38" y1="156.06" x2="811.38" y2="179.54" class="up-wick"/>
<rect x="807.38" y="158.89" width="8.00" height="16.23" class="up-body"/>
<line x1="832.87" y1="152.35" x2="832.87" y2="165.50" class="down-wick"/>
<rect x="828.87" y="158.89" width="8.00" height="2.60" class="down-body"/>
<line x1="854.36" y1="161.49" x2="854.36" y2="161.49" class="up-wick"/>
<rect x="850.36" y="161.49" width="8.00" height="1.00" class="up-body"/>
<line x1="875.85" y1="145.07" x2="875.85" y2="163.67" class="down-wick"/>
<rect x="871.85" y="147.89" width="8.00" height="12.22" class="down-body"/>
<line x1="897.34" y1="158.64" x2="897.34" y2="173.75" class="down-wick"/>
<rect x="893.34" y="160.11" width="8.00" height="7.94" class="down-body"/>
<line x1="918.83" y1="117.40" x2="918.83" y2="173.91" class="up-wick"/>
<rect x="914.83" y="119.15" width="8.00" height="48.88" class="up-body"/>
<line x1="940.32" y1="116.64" x2="940.32" y2="137.93" class="down-wick"/>
<rect x="936.32" y="119.16" width="8.00" height="16.83" class="down-body"/>
<line x1="961.81" y1="129.10" x2="961.81" y2="145.30" class="down-wick"/>
<rect x="957.81" y="136.01" width="8.00" height="7.40" class="down-body"/>
<line x1="983.30" y1="135.41" x2="983.30" y2="146.65" class="up-wick"/>
<rect x="979.30" y="137.93" width="8.00" height="5.82" class="up-body"/>
<line x1="1004.79" y1="123.75" x2="1004.79" y2="137.96" class="up-wick"/>
<rect x="1000.79" y="124.96" width="8.00" height="12.95" class="up-body"/>
<line x1="1026.28" y1="122.28" x2="1026.28" y2="130.61" class="down-wick"/>
<rect x="1022.28" y="124.94" width="8.00" height="2.48" class="down-body"/>
<line x1="1047.77" y1="121.96" x2="1047.77" y2="142.79" class="up-wick"/>
<rect x="1043.77" y="122.18" width="8.00" height="5.24" class="up-body"/>
<line x1="1069.26" y1="109.24" x2="1069.26" y2="127.72" class="up-wick"/>
<rect x="1065.26" y="120.09" width="8.00" height="2.08" class="up-body"/>
<line x1="70" y1="196.52" x2="1080" y2="196.52" class="number-line"/>
<text x="1076" y="192.52" text-anchor="end" class="level-label">round 5100.00</text>
<line x1="70" y1="196.52" x2="1080" y2="196.52" class="entry-line"/>
<text x="1076" y="192.52" text-anchor="end" class="level-label">entry level 5100.00</text>
<text x="70" y="306" class="axis-label">2026-03-06 10:00:00+00:00 to 2026-03-10 10:00:00+00:00</text>
<text x="1080" y="306" text-anchor="end" class="axis-label">5000.27 - 5209.59</text>
<text x="70" y="332" class="panel-title">M15 liquidity / reaction context</text>
<rect x="70" y="346" width="1010" height="192" class="plot-bg"/>
<line x1="78.28" y1="365.89" x2="78.28" y2="421.64" class="down-wick"/>
<rect x="74.28" y="373.26" width="8.00" height="36.94" class="down-body"/>
<line x1="94.84" y1="403.61" x2="94.84" y2="418.94" class="up-wick"/>
<rect x="90.84" y="406.62" width="8.00" height="3.56" class="up-body"/>
<line x1="111.39" y1="405.99" x2="111.39" y2="485.77" class="down-wick"/>
<rect x="107.39" y="406.54" width="8.00" height="41.50" class="down-body"/>
<line x1="127.95" y1="439.21" x2="127.95" y2="472.78" class="up-wick"/>
<rect x="123.95" y="444.05" width="8.00" height="4.10" class="up-body"/>
<line x1="144.51" y1="438.78" x2="144.51" y2="506.71" class="down-wick"/>
<rect x="140.51" y="444.05" width="8.00" height="52.35" class="down-body"/>
<line x1="161.07" y1="474.33" x2="161.07" y2="501.04" class="up-wick"/>
<rect x="157.07" y="483.64" width="8.00" height="12.77" class="up-body"/>
<line x1="177.62" y1="464.68" x2="177.62" y2="486.16" class="up-wick"/>
<rect x="173.62" y="474.54" width="8.00" height="8.89" class="up-body"/>
<line x1="194.18" y1="468.29" x2="194.18" y2="499.87" class="down-wick"/>
<rect x="190.18" y="474.55" width="8.00" height="3.88" class="down-body"/>
<line x1="210.74" y1="446.19" x2="210.74" y2="524.76" class="up-wick"/>
<rect x="206.74" y="448.95" width="8.00" height="29.47" class="up-body"/>
<line x1="227.30" y1="428.92" x2="227.30" y2="452.18" class="down-wick"/>
<rect x="223.30" y="448.95" width="8.00" height="1.00" class="down-body"/>
<line x1="243.85" y1="430.79" x2="243.85" y2="449.97" class="up-wick"/>
<rect x="239.85" y="438.36" width="8.00" height="11.02" class="up-body"/>
<line x1="260.41" y1="435.62" x2="260.41" y2="459.05" class="down-wick"/>
<rect x="256.41" y="438.49" width="8.00" height="13.45" class="down-body"/>
<line x1="276.97" y1="418.91" x2="276.97" y2="471.23" class="up-wick"/>
<rect x="272.97" y="419.98" width="8.00" height="31.96" class="up-body"/>
<line x1="293.52" y1="419.76" x2="293.52" y2="448.34" class="down-wick"/>
<rect x="289.52" y="419.93" width="8.00" height="21.88" class="down-body"/>
<line x1="310.08" y1="420.58" x2="310.08" y2="443.13" class="up-wick"/>
<rect x="306.08" y="422.27" width="8.00" height="19.60" class="up-body"/>
<line x1="326.64" y1="413.58" x2="326.64" y2="431.34" class="up-wick"/>
<rect x="322.64" y="419.60" width="8.00" height="2.67" class="up-body"/>
<line x1="343.20" y1="413.00" x2="343.20" y2="433.36" class="down-wick"/>
<rect x="339.20" y="419.60" width="8.00" height="9.83" class="down-body"/>
<line x1="359.75" y1="409.41" x2="359.75" y2="433.64" class="down-wick"/>
<rect x="355.75" y="429.43" width="8.00" height="4.21" class="down-body"/>
<line x1="376.31" y1="420.36" x2="376.31" y2="436.65" class="up-wick"/>
<rect x="372.31" y="429.62" width="8.00" height="4.02" class="up-body"/>
<line x1="392.87" y1="421.07" x2="392.87" y2="429.71" class="up-wick"/>
<rect x="388.87" y="423.82" width="8.00" height="5.80" class="up-body"/>
<line x1="409.43" y1="416.21" x2="409.43" y2="429.58" class="down-wick"/>
<rect x="405.43" y="423.82" width="8.00" height="1.00" class="down-body"/>
<line x1="425.98" y1="419.60" x2="425.98" y2="428.00" class="down-wick"/>
<rect x="421.98" y="424.37" width="8.00" height="2.22" class="down-body"/>
<line x1="442.54" y1="421.68" x2="442.54" y2="429.21" class="up-wick"/>
<rect x="438.54" y="425.20" width="8.00" height="1.26" class="up-body"/>
<line x1="459.10" y1="423.88" x2="459.10" y2="431.82" class="down-wick"/>
<rect x="455.10" y="425.19" width="8.00" height="1.00" class="down-body"/>
<line x1="475.66" y1="409.82" x2="475.66" y2="437.69" class="up-wick"/>
<rect x="471.66" y="417.05" width="8.00" height="8.35" class="up-body"/>
<line x1="492.21" y1="407.16" x2="492.21" y2="429.16" class="down-wick"/>
<rect x="488.21" y="417.19" width="8.00" height="1.38" class="down-body"/>
<line x1="508.77" y1="384.55" x2="508.77" y2="423.15" class="up-wick"/>
<rect x="504.77" y="385.22" width="8.00" height="33.35" class="up-body"/>
<line x1="525.33" y1="359.24" x2="525.33" y2="386.94" class="up-wick"/>
<rect x="521.33" y="380.62" width="8.00" height="4.60" class="up-body"/>
<line x1="541.89" y1="367.76" x2="541.89" y2="387.44" class="up-wick"/>
<rect x="537.89" y="376.10" width="8.00" height="4.52" class="up-body"/>
<line x1="558.44" y1="371.42" x2="558.44" y2="382.06" class="down-wick"/>
<rect x="554.44" y="376.10" width="8.00" height="1.72" class="down-body"/>
<line x1="575.00" y1="373.44" x2="575.00" y2="406.23" class="down-wick"/>
<rect x="571.00" y="377.82" width="8.00" height="25.60" class="down-body"/>
<line x1="591.56" y1="397.63" x2="591.56" y2="416.46" class="down-wick"/>
<rect x="587.56" y="403.40" width="8.00" height="12.24" class="down-body"/>
<line x1="608.11" y1="409.83" x2="608.11" y2="427.58" class="down-wick"/>
<rect x="604.11" y="415.64" width="8.00" height="1.00" class="down-body"/>
<line x1="624.67" y1="403.39" x2="624.67" y2="418.78" class="up-wick"/>
<rect x="620.67" y="403.81" width="8.00" height="12.82" class="up-body"/>
<line x1="641.23" y1="402.22" x2="641.23" y2="412.79" class="down-wick"/>
<rect x="637.23" y="403.81" width="8.00" height="7.30" class="down-body"/>
<line x1="657.79" y1="410.63" x2="657.79" y2="420.95" class="down-wick"/>
<rect x="653.79" y="411.12" width="8.00" height="2.67" class="down-body"/>
<line x1="674.34" y1="398.33" x2="674.34" y2="414.04" class="up-wick"/>
<rect x="670.34" y="412.68" width="8.00" height="1.12" class="up-body"/>
<line x1="690.90" y1="403.98" x2="690.90" y2="424.69" class="down-wick"/>
<rect x="686.90" y="412.68" width="8.00" height="10.91" class="down-body"/>
<line x1="707.46" y1="416.80" x2="707.46" y2="429.59" class="down-wick"/>
<rect x="703.46" y="423.59" width="8.00" height="1.97" class="down-body"/>
<line x1="724.02" y1="409.21" x2="724.02" y2="429.39" class="up-wick"/>
<rect x="720.02" y="417.07" width="8.00" height="8.49" class="up-body"/>
<line x1="740.57" y1="390.50" x2="740.57" y2="419.01" class="up-wick"/>
<rect x="736.57" y="395.83" width="8.00" height="21.32" class="up-body"/>
<line x1="757.13" y1="377.13" x2="757.13" y2="396.41" class="up-wick"/>
<rect x="753.13" y="379.34" width="8.00" height="16.49" class="up-body"/>
<line x1="773.69" y1="369.76" x2="773.69" y2="408.88" class="down-wick"/>
<rect x="769.69" y="379.30" width="8.00" height="29.57" class="down-body"/>
<line x1="790.25" y1="402.68" x2="790.25" y2="417.18" class="up-wick"/>
<rect x="786.25" y="405.66" width="8.00" height="3.21" class="up-body"/>
<line x1="806.80" y1="398.00" x2="806.80" y2="408.88" class="up-wick"/>
<rect x="802.80" y="400.51" width="8.00" height="5.15" class="up-body"/>
<line x1="823.36" y1="398.91" x2="823.36" y2="414.89" class="down-wick"/>
<rect x="819.36" y="400.51" width="8.00" height="12.45" class="down-body"/>
<line x1="839.92" y1="412.34" x2="839.92" y2="427.07" class="down-wick"/>
<rect x="835.92" y="412.96" width="8.00" height="5.15" class="down-body"/>
<line x1="856.48" y1="417.02" x2="856.48" y2="433.32" class="down-wick"/>
<rect x="852.48" y="418.11" width="8.00" height="11.31" class="down-body"/>
<line x1="873.03" y1="416.07" x2="873.03" y2="429.42" class="up-wick"/>
<rect x="869.03" y="425.17" width="8.00" height="4.25" class="up-body"/>
<line x1="889.59" y1="422.52" x2="889.59" y2="439.13" class="down-wick"/>
<rect x="885.59" y="425.17" width="8.00" height="6.06" class="down-body"/>
<line x1="906.15" y1="421.62" x2="906.15" y2="436.10" class="down-wick"/>
<rect x="902.15" y="431.23" width="8.00" height="1.00" class="down-body"/>
<line x1="922.70" y1="419.68" x2="922.70" y2="433.52" class="up-wick"/>
<rect x="918.70" y="428.31" width="8.00" height="2.94" class="up-body"/>
<line x1="939.26" y1="412.87" x2="939.26" y2="428.31" class="up-wick"/>
<rect x="935.26" y="417.36" width="8.00" height="10.95" class="up-body"/>
<line x1="955.82" y1="399.40" x2="955.82" y2="419.83" class="up-wick"/>
<rect x="951.82" y="400.27" width="8.00" height="17.09" class="up-body"/>
<line x1="972.38" y1="396.67" x2="972.38" y2="407.56" class="down-wick"/>
<rect x="968.38" y="400.27" width="8.00" height="3.22" class="down-body"/>
<line x1="988.93" y1="403.31" x2="988.93" y2="421.29" class="down-wick"/>
<rect x="984.93" y="403.47" width="8.00" height="15.84" class="down-body"/>
<line x1="1005.49" y1="413.52" x2="1005.49" y2="428.25" class="down-wick"/>
<rect x="1001.49" y="419.31" width="8.00" height="3.04" class="down-body"/>
<line x1="1022.05" y1="414.77" x2="1022.05" y2="432.88" class="up-wick"/>
<rect x="1018.05" y="419.47" width="8.00" height="2.88" class="up-body"/>
<line x1="1038.61" y1="397.76" x2="1038.61" y2="446.35" class="down-wick"/>
<rect x="1034.61" y="419.47" width="8.00" height="24.60" class="down-body"/>
<line x1="1055.16" y1="432.76" x2="1055.16" y2="455.54" class="down-wick"/>
<rect x="1051.16" y="444.06" width="8.00" height="2.56" class="down-body"/>
<line x1="1071.72" y1="427.83" x2="1071.72" y2="463.85" class="down-wick"/>
<rect x="1067.72" y="446.63" width="8.00" height="3.60" class="down-body"/>
<line x1="70" y1="412.63" x2="1080" y2="412.63" class="number-line"/>
<text x="1076" y="408.63" text-anchor="end" class="level-label">round 5100.00</text>
<line x1="70" y1="412.63" x2="1080" y2="412.63" class="entry-line"/>
<text x="1076" y="408.63" text-anchor="end" class="level-label">entry level 5100.00</text>
<text x="70" y="556" class="axis-label">2026-03-09 01:00:00+00:00 to 2026-03-09 16:00:00+00:00</text>
<text x="1080" y="556" text-anchor="end" class="axis-label">5004.64 - 5150.68</text>
<text x="70" y="582" class="panel-title">M5 reaction / execution context</text>
<rect x="70" y="596" width="1010" height="192" class="plot-bg"/>
<line x1="79.18" y1="618.83" x2="79.18" y2="638.48" class="down-wick"/>
<rect x="75.18" y="630.23" width="8.00" height="6.74" class="down-body"/>
<line x1="97.55" y1="633.75" x2="97.55" y2="670.96" class="down-wick"/>
<rect x="93.55" y="636.97" width="8.00" height="22.49" class="down-body"/>
<line x1="115.91" y1="656.11" x2="115.91" y2="704.20" class="down-wick"/>
<rect x="111.91" y="659.43" width="8.00" height="37.45" class="down-body"/>
<line x1="134.27" y1="681.82" x2="134.27" y2="715.12" class="down-wick"/>
<rect x="130.27" y="696.84" width="8.00" height="2.84" class="down-body"/>
<line x1="152.64" y1="691.64" x2="152.64" y2="730.84" class="down-wick"/>
<rect x="148.64" y="699.62" width="8.00" height="19.99" class="down-body"/>
<line x1="171.00" y1="705.09" x2="171.00" y2="729.43" class="down-wick"/>
<rect x="167.00" y="719.61" width="8.00" height="9.11" class="down-body"/>
<line x1="189.36" y1="725.09" x2="189.36" y2="759.80" class="down-wick"/>
<rect x="185.36" y="728.72" width="8.00" height="12.60" class="down-body"/>
<line x1="207.73" y1="725.77" x2="207.73" y2="757.71" class="up-wick"/>
<rect x="203.73" y="727.76" width="8.00" height="13.21" class="up-body"/>
<line x1="226.09" y1="713.58" x2="226.09" y2="734.33" class="down-wick"/>
<rect x="222.09" y="727.72" width="8.00" height="3.56" class="down-body"/>
<line x1="244.45" y1="715.30" x2="244.45" y2="736.90" class="up-wick"/>
<rect x="240.45" y="727.00" width="8.00" height="4.28" class="up-body"/>
<line x1="262.82" y1="701.91" x2="262.82" y2="731.49" class="up-wick"/>
<rect x="258.82" y="703.52" width="8.00" height="22.42" class="up-body"/>
<line x1="281.18" y1="696.81" x2="281.18" y2="717.25" class="up-wick"/>
<rect x="277.18" y="697.91" width="8.00" height="5.61" class="up-body"/>
<line x1="299.55" y1="693.76" x2="299.55" y2="721.29" class="down-wick"/>
<rect x="295.55" y="697.91" width="8.00" height="14.34" class="down-body"/>
<line x1="317.91" y1="701.33" x2="317.91" y2="717.35" class="up-wick"/>
<rect x="313.91" y="708.07" width="8.00" height="4.24" class="up-body"/>
<line x1="336.27" y1="695.03" x2="336.27" y2="716.97" class="down-wick"/>
<rect x="332.27" y="708.07" width="8.00" height="8.83" class="down-body"/>
<line x1="354.64" y1="715.67" x2="354.64" y2="742.55" class="down-wick"/>
<rect x="350.64" y="716.94" width="8.00" height="13.69" class="down-body"/>
<line x1="373.00" y1="719.23" x2="373.00" y2="740.77" class="down-wick"/>
<rect x="369.00" y="730.63" width="8.00" height="1.47" class="down-body"/>
<line x1="391.36" y1="718.65" x2="391.36" y2="739.40" class="up-wick"/>
<rect x="387.36" y="723.89" width="8.00" height="8.22" class="up-body"/>
<line x1="409.73" y1="683.63" x2="409.73" y2="724.54" class="up-wick"/>
<rect x="405.73" y="688.25" width="8.00" height="35.67" class="up-body"/>
<line x1="428.09" y1="686.57" x2="428.09" y2="722.21" class="down-wick"/>
<rect x="424.09" y="688.25" width="8.00" height="23.45" class="down-body"/>
<line x1="446.45" y1="704.51" x2="446.45" y2="723.48" class="down-wick"/>
<rect x="442.45" y="711.70" width="8.00" height="9.31" class="down-body"/>
<line x1="464.82" y1="698.35" x2="464.82" y2="738.33" class="up-wick"/>
<rect x="460.82" y="717.66" width="8.00" height="3.35" class="up-body"/>
<line x1="483.18" y1="717.04" x2="483.18" y2="737.34" class="down-wick"/>
<rect x="479.18" y="717.66" width="8.00" height="9.28" class="down-body"/>
<line x1="501.55" y1="721.59" x2="501.55" y2="752.27" class="down-wick"/>
<rect x="497.55" y="726.93" width="8.00" height="22.49" class="down-body"/>
<line x1="519.91" y1="732.96" x2="519.91" y2="765.04" class="up-wick"/>
<rect x="515.91" y="734.88" width="8.00" height="14.55" class="up-body"/>
<line x1="538.27" y1="731.73" x2="538.27" y2="750.28" class="down-wick"/>
<rect x="534.27" y="734.74" width="8.00" height="5.20" class="down-body"/>
<line x1="556.64" y1="734.19" x2="556.64" y2="758.12" class="down-wick"/>
<rect x="552.64" y="739.60" width="8.00" height="14.96" class="down-body"/>
<line x1="575.00" y1="717.76" x2="575.00" y2="764.52" class="up-wick"/>
<rect x="571.00" y="717.86" width="8.00" height="36.70" class="up-body"/>
<line x1="593.36" y1="711.98" x2="593.36" y2="737.14" class="down-wick"/>
<rect x="589.36" y="717.86" width="8.00" height="15.58" class="down-body"/>
<line x1="611.73" y1="721.18" x2="611.73" y2="746.41" class="up-wick"/>
<rect x="607.73" y="732.45" width="8.00" height="1.00" class="up-body"/>
<line x1="630.09" y1="705.33" x2="630.09" y2="737.17" class="down-wick"/>
<rect x="626.09" y="732.65" width="8.00" height="1.00" class="down-body"/>
<line x1="648.45" y1="680.86" x2="648.45" y2="737.48" class="up-wick"/>
<rect x="644.45" y="689.04" width="8.00" height="43.68" class="up-body"/>
<line x1="666.82" y1="663.26" x2="666.82" y2="689.07" class="up-wick"/>
<rect x="662.82" y="677.13" width="8.00" height="11.91" class="up-body"/>
<line x1="685.18" y1="654.29" x2="685.18" y2="678.63" class="up-wick"/>
<rect x="681.18" y="661.10" width="8.00" height="16.02" class="up-body"/>
<line x1="703.55" y1="643.47" x2="703.55" y2="670.31" class="up-wick"/>
<rect x="699.55" y="657.78" width="8.00" height="3.32" class="up-body"/>
<line x1="721.91" y1="628.45" x2="721.91" y2="664.70" class="up-wick"/>
<rect x="717.91" y="634.20" width="8.00" height="23.59" class="up-body"/>
<line x1="740.27" y1="609.24" x2="740.27" y2="636.56" class="up-wick"/>
<rect x="736.27" y="622.83" width="8.00" height="11.26" class="up-body"/>
<line x1="758.64" y1="614.51" x2="758.64" y2="659.08" class="down-wick"/>
<rect x="754.64" y="622.56" width="8.00" height="35.16" class="down-body"/>
<line x1="777.00" y1="652.20" x2="777.00" y2="711.12" class="down-wick"/>
<rect x="773.00" y="657.75" width="8.00" height="53.34" class="down-body"/>
<line x1="795.36" y1="700.30" x2="795.36" y2="732.72" class="down-wick"/>
<rect x="791.36" y="711.08" width="8.00" height="6.23" class="down-body"/>
<line x1="813.73" y1="694.96" x2="813.73" y2="717.79" class="up-wick"/>
<rect x="809.73" y="703.04" width="8.00" height="14.28" class="up-body"/>
<line x1="832.09" y1="700.20" x2="832.09" y2="715.16" class="up-wick"/>
<rect x="828.09" y="702.73" width="8.00" height="1.00" class="up-body"/>
<line x1="850.45" y1="691.64" x2="850.45" y2="711.12" class="up-wick"/>
<rect x="846.45" y="697.39" width="8.00" height="5.34" class="up-body"/>
<line x1="868.82" y1="687.67" x2="868.82" y2="702.32" class="up-wick"/>
<rect x="864.82" y="690.65" width="8.00" height="6.74" class="up-body"/>
<line x1="887.18" y1="682.77" x2="887.18" y2="694.24" class="up-wick"/>
<rect x="883.18" y="689.31" width="8.00" height="1.34" class="up-body"/>
<line x1="905.55" y1="685.14" x2="905.55" y2="706.94" class="down-wick"/>
<rect x="901.55" y="689.31" width="8.00" height="17.12" class="down-body"/>
<line x1="923.91" y1="700.54" x2="923.91" y2="714.13" class="down-wick"/>
<rect x="919.91" y="706.43" width="8.00" height="6.20" class="down-body"/>
<line x1="942.27" y1="701.02" x2="942.27" y2="726.76" class="down-wick"/>
<rect x="938.27" y="712.63" width="8.00" height="9.11" class="down-body"/>
<line x1="960.64" y1="721.73" x2="960.64" y2="753.40" class="down-wick"/>
<rect x="956.64" y="721.73" width="8.00" height="21.91" class="down-body"/>
<line x1="979.00" y1="737.31" x2="979.00" y2="758.46" class="up-wick"/>
<rect x="975.00" y="741.69" width="8.00" height="1.95" class="up-body"/>
<line x1="997.36" y1="720.12" x2="997.36" y2="742.44" class="up-wick"/>
<rect x="993.36" y="735.15" width="8.00" height="6.54" class="up-body"/>
<line x1="1015.73" y1="732.93" x2="1015.73" y2="756.17" class="down-wick"/>
<rect x="1011.73" y="735.15" width="8.00" height="15.82" class="down-body"/>
<line x1="1034.09" y1="733.23" x2="1034.09" y2="774.76" class="up-wick"/>
<rect x="1030.09" y="733.27" width="8.00" height="17.66" class="up-body"/>
<line x1="1052.45" y1="732.31" x2="1052.45" y2="764.63" class="down-wick"/>
<rect x="1048.45" y="733.27" width="8.00" height="31.32" class="down-body"/>
<line x1="1070.82" y1="731.59" x2="1070.82" y2="764.59" class="up-wick"/>
<rect x="1066.82" y="733.51" width="8.00" height="31.08" class="up-body"/>
<line x1="70" y1="720.88" x2="1080" y2="720.88" class="number-line"/>
<text x="1076" y="716.88" text-anchor="end" class="level-label">round 5100.00</text>
<line x1="70" y1="720.88" x2="1080" y2="720.88" class="entry-line"/>
<text x="1076" y="716.88" text-anchor="end" class="level-label">entry level 5100.00</text>
<text x="70" y="806" class="axis-label">2026-03-09 08:30:00+00:00 to 2026-03-09 13:00:00+00:00</text>
<text x="1080" y="806" text-anchor="end" class="axis-label">5080.39 - 5136.48</text>
<text x="70" y="832" class="panel-title">M1 execution window</text>
<rect x="70" y="846" width="1010" height="192" class="plot-bg"/>
<line x1="73.71" y1="866.84" x2="73.71" y2="878.77" class="up-wick"/>
<rect x="71.30" y="878.03" width="4.83" height="1.00" class="up-body"/>
<line x1="81.14" y1="874.26" x2="81.14" y2="886.76" class="down-wick"/>
<rect x="78.73" y="876.82" width="4.83" height="3.94" class="down-body"/>
<line x1="88.57" y1="876.93" x2="88.57" y2="887.22" class="down-wick"/>
<rect x="86.15" y="877.85" width="4.83" height="7.81" class="down-body"/>
<line x1="95.99" y1="891.56" x2="95.99" y2="905.09" class="down-wick"/>
<rect x="93.58" y="891.73" width="4.83" height="12.22" class="down-body"/>
<line x1="103.42" y1="908.14" x2="103.42" y2="920.92" class="down-wick"/>
<rect x="101.01" y="909.88" width="4.83" height="5.75" class="down-body"/>
<line x1="110.85" y1="905.51" x2="110.85" y2="919.36" class="down-wick"/>
<rect x="108.43" y="908.96" width="4.83" height="1.67" class="down-body"/>
<line x1="118.27" y1="911.12" x2="118.27" y2="918.05" class="up-wick"/>
<rect x="115.86" y="912.69" width="4.83" height="2.10" class="up-body"/>
<line x1="125.70" y1="938.08" x2="125.70" y2="955.41" class="up-wick"/>
<rect x="123.28" y="947.81" width="4.83" height="2.88" class="up-body"/>
<line x1="133.12" y1="935.48" x2="133.12" y2="950.97" class="down-wick"/>
<rect x="130.71" y="938.29" width="4.83" height="7.21" class="down-body"/>
<line x1="140.55" y1="941.77" x2="140.55" y2="961.02" class="down-wick"/>
<rect x="138.14" y="943.37" width="4.83" height="15.20" class="down-body"/>
<line x1="147.98" y1="949.12" x2="147.98" y2="961.44" class="up-wick"/>
<rect x="145.56" y="950.40" width="4.83" height="1.00" class="up-body"/>
<line x1="155.40" y1="959.70" x2="155.40" y2="970.85" class="down-wick"/>
<rect x="152.99" y="963.43" width="4.83" height="4.12" class="down-body"/>
<line x1="162.83" y1="967.94" x2="162.83" y2="983.03" class="down-wick"/>
<rect x="160.42" y="970.39" width="4.83" height="1.00" class="down-body"/>
<line x1="170.26" y1="962.15" x2="170.26" y2="971.63" class="up-wick"/>
<rect x="167.84" y="962.15" width="4.83" height="8.84" class="up-body"/>
<line x1="177.68" y1="964.82" x2="177.68" y2="975.08" class="up-wick"/>
<rect x="175.27" y="969.57" width="4.83" height="1.00" class="up-body"/>
<line x1="185.11" y1="980.72" x2="185.11" y2="998.27" class="down-wick"/>
<rect x="182.70" y="980.83" width="4.83" height="2.73" class="down-body"/>
<line x1="192.54" y1="978.06" x2="192.54" y2="994.61" class="up-wick"/>
<rect x="190.12" y="979.80" width="4.83" height="7.56" class="up-body"/>
<line x1="199.96" y1="987.69" x2="199.96" y2="1005.16" class="up-wick"/>
<rect x="197.55" y="993.90" width="4.83" height="10.97" class="up-body"/>
<line x1="207.39" y1="987.58" x2="207.39" y2="996.10" class="up-wick"/>
<rect x="204.98" y="990.92" width="4.83" height="2.59" class="up-body"/>
<line x1="214.82" y1="979.62" x2="214.82" y2="994.79" class="up-wick"/>
<rect x="212.40" y="984.99" width="4.83" height="6.61" class="up-body"/>
<line x1="222.24" y1="974.47" x2="222.24" y2="984.38" class="up-wick"/>
<rect x="219.83" y="976.04" width="4.83" height="3.76" class="up-body"/>
<line x1="229.67" y1="965.14" x2="229.67" y2="977.49" class="down-wick"/>
<rect x="227.26" y="973.62" width="4.83" height="3.87" class="down-body"/>
<line x1="237.10" y1="972.66" x2="237.10" y2="985.59" class="down-wick"/>
<rect x="234.68" y="977.24" width="4.83" height="6.25" class="down-body"/>
<line x1="244.52" y1="976.82" x2="244.52" y2="985.06" class="up-wick"/>
<rect x="242.11" y="977.17" width="4.83" height="3.55" class="up-body"/>
<line x1="251.95" y1="966.91" x2="251.95" y2="982.25" class="down-wick"/>
<rect x="249.53" y="980.76" width="4.83" height="1.00" class="down-body"/>
<line x1="259.38" y1="968.22" x2="259.38" y2="978.24" class="up-wick"/>
<rect x="256.96" y="977.46" width="4.83" height="1.00" class="up-body"/>
<line x1="266.80" y1="972.42" x2="266.80" y2="978.84" class="down-wick"/>
<rect x="264.39" y="974.62" width="4.83" height="1.00" class="down-body"/>
<line x1="274.23" y1="953.03" x2="274.23" y2="979.62" class="up-wick"/>
<rect x="271.81" y="954.70" width="4.83" height="24.75" class="up-body"/>
<line x1="281.65" y1="958.99" x2="281.65" y2="968.94" class="down-wick"/>
<rect x="279.24" y="960.52" width="4.83" height="1.00" class="down-body"/>
<line x1="289.08" y1="949.87" x2="289.08" y2="955.80" class="down-wick"/>
<rect x="286.67" y="951.82" width="4.83" height="1.88" class="down-body"/>
<line x1="296.51" y1="944.57" x2="296.51" y2="961.62" class="down-wick"/>
<rect x="294.09" y="948.87" width="4.83" height="12.61" class="down-body"/>
<line x1="303.93" y1="950.82" x2="303.93" y2="957.78" class="up-wick"/>
<rect x="301.52" y="954.94" width="4.83" height="1.00" class="up-body"/>
<line x1="311.36" y1="960.59" x2="311.36" y2="973.13" class="up-wick"/>
<rect x="308.95" y="963.75" width="4.83" height="2.38" class="up-body"/>
<line x1="318.79" y1="960.23" x2="318.79" y2="969.04" class="up-wick"/>
<rect x="316.37" y="961.23" width="4.83" height="1.49" class="up-body"/>
<line x1="326.21" y1="956.15" x2="326.21" y2="964.64" class="up-wick"/>
<rect x="323.80" y="958.81" width="4.83" height="2.77" class="up-body"/>
<line x1="333.64" y1="955.37" x2="333.64" y2="962.44" class="down-wick"/>
<rect x="331.23" y="959.42" width="4.83" height="1.00" class="down-body"/>
<line x1="341.07" y1="947.74" x2="341.07" y2="964.53" class="down-wick"/>
<rect x="338.65" y="948.02" width="4.83" height="11.68" class="down-body"/>
<line x1="348.49" y1="958.92" x2="348.49" y2="968.65" class="down-wick"/>
<rect x="346.08" y="959.63" width="4.83" height="8.95" class="down-body"/>
<line x1="355.92" y1="970.92" x2="355.92" y2="987.72" class="up-wick"/>
<rect x="353.51" y="973.98" width="4.83" height="10.87" class="up-body"/>
<line x1="363.35" y1="981.01" x2="363.35" y2="990.35" class="down-wick"/>
<rect x="360.93" y="983.00" width="4.83" height="6.85" class="down-body"/>
<line x1="370.77" y1="971.63" x2="370.77" y2="984.03" class="up-wick"/>
<rect x="368.36" y="972.34" width="4.83" height="10.48" class="up-body"/>
<line x1="378.20" y1="974.97" x2="378.20" y2="983.07" class="down-wick"/>
<rect x="375.78" y="975.97" width="4.83" height="5.33" class="down-body"/>
<line x1="385.62" y1="982.29" x2="385.62" y2="993.33" class="up-wick"/>
<rect x="383.21" y="984.35" width="4.83" height="3.30" class="up-body"/>
<line x1="393.05" y1="971.31" x2="393.05" y2="981.79" class="up-wick"/>
<rect x="390.64" y="972.24" width="4.83" height="8.10" class="up-body"/>
<line x1="400.48" y1="976.21" x2="400.48" y2="981.33" class="down-wick"/>
<rect x="398.06" y="978.56" width="4.83" height="1.00" class="down-body"/>
<line x1="407.90" y1="959.24" x2="407.90" y2="976.50" class="up-wick"/>
<rect x="405.49" y="960.38" width="4.83" height="15.48" class="up-body"/>
<line x1="415.33" y1="943.79" x2="415.33" y2="956.01" class="up-wick"/>
<rect x="412.92" y="943.83" width="4.83" height="12.04" class="up-body"/>
<line x1="422.76" y1="934.06" x2="422.76" y2="943.47" class="up-wick"/>
<rect x="420.34" y="938.86" width="4.83" height="1.42" class="up-body"/>
<line x1="430.18" y1="950.26" x2="430.18" y2="969.33" class="down-wick"/>
<rect x="427.77" y="951.36" width="4.83" height="13.57" class="down-body"/>
<line x1="437.61" y1="964.00" x2="437.61" y2="974.08" class="down-wick"/>
<rect x="435.20" y="964.78" width="4.83" height="1.63" class="down-body"/>
<line x1="445.04" y1="956.83" x2="445.04" y2="968.86" class="up-wick"/>
<rect x="442.62" y="960.63" width="4.83" height="2.56" class="up-body"/>
<line x1="452.46" y1="956.93" x2="452.46" y2="970.96" class="up-wick"/>
<rect x="450.05" y="967.30" width="4.83" height="3.66" class="up-body"/>
<line x1="459.89" y1="965.85" x2="459.89" y2="975.40" class="down-wick"/>
<rect x="457.48" y="969.36" width="4.83" height="3.48" class="down-body"/>
<line x1="467.32" y1="972.52" x2="467.32" y2="988.68" class="up-wick"/>
<rect x="464.90" y="977.64" width="4.83" height="1.35" class="up-body"/>
<line x1="474.74" y1="949.33" x2="474.74" y2="959.21" class="up-wick"/>
<rect x="472.33" y="953.35" width="4.83" height="3.30" class="up-body"/>
<line x1="482.17" y1="968.72" x2="482.17" y2="983.46" class="down-wick"/>
<rect x="479.76" y="969.36" width="4.83" height="13.60" class="down-body"/>
<line x1="489.60" y1="979.70" x2="489.60" y2="988.43" class="down-wick"/>
<rect x="487.18" y="983.03" width="4.83" height="5.33" class="down-body"/>
<line x1="497.02" y1="978.59" x2="497.02" y2="989.74" class="up-wick"/>
<rect x="494.61" y="978.98" width="4.83" height="8.59" class="up-body"/>
<line x1="504.45" y1="980.12" x2="504.45" y2="989.39" class="up-wick"/>
<rect x="502.03" y="983.28" width="4.83" height="1.00" class="up-body"/>
<line x1="511.88" y1="983.49" x2="511.88" y2="995.78" class="down-wick"/>
<rect x="509.46" y="984.77" width="4.83" height="10.62" class="down-body"/>
<line x1="519.30" y1="988.18" x2="519.30" y2="1007.07" class="up-wick"/>
<rect x="516.89" y="992.23" width="4.83" height="10.09" class="up-body"/>
<line x1="526.73" y1="998.41" x2="526.73" y2="1018.51" class="down-wick"/>
<rect x="524.31" y="999.26" width="4.83" height="13.57" class="down-body"/>
<line x1="534.15" y1="985.23" x2="534.15" y2="1006.43" class="up-wick"/>
<rect x="531.74" y="987.22" width="4.83" height="19.21" class="up-body"/>
<line x1="541.58" y1="988.64" x2="541.58" y2="996.92" class="down-wick"/>
<rect x="539.17" y="989.07" width="4.83" height="5.97" class="down-body"/>
<line x1="549.01" y1="990.38" x2="549.01" y2="995.78" class="up-wick"/>
<rect x="546.59" y="992.59" width="4.83" height="1.00" class="up-body"/>
<line x1="556.43" y1="988.43" x2="556.43" y2="999.12" class="down-wick"/>
<rect x="554.02" y="992.12" width="4.83" height="2.91" class="down-body"/>
<line x1="563.86" y1="992.41" x2="563.86" y2="1000.08" class="down-wick"/>
<rect x="561.45" y="995.82" width="4.83" height="2.31" class="down-body"/>
<line x1="571.29" y1="998.59" x2="571.29" y2="1011.34" class="down-wick"/>
<rect x="568.87" y="999.90" width="4.83" height="7.74" class="down-body"/>
<line x1="578.71" y1="1004.16" x2="578.71" y2="1017.87" class="down-wick"/>
<rect x="576.30" y="1012.61" width="4.83" height="3.23" class="down-body"/>
<line x1="586.14" y1="979.16" x2="586.14" y2="1006.90" class="up-wick"/>
<rect x="583.73" y="981.15" width="4.83" height="24.11" class="up-body"/>
<line x1="593.57" y1="966.66" x2="593.57" y2="984.13" class="down-wick"/>
<rect x="591.15" y="969.57" width="4.83" height="11.90" class="down-body"/>
<line x1="600.99" y1="971.67" x2="600.99" y2="980.62" class="down-wick"/>
<rect x="598.58" y="974.30" width="4.83" height="6.32" class="down-body"/>
<line x1="608.42" y1="977.85" x2="608.42" y2="987.37" class="down-wick"/>
<rect x="606.01" y="984.35" width="4.83" height="1.38" class="down-body"/>
<line x1="615.85" y1="988.15" x2="615.85" y2="994.57" class="down-wick"/>
<rect x="613.43" y="988.22" width="4.83" height="5.68" class="down-body"/>
<line x1="623.27" y1="978.10" x2="623.27" y2="992.16" class="up-wick"/>
<rect x="620.86" y="981.22" width="4.83" height="7.39" class="up-body"/>
<line x1="630.70" y1="979.06" x2="630.70" y2="989.60" class="up-wick"/>
<rect x="628.28" y="984.38" width="4.83" height="1.00" class="up-body"/>
<line x1="638.12" y1="956.58" x2="638.12" y2="970.75" class="up-wick"/>
<rect x="635.71" y="963.89" width="4.83" height="2.10" class="up-body"/>
<line x1="645.55" y1="973.41" x2="645.55" y2="987.08" class="down-wick"/>
<rect x="643.14" y="974.30" width="4.83" height="10.69" class="down-body"/>
<line x1="652.98" y1="958.14" x2="652.98" y2="969.22" class="up-wick"/>
<rect x="650.56" y="967.34" width="4.83" height="1.67" class="up-body"/>
<line x1="660.40" y1="941.45" x2="660.40" y2="962.22" class="up-wick"/>
<rect x="657.99" y="941.88" width="4.83" height="18.71" class="up-body"/>
<line x1="667.83" y1="927.21" x2="667.83" y2="939.71" class="up-wick"/>
<rect x="665.42" y="931.76" width="4.83" height="7.92" class="up-body"/>
<line x1="675.26" y1="913.79" x2="675.26" y2="929.70" class="up-wick"/>
<rect x="672.84" y="915.06" width="4.83" height="12.64" class="up-body"/>
<line x1="682.68" y1="922.34" x2="682.68" y2="935.16" class="up-wick"/>
<rect x="680.27" y="927.32" width="4.83" height="3.76" class="up-body"/>
<line x1="690.11" y1="903.63" x2="690.11" y2="911.94" class="up-wick"/>
<rect x="687.70" y="910.48" width="4.83" height="1.00" class="up-body"/>
<line x1="697.54" y1="905.97" x2="697.54" y2="914.39" class="up-wick"/>
<rect x="695.12" y="910.55" width="4.83" height="3.41" class="up-body"/>
<line x1="704.96" y1="909.45" x2="704.96" y2="920.25" class="down-wick"/>
<rect x="702.55" y="910.70" width="4.83" height="3.37" class="down-body"/>
<line x1="712.39" y1="892.41" x2="712.39" y2="903.45" class="down-wick"/>
<rect x="709.98" y="901.78" width="4.83" height="1.49" class="down-body"/>
<line x1="719.82" y1="899.44" x2="719.82" y2="911.34" class="down-wick"/>
<rect x="717.40" y="905.90" width="4.83" height="1.35" class="down-body"/>
<line x1="727.24" y1="893.86" x2="727.24" y2="907.36" class="up-wick"/>
<rect x="724.83" y="894.50" width="4.83" height="12.25" class="up-body"/>
<line x1="734.67" y1="880.83" x2="734.67" y2="898.80" class="up-wick"/>
<rect x="732.26" y="881.36" width="4.83" height="16.65" class="up-body"/>
<line x1="742.10" y1="875.79" x2="742.10" y2="885.24" class="up-wick"/>
<rect x="739.68" y="879.52" width="4.83" height="3.16" class="up-body"/>
<line x1="749.52" y1="862.69" x2="749.52" y2="876.68" class="up-wick"/>
<rect x="747.11" y="863.33" width="4.83" height="7.71" class="up-body"/>
<line x1="756.95" y1="859.24" x2="756.95" y2="879.16" class="down-wick"/>
<rect x="754.53" y="862.69" width="4.83" height="8.31" class="down-body"/>
<line x1="764.38" y1="871.14" x2="764.38" y2="889.21" class="down-wick"/>
<rect x="761.96" y="879.62" width="4.83" height="1.85" class="down-body"/>
<line x1="771.80" y1="875.47" x2="771.80" y2="886.02" class="up-wick"/>
<rect x="769.39" y="880.65" width="4.83" height="1.21" class="up-body"/>
<line x1="779.23" y1="901.46" x2="779.23" y2="913.93" class="down-wick"/>
<rect x="776.81" y="907.22" width="4.83" height="5.36" class="down-body"/>
<line x1="786.65" y1="919.11" x2="786.65" y2="932.71" class="down-wick"/>
<rect x="784.24" y="919.97" width="4.83" height="11.97" class="down-body"/>
<line x1="794.08" y1="944.29" x2="794.08" y2="962.58" class="down-wick"/>
<rect x="791.67" y="944.29" width="4.83" height="18.25" class="down-body"/>
<line x1="801.51" y1="959.74" x2="801.51" y2="983.42" class="up-wick"/>
<rect x="799.09" y="963.00" width="4.83" height="20.42" class="up-body"/>
<line x1="808.93" y1="959.60" x2="808.93" y2="973.87" class="down-wick"/>
<rect x="806.52" y="960.48" width="4.83" height="13.00" class="down-body"/>
<line x1="816.36" y1="947.84" x2="816.36" y2="969.50" class="up-wick"/>
<rect x="813.95" y="948.76" width="4.83" height="20.24" class="up-body"/>
<line x1="823.79" y1="945.82" x2="823.79" y2="966.45" class="down-wick"/>
<rect x="821.37" y="951.68" width="4.83" height="5.75" class="down-body"/>
<line x1="831.21" y1="953.31" x2="831.21" y2="966.63" class="up-wick"/>
<rect x="828.80" y="954.20" width="4.83" height="6.04" class="up-body"/>
<line x1="838.64" y1="951.25" x2="838.64" y2="962.29" class="down-wick"/>
<rect x="836.23" y="956.79" width="4.83" height="1.00" class="down-body"/>
<line x1="846.07" y1="957.61" x2="846.07" y2="964.96" class="up-wick"/>
<rect x="843.65" y="957.82" width="4.83" height="4.44" class="up-body"/>
<line x1="853.49" y1="943.97" x2="853.49" y2="953.98" class="up-wick"/>
<rect x="851.08" y="948.48" width="4.83" height="5.40" class="up-body"/>
<line x1="860.92" y1="943.65" x2="860.92" y2="957.39" class="down-wick"/>
<rect x="858.51" y="943.69" width="4.83" height="12.75" class="down-body"/>
<line x1="868.35" y1="944.65" x2="868.35" y2="957.54" class="up-wick"/>
<rect x="865.93" y="948.34" width="4.83" height="6.89" class="up-body"/>
<line x1="875.77" y1="943.69" x2="875.77" y2="948.20" class="down-wick"/>
<rect x="873.36" y="944.57" width="4.83" height="3.55" class="down-body"/>
<line x1="883.20" y1="938.75" x2="883.20" y2="945.96" class="up-wick"/>
<rect x="880.78" y="943.12" width="4.83" height="1.99" class="up-body"/>
<line x1="890.62" y1="933.28" x2="890.62" y2="944.33" class="up-wick"/>
<rect x="888.21" y="933.42" width="4.83" height="7.92" class="up-body"/>
<line x1="898.05" y1="933.50" x2="898.05" y2="937.69" class="down-wick"/>
<rect x="895.64" y="935.59" width="4.83" height="1.00" class="down-body"/>
<line x1="905.48" y1="937.58" x2="905.48" y2="945.07" class="up-wick"/>
<rect x="903.06" y="939.96" width="4.83" height="2.59" class="up-body"/>
<line x1="912.90" y1="937.37" x2="912.90" y2="946.46" class="up-wick"/>
<rect x="910.49" y="937.40" width="4.83" height="4.97" class="up-body"/>
<line x1="920.33" y1="935.63" x2="920.33" y2="949.79" class="down-wick"/>
<rect x="917.92" y="940.24" width="4.83" height="9.55" class="down-body"/>
<line x1="927.76" y1="957.00" x2="927.76" y2="961.90" class="down-wick"/>
<rect x="925.34" y="957.71" width="4.83" height="3.59" class="down-body"/>
<line x1="935.18" y1="953.52" x2="935.18" y2="961.34" class="up-wick"/>
<rect x="932.77" y="957.39" width="4.83" height="1.00" class="up-body"/>
<line x1="942.61" y1="951.61" x2="942.61" y2="965.42" class="down-wick"/>
<rect x="940.20" y="963.68" width="4.83" height="1.00" class="down-body"/>
<line x1="950.04" y1="952.10" x2="950.04" y2="957.61" class="up-wick"/>
<rect x="947.62" y="954.55" width="4.83" height="1.53" class="up-body"/>
<line x1="957.46" y1="954.77" x2="957.46" y2="970.75" class="down-wick"/>
<rect x="955.05" y="959.74" width="4.83" height="9.30" class="down-body"/>
<line x1="964.89" y1="973.59" x2="964.89" y2="995.25" class="down-wick"/>
<rect x="962.48" y="973.59" width="4.83" height="21.63" class="down-body"/>
<line x1="972.32" y1="986.02" x2="972.32" y2="1000.01" class="up-wick"/>
<rect x="969.90" y="989.92" width="4.83" height="5.15" class="up-body"/>
<line x1="979.74" y1="989.43" x2="979.74" y2="997.70" class="down-wick"/>
<rect x="977.33" y="994.50" width="4.83" height="1.81" class="down-body"/>
<line x1="987.17" y1="1000.26" x2="987.17" y2="1011.69" class="up-wick"/>
<rect x="984.76" y="1001.75" width="4.83" height="1.78" class="up-body"/>
<line x1="994.60" y1="989.74" x2="994.60" y2="1003.70" class="down-wick"/>
<rect x="992.18" y="1000.04" width="4.83" height="1.24" class="down-body"/>
<line x1="1002.02" y1="982.54" x2="1002.02" y2="994.47" class="up-wick"/>
<rect x="999.61" y="984.24" width="4.83" height="10.05" class="up-body"/>
<line x1="1009.45" y1="971.92" x2="1009.45" y2="990.06" class="up-wick"/>
<rect x="1007.03" y="974.40" width="4.83" height="13.60" class="up-body"/>
<line x1="1016.88" y1="985.31" x2="1016.88" y2="993.22" class="up-wick"/>
<rect x="1014.46" y="987.51" width="4.83" height="3.16" class="up-body"/>
<line x1="1024.30" y1="985.20" x2="1024.30" y2="995.82" class="up-wick"/>
<rect x="1021.89" y="989.43" width="4.83" height="2.91" class="up-body"/>
<line x1="1031.73" y1="995.00" x2="1031.73" y2="1009.31" class="up-wick"/>
<rect x="1029.31" y="997.63" width="4.83" height="7.07" class="up-body"/>
<line x1="1039.15" y1="1003.74" x2="1039.15" y2="1014.71" class="down-wick"/>
<rect x="1036.74" y="1003.88" width="4.83" height="8.95" class="down-body"/>
<line x1="1046.58" y1="1000.82" x2="1046.58" y2="1024.76" class="up-wick"/>
<rect x="1044.17" y="1001.64" width="4.83" height="13.46" class="up-body"/>
<line x1="1054.01" y1="985.52" x2="1054.01" y2="997.45" class="up-wick"/>
<rect x="1051.59" y="985.55" width="4.83" height="11.33" class="up-body"/>
<line x1="1061.43" y1="987.54" x2="1061.43" y2="996.21" class="down-wick"/>
<rect x="1059.02" y="987.83" width="4.83" height="1.00" class="down-body"/>
<line x1="1068.86" y1="992.05" x2="1068.86" y2="999.19" class="down-wick"/>
<rect x="1066.45" y="992.69" width="4.83" height="5.86" class="down-body"/>
<line x1="1076.29" y1="990.03" x2="1076.29" y2="1018.05" class="up-wick"/>
<rect x="1073.87" y="992.59" width="4.83" height="25.46" class="up-body"/>
<line x1="70" y1="972.70" x2="1080" y2="972.70" class="number-line"/>
<text x="1076" y="968.70" text-anchor="end" class="level-label">round 5100.00</text>
<line x1="70" y1="972.70" x2="1080" y2="972.70" class="entry-line"/>
<text x="1076" y="968.70" text-anchor="end" class="level-label">entry level 5100.00</text>
<text x="70" y="1056" class="axis-label">2026-03-09 08:30:00+00:00 to 2026-03-09 13:00:00+00:00</text>
<text x="1080" y="1056" text-anchor="end" class="axis-label">5081.61 - 5135.68</text>
</svg>