<svg xmlns="http://www.w3.org/2000/svg" width="1120" height="1054" viewBox="0 0 1120 1054">
<style>
text{font-family:Arial,Helvetica,sans-serif}.title{font-size:21px;font-weight:700;fill:#1f2937}.subtitle{font-size:12px;fill:#4b5563}.panel-title{font-size:15px;font-weight:700;fill:#111827}.muted{font-size:13px;fill:#6b7280}.plot-bg{fill:#f8fafc;stroke:#cbd5e1;stroke-width:1}.up-body{fill:#15803d;stroke:#14532d;stroke-width:.8}.down-body{fill:#b91c1c;stroke:#7f1d1d;stroke-width:.8}.up-wick{stroke:#14532d;stroke-width:1}.down-wick{stroke:#7f1d1d;stroke-width:1}.sweep-line{stroke:#7c3aed;stroke-width:1.6;stroke-dasharray:6 4}.number-line{stroke:#0f766e;stroke-width:1.4;stroke-dasharray:3 4}.entry-line{stroke:#2563eb;stroke-width:1.4}.sl-line{stroke:#dc2626;stroke-width:1.4}.tp-line{stroke:#16a34a;stroke-width:1.4}.level-label,.axis-label{font-size:11px;fill:#374151}
</style>
<text x="28" y="28" class="title">Adelin v2 visual review sample sample_043</text>
<text x="28" y="48" class="subtitle">Candidate windows are for visual labeling only and are not trade signals.</text>
<text x="560" y="48" class="subtitle" text-anchor="middle">NUMBER_THEORY_LEVEL_NEAR | ROUND_LEVEL_ENTRY_METADATA_AVAILABLE</text>
<text x="70" y="82" class="panel-title">H1 liquidity context</text>
<rect x="70" y="96" width="1010" height="192" class="plot-bg"/>
<line x1="79.71" y1="119.31" x2="79.71" y2="154.78" class="up-wick"/>
<rect x="75.71" y="121.83" width="8.00" height="9.36" class="up-body"/>
<line x1="99.13" y1="121.36" x2="99.13" y2="139.89" class="down-wick"/>
<rect x="95.13" y="121.83" width="8.00" height="15.49" class="down-body"/>
<line x1="118.56" y1="137.27" x2="118.56" y2="154.64" class="down-wick"/>
<rect x="114.56" y="137.36" width="8.00" height="8.72" class="down-body"/>
<line x1="137.98" y1="135.61" x2="137.98" y2="149.31" class="up-wick"/>
<rect x="133.98" y="137.69" width="8.00" height="8.39" class="up-body"/>
<line x1="157.40" y1="129.71" x2="157.40" y2="138.54" class="up-wick"/>
<rect x="153.40" y="129.88" width="8.00" height="7.82" class="up-body"/>
<line x1="176.83" y1="129.59" x2="176.83" y2="138.19" class="down-wick"/>
<rect x="172.83" y="129.88" width="8.00" height="4.12" class="down-body"/>
<line x1="196.25" y1="129.94" x2="196.25" y2="139.99" class="up-wick"/>
<rect x="192.25" y="130.02" width="8.00" height="3.97" class="up-body"/>
<line x1="215.67" y1="120.73" x2="215.67" y2="131.04" class="up-wick"/>
<rect x="211.67" y="121.63" width="8.00" height="8.39" class="up-body"/>
<line x1="235.10" y1="109.24" x2="235.10" y2="122.67" class="up-wick"/>
<rect x="231.10" y="113.60" width="8.00" height="8.04" class="up-body"/>
<line x1="254.52" y1="110.23" x2="254.52" y2="120.24" class="down-wick"/>
<rect x="250.52" y="113.60" width="8.00" height="5.49" class="down-body"/>
<line x1="273.94" y1="115.67" x2="273.94" y2="122.21" class="down-wick"/>
<rect x="269.94" y="119.09" width="8.00" height="1.00" class="down-body"/>
<line x1="293.37" y1="116.43" x2="293.37" y2="124.91" class="down-wick"/>
<rect x="289.37" y="119.83" width="8.00" height="1.07" class="down-body"/>
<line x1="312.79" y1="116.78" x2="312.79" y2="126.35" class="down-wick"/>
<rect x="308.79" y="120.90" width="8.00" height="1.59" class="down-body"/>
<line x1="332.21" y1="117.25" x2="332.21" y2="125.03" class="up-wick"/>
<rect x="328.21" y="117.86" width="8.00" height="4.65" class="up-body"/>
<line x1="351.63" y1="110.23" x2="351.63" y2="123.78" class="down-wick"/>
<rect x="347.63" y="117.86" width="8.00" height="1.28" class="down-body"/>
<line x1="371.06" y1="118.62" x2="371.06" y2="153.16" class="down-wick"/>
<rect x="367.06" y="119.14" width="8.00" height="23.59" class="down-body"/>
<line x1="390.48" y1="136.75" x2="390.48" y2="152.62" class="down-wick"/>
<rect x="386.48" y="142.74" width="8.00" height="6.94" class="down-body"/>
<line x1="409.90" y1="149.79" x2="409.90" y2="171.22" class="down-wick"/>
<rect x="405.90" y="149.79" width="8.00" height="9.90" class="down-body"/>
<line x1="429.33" y1="147.80" x2="429.33" y2="160.94" class="up-wick"/>
<rect x="425.33" y="153.19" width="8.00" height="6.50" class="up-body"/>
<line x1="448.75" y1="149.34" x2="448.75" y2="159.94" class="up-wick"/>
<rect x="444.75" y="149.79" width="8.00" height="3.38" class="up-body"/>
<line x1="468.17" y1="142.55" x2="468.17" y2="150.45" class="up-wick"/>
<rect x="464.17" y="143.97" width="8.00" height="5.83" class="up-body"/>
<line x1="487.60" y1="137.74" x2="487.60" y2="144.77" class="up-wick"/>
<rect x="483.60" y="143.15" width="8.00" height="1.00" class="up-body"/>
<line x1="507.02" y1="140.02" x2="507.02" y2="147.77" class="down-wick"/>
<rect x="503.02" y="143.15" width="8.00" height="4.49" class="down-body"/>
<line x1="526.44" y1="137.43" x2="526.44" y2="147.64" class="up-wick"/>
<rect x="522.44" y="137.88" width="8.00" height="9.76" class="up-body"/>
<line x1="545.87" y1="131.56" x2="545.87" y2="141.43" class="up-wick"/>
<rect x="541.87" y="136.20" width="8.00" height="1.68" class="up-body"/>
<line x1="565.29" y1="124.64" x2="565.29" y2="141.03" class="down-wick"/>
<rect x="561.29" y="136.20" width="8.00" height="4.29" class="down-body"/>
<line x1="584.71" y1="129.25" x2="584.71" y2="142.95" class="up-wick"/>
<rect x="580.71" y="129.71" width="8.00" height="10.78" class="up-body"/>
<line x1="604.13" y1="127.11" x2="604.13" y2="132.73" class="up-wick"/>
<rect x="600.13" y="129.57" width="8.00" height="1.00" class="up-body"/>
<line x1="623.56" y1="126.31" x2="623.56" y2="132.62" class="down-wick"/>
<rect x="619.56" y="129.56" width="8.00" height="2.38" class="down-body"/>
<line x1="642.98" y1="129.57" x2="642.98" y2="153.76" class="down-wick"/>
<rect x="638.98" y="131.93" width="8.00" height="16.44" class="down-body"/>
<line x1="662.40" y1="146.85" x2="662.40" y2="164.09" class="down-wick"/>
<rect x="658.40" y="148.38" width="8.00" height="3.33" class="down-body"/>
<line x1="681.83" y1="143.66" x2="681.83" y2="153.51" class="up-wick"/>
<rect x="677.83" y="145.02" width="8.00" height="6.69" class="up-body"/>
<line x1="701.25" y1="141.83" x2="701.25" y2="159.66" class="down-wick"/>
<rect x="697.25" y="145.02" width="8.00" height="12.49" class="down-body"/>
<line x1="720.67" y1="154.34" x2="720.67" y2="184.70" class="down-wick"/>
<rect x="716.67" y="157.51" width="8.00" height="8.11" class="down-body"/>
<line x1="740.10" y1="160.52" x2="740.10" y2="179.90" class="down-wick"/>
<rect x="736.10" y="165.62" width="8.00" height="10.48" class="down-body"/>
<line x1="759.52" y1="169.91" x2="759.52" y2="243.75" class="down-wick"/>
<rect x="755.52" y="176.10" width="8.00" height="40.56" class="down-body"/>
<line x1="778.94" y1="184.51" x2="778.94" y2="219.04" class="up-wick"/>
<rect x="774.94" y="185.41" width="8.00" height="31.25" class="up-body"/>
<line x1="798.37" y1="185.35" x2="798.37" y2="223.37" class="down-wick"/>
<rect x="794.37" y="185.41" width="8.00" height="26.49" class="down-body"/>
<line x1="817.79" y1="204.52" x2="817.79" y2="266.99" class="down-wick"/>
<rect x="813.79" y="211.90" width="8.00" height="46.27" class="down-body"/>
<line x1="837.21" y1="235.25" x2="837.21" y2="274.76" class="up-wick"/>
<rect x="833.21" y="235.82" width="8.00" height="22.34" class="up-body"/>
<line x1="856.63" y1="220.46" x2="856.63" y2="237.75" class="up-wick"/>
<rect x="852.63" y="231.36" width="8.00" height="4.48" class="up-body"/>
<line x1="876.06" y1="230.22" x2="876.06" y2="247.64" class="down-wick"/>
<rect x="872.06" y="231.27" width="8.00" height="10.93" class="down-body"/>
<line x1="895.48" y1="219.13" x2="895.48" y2="242.19" class="up-wick"/>
<rect x="891.48" y="219.98" width="8.00" height="22.21" class="up-body"/>
<line x1="914.90" y1="214.90" x2="914.90" y2="234.31" class="down-wick"/>
<rect x="910.90" y="220.00" width="8.00" height="8.87" class="down-body"/>
<line x1="934.33" y1="222.19" x2="934.33" y2="239.55" class="down-wick"/>
<rect x="930.33" y="228.86" width="8.00" height="6.29" class="down-body"/>
<line x1="953.75" y1="230.04" x2="953.75" y2="240.74" class="down-wick"/>
<rect x="949.75" y="235.08" width="8.00" height="3.70" class="down-body"/>
<line x1="973.17" y1="222.42" x2="973.17" y2="240.18" class="up-wick"/>
<rect x="969.17" y="224.15" width="8.00" height="14.63" class="up-body"/>
<line x1="992.60" y1="218.27" x2="992.60" y2="231.75" class="up-wick"/>
<rect x="988.60" y="218.95" width="8.00" height="5.20" class="up-body"/>
<line x1="1012.02" y1="203.34" x2="1012.02" y2="218.97" class="up-wick"/>
<rect x="1008.02" y="204.71" width="8.00" height="14.23" class="up-body"/>
<line x1="1031.44" y1="198.46" x2="1031.44" y2="213.00" class="down-wick"/>
<rect x="1027.44" y="204.71" width="8.00" height="7.32" class="down-body"/>
<line x1="1050.87" y1="203.76" x2="1050.87" y2="218.04" class="up-wick"/>
<rect x="1046.87" y="204.97" width="8.00" height="7.05" class="up-body"/>
<line x1="1070.29" y1="202.40" x2="1070.29" y2="213.70" class="down-wick"/>
<rect x="1066.29" y="204.94" width="8.00" height="6.87" class="down-body"/>
<line x1="70" y1="128.50" x2="1080" y2="128.50" class="number-line"/>
<text x="1076" y="124.50" text-anchor="end" class="level-label">round 5370.00</text>
<line x1="70" y1="128.50" x2="1080" y2="128.50" class="entry-line"/>
<text x="1076" y="124.50" text-anchor="end" class="level-label">entry level 5370.00</text>
<text x="70" y="306" class="axis-label">2026-03-02 01:00:00+00:00 to 2026-03-04 06:00:00+00:00</text>
<text x="1080" y="306" text-anchor="end" class="axis-label">4962.11 - 5453.12</text>
<text x="70" y="332" class="panel-title">M15 liquidity / reaction context</text>
<rect x="70" y="346" width="1010" height="192" class="plot-bg"/>
<line x1="77.32" y1="432.57" x2="77.32" y2="464.32" class="down-wick"/>
<rect x="73.32" y="434.63" width="8.00" height="9.08" class="down-body"/>
<line x1="91.96" y1="438.49" x2="91.96" y2="456.59" class="down-wick"/>
<rect x="87.96" y="443.72" width="8.00" height="12.12" class="down-body"/>
<line x1="106.59" y1="434.59" x2="106.59" y2="459.29" class="up-wick"/>
<rect x="102.59" y="446.79" width="8.00" height="9.05" class="up-body"/>
<line x1="121.23" y1="432.14" x2="121.23" y2="453.95" class="up-wick"/>
<rect x="117.23" y="440.27" width="8.00" height="6.52" class="up-body"/>
<line x1="135.87" y1="423.08" x2="135.87" y2="441.64" class="down-wick"/>
<rect x="131.87" y="440.10" width="8.00" height="1.00" class="down-body"/>
<line x1="150.51" y1="433.34" x2="150.51" y2="447.42" class="up-wick"/>
<rect x="146.51" y="437.93" width="8.00" height="2.67" class="up-body"/>
<line x1="165.14" y1="436.32" x2="165.14" y2="456.52" class="down-wick"/>
<rect x="161.14" y="437.88" width="8.00" height="12.37" class="down-body"/>
<line x1="179.78" y1="438.86" x2="179.78" y2="451.96" class="up-wick"/>
<rect x="175.78" y="447.71" width="8.00" height="2.54" class="up-body"/>
<line x1="194.42" y1="441.73" x2="194.42" y2="454.96" class="up-wick"/>
<rect x="190.42" y="441.75" width="8.00" height="5.96" class="up-body"/>
<line x1="209.06" y1="427.33" x2="209.06" y2="442.95" class="up-wick"/>
<rect x="205.06" y="428.57" width="8.00" height="13.18" class="up-body"/>
<line x1="223.70" y1="409.43" x2="223.70" y2="430.37" class="up-wick"/>
<rect x="219.70" y="412.43" width="8.00" height="16.14" class="up-body"/>
<line x1="238.33" y1="409.88" x2="238.33" y2="425.08" class="up-wick"/>
<rect x="234.33" y="412.07" width="8.00" height="1.00" class="up-body"/>
<line x1="252.97" y1="408.61" x2="252.97" y2="418.81" class="down-wick"/>
<rect x="248.97" y="412.07" width="8.00" height="6.36" class="down-body"/>
<line x1="267.61" y1="410.56" x2="267.61" y2="420.62" class="up-wick"/>
<rect x="263.61" y="412.51" width="8.00" height="5.92" class="up-body"/>
<line x1="282.25" y1="395.41" x2="282.25" y2="414.73" class="up-wick"/>
<rect x="278.25" y="404.94" width="8.00" height="7.57" class="up-body"/>
<line x1="296.88" y1="395.35" x2="296.88" y2="414.51" class="down-wick"/>
<rect x="292.88" y="404.98" width="8.00" height="4.16" class="down-body"/>
<line x1="311.52" y1="397.03" x2="311.52" y2="410.51" class="up-wick"/>
<rect x="307.52" y="400.06" width="8.00" height="9.07" class="up-body"/>
<line x1="326.16" y1="399.39" x2="326.16" y2="411.54" class="down-wick"/>
<rect x="322.16" y="400.06" width="8.00" height="10.18" class="down-body"/>
<line x1="340.80" y1="402.56" x2="340.80" y2="411.45" class="up-wick"/>
<rect x="336.80" y="407.24" width="8.00" height="3.01" class="up-body"/>
<line x1="355.43" y1="401.64" x2="355.43" y2="411.67" class="down-wick"/>
<rect x="351.43" y="407.24" width="8.00" height="3.19" class="down-body"/>
<line x1="370.07" y1="410.18" x2="370.07" y2="417.61" class="down-wick"/>
<rect x="366.07" y="410.51" width="8.00" height="1.29" class="down-body"/>
<line x1="384.71" y1="411.96" x2="384.71" y2="423.00" class="down-wick"/>
<rect x="380.71" y="411.96" width="8.00" height="10.67" class="down-body"/>
<line x1="399.35" y1="394.49" x2="399.35" y2="422.63" class="up-wick"/>
<rect x="395.35" y="403.59" width="8.00" height="19.04" class="up-body"/>
<line x1="413.99" y1="400.21" x2="413.99" y2="413.66" class="down-wick"/>
<rect x="409.99" y="403.59" width="8.00" height="2.12" class="down-body"/>
<line x1="428.62" y1="405.55" x2="428.62" y2="412.42" class="down-wick"/>
<rect x="424.62" y="405.71" width="8.00" height="6.30" class="down-body"/>
<line x1="443.26" y1="394.95" x2="443.26" y2="412.69" class="up-wick"/>
<rect x="439.26" y="395.73" width="8.00" height="16.27" class="up-body"/>
<line x1="457.90" y1="391.73" x2="457.90" y2="405.51" class="up-wick"/>
<rect x="453.90" y="393.03" width="8.00" height="2.70" class="up-body"/>
<line x1="472.54" y1="381.61" x2="472.54" y2="393.35" class="up-wick"/>
<rect x="468.54" y="382.84" width="8.00" height="10.18" class="up-body"/>
<line x1="487.17" y1="378.31" x2="487.17" y2="393.21" class="down-wick"/>
<rect x="483.17" y="382.84" width="8.00" height="3.17" class="down-body"/>
<line x1="501.81" y1="381.30" x2="501.81" y2="395.11" class="down-wick"/>
<rect x="497.81" y="386.00" width="8.00" height="5.10" class="down-body"/>
<line x1="516.45" y1="367.59" x2="516.45" y2="394.43" class="up-wick"/>
<rect x="512.45" y="371.74" width="8.00" height="19.35" class="up-body"/>
<line x1="531.09" y1="359.24" x2="531.09" y2="374.35" class="up-wick"/>
<rect x="527.09" y="362.02" width="8.00" height="9.72" class="up-body"/>
<line x1="545.72" y1="360.47" x2="545.72" y2="376.17" class="down-wick"/>
<rect x="541.72" y="362.01" width="8.00" height="14.16" class="down-body"/>
<line x1="560.36" y1="374.81" x2="560.36" y2="404.41" class="down-wick"/>
<rect x="556.36" y="377.23" width="8.00" height="25.69" class="down-body"/>
<line x1="575.00" y1="383.69" x2="575.00" y2="409.70" class="up-wick"/>
<rect x="571.00" y="391.43" width="8.00" height="11.49" class="up-body"/>
<line x1="589.64" y1="381.13" x2="589.64" y2="397.57" class="up-wick"/>
<rect x="585.64" y="381.73" width="8.00" height="9.69" class="up-body"/>
<line x1="604.28" y1="374.90" x2="604.28" y2="385.42" class="up-wick"/>
<rect x="600.28" y="379.62" width="8.00" height="2.09" class="up-body"/>
<line x1="618.91" y1="371.95" x2="618.91" y2="381.72" class="up-wick"/>
<rect x="614.91" y="373.22" width="8.00" height="6.40" class="up-body"/>
<line x1="633.55" y1="368.16" x2="633.55" y2="375.23" class="down-wick"/>
<rect x="629.55" y="373.22" width="8.00" height="1.00" class="down-body"/>
<line x1="648.19" y1="366.04" x2="648.19" y2="376.06" class="up-wick"/>
<rect x="644.19" y="372.69" width="8.00" height="1.00" class="up-body"/>
<line x1="662.83" y1="369.09" x2="662.83" y2="374.75" class="up-wick"/>
<rect x="658.83" y="370.79" width="8.00" height="1.88" class="up-body"/>
<line x1="677.46" y1="370.01" x2="677.46" y2="381.55" class="down-wick"/>
<rect x="673.46" y="370.79" width="8.00" height="2.03" class="down-body"/>
<line x1="692.10" y1="372.17" x2="692.10" y2="381.23" class="down-wick"/>
<rect x="688.10" y="372.80" width="8.00" height="6.00" class="down-body"/>
<line x1="706.74" y1="363.85" x2="706.74" y2="380.86" class="up-wick"/>
<rect x="702.74" y="367.79" width="8.00" height="11.01" class="up-body"/>
<line x1="721.38" y1="364.00" x2="721.38" y2="372.77" class="down-wick"/>
<rect x="717.38" y="367.79" width="8.00" height="2.49" class="down-body"/>
<line x1="736.01" y1="369.67" x2="736.01" y2="379.57" class="down-wick"/>
<rect x="732.01" y="370.29" width="8.00" height="9.06" class="down-body"/>
<line x1="750.65" y1="372.82" x2="750.65" y2="385.98" class="up-wick"/>
<rect x="746.65" y="378.20" width="8.00" height="1.14" class="up-body"/>
<line x1="765.29" y1="376.09" x2="765.29" y2="388.26" class="down-wick"/>
<rect x="761.29" y="378.20" width="8.00" height="3.70" class="down-body"/>
<line x1="779.93" y1="381.14" x2="779.93" y2="408.22" class="down-wick"/>
<rect x="775.93" y="381.89" width="8.00" height="14.48" class="down-body"/>
<line x1="794.57" y1="394.83" x2="794.57" y2="439.49" class="down-wick"/>
<rect x="790.57" y="396.38" width="8.00" height="28.27" class="down-body"/>
<line x1="809.20" y1="420.44" x2="809.20" y2="467.97" class="down-wick"/>
<rect x="805.20" y="424.67" width="8.00" height="31.56" class="down-body"/>
<line x1="823.84" y1="424.19" x2="823.84" y2="458.03" class="up-wick"/>
<rect x="819.84" y="427.20" width="8.00" height="29.03" class="up-body"/>
<line x1="838.48" y1="424.52" x2="838.48" y2="449.81" class="down-wick"/>
<rect x="834.48" y="427.27" width="8.00" height="6.84" class="down-body"/>
<line x1="853.12" y1="428.72" x2="853.12" y2="455.14" class="up-wick"/>
<rect x="849.12" y="433.85" width="8.00" height="1.00" class="up-body"/>
<line x1="867.75" y1="425.33" x2="867.75" y2="438.80" class="up-wick"/>
<rect x="863.75" y="429.21" width="8.00" height="4.62" class="up-body"/>
<line x1="882.39" y1="423.62" x2="882.39" y2="434.22" class="down-wick"/>
<rect x="878.39" y="429.24" width="8.00" height="1.53" class="down-body"/>
<line x1="897.03" y1="414.64" x2="897.03" y2="430.77" class="up-wick"/>
<rect x="893.03" y="416.69" width="8.00" height="14.07" class="up-body"/>
<line x1="911.67" y1="411.67" x2="911.67" y2="419.84" class="up-wick"/>
<rect x="907.67" y="415.40" width="8.00" height="1.29" class="up-body"/>
<line x1="926.30" y1="406.60" x2="926.30" y2="423.85" class="down-wick"/>
<rect x="922.30" y="415.40" width="8.00" height="8.45" class="down-body"/>
<line x1="940.94" y1="414.42" x2="940.94" y2="433.50" class="down-wick"/>
<rect x="936.94" y="423.80" width="8.00" height="8.36" class="down-body"/>
<line x1="955.58" y1="430.80" x2="955.58" y2="449.64" class="down-wick"/>
<rect x="951.58" y="432.03" width="8.00" height="7.71" class="down-body"/>
<line x1="970.22" y1="432.96" x2="970.22" y2="455.75" class="down-wick"/>
<rect x="966.22" y="439.73" width="8.00" height="10.10" class="down-body"/>
<line x1="984.86" y1="441.10" x2="984.86" y2="462.04" class="up-wick"/>
<rect x="980.86" y="449.30" width="8.00" height="1.00" class="up-body"/>
<line x1="999.49" y1="442.47" x2="999.49" y2="524.76" class="down-wick"/>
<rect x="995.49" y="449.30" width="8.00" height="58.27" class="down-body"/>
<line x1="1014.13" y1="476.64" x2="1014.13" y2="509.31" class="up-wick"/>
<rect x="1010.13" y="484.13" width="8.00" height="23.33" class="up-body"/>
<line x1="1028.77" y1="465.84" x2="1028.77" y2="488.60" class="up-wick"/>
<rect x="1024.77" y="472.18" width="8.00" height="11.91" class="up-body"/>
<line x1="1043.41" y1="458.12" x2="1043.41" y2="478.72" class="down-wick"/>
<rect x="1039.41" y="472.18" width="8.00" height="2.13" class="down-body"/>
<line x1="1058.04" y1="465.46" x2="1058.04" y2="482.23" class="up-wick"/>
<rect x="1054.04" y="470.30" width="8.00" height="4.01" class="up-body"/>
<line x1="1072.68" y1="470.16" x2="1072.68" y2="501.59" class="down-wick"/>
<rect x="1068.68" y="470.30" width="8.00" height="17.22" class="down-body"/>
<line x1="70" y1="369.89" x2="1080" y2="369.89" class="number-line"/>
<text x="1076" y="365.89" text-anchor="end" class="level-label">round 5370.00</text>
<line x1="70" y1="369.89" x2="1080" y2="369.89" class="entry-line"/>
<text x="1076" y="365.89" text-anchor="end" class="level-label">entry level 5370.00</text>
<text x="70" y="556" class="axis-label">2026-03-02 18:30:00+00:00 to 2026-03-03 12:30:00+00:00</text>
<text x="1080" y="556" text-anchor="end" class="axis-label">5214.00 - 5392.17</text>
<text x="70" y="582" class="panel-title">M5 reaction / execution context</text>
<rect x="70" y="596" width="1010" height="192" class="plot-bg"/>
<line x1="79.18" y1="616.09" x2="79.18" y2="624.75" class="up-wick"/>
<rect x="75.18" y="620.36" width="8.00" height="3.77" class="up-body"/>
<line x1="97.55" y1="616.63" x2="97.55" y2="622.84" class="up-wick"/>
<rect x="93.55" y="618.08" width="8.00" height="2.26" class="up-body"/>
<line x1="115.91" y1="616.54" x2="115.91" y2="627.33" class="down-wick"/>
<rect x="111.91" y="618.17" width="8.00" height="6.17" class="down-body"/>
<line x1="134.27" y1="619.64" x2="134.27" y2="628.65" class="up-wick"/>
<rect x="130.27" y="623.58" width="8.00" height="1.00" class="up-body"/>
<line x1="152.64" y1="612.72" x2="152.64" y2="625.48" class="up-wick"/>
<rect x="148.64" y="616.40" width="8.00" height="7.14" class="up-body"/>
<line x1="171.00" y1="616.08" x2="171.00" y2="625.45" class="down-wick"/>
<rect x="167.00" y="616.40" width="8.00" height="6.89" class="down-body"/>
<line x1="189.36" y1="619.44" x2="189.36" y2="625.65" class="up-wick"/>
<rect x="185.36" y="620.72" width="8.00" height="2.54" class="up-body"/>
<line x1="207.73" y1="620.50" x2="207.73" y2="625.86" class="down-wick"/>
<rect x="203.73" y="620.72" width="8.00" height="3.82" class="down-body"/>
<line x1="226.09" y1="617.57" x2="226.09" y2="626.56" class="up-wick"/>
<rect x="222.09" y="620.27" width="8.00" height="4.25" class="up-body"/>
<line x1="244.45" y1="619.02" x2="244.45" y2="628.28" class="down-wick"/>
<rect x="240.45" y="620.27" width="8.00" height="3.58" class="down-body"/>
<line x1="262.82" y1="622.83" x2="262.82" y2="637.37" class="down-wick"/>
<rect x="258.82" y="623.82" width="8.00" height="7.66" class="down-body"/>
<line x1="281.18" y1="623.12" x2="281.18" y2="632.76" class="up-wick"/>
<rect x="277.18" y="623.50" width="8.00" height="7.98" class="up-body"/>
<line x1="299.55" y1="622.47" x2="299.55" y2="632.75" class="down-wick"/>
<rect x="295.55" y="623.46" width="8.00" height="4.27" class="down-body"/>
<line x1="317.91" y1="624.34" x2="317.91" y2="631.79" class="up-wick"/>
<rect x="313.91" y="627.44" width="8.00" height="1.00" class="up-body"/>
<line x1="336.27" y1="627.44" x2="336.27" y2="636.86" class="down-wick"/>
<rect x="332.27" y="627.44" width="8.00" height="5.57" class="down-body"/>
<line x1="354.64" y1="623.67" x2="354.64" y2="636.28" class="up-wick"/>
<rect x="350.64" y="623.68" width="8.00" height="9.32" class="up-body"/>
<line x1="373.00" y1="615.08" x2="373.00" y2="623.70" class="up-wick"/>
<rect x="369.00" y="619.33" width="8.00" height="4.35" class="up-body"/>
<line x1="391.36" y1="609.24" x2="391.36" y2="619.32" class="up-wick"/>
<rect x="387.36" y="615.49" width="8.00" height="3.80" class="up-body"/>
<line x1="409.73" y1="609.48" x2="409.73" y2="616.47" class="down-wick"/>
<rect x="405.73" y="615.49" width="8.00" height="1.00" class="down-body"/>
<line x1="428.09" y1="614.74" x2="428.09" y2="623.41" class="down-wick"/>
<rect x="424.09" y="615.79" width="8.00" height="4.87" class="down-body"/>
<line x1="446.45" y1="614.96" x2="446.45" y2="621.37" class="up-wick"/>
<rect x="442.45" y="619.45" width="8.00" height="1.13" class="up-body"/>
<line x1="464.82" y1="618.49" x2="464.82" y2="629.89" class="down-wick"/>
<rect x="460.82" y="619.47" width="8.00" height="9.75" class="down-body"/>
<line x1="483.18" y1="623.60" x2="483.18" y2="632.15" class="up-wick"/>
<rect x="479.18" y="628.21" width="8.00" height="1.01" class="up-body"/>
<line x1="501.55" y1="622.74" x2="501.55" y2="634.22" class="down-wick"/>
<rect x="497.55" y="628.12" width="8.00" height="5.76" class="down-body"/>
<line x1="519.91" y1="625.19" x2="519.91" y2="644.41" class="up-wick"/>
<rect x="515.91" y="632.25" width="8.00" height="1.61" class="up-body"/>
<line x1="538.27" y1="625.81" x2="538.27" y2="637.44" class="up-wick"/>
<rect x="534.27" y="625.81" width="8.00" height="6.44" class="up-body"/>
<line x1="556.64" y1="623.50" x2="556.64" y2="633.95" class="down-wick"/>
<rect x="552.64" y="625.81" width="8.00" height="6.24" class="down-body"/>
<line x1="575.00" y1="628.69" x2="575.00" y2="648.05" class="down-wick"/>
<rect x="571.00" y="632.04" width="8.00" height="5.48" class="down-body"/>
<line x1="593.36" y1="635.25" x2="593.36" y2="642.75" class="down-wick"/>
<rect x="589.36" y="637.53" width="8.00" height="1.00" class="down-body"/>
<line x1="611.73" y1="632.76" x2="611.73" y2="639.74" class="down-wick"/>
<rect x="607.73" y="637.89" width="8.00" height="1.00" class="down-body"/>
<line x1="630.09" y1="636.72" x2="630.09" y2="665.52" class="down-wick"/>
<rect x="626.09" y="637.92" width="8.00" height="17.73" class="down-body"/>
<line x1="648.45" y1="655.65" x2="648.45" y2="679.78" class="down-wick"/>
<rect x="644.45" y="655.65" width="8.00" height="18.66" class="down-body"/>
<line x1="666.82" y1="659.06" x2="666.82" y2="679.64" class="up-wick"/>
<rect x="662.82" y="660.95" width="8.00" height="13.36" class="up-body"/>
<line x1="685.18" y1="658.48" x2="685.18" y2="701.11" class="down-wick"/>
<rect x="681.18" y="660.95" width="8.00" height="32.74" class="down-body"/>
<line x1="703.55" y1="688.36" x2="703.55" y2="724.71" class="down-wick"/>
<rect x="699.55" y="692.80" width="8.00" height="16.69" class="down-body"/>
<line x1="721.91" y1="704.04" x2="721.91" y2="729.49" class="up-wick"/>
<rect x="717.91" y="705.89" width="8.00" height="3.60" class="up-body"/>
<line x1="740.27" y1="699.20" x2="740.27" y2="714.69" class="down-wick"/>
<rect x="736.27" y="705.92" width="8.00" height="4.71" class="down-body"/>
<line x1="758.64" y1="700.08" x2="758.64" y2="733.04" class="down-wick"/>
<rect x="754.64" y="710.63" width="8.00" height="12.06" class="down-body"/>
<line x1="777.00" y1="714.04" x2="777.00" y2="774.76" class="down-wick"/>
<rect x="773.00" y="722.69" width="8.00" height="33.41" class="down-body"/>
<line x1="795.36" y1="729.60" x2="795.36" y2="758.96" class="up-wick"/>
<rect x="791.36" y="733.66" width="8.00" height="22.44" class="up-body"/>
<line x1="813.73" y1="712.48" x2="813.73" y2="733.76" class="up-wick"/>
<rect x="809.73" y="724.56" width="8.00" height="9.13" class="up-body"/>
<line x1="832.09" y1="705.17" x2="832.09" y2="726.91" class="up-wick"/>
<rect x="828.09" y="709.95" width="8.00" height="14.61" class="up-body"/>
<line x1="850.45" y1="705.68" x2="850.45" y2="716.47" class="down-wick"/>
<rect x="846.45" y="710.07" width="8.00" height="4.61" class="down-body"/>
<line x1="868.82" y1="711.66" x2="868.82" y2="745.89" class="down-wick"/>
<rect x="864.82" y="714.64" width="8.00" height="11.89" class="down-body"/>
<line x1="887.18" y1="712.64" x2="887.18" y2="726.53" class="up-wick"/>
<rect x="883.18" y="720.95" width="8.00" height="5.59" class="up-body"/>
<line x1="905.55" y1="712.36" x2="905.55" y2="733.11" class="down-wick"/>
<rect x="901.55" y="720.95" width="8.00" height="10.64" class="down-body"/>
<line x1="923.91" y1="726.87" x2="923.91" y2="754.37" class="down-wick"/>
<rect x="919.91" y="731.55" width="8.00" height="2.16" class="down-body"/>
<line x1="942.27" y1="716.99" x2="942.27" y2="735.54" class="up-wick"/>
<rect x="938.27" y="720.52" width="8.00" height="13.38" class="up-body"/>
<line x1="960.64" y1="711.56" x2="960.64" y2="728.40" class="up-wick"/>
<rect x="956.64" y="714.54" width="8.00" height="5.96" class="up-body"/>
<line x1="979.00" y1="706.98" x2="979.00" y2="716.66" class="down-wick"/>
<rect x="975.00" y="714.55" width="8.00" height="1.00" class="down-body"/>
<line x1="997.36" y1="711.66" x2="997.36" y2="722.74" class="up-wick"/>
<rect x="993.36" y="713.15" width="8.00" height="2.35" class="up-body"/>
<line x1="1015.73" y1="704.26" x2="1015.73" y2="721.12" class="up-wick"/>
<rect x="1011.73" y="709.38" width="8.00" height="3.80" class="up-body"/>
<line x1="1034.09" y1="707.82" x2="1034.09" y2="719.30" class="down-wick"/>
<rect x="1030.09" y="709.38" width="8.00" height="7.47" class="down-body"/>
<line x1="1052.45" y1="706.62" x2="1052.45" y2="719.15" class="up-wick"/>
<rect x="1048.45" y="715.62" width="8.00" height="1.25" class="up-body"/>
<line x1="1070.82" y1="703.25" x2="1070.82" y2="715.62" class="up-wick"/>
<rect x="1066.82" y="703.33" width="8.00" height="12.28" class="up-body"/>
<line x1="70" y1="618.84" x2="1080" y2="618.84" class="number-line"/>
<text x="1076" y="614.84" text-anchor="end" class="level-label">round 5370.00</text>
<line x1="70" y1="618.84" x2="1080" y2="618.84" class="entry-line"/>
<text x="1076" y="614.84" text-anchor="end" class="level-label">entry level 5370.00</text>
<text x="70" y="806" class="axis-label">2026-03-03 05:00:00+00:00 to 2026-03-03 09:30:00+00:00</text>
<text x="1080" y="806" text-anchor="end" class="axis-label">5271.26 - 5383.33</text>
<text x="70" y="832" class="panel-title">M1 execution window</text>
<rect x="70" y="846" width="1010" height="192" class="plot-bg"/>
<line x1="73.71" y1="867.36" x2="73.71" y2="874.53" class="up-wick"/>
<rect x="71.30" y="869.19" width="4.83" height="4.72" class="up-body"/>
<line x1="81.14" y1="866.04" x2="81.14" y2="869.16" class="up-wick"/>
<rect x="78.73" y="866.53" width="4.83" height="1.08" class="up-body"/>
<line x1="88.57" y1="866.05" x2="88.57" y2="871.35" class="down-wick"/>
<rect x="86.15" y="866.10" width="4.83" height="4.03" class="down-body"/>
<line x1="95.99" y1="869.42" x2="95.99" y2="872.62" class="up-wick"/>
<rect x="93.58" y="870.46" width="4.83" height="1.00" class="up-body"/>
<line x1="103.42" y1="868.85" x2="103.42" y2="871.90" class="up-wick"/>
<rect x="101.01" y="869.04" width="4.83" height="1.03" class="up-body"/>
<line x1="110.85" y1="866.31" x2="110.85" y2="875.95" class="down-wick"/>
<rect x="108.43" y="867.94" width="4.83" height="7.43" class="down-body"/>
<line x1="118.27" y1="872.98" x2="118.27" y2="877.12" class="down-wick"/>
<rect x="115.86" y="872.98" width="4.83" height="2.11" class="down-body"/>
<line x1="125.70" y1="871.63" x2="125.70" y2="876.79" class="up-wick"/>
<rect x="123.28" y="874.12" width="4.83" height="1.00" class="up-body"/>
<line x1="133.12" y1="869.42" x2="133.12" y2="875.59" class="down-wick"/>
<rect x="130.71" y="869.42" width="4.83" height="6.18" class="down-body"/>
<line x1="140.55" y1="872.33" x2="140.55" y2="876.09" class="up-wick"/>
<rect x="138.14" y="872.95" width="4.83" height="1.18" class="up-body"/>
<line x1="147.98" y1="870.67" x2="147.98" y2="874.07" class="up-wick"/>
<rect x="145.56" y="872.92" width="4.83" height="1.00" class="up-body"/>
<line x1="155.40" y1="868.23" x2="155.40" y2="875.27" class="up-wick"/>
<rect x="152.99" y="868.54" width="4.83" height="5.42" class="up-body"/>
<line x1="162.83" y1="862.48" x2="162.83" y2="867.46" class="up-wick"/>
<rect x="160.42" y="866.17" width="4.83" height="1.00" class="up-body"/>
<line x1="170.26" y1="867.53" x2="170.26" y2="870.79" class="down-wick"/>
<rect x="167.84" y="867.53" width="4.83" height="3.21" class="down-body"/>
<line x1="177.68" y1="869.71" x2="177.68" y2="872.68" class="down-wick"/>
<rect x="175.27" y="869.71" width="4.83" height="2.13" class="down-body"/>
<line x1="185.11" y1="873.00" x2="185.11" y2="875.44" class="down-wick"/>
<rect x="182.70" y="873.04" width="4.83" height="1.00" class="down-body"/>
<line x1="192.54" y1="869.76" x2="192.54" y2="873.12" class="up-wick"/>
<rect x="190.12" y="870.53" width="4.83" height="2.21" class="up-body"/>
<line x1="199.96" y1="869.35" x2="199.96" y2="870.93" class="down-wick"/>
<rect x="197.55" y="870.38" width="4.83" height="1.00" class="down-body"/>
<line x1="207.39" y1="871.66" x2="207.39" y2="875.20" class="down-wick"/>
<rect x="204.98" y="871.97" width="4.83" height="1.48" class="down-body"/>
<line x1="214.82" y1="872.92" x2="214.82" y2="874.60" class="down-wick"/>
<rect x="212.40" y="873.19" width="4.83" height="1.00" class="down-body"/>
<line x1="222.24" y1="873.72" x2="222.24" y2="876.35" class="down-wick"/>
<rect x="219.83" y="874.31" width="4.83" height="1.00" class="down-body"/>
<line x1="229.67" y1="870.12" x2="229.67" y2="873.55" class="up-wick"/>
<rect x="227.26" y="871.27" width="4.83" height="2.28" class="up-body"/>
<line x1="237.10" y1="867.34" x2="237.10" y2="875.25" class="up-wick"/>
<rect x="234.68" y="870.05" width="4.83" height="4.86" class="up-body"/>
<line x1="244.52" y1="872.57" x2="244.52" y2="876.83" class="up-wick"/>
<rect x="242.11" y="872.80" width="4.83" height="1.63" class="up-body"/>
<line x1="251.95" y1="874.72" x2="251.95" y2="877.12" class="down-wick"/>
<rect x="249.53" y="875.68" width="4.83" height="1.00" class="down-body"/>
<line x1="259.38" y1="872.61" x2="259.38" y2="874.32" class="down-wick"/>
<rect x="256.96" y="873.60" width="4.83" height="1.00" class="down-body"/>
<line x1="266.80" y1="878.37" x2="266.80" y2="886.62" class="down-wick"/>
<rect x="264.39" y="878.39" width="4.83" height="7.03" class="down-body"/>
<line x1="274.23" y1="877.72" x2="274.23" y2="882.03" class="down-wick"/>
<rect x="271.81" y="879.11" width="4.83" height="2.16" class="down-body"/>
<line x1="281.65" y1="877.72" x2="281.65" y2="879.76" class="down-wick"/>
<rect x="279.24" y="878.10" width="4.83" height="1.00" class="down-body"/>
<line x1="289.08" y1="874.05" x2="289.08" y2="878.90" class="up-wick"/>
<rect x="286.67" y="874.53" width="4.83" height="3.96" class="up-body"/>
<line x1="296.51" y1="872.25" x2="296.51" y2="878.41" class="down-wick"/>
<rect x="294.09" y="873.24" width="4.83" height="2.13" class="down-body"/>
<line x1="303.93" y1="874.89" x2="303.93" y2="877.14" class="down-wick"/>
<rect x="301.52" y="876.86" width="4.83" height="1.00" class="down-body"/>
<line x1="311.36" y1="874.73" x2="311.36" y2="878.44" class="up-wick"/>
<rect x="308.95" y="877.51" width="4.83" height="1.00" class="up-body"/>
<line x1="318.79" y1="877.10" x2="318.79" y2="880.24" class="down-wick"/>
<rect x="316.37" y="877.45" width="4.83" height="2.75" class="down-body"/>
<line x1="326.21" y1="877.75" x2="326.21" y2="879.26" class="up-wick"/>
<rect x="323.80" y="878.18" width="4.83" height="1.00" class="up-body"/>
<line x1="333.64" y1="877.22" x2="333.64" y2="880.93" class="down-wick"/>
<rect x="331.23" y="877.22" width="4.83" height="2.01" class="down-body"/>
<line x1="341.07" y1="883.23" x2="341.07" y2="886.66" class="up-wick"/>
<rect x="338.65" y="883.98" width="4.83" height="1.82" class="up-body"/>
<line x1="348.49" y1="880.45" x2="348.49" y2="882.87" class="down-wick"/>
<rect x="346.08" y="881.96" width="4.83" height="1.00" class="down-body"/>
<line x1="355.92" y1="876.19" x2="355.92" y2="881.48" class="down-wick"/>
<rect x="353.51" y="876.93" width="4.83" height="4.55" class="down-body"/>
<line x1="363.35" y1="874.70" x2="363.35" y2="877.67" class="up-wick"/>
<rect x="360.93" y="874.73" width="4.83" height="1.99" class="up-body"/>
<line x1="370.77" y1="868.39" x2="370.77" y2="873.48" class="up-wick"/>
<rect x="368.36" y="869.95" width="4.83" height="3.52" class="up-body"/>
<line x1="378.20" y1="864.85" x2="378.20" y2="870.10" class="down-wick"/>
<rect x="375.78" y="867.20" width="4.83" height="1.72" class="down-body"/>
<line x1="385.62" y1="867.41" x2="385.62" y2="872.21" class="up-wick"/>
<rect x="383.21" y="869.11" width="4.83" height="1.94" class="up-body"/>
<line x1="393.05" y1="861.90" x2="393.05" y2="865.40" class="up-wick"/>
<rect x="390.64" y="863.38" width="4.83" height="2.01" class="up-body"/>
<line x1="400.48" y1="861.95" x2="400.48" y2="866.05" class="down-wick"/>
<rect x="398.06" y="861.95" width="4.83" height="2.52" class="down-body"/>
<line x1="407.90" y1="861.16" x2="407.90" y2="865.38" class="up-wick"/>
<rect x="405.49" y="861.45" width="4.83" height="3.81" class="up-body"/>
<line x1="415.33" y1="859.24" x2="415.33" y2="865.07" class="down-wick"/>
<rect x="412.92" y="861.03" width="4.83" height="3.84" class="down-body"/>
<line x1="422.76" y1="863.62" x2="422.76" y2="865.92" class="down-wick"/>
<rect x="420.34" y="863.62" width="4.83" height="1.94" class="down-body"/>
<line x1="430.18" y1="865.47" x2="430.18" y2="868.39" class="down-wick"/>
<rect x="427.77" y="865.59" width="4.83" height="1.00" class="down-body"/>
<line x1="437.61" y1="868.39" x2="437.61" y2="872.86" class="up-wick"/>
<rect x="435.20" y="871.46" width="4.83" height="1.00" class="up-body"/>
<line x1="445.04" y1="869.36" x2="445.04" y2="871.15" class="up-wick"/>
<rect x="442.62" y="870.02" width="4.83" height="1.00" class="up-body"/>
<line x1="452.46" y1="866.17" x2="452.46" y2="868.23" class="up-wick"/>
<rect x="450.05" y="866.65" width="4.83" height="1.00" class="up-body"/>
<line x1="459.89" y1="868.37" x2="459.89" y2="869.62" class="down-wick"/>
<rect x="457.48" y="868.66" width="4.83" height="1.00" class="down-body"/>
<line x1="467.32" y1="872.98" x2="467.32" y2="875.51" class="down-wick"/>
<rect x="464.90" y="873.81" width="4.83" height="1.00" class="down-body"/>
<line x1="474.74" y1="873.53" x2="474.74" y2="876.00" class="down-wick"/>
<rect x="472.33" y="873.93" width="4.83" height="1.63" class="down-body"/>
<line x1="482.17" y1="877.39" x2="482.17" y2="879.71" class="down-wick"/>
<rect x="479.76" y="879.01" width="4.83" height="1.00" class="down-body"/>
<line x1="489.60" y1="875.51" x2="489.60" y2="881.15" class="up-wick"/>
<rect x="487.18" y="878.85" width="4.83" height="1.80" class="up-body"/>
<line x1="497.02" y1="874.17" x2="497.02" y2="881.94" class="up-wick"/>
<rect x="494.61" y="877.99" width="4.83" height="1.60" class="up-body"/>
<line x1="504.45" y1="874.85" x2="504.45" y2="879.44" class="down-wick"/>
<rect x="502.03" y="877.12" width="4.83" height="1.00" class="down-body"/>
<line x1="511.88" y1="874.84" x2="511.88" y2="879.83" class="down-wick"/>
<rect x="509.46" y="876.83" width="4.83" height="2.11" class="down-body"/>
<line x1="519.30" y1="880.31" x2="519.30" y2="894.23" class="down-wick"/>
<rect x="516.89" y="883.66" width="4.83" height="3.74" class="down-body"/>
<line x1="526.73" y1="874.97" x2="526.73" y2="882.70" class="up-wick"/>
<rect x="524.31" y="878.96" width="4.83" height="3.74" class="up-body"/>
<line x1="534.15" y1="880.24" x2="534.15" y2="882.94" class="up-wick"/>
<rect x="531.74" y="882.04" width="4.83" height="1.00" class="up-body"/>
<line x1="541.58" y1="882.95" x2="541.58" y2="887.24" class="down-wick"/>
<rect x="539.17" y="885.18" width="4.83" height="1.00" class="down-body"/>
<line x1="549.01" y1="877.36" x2="549.01" y2="884.00" class="up-wick"/>
<rect x="546.59" y="878.25" width="4.83" height="5.47" class="up-body"/>
<line x1="556.43" y1="873.28" x2="556.43" y2="877.27" class="up-wick"/>
<rect x="554.02" y="874.48" width="4.83" height="1.12" class="up-body"/>
<line x1="563.86" y1="874.27" x2="563.86" y2="877.70" class="down-wick"/>
<rect x="561.45" y="875.58" width="4.83" height="1.06" class="down-body"/>
<line x1="571.29" y1="877.58" x2="571.29" y2="883.74" class="down-wick"/>
<rect x="568.87" y="877.75" width="4.83" height="4.08" class="down-body"/>
<line x1="578.71" y1="890.04" x2="578.71" y2="896.30" class="down-wick"/>
<rect x="576.30" y="894.11" width="4.83" height="1.92" class="down-body"/>
<line x1="586.14" y1="888.63" x2="586.14" y2="897.86" class="up-wick"/>
<rect x="583.73" y="889.18" width="4.83" height="6.13" class="up-body"/>
<line x1="593.57" y1="886.57" x2="593.57" y2="892.56" class="down-wick"/>
<rect x="591.15" y="887.33" width="4.83" height="2.95" class="down-body"/>
<line x1="600.99" y1="885.20" x2="600.99" y2="889.75" class="down-wick"/>
<rect x="598.58" y="888.10" width="4.83" height="1.51" class="down-body"/>
<line x1="608.42" y1="885.05" x2="608.42" y2="891.48" class="up-wick"/>
<rect x="606.01" y="887.72" width="4.83" height="2.26" class="up-body"/>
<line x1="615.85" y1="883.67" x2="615.85" y2="885.44" class="down-wick"/>
<rect x="613.43" y="884.72" width="4.83" height="1.00" class="down-body"/>
<line x1="623.27" y1="883.83" x2="623.27" y2="889.54" class="down-wick"/>
<rect x="620.86" y="884.98" width="4.83" height="4.26" class="down-body"/>
<line x1="630.70" y1="886.52" x2="630.70" y2="899.25" class="down-wick"/>
<rect x="628.28" y="887.72" width="4.83" height="7.79" class="down-body"/>
<line x1="638.12" y1="902.07" x2="638.12" y2="909.19" class="down-wick"/>
<rect x="635.71" y="903.64" width="4.83" height="4.39" class="down-body"/>
<line x1="645.55" y1="903.58" x2="645.55" y2="915.36" class="up-wick"/>
<rect x="643.14" y="905.48" width="4.83" height="7.41" class="up-body"/>
<line x1="652.98" y1="907.14" x2="652.98" y2="915.69" class="down-wick"/>
<rect x="650.56" y="907.45" width="4.83" height="6.01" class="down-body"/>
<line x1="660.40" y1="914.78" x2="660.40" y2="929.64" class="down-wick"/>
<rect x="657.99" y="916.17" width="4.83" height="9.45" class="down-body"/>
<line x1="667.83" y1="914.71" x2="667.83" y2="929.50" class="up-wick"/>
<rect x="665.42" y="914.87" width="4.83" height="9.30" class="up-body"/>
<line x1="675.26" y1="911.06" x2="675.26" y2="917.20" class="down-wick"/>
<rect x="672.84" y="911.93" width="4.83" height="4.38" class="down-body"/>
<line x1="682.68" y1="908.89" x2="682.68" y2="913.66" class="up-wick"/>
<rect x="680.27" y="910.78" width="4.83" height="1.34" class="up-body"/>
<line x1="690.11" y1="908.31" x2="690.11" y2="914.78" class="down-wick"/>
<rect x="687.70" y="909.12" width="4.83" height="5.39" class="down-body"/>
<line x1="697.54" y1="923.31" x2="697.54" y2="943.57" class="down-wick"/>
<rect x="695.12" y="927.61" width="4.83" height="12.59" class="down-body"/>
<line x1="704.96" y1="938.23" x2="704.96" y2="944.03" class="up-wick"/>
<rect x="702.55" y="939.78" width="4.83" height="2.90" class="up-body"/>
<line x1="712.39" y1="947.55" x2="712.39" y2="953.35" class="down-wick"/>
<rect x="709.98" y="950.35" width="4.83" height="1.00" class="down-body"/>
<line x1="719.82" y1="953.21" x2="719.82" y2="974.64" class="down-wick"/>
<rect x="717.40" y="953.35" width="4.83" height="6.04" class="down-body"/>
<line x1="727.24" y1="966.94" x2="727.24" y2="979.43" class="up-wick"/>
<rect x="724.83" y="967.52" width="4.83" height="5.16" class="up-body"/>
<line x1="734.67" y1="955.85" x2="734.67" y2="964.50" class="up-wick"/>
<rect x="732.26" y="956.63" width="4.83" height="3.64" class="up-body"/>
<line x1="742.10" y1="950.64" x2="742.10" y2="958.57" class="up-wick"/>
<rect x="739.68" y="951.65" width="4.83" height="4.17" class="up-body"/>
<line x1="749.52" y1="949.09" x2="749.52" y2="952.75" class="up-wick"/>
<rect x="747.11" y="950.23" width="4.83" height="1.00" class="up-body"/>
<line x1="756.95" y1="955.34" x2="756.95" y2="964.60" class="down-wick"/>
<rect x="754.53" y="959.68" width="4.83" height="1.00" class="down-body"/>
<line x1="764.38" y1="952.47" x2="764.38" y2="959.22" class="down-wick"/>
<rect x="761.96" y="953.78" width="4.83" height="2.63" class="down-body"/>
<line x1="771.80" y1="962.96" x2="771.80" y2="982.98" class="down-wick"/>
<rect x="769.39" y="962.96" width="4.83" height="14.03" class="down-body"/>
<line x1="779.23" y1="963.95" x2="779.23" y2="973.13" class="up-wick"/>
<rect x="776.81" y="968.17" width="4.83" height="4.44" class="up-body"/>
<line x1="786.65" y1="974.68" x2="786.65" y2="996.91" class="down-wick"/>
<rect x="784.24" y="974.74" width="4.83" height="13.33" class="down-body"/>
<line x1="794.08" y1="1001.15" x2="794.08" y2="1024.76" class="down-wick"/>
<rect x="791.67" y="1003.12" width="4.83" height="2.95" class="down-body"/>
<line x1="801.51" y1="990.01" x2="801.51" y2="1001.51" class="up-wick"/>
<rect x="799.09" y="991.42" width="4.83" height="6.81" class="up-body"/>
<line x1="808.93" y1="979.53" x2="808.93" y2="991.23" class="up-wick"/>
<rect x="806.52" y="982.02" width="4.83" height="8.77" class="up-body"/>
<line x1="816.36" y1="974.38" x2="816.36" y2="983.70" class="up-wick"/>
<rect x="813.95" y="982.40" width="4.83" height="1.24" class="up-body"/>
<line x1="823.79" y1="968.17" x2="823.79" y2="974.13" class="up-wick"/>
<rect x="821.37" y="970.82" width="4.83" height="1.03" class="up-body"/>
<line x1="831.21" y1="967.23" x2="831.21" y2="976.27" class="down-wick"/>
<rect x="828.80" y="967.56" width="4.83" height="6.93" class="down-body"/>
<line x1="838.64" y1="970.73" x2="838.64" y2="975.83" class="up-wick"/>
<rect x="836.23" y="971.54" width="4.83" height="4.15" class="up-body"/>
<line x1="846.07" y1="955.08" x2="846.07" y2="964.07" class="up-wick"/>
<rect x="843.65" y="955.85" width="4.83" height="8.20" class="up-body"/>
<line x1="853.49" y1="957.12" x2="853.49" y2="962.82" class="down-wick"/>
<rect x="851.08" y="959.97" width="4.83" height="1.00" class="down-body"/>
<line x1="860.92" y1="957.33" x2="860.92" y2="960.25" class="up-wick"/>
<rect x="858.51" y="958.24" width="4.83" height="1.44" class="up-body"/>
<line x1="868.35" y1="957.69" x2="868.35" y2="966.39" class="down-wick"/>
<rect x="865.93" y="959.56" width="4.83" height="5.03" class="down-body"/>
<line x1="875.77" y1="969.56" x2="875.77" y2="977.82" class="down-wick"/>
<rect x="873.36" y="973.27" width="4.83" height="3.74" class="down-body"/>
<line x1="883.20" y1="982.28" x2="883.20" y2="995.85" class="down-wick"/>
<rect x="880.78" y="982.50" width="4.83" height="1.00" class="down-body"/>
<line x1="890.62" y1="968.77" x2="890.62" y2="976.46" class="up-wick"/>
<rect x="888.21" y="968.83" width="4.83" height="7.64" class="up-body"/>
<line x1="898.05" y1="967.59" x2="898.05" y2="974.26" class="up-wick"/>
<rect x="895.64" y="968.33" width="4.83" height="4.12" class="up-body"/>
<line x1="905.48" y1="962.82" x2="905.48" y2="971.61" class="down-wick"/>
<rect x="903.06" y="963.20" width="4.83" height="7.67" class="down-body"/>
<line x1="912.90" y1="974.25" x2="912.90" y2="979.74" class="down-wick"/>
<rect x="910.49" y="974.90" width="4.83" height="3.09" class="down-body"/>
<line x1="920.33" y1="974.92" x2="920.33" y2="981.14" class="down-wick"/>
<rect x="917.92" y="975.43" width="4.83" height="2.97" class="down-body"/>
<line x1="927.76" y1="976.80" x2="927.76" y2="988.09" class="down-wick"/>
<rect x="925.34" y="981.49" width="4.83" height="4.43" class="down-body"/>
<line x1="935.18" y1="989.96" x2="935.18" y2="1004.34" class="up-wick"/>
<rect x="932.77" y="990.98" width="4.83" height="2.76" class="up-body"/>
<line x1="942.61" y1="982.62" x2="942.61" y2="991.20" class="up-wick"/>
<rect x="940.20" y="983.65" width="4.83" height="3.28" class="up-body"/>
<line x1="950.04" y1="978.02" x2="950.04" y2="983.43" class="up-wick"/>
<rect x="947.62" y="979.24" width="4.83" height="3.55" class="up-body"/>
<line x1="957.46" y1="969.17" x2="957.46" y2="974.16" class="up-wick"/>
<rect x="955.05" y="969.77" width="4.83" height="4.39" class="up-body"/>
<line x1="964.89" y1="970.42" x2="964.89" y2="978.33" class="down-wick"/>
<rect x="962.48" y="970.42" width="4.83" height="6.76" class="down-body"/>
<line x1="972.32" y1="961.47" x2="972.32" y2="970.88" class="up-wick"/>
<rect x="969.90" y="967.11" width="4.83" height="2.28" class="up-body"/>
<line x1="979.74" y1="963.52" x2="979.74" y2="969.73" class="up-wick"/>
<rect x="977.33" y="964.45" width="4.83" height="3.04" class="up-body"/>
<line x1="987.17" y1="956.88" x2="987.17" y2="965.91" class="up-wick"/>
<rect x="984.76" y="957.57" width="4.83" height="5.40" class="up-body"/>
<line x1="994.60" y1="958.19" x2="994.60" y2="963.51" class="down-wick"/>
<rect x="992.18" y="958.53" width="4.83" height="4.79" class="down-body"/>
<line x1="1002.02" y1="962.92" x2="1002.02" y2="970.27" class="down-wick"/>
<rect x="999.61" y="965.41" width="4.83" height="3.71" class="down-body"/>
<line x1="1009.45" y1="965.38" x2="1009.45" y2="971.83" class="up-wick"/>
<rect x="1007.03" y="965.53" width="4.83" height="5.28" class="up-body"/>
<line x1="1016.88" y1="961.57" x2="1016.88" y2="970.47" class="up-wick"/>
<rect x="1014.46" y="963.06" width="4.83" height="7.36" class="up-body"/>
<line x1="1024.30" y1="963.06" x2="1024.30" y2="967.02" class="up-wick"/>
<rect x="1021.89" y="964.97" width="4.83" height="1.00" class="up-body"/>
<line x1="1031.73" y1="955.58" x2="1031.73" y2="960.83" class="up-wick"/>
<rect x="1029.31" y="955.99" width="4.83" height="2.85" class="up-body"/>
<line x1="1039.15" y1="957.72" x2="1039.15" y2="962.85" class="down-wick"/>
<rect x="1036.74" y="959.29" width="4.83" height="3.50" class="down-body"/>
<line x1="1046.58" y1="961.45" x2="1046.58" y2="969.22" class="down-wick"/>
<rect x="1044.17" y="964.18" width="4.83" height="1.18" class="down-body"/>
<line x1="1054.01" y1="960.74" x2="1054.01" y2="967.06" class="down-wick"/>
<rect x="1051.59" y="963.18" width="4.83" height="3.59" class="down-body"/>
<line x1="1061.43" y1="956.52" x2="1061.43" y2="962.17" class="up-wick"/>
<rect x="1059.02" y="961.95" width="4.83" height="1.00" class="up-body"/>
<line x1="1068.86" y1="959.11" x2="1068.86" y2="962.82" class="up-wick"/>
<rect x="1066.45" y="962.07" width="4.83" height="1.00" class="up-body"/>
<line x1="1076.29" y1="960.23" x2="1076.29" y2="965.53" class="up-wick"/>
<rect x="1073.87" y="964.00" width="4.83" height="1.53" class="up-body"/>
<line x1="70" y1="868.61" x2="1080" y2="868.61" class="number-line"/>
<text x="1076" y="864.61" text-anchor="end" class="level-label">round 5370.00</text>
<line x1="70" y1="868.61" x2="1080" y2="868.61" class="entry-line"/>
<text x="1076" y="864.61" text-anchor="end" class="level-label">entry level 5370.00</text>
<text x="70" y="1056" class="axis-label">2026-03-03 05:00:00+00:00 to 2026-03-03 09:30:00+00:00</text>
<text x="1080" y="1056" text-anchor="end" class="axis-label">5271.27 - 5383.18</text>
</svg>