<svg xmlns="http://www.w3.org/2000/svg" width="1120" height="1054" viewBox="0 0 1120 1054">
<style>
text{font-family:Arial,Helvetica,sans-serif}.title{font-size:21px;font-weight:700;fill:#1f2937}.subtitle{font-size:12px;fill:#4b5563}.panel-title{font-size:15px;font-weight:700;fill:#111827}.muted{font-size:13px;fill:#6b7280}.plot-bg{fill:#f8fafc;stroke:#cbd5e1;stroke-width:1}.up-body{fill:#15803d;stroke:#14532d;stroke-width:.8}.down-body{fill:#b91c1c;stroke:#7f1d1d;stroke-width:.8}.up-wick{stroke:#14532d;stroke-width:1}.down-wick{stroke:#7f1d1d;stroke-width:1}.sweep-line{stroke:#7c3aed;stroke-width:1.6;stroke-dasharray:6 4}.number-line{stroke:#0f766e;stroke-width:1.4;stroke-dasharray:3 4}.entry-line{stroke:#2563eb;stroke-width:1.4}.sl-line{stroke:#dc2626;stroke-width:1.4}.tp-line{stroke:#16a34a;stroke-width:1.4}.level-label,.axis-label{font-size:11px;fill:#374151}
</style>
<text x="28" y="28" class="title">Adelin v2 visual review sample sample_163</text>
<text x="28" y="48" class="subtitle">Candidate windows are for visual labeling only and are not trade signals.</text>
<text x="560" y="48" class="subtitle" text-anchor="middle">NUMBER_THEORY_LEVEL_NEAR | ROUND_LEVEL_ENTRY_METADATA_AVAILABLE</text>
<text x="70" y="82" class="panel-title">H1 liquidity context</text>
<rect x="70" y="96" width="1010" height="192" class="plot-bg"/>
<line x1="81.48" y1="175.50" x2="81.48" y2="194.22" class="down-wick"/>
<rect x="77.48" y="180.33" width="8.00" height="11.35" class="down-body"/>
<line x1="104.43" y1="164.81" x2="104.43" y2="193.41" class="up-wick"/>
<rect x="100.43" y="169.78" width="8.00" height="21.89" class="up-body"/>
<line x1="127.39" y1="160.38" x2="127.39" y2="189.50" class="down-wick"/>
<rect x="123.39" y="169.78" width="8.00" height="2.47" class="down-body"/>
<line x1="150.34" y1="171.24" x2="150.34" y2="209.65" class="down-wick"/>
<rect x="146.34" y="172.27" width="8.00" height="23.40" class="down-body"/>
<line x1="173.30" y1="175.19" x2="173.30" y2="197.39" class="up-wick"/>
<rect x="169.30" y="185.30" width="8.00" height="10.37" class="up-body"/>
<line x1="196.25" y1="176.04" x2="196.25" y2="196.41" class="down-wick"/>
<rect x="192.25" y="185.30" width="8.00" height="5.23" class="down-body"/>
<line x1="219.20" y1="169.39" x2="219.20" y2="191.52" class="up-wick"/>
<rect x="215.20" y="180.04" width="8.00" height="10.49" class="up-body"/>
<line x1="242.16" y1="170.13" x2="242.16" y2="188.27" class="down-wick"/>
<rect x="238.16" y="180.04" width="8.00" height="2.76" class="down-body"/>
<line x1="265.11" y1="163.77" x2="265.11" y2="202.56" class="up-wick"/>
<rect x="261.11" y="174.02" width="8.00" height="8.81" class="up-body"/>
<line x1="288.07" y1="142.84" x2="288.07" y2="184.22" class="up-wick"/>
<rect x="284.07" y="142.84" width="8.00" height="31.18" class="up-body"/>
<line x1="311.02" y1="140.83" x2="311.02" y2="188.67" class="down-wick"/>
<rect x="307.02" y="142.84" width="8.00" height="42.36" class="down-body"/>
<line x1="333.98" y1="178.52" x2="333.98" y2="203.72" class="down-wick"/>
<rect x="329.98" y="185.29" width="8.00" height="11.67" class="down-body"/>
<line x1="356.93" y1="179.53" x2="356.93" y2="199.03" class="up-wick"/>
<rect x="352.93" y="189.86" width="8.00" height="7.08" class="up-body"/>
<line x1="379.89" y1="176.17" x2="379.89" y2="190.19" class="up-wick"/>
<rect x="375.89" y="178.74" width="8.00" height="11.12" class="up-body"/>
<line x1="402.84" y1="167.94" x2="402.84" y2="179.92" class="up-wick"/>
<rect x="398.84" y="177.30" width="8.00" height="1.43" class="up-body"/>
<line x1="425.80" y1="170.80" x2="425.80" y2="178.48" class="up-wick"/>
<rect x="421.80" y="174.52" width="8.00" height="2.77" class="up-body"/>
<line x1="448.75" y1="204.43" x2="448.75" y2="235.27" class="down-wick"/>
<rect x="444.75" y="215.35" width="8.00" height="1.69" class="down-body"/>
<line x1="471.70" y1="208.17" x2="471.70" y2="221.00" class="down-wick"/>
<rect x="467.70" y="217.04" width="8.00" height="1.00" class="down-body"/>
<line x1="494.66" y1="215.03" x2="494.66" y2="245.52" class="down-wick"/>
<rect x="490.66" y="217.37" width="8.00" height="10.74" class="down-body"/>
<line x1="517.61" y1="198.95" x2="517.61" y2="239.64" class="up-wick"/>
<rect x="513.61" y="225.14" width="8.00" height="2.97" class="up-body"/>
<line x1="540.57" y1="205.86" x2="540.57" y2="237.28" class="down-wick"/>
<rect x="536.57" y="225.15" width="8.00" height="5.27" class="down-body"/>
<line x1="563.52" y1="218.89" x2="563.52" y2="239.15" class="down-wick"/>
<rect x="559.52" y="230.43" width="8.00" height="3.95" class="down-body"/>
<line x1="586.48" y1="232.78" x2="586.48" y2="247.93" class="down-wick"/>
<rect x="582.48" y="234.37" width="8.00" height="8.73" class="down-body"/>
<line x1="609.43" y1="231.67" x2="609.43" y2="274.76" class="down-wick"/>
<rect x="605.43" y="243.08" width="8.00" height="26.21" class="down-body"/>
<line x1="632.39" y1="232.07" x2="632.39" y2="273.33" class="up-wick"/>
<rect x="628.39" y="234.78" width="8.00" height="34.51" class="up-body"/>
<line x1="655.34" y1="232.22" x2="655.34" y2="253.33" class="down-wick"/>
<rect x="651.34" y="234.78" width="8.00" height="13.99" class="down-body"/>
<line x1="678.30" y1="234.32" x2="678.30" y2="253.53" class="down-wick"/>
<rect x="674.30" y="248.77" width="8.00" height="1.00" class="down-body"/>
<line x1="701.25" y1="245.96" x2="701.25" y2="271.51" class="down-wick"/>
<rect x="697.25" y="249.15" width="8.00" height="14.16" class="down-body"/>
<line x1="724.20" y1="249.19" x2="724.20" y2="263.91" class="up-wick"/>
<rect x="720.20" y="253.87" width="8.00" height="9.45" class="up-body"/>
<line x1="747.16" y1="236.17" x2="747.16" y2="253.87" class="up-wick"/>
<rect x="743.16" y="239.92" width="8.00" height="13.95" class="up-body"/>
<line x1="770.11" y1="204.75" x2="770.11" y2="249.19" class="up-wick"/>
<rect x="766.11" y="206.26" width="8.00" height="33.66" class="up-body"/>
<line x1="793.07" y1="142.01" x2="793.07" y2="208.00" class="up-wick"/>
<rect x="789.07" y="158.30" width="8.00" height="47.96" class="up-body"/>
<line x1="816.02" y1="155.32" x2="816.02" y2="185.90" class="down-wick"/>
<rect x="812.02" y="158.30" width="8.00" height="14.19" class="down-body"/>
<line x1="838.98" y1="155.73" x2="838.98" y2="176.04" class="up-wick"/>
<rect x="834.98" y="163.81" width="8.00" height="8.68" class="up-body"/>
<line x1="861.93" y1="162.00" x2="861.93" y2="195.57" class="down-wick"/>
<rect x="857.93" y="163.65" width="8.00" height="20.77" class="down-body"/>
<line x1="884.89" y1="173.74" x2="884.89" y2="185.21" class="up-wick"/>
<rect x="880.89" y="174.96" width="8.00" height="9.46" class="up-body"/>
<line x1="907.84" y1="167.41" x2="907.84" y2="178.41" class="up-wick"/>
<rect x="903.84" y="173.27" width="8.00" height="1.77" class="up-body"/>
<line x1="930.80" y1="158.46" x2="930.80" y2="176.58" class="up-wick"/>
<rect x="926.80" y="161.89" width="8.00" height="11.38" class="up-body"/>
<line x1="953.75" y1="133.45" x2="953.75" y2="159.76" class="up-wick"/>
<rect x="949.75" y="139.03" width="8.00" height="20.10" class="up-body"/>
<line x1="976.70" y1="114.06" x2="976.70" y2="145.32" class="up-wick"/>
<rect x="972.70" y="117.31" width="8.00" height="21.72" class="up-body"/>
<line x1="999.66" y1="109.24" x2="999.66" y2="141.99" class="down-wick"/>
<rect x="995.66" y="117.31" width="8.00" height="23.78" class="down-body"/>
<line x1="1022.61" y1="132.90" x2="1022.61" y2="179.45" class="down-wick"/>
<rect x="1018.61" y="141.27" width="8.00" height="29.15" class="down-body"/>
<line x1="1045.57" y1="161.39" x2="1045.57" y2="176.82" class="up-wick"/>
<rect x="1041.57" y="166.53" width="8.00" height="3.88" class="up-body"/>
<line x1="1068.52" y1="162.30" x2="1068.52" y2="182.29" class="down-wick"/>
<rect x="1064.52" y="166.59" width="8.00" height="12.96" class="down-body"/>
<line x1="70" y1="219.45" x2="1080" y2="219.45" class="number-line"/>
<text x="1076" y="215.45" text-anchor="end" class="level-label">round 4690.00</text>
<line x1="70" y1="219.45" x2="1080" y2="219.45" class="entry-line"/>
<text x="1076" y="215.45" text-anchor="end" class="level-label">entry level 4690.00</text>
<text x="70" y="306" class="axis-label">2026-05-08 07:00:00+00:00 to 2026-05-12 06:00:00+00:00</text>
<text x="1080" y="306" text-anchor="end" class="axis-label">4638.12 - 4783.44</text>
<text x="70" y="332" class="panel-title">M15 liquidity / reaction context</text>
<rect x="70" y="346" width="1010" height="192" class="plot-bg"/>
<line x1="80.98" y1="371.21" x2="80.98" y2="438.54" class="down-wick"/>
<rect x="76.98" y="395.04" width="8.00" height="17.34" class="down-body"/>
<line x1="102.93" y1="386.15" x2="102.93" y2="427.20" class="up-wick"/>
<rect x="98.93" y="391.14" width="8.00" height="20.77" class="up-body"/>
<line x1="124.89" y1="391.14" x2="124.89" y2="412.40" class="down-wick"/>
<rect x="120.89" y="391.14" width="8.00" height="9.46" class="down-body"/>
<line x1="146.85" y1="390.86" x2="146.85" y2="404.18" class="up-wick"/>
<rect x="142.85" y="398.73" width="8.00" height="1.87" class="up-body"/>
<line x1="168.80" y1="383.99" x2="168.80" y2="407.39" class="down-wick"/>
<rect x="164.80" y="398.73" width="8.00" height="4.87" class="down-body"/>
<line x1="190.76" y1="383.27" x2="190.76" y2="406.52" class="up-wick"/>
<rect x="186.76" y="390.68" width="8.00" height="12.92" class="up-body"/>
<line x1="212.72" y1="379.84" x2="212.72" y2="391.06" class="up-wick"/>
<rect x="208.72" y="382.32" width="8.00" height="8.37" class="up-body"/>
<line x1="234.67" y1="379.38" x2="234.67" y2="403.81" class="down-wick"/>
<rect x="230.67" y="382.35" width="8.00" height="17.19" class="down-body"/>
<line x1="256.63" y1="399.45" x2="256.63" y2="432.25" class="down-wick"/>
<rect x="252.63" y="399.45" width="8.00" height="25.93" class="down-body"/>
<line x1="278.59" y1="413.76" x2="278.59" y2="445.12" class="up-wick"/>
<rect x="274.59" y="422.53" width="8.00" height="2.86" class="up-body"/>
<line x1="300.54" y1="394.35" x2="300.54" y2="422.53" class="up-wick"/>
<rect x="296.54" y="406.87" width="8.00" height="15.66" class="up-body"/>
<line x1="322.50" y1="395.82" x2="322.50" y2="460.92" class="down-wick"/>
<rect x="318.50" y="406.84" width="8.00" height="16.07" class="down-body"/>
<line x1="344.46" y1="375.94" x2="344.46" y2="448.09" class="up-wick"/>
<rect x="340.46" y="398.07" width="8.00" height="24.84" class="up-body"/>
<line x1="366.41" y1="359.24" x2="366.41" y2="405.34" class="up-wick"/>
<rect x="362.41" y="378.37" width="8.00" height="19.70" class="up-body"/>
<line x1="388.37" y1="369.94" x2="388.37" y2="401.44" class="down-wick"/>
<rect x="384.37" y="378.37" width="8.00" height="12.92" class="down-body"/>
<line x1="410.33" y1="386.73" x2="410.33" y2="432.77" class="down-wick"/>
<rect x="406.33" y="391.32" width="8.00" height="25.10" class="down-body"/>
<line x1="432.28" y1="395.15" x2="432.28" y2="437.47" class="up-wick"/>
<rect x="428.28" y="415.72" width="8.00" height="1.00" class="up-body"/>
<line x1="454.24" y1="407.90" x2="454.24" y2="424.89" class="up-wick"/>
<rect x="450.24" y="408.48" width="8.00" height="7.24" class="up-body"/>
<line x1="476.20" y1="374.33" x2="476.20" y2="410.21" class="up-wick"/>
<rect x="472.20" y="408.28" width="8.00" height="1.00" class="up-body"/>
<line x1="498.15" y1="393.68" x2="498.15" y2="442.92" class="down-wick"/>
<rect x="494.15" y="408.28" width="8.00" height="19.67" class="down-body"/>
<line x1="520.11" y1="404.88" x2="520.11" y2="447.02" class="up-wick"/>
<rect x="516.11" y="412.23" width="8.00" height="15.75" class="up-body"/>
<line x1="542.07" y1="402.86" x2="542.07" y2="421.55" class="up-wick"/>
<rect x="538.07" y="405.28" width="8.00" height="6.84" class="up-body"/>
<line x1="564.02" y1="402.77" x2="564.02" y2="426.28" class="down-wick"/>
<rect x="560.02" y="405.28" width="8.00" height="4.93" class="down-body"/>
<line x1="585.98" y1="410.21" x2="585.98" y2="441.45" class="down-wick"/>
<rect x="581.98" y="410.21" width="8.00" height="26.39" class="down-body"/>
<line x1="607.93" y1="433.12" x2="607.93" y2="451.69" class="down-wick"/>
<rect x="603.93" y="436.58" width="8.00" height="3.35" class="down-body"/>
<line x1="629.89" y1="436.43" x2="629.89" y2="460.66" class="down-wick"/>
<rect x="625.89" y="439.92" width="8.00" height="16.64" class="down-body"/>
<line x1="651.85" y1="448.23" x2="651.85" y2="466.17" class="up-wick"/>
<rect x="647.85" y="452.90" width="8.00" height="3.66" class="up-body"/>
<line x1="673.80" y1="443.93" x2="673.80" y2="456.39" class="down-wick"/>
<rect x="669.80" y="452.90" width="8.00" height="2.74" class="down-body"/>
<line x1="695.76" y1="444.08" x2="695.76" y2="459.31" class="up-wick"/>
<rect x="691.76" y="451.66" width="8.00" height="3.92" class="up-body"/>
<line x1="717.72" y1="446.30" x2="717.72" y2="459.60" class="down-wick"/>
<rect x="713.72" y="451.66" width="8.00" height="7.93" class="down-body"/>
<line x1="739.67" y1="430.69" x2="739.67" y2="484.17" class="down-wick"/>
<rect x="735.67" y="459.60" width="8.00" height="20.13" class="down-body"/>
<line x1="761.63" y1="478.78" x2="761.63" y2="524.76" class="down-wick"/>
<rect x="757.63" y="479.73" width="8.00" height="33.09" class="down-body"/>
<line x1="783.59" y1="470.04" x2="783.59" y2="521.64" class="up-wick"/>
<rect x="779.59" y="475.26" width="8.00" height="37.56" class="up-body"/>
<line x1="805.54" y1="458.87" x2="805.54" y2="476.82" class="up-wick"/>
<rect x="801.54" y="469.23" width="8.00" height="5.94" class="up-body"/>
<line x1="827.50" y1="445.12" x2="827.50" y2="469.43" class="up-wick"/>
<rect x="823.50" y="449.01" width="8.00" height="20.22" class="up-body"/>
<line x1="849.46" y1="431.56" x2="849.46" y2="458.07" class="up-wick"/>
<rect x="845.46" y="437.47" width="8.00" height="11.45" class="up-body"/>
<line x1="871.41" y1="431.88" x2="871.41" y2="448.81" class="down-wick"/>
<rect x="867.41" y="437.47" width="8.00" height="6.92" class="down-body"/>
<line x1="893.37" y1="438.42" x2="893.37" y2="455.67" class="down-wick"/>
<rect x="889.37" y="444.39" width="8.00" height="1.00" class="down-body"/>
<line x1="915.33" y1="438.51" x2="915.33" y2="456.83" class="down-wick"/>
<rect x="911.33" y="445.00" width="8.00" height="10.99" class="down-body"/>
<line x1="937.28" y1="453.16" x2="937.28" y2="477.97" class="down-wick"/>
<rect x="933.28" y="455.99" width="8.00" height="12.03" class="down-body"/>
<line x1="959.24" y1="451.09" x2="959.24" y2="478.40" class="up-wick"/>
<rect x="955.24" y="455.90" width="8.00" height="12.12" class="up-body"/>
<line x1="981.20" y1="436.46" x2="981.20" y2="456.65" class="down-wick"/>
<rect x="977.20" y="455.93" width="8.00" height="1.00" class="down-body"/>
<line x1="1003.15" y1="446.01" x2="1003.15" y2="464.04" class="down-wick"/>
<rect x="999.15" y="456.77" width="8.00" height="3.98" class="down-body"/>
<line x1="1025.11" y1="457.61" x2="1025.11" y2="471.31" class="down-wick"/>
<rect x="1021.11" y="460.49" width="8.00" height="8.37" class="down-body"/>
<line x1="1047.07" y1="461.87" x2="1047.07" y2="475.46" class="up-wick"/>
<rect x="1043.07" y="468.83" width="8.00" height="1.00" class="up-body"/>
<line x1="1069.02" y1="468.71" x2="1069.02" y2="499.61" class="down-wick"/>
<rect x="1065.02" y="468.83" width="8.00" height="28.73" class="down-body"/>
<line x1="70" y1="404.01" x2="1080" y2="404.01" class="number-line"/>
<text x="1076" y="400.01" text-anchor="end" class="level-label">round 4690.00</text>
<line x1="70" y1="404.01" x2="1080" y2="404.01" class="entry-line"/>
<text x="1076" y="400.01" text-anchor="end" class="level-label">entry level 4690.00</text>
<text x="70" y="556" class="axis-label">2026-05-11 01:00:00+00:00 to 2026-05-11 12:15:00+00:00</text>
<text x="1080" y="556" text-anchor="end" class="axis-label">4643.55 - 4710.11</text>
<text x="70" y="582" class="panel-title">M5 reaction / execution context</text>
<rect x="70" y="596" width="1010" height="192" class="plot-bg"/>
<line x1="79.18" y1="622.89" x2="79.18" y2="633.68" class="up-wick"/>
<rect x="75.18" y="626.00" width="8.00" height="1.94" class="up-body"/>
<line x1="97.55" y1="625.87" x2="97.55" y2="656.72" class="down-wick"/>
<rect x="93.55" y="626.00" width="8.00" height="26.82" class="down-body"/>
<line x1="115.91" y1="649.74" x2="115.91" y2="673.54" class="down-wick"/>
<rect x="111.91" y="652.82" width="8.00" height="2.73" class="down-body"/>
<line x1="134.27" y1="632.16" x2="134.27" y2="658.18" class="up-wick"/>
<rect x="130.27" y="645.14" width="8.00" height="10.44" class="up-body"/>
<line x1="152.64" y1="643.90" x2="152.64" y2="678.72" class="down-wick"/>
<rect x="148.64" y="645.14" width="8.00" height="16.28" class="down-body"/>
<line x1="171.00" y1="643.84" x2="171.00" y2="665.13" class="up-wick"/>
<rect x="167.00" y="654.79" width="8.00" height="6.54" class="up-body"/>
<line x1="189.36" y1="652.50" x2="189.36" y2="664.34" class="down-wick"/>
<rect x="185.36" y="654.79" width="8.00" height="8.38" class="down-body"/>
<line x1="207.73" y1="652.63" x2="207.73" y2="664.88" class="up-wick"/>
<rect x="203.73" y="654.09" width="8.00" height="9.08" class="up-body"/>
<line x1="226.09" y1="646.19" x2="226.09" y2="658.06" class="up-wick"/>
<rect x="222.09" y="646.82" width="8.00" height="7.62" class="up-body"/>
<line x1="244.45" y1="624.51" x2="244.45" y2="647.04" class="up-wick"/>
<rect x="240.45" y="635.68" width="8.00" height="11.20" class="up-body"/>
<line x1="262.82" y1="609.24" x2="262.82" y2="639.42" class="up-wick"/>
<rect x="258.82" y="613.21" width="8.00" height="22.47" class="up-body"/>
<line x1="281.18" y1="612.95" x2="281.18" y2="648.72" class="down-wick"/>
<rect x="277.18" y="613.24" width="8.00" height="33.36" class="down-body"/>
<line x1="299.55" y1="630.54" x2="299.55" y2="659.36" class="down-wick"/>
<rect x="295.55" y="646.60" width="8.00" height="10.12" class="down-body"/>
<line x1="317.91" y1="656.60" x2="317.91" y2="677.35" class="down-wick"/>
<rect x="313.91" y="656.69" width="8.00" height="15.01" class="down-body"/>
<line x1="336.27" y1="665.74" x2="336.27" y2="684.72" class="up-wick"/>
<rect x="332.27" y="668.24" width="8.00" height="3.49" class="up-body"/>
<line x1="354.64" y1="657.67" x2="354.64" y2="689.22" class="up-wick"/>
<rect x="350.64" y="662.34" width="8.00" height="5.94" class="up-body"/>
<line x1="373.00" y1="653.29" x2="373.00" y2="668.05" class="up-wick"/>
<rect x="369.00" y="653.90" width="8.00" height="8.44" class="up-body"/>
<line x1="391.36" y1="642.85" x2="391.36" y2="656.75" class="up-wick"/>
<rect x="387.36" y="650.95" width="8.00" height="2.95" class="up-body"/>
<line x1="409.73" y1="643.42" x2="409.73" y2="661.20" class="up-wick"/>
<rect x="405.73" y="647.04" width="8.00" height="3.78" class="up-body"/>
<line x1="428.09" y1="645.30" x2="428.09" y2="661.10" class="up-wick"/>
<rect x="424.09" y="646.53" width="8.00" height="1.00" class="up-body"/>
<line x1="446.45" y1="640.63" x2="446.45" y2="651.74" class="up-wick"/>
<rect x="442.45" y="643.30" width="8.00" height="3.14" class="up-body"/>
<line x1="464.82" y1="640.54" x2="464.82" y2="654.18" class="down-wick"/>
<rect x="460.82" y="643.30" width="8.00" height="8.82" class="down-body"/>
<line x1="483.18" y1="649.49" x2="483.18" y2="666.40" class="down-wick"/>
<rect x="479.18" y="652.12" width="8.00" height="8.00" class="down-body"/>
<line x1="501.55" y1="648.03" x2="501.55" y2="662.50" class="up-wick"/>
<rect x="497.55" y="648.72" width="8.00" height="11.39" class="up-body"/>
<line x1="519.91" y1="648.72" x2="519.91" y2="669.20" class="down-wick"/>
<rect x="515.91" y="648.72" width="8.00" height="20.34" class="down-body"/>
<line x1="538.27" y1="665.36" x2="538.27" y2="682.24" class="down-wick"/>
<rect x="534.27" y="669.07" width="8.00" height="12.51" class="down-body"/>
<line x1="556.64" y1="675.77" x2="556.64" y2="683.10" class="up-wick"/>
<rect x="552.64" y="677.77" width="8.00" height="3.81" class="up-body"/>
<line x1="575.00" y1="673.92" x2="575.00" y2="694.36" class="down-wick"/>
<rect x="571.00" y="677.73" width="8.00" height="3.33" class="down-body"/>
<line x1="593.36" y1="676.31" x2="593.36" y2="687.06" class="down-wick"/>
<rect x="589.36" y="681.07" width="8.00" height="1.00" class="down-body"/>
<line x1="611.73" y1="679.89" x2="611.73" y2="690.05" class="up-wick"/>
<rect x="607.73" y="681.42" width="8.00" height="1.00" class="up-body"/>
<line x1="630.09" y1="677.57" x2="630.09" y2="692.62" class="down-wick"/>
<rect x="626.09" y="681.42" width="8.00" height="10.41" class="down-body"/>
<line x1="648.45" y1="689.29" x2="648.45" y2="704.24" class="down-wick"/>
<rect x="644.45" y="691.83" width="8.00" height="1.68" class="down-body"/>
<line x1="666.82" y1="686.72" x2="666.82" y2="700.30" class="down-wick"/>
<rect x="662.82" y="693.57" width="8.00" height="6.16" class="down-body"/>
<line x1="685.18" y1="693.51" x2="685.18" y2="710.30" class="up-wick"/>
<rect x="681.18" y="695.67" width="8.00" height="4.06" class="up-body"/>
<line x1="703.55" y1="690.56" x2="703.55" y2="701.09" class="down-wick"/>
<rect x="699.55" y="695.67" width="8.00" height="4.54" class="down-body"/>
<line x1="721.91" y1="693.76" x2="721.91" y2="700.97" class="up-wick"/>
<rect x="717.91" y="695.70" width="8.00" height="4.51" class="up-body"/>
<line x1="740.27" y1="688.08" x2="740.27" y2="696.52" class="up-wick"/>
<rect x="736.27" y="689.16" width="8.00" height="6.54" class="up-body"/>
<line x1="758.64" y1="685.83" x2="758.64" y2="695.60" class="up-wick"/>
<rect x="754.64" y="688.81" width="8.00" height="1.00" class="up-body"/>
<line x1="777.00" y1="687.38" x2="777.00" y2="699.54" class="down-wick"/>
<rect x="773.00" y="688.81" width="8.00" height="9.90" class="down-body"/>
<line x1="795.36" y1="685.99" x2="795.36" y2="699.54" class="up-wick"/>
<rect x="791.36" y="686.87" width="8.00" height="11.78" class="up-body"/>
<line x1="813.73" y1="686.18" x2="813.73" y2="702.74" class="down-wick"/>
<rect x="809.73" y="686.87" width="8.00" height="10.06" class="down-body"/>
<line x1="832.09" y1="693.35" x2="832.09" y2="701.63" class="up-wick"/>
<rect x="828.09" y="694.33" width="8.00" height="2.60" class="up-body"/>
<line x1="850.45" y1="691.03" x2="850.45" y2="699.35" class="up-wick"/>
<rect x="846.45" y="692.62" width="8.00" height="1.71" class="up-body"/>
<line x1="868.82" y1="688.43" x2="868.82" y2="696.71" class="up-wick"/>
<rect x="864.82" y="688.84" width="8.00" height="3.78" class="up-body"/>
<line x1="887.18" y1="688.78" x2="887.18" y2="703.06" class="down-wick"/>
<rect x="883.18" y="688.84" width="8.00" height="14.22" class="down-body"/>
<line x1="905.55" y1="675.96" x2="905.55" y2="703.22" class="up-wick"/>
<rect x="901.55" y="677.57" width="8.00" height="25.49" class="up-body"/>
<line x1="923.91" y1="671.26" x2="923.91" y2="696.08" class="down-wick"/>
<rect x="919.91" y="677.57" width="8.00" height="15.04" class="down-body"/>
<line x1="942.27" y1="691.10" x2="942.27" y2="730.10" class="down-wick"/>
<rect x="938.27" y="692.62" width="8.00" height="32.60" class="down-body"/>
<line x1="960.64" y1="724.17" x2="960.64" y2="741.53" class="down-wick"/>
<rect x="956.64" y="725.21" width="8.00" height="9.01" class="down-body"/>
<line x1="979.00" y1="731.63" x2="979.00" y2="760.10" class="down-wick"/>
<rect x="975.00" y="734.23" width="8.00" height="20.41" class="down-body"/>
<line x1="997.36" y1="752.86" x2="997.36" y2="774.76" class="down-wick"/>
<rect x="993.36" y="754.60" width="8.00" height="7.01" class="down-body"/>
<line x1="1015.73" y1="737.72" x2="1015.73" y2="771.33" class="up-wick"/>
<rect x="1011.73" y="737.97" width="8.00" height="23.65" class="up-body"/>
<line x1="1034.09" y1="721.28" x2="1034.09" y2="745.81" class="up-wick"/>
<rect x="1030.09" y="728.45" width="8.00" height="9.52" class="up-body"/>
<line x1="1052.45" y1="714.55" x2="1052.45" y2="729.18" class="up-wick"/>
<rect x="1048.45" y="720.30" width="8.00" height="8.35" class="up-body"/>
<line x1="1070.82" y1="703.06" x2="1070.82" y2="721.15" class="up-wick"/>
<rect x="1066.82" y="703.63" width="8.00" height="16.57" class="up-body"/>
<line x1="70" y1="641.90" x2="1080" y2="641.90" class="number-line"/>
<text x="1076" y="637.90" text-anchor="end" class="level-label">round 4690.00</text>
<line x1="70" y1="641.90" x2="1080" y2="641.90" class="entry-line"/>
<text x="1076" y="637.90" text-anchor="end" class="level-label">entry level 4690.00</text>
<text x="70" y="806" class="axis-label">2026-05-11 04:45:00+00:00 to 2026-05-11 09:15:00+00:00</text>
<text x="1080" y="806" text-anchor="end" class="axis-label">4643.97 - 4704.46</text>
<text x="70" y="832" class="panel-title">M1 execution window</text>
<rect x="70" y="846" width="1010" height="192" class="plot-bg"/>
<line x1="73.71" y1="874.65" x2="73.71" y2="883.81" class="up-wick"/>
<rect x="71.30" y="875.04" width="4.83" height="3.00" class="up-body"/>
<line x1="81.14" y1="873.73" x2="81.14" y2="881.29" class="up-wick"/>
<rect x="78.73" y="875.96" width="4.83" height="3.32" class="up-body"/>
<line x1="88.57" y1="872.96" x2="88.57" y2="880.40" class="up-wick"/>
<rect x="86.15" y="876.09" width="4.83" height="1.00" class="up-body"/>
<line x1="95.99" y1="894.60" x2="95.99" y2="905.80" class="down-wick"/>
<rect x="93.58" y="895.36" width="4.83" height="9.00" class="down-body"/>
<line x1="103.42" y1="891.82" x2="103.42" y2="901.87" class="up-wick"/>
<rect x="101.01" y="893.74" width="4.83" height="1.00" class="up-body"/>
<line x1="110.85" y1="899.96" x2="110.85" y2="915.31" class="down-wick"/>
<rect x="108.43" y="903.05" width="4.83" height="12.25" class="down-body"/>
<line x1="118.27" y1="910.94" x2="118.27" y2="920.83" class="down-wick"/>
<rect x="115.86" y="910.94" width="4.83" height="3.19" class="down-body"/>
<line x1="125.70" y1="901.04" x2="125.70" y2="910.27" class="up-wick"/>
<rect x="123.28" y="905.80" width="4.83" height="1.00" class="up-body"/>
<line x1="133.12" y1="885.02" x2="133.12" y2="894.25" class="up-wick"/>
<rect x="130.71" y="888.95" width="4.83" height="4.47" class="up-body"/>
<line x1="140.55" y1="882.28" x2="140.55" y2="888.18" class="down-wick"/>
<rect x="138.14" y="884.61" width="4.83" height="3.03" class="down-body"/>
<line x1="147.98" y1="894.09" x2="147.98" y2="902.03" class="down-wick"/>
<rect x="145.56" y="895.33" width="4.83" height="6.70" class="down-body"/>
<line x1="155.40" y1="916.81" x2="155.40" y2="929.09" class="up-wick"/>
<rect x="152.99" y="916.93" width="4.83" height="6.19" class="up-body"/>
<line x1="162.83" y1="908.51" x2="162.83" y2="913.94" class="down-wick"/>
<rect x="160.42" y="911.51" width="4.83" height="1.00" class="down-body"/>
<line x1="170.26" y1="903.37" x2="170.26" y2="911.54" class="up-wick"/>
<rect x="167.84" y="904.55" width="4.83" height="5.74" class="up-body"/>
<line x1="177.68" y1="894.02" x2="177.68" y2="900.56" class="down-wick"/>
<rect x="175.27" y="899.48" width="4.83" height="1.00" class="down-body"/>
<line x1="185.11" y1="902.73" x2="185.11" y2="912.18" class="down-wick"/>
<rect x="182.70" y="905.03" width="4.83" height="3.80" class="down-body"/>
<line x1="192.54" y1="904.87" x2="192.54" y2="909.47" class="down-wick"/>
<rect x="190.12" y="905.26" width="4.83" height="3.06" class="down-body"/>
<line x1="199.96" y1="907.17" x2="199.96" y2="914.64" class="down-wick"/>
<rect x="197.55" y="908.35" width="4.83" height="5.11" class="down-body"/>
<line x1="207.39" y1="905.67" x2="207.39" y2="910.71" class="up-wick"/>
<rect x="204.98" y="907.62" width="4.83" height="1.47" class="up-body"/>
<line x1="214.82" y1="908.03" x2="214.82" y2="912.66" class="down-wick"/>
<rect x="212.40" y="908.03" width="4.83" height="1.00" class="down-body"/>
<line x1="222.24" y1="903.28" x2="222.24" y2="908.32" class="down-wick"/>
<rect x="219.83" y="904.68" width="4.83" height="1.00" class="down-body"/>
<line x1="229.67" y1="898.24" x2="229.67" y2="902.48" class="down-wick"/>
<rect x="227.26" y="899.45" width="4.83" height="2.27" class="down-body"/>
<line x1="237.10" y1="896.38" x2="237.10" y2="902.48" class="up-wick"/>
<rect x="234.68" y="897.02" width="4.83" height="4.82" class="up-body"/>
<line x1="244.52" y1="876.03" x2="244.52" y2="885.79" class="up-wick"/>
<rect x="242.11" y="876.09" width="4.83" height="9.09" class="up-body"/>
<line x1="251.95" y1="880.05" x2="251.95" y2="885.31" class="down-wick"/>
<rect x="249.53" y="880.72" width="4.83" height="3.48" class="down-body"/>
<line x1="259.38" y1="882.66" x2="259.38" y2="889.59" class="up-wick"/>
<rect x="256.96" y="883.33" width="4.83" height="2.49" class="up-body"/>
<line x1="266.80" y1="861.57" x2="266.80" y2="873.47" class="up-wick"/>
<rect x="264.39" y="861.57" width="4.83" height="11.77" class="up-body"/>
<line x1="274.23" y1="859.24" x2="274.23" y2="869.45" class="up-wick"/>
<rect x="271.81" y="863.23" width="4.83" height="4.21" class="up-body"/>
<line x1="281.65" y1="872.23" x2="281.65" y2="878.90" class="down-wick"/>
<rect x="279.24" y="873.28" width="4.83" height="5.14" class="down-body"/>
<line x1="289.08" y1="880.14" x2="289.08" y2="886.88" class="down-wick"/>
<rect x="286.67" y="882.63" width="4.83" height="3.77" class="down-body"/>
<line x1="296.51" y1="887.29" x2="296.51" y2="898.20" class="up-wick"/>
<rect x="294.09" y="890.32" width="4.83" height="6.48" class="up-body"/>
<line x1="303.93" y1="883.91" x2="303.93" y2="889.46" class="down-wick"/>
<rect x="301.52" y="884.07" width="4.83" height="3.86" class="down-body"/>
<line x1="311.36" y1="902.61" x2="311.36" y2="909.63" class="down-wick"/>
<rect x="308.95" y="902.73" width="4.83" height="4.24" class="down-body"/>
<line x1="318.79" y1="911.77" x2="318.79" y2="919.10" class="up-wick"/>
<rect x="316.37" y="915.12" width="4.83" height="1.00" class="up-body"/>
<line x1="326.21" y1="910.68" x2="326.21" y2="927.66" class="down-wick"/>
<rect x="323.80" y="914.25" width="4.83" height="12.29" class="down-body"/>
<line x1="333.64" y1="918.02" x2="333.64" y2="935.12" class="down-wick"/>
<rect x="331.23" y="922.07" width="4.83" height="10.95" class="down-body"/>
<line x1="341.07" y1="923.25" x2="341.07" y2="929.89" class="down-wick"/>
<rect x="338.65" y="926.44" width="4.83" height="1.00" class="down-body"/>
<line x1="348.49" y1="916.04" x2="348.49" y2="922.81" class="down-wick"/>
<rect x="346.08" y="917.76" width="4.83" height="1.00" class="down-body"/>
<line x1="355.92" y1="925.33" x2="355.92" y2="939.65" class="up-wick"/>
<rect x="353.51" y="928.71" width="4.83" height="1.00" class="up-body"/>
<line x1="363.35" y1="911.32" x2="363.35" y2="923.09" class="up-wick"/>
<rect x="360.93" y="912.05" width="4.83" height="8.65" class="up-body"/>
<line x1="370.77" y1="908.06" x2="370.77" y2="912.75" class="up-wick"/>
<rect x="368.36" y="910.14" width="4.83" height="2.49" class="up-body"/>
<line x1="378.20" y1="908.96" x2="378.20" y2="916.71" class="down-wick"/>
<rect x="375.78" y="910.27" width="4.83" height="5.62" class="down-body"/>
<line x1="385.62" y1="903.53" x2="385.62" y2="906.63" class="up-wick"/>
<rect x="383.21" y="904.14" width="4.83" height="1.47" class="up-body"/>
<line x1="393.05" y1="899.77" x2="393.05" y2="906.72" class="up-wick"/>
<rect x="390.64" y="899.96" width="4.83" height="4.08" class="up-body"/>
<line x1="400.48" y1="893.03" x2="400.48" y2="901.33" class="down-wick"/>
<rect x="398.06" y="895.40" width="4.83" height="4.44" class="down-body"/>
<line x1="407.90" y1="900.34" x2="407.90" y2="907.17" class="down-wick"/>
<rect x="405.49" y="901.04" width="4.83" height="3.51" class="down-body"/>
<line x1="415.33" y1="904.59" x2="415.33" y2="910.52" class="up-wick"/>
<rect x="412.92" y="904.90" width="4.83" height="4.56" class="up-body"/>
<line x1="422.76" y1="893.61" x2="422.76" y2="901.81" class="up-wick"/>
<rect x="420.34" y="897.25" width="4.83" height="1.00" class="up-body"/>
<line x1="430.18" y1="903.02" x2="430.18" y2="910.14" class="down-wick"/>
<rect x="427.77" y="903.12" width="4.83" height="7.02" class="down-body"/>
<line x1="437.61" y1="902.45" x2="437.61" y2="907.46" class="up-wick"/>
<rect x="435.20" y="904.01" width="4.83" height="3.45" class="up-body"/>
<line x1="445.04" y1="895.87" x2="445.04" y2="900.53" class="down-wick"/>
<rect x="442.62" y="896.64" width="4.83" height="2.39" class="down-body"/>
<line x1="452.46" y1="892.14" x2="452.46" y2="895.11" class="up-wick"/>
<rect x="450.05" y="893.51" width="4.83" height="1.08" class="up-body"/>
<line x1="459.89" y1="892.04" x2="459.89" y2="894.06" class="down-wick"/>
<rect x="457.48" y="892.27" width="4.83" height="1.21" class="down-body"/>
<line x1="467.32" y1="895.14" x2="467.32" y2="899.26" class="down-wick"/>
<rect x="464.90" y="897.09" width="4.83" height="1.00" class="down-body"/>
<line x1="474.74" y1="895.91" x2="474.74" y2="902.80" class="up-wick"/>
<rect x="472.33" y="900.56" width="4.83" height="1.00" class="up-body"/>
<line x1="482.17" y1="899.70" x2="482.17" y2="904.11" class="down-wick"/>
<rect x="479.76" y="902.35" width="4.83" height="1.56" class="down-body"/>
<line x1="489.60" y1="904.11" x2="489.60" y2="911.77" class="down-wick"/>
<rect x="487.18" y="904.11" width="4.83" height="6.70" class="down-body"/>
<line x1="497.02" y1="910.39" x2="497.02" y2="916.71" class="up-wick"/>
<rect x="494.61" y="910.39" width="4.83" height="4.88" class="up-body"/>
<line x1="504.45" y1="905.48" x2="504.45" y2="911.61" class="down-wick"/>
<rect x="502.03" y="905.48" width="4.83" height="3.38" class="down-body"/>
<line x1="511.88" y1="907.20" x2="511.88" y2="911.38" class="up-wick"/>
<rect x="509.46" y="907.49" width="4.83" height="3.22" class="up-body"/>
<line x1="519.30" y1="898.94" x2="519.30" y2="902.13" class="down-wick"/>
<rect x="516.89" y="898.94" width="4.83" height="2.84" class="down-body"/>
<line x1="526.73" y1="900.02" x2="526.73" y2="903.63" class="up-wick"/>
<rect x="524.31" y="901.94" width="4.83" height="1.63" class="up-body"/>
<line x1="534.15" y1="905.96" x2="534.15" y2="919.52" class="down-wick"/>
<rect x="531.74" y="907.84" width="4.83" height="11.55" class="down-body"/>
<line x1="541.58" y1="915.66" x2="541.58" y2="921.08" class="down-wick"/>
<rect x="539.17" y="919.93" width="4.83" height="1.00" class="down-body"/>
<line x1="549.01" y1="921.37" x2="549.01" y2="929.03" class="down-wick"/>
<rect x="546.59" y="921.43" width="4.83" height="7.59" class="down-body"/>
<line x1="556.43" y1="928.23" x2="556.43" y2="932.83" class="up-wick"/>
<rect x="554.02" y="930.94" width="4.83" height="1.02" class="up-body"/>
<line x1="563.86" y1="930.05" x2="563.86" y2="933.50" class="down-wick"/>
<rect x="561.45" y="930.59" width="4.83" height="1.79" class="down-body"/>
<line x1="571.29" y1="926.12" x2="571.29" y2="929.73" class="down-wick"/>
<rect x="568.87" y="927.91" width="4.83" height="1.00" class="down-body"/>
<line x1="578.71" y1="928.26" x2="578.71" y2="934.39" class="down-wick"/>
<rect x="576.30" y="928.84" width="4.83" height="5.36" class="down-body"/>
<line x1="586.14" y1="933.24" x2="586.14" y2="944.82" class="down-wick"/>
<rect x="583.73" y="933.24" width="4.83" height="3.99" class="down-body"/>
<line x1="593.57" y1="930.82" x2="593.57" y2="937.01" class="down-wick"/>
<rect x="591.15" y="931.45" width="4.83" height="5.07" class="down-body"/>
<line x1="600.99" y1="926.67" x2="600.99" y2="930.94" class="up-wick"/>
<rect x="598.58" y="927.31" width="4.83" height="2.36" class="up-body"/>
<line x1="608.42" y1="926.95" x2="608.42" y2="932.86" class="down-wick"/>
<rect x="606.01" y="927.98" width="4.83" height="3.99" class="down-body"/>
<line x1="615.85" y1="930.72" x2="615.85" y2="936.78" class="up-wick"/>
<rect x="613.43" y="931.10" width="4.83" height="1.63" class="up-body"/>
<line x1="623.27" y1="932.76" x2="623.27" y2="938.31" class="up-wick"/>
<rect x="620.86" y="934.80" width="4.83" height="3.48" class="up-body"/>
<line x1="630.70" y1="928.04" x2="630.70" y2="931.80" class="up-wick"/>
<rect x="628.28" y="928.10" width="4.83" height="3.70" class="up-body"/>
<line x1="638.12" y1="932.35" x2="638.12" y2="942.18" class="down-wick"/>
<rect x="635.71" y="932.35" width="4.83" height="5.68" class="down-body"/>
<line x1="645.55" y1="939.02" x2="645.55" y2="943.07" class="down-wick"/>
<rect x="643.14" y="939.08" width="4.83" height="3.19" class="down-body"/>
<line x1="652.98" y1="939.72" x2="652.98" y2="954.75" class="down-wick"/>
<rect x="650.56" y="943.29" width="4.83" height="9.67" class="down-body"/>
<line x1="660.40" y1="943.01" x2="660.40" y2="948.84" class="up-wick"/>
<rect x="657.99" y="943.01" width="4.83" height="3.92" class="up-body"/>
<line x1="667.83" y1="940.42" x2="667.83" y2="944.66" class="up-wick"/>
<rect x="665.42" y="943.48" width="4.83" height="1.00" class="up-body"/>
<line x1="675.26" y1="937.74" x2="675.26" y2="941.79" class="up-wick"/>
<rect x="672.84" y="937.90" width="4.83" height="3.86" class="up-body"/>
<line x1="682.68" y1="940.90" x2="682.68" y2="950.79" class="down-wick"/>
<rect x="680.27" y="940.93" width="4.83" height="9.29" class="down-body"/>
<line x1="690.11" y1="955.00" x2="690.11" y2="960.36" class="down-wick"/>
<rect x="687.70" y="957.36" width="4.83" height="2.78" class="down-body"/>
<line x1="697.54" y1="951.14" x2="697.54" y2="959.63" class="up-wick"/>
<rect x="695.12" y="953.09" width="4.83" height="6.09" class="up-body"/>
<line x1="704.96" y1="944.63" x2="704.96" y2="951.59" class="up-wick"/>
<rect x="702.55" y="945.75" width="4.83" height="1.00" class="up-body"/>
<line x1="712.39" y1="945.21" x2="712.39" y2="950.76" class="up-wick"/>
<rect x="709.98" y="946.10" width="4.83" height="3.54" class="up-body"/>
<line x1="719.82" y1="940.99" x2="719.82" y2="951.33" class="down-wick"/>
<rect x="717.40" y="942.05" width="4.83" height="8.65" class="down-body"/>
<line x1="727.24" y1="945.69" x2="727.24" y2="949.26" class="up-wick"/>
<rect x="724.83" y="946.80" width="4.83" height="1.95" class="up-body"/>
<line x1="734.67" y1="944.50" x2="734.67" y2="947.44" class="up-wick"/>
<rect x="732.26" y="945.46" width="4.83" height="1.76" class="up-body"/>
<line x1="742.10" y1="943.16" x2="742.10" y2="946.99" class="up-wick"/>
<rect x="739.68" y="945.43" width="4.83" height="1.00" class="up-body"/>
<line x1="749.52" y1="942.11" x2="749.52" y2="944.28" class="down-wick"/>
<rect x="747.11" y="942.94" width="4.83" height="1.00" class="down-body"/>
<line x1="756.95" y1="938.51" x2="756.95" y2="941.31" class="up-wick"/>
<rect x="754.53" y="939.59" width="4.83" height="1.40" class="up-body"/>
<line x1="764.38" y1="936.88" x2="764.38" y2="940.39" class="down-wick"/>
<rect x="761.96" y="936.88" width="4.83" height="3.10" class="down-body"/>
<line x1="771.80" y1="942.14" x2="771.80" y2="945.91" class="down-wick"/>
<rect x="769.39" y="942.21" width="4.83" height="1.37" class="down-body"/>
<line x1="779.23" y1="937.80" x2="779.23" y2="942.24" class="down-wick"/>
<rect x="776.81" y="939.24" width="4.83" height="1.31" class="down-body"/>
<line x1="786.65" y1="941.92" x2="786.65" y2="946.00" class="up-wick"/>
<rect x="784.24" y="941.92" width="4.83" height="3.19" class="up-body"/>
<line x1="794.08" y1="946.45" x2="794.08" y2="950.03" class="down-wick"/>
<rect x="791.67" y="947.76" width="4.83" height="1.44" class="down-body"/>
<line x1="801.51" y1="938.79" x2="801.51" y2="945.33" class="up-wick"/>
<rect x="799.09" y="941.82" width="4.83" height="3.51" class="up-body"/>
<line x1="808.93" y1="936.78" x2="808.93" y2="940.07" class="up-wick"/>
<rect x="806.52" y="937.26" width="4.83" height="1.95" class="up-body"/>
<line x1="816.36" y1="936.59" x2="816.36" y2="939.97" class="down-wick"/>
<rect x="813.95" y="937.29" width="4.83" height="1.00" class="down-body"/>
<line x1="823.79" y1="942.21" x2="823.79" y2="949.07" class="down-wick"/>
<rect x="821.37" y="944.41" width="4.83" height="4.63" class="down-body"/>
<line x1="831.21" y1="945.30" x2="831.21" y2="952.10" class="up-wick"/>
<rect x="828.80" y="947.41" width="4.83" height="4.12" class="up-body"/>
<line x1="838.64" y1="946.87" x2="838.64" y2="952.13" class="down-wick"/>
<rect x="836.23" y="947.19" width="4.83" height="2.23" class="down-body"/>
<line x1="846.07" y1="944.03" x2="846.07" y2="949.51" class="down-wick"/>
<rect x="843.65" y="944.95" width="4.83" height="1.00" class="down-body"/>
<line x1="853.49" y1="941.82" x2="853.49" y2="946.39" class="down-wick"/>
<rect x="851.08" y="944.79" width="4.83" height="1.00" class="down-body"/>
<line x1="860.92" y1="942.53" x2="860.92" y2="949.83" class="up-wick"/>
<rect x="858.51" y="943.32" width="4.83" height="5.04" class="up-body"/>
<line x1="868.35" y1="941.47" x2="868.35" y2="945.97" class="up-wick"/>
<rect x="865.93" y="943.07" width="4.83" height="2.20" class="up-body"/>
<line x1="875.77" y1="943.04" x2="875.77" y2="945.59" class="down-wick"/>
<rect x="873.36" y="943.36" width="4.83" height="1.18" class="down-body"/>
<line x1="883.20" y1="939.72" x2="883.20" y2="944.09" class="down-wick"/>
<rect x="880.78" y="941.06" width="4.83" height="2.33" class="down-body"/>
<line x1="890.62" y1="939.21" x2="890.62" y2="943.93" class="down-wick"/>
<rect x="888.21" y="939.27" width="4.83" height="2.49" class="down-body"/>
<line x1="898.05" y1="941.54" x2="898.05" y2="945.72" class="down-wick"/>
<rect x="895.64" y="941.70" width="4.83" height="3.35" class="down-body"/>
<line x1="905.48" y1="948.30" x2="905.48" y2="953.57" class="down-wick"/>
<rect x="903.06" y="948.40" width="4.83" height="5.17" class="down-body"/>
<line x1="912.90" y1="940.17" x2="912.90" y2="952.48" class="up-wick"/>
<rect x="910.49" y="942.62" width="4.83" height="9.09" class="up-body"/>
<line x1="920.33" y1="931.20" x2="920.33" y2="945.05" class="up-wick"/>
<rect x="917.92" y="931.52" width="4.83" height="12.44" class="up-body"/>
<line x1="927.76" y1="921.59" x2="927.76" y2="931.42" class="down-wick"/>
<rect x="925.34" y="927.94" width="4.83" height="2.81" class="down-body"/>
<line x1="935.18" y1="935.31" x2="935.18" y2="941.09" class="up-wick"/>
<rect x="932.77" y="936.91" width="4.83" height="3.77" class="up-body"/>
<line x1="942.61" y1="940.01" x2="942.61" y2="944.89" class="down-wick"/>
<rect x="940.20" y="943.01" width="4.83" height="1.00" class="down-body"/>
<line x1="950.04" y1="941.70" x2="950.04" y2="947.73" class="down-wick"/>
<rect x="947.62" y="943.71" width="4.83" height="3.80" class="down-body"/>
<line x1="957.46" y1="955.77" x2="957.46" y2="980.63" class="down-wick"/>
<rect x="955.05" y="956.44" width="4.83" height="14.55" class="down-body"/>
<line x1="964.89" y1="975.39" x2="964.89" y2="985.45" class="down-wick"/>
<rect x="962.48" y="975.84" width="4.83" height="6.70" class="down-body"/>
<line x1="972.32" y1="983.56" x2="972.32" y2="992.24" class="down-wick"/>
<rect x="969.90" y="983.75" width="4.83" height="4.85" class="down-body"/>
<line x1="979.74" y1="974.79" x2="979.74" y2="987.49" class="down-wick"/>
<rect x="977.33" y="983.12" width="4.83" height="1.79" class="down-body"/>
<line x1="987.17" y1="987.90" x2="987.17" y2="1001.40" class="down-wick"/>
<rect x="984.76" y="993.97" width="4.83" height="6.89" class="down-body"/>
<line x1="994.60" y1="992.08" x2="994.60" y2="1006.76" class="up-wick"/>
<rect x="992.18" y="992.18" width="4.83" height="14.46" class="up-body"/>
<line x1="1002.02" y1="1004.88" x2="1002.02" y2="1024.76" class="down-wick"/>
<rect x="999.61" y="1005.39" width="4.83" height="18.48" class="down-body"/>
<line x1="1009.45" y1="1004.11" x2="1009.45" y2="1018.57" class="up-wick"/>
<rect x="1007.03" y="1005.80" width="4.83" height="12.76" class="up-body"/>
<line x1="1016.88" y1="1005.58" x2="1016.88" y2="1014.00" class="down-wick"/>
<rect x="1014.46" y="1007.40" width="4.83" height="5.04" class="down-body"/>
<line x1="1024.30" y1="1002.96" x2="1024.30" y2="1014.87" class="up-wick"/>
<rect x="1021.89" y="1006.95" width="4.83" height="4.34" class="up-body"/>
<line x1="1031.73" y1="995.91" x2="1031.73" y2="1004.18" class="up-wick"/>
<rect x="1029.31" y="995.98" width="4.83" height="6.41" class="up-body"/>
<line x1="1039.15" y1="986.88" x2="1039.15" y2="994.57" class="up-wick"/>
<rect x="1036.74" y="987.20" width="4.83" height="1.47" class="up-body"/>
<line x1="1046.58" y1="986.82" x2="1046.58" y2="995.69" class="up-wick"/>
<rect x="1044.17" y="986.82" width="4.83" height="4.18" class="up-body"/>
<line x1="1054.01" y1="974.15" x2="1054.01" y2="980.88" class="down-wick"/>
<rect x="1051.59" y="975.43" width="4.83" height="3.67" class="down-body"/>
<line x1="1061.43" y1="971.37" x2="1061.43" y2="977.88" class="down-wick"/>
<rect x="1059.02" y="977.02" width="4.83" height="1.00" class="down-body"/>
<line x1="1068.86" y1="965.63" x2="1068.86" y2="970.03" class="up-wick"/>
<rect x="1066.45" y="966.94" width="4.83" height="1.00" class="up-body"/>
<line x1="1076.29" y1="962.21" x2="1076.29" y2="971.76" class="up-wick"/>
<rect x="1073.87" y="963.78" width="4.83" height="7.02" class="up-body"/>
<line x1="70" y1="892.08" x2="1080" y2="892.08" class="number-line"/>
<text x="1076" y="888.08" text-anchor="end" class="level-label">round 4690.00</text>
<line x1="70" y1="892.08" x2="1080" y2="892.08" class="entry-line"/>
<text x="1076" y="888.08" text-anchor="end" class="level-label">entry level 4690.00</text>
<text x="70" y="1056" class="axis-label">2026-05-11 04:45:00+00:00 to 2026-05-11 09:15:00+00:00</text>
<text x="1080" y="1056" text-anchor="end" class="axis-label">4644.27 - 4704.44</text>
</svg>