<svg xmlns="http://www.w3.org/2000/svg" width="1120" height="1054" viewBox="0 0 1120 1054">
<style>
text{font-family:Arial,Helvetica,sans-serif}.title{font-size:21px;font-weight:700;fill:#1f2937}.subtitle{font-size:12px;fill:#4b5563}.panel-title{font-size:15px;font-weight:700;fill:#111827}.muted{font-size:13px;fill:#6b7280}.plot-bg{fill:#f8fafc;stroke:#cbd5e1;stroke-width:1}.up-body{fill:#15803d;stroke:#14532d;stroke-width:.8}.down-body{fill:#b91c1c;stroke:#7f1d1d;stroke-width:.8}.up-wick{stroke:#14532d;stroke-width:1}.down-wick{stroke:#7f1d1d;stroke-width:1}.sweep-line{stroke:#7c3aed;stroke-width:1.6;stroke-dasharray:6 4}.number-line{stroke:#0f766e;stroke-width:1.4;stroke-dasharray:3 4}.entry-line{stroke:#2563eb;stroke-width:1.4}.sl-line{stroke:#dc2626;stroke-width:1.4}.tp-line{stroke:#16a34a;stroke-width:1.4}.level-label,.axis-label{font-size:11px;fill:#374151}
</style>
<text x="28" y="28" class="title">Adelin v2 visual review sample sample_294</text>
<text x="28" y="48" class="subtitle">Candidate windows are for visual labeling only and are not trade signals.</text>
<text x="560" y="48" class="subtitle" text-anchor="middle">NUMBER_THEORY_LEVEL_NEAR | ROUND_LEVEL_ENTRY_METADATA_AVAILABLE</text>
<text x="70" y="82" class="panel-title">H1 liquidity context</text>
<rect x="70" y="96" width="1010" height="192" class="plot-bg"/>
<line x1="80.74" y1="116.27" x2="80.74" y2="126.59" class="up-wick"/>
<rect x="76.74" y="116.66" width="8.00" height="9.62" class="up-body"/>
<line x1="102.23" y1="109.24" x2="102.23" y2="122.19" class="down-wick"/>
<rect x="98.23" y="116.65" width="8.00" height="3.32" class="down-body"/>
<line x1="123.72" y1="118.22" x2="123.72" y2="128.75" class="down-wick"/>
<rect x="119.72" y="119.97" width="8.00" height="6.77" class="down-body"/>
<line x1="145.21" y1="126.10" x2="145.21" y2="134.39" class="down-wick"/>
<rect x="141.21" y="126.74" width="8.00" height="5.78" class="down-body"/>
<line x1="166.70" y1="124.99" x2="166.70" y2="134.64" class="up-wick"/>
<rect x="162.70" y="125.69" width="8.00" height="6.84" class="up-body"/>
<line x1="188.19" y1="119.50" x2="188.19" y2="128.17" class="up-wick"/>
<rect x="184.19" y="123.93" width="8.00" height="1.75" class="up-body"/>
<line x1="209.68" y1="123.60" x2="209.68" y2="141.03" class="down-wick"/>
<rect x="205.68" y="123.93" width="8.00" height="16.11" class="down-body"/>
<line x1="231.17" y1="138.45" x2="231.17" y2="157.90" class="down-wick"/>
<rect x="227.17" y="140.05" width="8.00" height="13.60" class="down-body"/>
<line x1="252.66" y1="149.51" x2="252.66" y2="159.79" class="down-wick"/>
<rect x="248.66" y="153.70" width="8.00" height="2.76" class="down-body"/>
<line x1="274.15" y1="140.79" x2="274.15" y2="156.82" class="up-wick"/>
<rect x="270.15" y="148.67" width="8.00" height="7.78" class="up-body"/>
<line x1="295.64" y1="144.14" x2="295.64" y2="156.26" class="down-wick"/>
<rect x="291.64" y="148.67" width="8.00" height="2.59" class="down-body"/>
<line x1="317.13" y1="149.95" x2="317.13" y2="176.25" class="down-wick"/>
<rect x="313.13" y="151.25" width="8.00" height="19.16" class="down-body"/>
<line x1="338.62" y1="165.97" x2="338.62" y2="174.10" class="up-wick"/>
<rect x="334.62" y="169.89" width="8.00" height="1.00" class="up-body"/>
<line x1="360.11" y1="166.58" x2="360.11" y2="172.15" class="down-wick"/>
<rect x="356.11" y="169.92" width="8.00" height="2.23" class="down-body"/>
<line x1="381.60" y1="160.89" x2="381.60" y2="183.45" class="up-wick"/>
<rect x="377.60" y="170.75" width="8.00" height="2.90" class="up-body"/>
<line x1="403.09" y1="167.49" x2="403.09" y2="182.71" class="down-wick"/>
<rect x="399.09" y="170.84" width="8.00" height="8.71" class="down-body"/>
<line x1="424.57" y1="177.27" x2="424.57" y2="217.16" class="down-wick"/>
<rect x="420.57" y="179.55" width="8.00" height="28.69" class="down-body"/>
<line x1="446.06" y1="182.28" x2="446.06" y2="214.52" class="up-wick"/>
<rect x="442.06" y="199.56" width="8.00" height="8.69" class="up-body"/>
<line x1="467.55" y1="190.60" x2="467.55" y2="208.08" class="down-wick"/>
<rect x="463.55" y="199.56" width="8.00" height="7.04" class="down-body"/>
<line x1="489.04" y1="202.05" x2="489.04" y2="213.20" class="down-wick"/>
<rect x="485.04" y="206.60" width="8.00" height="2.00" class="down-body"/>
<line x1="510.53" y1="201.12" x2="510.53" y2="209.27" class="up-wick"/>
<rect x="506.53" y="204.83" width="8.00" height="3.77" class="up-body"/>
<line x1="532.02" y1="201.55" x2="532.02" y2="221.74" class="down-wick"/>
<rect x="528.02" y="204.83" width="8.00" height="14.84" class="down-body"/>
<line x1="553.51" y1="219.65" x2="553.51" y2="258.03" class="down-wick"/>
<rect x="549.51" y="219.67" width="8.00" height="23.44" class="down-body"/>
<line x1="575.00" y1="239.91" x2="575.00" y2="274.76" class="down-wick"/>
<rect x="571.00" y="243.10" width="8.00" height="4.16" class="down-body"/>
<line x1="596.49" y1="230.04" x2="596.49" y2="247.51" class="up-wick"/>
<rect x="592.49" y="235.06" width="8.00" height="12.20" class="up-body"/>
<line x1="617.98" y1="220.20" x2="617.98" y2="242.22" class="up-wick"/>
<rect x="613.98" y="234.41" width="8.00" height="1.00" class="up-body"/>
<line x1="639.47" y1="227.08" x2="639.47" y2="237.64" class="up-wick"/>
<rect x="635.47" y="230.41" width="8.00" height="3.91" class="up-body"/>
<line x1="660.96" y1="180.02" x2="660.96" y2="230.41" class="up-wick"/>
<rect x="656.96" y="201.81" width="8.00" height="28.60" class="up-body"/>
<line x1="682.45" y1="172.30" x2="682.45" y2="212.76" class="up-wick"/>
<rect x="678.45" y="175.99" width="8.00" height="25.82" class="up-body"/>
<line x1="703.94" y1="174.13" x2="703.94" y2="195.92" class="down-wick"/>
<rect x="699.94" y="175.99" width="8.00" height="6.18" class="down-body"/>
<line x1="725.43" y1="167.00" x2="725.43" y2="182.43" class="up-wick"/>
<rect x="721.43" y="180.31" width="8.00" height="1.87" class="up-body"/>
<line x1="746.91" y1="173.74" x2="746.91" y2="209.09" class="down-wick"/>
<rect x="742.91" y="180.29" width="8.00" height="25.48" class="down-body"/>
<line x1="768.40" y1="198.55" x2="768.40" y2="208.69" class="up-wick"/>
<rect x="764.40" y="202.75" width="8.00" height="3.01" class="up-body"/>
<line x1="789.89" y1="186.24" x2="789.89" y2="203.95" class="up-wick"/>
<rect x="785.89" y="189.52" width="8.00" height="13.23" class="up-body"/>
<line x1="811.38" y1="178.93" x2="811.38" y2="195.72" class="up-wick"/>
<rect x="807.38" y="183.59" width="8.00" height="5.93" class="up-body"/>
<line x1="832.87" y1="183.18" x2="832.87" y2="198.17" class="down-wick"/>
<rect x="828.87" y="183.59" width="8.00" height="13.33" class="down-body"/>
<line x1="854.36" y1="192.91" x2="854.36" y2="200.76" class="up-wick"/>
<rect x="850.36" y="194.84" width="8.00" height="2.08" class="up-body"/>
<line x1="875.85" y1="188.19" x2="875.85" y2="206.42" class="up-wick"/>
<rect x="871.85" y="189.35" width="8.00" height="2.70" class="up-body"/>
<line x1="897.34" y1="183.76" x2="897.34" y2="190.69" class="up-wick"/>
<rect x="893.34" y="185.68" width="8.00" height="3.68" class="up-body"/>
<line x1="918.83" y1="184.25" x2="918.83" y2="214.16" class="down-wick"/>
<rect x="914.83" y="185.68" width="8.00" height="19.87" class="down-body"/>
<line x1="940.32" y1="203.06" x2="940.32" y2="220.27" class="down-wick"/>
<rect x="936.32" y="205.55" width="8.00" height="10.99" class="down-body"/>
<line x1="961.81" y1="201.73" x2="961.81" y2="220.82" class="up-wick"/>
<rect x="957.81" y="205.15" width="8.00" height="11.39" class="up-body"/>
<line x1="983.30" y1="204.57" x2="983.30" y2="213.24" class="down-wick"/>
<rect x="979.30" y="205.15" width="8.00" height="4.91" class="down-body"/>
<line x1="1004.79" y1="207.51" x2="1004.79" y2="215.41" class="down-wick"/>
<rect x="1000.79" y="210.06" width="8.00" height="3.58" class="down-body"/>
<line x1="1026.28" y1="203.07" x2="1026.28" y2="217.18" class="up-wick"/>
<rect x="1022.28" y="210.05" width="8.00" height="3.59" class="up-body"/>
<line x1="1047.77" y1="195.07" x2="1047.77" y2="211.18" class="up-wick"/>
<rect x="1043.77" y="195.82" width="8.00" height="14.23" class="up-body"/>
<line x1="1069.26" y1="187.84" x2="1069.26" y2="196.44" class="up-wick"/>
<rect x="1065.26" y="191.86" width="8.00" height="3.96" class="up-body"/>
<line x1="70" y1="266.57" x2="1080" y2="266.57" class="number-line"/>
<text x="1076" y="262.57" text-anchor="end" class="level-label">round 4130.00</text>
<line x1="70" y1="266.57" x2="1080" y2="266.57" class="entry-line"/>
<text x="1076" y="262.57" text-anchor="end" class="level-label">entry level 4130.00</text>
<text x="70" y="306" class="axis-label">2026-03-20 09:00:00+00:00 to 2026-03-24 09:00:00+00:00</text>
<text x="1080" y="306" text-anchor="end" class="axis-label">4047.62 - 4785.78</text>
<text x="70" y="332" class="panel-title">M15 liquidity / reaction context</text>
<rect x="70" y="346" width="1010" height="192" class="plot-bg"/>
<line x1="78.28" y1="366.80" x2="78.28" y2="392.02" class="up-wick"/>
<rect x="74.28" y="369.85" width="8.00" height="7.93" class="up-body"/>
<line x1="94.84" y1="359.24" x2="94.84" y2="371.48" class="up-wick"/>
<rect x="90.84" y="363.74" width="8.00" height="6.37" class="up-body"/>
<line x1="111.39" y1="362.87" x2="111.39" y2="371.03" class="down-wick"/>
<rect x="107.39" y="363.74" width="8.00" height="6.53" class="down-body"/>
<line x1="127.95" y1="367.17" x2="127.95" y2="376.66" class="down-wick"/>
<rect x="123.95" y="370.25" width="8.00" height="3.32" class="down-body"/>
<line x1="144.51" y1="368.83" x2="144.51" y2="378.58" class="down-wick"/>
<rect x="140.51" y="373.70" width="8.00" height="2.97" class="down-body"/>
<line x1="161.07" y1="372.95" x2="161.07" y2="379.60" class="down-wick"/>
<rect x="157.07" y="376.67" width="8.00" height="1.83" class="down-body"/>
<line x1="177.62" y1="376.42" x2="177.62" y2="383.40" class="up-wick"/>
<rect x="173.62" y="377.31" width="8.00" height="1.20" class="up-body"/>
<line x1="194.18" y1="375.39" x2="194.18" y2="390.96" class="down-wick"/>
<rect x="190.18" y="377.31" width="8.00" height="9.06" class="down-body"/>
<line x1="210.74" y1="383.05" x2="210.74" y2="401.11" class="down-wick"/>
<rect x="206.74" y="386.36" width="8.00" height="10.52" class="down-body"/>
<line x1="227.30" y1="393.55" x2="227.30" y2="409.08" class="down-wick"/>
<rect x="223.30" y="396.88" width="8.00" height="3.67" class="down-body"/>
<line x1="243.85" y1="396.91" x2="243.85" y2="437.16" class="down-wick"/>
<rect x="239.85" y="400.55" width="8.00" height="24.58" class="down-body"/>
<line x1="260.41" y1="421.83" x2="260.41" y2="441.03" class="down-wick"/>
<rect x="256.41" y="424.83" width="8.00" height="3.24" class="down-body"/>
<line x1="276.97" y1="402.19" x2="276.97" y2="437.19" class="up-wick"/>
<rect x="272.97" y="407.71" width="8.00" height="20.38" class="up-body"/>
<line x1="293.52" y1="394.28" x2="293.52" y2="408.02" class="up-wick"/>
<rect x="289.52" y="402.36" width="8.00" height="5.21" class="up-body"/>
<line x1="310.08" y1="390.34" x2="310.08" y2="404.51" class="up-wick"/>
<rect x="306.08" y="397.37" width="8.00" height="4.99" class="up-body"/>
<line x1="326.64" y1="396.93" x2="326.64" y2="417.84" class="down-wick"/>
<rect x="322.64" y="397.37" width="8.00" height="18.08" class="down-body"/>
<line x1="343.20" y1="402.43" x2="343.20" y2="417.13" class="up-wick"/>
<rect x="339.20" y="412.39" width="8.00" height="3.06" class="up-body"/>
<line x1="359.75" y1="404.38" x2="359.75" y2="413.03" class="up-wick"/>
<rect x="355.75" y="411.06" width="8.00" height="1.33" class="up-body"/>
<line x1="376.31" y1="410.51" x2="376.31" y2="422.30" class="down-wick"/>
<rect x="372.31" y="411.06" width="8.00" height="5.48" class="down-body"/>
<line x1="392.87" y1="416.54" x2="392.87" y2="427.83" class="down-wick"/>
<rect x="388.87" y="416.54" width="8.00" height="9.14" class="down-body"/>
<line x1="409.43" y1="419.07" x2="409.43" y2="430.45" class="down-wick"/>
<rect x="405.43" y="425.68" width="8.00" height="4.12" class="down-body"/>
<line x1="425.98" y1="423.74" x2="425.98" y2="430.77" class="up-wick"/>
<rect x="421.98" y="429.23" width="8.00" height="1.00" class="up-body"/>
<line x1="442.54" y1="424.17" x2="442.54" y2="435.28" class="down-wick"/>
<rect x="438.54" y="429.23" width="8.00" height="3.49" class="down-body"/>
<line x1="459.10" y1="425.84" x2="459.10" y2="434.62" class="up-wick"/>
<rect x="455.10" y="428.58" width="8.00" height="4.13" class="up-body"/>
<line x1="475.66" y1="421.93" x2="475.66" y2="428.58" class="up-wick"/>
<rect x="471.66" y="424.47" width="8.00" height="4.11" class="up-body"/>
<line x1="492.21" y1="421.84" x2="492.21" y2="425.44" class="up-wick"/>
<rect x="488.21" y="422.66" width="8.00" height="1.81" class="up-body"/>
<line x1="508.77" y1="417.71" x2="508.77" y2="425.81" class="up-wick"/>
<rect x="504.77" y="420.12" width="8.00" height="2.54" class="up-body"/>
<line x1="525.33" y1="419.66" x2="525.33" y2="429.56" class="down-wick"/>
<rect x="521.33" y="420.12" width="8.00" height="2.99" class="down-body"/>
<line x1="541.89" y1="418.34" x2="541.89" y2="423.65" class="up-wick"/>
<rect x="537.89" y="421.13" width="8.00" height="1.97" class="up-body"/>
<line x1="558.44" y1="420.58" x2="558.44" y2="429.03" class="down-wick"/>
<rect x="554.44" y="421.13" width="8.00" height="6.23" class="down-body"/>
<line x1="575.00" y1="427.37" x2="575.00" y2="440.97" class="down-wick"/>
<rect x="571.00" y="427.37" width="8.00" height="12.84" class="down-body"/>
<line x1="591.56" y1="438.51" x2="591.56" y2="447.69" class="down-wick"/>
<rect x="587.56" y="440.20" width="8.00" height="4.47" class="down-body"/>
<line x1="608.11" y1="444.66" x2="608.11" y2="459.68" class="down-wick"/>
<rect x="604.11" y="444.67" width="8.00" height="5.96" class="down-body"/>
<line x1="624.67" y1="444.81" x2="624.67" y2="471.47" class="down-wick"/>
<rect x="620.67" y="450.65" width="8.00" height="19.10" class="down-body"/>
<line x1="641.23" y1="467.54" x2="641.23" y2="493.03" class="down-wick"/>
<rect x="637.23" y="469.75" width="8.00" height="23.06" class="down-body"/>
<line x1="657.79" y1="474.91" x2="657.79" y2="500.45" class="up-wick"/>
<rect x="653.79" y="478.74" width="8.00" height="14.08" class="up-body"/>
<line x1="674.34" y1="478.04" x2="674.34" y2="514.16" class="down-wick"/>
<rect x="670.34" y="478.74" width="8.00" height="33.97" class="down-body"/>
<line x1="690.90" y1="501.52" x2="690.90" y2="524.76" class="up-wick"/>
<rect x="686.90" y="510.71" width="8.00" height="2.00" class="up-body"/>
<line x1="707.46" y1="480.22" x2="707.46" y2="513.06" class="up-wick"/>
<rect x="703.46" y="480.62" width="8.00" height="30.09" class="up-body"/>
<line x1="724.02" y1="474.10" x2="724.02" y2="491.49" class="down-wick"/>
<rect x="720.02" y="480.62" width="8.00" height="4.17" class="down-body"/>
<line x1="740.57" y1="465.32" x2="740.57" y2="485.15" class="up-wick"/>
<rect x="736.57" y="466.30" width="8.00" height="18.49" class="up-body"/>
<line x1="757.13" y1="465.17" x2="757.13" y2="482.10" class="down-wick"/>
<rect x="753.13" y="466.29" width="8.00" height="9.95" class="down-body"/>
<line x1="773.69" y1="459.76" x2="773.69" y2="477.85" class="up-wick"/>
<rect x="769.69" y="464.68" width="8.00" height="11.58" class="up-body"/>
<line x1="790.25" y1="460.08" x2="790.25" y2="478.94" class="down-wick"/>
<rect x="786.25" y="464.68" width="8.00" height="2.37" class="down-body"/>
<line x1="806.80" y1="460.24" x2="806.80" y2="468.88" class="up-wick"/>
<rect x="802.80" y="460.32" width="8.00" height="6.74" class="up-body"/>
<line x1="823.36" y1="447.06" x2="823.36" y2="460.83" class="up-wick"/>
<rect x="819.36" y="447.08" width="8.00" height="13.24" class="up-body"/>
<line x1="839.92" y1="445.45" x2="839.92" y2="476.92" class="down-wick"/>
<rect x="835.92" y="447.08" width="8.00" height="29.52" class="down-body"/>
<line x1="856.48" y1="464.81" x2="856.48" y2="477.45" class="up-wick"/>
<rect x="852.48" y="466.10" width="8.00" height="10.50" class="up-body"/>
<line x1="873.03" y1="458.99" x2="873.03" y2="469.82" class="up-wick"/>
<rect x="869.03" y="462.25" width="8.00" height="3.73" class="up-body"/>
<line x1="889.59" y1="458.07" x2="889.59" y2="465.11" class="up-wick"/>
<rect x="885.59" y="460.35" width="8.00" height="1.89" class="up-body"/>
<line x1="906.15" y1="460.13" x2="906.15" y2="470.80" class="down-wick"/>
<rect x="902.15" y="460.35" width="8.00" height="4.45" class="down-body"/>
<line x1="922.70" y1="455.46" x2="922.70" y2="467.53" class="up-wick"/>
<rect x="918.70" y="460.29" width="8.00" height="4.52" class="up-body"/>
<line x1="939.26" y1="387.05" x2="939.26" y2="460.29" class="up-wick"/>
<rect x="935.26" y="389.26" width="8.00" height="71.03" class="up-body"/>
<line x1="955.82" y1="387.63" x2="955.82" y2="427.76" class="down-wick"/>
<rect x="951.82" y="389.26" width="8.00" height="21.70" class="down-body"/>
<line x1="972.38" y1="398.59" x2="972.38" y2="416.91" class="up-wick"/>
<rect x="968.38" y="406.04" width="8.00" height="4.85" class="up-body"/>
<line x1="988.93" y1="404.25" x2="988.93" y2="425.33" class="down-wick"/>
<rect x="984.93" y="406.04" width="8.00" height="12.69" class="down-body"/>
<line x1="1005.49" y1="418.17" x2="1005.49" y2="434.64" class="down-wick"/>
<rect x="1001.49" y="418.72" width="8.00" height="9.81" class="down-body"/>
<line x1="1022.05" y1="408.80" x2="1022.05" y2="428.70" class="up-wick"/>
<rect x="1018.05" y="414.50" width="8.00" height="14.04" class="up-body"/>
<line x1="1038.61" y1="394.90" x2="1038.61" y2="420.39" class="up-wick"/>
<rect x="1034.61" y="395.09" width="8.00" height="19.41" class="up-body"/>
<line x1="1055.16" y1="375.82" x2="1055.16" y2="398.18" class="up-wick"/>
<rect x="1051.16" y="381.19" width="8.00" height="13.91" class="up-body"/>
<line x1="1071.72" y1="378.48" x2="1071.72" y2="398.76" class="down-wick"/>
<rect x="1067.72" y="381.19" width="8.00" height="12.00" class="down-body"/>
<line x1="70" y1="512.86" x2="1080" y2="512.86" class="number-line"/>
<text x="1076" y="508.86" text-anchor="end" class="level-label">round 4130.00</text>
<line x1="70" y1="512.86" x2="1080" y2="512.86" class="entry-line"/>
<text x="1076" y="508.86" text-anchor="end" class="level-label">entry level 4130.00</text>
<text x="70" y="556" class="axis-label">2026-03-23 00:00:00+00:00 to 2026-03-23 15:00:00+00:00</text>
<text x="1080" y="556" text-anchor="end" class="axis-label">4063.51 - 4571.31</text>
<text x="70" y="582" class="panel-title">M5 reaction / execution context</text>
<rect x="70" y="596" width="1010" height="192" class="plot-bg"/>
<line x1="79.18" y1="609.24" x2="79.18" y2="631.52" class="down-wick"/>
<rect x="75.18" y="609.24" width="8.00" height="14.80" class="down-body"/>
<line x1="97.55" y1="619.43" x2="97.55" y2="630.94" class="down-wick"/>
<rect x="93.55" y="624.04" width="8.00" height="4.13" class="down-body"/>
<line x1="115.91" y1="626.48" x2="115.91" y2="632.36" class="down-wick"/>
<rect x="111.91" y="628.17" width="8.00" height="2.89" class="down-body"/>
<line x1="134.27" y1="628.17" x2="134.27" y2="632.88" class="down-wick"/>
<rect x="130.27" y="631.06" width="8.00" height="1.00" class="down-body"/>
<line x1="152.64" y1="629.72" x2="152.64" y2="642.83" class="down-wick"/>
<rect x="148.64" y="631.98" width="8.00" height="10.82" class="down-body"/>
<line x1="171.00" y1="630.94" x2="171.00" y2="643.79" class="up-wick"/>
<rect x="167.00" y="638.65" width="8.00" height="4.15" class="up-body"/>
<line x1="189.36" y1="638.63" x2="189.36" y2="654.32" class="down-wick"/>
<rect x="185.36" y="638.65" width="8.00" height="15.11" class="down-body"/>
<line x1="207.73" y1="653.77" x2="207.73" y2="664.16" class="down-wick"/>
<rect x="203.73" y="653.77" width="8.00" height="7.37" class="down-body"/>
<line x1="226.09" y1="648.09" x2="226.09" y2="663.62" class="up-wick"/>
<rect x="222.09" y="648.79" width="8.00" height="12.35" class="up-body"/>
<line x1="244.45" y1="638.88" x2="244.45" y2="659.81" class="down-wick"/>
<rect x="240.45" y="648.81" width="8.00" height="5.90" class="down-body"/>
<line x1="262.82" y1="654.67" x2="262.82" y2="663.49" class="down-wick"/>
<rect x="258.82" y="654.70" width="8.00" height="6.50" class="down-body"/>
<line x1="281.18" y1="656.36" x2="281.18" y2="684.19" class="down-wick"/>
<rect x="277.18" y="661.23" width="8.00" height="20.05" class="down-body"/>
<line x1="299.55" y1="677.51" x2="299.55" y2="695.18" class="down-wick"/>
<rect x="295.55" y="681.28" width="8.00" height="4.28" class="down-body"/>
<line x1="317.91" y1="681.91" x2="317.91" y2="699.57" class="down-wick"/>
<rect x="313.91" y="685.55" width="8.00" height="1.88" class="down-body"/>
<line x1="336.27" y1="681.24" x2="336.27" y2="720.83" class="down-wick"/>
<rect x="332.27" y="687.44" width="8.00" height="33.04" class="down-body"/>
<line x1="354.64" y1="705.08" x2="354.64" y2="733.44" class="up-wick"/>
<rect x="350.64" y="705.10" width="8.00" height="15.38" class="up-body"/>
<line x1="373.00" y1="690.03" x2="373.00" y2="707.00" class="up-wick"/>
<rect x="369.00" y="701.41" width="8.00" height="3.69" class="up-body"/>
<line x1="391.36" y1="691.06" x2="391.36" y2="705.08" class="up-wick"/>
<rect x="387.36" y="696.55" width="8.00" height="4.86" class="up-body"/>
<line x1="409.73" y1="695.35" x2="409.73" y2="722.38" class="down-wick"/>
<rect x="405.73" y="696.55" width="8.00" height="25.65" class="down-body"/>
<line x1="428.09" y1="722.06" x2="428.09" y2="753.23" class="down-wick"/>
<rect x="424.09" y="722.20" width="8.00" height="14.39" class="down-body"/>
<line x1="446.45" y1="728.31" x2="446.45" y2="756.75" class="down-wick"/>
<rect x="442.45" y="736.52" width="8.00" height="17.75" class="down-body"/>
<line x1="464.82" y1="735.26" x2="464.82" y2="765.13" class="down-wick"/>
<rect x="460.82" y="754.28" width="8.00" height="8.60" class="down-body"/>
<line x1="483.18" y1="744.29" x2="483.18" y2="774.76" class="up-wick"/>
<rect x="479.18" y="754.11" width="8.00" height="8.77" class="up-body"/>
<line x1="501.55" y1="748.43" x2="501.55" y2="765.51" class="up-wick"/>
<rect x="497.55" y="750.88" width="8.00" height="3.23" class="up-body"/>
<line x1="519.91" y1="731.99" x2="519.91" y2="754.87" class="up-wick"/>
<rect x="515.91" y="737.84" width="8.00" height="13.04" class="up-body"/>
<line x1="538.27" y1="709.71" x2="538.27" y2="740.46" class="up-wick"/>
<rect x="534.27" y="722.18" width="8.00" height="15.67" class="up-body"/>
<line x1="556.64" y1="699.07" x2="556.64" y2="727.45" class="up-wick"/>
<rect x="552.64" y="699.75" width="8.00" height="22.43" class="up-body"/>
<line x1="575.00" y1="688.66" x2="575.00" y2="705.88" class="down-wick"/>
<rect x="571.00" y="699.75" width="8.00" height="1.00" class="down-body"/>
<line x1="593.36" y1="695.68" x2="593.36" y2="716.95" class="down-wick"/>
<rect x="589.36" y="700.05" width="8.00" height="10.44" class="down-body"/>
<line x1="611.73" y1="706.32" x2="611.73" y2="718.22" class="up-wick"/>
<rect x="607.73" y="706.83" width="8.00" height="3.65" class="up-body"/>
<line x1="630.09" y1="691.29" x2="630.09" y2="707.45" class="up-wick"/>
<rect x="626.09" y="696.91" width="8.00" height="9.92" class="up-body"/>
<line x1="648.45" y1="682.49" x2="648.45" y2="700.30" class="up-wick"/>
<rect x="644.45" y="688.03" width="8.00" height="8.91" class="up-body"/>
<line x1="666.82" y1="673.74" x2="666.82" y2="693.91" class="up-wick"/>
<rect x="662.82" y="675.41" width="8.00" height="12.62" class="up-body"/>
<line x1="685.18" y1="673.48" x2="685.18" y2="701.61" class="down-wick"/>
<rect x="681.18" y="675.39" width="8.00" height="21.48" class="down-body"/>
<line x1="703.55" y1="690.90" x2="703.55" y2="702.26" class="up-wick"/>
<rect x="699.55" y="696.19" width="8.00" height="1.00" class="up-body"/>
<line x1="721.91" y1="687.48" x2="721.91" y2="701.48" class="up-wick"/>
<rect x="717.91" y="692.30" width="8.00" height="3.92" class="up-body"/>
<line x1="740.27" y1="668.69" x2="740.27" y2="695.04" class="up-wick"/>
<rect x="736.27" y="668.92" width="8.00" height="23.42" class="up-body"/>
<line x1="758.64" y1="664.29" x2="758.64" y2="687.52" class="down-wick"/>
<rect x="754.64" y="668.92" width="8.00" height="16.14" class="down-body"/>
<line x1="777.00" y1="671.82" x2="777.00" y2="685.54" class="up-wick"/>
<rect x="773.00" y="672.66" width="8.00" height="12.41" class="up-body"/>
<line x1="795.36" y1="664.84" x2="795.36" y2="683.23" class="down-wick"/>
<rect x="791.36" y="672.66" width="8.00" height="10.02" class="down-body"/>
<line x1="813.73" y1="682.68" x2="813.73" y2="692.97" class="down-wick"/>
<rect x="809.73" y="682.68" width="8.00" height="8.33" class="down-body"/>
<line x1="832.09" y1="675.34" x2="832.09" y2="696.89" class="up-wick"/>
<rect x="828.09" y="676.69" width="8.00" height="14.32" class="up-body"/>
<line x1="850.45" y1="670.87" x2="850.45" y2="679.80" class="up-wick"/>
<rect x="846.45" y="675.07" width="8.00" height="1.63" class="up-body"/>
<line x1="868.82" y1="672.59" x2="868.82" y2="677.22" class="up-wick"/>
<rect x="864.82" y="674.58" width="8.00" height="1.00" class="up-body"/>
<line x1="887.18" y1="665.11" x2="887.18" y2="675.57" class="up-wick"/>
<rect x="883.18" y="665.24" width="8.00" height="9.34" class="up-body"/>
<line x1="905.55" y1="650.75" x2="905.55" y2="666.12" class="up-wick"/>
<rect x="901.55" y="652.42" width="8.00" height="12.82" class="up-body"/>
<line x1="923.91" y1="644.47" x2="923.91" y2="655.69" class="down-wick"/>
<rect x="919.91" y="652.42" width="8.00" height="1.00" class="down-body"/>
<line x1="942.27" y1="642.71" x2="942.27" y2="653.09" class="up-wick"/>
<rect x="938.27" y="642.74" width="8.00" height="9.68" class="up-body"/>
<line x1="960.64" y1="639.98" x2="960.64" y2="657.92" class="down-wick"/>
<rect x="956.64" y="642.74" width="8.00" height="14.19" class="down-body"/>
<line x1="979.00" y1="655.08" x2="979.00" y2="684.10" class="down-wick"/>
<rect x="975.00" y="657.08" width="8.00" height="26.31" class="down-body"/>
<line x1="997.36" y1="677.75" x2="997.36" y2="693.45" class="down-wick"/>
<rect x="993.36" y="683.40" width="8.00" height="9.52" class="down-body"/>
<line x1="1015.73" y1="680.22" x2="1015.73" y2="694.36" class="up-wick"/>
<rect x="1011.73" y="685.36" width="8.00" height="7.55" class="up-body"/>
<line x1="1034.09" y1="678.26" x2="1034.09" y2="686.74" class="up-wick"/>
<rect x="1030.09" y="684.49" width="8.00" height="1.00" class="up-body"/>
<line x1="1052.45" y1="672.88" x2="1052.45" y2="685.85" class="up-wick"/>
<rect x="1048.45" y="675.07" width="8.00" height="9.41" class="up-body"/>
<line x1="1070.82" y1="670.16" x2="1070.82" y2="681.40" class="up-wick"/>
<rect x="1066.82" y="672.95" width="8.00" height="1.90" class="up-body"/>
<line x1="70" y1="754.54" x2="1080" y2="754.54" class="number-line"/>
<text x="1076" y="750.54" text-anchor="end" class="level-label">round 4130.00</text>
<line x1="70" y1="754.54" x2="1080" y2="754.54" class="entry-line"/>
<text x="1076" y="750.54" text-anchor="end" class="level-label">entry level 4130.00</text>
<text x="70" y="806" class="axis-label">2026-03-23 07:30:00+00:00 to 2026-03-23 12:00:00+00:00</text>
<text x="1080" y="806" text-anchor="end" class="axis-label">4077.92 - 4376.72</text>
<text x="70" y="832" class="panel-title">M1 execution window</text>
<rect x="70" y="846" width="1010" height="192" class="plot-bg"/>
<line x1="73.71" y1="859.24" x2="73.71" y2="875.79" class="down-wick"/>
<rect x="71.30" y="859.24" width="4.83" height="15.76" class="down-body"/>
<line x1="81.14" y1="875.34" x2="81.14" y2="879.15" class="up-wick"/>
<rect x="78.73" y="877.40" width="4.83" height="1.00" class="up-body"/>
<line x1="88.57" y1="870.36" x2="88.57" y2="881.36" class="up-wick"/>
<rect x="86.15" y="874.04" width="4.83" height="7.08" class="up-body"/>
<line x1="95.99" y1="870.13" x2="95.99" y2="876.35" class="up-wick"/>
<rect x="93.58" y="871.75" width="4.83" height="1.41" class="up-body"/>
<line x1="103.42" y1="869.43" x2="103.42" y2="878.86" class="down-wick"/>
<rect x="101.01" y="871.07" width="4.83" height="6.36" class="down-body"/>
<line x1="110.85" y1="878.17" x2="110.85" y2="882.36" class="down-wick"/>
<rect x="108.43" y="878.17" width="4.83" height="2.64" class="down-body"/>
<line x1="118.27" y1="876.48" x2="118.27" y2="879.48" class="down-wick"/>
<rect x="115.86" y="877.72" width="4.83" height="1.75" class="down-body"/>
<line x1="125.70" y1="876.76" x2="125.70" y2="882.07" class="down-wick"/>
<rect x="123.28" y="880.86" width="4.83" height="1.00" class="down-body"/>
<line x1="133.12" y1="881.19" x2="133.12" y2="882.61" class="up-wick"/>
<rect x="130.71" y="881.89" width="4.83" height="1.00" class="up-body"/>
<line x1="140.55" y1="878.34" x2="140.55" y2="882.59" class="up-wick"/>
<rect x="138.14" y="878.63" width="4.83" height="2.93" class="up-body"/>
<line x1="147.98" y1="879.72" x2="147.98" y2="882.81" class="up-wick"/>
<rect x="145.56" y="881.76" width="4.83" height="1.00" class="up-body"/>
<line x1="155.40" y1="885.62" x2="155.40" y2="890.93" class="down-wick"/>
<rect x="152.99" y="885.83" width="4.83" height="5.03" class="down-body"/>
<line x1="162.83" y1="888.64" x2="162.83" y2="892.83" class="down-wick"/>
<rect x="160.42" y="890.88" width="4.83" height="1.92" class="down-body"/>
<line x1="170.26" y1="882.23" x2="170.26" y2="886.98" class="up-wick"/>
<rect x="167.84" y="882.81" width="4.83" height="4.17" class="up-body"/>
<line x1="177.68" y1="882.32" x2="177.68" y2="888.14" class="down-wick"/>
<rect x="175.27" y="882.32" width="4.83" height="5.38" class="down-body"/>
<line x1="185.11" y1="888.63" x2="185.11" y2="893.58" class="down-wick"/>
<rect x="182.70" y="888.65" width="4.83" height="4.52" class="down-body"/>
<line x1="192.54" y1="892.55" x2="192.54" y2="900.42" class="down-wick"/>
<rect x="190.12" y="893.85" width="4.83" height="5.64" class="down-body"/>
<line x1="199.96" y1="896.92" x2="199.96" y2="904.32" class="down-wick"/>
<rect x="197.55" y="899.20" width="4.83" height="4.57" class="down-body"/>
<line x1="207.39" y1="906.14" x2="207.39" y2="910.01" class="down-wick"/>
<rect x="204.98" y="909.44" width="4.83" height="1.00" class="down-body"/>
<line x1="214.82" y1="905.85" x2="214.82" y2="911.62" class="down-wick"/>
<rect x="212.40" y="906.24" width="4.83" height="5.11" class="down-body"/>
<line x1="222.24" y1="906.41" x2="222.24" y2="911.14" class="up-wick"/>
<rect x="219.83" y="910.83" width="4.83" height="1.00" class="up-body"/>
<line x1="229.67" y1="908.41" x2="229.67" y2="913.12" class="up-wick"/>
<rect x="227.26" y="911.32" width="4.83" height="1.61" class="up-body"/>
<line x1="237.10" y1="898.09" x2="237.10" y2="912.07" class="up-wick"/>
<rect x="234.68" y="898.79" width="4.83" height="12.65" class="up-body"/>
<line x1="244.52" y1="895.24" x2="244.52" y2="901.55" class="down-wick"/>
<rect x="242.11" y="896.74" width="4.83" height="4.35" class="down-body"/>
<line x1="251.95" y1="900.78" x2="251.95" y2="909.31" class="down-wick"/>
<rect x="249.53" y="905.06" width="4.83" height="4.04" class="down-body"/>
<line x1="259.38" y1="904.67" x2="259.38" y2="911.31" class="down-wick"/>
<rect x="256.96" y="904.70" width="4.83" height="5.49" class="down-body"/>
<line x1="266.80" y1="909.72" x2="266.80" y2="913.49" class="down-wick"/>
<rect x="264.39" y="909.73" width="4.83" height="1.03" class="down-body"/>
<line x1="274.23" y1="910.17" x2="274.23" y2="913.06" class="up-wick"/>
<rect x="271.81" y="911.20" width="4.83" height="1.00" class="up-body"/>
<line x1="281.65" y1="908.08" x2="281.65" y2="915.01" class="down-wick"/>
<rect x="279.24" y="908.48" width="4.83" height="3.89" class="down-body"/>
<line x1="289.08" y1="915.76" x2="289.08" y2="927.05" class="down-wick"/>
<rect x="286.67" y="916.34" width="4.83" height="10.08" class="down-body"/>
<line x1="296.51" y1="927.96" x2="296.51" y2="935.13" class="down-wick"/>
<rect x="294.09" y="931.28" width="4.83" height="2.21" class="down-body"/>
<line x1="303.93" y1="930.59" x2="303.93" y2="942.88" class="down-wick"/>
<rect x="301.52" y="931.76" width="4.83" height="10.82" class="down-body"/>
<line x1="311.36" y1="935.34" x2="311.36" y2="945.18" class="up-wick"/>
<rect x="308.95" y="935.55" width="4.83" height="6.16" class="up-body"/>
<line x1="318.79" y1="938.11" x2="318.79" y2="948.78" class="down-wick"/>
<rect x="316.37" y="938.20" width="4.83" height="9.56" class="down-body"/>
<line x1="326.21" y1="937.70" x2="326.21" y2="948.19" class="up-wick"/>
<rect x="323.80" y="938.14" width="4.83" height="10.05" class="up-body"/>
<line x1="333.64" y1="931.24" x2="333.64" y2="937.82" class="down-wick"/>
<rect x="331.23" y="937.44" width="4.83" height="1.00" class="down-body"/>
<line x1="341.07" y1="935.92" x2="341.07" y2="949.73" class="down-wick"/>
<rect x="338.65" y="937.62" width="4.83" height="11.07" class="down-body"/>
<line x1="348.49" y1="955.21" x2="348.49" y2="970.83" class="down-wick"/>
<rect x="346.08" y="961.16" width="4.83" height="9.32" class="down-body"/>
<line x1="355.92" y1="961.31" x2="355.92" y2="971.43" class="down-wick"/>
<rect x="353.51" y="961.31" width="4.83" height="8.02" class="down-body"/>
<line x1="363.35" y1="964.25" x2="363.35" y2="983.04" class="up-wick"/>
<rect x="360.93" y="964.45" width="4.83" height="14.07" class="up-body"/>
<line x1="370.77" y1="948.16" x2="370.77" y2="957.00" class="up-wick"/>
<rect x="368.36" y="948.58" width="4.83" height="6.52" class="up-body"/>
<line x1="378.20" y1="940.03" x2="378.20" y2="945.44" class="up-wick"/>
<rect x="375.78" y="941.16" width="4.83" height="2.27" class="up-body"/>
<line x1="385.62" y1="942.86" x2="385.62" y2="951.41" class="down-wick"/>
<rect x="383.21" y="942.94" width="4.83" height="8.46" class="down-body"/>
<line x1="393.05" y1="943.45" x2="393.05" y2="947.18" class="up-wick"/>
<rect x="390.64" y="943.52" width="4.83" height="1.26" class="up-body"/>
<line x1="400.48" y1="941.63" x2="400.48" y2="949.34" class="down-wick"/>
<rect x="398.06" y="941.99" width="4.83" height="4.81" class="down-body"/>
<line x1="407.90" y1="945.35" x2="407.90" y2="955.50" class="down-wick"/>
<rect x="405.49" y="946.55" width="4.83" height="5.68" class="down-body"/>
<line x1="415.33" y1="958.29" x2="415.33" y2="965.41" class="up-wick"/>
<rect x="412.92" y="964.05" width="4.83" height="1.36" class="up-body"/>
<line x1="422.76" y1="964.51" x2="422.76" y2="972.38" class="down-wick"/>
<rect x="420.34" y="967.03" width="4.83" height="5.17" class="down-body"/>
<line x1="430.18" y1="972.89" x2="430.18" y2="991.77" class="down-wick"/>
<rect x="427.77" y="975.03" width="4.83" height="15.17" class="down-body"/>
<line x1="437.61" y1="983.54" x2="437.61" y2="1003.23" class="down-wick"/>
<rect x="435.20" y="983.60" width="4.83" height="12.45" class="down-body"/>
<line x1="445.04" y1="978.31" x2="445.04" y2="986.68" class="up-wick"/>
<rect x="442.62" y="982.50" width="4.83" height="4.03" class="up-body"/>
<line x1="452.46" y1="989.33" x2="452.46" y2="997.48" class="down-wick"/>
<rect x="450.05" y="993.61" width="4.83" height="1.98" class="down-body"/>
<line x1="459.89" y1="995.40" x2="459.89" y2="1006.75" class="down-wick"/>
<rect x="457.48" y="998.21" width="4.83" height="6.07" class="down-body"/>
<line x1="467.32" y1="1000.37" x2="467.32" y2="1007.99" class="up-wick"/>
<rect x="464.90" y="1001.31" width="4.83" height="4.61" class="up-body"/>
<line x1="474.74" y1="993.95" x2="474.74" y2="1013.80" class="down-wick"/>
<rect x="472.33" y="996.16" width="4.83" height="17.45" class="down-body"/>
<line x1="482.17" y1="1012.12" x2="482.17" y2="1022.43" class="down-wick"/>
<rect x="479.76" y="1012.88" width="4.83" height="4.41" class="down-body"/>
<line x1="489.60" y1="1014.30" x2="489.60" y2="1024.76" class="up-wick"/>
<rect x="487.18" y="1019.11" width="4.83" height="3.35" class="up-body"/>
<line x1="497.02" y1="994.29" x2="497.02" y2="1009.45" class="up-wick"/>
<rect x="494.61" y="1004.11" width="4.83" height="5.10" class="up-body"/>
<line x1="504.45" y1="1007.28" x2="504.45" y2="1015.51" class="up-wick"/>
<rect x="502.03" y="1011.83" width="4.83" height="1.71" class="up-body"/>
<line x1="511.88" y1="999.45" x2="511.88" y2="1014.33" class="up-wick"/>
<rect x="509.46" y="1000.55" width="4.83" height="10.89" class="up-body"/>
<line x1="519.30" y1="996.21" x2="519.30" y2="1004.87" class="down-wick"/>
<rect x="516.89" y="1000.88" width="4.83" height="1.00" class="down-body"/>
<line x1="526.73" y1="992.30" x2="526.73" y2="1002.50" class="up-wick"/>
<rect x="524.31" y="993.90" width="4.83" height="1.00" class="up-body"/>
<line x1="534.15" y1="981.99" x2="534.15" y2="990.55" class="down-wick"/>
<rect x="531.74" y="985.32" width="4.83" height="2.53" class="down-body"/>
<line x1="541.58" y1="970.73" x2="541.58" y2="983.27" class="up-wick"/>
<rect x="539.17" y="972.07" width="4.83" height="10.40" class="up-body"/>
<line x1="549.01" y1="959.71" x2="549.01" y2="972.76" class="up-wick"/>
<rect x="546.59" y="964.23" width="4.83" height="7.66" class="up-body"/>
<line x1="556.43" y1="968.25" x2="556.43" y2="977.45" class="up-wick"/>
<rect x="554.02" y="968.56" width="4.83" height="3.61" class="up-body"/>
<line x1="563.86" y1="957.41" x2="563.86" y2="967.07" class="down-wick"/>
<rect x="561.45" y="957.86" width="4.83" height="7.73" class="down-body"/>
<line x1="571.29" y1="949.07" x2="571.29" y2="960.62" class="up-wick"/>
<rect x="568.87" y="949.75" width="4.83" height="9.23" class="up-body"/>
<line x1="578.71" y1="943.04" x2="578.71" y2="948.93" class="up-wick"/>
<rect x="576.30" y="943.28" width="4.83" height="4.68" class="up-body"/>
<line x1="586.14" y1="938.66" x2="586.14" y2="946.04" class="down-wick"/>
<rect x="583.73" y="944.89" width="4.83" height="1.00" class="down-body"/>
<line x1="593.57" y1="945.68" x2="593.57" y2="955.49" class="down-wick"/>
<rect x="591.15" y="950.05" width="4.83" height="2.29" class="down-body"/>
<line x1="600.99" y1="949.79" x2="600.99" y2="959.48" class="down-wick"/>
<rect x="598.58" y="949.79" width="4.83" height="9.69" class="down-body"/>
<line x1="608.42" y1="959.35" x2="608.42" y2="966.34" class="up-wick"/>
<rect x="606.01" y="960.49" width="4.83" height="5.56" class="up-body"/>
<line x1="615.85" y1="958.42" x2="615.85" y2="965.20" class="up-wick"/>
<rect x="613.43" y="960.12" width="4.83" height="3.53" class="up-body"/>
<line x1="623.27" y1="959.14" x2="623.27" y2="968.22" class="up-wick"/>
<rect x="620.86" y="961.14" width="4.83" height="1.00" class="up-body"/>
<line x1="630.70" y1="942.55" x2="630.70" y2="957.45" class="up-wick"/>
<rect x="628.28" y="942.84" width="4.83" height="13.99" class="up-body"/>
<line x1="638.12" y1="943.88" x2="638.12" y2="953.81" class="up-wick"/>
<rect x="635.71" y="944.23" width="4.83" height="4.77" class="up-body"/>
<line x1="645.55" y1="941.45" x2="645.55" y2="950.67" class="down-wick"/>
<rect x="643.14" y="941.56" width="4.83" height="5.35" class="down-body"/>
<line x1="652.98" y1="935.38" x2="652.98" y2="947.22" class="up-wick"/>
<rect x="650.56" y="935.84" width="4.83" height="10.96" class="up-body"/>
<line x1="660.40" y1="934.26" x2="660.40" y2="940.37" class="up-wick"/>
<rect x="657.99" y="934.26" width="4.83" height="4.70" class="up-body"/>
<line x1="667.83" y1="934.78" x2="667.83" y2="943.32" class="down-wick"/>
<rect x="665.42" y="938.03" width="4.83" height="1.03" class="down-body"/>
<line x1="675.26" y1="928.09" x2="675.26" y2="931.30" class="up-wick"/>
<rect x="672.84" y="928.45" width="4.83" height="1.12" class="up-body"/>
<line x1="682.68" y1="923.74" x2="682.68" y2="929.27" class="up-wick"/>
<rect x="680.27" y="925.41" width="4.83" height="3.66" class="up-body"/>
<line x1="690.11" y1="926.44" x2="690.11" y2="938.25" class="down-wick"/>
<rect x="687.70" y="926.44" width="4.83" height="11.63" class="down-body"/>
<line x1="697.54" y1="942.10" x2="697.54" y2="949.22" class="down-wick"/>
<rect x="695.12" y="946.07" width="4.83" height="1.00" class="down-body"/>
<line x1="704.96" y1="943.06" x2="704.96" y2="952.26" class="down-wick"/>
<rect x="702.55" y="946.87" width="4.83" height="4.43" class="down-body"/>
<line x1="712.39" y1="943.27" x2="712.39" y2="951.70" class="up-wick"/>
<rect x="709.98" y="943.47" width="4.83" height="5.73" class="up-body"/>
<line x1="719.82" y1="942.78" x2="719.82" y2="949.87" class="up-wick"/>
<rect x="717.40" y="946.19" width="4.83" height="2.06" class="up-body"/>
<line x1="727.24" y1="943.28" x2="727.24" y2="951.48" class="down-wick"/>
<rect x="724.83" y="945.52" width="4.83" height="5.32" class="down-body"/>
<line x1="734.67" y1="941.54" x2="734.67" y2="944.90" class="up-wick"/>
<rect x="732.26" y="941.54" width="4.83" height="2.45" class="up-body"/>
<line x1="742.10" y1="933.76" x2="742.10" y2="945.04" class="up-wick"/>
<rect x="739.68" y="934.55" width="4.83" height="7.79" class="up-body"/>
<line x1="749.52" y1="921.10" x2="749.52" y2="932.07" class="up-wick"/>
<rect x="747.11" y="921.69" width="4.83" height="10.38" class="up-body"/>
<line x1="756.95" y1="918.92" x2="756.95" y2="924.85" class="up-wick"/>
<rect x="754.53" y="918.92" width="4.83" height="3.25" class="up-body"/>
<line x1="764.38" y1="921.49" x2="764.38" y2="926.97" class="down-wick"/>
<rect x="761.96" y="923.76" width="4.83" height="2.55" class="down-body"/>
<line x1="771.80" y1="930.21" x2="771.80" y2="935.39" class="down-wick"/>
<rect x="769.39" y="930.21" width="4.83" height="3.26" class="down-body"/>
<line x1="779.23" y1="932.40" x2="779.23" y2="935.54" class="down-wick"/>
<rect x="776.81" y="935.07" width="4.83" height="1.00" class="down-body"/>
<line x1="786.65" y1="921.82" x2="786.65" y2="926.50" class="down-wick"/>
<rect x="784.24" y="925.15" width="4.83" height="1.28" class="down-body"/>
<line x1="794.08" y1="922.27" x2="794.08" y2="930.93" class="up-wick"/>
<rect x="791.67" y="922.66" width="4.83" height="7.70" class="up-body"/>
<line x1="801.51" y1="916.95" x2="801.51" y2="924.95" class="down-wick"/>
<rect x="799.09" y="916.95" width="4.83" height="8.01" class="down-body"/>
<line x1="808.93" y1="922.79" x2="808.93" y2="926.24" class="down-wick"/>
<rect x="806.52" y="923.61" width="4.83" height="1.93" class="down-body"/>
<line x1="816.36" y1="932.68" x2="816.36" y2="940.36" class="down-wick"/>
<rect x="813.95" y="932.68" width="4.83" height="7.46" class="down-body"/>
<line x1="823.79" y1="936.06" x2="823.79" y2="939.15" class="up-wick"/>
<rect x="821.37" y="936.10" width="4.83" height="2.38" class="up-body"/>
<line x1="831.21" y1="936.84" x2="831.21" y2="941.20" class="down-wick"/>
<rect x="828.80" y="937.24" width="4.83" height="3.77" class="down-body"/>
<line x1="838.64" y1="942.22" x2="838.64" y2="946.89" class="down-wick"/>
<rect x="836.23" y="943.53" width="4.83" height="1.00" class="down-body"/>
<line x1="846.07" y1="930.52" x2="846.07" y2="935.81" class="up-wick"/>
<rect x="843.65" y="930.56" width="4.83" height="5.10" class="up-body"/>
<line x1="853.49" y1="920.87" x2="853.49" y2="927.22" class="up-wick"/>
<rect x="851.08" y="923.07" width="4.83" height="3.62" class="up-body"/>
<line x1="860.92" y1="925.99" x2="860.92" y2="929.80" class="up-wick"/>
<rect x="858.51" y="926.67" width="4.83" height="1.34" class="up-body"/>
<line x1="868.35" y1="922.70" x2="868.35" y2="928.02" class="up-wick"/>
<rect x="865.93" y="925.07" width="4.83" height="2.61" class="up-body"/>
<line x1="875.77" y1="924.03" x2="875.77" y2="926.91" class="down-wick"/>
<rect x="873.36" y="925.86" width="4.83" height="1.00" class="down-body"/>
<line x1="883.20" y1="923.81" x2="883.20" y2="926.97" class="down-wick"/>
<rect x="880.78" y="924.01" width="4.83" height="2.66" class="down-body"/>
<line x1="890.62" y1="917.50" x2="890.62" y2="925.57" class="up-wick"/>
<rect x="888.21" y="919.10" width="4.83" height="5.48" class="up-body"/>
<line x1="898.05" y1="918.65" x2="898.05" y2="920.79" class="up-wick"/>
<rect x="895.64" y="920.07" width="4.83" height="1.00" class="up-body"/>
<line x1="905.48" y1="915.11" x2="905.48" y2="921.76" class="up-wick"/>
<rect x="903.06" y="915.24" width="4.83" height="6.27" class="up-body"/>
<line x1="912.90" y1="900.75" x2="912.90" y2="909.93" class="up-wick"/>
<rect x="910.49" y="902.59" width="4.83" height="5.60" class="up-body"/>
<line x1="920.33" y1="904.28" x2="920.33" y2="907.21" class="up-wick"/>
<rect x="917.92" y="904.95" width="4.83" height="1.00" class="up-body"/>
<line x1="927.76" y1="901.05" x2="927.76" y2="905.69" class="up-wick"/>
<rect x="925.34" y="901.16" width="4.83" height="1.25" class="up-body"/>
<line x1="935.18" y1="896.20" x2="935.18" y2="898.69" class="up-wick"/>
<rect x="932.77" y="896.58" width="4.83" height="1.00" class="up-body"/>
<line x1="942.61" y1="897.15" x2="942.61" y2="904.09" class="down-wick"/>
<rect x="940.20" y="897.74" width="4.83" height="4.68" class="down-body"/>
<line x1="950.04" y1="899.02" x2="950.04" y2="902.74" class="up-wick"/>
<rect x="947.62" y="899.83" width="4.83" height="1.83" class="up-body"/>
<line x1="957.46" y1="896.07" x2="957.46" y2="898.51" class="down-wick"/>
<rect x="955.05" y="897.89" width="4.83" height="1.00" class="down-body"/>
<line x1="964.89" y1="889.98" x2="964.89" y2="896.16" class="up-wick"/>
<rect x="962.48" y="890.97" width="4.83" height="1.77" class="up-body"/>
<line x1="972.32" y1="896.99" x2="972.32" y2="903.93" class="down-wick"/>
<rect x="969.90" y="897.17" width="4.83" height="6.16" class="down-body"/>
<line x1="979.74" y1="903.66" x2="979.74" y2="907.92" class="down-wick"/>
<rect x="977.33" y="904.46" width="4.83" height="2.47" class="down-body"/>
<line x1="987.17" y1="905.08" x2="987.17" y2="917.02" class="down-wick"/>
<rect x="984.76" y="907.13" width="4.83" height="9.03" class="down-body"/>
<line x1="994.60" y1="919.23" x2="994.60" y2="925.61" class="down-wick"/>
<rect x="992.18" y="919.95" width="4.83" height="4.58" class="down-body"/>
<line x1="1002.02" y1="931.69" x2="1002.02" y2="937.86" class="down-wick"/>
<rect x="999.61" y="933.40" width="4.83" height="2.89" class="down-body"/>
<line x1="1009.45" y1="927.75" x2="1009.45" y2="939.51" class="down-wick"/>
<rect x="1007.03" y="930.47" width="4.83" height="8.77" class="down-body"/>
<line x1="1016.88" y1="937.05" x2="1016.88" y2="943.45" class="down-wick"/>
<rect x="1014.46" y="940.88" width="4.83" height="2.03" class="down-body"/>
<line x1="1024.30" y1="932.74" x2="1024.30" y2="939.16" class="up-wick"/>
<rect x="1021.89" y="934.50" width="4.83" height="2.96" class="up-body"/>
<line x1="1031.73" y1="932.03" x2="1031.73" y2="935.25" class="up-wick"/>
<rect x="1029.31" y="932.89" width="4.83" height="2.35" class="up-body"/>
<line x1="1039.15" y1="934.32" x2="1039.15" y2="936.31" class="up-wick"/>
<rect x="1036.74" y="934.88" width="4.83" height="1.00" class="up-body"/>
<line x1="1046.58" y1="931.33" x2="1046.58" y2="935.20" class="up-wick"/>
<rect x="1044.17" y="931.50" width="4.83" height="3.53" class="up-body"/>
<line x1="1054.01" y1="932.48" x2="1054.01" y2="936.62" class="down-wick"/>
<rect x="1051.59" y="932.96" width="4.83" height="1.53" class="down-body"/>
<line x1="1061.43" y1="928.74" x2="1061.43" y2="934.78" class="up-wick"/>
<rect x="1059.02" y="928.85" width="4.83" height="3.41" class="up-body"/>
<line x1="1068.86" y1="926.14" x2="1068.86" y2="930.38" class="up-wick"/>
<rect x="1066.45" y="926.25" width="4.83" height="3.60" class="up-body"/>
<line x1="1076.29" y1="922.84" x2="1076.29" y2="926.21" class="down-wick"/>
<rect x="1073.87" y="924.86" width="4.83" height="1.32" class="down-body"/>
<line x1="70" y1="1004.54" x2="1080" y2="1004.54" class="number-line"/>
<text x="1076" y="1000.54" text-anchor="end" class="level-label">round 4130.00</text>
<line x1="70" y1="1004.54" x2="1080" y2="1004.54" class="entry-line"/>
<text x="1076" y="1000.54" text-anchor="end" class="level-label">entry level 4130.00</text>
<text x="70" y="1056" class="axis-label">2026-03-23 07:30:00+00:00 to 2026-03-23 12:00:00+00:00</text>
<text x="1080" y="1056" text-anchor="end" class="axis-label">4077.92 - 4376.72</text>
</svg>