<svg xmlns="http://www.w3.org/2000/svg" width="1120" height="1054" viewBox="0 0 1120 1054">
<style>
text{font-family:Arial,Helvetica,sans-serif}.title{font-size:21px;font-weight:700;fill:#1f2937}.subtitle{font-size:12px;fill:#4b5563}.panel-title{font-size:15px;font-weight:700;fill:#111827}.muted{font-size:13px;fill:#6b7280}.plot-bg{fill:#f8fafc;stroke:#cbd5e1;stroke-width:1}.up-body{fill:#15803d;stroke:#14532d;stroke-width:.8}.down-body{fill:#b91c1c;stroke:#7f1d1d;stroke-width:.8}.up-wick{stroke:#14532d;stroke-width:1}.down-wick{stroke:#7f1d1d;stroke-width:1}.sweep-line{stroke:#7c3aed;stroke-width:1.6;stroke-dasharray:6 4}.number-line{stroke:#0f766e;stroke-width:1.4;stroke-dasharray:3 4}.entry-line{stroke:#2563eb;stroke-width:1.4}.sl-line{stroke:#dc2626;stroke-width:1.4}.tp-line{stroke:#16a34a;stroke-width:1.4}.level-label,.axis-label{font-size:11px;fill:#374151}
</style>
<text x="28" y="28" class="title">Adelin v2 visual review sample sample_280</text>
<text x="28" y="48" class="subtitle">Candidate windows are for visual labeling only and are not trade signals.</text>
<text x="560" y="48" class="subtitle" text-anchor="middle">NUMBER_THEORY_LEVEL_NEAR | LARGE_UPPER_WICK_REVERSAL_VISUAL_CANDIDATE | ROUND_LEVEL_ENTRY_METADATA_AVAILABLE</text>
<text x="70" y="82" class="panel-title">H1 liquidity context</text>
<rect x="70" y="96" width="1010" height="192" class="plot-bg"/>
<line x1="80.98" y1="255.83" x2="80.98" y2="274.25" class="up-wick"/>
<rect x="76.98" y="258.73" width="8.00" height="5.31" class="up-body"/>
<line x1="102.93" y1="256.96" x2="102.93" y2="274.76" class="down-wick"/>
<rect x="98.93" y="258.75" width="8.00" height="1.33" class="down-body"/>
<line x1="124.89" y1="252.90" x2="124.89" y2="262.31" class="up-wick"/>
<rect x="120.89" y="253.21" width="8.00" height="6.82" class="up-body"/>
<line x1="146.85" y1="237.45" x2="146.85" y2="255.49" class="up-wick"/>
<rect x="142.85" y="238.58" width="8.00" height="14.63" class="up-body"/>
<line x1="168.80" y1="229.26" x2="168.80" y2="242.98" class="up-wick"/>
<rect x="164.80" y="229.86" width="8.00" height="8.72" class="up-body"/>
<line x1="190.76" y1="175.10" x2="190.76" y2="233.63" class="up-wick"/>
<rect x="186.76" y="180.59" width="8.00" height="47.23" class="up-body"/>
<line x1="212.72" y1="179.48" x2="212.72" y2="210.88" class="down-wick"/>
<rect x="208.72" y="180.59" width="8.00" height="17.54" class="down-body"/>
<line x1="234.67" y1="178.56" x2="234.67" y2="201.98" class="up-wick"/>
<rect x="230.67" y="187.21" width="8.00" height="10.93" class="up-body"/>
<line x1="256.63" y1="170.93" x2="256.63" y2="187.85" class="up-wick"/>
<rect x="252.63" y="173.46" width="8.00" height="13.78" class="up-body"/>
<line x1="278.59" y1="171.63" x2="278.59" y2="191.98" class="down-wick"/>
<rect x="274.59" y="173.44" width="8.00" height="5.97" class="down-body"/>
<line x1="300.54" y1="177.65" x2="300.54" y2="188.91" class="down-wick"/>
<rect x="296.54" y="179.41" width="8.00" height="5.04" class="down-body"/>
<line x1="322.50" y1="183.61" x2="322.50" y2="191.72" class="down-wick"/>
<rect x="318.50" y="184.43" width="8.00" height="2.10" class="down-body"/>
<line x1="344.46" y1="183.70" x2="344.46" y2="197.77" class="down-wick"/>
<rect x="340.46" y="186.54" width="8.00" height="10.60" class="down-body"/>
<line x1="366.41" y1="190.00" x2="366.41" y2="214.76" class="down-wick"/>
<rect x="362.41" y="197.14" width="8.00" height="7.65" class="down-body"/>
<line x1="388.37" y1="200.15" x2="388.37" y2="217.01" class="up-wick"/>
<rect x="384.37" y="201.73" width="8.00" height="3.06" class="up-body"/>
<line x1="410.33" y1="193.46" x2="410.33" y2="202.77" class="up-wick"/>
<rect x="406.33" y="193.98" width="8.00" height="7.79" class="up-body"/>
<line x1="432.28" y1="182.06" x2="432.28" y2="197.74" class="up-wick"/>
<rect x="428.28" y="182.67" width="8.00" height="11.29" class="up-body"/>
<line x1="454.24" y1="182.19" x2="454.24" y2="196.54" class="down-wick"/>
<rect x="450.24" y="182.67" width="8.00" height="11.10" class="down-body"/>
<line x1="476.20" y1="180.48" x2="476.20" y2="197.38" class="up-wick"/>
<rect x="472.20" y="181.64" width="8.00" height="12.14" class="up-body"/>
<line x1="498.15" y1="180.61" x2="498.15" y2="198.87" class="down-wick"/>
<rect x="494.15" y="181.64" width="8.00" height="15.02" class="down-body"/>
<line x1="520.11" y1="150.91" x2="520.11" y2="200.85" class="up-wick"/>
<rect x="516.11" y="157.56" width="8.00" height="39.10" class="up-body"/>
<line x1="542.07" y1="147.07" x2="542.07" y2="167.55" class="up-wick"/>
<rect x="538.07" y="154.51" width="8.00" height="3.05" class="up-body"/>
<line x1="564.02" y1="135.18" x2="564.02" y2="171.65" class="up-wick"/>
<rect x="560.02" y="142.80" width="8.00" height="11.79" class="up-body"/>
<line x1="585.98" y1="139.81" x2="585.98" y2="158.93" class="down-wick"/>
<rect x="581.98" y="142.80" width="8.00" height="1.82" class="down-body"/>
<line x1="607.93" y1="137.88" x2="607.93" y2="150.37" class="up-wick"/>
<rect x="603.93" y="143.20" width="8.00" height="1.40" class="up-body"/>
<line x1="629.89" y1="135.80" x2="629.89" y2="145.71" class="up-wick"/>
<rect x="625.89" y="138.05" width="8.00" height="5.17" class="up-body"/>
<line x1="651.85" y1="119.22" x2="651.85" y2="138.70" class="up-wick"/>
<rect x="647.85" y="120.57" width="8.00" height="17.51" class="up-body"/>
<line x1="673.80" y1="119.40" x2="673.80" y2="128.83" class="down-wick"/>
<rect x="669.80" y="120.60" width="8.00" height="7.04" class="down-body"/>
<line x1="695.76" y1="109.24" x2="695.76" y2="132.45" class="up-wick"/>
<rect x="691.76" y="121.06" width="8.00" height="6.59" class="up-body"/>
<line x1="717.72" y1="119.01" x2="717.72" y2="135.96" class="down-wick"/>
<rect x="713.72" y="121.11" width="8.00" height="10.01" class="down-body"/>
<line x1="739.67" y1="130.94" x2="739.67" y2="197.62" class="down-wick"/>
<rect x="735.67" y="131.14" width="8.00" height="39.27" class="down-body"/>
<line x1="761.63" y1="159.07" x2="761.63" y2="180.39" class="up-wick"/>
<rect x="757.63" y="159.89" width="8.00" height="10.52" class="up-body"/>
<line x1="783.59" y1="158.16" x2="783.59" y2="175.72" class="down-wick"/>
<rect x="779.59" y="159.89" width="8.00" height="15.10" class="down-body"/>
<line x1="805.54" y1="172.35" x2="805.54" y2="184.43" class="down-wick"/>
<rect x="801.54" y="174.99" width="8.00" height="3.17" class="down-body"/>
<line x1="827.50" y1="163.31" x2="827.50" y2="181.74" class="up-wick"/>
<rect x="823.50" y="165.95" width="8.00" height="12.21" class="up-body"/>
<line x1="849.46" y1="164.10" x2="849.46" y2="188.18" class="down-wick"/>
<rect x="845.46" y="165.95" width="8.00" height="7.71" class="down-body"/>
<line x1="871.41" y1="164.80" x2="871.41" y2="181.56" class="up-wick"/>
<rect x="867.41" y="168.74" width="8.00" height="4.90" class="up-body"/>
<line x1="893.37" y1="166.57" x2="893.37" y2="180.88" class="down-wick"/>
<rect x="889.37" y="168.74" width="8.00" height="5.02" class="down-body"/>
<line x1="915.33" y1="167.75" x2="915.33" y2="179.68" class="down-wick"/>
<rect x="911.33" y="173.77" width="8.00" height="1.65" class="down-body"/>
<line x1="937.28" y1="166.99" x2="937.28" y2="182.40" class="up-wick"/>
<rect x="933.28" y="174.27" width="8.00" height="1.14" class="up-body"/>
<line x1="959.24" y1="169.41" x2="959.24" y2="175.87" class="down-wick"/>
<rect x="955.24" y="174.27" width="8.00" height="1.00" class="down-body"/>
<line x1="981.20" y1="173.67" x2="981.20" y2="197.71" class="down-wick"/>
<rect x="977.20" y="174.32" width="8.00" height="18.80" class="down-body"/>
<line x1="1003.15" y1="184.00" x2="1003.15" y2="226.61" class="down-wick"/>
<rect x="999.15" y="193.14" width="8.00" height="30.05" class="down-body"/>
<line x1="1025.11" y1="202.63" x2="1025.11" y2="240.85" class="up-wick"/>
<rect x="1021.11" y="211.75" width="8.00" height="11.48" class="up-body"/>
<line x1="1047.07" y1="189.07" x2="1047.07" y2="220.63" class="up-wick"/>
<rect x="1043.07" y="193.28" width="8.00" height="18.46" class="up-body"/>
<line x1="1069.02" y1="191.62" x2="1069.02" y2="209.53" class="down-wick"/>
<rect x="1065.02" y="193.28" width="8.00" height="7.23" class="down-body"/>
<line x1="70" y1="142.87" x2="1080" y2="142.87" class="number-line"/>
<text x="1076" y="138.87" text-anchor="end" class="level-label">round 5210.00</text>
<line x1="70" y1="142.87" x2="1080" y2="142.87" class="entry-line"/>
<text x="1076" y="138.87" text-anchor="end" class="level-label">entry level 5210.00</text>
<text x="70" y="306" class="axis-label">2026-02-20 19:00:00+00:00 to 2026-02-24 18:00:00+00:00</text>
<text x="1080" y="306" text-anchor="end" class="axis-label">5038.38 - 5265.42</text>
<text x="70" y="332" class="panel-title">M15 liquidity / reaction context</text>
<rect x="70" y="346" width="1010" height="192" class="plot-bg"/>
<line x1="77.32" y1="468.27" x2="77.32" y2="473.60" class="up-wick"/>
<rect x="73.32" y="469.65" width="8.00" height="1.93" class="up-body"/>
<line x1="91.96" y1="468.23" x2="91.96" y2="481.96" class="down-wick"/>
<rect x="87.96" y="469.62" width="8.00" height="3.48" class="down-body"/>
<line x1="106.59" y1="471.61" x2="106.59" y2="480.78" class="down-wick"/>
<rect x="102.59" y="473.10" width="8.00" height="1.00" class="down-body"/>
<line x1="121.23" y1="473.64" x2="121.23" y2="480.10" class="down-wick"/>
<rect x="117.23" y="473.87" width="8.00" height="1.25" class="down-body"/>
<line x1="135.87" y1="471.04" x2="135.87" y2="476.35" class="up-wick"/>
<rect x="131.87" y="473.17" width="8.00" height="1.95" class="up-body"/>
<line x1="150.51" y1="469.35" x2="150.51" y2="474.59" class="up-wick"/>
<rect x="146.51" y="471.57" width="8.00" height="1.62" class="up-body"/>
<line x1="165.14" y1="468.39" x2="165.14" y2="481.67" class="down-wick"/>
<rect x="161.14" y="471.58" width="8.00" height="9.59" class="down-body"/>
<line x1="179.78" y1="474.89" x2="179.78" y2="489.62" class="down-wick"/>
<rect x="175.78" y="481.14" width="8.00" height="6.31" class="down-body"/>
<line x1="194.42" y1="480.41" x2="194.42" y2="492.19" class="down-wick"/>
<rect x="190.42" y="487.40" width="8.00" height="3.74" class="down-body"/>
<line x1="209.06" y1="479.04" x2="209.06" y2="502.16" class="up-wick"/>
<rect x="205.06" y="489.47" width="8.00" height="1.66" class="up-body"/>
<line x1="223.70" y1="486.05" x2="223.70" y2="520.66" class="down-wick"/>
<rect x="219.70" y="489.47" width="8.00" height="14.97" class="down-body"/>
<line x1="238.33" y1="503.33" x2="238.33" y2="520.95" class="up-wick"/>
<rect x="234.33" y="504.06" width="8.00" height="1.00" class="up-body"/>
<line x1="252.97" y1="500.38" x2="252.97" y2="506.79" class="down-wick"/>
<rect x="248.97" y="504.06" width="8.00" height="1.00" class="down-body"/>
<line x1="267.61" y1="499.92" x2="267.61" y2="512.10" class="up-wick"/>
<rect x="263.61" y="501.86" width="8.00" height="2.23" class="up-body"/>
<line x1="282.25" y1="499.89" x2="282.25" y2="524.69" class="down-wick"/>
<rect x="278.25" y="501.86" width="8.00" height="18.45" class="down-body"/>
<line x1="296.88" y1="510.27" x2="296.88" y2="524.76" class="up-wick"/>
<rect x="292.88" y="516.48" width="8.00" height="3.86" class="up-body"/>
<line x1="311.52" y1="496.23" x2="311.52" y2="517.01" class="up-wick"/>
<rect x="307.52" y="498.91" width="8.00" height="17.58" class="up-body"/>
<line x1="326.16" y1="489.52" x2="326.16" y2="500.65" class="up-wick"/>
<rect x="322.16" y="490.92" width="8.00" height="8.04" class="up-body"/>
<line x1="340.80" y1="485.69" x2="340.80" y2="492.44" class="up-wick"/>
<rect x="336.80" y="486.27" width="8.00" height="4.64" class="up-body"/>
<line x1="355.43" y1="484.91" x2="355.43" y2="494.70" class="down-wick"/>
<rect x="351.43" y="486.27" width="8.00" height="3.39" class="down-body"/>
<line x1="370.07" y1="485.41" x2="370.07" y2="493.21" class="up-wick"/>
<rect x="366.07" y="485.78" width="8.00" height="3.88" class="up-body"/>
<line x1="384.71" y1="480.58" x2="384.71" y2="490.20" class="up-wick"/>
<rect x="380.71" y="485.67" width="8.00" height="1.00" class="up-body"/>
<line x1="399.35" y1="475.65" x2="399.35" y2="486.04" class="up-wick"/>
<rect x="395.35" y="476.33" width="8.00" height="9.33" class="up-body"/>
<line x1="413.99" y1="474.11" x2="413.99" y2="492.15" class="down-wick"/>
<rect x="409.99" y="476.52" width="8.00" height="5.11" class="down-body"/>
<line x1="428.62" y1="465.61" x2="428.62" y2="482.16" class="up-wick"/>
<rect x="424.62" y="466.64" width="8.00" height="14.99" class="up-body"/>
<line x1="443.26" y1="465.83" x2="443.26" y2="480.84" class="down-wick"/>
<rect x="439.26" y="466.64" width="8.00" height="13.67" class="down-body"/>
<line x1="457.90" y1="478.68" x2="457.90" y2="490.12" class="down-wick"/>
<rect x="453.90" y="480.24" width="8.00" height="3.91" class="down-body"/>
<line x1="472.54" y1="479.71" x2="472.54" y2="488.17" class="up-wick"/>
<rect x="468.54" y="483.55" width="8.00" height="1.00" class="up-body"/>
<line x1="487.17" y1="478.49" x2="487.17" y2="485.88" class="down-wick"/>
<rect x="483.17" y="483.53" width="8.00" height="1.90" class="down-body"/>
<line x1="501.81" y1="478.47" x2="501.81" y2="489.39" class="down-wick"/>
<rect x="497.81" y="485.44" width="8.00" height="1.00" class="down-body"/>
<line x1="516.45" y1="481.69" x2="516.45" y2="491.53" class="up-wick"/>
<rect x="512.45" y="484.94" width="8.00" height="1.00" class="up-body"/>
<line x1="531.09" y1="464.18" x2="531.09" y2="485.44" class="up-wick"/>
<rect x="527.09" y="464.41" width="8.00" height="20.53" class="up-body"/>
<line x1="545.72" y1="462.93" x2="545.72" y2="471.31" class="down-wick"/>
<rect x="541.72" y="464.41" width="8.00" height="1.00" class="down-body"/>
<line x1="560.36" y1="463.15" x2="560.36" y2="480.53" class="down-wick"/>
<rect x="556.36" y="464.90" width="8.00" height="13.05" class="down-body"/>
<line x1="575.00" y1="475.52" x2="575.00" y2="494.05" class="down-wick"/>
<rect x="571.00" y="477.91" width="8.00" height="7.47" class="down-body"/>
<line x1="589.64" y1="479.30" x2="589.64" y2="488.93" class="up-wick"/>
<rect x="585.64" y="480.97" width="8.00" height="4.41" class="up-body"/>
<line x1="604.28" y1="480.31" x2="604.28" y2="491.48" class="down-wick"/>
<rect x="600.28" y="481.01" width="8.00" height="9.30" class="down-body"/>
<line x1="618.91" y1="474.86" x2="618.91" y2="497.42" class="up-wick"/>
<rect x="614.91" y="475.09" width="8.00" height="15.23" class="up-body"/>
<line x1="633.55" y1="462.92" x2="633.55" y2="476.50" class="up-wick"/>
<rect x="629.55" y="463.08" width="8.00" height="12.01" class="up-body"/>
<line x1="648.19" y1="426.42" x2="648.19" y2="463.88" class="up-wick"/>
<rect x="644.19" y="426.65" width="8.00" height="36.43" class="up-body"/>
<line x1="662.83" y1="412.88" x2="662.83" y2="431.53" class="up-wick"/>
<rect x="658.83" y="424.14" width="8.00" height="2.51" class="up-body"/>
<line x1="677.46" y1="414.65" x2="677.46" y2="441.05" class="up-wick"/>
<rect x="673.46" y="414.88" width="8.00" height="9.26" class="up-body"/>
<line x1="692.10" y1="408.23" x2="692.10" y2="425.75" class="down-wick"/>
<rect x="688.10" y="414.88" width="8.00" height="1.92" class="down-body"/>
<line x1="706.74" y1="409.31" x2="706.74" y2="433.07" class="up-wick"/>
<rect x="702.74" y="411.73" width="8.00" height="5.11" class="up-body"/>
<line x1="721.38" y1="406.38" x2="721.38" y2="427.11" class="down-wick"/>
<rect x="717.38" y="411.73" width="8.00" height="7.24" class="down-body"/>
<line x1="736.01" y1="407.09" x2="736.01" y2="447.99" class="up-wick"/>
<rect x="732.01" y="409.90" width="8.00" height="9.20" class="up-body"/>
<line x1="750.65" y1="386.25" x2="750.65" y2="411.47" class="up-wick"/>
<rect x="746.65" y="392.75" width="8.00" height="17.09" class="up-body"/>
<line x1="765.29" y1="391.05" x2="765.29" y2="404.02" class="down-wick"/>
<rect x="761.29" y="392.62" width="8.00" height="7.00" class="down-body"/>
<line x1="779.93" y1="387.94" x2="779.93" y2="404.22" class="up-wick"/>
<rect x="775.93" y="399.15" width="8.00" height="1.00" class="up-body"/>
<line x1="794.57" y1="394.10" x2="794.57" y2="414.05" class="down-wick"/>
<rect x="790.57" y="399.15" width="8.00" height="9.00" class="down-body"/>
<line x1="809.20" y1="395.53" x2="809.20" y2="409.77" class="up-wick"/>
<rect x="805.20" y="398.88" width="8.00" height="9.26" class="up-body"/>
<line x1="823.84" y1="397.59" x2="823.84" y2="426.46" class="down-wick"/>
<rect x="819.84" y="398.88" width="8.00" height="15.13" class="down-body"/>
<line x1="838.48" y1="401.96" x2="838.48" y2="418.47" class="up-wick"/>
<rect x="834.48" y="402.23" width="8.00" height="11.78" class="up-body"/>
<line x1="853.12" y1="390.83" x2="853.12" y2="403.33" class="up-wick"/>
<rect x="849.12" y="395.54" width="8.00" height="6.67" class="up-body"/>
<line x1="867.75" y1="394.48" x2="867.75" y2="411.96" class="down-wick"/>
<rect x="863.75" y="395.54" width="8.00" height="9.19" class="down-body"/>
<line x1="882.39" y1="394.33" x2="882.39" y2="405.61" class="up-wick"/>
<rect x="878.39" y="403.85" width="8.00" height="1.00" class="up-body"/>
<line x1="897.03" y1="396.17" x2="897.03" y2="405.05" class="up-wick"/>
<rect x="893.03" y="399.84" width="8.00" height="3.97" class="up-body"/>
<line x1="911.67" y1="396.14" x2="911.67" y2="404.07" class="up-wick"/>
<rect x="907.67" y="397.26" width="8.00" height="2.59" class="up-body"/>
<line x1="926.30" y1="392.04" x2="926.30" y2="403.42" class="down-wick"/>
<rect x="922.30" y="397.29" width="8.00" height="2.81" class="down-body"/>
<line x1="940.94" y1="388.41" x2="940.94" y2="401.94" class="up-wick"/>
<rect x="936.94" y="389.19" width="8.00" height="10.91" class="up-body"/>
<line x1="955.58" y1="387.30" x2="955.58" y2="392.98" class="down-wick"/>
<rect x="951.58" y="389.19" width="8.00" height="1.92" class="down-body"/>
<line x1="970.22" y1="378.74" x2="970.22" y2="392.21" class="up-wick"/>
<rect x="966.22" y="380.30" width="8.00" height="10.86" class="up-body"/>
<line x1="984.86" y1="376.08" x2="984.86" y2="382.03" class="up-wick"/>
<rect x="980.86" y="377.51" width="8.00" height="2.79" class="up-body"/>
<line x1="999.49" y1="370.68" x2="999.49" y2="378.42" class="up-wick"/>
<rect x="995.49" y="373.71" width="8.00" height="3.79" class="up-body"/>
<line x1="1014.13" y1="359.24" x2="1014.13" y2="378.19" class="up-wick"/>
<rect x="1010.13" y="361.53" width="8.00" height="12.21" class="up-body"/>
<line x1="1028.77" y1="359.54" x2="1028.77" y2="370.96" class="down-wick"/>
<rect x="1024.77" y="361.57" width="8.00" height="7.21" class="down-body"/>
<line x1="1043.41" y1="367.50" x2="1043.41" y2="372.14" class="down-wick"/>
<rect x="1039.41" y="368.79" width="8.00" height="1.95" class="down-body"/>
<line x1="1058.04" y1="366.66" x2="1058.04" y2="375.50" class="down-wick"/>
<rect x="1054.04" y="370.82" width="8.00" height="1.85" class="down-body"/>
<line x1="1072.68" y1="368.52" x2="1072.68" y2="375.47" class="down-wick"/>
<rect x="1068.68" y="372.71" width="8.00" height="1.00" class="down-body"/>
<line x1="70" y1="399.26" x2="1080" y2="399.26" class="number-line"/>
<text x="1076" y="395.26" text-anchor="end" class="level-label">round 5210.00</text>
<line x1="70" y1="399.26" x2="1080" y2="399.26" class="entry-line"/>
<text x="1076" y="395.26" text-anchor="end" class="level-label">entry level 5210.00</text>
<text x="70" y="556" class="axis-label">2026-02-23 06:45:00+00:00 to 2026-02-23 23:45:00+00:00</text>
<text x="1080" y="556" text-anchor="end" class="axis-label">5113.08 - 5247.21</text>
<text x="70" y="582" class="panel-title">M5 reaction / execution context</text>
<rect x="70" y="596" width="1010" height="192" class="plot-bg"/>
<line x1="79.18" y1="682.23" x2="79.18" y2="703.03" class="up-wick"/>
<rect x="75.18" y="683.65" width="8.00" height="2.34" class="up-body"/>
<line x1="97.55" y1="668.15" x2="97.55" y2="715.12" class="down-wick"/>
<rect x="93.55" y="683.65" width="8.00" height="21.18" class="down-body"/>
<line x1="115.91" y1="681.12" x2="115.91" y2="714.62" class="up-wick"/>
<rect x="111.91" y="691.14" width="8.00" height="13.70" class="up-body"/>
<line x1="134.27" y1="685.34" x2="134.27" y2="715.51" class="down-wick"/>
<rect x="130.27" y="691.25" width="8.00" height="22.37" class="down-body"/>
<line x1="152.64" y1="681.54" x2="152.64" y2="734.77" class="up-wick"/>
<rect x="148.64" y="684.42" width="8.00" height="29.17" class="up-body"/>
<line x1="171.00" y1="671.07" x2="171.00" y2="697.51" class="up-wick"/>
<rect x="167.00" y="677.55" width="8.00" height="6.87" class="up-body"/>
<line x1="189.36" y1="663.20" x2="189.36" y2="696.55" class="up-wick"/>
<rect x="185.36" y="674.60" width="8.00" height="2.95" class="up-body"/>
<line x1="207.73" y1="666.19" x2="207.73" y2="707.68" class="down-wick"/>
<rect x="203.73" y="674.60" width="8.00" height="23.56" class="down-body"/>
<line x1="226.09" y1="682.35" x2="226.09" y2="718.77" class="up-wick"/>
<rect x="222.09" y="696.97" width="8.00" height="1.19" class="up-body"/>
<line x1="244.45" y1="697.32" x2="244.45" y2="774.76" class="down-wick"/>
<rect x="240.45" y="697.32" width="8.00" height="61.82" class="down-body"/>
<line x1="262.82" y1="691.98" x2="262.82" y2="762.86" class="up-wick"/>
<rect x="258.82" y="694.21" width="8.00" height="65.09" class="up-body"/>
<line x1="281.18" y1="665.12" x2="281.18" y2="694.21" class="up-wick"/>
<rect x="277.18" y="672.64" width="8.00" height="21.57" class="up-body"/>
<line x1="299.55" y1="616.76" x2="299.55" y2="676.86" class="up-wick"/>
<rect x="295.55" y="624.25" width="8.00" height="48.24" class="up-body"/>
<line x1="317.91" y1="616.26" x2="317.91" y2="636.30" class="up-wick"/>
<rect x="313.91" y="620.64" width="8.00" height="3.61" class="up-body"/>
<line x1="336.27" y1="609.24" x2="336.27" y2="628.08" class="down-wick"/>
<rect x="332.27" y="620.72" width="8.00" height="5.95" class="down-body"/>
<line x1="354.64" y1="622.10" x2="354.64" y2="656.87" class="down-wick"/>
<rect x="350.64" y="626.32" width="8.00" height="20.34" class="down-body"/>
<line x1="373.00" y1="629.58" x2="373.00" y2="648.39" class="up-wick"/>
<rect x="369.00" y="642.21" width="8.00" height="4.53" class="up-body"/>
<line x1="391.36" y1="634.95" x2="391.36" y2="649.88" class="down-wick"/>
<rect x="387.36" y="642.21" width="8.00" height="2.88" class="down-body"/>
<line x1="409.73" y1="640.33" x2="409.73" y2="657.40" class="up-wick"/>
<rect x="405.73" y="642.97" width="8.00" height="2.11" class="up-body"/>
<line x1="428.09" y1="613.77" x2="428.09" y2="648.73" class="up-wick"/>
<rect x="424.09" y="635.53" width="8.00" height="7.33" class="up-body"/>
<line x1="446.45" y1="627.89" x2="446.45" y2="650.04" class="down-wick"/>
<rect x="442.45" y="635.53" width="8.00" height="8.29" class="down-body"/>
<line x1="464.82" y1="634.07" x2="464.82" y2="649.96" class="up-wick"/>
<rect x="460.82" y="635.84" width="8.00" height="7.98" class="up-body"/>
<line x1="483.18" y1="630.27" x2="483.18" y2="654.83" class="down-wick"/>
<rect x="479.18" y="636.30" width="8.00" height="11.44" class="down-body"/>
<line x1="501.55" y1="643.90" x2="501.55" y2="683.77" class="down-wick"/>
<rect x="497.55" y="647.85" width="8.00" height="20.11" class="down-body"/>
<line x1="519.91" y1="641.32" x2="519.91" y2="672.29" class="up-wick"/>
<rect x="515.91" y="654.83" width="8.00" height="13.09" class="up-body"/>
<line x1="538.27" y1="644.82" x2="538.27" y2="666.31" class="up-wick"/>
<rect x="534.27" y="646.04" width="8.00" height="8.90" class="up-body"/>
<line x1="556.64" y1="634.11" x2="556.64" y2="647.27" class="up-wick"/>
<rect x="552.64" y="643.09" width="8.00" height="2.95" class="up-body"/>
<line x1="575.00" y1="639.64" x2="575.00" y2="654.76" class="down-wick"/>
<rect x="571.00" y="643.09" width="8.00" height="8.63" class="down-body"/>
<line x1="593.36" y1="651.72" x2="593.36" y2="717.04" class="down-wick"/>
<rect x="589.36" y="651.72" width="8.00" height="44.06" class="down-body"/>
<line x1="611.73" y1="665.69" x2="611.73" y2="698.12" class="up-wick"/>
<rect x="607.73" y="683.65" width="8.00" height="12.13" class="up-body"/>
<line x1="630.09" y1="673.98" x2="630.09" y2="695.63" class="down-wick"/>
<rect x="626.09" y="683.65" width="8.00" height="1.00" class="down-body"/>
<line x1="648.45" y1="653.11" x2="648.45" y2="685.65" class="up-wick"/>
<rect x="644.45" y="662.47" width="8.00" height="21.41" class="up-body"/>
<line x1="666.82" y1="651.34" x2="666.82" y2="666.23" class="up-wick"/>
<rect x="662.82" y="652.07" width="8.00" height="10.40" class="up-body"/>
<line x1="685.18" y1="642.55" x2="685.18" y2="655.02" class="up-wick"/>
<rect x="681.18" y="643.90" width="8.00" height="8.14" class="up-body"/>
<line x1="703.55" y1="626.24" x2="703.55" y2="644.66" class="up-wick"/>
<rect x="699.55" y="627.66" width="8.00" height="16.23" class="up-body"/>
<line x1="721.91" y1="621.52" x2="721.91" y2="634.22" class="down-wick"/>
<rect x="717.91" y="627.59" width="8.00" height="6.56" class="down-body"/>
<line x1="740.27" y1="632.84" x2="740.27" y2="654.76" class="down-wick"/>
<rect x="736.27" y="634.15" width="8.00" height="17.92" class="down-body"/>
<line x1="758.64" y1="631.31" x2="758.64" y2="659.44" class="down-wick"/>
<rect x="754.64" y="652.03" width="8.00" height="5.87" class="down-body"/>
<line x1="777.00" y1="650.80" x2="777.00" y2="678.17" class="down-wick"/>
<rect x="773.00" y="657.90" width="8.00" height="1.00" class="down-body"/>
<line x1="795.36" y1="641.78" x2="795.36" y2="660.28" class="up-wick"/>
<rect x="791.36" y="650.73" width="8.00" height="8.06" class="up-body"/>
<line x1="813.73" y1="630.89" x2="813.73" y2="654.68" class="up-wick"/>
<rect x="809.73" y="647.85" width="8.00" height="3.11" class="up-body"/>
<line x1="832.09" y1="642.78" x2="832.09" y2="661.13" class="down-wick"/>
<rect x="828.09" y="647.85" width="8.00" height="8.56" class="down-body"/>
<line x1="850.45" y1="643.32" x2="850.45" y2="659.63" class="up-wick"/>
<rect x="846.45" y="647.46" width="8.00" height="8.83" class="up-body"/>
<line x1="868.82" y1="635.84" x2="868.82" y2="648.96" class="up-wick"/>
<rect x="864.82" y="641.90" width="8.00" height="5.60" class="up-body"/>
<line x1="887.18" y1="638.52" x2="887.18" y2="649.96" class="down-wick"/>
<rect x="883.18" y="641.90" width="8.00" height="3.76" class="down-body"/>
<line x1="905.55" y1="642.51" x2="905.55" y2="656.67" class="down-wick"/>
<rect x="901.55" y="645.70" width="8.00" height="1.15" class="down-body"/>
<line x1="923.91" y1="642.74" x2="923.91" y2="657.02" class="up-wick"/>
<rect x="919.91" y="646.39" width="8.00" height="1.00" class="up-body"/>
<line x1="942.27" y1="635.76" x2="942.27" y2="649.77" class="up-wick"/>
<rect x="938.27" y="638.75" width="8.00" height="7.29" class="up-body"/>
<line x1="960.64" y1="626.09" x2="960.64" y2="639.75" class="up-wick"/>
<rect x="956.64" y="634.34" width="8.00" height="4.49" class="up-body"/>
<line x1="979.00" y1="624.75" x2="979.00" y2="640.44" class="down-wick"/>
<rect x="975.00" y="634.34" width="8.00" height="3.45" class="down-body"/>
<line x1="997.36" y1="631.65" x2="997.36" y2="655.25" class="down-wick"/>
<rect x="993.36" y="637.91" width="8.00" height="8.44" class="down-body"/>
<line x1="1015.73" y1="634.84" x2="1015.73" y2="651.30" class="up-wick"/>
<rect x="1011.73" y="634.88" width="8.00" height="11.47" class="up-body"/>
<line x1="1034.09" y1="623.44" x2="1034.09" y2="644.55" class="up-wick"/>
<rect x="1030.09" y="623.82" width="8.00" height="11.13" class="up-body"/>
<line x1="1052.45" y1="615.04" x2="1052.45" y2="639.21" class="up-wick"/>
<rect x="1048.45" y="617.11" width="8.00" height="6.72" class="up-body"/>
<line x1="1070.82" y1="612.04" x2="1070.82" y2="624.17" class="up-wick"/>
<rect x="1066.82" y="615.88" width="8.00" height="1.23" class="up-body"/>
<line x1="70" y1="644.13" x2="1080" y2="644.13" class="number-line"/>
<text x="1076" y="640.13" text-anchor="end" class="level-label">round 5210.00</text>
<line x1="70" y1="644.13" x2="1080" y2="644.13" class="entry-line"/>
<text x="1076" y="640.13" text-anchor="end" class="level-label">entry level 5210.00</text>
<text x="70" y="806" class="axis-label">2026-02-23 17:15:00+00:00 to 2026-02-23 21:45:00+00:00</text>
<text x="1080" y="806" text-anchor="end" class="axis-label">5172.51 - 5222.54</text>
<text x="70" y="832" class="panel-title">M1 execution window</text>
<rect x="70" y="846" width="1010" height="192" class="plot-bg"/>
<line x1="73.71" y1="940.09" x2="73.71" y2="951.39" class="down-wick"/>
<rect x="71.30" y="941.50" width="4.83" height="3.91" class="down-body"/>
<line x1="81.14" y1="943.29" x2="81.14" y2="959.96" class="down-wick"/>
<rect x="78.73" y="946.20" width="4.83" height="6.19" class="down-body"/>
<line x1="88.57" y1="938.97" x2="88.57" y2="953.80" class="up-wick"/>
<rect x="86.15" y="938.97" width="4.83" height="4.16" class="up-body"/>
<line x1="95.99" y1="923.54" x2="95.99" y2="942.75" class="down-wick"/>
<rect x="93.58" y="924.50" width="4.83" height="17.58" class="down-body"/>
<line x1="103.42" y1="943.58" x2="103.42" y2="971.64" class="down-wick"/>
<rect x="101.01" y="949.94" width="4.83" height="11.64" class="down-body"/>
<line x1="110.85" y1="955.80" x2="110.85" y2="972.51" class="up-wick"/>
<rect x="108.43" y="956.67" width="4.83" height="5.24" class="up-body"/>
<line x1="118.27" y1="936.22" x2="118.27" y2="954.30" class="down-wick"/>
<rect x="115.86" y="944.16" width="4.83" height="9.85" class="down-body"/>
<line x1="125.70" y1="944.41" x2="125.70" y2="960.91" class="down-wick"/>
<rect x="123.28" y="945.49" width="4.83" height="1.58" class="down-body"/>
<line x1="133.12" y1="944.62" x2="133.12" y2="957.46" class="up-wick"/>
<rect x="130.71" y="950.56" width="4.83" height="1.00" class="up-body"/>
<line x1="140.55" y1="947.20" x2="140.55" y2="956.67" class="down-wick"/>
<rect x="138.14" y="950.94" width="4.83" height="3.24" class="down-body"/>
<line x1="147.98" y1="967.06" x2="147.98" y2="984.98" class="down-wick"/>
<rect x="145.56" y="971.39" width="4.83" height="13.43" class="down-body"/>
<line x1="155.40" y1="953.80" x2="155.40" y2="977.41" class="up-wick"/>
<rect x="152.99" y="958.50" width="4.83" height="18.75" class="up-body"/>
<line x1="162.83" y1="936.68" x2="162.83" y2="952.93" class="up-wick"/>
<rect x="160.42" y="939.80" width="4.83" height="7.90" class="up-body"/>
<line x1="170.26" y1="926.95" x2="170.26" y2="937.93" class="down-wick"/>
<rect x="167.84" y="928.70" width="4.83" height="8.90" class="down-body"/>
<line x1="177.68" y1="931.40" x2="177.68" y2="945.99" class="up-wick"/>
<rect x="175.27" y="931.73" width="4.83" height="13.59" class="up-body"/>
<line x1="185.11" y1="931.44" x2="185.11" y2="949.02" class="down-wick"/>
<rect x="182.70" y="932.36" width="4.83" height="8.19" class="down-body"/>
<line x1="192.54" y1="941.83" x2="192.54" y2="952.89" class="up-wick"/>
<rect x="190.12" y="942.12" width="4.83" height="9.68" class="up-body"/>
<line x1="199.96" y1="916.81" x2="199.96" y2="933.02" class="down-wick"/>
<rect x="197.55" y="928.49" width="4.83" height="1.00" class="down-body"/>
<line x1="207.39" y1="920.05" x2="207.39" y2="927.37" class="down-wick"/>
<rect x="204.98" y="922.09" width="4.83" height="1.00" class="down-body"/>
<line x1="214.82" y1="938.34" x2="214.82" y2="958.09" class="up-wick"/>
<rect x="212.40" y="940.71" width="4.83" height="16.09" class="up-body"/>
<line x1="222.24" y1="937.55" x2="222.24" y2="957.17" class="down-wick"/>
<rect x="219.83" y="954.68" width="4.83" height="1.54" class="down-body"/>
<line x1="229.67" y1="945.91" x2="229.67" y2="974.42" class="up-wick"/>
<rect x="227.26" y="946.95" width="4.83" height="22.90" class="up-body"/>
<line x1="237.10" y1="938.80" x2="237.10" y2="954.93" class="down-wick"/>
<rect x="234.68" y="939.76" width="4.83" height="13.63" class="down-body"/>
<line x1="244.52" y1="966.40" x2="244.52" y2="984.73" class="down-wick"/>
<rect x="242.11" y="972.68" width="4.83" height="9.14" class="down-body"/>
<line x1="251.95" y1="983.32" x2="251.95" y2="1016.99" class="down-wick"/>
<rect x="249.53" y="983.32" width="4.83" height="30.88" class="down-body"/>
<line x1="259.38" y1="1006.72" x2="259.38" y2="1024.76" class="up-wick"/>
<rect x="256.96" y="1009.88" width="4.83" height="11.02" class="up-body"/>
<line x1="266.80" y1="975.00" x2="266.80" y2="982.44" class="up-wick"/>
<rect x="264.39" y="980.62" width="4.83" height="1.00" class="up-body"/>
<line x1="274.23" y1="947.99" x2="274.23" y2="970.10" class="up-wick"/>
<rect x="271.81" y="950.40" width="4.83" height="13.97" class="up-body"/>
<line x1="281.65" y1="939.34" x2="281.65" y2="948.69" class="down-wick"/>
<rect x="279.24" y="940.63" width="4.83" height="3.16" class="down-body"/>
<line x1="289.08" y1="923.79" x2="289.08" y2="946.45" class="up-wick"/>
<rect x="286.67" y="926.58" width="4.83" height="12.35" class="up-body"/>
<line x1="296.51" y1="921.97" x2="296.51" y2="931.61" class="up-wick"/>
<rect x="294.09" y="924.54" width="4.83" height="2.33" class="up-body"/>
<line x1="303.93" y1="894.16" x2="303.93" y2="912.07" class="up-wick"/>
<rect x="301.52" y="895.07" width="4.83" height="16.96" class="up-body"/>
<line x1="311.36" y1="866.52" x2="311.36" y2="886.18" class="up-wick"/>
<rect x="308.95" y="874.62" width="4.83" height="8.02" class="up-body"/>
<line x1="318.79" y1="866.27" x2="318.79" y2="879.57" class="up-wick"/>
<rect x="316.37" y="866.81" width="4.83" height="2.49" class="up-body"/>
<line x1="326.21" y1="869.09" x2="326.21" y2="887.67" class="up-wick"/>
<rect x="323.80" y="874.66" width="4.83" height="9.56" class="up-body"/>
<line x1="333.64" y1="864.81" x2="333.64" y2="871.71" class="up-wick"/>
<rect x="331.23" y="869.47" width="4.83" height="1.33" class="up-body"/>
<line x1="341.07" y1="859.24" x2="341.07" y2="870.34" class="down-wick"/>
<rect x="338.65" y="859.53" width="4.83" height="4.74" class="down-body"/>
<line x1="348.49" y1="866.27" x2="348.49" y2="878.78" class="down-wick"/>
<rect x="346.08" y="869.13" width="4.83" height="8.11" class="down-body"/>
<line x1="355.92" y1="878.20" x2="355.92" y2="909.95" class="down-wick"/>
<rect x="353.51" y="878.20" width="4.83" height="27.06" class="down-body"/>
<line x1="363.35" y1="875.08" x2="363.35" y2="889.21" class="up-wick"/>
<rect x="360.93" y="878.57" width="4.83" height="10.60" class="up-body"/>
<line x1="370.77" y1="880.56" x2="370.77" y2="900.77" class="up-wick"/>
<rect x="368.36" y="880.69" width="4.83" height="18.29" class="up-body"/>
<line x1="378.20" y1="886.72" x2="378.20" y2="895.45" class="up-wick"/>
<rect x="375.78" y="888.84" width="4.83" height="5.15" class="up-body"/>
<line x1="385.62" y1="885.47" x2="385.62" y2="896.11" class="down-wick"/>
<rect x="383.21" y="890.87" width="4.83" height="3.20" class="down-body"/>
<line x1="393.05" y1="888.50" x2="393.05" y2="899.93" class="down-wick"/>
<rect x="390.64" y="892.04" width="4.83" height="1.00" class="down-body"/>
<line x1="400.48" y1="887.09" x2="400.48" y2="898.65" class="up-wick"/>
<rect x="398.06" y="888.25" width="4.83" height="1.00" class="up-body"/>
<line x1="407.90" y1="892.04" x2="407.90" y2="902.47" class="down-wick"/>
<rect x="405.49" y="897.19" width="4.83" height="1.00" class="down-body"/>
<line x1="415.33" y1="895.86" x2="415.33" y2="908.71" class="up-wick"/>
<rect x="412.92" y="898.44" width="4.83" height="9.44" class="up-body"/>
<line x1="422.76" y1="892.91" x2="422.76" y2="902.93" class="up-wick"/>
<rect x="420.34" y="894.91" width="4.83" height="3.95" class="up-body"/>
<line x1="430.18" y1="888.05" x2="430.18" y2="901.14" class="up-wick"/>
<rect x="427.77" y="890.13" width="4.83" height="1.50" class="up-body"/>
<line x1="437.61" y1="863.27" x2="437.61" y2="877.90" class="up-wick"/>
<rect x="435.20" y="865.77" width="4.83" height="9.68" class="up-body"/>
<line x1="445.04" y1="878.99" x2="445.04" y2="888.21" class="up-wick"/>
<rect x="442.62" y="881.69" width="4.83" height="5.15" class="up-body"/>
<line x1="452.46" y1="878.57" x2="452.46" y2="896.28" class="down-wick"/>
<rect x="450.05" y="891.58" width="4.83" height="4.70" class="down-body"/>
<line x1="459.89" y1="893.28" x2="459.89" y2="902.55" class="down-wick"/>
<rect x="457.48" y="893.28" width="4.83" height="2.54" class="down-body"/>
<line x1="467.32" y1="888.05" x2="467.32" y2="899.73" class="up-wick"/>
<rect x="464.90" y="893.87" width="4.83" height="2.41" class="up-body"/>
<line x1="474.74" y1="885.26" x2="474.74" y2="896.19" class="down-wick"/>
<rect x="472.33" y="892.74" width="4.83" height="3.41" class="down-body"/>
<line x1="482.17" y1="884.68" x2="482.17" y2="899.39" class="down-wick"/>
<rect x="479.76" y="887.67" width="4.83" height="10.81" class="down-body"/>
<line x1="489.60" y1="885.55" x2="489.60" y2="897.65" class="down-wick"/>
<rect x="487.18" y="886.92" width="4.83" height="2.08" class="down-body"/>
<line x1="497.02" y1="888.92" x2="497.02" y2="904.38" class="down-wick"/>
<rect x="494.61" y="890.13" width="4.83" height="9.93" class="down-body"/>
<line x1="504.45" y1="909.04" x2="504.45" y2="927.78" class="down-wick"/>
<rect x="502.03" y="909.58" width="4.83" height="9.06" class="down-body"/>
<line x1="511.88" y1="917.02" x2="511.88" y2="932.15" class="up-wick"/>
<rect x="509.46" y="927.62" width="4.83" height="1.58" class="up-body"/>
<line x1="519.30" y1="897.44" x2="519.30" y2="926.66" class="up-wick"/>
<rect x="516.89" y="909.33" width="4.83" height="12.59" class="up-body"/>
<line x1="526.73" y1="893.12" x2="526.73" y2="902.22" class="down-wick"/>
<rect x="524.31" y="893.91" width="4.83" height="4.16" class="down-body"/>
<line x1="534.15" y1="905.46" x2="534.15" y2="912.24" class="up-wick"/>
<rect x="531.74" y="907.75" width="4.83" height="1.00" class="up-body"/>
<line x1="541.58" y1="905.17" x2="541.58" y2="911.95" class="up-wick"/>
<rect x="539.17" y="908.25" width="4.83" height="2.24" class="up-body"/>
<line x1="549.01" y1="906.79" x2="549.01" y2="917.85" class="up-wick"/>
<rect x="546.59" y="911.20" width="4.83" height="6.36" class="up-body"/>
<line x1="556.43" y1="888.34" x2="556.43" y2="899.56" class="up-wick"/>
<rect x="554.02" y="889.04" width="4.83" height="9.19" class="up-body"/>
<line x1="563.86" y1="885.30" x2="563.86" y2="892.99" class="down-wick"/>
<rect x="561.45" y="891.54" width="4.83" height="1.00" class="down-body"/>
<line x1="571.29" y1="889.96" x2="571.29" y2="898.31" class="down-wick"/>
<rect x="568.87" y="889.96" width="4.83" height="5.07" class="down-body"/>
<line x1="578.71" y1="892.29" x2="578.71" y2="901.35" class="up-wick"/>
<rect x="576.30" y="893.87" width="4.83" height="1.21" class="up-body"/>
<line x1="586.14" y1="897.36" x2="586.14" y2="904.80" class="down-wick"/>
<rect x="583.73" y="899.60" width="4.83" height="4.32" class="down-body"/>
<line x1="593.57" y1="904.38" x2="593.57" y2="935.64" class="down-wick"/>
<rect x="591.15" y="904.38" width="4.83" height="26.15" class="down-body"/>
<line x1="600.99" y1="945.74" x2="600.99" y2="959.29" class="down-wick"/>
<rect x="598.58" y="947.69" width="4.83" height="10.27" class="down-body"/>
<line x1="608.42" y1="945.99" x2="608.42" y2="966.48" class="up-wick"/>
<rect x="606.01" y="952.10" width="4.83" height="13.76" class="up-body"/>
<line x1="615.85" y1="920.55" x2="615.85" y2="946.86" class="down-wick"/>
<rect x="613.43" y="935.22" width="4.83" height="8.98" class="down-body"/>
<line x1="623.27" y1="919.51" x2="623.27" y2="931.73" class="up-wick"/>
<rect x="620.86" y="924.79" width="4.83" height="6.36" class="up-body"/>
<line x1="630.70" y1="930.44" x2="630.70" y2="939.84" class="up-wick"/>
<rect x="628.28" y="932.65" width="4.83" height="6.32" class="up-body"/>
<line x1="638.12" y1="938.18" x2="638.12" y2="951.93" class="down-wick"/>
<rect x="635.71" y="939.51" width="4.83" height="2.95" class="down-body"/>
<line x1="645.55" y1="936.35" x2="645.55" y2="945.24" class="up-wick"/>
<rect x="643.14" y="939.13" width="4.83" height="1.00" class="up-body"/>
<line x1="652.98" y1="919.89" x2="652.98" y2="924.08" class="up-wick"/>
<rect x="650.56" y="920.63" width="4.83" height="2.00" class="up-body"/>
<line x1="660.40" y1="905.88" x2="660.40" y2="920.55" class="down-wick"/>
<rect x="657.99" y="908.25" width="4.83" height="11.64" class="down-body"/>
<line x1="667.83" y1="905.71" x2="667.83" y2="917.39" class="up-wick"/>
<rect x="665.42" y="908.54" width="4.83" height="7.48" class="up-body"/>
<line x1="675.26" y1="906.59" x2="675.26" y2="913.98" class="up-wick"/>
<rect x="672.84" y="909.08" width="4.83" height="4.28" class="up-body"/>
<line x1="682.68" y1="903.97" x2="682.68" y2="917.73" class="up-wick"/>
<rect x="680.27" y="904.76" width="4.83" height="2.49" class="up-body"/>
<line x1="690.11" y1="895.65" x2="690.11" y2="907.96" class="down-wick"/>
<rect x="687.70" y="896.61" width="4.83" height="7.57" class="down-body"/>
<line x1="697.54" y1="894.45" x2="697.54" y2="902.22" class="up-wick"/>
<rect x="695.12" y="895.94" width="4.83" height="5.45" class="up-body"/>
<line x1="704.96" y1="887.55" x2="704.96" y2="896.73" class="up-wick"/>
<rect x="702.55" y="889.88" width="4.83" height="6.03" class="up-body"/>
<line x1="712.39" y1="881.81" x2="712.39" y2="887.13" class="up-wick"/>
<rect x="709.98" y="886.72" width="4.83" height="1.00" class="up-body"/>
<line x1="719.82" y1="876.78" x2="719.82" y2="882.14" class="up-wick"/>
<rect x="717.40" y="878.32" width="4.83" height="1.16" class="up-body"/>
<line x1="727.24" y1="873.33" x2="727.24" y2="880.56" class="up-wick"/>
<rect x="724.83" y="873.75" width="4.83" height="4.45" class="up-body"/>
<line x1="734.67" y1="877.82" x2="734.67" y2="883.52" class="up-wick"/>
<rect x="732.26" y="877.95" width="4.83" height="4.57" class="up-body"/>
<line x1="742.10" y1="883.93" x2="742.10" y2="895.28" class="down-wick"/>
<rect x="739.68" y="885.35" width="4.83" height="6.48" class="down-body"/>
<line x1="749.52" y1="893.87" x2="749.52" y2="904.22" class="down-wick"/>
<rect x="747.11" y="898.48" width="4.83" height="5.24" class="down-body"/>
<line x1="756.95" y1="894.61" x2="756.95" y2="905.38" class="down-wick"/>
<rect x="754.53" y="896.86" width="4.83" height="7.90" class="down-body"/>
<line x1="764.38" y1="886.43" x2="764.38" y2="896.57" class="up-wick"/>
<rect x="761.96" y="889.29" width="4.83" height="1.29" class="up-body"/>
<line x1="771.80" y1="892.41" x2="771.80" y2="905.50" class="down-wick"/>
<rect x="769.39" y="897.44" width="4.83" height="6.86" class="down-body"/>
<line x1="779.23" y1="903.38" x2="779.23" y2="922.88" class="down-wick"/>
<rect x="776.81" y="911.07" width="4.83" height="7.57" class="down-body"/>
<line x1="786.65" y1="920.97" x2="786.65" y2="929.90" class="down-wick"/>
<rect x="784.24" y="924.58" width="4.83" height="4.53" class="down-body"/>
<line x1="794.08" y1="908.54" x2="794.08" y2="918.64" class="up-wick"/>
<rect x="791.67" y="912.03" width="4.83" height="3.08" class="up-body"/>
<line x1="801.51" y1="898.06" x2="801.51" y2="908.54" class="down-wick"/>
<rect x="799.09" y="898.06" width="4.83" height="5.90" class="down-body"/>
<line x1="808.93" y1="893.66" x2="808.93" y2="908.83" class="down-wick"/>
<rect x="806.52" y="894.12" width="4.83" height="14.55" class="down-body"/>
<line x1="816.36" y1="900.93" x2="816.36" y2="907.58" class="up-wick"/>
<rect x="813.95" y="902.43" width="4.83" height="1.12" class="up-body"/>
<line x1="823.79" y1="881.81" x2="823.79" y2="899.19" class="up-wick"/>
<rect x="821.37" y="883.10" width="4.83" height="12.89" class="up-body"/>
<line x1="831.21" y1="899.52" x2="831.21" y2="904.09" class="up-wick"/>
<rect x="828.80" y="900.18" width="4.83" height="1.00" class="up-body"/>
<line x1="838.64" y1="894.70" x2="838.64" y2="902.39" class="up-wick"/>
<rect x="836.23" y="899.39" width="4.83" height="1.00" class="up-body"/>
<line x1="846.07" y1="902.51" x2="846.07" y2="914.57" class="down-wick"/>
<rect x="843.65" y="903.72" width="4.83" height="4.99" class="down-body"/>
<line x1="853.49" y1="909.00" x2="853.49" y2="912.95" class="up-wick"/>
<rect x="851.08" y="909.00" width="4.83" height="1.00" class="up-body"/>
<line x1="860.92" y1="898.31" x2="860.92" y2="904.55" class="up-wick"/>
<rect x="858.51" y="898.69" width="4.83" height="1.00" class="up-body"/>
<line x1="868.35" y1="895.28" x2="868.35" y2="900.02" class="up-wick"/>
<rect x="865.93" y="899.77" width="4.83" height="1.00" class="up-body"/>
<line x1="875.77" y1="895.20" x2="875.77" y2="900.31" class="up-wick"/>
<rect x="873.36" y="897.52" width="4.83" height="1.66" class="up-body"/>
<line x1="883.20" y1="887.17" x2="883.20" y2="897.90" class="up-wick"/>
<rect x="880.78" y="889.83" width="4.83" height="7.52" class="up-body"/>
<line x1="890.62" y1="891.62" x2="890.62" y2="895.36" class="up-wick"/>
<rect x="888.21" y="893.53" width="4.83" height="1.00" class="up-body"/>
<line x1="898.05" y1="891.58" x2="898.05" y2="895.45" class="up-wick"/>
<rect x="895.64" y="891.87" width="4.83" height="2.08" class="up-body"/>
<line x1="905.48" y1="896.44" x2="905.48" y2="902.47" class="up-wick"/>
<rect x="903.06" y="897.81" width="4.83" height="1.00" class="up-body"/>
<line x1="912.90" y1="895.99" x2="912.90" y2="908.62" class="up-wick"/>
<rect x="910.49" y="899.06" width="4.83" height="7.40" class="up-body"/>
<line x1="920.33" y1="894.41" x2="920.33" y2="900.89" class="up-wick"/>
<rect x="917.92" y="899.10" width="4.83" height="1.25" class="up-body"/>
<line x1="927.76" y1="898.19" x2="927.76" y2="903.55" class="down-wick"/>
<rect x="925.34" y="899.10" width="4.83" height="2.00" class="down-body"/>
<line x1="935.18" y1="903.18" x2="935.18" y2="910.12" class="up-wick"/>
<rect x="932.77" y="903.34" width="4.83" height="3.78" class="up-body"/>
<line x1="942.61" y1="894.66" x2="942.61" y2="903.47" class="up-wick"/>
<rect x="940.20" y="898.60" width="4.83" height="1.21" class="up-body"/>
<line x1="950.04" y1="894.57" x2="950.04" y2="900.93" class="up-wick"/>
<rect x="947.62" y="895.65" width="4.83" height="1.21" class="up-body"/>
<line x1="957.46" y1="888.30" x2="957.46" y2="897.52" class="up-wick"/>
<rect x="955.05" y="891.62" width="4.83" height="4.90" class="up-body"/>
<line x1="964.89" y1="880.56" x2="964.89" y2="891.41" class="up-wick"/>
<rect x="962.48" y="881.19" width="4.83" height="9.23" class="up-body"/>
<line x1="972.32" y1="880.69" x2="972.32" y2="887.67" class="down-wick"/>
<rect x="969.90" y="881.44" width="4.83" height="5.11" class="down-body"/>
<line x1="979.74" y1="883.10" x2="979.74" y2="886.76" class="down-wick"/>
<rect x="977.33" y="885.22" width="4.83" height="1.00" class="down-body"/>
<line x1="987.17" y1="877.53" x2="987.17" y2="885.76" class="down-wick"/>
<rect x="984.76" y="877.57" width="4.83" height="8.19" class="down-body"/>
<line x1="994.60" y1="881.27" x2="994.60" y2="887.80" class="up-wick"/>
<rect x="992.18" y="882.60" width="4.83" height="1.00" class="up-body"/>
<line x1="1002.02" y1="882.64" x2="1002.02" y2="891.41" class="down-wick"/>
<rect x="999.61" y="889.42" width="4.83" height="1.00" class="down-body"/>
<line x1="1009.45" y1="890.00" x2="1009.45" y2="894.99" class="down-wick"/>
<rect x="1007.03" y="891.95" width="4.83" height="1.04" class="down-body"/>
<line x1="1016.88" y1="891.21" x2="1016.88" y2="908.21" class="down-wick"/>
<rect x="1014.46" y="892.04" width="4.83" height="6.53" class="down-body"/>
<line x1="1024.30" y1="897.32" x2="1024.30" y2="902.47" class="up-wick"/>
<rect x="1021.89" y="897.65" width="4.83" height="1.00" class="up-body"/>
<line x1="1031.73" y1="894.12" x2="1031.73" y2="900.43" class="down-wick"/>
<rect x="1029.31" y="895.24" width="4.83" height="2.58" class="down-body"/>
<line x1="1039.15" y1="884.18" x2="1039.15" y2="888.13" class="up-wick"/>
<rect x="1036.74" y="884.51" width="4.83" height="1.70" class="up-body"/>
<line x1="1046.58" y1="890.00" x2="1046.58" y2="896.61" class="up-wick"/>
<rect x="1044.17" y="890.46" width="4.83" height="2.33" class="up-body"/>
<line x1="1054.01" y1="873.75" x2="1054.01" y2="887.67" class="up-wick"/>
<rect x="1051.59" y="874.16" width="4.83" height="13.22" class="up-body"/>
<line x1="1061.43" y1="882.39" x2="1061.43" y2="889.17" class="down-wick"/>
<rect x="1059.02" y="882.44" width="4.83" height="5.57" class="down-body"/>
<line x1="1068.86" y1="883.23" x2="1068.86" y2="888.59" class="up-wick"/>
<rect x="1066.45" y="883.23" width="4.83" height="2.66" class="up-body"/>
<line x1="1076.29" y1="861.40" x2="1076.29" y2="874.29" class="up-wick"/>
<rect x="1073.87" y="862.40" width="4.83" height="4.49" class="up-body"/>
<line x1="70" y1="896.15" x2="1080" y2="896.15" class="number-line"/>
<text x="1076" y="892.15" text-anchor="end" class="level-label">round 5210.00</text>
<line x1="70" y1="896.15" x2="1080" y2="896.15" class="entry-line"/>
<text x="1076" y="892.15" text-anchor="end" class="level-label">entry level 5210.00</text>
<text x="70" y="1056" class="axis-label">2026-02-23 17:15:00+00:00 to 2026-02-23 21:45:00+00:00</text>
<text x="1080" y="1056" text-anchor="end" class="axis-label">5175.87 - 5222.07</text>
</svg>