<svg xmlns="http://www.w3.org/2000/svg" width="1120" height="1054" viewBox="0 0 1120 1054">
<style>
text{font-family:Arial,Helvetica,sans-serif}.title{font-size:21px;font-weight:700;fill:#1f2937}.subtitle{font-size:12px;fill:#4b5563}.panel-title{font-size:15px;font-weight:700;fill:#111827}.muted{font-size:13px;fill:#6b7280}.plot-bg{fill:#f8fafc;stroke:#cbd5e1;stroke-width:1}.up-body{fill:#15803d;stroke:#14532d;stroke-width:.8}.down-body{fill:#b91c1c;stroke:#7f1d1d;stroke-width:.8}.up-wick{stroke:#14532d;stroke-width:1}.down-wick{stroke:#7f1d1d;stroke-width:1}.sweep-line{stroke:#7c3aed;stroke-width:1.6;stroke-dasharray:6 4}.number-line{stroke:#0f766e;stroke-width:1.4;stroke-dasharray:3 4}.entry-line{stroke:#2563eb;stroke-width:1.4}.sl-line{stroke:#dc2626;stroke-width:1.4}.tp-line{stroke:#16a34a;stroke-width:1.4}.level-label,.axis-label{font-size:11px;fill:#374151}
</style>
<text x="28" y="28" class="title">Adelin v2 visual review sample sample_073</text>
<text x="28" y="48" class="subtitle">Candidate windows are for visual labeling only and are not trade signals.</text>
<text x="560" y="48" class="subtitle" text-anchor="middle">M15_SWING_LOW_SWEEP_VISUAL_CANDIDATE | LARGE_LOWER_WICK_REVERSAL_VISUAL_CANDIDATE | SWEPT_LIQUIDITY_LEVEL_METADATA_AVAILABLE</text>
<text x="70" y="82" class="panel-title">H1 liquidity context</text>
<rect x="70" y="96" width="1010" height="192" class="plot-bg"/>
<line x1="80.74" y1="124.46" x2="80.74" y2="135.10" class="down-wick"/>
<rect x="76.74" y="130.41" width="8.00" height="4.63" class="down-body"/>
<line x1="102.23" y1="132.12" x2="102.23" y2="135.64" class="up-wick"/>
<rect x="98.23" y="133.19" width="8.00" height="1.86" class="up-body"/>
<line x1="123.72" y1="127.65" x2="123.72" y2="133.59" class="up-wick"/>
<rect x="119.72" y="131.87" width="8.00" height="1.32" class="up-body"/>
<line x1="145.21" y1="118.75" x2="145.21" y2="134.28" class="up-wick"/>
<rect x="141.21" y="124.44" width="8.00" height="7.43" class="up-body"/>
<line x1="166.70" y1="117.64" x2="166.70" y2="126.29" class="up-wick"/>
<rect x="162.70" y="119.02" width="8.00" height="5.41" class="up-body"/>
<line x1="188.19" y1="109.24" x2="188.19" y2="120.32" class="up-wick"/>
<rect x="184.19" y="111.89" width="8.00" height="7.12" class="up-body"/>
<line x1="209.68" y1="111.41" x2="209.68" y2="114.55" class="down-wick"/>
<rect x="205.68" y="111.89" width="8.00" height="1.06" class="down-body"/>
<line x1="231.17" y1="112.39" x2="231.17" y2="122.22" class="down-wick"/>
<rect x="227.17" y="112.94" width="8.00" height="8.64" class="down-body"/>
<line x1="252.66" y1="118.25" x2="252.66" y2="128.55" class="down-wick"/>
<rect x="248.66" y="121.58" width="8.00" height="4.93" class="down-body"/>
<line x1="274.15" y1="116.51" x2="274.15" y2="126.82" class="up-wick"/>
<rect x="270.15" y="116.90" width="8.00" height="9.61" class="up-body"/>
<line x1="295.64" y1="109.49" x2="295.64" y2="122.42" class="down-wick"/>
<rect x="291.64" y="116.89" width="8.00" height="3.32" class="down-body"/>
<line x1="317.13" y1="118.46" x2="317.13" y2="128.97" class="down-wick"/>
<rect x="313.13" y="120.21" width="8.00" height="6.76" class="down-body"/>
<line x1="338.62" y1="126.33" x2="338.62" y2="134.61" class="down-wick"/>
<rect x="334.62" y="126.96" width="8.00" height="5.77" class="down-body"/>
<line x1="360.11" y1="125.22" x2="360.11" y2="134.85" class="up-wick"/>
<rect x="356.11" y="125.91" width="8.00" height="6.83" class="up-body"/>
<line x1="381.60" y1="119.73" x2="381.60" y2="128.40" class="up-wick"/>
<rect x="377.60" y="124.16" width="8.00" height="1.75" class="up-body"/>
<line x1="403.09" y1="123.83" x2="403.09" y2="141.23" class="down-wick"/>
<rect x="399.09" y="124.16" width="8.00" height="16.09" class="down-body"/>
<line x1="424.57" y1="138.66" x2="424.57" y2="158.08" class="down-wick"/>
<rect x="420.57" y="140.26" width="8.00" height="13.58" class="down-body"/>
<line x1="446.06" y1="149.70" x2="446.06" y2="159.97" class="down-wick"/>
<rect x="442.06" y="153.89" width="8.00" height="2.76" class="down-body"/>
<line x1="467.55" y1="140.99" x2="467.55" y2="157.00" class="up-wick"/>
<rect x="463.55" y="148.86" width="8.00" height="7.77" class="up-body"/>
<line x1="489.04" y1="144.34" x2="489.04" y2="156.44" class="down-wick"/>
<rect x="485.04" y="148.86" width="8.00" height="2.58" class="down-body"/>
<line x1="510.53" y1="150.14" x2="510.53" y2="176.40" class="down-wick"/>
<rect x="506.53" y="151.44" width="8.00" height="19.14" class="down-body"/>
<line x1="532.02" y1="166.14" x2="532.02" y2="174.26" class="up-wick"/>
<rect x="528.02" y="170.05" width="8.00" height="1.00" class="up-body"/>
<line x1="553.51" y1="166.74" x2="553.51" y2="172.31" class="down-wick"/>
<rect x="549.51" y="170.08" width="8.00" height="2.22" class="down-body"/>
<line x1="575.00" y1="161.07" x2="575.00" y2="183.58" class="up-wick"/>
<rect x="571.00" y="170.91" width="8.00" height="2.90" class="up-body"/>
<line x1="596.49" y1="167.65" x2="596.49" y2="182.85" class="down-wick"/>
<rect x="592.49" y="171.00" width="8.00" height="8.70" class="down-body"/>
<line x1="617.98" y1="177.42" x2="617.98" y2="217.25" class="down-wick"/>
<rect x="613.98" y="179.70" width="8.00" height="28.65" class="down-body"/>
<line x1="639.47" y1="182.43" x2="639.47" y2="214.61" class="up-wick"/>
<rect x="635.47" y="199.68" width="8.00" height="8.68" class="up-body"/>
<line x1="660.96" y1="190.73" x2="660.96" y2="208.18" class="down-wick"/>
<rect x="656.96" y="199.68" width="8.00" height="7.03" class="down-body"/>
<line x1="682.45" y1="202.16" x2="682.45" y2="213.30" class="down-wick"/>
<rect x="678.45" y="206.70" width="8.00" height="1.99" class="down-body"/>
<line x1="703.94" y1="201.23" x2="703.94" y2="209.37" class="up-wick"/>
<rect x="699.94" y="204.93" width="8.00" height="3.76" class="up-body"/>
<line x1="725.43" y1="201.66" x2="725.43" y2="221.82" class="down-wick"/>
<rect x="721.43" y="204.93" width="8.00" height="14.81" class="down-body"/>
<line x1="746.91" y1="219.74" x2="746.91" y2="258.06" class="down-wick"/>
<rect x="742.91" y="219.75" width="8.00" height="23.40" class="down-body"/>
<line x1="768.40" y1="239.96" x2="768.40" y2="274.76" class="down-wick"/>
<rect x="764.40" y="243.15" width="8.00" height="4.16" class="down-body"/>
<line x1="789.89" y1="230.11" x2="789.89" y2="247.55" class="up-wick"/>
<rect x="785.89" y="235.12" width="8.00" height="12.18" class="up-body"/>
<line x1="811.38" y1="220.28" x2="811.38" y2="242.27" class="up-wick"/>
<rect x="807.38" y="234.47" width="8.00" height="1.00" class="up-body"/>
<line x1="832.87" y1="227.16" x2="832.87" y2="237.69" class="up-wick"/>
<rect x="828.87" y="230.48" width="8.00" height="3.90" class="up-body"/>
<line x1="854.36" y1="180.17" x2="854.36" y2="230.48" class="up-wick"/>
<rect x="850.36" y="201.92" width="8.00" height="28.55" class="up-body"/>
<line x1="875.85" y1="172.46" x2="875.85" y2="212.86" class="up-wick"/>
<rect x="871.85" y="176.14" width="8.00" height="25.78" class="up-body"/>
<line x1="897.34" y1="174.28" x2="897.34" y2="196.04" class="down-wick"/>
<rect x="893.34" y="176.14" width="8.00" height="6.17" class="down-body"/>
<line x1="918.83" y1="167.17" x2="918.83" y2="182.57" class="up-wick"/>
<rect x="914.83" y="180.45" width="8.00" height="1.86" class="up-body"/>
<line x1="940.32" y1="173.90" x2="940.32" y2="209.19" class="down-wick"/>
<rect x="936.32" y="180.43" width="8.00" height="25.44" class="down-body"/>
<line x1="961.81" y1="198.66" x2="961.81" y2="208.79" class="up-wick"/>
<rect x="957.81" y="202.86" width="8.00" height="3.01" class="up-body"/>
<line x1="983.30" y1="186.37" x2="983.30" y2="204.06" class="up-wick"/>
<rect x="979.30" y="189.65" width="8.00" height="13.21" class="up-body"/>
<line x1="1004.79" y1="179.08" x2="1004.79" y2="195.84" class="up-wick"/>
<rect x="1000.79" y="183.73" width="8.00" height="5.92" class="up-body"/>
<line x1="1026.28" y1="183.32" x2="1026.28" y2="198.29" class="down-wick"/>
<rect x="1022.28" y="183.73" width="8.00" height="13.31" class="down-body"/>
<line x1="1047.77" y1="193.04" x2="1047.77" y2="200.87" class="up-wick"/>
<rect x="1043.77" y="194.96" width="8.00" height="2.07" class="up-body"/>
<line x1="1069.26" y1="188.32" x2="1069.26" y2="206.52" class="up-wick"/>
<rect x="1065.26" y="189.48" width="8.00" height="2.70" class="up-body"/>
<line x1="70" y1="176.40" x2="1080" y2="176.40" class="sweep-line"/>
<text x="1076" y="172.40" text-anchor="end" class="level-label">sweep 4477.27</text>
<line x1="70" y1="176.40" x2="1080" y2="176.40" class="entry-line"/>
<text x="1076" y="172.40" text-anchor="end" class="level-label">entry level 4477.27</text>
<text x="70" y="306" class="axis-label">2026-03-20 00:00:00+00:00 to 2026-03-24 00:00:00+00:00</text>
<text x="1080" y="306" text-anchor="end" class="axis-label">4047.55 - 4786.82</text>
<text x="70" y="332" class="panel-title">M15 liquidity / reaction context</text>
<rect x="70" y="346" width="1010" height="192" class="plot-bg"/>
<line x1="90.20" y1="374.54" x2="90.20" y2="425.58" class="up-wick"/>
<rect x="86.20" y="380.72" width="8.00" height="16.05" class="up-body"/>
<line x1="130.60" y1="359.24" x2="130.60" y2="384.01" class="up-wick"/>
<rect x="126.60" y="368.35" width="8.00" height="12.90" class="up-body"/>
<line x1="171.00" y1="366.59" x2="171.00" y2="383.10" class="down-wick"/>
<rect x="167.00" y="368.35" width="8.00" height="13.21" class="down-body"/>
<line x1="211.40" y1="375.29" x2="211.40" y2="394.48" class="down-wick"/>
<rect x="207.40" y="381.52" width="8.00" height="6.71" class="down-body"/>
<line x1="251.80" y1="378.64" x2="251.80" y2="398.38" class="down-wick"/>
<rect x="247.80" y="388.50" width="8.00" height="6.01" class="down-body"/>
<line x1="292.20" y1="386.99" x2="292.20" y2="400.44" class="down-wick"/>
<rect x="288.20" y="394.51" width="8.00" height="3.71" class="down-body"/>
<line x1="332.60" y1="394.00" x2="332.60" y2="408.13" class="up-wick"/>
<rect x="328.60" y="395.80" width="8.00" height="2.43" class="up-body"/>
<line x1="373.00" y1="391.91" x2="373.00" y2="423.43" class="down-wick"/>
<rect x="369.00" y="395.80" width="8.00" height="18.33" class="down-body"/>
<line x1="413.40" y1="407.42" x2="413.40" y2="443.97" class="down-wick"/>
<rect x="409.40" y="414.13" width="8.00" height="21.29" class="down-body"/>
<line x1="453.80" y1="428.67" x2="453.80" y2="460.10" class="down-wick"/>
<rect x="449.80" y="435.41" width="8.00" height="7.43" class="down-body"/>
<line x1="494.20" y1="435.47" x2="494.20" y2="516.92" class="down-wick"/>
<rect x="490.20" y="442.84" width="8.00" height="49.75" class="down-body"/>
<line x1="534.60" y1="485.90" x2="534.60" y2="524.76" class="down-wick"/>
<rect x="530.60" y="491.96" width="8.00" height="6.56" class="down-body"/>
<line x1="575.00" y1="446.15" x2="575.00" y2="516.99" class="up-wick"/>
<rect x="571.00" y="457.32" width="8.00" height="41.24" class="up-body"/>
<line x1="615.40" y1="430.14" x2="615.40" y2="457.95" class="up-wick"/>
<rect x="611.40" y="446.50" width="8.00" height="10.54" class="up-body"/>
<line x1="655.80" y1="422.17" x2="655.80" y2="450.85" class="up-wick"/>
<rect x="651.80" y="436.40" width="8.00" height="10.10" class="up-body"/>
<line x1="696.20" y1="435.52" x2="696.20" y2="477.82" class="down-wick"/>
<rect x="692.20" y="436.40" width="8.00" height="36.59" class="down-body"/>
<line x1="736.60" y1="446.64" x2="736.60" y2="476.39" class="up-wick"/>
<rect x="732.60" y="466.81" width="8.00" height="6.18" class="up-body"/>
<line x1="777.00" y1="450.59" x2="777.00" y2="468.09" class="up-wick"/>
<rect x="773.00" y="464.11" width="8.00" height="2.69" class="up-body"/>
<line x1="817.40" y1="462.99" x2="817.40" y2="486.85" class="down-wick"/>
<rect x="813.40" y="464.11" width="8.00" height="11.09" class="down-body"/>
<line x1="857.80" y1="475.20" x2="857.80" y2="498.04" class="down-wick"/>
<rect x="853.80" y="475.20" width="8.00" height="18.49" class="down-body"/>
<line x1="898.20" y1="480.32" x2="898.20" y2="503.35" class="down-wick"/>
<rect x="894.20" y="493.69" width="8.00" height="8.34" class="down-body"/>
<line x1="938.60" y1="489.77" x2="938.60" y2="504.00" class="up-wick"/>
<rect x="934.60" y="500.88" width="8.00" height="1.16" class="up-body"/>
<line x1="979.00" y1="490.64" x2="979.00" y2="513.12" class="down-wick"/>
<rect x="975.00" y="500.87" width="8.00" height="7.05" class="down-body"/>
<line x1="1019.40" y1="494.02" x2="1019.40" y2="511.78" class="up-wick"/>
<rect x="1015.40" y="499.57" width="8.00" height="8.36" class="up-body"/>
<line x1="1059.80" y1="486.11" x2="1059.80" y2="499.57" class="up-wick"/>
<rect x="1055.80" y="491.25" width="8.00" height="8.32" class="up-body"/>
<line x1="70" y1="404.40" x2="1080" y2="404.40" class="sweep-line"/>
<text x="1076" y="400.40" text-anchor="end" class="level-label">sweep 4477.27</text>
<line x1="70" y1="404.40" x2="1080" y2="404.40" class="entry-line"/>
<text x="1076" y="400.40" text-anchor="end" class="level-label">entry level 4477.27</text>
<text x="70" y="556" class="axis-label">2026-03-23 00:00:00+00:00 to 2026-03-23 06:00:00+00:00</text>
<text x="1080" y="556" text-anchor="end" class="axis-label">4302.66 - 4553.60</text>
<text x="70" y="582" class="panel-title">M5 reaction / execution context</text>
<rect x="70" y="596" width="1010" height="192" class="plot-bg"/>
<line x1="83.65" y1="645.56" x2="83.65" y2="675.58" class="down-wick"/>
<rect x="79.65" y="646.76" width="8.00" height="8.78" class="down-body"/>
<line x1="110.95" y1="624.54" x2="110.95" y2="657.95" class="up-wick"/>
<rect x="106.95" y="628.47" width="8.00" height="27.13" class="up-body"/>
<line x1="138.24" y1="625.42" x2="138.24" y2="644.20" class="down-wick"/>
<rect x="134.24" y="628.41" width="8.00" height="2.31" class="down-body"/>
<line x1="165.54" y1="621.00" x2="165.54" y2="634.01" class="up-wick"/>
<rect x="161.54" y="626.04" width="8.00" height="5.20" class="up-body"/>
<line x1="192.84" y1="612.68" x2="192.84" y2="626.91" class="up-wick"/>
<rect x="188.84" y="615.64" width="8.00" height="10.80" class="up-body"/>
<line x1="220.14" y1="609.24" x2="220.14" y2="620.86" class="down-wick"/>
<rect x="216.14" y="615.94" width="8.00" height="2.40" class="down-body"/>
<line x1="247.43" y1="616.59" x2="247.43" y2="631.24" class="down-wick"/>
<rect x="243.43" y="618.35" width="8.00" height="8.78" class="down-body"/>
<line x1="274.73" y1="623.99" x2="274.73" y2="633.10" class="up-wick"/>
<rect x="270.73" y="625.17" width="8.00" height="1.79" class="up-body"/>
<line x1="302.03" y1="624.92" x2="302.03" y2="632.90" class="down-wick"/>
<rect x="298.03" y="625.03" width="8.00" height="6.53" class="down-body"/>
<line x1="329.32" y1="625.29" x2="329.32" y2="633.34" class="down-wick"/>
<rect x="325.32" y="631.52" width="8.00" height="1.00" class="down-body"/>
<line x1="356.62" y1="628.41" x2="356.62" y2="632.69" class="down-wick"/>
<rect x="352.62" y="632.00" width="8.00" height="1.00" class="down-body"/>
<line x1="383.92" y1="633.14" x2="383.92" y2="644.48" class="down-wick"/>
<rect x="379.92" y="633.39" width="8.00" height="4.84" class="down-body"/>
<line x1="411.22" y1="628.64" x2="411.22" y2="641.41" class="up-wick"/>
<rect x="407.22" y="637.57" width="8.00" height="1.00" class="up-body"/>
<line x1="438.51" y1="632.37" x2="438.51" y2="646.48" class="down-wick"/>
<rect x="434.51" y="637.57" width="8.00" height="3.11" class="down-body"/>
<line x1="465.81" y1="637.16" x2="465.81" y2="648.38" class="down-wick"/>
<rect x="461.81" y="640.68" width="8.00" height="3.83" class="down-body"/>
<line x1="493.11" y1="636.99" x2="493.11" y2="644.84" class="up-wick"/>
<rect x="489.11" y="644.37" width="8.00" height="1.00" class="up-body"/>
<line x1="520.41" y1="642.66" x2="520.41" y2="648.14" class="down-wick"/>
<rect x="516.41" y="644.37" width="8.00" height="1.00" class="down-body"/>
<line x1="547.70" y1="642.95" x2="547.70" y2="650.44" class="down-wick"/>
<rect x="543.70" y="644.93" width="8.00" height="3.30" class="down-body"/>
<line x1="575.00" y1="645.70" x2="575.00" y2="652.47" class="down-wick"/>
<rect x="571.00" y="648.23" width="8.00" height="2.28" class="down-body"/>
<line x1="602.30" y1="648.08" x2="602.30" y2="658.13" class="down-wick"/>
<rect x="598.30" y="650.51" width="8.00" height="2.69" class="down-body"/>
<line x1="629.59" y1="644.00" x2="629.59" y2="653.91" class="up-wick"/>
<rect x="625.59" y="645.80" width="8.00" height="7.40" class="up-body"/>
<line x1="656.89" y1="641.91" x2="656.89" y2="667.88" class="down-wick"/>
<rect x="652.89" y="645.80" width="8.00" height="19.56" class="down-body"/>
<line x1="684.19" y1="659.30" x2="684.19" y2="673.43" class="down-wick"/>
<rect x="680.19" y="665.37" width="8.00" height="3.26" class="down-body"/>
<line x1="711.49" y1="660.02" x2="711.49" y2="668.89" class="up-wick"/>
<rect x="707.49" y="664.13" width="8.00" height="4.51" class="up-body"/>
<line x1="738.78" y1="657.42" x2="738.78" y2="686.63" class="down-wick"/>
<rect x="734.78" y="664.13" width="8.00" height="18.55" class="down-body"/>
<line x1="766.08" y1="672.67" x2="766.08" y2="693.97" class="down-wick"/>
<rect x="762.08" y="682.68" width="8.00" height="1.00" class="down-body"/>
<line x1="793.38" y1="676.07" x2="793.38" y2="686.47" class="down-wick"/>
<rect x="789.38" y="683.00" width="8.00" height="2.41" class="down-body"/>
<line x1="820.68" y1="685.08" x2="820.68" y2="710.10" class="down-wick"/>
<rect x="816.68" y="685.41" width="8.00" height="9.03" class="down-body"/>
<line x1="847.97" y1="682.21" x2="847.97" y2="697.76" class="up-wick"/>
<rect x="843.97" y="682.96" width="8.00" height="11.48" class="up-body"/>
<line x1="875.27" y1="678.67" x2="875.27" y2="695.15" class="down-wick"/>
<rect x="871.27" y="682.97" width="8.00" height="9.87" class="down-body"/>
<line x1="902.57" y1="685.47" x2="902.57" y2="713.91" class="down-wick"/>
<rect x="898.57" y="692.84" width="8.00" height="19.86" class="down-body"/>
<line x1="929.86" y1="712.44" x2="929.86" y2="766.92" class="down-wick"/>
<rect x="925.86" y="712.70" width="8.00" height="39.19" class="down-body"/>
<line x1="957.16" y1="740.07" x2="957.16" y2="756.30" class="up-wick"/>
<rect x="953.16" y="742.59" width="8.00" height="9.32" class="up-body"/>
<line x1="984.46" y1="738.44" x2="984.46" y2="755.83" class="down-wick"/>
<rect x="980.46" y="741.96" width="8.00" height="13.23" class="down-body"/>
<line x1="1011.76" y1="743.78" x2="1011.76" y2="774.76" class="down-wick"/>
<rect x="1007.76" y="755.19" width="8.00" height="7.52" class="down-body"/>
<line x1="1039.05" y1="735.90" x2="1039.05" y2="767.55" class="up-wick"/>
<rect x="1035.05" y="748.52" width="8.00" height="14.18" class="up-body"/>
<line x1="1066.35" y1="728.28" x2="1066.35" y2="766.99" class="up-wick"/>
<rect x="1062.35" y="730.98" width="8.00" height="17.58" class="up-body"/>
<line x1="70" y1="654.40" x2="1080" y2="654.40" class="sweep-line"/>
<text x="1076" y="650.40" text-anchor="end" class="level-label">sweep 4477.27</text>
<line x1="70" y1="654.40" x2="1080" y2="654.40" class="entry-line"/>
<text x="1076" y="650.40" text-anchor="end" class="level-label">entry level 4477.27</text>
<text x="70" y="806" class="axis-label">2026-03-23 00:00:00+00:00 to 2026-03-23 03:00:00+00:00</text>
<text x="1080" y="806" text-anchor="end" class="axis-label">4302.66 - 4553.60</text>
<text x="70" y="832" class="panel-title">M1 execution window</text>
<rect x="70" y="846" width="1010" height="192" class="plot-bg"/>
<line x1="72.79" y1="895.56" x2="72.79" y2="897.28" class="up-wick"/>
<rect x="70.98" y="895.90" width="3.63" height="1.00" class="up-body"/>
<line x1="78.37" y1="895.75" x2="78.37" y2="905.11" class="down-wick"/>
<rect x="76.56" y="895.75" width="3.63" height="8.67" class="down-body"/>
<line x1="83.95" y1="902.85" x2="83.95" y2="915.20" class="down-wick"/>
<rect x="82.14" y="904.19" width="3.63" height="10.39" class="down-body"/>
<line x1="89.53" y1="914.17" x2="89.53" y2="925.58" class="down-wick"/>
<rect x="87.72" y="914.37" width="3.63" height="6.10" class="down-body"/>
<line x1="95.11" y1="904.46" x2="95.11" y2="921.33" class="up-wick"/>
<rect x="93.30" y="905.55" width="3.63" height="14.85" class="up-body"/>
<line x1="100.69" y1="891.01" x2="100.69" y2="907.95" class="up-wick"/>
<rect x="98.88" y="893.63" width="3.63" height="11.97" class="up-body"/>
<line x1="106.27" y1="886.43" x2="106.27" y2="899.76" class="down-wick"/>
<rect x="104.46" y="893.83" width="3.63" height="2.91" class="down-body"/>
<line x1="111.85" y1="874.54" x2="111.85" y2="896.81" class="up-wick"/>
<rect x="110.04" y="882.76" width="3.63" height="14.05" class="up-body"/>
<line x1="117.43" y1="881.38" x2="117.43" y2="893.02" class="down-wick"/>
<rect x="115.62" y="882.81" width="3.63" height="2.35" class="down-body"/>
<line x1="123.01" y1="877.55" x2="123.01" y2="885.42" class="up-wick"/>
<rect x="121.20" y="878.47" width="3.63" height="6.69" class="up-body"/>
<line x1="128.59" y1="875.42" x2="128.59" y2="883.27" class="down-wick"/>
<rect x="126.78" y="878.41" width="3.63" height="2.57" class="down-body"/>
<line x1="134.17" y1="880.88" x2="134.17" y2="887.28" class="down-wick"/>
<rect x="132.36" y="880.97" width="3.63" height="6.30" class="down-body"/>
<line x1="139.75" y1="885.39" x2="139.75" y2="894.20" class="up-wick"/>
<rect x="137.94" y="886.50" width="3.63" height="1.00" class="up-body"/>
<line x1="145.33" y1="883.40" x2="145.33" y2="886.47" class="up-wick"/>
<rect x="143.52" y="885.49" width="3.63" height="1.00" class="up-body"/>
<line x1="150.91" y1="880.65" x2="150.91" y2="886.53" class="up-wick"/>
<rect x="149.10" y="880.72" width="3.63" height="4.76" class="up-body"/>
<line x1="156.49" y1="880.20" x2="156.49" y2="882.52" class="up-wick"/>
<rect x="154.68" y="880.99" width="3.63" height="1.00" class="up-body"/>
<line x1="162.07" y1="879.81" x2="162.07" y2="884.01" class="down-wick"/>
<rect x="160.26" y="880.94" width="3.63" height="1.00" class="down-body"/>
<line x1="167.65" y1="879.76" x2="167.65" y2="881.55" class="up-wick"/>
<rect x="165.84" y="880.31" width="3.63" height="1.00" class="up-body"/>
<line x1="173.23" y1="873.86" x2="173.23" y2="881.58" class="up-wick"/>
<rect x="171.42" y="874.71" width="3.63" height="6.17" class="up-body"/>
<line x1="178.81" y1="871.00" x2="178.81" y2="877.81" class="down-wick"/>
<rect x="177.00" y="874.66" width="3.63" height="1.38" class="down-body"/>
<line x1="184.39" y1="872.89" x2="184.39" y2="876.91" class="up-wick"/>
<rect x="182.58" y="873.69" width="3.63" height="2.75" class="up-body"/>
<line x1="189.97" y1="867.99" x2="189.97" y2="874.87" class="up-wick"/>
<rect x="188.16" y="868.19" width="3.63" height="5.33" class="up-body"/>
<line x1="195.55" y1="865.99" x2="195.55" y2="872.34" class="down-wick"/>
<rect x="193.74" y="868.22" width="3.63" height="1.00" class="down-body"/>
<line x1="201.13" y1="868.78" x2="201.13" y2="873.67" class="down-wick"/>
<rect x="199.32" y="868.94" width="3.63" height="2.15" class="down-body"/>
<line x1="206.71" y1="862.68" x2="206.71" y2="870.84" class="up-wick"/>
<rect x="204.90" y="865.64" width="3.63" height="5.12" class="up-body"/>
<line x1="212.29" y1="865.40" x2="212.29" y2="870.00" class="down-wick"/>
<rect x="210.48" y="865.94" width="3.63" height="2.22" class="down-body"/>
<line x1="217.87" y1="863.29" x2="217.87" y2="870.86" class="up-wick"/>
<rect x="216.06" y="864.08" width="3.63" height="4.06" class="up-body"/>
<line x1="223.45" y1="862.46" x2="223.45" y2="865.78" class="down-wick"/>
<rect x="221.64" y="863.99" width="3.63" height="1.65" class="down-body"/>
<line x1="229.03" y1="859.24" x2="229.03" y2="866.19" class="up-wick"/>
<rect x="227.22" y="861.97" width="3.63" height="3.61" class="up-body"/>
<line x1="234.61" y1="861.68" x2="234.61" y2="868.51" class="down-wick"/>
<rect x="232.80" y="861.71" width="3.63" height="6.64" class="down-body"/>
<line x1="240.19" y1="866.59" x2="240.19" y2="870.81" class="up-wick"/>
<rect x="238.38" y="868.14" width="3.63" height="1.00" class="up-body"/>
<line x1="245.77" y1="866.64" x2="245.77" y2="870.65" class="down-wick"/>
<rect x="243.96" y="867.88" width="3.63" height="1.22" class="down-body"/>
<line x1="251.35" y1="867.44" x2="251.35" y2="874.89" class="down-wick"/>
<rect x="249.54" y="869.45" width="3.63" height="5.26" class="down-body"/>
<line x1="256.93" y1="873.63" x2="256.93" y2="877.18" class="down-wick"/>
<rect x="255.12" y="874.99" width="3.63" height="2.12" class="down-body"/>
<line x1="262.51" y1="875.23" x2="262.51" y2="881.24" class="down-wick"/>
<rect x="260.70" y="877.05" width="3.63" height="1.00" class="down-body"/>
<line x1="268.09" y1="873.99" x2="268.09" y2="876.96" class="up-wick"/>
<rect x="266.28" y="876.27" width="3.63" height="1.00" class="up-body"/>
<line x1="273.67" y1="875.85" x2="273.67" y2="883.10" class="down-wick"/>
<rect x="271.86" y="876.17" width="3.63" height="5.51" class="down-body"/>
<line x1="279.25" y1="880.15" x2="279.25" y2="882.59" class="up-wick"/>
<rect x="277.44" y="880.24" width="3.63" height="1.42" class="up-body"/>
<line x1="284.83" y1="875.39" x2="284.83" y2="880.83" class="up-wick"/>
<rect x="283.02" y="875.53" width="3.63" height="4.71" class="up-body"/>
<line x1="290.41" y1="874.22" x2="290.41" y2="876.39" class="up-wick"/>
<rect x="288.60" y="875.17" width="3.63" height="1.00" class="up-body"/>
<line x1="295.99" y1="875.00" x2="295.99" y2="878.47" class="down-wick"/>
<rect x="294.18" y="875.03" width="3.63" height="1.00" class="down-body"/>
<line x1="301.57" y1="874.92" x2="301.57" y2="878.57" class="down-wick"/>
<rect x="299.76" y="875.12" width="3.63" height="3.21" class="down-body"/>
<line x1="307.15" y1="878.15" x2="307.15" y2="880.78" class="down-wick"/>
<rect x="305.34" y="878.17" width="3.63" height="1.29" class="down-body"/>
<line x1="312.73" y1="878.45" x2="312.73" y2="881.65" class="down-wick"/>
<rect x="310.92" y="879.46" width="3.63" height="1.00" class="down-body"/>
<line x1="318.31" y1="879.66" x2="318.31" y2="882.90" class="down-wick"/>
<rect x="316.50" y="879.81" width="3.63" height="1.75" class="down-body"/>
<line x1="323.90" y1="875.32" x2="323.90" y2="882.81" class="up-wick"/>
<rect x="322.08" y="875.42" width="3.63" height="6.10" class="up-body"/>
<line x1="329.48" y1="875.29" x2="329.48" y2="882.72" class="down-wick"/>
<rect x="327.66" y="875.31" width="3.63" height="6.37" class="down-body"/>
<line x1="335.06" y1="880.40" x2="335.06" y2="883.34" class="down-wick"/>
<rect x="333.24" y="881.48" width="3.63" height="1.06" class="down-body"/>
<line x1="340.64" y1="880.27" x2="340.64" y2="882.61" class="down-wick"/>
<rect x="338.82" y="882.28" width="3.63" height="1.00" class="down-body"/>
<line x1="346.22" y1="881.64" x2="346.22" y2="882.85" class="up-wick"/>
<rect x="344.40" y="881.98" width="3.63" height="1.00" class="up-body"/>
<line x1="351.80" y1="879.00" x2="351.80" y2="882.19" class="up-wick"/>
<rect x="349.98" y="880.37" width="3.63" height="1.64" class="up-body"/>
<line x1="357.38" y1="878.73" x2="357.38" y2="881.12" class="up-wick"/>
<rect x="355.56" y="878.82" width="3.63" height="1.53" class="up-body"/>
<line x1="362.96" y1="878.41" x2="362.96" y2="880.61" class="down-wick"/>
<rect x="361.14" y="878.89" width="3.63" height="1.00" class="down-body"/>
<line x1="368.54" y1="879.35" x2="368.54" y2="882.00" class="down-wick"/>
<rect x="366.72" y="879.42" width="3.63" height="2.07" class="down-body"/>
<line x1="374.12" y1="879.18" x2="374.12" y2="882.69" class="down-wick"/>
<rect x="372.30" y="881.51" width="3.63" height="1.14" class="down-body"/>
<line x1="379.70" y1="883.14" x2="379.70" y2="886.20" class="down-wick"/>
<rect x="377.88" y="883.39" width="3.63" height="1.32" class="down-body"/>
<line x1="385.28" y1="884.00" x2="385.28" y2="885.77" class="down-wick"/>
<rect x="383.46" y="884.69" width="3.63" height="1.08" class="down-body"/>
<line x1="390.86" y1="885.33" x2="390.86" y2="893.42" class="down-wick"/>
<rect x="389.04" y="885.88" width="3.63" height="6.58" class="down-body"/>
<line x1="396.44" y1="892.01" x2="396.44" y2="894.48" class="down-wick"/>
<rect x="394.62" y="892.40" width="3.63" height="1.21" class="down-body"/>
<line x1="402.02" y1="887.90" x2="402.02" y2="893.64" class="up-wick"/>
<rect x="400.20" y="888.23" width="3.63" height="5.39" class="up-body"/>
<line x1="407.60" y1="887.49" x2="407.60" y2="891.41" class="up-wick"/>
<rect x="405.78" y="887.98" width="3.63" height="1.00" class="up-body"/>
<line x1="413.18" y1="879.88" x2="413.18" y2="889.68" class="up-wick"/>
<rect x="411.36" y="881.22" width="3.63" height="6.76" class="up-body"/>
<line x1="418.76" y1="878.64" x2="418.76" y2="882.46" class="down-wick"/>
<rect x="416.94" y="881.12" width="3.63" height="1.00" class="down-body"/>
<line x1="424.34" y1="880.88" x2="424.34" y2="887.02" class="down-wick"/>
<rect x="422.52" y="881.25" width="3.63" height="5.39" class="down-body"/>
<line x1="429.92" y1="885.74" x2="429.92" y2="888.64" class="down-wick"/>
<rect x="428.10" y="886.63" width="3.63" height="1.00" class="down-body"/>
<line x1="435.50" y1="882.68" x2="435.50" y2="887.57" class="up-wick"/>
<rect x="433.68" y="884.26" width="3.63" height="3.31" class="up-body"/>
<line x1="441.08" y1="882.37" x2="441.08" y2="889.82" class="down-wick"/>
<rect x="439.26" y="884.26" width="3.63" height="5.55" class="down-body"/>
<line x1="446.66" y1="889.82" x2="446.66" y2="896.48" class="down-wick"/>
<rect x="444.84" y="889.82" width="3.63" height="2.46" class="down-body"/>
<line x1="452.24" y1="890.65" x2="452.24" y2="893.83" class="down-wick"/>
<rect x="450.42" y="892.26" width="3.63" height="1.19" class="down-body"/>
<line x1="457.82" y1="890.51" x2="457.82" y2="893.59" class="up-wick"/>
<rect x="456.00" y="890.68" width="3.63" height="2.80" class="up-body"/>
<line x1="463.40" y1="887.16" x2="463.40" y2="891.31" class="up-wick"/>
<rect x="461.58" y="889.09" width="3.63" height="1.59" class="up-body"/>
<line x1="468.98" y1="888.84" x2="468.98" y2="894.10" class="down-wick"/>
<rect x="467.16" y="889.09" width="3.63" height="4.79" class="down-body"/>
<line x1="474.56" y1="893.88" x2="474.56" y2="898.38" class="down-wick"/>
<rect x="472.74" y="893.88" width="3.63" height="1.00" class="down-body"/>
<line x1="480.14" y1="890.57" x2="480.14" y2="896.12" class="up-wick"/>
<rect x="478.32" y="892.07" width="3.63" height="2.38" class="up-body"/>
<line x1="485.72" y1="889.44" x2="485.72" y2="894.54" class="down-wick"/>
<rect x="483.90" y="892.07" width="3.63" height="2.44" class="down-body"/>
<line x1="491.30" y1="890.23" x2="491.30" y2="894.84" class="up-wick"/>
<rect x="489.48" y="890.23" width="3.63" height="4.28" class="up-body"/>
<line x1="496.88" y1="886.99" x2="496.88" y2="892.10" class="up-wick"/>
<rect x="495.06" y="888.23" width="3.63" height="2.00" class="up-body"/>
<line x1="502.46" y1="887.48" x2="502.46" y2="890.63" class="up-wick"/>
<rect x="500.65" y="888.08" width="3.63" height="1.00" class="up-body"/>
<line x1="508.04" y1="887.55" x2="508.04" y2="889.49" class="down-wick"/>
<rect x="506.23" y="888.08" width="3.63" height="1.00" class="down-body"/>
<line x1="513.62" y1="888.34" x2="513.62" y2="894.37" class="down-wick"/>
<rect x="511.81" y="888.65" width="3.63" height="5.72" class="down-body"/>
<line x1="519.20" y1="892.66" x2="519.20" y2="895.08" class="down-wick"/>
<rect x="517.39" y="894.37" width="3.63" height="1.00" class="down-body"/>
<line x1="524.78" y1="894.62" x2="524.78" y2="898.14" class="down-wick"/>
<rect x="522.97" y="894.62" width="3.63" height="1.00" class="down-body"/>
<line x1="530.36" y1="892.81" x2="530.36" y2="895.71" class="up-wick"/>
<rect x="528.55" y="892.86" width="3.63" height="2.55" class="up-body"/>
<line x1="535.94" y1="892.86" x2="535.94" y2="894.94" class="down-wick"/>
<rect x="534.13" y="892.86" width="3.63" height="2.03" class="down-body"/>
<line x1="541.52" y1="893.28" x2="541.52" y2="896.48" class="down-wick"/>
<rect x="539.71" y="894.89" width="3.63" height="1.00" class="down-body"/>
<line x1="547.10" y1="894.50" x2="547.10" y2="899.30" class="down-wick"/>
<rect x="545.29" y="894.93" width="3.63" height="4.15" class="down-body"/>
<line x1="552.68" y1="897.13" x2="552.68" y2="900.44" class="down-wick"/>
<rect x="550.87" y="899.08" width="3.63" height="1.00" class="down-body"/>
<line x1="558.26" y1="893.63" x2="558.26" y2="899.39" class="up-wick"/>
<rect x="556.45" y="893.63" width="3.63" height="5.62" class="up-body"/>
<line x1="563.84" y1="892.95" x2="563.84" y2="898.81" class="down-wick"/>
<rect x="562.03" y="893.63" width="3.63" height="4.98" class="down-body"/>
<line x1="569.42" y1="896.62" x2="569.42" y2="899.14" class="up-wick"/>
<rect x="567.61" y="898.23" width="3.63" height="1.00" class="up-body"/>
<line x1="575.00" y1="897.03" x2="575.00" y2="901.49" class="down-wick"/>
<rect x="573.19" y="898.23" width="3.63" height="2.36" class="down-body"/>
<line x1="580.58" y1="897.22" x2="580.58" y2="900.63" class="up-wick"/>
<rect x="578.77" y="897.94" width="3.63" height="2.64" class="up-body"/>
<line x1="586.16" y1="895.70" x2="586.16" y2="900.51" class="up-wick"/>
<rect x="584.35" y="896.23" width="3.63" height="1.71" class="up-body"/>
<line x1="591.74" y1="896.23" x2="591.74" y2="900.35" class="down-wick"/>
<rect x="589.93" y="896.23" width="3.63" height="2.48" class="down-body"/>
<line x1="597.32" y1="898.29" x2="597.32" y2="902.47" class="down-wick"/>
<rect x="595.51" y="898.71" width="3.63" height="1.80" class="down-body"/>
<line x1="602.90" y1="898.08" x2="602.90" y2="901.66" class="down-wick"/>
<rect x="601.09" y="900.51" width="3.63" height="1.00" class="down-body"/>
<line x1="608.48" y1="901.02" x2="608.48" y2="908.13" class="down-wick"/>
<rect x="606.67" y="901.45" width="3.63" height="1.97" class="down-body"/>
<line x1="614.06" y1="902.07" x2="614.06" y2="906.42" class="down-wick"/>
<rect x="612.25" y="903.42" width="3.63" height="1.91" class="down-body"/>
<line x1="619.64" y1="901.47" x2="619.64" y2="905.51" class="up-wick"/>
<rect x="617.83" y="901.71" width="3.63" height="3.62" class="up-body"/>
<line x1="625.22" y1="901.35" x2="625.22" y2="903.74" class="down-wick"/>
<rect x="623.41" y="901.66" width="3.63" height="1.54" class="down-body"/>
<line x1="630.80" y1="901.73" x2="630.80" y2="903.91" class="up-wick"/>
<rect x="628.99" y="901.99" width="3.63" height="1.21" class="up-body"/>
<line x1="636.38" y1="901.62" x2="636.38" y2="903.17" class="down-wick"/>
<rect x="634.57" y="902.01" width="3.63" height="1.00" class="down-body"/>
<line x1="641.96" y1="898.98" x2="641.96" y2="903.08" class="up-wick"/>
<rect x="640.15" y="899.30" width="3.63" height="2.85" class="up-body"/>
<line x1="647.54" y1="894.21" x2="647.54" y2="899.43" class="up-wick"/>
<rect x="645.73" y="895.33" width="3.63" height="3.98" class="up-body"/>
<line x1="653.12" y1="894.00" x2="653.12" y2="896.82" class="down-wick"/>
<rect x="651.31" y="895.33" width="3.63" height="1.00" class="down-body"/>
<line x1="658.70" y1="891.91" x2="658.70" y2="896.11" class="up-wick"/>
<rect x="656.89" y="892.79" width="3.63" height="3.01" class="up-body"/>
<line x1="664.28" y1="892.70" x2="664.28" y2="900.84" class="down-wick"/>
<rect x="662.47" y="892.79" width="3.63" height="7.80" class="down-body"/>
<line x1="669.86" y1="898.29" x2="669.86" y2="901.42" class="down-wick"/>
<rect x="668.05" y="900.58" width="3.63" height="1.00" class="down-body"/>
<line x1="675.44" y1="900.50" x2="675.44" y2="917.88" class="down-wick"/>
<rect x="673.63" y="901.21" width="3.63" height="15.56" class="down-body"/>
<line x1="681.02" y1="912.30" x2="681.02" y2="916.96" class="up-wick"/>
<rect x="679.21" y="915.37" width="3.63" height="1.40" class="up-body"/>
<line x1="686.60" y1="912.10" x2="686.60" y2="915.69" class="up-wick"/>
<rect x="684.79" y="914.04" width="3.63" height="1.33" class="up-body"/>
<line x1="692.18" y1="909.70" x2="692.18" y2="913.86" class="up-wick"/>
<rect x="690.37" y="911.70" width="3.63" height="2.16" class="up-body"/>
<line x1="697.76" y1="909.30" x2="697.76" y2="915.69" class="down-wick"/>
<rect x="695.95" y="911.70" width="3.63" height="3.61" class="down-body"/>
<line x1="703.34" y1="914.91" x2="703.34" y2="922.76" class="down-wick"/>
<rect x="701.53" y="915.27" width="3.63" height="5.82" class="down-body"/>
<line x1="708.92" y1="918.63" x2="708.92" y2="923.43" class="up-wick"/>
<rect x="707.11" y="918.63" width="3.63" height="2.41" class="up-body"/>
<line x1="714.50" y1="913.07" x2="714.50" y2="918.89" class="up-wick"/>
<rect x="712.69" y="916.21" width="3.63" height="2.42" class="up-body"/>
<line x1="720.08" y1="914.79" x2="720.08" y2="917.09" class="up-wick"/>
<rect x="718.27" y="914.79" width="3.63" height="1.42" class="up-body"/>
<line x1="725.66" y1="913.63" x2="725.66" y2="916.55" class="down-wick"/>
<rect x="723.85" y="914.79" width="3.63" height="1.00" class="down-body"/>
<line x1="731.24" y1="914.41" x2="731.24" y2="917.76" class="down-wick"/>
<rect x="729.43" y="915.05" width="3.63" height="1.93" class="down-body"/>
<line x1="736.82" y1="910.02" x2="736.82" y2="916.99" class="up-wick"/>
<rect x="735.01" y="914.13" width="3.63" height="2.85" class="up-body"/>
<line x1="742.40" y1="907.42" x2="742.40" y2="914.14" class="up-wick"/>
<rect x="740.59" y="910.99" width="3.63" height="3.14" class="up-body"/>
<line x1="747.98" y1="910.12" x2="747.98" y2="920.68" class="down-wick"/>
<rect x="746.17" y="910.99" width="3.63" height="9.69" class="down-body"/>
<line x1="753.56" y1="918.11" x2="753.56" y2="924.35" class="down-wick"/>
<rect x="751.75" y="920.68" width="3.63" height="2.42" class="down-body"/>
<line x1="759.14" y1="922.23" x2="759.14" y2="936.54" class="down-wick"/>
<rect x="757.33" y="923.07" width="3.63" height="13.03" class="down-body"/>
<line x1="764.72" y1="929.94" x2="764.72" y2="936.63" class="up-wick"/>
<rect x="762.91" y="932.68" width="3.63" height="3.42" class="up-body"/>
<line x1="770.30" y1="931.86" x2="770.30" y2="943.97" class="down-wick"/>
<rect x="768.49" y="932.68" width="3.63" height="11.26" class="down-body"/>
<line x1="775.88" y1="933.35" x2="775.88" y2="943.94" class="up-wick"/>
<rect x="774.07" y="933.99" width="3.63" height="9.95" class="up-body"/>
<line x1="781.46" y1="926.29" x2="781.46" y2="935.70" class="up-wick"/>
<rect x="779.65" y="928.03" width="3.63" height="6.01" class="up-body"/>
<line x1="787.04" y1="922.67" x2="787.04" y2="928.86" class="down-wick"/>
<rect x="785.23" y="928.03" width="3.63" height="1.00" class="down-body"/>
<line x1="792.62" y1="923.79" x2="792.62" y2="933.02" class="down-wick"/>
<rect x="790.81" y="928.60" width="3.63" height="4.40" class="down-body"/>
<line x1="798.20" y1="932.75" x2="798.20" y2="935.33" class="down-wick"/>
<rect x="796.39" y="933.00" width="3.63" height="1.00" class="down-body"/>
<line x1="803.78" y1="926.67" x2="803.78" y2="934.90" class="up-wick"/>
<rect x="801.97" y="927.08" width="3.63" height="6.79" class="up-body"/>
<line x1="809.36" y1="926.07" x2="809.36" y2="929.27" class="up-wick"/>
<rect x="807.55" y="926.87" width="3.63" height="1.00" class="up-body"/>
<line x1="814.94" y1="926.49" x2="814.94" y2="932.37" class="down-wick"/>
<rect x="813.13" y="926.87" width="3.63" height="5.20" class="down-body"/>
<line x1="820.52" y1="930.09" x2="820.52" y2="936.47" class="down-wick"/>
<rect x="818.71" y="932.08" width="3.63" height="3.34" class="down-body"/>
<line x1="826.10" y1="935.08" x2="826.10" y2="960.10" class="down-wick"/>
<rect x="824.29" y="935.41" width="3.63" height="16.24" class="down-body"/>
<line x1="831.69" y1="947.26" x2="831.69" y2="956.37" class="up-wick"/>
<rect x="829.87" y="950.64" width="3.63" height="1.00" class="up-body"/>
<line x1="837.27" y1="949.80" x2="837.27" y2="954.36" class="down-wick"/>
<rect x="835.45" y="950.79" width="3.63" height="1.00" class="down-body"/>
<line x1="842.85" y1="944.06" x2="842.85" y2="952.02" class="up-wick"/>
<rect x="841.03" y="944.06" width="3.63" height="7.59" class="up-body"/>
<line x1="848.43" y1="938.79" x2="848.43" y2="944.66" class="down-wick"/>
<rect x="846.61" y="944.06" width="3.63" height="1.00" class="down-body"/>
<line x1="854.01" y1="940.95" x2="854.01" y2="947.49" class="down-wick"/>
<rect x="852.19" y="944.44" width="3.63" height="3.01" class="down-body"/>
<line x1="859.59" y1="937.80" x2="859.59" y2="947.76" class="up-wick"/>
<rect x="857.77" y="939.15" width="3.63" height="8.30" class="up-body"/>
<line x1="865.17" y1="939.05" x2="865.17" y2="944.36" class="down-wick"/>
<rect x="863.35" y="939.25" width="3.63" height="1.44" class="down-body"/>
<line x1="870.75" y1="933.35" x2="870.75" y2="940.70" class="up-wick"/>
<rect x="868.93" y="936.33" width="3.63" height="4.33" class="up-body"/>
<line x1="876.33" y1="932.21" x2="876.33" y2="938.74" class="up-wick"/>
<rect x="874.51" y="932.96" width="3.63" height="3.28" class="up-body"/>
<line x1="881.91" y1="928.67" x2="881.91" y2="933.21" class="up-wick"/>
<rect x="880.09" y="931.53" width="3.63" height="1.45" class="up-body"/>
<line x1="887.49" y1="931.53" x2="887.49" y2="935.73" class="down-wick"/>
<rect x="885.67" y="931.53" width="3.63" height="3.38" class="down-body"/>
<line x1="893.07" y1="934.66" x2="893.07" y2="943.10" class="down-wick"/>
<rect x="891.25" y="934.91" width="3.63" height="7.59" class="down-body"/>
<line x1="898.65" y1="941.08" x2="898.65" y2="944.92" class="down-wick"/>
<rect x="896.83" y="942.50" width="3.63" height="2.17" class="down-body"/>
<line x1="904.23" y1="941.65" x2="904.23" y2="945.15" class="up-wick"/>
<rect x="902.41" y="942.84" width="3.63" height="1.82" class="up-body"/>
<line x1="909.81" y1="937.16" x2="909.81" y2="942.93" class="up-wick"/>
<rect x="907.99" y="937.39" width="3.63" height="5.46" class="up-body"/>
<line x1="915.39" y1="935.47" x2="915.39" y2="945.36" class="down-wick"/>
<rect x="913.57" y="937.39" width="3.63" height="7.92" class="down-body"/>
<line x1="920.97" y1="941.34" x2="920.97" y2="947.68" class="down-wick"/>
<rect x="919.15" y="945.30" width="3.63" height="1.00" class="down-body"/>
<line x1="926.55" y1="945.49" x2="926.55" y2="949.35" class="down-wick"/>
<rect x="924.73" y="946.61" width="3.63" height="2.75" class="down-body"/>
<line x1="932.13" y1="948.86" x2="932.13" y2="963.91" class="down-wick"/>
<rect x="930.31" y="949.37" width="3.63" height="13.34" class="down-body"/>
<line x1="937.71" y1="962.44" x2="937.71" y2="990.75" class="down-wick"/>
<rect x="935.89" y="962.70" width="3.63" height="25.78" class="down-body"/>
<line x1="943.29" y1="984.81" x2="943.29" y2="1010.93" class="down-wick"/>
<rect x="941.47" y="988.12" width="3.63" height="15.72" class="down-body"/>
<line x1="948.87" y1="999.48" x2="948.87" y2="1015.52" class="down-wick"/>
<rect x="947.05" y="1003.84" width="3.63" height="11.63" class="down-body"/>
<line x1="954.45" y1="998.38" x2="954.45" y2="1016.92" class="up-wick"/>
<rect x="952.63" y="1010.91" width="3.63" height="4.56" class="up-body"/>
<line x1="960.03" y1="993.38" x2="960.03" y2="1012.81" class="up-wick"/>
<rect x="958.21" y="1001.90" width="3.63" height="8.99" class="up-body"/>
<line x1="965.61" y1="995.84" x2="965.61" y2="1006.30" class="up-wick"/>
<rect x="963.79" y="999.11" width="3.63" height="2.80" class="up-body"/>
<line x1="971.19" y1="994.01" x2="971.19" y2="1002.27" class="down-wick"/>
<rect x="969.37" y="999.11" width="3.63" height="2.49" class="down-body"/>
<line x1="976.77" y1="996.82" x2="976.77" y2="1002.98" class="up-wick"/>
<rect x="974.95" y="1000.94" width="3.63" height="1.00" class="up-body"/>
<line x1="982.35" y1="994.24" x2="982.35" y2="1001.12" class="up-wick"/>
<rect x="980.53" y="994.75" width="3.63" height="6.19" class="up-body"/>
<line x1="987.93" y1="990.07" x2="987.93" y2="997.17" class="up-wick"/>
<rect x="986.11" y="992.59" width="3.63" height="2.14" class="up-body"/>
<line x1="993.51" y1="988.44" x2="993.51" y2="1001.89" class="down-wick"/>
<rect x="991.69" y="991.96" width="3.63" height="1.55" class="down-body"/>
<line x1="999.09" y1="992.76" x2="999.09" y2="997.63" class="down-wick"/>
<rect x="997.27" y="993.49" width="3.63" height="1.00" class="down-body"/>
<line x1="1004.67" y1="993.56" x2="1004.67" y2="1003.66" class="down-wick"/>
<rect x="1002.85" y="994.05" width="3.63" height="3.93" class="down-body"/>
<line x1="1010.25" y1="997.43" x2="1010.25" y2="1005.83" class="down-wick"/>
<rect x="1008.44" y="997.88" width="3.63" height="3.74" class="down-body"/>
<line x1="1015.83" y1="997.43" x2="1015.83" y2="1005.24" class="down-wick"/>
<rect x="1014.02" y="1001.62" width="3.63" height="3.57" class="down-body"/>
<line x1="1021.41" y1="999.85" x2="1021.41" y2="1005.56" class="up-wick"/>
<rect x="1019.60" y="1000.35" width="3.63" height="4.84" class="up-body"/>
<line x1="1026.99" y1="993.78" x2="1026.99" y2="1001.28" class="up-wick"/>
<rect x="1025.18" y="1000.17" width="3.63" height="1.00" class="up-body"/>
<line x1="1032.57" y1="999.68" x2="1032.57" y2="1024.76" class="down-wick"/>
<rect x="1030.76" y="1000.17" width="3.63" height="22.69" class="down-body"/>
<line x1="1038.15" y1="1014.39" x2="1038.15" y2="1024.41" class="up-wick"/>
<rect x="1036.34" y="1016.17" width="3.63" height="6.73" class="up-body"/>
<line x1="1043.73" y1="1012.18" x2="1043.73" y2="1021.51" class="up-wick"/>
<rect x="1041.92" y="1012.72" width="3.63" height="3.36" class="up-body"/>
<line x1="1049.31" y1="1008.61" x2="1049.31" y2="1017.55" class="up-wick"/>
<rect x="1047.50" y="1010.86" width="3.63" height="1.84" class="up-body"/>
<line x1="1054.89" y1="1006.57" x2="1054.89" y2="1010.99" class="up-wick"/>
<rect x="1053.08" y="1006.61" width="3.63" height="4.25" class="up-body"/>
<line x1="1060.47" y1="996.69" x2="1060.47" y2="1008.69" class="up-wick"/>
<rect x="1058.66" y="996.69" width="3.63" height="9.92" class="up-body"/>
<line x1="1066.05" y1="985.90" x2="1066.05" y2="999.07" class="up-wick"/>
<rect x="1064.24" y="988.39" width="3.63" height="8.26" class="up-body"/>
<line x1="1071.63" y1="988.28" x2="1071.63" y2="998.93" class="down-wick"/>
<rect x="1069.82" y="988.39" width="3.63" height="10.13" class="down-body"/>
<line x1="1077.21" y1="997.79" x2="1077.21" y2="1016.99" class="down-wick"/>
<rect x="1075.40" y="998.56" width="3.63" height="7.04" class="down-body"/>
<line x1="70" y1="904.40" x2="1080" y2="904.40" class="sweep-line"/>
<text x="1076" y="900.40" text-anchor="end" class="level-label">sweep 4477.27</text>
<line x1="70" y1="904.40" x2="1080" y2="904.40" class="entry-line"/>
<text x="1076" y="900.40" text-anchor="end" class="level-label">entry level 4477.27</text>
<text x="70" y="1056" class="axis-label">2026-03-23 00:00:00+00:00 to 2026-03-23 03:00:00+00:00</text>
<text x="1080" y="1056" text-anchor="end" class="axis-label">4302.66 - 4553.60</text>
</svg>