<svg xmlns="http://www.w3.org/2000/svg" width="1120" height="1054" viewBox="0 0 1120 1054">
<style>
text{font-family:Arial,Helvetica,sans-serif}.title{font-size:21px;font-weight:700;fill:#1f2937}.subtitle{font-size:12px;fill:#4b5563}.panel-title{font-size:15px;font-weight:700;fill:#111827}.muted{font-size:13px;fill:#6b7280}.plot-bg{fill:#f8fafc;stroke:#cbd5e1;stroke-width:1}.up-body{fill:#15803d;stroke:#14532d;stroke-width:.8}.down-body{fill:#b91c1c;stroke:#7f1d1d;stroke-width:.8}.up-wick{stroke:#14532d;stroke-width:1}.down-wick{stroke:#7f1d1d;stroke-width:1}.sweep-line{stroke:#7c3aed;stroke-width:1.6;stroke-dasharray:6 4}.number-line{stroke:#0f766e;stroke-width:1.4;stroke-dasharray:3 4}.entry-line{stroke:#2563eb;stroke-width:1.4}.sl-line{stroke:#dc2626;stroke-width:1.4}.tp-line{stroke:#16a34a;stroke-width:1.4}.level-label,.axis-label{font-size:11px;fill:#374151}
</style>
<text x="28" y="28" class="title">Adelin v2 visual review sample sample_199</text>
<text x="28" y="48" class="subtitle">Candidate windows are for visual labeling only and are not trade signals.</text>
<text x="560" y="48" class="subtitle" text-anchor="middle">NUMBER_THEORY_LEVEL_NEAR | ROUND_LEVEL_ENTRY_METADATA_AVAILABLE</text>
<text x="70" y="82" class="panel-title">H1 liquidity context</text>
<rect x="70" y="96" width="1010" height="192" class="plot-bg"/>
<line x1="80.98" y1="109.24" x2="80.98" y2="144.27" class="up-wick"/>
<rect x="76.98" y="139.18" width="8.00" height="1.00" class="up-body"/>
<line x1="102.93" y1="129.98" x2="102.93" y2="157.06" class="up-wick"/>
<rect x="98.93" y="139.14" width="8.00" height="1.00" class="up-body"/>
<line x1="124.89" y1="133.43" x2="124.89" y2="202.47" class="down-wick"/>
<rect x="120.89" y="139.07" width="8.00" height="51.74" class="down-body"/>
<line x1="146.85" y1="175.32" x2="146.85" y2="197.93" class="up-wick"/>
<rect x="142.85" y="186.45" width="8.00" height="4.08" class="up-body"/>
<line x1="168.80" y1="167.03" x2="168.80" y2="217.57" class="up-wick"/>
<rect x="164.80" y="175.72" width="8.00" height="15.46" class="up-body"/>
<line x1="190.76" y1="174.15" x2="190.76" y2="274.76" class="down-wick"/>
<rect x="186.76" y="176.25" width="8.00" height="46.94" class="down-body"/>
<line x1="212.72" y1="165.69" x2="212.72" y2="224.60" class="up-wick"/>
<rect x="208.72" y="174.86" width="8.00" height="48.33" class="up-body"/>
<line x1="234.67" y1="173.46" x2="234.67" y2="248.95" class="down-wick"/>
<rect x="230.67" y="174.67" width="8.00" height="16.85" class="down-body"/>
<line x1="256.63" y1="186.60" x2="256.63" y2="222.66" class="down-wick"/>
<rect x="252.63" y="191.52" width="8.00" height="21.37" class="down-body"/>
<line x1="278.59" y1="183.37" x2="278.59" y2="222.16" class="up-wick"/>
<rect x="274.59" y="186.17" width="8.00" height="26.70" class="up-body"/>
<line x1="300.54" y1="173.88" x2="300.54" y2="197.88" class="down-wick"/>
<rect x="296.54" y="186.17" width="8.00" height="10.88" class="down-body"/>
<line x1="322.50" y1="184.55" x2="322.50" y2="213.44" class="up-wick"/>
<rect x="318.50" y="188.97" width="8.00" height="8.08" class="up-body"/>
<line x1="344.46" y1="156.89" x2="344.46" y2="209.66" class="down-wick"/>
<rect x="340.46" y="188.97" width="8.00" height="9.20" class="down-body"/>
<line x1="366.41" y1="190.76" x2="366.41" y2="232.98" class="down-wick"/>
<rect x="362.41" y="198.17" width="8.00" height="28.84" class="down-body"/>
<line x1="388.37" y1="213.13" x2="388.37" y2="244.91" class="down-wick"/>
<rect x="384.37" y="227.01" width="8.00" height="7.34" class="down-body"/>
<line x1="410.33" y1="233.42" x2="410.33" y2="265.95" class="down-wick"/>
<rect x="406.33" y="234.35" width="8.00" height="27.10" class="down-body"/>
<line x1="432.28" y1="220.01" x2="432.28" y2="270.48" class="up-wick"/>
<rect x="428.28" y="221.13" width="8.00" height="40.32" class="up-body"/>
<line x1="454.24" y1="180.17" x2="454.24" y2="231.39" class="down-wick"/>
<rect x="450.24" y="221.25" width="8.00" height="2.99" class="down-body"/>
<line x1="476.20" y1="175.82" x2="476.20" y2="228.75" class="up-wick"/>
<rect x="472.20" y="184.83" width="8.00" height="39.41" class="up-body"/>
<line x1="498.15" y1="159.88" x2="498.15" y2="195.18" class="up-wick"/>
<rect x="494.15" y="167.76" width="8.00" height="17.07" class="up-body"/>
<line x1="520.11" y1="153.64" x2="520.11" y2="239.73" class="down-wick"/>
<rect x="516.11" y="167.76" width="8.00" height="58.34" class="down-body"/>
<line x1="542.07" y1="209.21" x2="542.07" y2="246.73" class="down-wick"/>
<rect x="538.07" y="226.15" width="8.00" height="15.22" class="down-body"/>
<line x1="564.02" y1="221.09" x2="564.02" y2="263.74" class="up-wick"/>
<rect x="560.02" y="235.23" width="8.00" height="6.14" class="up-body"/>
<line x1="585.98" y1="212.41" x2="585.98" y2="246.66" class="down-wick"/>
<rect x="581.98" y="232.37" width="8.00" height="1.69" class="down-body"/>
<line x1="607.93" y1="188.29" x2="607.93" y2="236.29" class="up-wick"/>
<rect x="603.93" y="197.16" width="8.00" height="36.90" class="up-body"/>
<line x1="629.89" y1="184.23" x2="629.89" y2="205.15" class="up-wick"/>
<rect x="625.89" y="196.90" width="8.00" height="1.00" class="up-body"/>
<line x1="651.85" y1="181.92" x2="651.85" y2="211.07" class="down-wick"/>
<rect x="647.85" y="196.87" width="8.00" height="12.36" class="down-body"/>
<line x1="673.80" y1="191.26" x2="673.80" y2="221.39" class="down-wick"/>
<rect x="669.80" y="205.19" width="8.00" height="9.97" class="down-body"/>
<line x1="695.76" y1="192.41" x2="695.76" y2="215.90" class="up-wick"/>
<rect x="691.76" y="196.95" width="8.00" height="18.23" class="up-body"/>
<line x1="717.72" y1="194.75" x2="717.72" y2="222.14" class="down-wick"/>
<rect x="713.72" y="196.95" width="8.00" height="17.06" class="down-body"/>
<line x1="739.67" y1="170.99" x2="739.67" y2="228.18" class="up-wick"/>
<rect x="735.67" y="171.09" width="8.00" height="42.92" class="up-body"/>
<line x1="761.63" y1="168.05" x2="761.63" y2="184.80" class="down-wick"/>
<rect x="757.63" y="171.14" width="8.00" height="8.91" class="down-body"/>
<line x1="783.59" y1="161.19" x2="783.59" y2="183.64" class="up-wick"/>
<rect x="779.59" y="171.74" width="8.00" height="8.31" class="up-body"/>
<line x1="805.54" y1="147.00" x2="805.54" y2="173.74" class="up-wick"/>
<rect x="801.54" y="153.88" width="8.00" height="17.87" class="up-body"/>
<line x1="827.50" y1="142.51" x2="827.50" y2="184.42" class="down-wick"/>
<rect x="823.50" y="153.88" width="8.00" height="29.51" class="down-body"/>
<line x1="849.46" y1="179.83" x2="849.46" y2="209.90" class="down-wick"/>
<rect x="845.46" y="183.27" width="8.00" height="18.47" class="down-body"/>
<line x1="871.41" y1="170.87" x2="871.41" y2="203.64" class="up-wick"/>
<rect x="867.41" y="182.49" width="8.00" height="19.24" class="up-body"/>
<line x1="893.37" y1="168.10" x2="893.37" y2="187.48" class="up-wick"/>
<rect x="889.37" y="176.42" width="8.00" height="6.07" class="up-body"/>
<line x1="915.33" y1="174.41" x2="915.33" y2="202.06" class="down-wick"/>
<rect x="911.33" y="176.42" width="8.00" height="24.57" class="down-body"/>
<line x1="937.28" y1="190.85" x2="937.28" y2="232.84" class="down-wick"/>
<rect x="933.28" y="200.99" width="8.00" height="17.66" class="down-body"/>
<line x1="959.24" y1="199.34" x2="959.24" y2="224.60" class="up-wick"/>
<rect x="955.24" y="213.42" width="8.00" height="5.33" class="up-body"/>
<line x1="981.20" y1="178.07" x2="981.20" y2="220.10" class="up-wick"/>
<rect x="977.20" y="199.02" width="8.00" height="14.48" class="up-body"/>
<line x1="1003.15" y1="164.99" x2="1003.15" y2="209.73" class="up-wick"/>
<rect x="999.15" y="190.50" width="8.00" height="8.51" class="up-body"/>
<line x1="1025.11" y1="183.73" x2="1025.11" y2="214.18" class="down-wick"/>
<rect x="1021.11" y="190.50" width="8.00" height="15.35" class="down-body"/>
<line x1="1047.07" y1="188.85" x2="1047.07" y2="264.63" class="down-wick"/>
<rect x="1043.07" y="205.86" width="8.00" height="16.92" class="down-body"/>
<line x1="1069.02" y1="209.07" x2="1069.02" y2="233.51" class="up-wick"/>
<rect x="1065.02" y="215.61" width="8.00" height="7.17" class="up-body"/>
<line x1="70" y1="253.47" x2="1080" y2="253.47" class="number-line"/>
<text x="1076" y="249.47" text-anchor="end" class="level-label">round 4980.00</text>
<line x1="70" y1="253.47" x2="1080" y2="253.47" class="entry-line"/>
<text x="1076" y="249.47" text-anchor="end" class="level-label">entry level 4980.00</text>
<text x="70" y="306" class="axis-label">2026-03-13 19:00:00+00:00 to 2026-03-17 18:00:00+00:00</text>
<text x="1080" y="306" text-anchor="end" class="axis-label">4959.92 - 5071.58</text>
<text x="70" y="332" class="panel-title">M15 liquidity / reaction context</text>
<rect x="70" y="346" width="1010" height="192" class="plot-bg"/>
<line x1="77.32" y1="387.91" x2="77.32" y2="401.36" class="down-wick"/>
<rect x="73.32" y="392.73" width="8.00" height="6.72" class="down-body"/>
<line x1="91.96" y1="391.52" x2="91.96" y2="416.36" class="down-wick"/>
<rect x="87.96" y="399.46" width="8.00" height="11.13" class="down-body"/>
<line x1="106.59" y1="410.42" x2="106.59" y2="421.92" class="down-wick"/>
<rect x="102.59" y="410.59" width="8.00" height="10.16" class="down-body"/>
<line x1="121.23" y1="413.54" x2="121.23" y2="424.79" class="down-wick"/>
<rect x="117.23" y="420.75" width="8.00" height="1.00" class="down-body"/>
<line x1="135.87" y1="419.87" x2="135.87" y2="432.41" class="down-wick"/>
<rect x="131.87" y="421.09" width="8.00" height="4.24" class="down-body"/>
<line x1="150.51" y1="409.62" x2="150.51" y2="443.96" class="up-wick"/>
<rect x="146.51" y="412.17" width="8.00" height="13.15" class="up-body"/>
<line x1="165.14" y1="403.04" x2="165.14" y2="414.34" class="up-wick"/>
<rect x="161.14" y="409.30" width="8.00" height="2.87" class="up-body"/>
<line x1="179.78" y1="384.16" x2="179.78" y2="420.19" class="up-wick"/>
<rect x="175.78" y="385.48" width="8.00" height="23.82" class="up-body"/>
<line x1="194.42" y1="363.85" x2="194.42" y2="389.62" class="up-wick"/>
<rect x="190.42" y="384.40" width="8.00" height="1.07" class="up-body"/>
<line x1="209.06" y1="379.95" x2="209.06" y2="400.87" class="down-wick"/>
<rect x="205.06" y="384.38" width="8.00" height="12.79" class="down-body"/>
<line x1="223.70" y1="395.95" x2="223.70" y2="438.60" class="down-wick"/>
<rect x="219.70" y="397.17" width="8.00" height="25.16" class="down-body"/>
<line x1="238.33" y1="411.83" x2="238.33" y2="428.42" class="down-wick"/>
<rect x="234.33" y="422.33" width="8.00" height="5.46" class="down-body"/>
<line x1="252.97" y1="427.69" x2="252.97" y2="456.29" class="down-wick"/>
<rect x="248.97" y="427.69" width="8.00" height="18.34" class="down-body"/>
<line x1="267.61" y1="434.12" x2="267.61" y2="471.63" class="down-wick"/>
<rect x="263.61" y="446.03" width="8.00" height="23.60" class="down-body"/>
<line x1="282.25" y1="451.66" x2="282.25" y2="469.59" class="up-wick"/>
<rect x="278.25" y="463.18" width="8.00" height="6.41" class="up-body"/>
<line x1="296.88" y1="450.76" x2="296.88" y2="479.79" class="down-wick"/>
<rect x="292.88" y="463.18" width="8.00" height="16.20" class="down-body"/>
<line x1="311.52" y1="443.52" x2="311.52" y2="481.40" class="up-wick"/>
<rect x="307.52" y="459.26" width="8.00" height="20.12" class="up-body"/>
<line x1="326.16" y1="455.36" x2="326.16" y2="488.54" class="down-wick"/>
<rect x="322.16" y="459.26" width="8.00" height="23.73" class="down-body"/>
<line x1="340.80" y1="457.33" x2="340.80" y2="486.66" class="up-wick"/>
<rect x="336.80" y="473.58" width="8.00" height="9.40" class="up-body"/>
<line x1="355.43" y1="472.85" x2="355.43" y2="500.94" class="down-wick"/>
<rect x="351.43" y="473.58" width="8.00" height="14.18" class="down-body"/>
<line x1="370.07" y1="474.51" x2="370.07" y2="491.34" class="up-wick"/>
<rect x="366.07" y="478.75" width="8.00" height="9.01" class="up-body"/>
<line x1="384.71" y1="472.27" x2="384.71" y2="497.77" class="down-wick"/>
<rect x="380.71" y="478.75" width="8.00" height="18.29" class="down-body"/>
<line x1="399.35" y1="487.37" x2="399.35" y2="518.35" class="down-wick"/>
<rect x="395.35" y="497.04" width="8.00" height="14.93" class="down-body"/>
<line x1="413.99" y1="500.01" x2="413.99" y2="524.76" class="up-wick"/>
<rect x="409.99" y="508.41" width="8.00" height="3.56" class="up-body"/>
<line x1="428.62" y1="473.75" x2="428.62" y2="508.90" class="up-wick"/>
<rect x="424.62" y="484.15" width="8.00" height="24.29" class="up-body"/>
<line x1="443.26" y1="480.86" x2="443.26" y2="499.38" class="down-wick"/>
<rect x="439.26" y="484.15" width="8.00" height="3.02" class="down-body"/>
<line x1="457.90" y1="453.27" x2="457.90" y2="490.90" class="up-wick"/>
<rect x="453.90" y="454.85" width="8.00" height="32.32" class="up-body"/>
<line x1="472.54" y1="436.41" x2="472.54" y2="462.38" class="up-wick"/>
<rect x="468.54" y="446.37" width="8.00" height="8.65" class="up-body"/>
<line x1="487.17" y1="396.83" x2="487.17" y2="446.37" class="up-wick"/>
<rect x="483.17" y="405.16" width="8.00" height="41.21" class="up-body"/>
<line x1="501.81" y1="403.21" x2="501.81" y2="418.21" class="down-wick"/>
<rect x="497.81" y="405.16" width="8.00" height="8.84" class="down-body"/>
<line x1="516.45" y1="407.91" x2="516.45" y2="469.39" class="down-wick"/>
<rect x="512.45" y="414.00" width="8.00" height="45.26" class="down-body"/>
<line x1="531.09" y1="435.73" x2="531.09" y2="465.64" class="up-wick"/>
<rect x="527.09" y="438.38" width="8.00" height="20.88" class="up-body"/>
<line x1="545.72" y1="391.64" x2="545.72" y2="445.25" class="up-wick"/>
<rect x="541.72" y="395.90" width="8.00" height="42.48" class="up-body"/>
<line x1="560.36" y1="390.66" x2="560.36" y2="405.84" class="down-wick"/>
<rect x="556.36" y="395.90" width="8.00" height="2.75" class="down-body"/>
<line x1="575.00" y1="397.73" x2="575.00" y2="422.16" class="down-wick"/>
<rect x="571.00" y="398.70" width="8.00" height="4.73" class="down-body"/>
<line x1="589.64" y1="394.46" x2="589.64" y2="418.09" class="up-wick"/>
<rect x="585.64" y="397.22" width="8.00" height="6.21" class="up-body"/>
<line x1="604.28" y1="378.39" x2="604.28" y2="407.01" class="down-wick"/>
<rect x="600.28" y="397.22" width="8.00" height="2.78" class="down-body"/>
<line x1="618.91" y1="368.08" x2="618.91" y2="407.50" class="up-wick"/>
<rect x="614.91" y="375.20" width="8.00" height="24.85" class="up-body"/>
<line x1="633.55" y1="370.13" x2="633.55" y2="395.56" class="down-wick"/>
<rect x="629.55" y="375.20" width="8.00" height="4.04" class="down-body"/>
<line x1="648.19" y1="359.24" x2="648.19" y2="385.94" class="down-wick"/>
<rect x="644.19" y="379.24" width="8.00" height="4.14" class="down-body"/>
<line x1="662.83" y1="379.00" x2="662.83" y2="416.29" class="down-wick"/>
<rect x="658.83" y="383.43" width="8.00" height="32.40" class="down-body"/>
<line x1="677.46" y1="415.02" x2="677.46" y2="450.93" class="down-wick"/>
<rect x="673.46" y="415.83" width="8.00" height="33.86" class="down-body"/>
<line x1="692.10" y1="445.91" x2="692.10" y2="481.21" class="down-wick"/>
<rect x="688.10" y="449.64" width="8.00" height="12.25" class="down-body"/>
<line x1="706.74" y1="446.01" x2="706.74" y2="475.24" class="up-wick"/>
<rect x="702.74" y="455.68" width="8.00" height="6.28" class="up-body"/>
<line x1="721.38" y1="437.97" x2="721.38" y2="489.63" class="down-wick"/>
<rect x="717.38" y="455.68" width="8.00" height="16.05" class="down-body"/>
<line x1="736.01" y1="443.67" x2="736.01" y2="475.16" class="up-wick"/>
<rect x="732.01" y="459.94" width="8.00" height="11.79" class="up-body"/>
<line x1="750.65" y1="453.97" x2="750.65" y2="491.12" class="down-wick"/>
<rect x="746.65" y="459.84" width="8.00" height="23.68" class="down-body"/>
<line x1="765.29" y1="454.80" x2="765.29" y2="487.03" class="up-wick"/>
<rect x="761.29" y="460.57" width="8.00" height="22.95" class="up-body"/>
<line x1="779.93" y1="456.51" x2="779.93" y2="505.30" class="down-wick"/>
<rect x="775.93" y="460.57" width="8.00" height="40.53" class="down-body"/>
<line x1="794.57" y1="477.11" x2="794.57" y2="515.21" class="up-wick"/>
<rect x="790.57" y="483.40" width="8.00" height="17.73" class="up-body"/>
<line x1="809.20" y1="469.27" x2="809.20" y2="492.97" class="up-wick"/>
<rect x="805.20" y="474.82" width="8.00" height="8.65" class="up-body"/>
<line x1="823.84" y1="442.50" x2="823.84" y2="475.12" class="up-wick"/>
<rect x="819.84" y="447.10" width="8.00" height="23.68" class="up-body"/>
<line x1="838.48" y1="444.67" x2="838.48" y2="464.64" class="down-wick"/>
<rect x="834.48" y="447.10" width="8.00" height="14.59" class="down-body"/>
<line x1="853.12" y1="460.40" x2="853.12" y2="486.71" class="down-wick"/>
<rect x="849.12" y="461.72" width="8.00" height="20.19" class="down-body"/>
<line x1="867.75" y1="469.37" x2="867.75" y2="491.02" class="up-wick"/>
<rect x="863.75" y="473.17" width="8.00" height="8.74" class="up-body"/>
<line x1="882.39" y1="449.64" x2="882.39" y2="476.33" class="up-wick"/>
<rect x="878.39" y="454.63" width="8.00" height="18.54" class="up-body"/>
<line x1="897.03" y1="432.34" x2="897.03" y2="458.75" class="up-wick"/>
<rect x="893.03" y="436.58" width="8.00" height="17.98" class="up-body"/>
<line x1="911.67" y1="413.66" x2="911.67" y2="438.92" class="up-wick"/>
<rect x="907.67" y="416.34" width="8.00" height="20.02" class="up-body"/>
<line x1="926.30" y1="408.32" x2="926.30" y2="423.21" class="down-wick"/>
<rect x="922.30" y="416.34" width="8.00" height="4.56" class="down-body"/>
<line x1="940.94" y1="402.58" x2="940.94" y2="430.56" class="down-wick"/>
<rect x="936.94" y="420.89" width="8.00" height="2.29" class="down-body"/>
<line x1="955.58" y1="414.07" x2="955.58" y2="428.54" class="down-wick"/>
<rect x="951.58" y="423.18" width="8.00" height="3.34" class="down-body"/>
<line x1="970.22" y1="416.12" x2="970.22" y2="432.22" class="down-wick"/>
<rect x="966.22" y="426.52" width="8.00" height="1.00" class="down-body"/>
<line x1="984.86" y1="412.81" x2="984.86" y2="431.51" class="up-wick"/>
<rect x="980.86" y="420.53" width="8.00" height="6.65" class="up-body"/>
<line x1="999.49" y1="399.31" x2="999.49" y2="432.46" class="up-wick"/>
<rect x="995.49" y="410.93" width="8.00" height="9.55" class="up-body"/>
<line x1="1014.13" y1="408.86" x2="1014.13" y2="417.58" class="down-wick"/>
<rect x="1010.13" y="410.93" width="8.00" height="6.43" class="down-body"/>
<line x1="1028.77" y1="417.36" x2="1028.77" y2="433.19" class="down-wick"/>
<rect x="1024.77" y="417.36" width="8.00" height="12.98" class="down-body"/>
<line x1="1043.41" y1="426.89" x2="1043.41" y2="440.60" class="down-wick"/>
<rect x="1039.41" y="430.32" width="8.00" height="7.67" class="down-body"/>
<line x1="1058.04" y1="412.54" x2="1058.04" y2="449.32" class="down-wick"/>
<rect x="1054.04" y="432.27" width="8.00" height="9.89" class="down-body"/>
<line x1="1072.68" y1="432.37" x2="1072.68" y2="454.31" class="down-wick"/>
<rect x="1068.68" y="442.09" width="8.00" height="5.55" class="down-body"/>
<line x1="70" y1="500.67" x2="1080" y2="500.67" class="number-line"/>
<text x="1076" y="496.67" text-anchor="end" class="level-label">round 4980.00</text>
<line x1="70" y1="500.67" x2="1080" y2="500.67" class="entry-line"/>
<text x="1076" y="496.67" text-anchor="end" class="level-label">entry level 4980.00</text>
<text x="70" y="556" class="axis-label">2026-03-16 06:15:00+00:00 to 2026-03-17 00:15:00+00:00</text>
<text x="1080" y="556" text-anchor="end" class="axis-label">4964.67 - 5043.50</text>
<text x="70" y="582" class="panel-title">M5 reaction / execution context</text>
<rect x="70" y="596" width="1010" height="192" class="plot-bg"/>
<line x1="79.18" y1="672.92" x2="79.18" y2="724.79" class="down-wick"/>
<rect x="75.18" y="678.40" width="8.00" height="6.01" class="down-body"/>
<line x1="97.55" y1="682.12" x2="97.55" y2="712.83" class="down-wick"/>
<rect x="93.55" y="684.41" width="8.00" height="12.78" class="down-body"/>
<line x1="115.91" y1="678.79" x2="115.91" y2="711.11" class="up-wick"/>
<rect x="111.91" y="696.40" width="8.00" height="1.00" class="up-body"/>
<line x1="134.27" y1="673.06" x2="134.27" y2="709.25" class="up-wick"/>
<rect x="130.27" y="685.59" width="8.00" height="10.92" class="up-body"/>
<line x1="152.64" y1="683.77" x2="152.64" y2="706.14" class="down-wick"/>
<rect x="148.64" y="685.59" width="8.00" height="6.80" class="down-body"/>
<line x1="171.00" y1="686.67" x2="171.00" y2="716.02" class="up-wick"/>
<rect x="167.00" y="687.28" width="8.00" height="5.12" class="up-body"/>
<line x1="189.36" y1="665.01" x2="189.36" y2="689.74" class="up-wick"/>
<rect x="185.36" y="665.01" width="8.00" height="22.26" class="up-body"/>
<line x1="207.73" y1="661.25" x2="207.73" y2="678.33" class="down-wick"/>
<rect x="203.73" y="665.05" width="8.00" height="12.39" class="down-body"/>
<line x1="226.09" y1="676.57" x2="226.09" y2="737.17" class="down-wick"/>
<rect x="222.09" y="677.68" width="8.00" height="33.18" class="down-body"/>
<line x1="244.45" y1="696.65" x2="244.45" y2="715.91" class="up-wick"/>
<rect x="240.45" y="698.73" width="8.00" height="12.13" class="up-body"/>
<line x1="262.82" y1="673.89" x2="262.82" y2="698.77" class="up-wick"/>
<rect x="258.82" y="681.05" width="8.00" height="17.68" class="up-body"/>
<line x1="281.18" y1="669.63" x2="281.18" y2="693.61" class="down-wick"/>
<rect x="277.18" y="681.08" width="8.00" height="12.46" class="down-body"/>
<line x1="299.55" y1="684.77" x2="299.55" y2="705.71" class="down-wick"/>
<rect x="295.55" y="693.40" width="8.00" height="5.66" class="down-body"/>
<line x1="317.91" y1="699.05" x2="317.91" y2="731.45" class="down-wick"/>
<rect x="313.91" y="699.05" width="8.00" height="22.84" class="down-body"/>
<line x1="336.27" y1="716.52" x2="336.27" y2="739.36" class="down-wick"/>
<rect x="332.27" y="721.78" width="8.00" height="6.41" class="down-body"/>
<line x1="354.64" y1="708.79" x2="354.64" y2="733.34" class="up-wick"/>
<rect x="350.64" y="722.86" width="8.00" height="5.33" class="up-body"/>
<line x1="373.00" y1="694.51" x2="373.00" y2="724.43" class="up-wick"/>
<rect x="369.00" y="707.64" width="8.00" height="15.21" class="up-body"/>
<line x1="391.36" y1="685.99" x2="391.36" y2="707.64" class="up-wick"/>
<rect x="387.36" y="694.47" width="8.00" height="13.17" class="up-body"/>
<line x1="409.73" y1="688.49" x2="409.73" y2="708.14" class="down-wick"/>
<rect x="405.73" y="694.47" width="8.00" height="12.31" class="down-body"/>
<line x1="428.09" y1="703.24" x2="428.09" y2="727.58" class="down-wick"/>
<rect x="424.09" y="706.78" width="8.00" height="20.08" class="down-body"/>
<line x1="446.45" y1="724.82" x2="446.45" y2="760.19" class="down-wick"/>
<rect x="442.45" y="726.90" width="8.00" height="27.13" class="down-body"/>
<line x1="464.82" y1="744.15" x2="464.82" y2="768.35" class="down-wick"/>
<rect x="460.82" y="754.07" width="8.00" height="12.46" class="down-body"/>
<line x1="483.18" y1="738.00" x2="483.18" y2="774.76" class="up-wick"/>
<rect x="479.18" y="739.43" width="8.00" height="27.10" class="up-body"/>
<line x1="501.55" y1="718.77" x2="501.55" y2="741.25" class="up-wick"/>
<rect x="497.55" y="728.01" width="8.00" height="11.45" class="up-body"/>
<line x1="519.91" y1="715.59" x2="519.91" y2="742.08" class="up-wick"/>
<rect x="515.91" y="718.56" width="8.00" height="9.56" class="up-body"/>
<line x1="538.27" y1="707.25" x2="538.27" y2="719.35" class="up-wick"/>
<rect x="534.27" y="709.86" width="8.00" height="8.77" class="up-body"/>
<line x1="556.64" y1="707.61" x2="556.64" y2="721.21" class="down-wick"/>
<rect x="552.64" y="709.86" width="8.00" height="5.55" class="down-body"/>
<line x1="575.00" y1="692.21" x2="575.00" y2="715.84" class="up-wick"/>
<rect x="571.00" y="704.92" width="8.00" height="4.55" class="up-body"/>
<line x1="593.36" y1="691.89" x2="593.36" y2="704.92" class="up-wick"/>
<rect x="589.36" y="694.65" width="8.00" height="10.27" class="up-body"/>
<line x1="611.73" y1="667.91" x2="611.73" y2="695.76" class="up-wick"/>
<rect x="607.73" y="674.68" width="8.00" height="19.97" class="up-body"/>
<line x1="630.09" y1="671.10" x2="630.09" y2="681.98" class="down-wick"/>
<rect x="626.09" y="674.68" width="8.00" height="3.01" class="down-body"/>
<line x1="648.45" y1="675.57" x2="648.45" y2="693.90" class="down-wick"/>
<rect x="644.45" y="677.75" width="8.00" height="12.60" class="down-body"/>
<line x1="666.82" y1="675.21" x2="666.82" y2="700.45" class="down-wick"/>
<rect x="662.82" y="690.39" width="8.00" height="5.73" class="down-body"/>
<line x1="685.18" y1="694.22" x2="685.18" y2="721.92" class="down-wick"/>
<rect x="681.18" y="696.15" width="8.00" height="21.69" class="down-body"/>
<line x1="703.55" y1="716.59" x2="703.55" y2="730.73" class="down-wick"/>
<rect x="699.55" y="717.84" width="8.00" height="12.49" class="down-body"/>
<line x1="721.91" y1="720.82" x2="721.91" y2="732.88" class="up-wick"/>
<rect x="717.91" y="725.83" width="8.00" height="4.51" class="up-body"/>
<line x1="740.27" y1="707.39" x2="740.27" y2="734.74" class="down-wick"/>
<rect x="736.27" y="725.83" width="8.00" height="5.30" class="down-body"/>
<line x1="758.64" y1="719.74" x2="758.64" y2="739.21" class="up-wick"/>
<rect x="754.64" y="723.89" width="8.00" height="7.23" class="up-body"/>
<line x1="777.00" y1="711.51" x2="777.00" y2="726.54" class="up-wick"/>
<rect x="773.00" y="712.98" width="8.00" height="10.92" class="up-body"/>
<line x1="795.36" y1="696.26" x2="795.36" y2="712.98" class="up-wick"/>
<rect x="791.36" y="707.03" width="8.00" height="5.94" class="up-body"/>
<line x1="813.73" y1="682.12" x2="813.73" y2="717.63" class="up-wick"/>
<rect x="809.73" y="682.66" width="8.00" height="24.38" class="up-body"/>
<line x1="832.09" y1="678.40" x2="832.09" y2="689.92" class="down-wick"/>
<rect x="828.09" y="682.66" width="8.00" height="3.08" class="down-body"/>
<line x1="850.45" y1="679.90" x2="850.45" y2="691.32" class="down-wick"/>
<rect x="846.45" y="685.63" width="8.00" height="5.44" class="down-body"/>
<line x1="868.82" y1="679.54" x2="868.82" y2="691.79" class="up-wick"/>
<rect x="864.82" y="684.34" width="8.00" height="6.73" class="up-body"/>
<line x1="887.18" y1="652.98" x2="887.18" y2="685.74" class="up-wick"/>
<rect x="883.18" y="659.21" width="8.00" height="25.13" class="up-body"/>
<line x1="905.55" y1="640.96" x2="905.55" y2="662.65" class="up-wick"/>
<rect x="901.55" y="643.78" width="8.00" height="15.11" class="up-body"/>
<line x1="923.91" y1="630.18" x2="923.91" y2="650.98" class="up-wick"/>
<rect x="919.91" y="631.76" width="8.00" height="12.06" class="up-body"/>
<line x1="942.27" y1="625.53" x2="942.27" y2="639.67" class="up-wick"/>
<rect x="938.27" y="629.47" width="8.00" height="2.29" class="up-body"/>
<line x1="960.64" y1="618.51" x2="960.64" y2="632.26" class="up-wick"/>
<rect x="956.64" y="626.17" width="8.00" height="3.29" class="up-body"/>
<line x1="979.00" y1="617.69" x2="979.00" y2="633.12" class="down-wick"/>
<rect x="975.00" y="626.17" width="8.00" height="4.76" class="down-body"/>
<line x1="997.36" y1="630.93" x2="997.36" y2="639.56" class="down-wick"/>
<rect x="993.36" y="630.93" width="8.00" height="5.23" class="down-body"/>
<line x1="1015.73" y1="620.34" x2="1015.73" y2="642.03" class="down-wick"/>
<rect x="1011.73" y="636.16" width="8.00" height="1.86" class="down-body"/>
<line x1="1034.09" y1="619.87" x2="1034.09" y2="650.37" class="up-wick"/>
<rect x="1030.09" y="620.16" width="8.00" height="17.86" class="up-body"/>
<line x1="1052.45" y1="609.24" x2="1052.45" y2="643.64" class="down-wick"/>
<rect x="1048.45" y="620.16" width="8.00" height="19.37" class="down-body"/>
<line x1="1070.82" y1="626.14" x2="1070.82" y2="641.71" class="up-wick"/>
<rect x="1066.82" y="637.34" width="8.00" height="2.18" class="up-body"/>
<line x1="70" y1="753.39" x2="1080" y2="753.39" class="number-line"/>
<text x="1076" y="749.39" text-anchor="end" class="level-label">round 4980.00</text>
<line x1="70" y1="753.39" x2="1080" y2="753.39" class="entry-line"/>
<text x="1076" y="749.39" text-anchor="end" class="level-label">entry level 4980.00</text>
<text x="70" y="806" class="axis-label">2026-03-16 16:45:00+00:00 to 2026-03-16 21:15:00+00:00</text>
<text x="1080" y="806" text-anchor="end" class="axis-label">4970.33 - 5023.97</text>
<text x="70" y="832" class="panel-title">M1 execution window</text>
<rect x="70" y="846" width="1010" height="192" class="plot-bg"/>
<line x1="73.71" y1="920.17" x2="73.71" y2="926.26" class="down-wick"/>
<rect x="71.30" y="924.20" width="4.83" height="1.00" class="down-body"/>
<line x1="81.14" y1="918.49" x2="81.14" y2="946.02" class="down-wick"/>
<rect x="78.73" y="927.23" width="4.83" height="17.78" class="down-body"/>
<line x1="88.57" y1="926.48" x2="88.57" y2="957.00" class="up-wick"/>
<rect x="86.15" y="930.48" width="4.83" height="26.48" class="up-body"/>
<line x1="95.99" y1="940.75" x2="95.99" y2="960.14" class="down-wick"/>
<rect x="93.58" y="940.75" width="4.83" height="5.53" class="down-body"/>
<line x1="103.42" y1="937.76" x2="103.42" y2="948.67" class="up-wick"/>
<rect x="101.01" y="939.14" width="4.83" height="7.47" class="up-body"/>
<line x1="110.85" y1="944.00" x2="110.85" y2="958.34" class="down-wick"/>
<rect x="108.43" y="944.00" width="4.83" height="6.65" class="down-body"/>
<line x1="118.27" y1="924.61" x2="118.27" y2="938.21" class="down-wick"/>
<rect x="115.86" y="929.84" width="4.83" height="1.00" class="down-body"/>
<line x1="125.70" y1="937.05" x2="125.70" y2="948.14" class="up-wick"/>
<rect x="123.28" y="942.99" width="4.83" height="1.01" class="up-body"/>
<line x1="133.12" y1="938.10" x2="133.12" y2="950.87" class="down-wick"/>
<rect x="130.71" y="940.67" width="4.83" height="5.04" class="down-body"/>
<line x1="140.55" y1="920.50" x2="140.55" y2="939.89" class="up-wick"/>
<rect x="138.14" y="929.88" width="4.83" height="8.11" class="up-body"/>
<line x1="147.98" y1="931.67" x2="147.98" y2="946.43" class="down-wick"/>
<rect x="145.56" y="931.71" width="4.83" height="11.65" class="down-body"/>
<line x1="155.40" y1="933.99" x2="155.40" y2="944.37" class="up-wick"/>
<rect x="152.99" y="934.25" width="4.83" height="5.04" class="up-body"/>
<line x1="162.83" y1="934.77" x2="162.83" y2="946.84" class="up-wick"/>
<rect x="160.42" y="938.81" width="4.83" height="5.79" class="up-body"/>
<line x1="170.26" y1="945.79" x2="170.26" y2="962.15" class="up-wick"/>
<rect x="167.84" y="948.74" width="4.83" height="8.97" class="up-body"/>
<line x1="177.68" y1="945.98" x2="177.68" y2="954.57" class="up-wick"/>
<rect x="175.27" y="946.46" width="4.83" height="6.80" class="up-body"/>
<line x1="185.11" y1="925.69" x2="185.11" y2="936.04" class="up-wick"/>
<rect x="182.70" y="931.78" width="4.83" height="1.68" class="up-body"/>
<line x1="192.54" y1="916.02" x2="192.54" y2="921.40" class="up-wick"/>
<rect x="190.12" y="918.49" width="4.83" height="2.91" class="up-body"/>
<line x1="199.96" y1="910.23" x2="199.96" y2="918.11" class="up-wick"/>
<rect x="197.55" y="910.23" width="4.83" height="7.88" class="up-body"/>
<line x1="207.39" y1="906.31" x2="207.39" y2="917.18" class="up-wick"/>
<rect x="204.98" y="910.72" width="4.83" height="3.85" class="up-body"/>
<line x1="214.82" y1="917.85" x2="214.82" y2="924.13" class="down-wick"/>
<rect x="212.40" y="918.56" width="4.83" height="1.46" class="down-body"/>
<line x1="222.24" y1="922.30" x2="222.24" y2="948.33" class="down-wick"/>
<rect x="219.83" y="923.45" width="4.83" height="24.43" class="down-body"/>
<line x1="229.67" y1="934.44" x2="229.67" y2="947.32" class="up-wick"/>
<rect x="227.26" y="946.28" width="4.83" height="1.05" class="up-body"/>
<line x1="237.10" y1="954.12" x2="237.10" y2="985.54" class="up-wick"/>
<rect x="234.68" y="958.08" width="4.83" height="14.05" class="up-body"/>
<line x1="244.52" y1="944.89" x2="244.52" y2="953.22" class="down-wick"/>
<rect x="242.11" y="948.41" width="4.83" height="2.43" class="down-body"/>
<line x1="251.95" y1="947.40" x2="251.95" y2="955.35" class="up-wick"/>
<rect x="249.53" y="950.83" width="4.83" height="1.00" class="up-body"/>
<line x1="259.38" y1="934.77" x2="259.38" y2="945.46" class="up-wick"/>
<rect x="256.96" y="940.75" width="4.83" height="4.67" class="up-body"/>
<line x1="266.80" y1="929.28" x2="266.80" y2="933.09" class="up-wick"/>
<rect x="264.39" y="930.10" width="4.83" height="2.99" class="up-body"/>
<line x1="274.23" y1="919.49" x2="274.23" y2="927.86" class="up-wick"/>
<rect x="271.81" y="926.96" width="4.83" height="1.00" class="up-body"/>
<line x1="281.65" y1="927.94" x2="281.65" y2="934.66" class="up-wick"/>
<rect x="279.24" y="928.01" width="4.83" height="1.87" class="up-body"/>
<line x1="289.08" y1="917.33" x2="289.08" y2="927.19" class="up-wick"/>
<rect x="286.67" y="920.91" width="4.83" height="1.00" class="up-body"/>
<line x1="296.51" y1="938.58" x2="296.51" y2="952.70" class="down-wick"/>
<rect x="294.09" y="939.85" width="4.83" height="1.00" class="down-body"/>
<line x1="303.93" y1="930.85" x2="303.93" y2="936.30" class="up-wick"/>
<rect x="301.52" y="933.20" width="4.83" height="1.91" class="up-body"/>
<line x1="311.36" y1="938.66" x2="311.36" y2="945.90" class="down-wick"/>
<rect x="308.95" y="939.22" width="4.83" height="6.54" class="down-body"/>
<line x1="318.79" y1="953.64" x2="318.79" y2="961.22" class="down-wick"/>
<rect x="316.37" y="954.91" width="4.83" height="6.28" class="down-body"/>
<line x1="326.21" y1="967.49" x2="326.21" y2="979.56" class="down-wick"/>
<rect x="323.80" y="971.60" width="4.83" height="4.97" class="down-body"/>
<line x1="333.64" y1="967.94" x2="333.64" y2="979.00" class="down-wick"/>
<rect x="331.23" y="969.47" width="4.83" height="5.79" class="down-body"/>
<line x1="341.07" y1="964.80" x2="341.07" y2="982.03" class="down-wick"/>
<rect x="338.65" y="965.33" width="4.83" height="15.88" class="down-body"/>
<line x1="348.49" y1="972.87" x2="348.49" y2="987.82" class="up-wick"/>
<rect x="346.08" y="976.16" width="4.83" height="11.21" class="up-body"/>
<line x1="355.92" y1="964.88" x2="355.92" y2="972.31" class="down-wick"/>
<rect x="353.51" y="969.03" width="4.83" height="3.10" class="down-body"/>
<line x1="363.35" y1="955.91" x2="363.35" y2="973.81" class="up-wick"/>
<rect x="360.93" y="959.46" width="4.83" height="11.95" class="up-body"/>
<line x1="370.77" y1="961.78" x2="370.77" y2="972.24" class="up-wick"/>
<rect x="368.36" y="964.36" width="4.83" height="6.24" class="up-body"/>
<line x1="378.20" y1="941.23" x2="378.20" y2="960.51" class="up-wick"/>
<rect x="375.78" y="941.65" width="4.83" height="13.22" class="up-body"/>
<line x1="385.62" y1="949.15" x2="385.62" y2="954.79" class="down-wick"/>
<rect x="383.21" y="950.87" width="4.83" height="3.85" class="down-body"/>
<line x1="393.05" y1="940.67" x2="393.05" y2="947.81" class="up-wick"/>
<rect x="390.64" y="941.31" width="4.83" height="6.46" class="up-body"/>
<line x1="400.48" y1="932.12" x2="400.48" y2="937.27" class="down-wick"/>
<rect x="398.06" y="936.19" width="4.83" height="1.08" class="down-body"/>
<line x1="407.90" y1="935.74" x2="407.90" y2="944.15" class="up-wick"/>
<rect x="405.49" y="936.60" width="4.83" height="4.37" class="up-body"/>
<line x1="415.33" y1="943.59" x2="415.33" y2="951.51" class="up-wick"/>
<rect x="412.92" y="946.17" width="4.83" height="2.02" class="up-body"/>
<line x1="422.76" y1="948.07" x2="422.76" y2="954.27" class="down-wick"/>
<rect x="420.34" y="951.58" width="4.83" height="2.24" class="down-body"/>
<line x1="430.18" y1="951.66" x2="430.18" y2="971.72" class="down-wick"/>
<rect x="427.77" y="951.66" width="4.83" height="17.86" class="down-body"/>
<line x1="437.61" y1="960.96" x2="437.61" y2="970.03" class="up-wick"/>
<rect x="435.20" y="967.38" width="4.83" height="1.94" class="up-body"/>
<line x1="445.04" y1="972.65" x2="445.04" y2="982.40" class="down-wick"/>
<rect x="442.62" y="974.82" width="4.83" height="5.42" class="down-body"/>
<line x1="452.46" y1="982.17" x2="452.46" y2="1009.56" class="down-wick"/>
<rect x="450.05" y="993.19" width="4.83" height="14.87" class="down-body"/>
<line x1="459.89" y1="1001.64" x2="459.89" y2="1008.47" class="up-wick"/>
<rect x="457.48" y="1003.13" width="4.83" height="1.08" class="up-body"/>
<line x1="467.32" y1="1004.66" x2="467.32" y2="1018.07" class="up-wick"/>
<rect x="464.90" y="1008.62" width="4.83" height="1.31" class="up-body"/>
<line x1="474.74" y1="996.00" x2="474.74" y2="1006.72" class="down-wick"/>
<rect x="472.33" y="998.83" width="4.83" height="7.88" class="down-body"/>
<line x1="482.17" y1="1005.26" x2="482.17" y2="1024.76" class="up-wick"/>
<rect x="479.76" y="1007.16" width="4.83" height="9.00" class="up-body"/>
<line x1="489.60" y1="986.40" x2="489.60" y2="999.58" class="down-wick"/>
<rect x="487.18" y="991.63" width="4.83" height="1.91" class="down-body"/>
<line x1="497.02" y1="987.14" x2="497.02" y2="997.38" class="up-wick"/>
<rect x="494.61" y="987.89" width="4.83" height="1.00" class="up-body"/>
<line x1="504.45" y1="975.64" x2="504.45" y2="983.30" class="up-wick"/>
<rect x="502.03" y="975.71" width="4.83" height="5.72" class="up-body"/>
<line x1="511.88" y1="966.34" x2="511.88" y2="978.96" class="up-wick"/>
<rect x="509.46" y="968.24" width="4.83" height="10.20" class="up-body"/>
<line x1="519.30" y1="974.55" x2="519.30" y2="987.70" class="down-wick"/>
<rect x="516.89" y="976.09" width="4.83" height="9.15" class="down-body"/>
<line x1="526.73" y1="979.37" x2="526.73" y2="986.40" class="down-wick"/>
<rect x="524.31" y="979.49" width="4.83" height="6.31" class="down-body"/>
<line x1="534.15" y1="963.01" x2="534.15" y2="975.56" class="up-wick"/>
<rect x="531.74" y="966.11" width="4.83" height="7.10" class="up-body"/>
<line x1="541.58" y1="957.30" x2="541.58" y2="961.78" class="down-wick"/>
<rect x="539.17" y="957.33" width="4.83" height="1.00" class="down-body"/>
<line x1="549.01" y1="955.02" x2="549.01" y2="963.09" class="up-wick"/>
<rect x="546.59" y="957.41" width="4.83" height="4.93" class="up-body"/>
<line x1="556.43" y1="954.68" x2="556.43" y2="963.39" class="down-wick"/>
<rect x="554.02" y="957.04" width="4.83" height="6.09" class="down-body"/>
<line x1="563.86" y1="961.14" x2="563.86" y2="967.34" class="up-wick"/>
<rect x="561.45" y="964.10" width="4.83" height="1.01" class="up-body"/>
<line x1="571.29" y1="962.30" x2="571.29" y2="964.88" class="up-wick"/>
<rect x="568.87" y="962.83" width="4.83" height="1.00" class="up-body"/>
<line x1="578.71" y1="946.58" x2="578.71" y2="954.27" class="down-wick"/>
<rect x="576.30" y="947.29" width="4.83" height="1.64" class="down-body"/>
<line x1="586.14" y1="938.62" x2="586.14" y2="949.53" class="up-wick"/>
<rect x="583.73" y="943.36" width="4.83" height="4.71" class="up-body"/>
<line x1="593.57" y1="938.99" x2="593.57" y2="951.88" class="up-wick"/>
<rect x="591.15" y="940.97" width="4.83" height="10.91" class="up-body"/>
<line x1="600.99" y1="939.78" x2="600.99" y2="944.33" class="up-wick"/>
<rect x="598.58" y="941.23" width="4.83" height="2.13" class="up-body"/>
<line x1="608.42" y1="938.84" x2="608.42" y2="942.65" class="down-wick"/>
<rect x="606.01" y="940.15" width="4.83" height="1.01" class="down-body"/>
<line x1="615.85" y1="930.44" x2="615.85" y2="939.78" class="up-wick"/>
<rect x="613.43" y="931.71" width="4.83" height="3.03" class="up-body"/>
<line x1="623.27" y1="917.59" x2="623.27" y2="926.96" class="up-wick"/>
<rect x="620.86" y="918.82" width="4.83" height="6.84" class="up-body"/>
<line x1="630.70" y1="917.51" x2="630.70" y2="926.63" class="down-wick"/>
<rect x="628.28" y="920.32" width="4.83" height="5.19" class="down-body"/>
<line x1="638.12" y1="916.92" x2="638.12" y2="923.38" class="up-wick"/>
<rect x="635.71" y="920.17" width="4.83" height="2.58" class="up-body"/>
<line x1="645.55" y1="922.26" x2="645.55" y2="927.94" class="up-wick"/>
<rect x="643.14" y="923.45" width="4.83" height="1.05" class="up-body"/>
<line x1="652.98" y1="930.51" x2="652.98" y2="934.47" class="down-wick"/>
<rect x="650.56" y="932.72" width="4.83" height="1.00" class="down-body"/>
<line x1="660.40" y1="933.35" x2="660.40" y2="936.30" class="down-wick"/>
<rect x="657.99" y="934.06" width="4.83" height="1.00" class="down-body"/>
<line x1="667.83" y1="932.72" x2="667.83" y2="939.59" class="up-wick"/>
<rect x="665.42" y="936.49" width="4.83" height="1.00" class="up-body"/>
<line x1="675.26" y1="930.89" x2="675.26" y2="939.40" class="up-wick"/>
<rect x="672.84" y="931.90" width="4.83" height="7.32" class="up-body"/>
<line x1="682.68" y1="920.88" x2="682.68" y2="947.21" class="down-wick"/>
<rect x="680.27" y="920.99" width="4.83" height="21.70" class="down-body"/>
<line x1="690.11" y1="943.92" x2="690.11" y2="953.60" class="up-wick"/>
<rect x="687.70" y="945.08" width="4.83" height="2.17" class="up-body"/>
<line x1="697.54" y1="956.03" x2="697.54" y2="963.98" class="down-wick"/>
<rect x="695.12" y="958.98" width="4.83" height="5.01" class="down-body"/>
<line x1="704.96" y1="964.13" x2="704.96" y2="973.92" class="down-wick"/>
<rect x="702.55" y="965.37" width="4.83" height="6.80" class="down-body"/>
<line x1="712.39" y1="966.71" x2="712.39" y2="973.73" class="up-wick"/>
<rect x="709.98" y="968.20" width="4.83" height="2.02" class="up-body"/>
<line x1="719.82" y1="966.04" x2="719.82" y2="978.81" class="down-wick"/>
<rect x="717.40" y="966.30" width="4.83" height="12.10" class="down-body"/>
<line x1="727.24" y1="971.68" x2="727.24" y2="979.71" class="up-wick"/>
<rect x="724.83" y="972.46" width="4.83" height="1.00" class="up-body"/>
<line x1="734.67" y1="970.89" x2="734.67" y2="980.76" class="up-wick"/>
<rect x="732.26" y="971.08" width="4.83" height="6.65" class="up-body"/>
<line x1="742.10" y1="960.14" x2="742.10" y2="974.52" class="up-wick"/>
<rect x="739.68" y="961.82" width="4.83" height="11.88" class="up-body"/>
<line x1="749.52" y1="961.97" x2="749.52" y2="966.60" class="down-wick"/>
<rect x="747.11" y="962.08" width="4.83" height="4.48" class="down-body"/>
<line x1="756.95" y1="974.78" x2="756.95" y2="980.90" class="up-wick"/>
<rect x="754.53" y="979.22" width="4.83" height="1.00" class="up-body"/>
<line x1="764.38" y1="972.61" x2="764.38" y2="987.67" class="up-wick"/>
<rect x="761.96" y="972.61" width="4.83" height="12.81" class="up-body"/>
<line x1="771.80" y1="967.34" x2="771.80" y2="972.16" class="down-wick"/>
<rect x="769.39" y="969.51" width="4.83" height="1.00" class="down-body"/>
<line x1="779.23" y1="969.55" x2="779.23" y2="974.44" class="up-wick"/>
<rect x="776.81" y="971.19" width="4.83" height="1.00" class="up-body"/>
<line x1="786.65" y1="958.83" x2="786.65" y2="966.26" class="down-wick"/>
<rect x="784.24" y="960.92" width="4.83" height="4.03" class="down-body"/>
<line x1="794.08" y1="958.75" x2="794.08" y2="968.61" class="up-wick"/>
<rect x="791.67" y="960.28" width="4.83" height="8.03" class="up-body"/>
<line x1="801.51" y1="944.15" x2="801.51" y2="954.87" class="up-wick"/>
<rect x="799.09" y="945.87" width="4.83" height="7.62" class="up-body"/>
<line x1="808.93" y1="951.02" x2="808.93" y2="956.77" class="down-wick"/>
<rect x="806.52" y="951.06" width="4.83" height="5.72" class="down-body"/>
<line x1="816.36" y1="953.26" x2="816.36" y2="965.14" class="down-wick"/>
<rect x="813.95" y="954.08" width="4.83" height="8.11" class="down-body"/>
<line x1="823.79" y1="940.67" x2="823.79" y2="958.64" class="up-wick"/>
<rect x="821.37" y="940.82" width="4.83" height="13.56" class="up-body"/>
<line x1="831.21" y1="928.09" x2="831.21" y2="937.27" class="up-wick"/>
<rect x="828.80" y="928.65" width="4.83" height="6.24" class="up-body"/>
<line x1="838.64" y1="925.21" x2="838.64" y2="931.11" class="down-wick"/>
<rect x="836.23" y="925.21" width="4.83" height="4.71" class="down-body"/>
<line x1="846.07" y1="928.72" x2="846.07" y2="935.37" class="down-wick"/>
<rect x="843.65" y="932.94" width="4.83" height="2.09" class="down-body"/>
<line x1="853.49" y1="925.77" x2="853.49" y2="931.75" class="up-wick"/>
<rect x="851.08" y="927.97" width="4.83" height="3.77" class="up-body"/>
<line x1="860.92" y1="927.23" x2="860.92" y2="932.61" class="down-wick"/>
<rect x="858.51" y="928.05" width="4.83" height="1.00" class="down-body"/>
<line x1="868.35" y1="934.14" x2="868.35" y2="937.69" class="down-wick"/>
<rect x="865.93" y="935.15" width="4.83" height="2.28" class="down-body"/>
<line x1="875.77" y1="933.39" x2="875.77" y2="937.54" class="down-wick"/>
<rect x="873.36" y="935.41" width="4.83" height="1.61" class="down-body"/>
<line x1="883.20" y1="929.24" x2="883.20" y2="937.20" class="up-wick"/>
<rect x="880.78" y="929.73" width="4.83" height="5.86" class="up-body"/>
<line x1="890.62" y1="923.12" x2="890.62" y2="931.86" class="up-wick"/>
<rect x="888.21" y="926.22" width="4.83" height="4.18" class="up-body"/>
<line x1="898.05" y1="897.68" x2="898.05" y2="919.20" class="up-wick"/>
<rect x="895.64" y="898.02" width="4.83" height="19.50" class="up-body"/>
<line x1="905.48" y1="904.14" x2="905.48" y2="910.75" class="up-wick"/>
<rect x="903.06" y="904.18" width="4.83" height="2.80" class="up-body"/>
<line x1="912.90" y1="899.25" x2="912.90" y2="907.73" class="up-wick"/>
<rect x="910.49" y="900.74" width="4.83" height="2.84" class="up-body"/>
<line x1="920.33" y1="888.68" x2="920.33" y2="900.41" class="up-wick"/>
<rect x="917.92" y="888.90" width="4.83" height="11.28" class="up-body"/>
<line x1="927.76" y1="882.66" x2="927.76" y2="888.15" class="up-wick"/>
<rect x="925.34" y="886.17" width="4.83" height="1.94" class="up-body"/>
<line x1="935.18" y1="885.50" x2="935.18" y2="894.77" class="up-wick"/>
<rect x="932.77" y="885.80" width="4.83" height="6.95" class="up-body"/>
<line x1="942.61" y1="873.88" x2="942.61" y2="880.65" class="up-wick"/>
<rect x="940.20" y="875.53" width="4.83" height="3.29" class="up-body"/>
<line x1="950.04" y1="879.52" x2="950.04" y2="883.78" class="down-wick"/>
<rect x="947.62" y="880.98" width="4.83" height="1.01" class="down-body"/>
<line x1="957.46" y1="871.08" x2="957.46" y2="878.18" class="up-wick"/>
<rect x="955.05" y="871.61" width="4.83" height="3.62" class="up-body"/>
<line x1="964.89" y1="868.54" x2="964.89" y2="873.14" class="up-wick"/>
<rect x="962.48" y="870.56" width="4.83" height="2.58" class="up-body"/>
<line x1="972.32" y1="867.98" x2="972.32" y2="876.05" class="up-wick"/>
<rect x="969.90" y="871.38" width="4.83" height="1.64" class="up-body"/>
<line x1="979.74" y1="861.71" x2="979.74" y2="871.16" class="down-wick"/>
<rect x="977.33" y="863.31" width="4.83" height="6.39" class="down-body"/>
<line x1="987.17" y1="860.85" x2="987.17" y2="869.92" class="down-wick"/>
<rect x="984.76" y="862.83" width="4.83" height="5.86" class="down-body"/>
<line x1="994.60" y1="871.01" x2="994.60" y2="876.95" class="up-wick"/>
<rect x="992.18" y="872.46" width="4.83" height="1.00" class="up-body"/>
<line x1="1002.02" y1="874.67" x2="1002.02" y2="879.97" class="down-wick"/>
<rect x="999.61" y="874.67" width="4.83" height="5.01" class="down-body"/>
<line x1="1009.45" y1="878.78" x2="1009.45" y2="882.96" class="down-wick"/>
<rect x="1007.03" y="880.53" width="4.83" height="1.42" class="down-body"/>
<line x1="1016.88" y1="877.06" x2="1016.88" y2="881.84" class="down-wick"/>
<rect x="1014.46" y="879.41" width="4.83" height="1.00" class="down-body"/>
<line x1="1024.30" y1="863.99" x2="1024.30" y2="869.85" class="down-wick"/>
<rect x="1021.89" y="865.63" width="4.83" height="1.72" class="down-body"/>
<line x1="1031.73" y1="868.84" x2="1031.73" y2="877.92" class="down-wick"/>
<rect x="1029.31" y="869.10" width="4.83" height="8.70" class="down-body"/>
<line x1="1039.15" y1="881.36" x2="1039.15" y2="891.33" class="down-wick"/>
<rect x="1036.74" y="882.06" width="4.83" height="7.77" class="down-body"/>
<line x1="1046.58" y1="890.92" x2="1046.58" y2="894.95" class="up-wick"/>
<rect x="1044.17" y="892.08" width="4.83" height="1.00" class="up-body"/>
<line x1="1054.01" y1="863.13" x2="1054.01" y2="885.95" class="up-wick"/>
<rect x="1051.59" y="863.43" width="4.83" height="22.49" class="up-body"/>
<line x1="1061.43" y1="859.24" x2="1061.43" y2="870.37" class="down-wick"/>
<rect x="1059.02" y="859.84" width="4.83" height="4.67" class="down-body"/>
<line x1="1068.86" y1="881.06" x2="1068.86" y2="887.93" class="down-wick"/>
<rect x="1066.45" y="881.06" width="4.83" height="3.29" class="down-body"/>
<line x1="1076.29" y1="876.72" x2="1076.29" y2="885.91" class="up-wick"/>
<rect x="1073.87" y="878.33" width="4.83" height="5.30" class="up-body"/>
<line x1="70" y1="1002.46" x2="1080" y2="1002.46" class="number-line"/>
<text x="1076" y="998.46" text-anchor="end" class="level-label">round 4980.00</text>
<line x1="70" y1="1002.46" x2="1080" y2="1002.46" class="entry-line"/>
<text x="1076" y="998.46" text-anchor="end" class="level-label">entry level 4980.00</text>
<text x="70" y="1056" class="axis-label">2026-03-16 16:45:00+00:00 to 2026-03-16 21:15:00+00:00</text>
<text x="1080" y="1056" text-anchor="end" class="axis-label">4970.49 - 5021.88</text>
</svg>