<svg xmlns="http://www.w3.org/2000/svg" width="1120" height="1054" viewBox="0 0 1120 1054">
<style>
text{font-family:Arial,Helvetica,sans-serif}.title{font-size:21px;font-weight:700;fill:#1f2937}.subtitle{font-size:12px;fill:#4b5563}.panel-title{font-size:15px;font-weight:700;fill:#111827}.muted{font-size:13px;fill:#6b7280}.plot-bg{fill:#f8fafc;stroke:#cbd5e1;stroke-width:1}.up-body{fill:#15803d;stroke:#14532d;stroke-width:.8}.down-body{fill:#b91c1c;stroke:#7f1d1d;stroke-width:.8}.up-wick{stroke:#14532d;stroke-width:1}.down-wick{stroke:#7f1d1d;stroke-width:1}.sweep-line{stroke:#7c3aed;stroke-width:1.6;stroke-dasharray:6 4}.number-line{stroke:#0f766e;stroke-width:1.4;stroke-dasharray:3 4}.entry-line{stroke:#2563eb;stroke-width:1.4}.sl-line{stroke:#dc2626;stroke-width:1.4}.tp-line{stroke:#16a34a;stroke-width:1.4}.level-label,.axis-label{font-size:11px;fill:#374151}
</style>
<text x="28" y="28" class="title">Adelin v2 visual review sample sample_299</text>
<text x="28" y="48" class="subtitle">Candidate windows are for visual labeling only and are not trade signals.</text>
<text x="560" y="48" class="subtitle" text-anchor="middle">NUMBER_THEORY_LEVEL_NEAR | ROUND_LEVEL_ENTRY_METADATA_AVAILABLE</text>
<text x="70" y="82" class="panel-title">H1 liquidity context</text>
<rect x="70" y="96" width="1010" height="192" class="plot-bg"/>
<line x1="81.48" y1="114.27" x2="81.48" y2="121.99" class="down-wick"/>
<rect x="77.48" y="115.63" width="8.00" height="1.00" class="down-body"/>
<line x1="104.43" y1="113.07" x2="104.43" y2="124.78" class="down-wick"/>
<rect x="100.43" y="116.24" width="8.00" height="5.90" class="down-body"/>
<line x1="127.39" y1="137.83" x2="127.39" y2="156.60" class="down-wick"/>
<rect x="123.39" y="139.31" width="8.00" height="12.82" class="down-body"/>
<line x1="150.34" y1="151.94" x2="150.34" y2="161.46" class="down-wick"/>
<rect x="146.34" y="152.13" width="8.00" height="4.47" class="down-body"/>
<line x1="173.30" y1="139.37" x2="173.30" y2="164.06" class="up-wick"/>
<rect x="169.30" y="139.78" width="8.00" height="16.82" class="up-body"/>
<line x1="196.25" y1="128.52" x2="196.25" y2="146.35" class="up-wick"/>
<rect x="192.25" y="135.09" width="8.00" height="4.68" class="up-body"/>
<line x1="219.20" y1="115.48" x2="219.20" y2="141.22" class="up-wick"/>
<rect x="215.20" y="120.40" width="8.00" height="14.68" class="up-body"/>
<line x1="242.16" y1="109.87" x2="242.16" y2="123.99" class="up-wick"/>
<rect x="238.16" y="114.85" width="8.00" height="5.63" class="up-body"/>
<line x1="265.11" y1="109.24" x2="265.11" y2="116.16" class="up-wick"/>
<rect x="261.11" y="114.05" width="8.00" height="1.00" class="up-body"/>
<line x1="288.07" y1="113.57" x2="288.07" y2="129.36" class="down-wick"/>
<rect x="284.07" y="114.03" width="8.00" height="14.17" class="down-body"/>
<line x1="311.02" y1="122.91" x2="311.02" y2="128.95" class="up-wick"/>
<rect x="307.02" y="125.56" width="8.00" height="2.63" class="up-body"/>
<line x1="333.98" y1="120.30" x2="333.98" y2="128.17" class="up-wick"/>
<rect x="329.98" y="125.05" width="8.00" height="1.00" class="up-body"/>
<line x1="356.93" y1="123.73" x2="356.93" y2="132.65" class="down-wick"/>
<rect x="352.93" y="125.05" width="8.00" height="6.19" class="down-body"/>
<line x1="379.89" y1="129.85" x2="379.89" y2="138.10" class="down-wick"/>
<rect x="375.89" y="131.19" width="8.00" height="3.09" class="down-body"/>
<line x1="402.84" y1="127.34" x2="402.84" y2="138.15" class="up-wick"/>
<rect x="398.84" y="129.38" width="8.00" height="4.87" class="up-body"/>
<line x1="425.80" y1="129.05" x2="425.80" y2="137.55" class="down-wick"/>
<rect x="421.80" y="129.35" width="8.00" height="3.79" class="down-body"/>
<line x1="448.75" y1="125.74" x2="448.75" y2="140.58" class="down-wick"/>
<rect x="444.75" y="133.12" width="8.00" height="5.30" class="down-body"/>
<line x1="471.70" y1="134.41" x2="471.70" y2="147.77" class="down-wick"/>
<rect x="467.70" y="138.28" width="8.00" height="3.00" class="down-body"/>
<line x1="494.66" y1="140.75" x2="494.66" y2="159.82" class="down-wick"/>
<rect x="490.66" y="141.28" width="8.00" height="17.09" class="down-body"/>
<line x1="517.61" y1="154.15" x2="517.61" y2="168.62" class="down-wick"/>
<rect x="513.61" y="158.37" width="8.00" height="7.59" class="down-body"/>
<line x1="540.57" y1="157.02" x2="540.57" y2="168.63" class="up-wick"/>
<rect x="536.57" y="159.69" width="8.00" height="6.28" class="up-body"/>
<line x1="563.52" y1="150.74" x2="563.52" y2="167.71" class="up-wick"/>
<rect x="559.52" y="154.47" width="8.00" height="5.21" class="up-body"/>
<line x1="586.48" y1="151.40" x2="586.48" y2="157.53" class="down-wick"/>
<rect x="582.48" y="154.47" width="8.00" height="1.44" class="down-body"/>
<line x1="609.43" y1="154.02" x2="609.43" y2="159.70" class="up-wick"/>
<rect x="605.43" y="155.75" width="8.00" height="1.00" class="up-body"/>
<line x1="632.39" y1="145.97" x2="632.39" y2="155.34" class="up-wick"/>
<rect x="628.39" y="149.07" width="8.00" height="5.89" class="up-body"/>
<line x1="655.34" y1="142.40" x2="655.34" y2="149.71" class="up-wick"/>
<rect x="651.34" y="145.35" width="8.00" height="3.72" class="up-body"/>
<line x1="678.30" y1="136.50" x2="678.30" y2="146.70" class="down-wick"/>
<rect x="674.30" y="145.33" width="8.00" height="1.27" class="down-body"/>
<line x1="701.25" y1="145.74" x2="701.25" y2="166.48" class="down-wick"/>
<rect x="697.25" y="146.61" width="8.00" height="18.74" class="down-body"/>
<line x1="724.20" y1="156.74" x2="724.20" y2="169.37" class="down-wick"/>
<rect x="720.20" y="165.35" width="8.00" height="1.47" class="down-body"/>
<line x1="747.16" y1="160.52" x2="747.16" y2="167.45" class="up-wick"/>
<rect x="743.16" y="165.16" width="8.00" height="1.66" class="up-body"/>
<line x1="770.11" y1="164.83" x2="770.11" y2="169.25" class="down-wick"/>
<rect x="766.11" y="165.16" width="8.00" height="3.09" class="down-body"/>
<line x1="793.07" y1="167.88" x2="793.07" y2="209.55" class="down-wick"/>
<rect x="789.07" y="168.23" width="8.00" height="33.46" class="down-body"/>
<line x1="816.02" y1="191.54" x2="816.02" y2="210.17" class="down-wick"/>
<rect x="812.02" y="201.69" width="8.00" height="3.04" class="down-body"/>
<line x1="838.98" y1="194.85" x2="838.98" y2="212.79" class="up-wick"/>
<rect x="834.98" y="200.68" width="8.00" height="4.05" class="up-body"/>
<line x1="861.93" y1="198.59" x2="861.93" y2="218.19" class="down-wick"/>
<rect x="857.93" y="200.68" width="8.00" height="3.39" class="down-body"/>
<line x1="884.89" y1="203.75" x2="884.89" y2="227.78" class="down-wick"/>
<rect x="880.89" y="204.07" width="8.00" height="23.44" class="down-body"/>
<line x1="907.84" y1="216.53" x2="907.84" y2="229.21" class="down-wick"/>
<rect x="903.84" y="227.51" width="8.00" height="1.58" class="down-body"/>
<line x1="930.80" y1="223.86" x2="930.80" y2="274.14" class="down-wick"/>
<rect x="926.80" y="229.08" width="8.00" height="38.39" class="down-body"/>
<line x1="953.75" y1="231.95" x2="953.75" y2="274.76" class="up-wick"/>
<rect x="949.75" y="237.98" width="8.00" height="29.49" class="up-body"/>
<line x1="976.70" y1="237.14" x2="976.70" y2="259.66" class="down-wick"/>
<rect x="972.70" y="237.98" width="8.00" height="12.82" class="down-body"/>
<line x1="999.66" y1="250.41" x2="999.66" y2="272.44" class="down-wick"/>
<rect x="995.66" y="250.77" width="8.00" height="5.47" class="down-body"/>
<line x1="1022.61" y1="244.79" x2="1022.61" y2="263.26" class="up-wick"/>
<rect x="1018.61" y="244.79" width="8.00" height="11.45" class="up-body"/>
<line x1="1045.57" y1="237.06" x2="1045.57" y2="253.03" class="up-wick"/>
<rect x="1041.57" y="239.44" width="8.00" height="5.34" class="up-body"/>
<line x1="1068.52" y1="230.68" x2="1068.52" y2="244.20" class="up-wick"/>
<rect x="1064.52" y="237.08" width="8.00" height="2.36" class="up-body"/>
<line x1="70" y1="156.56" x2="1080" y2="156.56" class="number-line"/>
<text x="1076" y="152.56" text-anchor="end" class="level-label">round 4680.00</text>
<line x1="70" y1="156.56" x2="1080" y2="156.56" class="entry-line"/>
<text x="1076" y="152.56" text-anchor="end" class="level-label">entry level 4680.00</text>
<text x="70" y="306" class="axis-label">2026-04-24 21:00:00+00:00 to 2026-04-28 20:00:00+00:00</text>
<text x="1080" y="306" text-anchor="end" class="axis-label">4540.81 - 4744.13</text>
<text x="70" y="332" class="panel-title">M15 liquidity / reaction context</text>
<rect x="70" y="346" width="1010" height="192" class="plot-bg"/>
<line x1="77.77" y1="359.24" x2="77.77" y2="370.79" class="down-wick"/>
<rect x="73.77" y="363.68" width="8.00" height="1.00" class="down-body"/>
<line x1="93.31" y1="364.12" x2="93.31" y2="393.23" class="down-wick"/>
<rect x="89.31" y="364.50" width="8.00" height="20.86" class="down-body"/>
<line x1="108.85" y1="378.56" x2="108.85" y2="393.92" class="down-wick"/>
<rect x="104.85" y="385.36" width="8.00" height="4.69" class="down-body"/>
<line x1="124.38" y1="372.39" x2="124.38" y2="392.53" class="up-wick"/>
<rect x="120.38" y="375.54" width="8.00" height="14.47" class="up-body"/>
<line x1="139.92" y1="372.58" x2="139.92" y2="385.80" class="down-wick"/>
<rect x="135.92" y="375.54" width="8.00" height="1.00" class="down-body"/>
<line x1="155.46" y1="375.98" x2="155.46" y2="392.44" class="down-wick"/>
<rect x="151.46" y="376.30" width="8.00" height="11.64" class="down-body"/>
<line x1="171.00" y1="372.74" x2="171.00" y2="390.27" class="up-wick"/>
<rect x="167.00" y="381.24" width="8.00" height="6.70" class="up-body"/>
<line x1="186.54" y1="364.06" x2="186.54" y2="387.18" class="up-wick"/>
<rect x="182.54" y="367.93" width="8.00" height="13.25" class="up-body"/>
<line x1="202.08" y1="363.71" x2="202.08" y2="382.68" class="down-wick"/>
<rect x="198.08" y="367.93" width="8.00" height="3.05" class="down-body"/>
<line x1="217.62" y1="366.82" x2="217.62" y2="379.13" class="down-wick"/>
<rect x="213.62" y="370.98" width="8.00" height="3.68" class="down-body"/>
<line x1="233.15" y1="368.34" x2="233.15" y2="389.92" class="down-wick"/>
<rect x="229.15" y="374.66" width="8.00" height="4.88" class="down-body"/>
<line x1="248.69" y1="376.33" x2="248.69" y2="389.14" class="down-wick"/>
<rect x="244.69" y="379.54" width="8.00" height="7.62" class="down-body"/>
<line x1="264.23" y1="377.24" x2="264.23" y2="391.87" class="down-wick"/>
<rect x="260.23" y="387.15" width="8.00" height="1.00" class="down-body"/>
<line x1="279.77" y1="383.91" x2="279.77" y2="404.87" class="up-wick"/>
<rect x="275.77" y="384.04" width="8.00" height="3.74" class="up-body"/>
<line x1="295.31" y1="375.13" x2="295.31" y2="404.15" class="down-wick"/>
<rect x="291.31" y="384.04" width="8.00" height="16.11" class="down-body"/>
<line x1="310.85" y1="395.52" x2="310.85" y2="413.68" class="down-wick"/>
<rect x="306.85" y="399.99" width="8.00" height="5.29" class="down-body"/>
<line x1="326.38" y1="400.81" x2="326.38" y2="416.67" class="down-wick"/>
<rect x="322.38" y="405.28" width="8.00" height="9.25" class="down-body"/>
<line x1="341.92" y1="404.52" x2="341.92" y2="423.03" class="up-wick"/>
<rect x="337.92" y="406.91" width="8.00" height="7.90" class="up-body"/>
<line x1="357.46" y1="406.95" x2="357.46" y2="422.96" class="down-wick"/>
<rect x="353.46" y="406.95" width="8.00" height="3.34" class="down-body"/>
<line x1="373.00" y1="400.02" x2="373.00" y2="416.70" class="down-wick"/>
<rect x="369.00" y="410.22" width="8.00" height="5.29" class="down-body"/>
<line x1="388.54" y1="403.11" x2="388.54" y2="423.18" class="up-wick"/>
<rect x="384.54" y="405.53" width="8.00" height="9.98" class="up-body"/>
<line x1="404.08" y1="388.29" x2="404.08" y2="407.07" class="up-wick"/>
<rect x="400.08" y="393.19" width="8.00" height="12.34" class="up-body"/>
<line x1="419.62" y1="387.18" x2="419.62" y2="399.20" class="down-wick"/>
<rect x="415.62" y="393.19" width="8.00" height="1.00" class="down-body"/>
<line x1="435.15" y1="392.88" x2="435.15" y2="409.21" class="down-wick"/>
<rect x="431.15" y="393.86" width="8.00" height="14.85" class="down-body"/>
<line x1="450.69" y1="399.65" x2="450.69" y2="420.79" class="up-wick"/>
<rect x="446.69" y="405.15" width="8.00" height="3.56" class="up-body"/>
<line x1="466.23" y1="394.80" x2="466.23" y2="421.20" class="down-wick"/>
<rect x="462.23" y="405.15" width="8.00" height="8.15" class="down-body"/>
<line x1="481.77" y1="404.93" x2="481.77" y2="418.75" class="up-wick"/>
<rect x="477.77" y="406.47" width="8.00" height="6.83" class="up-body"/>
<line x1="497.31" y1="392.60" x2="497.31" y2="413.68" class="up-wick"/>
<rect x="493.31" y="393.57" width="8.00" height="12.87" class="up-body"/>
<line x1="512.85" y1="381.83" x2="512.85" y2="414.97" class="down-wick"/>
<rect x="508.85" y="393.57" width="8.00" height="6.04" class="down-body"/>
<line x1="528.38" y1="397.10" x2="528.38" y2="431.11" class="down-wick"/>
<rect x="524.38" y="399.61" width="8.00" height="25.55" class="down-body"/>
<line x1="543.92" y1="407.35" x2="543.92" y2="431.30" class="up-wick"/>
<rect x="539.92" y="424.10" width="8.00" height="1.07" class="up-body"/>
<line x1="559.46" y1="419.69" x2="559.46" y2="442.66" class="down-wick"/>
<rect x="555.46" y="423.62" width="8.00" height="10.57" class="down-body"/>
<line x1="575.00" y1="410.72" x2="575.00" y2="435.55" class="up-wick"/>
<rect x="571.00" y="421.29" width="8.00" height="12.90" class="up-body"/>
<line x1="590.54" y1="413.43" x2="590.54" y2="455.18" class="down-wick"/>
<rect x="586.54" y="421.29" width="8.00" height="21.33" class="down-body"/>
<line x1="606.08" y1="429.79" x2="606.08" y2="455.25" class="up-wick"/>
<rect x="602.08" y="433.63" width="8.00" height="9.00" class="up-body"/>
<line x1="621.62" y1="433.28" x2="621.62" y2="459.75" class="down-wick"/>
<rect x="617.62" y="433.63" width="8.00" height="11.42" class="down-body"/>
<line x1="637.15" y1="432.18" x2="637.15" y2="465.16" class="down-wick"/>
<rect x="633.15" y="445.05" width="8.00" height="11.23" class="down-body"/>
<line x1="652.69" y1="431.87" x2="652.69" y2="473.59" class="up-wick"/>
<rect x="648.69" y="442.28" width="8.00" height="14.00" class="up-body"/>
<line x1="668.23" y1="440.43" x2="668.23" y2="495.40" class="down-wick"/>
<rect x="664.23" y="442.28" width="8.00" height="48.30" class="down-body"/>
<line x1="683.77" y1="486.49" x2="683.77" y2="524.73" class="down-wick"/>
<rect x="679.77" y="490.59" width="8.00" height="11.04" class="down-body"/>
<line x1="699.31" y1="480.86" x2="699.31" y2="509.91" class="up-wick"/>
<rect x="695.31" y="480.99" width="8.00" height="20.64" class="up-body"/>
<line x1="714.85" y1="476.52" x2="714.85" y2="493.92" class="down-wick"/>
<rect x="710.85" y="480.99" width="8.00" height="10.92" class="down-body"/>
<line x1="730.38" y1="490.59" x2="730.38" y2="522.02" class="down-wick"/>
<rect x="726.38" y="491.91" width="8.00" height="23.98" class="down-body"/>
<line x1="745.92" y1="500.47" x2="745.92" y2="524.76" class="up-wick"/>
<rect x="741.92" y="501.82" width="8.00" height="14.07" class="up-body"/>
<line x1="761.46" y1="491.66" x2="761.46" y2="504.46" class="up-wick"/>
<rect x="757.46" y="495.97" width="8.00" height="5.85" class="up-body"/>
<line x1="777.00" y1="486.09" x2="777.00" y2="502.51" class="down-wick"/>
<rect x="773.00" y="495.97" width="8.00" height="4.85" class="down-body"/>
<line x1="792.54" y1="490.55" x2="792.54" y2="501.06" class="up-wick"/>
<rect x="788.54" y="494.96" width="8.00" height="5.85" class="up-body"/>
<line x1="808.08" y1="489.30" x2="808.08" y2="510.79" class="down-wick"/>
<rect x="804.08" y="494.96" width="8.00" height="9.38" class="down-body"/>
<line x1="823.62" y1="484.67" x2="823.62" y2="521.71" class="up-wick"/>
<rect x="819.62" y="485.46" width="8.00" height="18.85" class="up-body"/>
<line x1="839.15" y1="465.16" x2="839.15" y2="486.18" class="up-wick"/>
<rect x="835.15" y="474.54" width="8.00" height="10.92" class="up-body"/>
<line x1="854.69" y1="470.45" x2="854.69" y2="481.18" class="down-wick"/>
<rect x="850.69" y="474.54" width="8.00" height="3.05" class="down-body"/>
<line x1="870.23" y1="475.67" x2="870.23" y2="487.78" class="down-wick"/>
<rect x="866.23" y="477.59" width="8.00" height="2.52" class="down-body"/>
<line x1="885.77" y1="467.33" x2="885.77" y2="482.53" class="up-wick"/>
<rect x="881.77" y="471.67" width="8.00" height="8.43" class="up-body"/>
<line x1="901.31" y1="467.99" x2="901.31" y2="476.52" class="down-wick"/>
<rect x="897.31" y="471.61" width="8.00" height="4.00" class="down-body"/>
<line x1="916.85" y1="468.65" x2="916.85" y2="482.37" class="down-wick"/>
<rect x="912.85" y="475.67" width="8.00" height="6.70" class="down-body"/>
<line x1="932.38" y1="480.74" x2="932.38" y2="489.11" class="down-wick"/>
<rect x="928.38" y="482.37" width="8.00" height="1.35" class="down-body"/>
<line x1="947.92" y1="476.08" x2="947.92" y2="485.30" class="up-wick"/>
<rect x="943.92" y="477.53" width="8.00" height="6.23" class="up-body"/>
<line x1="963.46" y1="477.15" x2="963.46" y2="495.02" class="down-wick"/>
<rect x="959.46" y="477.46" width="8.00" height="7.11" class="down-body"/>
<line x1="979.00" y1="479.70" x2="979.00" y2="489.48" class="up-wick"/>
<rect x="975.00" y="481.84" width="8.00" height="2.80" class="up-body"/>
<line x1="994.54" y1="449.27" x2="994.54" y2="480.48" class="up-wick"/>
<rect x="990.54" y="455.47" width="8.00" height="23.76" class="up-body"/>
<line x1="1010.08" y1="453.67" x2="1010.08" y2="462.83" class="down-wick"/>
<rect x="1006.08" y="455.47" width="8.00" height="1.00" class="down-body"/>
<line x1="1025.62" y1="453.71" x2="1025.62" y2="464.18" class="down-wick"/>
<rect x="1021.62" y="456.00" width="8.00" height="5.38" class="down-body"/>
<line x1="1041.15" y1="458.93" x2="1041.15" y2="464.85" class="up-wick"/>
<rect x="1037.15" y="459.59" width="8.00" height="1.79" class="up-body"/>
<line x1="1056.69" y1="453.55" x2="1056.69" y2="461.73" class="up-wick"/>
<rect x="1052.69" y="453.58" width="8.00" height="6.01" class="up-body"/>
<line x1="1072.23" y1="447.88" x2="1072.23" y2="454.74" class="up-wick"/>
<rect x="1068.23" y="451.22" width="8.00" height="2.39" class="up-body"/>
<line x1="70" y1="484.54" x2="1080" y2="484.54" class="number-line"/>
<text x="1076" y="480.54" text-anchor="end" class="level-label">round 4680.00</text>
<line x1="70" y1="484.54" x2="1080" y2="484.54" class="entry-line"/>
<text x="1076" y="480.54" text-anchor="end" class="level-label">entry level 4680.00</text>
<text x="70" y="556" class="axis-label">2026-04-27 08:15:00+00:00 to 2026-04-28 02:15:00+00:00</text>
<text x="1080" y="556" text-anchor="end" class="axis-label">4663.01 - 4724.03</text>
<text x="70" y="582" class="panel-title">M5 reaction / execution context</text>
<rect x="70" y="596" width="1010" height="192" class="plot-bg"/>
<line x1="79.90" y1="679.85" x2="79.90" y2="713.50" class="down-wick"/>
<rect x="75.90" y="683.52" width="8.00" height="29.36" class="down-body"/>
<line x1="99.71" y1="694.62" x2="99.71" y2="742.77" class="down-wick"/>
<rect x="95.71" y="712.89" width="8.00" height="23.51" class="down-body"/>
<line x1="119.51" y1="725.21" x2="119.51" y2="767.16" class="down-wick"/>
<rect x="115.51" y="736.39" width="8.00" height="13.72" class="down-body"/>
<line x1="139.31" y1="741.73" x2="139.31" y2="774.76" class="up-wick"/>
<rect x="135.31" y="744.35" width="8.00" height="5.77" class="up-body"/>
<line x1="159.12" y1="711.49" x2="159.12" y2="745.75" class="up-wick"/>
<rect x="155.12" y="725.91" width="8.00" height="18.44" class="up-body"/>
<line x1="178.92" y1="707.29" x2="178.92" y2="726.78" class="up-wick"/>
<rect x="174.92" y="711.05" width="8.00" height="14.86" class="up-body"/>
<line x1="198.73" y1="682.82" x2="198.73" y2="715.42" class="up-wick"/>
<rect x="194.73" y="690.16" width="8.00" height="20.89" class="up-body"/>
<line x1="218.53" y1="686.49" x2="218.53" y2="709.13" class="down-wick"/>
<rect x="214.53" y="690.16" width="8.00" height="10.40" class="down-body"/>
<line x1="238.33" y1="694.80" x2="238.33" y2="718.39" class="up-wick"/>
<rect x="234.33" y="694.80" width="8.00" height="6.03" class="up-body"/>
<line x1="258.14" y1="672.42" x2="258.14" y2="698.03" class="up-wick"/>
<rect x="254.14" y="680.64" width="8.00" height="14.16" class="up-body"/>
<line x1="277.94" y1="667.36" x2="277.94" y2="688.50" class="down-wick"/>
<rect x="273.94" y="680.64" width="8.00" height="3.41" class="down-body"/>
<line x1="297.75" y1="683.96" x2="297.75" y2="712.97" class="down-wick"/>
<rect x="293.75" y="683.96" width="8.00" height="24.29" class="down-body"/>
<line x1="317.55" y1="679.77" x2="317.55" y2="708.95" class="up-wick"/>
<rect x="313.55" y="698.82" width="8.00" height="9.44" class="up-body"/>
<line x1="337.35" y1="683.96" x2="337.35" y2="706.59" class="up-wick"/>
<rect x="333.35" y="694.01" width="8.00" height="4.81" class="up-body"/>
<line x1="357.16" y1="685.53" x2="357.16" y2="699.78" class="up-wick"/>
<rect x="353.16" y="692.00" width="8.00" height="1.84" class="up-body"/>
<line x1="376.96" y1="676.27" x2="376.96" y2="716.38" class="down-wick"/>
<rect x="372.96" y="692.00" width="8.00" height="22.20" class="down-body"/>
<line x1="396.76" y1="702.57" x2="396.76" y2="724.25" class="down-wick"/>
<rect x="392.76" y="714.20" width="8.00" height="6.03" class="down-body"/>
<line x1="416.57" y1="708.43" x2="416.57" y2="735.96" class="up-wick"/>
<rect x="412.57" y="718.04" width="8.00" height="2.18" class="up-body"/>
<line x1="436.37" y1="710.79" x2="436.37" y2="766.28" class="down-wick"/>
<rect x="432.37" y="717.95" width="8.00" height="20.27" class="down-body"/>
<line x1="456.18" y1="688.33" x2="456.18" y2="750.38" class="up-wick"/>
<rect x="452.18" y="713.50" width="8.00" height="24.91" class="up-body"/>
<line x1="475.98" y1="663.42" x2="475.98" y2="713.50" class="up-wick"/>
<rect x="471.98" y="665.61" width="8.00" height="47.89" class="up-body"/>
<line x1="495.78" y1="615.01" x2="495.78" y2="667.62" class="up-wick"/>
<rect x="491.78" y="618.50" width="8.00" height="47.10" class="up-body"/>
<line x1="515.59" y1="609.24" x2="515.59" y2="663.07" class="down-wick"/>
<rect x="511.59" y="618.59" width="8.00" height="39.68" class="down-body"/>
<line x1="535.39" y1="634.58" x2="535.39" y2="659.40" class="up-wick"/>
<rect x="531.39" y="635.28" width="8.00" height="22.81" class="up-body"/>
<line x1="555.20" y1="623.92" x2="555.20" y2="653.72" class="down-wick"/>
<rect x="551.20" y="635.28" width="8.00" height="8.65" class="down-body"/>
<line x1="575.00" y1="633.27" x2="575.00" y2="650.05" class="down-wick"/>
<rect x="571.00" y="643.67" width="8.00" height="2.27" class="down-body"/>
<line x1="594.80" y1="629.34" x2="594.80" y2="645.95" class="up-wick"/>
<rect x="590.80" y="643.76" width="8.00" height="2.18" class="up-body"/>
<line x1="614.61" y1="643.50" x2="614.61" y2="661.41" class="down-wick"/>
<rect x="610.61" y="643.76" width="8.00" height="15.82" class="down-body"/>
<line x1="634.41" y1="643.59" x2="634.41" y2="672.08" class="up-wick"/>
<rect x="630.41" y="646.03" width="8.00" height="13.55" class="up-body"/>
<line x1="654.22" y1="638.43" x2="654.22" y2="656.34" class="down-wick"/>
<rect x="650.22" y="646.12" width="8.00" height="4.63" class="down-body"/>
<line x1="674.02" y1="640.70" x2="674.02" y2="657.48" class="up-wick"/>
<rect x="670.02" y="647.87" width="8.00" height="2.88" class="up-body"/>
<line x1="693.82" y1="622.96" x2="693.82" y2="648.22" class="up-wick"/>
<rect x="689.82" y="626.72" width="8.00" height="20.97" class="up-body"/>
<line x1="713.63" y1="615.27" x2="713.63" y2="634.76" class="down-wick"/>
<rect x="709.63" y="626.72" width="8.00" height="1.00" class="down-body"/>
<line x1="733.43" y1="625.15" x2="733.43" y2="635.81" class="down-wick"/>
<rect x="729.43" y="627.16" width="8.00" height="6.99" class="down-body"/>
<line x1="753.24" y1="626.11" x2="753.24" y2="640.79" class="down-wick"/>
<rect x="749.24" y="634.15" width="8.00" height="1.00" class="down-body"/>
<line x1="773.04" y1="617.11" x2="773.04" y2="639.48" class="down-wick"/>
<rect x="769.04" y="634.41" width="8.00" height="3.85" class="down-body"/>
<line x1="792.84" y1="626.89" x2="792.84" y2="648.22" class="up-wick"/>
<rect x="788.84" y="630.83" width="8.00" height="7.60" class="up-body"/>
<line x1="812.65" y1="618.94" x2="812.65" y2="633.89" class="down-wick"/>
<rect x="808.65" y="630.83" width="8.00" height="1.00" class="down-body"/>
<line x1="832.45" y1="629.95" x2="832.45" y2="657.04" class="down-wick"/>
<rect x="828.45" y="631.09" width="8.00" height="25.95" class="down-body"/>
<line x1="852.25" y1="652.50" x2="852.25" y2="675.75" class="down-wick"/>
<rect x="848.25" y="657.04" width="8.00" height="14.16" class="down-body"/>
<line x1="872.06" y1="659.58" x2="872.06" y2="672.69" class="up-wick"/>
<rect x="868.06" y="667.53" width="8.00" height="3.67" class="up-body"/>
<line x1="891.86" y1="654.60" x2="891.86" y2="671.99" class="up-wick"/>
<rect x="887.86" y="660.80" width="8.00" height="6.73" class="up-body"/>
<line x1="911.67" y1="646.47" x2="911.67" y2="665.17" class="up-wick"/>
<rect x="907.67" y="648.04" width="8.00" height="12.85" class="up-body"/>
<line x1="931.47" y1="639.57" x2="931.47" y2="653.55" class="up-wick"/>
<rect x="927.47" y="641.14" width="8.00" height="6.90" class="up-body"/>
<line x1="951.27" y1="640.09" x2="951.27" y2="655.12" class="down-wick"/>
<rect x="947.27" y="641.31" width="8.00" height="2.27" class="down-body"/>
<line x1="971.08" y1="642.54" x2="971.08" y2="677.23" class="down-wick"/>
<rect x="967.08" y="643.41" width="8.00" height="29.28" class="down-body"/>
<line x1="990.88" y1="670.85" x2="990.88" y2="692.17" class="down-wick"/>
<rect x="986.88" y="672.86" width="8.00" height="11.54" class="down-body"/>
<line x1="1010.69" y1="661.41" x2="1010.69" y2="685.53" class="up-wick"/>
<rect x="1006.69" y="663.16" width="8.00" height="21.24" class="up-body"/>
<line x1="1030.49" y1="649.62" x2="1030.49" y2="676.79" class="up-wick"/>
<rect x="1026.49" y="654.07" width="8.00" height="9.26" class="up-body"/>
<line x1="1050.29" y1="651.98" x2="1050.29" y2="670.59" class="down-wick"/>
<rect x="1046.29" y="653.11" width="8.00" height="10.66" class="down-body"/>
<line x1="1070.10" y1="652.15" x2="1070.10" y2="671.29" class="up-wick"/>
<rect x="1066.10" y="655.56" width="8.00" height="8.21" class="up-body"/>
<line x1="70" y1="663.07" x2="1080" y2="663.07" class="number-line"/>
<text x="1076" y="659.07" text-anchor="end" class="level-label">round 4680.00</text>
<line x1="70" y1="663.07" x2="1080" y2="663.07" class="entry-line"/>
<text x="1076" y="659.07" text-anchor="end" class="level-label">entry level 4680.00</text>
<text x="70" y="806" class="axis-label">2026-04-27 18:45:00+00:00 to 2026-04-27 22:55:00+00:00</text>
<text x="1080" y="806" text-anchor="end" class="axis-label">4665.70 - 4687.68</text>
<text x="70" y="832" class="panel-title">M1 execution window</text>
<rect x="70" y="846" width="1010" height="192" class="plot-bg"/>
<line x1="73.95" y1="930.57" x2="73.95" y2="951.51" class="down-wick"/>
<rect x="71.38" y="933.72" width="5.13" height="16.39" class="down-body"/>
<line x1="81.84" y1="930.04" x2="81.84" y2="949.49" class="up-wick"/>
<rect x="79.27" y="941.78" width="5.13" height="6.31" class="up-body"/>
<line x1="89.73" y1="941.43" x2="89.73" y2="963.77" class="down-wick"/>
<rect x="87.16" y="948.79" width="5.13" height="14.37" class="down-body"/>
<line x1="97.62" y1="944.85" x2="97.62" y2="962.55" class="up-wick"/>
<rect x="95.05" y="947.39" width="5.13" height="13.67" class="up-body"/>
<line x1="105.51" y1="949.75" x2="105.51" y2="966.84" class="down-wick"/>
<rect x="102.94" y="952.03" width="5.13" height="13.49" class="down-body"/>
<line x1="113.40" y1="975.52" x2="113.40" y2="995.49" class="up-wick"/>
<rect x="110.83" y="977.79" width="5.13" height="8.94" class="up-body"/>
<line x1="121.29" y1="996.63" x2="121.29" y2="1008.11" class="up-wick"/>
<rect x="118.72" y="1001.89" width="5.13" height="1.00" class="up-body"/>
<line x1="129.18" y1="996.02" x2="129.18" y2="1017.57" class="up-wick"/>
<rect x="126.62" y="1000.49" width="5.13" height="15.60" class="up-body"/>
<line x1="137.07" y1="1007.85" x2="137.07" y2="1024.76" class="up-wick"/>
<rect x="134.51" y="1010.13" width="5.13" height="13.93" class="up-body"/>
<line x1="144.96" y1="994.00" x2="144.96" y2="1009.25" class="down-wick"/>
<rect x="142.40" y="1001.36" width="5.13" height="1.00" class="down-body"/>
<line x1="152.85" y1="977.79" x2="152.85" y2="996.11" class="up-wick"/>
<rect x="150.29" y="984.19" width="5.13" height="10.51" class="up-body"/>
<line x1="160.74" y1="965.61" x2="160.74" y2="986.73" class="up-wick"/>
<rect x="158.18" y="968.86" width="5.13" height="15.33" class="up-body"/>
<line x1="168.63" y1="969.64" x2="168.63" y2="984.01" class="down-wick"/>
<rect x="166.07" y="969.64" width="5.13" height="6.57" class="down-body"/>
<line x1="176.52" y1="959.83" x2="176.52" y2="976.83" class="up-wick"/>
<rect x="173.96" y="963.86" width="5.13" height="4.38" class="up-body"/>
<line x1="184.41" y1="957.55" x2="184.41" y2="966.40" class="down-wick"/>
<rect x="181.85" y="961.32" width="5.13" height="3.15" class="down-body"/>
<line x1="192.30" y1="947.91" x2="192.30" y2="965.70" class="up-wick"/>
<rect x="189.74" y="954.31" width="5.13" height="7.01" class="up-body"/>
<line x1="200.20" y1="940.12" x2="200.20" y2="948.00" class="up-wick"/>
<rect x="197.63" y="943.45" width="5.13" height="1.49" class="up-body"/>
<line x1="208.09" y1="933.02" x2="208.09" y2="946.51" class="down-wick"/>
<rect x="205.52" y="939.59" width="5.13" height="1.00" class="down-body"/>
<line x1="215.98" y1="943.88" x2="215.98" y2="954.75" class="down-wick"/>
<rect x="213.41" y="943.88" width="5.13" height="2.72" class="down-body"/>
<line x1="223.87" y1="946.42" x2="223.87" y2="959.39" class="up-wick"/>
<rect x="221.30" y="948.70" width="5.13" height="4.99" class="up-body"/>
<line x1="231.76" y1="950.02" x2="231.76" y2="965.44" class="down-wick"/>
<rect x="229.19" y="951.07" width="5.13" height="7.62" class="down-body"/>
<line x1="239.65" y1="951.51" x2="239.65" y2="968.68" class="up-wick"/>
<rect x="237.08" y="956.50" width="5.13" height="6.22" class="up-body"/>
<line x1="247.54" y1="945.02" x2="247.54" y2="952.47" class="up-wick"/>
<rect x="244.97" y="945.02" width="5.13" height="7.45" class="up-body"/>
<line x1="255.43" y1="928.29" x2="255.43" y2="943.18" class="up-wick"/>
<rect x="252.87" y="930.74" width="5.13" height="11.57" class="up-body"/>
<line x1="263.32" y1="922.59" x2="263.32" y2="934.60" class="up-wick"/>
<rect x="260.76" y="929.78" width="5.13" height="4.82" class="up-body"/>
<line x1="271.21" y1="922.59" x2="271.21" y2="931.18" class="up-wick"/>
<rect x="268.65" y="929.95" width="5.13" height="1.00" class="up-body"/>
<line x1="279.10" y1="917.51" x2="279.10" y2="930.48" class="up-wick"/>
<rect x="276.54" y="922.24" width="5.13" height="7.54" class="up-body"/>
<line x1="286.99" y1="922.24" x2="286.99" y2="938.71" class="down-wick"/>
<rect x="284.43" y="922.24" width="5.13" height="12.00" class="down-body"/>
<line x1="294.88" y1="934.77" x2="294.88" y2="947.04" class="down-wick"/>
<rect x="292.32" y="937.49" width="5.13" height="7.89" class="down-body"/>
<line x1="302.77" y1="946.69" x2="302.77" y2="955.71" class="up-wick"/>
<rect x="300.21" y="948.35" width="5.13" height="7.27" class="up-body"/>
<line x1="310.66" y1="943.97" x2="310.66" y2="959.22" class="up-wick"/>
<rect x="308.10" y="943.97" width="5.13" height="14.55" class="up-body"/>
<line x1="318.55" y1="934.86" x2="318.55" y2="953.08" class="down-wick"/>
<rect x="315.99" y="934.86" width="5.13" height="15.77" class="down-body"/>
<line x1="326.45" y1="947.04" x2="326.45" y2="953.43" class="up-wick"/>
<rect x="323.88" y="949.05" width="5.13" height="4.38" class="up-body"/>
<line x1="334.34" y1="934.16" x2="334.34" y2="953.70" class="down-wick"/>
<rect x="331.77" y="939.77" width="5.13" height="10.95" class="down-body"/>
<line x1="342.23" y1="939.24" x2="342.23" y2="950.46" class="up-wick"/>
<rect x="339.66" y="939.77" width="5.13" height="9.64" class="up-body"/>
<line x1="350.12" y1="937.14" x2="350.12" y2="950.02" class="up-wick"/>
<rect x="347.55" y="941.34" width="5.13" height="2.72" class="up-body"/>
<line x1="358.01" y1="941.34" x2="358.01" y2="947.39" class="down-wick"/>
<rect x="355.44" y="941.61" width="5.13" height="2.02" class="down-body"/>
<line x1="365.90" y1="938.80" x2="365.90" y2="943.71" class="down-wick"/>
<rect x="363.33" y="940.38" width="5.13" height="1.84" class="down-body"/>
<line x1="373.79" y1="926.45" x2="373.79" y2="945.37" class="down-wick"/>
<rect x="371.22" y="927.59" width="5.13" height="16.91" class="down-body"/>
<line x1="381.68" y1="946.86" x2="381.68" y2="955.10" class="up-wick"/>
<rect x="379.12" y="950.19" width="5.13" height="1.66" class="up-body"/>
<line x1="389.57" y1="956.94" x2="389.57" y2="967.98" class="down-wick"/>
<rect x="387.01" y="964.47" width="5.13" height="1.00" class="down-body"/>
<line x1="397.46" y1="952.82" x2="397.46" y2="971.48" class="down-wick"/>
<rect x="394.90" y="954.92" width="5.13" height="16.12" class="down-body"/>
<line x1="405.35" y1="966.31" x2="405.35" y2="974.55" class="down-wick"/>
<rect x="402.79" y="968.86" width="5.13" height="1.66" class="down-body"/>
<line x1="413.24" y1="969.21" x2="413.24" y2="984.19" class="up-wick"/>
<rect x="410.68" y="973.68" width="5.13" height="10.43" class="up-body"/>
<line x1="421.13" y1="958.69" x2="421.13" y2="978.32" class="down-wick"/>
<rect x="418.57" y="962.20" width="5.13" height="12.00" class="down-body"/>
<line x1="429.02" y1="961.06" x2="429.02" y2="968.42" class="up-wick"/>
<rect x="426.46" y="967.10" width="5.13" height="1.14" class="up-body"/>
<line x1="436.91" y1="982.61" x2="436.91" y2="998.91" class="down-wick"/>
<rect x="434.35" y="987.52" width="5.13" height="2.89" class="down-body"/>
<line x1="444.80" y1="986.99" x2="444.80" y2="1002.68" class="up-wick"/>
<rect x="442.24" y="988.57" width="5.13" height="14.11" class="up-body"/>
<line x1="452.70" y1="972.27" x2="452.70" y2="997.07" class="up-wick"/>
<rect x="450.13" y="978.58" width="5.13" height="17.00" class="up-body"/>
<line x1="460.59" y1="938.54" x2="460.59" y2="975.16" class="up-wick"/>
<rect x="458.02" y="946.69" width="5.13" height="25.85" class="up-body"/>
<line x1="468.48" y1="929.43" x2="468.48" y2="963.77" class="up-wick"/>
<rect x="465.91" y="929.78" width="5.13" height="34.00" class="up-body"/>
<line x1="476.37" y1="928.90" x2="476.37" y2="940.64" class="down-wick"/>
<rect x="473.80" y="931.00" width="5.13" height="3.24" class="down-body"/>
<line x1="484.26" y1="913.57" x2="484.26" y2="942.31" class="up-wick"/>
<rect x="481.69" y="915.76" width="5.13" height="22.61" class="up-body"/>
<line x1="492.15" y1="902.88" x2="492.15" y2="917.07" class="up-wick"/>
<rect x="489.58" y="903.84" width="5.13" height="7.10" class="up-body"/>
<line x1="500.04" y1="865.02" x2="500.04" y2="889.38" class="up-wick"/>
<rect x="497.47" y="872.56" width="5.13" height="8.59" class="up-body"/>
<line x1="507.93" y1="859.24" x2="507.93" y2="870.02" class="up-wick"/>
<rect x="505.37" y="865.81" width="5.13" height="2.80" class="up-body"/>
<line x1="515.82" y1="874.66" x2="515.82" y2="885.62" class="down-wick"/>
<rect x="513.26" y="877.73" width="5.13" height="2.89" class="down-body"/>
<line x1="523.71" y1="890.61" x2="523.71" y2="913.22" class="down-wick"/>
<rect x="521.15" y="891.57" width="5.13" height="16.82" class="down-body"/>
<line x1="531.60" y1="895.95" x2="531.60" y2="904.45" class="up-wick"/>
<rect x="529.04" y="899.63" width="5.13" height="2.89" class="up-body"/>
<line x1="539.49" y1="887.98" x2="539.49" y2="907.96" class="up-wick"/>
<rect x="536.93" y="890.87" width="5.13" height="16.47" class="up-body"/>
<line x1="547.38" y1="873.96" x2="547.38" y2="885.88" class="up-wick"/>
<rect x="544.82" y="883.16" width="5.13" height="2.19" class="up-body"/>
<line x1="555.27" y1="892.89" x2="555.27" y2="899.81" class="down-wick"/>
<rect x="552.71" y="892.89" width="5.13" height="3.42" class="down-body"/>
<line x1="563.16" y1="888.16" x2="563.16" y2="899.11" class="up-wick"/>
<rect x="560.60" y="894.03" width="5.13" height="1.00" class="up-body"/>
<line x1="571.05" y1="883.34" x2="571.05" y2="894.38" class="down-wick"/>
<rect x="568.49" y="885.44" width="5.13" height="4.73" class="down-body"/>
<line x1="578.95" y1="887.54" x2="578.95" y2="895.69" class="down-wick"/>
<rect x="576.38" y="888.77" width="5.13" height="6.92" class="down-body"/>
<line x1="586.84" y1="882.72" x2="586.84" y2="896.04" class="up-wick"/>
<rect x="584.27" y="888.42" width="5.13" height="7.62" class="up-body"/>
<line x1="594.73" y1="880.18" x2="594.73" y2="890.52" class="up-wick"/>
<rect x="592.16" y="880.18" width="5.13" height="4.29" class="up-body"/>
<line x1="602.62" y1="889.03" x2="602.62" y2="894.29" class="down-wick"/>
<rect x="600.05" y="890.52" width="5.13" height="3.33" class="down-body"/>
<line x1="610.51" y1="893.59" x2="610.51" y2="904.63" class="down-wick"/>
<rect x="607.94" y="897.36" width="5.13" height="7.27" class="down-body"/>
<line x1="618.40" y1="896.39" x2="618.40" y2="902.61" class="up-wick"/>
<rect x="615.83" y="897.97" width="5.13" height="3.42" class="up-body"/>
<line x1="626.29" y1="909.54" x2="626.29" y2="918.91" class="down-wick"/>
<rect x="623.72" y="909.71" width="5.13" height="9.20" class="down-body"/>
<line x1="634.18" y1="899.99" x2="634.18" y2="906.82" class="up-wick"/>
<rect x="631.62" y="901.04" width="5.13" height="3.59" class="up-body"/>
<line x1="642.07" y1="893.68" x2="642.07" y2="903.67" class="up-wick"/>
<rect x="639.51" y="896.13" width="5.13" height="1.00" class="up-body"/>
<line x1="649.96" y1="890.43" x2="649.96" y2="896.57" class="down-wick"/>
<rect x="647.40" y="890.61" width="5.13" height="5.26" class="down-body"/>
<line x1="657.85" y1="895.69" x2="657.85" y2="906.47" class="up-wick"/>
<rect x="655.29" y="898.41" width="5.13" height="1.40" class="up-body"/>
<line x1="665.74" y1="898.67" x2="665.74" y2="904.54" class="down-wick"/>
<rect x="663.18" y="900.86" width="5.13" height="1.66" class="down-body"/>
<line x1="673.63" y1="891.75" x2="673.63" y2="904.89" class="up-wick"/>
<rect x="671.07" y="892.71" width="5.13" height="8.24" class="up-body"/>
<line x1="681.52" y1="890.79" x2="681.52" y2="899.37" class="down-wick"/>
<rect x="678.96" y="895.52" width="5.13" height="2.45" class="down-body"/>
<line x1="689.41" y1="882.64" x2="689.41" y2="893.15" class="up-wick"/>
<rect x="686.85" y="885.79" width="5.13" height="6.48" class="up-body"/>
<line x1="697.30" y1="875.19" x2="697.30" y2="886.84" class="up-wick"/>
<rect x="694.74" y="877.47" width="5.13" height="9.38" class="up-body"/>
<line x1="705.20" y1="876.59" x2="705.20" y2="881.50" class="down-wick"/>
<rect x="702.63" y="876.77" width="5.13" height="2.80" class="down-body"/>
<line x1="713.09" y1="865.29" x2="713.09" y2="875.63" class="up-wick"/>
<rect x="710.52" y="873.79" width="5.13" height="1.75" class="up-body"/>
<line x1="720.98" y1="875.01" x2="720.98" y2="882.72" class="up-wick"/>
<rect x="718.41" y="877.38" width="5.13" height="3.59" class="up-body"/>
<line x1="728.87" y1="880.45" x2="728.87" y2="885.44" class="up-wick"/>
<rect x="726.30" y="882.11" width="5.13" height="1.00" class="up-body"/>
<line x1="736.76" y1="876.59" x2="736.76" y2="881.32" class="up-wick"/>
<rect x="734.19" y="877.90" width="5.13" height="1.58" class="up-body"/>
<line x1="744.65" y1="876.15" x2="744.65" y2="886.05" class="up-wick"/>
<rect x="742.08" y="881.50" width="5.13" height="2.72" class="up-body"/>
<line x1="752.54" y1="884.74" x2="752.54" y2="888.59" class="up-wick"/>
<rect x="749.97" y="885.79" width="5.13" height="1.00" class="up-body"/>
<line x1="760.43" y1="879.66" x2="760.43" y2="885.53" class="down-wick"/>
<rect x="757.87" y="882.99" width="5.13" height="1.49" class="down-body"/>
<line x1="768.32" y1="873.44" x2="768.32" y2="879.83" class="up-wick"/>
<rect x="765.76" y="875.19" width="5.13" height="1.00" class="up-body"/>
<line x1="776.21" y1="868.70" x2="776.21" y2="879.83" class="down-wick"/>
<rect x="773.65" y="868.70" width="5.13" height="8.85" class="down-body"/>
<line x1="784.10" y1="886.40" x2="784.10" y2="898.32" class="down-wick"/>
<rect x="781.54" y="888.51" width="5.13" height="6.66" class="down-body"/>
<line x1="791.99" y1="881.41" x2="791.99" y2="888.86" class="up-wick"/>
<rect x="789.43" y="884.65" width="5.13" height="4.21" class="up-body"/>
<line x1="799.88" y1="876.94" x2="799.88" y2="887.02" class="up-wick"/>
<rect x="797.32" y="880.88" width="5.13" height="5.26" class="up-body"/>
<line x1="807.77" y1="870.98" x2="807.77" y2="875.98" class="down-wick"/>
<rect x="805.21" y="871.68" width="5.13" height="1.58" class="down-body"/>
<line x1="815.66" y1="872.82" x2="815.66" y2="877.38" class="down-wick"/>
<rect x="813.10" y="874.05" width="5.13" height="3.07" class="down-body"/>
<line x1="823.55" y1="880.01" x2="823.55" y2="892.71" class="down-wick"/>
<rect x="820.99" y="881.15" width="5.13" height="9.38" class="down-body"/>
<line x1="831.45" y1="890.96" x2="831.45" y2="901.48" class="down-wick"/>
<rect x="828.88" y="892.19" width="5.13" height="8.41" class="down-body"/>
<line x1="839.34" y1="901.21" x2="839.34" y2="907.17" class="down-wick"/>
<rect x="836.77" y="902.70" width="5.13" height="4.47" class="down-body"/>
<line x1="847.23" y1="911.99" x2="847.23" y2="918.74" class="up-wick"/>
<rect x="844.66" y="913.74" width="5.13" height="4.82" class="up-body"/>
<line x1="855.12" y1="902.61" x2="855.12" y2="914.09" class="down-wick"/>
<rect x="852.55" y="907.17" width="5.13" height="5.87" class="down-body"/>
<line x1="863.01" y1="911.11" x2="863.01" y2="921.37" class="up-wick"/>
<rect x="860.44" y="911.46" width="5.13" height="9.90" class="up-body"/>
<line x1="870.90" y1="913.04" x2="870.90" y2="918.56" class="up-wick"/>
<rect x="868.33" y="913.48" width="5.13" height="3.59" class="up-body"/>
<line x1="878.79" y1="913.30" x2="878.79" y2="920.93" class="down-wick"/>
<rect x="876.22" y="917.25" width="5.13" height="1.00" class="down-body"/>
<line x1="886.68" y1="910.94" x2="886.68" y2="917.51" class="up-wick"/>
<rect x="884.12" y="911.55" width="5.13" height="5.78" class="up-body"/>
<line x1="894.57" y1="904.72" x2="894.57" y2="913.57" class="up-wick"/>
<rect x="892.01" y="907.35" width="5.13" height="5.08" class="up-body"/>
<line x1="902.46" y1="906.73" x2="902.46" y2="915.32" class="up-wick"/>
<rect x="899.90" y="906.73" width="5.13" height="4.29" class="up-body"/>
<line x1="910.35" y1="901.65" x2="910.35" y2="907.61" class="down-wick"/>
<rect x="907.79" y="903.84" width="5.13" height="2.72" class="down-body"/>
<line x1="918.24" y1="896.57" x2="918.24" y2="911.46" class="up-wick"/>
<rect x="915.68" y="898.15" width="5.13" height="9.90" class="up-body"/>
<line x1="926.13" y1="896.57" x2="926.13" y2="902.61" class="up-wick"/>
<rect x="923.57" y="899.63" width="5.13" height="1.00" class="up-body"/>
<line x1="934.02" y1="893.59" x2="934.02" y2="898.41" class="up-wick"/>
<rect x="931.46" y="896.48" width="5.13" height="1.93" class="up-body"/>
<line x1="941.91" y1="890.17" x2="941.91" y2="900.95" class="down-wick"/>
<rect x="939.35" y="891.40" width="5.13" height="6.83" class="down-body"/>
<line x1="949.80" y1="893.68" x2="949.80" y2="903.58" class="up-wick"/>
<rect x="947.24" y="896.57" width="5.13" height="6.92" class="up-body"/>
<line x1="957.70" y1="892.27" x2="957.70" y2="895.25" class="down-wick"/>
<rect x="955.13" y="892.89" width="5.13" height="1.00" class="down-body"/>
<line x1="965.59" y1="906.21" x2="965.59" y2="915.32" class="down-wick"/>
<rect x="963.02" y="906.21" width="5.13" height="5.87" class="down-body"/>
<line x1="973.48" y1="911.29" x2="973.48" y2="927.41" class="down-wick"/>
<rect x="970.91" y="912.08" width="5.13" height="13.23" class="down-body"/>
<line x1="981.37" y1="921.01" x2="981.37" y2="937.14" class="down-wick"/>
<rect x="978.80" y="923.03" width="5.13" height="5.87" class="down-body"/>
<line x1="989.26" y1="936.44" x2="989.26" y2="942.39" class="down-wick"/>
<rect x="986.69" y="936.79" width="5.13" height="2.10" class="down-body"/>
<line x1="997.15" y1="932.84" x2="997.15" y2="941.08" class="down-wick"/>
<rect x="994.58" y="932.84" width="5.13" height="1.75" class="down-body"/>
<line x1="1005.04" y1="922.50" x2="1005.04" y2="935.30" class="down-wick"/>
<rect x="1002.47" y="924.08" width="5.13" height="8.41" class="down-body"/>
<line x1="1012.93" y1="922.33" x2="1012.93" y2="929.60" class="up-wick"/>
<rect x="1010.37" y="922.33" width="5.13" height="2.10" class="up-body"/>
<line x1="1020.82" y1="899.72" x2="1020.82" y2="919.00" class="up-wick"/>
<rect x="1018.26" y="908.92" width="5.13" height="4.56" class="up-body"/>
<line x1="1028.71" y1="914.71" x2="1028.71" y2="926.80" class="up-wick"/>
<rect x="1026.15" y="914.79" width="5.13" height="9.46" class="up-body"/>
<line x1="1036.60" y1="902.09" x2="1036.60" y2="912.34" class="up-wick"/>
<rect x="1034.04" y="904.19" width="5.13" height="7.10" class="up-body"/>
<line x1="1044.49" y1="908.40" x2="1044.49" y2="918.21" class="down-wick"/>
<rect x="1041.93" y="909.10" width="5.13" height="2.89" class="down-body"/>
<line x1="1052.38" y1="912.69" x2="1052.38" y2="920.75" class="down-wick"/>
<rect x="1049.82" y="916.46" width="5.13" height="1.40" class="down-body"/>
<line x1="1060.27" y1="911.90" x2="1060.27" y2="918.04" class="down-wick"/>
<rect x="1057.71" y="913.92" width="5.13" height="3.15" class="down-body"/>
<line x1="1068.16" y1="913.83" x2="1068.16" y2="920.66" class="up-wick"/>
<rect x="1065.60" y="916.90" width="5.13" height="3.77" class="up-body"/>
<line x1="1076.05" y1="902.26" x2="1076.05" y2="914.09" class="up-wick"/>
<rect x="1073.49" y="905.68" width="5.13" height="6.92" class="up-body"/>
<line x1="70" y1="913.22" x2="1080" y2="913.22" class="number-line"/>
<text x="1076" y="909.22" text-anchor="end" class="level-label">round 4680.00</text>
<line x1="70" y1="913.22" x2="1080" y2="913.22" class="entry-line"/>
<text x="1076" y="909.22" text-anchor="end" class="level-label">entry level 4680.00</text>
<text x="70" y="1056" class="axis-label">2026-04-27 18:45:00+00:00 to 2026-04-27 22:59:00+00:00</text>
<text x="1080" y="1056" text-anchor="end" class="axis-label">4665.76 - 4687.67</text>
</svg>