<svg xmlns="http://www.w3.org/2000/svg" width="1120" height="1054" viewBox="0 0 1120 1054">
<style>
text{font-family:Arial,Helvetica,sans-serif}.title{font-size:21px;font-weight:700;fill:#1f2937}.subtitle{font-size:12px;fill:#4b5563}.panel-title{font-size:15px;font-weight:700;fill:#111827}.muted{font-size:13px;fill:#6b7280}.plot-bg{fill:#f8fafc;stroke:#cbd5e1;stroke-width:1}.up-body{fill:#15803d;stroke:#14532d;stroke-width:.8}.down-body{fill:#b91c1c;stroke:#7f1d1d;stroke-width:.8}.up-wick{stroke:#14532d;stroke-width:1}.down-wick{stroke:#7f1d1d;stroke-width:1}.sweep-line{stroke:#7c3aed;stroke-width:1.6;stroke-dasharray:6 4}.number-line{stroke:#0f766e;stroke-width:1.4;stroke-dasharray:3 4}.entry-line{stroke:#2563eb;stroke-width:1.4}.sl-line{stroke:#dc2626;stroke-width:1.4}.tp-line{stroke:#16a34a;stroke-width:1.4}.level-label,.axis-label{font-size:11px;fill:#374151}
</style>
<text x="28" y="28" class="title">Adelin v2 visual review sample sample_281</text>
<text x="28" y="48" class="subtitle">Candidate windows are for visual labeling only and are not trade signals.</text>
<text x="560" y="48" class="subtitle" text-anchor="middle">LARGE_LOWER_WICK_REVERSAL_VISUAL_CANDIDATE | PRE_ANCHOR_SWEEP_EXTREME_CANDIDATE</text>
<text x="70" y="82" class="panel-title">H1 liquidity context</text>
<rect x="70" y="96" width="1010" height="192" class="plot-bg"/>
<line x1="79.71" y1="192.07" x2="79.71" y2="265.69" class="up-wick"/>
<rect x="75.71" y="198.98" width="8.00" height="59.40" class="up-body"/>
<line x1="99.13" y1="197.58" x2="99.13" y2="237.06" class="down-wick"/>
<rect x="95.13" y="198.98" width="8.00" height="22.06" class="down-body"/>
<line x1="118.56" y1="196.42" x2="118.56" y2="225.88" class="up-wick"/>
<rect x="114.56" y="207.31" width="8.00" height="13.74" class="up-body"/>
<line x1="137.98" y1="186.83" x2="137.98" y2="208.10" class="up-wick"/>
<rect x="133.98" y="190.01" width="8.00" height="17.33" class="up-body"/>
<line x1="157.40" y1="187.70" x2="157.40" y2="213.30" class="down-wick"/>
<rect x="153.40" y="189.98" width="8.00" height="7.51" class="down-body"/>
<line x1="176.83" y1="195.28" x2="176.83" y2="209.44" class="down-wick"/>
<rect x="172.83" y="197.49" width="8.00" height="6.34" class="down-body"/>
<line x1="196.25" y1="202.77" x2="196.25" y2="212.97" class="down-wick"/>
<rect x="192.25" y="203.81" width="8.00" height="2.64" class="down-body"/>
<line x1="215.67" y1="202.89" x2="215.67" y2="220.58" class="down-wick"/>
<rect x="211.67" y="206.45" width="8.00" height="13.34" class="down-body"/>
<line x1="235.10" y1="210.80" x2="235.10" y2="241.95" class="down-wick"/>
<rect x="231.10" y="219.79" width="8.00" height="9.63" class="down-body"/>
<line x1="254.52" y1="223.58" x2="254.52" y2="244.78" class="up-wick"/>
<rect x="250.52" y="225.57" width="8.00" height="3.85" class="up-body"/>
<line x1="273.94" y1="215.17" x2="273.94" y2="226.86" class="up-wick"/>
<rect x="269.94" y="215.81" width="8.00" height="9.80" class="up-body"/>
<line x1="293.37" y1="200.83" x2="293.37" y2="220.55" class="up-wick"/>
<rect x="289.37" y="201.59" width="8.00" height="14.20" class="up-body"/>
<line x1="312.79" y1="200.99" x2="312.79" y2="219.04" class="down-wick"/>
<rect x="308.79" y="201.59" width="8.00" height="13.97" class="down-body"/>
<line x1="332.21" y1="198.84" x2="332.21" y2="220.09" class="up-wick"/>
<rect x="328.21" y="200.30" width="8.00" height="15.26" class="up-body"/>
<line x1="351.63" y1="199.00" x2="351.63" y2="221.96" class="down-wick"/>
<rect x="347.63" y="200.30" width="8.00" height="18.89" class="down-body"/>
<line x1="371.06" y1="161.64" x2="371.06" y2="224.46" class="up-wick"/>
<rect x="367.06" y="170.02" width="8.00" height="49.17" class="up-body"/>
<line x1="390.48" y1="156.82" x2="390.48" y2="182.58" class="up-wick"/>
<rect x="386.48" y="166.18" width="8.00" height="3.84" class="up-body"/>
<line x1="409.90" y1="141.86" x2="409.90" y2="187.73" class="up-wick"/>
<rect x="405.90" y="151.44" width="8.00" height="14.83" class="up-body"/>
<line x1="429.33" y1="147.69" x2="429.33" y2="171.74" class="down-wick"/>
<rect x="425.33" y="151.44" width="8.00" height="2.29" class="down-body"/>
<line x1="448.75" y1="145.27" x2="448.75" y2="160.96" class="up-wick"/>
<rect x="444.75" y="151.96" width="8.00" height="1.77" class="up-body"/>
<line x1="468.17" y1="142.64" x2="468.17" y2="155.10" class="up-wick"/>
<rect x="464.17" y="145.47" width="8.00" height="6.50" class="up-body"/>
<line x1="487.60" y1="121.79" x2="487.60" y2="146.29" class="up-wick"/>
<rect x="483.60" y="123.49" width="8.00" height="22.02" class="up-body"/>
<line x1="507.02" y1="122.02" x2="507.02" y2="133.87" class="down-wick"/>
<rect x="503.02" y="123.53" width="8.00" height="8.86" class="down-body"/>
<line x1="526.44" y1="109.24" x2="526.44" y2="138.43" class="up-wick"/>
<rect x="522.44" y="124.10" width="8.00" height="8.29" class="up-body"/>
<line x1="545.87" y1="121.53" x2="545.87" y2="142.84" class="down-wick"/>
<rect x="541.87" y="124.17" width="8.00" height="12.59" class="down-body"/>
<line x1="565.29" y1="136.53" x2="565.29" y2="220.40" class="down-wick"/>
<rect x="561.29" y="136.78" width="8.00" height="49.39" class="down-body"/>
<line x1="584.71" y1="171.91" x2="584.71" y2="198.72" class="up-wick"/>
<rect x="580.71" y="172.94" width="8.00" height="13.23" class="up-body"/>
<line x1="604.13" y1="170.76" x2="604.13" y2="192.85" class="down-wick"/>
<rect x="600.13" y="172.94" width="8.00" height="19.00" class="down-body"/>
<line x1="623.56" y1="188.62" x2="623.56" y2="203.81" class="down-wick"/>
<rect x="619.56" y="191.94" width="8.00" height="3.99" class="down-body"/>
<line x1="642.98" y1="177.24" x2="642.98" y2="200.42" class="up-wick"/>
<rect x="638.98" y="180.57" width="8.00" height="15.36" class="up-body"/>
<line x1="662.40" y1="178.24" x2="662.40" y2="208.52" class="down-wick"/>
<rect x="658.40" y="180.57" width="8.00" height="9.70" class="down-body"/>
<line x1="681.83" y1="179.12" x2="681.83" y2="200.19" class="up-wick"/>
<rect x="677.83" y="184.08" width="8.00" height="6.17" class="up-body"/>
<line x1="701.25" y1="181.34" x2="701.25" y2="199.34" class="down-wick"/>
<rect x="697.25" y="184.08" width="8.00" height="6.32" class="down-body"/>
<line x1="720.67" y1="182.83" x2="720.67" y2="197.83" class="down-wick"/>
<rect x="716.67" y="190.39" width="8.00" height="2.07" class="down-body"/>
<line x1="740.10" y1="181.87" x2="740.10" y2="201.25" class="up-wick"/>
<rect x="736.10" y="191.03" width="8.00" height="1.44" class="up-body"/>
<line x1="759.52" y1="184.92" x2="759.52" y2="193.04" class="down-wick"/>
<rect x="755.52" y="191.03" width="8.00" height="1.00" class="down-body"/>
<line x1="778.94" y1="190.27" x2="778.94" y2="220.50" class="down-wick"/>
<rect x="774.94" y="191.09" width="8.00" height="23.64" class="down-body"/>
<line x1="798.37" y1="203.26" x2="798.37" y2="256.85" class="down-wick"/>
<rect x="794.37" y="214.76" width="8.00" height="37.79" class="down-body"/>
<line x1="817.79" y1="226.69" x2="817.79" y2="274.76" class="up-wick"/>
<rect x="813.79" y="238.16" width="8.00" height="14.44" class="up-body"/>
<line x1="837.21" y1="209.63" x2="837.21" y2="249.34" class="up-wick"/>
<rect x="833.21" y="214.93" width="8.00" height="23.22" class="up-body"/>
<line x1="856.63" y1="212.85" x2="856.63" y2="235.37" class="down-wick"/>
<rect x="852.63" y="214.93" width="8.00" height="9.09" class="down-body"/>
<line x1="876.06" y1="200.66" x2="876.06" y2="224.18" class="up-wick"/>
<rect x="872.06" y="200.66" width="8.00" height="23.37" class="up-body"/>
<line x1="895.48" y1="193.85" x2="895.48" y2="211.41" class="down-wick"/>
<rect x="891.48" y="200.66" width="8.00" height="3.84" class="down-body"/>
<line x1="914.90" y1="204.14" x2="914.90" y2="219.13" class="down-wick"/>
<rect x="910.90" y="204.50" width="8.00" height="6.55" class="down-body"/>
<line x1="934.33" y1="190.56" x2="934.33" y2="218.88" class="up-wick"/>
<rect x="930.33" y="200.36" width="8.00" height="10.75" class="up-body"/>
<line x1="953.75" y1="198.80" x2="953.75" y2="225.46" class="down-wick"/>
<rect x="949.75" y="200.36" width="8.00" height="22.62" class="down-body"/>
<line x1="973.17" y1="212.86" x2="973.17" y2="247.21" class="up-wick"/>
<rect x="969.17" y="218.95" width="8.00" height="4.03" class="up-body"/>
<line x1="992.60" y1="208.57" x2="992.60" y2="229.19" class="up-wick"/>
<rect x="988.60" y="212.87" width="8.00" height="6.08" class="up-body"/>
<line x1="1012.02" y1="172.78" x2="1012.02" y2="221.24" class="up-wick"/>
<rect x="1008.02" y="186.64" width="8.00" height="26.23" class="up-body"/>
<line x1="1031.44" y1="168.58" x2="1031.44" y2="197.65" class="up-wick"/>
<rect x="1027.44" y="182.63" width="8.00" height="4.01" class="up-body"/>
<line x1="1050.87" y1="172.69" x2="1050.87" y2="184.98" class="up-wick"/>
<rect x="1046.87" y="181.09" width="8.00" height="1.54" class="up-body"/>
<line x1="1070.29" y1="177.96" x2="1070.29" y2="191.23" class="up-wick"/>
<rect x="1066.29" y="180.59" width="8.00" height="1.00" class="up-body"/>
<line x1="70" y1="189.80" x2="1080" y2="189.80" class="sweep-line"/>
<text x="1076" y="185.80" text-anchor="end" class="level-label">sweep 5174.02</text>
<line x1="70" y1="190.17" x2="1080" y2="190.17" class="entry-line"/>
<text x="1076" y="186.17" text-anchor="end" class="level-label">entry level 5173.67</text>
<text x="70" y="306" class="axis-label">2026-02-23 01:00:00+00:00 to 2026-02-25 06:00:00+00:00</text>
<text x="1080" y="306" text-anchor="end" class="axis-label">5081.69 - 5262.21</text>
<text x="70" y="332" class="panel-title">M15 liquidity / reaction context</text>
<rect x="70" y="346" width="1010" height="192" class="plot-bg"/>
<line x1="77.32" y1="430.87" x2="77.32" y2="476.12" class="up-wick"/>
<rect x="73.32" y="433.98" width="8.00" height="10.18" class="up-body"/>
<line x1="91.96" y1="407.81" x2="91.96" y2="435.72" class="up-wick"/>
<rect x="87.96" y="415.01" width="8.00" height="18.91" class="up-body"/>
<line x1="106.59" y1="413.12" x2="106.59" y2="427.47" class="down-wick"/>
<rect x="102.59" y="414.86" width="8.00" height="7.74" class="down-body"/>
<line x1="121.23" y1="409.68" x2="121.23" y2="427.69" class="up-wick"/>
<rect x="117.23" y="422.08" width="8.00" height="1.00" class="up-body"/>
<line x1="135.87" y1="416.49" x2="135.87" y2="438.57" class="down-wick"/>
<rect x="131.87" y="422.08" width="8.00" height="9.96" class="down-body"/>
<line x1="150.51" y1="418.08" x2="150.51" y2="433.84" class="up-wick"/>
<rect x="146.51" y="421.78" width="8.00" height="10.25" class="up-body"/>
<line x1="165.14" y1="420.36" x2="165.14" y2="452.30" class="down-wick"/>
<rect x="161.14" y="421.78" width="8.00" height="16.74" class="down-body"/>
<line x1="179.78" y1="425.19" x2="179.78" y2="443.46" class="up-wick"/>
<rect x="175.78" y="425.49" width="8.00" height="13.03" class="up-body"/>
<line x1="194.42" y1="412.88" x2="194.42" y2="426.71" class="up-wick"/>
<rect x="190.42" y="418.09" width="8.00" height="7.38" class="up-body"/>
<line x1="209.06" y1="416.92" x2="209.06" y2="436.26" class="down-wick"/>
<rect x="205.06" y="418.09" width="8.00" height="10.17" class="down-body"/>
<line x1="223.70" y1="416.75" x2="223.70" y2="429.23" class="up-wick"/>
<rect x="219.70" y="427.28" width="8.00" height="1.00" class="up-body"/>
<line x1="238.33" y1="418.79" x2="238.33" y2="428.61" class="up-wick"/>
<rect x="234.33" y="422.84" width="8.00" height="4.39" class="up-body"/>
<line x1="252.97" y1="418.76" x2="252.97" y2="427.53" class="up-wick"/>
<rect x="248.97" y="419.99" width="8.00" height="2.87" class="up-body"/>
<line x1="267.61" y1="414.21" x2="267.61" y2="426.80" class="down-wick"/>
<rect x="263.61" y="420.03" width="8.00" height="3.10" class="down-body"/>
<line x1="282.25" y1="410.21" x2="282.25" y2="425.17" class="up-wick"/>
<rect x="278.25" y="411.06" width="8.00" height="12.07" class="up-body"/>
<line x1="296.88" y1="408.97" x2="296.88" y2="415.26" class="down-wick"/>
<rect x="292.88" y="411.06" width="8.00" height="2.12" class="down-body"/>
<line x1="311.52" y1="399.50" x2="311.52" y2="414.40" class="up-wick"/>
<rect x="307.52" y="401.23" width="8.00" height="12.02" class="up-body"/>
<line x1="326.16" y1="396.55" x2="326.16" y2="403.14" class="up-wick"/>
<rect x="322.16" y="398.14" width="8.00" height="3.09" class="up-body"/>
<line x1="340.80" y1="390.58" x2="340.80" y2="399.15" class="up-wick"/>
<rect x="336.80" y="393.94" width="8.00" height="4.20" class="up-body"/>
<line x1="355.43" y1="377.93" x2="355.43" y2="398.90" class="up-wick"/>
<rect x="351.43" y="380.46" width="8.00" height="13.51" class="up-body"/>
<line x1="370.07" y1="378.26" x2="370.07" y2="390.90" class="down-wick"/>
<rect x="366.07" y="380.51" width="8.00" height="7.98" class="down-body"/>
<line x1="384.71" y1="387.07" x2="384.71" y2="392.20" class="down-wick"/>
<rect x="380.71" y="388.49" width="8.00" height="2.15" class="down-body"/>
<line x1="399.35" y1="386.13" x2="399.35" y2="395.92" class="down-wick"/>
<rect x="395.35" y="390.74" width="8.00" height="2.04" class="down-body"/>
<line x1="413.99" y1="388.19" x2="413.99" y2="395.89" class="down-wick"/>
<rect x="409.99" y="392.83" width="8.00" height="1.00" class="down-body"/>
<line x1="428.62" y1="359.62" x2="428.62" y2="402.70" class="up-wick"/>
<rect x="424.62" y="367.54" width="8.00" height="26.16" class="up-body"/>
<line x1="443.26" y1="359.24" x2="443.26" y2="383.68" class="down-wick"/>
<rect x="439.26" y="367.54" width="8.00" height="12.73" class="down-body"/>
<line x1="457.90" y1="363.45" x2="457.90" y2="380.21" class="up-wick"/>
<rect x="453.90" y="370.68" width="8.00" height="9.53" class="up-body"/>
<line x1="472.54" y1="369.90" x2="472.54" y2="383.17" class="down-wick"/>
<rect x="468.54" y="370.68" width="8.00" height="10.69" class="down-body"/>
<line x1="487.17" y1="381.30" x2="487.17" y2="409.27" class="down-wick"/>
<rect x="483.17" y="381.48" width="8.00" height="9.09" class="down-body"/>
<line x1="501.81" y1="377.53" x2="501.81" y2="398.82" class="down-wick"/>
<rect x="497.81" y="390.57" width="8.00" height="4.99" class="down-body"/>
<line x1="516.45" y1="386.36" x2="516.45" y2="398.96" class="up-wick"/>
<rect x="512.45" y="389.92" width="8.00" height="5.64" class="up-body"/>
<line x1="531.09" y1="386.97" x2="531.09" y2="404.38" class="down-wick"/>
<rect x="527.09" y="389.92" width="8.00" height="10.31" class="down-body"/>
<line x1="545.72" y1="399.88" x2="545.72" y2="463.39" class="down-wick"/>
<rect x="541.72" y="400.24" width="8.00" height="60.53" class="down-body"/>
<line x1="560.36" y1="455.47" x2="560.36" y2="524.76" class="down-wick"/>
<rect x="556.36" y="460.78" width="8.00" height="32.09" class="down-body"/>
<line x1="575.00" y1="475.57" x2="575.00" y2="499.21" class="up-wick"/>
<rect x="571.00" y="478.94" width="8.00" height="13.92" class="up-body"/>
<line x1="589.64" y1="470.63" x2="589.64" y2="495.08" class="up-wick"/>
<rect x="585.64" y="473.79" width="8.00" height="5.15" class="up-body"/>
<line x1="604.28" y1="466.97" x2="604.28" y2="490.80" class="down-wick"/>
<rect x="600.28" y="473.79" width="8.00" height="7.68" class="down-body"/>
<line x1="618.91" y1="477.71" x2="618.91" y2="492.48" class="up-wick"/>
<rect x="614.91" y="480.35" width="8.00" height="1.14" class="up-body"/>
<line x1="633.55" y1="456.93" x2="633.55" y2="481.57" class="up-wick"/>
<rect x="629.55" y="463.99" width="8.00" height="16.36" class="up-body"/>
<line x1="648.19" y1="452.56" x2="648.19" y2="464.35" class="up-wick"/>
<rect x="644.19" y="454.09" width="8.00" height="9.90" class="up-body"/>
<line x1="662.83" y1="450.85" x2="662.83" y2="460.93" class="down-wick"/>
<rect x="658.83" y="454.09" width="8.00" height="1.33" class="down-body"/>
<line x1="677.46" y1="453.95" x2="677.46" y2="466.48" class="down-wick"/>
<rect x="673.46" y="455.44" width="8.00" height="10.12" class="down-body"/>
<line x1="692.10" y1="456.01" x2="692.10" y2="475.44" class="down-wick"/>
<rect x="688.10" y="465.56" width="8.00" height="5.07" class="down-body"/>
<line x1="706.74" y1="469.69" x2="706.74" y2="483.74" class="down-wick"/>
<rect x="702.74" y="470.63" width="8.00" height="11.75" class="down-body"/>
<line x1="721.38" y1="482.38" x2="721.38" y2="500.05" class="down-wick"/>
<rect x="717.38" y="482.38" width="8.00" height="5.83" class="down-body"/>
<line x1="736.01" y1="477.44" x2="736.01" y2="488.21" class="up-wick"/>
<rect x="732.01" y="482.35" width="8.00" height="5.86" class="up-body"/>
<line x1="750.65" y1="480.26" x2="750.65" y2="494.02" class="down-wick"/>
<rect x="746.65" y="482.35" width="8.00" height="11.61" class="down-body"/>
<line x1="765.29" y1="484.07" x2="765.29" y2="496.31" class="up-wick"/>
<rect x="761.29" y="488.32" width="8.00" height="5.64" class="up-body"/>
<line x1="779.93" y1="478.54" x2="779.93" y2="495.02" class="up-wick"/>
<rect x="775.93" y="482.22" width="8.00" height="6.10" class="up-body"/>
<line x1="794.57" y1="477.06" x2="794.57" y2="490.60" class="down-wick"/>
<rect x="790.57" y="482.22" width="8.00" height="7.32" class="down-body"/>
<line x1="809.20" y1="478.05" x2="809.20" y2="494.03" class="up-wick"/>
<rect x="805.20" y="480.98" width="8.00" height="8.60" class="up-body"/>
<line x1="823.84" y1="460.49" x2="823.84" y2="481.92" class="up-wick"/>
<rect x="819.84" y="465.45" width="8.00" height="15.54" class="up-body"/>
<line x1="838.48" y1="461.98" x2="838.48" y2="474.14" class="down-wick"/>
<rect x="834.48" y="465.45" width="8.00" height="1.00" class="down-body"/>
<line x1="853.12" y1="463.77" x2="853.12" y2="490.04" class="down-wick"/>
<rect x="849.12" y="465.40" width="8.00" height="21.90" class="down-body"/>
<line x1="867.75" y1="479.84" x2="867.75" y2="507.07" class="up-wick"/>
<rect x="863.75" y="487.00" width="8.00" height="1.00" class="up-body"/>
<line x1="882.39" y1="477.17" x2="882.39" y2="488.44" class="up-wick"/>
<rect x="878.39" y="479.89" width="8.00" height="7.11" class="up-body"/>
<line x1="897.03" y1="479.62" x2="897.03" y2="494.67" class="down-wick"/>
<rect x="893.03" y="479.86" width="8.00" height="3.44" class="down-body"/>
<line x1="911.67" y1="464.21" x2="911.67" y2="486.50" class="up-wick"/>
<rect x="907.67" y="464.21" width="8.00" height="19.08" class="up-body"/>
<line x1="926.30" y1="463.29" x2="926.30" y2="478.18" class="down-wick"/>
<rect x="922.30" y="464.23" width="8.00" height="5.88" class="down-body"/>
<line x1="940.94" y1="464.83" x2="940.94" y2="477.23" class="down-wick"/>
<rect x="936.94" y="470.10" width="8.00" height="1.00" class="down-body"/>
<line x1="955.58" y1="470.36" x2="955.58" y2="486.18" class="down-wick"/>
<rect x="951.58" y="470.67" width="8.00" height="13.08" class="down-body"/>
<line x1="970.22" y1="477.58" x2="970.22" y2="493.40" class="down-wick"/>
<rect x="966.22" y="483.76" width="8.00" height="1.00" class="down-body"/>
<line x1="984.86" y1="466.60" x2="984.86" y2="485.91" class="up-wick"/>
<rect x="980.86" y="478.05" width="8.00" height="6.68" class="up-body"/>
<line x1="999.49" y1="474.76" x2="999.49" y2="487.02" class="down-wick"/>
<rect x="995.49" y="478.02" width="8.00" height="2.06" class="down-body"/>
<line x1="1014.13" y1="468.82" x2="1014.13" y2="483.15" class="down-wick"/>
<rect x="1010.13" y="480.08" width="8.00" height="1.44" class="down-body"/>
<line x1="1028.77" y1="477.64" x2="1028.77" y2="488.89" class="down-wick"/>
<rect x="1024.77" y="481.62" width="8.00" height="6.08" class="down-body"/>
<line x1="1043.41" y1="479.76" x2="1043.41" y2="491.15" class="up-wick"/>
<rect x="1039.41" y="485.74" width="8.00" height="1.96" class="up-body"/>
<line x1="1058.04" y1="480.67" x2="1058.04" y2="489.77" class="up-wick"/>
<rect x="1054.04" y="483.17" width="8.00" height="2.57" class="up-body"/>
<line x1="1072.68" y1="475.93" x2="1072.68" y2="484.14" class="up-wick"/>
<rect x="1068.68" y="478.23" width="8.00" height="4.94" class="up-body"/>
<line x1="70" y1="479.19" x2="1080" y2="479.19" class="sweep-line"/>
<text x="1076" y="475.19" text-anchor="end" class="level-label">sweep 5174.02</text>
<line x1="70" y1="479.75" x2="1080" y2="479.75" class="entry-line"/>
<text x="1076" y="475.75" text-anchor="end" class="level-label">entry level 5173.67</text>
<text x="70" y="556" class="axis-label">2026-02-23 18:00:00+00:00 to 2026-02-24 12:00:00+00:00</text>
<text x="1080" y="556" text-anchor="end" class="axis-label">5136.89 - 5258.12</text>
<text x="70" y="582" class="panel-title">M5 reaction / execution context</text>
<rect x="70" y="596" width="1010" height="192" class="plot-bg"/>
<line x1="79.18" y1="637.59" x2="79.18" y2="699.69" class="up-wick"/>
<rect x="75.18" y="645.93" width="8.00" height="50.17" class="up-body"/>
<line x1="97.55" y1="627.47" x2="97.55" y2="660.48" class="up-wick"/>
<rect x="93.55" y="627.52" width="8.00" height="18.09" class="up-body"/>
<line x1="115.91" y1="627.15" x2="115.91" y2="650.55" class="down-wick"/>
<rect x="111.91" y="627.52" width="8.00" height="20.42" class="down-body"/>
<line x1="134.27" y1="631.99" x2="134.27" y2="649.01" class="up-wick"/>
<rect x="130.27" y="636.42" width="8.00" height="11.52" class="up-body"/>
<line x1="152.64" y1="615.30" x2="152.64" y2="643.70" class="down-wick"/>
<rect x="148.64" y="636.42" width="8.00" height="5.55" class="down-body"/>
<line x1="171.00" y1="614.28" x2="171.00" y2="646.07" class="up-wick"/>
<rect x="167.00" y="618.80" width="8.00" height="23.17" class="up-body"/>
<line x1="189.36" y1="616.56" x2="189.36" y2="634.42" class="down-wick"/>
<rect x="185.36" y="618.80" width="8.00" height="14.08" class="down-body"/>
<line x1="207.73" y1="609.24" x2="207.73" y2="637.78" class="up-wick"/>
<rect x="203.73" y="628.08" width="8.00" height="4.71" class="up-body"/>
<line x1="226.09" y1="621.64" x2="226.09" y2="638.94" class="up-wick"/>
<rect x="222.09" y="622.72" width="8.00" height="5.32" class="up-body"/>
<line x1="244.45" y1="618.38" x2="244.45" y2="635.02" class="down-wick"/>
<rect x="240.45" y="622.76" width="8.00" height="8.30" class="down-body"/>
<line x1="262.82" y1="622.30" x2="262.82" y2="651.44" class="down-wick"/>
<rect x="258.82" y="631.06" width="8.00" height="1.07" class="down-body"/>
<line x1="281.18" y1="632.13" x2="281.18" y2="655.26" class="down-wick"/>
<rect x="277.18" y="632.13" width="8.00" height="20.42" class="down-body"/>
<line x1="299.55" y1="636.80" x2="299.55" y2="655.40" class="up-wick"/>
<rect x="295.55" y="637.36" width="8.00" height="15.20" class="up-body"/>
<line x1="317.91" y1="624.44" x2="317.91" y2="644.82" class="down-wick"/>
<rect x="313.91" y="637.36" width="8.00" height="6.15" class="down-body"/>
<line x1="336.27" y1="637.73" x2="336.27" y2="681.65" class="down-wick"/>
<rect x="332.27" y="643.51" width="8.00" height="23.97" class="down-body"/>
<line x1="354.64" y1="664.72" x2="354.64" y2="691.02" class="down-wick"/>
<rect x="350.64" y="667.48" width="8.00" height="16.41" class="down-body"/>
<line x1="373.00" y1="675.73" x2="373.00" y2="694.33" class="up-wick"/>
<rect x="369.00" y="683.65" width="8.00" height="1.00" class="up-body"/>
<line x1="391.36" y1="679.78" x2="391.36" y2="706.08" class="down-wick"/>
<rect x="387.36" y="683.65" width="8.00" height="18.42" class="down-body"/>
<line x1="409.73" y1="702.07" x2="409.73" y2="754.10" class="down-wick"/>
<rect x="405.73" y="702.07" width="8.00" height="37.02" class="down-body"/>
<line x1="428.09" y1="704.31" x2="428.09" y2="749.91" class="up-wick"/>
<rect x="424.09" y="716.48" width="8.00" height="22.61" class="up-body"/>
<line x1="446.45" y1="709.81" x2="446.45" y2="725.71" class="down-wick"/>
<rect x="442.45" y="716.43" width="8.00" height="2.80" class="down-body"/>
<line x1="464.82" y1="696.34" x2="464.82" y2="719.23" class="up-wick"/>
<rect x="460.82" y="703.80" width="8.00" height="15.43" class="up-body"/>
<line x1="483.18" y1="687.52" x2="483.18" y2="709.34" class="down-wick"/>
<rect x="479.18" y="703.80" width="8.00" height="1.00" class="down-body"/>
<line x1="501.55" y1="695.87" x2="501.55" y2="710.65" class="up-wick"/>
<rect x="497.55" y="701.98" width="8.00" height="2.38" class="up-body"/>
<line x1="519.91" y1="695.82" x2="519.91" y2="725.57" class="down-wick"/>
<rect x="515.91" y="701.98" width="8.00" height="20.05" class="down-body"/>
<line x1="538.27" y1="715.73" x2="538.27" y2="731.07" class="up-wick"/>
<rect x="534.27" y="716.06" width="8.00" height="5.92" class="up-body"/>
<line x1="556.64" y1="703.05" x2="556.64" y2="736.34" class="down-wick"/>
<rect x="552.64" y="716.06" width="8.00" height="20.10" class="down-body"/>
<line x1="575.00" y1="707.06" x2="575.00" y2="743.10" class="up-wick"/>
<rect x="571.00" y="708.27" width="8.00" height="27.88" class="up-body"/>
<line x1="593.36" y1="708.18" x2="593.36" y2="722.31" class="down-wick"/>
<rect x="589.36" y="708.27" width="8.00" height="10.40" class="down-body"/>
<line x1="611.73" y1="713.35" x2="611.73" y2="721.65" class="down-wick"/>
<rect x="607.73" y="718.67" width="8.00" height="1.00" class="down-body"/>
<line x1="630.09" y1="702.44" x2="630.09" y2="739.28" class="up-wick"/>
<rect x="626.09" y="707.95" width="8.00" height="11.61" class="up-body"/>
<line x1="648.45" y1="702.54" x2="648.45" y2="723.52" class="up-wick"/>
<rect x="644.45" y="707.85" width="8.00" height="1.00" class="up-body"/>
<line x1="666.82" y1="690.79" x2="666.82" y2="714.33" class="up-wick"/>
<rect x="662.82" y="701.60" width="8.00" height="6.25" class="up-body"/>
<line x1="685.18" y1="693.63" x2="685.18" y2="708.88" class="up-wick"/>
<rect x="681.18" y="700.91" width="8.00" height="1.00" class="up-body"/>
<line x1="703.55" y1="686.41" x2="703.55" y2="702.68" class="up-wick"/>
<rect x="699.55" y="695.22" width="8.00" height="5.69" class="up-body"/>
<line x1="721.91" y1="694.14" x2="721.91" y2="726.27" class="down-wick"/>
<rect x="717.91" y="695.22" width="8.00" height="27.93" class="down-body"/>
<line x1="740.27" y1="697.64" x2="740.27" y2="736.39" class="up-wick"/>
<rect x="736.27" y="700.30" width="8.00" height="22.99" class="up-body"/>
<line x1="758.64" y1="689.34" x2="758.64" y2="722.21" class="down-wick"/>
<rect x="754.64" y="700.30" width="8.00" height="5.22" class="down-body"/>
<line x1="777.00" y1="692.42" x2="777.00" y2="714.47" class="up-wick"/>
<rect x="773.00" y="697.97" width="8.00" height="7.46" class="up-body"/>
<line x1="795.36" y1="677.41" x2="795.36" y2="700.72" class="up-wick"/>
<rect x="791.36" y="690.65" width="8.00" height="7.32" class="up-body"/>
<line x1="813.73" y1="656.52" x2="813.73" y2="695.59" class="up-wick"/>
<rect x="809.73" y="660.62" width="8.00" height="30.03" class="up-body"/>
<line x1="832.09" y1="637.64" x2="832.09" y2="667.57" class="up-wick"/>
<rect x="828.09" y="652.23" width="8.00" height="8.39" class="up-body"/>
<line x1="850.45" y1="651.25" x2="850.45" y2="677.83" class="down-wick"/>
<rect x="846.45" y="652.23" width="8.00" height="10.40" class="down-body"/>
<line x1="868.82" y1="642.02" x2="868.82" y2="675.12" class="up-wick"/>
<rect x="864.82" y="650.55" width="8.00" height="12.08" class="up-body"/>
<line x1="887.18" y1="642.20" x2="887.18" y2="657.17" class="down-wick"/>
<rect x="883.18" y="650.55" width="8.00" height="1.73" class="down-body"/>
<line x1="905.55" y1="647.29" x2="905.55" y2="662.39" class="down-wick"/>
<rect x="901.55" y="652.09" width="8.00" height="8.25" class="down-body"/>
<line x1="923.91" y1="659.69" x2="923.91" y2="686.36" class="down-wick"/>
<rect x="919.91" y="660.34" width="8.00" height="14.59" class="down-body"/>
<line x1="942.27" y1="674.84" x2="942.27" y2="724.64" class="down-wick"/>
<rect x="938.27" y="674.84" width="8.00" height="41.73" class="down-body"/>
<line x1="960.64" y1="699.04" x2="960.64" y2="737.04" class="down-wick"/>
<rect x="956.64" y="716.15" width="8.00" height="11.66" class="down-body"/>
<line x1="979.00" y1="694.61" x2="979.00" y2="774.76" class="up-wick"/>
<rect x="975.00" y="696.66" width="8.00" height="31.10" class="up-body"/>
<line x1="997.36" y1="695.59" x2="997.36" y2="716.94" class="down-wick"/>
<rect x="993.36" y="696.71" width="8.00" height="18.98" class="down-body"/>
<line x1="1015.73" y1="691.30" x2="1015.73" y2="715.78" class="up-wick"/>
<rect x="1011.73" y="695.82" width="8.00" height="19.86" class="up-body"/>
<line x1="1034.09" y1="695.59" x2="1034.09" y2="719.93" class="down-wick"/>
<rect x="1030.09" y="696.76" width="8.00" height="21.49" class="down-body"/>
<line x1="1052.45" y1="686.73" x2="1052.45" y2="718.25" class="up-wick"/>
<rect x="1048.45" y="694.75" width="8.00" height="23.50" class="up-body"/>
<line x1="1070.82" y1="693.96" x2="1070.82" y2="714.80" class="down-wick"/>
<rect x="1066.82" y="694.66" width="8.00" height="14.50" class="down-body"/>
<line x1="70" y1="692.70" x2="1080" y2="692.70" class="sweep-line"/>
<text x="1076" y="688.70" text-anchor="end" class="level-label">sweep 5174.02</text>
<line x1="70" y1="694.33" x2="1080" y2="694.33" class="entry-line"/>
<text x="1076" y="690.33" text-anchor="end" class="level-label">entry level 5173.67</text>
<text x="70" y="806" class="axis-label">2026-02-24 04:30:00+00:00 to 2026-02-24 09:00:00+00:00</text>
<text x="1080" y="806" text-anchor="end" class="axis-label">5153.58 - 5194.76</text>
<text x="70" y="832" class="panel-title">M1 execution window</text>
<rect x="70" y="846" width="1010" height="192" class="plot-bg"/>
<line x1="73.71" y1="926.01" x2="73.71" y2="947.81" class="up-wick"/>
<rect x="71.30" y="934.02" width="4.83" height="10.08" class="up-body"/>
<line x1="81.14" y1="907.15" x2="81.14" y2="933.39" class="up-wick"/>
<rect x="78.73" y="913.22" width="4.83" height="18.52" class="up-body"/>
<line x1="88.57" y1="883.56" x2="88.57" y2="899.57" class="up-wick"/>
<rect x="86.15" y="892.19" width="4.83" height="7.19" class="up-body"/>
<line x1="95.99" y1="899.86" x2="95.99" y2="907.24" class="up-wick"/>
<rect x="93.58" y="901.50" width="4.83" height="1.00" class="up-body"/>
<line x1="103.42" y1="882.30" x2="103.42" y2="890.31" class="up-wick"/>
<rect x="101.01" y="884.33" width="4.83" height="4.68" class="up-body"/>
<line x1="110.85" y1="872.75" x2="110.85" y2="888.67" class="down-wick"/>
<rect x="108.43" y="873.13" width="4.83" height="14.71" class="down-body"/>
<line x1="118.27" y1="879.31" x2="118.27" y2="892.87" class="up-wick"/>
<rect x="115.86" y="886.40" width="4.83" height="1.00" class="up-body"/>
<line x1="125.70" y1="873.81" x2="125.70" y2="896.97" class="down-wick"/>
<rect x="123.28" y="879.60" width="4.83" height="14.67" class="down-body"/>
<line x1="133.12" y1="885.15" x2="133.12" y2="895.37" class="up-wick"/>
<rect x="130.71" y="886.45" width="4.83" height="4.63" class="up-body"/>
<line x1="140.55" y1="880.23" x2="140.55" y2="889.25" class="up-wick"/>
<rect x="138.14" y="885.00" width="4.83" height="4.05" class="up-body"/>
<line x1="147.98" y1="871.01" x2="147.98" y2="885.39" class="up-wick"/>
<rect x="145.56" y="871.35" width="4.83" height="11.00" class="up-body"/>
<line x1="155.40" y1="860.50" x2="155.40" y2="878.63" class="up-wick"/>
<rect x="152.99" y="865.85" width="4.83" height="12.11" class="up-body"/>
<line x1="162.83" y1="881.05" x2="162.83" y2="889.87" class="down-wick"/>
<rect x="160.42" y="884.76" width="4.83" height="3.33" class="down-body"/>
<line x1="170.26" y1="880.03" x2="170.26" y2="887.08" class="up-wick"/>
<rect x="167.84" y="881.14" width="4.83" height="4.58" class="up-body"/>
<line x1="177.68" y1="864.40" x2="177.68" y2="887.75" class="up-wick"/>
<rect x="175.27" y="866.33" width="4.83" height="20.45" class="up-body"/>
<line x1="185.11" y1="861.80" x2="185.11" y2="870.43" class="down-wick"/>
<rect x="182.70" y="864.11" width="4.83" height="1.00" class="down-body"/>
<line x1="192.54" y1="866.82" x2="192.54" y2="874.39" class="down-wick"/>
<rect x="190.12" y="868.41" width="4.83" height="1.00" class="down-body"/>
<line x1="199.96" y1="869.76" x2="199.96" y2="880.27" class="down-wick"/>
<rect x="197.55" y="871.78" width="4.83" height="6.90" class="down-body"/>
<line x1="207.39" y1="859.24" x2="207.39" y2="874.34" class="up-wick"/>
<rect x="204.98" y="859.48" width="4.83" height="13.80" class="up-body"/>
<line x1="214.82" y1="865.46" x2="214.82" y2="883.75" class="down-wick"/>
<rect x="212.40" y="865.56" width="4.83" height="18.09" class="down-body"/>
<line x1="222.24" y1="869.95" x2="222.24" y2="876.51" class="down-wick"/>
<rect x="219.83" y="873.67" width="4.83" height="1.00" class="down-body"/>
<line x1="229.67" y1="874.68" x2="229.67" y2="884.95" class="down-wick"/>
<rect x="227.26" y="876.03" width="4.83" height="4.10" class="down-body"/>
<line x1="237.10" y1="867.06" x2="237.10" y2="879.45" class="up-wick"/>
<rect x="234.68" y="868.17" width="4.83" height="8.73" class="up-body"/>
<line x1="244.52" y1="869.23" x2="244.52" y2="875.84" class="up-wick"/>
<rect x="242.11" y="873.23" width="4.83" height="1.00" class="up-body"/>
<line x1="251.95" y1="865.61" x2="251.95" y2="880.90" class="down-wick"/>
<rect x="249.53" y="865.61" width="4.83" height="13.07" class="down-body"/>
<line x1="259.38" y1="867.73" x2="259.38" y2="881.05" class="down-wick"/>
<rect x="256.96" y="876.80" width="4.83" height="4.25" class="down-body"/>
<line x1="266.80" y1="888.19" x2="266.80" y2="894.55" class="up-wick"/>
<rect x="264.39" y="888.86" width="4.83" height="2.17" class="up-body"/>
<line x1="274.23" y1="874.00" x2="274.23" y2="896.10" class="up-wick"/>
<rect x="271.81" y="877.91" width="4.83" height="16.64" class="up-body"/>
<line x1="281.65" y1="889.25" x2="281.65" y2="901.07" class="up-wick"/>
<rect x="279.24" y="889.92" width="4.83" height="8.30" class="up-body"/>
<line x1="289.08" y1="893.44" x2="289.08" y2="900.58" class="down-wick"/>
<rect x="286.67" y="893.49" width="4.83" height="6.37" class="down-body"/>
<line x1="296.51" y1="891.52" x2="296.51" y2="901.12" class="up-wick"/>
<rect x="294.09" y="893.54" width="4.83" height="5.50" class="up-body"/>
<line x1="303.93" y1="890.36" x2="303.93" y2="899.33" class="up-wick"/>
<rect x="301.52" y="897.50" width="4.83" height="1.00" class="up-body"/>
<line x1="311.36" y1="882.74" x2="311.36" y2="892.96" class="up-wick"/>
<rect x="308.95" y="883.31" width="4.83" height="8.64" class="up-body"/>
<line x1="318.79" y1="869.95" x2="318.79" y2="882.83" class="down-wick"/>
<rect x="316.37" y="874.39" width="4.83" height="8.10" class="down-body"/>
<line x1="326.21" y1="874.20" x2="326.21" y2="878.35" class="up-wick"/>
<rect x="323.80" y="875.93" width="4.83" height="1.50" class="up-body"/>
<line x1="333.64" y1="883.70" x2="333.64" y2="890.12" class="up-wick"/>
<rect x="331.23" y="886.59" width="4.83" height="3.09" class="up-body"/>
<line x1="341.07" y1="894.55" x2="341.07" y2="901.94" class="down-wick"/>
<rect x="338.65" y="897.55" width="4.83" height="3.14" class="down-body"/>
<line x1="348.49" y1="912.02" x2="348.49" y2="929.14" class="down-wick"/>
<rect x="346.08" y="913.61" width="4.83" height="1.00" class="down-body"/>
<line x1="355.92" y1="911.63" x2="355.92" y2="931.94" class="down-wick"/>
<rect x="353.51" y="914.72" width="4.83" height="6.95" class="down-body"/>
<line x1="363.35" y1="919.40" x2="363.35" y2="937.88" class="down-wick"/>
<rect x="360.93" y="923.02" width="4.83" height="14.86" class="down-body"/>
<line x1="370.77" y1="923.02" x2="370.77" y2="940.58" class="down-wick"/>
<rect x="368.36" y="931.46" width="4.83" height="5.60" class="down-body"/>
<line x1="378.20" y1="927.07" x2="378.20" y2="939.27" class="up-wick"/>
<rect x="375.78" y="934.84" width="4.83" height="4.44" class="up-body"/>
<line x1="385.62" y1="927.46" x2="385.62" y2="933.29" class="up-wick"/>
<rect x="383.21" y="931.22" width="4.83" height="1.50" class="up-body"/>
<line x1="393.05" y1="927.21" x2="393.05" y2="931.36" class="down-wick"/>
<rect x="390.64" y="930.45" width="4.83" height="1.00" class="down-body"/>
<line x1="400.48" y1="935.66" x2="400.48" y2="952.35" class="down-wick"/>
<rect x="398.06" y="946.32" width="4.83" height="5.35" class="down-body"/>
<line x1="407.90" y1="950.27" x2="407.90" y2="967.25" class="down-wick"/>
<rect x="405.49" y="950.27" width="4.83" height="15.15" class="down-body"/>
<line x1="415.33" y1="979.65" x2="415.33" y2="996.34" class="up-wick"/>
<rect x="412.92" y="987.03" width="4.83" height="2.17" class="up-body"/>
<line x1="422.76" y1="965.76" x2="422.76" y2="989.49" class="down-wick"/>
<rect x="420.34" y="973.82" width="4.83" height="14.76" class="down-body"/>
<line x1="430.18" y1="960.84" x2="430.18" y2="994.32" class="up-wick"/>
<rect x="427.77" y="960.89" width="4.83" height="29.86" class="up-body"/>
<line x1="437.61" y1="955.77" x2="437.61" y2="968.32" class="down-wick"/>
<rect x="435.20" y="956.88" width="4.83" height="7.14" class="down-body"/>
<line x1="445.04" y1="961.51" x2="445.04" y2="965.86" class="up-wick"/>
<rect x="442.62" y="963.68" width="4.83" height="1.45" class="up-body"/>
<line x1="452.46" y1="960.84" x2="452.46" y2="968.99" class="down-wick"/>
<rect x="450.05" y="961.22" width="4.83" height="6.37" class="down-body"/>
<line x1="459.89" y1="965.37" x2="459.89" y2="972.37" class="up-wick"/>
<rect x="457.48" y="968.03" width="4.83" height="4.34" class="up-body"/>
<line x1="467.32" y1="949.89" x2="467.32" y2="958.43" class="up-wick"/>
<rect x="464.90" y="953.02" width="4.83" height="4.87" class="up-body"/>
<line x1="474.74" y1="947.81" x2="474.74" y2="956.64" class="down-wick"/>
<rect x="472.33" y="949.41" width="4.83" height="7.24" class="down-body"/>
<line x1="482.17" y1="946.37" x2="482.17" y2="952.40" class="up-wick"/>
<rect x="479.76" y="949.98" width="4.83" height="2.07" class="up-body"/>
<line x1="489.60" y1="946.61" x2="489.60" y2="952.35" class="up-wick"/>
<rect x="487.18" y="947.33" width="4.83" height="4.92" class="up-body"/>
<line x1="497.02" y1="948.20" x2="497.02" y2="957.80" class="up-wick"/>
<rect x="494.61" y="952.64" width="4.83" height="3.81" class="up-body"/>
<line x1="504.45" y1="946.66" x2="504.45" y2="954.04" class="up-wick"/>
<rect x="502.03" y="950.18" width="4.83" height="1.00" class="up-body"/>
<line x1="511.88" y1="943.86" x2="511.88" y2="957.65" class="up-wick"/>
<rect x="509.46" y="949.16" width="4.83" height="8.44" class="up-body"/>
<line x1="519.30" y1="943.81" x2="519.30" y2="959.10" class="down-wick"/>
<rect x="516.89" y="950.18" width="4.83" height="8.92" class="down-body"/>
<line x1="526.73" y1="962.24" x2="526.73" y2="966.24" class="down-wick"/>
<rect x="524.31" y="962.43" width="4.83" height="3.52" class="down-body"/>
<line x1="534.15" y1="968.61" x2="534.15" y2="973.38" class="down-wick"/>
<rect x="531.74" y="969.86" width="4.83" height="1.06" class="down-body"/>
<line x1="541.58" y1="972.46" x2="541.58" y2="977.67" class="up-wick"/>
<rect x="539.17" y="973.57" width="4.83" height="1.21" class="up-body"/>
<line x1="549.01" y1="972.27" x2="549.01" y2="980.28" class="up-wick"/>
<rect x="546.59" y="973.00" width="4.83" height="7.24" class="up-body"/>
<line x1="556.43" y1="958.72" x2="556.43" y2="966.63" class="up-wick"/>
<rect x="554.02" y="962.09" width="4.83" height="2.65" class="up-body"/>
<line x1="563.86" y1="953.65" x2="563.86" y2="968.94" class="down-wick"/>
<rect x="561.45" y="959.58" width="4.83" height="9.36" class="down-body"/>
<line x1="571.29" y1="977.29" x2="571.29" y2="985.73" class="down-wick"/>
<rect x="568.87" y="979.70" width="4.83" height="5.84" class="down-body"/>
<line x1="578.71" y1="975.41" x2="578.71" y2="981.53" class="down-wick"/>
<rect x="576.30" y="976.90" width="4.83" height="1.06" class="down-body"/>
<line x1="586.14" y1="958.47" x2="586.14" y2="965.08" class="up-wick"/>
<rect x="583.73" y="961.22" width="4.83" height="1.64" class="up-body"/>
<line x1="593.57" y1="956.59" x2="593.57" y2="964.84" class="down-wick"/>
<rect x="591.15" y="956.69" width="4.83" height="4.97" class="down-body"/>
<line x1="600.99" y1="959.73" x2="600.99" y2="967.83" class="down-wick"/>
<rect x="598.58" y="960.21" width="4.83" height="2.51" class="down-body"/>
<line x1="608.42" y1="964.84" x2="608.42" y2="969.47" class="down-wick"/>
<rect x="606.01" y="966.58" width="4.83" height="1.00" class="down-body"/>
<line x1="615.85" y1="963.49" x2="615.85" y2="968.12" class="down-wick"/>
<rect x="613.43" y="965.04" width="4.83" height="1.54" class="down-body"/>
<line x1="623.27" y1="964.99" x2="623.27" y2="970.53" class="down-wick"/>
<rect x="620.86" y="968.07" width="4.83" height="1.00" class="down-body"/>
<line x1="630.70" y1="967.25" x2="630.70" y2="974.68" class="down-wick"/>
<rect x="628.28" y="968.36" width="4.83" height="4.44" class="down-body"/>
<line x1="638.12" y1="970.82" x2="638.12" y2="978.64" class="up-wick"/>
<rect x="635.71" y="973.77" width="4.83" height="1.21" class="up-body"/>
<line x1="645.55" y1="950.66" x2="645.55" y2="959.20" class="up-wick"/>
<rect x="643.14" y="956.35" width="4.83" height="2.75" class="up-body"/>
<line x1="652.98" y1="950.85" x2="652.98" y2="956.79" class="down-wick"/>
<rect x="650.56" y="950.85" width="4.83" height="1.50" class="down-body"/>
<line x1="660.40" y1="953.89" x2="660.40" y2="957.85" class="up-wick"/>
<rect x="657.99" y="955.53" width="4.83" height="1.88" class="up-body"/>
<line x1="667.83" y1="952.59" x2="667.83" y2="960.11" class="up-wick"/>
<rect x="665.42" y="954.62" width="4.83" height="1.64" class="up-body"/>
<line x1="675.26" y1="941.54" x2="675.26" y2="960.69" class="up-wick"/>
<rect x="672.84" y="943.09" width="4.83" height="14.86" class="up-body"/>
<line x1="682.68" y1="942.94" x2="682.68" y2="949.98" class="down-wick"/>
<rect x="680.27" y="947.09" width="4.83" height="2.70" class="down-body"/>
<line x1="690.11" y1="941.54" x2="690.11" y2="953.84" class="up-wick"/>
<rect x="687.70" y="944.05" width="4.83" height="9.74" class="up-body"/>
<line x1="697.54" y1="942.99" x2="697.54" y2="948.30" class="up-wick"/>
<rect x="695.12" y="944.63" width="4.83" height="3.28" class="up-body"/>
<line x1="704.96" y1="942.31" x2="704.96" y2="950.90" class="up-wick"/>
<rect x="702.55" y="943.95" width="4.83" height="5.11" class="up-body"/>
<line x1="712.39" y1="936.38" x2="712.39" y2="948.34" class="down-wick"/>
<rect x="709.98" y="936.43" width="4.83" height="8.49" class="down-body"/>
<line x1="719.82" y1="937.88" x2="719.82" y2="943.57" class="down-wick"/>
<rect x="717.40" y="939.03" width="4.83" height="4.15" class="down-body"/>
<line x1="727.24" y1="946.27" x2="727.24" y2="953.60" class="down-wick"/>
<rect x="724.83" y="946.80" width="4.83" height="5.84" class="down-body"/>
<line x1="734.67" y1="961.75" x2="734.67" y2="970.53" class="up-wick"/>
<rect x="732.26" y="965.04" width="4.83" height="2.70" class="up-body"/>
<line x1="742.10" y1="964.26" x2="742.10" y2="978.06" class="up-wick"/>
<rect x="739.68" y="966.77" width="4.83" height="5.45" class="up-body"/>
<line x1="749.52" y1="950.90" x2="749.52" y2="968.70" class="down-wick"/>
<rect x="747.11" y="960.45" width="4.83" height="8.25" class="down-body"/>
<line x1="756.95" y1="945.69" x2="756.95" y2="963.30" class="up-wick"/>
<rect x="754.53" y="948.44" width="4.83" height="9.74" class="up-body"/>
<line x1="764.38" y1="950.80" x2="764.38" y2="965.95" class="down-wick"/>
<rect x="761.96" y="956.59" width="4.83" height="1.00" class="down-body"/>
<line x1="771.80" y1="953.31" x2="771.80" y2="971.11" class="up-wick"/>
<rect x="769.39" y="955.34" width="4.83" height="11.82" class="up-body"/>
<line x1="779.23" y1="950.27" x2="779.23" y2="963.11" class="up-wick"/>
<rect x="776.81" y="951.00" width="4.83" height="2.75" class="up-body"/>
<line x1="786.65" y1="945.16" x2="786.65" y2="951.62" class="up-wick"/>
<rect x="784.24" y="945.64" width="4.83" height="3.14" class="up-body"/>
<line x1="794.08" y1="943.13" x2="794.08" y2="950.76" class="down-wick"/>
<rect x="791.67" y="945.93" width="4.83" height="1.00" class="down-body"/>
<line x1="801.51" y1="937.92" x2="801.51" y2="941.11" class="down-wick"/>
<rect x="799.09" y="939.56" width="4.83" height="1.00" class="down-body"/>
<line x1="808.93" y1="924.75" x2="808.93" y2="944.68" class="up-wick"/>
<rect x="806.52" y="935.70" width="4.83" height="8.92" class="up-body"/>
<line x1="816.36" y1="927.99" x2="816.36" y2="943.57" class="up-wick"/>
<rect x="813.95" y="928.18" width="4.83" height="10.28" class="up-body"/>
<line x1="823.79" y1="917.90" x2="823.79" y2="926.92" class="down-wick"/>
<rect x="821.37" y="921.09" width="4.83" height="1.74" class="down-body"/>
<line x1="831.21" y1="903.14" x2="831.21" y2="919.06" class="up-wick"/>
<rect x="828.80" y="907.39" width="4.83" height="10.28" class="up-body"/>
<line x1="838.64" y1="892.48" x2="838.64" y2="913.22" class="up-wick"/>
<rect x="836.23" y="895.13" width="4.83" height="16.84" class="up-body"/>
<line x1="846.07" y1="890.26" x2="846.07" y2="905.79" class="down-wick"/>
<rect x="843.65" y="890.26" width="4.83" height="10.61" class="down-body"/>
<line x1="853.49" y1="897.69" x2="853.49" y2="908.01" class="down-wick"/>
<rect x="851.08" y="898.70" width="4.83" height="1.83" class="down-body"/>
<line x1="860.92" y1="912.55" x2="860.92" y2="924.37" class="up-wick"/>
<rect x="858.51" y="917.52" width="4.83" height="1.00" class="up-body"/>
<line x1="868.35" y1="908.59" x2="868.35" y2="920.94" class="up-wick"/>
<rect x="865.93" y="909.46" width="4.83" height="11.48" class="up-body"/>
<line x1="875.77" y1="888.67" x2="875.77" y2="907.53" class="up-wick"/>
<rect x="873.36" y="888.81" width="4.83" height="18.48" class="up-body"/>
<line x1="883.20" y1="894.75" x2="883.20" y2="902.76" class="down-wick"/>
<rect x="880.78" y="895.66" width="4.83" height="5.21" class="down-body"/>
<line x1="890.62" y1="894.94" x2="890.62" y2="902.03" class="down-wick"/>
<rect x="888.21" y="896.97" width="4.83" height="2.99" class="down-body"/>
<line x1="898.05" y1="893.54" x2="898.05" y2="902.85" class="up-wick"/>
<rect x="895.64" y="896.58" width="4.83" height="5.35" class="up-body"/>
<line x1="905.48" y1="897.01" x2="905.48" y2="903.82" class="down-wick"/>
<rect x="903.06" y="898.70" width="4.83" height="1.00" class="down-body"/>
<line x1="912.90" y1="895.91" x2="912.90" y2="903.62" class="down-wick"/>
<rect x="910.49" y="898.56" width="4.83" height="4.25" class="down-body"/>
<line x1="920.33" y1="901.74" x2="920.33" y2="909.22" class="down-wick"/>
<rect x="917.92" y="902.61" width="4.83" height="5.50" class="down-body"/>
<line x1="927.76" y1="906.42" x2="927.76" y2="909.08" class="down-wick"/>
<rect x="925.34" y="907.10" width="4.83" height="1.78" class="down-body"/>
<line x1="935.18" y1="918.43" x2="935.18" y2="933.10" class="up-wick"/>
<rect x="932.77" y="924.90" width="4.83" height="8.20" class="up-body"/>
<line x1="942.61" y1="919.11" x2="942.61" y2="925.04" class="down-wick"/>
<rect x="940.20" y="921.71" width="4.83" height="1.00" class="down-body"/>
<line x1="950.04" y1="923.84" x2="950.04" y2="937.10" class="down-wick"/>
<rect x="947.62" y="926.25" width="4.83" height="9.17" class="down-body"/>
<line x1="957.46" y1="931.17" x2="957.46" y2="940.58" class="down-wick"/>
<rect x="955.05" y="936.04" width="4.83" height="1.00" class="down-body"/>
<line x1="964.89" y1="956.45" x2="964.89" y2="972.90" class="up-wick"/>
<rect x="962.48" y="957.85" width="4.83" height="7.00" class="up-body"/>
<line x1="972.32" y1="953.12" x2="972.32" y2="960.11" class="down-wick"/>
<rect x="969.90" y="954.42" width="4.83" height="3.86" class="down-body"/>
<line x1="979.74" y1="965.18" x2="979.74" y2="986.45" class="down-wick"/>
<rect x="977.33" y="965.18" width="4.83" height="11.72" class="down-body"/>
<line x1="987.17" y1="998.13" x2="987.17" y2="1024.76" class="down-wick"/>
<rect x="984.76" y="1005.65" width="4.83" height="7.96" class="down-body"/>
<line x1="994.60" y1="970.82" x2="994.60" y2="987.27" class="up-wick"/>
<rect x="992.18" y="970.87" width="4.83" height="13.07" class="up-body"/>
<line x1="1002.02" y1="943.57" x2="1002.02" y2="959.68" class="down-wick"/>
<rect x="999.61" y="944.73" width="4.83" height="11.34" class="down-body"/>
<line x1="1009.45" y1="953.12" x2="1009.45" y2="964.36" class="up-wick"/>
<rect x="1007.03" y="954.28" width="4.83" height="8.78" class="up-body"/>
<line x1="1016.88" y1="957.70" x2="1016.88" y2="965.28" class="down-wick"/>
<rect x="1014.46" y="958.19" width="4.83" height="6.17" class="down-body"/>
<line x1="1024.30" y1="948.44" x2="1024.30" y2="956.35" class="down-wick"/>
<rect x="1021.89" y="950.47" width="4.83" height="5.07" class="down-body"/>
<line x1="1031.73" y1="940.38" x2="1031.73" y2="958.96" class="up-wick"/>
<rect x="1029.31" y="940.72" width="4.83" height="17.95" class="up-body"/>
<line x1="1039.15" y1="943.57" x2="1039.15" y2="954.66" class="down-wick"/>
<rect x="1036.74" y="944.77" width="4.83" height="9.79" class="down-body"/>
<line x1="1046.58" y1="948.05" x2="1046.58" y2="962.19" class="down-wick"/>
<rect x="1044.17" y="958.38" width="4.83" height="3.71" class="down-body"/>
<line x1="1054.01" y1="953.84" x2="1054.01" y2="967.59" class="down-wick"/>
<rect x="1051.59" y="958.43" width="4.83" height="8.59" class="down-body"/>
<line x1="1061.43" y1="953.89" x2="1061.43" y2="960.21" class="up-wick"/>
<rect x="1059.02" y="954.37" width="4.83" height="5.55" class="up-body"/>
<line x1="1068.86" y1="938.89" x2="1068.86" y2="947.57" class="up-wick"/>
<rect x="1066.45" y="938.94" width="4.83" height="6.03" class="up-body"/>
<line x1="1076.29" y1="941.88" x2="1076.29" y2="956.45" class="down-wick"/>
<rect x="1073.87" y="942.60" width="4.83" height="13.70" class="down-body"/>
<line x1="70" y1="940.58" x2="1080" y2="940.58" class="sweep-line"/>
<text x="1076" y="936.58" text-anchor="end" class="level-label">sweep 5174.02</text>
<line x1="70" y1="942.27" x2="1080" y2="942.27" class="entry-line"/>
<text x="1076" y="938.27" text-anchor="end" class="level-label">entry level 5173.67</text>
<text x="70" y="1056" class="axis-label">2026-02-24 04:30:00+00:00 to 2026-02-24 09:00:00+00:00</text>
<text x="1080" y="1056" text-anchor="end" class="axis-label">5153.83 - 5193.62</text>
</svg>