<svg xmlns="http://www.w3.org/2000/svg" width="1120" height="1054" viewBox="0 0 1120 1054">
<style>
text{font-family:Arial,Helvetica,sans-serif}.title{font-size:21px;font-weight:700;fill:#1f2937}.subtitle{font-size:12px;fill:#4b5563}.panel-title{font-size:15px;font-weight:700;fill:#111827}.muted{font-size:13px;fill:#6b7280}.plot-bg{fill:#f8fafc;stroke:#cbd5e1;stroke-width:1}.up-body{fill:#15803d;stroke:#14532d;stroke-width:.8}.down-body{fill:#b91c1c;stroke:#7f1d1d;stroke-width:.8}.up-wick{stroke:#14532d;stroke-width:1}.down-wick{stroke:#7f1d1d;stroke-width:1}.sweep-line{stroke:#7c3aed;stroke-width:1.6;stroke-dasharray:6 4}.number-line{stroke:#0f766e;stroke-width:1.4;stroke-dasharray:3 4}.entry-line{stroke:#2563eb;stroke-width:1.4}.sl-line{stroke:#dc2626;stroke-width:1.4}.tp-line{stroke:#16a34a;stroke-width:1.4}.level-label,.axis-label{font-size:11px;fill:#374151}
</style>
<text x="28" y="28" class="title">Adelin v2 visual review sample sample_295</text>
<text x="28" y="48" class="subtitle">Candidate windows are for visual labeling only and are not trade signals.</text>
<text x="560" y="48" class="subtitle" text-anchor="middle">NUMBER_THEORY_LEVEL_NEAR | ROUND_LEVEL_ENTRY_METADATA_AVAILABLE</text>
<text x="70" y="82" class="panel-title">H1 liquidity context</text>
<rect x="70" y="96" width="1010" height="192" class="plot-bg"/>
<line x1="81.48" y1="109.24" x2="81.48" y2="139.11" class="up-wick"/>
<rect x="77.48" y="121.65" width="8.00" height="13.15" class="up-body"/>
<line x1="104.43" y1="115.21" x2="104.43" y2="132.04" class="up-wick"/>
<rect x="100.43" y="121.02" width="8.00" height="1.00" class="up-body"/>
<line x1="127.39" y1="118.70" x2="127.39" y2="128.21" class="down-wick"/>
<rect x="123.39" y="121.02" width="8.00" height="1.00" class="down-body"/>
<line x1="150.34" y1="118.31" x2="150.34" y2="128.30" class="down-wick"/>
<rect x="146.34" y="121.20" width="8.00" height="3.17" class="down-body"/>
<line x1="173.30" y1="123.07" x2="173.30" y2="130.38" class="down-wick"/>
<rect x="169.30" y="124.37" width="8.00" height="1.00" class="down-body"/>
<line x1="196.25" y1="121.94" x2="196.25" y2="133.01" class="down-wick"/>
<rect x="192.25" y="124.94" width="8.00" height="5.58" class="down-body"/>
<line x1="219.20" y1="145.35" x2="219.20" y2="163.08" class="down-wick"/>
<rect x="215.20" y="146.74" width="8.00" height="12.12" class="down-body"/>
<line x1="242.16" y1="158.68" x2="242.16" y2="167.68" class="down-wick"/>
<rect x="238.16" y="158.86" width="8.00" height="4.22" class="down-body"/>
<line x1="265.11" y1="146.81" x2="265.11" y2="170.13" class="up-wick"/>
<rect x="261.11" y="147.19" width="8.00" height="15.89" class="up-body"/>
<line x1="288.07" y1="136.55" x2="288.07" y2="153.40" class="up-wick"/>
<rect x="284.07" y="142.75" width="8.00" height="4.43" class="up-body"/>
<line x1="311.02" y1="124.23" x2="311.02" y2="148.55" class="up-wick"/>
<rect x="307.02" y="128.88" width="8.00" height="13.88" class="up-body"/>
<line x1="333.98" y1="118.92" x2="333.98" y2="132.27" class="up-wick"/>
<rect x="329.98" y="123.63" width="8.00" height="5.32" class="up-body"/>
<line x1="356.93" y1="118.33" x2="356.93" y2="124.87" class="up-wick"/>
<rect x="352.93" y="122.87" width="8.00" height="1.00" class="up-body"/>
<line x1="379.89" y1="122.41" x2="379.89" y2="137.35" class="down-wick"/>
<rect x="375.89" y="122.85" width="8.00" height="13.40" class="down-body"/>
<line x1="402.84" y1="131.24" x2="402.84" y2="136.95" class="up-wick"/>
<rect x="398.84" y="133.75" width="8.00" height="2.49" class="up-body"/>
<line x1="425.80" y1="128.78" x2="425.80" y2="136.21" class="up-wick"/>
<rect x="421.80" y="133.27" width="8.00" height="1.00" class="up-body"/>
<line x1="448.75" y1="132.02" x2="448.75" y2="140.45" class="down-wick"/>
<rect x="444.75" y="133.27" width="8.00" height="5.85" class="down-body"/>
<line x1="471.70" y1="137.80" x2="471.70" y2="145.60" class="down-wick"/>
<rect x="467.70" y="139.07" width="8.00" height="2.92" class="down-body"/>
<line x1="494.66" y1="135.44" x2="494.66" y2="145.65" class="up-wick"/>
<rect x="490.66" y="137.36" width="8.00" height="4.61" class="up-body"/>
<line x1="517.61" y1="137.05" x2="517.61" y2="145.08" class="down-wick"/>
<rect x="513.61" y="137.33" width="8.00" height="3.58" class="down-body"/>
<line x1="540.57" y1="133.92" x2="540.57" y2="147.95" class="down-wick"/>
<rect x="536.57" y="140.90" width="8.00" height="5.01" class="down-body"/>
<line x1="563.52" y1="142.11" x2="563.52" y2="154.74" class="down-wick"/>
<rect x="559.52" y="145.77" width="8.00" height="2.84" class="down-body"/>
<line x1="586.48" y1="148.11" x2="586.48" y2="166.13" class="down-wick"/>
<rect x="582.48" y="148.61" width="8.00" height="16.15" class="down-body"/>
<line x1="609.43" y1="160.77" x2="609.43" y2="174.45" class="down-wick"/>
<rect x="605.43" y="164.76" width="8.00" height="7.18" class="down-body"/>
<line x1="632.39" y1="163.49" x2="632.39" y2="174.45" class="up-wick"/>
<rect x="628.39" y="166.00" width="8.00" height="5.93" class="up-body"/>
<line x1="655.34" y1="157.55" x2="655.34" y2="173.59" class="up-wick"/>
<rect x="651.34" y="161.08" width="8.00" height="4.93" class="up-body"/>
<line x1="678.30" y1="158.17" x2="678.30" y2="163.97" class="down-wick"/>
<rect x="674.30" y="161.08" width="8.00" height="1.36" class="down-body"/>
<line x1="701.25" y1="160.65" x2="701.25" y2="166.02" class="up-wick"/>
<rect x="697.25" y="162.28" width="8.00" height="1.00" class="up-body"/>
<line x1="724.20" y1="153.04" x2="724.20" y2="161.90" class="up-wick"/>
<rect x="720.20" y="155.97" width="8.00" height="5.57" class="up-body"/>
<line x1="747.16" y1="149.66" x2="747.16" y2="156.58" class="up-wick"/>
<rect x="743.16" y="152.45" width="8.00" height="3.52" class="up-body"/>
<line x1="770.11" y1="144.09" x2="770.11" y2="153.73" class="down-wick"/>
<rect x="766.11" y="152.44" width="8.00" height="1.20" class="down-body"/>
<line x1="793.07" y1="152.82" x2="793.07" y2="172.43" class="down-wick"/>
<rect x="789.07" y="153.64" width="8.00" height="17.72" class="down-body"/>
<line x1="816.02" y1="163.22" x2="816.02" y2="175.15" class="down-wick"/>
<rect x="812.02" y="171.36" width="8.00" height="1.39" class="down-body"/>
<line x1="838.98" y1="166.79" x2="838.98" y2="173.34" class="up-wick"/>
<rect x="834.98" y="171.18" width="8.00" height="1.57" class="up-body"/>
<line x1="861.93" y1="170.87" x2="861.93" y2="175.04" class="down-wick"/>
<rect x="857.93" y="171.18" width="8.00" height="2.92" class="down-body"/>
<line x1="884.89" y1="173.75" x2="884.89" y2="213.13" class="down-wick"/>
<rect x="880.89" y="174.08" width="8.00" height="31.62" class="down-body"/>
<line x1="907.84" y1="196.11" x2="907.84" y2="213.71" class="down-wick"/>
<rect x="903.84" y="205.70" width="8.00" height="2.87" class="down-body"/>
<line x1="930.80" y1="199.24" x2="930.80" y2="216.19" class="up-wick"/>
<rect x="926.80" y="204.74" width="8.00" height="3.83" class="up-body"/>
<line x1="953.75" y1="202.77" x2="953.75" y2="221.30" class="down-wick"/>
<rect x="949.75" y="204.74" width="8.00" height="3.20" class="down-body"/>
<line x1="976.70" y1="207.64" x2="976.70" y2="230.36" class="down-wick"/>
<rect x="972.70" y="207.95" width="8.00" height="22.15" class="down-body"/>
<line x1="999.66" y1="219.73" x2="999.66" y2="231.71" class="down-wick"/>
<rect x="995.66" y="230.10" width="8.00" height="1.49" class="down-body"/>
<line x1="1022.61" y1="226.65" x2="1022.61" y2="274.17" class="down-wick"/>
<rect x="1018.61" y="231.59" width="8.00" height="36.28" class="down-body"/>
<line x1="1045.57" y1="234.30" x2="1045.57" y2="274.76" class="up-wick"/>
<rect x="1041.57" y="240.00" width="8.00" height="27.87" class="up-body"/>
<line x1="1068.52" y1="239.20" x2="1068.52" y2="260.49" class="down-wick"/>
<rect x="1064.52" y="240.00" width="8.00" height="12.12" class="down-body"/>
<line x1="70" y1="145.20" x2="1080" y2="145.20" class="number-line"/>
<text x="1076" y="141.20" text-anchor="end" class="level-label">round 4700.00</text>
<line x1="70" y1="145.20" x2="1080" y2="145.20" class="entry-line"/>
<text x="1076" y="141.20" text-anchor="end" class="level-label">entry level 4700.00</text>
<text x="70" y="306" class="axis-label">2026-04-24 17:00:00+00:00 to 2026-04-28 16:00:00+00:00</text>
<text x="1080" y="306" text-anchor="end" class="axis-label">4539.99 - 4755.13</text>
<text x="70" y="332" class="panel-title">M15 liquidity / reaction context</text>
<rect x="70" y="346" width="1010" height="192" class="plot-bg"/>
<line x1="76.92" y1="441.83" x2="76.92" y2="462.67" class="up-wick"/>
<rect x="72.92" y="443.70" width="8.00" height="13.74" class="up-body"/>
<line x1="90.75" y1="436.17" x2="90.75" y2="449.83" class="down-wick"/>
<rect x="86.75" y="443.64" width="8.00" height="1.00" class="down-body"/>
<line x1="104.59" y1="421.46" x2="104.59" y2="444.46" class="up-wick"/>
<rect x="100.59" y="431.28" width="8.00" height="12.74" class="up-body"/>
<line x1="118.42" y1="420.64" x2="118.42" y2="448.38" class="down-wick"/>
<rect x="114.42" y="431.28" width="8.00" height="8.21" class="down-body"/>
<line x1="132.26" y1="416.75" x2="132.26" y2="441.28" class="up-wick"/>
<rect x="128.26" y="423.38" width="8.00" height="16.13" class="up-body"/>
<line x1="146.10" y1="400.17" x2="146.10" y2="426.83" class="up-wick"/>
<rect x="142.10" y="403.11" width="8.00" height="20.27" class="up-body"/>
<line x1="159.93" y1="376.64" x2="159.93" y2="406.48" class="up-wick"/>
<rect x="155.93" y="390.35" width="8.00" height="12.61" class="up-body"/>
<line x1="173.77" y1="379.77" x2="173.77" y2="395.30" class="down-wick"/>
<rect x="169.77" y="390.56" width="8.00" height="1.00" class="down-body"/>
<line x1="187.60" y1="389.72" x2="187.60" y2="400.35" class="down-wick"/>
<rect x="183.60" y="391.38" width="8.00" height="5.76" class="down-body"/>
<line x1="201.44" y1="361.00" x2="201.44" y2="397.72" class="up-wick"/>
<rect x="197.44" y="363.74" width="8.00" height="33.27" class="up-body"/>
<line x1="215.27" y1="362.66" x2="215.27" y2="379.09" class="down-wick"/>
<rect x="211.27" y="363.74" width="8.00" height="11.13" class="down-body"/>
<line x1="229.11" y1="364.43" x2="229.11" y2="375.95" class="up-wick"/>
<rect x="225.11" y="366.08" width="8.00" height="8.79" class="up-body"/>
<line x1="242.95" y1="364.82" x2="242.95" y2="372.64" class="down-wick"/>
<rect x="238.95" y="366.08" width="8.00" height="1.45" class="down-body"/>
<line x1="256.78" y1="359.24" x2="256.78" y2="371.56" class="down-wick"/>
<rect x="252.78" y="367.53" width="8.00" height="1.76" class="down-body"/>
<line x1="270.62" y1="368.29" x2="270.62" y2="378.53" class="down-wick"/>
<rect x="266.62" y="369.30" width="8.00" height="3.34" class="down-body"/>
<line x1="284.45" y1="371.30" x2="284.45" y2="390.72" class="down-wick"/>
<rect x="280.45" y="372.58" width="8.00" height="17.45" class="down-body"/>
<line x1="298.29" y1="386.32" x2="298.29" y2="395.98" class="down-wick"/>
<rect x="294.29" y="390.03" width="8.00" height="1.00" class="down-body"/>
<line x1="312.12" y1="390.40" x2="312.12" y2="414.75" class="down-wick"/>
<rect x="308.12" y="390.72" width="8.00" height="17.45" class="down-body"/>
<line x1="325.96" y1="402.48" x2="325.96" y2="415.33" class="down-wick"/>
<rect x="321.96" y="408.17" width="8.00" height="3.92" class="down-body"/>
<line x1="339.79" y1="397.32" x2="339.79" y2="414.17" class="up-wick"/>
<rect x="335.79" y="399.96" width="8.00" height="12.11" class="up-body"/>
<line x1="353.63" y1="397.48" x2="353.63" y2="408.54" class="down-wick"/>
<rect x="349.63" y="399.96" width="8.00" height="1.00" class="down-body"/>
<line x1="367.47" y1="400.32" x2="367.47" y2="414.09" class="down-wick"/>
<rect x="363.47" y="400.59" width="8.00" height="9.74" class="down-body"/>
<line x1="381.30" y1="397.61" x2="381.30" y2="412.27" class="up-wick"/>
<rect x="377.30" y="404.72" width="8.00" height="5.61" class="up-body"/>
<line x1="395.14" y1="390.35" x2="395.14" y2="409.69" class="up-wick"/>
<rect x="391.14" y="393.59" width="8.00" height="11.08" class="up-body"/>
<line x1="408.97" y1="390.06" x2="408.97" y2="405.93" class="down-wick"/>
<rect x="404.97" y="393.59" width="8.00" height="2.55" class="down-body"/>
<line x1="422.81" y1="392.67" x2="422.81" y2="402.96" class="down-wick"/>
<rect x="418.81" y="396.14" width="8.00" height="3.08" class="down-body"/>
<line x1="436.64" y1="393.93" x2="436.64" y2="411.98" class="down-wick"/>
<rect x="432.64" y="399.22" width="8.00" height="4.08" class="down-body"/>
<line x1="450.48" y1="400.61" x2="450.48" y2="411.33" class="down-wick"/>
<rect x="446.48" y="403.30" width="8.00" height="6.37" class="down-body"/>
<line x1="464.32" y1="401.38" x2="464.32" y2="413.62" class="down-wick"/>
<rect x="460.32" y="409.67" width="8.00" height="1.00" class="down-body"/>
<line x1="478.15" y1="406.96" x2="478.15" y2="424.49" class="up-wick"/>
<rect x="474.15" y="407.06" width="8.00" height="3.13" class="up-body"/>
<line x1="491.99" y1="399.61" x2="491.99" y2="423.88" class="down-wick"/>
<rect x="487.99" y="407.06" width="8.00" height="13.48" class="down-body"/>
<line x1="505.82" y1="416.67" x2="505.82" y2="431.85" class="down-wick"/>
<rect x="501.82" y="420.41" width="8.00" height="4.42" class="down-body"/>
<line x1="519.66" y1="421.09" x2="519.66" y2="434.35" class="down-wick"/>
<rect x="515.66" y="424.83" width="8.00" height="7.74" class="down-body"/>
<line x1="533.49" y1="424.20" x2="533.49" y2="439.67" class="up-wick"/>
<rect x="529.49" y="426.20" width="8.00" height="6.61" class="up-body"/>
<line x1="547.33" y1="426.22" x2="547.33" y2="439.62" class="down-wick"/>
<rect x="543.33" y="426.22" width="8.00" height="2.79" class="down-body"/>
<line x1="561.16" y1="420.43" x2="561.16" y2="434.38" class="down-wick"/>
<rect x="557.16" y="428.96" width="8.00" height="4.42" class="down-body"/>
<line x1="575.00" y1="423.01" x2="575.00" y2="439.80" class="up-wick"/>
<rect x="571.00" y="425.04" width="8.00" height="8.34" class="up-body"/>
<line x1="588.84" y1="410.62" x2="588.84" y2="426.33" class="up-wick"/>
<rect x="584.84" y="414.72" width="8.00" height="10.32" class="up-body"/>
<line x1="602.67" y1="409.69" x2="602.67" y2="419.75" class="down-wick"/>
<rect x="598.67" y="414.72" width="8.00" height="1.00" class="down-body"/>
<line x1="616.51" y1="414.46" x2="616.51" y2="428.12" class="down-wick"/>
<rect x="612.51" y="415.27" width="8.00" height="12.42" class="down-body"/>
<line x1="630.34" y1="420.12" x2="630.34" y2="437.80" class="up-wick"/>
<rect x="626.34" y="424.72" width="8.00" height="2.97" class="up-body"/>
<line x1="644.18" y1="416.06" x2="644.18" y2="438.14" class="down-wick"/>
<rect x="640.18" y="424.72" width="8.00" height="6.82" class="down-body"/>
<line x1="658.01" y1="424.54" x2="658.01" y2="436.09" class="up-wick"/>
<rect x="654.01" y="425.83" width="8.00" height="5.71" class="up-body"/>
<line x1="671.85" y1="414.22" x2="671.85" y2="431.85" class="up-wick"/>
<rect x="667.85" y="415.04" width="8.00" height="10.76" class="up-body"/>
<line x1="685.68" y1="405.22" x2="685.68" y2="432.93" class="down-wick"/>
<rect x="681.68" y="415.04" width="8.00" height="5.05" class="down-body"/>
<line x1="699.52" y1="417.98" x2="699.52" y2="446.43" class="down-wick"/>
<rect x="695.52" y="420.09" width="8.00" height="21.37" class="down-body"/>
<line x1="713.36" y1="426.56" x2="713.36" y2="446.59" class="up-wick"/>
<rect x="709.36" y="440.57" width="8.00" height="1.00" class="up-body"/>
<line x1="727.19" y1="436.88" x2="727.19" y2="456.09" class="down-wick"/>
<rect x="723.19" y="440.17" width="8.00" height="8.84" class="down-body"/>
<line x1="741.03" y1="429.38" x2="741.03" y2="450.15" class="up-wick"/>
<rect x="737.03" y="438.22" width="8.00" height="10.79" class="up-body"/>
<line x1="754.86" y1="431.64" x2="754.86" y2="466.57" class="down-wick"/>
<rect x="750.86" y="438.22" width="8.00" height="17.84" class="down-body"/>
<line x1="768.70" y1="445.33" x2="768.70" y2="466.62" class="up-wick"/>
<rect x="764.70" y="448.54" width="8.00" height="7.53" class="up-body"/>
<line x1="782.53" y1="448.25" x2="782.53" y2="470.38" class="down-wick"/>
<rect x="778.53" y="448.54" width="8.00" height="9.55" class="down-body"/>
<line x1="796.37" y1="447.33" x2="796.37" y2="474.91" class="down-wick"/>
<rect x="792.37" y="458.09" width="8.00" height="9.40" class="down-body"/>
<line x1="810.21" y1="447.07" x2="810.21" y2="481.96" class="up-wick"/>
<rect x="806.21" y="455.78" width="8.00" height="11.71" class="up-body"/>
<line x1="824.04" y1="454.22" x2="824.04" y2="500.20" class="down-wick"/>
<rect x="820.04" y="455.78" width="8.00" height="40.40" class="down-body"/>
<line x1="837.88" y1="492.76" x2="837.88" y2="524.73" class="down-wick"/>
<rect x="833.88" y="496.18" width="8.00" height="9.24" class="down-body"/>
<line x1="851.71" y1="488.04" x2="851.71" y2="512.34" class="up-wick"/>
<rect x="847.71" y="488.15" width="8.00" height="17.26" class="up-body"/>
<line x1="865.55" y1="484.41" x2="865.55" y2="498.97" class="down-wick"/>
<rect x="861.55" y="488.15" width="8.00" height="9.13" class="down-body"/>
<line x1="879.38" y1="496.18" x2="879.38" y2="522.47" class="down-wick"/>
<rect x="875.38" y="497.28" width="8.00" height="20.05" class="down-body"/>
<line x1="893.22" y1="504.44" x2="893.22" y2="524.76" class="up-wick"/>
<rect x="889.22" y="505.57" width="8.00" height="11.76" class="up-body"/>
<line x1="907.05" y1="497.07" x2="907.05" y2="507.78" class="up-wick"/>
<rect x="903.05" y="500.68" width="8.00" height="4.90" class="up-body"/>
<line x1="920.89" y1="492.41" x2="920.89" y2="506.15" class="down-wick"/>
<rect x="916.89" y="500.68" width="8.00" height="4.05" class="down-body"/>
<line x1="934.73" y1="496.15" x2="934.73" y2="504.94" class="up-wick"/>
<rect x="930.73" y="499.83" width="8.00" height="4.90" class="up-body"/>
<line x1="948.56" y1="495.10" x2="948.56" y2="513.07" class="down-wick"/>
<rect x="944.56" y="499.83" width="8.00" height="7.84" class="down-body"/>
<line x1="962.40" y1="491.23" x2="962.40" y2="522.21" class="up-wick"/>
<rect x="958.40" y="491.89" width="8.00" height="15.76" class="up-body"/>
<line x1="976.23" y1="474.91" x2="976.23" y2="492.49" class="up-wick"/>
<rect x="972.23" y="482.75" width="8.00" height="9.13" class="up-body"/>
<line x1="990.07" y1="479.33" x2="990.07" y2="488.31" class="down-wick"/>
<rect x="986.07" y="482.75" width="8.00" height="2.55" class="down-body"/>
<line x1="1003.90" y1="483.70" x2="1003.90" y2="493.83" class="down-wick"/>
<rect x="999.90" y="485.31" width="8.00" height="2.11" class="down-body"/>
<line x1="1017.74" y1="476.73" x2="1017.74" y2="489.44" class="up-wick"/>
<rect x="1013.74" y="480.36" width="8.00" height="7.05" class="up-body"/>
<line x1="1031.58" y1="477.28" x2="1031.58" y2="484.41" class="down-wick"/>
<rect x="1027.58" y="480.31" width="8.00" height="3.34" class="down-body"/>
<line x1="1045.41" y1="477.83" x2="1045.41" y2="489.31" class="down-wick"/>
<rect x="1041.41" y="483.70" width="8.00" height="5.61" class="down-body"/>
<line x1="1059.25" y1="487.94" x2="1059.25" y2="494.94" class="down-wick"/>
<rect x="1055.25" y="489.31" width="8.00" height="1.13" class="down-body"/>
<line x1="1073.08" y1="484.04" x2="1073.08" y2="491.76" class="up-wick"/>
<rect x="1069.08" y="485.25" width="8.00" height="5.21" class="up-body"/>
<line x1="70" y1="438.49" x2="1080" y2="438.49" class="number-line"/>
<text x="1076" y="434.49" text-anchor="end" class="level-label">round 4700.00</text>
<line x1="70" y1="438.49" x2="1080" y2="438.49" class="entry-line"/>
<text x="1076" y="434.49" text-anchor="end" class="level-label">entry level 4700.00</text>
<text x="70" y="556" class="axis-label">2026-04-27 04:15:00+00:00 to 2026-04-27 22:15:00+00:00</text>
<text x="1080" y="556" text-anchor="end" class="axis-label">4662.19 - 4735.14</text>
<text x="70" y="582" class="panel-title">M5 reaction / execution context</text>
<rect x="70" y="596" width="1010" height="192" class="plot-bg"/>
<line x1="79.18" y1="635.99" x2="79.18" y2="645.76" class="up-wick"/>
<rect x="75.18" y="644.92" width="8.00" height="1.00" class="up-body"/>
<line x1="97.55" y1="643.13" x2="97.55" y2="651.73" class="up-wick"/>
<rect x="93.55" y="643.20" width="8.00" height="1.71" class="up-body"/>
<line x1="115.91" y1="636.68" x2="115.91" y2="651.99" class="up-wick"/>
<rect x="111.91" y="637.78" width="8.00" height="5.43" class="up-body"/>
<line x1="134.27" y1="632.67" x2="134.27" y2="645.83" class="up-wick"/>
<rect x="130.27" y="636.50" width="8.00" height="1.24" class="up-body"/>
<line x1="152.64" y1="632.64" x2="152.64" y2="646.12" class="up-wick"/>
<rect x="148.64" y="633.07" width="8.00" height="3.43" class="up-body"/>
<line x1="171.00" y1="621.70" x2="171.00" y2="640.18" class="up-wick"/>
<rect x="167.00" y="622.83" width="8.00" height="10.24" class="up-body"/>
<line x1="189.36" y1="612.92" x2="189.36" y2="628.56" class="up-wick"/>
<rect x="185.36" y="615.69" width="8.00" height="7.14" class="up-body"/>
<line x1="207.73" y1="609.24" x2="207.73" y2="625.93" class="down-wick"/>
<rect x="203.73" y="615.69" width="8.00" height="5.25" class="down-body"/>
<line x1="226.09" y1="619.44" x2="226.09" y2="647.61" class="down-wick"/>
<rect x="222.09" y="621.01" width="8.00" height="8.82" class="down-body"/>
<line x1="244.45" y1="626.92" x2="244.45" y2="640.58" class="down-wick"/>
<rect x="240.45" y="629.83" width="8.00" height="9.62" class="down-body"/>
<line x1="262.82" y1="636.17" x2="262.82" y2="650.82" class="down-wick"/>
<rect x="258.82" y="638.87" width="8.00" height="10.60" class="down-body"/>
<line x1="281.18" y1="646.48" x2="281.18" y2="666.31" class="down-wick"/>
<rect x="277.18" y="649.47" width="8.00" height="9.95" class="down-body"/>
<line x1="299.55" y1="642.08" x2="299.55" y2="664.01" class="up-wick"/>
<rect x="295.55" y="642.88" width="8.00" height="16.54" class="up-body"/>
<line x1="317.91" y1="638.80" x2="317.91" y2="649.25" class="down-wick"/>
<rect x="313.91" y="642.88" width="8.00" height="1.79" class="down-body"/>
<line x1="336.27" y1="644.55" x2="336.27" y2="666.53" class="down-wick"/>
<rect x="332.27" y="644.55" width="8.00" height="13.63" class="down-body"/>
<line x1="354.64" y1="653.08" x2="354.64" y2="679.17" class="down-wick"/>
<rect x="350.64" y="657.64" width="8.00" height="11.19" class="down-body"/>
<line x1="373.00" y1="666.75" x2="373.00" y2="679.68" class="down-wick"/>
<rect x="369.00" y="668.82" width="8.00" height="1.00" class="down-body"/>
<line x1="391.36" y1="656.83" x2="391.36" y2="677.24" class="down-wick"/>
<rect x="387.36" y="669.11" width="8.00" height="1.00" class="down-body"/>
<line x1="409.73" y1="642.69" x2="409.73" y2="671.45" class="up-wick"/>
<rect x="405.73" y="653.23" width="8.00" height="16.65" class="up-body"/>
<line x1="428.09" y1="644.26" x2="428.09" y2="658.40" class="down-wick"/>
<rect x="424.09" y="653.23" width="8.00" height="3.86" class="down-body"/>
<line x1="446.45" y1="654.54" x2="446.45" y2="664.09" class="up-wick"/>
<rect x="442.45" y="654.94" width="8.00" height="2.22" class="up-body"/>
<line x1="464.82" y1="645.83" x2="464.82" y2="678.08" class="down-wick"/>
<rect x="460.82" y="654.94" width="8.00" height="20.15" class="down-body"/>
<line x1="483.18" y1="671.67" x2="483.18" y2="694.19" class="down-wick"/>
<rect x="479.18" y="675.09" width="8.00" height="7.36" class="down-body"/>
<line x1="501.55" y1="675.09" x2="501.55" y2="687.95" class="up-wick"/>
<rect x="497.55" y="679.65" width="8.00" height="2.81" class="up-body"/>
<line x1="519.91" y1="670.97" x2="519.91" y2="693.31" class="down-wick"/>
<rect x="515.91" y="679.65" width="8.00" height="12.72" class="down-body"/>
<line x1="538.27" y1="670.32" x2="538.27" y2="694.26" class="up-wick"/>
<rect x="534.27" y="674.54" width="8.00" height="17.82" class="up-body"/>
<line x1="556.64" y1="664.78" x2="556.64" y2="681.61" class="up-wick"/>
<rect x="552.64" y="669.22" width="8.00" height="5.32" class="up-body"/>
<line x1="575.00" y1="668.90" x2="575.00" y2="684.86" class="down-wick"/>
<rect x="571.00" y="669.22" width="8.00" height="7.80" class="down-body"/>
<line x1="593.36" y1="668.82" x2="593.36" y2="697.32" class="down-wick"/>
<rect x="589.36" y="677.02" width="8.00" height="18.91" class="down-body"/>
<line x1="611.73" y1="680.56" x2="611.73" y2="699.47" class="up-wick"/>
<rect x="607.73" y="682.45" width="8.00" height="13.48" class="up-body"/>
<line x1="630.09" y1="667.55" x2="630.09" y2="689.05" class="up-wick"/>
<rect x="626.09" y="672.21" width="8.00" height="10.24" class="up-body"/>
<line x1="648.45" y1="668.60" x2="648.45" y2="684.60" class="down-wick"/>
<rect x="644.45" y="672.21" width="8.00" height="7.83" class="down-body"/>
<line x1="666.82" y1="676.18" x2="666.82" y2="705.74" class="down-wick"/>
<rect x="662.82" y="680.05" width="8.00" height="15.41" class="down-body"/>
<line x1="685.18" y1="695.17" x2="685.18" y2="715.50" class="down-wick"/>
<rect x="681.18" y="695.46" width="8.00" height="11.88" class="down-body"/>
<line x1="703.55" y1="667.18" x2="703.55" y2="708.03" class="up-wick"/>
<rect x="699.55" y="679.76" width="8.00" height="27.59" class="up-body"/>
<line x1="721.91" y1="673.27" x2="721.91" y2="691.49" class="up-wick"/>
<rect x="717.91" y="679.25" width="8.00" height="1.00" class="up-body"/>
<line x1="740.27" y1="677.10" x2="740.27" y2="690.07" class="down-wick"/>
<rect x="736.27" y="679.25" width="8.00" height="9.11" class="down-body"/>
<line x1="758.64" y1="684.71" x2="758.64" y2="728.26" class="down-wick"/>
<rect x="754.64" y="688.36" width="8.00" height="37.35" class="down-body"/>
<line x1="777.00" y1="724.18" x2="777.00" y2="740.76" class="down-wick"/>
<rect x="773.00" y="725.71" width="8.00" height="9.47" class="down-body"/>
<line x1="795.36" y1="730.45" x2="795.36" y2="772.72" class="down-wick"/>
<rect x="791.36" y="735.18" width="8.00" height="34.11" class="down-body"/>
<line x1="813.73" y1="751.73" x2="813.73" y2="774.72" class="up-wick"/>
<rect x="809.73" y="763.64" width="8.00" height="5.65" class="up-body"/>
<line x1="832.09" y1="739.16" x2="832.09" y2="763.75" class="up-wick"/>
<rect x="828.09" y="747.97" width="8.00" height="15.63" class="up-body"/>
<line x1="850.45" y1="735.77" x2="850.45" y2="754.10" class="up-wick"/>
<rect x="846.45" y="736.50" width="8.00" height="11.48" class="up-body"/>
<line x1="868.82" y1="734.02" x2="868.82" y2="756.72" class="down-wick"/>
<rect x="864.82" y="736.50" width="8.00" height="14.36" class="down-body"/>
<line x1="887.18" y1="723.92" x2="887.18" y2="757.56" class="up-wick"/>
<rect x="883.18" y="724.07" width="8.00" height="26.78" class="up-body"/>
<line x1="905.55" y1="718.89" x2="905.55" y2="739.05" class="down-wick"/>
<rect x="901.55" y="724.07" width="8.00" height="8.89" class="down-body"/>
<line x1="923.91" y1="729.79" x2="923.91" y2="738.17" class="up-wick"/>
<rect x="919.91" y="731.39" width="8.00" height="1.57" class="up-body"/>
<line x1="942.27" y1="723.67" x2="942.27" y2="737.70" class="down-wick"/>
<rect x="938.27" y="731.39" width="8.00" height="5.32" class="down-body"/>
<line x1="960.64" y1="735.18" x2="960.64" y2="749.21" class="down-wick"/>
<rect x="956.64" y="736.71" width="8.00" height="12.24" class="down-body"/>
<line x1="979.00" y1="741.34" x2="979.00" y2="761.42" class="down-wick"/>
<rect x="975.00" y="748.96" width="8.00" height="9.80" class="down-body"/>
<line x1="997.36" y1="754.10" x2="997.36" y2="771.59" class="down-wick"/>
<rect x="993.36" y="758.76" width="8.00" height="5.72" class="down-body"/>
<line x1="1015.73" y1="760.98" x2="1015.73" y2="774.76" class="up-wick"/>
<rect x="1011.73" y="762.08" width="8.00" height="2.41" class="up-body"/>
<line x1="1034.09" y1="748.37" x2="1034.09" y2="762.66" class="up-wick"/>
<rect x="1030.09" y="754.39" width="8.00" height="7.69" class="up-body"/>
<line x1="1052.45" y1="746.63" x2="1052.45" y2="754.75" class="up-wick"/>
<rect x="1048.45" y="748.19" width="8.00" height="6.20" class="up-body"/>
<line x1="1070.82" y1="736.42" x2="1070.82" y2="750.01" class="up-wick"/>
<rect x="1066.82" y="739.48" width="8.00" height="8.71" class="up-body"/>
<line x1="70" y1="655.30" x2="1080" y2="655.30" class="number-line"/>
<text x="1076" y="651.30" text-anchor="end" class="level-label">round 4700.00</text>
<line x1="70" y1="655.30" x2="1080" y2="655.30" class="entry-line"/>
<text x="1076" y="651.30" text-anchor="end" class="level-label">entry level 4700.00</text>
<text x="70" y="806" class="axis-label">2026-04-27 14:45:00+00:00 to 2026-04-27 19:15:00+00:00</text>
<text x="1080" y="806" text-anchor="end" class="axis-label">4663.59 - 4716.27</text>
<text x="70" y="832" class="panel-title">M1 execution window</text>
<rect x="70" y="846" width="1010" height="192" class="plot-bg"/>
<line x1="73.71" y1="884.49" x2="73.71" y2="893.92" class="up-wick"/>
<rect x="71.30" y="884.94" width="4.83" height="8.91" class="up-body"/>
<line x1="81.14" y1="889.08" x2="81.14" y2="891.52" class="down-wick"/>
<rect x="78.73" y="889.08" width="4.83" height="1.15" class="down-body"/>
<line x1="88.57" y1="889.08" x2="88.57" y2="893.07" class="down-wick"/>
<rect x="86.15" y="889.56" width="4.83" height="3.51" class="down-body"/>
<line x1="95.99" y1="893.51" x2="95.99" y2="899.54" class="down-wick"/>
<rect x="93.58" y="893.51" width="4.83" height="5.47" class="down-body"/>
<line x1="103.42" y1="893.22" x2="103.42" y2="897.65" class="up-wick"/>
<rect x="101.01" y="893.77" width="4.83" height="2.62" class="up-body"/>
<line x1="110.85" y1="890.26" x2="110.85" y2="894.84" class="down-wick"/>
<rect x="108.43" y="891.33" width="4.83" height="3.51" class="down-body"/>
<line x1="118.27" y1="891.66" x2="118.27" y2="900.24" class="up-wick"/>
<rect x="115.86" y="892.00" width="4.83" height="1.81" class="up-body"/>
<line x1="125.70" y1="884.71" x2="125.70" y2="888.08" class="up-wick"/>
<rect x="123.28" y="885.82" width="4.83" height="1.81" class="up-body"/>
<line x1="133.12" y1="886.90" x2="133.12" y2="893.55" class="down-wick"/>
<rect x="130.71" y="888.34" width="4.83" height="2.96" class="down-body"/>
<line x1="140.55" y1="891.04" x2="140.55" y2="893.99" class="down-wick"/>
<rect x="138.14" y="892.59" width="4.83" height="1.00" class="down-body"/>
<line x1="147.98" y1="882.64" x2="147.98" y2="887.41" class="down-wick"/>
<rect x="145.56" y="884.53" width="4.83" height="1.89" class="down-body"/>
<line x1="155.40" y1="884.38" x2="155.40" y2="891.78" class="up-wick"/>
<rect x="152.99" y="888.15" width="4.83" height="3.62" class="up-body"/>
<line x1="162.83" y1="880.61" x2="162.83" y2="884.79" class="up-wick"/>
<rect x="160.42" y="881.05" width="4.83" height="3.36" class="up-body"/>
<line x1="170.26" y1="878.47" x2="170.26" y2="888.26" class="up-wick"/>
<rect x="167.84" y="881.20" width="4.83" height="2.62" class="up-body"/>
<line x1="177.68" y1="873.07" x2="177.68" y2="877.06" class="up-wick"/>
<rect x="175.27" y="873.33" width="4.83" height="2.74" class="up-body"/>
<line x1="185.11" y1="863.05" x2="185.11" y2="871.52" class="up-wick"/>
<rect x="182.70" y="866.78" width="4.83" height="3.88" class="up-body"/>
<line x1="192.54" y1="865.05" x2="192.54" y2="876.47" class="down-wick"/>
<rect x="190.12" y="865.19" width="4.83" height="7.54" class="down-body"/>
<line x1="199.96" y1="860.61" x2="199.96" y2="865.56" class="up-wick"/>
<rect x="197.55" y="863.42" width="4.83" height="1.00" class="up-body"/>
<line x1="207.39" y1="859.24" x2="207.39" y2="868.59" class="down-wick"/>
<rect x="204.98" y="859.24" width="4.83" height="6.06" class="down-body"/>
<line x1="214.82" y1="865.16" x2="214.82" y2="873.81" class="down-wick"/>
<rect x="212.40" y="865.19" width="4.83" height="4.99" class="down-body"/>
<line x1="222.24" y1="867.23" x2="222.24" y2="874.33" class="down-wick"/>
<rect x="219.83" y="868.82" width="4.83" height="5.47" class="down-body"/>
<line x1="229.67" y1="875.29" x2="229.67" y2="884.09" class="down-wick"/>
<rect x="227.26" y="877.17" width="4.83" height="5.43" class="down-body"/>
<line x1="237.10" y1="877.47" x2="237.10" y2="889.34" class="up-wick"/>
<rect x="234.68" y="877.76" width="4.83" height="11.13" class="up-body"/>
<line x1="244.52" y1="876.88" x2="244.52" y2="883.53" class="up-wick"/>
<rect x="242.11" y="878.72" width="4.83" height="3.73" class="up-body"/>
<line x1="251.95" y1="876.73" x2="251.95" y2="883.24" class="up-wick"/>
<rect x="249.53" y="878.36" width="4.83" height="4.88" class="up-body"/>
<line x1="259.38" y1="884.20" x2="259.38" y2="887.82" class="up-wick"/>
<rect x="256.96" y="885.64" width="4.83" height="1.29" class="up-body"/>
<line x1="266.80" y1="886.45" x2="266.80" y2="891.63" class="up-wick"/>
<rect x="264.39" y="888.04" width="4.83" height="1.00" class="up-body"/>
<line x1="274.23" y1="891.15" x2="274.23" y2="899.06" class="down-wick"/>
<rect x="271.81" y="891.15" width="4.83" height="6.54" class="down-body"/>
<line x1="281.65" y1="896.03" x2="281.65" y2="912.77" class="down-wick"/>
<rect x="279.24" y="904.35" width="4.83" height="7.39" class="down-body"/>
<line x1="289.08" y1="899.39" x2="289.08" y2="909.41" class="up-wick"/>
<rect x="286.67" y="900.54" width="4.83" height="8.13" class="up-body"/>
<line x1="296.51" y1="904.64" x2="296.51" y2="912.44" class="up-wick"/>
<rect x="294.09" y="905.45" width="4.83" height="2.33" class="up-body"/>
<line x1="303.93" y1="898.28" x2="303.93" y2="907.45" class="up-wick"/>
<rect x="301.52" y="900.54" width="4.83" height="1.74" class="up-body"/>
<line x1="311.36" y1="890.19" x2="311.36" y2="893.22" class="up-wick"/>
<rect x="308.95" y="891.00" width="4.83" height="2.07" class="up-body"/>
<line x1="318.79" y1="886.86" x2="318.79" y2="893.92" class="down-wick"/>
<rect x="316.37" y="887.45" width="4.83" height="2.14" class="down-body"/>
<line x1="326.21" y1="891.74" x2="326.21" y2="897.10" class="down-wick"/>
<rect x="323.80" y="892.15" width="4.83" height="2.77" class="down-body"/>
<line x1="333.64" y1="892.70" x2="333.64" y2="905.45" class="down-wick"/>
<rect x="331.23" y="892.70" width="4.83" height="12.57" class="down-body"/>
<line x1="341.07" y1="902.50" x2="341.07" y2="908.86" class="up-wick"/>
<rect x="338.65" y="906.86" width="4.83" height="1.29" class="up-body"/>
<line x1="348.49" y1="905.45" x2="348.49" y2="914.11" class="up-wick"/>
<rect x="346.08" y="906.53" width="4.83" height="5.88" class="up-body"/>
<line x1="355.92" y1="902.39" x2="355.92" y2="927.82" class="down-wick"/>
<rect x="353.51" y="905.71" width="4.83" height="14.49" class="down-body"/>
<line x1="363.35" y1="916.69" x2="363.35" y2="924.79" class="up-wick"/>
<rect x="360.93" y="917.65" width="4.83" height="3.59" class="up-body"/>
<line x1="370.77" y1="917.29" x2="370.77" y2="928.34" class="down-wick"/>
<rect x="368.36" y="917.32" width="4.83" height="7.25" class="down-body"/>
<line x1="378.20" y1="916.69" x2="378.20" y2="925.34" class="down-wick"/>
<rect x="375.78" y="917.54" width="4.83" height="5.18" class="down-body"/>
<line x1="385.62" y1="915.21" x2="385.62" y2="920.87" class="up-wick"/>
<rect x="383.21" y="917.58" width="4.83" height="2.55" class="up-body"/>
<line x1="393.05" y1="905.16" x2="393.05" y2="915.92" class="down-wick"/>
<rect x="390.64" y="910.45" width="4.83" height="3.22" class="down-body"/>
<line x1="400.48" y1="911.15" x2="400.48" y2="922.17" class="down-wick"/>
<rect x="398.06" y="915.03" width="4.83" height="3.77" class="down-body"/>
<line x1="407.90" y1="906.53" x2="407.90" y2="919.98" class="up-wick"/>
<rect x="405.49" y="906.53" width="4.83" height="11.87" class="up-body"/>
<line x1="415.33" y1="897.99" x2="415.33" y2="902.46" class="up-wick"/>
<rect x="412.92" y="898.06" width="4.83" height="3.25" class="up-body"/>
<line x1="422.76" y1="898.25" x2="422.76" y2="903.53" class="down-wick"/>
<rect x="420.34" y="899.10" width="4.83" height="2.40" class="down-body"/>
<line x1="430.18" y1="892.40" x2="430.18" y2="899.61" class="down-wick"/>
<rect x="427.77" y="894.44" width="4.83" height="4.70" class="down-body"/>
<line x1="437.61" y1="902.13" x2="437.61" y2="906.75" class="up-wick"/>
<rect x="435.20" y="904.94" width="4.83" height="1.00" class="up-body"/>
<line x1="445.04" y1="905.49" x2="445.04" y2="910.85" class="down-wick"/>
<rect x="442.62" y="905.49" width="4.83" height="2.18" class="down-body"/>
<line x1="452.46" y1="907.67" x2="452.46" y2="912.52" class="down-wick"/>
<rect x="450.05" y="908.63" width="4.83" height="1.00" class="down-body"/>
<line x1="459.89" y1="902.83" x2="459.89" y2="906.71" class="up-wick"/>
<rect x="457.48" y="903.24" width="4.83" height="3.25" class="up-body"/>
<line x1="467.32" y1="895.73" x2="467.32" y2="913.81" class="up-wick"/>
<rect x="464.90" y="896.51" width="4.83" height="15.12" class="up-body"/>
<line x1="474.74" y1="905.90" x2="474.74" y2="924.79" class="down-wick"/>
<rect x="472.33" y="906.34" width="4.83" height="12.39" class="down-body"/>
<line x1="482.17" y1="920.21" x2="482.17" y2="933.11" class="down-wick"/>
<rect x="479.76" y="923.68" width="4.83" height="2.11" class="down-body"/>
<line x1="489.60" y1="920.24" x2="489.60" y2="930.19" class="up-wick"/>
<rect x="487.18" y="926.60" width="4.83" height="3.59" class="up-body"/>
<line x1="497.02" y1="928.97" x2="497.02" y2="943.05" class="down-wick"/>
<rect x="494.61" y="929.15" width="4.83" height="2.00" class="down-body"/>
<line x1="504.45" y1="923.72" x2="504.45" y2="930.11" class="up-wick"/>
<rect x="502.03" y="925.97" width="4.83" height="1.85" class="up-body"/>
<line x1="511.88" y1="923.68" x2="511.88" y2="932.41" class="down-wick"/>
<rect x="509.46" y="926.60" width="4.83" height="1.22" class="down-body"/>
<line x1="519.30" y1="926.49" x2="519.30" y2="938.28" class="down-wick"/>
<rect x="516.89" y="928.30" width="4.83" height="3.84" class="down-body"/>
<line x1="526.73" y1="920.76" x2="526.73" y2="929.97" class="up-wick"/>
<rect x="524.31" y="924.35" width="4.83" height="1.37" class="up-body"/>
<line x1="534.15" y1="924.42" x2="534.15" y2="942.17" class="down-wick"/>
<rect x="531.74" y="927.71" width="4.83" height="13.49" class="down-body"/>
<line x1="541.58" y1="930.74" x2="541.58" y2="941.80" class="up-wick"/>
<rect x="539.17" y="931.08" width="4.83" height="3.36" class="up-body"/>
<line x1="549.01" y1="918.84" x2="549.01" y2="930.26" class="down-wick"/>
<rect x="546.59" y="920.98" width="4.83" height="9.28" class="down-body"/>
<line x1="556.43" y1="919.50" x2="556.43" y2="925.53" class="down-wick"/>
<rect x="554.02" y="923.13" width="4.83" height="1.59" class="down-body"/>
<line x1="563.86" y1="919.39" x2="563.86" y2="928.75" class="up-wick"/>
<rect x="561.45" y="921.17" width="4.83" height="6.10" class="up-body"/>
<line x1="571.29" y1="913.22" x2="571.29" y2="920.46" class="up-wick"/>
<rect x="568.87" y="917.73" width="4.83" height="2.40" class="up-body"/>
<line x1="578.71" y1="922.35" x2="578.71" y2="932.37" class="down-wick"/>
<rect x="576.30" y="925.09" width="4.83" height="1.00" class="down-body"/>
<line x1="586.14" y1="921.39" x2="586.14" y2="929.63" class="up-wick"/>
<rect x="583.73" y="923.46" width="4.83" height="2.26" class="up-body"/>
<line x1="593.57" y1="925.01" x2="593.57" y2="935.59" class="down-wick"/>
<rect x="591.15" y="925.64" width="4.83" height="1.00" class="down-body"/>
<line x1="600.99" y1="920.21" x2="600.99" y2="934.00" class="down-wick"/>
<rect x="598.58" y="920.21" width="4.83" height="10.65" class="down-body"/>
<line x1="608.42" y1="936.69" x2="608.42" y2="946.23" class="down-wick"/>
<rect x="606.01" y="937.10" width="4.83" height="7.73" class="down-body"/>
<line x1="615.85" y1="933.18" x2="615.85" y2="946.68" class="up-wick"/>
<rect x="613.43" y="934.07" width="4.83" height="11.79" class="up-body"/>
<line x1="623.27" y1="934.81" x2="623.27" y2="940.54" class="down-wick"/>
<rect x="620.86" y="934.81" width="4.83" height="1.40" class="down-body"/>
<line x1="630.70" y1="927.16" x2="630.70" y2="937.66" class="down-wick"/>
<rect x="628.28" y="931.15" width="4.83" height="1.15" class="down-body"/>
<line x1="638.12" y1="927.82" x2="638.12" y2="935.99" class="down-wick"/>
<rect x="635.71" y="929.60" width="4.83" height="2.74" class="down-body"/>
<line x1="645.55" y1="916.03" x2="645.55" y2="927.12" class="up-wick"/>
<rect x="643.14" y="920.76" width="4.83" height="6.36" class="up-body"/>
<line x1="652.98" y1="917.10" x2="652.98" y2="924.42" class="down-wick"/>
<rect x="650.56" y="921.61" width="4.83" height="2.00" class="down-body"/>
<line x1="660.40" y1="923.98" x2="660.40" y2="929.45" class="down-wick"/>
<rect x="657.99" y="925.49" width="4.83" height="1.81" class="down-body"/>
<line x1="667.83" y1="924.79" x2="667.83" y2="930.96" class="down-wick"/>
<rect x="665.42" y="928.71" width="4.83" height="1.00" class="down-body"/>
<line x1="675.26" y1="940.17" x2="675.26" y2="954.77" class="down-wick"/>
<rect x="672.84" y="942.06" width="4.83" height="4.21" class="down-body"/>
<line x1="682.68" y1="939.47" x2="682.68" y2="949.97" class="up-wick"/>
<rect x="680.27" y="944.35" width="4.83" height="3.81" class="up-body"/>
<line x1="690.11" y1="948.97" x2="690.11" y2="959.10" class="up-wick"/>
<rect x="687.70" y="949.93" width="4.83" height="1.33" class="up-body"/>
<line x1="697.54" y1="952.04" x2="697.54" y2="963.24" class="down-wick"/>
<rect x="695.12" y="955.40" width="4.83" height="3.92" class="down-body"/>
<line x1="704.96" y1="937.84" x2="704.96" y2="957.10" class="up-wick"/>
<rect x="702.55" y="938.47" width="4.83" height="17.93" class="up-body"/>
<line x1="712.39" y1="927.23" x2="712.39" y2="935.84" class="down-wick"/>
<rect x="709.98" y="929.82" width="4.83" height="3.77" class="down-body"/>
<line x1="719.82" y1="928.41" x2="719.82" y2="938.03" class="up-wick"/>
<rect x="717.40" y="928.41" width="4.83" height="5.06" class="up-body"/>
<line x1="727.24" y1="930.19" x2="727.24" y2="939.65" class="down-wick"/>
<rect x="724.83" y="930.52" width="4.83" height="7.54" class="down-body"/>
<line x1="734.67" y1="932.92" x2="734.67" y2="940.32" class="up-wick"/>
<rect x="732.26" y="934.40" width="4.83" height="5.55" class="up-body"/>
<line x1="742.10" y1="925.71" x2="742.10" y2="936.88" class="down-wick"/>
<rect x="739.68" y="927.90" width="4.83" height="7.32" class="down-body"/>
<line x1="749.52" y1="930.04" x2="749.52" y2="936.18" class="up-wick"/>
<rect x="747.11" y="930.41" width="4.83" height="5.21" class="up-body"/>
<line x1="756.95" y1="931.67" x2="756.95" y2="938.88" class="down-wick"/>
<rect x="754.53" y="933.40" width="4.83" height="3.73" class="down-body"/>
<line x1="764.38" y1="940.69" x2="764.38" y2="948.27" class="up-wick"/>
<rect x="761.96" y="945.31" width="4.83" height="1.00" class="up-body"/>
<line x1="771.80" y1="956.07" x2="771.80" y2="976.44" class="down-wick"/>
<rect x="769.39" y="957.18" width="4.83" height="16.19" class="down-body"/>
<line x1="779.23" y1="973.48" x2="779.23" y2="989.19" class="down-wick"/>
<rect x="776.81" y="975.03" width="4.83" height="9.83" class="down-body"/>
<line x1="786.65" y1="977.40" x2="786.65" y2="987.38" class="down-wick"/>
<rect x="784.24" y="985.98" width="4.83" height="1.22" class="down-body"/>
<line x1="794.08" y1="983.17" x2="794.08" y2="989.82" class="up-wick"/>
<rect x="791.67" y="984.65" width="4.83" height="4.77" class="up-body"/>
<line x1="801.51" y1="983.31" x2="801.51" y2="994.96" class="down-wick"/>
<rect x="799.09" y="983.31" width="4.83" height="8.87" class="down-body"/>
<line x1="808.93" y1="995.44" x2="808.93" y2="1015.26" class="down-wick"/>
<rect x="806.52" y="1003.20" width="4.83" height="7.99" class="down-body"/>
<line x1="816.36" y1="1012.15" x2="816.36" y2="1024.76" class="up-wick"/>
<rect x="813.95" y="1012.23" width="4.83" height="7.02" class="up-body"/>
<line x1="823.79" y1="1004.68" x2="823.79" y2="1017.62" class="down-wick"/>
<rect x="821.37" y="1006.57" width="4.83" height="1.00" class="down-body"/>
<line x1="831.21" y1="1001.43" x2="831.21" y2="1014.15" class="down-wick"/>
<rect x="828.80" y="1001.98" width="4.83" height="11.53" class="down-body"/>
<line x1="838.64" y1="992.19" x2="838.64" y2="998.47" class="down-wick"/>
<rect x="836.23" y="992.85" width="4.83" height="1.00" class="down-body"/>
<line x1="846.07" y1="988.68" x2="846.07" y2="1007.72" class="down-wick"/>
<rect x="843.65" y="996.22" width="4.83" height="11.50" class="down-body"/>
<line x1="853.49" y1="992.71" x2="853.49" y2="1003.83" class="up-wick"/>
<rect x="851.08" y="995.63" width="4.83" height="2.00" class="up-body"/>
<line x1="860.92" y1="986.35" x2="860.92" y2="991.89" class="up-wick"/>
<rect x="858.51" y="989.82" width="4.83" height="1.00" class="up-body"/>
<line x1="868.35" y1="985.24" x2="868.35" y2="992.08" class="up-wick"/>
<rect x="865.93" y="985.98" width="4.83" height="3.99" class="up-body"/>
<line x1="875.77" y1="983.46" x2="875.77" y2="992.89" class="down-wick"/>
<rect x="873.36" y="986.16" width="4.83" height="6.62" class="down-body"/>
<line x1="883.20" y1="996.62" x2="883.20" y2="1006.31" class="up-wick"/>
<rect x="880.78" y="997.62" width="4.83" height="6.06" class="up-body"/>
<line x1="890.62" y1="999.88" x2="890.62" y2="1007.35" class="down-wick"/>
<rect x="888.21" y="1000.54" width="4.83" height="2.51" class="down-body"/>
<line x1="898.05" y1="987.97" x2="898.05" y2="993.78" class="up-wick"/>
<rect x="895.64" y="990.75" width="4.83" height="1.92" class="up-body"/>
<line x1="905.48" y1="973.22" x2="905.48" y2="987.20" class="up-wick"/>
<rect x="903.06" y="973.37" width="4.83" height="13.24" class="up-body"/>
<line x1="912.90" y1="968.12" x2="912.90" y2="976.92" class="down-wick"/>
<rect x="910.49" y="968.60" width="4.83" height="6.80" class="down-body"/>
<line x1="920.33" y1="979.32" x2="920.33" y2="988.56" class="down-wick"/>
<rect x="917.92" y="980.50" width="4.83" height="7.39" class="down-body"/>
<line x1="927.76" y1="981.65" x2="927.76" y2="987.64" class="down-wick"/>
<rect x="925.34" y="982.39" width="4.83" height="1.37" class="down-body"/>
<line x1="935.18" y1="982.21" x2="935.18" y2="987.16" class="down-wick"/>
<rect x="932.77" y="985.02" width="4.83" height="1.00" class="down-body"/>
<line x1="942.61" y1="979.17" x2="942.61" y2="984.94" class="up-wick"/>
<rect x="940.20" y="980.80" width="4.83" height="3.73" class="up-body"/>
<line x1="950.04" y1="972.96" x2="950.04" y2="981.24" class="up-wick"/>
<rect x="947.62" y="979.40" width="4.83" height="1.81" class="up-body"/>
<line x1="957.46" y1="979.69" x2="957.46" y2="986.86" class="down-wick"/>
<rect x="955.05" y="979.99" width="4.83" height="3.62" class="down-body"/>
<line x1="964.89" y1="984.87" x2="964.89" y2="993.70" class="down-wick"/>
<rect x="962.48" y="986.20" width="4.83" height="6.91" class="down-body"/>
<line x1="972.32" y1="984.65" x2="972.32" y2="992.85" class="up-wick"/>
<rect x="969.90" y="989.60" width="4.83" height="2.66" class="up-body"/>
<line x1="979.74" y1="989.45" x2="979.74" y2="998.88" class="down-wick"/>
<rect x="977.33" y="992.56" width="4.83" height="6.06" class="down-body"/>
<line x1="987.17" y1="990.89" x2="987.17" y2="998.36" class="up-wick"/>
<rect x="984.76" y="991.97" width="4.83" height="5.77" class="up-body"/>
<line x1="994.60" y1="992.96" x2="994.60" y2="1000.17" class="down-wick"/>
<rect x="992.18" y="993.93" width="4.83" height="5.69" class="down-body"/>
<line x1="1002.02" y1="1003.83" x2="1002.02" y2="1012.26" class="up-wick"/>
<rect x="999.61" y="1004.79" width="4.83" height="3.77" class="up-body"/>
<line x1="1009.45" y1="1012.74" x2="1009.45" y2="1017.59" class="up-wick"/>
<rect x="1007.03" y="1014.96" width="4.83" height="1.00" class="up-body"/>
<line x1="1016.88" y1="1012.48" x2="1016.88" y2="1021.58" class="up-wick"/>
<rect x="1014.46" y="1014.37" width="4.83" height="6.58" class="up-body"/>
<line x1="1024.30" y1="1017.48" x2="1024.30" y2="1024.61" class="up-wick"/>
<rect x="1021.89" y="1018.44" width="4.83" height="5.88" class="up-body"/>
<line x1="1031.73" y1="1011.63" x2="1031.73" y2="1018.07" class="down-wick"/>
<rect x="1029.31" y="1014.74" width="4.83" height="1.00" class="down-body"/>
<line x1="1039.15" y1="1004.79" x2="1039.15" y2="1012.52" class="up-wick"/>
<rect x="1036.74" y="1007.49" width="4.83" height="4.44" class="up-body"/>
<line x1="1046.58" y1="999.66" x2="1046.58" y2="1008.57" class="up-wick"/>
<rect x="1044.17" y="1001.02" width="4.83" height="6.47" class="up-body"/>
<line x1="1054.01" y1="1001.36" x2="1054.01" y2="1007.42" class="down-wick"/>
<rect x="1051.59" y="1001.36" width="4.83" height="2.77" class="down-body"/>
<line x1="1061.43" y1="997.22" x2="1061.43" y2="1004.39" class="up-wick"/>
<rect x="1059.02" y="998.92" width="4.83" height="1.85" class="up-body"/>
<line x1="1068.86" y1="996.25" x2="1068.86" y2="999.99" class="down-wick"/>
<rect x="1066.45" y="997.84" width="4.83" height="1.33" class="down-body"/>
<line x1="1076.29" y1="992.19" x2="1076.29" y2="999.69" class="up-wick"/>
<rect x="1073.87" y="994.89" width="4.83" height="2.96" class="up-body"/>
<line x1="70" y1="903.61" x2="1080" y2="903.61" class="number-line"/>
<text x="1076" y="899.61" text-anchor="end" class="level-label">round 4700.00</text>
<line x1="70" y1="903.61" x2="1080" y2="903.61" class="entry-line"/>
<text x="1076" y="899.61" text-anchor="end" class="level-label">entry level 4700.00</text>
<text x="70" y="1056" class="axis-label">2026-04-27 14:45:00+00:00 to 2026-04-27 19:15:00+00:00</text>
<text x="1080" y="1056" text-anchor="end" class="axis-label">4663.65 - 4715.58</text>
</svg>