<svg xmlns="http://www.w3.org/2000/svg" width="1120" height="1054" viewBox="0 0 1120 1054">
<style>
text{font-family:Arial,Helvetica,sans-serif}.title{font-size:21px;font-weight:700;fill:#1f2937}.subtitle{font-size:12px;fill:#4b5563}.panel-title{font-size:15px;font-weight:700;fill:#111827}.muted{font-size:13px;fill:#6b7280}.plot-bg{fill:#f8fafc;stroke:#cbd5e1;stroke-width:1}.up-body{fill:#15803d;stroke:#14532d;stroke-width:.8}.down-body{fill:#b91c1c;stroke:#7f1d1d;stroke-width:.8}.up-wick{stroke:#14532d;stroke-width:1}.down-wick{stroke:#7f1d1d;stroke-width:1}.sweep-line{stroke:#7c3aed;stroke-width:1.6;stroke-dasharray:6 4}.number-line{stroke:#0f766e;stroke-width:1.4;stroke-dasharray:3 4}.entry-line{stroke:#2563eb;stroke-width:1.4}.sl-line{stroke:#dc2626;stroke-width:1.4}.tp-line{stroke:#16a34a;stroke-width:1.4}.level-label,.axis-label{font-size:11px;fill:#374151}
</style>
<text x="28" y="28" class="title">Adelin v2 visual review sample sample_223</text>
<text x="28" y="48" class="subtitle">Candidate windows are for visual labeling only and are not trade signals.</text>
<text x="560" y="48" class="subtitle" text-anchor="middle">NUMBER_THEORY_LEVEL_NEAR | LARGE_LOWER_WICK_REVERSAL_VISUAL_CANDIDATE | NEW_YORK_OPEN_CONTEXT | ROUND_LEVEL_ENTRY_METADATA_AVAILABLE</text>
<text x="70" y="82" class="panel-title">H1 liquidity context</text>
<rect x="70" y="96" width="1010" height="192" class="plot-bg"/>
<line x1="80.98" y1="109.24" x2="80.98" y2="135.90" class="down-wick"/>
<rect x="76.98" y="112.49" width="8.00" height="17.80" class="down-body"/>
<line x1="102.93" y1="123.52" x2="102.93" y2="201.14" class="down-wick"/>
<rect x="98.93" y="130.30" width="8.00" height="64.61" class="down-body"/>
<line x1="124.89" y1="162.92" x2="124.89" y2="205.49" class="down-wick"/>
<rect x="120.89" y="194.88" width="8.00" height="7.59" class="down-body"/>
<line x1="146.85" y1="182.79" x2="146.85" y2="219.37" class="up-wick"/>
<rect x="142.85" y="190.34" width="8.00" height="12.14" class="up-body"/>
<line x1="168.80" y1="171.08" x2="168.80" y2="193.02" class="up-wick"/>
<rect x="164.80" y="189.83" width="8.00" height="1.00" class="up-body"/>
<line x1="190.76" y1="184.07" x2="190.76" y2="201.03" class="up-wick"/>
<rect x="186.76" y="189.81" width="8.00" height="1.00" class="up-body"/>
<line x1="212.72" y1="186.23" x2="212.72" y2="229.48" class="down-wick"/>
<rect x="208.72" y="189.77" width="8.00" height="32.41" class="down-body"/>
<line x1="234.67" y1="212.47" x2="234.67" y2="226.63" class="up-wick"/>
<rect x="230.67" y="219.44" width="8.00" height="2.55" class="up-body"/>
<line x1="256.63" y1="207.28" x2="256.63" y2="238.93" class="up-wick"/>
<rect x="252.63" y="212.72" width="8.00" height="9.68" class="up-body"/>
<line x1="278.59" y1="211.74" x2="278.59" y2="274.76" class="down-wick"/>
<rect x="274.59" y="213.05" width="8.00" height="29.40" class="down-body"/>
<line x1="300.54" y1="206.44" x2="300.54" y2="243.34" class="up-wick"/>
<rect x="296.54" y="212.18" width="8.00" height="30.28" class="up-body"/>
<line x1="322.50" y1="211.31" x2="322.50" y2="258.59" class="down-wick"/>
<rect x="318.50" y="212.06" width="8.00" height="10.56" class="down-body"/>
<line x1="344.46" y1="219.54" x2="344.46" y2="242.12" class="down-wick"/>
<rect x="340.46" y="222.62" width="8.00" height="13.39" class="down-body"/>
<line x1="366.41" y1="217.51" x2="366.41" y2="241.81" class="up-wick"/>
<rect x="362.41" y="219.27" width="8.00" height="16.73" class="up-body"/>
<line x1="388.37" y1="211.57" x2="388.37" y2="226.60" class="down-wick"/>
<rect x="384.37" y="219.27" width="8.00" height="6.82" class="down-body"/>
<line x1="410.33" y1="218.25" x2="410.33" y2="236.35" class="up-wick"/>
<rect x="406.33" y="221.02" width="8.00" height="5.06" class="up-body"/>
<line x1="432.28" y1="200.92" x2="432.28" y2="233.98" class="down-wick"/>
<rect x="428.28" y="221.02" width="8.00" height="5.76" class="down-body"/>
<line x1="454.24" y1="222.14" x2="454.24" y2="248.59" class="down-wick"/>
<rect x="450.24" y="226.78" width="8.00" height="18.06" class="down-body"/>
<line x1="476.20" y1="236.16" x2="476.20" y2="256.06" class="down-wick"/>
<rect x="472.20" y="244.85" width="8.00" height="4.60" class="down-body"/>
<line x1="498.15" y1="248.87" x2="498.15" y2="269.24" class="down-wick"/>
<rect x="494.15" y="249.45" width="8.00" height="16.98" class="down-body"/>
<line x1="520.11" y1="240.46" x2="520.11" y2="272.08" class="up-wick"/>
<rect x="516.11" y="241.16" width="8.00" height="25.26" class="up-body"/>
<line x1="542.07" y1="215.51" x2="542.07" y2="247.59" class="down-wick"/>
<rect x="538.07" y="241.24" width="8.00" height="1.87" class="down-body"/>
<line x1="564.02" y1="212.78" x2="564.02" y2="245.94" class="up-wick"/>
<rect x="560.02" y="218.43" width="8.00" height="24.69" class="up-body"/>
<line x1="585.98" y1="202.80" x2="585.98" y2="224.91" class="up-wick"/>
<rect x="581.98" y="207.73" width="8.00" height="10.70" class="up-body"/>
<line x1="607.93" y1="198.89" x2="607.93" y2="252.82" class="down-wick"/>
<rect x="603.93" y="207.73" width="8.00" height="36.55" class="down-body"/>
<line x1="629.89" y1="233.70" x2="629.89" y2="257.20" class="down-wick"/>
<rect x="625.89" y="244.31" width="8.00" height="9.53" class="down-body"/>
<line x1="651.85" y1="241.14" x2="651.85" y2="267.85" class="up-wick"/>
<rect x="647.85" y="250.00" width="8.00" height="3.85" class="up-body"/>
<line x1="673.80" y1="235.70" x2="673.80" y2="257.16" class="down-wick"/>
<rect x="669.80" y="248.21" width="8.00" height="1.06" class="down-body"/>
<line x1="695.76" y1="220.59" x2="695.76" y2="250.66" class="up-wick"/>
<rect x="691.76" y="226.15" width="8.00" height="23.11" class="up-body"/>
<line x1="717.72" y1="218.05" x2="717.72" y2="231.16" class="up-wick"/>
<rect x="713.72" y="225.99" width="8.00" height="1.00" class="up-body"/>
<line x1="739.67" y1="216.61" x2="739.67" y2="234.86" class="down-wick"/>
<rect x="735.67" y="225.97" width="8.00" height="7.74" class="down-body"/>
<line x1="761.63" y1="222.45" x2="761.63" y2="241.33" class="down-wick"/>
<rect x="757.63" y="231.18" width="8.00" height="6.25" class="down-body"/>
<line x1="783.59" y1="223.18" x2="783.59" y2="237.89" class="up-wick"/>
<rect x="779.59" y="226.02" width="8.00" height="11.42" class="up-body"/>
<line x1="805.54" y1="224.64" x2="805.54" y2="241.80" class="down-wick"/>
<rect x="801.54" y="226.02" width="8.00" height="10.68" class="down-body"/>
<line x1="827.50" y1="209.76" x2="827.50" y2="245.58" class="up-wick"/>
<rect x="823.50" y="209.82" width="8.00" height="26.88" class="up-body"/>
<line x1="849.46" y1="207.91" x2="849.46" y2="218.40" class="down-wick"/>
<rect x="845.46" y="209.85" width="8.00" height="5.58" class="down-body"/>
<line x1="871.41" y1="203.62" x2="871.41" y2="217.68" class="up-wick"/>
<rect x="867.41" y="210.23" width="8.00" height="5.20" class="up-body"/>
<line x1="893.37" y1="194.73" x2="893.37" y2="211.48" class="up-wick"/>
<rect x="889.37" y="199.04" width="8.00" height="11.19" class="up-body"/>
<line x1="915.33" y1="191.92" x2="915.33" y2="218.17" class="down-wick"/>
<rect x="911.33" y="199.04" width="8.00" height="18.48" class="down-body"/>
<line x1="937.28" y1="215.29" x2="937.28" y2="234.13" class="down-wick"/>
<rect x="933.28" y="217.45" width="8.00" height="11.57" class="down-body"/>
<line x1="959.24" y1="209.68" x2="959.24" y2="230.21" class="up-wick"/>
<rect x="955.24" y="216.96" width="8.00" height="12.05" class="up-body"/>
<line x1="981.20" y1="207.95" x2="981.20" y2="220.09" class="up-wick"/>
<rect x="977.20" y="213.16" width="8.00" height="3.80" class="up-body"/>
<line x1="1003.15" y1="211.90" x2="1003.15" y2="229.22" class="down-wick"/>
<rect x="999.15" y="213.16" width="8.00" height="15.39" class="down-body"/>
<line x1="1025.11" y1="222.20" x2="1025.11" y2="248.50" class="down-wick"/>
<rect x="1021.11" y="228.55" width="8.00" height="11.06" class="down-body"/>
<line x1="1047.07" y1="227.52" x2="1047.07" y2="243.34" class="up-wick"/>
<rect x="1043.07" y="236.34" width="8.00" height="3.34" class="up-body"/>
<line x1="1069.02" y1="214.19" x2="1069.02" y2="240.52" class="up-wick"/>
<rect x="1065.02" y="227.31" width="8.00" height="9.07" class="up-body"/>
<line x1="70" y1="218.34" x2="1080" y2="218.34" class="number-line"/>
<text x="1076" y="214.34" text-anchor="end" class="level-label">round 5020.00</text>
<line x1="70" y1="218.34" x2="1080" y2="218.34" class="entry-line"/>
<text x="1076" y="214.34" text-anchor="end" class="level-label">entry level 5020.00</text>
<text x="70" y="306" class="axis-label">2026-03-13 15:00:00+00:00 to 2026-03-17 14:00:00+00:00</text>
<text x="1080" y="306" text-anchor="end" class="axis-label">4955.33 - 5133.58</text>
<text x="70" y="332" class="panel-title">M15 liquidity / reaction context</text>
<rect x="70" y="346" width="1010" height="192" class="plot-bg"/>
<line x1="76.92" y1="378.63" x2="76.92" y2="410.35" class="down-wick"/>
<rect x="72.92" y="384.31" width="8.00" height="4.99" class="down-body"/>
<line x1="90.75" y1="387.33" x2="90.75" y2="485.10" class="down-wick"/>
<rect x="86.75" y="389.03" width="8.00" height="95.78" class="down-body"/>
<line x1="104.59" y1="438.19" x2="104.59" y2="490.88" class="up-wick"/>
<rect x="100.59" y="481.35" width="8.00" height="3.46" class="up-body"/>
<line x1="118.42" y1="441.48" x2="118.42" y2="494.26" class="up-wick"/>
<rect x="114.42" y="442.33" width="8.00" height="39.00" class="up-body"/>
<line x1="132.26" y1="411.88" x2="132.26" y2="445.69" class="up-wick"/>
<rect x="128.26" y="412.90" width="8.00" height="29.18" class="up-body"/>
<line x1="146.10" y1="405.94" x2="146.10" y2="425.94" class="down-wick"/>
<rect x="142.10" y="412.90" width="8.00" height="1.68" class="down-body"/>
<line x1="159.93" y1="406.67" x2="159.93" y2="426.28" class="down-wick"/>
<rect x="155.93" y="414.58" width="8.00" height="5.60" class="down-body"/>
<line x1="173.77" y1="416.44" x2="173.77" y2="445.62" class="down-wick"/>
<rect x="169.77" y="420.19" width="8.00" height="17.10" class="down-body"/>
<line x1="187.60" y1="430.88" x2="187.60" y2="457.02" class="down-wick"/>
<rect x="183.60" y="437.29" width="8.00" height="5.89" class="down-body"/>
<line x1="201.44" y1="435.09" x2="201.44" y2="456.31" class="down-wick"/>
<rect x="197.44" y="443.16" width="8.00" height="10.11" class="down-body"/>
<line x1="215.27" y1="423.57" x2="215.27" y2="455.34" class="up-wick"/>
<rect x="211.27" y="424.69" width="8.00" height="28.57" class="up-body"/>
<line x1="229.11" y1="405.64" x2="229.11" y2="427.06" class="up-wick"/>
<rect x="225.11" y="405.99" width="8.00" height="18.71" class="up-body"/>
<line x1="242.95" y1="401.36" x2="242.95" y2="412.85" class="up-wick"/>
<rect x="238.95" y="405.33" width="8.00" height="1.00" class="up-body"/>
<line x1="256.78" y1="388.50" x2="256.78" y2="405.57" class="up-wick"/>
<rect x="252.78" y="392.69" width="8.00" height="12.64" class="up-body"/>
<line x1="270.62" y1="387.91" x2="270.62" y2="401.36" class="down-wick"/>
<rect x="266.62" y="392.73" width="8.00" height="6.72" class="down-body"/>
<line x1="284.45" y1="391.52" x2="284.45" y2="416.36" class="down-wick"/>
<rect x="280.45" y="399.46" width="8.00" height="11.13" class="down-body"/>
<line x1="298.29" y1="410.42" x2="298.29" y2="421.92" class="down-wick"/>
<rect x="294.29" y="410.59" width="8.00" height="10.16" class="down-body"/>
<line x1="312.12" y1="413.54" x2="312.12" y2="424.79" class="down-wick"/>
<rect x="308.12" y="420.75" width="8.00" height="1.00" class="down-body"/>
<line x1="325.96" y1="419.87" x2="325.96" y2="432.41" class="down-wick"/>
<rect x="321.96" y="421.09" width="8.00" height="4.24" class="down-body"/>
<line x1="339.79" y1="409.62" x2="339.79" y2="443.96" class="up-wick"/>
<rect x="335.79" y="412.17" width="8.00" height="13.15" class="up-body"/>
<line x1="353.63" y1="403.04" x2="353.63" y2="414.34" class="up-wick"/>
<rect x="349.63" y="409.30" width="8.00" height="2.87" class="up-body"/>
<line x1="367.47" y1="384.16" x2="367.47" y2="420.19" class="up-wick"/>
<rect x="363.47" y="385.48" width="8.00" height="23.82" class="up-body"/>
<line x1="381.30" y1="363.85" x2="381.30" y2="389.62" class="up-wick"/>
<rect x="377.30" y="384.40" width="8.00" height="1.07" class="up-body"/>
<line x1="395.14" y1="379.95" x2="395.14" y2="400.87" class="down-wick"/>
<rect x="391.14" y="384.38" width="8.00" height="12.79" class="down-body"/>
<line x1="408.97" y1="395.95" x2="408.97" y2="438.60" class="down-wick"/>
<rect x="404.97" y="397.17" width="8.00" height="25.16" class="down-body"/>
<line x1="422.81" y1="411.83" x2="422.81" y2="428.42" class="down-wick"/>
<rect x="418.81" y="422.33" width="8.00" height="5.46" class="down-body"/>
<line x1="436.64" y1="427.69" x2="436.64" y2="456.29" class="down-wick"/>
<rect x="432.64" y="427.69" width="8.00" height="18.34" class="down-body"/>
<line x1="450.48" y1="434.12" x2="450.48" y2="471.63" class="down-wick"/>
<rect x="446.48" y="446.03" width="8.00" height="23.60" class="down-body"/>
<line x1="464.32" y1="451.66" x2="464.32" y2="469.59" class="up-wick"/>
<rect x="460.32" y="463.18" width="8.00" height="6.41" class="up-body"/>
<line x1="478.15" y1="450.76" x2="478.15" y2="479.79" class="down-wick"/>
<rect x="474.15" y="463.18" width="8.00" height="16.20" class="down-body"/>
<line x1="491.99" y1="443.52" x2="491.99" y2="481.40" class="up-wick"/>
<rect x="487.99" y="459.26" width="8.00" height="20.12" class="up-body"/>
<line x1="505.82" y1="455.36" x2="505.82" y2="488.54" class="down-wick"/>
<rect x="501.82" y="459.26" width="8.00" height="23.73" class="down-body"/>
<line x1="519.66" y1="457.33" x2="519.66" y2="486.66" class="up-wick"/>
<rect x="515.66" y="473.58" width="8.00" height="9.40" class="up-body"/>
<line x1="533.49" y1="472.85" x2="533.49" y2="500.94" class="down-wick"/>
<rect x="529.49" y="473.58" width="8.00" height="14.18" class="down-body"/>
<line x1="547.33" y1="474.51" x2="547.33" y2="491.34" class="up-wick"/>
<rect x="543.33" y="478.75" width="8.00" height="9.01" class="up-body"/>
<line x1="561.16" y1="472.27" x2="561.16" y2="497.77" class="down-wick"/>
<rect x="557.16" y="478.75" width="8.00" height="18.29" class="down-body"/>
<line x1="575.00" y1="487.37" x2="575.00" y2="518.35" class="down-wick"/>
<rect x="571.00" y="497.04" width="8.00" height="14.93" class="down-body"/>
<line x1="588.84" y1="500.01" x2="588.84" y2="524.76" class="up-wick"/>
<rect x="584.84" y="508.41" width="8.00" height="3.56" class="up-body"/>
<line x1="602.67" y1="473.75" x2="602.67" y2="508.90" class="up-wick"/>
<rect x="598.67" y="484.15" width="8.00" height="24.29" class="up-body"/>
<line x1="616.51" y1="480.86" x2="616.51" y2="499.38" class="down-wick"/>
<rect x="612.51" y="484.15" width="8.00" height="3.02" class="down-body"/>
<line x1="630.34" y1="453.27" x2="630.34" y2="490.90" class="up-wick"/>
<rect x="626.34" y="454.85" width="8.00" height="32.32" class="up-body"/>
<line x1="644.18" y1="436.41" x2="644.18" y2="462.38" class="up-wick"/>
<rect x="640.18" y="446.37" width="8.00" height="8.65" class="up-body"/>
<line x1="658.01" y1="396.83" x2="658.01" y2="446.37" class="up-wick"/>
<rect x="654.01" y="405.16" width="8.00" height="41.21" class="up-body"/>
<line x1="671.85" y1="403.21" x2="671.85" y2="418.21" class="down-wick"/>
<rect x="667.85" y="405.16" width="8.00" height="8.84" class="down-body"/>
<line x1="685.68" y1="407.91" x2="685.68" y2="469.39" class="down-wick"/>
<rect x="681.68" y="414.00" width="8.00" height="45.26" class="down-body"/>
<line x1="699.52" y1="435.73" x2="699.52" y2="465.64" class="up-wick"/>
<rect x="695.52" y="438.38" width="8.00" height="20.88" class="up-body"/>
<line x1="713.36" y1="391.64" x2="713.36" y2="445.25" class="up-wick"/>
<rect x="709.36" y="395.90" width="8.00" height="42.48" class="up-body"/>
<line x1="727.19" y1="390.66" x2="727.19" y2="405.84" class="down-wick"/>
<rect x="723.19" y="395.90" width="8.00" height="2.75" class="down-body"/>
<line x1="741.03" y1="397.73" x2="741.03" y2="422.16" class="down-wick"/>
<rect x="737.03" y="398.70" width="8.00" height="4.73" class="down-body"/>
<line x1="754.86" y1="394.46" x2="754.86" y2="418.09" class="up-wick"/>
<rect x="750.86" y="397.22" width="8.00" height="6.21" class="up-body"/>
<line x1="768.70" y1="378.39" x2="768.70" y2="407.01" class="down-wick"/>
<rect x="764.70" y="397.22" width="8.00" height="2.78" class="down-body"/>
<line x1="782.53" y1="368.08" x2="782.53" y2="407.50" class="up-wick"/>
<rect x="778.53" y="375.20" width="8.00" height="24.85" class="up-body"/>
<line x1="796.37" y1="370.13" x2="796.37" y2="395.56" class="down-wick"/>
<rect x="792.37" y="375.20" width="8.00" height="4.04" class="down-body"/>
<line x1="810.21" y1="359.24" x2="810.21" y2="385.94" class="down-wick"/>
<rect x="806.21" y="379.24" width="8.00" height="4.14" class="down-body"/>
<line x1="824.04" y1="379.00" x2="824.04" y2="416.29" class="down-wick"/>
<rect x="820.04" y="383.43" width="8.00" height="32.40" class="down-body"/>
<line x1="837.88" y1="415.02" x2="837.88" y2="450.93" class="down-wick"/>
<rect x="833.88" y="415.83" width="8.00" height="33.86" class="down-body"/>
<line x1="851.71" y1="445.91" x2="851.71" y2="481.21" class="down-wick"/>
<rect x="847.71" y="449.64" width="8.00" height="12.25" class="down-body"/>
<line x1="865.55" y1="446.01" x2="865.55" y2="475.24" class="up-wick"/>
<rect x="861.55" y="455.68" width="8.00" height="6.28" class="up-body"/>
<line x1="879.38" y1="437.97" x2="879.38" y2="489.63" class="down-wick"/>
<rect x="875.38" y="455.68" width="8.00" height="16.05" class="down-body"/>
<line x1="893.22" y1="443.67" x2="893.22" y2="475.16" class="up-wick"/>
<rect x="889.22" y="459.94" width="8.00" height="11.79" class="up-body"/>
<line x1="907.05" y1="453.97" x2="907.05" y2="491.12" class="down-wick"/>
<rect x="903.05" y="459.84" width="8.00" height="23.68" class="down-body"/>
<line x1="920.89" y1="454.80" x2="920.89" y2="487.03" class="up-wick"/>
<rect x="916.89" y="460.57" width="8.00" height="22.95" class="up-body"/>
<line x1="934.73" y1="456.51" x2="934.73" y2="505.30" class="down-wick"/>
<rect x="930.73" y="460.57" width="8.00" height="40.53" class="down-body"/>
<line x1="948.56" y1="477.11" x2="948.56" y2="515.21" class="up-wick"/>
<rect x="944.56" y="483.40" width="8.00" height="17.73" class="up-body"/>
<line x1="962.40" y1="469.27" x2="962.40" y2="492.97" class="up-wick"/>
<rect x="958.40" y="474.82" width="8.00" height="8.65" class="up-body"/>
<line x1="976.23" y1="442.50" x2="976.23" y2="475.12" class="up-wick"/>
<rect x="972.23" y="447.10" width="8.00" height="23.68" class="up-body"/>
<line x1="990.07" y1="444.67" x2="990.07" y2="464.64" class="down-wick"/>
<rect x="986.07" y="447.10" width="8.00" height="14.59" class="down-body"/>
<line x1="1003.90" y1="460.40" x2="1003.90" y2="486.71" class="down-wick"/>
<rect x="999.90" y="461.72" width="8.00" height="20.19" class="down-body"/>
<line x1="1017.74" y1="469.37" x2="1017.74" y2="491.02" class="up-wick"/>
<rect x="1013.74" y="473.17" width="8.00" height="8.74" class="up-body"/>
<line x1="1031.58" y1="449.64" x2="1031.58" y2="476.33" class="up-wick"/>
<rect x="1027.58" y="454.63" width="8.00" height="18.54" class="up-body"/>
<line x1="1045.41" y1="432.34" x2="1045.41" y2="458.75" class="up-wick"/>
<rect x="1041.41" y="436.58" width="8.00" height="17.98" class="up-body"/>
<line x1="1059.25" y1="413.66" x2="1059.25" y2="438.92" class="up-wick"/>
<rect x="1055.25" y="416.34" width="8.00" height="20.02" class="up-body"/>
<line x1="1073.08" y1="408.32" x2="1073.08" y2="423.21" class="down-wick"/>
<rect x="1069.08" y="416.34" width="8.00" height="4.56" class="down-body"/>
<line x1="70" y1="403.23" x2="1080" y2="403.23" class="number-line"/>
<text x="1076" y="399.23" text-anchor="end" class="level-label">round 5020.00</text>
<line x1="70" y1="403.23" x2="1080" y2="403.23" class="entry-line"/>
<text x="1076" y="399.23" text-anchor="end" class="level-label">entry level 5020.00</text>
<text x="70" y="556" class="axis-label">2026-03-16 02:45:00+00:00 to 2026-03-16 20:45:00+00:00</text>
<text x="1080" y="556" text-anchor="end" class="axis-label">4964.67 - 5043.50</text>
<text x="70" y="582" class="panel-title">M5 reaction / execution context</text>
<rect x="70" y="596" width="1010" height="192" class="plot-bg"/>
<line x1="79.18" y1="684.13" x2="79.18" y2="719.84" class="up-wick"/>
<rect x="75.18" y="686.88" width="8.00" height="32.96" class="up-body"/>
<line x1="97.55" y1="663.54" x2="97.55" y2="690.50" class="up-wick"/>
<rect x="93.55" y="664.71" width="8.00" height="22.14" class="up-body"/>
<line x1="115.91" y1="656.95" x2="115.91" y2="672.63" class="down-wick"/>
<rect x="111.91" y="664.71" width="8.00" height="2.81" class="down-body"/>
<line x1="134.27" y1="665.05" x2="134.27" y2="676.22" class="down-wick"/>
<rect x="130.27" y="667.53" width="8.00" height="3.52" class="down-body"/>
<line x1="152.64" y1="666.51" x2="152.64" y2="679.00" class="up-wick"/>
<rect x="148.64" y="669.88" width="8.00" height="1.17" class="up-body"/>
<line x1="171.00" y1="667.28" x2="171.00" y2="684.10" class="down-wick"/>
<rect x="167.00" y="669.88" width="8.00" height="8.87" class="down-body"/>
<line x1="189.36" y1="671.02" x2="189.36" y2="694.46" class="down-wick"/>
<rect x="185.36" y="678.75" width="8.00" height="12.86" class="down-body"/>
<line x1="207.73" y1="690.75" x2="207.73" y2="738.58" class="down-wick"/>
<rect x="203.73" y="691.61" width="8.00" height="38.56" class="down-body"/>
<line x1="226.09" y1="726.86" x2="226.09" y2="749.06" class="down-wick"/>
<rect x="222.09" y="730.17" width="8.00" height="6.03" class="down-body"/>
<line x1="244.45" y1="721.95" x2="244.45" y2="744.30" class="up-wick"/>
<rect x="240.45" y="725.63" width="8.00" height="10.57" class="up-body"/>
<line x1="262.82" y1="712.82" x2="262.82" y2="731.04" class="down-wick"/>
<rect x="258.82" y="725.63" width="8.00" height="5.41" class="down-body"/>
<line x1="281.18" y1="706.33" x2="281.18" y2="731.04" class="up-wick"/>
<rect x="277.18" y="709.70" width="8.00" height="21.34" class="up-body"/>
<line x1="299.55" y1="683.64" x2="299.55" y2="718.42" class="up-wick"/>
<rect x="295.55" y="685.49" width="8.00" height="24.21" class="up-body"/>
<line x1="317.91" y1="667.00" x2="317.91" y2="688.68" class="up-wick"/>
<rect x="313.91" y="684.59" width="8.00" height="1.00" class="up-body"/>
<line x1="336.27" y1="650.37" x2="336.27" y2="684.78" class="up-wick"/>
<rect x="332.27" y="655.78" width="8.00" height="28.66" class="up-body"/>
<line x1="354.64" y1="649.13" x2="354.64" y2="668.11" class="down-wick"/>
<rect x="350.64" y="655.78" width="8.00" height="1.98" class="down-body"/>
<line x1="373.00" y1="651.85" x2="373.00" y2="668.39" class="up-wick"/>
<rect x="369.00" y="654.48" width="8.00" height="3.22" class="up-body"/>
<line x1="391.36" y1="650.80" x2="391.36" y2="667.53" class="down-wick"/>
<rect x="387.36" y="654.48" width="8.00" height="4.79" class="down-body"/>
<line x1="409.73" y1="658.10" x2="409.73" y2="675.23" class="down-wick"/>
<rect x="405.73" y="659.33" width="8.00" height="13.20" class="down-body"/>
<line x1="428.09" y1="667.84" x2="428.09" y2="689.11" class="up-wick"/>
<rect x="424.09" y="669.29" width="8.00" height="3.25" class="up-body"/>
<line x1="446.45" y1="660.07" x2="446.45" y2="678.81" class="up-wick"/>
<rect x="442.45" y="665.33" width="8.00" height="4.24" class="up-body"/>
<line x1="464.82" y1="660.48" x2="464.82" y2="683.95" class="down-wick"/>
<rect x="460.82" y="665.33" width="8.00" height="13.11" class="down-body"/>
<line x1="483.18" y1="661.78" x2="483.18" y2="678.44" class="up-wick"/>
<rect x="479.18" y="662.98" width="8.00" height="15.46" class="up-body"/>
<line x1="501.55" y1="653.95" x2="501.55" y2="666.66" class="up-wick"/>
<rect x="497.55" y="657.45" width="8.00" height="5.53" class="up-body"/>
<line x1="519.91" y1="633.54" x2="519.91" y2="657.85" class="up-wick"/>
<rect x="515.91" y="644.40" width="8.00" height="13.05" class="up-body"/>
<line x1="538.27" y1="643.44" x2="538.27" y2="654.88" class="down-wick"/>
<rect x="534.27" y="644.40" width="8.00" height="1.00" class="down-body"/>
<line x1="556.64" y1="640.25" x2="556.64" y2="669.88" class="down-wick"/>
<rect x="552.64" y="644.92" width="8.00" height="16.05" class="down-body"/>
<line x1="575.00" y1="634.72" x2="575.00" y2="670.49" class="up-wick"/>
<rect x="571.00" y="638.58" width="8.00" height="22.45" class="up-body"/>
<line x1="593.36" y1="620.47" x2="593.36" y2="644.68" class="down-wick"/>
<rect x="589.36" y="638.58" width="8.00" height="2.81" class="down-body"/>
<line x1="611.73" y1="623.12" x2="611.73" y2="657.45" class="up-wick"/>
<rect x="607.73" y="629.49" width="8.00" height="11.90" class="up-body"/>
<line x1="630.09" y1="623.06" x2="630.09" y2="652.87" class="down-wick"/>
<rect x="626.09" y="629.49" width="8.00" height="8.91" class="down-body"/>
<line x1="648.45" y1="635.03" x2="648.45" y2="652.53" class="up-wick"/>
<rect x="644.45" y="638.06" width="8.00" height="1.00" class="up-body"/>
<line x1="666.82" y1="631.29" x2="666.82" y2="655.34" class="up-wick"/>
<rect x="662.82" y="634.63" width="8.00" height="3.43" class="up-body"/>
<line x1="685.18" y1="620.90" x2="685.18" y2="643.13" class="up-wick"/>
<rect x="681.18" y="631.94" width="8.00" height="2.69" class="up-body"/>
<line x1="703.55" y1="609.24" x2="703.55" y2="634.13" class="up-wick"/>
<rect x="699.55" y="625.60" width="8.00" height="6.34" class="up-body"/>
<line x1="721.91" y1="610.76" x2="721.91" y2="642.26" class="down-wick"/>
<rect x="717.91" y="625.69" width="8.00" height="14.19" class="down-body"/>
<line x1="740.27" y1="634.32" x2="740.27" y2="652.28" class="down-wick"/>
<rect x="736.27" y="639.95" width="8.00" height="11.29" class="down-body"/>
<line x1="758.64" y1="640.29" x2="758.64" y2="666.48" class="down-wick"/>
<rect x="754.64" y="651.20" width="8.00" height="9.31" class="down-body"/>
<line x1="777.00" y1="659.55" x2="777.00" y2="681.66" class="down-wick"/>
<rect x="773.00" y="660.51" width="8.00" height="20.56" class="down-body"/>
<line x1="795.36" y1="680.05" x2="795.36" y2="704.69" class="down-wick"/>
<rect x="791.36" y="681.07" width="8.00" height="12.06" class="down-body"/>
<line x1="813.73" y1="684.87" x2="813.73" y2="707.48" class="down-wick"/>
<rect x="809.73" y="693.13" width="8.00" height="14.13" class="down-body"/>
<line x1="832.09" y1="696.93" x2="832.09" y2="725.63" class="down-wick"/>
<rect x="828.09" y="707.26" width="8.00" height="16.79" class="down-body"/>
<line x1="850.45" y1="719.26" x2="850.45" y2="764.06" class="down-wick"/>
<rect x="846.45" y="723.99" width="8.00" height="5.19" class="down-body"/>
<line x1="868.82" y1="727.20" x2="868.82" y2="753.73" class="down-wick"/>
<rect x="864.82" y="729.18" width="8.00" height="11.04" class="down-body"/>
<line x1="887.18" y1="724.33" x2="887.18" y2="752.25" class="up-wick"/>
<rect x="883.18" y="739.54" width="8.00" height="1.00" class="up-body"/>
<line x1="905.55" y1="719.38" x2="905.55" y2="750.64" class="up-wick"/>
<rect x="901.55" y="730.20" width="8.00" height="9.43" class="up-body"/>
<line x1="923.91" y1="728.63" x2="923.91" y2="747.95" class="down-wick"/>
<rect x="919.91" y="730.20" width="8.00" height="5.87" class="down-body"/>
<line x1="942.27" y1="731.13" x2="942.27" y2="756.48" class="up-wick"/>
<rect x="938.27" y="731.66" width="8.00" height="4.42" class="up-body"/>
<line x1="960.64" y1="712.42" x2="960.64" y2="733.79" class="up-wick"/>
<rect x="956.64" y="712.42" width="8.00" height="19.23" class="up-body"/>
<line x1="979.00" y1="709.18" x2="979.00" y2="723.93" class="down-wick"/>
<rect x="975.00" y="712.45" width="8.00" height="10.70" class="down-body"/>
<line x1="997.36" y1="722.41" x2="997.36" y2="774.76" class="down-wick"/>
<rect x="993.36" y="723.37" width="8.00" height="28.66" class="down-body"/>
<line x1="1015.73" y1="739.76" x2="1015.73" y2="756.39" class="up-wick"/>
<rect x="1011.73" y="741.55" width="8.00" height="10.48" class="up-body"/>
<line x1="1034.09" y1="720.09" x2="1034.09" y2="741.58" class="up-wick"/>
<rect x="1030.09" y="726.28" width="8.00" height="15.27" class="up-body"/>
<line x1="1052.45" y1="716.41" x2="1052.45" y2="737.13" class="down-wick"/>
<rect x="1048.45" y="726.31" width="8.00" height="10.76" class="down-body"/>
<line x1="1070.82" y1="729.49" x2="1070.82" y2="747.58" class="down-wick"/>
<rect x="1066.82" y="736.94" width="8.00" height="4.89" class="down-body"/>
<line x1="70" y1="665.08" x2="1080" y2="665.08" class="number-line"/>
<text x="1076" y="661.08" text-anchor="end" class="level-label">round 5020.00</text>
<line x1="70" y1="665.08" x2="1080" y2="665.08" class="entry-line"/>
<text x="1076" y="661.08" text-anchor="end" class="level-label">entry level 5020.00</text>
<text x="70" y="806" class="axis-label">2026-03-16 13:15:00+00:00 to 2026-03-16 17:45:00+00:00</text>
<text x="1080" y="806" text-anchor="end" class="axis-label">4980.25 - 5042.34</text>
<text x="70" y="832" class="panel-title">M1 execution window</text>
<rect x="70" y="846" width="1010" height="192" class="plot-bg"/>
<line x1="73.71" y1="964.71" x2="73.71" y2="968.89" class="up-wick"/>
<rect x="71.30" y="966.79" width="4.83" height="2.11" class="up-body"/>
<line x1="81.14" y1="960.06" x2="81.14" y2="965.28" class="up-wick"/>
<rect x="78.73" y="960.18" width="4.83" height="3.27" class="up-body"/>
<line x1="88.57" y1="932.56" x2="88.57" y2="950.87" class="up-wick"/>
<rect x="86.15" y="935.36" width="4.83" height="14.85" class="up-body"/>
<line x1="95.99" y1="931.09" x2="95.99" y2="938.38" class="up-wick"/>
<rect x="93.58" y="933.95" width="4.83" height="4.31" class="up-body"/>
<line x1="103.42" y1="912.65" x2="103.42" y2="926.93" class="up-wick"/>
<rect x="101.01" y="923.44" width="4.83" height="3.49" class="up-body"/>
<line x1="110.85" y1="908.78" x2="110.85" y2="918.19" class="up-wick"/>
<rect x="108.43" y="908.85" width="4.83" height="3.96" class="up-body"/>
<line x1="118.27" y1="906.36" x2="118.27" y2="916.11" class="down-wick"/>
<rect x="115.86" y="906.93" width="4.83" height="3.40" class="down-body"/>
<line x1="125.70" y1="913.82" x2="125.70" y2="920.86" class="down-wick"/>
<rect x="123.28" y="914.29" width="4.83" height="1.38" class="down-body"/>
<line x1="133.12" y1="917.18" x2="133.12" y2="924.51" class="up-wick"/>
<rect x="130.71" y="917.94" width="4.83" height="4.21" class="up-body"/>
<line x1="140.55" y1="913.16" x2="140.55" y2="921.43" class="up-wick"/>
<rect x="138.14" y="919.54" width="4.83" height="1.67" class="up-body"/>
<line x1="147.98" y1="916.93" x2="147.98" y2="924.04" class="down-wick"/>
<rect x="145.56" y="919.26" width="4.83" height="2.67" class="down-body"/>
<line x1="155.40" y1="916.77" x2="155.40" y2="920.45" class="up-wick"/>
<rect x="152.99" y="919.76" width="4.83" height="1.00" class="up-body"/>
<line x1="162.83" y1="918.03" x2="162.83" y2="921.46" class="up-wick"/>
<rect x="160.42" y="918.06" width="4.83" height="1.70" class="up-body"/>
<line x1="170.26" y1="919.16" x2="170.26" y2="921.40" class="up-wick"/>
<rect x="167.84" y="919.32" width="4.83" height="1.00" class="up-body"/>
<line x1="177.68" y1="924.83" x2="177.68" y2="932.53" class="down-wick"/>
<rect x="175.27" y="926.08" width="4.83" height="3.33" class="down-body"/>
<line x1="185.11" y1="919.23" x2="185.11" y2="931.93" class="down-wick"/>
<rect x="182.70" y="927.09" width="4.83" height="4.84" class="down-body"/>
<line x1="192.54" y1="934.32" x2="192.54" y2="937.06" class="up-wick"/>
<rect x="190.12" y="935.08" width="4.83" height="1.00" class="up-body"/>
<line x1="199.96" y1="937.75" x2="199.96" y2="943.07" class="down-wick"/>
<rect x="197.55" y="937.88" width="4.83" height="2.30" class="down-body"/>
<line x1="207.39" y1="943.07" x2="207.39" y2="952.51" class="down-wick"/>
<rect x="204.98" y="944.26" width="4.83" height="7.64" class="down-body"/>
<line x1="214.82" y1="956.28" x2="214.82" y2="974.97" class="down-wick"/>
<rect x="212.40" y="956.28" width="4.83" height="18.68" class="down-body"/>
<line x1="222.24" y1="977.10" x2="222.24" y2="990.63" class="down-wick"/>
<rect x="219.83" y="979.40" width="4.83" height="1.00" class="down-body"/>
<line x1="229.67" y1="981.76" x2="229.67" y2="988.40" class="down-wick"/>
<rect x="227.26" y="982.86" width="4.83" height="1.29" class="down-body"/>
<line x1="237.10" y1="983.77" x2="237.10" y2="998.62" class="down-wick"/>
<rect x="234.68" y="985.03" width="4.83" height="1.00" class="down-body"/>
<line x1="244.52" y1="973.80" x2="244.52" y2="990.88" class="up-wick"/>
<rect x="242.11" y="977.86" width="4.83" height="13.02" class="up-body"/>
<line x1="251.95" y1="971.03" x2="251.95" y2="981.51" class="up-wick"/>
<rect x="249.53" y="978.93" width="4.83" height="1.00" class="up-body"/>
<line x1="259.38" y1="967.57" x2="259.38" y2="975.37" class="up-wick"/>
<rect x="256.96" y="968.71" width="4.83" height="6.07" class="up-body"/>
<line x1="266.80" y1="961.75" x2="266.80" y2="968.17" class="up-wick"/>
<rect x="264.39" y="963.20" width="4.83" height="2.74" class="up-body"/>
<line x1="274.23" y1="972.26" x2="274.23" y2="980.28" class="down-wick"/>
<rect x="271.81" y="973.11" width="4.83" height="7.17" class="down-body"/>
<line x1="281.65" y1="967.70" x2="281.65" y2="975.09" class="down-wick"/>
<rect x="279.24" y="973.11" width="4.83" height="1.95" class="down-body"/>
<line x1="289.08" y1="962.67" x2="289.08" y2="972.10" class="up-wick"/>
<rect x="286.67" y="962.73" width="4.83" height="6.57" class="up-body"/>
<line x1="296.51" y1="958.58" x2="296.51" y2="967.45" class="down-wick"/>
<rect x="294.09" y="958.58" width="4.83" height="5.57" class="down-body"/>
<line x1="303.93" y1="947.06" x2="303.93" y2="959.74" class="up-wick"/>
<rect x="301.52" y="947.16" width="4.83" height="11.86" class="up-body"/>
<line x1="311.36" y1="932.06" x2="311.36" y2="942.25" class="up-wick"/>
<rect x="308.95" y="933.95" width="4.83" height="8.21" class="up-body"/>
<line x1="318.79" y1="917.43" x2="318.79" y2="929.61" class="up-wick"/>
<rect x="316.37" y="919.38" width="4.83" height="6.26" class="up-body"/>
<line x1="326.21" y1="915.14" x2="326.21" y2="926.30" class="down-wick"/>
<rect x="323.80" y="917.53" width="4.83" height="7.71" class="down-body"/>
<line x1="333.64" y1="926.59" x2="333.64" y2="933.22" class="up-wick"/>
<rect x="331.23" y="926.68" width="4.83" height="6.20" class="up-body"/>
<line x1="341.07" y1="916.49" x2="341.07" y2="925.55" class="up-wick"/>
<rect x="338.65" y="917.21" width="4.83" height="1.35" class="up-body"/>
<line x1="348.49" y1="898.21" x2="348.49" y2="906.90" class="down-wick"/>
<rect x="346.08" y="899.19" width="4.83" height="4.53" class="down-body"/>
<line x1="355.92" y1="896.96" x2="355.92" y2="911.87" class="down-wick"/>
<rect x="353.51" y="906.55" width="4.83" height="5.10" class="down-body"/>
<line x1="363.35" y1="904.73" x2="363.35" y2="916.27" class="down-wick"/>
<rect x="360.93" y="904.76" width="4.83" height="5.06" class="down-body"/>
<line x1="370.77" y1="899.82" x2="370.77" y2="905.73" class="up-wick"/>
<rect x="368.36" y="899.82" width="4.83" height="5.85" class="up-body"/>
<line x1="378.20" y1="906.99" x2="378.20" y2="915.86" class="up-wick"/>
<rect x="375.78" y="911.90" width="4.83" height="1.04" class="up-body"/>
<line x1="385.62" y1="900.54" x2="385.62" y2="909.57" class="up-wick"/>
<rect x="383.21" y="902.40" width="4.83" height="7.08" class="up-body"/>
<line x1="393.05" y1="910.95" x2="393.05" y2="915.67" class="up-wick"/>
<rect x="390.64" y="911.55" width="4.83" height="2.89" class="up-body"/>
<line x1="400.48" y1="903.78" x2="400.48" y2="911.58" class="up-wick"/>
<rect x="398.06" y="903.78" width="4.83" height="5.03" class="up-body"/>
<line x1="407.90" y1="906.08" x2="407.90" y2="910.54" class="down-wick"/>
<rect x="405.49" y="907.34" width="4.83" height="1.00" class="down-body"/>
<line x1="415.33" y1="906.74" x2="415.33" y2="915.33" class="down-wick"/>
<rect x="412.92" y="912.02" width="4.83" height="2.64" class="down-body"/>
<line x1="422.76" y1="916.52" x2="422.76" y2="923.50" class="down-wick"/>
<rect x="420.34" y="918.88" width="4.83" height="1.89" class="down-body"/>
<line x1="430.18" y1="924.23" x2="430.18" y2="937.63" class="down-wick"/>
<rect x="427.77" y="929.29" width="4.83" height="1.00" class="down-body"/>
<line x1="437.61" y1="918.85" x2="437.61" y2="927.37" class="up-wick"/>
<rect x="435.20" y="920.23" width="4.83" height="6.67" class="up-body"/>
<line x1="445.04" y1="917.62" x2="445.04" y2="927.15" class="down-wick"/>
<rect x="442.62" y="917.75" width="4.83" height="7.45" class="down-body"/>
<line x1="452.46" y1="913.50" x2="452.46" y2="922.50" class="up-wick"/>
<rect x="450.05" y="913.60" width="4.83" height="6.95" class="up-body"/>
<line x1="459.89" y1="908.09" x2="459.89" y2="914.70" class="down-wick"/>
<rect x="457.48" y="911.05" width="4.83" height="2.39" class="down-body"/>
<line x1="467.32" y1="914.29" x2="467.32" y2="927.69" class="down-wick"/>
<rect x="464.90" y="916.93" width="4.83" height="9.59" class="down-body"/>
<line x1="474.74" y1="923.03" x2="474.74" y2="932.37" class="down-wick"/>
<rect x="472.33" y="923.03" width="4.83" height="1.00" class="down-body"/>
<line x1="482.17" y1="920.42" x2="482.17" y2="926.78" class="up-wick"/>
<rect x="479.76" y="921.90" width="4.83" height="4.88" class="up-body"/>
<line x1="489.60" y1="919.13" x2="489.60" y2="923.38" class="up-wick"/>
<rect x="487.18" y="920.08" width="4.83" height="3.18" class="up-body"/>
<line x1="497.02" y1="909.82" x2="497.02" y2="917.28" class="up-wick"/>
<rect x="494.61" y="911.05" width="4.83" height="3.77" class="up-body"/>
<line x1="504.45" y1="906.33" x2="504.45" y2="910.20" class="up-wick"/>
<rect x="502.03" y="907.62" width="4.83" height="1.23" class="up-body"/>
<line x1="511.88" y1="902.96" x2="511.88" y2="913.19" class="down-wick"/>
<rect x="509.46" y="903.34" width="4.83" height="8.08" class="down-body"/>
<line x1="519.30" y1="887.39" x2="519.30" y2="905.83" class="up-wick"/>
<rect x="516.89" y="887.93" width="4.83" height="17.49" class="up-body"/>
<line x1="526.73" y1="881.70" x2="526.73" y2="890.35" class="down-wick"/>
<rect x="524.31" y="883.43" width="4.83" height="2.26" class="down-body"/>
<line x1="534.15" y1="884.75" x2="534.15" y2="893.75" class="down-wick"/>
<rect x="531.74" y="884.81" width="4.83" height="7.33" class="down-body"/>
<line x1="541.58" y1="894.41" x2="541.58" y2="899.76" class="down-wick"/>
<rect x="539.17" y="897.43" width="4.83" height="1.00" class="down-body"/>
<line x1="549.01" y1="891.17" x2="549.01" y2="899.69" class="up-wick"/>
<rect x="546.59" y="896.52" width="4.83" height="3.18" class="up-body"/>
<line x1="556.43" y1="887.93" x2="556.43" y2="897.24" class="down-wick"/>
<rect x="554.02" y="892.68" width="4.83" height="1.00" class="down-body"/>
<line x1="563.86" y1="890.22" x2="563.86" y2="902.37" class="down-wick"/>
<rect x="561.45" y="890.54" width="4.83" height="11.51" class="down-body"/>
<line x1="571.29" y1="906.93" x2="571.29" y2="918.06" class="up-wick"/>
<rect x="568.87" y="909.00" width="4.83" height="2.96" class="up-body"/>
<line x1="578.71" y1="893.97" x2="578.71" y2="910.64" class="down-wick"/>
<rect x="576.30" y="901.96" width="4.83" height="1.07" class="down-body"/>
<line x1="586.14" y1="902.37" x2="586.14" y2="916.58" class="up-wick"/>
<rect x="583.73" y="902.87" width="4.83" height="10.51" class="up-body"/>
<line x1="593.57" y1="873.08" x2="593.57" y2="887.21" class="up-wick"/>
<rect x="591.15" y="873.55" width="4.83" height="12.68" class="up-body"/>
<line x1="600.99" y1="869.68" x2="600.99" y2="882.08" class="down-wick"/>
<rect x="598.58" y="872.39" width="4.83" height="1.00" class="down-body"/>
<line x1="608.42" y1="880.00" x2="608.42" y2="891.92" class="up-wick"/>
<rect x="606.01" y="889.09" width="4.83" height="2.61" class="up-body"/>
<line x1="615.85" y1="894.25" x2="615.85" y2="905.42" class="down-wick"/>
<rect x="613.43" y="895.26" width="4.83" height="3.77" class="down-body"/>
<line x1="623.27" y1="871.07" x2="623.27" y2="888.21" class="up-wick"/>
<rect x="620.86" y="873.90" width="4.83" height="14.31" class="up-body"/>
<line x1="630.70" y1="870.44" x2="630.70" y2="887.08" class="down-wick"/>
<rect x="628.28" y="876.98" width="4.83" height="9.06" class="down-body"/>
<line x1="638.12" y1="872.48" x2="638.12" y2="882.58" class="up-wick"/>
<rect x="635.71" y="873.33" width="4.83" height="9.22" class="up-body"/>
<line x1="645.55" y1="885.85" x2="645.55" y2="900.76" class="up-wick"/>
<rect x="643.14" y="886.04" width="4.83" height="12.33" class="up-body"/>
<line x1="652.98" y1="891.73" x2="652.98" y2="900.42" class="down-wick"/>
<rect x="650.56" y="894.88" width="4.83" height="3.71" class="down-body"/>
<line x1="660.40" y1="888.15" x2="660.40" y2="896.86" class="up-wick"/>
<rect x="657.99" y="888.15" width="4.83" height="7.45" class="up-body"/>
<line x1="667.83" y1="882.90" x2="667.83" y2="893.06" class="down-wick"/>
<rect x="665.42" y="885.70" width="4.83" height="4.94" class="down-body"/>
<line x1="675.26" y1="891.26" x2="675.26" y2="901.96" class="down-wick"/>
<rect x="672.84" y="897.71" width="4.83" height="1.00" class="down-body"/>
<line x1="682.68" y1="878.81" x2="682.68" y2="890.54" class="up-wick"/>
<rect x="680.27" y="882.20" width="4.83" height="1.00" class="up-body"/>
<line x1="690.11" y1="868.24" x2="690.11" y2="876.54" class="down-wick"/>
<rect x="687.70" y="871.16" width="4.83" height="4.03" class="down-body"/>
<line x1="697.54" y1="868.27" x2="697.54" y2="882.58" class="down-wick"/>
<rect x="695.12" y="869.50" width="4.83" height="12.05" class="down-body"/>
<line x1="704.96" y1="870.79" x2="704.96" y2="881.70" class="up-wick"/>
<rect x="702.55" y="874.18" width="4.83" height="5.28" class="up-body"/>
<line x1="712.39" y1="869.78" x2="712.39" y2="880.41" class="up-wick"/>
<rect x="709.98" y="870.88" width="4.83" height="5.35" class="up-body"/>
<line x1="719.82" y1="859.34" x2="719.82" y2="874.84" class="down-wick"/>
<rect x="717.40" y="859.34" width="4.83" height="13.68" class="down-body"/>
<line x1="727.24" y1="859.24" x2="727.24" y2="866.16" class="down-wick"/>
<rect x="724.83" y="859.49" width="4.83" height="4.06" class="down-body"/>
<line x1="734.67" y1="867.17" x2="734.67" y2="885.19" class="down-wick"/>
<rect x="732.26" y="871.13" width="4.83" height="11.73" class="down-body"/>
<line x1="742.10" y1="882.42" x2="742.10" y2="897.90" class="down-wick"/>
<rect x="739.68" y="887.61" width="4.83" height="3.43" class="down-body"/>
<line x1="749.52" y1="886.61" x2="749.52" y2="896.01" class="up-wick"/>
<rect x="747.11" y="889.12" width="4.83" height="1.00" class="up-body"/>
<line x1="756.95" y1="886.42" x2="756.95" y2="900.16" class="down-wick"/>
<rect x="754.53" y="887.65" width="4.83" height="11.45" class="down-body"/>
<line x1="764.38" y1="887.96" x2="764.38" y2="897.59" class="up-wick"/>
<rect x="761.96" y="889.03" width="4.83" height="6.70" class="up-body"/>
<line x1="771.80" y1="895.01" x2="771.80" y2="908.85" class="down-wick"/>
<rect x="769.39" y="895.98" width="4.83" height="9.18" class="down-body"/>
<line x1="779.23" y1="907.56" x2="779.23" y2="916.77" class="down-wick"/>
<rect x="776.81" y="908.53" width="4.83" height="6.10" class="down-body"/>
<line x1="786.65" y1="910.17" x2="786.65" y2="922.15" class="down-wick"/>
<rect x="784.24" y="911.27" width="4.83" height="8.81" class="down-body"/>
<line x1="794.08" y1="922.47" x2="794.08" y2="930.05" class="down-wick"/>
<rect x="791.67" y="924.70" width="4.83" height="4.75" class="down-body"/>
<line x1="801.51" y1="938.13" x2="801.51" y2="949.20" class="up-wick"/>
<rect x="799.09" y="943.20" width="4.83" height="1.00" class="up-body"/>
<line x1="808.93" y1="933.41" x2="808.93" y2="953.48" class="down-wick"/>
<rect x="806.52" y="934.51" width="4.83" height="17.46" class="down-body"/>
<line x1="816.36" y1="934.32" x2="816.36" y2="950.24" class="up-wick"/>
<rect x="813.95" y="935.05" width="4.83" height="6.67" class="up-body"/>
<line x1="823.79" y1="937.91" x2="823.79" y2="950.08" class="down-wick"/>
<rect x="821.37" y="937.91" width="4.83" height="11.39" class="down-body"/>
<line x1="831.21" y1="945.81" x2="831.21" y2="956.31" class="down-wick"/>
<rect x="828.80" y="954.93" width="4.83" height="1.16" class="down-body"/>
<line x1="838.64" y1="957.04" x2="838.64" y2="964.36" class="up-wick"/>
<rect x="836.23" y="961.69" width="4.83" height="1.98" class="up-body"/>
<line x1="846.07" y1="964.14" x2="846.07" y2="972.26" class="down-wick"/>
<rect x="843.65" y="965.65" width="4.83" height="6.51" class="down-body"/>
<line x1="853.49" y1="969.71" x2="853.49" y2="974.84" class="down-wick"/>
<rect x="851.08" y="973.11" width="4.83" height="1.00" class="down-body"/>
<line x1="860.92" y1="968.30" x2="860.92" y2="991.48" class="down-wick"/>
<rect x="858.51" y="975.66" width="4.83" height="14.97" class="down-body"/>
<line x1="868.35" y1="975.03" x2="868.35" y2="1000.73" class="up-wick"/>
<rect x="865.93" y="978.39" width="4.83" height="22.30" class="up-body"/>
<line x1="875.77" y1="987.04" x2="875.77" y2="1003.37" class="down-wick"/>
<rect x="873.36" y="987.04" width="4.83" height="4.66" class="down-body"/>
<line x1="883.20" y1="984.53" x2="883.20" y2="993.71" class="up-wick"/>
<rect x="880.78" y="985.69" width="4.83" height="6.29" class="up-body"/>
<line x1="890.62" y1="989.78" x2="890.62" y2="1001.86" class="down-wick"/>
<rect x="888.21" y="989.78" width="4.83" height="5.60" class="down-body"/>
<line x1="898.05" y1="973.46" x2="898.05" y2="984.90" class="down-wick"/>
<rect x="895.64" y="977.86" width="4.83" height="1.00" class="down-body"/>
<line x1="905.48" y1="983.93" x2="905.48" y2="993.27" class="up-wick"/>
<rect x="903.06" y="988.93" width="4.83" height="1.00" class="up-body"/>
<line x1="912.90" y1="984.81" x2="912.90" y2="995.57" class="down-wick"/>
<rect x="910.49" y="986.98" width="4.83" height="4.25" class="down-body"/>
<line x1="920.33" y1="970.00" x2="920.33" y2="986.32" class="up-wick"/>
<rect x="917.92" y="977.89" width="4.83" height="6.83" class="up-body"/>
<line x1="927.76" y1="979.40" x2="927.76" y2="991.83" class="down-wick"/>
<rect x="925.34" y="979.43" width="4.83" height="9.81" class="down-body"/>
<line x1="935.18" y1="981.35" x2="935.18" y2="990.09" class="up-wick"/>
<rect x="932.77" y="981.57" width="4.83" height="4.25" class="up-body"/>
<line x1="942.61" y1="982.01" x2="942.61" y2="992.17" class="up-wick"/>
<rect x="940.20" y="985.41" width="4.83" height="4.88" class="up-body"/>
<line x1="950.04" y1="991.29" x2="950.04" y2="1005.07" class="up-wick"/>
<rect x="947.62" y="993.78" width="4.83" height="7.55" class="up-body"/>
<line x1="957.46" y1="991.45" x2="957.46" y2="998.68" class="up-wick"/>
<rect x="955.05" y="991.86" width="4.83" height="5.72" class="up-body"/>
<line x1="964.89" y1="974.37" x2="964.89" y2="983.08" class="up-wick"/>
<rect x="962.48" y="979.49" width="4.83" height="1.42" class="up-body"/>
<line x1="972.32" y1="966.22" x2="972.32" y2="970.75" class="up-wick"/>
<rect x="969.90" y="968.30" width="4.83" height="2.45" class="up-body"/>
<line x1="979.74" y1="961.34" x2="979.74" y2="967.98" class="up-wick"/>
<rect x="977.33" y="961.34" width="4.83" height="6.64" class="up-body"/>
<line x1="987.17" y1="958.04" x2="987.17" y2="967.20" class="up-wick"/>
<rect x="984.76" y="961.75" width="4.83" height="3.24" class="up-body"/>
<line x1="994.60" y1="967.76" x2="994.60" y2="973.05" class="down-wick"/>
<rect x="992.18" y="968.36" width="4.83" height="1.23" class="down-body"/>
<line x1="1002.02" y1="971.50" x2="1002.02" y2="993.43" class="down-wick"/>
<rect x="999.61" y="972.48" width="4.83" height="20.57" class="down-body"/>
<line x1="1009.45" y1="981.73" x2="1009.45" y2="992.58" class="up-wick"/>
<rect x="1007.03" y="991.70" width="4.83" height="1.00" class="up-body"/>
<line x1="1016.88" y1="998.30" x2="1016.88" y2="1024.76" class="up-wick"/>
<rect x="1014.46" y="1001.64" width="4.83" height="11.83" class="up-body"/>
<line x1="1024.30" y1="990.54" x2="1024.30" y2="997.55" class="down-wick"/>
<rect x="1021.89" y="993.49" width="4.83" height="2.04" class="down-body"/>
<line x1="1031.73" y1="992.64" x2="1031.73" y2="999.34" class="up-wick"/>
<rect x="1029.31" y="995.54" width="4.83" height="1.00" class="up-body"/>
<line x1="1039.15" y1="982.01" x2="1039.15" y2="991.01" class="up-wick"/>
<rect x="1036.74" y="987.04" width="4.83" height="3.93" class="up-body"/>
<line x1="1046.58" y1="977.39" x2="1046.58" y2="980.60" class="up-wick"/>
<rect x="1044.17" y="978.08" width="4.83" height="2.52" class="up-body"/>
<line x1="1054.01" y1="969.15" x2="1054.01" y2="976.19" class="up-wick"/>
<rect x="1051.59" y="975.44" width="4.83" height="1.00" class="up-body"/>
<line x1="1061.43" y1="976.25" x2="1061.43" y2="981.92" class="up-wick"/>
<rect x="1059.02" y="976.32" width="4.83" height="1.57" class="up-body"/>
<line x1="1068.86" y1="967.32" x2="1068.86" y2="975.63" class="up-wick"/>
<rect x="1066.45" y="970.34" width="4.83" height="1.00" class="up-body"/>
<line x1="1076.29" y1="985.22" x2="1076.29" y2="997.11" class="down-wick"/>
<rect x="1073.87" y="986.29" width="4.83" height="1.00" class="down-body"/>
<line x1="70" y1="913.19" x2="1080" y2="913.19" class="number-line"/>
<text x="1076" y="909.19" text-anchor="end" class="level-label">round 5020.00</text>
<line x1="70" y1="913.19" x2="1080" y2="913.19" class="entry-line"/>
<text x="1076" y="909.19" text-anchor="end" class="level-label">entry level 5020.00</text>
<text x="70" y="1056" class="axis-label">2026-03-16 13:15:00+00:00 to 2026-03-16 17:45:00+00:00</text>
<text x="1080" y="1056" text-anchor="end" class="axis-label">4980.32 - 5041.36</text>
</svg>