<svg xmlns="http://www.w3.org/2000/svg" width="1120" height="1054" viewBox="0 0 1120 1054">
<style>
text{font-family:Arial,Helvetica,sans-serif}.title{font-size:21px;font-weight:700;fill:#1f2937}.subtitle{font-size:12px;fill:#4b5563}.panel-title{font-size:15px;font-weight:700;fill:#111827}.muted{font-size:13px;fill:#6b7280}.plot-bg{fill:#f8fafc;stroke:#cbd5e1;stroke-width:1}.up-body{fill:#15803d;stroke:#14532d;stroke-width:.8}.down-body{fill:#b91c1c;stroke:#7f1d1d;stroke-width:.8}.up-wick{stroke:#14532d;stroke-width:1}.down-wick{stroke:#7f1d1d;stroke-width:1}.sweep-line{stroke:#7c3aed;stroke-width:1.6;stroke-dasharray:6 4}.number-line{stroke:#0f766e;stroke-width:1.4;stroke-dasharray:3 4}.entry-line{stroke:#2563eb;stroke-width:1.4}.sl-line{stroke:#dc2626;stroke-width:1.4}.tp-line{stroke:#16a34a;stroke-width:1.4}.level-label,.axis-label{font-size:11px;fill:#374151}
</style>
<text x="28" y="28" class="title">Adelin v2 visual review sample sample_170</text>
<text x="28" y="48" class="subtitle">Candidate windows are for visual labeling only and are not trade signals.</text>
<text x="560" y="48" class="subtitle" text-anchor="middle">M15_SWING_LOW_SWEEP_VISUAL_CANDIDATE | PRE_ANCHOR_SWEEP_EXTREME_CANDIDATE</text>
<text x="70" y="82" class="panel-title">H1 liquidity context</text>
<rect x="70" y="96" width="1010" height="192" class="plot-bg"/>
<line x1="75.80" y1="239.15" x2="75.80" y2="245.59" class="up-wick"/>
<rect x="72.03" y="240.69" width="7.55" height="1.00" class="up-body"/>
<line x1="87.41" y1="238.99" x2="87.41" y2="247.11" class="down-wick"/>
<rect x="83.64" y="240.68" width="7.55" height="2.65" class="down-body"/>
<line x1="99.02" y1="237.00" x2="99.02" y2="268.84" class="down-wick"/>
<rect x="95.25" y="243.33" width="7.55" height="18.41" class="down-body"/>
<line x1="110.63" y1="243.91" x2="110.63" y2="266.37" class="up-wick"/>
<rect x="106.86" y="246.15" width="7.55" height="15.59" class="up-body"/>
<line x1="122.24" y1="243.79" x2="122.24" y2="253.39" class="down-wick"/>
<rect x="118.47" y="246.15" width="7.55" height="1.00" class="down-body"/>
<line x1="133.85" y1="237.19" x2="133.85" y2="249.58" class="up-wick"/>
<rect x="130.08" y="240.11" width="7.55" height="6.54" class="up-body"/>
<line x1="145.46" y1="238.89" x2="145.46" y2="264.30" class="down-wick"/>
<rect x="141.69" y="239.78" width="7.55" height="11.41" class="down-body"/>
<line x1="157.07" y1="242.19" x2="157.07" y2="254.53" class="up-wick"/>
<rect x="153.30" y="244.21" width="7.55" height="6.99" class="up-body"/>
<line x1="168.68" y1="241.80" x2="168.68" y2="255.41" class="down-wick"/>
<rect x="164.91" y="244.21" width="7.55" height="5.02" class="down-body"/>
<line x1="180.29" y1="219.55" x2="180.29" y2="250.30" class="up-wick"/>
<rect x="176.51" y="224.81" width="7.55" height="24.43" class="up-body"/>
<line x1="191.90" y1="217.12" x2="191.90" y2="240.77" class="down-wick"/>
<rect x="188.12" y="224.81" width="7.55" height="7.88" class="down-body"/>
<line x1="203.51" y1="226.24" x2="203.51" y2="247.02" class="down-wick"/>
<rect x="199.73" y="232.68" width="7.55" height="12.40" class="down-body"/>
<line x1="215.11" y1="237.16" x2="215.11" y2="260.44" class="up-wick"/>
<rect x="211.34" y="240.05" width="7.55" height="5.02" class="up-body"/>
<line x1="226.72" y1="232.62" x2="226.72" y2="248.63" class="down-wick"/>
<rect x="222.95" y="240.05" width="7.55" height="5.39" class="down-body"/>
<line x1="238.33" y1="237.90" x2="238.33" y2="256.07" class="down-wick"/>
<rect x="234.56" y="245.44" width="7.55" height="5.02" class="down-body"/>
<line x1="249.94" y1="238.97" x2="249.94" y2="274.76" class="down-wick"/>
<rect x="246.17" y="250.46" width="7.55" height="7.24" class="down-body"/>
<line x1="261.55" y1="240.31" x2="261.55" y2="263.06" class="up-wick"/>
<rect x="257.78" y="242.85" width="7.55" height="14.84" class="up-body"/>
<line x1="273.16" y1="234.35" x2="273.16" y2="244.81" class="up-wick"/>
<rect x="269.39" y="241.84" width="7.55" height="1.00" class="up-body"/>
<line x1="284.77" y1="222.33" x2="284.77" y2="243.95" class="up-wick"/>
<rect x="281.00" y="229.31" width="7.55" height="12.54" class="up-body"/>
<line x1="296.38" y1="222.52" x2="296.38" y2="241.56" class="down-wick"/>
<rect x="292.61" y="229.31" width="7.55" height="9.15" class="down-body"/>
<line x1="307.99" y1="201.16" x2="307.99" y2="239.35" class="up-wick"/>
<rect x="304.22" y="213.01" width="7.55" height="25.45" class="up-body"/>
<line x1="319.60" y1="134.40" x2="319.60" y2="209.70" class="up-wick"/>
<rect x="315.82" y="135.37" width="7.55" height="74.33" class="up-body"/>
<line x1="331.21" y1="123.42" x2="331.21" y2="145.97" class="up-wick"/>
<rect x="327.43" y="125.30" width="7.55" height="10.08" class="up-body"/>
<line x1="342.82" y1="109.24" x2="342.82" y2="141.61" class="down-wick"/>
<rect x="339.04" y="125.30" width="7.55" height="10.28" class="down-body"/>
<line x1="354.43" y1="130.62" x2="354.43" y2="155.29" class="down-wick"/>
<rect x="350.65" y="135.57" width="7.55" height="5.08" class="down-body"/>
<line x1="366.03" y1="130.68" x2="366.03" y2="148.30" class="down-wick"/>
<rect x="362.26" y="140.66" width="7.55" height="4.07" class="down-body"/>
<line x1="377.64" y1="143.54" x2="377.64" y2="150.67" class="down-wick"/>
<rect x="373.87" y="144.73" width="7.55" height="4.26" class="down-body"/>
<line x1="389.25" y1="143.07" x2="389.25" y2="153.86" class="up-wick"/>
<rect x="385.48" y="145.00" width="7.55" height="3.99" class="up-body"/>
<line x1="400.86" y1="118.42" x2="400.86" y2="147.17" class="up-wick"/>
<rect x="397.09" y="129.19" width="7.55" height="15.80" class="up-body"/>
<line x1="412.47" y1="121.07" x2="412.47" y2="134.16" class="down-wick"/>
<rect x="408.70" y="129.21" width="7.55" height="4.89" class="down-body"/>
<line x1="424.08" y1="133.37" x2="424.08" y2="143.95" class="down-wick"/>
<rect x="420.31" y="134.11" width="7.55" height="4.40" class="down-body"/>
<line x1="435.69" y1="134.20" x2="435.69" y2="153.64" class="down-wick"/>
<rect x="431.92" y="138.49" width="7.55" height="12.95" class="down-body"/>
<line x1="447.30" y1="142.98" x2="447.30" y2="162.98" class="down-wick"/>
<rect x="443.53" y="151.44" width="7.55" height="6.99" class="down-body"/>
<line x1="458.91" y1="149.93" x2="458.91" y2="166.37" class="down-wick"/>
<rect x="455.14" y="158.43" width="7.55" height="1.00" class="down-body"/>
<line x1="470.52" y1="145.59" x2="470.52" y2="161.91" class="up-wick"/>
<rect x="466.74" y="148.40" width="7.55" height="10.46" class="up-body"/>
<line x1="482.13" y1="142.63" x2="482.13" y2="168.01" class="up-wick"/>
<rect x="478.35" y="147.60" width="7.55" height="1.00" class="up-body"/>
<line x1="493.74" y1="142.96" x2="493.74" y2="168.80" class="down-wick"/>
<rect x="489.96" y="147.60" width="7.55" height="14.50" class="down-body"/>
<line x1="505.34" y1="152.70" x2="505.34" y2="192.06" class="down-wick"/>
<rect x="501.57" y="162.10" width="7.55" height="27.35" class="down-body"/>
<line x1="516.95" y1="171.73" x2="516.95" y2="190.54" class="up-wick"/>
<rect x="513.18" y="176.12" width="7.55" height="13.33" class="up-body"/>
<line x1="528.56" y1="170.11" x2="528.56" y2="183.47" class="up-wick"/>
<rect x="524.79" y="173.48" width="7.55" height="2.64" class="up-body"/>
<line x1="540.17" y1="170.91" x2="540.17" y2="192.36" class="down-wick"/>
<rect x="536.40" y="173.48" width="7.55" height="17.48" class="down-body"/>
<line x1="551.78" y1="184.07" x2="551.78" y2="211.11" class="down-wick"/>
<rect x="548.01" y="190.97" width="7.55" height="19.09" class="down-body"/>
<line x1="563.39" y1="192.41" x2="563.39" y2="213.70" class="up-wick"/>
<rect x="559.62" y="193.23" width="7.55" height="16.82" class="up-body"/>
<line x1="575.00" y1="192.05" x2="575.00" y2="210.42" class="down-wick"/>
<rect x="571.23" y="200.86" width="7.55" height="1.00" class="down-body"/>
<line x1="586.61" y1="200.26" x2="586.61" y2="210.03" class="down-wick"/>
<rect x="582.84" y="201.79" width="7.55" height="1.26" class="down-body"/>
<line x1="598.22" y1="200.83" x2="598.22" y2="214.39" class="down-wick"/>
<rect x="594.45" y="203.05" width="7.55" height="5.95" class="down-body"/>
<line x1="609.83" y1="194.86" x2="609.83" y2="213.51" class="up-wick"/>
<rect x="606.05" y="195.44" width="7.55" height="13.56" class="up-body"/>
<line x1="621.44" y1="191.71" x2="621.44" y2="201.71" class="down-wick"/>
<rect x="617.66" y="195.44" width="7.55" height="5.44" class="down-body"/>
<line x1="633.05" y1="199.98" x2="633.05" y2="210.00" class="down-wick"/>
<rect x="629.27" y="200.88" width="7.55" height="4.98" class="down-body"/>
<line x1="644.66" y1="196.70" x2="644.66" y2="207.04" class="up-wick"/>
<rect x="640.88" y="199.51" width="7.55" height="6.35" class="up-body"/>
<line x1="656.26" y1="195.88" x2="656.26" y2="209.60" class="down-wick"/>
<rect x="652.49" y="199.51" width="7.55" height="5.25" class="down-body"/>
<line x1="667.87" y1="196.68" x2="667.87" y2="211.15" class="down-wick"/>
<rect x="664.10" y="204.76" width="7.55" height="1.00" class="down-body"/>
<line x1="679.48" y1="192.69" x2="679.48" y2="209.70" class="up-wick"/>
<rect x="675.71" y="197.30" width="7.55" height="7.81" class="up-body"/>
<line x1="691.09" y1="191.45" x2="691.09" y2="200.39" class="up-wick"/>
<rect x="687.32" y="196.14" width="7.55" height="1.16" class="up-body"/>
<line x1="702.70" y1="191.42" x2="702.70" y2="198.30" class="up-wick"/>
<rect x="698.93" y="194.14" width="7.55" height="1.96" class="up-body"/>
<line x1="714.31" y1="182.55" x2="714.31" y2="197.80" class="up-wick"/>
<rect x="710.54" y="186.31" width="7.55" height="7.83" class="up-body"/>
<line x1="725.92" y1="175.43" x2="725.92" y2="188.11" class="up-wick"/>
<rect x="722.15" y="176.06" width="7.55" height="10.26" class="up-body"/>
<line x1="737.53" y1="174.03" x2="737.53" y2="190.48" class="down-wick"/>
<rect x="733.76" y="176.06" width="7.55" height="7.07" class="down-body"/>
<line x1="749.14" y1="162.44" x2="749.14" y2="187.87" class="up-wick"/>
<rect x="745.36" y="170.85" width="7.55" height="12.27" class="up-body"/>
<line x1="760.75" y1="163.01" x2="760.75" y2="182.24" class="up-wick"/>
<rect x="756.97" y="168.12" width="7.55" height="2.73" class="up-body"/>
<line x1="772.36" y1="148.69" x2="772.36" y2="173.00" class="up-wick"/>
<rect x="768.58" y="152.15" width="7.55" height="15.97" class="up-body"/>
<line x1="783.97" y1="146.74" x2="783.97" y2="157.63" class="down-wick"/>
<rect x="780.19" y="152.15" width="7.55" height="2.58" class="down-body"/>
<line x1="795.57" y1="146.58" x2="795.57" y2="156.19" class="up-wick"/>
<rect x="791.80" y="148.79" width="7.55" height="5.94" class="up-body"/>
<line x1="807.18" y1="148.60" x2="807.18" y2="168.49" class="down-wick"/>
<rect x="803.41" y="148.79" width="7.55" height="16.99" class="down-body"/>
<line x1="818.79" y1="158.88" x2="818.79" y2="169.24" class="down-wick"/>
<rect x="815.02" y="165.78" width="7.55" height="2.19" class="down-body"/>
<line x1="830.40" y1="160.48" x2="830.40" y2="174.77" class="down-wick"/>
<rect x="826.63" y="169.51" width="7.55" height="1.55" class="down-body"/>
<line x1="842.01" y1="171.02" x2="842.01" y2="175.96" class="down-wick"/>
<rect x="838.24" y="171.06" width="7.55" height="1.00" class="down-body"/>
<line x1="853.62" y1="171.36" x2="853.62" y2="179.94" class="down-wick"/>
<rect x="849.85" y="171.38" width="7.55" height="1.00" class="down-body"/>
<line x1="865.23" y1="162.48" x2="865.23" y2="175.20" class="up-wick"/>
<rect x="861.46" y="170.83" width="7.55" height="1.18" class="up-body"/>
<line x1="876.84" y1="170.25" x2="876.84" y2="188.47" class="down-wick"/>
<rect x="873.07" y="170.83" width="7.55" height="7.59" class="down-body"/>
<line x1="888.45" y1="167.45" x2="888.45" y2="178.53" class="up-wick"/>
<rect x="884.68" y="169.51" width="7.55" height="8.94" class="up-body"/>
<line x1="900.06" y1="166.69" x2="900.06" y2="175.21" class="down-wick"/>
<rect x="896.28" y="169.51" width="7.55" height="5.27" class="down-body"/>
<line x1="911.67" y1="167.75" x2="911.67" y2="175.51" class="up-wick"/>
<rect x="907.89" y="169.93" width="7.55" height="4.84" class="up-body"/>
<line x1="923.28" y1="169.93" x2="923.28" y2="185.18" class="down-wick"/>
<rect x="919.50" y="169.93" width="7.55" height="12.91" class="down-body"/>
<line x1="934.89" y1="175.40" x2="934.89" y2="186.18" class="up-wick"/>
<rect x="931.11" y="180.69" width="7.55" height="2.15" class="up-body"/>
<line x1="946.49" y1="178.25" x2="946.49" y2="193.20" class="down-wick"/>
<rect x="942.72" y="180.69" width="7.55" height="5.84" class="down-body"/>
<line x1="958.10" y1="173.27" x2="958.10" y2="186.63" class="up-wick"/>
<rect x="954.33" y="179.41" width="7.55" height="7.12" class="up-body"/>
<line x1="969.71" y1="173.34" x2="969.71" y2="185.51" class="up-wick"/>
<rect x="965.94" y="175.61" width="7.55" height="3.79" class="up-body"/>
<line x1="981.32" y1="167.99" x2="981.32" y2="178.18" class="up-wick"/>
<rect x="977.55" y="168.45" width="7.55" height="7.16" class="up-body"/>
<line x1="992.93" y1="159.08" x2="992.93" y2="173.95" class="up-wick"/>
<rect x="989.16" y="166.00" width="7.55" height="2.45" class="up-body"/>
<line x1="1004.54" y1="160.46" x2="1004.54" y2="170.43" class="up-wick"/>
<rect x="1000.77" y="163.83" width="7.55" height="2.17" class="up-body"/>
<line x1="1016.15" y1="150.67" x2="1016.15" y2="168.90" class="down-wick"/>
<rect x="1012.38" y="163.83" width="7.55" height="1.00" class="down-body"/>
<line x1="1027.76" y1="155.80" x2="1027.76" y2="176.93" class="down-wick"/>
<rect x="1023.99" y="164.15" width="7.55" height="8.18" class="down-body"/>
<line x1="1039.37" y1="169.76" x2="1039.37" y2="182.03" class="up-wick"/>
<rect x="1035.59" y="171.28" width="7.55" height="1.14" class="up-body"/>
<line x1="1050.98" y1="168.09" x2="1050.98" y2="175.03" class="down-wick"/>
<rect x="1047.20" y="171.24" width="7.55" height="2.34" class="down-body"/>
<line x1="1062.59" y1="165.12" x2="1062.59" y2="179.77" class="up-wick"/>
<rect x="1058.81" y="170.36" width="7.55" height="3.21" class="up-body"/>
<line x1="1074.20" y1="166.91" x2="1074.20" y2="174.91" class="down-wick"/>
<rect x="1070.42" y="170.36" width="7.55" height="3.64" class="down-body"/>
<line x1="70" y1="174.45" x2="1080" y2="174.45" class="sweep-line"/>
<text x="1076" y="170.45" text-anchor="end" class="level-label">sweep 4759.05</text>
<line x1="70" y1="174.45" x2="1080" y2="174.45" class="entry-line"/>
<text x="1076" y="170.45" text-anchor="end" class="level-label">entry level 4759.05</text>
<text x="70" y="306" class="axis-label">2026-04-07 02:00:00+00:00 to 2026-04-10 22:00:00+00:00</text>
<text x="1080" y="306" text-anchor="end" class="axis-label">4587.25 - 4877.74</text>
<text x="70" y="332" class="panel-title">M15 liquidity / reaction context</text>
<rect x="70" y="346" width="1010" height="192" class="plot-bg"/>
<line x1="77.77" y1="494.88" x2="77.77" y2="513.67" class="up-wick"/>
<rect x="73.77" y="509.06" width="8.00" height="1.00" class="up-body"/>
<line x1="93.31" y1="501.26" x2="93.31" y2="515.84" class="down-wick"/>
<rect x="89.31" y="509.06" width="8.00" height="4.56" class="down-body"/>
<line x1="108.85" y1="492.99" x2="108.85" y2="514.69" class="up-wick"/>
<rect x="104.85" y="497.27" width="8.00" height="16.35" class="up-body"/>
<line x1="124.38" y1="483.04" x2="124.38" y2="503.95" class="up-wick"/>
<rect x="120.38" y="483.69" width="8.00" height="13.58" class="up-body"/>
<line x1="139.92" y1="468.02" x2="139.92" y2="484.84" class="up-wick"/>
<rect x="135.92" y="470.38" width="8.00" height="13.31" class="up-body"/>
<line x1="155.46" y1="462.76" x2="155.46" y2="507.02" class="down-wick"/>
<rect x="151.46" y="470.38" width="8.00" height="35.16" class="down-body"/>
<line x1="171.00" y1="501.18" x2="171.00" y2="524.76" class="down-wick"/>
<rect x="167.00" y="505.55" width="8.00" height="12.39" class="down-body"/>
<line x1="186.54" y1="491.71" x2="186.54" y2="523.84" class="up-wick"/>
<rect x="182.54" y="502.11" width="8.00" height="15.65" class="up-body"/>
<line x1="202.08" y1="493.41" x2="202.08" y2="517.81" class="up-wick"/>
<rect x="198.08" y="497.02" width="8.00" height="5.06" class="up-body"/>
<line x1="217.62" y1="470.16" x2="217.62" y2="514.94" class="up-wick"/>
<rect x="213.62" y="474.99" width="8.00" height="22.03" class="up-body"/>
<line x1="233.15" y1="465.32" x2="233.15" y2="482.52" class="down-wick"/>
<rect x="229.15" y="474.99" width="8.00" height="4.91" class="down-body"/>
<line x1="248.69" y1="419.05" x2="248.69" y2="485.39" class="up-wick"/>
<rect x="244.69" y="422.76" width="8.00" height="57.09" class="up-body"/>
<line x1="264.23" y1="420.29" x2="264.23" y2="462.09" class="down-wick"/>
<rect x="260.23" y="422.76" width="8.00" height="28.01" class="down-body"/>
<line x1="279.77" y1="421.22" x2="279.77" y2="457.13" class="up-wick"/>
<rect x="275.77" y="434.77" width="8.00" height="15.97" class="up-body"/>
<line x1="295.31" y1="428.97" x2="295.31" y2="461.19" class="down-wick"/>
<rect x="291.31" y="434.77" width="8.00" height="13.13" class="down-body"/>
<line x1="310.85" y1="442.67" x2="310.85" y2="493.71" class="down-wick"/>
<rect x="306.85" y="447.91" width="8.00" height="23.55" class="down-body"/>
<line x1="326.38" y1="439.63" x2="326.38" y2="473.77" class="up-wick"/>
<rect x="322.38" y="440.45" width="8.00" height="31.00" class="up-body"/>
<line x1="341.92" y1="436.14" x2="341.92" y2="458.87" class="up-wick"/>
<rect x="337.92" y="438.89" width="8.00" height="1.57" class="up-body"/>
<line x1="357.46" y1="396.20" x2="357.46" y2="438.89" class="up-wick"/>
<rect x="353.46" y="414.99" width="8.00" height="23.90" class="up-body"/>
<line x1="373.00" y1="367.19" x2="373.00" y2="416.66" class="up-wick"/>
<rect x="369.00" y="386.58" width="8.00" height="28.01" class="up-body"/>
<line x1="388.54" y1="376.64" x2="388.54" y2="401.68" class="up-wick"/>
<rect x="384.54" y="380.25" width="8.00" height="6.33" class="up-body"/>
<line x1="404.08" y1="359.86" x2="404.08" y2="392.53" class="down-wick"/>
<rect x="400.08" y="380.25" width="8.00" height="11.36" class="down-body"/>
<line x1="419.62" y1="368.34" x2="419.62" y2="392.88" class="up-wick"/>
<rect x="415.62" y="380.25" width="8.00" height="11.36" class="up-body"/>
<line x1="435.15" y1="373.45" x2="435.15" y2="397.07" class="down-wick"/>
<rect x="431.15" y="380.25" width="8.00" height="13.43" class="down-body"/>
<line x1="450.69" y1="383.61" x2="450.69" y2="400.93" class="up-wick"/>
<rect x="446.69" y="389.97" width="8.00" height="3.71" class="up-body"/>
<line x1="466.23" y1="376.86" x2="466.23" y2="395.50" class="up-wick"/>
<rect x="462.23" y="379.05" width="8.00" height="10.91" class="up-body"/>
<line x1="481.77" y1="366.34" x2="481.77" y2="386.75" class="down-wick"/>
<rect x="477.77" y="379.05" width="8.00" height="1.00" class="down-body"/>
<line x1="497.31" y1="359.24" x2="497.31" y2="393.06" class="up-wick"/>
<rect x="493.31" y="373.57" width="8.00" height="6.45" class="up-body"/>
<line x1="512.85" y1="359.74" x2="512.85" y2="373.62" class="up-wick"/>
<rect x="508.85" y="367.59" width="8.00" height="5.98" class="up-body"/>
<line x1="528.38" y1="366.87" x2="528.38" y2="410.35" class="down-wick"/>
<rect x="524.38" y="367.59" width="8.00" height="34.84" class="down-body"/>
<line x1="543.92" y1="391.39" x2="543.92" y2="417.55" class="down-wick"/>
<rect x="539.92" y="402.38" width="8.00" height="4.39" class="down-body"/>
<line x1="559.46" y1="406.17" x2="559.46" y2="440.53" class="down-wick"/>
<rect x="555.46" y="406.76" width="8.00" height="29.11" class="down-body"/>
<line x1="575.00" y1="425.98" x2="575.00" y2="441.85" class="up-wick"/>
<rect x="571.00" y="431.66" width="8.00" height="3.66" class="up-body"/>
<line x1="590.54" y1="405.64" x2="590.54" y2="439.38" class="up-wick"/>
<rect x="586.54" y="412.99" width="8.00" height="18.66" class="up-body"/>
<line x1="606.08" y1="410.43" x2="606.08" y2="430.99" class="down-wick"/>
<rect x="602.08" y="412.99" width="8.00" height="14.88" class="down-body"/>
<line x1="621.62" y1="416.86" x2="621.62" y2="438.41" class="down-wick"/>
<rect x="617.62" y="427.87" width="8.00" height="3.69" class="down-body"/>
<line x1="637.15" y1="427.15" x2="637.15" y2="444.69" class="down-wick"/>
<rect x="633.15" y="431.56" width="8.00" height="8.35" class="down-body"/>
<line x1="652.69" y1="411.65" x2="652.69" y2="448.98" class="up-wick"/>
<rect x="648.69" y="436.62" width="8.00" height="9.07" class="up-body"/>
<line x1="668.23" y1="434.30" x2="668.23" y2="452.42" class="down-wick"/>
<rect x="664.23" y="436.72" width="8.00" height="14.10" class="down-body"/>
<line x1="683.77" y1="443.79" x2="683.77" y2="464.33" class="down-wick"/>
<rect x="679.77" y="450.82" width="8.00" height="7.97" class="down-body"/>
<line x1="699.31" y1="450.52" x2="699.31" y2="465.52" class="up-wick"/>
<rect x="695.31" y="451.54" width="8.00" height="7.18" class="up-body"/>
<line x1="714.85" y1="451.39" x2="714.85" y2="469.06" class="down-wick"/>
<rect x="710.85" y="451.54" width="8.00" height="11.71" class="down-body"/>
<line x1="730.38" y1="458.10" x2="730.38" y2="470.03" class="down-wick"/>
<rect x="726.38" y="463.26" width="8.00" height="3.04" class="down-body"/>
<line x1="745.92" y1="454.29" x2="745.92" y2="466.30" class="up-wick"/>
<rect x="741.92" y="461.96" width="8.00" height="4.34" class="up-body"/>
<line x1="761.46" y1="451.44" x2="761.46" y2="465.72" class="up-wick"/>
<rect x="757.46" y="452.74" width="8.00" height="9.22" class="up-body"/>
<line x1="777.00" y1="452.67" x2="777.00" y2="485.04" class="down-wick"/>
<rect x="773.00" y="452.74" width="8.00" height="23.65" class="down-body"/>
<line x1="792.54" y1="465.87" x2="792.54" y2="484.54" class="down-wick"/>
<rect x="788.54" y="476.39" width="8.00" height="1.20" class="down-body"/>
<line x1="808.08" y1="459.05" x2="808.08" y2="477.59" class="up-wick"/>
<rect x="804.08" y="473.05" width="8.00" height="4.54" class="up-body"/>
<line x1="823.62" y1="454.61" x2="823.62" y2="475.29" class="up-wick"/>
<rect x="819.62" y="455.13" width="8.00" height="17.92" class="up-body"/>
<line x1="839.15" y1="444.32" x2="839.15" y2="467.14" class="down-wick"/>
<rect x="835.15" y="455.13" width="8.00" height="5.31" class="down-body"/>
<line x1="854.69" y1="448.78" x2="854.69" y2="466.80" class="up-wick"/>
<rect x="850.69" y="455.88" width="8.00" height="4.56" class="up-body"/>
<line x1="870.23" y1="419.20" x2="870.23" y2="461.39" class="up-wick"/>
<rect x="866.23" y="432.28" width="8.00" height="23.52" class="up-body"/>
<line x1="885.77" y1="428.57" x2="885.77" y2="460.47" class="down-wick"/>
<rect x="881.77" y="432.28" width="8.00" height="18.42" class="down-body"/>
<line x1="901.31" y1="448.48" x2="901.31" y2="491.09" class="down-wick"/>
<rect x="897.31" y="450.70" width="8.00" height="30.30" class="down-body"/>
<line x1="916.85" y1="476.74" x2="916.85" y2="506.07" class="down-wick"/>
<rect x="912.85" y="481.00" width="8.00" height="19.59" class="down-body"/>
<line x1="932.38" y1="486.98" x2="932.38" y2="517.18" class="up-wick"/>
<rect x="928.38" y="487.85" width="8.00" height="12.73" class="up-body"/>
<line x1="947.92" y1="477.96" x2="947.92" y2="492.66" class="up-wick"/>
<rect x="943.92" y="479.33" width="8.00" height="8.52" class="up-body"/>
<line x1="963.46" y1="457.23" x2="963.46" y2="479.73" class="up-wick"/>
<rect x="959.46" y="461.41" width="8.00" height="17.97" class="up-body"/>
<line x1="979.00" y1="456.63" x2="979.00" y2="474.02" class="down-wick"/>
<rect x="975.00" y="461.71" width="8.00" height="10.07" class="down-body"/>
<line x1="994.54" y1="440.60" x2="994.54" y2="472.15" class="up-wick"/>
<rect x="990.54" y="448.70" width="8.00" height="23.08" class="up-body"/>
<line x1="1010.08" y1="437.94" x2="1010.08" y2="451.97" class="up-wick"/>
<rect x="1006.08" y="445.69" width="8.00" height="3.04" class="up-body"/>
<line x1="1025.62" y1="441.88" x2="1025.62" y2="450.85" class="up-wick"/>
<rect x="1021.62" y="444.17" width="8.00" height="1.52" class="up-body"/>
<line x1="1041.15" y1="435.07" x2="1041.15" y2="448.48" class="down-wick"/>
<rect x="1037.15" y="444.27" width="8.00" height="3.89" class="down-body"/>
<line x1="1056.69" y1="447.93" x2="1056.69" y2="457.65" class="down-wick"/>
<rect x="1052.69" y="448.16" width="8.00" height="7.65" class="down-body"/>
<line x1="1072.23" y1="448.21" x2="1072.23" y2="467.19" class="down-wick"/>
<rect x="1068.23" y="455.81" width="8.00" height="9.77" class="down-body"/>
<line x1="70" y1="464.33" x2="1080" y2="464.33" class="sweep-line"/>
<text x="1076" y="460.33" text-anchor="end" class="level-label">sweep 4759.05</text>
<line x1="70" y1="464.33" x2="1080" y2="464.33" class="entry-line"/>
<text x="1076" y="460.33" text-anchor="end" class="level-label">entry level 4759.05</text>
<text x="70" y="556" class="axis-label">2026-04-09 13:45:00+00:00 to 2026-04-10 07:45:00+00:00</text>
<text x="1080" y="556" text-anchor="end" class="axis-label">4729.49 - 4806.53</text>
<text x="70" y="582" class="panel-title">M5 reaction / execution context</text>
<rect x="70" y="596" width="1010" height="192" class="plot-bg"/>
<line x1="80.98" y1="609.24" x2="80.98" y2="693.43" class="up-wick"/>
<rect x="76.98" y="657.24" width="8.00" height="28.78" class="up-body"/>
<line x1="102.93" y1="653.98" x2="102.93" y2="684.95" class="down-wick"/>
<rect x="98.93" y="655.66" width="8.00" height="9.16" class="down-body"/>
<line x1="124.89" y1="656.51" x2="124.89" y2="680.23" class="down-wick"/>
<rect x="120.89" y="663.25" width="8.00" height="2.30" class="down-body"/>
<line x1="146.85" y1="660.33" x2="146.85" y2="692.03" class="down-wick"/>
<rect x="142.85" y="665.78" width="8.00" height="21.92" class="down-body"/>
<line x1="168.80" y1="665.05" x2="168.80" y2="695.06" class="up-wick"/>
<rect x="164.80" y="681.57" width="8.00" height="6.13" class="up-body"/>
<line x1="190.76" y1="670.78" x2="190.76" y2="701.19" class="down-wick"/>
<rect x="186.76" y="681.57" width="8.00" height="16.02" class="down-body"/>
<line x1="212.72" y1="681.74" x2="212.72" y2="709.06" class="up-wick"/>
<rect x="208.72" y="694.50" width="8.00" height="3.09" class="up-body"/>
<line x1="234.67" y1="691.35" x2="234.67" y2="728.05" class="down-wick"/>
<rect x="230.67" y="694.78" width="8.00" height="30.07" class="down-body"/>
<line x1="256.63" y1="708.72" x2="256.63" y2="726.65" class="up-wick"/>
<rect x="252.63" y="715.58" width="8.00" height="9.27" class="up-body"/>
<line x1="278.59" y1="710.18" x2="278.59" y2="728.17" class="down-wick"/>
<rect x="274.59" y="715.41" width="8.00" height="4.78" class="down-body"/>
<line x1="300.54" y1="707.43" x2="300.54" y2="730.75" class="up-wick"/>
<rect x="296.54" y="712.04" width="8.00" height="8.15" class="up-body"/>
<line x1="322.50" y1="696.92" x2="322.50" y2="719.62" class="up-wick"/>
<rect x="318.50" y="699.22" width="8.00" height="12.81" class="up-body"/>
<line x1="344.46" y1="698.88" x2="344.46" y2="727.49" class="down-wick"/>
<rect x="340.46" y="699.22" width="8.00" height="8.37" class="down-body"/>
<line x1="366.41" y1="705.46" x2="366.41" y2="735.70" class="down-wick"/>
<rect x="362.41" y="707.54" width="8.00" height="3.82" class="down-body"/>
<line x1="388.37" y1="710.91" x2="388.37" y2="738.73" class="down-wick"/>
<rect x="384.37" y="711.19" width="8.00" height="14.44" class="down-body"/>
<line x1="410.33" y1="714.00" x2="410.33" y2="726.09" class="up-wick"/>
<rect x="406.33" y="720.86" width="8.00" height="4.78" class="up-body"/>
<line x1="432.28" y1="719.90" x2="432.28" y2="739.41" class="down-wick"/>
<rect x="428.28" y="720.86" width="8.00" height="13.77" class="down-body"/>
<line x1="454.24" y1="732.21" x2="454.24" y2="740.92" class="up-wick"/>
<rect x="450.24" y="732.49" width="8.00" height="2.14" class="up-body"/>
<line x1="476.20" y1="713.10" x2="476.20" y2="732.49" class="up-wick"/>
<rect x="472.20" y="714.57" width="8.00" height="17.93" class="up-body"/>
<line x1="498.15" y1="705.40" x2="498.15" y2="720.80" class="down-wick"/>
<rect x="494.15" y="714.57" width="8.00" height="4.66" class="down-body"/>
<line x1="520.11" y1="717.71" x2="520.11" y2="731.88" class="down-wick"/>
<rect x="516.11" y="718.72" width="8.00" height="3.99" class="down-body"/>
<line x1="542.07" y1="699.00" x2="542.07" y2="731.20" class="up-wick"/>
<rect x="538.07" y="710.29" width="8.00" height="12.42" class="up-body"/>
<line x1="564.02" y1="705.85" x2="564.02" y2="720.92" class="down-wick"/>
<rect x="560.02" y="710.29" width="8.00" height="1.00" class="down-body"/>
<line x1="585.98" y1="700.29" x2="585.98" y2="714.68" class="up-wick"/>
<rect x="581.98" y="701.92" width="8.00" height="8.94" class="up-body"/>
<line x1="607.93" y1="701.75" x2="607.93" y2="758.91" class="down-wick"/>
<rect x="603.93" y="701.92" width="8.00" height="35.30" class="down-body"/>
<line x1="629.89" y1="735.47" x2="629.89" y2="774.76" class="down-wick"/>
<rect x="625.89" y="737.22" width="8.00" height="17.65" class="down-body"/>
<line x1="651.85" y1="751.21" x2="651.85" y2="774.03" class="down-wick"/>
<rect x="647.85" y="754.86" width="8.00" height="1.00" class="down-body"/>
<line x1="673.80" y1="736.93" x2="673.80" y2="771.50" class="up-wick"/>
<rect x="669.80" y="748.85" width="8.00" height="6.41" class="up-body"/>
<line x1="695.76" y1="731.54" x2="695.76" y2="761.44" class="down-wick"/>
<rect x="691.76" y="748.79" width="8.00" height="8.26" class="down-body"/>
<line x1="717.72" y1="750.03" x2="717.72" y2="773.63" class="down-wick"/>
<rect x="713.72" y="757.05" width="8.00" height="1.00" class="down-body"/>
<line x1="739.67" y1="728.11" x2="739.67" y2="757.95" class="up-wick"/>
<rect x="735.67" y="728.73" width="8.00" height="29.23" class="up-body"/>
<line x1="761.63" y1="716.14" x2="761.63" y2="735.42" class="up-wick"/>
<rect x="757.63" y="725.64" width="8.00" height="3.09" class="up-body"/>
<line x1="783.59" y1="721.14" x2="783.59" y2="752.84" class="down-wick"/>
<rect x="779.59" y="725.64" width="8.00" height="22.09" class="down-body"/>
<line x1="805.54" y1="744.35" x2="805.54" y2="752.78" class="up-wick"/>
<rect x="801.54" y="747.16" width="8.00" height="1.00" class="up-body"/>
<line x1="827.50" y1="730.47" x2="827.50" y2="747.16" class="up-wick"/>
<rect x="823.50" y="745.25" width="8.00" height="1.91" class="up-body"/>
<line x1="849.46" y1="706.14" x2="849.46" y2="745.98" class="up-wick"/>
<rect x="845.46" y="707.32" width="8.00" height="37.94" class="up-body"/>
<line x1="871.41" y1="682.92" x2="871.41" y2="720.02" class="down-wick"/>
<rect x="867.41" y="707.32" width="8.00" height="10.57" class="down-body"/>
<line x1="893.37" y1="696.07" x2="893.37" y2="731.43" class="down-wick"/>
<rect x="889.37" y="717.88" width="8.00" height="9.33" class="down-body"/>
<line x1="915.33" y1="710.35" x2="915.33" y2="734.41" class="up-wick"/>
<rect x="911.33" y="719.29" width="8.00" height="7.98" class="up-body"/>
<line x1="937.28" y1="692.98" x2="937.28" y2="733.62" class="up-wick"/>
<rect x="933.28" y="702.20" width="8.00" height="17.09" class="up-body"/>
<line x1="959.24" y1="698.38" x2="959.24" y2="730.53" class="down-wick"/>
<rect x="955.24" y="701.92" width="8.00" height="27.20" class="down-body"/>
<line x1="981.20" y1="702.93" x2="981.20" y2="731.43" class="up-wick"/>
<rect x="977.20" y="709.00" width="8.00" height="20.12" class="up-body"/>
<line x1="1003.15" y1="658.36" x2="1003.15" y2="721.42" class="up-wick"/>
<rect x="999.15" y="658.98" width="8.00" height="49.85" class="up-body"/>
<line x1="1025.11" y1="626.27" x2="1025.11" y2="666.85" class="up-wick"/>
<rect x="1021.11" y="647.80" width="8.00" height="11.18" class="up-body"/>
<line x1="1047.07" y1="636.27" x2="1047.07" y2="668.54" class="down-wick"/>
<rect x="1043.07" y="647.80" width="8.00" height="7.98" class="down-body"/>
<line x1="1069.02" y1="647.40" x2="1069.02" y2="693.04" class="down-wick"/>
<rect x="1065.02" y="655.78" width="8.00" height="29.84" class="down-body"/>
<line x1="70" y1="728.05" x2="1080" y2="728.05" class="sweep-line"/>
<text x="1076" y="724.05" text-anchor="end" class="level-label">sweep 4759.05</text>
<line x1="70" y1="728.05" x2="1080" y2="728.05" class="entry-line"/>
<text x="1076" y="724.05" text-anchor="end" class="level-label">entry level 4759.05</text>
<text x="70" y="806" class="axis-label">2026-04-10 01:00:00+00:00 to 2026-04-10 04:45:00+00:00</text>
<text x="1080" y="806" text-anchor="end" class="axis-label">4748.38 - 4782.55</text>
<text x="70" y="832" class="panel-title">M1 execution window</text>
<rect x="70" y="846" width="1010" height="192" class="plot-bg"/>
<line x1="74.47" y1="859.24" x2="74.47" y2="936.35" class="up-wick"/>
<rect x="71.56" y="883.41" width="5.81" height="52.61" class="up-body"/>
<line x1="83.41" y1="896.78" x2="83.41" y2="943.43" class="up-wick"/>
<rect x="80.50" y="903.14" width="5.81" height="7.81" class="up-body"/>
<line x1="92.35" y1="903.30" x2="92.35" y2="915.22" class="up-wick"/>
<rect x="89.44" y="907.24" width="5.81" height="7.87" class="up-body"/>
<line x1="101.28" y1="916.68" x2="101.28" y2="931.29" class="up-wick"/>
<rect x="98.38" y="928.48" width="5.81" height="2.53" class="up-body"/>
<line x1="110.22" y1="904.82" x2="110.22" y2="929.10" class="up-wick"/>
<rect x="107.32" y="915.33" width="5.81" height="6.97" class="up-body"/>
<line x1="119.16" y1="913.14" x2="119.16" y2="923.37" class="down-wick"/>
<rect x="116.25" y="913.25" width="5.81" height="6.80" class="down-body"/>
<line x1="128.10" y1="906.51" x2="128.10" y2="930.23" class="up-wick"/>
<rect x="125.19" y="906.51" width="5.81" height="21.02" class="up-body"/>
<line x1="137.04" y1="913.98" x2="137.04" y2="920.61" class="up-wick"/>
<rect x="134.13" y="915.56" width="5.81" height="3.60" class="up-body"/>
<line x1="145.97" y1="920.61" x2="145.97" y2="925.84" class="down-wick"/>
<rect x="143.07" y="921.18" width="5.81" height="3.32" class="down-body"/>
<line x1="154.91" y1="927.13" x2="154.91" y2="942.03" class="down-wick"/>
<rect x="152.01" y="929.05" width="5.81" height="3.99" class="down-body"/>
<line x1="163.85" y1="930.90" x2="163.85" y2="941.63" class="down-wick"/>
<rect x="160.94" y="937.70" width="5.81" height="1.00" class="down-body"/>
<line x1="172.79" y1="915.05" x2="172.79" y2="934.95" class="up-wick"/>
<rect x="169.88" y="925.00" width="5.81" height="1.29" class="up-body"/>
<line x1="181.73" y1="928.03" x2="181.73" y2="935.96" class="up-wick"/>
<rect x="178.82" y="931.57" width="5.81" height="1.00" class="up-body"/>
<line x1="190.66" y1="923.09" x2="190.66" y2="930.73" class="up-wick"/>
<rect x="187.76" y="925.34" width="5.81" height="5.40" class="up-body"/>
<line x1="199.60" y1="925.17" x2="199.60" y2="929.78" class="up-wick"/>
<rect x="196.70" y="927.64" width="5.81" height="1.57" class="up-body"/>
<line x1="208.54" y1="934.44" x2="208.54" y2="953.10" class="down-wick"/>
<rect x="205.63" y="947.59" width="5.81" height="3.54" class="down-body"/>
<line x1="217.48" y1="941.13" x2="217.48" y2="951.08" class="up-wick"/>
<rect x="214.57" y="946.97" width="5.81" height="1.91" class="up-body"/>
<line x1="226.42" y1="932.75" x2="226.42" y2="944.50" class="down-wick"/>
<rect x="223.51" y="939.84" width="5.81" height="4.66" class="down-body"/>
<line x1="235.35" y1="959.17" x2="235.35" y2="965.52" class="down-wick"/>
<rect x="232.45" y="959.17" width="5.81" height="2.92" class="down-body"/>
<line x1="244.29" y1="952.03" x2="244.29" y2="958.50" class="down-wick"/>
<rect x="241.39" y="953.38" width="5.81" height="2.81" class="down-body"/>
<line x1="253.23" y1="965.86" x2="253.23" y2="976.65" class="up-wick"/>
<rect x="250.33" y="973.50" width="5.81" height="1.35" class="up-body"/>
<line x1="262.17" y1="958.72" x2="262.17" y2="965.63" class="down-wick"/>
<rect x="259.26" y="961.87" width="5.81" height="3.43" class="down-body"/>
<line x1="271.11" y1="961.19" x2="271.11" y2="968.67" class="down-wick"/>
<rect x="268.20" y="961.36" width="5.81" height="4.22" class="down-body"/>
<line x1="280.04" y1="961.02" x2="280.04" y2="969.06" class="down-wick"/>
<rect x="277.14" y="961.98" width="5.81" height="6.69" class="down-body"/>
<line x1="288.98" y1="963.16" x2="288.98" y2="978.17" class="up-wick"/>
<rect x="286.08" y="963.27" width="5.81" height="13.15" class="up-body"/>
<line x1="297.92" y1="967.99" x2="297.92" y2="976.82" class="down-wick"/>
<rect x="295.02" y="970.19" width="5.81" height="6.46" class="down-body"/>
<line x1="306.86" y1="960.07" x2="306.86" y2="964.45" class="down-wick"/>
<rect x="303.95" y="961.25" width="5.81" height="1.00" class="down-body"/>
<line x1="315.80" y1="957.43" x2="315.80" y2="966.87" class="up-wick"/>
<rect x="312.89" y="962.04" width="5.81" height="4.83" class="up-body"/>
<line x1="324.73" y1="950.40" x2="324.73" y2="969.01" class="down-wick"/>
<rect x="321.83" y="950.40" width="5.81" height="18.10" class="down-body"/>
<line x1="333.67" y1="955.24" x2="333.67" y2="958.66" class="down-wick"/>
<rect x="330.77" y="956.02" width="5.81" height="1.57" class="down-body"/>
<line x1="342.61" y1="948.88" x2="342.61" y2="971.48" class="down-wick"/>
<rect x="339.71" y="949.22" width="5.81" height="21.98" class="down-body"/>
<line x1="351.55" y1="964.51" x2="351.55" y2="976.48" class="up-wick"/>
<rect x="348.64" y="970.24" width="5.81" height="5.56" class="up-body"/>
<line x1="360.49" y1="957.32" x2="360.49" y2="970.30" class="up-wick"/>
<rect x="357.58" y="957.60" width="5.81" height="6.74" class="up-body"/>
<line x1="369.42" y1="957.32" x2="369.42" y2="985.70" class="down-wick"/>
<rect x="366.52" y="959.23" width="5.81" height="16.92" class="down-body"/>
<line x1="378.36" y1="957.20" x2="378.36" y2="967.66" class="up-wick"/>
<rect x="375.46" y="961.98" width="5.81" height="5.68" class="up-body"/>
<line x1="387.30" y1="960.91" x2="387.30" y2="966.64" class="down-wick"/>
<rect x="384.40" y="961.19" width="5.81" height="3.77" class="down-body"/>
<line x1="396.24" y1="973.61" x2="396.24" y2="981.48" class="up-wick"/>
<rect x="393.33" y="980.64" width="5.81" height="1.00" class="up-body"/>
<line x1="405.18" y1="972.10" x2="405.18" y2="984.35" class="up-wick"/>
<rect x="402.27" y="975.64" width="5.81" height="8.04" class="up-body"/>
<line x1="414.12" y1="966.36" x2="414.12" y2="972.27" class="up-wick"/>
<rect x="411.21" y="966.81" width="5.81" height="5.17" class="up-body"/>
<line x1="423.05" y1="964.62" x2="423.05" y2="967.04" class="up-wick"/>
<rect x="420.15" y="965.91" width="5.81" height="1.00" class="up-body"/>
<line x1="431.99" y1="969.90" x2="431.99" y2="975.41" class="down-wick"/>
<rect x="429.09" y="970.86" width="5.81" height="3.82" class="down-body"/>
<line x1="440.93" y1="977.15" x2="440.93" y2="983.51" class="down-wick"/>
<rect x="438.02" y="977.15" width="5.81" height="6.35" class="down-body"/>
<line x1="449.87" y1="977.49" x2="449.87" y2="985.92" class="down-wick"/>
<rect x="446.96" y="980.75" width="5.81" height="3.88" class="down-body"/>
<line x1="458.81" y1="983.79" x2="458.81" y2="988.11" class="down-wick"/>
<rect x="455.90" y="985.14" width="5.81" height="1.52" class="down-body"/>
<line x1="467.74" y1="983.79" x2="467.74" y2="987.22" class="up-wick"/>
<rect x="464.84" y="984.12" width="5.81" height="2.30" class="up-body"/>
<line x1="476.68" y1="972.32" x2="476.68" y2="982.49" class="up-wick"/>
<rect x="473.78" y="973.95" width="5.81" height="8.54" class="up-body"/>
<line x1="485.62" y1="970.07" x2="485.62" y2="978.56" class="down-wick"/>
<rect x="482.71" y="970.13" width="5.81" height="3.60" class="down-body"/>
<line x1="494.56" y1="963.10" x2="494.56" y2="974.23" class="up-wick"/>
<rect x="491.65" y="964.57" width="5.81" height="9.22" class="up-body"/>
<line x1="503.50" y1="955.40" x2="503.50" y2="966.98" class="down-wick"/>
<rect x="500.59" y="956.08" width="5.81" height="6.07" class="down-body"/>
<line x1="512.43" y1="960.52" x2="512.43" y2="966.36" class="down-wick"/>
<rect x="509.53" y="960.86" width="5.81" height="4.10" class="down-body"/>
<line x1="521.37" y1="968.27" x2="521.37" y2="978.00" class="down-wick"/>
<rect x="518.47" y="968.72" width="5.81" height="7.08" class="down-body"/>
<line x1="530.31" y1="969.62" x2="530.31" y2="978.95" class="up-wick"/>
<rect x="527.40" y="971.20" width="5.81" height="7.08" class="up-body"/>
<line x1="539.25" y1="969.40" x2="539.25" y2="974.63" class="down-wick"/>
<rect x="536.34" y="969.40" width="5.81" height="3.32" class="down-body"/>
<line x1="548.19" y1="960.91" x2="548.19" y2="975.24" class="up-wick"/>
<rect x="545.28" y="962.82" width="5.81" height="12.42" class="up-body"/>
<line x1="557.12" y1="952.93" x2="557.12" y2="960.46" class="up-wick"/>
<rect x="554.22" y="957.09" width="5.81" height="1.00" class="up-body"/>
<line x1="566.06" y1="959.51" x2="566.06" y2="963.78" class="down-wick"/>
<rect x="563.16" y="960.29" width="5.81" height="1.85" class="down-body"/>
<line x1="575.00" y1="956.75" x2="575.00" y2="964.12" class="down-wick"/>
<rect x="572.10" y="958.44" width="5.81" height="5.56" class="down-body"/>
<line x1="583.94" y1="959.79" x2="583.94" y2="965.58" class="down-wick"/>
<rect x="581.03" y="960.18" width="5.81" height="1.00" class="down-body"/>
<line x1="592.88" y1="953.04" x2="592.88" y2="962.94" class="up-wick"/>
<rect x="589.97" y="954.56" width="5.81" height="7.81" class="up-body"/>
<line x1="601.81" y1="953.10" x2="601.81" y2="959.56" class="down-wick"/>
<rect x="598.91" y="955.01" width="5.81" height="4.55" class="down-body"/>
<line x1="610.75" y1="951.75" x2="610.75" y2="996.15" class="down-wick"/>
<rect x="607.85" y="951.92" width="5.81" height="37.37" class="down-body"/>
<line x1="619.69" y1="989.01" x2="619.69" y2="1008.91" class="up-wick"/>
<rect x="616.79" y="995.48" width="5.81" height="3.37" class="up-body"/>
<line x1="628.63" y1="981.93" x2="628.63" y2="1000.76" class="down-wick"/>
<rect x="625.72" y="986.03" width="5.81" height="1.18" class="down-body"/>
<line x1="637.57" y1="985.47" x2="637.57" y2="1010.60" class="down-wick"/>
<rect x="634.66" y="992.27" width="5.81" height="18.32" class="down-body"/>
<line x1="646.50" y1="1012.23" x2="646.50" y2="1024.76" class="up-wick"/>
<rect x="643.60" y="1014.14" width="5.81" height="6.35" class="up-body"/>
<line x1="655.44" y1="1001.21" x2="655.44" y2="1013.57" class="down-wick"/>
<rect x="652.54" y="1004.86" width="5.81" height="6.46" class="down-body"/>
<line x1="664.38" y1="1006.21" x2="664.38" y2="1024.03" class="down-wick"/>
<rect x="661.48" y="1016.95" width="5.81" height="2.08" class="down-body"/>
<line x1="673.32" y1="1002.45" x2="673.32" y2="1018.63" class="up-wick"/>
<rect x="670.41" y="1005.26" width="5.81" height="4.44" class="up-body"/>
<line x1="682.26" y1="986.93" x2="682.26" y2="1006.89" class="down-wick"/>
<rect x="679.35" y="992.95" width="5.81" height="12.25" class="down-body"/>
<line x1="691.19" y1="1005.71" x2="691.19" y2="1021.50" class="down-wick"/>
<rect x="688.29" y="1005.99" width="5.81" height="11.91" class="down-body"/>
<line x1="700.13" y1="981.54" x2="700.13" y2="998.85" class="up-wick"/>
<rect x="697.23" y="985.19" width="5.81" height="13.60" class="up-body"/>
<line x1="709.07" y1="992.33" x2="709.07" y2="1006.55" class="down-wick"/>
<rect x="706.17" y="998.79" width="5.81" height="4.78" class="down-body"/>
<line x1="718.01" y1="999.80" x2="718.01" y2="1007.05" class="down-wick"/>
<rect x="715.10" y="1005.03" width="5.81" height="2.02" class="down-body"/>
<line x1="726.95" y1="1000.37" x2="726.95" y2="1010.88" class="down-wick"/>
<rect x="724.04" y="1006.21" width="5.81" height="1.00" class="down-body"/>
<line x1="735.88" y1="1012.00" x2="735.88" y2="1023.63" class="down-wick"/>
<rect x="732.98" y="1013.74" width="5.81" height="3.09" class="down-body"/>
<line x1="744.82" y1="990.36" x2="744.82" y2="1007.95" class="up-wick"/>
<rect x="741.92" y="996.66" width="5.81" height="11.30" class="up-body"/>
<line x1="753.76" y1="984.41" x2="753.76" y2="992.27" class="up-wick"/>
<rect x="750.86" y="985.02" width="5.81" height="5.62" class="up-body"/>
<line x1="762.70" y1="978.11" x2="762.70" y2="992.72" class="up-wick"/>
<rect x="759.79" y="978.73" width="5.81" height="10.57" class="up-body"/>
<line x1="771.64" y1="966.70" x2="771.64" y2="977.72" class="up-wick"/>
<rect x="768.73" y="967.60" width="5.81" height="5.40" class="up-body"/>
<line x1="780.58" y1="974.23" x2="780.58" y2="985.42" class="up-wick"/>
<rect x="777.67" y="976.03" width="5.81" height="1.00" class="up-body"/>
<line x1="789.51" y1="971.14" x2="789.51" y2="982.49" class="down-wick"/>
<rect x="786.61" y="975.64" width="5.81" height="5.96" class="down-body"/>
<line x1="798.45" y1="982.27" x2="798.45" y2="996.38" class="down-wick"/>
<rect x="795.55" y="984.85" width="5.81" height="10.00" class="down-body"/>
<line x1="807.39" y1="995.53" x2="807.39" y2="1002.84" class="up-wick"/>
<rect x="804.48" y="997.73" width="5.81" height="2.30" class="up-body"/>
<line x1="816.33" y1="996.83" x2="816.33" y2="1002.78" class="up-wick"/>
<rect x="813.42" y="997.89" width="5.81" height="2.36" class="up-body"/>
<line x1="825.27" y1="994.35" x2="825.27" y2="1000.09" class="down-wick"/>
<rect x="822.36" y="994.47" width="5.81" height="2.81" class="down-body"/>
<line x1="834.20" y1="982.44" x2="834.20" y2="997.16" class="up-wick"/>
<rect x="831.30" y="985.53" width="5.81" height="11.63" class="up-body"/>
<line x1="843.14" y1="980.47" x2="843.14" y2="988.73" class="up-wick"/>
<rect x="840.24" y="984.52" width="5.81" height="2.92" class="up-body"/>
<line x1="852.08" y1="988.28" x2="852.08" y2="995.70" class="down-wick"/>
<rect x="849.17" y="992.55" width="5.81" height="2.70" class="down-body"/>
<line x1="861.02" y1="979.57" x2="861.02" y2="993.62" class="up-wick"/>
<rect x="858.11" y="979.57" width="5.81" height="9.27" class="up-body"/>
<line x1="869.96" y1="968.11" x2="869.96" y2="976.37" class="up-wick"/>
<rect x="867.05" y="968.11" width="5.81" height="7.53" class="up-body"/>
<line x1="878.89" y1="938.21" x2="878.89" y2="965.46" class="up-wick"/>
<rect x="875.99" y="941.52" width="5.81" height="15.79" class="up-body"/>
<line x1="887.83" y1="932.92" x2="887.83" y2="949.73" class="up-wick"/>
<rect x="884.93" y="939.72" width="5.81" height="9.61" class="up-body"/>
<line x1="896.77" y1="959.68" x2="896.77" y2="970.02" class="down-wick"/>
<rect x="893.87" y="966.31" width="5.81" height="1.57" class="down-body"/>
<line x1="905.71" y1="966.25" x2="905.71" y2="981.43" class="up-wick"/>
<rect x="902.80" y="966.25" width="5.81" height="5.85" class="up-body"/>
<line x1="914.65" y1="959.79" x2="914.65" y2="971.98" class="up-wick"/>
<rect x="911.74" y="960.97" width="5.81" height="2.98" class="up-body"/>
<line x1="923.58" y1="962.26" x2="923.58" y2="978.00" class="up-wick"/>
<rect x="920.68" y="967.26" width="5.81" height="10.00" class="up-body"/>
<line x1="932.52" y1="960.35" x2="932.52" y2="981.26" class="up-wick"/>
<rect x="929.62" y="967.66" width="5.81" height="13.60" class="up-body"/>
<line x1="941.46" y1="969.23" x2="941.46" y2="984.41" class="up-wick"/>
<rect x="938.56" y="969.29" width="5.81" height="4.38" class="up-body"/>
<line x1="950.40" y1="959.28" x2="950.40" y2="983.56" class="up-wick"/>
<rect x="947.49" y="961.59" width="5.81" height="7.92" class="up-body"/>
<line x1="959.34" y1="944.84" x2="959.34" y2="966.31" class="up-wick"/>
<rect x="956.43" y="945.51" width="5.81" height="16.52" class="up-body"/>
<line x1="968.27" y1="948.38" x2="968.27" y2="972.60" class="down-wick"/>
<rect x="965.37" y="951.92" width="5.81" height="17.03" class="down-body"/>
<line x1="977.21" y1="970.47" x2="977.21" y2="978.67" class="down-wick"/>
<rect x="974.31" y="970.92" width="5.81" height="4.95" class="down-body"/>
<line x1="986.15" y1="961.70" x2="986.15" y2="980.53" class="down-wick"/>
<rect x="983.25" y="964.34" width="5.81" height="14.78" class="down-body"/>
<line x1="995.09" y1="971.48" x2="995.09" y2="980.47" class="up-wick"/>
<rect x="992.18" y="973.78" width="5.81" height="1.00" class="up-body"/>
<line x1="1004.03" y1="959.17" x2="1004.03" y2="969.12" class="up-wick"/>
<rect x="1001.12" y="962.09" width="5.81" height="7.03" class="up-body"/>
<line x1="1012.96" y1="956.14" x2="1012.96" y2="968.56" class="down-wick"/>
<rect x="1010.06" y="958.83" width="5.81" height="3.60" class="down-body"/>
<line x1="1021.90" y1="946.30" x2="1021.90" y2="968.50" class="up-wick"/>
<rect x="1019.00" y="946.64" width="5.81" height="20.63" class="up-body"/>
<line x1="1030.84" y1="908.36" x2="1030.84" y2="931.35" class="up-wick"/>
<rect x="1027.94" y="908.98" width="5.81" height="21.58" class="up-body"/>
<line x1="1039.78" y1="881.89" x2="1039.78" y2="903.19" class="up-wick"/>
<rect x="1036.87" y="883.75" width="5.81" height="17.59" class="up-body"/>
<line x1="1048.72" y1="878.41" x2="1048.72" y2="901.28" class="down-wick"/>
<rect x="1045.81" y="881.61" width="5.81" height="13.88" class="down-body"/>
<line x1="1057.65" y1="886.27" x2="1057.65" y2="902.24" class="up-wick"/>
<rect x="1054.75" y="897.18" width="5.81" height="1.00" class="up-body"/>
<line x1="1066.59" y1="901.67" x2="1066.59" y2="916.40" class="up-wick"/>
<rect x="1063.69" y="904.93" width="5.81" height="9.78" class="up-body"/>
<line x1="1075.53" y1="903.30" x2="1075.53" y2="917.30" class="up-wick"/>
<rect x="1072.63" y="905.78" width="5.81" height="5.96" class="up-body"/>
<line x1="70" y1="978.05" x2="1080" y2="978.05" class="sweep-line"/>
<text x="1076" y="974.05" text-anchor="end" class="level-label">sweep 4759.05</text>
<line x1="70" y1="978.05" x2="1080" y2="978.05" class="entry-line"/>
<text x="1076" y="974.05" text-anchor="end" class="level-label">entry level 4759.05</text>
<text x="70" y="1056" class="axis-label">2026-04-10 01:00:00+00:00 to 2026-04-10 04:44:00+00:00</text>
<text x="1080" y="1056" text-anchor="end" class="axis-label">4748.38 - 4782.55</text>
</svg>