<svg xmlns="http://www.w3.org/2000/svg" width="1120" height="1054" viewBox="0 0 1120 1054">
<style>
text{font-family:Arial,Helvetica,sans-serif}.title{font-size:21px;font-weight:700;fill:#1f2937}.subtitle{font-size:12px;fill:#4b5563}.panel-title{font-size:15px;font-weight:700;fill:#111827}.muted{font-size:13px;fill:#6b7280}.plot-bg{fill:#f8fafc;stroke:#cbd5e1;stroke-width:1}.up-body{fill:#15803d;stroke:#14532d;stroke-width:.8}.down-body{fill:#b91c1c;stroke:#7f1d1d;stroke-width:.8}.up-wick{stroke:#14532d;stroke-width:1}.down-wick{stroke:#7f1d1d;stroke-width:1}.sweep-line{stroke:#7c3aed;stroke-width:1.6;stroke-dasharray:6 4}.number-line{stroke:#0f766e;stroke-width:1.4;stroke-dasharray:3 4}.entry-line{stroke:#2563eb;stroke-width:1.4}.sl-line{stroke:#dc2626;stroke-width:1.4}.tp-line{stroke:#16a34a;stroke-width:1.4}.level-label,.axis-label{font-size:11px;fill:#374151}
</style>
<text x="28" y="28" class="title">Adelin v2 visual review sample sample_134</text>
<text x="28" y="48" class="subtitle">Candidate windows are for visual labeling only and are not trade signals.</text>
<text x="560" y="48" class="subtitle" text-anchor="middle">LARGE_UPPER_WICK_REVERSAL_VISUAL_CANDIDATE | PRE_ANCHOR_SWEEP_EXTREME_CANDIDATE</text>
<text x="70" y="82" class="panel-title">H1 liquidity context</text>
<rect x="70" y="96" width="1010" height="192" class="plot-bg"/>
<line x1="79.90" y1="162.69" x2="79.90" y2="274.76" class="up-wick"/>
<rect x="75.90" y="178.10" width="8.00" height="67.26" class="up-body"/>
<line x1="99.71" y1="165.79" x2="99.71" y2="210.78" class="down-wick"/>
<rect x="95.71" y="178.07" width="8.00" height="21.87" class="down-body"/>
<line x1="119.51" y1="169.77" x2="119.51" y2="259.84" class="down-wick"/>
<rect x="115.51" y="199.94" width="8.00" height="50.99" class="down-body"/>
<line x1="139.31" y1="203.32" x2="139.31" y2="269.36" class="up-wick"/>
<rect x="135.31" y="217.44" width="8.00" height="33.50" class="up-body"/>
<line x1="159.12" y1="184.30" x2="159.12" y2="219.47" class="up-wick"/>
<rect x="155.12" y="205.35" width="8.00" height="12.11" class="up-body"/>
<line x1="178.92" y1="193.38" x2="178.92" y2="216.97" class="down-wick"/>
<rect x="174.92" y="205.35" width="8.00" height="5.40" class="down-body"/>
<line x1="198.73" y1="170.65" x2="198.73" y2="211.75" class="up-wick"/>
<rect x="194.73" y="177.57" width="8.00" height="33.13" class="up-body"/>
<line x1="218.53" y1="164.96" x2="218.53" y2="208.24" class="down-wick"/>
<rect x="214.53" y="177.57" width="8.00" height="7.05" class="down-body"/>
<line x1="238.33" y1="184.61" x2="238.33" y2="230.43" class="down-wick"/>
<rect x="234.33" y="184.61" width="8.00" height="33.96" class="down-body"/>
<line x1="258.14" y1="178.45" x2="258.14" y2="223.44" class="up-wick"/>
<rect x="254.14" y="189.87" width="8.00" height="28.66" class="up-body"/>
<line x1="277.94" y1="171.38" x2="277.94" y2="223.30" class="down-wick"/>
<rect x="273.94" y="189.87" width="8.00" height="26.76" class="down-body"/>
<line x1="297.75" y1="206.27" x2="297.75" y2="251.37" class="down-wick"/>
<rect x="293.75" y="216.64" width="8.00" height="22.83" class="down-body"/>
<line x1="317.55" y1="202.68" x2="317.55" y2="242.58" class="up-wick"/>
<rect x="313.55" y="212.37" width="8.00" height="27.09" class="up-body"/>
<line x1="337.35" y1="197.37" x2="337.35" y2="217.21" class="up-wick"/>
<rect x="333.35" y="209.03" width="8.00" height="3.34" class="up-body"/>
<line x1="357.16" y1="193.42" x2="357.16" y2="233.93" class="down-wick"/>
<rect x="353.16" y="209.03" width="8.00" height="8.50" class="down-body"/>
<line x1="376.96" y1="171.72" x2="376.96" y2="224.08" class="up-wick"/>
<rect x="372.96" y="175.73" width="8.00" height="41.81" class="up-body"/>
<line x1="396.76" y1="144.89" x2="396.76" y2="195.05" class="up-wick"/>
<rect x="392.76" y="147.00" width="8.00" height="28.73" class="up-body"/>
<line x1="416.57" y1="117.13" x2="416.57" y2="149.88" class="up-wick"/>
<rect x="412.57" y="127.09" width="8.00" height="19.91" class="up-body"/>
<line x1="436.37" y1="124.22" x2="436.37" y2="171.59" class="down-wick"/>
<rect x="432.37" y="127.09" width="8.00" height="37.13" class="down-body"/>
<line x1="456.18" y1="140.07" x2="456.18" y2="166.93" class="up-wick"/>
<rect x="452.18" y="141.76" width="8.00" height="22.47" class="up-body"/>
<line x1="475.98" y1="118.21" x2="475.98" y2="142.18" class="up-wick"/>
<rect x="471.98" y="125.66" width="8.00" height="16.09" class="up-body"/>
<line x1="495.78" y1="109.24" x2="495.78" y2="128.81" class="up-wick"/>
<rect x="491.78" y="118.75" width="8.00" height="6.99" class="up-body"/>
<line x1="515.59" y1="114.09" x2="515.59" y2="161.53" class="down-wick"/>
<rect x="511.59" y="118.77" width="8.00" height="29.38" class="down-body"/>
<line x1="535.39" y1="122.30" x2="535.39" y2="244.06" class="down-wick"/>
<rect x="531.39" y="148.13" width="8.00" height="35.66" class="down-body"/>
<line x1="555.20" y1="161.08" x2="555.20" y2="214.89" class="down-wick"/>
<rect x="551.20" y="183.80" width="8.00" height="17.70" class="down-body"/>
<line x1="575.00" y1="175.82" x2="575.00" y2="210.25" class="up-wick"/>
<rect x="571.00" y="182.38" width="8.00" height="19.15" class="up-body"/>
<line x1="594.80" y1="150.48" x2="594.80" y2="184.23" class="up-wick"/>
<rect x="590.80" y="174.95" width="8.00" height="7.44" class="up-body"/>
<line x1="614.61" y1="174.95" x2="614.61" y2="204.78" class="down-wick"/>
<rect x="610.61" y="174.95" width="8.00" height="11.24" class="down-body"/>
<line x1="634.41" y1="180.99" x2="634.41" y2="202.98" class="up-wick"/>
<rect x="630.41" y="184.08" width="8.00" height="2.18" class="up-body"/>
<line x1="654.22" y1="171.89" x2="654.22" y2="211.71" class="up-wick"/>
<rect x="650.22" y="173.54" width="8.00" height="10.52" class="up-body"/>
<line x1="674.02" y1="165.14" x2="674.02" y2="201.31" class="down-wick"/>
<rect x="670.02" y="173.62" width="8.00" height="20.13" class="down-body"/>
<line x1="693.82" y1="178.05" x2="693.82" y2="201.89" class="up-wick"/>
<rect x="689.82" y="180.83" width="8.00" height="12.89" class="up-body"/>
<line x1="713.63" y1="152.24" x2="713.63" y2="187.65" class="up-wick"/>
<rect x="709.63" y="170.26" width="8.00" height="10.53" class="up-body"/>
<line x1="733.43" y1="140.99" x2="733.43" y2="171.78" class="up-wick"/>
<rect x="729.43" y="163.41" width="8.00" height="6.85" class="up-body"/>
<line x1="753.24" y1="147.92" x2="753.24" y2="176.81" class="up-wick"/>
<rect x="749.24" y="163.33" width="8.00" height="1.00" class="up-body"/>
<line x1="773.04" y1="148.82" x2="773.04" y2="166.56" class="up-wick"/>
<rect x="769.04" y="150.82" width="8.00" height="12.50" class="up-body"/>
<line x1="792.84" y1="149.36" x2="792.84" y2="200.45" class="down-wick"/>
<rect x="788.84" y="150.86" width="8.00" height="32.45" class="down-body"/>
<line x1="812.65" y1="147.48" x2="812.65" y2="190.79" class="up-wick"/>
<rect x="808.65" y="157.55" width="8.00" height="25.74" class="up-body"/>
<line x1="832.45" y1="119.99" x2="832.45" y2="199.09" class="down-wick"/>
<rect x="828.45" y="157.54" width="8.00" height="15.69" class="down-body"/>
<line x1="852.25" y1="161.82" x2="852.25" y2="228.60" class="down-wick"/>
<rect x="848.25" y="173.17" width="8.00" height="27.32" class="down-body"/>
<line x1="872.06" y1="190.99" x2="872.06" y2="219.46" class="up-wick"/>
<rect x="868.06" y="194.73" width="8.00" height="5.76" class="up-body"/>
<line x1="891.86" y1="172.61" x2="891.86" y2="198.95" class="up-wick"/>
<rect x="887.86" y="191.51" width="8.00" height="3.22" class="up-body"/>
<line x1="911.67" y1="189.18" x2="911.67" y2="221.00" class="down-wick"/>
<rect x="907.67" y="191.51" width="8.00" height="17.84" class="down-body"/>
<line x1="931.47" y1="186.06" x2="931.47" y2="215.14" class="up-wick"/>
<rect x="927.47" y="189.14" width="8.00" height="20.21" class="up-body"/>
<line x1="951.27" y1="165.25" x2="951.27" y2="199.54" class="up-wick"/>
<rect x="947.27" y="186.06" width="8.00" height="3.08" class="up-body"/>
<line x1="971.08" y1="182.64" x2="971.08" y2="199.66" class="down-wick"/>
<rect x="967.08" y="186.00" width="8.00" height="6.98" class="down-body"/>
<line x1="990.88" y1="152.75" x2="990.88" y2="193.01" class="up-wick"/>
<rect x="986.88" y="170.29" width="8.00" height="22.69" class="up-body"/>
<line x1="1010.69" y1="159.87" x2="1010.69" y2="188.63" class="down-wick"/>
<rect x="1006.69" y="170.29" width="8.00" height="5.59" class="down-body"/>
<line x1="1030.49" y1="155.11" x2="1030.49" y2="185.57" class="up-wick"/>
<rect x="1026.49" y="155.62" width="8.00" height="19.99" class="up-body"/>
<line x1="1050.29" y1="148.54" x2="1050.29" y2="182.88" class="up-wick"/>
<rect x="1046.29" y="151.36" width="8.00" height="4.25" class="up-body"/>
<line x1="1070.10" y1="144.33" x2="1070.10" y2="165.79" class="down-wick"/>
<rect x="1066.10" y="151.36" width="8.00" height="1.84" class="down-body"/>
<line x1="70" y1="202.33" x2="1080" y2="202.33" class="sweep-line"/>
<text x="1076" y="198.33" text-anchor="end" class="level-label">sweep 5018.30</text>
<line x1="70" y1="204.78" x2="1080" y2="204.78" class="entry-line"/>
<text x="1076" y="200.78" text-anchor="end" class="level-label">entry level 5016.50</text>
<text x="70" y="306" class="axis-label">2026-02-09 01:00:00+00:00 to 2026-02-11 05:00:00+00:00</text>
<text x="1080" y="306" text-anchor="end" class="axis-label">4955.43 - 5096.33</text>
<text x="70" y="332" class="panel-title">M15 liquidity / reaction context</text>
<rect x="70" y="346" width="1010" height="192" class="plot-bg"/>
<line x1="77.32" y1="409.94" x2="77.32" y2="448.38" class="up-wick"/>
<rect x="73.32" y="410.42" width="8.00" height="37.96" class="up-body"/>
<line x1="91.96" y1="403.01" x2="91.96" y2="416.31" class="up-wick"/>
<rect x="87.96" y="405.60" width="8.00" height="4.82" class="up-body"/>
<line x1="106.59" y1="389.29" x2="106.59" y2="409.13" class="up-wick"/>
<rect x="102.59" y="397.72" width="8.00" height="7.88" class="up-body"/>
<line x1="121.23" y1="370.38" x2="121.23" y2="397.81" class="up-wick"/>
<rect x="117.23" y="382.95" width="8.00" height="14.76" class="up-body"/>
<line x1="135.87" y1="372.74" x2="135.87" y2="391.98" class="up-wick"/>
<rect x="131.87" y="373.25" width="8.00" height="9.70" class="up-body"/>
<line x1="150.51" y1="368.93" x2="150.51" y2="385.06" class="down-wick"/>
<rect x="146.51" y="373.25" width="8.00" height="7.91" class="down-body"/>
<line x1="165.14" y1="377.63" x2="165.14" y2="402.54" class="down-wick"/>
<rect x="161.14" y="381.16" width="8.00" height="16.75" class="down-body"/>
<line x1="179.78" y1="383.70" x2="179.78" y2="397.94" class="up-wick"/>
<rect x="175.78" y="390.11" width="8.00" height="7.80" class="up-body"/>
<line x1="194.42" y1="386.18" x2="194.42" y2="401.84" class="down-wick"/>
<rect x="190.42" y="389.67" width="8.00" height="9.75" class="down-body"/>
<line x1="209.06" y1="396.89" x2="209.06" y2="435.78" class="down-wick"/>
<rect x="205.06" y="399.43" width="8.00" height="27.32" class="down-body"/>
<line x1="223.70" y1="405.00" x2="223.70" y2="426.90" class="up-wick"/>
<rect x="219.70" y="406.46" width="8.00" height="20.29" class="up-body"/>
<line x1="238.33" y1="404.26" x2="238.33" y2="430.06" class="down-wick"/>
<rect x="234.33" y="406.46" width="8.00" height="6.96" class="down-body"/>
<line x1="252.97" y1="404.40" x2="252.97" y2="422.87" class="up-wick"/>
<rect x="248.97" y="409.97" width="8.00" height="3.45" class="up-body"/>
<line x1="267.61" y1="397.09" x2="267.61" y2="418.00" class="up-wick"/>
<rect x="263.61" y="399.16" width="8.00" height="10.86" class="up-body"/>
<line x1="282.25" y1="388.30" x2="282.25" y2="399.68" class="up-wick"/>
<rect x="278.25" y="393.04" width="8.00" height="6.12" class="up-body"/>
<line x1="296.88" y1="379.64" x2="296.88" y2="396.67" class="up-wick"/>
<rect x="292.88" y="379.70" width="8.00" height="13.30" class="up-body"/>
<line x1="311.52" y1="370.25" x2="311.52" y2="382.21" class="up-wick"/>
<rect x="307.52" y="377.29" width="8.00" height="2.43" class="up-body"/>
<line x1="326.16" y1="373.76" x2="326.16" y2="382.11" class="down-wick"/>
<rect x="322.16" y="377.29" width="8.00" height="2.11" class="down-body"/>
<line x1="340.80" y1="369.25" x2="340.80" y2="381.09" class="up-wick"/>
<rect x="336.80" y="371.49" width="8.00" height="8.01" class="up-body"/>
<line x1="355.43" y1="367.69" x2="355.43" y2="377.28" class="up-wick"/>
<rect x="351.43" y="369.66" width="8.00" height="1.82" class="up-body"/>
<line x1="370.07" y1="359.24" x2="370.07" y2="383.27" class="down-wick"/>
<rect x="366.07" y="369.66" width="8.00" height="4.27" class="down-body"/>
<line x1="384.71" y1="365.48" x2="384.71" y2="381.29" class="up-wick"/>
<rect x="380.71" y="370.92" width="8.00" height="3.13" class="up-body"/>
<line x1="399.35" y1="365.20" x2="399.35" y2="400.85" class="down-wick"/>
<rect x="395.35" y="370.94" width="8.00" height="27.49" class="down-body"/>
<line x1="413.99" y1="393.37" x2="413.99" y2="423.44" class="down-wick"/>
<rect x="409.99" y="398.42" width="8.00" height="13.35" class="down-body"/>
<line x1="428.62" y1="396.12" x2="428.62" y2="413.97" class="up-wick"/>
<rect x="424.62" y="401.10" width="8.00" height="10.67" class="up-body"/>
<line x1="443.26" y1="393.27" x2="443.26" y2="413.21" class="down-wick"/>
<rect x="439.26" y="401.10" width="8.00" height="5.91" class="down-body"/>
<line x1="457.90" y1="375.27" x2="457.90" y2="524.76" class="down-wick"/>
<rect x="453.90" y="406.99" width="8.00" height="74.50" class="down-body"/>
<line x1="472.54" y1="456.38" x2="472.54" y2="500.97" class="up-wick"/>
<rect x="468.54" y="464.66" width="8.00" height="16.90" class="up-body"/>
<line x1="487.17" y1="436.40" x2="487.17" y2="481.46" class="up-wick"/>
<rect x="483.17" y="436.94" width="8.00" height="27.96" class="up-body"/>
<line x1="501.81" y1="433.54" x2="501.81" y2="453.90" class="down-wick"/>
<rect x="497.81" y="436.94" width="8.00" height="13.84" class="down-body"/>
<line x1="516.45" y1="422.89" x2="516.45" y2="451.08" class="up-wick"/>
<rect x="512.45" y="445.25" width="8.00" height="5.52" class="up-body"/>
<line x1="531.09" y1="429.39" x2="531.09" y2="450.51" class="down-wick"/>
<rect x="527.09" y="445.27" width="8.00" height="1.44" class="down-body"/>
<line x1="545.72" y1="435.72" x2="545.72" y2="477.90" class="down-wick"/>
<rect x="541.72" y="446.71" width="8.00" height="17.45" class="down-body"/>
<line x1="560.36" y1="461.33" x2="560.36" y2="488.95" class="down-wick"/>
<rect x="556.36" y="464.19" width="8.00" height="8.32" class="down-body"/>
<line x1="575.00" y1="446.36" x2="575.00" y2="483.25" class="up-wick"/>
<rect x="571.00" y="452.00" width="8.00" height="20.55" class="up-body"/>
<line x1="589.64" y1="440.99" x2="589.64" y2="480.92" class="down-wick"/>
<rect x="585.64" y="452.00" width="8.00" height="23.17" class="down-body"/>
<line x1="604.28" y1="448.95" x2="604.28" y2="479.07" class="up-wick"/>
<rect x="600.28" y="455.81" width="8.00" height="19.59" class="up-body"/>
<line x1="618.91" y1="444.07" x2="618.91" y2="463.06" class="up-wick"/>
<rect x="614.91" y="449.04" width="8.00" height="6.78" class="up-body"/>
<line x1="633.55" y1="426.78" x2="633.55" y2="451.31" class="up-wick"/>
<rect x="629.55" y="433.84" width="8.00" height="15.21" class="up-body"/>
<line x1="648.19" y1="409.87" x2="648.19" y2="437.12" class="up-wick"/>
<rect x="644.19" y="424.76" width="8.00" height="9.08" class="up-body"/>
<line x1="662.83" y1="415.31" x2="662.83" y2="433.71" class="up-wick"/>
<rect x="658.83" y="419.69" width="8.00" height="5.07" class="up-body"/>
<line x1="677.46" y1="416.04" x2="677.46" y2="445.71" class="down-wick"/>
<rect x="673.46" y="419.69" width="8.00" height="20.23" class="down-body"/>
<line x1="692.10" y1="439.92" x2="692.10" y2="461.40" class="down-wick"/>
<rect x="688.10" y="439.92" width="8.00" height="19.24" class="down-body"/>
<line x1="706.74" y1="455.93" x2="706.74" y2="476.54" class="down-wick"/>
<rect x="702.74" y="459.17" width="8.00" height="8.23" class="down-body"/>
<line x1="721.38" y1="450.66" x2="721.38" y2="470.28" class="up-wick"/>
<rect x="717.38" y="463.24" width="8.00" height="4.17" class="up-body"/>
<line x1="736.01" y1="453.72" x2="736.01" y2="474.32" class="up-wick"/>
<rect x="732.01" y="453.72" width="8.00" height="9.27" class="up-body"/>
<line x1="750.65" y1="452.26" x2="750.65" y2="474.33" class="down-wick"/>
<rect x="746.65" y="453.80" width="8.00" height="10.31" class="down-body"/>
<line x1="765.29" y1="454.14" x2="765.29" y2="465.80" class="up-wick"/>
<rect x="761.29" y="458.17" width="8.00" height="5.91" class="up-body"/>
<line x1="779.93" y1="454.26" x2="779.93" y2="466.85" class="down-wick"/>
<rect x="775.93" y="458.17" width="8.00" height="1.22" class="down-body"/>
<line x1="794.57" y1="447.33" x2="794.57" y2="462.52" class="up-wick"/>
<rect x="790.57" y="451.13" width="8.00" height="8.30" class="up-body"/>
<line x1="809.20" y1="444.95" x2="809.20" y2="457.97" class="down-wick"/>
<rect x="805.20" y="451.09" width="8.00" height="3.10" class="down-body"/>
<line x1="823.84" y1="453.80" x2="823.84" y2="485.04" class="down-wick"/>
<rect x="819.84" y="454.19" width="8.00" height="17.72" class="down-body"/>
<line x1="838.48" y1="449.54" x2="838.48" y2="482.40" class="up-wick"/>
<rect x="834.48" y="449.59" width="8.00" height="22.45" class="up-body"/>
<line x1="853.12" y1="436.15" x2="853.12" y2="451.91" class="up-wick"/>
<rect x="849.12" y="438.18" width="8.00" height="11.41" class="up-body"/>
<line x1="867.75" y1="427.87" x2="867.75" y2="445.71" class="down-wick"/>
<rect x="863.75" y="438.28" width="8.00" height="3.86" class="down-body"/>
<line x1="882.39" y1="440.89" x2="882.39" y2="452.57" class="down-wick"/>
<rect x="878.39" y="442.11" width="8.00" height="8.68" class="down-body"/>
<line x1="897.03" y1="438.58" x2="897.03" y2="458.87" class="down-wick"/>
<rect x="893.03" y="450.81" width="8.00" height="5.17" class="down-body"/>
<line x1="911.67" y1="443.26" x2="911.67" y2="472.27" class="down-wick"/>
<rect x="907.67" y="455.98" width="8.00" height="7.01" class="down-body"/>
<line x1="926.30" y1="446.73" x2="926.30" y2="472.99" class="up-wick"/>
<rect x="922.30" y="455.74" width="8.00" height="7.21" class="up-body"/>
<line x1="940.94" y1="450.64" x2="940.94" y2="471.49" class="down-wick"/>
<rect x="936.94" y="455.81" width="8.00" height="5.87" class="down-body"/>
<line x1="955.58" y1="445.62" x2="955.58" y2="462.25" class="up-wick"/>
<rect x="951.58" y="455.73" width="8.00" height="5.94" class="up-body"/>
<line x1="970.22" y1="443.71" x2="970.22" y2="459.22" class="up-wick"/>
<rect x="966.22" y="447.13" width="8.00" height="8.62" class="up-body"/>
<line x1="984.86" y1="435.27" x2="984.86" y2="455.51" class="down-wick"/>
<rect x="980.86" y="447.09" width="8.00" height="1.69" class="down-body"/>
<line x1="999.49" y1="435.27" x2="999.49" y2="450.11" class="up-wick"/>
<rect x="995.49" y="444.55" width="8.00" height="4.23" class="up-body"/>
<line x1="1014.13" y1="422.25" x2="1014.13" y2="446.84" class="up-wick"/>
<rect x="1010.13" y="422.60" width="8.00" height="21.95" class="up-body"/>
<line x1="1028.77" y1="412.03" x2="1028.77" y2="439.62" class="down-wick"/>
<rect x="1024.77" y="422.60" width="8.00" height="11.56" class="down-body"/>
<line x1="1043.41" y1="398.22" x2="1043.41" y2="436.02" class="up-wick"/>
<rect x="1039.41" y="417.65" width="8.00" height="16.51" class="up-body"/>
<line x1="1058.04" y1="410.87" x2="1058.04" y2="428.11" class="up-wick"/>
<rect x="1054.04" y="416.69" width="8.00" height="1.00" class="up-body"/>
<line x1="1072.68" y1="415.00" x2="1072.68" y2="428.22" class="down-wick"/>
<rect x="1068.68" y="416.66" width="8.00" height="5.97" class="down-body"/>
<line x1="70" y1="473.53" x2="1080" y2="473.53" class="sweep-line"/>
<text x="1076" y="469.53" text-anchor="end" class="level-label">sweep 5018.30</text>
<line x1="70" y1="476.54" x2="1080" y2="476.54" class="entry-line"/>
<text x="1076" y="472.54" text-anchor="end" class="level-label">entry level 5016.50</text>
<text x="70" y="556" class="axis-label">2026-02-09 17:30:00+00:00 to 2026-02-10 11:30:00+00:00</text>
<text x="1080" y="556" text-anchor="end" class="axis-label">4979.77 - 5094.52</text>
<text x="70" y="582" class="panel-title">M5 reaction / execution context</text>
<rect x="70" y="596" width="1010" height="192" class="plot-bg"/>
<line x1="79.18" y1="672.35" x2="79.18" y2="700.49" class="up-wick"/>
<rect x="75.18" y="681.56" width="8.00" height="13.96" class="up-body"/>
<line x1="97.55" y1="646.49" x2="97.55" y2="685.53" class="up-wick"/>
<rect x="93.55" y="651.16" width="8.00" height="29.84" class="up-body"/>
<line x1="115.91" y1="649.36" x2="115.91" y2="668.40" class="down-wick"/>
<rect x="111.91" y="651.24" width="8.00" height="10.79" class="down-body"/>
<line x1="134.27" y1="645.64" x2="134.27" y2="669.25" class="down-wick"/>
<rect x="130.27" y="662.03" width="8.00" height="1.84" class="down-body"/>
<line x1="152.64" y1="615.65" x2="152.64" y2="664.24" class="up-wick"/>
<rect x="148.64" y="616.57" width="8.00" height="47.23" class="up-body"/>
<line x1="171.00" y1="609.24" x2="171.00" y2="644.72" class="down-wick"/>
<rect x="167.00" y="616.57" width="8.00" height="25.46" class="down-body"/>
<line x1="189.36" y1="628.66" x2="189.36" y2="652.05" class="down-wick"/>
<rect x="185.36" y="642.03" width="8.00" height="1.55" class="down-body"/>
<line x1="207.73" y1="639.60" x2="207.73" y2="661.74" class="down-wick"/>
<rect x="203.73" y="643.58" width="8.00" height="4.86" class="down-body"/>
<line x1="226.09" y1="621.21" x2="226.09" y2="648.51" class="up-wick"/>
<rect x="222.09" y="630.87" width="8.00" height="17.46" class="up-body"/>
<line x1="244.45" y1="622.83" x2="244.45" y2="660.59" class="down-wick"/>
<rect x="240.45" y="630.87" width="8.00" height="29.25" class="down-body"/>
<line x1="262.82" y1="641.81" x2="262.82" y2="688.15" class="up-wick"/>
<rect x="258.82" y="654.96" width="8.00" height="5.16" class="up-body"/>
<line x1="281.18" y1="635.36" x2="281.18" y2="680.16" class="down-wick"/>
<rect x="277.18" y="655.07" width="8.00" height="20.34" class="down-body"/>
<line x1="299.55" y1="675.40" x2="299.55" y2="694.12" class="down-wick"/>
<rect x="295.55" y="675.40" width="8.00" height="15.77" class="down-body"/>
<line x1="317.91" y1="679.12" x2="317.91" y2="711.73" class="down-wick"/>
<rect x="313.91" y="690.84" width="8.00" height="13.41" class="down-body"/>
<line x1="336.27" y1="691.47" x2="336.27" y2="722.71" class="down-wick"/>
<rect x="332.27" y="704.25" width="8.00" height="13.52" class="down-body"/>
<line x1="354.64" y1="717.81" x2="354.64" y2="756.04" class="down-wick"/>
<rect x="350.64" y="717.81" width="8.00" height="24.83" class="down-body"/>
<line x1="373.00" y1="719.83" x2="373.00" y2="746.10" class="up-wick"/>
<rect x="369.00" y="724.18" width="8.00" height="18.46" class="up-body"/>
<line x1="391.36" y1="710.66" x2="391.36" y2="738.51" class="down-wick"/>
<rect x="387.36" y="724.18" width="8.00" height="11.75" class="down-body"/>
<line x1="409.73" y1="699.05" x2="409.73" y2="742.27" class="up-wick"/>
<rect x="405.73" y="716.11" width="8.00" height="19.82" class="up-body"/>
<line x1="428.09" y1="701.01" x2="428.09" y2="719.79" class="up-wick"/>
<rect x="424.09" y="710.14" width="8.00" height="5.97" class="up-body"/>
<line x1="446.45" y1="707.05" x2="446.45" y2="732.87" class="down-wick"/>
<rect x="442.45" y="710.00" width="8.00" height="16.76" class="down-body"/>
<line x1="464.82" y1="705.94" x2="464.82" y2="729.70" class="up-wick"/>
<rect x="460.82" y="708.85" width="8.00" height="17.35" class="up-body"/>
<line x1="483.18" y1="707.38" x2="483.18" y2="728.01" class="down-wick"/>
<rect x="479.18" y="708.82" width="8.00" height="11.97" class="down-body"/>
<line x1="501.55" y1="705.80" x2="501.55" y2="751.14" class="up-wick"/>
<rect x="497.55" y="705.80" width="8.00" height="14.81" class="up-body"/>
<line x1="519.91" y1="702.59" x2="519.91" y2="737.74" class="down-wick"/>
<rect x="515.91" y="705.98" width="8.00" height="28.59" class="down-body"/>
<line x1="538.27" y1="723.92" x2="538.27" y2="751.18" class="up-wick"/>
<rect x="534.27" y="726.43" width="8.00" height="8.14" class="up-body"/>
<line x1="556.64" y1="719.61" x2="556.64" y2="742.67" class="down-wick"/>
<rect x="552.64" y="726.43" width="8.00" height="2.25" class="down-body"/>
<line x1="575.00" y1="711.84" x2="575.00" y2="732.39" class="up-wick"/>
<rect x="571.00" y="716.55" width="8.00" height="12.05" class="up-body"/>
<line x1="593.36" y1="716.52" x2="593.36" y2="730.74" class="down-wick"/>
<rect x="589.36" y="716.55" width="8.00" height="4.24" class="down-body"/>
<line x1="611.73" y1="706.72" x2="611.73" y2="721.34" class="up-wick"/>
<rect x="607.73" y="715.60" width="8.00" height="5.19" class="up-body"/>
<line x1="630.09" y1="713.97" x2="630.09" y2="727.90" class="down-wick"/>
<rect x="626.09" y="715.60" width="8.00" height="4.53" class="down-body"/>
<line x1="648.45" y1="719.24" x2="648.45" y2="731.91" class="down-wick"/>
<rect x="644.45" y="720.02" width="8.00" height="7.33" class="down-body"/>
<line x1="666.82" y1="706.98" x2="666.82" y2="734.71" class="up-wick"/>
<rect x="662.82" y="718.28" width="8.00" height="9.06" class="up-body"/>
<line x1="685.18" y1="694.78" x2="685.18" y2="725.17" class="up-wick"/>
<rect x="681.18" y="695.33" width="8.00" height="23.02" class="up-body"/>
<line x1="703.55" y1="691.80" x2="703.55" y2="709.89" class="down-wick"/>
<rect x="699.55" y="695.33" width="8.00" height="4.68" class="down-body"/>
<line x1="721.91" y1="691.72" x2="721.91" y2="704.54" class="down-wick"/>
<rect x="717.91" y="700.01" width="8.00" height="1.00" class="down-body"/>
<line x1="740.27" y1="686.49" x2="740.27" y2="706.57" class="down-wick"/>
<rect x="736.27" y="700.01" width="8.00" height="1.00" class="down-body"/>
<line x1="758.64" y1="694.01" x2="758.64" y2="715.15" class="down-wick"/>
<rect x="754.64" y="700.93" width="8.00" height="2.54" class="down-body"/>
<line x1="777.00" y1="698.65" x2="777.00" y2="708.26" class="down-wick"/>
<rect x="773.00" y="703.51" width="8.00" height="3.32" class="down-body"/>
<line x1="795.36" y1="705.98" x2="795.36" y2="735.08" class="down-wick"/>
<rect x="791.36" y="706.83" width="8.00" height="23.21" class="down-body"/>
<line x1="813.73" y1="722.30" x2="813.73" y2="744.62" class="down-wick"/>
<rect x="809.73" y="729.93" width="8.00" height="13.93" class="down-body"/>
<line x1="832.09" y1="740.31" x2="832.09" y2="774.76" class="down-wick"/>
<rect x="828.09" y="743.85" width="8.00" height="1.99" class="down-body"/>
<line x1="850.45" y1="723.85" x2="850.45" y2="768.94" class="up-wick"/>
<rect x="846.45" y="739.32" width="8.00" height="6.82" class="up-body"/>
<line x1="868.82" y1="704.76" x2="868.82" y2="741.05" class="up-wick"/>
<rect x="864.82" y="708.89" width="8.00" height="30.43" class="up-body"/>
<line x1="887.18" y1="696.59" x2="887.18" y2="719.79" class="up-wick"/>
<rect x="883.18" y="696.70" width="8.00" height="11.94" class="up-body"/>
<line x1="905.55" y1="679.90" x2="905.55" y2="699.13" class="up-wick"/>
<rect x="901.55" y="689.44" width="8.00" height="7.26" class="up-body"/>
<line x1="923.91" y1="667.12" x2="923.91" y2="701.82" class="up-wick"/>
<rect x="919.91" y="675.44" width="8.00" height="14.00" class="up-body"/>
<line x1="942.27" y1="668.22" x2="942.27" y2="676.91" class="up-wick"/>
<rect x="938.27" y="671.57" width="8.00" height="3.87" class="up-body"/>
<line x1="960.64" y1="665.09" x2="960.64" y2="682.81" class="down-wick"/>
<rect x="956.64" y="671.79" width="8.00" height="1.00" class="down-body"/>
<line x1="979.00" y1="648.88" x2="979.00" y2="672.38" class="up-wick"/>
<rect x="975.00" y="669.29" width="8.00" height="2.87" class="up-body"/>
<line x1="997.36" y1="668.29" x2="997.36" y2="688.15" class="down-wick"/>
<rect x="993.36" y="669.29" width="8.00" height="11.01" class="down-body"/>
<line x1="1015.73" y1="677.54" x2="1015.73" y2="694.34" class="down-wick"/>
<rect x="1011.73" y="680.23" width="8.00" height="10.98" class="down-body"/>
<line x1="1034.09" y1="679.97" x2="1034.09" y2="699.87" class="up-wick"/>
<rect x="1030.09" y="689.73" width="8.00" height="1.47" class="up-body"/>
<line x1="1052.45" y1="679.53" x2="1052.45" y2="703.25" class="down-wick"/>
<rect x="1048.45" y="689.73" width="8.00" height="9.61" class="down-body"/>
<line x1="1070.82" y1="677.36" x2="1070.82" y2="712.02" class="up-wick"/>
<rect x="1066.82" y="678.09" width="8.00" height="21.29" class="up-body"/>
<line x1="70" y1="749.41" x2="1080" y2="749.41" class="sweep-line"/>
<text x="1076" y="745.41" text-anchor="end" class="level-label">sweep 5018.30</text>
<line x1="70" y1="756.04" x2="1080" y2="756.04" class="entry-line"/>
<text x="1076" y="752.04" text-anchor="end" class="level-label">entry level 5016.50</text>
<text x="70" y="806" class="axis-label">2026-02-10 04:00:00+00:00 to 2026-02-10 08:30:00+00:00</text>
<text x="1080" y="806" text-anchor="end" class="axis-label">5007.83 - 5059.94</text>
<text x="70" y="832" class="panel-title">M1 execution window</text>
<rect x="70" y="846" width="1010" height="192" class="plot-bg"/>
<line x1="73.71" y1="937.19" x2="73.71" y2="949.35" class="down-wick"/>
<rect x="71.30" y="945.52" width="4.83" height="1.00" class="down-body"/>
<line x1="81.14" y1="943.38" x2="81.14" y2="949.31" class="down-wick"/>
<rect x="78.73" y="946.33" width="4.83" height="2.28" class="down-body"/>
<line x1="88.57" y1="922.86" x2="88.57" y2="936.71" class="up-wick"/>
<rect x="86.15" y="931.56" width="4.83" height="1.00" class="up-body"/>
<line x1="95.99" y1="915.72" x2="95.99" y2="924.37" class="up-wick"/>
<rect x="93.58" y="917.82" width="4.83" height="6.34" class="up-body"/>
<line x1="103.42" y1="900.50" x2="103.42" y2="918.22" class="up-wick"/>
<rect x="101.01" y="901.50" width="4.83" height="11.79" class="up-body"/>
<line x1="110.85" y1="901.20" x2="110.85" y2="918.40" class="down-wick"/>
<rect x="108.43" y="901.24" width="4.83" height="7.74" class="down-body"/>
<line x1="118.27" y1="901.97" x2="118.27" y2="911.18" class="up-wick"/>
<rect x="115.86" y="902.20" width="4.83" height="8.58" class="up-body"/>
<line x1="125.70" y1="901.35" x2="125.70" y2="912.29" class="down-wick"/>
<rect x="123.28" y="901.75" width="4.83" height="10.28" class="down-body"/>
<line x1="133.12" y1="900.87" x2="133.12" y2="912.40" class="down-wick"/>
<rect x="130.71" y="901.83" width="4.83" height="9.43" class="down-body"/>
<line x1="140.55" y1="900.06" x2="140.55" y2="911.55" class="down-wick"/>
<rect x="138.14" y="900.35" width="4.83" height="11.13" class="down-body"/>
<line x1="147.98" y1="894.75" x2="147.98" y2="914.24" class="up-wick"/>
<rect x="145.56" y="899.80" width="4.83" height="14.00" class="up-body"/>
<line x1="155.40" y1="878.07" x2="155.40" y2="912.18" class="up-wick"/>
<rect x="152.99" y="884.14" width="4.83" height="18.35" class="up-body"/>
<line x1="162.83" y1="865.65" x2="162.83" y2="877.99" class="up-wick"/>
<rect x="160.42" y="866.57" width="4.83" height="9.39" class="up-body"/>
<line x1="170.26" y1="859.24" x2="170.26" y2="875.97" class="up-wick"/>
<rect x="167.84" y="870.07" width="4.83" height="3.72" class="up-body"/>
<line x1="177.68" y1="882.67" x2="177.68" y2="894.53" class="up-wick"/>
<rect x="175.27" y="887.64" width="4.83" height="6.89" class="up-body"/>
<line x1="185.11" y1="879.10" x2="185.11" y2="896.45" class="up-wick"/>
<rect x="182.70" y="888.20" width="4.83" height="3.83" class="up-body"/>
<line x1="192.54" y1="882.08" x2="192.54" y2="891.14" class="down-wick"/>
<rect x="190.12" y="883.78" width="4.83" height="2.21" class="down-body"/>
<line x1="199.96" y1="892.06" x2="199.96" y2="899.47" class="up-wick"/>
<rect x="197.55" y="893.58" width="4.83" height="4.64" class="up-body"/>
<line x1="207.39" y1="902.90" x2="207.39" y2="911.74" class="down-wick"/>
<rect x="204.98" y="910.04" width="4.83" height="1.03" class="down-body"/>
<line x1="214.82" y1="902.90" x2="214.82" y2="911.15" class="up-wick"/>
<rect x="212.40" y="905.25" width="4.83" height="3.02" class="up-body"/>
<line x1="222.24" y1="886.61" x2="222.24" y2="898.51" class="up-wick"/>
<rect x="219.83" y="893.98" width="4.83" height="4.35" class="up-body"/>
<line x1="229.67" y1="885.29" x2="229.67" y2="894.53" class="down-wick"/>
<rect x="227.26" y="891.25" width="4.83" height="2.25" class="down-body"/>
<line x1="237.10" y1="871.21" x2="237.10" y2="882.67" class="down-wick"/>
<rect x="234.68" y="879.87" width="4.83" height="1.00" class="down-body"/>
<line x1="244.52" y1="873.31" x2="244.52" y2="884.84" class="down-wick"/>
<rect x="242.11" y="873.98" width="4.83" height="9.95" class="down-body"/>
<line x1="251.95" y1="890.81" x2="251.95" y2="901.31" class="up-wick"/>
<rect x="249.53" y="899.69" width="4.83" height="1.00" class="up-body"/>
<line x1="259.38" y1="909.82" x2="259.38" y2="923.16" class="down-wick"/>
<rect x="256.96" y="910.12" width="4.83" height="7.99" class="down-body"/>
<line x1="266.80" y1="918.59" x2="266.80" y2="928.09" class="up-wick"/>
<rect x="264.39" y="918.63" width="4.83" height="9.25" class="up-body"/>
<line x1="274.23" y1="891.81" x2="274.23" y2="920.91" class="up-wick"/>
<rect x="271.81" y="904.96" width="4.83" height="15.10" class="up-body"/>
<line x1="281.65" y1="892.58" x2="281.65" y2="907.68" class="up-wick"/>
<rect x="279.24" y="899.06" width="4.83" height="5.97" class="up-body"/>
<line x1="289.08" y1="902.38" x2="289.08" y2="913.95" class="down-wick"/>
<rect x="286.67" y="902.38" width="4.83" height="11.16" class="down-body"/>
<line x1="296.51" y1="925.40" x2="296.51" y2="944.12" class="down-wick"/>
<rect x="294.09" y="925.40" width="4.83" height="13.26" class="down-body"/>
<line x1="303.93" y1="927.72" x2="303.93" y2="934.21" class="up-wick"/>
<rect x="301.52" y="932.66" width="4.83" height="1.00" class="up-body"/>
<line x1="311.36" y1="927.54" x2="311.36" y2="941.21" class="down-wick"/>
<rect x="308.95" y="932.77" width="4.83" height="8.40" class="down-body"/>
<line x1="318.79" y1="929.12" x2="318.79" y2="954.40" class="up-wick"/>
<rect x="316.37" y="945.63" width="4.83" height="7.85" class="up-body"/>
<line x1="326.21" y1="947.18" x2="326.21" y2="958.45" class="down-wick"/>
<rect x="323.80" y="950.34" width="4.83" height="5.38" class="down-body"/>
<line x1="333.64" y1="941.47" x2="333.64" y2="955.46" class="up-wick"/>
<rect x="331.23" y="947.80" width="4.83" height="6.45" class="up-body"/>
<line x1="341.07" y1="946.00" x2="341.07" y2="956.24" class="down-wick"/>
<rect x="338.65" y="950.20" width="4.83" height="5.64" class="down-body"/>
<line x1="348.49" y1="947.95" x2="348.49" y2="972.71" class="down-wick"/>
<rect x="346.08" y="952.37" width="4.83" height="15.40" class="down-body"/>
<line x1="355.92" y1="972.56" x2="355.92" y2="989.91" class="up-wick"/>
<rect x="353.51" y="975.06" width="4.83" height="14.22" class="up-body"/>
<line x1="363.35" y1="986.56" x2="363.35" y2="999.41" class="down-wick"/>
<rect x="360.93" y="987.11" width="4.83" height="10.17" class="down-body"/>
<line x1="370.77" y1="987.18" x2="370.77" y2="996.10" class="up-wick"/>
<rect x="368.36" y="987.18" width="4.83" height="5.45" class="up-body"/>
<line x1="378.20" y1="974.95" x2="378.20" y2="989.87" class="up-wick"/>
<rect x="375.78" y="978.23" width="4.83" height="1.73" class="up-body"/>
<line x1="385.62" y1="969.83" x2="385.62" y2="978.82" class="down-wick"/>
<rect x="383.21" y="972.71" width="4.83" height="1.47" class="down-body"/>
<line x1="393.05" y1="968.51" x2="393.05" y2="976.83" class="up-wick"/>
<rect x="390.64" y="969.24" width="4.83" height="7.37" class="up-body"/>
<line x1="400.48" y1="977.31" x2="400.48" y2="988.44" class="down-wick"/>
<rect x="398.06" y="979.85" width="4.83" height="3.20" class="down-body"/>
<line x1="407.90" y1="980.18" x2="407.90" y2="992.23" class="up-wick"/>
<rect x="405.49" y="980.22" width="4.83" height="5.71" class="up-body"/>
<line x1="415.33" y1="952.48" x2="415.33" y2="984.90" class="up-wick"/>
<rect x="412.92" y="952.59" width="4.83" height="31.06" class="up-body"/>
<line x1="422.76" y1="954.47" x2="422.76" y2="966.92" class="down-wick"/>
<rect x="420.34" y="959.37" width="4.83" height="6.74" class="down-body"/>
<line x1="430.18" y1="951.01" x2="430.18" y2="959.37" class="up-wick"/>
<rect x="427.77" y="957.82" width="4.83" height="1.00" class="up-body"/>
<line x1="437.61" y1="952.92" x2="437.61" y2="959.81" class="up-wick"/>
<rect x="435.20" y="955.46" width="4.83" height="3.87" class="up-body"/>
<line x1="445.04" y1="957.05" x2="445.04" y2="964.82" class="down-wick"/>
<rect x="442.62" y="960.00" width="4.83" height="4.20" class="down-body"/>
<line x1="452.46" y1="968.21" x2="452.46" y2="981.66" class="down-wick"/>
<rect x="450.05" y="968.54" width="4.83" height="13.11" class="down-body"/>
<line x1="459.89" y1="974.07" x2="459.89" y2="978.53" class="down-wick"/>
<rect x="457.48" y="976.17" width="4.83" height="1.00" class="down-body"/>
<line x1="467.32" y1="967.40" x2="467.32" y2="975.14" class="down-wick"/>
<rect x="464.90" y="969.68" width="4.83" height="5.45" class="down-body"/>
<line x1="474.74" y1="966.37" x2="474.74" y2="977.57" class="up-wick"/>
<rect x="472.33" y="973.22" width="4.83" height="1.00" class="up-body"/>
<line x1="482.17" y1="958.74" x2="482.17" y2="962.76" class="down-wick"/>
<rect x="479.76" y="958.82" width="4.83" height="1.55" class="down-body"/>
<line x1="489.60" y1="959.81" x2="489.60" y2="978.01" class="down-wick"/>
<rect x="487.18" y="959.81" width="4.83" height="13.23" class="down-body"/>
<line x1="497.02" y1="965.82" x2="497.02" y2="974.92" class="up-wick"/>
<rect x="494.61" y="970.79" width="4.83" height="1.00" class="up-body"/>
<line x1="504.45" y1="961.21" x2="504.45" y2="966.00" class="down-wick"/>
<rect x="502.03" y="962.21" width="4.83" height="3.20" class="down-body"/>
<line x1="511.88" y1="963.24" x2="511.88" y2="989.14" class="up-wick"/>
<rect x="509.46" y="964.16" width="4.83" height="18.01" class="up-body"/>
<line x1="519.30" y1="952.59" x2="519.30" y2="961.32" class="down-wick"/>
<rect x="516.89" y="955.98" width="4.83" height="3.87" class="down-body"/>
<line x1="526.73" y1="965.08" x2="526.73" y2="972.93" class="up-wick"/>
<rect x="524.31" y="967.36" width="4.83" height="3.57" class="up-body"/>
<line x1="534.15" y1="980.59" x2="534.15" y2="987.74" class="down-wick"/>
<rect x="531.74" y="980.59" width="4.83" height="3.98" class="down-body"/>
<line x1="541.58" y1="975.80" x2="541.58" y2="999.01" class="up-wick"/>
<rect x="539.17" y="976.17" width="4.83" height="22.66" class="up-body"/>
<line x1="549.01" y1="978.53" x2="549.01" y2="984.94" class="up-wick"/>
<rect x="546.59" y="978.56" width="4.83" height="1.88" class="up-body"/>
<line x1="556.43" y1="971.89" x2="556.43" y2="987.51" class="down-wick"/>
<rect x="554.02" y="976.43" width="4.83" height="10.28" class="down-body"/>
<line x1="563.86" y1="969.61" x2="563.86" y2="982.54" class="up-wick"/>
<rect x="561.45" y="979.04" width="4.83" height="2.43" class="up-body"/>
<line x1="571.29" y1="972.59" x2="571.29" y2="981.51" class="down-wick"/>
<rect x="568.87" y="972.59" width="4.83" height="6.08" class="down-body"/>
<line x1="578.71" y1="963.83" x2="578.71" y2="972.01" class="down-wick"/>
<rect x="576.30" y="967.62" width="4.83" height="1.84" class="down-body"/>
<line x1="586.14" y1="967.36" x2="586.14" y2="976.20" class="down-wick"/>
<rect x="583.73" y="971.05" width="4.83" height="1.00" class="down-body"/>
<line x1="593.57" y1="966.52" x2="593.57" y2="978.86" class="down-wick"/>
<rect x="591.15" y="966.55" width="4.83" height="10.87" class="down-body"/>
<line x1="600.99" y1="974.66" x2="600.99" y2="980.40" class="down-wick"/>
<rect x="598.58" y="974.84" width="4.83" height="5.42" class="down-body"/>
<line x1="608.42" y1="970.13" x2="608.42" y2="975.98" class="up-wick"/>
<rect x="606.01" y="970.79" width="4.83" height="4.64" class="up-body"/>
<line x1="615.85" y1="962.21" x2="615.85" y2="969.65" class="up-wick"/>
<rect x="613.43" y="965.08" width="4.83" height="3.20" class="up-body"/>
<line x1="623.27" y1="962.46" x2="623.27" y2="970.42" class="up-wick"/>
<rect x="620.86" y="962.80" width="4.83" height="6.82" class="up-body"/>
<line x1="630.70" y1="963.97" x2="630.70" y2="971.71" class="down-wick"/>
<rect x="628.28" y="965.60" width="4.83" height="2.62" class="down-body"/>
<line x1="638.12" y1="969.57" x2="638.12" y2="977.90" class="down-wick"/>
<rect x="635.71" y="969.98" width="4.83" height="5.08" class="down-body"/>
<line x1="645.55" y1="969.46" x2="645.55" y2="974.58" class="up-wick"/>
<rect x="643.14" y="970.13" width="4.83" height="1.99" class="up-body"/>
<line x1="652.98" y1="969.43" x2="652.98" y2="972.34" class="up-wick"/>
<rect x="650.56" y="970.42" width="4.83" height="1.92" class="up-body"/>
<line x1="660.40" y1="978.42" x2="660.40" y2="980.18" class="up-wick"/>
<rect x="657.99" y="978.49" width="4.83" height="1.00" class="up-body"/>
<line x1="667.83" y1="974.58" x2="667.83" y2="979.26" class="down-wick"/>
<rect x="665.42" y="977.35" width="4.83" height="1.07" class="down-body"/>
<line x1="675.26" y1="973.15" x2="675.26" y2="984.71" class="up-wick"/>
<rect x="672.84" y="974.81" width="4.83" height="6.82" class="up-body"/>
<line x1="682.68" y1="966.74" x2="682.68" y2="972.82" class="up-wick"/>
<rect x="680.27" y="968.28" width="4.83" height="2.39" class="up-body"/>
<line x1="690.11" y1="964.12" x2="690.11" y2="971.60" class="down-wick"/>
<rect x="687.70" y="964.38" width="4.83" height="4.75" class="down-body"/>
<line x1="697.54" y1="952.08" x2="697.54" y2="964.53" class="up-wick"/>
<rect x="695.12" y="953.18" width="4.83" height="11.16" class="up-body"/>
<line x1="704.96" y1="945.33" x2="704.96" y2="959.89" class="down-wick"/>
<rect x="702.55" y="945.33" width="4.83" height="6.85" class="down-body"/>
<line x1="712.39" y1="943.16" x2="712.39" y2="949.35" class="down-wick"/>
<rect x="709.98" y="943.16" width="4.83" height="5.27" class="down-body"/>
<line x1="719.82" y1="947.51" x2="719.82" y2="951.74" class="down-wick"/>
<rect x="717.40" y="949.83" width="4.83" height="1.00" class="down-body"/>
<line x1="727.24" y1="942.24" x2="727.24" y2="947.77" class="down-wick"/>
<rect x="724.83" y="943.16" width="4.83" height="3.54" class="down-body"/>
<line x1="734.67" y1="948.17" x2="734.67" y2="954.54" class="down-wick"/>
<rect x="732.26" y="949.05" width="4.83" height="1.00" class="down-body"/>
<line x1="742.10" y1="936.49" x2="742.10" y2="954.91" class="up-wick"/>
<rect x="739.68" y="941.54" width="4.83" height="8.47" class="up-body"/>
<line x1="749.52" y1="947.91" x2="749.52" y2="953.92" class="down-wick"/>
<rect x="747.11" y="948.69" width="4.83" height="4.64" class="down-body"/>
<line x1="756.95" y1="945.78" x2="756.95" y2="951.15" class="up-wick"/>
<rect x="754.53" y="950.60" width="4.83" height="1.00" class="up-body"/>
<line x1="764.38" y1="957.45" x2="764.38" y2="965.15" class="up-wick"/>
<rect x="761.96" y="957.67" width="4.83" height="1.69" class="up-body"/>
<line x1="771.80" y1="944.01" x2="771.80" y2="950.49" class="up-wick"/>
<rect x="769.39" y="949.13" width="4.83" height="1.36" class="up-body"/>
<line x1="779.23" y1="951.96" x2="779.23" y2="955.50" class="up-wick"/>
<rect x="776.81" y="953.40" width="4.83" height="1.00" class="up-body"/>
<line x1="786.65" y1="950.75" x2="786.65" y2="955.50" class="down-wick"/>
<rect x="784.24" y="950.90" width="4.83" height="1.69" class="down-body"/>
<line x1="794.08" y1="953.59" x2="794.08" y2="958.26" class="down-wick"/>
<rect x="791.67" y="955.43" width="4.83" height="1.40" class="down-body"/>
<line x1="801.51" y1="969.46" x2="801.51" y2="981.18" class="up-wick"/>
<rect x="799.09" y="972.48" width="4.83" height="1.14" class="up-body"/>
<line x1="808.93" y1="976.09" x2="808.93" y2="981.73" class="down-wick"/>
<rect x="806.52" y="978.82" width="4.83" height="1.00" class="down-body"/>
<line x1="816.36" y1="972.30" x2="816.36" y2="983.65" class="up-wick"/>
<rect x="813.95" y="974.03" width="4.83" height="5.89" class="up-body"/>
<line x1="823.79" y1="977.05" x2="823.79" y2="981.55" class="down-wick"/>
<rect x="821.37" y="977.83" width="4.83" height="2.76" class="down-body"/>
<line x1="831.21" y1="980.88" x2="831.21" y2="994.62" class="down-wick"/>
<rect x="828.80" y="984.53" width="4.83" height="9.32" class="down-body"/>
<line x1="838.64" y1="993.70" x2="838.64" y2="998.71" class="down-wick"/>
<rect x="836.23" y="994.29" width="4.83" height="4.05" class="down-body"/>
<line x1="846.07" y1="1006.27" x2="846.07" y2="1024.76" class="up-wick"/>
<rect x="843.65" y="1008.59" width="4.83" height="6.15" class="up-body"/>
<line x1="853.49" y1="992.23" x2="853.49" y2="1018.94" class="up-wick"/>
<rect x="851.08" y="992.93" width="4.83" height="3.20" class="up-body"/>
<line x1="860.92" y1="973.85" x2="860.92" y2="982.17" class="down-wick"/>
<rect x="858.51" y="980.37" width="4.83" height="1.00" class="down-body"/>
<line x1="868.35" y1="979.74" x2="868.35" y2="991.60" class="down-wick"/>
<rect x="865.93" y="983.46" width="4.83" height="5.86" class="down-body"/>
<line x1="875.77" y1="967.14" x2="875.77" y2="975.36" class="up-wick"/>
<rect x="873.36" y="970.64" width="4.83" height="3.43" class="up-body"/>
<line x1="883.20" y1="976.57" x2="883.20" y2="989.10" class="up-wick"/>
<rect x="880.78" y="978.01" width="4.83" height="3.50" class="up-body"/>
<line x1="890.62" y1="958.63" x2="890.62" y2="969.79" class="down-wick"/>
<rect x="888.21" y="958.63" width="4.83" height="2.28" class="down-body"/>
<line x1="898.05" y1="960.84" x2="898.05" y2="969.72" class="down-wick"/>
<rect x="895.64" y="963.83" width="4.83" height="1.00" class="down-body"/>
<line x1="905.48" y1="946.59" x2="905.48" y2="961.58" class="up-wick"/>
<rect x="903.06" y="946.70" width="4.83" height="13.15" class="up-body"/>
<line x1="912.90" y1="935.90" x2="912.90" y2="943.71" class="up-wick"/>
<rect x="910.49" y="941.58" width="4.83" height="1.14" class="up-body"/>
<line x1="920.33" y1="930.01" x2="920.33" y2="939.07" class="down-wick"/>
<rect x="917.92" y="930.05" width="4.83" height="5.30" class="down-body"/>
<line x1="927.76" y1="938.11" x2="927.76" y2="948.43" class="down-wick"/>
<rect x="925.34" y="939.44" width="4.83" height="7.40" class="down-body"/>
<line x1="935.18" y1="928.46" x2="935.18" y2="942.90" class="up-wick"/>
<rect x="932.77" y="929.05" width="4.83" height="13.78" class="up-body"/>
<line x1="942.61" y1="921.06" x2="942.61" y2="926.95" class="up-wick"/>
<rect x="940.20" y="925.44" width="4.83" height="1.51" class="up-body"/>
<line x1="950.04" y1="922.35" x2="950.04" y2="926.91" class="up-wick"/>
<rect x="947.62" y="922.46" width="4.83" height="1.00" class="up-body"/>
<line x1="957.46" y1="918.22" x2="957.46" y2="921.20" class="down-wick"/>
<rect x="955.05" y="919.47" width="4.83" height="1.00" class="down-body"/>
<line x1="964.89" y1="918.85" x2="964.89" y2="932.81" class="down-wick"/>
<rect x="962.48" y="921.79" width="4.83" height="1.73" class="down-body"/>
<line x1="972.32" y1="919.33" x2="972.32" y2="925.26" class="up-wick"/>
<rect x="969.90" y="919.33" width="4.83" height="3.87" class="up-body"/>
<line x1="979.74" y1="920.50" x2="979.74" y2="924.11" class="up-wick"/>
<rect x="977.33" y="922.13" width="4.83" height="1.11" class="up-body"/>
<line x1="987.17" y1="913.14" x2="987.17" y2="920.76" class="up-wick"/>
<rect x="984.76" y="917.59" width="4.83" height="2.65" class="up-body"/>
<line x1="994.60" y1="899.43" x2="994.60" y2="911.37" class="down-wick"/>
<rect x="992.18" y="899.87" width="4.83" height="8.33" class="down-body"/>
<line x1="1002.02" y1="919.03" x2="1002.02" y2="924.37" class="down-wick"/>
<rect x="999.61" y="919.29" width="4.83" height="2.76" class="down-body"/>
<line x1="1009.45" y1="928.42" x2="1009.45" y2="937.86" class="up-wick"/>
<rect x="1007.03" y="929.27" width="4.83" height="1.00" class="up-body"/>
<line x1="1016.88" y1="925.40" x2="1016.88" y2="938.15" class="up-wick"/>
<rect x="1014.46" y="930.30" width="4.83" height="1.00" class="up-body"/>
<line x1="1024.30" y1="927.80" x2="1024.30" y2="936.01" class="down-wick"/>
<rect x="1021.89" y="928.76" width="4.83" height="1.66" class="down-body"/>
<line x1="1031.73" y1="932.62" x2="1031.73" y2="944.16" class="up-wick"/>
<rect x="1029.31" y="933.32" width="4.83" height="10.24" class="up-body"/>
<line x1="1039.15" y1="940.21" x2="1039.15" y2="946.95" class="down-wick"/>
<rect x="1036.74" y="941.21" width="4.83" height="5.49" class="down-body"/>
<line x1="1046.58" y1="929.97" x2="1046.58" y2="934.43" class="up-wick"/>
<rect x="1044.17" y="931.37" width="4.83" height="2.69" class="up-body"/>
<line x1="1054.01" y1="931.19" x2="1054.01" y2="940.54" class="down-wick"/>
<rect x="1051.59" y="935.46" width="4.83" height="4.27" class="down-body"/>
<line x1="1061.43" y1="933.88" x2="1061.43" y2="953.25" class="up-wick"/>
<rect x="1059.02" y="939.29" width="4.83" height="7.18" class="up-body"/>
<line x1="1068.86" y1="941.32" x2="1068.86" y2="948.21" class="down-wick"/>
<rect x="1066.45" y="941.58" width="4.83" height="1.11" class="down-body"/>
<line x1="1076.29" y1="943.12" x2="1076.29" y2="953.11" class="up-wick"/>
<rect x="1073.87" y="947.36" width="4.83" height="2.03" class="up-body"/>
<line x1="70" y1="999.41" x2="1080" y2="999.41" class="sweep-line"/>
<text x="1076" y="995.41" text-anchor="end" class="level-label">sweep 5018.30</text>
<line x1="70" y1="1006.04" x2="1080" y2="1006.04" class="entry-line"/>
<text x="1076" y="1002.04" text-anchor="end" class="level-label">entry level 5016.50</text>
<text x="70" y="1056" class="axis-label">2026-02-10 04:00:00+00:00 to 2026-02-10 08:30:00+00:00</text>
<text x="1080" y="1056" text-anchor="end" class="axis-label">5007.83 - 5059.94</text>
</svg>