<svg xmlns="http://www.w3.org/2000/svg" width="1120" height="1054" viewBox="0 0 1120 1054">
<style>
text{font-family:Arial,Helvetica,sans-serif}.title{font-size:21px;font-weight:700;fill:#1f2937}.subtitle{font-size:12px;fill:#4b5563}.panel-title{font-size:15px;font-weight:700;fill:#111827}.muted{font-size:13px;fill:#6b7280}.plot-bg{fill:#f8fafc;stroke:#cbd5e1;stroke-width:1}.up-body{fill:#15803d;stroke:#14532d;stroke-width:.8}.down-body{fill:#b91c1c;stroke:#7f1d1d;stroke-width:.8}.up-wick{stroke:#14532d;stroke-width:1}.down-wick{stroke:#7f1d1d;stroke-width:1}.sweep-line{stroke:#7c3aed;stroke-width:1.6;stroke-dasharray:6 4}.number-line{stroke:#0f766e;stroke-width:1.4;stroke-dasharray:3 4}.entry-line{stroke:#2563eb;stroke-width:1.4}.sl-line{stroke:#dc2626;stroke-width:1.4}.tp-line{stroke:#16a34a;stroke-width:1.4}.level-label,.axis-label{font-size:11px;fill:#374151}
</style>
<text x="28" y="28" class="title">Adelin v2 visual review sample sample_026</text>
<text x="28" y="48" class="subtitle">Candidate windows are for visual labeling only and are not trade signals.</text>
<text x="560" y="48" class="subtitle" text-anchor="middle">NUMBER_THEORY_LEVEL_NEAR | LARGE_LOWER_WICK_REVERSAL_VISUAL_CANDIDATE | ROUND_LEVEL_ENTRY_METADATA_AVAILABLE</text>
<text x="70" y="82" class="panel-title">H1 liquidity context</text>
<rect x="70" y="96" width="1010" height="192" class="plot-bg"/>
<line x1="80.74" y1="266.63" x2="80.74" y2="274.76" class="up-wick"/>
<rect x="76.74" y="268.81" width="8.00" height="1.13" class="up-body"/>
<line x1="102.23" y1="263.48" x2="102.23" y2="272.16" class="up-wick"/>
<rect x="98.23" y="263.50" width="8.00" height="5.31" class="up-body"/>
<line x1="123.72" y1="260.13" x2="123.72" y2="265.27" class="up-wick"/>
<rect x="119.72" y="262.33" width="8.00" height="1.18" class="up-body"/>
<line x1="145.21" y1="227.26" x2="145.21" y2="262.83" class="up-wick"/>
<rect x="141.21" y="238.80" width="8.00" height="23.52" class="up-body"/>
<line x1="166.70" y1="229.95" x2="166.70" y2="244.87" class="up-wick"/>
<rect x="162.70" y="238.39" width="8.00" height="1.00" class="up-body"/>
<line x1="188.19" y1="223.36" x2="188.19" y2="244.30" class="up-wick"/>
<rect x="184.19" y="227.91" width="8.00" height="10.48" class="up-body"/>
<line x1="209.68" y1="215.78" x2="209.68" y2="239.57" class="down-wick"/>
<rect x="205.68" y="227.91" width="8.00" height="6.94" class="down-body"/>
<line x1="231.17" y1="229.60" x2="231.17" y2="240.34" class="up-wick"/>
<rect x="227.17" y="231.15" width="8.00" height="3.58" class="up-body"/>
<line x1="252.66" y1="223.09" x2="252.66" y2="239.16" class="up-wick"/>
<rect x="248.66" y="224.17" width="8.00" height="6.98" class="up-body"/>
<line x1="274.15" y1="219.49" x2="274.15" y2="227.47" class="up-wick"/>
<rect x="270.15" y="221.02" width="8.00" height="3.15" class="up-body"/>
<line x1="295.64" y1="210.81" x2="295.64" y2="222.06" class="up-wick"/>
<rect x="291.64" y="212.19" width="8.00" height="8.83" class="up-body"/>
<line x1="317.13" y1="200.55" x2="317.13" y2="216.34" class="up-wick"/>
<rect x="313.13" y="202.05" width="8.00" height="10.15" class="up-body"/>
<line x1="338.62" y1="126.26" x2="338.62" y2="186.17" class="up-wick"/>
<rect x="334.62" y="130.51" width="8.00" height="15.81" class="up-body"/>
<line x1="360.11" y1="129.71" x2="360.11" y2="161.02" class="down-wick"/>
<rect x="356.11" y="130.51" width="8.00" height="26.17" class="down-body"/>
<line x1="381.60" y1="156.59" x2="381.60" y2="185.94" class="down-wick"/>
<rect x="377.60" y="156.75" width="8.00" height="14.73" class="down-body"/>
<line x1="403.09" y1="153.78" x2="403.09" y2="176.93" class="up-wick"/>
<rect x="399.09" y="157.31" width="8.00" height="14.18" class="up-body"/>
<line x1="424.57" y1="143.82" x2="424.57" y2="158.74" class="up-wick"/>
<rect x="420.57" y="144.10" width="8.00" height="13.21" class="up-body"/>
<line x1="446.06" y1="143.61" x2="446.06" y2="158.14" class="down-wick"/>
<rect x="442.06" y="144.10" width="8.00" height="6.96" class="down-body"/>
<line x1="467.55" y1="144.21" x2="467.55" y2="161.19" class="up-wick"/>
<rect x="463.55" y="144.35" width="8.00" height="6.70" class="up-body"/>
<line x1="489.04" y1="128.65" x2="489.04" y2="146.08" class="up-wick"/>
<rect x="485.04" y="130.18" width="8.00" height="14.18" class="up-body"/>
<line x1="510.53" y1="109.24" x2="510.53" y2="131.92" class="up-wick"/>
<rect x="506.53" y="116.60" width="8.00" height="13.58" class="up-body"/>
<line x1="532.02" y1="110.91" x2="532.02" y2="127.82" class="down-wick"/>
<rect x="528.02" y="116.60" width="8.00" height="9.28" class="down-body"/>
<line x1="553.51" y1="120.10" x2="553.51" y2="131.15" class="down-wick"/>
<rect x="549.51" y="125.88" width="8.00" height="1.31" class="down-body"/>
<line x1="575.00" y1="121.39" x2="575.00" y2="135.70" class="down-wick"/>
<rect x="571.00" y="127.13" width="8.00" height="1.80" class="down-body"/>
<line x1="596.49" y1="121.98" x2="596.49" y2="138.14" class="down-wick"/>
<rect x="592.49" y="128.93" width="8.00" height="2.68" class="down-body"/>
<line x1="617.98" y1="122.77" x2="617.98" y2="135.92" class="up-wick"/>
<rect x="613.98" y="123.81" width="8.00" height="7.85" class="up-body"/>
<line x1="639.47" y1="110.92" x2="639.47" y2="133.81" class="down-wick"/>
<rect x="635.47" y="123.81" width="8.00" height="2.16" class="down-body"/>
<line x1="660.96" y1="125.09" x2="660.96" y2="183.44" class="down-wick"/>
<rect x="656.96" y="125.97" width="8.00" height="39.86" class="down-body"/>
<line x1="682.45" y1="155.71" x2="682.45" y2="182.53" class="down-wick"/>
<rect x="678.45" y="165.83" width="8.00" height="11.73" class="down-body"/>
<line x1="703.94" y1="177.75" x2="703.94" y2="213.94" class="down-wick"/>
<rect x="699.94" y="177.75" width="8.00" height="16.72" class="down-body"/>
<line x1="725.43" y1="174.39" x2="725.43" y2="196.58" class="up-wick"/>
<rect x="721.43" y="183.49" width="8.00" height="10.98" class="up-body"/>
<line x1="746.91" y1="176.99" x2="746.91" y2="194.89" class="up-wick"/>
<rect x="742.91" y="177.75" width="8.00" height="5.71" class="up-body"/>
<line x1="768.40" y1="165.52" x2="768.40" y2="178.85" class="up-wick"/>
<rect x="764.40" y="167.91" width="8.00" height="9.85" class="up-body"/>
<line x1="789.89" y1="157.39" x2="789.89" y2="169.27" class="up-wick"/>
<rect x="785.89" y="166.52" width="8.00" height="1.39" class="up-body"/>
<line x1="811.38" y1="161.24" x2="811.38" y2="174.34" class="down-wick"/>
<rect x="807.38" y="166.52" width="8.00" height="7.59" class="down-body"/>
<line x1="832.87" y1="156.86" x2="832.87" y2="174.11" class="up-wick"/>
<rect x="828.87" y="157.62" width="8.00" height="16.49" class="up-body"/>
<line x1="854.36" y1="146.94" x2="854.36" y2="163.61" class="up-wick"/>
<rect x="850.36" y="154.78" width="8.00" height="2.84" class="up-body"/>
<line x1="875.85" y1="135.26" x2="875.85" y2="162.94" class="down-wick"/>
<rect x="871.85" y="154.78" width="8.00" height="7.25" class="down-body"/>
<line x1="897.34" y1="143.04" x2="897.34" y2="166.18" class="up-wick"/>
<rect x="893.34" y="143.82" width="8.00" height="18.21" class="up-body"/>
<line x1="918.83" y1="139.42" x2="918.83" y2="148.93" class="up-wick"/>
<rect x="914.83" y="143.58" width="8.00" height="1.00" class="up-body"/>
<line x1="940.32" y1="138.08" x2="940.32" y2="148.73" class="down-wick"/>
<rect x="936.32" y="143.57" width="8.00" height="4.02" class="down-body"/>
<line x1="961.81" y1="143.58" x2="961.81" y2="184.45" class="down-wick"/>
<rect x="957.81" y="147.58" width="8.00" height="27.77" class="down-body"/>
<line x1="983.30" y1="172.77" x2="983.30" y2="201.90" class="down-wick"/>
<rect x="979.30" y="175.36" width="8.00" height="5.63" class="down-body"/>
<line x1="1004.79" y1="167.39" x2="1004.79" y2="184.03" class="up-wick"/>
<rect x="1000.79" y="169.68" width="8.00" height="11.30" class="up-body"/>
<line x1="1026.28" y1="164.29" x2="1026.28" y2="194.41" class="down-wick"/>
<rect x="1022.28" y="169.68" width="8.00" height="21.11" class="down-body"/>
<line x1="1047.77" y1="185.43" x2="1047.77" y2="236.72" class="down-wick"/>
<rect x="1043.77" y="190.78" width="8.00" height="13.70" class="down-body"/>
<line x1="1069.26" y1="195.86" x2="1069.26" y2="228.60" class="down-wick"/>
<rect x="1065.26" y="204.49" width="8.00" height="17.71" class="down-body"/>
<line x1="70" y1="128.57" x2="1080" y2="128.57" class="number-line"/>
<text x="1076" y="124.57" text-anchor="end" class="level-label">round 5390.00</text>
<line x1="70" y1="128.57" x2="1080" y2="128.57" class="entry-line"/>
<text x="1076" y="124.57" text-anchor="end" class="level-label">entry level 5390.00</text>
<text x="70" y="306" class="axis-label">2026-02-27 12:00:00+00:00 to 2026-03-03 12:00:00+00:00</text>
<text x="1080" y="306" text-anchor="end" class="axis-label">5148.66 - 5439.30</text>
<text x="70" y="332" class="panel-title">M15 liquidity / reaction context</text>
<rect x="70" y="346" width="1010" height="192" class="plot-bg"/>
<line x1="77.32" y1="400.90" x2="77.32" y2="480.85" class="down-wick"/>
<rect x="73.32" y="417.85" width="8.00" height="16.00" class="down-body"/>
<line x1="91.96" y1="422.54" x2="91.96" y2="437.97" class="up-wick"/>
<rect x="87.96" y="426.43" width="8.00" height="7.44" class="up-body"/>
<line x1="106.59" y1="386.14" x2="106.59" y2="428.49" class="up-wick"/>
<rect x="102.59" y="397.77" width="8.00" height="28.67" class="up-body"/>
<line x1="121.23" y1="388.76" x2="121.23" y2="406.55" class="up-wick"/>
<rect x="117.23" y="392.86" width="8.00" height="4.92" class="up-body"/>
<line x1="135.87" y1="391.59" x2="135.87" y2="416.82" class="down-wick"/>
<rect x="131.87" y="392.86" width="8.00" height="11.56" class="down-body"/>
<line x1="150.51" y1="404.29" x2="150.51" y2="432.64" class="down-wick"/>
<rect x="146.51" y="404.42" width="8.00" height="11.94" class="down-body"/>
<line x1="165.14" y1="407.04" x2="165.14" y2="421.88" class="up-wick"/>
<rect x="161.14" y="415.68" width="8.00" height="1.00" class="up-body"/>
<line x1="179.78" y1="414.35" x2="179.78" y2="441.10" class="down-wick"/>
<rect x="175.78" y="415.68" width="8.00" height="18.56" class="down-body"/>
<line x1="194.42" y1="434.10" x2="194.42" y2="467.07" class="down-wick"/>
<rect x="190.42" y="434.35" width="8.00" height="7.27" class="down-body"/>
<line x1="209.06" y1="435.51" x2="209.06" y2="480.50" class="down-wick"/>
<rect x="205.06" y="441.64" width="8.00" height="34.15" class="down-body"/>
<line x1="223.70" y1="442.95" x2="223.70" y2="477.73" class="up-wick"/>
<rect x="219.70" y="448.79" width="8.00" height="26.99" class="up-body"/>
<line x1="238.33" y1="443.94" x2="238.33" y2="460.70" class="down-wick"/>
<rect x="234.33" y="448.79" width="8.00" height="8.85" class="down-body"/>
<line x1="252.97" y1="446.67" x2="252.97" y2="466.25" class="up-wick"/>
<rect x="248.97" y="454.38" width="8.00" height="3.26" class="up-body"/>
<line x1="267.61" y1="445.93" x2="267.61" y2="456.34" class="up-wick"/>
<rect x="263.61" y="451.14" width="8.00" height="2.96" class="up-body"/>
<line x1="282.25" y1="429.83" x2="282.25" y2="454.45" class="up-wick"/>
<rect x="278.25" y="430.52" width="8.00" height="20.63" class="up-body"/>
<line x1="296.88" y1="429.66" x2="296.88" y2="441.12" class="down-wick"/>
<rect x="292.88" y="431.00" width="8.00" height="4.23" class="down-body"/>
<line x1="311.52" y1="423.71" x2="311.52" y2="437.49" class="up-wick"/>
<rect x="307.52" y="426.19" width="8.00" height="9.03" class="up-body"/>
<line x1="326.16" y1="421.61" x2="326.16" y2="431.90" class="up-wick"/>
<rect x="322.16" y="425.69" width="8.00" height="1.00" class="up-body"/>
<line x1="340.80" y1="415.91" x2="340.80" y2="427.80" class="up-wick"/>
<rect x="336.80" y="418.98" width="8.00" height="6.72" class="up-body"/>
<line x1="355.43" y1="413.91" x2="355.43" y2="421.38" class="up-wick"/>
<rect x="351.43" y="414.35" width="8.00" height="4.52" class="up-body"/>
<line x1="370.07" y1="413.58" x2="370.07" y2="425.71" class="down-wick"/>
<rect x="366.07" y="414.35" width="8.00" height="10.89" class="down-body"/>
<line x1="384.71" y1="414.79" x2="384.71" y2="425.44" class="up-wick"/>
<rect x="380.71" y="417.55" width="8.00" height="7.70" class="up-body"/>
<line x1="399.35" y1="416.43" x2="399.35" y2="436.55" class="down-wick"/>
<rect x="395.35" y="417.55" width="8.00" height="9.67" class="down-body"/>
<line x1="413.99" y1="422.75" x2="413.99" y2="430.74" class="up-wick"/>
<rect x="409.99" y="425.35" width="8.00" height="1.88" class="up-body"/>
<line x1="428.62" y1="425.22" x2="428.62" y2="436.10" class="down-wick"/>
<rect x="424.62" y="425.35" width="8.00" height="6.07" class="down-body"/>
<line x1="443.26" y1="427.15" x2="443.26" y2="441.37" class="up-wick"/>
<rect x="439.26" y="430.67" width="8.00" height="1.00" class="up-body"/>
<line x1="457.90" y1="417.26" x2="457.90" y2="432.77" class="up-wick"/>
<rect x="453.90" y="420.50" width="8.00" height="10.17" class="up-body"/>
<line x1="472.54" y1="414.52" x2="472.54" y2="421.85" class="up-wick"/>
<rect x="468.54" y="414.75" width="8.00" height="5.57" class="up-body"/>
<line x1="487.17" y1="400.18" x2="487.17" y2="417.47" class="up-wick"/>
<rect x="483.17" y="405.35" width="8.00" height="9.40" class="up-body"/>
<line x1="501.81" y1="398.77" x2="501.81" y2="406.81" class="up-wick"/>
<rect x="497.81" y="399.50" width="8.00" height="5.85" class="up-body"/>
<line x1="516.45" y1="397.11" x2="516.45" y2="406.22" class="down-wick"/>
<rect x="512.45" y="399.50" width="8.00" height="5.27" class="down-body"/>
<line x1="531.09" y1="389.92" x2="531.09" y2="404.80" class="up-wick"/>
<rect x="527.09" y="392.34" width="8.00" height="12.45" class="up-body"/>
<line x1="545.72" y1="372.15" x2="545.72" y2="395.09" class="up-wick"/>
<rect x="541.72" y="373.06" width="8.00" height="19.28" class="up-body"/>
<line x1="560.36" y1="359.24" x2="560.36" y2="374.72" class="up-wick"/>
<rect x="556.36" y="370.37" width="8.00" height="2.68" class="up-body"/>
<line x1="575.00" y1="367.13" x2="575.00" y2="377.10" class="down-wick"/>
<rect x="571.00" y="370.37" width="8.00" height="5.82" class="down-body"/>
<line x1="589.64" y1="364.23" x2="589.64" y2="376.79" class="up-wick"/>
<rect x="585.64" y="370.88" width="8.00" height="5.47" class="up-body"/>
<line x1="604.28" y1="365.70" x2="604.28" y2="376.63" class="up-wick"/>
<rect x="600.28" y="369.26" width="8.00" height="1.62" class="up-body"/>
<line x1="618.91" y1="362.51" x2="618.91" y2="376.98" class="up-wick"/>
<rect x="614.91" y="362.89" width="8.00" height="6.37" class="up-body"/>
<line x1="633.55" y1="361.87" x2="633.55" y2="383.04" class="down-wick"/>
<rect x="629.55" y="362.89" width="8.00" height="14.47" class="down-body"/>
<line x1="648.19" y1="367.73" x2="648.19" y2="388.61" class="down-wick"/>
<rect x="644.19" y="377.36" width="8.00" height="8.19" class="down-body"/>
<line x1="662.83" y1="379.21" x2="662.83" y2="390.20" class="up-wick"/>
<rect x="658.83" y="384.88" width="8.00" height="1.00" class="up-body"/>
<line x1="677.46" y1="380.67" x2="677.46" y2="393.87" class="down-wick"/>
<rect x="673.46" y="384.88" width="8.00" height="1.00" class="down-body"/>
<line x1="692.10" y1="376.41" x2="692.10" y2="385.36" class="up-wick"/>
<rect x="688.10" y="382.78" width="8.00" height="2.11" class="up-body"/>
<line x1="706.74" y1="382.10" x2="706.74" y2="392.63" class="down-wick"/>
<rect x="702.74" y="382.78" width="8.00" height="4.84" class="down-body"/>
<line x1="721.38" y1="385.04" x2="721.38" y2="401.08" class="down-wick"/>
<rect x="717.38" y="387.52" width="8.00" height="1.84" class="down-body"/>
<line x1="736.01" y1="387.24" x2="736.01" y2="396.39" class="down-wick"/>
<rect x="732.01" y="389.32" width="8.00" height="1.00" class="down-body"/>
<line x1="750.65" y1="378.51" x2="750.65" y2="392.89" class="up-wick"/>
<rect x="746.65" y="378.94" width="8.00" height="10.77" class="up-body"/>
<line x1="765.29" y1="378.45" x2="765.29" y2="398.60" class="down-wick"/>
<rect x="761.29" y="378.94" width="8.00" height="11.44" class="down-body"/>
<line x1="779.93" y1="384.75" x2="779.93" y2="397.77" class="down-wick"/>
<rect x="775.93" y="390.37" width="8.00" height="1.00" class="down-body"/>
<line x1="794.57" y1="382.29" x2="794.57" y2="392.25" class="up-wick"/>
<rect x="790.57" y="389.32" width="8.00" height="1.94" class="up-body"/>
<line x1="809.20" y1="379.38" x2="809.20" y2="390.86" class="down-wick"/>
<rect x="805.20" y="389.32" width="8.00" height="1.32" class="down-body"/>
<line x1="823.84" y1="389.90" x2="823.84" y2="404.93" class="down-wick"/>
<rect x="819.84" y="390.63" width="8.00" height="3.98" class="down-body"/>
<line x1="838.48" y1="380.98" x2="838.48" y2="401.41" class="up-wick"/>
<rect x="834.48" y="388.22" width="8.00" height="6.45" class="up-body"/>
<line x1="853.12" y1="383.49" x2="853.12" y2="395.26" class="up-wick"/>
<rect x="849.12" y="385.58" width="8.00" height="2.63" class="up-body"/>
<line x1="867.75" y1="380.63" x2="867.75" y2="391.06" class="up-wick"/>
<rect x="863.75" y="382.93" width="8.00" height="2.65" class="up-body"/>
<line x1="882.39" y1="380.88" x2="882.39" y2="394.44" class="up-wick"/>
<rect x="878.39" y="382.27" width="8.00" height="1.00" class="up-body"/>
<line x1="897.03" y1="368.76" x2="897.03" y2="398.08" class="down-wick"/>
<rect x="893.03" y="382.27" width="8.00" height="13.48" class="down-body"/>
<line x1="911.67" y1="369.62" x2="911.67" y2="397.52" class="up-wick"/>
<rect x="907.67" y="377.62" width="8.00" height="18.13" class="up-body"/>
<line x1="926.30" y1="361.89" x2="926.30" y2="387.38" class="down-wick"/>
<rect x="922.30" y="377.54" width="8.00" height="9.02" class="down-body"/>
<line x1="940.94" y1="381.10" x2="940.94" y2="390.40" class="up-wick"/>
<rect x="936.94" y="385.68" width="8.00" height="1.00" class="up-body"/>
<line x1="955.58" y1="384.30" x2="955.58" y2="417.38" class="down-wick"/>
<rect x="951.58" y="385.68" width="8.00" height="19.36" class="down-body"/>
<line x1="970.22" y1="403.51" x2="970.22" y2="476.20" class="down-wick"/>
<rect x="966.22" y="405.05" width="8.00" height="43.61" class="down-body"/>
<line x1="984.86" y1="425.35" x2="984.86" y2="476.54" class="up-wick"/>
<rect x="980.86" y="434.03" width="8.00" height="14.67" class="up-body"/>
<line x1="999.49" y1="429.94" x2="999.49" y2="461.91" class="down-wick"/>
<rect x="995.49" y="434.03" width="8.00" height="14.67" class="down-body"/>
<line x1="1014.13" y1="434.83" x2="1014.13" y2="472.00" class="up-wick"/>
<rect x="1010.13" y="448.53" width="8.00" height="1.00" class="up-body"/>
<line x1="1028.77" y1="442.95" x2="1028.77" y2="465.42" class="down-wick"/>
<rect x="1024.77" y="448.53" width="8.00" height="2.86" class="down-body"/>
<line x1="1043.41" y1="432.71" x2="1043.41" y2="452.49" class="up-wick"/>
<rect x="1039.41" y="439.67" width="8.00" height="11.74" class="up-body"/>
<line x1="1058.04" y1="436.66" x2="1058.04" y2="475.10" class="down-wick"/>
<rect x="1054.04" y="439.67" width="8.00" height="27.57" class="down-body"/>
<line x1="1072.68" y1="467.55" x2="1072.68" y2="524.76" class="down-wick"/>
<rect x="1068.68" y="467.55" width="8.00" height="15.56" class="down-body"/>
<line x1="70" y1="389.80" x2="1080" y2="389.80" class="number-line"/>
<text x="1076" y="385.80" text-anchor="end" class="level-label">round 5390.00</text>
<line x1="70" y1="389.80" x2="1080" y2="389.80" class="entry-line"/>
<text x="1076" y="385.80" text-anchor="end" class="level-label">entry level 5390.00</text>
<text x="70" y="556" class="axis-label">2026-03-02 01:00:00+00:00 to 2026-03-02 18:00:00+00:00</text>
<text x="1080" y="556" text-anchor="end" class="axis-label">5248.09 - 5431.94</text>
<text x="70" y="582" class="panel-title">M5 reaction / execution context</text>
<rect x="70" y="596" width="1010" height="192" class="plot-bg"/>
<line x1="79.18" y1="609.24" x2="79.18" y2="639.15" class="down-wick"/>
<rect x="75.18" y="613.14" width="8.00" height="7.31" class="down-body"/>
<line x1="97.55" y1="618.84" x2="97.55" y2="642.44" class="down-wick"/>
<rect x="93.55" y="620.44" width="8.00" height="19.19" class="down-body"/>
<line x1="115.91" y1="634.89" x2="115.91" y2="690.62" class="down-wick"/>
<rect x="111.91" y="639.63" width="8.00" height="29.15" class="down-body"/>
<line x1="134.27" y1="631.76" x2="134.27" y2="678.37" class="up-wick"/>
<rect x="130.27" y="638.15" width="8.00" height="30.63" class="up-body"/>
<line x1="152.64" y1="636.70" x2="152.64" y2="677.41" class="down-wick"/>
<rect x="148.64" y="638.11" width="8.00" height="37.21" class="down-body"/>
<line x1="171.00" y1="674.60" x2="171.00" y2="712.01" class="down-wick"/>
<rect x="167.00" y="675.52" width="8.00" height="24.73" class="down-body"/>
<line x1="189.36" y1="688.61" x2="189.36" y2="713.66" class="down-wick"/>
<rect x="185.36" y="700.25" width="8.00" height="6.26" class="down-body"/>
<line x1="207.73" y1="675.88" x2="207.73" y2="707.19" class="up-wick"/>
<rect x="203.73" y="684.95" width="8.00" height="21.52" class="up-body"/>
<line x1="226.09" y1="683.03" x2="226.09" y2="718.11" class="down-wick"/>
<rect x="222.09" y="684.95" width="8.00" height="12.73" class="down-body"/>
<line x1="244.45" y1="681.50" x2="244.45" y2="711.37" class="down-wick"/>
<rect x="240.45" y="697.68" width="8.00" height="13.05" class="down-body"/>
<line x1="262.82" y1="690.49" x2="262.82" y2="732.25" class="up-wick"/>
<rect x="258.82" y="691.18" width="8.00" height="19.55" class="up-body"/>
<line x1="281.18" y1="689.85" x2="281.18" y2="708.08" class="down-wick"/>
<rect x="277.18" y="691.18" width="8.00" height="6.54" class="down-body"/>
<line x1="299.55" y1="665.12" x2="299.55" y2="699.53" class="up-wick"/>
<rect x="295.55" y="687.44" width="8.00" height="10.28" class="up-body"/>
<line x1="317.91" y1="677.45" x2="317.91" y2="698.24" class="down-wick"/>
<rect x="313.91" y="687.44" width="8.00" height="7.67" class="down-body"/>
<line x1="336.27" y1="683.87" x2="336.27" y2="698.28" class="up-wick"/>
<rect x="332.27" y="689.61" width="8.00" height="5.50" class="up-body"/>
<line x1="354.64" y1="687.00" x2="354.64" y2="723.13" class="down-wick"/>
<rect x="350.64" y="689.61" width="8.00" height="25.33" class="down-body"/>
<line x1="373.00" y1="692.54" x2="373.00" y2="727.47" class="up-wick"/>
<rect x="369.00" y="704.83" width="8.00" height="10.12" class="up-body"/>
<line x1="391.36" y1="697.32" x2="391.36" y2="713.86" class="down-wick"/>
<rect x="387.36" y="705.03" width="8.00" height="3.17" class="down-body"/>
<line x1="409.73" y1="705.79" x2="409.73" y2="742.84" class="down-wick"/>
<rect x="405.73" y="707.84" width="8.00" height="25.05" class="down-body"/>
<line x1="428.09" y1="708.92" x2="428.09" y2="759.95" class="up-wick"/>
<rect x="424.09" y="713.10" width="8.00" height="19.79" class="up-body"/>
<line x1="446.45" y1="698.28" x2="446.45" y2="725.34" class="down-wick"/>
<rect x="442.45" y="713.10" width="8.00" height="1.81" class="down-body"/>
<line x1="464.82" y1="706.75" x2="464.82" y2="723.17" class="up-wick"/>
<rect x="460.82" y="713.22" width="8.00" height="1.53" class="up-body"/>
<line x1="483.18" y1="710.81" x2="483.18" y2="731.52" class="down-wick"/>
<rect x="479.18" y="713.22" width="8.00" height="10.92" class="down-body"/>
<line x1="501.55" y1="713.30" x2="501.55" y2="741.92" class="up-wick"/>
<rect x="497.55" y="716.23" width="8.00" height="7.91" class="up-body"/>
<line x1="519.91" y1="700.61" x2="519.91" y2="728.47" class="up-wick"/>
<rect x="515.91" y="709.56" width="8.00" height="6.66" class="up-body"/>
<line x1="538.27" y1="684.55" x2="538.27" y2="712.53" class="up-wick"/>
<rect x="534.27" y="698.56" width="8.00" height="11.00" class="up-body"/>
<line x1="556.64" y1="673.19" x2="556.64" y2="706.91" class="up-wick"/>
<rect x="552.64" y="674.84" width="8.00" height="23.73" class="up-body"/>
<line x1="575.00" y1="672.95" x2="575.00" y2="697.00" class="down-wick"/>
<rect x="571.00" y="674.84" width="8.00" height="21.68" class="down-body"/>
<line x1="593.36" y1="694.03" x2="593.36" y2="744.21" class="down-wick"/>
<rect x="589.36" y="696.52" width="8.00" height="34.65" class="down-body"/>
<line x1="611.73" y1="718.27" x2="611.73" y2="750.43" class="up-wick"/>
<rect x="607.73" y="718.80" width="8.00" height="12.36" class="up-body"/>
<line x1="630.09" y1="697.20" x2="630.09" y2="725.30" class="down-wick"/>
<rect x="626.09" y="718.80" width="8.00" height="1.32" class="down-body"/>
<line x1="648.45" y1="715.38" x2="648.45" y2="739.11" class="down-wick"/>
<rect x="644.45" y="720.12" width="8.00" height="12.93" class="down-body"/>
<line x1="666.82" y1="719.44" x2="666.82" y2="747.22" class="up-wick"/>
<rect x="662.82" y="722.21" width="8.00" height="10.84" class="up-body"/>
<line x1="685.18" y1="687.72" x2="685.18" y2="724.54" class="up-wick"/>
<rect x="681.18" y="700.97" width="8.00" height="21.24" class="up-body"/>
<line x1="703.55" y1="700.77" x2="703.55" y2="726.02" class="down-wick"/>
<rect x="699.55" y="700.97" width="8.00" height="21.16" class="down-body"/>
<line x1="721.91" y1="701.74" x2="721.91" y2="722.17" class="up-wick"/>
<rect x="717.91" y="714.74" width="8.00" height="7.39" class="up-body"/>
<line x1="740.27" y1="685.20" x2="740.27" y2="717.75" class="up-wick"/>
<rect x="736.27" y="688.73" width="8.00" height="26.01" class="up-body"/>
<line x1="758.64" y1="676.52" x2="758.64" y2="700.01" class="down-wick"/>
<rect x="754.64" y="688.73" width="8.00" height="3.77" class="down-body"/>
<line x1="777.00" y1="691.82" x2="777.00" y2="720.68" class="down-wick"/>
<rect x="773.00" y="692.50" width="8.00" height="27.30" class="down-body"/>
<line x1="795.36" y1="716.99" x2="795.36" y2="774.76" class="down-wick"/>
<rect x="791.36" y="719.80" width="8.00" height="32.84" class="down-body"/>
<line x1="813.73" y1="738.87" x2="813.73" y2="763.16" class="down-wick"/>
<rect x="809.73" y="752.64" width="8.00" height="10.24" class="down-body"/>
<line x1="832.09" y1="735.02" x2="832.09" y2="763.32" class="up-wick"/>
<rect x="828.09" y="735.10" width="8.00" height="27.78" class="up-body"/>
<line x1="850.45" y1="728.47" x2="850.45" y2="761.23" class="up-wick"/>
<rect x="846.45" y="729.07" width="8.00" height="6.26" class="up-body"/>
<line x1="868.82" y1="704.34" x2="868.82" y2="729.23" class="up-wick"/>
<rect x="864.82" y="711.85" width="8.00" height="17.22" class="up-body"/>
<line x1="887.18" y1="682.71" x2="887.18" y2="713.78" class="up-wick"/>
<rect x="883.18" y="710.53" width="8.00" height="1.32" class="up-body"/>
<line x1="905.55" y1="709.36" x2="905.55" y2="737.58" class="down-wick"/>
<rect x="901.55" y="710.49" width="8.00" height="20.11" class="down-body"/>
<line x1="923.91" y1="692.34" x2="923.91" y2="733.13" class="up-wick"/>
<rect x="919.91" y="698.84" width="8.00" height="31.75" class="up-body"/>
<line x1="942.27" y1="698.76" x2="942.27" y2="716.03" class="down-wick"/>
<rect x="938.27" y="698.84" width="8.00" height="1.53" class="down-body"/>
<line x1="960.64" y1="690.05" x2="960.64" y2="704.10" class="up-wick"/>
<rect x="956.64" y="696.32" width="8.00" height="4.05" class="up-body"/>
<line x1="979.00" y1="694.39" x2="979.00" y2="721.45" class="down-wick"/>
<rect x="975.00" y="696.32" width="8.00" height="10.60" class="down-body"/>
<line x1="997.36" y1="681.34" x2="997.36" y2="707.11" class="up-wick"/>
<rect x="993.36" y="690.17" width="8.00" height="16.74" class="up-body"/>
<line x1="1015.73" y1="682.31" x2="1015.73" y2="702.46" class="down-wick"/>
<rect x="1011.73" y="690.29" width="8.00" height="3.57" class="down-body"/>
<line x1="1034.09" y1="693.26" x2="1034.09" y2="713.98" class="down-wick"/>
<rect x="1030.09" y="693.87" width="8.00" height="17.90" class="down-body"/>
<line x1="1052.45" y1="686.76" x2="1052.45" y2="734.41" class="up-wick"/>
<rect x="1048.45" y="687.64" width="8.00" height="24.13" class="up-body"/>
<line x1="1070.82" y1="667.33" x2="1070.82" y2="718.03" class="up-wick"/>
<rect x="1066.82" y="671.47" width="8.00" height="16.18" class="up-body"/>
<line x1="70" y1="716.59" x2="1080" y2="716.59" class="number-line"/>
<text x="1076" y="712.59" text-anchor="end" class="level-label">round 5390.00</text>
<line x1="70" y1="716.59" x2="1080" y2="716.59" class="entry-line"/>
<text x="1076" y="712.59" text-anchor="end" class="level-label">entry level 5390.00</text>
<text x="70" y="806" class="axis-label">2026-03-02 10:30:00+00:00 to 2026-03-02 15:00:00+00:00</text>
<text x="1080" y="806" text-anchor="end" class="axis-label">5372.21 - 5420.04</text>
<text x="70" y="832" class="panel-title">M1 execution window</text>
<rect x="70" y="846" width="1010" height="192" class="plot-bg"/>
<line x1="73.71" y1="859.24" x2="73.71" y2="886.39" class="down-wick"/>
<rect x="71.30" y="863.21" width="4.83" height="19.86" class="down-body"/>
<line x1="81.14" y1="872.75" x2="81.14" y2="888.19" class="up-wick"/>
<rect x="78.73" y="876.28" width="4.83" height="8.72" class="up-body"/>
<line x1="88.57" y1="867.55" x2="88.57" y2="873.08" class="down-wick"/>
<rect x="86.15" y="870.50" width="4.83" height="1.00" class="down-body"/>
<line x1="95.99" y1="872.59" x2="95.99" y2="880.33" class="down-wick"/>
<rect x="93.58" y="872.59" width="4.83" height="4.14" class="down-body"/>
<line x1="103.42" y1="879.27" x2="103.42" y2="891.47" class="down-wick"/>
<rect x="101.01" y="879.80" width="4.83" height="9.25" class="down-body"/>
<line x1="110.85" y1="885.41" x2="110.85" y2="901.62" class="down-wick"/>
<rect x="108.43" y="890.24" width="4.83" height="8.85" class="down-body"/>
<line x1="118.27" y1="898.31" x2="118.27" y2="917.18" class="down-wick"/>
<rect x="115.86" y="901.01" width="4.83" height="9.66" class="down-body"/>
<line x1="125.70" y1="911.37" x2="125.70" y2="937.17" class="up-wick"/>
<rect x="123.28" y="919.97" width="4.83" height="15.07" class="up-body"/>
<line x1="133.12" y1="903.10" x2="133.12" y2="920.58" class="down-wick"/>
<rect x="130.71" y="904.49" width="4.83" height="10.11" class="down-body"/>
<line x1="140.55" y1="889.42" x2="140.55" y2="904.20" class="up-wick"/>
<rect x="138.14" y="890.20" width="4.83" height="13.64" class="up-body"/>
<line x1="147.98" y1="887.25" x2="147.98" y2="906.33" class="down-wick"/>
<rect x="145.56" y="888.68" width="4.83" height="14.58" class="down-body"/>
<line x1="155.40" y1="904.74" x2="155.40" y2="920.01" class="down-wick"/>
<rect x="152.99" y="910.02" width="4.83" height="7.49" class="down-body"/>
<line x1="162.83" y1="912.68" x2="162.83" y2="928.77" class="down-wick"/>
<rect x="160.42" y="917.23" width="4.83" height="9.42" class="down-body"/>
<line x1="170.26" y1="939.67" x2="170.26" y2="953.79" class="up-wick"/>
<rect x="167.84" y="943.76" width="4.83" height="1.00" class="up-body"/>
<line x1="177.68" y1="941.02" x2="177.68" y2="954.49" class="up-wick"/>
<rect x="175.27" y="951.46" width="4.83" height="1.72" class="up-body"/>
<line x1="185.11" y1="948.35" x2="185.11" y2="965.75" class="up-wick"/>
<rect x="182.70" y="951.46" width="4.83" height="1.00" class="up-body"/>
<line x1="192.54" y1="941.96" x2="192.54" y2="963.17" class="up-wick"/>
<rect x="190.12" y="942.16" width="4.83" height="18.80" class="up-body"/>
<line x1="199.96" y1="940.20" x2="199.96" y2="959.36" class="down-wick"/>
<rect x="197.55" y="942.12" width="4.83" height="16.34" class="down-body"/>
<line x1="207.39" y1="940.48" x2="207.39" y2="948.18" class="up-wick"/>
<rect x="204.98" y="940.77" width="4.83" height="1.15" class="up-body"/>
<line x1="214.82" y1="929.59" x2="214.82" y2="942.82" class="down-wick"/>
<rect x="212.40" y="933.56" width="4.83" height="5.69" class="down-body"/>
<line x1="222.24" y1="934.51" x2="222.24" y2="950.52" class="down-wick"/>
<rect x="219.83" y="936.47" width="4.83" height="7.70" class="down-body"/>
<line x1="229.67" y1="937.41" x2="229.67" y2="960.51" class="up-wick"/>
<rect x="227.26" y="949.45" width="4.83" height="7.49" class="up-body"/>
<line x1="237.10" y1="935.45" x2="237.10" y2="951.42" class="down-wick"/>
<rect x="234.68" y="935.65" width="4.83" height="13.80" class="down-body"/>
<line x1="244.52" y1="938.07" x2="244.52" y2="951.99" class="up-wick"/>
<rect x="242.11" y="942.78" width="4.83" height="1.00" class="up-body"/>
<line x1="251.95" y1="939.71" x2="251.95" y2="954.00" class="down-wick"/>
<rect x="249.53" y="942.70" width="4.83" height="8.60" class="down-body"/>
<line x1="259.38" y1="962.72" x2="259.38" y2="984.71" class="down-wick"/>
<rect x="256.96" y="962.76" width="4.83" height="10.89" class="down-body"/>
<line x1="266.80" y1="942.12" x2="266.80" y2="958.99" class="down-wick"/>
<rect x="264.39" y="948.76" width="4.83" height="4.55" class="down-body"/>
<line x1="274.23" y1="942.57" x2="274.23" y2="959.03" class="up-wick"/>
<rect x="271.81" y="942.82" width="4.83" height="15.03" class="up-body"/>
<line x1="281.65" y1="943.60" x2="281.65" y2="957.11" class="down-wick"/>
<rect x="279.24" y="948.84" width="4.83" height="6.63" class="down-body"/>
<line x1="289.08" y1="949.17" x2="289.08" y2="959.81" class="up-wick"/>
<rect x="286.67" y="949.29" width="4.83" height="8.15" class="up-body"/>
<line x1="296.51" y1="940.44" x2="296.51" y2="951.34" class="up-wick"/>
<rect x="294.09" y="941.14" width="4.83" height="8.35" class="up-body"/>
<line x1="303.93" y1="916.24" x2="303.93" y2="935.08" class="down-wick"/>
<rect x="301.52" y="927.83" width="4.83" height="3.64" class="down-body"/>
<line x1="311.36" y1="927.14" x2="311.36" y2="940.53" class="down-wick"/>
<rect x="308.95" y="930.00" width="4.83" height="9.01" class="down-body"/>
<line x1="318.79" y1="928.81" x2="318.79" y2="939.09" class="down-wick"/>
<rect x="316.37" y="938.27" width="4.83" height="1.00" class="down-body"/>
<line x1="326.21" y1="943.80" x2="326.21" y2="949.74" class="down-wick"/>
<rect x="323.80" y="945.85" width="4.83" height="3.19" class="down-body"/>
<line x1="333.64" y1="936.27" x2="333.64" y2="948.84" class="up-wick"/>
<rect x="331.23" y="940.28" width="4.83" height="6.55" class="up-body"/>
<line x1="341.07" y1="935.37" x2="341.07" y2="949.82" class="up-wick"/>
<rect x="338.65" y="935.65" width="4.83" height="13.31" class="up-body"/>
<line x1="348.49" y1="937.05" x2="348.49" y2="943.68" class="up-wick"/>
<rect x="346.08" y="941.22" width="4.83" height="1.00" class="up-body"/>
<line x1="355.92" y1="947.86" x2="355.92" y2="964.07" class="down-wick"/>
<rect x="353.51" y="958.71" width="4.83" height="3.89" class="down-body"/>
<line x1="363.35" y1="958.79" x2="363.35" y2="969.72" class="down-wick"/>
<rect x="360.93" y="959.16" width="4.83" height="5.20" class="down-body"/>
<line x1="370.77" y1="964.24" x2="370.77" y2="975.70" class="down-wick"/>
<rect x="368.36" y="967.06" width="4.83" height="8.15" class="down-body"/>
<line x1="378.20" y1="960.39" x2="378.20" y2="965.87" class="up-wick"/>
<rect x="375.78" y="961.45" width="4.83" height="2.54" class="up-body"/>
<line x1="385.62" y1="944.21" x2="385.62" y2="959.24" class="down-wick"/>
<rect x="383.21" y="946.75" width="4.83" height="9.99" class="down-body"/>
<line x1="393.05" y1="949.08" x2="393.05" y2="960.80" class="down-wick"/>
<rect x="390.64" y="953.10" width="4.83" height="6.22" class="down-body"/>
<line x1="400.48" y1="956.58" x2="400.48" y2="965.96" class="down-wick"/>
<rect x="398.06" y="958.09" width="4.83" height="6.22" class="down-body"/>
<line x1="407.90" y1="957.72" x2="407.90" y2="974.92" class="down-wick"/>
<rect x="405.49" y="959.81" width="4.83" height="11.59" class="down-body"/>
<line x1="415.33" y1="974.68" x2="415.33" y2="994.46" class="down-wick"/>
<rect x="412.92" y="978.85" width="4.83" height="5.61" class="down-body"/>
<line x1="422.76" y1="978.57" x2="422.76" y2="995.52" class="up-wick"/>
<rect x="420.34" y="985.37" width="4.83" height="4.46" class="up-body"/>
<line x1="430.18" y1="996.18" x2="430.18" y2="1012.97" class="down-wick"/>
<rect x="427.77" y="1000.15" width="4.83" height="6.76" class="down-body"/>
<line x1="437.61" y1="973.98" x2="437.61" y2="989.62" class="up-wick"/>
<rect x="435.20" y="974.72" width="4.83" height="8.44" class="up-body"/>
<line x1="445.04" y1="950.07" x2="445.04" y2="965.91" class="up-wick"/>
<rect x="442.62" y="960.02" width="4.83" height="5.16" class="up-body"/>
<line x1="452.46" y1="962.23" x2="452.46" y2="977.67" class="down-wick"/>
<rect x="450.05" y="964.15" width="4.83" height="5.41" class="down-body"/>
<line x1="459.89" y1="955.02" x2="459.89" y2="969.97" class="down-wick"/>
<rect x="457.48" y="955.02" width="4.83" height="12.00" class="down-body"/>
<line x1="467.32" y1="968.78" x2="467.32" y2="973.08" class="down-wick"/>
<rect x="464.90" y="970.50" width="4.83" height="1.68" class="down-body"/>
<line x1="474.74" y1="959.49" x2="474.74" y2="966.53" class="up-wick"/>
<rect x="472.33" y="961.16" width="4.83" height="1.00" class="up-body"/>
<line x1="482.17" y1="963.33" x2="482.17" y2="976.56" class="down-wick"/>
<rect x="479.76" y="965.30" width="4.83" height="1.06" class="down-body"/>
<line x1="489.60" y1="965.34" x2="489.60" y2="974.23" class="up-wick"/>
<rect x="487.18" y="967.68" width="4.83" height="6.55" class="up-body"/>
<line x1="497.02" y1="962.84" x2="497.02" y2="976.68" class="down-wick"/>
<rect x="494.61" y="964.48" width="4.83" height="11.96" class="down-body"/>
<line x1="504.45" y1="982.79" x2="504.45" y2="991.22" class="up-wick"/>
<rect x="502.03" y="982.87" width="4.83" height="1.47" class="up-body"/>
<line x1="511.88" y1="982.01" x2="511.88" y2="994.58" class="up-wick"/>
<rect x="509.46" y="982.58" width="4.83" height="7.82" class="up-body"/>
<line x1="519.30" y1="952.44" x2="519.30" y2="980.86" class="up-wick"/>
<rect x="516.89" y="959.36" width="4.83" height="9.01" class="up-body"/>
<line x1="526.73" y1="958.05" x2="526.73" y2="970.38" class="down-wick"/>
<rect x="524.31" y="960.71" width="4.83" height="8.11" class="down-body"/>
<line x1="534.15" y1="960.80" x2="534.15" y2="976.03" class="up-wick"/>
<rect x="531.74" y="961.57" width="4.83" height="8.31" class="up-body"/>
<line x1="541.58" y1="945.15" x2="541.58" y2="963.95" class="up-wick"/>
<rect x="539.17" y="948.39" width="4.83" height="12.69" class="up-body"/>
<line x1="549.01" y1="946.50" x2="549.01" y2="960.30" class="down-wick"/>
<rect x="546.59" y="946.55" width="4.83" height="10.28" class="down-body"/>
<line x1="556.43" y1="949.94" x2="556.43" y2="958.87" class="down-wick"/>
<rect x="554.02" y="950.35" width="4.83" height="4.05" class="down-body"/>
<line x1="563.86" y1="946.87" x2="563.86" y2="954.37" class="up-wick"/>
<rect x="561.45" y="947.08" width="4.83" height="5.32" class="up-body"/>
<line x1="571.29" y1="924.47" x2="571.29" y2="941.39" class="up-wick"/>
<rect x="568.87" y="926.15" width="4.83" height="14.05" class="up-body"/>
<line x1="578.71" y1="930.98" x2="578.71" y2="942.82" class="down-wick"/>
<rect x="576.30" y="930.98" width="4.83" height="9.25" class="down-body"/>
<line x1="586.14" y1="936.06" x2="586.14" y2="943.35" class="up-wick"/>
<rect x="583.73" y="941.47" width="4.83" height="1.00" class="up-body"/>
<line x1="593.57" y1="945.73" x2="593.57" y2="964.60" class="down-wick"/>
<rect x="591.15" y="948.27" width="4.83" height="11.38" class="down-body"/>
<line x1="600.99" y1="952.56" x2="600.99" y2="969.03" class="up-wick"/>
<rect x="598.58" y="960.75" width="4.83" height="4.67" class="up-body"/>
<line x1="608.42" y1="975.29" x2="608.42" y2="996.91" class="down-wick"/>
<rect x="606.01" y="982.50" width="4.83" height="1.11" class="down-body"/>
<line x1="615.85" y1="987.58" x2="615.85" y2="1003.26" class="down-wick"/>
<rect x="613.43" y="995.52" width="4.83" height="2.05" class="down-body"/>
<line x1="623.27" y1="979.76" x2="623.27" y2="991.63" class="up-wick"/>
<rect x="620.86" y="980.12" width="4.83" height="4.63" class="up-body"/>
<line x1="630.70" y1="956.37" x2="630.70" y2="972.55" class="up-wick"/>
<rect x="628.28" y="957.81" width="4.83" height="13.19" class="up-body"/>
<line x1="638.12" y1="948.96" x2="638.12" y2="962.72" class="down-wick"/>
<rect x="635.71" y="957.85" width="4.83" height="3.11" class="down-body"/>
<line x1="645.55" y1="970.34" x2="645.55" y2="977.63" class="down-wick"/>
<rect x="643.14" y="970.79" width="4.83" height="1.56" class="down-body"/>
<line x1="652.98" y1="973.82" x2="652.98" y2="981.84" class="down-wick"/>
<rect x="650.56" y="976.15" width="4.83" height="2.87" class="down-body"/>
<line x1="660.40" y1="977.09" x2="660.40" y2="991.71" class="down-wick"/>
<rect x="657.99" y="978.85" width="4.83" height="5.90" class="down-body"/>
<line x1="667.83" y1="984.91" x2="667.83" y2="999.98" class="down-wick"/>
<rect x="665.42" y="985.53" width="4.83" height="6.10" class="down-body"/>
<line x1="675.26" y1="984.87" x2="675.26" y2="991.92" class="down-wick"/>
<rect x="672.84" y="984.87" width="4.83" height="4.59" class="down-body"/>
<line x1="682.68" y1="972.96" x2="682.68" y2="981.27" class="up-wick"/>
<rect x="680.27" y="974.47" width="4.83" height="6.80" class="up-body"/>
<line x1="690.11" y1="952.28" x2="690.11" y2="966.45" class="up-wick"/>
<rect x="687.70" y="952.97" width="4.83" height="11.38" class="up-body"/>
<line x1="697.54" y1="939.30" x2="697.54" y2="953.96" class="up-wick"/>
<rect x="695.12" y="943.60" width="4.83" height="10.36" class="up-body"/>
<line x1="704.96" y1="952.61" x2="704.96" y2="963.25" class="down-wick"/>
<rect x="702.55" y="952.81" width="4.83" height="10.44" class="down-body"/>
<line x1="712.39" y1="958.95" x2="712.39" y2="965.63" class="down-wick"/>
<rect x="709.98" y="960.39" width="4.83" height="5.24" class="down-body"/>
<line x1="719.82" y1="964.07" x2="719.82" y2="978.36" class="down-wick"/>
<rect x="717.40" y="964.07" width="4.83" height="10.32" class="down-body"/>
<line x1="727.24" y1="956.58" x2="727.24" y2="965.05" class="up-wick"/>
<rect x="724.83" y="957.32" width="4.83" height="2.01" class="up-body"/>
<line x1="734.67" y1="959.16" x2="734.67" y2="966.90" class="down-wick"/>
<rect x="732.26" y="962.15" width="4.83" height="2.83" class="down-body"/>
<line x1="742.10" y1="948.67" x2="742.10" y2="969.93" class="up-wick"/>
<rect x="739.68" y="949.04" width="4.83" height="17.81" class="up-body"/>
<line x1="749.52" y1="949.17" x2="749.52" y2="959.44" class="up-wick"/>
<rect x="747.11" y="950.72" width="4.83" height="7.58" class="up-body"/>
<line x1="756.95" y1="937.25" x2="756.95" y2="951.50" class="down-wick"/>
<rect x="754.53" y="939.87" width="4.83" height="1.00" class="down-body"/>
<line x1="764.38" y1="927.87" x2="764.38" y2="939.99" class="up-wick"/>
<rect x="761.96" y="932.62" width="4.83" height="7.25" class="up-body"/>
<line x1="771.80" y1="940.94" x2="771.80" y2="950.60" class="down-wick"/>
<rect x="769.39" y="941.92" width="4.83" height="7.74" class="down-body"/>
<line x1="779.23" y1="943.47" x2="779.23" y2="947.53" class="down-wick"/>
<rect x="776.81" y="944.17" width="4.83" height="1.52" class="down-body"/>
<line x1="786.65" y1="944.99" x2="786.65" y2="954.86" class="down-wick"/>
<rect x="784.24" y="947.04" width="4.83" height="3.03" class="down-body"/>
<line x1="794.08" y1="955.76" x2="794.08" y2="972.92" class="down-wick"/>
<rect x="791.67" y="958.30" width="4.83" height="13.72" class="down-body"/>
<line x1="801.51" y1="987.66" x2="801.51" y2="1024.76" class="up-wick"/>
<rect x="799.09" y="1001.42" width="4.83" height="23.30" class="up-body"/>
<line x1="808.93" y1="980.21" x2="808.93" y2="1003.96" class="up-wick"/>
<rect x="806.52" y="987.33" width="4.83" height="16.63" class="up-body"/>
<line x1="816.36" y1="995.60" x2="816.36" y2="1016.24" class="down-wick"/>
<rect x="813.95" y="1005.51" width="4.83" height="1.72" class="down-body"/>
<line x1="823.79" y1="991.63" x2="823.79" y2="999.17" class="down-wick"/>
<rect x="821.37" y="994.91" width="4.83" height="2.78" class="down-body"/>
<line x1="831.21" y1="993.19" x2="831.21" y2="1015.95" class="down-wick"/>
<rect x="828.80" y="994.70" width="4.83" height="21.25" class="down-body"/>
<line x1="838.64" y1="989.13" x2="838.64" y2="1006.25" class="up-wick"/>
<rect x="836.23" y="998.06" width="4.83" height="1.68" class="up-body"/>
<line x1="846.07" y1="989.50" x2="846.07" y2="1003.10" class="down-wick"/>
<rect x="843.65" y="992.41" width="4.83" height="5.36" class="down-body"/>
<line x1="853.49" y1="985.82" x2="853.49" y2="1014.28" class="down-wick"/>
<rect x="851.08" y="987.86" width="4.83" height="15.93" class="down-body"/>
<line x1="860.92" y1="992.37" x2="860.92" y2="1006.90" class="up-wick"/>
<rect x="858.51" y="992.41" width="4.83" height="9.25" class="up-body"/>
<line x1="868.35" y1="980.86" x2="868.35" y2="988.11" class="up-wick"/>
<rect x="865.93" y="981.48" width="4.83" height="5.20" class="up-body"/>
<line x1="875.77" y1="967.39" x2="875.77" y2="981.64" class="down-wick"/>
<rect x="873.36" y="969.85" width="4.83" height="4.79" class="down-body"/>
<line x1="883.20" y1="961.12" x2="883.20" y2="976.93" class="up-wick"/>
<rect x="880.78" y="962.19" width="4.83" height="14.66" class="up-body"/>
<line x1="890.62" y1="952.61" x2="890.62" y2="965.87" class="up-wick"/>
<rect x="888.21" y="952.61" width="4.83" height="11.30" class="up-body"/>
<line x1="898.05" y1="935.45" x2="898.05" y2="952.77" class="up-wick"/>
<rect x="895.64" y="936.19" width="4.83" height="11.51" class="up-body"/>
<line x1="905.48" y1="946.18" x2="905.48" y2="963.54" class="down-wick"/>
<rect x="903.06" y="946.67" width="4.83" height="15.89" class="down-body"/>
<line x1="912.90" y1="974.15" x2="912.90" y2="985.94" class="down-wick"/>
<rect x="910.49" y="974.39" width="4.83" height="9.09" class="down-body"/>
<line x1="920.33" y1="979.39" x2="920.33" y2="990.16" class="down-wick"/>
<rect x="917.92" y="980.25" width="4.83" height="5.16" class="down-body"/>
<line x1="927.76" y1="970.79" x2="927.76" y2="985.61" class="up-wick"/>
<rect x="925.34" y="970.87" width="4.83" height="12.16" class="up-body"/>
<line x1="935.18" y1="963.83" x2="935.18" y2="977.99" class="up-wick"/>
<rect x="932.77" y="963.83" width="4.83" height="8.11" class="up-body"/>
<line x1="942.61" y1="949.17" x2="942.61" y2="953.79" class="up-wick"/>
<rect x="940.20" y="950.64" width="4.83" height="2.78" class="up-body"/>
<line x1="950.04" y1="959.36" x2="950.04" y2="968.17" class="down-wick"/>
<rect x="947.62" y="961.66" width="4.83" height="1.06" class="down-body"/>
<line x1="957.46" y1="957.23" x2="957.46" y2="962.97" class="up-wick"/>
<rect x="955.05" y="960.06" width="4.83" height="1.00" class="up-body"/>
<line x1="964.89" y1="950.07" x2="964.89" y2="956.00" class="up-wick"/>
<rect x="962.48" y="951.79" width="4.83" height="1.00" class="up-body"/>
<line x1="972.32" y1="948.02" x2="972.32" y2="955.51" class="up-wick"/>
<rect x="969.90" y="949.00" width="4.83" height="5.49" class="up-body"/>
<line x1="979.74" y1="941.67" x2="979.74" y2="948.43" class="down-wick"/>
<rect x="977.33" y="947.36" width="4.83" height="1.00" class="down-body"/>
<line x1="987.17" y1="956.37" x2="987.17" y2="965.75" class="down-wick"/>
<rect x="984.76" y="956.70" width="4.83" height="8.52" class="down-body"/>
<line x1="994.60" y1="947.36" x2="994.60" y2="973.69" class="up-wick"/>
<rect x="992.18" y="948.80" width="4.83" height="22.73" class="up-body"/>
<line x1="1002.02" y1="949.17" x2="1002.02" y2="959.08" class="up-wick"/>
<rect x="999.61" y="952.48" width="4.83" height="6.39" class="up-body"/>
<line x1="1009.45" y1="932.79" x2="1009.45" y2="952.07" class="down-wick"/>
<rect x="1007.03" y="942.98" width="4.83" height="6.76" class="down-body"/>
<line x1="1016.88" y1="939.17" x2="1016.88" y2="947.77" class="up-wick"/>
<rect x="1014.46" y="941.80" width="4.83" height="4.63" class="up-body"/>
<line x1="1024.30" y1="933.77" x2="1024.30" y2="947.65" class="down-wick"/>
<rect x="1021.89" y="935.04" width="4.83" height="10.44" class="down-body"/>
<line x1="1031.73" y1="942.16" x2="1031.73" y2="954.33" class="up-wick"/>
<rect x="1029.31" y="946.42" width="4.83" height="2.58" class="up-body"/>
<line x1="1039.15" y1="944.95" x2="1039.15" y2="960.47" class="down-wick"/>
<rect x="1036.74" y="945.56" width="4.83" height="3.44" class="down-body"/>
<line x1="1046.58" y1="954.00" x2="1046.58" y2="961.90" class="up-wick"/>
<rect x="1044.17" y="956.54" width="4.83" height="1.00" class="up-body"/>
<line x1="1054.01" y1="954.82" x2="1054.01" y2="966.08" class="down-wick"/>
<rect x="1051.59" y="954.82" width="4.83" height="9.01" class="down-body"/>
<line x1="1061.43" y1="974.31" x2="1061.43" y2="986.92" class="down-wick"/>
<rect x="1059.02" y="975.41" width="4.83" height="2.50" class="down-body"/>
<line x1="1068.86" y1="951.09" x2="1068.86" y2="977.58" class="up-wick"/>
<rect x="1066.45" y="951.09" width="4.83" height="26.49" class="up-body"/>
<line x1="1076.29" y1="937.86" x2="1076.29" y2="956.00" class="down-wick"/>
<rect x="1073.87" y="939.22" width="4.83" height="13.51" class="down-body"/>
<line x1="70" y1="968.74" x2="1080" y2="968.74" class="number-line"/>
<text x="1076" y="964.74" text-anchor="end" class="level-label">round 5390.00</text>
<line x1="70" y1="968.74" x2="1080" y2="968.74" class="entry-line"/>
<text x="1076" y="964.74" text-anchor="end" class="level-label">entry level 5390.00</text>
<text x="70" y="1056" class="axis-label">2026-03-02 10:30:00+00:00 to 2026-03-02 15:00:00+00:00</text>
<text x="1080" y="1056" text-anchor="end" class="axis-label">5373.09 - 5419.97</text>
</svg>