<svg xmlns="http://www.w3.org/2000/svg" width="1120" height="1054" viewBox="0 0 1120 1054">
<style>
text{font-family:Arial,Helvetica,sans-serif}.title{font-size:21px;font-weight:700;fill:#1f2937}.subtitle{font-size:12px;fill:#4b5563}.panel-title{font-size:15px;font-weight:700;fill:#111827}.muted{font-size:13px;fill:#6b7280}.plot-bg{fill:#f8fafc;stroke:#cbd5e1;stroke-width:1}.up-body{fill:#15803d;stroke:#14532d;stroke-width:.8}.down-body{fill:#b91c1c;stroke:#7f1d1d;stroke-width:.8}.up-wick{stroke:#14532d;stroke-width:1}.down-wick{stroke:#7f1d1d;stroke-width:1}.sweep-line{stroke:#7c3aed;stroke-width:1.6;stroke-dasharray:6 4}.number-line{stroke:#0f766e;stroke-width:1.4;stroke-dasharray:3 4}.entry-line{stroke:#2563eb;stroke-width:1.4}.sl-line{stroke:#dc2626;stroke-width:1.4}.tp-line{stroke:#16a34a;stroke-width:1.4}.level-label,.axis-label{font-size:11px;fill:#374151}
</style>
<text x="28" y="28" class="title">Adelin v2 visual review sample sample_130</text>
<text x="28" y="48" class="subtitle">Candidate windows are for visual labeling only and are not trade signals.</text>
<text x="560" y="48" class="subtitle" text-anchor="middle">M15_SWING_HIGH_SWEEP_VISUAL_CANDIDATE | PRE_ANCHOR_SWEEP_EXTREME_CANDIDATE</text>
<text x="70" y="82" class="panel-title">H1 liquidity context</text>
<rect x="70" y="96" width="1010" height="192" class="plot-bg"/>
<line x1="77.89" y1="233.47" x2="77.89" y2="270.06" class="down-wick"/>
<rect x="73.89" y="243.29" width="8.00" height="2.54" class="down-body"/>
<line x1="93.67" y1="242.36" x2="93.67" y2="271.97" class="down-wick"/>
<rect x="89.67" y="245.83" width="8.00" height="22.66" class="down-body"/>
<line x1="109.45" y1="256.28" x2="109.45" y2="274.76" class="up-wick"/>
<rect x="105.45" y="260.88" width="8.00" height="7.60" class="up-body"/>
<line x1="125.23" y1="247.47" x2="125.23" y2="262.08" class="up-wick"/>
<rect x="121.23" y="258.58" width="8.00" height="2.29" class="up-body"/>
<line x1="141.02" y1="228.90" x2="141.02" y2="260.01" class="up-wick"/>
<rect x="137.02" y="244.33" width="8.00" height="14.25" class="up-body"/>
<line x1="156.80" y1="244.30" x2="156.80" y2="258.95" class="down-wick"/>
<rect x="152.80" y="244.33" width="8.00" height="4.82" class="down-body"/>
<line x1="172.58" y1="236.69" x2="172.58" y2="249.50" class="up-wick"/>
<rect x="168.58" y="237.19" width="8.00" height="11.96" class="up-body"/>
<line x1="188.36" y1="224.47" x2="188.36" y2="242.15" class="down-wick"/>
<rect x="184.36" y="237.18" width="8.00" height="4.14" class="down-body"/>
<line x1="204.14" y1="231.54" x2="204.14" y2="247.45" class="up-wick"/>
<rect x="200.14" y="232.69" width="8.00" height="8.63" class="up-body"/>
<line x1="219.92" y1="218.38" x2="219.92" y2="246.32" class="up-wick"/>
<rect x="215.92" y="220.59" width="8.00" height="12.10" class="up-body"/>
<line x1="235.70" y1="211.97" x2="235.70" y2="223.01" class="up-wick"/>
<rect x="231.70" y="213.52" width="8.00" height="7.07" class="up-body"/>
<line x1="251.48" y1="206.57" x2="251.48" y2="216.67" class="down-wick"/>
<rect x="247.48" y="213.52" width="8.00" height="1.40" class="down-body"/>
<line x1="267.27" y1="212.37" x2="267.27" y2="220.63" class="down-wick"/>
<rect x="263.27" y="214.93" width="8.00" height="2.49" class="down-body"/>
<line x1="283.05" y1="212.90" x2="283.05" y2="225.60" class="down-wick"/>
<rect x="279.05" y="217.42" width="8.00" height="7.62" class="down-body"/>
<line x1="298.83" y1="219.34" x2="298.83" y2="236.84" class="down-wick"/>
<rect x="294.83" y="225.06" width="8.00" height="1.30" class="down-body"/>
<line x1="314.61" y1="222.43" x2="314.61" y2="236.75" class="up-wick"/>
<rect x="310.61" y="223.85" width="8.00" height="2.51" class="up-body"/>
<line x1="330.39" y1="212.46" x2="330.39" y2="236.39" class="up-wick"/>
<rect x="326.39" y="221.72" width="8.00" height="2.13" class="up-body"/>
<line x1="346.17" y1="221.03" x2="346.17" y2="241.85" class="down-wick"/>
<rect x="342.17" y="221.72" width="8.00" height="9.60" class="down-body"/>
<line x1="361.95" y1="228.45" x2="361.95" y2="237.92" class="down-wick"/>
<rect x="357.95" y="231.32" width="8.00" height="5.05" class="down-body"/>
<line x1="377.73" y1="235.80" x2="377.73" y2="245.69" class="down-wick"/>
<rect x="373.73" y="236.35" width="8.00" height="4.39" class="down-body"/>
<line x1="393.52" y1="232.44" x2="393.52" y2="243.82" class="up-wick"/>
<rect x="389.52" y="237.73" width="8.00" height="2.97" class="up-body"/>
<line x1="409.30" y1="237.02" x2="409.30" y2="245.96" class="down-wick"/>
<rect x="405.30" y="237.73" width="8.00" height="1.82" class="down-body"/>
<line x1="425.08" y1="231.54" x2="425.08" y2="244.04" class="up-wick"/>
<rect x="421.08" y="237.65" width="8.00" height="6.38" class="up-body"/>
<line x1="440.86" y1="235.85" x2="440.86" y2="242.13" class="up-wick"/>
<rect x="436.86" y="237.36" width="8.00" height="1.00" class="up-body"/>
<line x1="456.64" y1="235.70" x2="456.64" y2="243.61" class="down-wick"/>
<rect x="452.64" y="237.35" width="8.00" height="2.58" class="down-body"/>
<line x1="472.42" y1="233.76" x2="472.42" y2="264.79" class="down-wick"/>
<rect x="468.42" y="239.93" width="8.00" height="17.95" class="down-body"/>
<line x1="488.20" y1="240.50" x2="488.20" y2="262.38" class="up-wick"/>
<rect x="484.20" y="242.68" width="8.00" height="15.20" class="up-body"/>
<line x1="503.98" y1="240.37" x2="503.98" y2="249.73" class="down-wick"/>
<rect x="499.98" y="242.68" width="8.00" height="1.00" class="down-body"/>
<line x1="519.77" y1="233.94" x2="519.77" y2="246.02" class="up-wick"/>
<rect x="515.77" y="236.79" width="8.00" height="6.37" class="up-body"/>
<line x1="535.55" y1="235.60" x2="535.55" y2="260.37" class="down-wick"/>
<rect x="531.55" y="236.47" width="8.00" height="11.12" class="down-body"/>
<line x1="551.33" y1="238.81" x2="551.33" y2="250.84" class="up-wick"/>
<rect x="547.33" y="240.79" width="8.00" height="6.81" class="up-body"/>
<line x1="567.11" y1="238.43" x2="567.11" y2="251.70" class="down-wick"/>
<rect x="563.11" y="240.79" width="8.00" height="4.90" class="down-body"/>
<line x1="582.89" y1="216.75" x2="582.89" y2="246.72" class="up-wick"/>
<rect x="578.89" y="221.87" width="8.00" height="23.81" class="up-body"/>
<line x1="598.67" y1="214.38" x2="598.67" y2="237.44" class="down-wick"/>
<rect x="594.67" y="221.87" width="8.00" height="7.68" class="down-body"/>
<line x1="614.45" y1="223.27" x2="614.45" y2="243.52" class="down-wick"/>
<rect x="610.45" y="229.54" width="8.00" height="12.08" class="down-body"/>
<line x1="630.23" y1="233.91" x2="630.23" y2="256.60" class="up-wick"/>
<rect x="626.23" y="236.73" width="8.00" height="4.90" class="up-body"/>
<line x1="646.02" y1="229.49" x2="646.02" y2="245.09" class="down-wick"/>
<rect x="642.02" y="236.73" width="8.00" height="5.25" class="down-body"/>
<line x1="661.80" y1="234.63" x2="661.80" y2="252.35" class="down-wick"/>
<rect x="657.80" y="241.98" width="8.00" height="4.89" class="down-body"/>
<line x1="677.58" y1="235.68" x2="677.58" y2="270.56" class="down-wick"/>
<rect x="673.58" y="246.87" width="8.00" height="7.05" class="down-body"/>
<line x1="693.36" y1="236.99" x2="693.36" y2="259.16" class="up-wick"/>
<rect x="689.36" y="239.46" width="8.00" height="14.47" class="up-body"/>
<line x1="709.14" y1="231.17" x2="709.14" y2="241.37" class="up-wick"/>
<rect x="705.14" y="238.48" width="8.00" height="1.00" class="up-body"/>
<line x1="724.92" y1="219.46" x2="724.92" y2="240.53" class="up-wick"/>
<rect x="720.92" y="226.26" width="8.00" height="12.22" class="up-body"/>
<line x1="740.70" y1="219.64" x2="740.70" y2="238.20" class="down-wick"/>
<rect x="736.70" y="226.26" width="8.00" height="8.92" class="down-body"/>
<line x1="756.48" y1="198.82" x2="756.48" y2="236.05" class="up-wick"/>
<rect x="752.48" y="210.37" width="8.00" height="24.81" class="up-body"/>
<line x1="772.27" y1="133.76" x2="772.27" y2="207.15" class="up-wick"/>
<rect x="768.27" y="134.71" width="8.00" height="72.44" class="up-body"/>
<line x1="788.05" y1="123.07" x2="788.05" y2="145.04" class="up-wick"/>
<rect x="784.05" y="124.89" width="8.00" height="9.82" class="up-body"/>
<line x1="803.83" y1="109.24" x2="803.83" y2="140.79" class="down-wick"/>
<rect x="799.83" y="124.89" width="8.00" height="10.02" class="down-body"/>
<line x1="819.61" y1="130.07" x2="819.61" y2="154.12" class="down-wick"/>
<rect x="815.61" y="134.90" width="8.00" height="4.95" class="down-body"/>
<line x1="835.39" y1="130.14" x2="835.39" y2="147.30" class="down-wick"/>
<rect x="831.39" y="139.86" width="8.00" height="3.97" class="down-body"/>
<line x1="851.17" y1="142.67" x2="851.17" y2="149.62" class="down-wick"/>
<rect x="847.17" y="143.83" width="8.00" height="4.15" class="down-body"/>
<line x1="866.95" y1="142.22" x2="866.95" y2="152.73" class="up-wick"/>
<rect x="862.95" y="144.10" width="8.00" height="3.88" class="up-body"/>
<line x1="882.73" y1="118.19" x2="882.73" y2="146.20" class="up-wick"/>
<rect x="878.73" y="128.68" width="8.00" height="15.40" class="up-body"/>
<line x1="898.52" y1="120.77" x2="898.52" y2="133.53" class="down-wick"/>
<rect x="894.52" y="128.71" width="8.00" height="4.77" class="down-body"/>
<line x1="914.30" y1="132.75" x2="914.30" y2="143.07" class="down-wick"/>
<rect x="910.30" y="133.47" width="8.00" height="4.28" class="down-body"/>
<line x1="930.08" y1="133.56" x2="930.08" y2="152.52" class="down-wick"/>
<rect x="926.08" y="137.75" width="8.00" height="12.62" class="down-body"/>
<line x1="945.86" y1="142.12" x2="945.86" y2="161.62" class="down-wick"/>
<rect x="941.86" y="150.37" width="8.00" height="6.82" class="down-body"/>
<line x1="961.64" y1="148.90" x2="961.64" y2="164.92" class="down-wick"/>
<rect x="957.64" y="157.19" width="8.00" height="1.00" class="down-body"/>
<line x1="977.42" y1="144.66" x2="977.42" y2="160.57" class="up-wick"/>
<rect x="973.42" y="147.41" width="8.00" height="10.20" class="up-body"/>
<line x1="993.20" y1="141.78" x2="993.20" y2="166.52" class="up-wick"/>
<rect x="989.20" y="146.63" width="8.00" height="1.00" class="up-body"/>
<line x1="1008.98" y1="142.10" x2="1008.98" y2="167.29" class="down-wick"/>
<rect x="1004.98" y="146.63" width="8.00" height="14.13" class="down-body"/>
<line x1="1024.77" y1="151.60" x2="1024.77" y2="189.95" class="down-wick"/>
<rect x="1020.77" y="160.76" width="8.00" height="26.66" class="down-body"/>
<line x1="1040.55" y1="170.15" x2="1040.55" y2="188.48" class="up-wick"/>
<rect x="1036.55" y="174.42" width="8.00" height="12.99" class="up-body"/>
<line x1="1056.33" y1="168.56" x2="1056.33" y2="181.59" class="up-wick"/>
<rect x="1052.33" y="171.85" width="8.00" height="2.57" class="up-body"/>
<line x1="1072.11" y1="169.34" x2="1072.11" y2="190.25" class="down-wick"/>
<rect x="1068.11" y="171.85" width="8.00" height="17.04" class="down-body"/>
<line x1="70" y1="227.96" x2="1080" y2="227.96" class="sweep-line"/>
<text x="1076" y="223.96" text-anchor="end" class="level-label">sweep 4673.41</text>
<line x1="70" y1="240.53" x2="1080" y2="240.53" class="entry-line"/>
<text x="1076" y="236.53" text-anchor="end" class="level-label">entry level 4653.90</text>
<text x="70" y="306" class="axis-label">2026-04-06 01:00:00+00:00 to 2026-04-08 20:00:00+00:00</text>
<text x="1080" y="306" text-anchor="end" class="axis-label">4580.20 - 4878.27</text>
<text x="70" y="332" class="panel-title">M15 liquidity / reaction context</text>
<rect x="70" y="346" width="1010" height="192" class="plot-bg"/>
<line x1="77.77" y1="499.26" x2="77.77" y2="512.95" class="down-wick"/>
<rect x="73.77" y="505.85" width="8.00" height="1.00" class="down-body"/>
<line x1="93.31" y1="495.50" x2="93.31" y2="508.28" class="up-wick"/>
<rect x="89.31" y="498.16" width="8.00" height="8.69" class="up-body"/>
<line x1="108.85" y1="494.40" x2="108.85" y2="501.80" class="up-wick"/>
<rect x="104.85" y="495.10" width="8.00" height="3.06" class="up-body"/>
<line x1="124.38" y1="493.42" x2="124.38" y2="501.92" class="down-wick"/>
<rect x="120.38" y="495.09" width="8.00" height="4.44" class="down-body"/>
<line x1="139.92" y1="490.06" x2="139.92" y2="499.69" class="up-wick"/>
<rect x="135.92" y="490.99" width="8.00" height="8.70" class="up-body"/>
<line x1="155.46" y1="487.99" x2="155.46" y2="493.92" class="up-wick"/>
<rect x="151.46" y="490.27" width="8.00" height="1.00" class="up-body"/>
<line x1="171.00" y1="487.55" x2="171.00" y2="493.50" class="down-wick"/>
<rect x="167.00" y="490.27" width="8.00" height="1.36" class="down-body"/>
<line x1="186.54" y1="489.86" x2="186.54" y2="501.25" class="down-wick"/>
<rect x="182.54" y="491.62" width="8.00" height="9.04" class="down-body"/>
<line x1="202.08" y1="495.49" x2="202.08" y2="502.91" class="up-wick"/>
<rect x="198.08" y="497.55" width="8.00" height="3.11" class="up-body"/>
<line x1="217.62" y1="495.01" x2="217.62" y2="501.31" class="up-wick"/>
<rect x="213.62" y="495.94" width="8.00" height="1.61" class="up-body"/>
<line x1="233.15" y1="481.56" x2="233.15" y2="497.14" class="up-wick"/>
<rect x="229.15" y="482.88" width="8.00" height="13.07" class="up-body"/>
<line x1="248.69" y1="462.43" x2="248.69" y2="487.55" class="up-wick"/>
<rect x="244.69" y="471.44" width="8.00" height="11.44" class="up-body"/>
<line x1="264.23" y1="464.86" x2="264.23" y2="472.57" class="up-wick"/>
<rect x="260.23" y="468.22" width="8.00" height="3.22" class="up-body"/>
<line x1="279.77" y1="464.84" x2="279.77" y2="471.12" class="down-wick"/>
<rect x="275.77" y="468.22" width="8.00" height="1.00" class="down-body"/>
<line x1="295.31" y1="460.36" x2="295.31" y2="469.85" class="up-wick"/>
<rect x="291.31" y="466.49" width="8.00" height="1.87" class="up-body"/>
<line x1="310.85" y1="459.68" x2="310.85" y2="468.38" class="up-wick"/>
<rect x="306.85" y="465.50" width="8.00" height="1.00" class="up-body"/>
<line x1="326.38" y1="465.29" x2="326.38" y2="481.29" class="down-wick"/>
<rect x="322.38" y="465.50" width="8.00" height="14.74" class="down-body"/>
<line x1="341.92" y1="473.50" x2="341.92" y2="486.39" class="up-wick"/>
<rect x="337.92" y="477.26" width="8.00" height="2.95" class="up-body"/>
<line x1="357.46" y1="470.47" x2="357.46" y2="483.28" class="up-wick"/>
<rect x="353.46" y="472.75" width="8.00" height="4.50" class="up-body"/>
<line x1="373.00" y1="469.98" x2="373.00" y2="486.93" class="down-wick"/>
<rect x="369.00" y="472.75" width="8.00" height="6.57" class="down-body"/>
<line x1="388.54" y1="476.45" x2="388.54" y2="488.83" class="down-wick"/>
<rect x="384.54" y="479.32" width="8.00" height="4.37" class="down-body"/>
<line x1="404.08" y1="483.55" x2="404.08" y2="493.44" class="down-wick"/>
<rect x="400.08" y="483.66" width="8.00" height="7.59" class="down-body"/>
<line x1="419.62" y1="488.21" x2="419.62" y2="508.59" class="down-wick"/>
<rect x="415.62" y="491.25" width="8.00" height="12.30" class="down-body"/>
<line x1="435.15" y1="491.31" x2="435.15" y2="505.45" class="up-wick"/>
<rect x="431.15" y="494.44" width="8.00" height="9.14" class="up-body"/>
<line x1="450.69" y1="482.99" x2="450.69" y2="494.98" class="up-wick"/>
<rect x="446.69" y="483.09" width="8.00" height="11.35" class="up-body"/>
<line x1="466.23" y1="482.31" x2="466.23" y2="488.25" class="down-wick"/>
<rect x="462.23" y="483.09" width="8.00" height="2.48" class="down-body"/>
<line x1="481.77" y1="481.79" x2="481.77" y2="491.86" class="down-wick"/>
<rect x="477.77" y="485.58" width="8.00" height="3.72" class="down-body"/>
<line x1="497.31" y1="477.18" x2="497.31" y2="492.03" class="up-wick"/>
<rect x="493.31" y="480.94" width="8.00" height="8.36" class="up-body"/>
<line x1="512.85" y1="479.69" x2="512.85" y2="488.29" class="down-wick"/>
<rect x="508.85" y="480.94" width="8.00" height="6.91" class="down-body"/>
<line x1="528.38" y1="483.49" x2="528.38" y2="495.25" class="down-wick"/>
<rect x="524.38" y="487.85" width="8.00" height="3.81" class="down-body"/>
<line x1="543.92" y1="485.46" x2="543.92" y2="494.20" class="up-wick"/>
<rect x="539.92" y="487.83" width="8.00" height="3.83" class="up-body"/>
<line x1="559.46" y1="483.14" x2="559.46" y2="492.55" class="up-wick"/>
<rect x="555.46" y="486.85" width="8.00" height="1.00" class="up-body"/>
<line x1="575.00" y1="483.16" x2="575.00" y2="503.66" class="down-wick"/>
<rect x="571.00" y="486.85" width="8.00" height="13.64" class="down-body"/>
<line x1="590.54" y1="489.90" x2="590.54" y2="502.40" class="up-wick"/>
<rect x="586.54" y="497.32" width="8.00" height="3.17" class="up-body"/>
<line x1="606.08" y1="496.05" x2="606.08" y2="524.76" class="down-wick"/>
<rect x="602.08" y="497.32" width="8.00" height="16.42" class="down-body"/>
<line x1="621.62" y1="493.21" x2="621.62" y2="522.67" class="up-wick"/>
<rect x="617.62" y="496.32" width="8.00" height="17.42" class="up-body"/>
<line x1="637.15" y1="484.35" x2="637.15" y2="498.40" class="up-wick"/>
<rect x="633.15" y="494.91" width="8.00" height="1.41" class="up-body"/>
<line x1="652.69" y1="487.80" x2="652.69" y2="507.72" class="down-wick"/>
<rect x="648.69" y="494.91" width="8.00" height="10.58" class="down-body"/>
<line x1="668.23" y1="497.87" x2="668.23" y2="511.55" class="up-wick"/>
<rect x="664.23" y="497.92" width="8.00" height="7.57" class="up-body"/>
<line x1="683.77" y1="490.37" x2="683.77" y2="499.71" class="up-wick"/>
<rect x="679.77" y="490.55" width="8.00" height="7.37" class="up-body"/>
<line x1="699.31" y1="487.89" x2="699.31" y2="499.90" class="down-wick"/>
<rect x="695.31" y="490.55" width="8.00" height="5.42" class="down-body"/>
<line x1="714.85" y1="485.87" x2="714.85" y2="496.39" class="up-wick"/>
<rect x="710.85" y="488.73" width="8.00" height="7.26" class="up-body"/>
<line x1="730.38" y1="479.14" x2="730.38" y2="490.95" class="up-wick"/>
<rect x="726.38" y="486.36" width="8.00" height="2.37" class="up-body"/>
<line x1="745.92" y1="479.61" x2="745.92" y2="489.62" class="up-wick"/>
<rect x="741.92" y="483.22" width="8.00" height="3.16" class="up-body"/>
<line x1="761.46" y1="482.35" x2="761.46" y2="488.35" class="down-wick"/>
<rect x="757.46" y="483.22" width="8.00" height="1.41" class="down-body"/>
<line x1="777.00" y1="483.20" x2="777.00" y2="488.11" class="down-wick"/>
<rect x="773.00" y="484.63" width="8.00" height="2.97" class="down-body"/>
<line x1="792.54" y1="475.41" x2="792.54" y2="488.03" class="up-wick"/>
<rect x="788.54" y="479.45" width="8.00" height="8.15" class="up-body"/>
<line x1="808.08" y1="479.45" x2="808.08" y2="489.97" class="down-wick"/>
<rect x="804.08" y="479.45" width="8.00" height="5.80" class="down-body"/>
<line x1="823.62" y1="465.56" x2="823.62" y2="485.26" class="up-wick"/>
<rect x="819.62" y="476.26" width="8.00" height="8.99" class="up-body"/>
<line x1="839.15" y1="470.33" x2="839.15" y2="477.05" class="up-wick"/>
<rect x="835.15" y="473.44" width="8.00" height="2.81" class="up-body"/>
<line x1="854.69" y1="466.80" x2="854.69" y2="473.60" class="up-wick"/>
<rect x="850.69" y="467.31" width="8.00" height="6.13" class="up-body"/>
<line x1="870.23" y1="465.99" x2="870.23" y2="472.65" class="down-wick"/>
<rect x="866.23" y="467.31" width="8.00" height="2.75" class="down-body"/>
<line x1="885.77" y1="465.78" x2="885.77" y2="472.41" class="down-wick"/>
<rect x="881.77" y="470.06" width="8.00" height="1.00" class="down-body"/>
<line x1="901.31" y1="470.39" x2="901.31" y2="487.28" class="down-wick"/>
<rect x="897.31" y="470.67" width="8.00" height="13.10" class="down-body"/>
<line x1="916.85" y1="478.75" x2="916.85" y2="484.79" class="up-wick"/>
<rect x="912.85" y="479.56" width="8.00" height="4.22" class="up-body"/>
<line x1="932.38" y1="453.71" x2="932.38" y2="480.54" class="up-wick"/>
<rect x="928.38" y="464.87" width="8.00" height="14.69" class="up-body"/>
<line x1="947.92" y1="462.00" x2="947.92" y2="469.25" class="down-wick"/>
<rect x="943.92" y="464.82" width="8.00" height="1.00" class="down-body"/>
<line x1="963.46" y1="441.66" x2="963.46" y2="465.90" class="up-wick"/>
<rect x="959.46" y="455.04" width="8.00" height="9.85" class="up-body"/>
<line x1="979.00" y1="416.74" x2="979.00" y2="451.31" class="up-wick"/>
<rect x="975.00" y="431.69" width="8.00" height="19.62" class="up-body"/>
<line x1="994.54" y1="428.65" x2="994.54" y2="436.47" class="up-wick"/>
<rect x="990.54" y="429.20" width="8.00" height="2.49" class="up-body"/>
<line x1="1010.08" y1="395.86" x2="1010.08" y2="445.34" class="up-wick"/>
<rect x="1006.08" y="403.33" width="8.00" height="25.86" class="up-body"/>
<line x1="1025.62" y1="366.30" x2="1025.62" y2="409.56" class="up-wick"/>
<rect x="1021.62" y="367.40" width="8.00" height="35.95" class="up-body"/>
<line x1="1041.15" y1="362.45" x2="1041.15" y2="379.36" class="up-wick"/>
<rect x="1037.15" y="367.35" width="8.00" height="1.00" class="up-body"/>
<line x1="1056.69" y1="359.24" x2="1056.69" y2="375.31" class="down-wick"/>
<rect x="1052.69" y="367.35" width="8.00" height="2.70" class="down-body"/>
<line x1="1072.23" y1="367.96" x2="1072.23" y2="377.72" class="down-wick"/>
<rect x="1068.23" y="370.05" width="8.00" height="1.21" class="down-body"/>
<line x1="70" y1="475.41" x2="1080" y2="475.41" class="sweep-line"/>
<text x="1076" y="471.41" text-anchor="end" class="level-label">sweep 4673.41</text>
<line x1="70" y1="489.97" x2="1080" y2="489.97" class="entry-line"/>
<text x="1076" y="485.97" text-anchor="end" class="level-label">entry level 4653.90</text>
<text x="70" y="556" class="axis-label">2026-04-07 08:30:00+00:00 to 2026-04-08 02:30:00+00:00</text>
<text x="1080" y="556" text-anchor="end" class="axis-label">4589.53 - 4846.85</text>
<text x="70" y="582" class="panel-title">M5 reaction / execution context</text>
<rect x="70" y="596" width="1010" height="192" class="plot-bg"/>
<line x1="80.52" y1="735.09" x2="80.52" y2="773.63" class="up-wick"/>
<rect x="76.52" y="749.82" width="8.00" height="17.49" class="up-body"/>
<line x1="101.56" y1="749.15" x2="101.56" y2="772.68" class="down-wick"/>
<rect x="97.56" y="749.82" width="8.00" height="21.70" class="down-body"/>
<line x1="122.60" y1="755.01" x2="122.60" y2="774.76" class="up-wick"/>
<rect x="118.60" y="759.35" width="8.00" height="12.18" class="up-body"/>
<line x1="143.65" y1="756.11" x2="143.65" y2="766.51" class="down-wick"/>
<rect x="139.65" y="759.40" width="8.00" height="2.68" class="down-body"/>
<line x1="164.69" y1="736.67" x2="164.69" y2="770.30" class="up-wick"/>
<rect x="160.69" y="761.75" width="8.00" height="1.00" class="up-body"/>
<line x1="185.73" y1="747.27" x2="185.73" y2="765.09" class="up-wick"/>
<rect x="181.73" y="748.80" width="8.00" height="12.96" class="up-body"/>
<line x1="206.77" y1="745.89" x2="206.77" y2="766.01" class="down-wick"/>
<rect x="202.77" y="748.80" width="8.00" height="8.19" class="down-body"/>
<line x1="227.81" y1="753.01" x2="227.81" y2="764.56" class="down-wick"/>
<rect x="223.81" y="756.99" width="8.00" height="4.49" class="down-body"/>
<line x1="248.85" y1="753.31" x2="248.85" y2="766.04" class="up-wick"/>
<rect x="244.85" y="753.53" width="8.00" height="7.94" class="up-body"/>
<line x1="269.90" y1="748.72" x2="269.90" y2="760.27" class="down-wick"/>
<rect x="265.90" y="753.53" width="8.00" height="6.69" class="down-body"/>
<line x1="290.94" y1="750.18" x2="290.94" y2="762.83" class="up-wick"/>
<rect x="286.94" y="755.74" width="8.00" height="4.49" class="up-body"/>
<line x1="311.98" y1="755.74" x2="311.98" y2="765.24" class="down-wick"/>
<rect x="307.98" y="755.74" width="8.00" height="7.77" class="down-body"/>
<line x1="333.02" y1="740.55" x2="333.02" y2="764.96" class="up-wick"/>
<rect x="329.02" y="741.48" width="8.00" height="22.03" class="up-body"/>
<line x1="354.06" y1="722.58" x2="354.06" y2="745.66" class="up-wick"/>
<rect x="350.06" y="737.70" width="8.00" height="4.01" class="up-body"/>
<line x1="375.10" y1="735.14" x2="375.10" y2="743.01" class="up-wick"/>
<rect x="371.10" y="736.14" width="8.00" height="1.55" class="up-body"/>
<line x1="396.15" y1="736.14" x2="396.15" y2="767.92" class="down-wick"/>
<rect x="392.15" y="736.14" width="8.00" height="28.77" class="down-body"/>
<line x1="417.19" y1="758.55" x2="417.19" y2="771.48" class="up-wick"/>
<rect x="413.19" y="760.02" width="8.00" height="4.89" class="up-body"/>
<line x1="438.23" y1="754.08" x2="438.23" y2="766.66" class="up-wick"/>
<rect x="434.23" y="755.61" width="8.00" height="4.41" class="up-body"/>
<line x1="459.27" y1="724.44" x2="459.27" y2="755.66" class="up-wick"/>
<rect x="455.27" y="725.59" width="8.00" height="30.02" class="up-body"/>
<line x1="480.31" y1="689.51" x2="480.31" y2="726.52" class="up-wick"/>
<rect x="476.31" y="708.05" width="8.00" height="17.52" class="up-body"/>
<line x1="501.35" y1="702.36" x2="501.35" y2="727.42" class="down-wick"/>
<rect x="497.35" y="708.05" width="8.00" height="17.37" class="down-body"/>
<line x1="522.40" y1="709.83" x2="522.40" y2="728.07" class="up-wick"/>
<rect x="518.40" y="711.03" width="8.00" height="14.38" class="up-body"/>
<line x1="543.44" y1="705.52" x2="543.44" y2="714.87" class="down-wick"/>
<rect x="539.44" y="711.03" width="8.00" height="3.36" class="down-body"/>
<line x1="564.48" y1="708.85" x2="564.48" y2="718.30" class="down-wick"/>
<rect x="560.48" y="714.39" width="8.00" height="1.58" class="down-body"/>
<line x1="585.52" y1="703.67" x2="585.52" y2="716.50" class="up-wick"/>
<rect x="581.52" y="709.93" width="8.00" height="6.04" class="up-body"/>
<line x1="606.56" y1="706.47" x2="606.56" y2="715.62" class="up-wick"/>
<rect x="602.56" y="709.08" width="8.00" height="1.00" class="up-body"/>
<line x1="627.60" y1="693.67" x2="627.60" y2="712.59" class="up-wick"/>
<rect x="623.60" y="695.37" width="8.00" height="13.71" class="up-body"/>
<line x1="648.65" y1="690.96" x2="648.65" y2="704.74" class="up-wick"/>
<rect x="644.65" y="694.12" width="8.00" height="1.25" class="up-body"/>
<line x1="669.69" y1="690.93" x2="669.69" y2="713.31" class="down-wick"/>
<rect x="665.69" y="694.09" width="8.00" height="16.41" class="down-body"/>
<line x1="690.73" y1="702.24" x2="690.73" y2="712.96" class="up-wick"/>
<rect x="686.73" y="704.62" width="8.00" height="5.89" class="up-body"/>
<line x1="711.77" y1="690.23" x2="711.77" y2="704.62" class="up-wick"/>
<rect x="707.77" y="697.88" width="8.00" height="6.74" class="up-body"/>
<line x1="732.81" y1="695.92" x2="732.81" y2="707.60" class="down-wick"/>
<rect x="728.81" y="697.88" width="8.00" height="8.47" class="down-body"/>
<line x1="753.85" y1="703.46" x2="753.85" y2="712.51" class="down-wick"/>
<rect x="749.85" y="706.35" width="8.00" height="1.00" class="down-body"/>
<line x1="774.90" y1="705.72" x2="774.90" y2="725.72" class="down-wick"/>
<rect x="770.90" y="706.65" width="8.00" height="13.63" class="down-body"/>
<line x1="795.94" y1="720.15" x2="795.94" y2="744.81" class="down-wick"/>
<rect x="791.94" y="720.28" width="8.00" height="23.38" class="down-body"/>
<line x1="816.98" y1="743.51" x2="816.98" y2="762.43" class="down-wick"/>
<rect x="812.98" y="743.66" width="8.00" height="6.99" class="down-body"/>
<line x1="838.02" y1="738.70" x2="838.02" y2="753.56" class="up-wick"/>
<rect x="834.02" y="742.86" width="8.00" height="7.82" class="up-body"/>
<line x1="859.06" y1="734.49" x2="859.06" y2="754.06" class="down-wick"/>
<rect x="855.06" y="742.96" width="8.00" height="7.62" class="down-body"/>
<line x1="880.10" y1="733.79" x2="880.10" y2="750.58" class="up-wick"/>
<rect x="876.10" y="736.52" width="8.00" height="14.06" class="up-body"/>
<line x1="901.15" y1="676.53" x2="901.15" y2="739.80" class="up-wick"/>
<rect x="897.15" y="680.74" width="8.00" height="55.78" class="up-body"/>
<line x1="922.19" y1="649.71" x2="922.19" y2="692.51" class="down-wick"/>
<rect x="918.19" y="680.74" width="8.00" height="1.00" class="down-body"/>
<line x1="943.23" y1="676.78" x2="943.23" y2="690.56" class="down-wick"/>
<rect x="939.23" y="681.59" width="8.00" height="5.59" class="down-body"/>
<line x1="964.27" y1="684.37" x2="964.27" y2="698.35" class="down-wick"/>
<rect x="960.27" y="687.00" width="8.00" height="3.81" class="down-body"/>
<line x1="985.31" y1="677.53" x2="985.31" y2="699.51" class="down-wick"/>
<rect x="981.31" y="690.81" width="8.00" height="1.00" class="down-body"/>
<line x1="1006.35" y1="679.16" x2="1006.35" y2="701.89" class="up-wick"/>
<rect x="1002.35" y="687.25" width="8.00" height="3.68" class="up-body"/>
<line x1="1027.40" y1="609.24" x2="1027.40" y2="690.63" class="up-wick"/>
<rect x="1023.40" y="641.04" width="8.00" height="46.21" class="up-body"/>
<line x1="1048.44" y1="625.53" x2="1048.44" y2="668.16" class="down-wick"/>
<rect x="1044.44" y="641.04" width="8.00" height="15.39" class="down-body"/>
<line x1="1069.48" y1="651.02" x2="1069.48" y2="664.22" class="up-wick"/>
<rect x="1065.48" y="654.17" width="8.00" height="2.26" class="up-body"/>
<line x1="70" y1="722.58" x2="1080" y2="722.58" class="sweep-line"/>
<text x="1076" y="718.58" text-anchor="end" class="level-label">sweep 4673.41</text>
<line x1="70" y1="771.48" x2="1080" y2="771.48" class="entry-line"/>
<text x="1076" y="767.48" text-anchor="end" class="level-label">entry level 4653.90</text>
<text x="70" y="806" class="axis-label">2026-04-07 19:00:00+00:00 to 2026-04-07 22:55:00+00:00</text>
<text x="1080" y="806" text-anchor="end" class="axis-label">4647.31 - 4723.92</text>
<text x="70" y="832" class="panel-title">M1 execution window</text>
<rect x="70" y="846" width="1010" height="192" class="plot-bg"/>
<line x1="74.21" y1="1010.84" x2="74.21" y2="1017.57" class="down-wick"/>
<rect x="71.47" y="1017.10" width="5.47" height="1.00" class="down-body"/>
<line x1="82.62" y1="1000.25" x2="82.62" y2="1016.64" class="up-wick"/>
<rect x="79.89" y="1001.67" width="5.47" height="13.20" class="up-body"/>
<line x1="91.04" y1="989.53" x2="91.04" y2="1000.40" class="down-wick"/>
<rect x="88.31" y="991.90" width="5.47" height="7.22" class="down-body"/>
<line x1="99.46" y1="998.42" x2="99.46" y2="1007.28" class="down-wick"/>
<rect x="96.72" y="1002.49" width="5.47" height="3.63" class="down-body"/>
<line x1="107.88" y1="1011.69" x2="107.88" y2="1022.62" class="down-wick"/>
<rect x="105.14" y="1011.69" width="5.47" height="6.62" class="down-body"/>
<line x1="116.29" y1="1011.77" x2="116.29" y2="1024.76" class="up-wick"/>
<rect x="113.56" y="1014.19" width="5.47" height="7.24" class="up-body"/>
<line x1="124.71" y1="1004.60" x2="124.71" y2="1010.02" class="up-wick"/>
<rect x="121.97" y="1008.24" width="5.47" height="1.00" class="up-body"/>
<line x1="133.12" y1="1007.83" x2="133.12" y2="1014.66" class="up-wick"/>
<rect x="130.39" y="1008.91" width="5.47" height="4.41" class="up-body"/>
<line x1="141.54" y1="1005.58" x2="141.54" y2="1013.52" class="down-wick"/>
<rect x="138.81" y="1005.58" width="5.47" height="5.44" class="down-body"/>
<line x1="149.96" y1="1009.63" x2="149.96" y2="1013.86" class="down-wick"/>
<rect x="147.22" y="1011.82" width="5.47" height="1.00" class="down-body"/>
<line x1="158.38" y1="1011.64" x2="158.38" y2="1020.17" class="down-wick"/>
<rect x="155.64" y="1011.72" width="5.47" height="2.09" class="down-body"/>
<line x1="166.79" y1="1004.06" x2="166.79" y2="1007.36" class="down-wick"/>
<rect x="164.06" y="1006.49" width="5.47" height="1.00" class="down-body"/>
<line x1="175.21" y1="1004.94" x2="175.21" y2="1018.73" class="down-wick"/>
<rect x="172.47" y="1006.05" width="5.47" height="5.34" class="down-body"/>
<line x1="183.62" y1="1009.86" x2="183.62" y2="1014.81" class="up-wick"/>
<rect x="180.89" y="1009.99" width="5.47" height="3.14" class="up-body"/>
<line x1="192.04" y1="996.49" x2="192.04" y2="1003.06" class="up-wick"/>
<rect x="189.31" y="1002.62" width="5.47" height="1.00" class="up-body"/>
<line x1="200.46" y1="995.07" x2="200.46" y2="1001.51" class="up-wick"/>
<rect x="197.72" y="996.77" width="5.47" height="1.29" class="up-body"/>
<line x1="208.88" y1="1005.04" x2="208.88" y2="1011.23" class="down-wick"/>
<rect x="206.14" y="1006.07" width="5.47" height="4.77" class="down-body"/>
<line x1="217.29" y1="1002.93" x2="217.29" y2="1008.55" class="down-wick"/>
<rect x="214.56" y="1002.93" width="5.47" height="3.56" class="down-body"/>
<line x1="225.71" y1="1002.39" x2="225.71" y2="1007.52" class="up-wick"/>
<rect x="222.97" y="1004.42" width="5.47" height="1.86" class="up-body"/>
<line x1="234.12" y1="1003.96" x2="234.12" y2="1007.75" class="down-wick"/>
<rect x="231.39" y="1005.74" width="5.47" height="1.80" class="down-body"/>
<line x1="242.54" y1="1008.73" x2="242.54" y2="1015.79" class="down-wick"/>
<rect x="239.81" y="1011.10" width="5.47" height="1.00" class="down-body"/>
<line x1="250.96" y1="1004.96" x2="250.96" y2="1010.35" class="up-wick"/>
<rect x="248.22" y="1008.62" width="5.47" height="1.00" class="up-body"/>
<line x1="259.38" y1="1002.70" x2="259.38" y2="1011.38" class="up-wick"/>
<rect x="256.64" y="1002.93" width="5.47" height="6.98" class="up-body"/>
<line x1="267.79" y1="999.86" x2="267.79" y2="1003.44" class="up-wick"/>
<rect x="265.06" y="1002.08" width="5.47" height="1.00" class="up-body"/>
<line x1="276.21" y1="997.98" x2="276.21" y2="1005.94" class="down-wick"/>
<rect x="273.47" y="1000.40" width="5.47" height="4.33" class="down-body"/>
<line x1="284.62" y1="1005.61" x2="284.62" y2="1012.49" class="up-wick"/>
<rect x="281.89" y="1005.76" width="5.47" height="4.05" class="up-body"/>
<line x1="293.04" y1="1000.58" x2="293.04" y2="1007.31" class="up-wick"/>
<rect x="290.31" y="1000.87" width="5.47" height="2.35" class="up-body"/>
<line x1="301.46" y1="1000.07" x2="301.46" y2="1006.64" class="down-wick"/>
<rect x="298.72" y="1002.41" width="5.47" height="2.78" class="down-body"/>
<line x1="309.88" y1="1006.95" x2="309.88" y2="1014.27" class="down-wick"/>
<rect x="307.14" y="1007.41" width="5.47" height="6.26" class="down-body"/>
<line x1="318.29" y1="1008.24" x2="318.29" y2="1014.96" class="up-wick"/>
<rect x="315.56" y="1009.19" width="5.47" height="5.05" class="up-body"/>
<line x1="326.71" y1="1003.13" x2="326.71" y2="1014.68" class="up-wick"/>
<rect x="323.97" y="1010.45" width="5.47" height="2.73" class="up-body"/>
<line x1="335.12" y1="998.88" x2="335.12" y2="1009.22" class="up-wick"/>
<rect x="332.39" y="999.29" width="5.47" height="9.92" class="up-body"/>
<line x1="343.54" y1="989.58" x2="343.54" y2="993.01" class="up-wick"/>
<rect x="340.81" y="990.53" width="5.47" height="2.06" class="up-body"/>
<line x1="351.96" y1="971.10" x2="351.96" y2="993.19" class="up-wick"/>
<rect x="349.22" y="973.93" width="5.47" height="16.65" class="up-body"/>
<line x1="360.38" y1="976.97" x2="360.38" y2="982.83" class="up-wick"/>
<rect x="357.64" y="977.34" width="5.47" height="3.53" class="up-body"/>
<line x1="368.79" y1="985.45" x2="368.79" y2="990.84" class="down-wick"/>
<rect x="366.06" y="986.64" width="5.47" height="1.00" class="down-body"/>
<line x1="377.21" y1="984.99" x2="377.21" y2="991.54" class="up-wick"/>
<rect x="374.47" y="985.58" width="5.47" height="4.51" class="up-body"/>
<line x1="385.62" y1="984.06" x2="385.62" y2="987.77" class="up-wick"/>
<rect x="382.89" y="985.04" width="5.47" height="2.63" class="up-body"/>
<line x1="394.04" y1="986.74" x2="394.04" y2="1004.60" class="down-wick"/>
<rect x="391.31" y="989.06" width="5.47" height="15.08" class="down-body"/>
<line x1="402.46" y1="1004.22" x2="402.46" y2="1015.04" class="down-wick"/>
<rect x="399.72" y="1007.21" width="5.47" height="7.84" class="down-body"/>
<line x1="410.88" y1="1013.88" x2="410.88" y2="1019.32" class="down-wick"/>
<rect x="408.14" y="1014.63" width="5.47" height="4.36" class="down-body"/>
<line x1="419.29" y1="1013.50" x2="419.29" y2="1018.57" class="up-wick"/>
<rect x="416.56" y="1016.15" width="5.47" height="1.73" class="up-body"/>
<line x1="427.71" y1="1008.08" x2="427.71" y2="1011.56" class="up-wick"/>
<rect x="424.97" y="1009.60" width="5.47" height="1.91" class="up-body"/>
<line x1="436.12" y1="1007.13" x2="436.12" y2="1013.78" class="up-wick"/>
<rect x="433.39" y="1007.98" width="5.47" height="5.80" class="up-body"/>
<line x1="444.54" y1="1007.18" x2="444.54" y2="1012.54" class="down-wick"/>
<rect x="441.81" y="1007.85" width="5.47" height="4.64" class="down-body"/>
<line x1="452.96" y1="992.67" x2="452.96" y2="1005.12" class="up-wick"/>
<rect x="450.22" y="993.11" width="5.47" height="11.96" class="up-body"/>
<line x1="461.38" y1="979.63" x2="461.38" y2="990.87" class="up-wick"/>
<rect x="458.64" y="982.08" width="5.47" height="8.17" class="up-body"/>
<line x1="469.79" y1="973.01" x2="469.79" y2="984.04" class="up-wick"/>
<rect x="467.06" y="974.19" width="5.47" height="5.31" class="up-body"/>
<line x1="478.21" y1="950.74" x2="478.21" y2="964.86" class="up-wick"/>
<rect x="475.47" y="953.91" width="5.47" height="6.26" class="up-body"/>
<line x1="486.62" y1="939.24" x2="486.62" y2="950.92" class="down-wick"/>
<rect x="483.89" y="940.32" width="5.47" height="5.59" class="down-body"/>
<line x1="495.04" y1="950.30" x2="495.04" y2="964.11" class="down-wick"/>
<rect x="492.31" y="956.15" width="5.47" height="7.76" class="down-body"/>
<line x1="503.46" y1="958.65" x2="503.46" y2="966.38" class="down-wick"/>
<rect x="500.72" y="961.36" width="5.47" height="5.00" class="down-body"/>
<line x1="511.87" y1="969.60" x2="511.87" y2="976.07" class="down-wick"/>
<rect x="509.14" y="969.86" width="5.47" height="4.15" class="down-body"/>
<line x1="520.29" y1="972.05" x2="520.29" y2="976.30" class="up-wick"/>
<rect x="517.56" y="974.04" width="5.47" height="2.22" class="up-body"/>
<line x1="528.71" y1="961.28" x2="528.71" y2="967.77" class="up-wick"/>
<rect x="525.97" y="961.51" width="5.47" height="1.24" class="up-body"/>
<line x1="537.12" y1="953.73" x2="537.12" y2="960.07" class="up-wick"/>
<rect x="534.39" y="958.86" width="5.47" height="1.00" class="up-body"/>
<line x1="545.54" y1="954.76" x2="545.54" y2="958.98" class="down-wick"/>
<rect x="542.81" y="956.38" width="5.47" height="1.24" class="down-body"/>
<line x1="553.96" y1="956.95" x2="553.96" y2="963.16" class="down-wick"/>
<rect x="551.22" y="956.95" width="5.47" height="5.72" class="down-body"/>
<line x1="562.38" y1="956.97" x2="562.38" y2="962.08" class="up-wick"/>
<rect x="559.64" y="957.95" width="5.47" height="3.79" class="up-body"/>
<line x1="570.79" y1="963.01" x2="570.79" y2="966.07" class="down-wick"/>
<rect x="568.06" y="963.01" width="5.47" height="3.04" class="down-body"/>
<line x1="579.21" y1="953.93" x2="579.21" y2="964.84" class="up-wick"/>
<rect x="576.47" y="955.38" width="5.47" height="8.92" class="up-body"/>
<line x1="587.62" y1="953.96" x2="587.62" y2="959.14" class="up-wick"/>
<rect x="584.89" y="954.81" width="5.47" height="1.00" class="up-body"/>
<line x1="596.04" y1="952.03" x2="596.04" y2="958.70" class="down-wick"/>
<rect x="593.31" y="952.93" width="5.47" height="5.15" class="down-body"/>
<line x1="604.46" y1="956.90" x2="604.46" y2="961.77" class="down-wick"/>
<rect x="601.72" y="957.57" width="5.47" height="2.73" class="down-body"/>
<line x1="612.88" y1="955.07" x2="612.88" y2="961.87" class="up-wick"/>
<rect x="610.14" y="957.36" width="5.47" height="3.84" class="up-body"/>
<line x1="621.29" y1="955.84" x2="621.29" y2="960.69" class="down-wick"/>
<rect x="618.56" y="957.21" width="5.47" height="1.91" class="down-body"/>
<line x1="629.71" y1="948.49" x2="629.71" y2="954.81" class="up-wick"/>
<rect x="626.97" y="949.09" width="5.47" height="5.67" class="up-body"/>
<line x1="638.12" y1="941.36" x2="638.12" y2="948.73" class="up-wick"/>
<rect x="635.39" y="943.11" width="5.47" height="4.25" class="up-body"/>
<line x1="646.54" y1="945.84" x2="646.54" y2="949.71" class="down-wick"/>
<rect x="643.81" y="946.30" width="5.47" height="2.45" class="down-body"/>
<line x1="654.96" y1="945.32" x2="654.96" y2="951.07" class="up-wick"/>
<rect x="652.22" y="946.25" width="5.47" height="3.61" class="up-body"/>
<line x1="663.38" y1="938.55" x2="663.38" y2="943.19" class="down-wick"/>
<rect x="660.64" y="941.79" width="5.47" height="1.00" class="down-body"/>
<line x1="671.79" y1="941.54" x2="671.79" y2="946.15" class="up-wick"/>
<rect x="669.06" y="943.34" width="5.47" height="1.91" class="up-body"/>
<line x1="680.21" y1="953.62" x2="680.21" y2="961.56" class="down-wick"/>
<rect x="677.47" y="954.84" width="5.47" height="3.84" class="down-body"/>
<line x1="688.62" y1="954.47" x2="688.62" y2="960.09" class="up-wick"/>
<rect x="685.89" y="955.92" width="5.47" height="3.04" class="up-body"/>
<line x1="697.04" y1="953.86" x2="697.04" y2="958.88" class="up-wick"/>
<rect x="694.31" y="955.66" width="5.47" height="2.60" class="up-body"/>
<line x1="705.46" y1="946.48" x2="705.46" y2="952.62" class="up-wick"/>
<rect x="702.72" y="948.06" width="5.47" height="4.56" class="up-body"/>
<line x1="713.88" y1="942.67" x2="713.88" y2="949.89" class="up-wick"/>
<rect x="711.14" y="944.42" width="5.47" height="5.28" class="up-body"/>
<line x1="722.29" y1="938.19" x2="722.29" y2="945.76" class="down-wick"/>
<rect x="719.56" y="939.96" width="5.47" height="5.72" class="down-body"/>
<line x1="730.71" y1="949.24" x2="730.71" y2="954.04" class="down-wick"/>
<rect x="727.97" y="949.29" width="5.47" height="1.00" class="down-body"/>
<line x1="739.12" y1="948.11" x2="739.12" y2="954.63" class="up-wick"/>
<rect x="736.39" y="949.58" width="5.47" height="1.47" class="up-body"/>
<line x1="747.54" y1="953.21" x2="747.54" y2="960.74" class="down-wick"/>
<rect x="744.81" y="954.40" width="5.47" height="4.05" class="down-body"/>
<line x1="755.96" y1="952.88" x2="755.96" y2="959.42" class="down-wick"/>
<rect x="753.22" y="956.59" width="5.47" height="1.00" class="down-body"/>
<line x1="764.38" y1="951.43" x2="764.38" y2="956.48" class="up-wick"/>
<rect x="761.64" y="954.71" width="5.47" height="1.47" class="up-body"/>
<line x1="772.79" y1="953.75" x2="772.79" y2="957.70" class="up-wick"/>
<rect x="770.06" y="955.89" width="5.47" height="1.00" class="up-body"/>
<line x1="781.21" y1="957.26" x2="781.21" y2="966.02" class="down-wick"/>
<rect x="778.47" y="957.90" width="5.47" height="7.24" class="down-body"/>
<line x1="789.62" y1="968.60" x2="789.62" y2="980.97" class="down-wick"/>
<rect x="786.89" y="968.73" width="5.47" height="9.28" class="down-body"/>
<line x1="798.04" y1="981.95" x2="798.04" y2="990.04" class="down-wick"/>
<rect x="795.31" y="983.34" width="5.47" height="6.70" class="down-body"/>
<line x1="806.46" y1="987.18" x2="806.46" y2="993.96" class="down-wick"/>
<rect x="803.72" y="987.18" width="5.47" height="5.59" class="down-body"/>
<line x1="814.88" y1="1003.60" x2="814.88" y2="1008.93" class="down-wick"/>
<rect x="812.14" y="1006.46" width="5.47" height="1.62" class="down-body"/>
<line x1="823.29" y1="994.17" x2="823.29" y2="1005.04" class="up-wick"/>
<rect x="820.56" y="999.89" width="5.47" height="3.66" class="up-body"/>
<line x1="831.71" y1="997.31" x2="831.71" y2="1002.95" class="up-wick"/>
<rect x="828.97" y="998.68" width="5.47" height="1.31" class="up-body"/>
<line x1="840.12" y1="988.50" x2="840.12" y2="998.88" class="up-wick"/>
<rect x="837.39" y="989.58" width="5.47" height="9.15" class="up-body"/>
<line x1="848.54" y1="988.93" x2="848.54" y2="993.29" class="down-wick"/>
<rect x="845.81" y="989.24" width="5.47" height="2.71" class="down-body"/>
<line x1="856.96" y1="993.91" x2="856.96" y2="1003.13" class="up-wick"/>
<rect x="854.22" y="996.43" width="5.47" height="5.72" class="up-body"/>
<line x1="865.38" y1="983.34" x2="865.38" y2="1003.47" class="up-wick"/>
<rect x="862.64" y="994.68" width="5.47" height="5.80" class="up-body"/>
<line x1="873.79" y1="986.05" x2="873.79" y2="999.89" class="up-wick"/>
<rect x="871.06" y="989.40" width="5.47" height="10.49" class="up-body"/>
<line x1="882.21" y1="984.86" x2="882.21" y2="990.35" class="down-wick"/>
<rect x="879.47" y="986.18" width="5.47" height="3.20" class="down-body"/>
<line x1="890.62" y1="982.62" x2="890.62" y2="990.35" class="up-wick"/>
<rect x="887.89" y="985.43" width="5.47" height="4.48" class="up-body"/>
<line x1="899.04" y1="976.48" x2="899.04" y2="987.28" class="up-wick"/>
<rect x="896.31" y="979.55" width="5.47" height="7.45" class="up-body"/>
<line x1="907.46" y1="948.19" x2="907.46" y2="983.93" class="up-wick"/>
<rect x="904.72" y="950.84" width="5.47" height="31.75" class="up-body"/>
<line x1="915.87" y1="896.15" x2="915.87" y2="933.39" class="up-wick"/>
<rect x="913.14" y="900.27" width="5.47" height="27.78" class="up-body"/>
<line x1="924.29" y1="918.73" x2="924.29" y2="928.83" class="down-wick"/>
<rect x="921.56" y="920.97" width="5.47" height="3.84" class="down-body"/>
<line x1="932.71" y1="928.19" x2="932.71" y2="940.17" class="up-wick"/>
<rect x="929.97" y="928.93" width="5.47" height="9.67" class="up-body"/>
<line x1="941.12" y1="923.98" x2="941.12" y2="938.16" class="down-wick"/>
<rect x="938.39" y="927.57" width="5.47" height="6.24" class="down-body"/>
<line x1="949.54" y1="926.33" x2="949.54" y2="935.81" class="up-wick"/>
<rect x="946.81" y="926.33" width="5.47" height="6.75" class="up-body"/>
<line x1="957.96" y1="934.50" x2="957.96" y2="940.87" class="down-wick"/>
<rect x="955.22" y="934.50" width="5.47" height="4.51" class="down-body"/>
<line x1="966.37" y1="932.31" x2="966.37" y2="943.78" class="up-wick"/>
<rect x="963.64" y="935.14" width="5.47" height="7.99" class="up-body"/>
<line x1="974.79" y1="935.56" x2="974.79" y2="941.41" class="down-wick"/>
<rect x="972.06" y="936.95" width="5.47" height="1.47" class="down-body"/>
<line x1="983.21" y1="929.45" x2="983.21" y2="942.46" class="up-wick"/>
<rect x="980.47" y="930.71" width="5.47" height="11.70" class="up-body"/>
<line x1="991.62" y1="928.96" x2="991.62" y2="938.37" class="down-wick"/>
<rect x="988.89" y="931.23" width="5.47" height="5.64" class="down-body"/>
<line x1="1000.04" y1="936.25" x2="1000.04" y2="945.66" class="down-wick"/>
<rect x="997.31" y="938.55" width="5.47" height="1.00" class="down-body"/>
<line x1="1008.46" y1="935.04" x2="1008.46" y2="945.81" class="down-wick"/>
<rect x="1005.72" y="935.22" width="5.47" height="7.96" class="down-body"/>
<line x1="1016.87" y1="926.43" x2="1016.87" y2="949.81" class="up-wick"/>
<rect x="1014.14" y="934.76" width="5.47" height="8.97" class="up-body"/>
<line x1="1025.29" y1="864.42" x2="1025.29" y2="885.01" class="up-wick"/>
<rect x="1022.56" y="865.61" width="5.47" height="7.47" class="up-body"/>
<line x1="1033.71" y1="859.24" x2="1033.71" y2="879.73" class="down-wick"/>
<rect x="1030.97" y="867.62" width="5.47" height="6.83" class="down-body"/>
<line x1="1042.12" y1="876.07" x2="1042.12" y2="890.81" class="up-wick"/>
<rect x="1039.39" y="884.42" width="5.47" height="2.81" class="up-body"/>
<line x1="1050.54" y1="871.95" x2="1050.54" y2="900.61" class="down-wick"/>
<rect x="1047.81" y="871.97" width="5.47" height="28.61" class="down-body"/>
<line x1="1058.96" y1="898.83" x2="1058.96" y2="909.78" class="up-wick"/>
<rect x="1056.22" y="903.06" width="5.47" height="3.20" class="up-body"/>
<line x1="1067.38" y1="900.30" x2="1067.38" y2="908.00" class="up-wick"/>
<rect x="1064.64" y="900.30" width="5.47" height="2.19" class="up-body"/>
<line x1="1075.79" y1="897.64" x2="1075.79" y2="906.23" class="down-wick"/>
<rect x="1073.06" y="898.60" width="5.47" height="3.07" class="down-body"/>
<line x1="70" y1="971.10" x2="1080" y2="971.10" class="sweep-line"/>
<text x="1076" y="967.10" text-anchor="end" class="level-label">sweep 4673.41</text>
<line x1="70" y1="1021.38" x2="1080" y2="1021.38" class="entry-line"/>
<text x="1076" y="1017.38" text-anchor="end" class="level-label">entry level 4653.90</text>
<text x="70" y="1056" class="axis-label">2026-04-07 19:00:00+00:00 to 2026-04-07 22:58:00+00:00</text>
<text x="1080" y="1056" text-anchor="end" class="axis-label">4647.45 - 4721.95</text>
</svg>