<svg xmlns="http://www.w3.org/2000/svg" width="1120" height="1054" viewBox="0 0 1120 1054">
<style>
text{font-family:Arial,Helvetica,sans-serif}.title{font-size:21px;font-weight:700;fill:#1f2937}.subtitle{font-size:12px;fill:#4b5563}.panel-title{font-size:15px;font-weight:700;fill:#111827}.muted{font-size:13px;fill:#6b7280}.plot-bg{fill:#f8fafc;stroke:#cbd5e1;stroke-width:1}.up-body{fill:#15803d;stroke:#14532d;stroke-width:.8}.down-body{fill:#b91c1c;stroke:#7f1d1d;stroke-width:.8}.up-wick{stroke:#14532d;stroke-width:1}.down-wick{stroke:#7f1d1d;stroke-width:1}.sweep-line{stroke:#7c3aed;stroke-width:1.6;stroke-dasharray:6 4}.number-line{stroke:#0f766e;stroke-width:1.4;stroke-dasharray:3 4}.entry-line{stroke:#2563eb;stroke-width:1.4}.sl-line{stroke:#dc2626;stroke-width:1.4}.tp-line{stroke:#16a34a;stroke-width:1.4}.level-label,.axis-label{font-size:11px;fill:#374151}
</style>
<text x="28" y="28" class="title">Adelin v2 visual review sample sample_179</text>
<text x="28" y="48" class="subtitle">Candidate windows are for visual labeling only and are not trade signals.</text>
<text x="560" y="48" class="subtitle" text-anchor="middle">NUMBER_THEORY_LEVEL_NEAR | ROUND_LEVEL_ENTRY_METADATA_AVAILABLE</text>
<text x="70" y="82" class="panel-title">H1 liquidity context</text>
<rect x="70" y="96" width="1010" height="192" class="plot-bg"/>
<line x1="79.18" y1="197.51" x2="79.18" y2="226.11" class="down-wick"/>
<rect x="75.18" y="207.63" width="8.00" height="1.57" class="down-body"/>
<line x1="97.55" y1="200.98" x2="97.55" y2="212.88" class="down-wick"/>
<rect x="93.55" y="209.20" width="8.00" height="1.00" class="down-body"/>
<line x1="115.91" y1="207.34" x2="115.91" y2="235.62" class="down-wick"/>
<rect x="111.91" y="209.51" width="8.00" height="9.96" class="down-body"/>
<line x1="134.27" y1="192.43" x2="134.27" y2="230.16" class="up-wick"/>
<rect x="130.27" y="216.71" width="8.00" height="2.76" class="up-body"/>
<line x1="152.64" y1="198.84" x2="152.64" y2="227.97" class="down-wick"/>
<rect x="148.64" y="216.72" width="8.00" height="4.89" class="down-body"/>
<line x1="171.00" y1="210.92" x2="171.00" y2="229.71" class="down-wick"/>
<rect x="167.00" y="221.62" width="8.00" height="3.66" class="down-body"/>
<line x1="189.36" y1="223.80" x2="189.36" y2="237.84" class="down-wick"/>
<rect x="185.36" y="225.27" width="8.00" height="8.10" class="down-body"/>
<line x1="207.73" y1="222.78" x2="207.73" y2="262.73" class="down-wick"/>
<rect x="203.73" y="233.35" width="8.00" height="24.31" class="down-body"/>
<line x1="226.09" y1="223.14" x2="226.09" y2="261.40" class="up-wick"/>
<rect x="222.09" y="225.65" width="8.00" height="32.00" class="up-body"/>
<line x1="244.45" y1="223.28" x2="244.45" y2="242.86" class="down-wick"/>
<rect x="240.45" y="225.65" width="8.00" height="12.97" class="down-body"/>
<line x1="262.82" y1="225.23" x2="262.82" y2="243.04" class="down-wick"/>
<rect x="258.82" y="238.63" width="8.00" height="1.00" class="down-body"/>
<line x1="281.18" y1="236.02" x2="281.18" y2="259.71" class="down-wick"/>
<rect x="277.18" y="238.98" width="8.00" height="13.13" class="down-body"/>
<line x1="299.55" y1="239.02" x2="299.55" y2="252.67" class="up-wick"/>
<rect x="295.55" y="243.36" width="8.00" height="8.76" class="up-body"/>
<line x1="317.91" y1="226.94" x2="317.91" y2="243.36" class="up-wick"/>
<rect x="313.91" y="230.42" width="8.00" height="12.94" class="up-body"/>
<line x1="336.27" y1="197.81" x2="336.27" y2="239.02" class="up-wick"/>
<rect x="332.27" y="199.20" width="8.00" height="31.22" class="up-body"/>
<line x1="354.64" y1="139.63" x2="354.64" y2="200.82" class="up-wick"/>
<rect x="350.64" y="154.73" width="8.00" height="44.47" class="up-body"/>
<line x1="373.00" y1="151.97" x2="373.00" y2="180.32" class="down-wick"/>
<rect x="369.00" y="154.73" width="8.00" height="13.16" class="down-body"/>
<line x1="391.36" y1="152.35" x2="391.36" y2="171.18" class="up-wick"/>
<rect x="387.36" y="159.84" width="8.00" height="8.05" class="up-body"/>
<line x1="409.73" y1="158.16" x2="409.73" y2="189.29" class="down-wick"/>
<rect x="405.73" y="159.69" width="8.00" height="19.26" class="down-body"/>
<line x1="428.09" y1="169.05" x2="428.09" y2="179.69" class="up-wick"/>
<rect x="424.09" y="170.18" width="8.00" height="8.77" class="up-body"/>
<line x1="446.45" y1="163.18" x2="446.45" y2="173.38" class="up-wick"/>
<rect x="442.45" y="168.61" width="8.00" height="1.64" class="up-body"/>
<line x1="464.82" y1="154.88" x2="464.82" y2="171.69" class="up-wick"/>
<rect x="460.82" y="158.06" width="8.00" height="10.55" class="up-body"/>
<line x1="483.18" y1="131.69" x2="483.18" y2="156.09" class="up-wick"/>
<rect x="479.18" y="136.87" width="8.00" height="18.63" class="up-body"/>
<line x1="501.55" y1="113.71" x2="501.55" y2="142.70" class="up-wick"/>
<rect x="497.55" y="116.73" width="8.00" height="20.14" class="up-body"/>
<line x1="519.91" y1="109.24" x2="519.91" y2="139.61" class="down-wick"/>
<rect x="515.91" y="116.73" width="8.00" height="22.05" class="down-body"/>
<line x1="538.27" y1="131.18" x2="538.27" y2="174.35" class="down-wick"/>
<rect x="534.27" y="138.94" width="8.00" height="27.03" class="down-body"/>
<line x1="556.64" y1="157.60" x2="556.64" y2="171.91" class="up-wick"/>
<rect x="552.64" y="162.36" width="8.00" height="3.60" class="up-body"/>
<line x1="575.00" y1="158.44" x2="575.00" y2="176.98" class="down-wick"/>
<rect x="571.00" y="162.42" width="8.00" height="12.02" class="down-body"/>
<line x1="593.36" y1="161.95" x2="593.36" y2="185.27" class="down-wick"/>
<rect x="589.36" y="174.48" width="8.00" height="7.31" class="down-body"/>
<line x1="611.73" y1="172.13" x2="611.73" y2="188.62" class="up-wick"/>
<rect x="607.73" y="181.65" width="8.00" height="1.00" class="up-body"/>
<line x1="630.09" y1="181.48" x2="630.09" y2="206.02" class="down-wick"/>
<rect x="626.09" y="181.65" width="8.00" height="21.23" class="down-body"/>
<line x1="648.45" y1="194.54" x2="648.45" y2="215.33" class="up-wick"/>
<rect x="644.45" y="199.34" width="8.00" height="3.54" class="up-body"/>
<line x1="666.82" y1="190.85" x2="666.82" y2="202.73" class="up-wick"/>
<rect x="662.82" y="194.98" width="8.00" height="4.36" class="up-body"/>
<line x1="685.18" y1="192.65" x2="685.18" y2="206.20" class="down-wick"/>
<rect x="681.18" y="194.96" width="8.00" height="4.84" class="down-body"/>
<line x1="703.55" y1="188.90" x2="703.55" y2="217.36" class="down-wick"/>
<rect x="699.55" y="199.84" width="8.00" height="6.17" class="down-body"/>
<line x1="721.91" y1="187.91" x2="721.91" y2="214.89" class="up-wick"/>
<rect x="717.91" y="190.98" width="8.00" height="15.03" class="up-body"/>
<line x1="740.27" y1="184.67" x2="740.27" y2="211.92" class="down-wick"/>
<rect x="736.27" y="190.98" width="8.00" height="1.14" class="down-body"/>
<line x1="758.64" y1="188.06" x2="758.64" y2="227.50" class="down-wick"/>
<rect x="754.64" y="192.18" width="8.00" height="32.25" class="down-body"/>
<line x1="777.00" y1="205.22" x2="777.00" y2="236.30" class="down-wick"/>
<rect x="773.00" y="224.43" width="8.00" height="7.99" class="down-body"/>
<line x1="795.36" y1="228.39" x2="795.36" y2="274.76" class="down-wick"/>
<rect x="791.36" y="232.47" width="8.00" height="8.22" class="down-body"/>
<line x1="813.73" y1="229.75" x2="813.73" y2="243.04" class="up-wick"/>
<rect x="809.73" y="234.54" width="8.00" height="6.15" class="up-body"/>
<line x1="832.09" y1="220.71" x2="832.09" y2="234.54" class="up-wick"/>
<rect x="828.09" y="225.10" width="8.00" height="9.43" class="up-body"/>
<line x1="850.45" y1="201.36" x2="850.45" y2="228.25" class="up-wick"/>
<rect x="846.45" y="204.03" width="8.00" height="21.04" class="up-body"/>
<line x1="868.82" y1="179.86" x2="868.82" y2="204.03" class="up-wick"/>
<rect x="864.82" y="179.94" width="8.00" height="24.09" class="up-body"/>
<line x1="887.18" y1="171.80" x2="887.18" y2="186.29" class="up-wick"/>
<rect x="883.18" y="178.41" width="8.00" height="1.97" class="up-body"/>
<line x1="905.55" y1="169.92" x2="905.55" y2="180.32" class="up-wick"/>
<rect x="901.55" y="178.35" width="8.00" height="1.00" class="up-body"/>
<line x1="923.91" y1="166.10" x2="923.91" y2="181.94" class="down-wick"/>
<rect x="919.91" y="178.33" width="8.00" height="3.01" class="down-body"/>
<line x1="942.27" y1="178.18" x2="942.27" y2="197.83" class="down-wick"/>
<rect x="938.27" y="181.34" width="8.00" height="14.79" class="down-body"/>
<line x1="960.64" y1="189.83" x2="960.64" y2="214.42" class="down-wick"/>
<rect x="956.64" y="196.13" width="8.00" height="13.00" class="down-body"/>
<line x1="979.00" y1="192.00" x2="979.00" y2="212.77" class="up-wick"/>
<rect x="975.00" y="204.09" width="8.00" height="5.04" class="up-body"/>
<line x1="997.36" y1="195.06" x2="997.36" y2="204.73" class="up-wick"/>
<rect x="993.36" y="199.58" width="8.00" height="4.56" class="up-body"/>
<line x1="1015.73" y1="190.20" x2="1015.73" y2="206.91" class="up-wick"/>
<rect x="1011.73" y="194.19" width="8.00" height="5.37" class="up-body"/>
<line x1="1034.09" y1="180.31" x2="1034.09" y2="200.23" class="down-wick"/>
<rect x="1030.09" y="194.19" width="8.00" height="2.89" class="down-body"/>
<line x1="1052.45" y1="188.40" x2="1052.45" y2="203.22" class="up-wick"/>
<rect x="1048.45" y="195.64" width="8.00" height="1.38" class="up-body"/>
<line x1="1070.82" y1="193.92" x2="1070.82" y2="206.02" class="down-wick"/>
<rect x="1066.82" y="195.79" width="8.00" height="2.65" class="down-body"/>
<line x1="70" y1="199.19" x2="1080" y2="199.19" class="number-line"/>
<text x="1076" y="195.19" text-anchor="end" class="level-label">round 4700.00</text>
<line x1="70" y1="199.19" x2="1080" y2="199.19" class="entry-line"/>
<text x="1076" y="195.19" text-anchor="end" class="level-label">entry level 4700.00</text>
<text x="70" y="306" class="axis-label">2026-05-11 01:00:00+00:00 to 2026-05-13 11:00:00+00:00</text>
<text x="1080" y="306" text-anchor="end" class="axis-label">4627.51 - 4784.23</text>
<text x="70" y="332" class="panel-title">M15 liquidity / reaction context</text>
<rect x="70" y="346" width="1010" height="192" class="plot-bg"/>
<line x1="77.54" y1="407.30" x2="77.54" y2="421.42" class="up-wick"/>
<rect x="73.54" y="415.29" width="8.00" height="5.35" class="up-body"/>
<line x1="92.61" y1="410.26" x2="92.61" y2="417.66" class="up-wick"/>
<rect x="88.61" y="413.77" width="8.00" height="1.51" class="up-body"/>
<line x1="107.69" y1="405.03" x2="107.69" y2="415.04" class="up-wick"/>
<rect x="103.69" y="405.73" width="8.00" height="8.05" class="up-body"/>
<line x1="122.76" y1="389.03" x2="122.76" y2="406.67" class="up-wick"/>
<rect x="118.76" y="395.91" width="8.00" height="9.82" class="up-body"/>
<line x1="137.84" y1="389.99" x2="137.84" y2="403.64" class="up-wick"/>
<rect x="133.84" y="395.45" width="8.00" height="1.00" class="up-body"/>
<line x1="152.91" y1="389.65" x2="152.91" y2="395.97" class="up-wick"/>
<rect x="148.91" y="392.59" width="8.00" height="2.91" class="up-body"/>
<line x1="167.99" y1="382.22" x2="167.99" y2="395.13" class="up-wick"/>
<rect x="163.99" y="387.63" width="8.00" height="4.96" class="up-body"/>
<line x1="183.06" y1="365.18" x2="183.06" y2="388.56" class="up-wick"/>
<rect x="179.06" y="369.18" width="8.00" height="18.45" class="up-body"/>
<line x1="198.13" y1="365.31" x2="198.13" y2="383.30" class="down-wick"/>
<rect x="194.13" y="369.18" width="8.00" height="1.00" class="down-body"/>
<line x1="213.21" y1="359.24" x2="213.21" y2="391.43" class="down-wick"/>
<rect x="209.21" y="369.66" width="8.00" height="7.74" class="down-body"/>
<line x1="228.28" y1="374.87" x2="228.28" y2="385.01" class="down-wick"/>
<rect x="224.28" y="377.40" width="8.00" height="6.83" class="down-body"/>
<line x1="243.36" y1="377.91" x2="243.36" y2="399.55" class="down-wick"/>
<rect x="239.36" y="384.23" width="8.00" height="14.21" class="down-body"/>
<line x1="258.43" y1="388.36" x2="258.43" y2="410.03" class="down-wick"/>
<rect x="254.43" y="398.65" width="8.00" height="4.80" class="down-body"/>
<line x1="273.51" y1="394.52" x2="273.51" y2="423.87" class="down-wick"/>
<rect x="269.51" y="403.47" width="8.00" height="17.79" class="down-body"/>
<line x1="288.58" y1="415.35" x2="288.58" y2="445.64" class="down-wick"/>
<rect x="284.58" y="421.30" width="8.00" height="9.28" class="down-body"/>
<line x1="303.66" y1="427.43" x2="303.66" y2="439.76" class="down-wick"/>
<rect x="299.66" y="430.59" width="8.00" height="3.93" class="down-body"/>
<line x1="318.73" y1="423.42" x2="318.73" y2="437.43" class="up-wick"/>
<rect x="314.73" y="427.50" width="8.00" height="7.02" class="up-body"/>
<line x1="333.81" y1="427.30" x2="333.81" y2="438.76" class="down-wick"/>
<rect x="329.81" y="427.48" width="8.00" height="7.11" class="down-body"/>
<line x1="348.88" y1="426.73" x2="348.88" y2="442.41" class="up-wick"/>
<rect x="344.88" y="426.83" width="8.00" height="7.79" class="up-body"/>
<line x1="363.96" y1="424.31" x2="363.96" y2="434.49" class="down-wick"/>
<rect x="359.96" y="426.86" width="8.00" height="2.88" class="down-body"/>
<line x1="379.03" y1="424.54" x2="379.03" y2="434.60" class="up-wick"/>
<rect x="375.03" y="427.94" width="8.00" height="1.89" class="up-body"/>
<line x1="394.10" y1="427.74" x2="394.10" y2="441.32" class="down-wick"/>
<rect x="390.10" y="427.94" width="8.00" height="11.87" class="down-body"/>
<line x1="409.18" y1="433.37" x2="409.18" y2="439.94" class="up-wick"/>
<rect x="405.18" y="439.51" width="8.00" height="1.00" class="up-body"/>
<line x1="424.25" y1="438.76" x2="424.25" y2="449.14" class="down-wick"/>
<rect x="420.25" y="439.51" width="8.00" height="6.26" class="down-body"/>
<line x1="439.33" y1="440.70" x2="439.33" y2="446.49" class="up-wick"/>
<rect x="435.33" y="443.02" width="8.00" height="2.80" class="up-body"/>
<line x1="454.40" y1="429.19" x2="454.40" y2="443.38" class="up-wick"/>
<rect x="450.40" y="442.11" width="8.00" height="1.00" class="up-body"/>
<line x1="469.48" y1="435.66" x2="469.48" y2="443.92" class="up-wick"/>
<rect x="465.48" y="438.46" width="8.00" height="3.66" class="up-body"/>
<line x1="484.55" y1="437.72" x2="484.55" y2="460.15" class="down-wick"/>
<rect x="480.55" y="438.49" width="8.00" height="17.04" class="down-body"/>
<line x1="499.63" y1="448.16" x2="499.63" y2="464.58" class="down-wick"/>
<rect x="495.63" y="455.53" width="8.00" height="2.93" class="down-body"/>
<line x1="514.70" y1="451.17" x2="514.70" y2="458.18" class="up-wick"/>
<rect x="510.70" y="453.64" width="8.00" height="4.54" class="up-body"/>
<line x1="529.78" y1="442.70" x2="529.78" y2="457.35" class="down-wick"/>
<rect x="525.78" y="453.64" width="8.00" height="1.00" class="down-body"/>
<line x1="544.85" y1="445.84" x2="544.85" y2="462.23" class="down-wick"/>
<rect x="540.85" y="454.05" width="8.00" height="1.28" class="down-body"/>
<line x1="559.93" y1="455.10" x2="559.93" y2="473.97" class="down-wick"/>
<rect x="555.93" y="455.33" width="8.00" height="14.89" class="down-body"/>
<line x1="575.00" y1="467.30" x2="575.00" y2="486.48" class="down-wick"/>
<rect x="571.00" y="470.29" width="8.00" height="14.78" class="down-body"/>
<line x1="590.07" y1="470.81" x2="590.07" y2="486.27" class="up-wick"/>
<rect x="586.07" y="474.58" width="8.00" height="10.49" class="up-body"/>
<line x1="605.15" y1="471.54" x2="605.15" y2="487.67" class="down-wick"/>
<rect x="601.15" y="474.58" width="8.00" height="8.93" class="down-body"/>
<line x1="620.22" y1="481.33" x2="620.22" y2="500.03" class="down-wick"/>
<rect x="616.22" y="483.51" width="8.00" height="1.82" class="down-body"/>
<line x1="635.30" y1="479.15" x2="635.30" y2="488.47" class="up-wick"/>
<rect x="631.30" y="481.98" width="8.00" height="3.35" class="up-body"/>
<line x1="650.37" y1="474.52" x2="650.37" y2="485.75" class="up-wick"/>
<rect x="646.37" y="477.93" width="8.00" height="4.05" class="up-body"/>
<line x1="665.45" y1="472.44" x2="665.45" y2="482.32" class="down-wick"/>
<rect x="661.45" y="477.93" width="8.00" height="1.00" class="down-body"/>
<line x1="680.52" y1="467.54" x2="680.52" y2="479.88" class="down-wick"/>
<rect x="676.52" y="478.81" width="8.00" height="1.00" class="down-body"/>
<line x1="695.60" y1="471.90" x2="695.60" y2="483.31" class="up-wick"/>
<rect x="691.60" y="473.88" width="8.00" height="5.37" class="up-body"/>
<line x1="710.67" y1="471.35" x2="710.67" y2="481.72" class="down-wick"/>
<rect x="706.67" y="473.71" width="8.00" height="4.78" class="down-body"/>
<line x1="725.75" y1="467.74" x2="725.75" y2="480.19" class="up-wick"/>
<rect x="721.75" y="473.02" width="8.00" height="5.46" class="up-body"/>
<line x1="740.82" y1="473.01" x2="740.82" y2="481.92" class="down-wick"/>
<rect x="736.82" y="473.01" width="8.00" height="8.81" class="down-body"/>
<line x1="755.90" y1="474.76" x2="755.90" y2="482.52" class="up-wick"/>
<rect x="751.90" y="479.05" width="8.00" height="2.76" class="up-body"/>
<line x1="770.97" y1="469.93" x2="770.97" y2="487.67" class="down-wick"/>
<rect x="766.97" y="479.05" width="8.00" height="7.11" class="down-body"/>
<line x1="786.04" y1="476.00" x2="786.04" y2="487.92" class="up-wick"/>
<rect x="782.04" y="479.43" width="8.00" height="6.73" class="up-body"/>
<line x1="801.12" y1="464.96" x2="801.12" y2="480.55" class="up-wick"/>
<rect x="797.12" y="470.52" width="8.00" height="8.96" class="up-body"/>
<line x1="816.19" y1="469.97" x2="816.19" y2="480.32" class="down-wick"/>
<rect x="812.19" y="470.53" width="8.00" height="7.80" class="down-body"/>
<line x1="831.27" y1="478.19" x2="831.27" y2="502.73" class="down-wick"/>
<rect x="827.27" y="478.34" width="8.00" height="15.45" class="down-body"/>
<line x1="846.34" y1="487.66" x2="846.34" y2="495.17" class="up-wick"/>
<rect x="842.34" y="487.67" width="8.00" height="6.10" class="up-body"/>
<line x1="861.42" y1="481.66" x2="861.42" y2="499.44" class="down-wick"/>
<rect x="857.42" y="487.67" width="8.00" height="4.42" class="down-body"/>
<line x1="876.49" y1="478.14" x2="876.49" y2="492.26" class="up-wick"/>
<rect x="872.49" y="478.50" width="8.00" height="13.59" class="up-body"/>
<line x1="891.57" y1="468.68" x2="891.57" y2="482.13" class="up-wick"/>
<rect x="887.57" y="471.58" width="8.00" height="6.93" class="up-body"/>
<line x1="906.64" y1="463.64" x2="906.64" y2="474.36" class="up-wick"/>
<rect x="902.64" y="467.72" width="8.00" height="3.85" class="up-body"/>
<line x1="921.72" y1="465.17" x2="921.72" y2="481.12" class="down-wick"/>
<rect x="917.72" y="467.72" width="8.00" height="1.54" class="down-body"/>
<line x1="936.79" y1="464.97" x2="936.79" y2="486.66" class="down-wick"/>
<rect x="932.79" y="469.27" width="8.00" height="13.89" class="down-body"/>
<line x1="951.87" y1="464.50" x2="951.87" y2="495.51" class="up-wick"/>
<rect x="947.87" y="474.03" width="8.00" height="9.12" class="up-body"/>
<line x1="966.94" y1="459.35" x2="966.94" y2="477.75" class="up-wick"/>
<rect x="962.94" y="469.23" width="8.00" height="4.80" class="up-body"/>
<line x1="982.01" y1="463.84" x2="982.01" y2="499.09" class="down-wick"/>
<rect x="978.01" y="469.32" width="8.00" height="27.19" class="down-body"/>
<line x1="997.09" y1="485.96" x2="997.09" y2="511.93" class="up-wick"/>
<rect x="993.09" y="493.44" width="8.00" height="3.06" class="up-body"/>
<line x1="1012.16" y1="475.90" x2="1012.16" y2="505.33" class="up-wick"/>
<rect x="1008.16" y="479.96" width="8.00" height="13.48" class="up-body"/>
<line x1="1027.24" y1="476.14" x2="1027.24" y2="516.19" class="down-wick"/>
<rect x="1023.24" y="479.96" width="8.00" height="32.14" class="down-body"/>
<line x1="1042.31" y1="486.61" x2="1042.31" y2="517.73" class="up-wick"/>
<rect x="1038.31" y="490.26" width="8.00" height="21.85" class="up-body"/>
<line x1="1057.39" y1="488.19" x2="1057.39" y2="507.12" class="down-wick"/>
<rect x="1053.39" y="490.19" width="8.00" height="15.66" class="down-body"/>
<line x1="1072.46" y1="498.21" x2="1072.46" y2="524.76" class="up-wick"/>
<rect x="1068.46" y="501.57" width="8.00" height="4.28" class="up-body"/>
<line x1="70" y1="478.62" x2="1080" y2="478.62" class="number-line"/>
<text x="1076" y="474.62" text-anchor="end" class="level-label">round 4700.00</text>
<line x1="70" y1="478.62" x2="1080" y2="478.62" class="entry-line"/>
<text x="1076" y="474.62" text-anchor="end" class="level-label">entry level 4700.00</text>
<text x="70" y="556" class="axis-label">2026-05-12 01:00:00+00:00 to 2026-05-12 17:30:00+00:00</text>
<text x="1080" y="556" text-anchor="end" class="axis-label">4663.48 - 4781.56</text>
<text x="70" y="582" class="panel-title">M5 reaction / execution context</text>
<rect x="70" y="596" width="1010" height="192" class="plot-bg"/>
<line x1="79.18" y1="680.99" x2="79.18" y2="741.63" class="down-wick"/>
<rect x="75.18" y="690.54" width="8.00" height="40.97" class="down-body"/>
<line x1="97.55" y1="703.51" x2="97.55" y2="762.93" class="up-wick"/>
<rect x="93.55" y="706.29" width="8.00" height="25.22" class="up-body"/>
<line x1="115.91" y1="683.49" x2="115.91" y2="724.46" class="up-wick"/>
<rect x="111.91" y="698.52" width="8.00" height="7.77" class="up-body"/>
<line x1="134.27" y1="671.44" x2="134.27" y2="712.27" class="up-wick"/>
<rect x="130.27" y="675.01" width="8.00" height="23.51" class="up-body"/>
<line x1="152.64" y1="673.08" x2="152.64" y2="692.68" class="down-wick"/>
<rect x="148.64" y="675.01" width="8.00" height="15.11" class="down-body"/>
<line x1="171.00" y1="676.00" x2="171.00" y2="695.60" class="up-wick"/>
<rect x="167.00" y="683.84" width="8.00" height="6.41" class="up-body"/>
<line x1="189.36" y1="670.80" x2="189.36" y2="700.37" class="up-wick"/>
<rect x="185.36" y="670.80" width="8.00" height="13.04" class="up-body"/>
<line x1="207.73" y1="664.89" x2="207.73" y2="690.90" class="up-wick"/>
<rect x="203.73" y="667.53" width="8.00" height="3.28" class="up-body"/>
<line x1="226.09" y1="651.14" x2="226.09" y2="674.86" class="up-wick"/>
<rect x="222.09" y="666.10" width="8.00" height="1.50" class="up-body"/>
<line x1="244.45" y1="665.10" x2="244.45" y2="685.34" class="down-wick"/>
<rect x="240.45" y="666.10" width="8.00" height="4.63" class="down-body"/>
<line x1="262.82" y1="649.14" x2="262.82" y2="681.85" class="up-wick"/>
<rect x="258.82" y="658.19" width="8.00" height="12.54" class="up-body"/>
<line x1="281.18" y1="642.02" x2="281.18" y2="676.50" class="down-wick"/>
<rect x="277.18" y="658.19" width="8.00" height="11.76" class="down-body"/>
<line x1="299.55" y1="620.57" x2="299.55" y2="671.37" class="up-wick"/>
<rect x="295.55" y="635.25" width="8.00" height="34.70" class="up-body"/>
<line x1="317.91" y1="627.48" x2="317.91" y2="656.41" class="down-wick"/>
<rect x="313.91" y="635.18" width="8.00" height="10.40" class="down-body"/>
<line x1="336.27" y1="642.80" x2="336.27" y2="674.65" class="down-wick"/>
<rect x="332.27" y="645.58" width="8.00" height="26.29" class="down-body"/>
<line x1="354.64" y1="665.17" x2="354.64" y2="689.68" class="down-wick"/>
<rect x="350.64" y="671.87" width="8.00" height="2.49" class="down-body"/>
<line x1="373.00" y1="639.67" x2="373.00" y2="675.08" class="up-wick"/>
<rect x="369.00" y="655.84" width="8.00" height="18.53" class="up-body"/>
<line x1="391.36" y1="640.02" x2="391.36" y2="658.33" class="up-wick"/>
<rect x="387.36" y="648.36" width="8.00" height="7.48" class="up-body"/>
<line x1="409.73" y1="637.24" x2="409.73" y2="661.04" class="down-wick"/>
<rect x="405.73" y="647.57" width="8.00" height="12.61" class="down-body"/>
<line x1="428.09" y1="656.77" x2="428.09" y2="682.70" class="down-wick"/>
<rect x="424.09" y="660.19" width="8.00" height="5.34" class="down-body"/>
<line x1="446.45" y1="661.40" x2="446.45" y2="679.57" class="down-wick"/>
<rect x="442.45" y="665.25" width="8.00" height="3.28" class="down-body"/>
<line x1="464.82" y1="621.43" x2="464.82" y2="676.00" class="up-wick"/>
<rect x="460.82" y="643.37" width="8.00" height="25.15" class="up-body"/>
<line x1="483.18" y1="629.69" x2="483.18" y2="649.21" class="down-wick"/>
<rect x="479.18" y="643.44" width="8.00" height="1.00" class="down-body"/>
<line x1="501.55" y1="637.10" x2="501.55" y2="651.99" class="down-wick"/>
<rect x="497.55" y="644.51" width="8.00" height="1.00" class="down-body"/>
<line x1="519.91" y1="644.51" x2="519.91" y2="670.45" class="down-wick"/>
<rect x="515.91" y="644.51" width="8.00" height="13.82" class="down-body"/>
<line x1="538.27" y1="656.98" x2="538.27" y2="677.14" class="down-wick"/>
<rect x="534.27" y="658.55" width="8.00" height="14.32" class="down-body"/>
<line x1="556.64" y1="657.69" x2="556.64" y2="683.56" class="down-wick"/>
<rect x="552.64" y="672.87" width="8.00" height="10.26" class="down-body"/>
<line x1="575.00" y1="663.46" x2="575.00" y2="683.34" class="up-wick"/>
<rect x="571.00" y="677.57" width="8.00" height="5.56" class="up-body"/>
<line x1="593.36" y1="652.70" x2="593.36" y2="683.63" class="up-wick"/>
<rect x="589.36" y="657.91" width="8.00" height="19.67" class="up-body"/>
<line x1="611.73" y1="652.21" x2="611.73" y2="686.19" class="down-wick"/>
<rect x="607.73" y="657.55" width="8.00" height="13.47" class="down-body"/>
<line x1="630.09" y1="631.04" x2="630.09" y2="671.52" class="up-wick"/>
<rect x="626.09" y="652.78" width="8.00" height="18.24" class="up-body"/>
<line x1="648.45" y1="649.78" x2="648.45" y2="680.07" class="down-wick"/>
<rect x="644.45" y="652.78" width="8.00" height="2.14" class="down-body"/>
<line x1="666.82" y1="651.07" x2="666.82" y2="708.78" class="down-wick"/>
<rect x="662.82" y="654.98" width="8.00" height="47.17" class="down-body"/>
<line x1="685.18" y1="661.04" x2="685.18" y2="709.85" class="up-wick"/>
<rect x="681.18" y="664.18" width="8.00" height="37.98" class="up-body"/>
<line x1="703.55" y1="657.62" x2="703.55" y2="696.74" class="down-wick"/>
<rect x="699.55" y="663.54" width="8.00" height="25.94" class="down-body"/>
<line x1="721.91" y1="669.09" x2="721.91" y2="693.67" class="up-wick"/>
<rect x="717.91" y="672.66" width="8.00" height="16.32" class="up-body"/>
<line x1="740.27" y1="639.95" x2="740.27" y2="677.57" class="up-wick"/>
<rect x="736.27" y="643.94" width="8.00" height="28.93" class="up-body"/>
<line x1="758.64" y1="610.60" x2="758.64" y2="650.78" class="up-wick"/>
<rect x="754.64" y="613.80" width="8.00" height="30.07" class="up-body"/>
<line x1="777.00" y1="609.24" x2="777.00" y2="638.17" class="down-wick"/>
<rect x="773.00" y="613.80" width="8.00" height="19.81" class="down-body"/>
<line x1="795.36" y1="631.19" x2="795.36" y2="676.57" class="down-wick"/>
<rect x="791.36" y="633.68" width="8.00" height="28.36" class="down-body"/>
<line x1="813.73" y1="645.37" x2="813.73" y2="671.30" class="up-wick"/>
<rect x="809.73" y="660.26" width="8.00" height="1.78" class="up-body"/>
<line x1="832.09" y1="647.93" x2="832.09" y2="673.80" class="down-wick"/>
<rect x="828.09" y="660.26" width="8.00" height="7.62" class="down-body"/>
<line x1="850.45" y1="667.24" x2="850.45" y2="723.74" class="down-wick"/>
<rect x="846.45" y="667.88" width="8.00" height="33.92" class="down-body"/>
<line x1="868.82" y1="698.23" x2="868.82" y2="772.34" class="down-wick"/>
<rect x="864.82" y="701.80" width="8.00" height="63.56" class="down-body"/>
<line x1="887.18" y1="722.82" x2="887.18" y2="774.76" class="up-wick"/>
<rect x="883.18" y="735.57" width="8.00" height="29.78" class="up-body"/>
<line x1="905.55" y1="724.60" x2="905.55" y2="741.63" class="up-wick"/>
<rect x="901.55" y="731.30" width="8.00" height="4.20" class="up-body"/>
<line x1="923.91" y1="711.27" x2="923.91" y2="737.57" class="up-wick"/>
<rect x="919.91" y="720.11" width="8.00" height="11.19" class="up-body"/>
<line x1="942.27" y1="708.71" x2="942.27" y2="732.86" class="up-wick"/>
<rect x="938.27" y="708.78" width="8.00" height="11.26" class="up-body"/>
<line x1="960.64" y1="703.44" x2="960.64" y2="743.12" class="down-wick"/>
<rect x="956.64" y="708.78" width="8.00" height="23.16" class="down-body"/>
<line x1="979.00" y1="718.90" x2="979.00" y2="760.37" class="up-wick"/>
<rect x="975.00" y="725.52" width="8.00" height="6.41" class="up-body"/>
<line x1="997.36" y1="682.42" x2="997.36" y2="743.69" class="down-wick"/>
<rect x="993.36" y="725.38" width="8.00" height="2.78" class="down-body"/>
<line x1="1015.73" y1="682.77" x2="1015.73" y2="728.87" class="up-wick"/>
<rect x="1011.73" y="684.20" width="8.00" height="43.96" class="up-body"/>
<line x1="1034.09" y1="684.20" x2="1034.09" y2="718.47" class="down-wick"/>
<rect x="1030.09" y="684.20" width="8.00" height="28.36" class="down-body"/>
<line x1="1052.45" y1="667.03" x2="1052.45" y2="720.25" class="up-wick"/>
<rect x="1048.45" y="668.59" width="8.00" height="44.03" class="up-body"/>
<line x1="1070.82" y1="653.63" x2="1070.82" y2="684.48" class="down-wick"/>
<rect x="1066.82" y="668.59" width="8.00" height="9.90" class="down-body"/>
<line x1="70" y1="669.09" x2="1080" y2="669.09" class="number-line"/>
<text x="1076" y="665.09" text-anchor="end" class="level-label">round 4700.00</text>
<line x1="70" y1="669.09" x2="1080" y2="669.09" class="entry-line"/>
<text x="1076" y="665.09" text-anchor="end" class="level-label">entry level 4700.00</text>
<text x="70" y="806" class="axis-label">2026-05-12 10:00:00+00:00 to 2026-05-12 14:30:00+00:00</text>
<text x="1080" y="806" text-anchor="end" class="axis-label">4683.31 - 4710.26</text>
<text x="70" y="832" class="panel-title">M1 execution window</text>
<rect x="70" y="846" width="1010" height="192" class="plot-bg"/>
<line x1="73.71" y1="930.34" x2="73.71" y2="953.95" class="down-wick"/>
<rect x="71.30" y="939.96" width="4.83" height="11.34" class="down-body"/>
<line x1="81.14" y1="946.34" x2="81.14" y2="968.15" class="down-wick"/>
<rect x="78.73" y="946.48" width="4.83" height="12.05" class="down-body"/>
<line x1="88.57" y1="966.57" x2="88.57" y2="991.40" class="down-wick"/>
<rect x="86.15" y="972.17" width="4.83" height="9.04" class="down-body"/>
<line x1="95.99" y1="970.52" x2="95.99" y2="989.75" class="up-wick"/>
<rect x="93.58" y="974.25" width="4.83" height="4.66" class="up-body"/>
<line x1="103.42" y1="963.49" x2="103.42" y2="995.85" class="up-wick"/>
<rect x="101.01" y="964.85" width="4.83" height="30.99" class="up-body"/>
<line x1="110.85" y1="955.45" x2="110.85" y2="974.11" class="down-wick"/>
<rect x="108.43" y="955.81" width="4.83" height="14.21" class="down-body"/>
<line x1="118.27" y1="934.65" x2="118.27" y2="944.33" class="down-wick"/>
<rect x="115.86" y="935.65" width="4.83" height="5.60" class="down-body"/>
<line x1="125.70" y1="942.54" x2="125.70" y2="956.53" class="up-wick"/>
<rect x="123.28" y="947.99" width="4.83" height="7.75" class="up-body"/>
<line x1="133.12" y1="934.14" x2="133.12" y2="946.34" class="down-wick"/>
<rect x="130.71" y="936.58" width="4.83" height="9.69" class="down-body"/>
<line x1="140.55" y1="930.13" x2="140.55" y2="949.28" class="up-wick"/>
<rect x="138.14" y="938.16" width="4.83" height="10.19" class="up-body"/>
<line x1="147.98" y1="922.38" x2="147.98" y2="937.59" class="down-wick"/>
<rect x="145.56" y="924.31" width="4.83" height="10.33" class="down-body"/>
<line x1="155.40" y1="923.74" x2="155.40" y2="930.84" class="up-wick"/>
<rect x="152.99" y="925.25" width="4.83" height="3.37" class="up-body"/>
<line x1="162.83" y1="924.53" x2="162.83" y2="942.11" class="down-wick"/>
<rect x="160.42" y="925.96" width="4.83" height="13.56" class="down-body"/>
<line x1="170.26" y1="930.41" x2="170.26" y2="945.05" class="up-wick"/>
<rect x="167.84" y="930.41" width="4.83" height="1.00" class="up-body"/>
<line x1="177.68" y1="925.32" x2="177.68" y2="940.60" class="down-wick"/>
<rect x="175.27" y="927.61" width="4.83" height="5.74" class="down-body"/>
<line x1="185.11" y1="929.70" x2="185.11" y2="949.86" class="down-wick"/>
<rect x="182.70" y="933.21" width="4.83" height="10.98" class="down-body"/>
<line x1="192.54" y1="938.45" x2="192.54" y2="947.85" class="up-wick"/>
<rect x="190.12" y="942.61" width="4.83" height="1.00" class="up-body"/>
<line x1="199.96" y1="920.08" x2="199.96" y2="932.85" class="up-wick"/>
<rect x="197.55" y="920.08" width="4.83" height="10.26" class="up-body"/>
<line x1="207.39" y1="923.60" x2="207.39" y2="940.03" class="down-wick"/>
<rect x="204.98" y="924.53" width="4.83" height="8.32" class="down-body"/>
<line x1="214.82" y1="915.42" x2="214.82" y2="932.85" class="down-wick"/>
<rect x="212.40" y="915.56" width="4.83" height="15.64" class="down-body"/>
<line x1="222.24" y1="915.42" x2="222.24" y2="924.17" class="down-wick"/>
<rect x="219.83" y="916.85" width="4.83" height="5.74" class="down-body"/>
<line x1="229.67" y1="900.28" x2="229.67" y2="909.68" class="down-wick"/>
<rect x="227.26" y="908.75" width="4.83" height="1.00" class="down-body"/>
<line x1="237.10" y1="906.74" x2="237.10" y2="918.43" class="down-wick"/>
<rect x="234.68" y="911.62" width="4.83" height="3.73" class="down-body"/>
<line x1="244.52" y1="920.23" x2="244.52" y2="929.27" class="down-wick"/>
<rect x="242.11" y="920.23" width="4.83" height="3.80" class="down-body"/>
<line x1="251.95" y1="921.37" x2="251.95" y2="934.72" class="down-wick"/>
<rect x="249.53" y="921.73" width="4.83" height="7.32" class="down-body"/>
<line x1="259.38" y1="915.35" x2="259.38" y2="931.20" class="up-wick"/>
<rect x="256.96" y="916.71" width="4.83" height="3.30" class="up-body"/>
<line x1="266.80" y1="905.59" x2="266.80" y2="918.36" class="down-wick"/>
<rect x="264.39" y="913.41" width="4.83" height="1.79" class="down-body"/>
<line x1="274.23" y1="898.27" x2="274.23" y2="927.76" class="up-wick"/>
<rect x="271.81" y="907.38" width="4.83" height="12.84" class="up-body"/>
<line x1="281.65" y1="895.69" x2="281.65" y2="905.95" class="up-wick"/>
<rect x="279.24" y="898.41" width="4.83" height="1.65" class="up-body"/>
<line x1="289.08" y1="897.41" x2="289.08" y2="917.36" class="down-wick"/>
<rect x="286.67" y="897.48" width="4.83" height="19.87" class="down-body"/>
<line x1="296.51" y1="895.04" x2="296.51" y2="920.66" class="up-wick"/>
<rect x="294.09" y="898.99" width="4.83" height="20.23" class="up-body"/>
<line x1="303.93" y1="869.50" x2="303.93" y2="886.00" class="up-wick"/>
<rect x="301.52" y="871.87" width="4.83" height="8.25" class="up-body"/>
<line x1="311.36" y1="874.09" x2="311.36" y2="884.28" class="down-wick"/>
<rect x="308.95" y="881.20" width="4.83" height="3.09" class="down-body"/>
<line x1="318.79" y1="880.84" x2="318.79" y2="890.24" class="down-wick"/>
<rect x="316.37" y="881.98" width="4.83" height="3.73" class="down-body"/>
<line x1="326.21" y1="895.11" x2="326.21" y2="905.59" class="up-wick"/>
<rect x="323.80" y="895.90" width="4.83" height="9.69" class="up-body"/>
<line x1="333.64" y1="891.89" x2="333.64" y2="917.71" class="down-wick"/>
<rect x="331.23" y="894.68" width="4.83" height="20.66" class="down-body"/>
<line x1="341.07" y1="910.11" x2="341.07" y2="922.31" class="up-wick"/>
<rect x="338.65" y="911.69" width="4.83" height="10.55" class="up-body"/>
<line x1="348.49" y1="907.45" x2="348.49" y2="923.38" class="down-wick"/>
<rect x="346.08" y="911.90" width="4.83" height="9.26" class="down-body"/>
<line x1="355.92" y1="925.96" x2="355.92" y2="937.23" class="down-wick"/>
<rect x="353.51" y="926.11" width="4.83" height="3.52" class="down-body"/>
<line x1="363.35" y1="914.41" x2="363.35" y2="934.57" class="up-wick"/>
<rect x="360.93" y="916.78" width="4.83" height="17.79" class="up-body"/>
<line x1="370.77" y1="906.59" x2="370.77" y2="924.39" class="up-wick"/>
<rect x="368.36" y="909.25" width="4.83" height="14.42" class="up-body"/>
<line x1="378.20" y1="892.17" x2="378.20" y2="901.28" class="down-wick"/>
<rect x="375.78" y="892.32" width="4.83" height="2.94" class="down-body"/>
<line x1="385.62" y1="888.73" x2="385.62" y2="905.16" class="down-wick"/>
<rect x="383.21" y="895.76" width="4.83" height="9.26" class="down-body"/>
<line x1="393.05" y1="889.09" x2="393.05" y2="899.99" class="up-wick"/>
<rect x="390.64" y="890.38" width="4.83" height="6.74" class="up-body"/>
<line x1="400.48" y1="890.16" x2="400.48" y2="898.70" class="down-wick"/>
<rect x="398.06" y="890.45" width="4.83" height="6.82" class="down-body"/>
<line x1="407.90" y1="886.29" x2="407.90" y2="898.56" class="up-wick"/>
<rect x="405.49" y="892.53" width="4.83" height="4.16" class="up-body"/>
<line x1="415.33" y1="899.20" x2="415.33" y2="906.45" class="down-wick"/>
<rect x="412.92" y="900.71" width="4.83" height="4.38" class="down-body"/>
<line x1="422.76" y1="897.84" x2="422.76" y2="910.25" class="down-wick"/>
<rect x="420.34" y="900.28" width="4.83" height="9.11" class="down-body"/>
<line x1="430.18" y1="912.33" x2="430.18" y2="932.06" class="down-wick"/>
<rect x="427.77" y="914.34" width="4.83" height="17.43" class="down-body"/>
<line x1="437.61" y1="914.56" x2="437.61" y2="925.75" class="up-wick"/>
<rect x="435.20" y="917.71" width="4.83" height="8.04" class="up-body"/>
<line x1="445.04" y1="910.61" x2="445.04" y2="919.87" class="down-wick"/>
<rect x="442.62" y="914.49" width="4.83" height="3.37" class="down-body"/>
<line x1="452.46" y1="917.86" x2="452.46" y2="928.55" class="down-wick"/>
<rect x="450.05" y="921.01" width="4.83" height="2.01" class="down-body"/>
<line x1="459.89" y1="915.85" x2="459.89" y2="922.74" class="down-wick"/>
<rect x="457.48" y="916.85" width="4.83" height="1.00" class="down-body"/>
<line x1="467.32" y1="874.59" x2="467.32" y2="893.82" class="down-wick"/>
<rect x="464.90" y="874.95" width="4.83" height="12.41" class="down-body"/>
<line x1="474.74" y1="886.65" x2="474.74" y2="898.41" class="down-wick"/>
<rect x="472.33" y="889.88" width="4.83" height="7.82" class="down-body"/>
<line x1="482.17" y1="887.37" x2="482.17" y2="897.48" class="down-wick"/>
<rect x="479.76" y="892.53" width="4.83" height="2.87" class="down-body"/>
<line x1="489.60" y1="882.20" x2="489.60" y2="895.83" class="down-wick"/>
<rect x="487.18" y="888.37" width="4.83" height="1.00" class="down-body"/>
<line x1="497.02" y1="891.31" x2="497.02" y2="898.34" class="up-wick"/>
<rect x="494.61" y="893.46" width="4.83" height="1.94" class="up-body"/>
<line x1="504.45" y1="894.61" x2="504.45" y2="901.14" class="down-wick"/>
<rect x="502.03" y="894.97" width="4.83" height="6.10" class="down-body"/>
<line x1="511.88" y1="886.15" x2="511.88" y2="897.77" class="up-wick"/>
<rect x="509.46" y="888.94" width="4.83" height="8.82" class="up-body"/>
<line x1="519.30" y1="893.61" x2="519.30" y2="902.86" class="down-wick"/>
<rect x="516.89" y="893.61" width="4.83" height="8.54" class="down-body"/>
<line x1="526.73" y1="904.94" x2="526.73" y2="919.72" class="up-wick"/>
<rect x="524.31" y="906.31" width="4.83" height="8.54" class="up-body"/>
<line x1="534.15" y1="901.93" x2="534.15" y2="907.60" class="down-wick"/>
<rect x="531.74" y="901.93" width="4.83" height="5.60" class="down-body"/>
<line x1="541.58" y1="913.34" x2="541.58" y2="922.81" class="down-wick"/>
<rect x="539.17" y="919.01" width="4.83" height="1.00" class="down-body"/>
<line x1="549.01" y1="917.00" x2="549.01" y2="926.47" class="down-wick"/>
<rect x="546.59" y="920.15" width="4.83" height="5.09" class="down-body"/>
<line x1="556.43" y1="911.11" x2="556.43" y2="924.10" class="up-wick"/>
<rect x="554.02" y="912.26" width="4.83" height="9.90" class="up-body"/>
<line x1="563.86" y1="911.54" x2="563.86" y2="930.05" class="down-wick"/>
<rect x="561.45" y="911.97" width="4.83" height="18.08" class="down-body"/>
<line x1="571.29" y1="921.59" x2="571.29" y2="932.92" class="down-wick"/>
<rect x="568.87" y="926.11" width="4.83" height="6.39" class="down-body"/>
<line x1="578.71" y1="923.02" x2="578.71" y2="930.13" class="down-wick"/>
<rect x="576.30" y="927.90" width="4.83" height="2.01" class="down-body"/>
<line x1="586.14" y1="912.69" x2="586.14" y2="922.74" class="up-wick"/>
<rect x="583.73" y="916.35" width="4.83" height="6.39" class="up-body"/>
<line x1="593.57" y1="921.59" x2="593.57" y2="928.33" class="up-wick"/>
<rect x="591.15" y="925.96" width="4.83" height="1.00" class="up-body"/>
<line x1="600.99" y1="918.86" x2="600.99" y2="929.62" class="up-wick"/>
<rect x="598.58" y="920.15" width="4.83" height="7.10" class="up-body"/>
<line x1="608.42" y1="901.86" x2="608.42" y2="915.27" class="up-wick"/>
<rect x="606.01" y="907.10" width="4.83" height="6.89" class="up-body"/>
<line x1="615.85" y1="910.25" x2="615.85" y2="927.47" class="down-wick"/>
<rect x="613.43" y="919.22" width="4.83" height="3.59" class="down-body"/>
<line x1="623.27" y1="919.08" x2="623.27" y2="927.18" class="up-wick"/>
<rect x="620.86" y="920.15" width="4.83" height="4.59" class="up-body"/>
<line x1="630.70" y1="882.27" x2="630.70" y2="920.80" class="up-wick"/>
<rect x="628.28" y="894.54" width="4.83" height="25.76" class="up-body"/>
<line x1="638.12" y1="895.33" x2="638.12" y2="901.07" class="up-wick"/>
<rect x="635.71" y="897.34" width="4.83" height="2.30" class="up-body"/>
<line x1="645.55" y1="880.05" x2="645.55" y2="905.23" class="down-wick"/>
<rect x="643.14" y="887.58" width="4.83" height="14.35" class="down-body"/>
<line x1="652.98" y1="911.76" x2="652.98" y2="929.41" class="down-wick"/>
<rect x="650.56" y="914.77" width="4.83" height="11.91" class="down-body"/>
<line x1="660.40" y1="917.57" x2="660.40" y2="923.88" class="up-wick"/>
<rect x="657.99" y="917.57" width="4.83" height="3.73" class="up-body"/>
<line x1="667.83" y1="900.21" x2="667.83" y2="912.91" class="down-wick"/>
<rect x="665.42" y="904.15" width="4.83" height="7.10" class="down-body"/>
<line x1="675.26" y1="906.59" x2="675.26" y2="918.07" class="up-wick"/>
<rect x="672.84" y="909.03" width="4.83" height="8.04" class="up-body"/>
<line x1="682.68" y1="928.48" x2="682.68" y2="958.32" class="down-wick"/>
<rect x="680.27" y="933.28" width="4.83" height="18.37" class="down-body"/>
<line x1="690.11" y1="947.42" x2="690.11" y2="957.10" class="up-wick"/>
<rect x="687.70" y="948.42" width="4.83" height="6.74" class="up-body"/>
<line x1="697.54" y1="918.43" x2="697.54" y2="929.84" class="up-wick"/>
<rect x="695.12" y="921.44" width="4.83" height="7.68" class="up-body"/>
<line x1="704.96" y1="906.81" x2="704.96" y2="916.49" class="up-wick"/>
<rect x="702.55" y="910.54" width="4.83" height="2.22" class="up-body"/>
<line x1="712.39" y1="918.36" x2="712.39" y2="924.53" class="down-wick"/>
<rect x="709.98" y="919.87" width="4.83" height="4.38" class="down-body"/>
<line x1="719.82" y1="928.26" x2="719.82" y2="946.20" class="down-wick"/>
<rect x="717.40" y="929.48" width="4.83" height="9.40" class="down-body"/>
<line x1="727.24" y1="924.31" x2="727.24" y2="937.87" class="up-wick"/>
<rect x="724.83" y="929.19" width="4.83" height="8.68" class="up-body"/>
<line x1="734.67" y1="920.44" x2="734.67" y2="929.48" class="up-wick"/>
<rect x="732.26" y="923.60" width="4.83" height="5.31" class="up-body"/>
<line x1="742.10" y1="905.95" x2="742.10" y2="926.90" class="up-wick"/>
<rect x="739.68" y="907.38" width="4.83" height="14.78" class="up-body"/>
<line x1="749.52" y1="889.02" x2="749.52" y2="898.20" class="up-wick"/>
<rect x="747.11" y="895.62" width="4.83" height="1.00" class="up-body"/>
<line x1="756.95" y1="892.89" x2="756.95" y2="904.87" class="up-wick"/>
<rect x="754.53" y="893.03" width="4.83" height="11.84" class="up-body"/>
<line x1="764.38" y1="886.36" x2="764.38" y2="899.92" class="down-wick"/>
<rect x="761.96" y="890.38" width="4.83" height="8.90" class="down-body"/>
<line x1="771.80" y1="860.17" x2="771.80" y2="871.01" class="up-wick"/>
<rect x="769.39" y="861.47" width="4.83" height="5.67" class="up-body"/>
<line x1="779.23" y1="859.24" x2="779.23" y2="867.06" class="up-wick"/>
<rect x="776.81" y="860.60" width="4.83" height="2.08" class="up-body"/>
<line x1="786.65" y1="866.20" x2="786.65" y2="875.38" class="down-wick"/>
<rect x="784.24" y="867.13" width="4.83" height="2.30" class="down-body"/>
<line x1="794.08" y1="877.25" x2="794.08" y2="887.22" class="down-wick"/>
<rect x="791.67" y="882.49" width="4.83" height="1.00" class="down-body"/>
<line x1="801.51" y1="897.05" x2="801.51" y2="922.09" class="down-wick"/>
<rect x="799.09" y="901.07" width="4.83" height="15.28" class="down-body"/>
<line x1="808.93" y1="905.09" x2="808.93" y2="915.42" class="up-wick"/>
<rect x="806.52" y="906.81" width="4.83" height="7.61" class="up-body"/>
<line x1="816.36" y1="909.18" x2="816.36" y2="920.58" class="down-wick"/>
<rect x="813.95" y="911.26" width="4.83" height="1.00" class="down-body"/>
<line x1="823.79" y1="894.47" x2="823.79" y2="915.63" class="down-wick"/>
<rect x="821.37" y="896.76" width="4.83" height="12.84" class="down-body"/>
<line x1="831.21" y1="902.72" x2="831.21" y2="909.61" class="down-wick"/>
<rect x="828.80" y="906.09" width="4.83" height="3.37" class="down-body"/>
<line x1="838.64" y1="897.12" x2="838.64" y2="917.64" class="down-wick"/>
<rect x="836.23" y="897.12" width="4.83" height="16.64" class="down-body"/>
<line x1="846.07" y1="905.37" x2="846.07" y2="915.13" class="up-wick"/>
<rect x="843.65" y="909.61" width="4.83" height="5.31" class="up-body"/>
<line x1="853.49" y1="916.49" x2="853.49" y2="950.57" class="down-wick"/>
<rect x="851.08" y="917.14" width="4.83" height="32.07" class="down-body"/>
<line x1="860.92" y1="941.75" x2="860.92" y2="973.39" class="down-wick"/>
<rect x="858.51" y="942.61" width="4.83" height="26.69" class="down-body"/>
<line x1="868.35" y1="947.63" x2="868.35" y2="970.59" class="up-wick"/>
<rect x="865.93" y="951.29" width="4.83" height="15.71" class="up-body"/>
<line x1="875.77" y1="957.03" x2="875.77" y2="976.69" class="down-wick"/>
<rect x="873.36" y="957.32" width="4.83" height="3.23" class="down-body"/>
<line x1="883.20" y1="960.76" x2="883.20" y2="970.73" class="down-wick"/>
<rect x="880.78" y="968.94" width="4.83" height="1.00" class="down-body"/>
<line x1="890.62" y1="1007.83" x2="890.62" y2="1024.76" class="up-wick"/>
<rect x="888.21" y="1009.55" width="4.83" height="5.74" class="up-body"/>
<line x1="898.05" y1="974.11" x2="898.05" y2="992.90" class="down-wick"/>
<rect x="895.64" y="975.90" width="4.83" height="16.86" class="down-body"/>
<line x1="905.48" y1="974.18" x2="905.48" y2="985.44" class="down-wick"/>
<rect x="903.06" y="980.42" width="4.83" height="4.88" class="down-body"/>
<line x1="912.90" y1="974.25" x2="912.90" y2="983.22" class="up-wick"/>
<rect x="910.49" y="978.70" width="4.83" height="4.02" class="up-body"/>
<line x1="920.33" y1="979.70" x2="920.33" y2="991.40" class="up-wick"/>
<rect x="917.92" y="985.23" width="4.83" height="1.79" class="up-body"/>
<line x1="927.76" y1="965.35" x2="927.76" y2="987.31" class="up-wick"/>
<rect x="925.34" y="973.25" width="4.83" height="7.75" class="up-body"/>
<line x1="935.18" y1="969.59" x2="935.18" y2="978.48" class="up-wick"/>
<rect x="932.77" y="969.87" width="4.83" height="4.74" class="up-body"/>
<line x1="942.61" y1="963.99" x2="942.61" y2="976.83" class="down-wick"/>
<rect x="940.20" y="964.56" width="4.83" height="5.17" class="down-body"/>
<line x1="950.04" y1="970.88" x2="950.04" y2="982.57" class="up-wick"/>
<rect x="947.62" y="971.38" width="4.83" height="6.17" class="up-body"/>
<line x1="957.46" y1="969.01" x2="957.46" y2="975.25" class="up-wick"/>
<rect x="955.05" y="969.23" width="4.83" height="2.94" class="up-body"/>
<line x1="964.89" y1="952.94" x2="964.89" y2="970.88" class="down-wick"/>
<rect x="962.48" y="958.32" width="4.83" height="9.97" class="down-body"/>
<line x1="972.32" y1="979.70" x2="972.32" y2="992.26" class="down-wick"/>
<rect x="969.90" y="984.29" width="4.83" height="1.65" class="down-body"/>
<line x1="979.74" y1="979.70" x2="979.74" y2="990.18" class="up-wick"/>
<rect x="977.33" y="981.64" width="4.83" height="3.73" class="up-body"/>
<line x1="987.17" y1="982.64" x2="987.17" y2="1007.04" class="up-wick"/>
<rect x="984.76" y="989.03" width="4.83" height="9.54" class="up-body"/>
<line x1="994.60" y1="983.07" x2="994.60" y2="998.71" class="up-wick"/>
<rect x="992.18" y="985.51" width="4.83" height="4.74" class="up-body"/>
<line x1="1002.02" y1="931.78" x2="1002.02" y2="975.97" class="up-wick"/>
<rect x="999.61" y="962.41" width="4.83" height="12.63" class="up-body"/>
<line x1="1009.45" y1="949.00" x2="1009.45" y2="968.94" class="down-wick"/>
<rect x="1007.03" y="955.88" width="4.83" height="12.84" class="down-body"/>
<line x1="1016.88" y1="971.95" x2="1016.88" y2="990.18" class="up-wick"/>
<rect x="1014.46" y="977.84" width="4.83" height="10.91" class="up-body"/>
<line x1="1024.30" y1="943.33" x2="1024.30" y2="960.55" class="down-wick"/>
<rect x="1021.89" y="954.59" width="4.83" height="3.30" class="down-body"/>
<line x1="1031.73" y1="941.46" x2="1031.73" y2="957.53" class="up-wick"/>
<rect x="1029.31" y="943.47" width="4.83" height="2.15" class="up-body"/>
<line x1="1039.15" y1="933.57" x2="1039.15" y2="949.78" class="down-wick"/>
<rect x="1036.74" y="933.57" width="4.83" height="13.20" class="down-body"/>
<line x1="1046.58" y1="940.96" x2="1046.58" y2="950.93" class="down-wick"/>
<rect x="1044.17" y="945.05" width="4.83" height="1.72" class="down-body"/>
<line x1="1054.01" y1="955.31" x2="1054.01" y2="968.08" class="down-wick"/>
<rect x="1051.59" y="955.81" width="4.83" height="6.31" class="down-body"/>
<line x1="1061.43" y1="957.96" x2="1061.43" y2="969.87" class="down-wick"/>
<rect x="1059.02" y="960.62" width="4.83" height="6.39" class="down-body"/>
<line x1="1068.86" y1="921.80" x2="1068.86" y2="946.05" class="up-wick"/>
<rect x="1066.45" y="923.81" width="4.83" height="22.17" class="up-body"/>
<line x1="1076.29" y1="902.79" x2="1076.29" y2="918.50" class="up-wick"/>
<rect x="1073.87" y="909.61" width="4.83" height="8.25" class="up-body"/>
<line x1="70" y1="918.36" x2="1080" y2="918.36" class="number-line"/>
<text x="1076" y="914.36" text-anchor="end" class="level-label">round 4700.00</text>
<line x1="70" y1="918.36" x2="1080" y2="918.36" class="entry-line"/>
<text x="1076" y="914.36" text-anchor="end" class="level-label">entry level 4700.00</text>
<text x="70" y="1056" class="axis-label">2026-05-12 10:00:00+00:00 to 2026-05-12 14:30:00+00:00</text>
<text x="1080" y="1056" text-anchor="end" class="axis-label">4683.32 - 4710.09</text>
</svg>