<svg xmlns="http://www.w3.org/2000/svg" width="1120" height="1054" viewBox="0 0 1120 1054">
<style>
text{font-family:Arial,Helvetica,sans-serif}.title{font-size:21px;font-weight:700;fill:#1f2937}.subtitle{font-size:12px;fill:#4b5563}.panel-title{font-size:15px;font-weight:700;fill:#111827}.muted{font-size:13px;fill:#6b7280}.plot-bg{fill:#f8fafc;stroke:#cbd5e1;stroke-width:1}.up-body{fill:#15803d;stroke:#14532d;stroke-width:.8}.down-body{fill:#b91c1c;stroke:#7f1d1d;stroke-width:.8}.up-wick{stroke:#14532d;stroke-width:1}.down-wick{stroke:#7f1d1d;stroke-width:1}.sweep-line{stroke:#7c3aed;stroke-width:1.6;stroke-dasharray:6 4}.number-line{stroke:#0f766e;stroke-width:1.4;stroke-dasharray:3 4}.entry-line{stroke:#2563eb;stroke-width:1.4}.sl-line{stroke:#dc2626;stroke-width:1.4}.tp-line{stroke:#16a34a;stroke-width:1.4}.level-label,.axis-label{font-size:11px;fill:#374151}
</style>
<text x="28" y="28" class="title">Adelin v2 visual review sample sample_241</text>
<text x="28" y="48" class="subtitle">Candidate windows are for visual labeling only and are not trade signals.</text>
<text x="560" y="48" class="subtitle" text-anchor="middle">NUMBER_THEORY_LEVEL_NEAR | ROUND_LEVEL_ENTRY_METADATA_AVAILABLE</text>
<text x="70" y="82" class="panel-title">H1 liquidity context</text>
<rect x="70" y="96" width="1010" height="192" class="plot-bg"/>
<line x1="81.48" y1="212.08" x2="81.48" y2="229.47" class="down-wick"/>
<rect x="77.48" y="222.59" width="8.00" height="1.00" class="down-body"/>
<line x1="104.43" y1="209.77" x2="104.43" y2="227.12" class="up-wick"/>
<rect x="100.43" y="210.81" width="8.00" height="12.54" class="up-body"/>
<line x1="127.39" y1="205.42" x2="127.39" y2="217.16" class="down-wick"/>
<rect x="123.39" y="210.81" width="8.00" height="6.03" class="down-body"/>
<line x1="150.34" y1="212.97" x2="150.34" y2="225.62" class="down-wick"/>
<rect x="146.34" y="216.84" width="8.00" height="3.26" class="down-body"/>
<line x1="173.30" y1="193.56" x2="173.30" y2="224.21" class="up-wick"/>
<rect x="169.30" y="207.35" width="8.00" height="12.74" class="up-body"/>
<line x1="196.25" y1="154.75" x2="196.25" y2="208.94" class="up-wick"/>
<rect x="192.25" y="156.15" width="8.00" height="51.21" class="up-body"/>
<line x1="219.20" y1="109.24" x2="219.20" y2="168.58" class="up-wick"/>
<rect x="215.20" y="119.36" width="8.00" height="36.79" class="up-body"/>
<line x1="242.16" y1="113.75" x2="242.16" y2="140.49" class="down-wick"/>
<rect x="238.16" y="119.32" width="8.00" height="8.02" class="down-body"/>
<line x1="265.11" y1="119.10" x2="265.11" y2="147.09" class="down-wick"/>
<rect x="261.11" y="127.31" width="8.00" height="5.87" class="down-body"/>
<line x1="288.07" y1="126.72" x2="288.07" y2="137.47" class="down-wick"/>
<rect x="284.07" y="133.18" width="8.00" height="1.00" class="down-body"/>
<line x1="311.02" y1="130.99" x2="311.02" y2="148.22" class="down-wick"/>
<rect x="307.02" y="133.81" width="8.00" height="4.70" class="down-body"/>
<line x1="333.98" y1="132.59" x2="333.98" y2="145.79" class="down-wick"/>
<rect x="329.98" y="138.52" width="8.00" height="4.74" class="down-body"/>
<line x1="356.93" y1="139.98" x2="356.93" y2="149.27" class="down-wick"/>
<rect x="352.93" y="143.27" width="8.00" height="4.12" class="down-body"/>
<line x1="379.89" y1="211.49" x2="379.89" y2="251.95" class="up-wick"/>
<rect x="375.89" y="228.76" width="8.00" height="9.44" class="up-body"/>
<line x1="402.84" y1="228.67" x2="402.84" y2="274.76" class="down-wick"/>
<rect x="398.84" y="228.76" width="8.00" height="26.31" class="down-body"/>
<line x1="425.80" y1="234.25" x2="425.80" y2="266.36" class="up-wick"/>
<rect x="421.80" y="236.23" width="8.00" height="18.84" class="up-body"/>
<line x1="448.75" y1="190.75" x2="448.75" y2="237.42" class="up-wick"/>
<rect x="444.75" y="198.01" width="8.00" height="38.22" class="up-body"/>
<line x1="471.70" y1="196.56" x2="471.70" y2="213.81" class="down-wick"/>
<rect x="467.70" y="198.01" width="8.00" height="11.25" class="down-body"/>
<line x1="494.66" y1="208.09" x2="494.66" y2="218.60" class="down-wick"/>
<rect x="490.66" y="209.26" width="8.00" height="7.08" class="down-body"/>
<line x1="517.61" y1="211.11" x2="517.61" y2="220.40" class="down-wick"/>
<rect x="513.61" y="216.09" width="8.00" height="2.44" class="down-body"/>
<line x1="540.57" y1="210.68" x2="540.57" y2="228.47" class="up-wick"/>
<rect x="536.57" y="216.36" width="8.00" height="2.15" class="up-body"/>
<line x1="563.52" y1="211.37" x2="563.52" y2="223.81" class="up-wick"/>
<rect x="559.52" y="211.37" width="8.00" height="4.99" class="up-body"/>
<line x1="586.48" y1="200.18" x2="586.48" y2="220.66" class="down-wick"/>
<rect x="582.48" y="211.38" width="8.00" height="6.16" class="down-body"/>
<line x1="609.43" y1="210.51" x2="609.43" y2="221.44" class="up-wick"/>
<rect x="605.43" y="210.55" width="8.00" height="6.99" class="up-body"/>
<line x1="632.39" y1="208.71" x2="632.39" y2="224.26" class="down-wick"/>
<rect x="628.39" y="210.55" width="8.00" height="4.90" class="down-body"/>
<line x1="655.34" y1="205.33" x2="655.34" y2="217.27" class="up-wick"/>
<rect x="651.34" y="210.94" width="8.00" height="4.51" class="up-body"/>
<line x1="678.30" y1="194.66" x2="678.30" y2="220.92" class="up-wick"/>
<rect x="674.30" y="195.03" width="8.00" height="15.91" class="up-body"/>
<line x1="701.25" y1="182.47" x2="701.25" y2="207.29" class="down-wick"/>
<rect x="697.25" y="195.03" width="8.00" height="7.63" class="down-body"/>
<line x1="724.20" y1="177.90" x2="724.20" y2="206.78" class="up-wick"/>
<rect x="720.20" y="186.95" width="8.00" height="15.69" class="up-body"/>
<line x1="747.16" y1="176.47" x2="747.16" y2="214.44" class="down-wick"/>
<rect x="743.16" y="186.95" width="8.00" height="13.61" class="down-body"/>
<line x1="770.11" y1="196.11" x2="770.11" y2="214.03" class="down-wick"/>
<rect x="766.11" y="200.57" width="8.00" height="6.18" class="down-body"/>
<line x1="793.07" y1="199.51" x2="793.07" y2="214.16" class="up-wick"/>
<rect x="789.07" y="200.41" width="8.00" height="6.33" class="up-body"/>
<line x1="816.02" y1="193.22" x2="816.02" y2="202.17" class="up-wick"/>
<rect x="812.02" y="199.09" width="8.00" height="1.31" class="up-body"/>
<line x1="838.98" y1="188.44" x2="838.98" y2="199.09" class="up-wick"/>
<rect x="834.98" y="191.14" width="8.00" height="7.96" class="up-body"/>
<line x1="861.93" y1="183.23" x2="861.93" y2="194.93" class="up-wick"/>
<rect x="857.93" y="190.90" width="8.00" height="1.00" class="up-body"/>
<line x1="884.89" y1="170.37" x2="884.89" y2="184.60" class="up-wick"/>
<rect x="880.89" y="176.46" width="8.00" height="7.94" class="up-body"/>
<line x1="907.84" y1="172.04" x2="907.84" y2="185.00" class="down-wick"/>
<rect x="903.84" y="176.46" width="8.00" height="6.37" class="down-body"/>
<line x1="930.80" y1="173.07" x2="930.80" y2="188.09" class="up-wick"/>
<rect x="926.80" y="180.42" width="8.00" height="2.29" class="up-body"/>
<line x1="953.75" y1="179.75" x2="953.75" y2="200.17" class="down-wick"/>
<rect x="949.75" y="180.42" width="8.00" height="14.90" class="down-body"/>
<line x1="976.70" y1="195.11" x2="976.70" y2="203.72" class="down-wick"/>
<rect x="972.70" y="195.33" width="8.00" height="3.63" class="down-body"/>
<line x1="999.66" y1="198.05" x2="999.66" y2="214.46" class="down-wick"/>
<rect x="995.66" y="198.96" width="8.00" height="10.56" class="down-body"/>
<line x1="1022.61" y1="208.81" x2="1022.61" y2="218.68" class="down-wick"/>
<rect x="1018.61" y="209.52" width="8.00" height="8.68" class="down-body"/>
<line x1="1045.57" y1="209.65" x2="1045.57" y2="224.53" class="down-wick"/>
<rect x="1041.57" y="218.20" width="8.00" height="5.34" class="down-body"/>
<line x1="1068.52" y1="216.54" x2="1068.52" y2="233.98" class="down-wick"/>
<rect x="1064.52" y="223.55" width="8.00" height="5.86" class="down-body"/>
<line x1="70" y1="217.24" x2="1080" y2="217.24" class="number-line"/>
<text x="1076" y="213.24" text-anchor="end" class="level-label">round 4790.00</text>
<line x1="70" y1="217.24" x2="1080" y2="217.24" class="entry-line"/>
<text x="1076" y="213.24" text-anchor="end" class="level-label">entry level 4790.00</text>
<text x="70" y="306" class="axis-label">2026-04-17 10:00:00+00:00 to 2026-04-21 09:00:00+00:00</text>
<text x="1080" y="306" text-anchor="end" class="axis-label">4724.71 - 4901.86</text>
<text x="70" y="332" class="panel-title">M15 liquidity / reaction context</text>
<rect x="70" y="346" width="1010" height="192" class="plot-bg"/>
<line x1="78.56" y1="412.66" x2="78.56" y2="483.86" class="up-wick"/>
<rect x="74.56" y="421.04" width="8.00" height="38.16" class="up-body"/>
<line x1="95.68" y1="411.30" x2="95.68" y2="433.13" class="down-wick"/>
<rect x="91.68" y="421.13" width="8.00" height="9.74" class="down-body"/>
<line x1="112.80" y1="419.87" x2="112.80" y2="442.15" class="down-wick"/>
<rect x="108.80" y="430.81" width="8.00" height="8.98" class="down-body"/>
<line x1="129.92" y1="427.61" x2="129.92" y2="444.85" class="down-wick"/>
<rect x="125.92" y="439.77" width="8.00" height="2.49" class="down-body"/>
<line x1="147.03" y1="442.11" x2="147.03" y2="456.55" class="down-wick"/>
<rect x="143.03" y="442.26" width="8.00" height="13.41" class="down-body"/>
<line x1="164.15" y1="449.09" x2="164.15" y2="464.23" class="down-wick"/>
<rect x="160.15" y="455.67" width="8.00" height="6.55" class="down-body"/>
<line x1="181.27" y1="453.87" x2="181.27" y2="507.30" class="down-wick"/>
<rect x="177.27" y="462.23" width="8.00" height="33.86" class="down-body"/>
<line x1="198.39" y1="489.01" x2="198.39" y2="524.76" class="up-wick"/>
<rect x="194.39" y="489.44" width="8.00" height="6.16" class="up-body"/>
<line x1="215.51" y1="489.03" x2="215.51" y2="509.69" class="down-wick"/>
<rect x="211.51" y="489.44" width="8.00" height="5.42" class="down-body"/>
<line x1="232.63" y1="468.37" x2="232.63" y2="495.47" class="up-wick"/>
<rect x="228.63" y="469.40" width="8.00" height="25.46" class="up-body"/>
<line x1="249.75" y1="464.11" x2="249.75" y2="477.74" class="down-wick"/>
<rect x="245.75" y="469.40" width="8.00" height="2.47" class="down-body"/>
<line x1="266.86" y1="452.12" x2="266.86" y2="480.91" class="up-wick"/>
<rect x="262.86" y="455.66" width="8.00" height="16.21" class="up-body"/>
<line x1="283.98" y1="412.85" x2="283.98" y2="457.79" class="up-wick"/>
<rect x="279.98" y="414.35" width="8.00" height="41.31" class="up-body"/>
<line x1="301.10" y1="394.97" x2="301.10" y2="424.42" class="up-wick"/>
<rect x="297.10" y="396.76" width="8.00" height="17.59" class="up-body"/>
<line x1="318.22" y1="378.23" x2="318.22" y2="399.61" class="up-wick"/>
<rect x="314.22" y="388.88" width="8.00" height="7.87" class="up-body"/>
<line x1="335.34" y1="374.09" x2="335.34" y2="390.61" class="up-wick"/>
<rect x="331.34" y="387.12" width="8.00" height="2.18" class="up-body"/>
<line x1="352.46" y1="384.51" x2="352.46" y2="400.88" class="down-wick"/>
<rect x="348.46" y="387.12" width="8.00" height="13.28" class="down-body"/>
<line x1="369.58" y1="394.83" x2="369.58" y2="405.39" class="down-wick"/>
<rect x="365.58" y="400.39" width="8.00" height="1.36" class="down-body"/>
<line x1="386.69" y1="398.31" x2="386.69" y2="412.31" class="down-wick"/>
<rect x="382.69" y="401.81" width="8.00" height="7.74" class="down-body"/>
<line x1="403.81" y1="406.96" x2="403.81" y2="415.46" class="up-wick"/>
<rect x="399.81" y="407.29" width="8.00" height="2.25" class="up-body"/>
<line x1="420.93" y1="405.19" x2="420.93" y2="420.61" class="down-wick"/>
<rect x="416.93" y="407.29" width="8.00" height="11.24" class="down-body"/>
<line x1="438.05" y1="410.09" x2="438.05" y2="424.05" class="up-wick"/>
<rect x="434.05" y="411.55" width="8.00" height="6.98" class="up-body"/>
<line x1="455.17" y1="408.46" x2="455.17" y2="421.54" class="down-wick"/>
<rect x="451.17" y="411.53" width="8.00" height="2.95" class="down-body"/>
<line x1="472.29" y1="412.60" x2="472.29" y2="423.41" class="down-wick"/>
<rect x="468.29" y="414.49" width="8.00" height="5.50" class="down-body"/>
<line x1="489.41" y1="410.62" x2="489.41" y2="419.68" class="up-wick"/>
<rect x="485.41" y="416.04" width="8.00" height="3.50" class="up-body"/>
<line x1="506.53" y1="410.62" x2="506.53" y2="418.47" class="up-wick"/>
<rect x="502.53" y="412.76" width="8.00" height="3.29" class="up-body"/>
<line x1="523.64" y1="412.58" x2="523.64" y2="427.28" class="down-wick"/>
<rect x="519.64" y="412.60" width="8.00" height="14.27" class="down-body"/>
<line x1="540.76" y1="415.26" x2="540.76" y2="426.98" class="up-wick"/>
<rect x="536.76" y="423.91" width="8.00" height="2.95" class="up-body"/>
<line x1="557.88" y1="415.77" x2="557.88" y2="432.45" class="down-wick"/>
<rect x="553.88" y="423.87" width="8.00" height="4.47" class="down-body"/>
<line x1="575.00" y1="422.40" x2="575.00" y2="430.79" class="up-wick"/>
<rect x="571.00" y="425.62" width="8.00" height="2.72" class="up-body"/>
<line x1="592.12" y1="409.84" x2="592.12" y2="441.74" class="down-wick"/>
<rect x="588.12" y="425.62" width="8.00" height="14.00" class="down-body"/>
<line x1="609.24" y1="415.55" x2="609.24" y2="439.62" class="up-wick"/>
<rect x="605.24" y="420.02" width="8.00" height="19.59" class="up-body"/>
<line x1="626.36" y1="413.80" x2="626.36" y2="430.23" class="down-wick"/>
<rect x="622.36" y="420.02" width="8.00" height="1.00" class="down-body"/>
<line x1="643.47" y1="420.37" x2="643.47" y2="433.38" class="down-wick"/>
<rect x="639.47" y="420.47" width="8.00" height="8.61" class="down-body"/>
<line x1="660.59" y1="417.61" x2="660.59" y2="430.19" class="up-wick"/>
<rect x="656.59" y="421.29" width="8.00" height="7.79" class="up-body"/>
<line x1="677.71" y1="411.08" x2="677.71" y2="430.25" class="up-wick"/>
<rect x="673.71" y="411.08" width="8.00" height="10.21" class="up-body"/>
<line x1="694.83" y1="399.17" x2="694.83" y2="413.80" class="up-wick"/>
<rect x="690.83" y="407.18" width="8.00" height="3.93" class="up-body"/>
<line x1="711.95" y1="391.00" x2="711.95" y2="413.32" class="up-wick"/>
<rect x="707.95" y="406.34" width="8.00" height="1.00" class="up-body"/>
<line x1="729.07" y1="404.53" x2="729.07" y2="421.27" class="down-wick"/>
<rect x="725.07" y="406.34" width="8.00" height="1.00" class="down-body"/>
<line x1="746.19" y1="406.67" x2="746.19" y2="427.74" class="down-wick"/>
<rect x="742.19" y="406.67" width="8.00" height="15.47" class="down-body"/>
<line x1="763.31" y1="418.14" x2="763.31" y2="429.14" class="down-wick"/>
<rect x="759.31" y="422.14" width="8.00" height="1.13" class="down-body"/>
<line x1="780.42" y1="416.74" x2="780.42" y2="428.69" class="up-wick"/>
<rect x="776.42" y="417.69" width="8.00" height="5.60" class="up-body"/>
<line x1="797.54" y1="416.80" x2="797.54" y2="424.30" class="up-wick"/>
<rect x="793.54" y="417.05" width="8.00" height="1.00" class="up-body"/>
<line x1="814.66" y1="409.53" x2="814.66" y2="417.48" class="up-wick"/>
<rect x="810.66" y="409.61" width="8.00" height="7.46" class="up-body"/>
<line x1="831.78" y1="406.30" x2="831.78" y2="414.93" class="down-wick"/>
<rect x="827.78" y="409.61" width="8.00" height="1.00" class="down-body"/>
<line x1="848.90" y1="410.29" x2="848.90" y2="418.29" class="down-wick"/>
<rect x="844.90" y="410.40" width="8.00" height="6.71" class="down-body"/>
<line x1="866.02" y1="413.24" x2="866.02" y2="434.20" class="down-wick"/>
<rect x="862.02" y="417.09" width="8.00" height="1.00" class="down-body"/>
<line x1="883.14" y1="407.86" x2="883.14" y2="423.15" class="down-wick"/>
<rect x="879.14" y="417.79" width="8.00" height="1.00" class="down-body"/>
<line x1="900.25" y1="403.02" x2="900.25" y2="421.66" class="up-wick"/>
<rect x="896.25" y="410.38" width="8.00" height="8.01" class="up-body"/>
<line x1="917.37" y1="400.24" x2="917.37" y2="411.63" class="up-wick"/>
<rect x="913.37" y="405.62" width="8.00" height="4.76" class="up-body"/>
<line x1="934.49" y1="401.93" x2="934.49" y2="411.94" class="down-wick"/>
<rect x="930.49" y="405.60" width="8.00" height="6.30" class="down-body"/>
<line x1="951.61" y1="407.57" x2="951.61" y2="412.81" class="up-wick"/>
<rect x="947.61" y="410.31" width="8.00" height="1.59" class="up-body"/>
<line x1="968.73" y1="409.37" x2="968.73" y2="427.49" class="down-wick"/>
<rect x="964.73" y="410.31" width="8.00" height="11.64" class="down-body"/>
<line x1="985.85" y1="419.40" x2="985.85" y2="428.21" class="down-wick"/>
<rect x="981.85" y="421.95" width="8.00" height="2.55" class="down-body"/>
<line x1="1002.97" y1="412.27" x2="1002.97" y2="425.88" class="up-wick"/>
<rect x="998.97" y="412.27" width="8.00" height="12.23" class="up-body"/>
<line x1="1020.08" y1="381.11" x2="1020.08" y2="412.35" class="up-wick"/>
<rect x="1016.08" y="381.77" width="8.00" height="30.50" class="up-body"/>
<line x1="1037.20" y1="376.74" x2="1037.20" y2="396.49" class="up-wick"/>
<rect x="1033.20" y="380.57" width="8.00" height="1.21" class="up-body"/>
<line x1="1054.32" y1="359.24" x2="1054.32" y2="394.04" class="down-wick"/>
<rect x="1050.32" y="380.57" width="8.00" height="10.24" class="down-body"/>
<line x1="1071.44" y1="383.75" x2="1071.44" y2="403.76" class="up-wick"/>
<rect x="1067.44" y="390.25" width="8.00" height="1.00" class="up-body"/>
<line x1="70" y1="421.60" x2="1080" y2="421.60" class="number-line"/>
<text x="1076" y="417.60" text-anchor="end" class="level-label">round 4790.00</text>
<line x1="70" y1="421.60" x2="1080" y2="421.60" class="entry-line"/>
<text x="1076" y="417.60" text-anchor="end" class="level-label">entry level 4790.00</text>
<text x="70" y="556" class="axis-label">2026-04-20 01:00:00+00:00 to 2026-04-20 15:30:00+00:00</text>
<text x="1080" y="556" text-anchor="end" class="axis-label">4730.12 - 4828.89</text>
<text x="70" y="582" class="panel-title">M5 reaction / execution context</text>
<rect x="70" y="596" width="1010" height="192" class="plot-bg"/>
<line x1="79.18" y1="690.03" x2="79.18" y2="725.42" class="up-wick"/>
<rect x="75.18" y="708.42" width="8.00" height="8.05" class="up-body"/>
<line x1="97.55" y1="699.80" x2="97.55" y2="731.64" class="down-wick"/>
<rect x="93.55" y="708.42" width="8.00" height="19.60" class="down-body"/>
<line x1="115.91" y1="717.43" x2="115.91" y2="744.45" class="down-wick"/>
<rect x="111.91" y="728.02" width="8.00" height="3.04" class="down-body"/>
<line x1="134.27" y1="711.66" x2="134.27" y2="731.19" class="up-wick"/>
<rect x="130.27" y="722.88" width="8.00" height="8.18" class="up-body"/>
<line x1="152.64" y1="716.80" x2="152.64" y2="731.89" class="down-wick"/>
<rect x="148.64" y="722.88" width="8.00" height="2.79" class="down-body"/>
<line x1="171.00" y1="715.15" x2="171.00" y2="739.06" class="up-wick"/>
<rect x="167.00" y="722.19" width="8.00" height="3.61" class="up-body"/>
<line x1="189.36" y1="670.69" x2="189.36" y2="723.84" class="up-wick"/>
<rect x="185.36" y="679.13" width="8.00" height="43.06" class="up-body"/>
<line x1="207.73" y1="671.77" x2="207.73" y2="694.73" class="down-wick"/>
<rect x="203.73" y="679.13" width="8.00" height="13.38" class="down-body"/>
<line x1="226.09" y1="682.23" x2="226.09" y2="774.76" class="down-wick"/>
<rect x="222.09" y="692.51" width="8.00" height="75.34" class="down-body"/>
<line x1="244.45" y1="735.06" x2="244.45" y2="767.85" class="up-wick"/>
<rect x="240.45" y="736.46" width="8.00" height="31.39" class="up-body"/>
<line x1="262.82" y1="700.31" x2="262.82" y2="754.91" class="up-wick"/>
<rect x="258.82" y="705.57" width="8.00" height="30.06" class="up-body"/>
<line x1="281.18" y1="689.34" x2="281.18" y2="712.29" class="up-wick"/>
<rect x="277.18" y="703.92" width="8.00" height="1.65" class="up-body"/>
<line x1="299.55" y1="683.63" x2="299.55" y2="737.22" class="down-wick"/>
<rect x="295.55" y="703.92" width="8.00" height="1.97" class="down-body"/>
<line x1="317.91" y1="696.38" x2="317.91" y2="718.83" class="up-wick"/>
<rect x="313.91" y="698.72" width="8.00" height="7.29" class="up-body"/>
<line x1="336.27" y1="684.39" x2="336.27" y2="711.66" class="down-wick"/>
<rect x="332.27" y="698.72" width="8.00" height="6.66" class="down-body"/>
<line x1="354.64" y1="705.06" x2="354.64" y2="726.82" class="down-wick"/>
<rect x="350.64" y="705.38" width="8.00" height="19.47" class="down-body"/>
<line x1="373.00" y1="719.46" x2="373.00" y2="747.05" class="down-wick"/>
<rect x="369.00" y="724.85" width="8.00" height="1.84" class="down-body"/>
<line x1="391.36" y1="721.49" x2="391.36" y2="747.49" class="down-wick"/>
<rect x="387.36" y="726.69" width="8.00" height="6.79" class="down-body"/>
<line x1="409.73" y1="696.06" x2="409.73" y2="737.09" class="up-wick"/>
<rect x="405.73" y="727.01" width="8.00" height="6.47" class="up-body"/>
<line x1="428.09" y1="705.63" x2="428.09" y2="732.40" class="up-wick"/>
<rect x="424.09" y="706.84" width="8.00" height="20.17" class="up-body"/>
<line x1="446.45" y1="702.40" x2="446.45" y2="726.31" class="down-wick"/>
<rect x="442.45" y="706.84" width="8.00" height="1.20" class="down-body"/>
<line x1="464.82" y1="707.92" x2="464.82" y2="734.93" class="down-wick"/>
<rect x="460.82" y="708.04" width="8.00" height="16.93" class="down-body"/>
<line x1="483.18" y1="715.59" x2="483.18" y2="737.28" class="down-wick"/>
<rect x="479.18" y="724.98" width="8.00" height="2.54" class="down-body"/>
<line x1="501.55" y1="674.75" x2="501.55" y2="730.11" class="up-wick"/>
<rect x="497.55" y="674.75" width="8.00" height="52.57" class="up-body"/>
<line x1="519.91" y1="635.88" x2="519.91" y2="678.68" class="up-wick"/>
<rect x="515.91" y="658.83" width="8.00" height="15.98" class="up-body"/>
<line x1="538.27" y1="653.82" x2="538.27" y2="682.99" class="down-wick"/>
<rect x="534.27" y="659.85" width="8.00" height="11.61" class="down-body"/>
<line x1="556.64" y1="660.55" x2="556.64" y2="683.63" class="up-wick"/>
<rect x="552.64" y="662.00" width="8.00" height="9.45" class="up-body"/>
<line x1="575.00" y1="620.47" x2="575.00" y2="682.04" class="up-wick"/>
<rect x="571.00" y="628.33" width="8.00" height="33.67" class="up-body"/>
<line x1="593.36" y1="609.24" x2="593.36" y2="637.33" class="down-wick"/>
<rect x="589.36" y="628.33" width="8.00" height="6.15" class="down-body"/>
<line x1="611.73" y1="633.09" x2="611.73" y2="667.20" class="down-wick"/>
<rect x="607.73" y="634.48" width="8.00" height="24.80" class="down-body"/>
<line x1="630.09" y1="654.14" x2="630.09" y2="704.56" class="down-wick"/>
<rect x="626.09" y="659.28" width="8.00" height="21.12" class="down-body"/>
<line x1="648.45" y1="666.76" x2="648.45" y2="707.98" class="up-wick"/>
<rect x="644.45" y="669.68" width="8.00" height="10.72" class="up-body"/>
<line x1="666.82" y1="653.38" x2="666.82" y2="678.49" class="up-wick"/>
<rect x="662.82" y="660.36" width="8.00" height="9.32" class="up-body"/>
<line x1="685.18" y1="660.36" x2="685.18" y2="693.01" class="down-wick"/>
<rect x="681.18" y="660.36" width="8.00" height="31.71" class="down-body"/>
<line x1="703.55" y1="683.50" x2="703.55" y2="720.47" class="down-wick"/>
<rect x="699.55" y="692.19" width="8.00" height="28.16" class="down-body"/>
<line x1="721.91" y1="701.83" x2="721.91" y2="729.10" class="up-wick"/>
<rect x="717.91" y="710.83" width="8.00" height="9.77" class="up-body"/>
<line x1="740.27" y1="702.46" x2="740.27" y2="733.66" class="down-wick"/>
<rect x="736.27" y="710.83" width="8.00" height="6.53" class="down-body"/>
<line x1="758.64" y1="701.32" x2="758.64" y2="728.34" class="down-wick"/>
<rect x="754.64" y="717.37" width="8.00" height="1.84" class="down-body"/>
<line x1="777.00" y1="697.77" x2="777.00" y2="722.31" class="up-wick"/>
<rect x="773.00" y="714.51" width="8.00" height="4.69" class="up-body"/>
<line x1="795.36" y1="712.61" x2="795.36" y2="732.21" class="down-wick"/>
<rect x="791.36" y="714.58" width="8.00" height="3.36" class="down-body"/>
<line x1="813.73" y1="700.24" x2="813.73" y2="727.39" class="up-wick"/>
<rect x="809.73" y="716.92" width="8.00" height="1.01" class="up-body"/>
<line x1="832.09" y1="693.20" x2="832.09" y2="718.51" class="up-wick"/>
<rect x="828.09" y="696.31" width="8.00" height="20.61" class="up-body"/>
<line x1="850.45" y1="693.40" x2="850.45" y2="715.84" class="down-wick"/>
<rect x="846.45" y="696.31" width="8.00" height="11.99" class="down-body"/>
<line x1="868.82" y1="703.29" x2="868.82" y2="717.87" class="down-wick"/>
<rect x="864.82" y="708.36" width="8.00" height="3.11" class="down-body"/>
<line x1="887.18" y1="693.46" x2="887.18" y2="715.65" class="up-wick"/>
<rect x="883.18" y="694.22" width="8.00" height="17.25" class="up-body"/>
<line x1="905.55" y1="676.91" x2="905.55" y2="695.61" class="up-wick"/>
<rect x="901.55" y="680.46" width="8.00" height="13.82" class="up-body"/>
<line x1="923.91" y1="670.12" x2="923.91" y2="688.58" class="down-wick"/>
<rect x="919.91" y="680.46" width="8.00" height="4.76" class="down-body"/>
<line x1="942.27" y1="669.68" x2="942.27" y2="692.38" class="up-wick"/>
<rect x="938.27" y="669.93" width="8.00" height="15.28" class="up-body"/>
<line x1="960.64" y1="660.42" x2="960.64" y2="687.31" class="down-wick"/>
<rect x="956.64" y="669.93" width="8.00" height="4.19" class="down-body"/>
<line x1="979.00" y1="659.15" x2="979.00" y2="686.67" class="down-wick"/>
<rect x="975.00" y="674.12" width="8.00" height="2.79" class="down-body"/>
<line x1="997.36" y1="661.88" x2="997.36" y2="682.74" class="up-wick"/>
<rect x="993.36" y="672.28" width="8.00" height="4.63" class="up-body"/>
<line x1="1015.73" y1="672.15" x2="1015.73" y2="695.68" class="down-wick"/>
<rect x="1011.73" y="672.53" width="8.00" height="7.61" class="down-body"/>
<line x1="1034.09" y1="672.40" x2="1034.09" y2="687.43" class="down-wick"/>
<rect x="1030.09" y="680.20" width="8.00" height="6.60" class="down-body"/>
<line x1="1052.45" y1="685.40" x2="1052.45" y2="698.28" class="down-wick"/>
<rect x="1048.45" y="686.86" width="8.00" height="7.55" class="down-body"/>
<line x1="1070.82" y1="681.79" x2="1070.82" y2="750.15" class="down-wick"/>
<rect x="1066.82" y="694.35" width="8.00" height="39.06" class="down-body"/>
<line x1="70" y1="709.06" x2="1080" y2="709.06" class="number-line"/>
<text x="1076" y="705.06" text-anchor="end" class="level-label">round 4790.00</text>
<line x1="70" y1="709.06" x2="1080" y2="709.06" class="entry-line"/>
<text x="1076" y="705.06" text-anchor="end" class="level-label">entry level 4790.00</text>
<text x="70" y="806" class="axis-label">2026-04-20 08:00:00+00:00 to 2026-04-20 12:30:00+00:00</text>
<text x="1080" y="806" text-anchor="end" class="axis-label">4777.55 - 4807.83</text>
<text x="70" y="832" class="panel-title">M1 execution window</text>
<rect x="70" y="846" width="1010" height="192" class="plot-bg"/>
<line x1="73.71" y1="951.64" x2="73.71" y2="966.61" class="up-wick"/>
<rect x="71.30" y="953.86" width="4.83" height="12.62" class="up-body"/>
<line x1="81.14" y1="957.73" x2="81.14" y2="965.40" class="up-wick"/>
<rect x="78.73" y="958.23" width="4.83" height="3.74" class="up-body"/>
<line x1="88.57" y1="955.57" x2="88.57" y2="965.46" class="up-wick"/>
<rect x="86.15" y="958.42" width="4.83" height="7.04" class="up-body"/>
<line x1="95.99" y1="966.92" x2="95.99" y2="981.64" class="down-wick"/>
<rect x="93.58" y="970.22" width="4.83" height="10.34" class="down-body"/>
<line x1="103.42" y1="964.51" x2="103.42" y2="970.16" class="up-wick"/>
<rect x="101.01" y="968.32" width="4.83" height="1.84" class="up-body"/>
<line x1="110.85" y1="967.43" x2="110.85" y2="979.35" class="up-wick"/>
<rect x="108.43" y="969.90" width="4.83" height="8.12" class="up-body"/>
<line x1="118.27" y1="982.33" x2="118.27" y2="990.39" class="down-wick"/>
<rect x="115.86" y="987.41" width="4.83" height="2.98" class="down-body"/>
<line x1="125.70" y1="979.29" x2="125.70" y2="992.48" class="up-wick"/>
<rect x="123.28" y="981.06" width="4.83" height="11.16" class="up-body"/>
<line x1="133.12" y1="970.41" x2="133.12" y2="978.78" class="up-wick"/>
<rect x="130.71" y="974.03" width="4.83" height="4.76" class="up-body"/>
<line x1="140.55" y1="961.85" x2="140.55" y2="971.55" class="up-wick"/>
<rect x="138.14" y="966.23" width="4.83" height="1.00" class="up-body"/>
<line x1="147.98" y1="966.80" x2="147.98" y2="977.32" class="down-wick"/>
<rect x="145.56" y="972.88" width="4.83" height="1.59" class="down-body"/>
<line x1="155.40" y1="966.92" x2="155.40" y2="981.83" class="up-wick"/>
<rect x="152.99" y="969.46" width="4.83" height="10.59" class="up-body"/>
<line x1="162.83" y1="971.17" x2="162.83" y2="976.50" class="down-wick"/>
<rect x="160.42" y="973.90" width="4.83" height="1.78" class="down-body"/>
<line x1="170.26" y1="974.03" x2="170.26" y2="989.06" class="down-wick"/>
<rect x="167.84" y="975.93" width="4.83" height="7.36" class="down-body"/>
<line x1="177.68" y1="965.15" x2="177.68" y2="978.72" class="up-wick"/>
<rect x="175.27" y="966.35" width="4.83" height="12.30" class="up-body"/>
<line x1="185.11" y1="939.15" x2="185.11" y2="973.84" class="up-wick"/>
<rect x="182.70" y="945.68" width="4.83" height="26.51" class="up-body"/>
<line x1="192.54" y1="922.98" x2="192.54" y2="936.55" class="down-wick"/>
<rect x="190.12" y="926.46" width="4.83" height="1.52" class="down-body"/>
<line x1="199.96" y1="924.94" x2="199.96" y2="942.25" class="down-wick"/>
<rect x="197.55" y="928.30" width="4.83" height="1.00" class="down-body"/>
<line x1="207.39" y1="928.05" x2="207.39" y2="940.29" class="up-wick"/>
<rect x="204.98" y="931.92" width="4.83" height="8.18" class="up-body"/>
<line x1="214.82" y1="921.77" x2="214.82" y2="939.27" class="down-wick"/>
<rect x="212.40" y="925.00" width="4.83" height="12.05" class="down-body"/>
<line x1="222.24" y1="932.23" x2="222.24" y2="949.93" class="down-wick"/>
<rect x="219.83" y="942.51" width="4.83" height="5.96" class="down-body"/>
<line x1="229.67" y1="961.28" x2="229.67" y2="997.17" class="down-wick"/>
<rect x="227.26" y="966.23" width="4.83" height="27.14" class="down-body"/>
<line x1="237.10" y1="992.80" x2="237.10" y2="1024.76" class="down-wick"/>
<rect x="234.68" y="1000.91" width="4.83" height="16.93" class="down-body"/>
<line x1="244.52" y1="987.53" x2="244.52" y2="1008.65" class="down-wick"/>
<rect x="242.11" y="996.41" width="4.83" height="12.24" class="down-body"/>
<line x1="251.95" y1="993.68" x2="251.95" y2="1004.40" class="up-wick"/>
<rect x="249.53" y="994.07" width="4.83" height="5.01" class="up-body"/>
<line x1="259.38" y1="985.63" x2="259.38" y2="1000.79" class="down-wick"/>
<rect x="256.96" y="985.63" width="4.83" height="4.00" class="down-body"/>
<line x1="266.80" y1="991.53" x2="266.80" y2="1002.75" class="down-wick"/>
<rect x="264.39" y="993.05" width="4.83" height="6.72" class="down-body"/>
<line x1="274.23" y1="950.31" x2="274.23" y2="986.65" class="up-wick"/>
<rect x="271.81" y="955.57" width="4.83" height="23.84" class="up-body"/>
<line x1="281.65" y1="939.34" x2="281.65" y2="953.41" class="up-wick"/>
<rect x="279.24" y="949.42" width="4.83" height="2.41" class="up-body"/>
<line x1="289.08" y1="948.91" x2="289.08" y2="956.21" class="down-wick"/>
<rect x="286.67" y="952.27" width="4.83" height="1.00" class="down-body"/>
<line x1="296.51" y1="950.69" x2="296.51" y2="987.22" class="down-wick"/>
<rect x="294.09" y="953.92" width="4.83" height="20.99" class="down-body"/>
<line x1="303.93" y1="933.63" x2="303.93" y2="968.25" class="up-wick"/>
<rect x="301.52" y="944.60" width="4.83" height="22.70" class="up-body"/>
<line x1="311.36" y1="943.52" x2="311.36" y2="958.04" class="down-wick"/>
<rect x="308.95" y="948.66" width="4.83" height="7.23" class="down-body"/>
<line x1="318.79" y1="955.19" x2="318.79" y2="967.87" class="down-wick"/>
<rect x="316.37" y="955.19" width="4.83" height="6.91" class="down-body"/>
<line x1="326.21" y1="954.43" x2="326.21" y2="965.34" class="down-wick"/>
<rect x="323.80" y="956.02" width="4.83" height="2.98" class="down-body"/>
<line x1="333.64" y1="947.77" x2="333.64" y2="958.42" class="down-wick"/>
<rect x="331.23" y="948.72" width="4.83" height="4.44" class="down-body"/>
<line x1="341.07" y1="934.39" x2="341.07" y2="952.91" class="up-wick"/>
<rect x="338.65" y="937.75" width="4.83" height="14.21" class="up-body"/>
<line x1="348.49" y1="937.75" x2="348.49" y2="955.95" class="down-wick"/>
<rect x="346.08" y="941.30" width="4.83" height="14.08" class="down-body"/>
<line x1="355.92" y1="956.78" x2="355.92" y2="972.25" class="down-wick"/>
<rect x="353.51" y="962.55" width="4.83" height="7.74" class="down-body"/>
<line x1="363.35" y1="959.19" x2="363.35" y2="976.31" class="down-wick"/>
<rect x="360.93" y="960.71" width="4.83" height="13.13" class="down-body"/>
<line x1="370.77" y1="970.85" x2="370.77" y2="990.58" class="down-wick"/>
<rect x="368.36" y="974.85" width="4.83" height="7.48" class="down-body"/>
<line x1="378.20" y1="972.50" x2="378.20" y2="989.56" class="down-wick"/>
<rect x="375.78" y="976.31" width="4.83" height="9.64" class="down-body"/>
<line x1="385.62" y1="969.46" x2="385.62" y2="979.48" class="up-wick"/>
<rect x="383.21" y="976.69" width="4.83" height="2.22" class="up-body"/>
<line x1="393.05" y1="971.49" x2="393.05" y2="993.18" class="down-wick"/>
<rect x="390.64" y="975.55" width="4.83" height="17.57" class="down-body"/>
<line x1="400.48" y1="986.90" x2="400.48" y2="994.51" class="down-wick"/>
<rect x="398.06" y="986.90" width="4.83" height="3.80" class="down-body"/>
<line x1="407.90" y1="949.61" x2="407.90" y2="987.09" class="up-wick"/>
<rect x="405.49" y="949.61" width="4.83" height="33.86" class="up-body"/>
<line x1="415.33" y1="958.30" x2="415.33" y2="972.82" class="up-wick"/>
<rect x="412.92" y="960.14" width="4.83" height="9.45" class="up-body"/>
<line x1="422.76" y1="965.97" x2="422.76" y2="979.86" class="down-wick"/>
<rect x="420.34" y="967.24" width="4.83" height="9.77" class="down-body"/>
<line x1="430.18" y1="961.15" x2="430.18" y2="976.75" class="up-wick"/>
<rect x="427.77" y="961.98" width="4.83" height="13.95" class="up-body"/>
<line x1="437.61" y1="971.49" x2="437.61" y2="977.77" class="down-wick"/>
<rect x="435.20" y="973.01" width="4.83" height="1.00" class="down-body"/>
<line x1="445.04" y1="952.40" x2="445.04" y2="975.10" class="down-wick"/>
<rect x="442.62" y="956.84" width="4.83" height="12.56" class="down-body"/>
<line x1="452.46" y1="959.88" x2="452.46" y2="969.52" class="up-wick"/>
<rect x="450.05" y="959.88" width="4.83" height="6.98" class="up-body"/>
<line x1="459.89" y1="955.00" x2="459.89" y2="963.24" class="up-wick"/>
<rect x="457.48" y="958.04" width="4.83" height="4.00" class="up-body"/>
<line x1="467.32" y1="968.70" x2="467.32" y2="980.56" class="down-wick"/>
<rect x="464.90" y="968.70" width="4.83" height="5.52" class="down-body"/>
<line x1="474.74" y1="966.61" x2="474.74" y2="984.93" class="up-wick"/>
<rect x="472.33" y="969.21" width="4.83" height="12.43" class="up-body"/>
<line x1="482.17" y1="974.72" x2="482.17" y2="987.28" class="down-wick"/>
<rect x="479.76" y="974.98" width="4.83" height="9.64" class="down-body"/>
<line x1="489.60" y1="970.79" x2="489.60" y2="981.32" class="up-wick"/>
<rect x="487.18" y="972.95" width="4.83" height="8.37" class="up-body"/>
<line x1="497.02" y1="969.84" x2="497.02" y2="977.83" class="down-wick"/>
<rect x="494.61" y="972.06" width="4.83" height="5.45" class="down-body"/>
<line x1="504.45" y1="939.34" x2="504.45" y2="980.11" class="up-wick"/>
<rect x="502.03" y="945.42" width="4.83" height="19.98" class="up-body"/>
<line x1="511.88" y1="927.35" x2="511.88" y2="950.62" class="up-wick"/>
<rect x="509.46" y="930.84" width="4.83" height="16.87" class="up-body"/>
<line x1="519.30" y1="906.61" x2="519.30" y2="927.60" class="up-wick"/>
<rect x="516.89" y="913.02" width="4.83" height="11.80" class="up-body"/>
<line x1="526.73" y1="909.21" x2="526.73" y2="925.19" class="up-wick"/>
<rect x="524.31" y="910.99" width="4.83" height="5.20" class="up-body"/>
<line x1="534.15" y1="899.19" x2="534.15" y2="911.56" class="down-wick"/>
<rect x="531.74" y="899.19" width="4.83" height="9.64" class="down-body"/>
<line x1="541.58" y1="913.84" x2="541.58" y2="931.16" class="down-wick"/>
<rect x="539.17" y="917.46" width="4.83" height="6.15" class="down-body"/>
<line x1="549.01" y1="908.58" x2="549.01" y2="932.99" class="up-wick"/>
<rect x="546.59" y="919.61" width="4.83" height="5.71" class="up-body"/>
<line x1="556.43" y1="918.16" x2="556.43" y2="932.30" class="down-wick"/>
<rect x="554.02" y="921.45" width="4.83" height="1.52" class="down-body"/>
<line x1="563.86" y1="925.51" x2="563.86" y2="933.63" class="up-wick"/>
<rect x="561.45" y="925.89" width="4.83" height="3.23" class="up-body"/>
<line x1="571.29" y1="910.55" x2="571.29" y2="921.77" class="up-wick"/>
<rect x="568.87" y="912.00" width="4.83" height="2.60" class="up-body"/>
<line x1="578.71" y1="917.97" x2="578.71" y2="932.04" class="down-wick"/>
<rect x="576.30" y="919.30" width="4.83" height="1.14" class="down-body"/>
<line x1="586.14" y1="872.56" x2="586.14" y2="897.67" class="up-wick"/>
<rect x="583.73" y="873.89" width="4.83" height="21.94" class="up-body"/>
<line x1="593.57" y1="867.99" x2="593.57" y2="879.53" class="up-wick"/>
<rect x="591.15" y="868.12" width="4.83" height="10.21" class="up-body"/>
<line x1="600.99" y1="859.24" x2="600.99" y2="869.26" class="up-wick"/>
<rect x="598.58" y="868.37" width="4.83" height="1.00" class="up-body"/>
<line x1="608.42" y1="874.40" x2="608.42" y2="886.19" class="down-wick"/>
<rect x="606.01" y="878.01" width="4.83" height="6.47" class="down-body"/>
<line x1="615.85" y1="886.95" x2="615.85" y2="909.97" class="down-wick"/>
<rect x="613.43" y="888.48" width="4.83" height="20.61" class="down-body"/>
<line x1="623.27" y1="903.13" x2="623.27" y2="914.73" class="down-wick"/>
<rect x="620.86" y="903.13" width="4.83" height="11.48" class="down-body"/>
<line x1="630.70" y1="904.14" x2="630.70" y2="950.18" class="down-wick"/>
<rect x="628.28" y="909.28" width="4.83" height="26.06" class="down-body"/>
<line x1="638.12" y1="926.53" x2="638.12" y2="938.77" class="up-wick"/>
<rect x="635.71" y="927.54" width="4.83" height="8.75" class="up-body"/>
<line x1="645.55" y1="929.95" x2="645.55" y2="946.88" class="up-wick"/>
<rect x="643.14" y="930.39" width="4.83" height="13.44" class="up-body"/>
<line x1="652.98" y1="934.01" x2="652.98" y2="957.98" class="down-wick"/>
<rect x="650.56" y="934.01" width="4.83" height="11.16" class="down-body"/>
<line x1="660.40" y1="919.99" x2="660.40" y2="938.39" class="up-wick"/>
<rect x="657.99" y="920.12" width="4.83" height="18.14" class="up-body"/>
<line x1="667.83" y1="911.18" x2="667.83" y2="920.95" class="down-wick"/>
<rect x="665.42" y="919.68" width="4.83" height="1.00" class="down-body"/>
<line x1="675.26" y1="915.81" x2="675.26" y2="922.47" class="down-wick"/>
<rect x="672.84" y="919.74" width="4.83" height="1.00" class="down-body"/>
<line x1="682.68" y1="903.38" x2="682.68" y2="915.30" class="up-wick"/>
<rect x="680.27" y="910.36" width="4.83" height="4.06" class="up-body"/>
<line x1="690.11" y1="916.82" x2="690.11" y2="928.24" class="up-wick"/>
<rect x="687.70" y="924.75" width="4.83" height="3.49" class="up-body"/>
<line x1="697.54" y1="933.76" x2="697.54" y2="940.48" class="up-wick"/>
<rect x="695.12" y="933.76" width="4.83" height="3.55" class="up-body"/>
<line x1="704.96" y1="942.19" x2="704.96" y2="957.79" class="down-wick"/>
<rect x="702.55" y="942.19" width="4.83" height="10.78" class="down-body"/>
<line x1="712.39" y1="933.50" x2="712.39" y2="953.67" class="down-wick"/>
<rect x="709.98" y="939.46" width="4.83" height="11.10" class="down-body"/>
<line x1="719.82" y1="949.23" x2="719.82" y2="970.47" class="down-wick"/>
<rect x="717.40" y="949.99" width="4.83" height="20.36" class="down-body"/>
<line x1="727.24" y1="960.64" x2="727.24" y2="971.87" class="down-wick"/>
<rect x="724.83" y="962.29" width="4.83" height="4.76" class="down-body"/>
<line x1="734.67" y1="965.08" x2="734.67" y2="979.10" class="down-wick"/>
<rect x="732.26" y="966.42" width="4.83" height="6.41" class="down-body"/>
<line x1="742.10" y1="960.01" x2="742.10" y2="968.83" class="down-wick"/>
<rect x="739.68" y="960.83" width="4.83" height="1.52" class="down-body"/>
<line x1="749.52" y1="956.21" x2="749.52" y2="983.66" class="down-wick"/>
<rect x="747.11" y="956.21" width="4.83" height="14.78" class="down-body"/>
<line x1="756.95" y1="961.66" x2="756.95" y2="971.36" class="down-wick"/>
<rect x="754.53" y="964.83" width="4.83" height="2.54" class="down-body"/>
<line x1="764.38" y1="959.95" x2="764.38" y2="974.72" class="down-wick"/>
<rect x="761.96" y="962.80" width="4.83" height="4.88" class="down-body"/>
<line x1="771.80" y1="962.29" x2="771.80" y2="978.21" class="up-wick"/>
<rect x="769.39" y="967.18" width="4.83" height="8.75" class="up-body"/>
<line x1="779.23" y1="953.10" x2="779.23" y2="972.31" class="up-wick"/>
<rect x="776.81" y="953.92" width="4.83" height="15.28" class="up-body"/>
<line x1="786.65" y1="947.77" x2="786.65" y2="956.21" class="up-wick"/>
<rect x="784.24" y="952.08" width="4.83" height="2.73" class="up-body"/>
<line x1="794.08" y1="949.55" x2="794.08" y2="967.37" class="down-wick"/>
<rect x="791.67" y="950.18" width="4.83" height="14.33" class="down-body"/>
<line x1="801.51" y1="966.92" x2="801.51" y2="979.73" class="down-wick"/>
<rect x="799.09" y="971.68" width="4.83" height="5.01" class="down-body"/>
<line x1="808.93" y1="973.58" x2="808.93" y2="981.13" class="up-wick"/>
<rect x="806.52" y="973.96" width="4.83" height="6.47" class="up-body"/>
<line x1="816.36" y1="966.54" x2="816.36" y2="973.96" class="down-wick"/>
<rect x="813.95" y="967.94" width="4.83" height="3.04" class="down-body"/>
<line x1="823.79" y1="958.74" x2="823.79" y2="966.23" class="up-wick"/>
<rect x="821.37" y="964.26" width="4.83" height="1.00" class="up-body"/>
<line x1="831.21" y1="963.82" x2="831.21" y2="974.53" class="up-wick"/>
<rect x="828.80" y="966.92" width="4.83" height="1.97" class="up-body"/>
<line x1="838.64" y1="959.38" x2="838.64" y2="968.51" class="up-wick"/>
<rect x="836.23" y="962.48" width="4.83" height="1.00" class="up-body"/>
<line x1="846.07" y1="943.71" x2="846.07" y2="955.57" class="up-wick"/>
<rect x="843.65" y="951.64" width="4.83" height="3.80" class="up-body"/>
<line x1="853.49" y1="943.40" x2="853.49" y2="959.69" class="down-wick"/>
<rect x="851.08" y="946.31" width="4.83" height="13.38" class="down-body"/>
<line x1="860.92" y1="950.81" x2="860.92" y2="965.84" class="up-wick"/>
<rect x="858.51" y="954.37" width="4.83" height="4.44" class="up-body"/>
<line x1="868.35" y1="951.39" x2="868.35" y2="960.58" class="down-wick"/>
<rect x="865.93" y="953.67" width="4.83" height="4.63" class="down-body"/>
<line x1="875.77" y1="953.29" x2="875.77" y2="965.53" class="down-wick"/>
<rect x="873.36" y="963.18" width="4.83" height="1.20" class="down-body"/>
<line x1="883.20" y1="957.28" x2="883.20" y2="963.56" class="up-wick"/>
<rect x="880.78" y="959.38" width="4.83" height="2.41" class="up-body"/>
<line x1="890.62" y1="959.44" x2="890.62" y2="965.65" class="up-wick"/>
<rect x="888.21" y="960.90" width="4.83" height="1.00" class="up-body"/>
<line x1="898.05" y1="943.90" x2="898.05" y2="951.39" class="up-wick"/>
<rect x="895.64" y="948.34" width="4.83" height="3.04" class="up-body"/>
<line x1="905.48" y1="943.46" x2="905.48" y2="951.96" class="up-wick"/>
<rect x="903.06" y="944.22" width="4.83" height="7.29" class="up-body"/>
<line x1="912.90" y1="934.07" x2="912.90" y2="941.49" class="up-wick"/>
<rect x="910.49" y="936.36" width="4.83" height="2.09" class="up-body"/>
<line x1="920.33" y1="926.91" x2="920.33" y2="939.15" class="down-wick"/>
<rect x="917.92" y="931.66" width="4.83" height="4.63" class="down-body"/>
<line x1="927.76" y1="920.12" x2="927.76" y2="931.03" class="up-wick"/>
<rect x="925.34" y="921.20" width="4.83" height="9.26" class="up-body"/>
<line x1="935.18" y1="926.27" x2="935.18" y2="935.15" class="down-wick"/>
<rect x="932.77" y="927.48" width="4.83" height="6.85" class="down-body"/>
<line x1="942.61" y1="934.01" x2="942.61" y2="937.50" class="up-wick"/>
<rect x="940.20" y="935.21" width="4.83" height="1.00" class="up-body"/>
<line x1="950.04" y1="933.95" x2="950.04" y2="939.02" class="down-wick"/>
<rect x="947.62" y="934.64" width="4.83" height="4.38" class="down-body"/>
<line x1="957.46" y1="920.76" x2="957.46" y2="929.95" class="up-wick"/>
<rect x="955.05" y="922.28" width="4.83" height="2.98" class="up-body"/>
<line x1="964.89" y1="918.16" x2="964.89" y2="924.94" class="up-wick"/>
<rect x="962.48" y="919.42" width="4.83" height="1.00" class="up-body"/>
<line x1="972.32" y1="912.07" x2="972.32" y2="926.59" class="down-wick"/>
<rect x="969.90" y="914.16" width="4.83" height="8.81" class="down-body"/>
<line x1="979.74" y1="918.28" x2="979.74" y2="937.31" class="down-wick"/>
<rect x="977.33" y="918.28" width="4.83" height="5.83" class="down-body"/>
<line x1="987.17" y1="909.47" x2="987.17" y2="920.12" class="down-wick"/>
<rect x="984.76" y="912.70" width="4.83" height="7.29" class="down-body"/>
<line x1="994.60" y1="920.44" x2="994.60" y2="924.56" class="down-wick"/>
<rect x="992.18" y="920.57" width="4.83" height="3.49" class="down-body"/>
<line x1="1002.02" y1="925.64" x2="1002.02" y2="932.74" class="down-wick"/>
<rect x="999.61" y="926.91" width="4.83" height="1.27" class="down-body"/>
<line x1="1009.45" y1="918.60" x2="1009.45" y2="929.44" class="up-wick"/>
<rect x="1007.03" y="920.18" width="4.83" height="9.20" class="up-body"/>
<line x1="1016.88" y1="913.15" x2="1016.88" y2="922.28" class="down-wick"/>
<rect x="1014.46" y="914.67" width="4.83" height="7.61" class="down-body"/>
<line x1="1024.30" y1="932.93" x2="1024.30" y2="941.94" class="up-wick"/>
<rect x="1021.89" y="934.90" width="4.83" height="2.03" class="up-body"/>
<line x1="1031.73" y1="932.42" x2="1031.73" y2="945.68" class="down-wick"/>
<rect x="1029.31" y="932.49" width="4.83" height="6.21" class="down-body"/>
<line x1="1039.15" y1="927.92" x2="1039.15" y2="937.31" class="down-wick"/>
<rect x="1036.74" y="930.20" width="4.83" height="3.49" class="down-body"/>
<line x1="1046.58" y1="922.40" x2="1046.58" y2="935.09" class="down-wick"/>
<rect x="1044.17" y="925.58" width="4.83" height="8.94" class="down-body"/>
<line x1="1054.01" y1="926.15" x2="1054.01" y2="936.80" class="down-wick"/>
<rect x="1051.59" y="927.16" width="4.83" height="9.64" class="down-body"/>
<line x1="1061.43" y1="936.29" x2="1061.43" y2="939.72" class="down-wick"/>
<rect x="1059.02" y="936.29" width="4.83" height="1.00" class="down-body"/>
<line x1="1068.86" y1="937.50" x2="1068.86" y2="947.58" class="up-wick"/>
<rect x="1066.45" y="941.11" width="4.83" height="1.00" class="up-body"/>
<line x1="1076.29" y1="931.79" x2="1076.29" y2="967.11" class="down-wick"/>
<rect x="1073.87" y="944.35" width="4.83" height="16.30" class="down-body"/>
<line x1="70" y1="959.06" x2="1080" y2="959.06" class="number-line"/>
<text x="1076" y="955.06" text-anchor="end" class="level-label">round 4790.00</text>
<line x1="70" y1="959.06" x2="1080" y2="959.06" class="entry-line"/>
<text x="1076" y="955.06" text-anchor="end" class="level-label">entry level 4790.00</text>
<text x="70" y="1056" class="axis-label">2026-04-20 08:00:00+00:00 to 2026-04-20 12:30:00+00:00</text>
<text x="1080" y="1056" text-anchor="end" class="axis-label">4777.55 - 4807.83</text>
</svg>