<svg xmlns="http://www.w3.org/2000/svg" width="1120" height="1054" viewBox="0 0 1120 1054">
<style>
text{font-family:Arial,Helvetica,sans-serif}.title{font-size:21px;font-weight:700;fill:#1f2937}.subtitle{font-size:12px;fill:#4b5563}.panel-title{font-size:15px;font-weight:700;fill:#111827}.muted{font-size:13px;fill:#6b7280}.plot-bg{fill:#f8fafc;stroke:#cbd5e1;stroke-width:1}.up-body{fill:#15803d;stroke:#14532d;stroke-width:.8}.down-body{fill:#b91c1c;stroke:#7f1d1d;stroke-width:.8}.up-wick{stroke:#14532d;stroke-width:1}.down-wick{stroke:#7f1d1d;stroke-width:1}.sweep-line{stroke:#7c3aed;stroke-width:1.6;stroke-dasharray:6 4}.number-line{stroke:#0f766e;stroke-width:1.4;stroke-dasharray:3 4}.entry-line{stroke:#2563eb;stroke-width:1.4}.sl-line{stroke:#dc2626;stroke-width:1.4}.tp-line{stroke:#16a34a;stroke-width:1.4}.level-label,.axis-label{font-size:11px;fill:#374151}
</style>
<text x="28" y="28" class="title">Adelin v2 visual review sample sample_214</text>
<text x="28" y="48" class="subtitle">Candidate windows are for visual labeling only and are not trade signals.</text>
<text x="560" y="48" class="subtitle" text-anchor="middle">LARGE_UPPER_WICK_REVERSAL_VISUAL_CANDIDATE | PRE_ANCHOR_SWEEP_EXTREME_CANDIDATE</text>
<text x="70" y="82" class="panel-title">H1 liquidity context</text>
<rect x="70" y="96" width="1010" height="192" class="plot-bg"/>
<line x1="79.35" y1="109.24" x2="79.35" y2="136.75" class="down-wick"/>
<rect x="75.35" y="117.08" width="8.00" height="11.43" class="down-body"/>
<line x1="98.06" y1="126.47" x2="98.06" y2="144.94" class="down-wick"/>
<rect x="94.06" y="128.51" width="8.00" height="3.91" class="down-body"/>
<line x1="116.76" y1="119.61" x2="116.76" y2="139.35" class="up-wick"/>
<rect x="112.76" y="121.46" width="8.00" height="10.98" class="up-body"/>
<line x1="135.46" y1="119.55" x2="135.46" y2="151.42" class="down-wick"/>
<rect x="131.46" y="121.44" width="8.00" height="28.03" class="down-body"/>
<line x1="154.17" y1="145.08" x2="154.17" y2="164.27" class="down-wick"/>
<rect x="150.17" y="149.47" width="8.00" height="5.81" class="down-body"/>
<line x1="172.87" y1="151.50" x2="172.87" y2="167.06" class="down-wick"/>
<rect x="168.87" y="155.28" width="8.00" height="7.99" class="down-body"/>
<line x1="191.57" y1="152.62" x2="191.57" y2="173.28" class="up-wick"/>
<rect x="187.57" y="152.76" width="8.00" height="10.51" class="up-body"/>
<line x1="210.28" y1="142.54" x2="210.28" y2="157.27" class="up-wick"/>
<rect x="206.28" y="149.30" width="8.00" height="3.42" class="up-body"/>
<line x1="228.98" y1="136.85" x2="228.98" y2="154.09" class="up-wick"/>
<rect x="224.98" y="139.05" width="8.00" height="10.25" class="up-body"/>
<line x1="247.69" y1="134.19" x2="247.69" y2="148.52" class="up-wick"/>
<rect x="243.69" y="138.46" width="8.00" height="1.00" class="up-body"/>
<line x1="266.39" y1="131.00" x2="266.39" y2="138.60" class="up-wick"/>
<rect x="262.39" y="134.04" width="8.00" height="4.42" class="up-body"/>
<line x1="285.09" y1="130.98" x2="285.09" y2="144.84" class="down-wick"/>
<rect x="281.09" y="134.04" width="8.00" height="6.10" class="down-body"/>
<line x1="303.80" y1="138.46" x2="303.80" y2="145.96" class="down-wick"/>
<rect x="299.80" y="140.15" width="8.00" height="1.33" class="down-body"/>
<line x1="322.50" y1="138.48" x2="322.50" y2="150.88" class="down-wick"/>
<rect x="318.50" y="141.47" width="8.00" height="2.00" class="down-body"/>
<line x1="341.20" y1="142.09" x2="341.20" y2="153.59" class="down-wick"/>
<rect x="337.20" y="143.48" width="8.00" height="3.79" class="down-body"/>
<line x1="359.91" y1="145.44" x2="359.91" y2="160.14" class="down-wick"/>
<rect x="355.91" y="147.27" width="8.00" height="7.36" class="down-body"/>
<line x1="378.61" y1="154.65" x2="378.61" y2="170.53" class="down-wick"/>
<rect x="374.61" y="154.65" width="8.00" height="7.06" class="down-body"/>
<line x1="397.31" y1="153.00" x2="397.31" y2="167.08" class="up-wick"/>
<rect x="393.31" y="154.80" width="8.00" height="6.90" class="up-body"/>
<line x1="416.02" y1="148.30" x2="416.02" y2="154.87" class="up-wick"/>
<rect x="412.02" y="151.84" width="8.00" height="2.99" class="up-body"/>
<line x1="434.72" y1="146.92" x2="434.72" y2="154.40" class="up-wick"/>
<rect x="430.72" y="149.50" width="8.00" height="2.29" class="up-body"/>
<line x1="453.43" y1="148.09" x2="453.43" y2="152.83" class="down-wick"/>
<rect x="449.43" y="149.51" width="8.00" height="1.11" class="down-body"/>
<line x1="472.13" y1="144.27" x2="472.13" y2="157.19" class="down-wick"/>
<rect x="468.13" y="148.92" width="8.00" height="4.56" class="down-body"/>
<line x1="490.83" y1="152.10" x2="490.83" y2="200.77" class="down-wick"/>
<rect x="486.83" y="153.48" width="8.00" height="44.19" class="down-body"/>
<line x1="509.54" y1="174.53" x2="509.54" y2="208.13" class="up-wick"/>
<rect x="505.54" y="179.56" width="8.00" height="18.14" class="up-body"/>
<line x1="528.24" y1="168.62" x2="528.24" y2="182.23" class="up-wick"/>
<rect x="524.24" y="171.99" width="8.00" height="7.57" class="up-body"/>
<line x1="546.94" y1="169.55" x2="546.94" y2="186.01" class="down-wick"/>
<rect x="542.94" y="171.98" width="8.00" height="8.42" class="down-body"/>
<line x1="565.65" y1="177.52" x2="565.65" y2="188.65" class="down-wick"/>
<rect x="561.65" y="180.43" width="8.00" height="3.20" class="down-body"/>
<line x1="584.35" y1="182.53" x2="584.35" y2="260.36" class="down-wick"/>
<rect x="580.35" y="183.63" width="8.00" height="52.29" class="down-body"/>
<line x1="603.06" y1="215.23" x2="603.06" y2="237.73" class="up-wick"/>
<rect x="599.06" y="218.39" width="8.00" height="17.53" class="up-body"/>
<line x1="621.76" y1="208.73" x2="621.76" y2="223.53" class="up-wick"/>
<rect x="617.76" y="212.90" width="8.00" height="5.46" class="up-body"/>
<line x1="640.46" y1="202.01" x2="640.46" y2="213.47" class="up-wick"/>
<rect x="636.46" y="209.87" width="8.00" height="3.03" class="up-body"/>
<line x1="659.17" y1="200.19" x2="659.17" y2="215.93" class="up-wick"/>
<rect x="655.17" y="205.60" width="8.00" height="4.33" class="up-body"/>
<line x1="677.87" y1="194.63" x2="677.87" y2="220.60" class="down-wick"/>
<rect x="673.87" y="205.60" width="8.00" height="10.45" class="down-body"/>
<line x1="696.57" y1="201.63" x2="696.57" y2="216.07" class="up-wick"/>
<rect x="692.57" y="202.84" width="8.00" height="13.20" class="up-body"/>
<line x1="715.28" y1="190.49" x2="715.28" y2="203.74" class="up-wick"/>
<rect x="711.28" y="200.62" width="8.00" height="2.22" class="up-body"/>
<line x1="733.98" y1="199.66" x2="733.98" y2="251.28" class="down-wick"/>
<rect x="729.98" y="200.60" width="8.00" height="50.18" class="down-body"/>
<line x1="752.69" y1="220.93" x2="752.69" y2="274.76" class="down-wick"/>
<rect x="748.69" y="250.78" width="8.00" height="5.63" class="down-body"/>
<line x1="771.39" y1="241.19" x2="771.39" y2="268.47" class="up-wick"/>
<rect x="767.39" y="244.44" width="8.00" height="11.97" class="up-body"/>
<line x1="790.09" y1="232.09" x2="790.09" y2="252.66" class="down-wick"/>
<rect x="786.09" y="244.38" width="8.00" height="7.63" class="down-body"/>
<line x1="808.80" y1="250.24" x2="808.80" y2="267.66" class="down-wick"/>
<rect x="804.80" y="252.01" width="8.00" height="3.39" class="down-body"/>
<line x1="827.50" y1="218.36" x2="827.50" y2="257.48" class="up-wick"/>
<rect x="823.50" y="227.73" width="8.00" height="27.64" class="up-body"/>
<line x1="846.20" y1="225.91" x2="846.20" y2="245.98" class="down-wick"/>
<rect x="842.20" y="227.72" width="8.00" height="15.24" class="down-body"/>
<line x1="864.91" y1="239.85" x2="864.91" y2="248.74" class="down-wick"/>
<rect x="860.91" y="242.94" width="8.00" height="2.00" class="down-body"/>
<line x1="883.61" y1="237.70" x2="883.61" y2="247.36" class="down-wick"/>
<rect x="879.61" y="244.95" width="8.00" height="1.00" class="down-body"/>
<line x1="902.31" y1="239.53" x2="902.31" y2="264.53" class="down-wick"/>
<rect x="898.31" y="244.96" width="8.00" height="15.31" class="down-body"/>
<line x1="921.02" y1="240.65" x2="921.02" y2="260.95" class="up-wick"/>
<rect x="917.02" y="247.41" width="8.00" height="12.86" class="up-body"/>
<line x1="939.72" y1="232.82" x2="939.72" y2="247.65" class="up-wick"/>
<rect x="935.72" y="235.12" width="8.00" height="12.29" class="up-body"/>
<line x1="958.43" y1="220.89" x2="958.43" y2="237.95" class="up-wick"/>
<rect x="954.43" y="222.56" width="8.00" height="12.55" class="up-body"/>
<line x1="977.13" y1="208.69" x2="977.13" y2="223.36" class="up-wick"/>
<rect x="973.13" y="209.87" width="8.00" height="12.68" class="up-body"/>
<line x1="995.83" y1="193.93" x2="995.83" y2="211.93" class="up-wick"/>
<rect x="991.83" y="199.03" width="8.00" height="10.84" class="up-body"/>
<line x1="1014.54" y1="194.23" x2="1014.54" y2="202.34" class="down-wick"/>
<rect x="1010.54" y="199.02" width="8.00" height="1.00" class="down-body"/>
<line x1="1033.24" y1="197.32" x2="1033.24" y2="206.38" class="down-wick"/>
<rect x="1029.24" y="199.57" width="8.00" height="2.16" class="down-body"/>
<line x1="1051.94" y1="192.29" x2="1051.94" y2="203.08" class="down-wick"/>
<rect x="1047.94" y="201.72" width="8.00" height="1.00" class="down-body"/>
<line x1="1070.65" y1="200.40" x2="1070.65" y2="213.27" class="down-wick"/>
<rect x="1066.65" y="202.12" width="8.00" height="10.71" class="down-body"/>
<line x1="70" y1="202.41" x2="1080" y2="202.41" class="sweep-line"/>
<text x="1076" y="198.41" text-anchor="end" class="level-label">sweep 4929.94</text>
<line x1="70" y1="202.01" x2="1080" y2="202.01" class="entry-line"/>
<text x="1076" y="198.01" text-anchor="end" class="level-label">entry level 4930.43</text>
<text x="70" y="306" class="axis-label">2026-02-16 01:00:00+00:00 to 2026-02-18 10:00:00+00:00</text>
<text x="1080" y="306" text-anchor="end" class="axis-label">4825.29 - 5060.05</text>
<text x="70" y="332" class="panel-title">M15 liquidity / reaction context</text>
<rect x="70" y="346" width="1010" height="192" class="plot-bg"/>
<line x1="78.02" y1="360.86" x2="78.02" y2="374.48" class="down-wick"/>
<rect x="74.02" y="365.13" width="8.00" height="4.36" class="down-body"/>
<line x1="94.05" y1="359.24" x2="94.05" y2="375.63" class="up-wick"/>
<rect x="90.05" y="366.20" width="8.00" height="3.29" class="up-body"/>
<line x1="110.08" y1="364.66" x2="110.08" y2="373.28" class="down-wick"/>
<rect x="106.08" y="366.21" width="8.00" height="4.59" class="down-body"/>
<line x1="126.11" y1="366.56" x2="126.11" y2="371.89" class="down-wick"/>
<rect x="122.11" y="370.80" width="8.00" height="1.00" class="down-body"/>
<line x1="142.14" y1="369.17" x2="142.14" y2="386.08" class="down-wick"/>
<rect x="138.14" y="370.92" width="8.00" height="10.84" class="down-body"/>
<line x1="158.17" y1="379.37" x2="158.17" y2="390.34" class="down-wick"/>
<rect x="154.17" y="381.76" width="8.00" height="6.08" class="down-body"/>
<line x1="174.21" y1="381.96" x2="174.21" y2="392.87" class="down-wick"/>
<rect x="170.21" y="387.84" width="8.00" height="3.23" class="down-body"/>
<line x1="190.24" y1="391.07" x2="190.24" y2="430.91" class="down-wick"/>
<rect x="186.24" y="391.07" width="8.00" height="35.90" class="down-body"/>
<line x1="206.27" y1="410.91" x2="206.27" y2="440.24" class="up-wick"/>
<rect x="202.27" y="411.89" width="8.00" height="15.13" class="up-body"/>
<line x1="222.30" y1="403.88" x2="222.30" y2="417.89" class="up-wick"/>
<rect x="218.30" y="405.12" width="8.00" height="6.74" class="up-body"/>
<line x1="238.33" y1="397.63" x2="238.33" y2="407.01" class="up-wick"/>
<rect x="234.33" y="398.26" width="8.00" height="6.84" class="up-body"/>
<line x1="254.37" y1="397.80" x2="254.37" y2="406.16" class="down-wick"/>
<rect x="250.37" y="398.26" width="8.00" height="5.75" class="down-body"/>
<line x1="270.40" y1="395.84" x2="270.40" y2="407.40" class="up-wick"/>
<rect x="266.40" y="396.30" width="8.00" height="7.71" class="up-body"/>
<line x1="286.43" y1="390.12" x2="286.43" y2="398.21" class="up-wick"/>
<rect x="282.43" y="396.11" width="8.00" height="1.00" class="up-body"/>
<line x1="302.46" y1="394.65" x2="302.46" y2="402.43" class="down-wick"/>
<rect x="298.46" y="396.11" width="8.00" height="4.63" class="down-body"/>
<line x1="318.49" y1="394.26" x2="318.49" y2="401.51" class="up-wick"/>
<rect x="314.49" y="394.40" width="8.00" height="6.34" class="up-body"/>
<line x1="334.52" y1="391.31" x2="334.52" y2="402.71" class="down-wick"/>
<rect x="330.52" y="394.39" width="8.00" height="5.79" class="down-body"/>
<line x1="350.56" y1="399.92" x2="350.56" y2="408.15" class="down-wick"/>
<rect x="346.56" y="400.19" width="8.00" height="6.44" class="down-body"/>
<line x1="366.59" y1="401.38" x2="366.59" y2="412.19" class="down-wick"/>
<rect x="362.59" y="406.63" width="8.00" height="1.70" class="down-body"/>
<line x1="382.62" y1="401.37" x2="382.62" y2="408.85" class="up-wick"/>
<rect x="378.62" y="405.07" width="8.00" height="3.26" class="up-body"/>
<line x1="398.65" y1="405.10" x2="398.65" y2="415.53" class="down-wick"/>
<rect x="394.65" y="405.10" width="8.00" height="4.82" class="down-body"/>
<line x1="414.68" y1="401.41" x2="414.68" y2="411.64" class="up-wick"/>
<rect x="410.68" y="402.15" width="8.00" height="7.78" class="up-body"/>
<line x1="430.71" y1="401.56" x2="430.71" y2="411.69" class="down-wick"/>
<rect x="426.71" y="402.15" width="8.00" height="7.68" class="down-body"/>
<line x1="446.75" y1="408.20" x2="446.75" y2="412.80" class="up-wick"/>
<rect x="442.75" y="409.16" width="8.00" height="1.00" class="up-body"/>
<line x1="462.78" y1="407.77" x2="462.78" y2="435.65" class="down-wick"/>
<rect x="458.78" y="409.16" width="8.00" height="25.67" class="down-body"/>
<line x1="478.81" y1="434.58" x2="478.81" y2="475.96" class="down-wick"/>
<rect x="474.81" y="434.83" width="8.00" height="28.44" class="down-body"/>
<line x1="494.84" y1="461.53" x2="494.84" y2="506.50" class="down-wick"/>
<rect x="490.84" y="463.26" width="8.00" height="21.45" class="down-body"/>
<line x1="510.87" y1="466.06" x2="510.87" y2="491.08" class="up-wick"/>
<rect x="506.87" y="475.49" width="8.00" height="9.41" class="up-body"/>
<line x1="526.90" y1="469.55" x2="526.90" y2="476.64" class="up-wick"/>
<rect x="522.90" y="472.71" width="8.00" height="2.78" class="up-body"/>
<line x1="542.94" y1="462.23" x2="542.94" y2="477.79" class="up-wick"/>
<rect x="538.94" y="469.43" width="8.00" height="3.27" class="up-body"/>
<line x1="558.97" y1="449.25" x2="558.97" y2="472.95" class="up-wick"/>
<rect x="554.97" y="454.81" width="8.00" height="14.64" class="up-body"/>
<line x1="575.00" y1="449.50" x2="575.00" y2="464.63" class="up-wick"/>
<rect x="571.00" y="453.26" width="8.00" height="1.55" class="up-body"/>
<line x1="591.03" y1="449.64" x2="591.03" y2="459.78" class="down-wick"/>
<rect x="587.03" y="453.21" width="8.00" height="3.73" class="down-body"/>
<line x1="607.06" y1="446.71" x2="607.06" y2="458.06" class="up-wick"/>
<rect x="603.06" y="455.65" width="8.00" height="1.30" class="up-body"/>
<line x1="623.10" y1="441.96" x2="623.10" y2="459.72" class="up-wick"/>
<rect x="619.10" y="445.90" width="8.00" height="9.75" class="up-body"/>
<line x1="639.13" y1="441.00" x2="639.13" y2="448.68" class="down-wick"/>
<rect x="635.13" y="445.85" width="8.00" height="1.00" class="down-body"/>
<line x1="655.16" y1="432.48" x2="655.16" y2="447.02" class="up-wick"/>
<rect x="651.16" y="435.23" width="8.00" height="11.06" class="up-body"/>
<line x1="671.19" y1="433.75" x2="671.19" y2="444.02" class="down-wick"/>
<rect x="667.19" y="435.23" width="8.00" height="7.94" class="down-body"/>
<line x1="687.22" y1="437.29" x2="687.22" y2="446.88" class="down-wick"/>
<rect x="683.22" y="443.17" width="8.00" height="2.10" class="down-body"/>
<line x1="703.25" y1="437.61" x2="703.25" y2="445.38" class="up-wick"/>
<rect x="699.25" y="442.45" width="8.00" height="2.81" class="up-body"/>
<line x1="719.29" y1="433.73" x2="719.29" y2="443.23" class="up-wick"/>
<rect x="715.29" y="441.27" width="8.00" height="1.27" class="up-body"/>
<line x1="735.32" y1="438.85" x2="735.32" y2="445.13" class="down-wick"/>
<rect x="731.32" y="441.27" width="8.00" height="3.10" class="down-body"/>
<line x1="751.35" y1="438.71" x2="751.35" y2="446.85" class="up-wick"/>
<rect x="747.35" y="442.33" width="8.00" height="2.04" class="up-body"/>
<line x1="767.38" y1="430.17" x2="767.38" y2="450.14" class="up-wick"/>
<rect x="763.38" y="437.04" width="8.00" height="5.29" class="up-body"/>
<line x1="783.41" y1="423.11" x2="783.41" y2="439.36" class="up-wick"/>
<rect x="779.41" y="426.37" width="8.00" height="10.66" class="up-body"/>
<line x1="799.44" y1="424.90" x2="799.44" y2="434.81" class="down-wick"/>
<rect x="795.44" y="426.34" width="8.00" height="8.47" class="down-body"/>
<line x1="815.48" y1="434.67" x2="815.48" y2="443.76" class="down-wick"/>
<rect x="811.48" y="434.81" width="8.00" height="6.59" class="down-body"/>
<line x1="831.51" y1="440.31" x2="831.51" y2="456.06" class="down-wick"/>
<rect x="827.51" y="441.39" width="8.00" height="8.90" class="down-body"/>
<line x1="847.54" y1="436.13" x2="847.54" y2="450.31" class="up-wick"/>
<rect x="843.54" y="436.81" width="8.00" height="13.48" class="up-body"/>
<line x1="863.57" y1="432.05" x2="863.57" y2="438.44" class="up-wick"/>
<rect x="859.57" y="435.17" width="8.00" height="1.64" class="up-body"/>
<line x1="879.60" y1="432.72" x2="879.60" y2="440.92" class="up-wick"/>
<rect x="875.60" y="435.04" width="8.00" height="1.00" class="up-body"/>
<line x1="895.63" y1="431.99" x2="895.63" y2="441.78" class="up-wick"/>
<rect x="891.63" y="433.54" width="8.00" height="1.48" class="up-body"/>
<line x1="911.67" y1="423.80" x2="911.67" y2="434.68" class="up-wick"/>
<rect x="907.67" y="429.09" width="8.00" height="4.45" class="up-body"/>
<line x1="927.70" y1="417.86" x2="927.70" y2="429.08" class="up-wick"/>
<rect x="923.70" y="419.49" width="8.00" height="9.59" class="up-body"/>
<line x1="943.73" y1="418.19" x2="943.73" y2="429.28" class="down-wick"/>
<rect x="939.73" y="419.49" width="8.00" height="5.73" class="down-body"/>
<line x1="959.76" y1="424.82" x2="959.76" y2="433.97" class="down-wick"/>
<rect x="955.76" y="425.22" width="8.00" height="5.50" class="down-body"/>
<line x1="975.79" y1="429.49" x2="975.79" y2="444.89" class="down-wick"/>
<rect x="971.79" y="430.69" width="8.00" height="10.19" class="down-body"/>
<line x1="991.83" y1="440.14" x2="991.83" y2="452.68" class="down-wick"/>
<rect x="987.83" y="440.93" width="8.00" height="2.71" class="down-body"/>
<line x1="1007.86" y1="440.56" x2="1007.86" y2="455.85" class="up-wick"/>
<rect x="1003.86" y="441.50" width="8.00" height="2.15" class="up-body"/>
<line x1="1023.89" y1="438.66" x2="1023.89" y2="494.97" class="down-wick"/>
<rect x="1019.89" y="441.50" width="8.00" height="52.83" class="down-body"/>
<line x1="1039.92" y1="463.92" x2="1039.92" y2="524.76" class="up-wick"/>
<rect x="1035.92" y="467.95" width="8.00" height="26.39" class="up-body"/>
<line x1="1055.95" y1="459.42" x2="1055.95" y2="474.86" class="up-wick"/>
<rect x="1051.95" y="465.80" width="8.00" height="2.15" class="up-body"/>
<line x1="1071.98" y1="456.48" x2="1071.98" y2="497.93" class="down-wick"/>
<rect x="1067.98" y="465.88" width="8.00" height="29.03" class="down-body"/>
<line x1="70" y1="432.99" x2="1080" y2="432.99" class="sweep-line"/>
<text x="1076" y="428.99" text-anchor="end" class="level-label">sweep 4929.94</text>
<line x1="70" y1="432.48" x2="1080" y2="432.48" class="entry-line"/>
<text x="1076" y="428.48" text-anchor="end" class="level-label">entry level 4930.43</text>
<text x="70" y="556" class="axis-label">2026-02-17 01:00:00+00:00 to 2026-02-17 16:30:00+00:00</text>
<text x="1080" y="556" text-anchor="end" class="axis-label">4828.72 - 5013.79</text>
<text x="70" y="582" class="panel-title">M5 reaction / execution context</text>
<rect x="70" y="596" width="1010" height="192" class="plot-bg"/>
<line x1="79.18" y1="742.40" x2="79.18" y2="774.76" class="up-wick"/>
<rect x="75.18" y="742.54" width="8.00" height="2.58" class="up-body"/>
<line x1="97.55" y1="729.00" x2="97.55" y2="755.98" class="down-wick"/>
<rect x="93.55" y="742.54" width="8.00" height="11.15" class="down-body"/>
<line x1="115.91" y1="742.77" x2="115.91" y2="766.56" class="down-wick"/>
<rect x="111.91" y="753.68" width="8.00" height="8.29" class="down-body"/>
<line x1="134.27" y1="752.46" x2="134.27" y2="767.03" class="up-wick"/>
<rect x="130.27" y="757.71" width="8.00" height="4.26" class="up-body"/>
<line x1="152.64" y1="715.79" x2="152.64" y2="759.02" class="up-wick"/>
<rect x="148.64" y="748.25" width="8.00" height="9.41" class="up-body"/>
<line x1="171.00" y1="738.60" x2="171.00" y2="760.61" class="down-wick"/>
<rect x="167.00" y="748.20" width="8.00" height="7.92" class="down-body"/>
<line x1="189.36" y1="742.96" x2="189.36" y2="774.52" class="up-wick"/>
<rect x="185.36" y="745.95" width="8.00" height="10.16" class="up-body"/>
<line x1="207.73" y1="697.53" x2="207.73" y2="748.76" class="up-wick"/>
<rect x="203.73" y="701.18" width="8.00" height="44.12" class="up-body"/>
<line x1="226.09" y1="694.34" x2="226.09" y2="713.87" class="down-wick"/>
<rect x="222.09" y="701.18" width="8.00" height="10.91" class="down-body"/>
<line x1="244.45" y1="707.69" x2="244.45" y2="722.91" class="down-wick"/>
<rect x="240.45" y="711.91" width="8.00" height="9.93" class="down-body"/>
<line x1="262.82" y1="689.99" x2="262.82" y2="724.64" class="up-wick"/>
<rect x="258.82" y="694.76" width="8.00" height="27.07" class="up-body"/>
<line x1="281.18" y1="692.37" x2="281.18" y2="722.77" class="down-wick"/>
<rect x="277.18" y="694.76" width="8.00" height="19.11" class="down-body"/>
<line x1="299.55" y1="669.99" x2="299.55" y2="717.15" class="up-wick"/>
<rect x="295.55" y="672.33" width="8.00" height="41.54" class="up-body"/>
<line x1="317.91" y1="672.33" x2="317.91" y2="711.48" class="down-wick"/>
<rect x="313.91" y="672.33" width="8.00" height="27.54" class="down-body"/>
<line x1="336.27" y1="651.53" x2="336.27" y2="698.70" class="up-wick"/>
<rect x="332.27" y="663.95" width="8.00" height="34.75" class="up-body"/>
<line x1="354.64" y1="657.25" x2="354.64" y2="681.84" class="down-wick"/>
<rect x="350.64" y="663.95" width="8.00" height="15.88" class="down-body"/>
<line x1="373.00" y1="660.10" x2="373.00" y2="689.14" class="up-wick"/>
<rect x="369.00" y="674.39" width="8.00" height="5.48" class="up-body"/>
<line x1="391.36" y1="672.42" x2="391.36" y2="703.62" class="down-wick"/>
<rect x="387.36" y="674.39" width="8.00" height="25.38" class="down-body"/>
<line x1="409.73" y1="673.22" x2="409.73" y2="705.49" class="down-wick"/>
<rect x="405.73" y="699.77" width="8.00" height="2.06" class="down-body"/>
<line x1="428.09" y1="690.59" x2="428.09" y2="715.75" class="down-wick"/>
<rect x="424.09" y="701.88" width="8.00" height="6.18" class="down-body"/>
<line x1="446.45" y1="697.57" x2="446.45" y2="716.54" class="down-wick"/>
<rect x="442.45" y="708.06" width="8.00" height="1.17" class="down-body"/>
<line x1="464.82" y1="679.87" x2="464.82" y2="709.75" class="up-wick"/>
<rect x="460.82" y="686.24" width="8.00" height="23.00" class="up-body"/>
<line x1="483.18" y1="674.67" x2="483.18" y2="696.40" class="down-wick"/>
<rect x="479.18" y="686.24" width="8.00" height="3.61" class="down-body"/>
<line x1="501.55" y1="684.27" x2="501.55" y2="700.34" class="down-wick"/>
<rect x="497.55" y="689.85" width="8.00" height="6.70" class="down-body"/>
<line x1="519.91" y1="658.89" x2="519.91" y2="700.06" class="up-wick"/>
<rect x="515.91" y="658.89" width="8.00" height="38.03" class="up-body"/>
<line x1="538.27" y1="657.15" x2="538.27" y2="695.18" class="down-wick"/>
<rect x="534.27" y="658.89" width="8.00" height="28.48" class="down-body"/>
<line x1="556.64" y1="673.73" x2="556.64" y2="697.71" class="down-wick"/>
<rect x="552.64" y="687.36" width="8.00" height="3.84" class="down-body"/>
<line x1="575.00" y1="680.29" x2="575.00" y2="708.06" class="down-wick"/>
<rect x="571.00" y="691.20" width="8.00" height="10.82" class="down-body"/>
<line x1="593.36" y1="691.77" x2="593.36" y2="707.46" class="up-wick"/>
<rect x="589.36" y="695.28" width="8.00" height="6.88" class="up-body"/>
<line x1="611.73" y1="692.19" x2="611.73" y2="708.63" class="down-wick"/>
<rect x="607.73" y="695.28" width="8.00" height="9.93" class="down-body"/>
<line x1="630.09" y1="694.67" x2="630.09" y2="716.40" class="up-wick"/>
<rect x="626.09" y="699.17" width="8.00" height="6.04" class="up-body"/>
<line x1="648.45" y1="679.64" x2="648.45" y2="699.17" class="up-wick"/>
<rect x="644.45" y="691.25" width="8.00" height="7.92" class="up-body"/>
<line x1="666.82" y1="689.89" x2="666.82" y2="707.92" class="down-wick"/>
<rect x="662.82" y="691.25" width="8.00" height="4.73" class="down-body"/>
<line x1="685.18" y1="689.61" x2="685.18" y2="731.25" class="down-wick"/>
<rect x="681.18" y="695.98" width="8.00" height="12.65" class="down-body"/>
<line x1="703.55" y1="641.09" x2="703.55" y2="708.63" class="up-wick"/>
<rect x="699.55" y="664.69" width="8.00" height="43.93" class="up-body"/>
<line x1="721.91" y1="660.76" x2="721.91" y2="672.80" class="down-wick"/>
<rect x="717.91" y="664.69" width="8.00" height="7.40" class="down-body"/>
<line x1="740.27" y1="659.03" x2="740.27" y2="682.59" class="up-wick"/>
<rect x="736.27" y="665.02" width="8.00" height="7.07" class="up-body"/>
<line x1="758.64" y1="655.23" x2="758.64" y2="670.03" class="up-wick"/>
<rect x="754.64" y="657.67" width="8.00" height="7.35" class="up-body"/>
<line x1="777.00" y1="609.24" x2="777.00" y2="661.65" class="up-wick"/>
<rect x="773.00" y="623.95" width="8.00" height="33.72" class="up-body"/>
<line x1="795.36" y1="617.30" x2="795.36" y2="645.68" class="down-wick"/>
<rect x="791.36" y="623.81" width="8.00" height="16.16" class="down-body"/>
<line x1="813.73" y1="626.06" x2="813.73" y2="643.29" class="down-wick"/>
<rect x="809.73" y="639.97" width="8.00" height="3.33" class="down-body"/>
<line x1="832.09" y1="641.42" x2="832.09" y2="662.03" class="down-wick"/>
<rect x="828.09" y="643.29" width="8.00" height="18.73" class="down-body"/>
<line x1="850.45" y1="661.42" x2="850.45" y2="695.61" class="down-wick"/>
<rect x="846.45" y="662.03" width="8.00" height="13.68" class="down-body"/>
<line x1="868.82" y1="666.99" x2="868.82" y2="702.44" class="up-wick"/>
<rect x="864.82" y="670.36" width="8.00" height="4.92" class="up-body"/>
<line x1="887.18" y1="670.41" x2="887.18" y2="696.59" class="down-wick"/>
<rect x="883.18" y="670.41" width="8.00" height="21.36" class="down-body"/>
<line x1="905.55" y1="686.89" x2="905.55" y2="719.96" class="down-wick"/>
<rect x="901.55" y="691.77" width="8.00" height="25.90" class="down-body"/>
<line x1="923.91" y1="707.69" x2="923.91" y2="757.99" class="down-wick"/>
<rect x="919.91" y="718.13" width="8.00" height="18.97" class="down-body"/>
<line x1="942.27" y1="726.94" x2="942.27" y2="747.22" class="up-wick"/>
<rect x="938.27" y="731.95" width="8.00" height="5.20" class="up-body"/>
<line x1="960.64" y1="698.79" x2="960.64" y2="732.04" class="up-wick"/>
<rect x="956.64" y="703.71" width="8.00" height="28.20" class="up-body"/>
<line x1="979.00" y1="677.06" x2="979.00" y2="706.71" class="up-wick"/>
<rect x="975.00" y="688.49" width="8.00" height="15.22" class="up-body"/>
<line x1="997.36" y1="668.02" x2="997.36" y2="694.81" class="up-wick"/>
<rect x="993.36" y="671.06" width="8.00" height="17.38" class="up-body"/>
<line x1="1015.73" y1="662.63" x2="1015.73" y2="674.53" class="up-wick"/>
<rect x="1011.73" y="667.60" width="8.00" height="3.47" class="up-body"/>
<line x1="1034.09" y1="649.57" x2="1034.09" y2="678.42" class="up-wick"/>
<rect x="1030.09" y="665.12" width="8.00" height="2.48" class="up-body"/>
<line x1="1052.45" y1="655.52" x2="1052.45" y2="670.74" class="up-wick"/>
<rect x="1048.45" y="663.66" width="8.00" height="1.45" class="up-body"/>
<line x1="1070.82" y1="657.39" x2="1070.82" y2="681.32" class="down-wick"/>
<rect x="1066.82" y="663.48" width="8.00" height="16.35" class="down-body"/>
<line x1="70" y1="653.83" x2="1080" y2="653.83" class="sweep-line"/>
<text x="1076" y="649.83" text-anchor="end" class="level-label">sweep 4929.94</text>
<line x1="70" y1="651.53" x2="1080" y2="651.53" class="entry-line"/>
<text x="1076" y="647.53" text-anchor="end" class="level-label">entry level 4930.43</text>
<text x="70" y="806" class="axis-label">2026-02-17 09:00:00+00:00 to 2026-02-17 13:30:00+00:00</text>
<text x="1080" y="806" text-anchor="end" class="axis-label">4901.29 - 4942.29</text>
<text x="70" y="832" class="panel-title">M1 execution window</text>
<rect x="70" y="846" width="1010" height="192" class="plot-bg"/>
<line x1="73.71" y1="992.40" x2="73.71" y2="1004.48" class="down-wick"/>
<rect x="71.30" y="995.11" width="4.83" height="6.65" class="down-body"/>
<line x1="81.14" y1="1007.80" x2="81.14" y2="1024.76" class="up-wick"/>
<rect x="78.73" y="1013.42" width="4.83" height="7.59" class="up-body"/>
<line x1="88.57" y1="992.54" x2="88.57" y2="1009.91" class="up-wick"/>
<rect x="86.15" y="992.54" width="4.83" height="14.33" class="up-body"/>
<line x1="95.99" y1="991.65" x2="95.99" y2="1002.14" class="up-wick"/>
<rect x="93.58" y="991.93" width="4.83" height="10.16" class="up-body"/>
<line x1="103.42" y1="986.45" x2="103.42" y2="998.20" class="down-wick"/>
<rect x="101.01" y="986.49" width="4.83" height="11.66" class="down-body"/>
<line x1="110.85" y1="1001.53" x2="110.85" y2="1010.85" class="down-wick"/>
<rect x="108.43" y="1003.68" width="4.83" height="2.95" class="down-body"/>
<line x1="118.27" y1="998.95" x2="118.27" y2="1013.33" class="up-wick"/>
<rect x="115.86" y="999.65" width="4.83" height="10.49" class="up-body"/>
<line x1="125.70" y1="995.39" x2="125.70" y2="1016.56" class="down-wick"/>
<rect x="123.28" y="995.39" width="4.83" height="16.58" class="down-body"/>
<line x1="133.12" y1="1010.29" x2="133.12" y2="1017.03" class="down-wick"/>
<rect x="130.71" y="1011.13" width="4.83" height="1.83" class="down-body"/>
<line x1="140.55" y1="1002.46" x2="140.55" y2="1012.44" class="up-wick"/>
<rect x="138.14" y="1008.13" width="4.83" height="2.34" class="up-body"/>
<line x1="147.98" y1="995.58" x2="147.98" y2="1009.02" class="up-wick"/>
<rect x="145.56" y="996.89" width="4.83" height="10.77" class="up-body"/>
<line x1="155.40" y1="967.99" x2="155.40" y2="999.84" class="down-wick"/>
<rect x="152.99" y="968.37" width="4.83" height="24.78" class="down-body"/>
<line x1="162.83" y1="994.64" x2="162.83" y2="1003.40" class="up-wick"/>
<rect x="160.42" y="998.25" width="4.83" height="5.01" class="up-body"/>
<line x1="170.26" y1="988.74" x2="170.26" y2="998.91" class="down-wick"/>
<rect x="167.84" y="988.93" width="4.83" height="9.98" class="down-body"/>
<line x1="177.68" y1="1000.12" x2="177.68" y2="1010.61" class="down-wick"/>
<rect x="175.27" y="1000.12" width="4.83" height="5.15" class="down-body"/>
<line x1="185.11" y1="1003.78" x2="185.11" y2="1021.15" class="down-wick"/>
<rect x="182.70" y="1006.12" width="4.83" height="12.36" class="down-body"/>
<line x1="192.54" y1="996.80" x2="192.54" y2="1023.68" class="up-wick"/>
<rect x="190.12" y="997.55" width="4.83" height="25.06" class="up-body"/>
<line x1="199.96" y1="994.13" x2="199.96" y2="999.70" class="up-wick"/>
<rect x="197.55" y="995.95" width="4.83" height="1.97" class="up-body"/>
<line x1="207.39" y1="985.98" x2="207.39" y2="997.83" class="up-wick"/>
<rect x="204.98" y="988.23" width="4.83" height="8.01" class="up-body"/>
<line x1="214.82" y1="955.44" x2="214.82" y2="983.12" class="up-wick"/>
<rect x="212.40" y="958.91" width="4.83" height="20.47" class="up-body"/>
<line x1="222.24" y1="945.51" x2="222.24" y2="956.14" class="up-wick"/>
<rect x="219.83" y="948.98" width="4.83" height="2.20" class="up-body"/>
<line x1="229.67" y1="950.48" x2="229.67" y2="960.17" class="down-wick"/>
<rect x="227.26" y="950.57" width="4.83" height="6.14" class="down-body"/>
<line x1="237.10" y1="947.71" x2="237.10" y2="963.87" class="down-wick"/>
<rect x="234.68" y="947.81" width="4.83" height="14.28" class="down-body"/>
<line x1="244.52" y1="960.22" x2="244.52" y2="968.27" class="up-wick"/>
<rect x="242.11" y="963.50" width="4.83" height="3.84" class="up-body"/>
<line x1="251.95" y1="957.69" x2="251.95" y2="972.91" class="up-wick"/>
<rect x="249.53" y="961.25" width="4.83" height="4.54" class="up-body"/>
<line x1="259.38" y1="960.27" x2="259.38" y2="974.64" class="up-wick"/>
<rect x="256.96" y="961.20" width="4.83" height="10.63" class="up-body"/>
<line x1="266.80" y1="961.02" x2="266.80" y2="968.46" class="up-wick"/>
<rect x="264.39" y="964.06" width="4.83" height="1.00" class="up-body"/>
<line x1="274.23" y1="939.99" x2="274.23" y2="962.75" class="up-wick"/>
<rect x="271.81" y="944.76" width="4.83" height="17.89" class="up-body"/>
<line x1="281.65" y1="942.61" x2="281.65" y2="962.33" class="down-wick"/>
<rect x="279.24" y="944.20" width="4.83" height="18.08" class="down-body"/>
<line x1="289.08" y1="951.88" x2="289.08" y2="966.03" class="down-wick"/>
<rect x="286.67" y="955.72" width="4.83" height="7.21" class="down-body"/>
<line x1="296.51" y1="953.94" x2="296.51" y2="967.15" class="up-wick"/>
<rect x="294.09" y="956.38" width="4.83" height="7.49" class="up-body"/>
<line x1="303.93" y1="930.76" x2="303.93" y2="939.33" class="down-wick"/>
<rect x="301.52" y="931.13" width="4.83" height="6.14" class="down-body"/>
<line x1="311.36" y1="919.99" x2="311.36" y2="940.41" class="up-wick"/>
<rect x="308.95" y="922.33" width="4.83" height="17.94" class="up-body"/>
<line x1="318.79" y1="926.31" x2="318.79" y2="936.75" class="up-wick"/>
<rect x="316.37" y="929.54" width="4.83" height="2.11" class="up-body"/>
<line x1="326.21" y1="937.22" x2="326.21" y2="961.48" class="down-wick"/>
<rect x="323.80" y="937.32" width="4.83" height="6.14" class="down-body"/>
<line x1="333.64" y1="932.40" x2="333.64" y2="948.70" class="up-wick"/>
<rect x="331.23" y="936.05" width="4.83" height="12.65" class="up-body"/>
<line x1="341.07" y1="906.17" x2="341.07" y2="936.52" class="up-wick"/>
<rect x="338.65" y="911.42" width="4.83" height="25.10" class="up-body"/>
<line x1="348.49" y1="901.53" x2="348.49" y2="915.12" class="down-wick"/>
<rect x="346.08" y="912.77" width="4.83" height="1.17" class="down-body"/>
<line x1="355.92" y1="909.50" x2="355.92" y2="918.68" class="up-wick"/>
<rect x="353.51" y="913.48" width="4.83" height="1.00" class="up-body"/>
<line x1="363.35" y1="917.83" x2="363.35" y2="921.20" class="down-wick"/>
<rect x="360.93" y="919.80" width="4.83" height="1.00" class="down-body"/>
<line x1="370.77" y1="929.87" x2="370.77" y2="937.36" class="down-wick"/>
<rect x="368.36" y="929.87" width="4.83" height="4.82" class="down-body"/>
<line x1="378.20" y1="920.32" x2="378.20" y2="931.56" class="up-wick"/>
<rect x="375.78" y="920.50" width="4.83" height="10.35" class="up-body"/>
<line x1="385.62" y1="910.29" x2="385.62" y2="924.48" class="down-wick"/>
<rect x="383.21" y="910.57" width="4.83" height="13.82" class="down-body"/>
<line x1="393.05" y1="926.50" x2="393.05" y2="950.24" class="down-wick"/>
<rect x="390.64" y="928.51" width="4.83" height="21.73" class="down-body"/>
<line x1="400.48" y1="946.73" x2="400.48" y2="953.62" class="down-wick"/>
<rect x="398.06" y="946.73" width="4.83" height="4.03" class="down-body"/>
<line x1="407.90" y1="925.37" x2="407.90" y2="955.49" class="up-wick"/>
<rect x="405.49" y="926.03" width="4.83" height="23.75" class="up-body"/>
<line x1="415.33" y1="938.72" x2="415.33" y2="948.37" class="down-wick"/>
<rect x="412.92" y="942.94" width="4.83" height="1.31" class="down-body"/>
<line x1="422.76" y1="937.04" x2="422.76" y2="951.88" class="down-wick"/>
<rect x="420.34" y="950.01" width="4.83" height="1.83" class="down-body"/>
<line x1="430.18" y1="947.57" x2="430.18" y2="955.07" class="down-wick"/>
<rect x="427.77" y="947.90" width="4.83" height="3.93" class="down-body"/>
<line x1="437.61" y1="944.53" x2="437.61" y2="963.08" class="down-wick"/>
<rect x="435.20" y="944.72" width="4.83" height="14.66" class="down-body"/>
<line x1="445.04" y1="947.57" x2="445.04" y2="959.24" class="up-wick"/>
<rect x="442.62" y="951.55" width="4.83" height="6.51" class="up-body"/>
<line x1="452.46" y1="952.58" x2="452.46" y2="964.25" class="down-wick"/>
<rect x="450.05" y="952.63" width="4.83" height="4.82" class="down-body"/>
<line x1="459.89" y1="957.64" x2="459.89" y2="964.39" class="up-wick"/>
<rect x="457.48" y="959.24" width="4.83" height="3.23" class="up-body"/>
<line x1="467.32" y1="936.89" x2="467.32" y2="951.27" class="up-wick"/>
<rect x="464.90" y="937.27" width="4.83" height="9.18" class="up-body"/>
<line x1="474.74" y1="929.87" x2="474.74" y2="939.85" class="down-wick"/>
<rect x="472.33" y="934.41" width="4.83" height="3.04" class="down-body"/>
<line x1="482.17" y1="924.67" x2="482.17" y2="937.36" class="up-wick"/>
<rect x="479.76" y="926.17" width="4.83" height="10.07" class="up-body"/>
<line x1="489.60" y1="935.35" x2="489.60" y2="940.59" class="down-wick"/>
<rect x="487.18" y="936.43" width="4.83" height="2.06" class="down-body"/>
<line x1="497.02" y1="936.75" x2="497.02" y2="943.36" class="down-wick"/>
<rect x="494.61" y="937.88" width="4.83" height="1.97" class="down-body"/>
<line x1="504.45" y1="937.18" x2="504.45" y2="950.34" class="up-wick"/>
<rect x="502.03" y="938.72" width="4.83" height="3.56" class="up-body"/>
<line x1="511.88" y1="934.27" x2="511.88" y2="950.15" class="up-wick"/>
<rect x="509.46" y="934.37" width="4.83" height="12.36" class="up-body"/>
<line x1="519.30" y1="933.85" x2="519.30" y2="950.06" class="up-wick"/>
<rect x="516.89" y="934.04" width="4.83" height="12.88" class="up-body"/>
<line x1="526.73" y1="909.45" x2="526.73" y2="922.42" class="up-wick"/>
<rect x="524.31" y="913.15" width="4.83" height="5.06" class="up-body"/>
<line x1="534.15" y1="908.89" x2="534.15" y2="916.29" class="up-wick"/>
<rect x="531.74" y="908.89" width="4.83" height="3.42" class="up-body"/>
<line x1="541.58" y1="917.36" x2="541.58" y2="929.03" class="down-wick"/>
<rect x="539.17" y="919.80" width="4.83" height="7.54" class="down-body"/>
<line x1="549.01" y1="931.04" x2="549.01" y2="941.86" class="down-wick"/>
<rect x="546.59" y="932.68" width="4.83" height="3.04" class="down-body"/>
<line x1="556.43" y1="923.73" x2="556.43" y2="937.46" class="up-wick"/>
<rect x="554.02" y="931.56" width="4.83" height="5.81" class="up-body"/>
<line x1="563.86" y1="933.99" x2="563.86" y2="944.39" class="up-wick"/>
<rect x="561.45" y="936.47" width="4.83" height="7.73" class="up-body"/>
<line x1="571.29" y1="933.19" x2="571.29" y2="947.71" class="down-wick"/>
<rect x="568.87" y="933.94" width="4.83" height="7.26" class="down-body"/>
<line x1="578.71" y1="930.29" x2="578.71" y2="944.67" class="down-wick"/>
<rect x="576.30" y="940.27" width="4.83" height="1.00" class="down-body"/>
<line x1="586.14" y1="943.17" x2="586.14" y2="955.11" class="down-wick"/>
<rect x="583.73" y="944.29" width="4.83" height="8.52" class="down-body"/>
<line x1="593.57" y1="941.77" x2="593.57" y2="952.63" class="up-wick"/>
<rect x="591.15" y="946.82" width="4.83" height="5.34" class="up-body"/>
<line x1="600.99" y1="944.44" x2="600.99" y2="952.82" class="down-wick"/>
<rect x="598.58" y="945.47" width="4.83" height="7.17" class="down-body"/>
<line x1="608.42" y1="942.70" x2="608.42" y2="954.93" class="up-wick"/>
<rect x="606.01" y="945.28" width="4.83" height="6.60" class="up-body"/>
<line x1="615.85" y1="944.29" x2="615.85" y2="947.39" class="down-wick"/>
<rect x="613.43" y="946.07" width="4.83" height="1.00" class="down-body"/>
<line x1="623.27" y1="952.77" x2="623.27" y2="958.63" class="up-wick"/>
<rect x="620.86" y="956.66" width="4.83" height="1.00" class="up-body"/>
<line x1="630.70" y1="944.67" x2="630.70" y2="966.40" class="up-wick"/>
<rect x="628.28" y="945.84" width="4.83" height="9.37" class="up-body"/>
<line x1="638.12" y1="950.01" x2="638.12" y2="957.32" class="down-wick"/>
<rect x="635.71" y="952.21" width="4.83" height="2.90" class="down-body"/>
<line x1="645.55" y1="946.87" x2="645.55" y2="953.85" class="up-wick"/>
<rect x="643.14" y="949.17" width="4.83" height="4.68" class="up-body"/>
<line x1="652.98" y1="929.64" x2="652.98" y2="945.33" class="down-wick"/>
<rect x="650.56" y="930.76" width="4.83" height="6.18" class="down-body"/>
<line x1="660.40" y1="937.08" x2="660.40" y2="944.25" class="up-wick"/>
<rect x="657.99" y="941.72" width="4.83" height="1.64" class="up-body"/>
<line x1="667.83" y1="939.89" x2="667.83" y2="954.65" class="down-wick"/>
<rect x="665.42" y="941.25" width="4.83" height="9.55" class="down-body"/>
<line x1="675.26" y1="942.05" x2="675.26" y2="952.12" class="down-wick"/>
<rect x="672.84" y="949.26" width="4.83" height="2.25" class="down-body"/>
<line x1="682.68" y1="945.28" x2="682.68" y2="957.55" class="up-wick"/>
<rect x="680.27" y="945.98" width="4.83" height="11.43" class="up-body"/>
<line x1="690.11" y1="949.07" x2="690.11" y2="956.85" class="down-wick"/>
<rect x="687.70" y="954.65" width="4.83" height="1.12" class="down-body"/>
<line x1="697.54" y1="962.61" x2="697.54" y2="971.32" class="down-wick"/>
<rect x="695.12" y="964.43" width="4.83" height="1.69" class="down-body"/>
<line x1="704.96" y1="943.45" x2="704.96" y2="958.63" class="up-wick"/>
<rect x="702.55" y="948.37" width="4.83" height="10.26" class="up-body"/>
<line x1="712.39" y1="918.44" x2="712.39" y2="935.68" class="up-wick"/>
<rect x="709.98" y="922.66" width="4.83" height="13.02" class="up-body"/>
<line x1="719.82" y1="898.30" x2="719.82" y2="916.62" class="down-wick"/>
<rect x="717.40" y="907.58" width="4.83" height="7.12" class="down-body"/>
<line x1="727.24" y1="913.90" x2="727.24" y2="920.97" class="up-wick"/>
<rect x="724.83" y="915.68" width="4.83" height="4.64" class="up-body"/>
<line x1="734.67" y1="916.05" x2="734.67" y2="921.77" class="up-wick"/>
<rect x="732.26" y="920.88" width="4.83" height="1.00" class="up-body"/>
<line x1="742.10" y1="922.09" x2="742.10" y2="932.59" class="down-wick"/>
<rect x="739.68" y="922.09" width="4.83" height="10.30" class="down-body"/>
<line x1="749.52" y1="916.05" x2="749.52" y2="919.71" class="up-wick"/>
<rect x="747.11" y="916.05" width="4.83" height="1.00" class="up-body"/>
<line x1="756.95" y1="910.81" x2="756.95" y2="915.63" class="up-wick"/>
<rect x="754.53" y="915.02" width="4.83" height="1.00" class="up-body"/>
<line x1="764.38" y1="906.08" x2="764.38" y2="914.23" class="down-wick"/>
<rect x="761.96" y="910.48" width="4.83" height="3.47" class="down-body"/>
<line x1="771.80" y1="910.15" x2="771.80" y2="913.99" class="down-wick"/>
<rect x="769.39" y="911.65" width="4.83" height="1.03" class="down-body"/>
<line x1="779.23" y1="899.52" x2="779.23" y2="911.65" class="up-wick"/>
<rect x="776.81" y="903.92" width="4.83" height="3.75" class="up-body"/>
<line x1="786.65" y1="859.24" x2="786.65" y2="874.70" class="down-wick"/>
<rect x="784.24" y="873.01" width="4.83" height="1.36" class="down-body"/>
<line x1="794.08" y1="867.34" x2="794.08" y2="877.65" class="down-wick"/>
<rect x="791.67" y="870.48" width="4.83" height="3.47" class="down-body"/>
<line x1="801.51" y1="885.00" x2="801.51" y2="893.29" class="down-wick"/>
<rect x="799.09" y="890.39" width="4.83" height="1.00" class="down-body"/>
<line x1="808.93" y1="887.72" x2="808.93" y2="892.68" class="down-wick"/>
<rect x="806.52" y="887.76" width="4.83" height="2.15" class="down-body"/>
<line x1="816.36" y1="879.76" x2="816.36" y2="890.29" class="up-wick"/>
<rect x="813.95" y="880.08" width="4.83" height="9.88" class="up-body"/>
<line x1="823.79" y1="878.49" x2="823.79" y2="888.51" class="down-wick"/>
<rect x="821.37" y="881.72" width="4.83" height="6.70" class="down-body"/>
<line x1="831.21" y1="889.50" x2="831.21" y2="893.29" class="down-wick"/>
<rect x="828.80" y="889.50" width="4.83" height="3.79" class="down-body"/>
<line x1="838.64" y1="891.42" x2="838.64" y2="897.69" class="down-wick"/>
<rect x="836.23" y="891.42" width="4.83" height="2.34" class="down-body"/>
<line x1="846.07" y1="892.59" x2="846.07" y2="901.86" class="down-wick"/>
<rect x="843.65" y="899.33" width="4.83" height="2.11" class="down-body"/>
<line x1="853.49" y1="911.42" x2="853.49" y2="931.46" class="down-wick"/>
<rect x="851.08" y="912.03" width="4.83" height="7.21" class="down-body"/>
<line x1="860.92" y1="934.55" x2="860.92" y2="945.61" class="up-wick"/>
<rect x="858.51" y="936.80" width="4.83" height="5.76" class="up-body"/>
<line x1="868.35" y1="923.92" x2="868.35" y2="929.92" class="down-wick"/>
<rect x="865.93" y="925.47" width="4.83" height="1.00" class="down-body"/>
<line x1="875.77" y1="934.79" x2="875.77" y2="952.44" class="down-wick"/>
<rect x="873.36" y="935.16" width="4.83" height="8.20" class="down-body"/>
<line x1="883.20" y1="923.17" x2="883.20" y2="931.70" class="down-wick"/>
<rect x="880.78" y="924.34" width="4.83" height="4.92" class="down-body"/>
<line x1="890.62" y1="920.41" x2="890.62" y2="931.42" class="down-wick"/>
<rect x="888.21" y="920.41" width="4.83" height="10.73" class="down-body"/>
<line x1="898.05" y1="938.30" x2="898.05" y2="946.26" class="down-wick"/>
<rect x="895.64" y="940.31" width="4.83" height="3.00" class="down-body"/>
<line x1="905.48" y1="939.80" x2="905.48" y2="945.00" class="up-wick"/>
<rect x="903.06" y="941.77" width="4.83" height="3.00" class="up-body"/>
<line x1="912.90" y1="940.31" x2="912.90" y2="947.57" class="down-wick"/>
<rect x="910.49" y="940.41" width="4.83" height="6.23" class="down-body"/>
<line x1="920.33" y1="937.78" x2="920.33" y2="949.63" class="down-wick"/>
<rect x="917.92" y="938.07" width="4.83" height="10.58" class="down-body"/>
<line x1="927.76" y1="957.69" x2="927.76" y2="970.29" class="up-wick"/>
<rect x="925.34" y="966.64" width="4.83" height="1.50" class="up-body"/>
<line x1="935.18" y1="976.75" x2="935.18" y2="995.44" class="up-wick"/>
<rect x="932.77" y="978.86" width="4.83" height="14.14" class="up-body"/>
<line x1="942.61" y1="986.63" x2="942.61" y2="1007.99" class="up-wick"/>
<rect x="940.20" y="987.10" width="4.83" height="10.63" class="up-body"/>
<line x1="950.04" y1="987.95" x2="950.04" y2="994.83" class="up-wick"/>
<rect x="947.62" y="989.63" width="4.83" height="3.28" class="up-body"/>
<line x1="957.46" y1="976.94" x2="957.46" y2="991.51" class="up-wick"/>
<rect x="955.05" y="982.61" width="4.83" height="8.90" class="up-body"/>
<line x1="964.89" y1="961.81" x2="964.89" y2="982.04" class="up-wick"/>
<rect x="962.48" y="966.26" width="4.83" height="15.64" class="up-body"/>
<line x1="972.32" y1="948.79" x2="972.32" y2="957.83" class="up-wick"/>
<rect x="969.90" y="953.38" width="4.83" height="2.90" class="up-body"/>
<line x1="979.74" y1="953.66" x2="979.74" y2="966.03" class="up-wick"/>
<rect x="977.33" y="953.71" width="4.83" height="3.51" class="up-body"/>
<line x1="987.17" y1="947.53" x2="987.17" y2="954.79" class="up-wick"/>
<rect x="984.76" y="949.35" width="4.83" height="2.29" class="up-body"/>
<line x1="994.60" y1="934.23" x2="994.60" y2="949.17" class="up-wick"/>
<rect x="992.18" y="938.72" width="4.83" height="10.07" class="up-body"/>
<line x1="1002.02" y1="924.20" x2="1002.02" y2="944.81" class="down-wick"/>
<rect x="999.61" y="938.44" width="4.83" height="1.00" class="down-body"/>
<line x1="1009.45" y1="922.75" x2="1009.45" y2="937.60" class="up-wick"/>
<rect x="1007.03" y="924.67" width="4.83" height="12.22" class="up-body"/>
<line x1="1016.88" y1="918.02" x2="1016.88" y2="926.08" class="up-wick"/>
<rect x="1014.46" y="921.06" width="4.83" height="5.01" class="up-body"/>
<line x1="1024.30" y1="917.65" x2="1024.30" y2="924.53" class="up-wick"/>
<rect x="1021.89" y="921.58" width="4.83" height="1.12" class="up-body"/>
<line x1="1031.73" y1="917.27" x2="1031.73" y2="922.98" class="up-wick"/>
<rect x="1029.31" y="918.96" width="4.83" height="1.00" class="up-body"/>
<line x1="1039.15" y1="911.70" x2="1039.15" y2="928.42" class="up-wick"/>
<rect x="1036.74" y="911.74" width="4.83" height="5.85" class="up-body"/>
<line x1="1046.58" y1="901.07" x2="1046.58" y2="911.51" class="up-wick"/>
<rect x="1044.17" y="903.92" width="4.83" height="4.22" class="up-body"/>
<line x1="1054.01" y1="908.70" x2="1054.01" y2="920.13" class="down-wick"/>
<rect x="1051.59" y="908.70" width="4.83" height="6.42" class="down-body"/>
<line x1="1061.43" y1="912.49" x2="1061.43" y2="916.52" class="up-wick"/>
<rect x="1059.02" y="912.63" width="4.83" height="3.56" class="up-body"/>
<line x1="1068.86" y1="915.77" x2="1068.86" y2="918.72" class="up-wick"/>
<rect x="1066.45" y="916.47" width="4.83" height="1.00" class="up-body"/>
<line x1="1076.29" y1="907.39" x2="1076.29" y2="918.77" class="down-wick"/>
<rect x="1073.87" y="913.48" width="4.83" height="5.11" class="down-body"/>
<line x1="70" y1="903.83" x2="1080" y2="903.83" class="sweep-line"/>
<text x="1076" y="899.83" text-anchor="end" class="level-label">sweep 4929.94</text>
<line x1="70" y1="901.53" x2="1080" y2="901.53" class="entry-line"/>
<text x="1076" y="897.53" text-anchor="end" class="level-label">entry level 4930.43</text>
<text x="70" y="1056" class="axis-label">2026-02-17 09:00:00+00:00 to 2026-02-17 13:30:00+00:00</text>
<text x="1080" y="1056" text-anchor="end" class="axis-label">4901.29 - 4942.29</text>
</svg>