<svg xmlns="http://www.w3.org/2000/svg" width="1120" height="1054" viewBox="0 0 1120 1054">
<style>
text{font-family:Arial,Helvetica,sans-serif}.title{font-size:21px;font-weight:700;fill:#1f2937}.subtitle{font-size:12px;fill:#4b5563}.panel-title{font-size:15px;font-weight:700;fill:#111827}.muted{font-size:13px;fill:#6b7280}.plot-bg{fill:#f8fafc;stroke:#cbd5e1;stroke-width:1}.up-body{fill:#15803d;stroke:#14532d;stroke-width:.8}.down-body{fill:#b91c1c;stroke:#7f1d1d;stroke-width:.8}.up-wick{stroke:#14532d;stroke-width:1}.down-wick{stroke:#7f1d1d;stroke-width:1}.sweep-line{stroke:#7c3aed;stroke-width:1.6;stroke-dasharray:6 4}.number-line{stroke:#0f766e;stroke-width:1.4;stroke-dasharray:3 4}.entry-line{stroke:#2563eb;stroke-width:1.4}.sl-line{stroke:#dc2626;stroke-width:1.4}.tp-line{stroke:#16a34a;stroke-width:1.4}.level-label,.axis-label{font-size:11px;fill:#374151}
</style>
<text x="28" y="28" class="title">Adelin v2 visual review sample sample_220</text>
<text x="28" y="48" class="subtitle">Candidate windows are for visual labeling only and are not trade signals.</text>
<text x="560" y="48" class="subtitle" text-anchor="middle">M15_SWING_HIGH_SWEEP_VISUAL_CANDIDATE | LARGE_UPPER_WICK_REVERSAL_VISUAL_CANDIDATE | PRE_ANCHOR_SWEEP_EXTREME_CANDIDATE</text>
<text x="70" y="82" class="panel-title">H1 liquidity context</text>
<rect x="70" y="96" width="1010" height="192" class="plot-bg"/>
<line x1="81.48" y1="135.43" x2="81.48" y2="168.68" class="down-wick"/>
<rect x="77.48" y="137.35" width="8.00" height="24.80" class="down-body"/>
<line x1="104.43" y1="147.88" x2="104.43" y2="196.38" class="down-wick"/>
<rect x="100.43" y="162.14" width="8.00" height="13.11" class="down-body"/>
<line x1="127.39" y1="134.55" x2="127.39" y2="177.67" class="up-wick"/>
<rect x="123.39" y="144.38" width="8.00" height="30.87" class="up-body"/>
<line x1="150.34" y1="137.94" x2="150.34" y2="168.97" class="down-wick"/>
<rect x="146.34" y="144.47" width="8.00" height="21.39" class="down-body"/>
<line x1="173.30" y1="155.60" x2="173.30" y2="178.51" class="down-wick"/>
<rect x="169.30" y="165.87" width="8.00" height="9.28" class="down-body"/>
<line x1="196.25" y1="157.30" x2="196.25" y2="226.96" class="down-wick"/>
<rect x="192.25" y="175.15" width="8.00" height="18.81" class="down-body"/>
<line x1="219.20" y1="143.81" x2="219.20" y2="206.21" class="up-wick"/>
<rect x="215.20" y="149.49" width="8.00" height="44.53" class="up-body"/>
<line x1="242.16" y1="148.67" x2="242.16" y2="193.60" class="down-wick"/>
<rect x="238.16" y="149.28" width="8.00" height="35.01" class="down-body"/>
<line x1="265.11" y1="171.78" x2="265.11" y2="200.23" class="up-wick"/>
<rect x="261.11" y="177.40" width="8.00" height="6.88" class="up-body"/>
<line x1="288.07" y1="146.88" x2="288.07" y2="179.25" class="up-wick"/>
<rect x="284.07" y="154.29" width="8.00" height="23.17" class="up-body"/>
<line x1="311.02" y1="148.96" x2="311.02" y2="165.27" class="down-wick"/>
<rect x="307.02" y="154.17" width="8.00" height="1.00" class="down-body"/>
<line x1="333.98" y1="153.33" x2="333.98" y2="176.52" class="down-wick"/>
<rect x="329.98" y="154.72" width="8.00" height="20.44" class="down-body"/>
<line x1="356.93" y1="161.43" x2="356.93" y2="239.18" class="up-wick"/>
<rect x="352.93" y="174.65" width="8.00" height="11.17" class="up-body"/>
<line x1="379.89" y1="171.76" x2="379.89" y2="196.42" class="down-wick"/>
<rect x="375.89" y="174.65" width="8.00" height="13.75" class="down-body"/>
<line x1="402.84" y1="180.18" x2="402.84" y2="274.76" class="down-wick"/>
<rect x="398.84" y="188.37" width="8.00" height="32.15" class="down-body"/>
<line x1="425.80" y1="190.48" x2="425.80" y2="260.66" class="up-wick"/>
<rect x="421.80" y="206.15" width="8.00" height="15.16" class="up-body"/>
<line x1="448.75" y1="179.69" x2="448.75" y2="211.48" class="up-wick"/>
<rect x="444.75" y="193.60" width="8.00" height="12.55" class="up-body"/>
<line x1="471.70" y1="171.99" x2="471.70" y2="206.52" class="up-wick"/>
<rect x="467.70" y="182.23" width="8.00" height="11.36" class="up-body"/>
<line x1="494.66" y1="169.12" x2="494.66" y2="199.23" class="down-wick"/>
<rect x="490.66" y="182.25" width="8.00" height="1.00" class="down-body"/>
<line x1="517.61" y1="165.72" x2="517.61" y2="199.38" class="down-wick"/>
<rect x="513.61" y="182.99" width="8.00" height="14.83" class="down-body"/>
<line x1="540.57" y1="171.66" x2="540.57" y2="199.73" class="up-wick"/>
<rect x="536.57" y="173.69" width="8.00" height="24.13" class="up-body"/>
<line x1="563.52" y1="153.79" x2="563.52" y2="186.68" class="down-wick"/>
<rect x="559.52" y="173.69" width="8.00" height="1.00" class="down-body"/>
<line x1="586.48" y1="158.24" x2="586.48" y2="179.97" class="up-wick"/>
<rect x="582.48" y="168.86" width="8.00" height="5.67" class="up-body"/>
<line x1="609.43" y1="165.85" x2="609.43" y2="183.92" class="down-wick"/>
<rect x="605.43" y="168.86" width="8.00" height="10.68" class="down-body"/>
<line x1="632.39" y1="172.20" x2="632.39" y2="196.30" class="down-wick"/>
<rect x="628.39" y="179.54" width="8.00" height="4.13" class="down-body"/>
<line x1="655.34" y1="142.73" x2="655.34" y2="199.48" class="up-wick"/>
<rect x="651.34" y="167.89" width="8.00" height="15.79" class="up-body"/>
<line x1="678.30" y1="130.95" x2="678.30" y2="176.00" class="up-wick"/>
<rect x="674.30" y="136.62" width="8.00" height="31.28" class="up-body"/>
<line x1="701.25" y1="116.79" x2="701.25" y2="150.86" class="up-wick"/>
<rect x="697.25" y="129.49" width="8.00" height="7.14" class="up-body"/>
<line x1="724.20" y1="129.49" x2="724.20" y2="187.32" class="down-wick"/>
<rect x="720.20" y="129.49" width="8.00" height="44.68" class="down-body"/>
<line x1="747.16" y1="171.96" x2="747.16" y2="196.39" class="down-wick"/>
<rect x="743.16" y="174.19" width="8.00" height="4.41" class="down-body"/>
<line x1="770.11" y1="162.11" x2="770.11" y2="193.23" class="up-wick"/>
<rect x="766.11" y="168.54" width="8.00" height="10.06" class="up-body"/>
<line x1="793.07" y1="156.22" x2="793.07" y2="175.59" class="down-wick"/>
<rect x="789.07" y="168.54" width="8.00" height="4.88" class="down-body"/>
<line x1="816.02" y1="172.19" x2="816.02" y2="193.05" class="down-wick"/>
<rect x="812.02" y="173.42" width="8.00" height="16.82" class="down-body"/>
<line x1="838.98" y1="146.01" x2="838.98" y2="191.10" class="up-wick"/>
<rect x="834.98" y="156.05" width="8.00" height="34.19" class="up-body"/>
<line x1="861.93" y1="125.83" x2="861.93" y2="144.70" class="up-wick"/>
<rect x="857.93" y="132.56" width="8.00" height="11.38" class="up-body"/>
<line x1="884.89" y1="109.61" x2="884.89" y2="132.85" class="up-wick"/>
<rect x="880.89" y="120.56" width="8.00" height="12.03" class="up-body"/>
<line x1="907.84" y1="109.24" x2="907.84" y2="151.69" class="down-wick"/>
<rect x="903.84" y="120.56" width="8.00" height="27.93" class="down-body"/>
<line x1="930.80" y1="134.71" x2="930.80" y2="162.57" class="up-wick"/>
<rect x="926.80" y="147.85" width="8.00" height="1.00" class="up-body"/>
<line x1="953.75" y1="147.85" x2="953.75" y2="174.95" class="down-wick"/>
<rect x="949.75" y="147.85" width="8.00" height="25.28" class="down-body"/>
<line x1="976.70" y1="161.08" x2="976.70" y2="178.60" class="down-wick"/>
<rect x="972.70" y="173.13" width="8.00" height="3.19" class="down-body"/>
<line x1="999.66" y1="175.39" x2="999.66" y2="187.02" class="down-wick"/>
<rect x="995.66" y="176.32" width="8.00" height="4.04" class="down-body"/>
<line x1="1022.61" y1="174.01" x2="1022.61" y2="197.90" class="down-wick"/>
<rect x="1018.61" y="180.33" width="8.00" height="2.34" class="down-body"/>
<line x1="1045.57" y1="162.89" x2="1045.57" y2="193.99" class="up-wick"/>
<rect x="1041.57" y="171.64" width="8.00" height="11.03" class="up-body"/>
<line x1="1068.52" y1="154.76" x2="1068.52" y2="181.91" class="up-wick"/>
<rect x="1064.52" y="157.89" width="8.00" height="13.75" class="up-body"/>
<line x1="70" y1="165.72" x2="1080" y2="165.72" class="sweep-line"/>
<text x="1076" y="161.72" text-anchor="end" class="level-label">sweep 4552.07</text>
<line x1="70" y1="169.70" x2="1080" y2="169.70" class="entry-line"/>
<text x="1076" y="165.70" text-anchor="end" class="level-label">entry level 4549.45</text>
<text x="70" y="306" class="axis-label">2026-05-15 11:00:00+00:00 to 2026-05-19 10:00:00+00:00</text>
<text x="1080" y="306" text-anchor="end" class="axis-label">4471.58 - 4597.96</text>
<text x="70" y="332" class="panel-title">M15 liquidity / reaction context</text>
<rect x="70" y="346" width="1010" height="192" class="plot-bg"/>
<line x1="78.02" y1="400.87" x2="78.02" y2="485.86" class="up-wick"/>
<rect x="74.02" y="411.70" width="8.00" height="15.83" class="up-body"/>
<line x1="94.05" y1="408.95" x2="94.05" y2="428.79" class="down-wick"/>
<rect x="90.05" y="411.70" width="8.00" height="12.11" class="down-body"/>
<line x1="110.08" y1="402.69" x2="110.08" y2="423.97" class="up-wick"/>
<rect x="106.08" y="409.02" width="8.00" height="14.77" class="up-body"/>
<line x1="126.11" y1="401.28" x2="126.11" y2="419.50" class="down-wick"/>
<rect x="122.11" y="409.02" width="8.00" height="6.30" class="down-body"/>
<line x1="142.14" y1="412.16" x2="142.14" y2="426.44" class="down-wick"/>
<rect x="138.14" y="415.32" width="8.00" height="7.61" class="down-body"/>
<line x1="158.17" y1="418.37" x2="158.17" y2="429.17" class="down-wick"/>
<rect x="154.17" y="422.91" width="8.00" height="6.05" class="down-body"/>
<line x1="174.21" y1="423.24" x2="174.21" y2="438.04" class="up-wick"/>
<rect x="170.21" y="427.03" width="8.00" height="1.93" class="up-body"/>
<line x1="190.24" y1="418.74" x2="190.24" y2="439.12" class="down-wick"/>
<rect x="186.24" y="427.16" width="8.00" height="3.19" class="down-body"/>
<line x1="206.27" y1="421.36" x2="206.27" y2="453.92" class="down-wick"/>
<rect x="202.27" y="430.31" width="8.00" height="18.05" class="down-body"/>
<line x1="222.30" y1="436.19" x2="222.30" y2="468.17" class="down-wick"/>
<rect x="218.30" y="448.37" width="8.00" height="17.47" class="down-body"/>
<line x1="238.33" y1="460.30" x2="238.33" y2="524.56" class="down-wick"/>
<rect x="234.33" y="465.84" width="8.00" height="56.76" class="down-body"/>
<line x1="254.37" y1="464.30" x2="254.37" y2="524.76" class="up-wick"/>
<rect x="250.37" y="465.46" width="8.00" height="57.14" class="up-body"/>
<line x1="270.40" y1="465.18" x2="270.40" y2="509.34" class="down-wick"/>
<rect x="266.40" y="466.33" width="8.00" height="32.37" class="down-body"/>
<line x1="286.43" y1="475.43" x2="286.43" y2="503.86" class="up-wick"/>
<rect x="282.43" y="485.36" width="8.00" height="13.35" class="up-body"/>
<line x1="302.46" y1="469.03" x2="302.46" y2="492.37" class="up-wick"/>
<rect x="298.46" y="471.19" width="8.00" height="14.17" class="up-body"/>
<line x1="318.49" y1="432.62" x2="318.49" y2="473.78" class="up-wick"/>
<rect x="314.49" y="449.75" width="8.00" height="21.44" class="up-body"/>
<line x1="334.52" y1="427.96" x2="334.52" y2="455.58" class="up-wick"/>
<rect x="330.52" y="431.11" width="8.00" height="18.64" class="up-body"/>
<line x1="350.56" y1="424.44" x2="350.56" y2="439.04" class="down-wick"/>
<rect x="346.56" y="431.11" width="8.00" height="5.23" class="down-body"/>
<line x1="366.59" y1="423.64" x2="366.59" y2="443.04" class="up-wick"/>
<rect x="362.59" y="431.84" width="8.00" height="4.50" class="up-body"/>
<line x1="382.62" y1="420.83" x2="382.62" y2="441.48" class="down-wick"/>
<rect x="378.62" y="431.84" width="8.00" height="4.19" class="down-body"/>
<line x1="398.65" y1="432.56" x2="398.65" y2="447.64" class="down-wick"/>
<rect x="394.65" y="436.03" width="8.00" height="6.76" class="down-body"/>
<line x1="414.68" y1="428.21" x2="414.68" y2="445.00" class="up-wick"/>
<rect x="410.68" y="432.27" width="8.00" height="10.51" class="up-body"/>
<line x1="430.71" y1="412.41" x2="430.71" y2="450.16" class="up-wick"/>
<rect x="426.71" y="416.06" width="8.00" height="16.21" class="up-body"/>
<line x1="446.75" y1="412.59" x2="446.75" y2="426.64" class="down-wick"/>
<rect x="442.75" y="416.06" width="8.00" height="7.54" class="down-body"/>
<line x1="462.78" y1="409.27" x2="462.78" y2="423.97" class="up-wick"/>
<rect x="458.78" y="418.32" width="8.00" height="5.30" class="up-body"/>
<line x1="478.81" y1="413.75" x2="478.81" y2="442.19" class="down-wick"/>
<rect x="474.81" y="418.32" width="8.00" height="19.40" class="down-body"/>
<line x1="494.84" y1="418.49" x2="494.84" y2="438.55" class="up-wick"/>
<rect x="490.84" y="422.74" width="8.00" height="15.08" class="up-body"/>
<line x1="510.87" y1="416.16" x2="510.87" y2="433.62" class="down-wick"/>
<rect x="506.87" y="422.74" width="8.00" height="1.73" class="down-body"/>
<line x1="526.90" y1="420.83" x2="526.90" y2="437.29" class="down-wick"/>
<rect x="522.90" y="424.44" width="8.00" height="4.07" class="down-body"/>
<line x1="542.94" y1="407.86" x2="542.94" y2="434.05" class="up-wick"/>
<rect x="538.94" y="411.00" width="8.00" height="17.51" class="up-body"/>
<line x1="558.97" y1="405.55" x2="558.97" y2="428.19" class="down-wick"/>
<rect x="554.97" y="411.00" width="8.00" height="15.26" class="down-body"/>
<line x1="575.00" y1="420.50" x2="575.00" y2="442.36" class="down-wick"/>
<rect x="571.00" y="426.26" width="8.00" height="14.38" class="down-body"/>
<line x1="591.03" y1="424.77" x2="591.03" y2="442.74" class="up-wick"/>
<rect x="587.03" y="429.85" width="8.00" height="10.80" class="up-body"/>
<line x1="607.06" y1="412.04" x2="607.06" y2="434.78" class="up-wick"/>
<rect x="603.06" y="429.63" width="8.00" height="1.00" class="up-body"/>
<line x1="623.10" y1="413.77" x2="623.10" y2="434.62" class="up-wick"/>
<rect x="619.10" y="424.40" width="8.00" height="5.22" class="up-body"/>
<line x1="639.13" y1="412.74" x2="639.13" y2="428.02" class="up-wick"/>
<rect x="635.13" y="414.27" width="8.00" height="10.13" class="up-body"/>
<line x1="655.16" y1="409.90" x2="655.16" y2="422.23" class="down-wick"/>
<rect x="651.16" y="414.27" width="8.00" height="5.30" class="down-body"/>
<line x1="671.19" y1="406.61" x2="671.19" y2="428.47" class="up-wick"/>
<rect x="667.19" y="408.02" width="8.00" height="11.54" class="up-body"/>
<line x1="687.22" y1="392.51" x2="687.22" y2="412.56" class="down-wick"/>
<rect x="683.22" y="408.02" width="8.00" height="2.56" class="down-body"/>
<line x1="703.25" y1="406.00" x2="703.25" y2="425.50" class="down-wick"/>
<rect x="699.25" y="410.58" width="8.00" height="4.60" class="down-body"/>
<line x1="719.29" y1="410.86" x2="719.29" y2="421.13" class="up-wick"/>
<rect x="715.29" y="414.70" width="8.00" height="1.00" class="up-body"/>
<line x1="735.32" y1="406.50" x2="735.32" y2="420.95" class="up-wick"/>
<rect x="731.32" y="412.33" width="8.00" height="2.38" class="up-body"/>
<line x1="751.35" y1="403.81" x2="751.35" y2="415.33" class="up-wick"/>
<rect x="747.35" y="412.24" width="8.00" height="1.00" class="up-body"/>
<line x1="767.38" y1="397.38" x2="767.38" y2="412.26" class="up-wick"/>
<rect x="763.38" y="408.99" width="8.00" height="3.27" class="up-body"/>
<line x1="783.41" y1="405.70" x2="783.41" y2="423.46" class="down-wick"/>
<rect x="779.41" y="408.99" width="8.00" height="6.15" class="down-body"/>
<line x1="799.44" y1="410.75" x2="799.44" y2="418.04" class="down-wick"/>
<rect x="795.44" y="415.12" width="8.00" height="2.16" class="down-body"/>
<line x1="815.48" y1="414.87" x2="815.48" y2="424.44" class="down-wick"/>
<rect x="811.48" y="417.54" width="8.00" height="3.16" class="down-body"/>
<line x1="831.51" y1="417.84" x2="831.51" y2="425.45" class="down-wick"/>
<rect x="827.51" y="420.65" width="8.00" height="1.00" class="down-body"/>
<line x1="847.54" y1="417.24" x2="847.54" y2="432.74" class="down-wick"/>
<rect x="843.54" y="420.66" width="8.00" height="6.23" class="down-body"/>
<line x1="863.57" y1="421.58" x2="863.57" y2="428.75" class="up-wick"/>
<rect x="859.57" y="426.15" width="8.00" height="1.00" class="up-body"/>
<line x1="879.60" y1="418.79" x2="879.60" y2="438.99" class="up-wick"/>
<rect x="875.60" y="419.20" width="8.00" height="6.94" class="up-body"/>
<line x1="895.63" y1="412.64" x2="895.63" y2="430.98" class="down-wick"/>
<rect x="891.63" y="419.20" width="8.00" height="5.98" class="down-body"/>
<line x1="911.67" y1="422.64" x2="911.67" y2="442.46" class="down-wick"/>
<rect x="907.67" y="425.18" width="8.00" height="1.25" class="down-body"/>
<line x1="927.70" y1="425.22" x2="927.70" y2="439.02" class="down-wick"/>
<rect x="923.70" y="426.43" width="8.00" height="5.35" class="down-body"/>
<line x1="943.73" y1="380.42" x2="943.73" y2="433.12" class="up-wick"/>
<rect x="939.73" y="388.84" width="8.00" height="43.02" class="up-body"/>
<line x1="959.76" y1="384.99" x2="959.76" y2="409.79" class="down-wick"/>
<rect x="955.76" y="388.87" width="8.00" height="19.05" class="down-body"/>
<line x1="975.79" y1="398.16" x2="975.79" y2="413.04" class="up-wick"/>
<rect x="971.79" y="403.27" width="8.00" height="4.67" class="up-body"/>
<line x1="991.83" y1="400.37" x2="991.83" y2="416.79" class="down-wick"/>
<rect x="987.83" y="403.27" width="8.00" height="4.67" class="down-body"/>
<line x1="1007.86" y1="375.73" x2="1007.86" y2="408.57" class="up-wick"/>
<rect x="1003.86" y="376.00" width="8.00" height="31.94" class="up-body"/>
<line x1="1023.89" y1="367.55" x2="1023.89" y2="388.14" class="up-wick"/>
<rect x="1019.89" y="373.74" width="8.00" height="2.26" class="up-body"/>
<line x1="1039.92" y1="364.32" x2="1039.92" y2="389.31" class="down-wick"/>
<rect x="1035.92" y="373.76" width="8.00" height="5.90" class="down-body"/>
<line x1="1055.95" y1="365.27" x2="1055.95" y2="385.82" class="up-wick"/>
<rect x="1051.95" y="372.43" width="8.00" height="7.23" class="up-body"/>
<line x1="1071.98" y1="359.24" x2="1071.98" y2="384.47" class="down-wick"/>
<rect x="1067.98" y="372.43" width="8.00" height="9.42" class="down-body"/>
<line x1="70" y1="405.55" x2="1080" y2="405.55" class="sweep-line"/>
<text x="1076" y="401.55" text-anchor="end" class="level-label">sweep 4552.07</text>
<line x1="70" y1="409.90" x2="1080" y2="409.90" class="entry-line"/>
<text x="1076" y="405.90" text-anchor="end" class="level-label">entry level 4549.45</text>
<text x="70" y="556" class="axis-label">2026-05-18 01:00:00+00:00 to 2026-05-18 16:30:00+00:00</text>
<text x="1080" y="556" text-anchor="end" class="axis-label">4472.33 - 4587.92</text>
<text x="70" y="582" class="panel-title">M5 reaction / execution context</text>
<rect x="70" y="596" width="1010" height="192" class="plot-bg"/>
<line x1="79.18" y1="721.56" x2="79.18" y2="774.76" class="up-wick"/>
<rect x="75.18" y="743.45" width="8.00" height="24.41" class="up-body"/>
<line x1="97.55" y1="715.54" x2="97.55" y2="753.80" class="up-wick"/>
<rect x="93.55" y="729.11" width="8.00" height="14.34" class="up-body"/>
<line x1="115.91" y1="727.58" x2="115.91" y2="760.36" class="down-wick"/>
<rect x="111.91" y="729.11" width="8.00" height="3.17" class="down-body"/>
<line x1="134.27" y1="709.68" x2="134.27" y2="748.27" class="down-wick"/>
<rect x="130.27" y="732.28" width="8.00" height="6.02" class="down-body"/>
<line x1="152.64" y1="695.50" x2="152.64" y2="748.54" class="up-wick"/>
<rect x="148.64" y="699.61" width="8.00" height="38.64" class="up-body"/>
<line x1="171.00" y1="673.61" x2="171.00" y2="733.54" class="down-wick"/>
<rect x="167.00" y="699.61" width="8.00" height="31.96" class="down-body"/>
<line x1="189.36" y1="679.30" x2="189.36" y2="747.99" class="up-wick"/>
<rect x="185.36" y="718.44" width="8.00" height="13.08" class="up-body"/>
<line x1="207.73" y1="706.50" x2="207.73" y2="730.04" class="down-wick"/>
<rect x="203.73" y="718.44" width="8.00" height="10.40" class="down-body"/>
<line x1="226.09" y1="713.57" x2="226.09" y2="745.04" class="up-wick"/>
<rect x="222.09" y="714.33" width="8.00" height="14.50" class="up-body"/>
<line x1="244.45" y1="683.95" x2="244.45" y2="726.26" class="up-wick"/>
<rect x="240.45" y="697.58" width="8.00" height="16.75" class="up-body"/>
<line x1="262.82" y1="684.72" x2="262.82" y2="703.93" class="up-wick"/>
<rect x="258.82" y="686.03" width="8.00" height="11.55" class="up-body"/>
<line x1="281.18" y1="675.91" x2="281.18" y2="692.49" class="up-wick"/>
<rect x="277.18" y="680.94" width="8.00" height="5.09" class="up-body"/>
<line x1="299.55" y1="666.55" x2="299.55" y2="698.79" class="down-wick"/>
<rect x="295.55" y="680.94" width="8.00" height="15.87" class="down-body"/>
<line x1="317.91" y1="674.54" x2="317.91" y2="700.48" class="up-wick"/>
<rect x="313.91" y="683.57" width="8.00" height="13.25" class="up-body"/>
<line x1="336.27" y1="683.63" x2="336.27" y2="707.16" class="down-wick"/>
<rect x="332.27" y="683.63" width="8.00" height="14.78" class="down-body"/>
<line x1="354.64" y1="686.36" x2="354.64" y2="708.75" class="down-wick"/>
<rect x="350.64" y="698.40" width="8.00" height="9.25" class="down-body"/>
<line x1="373.00" y1="706.56" x2="373.00" y2="727.74" class="down-wick"/>
<rect x="369.00" y="707.38" width="8.00" height="14.50" class="down-body"/>
<line x1="391.36" y1="655.71" x2="391.36" y2="722.71" class="up-wick"/>
<rect x="387.36" y="660.36" width="8.00" height="61.52" class="up-body"/>
<line x1="409.73" y1="609.24" x2="409.73" y2="660.58" class="up-wick"/>
<rect x="405.73" y="637.37" width="8.00" height="22.99" class="up-body"/>
<line x1="428.09" y1="634.47" x2="428.09" y2="654.73" class="down-wick"/>
<rect x="424.09" y="637.37" width="8.00" height="10.84" class="down-body"/>
<line x1="446.45" y1="639.84" x2="446.45" y2="675.31" class="down-wick"/>
<rect x="442.45" y="648.21" width="8.00" height="20.58" class="down-body"/>
<line x1="464.82" y1="653.69" x2="464.82" y2="697.75" class="down-wick"/>
<rect x="460.82" y="668.79" width="8.00" height="27.86" class="down-body"/>
<line x1="483.18" y1="684.34" x2="483.18" y2="717.94" class="up-wick"/>
<rect x="479.18" y="692.55" width="8.00" height="4.11" class="up-body"/>
<line x1="501.55" y1="671.58" x2="501.55" y2="702.73" class="up-wick"/>
<rect x="497.55" y="683.95" width="8.00" height="8.54" class="up-body"/>
<line x1="519.91" y1="669.72" x2="519.91" y2="691.95" class="up-wick"/>
<rect x="515.91" y="682.31" width="8.00" height="1.64" class="up-body"/>
<line x1="538.27" y1="672.68" x2="538.27" y2="697.69" class="down-wick"/>
<rect x="534.27" y="682.31" width="8.00" height="14.01" class="down-body"/>
<line x1="556.64" y1="678.81" x2="556.64" y2="703.55" class="up-wick"/>
<rect x="552.64" y="682.37" width="8.00" height="13.96" class="up-body"/>
<line x1="575.00" y1="682.15" x2="575.00" y2="702.95" class="down-wick"/>
<rect x="571.00" y="682.37" width="8.00" height="5.20" class="down-body"/>
<line x1="593.36" y1="664.19" x2="593.36" y2="688.06" class="up-wick"/>
<rect x="589.36" y="664.69" width="8.00" height="22.88" class="up-body"/>
<line x1="611.73" y1="655.33" x2="611.73" y2="681.05" class="down-wick"/>
<rect x="607.73" y="664.69" width="8.00" height="9.85" class="down-body"/>
<line x1="630.09" y1="646.46" x2="630.09" y2="684.45" class="up-wick"/>
<rect x="626.09" y="654.01" width="8.00" height="20.53" class="up-body"/>
<line x1="648.45" y1="653.52" x2="648.45" y2="673.66" class="down-wick"/>
<rect x="644.45" y="653.85" width="8.00" height="2.46" class="down-body"/>
<line x1="666.82" y1="656.26" x2="666.82" y2="674.43" class="down-wick"/>
<rect x="662.82" y="656.31" width="8.00" height="17.95" class="down-body"/>
<line x1="685.18" y1="642.85" x2="685.18" y2="674.32" class="up-wick"/>
<rect x="681.18" y="651.88" width="8.00" height="22.44" class="up-body"/>
<line x1="703.55" y1="625.28" x2="703.55" y2="654.40" class="up-wick"/>
<rect x="699.55" y="631.08" width="8.00" height="20.85" class="up-body"/>
<line x1="721.91" y1="627.47" x2="721.91" y2="663.54" class="down-wick"/>
<rect x="717.91" y="631.08" width="8.00" height="32.46" class="down-body"/>
<line x1="740.27" y1="652.70" x2="740.27" y2="711.21" class="down-wick"/>
<rect x="736.27" y="663.54" width="8.00" height="40.89" class="down-body"/>
<line x1="758.64" y1="678.86" x2="758.64" y2="709.95" class="up-wick"/>
<rect x="754.64" y="679.90" width="8.00" height="24.52" class="up-body"/>
<line x1="777.00" y1="675.52" x2="777.00" y2="690.36" class="down-wick"/>
<rect x="773.00" y="679.90" width="8.00" height="3.89" class="down-body"/>
<line x1="795.36" y1="671.58" x2="795.36" y2="688.61" class="down-wick"/>
<rect x="791.36" y="683.74" width="8.00" height="1.00" class="down-body"/>
<line x1="813.73" y1="669.34" x2="813.73" y2="685.54" class="up-wick"/>
<rect x="809.73" y="682.26" width="8.00" height="1.70" class="up-body"/>
<line x1="832.09" y1="672.73" x2="832.09" y2="693.37" class="down-wick"/>
<rect x="828.09" y="682.59" width="8.00" height="8.26" class="down-body"/>
<line x1="850.45" y1="687.18" x2="850.45" y2="714.44" class="down-wick"/>
<rect x="846.45" y="691.73" width="8.00" height="7.44" class="down-body"/>
<line x1="868.82" y1="682.91" x2="868.82" y2="699.44" class="up-wick"/>
<rect x="864.82" y="684.83" width="8.00" height="14.34" class="up-body"/>
<line x1="887.18" y1="684.83" x2="887.18" y2="713.18" class="down-wick"/>
<rect x="883.18" y="684.83" width="8.00" height="17.30" class="down-body"/>
<line x1="905.55" y1="701.58" x2="905.55" y2="716.03" class="down-wick"/>
<rect x="901.55" y="701.96" width="8.00" height="8.26" class="down-body"/>
<line x1="923.91" y1="697.09" x2="923.91" y2="717.78" class="up-wick"/>
<rect x="919.91" y="700.05" width="8.00" height="10.18" class="up-body"/>
<line x1="942.27" y1="692.71" x2="942.27" y2="703.99" class="down-wick"/>
<rect x="938.27" y="701.36" width="8.00" height="1.00" class="down-body"/>
<line x1="960.64" y1="690.74" x2="960.64" y2="715.21" class="down-wick"/>
<rect x="956.64" y="702.02" width="8.00" height="12.37" class="down-body"/>
<line x1="979.00" y1="706.18" x2="979.00" y2="735.13" class="down-wick"/>
<rect x="975.00" y="714.39" width="8.00" height="13.63" class="down-body"/>
<line x1="997.36" y1="714.22" x2="997.36" y2="741.81" class="up-wick"/>
<rect x="993.36" y="722.54" width="8.00" height="5.47" class="up-body"/>
<line x1="1015.73" y1="705.03" x2="1015.73" y2="725.50" class="up-wick"/>
<rect x="1011.73" y="707.16" width="8.00" height="15.38" class="up-body"/>
<line x1="1034.09" y1="705.14" x2="1034.09" y2="728.67" class="down-wick"/>
<rect x="1030.09" y="707.16" width="8.00" height="15.22" class="down-body"/>
<line x1="1052.45" y1="714.17" x2="1052.45" y2="726.98" class="up-wick"/>
<rect x="1048.45" y="720.08" width="8.00" height="2.30" class="up-body"/>
<line x1="1070.82" y1="714.66" x2="1070.82" y2="758.83" class="down-wick"/>
<rect x="1066.82" y="720.08" width="8.00" height="37.82" class="down-body"/>
<line x1="70" y1="652.21" x2="1080" y2="652.21" class="sweep-line"/>
<text x="1076" y="648.21" text-anchor="end" class="level-label">sweep 4552.07</text>
<line x1="70" y1="666.55" x2="1080" y2="666.55" class="entry-line"/>
<text x="1076" y="662.55" text-anchor="end" class="level-label">entry level 4549.45</text>
<text x="70" y="806" class="axis-label">2026-05-18 09:00:00+00:00 to 2026-05-18 13:30:00+00:00</text>
<text x="1080" y="806" text-anchor="end" class="axis-label">4527.26 - 4562.34</text>
<text x="70" y="832" class="panel-title">M1 execution window</text>
<rect x="70" y="846" width="1010" height="192" class="plot-bg"/>
<line x1="73.71" y1="997.06" x2="73.71" y2="1024.76" class="up-wick"/>
<rect x="71.30" y="1008.67" width="4.83" height="9.20" class="up-body"/>
<line x1="81.14" y1="996.68" x2="81.14" y2="1010.91" class="up-wick"/>
<rect x="78.73" y="1002.32" width="4.83" height="5.36" class="up-body"/>
<line x1="88.57" y1="971.56" x2="88.57" y2="993.45" class="down-wick"/>
<rect x="86.15" y="976.92" width="4.83" height="16.53" class="down-body"/>
<line x1="95.99" y1="967.62" x2="95.99" y2="995.69" class="up-wick"/>
<rect x="93.58" y="968.55" width="4.83" height="21.29" class="up-body"/>
<line x1="103.42" y1="971.45" x2="103.42" y2="995.42" class="up-wick"/>
<rect x="101.01" y="974.57" width="4.83" height="11.00" class="up-body"/>
<line x1="110.85" y1="977.58" x2="110.85" y2="991.37" class="down-wick"/>
<rect x="108.43" y="979.11" width="4.83" height="9.47" class="down-body"/>
<line x1="118.27" y1="993.78" x2="118.27" y2="1001.61" class="down-wick"/>
<rect x="115.86" y="998.43" width="4.83" height="1.59" class="down-body"/>
<line x1="125.70" y1="980.20" x2="125.70" y2="990.39" class="up-wick"/>
<rect x="123.28" y="982.28" width="4.83" height="4.60" class="up-body"/>
<line x1="133.12" y1="959.68" x2="133.12" y2="977.85" class="up-wick"/>
<rect x="130.71" y="970.02" width="4.83" height="7.06" class="up-body"/>
<line x1="140.55" y1="983.76" x2="140.55" y2="998.27" class="down-wick"/>
<rect x="138.14" y="983.98" width="4.83" height="12.10" class="down-body"/>
<line x1="147.98" y1="983.71" x2="147.98" y2="998.54" class="up-wick"/>
<rect x="145.56" y="985.19" width="4.83" height="3.07" class="up-body"/>
<line x1="155.40" y1="973.58" x2="155.40" y2="991.70" class="up-wick"/>
<rect x="152.99" y="977.30" width="4.83" height="5.91" class="up-body"/>
<line x1="162.83" y1="945.50" x2="162.83" y2="959.46" class="up-wick"/>
<rect x="160.42" y="949.61" width="4.83" height="1.75" class="up-body"/>
<line x1="170.26" y1="935.27" x2="170.26" y2="980.04" class="down-wick"/>
<rect x="167.84" y="935.27" width="4.83" height="44.33" class="down-body"/>
<line x1="177.68" y1="962.47" x2="177.68" y2="969.15" class="down-wick"/>
<rect x="175.27" y="966.19" width="4.83" height="2.96" class="down-body"/>
<line x1="185.11" y1="981.24" x2="185.11" y2="997.99" class="down-wick"/>
<rect x="182.70" y="981.52" width="4.83" height="12.48" class="down-body"/>
<line x1="192.54" y1="946.93" x2="192.54" y2="979.38" class="up-wick"/>
<rect x="190.12" y="952.51" width="4.83" height="24.30" class="up-body"/>
<line x1="199.96" y1="943.42" x2="199.96" y2="973.25" class="down-wick"/>
<rect x="197.55" y="944.24" width="4.83" height="24.19" class="down-body"/>
<line x1="207.39" y1="956.50" x2="207.39" y2="971.56" class="down-wick"/>
<rect x="204.98" y="963.13" width="4.83" height="2.46" class="down-body"/>
<line x1="214.82" y1="960.06" x2="214.82" y2="974.46" class="down-wick"/>
<rect x="212.40" y="962.14" width="4.83" height="9.80" class="down-body"/>
<line x1="222.24" y1="975.11" x2="222.24" y2="985.19" class="up-wick"/>
<rect x="219.83" y="977.03" width="4.83" height="1.81" class="up-body"/>
<line x1="229.67" y1="973.58" x2="229.67" y2="992.47" class="down-wick"/>
<rect x="227.26" y="977.58" width="4.83" height="14.89" class="down-body"/>
<line x1="237.10" y1="963.57" x2="237.10" y2="988.20" class="up-wick"/>
<rect x="234.68" y="964.33" width="4.83" height="23.86" class="up-body"/>
<line x1="244.52" y1="945.78" x2="244.52" y2="970.68" class="up-wick"/>
<rect x="242.11" y="948.40" width="4.83" height="21.78" class="up-body"/>
<line x1="251.95" y1="933.95" x2="251.95" y2="945.83" class="up-wick"/>
<rect x="249.53" y="940.74" width="4.83" height="3.78" class="up-body"/>
<line x1="259.38" y1="947.58" x2="259.38" y2="953.93" class="down-wick"/>
<rect x="256.96" y="947.58" width="4.83" height="1.15" class="down-body"/>
<line x1="266.80" y1="943.75" x2="266.80" y2="949.99" class="up-wick"/>
<rect x="264.39" y="945.89" width="4.83" height="2.52" class="up-body"/>
<line x1="274.23" y1="934.72" x2="274.23" y2="950.54" class="up-wick"/>
<rect x="271.81" y="936.03" width="4.83" height="14.23" class="up-body"/>
<line x1="281.65" y1="928.59" x2="281.65" y2="942.16" class="up-wick"/>
<rect x="279.24" y="928.75" width="4.83" height="4.54" class="up-body"/>
<line x1="289.08" y1="929.96" x2="289.08" y2="938.00" class="up-wick"/>
<rect x="286.67" y="932.37" width="4.83" height="3.34" class="up-body"/>
<line x1="296.51" y1="928.21" x2="296.51" y2="945.50" class="down-wick"/>
<rect x="294.09" y="930.94" width="4.83" height="3.39" class="down-body"/>
<line x1="303.93" y1="916.55" x2="303.93" y2="932.53" class="down-wick"/>
<rect x="301.52" y="928.97" width="4.83" height="3.56" class="down-body"/>
<line x1="311.36" y1="932.59" x2="311.36" y2="948.79" class="down-wick"/>
<rect x="308.95" y="933.79" width="4.83" height="13.03" class="down-body"/>
<line x1="318.79" y1="941.29" x2="318.79" y2="950.48" class="up-wick"/>
<rect x="316.37" y="943.37" width="4.83" height="4.21" class="up-body"/>
<line x1="326.21" y1="930.83" x2="326.21" y2="949.61" class="up-wick"/>
<rect x="323.80" y="932.48" width="4.83" height="11.82" class="up-body"/>
<line x1="333.64" y1="933.63" x2="333.64" y2="947.47" class="down-wick"/>
<rect x="331.23" y="933.63" width="4.83" height="7.39" class="down-body"/>
<line x1="341.07" y1="937.68" x2="341.07" y2="950.81" class="down-wick"/>
<rect x="338.65" y="946.21" width="4.83" height="1.64" class="down-body"/>
<line x1="348.49" y1="947.64" x2="348.49" y2="957.16" class="up-wick"/>
<rect x="346.08" y="948.40" width="4.83" height="1.00" class="up-body"/>
<line x1="355.92" y1="937.29" x2="355.92" y2="958.75" class="up-wick"/>
<rect x="353.51" y="937.62" width="4.83" height="14.72" class="up-body"/>
<line x1="363.35" y1="943.04" x2="363.35" y2="950.59" class="down-wick"/>
<rect x="360.93" y="943.09" width="4.83" height="3.39" class="down-body"/>
<line x1="370.77" y1="956.56" x2="370.77" y2="975.00" class="down-wick"/>
<rect x="368.36" y="957.38" width="4.83" height="17.13" class="down-body"/>
<line x1="378.20" y1="960.94" x2="378.20" y2="967.83" class="up-wick"/>
<rect x="375.78" y="965.21" width="4.83" height="1.00" class="up-body"/>
<line x1="385.62" y1="962.25" x2="385.62" y2="973.53" class="down-wick"/>
<rect x="383.21" y="964.71" width="4.83" height="7.17" class="down-body"/>
<line x1="393.05" y1="912.06" x2="393.05" y2="939.04" class="up-wick"/>
<rect x="390.64" y="928.81" width="4.83" height="9.85" class="up-body"/>
<line x1="400.48" y1="929.36" x2="400.48" y2="943.53" class="down-wick"/>
<rect x="398.06" y="930.72" width="4.83" height="8.98" class="down-body"/>
<line x1="407.90" y1="859.24" x2="407.90" y2="910.58" class="up-wick"/>
<rect x="405.49" y="864.00" width="4.83" height="46.36" class="up-body"/>
<line x1="415.33" y1="859.52" x2="415.33" y2="893.67" class="down-wick"/>
<rect x="412.92" y="884.53" width="4.83" height="7.55" class="down-body"/>
<line x1="422.76" y1="879.55" x2="422.76" y2="890.93" class="up-wick"/>
<rect x="420.34" y="887.37" width="4.83" height="1.00" class="up-body"/>
<line x1="430.18" y1="889.89" x2="430.18" y2="900.89" class="down-wick"/>
<rect x="427.77" y="892.25" width="4.83" height="7.55" class="down-body"/>
<line x1="437.61" y1="897.17" x2="437.61" y2="904.73" class="down-wick"/>
<rect x="435.20" y="901.22" width="4.83" height="2.90" class="down-body"/>
<line x1="445.04" y1="889.84" x2="445.04" y2="902.21" class="up-wick"/>
<rect x="442.62" y="896.79" width="4.83" height="1.42" class="up-body"/>
<line x1="452.46" y1="908.50" x2="452.46" y2="917.97" class="down-wick"/>
<rect x="450.05" y="909.27" width="4.83" height="4.43" class="down-body"/>
<line x1="459.89" y1="904.56" x2="459.89" y2="918.79" class="down-wick"/>
<rect x="457.48" y="904.67" width="4.83" height="14.12" class="down-body"/>
<line x1="467.32" y1="905.22" x2="467.32" y2="926.62" class="down-wick"/>
<rect x="464.90" y="906.81" width="4.83" height="16.26" class="down-body"/>
<line x1="474.74" y1="923.55" x2="474.74" y2="936.31" class="down-wick"/>
<rect x="472.33" y="926.24" width="4.83" height="3.17" class="down-body"/>
<line x1="482.17" y1="941.23" x2="482.17" y2="967.18" class="down-wick"/>
<rect x="479.76" y="946.65" width="4.83" height="17.13" class="down-body"/>
<line x1="489.60" y1="953.22" x2="489.60" y2="967.94" class="up-wick"/>
<rect x="487.18" y="961.70" width="4.83" height="1.97" class="up-body"/>
<line x1="497.02" y1="934.34" x2="497.02" y2="949.66" class="up-wick"/>
<rect x="494.61" y="942.55" width="4.83" height="5.80" class="up-body"/>
<line x1="504.45" y1="921.58" x2="504.45" y2="952.73" class="up-wick"/>
<rect x="502.03" y="929.52" width="4.83" height="15.65" class="up-body"/>
<line x1="511.88" y1="922.19" x2="511.88" y2="933.24" class="up-wick"/>
<rect x="509.46" y="929.41" width="4.83" height="2.03" class="up-body"/>
<line x1="519.30" y1="919.72" x2="519.30" y2="936.25" class="up-wick"/>
<rect x="516.89" y="923.17" width="4.83" height="10.78" class="up-body"/>
<line x1="526.73" y1="931.66" x2="526.73" y2="941.95" class="down-wick"/>
<rect x="524.31" y="935.98" width="4.83" height="1.64" class="down-body"/>
<line x1="534.15" y1="920.82" x2="534.15" y2="934.06" class="down-wick"/>
<rect x="531.74" y="927.11" width="4.83" height="5.20" class="down-body"/>
<line x1="541.58" y1="925.80" x2="541.58" y2="939.87" class="down-wick"/>
<rect x="539.17" y="927.93" width="4.83" height="8.76" class="down-body"/>
<line x1="549.01" y1="925.20" x2="549.01" y2="935.65" class="up-wick"/>
<rect x="546.59" y="931.16" width="4.83" height="4.49" class="up-body"/>
<line x1="556.43" y1="936.36" x2="556.43" y2="947.09" class="up-wick"/>
<rect x="554.02" y="938.28" width="4.83" height="8.05" class="up-body"/>
<line x1="563.86" y1="944.96" x2="563.86" y2="953.55" class="down-wick"/>
<rect x="561.45" y="944.96" width="4.83" height="1.00" class="down-body"/>
<line x1="571.29" y1="928.81" x2="571.29" y2="942.00" class="up-wick"/>
<rect x="568.87" y="932.37" width="4.83" height="8.70" class="up-body"/>
<line x1="578.71" y1="940.80" x2="578.71" y2="952.95" class="down-wick"/>
<rect x="576.30" y="941.01" width="4.83" height="4.65" class="down-body"/>
<line x1="586.14" y1="936.80" x2="586.14" y2="946.82" class="up-wick"/>
<rect x="583.73" y="937.51" width="4.83" height="3.94" class="up-body"/>
<line x1="593.57" y1="919.89" x2="593.57" y2="938.06" class="up-wick"/>
<rect x="591.15" y="921.58" width="4.83" height="15.98" class="up-body"/>
<line x1="600.99" y1="923.44" x2="600.99" y2="931.82" class="up-wick"/>
<rect x="598.58" y="925.96" width="4.83" height="1.64" class="up-body"/>
<line x1="608.42" y1="914.19" x2="608.42" y2="922.35" class="up-wick"/>
<rect x="606.01" y="914.69" width="4.83" height="7.44" class="up-body"/>
<line x1="615.85" y1="905.33" x2="615.85" y2="919.78" class="up-wick"/>
<rect x="613.43" y="910.47" width="4.83" height="9.14" class="up-body"/>
<line x1="623.27" y1="912.50" x2="623.27" y2="922.51" class="up-wick"/>
<rect x="620.86" y="917.31" width="4.83" height="5.20" class="up-body"/>
<line x1="630.70" y1="920.05" x2="630.70" y2="932.09" class="down-wick"/>
<rect x="628.28" y="924.54" width="4.83" height="6.51" class="down-body"/>
<line x1="638.12" y1="914.74" x2="638.12" y2="934.45" class="up-wick"/>
<rect x="635.71" y="915.73" width="4.83" height="14.40" class="up-body"/>
<line x1="645.55" y1="896.46" x2="645.55" y2="917.48" class="up-wick"/>
<rect x="643.14" y="904.01" width="4.83" height="4.60" class="up-body"/>
<line x1="652.98" y1="911.40" x2="652.98" y2="923.66" class="down-wick"/>
<rect x="650.56" y="911.73" width="4.83" height="10.84" class="down-body"/>
<line x1="660.40" y1="911.90" x2="660.40" y2="919.45" class="up-wick"/>
<rect x="657.99" y="913.65" width="4.83" height="2.57" class="up-body"/>
<line x1="667.83" y1="906.31" x2="667.83" y2="912.39" class="down-wick"/>
<rect x="665.42" y="906.31" width="4.83" height="5.36" class="down-body"/>
<line x1="675.26" y1="906.26" x2="675.26" y2="913.48" class="down-wick"/>
<rect x="672.84" y="908.50" width="4.83" height="3.94" class="down-body"/>
<line x1="682.68" y1="914.03" x2="682.68" y2="924.43" class="down-wick"/>
<rect x="680.27" y="915.89" width="4.83" height="8.37" class="down-body"/>
<line x1="690.11" y1="908.12" x2="690.11" y2="912.72" class="up-wick"/>
<rect x="687.70" y="908.56" width="4.83" height="2.74" class="up-body"/>
<line x1="697.54" y1="898.21" x2="697.54" y2="903.74" class="down-wick"/>
<rect x="695.12" y="899.09" width="4.83" height="4.27" class="down-body"/>
<line x1="704.96" y1="881.08" x2="704.96" y2="904.40" class="up-wick"/>
<rect x="702.55" y="881.08" width="4.83" height="20.85" class="up-body"/>
<line x1="712.39" y1="884.97" x2="712.39" y2="893.23" class="up-wick"/>
<rect x="709.98" y="885.57" width="4.83" height="3.50" class="up-body"/>
<line x1="719.82" y1="875.28" x2="719.82" y2="884.53" class="up-wick"/>
<rect x="717.40" y="881.08" width="4.83" height="3.45" class="up-body"/>
<line x1="727.24" y1="880.86" x2="727.24" y2="886.55" class="up-wick"/>
<rect x="724.83" y="884.64" width="4.83" height="1.59" class="up-body"/>
<line x1="734.67" y1="896.02" x2="734.67" y2="901.93" class="down-wick"/>
<rect x="732.26" y="896.30" width="4.83" height="1.92" class="down-body"/>
<line x1="742.10" y1="902.70" x2="742.10" y2="915.18" class="up-wick"/>
<rect x="739.68" y="906.20" width="4.83" height="7.33" class="up-body"/>
<line x1="749.52" y1="911.84" x2="749.52" y2="932.04" class="down-wick"/>
<rect x="747.11" y="912.94" width="4.83" height="19.10" class="down-body"/>
<line x1="756.95" y1="948.57" x2="756.95" y2="958.31" class="down-wick"/>
<rect x="754.53" y="951.74" width="4.83" height="2.68" class="down-body"/>
<line x1="764.38" y1="933.90" x2="764.38" y2="957.44" class="up-wick"/>
<rect x="761.96" y="936.85" width="4.83" height="20.58" class="up-body"/>
<line x1="771.80" y1="932.31" x2="771.80" y2="935.54" class="down-wick"/>
<rect x="769.39" y="932.48" width="4.83" height="1.70" class="down-body"/>
<line x1="779.23" y1="927.28" x2="779.23" y2="938.55" class="down-wick"/>
<rect x="776.81" y="929.90" width="4.83" height="3.94" class="down-body"/>
<line x1="786.65" y1="928.48" x2="786.65" y2="935.65" class="down-wick"/>
<rect x="784.24" y="931.66" width="4.83" height="1.64" class="down-body"/>
<line x1="794.08" y1="927.44" x2="794.08" y2="940.36" class="down-wick"/>
<rect x="791.67" y="927.77" width="4.83" height="6.02" class="down-body"/>
<line x1="801.51" y1="921.58" x2="801.51" y2="936.03" class="down-wick"/>
<rect x="799.09" y="926.62" width="4.83" height="8.26" class="down-body"/>
<line x1="808.93" y1="928.86" x2="808.93" y2="935.54" class="down-wick"/>
<rect x="806.52" y="931.44" width="4.83" height="2.52" class="down-body"/>
<line x1="816.36" y1="922.79" x2="816.36" y2="935.54" class="up-wick"/>
<rect x="813.95" y="925.31" width="4.83" height="8.65" class="up-body"/>
<line x1="823.79" y1="919.61" x2="823.79" y2="931.11" class="down-wick"/>
<rect x="821.37" y="922.13" width="4.83" height="1.00" class="down-body"/>
<line x1="831.21" y1="922.95" x2="831.21" y2="932.48" class="down-wick"/>
<rect x="828.80" y="924.76" width="4.83" height="7.50" class="down-body"/>
<line x1="838.64" y1="929.19" x2="838.64" y2="938.06" class="up-wick"/>
<rect x="836.23" y="931.49" width="4.83" height="3.94" class="up-body"/>
<line x1="846.07" y1="922.73" x2="846.07" y2="933.90" class="up-wick"/>
<rect x="843.65" y="930.72" width="4.83" height="2.79" class="up-body"/>
<line x1="853.49" y1="937.18" x2="853.49" y2="964.44" class="down-wick"/>
<rect x="851.08" y="941.73" width="4.83" height="18.17" class="down-body"/>
<line x1="860.92" y1="947.31" x2="860.92" y2="960.23" class="up-wick"/>
<rect x="858.51" y="948.73" width="4.83" height="5.15" class="up-body"/>
<line x1="868.35" y1="948.73" x2="868.35" y2="957.27" class="up-wick"/>
<rect x="865.93" y="949.17" width="4.83" height="5.91" class="up-body"/>
<line x1="875.77" y1="942.22" x2="875.77" y2="949.44" class="down-wick"/>
<rect x="873.36" y="945.34" width="4.83" height="2.35" class="down-body"/>
<line x1="883.20" y1="932.91" x2="883.20" y2="941.78" class="down-wick"/>
<rect x="880.78" y="939.26" width="4.83" height="1.00" class="down-body"/>
<line x1="890.62" y1="934.83" x2="890.62" y2="943.37" class="down-wick"/>
<rect x="888.21" y="934.83" width="4.83" height="6.35" class="down-body"/>
<line x1="898.05" y1="956.12" x2="898.05" y2="963.18" class="down-wick"/>
<rect x="895.64" y="956.12" width="4.83" height="6.24" class="down-body"/>
<line x1="905.48" y1="946.98" x2="905.48" y2="953.71" class="down-wick"/>
<rect x="903.06" y="949.94" width="4.83" height="2.19" class="down-body"/>
<line x1="912.90" y1="954.42" x2="912.90" y2="962.36" class="down-wick"/>
<rect x="910.49" y="960.01" width="4.83" height="1.92" class="down-body"/>
<line x1="920.33" y1="958.97" x2="920.33" y2="964.00" class="up-wick"/>
<rect x="917.92" y="962.42" width="4.83" height="1.00" class="up-body"/>
<line x1="927.76" y1="956.40" x2="927.76" y2="962.80" class="down-wick"/>
<rect x="925.34" y="960.23" width="4.83" height="1.00" class="down-body"/>
<line x1="935.18" y1="956.94" x2="935.18" y2="967.78" class="up-wick"/>
<rect x="932.77" y="957.44" width="4.83" height="1.00" class="up-body"/>
<line x1="942.61" y1="947.09" x2="942.61" y2="958.69" class="up-wick"/>
<rect x="940.20" y="950.05" width="4.83" height="3.72" class="up-body"/>
<line x1="950.04" y1="943.70" x2="950.04" y2="947.64" class="down-wick"/>
<rect x="947.62" y="946.21" width="4.83" height="1.00" class="down-body"/>
<line x1="957.46" y1="947.53" x2="957.46" y2="953.06" class="up-wick"/>
<rect x="955.05" y="949.33" width="4.83" height="3.12" class="up-body"/>
<line x1="964.89" y1="940.74" x2="964.89" y2="953.11" class="up-wick"/>
<rect x="962.48" y="946.76" width="4.83" height="5.25" class="up-body"/>
<line x1="972.32" y1="946.05" x2="972.32" y2="960.66" class="down-wick"/>
<rect x="969.90" y="947.64" width="4.83" height="3.23" class="down-body"/>
<line x1="979.74" y1="952.45" x2="979.74" y2="965.21" class="down-wick"/>
<rect x="977.33" y="957.05" width="4.83" height="7.33" class="down-body"/>
<line x1="987.17" y1="965.21" x2="987.17" y2="975.77" class="up-wick"/>
<rect x="984.76" y="965.21" width="4.83" height="10.13" class="up-body"/>
<line x1="994.60" y1="958.80" x2="994.60" y2="982.23" class="down-wick"/>
<rect x="992.18" y="959.02" width="4.83" height="22.50" class="down-body"/>
<line x1="1002.02" y1="966.08" x2="1002.02" y2="979.82" class="up-wick"/>
<rect x="999.61" y="970.79" width="4.83" height="7.22" class="up-body"/>
<line x1="1009.45" y1="964.22" x2="1009.45" y2="976.59" class="down-wick"/>
<rect x="1007.03" y="972.38" width="4.83" height="2.96" class="down-body"/>
<line x1="1016.88" y1="968.93" x2="1016.88" y2="991.81" class="up-wick"/>
<rect x="1014.46" y="972.54" width="4.83" height="9.03" class="up-body"/>
<line x1="1024.30" y1="958.42" x2="1024.30" y2="966.74" class="down-wick"/>
<rect x="1021.89" y="961.76" width="4.83" height="3.67" class="down-body"/>
<line x1="1031.73" y1="960.50" x2="1031.73" y2="970.13" class="up-wick"/>
<rect x="1029.31" y="963.29" width="4.83" height="3.01" class="up-body"/>
<line x1="1039.15" y1="955.14" x2="1039.15" y2="963.73" class="down-wick"/>
<rect x="1036.74" y="957.16" width="4.83" height="3.07" class="down-body"/>
<line x1="1046.58" y1="960.34" x2="1046.58" y2="978.67" class="down-wick"/>
<rect x="1044.17" y="962.80" width="4.83" height="14.07" class="down-body"/>
<line x1="1054.01" y1="966.58" x2="1054.01" y2="973.69" class="down-wick"/>
<rect x="1051.59" y="970.02" width="4.83" height="2.35" class="down-body"/>
<line x1="1061.43" y1="964.44" x2="1061.43" y2="972.27" class="up-wick"/>
<rect x="1059.02" y="965.65" width="4.83" height="3.78" class="up-body"/>
<line x1="1068.86" y1="966.85" x2="1068.86" y2="973.31" class="up-wick"/>
<rect x="1066.45" y="968.05" width="4.83" height="3.83" class="up-body"/>
<line x1="1076.29" y1="964.66" x2="1076.29" y2="973.36" class="down-wick"/>
<rect x="1073.87" y="970.08" width="4.83" height="2.85" class="down-body"/>
<line x1="70" y1="902.21" x2="1080" y2="902.21" class="sweep-line"/>
<text x="1076" y="898.21" text-anchor="end" class="level-label">sweep 4552.07</text>
<line x1="70" y1="916.55" x2="1080" y2="916.55" class="entry-line"/>
<text x="1076" y="912.55" text-anchor="end" class="level-label">entry level 4549.45</text>
<text x="70" y="1056" class="axis-label">2026-05-18 09:00:00+00:00 to 2026-05-18 13:30:00+00:00</text>
<text x="1080" y="1056" text-anchor="end" class="axis-label">4527.26 - 4562.34</text>
</svg>