<svg xmlns="http://www.w3.org/2000/svg" width="1120" height="1054" viewBox="0 0 1120 1054">
<style>
text{font-family:Arial,Helvetica,sans-serif}.title{font-size:21px;font-weight:700;fill:#1f2937}.subtitle{font-size:12px;fill:#4b5563}.panel-title{font-size:15px;font-weight:700;fill:#111827}.muted{font-size:13px;fill:#6b7280}.plot-bg{fill:#f8fafc;stroke:#cbd5e1;stroke-width:1}.up-body{fill:#15803d;stroke:#14532d;stroke-width:.8}.down-body{fill:#b91c1c;stroke:#7f1d1d;stroke-width:.8}.up-wick{stroke:#14532d;stroke-width:1}.down-wick{stroke:#7f1d1d;stroke-width:1}.sweep-line{stroke:#7c3aed;stroke-width:1.6;stroke-dasharray:6 4}.number-line{stroke:#0f766e;stroke-width:1.4;stroke-dasharray:3 4}.entry-line{stroke:#2563eb;stroke-width:1.4}.sl-line{stroke:#dc2626;stroke-width:1.4}.tp-line{stroke:#16a34a;stroke-width:1.4}.level-label,.axis-label{font-size:11px;fill:#374151}
</style>
<text x="28" y="28" class="title">Adelin v2 visual review sample sample_209</text>
<text x="28" y="48" class="subtitle">Candidate windows are for visual labeling only and are not trade signals.</text>
<text x="560" y="48" class="subtitle" text-anchor="middle">NUMBER_THEORY_LEVEL_NEAR | LARGE_UPPER_WICK_REVERSAL_VISUAL_CANDIDATE | ROUND_LEVEL_ENTRY_METADATA_AVAILABLE</text>
<text x="70" y="82" class="panel-title">H1 liquidity context</text>
<rect x="70" y="96" width="1010" height="192" class="plot-bg"/>
<line x1="79.71" y1="194.75" x2="79.71" y2="274.76" class="down-wick"/>
<rect x="75.71" y="194.75" width="8.00" height="37.33" class="down-body"/>
<line x1="99.13" y1="224.66" x2="99.13" y2="240.71" class="up-wick"/>
<rect x="95.13" y="224.99" width="8.00" height="7.10" class="up-body"/>
<line x1="118.56" y1="209.27" x2="118.56" y2="228.84" class="up-wick"/>
<rect x="114.56" y="210.94" width="8.00" height="14.04" class="up-body"/>
<line x1="137.98" y1="192.16" x2="137.98" y2="212.01" class="up-wick"/>
<rect x="133.98" y="196.11" width="8.00" height="14.85" class="up-body"/>
<line x1="157.40" y1="192.31" x2="157.40" y2="201.95" class="down-wick"/>
<rect x="153.40" y="196.11" width="8.00" height="1.00" class="down-body"/>
<line x1="176.83" y1="194.55" x2="176.83" y2="201.30" class="down-wick"/>
<rect x="172.83" y="196.58" width="8.00" height="1.34" class="down-body"/>
<line x1="196.25" y1="193.96" x2="196.25" y2="203.36" class="up-wick"/>
<rect x="192.25" y="195.04" width="8.00" height="2.88" class="up-body"/>
<line x1="215.67" y1="190.61" x2="215.67" y2="198.90" class="up-wick"/>
<rect x="211.67" y="191.37" width="8.00" height="3.67" class="up-body"/>
<line x1="235.10" y1="189.44" x2="235.10" y2="196.42" class="down-wick"/>
<rect x="231.10" y="191.37" width="8.00" height="2.18" class="down-body"/>
<line x1="254.52" y1="185.25" x2="254.52" y2="194.00" class="up-wick"/>
<rect x="250.52" y="188.89" width="8.00" height="4.66" class="up-body"/>
<line x1="273.94" y1="186.05" x2="273.94" y2="196.67" class="down-wick"/>
<rect x="269.94" y="188.89" width="8.00" height="6.01" class="down-body"/>
<line x1="293.37" y1="191.92" x2="293.37" y2="202.30" class="down-wick"/>
<rect x="289.37" y="194.90" width="8.00" height="5.06" class="down-body"/>
<line x1="312.79" y1="194.55" x2="312.79" y2="203.60" class="up-wick"/>
<rect x="308.79" y="195.53" width="8.00" height="4.43" class="up-body"/>
<line x1="332.21" y1="191.57" x2="332.21" y2="206.27" class="down-wick"/>
<rect x="328.21" y="195.53" width="8.00" height="8.95" class="down-body"/>
<line x1="351.63" y1="193.84" x2="351.63" y2="206.31" class="up-wick"/>
<rect x="347.63" y="194.79" width="8.00" height="9.70" class="up-body"/>
<line x1="371.06" y1="182.54" x2="371.06" y2="196.13" class="up-wick"/>
<rect x="367.06" y="190.59" width="8.00" height="4.20" class="up-body"/>
<line x1="390.48" y1="190.30" x2="390.48" y2="203.40" class="down-wick"/>
<rect x="386.48" y="190.59" width="8.00" height="6.75" class="down-body"/>
<line x1="409.90" y1="196.92" x2="409.90" y2="208.29" class="down-wick"/>
<rect x="405.90" y="197.34" width="8.00" height="2.66" class="down-body"/>
<line x1="429.33" y1="181.67" x2="429.33" y2="203.04" class="up-wick"/>
<rect x="425.33" y="189.28" width="8.00" height="10.70" class="up-body"/>
<line x1="448.75" y1="179.42" x2="448.75" y2="193.69" class="down-wick"/>
<rect x="444.75" y="189.28" width="8.00" height="1.83" class="down-body"/>
<line x1="468.17" y1="184.84" x2="468.17" y2="194.96" class="up-wick"/>
<rect x="464.17" y="186.21" width="8.00" height="4.90" class="up-body"/>
<line x1="487.60" y1="180.96" x2="487.60" y2="190.71" class="up-wick"/>
<rect x="483.60" y="184.60" width="8.00" height="1.61" class="up-body"/>
<line x1="507.02" y1="173.98" x2="507.02" y2="185.01" class="up-wick"/>
<rect x="503.02" y="174.86" width="8.00" height="10.14" class="up-body"/>
<line x1="526.44" y1="170.27" x2="526.44" y2="176.94" class="down-wick"/>
<rect x="522.44" y="174.86" width="8.00" height="1.00" class="down-body"/>
<line x1="545.87" y1="164.55" x2="545.87" y2="178.53" class="up-wick"/>
<rect x="541.87" y="168.00" width="8.00" height="6.95" class="up-body"/>
<line x1="565.29" y1="163.89" x2="565.29" y2="172.66" class="down-wick"/>
<rect x="561.29" y="168.00" width="8.00" height="2.92" class="down-body"/>
<line x1="584.71" y1="163.76" x2="584.71" y2="172.55" class="up-wick"/>
<rect x="580.71" y="164.99" width="8.00" height="5.93" class="up-body"/>
<line x1="604.13" y1="164.69" x2="604.13" y2="170.36" class="down-wick"/>
<rect x="600.13" y="164.99" width="8.00" height="4.06" class="down-body"/>
<line x1="623.56" y1="163.85" x2="623.56" y2="169.65" class="up-wick"/>
<rect x="619.56" y="165.50" width="8.00" height="3.46" class="up-body"/>
<line x1="642.98" y1="165.39" x2="642.98" y2="174.86" class="down-wick"/>
<rect x="638.98" y="165.49" width="8.00" height="8.17" class="down-body"/>
<line x1="662.40" y1="160.37" x2="662.40" y2="173.68" class="up-wick"/>
<rect x="658.40" y="160.84" width="8.00" height="12.83" class="up-body"/>
<line x1="681.83" y1="152.67" x2="681.83" y2="169.15" class="down-wick"/>
<rect x="677.83" y="160.84" width="8.00" height="2.94" class="down-body"/>
<line x1="701.25" y1="156.36" x2="701.25" y2="165.45" class="up-wick"/>
<rect x="697.25" y="158.23" width="8.00" height="5.55" class="up-body"/>
<line x1="720.67" y1="156.73" x2="720.67" y2="166.97" class="down-wick"/>
<rect x="716.67" y="158.23" width="8.00" height="4.87" class="down-body"/>
<line x1="740.10" y1="157.49" x2="740.10" y2="178.24" class="down-wick"/>
<rect x="736.10" y="163.10" width="8.00" height="5.74" class="down-body"/>
<line x1="759.52" y1="160.36" x2="759.52" y2="169.73" class="up-wick"/>
<rect x="755.52" y="165.04" width="8.00" height="3.80" class="up-body"/>
<line x1="778.94" y1="163.51" x2="778.94" y2="172.36" class="down-wick"/>
<rect x="774.94" y="165.04" width="8.00" height="2.09" class="down-body"/>
<line x1="798.37" y1="148.54" x2="798.37" y2="167.29" class="up-wick"/>
<rect x="794.37" y="153.64" width="8.00" height="13.49" class="up-body"/>
<line x1="817.79" y1="140.15" x2="817.79" y2="154.60" class="up-wick"/>
<rect x="813.79" y="148.33" width="8.00" height="5.29" class="up-body"/>
<line x1="837.21" y1="141.18" x2="837.21" y2="155.70" class="up-wick"/>
<rect x="833.21" y="145.86" width="8.00" height="2.48" class="up-body"/>
<line x1="856.63" y1="138.73" x2="856.63" y2="147.62" class="up-wick"/>
<rect x="852.63" y="144.64" width="8.00" height="1.19" class="up-body"/>
<line x1="876.06" y1="126.59" x2="876.06" y2="145.05" class="up-wick"/>
<rect x="872.06" y="130.26" width="8.00" height="14.39" class="up-body"/>
<line x1="895.48" y1="125.46" x2="895.48" y2="132.65" class="up-wick"/>
<rect x="891.48" y="129.94" width="8.00" height="1.00" class="up-body"/>
<line x1="914.90" y1="123.77" x2="914.90" y2="129.94" class="up-wick"/>
<rect x="910.90" y="124.58" width="8.00" height="5.35" class="up-body"/>
<line x1="934.33" y1="121.26" x2="934.33" y2="131.24" class="down-wick"/>
<rect x="930.33" y="126.79" width="8.00" height="3.45" class="down-body"/>
<line x1="953.75" y1="125.04" x2="953.75" y2="131.04" class="up-wick"/>
<rect x="949.75" y="129.06" width="8.00" height="1.18" class="up-body"/>
<line x1="973.17" y1="127.33" x2="973.17" y2="134.93" class="down-wick"/>
<rect x="969.17" y="129.05" width="8.00" height="1.02" class="down-body"/>
<line x1="992.60" y1="109.24" x2="992.60" y2="134.28" class="up-wick"/>
<rect x="988.60" y="123.31" width="8.00" height="6.76" class="up-body"/>
<line x1="1012.02" y1="119.60" x2="1012.02" y2="138.71" class="down-wick"/>
<rect x="1008.02" y="123.31" width="8.00" height="13.40" class="down-body"/>
<line x1="1031.44" y1="133.45" x2="1031.44" y2="140.76" class="up-wick"/>
<rect x="1027.44" y="136.69" width="8.00" height="1.00" class="up-body"/>
<line x1="1050.87" y1="134.49" x2="1050.87" y2="138.69" class="up-wick"/>
<rect x="1046.87" y="136.11" width="8.00" height="1.00" class="up-body"/>
<line x1="1070.29" y1="132.98" x2="1070.29" y2="143.25" class="down-wick"/>
<rect x="1066.29" y="136.11" width="8.00" height="2.93" class="down-body"/>
<line x1="70" y1="173.70" x2="1080" y2="173.70" class="number-line"/>
<text x="1076" y="169.70" text-anchor="end" class="level-label">round 4760.00</text>
<line x1="70" y1="173.70" x2="1080" y2="173.70" class="entry-line"/>
<text x="1076" y="169.70" text-anchor="end" class="level-label">entry level 4760.00</text>
<text x="70" y="306" class="axis-label">2026-04-13 01:00:00+00:00 to 2026-04-15 08:00:00+00:00</text>
<text x="1080" y="306" text-anchor="end" class="axis-label">4562.43 - 4894.31</text>
<text x="70" y="332" class="panel-title">M15 liquidity / reaction context</text>
<rect x="70" y="346" width="1010" height="192" class="plot-bg"/>
<line x1="77.77" y1="477.57" x2="77.77" y2="515.86" class="down-wick"/>
<rect x="73.77" y="477.77" width="8.00" height="31.91" class="down-body"/>
<line x1="93.31" y1="502.77" x2="93.31" y2="512.12" class="up-wick"/>
<rect x="89.31" y="509.20" width="8.00" height="1.00" class="up-body"/>
<line x1="108.85" y1="506.91" x2="108.85" y2="524.76" class="down-wick"/>
<rect x="104.85" y="509.16" width="8.00" height="6.43" class="down-body"/>
<line x1="124.38" y1="497.47" x2="124.38" y2="516.92" class="up-wick"/>
<rect x="120.38" y="501.55" width="8.00" height="14.04" class="up-body"/>
<line x1="139.92" y1="485.15" x2="139.92" y2="501.73" class="up-wick"/>
<rect x="135.92" y="490.52" width="8.00" height="10.96" class="up-body"/>
<line x1="155.46" y1="487.89" x2="155.46" y2="508.14" class="down-wick"/>
<rect x="151.46" y="490.52" width="8.00" height="8.06" class="down-body"/>
<line x1="171.00" y1="477.68" x2="171.00" y2="498.60" class="up-wick"/>
<rect x="167.00" y="479.56" width="8.00" height="19.02" class="up-body"/>
<line x1="186.54" y1="469.96" x2="186.54" y2="489.09" class="down-wick"/>
<rect x="182.54" y="479.56" width="8.00" height="3.03" class="down-body"/>
<line x1="202.08" y1="473.76" x2="202.08" y2="488.05" class="down-wick"/>
<rect x="198.08" y="482.59" width="8.00" height="1.63" class="down-body"/>
<line x1="217.62" y1="451.95" x2="217.62" y2="485.81" class="up-wick"/>
<rect x="213.62" y="467.96" width="8.00" height="17.84" class="up-body"/>
<line x1="233.15" y1="464.75" x2="233.15" y2="473.99" class="up-wick"/>
<rect x="229.15" y="467.47" width="8.00" height="1.00" class="up-body"/>
<line x1="248.69" y1="463.28" x2="248.69" y2="472.47" class="up-wick"/>
<rect x="244.69" y="463.28" width="8.00" height="3.71" class="up-body"/>
<line x1="264.23" y1="442.65" x2="264.23" y2="466.20" class="up-wick"/>
<rect x="260.23" y="446.11" width="8.00" height="16.96" class="up-body"/>
<line x1="279.77" y1="428.13" x2="279.77" y2="446.22" class="up-wick"/>
<rect x="275.77" y="434.76" width="8.00" height="11.35" class="up-body"/>
<line x1="295.31" y1="433.63" x2="295.31" y2="453.11" class="down-wick"/>
<rect x="291.31" y="434.76" width="8.00" height="17.21" class="down-body"/>
<line x1="310.85" y1="437.98" x2="310.85" y2="454.22" class="up-wick"/>
<rect x="306.85" y="442.71" width="8.00" height="9.26" class="up-body"/>
<line x1="326.38" y1="437.69" x2="326.38" y2="449.35" class="down-wick"/>
<rect x="322.38" y="442.71" width="8.00" height="4.10" class="down-body"/>
<line x1="341.92" y1="440.58" x2="341.92" y2="460.47" class="up-wick"/>
<rect x="337.92" y="442.37" width="8.00" height="4.08" class="up-body"/>
<line x1="357.46" y1="424.57" x2="357.46" y2="442.40" class="up-wick"/>
<rect x="353.46" y="436.08" width="8.00" height="6.32" class="up-body"/>
<line x1="373.00" y1="405.73" x2="373.00" y2="438.30" class="up-wick"/>
<rect x="369.00" y="417.85" width="8.00" height="18.23" class="up-body"/>
<line x1="388.54" y1="414.18" x2="388.54" y2="422.38" class="down-wick"/>
<rect x="384.54" y="418.07" width="8.00" height="1.15" class="down-body"/>
<line x1="404.08" y1="403.15" x2="404.08" y2="435.76" class="up-wick"/>
<rect x="400.08" y="405.33" width="8.00" height="13.90" class="up-body"/>
<line x1="419.62" y1="403.79" x2="419.62" y2="420.05" class="down-wick"/>
<rect x="415.62" y="405.12" width="8.00" height="12.82" class="down-body"/>
<line x1="435.15" y1="411.78" x2="435.15" y2="431.96" class="up-wick"/>
<rect x="431.15" y="412.37" width="8.00" height="5.64" class="up-body"/>
<line x1="450.69" y1="410.24" x2="450.69" y2="437.48" class="down-wick"/>
<rect x="446.69" y="412.37" width="8.00" height="18.30" class="down-body"/>
<line x1="466.23" y1="416.13" x2="466.23" y2="435.04" class="up-wick"/>
<rect x="462.23" y="423.37" width="8.00" height="7.29" class="up-body"/>
<line x1="481.77" y1="413.34" x2="481.77" y2="424.42" class="up-wick"/>
<rect x="477.77" y="421.38" width="8.00" height="1.99" class="up-body"/>
<line x1="497.31" y1="412.46" x2="497.31" y2="437.05" class="up-wick"/>
<rect x="493.31" y="413.52" width="8.00" height="7.99" class="up-body"/>
<line x1="512.85" y1="402.65" x2="512.85" y2="413.75" class="up-wick"/>
<rect x="508.85" y="407.45" width="8.00" height="6.07" class="up-body"/>
<line x1="528.38" y1="406.30" x2="528.38" y2="421.95" class="down-wick"/>
<rect x="524.38" y="407.48" width="8.00" height="13.68" class="down-body"/>
<line x1="543.92" y1="415.36" x2="543.92" y2="428.13" class="down-wick"/>
<rect x="539.92" y="421.15" width="8.00" height="1.38" class="down-body"/>
<line x1="559.46" y1="419.80" x2="559.46" y2="428.47" class="down-wick"/>
<rect x="555.46" y="422.65" width="8.00" height="1.56" class="down-body"/>
<line x1="575.00" y1="414.50" x2="575.00" y2="424.73" class="up-wick"/>
<rect x="571.00" y="423.37" width="8.00" height="1.00" class="up-body"/>
<line x1="590.54" y1="417.89" x2="590.54" y2="425.71" class="up-wick"/>
<rect x="586.54" y="421.58" width="8.00" height="1.43" class="up-body"/>
<line x1="606.08" y1="402.99" x2="606.08" y2="422.20" class="up-wick"/>
<rect x="602.08" y="405.37" width="8.00" height="16.21" class="up-body"/>
<line x1="621.62" y1="404.46" x2="621.62" y2="415.52" class="down-wick"/>
<rect x="617.62" y="405.37" width="8.00" height="5.25" class="down-body"/>
<line x1="637.15" y1="405.19" x2="637.15" y2="412.82" class="up-wick"/>
<rect x="633.15" y="409.47" width="8.00" height="1.29" class="up-body"/>
<line x1="652.69" y1="409.04" x2="652.69" y2="434.09" class="down-wick"/>
<rect x="648.69" y="409.42" width="8.00" height="19.57" class="down-body"/>
<line x1="668.23" y1="423.22" x2="668.23" y2="438.03" class="down-wick"/>
<rect x="664.23" y="428.99" width="8.00" height="1.86" class="down-body"/>
<line x1="683.77" y1="424.89" x2="683.77" y2="446.09" class="down-wick"/>
<rect x="679.77" y="430.85" width="8.00" height="7.99" class="down-body"/>
<line x1="699.31" y1="426.25" x2="699.31" y2="443.05" class="down-wick"/>
<rect x="695.31" y="438.84" width="8.00" height="2.58" class="down-body"/>
<line x1="714.85" y1="419.57" x2="714.85" y2="441.47" class="up-wick"/>
<rect x="710.85" y="428.13" width="8.00" height="13.29" class="up-body"/>
<line x1="730.38" y1="423.31" x2="730.38" y2="433.72" class="up-wick"/>
<rect x="726.38" y="423.92" width="8.00" height="4.21" class="up-body"/>
<line x1="745.92" y1="417.98" x2="745.92" y2="431.64" class="up-wick"/>
<rect x="741.92" y="419.68" width="8.00" height="4.23" class="up-body"/>
<line x1="761.46" y1="389.38" x2="761.46" y2="421.15" class="up-wick"/>
<rect x="757.46" y="391.22" width="8.00" height="28.53" class="up-body"/>
<line x1="777.00" y1="359.24" x2="777.00" y2="393.71" class="up-wick"/>
<rect x="773.00" y="373.19" width="8.00" height="18.03" class="up-body"/>
<line x1="792.54" y1="369.91" x2="792.54" y2="423.76" class="down-wick"/>
<rect x="788.54" y="373.19" width="8.00" height="39.72" class="down-body"/>
<line x1="808.08" y1="396.81" x2="808.08" y2="414.86" class="up-wick"/>
<rect x="804.08" y="400.91" width="8.00" height="11.91" class="up-body"/>
<line x1="823.62" y1="394.59" x2="823.62" y2="409.97" class="down-wick"/>
<rect x="819.62" y="400.95" width="8.00" height="1.79" class="down-body"/>
<line x1="839.15" y1="390.13" x2="839.15" y2="409.24" class="up-wick"/>
<rect x="835.15" y="395.09" width="8.00" height="7.65" class="up-body"/>
<line x1="854.69" y1="381.41" x2="854.69" y2="405.85" class="up-wick"/>
<rect x="850.69" y="382.72" width="8.00" height="12.36" class="up-body"/>
<line x1="870.23" y1="373.67" x2="870.23" y2="390.31" class="down-wick"/>
<rect x="866.23" y="382.61" width="8.00" height="2.72" class="down-body"/>
<line x1="885.77" y1="381.00" x2="885.77" y2="393.03" class="up-wick"/>
<rect x="881.77" y="381.00" width="8.00" height="4.35" class="up-body"/>
<line x1="901.31" y1="378.17" x2="901.31" y2="395.54" class="down-wick"/>
<rect x="897.31" y="381.00" width="8.00" height="2.17" class="down-body"/>
<line x1="916.85" y1="375.12" x2="916.85" y2="399.46" class="down-wick"/>
<rect x="912.85" y="383.18" width="8.00" height="16.28" class="down-body"/>
<line x1="932.38" y1="397.26" x2="932.38" y2="415.20" class="down-wick"/>
<rect x="928.38" y="399.46" width="8.00" height="1.00" class="down-body"/>
<line x1="947.92" y1="391.04" x2="947.92" y2="412.03" class="up-wick"/>
<rect x="943.92" y="400.07" width="8.00" height="1.00" class="up-body"/>
<line x1="963.46" y1="385.40" x2="963.46" y2="400.09" class="up-wick"/>
<rect x="959.46" y="391.17" width="8.00" height="8.90" class="up-body"/>
<line x1="979.00" y1="378.11" x2="979.00" y2="395.02" class="up-wick"/>
<rect x="975.00" y="387.30" width="8.00" height="3.87" class="up-body"/>
<line x1="994.54" y1="385.92" x2="994.54" y2="459.31" class="down-wick"/>
<rect x="990.54" y="387.30" width="8.00" height="37.34" class="down-body"/>
<line x1="1010.08" y1="413.57" x2="1010.08" y2="425.46" class="up-wick"/>
<rect x="1006.08" y="422.54" width="8.00" height="2.11" class="up-body"/>
<line x1="1025.62" y1="403.02" x2="1025.62" y2="426.02" class="up-wick"/>
<rect x="1021.62" y="403.67" width="8.00" height="18.86" class="up-body"/>
<line x1="1041.15" y1="389.34" x2="1041.15" y2="407.34" class="up-wick"/>
<rect x="1037.15" y="400.43" width="8.00" height="3.24" class="up-body"/>
<line x1="1056.69" y1="396.61" x2="1056.69" y2="411.51" class="down-wick"/>
<rect x="1052.69" y="400.43" width="8.00" height="1.00" class="down-body"/>
<line x1="1072.23" y1="389.38" x2="1072.23" y2="417.26" class="down-wick"/>
<rect x="1068.23" y="400.55" width="8.00" height="7.11" class="down-body"/>
<line x1="70" y1="441.56" x2="1080" y2="441.56" class="number-line"/>
<text x="1076" y="437.56" text-anchor="end" class="level-label">round 4760.00</text>
<line x1="70" y1="441.56" x2="1080" y2="441.56" class="entry-line"/>
<text x="1076" y="437.56" text-anchor="end" class="level-label">entry level 4760.00</text>
<text x="70" y="556" class="axis-label">2026-04-13 20:45:00+00:00 to 2026-04-14 14:45:00+00:00</text>
<text x="1080" y="556" text-anchor="end" class="axis-label">4717.41 - 4802.20</text>
<text x="70" y="582" class="panel-title">M5 reaction / execution context</text>
<rect x="70" y="596" width="1010" height="192" class="plot-bg"/>
<line x1="79.18" y1="706.87" x2="79.18" y2="729.23" class="up-wick"/>
<rect x="75.18" y="707.04" width="8.00" height="21.02" class="up-body"/>
<line x1="97.55" y1="699.70" x2="97.55" y2="707.47" class="up-wick"/>
<rect x="93.55" y="703.85" width="8.00" height="3.15" class="up-body"/>
<line x1="115.91" y1="692.63" x2="115.91" y2="705.14" class="up-wick"/>
<rect x="111.91" y="697.16" width="8.00" height="6.73" class="up-body"/>
<line x1="134.27" y1="695.43" x2="134.27" y2="705.57" class="down-wick"/>
<rect x="130.27" y="697.16" width="8.00" height="7.64" class="down-body"/>
<line x1="152.64" y1="700.09" x2="152.64" y2="716.49" class="down-wick"/>
<rect x="148.64" y="704.80" width="8.00" height="4.62" class="down-body"/>
<line x1="171.00" y1="707.13" x2="171.00" y2="713.99" class="up-wick"/>
<rect x="167.00" y="707.17" width="8.00" height="2.33" class="up-body"/>
<line x1="189.36" y1="697.98" x2="189.36" y2="711.36" class="up-wick"/>
<rect x="185.36" y="698.84" width="8.00" height="8.59" class="up-body"/>
<line x1="207.73" y1="696.81" x2="207.73" y2="706.35" class="down-wick"/>
<rect x="203.73" y="698.84" width="8.00" height="4.27" class="down-body"/>
<line x1="226.09" y1="702.16" x2="226.09" y2="706.74" class="down-wick"/>
<rect x="222.09" y="703.16" width="8.00" height="1.81" class="down-body"/>
<line x1="244.45" y1="704.15" x2="244.45" y2="719.95" class="down-wick"/>
<rect x="240.45" y="704.88" width="8.00" height="6.91" class="down-body"/>
<line x1="262.82" y1="711.49" x2="262.82" y2="734.75" class="down-wick"/>
<rect x="258.82" y="711.79" width="8.00" height="21.67" class="down-body"/>
<line x1="281.18" y1="730.00" x2="281.18" y2="751.88" class="down-wick"/>
<rect x="277.18" y="733.58" width="8.00" height="8.59" class="down-body"/>
<line x1="299.55" y1="733.93" x2="299.55" y2="744.50" class="up-wick"/>
<rect x="295.55" y="737.60" width="8.00" height="4.57" class="up-body"/>
<line x1="317.91" y1="731.17" x2="317.91" y2="745.88" class="down-wick"/>
<rect x="313.91" y="737.60" width="8.00" height="8.20" class="down-body"/>
<line x1="336.27" y1="745.15" x2="336.27" y2="759.39" class="up-wick"/>
<rect x="332.27" y="745.71" width="8.00" height="1.00" class="up-body"/>
<line x1="354.64" y1="734.36" x2="354.64" y2="764.40" class="down-wick"/>
<rect x="350.64" y="745.71" width="8.00" height="12.34" class="down-body"/>
<line x1="373.00" y1="751.75" x2="373.00" y2="773.42" class="down-wick"/>
<rect x="369.00" y="758.10" width="8.00" height="11.61" class="down-body"/>
<line x1="391.36" y1="754.78" x2="391.36" y2="774.76" class="up-wick"/>
<rect x="387.36" y="760.95" width="8.00" height="8.76" class="up-body"/>
<line x1="409.73" y1="738.38" x2="409.73" y2="768.98" class="up-wick"/>
<rect x="405.73" y="748.52" width="8.00" height="12.43" class="up-body"/>
<line x1="428.09" y1="736.95" x2="428.09" y2="759.52" class="down-wick"/>
<rect x="424.09" y="748.52" width="8.00" height="10.23" class="down-body"/>
<line x1="446.45" y1="752.23" x2="446.45" y2="766.77" class="down-wick"/>
<rect x="442.45" y="758.75" width="8.00" height="7.12" class="down-body"/>
<line x1="464.82" y1="736.17" x2="464.82" y2="765.95" class="up-wick"/>
<rect x="460.82" y="746.10" width="8.00" height="19.77" class="up-body"/>
<line x1="483.18" y1="724.22" x2="483.18" y2="747.83" class="up-wick"/>
<rect x="479.18" y="724.91" width="8.00" height="21.23" class="up-body"/>
<line x1="501.55" y1="724.91" x2="501.55" y2="744.16" class="down-wick"/>
<rect x="497.55" y="724.91" width="8.00" height="15.62" class="down-body"/>
<line x1="519.91" y1="740.53" x2="519.91" y2="751.19" class="down-wick"/>
<rect x="515.91" y="740.53" width="8.00" height="8.89" class="down-body"/>
<line x1="538.27" y1="734.88" x2="538.27" y2="749.42" class="up-wick"/>
<rect x="534.27" y="744.24" width="8.00" height="5.18" class="up-body"/>
<line x1="556.64" y1="731.34" x2="556.64" y2="746.70" class="up-wick"/>
<rect x="552.64" y="732.51" width="8.00" height="11.61" class="up-body"/>
<line x1="575.00" y1="730.74" x2="575.00" y2="745.84" class="down-wick"/>
<rect x="571.00" y="732.51" width="8.00" height="10.96" class="down-body"/>
<line x1="593.36" y1="732.12" x2="593.36" y2="747.22" class="up-wick"/>
<rect x="589.36" y="733.33" width="8.00" height="10.14" class="up-body"/>
<line x1="611.73" y1="721.20" x2="611.73" y2="734.36" class="up-wick"/>
<rect x="607.73" y="724.43" width="8.00" height="8.89" class="up-body"/>
<line x1="630.09" y1="704.45" x2="630.09" y2="727.24" class="up-wick"/>
<rect x="626.09" y="710.11" width="8.00" height="14.46" class="up-body"/>
<line x1="648.45" y1="673.25" x2="648.45" y2="718.35" class="up-wick"/>
<rect x="644.45" y="684.34" width="8.00" height="25.77" class="up-body"/>
<line x1="666.82" y1="666.69" x2="666.82" y2="685.37" class="up-wick"/>
<rect x="662.82" y="670.18" width="8.00" height="14.16" class="up-body"/>
<line x1="685.18" y1="636.48" x2="685.18" y2="674.93" class="up-wick"/>
<rect x="681.18" y="650.20" width="8.00" height="19.98" class="up-body"/>
<line x1="703.55" y1="609.24" x2="703.55" y2="650.20" class="up-wick"/>
<rect x="699.55" y="621.11" width="8.00" height="29.09" class="up-body"/>
<line x1="721.91" y1="621.11" x2="721.91" y2="653.22" class="down-wick"/>
<rect x="717.91" y="621.11" width="8.00" height="14.72" class="down-body"/>
<line x1="740.27" y1="629.57" x2="740.27" y2="660.86" class="down-wick"/>
<rect x="736.27" y="635.83" width="8.00" height="22.36" class="down-body"/>
<line x1="758.64" y1="649.51" x2="758.64" y2="713.30" class="down-wick"/>
<rect x="754.64" y="658.18" width="8.00" height="52.78" class="down-body"/>
<line x1="777.00" y1="701.91" x2="777.00" y2="732.20" class="down-wick"/>
<rect x="773.00" y="711.01" width="8.00" height="1.00" class="down-body"/>
<line x1="795.36" y1="697.55" x2="795.36" y2="712.82" class="down-wick"/>
<rect x="791.36" y="711.36" width="8.00" height="1.00" class="down-body"/>
<line x1="813.73" y1="689.04" x2="813.73" y2="715.24" class="up-wick"/>
<rect x="809.73" y="689.13" width="8.00" height="22.79" class="up-body"/>
<line x1="832.09" y1="680.84" x2="832.09" y2="704.88" class="up-wick"/>
<rect x="828.09" y="688.66" width="8.00" height="1.00" class="up-body"/>
<line x1="850.45" y1="676.61" x2="850.45" y2="691.12" class="up-wick"/>
<rect x="846.45" y="688.14" width="8.00" height="1.00" class="up-body"/>
<line x1="868.82" y1="686.76" x2="868.82" y2="704.88" class="down-wick"/>
<rect x="864.82" y="688.14" width="8.00" height="11.09" class="down-body"/>
<line x1="887.18" y1="681.66" x2="887.18" y2="705.92" class="up-wick"/>
<rect x="883.18" y="692.15" width="8.00" height="7.08" class="up-body"/>
<line x1="905.55" y1="687.92" x2="905.55" y2="704.54" class="up-wick"/>
<rect x="901.55" y="688.61" width="8.00" height="3.54" class="up-body"/>
<line x1="923.91" y1="668.54" x2="923.91" y2="689.60" class="up-wick"/>
<rect x="919.91" y="677.22" width="8.00" height="11.39" class="up-body"/>
<line x1="942.27" y1="668.11" x2="942.27" y2="688.18" class="down-wick"/>
<rect x="938.27" y="677.13" width="8.00" height="1.00" class="down-body"/>
<line x1="960.64" y1="675.06" x2="960.64" y2="689.13" class="down-wick"/>
<rect x="956.64" y="677.56" width="8.00" height="2.59" class="down-body"/>
<line x1="979.00" y1="671.48" x2="979.00" y2="698.06" class="down-wick"/>
<rect x="975.00" y="680.15" width="8.00" height="10.44" class="down-body"/>
<line x1="997.36" y1="651.49" x2="997.36" y2="690.73" class="up-wick"/>
<rect x="993.36" y="654.00" width="8.00" height="36.60" class="up-body"/>
<line x1="1015.73" y1="639.76" x2="1015.73" y2="657.58" class="up-wick"/>
<rect x="1011.73" y="642.56" width="8.00" height="11.22" class="up-body"/>
<line x1="1034.09" y1="636.73" x2="1034.09" y2="654.21" class="down-wick"/>
<rect x="1030.09" y="642.56" width="8.00" height="2.93" class="down-body"/>
<line x1="1052.45" y1="645.50" x2="1052.45" y2="668.46" class="down-wick"/>
<rect x="1048.45" y="645.50" width="8.00" height="13.47" class="down-body"/>
<line x1="1070.82" y1="654.13" x2="1070.82" y2="664.01" class="down-wick"/>
<rect x="1066.82" y="659.00" width="8.00" height="1.00" class="down-body"/>
<line x1="70" y1="766.13" x2="1080" y2="766.13" class="number-line"/>
<text x="1076" y="762.13" text-anchor="end" class="level-label">round 4760.00</text>
<line x1="70" y1="766.13" x2="1080" y2="766.13" class="entry-line"/>
<text x="1076" y="762.13" text-anchor="end" class="level-label">entry level 4760.00</text>
<text x="70" y="806" class="axis-label">2026-04-14 07:15:00+00:00 to 2026-04-14 11:45:00+00:00</text>
<text x="1080" y="806" text-anchor="end" class="axis-label">4754.93 - 4799.42</text>
<text x="70" y="832" class="panel-title">M1 execution window</text>
<rect x="70" y="846" width="1010" height="192" class="plot-bg"/>
<line x1="73.71" y1="975.41" x2="73.71" y2="978.87" class="up-wick"/>
<rect x="71.30" y="976.70" width="4.83" height="1.00" class="up-body"/>
<line x1="81.14" y1="965.01" x2="81.14" y2="969.96" class="up-wick"/>
<rect x="78.73" y="966.21" width="4.83" height="2.73" class="up-body"/>
<line x1="88.57" y1="954.94" x2="88.57" y2="964.18" class="up-wick"/>
<rect x="86.15" y="955.12" width="4.83" height="8.78" class="up-body"/>
<line x1="95.99" y1="950.18" x2="95.99" y2="954.66" class="up-wick"/>
<rect x="93.58" y="953.23" width="4.83" height="1.00" class="up-body"/>
<line x1="103.42" y1="947.27" x2="103.42" y2="952.81" class="down-wick"/>
<rect x="101.01" y="951.43" width="4.83" height="1.00" class="down-body"/>
<line x1="110.85" y1="949.07" x2="110.85" y2="953.09" class="up-wick"/>
<rect x="108.43" y="950.64" width="4.83" height="1.11" class="up-body"/>
<line x1="118.27" y1="939.69" x2="118.27" y2="944.63" class="up-wick"/>
<rect x="115.86" y="941.21" width="4.83" height="2.36" class="up-body"/>
<line x1="125.70" y1="943.99" x2="125.70" y2="945.79" class="up-wick"/>
<rect x="123.28" y="944.54" width="4.83" height="1.11" class="up-body"/>
<line x1="133.12" y1="947.04" x2="133.12" y2="949.39" class="up-wick"/>
<rect x="130.71" y="948.38" width="4.83" height="1.00" class="up-body"/>
<line x1="140.55" y1="942.69" x2="140.55" y2="949.12" class="down-wick"/>
<rect x="138.14" y="943.34" width="4.83" height="5.59" class="down-body"/>
<line x1="147.98" y1="947.68" x2="147.98" y2="954.01" class="up-wick"/>
<rect x="145.56" y="950.32" width="4.83" height="2.40" class="up-body"/>
<line x1="155.40" y1="955.77" x2="155.40" y2="961.96" class="down-wick"/>
<rect x="152.99" y="956.42" width="4.83" height="5.50" class="down-body"/>
<line x1="162.83" y1="957.29" x2="162.83" y2="962.52" class="up-wick"/>
<rect x="160.42" y="957.66" width="4.83" height="3.60" class="up-body"/>
<line x1="170.26" y1="958.22" x2="170.26" y2="962.56" class="up-wick"/>
<rect x="167.84" y="958.91" width="4.83" height="1.00" class="up-body"/>
<line x1="177.68" y1="957.99" x2="177.68" y2="961.13" class="up-wick"/>
<rect x="175.27" y="959.05" width="4.83" height="1.00" class="up-body"/>
<line x1="185.11" y1="954.52" x2="185.11" y2="956.93" class="up-wick"/>
<rect x="182.70" y="955.26" width="4.83" height="1.00" class="up-body"/>
<line x1="192.54" y1="954.48" x2="192.54" y2="959.74" class="up-wick"/>
<rect x="190.12" y="954.71" width="4.83" height="3.10" class="up-body"/>
<line x1="199.96" y1="945.42" x2="199.96" y2="948.61" class="up-wick"/>
<rect x="197.55" y="946.34" width="4.83" height="2.26" class="up-body"/>
<line x1="207.39" y1="944.17" x2="207.39" y2="949.16" class="down-wick"/>
<rect x="204.98" y="945.33" width="4.83" height="3.51" class="down-body"/>
<line x1="214.82" y1="950.50" x2="214.82" y2="954.38" class="down-wick"/>
<rect x="212.40" y="950.64" width="4.83" height="1.34" class="down-body"/>
<line x1="222.24" y1="949.90" x2="222.24" y2="952.21" class="down-wick"/>
<rect x="219.83" y="950.96" width="4.83" height="1.25" class="down-body"/>
<line x1="229.67" y1="950.41" x2="229.67" y2="953.97" class="down-wick"/>
<rect x="227.26" y="950.78" width="4.83" height="3.00" class="down-body"/>
<line x1="237.10" y1="951.84" x2="237.10" y2="954.48" class="down-wick"/>
<rect x="234.68" y="951.84" width="4.83" height="1.06" class="down-body"/>
<line x1="244.52" y1="954.01" x2="244.52" y2="959.74" class="down-wick"/>
<rect x="242.11" y="954.20" width="4.83" height="5.31" class="down-body"/>
<line x1="251.95" y1="956.56" x2="251.95" y2="964.18" class="down-wick"/>
<rect x="249.53" y="956.56" width="4.83" height="4.90" class="down-body"/>
<line x1="259.38" y1="959.88" x2="259.38" y2="966.54" class="down-wick"/>
<rect x="256.96" y="960.21" width="4.83" height="5.08" class="down-body"/>
<line x1="266.80" y1="969.12" x2="266.80" y2="971.80" class="down-wick"/>
<rect x="264.39" y="970.83" width="4.83" height="1.00" class="down-body"/>
<line x1="274.23" y1="972.04" x2="274.23" y2="984.79" class="down-wick"/>
<rect x="271.81" y="973.01" width="4.83" height="10.40" class="down-body"/>
<line x1="281.65" y1="984.05" x2="281.65" y2="995.42" class="down-wick"/>
<rect x="279.24" y="986.82" width="4.83" height="7.35" class="down-body"/>
<line x1="289.08" y1="994.49" x2="289.08" y2="1001.89" class="up-wick"/>
<rect x="286.67" y="999.62" width="4.83" height="1.00" class="up-body"/>
<line x1="296.51" y1="989.46" x2="296.51" y2="995.23" class="down-wick"/>
<rect x="294.09" y="992.74" width="4.83" height="2.08" class="down-body"/>
<line x1="303.93" y1="985.39" x2="303.93" y2="990.19" class="up-wick"/>
<rect x="301.52" y="985.67" width="4.83" height="3.19" class="up-body"/>
<line x1="311.36" y1="984.79" x2="311.36" y2="989.27" class="down-wick"/>
<rect x="308.95" y="984.83" width="4.83" height="3.00" class="down-body"/>
<line x1="318.79" y1="980.95" x2="318.79" y2="982.99" class="up-wick"/>
<rect x="316.37" y="981.97" width="4.83" height="1.00" class="up-body"/>
<line x1="326.21" y1="990.70" x2="326.21" y2="995.51" class="down-wick"/>
<rect x="323.80" y="991.12" width="4.83" height="1.00" class="down-body"/>
<line x1="333.64" y1="995.92" x2="333.64" y2="1004.94" class="down-wick"/>
<rect x="331.23" y="996.62" width="4.83" height="2.73" class="down-body"/>
<line x1="341.07" y1="1004.01" x2="341.07" y2="1011.17" class="up-wick"/>
<rect x="338.65" y="1004.24" width="4.83" height="2.73" class="up-body"/>
<line x1="348.49" y1="996.11" x2="348.49" y2="1004.43" class="up-wick"/>
<rect x="346.08" y="996.53" width="4.83" height="6.84" class="up-body"/>
<line x1="355.92" y1="987.75" x2="355.92" y2="1007.48" class="down-wick"/>
<rect x="353.51" y="990.89" width="4.83" height="12.38" class="down-body"/>
<line x1="363.35" y1="1002.67" x2="363.35" y2="1010.30" class="down-wick"/>
<rect x="360.93" y="1003.55" width="4.83" height="6.75" class="down-body"/>
<line x1="370.77" y1="1005.44" x2="370.77" y2="1020.32" class="up-wick"/>
<rect x="368.36" y="1009.46" width="4.83" height="1.00" class="up-body"/>
<line x1="378.20" y1="1006.28" x2="378.20" y2="1015.75" class="down-wick"/>
<rect x="375.78" y="1009.56" width="4.83" height="5.96" class="down-body"/>
<line x1="385.62" y1="1014.32" x2="385.62" y2="1023.74" class="down-wick"/>
<rect x="383.21" y="1021.20" width="4.83" height="1.02" class="down-body"/>
<line x1="393.05" y1="1006.78" x2="393.05" y2="1024.76" class="up-wick"/>
<rect x="390.64" y="1009.05" width="4.83" height="15.71" class="up-body"/>
<line x1="400.48" y1="1009.05" x2="400.48" y2="1016.72" class="down-wick"/>
<rect x="398.06" y="1009.05" width="4.83" height="6.05" class="down-body"/>
<line x1="407.90" y1="1012.74" x2="407.90" y2="1021.43" class="down-wick"/>
<rect x="405.49" y="1012.84" width="4.83" height="3.23" class="down-body"/>
<line x1="415.33" y1="996.90" x2="415.33" y2="1008.72" class="up-wick"/>
<rect x="412.92" y="996.90" width="4.83" height="8.96" class="up-body"/>
<line x1="422.76" y1="993.52" x2="422.76" y2="1001.47" class="down-wick"/>
<rect x="420.34" y="995.88" width="4.83" height="3.65" class="down-body"/>
<line x1="430.18" y1="987.15" x2="430.18" y2="992.14" class="down-wick"/>
<rect x="427.77" y="991.12" width="4.83" height="1.00" class="down-body"/>
<line x1="437.61" y1="997.31" x2="437.61" y2="1005.63" class="up-wick"/>
<rect x="435.20" y="1003.55" width="4.83" height="1.00" class="up-body"/>
<line x1="445.04" y1="1003.50" x2="445.04" y2="1016.86" class="down-wick"/>
<rect x="442.62" y="1010.48" width="4.83" height="6.38" class="down-body"/>
<line x1="452.46" y1="1007.85" x2="452.46" y2="1013.53" class="up-wick"/>
<rect x="450.05" y="1009.05" width="4.83" height="3.84" class="up-body"/>
<line x1="459.89" y1="1010.99" x2="459.89" y2="1019.08" class="down-wick"/>
<rect x="457.48" y="1012.01" width="4.83" height="6.10" class="down-body"/>
<line x1="467.32" y1="991.12" x2="467.32" y2="1005.91" class="down-wick"/>
<rect x="464.90" y="991.58" width="4.83" height="8.59" class="down-body"/>
<line x1="474.74" y1="988.39" x2="474.74" y2="996.85" class="up-wick"/>
<rect x="472.33" y="992.32" width="4.83" height="3.23" class="up-body"/>
<line x1="482.17" y1="991.44" x2="482.17" y2="998.79" class="up-wick"/>
<rect x="479.76" y="991.81" width="4.83" height="5.18" class="up-body"/>
<line x1="489.60" y1="976.52" x2="489.60" y2="983.68" class="up-wick"/>
<rect x="487.18" y="979.43" width="4.83" height="3.42" class="up-body"/>
<line x1="497.02" y1="973.51" x2="497.02" y2="979.52" class="up-wick"/>
<rect x="494.61" y="974.25" width="4.83" height="5.27" class="up-body"/>
<line x1="504.45" y1="987.84" x2="504.45" y2="993.80" class="down-wick"/>
<rect x="502.03" y="987.84" width="4.83" height="3.65" class="down-body"/>
<line x1="511.88" y1="983.54" x2="511.88" y2="991.54" class="up-wick"/>
<rect x="509.46" y="984.05" width="4.83" height="6.93" class="up-body"/>
<line x1="519.30" y1="990.98" x2="519.30" y2="998.10" class="down-wick"/>
<rect x="516.89" y="990.98" width="4.83" height="1.76" class="down-body"/>
<line x1="526.73" y1="993.98" x2="526.73" y2="997.91" class="up-wick"/>
<rect x="524.31" y="994.08" width="4.83" height="3.70" class="up-body"/>
<line x1="534.15" y1="997.40" x2="534.15" y2="1002.39" class="down-wick"/>
<rect x="531.74" y="998.47" width="4.83" height="2.03" class="down-body"/>
<line x1="541.58" y1="989.87" x2="541.58" y2="994.08" class="up-wick"/>
<rect x="539.17" y="992.04" width="4.83" height="1.00" class="up-body"/>
<line x1="549.01" y1="984.93" x2="549.01" y2="990.10" class="up-wick"/>
<rect x="546.59" y="987.84" width="4.83" height="2.03" class="up-body"/>
<line x1="556.43" y1="994.08" x2="556.43" y2="997.59" class="up-wick"/>
<rect x="554.02" y="994.58" width="4.83" height="1.00" class="up-body"/>
<line x1="563.86" y1="981.14" x2="563.86" y2="991.63" class="up-wick"/>
<rect x="561.45" y="986.17" width="4.83" height="1.00" class="up-body"/>
<line x1="571.29" y1="982.11" x2="571.29" y2="986.59" class="up-wick"/>
<rect x="568.87" y="982.39" width="4.83" height="2.36" class="up-body"/>
<line x1="578.71" y1="985.25" x2="578.71" y2="989.09" class="down-wick"/>
<rect x="576.30" y="985.76" width="4.83" height="2.08" class="down-body"/>
<line x1="586.14" y1="992.09" x2="586.14" y2="996.66" class="down-wick"/>
<rect x="583.73" y="993.15" width="4.83" height="1.39" class="down-body"/>
<line x1="593.57" y1="991.63" x2="593.57" y2="995.56" class="up-wick"/>
<rect x="591.15" y="992.23" width="4.83" height="1.89" class="up-body"/>
<line x1="600.99" y1="991.67" x2="600.99" y2="998.14" class="down-wick"/>
<rect x="598.58" y="995.51" width="4.83" height="1.06" class="down-body"/>
<line x1="608.42" y1="981.97" x2="608.42" y2="985.90" class="up-wick"/>
<rect x="606.01" y="983.26" width="4.83" height="1.11" class="up-body"/>
<line x1="615.85" y1="974.90" x2="615.85" y2="982.85" class="up-wick"/>
<rect x="613.43" y="975.27" width="4.83" height="7.58" class="up-body"/>
<line x1="623.27" y1="975.55" x2="623.27" y2="983.08" class="down-wick"/>
<rect x="620.86" y="975.73" width="4.83" height="4.30" class="down-body"/>
<line x1="630.70" y1="960.90" x2="630.70" y2="976.75" class="up-wick"/>
<rect x="628.28" y="961.55" width="4.83" height="12.34" class="up-body"/>
<line x1="638.12" y1="952.35" x2="638.12" y2="966.07" class="down-wick"/>
<rect x="635.71" y="955.17" width="4.83" height="9.75" class="down-body"/>
<line x1="645.55" y1="956.37" x2="645.55" y2="960.30" class="up-wick"/>
<rect x="643.14" y="958.40" width="4.83" height="1.00" class="up-body"/>
<line x1="652.98" y1="944.96" x2="652.98" y2="950.73" class="up-wick"/>
<rect x="650.56" y="946.94" width="4.83" height="3.79" class="up-body"/>
<line x1="660.40" y1="918.94" x2="660.40" y2="941.03" class="up-wick"/>
<rect x="657.99" y="931.09" width="4.83" height="6.33" class="up-body"/>
<line x1="667.83" y1="914.97" x2="667.83" y2="931.93" class="up-wick"/>
<rect x="665.42" y="920.14" width="4.83" height="10.67" class="up-body"/>
<line x1="675.26" y1="915.38" x2="675.26" y2="927.81" class="up-wick"/>
<rect x="672.84" y="916.17" width="4.83" height="7.35" class="up-body"/>
<line x1="682.68" y1="913.72" x2="682.68" y2="921.25" class="up-wick"/>
<rect x="680.27" y="915.66" width="4.83" height="1.00" class="up-body"/>
<line x1="690.11" y1="894.45" x2="690.11" y2="906.93" class="up-wick"/>
<rect x="687.70" y="899.26" width="4.83" height="6.33" class="up-body"/>
<line x1="697.54" y1="885.95" x2="697.54" y2="904.34" class="up-wick"/>
<rect x="695.12" y="886.87" width="4.83" height="2.96" class="up-body"/>
<line x1="704.96" y1="873.10" x2="704.96" y2="894.27" class="up-wick"/>
<rect x="702.55" y="873.94" width="4.83" height="20.33" class="up-body"/>
<line x1="712.39" y1="861.88" x2="712.39" y2="875.09" class="down-wick"/>
<rect x="709.98" y="867.42" width="4.83" height="1.89" class="down-body"/>
<line x1="719.82" y1="859.24" x2="719.82" y2="869.68" class="up-wick"/>
<rect x="717.40" y="863.12" width="4.83" height="6.56" class="up-body"/>
<line x1="727.24" y1="882.25" x2="727.24" y2="897.50" class="down-wick"/>
<rect x="724.83" y="883.92" width="4.83" height="10.67" class="down-body"/>
<line x1="734.67" y1="885.26" x2="734.67" y2="895.79" class="up-wick"/>
<rect x="732.26" y="886.69" width="4.83" height="6.75" class="up-body"/>
<line x1="742.10" y1="872.18" x2="742.10" y2="889.00" class="down-wick"/>
<rect x="739.68" y="878.88" width="4.83" height="8.46" class="down-body"/>
<line x1="749.52" y1="883.69" x2="749.52" y2="892.14" class="up-wick"/>
<rect x="747.11" y="888.54" width="4.83" height="2.96" class="up-body"/>
<line x1="756.95" y1="894.82" x2="756.95" y2="905.68" class="down-wick"/>
<rect x="754.53" y="895.88" width="4.83" height="6.93" class="down-body"/>
<line x1="764.38" y1="894.54" x2="764.38" y2="907.11" class="up-wick"/>
<rect x="761.96" y="894.54" width="4.83" height="9.24" class="up-body"/>
<line x1="771.80" y1="915.25" x2="771.80" y2="952.67" class="down-wick"/>
<rect x="769.39" y="919.40" width="4.83" height="32.48" class="down-body"/>
<line x1="779.23" y1="952.26" x2="779.23" y2="982.06" class="down-wick"/>
<rect x="776.81" y="959.37" width="4.83" height="18.39" class="down-body"/>
<line x1="786.65" y1="949.62" x2="786.65" y2="960.25" class="up-wick"/>
<rect x="784.24" y="951.70" width="4.83" height="6.01" class="up-body"/>
<line x1="794.08" y1="959.24" x2="794.08" y2="969.08" class="up-wick"/>
<rect x="791.67" y="959.93" width="4.83" height="4.94" class="up-body"/>
<line x1="801.51" y1="948.19" x2="801.51" y2="957.29" class="down-wick"/>
<rect x="799.09" y="952.30" width="4.83" height="3.33" class="down-body"/>
<line x1="808.93" y1="944.96" x2="808.93" y2="958.59" class="up-wick"/>
<rect x="806.52" y="951.93" width="4.83" height="5.27" class="up-body"/>
<line x1="816.36" y1="954.98" x2="816.36" y2="961.96" class="up-wick"/>
<rect x="813.95" y="956.42" width="4.83" height="3.93" class="up-body"/>
<line x1="823.79" y1="952.86" x2="823.79" y2="963.90" class="down-wick"/>
<rect x="821.37" y="952.86" width="4.83" height="1.00" class="down-body"/>
<line x1="831.21" y1="935.85" x2="831.21" y2="947.64" class="up-wick"/>
<rect x="828.80" y="935.95" width="4.83" height="11.69" class="up-body"/>
<line x1="838.64" y1="927.07" x2="838.64" y2="941.58" class="down-wick"/>
<rect x="836.23" y="928.55" width="4.83" height="10.91" class="down-body"/>
<line x1="846.07" y1="938.53" x2="846.07" y2="952.81" class="up-wick"/>
<rect x="843.65" y="945.19" width="4.83" height="2.86" class="up-body"/>
<line x1="853.49" y1="927.54" x2="853.49" y2="936.69" class="up-wick"/>
<rect x="851.08" y="929.48" width="4.83" height="6.05" class="up-body"/>
<line x1="860.92" y1="922.55" x2="860.92" y2="931.19" class="down-wick"/>
<rect x="858.51" y="927.63" width="4.83" height="1.00" class="down-body"/>
<line x1="868.35" y1="930.12" x2="868.35" y2="937.29" class="down-wick"/>
<rect x="865.93" y="934.10" width="4.83" height="1.00" class="down-body"/>
<line x1="875.77" y1="934.42" x2="875.77" y2="943.20" class="up-wick"/>
<rect x="873.36" y="937.66" width="4.83" height="1.00" class="up-body"/>
<line x1="883.20" y1="938.12" x2="883.20" y2="948.42" class="up-wick"/>
<rect x="880.78" y="938.26" width="4.83" height="5.59" class="up-body"/>
<line x1="890.62" y1="940.06" x2="890.62" y2="953.92" class="up-wick"/>
<rect x="888.21" y="942.65" width="4.83" height="4.11" class="up-body"/>
<line x1="898.05" y1="937.89" x2="898.05" y2="943.11" class="up-wick"/>
<rect x="895.64" y="940.29" width="4.83" height="1.00" class="up-body"/>
<line x1="905.48" y1="927.95" x2="905.48" y2="942.74" class="up-wick"/>
<rect x="903.06" y="939.18" width="4.83" height="1.00" class="up-body"/>
<line x1="912.90" y1="937.52" x2="912.90" y2="946.76" class="down-wick"/>
<rect x="910.49" y="940.48" width="4.83" height="5.91" class="down-body"/>
<line x1="920.33" y1="942.00" x2="920.33" y2="950.18" class="up-wick"/>
<rect x="917.92" y="948.24" width="4.83" height="1.94" class="up-body"/>
<line x1="927.76" y1="931.23" x2="927.76" y2="936.46" class="up-wick"/>
<rect x="925.34" y="932.30" width="4.83" height="3.10" class="up-body"/>
<line x1="935.18" y1="915.66" x2="935.18" y2="921.76" class="down-wick"/>
<rect x="932.77" y="916.86" width="4.83" height="2.40" class="down-body"/>
<line x1="942.61" y1="916.12" x2="942.61" y2="925.27" class="down-wick"/>
<rect x="940.20" y="916.91" width="4.83" height="6.28" class="down-body"/>
<line x1="950.04" y1="913.44" x2="950.04" y2="934.93" class="up-wick"/>
<rect x="947.62" y="925.69" width="4.83" height="4.30" class="up-body"/>
<line x1="957.46" y1="919.45" x2="957.46" y2="932.30" class="down-wick"/>
<rect x="955.05" y="923.56" width="4.83" height="5.73" class="down-body"/>
<line x1="964.89" y1="922.92" x2="964.89" y2="929.80" class="down-wick"/>
<rect x="962.48" y="923.56" width="4.83" height="4.71" class="down-body"/>
<line x1="972.32" y1="928.18" x2="972.32" y2="935.44" class="down-wick"/>
<rect x="969.90" y="928.51" width="4.83" height="6.84" class="down-body"/>
<line x1="979.74" y1="923.10" x2="979.74" y2="929.75" class="up-wick"/>
<rect x="977.33" y="926.34" width="4.83" height="3.05" class="up-body"/>
<line x1="987.17" y1="924.81" x2="987.17" y2="936.04" class="down-wick"/>
<rect x="984.76" y="926.01" width="4.83" height="8.18" class="down-body"/>
<line x1="994.60" y1="917.05" x2="994.60" y2="942.55" class="down-wick"/>
<rect x="992.18" y="923.70" width="4.83" height="14.09" class="down-body"/>
<line x1="1002.02" y1="917.69" x2="1002.02" y2="937.66" class="up-wick"/>
<rect x="999.61" y="918.48" width="4.83" height="19.04" class="up-body"/>
<line x1="1009.45" y1="907.34" x2="1009.45" y2="912.70" class="up-wick"/>
<rect x="1007.03" y="908.87" width="4.83" height="1.00" class="up-body"/>
<line x1="1016.88" y1="895.65" x2="1016.88" y2="907.02" class="up-wick"/>
<rect x="1014.46" y="898.33" width="4.83" height="8.69" class="up-body"/>
<line x1="1024.30" y1="891.73" x2="1024.30" y2="902.17" class="down-wick"/>
<rect x="1021.89" y="895.33" width="4.83" height="1.16" class="down-body"/>
<line x1="1031.73" y1="885.03" x2="1031.73" y2="891.82" class="down-wick"/>
<rect x="1029.31" y="885.90" width="4.83" height="1.00" class="down-body"/>
<line x1="1039.15" y1="883.08" x2="1039.15" y2="891.96" class="up-wick"/>
<rect x="1036.74" y="885.16" width="4.83" height="1.00" class="up-body"/>
<line x1="1046.58" y1="883.96" x2="1046.58" y2="889.42" class="up-wick"/>
<rect x="1044.17" y="884.06" width="4.83" height="1.00" class="up-body"/>
<line x1="1054.01" y1="888.40" x2="1054.01" y2="898.19" class="up-wick"/>
<rect x="1051.59" y="889.23" width="4.83" height="8.41" class="up-body"/>
<line x1="1061.43" y1="897.46" x2="1061.43" y2="903.97" class="down-wick"/>
<rect x="1059.02" y="898.98" width="4.83" height="3.37" class="down-body"/>
<line x1="1068.86" y1="901.75" x2="1068.86" y2="913.81" class="down-wick"/>
<rect x="1066.45" y="901.94" width="4.83" height="5.96" class="down-body"/>
<line x1="1076.29" y1="900.00" x2="1076.29" y2="905.50" class="up-wick"/>
<rect x="1073.87" y="901.11" width="4.83" height="2.59" class="up-body"/>
<line x1="70" y1="1018.38" x2="1080" y2="1018.38" class="number-line"/>
<text x="1076" y="1014.38" text-anchor="end" class="level-label">round 4760.00</text>
<line x1="70" y1="1018.38" x2="1080" y2="1018.38" class="entry-line"/>
<text x="1076" y="1014.38" text-anchor="end" class="level-label">entry level 4760.00</text>
<text x="70" y="1056" class="axis-label">2026-04-14 07:15:00+00:00 to 2026-04-14 11:45:00+00:00</text>
<text x="1080" y="1056" text-anchor="end" class="axis-label">4755.75 - 4797.31</text>
</svg>