<svg xmlns="http://www.w3.org/2000/svg" width="1120" height="1054" viewBox="0 0 1120 1054">
<style>
text{font-family:Arial,Helvetica,sans-serif}.title{font-size:21px;font-weight:700;fill:#1f2937}.subtitle{font-size:12px;fill:#4b5563}.panel-title{font-size:15px;font-weight:700;fill:#111827}.muted{font-size:13px;fill:#6b7280}.plot-bg{fill:#f8fafc;stroke:#cbd5e1;stroke-width:1}.up-body{fill:#15803d;stroke:#14532d;stroke-width:.8}.down-body{fill:#b91c1c;stroke:#7f1d1d;stroke-width:.8}.up-wick{stroke:#14532d;stroke-width:1}.down-wick{stroke:#7f1d1d;stroke-width:1}.sweep-line{stroke:#7c3aed;stroke-width:1.6;stroke-dasharray:6 4}.number-line{stroke:#0f766e;stroke-width:1.4;stroke-dasharray:3 4}.entry-line{stroke:#2563eb;stroke-width:1.4}.sl-line{stroke:#dc2626;stroke-width:1.4}.tp-line{stroke:#16a34a;stroke-width:1.4}.level-label,.axis-label{font-size:11px;fill:#374151}
</style>
<text x="28" y="28" class="title">Adelin v2 visual review sample sample_200</text>
<text x="28" y="48" class="subtitle">Candidate windows are for visual labeling only and are not trade signals.</text>
<text x="560" y="48" class="subtitle" text-anchor="middle">ASIA_OPEN_CONTEXT | PRE_ANCHOR_SWEEP_EXTREME_CANDIDATE</text>
<text x="70" y="82" class="panel-title">H1 liquidity context</text>
<rect x="70" y="96" width="1010" height="192" class="plot-bg"/>
<line x1="80.74" y1="139.93" x2="80.74" y2="203.18" class="up-wick"/>
<rect x="76.74" y="150.80" width="8.00" height="19.35" class="up-body"/>
<line x1="102.23" y1="148.84" x2="102.23" y2="274.76" class="down-wick"/>
<rect x="98.23" y="151.47" width="8.00" height="58.75" class="down-body"/>
<line x1="123.72" y1="138.25" x2="123.72" y2="211.98" class="up-wick"/>
<rect x="119.72" y="149.72" width="8.00" height="60.50" class="up-body"/>
<line x1="145.21" y1="147.98" x2="145.21" y2="242.46" class="down-wick"/>
<rect x="141.21" y="149.49" width="8.00" height="21.09" class="down-body"/>
<line x1="166.70" y1="164.42" x2="166.70" y2="209.55" class="down-wick"/>
<rect x="162.70" y="170.58" width="8.00" height="26.75" class="down-body"/>
<line x1="188.19" y1="160.38" x2="188.19" y2="208.93" class="up-wick"/>
<rect x="184.19" y="163.88" width="8.00" height="33.42" class="up-body"/>
<line x1="209.68" y1="148.50" x2="209.68" y2="178.54" class="down-wick"/>
<rect x="205.68" y="163.88" width="8.00" height="13.62" class="down-body"/>
<line x1="231.17" y1="161.86" x2="231.17" y2="198.02" class="up-wick"/>
<rect x="227.17" y="167.39" width="8.00" height="10.11" class="up-body"/>
<line x1="252.66" y1="127.23" x2="252.66" y2="193.28" class="down-wick"/>
<rect x="248.66" y="167.39" width="8.00" height="11.51" class="down-body"/>
<line x1="274.15" y1="169.63" x2="274.15" y2="222.46" class="down-wick"/>
<rect x="270.15" y="178.90" width="8.00" height="36.09" class="down-body"/>
<line x1="295.64" y1="197.63" x2="295.64" y2="237.40" class="down-wick"/>
<rect x="291.64" y="215.00" width="8.00" height="9.19" class="down-body"/>
<line x1="317.13" y1="223.02" x2="317.13" y2="263.74" class="down-wick"/>
<rect x="313.13" y="224.18" width="8.00" height="33.92" class="down-body"/>
<line x1="338.62" y1="206.24" x2="338.62" y2="269.40" class="up-wick"/>
<rect x="334.62" y="207.63" width="8.00" height="50.47" class="up-body"/>
<line x1="360.11" y1="156.37" x2="360.11" y2="220.48" class="down-wick"/>
<rect x="356.11" y="207.79" width="8.00" height="3.74" class="down-body"/>
<line x1="381.60" y1="150.93" x2="381.60" y2="217.17" class="up-wick"/>
<rect x="377.60" y="162.20" width="8.00" height="49.33" class="up-body"/>
<line x1="403.09" y1="130.98" x2="403.09" y2="175.16" class="up-wick"/>
<rect x="399.09" y="140.83" width="8.00" height="21.37" class="up-body"/>
<line x1="424.57" y1="123.17" x2="424.57" y2="230.92" class="down-wick"/>
<rect x="420.57" y="140.83" width="8.00" height="73.02" class="down-body"/>
<line x1="446.06" y1="192.72" x2="446.06" y2="239.68" class="down-wick"/>
<rect x="442.06" y="213.92" width="8.00" height="19.05" class="down-body"/>
<line x1="467.55" y1="207.59" x2="467.55" y2="260.96" class="up-wick"/>
<rect x="463.55" y="225.28" width="8.00" height="7.68" class="up-body"/>
<line x1="489.04" y1="196.72" x2="489.04" y2="239.59" class="down-wick"/>
<rect x="485.04" y="221.71" width="8.00" height="2.11" class="down-body"/>
<line x1="510.53" y1="166.53" x2="510.53" y2="226.62" class="up-wick"/>
<rect x="506.53" y="177.63" width="8.00" height="46.18" class="up-body"/>
<line x1="532.02" y1="161.45" x2="532.02" y2="187.64" class="up-wick"/>
<rect x="528.02" y="177.31" width="8.00" height="1.00" class="up-body"/>
<line x1="553.51" y1="158.57" x2="553.51" y2="195.05" class="down-wick"/>
<rect x="549.51" y="177.27" width="8.00" height="15.47" class="down-body"/>
<line x1="575.00" y1="170.25" x2="575.00" y2="207.96" class="down-wick"/>
<rect x="571.00" y="187.69" width="8.00" height="12.48" class="down-body"/>
<line x1="596.49" y1="171.70" x2="596.49" y2="201.09" class="up-wick"/>
<rect x="592.49" y="177.38" width="8.00" height="22.81" class="up-body"/>
<line x1="617.98" y1="174.62" x2="617.98" y2="208.90" class="down-wick"/>
<rect x="613.98" y="177.38" width="8.00" height="21.35" class="down-body"/>
<line x1="639.47" y1="144.88" x2="639.47" y2="216.46" class="up-wick"/>
<rect x="635.47" y="145.01" width="8.00" height="53.72" class="up-body"/>
<line x1="660.96" y1="141.20" x2="660.96" y2="162.16" class="down-wick"/>
<rect x="656.96" y="145.07" width="8.00" height="11.15" class="down-body"/>
<line x1="682.45" y1="132.61" x2="682.45" y2="160.72" class="up-wick"/>
<rect x="678.45" y="145.83" width="8.00" height="10.39" class="up-body"/>
<line x1="703.94" y1="114.86" x2="703.94" y2="148.32" class="up-wick"/>
<rect x="699.94" y="123.47" width="8.00" height="22.36" class="up-body"/>
<line x1="725.43" y1="109.24" x2="725.43" y2="161.69" class="down-wick"/>
<rect x="721.43" y="123.47" width="8.00" height="36.93" class="down-body"/>
<line x1="746.91" y1="155.94" x2="746.91" y2="193.58" class="down-wick"/>
<rect x="742.91" y="160.25" width="8.00" height="23.11" class="down-body"/>
<line x1="768.40" y1="144.73" x2="768.40" y2="185.75" class="up-wick"/>
<rect x="764.40" y="159.28" width="8.00" height="24.08" class="up-body"/>
<line x1="789.89" y1="141.26" x2="789.89" y2="165.52" class="up-wick"/>
<rect x="785.89" y="151.68" width="8.00" height="7.60" class="up-body"/>
<line x1="811.38" y1="149.16" x2="811.38" y2="183.77" class="down-wick"/>
<rect x="807.38" y="151.68" width="8.00" height="30.75" class="down-body"/>
<line x1="832.87" y1="169.74" x2="832.87" y2="222.29" class="down-wick"/>
<rect x="828.87" y="182.43" width="8.00" height="22.10" class="down-body"/>
<line x1="854.36" y1="180.37" x2="854.36" y2="211.98" class="up-wick"/>
<rect x="850.36" y="197.99" width="8.00" height="6.67" class="up-body"/>
<line x1="875.85" y1="153.75" x2="875.85" y2="206.34" class="up-wick"/>
<rect x="871.85" y="179.96" width="8.00" height="18.12" class="up-body"/>
<line x1="897.34" y1="137.37" x2="897.34" y2="193.37" class="up-wick"/>
<rect x="893.34" y="169.31" width="8.00" height="10.65" class="up-body"/>
<line x1="918.83" y1="160.83" x2="918.83" y2="198.94" class="down-wick"/>
<rect x="914.83" y="169.31" width="8.00" height="19.22" class="down-body"/>
<line x1="940.32" y1="167.24" x2="940.32" y2="262.08" class="down-wick"/>
<rect x="936.32" y="188.52" width="8.00" height="21.18" class="down-body"/>
<line x1="961.81" y1="192.55" x2="961.81" y2="223.13" class="up-wick"/>
<rect x="957.81" y="200.73" width="8.00" height="8.97" class="up-body"/>
<line x1="983.30" y1="186.20" x2="983.30" y2="212.71" class="up-wick"/>
<rect x="979.30" y="199.74" width="8.00" height="1.14" class="up-body"/>
<line x1="1004.79" y1="185.55" x2="1004.79" y2="205.63" class="up-wick"/>
<rect x="1000.79" y="196.98" width="8.00" height="2.75" class="up-body"/>
<line x1="1026.28" y1="193.02" x2="1026.28" y2="212.78" class="down-wick"/>
<rect x="1022.28" y="196.98" width="8.00" height="7.60" class="down-body"/>
<line x1="1047.77" y1="191.37" x2="1047.77" y2="205.33" class="up-wick"/>
<rect x="1043.77" y="192.44" width="8.00" height="12.20" class="up-body"/>
<line x1="1069.26" y1="192.66" x2="1069.26" y2="219.45" class="down-wick"/>
<rect x="1065.26" y="192.96" width="8.00" height="12.33" class="down-body"/>
<line x1="70" y1="207.16" x2="1080" y2="207.16" class="sweep-line"/>
<text x="1076" y="203.16" text-anchor="end" class="level-label">sweep 4999.03</text>
<line x1="70" y1="207.96" x2="1080" y2="207.96" class="entry-line"/>
<text x="1076" y="203.96" text-anchor="end" class="level-label">entry level 4998.66</text>
<text x="70" y="306" class="axis-label">2026-03-16 00:00:00+00:00 to 2026-03-18 00:00:00+00:00</text>
<text x="1080" y="306" text-anchor="end" class="axis-label">4961.47 - 5050.68</text>
<text x="70" y="332" class="panel-title">M15 liquidity / reaction context</text>
<rect x="70" y="346" width="1010" height="192" class="plot-bg"/>
<line x1="77.32" y1="462.76" x2="77.32" y2="500.43" class="up-wick"/>
<rect x="73.32" y="464.34" width="8.00" height="32.35" class="up-body"/>
<line x1="91.96" y1="445.89" x2="91.96" y2="471.88" class="up-wick"/>
<rect x="87.96" y="455.86" width="8.00" height="8.65" class="up-body"/>
<line x1="106.59" y1="406.27" x2="106.59" y2="455.86" class="up-wick"/>
<rect x="102.59" y="414.61" width="8.00" height="41.25" class="up-body"/>
<line x1="121.23" y1="412.66" x2="121.23" y2="427.68" class="down-wick"/>
<rect x="117.23" y="414.61" width="8.00" height="8.85" class="down-body"/>
<line x1="135.87" y1="417.36" x2="135.87" y2="478.90" class="down-wick"/>
<rect x="131.87" y="423.46" width="8.00" height="45.30" class="down-body"/>
<line x1="150.51" y1="445.21" x2="150.51" y2="475.14" class="up-wick"/>
<rect x="146.51" y="447.86" width="8.00" height="20.89" class="up-body"/>
<line x1="165.14" y1="401.08" x2="165.14" y2="454.74" class="up-wick"/>
<rect x="161.14" y="405.34" width="8.00" height="42.52" class="up-body"/>
<line x1="179.78" y1="400.10" x2="179.78" y2="415.29" class="down-wick"/>
<rect x="175.78" y="405.34" width="8.00" height="2.75" class="down-body"/>
<line x1="194.42" y1="407.17" x2="194.42" y2="431.63" class="down-wick"/>
<rect x="190.42" y="408.15" width="8.00" height="4.73" class="down-body"/>
<line x1="209.06" y1="403.91" x2="209.06" y2="427.55" class="up-wick"/>
<rect x="205.06" y="406.66" width="8.00" height="6.22" class="up-body"/>
<line x1="223.70" y1="387.81" x2="223.70" y2="416.46" class="down-wick"/>
<rect x="219.70" y="406.66" width="8.00" height="2.78" class="down-body"/>
<line x1="238.33" y1="377.50" x2="238.33" y2="416.95" class="up-wick"/>
<rect x="234.33" y="384.62" width="8.00" height="24.87" class="up-body"/>
<line x1="252.97" y1="379.55" x2="252.97" y2="405.00" class="down-wick"/>
<rect x="248.97" y="384.62" width="8.00" height="4.05" class="down-body"/>
<line x1="267.61" y1="368.65" x2="267.61" y2="395.37" class="down-wick"/>
<rect x="263.61" y="388.67" width="8.00" height="4.14" class="down-body"/>
<line x1="282.25" y1="388.42" x2="282.25" y2="425.75" class="down-wick"/>
<rect x="278.25" y="392.86" width="8.00" height="32.43" class="down-body"/>
<line x1="296.88" y1="424.48" x2="296.88" y2="460.42" class="down-wick"/>
<rect x="292.88" y="425.29" width="8.00" height="33.89" class="down-body"/>
<line x1="311.52" y1="455.40" x2="311.52" y2="490.72" class="down-wick"/>
<rect x="307.52" y="459.13" width="8.00" height="12.26" class="down-body"/>
<line x1="326.16" y1="455.49" x2="326.16" y2="484.75" class="up-wick"/>
<rect x="322.16" y="465.17" width="8.00" height="6.29" class="up-body"/>
<line x1="340.80" y1="447.45" x2="340.80" y2="499.16" class="down-wick"/>
<rect x="336.80" y="465.17" width="8.00" height="16.07" class="down-body"/>
<line x1="355.43" y1="453.15" x2="355.43" y2="484.68" class="up-wick"/>
<rect x="351.43" y="469.44" width="8.00" height="11.80" class="up-body"/>
<line x1="370.07" y1="463.47" x2="370.07" y2="500.65" class="down-wick"/>
<rect x="366.07" y="469.34" width="8.00" height="23.70" class="down-body"/>
<line x1="384.71" y1="464.30" x2="384.71" y2="496.55" class="up-wick"/>
<rect x="380.71" y="470.07" width="8.00" height="22.97" class="up-body"/>
<line x1="399.35" y1="466.00" x2="399.35" y2="514.84" class="down-wick"/>
<rect x="395.35" y="470.07" width="8.00" height="40.57" class="down-body"/>
<line x1="413.99" y1="486.63" x2="413.99" y2="524.76" class="up-wick"/>
<rect x="409.99" y="492.92" width="8.00" height="17.75" class="up-body"/>
<line x1="428.62" y1="478.78" x2="428.62" y2="502.50" class="up-wick"/>
<rect x="424.62" y="484.34" width="8.00" height="8.65" class="up-body"/>
<line x1="443.26" y1="451.98" x2="443.26" y2="484.63" class="up-wick"/>
<rect x="439.26" y="456.59" width="8.00" height="23.70" class="up-body"/>
<line x1="457.90" y1="454.15" x2="457.90" y2="474.15" class="down-wick"/>
<rect x="453.90" y="456.59" width="8.00" height="14.60" class="down-body"/>
<line x1="472.54" y1="469.90" x2="472.54" y2="496.23" class="down-wick"/>
<rect x="468.54" y="471.22" width="8.00" height="20.21" class="down-body"/>
<line x1="487.17" y1="478.88" x2="487.17" y2="500.55" class="up-wick"/>
<rect x="483.17" y="482.68" width="8.00" height="8.75" class="up-body"/>
<line x1="501.81" y1="459.13" x2="501.81" y2="485.85" class="up-wick"/>
<rect x="497.81" y="464.13" width="8.00" height="18.55" class="up-body"/>
<line x1="516.45" y1="441.82" x2="516.45" y2="468.25" class="up-wick"/>
<rect x="512.45" y="446.06" width="8.00" height="17.99" class="up-body"/>
<line x1="531.09" y1="423.12" x2="531.09" y2="448.40" class="up-wick"/>
<rect x="527.09" y="425.80" width="8.00" height="20.04" class="up-body"/>
<line x1="545.72" y1="417.78" x2="545.72" y2="432.67" class="down-wick"/>
<rect x="541.72" y="425.80" width="8.00" height="4.56" class="down-body"/>
<line x1="560.36" y1="412.02" x2="560.36" y2="440.04" class="down-wick"/>
<rect x="556.36" y="430.36" width="8.00" height="2.29" class="down-body"/>
<line x1="575.00" y1="423.53" x2="575.00" y2="438.01" class="down-wick"/>
<rect x="571.00" y="432.65" width="8.00" height="3.34" class="down-body"/>
<line x1="589.64" y1="425.58" x2="589.64" y2="441.70" class="down-wick"/>
<rect x="585.64" y="435.99" width="8.00" height="1.00" class="down-body"/>
<line x1="604.28" y1="422.26" x2="604.28" y2="440.99" class="up-wick"/>
<rect x="600.28" y="429.99" width="8.00" height="6.66" class="up-body"/>
<line x1="618.91" y1="408.76" x2="618.91" y2="441.94" class="up-wick"/>
<rect x="614.91" y="420.39" width="8.00" height="9.56" class="up-body"/>
<line x1="633.55" y1="418.31" x2="633.55" y2="427.04" class="down-wick"/>
<rect x="629.55" y="420.39" width="8.00" height="6.44" class="down-body"/>
<line x1="648.19" y1="426.82" x2="648.19" y2="442.67" class="down-wick"/>
<rect x="644.19" y="426.82" width="8.00" height="12.99" class="down-body"/>
<line x1="662.83" y1="436.36" x2="662.83" y2="450.08" class="down-wick"/>
<rect x="658.83" y="439.79" width="8.00" height="7.68" class="down-body"/>
<line x1="677.46" y1="422.00" x2="677.46" y2="458.81" class="down-wick"/>
<rect x="673.46" y="441.74" width="8.00" height="9.90" class="down-body"/>
<line x1="692.10" y1="441.84" x2="692.10" y2="463.81" class="down-wick"/>
<rect x="688.10" y="451.57" width="8.00" height="5.56" class="down-body"/>
<line x1="706.74" y1="449.89" x2="706.74" y2="464.71" class="down-wick"/>
<rect x="702.74" y="457.13" width="8.00" height="1.00" class="down-body"/>
<line x1="721.38" y1="446.57" x2="721.38" y2="460.05" class="up-wick"/>
<rect x="717.38" y="455.88" width="8.00" height="1.68" class="up-body"/>
<line x1="736.01" y1="445.91" x2="736.01" y2="456.93" class="up-wick"/>
<rect x="732.01" y="446.57" width="8.00" height="9.34" class="up-body"/>
<line x1="750.65" y1="437.23" x2="750.65" y2="448.23" class="up-wick"/>
<rect x="746.65" y="438.45" width="8.00" height="8.12" class="up-body"/>
<line x1="765.29" y1="426.48" x2="765.29" y2="440.55" class="down-wick"/>
<rect x="761.29" y="438.45" width="8.00" height="2.10" class="down-body"/>
<line x1="779.93" y1="423.63" x2="779.93" y2="444.65" class="up-wick"/>
<rect x="775.93" y="430.07" width="8.00" height="10.48" class="up-body"/>
<line x1="794.57" y1="426.95" x2="794.57" y2="455.54" class="down-wick"/>
<rect x="790.57" y="430.07" width="8.00" height="15.07" class="down-body"/>
<line x1="809.20" y1="435.60" x2="809.20" y2="461.18" class="down-wick"/>
<rect x="805.20" y="445.13" width="8.00" height="7.78" class="down-body"/>
<line x1="823.84" y1="444.21" x2="823.84" y2="465.30" class="down-wick"/>
<rect x="819.84" y="452.91" width="8.00" height="4.12" class="down-body"/>
<line x1="838.48" y1="446.11" x2="838.48" y2="465.78" class="up-wick"/>
<rect x="834.48" y="454.25" width="8.00" height="2.73" class="up-body"/>
<line x1="853.12" y1="430.97" x2="853.12" y2="474.34" class="up-wick"/>
<rect x="849.12" y="436.43" width="8.00" height="17.82" class="up-body"/>
<line x1="867.75" y1="425.87" x2="867.75" y2="443.06" class="up-wick"/>
<rect x="863.75" y="428.41" width="8.00" height="8.05" class="up-body"/>
<line x1="882.39" y1="413.19" x2="882.39" y2="433.84" class="up-wick"/>
<rect x="878.39" y="417.75" width="8.00" height="10.73" class="up-body"/>
<line x1="897.03" y1="393.25" x2="897.03" y2="420.58" class="up-wick"/>
<rect x="893.03" y="393.40" width="8.00" height="24.36" class="up-body"/>
<line x1="911.67" y1="389.08" x2="911.67" y2="410.34" class="down-wick"/>
<rect x="907.67" y="393.47" width="8.00" height="15.58" class="down-body"/>
<line x1="926.30" y1="398.91" x2="926.30" y2="412.83" class="up-wick"/>
<rect x="922.30" y="399.52" width="8.00" height="9.53" class="up-body"/>
<line x1="940.94" y1="389.81" x2="940.94" y2="407.66" class="up-wick"/>
<rect x="936.94" y="390.55" width="8.00" height="8.97" class="up-body"/>
<line x1="955.58" y1="389.64" x2="955.58" y2="408.66" class="down-wick"/>
<rect x="951.58" y="390.55" width="8.00" height="15.55" class="down-body"/>
<line x1="970.22" y1="398.81" x2="970.22" y2="411.20" class="up-wick"/>
<rect x="966.22" y="405.59" width="8.00" height="1.00" class="up-body"/>
<line x1="984.86" y1="381.45" x2="984.86" y2="406.39" class="up-wick"/>
<rect x="980.86" y="382.06" width="8.00" height="23.53" class="up-body"/>
<line x1="999.49" y1="379.36" x2="999.49" y2="394.42" class="down-wick"/>
<rect x="995.49" y="382.06" width="8.00" height="9.31" class="down-body"/>
<line x1="1014.13" y1="387.94" x2="1014.13" y2="398.20" class="down-wick"/>
<rect x="1010.13" y="391.37" width="8.00" height="2.95" class="down-body"/>
<line x1="1028.77" y1="387.11" x2="1028.77" y2="397.13" class="up-wick"/>
<rect x="1024.77" y="390.35" width="8.00" height="3.97" class="up-body"/>
<line x1="1043.41" y1="381.16" x2="1043.41" y2="397.15" class="up-wick"/>
<rect x="1039.41" y="382.09" width="8.00" height="8.26" class="up-body"/>
<line x1="1058.04" y1="360.17" x2="1058.04" y2="382.87" class="up-wick"/>
<rect x="1054.04" y="364.56" width="8.00" height="17.53" class="up-body"/>
<line x1="1072.68" y1="359.24" x2="1072.68" y2="371.33" class="down-wick"/>
<rect x="1068.68" y="364.56" width="8.00" height="4.44" class="down-body"/>
<line x1="70" y1="463.81" x2="1080" y2="463.81" class="sweep-line"/>
<text x="1076" y="459.81" text-anchor="end" class="level-label">sweep 4999.03</text>
<line x1="70" y1="464.71" x2="1080" y2="464.71" class="entry-line"/>
<text x="1076" y="460.71" text-anchor="end" class="level-label">entry level 4998.66</text>
<text x="70" y="556" class="axis-label">2026-03-16 12:45:00+00:00 to 2026-03-17 06:45:00+00:00</text>
<text x="1080" y="556" text-anchor="end" class="axis-label">4968.60 - 5047.35</text>
<text x="70" y="582" class="panel-title">M5 reaction / execution context</text>
<rect x="70" y="596" width="1010" height="192" class="plot-bg"/>
<line x1="80.98" y1="643.94" x2="80.98" y2="695.87" class="up-wick"/>
<rect x="76.98" y="672.76" width="8.00" height="19.15" class="up-body"/>
<line x1="102.93" y1="641.71" x2="102.93" y2="701.76" class="down-wick"/>
<rect x="98.93" y="672.76" width="8.00" height="27.27" class="down-body"/>
<line x1="124.89" y1="687.69" x2="124.89" y2="735.28" class="down-wick"/>
<rect x="120.89" y="700.02" width="8.00" height="17.04" class="down-body"/>
<line x1="146.85" y1="692.15" x2="146.85" y2="716.88" class="up-wick"/>
<rect x="142.85" y="703.06" width="8.00" height="13.82" class="up-body"/>
<line x1="168.80" y1="702.63" x2="168.80" y2="747.99" class="down-wick"/>
<rect x="164.80" y="702.63" width="8.00" height="40.22" class="down-body"/>
<line x1="190.76" y1="729.46" x2="190.76" y2="745.57" class="up-wick"/>
<rect x="186.76" y="731.01" width="8.00" height="11.84" class="up-body"/>
<line x1="212.72" y1="714.96" x2="212.72" y2="750.28" class="up-wick"/>
<rect x="208.72" y="718.80" width="8.00" height="12.21" class="up-body"/>
<line x1="234.67" y1="712.60" x2="234.67" y2="733.30" class="down-wick"/>
<rect x="230.67" y="718.74" width="8.00" height="14.44" class="down-body"/>
<line x1="256.63" y1="724.56" x2="256.63" y2="741.23" class="down-wick"/>
<rect x="252.63" y="731.57" width="8.00" height="1.00" class="down-body"/>
<line x1="278.59" y1="704.86" x2="278.59" y2="736.96" class="up-wick"/>
<rect x="274.59" y="708.45" width="8.00" height="23.67" class="up-body"/>
<line x1="300.54" y1="704.18" x2="300.54" y2="719.85" class="down-wick"/>
<rect x="296.54" y="708.64" width="8.00" height="8.37" class="down-body"/>
<line x1="322.50" y1="717.13" x2="322.50" y2="738.45" class="down-wick"/>
<rect x="318.50" y="717.13" width="8.00" height="10.72" class="down-body"/>
<line x1="344.46" y1="704.11" x2="344.46" y2="730.51" class="up-wick"/>
<rect x="340.46" y="709.51" width="8.00" height="18.40" class="up-body"/>
<line x1="366.41" y1="703.37" x2="366.41" y2="724.13" class="up-wick"/>
<rect x="362.41" y="706.84" width="8.00" height="2.66" class="up-body"/>
<line x1="388.37" y1="702.50" x2="388.37" y2="712.17" class="up-wick"/>
<rect x="384.37" y="704.18" width="8.00" height="2.60" class="up-body"/>
<line x1="410.33" y1="701.26" x2="410.33" y2="706.97" class="down-wick"/>
<rect x="406.33" y="704.18" width="8.00" height="1.00" class="down-body"/>
<line x1="432.28" y1="685.46" x2="432.28" y2="708.39" class="up-wick"/>
<rect x="428.28" y="693.95" width="8.00" height="11.15" class="up-body"/>
<line x1="454.24" y1="680.44" x2="454.24" y2="694.39" class="up-wick"/>
<rect x="450.24" y="683.54" width="8.00" height="10.41" class="up-body"/>
<line x1="476.20" y1="661.54" x2="476.20" y2="684.72" class="up-wick"/>
<rect x="472.20" y="663.09" width="8.00" height="20.45" class="up-body"/>
<line x1="498.15" y1="655.97" x2="498.15" y2="678.40" class="down-wick"/>
<rect x="494.15" y="663.09" width="8.00" height="4.65" class="down-body"/>
<line x1="520.11" y1="653.11" x2="520.11" y2="688.87" class="down-wick"/>
<rect x="516.11" y="667.74" width="8.00" height="21.13" class="down-body"/>
<line x1="542.07" y1="676.48" x2="542.07" y2="699.28" class="up-wick"/>
<rect x="538.07" y="677.28" width="8.00" height="11.59" class="up-body"/>
<line x1="564.02" y1="653.86" x2="564.02" y2="677.47" class="up-wick"/>
<rect x="560.02" y="655.16" width="8.00" height="22.12" class="up-body"/>
<line x1="585.98" y1="645.86" x2="585.98" y2="671.15" class="down-wick"/>
<rect x="581.98" y="655.16" width="8.00" height="7.06" class="down-body"/>
<line x1="607.93" y1="654.29" x2="607.93" y2="708.02" class="down-wick"/>
<rect x="603.93" y="662.22" width="8.00" height="37.80" class="down-body"/>
<line x1="629.89" y1="669.10" x2="629.89" y2="726.98" class="down-wick"/>
<rect x="625.89" y="700.15" width="8.00" height="13.69" class="down-body"/>
<line x1="651.85" y1="694.01" x2="651.85" y2="716.26" class="up-wick"/>
<rect x="647.85" y="700.52" width="8.00" height="13.32" class="up-body"/>
<line x1="673.80" y1="676.29" x2="673.80" y2="706.66" class="up-wick"/>
<rect x="669.80" y="695.01" width="8.00" height="5.52" class="up-body"/>
<line x1="695.76" y1="692.96" x2="695.76" y2="714.28" class="down-wick"/>
<rect x="691.76" y="695.01" width="8.00" height="18.84" class="down-body"/>
<line x1="717.72" y1="706.22" x2="717.72" y2="741.30" class="down-wick"/>
<rect x="713.72" y="713.84" width="8.00" height="6.44" class="down-body"/>
<line x1="739.67" y1="704.61" x2="739.67" y2="731.26" class="down-wick"/>
<rect x="735.67" y="720.29" width="8.00" height="7.81" class="down-body"/>
<line x1="761.63" y1="698.17" x2="761.63" y2="728.10" class="up-wick"/>
<rect x="757.63" y="721.59" width="8.00" height="6.26" class="up-body"/>
<line x1="783.59" y1="716.94" x2="783.59" y2="751.77" class="down-wick"/>
<rect x="779.59" y="721.59" width="8.00" height="9.17" class="down-body"/>
<line x1="805.54" y1="716.94" x2="805.54" y2="742.91" class="down-wick"/>
<rect x="801.54" y="730.64" width="8.00" height="9.05" class="down-body"/>
<line x1="827.50" y1="714.15" x2="827.50" y2="753.01" class="up-wick"/>
<rect x="823.50" y="714.77" width="8.00" height="24.91" class="up-body"/>
<line x1="849.46" y1="703.00" x2="849.46" y2="727.72" class="down-wick"/>
<rect x="845.46" y="714.59" width="8.00" height="9.11" class="down-body"/>
<line x1="871.41" y1="699.72" x2="871.41" y2="774.76" class="up-wick"/>
<rect x="867.41" y="723.63" width="8.00" height="1.00" class="up-body"/>
<line x1="893.37" y1="684.35" x2="893.37" y2="730.95" class="up-wick"/>
<rect x="889.37" y="684.78" width="8.00" height="38.85" class="up-body"/>
<line x1="915.33" y1="664.52" x2="915.33" y2="703.06" class="up-wick"/>
<rect x="911.33" y="678.40" width="8.00" height="6.44" class="up-body"/>
<line x1="937.28" y1="654.54" x2="937.28" y2="687.63" class="down-wick"/>
<rect x="933.28" y="678.46" width="8.00" height="8.99" class="down-body"/>
<line x1="959.24" y1="681.87" x2="959.24" y2="693.64" class="up-wick"/>
<rect x="955.24" y="686.64" width="8.00" height="1.00" class="up-body"/>
<line x1="981.20" y1="651.57" x2="981.20" y2="695.25" class="up-wick"/>
<rect x="977.20" y="658.01" width="8.00" height="28.63" class="up-body"/>
<line x1="1003.15" y1="640.66" x2="1003.15" y2="671.83" class="down-wick"/>
<rect x="999.15" y="658.20" width="8.00" height="4.40" class="down-body"/>
<line x1="1025.11" y1="619.34" x2="1025.11" y2="664.15" class="up-wick"/>
<rect x="1021.11" y="639.73" width="8.00" height="22.62" class="up-body"/>
<line x1="1047.07" y1="619.47" x2="1047.07" y2="640.41" class="up-wick"/>
<rect x="1043.07" y="630.93" width="8.00" height="8.80" class="up-body"/>
<line x1="1069.02" y1="609.24" x2="1069.02" y2="638.12" class="up-wick"/>
<rect x="1065.02" y="613.77" width="8.00" height="17.17" class="up-body"/>
<line x1="70" y1="747.99" x2="1080" y2="747.99" class="sweep-line"/>
<text x="1076" y="743.99" text-anchor="end" class="level-label">sweep 4999.03</text>
<line x1="70" y1="750.28" x2="1080" y2="750.28" class="entry-line"/>
<text x="1076" y="746.28" text-anchor="end" class="level-label">entry level 4998.66</text>
<text x="70" y="806" class="axis-label">2026-03-17 00:00:00+00:00 to 2026-03-17 03:45:00+00:00</text>
<text x="1080" y="806" text-anchor="end" class="axis-label">4992.57 - 5023.56</text>
<text x="70" y="832" class="panel-title">M1 execution window</text>
<rect x="70" y="846" width="1010" height="192" class="plot-bg"/>
<line x1="74.47" y1="918.33" x2="74.47" y2="947.09" class="up-wick"/>
<rect x="71.56" y="922.21" width="5.81" height="20.30" class="up-body"/>
<line x1="83.41" y1="886.99" x2="83.41" y2="926.15" class="up-wick"/>
<rect x="80.50" y="917.47" width="5.81" height="8.46" class="up-body"/>
<line x1="92.35" y1="903.06" x2="92.35" y2="920.92" class="down-wick"/>
<rect x="89.44" y="908.15" width="5.81" height="12.19" class="down-body"/>
<line x1="101.28" y1="900.12" x2="101.28" y2="911.09" class="up-wick"/>
<rect x="98.38" y="901.48" width="5.81" height="9.61" class="up-body"/>
<line x1="110.22" y1="884.41" x2="110.22" y2="907.36" class="down-wick"/>
<rect x="107.32" y="904.28" width="5.81" height="1.00" class="down-body"/>
<line x1="119.16" y1="937.63" x2="119.16" y2="962.08" class="down-wick"/>
<rect x="116.25" y="951.90" width="5.81" height="10.04" class="down-body"/>
<line x1="128.10" y1="956.20" x2="128.10" y2="992.70" class="down-wick"/>
<rect x="125.19" y="957.42" width="5.81" height="11.76" class="down-body"/>
<line x1="137.04" y1="961.51" x2="137.04" y2="978.29" class="up-wick"/>
<rect x="134.13" y="971.62" width="5.81" height="5.24" class="up-body"/>
<line x1="145.97" y1="942.79" x2="145.97" y2="960.14" class="up-wick"/>
<rect x="143.07" y="945.08" width="5.81" height="8.25" class="up-body"/>
<line x1="154.91" y1="944.01" x2="154.91" y2="950.75" class="down-wick"/>
<rect x="152.01" y="949.67" width="5.81" height="1.00" class="down-body"/>
<line x1="163.85" y1="954.91" x2="163.85" y2="964.16" class="down-wick"/>
<rect x="160.94" y="954.91" width="5.81" height="9.04" class="down-body"/>
<line x1="172.79" y1="984.89" x2="172.79" y2="996.65" class="down-wick"/>
<rect x="169.88" y="988.47" width="5.81" height="2.29" class="down-body"/>
<line x1="181.73" y1="996.14" x2="181.73" y2="1007.40" class="down-wick"/>
<rect x="178.82" y="997.36" width="5.81" height="4.09" class="down-body"/>
<line x1="190.66" y1="988.83" x2="190.66" y2="1002.03" class="down-wick"/>
<rect x="187.76" y="993.63" width="5.81" height="8.03" class="down-body"/>
<line x1="199.60" y1="988.40" x2="199.60" y2="1004.61" class="down-wick"/>
<rect x="196.70" y="988.69" width="5.81" height="5.16" class="down-body"/>
<line x1="208.54" y1="986.53" x2="208.54" y2="1010.06" class="down-wick"/>
<rect x="205.63" y="987.75" width="5.81" height="9.90" class="down-body"/>
<line x1="217.48" y1="969.18" x2="217.48" y2="976.35" class="up-wick"/>
<rect x="214.57" y="974.49" width="5.81" height="1.00" class="up-body"/>
<line x1="226.42" y1="973.63" x2="226.42" y2="983.09" class="up-wick"/>
<rect x="223.51" y="973.63" width="5.81" height="2.15" class="up-body"/>
<line x1="235.35" y1="966.45" x2="235.35" y2="973.48" class="down-wick"/>
<rect x="232.45" y="971.47" width="5.81" height="1.00" class="down-body"/>
<line x1="244.29" y1="976.71" x2="244.29" y2="989.76" class="up-wick"/>
<rect x="241.39" y="980.37" width="5.81" height="2.01" class="up-body"/>
<line x1="253.23" y1="980.30" x2="253.23" y2="989.04" class="up-wick"/>
<rect x="250.33" y="987.83" width="5.81" height="1.00" class="up-body"/>
<line x1="262.17" y1="982.30" x2="262.17" y2="994.64" class="up-wick"/>
<rect x="259.26" y="982.88" width="5.81" height="11.40" class="up-body"/>
<line x1="271.11" y1="983.31" x2="271.11" y2="994.50" class="down-wick"/>
<rect x="268.20" y="987.61" width="5.81" height="1.86" class="down-body"/>
<line x1="280.04" y1="983.31" x2="280.04" y2="990.77" class="down-wick"/>
<rect x="277.14" y="988.11" width="5.81" height="2.58" class="down-body"/>
<line x1="288.98" y1="957.56" x2="288.98" y2="973.77" class="up-wick"/>
<rect x="286.08" y="958.06" width="5.81" height="12.05" class="up-body"/>
<line x1="297.92" y1="959.35" x2="297.92" y2="969.11" class="up-wick"/>
<rect x="295.02" y="959.43" width="5.81" height="2.44" class="up-body"/>
<line x1="306.86" y1="956.70" x2="306.86" y2="964.09" class="down-wick"/>
<rect x="303.95" y="958.49" width="5.81" height="4.95" class="down-body"/>
<line x1="315.80" y1="967.67" x2="315.80" y2="974.85" class="down-wick"/>
<rect x="312.89" y="967.96" width="5.81" height="3.59" class="down-body"/>
<line x1="324.73" y1="975.20" x2="324.73" y2="983.67" class="down-wick"/>
<rect x="321.83" y="976.06" width="5.81" height="4.88" class="down-body"/>
<line x1="333.67" y1="982.38" x2="333.67" y2="996.36" class="down-wick"/>
<rect x="330.77" y="983.67" width="5.81" height="6.45" class="down-body"/>
<line x1="342.61" y1="979.08" x2="342.61" y2="987.18" class="up-wick"/>
<rect x="339.71" y="980.08" width="5.81" height="4.09" class="up-body"/>
<line x1="351.55" y1="957.13" x2="351.55" y2="965.95" class="down-wick"/>
<rect x="348.64" y="957.28" width="5.81" height="6.60" class="down-body"/>
<line x1="360.49" y1="961.22" x2="360.49" y2="966.96" class="down-wick"/>
<rect x="357.58" y="961.22" width="5.81" height="1.65" class="down-body"/>
<line x1="369.42" y1="964.37" x2="369.42" y2="979.79" class="down-wick"/>
<rect x="366.52" y="966.60" width="5.81" height="9.61" class="down-body"/>
<line x1="378.36" y1="964.30" x2="378.36" y2="977.64" class="up-wick"/>
<rect x="375.46" y="965.09" width="5.81" height="12.05" class="up-body"/>
<line x1="387.30" y1="954.98" x2="387.30" y2="964.52" class="down-wick"/>
<rect x="384.40" y="959.71" width="5.81" height="3.16" class="down-body"/>
<line x1="396.24" y1="961.65" x2="396.24" y2="965.95" class="down-wick"/>
<rect x="393.33" y="961.65" width="5.81" height="3.80" class="down-body"/>
<line x1="405.18" y1="956.06" x2="405.18" y2="962.01" class="up-wick"/>
<rect x="402.27" y="956.70" width="5.81" height="5.24" class="up-body"/>
<line x1="414.12" y1="954.62" x2="414.12" y2="959.93" class="up-wick"/>
<rect x="411.21" y="957.20" width="5.81" height="1.00" class="up-body"/>
<line x1="423.05" y1="953.33" x2="423.05" y2="958.28" class="down-wick"/>
<rect x="420.15" y="954.19" width="5.81" height="2.08" class="down-body"/>
<line x1="431.99" y1="957.49" x2="431.99" y2="960.43" class="down-wick"/>
<rect x="429.09" y="957.78" width="5.81" height="2.51" class="down-body"/>
<line x1="440.93" y1="935.04" x2="440.93" y2="958.57" class="up-wick"/>
<rect x="438.02" y="938.49" width="5.81" height="19.58" class="up-body"/>
<line x1="449.87" y1="942.72" x2="449.87" y2="946.66" class="up-wick"/>
<rect x="446.96" y="944.87" width="5.81" height="1.79" class="up-body"/>
<line x1="458.81" y1="929.23" x2="458.81" y2="936.76" class="up-wick"/>
<rect x="455.90" y="931.03" width="5.81" height="4.88" class="up-body"/>
<line x1="467.74" y1="937.77" x2="467.74" y2="943.94" class="up-wick"/>
<rect x="464.84" y="937.91" width="5.81" height="2.87" class="up-body"/>
<line x1="476.68" y1="927.87" x2="476.68" y2="934.18" class="up-wick"/>
<rect x="473.78" y="930.88" width="5.81" height="1.94" class="up-body"/>
<line x1="485.62" y1="908.37" x2="485.62" y2="921.49" class="up-wick"/>
<rect x="482.71" y="915.75" width="5.81" height="5.67" class="up-body"/>
<line x1="494.56" y1="907.36" x2="494.56" y2="911.95" class="up-wick"/>
<rect x="491.65" y="909.15" width="5.81" height="1.00" class="up-body"/>
<line x1="503.50" y1="900.91" x2="503.50" y2="908.15" class="up-wick"/>
<rect x="500.59" y="903.63" width="5.81" height="4.52" class="up-body"/>
<line x1="512.43" y1="904.06" x2="512.43" y2="909.15" class="up-wick"/>
<rect x="509.53" y="905.86" width="5.81" height="2.65" class="up-body"/>
<line x1="521.37" y1="897.61" x2="521.37" y2="914.53" class="up-wick"/>
<rect x="518.47" y="903.92" width="5.81" height="10.61" class="up-body"/>
<line x1="530.31" y1="898.83" x2="530.31" y2="908.51" class="down-wick"/>
<rect x="527.40" y="899.04" width="5.81" height="7.96" class="down-body"/>
<line x1="539.25" y1="912.96" x2="539.25" y2="938.99" class="down-wick"/>
<rect x="536.34" y="912.96" width="5.81" height="26.03" class="down-body"/>
<line x1="548.19" y1="927.80" x2="548.19" y2="938.99" class="up-wick"/>
<rect x="545.28" y="933.32" width="5.81" height="5.52" class="up-body"/>
<line x1="557.12" y1="931.82" x2="557.12" y2="950.75" class="up-wick"/>
<rect x="554.22" y="934.40" width="5.81" height="16.28" class="up-body"/>
<line x1="566.06" y1="914.32" x2="566.06" y2="925.79" class="up-wick"/>
<rect x="563.16" y="917.69" width="5.81" height="7.89" class="up-body"/>
<line x1="575.00" y1="902.20" x2="575.00" y2="910.88" class="up-wick"/>
<rect x="572.10" y="903.35" width="5.81" height="3.51" class="up-body"/>
<line x1="583.94" y1="899.76" x2="583.94" y2="907.86" class="up-wick"/>
<rect x="581.03" y="899.98" width="5.81" height="4.16" class="up-body"/>
<line x1="592.88" y1="889.22" x2="592.88" y2="896.17" class="up-wick"/>
<rect x="589.97" y="890.80" width="5.81" height="4.30" class="up-body"/>
<line x1="601.81" y1="893.09" x2="601.81" y2="911.66" class="down-wick"/>
<rect x="598.91" y="893.09" width="5.81" height="18.29" class="down-body"/>
<line x1="610.75" y1="903.13" x2="610.75" y2="917.47" class="down-wick"/>
<rect x="607.85" y="908.15" width="5.81" height="8.10" class="down-body"/>
<line x1="619.69" y1="904.92" x2="619.69" y2="945.23" class="down-wick"/>
<rect x="616.79" y="907.29" width="5.81" height="33.49" class="down-body"/>
<line x1="628.63" y1="946.80" x2="628.63" y2="957.99" class="down-wick"/>
<rect x="625.72" y="947.31" width="5.81" height="4.59" class="down-body"/>
<line x1="637.57" y1="933.39" x2="637.57" y2="952.33" class="up-wick"/>
<rect x="634.66" y="936.76" width="5.81" height="15.42" class="up-body"/>
<line x1="646.50" y1="916.11" x2="646.50" y2="957.85" class="down-wick"/>
<rect x="643.60" y="932.61" width="5.81" height="24.60" class="down-body"/>
<line x1="655.44" y1="953.76" x2="655.44" y2="967.89" class="up-wick"/>
<rect x="652.54" y="957.71" width="5.81" height="10.18" class="up-body"/>
<line x1="664.38" y1="952.61" x2="664.38" y2="970.69" class="down-wick"/>
<rect x="661.48" y="953.76" width="5.81" height="5.81" class="down-body"/>
<line x1="673.32" y1="951.90" x2="673.32" y2="968.75" class="up-wick"/>
<rect x="670.41" y="952.47" width="5.81" height="14.77" class="up-body"/>
<line x1="682.26" y1="930.38" x2="682.26" y2="951.61" class="up-wick"/>
<rect x="679.35" y="932.18" width="5.81" height="15.06" class="up-body"/>
<line x1="691.19" y1="940.21" x2="691.19" y2="948.10" class="up-wick"/>
<rect x="688.29" y="943.79" width="5.81" height="1.72" class="up-body"/>
<line x1="700.13" y1="943.72" x2="700.13" y2="967.53" class="down-wick"/>
<rect x="697.23" y="946.09" width="5.81" height="18.29" class="down-body"/>
<line x1="709.07" y1="951.39" x2="709.07" y2="960.79" class="down-wick"/>
<rect x="706.17" y="951.39" width="5.81" height="4.09" class="down-body"/>
<line x1="718.01" y1="959.64" x2="718.01" y2="968.39" class="down-wick"/>
<rect x="715.10" y="960.07" width="5.81" height="7.82" class="down-body"/>
<line x1="726.95" y1="959.07" x2="726.95" y2="984.38" class="up-wick"/>
<rect x="724.04" y="964.45" width="5.81" height="18.57" class="up-body"/>
<line x1="735.88" y1="983.09" x2="735.88" y2="999.66" class="up-wick"/>
<rect x="732.98" y="984.96" width="5.81" height="4.52" class="up-body"/>
<line x1="744.82" y1="965.31" x2="744.82" y2="975.35" class="up-wick"/>
<rect x="741.92" y="971.98" width="5.81" height="3.37" class="up-body"/>
<line x1="753.76" y1="957.20" x2="753.76" y2="978.00" class="down-wick"/>
<rect x="750.86" y="959.28" width="5.81" height="13.27" class="down-body"/>
<line x1="762.70" y1="975.28" x2="762.70" y2="988.04" class="down-wick"/>
<rect x="759.79" y="976.42" width="5.81" height="7.96" class="down-body"/>
<line x1="771.64" y1="949.75" x2="771.64" y2="959.43" class="up-wick"/>
<rect x="768.73" y="951.97" width="5.81" height="6.02" class="up-body"/>
<line x1="780.58" y1="962.01" x2="780.58" y2="969.11" class="down-wick"/>
<rect x="777.67" y="964.73" width="5.81" height="4.37" class="down-body"/>
<line x1="789.51" y1="975.99" x2="789.51" y2="981.01" class="down-wick"/>
<rect x="786.61" y="976.85" width="5.81" height="2.87" class="down-body"/>
<line x1="798.45" y1="975.56" x2="798.45" y2="989.19" class="down-wick"/>
<rect x="795.55" y="976.06" width="5.81" height="13.12" class="down-body"/>
<line x1="807.39" y1="986.61" x2="807.39" y2="1004.82" class="up-wick"/>
<rect x="804.48" y="987.47" width="5.81" height="10.33" class="up-body"/>
<line x1="816.33" y1="975.92" x2="816.33" y2="983.09" class="down-wick"/>
<rect x="813.42" y="978.72" width="5.81" height="4.09" class="down-body"/>
<line x1="825.27" y1="986.32" x2="825.27" y2="1001.52" class="down-wick"/>
<rect x="822.36" y="986.82" width="5.81" height="12.33" class="down-body"/>
<line x1="834.20" y1="997.58" x2="834.20" y2="1013.21" class="down-wick"/>
<rect x="831.30" y="997.79" width="5.81" height="11.76" class="down-body"/>
<line x1="843.14" y1="986.46" x2="843.14" y2="1010.63" class="up-wick"/>
<rect x="840.24" y="990.84" width="5.81" height="7.82" class="up-body"/>
<line x1="852.08" y1="968.25" x2="852.08" y2="996.50" class="up-wick"/>
<rect x="849.17" y="968.96" width="5.81" height="21.16" class="up-body"/>
<line x1="861.02" y1="962.01" x2="861.02" y2="969.47" class="up-wick"/>
<rect x="858.11" y="966.02" width="5.81" height="1.00" class="up-body"/>
<line x1="869.96" y1="955.70" x2="869.96" y2="962.30" class="down-wick"/>
<rect x="867.05" y="960.79" width="5.81" height="1.29" class="down-body"/>
<line x1="878.89" y1="978.72" x2="878.89" y2="1016.51" class="down-wick"/>
<rect x="875.99" y="979.29" width="5.81" height="1.29" class="down-body"/>
<line x1="887.83" y1="951.54" x2="887.83" y2="980.01" class="down-wick"/>
<rect x="884.93" y="964.52" width="5.81" height="14.49" class="down-body"/>
<line x1="896.77" y1="976.28" x2="896.77" y2="1024.76" class="up-wick"/>
<rect x="893.87" y="979.22" width="5.81" height="45.54" class="up-body"/>
<line x1="905.71" y1="954.84" x2="905.71" y2="980.01" class="up-wick"/>
<rect x="902.80" y="967.17" width="5.81" height="2.65" class="up-body"/>
<line x1="914.65" y1="946.80" x2="914.65" y2="963.01" class="up-wick"/>
<rect x="911.74" y="947.38" width="5.81" height="6.02" class="up-body"/>
<line x1="923.58" y1="932.18" x2="923.58" y2="943.72" class="up-wick"/>
<rect x="920.68" y="933.54" width="5.81" height="1.00" class="up-body"/>
<line x1="932.52" y1="918.48" x2="932.52" y2="932.03" class="up-wick"/>
<rect x="929.62" y="920.27" width="5.81" height="4.95" class="up-body"/>
<line x1="941.46" y1="910.80" x2="941.46" y2="955.41" class="down-wick"/>
<rect x="938.56" y="921.42" width="5.81" height="5.45" class="down-body"/>
<line x1="950.40" y1="899.26" x2="950.40" y2="926.01" class="up-wick"/>
<rect x="947.49" y="916.97" width="5.81" height="3.51" class="up-body"/>
<line x1="959.34" y1="910.16" x2="959.34" y2="925.08" class="down-wick"/>
<rect x="956.43" y="918.19" width="5.81" height="5.02" class="down-body"/>
<line x1="968.27" y1="933.75" x2="968.27" y2="938.77" class="down-wick"/>
<rect x="965.37" y="937.27" width="5.81" height="1.00" class="down-body"/>
<line x1="977.21" y1="934.40" x2="977.21" y2="941.14" class="down-wick"/>
<rect x="974.31" y="934.90" width="5.81" height="4.52" class="down-body"/>
<line x1="986.15" y1="932.75" x2="986.15" y2="944.51" class="up-wick"/>
<rect x="983.25" y="936.41" width="5.81" height="5.52" class="up-body"/>
<line x1="995.09" y1="919.98" x2="995.09" y2="946.37" class="up-wick"/>
<rect x="992.18" y="920.41" width="5.81" height="22.16" class="up-body"/>
<line x1="1004.03" y1="902.63" x2="1004.03" y2="910.37" class="up-wick"/>
<rect x="1001.12" y="907.72" width="5.81" height="1.65" class="up-body"/>
<line x1="1012.96" y1="890.87" x2="1012.96" y2="907.29" class="up-wick"/>
<rect x="1010.06" y="892.66" width="5.81" height="10.83" class="up-body"/>
<line x1="1021.90" y1="891.87" x2="1021.90" y2="909.51" class="down-wick"/>
<rect x="1019.00" y="896.53" width="5.81" height="10.11" class="down-body"/>
<line x1="1030.84" y1="907.86" x2="1030.84" y2="919.27" class="up-wick"/>
<rect x="1027.94" y="908.58" width="5.81" height="3.37" class="up-body"/>
<line x1="1039.78" y1="869.14" x2="1039.78" y2="896.03" class="up-wick"/>
<rect x="1036.87" y="876.17" width="5.81" height="18.22" class="up-body"/>
<line x1="1048.72" y1="864.19" x2="1048.72" y2="887.28" class="down-wick"/>
<rect x="1045.81" y="864.69" width="5.81" height="11.98" class="down-body"/>
<line x1="1057.65" y1="870.57" x2="1057.65" y2="882.91" class="up-wick"/>
<rect x="1054.75" y="875.23" width="5.81" height="6.88" class="up-body"/>
<line x1="1066.59" y1="859.24" x2="1066.59" y2="870.50" class="down-wick"/>
<rect x="1063.69" y="864.19" width="5.81" height="5.88" class="down-body"/>
<line x1="1075.53" y1="866.77" x2="1075.53" y2="876.09" class="up-wick"/>
<rect x="1072.63" y="871.93" width="5.81" height="1.94" class="up-body"/>
<line x1="70" y1="1007.40" x2="1080" y2="1007.40" class="sweep-line"/>
<text x="1076" y="1003.40" text-anchor="end" class="level-label">sweep 4999.03</text>
<line x1="70" y1="1010.06" x2="1080" y2="1010.06" class="entry-line"/>
<text x="1076" y="1006.06" text-anchor="end" class="level-label">entry level 4998.66</text>
<text x="70" y="1056" class="axis-label">2026-03-17 00:00:00+00:00 to 2026-03-17 03:44:00+00:00</text>
<text x="1080" y="1056" text-anchor="end" class="axis-label">4994.76 - 5021.54</text>
</svg>