<svg xmlns="http://www.w3.org/2000/svg" width="1120" height="1054" viewBox="0 0 1120 1054">
<style>
text{font-family:Arial,Helvetica,sans-serif}.title{font-size:21px;font-weight:700;fill:#1f2937}.subtitle{font-size:12px;fill:#4b5563}.panel-title{font-size:15px;font-weight:700;fill:#111827}.muted{font-size:13px;fill:#6b7280}.plot-bg{fill:#f8fafc;stroke:#cbd5e1;stroke-width:1}.up-body{fill:#15803d;stroke:#14532d;stroke-width:.8}.down-body{fill:#b91c1c;stroke:#7f1d1d;stroke-width:.8}.up-wick{stroke:#14532d;stroke-width:1}.down-wick{stroke:#7f1d1d;stroke-width:1}.sweep-line{stroke:#7c3aed;stroke-width:1.6;stroke-dasharray:6 4}.number-line{stroke:#0f766e;stroke-width:1.4;stroke-dasharray:3 4}.entry-line{stroke:#2563eb;stroke-width:1.4}.sl-line{stroke:#dc2626;stroke-width:1.4}.tp-line{stroke:#16a34a;stroke-width:1.4}.level-label,.axis-label{font-size:11px;fill:#374151}
</style>
<text x="28" y="28" class="title">Adelin v2 visual review sample sample_227</text>
<text x="28" y="48" class="subtitle">Candidate windows are for visual labeling only and are not trade signals.</text>
<text x="560" y="48" class="subtitle" text-anchor="middle">NUMBER_THEORY_LEVEL_NEAR | ROUND_LEVEL_ENTRY_METADATA_AVAILABLE</text>
<text x="70" y="82" class="panel-title">H1 liquidity context</text>
<rect x="70" y="96" width="1010" height="192" class="plot-bg"/>
<line x1="81.48" y1="157.30" x2="81.48" y2="226.96" class="down-wick"/>
<rect x="77.48" y="175.15" width="8.00" height="18.81" class="down-body"/>
<line x1="104.43" y1="143.81" x2="104.43" y2="206.21" class="up-wick"/>
<rect x="100.43" y="149.49" width="8.00" height="44.53" class="up-body"/>
<line x1="127.39" y1="148.67" x2="127.39" y2="193.60" class="down-wick"/>
<rect x="123.39" y="149.28" width="8.00" height="35.01" class="down-body"/>
<line x1="150.34" y1="171.78" x2="150.34" y2="200.23" class="up-wick"/>
<rect x="146.34" y="177.40" width="8.00" height="6.88" class="up-body"/>
<line x1="173.30" y1="146.88" x2="173.30" y2="179.25" class="up-wick"/>
<rect x="169.30" y="154.29" width="8.00" height="23.17" class="up-body"/>
<line x1="196.25" y1="148.96" x2="196.25" y2="165.27" class="down-wick"/>
<rect x="192.25" y="154.17" width="8.00" height="1.00" class="down-body"/>
<line x1="219.20" y1="153.33" x2="219.20" y2="176.52" class="down-wick"/>
<rect x="215.20" y="154.72" width="8.00" height="20.44" class="down-body"/>
<line x1="242.16" y1="161.43" x2="242.16" y2="239.18" class="up-wick"/>
<rect x="238.16" y="174.65" width="8.00" height="11.17" class="up-body"/>
<line x1="265.11" y1="171.76" x2="265.11" y2="196.42" class="down-wick"/>
<rect x="261.11" y="174.65" width="8.00" height="13.75" class="down-body"/>
<line x1="288.07" y1="180.18" x2="288.07" y2="274.76" class="down-wick"/>
<rect x="284.07" y="188.37" width="8.00" height="32.15" class="down-body"/>
<line x1="311.02" y1="190.48" x2="311.02" y2="260.66" class="up-wick"/>
<rect x="307.02" y="206.15" width="8.00" height="15.16" class="up-body"/>
<line x1="333.98" y1="179.69" x2="333.98" y2="211.48" class="up-wick"/>
<rect x="329.98" y="193.60" width="8.00" height="12.55" class="up-body"/>
<line x1="356.93" y1="171.99" x2="356.93" y2="206.52" class="up-wick"/>
<rect x="352.93" y="182.23" width="8.00" height="11.36" class="up-body"/>
<line x1="379.89" y1="169.12" x2="379.89" y2="199.23" class="down-wick"/>
<rect x="375.89" y="182.25" width="8.00" height="1.00" class="down-body"/>
<line x1="402.84" y1="165.72" x2="402.84" y2="199.38" class="down-wick"/>
<rect x="398.84" y="182.99" width="8.00" height="14.83" class="down-body"/>
<line x1="425.80" y1="171.66" x2="425.80" y2="199.73" class="up-wick"/>
<rect x="421.80" y="173.69" width="8.00" height="24.13" class="up-body"/>
<line x1="448.75" y1="153.79" x2="448.75" y2="186.68" class="down-wick"/>
<rect x="444.75" y="173.69" width="8.00" height="1.00" class="down-body"/>
<line x1="471.70" y1="158.24" x2="471.70" y2="179.97" class="up-wick"/>
<rect x="467.70" y="168.86" width="8.00" height="5.67" class="up-body"/>
<line x1="494.66" y1="165.85" x2="494.66" y2="183.92" class="down-wick"/>
<rect x="490.66" y="168.86" width="8.00" height="10.68" class="down-body"/>
<line x1="517.61" y1="172.20" x2="517.61" y2="196.30" class="down-wick"/>
<rect x="513.61" y="179.54" width="8.00" height="4.13" class="down-body"/>
<line x1="540.57" y1="142.73" x2="540.57" y2="199.48" class="up-wick"/>
<rect x="536.57" y="167.89" width="8.00" height="15.79" class="up-body"/>
<line x1="563.52" y1="130.95" x2="563.52" y2="176.00" class="up-wick"/>
<rect x="559.52" y="136.62" width="8.00" height="31.28" class="up-body"/>
<line x1="586.48" y1="116.79" x2="586.48" y2="150.86" class="up-wick"/>
<rect x="582.48" y="129.49" width="8.00" height="7.14" class="up-body"/>
<line x1="609.43" y1="129.49" x2="609.43" y2="187.32" class="down-wick"/>
<rect x="605.43" y="129.49" width="8.00" height="44.68" class="down-body"/>
<line x1="632.39" y1="171.96" x2="632.39" y2="196.39" class="down-wick"/>
<rect x="628.39" y="174.19" width="8.00" height="4.41" class="down-body"/>
<line x1="655.34" y1="162.11" x2="655.34" y2="193.23" class="up-wick"/>
<rect x="651.34" y="168.54" width="8.00" height="10.06" class="up-body"/>
<line x1="678.30" y1="156.22" x2="678.30" y2="175.59" class="down-wick"/>
<rect x="674.30" y="168.54" width="8.00" height="4.88" class="down-body"/>
<line x1="701.25" y1="172.19" x2="701.25" y2="193.05" class="down-wick"/>
<rect x="697.25" y="173.42" width="8.00" height="16.82" class="down-body"/>
<line x1="724.20" y1="146.01" x2="724.20" y2="191.10" class="up-wick"/>
<rect x="720.20" y="156.05" width="8.00" height="34.19" class="up-body"/>
<line x1="747.16" y1="125.83" x2="747.16" y2="144.70" class="up-wick"/>
<rect x="743.16" y="132.56" width="8.00" height="11.38" class="up-body"/>
<line x1="770.11" y1="109.61" x2="770.11" y2="132.85" class="up-wick"/>
<rect x="766.11" y="120.56" width="8.00" height="12.03" class="up-body"/>
<line x1="793.07" y1="109.24" x2="793.07" y2="151.69" class="down-wick"/>
<rect x="789.07" y="120.56" width="8.00" height="27.93" class="down-body"/>
<line x1="816.02" y1="134.71" x2="816.02" y2="162.57" class="up-wick"/>
<rect x="812.02" y="147.85" width="8.00" height="1.00" class="up-body"/>
<line x1="838.98" y1="147.85" x2="838.98" y2="174.95" class="down-wick"/>
<rect x="834.98" y="147.85" width="8.00" height="25.28" class="down-body"/>
<line x1="861.93" y1="161.08" x2="861.93" y2="178.60" class="down-wick"/>
<rect x="857.93" y="173.13" width="8.00" height="3.19" class="down-body"/>
<line x1="884.89" y1="175.39" x2="884.89" y2="187.02" class="down-wick"/>
<rect x="880.89" y="176.32" width="8.00" height="4.04" class="down-body"/>
<line x1="907.84" y1="174.01" x2="907.84" y2="197.90" class="down-wick"/>
<rect x="903.84" y="180.33" width="8.00" height="2.34" class="down-body"/>
<line x1="930.80" y1="162.89" x2="930.80" y2="193.99" class="up-wick"/>
<rect x="926.80" y="171.64" width="8.00" height="11.03" class="up-body"/>
<line x1="953.75" y1="154.76" x2="953.75" y2="181.91" class="up-wick"/>
<rect x="949.75" y="157.89" width="8.00" height="13.75" class="up-body"/>
<line x1="976.70" y1="154.96" x2="976.70" y2="189.52" class="down-wick"/>
<rect x="972.70" y="157.89" width="8.00" height="21.92" class="down-body"/>
<line x1="999.66" y1="173.71" x2="999.66" y2="189.96" class="down-wick"/>
<rect x="995.66" y="179.83" width="8.00" height="1.41" class="down-body"/>
<line x1="1022.61" y1="176.91" x2="1022.61" y2="206.13" class="up-wick"/>
<rect x="1018.61" y="176.91" width="8.00" height="4.33" class="up-body"/>
<line x1="1045.57" y1="171.90" x2="1045.57" y2="199.48" class="down-wick"/>
<rect x="1041.57" y="176.91" width="8.00" height="21.24" class="down-body"/>
<line x1="1068.52" y1="173.18" x2="1068.52" y2="203.20" class="up-wick"/>
<rect x="1064.52" y="188.43" width="8.00" height="9.72" class="up-body"/>
<line x1="70" y1="138.47" x2="1080" y2="138.47" class="number-line"/>
<text x="1076" y="134.47" text-anchor="end" class="level-label">round 4570.00</text>
<line x1="70" y1="138.47" x2="1080" y2="138.47" class="entry-line"/>
<text x="1076" y="134.47" text-anchor="end" class="level-label">entry level 4570.00</text>
<text x="70" y="306" class="axis-label">2026-05-15 16:00:00+00:00 to 2026-05-19 15:00:00+00:00</text>
<text x="1080" y="306" text-anchor="end" class="axis-label">4471.58 - 4597.96</text>
<text x="70" y="332" class="panel-title">M15 liquidity / reaction context</text>
<rect x="70" y="346" width="1010" height="192" class="plot-bg"/>
<line x1="76.92" y1="462.97" x2="76.92" y2="524.57" class="down-wick"/>
<rect x="72.92" y="468.29" width="8.00" height="54.40" class="down-body"/>
<line x1="90.75" y1="466.81" x2="90.75" y2="524.76" class="up-wick"/>
<rect x="86.75" y="467.93" width="8.00" height="54.76" class="up-body"/>
<line x1="104.59" y1="467.65" x2="104.59" y2="509.99" class="down-wick"/>
<rect x="100.59" y="468.75" width="8.00" height="31.03" class="down-body"/>
<line x1="118.42" y1="477.48" x2="118.42" y2="504.73" class="up-wick"/>
<rect x="114.42" y="487.00" width="8.00" height="12.80" class="up-body"/>
<line x1="132.26" y1="471.35" x2="132.26" y2="493.72" class="up-wick"/>
<rect x="128.26" y="473.42" width="8.00" height="13.58" class="up-body"/>
<line x1="146.10" y1="436.45" x2="146.10" y2="475.90" class="up-wick"/>
<rect x="142.10" y="452.87" width="8.00" height="20.55" class="up-body"/>
<line x1="159.93" y1="431.98" x2="159.93" y2="458.45" class="up-wick"/>
<rect x="155.93" y="435.00" width="8.00" height="17.86" class="up-body"/>
<line x1="173.77" y1="428.60" x2="173.77" y2="442.60" class="down-wick"/>
<rect x="169.77" y="435.00" width="8.00" height="5.01" class="down-body"/>
<line x1="187.60" y1="427.84" x2="187.60" y2="446.43" class="up-wick"/>
<rect x="183.60" y="435.70" width="8.00" height="4.31" class="up-body"/>
<line x1="201.44" y1="425.15" x2="201.44" y2="444.94" class="down-wick"/>
<rect x="197.44" y="435.70" width="8.00" height="4.01" class="down-body"/>
<line x1="215.27" y1="436.39" x2="215.27" y2="450.84" class="down-wick"/>
<rect x="211.27" y="439.72" width="8.00" height="6.48" class="down-body"/>
<line x1="229.11" y1="432.22" x2="229.11" y2="448.31" class="up-wick"/>
<rect x="225.11" y="436.12" width="8.00" height="10.08" class="up-body"/>
<line x1="242.95" y1="417.08" x2="242.95" y2="453.26" class="up-wick"/>
<rect x="238.95" y="420.58" width="8.00" height="15.54" class="up-body"/>
<line x1="256.78" y1="417.25" x2="256.78" y2="430.72" class="down-wick"/>
<rect x="252.78" y="420.58" width="8.00" height="7.23" class="down-body"/>
<line x1="270.62" y1="414.07" x2="270.62" y2="428.16" class="up-wick"/>
<rect x="266.62" y="422.75" width="8.00" height="5.08" class="up-body"/>
<line x1="284.45" y1="418.37" x2="284.45" y2="445.62" class="down-wick"/>
<rect x="280.45" y="422.75" width="8.00" height="18.59" class="down-body"/>
<line x1="298.29" y1="422.90" x2="298.29" y2="442.14" class="up-wick"/>
<rect x="294.29" y="426.98" width="8.00" height="14.46" class="up-body"/>
<line x1="312.12" y1="420.68" x2="312.12" y2="437.41" class="down-wick"/>
<rect x="308.12" y="426.98" width="8.00" height="1.66" class="down-body"/>
<line x1="325.96" y1="425.15" x2="325.96" y2="440.93" class="down-wick"/>
<rect x="321.96" y="428.60" width="8.00" height="3.90" class="down-body"/>
<line x1="339.79" y1="412.72" x2="339.79" y2="437.82" class="up-wick"/>
<rect x="335.79" y="415.72" width="8.00" height="16.78" class="up-body"/>
<line x1="353.63" y1="410.50" x2="353.63" y2="432.20" class="down-wick"/>
<rect x="349.63" y="415.72" width="8.00" height="14.63" class="down-body"/>
<line x1="367.47" y1="424.83" x2="367.47" y2="445.78" class="down-wick"/>
<rect x="363.47" y="430.35" width="8.00" height="13.79" class="down-body"/>
<line x1="381.30" y1="428.92" x2="381.30" y2="446.15" class="up-wick"/>
<rect x="377.30" y="433.79" width="8.00" height="10.35" class="up-body"/>
<line x1="395.14" y1="416.73" x2="395.14" y2="438.52" class="up-wick"/>
<rect x="391.14" y="433.59" width="8.00" height="1.00" class="up-body"/>
<line x1="408.97" y1="418.38" x2="408.97" y2="438.36" class="up-wick"/>
<rect x="404.97" y="428.57" width="8.00" height="5.00" class="up-body"/>
<line x1="422.81" y1="417.40" x2="422.81" y2="432.04" class="up-wick"/>
<rect x="418.81" y="418.86" width="8.00" height="9.71" class="up-body"/>
<line x1="436.64" y1="414.67" x2="436.64" y2="426.49" class="down-wick"/>
<rect x="432.64" y="418.86" width="8.00" height="5.08" class="down-body"/>
<line x1="450.48" y1="411.52" x2="450.48" y2="432.47" class="up-wick"/>
<rect x="446.48" y="412.87" width="8.00" height="11.06" class="up-body"/>
<line x1="464.32" y1="398.01" x2="464.32" y2="417.22" class="down-wick"/>
<rect x="460.32" y="412.87" width="8.00" height="2.45" class="down-body"/>
<line x1="478.15" y1="410.93" x2="478.15" y2="429.62" class="down-wick"/>
<rect x="474.15" y="415.33" width="8.00" height="4.41" class="down-body"/>
<line x1="491.99" y1="415.60" x2="491.99" y2="425.44" class="up-wick"/>
<rect x="487.99" y="419.27" width="8.00" height="1.00" class="up-body"/>
<line x1="505.82" y1="411.41" x2="505.82" y2="425.26" class="up-wick"/>
<rect x="501.82" y="417.00" width="8.00" height="2.28" class="up-body"/>
<line x1="519.66" y1="408.83" x2="519.66" y2="419.88" class="up-wick"/>
<rect x="515.66" y="416.92" width="8.00" height="1.00" class="up-body"/>
<line x1="533.49" y1="402.67" x2="533.49" y2="416.93" class="up-wick"/>
<rect x="529.49" y="413.80" width="8.00" height="3.14" class="up-body"/>
<line x1="547.33" y1="410.65" x2="547.33" y2="427.66" class="down-wick"/>
<rect x="543.33" y="413.80" width="8.00" height="5.89" class="down-body"/>
<line x1="561.16" y1="415.49" x2="561.16" y2="422.47" class="down-wick"/>
<rect x="557.16" y="419.67" width="8.00" height="2.07" class="down-body"/>
<line x1="575.00" y1="419.43" x2="575.00" y2="428.60" class="down-wick"/>
<rect x="571.00" y="422.00" width="8.00" height="3.02" class="down-body"/>
<line x1="588.84" y1="422.28" x2="588.84" y2="429.57" class="down-wick"/>
<rect x="584.84" y="424.97" width="8.00" height="1.00" class="down-body"/>
<line x1="602.67" y1="421.71" x2="602.67" y2="436.56" class="down-wick"/>
<rect x="598.67" y="424.99" width="8.00" height="5.97" class="down-body"/>
<line x1="616.51" y1="425.87" x2="616.51" y2="432.74" class="up-wick"/>
<rect x="612.51" y="430.24" width="8.00" height="1.00" class="up-body"/>
<line x1="630.34" y1="423.19" x2="630.34" y2="442.55" class="up-wick"/>
<rect x="626.34" y="423.59" width="8.00" height="6.65" class="up-body"/>
<line x1="644.18" y1="417.30" x2="644.18" y2="434.88" class="down-wick"/>
<rect x="640.18" y="423.59" width="8.00" height="5.73" class="down-body"/>
<line x1="658.01" y1="426.88" x2="658.01" y2="445.88" class="down-wick"/>
<rect x="654.01" y="429.32" width="8.00" height="1.19" class="down-body"/>
<line x1="671.85" y1="429.35" x2="671.85" y2="442.58" class="down-wick"/>
<rect x="667.85" y="430.51" width="8.00" height="5.13" class="down-body"/>
<line x1="685.68" y1="386.42" x2="685.68" y2="436.93" class="up-wick"/>
<rect x="681.68" y="394.49" width="8.00" height="41.23" class="up-body"/>
<line x1="699.52" y1="390.79" x2="699.52" y2="414.56" class="down-wick"/>
<rect x="695.52" y="394.52" width="8.00" height="18.26" class="down-body"/>
<line x1="713.36" y1="403.42" x2="713.36" y2="417.68" class="up-wick"/>
<rect x="709.36" y="408.32" width="8.00" height="4.47" class="up-body"/>
<line x1="727.19" y1="405.54" x2="727.19" y2="421.28" class="down-wick"/>
<rect x="723.19" y="408.32" width="8.00" height="4.47" class="down-body"/>
<line x1="741.03" y1="381.93" x2="741.03" y2="413.40" class="up-wick"/>
<rect x="737.03" y="382.18" width="8.00" height="30.61" class="up-body"/>
<line x1="754.86" y1="374.08" x2="754.86" y2="393.82" class="up-wick"/>
<rect x="750.86" y="380.02" width="8.00" height="2.17" class="up-body"/>
<line x1="768.70" y1="370.99" x2="768.70" y2="394.93" class="down-wick"/>
<rect x="764.70" y="380.03" width="8.00" height="5.65" class="down-body"/>
<line x1="782.53" y1="371.90" x2="782.53" y2="391.59" class="up-wick"/>
<rect x="778.53" y="378.76" width="8.00" height="6.93" class="up-body"/>
<line x1="796.37" y1="366.12" x2="796.37" y2="390.30" class="down-wick"/>
<rect x="792.37" y="378.76" width="8.00" height="9.03" class="down-body"/>
<line x1="810.21" y1="359.24" x2="810.21" y2="391.94" class="up-wick"/>
<rect x="806.21" y="372.55" width="8.00" height="15.24" class="up-body"/>
<line x1="824.04" y1="372.55" x2="824.04" y2="398.44" class="down-wick"/>
<rect x="820.04" y="372.55" width="8.00" height="18.59" class="down-body"/>
<line x1="837.88" y1="383.79" x2="837.88" y2="405.93" class="down-wick"/>
<rect x="833.88" y="391.14" width="8.00" height="4.27" class="down-body"/>
<line x1="851.71" y1="393.10" x2="851.71" y2="432.07" class="down-wick"/>
<rect x="847.71" y="395.41" width="8.00" height="22.08" class="down-body"/>
<line x1="865.55" y1="416.12" x2="865.55" y2="433.14" class="down-wick"/>
<rect x="861.55" y="417.49" width="8.00" height="1.88" class="down-body"/>
<line x1="879.38" y1="417.05" x2="879.38" y2="442.64" class="down-wick"/>
<rect x="875.38" y="419.39" width="8.00" height="9.39" class="down-body"/>
<line x1="893.22" y1="425.36" x2="893.22" y2="438.52" class="down-wick"/>
<rect x="889.22" y="428.78" width="8.00" height="9.38" class="down-body"/>
<line x1="907.05" y1="422.79" x2="907.05" y2="439.16" class="up-wick"/>
<rect x="903.05" y="432.06" width="8.00" height="6.10" class="up-body"/>
<line x1="920.89" y1="418.69" x2="920.89" y2="432.89" class="up-wick"/>
<rect x="916.89" y="424.00" width="8.00" height="8.06" class="up-body"/>
<line x1="934.73" y1="415.42" x2="934.73" y2="429.46" class="up-wick"/>
<rect x="930.73" y="415.96" width="8.00" height="8.04" class="up-body"/>
<line x1="948.56" y1="412.65" x2="948.56" y2="439.33" class="down-wick"/>
<rect x="944.56" y="415.96" width="8.00" height="18.37" class="down-body"/>
<line x1="962.40" y1="421.73" x2="962.40" y2="438.95" class="up-wick"/>
<rect x="958.40" y="424.34" width="8.00" height="10.00" class="up-body"/>
<line x1="976.23" y1="406.73" x2="976.23" y2="425.10" class="up-wick"/>
<rect x="972.23" y="413.46" width="8.00" height="10.78" class="up-body"/>
<line x1="990.07" y1="400.55" x2="990.07" y2="416.97" class="up-wick"/>
<rect x="986.07" y="408.61" width="8.00" height="4.86" class="up-body"/>
<line x1="1003.90" y1="405.01" x2="1003.90" y2="410.93" class="up-wick"/>
<rect x="999.90" y="407.54" width="8.00" height="1.07" class="up-body"/>
<line x1="1017.74" y1="407.10" x2="1017.74" y2="418.11" class="down-wick"/>
<rect x="1013.74" y="407.62" width="8.00" height="8.90" class="down-body"/>
<line x1="1031.58" y1="414.29" x2="1031.58" y2="420.85" class="down-wick"/>
<rect x="1027.58" y="416.52" width="8.00" height="2.05" class="down-body"/>
<line x1="1045.41" y1="417.28" x2="1045.41" y2="423.76" class="down-wick"/>
<rect x="1041.41" y="418.57" width="8.00" height="2.83" class="down-body"/>
<line x1="1059.25" y1="421.12" x2="1059.25" y2="435.04" class="down-wick"/>
<rect x="1055.25" y="421.41" width="8.00" height="5.14" class="down-body"/>
<line x1="1073.08" y1="423.27" x2="1073.08" y2="431.23" class="down-wick"/>
<rect x="1069.08" y="426.58" width="8.00" height="1.00" class="down-body"/>
<line x1="70" y1="381.96" x2="1080" y2="381.96" class="number-line"/>
<text x="1076" y="377.96" text-anchor="end" class="level-label">round 4570.00</text>
<line x1="70" y1="381.96" x2="1080" y2="381.96" class="entry-line"/>
<text x="1076" y="377.96" text-anchor="end" class="level-label">entry level 4570.00</text>
<text x="70" y="556" class="axis-label">2026-05-18 03:30:00+00:00 to 2026-05-18 21:30:00+00:00</text>
<text x="1080" y="556" text-anchor="end" class="axis-label">4471.98 - 4592.59</text>
<text x="70" y="582" class="panel-title">M5 reaction / execution context</text>
<rect x="70" y="596" width="1010" height="192" class="plot-bg"/>
<line x1="79.18" y1="738.47" x2="79.18" y2="750.34" class="down-wick"/>
<rect x="75.18" y="743.13" width="8.00" height="6.02" class="down-body"/>
<line x1="97.55" y1="744.74" x2="97.55" y2="767.25" class="down-wick"/>
<rect x="93.55" y="749.18" width="8.00" height="17.15" class="down-body"/>
<line x1="115.91" y1="745.23" x2="115.91" y2="774.76" class="up-wick"/>
<rect x="111.91" y="745.41" width="8.00" height="20.93" class="up-body"/>
<line x1="134.27" y1="743.19" x2="134.27" y2="754.17" class="down-wick"/>
<rect x="130.27" y="745.41" width="8.00" height="1.00" class="down-body"/>
<line x1="152.64" y1="743.74" x2="152.64" y2="768.46" class="down-wick"/>
<rect x="148.64" y="746.26" width="8.00" height="9.98" class="down-body"/>
<line x1="171.00" y1="750.58" x2="171.00" y2="761.25" class="up-wick"/>
<rect x="167.00" y="755.20" width="8.00" height="1.03" class="up-body"/>
<line x1="189.36" y1="727.04" x2="189.36" y2="757.67" class="up-wick"/>
<rect x="185.36" y="738.26" width="8.00" height="17.09" class="up-body"/>
<line x1="207.73" y1="695.19" x2="207.73" y2="738.29" class="up-wick"/>
<rect x="203.73" y="695.19" width="8.00" height="43.10" class="up-body"/>
<line x1="226.09" y1="661.16" x2="226.09" y2="707.30" class="up-wick"/>
<rect x="222.09" y="676.58" width="8.00" height="18.61" class="up-body"/>
<line x1="244.45" y1="669.52" x2="244.45" y2="697.47" class="down-wick"/>
<rect x="240.45" y="676.64" width="8.00" height="20.04" class="down-body"/>
<line x1="262.82" y1="695.50" x2="262.82" y2="709.12" class="down-wick"/>
<rect x="258.82" y="696.68" width="8.00" height="12.44" class="down-body"/>
<line x1="281.18" y1="698.45" x2="281.18" y2="714.93" class="down-wick"/>
<rect x="277.18" y="709.12" width="8.00" height="2.40" class="down-body"/>
<line x1="299.55" y1="706.17" x2="299.55" y2="720.89" class="up-wick"/>
<rect x="295.55" y="711.40" width="8.00" height="1.00" class="up-body"/>
<line x1="317.91" y1="693.64" x2="317.91" y2="711.40" class="up-wick"/>
<rect x="313.91" y="696.74" width="8.00" height="14.66" class="up-body"/>
<line x1="336.27" y1="695.47" x2="336.27" y2="709.46" class="down-wick"/>
<rect x="332.27" y="696.65" width="8.00" height="6.36" class="down-body"/>
<line x1="354.64" y1="697.69" x2="354.64" y2="722.05" class="down-wick"/>
<rect x="350.64" y="703.01" width="8.00" height="18.19" class="down-body"/>
<line x1="373.00" y1="702.04" x2="373.00" y2="727.77" class="up-wick"/>
<rect x="369.00" y="708.97" width="8.00" height="12.29" class="up-body"/>
<line x1="391.36" y1="698.54" x2="391.36" y2="714.02" class="down-wick"/>
<rect x="387.36" y="708.97" width="8.00" height="2.59" class="down-body"/>
<line x1="409.73" y1="674.85" x2="409.73" y2="712.71" class="up-wick"/>
<rect x="405.73" y="676.64" width="8.00" height="34.92" class="up-body"/>
<line x1="428.09" y1="673.54" x2="428.09" y2="688.17" class="down-wick"/>
<rect x="424.09" y="676.82" width="8.00" height="1.43" class="down-body"/>
<line x1="446.45" y1="652.58" x2="446.45" y2="687.59" class="up-wick"/>
<rect x="442.45" y="653.07" width="8.00" height="25.18" class="up-body"/>
<line x1="464.82" y1="637.59" x2="464.82" y2="658.18" class="up-wick"/>
<rect x="460.82" y="645.40" width="8.00" height="7.66" class="up-body"/>
<line x1="483.18" y1="640.17" x2="483.18" y2="675.15" class="down-wick"/>
<rect x="479.18" y="645.40" width="8.00" height="28.32" class="down-body"/>
<line x1="501.55" y1="645.28" x2="501.55" y2="675.30" class="up-wick"/>
<rect x="497.55" y="648.93" width="8.00" height="24.33" class="up-body"/>
<line x1="519.91" y1="631.69" x2="519.91" y2="669.46" class="down-wick"/>
<rect x="515.91" y="648.96" width="8.00" height="18.25" class="down-body"/>
<line x1="538.27" y1="657.24" x2="538.27" y2="674.60" class="down-wick"/>
<rect x="534.27" y="667.21" width="8.00" height="3.77" class="down-body"/>
<line x1="556.64" y1="654.32" x2="556.64" y2="677.43" class="up-wick"/>
<rect x="552.64" y="659.76" width="8.00" height="11.95" class="up-body"/>
<line x1="575.00" y1="657.18" x2="575.00" y2="671.04" class="down-wick"/>
<rect x="571.00" y="659.76" width="8.00" height="4.90" class="down-body"/>
<line x1="593.36" y1="643.37" x2="593.36" y2="666.48" class="up-wick"/>
<rect x="589.36" y="643.88" width="8.00" height="20.77" class="up-body"/>
<line x1="611.73" y1="633.42" x2="611.73" y2="649.30" class="down-wick"/>
<rect x="607.73" y="643.88" width="8.00" height="2.65" class="down-body"/>
<line x1="630.09" y1="622.38" x2="630.09" y2="661.25" class="up-wick"/>
<rect x="626.09" y="626.36" width="8.00" height="20.17" class="up-body"/>
<line x1="648.45" y1="626.03" x2="648.45" y2="650.12" class="down-wick"/>
<rect x="644.45" y="626.18" width="8.00" height="15.36" class="down-body"/>
<line x1="666.82" y1="635.67" x2="666.82" y2="668.58" class="down-wick"/>
<rect x="662.82" y="641.54" width="8.00" height="22.23" class="down-body"/>
<line x1="685.18" y1="634.03" x2="685.18" y2="671.71" class="up-wick"/>
<rect x="681.18" y="639.78" width="8.00" height="24.00" class="up-body"/>
<line x1="703.55" y1="609.67" x2="703.55" y2="642.94" class="up-wick"/>
<rect x="699.55" y="612.22" width="8.00" height="27.56" class="up-body"/>
<line x1="721.91" y1="609.24" x2="721.91" y2="637.31" class="down-wick"/>
<rect x="717.91" y="612.22" width="8.00" height="22.45" class="down-body"/>
<line x1="740.27" y1="634.67" x2="740.27" y2="669.61" class="down-wick"/>
<rect x="736.27" y="634.67" width="8.00" height="32.18" class="down-body"/>
<line x1="758.64" y1="660.58" x2="758.64" y2="684.12" class="up-wick"/>
<rect x="754.64" y="661.89" width="8.00" height="4.96" class="up-body"/>
<line x1="777.00" y1="652.89" x2="777.00" y2="677.16" class="down-wick"/>
<rect x="773.00" y="661.89" width="8.00" height="8.30" class="down-body"/>
<line x1="795.36" y1="656.14" x2="795.36" y2="676.34" class="up-wick"/>
<rect x="791.36" y="664.47" width="8.00" height="5.72" class="up-body"/>
<line x1="813.73" y1="661.31" x2="813.73" y2="698.45" class="down-wick"/>
<rect x="809.73" y="664.47" width="8.00" height="20.83" class="down-body"/>
<line x1="832.09" y1="673.17" x2="832.09" y2="689.69" class="up-wick"/>
<rect x="828.09" y="678.34" width="8.00" height="6.96" class="up-body"/>
<line x1="850.45" y1="673.93" x2="850.45" y2="728.92" class="down-wick"/>
<rect x="846.45" y="678.34" width="8.00" height="36.80" class="down-body"/>
<line x1="868.82" y1="710.67" x2="868.82" y2="734.67" class="down-wick"/>
<rect x="864.82" y="715.15" width="8.00" height="9.19" class="down-body"/>
<line x1="887.18" y1="715.66" x2="887.18" y2="748.39" class="up-wick"/>
<rect x="883.18" y="720.53" width="8.00" height="3.80" class="up-body"/>
<line x1="905.55" y1="719.13" x2="905.55" y2="750.43" class="down-wick"/>
<rect x="901.55" y="720.53" width="8.00" height="13.72" class="down-body"/>
<line x1="923.91" y1="717.91" x2="923.91" y2="739.96" class="down-wick"/>
<rect x="919.91" y="734.25" width="8.00" height="3.95" class="down-body"/>
<line x1="942.27" y1="721.62" x2="942.27" y2="739.96" class="up-wick"/>
<rect x="938.27" y="724.12" width="8.00" height="14.08" class="up-body"/>
<line x1="960.64" y1="719.68" x2="960.64" y2="768.58" class="down-wick"/>
<rect x="956.64" y="724.15" width="8.00" height="26.77" class="down-body"/>
<line x1="979.00" y1="730.23" x2="979.00" y2="762.56" class="down-wick"/>
<rect x="975.00" y="751.46" width="8.00" height="2.55" class="down-body"/>
<line x1="997.36" y1="735.80" x2="997.36" y2="754.81" class="up-wick"/>
<rect x="993.36" y="742.09" width="8.00" height="11.92" class="up-body"/>
<line x1="1015.73" y1="735.55" x2="1015.73" y2="760.71" class="down-wick"/>
<rect x="1011.73" y="742.09" width="8.00" height="11.56" class="down-body"/>
<line x1="1034.09" y1="742.43" x2="1034.09" y2="756.08" class="up-wick"/>
<rect x="1030.09" y="746.99" width="8.00" height="6.66" class="up-body"/>
<line x1="1052.45" y1="742.98" x2="1052.45" y2="760.19" class="down-wick"/>
<rect x="1048.45" y="746.99" width="8.00" height="13.02" class="down-body"/>
<line x1="1070.82" y1="739.90" x2="1070.82" y2="761.92" class="up-wick"/>
<rect x="1066.82" y="741.27" width="8.00" height="18.74" class="up-body"/>
<line x1="70" y1="652.64" x2="1080" y2="652.64" class="number-line"/>
<text x="1076" y="648.64" text-anchor="end" class="level-label">round 4570.00</text>
<line x1="70" y1="652.64" x2="1080" y2="652.64" class="entry-line"/>
<text x="1076" y="648.64" text-anchor="end" class="level-label">entry level 4570.00</text>
<text x="70" y="806" class="axis-label">2026-05-18 14:00:00+00:00 to 2026-05-18 18:30:00+00:00</text>
<text x="1080" y="806" text-anchor="end" class="axis-label">4525.50 - 4588.62</text>
<text x="70" y="832" class="panel-title">M1 execution window</text>
<rect x="70" y="846" width="1010" height="192" class="plot-bg"/>
<line x1="73.71" y1="988.40" x2="73.71" y2="998.91" class="down-wick"/>
<rect x="71.30" y="993.06" width="4.83" height="3.72" class="down-body"/>
<line x1="81.14" y1="989.89" x2="81.14" y2="998.82" class="down-wick"/>
<rect x="78.73" y="993.31" width="4.83" height="2.65" class="down-body"/>
<line x1="88.57" y1="994.92" x2="88.57" y2="1000.29" class="down-wick"/>
<rect x="86.15" y="995.78" width="4.83" height="3.32" class="down-body"/>
<line x1="95.99" y1="995.14" x2="95.99" y2="998.00" class="down-wick"/>
<rect x="93.58" y="996.96" width="4.83" height="1.00" class="down-body"/>
<line x1="103.42" y1="997.18" x2="103.42" y2="1002.82" class="down-wick"/>
<rect x="101.01" y="997.36" width="4.83" height="3.75" class="down-body"/>
<line x1="110.85" y1="1005.56" x2="110.85" y2="1024.76" class="up-wick"/>
<rect x="108.43" y="1009.64" width="4.83" height="6.67" class="up-body"/>
<line x1="118.27" y1="1004.31" x2="118.27" y2="1011.20" class="up-wick"/>
<rect x="115.86" y="1006.47" width="4.83" height="2.41" class="up-body"/>
<line x1="125.70" y1="995.17" x2="125.70" y2="1004.22" class="up-wick"/>
<rect x="123.28" y="995.35" width="4.83" height="8.47" class="up-body"/>
<line x1="133.12" y1="995.14" x2="133.12" y2="1002.69" class="down-wick"/>
<rect x="130.71" y="997.09" width="4.83" height="5.46" class="down-body"/>
<line x1="140.55" y1="993.12" x2="140.55" y2="1003.06" class="up-wick"/>
<rect x="138.14" y="995.26" width="4.83" height="6.77" class="up-body"/>
<line x1="147.98" y1="993.67" x2="147.98" y2="1000.68" class="down-wick"/>
<rect x="145.56" y="996.20" width="4.83" height="2.44" class="down-body"/>
<line x1="155.40" y1="999.86" x2="155.40" y2="1018.45" class="down-wick"/>
<rect x="152.99" y="1001.14" width="4.83" height="13.38" class="down-body"/>
<line x1="162.83" y1="1005.35" x2="162.83" y2="1008.97" class="up-wick"/>
<rect x="160.42" y="1006.20" width="4.83" height="1.00" class="up-body"/>
<line x1="170.26" y1="1003.79" x2="170.26" y2="1009.55" class="down-wick"/>
<rect x="167.84" y="1004.55" width="4.83" height="3.47" class="down-body"/>
<line x1="177.68" y1="1003.49" x2="177.68" y2="1009.43" class="up-wick"/>
<rect x="175.27" y="1003.49" width="4.83" height="4.60" class="up-body"/>
<line x1="185.11" y1="999.43" x2="185.11" y2="1007.63" class="up-wick"/>
<rect x="182.70" y="999.80" width="4.83" height="5.52" class="up-body"/>
<line x1="192.54" y1="992.00" x2="192.54" y2="998.88" class="down-wick"/>
<rect x="190.12" y="994.22" width="4.83" height="2.32" class="down-body"/>
<line x1="199.96" y1="976.94" x2="199.96" y2="989.25" class="down-wick"/>
<rect x="197.55" y="984.53" width="4.83" height="3.66" class="down-body"/>
<line x1="207.39" y1="975.48" x2="207.39" y2="984.29" class="down-wick"/>
<rect x="204.98" y="977.15" width="4.83" height="5.46" class="down-body"/>
<line x1="214.82" y1="971.46" x2="214.82" y2="983.01" class="up-wick"/>
<rect x="212.40" y="975.20" width="4.83" height="7.04" class="up-body"/>
<line x1="222.24" y1="932.17" x2="222.24" y2="957.16" class="down-wick"/>
<rect x="219.83" y="945.03" width="4.83" height="10.70" class="down-body"/>
<line x1="229.67" y1="911.05" x2="229.67" y2="938.57" class="down-wick"/>
<rect x="227.26" y="911.05" width="4.83" height="9.17" class="down-body"/>
<line x1="237.10" y1="918.76" x2="237.10" y2="929.73" class="up-wick"/>
<rect x="234.68" y="926.38" width="4.83" height="3.26" class="up-body"/>
<line x1="244.52" y1="924.46" x2="244.52" y2="937.57" class="up-wick"/>
<rect x="242.11" y="931.84" width="4.83" height="1.00" class="up-body"/>
<line x1="251.95" y1="926.05" x2="251.95" y2="943.26" class="down-wick"/>
<rect x="249.53" y="931.84" width="4.83" height="8.93" class="down-body"/>
<line x1="259.38" y1="945.34" x2="259.38" y2="955.39" class="down-wick"/>
<rect x="256.96" y="946.53" width="4.83" height="7.07" class="down-body"/>
<line x1="266.80" y1="946.80" x2="266.80" y2="958.47" class="up-wick"/>
<rect x="264.39" y="947.07" width="4.83" height="9.17" class="up-body"/>
<line x1="274.23" y1="949.73" x2="274.23" y2="958.99" class="down-wick"/>
<rect x="271.81" y="952.93" width="4.83" height="6.06" class="down-body"/>
<line x1="281.65" y1="948.78" x2="281.65" y2="957.01" class="down-wick"/>
<rect x="279.24" y="951.80" width="4.83" height="1.00" class="down-body"/>
<line x1="289.08" y1="953.38" x2="289.08" y2="959.17" class="down-wick"/>
<rect x="286.67" y="953.66" width="4.83" height="4.24" class="down-body"/>
<line x1="296.51" y1="958.08" x2="296.51" y2="964.96" class="up-wick"/>
<rect x="294.09" y="958.47" width="4.83" height="2.96" class="up-body"/>
<line x1="303.93" y1="958.56" x2="303.93" y2="969.26" class="down-wick"/>
<rect x="301.52" y="958.56" width="4.83" height="8.99" class="down-body"/>
<line x1="311.36" y1="961.22" x2="311.36" y2="970.78" class="up-wick"/>
<rect x="308.95" y="961.28" width="4.83" height="3.84" class="up-body"/>
<line x1="318.79" y1="945.70" x2="318.79" y2="954.69" class="down-wick"/>
<rect x="316.37" y="952.62" width="4.83" height="1.62" class="down-body"/>
<line x1="326.21" y1="948.20" x2="326.21" y2="957.56" class="down-wick"/>
<rect x="323.80" y="951.31" width="4.83" height="4.69" class="down-body"/>
<line x1="333.64" y1="945.31" x2="333.64" y2="956.37" class="down-wick"/>
<rect x="331.23" y="946.50" width="4.83" height="5.61" class="down-body"/>
<line x1="341.07" y1="948.90" x2="341.07" y2="959.33" class="up-wick"/>
<rect x="338.65" y="954.45" width="4.83" height="2.59" class="up-body"/>
<line x1="348.49" y1="950.76" x2="348.49" y2="956.13" class="up-wick"/>
<rect x="346.08" y="952.86" width="4.83" height="2.90" class="up-body"/>
<line x1="355.92" y1="947.53" x2="355.92" y2="971.55" class="down-wick"/>
<rect x="353.51" y="957.31" width="4.83" height="8.84" class="down-body"/>
<line x1="363.35" y1="962.80" x2="363.35" y2="970.75" class="down-wick"/>
<rect x="360.93" y="964.42" width="4.83" height="5.76" class="down-body"/>
<line x1="370.77" y1="968.93" x2="370.77" y2="977.67" class="up-wick"/>
<rect x="368.36" y="969.17" width="4.83" height="1.98" class="up-body"/>
<line x1="378.20" y1="959.33" x2="378.20" y2="965.57" class="up-wick"/>
<rect x="375.78" y="960.21" width="4.83" height="1.92" class="up-body"/>
<line x1="385.62" y1="951.89" x2="385.62" y2="959.48" class="down-wick"/>
<rect x="383.21" y="955.30" width="4.83" height="3.54" class="down-body"/>
<line x1="393.05" y1="948.75" x2="393.05" y2="956.43" class="up-wick"/>
<rect x="390.64" y="949.02" width="4.83" height="4.75" class="up-body"/>
<line x1="400.48" y1="948.38" x2="400.48" y2="955.49" class="down-wick"/>
<rect x="398.06" y="952.38" width="4.83" height="2.07" class="down-body"/>
<line x1="407.90" y1="953.23" x2="407.90" y2="962.59" class="up-wick"/>
<rect x="405.49" y="954.82" width="4.83" height="6.61" class="up-body"/>
<line x1="415.33" y1="944.88" x2="415.33" y2="953.78" class="up-wick"/>
<rect x="412.92" y="948.84" width="4.83" height="1.00" class="up-body"/>
<line x1="422.76" y1="924.64" x2="422.76" y2="949.18" class="up-wick"/>
<rect x="420.34" y="926.44" width="4.83" height="21.67" class="up-body"/>
<line x1="430.18" y1="923.33" x2="430.18" y2="936.38" class="up-wick"/>
<rect x="427.77" y="926.11" width="4.83" height="5.82" class="up-body"/>
<line x1="437.61" y1="930.71" x2="437.61" y2="937.57" class="up-wick"/>
<rect x="435.20" y="935.98" width="4.83" height="1.00" class="up-body"/>
<line x1="445.04" y1="927.84" x2="445.04" y2="937.41" class="down-wick"/>
<rect x="442.62" y="928.06" width="4.83" height="7.28" class="down-body"/>
<line x1="452.46" y1="910.29" x2="452.46" y2="922.75" class="up-wick"/>
<rect x="450.05" y="915.23" width="4.83" height="5.03" class="up-body"/>
<line x1="459.89" y1="902.33" x2="459.89" y2="909.68" class="up-wick"/>
<rect x="457.48" y="902.82" width="4.83" height="2.74" class="up-body"/>
<line x1="467.32" y1="892.55" x2="467.32" y2="904.99" class="down-wick"/>
<rect x="464.90" y="895.57" width="4.83" height="5.39" class="down-body"/>
<line x1="474.74" y1="896.39" x2="474.74" y2="906.82" class="up-wick"/>
<rect x="472.33" y="896.42" width="4.83" height="8.17" class="up-body"/>
<line x1="482.17" y1="889.90" x2="482.17" y2="898.71" class="down-wick"/>
<rect x="479.76" y="895.14" width="4.83" height="1.01" class="down-body"/>
<line x1="489.60" y1="905.47" x2="489.60" y2="920.16" class="down-wick"/>
<rect x="487.18" y="905.81" width="4.83" height="12.92" class="down-body"/>
<line x1="497.02" y1="919.34" x2="497.02" y2="924.95" class="down-wick"/>
<rect x="494.61" y="921.81" width="4.83" height="1.71" class="down-body"/>
<line x1="504.45" y1="915.01" x2="504.45" y2="920.19" class="up-wick"/>
<rect x="502.03" y="916.81" width="4.83" height="1.43" class="up-body"/>
<line x1="511.88" y1="914.59" x2="511.88" y2="921.35" class="down-wick"/>
<rect x="509.46" y="915.38" width="4.83" height="1.71" class="down-body"/>
<line x1="519.30" y1="884.93" x2="519.30" y2="898.71" class="up-wick"/>
<rect x="516.89" y="885.12" width="4.83" height="13.59" class="up-body"/>
<line x1="526.73" y1="890.21" x2="526.73" y2="918.70" class="down-wick"/>
<rect x="524.31" y="895.72" width="4.83" height="18.32" class="down-body"/>
<line x1="534.15" y1="909.65" x2="534.15" y2="918.00" class="down-wick"/>
<rect x="531.74" y="912.15" width="4.83" height="4.85" class="down-body"/>
<line x1="541.58" y1="914.83" x2="541.58" y2="921.99" class="down-wick"/>
<rect x="539.17" y="916.51" width="4.83" height="4.94" class="down-body"/>
<line x1="549.01" y1="907.00" x2="549.01" y2="920.10" class="down-wick"/>
<rect x="546.59" y="907.36" width="4.83" height="8.78" class="down-body"/>
<line x1="556.43" y1="917.12" x2="556.43" y2="927.23" class="down-wick"/>
<rect x="554.02" y="921.50" width="4.83" height="3.47" class="down-body"/>
<line x1="563.86" y1="913.82" x2="563.86" y2="917.85" class="up-wick"/>
<rect x="561.45" y="915.47" width="4.83" height="2.35" class="up-body"/>
<line x1="571.29" y1="904.07" x2="571.29" y2="915.01" class="up-wick"/>
<rect x="568.87" y="909.53" width="4.83" height="5.49" class="up-body"/>
<line x1="578.71" y1="907.91" x2="578.71" y2="916.32" class="down-wick"/>
<rect x="576.30" y="908.70" width="4.83" height="3.90" class="down-body"/>
<line x1="586.14" y1="911.54" x2="586.14" y2="920.83" class="down-wick"/>
<rect x="583.73" y="912.21" width="4.83" height="4.75" class="down-body"/>
<line x1="593.57" y1="905.29" x2="593.57" y2="916.26" class="up-wick"/>
<rect x="591.15" y="906.18" width="4.83" height="8.26" class="up-body"/>
<line x1="600.99" y1="904.01" x2="600.99" y2="907.79" class="down-wick"/>
<rect x="598.58" y="905.78" width="4.83" height="1.13" class="down-body"/>
<line x1="608.42" y1="893.10" x2="608.42" y2="900.35" class="up-wick"/>
<rect x="606.01" y="893.62" width="4.83" height="4.51" class="up-body"/>
<line x1="615.85" y1="883.13" x2="615.85" y2="899.04" class="up-wick"/>
<rect x="613.43" y="886.64" width="4.83" height="10.85" class="up-body"/>
<line x1="623.27" y1="883.65" x2="623.27" y2="893.41" class="down-wick"/>
<rect x="620.86" y="886.18" width="4.83" height="2.10" class="down-body"/>
<line x1="630.70" y1="895.05" x2="630.70" y2="911.02" class="down-wick"/>
<rect x="628.28" y="896.27" width="4.83" height="1.13" class="down-body"/>
<line x1="638.12" y1="887.80" x2="638.12" y2="897.06" class="down-wick"/>
<rect x="635.71" y="890.45" width="4.83" height="1.00" class="down-body"/>
<line x1="645.55" y1="872.07" x2="645.55" y2="880.97" class="down-wick"/>
<rect x="643.14" y="875.94" width="4.83" height="1.00" class="down-body"/>
<line x1="652.98" y1="886.43" x2="652.98" y2="894.53" class="down-wick"/>
<rect x="650.56" y="886.43" width="4.83" height="6.86" class="down-body"/>
<line x1="660.40" y1="881.12" x2="660.40" y2="898.34" class="up-wick"/>
<rect x="657.99" y="881.34" width="4.83" height="17.01" class="up-body"/>
<line x1="667.83" y1="886.12" x2="667.83" y2="895.02" class="up-wick"/>
<rect x="665.42" y="886.33" width="4.83" height="4.94" class="up-body"/>
<line x1="675.26" y1="892.92" x2="675.26" y2="916.66" class="down-wick"/>
<rect x="672.84" y="893.25" width="4.83" height="21.76" class="down-body"/>
<line x1="682.68" y1="890.97" x2="682.68" y2="914.56" class="down-wick"/>
<rect x="680.27" y="894.35" width="4.83" height="19.20" class="down-body"/>
<line x1="690.11" y1="895.23" x2="690.11" y2="904.16" class="down-wick"/>
<rect x="687.70" y="896.82" width="4.83" height="5.97" class="down-body"/>
<line x1="697.54" y1="883.87" x2="697.54" y2="893.50" class="down-wick"/>
<rect x="695.12" y="891.85" width="4.83" height="1.46" class="down-body"/>
<line x1="704.96" y1="881.61" x2="704.96" y2="892.67" class="up-wick"/>
<rect x="702.55" y="881.82" width="4.83" height="7.68" class="up-body"/>
<line x1="712.39" y1="870.00" x2="712.39" y2="880.73" class="up-wick"/>
<rect x="709.98" y="876.34" width="4.83" height="4.30" class="up-body"/>
<line x1="719.82" y1="859.33" x2="719.82" y2="872.44" class="up-wick"/>
<rect x="717.40" y="861.89" width="4.83" height="9.51" class="up-body"/>
<line x1="727.24" y1="859.24" x2="727.24" y2="867.90" class="up-wick"/>
<rect x="724.83" y="860.92" width="4.83" height="3.14" class="up-body"/>
<line x1="734.67" y1="869.76" x2="734.67" y2="881.28" class="down-wick"/>
<rect x="732.26" y="871.40" width="4.83" height="8.17" class="down-body"/>
<line x1="742.10" y1="884.38" x2="742.10" y2="897.82" class="down-wick"/>
<rect x="739.68" y="884.38" width="4.83" height="7.89" class="down-body"/>
<line x1="749.52" y1="897.85" x2="749.52" y2="905.41" class="down-wick"/>
<rect x="747.11" y="901.60" width="4.83" height="1.83" class="down-body"/>
<line x1="756.95" y1="907.18" x2="756.95" y2="919.40" class="down-wick"/>
<rect x="754.53" y="913.73" width="4.83" height="2.90" class="down-body"/>
<line x1="764.38" y1="919.07" x2="764.38" y2="929.40" class="up-wick"/>
<rect x="761.96" y="920.07" width="4.83" height="6.95" class="up-body"/>
<line x1="771.80" y1="918.91" x2="771.80" y2="933.94" class="up-wick"/>
<rect x="769.39" y="919.55" width="4.83" height="12.40" class="up-body"/>
<line x1="779.23" y1="903.89" x2="779.23" y2="915.32" class="up-wick"/>
<rect x="776.81" y="905.29" width="4.83" height="6.37" class="up-body"/>
<line x1="786.65" y1="906.97" x2="786.65" y2="912.09" class="down-wick"/>
<rect x="784.24" y="908.43" width="4.83" height="1.00" class="down-body"/>
<line x1="794.08" y1="916.93" x2="794.08" y2="926.96" class="down-wick"/>
<rect x="791.67" y="917.18" width="4.83" height="2.80" class="down-body"/>
<line x1="801.51" y1="905.90" x2="801.51" y2="913.00" class="down-wick"/>
<rect x="799.09" y="910.08" width="4.83" height="1.62" class="down-body"/>
<line x1="808.93" y1="915.90" x2="808.93" y2="922.14" class="down-wick"/>
<rect x="806.52" y="918.79" width="4.83" height="1.58" class="down-body"/>
<line x1="816.36" y1="911.08" x2="816.36" y2="927.30" class="down-wick"/>
<rect x="813.95" y="914.25" width="4.83" height="12.89" class="down-body"/>
<line x1="823.79" y1="938.33" x2="823.79" y2="946.83" class="down-wick"/>
<rect x="821.37" y="939.70" width="4.83" height="2.22" class="down-body"/>
<line x1="831.21" y1="934.88" x2="831.21" y2="943.02" class="up-wick"/>
<rect x="828.80" y="935.13" width="4.83" height="6.10" class="up-body"/>
<line x1="838.64" y1="931.99" x2="838.64" y2="939.39" class="up-wick"/>
<rect x="836.23" y="931.99" width="4.83" height="1.28" class="up-body"/>
<line x1="846.07" y1="923.36" x2="846.07" y2="932.72" class="down-wick"/>
<rect x="843.65" y="923.73" width="4.83" height="7.38" class="down-body"/>
<line x1="853.49" y1="923.73" x2="853.49" y2="938.11" class="down-wick"/>
<rect x="851.08" y="928.15" width="4.83" height="8.23" class="down-body"/>
<line x1="860.92" y1="937.69" x2="860.92" y2="947.32" class="down-wick"/>
<rect x="858.51" y="938.85" width="4.83" height="6.43" class="down-body"/>
<line x1="868.35" y1="964.35" x2="868.35" y2="978.83" class="up-wick"/>
<rect x="865.93" y="965.02" width="4.83" height="5.06" class="up-body"/>
<line x1="875.77" y1="970.54" x2="875.77" y2="980.05" class="up-wick"/>
<rect x="873.36" y="972.49" width="4.83" height="7.56" class="up-body"/>
<line x1="883.20" y1="964.99" x2="883.20" y2="972.31" class="up-wick"/>
<rect x="880.78" y="964.99" width="4.83" height="3.93" class="up-body"/>
<line x1="890.62" y1="971.39" x2="890.62" y2="998.34" class="down-wick"/>
<rect x="888.21" y="974.23" width="4.83" height="13.10" class="down-body"/>
<line x1="898.05" y1="970.63" x2="898.05" y2="979.71" class="up-wick"/>
<rect x="895.64" y="971.00" width="4.83" height="6.13" class="up-body"/>
<line x1="905.48" y1="968.93" x2="905.48" y2="975.36" class="up-wick"/>
<rect x="903.06" y="970.42" width="4.83" height="4.27" class="up-body"/>
<line x1="912.90" y1="982.76" x2="912.90" y2="991.27" class="up-wick"/>
<rect x="910.49" y="985.47" width="4.83" height="2.35" class="up-body"/>
<line x1="920.33" y1="988.80" x2="920.33" y2="1000.38" class="down-wick"/>
<rect x="917.92" y="989.74" width="4.83" height="5.55" class="down-body"/>
<line x1="927.76" y1="980.45" x2="927.76" y2="989.89" class="up-wick"/>
<rect x="925.34" y="981.30" width="4.83" height="2.86" class="up-body"/>
<line x1="935.18" y1="969.11" x2="935.18" y2="980.69" class="up-wick"/>
<rect x="932.77" y="969.23" width="4.83" height="11.31" class="up-body"/>
<line x1="942.61" y1="976.79" x2="942.61" y2="989.01" class="down-wick"/>
<rect x="940.20" y="981.03" width="4.83" height="7.10" class="down-body"/>
<line x1="950.04" y1="975.20" x2="950.04" y2="984.29" class="up-wick"/>
<rect x="947.62" y="978.65" width="4.83" height="5.64" class="up-body"/>
<line x1="957.46" y1="975.05" x2="957.46" y2="982.43" class="down-wick"/>
<rect x="955.05" y="978.16" width="4.83" height="2.29" class="down-body"/>
<line x1="964.89" y1="969.57" x2="964.89" y2="976.15" class="up-wick"/>
<rect x="962.48" y="970.08" width="4.83" height="3.96" class="up-body"/>
<line x1="972.32" y1="991.94" x2="972.32" y2="1016.04" class="down-wick"/>
<rect x="969.90" y="992.33" width="4.83" height="16.24" class="down-body"/>
<line x1="979.74" y1="1000.44" x2="979.74" y2="1018.57" class="up-wick"/>
<rect x="977.33" y="1000.87" width="4.83" height="10.03" class="up-body"/>
<line x1="987.17" y1="1002.79" x2="987.17" y2="1012.54" class="up-wick"/>
<rect x="984.76" y="1005.47" width="4.83" height="1.00" class="up-body"/>
<line x1="994.60" y1="980.14" x2="994.60" y2="1003.76" class="up-wick"/>
<rect x="992.18" y="982.31" width="4.83" height="21.46" class="up-body"/>
<line x1="1002.02" y1="986.79" x2="1002.02" y2="1004.77" class="up-wick"/>
<rect x="999.61" y="990.11" width="4.83" height="13.87" class="up-body"/>
<line x1="1009.45" y1="986.66" x2="1009.45" y2="993.67" class="up-wick"/>
<rect x="1007.03" y="989.86" width="4.83" height="1.22" class="up-body"/>
<line x1="1016.88" y1="991.33" x2="1016.88" y2="998.27" class="up-wick"/>
<rect x="1014.46" y="992.03" width="4.83" height="4.60" class="up-body"/>
<line x1="1024.30" y1="989.86" x2="1024.30" y2="997.42" class="up-wick"/>
<rect x="1021.89" y="990.32" width="4.83" height="3.93" class="up-body"/>
<line x1="1031.73" y1="991.69" x2="1031.73" y2="1007.42" class="down-wick"/>
<rect x="1029.31" y="992.67" width="4.83" height="14.45" class="down-body"/>
<line x1="1039.15" y1="992.39" x2="1039.15" y2="1005.92" class="up-wick"/>
<rect x="1036.74" y="1001.47" width="4.83" height="2.13" class="up-body"/>
<line x1="1046.58" y1="992.36" x2="1046.58" y2="1003.18" class="up-wick"/>
<rect x="1044.17" y="994.53" width="4.83" height="4.11" class="up-body"/>
<line x1="1054.01" y1="994.34" x2="1054.01" y2="1000.13" class="up-wick"/>
<rect x="1051.59" y="996.93" width="4.83" height="1.00" class="up-body"/>
<line x1="1061.43" y1="996.60" x2="1061.43" y2="1002.85" class="up-wick"/>
<rect x="1059.02" y="998.00" width="4.83" height="4.18" class="up-body"/>
<line x1="1068.86" y1="994.07" x2="1068.86" y2="1001.72" class="up-wick"/>
<rect x="1066.45" y="994.19" width="4.83" height="5.70" class="up-body"/>
<line x1="1076.29" y1="1005.28" x2="1076.29" y2="1011.90" class="down-wick"/>
<rect x="1073.87" y="1009.98" width="4.83" height="1.40" class="down-body"/>
<line x1="70" y1="902.40" x2="1080" y2="902.40" class="number-line"/>
<text x="1076" y="898.40" text-anchor="end" class="level-label">round 4570.00</text>
<line x1="70" y1="902.40" x2="1080" y2="902.40" class="entry-line"/>
<text x="1076" y="898.40" text-anchor="end" class="level-label">entry level 4570.00</text>
<text x="70" y="1056" class="axis-label">2026-05-18 14:00:00+00:00 to 2026-05-18 18:30:00+00:00</text>
<text x="1080" y="1056" text-anchor="end" class="axis-label">4525.51 - 4588.50</text>
</svg>