<svg xmlns="http://www.w3.org/2000/svg" width="1120" height="1054" viewBox="0 0 1120 1054">
<style>
text{font-family:Arial,Helvetica,sans-serif}.title{font-size:21px;font-weight:700;fill:#1f2937}.subtitle{font-size:12px;fill:#4b5563}.panel-title{font-size:15px;font-weight:700;fill:#111827}.muted{font-size:13px;fill:#6b7280}.plot-bg{fill:#f8fafc;stroke:#cbd5e1;stroke-width:1}.up-body{fill:#15803d;stroke:#14532d;stroke-width:.8}.down-body{fill:#b91c1c;stroke:#7f1d1d;stroke-width:.8}.up-wick{stroke:#14532d;stroke-width:1}.down-wick{stroke:#7f1d1d;stroke-width:1}.sweep-line{stroke:#7c3aed;stroke-width:1.6;stroke-dasharray:6 4}.number-line{stroke:#0f766e;stroke-width:1.4;stroke-dasharray:3 4}.entry-line{stroke:#2563eb;stroke-width:1.4}.sl-line{stroke:#dc2626;stroke-width:1.4}.tp-line{stroke:#16a34a;stroke-width:1.4}.level-label,.axis-label{font-size:11px;fill:#374151}
</style>
<text x="28" y="28" class="title">Adelin v2 visual review sample sample_079</text>
<text x="28" y="48" class="subtitle">Candidate windows are for visual labeling only and are not trade signals.</text>
<text x="560" y="48" class="subtitle" text-anchor="middle">LARGE_UPPER_WICK_REVERSAL_VISUAL_CANDIDATE | PRE_ANCHOR_SWEEP_EXTREME_CANDIDATE</text>
<text x="70" y="82" class="panel-title">H1 liquidity context</text>
<rect x="70" y="96" width="1010" height="192" class="plot-bg"/>
<line x1="81.48" y1="109.24" x2="81.48" y2="131.03" class="down-wick"/>
<rect x="77.48" y="110.79" width="8.00" height="6.62" class="down-body"/>
<line x1="104.43" y1="113.08" x2="104.43" y2="137.32" class="down-wick"/>
<rect x="100.43" y="117.38" width="8.00" height="17.24" class="down-body"/>
<line x1="127.39" y1="110.91" x2="127.39" y2="132.37" class="down-wick"/>
<rect x="123.39" y="113.80" width="8.00" height="10.64" class="down-body"/>
<line x1="150.34" y1="121.82" x2="150.34" y2="134.01" class="down-wick"/>
<rect x="146.34" y="124.44" width="8.00" height="6.28" class="down-body"/>
<line x1="173.30" y1="127.29" x2="173.30" y2="145.97" class="down-wick"/>
<rect x="169.30" y="130.71" width="8.00" height="1.08" class="down-body"/>
<line x1="196.25" y1="130.54" x2="196.25" y2="157.81" class="up-wick"/>
<rect x="192.25" y="131.71" width="8.00" height="1.00" class="up-body"/>
<line x1="219.20" y1="124.59" x2="219.20" y2="159.73" class="down-wick"/>
<rect x="215.20" y="131.71" width="8.00" height="9.20" class="down-body"/>
<line x1="242.16" y1="126.49" x2="242.16" y2="150.38" class="up-wick"/>
<rect x="238.16" y="129.29" width="8.00" height="11.62" class="up-body"/>
<line x1="265.11" y1="128.77" x2="265.11" y2="141.85" class="down-wick"/>
<rect x="261.11" y="129.21" width="8.00" height="11.62" class="down-body"/>
<line x1="288.07" y1="131.59" x2="288.07" y2="158.21" class="down-wick"/>
<rect x="284.07" y="140.81" width="8.00" height="8.80" class="down-body"/>
<line x1="311.02" y1="147.48" x2="311.02" y2="169.25" class="down-wick"/>
<rect x="307.02" y="149.61" width="8.00" height="13.31" class="down-body"/>
<line x1="333.98" y1="156.84" x2="333.98" y2="176.58" class="down-wick"/>
<rect x="329.98" y="162.92" width="8.00" height="12.35" class="down-body"/>
<line x1="356.93" y1="172.14" x2="356.93" y2="181.83" class="down-wick"/>
<rect x="352.93" y="175.27" width="8.00" height="2.49" class="down-body"/>
<line x1="379.89" y1="168.16" x2="379.89" y2="183.73" class="down-wick"/>
<rect x="375.89" y="177.84" width="8.00" height="1.94" class="down-body"/>
<line x1="402.84" y1="179.24" x2="402.84" y2="241.20" class="down-wick"/>
<rect x="398.84" y="179.78" width="8.00" height="16.28" class="down-body"/>
<line x1="425.80" y1="185.69" x2="425.80" y2="210.39" class="down-wick"/>
<rect x="421.80" y="196.06" width="8.00" height="2.58" class="down-body"/>
<line x1="448.75" y1="174.81" x2="448.75" y2="200.43" class="up-wick"/>
<rect x="444.75" y="188.82" width="8.00" height="9.82" class="up-body"/>
<line x1="471.70" y1="179.52" x2="471.70" y2="205.13" class="down-wick"/>
<rect x="467.70" y="188.82" width="8.00" height="5.45" class="down-body"/>
<line x1="494.66" y1="169.77" x2="494.66" y2="207.65" class="down-wick"/>
<rect x="490.66" y="194.26" width="8.00" height="3.28" class="down-body"/>
<line x1="517.61" y1="191.70" x2="517.61" y2="260.00" class="down-wick"/>
<rect x="513.61" y="197.54" width="8.00" height="50.95" class="down-body"/>
<line x1="540.57" y1="241.71" x2="540.57" y2="274.76" class="down-wick"/>
<rect x="536.57" y="248.49" width="8.00" height="13.84" class="down-body"/>
<line x1="563.52" y1="235.59" x2="563.52" y2="262.37" class="up-wick"/>
<rect x="559.52" y="247.42" width="8.00" height="14.91" class="up-body"/>
<line x1="586.48" y1="243.56" x2="586.48" y2="263.44" class="down-wick"/>
<rect x="582.48" y="247.42" width="8.00" height="7.76" class="down-body"/>
<line x1="609.43" y1="241.37" x2="609.43" y2="261.54" class="up-wick"/>
<rect x="605.43" y="253.29" width="8.00" height="1.89" class="up-body"/>
<line x1="632.39" y1="244.98" x2="632.39" y2="256.00" class="down-wick"/>
<rect x="628.39" y="246.04" width="8.00" height="7.60" class="down-body"/>
<line x1="655.34" y1="248.40" x2="655.34" y2="255.31" class="up-wick"/>
<rect x="651.34" y="251.75" width="8.00" height="1.89" class="up-body"/>
<line x1="678.30" y1="237.10" x2="678.30" y2="258.66" class="up-wick"/>
<rect x="674.30" y="237.69" width="8.00" height="14.06" class="up-body"/>
<line x1="701.25" y1="222.31" x2="701.25" y2="243.53" class="up-wick"/>
<rect x="697.25" y="223.84" width="8.00" height="14.01" class="up-body"/>
<line x1="724.20" y1="216.44" x2="724.20" y2="231.81" class="down-wick"/>
<rect x="720.20" y="223.84" width="8.00" height="2.36" class="down-body"/>
<line x1="747.16" y1="221.49" x2="747.16" y2="234.75" class="down-wick"/>
<rect x="743.16" y="226.20" width="8.00" height="5.72" class="down-body"/>
<line x1="770.11" y1="229.30" x2="770.11" y2="240.30" class="down-wick"/>
<rect x="766.11" y="231.92" width="8.00" height="1.10" class="down-body"/>
<line x1="793.07" y1="209.97" x2="793.07" y2="235.87" class="up-wick"/>
<rect x="789.07" y="217.75" width="8.00" height="15.23" class="up-body"/>
<line x1="816.02" y1="209.65" x2="816.02" y2="233.01" class="up-wick"/>
<rect x="812.02" y="214.65" width="8.00" height="3.07" class="up-body"/>
<line x1="838.98" y1="201.61" x2="838.98" y2="220.74" class="down-wick"/>
<rect x="834.98" y="214.65" width="8.00" height="3.28" class="down-body"/>
<line x1="861.93" y1="199.85" x2="861.93" y2="218.02" class="up-wick"/>
<rect x="857.93" y="201.32" width="8.00" height="16.61" class="up-body"/>
<line x1="884.89" y1="198.88" x2="884.89" y2="210.91" class="down-wick"/>
<rect x="880.89" y="201.32" width="8.00" height="2.90" class="down-body"/>
<line x1="907.84" y1="203.41" x2="907.84" y2="224.69" class="down-wick"/>
<rect x="903.84" y="204.24" width="8.00" height="15.95" class="down-body"/>
<line x1="930.80" y1="193.13" x2="930.80" y2="225.20" class="up-wick"/>
<rect x="926.80" y="195.88" width="8.00" height="24.29" class="up-body"/>
<line x1="953.75" y1="180.80" x2="953.75" y2="206.90" class="up-wick"/>
<rect x="949.75" y="193.65" width="8.00" height="2.22" class="up-body"/>
<line x1="976.70" y1="167.41" x2="976.70" y2="194.00" class="up-wick"/>
<rect x="972.70" y="174.68" width="8.00" height="19.02" class="up-body"/>
<line x1="999.66" y1="165.29" x2="999.66" y2="191.96" class="up-wick"/>
<rect x="995.66" y="170.89" width="8.00" height="3.79" class="up-body"/>
<line x1="1022.61" y1="168.96" x2="1022.61" y2="188.84" class="down-wick"/>
<rect x="1018.61" y="170.89" width="8.00" height="17.71" class="down-body"/>
<line x1="1045.57" y1="187.95" x2="1045.57" y2="207.53" class="down-wick"/>
<rect x="1041.57" y="188.60" width="8.00" height="9.35" class="down-body"/>
<line x1="1068.52" y1="195.96" x2="1068.52" y2="208.18" class="down-wick"/>
<rect x="1064.52" y="197.94" width="8.00" height="1.76" class="down-body"/>
<line x1="70" y1="266.26" x2="1080" y2="266.26" class="sweep-line"/>
<text x="1076" y="262.26" text-anchor="end" class="level-label">sweep 4507.64</text>
<line x1="70" y1="266.45" x2="1080" y2="266.45" class="entry-line"/>
<text x="1076" y="262.45" text-anchor="end" class="level-label">entry level 4507.49</text>
<text x="70" y="306" class="axis-label">2026-05-01 21:00:00+00:00 to 2026-05-05 20:00:00+00:00</text>
<text x="1080" y="306" text-anchor="end" class="axis-label">4490.60 - 4641.09</text>
<text x="70" y="332" class="panel-title">M15 liquidity / reaction context</text>
<rect x="70" y="346" width="1010" height="192" class="plot-bg"/>
<line x1="77.77" y1="359.24" x2="77.77" y2="385.07" class="down-wick"/>
<rect x="73.77" y="372.97" width="8.00" height="10.87" class="down-body"/>
<line x1="93.31" y1="379.76" x2="93.31" y2="390.01" class="up-wick"/>
<rect x="89.31" y="379.95" width="8.00" height="3.89" class="up-body"/>
<line x1="108.85" y1="375.67" x2="108.85" y2="386.93" class="down-wick"/>
<rect x="104.85" y="379.95" width="8.00" height="1.00" class="down-body"/>
<line x1="124.38" y1="377.61" x2="124.38" y2="396.75" class="down-wick"/>
<rect x="120.38" y="380.07" width="8.00" height="2.29" class="down-body"/>
<line x1="139.92" y1="381.81" x2="139.92" y2="394.81" class="down-wick"/>
<rect x="135.92" y="382.37" width="8.00" height="5.32" class="down-body"/>
<line x1="155.46" y1="385.20" x2="155.46" y2="401.83" class="down-wick"/>
<rect x="151.46" y="387.70" width="8.00" height="12.43" class="down-body"/>
<line x1="171.00" y1="389.88" x2="171.00" y2="402.77" class="up-wick"/>
<rect x="167.00" y="395.45" width="8.00" height="4.69" class="up-body"/>
<line x1="186.54" y1="388.43" x2="186.54" y2="400.06" class="up-wick"/>
<rect x="182.54" y="390.25" width="8.00" height="5.21" class="up-body"/>
<line x1="202.08" y1="389.39" x2="202.08" y2="403.42" class="down-wick"/>
<rect x="198.08" y="390.45" width="8.00" height="9.13" class="down-body"/>
<line x1="217.62" y1="396.12" x2="217.62" y2="404.36" class="up-wick"/>
<rect x="213.62" y="396.38" width="8.00" height="3.20" class="up-body"/>
<line x1="233.15" y1="392.18" x2="233.15" y2="411.25" class="down-wick"/>
<rect x="229.15" y="396.38" width="8.00" height="13.35" class="down-body"/>
<line x1="248.69" y1="406.68" x2="248.69" y2="416.75" class="up-wick"/>
<rect x="244.69" y="407.99" width="8.00" height="1.74" class="up-body"/>
<line x1="264.23" y1="406.33" x2="264.23" y2="416.67" class="down-wick"/>
<rect x="260.23" y="407.98" width="8.00" height="7.52" class="down-body"/>
<line x1="279.77" y1="406.12" x2="279.77" y2="417.31" class="up-wick"/>
<rect x="275.77" y="411.02" width="8.00" height="4.53" class="up-body"/>
<line x1="295.31" y1="408.67" x2="295.31" y2="414.34" class="down-wick"/>
<rect x="291.31" y="411.02" width="8.00" height="1.59" class="down-body"/>
<line x1="310.85" y1="401.77" x2="310.85" y2="413.73" class="up-wick"/>
<rect x="306.85" y="402.15" width="8.00" height="10.56" class="up-body"/>
<line x1="326.38" y1="401.52" x2="326.38" y2="407.58" class="down-wick"/>
<rect x="322.38" y="402.15" width="8.00" height="4.09" class="down-body"/>
<line x1="341.92" y1="401.52" x2="341.92" y2="407.51" class="up-wick"/>
<rect x="337.92" y="406.16" width="8.00" height="1.00" class="up-body"/>
<line x1="357.46" y1="404.79" x2="357.46" y2="419.51" class="down-wick"/>
<rect x="353.46" y="406.16" width="8.00" height="8.79" class="down-body"/>
<line x1="373.00" y1="414.32" x2="373.00" y2="470.84" class="down-wick"/>
<rect x="369.00" y="414.95" width="8.00" height="48.94" class="down-body"/>
<line x1="388.54" y1="459.43" x2="388.54" y2="485.96" class="up-wick"/>
<rect x="384.54" y="459.84" width="8.00" height="4.03" class="up-body"/>
<line x1="404.08" y1="431.90" x2="404.08" y2="462.57" class="up-wick"/>
<rect x="400.08" y="439.78" width="8.00" height="20.06" class="up-body"/>
<line x1="419.62" y1="427.52" x2="419.62" y2="440.19" class="up-wick"/>
<rect x="415.62" y="433.78" width="8.00" height="6.05" class="up-body"/>
<line x1="435.15" y1="421.78" x2="435.15" y2="435.69" class="up-wick"/>
<rect x="431.15" y="429.75" width="8.00" height="4.03" class="up-body"/>
<line x1="450.69" y1="422.89" x2="450.69" y2="435.06" class="down-wick"/>
<rect x="446.69" y="429.75" width="8.00" height="4.60" class="down-body"/>
<line x1="466.23" y1="433.70" x2="466.23" y2="450.34" class="down-wick"/>
<rect x="462.23" y="434.38" width="8.00" height="12.97" class="down-body"/>
<line x1="481.77" y1="432.89" x2="481.77" y2="447.85" class="up-wick"/>
<rect x="477.77" y="436.76" width="8.00" height="10.59" class="up-body"/>
<line x1="497.31" y1="429.06" x2="497.31" y2="438.82" class="up-wick"/>
<rect x="493.31" y="432.11" width="8.00" height="4.65" class="up-body"/>
<line x1="512.85" y1="409.20" x2="512.85" y2="432.74" class="up-wick"/>
<rect x="508.85" y="425.12" width="8.00" height="7.04" class="up-body"/>
<line x1="528.38" y1="420.52" x2="528.38" y2="435.93" class="up-wick"/>
<rect x="524.38" y="422.82" width="8.00" height="2.36" class="up-body"/>
<line x1="543.92" y1="414.10" x2="543.92" y2="428.07" class="down-wick"/>
<rect x="539.92" y="422.80" width="8.00" height="2.60" class="down-body"/>
<line x1="559.46" y1="414.64" x2="559.46" y2="441.77" class="down-wick"/>
<rect x="555.46" y="425.40" width="8.00" height="3.58" class="down-body"/>
<line x1="575.00" y1="426.21" x2="575.00" y2="436.12" class="down-wick"/>
<rect x="571.00" y="428.97" width="8.00" height="7.15" class="down-body"/>
<line x1="590.54" y1="421.56" x2="590.54" y2="444.26" class="up-wick"/>
<rect x="586.54" y="429.66" width="8.00" height="6.46" class="up-body"/>
<line x1="606.08" y1="427.70" x2="606.08" y2="441.39" class="down-wick"/>
<rect x="602.08" y="429.68" width="8.00" height="2.02" class="down-body"/>
<line x1="621.62" y1="429.53" x2="621.62" y2="447.17" class="down-wick"/>
<rect x="617.62" y="431.70" width="8.00" height="5.71" class="down-body"/>
<line x1="637.15" y1="404.84" x2="637.15" y2="438.41" class="up-wick"/>
<rect x="633.15" y="420.83" width="8.00" height="16.58" class="up-body"/>
<line x1="652.69" y1="403.38" x2="652.69" y2="422.26" class="up-wick"/>
<rect x="648.69" y="416.34" width="8.00" height="4.48" class="up-body"/>
<line x1="668.23" y1="412.71" x2="668.23" y2="438.32" class="down-wick"/>
<rect x="664.23" y="416.34" width="8.00" height="19.15" class="down-body"/>
<line x1="683.77" y1="428.73" x2="683.77" y2="455.16" class="down-wick"/>
<rect x="679.77" y="435.49" width="8.00" height="19.38" class="down-body"/>
<line x1="699.31" y1="444.10" x2="699.31" y2="505.13" class="down-wick"/>
<rect x="695.31" y="454.87" width="8.00" height="16.96" class="down-body"/>
<line x1="714.85" y1="462.94" x2="714.85" y2="485.55" class="down-wick"/>
<rect x="710.85" y="471.69" width="8.00" height="2.85" class="down-body"/>
<line x1="730.38" y1="474.53" x2="730.38" y2="507.69" class="down-wick"/>
<rect x="726.38" y="474.53" width="8.00" height="19.85" class="down-body"/>
<line x1="745.92" y1="488.66" x2="745.92" y2="524.76" class="down-wick"/>
<rect x="741.92" y="494.39" width="8.00" height="17.51" class="down-body"/>
<line x1="761.46" y1="486.55" x2="761.46" y2="513.53" class="up-wick"/>
<rect x="757.46" y="504.27" width="8.00" height="7.63" class="up-body"/>
<line x1="777.00" y1="498.24" x2="777.00" y2="509.45" class="down-wick"/>
<rect x="773.00" y="504.27" width="8.00" height="3.39" class="down-body"/>
<line x1="792.54" y1="502.50" x2="792.54" y2="515.16" class="down-wick"/>
<rect x="788.54" y="507.66" width="8.00" height="2.73" class="down-body"/>
<line x1="808.08" y1="487.65" x2="808.08" y2="510.44" class="up-wick"/>
<rect x="804.08" y="493.16" width="8.00" height="17.23" class="up-body"/>
<line x1="823.62" y1="479.47" x2="823.62" y2="494.21" class="up-wick"/>
<rect x="819.62" y="490.20" width="8.00" height="2.89" class="up-body"/>
<line x1="839.15" y1="485.46" x2="839.15" y2="494.25" class="up-wick"/>
<rect x="835.15" y="487.66" width="8.00" height="2.54" class="up-body"/>
<line x1="854.69" y1="486.79" x2="854.69" y2="494.36" class="down-wick"/>
<rect x="850.69" y="487.66" width="8.00" height="5.49" class="down-body"/>
<line x1="870.23" y1="488.69" x2="870.23" y2="498.75" class="down-wick"/>
<rect x="866.23" y="493.15" width="8.00" height="3.61" class="down-body"/>
<line x1="885.77" y1="496.30" x2="885.77" y2="511.67" class="down-wick"/>
<rect x="881.77" y="496.72" width="8.00" height="11.89" class="down-body"/>
<line x1="901.31" y1="504.09" x2="901.31" y2="510.55" class="down-wick"/>
<rect x="897.31" y="508.61" width="8.00" height="1.00" class="down-body"/>
<line x1="916.85" y1="501.88" x2="916.85" y2="510.21" class="up-wick"/>
<rect x="912.85" y="502.12" width="8.00" height="6.58" class="up-body"/>
<line x1="932.38" y1="491.73" x2="932.38" y2="509.48" class="up-wick"/>
<rect x="928.38" y="498.18" width="8.00" height="3.94" class="up-body"/>
<line x1="947.92" y1="487.96" x2="947.92" y2="500.35" class="up-wick"/>
<rect x="943.92" y="493.16" width="8.00" height="5.02" class="up-body"/>
<line x1="963.46" y1="486.16" x2="963.46" y2="495.92" class="down-wick"/>
<rect x="959.46" y="493.16" width="8.00" height="1.81" class="down-body"/>
<line x1="979.00" y1="491.76" x2="979.00" y2="503.55" class="down-wick"/>
<rect x="975.00" y="494.98" width="8.00" height="4.96" class="down-body"/>
<line x1="994.54" y1="490.33" x2="994.54" y2="499.96" class="down-wick"/>
<rect x="990.54" y="491.55" width="8.00" height="3.61" class="down-body"/>
<line x1="1010.08" y1="492.75" x2="1010.08" y2="497.69" class="down-wick"/>
<rect x="1006.08" y="495.17" width="8.00" height="1.90" class="down-body"/>
<line x1="1025.62" y1="493.58" x2="1025.62" y2="498.31" class="down-wick"/>
<rect x="1021.62" y="497.09" width="8.00" height="1.00" class="down-body"/>
<line x1="1041.15" y1="497.48" x2="1041.15" y2="503.08" class="down-wick"/>
<rect x="1037.15" y="497.91" width="8.00" height="2.43" class="down-body"/>
<line x1="1056.69" y1="495.02" x2="1056.69" y2="502.28" class="up-wick"/>
<rect x="1052.69" y="496.02" width="8.00" height="4.32" class="up-body"/>
<line x1="1072.23" y1="494.28" x2="1072.23" y2="497.60" class="up-wick"/>
<rect x="1068.23" y="495.01" width="8.00" height="1.02" class="up-body"/>
<line x1="70" y1="514.93" x2="1080" y2="514.93" class="sweep-line"/>
<text x="1076" y="510.93" text-anchor="end" class="level-label">sweep 4507.64</text>
<line x1="70" y1="515.16" x2="1080" y2="515.16" class="entry-line"/>
<text x="1076" y="511.16" text-anchor="end" class="level-label">entry level 4507.49</text>
<text x="70" y="556" class="axis-label">2026-05-04 08:15:00+00:00 to 2026-05-05 02:15:00+00:00</text>
<text x="1080" y="556" text-anchor="end" class="axis-label">4492.00 - 4622.17</text>
<text x="70" y="582" class="panel-title">M5 reaction / execution context</text>
<rect x="70" y="596" width="1010" height="192" class="plot-bg"/>
<line x1="79.90" y1="609.24" x2="79.90" y2="668.21" class="down-wick"/>
<rect x="75.90" y="609.24" width="8.00" height="58.58" class="down-body"/>
<line x1="99.71" y1="632.43" x2="99.71" y2="718.52" class="up-wick"/>
<rect x="95.71" y="642.20" width="8.00" height="25.62" class="up-body"/>
<line x1="119.51" y1="631.70" x2="119.51" y2="676.47" class="down-wick"/>
<rect x="115.51" y="642.20" width="8.00" height="32.47" class="down-body"/>
<line x1="139.31" y1="655.81" x2="139.31" y2="699.07" class="up-wick"/>
<rect x="135.31" y="671.46" width="8.00" height="3.21" class="up-body"/>
<line x1="159.12" y1="664.71" x2="159.12" y2="757.94" class="down-wick"/>
<rect x="155.12" y="671.46" width="8.00" height="57.55" class="down-body"/>
<line x1="178.92" y1="700.68" x2="178.92" y2="774.76" class="down-wick"/>
<rect x="174.92" y="729.02" width="8.00" height="3.35" class="down-body"/>
<line x1="198.73" y1="650.80" x2="198.73" y2="737.77" class="up-wick"/>
<rect x="194.73" y="670.25" width="8.00" height="62.12" class="up-body"/>
<line x1="218.53" y1="648.86" x2="218.53" y2="679.29" class="down-wick"/>
<rect x="214.53" y="670.10" width="8.00" height="4.86" class="down-body"/>
<line x1="238.33" y1="663.20" x2="238.33" y2="716.13" class="down-wick"/>
<rect x="234.33" y="674.96" width="8.00" height="32.28" class="down-body"/>
<line x1="258.14" y1="687.36" x2="258.14" y2="714.24" class="up-wick"/>
<rect x="254.14" y="692.41" width="8.00" height="14.83" class="up-body"/>
<line x1="277.94" y1="688.91" x2="277.94" y2="721.34" class="down-wick"/>
<rect x="273.94" y="692.41" width="8.00" height="21.49" class="down-body"/>
<line x1="297.75" y1="698.73" x2="297.75" y2="724.30" class="down-wick"/>
<rect x="293.75" y="713.90" width="8.00" height="4.52" class="down-body"/>
<line x1="317.55" y1="701.41" x2="317.55" y2="738.35" class="down-wick"/>
<rect x="313.55" y="718.42" width="8.00" height="12.74" class="down-body"/>
<line x1="337.35" y1="718.61" x2="337.35" y2="743.11" class="down-wick"/>
<rect x="333.35" y="731.16" width="8.00" height="3.84" class="down-body"/>
<line x1="357.16" y1="722.50" x2="357.16" y2="743.02" class="up-wick"/>
<rect x="353.16" y="727.41" width="8.00" height="7.83" class="up-body"/>
<line x1="376.96" y1="676.57" x2="376.96" y2="727.56" class="up-wick"/>
<rect x="372.96" y="677.15" width="8.00" height="50.26" class="up-body"/>
<line x1="396.76" y1="652.46" x2="396.76" y2="679.77" class="up-wick"/>
<rect x="392.76" y="663.15" width="8.00" height="14.00" class="up-body"/>
<line x1="416.57" y1="652.60" x2="416.57" y2="673.11" class="down-wick"/>
<rect x="412.57" y="663.05" width="8.00" height="7.58" class="down-body"/>
<line x1="436.37" y1="625.53" x2="436.37" y2="674.09" class="up-wick"/>
<rect x="432.37" y="637.82" width="8.00" height="32.57" class="up-body"/>
<line x1="456.18" y1="630.19" x2="456.18" y2="655.03" class="down-wick"/>
<rect x="452.18" y="637.82" width="8.00" height="16.43" class="down-body"/>
<line x1="475.98" y1="648.08" x2="475.98" y2="673.99" class="down-wick"/>
<rect x="471.98" y="654.25" width="8.00" height="6.61" class="down-body"/>
<line x1="495.78" y1="645.26" x2="495.78" y2="663.88" class="up-wick"/>
<rect x="491.78" y="654.35" width="8.00" height="6.51" class="up-body"/>
<line x1="515.59" y1="650.41" x2="515.59" y2="674.23" class="down-wick"/>
<rect x="511.59" y="654.35" width="8.00" height="3.01" class="down-body"/>
<line x1="535.39" y1="652.07" x2="535.39" y2="667.09" class="up-wick"/>
<rect x="531.39" y="652.50" width="8.00" height="4.86" class="up-body"/>
<line x1="555.20" y1="649.64" x2="555.20" y2="670.39" class="down-wick"/>
<rect x="551.20" y="652.50" width="8.00" height="17.65" class="down-body"/>
<line x1="575.00" y1="654.06" x2="575.00" y2="672.00" class="up-wick"/>
<rect x="571.00" y="667.28" width="8.00" height="2.87" class="up-body"/>
<line x1="594.80" y1="663.59" x2="594.80" y2="674.57" class="down-wick"/>
<rect x="590.80" y="668.50" width="8.00" height="2.09" class="down-body"/>
<line x1="614.61" y1="655.91" x2="614.61" y2="676.81" class="up-wick"/>
<rect x="610.61" y="665.43" width="8.00" height="5.15" class="up-body"/>
<line x1="634.41" y1="660.67" x2="634.41" y2="689.06" class="down-wick"/>
<rect x="630.41" y="665.43" width="8.00" height="19.83" class="down-body"/>
<line x1="654.22" y1="673.65" x2="654.22" y2="687.31" class="up-wick"/>
<rect x="650.22" y="682.50" width="8.00" height="2.77" class="up-body"/>
<line x1="674.02" y1="680.99" x2="674.02" y2="698.20" class="down-wick"/>
<rect x="670.02" y="682.35" width="8.00" height="10.06" class="down-body"/>
<line x1="693.82" y1="692.02" x2="693.82" y2="709.91" class="down-wick"/>
<rect x="689.82" y="692.17" width="8.00" height="17.35" class="down-body"/>
<line x1="713.63" y1="705.39" x2="713.63" y2="731.64" class="down-wick"/>
<rect x="709.63" y="709.52" width="8.00" height="12.01" class="down-body"/>
<line x1="733.43" y1="708.21" x2="733.43" y2="727.51" class="up-wick"/>
<rect x="729.43" y="708.84" width="8.00" height="12.69" class="up-body"/>
<line x1="753.24" y1="706.66" x2="753.24" y2="723.67" class="up-wick"/>
<rect x="749.24" y="707.24" width="8.00" height="1.60" class="up-body"/>
<line x1="773.04" y1="707.00" x2="773.04" y2="727.95" class="down-wick"/>
<rect x="769.04" y="707.24" width="8.00" height="14.58" class="down-body"/>
<line x1="792.84" y1="705.39" x2="792.84" y2="726.83" class="up-wick"/>
<rect x="788.84" y="707.39" width="8.00" height="14.44" class="up-body"/>
<line x1="812.65" y1="702.72" x2="812.65" y2="723.96" class="down-wick"/>
<rect x="808.65" y="706.90" width="8.00" height="5.93" class="down-body"/>
<line x1="832.45" y1="699.36" x2="832.45" y2="718.42" class="up-wick"/>
<rect x="828.45" y="700.14" width="8.00" height="12.69" class="up-body"/>
<line x1="852.25" y1="696.98" x2="852.25" y2="724.40" class="down-wick"/>
<rect x="848.25" y="700.14" width="8.00" height="23.14" class="down-body"/>
<line x1="872.06" y1="665.92" x2="872.06" y2="723.28" class="up-wick"/>
<rect x="868.06" y="692.85" width="8.00" height="30.43" class="up-body"/>
<line x1="891.86" y1="681.91" x2="891.86" y2="697.81" class="up-wick"/>
<rect x="887.86" y="687.16" width="8.00" height="5.35" class="up-body"/>
<line x1="911.67" y1="673.55" x2="911.67" y2="694.31" class="up-wick"/>
<rect x="907.67" y="679.00" width="8.00" height="8.17" class="up-body"/>
<line x1="931.47" y1="659.84" x2="931.47" y2="683.61" class="up-wick"/>
<rect x="927.47" y="659.84" width="8.00" height="19.15" class="up-body"/>
<line x1="951.27" y1="653.48" x2="951.27" y2="682.59" class="down-wick"/>
<rect x="947.27" y="659.84" width="8.00" height="10.79" class="down-body"/>
<line x1="971.08" y1="663.93" x2="971.08" y2="677.39" class="up-wick"/>
<rect x="967.08" y="668.59" width="8.00" height="2.04" class="up-body"/>
<line x1="990.88" y1="647.55" x2="990.88" y2="668.69" class="up-wick"/>
<rect x="986.88" y="661.50" width="8.00" height="7.10" class="up-body"/>
<line x1="1010.69" y1="653.23" x2="1010.69" y2="679.73" class="down-wick"/>
<rect x="1006.69" y="661.50" width="8.00" height="15.12" class="down-body"/>
<line x1="1030.49" y1="666.02" x2="1030.49" y2="684.64" class="up-wick"/>
<rect x="1026.49" y="676.03" width="8.00" height="1.00" class="up-body"/>
<line x1="1050.29" y1="676.08" x2="1050.29" y2="688.82" class="down-wick"/>
<rect x="1046.29" y="676.08" width="8.00" height="9.92" class="down-body"/>
<line x1="1070.10" y1="680.75" x2="1070.10" y2="704.86" class="down-wick"/>
<rect x="1066.10" y="686.00" width="8.00" height="6.95" class="down-body"/>
<line x1="70" y1="742.38" x2="1080" y2="742.38" class="sweep-line"/>
<text x="1076" y="738.38" text-anchor="end" class="level-label">sweep 4507.64</text>
<line x1="70" y1="743.11" x2="1080" y2="743.11" class="entry-line"/>
<text x="1076" y="739.11" text-anchor="end" class="level-label">entry level 4507.49</text>
<text x="70" y="806" class="axis-label">2026-05-04 18:45:00+00:00 to 2026-05-04 22:55:00+00:00</text>
<text x="1080" y="806" text-anchor="end" class="axis-label">4498.26 - 4537.75</text>
<text x="70" y="832" class="panel-title">M1 execution window</text>
<rect x="70" y="846" width="1010" height="192" class="plot-bg"/>
<line x1="73.95" y1="859.24" x2="73.95" y2="881.80" class="down-wick"/>
<rect x="71.38" y="859.24" width="5.13" height="21.43" class="down-body"/>
<line x1="81.84" y1="879.86" x2="81.84" y2="903.07" class="down-wick"/>
<rect x="79.27" y="882.67" width="5.13" height="19.75" class="down-body"/>
<line x1="89.73" y1="897.77" x2="89.73" y2="924.87" class="down-wick"/>
<rect x="87.16" y="903.77" width="5.13" height="20.67" class="down-body"/>
<line x1="97.62" y1="921.84" x2="97.62" y2="980.88" class="down-wick"/>
<rect x="95.05" y="931.26" width="5.13" height="24.78" class="down-body"/>
<line x1="105.51" y1="886.40" x2="105.51" y2="943.43" class="up-wick"/>
<rect x="102.94" y="900.47" width="5.13" height="41.34" class="up-body"/>
<line x1="113.40" y1="884.24" x2="113.40" y2="906.42" class="down-wick"/>
<rect x="110.83" y="895.93" width="5.13" height="7.25" class="down-body"/>
<line x1="121.29" y1="897.55" x2="121.29" y2="918.11" class="down-wick"/>
<rect x="118.72" y="907.56" width="5.13" height="10.44" class="down-body"/>
<line x1="129.18" y1="895.12" x2="129.18" y2="934.07" class="down-wick"/>
<rect x="126.62" y="910.97" width="5.13" height="21.10" class="down-body"/>
<line x1="137.07" y1="912.97" x2="137.07" y2="952.90" class="down-wick"/>
<rect x="134.51" y="915.14" width="5.13" height="33.22" class="down-body"/>
<line x1="144.96" y1="934.61" x2="144.96" y2="954.53" class="down-wick"/>
<rect x="142.40" y="934.72" width="5.13" height="12.44" class="down-body"/>
<line x1="152.85" y1="924.55" x2="152.85" y2="946.19" class="down-wick"/>
<rect x="150.29" y="928.50" width="5.13" height="2.38" class="down-body"/>
<line x1="160.74" y1="923.52" x2="160.74" y2="994.73" class="down-wick"/>
<rect x="158.18" y="923.74" width="5.13" height="70.99" class="down-body"/>
<line x1="168.63" y1="984.61" x2="168.63" y2="1024.76" class="up-wick"/>
<rect x="166.07" y="992.56" width="5.13" height="1.00" class="up-body"/>
<line x1="176.52" y1="978.71" x2="176.52" y2="1019.73" class="up-wick"/>
<rect x="173.96" y="981.20" width="5.13" height="38.53" class="up-body"/>
<line x1="184.41" y1="968.54" x2="184.41" y2="994.30" class="down-wick"/>
<rect x="181.85" y="968.54" width="5.13" height="23.65" class="down-body"/>
<line x1="192.30" y1="961.34" x2="192.30" y2="1002.30" class="up-wick"/>
<rect x="189.74" y="981.15" width="5.13" height="15.15" class="up-body"/>
<line x1="200.20" y1="958.10" x2="200.20" y2="992.29" class="up-wick"/>
<rect x="197.63" y="976.66" width="5.13" height="1.24" class="up-body"/>
<line x1="208.09" y1="905.50" x2="208.09" y2="944.41" class="up-wick"/>
<rect x="205.52" y="927.15" width="5.13" height="15.58" class="up-body"/>
<line x1="215.98" y1="903.34" x2="215.98" y2="924.87" class="down-wick"/>
<rect x="213.41" y="920.60" width="5.13" height="3.08" class="down-body"/>
<line x1="223.87" y1="917.73" x2="223.87" y2="932.61" class="up-wick"/>
<rect x="221.30" y="925.85" width="5.13" height="2.60" class="up-body"/>
<line x1="231.76" y1="919.30" x2="231.76" y2="932.40" class="up-wick"/>
<rect x="229.19" y="928.28" width="5.13" height="4.11" class="up-body"/>
<line x1="239.65" y1="926.28" x2="239.65" y2="978.23" class="down-wick"/>
<rect x="237.08" y="927.15" width="5.13" height="44.10" class="down-body"/>
<line x1="247.54" y1="956.80" x2="247.54" y2="976.44" class="down-wick"/>
<rect x="244.97" y="964.05" width="5.13" height="4.27" class="down-body"/>
<line x1="255.43" y1="946.19" x2="255.43" y2="962.97" class="down-wick"/>
<rect x="252.87" y="955.88" width="5.13" height="3.08" class="down-body"/>
<line x1="263.32" y1="955.28" x2="263.32" y2="971.19" class="up-wick"/>
<rect x="260.76" y="964.48" width="5.13" height="5.36" class="up-body"/>
<line x1="271.21" y1="947.98" x2="271.21" y2="965.62" class="down-wick"/>
<rect x="268.65" y="951.82" width="5.13" height="7.74" class="down-body"/>
<line x1="279.10" y1="954.31" x2="279.10" y2="976.06" class="down-wick"/>
<rect x="276.54" y="954.31" width="5.13" height="5.84" class="down-body"/>
<line x1="286.99" y1="960.59" x2="286.99" y2="975.74" class="down-wick"/>
<rect x="284.43" y="965.94" width="5.13" height="9.79" class="down-body"/>
<line x1="294.88" y1="962.37" x2="294.88" y2="979.74" class="down-wick"/>
<rect x="292.32" y="964.48" width="5.13" height="7.63" class="down-body"/>
<line x1="302.77" y1="965.02" x2="302.77" y2="979.52" class="up-wick"/>
<rect x="300.21" y="966.65" width="5.13" height="11.20" class="up-body"/>
<line x1="310.66" y1="966.05" x2="310.66" y2="985.31" class="up-wick"/>
<rect x="308.10" y="966.54" width="5.13" height="14.23" class="up-body"/>
<line x1="318.55" y1="965.46" x2="318.55" y2="1002.95" class="down-wick"/>
<rect x="315.99" y="968.59" width="5.13" height="29.16" class="down-body"/>
<line x1="326.45" y1="986.61" x2="326.45" y2="1000.90" class="down-wick"/>
<rect x="323.88" y="991.81" width="5.13" height="3.14" class="down-body"/>
<line x1="334.34" y1="983.31" x2="334.34" y2="1004.90" class="down-wick"/>
<rect x="331.77" y="985.26" width="5.13" height="8.77" class="down-body"/>
<line x1="342.23" y1="994.57" x2="342.23" y2="1007.44" class="down-wick"/>
<rect x="339.66" y="994.57" width="5.13" height="9.90" class="down-body"/>
<line x1="350.12" y1="985.31" x2="350.12" y2="1001.76" class="down-wick"/>
<rect x="347.55" y="999.49" width="5.13" height="1.19" class="down-body"/>
<line x1="358.01" y1="997.70" x2="358.01" y2="1007.07" class="up-wick"/>
<rect x="355.44" y="997.70" width="5.13" height="5.09" class="up-body"/>
<line x1="365.90" y1="987.37" x2="365.90" y2="998.14" class="up-wick"/>
<rect x="363.33" y="990.78" width="5.13" height="6.55" class="up-body"/>
<line x1="373.79" y1="950.36" x2="373.79" y2="981.58" class="up-wick"/>
<rect x="371.22" y="954.53" width="5.13" height="16.77" class="up-body"/>
<line x1="381.68" y1="936.62" x2="381.68" y2="956.47" class="down-wick"/>
<rect x="379.12" y="949.82" width="5.13" height="4.87" class="down-body"/>
<line x1="389.57" y1="916.81" x2="389.57" y2="937.75" class="up-wick"/>
<rect x="387.01" y="921.30" width="5.13" height="13.53" class="up-body"/>
<line x1="397.46" y1="910.81" x2="397.46" y2="930.02" class="up-wick"/>
<rect x="394.90" y="915.19" width="5.13" height="14.83" class="up-body"/>
<line x1="405.35" y1="916.92" x2="405.35" y2="929.96" class="up-wick"/>
<rect x="402.79" y="919.25" width="5.13" height="7.36" class="up-body"/>
<line x1="413.24" y1="914.05" x2="413.24" y2="930.34" class="down-wick"/>
<rect x="410.68" y="915.41" width="5.13" height="9.04" class="down-body"/>
<line x1="421.13" y1="907.51" x2="421.13" y2="921.25" class="up-wick"/>
<rect x="418.57" y="910.64" width="5.13" height="7.85" class="up-body"/>
<line x1="429.02" y1="923.68" x2="429.02" y2="931.42" class="up-wick"/>
<rect x="426.46" y="925.90" width="5.13" height="1.41" class="up-body"/>
<line x1="436.91" y1="887.32" x2="436.91" y2="923.52" class="up-wick"/>
<rect x="434.35" y="895.22" width="5.13" height="20.18" class="up-body"/>
<line x1="444.80" y1="882.62" x2="444.80" y2="898.15" class="up-wick"/>
<rect x="442.24" y="891.06" width="5.13" height="2.16" class="up-body"/>
<line x1="452.70" y1="886.78" x2="452.70" y2="904.91" class="up-wick"/>
<rect x="450.13" y="889.65" width="5.13" height="11.69" class="up-body"/>
<line x1="460.59" y1="891.27" x2="460.59" y2="898.74" class="down-wick"/>
<rect x="458.02" y="893.38" width="5.13" height="4.27" class="down-body"/>
<line x1="468.48" y1="904.48" x2="468.48" y2="919.03" class="down-wick"/>
<rect x="465.91" y="909.35" width="5.13" height="4.55" class="down-body"/>
<line x1="476.37" y1="906.91" x2="476.37" y2="917.35" class="up-wick"/>
<rect x="473.80" y="914.05" width="5.13" height="1.41" class="up-body"/>
<line x1="484.26" y1="915.84" x2="484.26" y2="931.31" class="up-wick"/>
<rect x="481.69" y="916.70" width="5.13" height="10.82" class="up-body"/>
<line x1="492.15" y1="899.44" x2="492.15" y2="918.00" class="up-wick"/>
<rect x="489.58" y="904.48" width="5.13" height="13.31" class="up-body"/>
<line x1="500.04" y1="901.28" x2="500.04" y2="907.94" class="down-wick"/>
<rect x="497.47" y="906.80" width="5.13" height="1.00" class="down-body"/>
<line x1="507.93" y1="905.07" x2="507.93" y2="925.20" class="down-wick"/>
<rect x="505.37" y="909.45" width="5.13" height="15.58" class="down-body"/>
<line x1="515.82" y1="919.95" x2="515.82" y2="931.58" class="down-wick"/>
<rect x="513.26" y="924.93" width="5.13" height="1.19" class="down-body"/>
<line x1="523.71" y1="912.54" x2="523.71" y2="921.68" class="up-wick"/>
<rect x="521.15" y="912.81" width="5.13" height="8.87" class="up-body"/>
<line x1="531.60" y1="915.19" x2="531.60" y2="920.60" class="up-wick"/>
<rect x="529.04" y="919.30" width="5.13" height="1.00" class="up-body"/>
<line x1="539.49" y1="907.88" x2="539.49" y2="918.00" class="up-wick"/>
<rect x="536.93" y="907.88" width="5.13" height="8.12" class="up-body"/>
<line x1="547.38" y1="905.61" x2="547.38" y2="914.81" class="down-wick"/>
<rect x="544.82" y="907.40" width="5.13" height="3.46" class="down-body"/>
<line x1="555.27" y1="907.24" x2="555.27" y2="916.38" class="down-wick"/>
<rect x="552.71" y="908.43" width="5.13" height="2.33" class="down-body"/>
<line x1="563.16" y1="912.27" x2="563.16" y2="927.31" class="down-wick"/>
<rect x="560.60" y="914.05" width="5.13" height="12.99" class="down-body"/>
<line x1="571.05" y1="915.08" x2="571.05" y2="927.96" class="up-wick"/>
<rect x="568.49" y="915.46" width="5.13" height="10.50" class="up-body"/>
<line x1="578.95" y1="909.13" x2="578.95" y2="922.06" class="down-wick"/>
<rect x="576.38" y="909.13" width="5.13" height="9.63" class="down-body"/>
<line x1="586.84" y1="922.60" x2="586.84" y2="931.26" class="up-wick"/>
<rect x="584.27" y="923.09" width="5.13" height="2.11" class="up-body"/>
<line x1="594.73" y1="922.39" x2="594.73" y2="927.90" class="up-wick"/>
<rect x="592.16" y="924.77" width="5.13" height="2.11" class="up-body"/>
<line x1="602.62" y1="924.33" x2="602.62" y2="929.37" class="up-wick"/>
<rect x="600.05" y="927.53" width="5.13" height="1.73" class="up-body"/>
<line x1="610.51" y1="924.60" x2="610.51" y2="929.42" class="up-wick"/>
<rect x="607.94" y="927.90" width="5.13" height="1.00" class="up-body"/>
<line x1="618.40" y1="911.19" x2="618.40" y2="923.58" class="up-wick"/>
<rect x="615.83" y="921.14" width="5.13" height="1.08" class="up-body"/>
<line x1="626.29" y1="916.49" x2="626.29" y2="925.47" class="up-wick"/>
<rect x="623.72" y="920.11" width="5.13" height="1.68" class="up-body"/>
<line x1="634.18" y1="921.68" x2="634.18" y2="946.09" class="down-wick"/>
<rect x="631.62" y="921.84" width="5.13" height="23.81" class="down-body"/>
<line x1="642.07" y1="938.67" x2="642.07" y2="945.17" class="down-wick"/>
<rect x="639.51" y="940.94" width="5.13" height="2.92" class="down-body"/>
<line x1="649.96" y1="936.78" x2="649.96" y2="942.14" class="down-wick"/>
<rect x="647.40" y="940.73" width="5.13" height="1.19" class="down-body"/>
<line x1="657.85" y1="930.93" x2="657.85" y2="936.99" class="up-wick"/>
<rect x="655.29" y="933.48" width="5.13" height="3.19" class="up-body"/>
<line x1="665.74" y1="939.11" x2="665.74" y2="949.49" class="down-wick"/>
<rect x="663.18" y="940.62" width="5.13" height="5.74" class="down-body"/>
<line x1="673.63" y1="941.43" x2="673.63" y2="949.22" class="up-wick"/>
<rect x="671.07" y="942.35" width="5.13" height="2.54" class="up-body"/>
<line x1="681.52" y1="949.12" x2="681.52" y2="958.26" class="down-wick"/>
<rect x="678.96" y="949.12" width="5.13" height="2.71" class="down-body"/>
<line x1="689.41" y1="951.82" x2="689.41" y2="957.18" class="down-wick"/>
<rect x="686.85" y="955.61" width="5.13" height="1.00" class="down-body"/>
<line x1="697.30" y1="958.53" x2="697.30" y2="968.49" class="down-wick"/>
<rect x="694.74" y="959.56" width="5.13" height="3.84" class="down-body"/>
<line x1="705.20" y1="967.73" x2="705.20" y2="976.87" class="up-wick"/>
<rect x="702.63" y="969.35" width="5.13" height="1.52" class="up-body"/>
<line x1="713.09" y1="974.44" x2="713.09" y2="995.49" class="down-wick"/>
<rect x="710.52" y="974.92" width="5.13" height="15.26" class="down-body"/>
<line x1="720.98" y1="975.09" x2="720.98" y2="987.48" class="down-wick"/>
<rect x="718.41" y="977.31" width="5.13" height="6.93" class="down-body"/>
<line x1="728.87" y1="980.77" x2="728.87" y2="990.89" class="up-wick"/>
<rect x="726.30" y="983.69" width="5.13" height="1.57" class="up-body"/>
<line x1="736.76" y1="971.46" x2="736.76" y2="979.63" class="down-wick"/>
<rect x="734.19" y="977.20" width="5.13" height="2.43" class="down-body"/>
<line x1="744.65" y1="969.95" x2="744.65" y2="976.71" class="down-wick"/>
<rect x="742.08" y="970.11" width="5.13" height="5.95" class="down-body"/>
<line x1="752.54" y1="978.50" x2="752.54" y2="986.40" class="down-wick"/>
<rect x="749.97" y="979.69" width="5.13" height="3.35" class="down-body"/>
<line x1="760.43" y1="967.67" x2="760.43" y2="986.61" class="up-wick"/>
<rect x="757.87" y="968.32" width="5.13" height="17.48" class="up-body"/>
<line x1="768.32" y1="968.16" x2="768.32" y2="976.33" class="down-wick"/>
<rect x="765.76" y="970.00" width="5.13" height="5.90" class="down-body"/>
<line x1="776.21" y1="973.52" x2="776.21" y2="990.45" class="down-wick"/>
<rect x="773.65" y="973.52" width="5.13" height="16.61" class="down-body"/>
<line x1="784.10" y1="983.37" x2="784.10" y2="990.13" class="down-wick"/>
<rect x="781.54" y="984.56" width="5.13" height="1.73" class="down-body"/>
<line x1="791.99" y1="975.03" x2="791.99" y2="984.23" class="up-wick"/>
<rect x="789.43" y="976.66" width="5.13" height="3.73" class="up-body"/>
<line x1="799.88" y1="966.27" x2="799.88" y2="977.36" class="up-wick"/>
<rect x="797.32" y="968.49" width="5.13" height="4.71" class="up-body"/>
<line x1="807.77" y1="964.86" x2="807.77" y2="973.63" class="up-wick"/>
<rect x="805.21" y="964.91" width="5.13" height="4.11" class="up-body"/>
<line x1="815.66" y1="972.06" x2="815.66" y2="977.25" class="up-wick"/>
<rect x="813.10" y="974.87" width="5.13" height="2.16" class="up-body"/>
<line x1="823.55" y1="973.90" x2="823.55" y2="980.77" class="down-wick"/>
<rect x="820.99" y="974.55" width="5.13" height="1.00" class="down-body"/>
<line x1="831.45" y1="969.62" x2="831.45" y2="979.25" class="up-wick"/>
<rect x="828.88" y="971.95" width="5.13" height="3.84" class="up-body"/>
<line x1="839.34" y1="959.56" x2="839.34" y2="975.84" class="up-wick"/>
<rect x="836.77" y="960.42" width="5.13" height="8.39" class="up-body"/>
<line x1="847.23" y1="956.91" x2="847.23" y2="968.00" class="up-wick"/>
<rect x="844.66" y="964.97" width="5.13" height="1.00" class="up-body"/>
<line x1="855.12" y1="966.00" x2="855.12" y2="970.33" class="up-wick"/>
<rect x="852.55" y="968.49" width="5.13" height="1.41" class="up-body"/>
<line x1="863.01" y1="963.08" x2="863.01" y2="986.18" class="up-wick"/>
<rect x="860.44" y="963.13" width="5.13" height="23.05" class="up-body"/>
<line x1="870.90" y1="940.62" x2="870.90" y2="962.75" class="up-wick"/>
<rect x="868.33" y="952.04" width="5.13" height="5.09" class="up-body"/>
<line x1="878.79" y1="934.51" x2="878.79" y2="952.42" class="down-wick"/>
<rect x="876.22" y="937.81" width="5.13" height="14.50" class="down-body"/>
<line x1="886.68" y1="944.25" x2="886.68" y2="954.04" class="up-wick"/>
<rect x="884.12" y="948.09" width="5.13" height="2.76" class="up-body"/>
<line x1="894.57" y1="942.14" x2="894.57" y2="945.92" class="up-wick"/>
<rect x="892.01" y="942.89" width="5.13" height="1.84" class="up-body"/>
<line x1="902.46" y1="939.59" x2="902.46" y2="953.93" class="down-wick"/>
<rect x="899.90" y="945.98" width="5.13" height="6.76" class="down-body"/>
<line x1="910.35" y1="930.83" x2="910.35" y2="943.06" class="up-wick"/>
<rect x="907.79" y="936.72" width="5.13" height="1.00" class="up-body"/>
<line x1="918.24" y1="935.16" x2="918.24" y2="945.17" class="up-wick"/>
<rect x="915.68" y="936.89" width="5.13" height="6.60" class="up-body"/>
<line x1="926.13" y1="932.34" x2="926.13" y2="937.27" class="down-wick"/>
<rect x="923.57" y="936.02" width="5.13" height="1.03" class="down-body"/>
<line x1="934.02" y1="921.47" x2="934.02" y2="937.27" class="up-wick"/>
<rect x="931.46" y="924.93" width="5.13" height="9.63" class="up-body"/>
<line x1="941.91" y1="908.48" x2="941.91" y2="933.37" class="down-wick"/>
<rect x="939.35" y="915.57" width="5.13" height="12.93" class="down-body"/>
<line x1="949.80" y1="918.33" x2="949.80" y2="930.18" class="up-wick"/>
<rect x="947.24" y="925.63" width="5.13" height="2.71" class="up-body"/>
<line x1="957.70" y1="919.79" x2="957.70" y2="928.72" class="down-wick"/>
<rect x="955.13" y="921.09" width="5.13" height="6.49" class="down-body"/>
<line x1="965.59" y1="921.30" x2="965.59" y2="932.61" class="up-wick"/>
<rect x="963.02" y="921.52" width="5.13" height="11.09" class="up-body"/>
<line x1="973.48" y1="921.63" x2="973.48" y2="927.69" class="up-wick"/>
<rect x="970.91" y="922.82" width="5.13" height="4.55" class="up-body"/>
<line x1="981.37" y1="910.16" x2="981.37" y2="925.42" class="up-wick"/>
<rect x="978.80" y="910.16" width="5.13" height="15.15" class="up-body"/>
<line x1="989.26" y1="902.04" x2="989.26" y2="907.83" class="down-wick"/>
<rect x="986.69" y="904.31" width="5.13" height="1.00" class="down-body"/>
<line x1="997.15" y1="909.51" x2="997.15" y2="920.00" class="down-wick"/>
<rect x="994.58" y="910.54" width="5.13" height="6.87" class="down-body"/>
<line x1="1005.04" y1="915.62" x2="1005.04" y2="926.44" class="down-wick"/>
<rect x="1002.47" y="917.89" width="5.13" height="8.12" class="down-body"/>
<line x1="1012.93" y1="922.66" x2="1012.93" y2="936.29" class="down-wick"/>
<rect x="1010.37" y="922.66" width="5.13" height="13.31" class="down-body"/>
<line x1="1020.82" y1="932.34" x2="1020.82" y2="943.16" class="down-wick"/>
<rect x="1018.26" y="934.24" width="5.13" height="1.08" class="down-body"/>
<line x1="1028.71" y1="929.26" x2="1028.71" y2="938.83" class="up-wick"/>
<rect x="1026.15" y="929.74" width="5.13" height="9.09" class="up-body"/>
<line x1="1036.60" y1="925.04" x2="1036.60" y2="936.56" class="down-wick"/>
<rect x="1034.04" y="926.93" width="5.13" height="6.66" class="down-body"/>
<line x1="1044.49" y1="939.38" x2="1044.49" y2="946.41" class="down-wick"/>
<rect x="1041.93" y="941.92" width="5.13" height="1.00" class="down-body"/>
<line x1="1052.38" y1="939.65" x2="1052.38" y2="947.49" class="up-wick"/>
<rect x="1049.82" y="939.65" width="5.13" height="5.63" class="up-body"/>
<line x1="1060.27" y1="938.83" x2="1060.27" y2="962.10" class="down-wick"/>
<rect x="1057.71" y="944.68" width="5.13" height="16.56" class="down-body"/>
<line x1="1068.16" y1="953.23" x2="1068.16" y2="957.56" class="up-wick"/>
<rect x="1065.60" y="956.85" width="5.13" height="1.00" class="up-body"/>
<line x1="1076.05" y1="952.42" x2="1076.05" y2="965.67" class="up-wick"/>
<rect x="1073.49" y="952.42" width="5.13" height="8.82" class="up-body"/>
<line x1="70" y1="1007.44" x2="1080" y2="1007.44" class="sweep-line"/>
<text x="1076" y="1003.44" text-anchor="end" class="level-label">sweep 4507.64</text>
<line x1="70" y1="1008.26" x2="1080" y2="1008.26" class="entry-line"/>
<text x="1076" y="1004.26" text-anchor="end" class="level-label">entry level 4507.49</text>
<text x="70" y="1056" class="axis-label">2026-05-04 18:45:00+00:00 to 2026-05-04 22:59:00+00:00</text>
<text x="1080" y="1056" text-anchor="end" class="axis-label">4501.99 - 4537.48</text>
</svg>