<svg xmlns="http://www.w3.org/2000/svg" width="1120" height="1054" viewBox="0 0 1120 1054">
<style>
text{font-family:Arial,Helvetica,sans-serif}.title{font-size:21px;font-weight:700;fill:#1f2937}.subtitle{font-size:12px;fill:#4b5563}.panel-title{font-size:15px;font-weight:700;fill:#111827}.muted{font-size:13px;fill:#6b7280}.plot-bg{fill:#f8fafc;stroke:#cbd5e1;stroke-width:1}.up-body{fill:#15803d;stroke:#14532d;stroke-width:.8}.down-body{fill:#b91c1c;stroke:#7f1d1d;stroke-width:.8}.up-wick{stroke:#14532d;stroke-width:1}.down-wick{stroke:#7f1d1d;stroke-width:1}.sweep-line{stroke:#7c3aed;stroke-width:1.6;stroke-dasharray:6 4}.number-line{stroke:#0f766e;stroke-width:1.4;stroke-dasharray:3 4}.entry-line{stroke:#2563eb;stroke-width:1.4}.sl-line{stroke:#dc2626;stroke-width:1.4}.tp-line{stroke:#16a34a;stroke-width:1.4}.level-label,.axis-label{font-size:11px;fill:#374151}
</style>
<text x="28" y="28" class="title">Adelin v2 visual review sample sample_252</text>
<text x="28" y="48" class="subtitle">Candidate windows are for visual labeling only and are not trade signals.</text>
<text x="560" y="48" class="subtitle" text-anchor="middle">LARGE_UPPER_WICK_REVERSAL_VISUAL_CANDIDATE | PRE_ANCHOR_SWEEP_EXTREME_CANDIDATE</text>
<text x="70" y="82" class="panel-title">H1 liquidity context</text>
<rect x="70" y="96" width="1010" height="192" class="plot-bg"/>
<line x1="80.98" y1="264.58" x2="80.98" y2="274.76" class="up-wick"/>
<rect x="76.98" y="264.92" width="8.00" height="7.37" class="up-body"/>
<line x1="102.93" y1="247.87" x2="102.93" y2="267.38" class="up-wick"/>
<rect x="98.93" y="249.10" width="8.00" height="15.82" class="up-body"/>
<line x1="124.89" y1="239.02" x2="124.89" y2="253.85" class="up-wick"/>
<rect x="120.89" y="239.67" width="8.00" height="9.43" class="up-body"/>
<line x1="146.85" y1="180.46" x2="146.85" y2="243.75" class="up-wick"/>
<rect x="142.85" y="186.39" width="8.00" height="51.07" class="up-body"/>
<line x1="168.80" y1="185.20" x2="168.80" y2="219.14" class="down-wick"/>
<rect x="164.80" y="186.39" width="8.00" height="18.97" class="down-body"/>
<line x1="190.76" y1="184.20" x2="190.76" y2="209.52" class="up-wick"/>
<rect x="186.76" y="193.55" width="8.00" height="11.81" class="up-body"/>
<line x1="212.72" y1="175.95" x2="212.72" y2="194.24" class="up-wick"/>
<rect x="208.72" y="178.69" width="8.00" height="14.90" class="up-body"/>
<line x1="234.67" y1="176.70" x2="234.67" y2="198.71" class="down-wick"/>
<rect x="230.67" y="178.66" width="8.00" height="6.46" class="down-body"/>
<line x1="256.63" y1="183.21" x2="256.63" y2="195.39" class="down-wick"/>
<rect x="252.63" y="185.11" width="8.00" height="5.45" class="down-body"/>
<line x1="278.59" y1="189.66" x2="278.59" y2="198.43" class="down-wick"/>
<rect x="274.59" y="190.55" width="8.00" height="2.27" class="down-body"/>
<line x1="300.54" y1="189.76" x2="300.54" y2="204.97" class="down-wick"/>
<rect x="296.54" y="192.82" width="8.00" height="11.47" class="down-body"/>
<line x1="322.50" y1="196.56" x2="322.50" y2="223.34" class="down-wick"/>
<rect x="318.50" y="204.29" width="8.00" height="8.28" class="down-body"/>
<line x1="344.46" y1="207.55" x2="344.46" y2="225.77" class="up-wick"/>
<rect x="340.46" y="209.26" width="8.00" height="3.31" class="up-body"/>
<line x1="366.41" y1="200.31" x2="366.41" y2="210.37" class="up-wick"/>
<rect x="362.41" y="200.87" width="8.00" height="8.42" class="up-body"/>
<line x1="388.37" y1="187.99" x2="388.37" y2="204.94" class="up-wick"/>
<rect x="384.37" y="188.64" width="8.00" height="12.21" class="up-body"/>
<line x1="410.33" y1="188.12" x2="410.33" y2="203.64" class="down-wick"/>
<rect x="406.33" y="188.64" width="8.00" height="12.01" class="down-body"/>
<line x1="432.28" y1="186.28" x2="432.28" y2="204.55" class="up-wick"/>
<rect x="428.28" y="187.53" width="8.00" height="13.12" class="up-body"/>
<line x1="454.24" y1="186.41" x2="454.24" y2="206.16" class="down-wick"/>
<rect x="450.24" y="187.53" width="8.00" height="16.24" class="down-body"/>
<line x1="476.20" y1="154.30" x2="476.20" y2="208.30" class="up-wick"/>
<rect x="472.20" y="161.49" width="8.00" height="42.28" class="up-body"/>
<line x1="498.15" y1="150.15" x2="498.15" y2="172.29" class="up-wick"/>
<rect x="494.15" y="158.19" width="8.00" height="3.30" class="up-body"/>
<line x1="520.11" y1="137.29" x2="520.11" y2="176.73" class="up-wick"/>
<rect x="516.11" y="145.53" width="8.00" height="12.75" class="up-body"/>
<line x1="542.07" y1="142.30" x2="542.07" y2="162.98" class="down-wick"/>
<rect x="538.07" y="145.53" width="8.00" height="1.97" class="down-body"/>
<line x1="564.02" y1="140.21" x2="564.02" y2="153.71" class="up-wick"/>
<rect x="560.02" y="145.97" width="8.00" height="1.52" class="up-body"/>
<line x1="585.98" y1="137.96" x2="585.98" y2="148.67" class="up-wick"/>
<rect x="581.98" y="140.39" width="8.00" height="5.59" class="up-body"/>
<line x1="607.93" y1="120.03" x2="607.93" y2="141.09" class="up-wick"/>
<rect x="603.93" y="121.50" width="8.00" height="18.93" class="up-body"/>
<line x1="629.89" y1="120.22" x2="629.89" y2="130.42" class="down-wick"/>
<rect x="625.89" y="121.52" width="8.00" height="7.62" class="down-body"/>
<line x1="651.85" y1="109.24" x2="651.85" y2="134.33" class="up-wick"/>
<rect x="647.85" y="122.02" width="8.00" height="7.12" class="up-body"/>
<line x1="673.80" y1="119.80" x2="673.80" y2="138.13" class="down-wick"/>
<rect x="669.80" y="122.08" width="8.00" height="10.83" class="down-body"/>
<line x1="695.76" y1="132.71" x2="695.76" y2="204.81" class="down-wick"/>
<rect x="691.76" y="132.92" width="8.00" height="42.47" class="down-body"/>
<line x1="717.72" y1="163.12" x2="717.72" y2="186.17" class="up-wick"/>
<rect x="713.72" y="164.01" width="8.00" height="11.38" class="up-body"/>
<line x1="739.67" y1="162.13" x2="739.67" y2="181.13" class="down-wick"/>
<rect x="735.67" y="164.01" width="8.00" height="16.33" class="down-body"/>
<line x1="761.63" y1="177.49" x2="761.63" y2="190.55" class="down-wick"/>
<rect x="757.63" y="180.34" width="8.00" height="3.43" class="down-body"/>
<line x1="783.59" y1="167.70" x2="783.59" y2="187.64" class="up-wick"/>
<rect x="779.59" y="170.57" width="8.00" height="13.20" class="up-body"/>
<line x1="805.54" y1="168.56" x2="805.54" y2="194.60" class="down-wick"/>
<rect x="801.54" y="170.57" width="8.00" height="8.34" class="down-body"/>
<line x1="827.50" y1="169.32" x2="827.50" y2="187.44" class="up-wick"/>
<rect x="823.50" y="173.58" width="8.00" height="5.30" class="up-body"/>
<line x1="849.46" y1="171.23" x2="849.46" y2="186.71" class="down-wick"/>
<rect x="845.46" y="173.58" width="8.00" height="5.43" class="down-body"/>
<line x1="871.41" y1="172.51" x2="871.41" y2="185.41" class="down-wick"/>
<rect x="867.41" y="179.01" width="8.00" height="1.78" class="down-body"/>
<line x1="893.37" y1="171.69" x2="893.37" y2="188.35" class="up-wick"/>
<rect x="889.37" y="179.56" width="8.00" height="1.23" class="up-body"/>
<line x1="915.33" y1="174.31" x2="915.33" y2="181.29" class="down-wick"/>
<rect x="911.33" y="179.56" width="8.00" height="1.00" class="down-body"/>
<line x1="937.28" y1="178.90" x2="937.28" y2="204.90" class="down-wick"/>
<rect x="933.28" y="179.61" width="8.00" height="20.33" class="down-body"/>
<line x1="959.24" y1="190.08" x2="959.24" y2="236.15" class="down-wick"/>
<rect x="955.24" y="199.96" width="8.00" height="32.49" class="down-body"/>
<line x1="981.20" y1="210.23" x2="981.20" y2="251.55" class="up-wick"/>
<rect x="977.20" y="220.08" width="8.00" height="12.42" class="up-body"/>
<line x1="1003.15" y1="195.56" x2="1003.15" y2="229.69" class="up-wick"/>
<rect x="999.15" y="200.11" width="8.00" height="19.96" class="up-body"/>
<line x1="1025.11" y1="198.32" x2="1025.11" y2="217.69" class="down-wick"/>
<rect x="1021.11" y="200.11" width="8.00" height="7.82" class="down-body"/>
<line x1="1047.07" y1="187.84" x2="1047.07" y2="208.07" class="up-wick"/>
<rect x="1043.07" y="187.84" width="8.00" height="20.09" class="up-body"/>
<line x1="1069.02" y1="181.99" x2="1069.02" y2="197.08" class="down-wick"/>
<rect x="1065.02" y="187.84" width="8.00" height="3.30" class="down-body"/>
<line x1="70" y1="141.34" x2="1080" y2="141.34" class="sweep-line"/>
<text x="1076" y="137.34" text-anchor="end" class="level-label">sweep 5214.66</text>
<line x1="70" y1="140.21" x2="1080" y2="140.21" class="entry-line"/>
<text x="1076" y="136.21" text-anchor="end" class="level-label">entry level 5215.89</text>
<text x="70" y="306" class="axis-label">2026-02-20 21:00:00+00:00 to 2026-02-24 20:00:00+00:00</text>
<text x="1080" y="306" text-anchor="end" class="axis-label">5054.28 - 5264.24</text>
<text x="70" y="332" class="panel-title">M15 liquidity / reaction context</text>
<rect x="70" y="346" width="1010" height="192" class="plot-bg"/>
<line x1="77.32" y1="479.51" x2="77.32" y2="492.87" class="down-wick"/>
<rect x="73.32" y="485.18" width="8.00" height="5.73" class="down-body"/>
<line x1="91.96" y1="484.52" x2="91.96" y2="495.21" class="down-wick"/>
<rect x="87.96" y="490.86" width="8.00" height="3.39" class="down-body"/>
<line x1="106.59" y1="483.27" x2="106.59" y2="504.25" class="up-wick"/>
<rect x="102.59" y="492.74" width="8.00" height="1.51" class="up-body"/>
<line x1="121.23" y1="489.64" x2="121.23" y2="521.04" class="down-wick"/>
<rect x="117.23" y="492.74" width="8.00" height="13.59" class="down-body"/>
<line x1="135.87" y1="505.31" x2="135.87" y2="521.30" class="up-wick"/>
<rect x="131.87" y="505.98" width="8.00" height="1.00" class="up-body"/>
<line x1="150.51" y1="502.64" x2="150.51" y2="508.46" class="down-wick"/>
<rect x="146.51" y="505.98" width="8.00" height="1.00" class="down-body"/>
<line x1="165.14" y1="502.22" x2="165.14" y2="513.28" class="up-wick"/>
<rect x="161.14" y="503.98" width="8.00" height="2.03" class="up-body"/>
<line x1="179.78" y1="502.20" x2="179.78" y2="524.69" class="down-wick"/>
<rect x="175.78" y="503.98" width="8.00" height="16.74" class="down-body"/>
<line x1="194.42" y1="511.61" x2="194.42" y2="524.76" class="up-wick"/>
<rect x="190.42" y="517.25" width="8.00" height="3.51" class="up-body"/>
<line x1="209.06" y1="498.87" x2="209.06" y2="517.73" class="up-wick"/>
<rect x="205.06" y="501.30" width="8.00" height="15.95" class="up-body"/>
<line x1="223.70" y1="492.78" x2="223.70" y2="502.89" class="up-wick"/>
<rect x="219.70" y="494.05" width="8.00" height="7.30" class="up-body"/>
<line x1="238.33" y1="489.31" x2="238.33" y2="495.43" class="up-wick"/>
<rect x="234.33" y="489.83" width="8.00" height="4.21" class="up-body"/>
<line x1="252.97" y1="488.60" x2="252.97" y2="497.48" class="down-wick"/>
<rect x="248.97" y="489.83" width="8.00" height="3.08" class="down-body"/>
<line x1="267.61" y1="489.05" x2="267.61" y2="496.13" class="up-wick"/>
<rect x="263.61" y="489.39" width="8.00" height="3.52" class="up-body"/>
<line x1="282.25" y1="484.67" x2="282.25" y2="493.40" class="up-wick"/>
<rect x="278.25" y="489.29" width="8.00" height="1.00" class="up-body"/>
<line x1="296.88" y1="480.19" x2="296.88" y2="489.62" class="up-wick"/>
<rect x="292.88" y="480.82" width="8.00" height="8.47" class="up-body"/>
<line x1="311.52" y1="478.80" x2="311.52" y2="495.17" class="down-wick"/>
<rect x="307.52" y="480.99" width="8.00" height="4.64" class="down-body"/>
<line x1="326.16" y1="471.09" x2="326.16" y2="486.10" class="up-wick"/>
<rect x="322.16" y="472.02" width="8.00" height="13.60" class="up-body"/>
<line x1="340.80" y1="471.28" x2="340.80" y2="484.91" class="down-wick"/>
<rect x="336.80" y="472.02" width="8.00" height="12.40" class="down-body"/>
<line x1="355.43" y1="482.95" x2="355.43" y2="493.33" class="down-wick"/>
<rect x="351.43" y="484.36" width="8.00" height="3.55" class="down-body"/>
<line x1="370.07" y1="483.88" x2="370.07" y2="491.56" class="up-wick"/>
<rect x="366.07" y="487.36" width="8.00" height="1.00" class="up-body"/>
<line x1="384.71" y1="482.78" x2="384.71" y2="489.48" class="down-wick"/>
<rect x="380.71" y="487.35" width="8.00" height="1.73" class="down-body"/>
<line x1="399.35" y1="482.75" x2="399.35" y2="492.66" class="down-wick"/>
<rect x="395.35" y="489.08" width="8.00" height="1.00" class="down-body"/>
<line x1="413.99" y1="485.68" x2="413.99" y2="494.61" class="up-wick"/>
<rect x="409.99" y="488.62" width="8.00" height="1.00" class="up-body"/>
<line x1="428.62" y1="469.79" x2="428.62" y2="489.08" class="up-wick"/>
<rect x="424.62" y="470.00" width="8.00" height="18.63" class="up-body"/>
<line x1="443.26" y1="468.66" x2="443.26" y2="476.26" class="down-wick"/>
<rect x="439.26" y="470.00" width="8.00" height="1.00" class="down-body"/>
<line x1="457.90" y1="468.85" x2="457.90" y2="484.62" class="down-wick"/>
<rect x="453.90" y="470.44" width="8.00" height="11.85" class="down-body"/>
<line x1="472.54" y1="480.08" x2="472.54" y2="496.90" class="down-wick"/>
<rect x="468.54" y="482.25" width="8.00" height="6.78" class="down-body"/>
<line x1="487.17" y1="483.51" x2="487.17" y2="492.25" class="up-wick"/>
<rect x="483.17" y="485.03" width="8.00" height="4.00" class="up-body"/>
<line x1="501.81" y1="484.43" x2="501.81" y2="494.56" class="down-wick"/>
<rect x="497.81" y="485.06" width="8.00" height="8.44" class="down-body"/>
<line x1="516.45" y1="479.48" x2="516.45" y2="499.95" class="up-wick"/>
<rect x="512.45" y="479.69" width="8.00" height="13.82" class="up-body"/>
<line x1="531.09" y1="468.65" x2="531.09" y2="480.97" class="up-wick"/>
<rect x="527.09" y="468.79" width="8.00" height="10.90" class="up-body"/>
<line x1="545.72" y1="435.53" x2="545.72" y2="469.52" class="up-wick"/>
<rect x="541.72" y="435.73" width="8.00" height="33.06" class="up-body"/>
<line x1="560.36" y1="423.24" x2="560.36" y2="440.16" class="up-wick"/>
<rect x="556.36" y="433.46" width="8.00" height="2.27" class="up-body"/>
<line x1="575.00" y1="424.85" x2="575.00" y2="448.80" class="up-wick"/>
<rect x="571.00" y="425.06" width="8.00" height="8.40" class="up-body"/>
<line x1="589.64" y1="419.02" x2="589.64" y2="434.91" class="down-wick"/>
<rect x="585.64" y="425.06" width="8.00" height="1.74" class="down-body"/>
<line x1="604.28" y1="420.00" x2="604.28" y2="441.56" class="up-wick"/>
<rect x="600.28" y="422.20" width="8.00" height="4.64" class="up-body"/>
<line x1="618.91" y1="417.34" x2="618.91" y2="436.15" class="down-wick"/>
<rect x="614.91" y="422.20" width="8.00" height="6.57" class="down-body"/>
<line x1="633.55" y1="417.99" x2="633.55" y2="455.10" class="up-wick"/>
<rect x="629.55" y="420.54" width="8.00" height="8.35" class="up-body"/>
<line x1="648.19" y1="399.08" x2="648.19" y2="421.96" class="up-wick"/>
<rect x="644.19" y="404.98" width="8.00" height="15.51" class="up-body"/>
<line x1="662.83" y1="403.43" x2="662.83" y2="415.20" class="down-wick"/>
<rect x="658.83" y="404.86" width="8.00" height="6.35" class="down-body"/>
<line x1="677.46" y1="400.61" x2="677.46" y2="415.38" class="up-wick"/>
<rect x="673.46" y="410.78" width="8.00" height="1.00" class="up-body"/>
<line x1="692.10" y1="406.20" x2="692.10" y2="424.30" class="down-wick"/>
<rect x="688.10" y="410.78" width="8.00" height="8.17" class="down-body"/>
<line x1="706.74" y1="407.50" x2="706.74" y2="420.42" class="up-wick"/>
<rect x="702.74" y="410.53" width="8.00" height="8.40" class="up-body"/>
<line x1="721.38" y1="409.37" x2="721.38" y2="435.56" class="down-wick"/>
<rect x="717.38" y="410.53" width="8.00" height="13.73" class="down-body"/>
<line x1="736.01" y1="413.33" x2="736.01" y2="428.32" class="up-wick"/>
<rect x="732.01" y="413.57" width="8.00" height="10.69" class="up-body"/>
<line x1="750.65" y1="403.23" x2="750.65" y2="414.57" class="up-wick"/>
<rect x="746.65" y="407.51" width="8.00" height="6.05" class="up-body"/>
<line x1="765.29" y1="406.55" x2="765.29" y2="422.41" class="down-wick"/>
<rect x="761.29" y="407.51" width="8.00" height="8.34" class="down-body"/>
<line x1="779.93" y1="406.40" x2="779.93" y2="416.64" class="up-wick"/>
<rect x="775.93" y="415.04" width="8.00" height="1.00" class="up-body"/>
<line x1="794.57" y1="408.08" x2="794.57" y2="416.13" class="up-wick"/>
<rect x="790.57" y="411.40" width="8.00" height="3.60" class="up-body"/>
<line x1="809.20" y1="408.05" x2="809.20" y2="415.25" class="up-wick"/>
<rect x="805.20" y="409.07" width="8.00" height="2.35" class="up-body"/>
<line x1="823.84" y1="404.33" x2="823.84" y2="414.65" class="down-wick"/>
<rect x="819.84" y="409.09" width="8.00" height="2.55" class="down-body"/>
<line x1="838.48" y1="401.04" x2="838.48" y2="413.31" class="up-wick"/>
<rect x="834.48" y="401.74" width="8.00" height="9.90" class="up-body"/>
<line x1="853.12" y1="400.03" x2="853.12" y2="405.18" class="down-wick"/>
<rect x="849.12" y="401.74" width="8.00" height="1.74" class="down-body"/>
<line x1="867.75" y1="392.26" x2="867.75" y2="404.48" class="up-wick"/>
<rect x="863.75" y="393.67" width="8.00" height="9.86" class="up-body"/>
<line x1="882.39" y1="389.84" x2="882.39" y2="395.25" class="up-wick"/>
<rect x="878.39" y="391.14" width="8.00" height="2.53" class="up-body"/>
<line x1="897.03" y1="384.95" x2="897.03" y2="391.97" class="up-wick"/>
<rect x="893.03" y="387.70" width="8.00" height="3.44" class="up-body"/>
<line x1="911.67" y1="374.57" x2="911.67" y2="391.77" class="up-wick"/>
<rect x="907.67" y="376.65" width="8.00" height="11.08" class="up-body"/>
<line x1="926.30" y1="374.84" x2="926.30" y2="385.21" class="down-wick"/>
<rect x="922.30" y="376.69" width="8.00" height="6.55" class="down-body"/>
<line x1="940.94" y1="382.06" x2="940.94" y2="386.27" class="down-wick"/>
<rect x="936.94" y="383.23" width="8.00" height="1.77" class="down-body"/>
<line x1="955.58" y1="381.30" x2="955.58" y2="389.32" class="down-wick"/>
<rect x="951.58" y="385.08" width="8.00" height="1.68" class="down-body"/>
<line x1="970.22" y1="382.99" x2="970.22" y2="389.30" class="down-wick"/>
<rect x="966.22" y="386.79" width="8.00" height="1.00" class="down-body"/>
<line x1="984.86" y1="359.55" x2="984.86" y2="394.88" class="up-wick"/>
<rect x="980.86" y="366.05" width="8.00" height="21.46" class="up-body"/>
<line x1="999.49" y1="359.24" x2="999.49" y2="379.28" class="down-wick"/>
<rect x="995.49" y="366.05" width="8.00" height="10.44" class="down-body"/>
<line x1="1014.13" y1="362.70" x2="1014.13" y2="376.44" class="up-wick"/>
<rect x="1010.13" y="368.62" width="8.00" height="7.82" class="up-body"/>
<line x1="1028.77" y1="367.98" x2="1028.77" y2="378.87" class="down-wick"/>
<rect x="1024.77" y="368.62" width="8.00" height="8.77" class="down-body"/>
<line x1="1043.41" y1="377.33" x2="1043.41" y2="400.27" class="down-wick"/>
<rect x="1039.41" y="377.48" width="8.00" height="7.46" class="down-body"/>
<line x1="1058.04" y1="374.24" x2="1058.04" y2="391.70" class="down-wick"/>
<rect x="1054.04" y="384.93" width="8.00" height="4.09" class="down-body"/>
<line x1="1072.68" y1="381.48" x2="1072.68" y2="391.82" class="up-wick"/>
<rect x="1068.68" y="384.40" width="8.00" height="4.62" class="up-body"/>
<line x1="70" y1="404.83" x2="1080" y2="404.83" class="sweep-line"/>
<text x="1076" y="400.83" text-anchor="end" class="level-label">sweep 5214.66</text>
<line x1="70" y1="403.23" x2="1080" y2="403.23" class="entry-line"/>
<text x="1076" y="399.23" text-anchor="end" class="level-label">entry level 5215.89</text>
<text x="70" y="556" class="axis-label">2026-02-23 08:30:00+00:00 to 2026-02-24 02:30:00+00:00</text>
<text x="1080" y="556" text-anchor="end" class="axis-label">5112.14 - 5259.95</text>
<text x="70" y="582" class="panel-title">M5 reaction / execution context</text>
<rect x="70" y="596" width="1010" height="192" class="plot-bg"/>
<line x1="79.18" y1="698.56" x2="79.18" y2="713.15" class="up-wick"/>
<rect x="75.18" y="700.18" width="8.00" height="7.33" class="up-body"/>
<line x1="97.55" y1="695.07" x2="97.55" y2="717.62" class="down-wick"/>
<rect x="93.55" y="700.60" width="8.00" height="10.50" class="down-body"/>
<line x1="115.91" y1="707.58" x2="115.91" y2="744.20" class="down-wick"/>
<rect x="111.91" y="711.21" width="8.00" height="18.47" class="down-body"/>
<line x1="134.27" y1="705.22" x2="134.27" y2="733.66" class="up-wick"/>
<rect x="130.27" y="717.62" width="8.00" height="12.02" class="up-body"/>
<line x1="152.64" y1="708.42" x2="152.64" y2="728.16" class="up-wick"/>
<rect x="148.64" y="709.55" width="8.00" height="8.18" class="up-body"/>
<line x1="171.00" y1="698.59" x2="171.00" y2="710.68" class="up-wick"/>
<rect x="167.00" y="706.84" width="8.00" height="2.71" class="up-body"/>
<line x1="189.36" y1="703.67" x2="189.36" y2="717.55" class="down-wick"/>
<rect x="185.36" y="706.84" width="8.00" height="7.93" class="down-body"/>
<line x1="207.73" y1="714.77" x2="207.73" y2="774.76" class="down-wick"/>
<rect x="203.73" y="714.77" width="8.00" height="40.46" class="down-body"/>
<line x1="226.09" y1="727.60" x2="226.09" y2="757.38" class="up-wick"/>
<rect x="222.09" y="744.09" width="8.00" height="11.14" class="up-body"/>
<line x1="244.45" y1="735.21" x2="244.45" y2="755.09" class="down-wick"/>
<rect x="240.45" y="744.09" width="8.00" height="1.00" class="down-body"/>
<line x1="262.82" y1="716.04" x2="262.82" y2="745.93" class="up-wick"/>
<rect x="258.82" y="724.64" width="8.00" height="19.67" class="up-body"/>
<line x1="281.18" y1="714.42" x2="281.18" y2="728.09" class="up-wick"/>
<rect x="277.18" y="715.09" width="8.00" height="9.55" class="up-body"/>
<line x1="299.55" y1="706.35" x2="299.55" y2="717.80" class="up-wick"/>
<rect x="295.55" y="707.58" width="8.00" height="7.47" class="up-body"/>
<line x1="317.91" y1="691.37" x2="317.91" y2="708.28" class="up-wick"/>
<rect x="313.91" y="692.67" width="8.00" height="14.91" class="up-body"/>
<line x1="336.27" y1="687.03" x2="336.27" y2="698.70" class="down-wick"/>
<rect x="332.27" y="692.60" width="8.00" height="6.03" class="down-body"/>
<line x1="354.64" y1="697.43" x2="354.64" y2="717.55" class="down-wick"/>
<rect x="350.64" y="698.63" width="8.00" height="16.46" class="down-body"/>
<line x1="373.00" y1="696.02" x2="373.00" y2="721.85" class="down-wick"/>
<rect x="369.00" y="715.05" width="8.00" height="5.39" class="down-body"/>
<line x1="391.36" y1="713.92" x2="391.36" y2="739.05" class="down-wick"/>
<rect x="387.36" y="720.44" width="8.00" height="1.00" class="down-body"/>
<line x1="409.73" y1="705.64" x2="409.73" y2="722.63" class="up-wick"/>
<rect x="405.73" y="713.85" width="8.00" height="7.40" class="up-body"/>
<line x1="428.09" y1="695.63" x2="428.09" y2="717.48" class="up-wick"/>
<rect x="424.09" y="711.21" width="8.00" height="2.85" class="up-body"/>
<line x1="446.45" y1="706.56" x2="446.45" y2="723.40" class="down-wick"/>
<rect x="442.45" y="711.21" width="8.00" height="7.86" class="down-body"/>
<line x1="464.82" y1="707.05" x2="464.82" y2="722.03" class="up-wick"/>
<rect x="460.82" y="710.86" width="8.00" height="8.11" class="up-body"/>
<line x1="483.18" y1="700.18" x2="483.18" y2="712.23" class="up-wick"/>
<rect x="479.18" y="705.75" width="8.00" height="5.15" class="up-body"/>
<line x1="501.55" y1="702.64" x2="501.55" y2="713.15" class="down-wick"/>
<rect x="497.55" y="705.75" width="8.00" height="3.45" class="down-body"/>
<line x1="519.91" y1="706.31" x2="519.91" y2="719.32" class="down-wick"/>
<rect x="515.91" y="709.24" width="8.00" height="1.06" class="down-body"/>
<line x1="538.27" y1="706.52" x2="538.27" y2="719.63" class="up-wick"/>
<rect x="534.27" y="709.87" width="8.00" height="1.00" class="up-body"/>
<line x1="556.64" y1="700.11" x2="556.64" y2="712.97" class="up-wick"/>
<rect x="552.64" y="702.86" width="8.00" height="6.70" class="up-body"/>
<line x1="575.00" y1="691.22" x2="575.00" y2="703.77" class="up-wick"/>
<rect x="571.00" y="698.80" width="8.00" height="4.12" class="up-body"/>
<line x1="593.36" y1="689.99" x2="593.36" y2="704.41" class="down-wick"/>
<rect x="589.36" y="698.80" width="8.00" height="3.17" class="down-body"/>
<line x1="611.73" y1="696.34" x2="611.73" y2="718.01" class="down-wick"/>
<rect x="607.73" y="702.08" width="8.00" height="7.75" class="down-body"/>
<line x1="630.09" y1="699.26" x2="630.09" y2="714.38" class="up-wick"/>
<rect x="626.09" y="699.30" width="8.00" height="10.54" class="up-body"/>
<line x1="648.45" y1="688.79" x2="648.45" y2="708.18" class="up-wick"/>
<rect x="644.45" y="689.15" width="8.00" height="10.22" class="up-body"/>
<line x1="666.82" y1="681.07" x2="666.82" y2="703.28" class="up-wick"/>
<rect x="662.82" y="682.98" width="8.00" height="6.17" class="up-body"/>
<line x1="685.18" y1="678.32" x2="685.18" y2="689.46" class="up-wick"/>
<rect x="681.18" y="681.85" width="8.00" height="1.13" class="up-body"/>
<line x1="703.55" y1="679.06" x2="703.55" y2="692.32" class="down-wick"/>
<rect x="699.55" y="681.74" width="8.00" height="3.45" class="down-body"/>
<line x1="721.91" y1="684.49" x2="721.91" y2="691.22" class="down-wick"/>
<rect x="717.91" y="685.30" width="8.00" height="2.40" class="down-body"/>
<line x1="740.27" y1="662.46" x2="740.27" y2="690.41" class="up-wick"/>
<rect x="736.27" y="663.59" width="8.00" height="24.25" class="up-body"/>
<line x1="758.64" y1="661.62" x2="758.64" y2="676.81" class="up-wick"/>
<rect x="754.64" y="662.15" width="8.00" height="1.45" class="up-body"/>
<line x1="777.00" y1="657.25" x2="777.00" y2="667.93" class="up-wick"/>
<rect x="773.00" y="661.09" width="8.00" height="1.09" class="up-body"/>
<line x1="795.36" y1="656.68" x2="795.36" y2="665.35" class="up-wick"/>
<rect x="791.36" y="658.59" width="8.00" height="2.50" class="up-body"/>
<line x1="813.73" y1="652.45" x2="813.73" y2="659.78" class="up-wick"/>
<rect x="809.73" y="656.40" width="8.00" height="2.08" class="up-body"/>
<line x1="832.09" y1="650.69" x2="832.09" y2="659.36" class="up-wick"/>
<rect x="828.09" y="654.22" width="8.00" height="2.19" class="up-body"/>
<line x1="850.45" y1="640.36" x2="850.45" y2="656.47" class="up-wick"/>
<rect x="846.45" y="644.88" width="8.00" height="9.34" class="up-body"/>
<line x1="868.82" y1="637.40" x2="868.82" y2="646.81" class="up-wick"/>
<rect x="864.82" y="640.12" width="8.00" height="4.76" class="up-body"/>
<line x1="887.18" y1="639.24" x2="887.18" y2="645.69" class="down-wick"/>
<rect x="883.18" y="639.76" width="8.00" height="5.11" class="down-body"/>
<line x1="905.55" y1="640.05" x2="905.55" y2="655.91" class="up-wick"/>
<rect x="901.55" y="642.09" width="8.00" height="2.85" class="up-body"/>
<line x1="923.91" y1="616.15" x2="923.91" y2="642.09" class="up-wick"/>
<rect x="919.91" y="622.64" width="8.00" height="19.46" class="up-body"/>
<line x1="942.27" y1="609.24" x2="942.27" y2="634.34" class="up-wick"/>
<rect x="938.27" y="614.88" width="8.00" height="7.75" class="up-body"/>
<line x1="960.64" y1="609.98" x2="960.64" y2="623.02" class="down-wick"/>
<rect x="956.64" y="614.99" width="8.00" height="6.24" class="down-body"/>
<line x1="979.00" y1="616.29" x2="979.00" y2="628.42" class="up-wick"/>
<rect x="975.00" y="620.38" width="8.00" height="1.00" class="up-body"/>
<line x1="997.36" y1="619.18" x2="997.36" y2="638.11" class="down-wick"/>
<rect x="993.36" y="620.38" width="8.00" height="12.37" class="down-body"/>
<line x1="1015.73" y1="631.94" x2="1015.73" y2="641.00" class="down-wick"/>
<rect x="1011.73" y="632.75" width="8.00" height="1.00" class="down-body"/>
<line x1="1034.09" y1="629.58" x2="1034.09" y2="637.05" class="down-wick"/>
<rect x="1030.09" y="632.89" width="8.00" height="3.84" class="down-body"/>
<line x1="1052.45" y1="632.08" x2="1052.45" y2="639.94" class="down-wick"/>
<rect x="1048.45" y="636.73" width="8.00" height="1.00" class="down-body"/>
<line x1="1070.82" y1="632.05" x2="1070.82" y2="649.28" class="up-wick"/>
<rect x="1066.82" y="632.05" width="8.00" height="5.71" class="up-body"/>
<line x1="70" y1="691.37" x2="1080" y2="691.37" class="sweep-line"/>
<text x="1076" y="687.37" text-anchor="end" class="level-label">sweep 5214.66</text>
<line x1="70" y1="687.03" x2="1080" y2="687.03" class="entry-line"/>
<text x="1076" y="683.03" text-anchor="end" class="level-label">entry level 5215.89</text>
<text x="70" y="806" class="axis-label">2026-02-23 19:00:00+00:00 to 2026-02-23 23:30:00+00:00</text>
<text x="1080" y="806" text-anchor="end" class="axis-label">5187.24 - 5241.72</text>
<text x="70" y="832" class="panel-title">M1 execution window</text>
<rect x="70" y="846" width="1010" height="192" class="plot-bg"/>
<line x1="73.71" y1="952.39" x2="73.71" y2="961.53" class="down-wick"/>
<rect x="71.30" y="957.21" width="4.83" height="1.00" class="down-body"/>
<line x1="81.14" y1="952.04" x2="81.14" y2="959.12" class="up-wick"/>
<rect x="78.73" y="954.59" width="4.83" height="1.00" class="up-body"/>
<line x1="88.57" y1="948.25" x2="88.57" y2="962.87" class="up-wick"/>
<rect x="86.15" y="949.84" width="4.83" height="7.65" class="up-body"/>
<line x1="95.99" y1="946.76" x2="95.99" y2="967.37" class="up-wick"/>
<rect x="93.58" y="949.35" width="4.83" height="9.98" class="up-body"/>
<line x1="103.42" y1="944.71" x2="103.42" y2="954.16" class="down-wick"/>
<rect x="101.01" y="951.40" width="4.83" height="1.00" class="down-body"/>
<line x1="110.85" y1="957.28" x2="110.85" y2="969.85" class="down-wick"/>
<rect x="108.43" y="960.92" width="4.83" height="8.00" class="down-body"/>
<line x1="118.27" y1="970.06" x2="118.27" y2="987.76" class="down-wick"/>
<rect x="115.86" y="976.64" width="4.83" height="8.99" class="down-body"/>
<line x1="125.70" y1="977.81" x2="125.70" y2="994.06" class="up-wick"/>
<rect x="123.28" y="979.48" width="4.83" height="4.82" class="up-body"/>
<line x1="133.12" y1="955.33" x2="133.12" y2="968.75" class="up-wick"/>
<rect x="130.71" y="955.58" width="4.83" height="13.14" class="up-body"/>
<line x1="140.55" y1="958.59" x2="140.55" y2="968.50" class="down-wick"/>
<rect x="138.14" y="959.12" width="4.83" height="8.89" class="down-body"/>
<line x1="147.98" y1="962.66" x2="147.98" y2="972.54" class="down-wick"/>
<rect x="145.56" y="967.47" width="4.83" height="2.23" class="down-body"/>
<line x1="155.40" y1="966.31" x2="155.40" y2="977.95" class="down-wick"/>
<rect x="152.99" y="967.79" width="4.83" height="7.93" class="down-body"/>
<line x1="162.83" y1="958.13" x2="162.83" y2="970.98" class="up-wick"/>
<rect x="160.42" y="959.26" width="4.83" height="11.05" class="up-body"/>
<line x1="170.26" y1="949.95" x2="170.26" y2="956.25" class="down-wick"/>
<rect x="167.84" y="951.58" width="4.83" height="1.98" class="down-body"/>
<line x1="177.68" y1="951.47" x2="177.68" y2="957.56" class="up-wick"/>
<rect x="175.27" y="952.21" width="4.83" height="1.38" class="up-body"/>
<line x1="185.11" y1="953.35" x2="185.11" y2="959.47" class="down-wick"/>
<rect x="182.70" y="956.53" width="4.83" height="1.00" class="down-body"/>
<line x1="192.54" y1="954.34" x2="192.54" y2="961.35" class="down-wick"/>
<rect x="190.12" y="955.54" width="4.83" height="4.82" class="down-body"/>
<line x1="199.96" y1="961.88" x2="199.96" y2="967.30" class="down-wick"/>
<rect x="197.55" y="964.11" width="4.83" height="1.00" class="down-body"/>
<line x1="207.39" y1="982.84" x2="207.39" y2="1014.39" class="down-wick"/>
<rect x="204.98" y="986.88" width="4.83" height="14.52" class="down-body"/>
<line x1="214.82" y1="1007.94" x2="214.82" y2="1024.76" class="down-wick"/>
<rect x="212.40" y="1010.42" width="4.83" height="6.48" class="down-body"/>
<line x1="222.24" y1="989.00" x2="222.24" y2="1007.30" class="up-wick"/>
<rect x="219.83" y="990.77" width="4.83" height="14.37" class="up-body"/>
<line x1="229.67" y1="984.26" x2="229.67" y2="1001.14" class="up-wick"/>
<rect x="227.26" y="987.26" width="4.83" height="11.15" class="up-body"/>
<line x1="237.10" y1="978.17" x2="237.10" y2="996.65" class="down-wick"/>
<rect x="234.68" y="981.88" width="4.83" height="12.07" class="down-body"/>
<line x1="244.52" y1="985.03" x2="244.52" y2="1002.95" class="down-wick"/>
<rect x="242.11" y="988.54" width="4.83" height="5.88" class="down-body"/>
<line x1="251.95" y1="991.23" x2="251.95" y2="997.67" class="up-wick"/>
<rect x="249.53" y="994.38" width="4.83" height="2.55" class="up-body"/>
<line x1="259.38" y1="978.84" x2="259.38" y2="995.80" class="up-wick"/>
<rect x="256.96" y="980.15" width="4.83" height="14.02" class="up-body"/>
<line x1="266.80" y1="967.30" x2="266.80" y2="978.38" class="up-wick"/>
<rect x="264.39" y="967.79" width="4.83" height="10.59" class="up-body"/>
<line x1="274.23" y1="973.95" x2="274.23" y2="979.79" class="up-wick"/>
<rect x="271.81" y="974.41" width="4.83" height="3.26" class="up-body"/>
<line x1="281.65" y1="967.54" x2="281.65" y2="977.88" class="down-wick"/>
<rect x="279.24" y="967.97" width="4.83" height="4.18" class="down-body"/>
<line x1="289.08" y1="964.89" x2="289.08" y2="969.56" class="up-wick"/>
<rect x="286.67" y="966.94" width="4.83" height="1.56" class="up-body"/>
<line x1="296.51" y1="957.81" x2="296.51" y2="966.87" class="up-wick"/>
<rect x="294.09" y="957.88" width="4.83" height="6.90" class="up-body"/>
<line x1="303.93" y1="960.89" x2="303.93" y2="966.80" class="up-wick"/>
<rect x="301.52" y="961.70" width="4.83" height="2.66" class="up-body"/>
<line x1="311.36" y1="957.28" x2="311.36" y2="962.91" class="up-wick"/>
<rect x="308.95" y="957.28" width="4.83" height="1.00" class="up-body"/>
<line x1="318.79" y1="947.65" x2="318.79" y2="954.37" class="up-wick"/>
<rect x="316.37" y="949.59" width="4.83" height="2.83" class="up-body"/>
<line x1="326.21" y1="943.08" x2="326.21" y2="951.19" class="up-wick"/>
<rect x="323.80" y="943.33" width="4.83" height="5.52" class="up-body"/>
<line x1="333.64" y1="936.64" x2="333.64" y2="944.67" class="up-wick"/>
<rect x="331.23" y="941.98" width="4.83" height="1.00" class="up-body"/>
<line x1="341.07" y1="937.63" x2="341.07" y2="945.88" class="down-wick"/>
<rect x="338.65" y="938.41" width="4.83" height="7.47" class="down-body"/>
<line x1="348.49" y1="941.95" x2="348.49" y2="948.36" class="down-wick"/>
<rect x="346.08" y="942.02" width="4.83" height="6.27" class="down-body"/>
<line x1="355.92" y1="953.60" x2="355.92" y2="962.98" class="down-wick"/>
<rect x="353.51" y="953.88" width="4.83" height="5.74" class="down-body"/>
<line x1="363.35" y1="955.72" x2="363.35" y2="967.30" class="up-wick"/>
<rect x="360.93" y="958.09" width="4.83" height="5.70" class="up-body"/>
<line x1="370.77" y1="950.87" x2="370.77" y2="964.78" class="up-wick"/>
<rect x="368.36" y="952.71" width="4.83" height="12.07" class="up-body"/>
<line x1="378.20" y1="945.66" x2="378.20" y2="958.94" class="down-wick"/>
<rect x="375.78" y="951.68" width="4.83" height="6.90" class="down-body"/>
<line x1="385.62" y1="957.88" x2="385.62" y2="971.62" class="down-wick"/>
<rect x="383.21" y="964.43" width="4.83" height="5.77" class="down-body"/>
<line x1="393.05" y1="976.57" x2="393.05" y2="988.89" class="down-wick"/>
<rect x="390.64" y="976.82" width="4.83" height="4.96" class="down-body"/>
<line x1="400.48" y1="970.34" x2="400.48" y2="985.71" class="up-wick"/>
<rect x="398.06" y="973.74" width="4.83" height="11.83" class="up-body"/>
<line x1="407.90" y1="958.59" x2="407.90" y2="972.39" class="up-wick"/>
<rect x="405.49" y="959.12" width="4.83" height="11.90" class="up-body"/>
<line x1="415.33" y1="955.33" x2="415.33" y2="965.67" class="up-wick"/>
<rect x="412.92" y="956.14" width="4.83" height="8.00" class="up-body"/>
<line x1="422.76" y1="960.18" x2="422.76" y2="968.39" class="up-wick"/>
<rect x="420.34" y="963.58" width="4.83" height="4.39" class="up-body"/>
<line x1="430.18" y1="956.96" x2="430.18" y2="962.69" class="up-wick"/>
<rect x="427.77" y="957.35" width="4.83" height="5.31" class="up-body"/>
<line x1="437.61" y1="946.16" x2="437.61" y2="966.02" class="down-wick"/>
<rect x="435.20" y="946.37" width="4.83" height="15.33" class="down-body"/>
<line x1="445.04" y1="958.13" x2="445.04" y2="960.92" class="up-wick"/>
<rect x="442.62" y="960.39" width="4.83" height="1.00" class="up-body"/>
<line x1="452.46" y1="959.86" x2="452.46" y2="966.20" class="down-wick"/>
<rect x="450.05" y="960.25" width="4.83" height="3.68" class="down-body"/>
<line x1="459.89" y1="965.53" x2="459.89" y2="972.43" class="down-wick"/>
<rect x="457.48" y="968.18" width="4.83" height="1.00" class="down-body"/>
<line x1="467.32" y1="959.40" x2="467.32" y2="968.32" class="up-wick"/>
<rect x="464.90" y="959.51" width="4.83" height="8.82" class="up-body"/>
<line x1="474.74" y1="959.01" x2="474.74" y2="962.38" class="down-wick"/>
<rect x="472.33" y="959.65" width="4.83" height="1.00" class="down-body"/>
<line x1="482.17" y1="957.24" x2="482.17" y2="961.95" class="up-wick"/>
<rect x="479.76" y="960.07" width="4.83" height="1.00" class="up-body"/>
<line x1="489.60" y1="958.09" x2="489.60" y2="961.92" class="up-wick"/>
<rect x="487.18" y="958.52" width="4.83" height="1.00" class="up-body"/>
<line x1="497.02" y1="950.09" x2="497.02" y2="956.50" class="down-wick"/>
<rect x="494.61" y="952.11" width="4.83" height="3.33" class="down-body"/>
<line x1="504.45" y1="952.32" x2="504.45" y2="956.57" class="down-wick"/>
<rect x="502.03" y="955.19" width="4.83" height="1.00" class="down-body"/>
<line x1="511.88" y1="953.31" x2="511.88" y2="962.48" class="down-wick"/>
<rect x="509.46" y="953.84" width="4.83" height="5.17" class="down-body"/>
<line x1="519.30" y1="958.52" x2="519.30" y2="969.07" class="down-wick"/>
<rect x="516.89" y="958.94" width="4.83" height="7.33" class="down-body"/>
<line x1="526.73" y1="958.80" x2="526.73" y2="965.70" class="down-wick"/>
<rect x="524.31" y="959.97" width="4.83" height="1.20" class="down-body"/>
<line x1="534.15" y1="957.67" x2="534.15" y2="960.89" class="up-wick"/>
<rect x="531.74" y="960.00" width="4.83" height="1.00" class="up-body"/>
<line x1="541.58" y1="961.70" x2="541.58" y2="969.31" class="down-wick"/>
<rect x="539.17" y="961.70" width="4.83" height="5.10" class="down-body"/>
<line x1="549.01" y1="960.00" x2="549.01" y2="965.14" class="up-wick"/>
<rect x="546.59" y="960.57" width="4.83" height="3.04" class="up-body"/>
<line x1="556.43" y1="957.99" x2="556.43" y2="962.69" class="up-wick"/>
<rect x="554.02" y="958.06" width="4.83" height="1.20" class="up-body"/>
<line x1="563.86" y1="956.14" x2="563.86" y2="959.19" class="down-wick"/>
<rect x="561.45" y="956.99" width="4.83" height="1.00" class="down-body"/>
<line x1="571.29" y1="949.77" x2="571.29" y2="954.20" class="up-wick"/>
<rect x="568.87" y="952.53" width="4.83" height="1.00" class="up-body"/>
<line x1="578.71" y1="940.85" x2="578.71" y2="947.12" class="down-wick"/>
<rect x="576.30" y="944.74" width="4.83" height="1.00" class="down-body"/>
<line x1="586.14" y1="947.61" x2="586.14" y2="951.54" class="up-wick"/>
<rect x="583.73" y="948.18" width="4.83" height="1.00" class="up-body"/>
<line x1="593.57" y1="939.61" x2="593.57" y2="949.20" class="up-wick"/>
<rect x="591.15" y="941.63" width="4.83" height="6.83" class="up-body"/>
<line x1="600.99" y1="945.56" x2="600.99" y2="952.75" class="up-wick"/>
<rect x="598.58" y="946.30" width="4.83" height="2.34" class="up-body"/>
<line x1="608.42" y1="945.49" x2="608.42" y2="954.09" class="down-wick"/>
<rect x="606.01" y="945.95" width="4.83" height="5.70" class="down-body"/>
<line x1="615.85" y1="951.40" x2="615.85" y2="954.98" class="down-wick"/>
<rect x="613.43" y="952.25" width="4.83" height="1.66" class="down-body"/>
<line x1="623.27" y1="952.78" x2="623.27" y2="957.21" class="up-wick"/>
<rect x="620.86" y="953.95" width="4.83" height="1.00" class="up-body"/>
<line x1="630.70" y1="955.40" x2="630.70" y2="964.11" class="up-wick"/>
<rect x="628.28" y="959.19" width="4.83" height="1.00" class="up-body"/>
<line x1="638.12" y1="954.02" x2="638.12" y2="959.30" class="up-wick"/>
<rect x="635.71" y="956.71" width="4.83" height="1.98" class="up-body"/>
<line x1="645.55" y1="948.92" x2="645.55" y2="959.12" class="up-wick"/>
<rect x="643.14" y="948.96" width="4.83" height="9.95" class="up-body"/>
<line x1="652.98" y1="947.54" x2="652.98" y2="954.91" class="down-wick"/>
<rect x="650.56" y="947.58" width="4.83" height="7.05" class="down-body"/>
<line x1="660.40" y1="946.23" x2="660.40" y2="952.67" class="up-wick"/>
<rect x="657.99" y="950.02" width="4.83" height="2.66" class="up-body"/>
<line x1="667.83" y1="934.33" x2="667.83" y2="950.09" class="down-wick"/>
<rect x="665.42" y="938.76" width="4.83" height="7.05" class="down-body"/>
<line x1="675.26" y1="946.80" x2="675.26" y2="952.96" class="up-wick"/>
<rect x="672.84" y="948.74" width="4.83" height="1.84" class="up-body"/>
<line x1="682.68" y1="930.65" x2="682.68" y2="947.19" class="up-wick"/>
<rect x="680.27" y="932.56" width="4.83" height="13.70" class="up-body"/>
<line x1="690.11" y1="928.63" x2="690.11" y2="939.08" class="down-wick"/>
<rect x="687.70" y="928.78" width="4.83" height="6.09" class="down-body"/>
<line x1="697.54" y1="931.29" x2="697.54" y2="935.79" class="down-wick"/>
<rect x="695.12" y="933.34" width="4.83" height="1.70" class="down-body"/>
<line x1="704.96" y1="928.63" x2="704.96" y2="938.55" class="down-wick"/>
<rect x="702.55" y="931.33" width="4.83" height="5.63" class="down-body"/>
<line x1="712.39" y1="933.45" x2="712.39" y2="941.95" class="down-wick"/>
<rect x="709.98" y="934.62" width="4.83" height="4.39" class="down-body"/>
<line x1="719.82" y1="930.40" x2="719.82" y2="935.79" class="down-wick"/>
<rect x="717.40" y="934.72" width="4.83" height="1.00" class="down-body"/>
<line x1="727.24" y1="935.64" x2="727.24" y2="937.95" class="down-wick"/>
<rect x="724.83" y="937.03" width="4.83" height="1.00" class="down-body"/>
<line x1="734.67" y1="935.57" x2="734.67" y2="939.50" class="down-wick"/>
<rect x="732.26" y="935.79" width="4.83" height="1.56" class="down-body"/>
<line x1="742.10" y1="930.51" x2="742.10" y2="940.04" class="up-wick"/>
<rect x="739.68" y="933.34" width="4.83" height="4.11" class="up-body"/>
<line x1="749.52" y1="920.46" x2="749.52" y2="927.64" class="up-wick"/>
<rect x="747.11" y="920.63" width="4.83" height="5.74" class="up-body"/>
<line x1="756.95" y1="912.14" x2="756.95" y2="916.95" class="down-wick"/>
<rect x="754.53" y="912.14" width="4.83" height="1.00" class="down-body"/>
<line x1="764.38" y1="912.07" x2="764.38" y2="919.08" class="down-wick"/>
<rect x="761.96" y="916.56" width="4.83" height="1.17" class="down-body"/>
<line x1="771.80" y1="917.52" x2="771.80" y2="922.83" class="up-wick"/>
<rect x="769.39" y="917.84" width="4.83" height="4.21" class="up-body"/>
<line x1="779.23" y1="908.74" x2="779.23" y2="912.28" class="up-wick"/>
<rect x="776.81" y="908.81" width="4.83" height="2.87" class="up-body"/>
<line x1="786.65" y1="906.72" x2="786.65" y2="913.66" class="down-wick"/>
<rect x="784.24" y="906.86" width="4.83" height="5.91" class="down-body"/>
<line x1="794.08" y1="909.83" x2="794.08" y2="914.54" class="up-wick"/>
<rect x="791.67" y="910.58" width="4.83" height="1.91" class="up-body"/>
<line x1="801.51" y1="906.97" x2="801.51" y2="910.30" class="up-wick"/>
<rect x="799.09" y="909.66" width="4.83" height="1.00" class="up-body"/>
<line x1="808.93" y1="907.21" x2="808.93" y2="912.24" class="up-wick"/>
<rect x="806.52" y="907.57" width="4.83" height="3.29" class="up-body"/>
<line x1="816.36" y1="906.08" x2="816.36" y2="909.27" class="up-wick"/>
<rect x="813.95" y="906.44" width="4.83" height="1.52" class="up-body"/>
<line x1="823.79" y1="905.69" x2="823.79" y2="908.42" class="down-wick"/>
<rect x="821.37" y="906.08" width="4.83" height="1.00" class="down-body"/>
<line x1="831.21" y1="901.90" x2="831.21" y2="907.43" class="down-wick"/>
<rect x="828.80" y="905.80" width="4.83" height="1.00" class="down-body"/>
<line x1="838.64" y1="900.77" x2="838.64" y2="908.84" class="down-wick"/>
<rect x="836.23" y="902.15" width="4.83" height="4.11" class="down-body"/>
<line x1="846.07" y1="903.25" x2="846.07" y2="908.52" class="up-wick"/>
<rect x="843.65" y="903.28" width="4.83" height="1.24" class="up-body"/>
<line x1="853.49" y1="897.09" x2="853.49" y2="905.94" class="up-wick"/>
<rect x="851.08" y="900.59" width="4.83" height="3.08" class="up-body"/>
<line x1="860.92" y1="890.47" x2="860.92" y2="897.58" class="up-wick"/>
<rect x="858.51" y="890.47" width="4.83" height="5.84" class="up-body"/>
<line x1="868.35" y1="893.41" x2="868.35" y2="898.58" class="down-wick"/>
<rect x="865.93" y="893.73" width="4.83" height="1.00" class="down-body"/>
<line x1="875.77" y1="889.72" x2="875.77" y2="894.61" class="up-wick"/>
<rect x="873.36" y="892.24" width="4.83" height="1.98" class="up-body"/>
<line x1="883.20" y1="886.86" x2="883.20" y2="894.65" class="up-wick"/>
<rect x="880.78" y="887.85" width="4.83" height="5.84" class="up-body"/>
<line x1="890.62" y1="888.63" x2="890.62" y2="892.34" class="down-wick"/>
<rect x="888.21" y="889.16" width="4.83" height="1.52" class="down-body"/>
<line x1="898.05" y1="889.23" x2="898.05" y2="894.93" class="down-wick"/>
<rect x="895.64" y="889.37" width="4.83" height="4.82" class="down-body"/>
<line x1="905.48" y1="890.75" x2="905.48" y2="895.11" class="down-wick"/>
<rect x="903.06" y="891.32" width="4.83" height="2.97" class="down-body"/>
<line x1="912.90" y1="894.15" x2="912.90" y2="903.00" class="down-wick"/>
<rect x="910.49" y="896.81" width="4.83" height="5.56" class="down-body"/>
<line x1="920.33" y1="889.62" x2="920.33" y2="898.01" class="up-wick"/>
<rect x="917.92" y="889.62" width="4.83" height="7.90" class="up-body"/>
<line x1="927.76" y1="888.17" x2="927.76" y2="891.50" class="up-wick"/>
<rect x="925.34" y="888.80" width="4.83" height="2.69" class="up-body"/>
<line x1="935.18" y1="865.44" x2="935.18" y2="888.66" class="up-wick"/>
<rect x="932.77" y="865.97" width="4.83" height="22.20" class="up-body"/>
<line x1="942.61" y1="869.65" x2="942.61" y2="874.61" class="down-wick"/>
<rect x="940.20" y="870.89" width="4.83" height="1.06" class="down-body"/>
<line x1="950.04" y1="874.22" x2="950.04" y2="883.49" class="up-wick"/>
<rect x="947.62" y="876.16" width="4.83" height="6.30" class="up-body"/>
<line x1="957.46" y1="860.73" x2="957.46" y2="870.92" class="up-wick"/>
<rect x="955.05" y="862.04" width="4.83" height="7.54" class="up-body"/>
<line x1="964.89" y1="863.70" x2="964.89" y2="869.72" class="down-wick"/>
<rect x="962.48" y="864.27" width="4.83" height="4.67" class="down-body"/>
<line x1="972.32" y1="859.24" x2="972.32" y2="866.11" class="up-wick"/>
<rect x="969.90" y="863.81" width="4.83" height="1.81" class="up-body"/>
<line x1="979.74" y1="867.74" x2="979.74" y2="872.02" class="up-wick"/>
<rect x="977.33" y="870.54" width="4.83" height="1.00" class="up-body"/>
<line x1="987.17" y1="871.07" x2="987.17" y2="874.96" class="down-wick"/>
<rect x="984.76" y="871.07" width="4.83" height="1.00" class="down-body"/>
<line x1="994.60" y1="865.58" x2="994.60" y2="875.81" class="up-wick"/>
<rect x="992.18" y="869.44" width="4.83" height="5.59" class="up-body"/>
<line x1="1002.02" y1="869.69" x2="1002.02" y2="873.93" class="down-wick"/>
<rect x="999.61" y="869.69" width="4.83" height="1.00" class="down-body"/>
<line x1="1009.45" y1="869.47" x2="1009.45" y2="873.44" class="down-wick"/>
<rect x="1007.03" y="870.71" width="4.83" height="1.00" class="down-body"/>
<line x1="1016.88" y1="875.67" x2="1016.88" y2="887.49" class="down-wick"/>
<rect x="1014.46" y="875.67" width="4.83" height="6.44" class="down-body"/>
<line x1="1024.30" y1="882.18" x2="1024.30" y2="890.08" class="down-wick"/>
<rect x="1021.89" y="887.49" width="4.83" height="1.00" class="down-body"/>
<line x1="1031.73" y1="881.30" x2="1031.73" y2="887.28" class="up-wick"/>
<rect x="1029.31" y="883.14" width="4.83" height="4.14" class="up-body"/>
<line x1="1039.15" y1="878.93" x2="1039.15" y2="884.41" class="down-wick"/>
<rect x="1036.74" y="882.25" width="4.83" height="1.70" class="down-body"/>
<line x1="1046.58" y1="881.23" x2="1046.58" y2="883.32" class="down-wick"/>
<rect x="1044.17" y="881.97" width="4.83" height="1.00" class="down-body"/>
<line x1="1054.01" y1="883.03" x2="1054.01" y2="886.43" class="down-wick"/>
<rect x="1051.59" y="883.03" width="4.83" height="3.08" class="down-body"/>
<line x1="1061.43" y1="881.44" x2="1061.43" y2="885.87" class="up-wick"/>
<rect x="1059.02" y="883.78" width="4.83" height="1.00" class="up-body"/>
<line x1="1068.86" y1="886.11" x2="1068.86" y2="889.34" class="up-wick"/>
<rect x="1066.45" y="886.29" width="4.83" height="1.00" class="up-body"/>
<line x1="1076.29" y1="887.14" x2="1076.29" y2="894.72" class="down-wick"/>
<rect x="1073.87" y="887.14" width="4.83" height="7.58" class="down-body"/>
<line x1="70" y1="940.99" x2="1080" y2="940.99" class="sweep-line"/>
<text x="1076" y="936.99" text-anchor="end" class="level-label">sweep 5214.66</text>
<line x1="70" y1="936.64" x2="1080" y2="936.64" class="entry-line"/>
<text x="1076" y="932.64" text-anchor="end" class="level-label">entry level 5215.89</text>
<text x="70" y="1056" class="axis-label">2026-02-23 19:00:00+00:00 to 2026-02-23 23:30:00+00:00</text>
<text x="1080" y="1056" text-anchor="end" class="axis-label">5187.26 - 5241.49</text>
</svg>