<svg xmlns="http://www.w3.org/2000/svg" width="1120" height="1054" viewBox="0 0 1120 1054">
<style>
text{font-family:Arial,Helvetica,sans-serif}.title{font-size:21px;font-weight:700;fill:#1f2937}.subtitle{font-size:12px;fill:#4b5563}.panel-title{font-size:15px;font-weight:700;fill:#111827}.muted{font-size:13px;fill:#6b7280}.plot-bg{fill:#f8fafc;stroke:#cbd5e1;stroke-width:1}.up-body{fill:#15803d;stroke:#14532d;stroke-width:.8}.down-body{fill:#b91c1c;stroke:#7f1d1d;stroke-width:.8}.up-wick{stroke:#14532d;stroke-width:1}.down-wick{stroke:#7f1d1d;stroke-width:1}.sweep-line{stroke:#7c3aed;stroke-width:1.6;stroke-dasharray:6 4}.number-line{stroke:#0f766e;stroke-width:1.4;stroke-dasharray:3 4}.entry-line{stroke:#2563eb;stroke-width:1.4}.sl-line{stroke:#dc2626;stroke-width:1.4}.tp-line{stroke:#16a34a;stroke-width:1.4}.level-label,.axis-label{font-size:11px;fill:#374151}
</style>
<text x="28" y="28" class="title">Adelin v2 visual review sample sample_282</text>
<text x="28" y="48" class="subtitle">Candidate windows are for visual labeling only and are not trade signals.</text>
<text x="560" y="48" class="subtitle" text-anchor="middle">NUMBER_THEORY_LEVEL_NEAR | ROUND_LEVEL_ENTRY_METADATA_AVAILABLE</text>
<text x="70" y="82" class="panel-title">H1 liquidity context</text>
<rect x="70" y="96" width="1010" height="192" class="plot-bg"/>
<line x1="77.11" y1="112.53" x2="77.11" y2="115.35" class="down-wick"/>
<rect x="73.11" y="113.09" width="8.00" height="1.08" class="down-body"/>
<line x1="91.34" y1="112.29" x2="91.34" y2="114.28" class="up-wick"/>
<rect x="87.34" y="112.44" width="8.00" height="1.74" class="up-body"/>
<line x1="105.56" y1="112.47" x2="105.56" y2="116.30" class="down-wick"/>
<rect x="101.56" y="112.52" width="8.00" height="1.76" class="down-body"/>
<line x1="119.79" y1="113.09" x2="119.79" y2="114.60" class="up-wick"/>
<rect x="115.79" y="113.35" width="8.00" height="1.00" class="up-body"/>
<line x1="134.01" y1="110.47" x2="134.01" y2="114.17" class="up-wick"/>
<rect x="130.01" y="112.94" width="8.00" height="1.00" class="up-body"/>
<line x1="148.24" y1="109.34" x2="148.24" y2="116.93" class="down-wick"/>
<rect x="144.24" y="112.94" width="8.00" height="1.72" class="down-body"/>
<line x1="162.46" y1="112.10" x2="162.46" y2="117.18" class="down-wick"/>
<rect x="158.46" y="114.58" width="8.00" height="2.17" class="down-body"/>
<line x1="176.69" y1="114.99" x2="176.69" y2="118.53" class="down-wick"/>
<rect x="172.69" y="116.75" width="8.00" height="1.00" class="down-body"/>
<line x1="190.92" y1="116.25" x2="190.92" y2="119.84" class="down-wick"/>
<rect x="186.92" y="116.93" width="8.00" height="1.29" class="down-body"/>
<line x1="205.14" y1="113.44" x2="205.14" y2="118.95" class="up-wick"/>
<rect x="201.14" y="114.97" width="8.00" height="3.24" class="up-body"/>
<line x1="219.37" y1="109.24" x2="219.37" y2="115.37" class="up-wick"/>
<rect x="215.37" y="111.36" width="8.00" height="3.61" class="up-body"/>
<line x1="233.59" y1="109.65" x2="233.59" y2="117.19" class="down-wick"/>
<rect x="229.59" y="111.36" width="8.00" height="4.43" class="down-body"/>
<line x1="247.82" y1="115.23" x2="247.82" y2="121.26" class="down-wick"/>
<rect x="243.82" y="115.79" width="8.00" height="2.27" class="down-body"/>
<line x1="262.04" y1="115.60" x2="262.04" y2="118.90" class="up-wick"/>
<rect x="258.04" y="116.67" width="8.00" height="1.38" class="up-body"/>
<line x1="276.27" y1="116.66" x2="276.27" y2="126.87" class="down-wick"/>
<rect x="272.27" y="116.67" width="8.00" height="7.45" class="down-body"/>
<line x1="290.49" y1="122.24" x2="290.49" y2="137.26" class="down-wick"/>
<rect x="286.49" y="124.12" width="8.00" height="11.56" class="down-body"/>
<line x1="304.72" y1="134.99" x2="304.72" y2="153.94" class="down-wick"/>
<rect x="300.72" y="135.68" width="8.00" height="14.95" class="down-body"/>
<line x1="318.94" y1="149.41" x2="318.94" y2="165.17" class="down-wick"/>
<rect x="314.94" y="150.63" width="8.00" height="1.02" class="down-body"/>
<line x1="333.17" y1="146.61" x2="333.17" y2="158.24" class="down-wick"/>
<rect x="329.17" y="151.65" width="8.00" height="2.64" class="down-body"/>
<line x1="347.39" y1="151.07" x2="347.39" y2="156.90" class="down-wick"/>
<rect x="343.39" y="154.29" width="8.00" height="2.17" class="down-body"/>
<line x1="361.62" y1="147.93" x2="361.62" y2="156.97" class="up-wick"/>
<rect x="357.62" y="148.97" width="8.00" height="7.52" class="up-body"/>
<line x1="375.85" y1="145.27" x2="375.85" y2="149.91" class="up-wick"/>
<rect x="371.85" y="147.89" width="8.00" height="1.10" class="up-body"/>
<line x1="390.07" y1="145.22" x2="390.07" y2="159.61" class="down-wick"/>
<rect x="386.07" y="147.91" width="8.00" height="11.46" class="down-body"/>
<line x1="404.30" y1="155.61" x2="404.30" y2="163.88" class="down-wick"/>
<rect x="400.30" y="159.38" width="8.00" height="3.06" class="down-body"/>
<line x1="418.52" y1="160.75" x2="418.52" y2="173.62" class="down-wick"/>
<rect x="414.52" y="162.44" width="8.00" height="7.72" class="down-body"/>
<line x1="432.75" y1="163.67" x2="432.75" y2="174.05" class="up-wick"/>
<rect x="428.75" y="165.00" width="8.00" height="1.64" class="up-body"/>
<line x1="446.97" y1="162.60" x2="446.97" y2="166.99" class="up-wick"/>
<rect x="442.97" y="164.34" width="8.00" height="1.00" class="up-body"/>
<line x1="461.20" y1="160.69" x2="461.20" y2="164.75" class="up-wick"/>
<rect x="457.20" y="162.99" width="8.00" height="1.35" class="up-body"/>
<line x1="475.42" y1="155.10" x2="475.42" y2="165.61" class="up-wick"/>
<rect x="471.42" y="160.33" width="8.00" height="2.66" class="up-body"/>
<line x1="489.65" y1="156.59" x2="489.65" y2="162.90" class="up-wick"/>
<rect x="485.65" y="157.62" width="8.00" height="2.70" class="up-body"/>
<line x1="503.87" y1="155.41" x2="503.87" y2="160.05" class="down-wick"/>
<rect x="499.87" y="157.62" width="8.00" height="2.42" class="down-body"/>
<line x1="518.10" y1="159.18" x2="518.10" y2="161.62" class="down-wick"/>
<rect x="514.10" y="160.04" width="8.00" height="1.00" class="down-body"/>
<line x1="532.32" y1="159.14" x2="532.32" y2="167.42" class="down-wick"/>
<rect x="528.32" y="160.35" width="8.00" height="6.86" class="down-body"/>
<line x1="546.55" y1="162.70" x2="546.55" y2="191.72" class="down-wick"/>
<rect x="542.55" y="167.22" width="8.00" height="19.62" class="down-body"/>
<line x1="560.77" y1="180.48" x2="560.77" y2="198.03" class="down-wick"/>
<rect x="556.77" y="186.85" width="8.00" height="10.96" class="down-body"/>
<line x1="575.00" y1="193.94" x2="575.00" y2="210.40" class="down-wick"/>
<rect x="571.00" y="197.81" width="8.00" height="5.69" class="down-body"/>
<line x1="589.23" y1="198.43" x2="589.23" y2="210.11" class="down-wick"/>
<rect x="585.23" y="203.51" width="8.00" height="3.16" class="down-body"/>
<line x1="603.45" y1="200.27" x2="603.45" y2="216.63" class="down-wick"/>
<rect x="599.45" y="206.67" width="8.00" height="6.14" class="down-body"/>
<line x1="617.68" y1="206.43" x2="617.68" y2="221.47" class="down-wick"/>
<rect x="613.68" y="212.81" width="8.00" height="8.45" class="down-body"/>
<line x1="631.90" y1="220.56" x2="631.90" y2="258.18" class="down-wick"/>
<rect x="627.90" y="221.26" width="8.00" height="23.65" class="down-body"/>
<line x1="646.13" y1="230.41" x2="646.13" y2="266.99" class="up-wick"/>
<rect x="642.13" y="230.44" width="8.00" height="14.47" class="up-body"/>
<line x1="660.35" y1="221.98" x2="660.35" y2="242.89" class="down-wick"/>
<rect x="656.35" y="230.44" width="8.00" height="6.15" class="down-body"/>
<line x1="674.58" y1="225.09" x2="674.58" y2="247.44" class="down-wick"/>
<rect x="670.58" y="236.57" width="8.00" height="1.57" class="down-body"/>
<line x1="688.80" y1="228.94" x2="688.80" y2="244.20" class="down-wick"/>
<rect x="684.80" y="238.14" width="8.00" height="3.59" class="down-body"/>
<line x1="703.03" y1="227.90" x2="703.03" y2="245.04" class="up-wick"/>
<rect x="699.03" y="232.16" width="8.00" height="9.57" class="up-body"/>
<line x1="717.25" y1="230.04" x2="717.25" y2="238.18" class="up-wick"/>
<rect x="713.25" y="230.05" width="8.00" height="2.11" class="up-body"/>
<line x1="731.48" y1="217.61" x2="731.48" y2="230.05" class="up-wick"/>
<rect x="727.48" y="223.65" width="8.00" height="6.40" class="up-body"/>
<line x1="745.70" y1="218.11" x2="745.70" y2="223.98" class="up-wick"/>
<rect x="741.70" y="222.11" width="8.00" height="1.53" class="up-body"/>
<line x1="759.93" y1="213.36" x2="759.93" y2="225.94" class="down-wick"/>
<rect x="755.93" y="220.39" width="8.00" height="5.48" class="down-body"/>
<line x1="774.15" y1="222.41" x2="774.15" y2="226.57" class="up-wick"/>
<rect x="770.15" y="223.68" width="8.00" height="2.20" class="up-body"/>
<line x1="788.38" y1="217.13" x2="788.38" y2="224.15" class="up-wick"/>
<rect x="784.38" y="222.12" width="8.00" height="1.56" class="up-body"/>
<line x1="802.61" y1="206.61" x2="802.61" y2="224.97" class="up-wick"/>
<rect x="798.61" y="213.33" width="8.00" height="8.79" class="up-body"/>
<line x1="816.83" y1="205.29" x2="816.83" y2="215.52" class="up-wick"/>
<rect x="812.83" y="206.92" width="8.00" height="6.40" class="up-body"/>
<line x1="831.06" y1="195.36" x2="831.06" y2="208.46" class="up-wick"/>
<rect x="827.06" y="198.49" width="8.00" height="8.42" class="up-body"/>
<line x1="845.28" y1="197.92" x2="845.28" y2="201.64" class="down-wick"/>
<rect x="841.28" y="198.49" width="8.00" height="1.25" class="down-body"/>
<line x1="859.51" y1="199.08" x2="859.51" y2="210.71" class="down-wick"/>
<rect x="855.51" y="199.74" width="8.00" height="10.21" class="down-body"/>
<line x1="873.73" y1="206.02" x2="873.73" y2="218.19" class="down-wick"/>
<rect x="869.73" y="209.94" width="8.00" height="5.83" class="down-body"/>
<line x1="887.96" y1="203.95" x2="887.96" y2="216.14" class="up-wick"/>
<rect x="883.96" y="204.42" width="8.00" height="11.36" class="up-body"/>
<line x1="902.18" y1="195.66" x2="902.18" y2="210.95" class="down-wick"/>
<rect x="898.18" y="204.40" width="8.00" height="3.92" class="down-body"/>
<line x1="916.41" y1="206.26" x2="916.41" y2="218.69" class="down-wick"/>
<rect x="912.41" y="208.33" width="8.00" height="7.99" class="down-body"/>
<line x1="930.63" y1="215.56" x2="930.63" y2="225.35" class="down-wick"/>
<rect x="926.63" y="216.31" width="8.00" height="6.83" class="down-body"/>
<line x1="944.86" y1="214.25" x2="944.86" y2="225.64" class="up-wick"/>
<rect x="940.86" y="215.07" width="8.00" height="8.07" class="up-body"/>
<line x1="959.08" y1="207.77" x2="959.08" y2="218.01" class="up-wick"/>
<rect x="955.08" y="213.00" width="8.00" height="2.07" class="up-body"/>
<line x1="973.31" y1="212.61" x2="973.31" y2="233.19" class="down-wick"/>
<rect x="969.31" y="213.00" width="8.00" height="19.02" class="down-body"/>
<line x1="987.54" y1="230.14" x2="987.54" y2="253.10" class="down-wick"/>
<rect x="983.54" y="232.03" width="8.00" height="16.05" class="down-body"/>
<line x1="1001.76" y1="243.19" x2="1001.76" y2="255.33" class="down-wick"/>
<rect x="997.76" y="248.15" width="8.00" height="3.26" class="down-body"/>
<line x1="1015.99" y1="232.90" x2="1015.99" y2="251.82" class="up-wick"/>
<rect x="1011.99" y="242.20" width="8.00" height="9.19" class="up-body"/>
<line x1="1030.21" y1="236.86" x2="1030.21" y2="251.16" class="down-wick"/>
<rect x="1026.21" y="242.20" width="8.00" height="3.06" class="down-body"/>
<line x1="1044.44" y1="243.72" x2="1044.44" y2="274.76" class="down-wick"/>
<rect x="1040.44" y="245.26" width="8.00" height="22.62" class="down-body"/>
<line x1="1058.66" y1="262.63" x2="1058.66" y2="272.23" class="up-wick"/>
<rect x="1054.66" y="267.25" width="8.00" height="1.00" class="up-body"/>
<line x1="1072.89" y1="263.35" x2="1072.89" y2="269.93" class="down-wick"/>
<rect x="1068.89" y="267.30" width="8.00" height="2.63" class="down-body"/>
<line x1="70" y1="267.78" x2="1080" y2="267.78" class="number-line"/>
<text x="1076" y="263.78" text-anchor="end" class="level-label">round 4500.00</text>
<line x1="70" y1="267.78" x2="1080" y2="267.78" class="entry-line"/>
<text x="1076" y="263.78" text-anchor="end" class="level-label">entry level 4500.00</text>
<text x="70" y="306" class="axis-label">2026-03-17 21:00:00+00:00 to 2026-03-20 22:00:00+00:00</text>
<text x="1080" y="306" text-anchor="end" class="axis-label">4434.15 - 5059.42</text>
<text x="70" y="332" class="panel-title">M15 liquidity / reaction context</text>
<rect x="70" y="346" width="1010" height="192" class="plot-bg"/>
<line x1="78.86" y1="397.03" x2="78.86" y2="405.74" class="up-wick"/>
<rect x="74.86" y="401.34" width="8.00" height="2.18" class="up-body"/>
<line x1="96.58" y1="391.90" x2="96.58" y2="402.10" class="up-wick"/>
<rect x="92.58" y="394.86" width="8.00" height="6.48" class="up-body"/>
<line x1="114.30" y1="388.82" x2="114.30" y2="396.77" class="up-wick"/>
<rect x="110.30" y="389.11" width="8.00" height="5.74" class="up-body"/>
<line x1="132.02" y1="382.78" x2="132.02" y2="391.07" class="up-wick"/>
<rect x="128.02" y="385.32" width="8.00" height="3.80" class="up-body"/>
<line x1="149.74" y1="376.60" x2="149.74" y2="385.32" class="up-wick"/>
<rect x="145.74" y="377.57" width="8.00" height="7.74" class="up-body"/>
<line x1="167.46" y1="370.36" x2="167.46" y2="380.31" class="up-wick"/>
<rect x="163.46" y="371.26" width="8.00" height="6.28" class="up-body"/>
<line x1="185.18" y1="359.24" x2="185.18" y2="371.66" class="up-wick"/>
<rect x="181.18" y="366.98" width="8.00" height="4.28" class="up-body"/>
<line x1="202.89" y1="366.91" x2="202.89" y2="382.17" class="down-wick"/>
<rect x="198.89" y="366.98" width="8.00" height="9.91" class="down-body"/>
<line x1="220.61" y1="376.24" x2="220.61" y2="391.23" class="down-wick"/>
<rect x="216.61" y="376.90" width="8.00" height="8.85" class="down-body"/>
<line x1="238.33" y1="381.42" x2="238.33" y2="391.81" class="up-wick"/>
<rect x="234.33" y="385.55" width="8.00" height="1.00" class="up-body"/>
<line x1="256.05" y1="383.32" x2="256.05" y2="391.78" class="down-wick"/>
<rect x="252.05" y="385.55" width="8.00" height="1.31" class="down-body"/>
<line x1="273.77" y1="386.54" x2="273.77" y2="400.21" class="down-wick"/>
<rect x="269.77" y="386.86" width="8.00" height="11.87" class="down-body"/>
<line x1="291.49" y1="396.26" x2="291.49" y2="407.43" class="down-wick"/>
<rect x="287.49" y="398.73" width="8.00" height="3.74" class="down-body"/>
<line x1="309.21" y1="400.89" x2="309.21" y2="413.70" class="down-wick"/>
<rect x="305.21" y="402.46" width="8.00" height="2.97" class="down-body"/>
<line x1="326.93" y1="403.18" x2="326.93" y2="416.37" class="down-wick"/>
<rect x="322.93" y="405.39" width="8.00" height="3.15" class="down-body"/>
<line x1="344.65" y1="401.01" x2="344.65" y2="414.13" class="up-wick"/>
<rect x="340.65" y="407.48" width="8.00" height="1.06" class="up-body"/>
<line x1="362.37" y1="407.14" x2="362.37" y2="421.37" class="down-wick"/>
<rect x="358.37" y="407.48" width="8.00" height="9.27" class="down-body"/>
<line x1="380.09" y1="403.14" x2="380.09" y2="421.99" class="up-wick"/>
<rect x="376.09" y="405.64" width="8.00" height="11.11" class="up-body"/>
<line x1="397.81" y1="401.86" x2="397.81" y2="408.11" class="up-wick"/>
<rect x="393.81" y="403.96" width="8.00" height="1.68" class="up-body"/>
<line x1="415.53" y1="398.15" x2="415.53" y2="406.28" class="up-wick"/>
<rect x="411.53" y="401.29" width="8.00" height="2.67" class="up-body"/>
<line x1="433.25" y1="399.50" x2="433.25" y2="408.87" class="up-wick"/>
<rect x="429.25" y="399.86" width="8.00" height="1.43" class="up-body"/>
<line x1="450.96" y1="384.58" x2="450.96" y2="399.86" class="up-wick"/>
<rect x="446.96" y="390.96" width="8.00" height="8.91" class="up-body"/>
<line x1="468.68" y1="386.79" x2="468.68" y2="395.92" class="down-wick"/>
<rect x="464.68" y="390.98" width="8.00" height="4.66" class="down-body"/>
<line x1="486.40" y1="393.15" x2="486.40" y2="406.01" class="down-wick"/>
<rect x="482.40" y="395.62" width="8.00" height="5.15" class="down-body"/>
<line x1="504.12" y1="393.42" x2="504.12" y2="403.51" class="up-wick"/>
<rect x="500.12" y="395.53" width="8.00" height="5.24" class="up-body"/>
<line x1="521.84" y1="394.72" x2="521.84" y2="411.42" class="down-wick"/>
<rect x="517.84" y="395.53" width="8.00" height="10.49" class="down-body"/>
<line x1="539.56" y1="400.67" x2="539.56" y2="410.12" class="down-wick"/>
<rect x="535.56" y="406.01" width="8.00" height="1.16" class="down-body"/>
<line x1="557.28" y1="403.51" x2="557.28" y2="422.38" class="up-wick"/>
<rect x="553.28" y="405.63" width="8.00" height="1.54" class="up-body"/>
<line x1="575.00" y1="403.87" x2="575.00" y2="437.77" class="down-wick"/>
<rect x="571.00" y="405.65" width="8.00" height="29.69" class="down-body"/>
<line x1="592.72" y1="431.39" x2="592.72" y2="454.93" class="down-wick"/>
<rect x="588.72" y="435.36" width="8.00" height="18.70" class="down-body"/>
<line x1="610.44" y1="453.18" x2="610.44" y2="477.12" class="down-wick"/>
<rect x="606.44" y="454.06" width="8.00" height="18.65" class="down-body"/>
<line x1="628.16" y1="455.34" x2="628.16" y2="473.25" class="up-wick"/>
<rect x="624.16" y="461.40" width="8.00" height="11.31" class="up-body"/>
<line x1="645.88" y1="457.32" x2="645.88" y2="479.45" class="down-wick"/>
<rect x="641.88" y="461.44" width="8.00" height="7.50" class="down-body"/>
<line x1="663.60" y1="458.71" x2="663.60" y2="471.53" class="up-wick"/>
<rect x="659.60" y="461.39" width="8.00" height="7.68" class="up-body"/>
<line x1="681.32" y1="460.85" x2="681.32" y2="484.11" class="down-wick"/>
<rect x="677.32" y="461.24" width="8.00" height="8.51" class="down-body"/>
<line x1="699.04" y1="461.33" x2="699.04" y2="473.70" class="down-wick"/>
<rect x="695.04" y="469.74" width="8.00" height="1.00" class="down-body"/>
<line x1="716.75" y1="469.82" x2="716.75" y2="481.75" class="down-wick"/>
<rect x="712.75" y="469.88" width="8.00" height="6.02" class="down-body"/>
<line x1="734.47" y1="453.31" x2="734.47" y2="476.77" class="up-wick"/>
<rect x="730.47" y="453.42" width="8.00" height="22.44" class="up-body"/>
<line x1="752.19" y1="437.17" x2="752.19" y2="456.49" class="down-wick"/>
<rect x="748.19" y="453.42" width="8.00" height="2.35" class="down-body"/>
<line x1="769.91" y1="450.66" x2="769.91" y2="464.90" class="down-wick"/>
<rect x="765.91" y="455.77" width="8.00" height="2.22" class="down-body"/>
<line x1="787.63" y1="453.33" x2="787.63" y2="466.30" class="up-wick"/>
<rect x="783.63" y="456.64" width="8.00" height="1.35" class="up-body"/>
<line x1="805.35" y1="445.45" x2="805.35" y2="462.95" class="down-wick"/>
<rect x="801.35" y="456.64" width="8.00" height="1.00" class="down-body"/>
<line x1="823.07" y1="456.89" x2="823.07" y2="466.04" class="down-wick"/>
<rect x="819.07" y="457.41" width="8.00" height="6.44" class="down-body"/>
<line x1="840.79" y1="462.29" x2="840.79" y2="475.38" class="down-wick"/>
<rect x="836.79" y="463.85" width="8.00" height="3.96" class="down-body"/>
<line x1="858.51" y1="460.60" x2="858.51" y2="469.81" class="up-wick"/>
<rect x="854.51" y="463.03" width="8.00" height="4.78" class="up-body"/>
<line x1="876.23" y1="459.81" x2="876.23" y2="470.95" class="down-wick"/>
<rect x="872.23" y="463.02" width="8.00" height="6.57" class="down-body"/>
<line x1="893.95" y1="466.35" x2="893.95" y2="486.81" class="down-wick"/>
<rect x="889.95" y="469.60" width="8.00" height="5.60" class="down-body"/>
<line x1="911.67" y1="473.41" x2="911.67" y2="494.39" class="down-wick"/>
<rect x="907.67" y="475.19" width="8.00" height="18.16" class="down-body"/>
<line x1="929.39" y1="491.19" x2="929.39" y2="524.76" class="down-wick"/>
<rect x="925.39" y="493.35" width="8.00" height="17.01" class="down-body"/>
<line x1="947.11" y1="499.69" x2="947.11" y2="519.45" class="up-wick"/>
<rect x="943.11" y="509.85" width="8.00" height="1.00" class="up-body"/>
<line x1="964.82" y1="505.10" x2="964.82" y2="519.46" class="down-wick"/>
<rect x="960.82" y="509.85" width="8.00" height="1.25" class="down-body"/>
<line x1="982.54" y1="499.38" x2="982.54" y2="515.16" class="up-wick"/>
<rect x="978.54" y="500.91" width="8.00" height="10.18" class="up-body"/>
<line x1="1000.26" y1="499.87" x2="1000.26" y2="512.16" class="down-wick"/>
<rect x="996.26" y="500.91" width="8.00" height="8.13" class="down-body"/>
<line x1="1017.98" y1="505.35" x2="1017.98" y2="514.33" class="up-wick"/>
<rect x="1013.98" y="507.09" width="8.00" height="2.06" class="up-body"/>
<line x1="1035.70" y1="500.88" x2="1035.70" y2="509.71" class="down-wick"/>
<rect x="1031.70" y="507.10" width="8.00" height="2.24" class="down-body"/>
<line x1="1053.42" y1="507.29" x2="1053.42" y2="512.12" class="up-wick"/>
<rect x="1049.42" y="508.19" width="8.00" height="1.15" class="up-body"/>
<line x1="1071.14" y1="507.48" x2="1071.14" y2="514.65" class="down-wick"/>
<rect x="1067.14" y="508.19" width="8.00" height="6.46" class="down-body"/>
<line x1="70" y1="510.15" x2="1080" y2="510.15" class="number-line"/>
<text x="1076" y="506.15" text-anchor="end" class="level-label">round 4500.00</text>
<line x1="70" y1="510.15" x2="1080" y2="510.15" class="entry-line"/>
<text x="1076" y="506.15" text-anchor="end" class="level-label">entry level 4500.00</text>
<text x="70" y="556" class="axis-label">2026-03-20 08:45:00+00:00 to 2026-03-20 22:45:00+00:00</text>
<text x="1080" y="556" text-anchor="end" class="axis-label">4456.66 - 4755.48</text>
<text x="70" y="582" class="panel-title">M5 reaction / execution context</text>
<rect x="70" y="596" width="1010" height="192" class="plot-bg"/>
<line x1="81.22" y1="609.24" x2="81.22" y2="624.57" class="down-wick"/>
<rect x="77.22" y="610.53" width="8.00" height="11.67" class="down-body"/>
<line x1="103.67" y1="614.08" x2="103.67" y2="631.57" class="down-wick"/>
<rect x="99.67" y="622.20" width="8.00" height="7.11" class="down-body"/>
<line x1="126.11" y1="619.11" x2="126.11" y2="630.68" class="up-wick"/>
<rect x="122.11" y="626.23" width="8.00" height="3.18" class="up-body"/>
<line x1="148.56" y1="622.42" x2="148.56" y2="646.50" class="down-wick"/>
<rect x="144.56" y="626.23" width="8.00" height="16.05" class="down-body"/>
<line x1="171.00" y1="636.38" x2="171.00" y2="654.34" class="up-wick"/>
<rect x="167.00" y="641.66" width="8.00" height="1.00" class="up-body"/>
<line x1="193.44" y1="635.14" x2="193.44" y2="646.80" class="up-wick"/>
<rect x="189.44" y="635.88" width="8.00" height="5.78" class="up-body"/>
<line x1="215.89" y1="631.05" x2="215.89" y2="640.75" class="down-wick"/>
<rect x="211.89" y="635.88" width="8.00" height="3.01" class="down-body"/>
<line x1="238.33" y1="619.22" x2="238.33" y2="640.74" class="up-wick"/>
<rect x="234.33" y="619.24" width="8.00" height="19.65" class="up-body"/>
<line x1="260.78" y1="618.30" x2="260.78" y2="627.31" class="down-wick"/>
<rect x="256.78" y="619.24" width="8.00" height="4.98" class="down-body"/>
<line x1="283.22" y1="616.37" x2="283.22" y2="629.50" class="down-wick"/>
<rect x="279.22" y="624.21" width="8.00" height="4.81" class="down-body"/>
<line x1="305.67" y1="620.18" x2="305.67" y2="633.94" class="down-wick"/>
<rect x="301.67" y="629.02" width="8.00" height="4.14" class="down-body"/>
<line x1="328.11" y1="620.96" x2="328.11" y2="643.53" class="down-wick"/>
<rect x="324.11" y="633.15" width="8.00" height="7.08" class="down-body"/>
<line x1="350.56" y1="635.50" x2="350.56" y2="645.50" class="up-wick"/>
<rect x="346.56" y="636.22" width="8.00" height="4.01" class="up-body"/>
<line x1="373.00" y1="632.31" x2="373.00" y2="682.21" class="down-wick"/>
<rect x="369.00" y="636.22" width="8.00" height="29.96" class="down-body"/>
<line x1="395.44" y1="647.52" x2="395.44" y2="666.20" class="up-wick"/>
<rect x="391.44" y="653.88" width="8.00" height="11.99" class="up-body"/>
<line x1="417.89" y1="649.54" x2="417.89" y2="670.12" class="down-wick"/>
<rect x="413.89" y="653.88" width="8.00" height="13.40" class="down-body"/>
<line x1="440.33" y1="663.49" x2="440.33" y2="678.81" class="down-wick"/>
<rect x="436.33" y="667.28" width="8.00" height="2.24" class="down-body"/>
<line x1="462.78" y1="666.89" x2="462.78" y2="700.69" class="down-wick"/>
<rect x="458.78" y="669.57" width="8.00" height="28.60" class="down-body"/>
<line x1="485.22" y1="692.90" x2="485.22" y2="722.78" class="down-wick"/>
<rect x="481.22" y="698.17" width="8.00" height="23.72" class="down-body"/>
<line x1="507.67" y1="710.34" x2="507.67" y2="737.81" class="down-wick"/>
<rect x="503.67" y="721.89" width="8.00" height="13.26" class="down-body"/>
<line x1="530.11" y1="734.35" x2="530.11" y2="774.76" class="down-wick"/>
<rect x="526.11" y="735.15" width="8.00" height="4.51" class="down-body"/>
<line x1="552.56" y1="713.62" x2="552.56" y2="740.77" class="up-wick"/>
<rect x="548.56" y="738.31" width="8.00" height="1.33" class="up-body"/>
<line x1="575.00" y1="733.38" x2="575.00" y2="761.82" class="up-wick"/>
<rect x="571.00" y="735.02" width="8.00" height="3.29" class="up-body"/>
<line x1="597.44" y1="729.90" x2="597.44" y2="759.18" class="down-wick"/>
<rect x="593.44" y="735.02" width="8.00" height="3.37" class="down-body"/>
<line x1="619.89" y1="726.83" x2="619.89" y2="750.14" class="up-wick"/>
<rect x="615.89" y="736.92" width="8.00" height="1.47" class="up-body"/>
<line x1="642.33" y1="736.78" x2="642.33" y2="761.22" class="down-wick"/>
<rect x="638.33" y="736.92" width="8.00" height="21.17" class="down-body"/>
<line x1="664.78" y1="740.68" x2="664.78" y2="761.85" class="up-wick"/>
<rect x="660.78" y="741.45" width="8.00" height="16.64" class="up-body"/>
<line x1="687.22" y1="723.61" x2="687.22" y2="744.56" class="down-wick"/>
<rect x="683.22" y="741.45" width="8.00" height="1.00" class="down-body"/>
<line x1="709.67" y1="723.82" x2="709.67" y2="751.35" class="up-wick"/>
<rect x="705.67" y="724.58" width="8.00" height="17.86" class="up-body"/>
<line x1="732.11" y1="712.86" x2="732.11" y2="732.91" class="up-wick"/>
<rect x="728.11" y="716.61" width="8.00" height="7.98" class="up-body"/>
<line x1="754.56" y1="716.45" x2="754.56" y2="728.19" class="down-wick"/>
<rect x="750.56" y="716.61" width="8.00" height="10.17" class="down-body"/>
<line x1="777.00" y1="714.05" x2="777.00" y2="729.82" class="up-wick"/>
<rect x="773.00" y="714.74" width="8.00" height="12.03" class="up-body"/>
<line x1="799.44" y1="714.63" x2="799.44" y2="744.05" class="down-wick"/>
<rect x="795.44" y="714.85" width="8.00" height="21.59" class="down-body"/>
<line x1="821.89" y1="727.42" x2="821.89" y2="744.44" class="up-wick"/>
<rect x="817.89" y="734.53" width="8.00" height="2.15" class="up-body"/>
<line x1="844.33" y1="734.30" x2="844.33" y2="749.33" class="down-wick"/>
<rect x="840.33" y="734.53" width="8.00" height="1.47" class="down-body"/>
<line x1="866.78" y1="728.06" x2="866.78" y2="737.50" class="up-wick"/>
<rect x="862.78" y="731.67" width="8.00" height="4.39" class="up-body"/>
<line x1="889.22" y1="718.36" x2="889.22" y2="738.06" class="up-wick"/>
<rect x="885.22" y="723.52" width="8.00" height="8.18" class="up-body"/>
<line x1="911.67" y1="716.51" x2="911.67" y2="726.90" class="down-wick"/>
<rect x="907.67" y="723.52" width="8.00" height="1.00" class="down-body"/>
<line x1="934.11" y1="722.16" x2="934.11" y2="737.87" class="down-wick"/>
<rect x="930.11" y="723.88" width="8.00" height="13.29" class="down-body"/>
<line x1="956.56" y1="732.17" x2="956.56" y2="739.53" class="down-wick"/>
<rect x="952.56" y="737.15" width="8.00" height="1.55" class="down-body"/>
<line x1="979.00" y1="732.50" x2="979.00" y2="743.23" class="up-wick"/>
<rect x="975.00" y="734.88" width="8.00" height="3.96" class="up-body"/>
<line x1="1001.44" y1="732.37" x2="1001.44" y2="743.94" class="up-wick"/>
<rect x="997.44" y="734.35" width="8.00" height="1.00" class="up-body"/>
<line x1="1023.89" y1="733.56" x2="1023.89" y2="748.14" class="down-wick"/>
<rect x="1019.89" y="734.35" width="8.00" height="8.79" class="down-body"/>
<line x1="1046.33" y1="732.62" x2="1046.33" y2="744.94" class="down-wick"/>
<rect x="1042.33" y="743.14" width="8.00" height="1.00" class="down-body"/>
<line x1="1068.78" y1="739.39" x2="1068.78" y2="750.09" class="down-wick"/>
<rect x="1064.78" y="743.25" width="8.00" height="6.85" class="down-body"/>
<line x1="70" y1="739.14" x2="1080" y2="739.14" class="number-line"/>
<text x="1076" y="735.14" text-anchor="end" class="level-label">round 4500.00</text>
<line x1="70" y1="739.14" x2="1080" y2="739.14" class="entry-line"/>
<text x="1076" y="735.14" text-anchor="end" class="level-label">entry level 4500.00</text>
<text x="70" y="806" class="axis-label">2026-03-20 19:15:00+00:00 to 2026-03-20 22:55:00+00:00</text>
<text x="1080" y="806" text-anchor="end" class="axis-label">4468.82 - 4591.35</text>
<text x="70" y="832" class="panel-title">M1 execution window</text>
<rect x="70" y="846" width="1010" height="192" class="plot-bg"/>
<line x1="74.47" y1="859.24" x2="74.47" y2="870.60" class="down-wick"/>
<rect x="71.56" y="860.53" width="5.81" height="9.25" class="down-body"/>
<line x1="83.41" y1="869.05" x2="83.41" y2="874.57" class="down-wick"/>
<rect x="80.50" y="870.98" width="5.81" height="2.26" class="down-body"/>
<line x1="92.35" y1="867.39" x2="92.35" y2="872.47" class="down-wick"/>
<rect x="89.44" y="870.12" width="5.81" height="2.08" class="down-body"/>
<line x1="101.28" y1="866.67" x2="101.28" y2="873.69" class="down-wick"/>
<rect x="98.38" y="869.32" width="5.81" height="1.86" class="down-body"/>
<line x1="110.22" y1="864.08" x2="110.22" y2="874.10" class="down-wick"/>
<rect x="107.32" y="866.40" width="5.81" height="7.69" class="down-body"/>
<line x1="119.16" y1="869.11" x2="119.16" y2="880.68" class="up-wick"/>
<rect x="116.25" y="870.43" width="5.81" height="8.98" class="up-body"/>
<line x1="128.10" y1="874.10" x2="128.10" y2="879.97" class="down-wick"/>
<rect x="125.19" y="874.74" width="5.81" height="5.08" class="down-body"/>
<line x1="137.04" y1="871.81" x2="137.04" y2="876.87" class="down-wick"/>
<rect x="134.13" y="871.81" width="5.81" height="4.42" class="down-body"/>
<line x1="145.97" y1="873.30" x2="145.97" y2="889.84" class="down-wick"/>
<rect x="143.07" y="874.91" width="5.81" height="8.59" class="down-body"/>
<line x1="154.91" y1="889.47" x2="154.91" y2="895.06" class="down-wick"/>
<rect x="152.01" y="893.40" width="5.81" height="1.00" class="down-body"/>
<line x1="163.85" y1="886.38" x2="163.85" y2="897.76" class="down-wick"/>
<rect x="160.94" y="892.27" width="5.81" height="4.32" class="down-body"/>
<line x1="172.79" y1="893.04" x2="172.79" y2="901.64" class="up-wick"/>
<rect x="169.88" y="895.17" width="5.81" height="5.31" class="up-body"/>
<line x1="181.73" y1="887.13" x2="181.73" y2="891.82" class="down-wick"/>
<rect x="178.82" y="891.11" width="5.81" height="1.00" class="down-body"/>
<line x1="190.66" y1="889.97" x2="190.66" y2="896.30" class="up-wick"/>
<rect x="187.76" y="890.80" width="5.81" height="1.00" class="up-body"/>
<line x1="199.60" y1="887.65" x2="199.60" y2="893.78" class="up-wick"/>
<rect x="196.70" y="887.65" width="5.81" height="3.01" class="up-body"/>
<line x1="208.54" y1="881.05" x2="208.54" y2="890.24" class="down-wick"/>
<rect x="205.63" y="885.88" width="5.81" height="4.32" class="down-body"/>
<line x1="217.48" y1="883.26" x2="217.48" y2="887.34" class="down-wick"/>
<rect x="214.57" y="884.47" width="5.81" height="2.32" class="down-body"/>
<line x1="226.42" y1="884.50" x2="226.42" y2="890.41" class="down-wick"/>
<rect x="223.51" y="885.72" width="5.81" height="3.17" class="down-body"/>
<line x1="235.35" y1="876.04" x2="235.35" y2="881.96" class="up-wick"/>
<rect x="232.45" y="877.07" width="5.81" height="3.92" class="up-body"/>
<line x1="244.29" y1="870.54" x2="244.29" y2="878.70" class="up-wick"/>
<rect x="241.39" y="870.92" width="5.81" height="6.02" class="up-body"/>
<line x1="253.23" y1="868.30" x2="253.23" y2="874.17" class="down-wick"/>
<rect x="250.33" y="869.24" width="5.81" height="3.79" class="down-body"/>
<line x1="262.17" y1="871.12" x2="262.17" y2="874.55" class="up-wick"/>
<rect x="259.26" y="872.04" width="5.81" height="1.57" class="up-body"/>
<line x1="271.11" y1="873.81" x2="271.11" y2="877.31" class="up-wick"/>
<rect x="268.20" y="874.22" width="5.81" height="1.08" class="up-body"/>
<line x1="280.04" y1="872.59" x2="280.04" y2="875.41" class="down-wick"/>
<rect x="277.14" y="872.84" width="5.81" height="1.77" class="down-body"/>
<line x1="288.98" y1="868.69" x2="288.98" y2="878.34" class="down-wick"/>
<rect x="286.08" y="869.19" width="5.81" height="7.79" class="down-body"/>
<line x1="297.92" y1="876.02" x2="297.92" y2="879.78" class="up-wick"/>
<rect x="295.02" y="878.03" width="5.81" height="1.00" class="up-body"/>
<line x1="306.86" y1="870.66" x2="306.86" y2="875.77" class="up-wick"/>
<rect x="303.95" y="872.03" width="5.81" height="1.68" class="up-body"/>
<line x1="315.80" y1="877.14" x2="315.80" y2="883.94" class="down-wick"/>
<rect x="312.89" y="877.14" width="5.81" height="6.02" class="down-body"/>
<line x1="324.73" y1="885.77" x2="324.73" y2="893.45" class="up-wick"/>
<rect x="321.83" y="887.49" width="5.81" height="5.74" class="up-body"/>
<line x1="333.67" y1="870.96" x2="333.67" y2="882.49" class="down-wick"/>
<rect x="330.77" y="877.62" width="5.81" height="4.20" class="down-body"/>
<line x1="342.61" y1="886.30" x2="342.61" y2="894.45" class="down-wick"/>
<rect x="339.71" y="890.24" width="5.81" height="3.42" class="down-body"/>
<line x1="351.55" y1="891.25" x2="351.55" y2="895.50" class="down-wick"/>
<rect x="348.64" y="893.49" width="5.81" height="1.16" class="down-body"/>
<line x1="360.49" y1="885.50" x2="360.49" y2="892.59" class="up-wick"/>
<rect x="357.58" y="886.22" width="5.81" height="6.35" class="up-body"/>
<line x1="369.42" y1="890.49" x2="369.42" y2="898.04" class="down-wick"/>
<rect x="366.52" y="893.57" width="5.81" height="4.14" class="down-body"/>
<line x1="378.36" y1="918.27" x2="378.36" y2="930.79" class="up-wick"/>
<rect x="375.46" y="918.36" width="5.81" height="9.51" class="up-body"/>
<line x1="387.30" y1="906.64" x2="387.30" y2="916.20" class="up-wick"/>
<rect x="384.40" y="907.75" width="5.81" height="8.12" class="up-body"/>
<line x1="396.24" y1="898.13" x2="396.24" y2="905.18" class="up-wick"/>
<rect x="393.33" y="900.17" width="5.81" height="1.61" class="up-body"/>
<line x1="405.18" y1="901.91" x2="405.18" y2="908.84" class="up-wick"/>
<rect x="402.27" y="903.88" width="5.81" height="1.00" class="up-body"/>
<line x1="414.12" y1="905.61" x2="414.12" y2="913.76" class="down-wick"/>
<rect x="411.21" y="908.02" width="5.81" height="5.47" class="down-body"/>
<line x1="423.05" y1="911.47" x2="423.05" y2="916.18" class="up-wick"/>
<rect x="420.15" y="912.35" width="5.81" height="1.68" class="up-body"/>
<line x1="431.99" y1="913.49" x2="431.99" y2="919.26" class="up-wick"/>
<rect x="429.09" y="915.51" width="5.81" height="1.77" class="up-body"/>
<line x1="440.93" y1="916.95" x2="440.93" y2="924.63" class="down-wick"/>
<rect x="438.02" y="920.54" width="5.81" height="3.90" class="down-body"/>
<line x1="449.87" y1="918.24" x2="449.87" y2="926.78" class="up-wick"/>
<rect x="446.96" y="919.52" width="5.81" height="7.25" class="up-body"/>
<line x1="458.81" y1="917.41" x2="458.81" y2="926.90" class="down-wick"/>
<rect x="455.90" y="919.99" width="5.81" height="6.03" class="down-body"/>
<line x1="467.74" y1="936.05" x2="467.74" y2="947.60" class="down-wick"/>
<rect x="464.84" y="937.06" width="5.81" height="9.43" class="down-body"/>
<line x1="476.68" y1="942.90" x2="476.68" y2="951.60" class="up-wick"/>
<rect x="473.78" y="947.08" width="5.81" height="1.08" class="up-body"/>
<line x1="485.62" y1="952.62" x2="485.62" y2="967.25" class="down-wick"/>
<rect x="482.71" y="952.63" width="5.81" height="10.08" class="down-body"/>
<line x1="494.56" y1="967.08" x2="494.56" y2="972.78" class="down-wick"/>
<rect x="491.65" y="969.32" width="5.81" height="2.57" class="down-body"/>
<line x1="503.50" y1="960.34" x2="503.50" y2="973.57" class="up-wick"/>
<rect x="500.59" y="965.57" width="5.81" height="7.57" class="up-body"/>
<line x1="512.43" y1="966.20" x2="512.43" y2="983.63" class="down-wick"/>
<rect x="509.53" y="969.40" width="5.81" height="14.21" class="down-body"/>
<line x1="521.37" y1="984.35" x2="521.37" y2="1016.61" class="down-wick"/>
<rect x="518.47" y="985.15" width="5.81" height="26.50" class="down-body"/>
<line x1="530.31" y1="1002.59" x2="530.31" y2="1024.76" class="up-wick"/>
<rect x="527.40" y="1003.39" width="5.81" height="8.90" class="up-body"/>
<line x1="539.25" y1="988.51" x2="539.25" y2="1000.13" class="up-wick"/>
<rect x="536.34" y="989.66" width="5.81" height="9.64" class="up-body"/>
<line x1="548.19" y1="968.57" x2="548.19" y2="980.34" class="up-wick"/>
<rect x="545.28" y="968.90" width="5.81" height="7.91" class="up-body"/>
<line x1="557.12" y1="968.14" x2="557.12" y2="979.13" class="down-wick"/>
<rect x="554.22" y="969.08" width="5.81" height="5.94" class="down-body"/>
<line x1="566.06" y1="985.30" x2="566.06" y2="993.86" class="down-wick"/>
<rect x="563.16" y="988.31" width="5.81" height="3.10" class="down-body"/>
<line x1="575.00" y1="987.78" x2="575.00" y2="1008.89" class="up-wick"/>
<rect x="572.10" y="992.23" width="5.81" height="14.26" class="up-body"/>
<line x1="583.94" y1="983.38" x2="583.94" y2="993.42" class="up-wick"/>
<rect x="581.03" y="985.02" width="5.81" height="2.12" class="up-body"/>
<line x1="592.88" y1="987.89" x2="592.88" y2="1003.24" class="down-wick"/>
<rect x="589.97" y="989.63" width="5.81" height="9.64" class="down-body"/>
<line x1="601.81" y1="986.76" x2="601.81" y2="994.06" class="up-wick"/>
<rect x="598.91" y="986.87" width="5.81" height="5.86" class="up-body"/>
<line x1="610.75" y1="976.83" x2="610.75" y2="989.19" class="up-wick"/>
<rect x="607.85" y="978.35" width="5.81" height="10.04" class="up-body"/>
<line x1="619.69" y1="984.32" x2="619.69" y2="1000.14" class="down-wick"/>
<rect x="616.79" y="986.49" width="5.81" height="3.76" class="down-body"/>
<line x1="628.63" y1="985.16" x2="628.63" y2="994.38" class="up-wick"/>
<rect x="625.72" y="986.92" width="5.81" height="5.01" class="up-body"/>
<line x1="637.57" y1="993.09" x2="637.57" y2="1005.39" class="down-wick"/>
<rect x="634.66" y="997.84" width="5.81" height="6.30" class="down-body"/>
<line x1="646.50" y1="996.07" x2="646.50" y2="1003.10" class="down-wick"/>
<rect x="643.60" y="1000.35" width="5.81" height="1.46" class="down-body"/>
<line x1="655.44" y1="1003.62" x2="655.44" y2="1011.85" class="down-wick"/>
<rect x="652.54" y="1008.09" width="5.81" height="2.04" class="down-body"/>
<line x1="664.38" y1="990.68" x2="664.38" y2="1002.55" class="up-wick"/>
<rect x="661.48" y="994.70" width="5.81" height="7.52" class="up-body"/>
<line x1="673.32" y1="990.72" x2="673.32" y2="997.13" class="up-wick"/>
<rect x="670.41" y="991.45" width="5.81" height="2.85" class="up-body"/>
<line x1="682.26" y1="976.98" x2="682.26" y2="986.20" class="down-wick"/>
<rect x="679.35" y="978.75" width="5.81" height="6.99" class="down-body"/>
<line x1="691.19" y1="973.61" x2="691.19" y2="986.76" class="up-wick"/>
<rect x="688.29" y="980.16" width="5.81" height="5.61" class="up-body"/>
<line x1="700.13" y1="989.11" x2="700.13" y2="1001.35" class="down-wick"/>
<rect x="697.23" y="992.45" width="5.81" height="5.41" class="down-body"/>
<line x1="709.07" y1="983.83" x2="709.07" y2="999.26" class="up-wick"/>
<rect x="706.17" y="983.88" width="5.81" height="11.14" class="up-body"/>
<line x1="718.01" y1="973.82" x2="718.01" y2="981.78" class="up-wick"/>
<rect x="715.10" y="974.58" width="5.81" height="7.16" class="up-body"/>
<line x1="726.95" y1="973.91" x2="726.95" y2="982.91" class="down-wick"/>
<rect x="724.04" y="975.48" width="5.81" height="3.93" class="down-body"/>
<line x1="735.88" y1="973.00" x2="735.88" y2="981.59" class="up-wick"/>
<rect x="732.98" y="976.59" width="5.81" height="4.61" class="up-body"/>
<line x1="744.82" y1="966.58" x2="744.82" y2="975.68" class="down-wick"/>
<rect x="741.92" y="966.61" width="5.81" height="8.04" class="down-body"/>
<line x1="753.76" y1="966.45" x2="753.76" y2="976.36" class="up-wick"/>
<rect x="750.86" y="966.92" width="5.81" height="5.94" class="up-body"/>
<line x1="762.70" y1="972.16" x2="762.70" y2="978.19" class="down-wick"/>
<rect x="759.79" y="973.94" width="5.81" height="2.84" class="down-body"/>
<line x1="771.64" y1="969.74" x2="771.64" y2="976.78" class="down-wick"/>
<rect x="768.73" y="974.29" width="5.81" height="1.00" class="down-body"/>
<line x1="780.58" y1="966.77" x2="780.58" y2="976.28" class="up-wick"/>
<rect x="777.67" y="970.13" width="5.81" height="1.00" class="up-body"/>
<line x1="789.51" y1="964.63" x2="789.51" y2="975.02" class="down-wick"/>
<rect x="786.61" y="964.85" width="5.81" height="6.19" class="down-body"/>
<line x1="798.45" y1="978.11" x2="798.45" y2="992.48" class="up-wick"/>
<rect x="795.55" y="980.40" width="5.81" height="7.18" class="up-body"/>
<line x1="807.39" y1="982.69" x2="807.39" y2="994.05" class="down-wick"/>
<rect x="804.48" y="982.69" width="5.81" height="3.76" class="down-body"/>
<line x1="816.33" y1="982.69" x2="816.33" y2="992.54" class="up-wick"/>
<rect x="813.42" y="986.31" width="5.81" height="3.81" class="up-body"/>
<line x1="825.27" y1="977.42" x2="825.27" y2="989.08" class="up-wick"/>
<rect x="822.36" y="980.73" width="5.81" height="2.44" class="up-body"/>
<line x1="834.20" y1="984.30" x2="834.20" y2="995.00" class="down-wick"/>
<rect x="831.30" y="984.53" width="5.81" height="10.40" class="down-body"/>
<line x1="843.14" y1="991.45" x2="843.14" y2="995.57" class="down-wick"/>
<rect x="840.24" y="993.12" width="5.81" height="2.13" class="down-body"/>
<line x1="852.08" y1="985.49" x2="852.08" y2="995.19" class="up-wick"/>
<rect x="849.17" y="986.01" width="5.81" height="8.98" class="up-body"/>
<line x1="861.02" y1="981.23" x2="861.02" y2="986.62" class="up-wick"/>
<rect x="858.11" y="982.50" width="5.81" height="2.16" class="up-body"/>
<line x1="869.96" y1="980.79" x2="869.96" y2="985.48" class="down-wick"/>
<rect x="867.05" y="982.61" width="5.81" height="2.01" class="down-body"/>
<line x1="878.89" y1="980.52" x2="878.89" y2="983.33" class="down-wick"/>
<rect x="875.99" y="981.70" width="5.81" height="1.58" class="down-body"/>
<line x1="887.83" y1="973.63" x2="887.83" y2="982.58" class="up-wick"/>
<rect x="884.93" y="974.13" width="5.81" height="7.52" class="up-body"/>
<line x1="896.77" y1="970.01" x2="896.77" y2="976.67" class="down-wick"/>
<rect x="893.87" y="970.15" width="5.81" height="3.37" class="down-body"/>
<line x1="905.71" y1="966.51" x2="905.71" y2="972.85" class="up-wick"/>
<rect x="902.80" y="970.13" width="5.81" height="1.00" class="up-body"/>
<line x1="914.65" y1="971.58" x2="914.65" y2="976.90" class="up-wick"/>
<rect x="911.74" y="971.81" width="5.81" height="3.78" class="up-body"/>
<line x1="923.58" y1="972.89" x2="923.58" y2="976.61" class="up-wick"/>
<rect x="920.68" y="973.17" width="5.81" height="1.00" class="up-body"/>
<line x1="932.52" y1="973.82" x2="932.52" y2="976.23" class="down-wick"/>
<rect x="929.62" y="974.16" width="5.81" height="1.85" class="down-body"/>
<line x1="941.46" y1="981.71" x2="941.46" y2="987.87" class="down-wick"/>
<rect x="938.56" y="981.73" width="5.81" height="5.44" class="down-body"/>
<line x1="950.40" y1="984.80" x2="950.40" y2="988.67" class="down-wick"/>
<rect x="947.49" y="986.32" width="5.81" height="1.07" class="down-body"/>
<line x1="959.34" y1="982.17" x2="959.34" y2="986.56" class="down-wick"/>
<rect x="956.43" y="983.77" width="5.81" height="2.40" class="down-body"/>
<line x1="968.27" y1="985.16" x2="968.27" y2="989.97" class="up-wick"/>
<rect x="965.37" y="986.62" width="5.81" height="2.23" class="up-body"/>
<line x1="977.21" y1="983.94" x2="977.21" y2="991.65" class="up-wick"/>
<rect x="974.31" y="986.54" width="5.81" height="3.24" class="up-body"/>
<line x1="986.15" y1="982.50" x2="986.15" y2="988.01" class="up-wick"/>
<rect x="983.25" y="984.88" width="5.81" height="2.96" class="up-body"/>
<line x1="995.09" y1="986.27" x2="995.09" y2="993.94" class="down-wick"/>
<rect x="992.18" y="987.43" width="5.81" height="4.62" class="down-body"/>
<line x1="1004.03" y1="987.32" x2="1004.03" y2="992.21" class="down-wick"/>
<rect x="1001.12" y="989.66" width="5.81" height="1.00" class="down-body"/>
<line x1="1012.96" y1="983.56" x2="1012.96" y2="991.60" class="down-wick"/>
<rect x="1010.06" y="984.35" width="5.81" height="6.66" class="down-body"/>
<line x1="1021.90" y1="991.23" x2="1021.90" y2="994.33" class="down-wick"/>
<rect x="1019.00" y="992.97" width="5.81" height="1.27" class="down-body"/>
<line x1="1030.84" y1="991.88" x2="1030.84" y2="998.14" class="down-wick"/>
<rect x="1027.94" y="992.10" width="5.81" height="1.03" class="down-body"/>
<line x1="1039.78" y1="984.32" x2="1039.78" y2="990.98" class="up-wick"/>
<rect x="1036.87" y="985.24" width="5.81" height="5.33" class="up-body"/>
<line x1="1048.72" y1="985.71" x2="1048.72" y2="989.56" class="down-wick"/>
<rect x="1045.81" y="985.79" width="5.81" height="1.55" class="down-body"/>
<line x1="1057.65" y1="989.39" x2="1057.65" y2="993.33" class="up-wick"/>
<rect x="1054.75" y="991.57" width="5.81" height="1.68" class="up-body"/>
<line x1="1066.59" y1="991.41" x2="1066.59" y2="993.65" class="up-wick"/>
<rect x="1063.69" y="992.04" width="5.81" height="1.00" class="up-body"/>
<line x1="1075.53" y1="997.38" x2="1075.53" y2="1000.09" class="down-wick"/>
<rect x="1072.63" y="998.18" width="5.81" height="1.91" class="down-body"/>
<line x1="70" y1="989.14" x2="1080" y2="989.14" class="number-line"/>
<text x="1076" y="985.14" text-anchor="end" class="level-label">round 4500.00</text>
<line x1="70" y1="989.14" x2="1080" y2="989.14" class="entry-line"/>
<text x="1076" y="985.14" text-anchor="end" class="level-label">entry level 4500.00</text>
<text x="70" y="1056" class="axis-label">2026-03-20 19:15:00+00:00 to 2026-03-20 22:59:00+00:00</text>
<text x="1080" y="1056" text-anchor="end" class="axis-label">4468.82 - 4591.35</text>
</svg>