<svg xmlns="http://www.w3.org/2000/svg" width="1120" height="1054" viewBox="0 0 1120 1054">
<style>
text{font-family:Arial,Helvetica,sans-serif}.title{font-size:21px;font-weight:700;fill:#1f2937}.subtitle{font-size:12px;fill:#4b5563}.panel-title{font-size:15px;font-weight:700;fill:#111827}.muted{font-size:13px;fill:#6b7280}.plot-bg{fill:#f8fafc;stroke:#cbd5e1;stroke-width:1}.up-body{fill:#15803d;stroke:#14532d;stroke-width:.8}.down-body{fill:#b91c1c;stroke:#7f1d1d;stroke-width:.8}.up-wick{stroke:#14532d;stroke-width:1}.down-wick{stroke:#7f1d1d;stroke-width:1}.sweep-line{stroke:#7c3aed;stroke-width:1.6;stroke-dasharray:6 4}.number-line{stroke:#0f766e;stroke-width:1.4;stroke-dasharray:3 4}.entry-line{stroke:#2563eb;stroke-width:1.4}.sl-line{stroke:#dc2626;stroke-width:1.4}.tp-line{stroke:#16a34a;stroke-width:1.4}.level-label,.axis-label{font-size:11px;fill:#374151}
</style>
<text x="28" y="28" class="title">Adelin v2 visual review sample sample_291</text>
<text x="28" y="48" class="subtitle">Candidate windows are for visual labeling only and are not trade signals.</text>
<text x="560" y="48" class="subtitle" text-anchor="middle">NUMBER_THEORY_LEVEL_NEAR | ROUND_LEVEL_ENTRY_METADATA_AVAILABLE</text>
<text x="70" y="82" class="panel-title">H1 liquidity context</text>
<rect x="70" y="96" width="1010" height="192" class="plot-bg"/>
<line x1="81.48" y1="174.29" x2="81.48" y2="208.25" class="up-wick"/>
<rect x="77.48" y="180.76" width="8.00" height="18.43" class="up-body"/>
<line x1="104.43" y1="167.87" x2="104.43" y2="209.49" class="down-wick"/>
<rect x="100.43" y="180.78" width="8.00" height="10.07" class="down-body"/>
<line x1="127.39" y1="188.56" x2="127.39" y2="243.88" class="down-wick"/>
<rect x="123.39" y="190.83" width="8.00" height="45.88" class="down-body"/>
<line x1="150.34" y1="233.49" x2="150.34" y2="252.84" class="down-wick"/>
<rect x="146.34" y="236.70" width="8.00" height="9.14" class="down-body"/>
<line x1="173.30" y1="236.42" x2="173.30" y2="274.76" class="up-wick"/>
<rect x="169.30" y="241.17" width="8.00" height="4.71" class="up-body"/>
<line x1="196.25" y1="215.37" x2="196.25" y2="250.84" class="up-wick"/>
<rect x="192.25" y="217.27" width="8.00" height="23.86" class="up-body"/>
<line x1="219.20" y1="213.93" x2="219.20" y2="256.67" class="down-wick"/>
<rect x="215.20" y="217.27" width="8.00" height="29.23" class="down-body"/>
<line x1="242.16" y1="199.41" x2="242.16" y2="248.09" class="up-wick"/>
<rect x="238.16" y="200.99" width="8.00" height="45.51" class="up-body"/>
<line x1="265.11" y1="195.24" x2="265.11" y2="219.90" class="down-wick"/>
<rect x="261.11" y="200.99" width="8.00" height="7.42" class="down-body"/>
<line x1="288.07" y1="196.54" x2="288.07" y2="231.57" class="down-wick"/>
<rect x="284.07" y="208.41" width="8.00" height="17.48" class="down-body"/>
<line x1="311.02" y1="217.71" x2="311.02" y2="241.03" class="down-wick"/>
<rect x="307.02" y="225.90" width="8.00" height="8.68" class="down-body"/>
<line x1="333.98" y1="155.46" x2="333.98" y2="234.68" class="up-wick"/>
<rect x="329.98" y="176.23" width="8.00" height="58.35" class="up-body"/>
<line x1="356.93" y1="166.45" x2="356.93" y2="209.29" class="down-wick"/>
<rect x="352.93" y="176.17" width="8.00" height="12.39" class="down-body"/>
<line x1="379.89" y1="154.92" x2="379.89" y2="210.72" class="up-wick"/>
<rect x="375.89" y="166.67" width="8.00" height="21.43" class="up-body"/>
<line x1="402.84" y1="109.24" x2="402.84" y2="176.35" class="up-wick"/>
<rect x="398.84" y="137.11" width="8.00" height="29.55" class="up-body"/>
<line x1="425.80" y1="122.66" x2="425.80" y2="160.47" class="up-wick"/>
<rect x="421.80" y="135.71" width="8.00" height="1.40" class="up-body"/>
<line x1="448.75" y1="130.49" x2="448.75" y2="151.85" class="down-wick"/>
<rect x="444.75" y="135.71" width="8.00" height="1.00" class="down-body"/>
<line x1="471.70" y1="129.61" x2="471.70" y2="152.05" class="down-wick"/>
<rect x="467.70" y="136.11" width="8.00" height="7.12" class="down-body"/>
<line x1="494.66" y1="140.32" x2="494.66" y2="156.72" class="down-wick"/>
<rect x="490.66" y="143.23" width="8.00" height="1.30" class="down-body"/>
<line x1="517.61" y1="137.77" x2="517.61" y2="162.64" class="down-wick"/>
<rect x="513.61" y="144.51" width="8.00" height="12.53" class="down-body"/>
<line x1="540.57" y1="190.37" x2="540.57" y2="230.21" class="down-wick"/>
<rect x="536.57" y="193.49" width="8.00" height="27.23" class="down-body"/>
<line x1="563.52" y1="220.32" x2="563.52" y2="240.53" class="down-wick"/>
<rect x="559.52" y="220.72" width="8.00" height="9.48" class="down-body"/>
<line x1="586.48" y1="193.63" x2="586.48" y2="246.05" class="up-wick"/>
<rect x="582.48" y="194.50" width="8.00" height="35.71" class="up-body"/>
<line x1="609.43" y1="170.60" x2="609.43" y2="208.45" class="up-wick"/>
<rect x="605.43" y="184.53" width="8.00" height="9.95" class="up-body"/>
<line x1="632.39" y1="142.91" x2="632.39" y2="197.56" class="up-wick"/>
<rect x="628.39" y="153.35" width="8.00" height="31.18" class="up-body"/>
<line x1="655.34" y1="131.00" x2="655.34" y2="160.97" class="up-wick"/>
<rect x="651.34" y="141.56" width="8.00" height="11.95" class="up-body"/>
<line x1="678.30" y1="129.65" x2="678.30" y2="144.35" class="up-wick"/>
<rect x="674.30" y="139.86" width="8.00" height="1.70" class="up-body"/>
<line x1="701.25" y1="138.84" x2="701.25" y2="172.38" class="down-wick"/>
<rect x="697.25" y="139.82" width="8.00" height="30.10" class="down-body"/>
<line x1="724.20" y1="158.67" x2="724.20" y2="171.50" class="up-wick"/>
<rect x="720.20" y="164.30" width="8.00" height="5.59" class="up-body"/>
<line x1="747.16" y1="153.13" x2="747.16" y2="169.83" class="up-wick"/>
<rect x="743.16" y="163.22" width="8.00" height="1.04" class="up-body"/>
<line x1="770.11" y1="160.41" x2="770.11" y2="179.36" class="down-wick"/>
<rect x="766.11" y="163.22" width="8.00" height="13.13" class="down-body"/>
<line x1="793.07" y1="173.40" x2="793.07" y2="190.93" class="down-wick"/>
<rect x="789.07" y="176.25" width="8.00" height="6.56" class="down-body"/>
<line x1="816.02" y1="168.09" x2="816.02" y2="191.03" class="up-wick"/>
<rect x="812.02" y="172.42" width="8.00" height="10.35" class="up-body"/>
<line x1="838.98" y1="171.72" x2="838.98" y2="189.76" class="down-wick"/>
<rect x="834.98" y="172.34" width="8.00" height="8.04" class="down-body"/>
<line x1="861.93" y1="164.68" x2="861.93" y2="196.20" class="down-wick"/>
<rect x="857.93" y="180.36" width="8.00" height="11.25" class="down-body"/>
<line x1="884.89" y1="183.09" x2="884.89" y2="211.46" class="down-wick"/>
<rect x="880.89" y="191.31" width="8.00" height="6.38" class="down-body"/>
<line x1="907.84" y1="196.56" x2="907.84" y2="237.04" class="down-wick"/>
<rect x="903.84" y="197.68" width="8.00" height="36.29" class="down-body"/>
<line x1="930.80" y1="225.01" x2="930.80" y2="255.73" class="down-wick"/>
<rect x="926.80" y="233.98" width="8.00" height="16.12" class="down-body"/>
<line x1="953.75" y1="231.11" x2="953.75" y2="255.75" class="up-wick"/>
<rect x="949.75" y="236.76" width="8.00" height="13.33" class="up-body"/>
<line x1="976.70" y1="217.77" x2="976.70" y2="253.81" class="up-wick"/>
<rect x="972.70" y="225.69" width="8.00" height="11.07" class="up-body"/>
<line x1="999.66" y1="219.16" x2="999.66" y2="232.19" class="down-wick"/>
<rect x="995.66" y="225.69" width="8.00" height="3.05" class="down-body"/>
<line x1="1022.61" y1="224.73" x2="1022.61" y2="236.80" class="up-wick"/>
<rect x="1018.61" y="228.40" width="8.00" height="1.00" class="up-body"/>
<line x1="1045.57" y1="207.65" x2="1045.57" y2="227.54" class="up-wick"/>
<rect x="1041.57" y="214.23" width="8.00" height="12.51" class="up-body"/>
<line x1="1068.52" y1="200.05" x2="1068.52" y2="215.59" class="up-wick"/>
<rect x="1064.52" y="206.33" width="8.00" height="7.90" class="up-body"/>
<line x1="70" y1="230.13" x2="1080" y2="230.13" class="number-line"/>
<text x="1076" y="226.13" text-anchor="end" class="level-label">round 4680.00</text>
<line x1="70" y1="230.13" x2="1080" y2="230.13" class="entry-line"/>
<text x="1076" y="226.13" text-anchor="end" class="level-label">entry level 4680.00</text>
<text x="70" y="306" class="axis-label">2026-04-24 03:00:00+00:00 to 2026-04-28 02:00:00+00:00</text>
<text x="1080" y="306" text-anchor="end" class="axis-label">4651.14 - 4746.89</text>
<text x="70" y="332" class="panel-title">M15 liquidity / reaction context</text>
<rect x="70" y="346" width="1010" height="192" class="plot-bg"/>
<line x1="85.78" y1="445.58" x2="85.78" y2="502.23" class="down-wick"/>
<rect x="81.78" y="450.03" width="8.00" height="36.98" class="down-body"/>
<line x1="117.34" y1="477.46" x2="117.34" y2="493.59" class="up-wick"/>
<rect x="113.34" y="482.50" width="8.00" height="4.19" class="up-body"/>
<line x1="148.91" y1="482.45" x2="148.91" y2="495.99" class="down-wick"/>
<rect x="144.91" y="482.50" width="8.00" height="6.30" class="down-body"/>
<line x1="180.47" y1="484.95" x2="180.47" y2="496.79" class="up-wick"/>
<rect x="176.47" y="488.75" width="8.00" height="1.00" class="up-body"/>
<line x1="212.03" y1="488.18" x2="212.03" y2="509.13" class="down-wick"/>
<rect x="208.03" y="488.75" width="8.00" height="2.77" class="down-body"/>
<line x1="243.59" y1="489.09" x2="243.59" y2="510.36" class="down-wick"/>
<rect x="239.59" y="491.54" width="8.00" height="18.31" class="down-body"/>
<line x1="275.16" y1="502.12" x2="275.16" y2="516.92" class="down-wick"/>
<rect x="271.16" y="509.85" width="8.00" height="1.37" class="down-body"/>
<line x1="306.72" y1="496.05" x2="306.72" y2="511.27" class="up-wick"/>
<rect x="302.72" y="502.23" width="8.00" height="8.98" class="up-body"/>
<line x1="338.28" y1="498.90" x2="338.28" y2="524.76" class="down-wick"/>
<rect x="334.28" y="502.23" width="8.00" height="1.00" class="down-body"/>
<line x1="369.84" y1="495.82" x2="369.84" y2="508.76" class="up-wick"/>
<rect x="365.84" y="499.78" width="8.00" height="2.85" class="up-body"/>
<line x1="401.41" y1="497.73" x2="401.41" y2="511.33" class="down-wick"/>
<rect x="397.41" y="499.78" width="8.00" height="1.00" class="down-body"/>
<line x1="432.97" y1="450.23" x2="432.97" y2="500.55" class="up-wick"/>
<rect x="428.97" y="451.45" width="8.00" height="49.10" class="up-body"/>
<line x1="464.53" y1="417.46" x2="464.53" y2="467.42" class="down-wick"/>
<rect x="460.53" y="451.42" width="8.00" height="14.20" class="down-body"/>
<line x1="496.09" y1="448.71" x2="496.09" y2="471.30" class="up-wick"/>
<rect x="492.09" y="450.74" width="8.00" height="14.88" class="up-body"/>
<line x1="527.66" y1="442.58" x2="527.66" y2="457.38" class="down-wick"/>
<rect x="523.66" y="450.68" width="8.00" height="1.00" class="down-body"/>
<line x1="559.22" y1="426.65" x2="559.22" y2="451.57" class="up-wick"/>
<rect x="555.22" y="437.28" width="8.00" height="13.80" class="up-body"/>
<line x1="590.78" y1="425.76" x2="590.78" y2="455.81" class="down-wick"/>
<rect x="586.78" y="437.28" width="8.00" height="8.90" class="down-body"/>
<line x1="622.34" y1="421.54" x2="622.34" y2="448.12" class="up-wick"/>
<rect x="618.34" y="428.73" width="8.00" height="17.48" class="up-body"/>
<line x1="653.91" y1="403.58" x2="653.91" y2="432.46" class="up-wick"/>
<rect x="649.91" y="406.77" width="8.00" height="21.95" class="up-body"/>
<line x1="685.47" y1="378.09" x2="685.47" y2="410.42" class="up-wick"/>
<rect x="681.47" y="392.94" width="8.00" height="13.66" class="up-body"/>
<line x1="717.03" y1="381.48" x2="717.03" y2="398.30" class="down-wick"/>
<rect x="713.03" y="393.17" width="8.00" height="1.00" class="down-body"/>
<line x1="748.59" y1="392.26" x2="748.59" y2="403.78" class="down-wick"/>
<rect x="744.59" y="394.06" width="8.00" height="6.24" class="down-body"/>
<line x1="780.16" y1="361.15" x2="780.16" y2="400.93" class="up-wick"/>
<rect x="776.16" y="364.12" width="8.00" height="36.04" class="up-body"/>
<line x1="811.72" y1="362.95" x2="811.72" y2="380.74" class="down-wick"/>
<rect x="807.72" y="364.12" width="8.00" height="12.06" class="down-body"/>
<line x1="843.28" y1="364.86" x2="843.28" y2="377.35" class="up-wick"/>
<rect x="839.28" y="366.65" width="8.00" height="9.52" class="up-body"/>
<line x1="874.84" y1="365.29" x2="874.84" y2="373.75" class="down-wick"/>
<rect x="870.84" y="366.65" width="8.00" height="1.57" class="down-body"/>
<line x1="906.41" y1="359.24" x2="906.41" y2="372.59" class="down-wick"/>
<rect x="902.41" y="368.22" width="8.00" height="1.91" class="down-body"/>
<line x1="937.97" y1="369.05" x2="937.97" y2="380.14" class="down-wick"/>
<rect x="933.97" y="370.13" width="8.00" height="3.62" class="down-body"/>
<line x1="969.53" y1="372.30" x2="969.53" y2="393.34" class="down-wick"/>
<rect x="965.53" y="373.70" width="8.00" height="18.90" class="down-body"/>
<line x1="1001.09" y1="388.58" x2="1001.09" y2="399.05" class="down-wick"/>
<rect x="997.09" y="392.60" width="8.00" height="1.00" class="down-body"/>
<line x1="1032.66" y1="393.00" x2="1032.66" y2="419.38" class="down-wick"/>
<rect x="1028.66" y="393.34" width="8.00" height="18.90" class="down-body"/>
<line x1="1064.22" y1="406.09" x2="1064.22" y2="420.00" class="down-wick"/>
<rect x="1060.22" y="412.25" width="8.00" height="4.25" class="down-body"/>
<line x1="70" y1="502.12" x2="1080" y2="502.12" class="number-line"/>
<text x="1076" y="498.12" text-anchor="end" class="level-label">round 4680.00</text>
<line x1="70" y1="502.12" x2="1080" y2="502.12" class="entry-line"/>
<text x="1076" y="498.12" text-anchor="end" class="level-label">entry level 4680.00</text>
<text x="70" y="556" class="axis-label">2026-04-27 01:00:00+00:00 to 2026-04-27 08:45:00+00:00</text>
<text x="1080" y="556" text-anchor="end" class="axis-label">4667.42 - 4734.75</text>
<text x="70" y="582" class="panel-title">M5 reaction / execution context</text>
<rect x="70" y="596" width="1010" height="192" class="plot-bg"/>
<line x1="79.18" y1="716.53" x2="79.18" y2="732.68" class="up-wick"/>
<rect x="75.18" y="716.53" width="8.00" height="11.37" class="up-body"/>
<line x1="97.55" y1="716.53" x2="97.55" y2="735.59" class="down-wick"/>
<rect x="93.55" y="716.53" width="8.00" height="13.79" class="down-body"/>
<line x1="115.91" y1="720.53" x2="115.91" y2="736.40" class="up-wick"/>
<rect x="111.91" y="722.74" width="8.00" height="7.19" class="up-body"/>
<line x1="134.27" y1="722.67" x2="134.27" y2="739.35" class="down-wick"/>
<rect x="130.27" y="722.74" width="8.00" height="11.79" class="down-body"/>
<line x1="152.64" y1="724.85" x2="152.64" y2="735.13" class="up-wick"/>
<rect x="148.64" y="725.27" width="8.00" height="9.27" class="up-body"/>
<line x1="171.00" y1="724.85" x2="171.00" y2="732.78" class="down-wick"/>
<rect x="167.00" y="725.27" width="8.00" height="5.23" class="down-body"/>
<line x1="189.36" y1="726.89" x2="189.36" y2="734.26" class="up-wick"/>
<rect x="185.36" y="729.38" width="8.00" height="1.12" class="up-body"/>
<line x1="207.73" y1="726.92" x2="207.73" y2="740.33" class="down-wick"/>
<rect x="203.73" y="729.45" width="8.00" height="1.68" class="down-body"/>
<line x1="226.09" y1="725.76" x2="226.09" y2="733.84" class="up-wick"/>
<rect x="222.09" y="730.43" width="8.00" height="1.00" class="up-body"/>
<line x1="244.45" y1="730.43" x2="244.45" y2="755.53" class="down-wick"/>
<rect x="240.45" y="730.43" width="8.00" height="11.69" class="down-body"/>
<line x1="262.82" y1="731.24" x2="262.82" y2="742.19" class="up-wick"/>
<rect x="258.82" y="735.13" width="8.00" height="7.05" class="up-body"/>
<line x1="281.18" y1="729.73" x2="281.18" y2="736.36" class="up-wick"/>
<rect x="277.18" y="733.84" width="8.00" height="1.30" class="up-body"/>
<line x1="299.55" y1="730.85" x2="299.55" y2="735.10" class="down-wick"/>
<rect x="295.55" y="733.87" width="8.00" height="1.00" class="down-body"/>
<line x1="317.91" y1="733.59" x2="317.91" y2="742.93" class="down-wick"/>
<rect x="313.91" y="734.33" width="8.00" height="3.58" class="down-body"/>
<line x1="336.27" y1="737.80" x2="336.27" y2="757.03" class="down-wick"/>
<rect x="332.27" y="737.87" width="8.00" height="18.53" class="down-body"/>
<line x1="354.64" y1="747.98" x2="354.64" y2="759.46" class="up-wick"/>
<rect x="350.64" y="750.58" width="8.00" height="5.83" class="up-body"/>
<line x1="373.00" y1="746.89" x2="373.00" y2="762.97" class="down-wick"/>
<rect x="369.00" y="750.58" width="8.00" height="8.00" class="down-body"/>
<line x1="391.36" y1="753.38" x2="391.36" y2="765.11" class="up-wick"/>
<rect x="387.36" y="758.09" width="8.00" height="1.00" class="up-body"/>
<line x1="409.73" y1="739.42" x2="409.73" y2="758.16" class="up-wick"/>
<rect x="405.73" y="744.68" width="8.00" height="13.41" class="up-body"/>
<line x1="428.09" y1="740.54" x2="428.09" y2="750.37" class="up-wick"/>
<rect x="424.09" y="742.82" width="8.00" height="1.86" class="up-body"/>
<line x1="446.45" y1="740.40" x2="446.45" y2="747.84" class="down-wick"/>
<rect x="442.45" y="742.82" width="8.00" height="4.21" class="down-body"/>
<line x1="464.82" y1="742.93" x2="464.82" y2="763.25" class="down-wick"/>
<rect x="460.82" y="747.03" width="8.00" height="3.09" class="down-body"/>
<line x1="483.18" y1="748.01" x2="483.18" y2="774.76" class="down-wick"/>
<rect x="479.18" y="750.02" width="8.00" height="11.41" class="down-body"/>
<line x1="501.55" y1="747.35" x2="501.55" y2="761.95" class="up-wick"/>
<rect x="497.55" y="747.52" width="8.00" height="13.90" class="up-body"/>
<line x1="519.91" y1="742.05" x2="519.91" y2="754.58" class="down-wick"/>
<rect x="515.91" y="747.52" width="8.00" height="3.47" class="down-body"/>
<line x1="538.27" y1="745.73" x2="538.27" y2="755.07" class="up-wick"/>
<rect x="534.27" y="750.51" width="8.00" height="1.00" class="up-body"/>
<line x1="556.64" y1="739.14" x2="556.64" y2="754.68" class="up-wick"/>
<rect x="552.64" y="744.01" width="8.00" height="5.30" class="up-body"/>
<line x1="575.00" y1="741.49" x2="575.00" y2="756.54" class="down-wick"/>
<rect x="571.00" y="744.01" width="8.00" height="9.37" class="down-body"/>
<line x1="593.36" y1="749.03" x2="593.36" y2="758.23" class="up-wick"/>
<rect x="589.36" y="749.59" width="8.00" height="3.76" class="up-body"/>
<line x1="611.73" y1="743.63" x2="611.73" y2="753.67" class="up-wick"/>
<rect x="607.73" y="744.96" width="8.00" height="4.60" class="up-body"/>
<line x1="630.09" y1="736.19" x2="630.09" y2="744.96" class="up-wick"/>
<rect x="626.09" y="738.33" width="8.00" height="6.63" class="up-body"/>
<line x1="648.45" y1="715.62" x2="648.45" y2="738.50" class="up-wick"/>
<rect x="644.45" y="717.06" width="8.00" height="21.16" class="up-body"/>
<line x1="666.82" y1="683.02" x2="666.82" y2="717.06" class="up-wick"/>
<rect x="662.82" y="684.52" width="8.00" height="32.53" class="up-body"/>
<line x1="685.18" y1="642.69" x2="685.18" y2="695.30" class="up-wick"/>
<rect x="681.18" y="648.62" width="8.00" height="35.87" class="up-body"/>
<line x1="703.55" y1="645.92" x2="703.55" y2="687.30" class="down-wick"/>
<rect x="699.55" y="648.62" width="8.00" height="34.32" class="down-body"/>
<line x1="721.91" y1="668.27" x2="721.91" y2="704.18" class="down-wick"/>
<rect x="717.91" y="682.73" width="8.00" height="19.23" class="down-body"/>
<line x1="740.27" y1="688.77" x2="740.27" y2="708.95" class="up-wick"/>
<rect x="736.27" y="691.30" width="8.00" height="10.67" class="up-body"/>
<line x1="758.64" y1="681.16" x2="758.64" y2="696.18" class="up-wick"/>
<rect x="754.64" y="687.47" width="8.00" height="3.83" class="up-body"/>
<line x1="777.00" y1="683.44" x2="777.00" y2="702.00" class="up-wick"/>
<rect x="773.00" y="683.65" width="8.00" height="3.83" class="up-body"/>
<line x1="795.36" y1="673.61" x2="795.36" y2="691.82" class="down-wick"/>
<rect x="791.36" y="683.58" width="8.00" height="2.04" class="down-body"/>
<line x1="813.73" y1="677.05" x2="813.73" y2="689.61" class="up-wick"/>
<rect x="809.73" y="677.33" width="8.00" height="8.28" class="up-body"/>
<line x1="832.09" y1="675.19" x2="832.09" y2="688.10" class="down-wick"/>
<rect x="828.09" y="677.33" width="8.00" height="6.74" class="down-body"/>
<line x1="850.45" y1="670.20" x2="850.45" y2="684.66" class="up-wick"/>
<rect x="846.45" y="670.87" width="8.00" height="13.20" class="up-body"/>
<line x1="868.82" y1="653.99" x2="868.82" y2="671.78" class="up-wick"/>
<rect x="864.82" y="666.70" width="8.00" height="4.18" class="up-body"/>
<line x1="887.18" y1="661.43" x2="887.18" y2="676.73" class="down-wick"/>
<rect x="883.18" y="666.80" width="8.00" height="1.00" class="down-body"/>
<line x1="905.55" y1="652.90" x2="905.55" y2="673.71" class="down-wick"/>
<rect x="901.55" y="667.08" width="8.00" height="1.86" class="down-body"/>
<line x1="923.91" y1="668.77" x2="923.91" y2="688.67" class="down-wick"/>
<rect x="919.91" y="668.94" width="8.00" height="12.74" class="down-body"/>
<line x1="942.27" y1="675.75" x2="942.27" y2="689.89" class="up-wick"/>
<rect x="938.27" y="678.03" width="8.00" height="3.76" class="up-body"/>
<line x1="960.64" y1="647.71" x2="960.64" y2="680.42" class="up-wick"/>
<rect x="956.64" y="658.24" width="8.00" height="19.83" class="up-body"/>
<line x1="979.00" y1="651.22" x2="979.00" y2="661.47" class="up-wick"/>
<rect x="975.00" y="657.82" width="8.00" height="1.00" class="up-body"/>
<line x1="997.36" y1="652.83" x2="997.36" y2="659.43" class="up-wick"/>
<rect x="993.36" y="656.55" width="8.00" height="1.26" class="up-body"/>
<line x1="1015.73" y1="649.81" x2="1015.73" y2="661.15" class="down-wick"/>
<rect x="1011.73" y="656.55" width="8.00" height="1.00" class="down-body"/>
<line x1="1034.09" y1="625.60" x2="1034.09" y2="657.04" class="up-wick"/>
<rect x="1030.09" y="633.70" width="8.00" height="23.23" class="up-body"/>
<line x1="1052.45" y1="627.00" x2="1052.45" y2="638.34" class="up-wick"/>
<rect x="1048.45" y="629.53" width="8.00" height="4.18" class="up-body"/>
<line x1="1070.82" y1="609.24" x2="1070.82" y2="634.02" class="up-wick"/>
<rect x="1066.82" y="611.42" width="8.00" height="17.90" class="up-body"/>
<line x1="70" y1="746.89" x2="1080" y2="746.89" class="number-line"/>
<text x="1076" y="742.89" text-anchor="end" class="level-label">round 4680.00</text>
<line x1="70" y1="746.89" x2="1080" y2="746.89" class="entry-line"/>
<text x="1076" y="742.89" text-anchor="end" class="level-label">entry level 4680.00</text>
<text x="70" y="806" class="axis-label">2026-04-27 01:15:00+00:00 to 2026-04-27 05:45:00+00:00</text>
<text x="1080" y="806" text-anchor="end" class="axis-label">4668.29 - 4722.99</text>
<text x="70" y="832" class="panel-title">M1 execution window</text>
<rect x="70" y="846" width="1010" height="192" class="plot-bg"/>
<line x1="73.71" y1="969.42" x2="73.71" y2="979.33" class="down-wick"/>
<rect x="71.30" y="973.98" width="4.83" height="5.12" class="down-body"/>
<line x1="81.14" y1="969.61" x2="81.14" y2="976.30" class="down-wick"/>
<rect x="78.73" y="972.09" width="4.83" height="1.00" class="down-body"/>
<line x1="88.57" y1="961.23" x2="88.57" y2="966.23" class="up-wick"/>
<rect x="86.15" y="961.23" width="4.83" height="4.88" class="up-body"/>
<line x1="95.99" y1="968.55" x2="95.99" y2="977.48" class="down-wick"/>
<rect x="93.58" y="969.02" width="4.83" height="6.89" class="down-body"/>
<line x1="103.42" y1="969.18" x2="103.42" y2="977.45" class="down-wick"/>
<rect x="101.01" y="975.67" width="4.83" height="1.02" class="down-body"/>
<line x1="110.85" y1="973.55" x2="110.85" y2="980.20" class="down-wick"/>
<rect x="108.43" y="976.26" width="4.83" height="3.39" class="down-body"/>
<line x1="118.27" y1="975.67" x2="118.27" y2="983.51" class="down-wick"/>
<rect x="115.86" y="976.78" width="4.83" height="1.00" class="down-body"/>
<line x1="125.70" y1="965.72" x2="125.70" y2="974.73" class="up-wick"/>
<rect x="123.28" y="968.20" width="4.83" height="6.02" class="up-body"/>
<line x1="133.12" y1="968.31" x2="133.12" y2="985.12" class="down-wick"/>
<rect x="130.71" y="971.34" width="4.83" height="8.82" class="down-body"/>
<line x1="140.55" y1="969.81" x2="140.55" y2="978.74" class="down-wick"/>
<rect x="138.14" y="973.16" width="4.83" height="4.92" class="down-body"/>
<line x1="147.98" y1="972.09" x2="147.98" y2="982.09" class="up-wick"/>
<rect x="145.56" y="972.09" width="4.83" height="9.33" class="up-body"/>
<line x1="155.40" y1="971.74" x2="155.40" y2="980.56" class="down-wick"/>
<rect x="152.99" y="973.98" width="4.83" height="2.48" class="down-body"/>
<line x1="162.83" y1="970.95" x2="162.83" y2="973.82" class="up-wick"/>
<rect x="160.42" y="971.03" width="4.83" height="2.79" class="up-body"/>
<line x1="170.26" y1="975.60" x2="170.26" y2="977.25" class="up-wick"/>
<rect x="167.84" y="976.42" width="4.83" height="1.00" class="up-body"/>
<line x1="177.68" y1="974.65" x2="177.68" y2="978.23" class="down-wick"/>
<rect x="175.27" y="976.11" width="4.83" height="1.26" class="down-body"/>
<line x1="185.11" y1="976.50" x2="185.11" y2="981.11" class="up-wick"/>
<rect x="182.70" y="976.58" width="4.83" height="1.00" class="up-body"/>
<line x1="192.54" y1="973.78" x2="192.54" y2="980.08" class="up-wick"/>
<rect x="190.12" y="975.83" width="4.83" height="3.74" class="up-body"/>
<line x1="199.96" y1="972.84" x2="199.96" y2="976.97" class="up-wick"/>
<rect x="197.55" y="975.63" width="4.83" height="1.00" class="up-body"/>
<line x1="207.39" y1="978.82" x2="207.39" y2="986.77" class="down-wick"/>
<rect x="204.98" y="980.08" width="4.83" height="4.41" class="down-body"/>
<line x1="214.82" y1="978.78" x2="214.82" y2="984.69" class="up-wick"/>
<rect x="212.40" y="980.12" width="4.83" height="1.02" class="up-body"/>
<line x1="222.24" y1="977.29" x2="222.24" y2="980.63" class="down-wick"/>
<rect x="219.83" y="977.60" width="4.83" height="2.13" class="down-body"/>
<line x1="229.67" y1="973.43" x2="229.67" y2="977.80" class="up-wick"/>
<rect x="227.26" y="974.41" width="4.83" height="3.39" class="up-body"/>
<line x1="237.10" y1="972.60" x2="237.10" y2="977.17" class="down-wick"/>
<rect x="234.68" y="974.30" width="4.83" height="2.52" class="down-body"/>
<line x1="244.52" y1="988.27" x2="244.52" y2="1004.96" class="down-wick"/>
<rect x="242.11" y="989.14" width="4.83" height="2.24" class="down-body"/>
<line x1="251.95" y1="989.96" x2="251.95" y2="993.66" class="up-wick"/>
<rect x="249.53" y="990.04" width="4.83" height="1.14" class="up-body"/>
<line x1="259.38" y1="984.73" x2="259.38" y2="990.00" class="up-wick"/>
<rect x="256.96" y="985.00" width="4.83" height="5.00" class="up-body"/>
<line x1="266.80" y1="978.35" x2="266.80" y2="980.91" class="down-wick"/>
<rect x="264.39" y="979.57" width="4.83" height="1.00" class="down-body"/>
<line x1="274.23" y1="980.91" x2="274.23" y2="986.46" class="down-wick"/>
<rect x="271.81" y="981.70" width="4.83" height="1.00" class="down-body"/>
<line x1="281.65" y1="979.89" x2="281.65" y2="983.03" class="down-wick"/>
<rect x="279.24" y="982.48" width="4.83" height="1.00" class="down-body"/>
<line x1="289.08" y1="976.03" x2="289.08" y2="983.47" class="up-wick"/>
<rect x="286.67" y="978.98" width="4.83" height="4.01" class="up-body"/>
<line x1="296.51" y1="979.37" x2="296.51" y2="981.89" class="up-wick"/>
<rect x="294.09" y="980.32" width="4.83" height="1.00" class="up-body"/>
<line x1="303.93" y1="977.60" x2="303.93" y2="982.05" class="down-wick"/>
<rect x="301.52" y="978.15" width="4.83" height="2.72" class="down-body"/>
<line x1="311.36" y1="980.52" x2="311.36" y2="981.81" class="down-wick"/>
<rect x="308.95" y="980.67" width="4.83" height="1.00" class="down-body"/>
<line x1="318.79" y1="986.18" x2="318.79" y2="990.83" class="down-wick"/>
<rect x="316.37" y="986.93" width="4.83" height="1.69" class="down-body"/>
<line x1="326.21" y1="982.64" x2="326.21" y2="989.25" class="up-wick"/>
<rect x="323.80" y="983.98" width="4.83" height="5.27" class="up-body"/>
<line x1="333.64" y1="985.08" x2="333.64" y2="991.26" class="down-wick"/>
<rect x="331.23" y="985.16" width="4.83" height="6.10" class="down-body"/>
<line x1="341.07" y1="987.44" x2="341.07" y2="991.58" class="down-wick"/>
<rect x="338.65" y="989.33" width="4.83" height="2.24" class="down-body"/>
<line x1="348.49" y1="994.45" x2="348.49" y2="1006.65" class="down-wick"/>
<rect x="346.08" y="995.59" width="4.83" height="10.35" class="down-body"/>
<line x1="355.92" y1="997.99" x2="355.92" y2="1001.42" class="up-wick"/>
<rect x="353.51" y="999.09" width="4.83" height="1.77" class="up-body"/>
<line x1="363.35" y1="997.56" x2="363.35" y2="1002.36" class="down-wick"/>
<rect x="360.93" y="997.56" width="4.83" height="2.32" class="down-body"/>
<line x1="370.77" y1="996.42" x2="370.77" y2="1000.75" class="up-wick"/>
<rect x="368.36" y="997.36" width="4.83" height="2.05" class="up-body"/>
<line x1="378.20" y1="995.28" x2="378.20" y2="997.91" class="down-wick"/>
<rect x="375.78" y="996.69" width="4.83" height="1.00" class="down-body"/>
<line x1="385.62" y1="1006.38" x2="385.62" y2="1013.30" class="down-wick"/>
<rect x="383.21" y="1006.85" width="4.83" height="1.54" class="down-body"/>
<line x1="393.05" y1="1010.71" x2="393.05" y2="1015.39" class="down-wick"/>
<rect x="390.64" y="1010.71" width="4.83" height="3.19" class="down-body"/>
<line x1="400.48" y1="1005.20" x2="400.48" y2="1008.42" class="up-wick"/>
<rect x="398.06" y="1005.59" width="4.83" height="2.76" class="up-body"/>
<line x1="407.90" y1="1000.16" x2="407.90" y2="1007.91" class="up-wick"/>
<rect x="405.49" y="1001.69" width="4.83" height="6.14" class="up-body"/>
<line x1="415.33" y1="990.71" x2="415.33" y2="998.46" class="up-wick"/>
<rect x="412.92" y="991.03" width="4.83" height="6.73" class="up-body"/>
<line x1="422.76" y1="988.94" x2="422.76" y2="996.42" class="down-wick"/>
<rect x="420.34" y="990.43" width="4.83" height="2.36" class="down-body"/>
<line x1="430.18" y1="992.36" x2="430.18" y2="999.17" class="up-wick"/>
<rect x="427.77" y="993.03" width="4.83" height="3.66" class="up-body"/>
<line x1="437.61" y1="988.15" x2="437.61" y2="991.26" class="up-wick"/>
<rect x="435.20" y="988.78" width="4.83" height="1.00" class="up-body"/>
<line x1="445.04" y1="989.84" x2="445.04" y2="995.24" class="down-wick"/>
<rect x="442.62" y="990.71" width="4.83" height="4.29" class="down-body"/>
<line x1="452.46" y1="988.90" x2="452.46" y2="991.38" class="down-wick"/>
<rect x="450.05" y="990.04" width="4.83" height="1.00" class="down-body"/>
<line x1="459.89" y1="988.78" x2="459.89" y2="995.59" class="down-wick"/>
<rect x="457.48" y="991.18" width="4.83" height="4.25" class="down-body"/>
<line x1="467.32" y1="997.91" x2="467.32" y2="1009.17" class="down-wick"/>
<rect x="464.90" y="997.91" width="4.83" height="7.87" class="down-body"/>
<line x1="474.74" y1="1007.87" x2="474.74" y2="1013.26" class="up-wick"/>
<rect x="472.33" y="1007.91" width="4.83" height="2.76" class="up-body"/>
<line x1="482.17" y1="997.32" x2="482.17" y2="1001.77" class="up-wick"/>
<rect x="479.76" y="997.36" width="4.83" height="1.42" class="up-body"/>
<line x1="489.60" y1="1010.67" x2="489.60" y2="1020.35" class="down-wick"/>
<rect x="487.18" y="1013.15" width="4.83" height="3.27" class="down-body"/>
<line x1="497.02" y1="1011.57" x2="497.02" y2="1024.76" class="up-wick"/>
<rect x="494.61" y="1011.57" width="4.83" height="13.03" class="up-body"/>
<line x1="504.45" y1="1000.98" x2="504.45" y2="1007.24" class="up-wick"/>
<rect x="502.03" y="1003.58" width="4.83" height="1.93" class="up-body"/>
<line x1="511.88" y1="995.79" x2="511.88" y2="1001.06" class="down-wick"/>
<rect x="509.46" y="997.36" width="4.83" height="1.00" class="down-body"/>
<line x1="519.30" y1="989.84" x2="519.30" y2="1001.85" class="down-wick"/>
<rect x="516.89" y="995.98" width="4.83" height="2.95" class="down-body"/>
<line x1="526.73" y1="993.43" x2="526.73" y2="998.78" class="up-wick"/>
<rect x="524.31" y="995.04" width="4.83" height="3.50" class="up-body"/>
<line x1="534.15" y1="993.70" x2="534.15" y2="999.88" class="down-wick"/>
<rect x="531.74" y="997.48" width="4.83" height="2.40" class="down-body"/>
<line x1="541.58" y1="997.95" x2="541.58" y2="1004.45" class="down-wick"/>
<rect x="539.17" y="998.23" width="4.83" height="2.76" class="down-body"/>
<line x1="549.01" y1="995.79" x2="549.01" y2="1000.83" class="down-wick"/>
<rect x="546.59" y="1000.04" width="4.83" height="1.00" class="down-body"/>
<line x1="556.43" y1="995.95" x2="556.43" y2="1003.03" class="down-wick"/>
<rect x="554.02" y="997.99" width="4.83" height="2.87" class="down-body"/>
<line x1="563.86" y1="994.76" x2="563.86" y2="999.13" class="up-wick"/>
<rect x="561.45" y="996.93" width="4.83" height="2.20" class="up-body"/>
<line x1="571.29" y1="986.58" x2="571.29" y2="993.19" class="down-wick"/>
<rect x="568.87" y="987.72" width="4.83" height="4.33" class="down-body"/>
<line x1="578.71" y1="989.21" x2="578.71" y2="995.24" class="down-wick"/>
<rect x="576.30" y="989.96" width="4.83" height="1.93" class="down-body"/>
<line x1="586.14" y1="993.78" x2="586.14" y2="999.33" class="down-wick"/>
<rect x="583.73" y="993.90" width="4.83" height="5.04" class="down-body"/>
<line x1="593.57" y1="999.65" x2="593.57" y2="1004.17" class="up-wick"/>
<rect x="591.15" y="1002.01" width="4.83" height="1.00" class="up-body"/>
<line x1="600.99" y1="1003.11" x2="600.99" y2="1007.99" class="up-wick"/>
<rect x="598.58" y="1003.19" width="4.83" height="1.81" class="up-body"/>
<line x1="608.42" y1="997.68" x2="608.42" y2="1006.22" class="up-wick"/>
<rect x="606.01" y="998.31" width="4.83" height="7.48" class="up-body"/>
<line x1="615.85" y1="995.04" x2="615.85" y2="1002.87" class="down-wick"/>
<rect x="613.43" y="995.12" width="4.83" height="5.24" class="down-body"/>
<line x1="623.27" y1="991.62" x2="623.27" y2="993.98" class="down-wick"/>
<rect x="620.86" y="992.48" width="4.83" height="1.00" class="down-body"/>
<line x1="630.70" y1="987.96" x2="630.70" y2="993.11" class="up-wick"/>
<rect x="628.28" y="989.69" width="4.83" height="3.42" class="up-body"/>
<line x1="638.12" y1="986.07" x2="638.12" y2="989.02" class="up-wick"/>
<rect x="635.71" y="986.73" width="4.83" height="1.00" class="up-body"/>
<line x1="645.55" y1="985.12" x2="645.55" y2="987.99" class="down-wick"/>
<rect x="643.14" y="985.28" width="4.83" height="1.00" class="down-body"/>
<line x1="652.98" y1="971.07" x2="652.98" y2="983.90" class="up-wick"/>
<rect x="650.56" y="971.15" width="4.83" height="11.45" class="up-body"/>
<line x1="660.40" y1="963.16" x2="660.40" y2="970.40" class="up-wick"/>
<rect x="657.99" y="964.93" width="4.83" height="3.78" class="up-body"/>
<line x1="667.83" y1="954.58" x2="667.83" y2="961.82" class="up-wick"/>
<rect x="665.42" y="956.50" width="4.83" height="5.31" class="up-body"/>
<line x1="675.26" y1="946.23" x2="675.26" y2="954.26" class="down-wick"/>
<rect x="672.84" y="948.04" width="4.83" height="4.68" class="down-body"/>
<line x1="682.68" y1="923.64" x2="682.68" y2="933.64" class="up-wick"/>
<rect x="680.27" y="925.33" width="4.83" height="7.79" class="up-body"/>
<line x1="690.11" y1="894.19" x2="690.11" y2="924.62" class="up-wick"/>
<rect x="687.70" y="897.54" width="4.83" height="21.57" class="up-body"/>
<line x1="697.54" y1="880.58" x2="697.54" y2="892.66" class="down-wick"/>
<rect x="695.12" y="889.83" width="4.83" height="1.02" class="down-body"/>
<line x1="704.96" y1="882.03" x2="704.96" y2="895.97" class="down-wick"/>
<rect x="702.55" y="885.06" width="4.83" height="2.40" class="down-body"/>
<line x1="712.39" y1="910.77" x2="712.39" y2="925.45" class="down-wick"/>
<rect x="709.98" y="910.77" width="4.83" height="10.55" class="down-body"/>
<line x1="719.82" y1="916.04" x2="719.82" y2="928.44" class="down-wick"/>
<rect x="717.40" y="922.85" width="4.83" height="1.00" class="down-body"/>
<line x1="727.24" y1="911.08" x2="727.24" y2="924.54" class="up-wick"/>
<rect x="724.83" y="915.02" width="4.83" height="8.94" class="up-body"/>
<line x1="734.67" y1="910.33" x2="734.67" y2="935.68" class="down-wick"/>
<rect x="732.26" y="911.12" width="4.83" height="24.01" class="down-body"/>
<line x1="742.10" y1="936.78" x2="742.10" y2="947.57" class="up-wick"/>
<rect x="739.68" y="936.78" width="4.83" height="8.11" class="up-body"/>
<line x1="749.52" y1="936.27" x2="749.52" y2="945.76" class="up-wick"/>
<rect x="747.11" y="938.12" width="4.83" height="5.20" class="up-body"/>
<line x1="756.95" y1="930.09" x2="756.95" y2="936.27" class="up-wick"/>
<rect x="754.53" y="932.93" width="4.83" height="2.32" class="up-body"/>
<line x1="764.38" y1="926.63" x2="764.38" y2="932.61" class="down-wick"/>
<rect x="761.96" y="929.74" width="4.83" height="1.97" class="down-body"/>
<line x1="771.80" y1="921.55" x2="771.80" y2="929.90" class="up-wick"/>
<rect x="769.39" y="924.31" width="4.83" height="2.01" class="up-body"/>
<line x1="779.23" y1="928.64" x2="779.23" y2="937.41" class="down-wick"/>
<rect x="776.81" y="928.64" width="4.83" height="5.43" class="down-body"/>
<line x1="786.65" y1="928.68" x2="786.65" y2="943.04" class="down-wick"/>
<rect x="784.24" y="929.07" width="4.83" height="13.86" class="down-body"/>
<line x1="794.08" y1="924.11" x2="794.08" y2="930.84" class="up-wick"/>
<rect x="791.67" y="924.35" width="4.83" height="5.63" class="up-body"/>
<line x1="801.51" y1="913.40" x2="801.51" y2="928.05" class="up-wick"/>
<rect x="799.09" y="915.84" width="4.83" height="11.89" class="up-body"/>
<line x1="808.93" y1="917.26" x2="808.93" y2="928.91" class="down-wick"/>
<rect x="806.52" y="918.56" width="4.83" height="3.78" class="down-body"/>
<line x1="816.36" y1="920.06" x2="816.36" y2="931.04" class="up-wick"/>
<rect x="813.95" y="923.01" width="4.83" height="3.54" class="up-body"/>
<line x1="823.79" y1="918.64" x2="823.79" y2="926.87" class="down-wick"/>
<rect x="821.37" y="921.55" width="4.83" height="5.12" class="down-body"/>
<line x1="831.21" y1="916.95" x2="831.21" y2="926.12" class="up-wick"/>
<rect x="828.80" y="917.26" width="4.83" height="6.02" class="up-body"/>
<line x1="838.64" y1="914.98" x2="838.64" y2="922.93" class="up-wick"/>
<rect x="836.23" y="916.55" width="4.83" height="5.31" class="up-body"/>
<line x1="846.07" y1="922.97" x2="846.07" y2="929.35" class="down-wick"/>
<rect x="843.65" y="923.09" width="4.83" height="2.24" class="down-body"/>
<line x1="853.49" y1="916.79" x2="853.49" y2="925.49" class="up-wick"/>
<rect x="851.08" y="923.56" width="4.83" height="1.26" class="up-body"/>
<line x1="860.92" y1="911.32" x2="860.92" y2="920.76" class="up-wick"/>
<rect x="858.51" y="916.55" width="4.83" height="2.05" class="up-body"/>
<line x1="868.35" y1="909.27" x2="868.35" y2="919.43" class="up-wick"/>
<rect x="865.93" y="910.02" width="4.83" height="9.01" class="up-body"/>
<line x1="875.77" y1="891.16" x2="875.77" y2="901.00" class="up-wick"/>
<rect x="873.36" y="892.62" width="4.83" height="3.82" class="up-body"/>
<line x1="883.20" y1="898.17" x2="883.20" y2="903.05" class="up-wick"/>
<rect x="880.78" y="898.92" width="4.83" height="2.01" class="up-body"/>
<line x1="890.62" y1="899.43" x2="890.62" y2="908.44" class="down-wick"/>
<rect x="888.21" y="905.45" width="4.83" height="2.36" class="down-body"/>
<line x1="898.05" y1="908.64" x2="898.05" y2="916.59" class="down-wick"/>
<rect x="895.64" y="908.68" width="4.83" height="4.05" class="down-body"/>
<line x1="905.48" y1="904.11" x2="905.48" y2="908.56" class="down-wick"/>
<rect x="903.06" y="904.39" width="4.83" height="1.38" class="down-body"/>
<line x1="912.90" y1="890.73" x2="912.90" y2="902.03" class="up-wick"/>
<rect x="910.49" y="891.64" width="4.83" height="8.86" class="up-body"/>
<line x1="920.33" y1="895.65" x2="920.33" y2="910.92" class="down-wick"/>
<rect x="917.92" y="898.76" width="4.83" height="8.46" class="down-body"/>
<line x1="927.76" y1="907.66" x2="927.76" y2="922.61" class="down-wick"/>
<rect x="925.34" y="907.85" width="4.83" height="10.35" class="down-body"/>
<line x1="935.18" y1="920.33" x2="935.18" y2="926.27" class="down-wick"/>
<rect x="932.77" y="922.85" width="4.83" height="3.23" class="down-body"/>
<line x1="942.61" y1="920.13" x2="942.61" y2="923.72" class="down-wick"/>
<rect x="940.20" y="921.00" width="4.83" height="1.14" class="down-body"/>
<line x1="950.04" y1="923.80" x2="950.04" y2="929.70" class="up-wick"/>
<rect x="947.62" y="927.89" width="4.83" height="1.02" class="up-body"/>
<line x1="957.46" y1="917.06" x2="957.46" y2="922.18" class="up-wick"/>
<rect x="955.05" y="919.35" width="4.83" height="1.69" class="up-body"/>
<line x1="964.89" y1="915.17" x2="964.89" y2="920.72" class="up-wick"/>
<rect x="962.48" y="915.92" width="4.83" height="2.16" class="up-body"/>
<line x1="972.32" y1="892.19" x2="972.32" y2="900.89" class="up-wick"/>
<rect x="969.90" y="892.66" width="4.83" height="6.93" class="up-body"/>
<line x1="979.74" y1="890.30" x2="979.74" y2="898.21" class="down-wick"/>
<rect x="977.33" y="893.01" width="4.83" height="2.83" class="down-body"/>
<line x1="987.17" y1="895.02" x2="987.17" y2="899.23" class="down-wick"/>
<rect x="984.76" y="896.08" width="4.83" height="2.28" class="down-body"/>
<line x1="994.60" y1="887.98" x2="994.60" y2="892.03" class="up-wick"/>
<rect x="992.18" y="890.65" width="4.83" height="1.00" class="up-body"/>
<line x1="1002.02" y1="890.34" x2="1002.02" y2="896.52" class="down-wick"/>
<rect x="999.61" y="895.38" width="4.83" height="1.00" class="down-body"/>
<line x1="1009.45" y1="890.81" x2="1009.45" y2="896.56" class="down-wick"/>
<rect x="1007.03" y="893.21" width="4.83" height="2.32" class="down-body"/>
<line x1="1016.88" y1="890.49" x2="1016.88" y2="894.00" class="down-wick"/>
<rect x="1014.46" y="890.61" width="4.83" height="3.35" class="down-body"/>
<line x1="1024.30" y1="886.40" x2="1024.30" y2="894.79" class="up-wick"/>
<rect x="1021.89" y="889.94" width="4.83" height="4.49" class="up-body"/>
<line x1="1031.73" y1="888.17" x2="1031.73" y2="893.96" class="down-wick"/>
<rect x="1029.31" y="889.31" width="4.83" height="2.60" class="down-body"/>
<line x1="1039.15" y1="882.66" x2="1039.15" y2="894.51" class="up-wick"/>
<rect x="1036.74" y="884.16" width="4.83" height="10.23" class="up-body"/>
<line x1="1046.58" y1="873.14" x2="1046.58" y2="885.26" class="up-wick"/>
<rect x="1044.17" y="878.73" width="4.83" height="6.38" class="up-body"/>
<line x1="1054.01" y1="862.39" x2="1054.01" y2="869.75" class="down-wick"/>
<rect x="1051.59" y="862.82" width="4.83" height="5.51" class="down-body"/>
<line x1="1061.43" y1="861.64" x2="1061.43" y2="869.83" class="down-wick"/>
<rect x="1059.02" y="866.41" width="4.83" height="2.16" class="down-body"/>
<line x1="1068.86" y1="865.11" x2="1068.86" y2="871.76" class="up-wick"/>
<rect x="1066.45" y="869.59" width="4.83" height="2.13" class="up-body"/>
<line x1="1076.29" y1="859.24" x2="1076.29" y2="868.69" class="down-wick"/>
<rect x="1073.87" y="863.41" width="4.83" height="3.27" class="down-body"/>
<line x1="70" y1="995.28" x2="1080" y2="995.28" class="number-line"/>
<text x="1076" y="991.28" text-anchor="end" class="level-label">round 4680.00</text>
<line x1="70" y1="995.28" x2="1080" y2="995.28" class="entry-line"/>
<text x="1076" y="991.28" text-anchor="end" class="level-label">entry level 4680.00</text>
<text x="70" y="1056" class="axis-label">2026-04-27 01:15:00+00:00 to 2026-04-27 05:45:00+00:00</text>
<text x="1080" y="1056" text-anchor="end" class="axis-label">4669.15 - 4717.92</text>
</svg>