<svg xmlns="http://www.w3.org/2000/svg" width="1120" height="804" viewBox="0 0 1120 804">
<style>
text{font-family:Arial,Helvetica,sans-serif}.title{font-size:21px;font-weight:700;fill:#1f2937}.subtitle{font-size:12px;fill:#4b5563}.panel-title{font-size:15px;font-weight:700;fill:#111827}.muted{font-size:13px;fill:#6b7280}.plot-bg{fill:#f8fafc;stroke:#cbd5e1;stroke-width:1}.up-body{fill:#15803d;stroke:#14532d;stroke-width:.8}.down-body{fill:#b91c1c;stroke:#7f1d1d;stroke-width:.8}.up-wick{stroke:#14532d;stroke-width:1}.down-wick{stroke:#7f1d1d;stroke-width:1}.sweep-line{stroke:#7c3aed;stroke-width:1.6;stroke-dasharray:6 4}.number-line{stroke:#0f766e;stroke-width:1.4;stroke-dasharray:3 4}.entry-line{stroke:#2563eb;stroke-width:1.4}.sl-line{stroke:#dc2626;stroke-width:1.4}.tp-line{stroke:#16a34a;stroke-width:1.4}.level-label,.axis-label{font-size:11px;fill:#374151}
</style>
<text x="28" y="28" class="title">Adelin v2 visual review sample sample_035</text>
<text x="28" y="48" class="subtitle">Candidate windows are for visual labeling only and are not trade signals.</text>
<text x="560" y="48" class="subtitle" text-anchor="middle">M15_SWING_LOW_SWEEP_VISUAL_CANDIDATE</text>
<text x="70" y="82" class="panel-title">H1 liquidity context</text>
<rect x="70" y="96" width="1010" height="192" class="plot-bg"/>
<text x="82" y="138" class="muted">No candles available for this timeframe/window.</text>
<text x="70" y="332" class="panel-title">M15 liquidity / reaction context</text>
<rect x="70" y="346" width="1010" height="192" class="plot-bg"/>
<line x1="76.92" y1="375.46" x2="76.92" y2="389.34" class="down-wick"/>
<rect x="72.92" y="379.88" width="8.00" height="3.98" class="down-body"/>
<line x1="90.75" y1="372.49" x2="90.75" y2="386.25" class="up-wick"/>
<rect x="86.75" y="374.32" width="8.00" height="9.47" class="up-body"/>
<line x1="104.59" y1="359.81" x2="104.59" y2="395.34" class="down-wick"/>
<rect x="100.59" y="373.88" width="8.00" height="5.55" class="down-body"/>
<line x1="118.42" y1="359.24" x2="118.42" y2="381.20" class="up-wick"/>
<rect x="114.42" y="375.08" width="8.00" height="3.09" class="up-body"/>
<line x1="132.26" y1="359.75" x2="132.26" y2="386.00" class="down-wick"/>
<rect x="128.26" y="377.10" width="8.00" height="1.33" class="down-body"/>
<line x1="146.10" y1="377.79" x2="146.10" y2="407.77" class="down-wick"/>
<rect x="142.10" y="378.11" width="8.00" height="17.29" class="down-body"/>
<line x1="159.93" y1="395.21" x2="159.93" y2="422.85" class="down-wick"/>
<rect x="155.93" y="395.21" width="8.00" height="17.98" class="down-body"/>
<line x1="173.77" y1="393.44" x2="173.77" y2="425.18" class="up-wick"/>
<rect x="169.77" y="403.54" width="8.00" height="9.59" class="up-body"/>
<line x1="187.60" y1="396.41" x2="187.60" y2="410.92" class="down-wick"/>
<rect x="183.60" y="402.47" width="8.00" height="5.30" class="down-body"/>
<line x1="201.44" y1="403.22" x2="201.44" y2="426.13" class="down-wick"/>
<rect x="197.44" y="407.70" width="8.00" height="12.43" class="down-body"/>
<line x1="215.27" y1="409.66" x2="215.27" y2="425.81" class="up-wick"/>
<rect x="211.27" y="416.60" width="8.00" height="3.72" class="up-body"/>
<line x1="229.11" y1="406.88" x2="229.11" y2="421.78" class="up-wick"/>
<rect x="225.11" y="410.04" width="8.00" height="6.56" class="up-body"/>
<line x1="242.95" y1="399.75" x2="242.95" y2="413.76" class="down-wick"/>
<rect x="238.95" y="411.43" width="8.00" height="1.00" class="down-body"/>
<line x1="256.78" y1="411.36" x2="256.78" y2="419.38" class="down-wick"/>
<rect x="252.78" y="412.12" width="8.00" height="1.00" class="down-body"/>
<line x1="270.62" y1="408.40" x2="270.62" y2="423.10" class="down-wick"/>
<rect x="266.62" y="412.94" width="8.00" height="1.00" class="down-body"/>
<line x1="284.45" y1="404.42" x2="284.45" y2="413.82" class="up-wick"/>
<rect x="280.45" y="404.93" width="8.00" height="8.90" class="up-body"/>
<line x1="298.29" y1="391.80" x2="298.29" y2="404.99" class="up-wick"/>
<rect x="294.29" y="396.28" width="8.00" height="8.71" class="up-body"/>
<line x1="312.12" y1="391.74" x2="312.12" y2="401.20" class="down-wick"/>
<rect x="308.12" y="396.35" width="8.00" height="1.00" class="down-body"/>
<line x1="325.96" y1="389.72" x2="325.96" y2="400.95" class="up-wick"/>
<rect x="321.96" y="393.88" width="8.00" height="2.52" class="up-body"/>
<line x1="339.79" y1="389.40" x2="339.79" y2="395.65" class="up-wick"/>
<rect x="335.79" y="391.36" width="8.00" height="2.40" class="up-body"/>
<line x1="353.63" y1="376.47" x2="353.63" y2="391.74" class="up-wick"/>
<rect x="349.63" y="387.20" width="8.00" height="4.35" class="up-body"/>
<line x1="367.47" y1="382.72" x2="367.47" y2="403.60" class="down-wick"/>
<rect x="363.47" y="387.13" width="8.00" height="16.34" class="down-body"/>
<line x1="381.30" y1="402.28" x2="381.30" y2="418.75" class="down-wick"/>
<rect x="377.30" y="403.35" width="8.00" height="11.86" class="down-body"/>
<line x1="395.14" y1="409.79" x2="395.14" y2="422.34" class="down-wick"/>
<rect x="391.14" y="415.02" width="8.00" height="2.33" class="down-body"/>
<line x1="408.97" y1="412.06" x2="408.97" y2="423.42" class="down-wick"/>
<rect x="404.97" y="417.23" width="8.00" height="1.01" class="down-body"/>
<line x1="422.81" y1="411.49" x2="422.81" y2="426.63" class="down-wick"/>
<rect x="418.81" y="418.31" width="8.00" height="4.80" class="down-body"/>
<line x1="436.64" y1="417.86" x2="436.64" y2="439.44" class="down-wick"/>
<rect x="432.64" y="421.59" width="8.00" height="7.76" class="down-body"/>
<line x1="450.48" y1="403.79" x2="450.48" y2="431.05" class="up-wick"/>
<rect x="446.48" y="408.21" width="8.00" height="21.20" class="up-body"/>
<line x1="464.32" y1="397.80" x2="464.32" y2="416.73" class="up-wick"/>
<rect x="460.32" y="403.41" width="8.00" height="4.80" class="up-body"/>
<line x1="478.15" y1="400.19" x2="478.15" y2="412.12" class="down-wick"/>
<rect x="474.15" y="403.54" width="8.00" height="5.30" class="down-body"/>
<line x1="491.99" y1="396.41" x2="491.99" y2="414.27" class="down-wick"/>
<rect x="487.99" y="409.09" width="8.00" height="4.86" class="down-body"/>
<line x1="505.82" y1="414.77" x2="505.82" y2="432.57" class="down-wick"/>
<rect x="501.82" y="415.02" width="8.00" height="13.19" class="down-body"/>
<line x1="519.66" y1="420.77" x2="519.66" y2="431.62" class="up-wick"/>
<rect x="515.66" y="426.26" width="8.00" height="1.64" class="up-body"/>
<line x1="533.49" y1="425.69" x2="533.49" y2="433.70" class="down-wick"/>
<rect x="529.49" y="425.81" width="8.00" height="3.60" class="down-body"/>
<line x1="547.33" y1="419.19" x2="547.33" y2="429.73" class="up-wick"/>
<rect x="543.33" y="428.09" width="8.00" height="1.33" class="up-body"/>
<line x1="561.16" y1="418.87" x2="561.16" y2="444.62" class="down-wick"/>
<rect x="557.16" y="427.90" width="8.00" height="12.75" class="down-body"/>
<line x1="575.00" y1="431.56" x2="575.00" y2="445.06" class="up-wick"/>
<rect x="571.00" y="435.34" width="8.00" height="6.06" class="up-body"/>
<line x1="588.84" y1="425.88" x2="588.84" y2="438.50" class="up-wick"/>
<rect x="584.84" y="434.21" width="8.00" height="1.20" class="up-body"/>
<line x1="602.67" y1="432.12" x2="602.67" y2="442.66" class="up-wick"/>
<rect x="598.67" y="433.70" width="8.00" height="1.00" class="up-body"/>
<line x1="616.51" y1="432.25" x2="616.51" y2="448.15" class="down-wick"/>
<rect x="612.51" y="433.58" width="8.00" height="13.88" class="down-body"/>
<line x1="630.34" y1="447.21" x2="630.34" y2="462.10" class="down-wick"/>
<rect x="626.34" y="447.21" width="8.00" height="9.28" class="down-body"/>
<line x1="644.18" y1="435.47" x2="644.18" y2="456.61" class="up-wick"/>
<rect x="640.18" y="437.43" width="8.00" height="19.06" class="up-body"/>
<line x1="658.01" y1="426.32" x2="658.01" y2="439.95" class="up-wick"/>
<rect x="654.01" y="428.84" width="8.00" height="8.01" class="up-body"/>
<line x1="671.85" y1="427.27" x2="671.85" y2="458.25" class="down-wick"/>
<rect x="667.85" y="428.34" width="8.00" height="23.85" class="down-body"/>
<line x1="685.68" y1="432.12" x2="685.68" y2="452.00" class="up-wick"/>
<rect x="681.68" y="435.28" width="8.00" height="16.72" class="up-body"/>
<line x1="699.52" y1="430.80" x2="699.52" y2="443.92" class="down-wick"/>
<rect x="695.52" y="435.03" width="8.00" height="3.53" class="down-body"/>
<line x1="713.36" y1="428.59" x2="713.36" y2="447.58" class="down-wick"/>
<rect x="709.36" y="438.43" width="8.00" height="1.00" class="down-body"/>
<line x1="727.19" y1="433.26" x2="727.19" y2="457.37" class="down-wick"/>
<rect x="723.19" y="438.18" width="8.00" height="15.27" class="down-body"/>
<line x1="741.03" y1="427.90" x2="741.03" y2="470.87" class="down-wick"/>
<rect x="737.03" y="440.01" width="8.00" height="13.82" class="down-body"/>
<line x1="754.86" y1="445.00" x2="754.86" y2="481.28" class="down-wick"/>
<rect x="750.86" y="453.89" width="8.00" height="18.87" class="down-body"/>
<line x1="768.70" y1="463.93" x2="768.70" y2="487.97" class="up-wick"/>
<rect x="764.70" y="470.05" width="8.00" height="3.85" class="up-body"/>
<line x1="782.53" y1="454.15" x2="782.53" y2="509.93" class="down-wick"/>
<rect x="778.53" y="470.18" width="8.00" height="2.97" class="down-body"/>
<line x1="796.37" y1="473.39" x2="796.37" y2="519.96" class="down-wick"/>
<rect x="792.37" y="473.39" width="8.00" height="38.05" class="down-body"/>
<line x1="810.21" y1="485.82" x2="810.21" y2="514.73" class="up-wick"/>
<rect x="806.21" y="498.51" width="8.00" height="10.10" class="up-body"/>
<line x1="824.04" y1="473.77" x2="824.04" y2="503.75" class="up-wick"/>
<rect x="820.04" y="491.88" width="8.00" height="8.01" class="up-body"/>
<line x1="837.88" y1="487.02" x2="837.88" y2="518.13" class="down-wick"/>
<rect x="833.88" y="491.63" width="8.00" height="16.53" class="down-body"/>
<line x1="851.71" y1="486.64" x2="851.71" y2="507.85" class="up-wick"/>
<rect x="847.71" y="496.80" width="8.00" height="11.04" class="up-body"/>
<line x1="865.55" y1="495.98" x2="865.55" y2="524.76" class="down-wick"/>
<rect x="861.55" y="496.87" width="8.00" height="13.00" class="down-body"/>
<line x1="879.38" y1="479.58" x2="879.38" y2="511.07" class="up-wick"/>
<rect x="875.38" y="483.30" width="8.00" height="26.44" class="up-body"/>
<line x1="893.22" y1="457.93" x2="893.22" y2="487.28" class="up-wick"/>
<rect x="889.22" y="465.44" width="8.00" height="18.24" class="up-body"/>
<line x1="907.05" y1="452.82" x2="907.05" y2="468.35" class="up-wick"/>
<rect x="903.05" y="455.54" width="8.00" height="9.97" class="up-body"/>
<line x1="920.89" y1="453.33" x2="920.89" y2="465.44" class="down-wick"/>
<rect x="916.89" y="454.78" width="8.00" height="3.41" class="down-body"/>
<line x1="934.73" y1="452.70" x2="934.73" y2="473.01" class="up-wick"/>
<rect x="930.73" y="457.55" width="8.00" height="1.00" class="up-body"/>
<line x1="948.56" y1="457.05" x2="948.56" y2="469.29" class="down-wick"/>
<rect x="944.56" y="457.93" width="8.00" height="4.73" class="down-body"/>
<line x1="962.40" y1="444.74" x2="962.40" y2="471.94" class="up-wick"/>
<rect x="958.40" y="446.13" width="8.00" height="16.97" class="up-body"/>
<line x1="976.23" y1="444.05" x2="976.23" y2="457.68" class="down-wick"/>
<rect x="972.23" y="446.45" width="8.00" height="9.21" class="down-body"/>
<line x1="990.07" y1="454.46" x2="990.07" y2="467.84" class="down-wick"/>
<rect x="986.07" y="455.16" width="8.00" height="10.03" class="down-body"/>
<line x1="1003.90" y1="452.38" x2="1003.90" y2="465.25" class="up-wick"/>
<rect x="999.90" y="462.03" width="8.00" height="3.16" class="up-body"/>
<line x1="1017.74" y1="454.84" x2="1017.74" y2="466.89" class="down-wick"/>
<rect x="1013.74" y="461.59" width="8.00" height="3.28" class="down-body"/>
<line x1="1031.58" y1="459.20" x2="1031.58" y2="468.72" class="up-wick"/>
<rect x="1027.58" y="459.70" width="8.00" height="5.11" class="up-body"/>
<line x1="1045.41" y1="456.04" x2="1045.41" y2="468.09" class="down-wick"/>
<rect x="1041.41" y="459.76" width="8.00" height="6.82" class="down-body"/>
<line x1="1059.25" y1="466.45" x2="1059.25" y2="477.68" class="down-wick"/>
<rect x="1055.25" y="466.96" width="8.00" height="8.46" class="down-body"/>
<line x1="1073.08" y1="469.10" x2="1073.08" y2="477.56" class="up-wick"/>
<rect x="1069.08" y="473.33" width="8.00" height="1.33" class="up-body"/>
<line x1="70" y1="462.10" x2="1080" y2="462.10" class="sweep-line"/>
<text x="1076" y="458.10" text-anchor="end" class="level-label">sweep 2380.95</text>
<text x="70" y="556" class="axis-label">2024-05-16 03:30:00+00:00 to 2024-05-16 21:30:00+00:00</text>
<text x="1080" y="556" text-anchor="end" class="axis-label">2368.92 - 2399.35</text>
<text x="70" y="582" class="panel-title">M1 execution window</text>
<rect x="70" y="596" width="1010" height="192" class="plot-bg"/>
<text x="82" y="638" class="muted">No candles available for this timeframe/window.</text>
</svg>