<svg xmlns="http://www.w3.org/2000/svg" width="1120" height="804" viewBox="0 0 1120 804">
<style>
text{font-family:Arial,Helvetica,sans-serif}.title{font-size:21px;font-weight:700;fill:#1f2937}.subtitle{font-size:12px;fill:#4b5563}.panel-title{font-size:15px;font-weight:700;fill:#111827}.muted{font-size:13px;fill:#6b7280}.plot-bg{fill:#f8fafc;stroke:#cbd5e1;stroke-width:1}.up-body{fill:#15803d;stroke:#14532d;stroke-width:.8}.down-body{fill:#b91c1c;stroke:#7f1d1d;stroke-width:.8}.up-wick{stroke:#14532d;stroke-width:1}.down-wick{stroke:#7f1d1d;stroke-width:1}.sweep-line{stroke:#7c3aed;stroke-width:1.6;stroke-dasharray:6 4}.number-line{stroke:#0f766e;stroke-width:1.4;stroke-dasharray:3 4}.entry-line{stroke:#2563eb;stroke-width:1.4}.sl-line{stroke:#dc2626;stroke-width:1.4}.tp-line{stroke:#16a34a;stroke-width:1.4}.level-label,.axis-label{font-size:11px;fill:#374151}
</style>
<text x="28" y="28" class="title">Adelin v2 visual review sample sample_038</text>
<text x="28" y="48" class="subtitle">Candidate windows are for visual labeling only and are not trade signals.</text>
<text x="560" y="48" class="subtitle" text-anchor="middle">NEW_YORK_OPEN_CONTEXT</text>
<text x="70" y="82" class="panel-title">H1 liquidity context</text>
<rect x="70" y="96" width="1010" height="192" class="plot-bg"/>
<text x="82" y="138" class="muted">No candles available for this timeframe/window.</text>
<text x="70" y="332" class="panel-title">M15 liquidity / reaction context</text>
<rect x="70" y="346" width="1010" height="192" class="plot-bg"/>
<line x1="76.92" y1="371.94" x2="76.92" y2="383.76" class="up-wick"/>
<rect x="72.92" y="371.97" width="8.00" height="10.99" class="up-body"/>
<line x1="90.75" y1="369.13" x2="90.75" y2="375.04" class="up-wick"/>
<rect x="86.75" y="370.76" width="8.00" height="1.21" class="up-body"/>
<line x1="104.59" y1="361.59" x2="104.59" y2="371.10" class="up-wick"/>
<rect x="100.59" y="363.75" width="8.00" height="7.28" class="up-body"/>
<line x1="118.42" y1="359.24" x2="118.42" y2="366.02" class="down-wick"/>
<rect x="114.42" y="363.75" width="8.00" height="2.16" class="down-body"/>
<line x1="132.26" y1="363.86" x2="132.26" y2="369.32" class="down-wick"/>
<rect x="128.26" y="365.91" width="8.00" height="2.69" class="down-body"/>
<line x1="146.10" y1="367.62" x2="146.10" y2="378.72" class="down-wick"/>
<rect x="142.10" y="368.53" width="8.00" height="5.53" class="down-body"/>
<line x1="159.93" y1="368.49" x2="159.93" y2="374.17" class="up-wick"/>
<rect x="155.93" y="369.74" width="8.00" height="4.32" class="up-body"/>
<line x1="173.77" y1="366.48" x2="173.77" y2="376.75" class="down-wick"/>
<rect x="169.77" y="369.74" width="8.00" height="6.10" class="down-body"/>
<line x1="187.60" y1="371.71" x2="187.60" y2="378.79" class="up-wick"/>
<rect x="183.60" y="374.85" width="8.00" height="1.00" class="up-body"/>
<line x1="201.44" y1="363.56" x2="201.44" y2="383.87" class="up-wick"/>
<rect x="197.44" y="371.71" width="8.00" height="3.15" class="up-body"/>
<line x1="215.27" y1="371.67" x2="215.27" y2="417.79" class="down-wick"/>
<rect x="211.27" y="371.67" width="8.00" height="37.70" class="down-body"/>
<line x1="229.11" y1="404.41" x2="229.11" y2="475.31" class="down-wick"/>
<rect x="225.11" y="409.11" width="8.00" height="39.07" class="down-body"/>
<line x1="242.95" y1="436.16" x2="242.95" y2="467.92" class="down-wick"/>
<rect x="238.95" y="447.76" width="8.00" height="5.23" class="down-body"/>
<line x1="256.78" y1="436.73" x2="256.78" y2="460.04" class="down-wick"/>
<rect x="252.78" y="453.18" width="8.00" height="2.08" class="down-body"/>
<line x1="270.62" y1="441.81" x2="270.62" y2="455.34" class="up-wick"/>
<rect x="266.62" y="448.86" width="8.00" height="6.48" class="up-body"/>
<line x1="284.45" y1="441.73" x2="284.45" y2="477.58" class="down-wick"/>
<rect x="280.45" y="448.90" width="8.00" height="15.12" class="down-body"/>
<line x1="298.29" y1="457.23" x2="298.29" y2="472.85" class="down-wick"/>
<rect x="294.29" y="463.83" width="8.00" height="3.75" class="down-body"/>
<line x1="312.12" y1="460.42" x2="312.12" y2="471.78" class="down-wick"/>
<rect x="308.12" y="467.58" width="8.00" height="3.68" class="down-body"/>
<line x1="325.96" y1="470.15" x2="325.96" y2="489.78" class="down-wick"/>
<rect x="321.96" y="471.14" width="8.00" height="3.68" class="down-body"/>
<line x1="339.79" y1="457.12" x2="339.79" y2="475.19" class="up-wick"/>
<rect x="335.79" y="458.18" width="8.00" height="16.79" class="up-body"/>
<line x1="353.63" y1="456.32" x2="353.63" y2="465.95" class="down-wick"/>
<rect x="349.63" y="458.22" width="8.00" height="1.00" class="down-body"/>
<line x1="367.47" y1="457.46" x2="367.47" y2="465.46" class="up-wick"/>
<rect x="363.47" y="458.71" width="8.00" height="1.00" class="up-body"/>
<line x1="381.30" y1="454.73" x2="381.30" y2="460.45" class="up-wick"/>
<rect x="377.30" y="455.94" width="8.00" height="2.84" class="up-body"/>
<line x1="395.14" y1="450.30" x2="395.14" y2="458.41" class="down-wick"/>
<rect x="391.14" y="456.02" width="8.00" height="1.00" class="down-body"/>
<line x1="408.97" y1="447.19" x2="408.97" y2="457.50" class="up-wick"/>
<rect x="404.97" y="448.59" width="8.00" height="8.18" class="up-body"/>
<line x1="422.81" y1="447.57" x2="422.81" y2="462.27" class="down-wick"/>
<rect x="418.81" y="448.59" width="8.00" height="10.19" class="down-body"/>
<line x1="436.64" y1="457.92" x2="436.64" y2="470.08" class="down-wick"/>
<rect x="432.64" y="458.79" width="8.00" height="11.22" class="down-body"/>
<line x1="450.48" y1="459.47" x2="450.48" y2="481.03" class="up-wick"/>
<rect x="446.48" y="460.26" width="8.00" height="9.74" class="up-body"/>
<line x1="464.32" y1="452.65" x2="464.32" y2="469.78" class="up-wick"/>
<rect x="460.32" y="453.56" width="8.00" height="6.71" class="up-body"/>
<line x1="478.15" y1="444.35" x2="478.15" y2="462.92" class="up-wick"/>
<rect x="474.15" y="453.33" width="8.00" height="1.00" class="up-body"/>
<line x1="491.99" y1="452.19" x2="491.99" y2="466.10" class="down-wick"/>
<rect x="487.99" y="453.33" width="8.00" height="11.48" class="down-body"/>
<line x1="505.82" y1="457.50" x2="505.82" y2="467.09" class="up-wick"/>
<rect x="501.82" y="464.66" width="8.00" height="1.00" class="up-body"/>
<line x1="519.66" y1="455.00" x2="519.66" y2="478.07" class="down-wick"/>
<rect x="515.66" y="464.62" width="8.00" height="4.89" class="down-body"/>
<line x1="533.49" y1="469.55" x2="533.49" y2="493.27" class="down-wick"/>
<rect x="529.49" y="469.59" width="8.00" height="19.36" class="down-body"/>
<line x1="547.33" y1="460.15" x2="547.33" y2="490.81" class="up-wick"/>
<rect x="543.33" y="463.60" width="8.00" height="25.35" class="up-body"/>
<line x1="561.16" y1="449.05" x2="561.16" y2="466.55" class="up-wick"/>
<rect x="557.16" y="456.82" width="8.00" height="6.74" class="up-body"/>
<line x1="575.00" y1="453.48" x2="575.00" y2="463.71" class="down-wick"/>
<rect x="571.00" y="456.85" width="8.00" height="5.15" class="down-body"/>
<line x1="588.84" y1="449.16" x2="588.84" y2="462.73" class="up-wick"/>
<rect x="584.84" y="457.20" width="8.00" height="4.85" class="up-body"/>
<line x1="602.67" y1="455.15" x2="602.67" y2="469.81" class="down-wick"/>
<rect x="598.67" y="457.16" width="8.00" height="9.89" class="down-body"/>
<line x1="616.51" y1="452.46" x2="616.51" y2="468.64" class="up-wick"/>
<rect x="612.51" y="453.97" width="8.00" height="13.04" class="up-body"/>
<line x1="630.34" y1="448.78" x2="630.34" y2="460.49" class="down-wick"/>
<rect x="626.34" y="454.01" width="8.00" height="5.68" class="down-body"/>
<line x1="644.18" y1="459.32" x2="644.18" y2="469.02" class="down-wick"/>
<rect x="640.18" y="459.73" width="8.00" height="3.87" class="down-body"/>
<line x1="658.01" y1="463.56" x2="658.01" y2="475.69" class="down-wick"/>
<rect x="654.01" y="464.17" width="8.00" height="9.32" class="down-body"/>
<line x1="671.85" y1="455.38" x2="671.85" y2="473.83" class="up-wick"/>
<rect x="667.85" y="455.53" width="8.00" height="18.00" class="up-body"/>
<line x1="685.68" y1="453.97" x2="685.68" y2="465.46" class="down-wick"/>
<rect x="681.68" y="455.53" width="8.00" height="8.03" class="down-body"/>
<line x1="699.52" y1="456.85" x2="699.52" y2="470.04" class="up-wick"/>
<rect x="695.52" y="457.04" width="8.00" height="6.56" class="up-body"/>
<line x1="713.36" y1="456.66" x2="713.36" y2="464.89" class="down-wick"/>
<rect x="709.36" y="457.04" width="8.00" height="2.65" class="down-body"/>
<line x1="727.19" y1="446.62" x2="727.19" y2="462.80" class="up-wick"/>
<rect x="723.19" y="450.56" width="8.00" height="9.13" class="up-body"/>
<line x1="741.03" y1="430.14" x2="741.03" y2="451.09" class="up-wick"/>
<rect x="737.03" y="434.99" width="8.00" height="15.57" class="up-body"/>
<line x1="754.86" y1="433.06" x2="754.86" y2="452.38" class="down-wick"/>
<rect x="750.86" y="434.99" width="8.00" height="16.52" class="down-body"/>
<line x1="768.70" y1="451.55" x2="768.70" y2="463.98" class="down-wick"/>
<rect x="764.70" y="451.55" width="8.00" height="12.09" class="down-body"/>
<line x1="782.53" y1="461.29" x2="782.53" y2="482.96" class="down-wick"/>
<rect x="778.53" y="463.49" width="8.00" height="16.98" class="down-body"/>
<line x1="796.37" y1="473.00" x2="796.37" y2="484.93" class="down-wick"/>
<rect x="792.37" y="480.46" width="8.00" height="2.69" class="down-body"/>
<line x1="810.21" y1="482.43" x2="810.21" y2="504.86" class="down-wick"/>
<rect x="806.21" y="483.19" width="8.00" height="18.87" class="down-body"/>
<line x1="824.04" y1="457.54" x2="824.04" y2="502.33" class="up-wick"/>
<rect x="820.04" y="464.09" width="8.00" height="37.93" class="up-body"/>
<line x1="837.88" y1="452.50" x2="837.88" y2="500.62" class="down-wick"/>
<rect x="833.88" y="462.73" width="8.00" height="13.57" class="down-body"/>
<line x1="851.71" y1="469.78" x2="851.71" y2="487.55" class="up-wick"/>
<rect x="847.71" y="473.19" width="8.00" height="3.37" class="up-body"/>
<line x1="865.55" y1="458.37" x2="865.55" y2="484.14" class="up-wick"/>
<rect x="861.55" y="468.79" width="8.00" height="4.47" class="up-body"/>
<line x1="879.38" y1="453.52" x2="879.38" y2="479.10" class="down-wick"/>
<rect x="875.38" y="468.75" width="8.00" height="9.06" class="down-body"/>
<line x1="893.22" y1="469.78" x2="893.22" y2="498.61" class="up-wick"/>
<rect x="889.22" y="476.07" width="8.00" height="1.97" class="up-body"/>
<line x1="907.05" y1="473.07" x2="907.05" y2="507.37" class="down-wick"/>
<rect x="903.05" y="476.10" width="8.00" height="20.08" class="down-body"/>
<line x1="920.89" y1="491.60" x2="920.89" y2="511.69" class="down-wick"/>
<rect x="916.89" y="496.76" width="8.00" height="14.44" class="down-body"/>
<line x1="934.73" y1="488.49" x2="934.73" y2="522.90" class="up-wick"/>
<rect x="930.73" y="492.25" width="8.00" height="19.06" class="up-body"/>
<line x1="948.56" y1="492.25" x2="948.56" y2="510.47" class="down-wick"/>
<rect x="944.56" y="492.25" width="8.00" height="9.59" class="down-body"/>
<line x1="962.40" y1="483.46" x2="962.40" y2="502.44" class="up-wick"/>
<rect x="958.40" y="490.20" width="8.00" height="11.71" class="up-body"/>
<line x1="976.23" y1="483.53" x2="976.23" y2="501.34" class="down-wick"/>
<rect x="972.23" y="490.09" width="8.00" height="2.08" class="down-body"/>
<line x1="990.07" y1="485.65" x2="990.07" y2="504.11" class="down-wick"/>
<rect x="986.07" y="492.17" width="8.00" height="4.43" class="down-body"/>
<line x1="1003.90" y1="488.84" x2="1003.90" y2="499.37" class="up-wick"/>
<rect x="999.90" y="496.15" width="8.00" height="1.00" class="up-body"/>
<line x1="1017.74" y1="496.04" x2="1017.74" y2="507.29" class="down-wick"/>
<rect x="1013.74" y="496.23" width="8.00" height="7.31" class="down-body"/>
<line x1="1031.58" y1="502.10" x2="1031.58" y2="524.53" class="down-wick"/>
<rect x="1027.58" y="503.50" width="8.00" height="18.95" class="down-body"/>
<line x1="1045.41" y1="498.99" x2="1045.41" y2="524.76" class="up-wick"/>
<rect x="1041.41" y="506.57" width="8.00" height="15.95" class="up-body"/>
<line x1="1059.25" y1="499.98" x2="1059.25" y2="509.53" class="up-wick"/>
<rect x="1055.25" y="500.32" width="8.00" height="6.29" class="up-body"/>
<line x1="1073.08" y1="498.01" x2="1073.08" y2="511.76" class="down-wick"/>
<rect x="1069.08" y="500.36" width="8.00" height="5.00" class="down-body"/>
<text x="70" y="556" class="axis-label">2024-07-25 01:45:00+00:00 to 2024-07-25 19:45:00+00:00</text>
<text x="1080" y="556" text-anchor="end" class="axis-label">2353.94 - 2404.60</text>
<text x="70" y="582" class="panel-title">M1 execution window</text>
<rect x="70" y="596" width="1010" height="192" class="plot-bg"/>
<text x="82" y="638" class="muted">No candles available for this timeframe/window.</text>
</svg>