<svg xmlns="http://www.w3.org/2000/svg" width="1120" height="1054" viewBox="0 0 1120 1054">
<style>
text{font-family:Arial,Helvetica,sans-serif}.title{font-size:21px;font-weight:700;fill:#1f2937}.subtitle{font-size:12px;fill:#4b5563}.panel-title{font-size:15px;font-weight:700;fill:#111827}.muted{font-size:13px;fill:#6b7280}.plot-bg{fill:#f8fafc;stroke:#cbd5e1;stroke-width:1}.up-body{fill:#15803d;stroke:#14532d;stroke-width:.8}.down-body{fill:#b91c1c;stroke:#7f1d1d;stroke-width:.8}.up-wick{stroke:#14532d;stroke-width:1}.down-wick{stroke:#7f1d1d;stroke-width:1}.sweep-line{stroke:#7c3aed;stroke-width:1.6;stroke-dasharray:6 4}.number-line{stroke:#0f766e;stroke-width:1.4;stroke-dasharray:3 4}.entry-line{stroke:#2563eb;stroke-width:1.4}.sl-line{stroke:#dc2626;stroke-width:1.4}.tp-line{stroke:#16a34a;stroke-width:1.4}.level-label,.axis-label{font-size:11px;fill:#374151}
</style>
<text x="28" y="28" class="title">Adelin v2 visual review sample sample_038</text>
<text x="28" y="48" class="subtitle">Candidate windows are for visual labeling only and are not trade signals.</text>
<text x="560" y="48" class="subtitle" text-anchor="middle">NEW_YORK_OPEN_CONTEXT</text>
<text x="70" y="82" class="panel-title">H1 liquidity context</text>
<rect x="70" y="96" width="1010" height="192" class="plot-bg"/>
<line x1="81.48" y1="170.13" x2="81.48" y2="188.27" class="down-wick"/>
<rect x="77.48" y="180.04" width="8.00" height="2.76" class="down-body"/>
<line x1="104.43" y1="163.77" x2="104.43" y2="202.56" class="up-wick"/>
<rect x="100.43" y="174.02" width="8.00" height="8.81" class="up-body"/>
<line x1="127.39" y1="142.84" x2="127.39" y2="184.22" class="up-wick"/>
<rect x="123.39" y="142.84" width="8.00" height="31.18" class="up-body"/>
<line x1="150.34" y1="140.83" x2="150.34" y2="188.67" class="down-wick"/>
<rect x="146.34" y="142.84" width="8.00" height="42.36" class="down-body"/>
<line x1="173.30" y1="178.52" x2="173.30" y2="203.72" class="down-wick"/>
<rect x="169.30" y="185.29" width="8.00" height="11.67" class="down-body"/>
<line x1="196.25" y1="179.53" x2="196.25" y2="199.03" class="up-wick"/>
<rect x="192.25" y="189.86" width="8.00" height="7.08" class="up-body"/>
<line x1="219.20" y1="176.17" x2="219.20" y2="190.19" class="up-wick"/>
<rect x="215.20" y="178.74" width="8.00" height="11.12" class="up-body"/>
<line x1="242.16" y1="167.94" x2="242.16" y2="179.92" class="up-wick"/>
<rect x="238.16" y="177.30" width="8.00" height="1.43" class="up-body"/>
<line x1="265.11" y1="170.80" x2="265.11" y2="178.48" class="up-wick"/>
<rect x="261.11" y="174.52" width="8.00" height="2.77" class="up-body"/>
<line x1="288.07" y1="204.43" x2="288.07" y2="235.27" class="down-wick"/>
<rect x="284.07" y="215.35" width="8.00" height="1.69" class="down-body"/>
<line x1="311.02" y1="208.17" x2="311.02" y2="221.00" class="down-wick"/>
<rect x="307.02" y="217.04" width="8.00" height="1.00" class="down-body"/>
<line x1="333.98" y1="215.03" x2="333.98" y2="245.52" class="down-wick"/>
<rect x="329.98" y="217.37" width="8.00" height="10.74" class="down-body"/>
<line x1="356.93" y1="198.95" x2="356.93" y2="239.64" class="up-wick"/>
<rect x="352.93" y="225.14" width="8.00" height="2.97" class="up-body"/>
<line x1="379.89" y1="205.86" x2="379.89" y2="237.28" class="down-wick"/>
<rect x="375.89" y="225.15" width="8.00" height="5.27" class="down-body"/>
<line x1="402.84" y1="218.89" x2="402.84" y2="239.15" class="down-wick"/>
<rect x="398.84" y="230.43" width="8.00" height="3.95" class="down-body"/>
<line x1="425.80" y1="232.78" x2="425.80" y2="247.93" class="down-wick"/>
<rect x="421.80" y="234.37" width="8.00" height="8.73" class="down-body"/>
<line x1="448.75" y1="231.67" x2="448.75" y2="274.76" class="down-wick"/>
<rect x="444.75" y="243.08" width="8.00" height="26.21" class="down-body"/>
<line x1="471.70" y1="232.07" x2="471.70" y2="273.33" class="up-wick"/>
<rect x="467.70" y="234.78" width="8.00" height="34.51" class="up-body"/>
<line x1="494.66" y1="232.22" x2="494.66" y2="253.33" class="down-wick"/>
<rect x="490.66" y="234.78" width="8.00" height="13.99" class="down-body"/>
<line x1="517.61" y1="234.32" x2="517.61" y2="253.53" class="down-wick"/>
<rect x="513.61" y="248.77" width="8.00" height="1.00" class="down-body"/>
<line x1="540.57" y1="245.96" x2="540.57" y2="271.51" class="down-wick"/>
<rect x="536.57" y="249.15" width="8.00" height="14.16" class="down-body"/>
<line x1="563.52" y1="249.19" x2="563.52" y2="263.91" class="up-wick"/>
<rect x="559.52" y="253.87" width="8.00" height="9.45" class="up-body"/>
<line x1="586.48" y1="236.17" x2="586.48" y2="253.87" class="up-wick"/>
<rect x="582.48" y="239.92" width="8.00" height="13.95" class="up-body"/>
<line x1="609.43" y1="204.75" x2="609.43" y2="249.19" class="up-wick"/>
<rect x="605.43" y="206.26" width="8.00" height="33.66" class="up-body"/>
<line x1="632.39" y1="142.01" x2="632.39" y2="208.00" class="up-wick"/>
<rect x="628.39" y="158.30" width="8.00" height="47.96" class="up-body"/>
<line x1="655.34" y1="155.32" x2="655.34" y2="185.90" class="down-wick"/>
<rect x="651.34" y="158.30" width="8.00" height="14.19" class="down-body"/>
<line x1="678.30" y1="155.73" x2="678.30" y2="176.04" class="up-wick"/>
<rect x="674.30" y="163.81" width="8.00" height="8.68" class="up-body"/>
<line x1="701.25" y1="162.00" x2="701.25" y2="195.57" class="down-wick"/>
<rect x="697.25" y="163.65" width="8.00" height="20.77" class="down-body"/>
<line x1="724.20" y1="173.74" x2="724.20" y2="185.21" class="up-wick"/>
<rect x="720.20" y="174.96" width="8.00" height="9.46" class="up-body"/>
<line x1="747.16" y1="167.41" x2="747.16" y2="178.41" class="up-wick"/>
<rect x="743.16" y="173.27" width="8.00" height="1.77" class="up-body"/>
<line x1="770.11" y1="158.46" x2="770.11" y2="176.58" class="up-wick"/>
<rect x="766.11" y="161.89" width="8.00" height="11.38" class="up-body"/>
<line x1="793.07" y1="133.45" x2="793.07" y2="159.76" class="up-wick"/>
<rect x="789.07" y="139.03" width="8.00" height="20.10" class="up-body"/>
<line x1="816.02" y1="114.06" x2="816.02" y2="145.32" class="up-wick"/>
<rect x="812.02" y="117.31" width="8.00" height="21.72" class="up-body"/>
<line x1="838.98" y1="109.24" x2="838.98" y2="141.99" class="down-wick"/>
<rect x="834.98" y="117.31" width="8.00" height="23.78" class="down-body"/>
<line x1="861.93" y1="132.90" x2="861.93" y2="179.45" class="down-wick"/>
<rect x="857.93" y="141.27" width="8.00" height="29.15" class="down-body"/>
<line x1="884.89" y1="161.39" x2="884.89" y2="176.82" class="up-wick"/>
<rect x="880.89" y="166.53" width="8.00" height="3.88" class="up-body"/>
<line x1="907.84" y1="162.30" x2="907.84" y2="182.29" class="down-wick"/>
<rect x="903.84" y="166.59" width="8.00" height="12.96" class="down-body"/>
<line x1="930.80" y1="166.08" x2="930.80" y2="191.23" class="down-wick"/>
<rect x="926.80" y="179.59" width="8.00" height="7.89" class="down-body"/>
<line x1="953.75" y1="177.06" x2="953.75" y2="194.84" class="up-wick"/>
<rect x="949.75" y="187.32" width="8.00" height="1.00" class="up-body"/>
<line x1="976.70" y1="187.14" x2="976.70" y2="213.60" class="down-wick"/>
<rect x="972.70" y="187.32" width="8.00" height="22.90" class="down-body"/>
<line x1="999.66" y1="201.22" x2="999.66" y2="223.64" class="up-wick"/>
<rect x="995.66" y="206.40" width="8.00" height="3.82" class="up-body"/>
<line x1="1022.61" y1="197.25" x2="1022.61" y2="210.06" class="up-wick"/>
<rect x="1018.61" y="201.70" width="8.00" height="4.70" class="up-body"/>
<line x1="1045.57" y1="199.19" x2="1045.57" y2="213.80" class="down-wick"/>
<rect x="1041.57" y="201.68" width="8.00" height="5.22" class="down-body"/>
<line x1="1068.52" y1="195.14" x2="1068.52" y2="225.84" class="down-wick"/>
<rect x="1064.52" y="206.94" width="8.00" height="6.66" class="down-body"/>
<text x="70" y="306" class="axis-label">2026-05-08 14:00:00+00:00 to 2026-05-12 13:00:00+00:00</text>
<text x="1080" y="306" text-anchor="end" class="axis-label">4638.12 - 4783.44</text>
<text x="70" y="332" class="panel-title">M15 liquidity / reaction context</text>
<rect x="70" y="346" width="1010" height="192" class="plot-bg"/>
<line x1="76.92" y1="448.29" x2="76.92" y2="455.90" class="up-wick"/>
<rect x="72.92" y="452.79" width="8.00" height="1.07" class="up-body"/>
<line x1="90.75" y1="444.37" x2="90.75" y2="457.73" class="down-wick"/>
<rect x="86.75" y="452.79" width="8.00" height="2.78" class="down-body"/>
<line x1="104.59" y1="443.96" x2="104.59" y2="457.24" class="up-wick"/>
<rect x="100.59" y="448.19" width="8.00" height="7.38" class="up-body"/>
<line x1="118.42" y1="442.00" x2="118.42" y2="448.41" class="up-wick"/>
<rect x="114.42" y="443.42" width="8.00" height="4.78" class="up-body"/>
<line x1="132.26" y1="441.74" x2="132.26" y2="455.69" class="down-wick"/>
<rect x="128.26" y="443.43" width="8.00" height="9.82" class="down-body"/>
<line x1="146.10" y1="453.20" x2="146.10" y2="471.93" class="down-wick"/>
<rect x="142.10" y="453.20" width="8.00" height="14.81" class="down-body"/>
<line x1="159.93" y1="461.37" x2="159.93" y2="479.28" class="up-wick"/>
<rect x="155.93" y="466.38" width="8.00" height="1.63" class="up-body"/>
<line x1="173.77" y1="450.29" x2="173.77" y2="466.38" class="up-wick"/>
<rect x="169.77" y="457.43" width="8.00" height="8.94" class="up-body"/>
<line x1="187.60" y1="451.13" x2="187.60" y2="488.30" class="down-wick"/>
<rect x="183.60" y="457.42" width="8.00" height="9.18" class="down-body"/>
<line x1="201.44" y1="439.78" x2="201.44" y2="480.97" class="up-wick"/>
<rect x="197.44" y="452.41" width="8.00" height="14.18" class="up-body"/>
<line x1="215.27" y1="430.24" x2="215.27" y2="456.56" class="up-wick"/>
<rect x="211.27" y="441.16" width="8.00" height="11.25" class="up-body"/>
<line x1="229.11" y1="436.35" x2="229.11" y2="454.34" class="down-wick"/>
<rect x="225.11" y="441.16" width="8.00" height="7.38" class="down-body"/>
<line x1="242.95" y1="445.94" x2="242.95" y2="472.23" class="down-wick"/>
<rect x="238.95" y="448.56" width="8.00" height="14.33" class="down-body"/>
<line x1="256.78" y1="450.75" x2="256.78" y2="474.91" class="up-wick"/>
<rect x="252.78" y="462.49" width="8.00" height="1.00" class="up-body"/>
<line x1="270.62" y1="458.03" x2="270.62" y2="467.73" class="up-wick"/>
<rect x="266.62" y="458.36" width="8.00" height="4.13" class="up-body"/>
<line x1="284.45" y1="438.85" x2="284.45" y2="459.35" class="up-wick"/>
<rect x="280.45" y="458.24" width="8.00" height="1.00" class="up-body"/>
<line x1="298.29" y1="449.91" x2="298.29" y2="478.03" class="down-wick"/>
<rect x="294.29" y="458.24" width="8.00" height="11.23" class="down-body"/>
<line x1="312.12" y1="456.30" x2="312.12" y2="480.36" class="up-wick"/>
<rect x="308.12" y="460.50" width="8.00" height="8.99" class="up-body"/>
<line x1="325.96" y1="455.15" x2="325.96" y2="465.82" class="up-wick"/>
<rect x="321.96" y="456.53" width="8.00" height="3.90" class="up-body"/>
<line x1="339.79" y1="455.10" x2="339.79" y2="468.52" class="down-wick"/>
<rect x="335.79" y="456.53" width="8.00" height="2.82" class="down-body"/>
<line x1="353.63" y1="459.35" x2="353.63" y2="477.19" class="down-wick"/>
<rect x="349.63" y="459.35" width="8.00" height="15.07" class="down-body"/>
<line x1="367.47" y1="472.42" x2="367.47" y2="483.03" class="down-wick"/>
<rect x="363.47" y="474.40" width="8.00" height="1.91" class="down-body"/>
<line x1="381.30" y1="474.32" x2="381.30" y2="488.16" class="down-wick"/>
<rect x="377.30" y="476.31" width="8.00" height="9.50" class="down-body"/>
<line x1="395.14" y1="481.06" x2="395.14" y2="491.30" class="up-wick"/>
<rect x="391.14" y="483.73" width="8.00" height="2.09" class="up-body"/>
<line x1="408.97" y1="478.60" x2="408.97" y2="485.72" class="down-wick"/>
<rect x="404.97" y="483.73" width="8.00" height="1.56" class="down-body"/>
<line x1="422.81" y1="478.68" x2="422.81" y2="487.38" class="up-wick"/>
<rect x="418.81" y="483.02" width="8.00" height="2.24" class="up-body"/>
<line x1="436.64" y1="479.95" x2="436.64" y2="487.55" class="down-wick"/>
<rect x="432.64" y="483.02" width="8.00" height="4.53" class="down-body"/>
<line x1="450.48" y1="471.04" x2="450.48" y2="501.58" class="down-wick"/>
<rect x="446.48" y="487.55" width="8.00" height="11.50" class="down-body"/>
<line x1="464.32" y1="498.50" x2="464.32" y2="524.76" class="down-wick"/>
<rect x="460.32" y="499.04" width="8.00" height="18.89" class="down-body"/>
<line x1="478.15" y1="493.51" x2="478.15" y2="522.98" class="up-wick"/>
<rect x="474.15" y="496.49" width="8.00" height="21.45" class="up-body"/>
<line x1="491.99" y1="487.14" x2="491.99" y2="497.38" class="up-wick"/>
<rect x="487.99" y="493.05" width="8.00" height="3.39" class="up-body"/>
<line x1="505.82" y1="479.28" x2="505.82" y2="493.16" class="up-wick"/>
<rect x="501.82" y="481.50" width="8.00" height="11.55" class="up-body"/>
<line x1="519.66" y1="471.54" x2="519.66" y2="486.67" class="up-wick"/>
<rect x="515.66" y="474.91" width="8.00" height="6.54" class="up-body"/>
<line x1="533.49" y1="471.72" x2="533.49" y2="481.39" class="down-wick"/>
<rect x="529.49" y="474.91" width="8.00" height="3.95" class="down-body"/>
<line x1="547.33" y1="475.46" x2="547.33" y2="485.31" class="down-wick"/>
<rect x="543.33" y="478.87" width="8.00" height="1.00" class="down-body"/>
<line x1="561.16" y1="475.51" x2="561.16" y2="485.97" class="down-wick"/>
<rect x="557.16" y="479.21" width="8.00" height="6.28" class="down-body"/>
<line x1="575.00" y1="483.87" x2="575.00" y2="498.04" class="down-wick"/>
<rect x="571.00" y="485.49" width="8.00" height="6.87" class="down-body"/>
<line x1="588.84" y1="482.69" x2="588.84" y2="498.29" class="up-wick"/>
<rect x="584.84" y="485.44" width="8.00" height="6.92" class="up-body"/>
<line x1="602.67" y1="474.34" x2="602.67" y2="485.87" class="down-wick"/>
<rect x="598.67" y="485.45" width="8.00" height="1.00" class="down-body"/>
<line x1="616.51" y1="479.79" x2="616.51" y2="490.08" class="down-wick"/>
<rect x="612.51" y="485.93" width="8.00" height="2.27" class="down-body"/>
<line x1="630.34" y1="486.41" x2="630.34" y2="494.23" class="down-wick"/>
<rect x="626.34" y="488.06" width="8.00" height="4.78" class="down-body"/>
<line x1="644.18" y1="488.85" x2="644.18" y2="496.61" class="up-wick"/>
<rect x="640.18" y="492.82" width="8.00" height="1.00" class="up-body"/>
<line x1="658.01" y1="492.75" x2="658.01" y2="510.39" class="down-wick"/>
<rect x="654.01" y="492.82" width="8.00" height="16.41" class="down-body"/>
<line x1="671.85" y1="499.16" x2="671.85" y2="520.71" class="up-wick"/>
<rect x="667.85" y="500.49" width="8.00" height="8.73" class="up-body"/>
<line x1="685.68" y1="496.90" x2="685.68" y2="511.53" class="down-wick"/>
<rect x="681.68" y="500.49" width="8.00" height="10.00" class="down-body"/>
<line x1="699.52" y1="500.48" x2="699.52" y2="511.23" class="up-wick"/>
<rect x="695.52" y="501.09" width="8.00" height="9.41" class="up-body"/>
<line x1="713.36" y1="495.57" x2="713.36" y2="504.53" class="up-wick"/>
<rect x="709.36" y="499.69" width="8.00" height="1.38" class="up-body"/>
<line x1="727.19" y1="494.15" x2="727.19" y2="504.79" class="down-wick"/>
<rect x="723.19" y="499.69" width="8.00" height="1.00" class="down-body"/>
<line x1="741.03" y1="492.88" x2="741.03" y2="502.98" class="up-wick"/>
<rect x="737.03" y="498.72" width="8.00" height="1.00" class="up-body"/>
<line x1="754.86" y1="484.75" x2="754.86" y2="498.72" class="up-wick"/>
<rect x="750.86" y="489.79" width="8.00" height="8.93" class="up-body"/>
<line x1="768.70" y1="485.21" x2="768.70" y2="492.64" class="up-wick"/>
<rect x="764.70" y="485.65" width="8.00" height="4.13" class="up-body"/>
<line x1="782.53" y1="476.64" x2="782.53" y2="488.35" class="up-wick"/>
<rect x="778.53" y="481.42" width="8.00" height="4.23" class="up-body"/>
<line x1="796.37" y1="480.55" x2="796.37" y2="488.29" class="up-wick"/>
<rect x="792.37" y="481.32" width="8.00" height="1.00" class="up-body"/>
<line x1="810.21" y1="478.96" x2="810.21" y2="492.88" class="down-wick"/>
<rect x="806.21" y="481.32" width="8.00" height="10.06" class="down-body"/>
<line x1="824.04" y1="446.86" x2="824.04" y2="492.75" class="up-wick"/>
<rect x="820.04" y="454.68" width="8.00" height="36.59" class="up-body"/>
<line x1="837.88" y1="441.93" x2="837.88" y2="457.19" class="up-wick"/>
<rect x="833.88" y="452.30" width="8.00" height="2.39" class="up-body"/>
<line x1="851.71" y1="437.47" x2="851.71" y2="461.83" class="up-wick"/>
<rect x="847.71" y="439.35" width="8.00" height="12.95" class="up-body"/>
<line x1="865.55" y1="403.31" x2="865.55" y2="441.52" class="up-wick"/>
<rect x="861.55" y="404.79" width="8.00" height="34.56" class="up-body"/>
<line x1="879.38" y1="380.52" x2="879.38" y2="405.56" class="up-wick"/>
<rect x="875.38" y="392.63" width="8.00" height="12.16" class="up-body"/>
<line x1="893.22" y1="364.31" x2="893.22" y2="393.08" class="up-wick"/>
<rect x="889.22" y="367.36" width="8.00" height="25.27" class="up-body"/>
<line x1="907.05" y1="359.24" x2="907.05" y2="381.96" class="down-wick"/>
<rect x="903.05" y="367.36" width="8.00" height="12.19" class="down-body"/>
<line x1="920.89" y1="375.85" x2="920.89" y2="408.82" class="down-wick"/>
<rect x="916.89" y="379.55" width="8.00" height="8.80" class="down-body"/>
<line x1="934.73" y1="383.57" x2="934.73" y2="398.79" class="down-wick"/>
<rect x="930.73" y="388.33" width="8.00" height="9.82" class="down-body"/>
<line x1="948.56" y1="384.00" x2="948.56" y2="413.96" class="up-wick"/>
<rect x="944.56" y="385.73" width="8.00" height="12.42" class="up-body"/>
<line x1="962.40" y1="383.37" x2="962.40" y2="399.95" class="down-wick"/>
<rect x="958.40" y="385.73" width="8.00" height="11.51" class="down-body"/>
<line x1="976.23" y1="387.01" x2="976.23" y2="401.67" class="up-wick"/>
<rect x="972.23" y="392.35" width="8.00" height="4.89" class="up-body"/>
<line x1="990.07" y1="376.36" x2="990.07" y2="394.39" class="up-wick"/>
<rect x="986.07" y="385.17" width="8.00" height="7.18" class="up-body"/>
<line x1="1003.90" y1="382.11" x2="1003.90" y2="395.27" class="down-wick"/>
<rect x="999.90" y="385.17" width="8.00" height="9.22" class="down-body"/>
<line x1="1017.74" y1="385.55" x2="1017.74" y2="398.13" class="up-wick"/>
<rect x="1013.74" y="386.42" width="8.00" height="7.97" class="up-body"/>
<line x1="1031.58" y1="384.16" x2="1031.58" y2="394.84" class="down-wick"/>
<rect x="1027.58" y="386.22" width="8.00" height="7.33" class="down-body"/>
<line x1="1045.41" y1="393.04" x2="1045.41" y2="402.37" class="down-wick"/>
<rect x="1041.41" y="393.55" width="8.00" height="6.39" class="down-body"/>
<line x1="1059.25" y1="396.34" x2="1059.25" y2="426.02" class="down-wick"/>
<rect x="1055.25" y="399.95" width="8.00" height="20.74" class="down-body"/>
<line x1="1073.08" y1="411.49" x2="1073.08" y2="424.46" class="up-wick"/>
<rect x="1069.08" y="412.12" width="8.00" height="8.53" class="up-body"/>
<text x="70" y="556" class="axis-label">2026-05-11 01:45:00+00:00 to 2026-05-11 19:45:00+00:00</text>
<text x="1080" y="556" text-anchor="end" class="axis-label">4640.10 - 4756.66</text>
<text x="70" y="582" class="panel-title">M5 reaction / execution context</text>
<rect x="70" y="596" width="1010" height="192" class="plot-bg"/>
<line x1="79.18" y1="746.10" x2="79.18" y2="751.19" class="down-wick"/>
<rect x="75.18" y="746.17" width="8.00" height="4.44" class="down-body"/>
<line x1="97.55" y1="749.19" x2="97.55" y2="760.62" class="down-wick"/>
<rect x="93.55" y="750.61" width="8.00" height="9.84" class="down-body"/>
<line x1="115.91" y1="756.52" x2="115.91" y2="764.19" class="down-wick"/>
<rect x="111.91" y="760.34" width="8.00" height="2.65" class="down-body"/>
<line x1="134.27" y1="761.08" x2="134.27" y2="774.76" class="down-wick"/>
<rect x="130.27" y="762.99" width="8.00" height="4.93" class="down-body"/>
<line x1="152.64" y1="758.78" x2="152.64" y2="768.04" class="up-wick"/>
<rect x="148.64" y="760.20" width="8.00" height="7.72" class="up-body"/>
<line x1="171.00" y1="752.67" x2="171.00" y2="763.61" class="up-wick"/>
<rect x="167.00" y="754.04" width="8.00" height="6.10" class="up-body"/>
<line x1="189.36" y1="750.36" x2="189.36" y2="757.10" class="down-wick"/>
<rect x="185.36" y="754.04" width="8.00" height="1.52" class="down-body"/>
<line x1="207.73" y1="753.41" x2="207.73" y2="760.81" class="down-wick"/>
<rect x="203.73" y="755.68" width="8.00" height="1.00" class="down-body"/>
<line x1="226.09" y1="755.42" x2="226.09" y2="765.35" class="down-wick"/>
<rect x="222.09" y="756.13" width="8.00" height="8.16" class="down-body"/>
<line x1="244.45" y1="756.81" x2="244.45" y2="765.05" class="up-wick"/>
<rect x="240.45" y="762.92" width="8.00" height="1.37" class="up-body"/>
<line x1="262.82" y1="756.67" x2="262.82" y2="764.51" class="up-wick"/>
<rect x="258.82" y="757.30" width="8.00" height="5.62" class="up-body"/>
<line x1="281.18" y1="754.02" x2="281.18" y2="758.16" class="up-wick"/>
<rect x="277.18" y="754.65" width="8.00" height="2.62" class="up-body"/>
<line x1="299.55" y1="753.82" x2="299.55" y2="758.18" class="up-wick"/>
<rect x="295.55" y="754.51" width="8.00" height="1.00" class="up-body"/>
<line x1="317.91" y1="749.82" x2="317.91" y2="757.26" class="up-wick"/>
<rect x="313.91" y="749.85" width="8.00" height="4.66" class="up-body"/>
<line x1="336.27" y1="748.99" x2="336.27" y2="753.79" class="down-wick"/>
<rect x="332.27" y="749.85" width="8.00" height="3.36" class="down-body"/>
<line x1="354.64" y1="747.54" x2="354.64" y2="754.78" class="up-wick"/>
<rect x="350.64" y="749.02" width="8.00" height="4.19" class="up-body"/>
<line x1="373.00" y1="747.83" x2="373.00" y2="758.45" class="down-wick"/>
<rect x="369.00" y="749.02" width="8.00" height="4.80" class="down-body"/>
<line x1="391.36" y1="753.08" x2="391.36" y2="756.83" class="up-wick"/>
<rect x="387.36" y="753.23" width="8.00" height="1.00" class="up-body"/>
<line x1="409.73" y1="750.19" x2="409.73" y2="756.59" class="up-wick"/>
<rect x="405.73" y="751.29" width="8.00" height="1.79" class="up-body"/>
<line x1="428.09" y1="746.24" x2="428.09" y2="752.01" class="up-wick"/>
<rect x="424.09" y="750.24" width="8.00" height="1.03" class="up-body"/>
<line x1="446.45" y1="748.96" x2="446.45" y2="752.32" class="down-wick"/>
<rect x="442.45" y="750.29" width="8.00" height="1.93" class="down-body"/>
<line x1="464.82" y1="737.90" x2="464.82" y2="752.22" class="up-wick"/>
<rect x="460.82" y="740.13" width="8.00" height="12.09" class="up-body"/>
<line x1="483.18" y1="739.86" x2="483.18" y2="746.66" class="down-wick"/>
<rect x="479.18" y="740.11" width="8.00" height="3.21" class="down-body"/>
<line x1="501.55" y1="741.92" x2="501.55" y2="747.35" class="up-wick"/>
<rect x="497.55" y="743.06" width="8.00" height="1.00" class="up-body"/>
<line x1="519.91" y1="741.75" x2="519.91" y2="745.55" class="up-wick"/>
<rect x="515.91" y="742.47" width="8.00" height="1.00" class="up-body"/>
<line x1="538.27" y1="741.31" x2="538.27" y2="745.98" class="down-wick"/>
<rect x="534.27" y="742.47" width="8.00" height="1.11" class="down-body"/>
<line x1="556.64" y1="738.37" x2="556.64" y2="745.92" class="up-wick"/>
<rect x="552.64" y="738.83" width="8.00" height="4.76" class="up-body"/>
<line x1="575.00" y1="736.46" x2="575.00" y2="741.59" class="down-wick"/>
<rect x="571.00" y="738.83" width="8.00" height="1.00" class="down-body"/>
<line x1="593.36" y1="731.90" x2="593.36" y2="741.36" class="up-wick"/>
<rect x="589.36" y="733.08" width="8.00" height="6.16" class="up-body"/>
<line x1="611.73" y1="729.59" x2="611.73" y2="734.72" class="down-wick"/>
<rect x="607.73" y="733.07" width="8.00" height="1.42" class="down-body"/>
<line x1="630.09" y1="733.59" x2="630.09" y2="736.80" class="down-wick"/>
<rect x="626.09" y="734.49" width="8.00" height="1.00" class="down-body"/>
<line x1="648.45" y1="734.72" x2="648.45" y2="741.53" class="down-wick"/>
<rect x="644.45" y="734.99" width="8.00" height="2.06" class="down-body"/>
<line x1="666.82" y1="734.25" x2="666.82" y2="741.21" class="up-wick"/>
<rect x="662.82" y="734.38" width="8.00" height="2.68" class="up-body"/>
<line x1="685.18" y1="731.97" x2="685.18" y2="741.04" class="down-wick"/>
<rect x="681.18" y="734.38" width="8.00" height="5.64" class="down-body"/>
<line x1="703.55" y1="739.31" x2="703.55" y2="743.54" class="down-wick"/>
<rect x="699.55" y="740.02" width="8.00" height="3.28" class="down-body"/>
<line x1="721.91" y1="742.89" x2="721.91" y2="746.24" class="down-wick"/>
<rect x="717.91" y="743.32" width="8.00" height="1.38" class="down-body"/>
<line x1="740.27" y1="734.77" x2="740.27" y2="746.10" class="up-wick"/>
<rect x="736.27" y="737.22" width="8.00" height="7.36" class="up-body"/>
<line x1="758.64" y1="699.06" x2="758.64" y2="739.04" class="up-wick"/>
<rect x="754.64" y="703.85" width="8.00" height="33.37" class="up-body"/>
<line x1="777.00" y1="703.85" x2="777.00" y2="715.54" class="down-wick"/>
<rect x="773.00" y="703.85" width="8.00" height="3.23" class="down-body"/>
<line x1="795.36" y1="697.34" x2="795.36" y2="709.65" class="up-wick"/>
<rect x="791.36" y="702.38" width="8.00" height="4.69" class="up-body"/>
<line x1="813.73" y1="694.01" x2="813.73" y2="702.54" class="up-wick"/>
<rect x="809.73" y="697.88" width="8.00" height="4.51" class="up-body"/>
<line x1="832.09" y1="696.05" x2="832.09" y2="705.88" class="down-wick"/>
<rect x="828.09" y="697.88" width="8.00" height="6.75" class="down-body"/>
<line x1="850.45" y1="698.45" x2="850.45" y2="714.41" class="down-wick"/>
<rect x="846.45" y="704.63" width="8.00" height="4.98" class="down-body"/>
<line x1="868.82" y1="701.34" x2="868.82" y2="709.63" class="up-wick"/>
<rect x="864.82" y="703.20" width="8.00" height="6.43" class="up-body"/>
<line x1="887.18" y1="689.43" x2="887.18" y2="705.71" class="up-wick"/>
<rect x="883.18" y="691.36" width="8.00" height="11.84" class="up-body"/>
<line x1="905.55" y1="674.49" x2="905.55" y2="693.59" class="up-wick"/>
<rect x="901.55" y="674.56" width="8.00" height="16.80" class="up-body"/>
<line x1="923.91" y1="661.77" x2="923.91" y2="677.22" class="up-wick"/>
<rect x="919.91" y="663.31" width="8.00" height="11.25" class="up-body"/>
<line x1="942.27" y1="654.41" x2="942.27" y2="670.18" class="up-wick"/>
<rect x="938.27" y="655.93" width="8.00" height="7.38" class="up-body"/>
<line x1="960.64" y1="638.91" x2="960.64" y2="656.73" class="up-wick"/>
<rect x="956.64" y="645.04" width="8.00" height="10.89" class="up-body"/>
<line x1="979.00" y1="631.06" x2="979.00" y2="646.63" class="up-wick"/>
<rect x="975.00" y="638.29" width="8.00" height="6.75" class="up-body"/>
<line x1="997.36" y1="633.61" x2="997.36" y2="644.89" class="down-wick"/>
<rect x="993.36" y="638.29" width="8.00" height="5.18" class="down-body"/>
<line x1="1015.73" y1="629.08" x2="1015.73" y2="643.93" class="up-wick"/>
<rect x="1011.73" y="632.66" width="8.00" height="10.81" class="up-body"/>
<line x1="1034.09" y1="623.49" x2="1034.09" y2="634.89" class="up-wick"/>
<rect x="1030.09" y="631.83" width="8.00" height="1.00" class="up-body"/>
<line x1="1052.45" y1="614.44" x2="1052.45" y2="632.09" class="up-wick"/>
<rect x="1048.45" y="617.57" width="8.00" height="14.27" class="up-body"/>
<line x1="1070.82" y1="609.24" x2="1070.82" y2="629.98" class="down-wick"/>
<rect x="1066.82" y="617.57" width="8.00" height="10.20" class="down-body"/>
<text x="70" y="806" class="axis-label">2026-05-11 12:15:00+00:00 to 2026-05-11 16:45:00+00:00</text>
<text x="1080" y="806" text-anchor="end" class="axis-label">4642.76 - 4756.46</text>
<text x="70" y="832" class="panel-title">M1 execution window</text>
<rect x="70" y="846" width="1010" height="192" class="plot-bg"/>
<line x1="73.71" y1="995.85" x2="73.71" y2="997.61" class="down-wick"/>
<rect x="71.30" y="995.92" width="4.83" height="1.52" class="down-body"/>
<line x1="81.14" y1="998.36" x2="81.14" y2="1000.74" class="down-wick"/>
<rect x="78.73" y="998.83" width="4.83" height="1.00" class="down-body"/>
<line x1="88.57" y1="997.90" x2="88.57" y2="1000.96" class="down-wick"/>
<rect x="86.15" y="998.75" width="4.83" height="1.65" class="down-body"/>
<line x1="95.99" y1="998.97" x2="95.99" y2="1001.80" class="down-wick"/>
<rect x="93.58" y="999.75" width="4.83" height="1.41" class="down-body"/>
<line x1="103.42" y1="1001.69" x2="103.42" y2="1004.01" class="down-wick"/>
<rect x="101.01" y="1001.98" width="4.83" height="1.48" class="down-body"/>
<line x1="110.85" y1="1008.29" x2="110.85" y2="1011.25" class="down-wick"/>
<rect x="108.43" y="1010.21" width="4.83" height="1.00" class="down-body"/>
<line x1="118.27" y1="1006.36" x2="118.27" y2="1008.64" class="up-wick"/>
<rect x="115.86" y="1008.41" width="4.83" height="1.00" class="up-body"/>
<line x1="125.70" y1="1010.23" x2="125.70" y2="1014.10" class="down-wick"/>
<rect x="123.28" y="1011.18" width="4.83" height="1.70" class="down-body"/>
<line x1="133.12" y1="1014.10" x2="133.12" y2="1017.38" class="down-wick"/>
<rect x="130.71" y="1015.08" width="4.83" height="1.43" class="down-body"/>
<line x1="140.55" y1="1016.68" x2="140.55" y2="1024.76" class="down-wick"/>
<rect x="138.14" y="1017.40" width="4.83" height="4.58" class="down-body"/>
<line x1="147.98" y1="1012.03" x2="147.98" y2="1017.98" class="up-wick"/>
<rect x="145.56" y="1014.16" width="4.83" height="3.70" class="up-body"/>
<line x1="155.40" y1="1008.64" x2="155.40" y2="1011.59" class="up-wick"/>
<rect x="152.99" y="1009.34" width="4.83" height="1.00" class="up-body"/>
<line x1="162.83" y1="1008.92" x2="162.83" y2="1010.86" class="down-wick"/>
<rect x="160.42" y="1009.19" width="4.83" height="1.00" class="down-body"/>
<line x1="170.26" y1="1007.83" x2="170.26" y2="1013.52" class="up-wick"/>
<rect x="167.84" y="1008.61" width="4.83" height="1.35" class="up-body"/>
<line x1="177.68" y1="1005.07" x2="177.68" y2="1009.26" class="up-wick"/>
<rect x="175.27" y="1005.41" width="4.83" height="3.36" class="up-body"/>
<line x1="185.11" y1="1002.73" x2="185.11" y2="1005.00" class="up-wick"/>
<rect x="182.70" y="1003.21" width="4.83" height="1.00" class="up-body"/>
<line x1="192.54" y1="1001.52" x2="192.54" y2="1005.73" class="down-wick"/>
<rect x="190.12" y="1002.97" width="4.83" height="1.06" class="down-body"/>
<line x1="199.96" y1="1004.86" x2="199.96" y2="1006.94" class="up-wick"/>
<rect x="197.55" y="1005.39" width="4.83" height="1.00" class="up-body"/>
<line x1="207.39" y1="1003.23" x2="207.39" y2="1010.69" class="down-wick"/>
<rect x="204.98" y="1003.28" width="4.83" height="6.66" class="down-body"/>
<line x1="214.82" y1="1007.01" x2="214.82" y2="1010.13" class="up-wick"/>
<rect x="212.40" y="1007.66" width="4.83" height="1.00" class="up-body"/>
<line x1="222.24" y1="1005.25" x2="222.24" y2="1010.08" class="down-wick"/>
<rect x="219.83" y="1005.97" width="4.83" height="4.07" class="down-body"/>
<line x1="229.67" y1="1009.63" x2="229.67" y2="1012.32" class="down-wick"/>
<rect x="227.26" y="1011.01" width="4.83" height="1.16" class="down-body"/>
<line x1="237.10" y1="1013.29" x2="237.10" y2="1015.27" class="up-wick"/>
<rect x="234.68" y="1014.20" width="4.83" height="1.00" class="up-body"/>
<line x1="244.52" y1="1007.33" x2="244.52" y2="1011.39" class="up-wick"/>
<rect x="242.11" y="1007.74" width="4.83" height="3.15" class="up-body"/>
<line x1="251.95" y1="1006.65" x2="251.95" y2="1011.66" class="down-wick"/>
<rect x="249.53" y="1007.95" width="4.83" height="2.42" class="down-body"/>
<line x1="259.38" y1="1009.29" x2="259.38" y2="1012.90" class="up-wick"/>
<rect x="256.96" y="1009.29" width="4.83" height="3.53" class="up-body"/>
<line x1="266.80" y1="1010.28" x2="266.80" y2="1014.42" class="up-wick"/>
<rect x="264.39" y="1010.94" width="4.83" height="1.46" class="up-body"/>
<line x1="274.23" y1="1006.52" x2="274.23" y2="1008.70" class="up-wick"/>
<rect x="271.81" y="1007.15" width="4.83" height="1.45" class="up-body"/>
<line x1="281.65" y1="1004.47" x2="281.65" y2="1005.56" class="up-wick"/>
<rect x="279.24" y="1004.74" width="4.83" height="1.00" class="up-body"/>
<line x1="289.08" y1="1005.15" x2="289.08" y2="1007.23" class="down-wick"/>
<rect x="286.67" y="1005.15" width="4.83" height="1.26" class="down-body"/>
<line x1="296.51" y1="1004.45" x2="296.51" y2="1007.90" class="down-wick"/>
<rect x="294.09" y="1004.45" width="4.83" height="1.64" class="down-body"/>
<line x1="303.93" y1="1005.75" x2="303.93" y2="1007.54" class="down-wick"/>
<rect x="301.52" y="1006.33" width="4.83" height="1.00" class="down-body"/>
<line x1="311.36" y1="1003.64" x2="311.36" y2="1004.93" class="up-wick"/>
<rect x="308.95" y="1004.34" width="4.83" height="1.00" class="up-body"/>
<line x1="318.79" y1="1003.26" x2="318.79" y2="1006.75" class="up-wick"/>
<rect x="316.37" y="1003.48" width="4.83" height="3.25" class="up-body"/>
<line x1="326.21" y1="1001.73" x2="326.21" y2="1005.75" class="up-wick"/>
<rect x="323.80" y="1001.76" width="4.83" height="3.12" class="up-body"/>
<line x1="333.64" y1="998.77" x2="333.64" y2="1001.59" class="down-wick"/>
<rect x="331.23" y="999.63" width="4.83" height="1.00" class="down-body"/>
<line x1="341.07" y1="999.74" x2="341.07" y2="1002.33" class="down-wick"/>
<rect x="338.65" y="1000.06" width="4.83" height="1.43" class="down-body"/>
<line x1="348.49" y1="1001.85" x2="348.49" y2="1003.60" class="down-wick"/>
<rect x="346.08" y="1002.29" width="4.83" height="1.00" class="down-body"/>
<line x1="355.92" y1="997.30" x2="355.92" y2="1002.05" class="up-wick"/>
<rect x="353.51" y="998.95" width="4.83" height="2.47" class="up-body"/>
<line x1="363.35" y1="998.25" x2="363.35" y2="999.60" class="down-wick"/>
<rect x="360.93" y="998.29" width="4.83" height="1.00" class="down-body"/>
<line x1="370.77" y1="997.59" x2="370.77" y2="999.74" class="up-wick"/>
<rect x="368.36" y="998.27" width="4.83" height="1.00" class="up-body"/>
<line x1="378.20" y1="998.05" x2="378.20" y2="1001.63" class="down-wick"/>
<rect x="375.78" y="998.83" width="4.83" height="2.79" class="down-body"/>
<line x1="385.62" y1="1003.45" x2="385.62" y2="1008.30" class="up-wick"/>
<rect x="383.21" y="1003.64" width="4.83" height="1.00" class="up-body"/>
<line x1="393.05" y1="1004.20" x2="393.05" y2="1006.21" class="down-wick"/>
<rect x="390.64" y="1004.20" width="4.83" height="1.00" class="down-body"/>
<line x1="400.48" y1="1004.81" x2="400.48" y2="1006.67" class="up-wick"/>
<rect x="398.06" y="1005.10" width="4.83" height="1.00" class="up-body"/>
<line x1="407.90" y1="1000.62" x2="407.90" y2="1004.51" class="down-wick"/>
<rect x="405.49" y="1002.89" width="4.83" height="1.00" class="down-body"/>
<line x1="415.33" y1="1004.51" x2="415.33" y2="1006.43" class="up-wick"/>
<rect x="412.92" y="1004.51" width="4.83" height="1.00" class="up-body"/>
<line x1="422.76" y1="999.97" x2="422.76" y2="1002.21" class="up-wick"/>
<rect x="420.34" y="1001.08" width="4.83" height="1.09" class="up-body"/>
<line x1="430.18" y1="998.39" x2="430.18" y2="1001.20" class="up-wick"/>
<rect x="427.77" y="998.51" width="4.83" height="1.18" class="up-body"/>
<line x1="437.61" y1="995.99" x2="437.61" y2="998.88" class="down-wick"/>
<rect x="435.20" y="996.70" width="4.83" height="1.64" class="down-body"/>
<line x1="445.04" y1="999.45" x2="445.04" y2="1000.71" class="up-wick"/>
<rect x="442.62" y="999.91" width="4.83" height="1.00" class="up-body"/>
<line x1="452.46" y1="999.62" x2="452.46" y2="1001.29" class="down-wick"/>
<rect x="450.05" y="1000.40" width="4.83" height="1.00" class="down-body"/>
<line x1="459.89" y1="999.72" x2="459.89" y2="1002.02" class="down-wick"/>
<rect x="457.48" y="999.87" width="4.83" height="2.15" class="down-body"/>
<line x1="467.32" y1="997.03" x2="467.32" y2="1000.42" class="up-wick"/>
<rect x="464.90" y="997.11" width="4.83" height="2.47" class="up-body"/>
<line x1="474.74" y1="990.37" x2="474.74" y2="994.57" class="up-wick"/>
<rect x="472.33" y="990.37" width="4.83" height="4.21" class="up-body"/>
<line x1="482.17" y1="989.55" x2="482.17" y2="991.92" class="down-wick"/>
<rect x="479.76" y="989.81" width="4.83" height="1.72" class="down-body"/>
<line x1="489.60" y1="989.84" x2="489.60" y2="992.67" class="down-wick"/>
<rect x="487.18" y="990.84" width="4.83" height="1.00" class="down-body"/>
<line x1="497.02" y1="992.77" x2="497.02" y2="995.72" class="up-wick"/>
<rect x="494.61" y="993.04" width="4.83" height="2.49" class="up-body"/>
<line x1="504.45" y1="992.62" x2="504.45" y2="995.68" class="down-wick"/>
<rect x="502.03" y="992.62" width="4.83" height="2.38" class="down-body"/>
<line x1="511.88" y1="993.84" x2="511.88" y2="995.99" class="up-wick"/>
<rect x="509.46" y="994.52" width="4.83" height="1.46" class="up-body"/>
<line x1="519.30" y1="991.58" x2="519.30" y2="994.97" class="down-wick"/>
<rect x="516.89" y="992.79" width="4.83" height="1.43" class="down-body"/>
<line x1="526.73" y1="992.60" x2="526.73" y2="994.46" class="up-wick"/>
<rect x="524.31" y="993.30" width="4.83" height="1.00" class="up-body"/>
<line x1="534.15" y1="991.46" x2="534.15" y2="993.30" class="up-wick"/>
<rect x="531.74" y="992.19" width="4.83" height="1.00" class="up-body"/>
<line x1="541.58" y1="991.01" x2="541.58" y2="993.21" class="up-wick"/>
<rect x="539.17" y="991.36" width="4.83" height="1.00" class="up-body"/>
<line x1="549.01" y1="991.78" x2="549.01" y2="995.73" class="down-wick"/>
<rect x="546.59" y="991.93" width="4.83" height="2.61" class="down-body"/>
<line x1="556.43" y1="993.16" x2="556.43" y2="995.66" class="down-wick"/>
<rect x="554.02" y="993.31" width="4.83" height="1.55" class="down-body"/>
<line x1="563.86" y1="993.01" x2="563.86" y2="995.12" class="up-wick"/>
<rect x="561.45" y="993.76" width="4.83" height="1.00" class="up-body"/>
<line x1="571.29" y1="988.05" x2="571.29" y2="990.62" class="up-wick"/>
<rect x="568.87" y="988.51" width="4.83" height="1.72" class="up-body"/>
<line x1="578.71" y1="986.76" x2="578.71" y2="990.25" class="up-wick"/>
<rect x="576.30" y="988.37" width="4.83" height="1.00" class="up-body"/>
<line x1="586.14" y1="986.52" x2="586.14" y2="988.43" class="up-wick"/>
<rect x="583.73" y="986.89" width="4.83" height="1.00" class="up-body"/>
<line x1="593.57" y1="987.17" x2="593.57" y2="991.07" class="up-wick"/>
<rect x="591.15" y="987.17" width="4.83" height="1.77" class="up-body"/>
<line x1="600.99" y1="984.47" x2="600.99" y2="988.29" class="up-wick"/>
<rect x="598.58" y="986.07" width="4.83" height="2.21" class="up-body"/>
<line x1="608.42" y1="981.53" x2="608.42" y2="983.54" class="down-wick"/>
<rect x="606.01" y="982.36" width="4.83" height="1.00" class="down-body"/>
<line x1="615.85" y1="979.33" x2="615.85" y2="983.38" class="up-wick"/>
<rect x="613.43" y="979.87" width="4.83" height="2.52" class="up-body"/>
<line x1="623.27" y1="979.86" x2="623.27" y2="981.42" class="down-wick"/>
<rect x="620.86" y="980.04" width="4.83" height="1.00" class="down-body"/>
<line x1="630.70" y1="983.30" x2="630.70" y2="984.75" class="up-wick"/>
<rect x="628.28" y="983.66" width="4.83" height="1.00" class="up-body"/>
<line x1="638.12" y1="983.47" x2="638.12" y2="985.05" class="up-wick"/>
<rect x="635.71" y="983.79" width="4.83" height="1.06" class="up-body"/>
<line x1="645.55" y1="984.35" x2="645.55" y2="986.47" class="down-wick"/>
<rect x="643.14" y="984.39" width="4.83" height="1.00" class="down-body"/>
<line x1="652.98" y1="986.76" x2="652.98" y2="988.77" class="up-wick"/>
<rect x="650.56" y="987.25" width="4.83" height="1.00" class="up-body"/>
<line x1="660.40" y1="986.64" x2="660.40" y2="991.24" class="up-wick"/>
<rect x="657.99" y="987.42" width="4.83" height="1.06" class="up-body"/>
<line x1="667.83" y1="986.60" x2="667.83" y2="989.29" class="down-wick"/>
<rect x="665.42" y="986.74" width="4.83" height="2.38" class="down-body"/>
<line x1="675.26" y1="985.29" x2="675.26" y2="987.08" class="down-wick"/>
<rect x="672.84" y="986.69" width="4.83" height="1.00" class="down-body"/>
<line x1="682.68" y1="983.89" x2="682.68" y2="986.19" class="up-wick"/>
<rect x="680.27" y="984.03" width="4.83" height="1.11" class="up-body"/>
<line x1="690.11" y1="981.60" x2="690.11" y2="986.93" class="up-wick"/>
<rect x="687.70" y="984.41" width="4.83" height="2.33" class="up-body"/>
<line x1="697.54" y1="984.88" x2="697.54" y2="987.61" class="down-wick"/>
<rect x="695.12" y="984.88" width="4.83" height="2.67" class="down-body"/>
<line x1="704.96" y1="989.72" x2="704.96" y2="993.26" class="down-wick"/>
<rect x="702.55" y="989.72" width="4.83" height="3.12" class="down-body"/>
<line x1="712.39" y1="989.19" x2="712.39" y2="990.79" class="up-wick"/>
<rect x="709.98" y="989.36" width="4.83" height="1.12" class="up-body"/>
<line x1="719.82" y1="990.71" x2="719.82" y2="993.23" class="down-wick"/>
<rect x="717.40" y="990.73" width="4.83" height="2.30" class="down-body"/>
<line x1="727.24" y1="993.50" x2="727.24" y2="995.29" class="down-wick"/>
<rect x="724.83" y="994.00" width="4.83" height="1.00" class="down-body"/>
<line x1="734.67" y1="993.37" x2="734.67" y2="995.99" class="down-wick"/>
<rect x="732.26" y="993.64" width="4.83" height="1.43" class="down-body"/>
<line x1="742.10" y1="990.25" x2="742.10" y2="995.85" class="up-wick"/>
<rect x="739.68" y="993.50" width="4.83" height="1.00" class="up-body"/>
<line x1="749.52" y1="991.49" x2="749.52" y2="994.69" class="up-wick"/>
<rect x="747.11" y="991.73" width="4.83" height="2.88" class="up-body"/>
<line x1="756.95" y1="984.42" x2="756.95" y2="990.03" class="down-wick"/>
<rect x="754.53" y="986.48" width="4.83" height="1.00" class="down-body"/>
<line x1="764.38" y1="971.89" x2="764.38" y2="982.69" class="up-wick"/>
<rect x="761.96" y="973.79" width="4.83" height="8.89" class="up-body"/>
<line x1="771.80" y1="952.31" x2="771.80" y2="966.26" class="up-wick"/>
<rect x="769.39" y="954.56" width="4.83" height="9.85" class="up-body"/>
<line x1="779.23" y1="953.23" x2="779.23" y2="965.02" class="down-wick"/>
<rect x="776.81" y="953.23" width="4.83" height="8.89" class="down-body"/>
<line x1="786.65" y1="953.47" x2="786.65" y2="961.12" class="up-wick"/>
<rect x="784.24" y="955.72" width="4.83" height="4.53" class="up-body"/>
<line x1="794.08" y1="954.51" x2="794.08" y2="962.13" class="up-wick"/>
<rect x="791.67" y="956.49" width="4.83" height="5.48" class="up-body"/>
<line x1="801.51" y1="946.71" x2="801.51" y2="956.33" class="up-wick"/>
<rect x="799.09" y="948.33" width="4.83" height="8.01" class="up-body"/>
<line x1="808.93" y1="950.07" x2="808.93" y2="954.80" class="down-wick"/>
<rect x="806.52" y="950.25" width="4.83" height="4.19" class="down-body"/>
<line x1="816.36" y1="944.89" x2="816.36" y2="951.91" class="up-wick"/>
<rect x="813.95" y="946.11" width="4.83" height="5.64" class="up-body"/>
<line x1="823.79" y1="943.30" x2="823.79" y2="947.00" class="down-wick"/>
<rect x="821.37" y="944.14" width="4.83" height="2.27" class="down-body"/>
<line x1="831.21" y1="944.48" x2="831.21" y2="947.99" class="up-wick"/>
<rect x="828.80" y="947.20" width="4.83" height="1.00" class="up-body"/>
<line x1="838.64" y1="946.81" x2="838.64" y2="953.66" class="down-wick"/>
<rect x="836.23" y="947.41" width="4.83" height="4.99" class="down-body"/>
<line x1="846.07" y1="950.07" x2="846.07" y2="955.14" class="down-wick"/>
<rect x="843.65" y="953.32" width="4.83" height="1.38" class="down-body"/>
<line x1="853.49" y1="949.86" x2="853.49" y2="954.66" class="up-wick"/>
<rect x="851.08" y="950.54" width="4.83" height="3.47" class="up-body"/>
<line x1="860.92" y1="947.78" x2="860.92" y2="960.27" class="down-wick"/>
<rect x="858.51" y="950.15" width="4.83" height="8.21" class="down-body"/>
<line x1="868.35" y1="958.80" x2="868.35" y2="963.88" class="up-wick"/>
<rect x="865.93" y="959.04" width="4.83" height="1.00" class="up-body"/>
<line x1="875.77" y1="952.91" x2="875.77" y2="958.09" class="up-wick"/>
<rect x="873.36" y="955.29" width="4.83" height="2.79" class="up-body"/>
<line x1="883.20" y1="950.70" x2="883.20" y2="954.26" class="up-wick"/>
<rect x="880.78" y="953.32" width="4.83" height="1.00" class="up-body"/>
<line x1="890.62" y1="949.83" x2="890.62" y2="955.11" class="up-wick"/>
<rect x="888.21" y="949.88" width="4.83" height="2.69" class="up-body"/>
<line x1="898.05" y1="939.25" x2="898.05" y2="943.85" class="down-wick"/>
<rect x="895.64" y="942.55" width="4.83" height="1.00" class="down-body"/>
<line x1="905.48" y1="940.27" x2="905.48" y2="943.49" class="up-wick"/>
<rect x="903.06" y="940.63" width="4.83" height="1.00" class="up-body"/>
<line x1="912.90" y1="930.90" x2="912.90" y2="935.30" class="down-wick"/>
<rect x="910.49" y="932.67" width="4.83" height="1.58" class="down-body"/>
<line x1="920.33" y1="928.74" x2="920.33" y2="931.89" class="down-wick"/>
<rect x="917.92" y="929.37" width="4.83" height="1.00" class="down-body"/>
<line x1="927.76" y1="919.25" x2="927.76" y2="926.37" class="up-wick"/>
<rect x="925.34" y="919.37" width="4.83" height="4.31" class="up-body"/>
<line x1="935.18" y1="916.36" x2="935.18" y2="919.69" class="down-wick"/>
<rect x="932.77" y="917.38" width="4.83" height="1.00" class="down-body"/>
<line x1="942.61" y1="910.79" x2="942.61" y2="915.20" class="up-wick"/>
<rect x="940.20" y="912.34" width="4.83" height="2.86" class="up-body"/>
<line x1="950.04" y1="909.66" x2="950.04" y2="919.27" class="up-wick"/>
<rect x="947.62" y="916.05" width="4.83" height="1.14" class="up-body"/>
<line x1="957.46" y1="903.46" x2="957.46" y2="911.91" class="up-wick"/>
<rect x="955.05" y="906.53" width="4.83" height="4.16" class="up-body"/>
<line x1="964.89" y1="902.39" x2="964.89" y2="905.69" class="up-wick"/>
<rect x="962.48" y="904.76" width="4.83" height="1.00" class="up-body"/>
<line x1="972.32" y1="893.68" x2="972.32" y2="898.20" class="down-wick"/>
<rect x="969.90" y="895.13" width="4.83" height="1.60" class="down-body"/>
<line x1="979.74" y1="887.72" x2="979.74" y2="894.65" class="down-wick"/>
<rect x="977.33" y="893.21" width="4.83" height="1.00" class="down-body"/>
<line x1="987.17" y1="884.35" x2="987.17" y2="892.81" class="down-wick"/>
<rect x="984.76" y="884.91" width="4.83" height="7.65" class="down-body"/>
<line x1="994.60" y1="881.27" x2="994.60" y2="893.26" class="up-wick"/>
<rect x="992.18" y="883.33" width="4.83" height="8.59" class="up-body"/>
<line x1="1002.02" y1="882.37" x2="1002.02" y2="887.50" class="up-wick"/>
<rect x="999.61" y="883.24" width="4.83" height="3.85" class="up-body"/>
<line x1="1009.45" y1="882.61" x2="1009.45" y2="886.61" class="down-wick"/>
<rect x="1007.03" y="883.72" width="4.83" height="2.90" class="down-body"/>
<line x1="1016.88" y1="889.58" x2="1016.88" y2="893.75" class="up-wick"/>
<rect x="1014.46" y="892.32" width="4.83" height="1.00" class="up-body"/>
<line x1="1024.30" y1="877.81" x2="1024.30" y2="884.45" class="up-wick"/>
<rect x="1021.89" y="880.09" width="4.83" height="4.16" class="up-body"/>
<line x1="1031.73" y1="878.39" x2="1031.73" y2="883.33" class="up-wick"/>
<rect x="1029.31" y="881.66" width="4.83" height="1.67" class="up-body"/>
<line x1="1039.15" y1="875.03" x2="1039.15" y2="883.67" class="up-wick"/>
<rect x="1036.74" y="881.01" width="4.83" height="1.00" class="up-body"/>
<line x1="1046.58" y1="874.11" x2="1046.58" y2="879.75" class="up-wick"/>
<rect x="1044.17" y="874.50" width="4.83" height="1.18" class="up-body"/>
<line x1="1054.01" y1="873.75" x2="1054.01" y2="880.87" class="down-wick"/>
<rect x="1051.59" y="874.25" width="4.83" height="6.34" class="down-body"/>
<line x1="1061.43" y1="868.68" x2="1061.43" y2="876.53" class="up-wick"/>
<rect x="1059.02" y="869.09" width="4.83" height="7.43" class="up-body"/>
<line x1="1068.86" y1="863.04" x2="1068.86" y2="866.75" class="down-wick"/>
<rect x="1066.45" y="863.26" width="4.83" height="1.94" class="down-body"/>
<line x1="1076.29" y1="859.24" x2="1076.29" y2="867.62" class="up-wick"/>
<rect x="1073.87" y="859.67" width="4.83" height="6.52" class="up-body"/>
<text x="70" y="1056" class="axis-label">2026-05-11 12:15:00+00:00 to 2026-05-11 16:45:00+00:00</text>
<text x="1080" y="1056" text-anchor="end" class="axis-label">4642.83 - 4755.54</text>
</svg>