<svg xmlns="http://www.w3.org/2000/svg" width="1120" height="1054" viewBox="0 0 1120 1054">
<style>
text{font-family:Arial,Helvetica,sans-serif}.title{font-size:21px;font-weight:700;fill:#1f2937}.subtitle{font-size:12px;fill:#4b5563}.panel-title{font-size:15px;font-weight:700;fill:#111827}.muted{font-size:13px;fill:#6b7280}.plot-bg{fill:#f8fafc;stroke:#cbd5e1;stroke-width:1}.up-body{fill:#15803d;stroke:#14532d;stroke-width:.8}.down-body{fill:#b91c1c;stroke:#7f1d1d;stroke-width:.8}.up-wick{stroke:#14532d;stroke-width:1}.down-wick{stroke:#7f1d1d;stroke-width:1}.sweep-line{stroke:#7c3aed;stroke-width:1.6;stroke-dasharray:6 4}.number-line{stroke:#0f766e;stroke-width:1.4;stroke-dasharray:3 4}.entry-line{stroke:#2563eb;stroke-width:1.4}.sl-line{stroke:#dc2626;stroke-width:1.4}.tp-line{stroke:#16a34a;stroke-width:1.4}.level-label,.axis-label{font-size:11px;fill:#374151}
</style>
<text x="28" y="28" class="title">Adelin v2 visual review sample sample_002</text>
<text x="28" y="48" class="subtitle">Candidate windows are for visual labeling only and are not trade signals.</text>
<text x="560" y="48" class="subtitle" text-anchor="middle">LARGE_LOWER_WICK_REVERSAL_VISUAL_CANDIDATE</text>
<text x="70" y="82" class="panel-title">H1 liquidity context</text>
<rect x="70" y="96" width="1010" height="192" class="plot-bg"/>
<line x1="82.62" y1="154.89" x2="82.62" y2="222.88" class="up-wick"/>
<rect x="78.62" y="166.45" width="8.00" height="9.77" class="up-body"/>
<line x1="107.88" y1="163.92" x2="107.88" y2="185.49" class="down-wick"/>
<rect x="103.88" y="166.45" width="8.00" height="12.03" class="down-body"/>
<line x1="133.12" y1="171.28" x2="133.12" y2="254.00" class="down-wick"/>
<rect x="129.12" y="178.45" width="8.00" height="28.12" class="down-body"/>
<line x1="158.38" y1="180.29" x2="158.38" y2="241.67" class="up-wick"/>
<rect x="154.38" y="193.99" width="8.00" height="13.26" class="up-body"/>
<line x1="183.62" y1="170.86" x2="183.62" y2="198.66" class="up-wick"/>
<rect x="179.62" y="183.02" width="8.00" height="10.98" class="up-body"/>
<line x1="208.88" y1="164.12" x2="208.88" y2="194.33" class="up-wick"/>
<rect x="204.88" y="173.08" width="8.00" height="9.94" class="up-body"/>
<line x1="234.12" y1="161.61" x2="234.12" y2="187.95" class="down-wick"/>
<rect x="230.12" y="173.09" width="8.00" height="1.00" class="down-body"/>
<line x1="259.38" y1="158.63" x2="259.38" y2="188.08" class="down-wick"/>
<rect x="255.38" y="173.74" width="8.00" height="12.97" class="down-body"/>
<line x1="284.62" y1="163.83" x2="284.62" y2="188.39" class="up-wick"/>
<rect x="280.62" y="165.61" width="8.00" height="21.10" class="up-body"/>
<line x1="309.88" y1="148.20" x2="309.88" y2="176.97" class="down-wick"/>
<rect x="305.88" y="165.61" width="8.00" height="1.00" class="down-body"/>
<line x1="335.12" y1="152.10" x2="335.12" y2="171.10" class="up-wick"/>
<rect x="331.12" y="161.38" width="8.00" height="4.96" class="up-body"/>
<line x1="360.38" y1="158.75" x2="360.38" y2="174.55" class="down-wick"/>
<rect x="356.38" y="161.38" width="8.00" height="9.34" class="down-body"/>
<line x1="385.62" y1="164.31" x2="385.62" y2="185.38" class="down-wick"/>
<rect x="381.62" y="170.73" width="8.00" height="3.61" class="down-body"/>
<line x1="410.88" y1="138.53" x2="410.88" y2="188.16" class="up-wick"/>
<rect x="406.88" y="160.53" width="8.00" height="13.81" class="up-body"/>
<line x1="436.12" y1="128.23" x2="436.12" y2="167.63" class="up-wick"/>
<rect x="432.12" y="133.19" width="8.00" height="27.36" class="up-body"/>
<line x1="461.38" y1="115.85" x2="461.38" y2="145.64" class="up-wick"/>
<rect x="457.38" y="126.95" width="8.00" height="6.25" class="up-body"/>
<line x1="486.62" y1="126.95" x2="486.62" y2="177.53" class="down-wick"/>
<rect x="482.62" y="126.95" width="8.00" height="39.08" class="down-body"/>
<line x1="511.88" y1="164.09" x2="511.88" y2="185.46" class="down-wick"/>
<rect x="507.88" y="166.05" width="8.00" height="3.85" class="down-body"/>
<line x1="537.12" y1="155.48" x2="537.12" y2="182.70" class="up-wick"/>
<rect x="533.12" y="161.11" width="8.00" height="8.80" class="up-body"/>
<line x1="562.38" y1="150.33" x2="562.38" y2="167.27" class="down-wick"/>
<rect x="558.38" y="161.11" width="8.00" height="4.27" class="down-body"/>
<line x1="587.62" y1="164.29" x2="587.62" y2="182.54" class="down-wick"/>
<rect x="583.62" y="165.37" width="8.00" height="14.71" class="down-body"/>
<line x1="612.88" y1="141.40" x2="612.88" y2="180.84" class="up-wick"/>
<rect x="608.88" y="150.18" width="8.00" height="29.90" class="up-body"/>
<line x1="638.12" y1="123.75" x2="638.12" y2="140.26" class="up-wick"/>
<rect x="634.12" y="129.64" width="8.00" height="9.95" class="up-body"/>
<line x1="663.38" y1="109.56" x2="663.38" y2="129.89" class="up-wick"/>
<rect x="659.38" y="119.14" width="8.00" height="10.52" class="up-body"/>
<line x1="688.62" y1="109.24" x2="688.62" y2="146.37" class="down-wick"/>
<rect x="684.62" y="119.14" width="8.00" height="24.42" class="down-body"/>
<line x1="713.88" y1="131.51" x2="713.88" y2="155.88" class="up-wick"/>
<rect x="709.88" y="143.01" width="8.00" height="1.00" class="up-body"/>
<line x1="739.12" y1="143.01" x2="739.12" y2="166.71" class="down-wick"/>
<rect x="735.12" y="143.01" width="8.00" height="22.11" class="down-body"/>
<line x1="764.38" y1="154.58" x2="764.38" y2="169.90" class="down-wick"/>
<rect x="760.38" y="165.12" width="8.00" height="2.79" class="down-body"/>
<line x1="789.62" y1="167.10" x2="789.62" y2="177.26" class="down-wick"/>
<rect x="785.62" y="167.91" width="8.00" height="3.53" class="down-body"/>
<line x1="814.88" y1="165.89" x2="814.88" y2="186.78" class="down-wick"/>
<rect x="810.88" y="171.42" width="8.00" height="2.05" class="down-body"/>
<line x1="840.12" y1="156.16" x2="840.12" y2="183.36" class="up-wick"/>
<rect x="836.12" y="163.82" width="8.00" height="9.65" class="up-body"/>
<line x1="865.38" y1="149.05" x2="865.38" y2="172.80" class="up-wick"/>
<rect x="861.38" y="151.79" width="8.00" height="12.03" class="up-body"/>
<line x1="890.62" y1="149.23" x2="890.62" y2="179.46" class="down-wick"/>
<rect x="886.62" y="151.79" width="8.00" height="19.17" class="down-body"/>
<line x1="915.88" y1="165.62" x2="915.88" y2="179.84" class="down-wick"/>
<rect x="911.88" y="170.98" width="8.00" height="1.24" class="down-body"/>
<line x1="941.12" y1="168.43" x2="941.12" y2="193.98" class="up-wick"/>
<rect x="937.12" y="168.43" width="8.00" height="3.79" class="up-body"/>
<line x1="966.38" y1="164.04" x2="966.38" y2="188.16" class="down-wick"/>
<rect x="962.38" y="168.43" width="8.00" height="18.58" class="down-body"/>
<line x1="991.62" y1="165.16" x2="991.62" y2="191.42" class="up-wick"/>
<rect x="987.62" y="178.50" width="8.00" height="8.50" class="up-body"/>
<line x1="1016.88" y1="178.09" x2="1016.88" y2="274.76" class="down-wick"/>
<rect x="1012.88" y="178.50" width="8.00" height="44.26" class="down-body"/>
<line x1="1042.12" y1="208.66" x2="1042.12" y2="248.47" class="down-wick"/>
<rect x="1038.12" y="222.76" width="8.00" height="12.89" class="down-body"/>
<line x1="1067.38" y1="215.56" x2="1067.38" y2="241.37" class="up-wick"/>
<rect x="1063.38" y="216.61" width="8.00" height="19.04" class="up-body"/>
<text x="70" y="306" class="axis-label">2026-05-18 01:00:00+00:00 to 2026-05-19 18:00:00+00:00</text>
<text x="1080" y="306" text-anchor="end" class="axis-label">4454.72 - 4599.20</text>
<text x="70" y="332" class="panel-title">M15 liquidity / reaction context</text>
<rect x="70" y="346" width="1010" height="192" class="plot-bg"/>
<line x1="77.65" y1="359.24" x2="77.65" y2="382.31" class="down-wick"/>
<rect x="73.65" y="368.59" width="8.00" height="7.19" class="down-body"/>
<line x1="92.95" y1="372.44" x2="92.95" y2="383.17" class="down-wick"/>
<rect x="88.95" y="375.58" width="8.00" height="3.99" class="down-body"/>
<line x1="108.26" y1="377.20" x2="108.26" y2="392.63" class="down-wick"/>
<rect x="104.26" y="379.58" width="8.00" height="10.17" class="down-body"/>
<line x1="123.56" y1="381.72" x2="123.56" y2="397.78" class="up-wick"/>
<rect x="119.56" y="386.55" width="8.00" height="3.30" class="up-body"/>
<line x1="138.86" y1="382.69" x2="138.86" y2="402.43" class="down-wick"/>
<rect x="134.86" y="386.55" width="8.00" height="9.00" class="down-body"/>
<line x1="154.17" y1="377.35" x2="154.17" y2="400.91" class="up-wick"/>
<rect x="150.17" y="379.70" width="8.00" height="15.85" class="up-body"/>
<line x1="169.47" y1="378.25" x2="169.47" y2="392.43" class="down-wick"/>
<rect x="165.47" y="379.70" width="8.00" height="9.48" class="down-body"/>
<line x1="184.77" y1="389.18" x2="184.77" y2="404.08" class="down-wick"/>
<rect x="180.77" y="389.18" width="8.00" height="12.74" class="down-body"/>
<line x1="200.08" y1="391.36" x2="200.08" y2="406.02" class="up-wick"/>
<rect x="196.08" y="394.80" width="8.00" height="7.12" class="up-body"/>
<line x1="215.38" y1="394.67" x2="215.38" y2="406.83" class="down-wick"/>
<rect x="211.38" y="394.82" width="8.00" height="4.76" class="down-body"/>
<line x1="230.68" y1="397.22" x2="230.68" y2="413.57" class="down-wick"/>
<rect x="226.68" y="399.58" width="8.00" height="12.35" class="down-body"/>
<line x1="245.98" y1="404.37" x2="245.98" y2="416.85" class="up-wick"/>
<rect x="241.98" y="405.60" width="8.00" height="6.33" class="up-body"/>
<line x1="261.29" y1="403.96" x2="261.29" y2="412.48" class="down-wick"/>
<rect x="257.29" y="405.60" width="8.00" height="3.60" class="down-body"/>
<line x1="276.59" y1="401.09" x2="276.59" y2="412.16" class="down-wick"/>
<rect x="272.59" y="409.19" width="8.00" height="1.87" class="down-body"/>
<line x1="291.89" y1="408.87" x2="291.89" y2="415.94" class="down-wick"/>
<rect x="287.89" y="411.18" width="8.00" height="3.62" class="down-body"/>
<line x1="307.20" y1="413.97" x2="307.20" y2="423.51" class="down-wick"/>
<rect x="303.20" y="414.80" width="8.00" height="6.66" class="down-body"/>
<line x1="322.50" y1="417.45" x2="322.50" y2="424.15" class="up-wick"/>
<rect x="318.50" y="421.32" width="8.00" height="1.00" class="up-body"/>
<line x1="337.80" y1="418.75" x2="337.80" y2="424.43" class="down-wick"/>
<rect x="333.80" y="421.32" width="8.00" height="1.00" class="down-body"/>
<line x1="353.11" y1="416.62" x2="353.11" y2="422.09" class="up-wick"/>
<rect x="349.11" y="418.44" width="8.00" height="3.62" class="up-body"/>
<line x1="368.41" y1="412.72" x2="368.41" y2="421.50" class="up-wick"/>
<rect x="364.41" y="415.12" width="8.00" height="3.30" class="up-body"/>
<line x1="383.71" y1="414.42" x2="383.71" y2="434.22" class="down-wick"/>
<rect x="379.71" y="415.16" width="8.00" height="8.60" class="down-body"/>
<line x1="399.02" y1="416.05" x2="399.02" y2="431.37" class="down-wick"/>
<rect x="395.02" y="423.76" width="8.00" height="1.00" class="down-body"/>
<line x1="414.32" y1="417.02" x2="414.32" y2="431.17" class="up-wick"/>
<rect x="410.32" y="420.52" width="8.00" height="3.30" class="up-body"/>
<line x1="429.62" y1="413.72" x2="429.62" y2="430.70" class="up-wick"/>
<rect x="425.62" y="418.96" width="8.00" height="1.56" class="up-body"/>
<line x1="444.92" y1="402.71" x2="444.92" y2="420.45" class="up-wick"/>
<rect x="440.92" y="411.22" width="8.00" height="7.74" class="up-body"/>
<line x1="460.23" y1="404.20" x2="460.23" y2="415.09" class="up-wick"/>
<rect x="456.23" y="405.09" width="8.00" height="6.13" class="up-body"/>
<line x1="475.53" y1="404.42" x2="475.53" y2="417.48" class="down-wick"/>
<rect x="471.53" y="405.15" width="8.00" height="5.44" class="down-body"/>
<line x1="490.83" y1="400.85" x2="490.83" y2="416.00" class="up-wick"/>
<rect x="486.83" y="409.89" width="8.00" height="1.00" class="up-body"/>
<line x1="506.14" y1="407.96" x2="506.14" y2="417.51" class="down-wick"/>
<rect x="502.14" y="409.89" width="8.00" height="1.00" class="down-body"/>
<line x1="521.44" y1="409.07" x2="521.44" y2="419.83" class="down-wick"/>
<rect x="517.44" y="410.43" width="8.00" height="8.42" class="down-body"/>
<line x1="536.74" y1="395.40" x2="536.74" y2="419.07" class="up-wick"/>
<rect x="532.74" y="398.21" width="8.00" height="20.63" class="up-body"/>
<line x1="552.05" y1="395.57" x2="552.05" y2="418.19" class="down-wick"/>
<rect x="548.05" y="398.21" width="8.00" height="14.84" class="down-body"/>
<line x1="567.35" y1="410.73" x2="567.35" y2="426.68" class="down-wick"/>
<rect x="563.35" y="413.05" width="8.00" height="10.99" class="down-body"/>
<line x1="582.65" y1="414.97" x2="582.65" y2="425.96" class="up-wick"/>
<rect x="578.65" y="417.28" width="8.00" height="6.76" class="up-body"/>
<line x1="597.95" y1="409.95" x2="597.95" y2="424.31" class="down-wick"/>
<rect x="593.95" y="417.28" width="8.00" height="1.00" class="down-body"/>
<line x1="613.26" y1="417.96" x2="613.26" y2="426.00" class="down-wick"/>
<rect x="609.26" y="417.96" width="8.00" height="4.36" class="down-body"/>
<line x1="628.56" y1="412.45" x2="628.56" y2="427.08" class="up-wick"/>
<rect x="624.56" y="420.78" width="8.00" height="1.55" class="up-body"/>
<line x1="643.86" y1="417.47" x2="643.86" y2="426.26" class="down-wick"/>
<rect x="639.86" y="420.78" width="8.00" height="1.79" class="down-body"/>
<line x1="659.17" y1="415.29" x2="659.17" y2="424.02" class="up-wick"/>
<rect x="655.17" y="419.23" width="8.00" height="3.34" class="up-body"/>
<line x1="674.47" y1="418.66" x2="674.47" y2="427.22" class="down-wick"/>
<rect x="670.47" y="419.23" width="8.00" height="1.00" class="down-body"/>
<line x1="689.77" y1="419.18" x2="689.77" y2="423.96" class="down-wick"/>
<rect x="685.77" y="419.75" width="8.00" height="1.97" class="down-body"/>
<line x1="705.08" y1="417.80" x2="705.08" y2="441.63" class="down-wick"/>
<rect x="701.08" y="421.72" width="8.00" height="14.69" class="down-body"/>
<line x1="720.38" y1="415.33" x2="720.38" y2="438.55" class="up-wick"/>
<rect x="716.38" y="415.33" width="8.00" height="21.07" class="up-body"/>
<line x1="735.68" y1="410.82" x2="735.68" y2="427.30" class="down-wick"/>
<rect x="731.68" y="415.33" width="8.00" height="10.88" class="down-body"/>
<line x1="750.98" y1="418.77" x2="750.98" y2="427.53" class="up-wick"/>
<rect x="746.98" y="422.71" width="8.00" height="3.51" class="up-body"/>
<line x1="766.29" y1="417.45" x2="766.29" y2="426.04" class="up-wick"/>
<rect x="762.29" y="419.18" width="8.00" height="3.53" class="up-body"/>
<line x1="781.59" y1="418.64" x2="781.59" y2="435.64" class="down-wick"/>
<rect x="777.59" y="419.18" width="8.00" height="15.27" class="down-body"/>
<line x1="796.89" y1="412.63" x2="796.89" y2="438.99" class="up-wick"/>
<rect x="792.89" y="418.67" width="8.00" height="15.78" class="up-body"/>
<line x1="812.20" y1="415.87" x2="812.20" y2="426.26" class="up-wick"/>
<rect x="808.20" y="417.07" width="8.00" height="1.61" class="up-body"/>
<line x1="827.50" y1="411.97" x2="827.50" y2="426.18" class="down-wick"/>
<rect x="823.50" y="417.07" width="8.00" height="8.11" class="down-body"/>
<line x1="842.80" y1="419.53" x2="842.80" y2="427.72" class="down-wick"/>
<rect x="838.80" y="425.18" width="8.00" height="1.00" class="down-body"/>
<line x1="858.11" y1="425.28" x2="858.11" y2="456.17" class="down-wick"/>
<rect x="854.11" y="425.70" width="8.00" height="17.27" class="down-body"/>
<line x1="873.41" y1="440.58" x2="873.41" y2="488.85" class="down-wick"/>
<rect x="869.41" y="442.97" width="8.00" height="44.31" class="down-body"/>
<line x1="888.71" y1="482.49" x2="888.71" y2="524.76" class="down-wick"/>
<rect x="884.71" y="487.28" width="8.00" height="21.78" class="down-body"/>
<line x1="904.02" y1="460.99" x2="904.02" y2="511.78" class="up-wick"/>
<rect x="900.02" y="471.25" width="8.00" height="37.81" class="up-body"/>
<line x1="919.32" y1="456.74" x2="919.32" y2="486.96" class="down-wick"/>
<rect x="915.32" y="471.25" width="8.00" height="15.08" class="down-body"/>
<line x1="934.62" y1="475.20" x2="934.62" y2="497.71" class="down-wick"/>
<rect x="930.62" y="486.35" width="8.00" height="3.58" class="down-body"/>
<line x1="949.92" y1="478.20" x2="949.92" y2="493.64" class="up-wick"/>
<rect x="945.92" y="483.80" width="8.00" height="6.13" class="up-body"/>
<line x1="965.23" y1="480.97" x2="965.23" y2="495.28" class="down-wick"/>
<rect x="961.23" y="483.80" width="8.00" height="1.00" class="down-body"/>
<line x1="980.53" y1="476.54" x2="980.53" y2="490.39" class="up-wick"/>
<rect x="976.53" y="477.88" width="8.00" height="6.63" class="up-body"/>
<line x1="995.83" y1="469.54" x2="995.83" y2="484.77" class="down-wick"/>
<rect x="991.83" y="477.88" width="8.00" height="1.00" class="down-body"/>
<line x1="1011.14" y1="465.94" x2="1011.14" y2="479.25" class="up-wick"/>
<rect x="1007.14" y="473.56" width="8.00" height="4.42" class="up-body"/>
<line x1="1026.44" y1="463.84" x2="1026.44" y2="476.19" class="up-wick"/>
<rect x="1022.44" y="464.92" width="8.00" height="8.64" class="up-body"/>
<line x1="1041.74" y1="462.44" x2="1041.74" y2="481.81" class="down-wick"/>
<rect x="1037.74" y="464.92" width="8.00" height="10.31" class="down-body"/>
<line x1="1057.05" y1="460.09" x2="1057.05" y2="478.17" class="up-wick"/>
<rect x="1053.05" y="464.65" width="8.00" height="10.58" class="up-body"/>
<line x1="1072.35" y1="459.44" x2="1072.35" y2="468.77" class="down-wick"/>
<rect x="1068.35" y="464.65" width="8.00" height="3.69" class="down-body"/>
<text x="70" y="556" class="axis-label">2026-05-19 03:15:00+00:00 to 2026-05-19 19:30:00+00:00</text>
<text x="1080" y="556" text-anchor="end" class="axis-label">4455.00 - 4595.40</text>
<text x="70" y="582" class="panel-title">M5 reaction / execution context</text>
<rect x="70" y="596" width="1010" height="192" class="plot-bg"/>
<line x1="79.18" y1="635.98" x2="79.18" y2="649.53" class="up-wick"/>
<rect x="75.18" y="639.20" width="8.00" height="7.21" class="up-body"/>
<line x1="97.55" y1="633.08" x2="97.55" y2="640.75" class="up-wick"/>
<rect x="93.55" y="634.51" width="8.00" height="4.69" class="up-body"/>
<line x1="115.91" y1="615.80" x2="115.91" y2="634.53" class="up-wick"/>
<rect x="111.91" y="615.80" width="8.00" height="18.69" class="up-body"/>
<line x1="134.27" y1="609.24" x2="134.27" y2="618.90" class="down-wick"/>
<rect x="130.27" y="615.80" width="8.00" height="2.13" class="down-body"/>
<line x1="152.64" y1="617.70" x2="152.64" y2="623.72" class="down-wick"/>
<rect x="148.64" y="617.92" width="8.00" height="4.41" class="down-body"/>
<line x1="171.00" y1="620.88" x2="171.00" y2="633.18" class="down-wick"/>
<rect x="167.00" y="622.33" width="8.00" height="9.28" class="down-body"/>
<line x1="189.36" y1="620.86" x2="189.36" y2="633.52" class="up-wick"/>
<rect x="185.36" y="623.07" width="8.00" height="8.54" class="up-body"/>
<line x1="207.73" y1="621.08" x2="207.73" y2="627.20" class="up-wick"/>
<rect x="203.73" y="623.05" width="8.00" height="1.00" class="up-body"/>
<line x1="226.09" y1="620.78" x2="226.09" y2="631.21" class="down-wick"/>
<rect x="222.09" y="622.73" width="8.00" height="3.77" class="down-body"/>
<line x1="244.45" y1="623.46" x2="244.45" y2="629.76" class="down-wick"/>
<rect x="240.45" y="626.50" width="8.00" height="1.00" class="down-body"/>
<line x1="262.82" y1="626.39" x2="262.82" y2="631.35" class="down-wick"/>
<rect x="258.82" y="626.60" width="8.00" height="2.36" class="down-body"/>
<line x1="281.18" y1="618.88" x2="281.18" y2="630.68" class="up-wick"/>
<rect x="277.18" y="621.38" width="8.00" height="7.55" class="up-body"/>
<line x1="299.55" y1="620.60" x2="299.55" y2="630.44" class="down-wick"/>
<rect x="295.55" y="621.38" width="8.00" height="3.89" class="down-body"/>
<line x1="317.91" y1="624.92" x2="317.91" y2="636.40" class="down-wick"/>
<rect x="313.91" y="625.27" width="8.00" height="10.23" class="down-body"/>
<line x1="336.27" y1="635.21" x2="336.27" y2="645.30" class="down-wick"/>
<rect x="332.27" y="635.50" width="8.00" height="8.07" class="down-body"/>
<line x1="354.64" y1="633.04" x2="354.64" y2="650.16" class="up-wick"/>
<rect x="350.64" y="634.05" width="8.00" height="9.52" class="up-body"/>
<line x1="373.00" y1="620.21" x2="373.00" y2="638.17" class="up-wick"/>
<rect x="369.00" y="620.58" width="8.00" height="13.43" class="up-body"/>
<line x1="391.36" y1="611.86" x2="391.36" y2="622.27" class="down-wick"/>
<rect x="387.36" y="620.56" width="8.00" height="1.00" class="down-body"/>
<line x1="409.73" y1="617.58" x2="409.73" y2="631.67" class="down-wick"/>
<rect x="405.73" y="620.66" width="8.00" height="4.59" class="down-body"/>
<line x1="428.09" y1="616.57" x2="428.09" y2="625.97" class="up-wick"/>
<rect x="424.09" y="617.53" width="8.00" height="7.73" class="up-body"/>
<line x1="446.45" y1="616.73" x2="446.45" y2="624.20" class="down-wick"/>
<rect x="442.45" y="617.51" width="8.00" height="1.00" class="down-body"/>
<line x1="464.82" y1="611.21" x2="464.82" y2="621.26" class="up-wick"/>
<rect x="460.82" y="617.76" width="8.00" height="1.00" class="up-body"/>
<line x1="483.18" y1="610.91" x2="483.18" y2="622.51" class="down-wick"/>
<rect x="479.18" y="617.80" width="8.00" height="2.34" class="down-body"/>
<line x1="501.55" y1="612.46" x2="501.55" y2="631.55" class="down-wick"/>
<rect x="497.55" y="620.21" width="8.00" height="9.89" class="down-body"/>
<line x1="519.91" y1="625.05" x2="519.91" y2="633.79" class="up-wick"/>
<rect x="515.91" y="626.21" width="8.00" height="3.89" class="up-body"/>
<line x1="538.27" y1="622.25" x2="538.27" y2="630.50" class="up-wick"/>
<rect x="534.27" y="622.71" width="8.00" height="3.50" class="up-body"/>
<line x1="556.64" y1="621.90" x2="556.64" y2="631.65" class="down-wick"/>
<rect x="552.64" y="622.71" width="8.00" height="8.14" class="down-body"/>
<line x1="575.00" y1="630.24" x2="575.00" y2="660.93" class="down-wick"/>
<rect x="571.00" y="630.85" width="8.00" height="26.88" class="down-body"/>
<line x1="593.36" y1="654.53" x2="593.36" y2="675.11" class="down-wick"/>
<rect x="589.36" y="657.73" width="8.00" height="1.57" class="down-body"/>
<line x1="611.73" y1="651.89" x2="611.73" y2="665.58" class="up-wick"/>
<rect x="607.73" y="655.94" width="8.00" height="3.36" class="up-body"/>
<line x1="630.09" y1="652.47" x2="630.09" y2="672.13" class="down-wick"/>
<rect x="626.09" y="655.94" width="8.00" height="14.54" class="down-body"/>
<line x1="648.45" y1="665.30" x2="648.45" y2="697.26" class="down-wick"/>
<rect x="644.45" y="670.49" width="8.00" height="24.14" class="down-body"/>
<line x1="666.82" y1="694.54" x2="666.82" y2="722.59" class="down-wick"/>
<rect x="662.82" y="694.60" width="8.00" height="25.71" class="down-body"/>
<line x1="685.18" y1="713.36" x2="685.18" y2="774.76" class="down-wick"/>
<rect x="681.18" y="720.31" width="8.00" height="21.02" class="down-body"/>
<line x1="703.55" y1="730.90" x2="703.55" y2="761.51" class="up-wick"/>
<rect x="699.55" y="737.77" width="8.00" height="3.56" class="up-body"/>
<line x1="721.91" y1="737.41" x2="721.91" y2="763.73" class="down-wick"/>
<rect x="717.91" y="738.09" width="8.00" height="13.87" class="down-body"/>
<line x1="740.27" y1="739.60" x2="740.27" y2="755.91" class="up-wick"/>
<rect x="736.27" y="741.98" width="8.00" height="9.97" class="up-body"/>
<line x1="758.64" y1="694.01" x2="758.64" y2="744.68" class="up-wick"/>
<rect x="754.64" y="695.38" width="8.00" height="46.60" class="up-body"/>
<line x1="777.00" y1="682.13" x2="777.00" y2="708.57" class="down-wick"/>
<rect x="773.00" y="695.38" width="8.00" height="1.65" class="down-body"/>
<line x1="795.36" y1="680.18" x2="795.36" y2="713.00" class="up-wick"/>
<rect x="791.36" y="681.31" width="8.00" height="15.71" class="up-body"/>
<line x1="813.73" y1="675.95" x2="813.73" y2="714.71" class="down-wick"/>
<rect x="809.73" y="681.75" width="8.00" height="14.66" class="down-body"/>
<line x1="832.09" y1="696.41" x2="832.09" y2="719.85" class="down-wick"/>
<rect x="828.09" y="696.41" width="8.00" height="22.53" class="down-body"/>
<line x1="850.45" y1="702.77" x2="850.45" y2="720.33" class="up-wick"/>
<rect x="846.45" y="714.67" width="8.00" height="4.29" class="up-body"/>
<line x1="868.82" y1="712.40" x2="868.82" y2="734.75" class="down-wick"/>
<rect x="864.82" y="714.67" width="8.00" height="16.55" class="down-body"/>
<line x1="887.18" y1="715.92" x2="887.18" y2="735.47" class="up-wick"/>
<rect x="883.18" y="724.16" width="8.00" height="7.05" class="up-body"/>
<line x1="905.55" y1="708.23" x2="905.55" y2="727.08" class="up-wick"/>
<rect x="901.55" y="723.98" width="8.00" height="1.00" class="up-body"/>
<line x1="923.91" y1="707.12" x2="923.91" y2="726.29" class="down-wick"/>
<rect x="919.91" y="723.98" width="8.00" height="1.00" class="down-body"/>
<line x1="942.27" y1="708.85" x2="942.27" y2="729.55" class="up-wick"/>
<rect x="938.27" y="715.26" width="8.00" height="9.61" class="up-body"/>
<line x1="960.64" y1="711.90" x2="960.64" y2="728.85" class="down-wick"/>
<rect x="956.64" y="715.26" width="8.00" height="9.22" class="down-body"/>
<line x1="979.00" y1="716.28" x2="979.00" y2="731.93" class="down-wick"/>
<rect x="975.00" y="724.48" width="8.00" height="6.50" class="down-body"/>
<line x1="997.36" y1="711.15" x2="997.36" y2="731.07" class="up-wick"/>
<rect x="993.36" y="716.30" width="8.00" height="14.68" class="up-body"/>
<line x1="1015.73" y1="704.73" x2="1015.73" y2="716.47" class="up-wick"/>
<rect x="1011.73" y="711.19" width="8.00" height="5.11" class="up-body"/>
<line x1="1034.09" y1="704.71" x2="1034.09" y2="724.84" class="up-wick"/>
<rect x="1030.09" y="707.79" width="8.00" height="3.32" class="up-body"/>
<line x1="1052.45" y1="704.97" x2="1052.45" y2="713.06" class="up-wick"/>
<rect x="1048.45" y="706.66" width="8.00" height="1.13" class="up-body"/>
<line x1="1070.82" y1="694.54" x2="1070.82" y2="708.17" class="up-wick"/>
<rect x="1066.82" y="703.78" width="8.00" height="2.88" class="up-body"/>
<text x="70" y="806" class="axis-label">2026-05-19 13:45:00+00:00 to 2026-05-19 18:15:00+00:00</text>
<text x="1080" y="806" text-anchor="end" class="axis-label">4458.01 - 4554.67</text>
<text x="70" y="832" class="panel-title">M1 execution window</text>
<rect x="70" y="846" width="1010" height="192" class="plot-bg"/>
<line x1="73.71" y1="890.25" x2="73.71" y2="899.11" class="up-wick"/>
<rect x="71.30" y="892.36" width="4.83" height="4.05" class="up-body"/>
<line x1="81.14" y1="885.98" x2="81.14" y2="896.47" class="up-wick"/>
<rect x="78.73" y="886.95" width="4.83" height="7.77" class="up-body"/>
<line x1="88.57" y1="889.20" x2="88.57" y2="894.18" class="up-wick"/>
<rect x="86.15" y="889.20" width="4.83" height="1.93" class="up-body"/>
<line x1="95.99" y1="886.08" x2="95.99" y2="887.61" class="up-wick"/>
<rect x="93.58" y="886.91" width="4.83" height="1.00" class="up-body"/>
<line x1="103.42" y1="883.81" x2="103.42" y2="888.76" class="up-wick"/>
<rect x="101.01" y="886.08" width="4.83" height="1.23" class="up-body"/>
<line x1="110.85" y1="876.86" x2="110.85" y2="884.53" class="up-wick"/>
<rect x="108.43" y="881.05" width="4.83" height="3.44" class="up-body"/>
<line x1="118.27" y1="871.22" x2="118.27" y2="879.07" class="up-wick"/>
<rect x="115.86" y="871.34" width="4.83" height="7.35" class="up-body"/>
<line x1="125.70" y1="865.80" x2="125.70" y2="872.13" class="up-wick"/>
<rect x="123.28" y="865.80" width="4.83" height="6.32" class="up-body"/>
<line x1="133.12" y1="863.99" x2="133.12" y2="868.24" class="down-wick"/>
<rect x="130.71" y="865.42" width="4.83" height="1.81" class="down-body"/>
<line x1="140.55" y1="859.24" x2="140.55" y2="865.02" class="up-wick"/>
<rect x="138.14" y="863.49" width="4.83" height="1.00" class="up-body"/>
<line x1="147.98" y1="867.70" x2="147.98" y2="871.34" class="down-wick"/>
<rect x="145.56" y="867.92" width="4.83" height="2.78" class="down-body"/>
<line x1="155.40" y1="869.27" x2="155.40" y2="871.78" class="up-wick"/>
<rect x="152.99" y="870.33" width="4.83" height="1.00" class="up-body"/>
<line x1="162.83" y1="870.35" x2="162.83" y2="873.72" class="down-wick"/>
<rect x="160.42" y="871.12" width="4.83" height="1.21" class="down-body"/>
<line x1="170.26" y1="871.99" x2="170.26" y2="881.71" class="up-wick"/>
<rect x="167.84" y="871.99" width="4.83" height="7.27" class="up-body"/>
<line x1="177.68" y1="876.90" x2="177.68" y2="882.72" class="up-wick"/>
<rect x="175.27" y="877.08" width="4.83" height="3.36" class="up-body"/>
<line x1="185.11" y1="880.76" x2="185.11" y2="883.52" class="up-wick"/>
<rect x="182.70" y="881.33" width="4.83" height="1.00" class="up-body"/>
<line x1="192.54" y1="875.51" x2="192.54" y2="878.97" class="down-wick"/>
<rect x="190.12" y="877.38" width="4.83" height="1.15" class="down-body"/>
<line x1="199.96" y1="870.86" x2="199.96" y2="874.99" class="up-wick"/>
<rect x="197.55" y="873.07" width="4.83" height="1.47" class="up-body"/>
<line x1="207.39" y1="872.09" x2="207.39" y2="876.92" class="up-wick"/>
<rect x="204.98" y="872.87" width="4.83" height="2.05" class="up-body"/>
<line x1="214.82" y1="873.86" x2="214.82" y2="875.67" class="up-wick"/>
<rect x="212.40" y="874.72" width="4.83" height="1.00" class="up-body"/>
<line x1="222.24" y1="870.78" x2="222.24" y2="874.22" class="down-wick"/>
<rect x="219.83" y="872.73" width="4.83" height="1.19" class="down-body"/>
<line x1="229.67" y1="878.11" x2="229.67" y2="881.21" class="up-wick"/>
<rect x="227.26" y="878.27" width="4.83" height="2.90" class="up-body"/>
<line x1="237.10" y1="876.03" x2="237.10" y2="880.18" class="up-wick"/>
<rect x="234.68" y="876.50" width="4.83" height="3.60" class="up-body"/>
<line x1="244.52" y1="874.34" x2="244.52" y2="879.11" class="down-wick"/>
<rect x="242.11" y="874.38" width="4.83" height="4.35" class="down-body"/>
<line x1="251.95" y1="877.04" x2="251.95" y2="879.46" class="down-wick"/>
<rect x="249.53" y="877.70" width="4.83" height="1.00" class="down-body"/>
<line x1="259.38" y1="876.39" x2="259.38" y2="879.98" class="down-wick"/>
<rect x="256.96" y="876.60" width="4.83" height="1.69" class="down-body"/>
<line x1="266.80" y1="876.66" x2="266.80" y2="881.29" class="down-wick"/>
<rect x="264.39" y="877.34" width="4.83" height="3.73" class="down-body"/>
<line x1="274.23" y1="877.93" x2="274.23" y2="880.87" class="up-wick"/>
<rect x="271.81" y="878.97" width="4.83" height="1.00" class="up-body"/>
<line x1="281.65" y1="876.94" x2="281.65" y2="880.68" class="up-wick"/>
<rect x="279.24" y="877.44" width="4.83" height="2.54" class="up-body"/>
<line x1="289.08" y1="871.00" x2="289.08" y2="875.73" class="up-wick"/>
<rect x="286.67" y="871.04" width="4.83" height="3.93" class="up-body"/>
<line x1="296.51" y1="870.60" x2="296.51" y2="873.58" class="down-wick"/>
<rect x="294.09" y="871.38" width="4.83" height="1.05" class="down-body"/>
<line x1="303.93" y1="877.50" x2="303.93" y2="880.28" class="up-wick"/>
<rect x="301.52" y="878.43" width="4.83" height="1.83" class="up-body"/>
<line x1="311.36" y1="873.01" x2="311.36" y2="876.05" class="down-wick"/>
<rect x="308.95" y="873.15" width="4.83" height="2.13" class="down-body"/>
<line x1="318.79" y1="876.31" x2="318.79" y2="880.02" class="up-wick"/>
<rect x="316.37" y="877.40" width="4.83" height="1.61" class="up-body"/>
<line x1="326.21" y1="875.85" x2="326.21" y2="881.31" class="down-wick"/>
<rect x="323.80" y="876.58" width="4.83" height="4.47" class="down-body"/>
<line x1="333.64" y1="885.21" x2="333.64" y2="890.23" class="down-wick"/>
<rect x="331.23" y="885.50" width="4.83" height="2.82" class="down-body"/>
<line x1="341.07" y1="889.77" x2="341.07" y2="892.63" class="down-wick"/>
<rect x="338.65" y="890.27" width="4.83" height="1.55" class="down-body"/>
<line x1="348.49" y1="891.11" x2="348.49" y2="895.30" class="down-wick"/>
<rect x="346.08" y="891.48" width="4.83" height="2.09" class="down-body"/>
<line x1="355.92" y1="890.77" x2="355.92" y2="900.16" class="up-wick"/>
<rect x="353.51" y="890.83" width="4.83" height="6.44" class="up-body"/>
<line x1="363.35" y1="883.04" x2="363.35" y2="887.05" class="up-wick"/>
<rect x="360.93" y="884.87" width="4.83" height="1.79" class="up-body"/>
<line x1="370.77" y1="881.27" x2="370.77" y2="888.17" class="down-wick"/>
<rect x="368.36" y="884.01" width="4.83" height="2.70" class="down-body"/>
<line x1="378.20" y1="877.89" x2="378.20" y2="881.95" class="up-wick"/>
<rect x="375.78" y="879.03" width="4.83" height="2.68" class="up-body"/>
<line x1="385.62" y1="870.21" x2="385.62" y2="873.94" class="down-wick"/>
<rect x="383.21" y="870.43" width="4.83" height="1.00" class="down-body"/>
<line x1="393.05" y1="864.76" x2="393.05" y2="872.27" class="up-wick"/>
<rect x="390.64" y="865.10" width="4.83" height="3.28" class="up-body"/>
<line x1="400.48" y1="866.08" x2="400.48" y2="870.03" class="down-wick"/>
<rect x="398.06" y="866.08" width="4.83" height="2.78" class="down-body"/>
<line x1="407.90" y1="867.58" x2="407.90" y2="871.80" class="down-wick"/>
<rect x="405.49" y="870.66" width="4.83" height="1.01" class="down-body"/>
<line x1="415.33" y1="875.61" x2="415.33" y2="879.35" class="up-wick"/>
<rect x="412.92" y="876.70" width="4.83" height="2.40" class="up-body"/>
<line x1="422.76" y1="874.86" x2="422.76" y2="881.67" class="up-wick"/>
<rect x="420.34" y="875.25" width="4.83" height="5.84" class="up-body"/>
<line x1="430.18" y1="868.98" x2="430.18" y2="873.70" class="down-wick"/>
<rect x="427.77" y="870.17" width="4.83" height="2.94" class="down-body"/>
<line x1="437.61" y1="866.59" x2="437.61" y2="870.60" class="down-wick"/>
<rect x="435.20" y="869.07" width="4.83" height="1.00" class="down-body"/>
<line x1="445.04" y1="866.73" x2="445.04" y2="871.08" class="down-wick"/>
<rect x="442.62" y="867.51" width="4.83" height="2.94" class="down-body"/>
<line x1="452.46" y1="868.30" x2="452.46" y2="872.99" class="down-wick"/>
<rect x="450.05" y="869.17" width="4.83" height="3.36" class="down-body"/>
<line x1="459.89" y1="867.11" x2="459.89" y2="871.90" class="up-wick"/>
<rect x="457.48" y="868.32" width="4.83" height="3.58" class="up-body"/>
<line x1="467.32" y1="861.21" x2="467.32" y2="867.03" class="up-wick"/>
<rect x="464.90" y="863.04" width="4.83" height="2.98" class="up-body"/>
<line x1="474.74" y1="863.31" x2="474.74" y2="867.11" class="down-wick"/>
<rect x="472.33" y="863.45" width="4.83" height="3.66" class="down-body"/>
<line x1="482.17" y1="867.11" x2="482.17" y2="872.51" class="up-wick"/>
<rect x="479.76" y="867.11" width="4.83" height="1.00" class="up-body"/>
<line x1="489.60" y1="865.34" x2="489.60" y2="867.82" class="up-wick"/>
<rect x="487.18" y="865.50" width="4.83" height="2.09" class="up-body"/>
<line x1="497.02" y1="866.45" x2="497.02" y2="870.43" class="down-wick"/>
<rect x="494.61" y="867.35" width="4.83" height="2.80" class="down-body"/>
<line x1="504.45" y1="862.46" x2="504.45" y2="873.29" class="up-wick"/>
<rect x="502.03" y="863.06" width="4.83" height="9.99" class="up-body"/>
<line x1="511.88" y1="869.09" x2="511.88" y2="876.07" class="down-wick"/>
<rect x="509.46" y="874.70" width="4.83" height="1.07" class="down-body"/>
<line x1="519.30" y1="877.48" x2="519.30" y2="881.89" class="down-wick"/>
<rect x="516.89" y="880.10" width="4.83" height="1.00" class="down-body"/>
<line x1="526.73" y1="879.88" x2="526.73" y2="883.79" class="up-wick"/>
<rect x="524.31" y="879.92" width="4.83" height="2.62" class="up-body"/>
<line x1="534.15" y1="875.05" x2="534.15" y2="879.64" class="up-wick"/>
<rect x="531.74" y="876.21" width="4.83" height="1.95" class="up-body"/>
<line x1="541.58" y1="873.58" x2="541.58" y2="877.20" class="down-wick"/>
<rect x="539.17" y="875.61" width="4.83" height="1.39" class="down-body"/>
<line x1="549.01" y1="872.25" x2="549.01" y2="876.68" class="up-wick"/>
<rect x="546.59" y="874.30" width="4.83" height="2.15" class="up-body"/>
<line x1="556.43" y1="871.90" x2="556.43" y2="875.11" class="down-wick"/>
<rect x="554.02" y="872.71" width="4.83" height="1.53" class="down-body"/>
<line x1="563.86" y1="871.96" x2="563.86" y2="875.13" class="down-wick"/>
<rect x="561.45" y="872.91" width="4.83" height="2.22" class="down-body"/>
<line x1="571.29" y1="876.03" x2="571.29" y2="881.65" class="down-wick"/>
<rect x="568.87" y="876.33" width="4.83" height="4.53" class="down-body"/>
<line x1="578.71" y1="883.77" x2="578.71" y2="891.54" class="up-wick"/>
<rect x="576.30" y="884.75" width="4.83" height="4.57" class="up-body"/>
<line x1="586.14" y1="891.52" x2="586.14" y2="897.01" class="down-wick"/>
<rect x="583.73" y="893.09" width="4.83" height="3.62" class="down-body"/>
<line x1="593.57" y1="904.53" x2="593.57" y2="913.20" class="up-wick"/>
<rect x="591.15" y="907.39" width="4.83" height="1.00" class="up-body"/>
<line x1="600.99" y1="909.96" x2="600.99" y2="925.11" class="down-wick"/>
<rect x="598.58" y="911.73" width="4.83" height="8.88" class="down-body"/>
<line x1="608.42" y1="908.57" x2="608.42" y2="920.70" class="up-wick"/>
<rect x="606.01" y="909.30" width="4.83" height="10.89" class="up-body"/>
<line x1="615.85" y1="903.40" x2="615.85" y2="915.58" class="down-wick"/>
<rect x="613.43" y="907.00" width="4.83" height="4.91" class="down-body"/>
<line x1="623.27" y1="902.49" x2="623.27" y2="911.94" class="down-wick"/>
<rect x="620.86" y="902.98" width="4.83" height="3.52" class="down-body"/>
<line x1="630.70" y1="902.47" x2="630.70" y2="906.34" class="up-wick"/>
<rect x="628.28" y="904.12" width="4.83" height="1.83" class="up-body"/>
<line x1="638.12" y1="908.69" x2="638.12" y2="919.57" class="down-wick"/>
<rect x="635.71" y="910.00" width="4.83" height="9.58" class="down-body"/>
<line x1="645.55" y1="915.08" x2="645.55" y2="922.13" class="down-wick"/>
<rect x="643.14" y="915.08" width="4.83" height="5.40" class="down-body"/>
<line x1="652.98" y1="919.29" x2="652.98" y2="929.98" class="down-wick"/>
<rect x="650.56" y="922.35" width="4.83" height="6.77" class="down-body"/>
<line x1="660.40" y1="931.89" x2="660.40" y2="944.72" class="down-wick"/>
<rect x="657.99" y="933.32" width="4.83" height="10.85" class="down-body"/>
<line x1="667.83" y1="944.60" x2="667.83" y2="952.85" class="down-wick"/>
<rect x="665.42" y="944.60" width="4.83" height="7.69" class="down-body"/>
<line x1="675.26" y1="944.54" x2="675.26" y2="953.05" class="up-wick"/>
<rect x="672.84" y="950.74" width="4.83" height="1.97" class="up-body"/>
<line x1="682.68" y1="957.63" x2="682.68" y2="972.59" class="down-wick"/>
<rect x="680.27" y="957.81" width="4.83" height="12.50" class="down-body"/>
<line x1="690.11" y1="973.01" x2="690.11" y2="1024.76" class="down-wick"/>
<rect x="687.70" y="973.01" width="4.83" height="40.58" class="down-body"/>
<line x1="697.54" y1="985.64" x2="697.54" y2="1001.20" class="down-wick"/>
<rect x="695.12" y="989.06" width="4.83" height="2.58" class="down-body"/>
<line x1="704.96" y1="990.33" x2="704.96" y2="1011.51" class="down-wick"/>
<rect x="702.55" y="991.33" width="4.83" height="13.13" class="down-body"/>
<line x1="712.39" y1="980.90" x2="712.39" y2="990.45" class="up-wick"/>
<rect x="709.98" y="984.31" width="4.83" height="4.73" class="up-body"/>
<line x1="719.82" y1="982.68" x2="719.82" y2="992.95" class="up-wick"/>
<rect x="717.40" y="987.77" width="4.83" height="1.00" class="up-body"/>
<line x1="727.24" y1="996.97" x2="727.24" y2="1009.82" class="down-wick"/>
<rect x="724.83" y="1001.06" width="4.83" height="7.03" class="down-body"/>
<line x1="734.67" y1="995.22" x2="734.67" y2="1005.07" class="up-wick"/>
<rect x="732.26" y="996.15" width="4.83" height="8.88" class="up-body"/>
<line x1="742.10" y1="989.60" x2="742.10" y2="1001.95" class="up-wick"/>
<rect x="739.68" y="990.81" width="4.83" height="11.14" class="up-body"/>
<line x1="749.52" y1="993.11" x2="749.52" y2="1005.91" class="down-wick"/>
<rect x="747.11" y="998.77" width="4.83" height="1.00" class="down-body"/>
<line x1="756.95" y1="989.97" x2="756.95" y2="1003.72" class="up-wick"/>
<rect x="754.53" y="991.98" width="4.83" height="7.15" class="up-body"/>
<line x1="764.38" y1="966.33" x2="764.38" y2="975.91" class="up-wick"/>
<rect x="761.96" y="970.03" width="4.83" height="3.12" class="up-body"/>
<line x1="771.80" y1="960.89" x2="771.80" y2="965.58" class="down-wick"/>
<rect x="769.39" y="962.86" width="4.83" height="1.00" class="down-body"/>
<line x1="779.23" y1="932.13" x2="779.23" y2="945.38" class="up-wick"/>
<rect x="776.81" y="937.75" width="4.83" height="7.63" class="up-body"/>
<line x1="786.65" y1="947.18" x2="786.65" y2="957.16" class="up-wick"/>
<rect x="784.24" y="948.58" width="4.83" height="5.94" class="up-body"/>
<line x1="794.08" y1="938.13" x2="794.08" y2="948.54" class="down-wick"/>
<rect x="791.67" y="938.21" width="4.83" height="8.82" class="down-body"/>
<line x1="801.51" y1="950.09" x2="801.51" y2="960.06" class="up-wick"/>
<rect x="799.09" y="953.36" width="4.83" height="5.18" class="up-body"/>
<line x1="808.93" y1="953.26" x2="808.93" y2="961.87" class="up-wick"/>
<rect x="806.52" y="955.53" width="4.83" height="3.85" class="up-body"/>
<line x1="816.36" y1="925.95" x2="816.36" y2="946.45" class="down-wick"/>
<rect x="813.95" y="931.75" width="4.83" height="14.70" class="down-body"/>
<line x1="823.79" y1="941.82" x2="823.79" y2="963.67" class="down-wick"/>
<rect x="821.37" y="944.17" width="4.83" height="15.53" class="down-body"/>
<line x1="831.21" y1="944.96" x2="831.21" y2="955.97" class="up-wick"/>
<rect x="828.80" y="946.41" width="4.83" height="7.95" class="up-body"/>
<line x1="838.64" y1="951.71" x2="838.64" y2="959.46" class="up-wick"/>
<rect x="836.23" y="953.96" width="4.83" height="1.01" class="up-body"/>
<line x1="846.07" y1="952.29" x2="846.07" y2="962.18" class="down-wick"/>
<rect x="843.65" y="952.95" width="4.83" height="7.87" class="down-body"/>
<line x1="853.49" y1="961.29" x2="853.49" y2="970.33" class="up-wick"/>
<rect x="851.08" y="961.87" width="4.83" height="7.09" class="up-body"/>
<line x1="860.92" y1="955.93" x2="860.92" y2="967.61" class="up-wick"/>
<rect x="858.51" y="957.95" width="4.83" height="4.95" class="up-body"/>
<line x1="868.35" y1="952.77" x2="868.35" y2="964.94" class="down-wick"/>
<rect x="865.93" y="954.00" width="4.83" height="10.67" class="down-body"/>
<line x1="875.77" y1="972.49" x2="875.77" y2="984.69" class="down-wick"/>
<rect x="873.36" y="973.37" width="4.83" height="9.79" class="down-body"/>
<line x1="883.20" y1="973.63" x2="883.20" y2="982.98" class="down-wick"/>
<rect x="880.78" y="976.88" width="4.83" height="4.13" class="down-body"/>
<line x1="890.62" y1="978.89" x2="890.62" y2="985.47" class="up-wick"/>
<rect x="888.21" y="980.92" width="4.83" height="1.00" class="up-body"/>
<line x1="898.05" y1="967.80" x2="898.05" y2="974.00" class="up-wick"/>
<rect x="895.64" y="969.99" width="4.83" height="1.00" class="up-body"/>
<line x1="905.48" y1="969.39" x2="905.48" y2="974.72" class="down-wick"/>
<rect x="903.06" y="972.77" width="4.83" height="1.39" class="down-body"/>
<line x1="912.90" y1="958.23" x2="912.90" y2="965.16" class="down-wick"/>
<rect x="910.49" y="960.32" width="4.83" height="1.03" class="down-body"/>
<line x1="920.33" y1="968.62" x2="920.33" y2="975.53" class="up-wick"/>
<rect x="917.92" y="970.25" width="4.83" height="3.85" class="up-body"/>
<line x1="927.76" y1="961.03" x2="927.76" y2="974.36" class="up-wick"/>
<rect x="925.34" y="962.28" width="4.83" height="11.70" class="up-body"/>
<line x1="935.18" y1="961.55" x2="935.18" y2="968.72" class="down-wick"/>
<rect x="932.77" y="961.55" width="4.83" height="5.42" class="down-body"/>
<line x1="942.61" y1="967.21" x2="942.61" y2="976.29" class="down-wick"/>
<rect x="940.20" y="967.23" width="4.83" height="7.65" class="down-body"/>
<line x1="950.04" y1="964.47" x2="950.04" y2="976.59" class="up-wick"/>
<rect x="947.62" y="966.61" width="4.83" height="6.67" class="up-body"/>
<line x1="957.46" y1="958.85" x2="957.46" y2="967.75" class="down-wick"/>
<rect x="955.05" y="961.41" width="4.83" height="5.50" class="down-body"/>
<line x1="964.89" y1="961.90" x2="964.89" y2="974.30" class="down-wick"/>
<rect x="962.48" y="965.26" width="4.83" height="5.42" class="down-body"/>
<line x1="972.32" y1="964.37" x2="972.32" y2="970.82" class="down-wick"/>
<rect x="969.90" y="966.28" width="4.83" height="4.31" class="down-body"/>
<line x1="979.74" y1="971.26" x2="979.74" y2="975.47" class="down-wick"/>
<rect x="977.33" y="972.22" width="4.83" height="2.26" class="down-body"/>
<line x1="987.17" y1="966.41" x2="987.17" y2="972.25" class="down-wick"/>
<rect x="984.76" y="966.51" width="4.83" height="4.37" class="down-body"/>
<line x1="994.60" y1="970.33" x2="994.60" y2="979.59" class="down-wick"/>
<rect x="992.18" y="971.12" width="4.83" height="7.89" class="down-body"/>
<line x1="1002.02" y1="972.27" x2="1002.02" y2="981.07" class="up-wick"/>
<rect x="999.61" y="972.27" width="4.83" height="8.70" class="up-body"/>
<line x1="1009.45" y1="968.92" x2="1009.45" y2="977.20" class="up-wick"/>
<rect x="1007.03" y="970.45" width="4.83" height="5.18" class="up-body"/>
<line x1="1016.88" y1="962.74" x2="1016.88" y2="967.11" class="down-wick"/>
<rect x="1014.46" y="964.03" width="4.83" height="2.26" class="down-body"/>
<line x1="1024.30" y1="957.34" x2="1024.30" y2="962.32" class="up-wick"/>
<rect x="1021.89" y="960.77" width="4.83" height="1.00" class="up-body"/>
<line x1="1031.73" y1="956.38" x2="1031.73" y2="962.06" class="up-wick"/>
<rect x="1029.31" y="957.44" width="4.83" height="1.00" class="up-body"/>
<line x1="1039.15" y1="960.40" x2="1039.15" y2="966.99" class="down-wick"/>
<rect x="1036.74" y="961.11" width="4.83" height="5.01" class="down-body"/>
<line x1="1046.58" y1="962.74" x2="1046.58" y2="974.84" class="down-wick"/>
<rect x="1044.17" y="963.71" width="4.83" height="8.68" class="down-body"/>
<line x1="1054.01" y1="954.71" x2="1054.01" y2="966.47" class="up-wick"/>
<rect x="1051.59" y="957.79" width="4.83" height="7.99" class="up-body"/>
<line x1="1061.43" y1="957.85" x2="1061.43" y2="963.06" class="down-wick"/>
<rect x="1059.02" y="960.73" width="4.83" height="1.15" class="down-body"/>
<line x1="1068.86" y1="957.93" x2="1068.86" y2="961.55" class="up-wick"/>
<rect x="1066.45" y="959.14" width="4.83" height="2.15" class="up-body"/>
<line x1="1076.29" y1="952.37" x2="1076.29" y2="957.22" class="up-wick"/>
<rect x="1073.87" y="955.21" width="4.83" height="1.45" class="up-body"/>
<text x="70" y="1056" class="axis-label">2026-05-19 13:45:00+00:00 to 2026-05-19 18:15:00+00:00</text>
<text x="1080" y="1056" text-anchor="end" class="axis-label">4458.01 - 4554.67</text>
</svg>