<svg xmlns="http://www.w3.org/2000/svg" width="1120" height="1054" viewBox="0 0 1120 1054">
<style>
text{font-family:Arial,Helvetica,sans-serif}.title{font-size:21px;font-weight:700;fill:#1f2937}.subtitle{font-size:12px;fill:#4b5563}.panel-title{font-size:15px;font-weight:700;fill:#111827}.muted{font-size:13px;fill:#6b7280}.plot-bg{fill:#f8fafc;stroke:#cbd5e1;stroke-width:1}.up-body{fill:#15803d;stroke:#14532d;stroke-width:.8}.down-body{fill:#b91c1c;stroke:#7f1d1d;stroke-width:.8}.up-wick{stroke:#14532d;stroke-width:1}.down-wick{stroke:#7f1d1d;stroke-width:1}.sweep-line{stroke:#7c3aed;stroke-width:1.6;stroke-dasharray:6 4}.number-line{stroke:#0f766e;stroke-width:1.4;stroke-dasharray:3 4}.entry-line{stroke:#2563eb;stroke-width:1.4}.sl-line{stroke:#dc2626;stroke-width:1.4}.tp-line{stroke:#16a34a;stroke-width:1.4}.level-label,.axis-label{font-size:11px;fill:#374151}
</style>
<text x="28" y="28" class="title">Adelin v2 visual review sample sample_004</text>
<text x="28" y="48" class="subtitle">Candidate windows are for visual labeling only and are not trade signals.</text>
<text x="560" y="48" class="subtitle" text-anchor="middle">M15_SWING_HIGH_SWEEP_VISUAL_CANDIDATE</text>
<text x="70" y="82" class="panel-title">H1 liquidity context</text>
<rect x="70" y="96" width="1010" height="192" class="plot-bg"/>
<line x1="82.62" y1="154.89" x2="82.62" y2="222.88" class="up-wick"/>
<rect x="78.62" y="166.45" width="8.00" height="9.77" class="up-body"/>
<line x1="107.88" y1="163.92" x2="107.88" y2="185.49" class="down-wick"/>
<rect x="103.88" y="166.45" width="8.00" height="12.03" class="down-body"/>
<line x1="133.12" y1="171.28" x2="133.12" y2="254.00" class="down-wick"/>
<rect x="129.12" y="178.45" width="8.00" height="28.12" class="down-body"/>
<line x1="158.38" y1="180.29" x2="158.38" y2="241.67" class="up-wick"/>
<rect x="154.38" y="193.99" width="8.00" height="13.26" class="up-body"/>
<line x1="183.62" y1="170.86" x2="183.62" y2="198.66" class="up-wick"/>
<rect x="179.62" y="183.02" width="8.00" height="10.98" class="up-body"/>
<line x1="208.88" y1="164.12" x2="208.88" y2="194.33" class="up-wick"/>
<rect x="204.88" y="173.08" width="8.00" height="9.94" class="up-body"/>
<line x1="234.12" y1="161.61" x2="234.12" y2="187.95" class="down-wick"/>
<rect x="230.12" y="173.09" width="8.00" height="1.00" class="down-body"/>
<line x1="259.38" y1="158.63" x2="259.38" y2="188.08" class="down-wick"/>
<rect x="255.38" y="173.74" width="8.00" height="12.97" class="down-body"/>
<line x1="284.62" y1="163.83" x2="284.62" y2="188.39" class="up-wick"/>
<rect x="280.62" y="165.61" width="8.00" height="21.10" class="up-body"/>
<line x1="309.88" y1="148.20" x2="309.88" y2="176.97" class="down-wick"/>
<rect x="305.88" y="165.61" width="8.00" height="1.00" class="down-body"/>
<line x1="335.12" y1="152.10" x2="335.12" y2="171.10" class="up-wick"/>
<rect x="331.12" y="161.38" width="8.00" height="4.96" class="up-body"/>
<line x1="360.38" y1="158.75" x2="360.38" y2="174.55" class="down-wick"/>
<rect x="356.38" y="161.38" width="8.00" height="9.34" class="down-body"/>
<line x1="385.62" y1="164.31" x2="385.62" y2="185.38" class="down-wick"/>
<rect x="381.62" y="170.73" width="8.00" height="3.61" class="down-body"/>
<line x1="410.88" y1="138.53" x2="410.88" y2="188.16" class="up-wick"/>
<rect x="406.88" y="160.53" width="8.00" height="13.81" class="up-body"/>
<line x1="436.12" y1="128.23" x2="436.12" y2="167.63" class="up-wick"/>
<rect x="432.12" y="133.19" width="8.00" height="27.36" class="up-body"/>
<line x1="461.38" y1="115.85" x2="461.38" y2="145.64" class="up-wick"/>
<rect x="457.38" y="126.95" width="8.00" height="6.25" class="up-body"/>
<line x1="486.62" y1="126.95" x2="486.62" y2="177.53" class="down-wick"/>
<rect x="482.62" y="126.95" width="8.00" height="39.08" class="down-body"/>
<line x1="511.88" y1="164.09" x2="511.88" y2="185.46" class="down-wick"/>
<rect x="507.88" y="166.05" width="8.00" height="3.85" class="down-body"/>
<line x1="537.12" y1="155.48" x2="537.12" y2="182.70" class="up-wick"/>
<rect x="533.12" y="161.11" width="8.00" height="8.80" class="up-body"/>
<line x1="562.38" y1="150.33" x2="562.38" y2="167.27" class="down-wick"/>
<rect x="558.38" y="161.11" width="8.00" height="4.27" class="down-body"/>
<line x1="587.62" y1="164.29" x2="587.62" y2="182.54" class="down-wick"/>
<rect x="583.62" y="165.37" width="8.00" height="14.71" class="down-body"/>
<line x1="612.88" y1="141.40" x2="612.88" y2="180.84" class="up-wick"/>
<rect x="608.88" y="150.18" width="8.00" height="29.90" class="up-body"/>
<line x1="638.12" y1="123.75" x2="638.12" y2="140.26" class="up-wick"/>
<rect x="634.12" y="129.64" width="8.00" height="9.95" class="up-body"/>
<line x1="663.38" y1="109.56" x2="663.38" y2="129.89" class="up-wick"/>
<rect x="659.38" y="119.14" width="8.00" height="10.52" class="up-body"/>
<line x1="688.62" y1="109.24" x2="688.62" y2="146.37" class="down-wick"/>
<rect x="684.62" y="119.14" width="8.00" height="24.42" class="down-body"/>
<line x1="713.88" y1="131.51" x2="713.88" y2="155.88" class="up-wick"/>
<rect x="709.88" y="143.01" width="8.00" height="1.00" class="up-body"/>
<line x1="739.12" y1="143.01" x2="739.12" y2="166.71" class="down-wick"/>
<rect x="735.12" y="143.01" width="8.00" height="22.11" class="down-body"/>
<line x1="764.38" y1="154.58" x2="764.38" y2="169.90" class="down-wick"/>
<rect x="760.38" y="165.12" width="8.00" height="2.79" class="down-body"/>
<line x1="789.62" y1="167.10" x2="789.62" y2="177.26" class="down-wick"/>
<rect x="785.62" y="167.91" width="8.00" height="3.53" class="down-body"/>
<line x1="814.88" y1="165.89" x2="814.88" y2="186.78" class="down-wick"/>
<rect x="810.88" y="171.42" width="8.00" height="2.05" class="down-body"/>
<line x1="840.12" y1="156.16" x2="840.12" y2="183.36" class="up-wick"/>
<rect x="836.12" y="163.82" width="8.00" height="9.65" class="up-body"/>
<line x1="865.38" y1="149.05" x2="865.38" y2="172.80" class="up-wick"/>
<rect x="861.38" y="151.79" width="8.00" height="12.03" class="up-body"/>
<line x1="890.62" y1="149.23" x2="890.62" y2="179.46" class="down-wick"/>
<rect x="886.62" y="151.79" width="8.00" height="19.17" class="down-body"/>
<line x1="915.88" y1="165.62" x2="915.88" y2="179.84" class="down-wick"/>
<rect x="911.88" y="170.98" width="8.00" height="1.24" class="down-body"/>
<line x1="941.12" y1="168.43" x2="941.12" y2="193.98" class="up-wick"/>
<rect x="937.12" y="168.43" width="8.00" height="3.79" class="up-body"/>
<line x1="966.38" y1="164.04" x2="966.38" y2="188.16" class="down-wick"/>
<rect x="962.38" y="168.43" width="8.00" height="18.58" class="down-body"/>
<line x1="991.62" y1="165.16" x2="991.62" y2="191.42" class="up-wick"/>
<rect x="987.62" y="178.50" width="8.00" height="8.50" class="up-body"/>
<line x1="1016.88" y1="178.09" x2="1016.88" y2="274.76" class="down-wick"/>
<rect x="1012.88" y="178.50" width="8.00" height="44.26" class="down-body"/>
<line x1="1042.12" y1="208.66" x2="1042.12" y2="248.47" class="down-wick"/>
<rect x="1038.12" y="222.76" width="8.00" height="12.89" class="down-body"/>
<line x1="1067.38" y1="215.56" x2="1067.38" y2="241.37" class="up-wick"/>
<rect x="1063.38" y="216.61" width="8.00" height="19.04" class="up-body"/>
<line x1="70" y1="150.82" x2="1080" y2="150.82" class="sweep-line"/>
<text x="1076" y="146.82" text-anchor="end" class="level-label">sweep 4557.95</text>
<text x="70" y="306" class="axis-label">2026-05-18 01:00:00+00:00 to 2026-05-19 18:00:00+00:00</text>
<text x="1080" y="306" text-anchor="end" class="axis-label">4454.72 - 4599.20</text>
<text x="70" y="332" class="panel-title">M15 liquidity / reaction context</text>
<rect x="70" y="346" width="1010" height="192" class="plot-bg"/>
<line x1="77.77" y1="394.11" x2="77.77" y2="401.60" class="up-wick"/>
<rect x="73.77" y="400.18" width="8.00" height="1.00" class="up-body"/>
<line x1="93.31" y1="380.45" x2="93.31" y2="390.26" class="up-wick"/>
<rect x="89.31" y="380.45" width="8.00" height="9.14" class="up-body"/>
<line x1="108.85" y1="378.77" x2="108.85" y2="383.35" class="down-wick"/>
<rect x="104.85" y="380.45" width="8.00" height="1.00" class="down-body"/>
<line x1="124.38" y1="373.75" x2="124.38" y2="382.69" class="up-wick"/>
<rect x="120.38" y="376.09" width="8.00" height="5.00" class="up-body"/>
<line x1="139.92" y1="375.67" x2="139.92" y2="381.47" class="down-wick"/>
<rect x="135.92" y="376.09" width="8.00" height="3.55" class="down-body"/>
<line x1="155.46" y1="362.64" x2="155.46" y2="379.89" class="up-wick"/>
<rect x="151.46" y="364.16" width="8.00" height="15.51" class="up-body"/>
<line x1="171.00" y1="359.56" x2="171.00" y2="367.11" class="up-wick"/>
<rect x="167.00" y="364.04" width="8.00" height="1.00" class="up-body"/>
<line x1="186.54" y1="360.85" x2="186.54" y2="367.88" class="down-wick"/>
<rect x="182.54" y="364.04" width="8.00" height="1.00" class="down-body"/>
<line x1="202.08" y1="362.64" x2="202.08" y2="372.56" class="down-wick"/>
<rect x="198.08" y="364.36" width="8.00" height="4.78" class="down-body"/>
<line x1="217.62" y1="359.24" x2="217.62" y2="375.75" class="down-wick"/>
<rect x="213.62" y="369.14" width="8.00" height="3.87" class="down-body"/>
<line x1="233.15" y1="363.92" x2="233.15" y2="386.34" class="down-wick"/>
<rect x="229.15" y="373.01" width="8.00" height="6.99" class="down-body"/>
<line x1="248.69" y1="376.74" x2="248.69" y2="387.17" class="down-wick"/>
<rect x="244.69" y="379.80" width="8.00" height="3.88" class="down-body"/>
<line x1="264.23" y1="381.37" x2="264.23" y2="396.37" class="down-wick"/>
<rect x="260.23" y="383.68" width="8.00" height="9.89" class="down-body"/>
<line x1="279.77" y1="385.76" x2="279.77" y2="401.36" class="up-wick"/>
<rect x="275.77" y="390.46" width="8.00" height="3.20" class="up-body"/>
<line x1="295.31" y1="386.71" x2="295.31" y2="405.88" class="down-wick"/>
<rect x="291.31" y="390.46" width="8.00" height="8.74" class="down-body"/>
<line x1="310.85" y1="381.51" x2="310.85" y2="404.41" class="up-wick"/>
<rect x="306.85" y="383.80" width="8.00" height="15.40" class="up-body"/>
<line x1="326.38" y1="382.39" x2="326.38" y2="396.17" class="down-wick"/>
<rect x="322.38" y="383.80" width="8.00" height="9.21" class="down-body"/>
<line x1="341.92" y1="393.01" x2="341.92" y2="407.49" class="down-wick"/>
<rect x="337.92" y="393.01" width="8.00" height="12.38" class="down-body"/>
<line x1="357.46" y1="395.13" x2="357.46" y2="409.38" class="up-wick"/>
<rect x="353.46" y="398.47" width="8.00" height="6.92" class="up-body"/>
<line x1="373.00" y1="398.35" x2="373.00" y2="410.16" class="down-wick"/>
<rect x="369.00" y="398.49" width="8.00" height="4.62" class="down-body"/>
<line x1="388.54" y1="400.82" x2="388.54" y2="416.71" class="down-wick"/>
<rect x="384.54" y="403.12" width="8.00" height="12.00" class="down-body"/>
<line x1="404.08" y1="407.77" x2="404.08" y2="419.90" class="up-wick"/>
<rect x="400.08" y="408.97" width="8.00" height="6.15" class="up-body"/>
<line x1="419.62" y1="407.37" x2="419.62" y2="415.65" class="down-wick"/>
<rect x="415.62" y="408.97" width="8.00" height="3.49" class="down-body"/>
<line x1="435.15" y1="404.58" x2="435.15" y2="415.34" class="down-wick"/>
<rect x="431.15" y="412.46" width="8.00" height="1.82" class="down-body"/>
<line x1="450.69" y1="412.14" x2="450.69" y2="419.01" class="down-wick"/>
<rect x="446.69" y="414.39" width="8.00" height="3.52" class="down-body"/>
<line x1="466.23" y1="417.10" x2="466.23" y2="426.37" class="down-wick"/>
<rect x="462.23" y="417.91" width="8.00" height="6.47" class="down-body"/>
<line x1="481.77" y1="420.49" x2="481.77" y2="427.00" class="up-wick"/>
<rect x="477.77" y="424.25" width="8.00" height="1.00" class="up-body"/>
<line x1="497.31" y1="421.75" x2="497.31" y2="427.26" class="down-wick"/>
<rect x="493.31" y="424.25" width="8.00" height="1.00" class="down-body"/>
<line x1="512.85" y1="419.68" x2="512.85" y2="424.99" class="up-wick"/>
<rect x="508.85" y="421.44" width="8.00" height="3.52" class="up-body"/>
<line x1="528.38" y1="415.89" x2="528.38" y2="424.42" class="up-wick"/>
<rect x="524.38" y="418.21" width="8.00" height="3.20" class="up-body"/>
<line x1="543.92" y1="417.54" x2="543.92" y2="436.78" class="down-wick"/>
<rect x="539.92" y="418.25" width="8.00" height="8.36" class="down-body"/>
<line x1="559.46" y1="419.12" x2="559.46" y2="434.01" class="down-wick"/>
<rect x="555.46" y="426.61" width="8.00" height="1.00" class="down-body"/>
<line x1="575.00" y1="420.06" x2="575.00" y2="433.81" class="up-wick"/>
<rect x="571.00" y="423.46" width="8.00" height="3.20" class="up-body"/>
<line x1="590.54" y1="416.86" x2="590.54" y2="433.36" class="up-wick"/>
<rect x="586.54" y="421.95" width="8.00" height="1.51" class="up-body"/>
<line x1="606.08" y1="406.16" x2="606.08" y2="423.40" class="up-wick"/>
<rect x="602.08" y="414.43" width="8.00" height="7.52" class="up-body"/>
<line x1="621.62" y1="407.61" x2="621.62" y2="418.19" class="up-wick"/>
<rect x="617.62" y="408.47" width="8.00" height="5.95" class="up-body"/>
<line x1="637.15" y1="407.82" x2="637.15" y2="420.51" class="down-wick"/>
<rect x="633.15" y="408.53" width="8.00" height="5.29" class="down-body"/>
<line x1="652.69" y1="404.35" x2="652.69" y2="419.08" class="up-wick"/>
<rect x="648.69" y="413.14" width="8.00" height="1.00" class="up-body"/>
<line x1="668.23" y1="411.26" x2="668.23" y2="420.54" class="down-wick"/>
<rect x="664.23" y="413.14" width="8.00" height="1.00" class="down-body"/>
<line x1="683.77" y1="412.34" x2="683.77" y2="422.80" class="down-wick"/>
<rect x="679.77" y="413.66" width="8.00" height="8.19" class="down-body"/>
<line x1="699.31" y1="399.05" x2="699.31" y2="422.05" class="up-wick"/>
<rect x="695.31" y="401.79" width="8.00" height="20.05" class="up-body"/>
<line x1="714.85" y1="399.23" x2="714.85" y2="421.20" class="down-wick"/>
<rect x="710.85" y="401.79" width="8.00" height="14.42" class="down-body"/>
<line x1="730.38" y1="413.95" x2="730.38" y2="429.46" class="down-wick"/>
<rect x="726.38" y="416.21" width="8.00" height="10.68" class="down-body"/>
<line x1="745.92" y1="418.07" x2="745.92" y2="428.75" class="up-wick"/>
<rect x="741.92" y="420.31" width="8.00" height="6.56" class="up-body"/>
<line x1="761.46" y1="413.19" x2="761.46" y2="427.14" class="down-wick"/>
<rect x="757.46" y="420.31" width="8.00" height="1.00" class="down-body"/>
<line x1="777.00" y1="420.98" x2="777.00" y2="428.79" class="down-wick"/>
<rect x="773.00" y="420.98" width="8.00" height="4.24" class="down-body"/>
<line x1="792.54" y1="415.62" x2="792.54" y2="429.84" class="up-wick"/>
<rect x="788.54" y="423.72" width="8.00" height="1.50" class="up-body"/>
<line x1="808.08" y1="420.50" x2="808.08" y2="429.04" class="down-wick"/>
<rect x="804.08" y="423.72" width="8.00" height="1.74" class="down-body"/>
<line x1="823.62" y1="418.39" x2="823.62" y2="426.86" class="up-wick"/>
<rect x="819.62" y="422.21" width="8.00" height="3.24" class="up-body"/>
<line x1="839.15" y1="421.66" x2="839.15" y2="429.97" class="down-wick"/>
<rect x="835.15" y="422.21" width="8.00" height="1.00" class="down-body"/>
<line x1="854.69" y1="422.16" x2="854.69" y2="426.81" class="down-wick"/>
<rect x="850.69" y="422.72" width="8.00" height="1.91" class="down-body"/>
<line x1="870.23" y1="420.82" x2="870.23" y2="443.98" class="down-wick"/>
<rect x="866.23" y="424.63" width="8.00" height="14.27" class="down-body"/>
<line x1="885.77" y1="418.43" x2="885.77" y2="440.99" class="up-wick"/>
<rect x="881.77" y="418.43" width="8.00" height="20.48" class="up-body"/>
<line x1="901.31" y1="414.04" x2="901.31" y2="430.05" class="down-wick"/>
<rect x="897.31" y="418.43" width="8.00" height="10.58" class="down-body"/>
<line x1="916.85" y1="421.76" x2="916.85" y2="430.28" class="up-wick"/>
<rect x="912.85" y="425.59" width="8.00" height="3.42" class="up-body"/>
<line x1="932.38" y1="420.49" x2="932.38" y2="428.83" class="up-wick"/>
<rect x="928.38" y="422.16" width="8.00" height="3.43" class="up-body"/>
<line x1="947.92" y1="421.64" x2="947.92" y2="438.16" class="down-wick"/>
<rect x="943.92" y="422.16" width="8.00" height="14.84" class="down-body"/>
<line x1="963.46" y1="415.80" x2="963.46" y2="441.42" class="up-wick"/>
<rect x="959.46" y="421.67" width="8.00" height="15.33" class="up-body"/>
<line x1="979.00" y1="418.95" x2="979.00" y2="429.04" class="up-wick"/>
<rect x="975.00" y="420.11" width="8.00" height="1.57" class="up-body"/>
<line x1="994.54" y1="415.16" x2="994.54" y2="428.96" class="down-wick"/>
<rect x="990.54" y="420.11" width="8.00" height="7.88" class="down-body"/>
<line x1="1010.08" y1="422.51" x2="1010.08" y2="430.47" class="down-wick"/>
<rect x="1006.08" y="427.99" width="8.00" height="1.00" class="down-body"/>
<line x1="1025.62" y1="428.09" x2="1025.62" y2="458.11" class="down-wick"/>
<rect x="1021.62" y="428.50" width="8.00" height="16.78" class="down-body"/>
<line x1="1041.15" y1="442.96" x2="1041.15" y2="489.86" class="down-wick"/>
<rect x="1037.15" y="445.28" width="8.00" height="43.05" class="down-body"/>
<line x1="1056.69" y1="483.68" x2="1056.69" y2="524.76" class="down-wick"/>
<rect x="1052.69" y="488.34" width="8.00" height="21.17" class="down-body"/>
<line x1="1072.23" y1="462.80" x2="1072.23" y2="512.15" class="up-wick"/>
<rect x="1068.23" y="472.76" width="8.00" height="36.74" class="up-body"/>
<line x1="70" y1="400.82" x2="1080" y2="400.82" class="sweep-line"/>
<text x="1076" y="396.82" text-anchor="end" class="level-label">sweep 4557.95</text>
<text x="70" y="556" class="axis-label">2026-05-18 22:45:00+00:00 to 2026-05-19 16:45:00+00:00</text>
<text x="1080" y="556" text-anchor="end" class="axis-label">4454.72 - 4599.20</text>
<text x="70" y="582" class="panel-title">M5 reaction / execution context</text>
<rect x="70" y="596" width="1010" height="192" class="plot-bg"/>
<line x1="79.18" y1="653.69" x2="79.18" y2="698.93" class="up-wick"/>
<rect x="75.18" y="654.38" width="8.00" height="39.21" class="up-body"/>
<line x1="97.55" y1="648.75" x2="97.55" y2="676.16" class="down-wick"/>
<rect x="93.55" y="654.43" width="8.00" height="3.13" class="down-body"/>
<line x1="115.91" y1="635.43" x2="115.91" y2="665.88" class="down-wick"/>
<rect x="111.91" y="657.56" width="8.00" height="8.32" class="down-body"/>
<line x1="134.27" y1="648.60" x2="134.27" y2="679.74" class="up-wick"/>
<rect x="130.27" y="653.45" width="8.00" height="12.43" class="up-body"/>
<line x1="152.64" y1="642.29" x2="152.64" y2="672.00" class="up-wick"/>
<rect x="148.64" y="643.41" width="8.00" height="10.04" class="up-body"/>
<line x1="171.00" y1="640.77" x2="171.00" y2="660.60" class="down-wick"/>
<rect x="167.00" y="643.41" width="8.00" height="1.00" class="down-body"/>
<line x1="189.36" y1="641.55" x2="189.36" y2="688.21" class="down-wick"/>
<rect x="185.36" y="644.15" width="8.00" height="43.77" class="down-body"/>
<line x1="207.73" y1="667.35" x2="207.73" y2="688.30" class="up-wick"/>
<rect x="203.73" y="670.34" width="8.00" height="17.57" class="up-body"/>
<line x1="226.09" y1="656.39" x2="226.09" y2="670.48" class="up-wick"/>
<rect x="222.09" y="663.63" width="8.00" height="6.71" class="up-body"/>
<line x1="244.45" y1="660.60" x2="244.45" y2="683.02" class="down-wick"/>
<rect x="240.45" y="663.63" width="8.00" height="1.42" class="down-body"/>
<line x1="262.82" y1="628.77" x2="262.82" y2="670.09" class="up-wick"/>
<rect x="258.82" y="639.89" width="8.00" height="25.16" class="up-body"/>
<line x1="281.18" y1="635.63" x2="281.18" y2="668.48" class="down-wick"/>
<rect x="277.18" y="639.89" width="8.00" height="21.25" class="down-body"/>
<line x1="299.55" y1="654.23" x2="299.55" y2="670.97" class="up-wick"/>
<rect x="295.55" y="661.08" width="8.00" height="1.00" class="up-body"/>
<line x1="317.91" y1="654.72" x2="317.91" y2="679.35" class="down-wick"/>
<rect x="313.91" y="661.08" width="8.00" height="8.08" class="down-body"/>
<line x1="336.27" y1="662.95" x2="336.27" y2="688.40" class="up-wick"/>
<rect x="332.27" y="663.04" width="8.00" height="6.12" class="up-body"/>
<line x1="354.64" y1="658.20" x2="354.64" y2="684.93" class="down-wick"/>
<rect x="350.64" y="663.04" width="8.00" height="20.56" class="down-body"/>
<line x1="373.00" y1="665.78" x2="373.00" y2="691.09" class="down-wick"/>
<rect x="369.00" y="683.75" width="8.00" height="3.77" class="down-body"/>
<line x1="391.36" y1="679.20" x2="391.36" y2="696.72" class="down-wick"/>
<rect x="387.36" y="687.52" width="8.00" height="5.68" class="down-body"/>
<line x1="409.73" y1="633.96" x2="409.73" y2="693.98" class="up-wick"/>
<rect x="405.73" y="649.92" width="8.00" height="43.28" class="up-body"/>
<line x1="428.09" y1="636.26" x2="428.09" y2="664.95" class="up-wick"/>
<rect x="424.09" y="643.90" width="8.00" height="6.02" class="up-body"/>
<line x1="446.45" y1="609.24" x2="446.45" y2="644.10" class="up-wick"/>
<rect x="442.45" y="619.33" width="8.00" height="24.58" class="up-body"/>
<line x1="464.82" y1="609.88" x2="464.82" y2="642.09" class="down-wick"/>
<rect x="460.82" y="619.33" width="8.00" height="21.25" class="down-body"/>
<line x1="483.18" y1="640.03" x2="483.18" y2="684.68" class="down-wick"/>
<rect x="479.18" y="640.57" width="8.00" height="41.81" class="down-body"/>
<line x1="501.55" y1="664.61" x2="501.55" y2="690.85" class="up-wick"/>
<rect x="497.55" y="672.44" width="8.00" height="9.94" class="up-body"/>
<line x1="519.91" y1="664.12" x2="519.91" y2="682.67" class="down-wick"/>
<rect x="515.91" y="672.44" width="8.00" height="10.04" class="down-body"/>
<line x1="538.27" y1="678.81" x2="538.27" y2="708.52" class="down-wick"/>
<rect x="534.27" y="682.48" width="8.00" height="18.02" class="down-body"/>
<line x1="556.64" y1="698.63" x2="556.64" y2="721.25" class="down-wick"/>
<rect x="552.64" y="700.49" width="8.00" height="11.31" class="down-body"/>
<line x1="575.00" y1="682.77" x2="575.00" y2="718.66" class="up-wick"/>
<rect x="571.00" y="683.07" width="8.00" height="28.69" class="up-body"/>
<line x1="593.36" y1="679.30" x2="593.36" y2="691.98" class="down-wick"/>
<rect x="589.36" y="682.97" width="8.00" height="4.90" class="down-body"/>
<line x1="611.73" y1="685.12" x2="611.73" y2="692.86" class="up-wick"/>
<rect x="607.73" y="687.57" width="8.00" height="1.00" class="up-body"/>
<line x1="630.09" y1="661.33" x2="630.09" y2="689.28" class="up-wick"/>
<rect x="626.09" y="673.91" width="8.00" height="13.66" class="up-body"/>
<line x1="648.45" y1="667.60" x2="648.45" y2="712.73" class="down-wick"/>
<rect x="644.45" y="673.86" width="8.00" height="16.89" class="down-body"/>
<line x1="666.82" y1="682.63" x2="666.82" y2="694.42" class="up-wick"/>
<rect x="662.82" y="689.97" width="8.00" height="1.00" class="up-body"/>
<line x1="685.18" y1="690.02" x2="685.18" y2="703.68" class="down-wick"/>
<rect x="681.18" y="690.02" width="8.00" height="6.51" class="down-body"/>
<line x1="703.55" y1="696.28" x2="703.55" y2="718.80" class="down-wick"/>
<rect x="699.55" y="696.53" width="8.00" height="4.01" class="down-body"/>
<line x1="721.91" y1="698.54" x2="721.91" y2="717.63" class="down-wick"/>
<rect x="717.91" y="700.44" width="8.00" height="5.19" class="down-body"/>
<line x1="740.27" y1="702.79" x2="740.27" y2="722.67" class="up-wick"/>
<rect x="736.27" y="703.58" width="8.00" height="2.06" class="up-body"/>
<line x1="758.64" y1="670.29" x2="758.64" y2="704.75" class="up-wick"/>
<rect x="754.64" y="671.56" width="8.00" height="32.02" class="up-body"/>
<line x1="777.00" y1="670.53" x2="777.00" y2="701.52" class="down-wick"/>
<rect x="773.00" y="671.56" width="8.00" height="28.54" class="down-body"/>
<line x1="795.36" y1="688.25" x2="795.36" y2="719.73" class="down-wick"/>
<rect x="791.36" y="700.10" width="8.00" height="7.44" class="down-body"/>
<line x1="813.73" y1="692.56" x2="813.73" y2="716.80" class="up-wick"/>
<rect x="809.73" y="706.42" width="8.00" height="1.08" class="up-body"/>
<line x1="832.09" y1="701.23" x2="832.09" y2="713.03" class="down-wick"/>
<rect x="828.09" y="706.42" width="8.00" height="1.00" class="down-body"/>
<line x1="850.45" y1="697.36" x2="850.45" y2="711.70" class="up-wick"/>
<rect x="846.45" y="699.91" width="8.00" height="6.61" class="up-body"/>
<line x1="868.82" y1="686.05" x2="868.82" y2="707.89" class="up-wick"/>
<rect x="864.82" y="687.03" width="8.00" height="12.83" class="up-body"/>
<line x1="887.18" y1="680.47" x2="887.18" y2="699.76" class="down-wick"/>
<rect x="883.18" y="687.03" width="8.00" height="7.54" class="down-body"/>
<line x1="905.55" y1="694.57" x2="905.55" y2="720.81" class="down-wick"/>
<rect x="901.55" y="694.57" width="8.00" height="25.55" class="down-body"/>
<line x1="923.91" y1="694.08" x2="923.91" y2="723.16" class="up-wick"/>
<rect x="919.91" y="702.79" width="8.00" height="17.33" class="up-body"/>
<line x1="942.27" y1="692.51" x2="942.27" y2="709.94" class="up-wick"/>
<rect x="938.27" y="696.43" width="8.00" height="6.36" class="up-body"/>
<line x1="960.64" y1="694.37" x2="960.64" y2="711.51" class="down-wick"/>
<rect x="956.64" y="696.43" width="8.00" height="9.40" class="down-body"/>
<line x1="979.00" y1="695.70" x2="979.00" y2="708.77" class="up-wick"/>
<rect x="975.00" y="699.56" width="8.00" height="6.27" class="up-body"/>
<line x1="997.36" y1="698.83" x2="997.36" y2="707.45" class="down-wick"/>
<rect x="993.36" y="699.56" width="8.00" height="3.92" class="down-body"/>
<line x1="1015.73" y1="691.63" x2="1015.73" y2="709.11" class="up-wick"/>
<rect x="1011.73" y="696.58" width="8.00" height="6.90" class="up-body"/>
<line x1="1034.09" y1="689.43" x2="1034.09" y2="732.17" class="down-wick"/>
<rect x="1030.09" y="696.68" width="8.00" height="1.86" class="down-body"/>
<line x1="1052.45" y1="696.28" x2="1052.45" y2="774.76" class="down-wick"/>
<rect x="1048.45" y="698.54" width="8.00" height="57.52" class="down-body"/>
<line x1="1070.82" y1="730.36" x2="1070.82" y2="763.74" class="up-wick"/>
<rect x="1066.82" y="738.29" width="8.00" height="17.77" class="up-body"/>
<line x1="70" y1="615.75" x2="1080" y2="615.75" class="sweep-line"/>
<text x="1076" y="611.75" text-anchor="end" class="level-label">sweep 4557.95</text>
<text x="70" y="806" class="axis-label">2026-05-19 09:15:00+00:00 to 2026-05-19 13:45:00+00:00</text>
<text x="1080" y="806" text-anchor="end" class="axis-label">4522.77 - 4561.98</text>
<text x="70" y="832" class="panel-title">M1 execution window</text>
<rect x="70" y="846" width="1010" height="192" class="plot-bg"/>
<line x1="73.71" y1="925.38" x2="73.71" y2="949.17" class="up-wick"/>
<rect x="71.30" y="929.52" width="4.83" height="14.15" class="up-body"/>
<line x1="81.14" y1="931.04" x2="81.14" y2="937.76" class="down-wick"/>
<rect x="78.73" y="934.47" width="4.83" height="1.06" class="down-body"/>
<line x1="88.57" y1="902.49" x2="88.57" y2="914.57" class="up-wick"/>
<rect x="86.15" y="903.20" width="4.83" height="6.21" class="up-body"/>
<line x1="95.99" y1="899.41" x2="95.99" y2="912.85" class="up-wick"/>
<rect x="93.58" y="899.41" width="4.83" height="12.53" class="up-body"/>
<line x1="103.42" y1="908.35" x2="103.42" y2="925.23" class="down-wick"/>
<rect x="101.01" y="909.06" width="4.83" height="15.06" class="down-body"/>
<line x1="110.85" y1="900.17" x2="110.85" y2="909.72" class="up-wick"/>
<rect x="108.43" y="901.08" width="4.83" height="5.41" class="up-body"/>
<line x1="118.27" y1="883.64" x2="118.27" y2="896.07" class="down-wick"/>
<rect x="115.86" y="894.10" width="4.83" height="1.00" class="down-body"/>
<line x1="125.70" y1="897.54" x2="125.70" y2="915.07" class="down-wick"/>
<rect x="123.28" y="904.16" width="4.83" height="10.91" class="down-body"/>
<line x1="133.12" y1="913.86" x2="133.12" y2="929.37" class="down-wick"/>
<rect x="130.71" y="918.00" width="4.83" height="1.36" class="down-body"/>
<line x1="140.55" y1="903.40" x2="140.55" y2="921.64" class="up-wick"/>
<rect x="138.14" y="904.51" width="4.83" height="13.79" class="up-body"/>
<line x1="147.98" y1="901.18" x2="147.98" y2="917.24" class="down-wick"/>
<rect x="145.56" y="902.24" width="4.83" height="11.77" class="down-body"/>
<line x1="155.40" y1="911.08" x2="155.40" y2="921.18" class="up-wick"/>
<rect x="152.99" y="912.95" width="4.83" height="3.03" class="up-body"/>
<line x1="162.83" y1="890.72" x2="162.83" y2="899.56" class="up-wick"/>
<rect x="160.42" y="891.88" width="4.83" height="4.19" class="up-body"/>
<line x1="170.26" y1="892.44" x2="170.26" y2="905.02" class="down-wick"/>
<rect x="167.84" y="899.05" width="4.83" height="5.86" class="down-body"/>
<line x1="177.68" y1="895.77" x2="177.68" y2="909.56" class="down-wick"/>
<rect x="175.27" y="898.35" width="4.83" height="9.35" class="down-body"/>
<line x1="185.11" y1="889.96" x2="185.11" y2="901.88" class="down-wick"/>
<rect x="182.70" y="892.64" width="4.83" height="8.49" class="down-body"/>
<line x1="192.54" y1="914.36" x2="192.54" y2="926.49" class="down-wick"/>
<rect x="190.12" y="916.84" width="4.83" height="8.59" class="down-body"/>
<line x1="199.96" y1="924.37" x2="199.96" y2="938.11" class="down-wick"/>
<rect x="197.55" y="924.37" width="4.83" height="13.44" class="down-body"/>
<line x1="207.39" y1="926.14" x2="207.39" y2="937.65" class="up-wick"/>
<rect x="204.98" y="930.73" width="4.83" height="2.22" class="up-body"/>
<line x1="214.82" y1="920.63" x2="214.82" y2="929.98" class="up-wick"/>
<rect x="212.40" y="921.94" width="4.83" height="5.96" class="up-body"/>
<line x1="222.24" y1="905.27" x2="222.24" y2="919.82" class="up-wick"/>
<rect x="219.83" y="911.58" width="4.83" height="8.08" class="up-body"/>
<line x1="229.67" y1="910.47" x2="229.67" y2="916.38" class="up-wick"/>
<rect x="227.26" y="910.93" width="4.83" height="5.46" class="up-body"/>
<line x1="237.10" y1="911.74" x2="237.10" y2="916.64" class="up-wick"/>
<rect x="234.68" y="912.75" width="4.83" height="1.62" class="up-body"/>
<line x1="244.52" y1="916.94" x2="244.52" y2="927.80" class="up-wick"/>
<rect x="242.11" y="918.56" width="4.83" height="9.25" class="up-body"/>
<line x1="251.95" y1="918.10" x2="251.95" y2="930.13" class="down-wick"/>
<rect x="249.53" y="920.83" width="4.83" height="1.00" class="down-body"/>
<line x1="259.38" y1="907.19" x2="259.38" y2="919.42" class="up-wick"/>
<rect x="256.96" y="909.72" width="4.83" height="4.50" class="up-body"/>
<line x1="266.80" y1="891.58" x2="266.80" y2="907.04" class="up-wick"/>
<rect x="264.39" y="893.35" width="4.83" height="11.27" class="up-body"/>
<line x1="274.23" y1="876.77" x2="274.23" y2="892.08" class="up-wick"/>
<rect x="271.81" y="888.24" width="4.83" height="2.37" class="up-body"/>
<line x1="281.65" y1="898.04" x2="281.65" y2="917.75" class="down-wick"/>
<rect x="279.24" y="899.51" width="4.83" height="9.14" class="down-body"/>
<line x1="289.08" y1="906.43" x2="289.08" y2="915.98" class="up-wick"/>
<rect x="286.67" y="908.96" width="4.83" height="1.00" class="up-body"/>
<line x1="296.51" y1="906.48" x2="296.51" y2="916.99" class="down-wick"/>
<rect x="294.09" y="910.17" width="4.83" height="6.67" class="down-body"/>
<line x1="303.93" y1="907.64" x2="303.93" y2="913.81" class="up-wick"/>
<rect x="301.52" y="907.69" width="4.83" height="1.67" class="up-body"/>
<line x1="311.36" y1="904.66" x2="311.36" y2="912.04" class="down-wick"/>
<rect x="308.95" y="904.76" width="4.83" height="5.36" class="down-body"/>
<line x1="318.79" y1="919.47" x2="318.79" y2="928.46" class="up-wick"/>
<rect x="316.37" y="925.33" width="4.83" height="1.00" class="up-body"/>
<line x1="326.21" y1="914.36" x2="326.21" y2="926.44" class="up-wick"/>
<rect x="323.80" y="917.65" width="4.83" height="5.86" class="up-body"/>
<line x1="333.64" y1="918.35" x2="333.64" y2="925.53" class="down-wick"/>
<rect x="331.23" y="918.46" width="4.83" height="4.85" class="down-body"/>
<line x1="341.07" y1="920.68" x2="341.07" y2="933.87" class="down-wick"/>
<rect x="338.65" y="920.93" width="4.83" height="11.82" class="down-body"/>
<line x1="348.49" y1="912.04" x2="348.49" y2="929.57" class="up-wick"/>
<rect x="346.08" y="912.14" width="4.83" height="13.09" class="up-body"/>
<line x1="355.92" y1="913.05" x2="355.92" y2="918.86" class="up-wick"/>
<rect x="353.51" y="917.65" width="4.83" height="1.00" class="up-body"/>
<line x1="363.35" y1="919.01" x2="363.35" y2="929.22" class="down-wick"/>
<rect x="360.93" y="920.38" width="4.83" height="7.02" class="down-body"/>
<line x1="370.77" y1="921.84" x2="370.77" y2="934.02" class="up-wick"/>
<rect x="368.36" y="922.70" width="4.83" height="10.81" class="up-body"/>
<line x1="378.20" y1="914.97" x2="378.20" y2="927.25" class="down-wick"/>
<rect x="375.78" y="923.26" width="4.83" height="3.99" class="down-body"/>
<line x1="385.62" y1="932.55" x2="385.62" y2="941.09" class="down-wick"/>
<rect x="383.21" y="935.58" width="4.83" height="1.82" class="down-body"/>
<line x1="393.05" y1="936.80" x2="393.05" y2="943.47" class="down-wick"/>
<rect x="390.64" y="939.02" width="4.83" height="1.00" class="down-body"/>
<line x1="400.48" y1="928.81" x2="400.48" y2="945.99" class="up-wick"/>
<rect x="398.06" y="935.79" width="4.83" height="5.56" class="up-body"/>
<line x1="407.90" y1="937.81" x2="407.90" y2="944.07" class="up-wick"/>
<rect x="405.49" y="940.18" width="4.83" height="3.08" class="up-body"/>
<line x1="415.33" y1="882.13" x2="415.33" y2="898.20" class="up-wick"/>
<rect x="412.92" y="895.37" width="4.83" height="2.02" class="up-body"/>
<line x1="422.76" y1="892.59" x2="422.76" y2="901.93" class="down-wick"/>
<rect x="420.34" y="892.89" width="4.83" height="5.71" class="down-body"/>
<line x1="430.18" y1="895.42" x2="430.18" y2="906.78" class="up-wick"/>
<rect x="427.77" y="900.22" width="4.83" height="4.09" class="up-body"/>
<line x1="437.61" y1="900.42" x2="437.61" y2="909.87" class="down-wick"/>
<rect x="435.20" y="905.07" width="4.83" height="1.67" class="down-body"/>
<line x1="445.04" y1="869.04" x2="445.04" y2="892.59" class="up-wick"/>
<rect x="442.62" y="873.49" width="4.83" height="18.90" class="up-body"/>
<line x1="452.46" y1="859.24" x2="452.46" y2="873.74" class="down-wick"/>
<rect x="450.05" y="861.11" width="4.83" height="4.24" class="down-body"/>
<line x1="459.89" y1="866.01" x2="459.89" y2="871.42" class="up-wick"/>
<rect x="457.48" y="867.02" width="4.83" height="4.40" class="up-body"/>
<line x1="467.32" y1="880.11" x2="467.32" y2="890.52" class="down-wick"/>
<rect x="464.90" y="880.11" width="4.83" height="5.96" class="down-body"/>
<line x1="474.74" y1="877.33" x2="474.74" y2="887.08" class="up-wick"/>
<rect x="472.33" y="881.07" width="4.83" height="4.55" class="up-body"/>
<line x1="482.17" y1="888.39" x2="482.17" y2="902.44" class="down-wick"/>
<rect x="479.76" y="888.95" width="4.83" height="5.91" class="down-body"/>
<line x1="489.60" y1="896.28" x2="489.60" y2="912.49" class="down-wick"/>
<rect x="487.18" y="896.93" width="4.83" height="12.78" class="down-body"/>
<line x1="497.02" y1="921.94" x2="497.02" y2="934.47" class="down-wick"/>
<rect x="494.61" y="926.89" width="4.83" height="5.20" class="down-body"/>
<line x1="504.45" y1="913.76" x2="504.45" y2="932.80" class="down-wick"/>
<rect x="502.03" y="918.56" width="4.83" height="13.59" class="down-body"/>
<line x1="511.88" y1="929.72" x2="511.88" y2="940.84" class="up-wick"/>
<rect x="509.46" y="930.99" width="4.83" height="6.21" class="up-body"/>
<line x1="519.30" y1="917.19" x2="519.30" y2="927.85" class="down-wick"/>
<rect x="516.89" y="921.84" width="4.83" height="1.00" class="down-body"/>
<line x1="526.73" y1="914.87" x2="526.73" y2="920.27" class="up-wick"/>
<rect x="524.31" y="919.52" width="4.83" height="1.00" class="up-body"/>
<line x1="534.15" y1="916.28" x2="534.15" y2="932.40" class="down-wick"/>
<rect x="531.74" y="917.45" width="4.83" height="14.75" class="down-body"/>
<line x1="541.58" y1="929.42" x2="541.58" y2="937.71" class="down-wick"/>
<rect x="539.17" y="930.48" width="4.83" height="6.87" class="down-body"/>
<line x1="549.01" y1="941.19" x2="549.01" y2="959.08" class="down-wick"/>
<rect x="546.59" y="943.11" width="4.83" height="3.23" class="down-body"/>
<line x1="556.43" y1="948.87" x2="556.43" y2="958.93" class="down-wick"/>
<rect x="554.02" y="950.79" width="4.83" height="4.09" class="down-body"/>
<line x1="563.86" y1="957.86" x2="563.86" y2="966.91" class="up-wick"/>
<rect x="561.45" y="960.34" width="4.83" height="2.37" class="up-body"/>
<line x1="571.29" y1="959.33" x2="571.29" y2="969.64" class="up-wick"/>
<rect x="568.87" y="962.46" width="4.83" height="6.47" class="up-body"/>
<line x1="578.71" y1="957.16" x2="578.71" y2="965.75" class="down-wick"/>
<rect x="576.30" y="960.85" width="4.83" height="1.00" class="down-body"/>
<line x1="586.14" y1="939.83" x2="586.14" y2="957.56" class="up-wick"/>
<rect x="583.73" y="940.53" width="4.83" height="13.44" class="up-body"/>
<line x1="593.57" y1="930.63" x2="593.57" y2="937.45" class="down-wick"/>
<rect x="591.15" y="932.70" width="4.83" height="1.36" class="down-body"/>
<line x1="600.99" y1="928.91" x2="600.99" y2="941.19" class="down-wick"/>
<rect x="598.58" y="932.50" width="4.83" height="6.57" class="down-body"/>
<line x1="608.42" y1="934.67" x2="608.42" y2="942.00" class="up-wick"/>
<rect x="606.01" y="937.76" width="4.83" height="2.02" class="up-body"/>
<line x1="615.85" y1="936.34" x2="615.85" y2="942.91" class="up-wick"/>
<rect x="613.43" y="938.61" width="4.83" height="2.68" class="up-body"/>
<line x1="623.27" y1="937.96" x2="623.27" y2="941.80" class="down-wick"/>
<rect x="620.86" y="938.41" width="4.83" height="2.53" class="down-body"/>
<line x1="630.70" y1="923.05" x2="630.70" y2="939.22" class="up-wick"/>
<rect x="628.28" y="927.45" width="4.83" height="10.00" class="up-body"/>
<line x1="638.12" y1="910.37" x2="638.12" y2="925.23" class="down-wick"/>
<rect x="635.71" y="918.86" width="4.83" height="1.67" class="down-body"/>
<line x1="645.55" y1="921.59" x2="645.55" y2="927.95" class="up-wick"/>
<rect x="643.14" y="923.36" width="4.83" height="1.26" class="up-body"/>
<line x1="652.98" y1="917.70" x2="652.98" y2="928.86" class="down-wick"/>
<rect x="650.56" y="920.78" width="4.83" height="6.37" class="down-body"/>
<line x1="660.40" y1="942.25" x2="660.40" y2="963.42" class="up-wick"/>
<rect x="657.99" y="942.30" width="4.83" height="6.72" class="up-body"/>
<line x1="667.83" y1="936.95" x2="667.83" y2="941.55" class="up-wick"/>
<rect x="665.42" y="940.18" width="4.83" height="1.00" class="up-body"/>
<line x1="675.26" y1="932.35" x2="675.26" y2="937.00" class="down-wick"/>
<rect x="672.84" y="933.06" width="4.83" height="3.64" class="down-body"/>
<line x1="682.68" y1="936.85" x2="682.68" y2="944.53" class="down-wick"/>
<rect x="680.27" y="938.26" width="4.83" height="1.67" class="down-body"/>
<line x1="690.11" y1="945.13" x2="690.11" y2="950.79" class="down-wick"/>
<rect x="687.70" y="946.24" width="4.83" height="1.26" class="down-body"/>
<line x1="697.54" y1="948.52" x2="697.54" y2="953.37" class="up-wick"/>
<rect x="695.12" y="951.35" width="4.83" height="1.00" class="up-body"/>
<line x1="704.96" y1="946.45" x2="704.96" y2="961.15" class="down-wick"/>
<rect x="702.55" y="946.70" width="4.83" height="10.81" class="down-body"/>
<line x1="712.39" y1="952.71" x2="712.39" y2="969.69" class="down-wick"/>
<rect x="709.98" y="953.87" width="4.83" height="9.30" class="down-body"/>
<line x1="719.82" y1="949.93" x2="719.82" y2="957.86" class="up-wick"/>
<rect x="717.40" y="950.84" width="4.83" height="3.49" class="up-body"/>
<line x1="727.24" y1="948.77" x2="727.24" y2="955.34" class="up-wick"/>
<rect x="724.83" y="950.99" width="4.83" height="1.26" class="up-body"/>
<line x1="734.67" y1="955.09" x2="734.67" y2="968.47" class="down-wick"/>
<rect x="732.26" y="955.14" width="4.83" height="9.40" class="down-body"/>
<line x1="742.10" y1="955.44" x2="742.10" y2="963.22" class="down-wick"/>
<rect x="739.68" y="956.10" width="4.83" height="5.91" class="down-body"/>
<line x1="749.52" y1="965.14" x2="749.52" y2="973.68" class="up-wick"/>
<rect x="747.11" y="965.14" width="4.83" height="3.49" class="up-body"/>
<line x1="756.95" y1="953.17" x2="756.95" y2="960.54" class="up-wick"/>
<rect x="754.53" y="953.97" width="4.83" height="3.79" class="up-body"/>
<line x1="764.38" y1="942.25" x2="764.38" y2="948.47" class="up-wick"/>
<rect x="761.96" y="944.17" width="4.83" height="2.43" class="up-body"/>
<line x1="771.80" y1="927.60" x2="771.80" y2="939.27" class="up-wick"/>
<rect x="769.39" y="930.03" width="4.83" height="8.13" class="up-body"/>
<line x1="779.23" y1="920.22" x2="779.23" y2="933.76" class="down-wick"/>
<rect x="776.81" y="920.93" width="4.83" height="8.13" class="down-body"/>
<line x1="786.65" y1="919.87" x2="786.65" y2="932.65" class="up-wick"/>
<rect x="784.24" y="921.23" width="4.83" height="6.37" class="up-body"/>
<line x1="794.08" y1="938.67" x2="794.08" y2="951.85" class="down-wick"/>
<rect x="791.67" y="939.47" width="4.83" height="10.91" class="down-body"/>
<line x1="801.51" y1="943.57" x2="801.51" y2="959.48" class="down-wick"/>
<rect x="799.09" y="944.27" width="4.83" height="11.82" class="down-body"/>
<line x1="808.93" y1="951.40" x2="808.93" y2="966.86" class="down-wick"/>
<rect x="806.52" y="953.97" width="4.83" height="5.81" class="down-body"/>
<line x1="816.36" y1="945.18" x2="816.36" y2="958.17" class="up-wick"/>
<rect x="813.95" y="946.29" width="4.83" height="11.72" class="up-body"/>
<line x1="823.79" y1="946.04" x2="823.79" y2="959.33" class="down-wick"/>
<rect x="821.37" y="949.48" width="4.83" height="9.65" class="down-body"/>
<line x1="831.21" y1="954.68" x2="831.21" y2="965.04" class="up-wick"/>
<rect x="828.80" y="956.90" width="4.83" height="7.83" class="up-body"/>
<line x1="838.64" y1="951.55" x2="838.64" y2="963.07" class="down-wick"/>
<rect x="836.23" y="954.28" width="4.83" height="7.78" class="down-body"/>
<line x1="846.07" y1="953.12" x2="846.07" y2="959.73" class="up-wick"/>
<rect x="843.65" y="953.17" width="4.83" height="3.03" class="up-body"/>
<line x1="853.49" y1="951.14" x2="853.49" y2="962.36" class="up-wick"/>
<rect x="851.08" y="956.96" width="4.83" height="1.00" class="up-body"/>
<line x1="860.92" y1="950.79" x2="860.92" y2="959.73" class="up-wick"/>
<rect x="858.51" y="951.40" width="4.83" height="6.57" class="up-body"/>
<line x1="868.35" y1="949.93" x2="868.35" y2="954.78" class="up-wick"/>
<rect x="865.93" y="950.18" width="4.83" height="1.52" class="up-body"/>
<line x1="875.77" y1="948.62" x2="875.77" y2="958.42" class="up-wick"/>
<rect x="873.36" y="950.39" width="4.83" height="2.58" class="up-body"/>
<line x1="883.20" y1="940.89" x2="883.20" y2="946.14" class="up-wick"/>
<rect x="880.78" y="941.90" width="4.83" height="2.32" class="up-body"/>
<line x1="890.62" y1="934.57" x2="890.62" y2="942.20" class="down-wick"/>
<rect x="888.21" y="936.90" width="4.83" height="5.00" class="down-body"/>
<line x1="898.05" y1="931.19" x2="898.05" y2="942.61" class="up-wick"/>
<rect x="895.64" y="932.30" width="4.83" height="10.05" class="up-body"/>
<line x1="905.48" y1="936.14" x2="905.48" y2="950.03" class="down-wick"/>
<rect x="903.06" y="936.14" width="4.83" height="8.54" class="down-body"/>
<line x1="912.90" y1="945.13" x2="912.90" y2="951.85" class="down-wick"/>
<rect x="910.49" y="947.51" width="4.83" height="4.24" class="down-body"/>
<line x1="920.33" y1="957.36" x2="920.33" y2="965.90" class="down-wick"/>
<rect x="917.92" y="958.67" width="4.83" height="1.87" class="down-body"/>
<line x1="927.76" y1="959.33" x2="927.76" y2="974.18" class="up-wick"/>
<rect x="925.34" y="960.24" width="4.83" height="10.81" class="up-body"/>
<line x1="935.18" y1="944.17" x2="935.18" y2="949.43" class="down-wick"/>
<rect x="932.77" y="944.98" width="4.83" height="2.73" class="down-body"/>
<line x1="942.61" y1="947.81" x2="942.61" y2="953.32" class="down-wick"/>
<rect x="940.20" y="949.83" width="4.83" height="3.33" class="down-body"/>
<line x1="950.04" y1="942.56" x2="950.04" y2="957.06" class="down-wick"/>
<rect x="947.62" y="946.35" width="4.83" height="10.71" class="down-body"/>
<line x1="957.46" y1="949.22" x2="957.46" y2="953.77" class="up-wick"/>
<rect x="955.05" y="952.00" width="4.83" height="1.72" class="up-body"/>
<line x1="964.89" y1="944.48" x2="964.89" y2="952.00" class="down-wick"/>
<rect x="962.48" y="946.60" width="4.83" height="5.15" class="down-body"/>
<line x1="972.32" y1="953.06" x2="972.32" y2="962.06" class="up-wick"/>
<rect x="969.90" y="955.29" width="4.83" height="3.44" class="up-body"/>
<line x1="979.74" y1="955.69" x2="979.74" y2="961.00" class="up-wick"/>
<rect x="977.33" y="956.30" width="4.83" height="4.60" class="up-body"/>
<line x1="987.17" y1="949.43" x2="987.17" y2="959.33" class="up-wick"/>
<rect x="984.76" y="950.49" width="4.83" height="3.94" class="up-body"/>
<line x1="994.60" y1="945.84" x2="994.60" y2="953.92" class="up-wick"/>
<rect x="992.18" y="946.14" width="4.83" height="7.78" class="up-body"/>
<line x1="1002.02" y1="949.07" x2="1002.02" y2="953.42" class="down-wick"/>
<rect x="999.61" y="949.83" width="4.83" height="3.54" class="down-body"/>
<line x1="1009.45" y1="953.87" x2="1009.45" y2="957.97" class="up-wick"/>
<rect x="1007.03" y="953.97" width="4.83" height="2.93" class="up-body"/>
<line x1="1016.88" y1="949.83" x2="1016.88" y2="955.34" class="down-wick"/>
<rect x="1014.46" y="953.17" width="4.83" height="1.00" class="down-body"/>
<line x1="1024.30" y1="952.41" x2="1024.30" y2="959.68" class="down-wick"/>
<rect x="1021.89" y="953.52" width="4.83" height="1.00" class="down-body"/>
<line x1="1031.73" y1="944.37" x2="1031.73" y2="948.92" class="up-wick"/>
<rect x="1029.31" y="946.40" width="4.83" height="1.01" class="up-body"/>
<line x1="1039.15" y1="946.85" x2="1039.15" y2="951.50" class="down-wick"/>
<rect x="1036.74" y="946.85" width="4.83" height="1.67" class="down-body"/>
<line x1="1046.58" y1="939.52" x2="1046.58" y2="946.24" class="up-wick"/>
<rect x="1044.17" y="940.69" width="4.83" height="5.10" class="up-body"/>
<line x1="1054.01" y1="945.54" x2="1054.01" y2="978.93" class="up-wick"/>
<rect x="1051.59" y="948.77" width="4.83" height="25.06" class="up-body"/>
<line x1="1061.43" y1="952.61" x2="1061.43" y2="977.06" class="down-wick"/>
<rect x="1059.02" y="953.97" width="4.83" height="20.77" class="down-body"/>
<line x1="1068.86" y1="985.20" x2="1068.86" y2="1024.76" class="down-wick"/>
<rect x="1066.45" y="988.63" width="4.83" height="29.76" class="down-body"/>
<line x1="1076.29" y1="992.47" x2="1076.29" y2="1015.01" class="up-wick"/>
<rect x="1073.87" y="997.83" width="4.83" height="10.31" class="up-body"/>
<line x1="70" y1="863.33" x2="1080" y2="863.33" class="sweep-line"/>
<text x="1076" y="859.33" text-anchor="end" class="level-label">sweep 4557.95</text>
<text x="70" y="1056" class="axis-label">2026-05-19 09:15:00+00:00 to 2026-05-19 13:45:00+00:00</text>
<text x="1080" y="1056" text-anchor="end" class="axis-label">4523.38 - 4561.38</text>
</svg>