<svg xmlns="http://www.w3.org/2000/svg" width="1120" height="1054" viewBox="0 0 1120 1054">
<style>
text{font-family:Arial,Helvetica,sans-serif}.title{font-size:21px;font-weight:700;fill:#1f2937}.subtitle{font-size:12px;fill:#4b5563}.panel-title{font-size:15px;font-weight:700;fill:#111827}.muted{font-size:13px;fill:#6b7280}.plot-bg{fill:#f8fafc;stroke:#cbd5e1;stroke-width:1}.up-body{fill:#15803d;stroke:#14532d;stroke-width:.8}.down-body{fill:#b91c1c;stroke:#7f1d1d;stroke-width:.8}.up-wick{stroke:#14532d;stroke-width:1}.down-wick{stroke:#7f1d1d;stroke-width:1}.sweep-line{stroke:#7c3aed;stroke-width:1.6;stroke-dasharray:6 4}.number-line{stroke:#0f766e;stroke-width:1.4;stroke-dasharray:3 4}.entry-line{stroke:#2563eb;stroke-width:1.4}.sl-line{stroke:#dc2626;stroke-width:1.4}.tp-line{stroke:#16a34a;stroke-width:1.4}.level-label,.axis-label{font-size:11px;fill:#374151}
</style>
<text x="28" y="28" class="title">Adelin v2 visual review sample sample_011</text>
<text x="28" y="48" class="subtitle">Candidate windows are for visual labeling only and are not trade signals.</text>
<text x="560" y="48" class="subtitle" text-anchor="middle">LARGE_UPPER_WICK_REVERSAL_VISUAL_CANDIDATE</text>
<text x="70" y="82" class="panel-title">H1 liquidity context</text>
<rect x="70" y="96" width="1010" height="192" class="plot-bg"/>
<line x1="82.62" y1="154.89" x2="82.62" y2="222.88" class="up-wick"/>
<rect x="78.62" y="166.45" width="8.00" height="9.77" class="up-body"/>
<line x1="107.88" y1="163.92" x2="107.88" y2="185.49" class="down-wick"/>
<rect x="103.88" y="166.45" width="8.00" height="12.03" class="down-body"/>
<line x1="133.12" y1="171.28" x2="133.12" y2="254.00" class="down-wick"/>
<rect x="129.12" y="178.45" width="8.00" height="28.12" class="down-body"/>
<line x1="158.38" y1="180.29" x2="158.38" y2="241.67" class="up-wick"/>
<rect x="154.38" y="193.99" width="8.00" height="13.26" class="up-body"/>
<line x1="183.62" y1="170.86" x2="183.62" y2="198.66" class="up-wick"/>
<rect x="179.62" y="183.02" width="8.00" height="10.98" class="up-body"/>
<line x1="208.88" y1="164.12" x2="208.88" y2="194.33" class="up-wick"/>
<rect x="204.88" y="173.08" width="8.00" height="9.94" class="up-body"/>
<line x1="234.12" y1="161.61" x2="234.12" y2="187.95" class="down-wick"/>
<rect x="230.12" y="173.09" width="8.00" height="1.00" class="down-body"/>
<line x1="259.38" y1="158.63" x2="259.38" y2="188.08" class="down-wick"/>
<rect x="255.38" y="173.74" width="8.00" height="12.97" class="down-body"/>
<line x1="284.62" y1="163.83" x2="284.62" y2="188.39" class="up-wick"/>
<rect x="280.62" y="165.61" width="8.00" height="21.10" class="up-body"/>
<line x1="309.88" y1="148.20" x2="309.88" y2="176.97" class="down-wick"/>
<rect x="305.88" y="165.61" width="8.00" height="1.00" class="down-body"/>
<line x1="335.12" y1="152.10" x2="335.12" y2="171.10" class="up-wick"/>
<rect x="331.12" y="161.38" width="8.00" height="4.96" class="up-body"/>
<line x1="360.38" y1="158.75" x2="360.38" y2="174.55" class="down-wick"/>
<rect x="356.38" y="161.38" width="8.00" height="9.34" class="down-body"/>
<line x1="385.62" y1="164.31" x2="385.62" y2="185.38" class="down-wick"/>
<rect x="381.62" y="170.73" width="8.00" height="3.61" class="down-body"/>
<line x1="410.88" y1="138.53" x2="410.88" y2="188.16" class="up-wick"/>
<rect x="406.88" y="160.53" width="8.00" height="13.81" class="up-body"/>
<line x1="436.12" y1="128.23" x2="436.12" y2="167.63" class="up-wick"/>
<rect x="432.12" y="133.19" width="8.00" height="27.36" class="up-body"/>
<line x1="461.38" y1="115.85" x2="461.38" y2="145.64" class="up-wick"/>
<rect x="457.38" y="126.95" width="8.00" height="6.25" class="up-body"/>
<line x1="486.62" y1="126.95" x2="486.62" y2="177.53" class="down-wick"/>
<rect x="482.62" y="126.95" width="8.00" height="39.08" class="down-body"/>
<line x1="511.88" y1="164.09" x2="511.88" y2="185.46" class="down-wick"/>
<rect x="507.88" y="166.05" width="8.00" height="3.85" class="down-body"/>
<line x1="537.12" y1="155.48" x2="537.12" y2="182.70" class="up-wick"/>
<rect x="533.12" y="161.11" width="8.00" height="8.80" class="up-body"/>
<line x1="562.38" y1="150.33" x2="562.38" y2="167.27" class="down-wick"/>
<rect x="558.38" y="161.11" width="8.00" height="4.27" class="down-body"/>
<line x1="587.62" y1="164.29" x2="587.62" y2="182.54" class="down-wick"/>
<rect x="583.62" y="165.37" width="8.00" height="14.71" class="down-body"/>
<line x1="612.88" y1="141.40" x2="612.88" y2="180.84" class="up-wick"/>
<rect x="608.88" y="150.18" width="8.00" height="29.90" class="up-body"/>
<line x1="638.12" y1="123.75" x2="638.12" y2="140.26" class="up-wick"/>
<rect x="634.12" y="129.64" width="8.00" height="9.95" class="up-body"/>
<line x1="663.38" y1="109.56" x2="663.38" y2="129.89" class="up-wick"/>
<rect x="659.38" y="119.14" width="8.00" height="10.52" class="up-body"/>
<line x1="688.62" y1="109.24" x2="688.62" y2="146.37" class="down-wick"/>
<rect x="684.62" y="119.14" width="8.00" height="24.42" class="down-body"/>
<line x1="713.88" y1="131.51" x2="713.88" y2="155.88" class="up-wick"/>
<rect x="709.88" y="143.01" width="8.00" height="1.00" class="up-body"/>
<line x1="739.12" y1="143.01" x2="739.12" y2="166.71" class="down-wick"/>
<rect x="735.12" y="143.01" width="8.00" height="22.11" class="down-body"/>
<line x1="764.38" y1="154.58" x2="764.38" y2="169.90" class="down-wick"/>
<rect x="760.38" y="165.12" width="8.00" height="2.79" class="down-body"/>
<line x1="789.62" y1="167.10" x2="789.62" y2="177.26" class="down-wick"/>
<rect x="785.62" y="167.91" width="8.00" height="3.53" class="down-body"/>
<line x1="814.88" y1="165.89" x2="814.88" y2="186.78" class="down-wick"/>
<rect x="810.88" y="171.42" width="8.00" height="2.05" class="down-body"/>
<line x1="840.12" y1="156.16" x2="840.12" y2="183.36" class="up-wick"/>
<rect x="836.12" y="163.82" width="8.00" height="9.65" class="up-body"/>
<line x1="865.38" y1="149.05" x2="865.38" y2="172.80" class="up-wick"/>
<rect x="861.38" y="151.79" width="8.00" height="12.03" class="up-body"/>
<line x1="890.62" y1="149.23" x2="890.62" y2="179.46" class="down-wick"/>
<rect x="886.62" y="151.79" width="8.00" height="19.17" class="down-body"/>
<line x1="915.88" y1="165.62" x2="915.88" y2="179.84" class="down-wick"/>
<rect x="911.88" y="170.98" width="8.00" height="1.24" class="down-body"/>
<line x1="941.12" y1="168.43" x2="941.12" y2="193.98" class="up-wick"/>
<rect x="937.12" y="168.43" width="8.00" height="3.79" class="up-body"/>
<line x1="966.38" y1="164.04" x2="966.38" y2="188.16" class="down-wick"/>
<rect x="962.38" y="168.43" width="8.00" height="18.58" class="down-body"/>
<line x1="991.62" y1="165.16" x2="991.62" y2="191.42" class="up-wick"/>
<rect x="987.62" y="178.50" width="8.00" height="8.50" class="up-body"/>
<line x1="1016.88" y1="178.09" x2="1016.88" y2="274.76" class="down-wick"/>
<rect x="1012.88" y="178.50" width="8.00" height="44.26" class="down-body"/>
<line x1="1042.12" y1="208.66" x2="1042.12" y2="248.47" class="down-wick"/>
<rect x="1038.12" y="222.76" width="8.00" height="12.89" class="down-body"/>
<line x1="1067.38" y1="215.56" x2="1067.38" y2="241.37" class="up-wick"/>
<rect x="1063.38" y="216.61" width="8.00" height="19.04" class="up-body"/>
<text x="70" y="306" class="axis-label">2026-05-18 01:00:00+00:00 to 2026-05-19 18:00:00+00:00</text>
<text x="1080" y="306" text-anchor="end" class="axis-label">4454.72 - 4599.20</text>
<text x="70" y="332" class="panel-title">M15 liquidity / reaction context</text>
<rect x="70" y="346" width="1010" height="192" class="plot-bg"/>
<line x1="79.53" y1="366.52" x2="79.53" y2="380.69" class="down-wick"/>
<rect x="75.53" y="376.90" width="8.00" height="2.40" class="down-body"/>
<line x1="98.58" y1="376.48" x2="98.58" y2="385.52" class="down-wick"/>
<rect x="94.58" y="379.43" width="8.00" height="4.64" class="down-body"/>
<line x1="117.64" y1="383.00" x2="117.64" y2="395.21" class="down-wick"/>
<rect x="113.64" y="384.07" width="8.00" height="8.52" class="down-body"/>
<line x1="136.70" y1="387.46" x2="136.70" y2="396.04" class="up-wick"/>
<rect x="132.70" y="392.41" width="8.00" height="1.00" class="up-body"/>
<line x1="155.75" y1="389.13" x2="155.75" y2="396.39" class="down-wick"/>
<rect x="151.75" y="392.41" width="8.00" height="1.00" class="down-body"/>
<line x1="174.81" y1="386.40" x2="174.81" y2="393.39" class="up-wick"/>
<rect x="170.81" y="388.72" width="8.00" height="4.64" class="up-body"/>
<line x1="193.87" y1="381.41" x2="193.87" y2="392.64" class="up-wick"/>
<rect x="189.87" y="384.47" width="8.00" height="4.22" class="up-body"/>
<line x1="212.92" y1="383.58" x2="212.92" y2="408.91" class="down-wick"/>
<rect x="208.92" y="384.52" width="8.00" height="11.01" class="down-body"/>
<line x1="231.98" y1="385.66" x2="231.98" y2="405.27" class="down-wick"/>
<rect x="227.98" y="395.53" width="8.00" height="1.00" class="down-body"/>
<line x1="251.04" y1="386.90" x2="251.04" y2="405.01" class="up-wick"/>
<rect x="247.04" y="391.38" width="8.00" height="4.22" class="up-body"/>
<line x1="270.09" y1="382.69" x2="270.09" y2="404.42" class="up-wick"/>
<rect x="266.09" y="389.39" width="8.00" height="1.99" class="up-body"/>
<line x1="289.15" y1="368.60" x2="289.15" y2="391.30" class="up-wick"/>
<rect x="285.15" y="379.48" width="8.00" height="9.90" class="up-body"/>
<line x1="308.21" y1="370.51" x2="308.21" y2="384.44" class="up-wick"/>
<rect x="304.21" y="371.65" width="8.00" height="7.84" class="up-body"/>
<line x1="327.26" y1="370.79" x2="327.26" y2="387.50" class="down-wick"/>
<rect x="323.26" y="371.72" width="8.00" height="6.96" class="down-body"/>
<line x1="346.32" y1="366.22" x2="346.32" y2="385.61" class="up-wick"/>
<rect x="342.32" y="377.79" width="8.00" height="1.00" class="up-body"/>
<line x1="365.38" y1="375.32" x2="365.38" y2="387.53" class="down-wick"/>
<rect x="361.38" y="377.79" width="8.00" height="1.00" class="down-body"/>
<line x1="384.43" y1="376.74" x2="384.43" y2="390.51" class="down-wick"/>
<rect x="380.43" y="378.47" width="8.00" height="10.78" class="down-body"/>
<line x1="403.49" y1="359.24" x2="403.49" y2="389.53" class="up-wick"/>
<rect x="399.49" y="362.85" width="8.00" height="26.40" class="up-body"/>
<line x1="422.55" y1="359.47" x2="422.55" y2="388.41" class="down-wick"/>
<rect x="418.55" y="362.85" width="8.00" height="18.98" class="down-body"/>
<line x1="441.60" y1="378.85" x2="441.60" y2="399.27" class="down-wick"/>
<rect x="437.60" y="381.83" width="8.00" height="14.07" class="down-body"/>
<line x1="460.66" y1="384.28" x2="460.66" y2="398.35" class="up-wick"/>
<rect x="456.66" y="387.24" width="8.00" height="8.64" class="up-body"/>
<line x1="479.72" y1="377.86" x2="479.72" y2="396.23" class="down-wick"/>
<rect x="475.72" y="387.24" width="8.00" height="1.00" class="down-body"/>
<line x1="498.77" y1="388.11" x2="498.77" y2="398.40" class="down-wick"/>
<rect x="494.77" y="388.11" width="8.00" height="5.58" class="down-body"/>
<line x1="517.83" y1="381.06" x2="517.83" y2="399.78" class="up-wick"/>
<rect x="513.83" y="391.71" width="8.00" height="1.98" class="up-body"/>
<line x1="536.89" y1="387.48" x2="536.89" y2="398.73" class="down-wick"/>
<rect x="532.89" y="391.71" width="8.00" height="2.29" class="down-body"/>
<line x1="555.94" y1="384.70" x2="555.94" y2="395.86" class="up-wick"/>
<rect x="551.94" y="389.74" width="8.00" height="4.27" class="up-body"/>
<line x1="575.00" y1="389.00" x2="575.00" y2="399.96" class="down-wick"/>
<rect x="571.00" y="389.74" width="8.00" height="1.00" class="down-body"/>
<line x1="594.06" y1="389.67" x2="594.06" y2="395.79" class="down-wick"/>
<rect x="590.06" y="390.40" width="8.00" height="2.52" class="down-body"/>
<line x1="613.11" y1="387.90" x2="613.11" y2="418.40" class="down-wick"/>
<rect x="609.11" y="392.92" width="8.00" height="18.79" class="down-body"/>
<line x1="632.17" y1="384.75" x2="632.17" y2="414.46" class="up-wick"/>
<rect x="628.17" y="384.75" width="8.00" height="26.96" class="up-body"/>
<line x1="651.23" y1="378.98" x2="651.23" y2="400.06" class="down-wick"/>
<rect x="647.23" y="384.75" width="8.00" height="13.93" class="down-body"/>
<line x1="670.28" y1="389.14" x2="670.28" y2="400.36" class="up-wick"/>
<rect x="666.28" y="394.18" width="8.00" height="4.50" class="up-body"/>
<line x1="689.34" y1="387.46" x2="689.34" y2="398.45" class="up-wick"/>
<rect x="685.34" y="389.67" width="8.00" height="4.51" class="up-body"/>
<line x1="708.40" y1="388.99" x2="708.40" y2="410.73" class="down-wick"/>
<rect x="704.40" y="389.67" width="8.00" height="19.54" class="down-body"/>
<line x1="727.45" y1="381.29" x2="727.45" y2="415.02" class="up-wick"/>
<rect x="723.45" y="389.02" width="8.00" height="20.19" class="up-body"/>
<line x1="746.51" y1="385.43" x2="746.51" y2="398.73" class="up-wick"/>
<rect x="742.51" y="386.97" width="8.00" height="2.06" class="up-body"/>
<line x1="765.57" y1="380.45" x2="765.57" y2="398.63" class="down-wick"/>
<rect x="761.57" y="386.97" width="8.00" height="10.38" class="down-body"/>
<line x1="784.62" y1="390.12" x2="784.62" y2="400.60" class="down-wick"/>
<rect x="780.62" y="397.35" width="8.00" height="1.00" class="down-body"/>
<line x1="803.68" y1="397.47" x2="803.68" y2="437.00" class="down-wick"/>
<rect x="799.68" y="398.01" width="8.00" height="22.10" class="down-body"/>
<line x1="822.74" y1="417.05" x2="822.74" y2="478.81" class="down-wick"/>
<rect x="818.74" y="420.11" width="8.00" height="56.69" class="down-body"/>
<line x1="841.79" y1="470.68" x2="841.79" y2="524.76" class="down-wick"/>
<rect x="837.79" y="476.80" width="8.00" height="27.87" class="down-body"/>
<line x1="860.85" y1="443.17" x2="860.85" y2="508.15" class="up-wick"/>
<rect x="856.85" y="456.29" width="8.00" height="48.38" class="up-body"/>
<line x1="879.91" y1="437.73" x2="879.91" y2="476.40" class="down-wick"/>
<rect x="875.91" y="456.29" width="8.00" height="19.30" class="down-body"/>
<line x1="898.96" y1="461.35" x2="898.96" y2="490.15" class="down-wick"/>
<rect x="894.96" y="475.61" width="8.00" height="4.58" class="down-body"/>
<line x1="918.02" y1="465.18" x2="918.02" y2="484.94" class="up-wick"/>
<rect x="914.02" y="472.36" width="8.00" height="7.84" class="up-body"/>
<line x1="937.08" y1="468.73" x2="937.08" y2="487.04" class="down-wick"/>
<rect x="933.08" y="472.36" width="8.00" height="1.00" class="down-body"/>
<line x1="956.13" y1="463.07" x2="956.13" y2="480.79" class="up-wick"/>
<rect x="952.13" y="464.78" width="8.00" height="8.49" class="up-body"/>
<line x1="975.19" y1="454.11" x2="975.19" y2="473.60" class="down-wick"/>
<rect x="971.19" y="464.78" width="8.00" height="1.00" class="down-body"/>
<line x1="994.25" y1="449.51" x2="994.25" y2="466.53" class="up-wick"/>
<rect x="990.25" y="459.25" width="8.00" height="5.65" class="up-body"/>
<line x1="1013.30" y1="446.81" x2="1013.30" y2="462.61" class="up-wick"/>
<rect x="1009.30" y="448.19" width="8.00" height="11.06" class="up-body"/>
<line x1="1032.36" y1="445.03" x2="1032.36" y2="469.80" class="down-wick"/>
<rect x="1028.36" y="448.19" width="8.00" height="13.19" class="down-body"/>
<line x1="1051.42" y1="442.02" x2="1051.42" y2="465.15" class="up-wick"/>
<rect x="1047.42" y="447.84" width="8.00" height="13.54" class="up-body"/>
<line x1="1070.47" y1="441.18" x2="1070.47" y2="453.13" class="down-wick"/>
<rect x="1066.47" y="447.84" width="8.00" height="4.72" class="down-body"/>
<text x="70" y="556" class="axis-label">2026-05-19 06:30:00+00:00 to 2026-05-19 19:30:00+00:00</text>
<text x="1080" y="556" text-anchor="end" class="axis-label">4457.11 - 4566.85</text>
<text x="70" y="582" class="panel-title">M5 reaction / execution context</text>
<rect x="70" y="596" width="1010" height="192" class="plot-bg"/>
<line x1="84.43" y1="621.01" x2="84.43" y2="712.28" class="up-wick"/>
<rect x="80.43" y="624.16" width="8.00" height="43.70" class="up-body"/>
<line x1="113.29" y1="609.24" x2="113.29" y2="717.03" class="down-wick"/>
<rect x="109.29" y="625.37" width="8.00" height="40.77" class="down-body"/>
<line x1="142.14" y1="666.14" x2="142.14" y2="731.34" class="down-wick"/>
<rect x="138.14" y="666.14" width="8.00" height="62.65" class="down-body"/>
<line x1="171.00" y1="683.82" x2="171.00" y2="732.66" class="up-wick"/>
<rect x="167.00" y="716.92" width="8.00" height="11.93" class="up-body"/>
<line x1="199.86" y1="710.62" x2="199.86" y2="772.77" class="down-wick"/>
<rect x="195.86" y="716.92" width="8.00" height="46.02" class="down-body"/>
<line x1="228.71" y1="720.40" x2="228.71" y2="774.76" class="up-wick"/>
<rect x="224.71" y="743.32" width="8.00" height="19.61" class="up-body"/>
<line x1="257.57" y1="699.02" x2="257.57" y2="751.44" class="up-wick"/>
<rect x="253.57" y="742.83" width="8.00" height="1.00" class="up-body"/>
<line x1="286.43" y1="695.92" x2="286.43" y2="749.23" class="down-wick"/>
<rect x="282.43" y="742.83" width="8.00" height="2.49" class="down-body"/>
<line x1="315.29" y1="700.73" x2="315.29" y2="758.30" class="up-wick"/>
<rect x="311.29" y="718.57" width="8.00" height="26.74" class="up-body"/>
<line x1="344.14" y1="709.24" x2="344.14" y2="756.36" class="down-wick"/>
<rect x="340.14" y="718.57" width="8.00" height="25.63" class="down-body"/>
<line x1="373.00" y1="721.39" x2="373.00" y2="764.92" class="down-wick"/>
<rect x="369.00" y="744.21" width="8.00" height="18.07" class="down-body"/>
<line x1="401.86" y1="707.14" x2="401.86" y2="762.55" class="up-wick"/>
<rect x="397.86" y="721.45" width="8.00" height="40.83" class="up-body"/>
<line x1="430.71" y1="689.29" x2="430.71" y2="721.94" class="up-wick"/>
<rect x="426.71" y="707.25" width="8.00" height="14.20" class="up-body"/>
<line x1="459.57" y1="689.24" x2="459.57" y2="745.20" class="up-wick"/>
<rect x="455.57" y="697.80" width="8.00" height="9.23" class="up-body"/>
<line x1="488.43" y1="689.96" x2="488.43" y2="712.44" class="up-wick"/>
<rect x="484.43" y="694.65" width="8.00" height="3.15" class="up-body"/>
<line x1="517.29" y1="660.95" x2="517.29" y2="698.85" class="up-wick"/>
<rect x="513.29" y="686.64" width="8.00" height="8.01" class="up-body"/>
<line x1="546.14" y1="676.81" x2="546.14" y2="722.50" class="down-wick"/>
<rect x="542.14" y="686.64" width="8.00" height="30.16" class="down-body"/>
<line x1="575.00" y1="688.35" x2="575.00" y2="720.07" class="up-wick"/>
<rect x="571.00" y="695.09" width="8.00" height="21.71" class="up-body"/>
<line x1="603.86" y1="646.42" x2="603.86" y2="700.18" class="up-wick"/>
<rect x="599.86" y="668.52" width="8.00" height="26.52" class="up-body"/>
<line x1="632.71" y1="659.35" x2="632.71" y2="695.04" class="down-wick"/>
<rect x="628.71" y="669.63" width="8.00" height="2.32" class="down-body"/>
<line x1="661.57" y1="660.68" x2="661.57" y2="685.37" class="down-wick"/>
<rect x="657.57" y="671.95" width="8.00" height="5.25" class="down-body"/>
<line x1="690.43" y1="666.20" x2="690.43" y2="687.80" class="up-wick"/>
<rect x="686.43" y="666.37" width="8.00" height="10.83" class="up-body"/>
<line x1="719.29" y1="657.03" x2="719.29" y2="679.46" class="down-wick"/>
<rect x="715.29" y="666.37" width="8.00" height="5.86" class="down-body"/>
<line x1="748.14" y1="637.91" x2="748.14" y2="672.55" class="up-wick"/>
<rect x="744.14" y="642.28" width="8.00" height="29.94" class="up-body"/>
<line x1="777.00" y1="632.28" x2="777.00" y2="659.79" class="down-wick"/>
<rect x="773.00" y="642.28" width="8.00" height="15.47" class="down-body"/>
<line x1="805.86" y1="657.69" x2="805.86" y2="703.38" class="down-wick"/>
<rect x="801.86" y="657.75" width="8.00" height="39.72" class="down-body"/>
<line x1="834.71" y1="682.33" x2="834.71" y2="710.51" class="up-wick"/>
<rect x="830.71" y="683.93" width="8.00" height="13.54" class="up-body"/>
<line x1="863.57" y1="672.22" x2="863.57" y2="695.81" class="down-wick"/>
<rect x="859.57" y="683.93" width="8.00" height="2.82" class="down-body"/>
<line x1="892.43" y1="655.87" x2="892.43" y2="687.58" class="up-wick"/>
<rect x="888.43" y="657.64" width="8.00" height="29.23" class="up-body"/>
<line x1="921.29" y1="622.78" x2="921.29" y2="657.75" class="up-wick"/>
<rect x="917.29" y="641.17" width="8.00" height="16.57" class="up-body"/>
<line x1="950.14" y1="620.12" x2="950.14" y2="652.06" class="down-wick"/>
<rect x="946.14" y="641.17" width="8.00" height="6.91" class="down-body"/>
<line x1="979.00" y1="634.77" x2="979.00" y2="656.64" class="up-wick"/>
<rect x="975.00" y="640.29" width="8.00" height="7.79" class="up-body"/>
<line x1="1007.86" y1="636.70" x2="1007.86" y2="657.86" class="down-wick"/>
<rect x="1003.86" y="640.29" width="8.00" height="15.80" class="down-body"/>
<line x1="1036.71" y1="653.00" x2="1036.71" y2="663.55" class="up-wick"/>
<rect x="1032.71" y="655.87" width="8.00" height="1.00" class="up-body"/>
<line x1="1065.57" y1="646.04" x2="1065.57" y2="662.72" class="down-wick"/>
<rect x="1061.57" y="655.81" width="8.00" height="2.27" class="down-body"/>
<text x="70" y="806" class="axis-label">2026-05-19 17:00:00+00:00 to 2026-05-19 19:50:00+00:00</text>
<text x="1080" y="806" text-anchor="end" class="axis-label">4482.06 - 4516.82</text>
<text x="70" y="832" class="panel-title">M1 execution window</text>
<rect x="70" y="846" width="1010" height="192" class="plot-bg"/>
<line x1="72.87" y1="913.38" x2="72.87" y2="959.73" class="down-wick"/>
<rect x="71.00" y="917.86" width="3.73" height="32.04" class="down-body"/>
<line x1="78.61" y1="926.37" x2="78.61" y2="954.10" class="up-wick"/>
<rect x="76.74" y="935.48" width="3.73" height="14.42" class="up-body"/>
<line x1="84.35" y1="928.52" x2="84.35" y2="962.28" class="down-wick"/>
<rect x="82.48" y="935.48" width="3.73" height="16.91" class="down-body"/>
<line x1="90.09" y1="935.20" x2="90.09" y2="959.13" class="up-wick"/>
<rect x="88.22" y="941.50" width="3.73" height="10.72" class="up-body"/>
<line x1="95.82" y1="871.01" x2="95.82" y2="942.22" class="up-wick"/>
<rect x="93.96" y="874.16" width="3.73" height="67.34" class="up-body"/>
<line x1="101.56" y1="859.24" x2="101.56" y2="916.26" class="down-wick"/>
<rect x="99.70" y="875.37" width="3.73" height="40.88" class="down-body"/>
<line x1="107.30" y1="876.42" x2="107.30" y2="916.86" class="up-wick"/>
<rect x="105.44" y="909.90" width="3.73" height="6.63" class="up-body"/>
<line x1="113.04" y1="903.38" x2="113.04" y2="964.15" class="down-wick"/>
<rect x="111.17" y="909.90" width="3.73" height="43.20" class="down-body"/>
<line x1="118.78" y1="936.59" x2="118.78" y2="967.03" class="up-wick"/>
<rect x="116.91" y="938.24" width="3.73" height="14.86" class="up-body"/>
<line x1="124.52" y1="912.11" x2="124.52" y2="942.72" class="up-wick"/>
<rect x="122.65" y="916.14" width="3.73" height="22.10" class="up-body"/>
<line x1="130.26" y1="916.14" x2="130.26" y2="945.37" class="down-wick"/>
<rect x="128.39" y="916.14" width="3.73" height="23.81" class="down-body"/>
<line x1="135.99" y1="930.90" x2="135.99" y2="952.44" class="up-wick"/>
<rect x="134.13" y="937.14" width="3.73" height="2.82" class="up-body"/>
<line x1="141.73" y1="933.05" x2="141.73" y2="955.26" class="up-wick"/>
<rect x="139.87" y="934.32" width="3.73" height="2.82" class="up-body"/>
<line x1="147.47" y1="932.50" x2="147.47" y2="960.01" class="down-wick"/>
<rect x="145.61" y="934.32" width="3.73" height="21.88" class="down-body"/>
<line x1="153.21" y1="955.09" x2="153.21" y2="981.34" class="down-wick"/>
<rect x="151.35" y="956.20" width="3.73" height="22.60" class="down-body"/>
<line x1="158.95" y1="957.52" x2="158.95" y2="982.66" class="up-wick"/>
<rect x="157.08" y="959.13" width="3.73" height="19.72" class="up-body"/>
<line x1="164.69" y1="942.50" x2="164.69" y2="963.77" class="down-wick"/>
<rect x="162.82" y="959.13" width="3.73" height="2.87" class="down-body"/>
<line x1="170.43" y1="942.61" x2="170.43" y2="975.09" class="up-wick"/>
<rect x="168.56" y="948.24" width="3.73" height="13.76" class="up-body"/>
<line x1="176.16" y1="935.65" x2="176.16" y2="958.46" class="up-wick"/>
<rect x="174.30" y="937.25" width="3.73" height="11.16" class="up-body"/>
<line x1="181.90" y1="933.82" x2="181.90" y2="967.69" class="down-wick"/>
<rect x="180.04" y="937.25" width="3.73" height="29.67" class="down-body"/>
<line x1="187.64" y1="960.62" x2="187.64" y2="996.80" class="down-wick"/>
<rect x="185.78" y="966.92" width="3.73" height="24.20" class="down-body"/>
<line x1="193.38" y1="988.68" x2="193.38" y2="1022.60" class="down-wick"/>
<rect x="191.52" y="991.11" width="3.73" height="27.24" class="down-body"/>
<line x1="199.12" y1="1001.06" x2="199.12" y2="1022.77" class="up-wick"/>
<rect x="197.25" y="1001.06" width="3.73" height="17.29" class="up-body"/>
<line x1="204.86" y1="991.83" x2="204.86" y2="1017.85" class="down-wick"/>
<rect x="202.99" y="1000.89" width="3.73" height="11.49" class="down-body"/>
<line x1="210.60" y1="1006.69" x2="210.60" y2="1022.33" class="down-wick"/>
<rect x="208.73" y="1010.73" width="3.73" height="2.21" class="down-body"/>
<line x1="216.34" y1="1006.47" x2="216.34" y2="1024.76" class="up-wick"/>
<rect x="214.47" y="1012.11" width="3.73" height="1.00" class="up-body"/>
<line x1="222.07" y1="976.58" x2="222.07" y2="1013.54" class="up-wick"/>
<rect x="220.21" y="983.32" width="3.73" height="28.01" class="up-body"/>
<line x1="227.81" y1="975.64" x2="227.81" y2="992.88" class="up-wick"/>
<rect x="225.95" y="981.72" width="3.73" height="1.99" class="up-body"/>
<line x1="233.55" y1="970.40" x2="233.55" y2="991.78" class="down-wick"/>
<rect x="231.69" y="981.72" width="3.73" height="7.73" class="down-body"/>
<line x1="239.29" y1="980.06" x2="239.29" y2="994.87" class="down-wick"/>
<rect x="237.42" y="989.46" width="3.73" height="3.87" class="down-body"/>
<line x1="245.03" y1="954.82" x2="245.03" y2="995.75" class="up-wick"/>
<rect x="243.16" y="954.82" width="3.73" height="38.51" class="up-body"/>
<line x1="250.77" y1="949.02" x2="250.77" y2="968.30" class="down-wick"/>
<rect x="248.90" y="954.82" width="3.73" height="2.87" class="down-body"/>
<line x1="256.51" y1="956.20" x2="256.51" y2="1001.44" class="down-wick"/>
<rect x="254.64" y="957.69" width="3.73" height="34.14" class="down-body"/>
<line x1="262.24" y1="977.91" x2="262.24" y2="997.14" class="up-wick"/>
<rect x="260.38" y="982.44" width="3.73" height="10.72" class="up-body"/>
<line x1="267.98" y1="973.38" x2="267.98" y2="995.04" class="down-wick"/>
<rect x="266.12" y="982.44" width="3.73" height="10.39" class="down-body"/>
<line x1="273.72" y1="956.81" x2="273.72" y2="993.88" class="up-wick"/>
<rect x="271.86" y="960.29" width="3.73" height="32.54" class="up-body"/>
<line x1="279.46" y1="945.92" x2="279.46" y2="960.73" class="up-wick"/>
<rect x="277.60" y="958.19" width="3.73" height="2.10" class="up-body"/>
<line x1="285.20" y1="958.24" x2="285.20" y2="978.19" class="down-wick"/>
<rect x="283.33" y="958.24" width="3.73" height="15.08" class="down-body"/>
<line x1="290.94" y1="964.60" x2="290.94" y2="988.90" class="down-wick"/>
<rect x="289.07" y="973.32" width="3.73" height="1.00" class="down-body"/>
<line x1="296.68" y1="973.99" x2="296.68" y2="999.23" class="down-wick"/>
<rect x="294.81" y="974.04" width="3.73" height="21.27" class="down-body"/>
<line x1="302.41" y1="976.14" x2="302.41" y2="1008.30" class="up-wick"/>
<rect x="300.55" y="990.89" width="3.73" height="4.42" class="up-body"/>
<line x1="308.15" y1="966.36" x2="308.15" y2="1000.06" class="up-wick"/>
<rect x="306.29" y="972.33" width="3.73" height="18.56" class="up-body"/>
<line x1="313.89" y1="954.54" x2="313.89" y2="975.37" class="up-wick"/>
<rect x="312.03" y="957.86" width="3.73" height="14.47" class="up-body"/>
<line x1="319.63" y1="950.73" x2="319.63" y2="975.48" class="down-wick"/>
<rect x="317.77" y="957.86" width="3.73" height="15.30" class="down-body"/>
<line x1="325.37" y1="965.09" x2="325.37" y2="977.97" class="up-wick"/>
<rect x="323.50" y="968.57" width="3.73" height="4.92" class="up-body"/>
<line x1="331.11" y1="959.24" x2="331.11" y2="993.71" class="down-wick"/>
<rect x="329.24" y="968.57" width="3.73" height="15.08" class="down-body"/>
<line x1="336.85" y1="969.95" x2="336.85" y2="989.24" class="up-wick"/>
<rect x="334.98" y="971.39" width="3.73" height="14.09" class="up-body"/>
<line x1="342.59" y1="966.09" x2="342.59" y2="984.04" class="down-wick"/>
<rect x="340.72" y="971.39" width="3.73" height="11.99" class="down-body"/>
<line x1="348.32" y1="983.27" x2="348.32" y2="1006.36" class="down-wick"/>
<rect x="346.46" y="983.38" width="3.73" height="4.53" class="down-body"/>
<line x1="354.06" y1="985.26" x2="354.06" y2="996.97" class="down-wick"/>
<rect x="352.20" y="987.91" width="3.73" height="6.30" class="down-body"/>
<line x1="359.80" y1="971.39" x2="359.80" y2="997.25" class="up-wick"/>
<rect x="357.94" y="972.05" width="3.73" height="22.15" class="up-body"/>
<line x1="365.54" y1="971.78" x2="365.54" y2="988.02" class="down-wick"/>
<rect x="363.67" y="972.05" width="3.73" height="12.15" class="down-body"/>
<line x1="371.28" y1="979.29" x2="371.28" y2="989.68" class="down-wick"/>
<rect x="369.41" y="984.48" width="3.73" height="1.00" class="down-body"/>
<line x1="377.02" y1="982.66" x2="377.02" y2="1008.41" class="down-wick"/>
<rect x="375.15" y="984.87" width="3.73" height="21.93" class="down-body"/>
<line x1="382.76" y1="999.51" x2="382.76" y2="1014.92" class="down-wick"/>
<rect x="380.89" y="1006.80" width="3.73" height="5.47" class="down-body"/>
<line x1="388.49" y1="988.08" x2="388.49" y2="1012.55" class="up-wick"/>
<rect x="386.63" y="988.08" width="3.73" height="24.20" class="up-body"/>
<line x1="394.23" y1="986.42" x2="394.23" y2="1001.22" class="down-wick"/>
<rect x="392.37" y="988.13" width="3.73" height="9.45" class="down-body"/>
<line x1="399.97" y1="978.74" x2="399.97" y2="1001.78" class="up-wick"/>
<rect x="398.11" y="982.99" width="3.73" height="14.42" class="up-body"/>
<line x1="405.71" y1="957.14" x2="405.71" y2="983.16" class="up-wick"/>
<rect x="403.85" y="965.15" width="3.73" height="17.95" class="up-body"/>
<line x1="411.45" y1="961.56" x2="411.45" y2="973.71" class="down-wick"/>
<rect x="409.58" y="965.15" width="3.73" height="6.30" class="down-body"/>
<line x1="417.19" y1="954.60" x2="417.19" y2="971.94" class="up-wick"/>
<rect x="415.32" y="956.42" width="3.73" height="15.03" class="up-body"/>
<line x1="422.93" y1="946.53" x2="422.93" y2="960.40" class="up-wick"/>
<rect x="421.06" y="956.09" width="3.73" height="1.00" class="up-body"/>
<line x1="428.66" y1="942.83" x2="428.66" y2="958.13" class="up-wick"/>
<rect x="426.80" y="948.80" width="3.73" height="7.29" class="up-body"/>
<line x1="434.40" y1="943.88" x2="434.40" y2="959.68" class="up-wick"/>
<rect x="432.54" y="946.81" width="3.73" height="1.99" class="up-body"/>
<line x1="440.14" y1="939.29" x2="440.14" y2="957.58" class="down-wick"/>
<rect x="438.28" y="946.81" width="3.73" height="10.44" class="down-body"/>
<line x1="445.88" y1="955.04" x2="445.88" y2="973.38" class="down-wick"/>
<rect x="444.02" y="957.03" width="3.73" height="13.92" class="down-body"/>
<line x1="451.62" y1="961.72" x2="451.62" y2="980.29" class="up-wick"/>
<rect x="449.75" y="964.15" width="3.73" height="6.80" class="up-body"/>
<line x1="457.36" y1="961.56" x2="457.36" y2="995.20" class="down-wick"/>
<rect x="455.49" y="964.26" width="3.73" height="24.14" class="down-body"/>
<line x1="463.10" y1="969.62" x2="463.10" y2="990.56" class="up-wick"/>
<rect x="461.23" y="970.01" width="3.73" height="18.40" class="up-body"/>
<line x1="468.84" y1="939.24" x2="468.84" y2="971.94" class="up-wick"/>
<rect x="466.97" y="947.80" width="3.73" height="22.21" class="up-body"/>
<line x1="474.57" y1="939.96" x2="474.57" y2="957.86" class="down-wick"/>
<rect x="472.71" y="947.80" width="3.73" height="8.18" class="down-body"/>
<line x1="480.31" y1="947.97" x2="480.31" y2="962.44" class="down-wick"/>
<rect x="478.45" y="955.98" width="3.73" height="3.20" class="down-body"/>
<line x1="486.05" y1="946.64" x2="486.05" y2="962.22" class="up-wick"/>
<rect x="484.19" y="957.52" width="3.73" height="1.66" class="up-body"/>
<line x1="491.79" y1="948.19" x2="491.79" y2="958.24" class="up-wick"/>
<rect x="489.92" y="951.56" width="3.73" height="5.97" class="up-body"/>
<line x1="497.53" y1="943.38" x2="497.53" y2="962.00" class="up-wick"/>
<rect x="495.66" y="944.65" width="3.73" height="7.13" class="up-body"/>
<line x1="503.27" y1="932.72" x2="503.27" y2="946.20" class="up-wick"/>
<rect x="501.40" y="940.62" width="3.73" height="4.03" class="up-body"/>
<line x1="509.01" y1="932.66" x2="509.01" y2="948.85" class="down-wick"/>
<rect x="507.14" y="940.78" width="3.73" height="4.97" class="down-body"/>
<line x1="514.74" y1="934.60" x2="514.74" y2="946.09" class="up-wick"/>
<rect x="512.88" y="938.24" width="3.73" height="7.51" class="up-body"/>
<line x1="520.48" y1="910.95" x2="520.48" y2="938.35" class="up-wick"/>
<rect x="518.62" y="914.38" width="3.73" height="23.87" class="up-body"/>
<line x1="526.22" y1="914.10" x2="526.22" y2="943.44" class="down-wick"/>
<rect x="524.36" y="914.38" width="3.73" height="22.26" class="down-body"/>
<line x1="531.96" y1="929.51" x2="531.96" y2="943.88" class="down-wick"/>
<rect x="530.10" y="936.64" width="3.73" height="5.58" class="down-body"/>
<line x1="537.70" y1="926.81" x2="537.70" y2="944.43" class="up-wick"/>
<rect x="535.83" y="935.15" width="3.73" height="7.13" class="up-body"/>
<line x1="543.44" y1="931.34" x2="543.44" y2="955.76" class="down-wick"/>
<rect x="541.57" y="935.15" width="3.73" height="20.61" class="down-body"/>
<line x1="549.18" y1="952.66" x2="549.18" y2="971.28" class="down-wick"/>
<rect x="547.31" y="955.87" width="3.73" height="13.76" class="down-body"/>
<line x1="554.91" y1="959.02" x2="554.91" y2="972.50" class="up-wick"/>
<rect x="553.05" y="966.81" width="3.73" height="2.82" class="up-body"/>
<line x1="560.65" y1="950.62" x2="560.65" y2="970.07" class="up-wick"/>
<rect x="558.79" y="954.93" width="3.73" height="11.88" class="up-body"/>
<line x1="566.39" y1="950.89" x2="566.39" y2="959.35" class="down-wick"/>
<rect x="564.53" y="954.93" width="3.73" height="1.05" class="down-body"/>
<line x1="572.13" y1="941.01" x2="572.13" y2="956.75" class="up-wick"/>
<rect x="570.27" y="941.94" width="3.73" height="13.76" class="up-body"/>
<line x1="577.87" y1="938.35" x2="577.87" y2="952.00" class="down-wick"/>
<rect x="576.00" y="941.94" width="3.73" height="6.35" class="down-body"/>
<line x1="583.61" y1="939.73" x2="583.61" y2="951.45" class="up-wick"/>
<rect x="581.74" y="945.09" width="3.73" height="3.20" class="up-body"/>
<line x1="589.35" y1="928.58" x2="589.35" y2="950.18" class="up-wick"/>
<rect x="587.48" y="928.80" width="3.73" height="16.24" class="up-body"/>
<line x1="595.09" y1="896.42" x2="595.09" y2="929.13" class="up-wick"/>
<rect x="593.22" y="900.57" width="3.73" height="28.23" class="up-body"/>
<line x1="600.82" y1="900.57" x2="600.82" y2="915.81" class="down-wick"/>
<rect x="598.96" y="900.57" width="3.73" height="9.39" class="down-body"/>
<line x1="606.56" y1="904.65" x2="606.56" y2="912.83" class="down-wick"/>
<rect x="604.70" y="909.96" width="3.73" height="1.22" class="down-body"/>
<line x1="612.30" y1="901.06" x2="612.30" y2="918.52" class="down-wick"/>
<rect x="610.44" y="911.17" width="3.73" height="7.35" class="down-body"/>
<line x1="618.04" y1="919.63" x2="618.04" y2="943.55" class="down-wick"/>
<rect x="616.17" y="919.63" width="3.73" height="22.43" class="down-body"/>
<line x1="623.78" y1="932.88" x2="623.78" y2="945.04" class="up-wick"/>
<rect x="621.91" y="935.20" width="3.73" height="6.85" class="up-body"/>
<line x1="629.52" y1="913.88" x2="629.52" y2="937.14" class="up-wick"/>
<rect x="627.65" y="914.98" width="3.73" height="20.22" class="up-body"/>
<line x1="635.26" y1="909.35" x2="635.26" y2="919.90" class="up-wick"/>
<rect x="633.39" y="913.60" width="3.73" height="1.38" class="up-body"/>
<line x1="640.99" y1="910.84" x2="640.99" y2="923.82" class="down-wick"/>
<rect x="639.13" y="912.61" width="3.73" height="9.34" class="down-body"/>
<line x1="646.73" y1="921.34" x2="646.73" y2="932.94" class="down-wick"/>
<rect x="644.87" y="921.95" width="3.73" height="6.30" class="down-body"/>
<line x1="652.47" y1="917.03" x2="652.47" y2="928.24" class="up-wick"/>
<rect x="650.61" y="924.43" width="3.73" height="3.81" class="up-body"/>
<line x1="658.21" y1="910.68" x2="658.21" y2="926.48" class="up-wick"/>
<rect x="656.35" y="919.74" width="3.73" height="4.70" class="up-body"/>
<line x1="663.95" y1="918.85" x2="663.95" y2="935.37" class="down-wick"/>
<rect x="662.08" y="919.74" width="3.73" height="13.42" class="down-body"/>
<line x1="669.69" y1="926.03" x2="669.69" y2="933.33" class="up-wick"/>
<rect x="667.82" y="927.19" width="3.73" height="5.97" class="up-body"/>
<line x1="675.43" y1="919.46" x2="675.43" y2="934.16" class="down-wick"/>
<rect x="673.56" y="927.19" width="3.73" height="6.63" class="down-body"/>
<line x1="681.16" y1="927.58" x2="681.16" y2="937.36" class="up-wick"/>
<rect x="679.30" y="930.18" width="3.73" height="3.65" class="up-body"/>
<line x1="686.90" y1="928.80" x2="686.90" y2="937.80" class="up-wick"/>
<rect x="685.04" y="929.24" width="3.73" height="1.00" class="up-body"/>
<line x1="692.64" y1="923.60" x2="692.64" y2="932.61" class="up-wick"/>
<rect x="690.78" y="926.20" width="3.73" height="3.04" class="up-body"/>
<line x1="698.38" y1="916.20" x2="698.38" y2="927.36" class="up-wick"/>
<rect x="696.52" y="916.37" width="3.73" height="9.83" class="up-body"/>
<line x1="704.12" y1="914.21" x2="704.12" y2="927.64" class="down-wick"/>
<rect x="702.25" y="916.37" width="3.73" height="5.52" class="down-body"/>
<line x1="709.86" y1="914.49" x2="709.86" y2="924.43" class="up-wick"/>
<rect x="707.99" y="921.89" width="3.73" height="1.00" class="up-body"/>
<line x1="715.60" y1="915.87" x2="715.60" y2="924.10" class="up-wick"/>
<rect x="713.73" y="916.14" width="3.73" height="5.86" class="up-body"/>
<line x1="721.34" y1="907.03" x2="721.34" y2="925.37" class="down-wick"/>
<rect x="719.47" y="916.14" width="3.73" height="5.19" class="down-body"/>
<line x1="727.07" y1="919.46" x2="727.07" y2="929.46" class="down-wick"/>
<rect x="725.21" y="921.34" width="3.73" height="1.00" class="down-body"/>
<line x1="732.81" y1="904.71" x2="732.81" y2="922.55" class="up-wick"/>
<rect x="730.95" y="907.58" width="3.73" height="14.64" class="up-body"/>
<line x1="738.55" y1="901.34" x2="738.55" y2="911.73" class="up-wick"/>
<rect x="736.69" y="902.33" width="3.73" height="5.25" class="up-body"/>
<line x1="744.29" y1="888.58" x2="744.29" y2="904.60" class="up-wick"/>
<rect x="742.42" y="897.97" width="3.73" height="4.36" class="up-body"/>
<line x1="750.03" y1="895.70" x2="750.03" y2="902.50" class="down-wick"/>
<rect x="748.16" y="897.97" width="3.73" height="1.38" class="down-body"/>
<line x1="755.77" y1="887.91" x2="755.77" y2="901.28" class="up-wick"/>
<rect x="753.90" y="892.28" width="3.73" height="7.07" class="up-body"/>
<line x1="761.51" y1="882.28" x2="761.51" y2="893.22" class="up-wick"/>
<rect x="759.64" y="885.76" width="3.73" height="6.52" class="up-body"/>
<line x1="767.24" y1="885.21" x2="767.24" y2="898.96" class="down-wick"/>
<rect x="765.38" y="885.76" width="3.73" height="12.43" class="down-body"/>
<line x1="772.98" y1="888.41" x2="772.98" y2="902.39" class="down-wick"/>
<rect x="771.12" y="898.19" width="3.73" height="1.66" class="down-body"/>
<line x1="778.72" y1="895.92" x2="778.72" y2="905.26" class="down-wick"/>
<rect x="776.86" y="899.85" width="3.73" height="5.25" class="down-body"/>
<line x1="784.46" y1="905.10" x2="784.46" y2="909.79" class="down-wick"/>
<rect x="782.60" y="905.10" width="3.73" height="2.65" class="down-body"/>
<line x1="790.20" y1="907.69" x2="790.20" y2="925.87" class="down-wick"/>
<rect x="788.33" y="907.75" width="3.73" height="17.68" class="down-body"/>
<line x1="795.94" y1="919.51" x2="795.94" y2="934.49" class="down-wick"/>
<rect x="794.07" y="925.59" width="3.73" height="6.91" class="down-body"/>
<line x1="801.68" y1="926.14" x2="801.68" y2="937.58" class="up-wick"/>
<rect x="799.81" y="926.53" width="3.73" height="5.97" class="up-body"/>
<line x1="807.41" y1="925.15" x2="807.41" y2="934.10" class="down-wick"/>
<rect x="805.55" y="926.53" width="3.73" height="6.85" class="down-body"/>
<line x1="813.15" y1="931.89" x2="813.15" y2="953.38" class="down-wick"/>
<rect x="811.29" y="933.38" width="3.73" height="14.09" class="down-body"/>
<line x1="818.89" y1="943.88" x2="818.89" y2="960.51" class="up-wick"/>
<rect x="817.03" y="944.60" width="3.73" height="2.87" class="up-body"/>
<line x1="824.63" y1="939.02" x2="824.63" y2="948.02" class="down-wick"/>
<rect x="822.77" y="944.60" width="3.73" height="1.00" class="down-body"/>
<line x1="830.37" y1="941.45" x2="830.37" y2="951.45" class="down-wick"/>
<rect x="828.50" y="945.43" width="3.73" height="3.37" class="down-body"/>
<line x1="836.11" y1="938.02" x2="836.11" y2="948.80" class="up-wick"/>
<rect x="834.24" y="941.01" width="3.73" height="7.79" class="up-body"/>
<line x1="841.85" y1="932.33" x2="841.85" y2="943.55" class="up-wick"/>
<rect x="839.98" y="933.93" width="3.73" height="7.07" class="up-body"/>
<line x1="847.59" y1="922.22" x2="847.59" y2="935.04" class="up-wick"/>
<rect x="845.72" y="933.22" width="3.73" height="1.00" class="up-body"/>
<line x1="853.32" y1="932.66" x2="853.32" y2="943.77" class="down-wick"/>
<rect x="851.46" y="932.77" width="3.73" height="7.29" class="down-body"/>
<line x1="859.06" y1="934.10" x2="859.06" y2="943.55" class="up-wick"/>
<rect x="857.20" y="935.65" width="3.73" height="4.42" class="up-body"/>
<line x1="864.80" y1="933.60" x2="864.80" y2="945.81" class="down-wick"/>
<rect x="862.94" y="935.65" width="3.73" height="3.09" class="down-body"/>
<line x1="870.54" y1="934.87" x2="870.54" y2="939.02" class="up-wick"/>
<rect x="868.67" y="936.75" width="3.73" height="1.88" class="up-body"/>
<line x1="876.28" y1="926.53" x2="876.28" y2="937.58" class="up-wick"/>
<rect x="874.41" y="927.64" width="3.73" height="9.23" class="up-body"/>
<line x1="882.02" y1="925.92" x2="882.02" y2="929.85" class="down-wick"/>
<rect x="880.15" y="927.64" width="3.73" height="1.00" class="down-body"/>
<line x1="887.76" y1="927.47" x2="887.76" y2="935.20" class="down-wick"/>
<rect x="885.89" y="928.24" width="3.73" height="1.22" class="down-body"/>
<line x1="893.49" y1="914.93" x2="893.49" y2="929.68" class="up-wick"/>
<rect x="891.63" y="915.37" width="3.73" height="14.03" class="up-body"/>
<line x1="899.23" y1="905.87" x2="899.23" y2="917.91" class="up-wick"/>
<rect x="897.37" y="907.64" width="3.73" height="7.62" class="up-body"/>
<line x1="904.97" y1="887.25" x2="904.97" y2="907.75" class="up-wick"/>
<rect x="903.11" y="890.46" width="3.73" height="17.29" class="up-body"/>
<line x1="910.71" y1="872.78" x2="910.71" y2="894.93" class="down-wick"/>
<rect x="908.85" y="890.46" width="3.73" height="2.54" class="down-body"/>
<line x1="916.45" y1="889.30" x2="916.45" y2="898.69" class="up-wick"/>
<rect x="914.58" y="890.57" width="3.73" height="2.10" class="up-body"/>
<line x1="922.19" y1="883.88" x2="922.19" y2="893.38" class="down-wick"/>
<rect x="920.32" y="890.57" width="3.73" height="1.66" class="down-body"/>
<line x1="927.93" y1="886.81" x2="927.93" y2="894.05" class="up-wick"/>
<rect x="926.06" y="891.17" width="3.73" height="1.05" class="up-body"/>
<line x1="933.66" y1="887.25" x2="933.66" y2="896.70" class="down-wick"/>
<rect x="931.80" y="891.17" width="3.73" height="2.54" class="down-body"/>
<line x1="939.40" y1="875.43" x2="939.40" y2="893.71" class="up-wick"/>
<rect x="937.54" y="882.39" width="3.73" height="11.33" class="up-body"/>
<line x1="945.14" y1="870.12" x2="945.14" y2="889.35" class="down-wick"/>
<rect x="943.28" y="882.39" width="3.73" height="2.54" class="down-body"/>
<line x1="950.88" y1="884.71" x2="950.88" y2="895.10" class="down-wick"/>
<rect x="949.02" y="884.93" width="3.73" height="7.57" class="down-body"/>
<line x1="956.62" y1="889.63" x2="956.62" y2="902.06" class="down-wick"/>
<rect x="954.75" y="892.50" width="3.73" height="5.58" class="down-body"/>
<line x1="962.36" y1="889.52" x2="962.36" y2="898.19" class="up-wick"/>
<rect x="960.49" y="891.95" width="3.73" height="6.13" class="up-body"/>
<line x1="968.10" y1="890.12" x2="968.10" y2="906.64" class="down-wick"/>
<rect x="966.23" y="891.95" width="3.73" height="5.58" class="down-body"/>
<line x1="973.84" y1="892.72" x2="973.84" y2="901.39" class="down-wick"/>
<rect x="971.97" y="897.36" width="3.73" height="2.54" class="down-body"/>
<line x1="979.57" y1="884.77" x2="979.57" y2="902.83" class="up-wick"/>
<rect x="977.71" y="893.05" width="3.73" height="6.85" class="up-body"/>
<line x1="985.31" y1="887.25" x2="985.31" y2="894.16" class="up-wick"/>
<rect x="983.45" y="890.29" width="3.73" height="2.76" class="up-body"/>
<line x1="991.05" y1="888.02" x2="991.05" y2="899.90" class="down-wick"/>
<rect x="989.19" y="890.29" width="3.73" height="6.02" class="down-body"/>
<line x1="996.79" y1="890.01" x2="996.79" y2="901.62" class="up-wick"/>
<rect x="994.92" y="890.79" width="3.73" height="5.52" class="up-body"/>
<line x1="1002.53" y1="886.70" x2="1002.53" y2="903.00" class="down-wick"/>
<rect x="1000.66" y="890.79" width="3.73" height="10.99" class="down-body"/>
<line x1="1008.27" y1="896.86" x2="1008.27" y2="906.42" class="down-wick"/>
<rect x="1006.40" y="901.78" width="3.73" height="1.93" class="down-body"/>
<line x1="1014.01" y1="901.50" x2="1014.01" y2="907.86" class="down-wick"/>
<rect x="1012.14" y="903.99" width="3.73" height="2.10" class="down-body"/>
<line x1="1019.74" y1="903.00" x2="1019.74" y2="910.34" class="down-wick"/>
<rect x="1017.88" y="906.09" width="3.73" height="2.38" class="down-body"/>
<line x1="1025.48" y1="904.54" x2="1025.48" y2="910.95" class="down-wick"/>
<rect x="1023.62" y="908.47" width="3.73" height="1.10" class="down-body"/>
<line x1="1031.22" y1="905.54" x2="1031.22" y2="913.55" class="up-wick"/>
<rect x="1029.36" y="905.54" width="3.73" height="4.03" class="up-body"/>
<line x1="1036.96" y1="904.76" x2="1036.96" y2="911.28" class="down-wick"/>
<rect x="1035.10" y="905.65" width="3.73" height="3.04" class="down-body"/>
<line x1="1042.70" y1="904.65" x2="1042.70" y2="911.78" class="up-wick"/>
<rect x="1040.83" y="905.87" width="3.73" height="2.82" class="up-body"/>
<line x1="1048.44" y1="903.99" x2="1048.44" y2="912.33" class="down-wick"/>
<rect x="1046.57" y="905.81" width="3.73" height="5.47" class="down-body"/>
<line x1="1054.18" y1="902.28" x2="1054.18" y2="912.72" class="up-wick"/>
<rect x="1052.31" y="904.16" width="3.73" height="7.13" class="up-body"/>
<line x1="1059.91" y1="896.64" x2="1059.91" y2="904.27" class="up-wick"/>
<rect x="1058.05" y="899.68" width="3.73" height="4.47" class="up-body"/>
<line x1="1065.65" y1="896.04" x2="1065.65" y2="907.64" class="down-wick"/>
<rect x="1063.79" y="899.68" width="3.73" height="6.57" class="down-body"/>
<line x1="1071.39" y1="906.20" x2="1071.39" y2="911.23" class="down-wick"/>
<rect x="1069.53" y="906.26" width="3.73" height="1.82" class="down-body"/>
<line x1="1077.13" y1="904.43" x2="1077.13" y2="910.73" class="down-wick"/>
<rect x="1075.27" y="908.08" width="3.73" height="1.71" class="down-body"/>
<text x="70" y="1056" class="axis-label">2026-05-19 17:00:00+00:00 to 2026-05-19 19:55:00+00:00</text>
<text x="1080" y="1056" text-anchor="end" class="axis-label">4482.06 - 4516.82</text>
</svg>