<svg xmlns="http://www.w3.org/2000/svg" width="1120" height="804" viewBox="0 0 1120 804">
<style>
text{font-family:Arial,Helvetica,sans-serif}.title{font-size:21px;font-weight:700;fill:#1f2937}.subtitle{font-size:12px;fill:#4b5563}.panel-title{font-size:15px;font-weight:700;fill:#111827}.muted{font-size:13px;fill:#6b7280}.plot-bg{fill:#f8fafc;stroke:#cbd5e1;stroke-width:1}.up-body{fill:#15803d;stroke:#14532d;stroke-width:.8}.down-body{fill:#b91c1c;stroke:#7f1d1d;stroke-width:.8}.up-wick{stroke:#14532d;stroke-width:1}.down-wick{stroke:#7f1d1d;stroke-width:1}.sweep-line{stroke:#7c3aed;stroke-width:1.6;stroke-dasharray:6 4}.number-line{stroke:#0f766e;stroke-width:1.4;stroke-dasharray:3 4}.entry-line{stroke:#2563eb;stroke-width:1.4}.sl-line{stroke:#dc2626;stroke-width:1.4}.tp-line{stroke:#16a34a;stroke-width:1.4}.level-label,.axis-label{font-size:11px;fill:#374151}
</style>
<text x="28" y="28" class="title">Adelin v2 visual review sample sample_040</text>
<text x="28" y="48" class="subtitle">Candidate windows are for visual labeling only and are not trade signals.</text>
<text x="560" y="48" class="subtitle" text-anchor="middle">ASIA_OPEN_CONTEXT</text>
<text x="70" y="82" class="panel-title">H1 liquidity context</text>
<rect x="70" y="96" width="1010" height="192" class="plot-bg"/>
<text x="82" y="138" class="muted">No candles available for this timeframe/window.</text>
<text x="70" y="332" class="panel-title">M15 liquidity / reaction context</text>
<rect x="70" y="346" width="1010" height="192" class="plot-bg"/>
<line x1="89.42" y1="359.24" x2="89.42" y2="385.87" class="down-wick"/>
<rect x="85.42" y="362.90" width="8.00" height="19.63" class="down-body"/>
<line x1="128.27" y1="373.17" x2="128.27" y2="406.04" class="down-wick"/>
<rect x="124.27" y="382.32" width="8.00" height="12.75" class="down-body"/>
<line x1="167.12" y1="393.72" x2="167.12" y2="411.31" class="up-wick"/>
<rect x="163.12" y="397.54" width="8.00" height="1.00" class="up-body"/>
<line x1="205.96" y1="386.08" x2="205.96" y2="398.56" class="up-wick"/>
<rect x="201.96" y="396.63" width="8.00" height="1.67" class="up-body"/>
<line x1="244.81" y1="386.41" x2="244.81" y2="402.60" class="down-wick"/>
<rect x="240.81" y="395.71" width="8.00" height="6.35" class="down-body"/>
<line x1="283.65" y1="399.42" x2="283.65" y2="410.72" class="down-wick"/>
<rect x="279.65" y="401.04" width="8.00" height="5.22" class="down-body"/>
<line x1="322.50" y1="403.30" x2="322.50" y2="480.33" class="down-wick"/>
<rect x="318.50" y="406.36" width="8.00" height="59.82" class="down-body"/>
<line x1="361.35" y1="433.26" x2="361.35" y2="475.92" class="up-wick"/>
<rect x="357.35" y="441.22" width="8.00" height="25.01" class="up-body"/>
<line x1="400.19" y1="440.63" x2="400.19" y2="474.68" class="down-wick"/>
<rect x="396.19" y="441.44" width="8.00" height="27.43" class="down-body"/>
<line x1="439.04" y1="454.83" x2="439.04" y2="519.38" class="down-wick"/>
<rect x="435.04" y="468.76" width="8.00" height="27.65" class="down-body"/>
<line x1="477.88" y1="447.14" x2="477.88" y2="495.50" class="up-wick"/>
<rect x="473.88" y="447.35" width="8.00" height="48.14" class="up-body"/>
<line x1="516.73" y1="432.88" x2="516.73" y2="454.72" class="down-wick"/>
<rect x="512.73" y="447.19" width="8.00" height="2.47" class="down-body"/>
<line x1="555.58" y1="438.05" x2="555.58" y2="479.47" class="down-wick"/>
<rect x="551.58" y="449.56" width="8.00" height="19.69" class="down-body"/>
<line x1="594.42" y1="468.92" x2="594.42" y2="492.16" class="down-wick"/>
<rect x="590.42" y="468.98" width="8.00" height="11.78" class="down-body"/>
<line x1="633.27" y1="464.19" x2="633.27" y2="486.67" class="up-wick"/>
<rect x="629.27" y="475.43" width="8.00" height="6.13" class="up-body"/>
<line x1="672.12" y1="469.84" x2="672.12" y2="504.16" class="down-wick"/>
<rect x="668.12" y="474.95" width="8.00" height="23.78" class="down-body"/>
<line x1="710.96" y1="497.27" x2="710.96" y2="513.19" class="down-wick"/>
<rect x="706.96" y="498.29" width="8.00" height="4.03" class="down-body"/>
<line x1="749.81" y1="489.15" x2="749.81" y2="504.80" class="up-wick"/>
<rect x="745.81" y="489.53" width="8.00" height="12.75" class="up-body"/>
<line x1="788.65" y1="489.58" x2="788.65" y2="509.97" class="down-wick"/>
<rect x="784.65" y="489.58" width="8.00" height="5.97" class="down-body"/>
<line x1="827.50" y1="475.86" x2="827.50" y2="497.76" class="up-wick"/>
<rect x="823.50" y="485.22" width="8.00" height="10.22" class="up-body"/>
<line x1="866.35" y1="482.10" x2="866.35" y2="495.71" class="up-wick"/>
<rect x="862.35" y="484.36" width="8.00" height="1.00" class="up-body"/>
<line x1="905.19" y1="484.85" x2="905.19" y2="497.32" class="down-wick"/>
<rect x="901.19" y="484.85" width="8.00" height="3.93" class="down-body"/>
<line x1="944.04" y1="478.87" x2="944.04" y2="493.77" class="down-wick"/>
<rect x="940.04" y="488.77" width="8.00" height="4.36" class="down-body"/>
<line x1="982.88" y1="488.40" x2="982.88" y2="501.90" class="up-wick"/>
<rect x="978.88" y="488.88" width="8.00" height="4.30" class="up-body"/>
<line x1="1021.73" y1="488.23" x2="1021.73" y2="505.88" class="down-wick"/>
<rect x="1017.73" y="488.93" width="8.00" height="16.51" class="down-body"/>
<line x1="1060.58" y1="504.64" x2="1060.58" y2="524.76" class="down-wick"/>
<rect x="1056.58" y="505.50" width="8.00" height="5.92" class="down-body"/>
<text x="70" y="556" class="axis-label">2024-12-02 01:00:00+00:00 to 2024-12-02 07:15:00+00:00</text>
<text x="1080" y="556" text-anchor="end" class="axis-label">2619.46 - 2655.15</text>
<text x="70" y="582" class="panel-title">M1 execution window</text>
<rect x="70" y="596" width="1010" height="192" class="plot-bg"/>
<text x="82" y="638" class="muted">No candles available for this timeframe/window.</text>
</svg>