<svg xmlns="http://www.w3.org/2000/svg" width="1120" height="804" viewBox="0 0 1120 804">
<style>
text{font-family:Arial,Helvetica,sans-serif}.title{font-size:21px;font-weight:700;fill:#1f2937}.subtitle{font-size:12px;fill:#4b5563}.panel-title{font-size:15px;font-weight:700;fill:#111827}.muted{font-size:13px;fill:#6b7280}.plot-bg{fill:#f8fafc;stroke:#cbd5e1;stroke-width:1}.up-body{fill:#15803d;stroke:#14532d;stroke-width:.8}.down-body{fill:#b91c1c;stroke:#7f1d1d;stroke-width:.8}.up-wick{stroke:#14532d;stroke-width:1}.down-wick{stroke:#7f1d1d;stroke-width:1}.sweep-line{stroke:#7c3aed;stroke-width:1.6;stroke-dasharray:6 4}.number-line{stroke:#0f766e;stroke-width:1.4;stroke-dasharray:3 4}.entry-line{stroke:#2563eb;stroke-width:1.4}.sl-line{stroke:#dc2626;stroke-width:1.4}.tp-line{stroke:#16a34a;stroke-width:1.4}.level-label,.axis-label{font-size:11px;fill:#374151}
</style>
<text x="28" y="28" class="title">Adelin v2 visual review sample sample_022</text>
<text x="28" y="48" class="subtitle">Candidate windows are for visual labeling only and are not trade signals.</text>
<text x="560" y="48" class="subtitle" text-anchor="middle">NEW_YORK_OPEN_CONTEXT</text>
<text x="70" y="82" class="panel-title">H1 liquidity context</text>
<rect x="70" y="96" width="1010" height="192" class="plot-bg"/>
<text x="82" y="138" class="muted">No candles available for this timeframe/window.</text>
<text x="70" y="332" class="panel-title">M15 liquidity / reaction context</text>
<rect x="70" y="346" width="1010" height="192" class="plot-bg"/>
<line x1="76.92" y1="372.52" x2="76.92" y2="382.54" class="up-wick"/>
<rect x="72.92" y="373.84" width="8.00" height="7.71" class="up-body"/>
<line x1="90.75" y1="373.01" x2="90.75" y2="383.64" class="down-wick"/>
<rect x="86.75" y="373.95" width="8.00" height="8.65" class="down-body"/>
<line x1="104.59" y1="374.99" x2="104.59" y2="384.91" class="up-wick"/>
<rect x="100.59" y="375.77" width="8.00" height="6.83" class="up-body"/>
<line x1="118.42" y1="371.80" x2="118.42" y2="377.97" class="down-wick"/>
<rect x="114.42" y="375.71" width="8.00" height="1.27" class="down-body"/>
<line x1="132.26" y1="376.92" x2="132.26" y2="386.51" class="down-wick"/>
<rect x="128.26" y="376.98" width="8.00" height="7.38" class="down-body"/>
<line x1="146.10" y1="380.17" x2="146.10" y2="385.07" class="up-wick"/>
<rect x="142.10" y="382.32" width="8.00" height="1.98" class="up-body"/>
<line x1="159.93" y1="374.99" x2="159.93" y2="382.27" class="up-wick"/>
<rect x="155.93" y="379.68" width="8.00" height="2.59" class="up-body"/>
<line x1="173.77" y1="370.64" x2="173.77" y2="386.45" class="up-wick"/>
<rect x="169.77" y="370.64" width="8.00" height="9.09" class="up-body"/>
<line x1="187.60" y1="359.24" x2="187.60" y2="379.84" class="down-wick"/>
<rect x="183.60" y="370.81" width="8.00" height="7.22" class="down-body"/>
<line x1="201.44" y1="375.44" x2="201.44" y2="387.72" class="down-wick"/>
<rect x="197.44" y="378.02" width="8.00" height="6.55" class="down-body"/>
<line x1="215.27" y1="383.15" x2="215.27" y2="391.79" class="down-wick"/>
<rect x="211.27" y="384.52" width="8.00" height="3.86" class="down-body"/>
<line x1="229.11" y1="376.76" x2="229.11" y2="396.70" class="up-wick"/>
<rect x="225.11" y="378.24" width="8.00" height="10.47" class="up-body"/>
<line x1="242.95" y1="375.44" x2="242.95" y2="386.07" class="down-wick"/>
<rect x="238.95" y="378.30" width="8.00" height="6.22" class="down-body"/>
<line x1="256.78" y1="378.35" x2="256.78" y2="430.24" class="down-wick"/>
<rect x="252.78" y="384.41" width="8.00" height="25.28" class="down-body"/>
<line x1="270.62" y1="407.82" x2="270.62" y2="431.23" class="down-wick"/>
<rect x="266.62" y="409.70" width="8.00" height="9.03" class="down-body"/>
<line x1="284.45" y1="403.58" x2="284.45" y2="421.15" class="up-wick"/>
<rect x="280.45" y="405.29" width="8.00" height="13.60" class="up-body"/>
<line x1="298.29" y1="371.74" x2="298.29" y2="405.29" class="up-wick"/>
<rect x="294.29" y="371.97" width="8.00" height="33.32" class="up-body"/>
<line x1="312.12" y1="370.26" x2="312.12" y2="383.37" class="down-wick"/>
<rect x="308.12" y="374.17" width="8.00" height="3.19" class="down-body"/>
<line x1="325.96" y1="372.57" x2="325.96" y2="385.74" class="down-wick"/>
<rect x="321.96" y="377.58" width="8.00" height="5.01" class="down-body"/>
<line x1="339.79" y1="378.85" x2="339.79" y2="392.23" class="up-wick"/>
<rect x="335.79" y="379.73" width="8.00" height="2.92" class="up-body"/>
<line x1="353.63" y1="375.82" x2="353.63" y2="383.59" class="up-wick"/>
<rect x="349.63" y="376.76" width="8.00" height="2.75" class="up-body"/>
<line x1="367.47" y1="373.78" x2="367.47" y2="388.60" class="down-wick"/>
<rect x="363.47" y="376.65" width="8.00" height="10.02" class="down-body"/>
<line x1="381.30" y1="386.84" x2="381.30" y2="397.96" class="down-wick"/>
<rect x="377.30" y="386.84" width="8.00" height="8.26" class="down-body"/>
<line x1="395.14" y1="392.57" x2="395.14" y2="398.90" class="down-wick"/>
<rect x="391.14" y="394.77" width="8.00" height="2.92" class="down-body"/>
<line x1="408.97" y1="392.79" x2="408.97" y2="400.28" class="up-wick"/>
<rect x="404.97" y="393.89" width="8.00" height="3.86" class="up-body"/>
<line x1="422.81" y1="393.23" x2="422.81" y2="406.17" class="down-wick"/>
<rect x="418.81" y="393.89" width="8.00" height="5.12" class="down-body"/>
<line x1="436.64" y1="395.65" x2="436.64" y2="400.44" class="up-wick"/>
<rect x="432.64" y="397.25" width="8.00" height="1.60" class="up-body"/>
<line x1="450.48" y1="393.06" x2="450.48" y2="399.45" class="up-wick"/>
<rect x="446.48" y="395.32" width="8.00" height="1.93" class="up-body"/>
<line x1="464.32" y1="394.05" x2="464.32" y2="400.72" class="down-wick"/>
<rect x="460.32" y="395.48" width="8.00" height="4.19" class="down-body"/>
<line x1="478.15" y1="389.65" x2="478.15" y2="414.98" class="down-wick"/>
<rect x="474.15" y="399.95" width="8.00" height="11.84" class="down-body"/>
<line x1="491.99" y1="409.70" x2="491.99" y2="424.57" class="down-wick"/>
<rect x="487.99" y="411.84" width="8.00" height="11.46" class="down-body"/>
<line x1="505.82" y1="420.77" x2="505.82" y2="436.24" class="down-wick"/>
<rect x="501.82" y="423.52" width="8.00" height="4.24" class="down-body"/>
<line x1="519.66" y1="421.32" x2="519.66" y2="435.75" class="up-wick"/>
<rect x="515.66" y="421.37" width="8.00" height="6.66" class="up-body"/>
<line x1="533.49" y1="397.52" x2="533.49" y2="423.36" class="up-wick"/>
<rect x="529.49" y="405.62" width="8.00" height="15.75" class="up-body"/>
<line x1="547.33" y1="394.38" x2="547.33" y2="407.05" class="up-wick"/>
<rect x="543.33" y="395.26" width="8.00" height="10.63" class="up-body"/>
<line x1="561.16" y1="394.16" x2="561.16" y2="413.28" class="down-wick"/>
<rect x="557.16" y="395.37" width="8.00" height="16.14" class="down-body"/>
<line x1="575.00" y1="398.68" x2="575.00" y2="417.79" class="up-wick"/>
<rect x="571.00" y="406.83" width="8.00" height="4.74" class="up-body"/>
<line x1="588.84" y1="401.32" x2="588.84" y2="413.11" class="down-wick"/>
<rect x="584.84" y="407.00" width="8.00" height="1.98" class="down-body"/>
<line x1="602.67" y1="401.10" x2="602.67" y2="418.29" class="up-wick"/>
<rect x="598.67" y="401.27" width="8.00" height="8.10" class="up-body"/>
<line x1="616.51" y1="400.61" x2="616.51" y2="417.19" class="down-wick"/>
<rect x="612.51" y="401.21" width="8.00" height="14.10" class="down-body"/>
<line x1="630.34" y1="394.88" x2="630.34" y2="418.51" class="up-wick"/>
<rect x="626.34" y="395.26" width="8.00" height="20.10" class="up-body"/>
<line x1="644.18" y1="390.47" x2="644.18" y2="403.31" class="down-wick"/>
<rect x="640.18" y="395.15" width="8.00" height="5.07" class="down-body"/>
<line x1="658.01" y1="391.74" x2="658.01" y2="404.19" class="down-wick"/>
<rect x="654.01" y="400.22" width="8.00" height="3.19" class="down-body"/>
<line x1="671.85" y1="395.04" x2="671.85" y2="403.20" class="up-wick"/>
<rect x="667.85" y="399.23" width="8.00" height="3.97" class="up-body"/>
<line x1="685.68" y1="391.74" x2="685.68" y2="399.78" class="up-wick"/>
<rect x="681.68" y="394.44" width="8.00" height="4.85" class="up-body"/>
<line x1="699.52" y1="388.49" x2="699.52" y2="400.94" class="up-wick"/>
<rect x="695.52" y="393.34" width="8.00" height="1.71" class="up-body"/>
<line x1="713.36" y1="391.41" x2="713.36" y2="400.83" class="down-wick"/>
<rect x="709.36" y="393.45" width="8.00" height="6.50" class="down-body"/>
<line x1="727.19" y1="399.28" x2="727.19" y2="415.59" class="down-wick"/>
<rect x="723.19" y="399.89" width="8.00" height="15.37" class="down-body"/>
<line x1="741.03" y1="412.50" x2="741.03" y2="447.09" class="down-wick"/>
<rect x="737.03" y="415.37" width="8.00" height="28.31" class="down-body"/>
<line x1="754.86" y1="428.86" x2="754.86" y2="445.17" class="up-wick"/>
<rect x="750.86" y="431.07" width="8.00" height="12.67" class="up-body"/>
<line x1="768.70" y1="431.12" x2="768.70" y2="445.88" class="down-wick"/>
<rect x="764.70" y="431.12" width="8.00" height="12.94" class="down-body"/>
<line x1="782.53" y1="442.03" x2="782.53" y2="457.73" class="down-wick"/>
<rect x="778.53" y="444.01" width="8.00" height="3.08" class="down-body"/>
<line x1="796.37" y1="447.15" x2="796.37" y2="465.33" class="down-wick"/>
<rect x="792.37" y="447.15" width="8.00" height="17.74" class="down-body"/>
<line x1="810.21" y1="426.72" x2="810.21" y2="464.61" class="up-wick"/>
<rect x="806.21" y="427.32" width="8.00" height="37.29" class="up-body"/>
<line x1="824.04" y1="412.72" x2="824.04" y2="430.30" class="up-wick"/>
<rect x="820.04" y="418.01" width="8.00" height="9.31" class="up-body"/>
<line x1="837.88" y1="401.05" x2="837.88" y2="418.89" class="up-wick"/>
<rect x="833.88" y="403.80" width="8.00" height="14.21" class="up-body"/>
<line x1="851.71" y1="395.59" x2="851.71" y2="410.36" class="down-wick"/>
<rect x="847.71" y="403.80" width="8.00" height="1.00" class="down-body"/>
<line x1="865.55" y1="391.79" x2="865.55" y2="413.06" class="down-wick"/>
<rect x="861.55" y="404.41" width="8.00" height="2.48" class="down-body"/>
<line x1="879.38" y1="403.64" x2="879.38" y2="434.10" class="down-wick"/>
<rect x="875.38" y="406.94" width="8.00" height="27.15" class="down-body"/>
<line x1="893.22" y1="426.00" x2="893.22" y2="474.58" class="down-wick"/>
<rect x="889.22" y="434.48" width="8.00" height="31.23" class="down-body"/>
<line x1="907.05" y1="465.93" x2="907.05" y2="507.90" class="down-wick"/>
<rect x="903.05" y="465.93" width="8.00" height="41.64" class="down-body"/>
<line x1="920.89" y1="489.84" x2="920.89" y2="518.53" class="down-wick"/>
<rect x="916.89" y="507.68" width="8.00" height="8.76" class="down-body"/>
<line x1="934.73" y1="497.33" x2="934.73" y2="524.76" class="up-wick"/>
<rect x="930.73" y="510.49" width="8.00" height="5.95" class="up-body"/>
<line x1="948.56" y1="482.51" x2="948.56" y2="515.23" class="up-wick"/>
<rect x="944.56" y="497.82" width="8.00" height="17.41" class="up-body"/>
<line x1="962.40" y1="487.58" x2="962.40" y2="513.14" class="down-wick"/>
<rect x="958.40" y="496.61" width="8.00" height="5.40" class="down-body"/>
<line x1="976.23" y1="492.04" x2="976.23" y2="515.01" class="down-wick"/>
<rect x="972.23" y="501.90" width="8.00" height="7.22" class="down-body"/>
<line x1="990.07" y1="489.51" x2="990.07" y2="509.94" class="up-wick"/>
<rect x="986.07" y="504.05" width="8.00" height="4.74" class="up-body"/>
<line x1="1003.90" y1="475.41" x2="1003.90" y2="512.09" class="up-wick"/>
<rect x="999.90" y="480.69" width="8.00" height="22.86" class="up-body"/>
<line x1="1017.74" y1="467.70" x2="1017.74" y2="484.94" class="down-wick"/>
<rect x="1013.74" y="480.69" width="8.00" height="4.02" class="down-body"/>
<line x1="1031.58" y1="473.92" x2="1031.58" y2="496.06" class="down-wick"/>
<rect x="1027.58" y="484.16" width="8.00" height="8.92" class="down-body"/>
<line x1="1045.41" y1="484.99" x2="1045.41" y2="499.42" class="up-wick"/>
<rect x="1041.41" y="489.67" width="8.00" height="3.41" class="up-body"/>
<line x1="1059.25" y1="477.66" x2="1059.25" y2="490.94" class="down-wick"/>
<rect x="1055.25" y="489.73" width="8.00" height="1.00" class="down-body"/>
<line x1="1073.08" y1="477.83" x2="1073.08" y2="490.77" class="up-wick"/>
<rect x="1069.08" y="482.73" width="8.00" height="7.00" class="up-body"/>
<text x="70" y="556" class="axis-label">2024-06-26 01:15:00+00:00 to 2024-06-26 19:15:00+00:00</text>
<text x="1080" y="556" text-anchor="end" class="axis-label">2291.27 - 2326.12</text>
<text x="70" y="582" class="panel-title">M1 execution window</text>
<rect x="70" y="596" width="1010" height="192" class="plot-bg"/>
<text x="82" y="638" class="muted">No candles available for this timeframe/window.</text>
</svg>