<svg xmlns="http://www.w3.org/2000/svg" width="1120" height="1054" viewBox="0 0 1120 1054">
<style>
text{font-family:Arial,Helvetica,sans-serif}.title{font-size:21px;font-weight:700;fill:#1f2937}.subtitle{font-size:12px;fill:#4b5563}.panel-title{font-size:15px;font-weight:700;fill:#111827}.muted{font-size:13px;fill:#6b7280}.plot-bg{fill:#f8fafc;stroke:#cbd5e1;stroke-width:1}.up-body{fill:#15803d;stroke:#14532d;stroke-width:.8}.down-body{fill:#b91c1c;stroke:#7f1d1d;stroke-width:.8}.up-wick{stroke:#14532d;stroke-width:1}.down-wick{stroke:#7f1d1d;stroke-width:1}.sweep-line{stroke:#7c3aed;stroke-width:1.6;stroke-dasharray:6 4}.number-line{stroke:#0f766e;stroke-width:1.4;stroke-dasharray:3 4}.entry-line{stroke:#2563eb;stroke-width:1.4}.sl-line{stroke:#dc2626;stroke-width:1.4}.tp-line{stroke:#16a34a;stroke-width:1.4}.level-label,.axis-label{font-size:11px;fill:#374151}
</style>
<text x="28" y="28" class="title">Adelin v2 visual review sample sample_009</text>
<text x="28" y="48" class="subtitle">Candidate windows are for visual labeling only and are not trade signals.</text>
<text x="560" y="48" class="subtitle" text-anchor="middle">NUMBER_THEORY_LEVEL_NEAR</text>
<text x="70" y="82" class="panel-title">H1 liquidity context</text>
<rect x="70" y="96" width="1010" height="192" class="plot-bg"/>
<line x1="82.62" y1="154.89" x2="82.62" y2="222.88" class="up-wick"/>
<rect x="78.62" y="166.45" width="8.00" height="9.77" class="up-body"/>
<line x1="107.88" y1="163.92" x2="107.88" y2="185.49" class="down-wick"/>
<rect x="103.88" y="166.45" width="8.00" height="12.03" class="down-body"/>
<line x1="133.12" y1="171.28" x2="133.12" y2="254.00" class="down-wick"/>
<rect x="129.12" y="178.45" width="8.00" height="28.12" class="down-body"/>
<line x1="158.38" y1="180.29" x2="158.38" y2="241.67" class="up-wick"/>
<rect x="154.38" y="193.99" width="8.00" height="13.26" class="up-body"/>
<line x1="183.62" y1="170.86" x2="183.62" y2="198.66" class="up-wick"/>
<rect x="179.62" y="183.02" width="8.00" height="10.98" class="up-body"/>
<line x1="208.88" y1="164.12" x2="208.88" y2="194.33" class="up-wick"/>
<rect x="204.88" y="173.08" width="8.00" height="9.94" class="up-body"/>
<line x1="234.12" y1="161.61" x2="234.12" y2="187.95" class="down-wick"/>
<rect x="230.12" y="173.09" width="8.00" height="1.00" class="down-body"/>
<line x1="259.38" y1="158.63" x2="259.38" y2="188.08" class="down-wick"/>
<rect x="255.38" y="173.74" width="8.00" height="12.97" class="down-body"/>
<line x1="284.62" y1="163.83" x2="284.62" y2="188.39" class="up-wick"/>
<rect x="280.62" y="165.61" width="8.00" height="21.10" class="up-body"/>
<line x1="309.88" y1="148.20" x2="309.88" y2="176.97" class="down-wick"/>
<rect x="305.88" y="165.61" width="8.00" height="1.00" class="down-body"/>
<line x1="335.12" y1="152.10" x2="335.12" y2="171.10" class="up-wick"/>
<rect x="331.12" y="161.38" width="8.00" height="4.96" class="up-body"/>
<line x1="360.38" y1="158.75" x2="360.38" y2="174.55" class="down-wick"/>
<rect x="356.38" y="161.38" width="8.00" height="9.34" class="down-body"/>
<line x1="385.62" y1="164.31" x2="385.62" y2="185.38" class="down-wick"/>
<rect x="381.62" y="170.73" width="8.00" height="3.61" class="down-body"/>
<line x1="410.88" y1="138.53" x2="410.88" y2="188.16" class="up-wick"/>
<rect x="406.88" y="160.53" width="8.00" height="13.81" class="up-body"/>
<line x1="436.12" y1="128.23" x2="436.12" y2="167.63" class="up-wick"/>
<rect x="432.12" y="133.19" width="8.00" height="27.36" class="up-body"/>
<line x1="461.38" y1="115.85" x2="461.38" y2="145.64" class="up-wick"/>
<rect x="457.38" y="126.95" width="8.00" height="6.25" class="up-body"/>
<line x1="486.62" y1="126.95" x2="486.62" y2="177.53" class="down-wick"/>
<rect x="482.62" y="126.95" width="8.00" height="39.08" class="down-body"/>
<line x1="511.88" y1="164.09" x2="511.88" y2="185.46" class="down-wick"/>
<rect x="507.88" y="166.05" width="8.00" height="3.85" class="down-body"/>
<line x1="537.12" y1="155.48" x2="537.12" y2="182.70" class="up-wick"/>
<rect x="533.12" y="161.11" width="8.00" height="8.80" class="up-body"/>
<line x1="562.38" y1="150.33" x2="562.38" y2="167.27" class="down-wick"/>
<rect x="558.38" y="161.11" width="8.00" height="4.27" class="down-body"/>
<line x1="587.62" y1="164.29" x2="587.62" y2="182.54" class="down-wick"/>
<rect x="583.62" y="165.37" width="8.00" height="14.71" class="down-body"/>
<line x1="612.88" y1="141.40" x2="612.88" y2="180.84" class="up-wick"/>
<rect x="608.88" y="150.18" width="8.00" height="29.90" class="up-body"/>
<line x1="638.12" y1="123.75" x2="638.12" y2="140.26" class="up-wick"/>
<rect x="634.12" y="129.64" width="8.00" height="9.95" class="up-body"/>
<line x1="663.38" y1="109.56" x2="663.38" y2="129.89" class="up-wick"/>
<rect x="659.38" y="119.14" width="8.00" height="10.52" class="up-body"/>
<line x1="688.62" y1="109.24" x2="688.62" y2="146.37" class="down-wick"/>
<rect x="684.62" y="119.14" width="8.00" height="24.42" class="down-body"/>
<line x1="713.88" y1="131.51" x2="713.88" y2="155.88" class="up-wick"/>
<rect x="709.88" y="143.01" width="8.00" height="1.00" class="up-body"/>
<line x1="739.12" y1="143.01" x2="739.12" y2="166.71" class="down-wick"/>
<rect x="735.12" y="143.01" width="8.00" height="22.11" class="down-body"/>
<line x1="764.38" y1="154.58" x2="764.38" y2="169.90" class="down-wick"/>
<rect x="760.38" y="165.12" width="8.00" height="2.79" class="down-body"/>
<line x1="789.62" y1="167.10" x2="789.62" y2="177.26" class="down-wick"/>
<rect x="785.62" y="167.91" width="8.00" height="3.53" class="down-body"/>
<line x1="814.88" y1="165.89" x2="814.88" y2="186.78" class="down-wick"/>
<rect x="810.88" y="171.42" width="8.00" height="2.05" class="down-body"/>
<line x1="840.12" y1="156.16" x2="840.12" y2="183.36" class="up-wick"/>
<rect x="836.12" y="163.82" width="8.00" height="9.65" class="up-body"/>
<line x1="865.38" y1="149.05" x2="865.38" y2="172.80" class="up-wick"/>
<rect x="861.38" y="151.79" width="8.00" height="12.03" class="up-body"/>
<line x1="890.62" y1="149.23" x2="890.62" y2="179.46" class="down-wick"/>
<rect x="886.62" y="151.79" width="8.00" height="19.17" class="down-body"/>
<line x1="915.88" y1="165.62" x2="915.88" y2="179.84" class="down-wick"/>
<rect x="911.88" y="170.98" width="8.00" height="1.24" class="down-body"/>
<line x1="941.12" y1="168.43" x2="941.12" y2="193.98" class="up-wick"/>
<rect x="937.12" y="168.43" width="8.00" height="3.79" class="up-body"/>
<line x1="966.38" y1="164.04" x2="966.38" y2="188.16" class="down-wick"/>
<rect x="962.38" y="168.43" width="8.00" height="18.58" class="down-body"/>
<line x1="991.62" y1="165.16" x2="991.62" y2="191.42" class="up-wick"/>
<rect x="987.62" y="178.50" width="8.00" height="8.50" class="up-body"/>
<line x1="1016.88" y1="178.09" x2="1016.88" y2="274.76" class="down-wick"/>
<rect x="1012.88" y="178.50" width="8.00" height="44.26" class="down-body"/>
<line x1="1042.12" y1="208.66" x2="1042.12" y2="248.47" class="down-wick"/>
<rect x="1038.12" y="222.76" width="8.00" height="12.89" class="down-body"/>
<line x1="1067.38" y1="215.56" x2="1067.38" y2="241.37" class="up-wick"/>
<rect x="1063.38" y="216.61" width="8.00" height="19.04" class="up-body"/>
<line x1="70" y1="174.67" x2="1080" y2="174.67" class="number-line"/>
<text x="1076" y="170.67" text-anchor="end" class="level-label">round 4540.00</text>
<text x="70" y="306" class="axis-label">2026-05-18 01:00:00+00:00 to 2026-05-19 18:00:00+00:00</text>
<text x="1080" y="306" text-anchor="end" class="axis-label">4454.72 - 4599.20</text>
<text x="70" y="332" class="panel-title">M15 liquidity / reaction context</text>
<rect x="70" y="346" width="1010" height="192" class="plot-bg"/>
<line x1="77.32" y1="380.45" x2="77.32" y2="390.26" class="up-wick"/>
<rect x="73.32" y="380.45" width="8.00" height="9.14" class="up-body"/>
<line x1="91.96" y1="378.77" x2="91.96" y2="383.35" class="down-wick"/>
<rect x="87.96" y="380.45" width="8.00" height="1.00" class="down-body"/>
<line x1="106.59" y1="373.75" x2="106.59" y2="382.69" class="up-wick"/>
<rect x="102.59" y="376.09" width="8.00" height="5.00" class="up-body"/>
<line x1="121.23" y1="375.67" x2="121.23" y2="381.47" class="down-wick"/>
<rect x="117.23" y="376.09" width="8.00" height="3.55" class="down-body"/>
<line x1="135.87" y1="362.64" x2="135.87" y2="379.89" class="up-wick"/>
<rect x="131.87" y="364.16" width="8.00" height="15.51" class="up-body"/>
<line x1="150.51" y1="359.56" x2="150.51" y2="367.11" class="up-wick"/>
<rect x="146.51" y="364.04" width="8.00" height="1.00" class="up-body"/>
<line x1="165.14" y1="360.85" x2="165.14" y2="367.88" class="down-wick"/>
<rect x="161.14" y="364.04" width="8.00" height="1.00" class="down-body"/>
<line x1="179.78" y1="362.64" x2="179.78" y2="372.56" class="down-wick"/>
<rect x="175.78" y="364.36" width="8.00" height="4.78" class="down-body"/>
<line x1="194.42" y1="359.24" x2="194.42" y2="375.75" class="down-wick"/>
<rect x="190.42" y="369.14" width="8.00" height="3.87" class="down-body"/>
<line x1="209.06" y1="363.92" x2="209.06" y2="386.34" class="down-wick"/>
<rect x="205.06" y="373.01" width="8.00" height="6.99" class="down-body"/>
<line x1="223.70" y1="376.74" x2="223.70" y2="387.17" class="down-wick"/>
<rect x="219.70" y="379.80" width="8.00" height="3.88" class="down-body"/>
<line x1="238.33" y1="381.37" x2="238.33" y2="396.37" class="down-wick"/>
<rect x="234.33" y="383.68" width="8.00" height="9.89" class="down-body"/>
<line x1="252.97" y1="385.76" x2="252.97" y2="401.36" class="up-wick"/>
<rect x="248.97" y="390.46" width="8.00" height="3.20" class="up-body"/>
<line x1="267.61" y1="386.71" x2="267.61" y2="405.88" class="down-wick"/>
<rect x="263.61" y="390.46" width="8.00" height="8.74" class="down-body"/>
<line x1="282.25" y1="381.51" x2="282.25" y2="404.41" class="up-wick"/>
<rect x="278.25" y="383.80" width="8.00" height="15.40" class="up-body"/>
<line x1="296.88" y1="382.39" x2="296.88" y2="396.17" class="down-wick"/>
<rect x="292.88" y="383.80" width="8.00" height="9.21" class="down-body"/>
<line x1="311.52" y1="393.01" x2="311.52" y2="407.49" class="down-wick"/>
<rect x="307.52" y="393.01" width="8.00" height="12.38" class="down-body"/>
<line x1="326.16" y1="395.13" x2="326.16" y2="409.38" class="up-wick"/>
<rect x="322.16" y="398.47" width="8.00" height="6.92" class="up-body"/>
<line x1="340.80" y1="398.35" x2="340.80" y2="410.16" class="down-wick"/>
<rect x="336.80" y="398.49" width="8.00" height="4.62" class="down-body"/>
<line x1="355.43" y1="400.82" x2="355.43" y2="416.71" class="down-wick"/>
<rect x="351.43" y="403.12" width="8.00" height="12.00" class="down-body"/>
<line x1="370.07" y1="407.77" x2="370.07" y2="419.90" class="up-wick"/>
<rect x="366.07" y="408.97" width="8.00" height="6.15" class="up-body"/>
<line x1="384.71" y1="407.37" x2="384.71" y2="415.65" class="down-wick"/>
<rect x="380.71" y="408.97" width="8.00" height="3.49" class="down-body"/>
<line x1="399.35" y1="404.58" x2="399.35" y2="415.34" class="down-wick"/>
<rect x="395.35" y="412.46" width="8.00" height="1.82" class="down-body"/>
<line x1="413.99" y1="412.14" x2="413.99" y2="419.01" class="down-wick"/>
<rect x="409.99" y="414.39" width="8.00" height="3.52" class="down-body"/>
<line x1="428.62" y1="417.10" x2="428.62" y2="426.37" class="down-wick"/>
<rect x="424.62" y="417.91" width="8.00" height="6.47" class="down-body"/>
<line x1="443.26" y1="420.49" x2="443.26" y2="427.00" class="up-wick"/>
<rect x="439.26" y="424.25" width="8.00" height="1.00" class="up-body"/>
<line x1="457.90" y1="421.75" x2="457.90" y2="427.26" class="down-wick"/>
<rect x="453.90" y="424.25" width="8.00" height="1.00" class="down-body"/>
<line x1="472.54" y1="419.68" x2="472.54" y2="424.99" class="up-wick"/>
<rect x="468.54" y="421.44" width="8.00" height="3.52" class="up-body"/>
<line x1="487.17" y1="415.89" x2="487.17" y2="424.42" class="up-wick"/>
<rect x="483.17" y="418.21" width="8.00" height="3.20" class="up-body"/>
<line x1="501.81" y1="417.54" x2="501.81" y2="436.78" class="down-wick"/>
<rect x="497.81" y="418.25" width="8.00" height="8.36" class="down-body"/>
<line x1="516.45" y1="419.12" x2="516.45" y2="434.01" class="down-wick"/>
<rect x="512.45" y="426.61" width="8.00" height="1.00" class="down-body"/>
<line x1="531.09" y1="420.06" x2="531.09" y2="433.81" class="up-wick"/>
<rect x="527.09" y="423.46" width="8.00" height="3.20" class="up-body"/>
<line x1="545.72" y1="416.86" x2="545.72" y2="433.36" class="up-wick"/>
<rect x="541.72" y="421.95" width="8.00" height="1.51" class="up-body"/>
<line x1="560.36" y1="406.16" x2="560.36" y2="423.40" class="up-wick"/>
<rect x="556.36" y="414.43" width="8.00" height="7.52" class="up-body"/>
<line x1="575.00" y1="407.61" x2="575.00" y2="418.19" class="up-wick"/>
<rect x="571.00" y="408.47" width="8.00" height="5.95" class="up-body"/>
<line x1="589.64" y1="407.82" x2="589.64" y2="420.51" class="down-wick"/>
<rect x="585.64" y="408.53" width="8.00" height="5.29" class="down-body"/>
<line x1="604.28" y1="404.35" x2="604.28" y2="419.08" class="up-wick"/>
<rect x="600.28" y="413.14" width="8.00" height="1.00" class="up-body"/>
<line x1="618.91" y1="411.26" x2="618.91" y2="420.54" class="down-wick"/>
<rect x="614.91" y="413.14" width="8.00" height="1.00" class="down-body"/>
<line x1="633.55" y1="412.34" x2="633.55" y2="422.80" class="down-wick"/>
<rect x="629.55" y="413.66" width="8.00" height="8.19" class="down-body"/>
<line x1="648.19" y1="399.05" x2="648.19" y2="422.05" class="up-wick"/>
<rect x="644.19" y="401.79" width="8.00" height="20.05" class="up-body"/>
<line x1="662.83" y1="399.23" x2="662.83" y2="421.20" class="down-wick"/>
<rect x="658.83" y="401.79" width="8.00" height="14.42" class="down-body"/>
<line x1="677.46" y1="413.95" x2="677.46" y2="429.46" class="down-wick"/>
<rect x="673.46" y="416.21" width="8.00" height="10.68" class="down-body"/>
<line x1="692.10" y1="418.07" x2="692.10" y2="428.75" class="up-wick"/>
<rect x="688.10" y="420.31" width="8.00" height="6.56" class="up-body"/>
<line x1="706.74" y1="413.19" x2="706.74" y2="427.14" class="down-wick"/>
<rect x="702.74" y="420.31" width="8.00" height="1.00" class="down-body"/>
<line x1="721.38" y1="420.98" x2="721.38" y2="428.79" class="down-wick"/>
<rect x="717.38" y="420.98" width="8.00" height="4.24" class="down-body"/>
<line x1="736.01" y1="415.62" x2="736.01" y2="429.84" class="up-wick"/>
<rect x="732.01" y="423.72" width="8.00" height="1.50" class="up-body"/>
<line x1="750.65" y1="420.50" x2="750.65" y2="429.04" class="down-wick"/>
<rect x="746.65" y="423.72" width="8.00" height="1.74" class="down-body"/>
<line x1="765.29" y1="418.39" x2="765.29" y2="426.86" class="up-wick"/>
<rect x="761.29" y="422.21" width="8.00" height="3.24" class="up-body"/>
<line x1="779.93" y1="421.66" x2="779.93" y2="429.97" class="down-wick"/>
<rect x="775.93" y="422.21" width="8.00" height="1.00" class="down-body"/>
<line x1="794.57" y1="422.16" x2="794.57" y2="426.81" class="down-wick"/>
<rect x="790.57" y="422.72" width="8.00" height="1.91" class="down-body"/>
<line x1="809.20" y1="420.82" x2="809.20" y2="443.98" class="down-wick"/>
<rect x="805.20" y="424.63" width="8.00" height="14.27" class="down-body"/>
<line x1="823.84" y1="418.43" x2="823.84" y2="440.99" class="up-wick"/>
<rect x="819.84" y="418.43" width="8.00" height="20.48" class="up-body"/>
<line x1="838.48" y1="414.04" x2="838.48" y2="430.05" class="down-wick"/>
<rect x="834.48" y="418.43" width="8.00" height="10.58" class="down-body"/>
<line x1="853.12" y1="421.76" x2="853.12" y2="430.28" class="up-wick"/>
<rect x="849.12" y="425.59" width="8.00" height="3.42" class="up-body"/>
<line x1="867.75" y1="420.49" x2="867.75" y2="428.83" class="up-wick"/>
<rect x="863.75" y="422.16" width="8.00" height="3.43" class="up-body"/>
<line x1="882.39" y1="421.64" x2="882.39" y2="438.16" class="down-wick"/>
<rect x="878.39" y="422.16" width="8.00" height="14.84" class="down-body"/>
<line x1="897.03" y1="415.80" x2="897.03" y2="441.42" class="up-wick"/>
<rect x="893.03" y="421.67" width="8.00" height="15.33" class="up-body"/>
<line x1="911.67" y1="418.95" x2="911.67" y2="429.04" class="up-wick"/>
<rect x="907.67" y="420.11" width="8.00" height="1.57" class="up-body"/>
<line x1="926.30" y1="415.16" x2="926.30" y2="428.96" class="down-wick"/>
<rect x="922.30" y="420.11" width="8.00" height="7.88" class="down-body"/>
<line x1="940.94" y1="422.51" x2="940.94" y2="430.47" class="down-wick"/>
<rect x="936.94" y="427.99" width="8.00" height="1.00" class="down-body"/>
<line x1="955.58" y1="428.09" x2="955.58" y2="458.11" class="down-wick"/>
<rect x="951.58" y="428.50" width="8.00" height="16.78" class="down-body"/>
<line x1="970.22" y1="442.96" x2="970.22" y2="489.86" class="down-wick"/>
<rect x="966.22" y="445.28" width="8.00" height="43.05" class="down-body"/>
<line x1="984.86" y1="483.68" x2="984.86" y2="524.76" class="down-wick"/>
<rect x="980.86" y="488.34" width="8.00" height="21.17" class="down-body"/>
<line x1="999.49" y1="462.80" x2="999.49" y2="512.15" class="up-wick"/>
<rect x="995.49" y="472.76" width="8.00" height="36.74" class="up-body"/>
<line x1="1014.13" y1="458.66" x2="1014.13" y2="488.03" class="down-wick"/>
<rect x="1010.13" y="472.76" width="8.00" height="14.66" class="down-body"/>
<line x1="1028.77" y1="476.60" x2="1028.77" y2="498.47" class="down-wick"/>
<rect x="1024.77" y="487.43" width="8.00" height="3.48" class="down-body"/>
<line x1="1043.41" y1="479.51" x2="1043.41" y2="494.51" class="up-wick"/>
<rect x="1039.41" y="484.96" width="8.00" height="5.95" class="up-body"/>
<line x1="1058.04" y1="482.21" x2="1058.04" y2="496.11" class="down-wick"/>
<rect x="1054.04" y="484.96" width="8.00" height="1.00" class="down-body"/>
<line x1="1072.68" y1="477.90" x2="1072.68" y2="491.37" class="up-wick"/>
<rect x="1068.68" y="479.21" width="8.00" height="6.44" class="up-body"/>
<line x1="70" y1="424.67" x2="1080" y2="424.67" class="number-line"/>
<text x="1076" y="420.67" text-anchor="end" class="level-label">round 4540.00</text>
<text x="70" y="556" class="axis-label">2026-05-19 01:00:00+00:00 to 2026-05-19 18:00:00+00:00</text>
<text x="1080" y="556" text-anchor="end" class="axis-label">4454.72 - 4599.20</text>
<text x="70" y="582" class="panel-title">M5 reaction / execution context</text>
<rect x="70" y="596" width="1010" height="192" class="plot-bg"/>
<line x1="79.18" y1="658.20" x2="79.18" y2="684.93" class="down-wick"/>
<rect x="75.18" y="663.04" width="8.00" height="20.56" class="down-body"/>
<line x1="97.55" y1="665.78" x2="97.55" y2="691.09" class="down-wick"/>
<rect x="93.55" y="683.75" width="8.00" height="3.77" class="down-body"/>
<line x1="115.91" y1="679.20" x2="115.91" y2="696.72" class="down-wick"/>
<rect x="111.91" y="687.52" width="8.00" height="5.68" class="down-body"/>
<line x1="134.27" y1="633.96" x2="134.27" y2="693.98" class="up-wick"/>
<rect x="130.27" y="649.92" width="8.00" height="43.28" class="up-body"/>
<line x1="152.64" y1="636.26" x2="152.64" y2="664.95" class="up-wick"/>
<rect x="148.64" y="643.90" width="8.00" height="6.02" class="up-body"/>
<line x1="171.00" y1="609.24" x2="171.00" y2="644.10" class="up-wick"/>
<rect x="167.00" y="619.33" width="8.00" height="24.58" class="up-body"/>
<line x1="189.36" y1="609.88" x2="189.36" y2="642.09" class="down-wick"/>
<rect x="185.36" y="619.33" width="8.00" height="21.25" class="down-body"/>
<line x1="207.73" y1="640.03" x2="207.73" y2="684.68" class="down-wick"/>
<rect x="203.73" y="640.57" width="8.00" height="41.81" class="down-body"/>
<line x1="226.09" y1="664.61" x2="226.09" y2="690.85" class="up-wick"/>
<rect x="222.09" y="672.44" width="8.00" height="9.94" class="up-body"/>
<line x1="244.45" y1="664.12" x2="244.45" y2="682.67" class="down-wick"/>
<rect x="240.45" y="672.44" width="8.00" height="10.04" class="down-body"/>
<line x1="262.82" y1="678.81" x2="262.82" y2="708.52" class="down-wick"/>
<rect x="258.82" y="682.48" width="8.00" height="18.02" class="down-body"/>
<line x1="281.18" y1="698.63" x2="281.18" y2="721.25" class="down-wick"/>
<rect x="277.18" y="700.49" width="8.00" height="11.31" class="down-body"/>
<line x1="299.55" y1="682.77" x2="299.55" y2="718.66" class="up-wick"/>
<rect x="295.55" y="683.07" width="8.00" height="28.69" class="up-body"/>
<line x1="317.91" y1="679.30" x2="317.91" y2="691.98" class="down-wick"/>
<rect x="313.91" y="682.97" width="8.00" height="4.90" class="down-body"/>
<line x1="336.27" y1="685.12" x2="336.27" y2="692.86" class="up-wick"/>
<rect x="332.27" y="687.57" width="8.00" height="1.00" class="up-body"/>
<line x1="354.64" y1="661.33" x2="354.64" y2="689.28" class="up-wick"/>
<rect x="350.64" y="673.91" width="8.00" height="13.66" class="up-body"/>
<line x1="373.00" y1="667.60" x2="373.00" y2="712.73" class="down-wick"/>
<rect x="369.00" y="673.86" width="8.00" height="16.89" class="down-body"/>
<line x1="391.36" y1="682.63" x2="391.36" y2="694.42" class="up-wick"/>
<rect x="387.36" y="689.97" width="8.00" height="1.00" class="up-body"/>
<line x1="409.73" y1="690.02" x2="409.73" y2="703.68" class="down-wick"/>
<rect x="405.73" y="690.02" width="8.00" height="6.51" class="down-body"/>
<line x1="428.09" y1="696.28" x2="428.09" y2="718.80" class="down-wick"/>
<rect x="424.09" y="696.53" width="8.00" height="4.01" class="down-body"/>
<line x1="446.45" y1="698.54" x2="446.45" y2="717.63" class="down-wick"/>
<rect x="442.45" y="700.44" width="8.00" height="5.19" class="down-body"/>
<line x1="464.82" y1="702.79" x2="464.82" y2="722.67" class="up-wick"/>
<rect x="460.82" y="703.58" width="8.00" height="2.06" class="up-body"/>
<line x1="483.18" y1="670.29" x2="483.18" y2="704.75" class="up-wick"/>
<rect x="479.18" y="671.56" width="8.00" height="32.02" class="up-body"/>
<line x1="501.55" y1="670.53" x2="501.55" y2="701.52" class="down-wick"/>
<rect x="497.55" y="671.56" width="8.00" height="28.54" class="down-body"/>
<line x1="519.91" y1="688.25" x2="519.91" y2="719.73" class="down-wick"/>
<rect x="515.91" y="700.10" width="8.00" height="7.44" class="down-body"/>
<line x1="538.27" y1="692.56" x2="538.27" y2="716.80" class="up-wick"/>
<rect x="534.27" y="706.42" width="8.00" height="1.08" class="up-body"/>
<line x1="556.64" y1="701.23" x2="556.64" y2="713.03" class="down-wick"/>
<rect x="552.64" y="706.42" width="8.00" height="1.00" class="down-body"/>
<line x1="575.00" y1="697.36" x2="575.00" y2="711.70" class="up-wick"/>
<rect x="571.00" y="699.91" width="8.00" height="6.61" class="up-body"/>
<line x1="593.36" y1="686.05" x2="593.36" y2="707.89" class="up-wick"/>
<rect x="589.36" y="687.03" width="8.00" height="12.83" class="up-body"/>
<line x1="611.73" y1="680.47" x2="611.73" y2="699.76" class="down-wick"/>
<rect x="607.73" y="687.03" width="8.00" height="7.54" class="down-body"/>
<line x1="630.09" y1="694.57" x2="630.09" y2="720.81" class="down-wick"/>
<rect x="626.09" y="694.57" width="8.00" height="25.55" class="down-body"/>
<line x1="648.45" y1="694.08" x2="648.45" y2="723.16" class="up-wick"/>
<rect x="644.45" y="702.79" width="8.00" height="17.33" class="up-body"/>
<line x1="666.82" y1="692.51" x2="666.82" y2="709.94" class="up-wick"/>
<rect x="662.82" y="696.43" width="8.00" height="6.36" class="up-body"/>
<line x1="685.18" y1="694.37" x2="685.18" y2="711.51" class="down-wick"/>
<rect x="681.18" y="696.43" width="8.00" height="9.40" class="down-body"/>
<line x1="703.55" y1="695.70" x2="703.55" y2="708.77" class="up-wick"/>
<rect x="699.55" y="699.56" width="8.00" height="6.27" class="up-body"/>
<line x1="721.91" y1="698.83" x2="721.91" y2="707.45" class="down-wick"/>
<rect x="717.91" y="699.56" width="8.00" height="3.92" class="down-body"/>
<line x1="740.27" y1="691.63" x2="740.27" y2="709.11" class="up-wick"/>
<rect x="736.27" y="696.58" width="8.00" height="6.90" class="up-body"/>
<line x1="758.64" y1="689.43" x2="758.64" y2="732.17" class="down-wick"/>
<rect x="754.64" y="696.68" width="8.00" height="1.86" class="down-body"/>
<line x1="777.00" y1="696.28" x2="777.00" y2="774.76" class="down-wick"/>
<rect x="773.00" y="698.54" width="8.00" height="57.52" class="down-body"/>
<line x1="795.36" y1="730.36" x2="795.36" y2="763.74" class="up-wick"/>
<rect x="791.36" y="738.29" width="8.00" height="17.77" class="up-body"/>
<line x1="813.73" y1="723.21" x2="813.73" y2="742.11" class="up-wick"/>
<rect x="809.73" y="726.73" width="8.00" height="11.55" class="up-body"/>
<line x1="832.09" y1="680.62" x2="832.09" y2="726.78" class="up-wick"/>
<rect x="828.09" y="680.62" width="8.00" height="46.07" class="up-body"/>
<line x1="850.45" y1="664.46" x2="850.45" y2="688.25" class="down-wick"/>
<rect x="846.45" y="680.62" width="8.00" height="5.24" class="down-body"/>
<line x1="868.82" y1="685.32" x2="868.82" y2="700.15" class="down-wick"/>
<rect x="864.82" y="685.86" width="8.00" height="10.87" class="down-body"/>
<line x1="887.18" y1="693.15" x2="887.18" y2="723.45" class="down-wick"/>
<rect x="883.18" y="696.72" width="8.00" height="22.86" class="down-body"/>
<line x1="905.55" y1="693.10" x2="905.55" y2="724.29" class="up-wick"/>
<rect x="901.55" y="698.54" width="8.00" height="21.05" class="up-body"/>
<line x1="923.91" y1="693.64" x2="923.91" y2="708.72" class="up-wick"/>
<rect x="919.91" y="698.49" width="8.00" height="1.00" class="up-body"/>
<line x1="942.27" y1="692.91" x2="942.27" y2="718.61" class="down-wick"/>
<rect x="938.27" y="697.70" width="8.00" height="9.30" class="down-body"/>
<line x1="960.64" y1="699.51" x2="960.64" y2="715.03" class="down-wick"/>
<rect x="956.64" y="707.00" width="8.00" height="1.00" class="down-body"/>
<line x1="979.00" y1="706.71" x2="979.00" y2="718.95" class="down-wick"/>
<rect x="975.00" y="707.25" width="8.00" height="5.83" class="down-body"/>
<line x1="997.36" y1="688.21" x2="997.36" y2="717.29" class="up-wick"/>
<rect x="993.36" y="694.37" width="8.00" height="18.60" class="up-body"/>
<line x1="1015.73" y1="692.47" x2="1015.73" y2="716.70" class="down-wick"/>
<rect x="1011.73" y="694.37" width="8.00" height="9.60" class="down-body"/>
<line x1="1034.09" y1="703.09" x2="1034.09" y2="731.38" class="down-wick"/>
<rect x="1030.09" y="703.97" width="8.00" height="25.21" class="down-body"/>
<line x1="1052.45" y1="728.45" x2="1052.45" y2="753.32" class="down-wick"/>
<rect x="1048.45" y="729.18" width="8.00" height="19.88" class="down-body"/>
<line x1="1070.82" y1="723.11" x2="1070.82" y2="765.31" class="up-wick"/>
<rect x="1066.82" y="725.61" width="8.00" height="23.45" class="up-body"/>
<line x1="70" y1="703.63" x2="1080" y2="703.63" class="number-line"/>
<text x="1076" y="699.63" text-anchor="end" class="level-label">round 4540.00</text>
<text x="70" y="806" class="axis-label">2026-05-19 10:30:00+00:00 to 2026-05-19 15:00:00+00:00</text>
<text x="1080" y="806" text-anchor="end" class="axis-label">4522.77 - 4561.98</text>
<text x="70" y="832" class="panel-title">M1 execution window</text>
<rect x="70" y="846" width="1010" height="192" class="plot-bg"/>
<line x1="73.71" y1="908.20" x2="73.71" y2="924.74" class="down-wick"/>
<rect x="71.30" y="913.04" width="4.83" height="5.97" class="down-body"/>
<line x1="81.14" y1="914.46" x2="81.14" y2="922.64" class="down-wick"/>
<rect x="78.73" y="918.38" width="4.83" height="1.52" class="down-body"/>
<line x1="88.57" y1="928.12" x2="88.57" y2="934.93" class="down-wick"/>
<rect x="86.15" y="928.46" width="4.83" height="5.14" class="down-body"/>
<line x1="95.99" y1="919.60" x2="95.99" y2="926.65" class="down-wick"/>
<rect x="93.58" y="923.27" width="4.83" height="1.00" class="down-body"/>
<line x1="103.42" y1="927.34" x2="103.42" y2="940.56" class="down-wick"/>
<rect x="101.01" y="927.68" width="4.83" height="8.42" class="down-body"/>
<line x1="110.85" y1="934.04" x2="110.85" y2="942.95" class="down-wick"/>
<rect x="108.43" y="937.52" width="4.83" height="1.57" class="down-body"/>
<line x1="118.27" y1="935.46" x2="118.27" y2="944.03" class="down-wick"/>
<rect x="115.86" y="939.48" width="4.83" height="1.86" class="down-body"/>
<line x1="125.70" y1="934.00" x2="125.70" y2="946.72" class="down-wick"/>
<rect x="123.28" y="935.95" width="4.83" height="7.25" class="down-body"/>
<line x1="133.12" y1="898.45" x2="133.12" y2="941.09" class="up-wick"/>
<rect x="130.71" y="898.75" width="4.83" height="41.42" class="up-body"/>
<line x1="140.55" y1="885.97" x2="140.55" y2="898.85" class="up-wick"/>
<rect x="138.14" y="894.15" width="4.83" height="2.50" class="up-body"/>
<line x1="147.98" y1="896.50" x2="147.98" y2="914.95" class="down-wick"/>
<rect x="145.56" y="899.92" width="4.83" height="5.53" class="down-body"/>
<line x1="155.40" y1="899.04" x2="155.40" y2="909.03" class="down-wick"/>
<rect x="152.99" y="901.49" width="4.83" height="4.70" class="down-body"/>
<line x1="162.83" y1="886.26" x2="162.83" y2="907.95" class="up-wick"/>
<rect x="160.42" y="893.90" width="4.83" height="13.90" class="up-body"/>
<line x1="170.26" y1="859.24" x2="170.26" y2="875.59" class="up-wick"/>
<rect x="167.84" y="863.60" width="4.83" height="11.99" class="up-body"/>
<line x1="177.68" y1="863.55" x2="177.68" y2="875.00" class="down-wick"/>
<rect x="175.27" y="867.71" width="4.83" height="5.87" class="down-body"/>
<line x1="185.11" y1="859.88" x2="185.11" y2="883.47" class="down-wick"/>
<rect x="182.70" y="869.33" width="4.83" height="12.68" class="down-body"/>
<line x1="192.54" y1="877.06" x2="192.54" y2="891.26" class="up-wick"/>
<rect x="190.12" y="887.15" width="4.83" height="1.00" class="up-body"/>
<line x1="199.96" y1="881.37" x2="199.96" y2="891.70" class="down-wick"/>
<rect x="197.55" y="882.94" width="4.83" height="7.64" class="down-body"/>
<line x1="207.39" y1="895.13" x2="207.39" y2="907.61" class="down-wick"/>
<rect x="204.98" y="896.30" width="4.83" height="2.01" class="down-body"/>
<line x1="214.82" y1="909.13" x2="214.82" y2="933.41" class="down-wick"/>
<rect x="212.40" y="910.79" width="4.83" height="16.50" class="down-body"/>
<line x1="222.24" y1="918.33" x2="222.24" y2="934.83" class="up-wick"/>
<rect x="219.83" y="919.41" width="4.83" height="12.97" class="up-body"/>
<line x1="229.67" y1="930.57" x2="229.67" y2="940.51" class="down-wick"/>
<rect x="227.26" y="932.43" width="4.83" height="4.90" class="down-body"/>
<line x1="237.10" y1="919.55" x2="237.10" y2="931.30" class="up-wick"/>
<rect x="234.68" y="922.44" width="4.83" height="8.86" class="up-body"/>
<line x1="244.52" y1="919.80" x2="244.52" y2="926.90" class="up-wick"/>
<rect x="242.11" y="920.58" width="4.83" height="2.89" class="up-body"/>
<line x1="251.95" y1="914.12" x2="251.95" y2="927.93" class="up-wick"/>
<rect x="249.53" y="918.18" width="4.83" height="2.01" class="up-body"/>
<line x1="259.38" y1="928.81" x2="259.38" y2="933.65" class="up-wick"/>
<rect x="256.96" y="929.93" width="4.83" height="2.55" class="up-body"/>
<line x1="266.80" y1="934.97" x2="266.80" y2="944.77" class="down-wick"/>
<rect x="264.39" y="937.47" width="4.83" height="5.58" class="down-body"/>
<line x1="274.23" y1="946.04" x2="274.23" y2="951.82" class="down-wick"/>
<rect x="271.81" y="946.19" width="4.83" height="4.31" class="down-body"/>
<line x1="281.65" y1="950.98" x2="281.65" y2="965.13" class="down-wick"/>
<rect x="279.24" y="954.41" width="4.83" height="7.64" class="down-body"/>
<line x1="289.08" y1="959.75" x2="289.08" y2="971.25" class="down-wick"/>
<rect x="286.67" y="959.75" width="4.83" height="8.32" class="down-body"/>
<line x1="296.51" y1="959.11" x2="296.51" y2="968.66" class="up-wick"/>
<rect x="294.09" y="960.24" width="4.83" height="1.52" class="up-body"/>
<line x1="303.93" y1="951.03" x2="303.93" y2="962.00" class="up-wick"/>
<rect x="301.52" y="953.58" width="4.83" height="7.05" class="up-body"/>
<line x1="311.36" y1="932.77" x2="311.36" y2="941.49" class="up-wick"/>
<rect x="308.95" y="933.07" width="4.83" height="7.83" class="up-body"/>
<line x1="318.79" y1="930.47" x2="318.79" y2="935.17" class="up-wick"/>
<rect x="316.37" y="932.77" width="4.83" height="1.17" class="up-body"/>
<line x1="326.21" y1="937.18" x2="326.21" y2="941.24" class="down-wick"/>
<rect x="323.80" y="939.14" width="4.83" height="1.00" class="down-body"/>
<line x1="333.64" y1="937.08" x2="333.64" y2="942.27" class="down-wick"/>
<rect x="331.23" y="937.81" width="4.83" height="3.48" class="down-body"/>
<line x1="341.07" y1="936.35" x2="341.07" y2="939.63" class="up-wick"/>
<rect x="338.65" y="938.50" width="4.83" height="1.00" class="up-body"/>
<line x1="348.49" y1="935.12" x2="348.49" y2="942.07" class="up-wick"/>
<rect x="346.08" y="937.57" width="4.83" height="3.38" class="up-body"/>
<line x1="355.92" y1="919.06" x2="355.92" y2="928.76" class="up-wick"/>
<rect x="353.51" y="919.55" width="4.83" height="8.32" class="up-body"/>
<line x1="363.35" y1="919.02" x2="363.35" y2="927.83" class="down-wick"/>
<rect x="360.93" y="921.17" width="4.83" height="4.21" class="down-body"/>
<line x1="370.77" y1="917.60" x2="370.77" y2="926.65" class="up-wick"/>
<rect x="368.36" y="921.41" width="4.83" height="2.45" class="up-body"/>
<line x1="378.20" y1="927.14" x2="378.20" y2="952.16" class="down-wick"/>
<rect x="375.78" y="927.58" width="4.83" height="21.20" class="down-body"/>
<line x1="385.62" y1="939.82" x2="385.62" y2="946.68" class="up-wick"/>
<rect x="383.21" y="940.75" width="4.83" height="1.52" class="up-body"/>
<line x1="393.05" y1="933.02" x2="393.05" y2="941.49" class="up-wick"/>
<rect x="390.64" y="933.26" width="4.83" height="6.95" class="up-body"/>
<line x1="400.48" y1="935.37" x2="400.48" y2="941.05" class="down-wick"/>
<rect x="398.06" y="936.84" width="4.83" height="1.52" class="down-body"/>
<line x1="407.90" y1="940.02" x2="407.90" y2="951.42" class="down-wick"/>
<rect x="405.49" y="940.02" width="4.83" height="6.07" class="down-body"/>
<line x1="415.33" y1="944.72" x2="415.33" y2="952.06" class="down-wick"/>
<rect x="412.92" y="947.31" width="4.83" height="4.60" class="down-body"/>
<line x1="422.76" y1="944.33" x2="422.76" y2="953.68" class="up-wick"/>
<rect x="420.34" y="946.53" width="4.83" height="4.50" class="up-body"/>
<line x1="430.18" y1="952.31" x2="430.18" y2="957.74" class="up-wick"/>
<rect x="427.77" y="953.48" width="4.83" height="3.52" class="up-body"/>
<line x1="437.61" y1="953.58" x2="437.61" y2="965.57" class="up-wick"/>
<rect x="435.20" y="954.02" width="4.83" height="8.47" class="up-body"/>
<line x1="445.04" y1="948.88" x2="445.04" y2="956.12" class="down-wick"/>
<rect x="442.62" y="950.44" width="4.83" height="1.52" class="down-body"/>
<line x1="452.46" y1="950.54" x2="452.46" y2="956.12" class="down-wick"/>
<rect x="450.05" y="950.69" width="4.83" height="4.01" class="down-body"/>
<line x1="459.89" y1="954.61" x2="459.89" y2="964.64" class="up-wick"/>
<rect x="457.48" y="955.63" width="4.83" height="8.18" class="up-body"/>
<line x1="467.32" y1="960.09" x2="467.32" y2="968.31" class="down-wick"/>
<rect x="464.90" y="961.36" width="4.83" height="6.41" class="down-body"/>
<line x1="474.74" y1="954.85" x2="474.74" y2="969.98" class="up-wick"/>
<rect x="472.33" y="957.25" width="4.83" height="7.15" class="up-body"/>
<line x1="482.17" y1="945.11" x2="482.17" y2="954.75" class="up-wick"/>
<rect x="479.76" y="946.43" width="4.83" height="7.15" class="up-body"/>
<line x1="489.60" y1="935.22" x2="489.60" y2="945.65" class="up-wick"/>
<rect x="487.18" y="938.21" width="4.83" height="5.87" class="up-body"/>
<line x1="497.02" y1="920.29" x2="497.02" y2="931.06" class="up-wick"/>
<rect x="494.61" y="921.56" width="4.83" height="9.40" class="up-body"/>
<line x1="504.45" y1="920.58" x2="504.45" y2="930.52" class="up-wick"/>
<rect x="502.03" y="928.02" width="4.83" height="1.42" class="up-body"/>
<line x1="511.88" y1="920.73" x2="511.88" y2="939.77" class="down-wick"/>
<rect x="509.46" y="921.85" width="4.83" height="17.67" class="down-body"/>
<line x1="519.30" y1="938.25" x2="519.30" y2="956.03" class="up-wick"/>
<rect x="516.89" y="944.18" width="4.83" height="5.92" class="up-body"/>
<line x1="526.73" y1="952.75" x2="526.73" y2="969.73" class="up-wick"/>
<rect x="524.31" y="953.72" width="4.83" height="1.76" class="up-body"/>
<line x1="534.15" y1="954.12" x2="534.15" y2="960.92" class="up-wick"/>
<rect x="531.74" y="957.54" width="4.83" height="1.66" class="up-body"/>
<line x1="541.58" y1="942.56" x2="541.58" y2="949.56" class="down-wick"/>
<rect x="539.17" y="946.14" width="4.83" height="3.08" class="down-body"/>
<line x1="549.01" y1="956.27" x2="549.01" y2="966.80" class="down-wick"/>
<rect x="546.59" y="958.57" width="4.83" height="5.43" class="down-body"/>
<line x1="556.43" y1="953.43" x2="556.43" y2="961.66" class="up-wick"/>
<rect x="554.02" y="953.87" width="4.83" height="2.55" class="up-body"/>
<line x1="563.86" y1="954.65" x2="563.86" y2="963.03" class="up-wick"/>
<rect x="561.45" y="955.93" width="4.83" height="5.48" class="up-body"/>
<line x1="571.29" y1="951.91" x2="571.29" y2="960.77" class="down-wick"/>
<rect x="568.87" y="952.75" width="4.83" height="3.77" class="down-body"/>
<line x1="578.71" y1="955.49" x2="578.71" y2="960.14" class="down-wick"/>
<rect x="576.30" y="956.47" width="4.83" height="1.00" class="down-body"/>
<line x1="586.14" y1="947.36" x2="586.14" y2="954.31" class="down-wick"/>
<rect x="583.73" y="951.08" width="4.83" height="1.00" class="down-body"/>
<line x1="593.57" y1="944.86" x2="593.57" y2="952.79" class="down-wick"/>
<rect x="591.15" y="949.86" width="4.83" height="2.74" class="down-body"/>
<line x1="600.99" y1="943.88" x2="600.99" y2="952.31" class="up-wick"/>
<rect x="598.58" y="944.33" width="4.83" height="5.78" class="up-body"/>
<line x1="608.42" y1="936.05" x2="608.42" y2="948.05" class="up-wick"/>
<rect x="606.01" y="937.03" width="4.83" height="4.85" class="up-body"/>
<line x1="615.85" y1="940.51" x2="615.85" y2="945.35" class="down-wick"/>
<rect x="613.43" y="941.68" width="4.83" height="1.00" class="down-body"/>
<line x1="623.27" y1="930.47" x2="623.27" y2="937.52" class="down-wick"/>
<rect x="620.86" y="932.58" width="4.83" height="3.72" class="down-body"/>
<line x1="630.70" y1="944.57" x2="630.70" y2="953.53" class="down-wick"/>
<rect x="628.28" y="944.57" width="4.83" height="2.74" class="down-body"/>
<line x1="638.12" y1="950.10" x2="638.12" y2="958.18" class="down-wick"/>
<rect x="635.71" y="951.42" width="4.83" height="6.46" class="down-body"/>
<line x1="645.55" y1="956.96" x2="645.55" y2="970.81" class="down-wick"/>
<rect x="643.14" y="960.09" width="4.83" height="10.04" class="down-body"/>
<line x1="652.98" y1="944.57" x2="652.98" y2="961.75" class="up-wick"/>
<rect x="650.56" y="944.86" width="4.83" height="14.78" class="up-body"/>
<line x1="660.40" y1="946.82" x2="660.40" y2="950.93" class="down-wick"/>
<rect x="657.99" y="947.51" width="4.83" height="2.06" class="down-body"/>
<line x1="667.83" y1="942.95" x2="667.83" y2="952.99" class="up-wick"/>
<rect x="665.42" y="946.33" width="4.83" height="6.46" class="up-body"/>
<line x1="675.26" y1="952.01" x2="675.26" y2="959.94" class="up-wick"/>
<rect x="672.84" y="953.24" width="4.83" height="3.33" class="up-body"/>
<line x1="682.68" y1="943.15" x2="682.68" y2="951.82" class="up-wick"/>
<rect x="680.27" y="946.43" width="4.83" height="5.29" class="up-body"/>
<line x1="690.11" y1="948.58" x2="690.11" y2="961.51" class="down-wick"/>
<rect x="687.70" y="951.42" width="4.83" height="6.80" class="down-body"/>
<line x1="697.54" y1="952.89" x2="697.54" y2="960.82" class="down-wick"/>
<rect x="695.12" y="954.95" width="4.83" height="5.19" class="down-body"/>
<line x1="704.96" y1="953.92" x2="704.96" y2="957.40" class="up-wick"/>
<rect x="702.55" y="953.97" width="4.83" height="1.86" class="up-body"/>
<line x1="712.39" y1="949.96" x2="712.39" y2="957.25" class="down-wick"/>
<rect x="709.98" y="950.20" width="4.83" height="3.33" class="down-body"/>
<line x1="719.82" y1="945.99" x2="719.82" y2="953.53" class="down-wick"/>
<rect x="717.40" y="945.99" width="4.83" height="3.57" class="down-body"/>
<line x1="727.24" y1="952.11" x2="727.24" y2="956.91" class="down-wick"/>
<rect x="724.83" y="952.99" width="4.83" height="3.43" class="down-body"/>
<line x1="734.67" y1="951.08" x2="734.67" y2="955.49" class="down-wick"/>
<rect x="732.26" y="953.58" width="4.83" height="1.00" class="down-body"/>
<line x1="742.10" y1="947.21" x2="742.10" y2="953.58" class="up-wick"/>
<rect x="739.68" y="953.14" width="4.83" height="1.00" class="up-body"/>
<line x1="749.52" y1="947.12" x2="749.52" y2="953.97" class="up-wick"/>
<rect x="747.11" y="947.21" width="4.83" height="6.46" class="up-body"/>
<line x1="756.95" y1="941.63" x2="756.95" y2="948.98" class="down-wick"/>
<rect x="754.53" y="946.23" width="4.83" height="1.00" class="down-body"/>
<line x1="764.38" y1="943.74" x2="764.38" y2="949.27" class="up-wick"/>
<rect x="761.96" y="945.65" width="4.83" height="2.64" class="up-body"/>
<line x1="771.80" y1="939.43" x2="771.80" y2="982.17" class="down-wick"/>
<rect x="769.39" y="940.70" width="4.83" height="32.11" class="down-body"/>
<line x1="779.23" y1="946.28" x2="779.23" y2="958.23" class="down-wick"/>
<rect x="776.81" y="948.54" width="4.83" height="5.04" class="down-body"/>
<line x1="786.65" y1="973.70" x2="786.65" y2="994.21" class="down-wick"/>
<rect x="784.24" y="973.70" width="4.83" height="13.46" class="down-body"/>
<line x1="794.08" y1="1005.08" x2="794.08" y2="1024.76" class="up-wick"/>
<rect x="791.67" y="1006.06" width="4.83" height="9.94" class="up-body"/>
<line x1="801.51" y1="993.77" x2="801.51" y2="1013.74" class="down-wick"/>
<rect x="799.09" y="996.07" width="4.83" height="5.83" class="down-body"/>
<line x1="808.93" y1="982.31" x2="808.93" y2="995.78" class="down-wick"/>
<rect x="806.52" y="982.76" width="4.83" height="9.89" class="down-body"/>
<line x1="816.36" y1="976.83" x2="816.36" y2="992.11" class="up-wick"/>
<rect x="813.95" y="983.24" width="4.83" height="5.04" class="up-body"/>
<line x1="823.79" y1="975.07" x2="823.79" y2="988.63" class="down-wick"/>
<rect x="821.37" y="982.66" width="4.83" height="1.03" class="down-body"/>
<line x1="831.21" y1="973.21" x2="831.21" y2="982.95" class="up-wick"/>
<rect x="828.80" y="976.73" width="4.83" height="3.87" class="up-body"/>
<line x1="838.64" y1="961.36" x2="838.64" y2="969.59" class="up-wick"/>
<rect x="836.23" y="962.39" width="4.83" height="5.83" class="up-body"/>
<line x1="846.07" y1="938.25" x2="846.07" y2="951.77" class="down-wick"/>
<rect x="843.65" y="944.28" width="4.83" height="1.91" class="down-body"/>
<line x1="853.49" y1="920.88" x2="853.49" y2="936.93" class="up-wick"/>
<rect x="851.08" y="929.69" width="4.83" height="1.00" class="up-body"/>
<line x1="860.92" y1="925.48" x2="860.92" y2="936.44" class="up-wick"/>
<rect x="858.51" y="925.67" width="4.83" height="8.47" class="up-body"/>
<line x1="868.35" y1="921.90" x2="868.35" y2="938.25" class="down-wick"/>
<rect x="865.93" y="924.94" width="4.83" height="10.92" class="down-body"/>
<line x1="875.77" y1="936.49" x2="875.77" y2="946.23" class="down-wick"/>
<rect x="873.36" y="942.71" width="4.83" height="1.00" class="down-body"/>
<line x1="883.20" y1="938.25" x2="883.20" y2="945.89" class="down-wick"/>
<rect x="880.78" y="941.78" width="4.83" height="1.96" class="down-body"/>
<line x1="890.62" y1="946.58" x2="890.62" y2="965.38" class="down-wick"/>
<rect x="888.21" y="946.72" width="4.83" height="17.09" class="down-body"/>
<line x1="898.05" y1="943.15" x2="898.05" y2="966.80" class="down-wick"/>
<rect x="895.64" y="945.89" width="4.83" height="20.81" class="down-body"/>
<line x1="905.48" y1="956.42" x2="905.48" y2="973.45" class="down-wick"/>
<rect x="903.06" y="958.82" width="4.83" height="10.77" class="down-body"/>
<line x1="912.90" y1="956.07" x2="912.90" y2="970.37" class="up-wick"/>
<rect x="910.49" y="959.16" width="4.83" height="9.74" class="up-body"/>
<line x1="920.33" y1="951.72" x2="920.33" y2="961.75" class="up-wick"/>
<rect x="917.92" y="952.16" width="4.83" height="9.15" class="up-body"/>
<line x1="927.76" y1="948.54" x2="927.76" y2="958.72" class="down-wick"/>
<rect x="925.34" y="948.54" width="4.83" height="4.55" class="down-body"/>
<line x1="935.18" y1="948.05" x2="935.18" y2="954.36" class="down-wick"/>
<rect x="932.77" y="948.05" width="4.83" height="5.29" class="down-body"/>
<line x1="942.61" y1="943.64" x2="942.61" y2="953.63" class="up-wick"/>
<rect x="940.20" y="948.49" width="4.83" height="4.16" class="up-body"/>
<line x1="950.04" y1="949.27" x2="950.04" y2="968.51" class="down-wick"/>
<rect x="947.62" y="950.64" width="4.83" height="17.87" class="down-body"/>
<line x1="957.46" y1="960.19" x2="957.46" y2="968.36" class="down-wick"/>
<rect x="955.05" y="961.36" width="4.83" height="4.55" class="down-body"/>
<line x1="964.89" y1="949.51" x2="964.89" y2="960.24" class="up-wick"/>
<rect x="962.48" y="951.77" width="4.83" height="5.24" class="up-body"/>
<line x1="972.32" y1="953.19" x2="972.32" y2="963.32" class="up-wick"/>
<rect x="969.90" y="959.99" width="4.83" height="2.50" class="up-body"/>
<line x1="979.74" y1="956.91" x2="979.74" y2="965.03" class="up-wick"/>
<rect x="977.33" y="957.25" width="4.83" height="3.43" class="up-body"/>
<line x1="987.17" y1="958.47" x2="987.17" y2="963.03" class="up-wick"/>
<rect x="984.76" y="959.01" width="4.83" height="2.40" class="up-body"/>
<line x1="994.60" y1="960.73" x2="994.60" y2="968.95" class="up-wick"/>
<rect x="992.18" y="964.69" width="4.83" height="3.57" class="up-body"/>
<line x1="1002.02" y1="958.87" x2="1002.02" y2="965.57" class="down-wick"/>
<rect x="999.61" y="962.98" width="4.83" height="2.59" class="down-body"/>
<line x1="1009.45" y1="952.11" x2="1009.45" y2="961.75" class="up-wick"/>
<rect x="1007.03" y="953.14" width="4.83" height="6.12" class="up-body"/>
<line x1="1016.88" y1="938.21" x2="1016.88" y2="945.89" class="down-wick"/>
<rect x="1014.46" y="943.54" width="4.83" height="1.00" class="down-body"/>
<line x1="1024.30" y1="946.43" x2="1024.30" y2="966.70" class="down-wick"/>
<rect x="1021.89" y="946.97" width="4.83" height="19.29" class="down-body"/>
<line x1="1031.73" y1="946.48" x2="1031.73" y2="963.17" class="up-wick"/>
<rect x="1029.31" y="948.73" width="4.83" height="13.02" class="up-body"/>
<line x1="1039.15" y1="953.09" x2="1039.15" y2="964.84" class="down-wick"/>
<rect x="1036.74" y="953.97" width="4.83" height="9.15" class="down-body"/>
<line x1="1046.58" y1="956.32" x2="1046.58" y2="961.66" class="up-wick"/>
<rect x="1044.17" y="957.15" width="4.83" height="2.06" class="up-body"/>
<line x1="1054.01" y1="964.89" x2="1054.01" y2="981.38" class="down-wick"/>
<rect x="1051.59" y="968.22" width="4.83" height="10.97" class="down-body"/>
<line x1="1061.43" y1="985.59" x2="1061.43" y2="997.49" class="down-wick"/>
<rect x="1059.02" y="986.18" width="4.83" height="5.09" class="down-body"/>
<line x1="1068.86" y1="990.00" x2="1068.86" y2="998.81" class="up-wick"/>
<rect x="1066.45" y="993.92" width="4.83" height="1.00" class="up-body"/>
<line x1="1076.29" y1="996.56" x2="1076.29" y2="1012.28" class="down-wick"/>
<rect x="1073.87" y="999.06" width="4.83" height="9.11" class="down-body"/>
<line x1="70" y1="953.63" x2="1080" y2="953.63" class="number-line"/>
<text x="1076" y="949.63" text-anchor="end" class="level-label">round 4540.00</text>
<text x="70" y="1056" class="axis-label">2026-05-19 10:30:00+00:00 to 2026-05-19 15:00:00+00:00</text>
<text x="1080" y="1056" text-anchor="end" class="axis-label">4522.77 - 4561.98</text>
</svg>