<svg xmlns="http://www.w3.org/2000/svg" width="1120" height="804" viewBox="0 0 1120 804">
<style>
text{font-family:Arial,Helvetica,sans-serif}.title{font-size:21px;font-weight:700;fill:#1f2937}.subtitle{font-size:12px;fill:#4b5563}.panel-title{font-size:15px;font-weight:700;fill:#111827}.muted{font-size:13px;fill:#6b7280}.plot-bg{fill:#f8fafc;stroke:#cbd5e1;stroke-width:1}.up-body{fill:#15803d;stroke:#14532d;stroke-width:.8}.down-body{fill:#b91c1c;stroke:#7f1d1d;stroke-width:.8}.up-wick{stroke:#14532d;stroke-width:1}.down-wick{stroke:#7f1d1d;stroke-width:1}.sweep-line{stroke:#7c3aed;stroke-width:1.6;stroke-dasharray:6 4}.number-line{stroke:#0f766e;stroke-width:1.4;stroke-dasharray:3 4}.entry-line{stroke:#2563eb;stroke-width:1.4}.sl-line{stroke:#dc2626;stroke-width:1.4}.tp-line{stroke:#16a34a;stroke-width:1.4}.level-label,.axis-label{font-size:11px;fill:#374151}
</style>
<text x="28" y="28" class="title">Adelin v2 visual review sample sample_034</text>
<text x="28" y="48" class="subtitle">Candidate windows are for visual labeling only and are not trade signals.</text>
<text x="560" y="48" class="subtitle" text-anchor="middle">M15_SWING_HIGH_SWEEP_VISUAL_CANDIDATE</text>
<text x="70" y="82" class="panel-title">H1 liquidity context</text>
<rect x="70" y="96" width="1010" height="192" class="plot-bg"/>
<text x="82" y="138" class="muted">No candles available for this timeframe/window.</text>
<text x="70" y="332" class="panel-title">M15 liquidity / reaction context</text>
<rect x="70" y="346" width="1010" height="192" class="plot-bg"/>
<line x1="77.32" y1="476.24" x2="77.32" y2="492.91" class="down-wick"/>
<rect x="73.32" y="479.34" width="8.00" height="13.50" class="down-body"/>
<line x1="91.96" y1="490.52" x2="91.96" y2="519.41" class="down-wick"/>
<rect x="87.96" y="493.26" width="8.00" height="15.96" class="down-body"/>
<line x1="106.59" y1="504.51" x2="106.59" y2="516.32" class="down-wick"/>
<rect x="102.59" y="509.22" width="8.00" height="1.00" class="down-body"/>
<line x1="121.23" y1="499.16" x2="121.23" y2="511.82" class="up-wick"/>
<rect x="117.23" y="499.73" width="8.00" height="10.34" class="up-body"/>
<line x1="135.87" y1="499.66" x2="135.87" y2="524.76" class="down-wick"/>
<rect x="131.87" y="499.66" width="8.00" height="22.57" class="down-body"/>
<line x1="150.51" y1="500.15" x2="150.51" y2="522.23" class="up-wick"/>
<rect x="146.51" y="507.67" width="8.00" height="14.55" class="up-body"/>
<line x1="165.14" y1="500.50" x2="165.14" y2="510.63" class="up-wick"/>
<rect x="161.14" y="503.45" width="8.00" height="5.06" class="up-body"/>
<line x1="179.78" y1="499.16" x2="179.78" y2="511.82" class="down-wick"/>
<rect x="175.78" y="501.70" width="8.00" height="1.13" class="down-body"/>
<line x1="194.42" y1="496.35" x2="194.42" y2="510.63" class="down-wick"/>
<rect x="190.42" y="502.82" width="8.00" height="4.29" class="down-body"/>
<line x1="209.06" y1="488.97" x2="209.06" y2="512.88" class="up-wick"/>
<rect x="205.06" y="489.88" width="8.00" height="17.23" class="up-body"/>
<line x1="223.70" y1="469.84" x2="223.70" y2="495.65" class="up-wick"/>
<rect x="219.70" y="471.04" width="8.00" height="19.13" class="up-body"/>
<line x1="238.33" y1="444.74" x2="238.33" y2="471.32" class="up-wick"/>
<rect x="234.33" y="446.92" width="8.00" height="24.26" class="up-body"/>
<line x1="252.97" y1="439.54" x2="252.97" y2="457.75" class="down-wick"/>
<rect x="248.97" y="446.36" width="8.00" height="2.39" class="down-body"/>
<line x1="267.61" y1="442.63" x2="267.61" y2="464.36" class="down-wick"/>
<rect x="263.61" y="449.95" width="8.00" height="9.42" class="down-body"/>
<line x1="282.25" y1="448.75" x2="282.25" y2="460.14" class="up-wick"/>
<rect x="278.25" y="456.13" width="8.00" height="3.23" class="up-body"/>
<line x1="296.88" y1="448.82" x2="296.88" y2="461.76" class="up-wick"/>
<rect x="292.88" y="449.24" width="8.00" height="6.89" class="up-body"/>
<line x1="311.52" y1="444.18" x2="311.52" y2="463.16" class="down-wick"/>
<rect x="307.52" y="447.84" width="8.00" height="15.33" class="down-body"/>
<line x1="326.16" y1="461.55" x2="326.16" y2="478.42" class="down-wick"/>
<rect x="322.16" y="461.55" width="8.00" height="4.92" class="down-body"/>
<line x1="340.80" y1="452.83" x2="340.80" y2="468.65" class="up-wick"/>
<rect x="336.80" y="456.91" width="8.00" height="9.21" class="up-body"/>
<line x1="355.43" y1="453.39" x2="355.43" y2="464.85" class="down-wick"/>
<rect x="351.43" y="457.12" width="8.00" height="6.33" class="down-body"/>
<line x1="370.07" y1="456.63" x2="370.07" y2="479.83" class="down-wick"/>
<rect x="366.07" y="463.45" width="8.00" height="11.18" class="down-body"/>
<line x1="384.71" y1="467.59" x2="384.71" y2="479.48" class="down-wick"/>
<rect x="380.71" y="474.70" width="8.00" height="1.20" class="down-body"/>
<line x1="399.35" y1="465.70" x2="399.35" y2="475.26" class="up-wick"/>
<rect x="395.35" y="472.16" width="8.00" height="2.95" class="up-body"/>
<line x1="413.99" y1="448.19" x2="413.99" y2="472.94" class="up-wick"/>
<rect x="409.99" y="451.21" width="8.00" height="20.74" class="up-body"/>
<line x1="428.62" y1="438.77" x2="428.62" y2="473.64" class="down-wick"/>
<rect x="424.62" y="451.56" width="8.00" height="21.02" class="down-body"/>
<line x1="443.26" y1="446.71" x2="443.26" y2="520.89" class="up-wick"/>
<rect x="439.26" y="451.70" width="8.00" height="55.69" class="up-body"/>
<line x1="457.90" y1="425.12" x2="457.90" y2="468.65" class="up-wick"/>
<rect x="453.90" y="439.54" width="8.00" height="11.95" class="up-body"/>
<line x1="472.54" y1="408.88" x2="472.54" y2="455.01" class="up-wick"/>
<rect x="468.54" y="429.70" width="8.00" height="9.21" class="up-body"/>
<line x1="487.17" y1="421.47" x2="487.17" y2="445.87" class="down-wick"/>
<rect x="483.17" y="428.92" width="8.00" height="8.44" class="down-body"/>
<line x1="501.81" y1="428.71" x2="501.81" y2="462.39" class="down-wick"/>
<rect x="497.81" y="436.87" width="8.00" height="5.55" class="down-body"/>
<line x1="516.45" y1="392.57" x2="516.45" y2="442.35" class="up-wick"/>
<rect x="512.45" y="399.67" width="8.00" height="42.68" class="up-body"/>
<line x1="531.09" y1="377.38" x2="531.09" y2="435.53" class="down-wick"/>
<rect x="527.09" y="400.37" width="8.00" height="22.85" class="down-body"/>
<line x1="545.72" y1="412.40" x2="545.72" y2="440.31" class="up-wick"/>
<rect x="541.72" y="413.80" width="8.00" height="9.35" class="up-body"/>
<line x1="560.36" y1="387.72" x2="560.36" y2="424.00" class="up-wick"/>
<rect x="556.36" y="400.23" width="8.00" height="14.20" class="up-body"/>
<line x1="575.00" y1="397.77" x2="575.00" y2="412.19" class="down-wick"/>
<rect x="571.00" y="400.16" width="8.00" height="4.92" class="down-body"/>
<line x1="589.64" y1="403.33" x2="589.64" y2="423.65" class="down-wick"/>
<rect x="585.64" y="405.23" width="8.00" height="16.10" class="down-body"/>
<line x1="604.28" y1="412.82" x2="604.28" y2="429.77" class="down-wick"/>
<rect x="600.28" y="420.98" width="8.00" height="1.90" class="down-body"/>
<line x1="618.91" y1="400.02" x2="618.91" y2="424.84" class="up-wick"/>
<rect x="614.91" y="417.39" width="8.00" height="5.48" class="up-body"/>
<line x1="633.55" y1="412.05" x2="633.55" y2="445.73" class="down-wick"/>
<rect x="629.55" y="417.53" width="8.00" height="23.13" class="down-body"/>
<line x1="648.19" y1="432.93" x2="648.19" y2="451.91" class="up-wick"/>
<rect x="644.19" y="433.42" width="8.00" height="8.16" class="up-body"/>
<line x1="662.83" y1="425.48" x2="662.83" y2="443.55" class="down-wick"/>
<rect x="658.83" y="433.42" width="8.00" height="1.00" class="down-body"/>
<line x1="677.46" y1="403.89" x2="677.46" y2="442.28" class="up-wick"/>
<rect x="673.46" y="411.55" width="8.00" height="22.43" class="up-body"/>
<line x1="692.10" y1="388.21" x2="692.10" y2="411.98" class="up-wick"/>
<rect x="688.10" y="397.28" width="8.00" height="14.70" class="up-body"/>
<line x1="706.74" y1="389.41" x2="706.74" y2="405.44" class="down-wick"/>
<rect x="702.74" y="397.42" width="8.00" height="5.98" class="down-body"/>
<line x1="721.38" y1="392.57" x2="721.38" y2="412.75" class="up-wick"/>
<rect x="717.38" y="397.56" width="8.00" height="6.61" class="up-body"/>
<line x1="736.01" y1="390.95" x2="736.01" y2="400.30" class="up-wick"/>
<rect x="732.01" y="391.16" width="8.00" height="6.47" class="up-body"/>
<line x1="750.65" y1="380.76" x2="750.65" y2="392.64" class="up-wick"/>
<rect x="746.65" y="385.47" width="8.00" height="5.55" class="up-body"/>
<line x1="765.29" y1="366.41" x2="765.29" y2="386.73" class="up-wick"/>
<rect x="761.29" y="366.91" width="8.00" height="18.56" class="up-body"/>
<line x1="779.93" y1="359.94" x2="779.93" y2="373.44" class="down-wick"/>
<rect x="775.93" y="366.91" width="8.00" height="1.00" class="down-body"/>
<line x1="794.57" y1="359.24" x2="794.57" y2="371.90" class="up-wick"/>
<rect x="790.57" y="364.44" width="8.00" height="2.67" class="up-body"/>
<line x1="809.20" y1="363.95" x2="809.20" y2="375.06" class="down-wick"/>
<rect x="805.20" y="364.16" width="8.00" height="9.35" class="down-body"/>
<line x1="823.84" y1="371.34" x2="823.84" y2="382.02" class="down-wick"/>
<rect x="819.84" y="373.51" width="8.00" height="4.71" class="down-body"/>
<line x1="838.48" y1="377.66" x2="838.48" y2="391.59" class="down-wick"/>
<rect x="834.48" y="378.23" width="8.00" height="5.06" class="down-body"/>
<line x1="853.12" y1="374.99" x2="853.12" y2="389.83" class="down-wick"/>
<rect x="849.12" y="383.85" width="8.00" height="5.70" class="down-body"/>
<line x1="867.75" y1="377.94" x2="867.75" y2="388.35" class="up-wick"/>
<rect x="863.75" y="380.97" width="8.00" height="7.31" class="up-body"/>
<line x1="882.39" y1="377.38" x2="882.39" y2="384.84" class="up-wick"/>
<rect x="878.39" y="378.37" width="8.00" height="1.34" class="up-body"/>
<line x1="897.03" y1="377.87" x2="897.03" y2="382.66" class="down-wick"/>
<rect x="893.03" y="378.16" width="8.00" height="3.59" class="down-body"/>
<line x1="911.67" y1="372.67" x2="911.67" y2="384.34" class="up-wick"/>
<rect x="907.67" y="373.51" width="8.00" height="8.23" class="up-body"/>
<line x1="926.30" y1="367.26" x2="926.30" y2="376.05" class="up-wick"/>
<rect x="922.30" y="370.56" width="8.00" height="2.95" class="up-body"/>
<line x1="940.94" y1="369.58" x2="940.94" y2="380.97" class="down-wick"/>
<rect x="936.94" y="370.42" width="8.00" height="9.14" class="down-body"/>
<line x1="955.58" y1="374.29" x2="955.58" y2="381.39" class="down-wick"/>
<rect x="951.58" y="379.56" width="8.00" height="1.00" class="down-body"/>
<line x1="970.22" y1="378.30" x2="970.22" y2="383.15" class="down-wick"/>
<rect x="966.22" y="379.84" width="8.00" height="1.97" class="down-body"/>
<line x1="984.86" y1="373.66" x2="984.86" y2="381.81" class="up-wick"/>
<rect x="980.86" y="374.36" width="8.00" height="7.45" class="up-body"/>
<line x1="999.49" y1="374.22" x2="999.49" y2="378.44" class="down-wick"/>
<rect x="995.49" y="374.36" width="8.00" height="3.66" class="down-body"/>
<line x1="1014.13" y1="374.43" x2="1014.13" y2="378.23" class="up-wick"/>
<rect x="1010.13" y="374.78" width="8.00" height="3.23" class="up-body"/>
<line x1="1028.77" y1="375.48" x2="1028.77" y2="385.40" class="down-wick"/>
<rect x="1024.77" y="375.69" width="8.00" height="6.68" class="down-body"/>
<line x1="1043.41" y1="381.81" x2="1043.41" y2="391.59" class="down-wick"/>
<rect x="1039.41" y="382.37" width="8.00" height="3.94" class="down-body"/>
<line x1="1058.04" y1="380.83" x2="1058.04" y2="388.28" class="down-wick"/>
<rect x="1054.04" y="386.31" width="8.00" height="1.00" class="down-body"/>
<line x1="1072.68" y1="381.04" x2="1072.68" y2="387.16" class="up-wick"/>
<rect x="1068.68" y="386.45" width="8.00" height="1.00" class="up-body"/>
<line x1="70" y1="366.41" x2="1080" y2="366.41" class="sweep-line"/>
<text x="1076" y="362.41" text-anchor="end" class="level-label">sweep 2358.59</text>
<text x="70" y="556" class="axis-label">2024-05-14 09:15:00+00:00 to 2024-05-15 03:15:00+00:00</text>
<text x="1080" y="556" text-anchor="end" class="axis-label">2334.19 - 2361.49</text>
<text x="70" y="582" class="panel-title">M1 execution window</text>
<rect x="70" y="596" width="1010" height="192" class="plot-bg"/>
<text x="82" y="638" class="muted">No candles available for this timeframe/window.</text>
</svg>