<svg xmlns="http://www.w3.org/2000/svg" width="1120" height="804" viewBox="0 0 1120 804">
<style>
text{font-family:Arial,Helvetica,sans-serif}.title{font-size:21px;font-weight:700;fill:#1f2937}.subtitle{font-size:12px;fill:#4b5563}.panel-title{font-size:15px;font-weight:700;fill:#111827}.muted{font-size:13px;fill:#6b7280}.plot-bg{fill:#f8fafc;stroke:#cbd5e1;stroke-width:1}.up-body{fill:#15803d;stroke:#14532d;stroke-width:.8}.down-body{fill:#b91c1c;stroke:#7f1d1d;stroke-width:.8}.up-wick{stroke:#14532d;stroke-width:1}.down-wick{stroke:#7f1d1d;stroke-width:1}.sweep-line{stroke:#7c3aed;stroke-width:1.6;stroke-dasharray:6 4}.number-line{stroke:#0f766e;stroke-width:1.4;stroke-dasharray:3 4}.entry-line{stroke:#2563eb;stroke-width:1.4}.sl-line{stroke:#dc2626;stroke-width:1.4}.tp-line{stroke:#16a34a;stroke-width:1.4}.level-label,.axis-label{font-size:11px;fill:#374151}
</style>
<text x="28" y="28" class="title">Adelin v2 visual review sample sample_036</text>
<text x="28" y="48" class="subtitle">Candidate windows are for visual labeling only and are not trade signals.</text>
<text x="560" y="48" class="subtitle" text-anchor="middle">LARGE_LOWER_WICK_REVERSAL_VISUAL_CANDIDATE</text>
<text x="70" y="82" class="panel-title">H1 liquidity context</text>
<rect x="70" y="96" width="1010" height="192" class="plot-bg"/>
<text x="82" y="138" class="muted">No candles available for this timeframe/window.</text>
<text x="70" y="332" class="panel-title">M15 liquidity / reaction context</text>
<rect x="70" y="346" width="1010" height="192" class="plot-bg"/>
<line x1="76.92" y1="497.13" x2="76.92" y2="501.24" class="up-wick"/>
<rect x="72.92" y="497.75" width="8.00" height="2.30" class="up-body"/>
<line x1="90.75" y1="491.91" x2="90.75" y2="500.67" class="up-wick"/>
<rect x="86.75" y="494.42" width="8.00" height="3.29" class="up-body"/>
<line x1="104.59" y1="492.44" x2="104.59" y2="503.17" class="down-wick"/>
<rect x="100.59" y="494.46" width="8.00" height="7.73" class="down-body"/>
<line x1="118.42" y1="499.72" x2="118.42" y2="504.74" class="up-wick"/>
<rect x="114.42" y="500.42" width="8.00" height="1.81" class="up-body"/>
<line x1="132.26" y1="495.73" x2="132.26" y2="505.72" class="up-wick"/>
<rect x="128.26" y="499.56" width="8.00" height="1.00" class="up-body"/>
<line x1="146.10" y1="488.99" x2="146.10" y2="500.79" class="up-wick"/>
<rect x="142.10" y="492.40" width="8.00" height="7.11" class="up-body"/>
<line x1="159.93" y1="484.26" x2="159.93" y2="495.20" class="up-wick"/>
<rect x="155.93" y="486.11" width="8.00" height="6.29" class="up-body"/>
<line x1="173.77" y1="480.11" x2="173.77" y2="488.99" class="down-wick"/>
<rect x="169.77" y="486.11" width="8.00" height="1.00" class="down-body"/>
<line x1="187.60" y1="480.48" x2="187.60" y2="494.25" class="down-wick"/>
<rect x="183.60" y="486.32" width="8.00" height="4.77" class="down-body"/>
<line x1="201.44" y1="483.56" x2="201.44" y2="491.91" class="up-wick"/>
<rect x="197.44" y="488.42" width="8.00" height="2.84" class="up-body"/>
<line x1="215.27" y1="486.52" x2="215.27" y2="491.46" class="down-wick"/>
<rect x="211.27" y="488.46" width="8.00" height="1.00" class="down-body"/>
<line x1="229.11" y1="487.92" x2="229.11" y2="494.87" class="down-wick"/>
<rect x="225.11" y="488.42" width="8.00" height="1.48" class="down-body"/>
<line x1="242.95" y1="484.67" x2="242.95" y2="492.69" class="up-wick"/>
<rect x="238.95" y="485.66" width="8.00" height="4.32" class="up-body"/>
<line x1="256.78" y1="482.82" x2="256.78" y2="487.35" class="up-wick"/>
<rect x="252.78" y="482.95" width="8.00" height="2.75" class="up-body"/>
<line x1="270.62" y1="480.85" x2="270.62" y2="486.28" class="up-wick"/>
<rect x="266.62" y="481.71" width="8.00" height="1.23" class="up-body"/>
<line x1="284.45" y1="480.77" x2="284.45" y2="484.30" class="down-wick"/>
<rect x="280.45" y="481.47" width="8.00" height="1.00" class="down-body"/>
<line x1="298.29" y1="473.74" x2="298.29" y2="483.52" class="up-wick"/>
<rect x="294.29" y="476.70" width="8.00" height="5.84" class="up-body"/>
<line x1="312.12" y1="476.04" x2="312.12" y2="481.76" class="down-wick"/>
<rect x="308.12" y="476.66" width="8.00" height="2.75" class="down-body"/>
<line x1="325.96" y1="477.19" x2="325.96" y2="481.71" class="down-wick"/>
<rect x="321.96" y="479.54" width="8.00" height="2.18" class="down-body"/>
<line x1="339.79" y1="476.00" x2="339.79" y2="481.67" class="up-wick"/>
<rect x="335.79" y="477.40" width="8.00" height="4.28" class="up-body"/>
<line x1="353.63" y1="472.46" x2="353.63" y2="477.93" class="up-wick"/>
<rect x="349.63" y="473.57" width="8.00" height="3.70" class="up-body"/>
<line x1="367.47" y1="467.12" x2="367.47" y2="473.66" class="up-wick"/>
<rect x="363.47" y="470.04" width="8.00" height="3.41" class="up-body"/>
<line x1="381.30" y1="468.44" x2="381.30" y2="477.48" class="down-wick"/>
<rect x="377.30" y="470.08" width="8.00" height="6.70" class="down-body"/>
<line x1="395.14" y1="471.93" x2="395.14" y2="478.26" class="up-wick"/>
<rect x="391.14" y="476.04" width="8.00" height="1.00" class="up-body"/>
<line x1="408.97" y1="472.05" x2="408.97" y2="477.97" class="down-wick"/>
<rect x="404.97" y="476.37" width="8.00" height="1.00" class="down-body"/>
<line x1="422.81" y1="472.92" x2="422.81" y2="481.92" class="up-wick"/>
<rect x="418.81" y="475.14" width="8.00" height="1.56" class="up-body"/>
<line x1="436.64" y1="473.29" x2="436.64" y2="483.73" class="down-wick"/>
<rect x="432.64" y="475.18" width="8.00" height="3.70" class="down-body"/>
<line x1="450.48" y1="462.27" x2="450.48" y2="480.77" class="up-wick"/>
<rect x="446.48" y="464.82" width="8.00" height="14.27" class="up-body"/>
<line x1="464.32" y1="463.25" x2="464.32" y2="472.92" class="down-wick"/>
<rect x="460.32" y="464.90" width="8.00" height="6.70" class="down-body"/>
<line x1="478.15" y1="461.61" x2="478.15" y2="474.07" class="up-wick"/>
<rect x="474.15" y="462.93" width="8.00" height="8.63" class="up-body"/>
<line x1="491.99" y1="460.13" x2="491.99" y2="468.56" class="down-wick"/>
<rect x="487.99" y="462.72" width="8.00" height="2.47" class="down-body"/>
<line x1="505.82" y1="462.60" x2="505.82" y2="470.08" class="up-wick"/>
<rect x="501.82" y="464.90" width="8.00" height="1.00" class="up-body"/>
<line x1="519.66" y1="463.42" x2="519.66" y2="471.60" class="down-wick"/>
<rect x="515.66" y="464.90" width="8.00" height="1.81" class="down-body"/>
<line x1="533.49" y1="464.86" x2="533.49" y2="470.70" class="down-wick"/>
<rect x="529.49" y="466.67" width="8.00" height="2.92" class="down-body"/>
<line x1="547.33" y1="466.96" x2="547.33" y2="471.77" class="down-wick"/>
<rect x="543.33" y="469.55" width="8.00" height="1.97" class="down-body"/>
<line x1="561.16" y1="471.03" x2="561.16" y2="476.25" class="down-wick"/>
<rect x="557.16" y="471.77" width="8.00" height="1.00" class="down-body"/>
<line x1="575.00" y1="471.31" x2="575.00" y2="484.84" class="down-wick"/>
<rect x="571.00" y="471.89" width="8.00" height="11.35" class="down-body"/>
<line x1="588.84" y1="477.36" x2="588.84" y2="485.41" class="up-wick"/>
<rect x="584.84" y="480.60" width="8.00" height="2.67" class="up-body"/>
<line x1="602.67" y1="472.22" x2="602.67" y2="483.89" class="up-wick"/>
<rect x="598.67" y="473.29" width="8.00" height="7.03" class="up-body"/>
<line x1="616.51" y1="470.61" x2="616.51" y2="477.11" class="down-wick"/>
<rect x="612.51" y="473.25" width="8.00" height="2.38" class="down-body"/>
<line x1="630.34" y1="472.01" x2="630.34" y2="478.01" class="up-wick"/>
<rect x="626.34" y="472.42" width="8.00" height="3.33" class="up-body"/>
<line x1="644.18" y1="469.01" x2="644.18" y2="479.45" class="down-wick"/>
<rect x="640.18" y="472.38" width="8.00" height="4.36" class="down-body"/>
<line x1="658.01" y1="472.26" x2="658.01" y2="479.58" class="up-wick"/>
<rect x="654.01" y="472.38" width="8.00" height="4.36" class="up-body"/>
<line x1="671.85" y1="471.68" x2="671.85" y2="483.69" class="down-wick"/>
<rect x="667.85" y="472.30" width="8.00" height="5.84" class="down-body"/>
<line x1="685.68" y1="468.39" x2="685.68" y2="478.92" class="up-wick"/>
<rect x="681.68" y="469.01" width="8.00" height="9.25" class="up-body"/>
<line x1="699.52" y1="460.99" x2="699.52" y2="469.09" class="up-wick"/>
<rect x="695.52" y="464.28" width="8.00" height="4.81" class="up-body"/>
<line x1="713.36" y1="458.03" x2="713.36" y2="468.02" class="down-wick"/>
<rect x="709.36" y="464.28" width="8.00" height="2.63" class="down-body"/>
<line x1="727.19" y1="427.32" x2="727.19" y2="524.76" class="up-wick"/>
<rect x="723.19" y="440.40" width="8.00" height="41.65" class="up-body"/>
<line x1="741.03" y1="435.79" x2="741.03" y2="463.34" class="down-wick"/>
<rect x="737.03" y="440.11" width="8.00" height="3.00" class="down-body"/>
<line x1="754.86" y1="410.63" x2="754.86" y2="449.03" class="up-wick"/>
<rect x="750.86" y="423.58" width="8.00" height="19.57" class="up-body"/>
<line x1="768.70" y1="423.09" x2="768.70" y2="445.08" class="down-wick"/>
<rect x="764.70" y="423.58" width="8.00" height="9.87" class="down-body"/>
<line x1="782.53" y1="389.95" x2="782.53" y2="434.02" class="up-wick"/>
<rect x="778.53" y="395.54" width="8.00" height="38.15" class="up-body"/>
<line x1="796.37" y1="389.66" x2="796.37" y2="414.70" class="down-wick"/>
<rect x="792.37" y="394.76" width="8.00" height="2.92" class="down-body"/>
<line x1="810.21" y1="396.16" x2="810.21" y2="433.37" class="down-wick"/>
<rect x="806.21" y="397.93" width="8.00" height="24.26" class="down-body"/>
<line x1="824.04" y1="411.99" x2="824.04" y2="428.52" class="up-wick"/>
<rect x="820.04" y="418.15" width="8.00" height="4.11" class="up-body"/>
<line x1="837.88" y1="393.24" x2="837.88" y2="418.57" class="up-wick"/>
<rect x="833.88" y="396.78" width="8.00" height="21.21" class="up-body"/>
<line x1="851.71" y1="392.67" x2="851.71" y2="409.97" class="down-wick"/>
<rect x="847.71" y="396.82" width="8.00" height="11.22" class="down-body"/>
<line x1="865.55" y1="395.58" x2="865.55" y2="416.88" class="up-wick"/>
<rect x="861.55" y="397.93" width="8.00" height="9.95" class="up-body"/>
<line x1="879.38" y1="384.73" x2="879.38" y2="398.01" class="up-wick"/>
<rect x="875.38" y="391.35" width="8.00" height="6.29" class="up-body"/>
<line x1="893.22" y1="376.59" x2="893.22" y2="393.94" class="down-wick"/>
<rect x="889.22" y="391.56" width="8.00" height="1.03" class="down-body"/>
<line x1="907.05" y1="386.91" x2="907.05" y2="400.23" class="up-wick"/>
<rect x="903.05" y="391.60" width="8.00" height="1.00" class="up-body"/>
<line x1="920.89" y1="382.47" x2="920.89" y2="393.69" class="up-wick"/>
<rect x="916.89" y="391.60" width="8.00" height="1.00" class="up-body"/>
<line x1="934.73" y1="384.85" x2="934.73" y2="394.39" class="up-wick"/>
<rect x="930.73" y="388.27" width="8.00" height="3.45" class="up-body"/>
<line x1="948.56" y1="379.67" x2="948.56" y2="389.62" class="up-wick"/>
<rect x="944.56" y="386.29" width="8.00" height="2.01" class="up-body"/>
<line x1="962.40" y1="380.74" x2="962.40" y2="390.12" class="up-wick"/>
<rect x="958.40" y="384.40" width="8.00" height="2.06" class="up-body"/>
<line x1="976.23" y1="372.93" x2="976.23" y2="386.21" class="up-wick"/>
<rect x="972.23" y="374.62" width="8.00" height="9.41" class="up-body"/>
<line x1="990.07" y1="370.67" x2="990.07" y2="382.96" class="up-wick"/>
<rect x="986.07" y="371.20" width="8.00" height="3.91" class="up-body"/>
<line x1="1003.90" y1="370.05" x2="1003.90" y2="391.97" class="down-wick"/>
<rect x="999.90" y="371.33" width="8.00" height="13.28" class="down-body"/>
<line x1="1017.74" y1="382.68" x2="1017.74" y2="389.42" class="down-wick"/>
<rect x="1013.74" y="384.65" width="8.00" height="2.38" class="down-body"/>
<line x1="1031.58" y1="378.85" x2="1031.58" y2="389.66" class="up-wick"/>
<rect x="1027.58" y="380.00" width="8.00" height="7.03" class="up-body"/>
<line x1="1045.41" y1="365.24" x2="1045.41" y2="380.00" class="up-wick"/>
<rect x="1041.41" y="369.68" width="8.00" height="10.32" class="up-body"/>
<line x1="1059.25" y1="359.24" x2="1059.25" y2="375.19" class="up-wick"/>
<rect x="1055.25" y="362.20" width="8.00" height="7.19" class="up-body"/>
<line x1="1073.08" y1="359.69" x2="1073.08" y2="366.64" class="down-wick"/>
<rect x="1069.08" y="362.20" width="8.00" height="3.25" class="down-body"/>
<text x="70" y="556" class="axis-label">2024-07-05 03:45:00+00:00 to 2024-07-05 21:45:00+00:00</text>
<text x="1080" y="556" text-anchor="end" class="axis-label">2349.08 - 2395.78</text>
<text x="70" y="582" class="panel-title">M1 execution window</text>
<rect x="70" y="596" width="1010" height="192" class="plot-bg"/>
<text x="82" y="638" class="muted">No candles available for this timeframe/window.</text>
</svg>