<svg xmlns="http://www.w3.org/2000/svg" width="1120" height="804" viewBox="0 0 1120 804">
<style>
text{font-family:Arial,Helvetica,sans-serif}.title{font-size:21px;font-weight:700;fill:#1f2937}.subtitle{font-size:12px;fill:#4b5563}.panel-title{font-size:15px;font-weight:700;fill:#111827}.muted{font-size:13px;fill:#6b7280}.plot-bg{fill:#f8fafc;stroke:#cbd5e1;stroke-width:1}.up-body{fill:#15803d;stroke:#14532d;stroke-width:.8}.down-body{fill:#b91c1c;stroke:#7f1d1d;stroke-width:.8}.up-wick{stroke:#14532d;stroke-width:1}.down-wick{stroke:#7f1d1d;stroke-width:1}.sweep-line{stroke:#7c3aed;stroke-width:1.6;stroke-dasharray:6 4}.number-line{stroke:#0f766e;stroke-width:1.4;stroke-dasharray:3 4}.entry-line{stroke:#2563eb;stroke-width:1.4}.sl-line{stroke:#dc2626;stroke-width:1.4}.tp-line{stroke:#16a34a;stroke-width:1.4}.level-label,.axis-label{font-size:11px;fill:#374151}
</style>
<text x="28" y="28" class="title">Adelin v2 visual review sample sample_026</text>
<text x="28" y="48" class="subtitle">Candidate windows are for visual labeling only and are not trade signals.</text>
<text x="560" y="48" class="subtitle" text-anchor="middle">M15_SWING_HIGH_SWEEP_VISUAL_CANDIDATE</text>
<text x="70" y="82" class="panel-title">H1 liquidity context</text>
<rect x="70" y="96" width="1010" height="192" class="plot-bg"/>
<text x="82" y="138" class="muted">No candles available for this timeframe/window.</text>
<text x="70" y="332" class="panel-title">M15 liquidity / reaction context</text>
<rect x="70" y="346" width="1010" height="192" class="plot-bg"/>
<line x1="76.92" y1="469.70" x2="76.92" y2="487.63" class="up-wick"/>
<rect x="72.92" y="473.01" width="8.00" height="10.69" class="up-body"/>
<line x1="90.75" y1="469.42" x2="90.75" y2="480.46" class="down-wick"/>
<rect x="86.75" y="473.15" width="8.00" height="6.26" class="down-body"/>
<line x1="104.59" y1="466.19" x2="104.59" y2="482.08" class="up-wick"/>
<rect x="100.59" y="477.44" width="8.00" height="2.11" class="up-body"/>
<line x1="118.42" y1="475.05" x2="118.42" y2="496.28" class="down-wick"/>
<rect x="114.42" y="477.44" width="8.00" height="16.31" class="down-body"/>
<line x1="132.26" y1="486.65" x2="132.26" y2="497.20" class="up-wick"/>
<rect x="128.26" y="489.88" width="8.00" height="3.87" class="up-body"/>
<line x1="146.10" y1="479.06" x2="146.10" y2="491.29" class="up-wick"/>
<rect x="142.10" y="479.06" width="8.00" height="11.11" class="up-body"/>
<line x1="159.93" y1="471.95" x2="159.93" y2="481.38" class="up-wick"/>
<rect x="155.93" y="473.57" width="8.00" height="5.13" class="up-body"/>
<line x1="173.77" y1="472.16" x2="173.77" y2="478.84" class="down-wick"/>
<rect x="169.77" y="473.57" width="8.00" height="1.48" class="down-body"/>
<line x1="187.60" y1="464.15" x2="187.60" y2="476.59" class="up-wick"/>
<rect x="183.60" y="467.52" width="8.00" height="7.59" class="up-body"/>
<line x1="201.44" y1="466.26" x2="201.44" y2="475.54" class="down-wick"/>
<rect x="197.44" y="467.52" width="8.00" height="6.61" class="down-body"/>
<line x1="215.27" y1="464.08" x2="215.27" y2="479.06" class="up-wick"/>
<rect x="211.27" y="464.08" width="8.00" height="10.05" class="up-body"/>
<line x1="229.11" y1="463.38" x2="229.11" y2="468.72" class="down-wick"/>
<rect x="225.11" y="464.08" width="8.00" height="4.50" class="down-body"/>
<line x1="242.95" y1="464.71" x2="242.95" y2="476.10" class="down-wick"/>
<rect x="238.95" y="468.58" width="8.00" height="5.98" class="down-body"/>
<line x1="256.78" y1="467.59" x2="256.78" y2="478.77" class="up-wick"/>
<rect x="252.78" y="472.66" width="8.00" height="1.83" class="up-body"/>
<line x1="270.62" y1="455.64" x2="270.62" y2="474.41" class="up-wick"/>
<rect x="266.62" y="459.09" width="8.00" height="13.29" class="up-body"/>
<line x1="284.45" y1="458.17" x2="284.45" y2="472.66" class="down-wick"/>
<rect x="280.45" y="459.16" width="8.00" height="4.92" class="down-body"/>
<line x1="298.29" y1="460.77" x2="298.29" y2="479.90" class="down-wick"/>
<rect x="294.29" y="463.87" width="8.00" height="15.61" class="down-body"/>
<line x1="312.12" y1="476.24" x2="312.12" y2="492.91" class="down-wick"/>
<rect x="308.12" y="479.34" width="8.00" height="13.50" class="down-body"/>
<line x1="325.96" y1="490.52" x2="325.96" y2="519.41" class="down-wick"/>
<rect x="321.96" y="493.26" width="8.00" height="15.96" class="down-body"/>
<line x1="339.79" y1="504.51" x2="339.79" y2="516.32" class="down-wick"/>
<rect x="335.79" y="509.22" width="8.00" height="1.00" class="down-body"/>
<line x1="353.63" y1="499.16" x2="353.63" y2="511.82" class="up-wick"/>
<rect x="349.63" y="499.73" width="8.00" height="10.34" class="up-body"/>
<line x1="367.47" y1="499.66" x2="367.47" y2="524.76" class="down-wick"/>
<rect x="363.47" y="499.66" width="8.00" height="22.57" class="down-body"/>
<line x1="381.30" y1="500.15" x2="381.30" y2="522.23" class="up-wick"/>
<rect x="377.30" y="507.67" width="8.00" height="14.55" class="up-body"/>
<line x1="395.14" y1="500.50" x2="395.14" y2="510.63" class="up-wick"/>
<rect x="391.14" y="503.45" width="8.00" height="5.06" class="up-body"/>
<line x1="408.97" y1="499.16" x2="408.97" y2="511.82" class="down-wick"/>
<rect x="404.97" y="501.70" width="8.00" height="1.13" class="down-body"/>
<line x1="422.81" y1="496.35" x2="422.81" y2="510.63" class="down-wick"/>
<rect x="418.81" y="502.82" width="8.00" height="4.29" class="down-body"/>
<line x1="436.64" y1="488.97" x2="436.64" y2="512.88" class="up-wick"/>
<rect x="432.64" y="489.88" width="8.00" height="17.23" class="up-body"/>
<line x1="450.48" y1="469.84" x2="450.48" y2="495.65" class="up-wick"/>
<rect x="446.48" y="471.04" width="8.00" height="19.13" class="up-body"/>
<line x1="464.32" y1="444.74" x2="464.32" y2="471.32" class="up-wick"/>
<rect x="460.32" y="446.92" width="8.00" height="24.26" class="up-body"/>
<line x1="478.15" y1="439.54" x2="478.15" y2="457.75" class="down-wick"/>
<rect x="474.15" y="446.36" width="8.00" height="2.39" class="down-body"/>
<line x1="491.99" y1="442.63" x2="491.99" y2="464.36" class="down-wick"/>
<rect x="487.99" y="449.95" width="8.00" height="9.42" class="down-body"/>
<line x1="505.82" y1="448.75" x2="505.82" y2="460.14" class="up-wick"/>
<rect x="501.82" y="456.13" width="8.00" height="3.23" class="up-body"/>
<line x1="519.66" y1="448.82" x2="519.66" y2="461.76" class="up-wick"/>
<rect x="515.66" y="449.24" width="8.00" height="6.89" class="up-body"/>
<line x1="533.49" y1="444.18" x2="533.49" y2="463.16" class="down-wick"/>
<rect x="529.49" y="447.84" width="8.00" height="15.33" class="down-body"/>
<line x1="547.33" y1="461.55" x2="547.33" y2="478.42" class="down-wick"/>
<rect x="543.33" y="461.55" width="8.00" height="4.92" class="down-body"/>
<line x1="561.16" y1="452.83" x2="561.16" y2="468.65" class="up-wick"/>
<rect x="557.16" y="456.91" width="8.00" height="9.21" class="up-body"/>
<line x1="575.00" y1="453.39" x2="575.00" y2="464.85" class="down-wick"/>
<rect x="571.00" y="457.12" width="8.00" height="6.33" class="down-body"/>
<line x1="588.84" y1="456.63" x2="588.84" y2="479.83" class="down-wick"/>
<rect x="584.84" y="463.45" width="8.00" height="11.18" class="down-body"/>
<line x1="602.67" y1="467.59" x2="602.67" y2="479.48" class="down-wick"/>
<rect x="598.67" y="474.70" width="8.00" height="1.20" class="down-body"/>
<line x1="616.51" y1="465.70" x2="616.51" y2="475.26" class="up-wick"/>
<rect x="612.51" y="472.16" width="8.00" height="2.95" class="up-body"/>
<line x1="630.34" y1="448.19" x2="630.34" y2="472.94" class="up-wick"/>
<rect x="626.34" y="451.21" width="8.00" height="20.74" class="up-body"/>
<line x1="644.18" y1="438.77" x2="644.18" y2="473.64" class="down-wick"/>
<rect x="640.18" y="451.56" width="8.00" height="21.02" class="down-body"/>
<line x1="658.01" y1="446.71" x2="658.01" y2="520.89" class="up-wick"/>
<rect x="654.01" y="451.70" width="8.00" height="55.69" class="up-body"/>
<line x1="671.85" y1="425.12" x2="671.85" y2="468.65" class="up-wick"/>
<rect x="667.85" y="439.54" width="8.00" height="11.95" class="up-body"/>
<line x1="685.68" y1="408.88" x2="685.68" y2="455.01" class="up-wick"/>
<rect x="681.68" y="429.70" width="8.00" height="9.21" class="up-body"/>
<line x1="699.52" y1="421.47" x2="699.52" y2="445.87" class="down-wick"/>
<rect x="695.52" y="428.92" width="8.00" height="8.44" class="down-body"/>
<line x1="713.36" y1="428.71" x2="713.36" y2="462.39" class="down-wick"/>
<rect x="709.36" y="436.87" width="8.00" height="5.55" class="down-body"/>
<line x1="727.19" y1="392.57" x2="727.19" y2="442.35" class="up-wick"/>
<rect x="723.19" y="399.67" width="8.00" height="42.68" class="up-body"/>
<line x1="741.03" y1="377.38" x2="741.03" y2="435.53" class="down-wick"/>
<rect x="737.03" y="400.37" width="8.00" height="22.85" class="down-body"/>
<line x1="754.86" y1="412.40" x2="754.86" y2="440.31" class="up-wick"/>
<rect x="750.86" y="413.80" width="8.00" height="9.35" class="up-body"/>
<line x1="768.70" y1="387.72" x2="768.70" y2="424.00" class="up-wick"/>
<rect x="764.70" y="400.23" width="8.00" height="14.20" class="up-body"/>
<line x1="782.53" y1="397.77" x2="782.53" y2="412.19" class="down-wick"/>
<rect x="778.53" y="400.16" width="8.00" height="4.92" class="down-body"/>
<line x1="796.37" y1="403.33" x2="796.37" y2="423.65" class="down-wick"/>
<rect x="792.37" y="405.23" width="8.00" height="16.10" class="down-body"/>
<line x1="810.21" y1="412.82" x2="810.21" y2="429.77" class="down-wick"/>
<rect x="806.21" y="420.98" width="8.00" height="1.90" class="down-body"/>
<line x1="824.04" y1="400.02" x2="824.04" y2="424.84" class="up-wick"/>
<rect x="820.04" y="417.39" width="8.00" height="5.48" class="up-body"/>
<line x1="837.88" y1="412.05" x2="837.88" y2="445.73" class="down-wick"/>
<rect x="833.88" y="417.53" width="8.00" height="23.13" class="down-body"/>
<line x1="851.71" y1="432.93" x2="851.71" y2="451.91" class="up-wick"/>
<rect x="847.71" y="433.42" width="8.00" height="8.16" class="up-body"/>
<line x1="865.55" y1="425.48" x2="865.55" y2="443.55" class="down-wick"/>
<rect x="861.55" y="433.42" width="8.00" height="1.00" class="down-body"/>
<line x1="879.38" y1="403.89" x2="879.38" y2="442.28" class="up-wick"/>
<rect x="875.38" y="411.55" width="8.00" height="22.43" class="up-body"/>
<line x1="893.22" y1="388.21" x2="893.22" y2="411.98" class="up-wick"/>
<rect x="889.22" y="397.28" width="8.00" height="14.70" class="up-body"/>
<line x1="907.05" y1="389.41" x2="907.05" y2="405.44" class="down-wick"/>
<rect x="903.05" y="397.42" width="8.00" height="5.98" class="down-body"/>
<line x1="920.89" y1="392.57" x2="920.89" y2="412.75" class="up-wick"/>
<rect x="916.89" y="397.56" width="8.00" height="6.61" class="up-body"/>
<line x1="934.73" y1="390.95" x2="934.73" y2="400.30" class="up-wick"/>
<rect x="930.73" y="391.16" width="8.00" height="6.47" class="up-body"/>
<line x1="948.56" y1="380.76" x2="948.56" y2="392.64" class="up-wick"/>
<rect x="944.56" y="385.47" width="8.00" height="5.55" class="up-body"/>
<line x1="962.40" y1="366.41" x2="962.40" y2="386.73" class="up-wick"/>
<rect x="958.40" y="366.91" width="8.00" height="18.56" class="up-body"/>
<line x1="976.23" y1="359.94" x2="976.23" y2="373.44" class="down-wick"/>
<rect x="972.23" y="366.91" width="8.00" height="1.00" class="down-body"/>
<line x1="990.07" y1="359.24" x2="990.07" y2="371.90" class="up-wick"/>
<rect x="986.07" y="364.44" width="8.00" height="2.67" class="up-body"/>
<line x1="1003.90" y1="363.95" x2="1003.90" y2="375.06" class="down-wick"/>
<rect x="999.90" y="364.16" width="8.00" height="9.35" class="down-body"/>
<line x1="1017.74" y1="371.34" x2="1017.74" y2="382.02" class="down-wick"/>
<rect x="1013.74" y="373.51" width="8.00" height="4.71" class="down-body"/>
<line x1="1031.58" y1="377.66" x2="1031.58" y2="391.59" class="down-wick"/>
<rect x="1027.58" y="378.23" width="8.00" height="5.06" class="down-body"/>
<line x1="1045.41" y1="374.99" x2="1045.41" y2="389.83" class="down-wick"/>
<rect x="1041.41" y="383.85" width="8.00" height="5.70" class="down-body"/>
<line x1="1059.25" y1="377.94" x2="1059.25" y2="388.35" class="up-wick"/>
<rect x="1055.25" y="380.97" width="8.00" height="7.31" class="up-body"/>
<line x1="1073.08" y1="377.38" x2="1073.08" y2="384.84" class="up-wick"/>
<rect x="1069.08" y="378.37" width="8.00" height="1.34" class="up-body"/>
<line x1="70" y1="392.57" x2="1080" y2="392.57" class="sweep-line"/>
<text x="1076" y="388.57" text-anchor="end" class="level-label">sweep 2354.87</text>
<text x="70" y="556" class="axis-label">2024-05-14 05:00:00+00:00 to 2024-05-14 23:00:00+00:00</text>
<text x="1080" y="556" text-anchor="end" class="axis-label">2334.19 - 2361.49</text>
<text x="70" y="582" class="panel-title">M1 execution window</text>
<rect x="70" y="596" width="1010" height="192" class="plot-bg"/>
<text x="82" y="638" class="muted">No candles available for this timeframe/window.</text>
</svg>