<svg xmlns="http://www.w3.org/2000/svg" width="1120" height="804" viewBox="0 0 1120 804">
<style>
text{font-family:Arial,Helvetica,sans-serif}.title{font-size:21px;font-weight:700;fill:#1f2937}.subtitle{font-size:12px;fill:#4b5563}.panel-title{font-size:15px;font-weight:700;fill:#111827}.muted{font-size:13px;fill:#6b7280}.plot-bg{fill:#f8fafc;stroke:#cbd5e1;stroke-width:1}.up-body{fill:#15803d;stroke:#14532d;stroke-width:.8}.down-body{fill:#b91c1c;stroke:#7f1d1d;stroke-width:.8}.up-wick{stroke:#14532d;stroke-width:1}.down-wick{stroke:#7f1d1d;stroke-width:1}.sweep-line{stroke:#7c3aed;stroke-width:1.6;stroke-dasharray:6 4}.number-line{stroke:#0f766e;stroke-width:1.4;stroke-dasharray:3 4}.entry-line{stroke:#2563eb;stroke-width:1.4}.sl-line{stroke:#dc2626;stroke-width:1.4}.tp-line{stroke:#16a34a;stroke-width:1.4}.level-label,.axis-label{font-size:11px;fill:#374151}
</style>
<text x="28" y="28" class="title">Adelin v2 visual review sample sample_010</text>
<text x="28" y="48" class="subtitle">Candidate windows are for visual labeling only and are not trade signals.</text>
<text x="560" y="48" class="subtitle" text-anchor="middle">M15_SWING_HIGH_SWEEP_VISUAL_CANDIDATE</text>
<text x="70" y="82" class="panel-title">H1 liquidity context</text>
<rect x="70" y="96" width="1010" height="192" class="plot-bg"/>
<text x="82" y="138" class="muted">No candles available for this timeframe/window.</text>
<text x="70" y="332" class="panel-title">M15 liquidity / reaction context</text>
<rect x="70" y="346" width="1010" height="192" class="plot-bg"/>
<line x1="77.21" y1="499.70" x2="77.21" y2="516.85" class="up-wick"/>
<rect x="73.21" y="507.98" width="8.00" height="7.16" class="up-body"/>
<line x1="91.64" y1="498.73" x2="91.64" y2="507.98" class="up-wick"/>
<rect x="87.64" y="501.86" width="8.00" height="6.12" class="up-body"/>
<line x1="106.07" y1="499.77" x2="106.07" y2="503.87" class="up-wick"/>
<rect x="102.07" y="499.77" width="8.00" height="2.61" class="up-body"/>
<line x1="120.50" y1="498.28" x2="120.50" y2="505.51" class="down-wick"/>
<rect x="116.50" y="500.52" width="8.00" height="4.25" class="down-body"/>
<line x1="134.93" y1="499.02" x2="134.93" y2="504.92" class="up-wick"/>
<rect x="130.93" y="500.74" width="8.00" height="4.03" class="up-body"/>
<line x1="149.36" y1="499.70" x2="149.36" y2="504.10" class="down-wick"/>
<rect x="145.36" y="500.74" width="8.00" height="2.98" class="down-body"/>
<line x1="163.79" y1="501.26" x2="163.79" y2="505.66" class="up-wick"/>
<rect x="159.79" y="501.26" width="8.00" height="2.46" class="up-body"/>
<line x1="178.21" y1="491.94" x2="178.21" y2="504.25" class="up-wick"/>
<rect x="174.21" y="498.88" width="8.00" height="2.39" class="up-body"/>
<line x1="192.64" y1="494.03" x2="192.64" y2="503.80" class="up-wick"/>
<rect x="188.64" y="494.77" width="8.00" height="4.10" class="up-body"/>
<line x1="207.07" y1="488.81" x2="207.07" y2="499.40" class="down-wick"/>
<rect x="203.07" y="495.30" width="8.00" height="3.95" class="down-body"/>
<line x1="221.50" y1="497.91" x2="221.50" y2="523.34" class="down-wick"/>
<rect x="217.50" y="498.95" width="8.00" height="23.50" class="down-body"/>
<line x1="235.93" y1="509.77" x2="235.93" y2="524.76" class="up-wick"/>
<rect x="231.93" y="513.42" width="8.00" height="9.10" class="up-body"/>
<line x1="250.36" y1="482.76" x2="250.36" y2="513.35" class="up-wick"/>
<rect x="246.36" y="485.67" width="8.00" height="27.67" class="up-body"/>
<line x1="264.79" y1="478.81" x2="264.79" y2="501.11" class="down-wick"/>
<rect x="260.79" y="485.60" width="8.00" height="10.96" class="down-body"/>
<line x1="279.21" y1="484.85" x2="279.21" y2="503.35" class="up-wick"/>
<rect x="275.21" y="494.77" width="8.00" height="1.12" class="up-body"/>
<line x1="293.64" y1="471.20" x2="293.64" y2="496.94" class="up-wick"/>
<rect x="289.64" y="472.02" width="8.00" height="22.23" class="up-body"/>
<line x1="308.07" y1="457.18" x2="308.07" y2="476.20" class="up-wick"/>
<rect x="304.07" y="460.69" width="8.00" height="11.34" class="up-body"/>
<line x1="322.50" y1="456.88" x2="322.50" y2="468.59" class="down-wick"/>
<rect x="318.50" y="460.83" width="8.00" height="6.64" class="down-body"/>
<line x1="336.93" y1="453.45" x2="336.93" y2="470.31" class="up-wick"/>
<rect x="332.93" y="465.38" width="8.00" height="2.24" class="up-body"/>
<line x1="351.36" y1="462.85" x2="351.36" y2="485.37" class="down-wick"/>
<rect x="347.36" y="465.38" width="8.00" height="17.31" class="down-body"/>
<line x1="365.79" y1="475.16" x2="365.79" y2="486.34" class="up-wick"/>
<rect x="361.79" y="478.59" width="8.00" height="4.10" class="up-body"/>
<line x1="380.21" y1="467.10" x2="380.21" y2="480.08" class="up-wick"/>
<rect x="376.21" y="467.10" width="8.00" height="11.79" class="up-body"/>
<line x1="394.64" y1="459.57" x2="394.64" y2="469.56" class="up-wick"/>
<rect x="390.64" y="461.28" width="8.00" height="5.45" class="up-body"/>
<line x1="409.07" y1="459.79" x2="409.07" y2="466.88" class="down-wick"/>
<rect x="405.07" y="461.28" width="8.00" height="1.57" class="down-body"/>
<line x1="423.50" y1="451.29" x2="423.50" y2="464.49" class="up-wick"/>
<rect x="419.50" y="454.87" width="8.00" height="8.06" class="up-body"/>
<line x1="437.93" y1="453.52" x2="437.93" y2="463.37" class="down-wick"/>
<rect x="433.93" y="454.87" width="8.00" height="7.01" class="down-body"/>
<line x1="452.36" y1="451.21" x2="452.36" y2="467.10" class="up-wick"/>
<rect x="448.36" y="451.21" width="8.00" height="10.67" class="up-body"/>
<line x1="466.79" y1="450.47" x2="466.79" y2="456.13" class="down-wick"/>
<rect x="462.79" y="451.21" width="8.00" height="4.77" class="down-body"/>
<line x1="481.21" y1="451.88" x2="481.21" y2="463.97" class="down-wick"/>
<rect x="477.21" y="455.99" width="8.00" height="6.34" class="down-body"/>
<line x1="495.64" y1="454.94" x2="495.64" y2="466.80" class="up-wick"/>
<rect x="491.64" y="460.31" width="8.00" height="1.94" class="up-body"/>
<line x1="510.07" y1="442.26" x2="510.07" y2="462.18" class="up-wick"/>
<rect x="506.07" y="445.92" width="8.00" height="14.10" class="up-body"/>
<line x1="524.50" y1="444.95" x2="524.50" y2="460.31" class="down-wick"/>
<rect x="520.50" y="445.99" width="8.00" height="5.22" class="down-body"/>
<line x1="538.93" y1="447.71" x2="538.93" y2="467.99" class="down-wick"/>
<rect x="534.93" y="450.99" width="8.00" height="16.56" class="down-body"/>
<line x1="553.36" y1="464.12" x2="553.36" y2="481.79" class="down-wick"/>
<rect x="549.36" y="467.40" width="8.00" height="14.32" class="down-body"/>
<line x1="567.79" y1="479.26" x2="567.79" y2="509.92" class="down-wick"/>
<rect x="563.79" y="482.17" width="8.00" height="16.93" class="down-body"/>
<line x1="582.21" y1="494.10" x2="582.21" y2="506.63" class="down-wick"/>
<rect x="578.21" y="499.10" width="8.00" height="1.00" class="down-body"/>
<line x1="596.64" y1="488.43" x2="596.64" y2="501.86" class="up-wick"/>
<rect x="592.64" y="489.03" width="8.00" height="10.96" class="up-body"/>
<line x1="611.07" y1="488.95" x2="611.07" y2="515.58" class="down-wick"/>
<rect x="607.07" y="488.95" width="8.00" height="23.94" class="down-body"/>
<line x1="625.50" y1="489.48" x2="625.50" y2="512.90" class="up-wick"/>
<rect x="621.50" y="497.46" width="8.00" height="15.44" class="up-body"/>
<line x1="639.93" y1="489.85" x2="639.93" y2="500.59" class="up-wick"/>
<rect x="635.93" y="492.98" width="8.00" height="5.37" class="up-body"/>
<line x1="654.36" y1="488.43" x2="654.36" y2="501.86" class="down-wick"/>
<rect x="650.36" y="491.12" width="8.00" height="1.19" class="down-body"/>
<line x1="668.79" y1="485.45" x2="668.79" y2="500.59" class="down-wick"/>
<rect x="664.79" y="492.31" width="8.00" height="4.55" class="down-body"/>
<line x1="683.21" y1="477.62" x2="683.21" y2="502.98" class="up-wick"/>
<rect x="679.21" y="478.59" width="8.00" height="18.27" class="up-body"/>
<line x1="697.64" y1="457.33" x2="697.64" y2="484.70" class="up-wick"/>
<rect x="693.64" y="458.60" width="8.00" height="20.29" class="up-body"/>
<line x1="712.07" y1="430.70" x2="712.07" y2="458.89" class="up-wick"/>
<rect x="708.07" y="433.01" width="8.00" height="25.73" class="up-body"/>
<line x1="726.50" y1="425.18" x2="726.50" y2="444.50" class="down-wick"/>
<rect x="722.50" y="432.42" width="8.00" height="2.54" class="down-body"/>
<line x1="740.93" y1="428.46" x2="740.93" y2="451.51" class="down-wick"/>
<rect x="736.93" y="436.22" width="8.00" height="10.00" class="down-body"/>
<line x1="755.36" y1="434.95" x2="755.36" y2="447.03" class="up-wick"/>
<rect x="751.36" y="442.78" width="8.00" height="3.43" class="up-body"/>
<line x1="769.79" y1="435.03" x2="769.79" y2="448.75" class="up-wick"/>
<rect x="765.79" y="435.47" width="8.00" height="7.31" class="up-body"/>
<line x1="784.21" y1="430.10" x2="784.21" y2="450.24" class="down-wick"/>
<rect x="780.21" y="433.98" width="8.00" height="16.26" class="down-body"/>
<line x1="798.64" y1="448.53" x2="798.64" y2="466.43" class="down-wick"/>
<rect x="794.64" y="448.53" width="8.00" height="5.22" class="down-body"/>
<line x1="813.07" y1="439.28" x2="813.07" y2="456.06" class="up-wick"/>
<rect x="809.07" y="443.60" width="8.00" height="9.77" class="up-body"/>
<line x1="827.50" y1="439.87" x2="827.50" y2="452.03" class="down-wick"/>
<rect x="823.50" y="443.83" width="8.00" height="6.71" class="down-body"/>
<line x1="841.93" y1="443.31" x2="841.93" y2="467.92" class="down-wick"/>
<rect x="837.93" y="450.54" width="8.00" height="11.86" class="down-body"/>
<line x1="856.36" y1="454.94" x2="856.36" y2="467.55" class="down-wick"/>
<rect x="852.36" y="462.48" width="8.00" height="1.27" class="down-body"/>
<line x1="870.79" y1="452.93" x2="870.79" y2="463.07" class="up-wick"/>
<rect x="866.79" y="459.79" width="8.00" height="3.13" class="up-body"/>
<line x1="885.21" y1="434.35" x2="885.21" y2="460.61" class="up-wick"/>
<rect x="881.21" y="437.56" width="8.00" height="22.00" class="up-body"/>
<line x1="899.64" y1="424.36" x2="899.64" y2="461.36" class="down-wick"/>
<rect x="895.64" y="437.93" width="8.00" height="22.30" class="down-body"/>
<line x1="914.07" y1="432.79" x2="914.07" y2="511.48" class="up-wick"/>
<rect x="910.07" y="438.08" width="8.00" height="59.08" class="up-body"/>
<line x1="928.50" y1="409.89" x2="928.50" y2="456.06" class="up-wick"/>
<rect x="924.50" y="425.18" width="8.00" height="12.68" class="up-body"/>
<line x1="942.93" y1="392.66" x2="942.93" y2="441.59" class="up-wick"/>
<rect x="938.93" y="414.74" width="8.00" height="9.77" class="up-body"/>
<line x1="957.36" y1="406.01" x2="957.36" y2="431.89" class="down-wick"/>
<rect x="953.36" y="413.92" width="8.00" height="8.95" class="down-body"/>
<line x1="971.79" y1="413.69" x2="971.79" y2="449.42" class="down-wick"/>
<rect x="967.79" y="422.35" width="8.00" height="5.89" class="down-body"/>
<line x1="986.21" y1="375.35" x2="986.21" y2="428.16" class="up-wick"/>
<rect x="982.21" y="382.89" width="8.00" height="45.28" class="up-body"/>
<line x1="1000.64" y1="359.24" x2="1000.64" y2="420.93" class="down-wick"/>
<rect x="996.64" y="383.63" width="8.00" height="24.24" class="down-body"/>
<line x1="1015.07" y1="396.39" x2="1015.07" y2="426.00" class="up-wick"/>
<rect x="1011.07" y="397.88" width="8.00" height="9.92" class="up-body"/>
<line x1="1029.50" y1="370.21" x2="1029.50" y2="408.70" class="up-wick"/>
<rect x="1025.50" y="383.48" width="8.00" height="15.07" class="up-body"/>
<line x1="1043.93" y1="380.87" x2="1043.93" y2="396.16" class="down-wick"/>
<rect x="1039.93" y="383.41" width="8.00" height="5.22" class="down-body"/>
<line x1="1058.36" y1="386.77" x2="1058.36" y2="408.32" class="down-wick"/>
<rect x="1054.36" y="388.78" width="8.00" height="17.08" class="down-body"/>
<line x1="1072.79" y1="396.84" x2="1072.79" y2="414.81" class="down-wick"/>
<rect x="1068.79" y="405.49" width="8.00" height="2.01" class="down-body"/>
<line x1="70" y1="430.70" x2="1080" y2="430.70" class="sweep-line"/>
<text x="1076" y="426.70" text-anchor="end" class="level-label">sweep 2347.45</text>
<text x="70" y="556" class="axis-label">2024-05-14 01:00:00+00:00 to 2024-05-14 18:15:00+00:00</text>
<text x="1080" y="556" text-anchor="end" class="axis-label">2333.06 - 2358.81</text>
<text x="70" y="582" class="panel-title">M1 execution window</text>
<rect x="70" y="596" width="1010" height="192" class="plot-bg"/>
<text x="82" y="638" class="muted">No candles available for this timeframe/window.</text>
</svg>