<svg xmlns="http://www.w3.org/2000/svg" width="1120" height="804" viewBox="0 0 1120 804">
<style>
text{font-family:Arial,Helvetica,sans-serif}.title{font-size:21px;font-weight:700;fill:#1f2937}.subtitle{font-size:12px;fill:#4b5563}.panel-title{font-size:15px;font-weight:700;fill:#111827}.muted{font-size:13px;fill:#6b7280}.plot-bg{fill:#f8fafc;stroke:#cbd5e1;stroke-width:1}.up-body{fill:#15803d;stroke:#14532d;stroke-width:.8}.down-body{fill:#b91c1c;stroke:#7f1d1d;stroke-width:.8}.up-wick{stroke:#14532d;stroke-width:1}.down-wick{stroke:#7f1d1d;stroke-width:1}.sweep-line{stroke:#7c3aed;stroke-width:1.6;stroke-dasharray:6 4}.number-line{stroke:#0f766e;stroke-width:1.4;stroke-dasharray:3 4}.entry-line{stroke:#2563eb;stroke-width:1.4}.sl-line{stroke:#dc2626;stroke-width:1.4}.tp-line{stroke:#16a34a;stroke-width:1.4}.level-label,.axis-label{font-size:11px;fill:#374151}
</style>
<text x="28" y="28" class="title">Adelin v2 visual review sample sample_028</text>
<text x="28" y="48" class="subtitle">Candidate windows are for visual labeling only and are not trade signals.</text>
<text x="560" y="48" class="subtitle" text-anchor="middle">LARGE_LOWER_WICK_REVERSAL_VISUAL_CANDIDATE</text>
<text x="70" y="82" class="panel-title">H1 liquidity context</text>
<rect x="70" y="96" width="1010" height="192" class="plot-bg"/>
<text x="82" y="138" class="muted">No candles available for this timeframe/window.</text>
<text x="70" y="332" class="panel-title">M15 liquidity / reaction context</text>
<rect x="70" y="346" width="1010" height="192" class="plot-bg"/>
<line x1="76.92" y1="504.84" x2="76.92" y2="519.24" class="down-wick"/>
<rect x="72.92" y="505.00" width="8.00" height="5.41" class="down-body"/>
<line x1="90.75" y1="499.00" x2="90.75" y2="511.80" class="up-wick"/>
<rect x="86.75" y="502.64" width="8.00" height="8.25" class="up-body"/>
<line x1="104.59" y1="501.79" x2="104.59" y2="524.76" class="down-wick"/>
<rect x="100.59" y="502.59" width="8.00" height="12.80" class="down-body"/>
<line x1="118.42" y1="504.62" x2="118.42" y2="516.73" class="up-wick"/>
<rect x="114.42" y="508.85" width="8.00" height="6.64" class="up-body"/>
<line x1="132.26" y1="499.86" x2="132.26" y2="509.12" class="up-wick"/>
<rect x="128.26" y="502.05" width="8.00" height="7.07" class="up-body"/>
<line x1="146.10" y1="492.42" x2="146.10" y2="505.75" class="up-wick"/>
<rect x="142.10" y="498.15" width="8.00" height="3.91" class="up-body"/>
<line x1="159.93" y1="494.66" x2="159.93" y2="501.41" class="down-wick"/>
<rect x="155.93" y="498.36" width="8.00" height="1.29" class="down-body"/>
<line x1="173.77" y1="499.06" x2="173.77" y2="507.94" class="down-wick"/>
<rect x="169.77" y="499.70" width="8.00" height="7.28" class="down-body"/>
<line x1="187.60" y1="505.21" x2="187.60" y2="509.28" class="down-wick"/>
<rect x="183.60" y="506.98" width="8.00" height="1.00" class="down-body"/>
<line x1="201.44" y1="506.34" x2="201.44" y2="511.48" class="down-wick"/>
<rect x="197.44" y="507.30" width="8.00" height="1.07" class="down-body"/>
<line x1="215.27" y1="505.64" x2="215.27" y2="512.60" class="down-wick"/>
<rect x="211.27" y="508.16" width="8.00" height="2.20" class="down-body"/>
<line x1="229.11" y1="508.16" x2="229.11" y2="515.71" class="down-wick"/>
<rect x="225.11" y="511.00" width="8.00" height="3.00" class="down-body"/>
<line x1="242.95" y1="510.94" x2="242.95" y2="515.92" class="up-wick"/>
<rect x="238.95" y="512.66" width="8.00" height="1.34" class="up-body"/>
<line x1="256.78" y1="509.93" x2="256.78" y2="515.44" class="up-wick"/>
<rect x="252.78" y="510.89" width="8.00" height="1.77" class="up-body"/>
<line x1="270.62" y1="505.48" x2="270.62" y2="514.96" class="up-wick"/>
<rect x="266.62" y="506.23" width="8.00" height="4.98" class="up-body"/>
<line x1="284.45" y1="499.86" x2="284.45" y2="510.57" class="up-wick"/>
<rect x="280.45" y="501.79" width="8.00" height="4.39" class="up-body"/>
<line x1="298.29" y1="499.54" x2="298.29" y2="508.05" class="down-wick"/>
<rect x="294.29" y="501.79" width="8.00" height="1.45" class="down-body"/>
<line x1="312.12" y1="487.33" x2="312.12" y2="504.20" class="up-wick"/>
<rect x="308.12" y="496.75" width="8.00" height="6.53" class="up-body"/>
<line x1="325.96" y1="489.74" x2="325.96" y2="499.48" class="up-wick"/>
<rect x="321.96" y="491.40" width="8.00" height="5.09" class="up-body"/>
<line x1="339.79" y1="487.27" x2="339.79" y2="504.20" class="down-wick"/>
<rect x="335.79" y="491.34" width="8.00" height="11.19" class="down-body"/>
<line x1="353.63" y1="499.70" x2="353.63" y2="508.21" class="down-wick"/>
<rect x="349.63" y="502.70" width="8.00" height="2.03" class="down-body"/>
<line x1="367.47" y1="504.79" x2="367.47" y2="517.96" class="down-wick"/>
<rect x="363.47" y="504.79" width="8.00" height="10.76" class="down-body"/>
<line x1="381.30" y1="512.71" x2="381.30" y2="522.13" class="up-wick"/>
<rect x="377.30" y="514.21" width="8.00" height="1.29" class="up-body"/>
<line x1="395.14" y1="504.36" x2="395.14" y2="514.53" class="up-wick"/>
<rect x="391.14" y="504.46" width="8.00" height="9.75" class="up-body"/>
<line x1="408.97" y1="497.77" x2="408.97" y2="507.94" class="down-wick"/>
<rect x="404.97" y="504.30" width="8.00" height="2.57" class="down-body"/>
<line x1="422.81" y1="503.39" x2="422.81" y2="513.46" class="down-wick"/>
<rect x="418.81" y="506.55" width="8.00" height="6.32" class="down-body"/>
<line x1="436.64" y1="510.84" x2="436.64" y2="521.49" class="down-wick"/>
<rect x="432.64" y="512.82" width="8.00" height="8.14" class="down-body"/>
<line x1="450.48" y1="511.96" x2="450.48" y2="524.28" class="up-wick"/>
<rect x="446.48" y="513.35" width="8.00" height="7.60" class="up-body"/>
<line x1="464.32" y1="499.38" x2="464.32" y2="515.23" class="up-wick"/>
<rect x="460.32" y="505.05" width="8.00" height="8.46" class="up-body"/>
<line x1="478.15" y1="499.59" x2="478.15" y2="506.50" class="up-wick"/>
<rect x="474.15" y="503.50" width="8.00" height="1.45" class="up-body"/>
<line x1="491.99" y1="499.81" x2="491.99" y2="514.05" class="down-wick"/>
<rect x="487.99" y="503.77" width="8.00" height="10.17" class="down-body"/>
<line x1="505.82" y1="502.21" x2="505.82" y2="516.67" class="up-wick"/>
<rect x="501.82" y="506.98" width="8.00" height="6.96" class="up-body"/>
<line x1="519.66" y1="503.18" x2="519.66" y2="512.92" class="down-wick"/>
<rect x="515.66" y="506.82" width="8.00" height="6.10" class="down-body"/>
<line x1="533.49" y1="506.93" x2="533.49" y2="517.10" class="up-wick"/>
<rect x="529.49" y="508.37" width="8.00" height="4.66" class="up-body"/>
<line x1="547.33" y1="506.23" x2="547.33" y2="512.07" class="down-wick"/>
<rect x="543.33" y="508.16" width="8.00" height="1.45" class="down-body"/>
<line x1="561.16" y1="507.09" x2="561.16" y2="511.85" class="down-wick"/>
<rect x="557.16" y="509.66" width="8.00" height="1.12" class="down-body"/>
<line x1="575.00" y1="503.13" x2="575.00" y2="513.94" class="up-wick"/>
<rect x="571.00" y="510.19" width="8.00" height="1.00" class="up-body"/>
<line x1="588.84" y1="506.77" x2="588.84" y2="516.03" class="up-wick"/>
<rect x="584.84" y="507.41" width="8.00" height="2.36" class="up-body"/>
<line x1="602.67" y1="503.29" x2="602.67" y2="516.46" class="down-wick"/>
<rect x="598.67" y="507.19" width="8.00" height="5.94" class="down-body"/>
<line x1="616.51" y1="508.59" x2="616.51" y2="515.98" class="up-wick"/>
<rect x="612.51" y="513.09" width="8.00" height="1.00" class="up-body"/>
<line x1="630.34" y1="511.91" x2="630.34" y2="519.94" class="down-wick"/>
<rect x="626.34" y="513.14" width="8.00" height="1.00" class="down-body"/>
<line x1="644.18" y1="495.74" x2="644.18" y2="513.78" class="up-wick"/>
<rect x="640.18" y="509.71" width="8.00" height="3.43" class="up-body"/>
<line x1="658.01" y1="418.63" x2="658.01" y2="462.70" class="up-wick"/>
<rect x="654.01" y="424.78" width="8.00" height="30.74" class="up-body"/>
<line x1="671.85" y1="381.25" x2="671.85" y2="424.25" class="up-wick"/>
<rect x="667.85" y="390.14" width="8.00" height="34.11" class="up-body"/>
<line x1="685.68" y1="359.24" x2="685.68" y2="390.89" class="up-wick"/>
<rect x="681.68" y="364.11" width="8.00" height="26.19" class="up-body"/>
<line x1="699.52" y1="362.72" x2="699.52" y2="389.82" class="down-wick"/>
<rect x="695.52" y="364.06" width="8.00" height="2.78" class="down-body"/>
<line x1="713.36" y1="362.56" x2="713.36" y2="437.64" class="down-wick"/>
<rect x="709.36" y="365.77" width="8.00" height="64.20" class="down-body"/>
<line x1="727.19" y1="421.95" x2="727.19" y2="448.18" class="up-wick"/>
<rect x="723.19" y="422.37" width="8.00" height="9.16" class="up-body"/>
<line x1="741.03" y1="422.16" x2="741.03" y2="474.69" class="down-wick"/>
<rect x="737.03" y="422.54" width="8.00" height="18.74" class="down-body"/>
<line x1="754.86" y1="425.00" x2="754.86" y2="444.17" class="down-wick"/>
<rect x="750.86" y="440.85" width="8.00" height="2.78" class="down-body"/>
<line x1="768.70" y1="441.65" x2="768.70" y2="466.61" class="down-wick"/>
<rect x="764.70" y="444.06" width="8.00" height="14.03" class="down-body"/>
<line x1="782.53" y1="442.56" x2="782.53" y2="462.16" class="up-wick"/>
<rect x="778.53" y="446.52" width="8.00" height="12.96" class="up-body"/>
<line x1="796.37" y1="427.30" x2="796.37" y2="449.90" class="up-wick"/>
<rect x="792.37" y="444.22" width="8.00" height="1.34" class="up-body"/>
<line x1="810.21" y1="420.29" x2="810.21" y2="444.12" class="up-wick"/>
<rect x="806.21" y="421.68" width="8.00" height="22.44" class="up-body"/>
<line x1="824.04" y1="383.45" x2="824.04" y2="426.71" class="up-wick"/>
<rect x="820.04" y="398.01" width="8.00" height="23.61" class="up-body"/>
<line x1="837.88" y1="391.42" x2="837.88" y2="420.02" class="up-wick"/>
<rect x="833.88" y="391.42" width="8.00" height="6.59" class="up-body"/>
<line x1="851.71" y1="385.05" x2="851.71" y2="404.44" class="down-wick"/>
<rect x="847.71" y="391.53" width="8.00" height="3.75" class="down-body"/>
<line x1="865.55" y1="381.04" x2="865.55" y2="398.44" class="up-wick"/>
<rect x="861.55" y="394.10" width="8.00" height="1.29" class="up-body"/>
<line x1="879.38" y1="380.34" x2="879.38" y2="394.05" class="up-wick"/>
<rect x="875.38" y="384.62" width="8.00" height="9.42" class="up-body"/>
<line x1="893.22" y1="378.04" x2="893.22" y2="387.89" class="up-wick"/>
<rect x="889.22" y="380.34" width="8.00" height="4.34" class="up-body"/>
<line x1="907.05" y1="372.74" x2="907.05" y2="392.07" class="up-wick"/>
<rect x="903.05" y="379.32" width="8.00" height="1.00" class="up-body"/>
<line x1="920.89" y1="370.22" x2="920.89" y2="382.21" class="down-wick"/>
<rect x="916.89" y="379.38" width="8.00" height="1.29" class="down-body"/>
<line x1="934.73" y1="378.95" x2="934.73" y2="405.83" class="down-wick"/>
<rect x="930.73" y="381.68" width="8.00" height="14.83" class="down-body"/>
<line x1="948.56" y1="394.15" x2="948.56" y2="406.31" class="up-wick"/>
<rect x="944.56" y="394.15" width="8.00" height="2.46" class="up-body"/>
<line x1="962.40" y1="400.58" x2="962.40" y2="446.85" class="down-wick"/>
<rect x="958.40" y="439.46" width="8.00" height="4.34" class="down-body"/>
<line x1="976.23" y1="415.41" x2="976.23" y2="449.10" class="up-wick"/>
<rect x="972.23" y="418.20" width="8.00" height="26.77" class="up-body"/>
<line x1="990.07" y1="406.20" x2="990.07" y2="450.49" class="down-wick"/>
<rect x="986.07" y="416.48" width="8.00" height="28.49" class="down-body"/>
<line x1="1003.90" y1="444.60" x2="1003.90" y2="477.96" class="down-wick"/>
<rect x="999.90" y="444.60" width="8.00" height="13.98" class="down-body"/>
<line x1="1017.74" y1="450.38" x2="1017.74" y2="467.57" class="up-wick"/>
<rect x="1013.74" y="458.79" width="8.00" height="1.66" class="up-body"/>
<line x1="1031.58" y1="458.20" x2="1031.58" y2="495.57" class="down-wick"/>
<rect x="1027.58" y="458.79" width="8.00" height="34.27" class="down-body"/>
<line x1="1045.41" y1="476.99" x2="1045.41" y2="497.88" class="up-wick"/>
<rect x="1041.41" y="479.03" width="8.00" height="14.03" class="up-body"/>
<line x1="1059.25" y1="467.89" x2="1059.25" y2="487.92" class="up-wick"/>
<rect x="1055.25" y="468.21" width="8.00" height="11.30" class="up-body"/>
<line x1="1073.08" y1="459.64" x2="1073.08" y2="473.57" class="up-wick"/>
<rect x="1069.08" y="460.02" width="8.00" height="6.27" class="up-body"/>
<text x="70" y="556" class="axis-label">2024-06-12 05:00:00+00:00 to 2024-06-12 23:00:00+00:00</text>
<text x="1080" y="556" text-anchor="end" class="axis-label">2308.28 - 2344.13</text>
<text x="70" y="582" class="panel-title">M1 execution window</text>
<rect x="70" y="596" width="1010" height="192" class="plot-bg"/>
<text x="82" y="638" class="muted">No candles available for this timeframe/window.</text>
</svg>