<svg xmlns="http://www.w3.org/2000/svg" width="1120" height="804" viewBox="0 0 1120 804">
<style>
text{font-family:Arial,Helvetica,sans-serif}.title{font-size:21px;font-weight:700;fill:#1f2937}.subtitle{font-size:12px;fill:#4b5563}.panel-title{font-size:15px;font-weight:700;fill:#111827}.muted{font-size:13px;fill:#6b7280}.plot-bg{fill:#f8fafc;stroke:#cbd5e1;stroke-width:1}.up-body{fill:#15803d;stroke:#14532d;stroke-width:.8}.down-body{fill:#b91c1c;stroke:#7f1d1d;stroke-width:.8}.up-wick{stroke:#14532d;stroke-width:1}.down-wick{stroke:#7f1d1d;stroke-width:1}.sweep-line{stroke:#7c3aed;stroke-width:1.6;stroke-dasharray:6 4}.number-line{stroke:#0f766e;stroke-width:1.4;stroke-dasharray:3 4}.entry-line{stroke:#2563eb;stroke-width:1.4}.sl-line{stroke:#dc2626;stroke-width:1.4}.tp-line{stroke:#16a34a;stroke-width:1.4}.level-label,.axis-label{font-size:11px;fill:#374151}
</style>
<text x="28" y="28" class="title">Adelin v2 visual review sample sample_033</text>
<text x="28" y="48" class="subtitle">Candidate windows are for visual labeling only and are not trade signals.</text>
<text x="560" y="48" class="subtitle" text-anchor="middle">NUMBER_THEORY_LEVEL_NEAR</text>
<text x="70" y="82" class="panel-title">H1 liquidity context</text>
<rect x="70" y="96" width="1010" height="192" class="plot-bg"/>
<text x="82" y="138" class="muted">No candles available for this timeframe/window.</text>
<text x="70" y="332" class="panel-title">M15 liquidity / reaction context</text>
<rect x="70" y="346" width="1010" height="192" class="plot-bg"/>
<line x1="77.32" y1="472.02" x2="77.32" y2="480.65" class="down-wick"/>
<rect x="73.32" y="473.62" width="8.00" height="4.01" class="down-body"/>
<line x1="91.96" y1="470.45" x2="91.96" y2="480.07" class="down-wick"/>
<rect x="87.96" y="477.37" width="8.00" height="2.11" class="down-body"/>
<line x1="106.59" y1="478.47" x2="106.59" y2="485.58" class="down-wick"/>
<rect x="102.59" y="479.74" width="8.00" height="1.00" class="down-body"/>
<line x1="121.23" y1="480.07" x2="121.23" y2="487.54" class="down-wick"/>
<rect x="117.23" y="480.11" width="8.00" height="4.99" class="down-body"/>
<line x1="135.87" y1="477.88" x2="135.87" y2="492.50" class="down-wick"/>
<rect x="131.87" y="485.32" width="8.00" height="1.00" class="down-body"/>
<line x1="150.51" y1="482.77" x2="150.51" y2="501.39" class="down-wick"/>
<rect x="146.51" y="485.50" width="8.00" height="5.87" class="down-body"/>
<line x1="165.14" y1="427.91" x2="165.14" y2="471.40" class="up-wick"/>
<rect x="161.14" y="437.39" width="8.00" height="17.93" class="up-body"/>
<line x1="179.78" y1="437.53" x2="179.78" y2="451.82" class="down-wick"/>
<rect x="175.78" y="437.97" width="8.00" height="11.04" class="down-body"/>
<line x1="194.42" y1="438.63" x2="194.42" y2="458.31" class="down-wick"/>
<rect x="190.42" y="449.24" width="8.00" height="1.00" class="down-body"/>
<line x1="209.06" y1="449.60" x2="209.06" y2="478.83" class="down-wick"/>
<rect x="205.06" y="449.82" width="8.00" height="20.01" class="down-body"/>
<line x1="223.70" y1="457.29" x2="223.70" y2="490.61" class="down-wick"/>
<rect x="219.70" y="469.65" width="8.00" height="18.92" class="down-body"/>
<line x1="238.33" y1="478.94" x2="238.33" y2="524.76" class="down-wick"/>
<rect x="234.33" y="488.56" width="8.00" height="13.49" class="down-body"/>
<line x1="252.97" y1="480.40" x2="252.97" y2="517.29" class="up-wick"/>
<rect x="248.97" y="487.91" width="8.00" height="15.13" class="up-body"/>
<line x1="267.61" y1="467.17" x2="267.61" y2="494.69" class="up-wick"/>
<rect x="263.61" y="470.78" width="8.00" height="17.17" class="up-body"/>
<line x1="282.25" y1="454.70" x2="282.25" y2="472.09" class="up-wick"/>
<rect x="278.25" y="457.84" width="8.00" height="14.25" class="up-body"/>
<line x1="296.88" y1="444.93" x2="296.88" y2="469.87" class="up-wick"/>
<rect x="292.88" y="445.19" width="8.00" height="12.43" class="up-body"/>
<line x1="311.52" y1="415.12" x2="311.52" y2="447.41" class="up-wick"/>
<rect x="307.52" y="419.67" width="8.00" height="25.26" class="up-body"/>
<line x1="326.16" y1="401.23" x2="326.16" y2="421.13" class="up-wick"/>
<rect x="322.16" y="407.43" width="8.00" height="12.10" class="up-body"/>
<line x1="340.80" y1="402.69" x2="340.80" y2="425.51" class="down-wick"/>
<rect x="336.80" y="407.06" width="8.00" height="9.19" class="down-body"/>
<line x1="355.43" y1="413.73" x2="355.43" y2="431.23" class="down-wick"/>
<rect x="351.43" y="416.21" width="8.00" height="14.65" class="down-body"/>
<line x1="370.07" y1="413.37" x2="370.07" y2="432.76" class="up-wick"/>
<rect x="366.07" y="416.65" width="8.00" height="14.32" class="up-body"/>
<line x1="384.71" y1="400.61" x2="384.71" y2="418.80" class="up-wick"/>
<rect x="380.71" y="404.00" width="8.00" height="12.65" class="up-body"/>
<line x1="399.35" y1="401.85" x2="399.35" y2="414.57" class="down-wick"/>
<rect x="395.35" y="403.93" width="8.00" height="3.90" class="down-body"/>
<line x1="413.99" y1="397.99" x2="413.99" y2="412.42" class="down-wick"/>
<rect x="409.99" y="407.46" width="8.00" height="1.79" class="down-body"/>
<line x1="428.62" y1="390.70" x2="428.62" y2="409.43" class="up-wick"/>
<rect x="424.62" y="394.56" width="8.00" height="14.36" class="up-body"/>
<line x1="443.26" y1="387.93" x2="443.26" y2="398.83" class="up-wick"/>
<rect x="439.26" y="388.80" width="8.00" height="5.76" class="up-body"/>
<line x1="457.90" y1="384.83" x2="457.90" y2="394.23" class="down-wick"/>
<rect x="453.90" y="389.20" width="8.00" height="3.35" class="down-body"/>
<line x1="472.54" y1="385.78" x2="472.54" y2="396.31" class="up-wick"/>
<rect x="468.54" y="388.47" width="8.00" height="4.08" class="up-body"/>
<line x1="487.17" y1="387.96" x2="487.17" y2="400.79" class="down-wick"/>
<rect x="483.17" y="388.47" width="8.00" height="10.97" class="down-body"/>
<line x1="501.81" y1="394.52" x2="501.81" y2="400.39" class="up-wick"/>
<rect x="497.81" y="394.52" width="8.00" height="4.92" class="up-body"/>
<line x1="516.45" y1="392.77" x2="516.45" y2="407.46" class="down-wick"/>
<rect x="512.45" y="394.74" width="8.00" height="8.16" class="down-body"/>
<line x1="531.09" y1="397.88" x2="531.09" y2="409.07" class="up-wick"/>
<rect x="527.09" y="402.03" width="8.00" height="1.00" class="up-body"/>
<line x1="545.72" y1="395.11" x2="545.72" y2="404.91" class="up-wick"/>
<rect x="541.72" y="397.26" width="8.00" height="5.18" class="up-body"/>
<line x1="560.36" y1="395.00" x2="560.36" y2="400.87" class="down-wick"/>
<rect x="556.36" y="397.40" width="8.00" height="2.30" class="down-body"/>
<line x1="575.00" y1="397.44" x2="575.00" y2="408.12" class="up-wick"/>
<rect x="571.00" y="398.46" width="8.00" height="1.24" class="up-body"/>
<line x1="589.64" y1="395.51" x2="589.64" y2="400.03" class="down-wick"/>
<rect x="585.64" y="398.46" width="8.00" height="1.00" class="down-body"/>
<line x1="604.28" y1="394.74" x2="604.28" y2="399.77" class="up-wick"/>
<rect x="600.28" y="398.28" width="8.00" height="1.00" class="up-body"/>
<line x1="618.91" y1="391.75" x2="618.91" y2="398.57" class="up-wick"/>
<rect x="614.91" y="393.83" width="8.00" height="4.45" class="up-body"/>
<line x1="633.55" y1="392.19" x2="633.55" y2="397.37" class="down-wick"/>
<rect x="629.55" y="393.54" width="8.00" height="3.83" class="down-body"/>
<line x1="648.19" y1="390.92" x2="648.19" y2="402.11" class="down-wick"/>
<rect x="644.19" y="397.37" width="8.00" height="3.75" class="down-body"/>
<line x1="662.83" y1="388.00" x2="662.83" y2="403.42" class="up-wick"/>
<rect x="658.83" y="392.63" width="8.00" height="9.08" class="up-body"/>
<line x1="677.46" y1="389.20" x2="677.46" y2="396.82" class="up-wick"/>
<rect x="673.46" y="389.57" width="8.00" height="3.06" class="up-body"/>
<line x1="692.10" y1="388.77" x2="692.10" y2="394.74" class="down-wick"/>
<rect x="688.10" y="389.57" width="8.00" height="3.57" class="down-body"/>
<line x1="706.74" y1="388.47" x2="706.74" y2="393.58" class="up-wick"/>
<rect x="702.74" y="389.35" width="8.00" height="3.79" class="up-body"/>
<line x1="721.38" y1="385.59" x2="721.38" y2="390.00" class="up-wick"/>
<rect x="717.38" y="387.34" width="8.00" height="2.19" class="up-body"/>
<line x1="736.01" y1="380.24" x2="736.01" y2="388.80" class="up-wick"/>
<rect x="732.01" y="383.12" width="8.00" height="4.08" class="up-body"/>
<line x1="750.65" y1="380.53" x2="750.65" y2="386.32" class="up-wick"/>
<rect x="746.65" y="381.07" width="8.00" height="2.04" class="up-body"/>
<line x1="765.29" y1="378.96" x2="765.29" y2="383.70" class="up-wick"/>
<rect x="761.29" y="379.40" width="8.00" height="1.68" class="up-body"/>
<line x1="779.93" y1="374.84" x2="779.93" y2="384.76" class="up-wick"/>
<rect x="775.93" y="376.30" width="8.00" height="2.66" class="up-body"/>
<line x1="794.57" y1="370.03" x2="794.57" y2="376.92" class="up-wick"/>
<rect x="790.57" y="371.16" width="8.00" height="5.43" class="up-body"/>
<line x1="809.20" y1="368.61" x2="809.20" y2="376.63" class="down-wick"/>
<rect x="805.20" y="371.16" width="8.00" height="2.30" class="down-body"/>
<line x1="823.84" y1="366.90" x2="823.84" y2="374.84" class="up-wick"/>
<rect x="819.84" y="367.95" width="8.00" height="5.47" class="up-body"/>
<line x1="838.48" y1="359.57" x2="838.48" y2="380.09" class="down-wick"/>
<rect x="834.48" y="367.70" width="8.00" height="3.21" class="down-body"/>
<line x1="853.12" y1="359.24" x2="853.12" y2="371.93" class="up-wick"/>
<rect x="849.12" y="368.39" width="8.00" height="1.79" class="up-body"/>
<line x1="867.75" y1="359.53" x2="867.75" y2="374.70" class="down-wick"/>
<rect x="863.75" y="369.56" width="8.00" height="1.00" class="down-body"/>
<line x1="882.39" y1="369.96" x2="882.39" y2="387.27" class="down-wick"/>
<rect x="878.39" y="370.14" width="8.00" height="9.99" class="down-body"/>
<line x1="897.03" y1="380.02" x2="897.03" y2="395.98" class="down-wick"/>
<rect x="893.03" y="380.02" width="8.00" height="10.39" class="down-body"/>
<line x1="911.67" y1="379.00" x2="911.67" y2="397.33" class="up-wick"/>
<rect x="907.67" y="384.83" width="8.00" height="5.54" class="up-body"/>
<line x1="926.30" y1="380.71" x2="926.30" y2="389.09" class="down-wick"/>
<rect x="922.30" y="384.21" width="8.00" height="3.06" class="down-body"/>
<line x1="940.94" y1="384.65" x2="940.94" y2="397.88" class="down-wick"/>
<rect x="936.94" y="387.23" width="8.00" height="7.18" class="down-body"/>
<line x1="955.58" y1="388.36" x2="955.58" y2="397.70" class="up-wick"/>
<rect x="951.58" y="392.37" width="8.00" height="2.15" class="up-body"/>
<line x1="970.22" y1="386.76" x2="970.22" y2="395.36" class="up-wick"/>
<rect x="966.22" y="388.58" width="8.00" height="3.79" class="up-body"/>
<line x1="984.86" y1="382.64" x2="984.86" y2="390.73" class="down-wick"/>
<rect x="980.86" y="389.39" width="8.00" height="1.00" class="down-body"/>
<line x1="999.49" y1="389.35" x2="999.49" y2="393.98" class="down-wick"/>
<rect x="995.49" y="389.79" width="8.00" height="1.00" class="down-body"/>
<line x1="1014.13" y1="387.64" x2="1014.13" y2="396.13" class="down-wick"/>
<rect x="1010.13" y="390.26" width="8.00" height="1.00" class="down-body"/>
<line x1="1028.77" y1="385.34" x2="1028.77" y2="390.77" class="up-wick"/>
<rect x="1024.77" y="385.63" width="8.00" height="5.14" class="up-body"/>
<line x1="1043.41" y1="378.05" x2="1043.41" y2="385.67" class="up-wick"/>
<rect x="1039.41" y="380.64" width="8.00" height="5.03" class="up-body"/>
<line x1="1058.04" y1="378.01" x2="1058.04" y2="383.48" class="down-wick"/>
<rect x="1054.04" y="380.67" width="8.00" height="1.00" class="down-body"/>
<line x1="1072.68" y1="376.85" x2="1072.68" y2="383.33" class="up-wick"/>
<rect x="1068.68" y="379.25" width="8.00" height="1.46" class="up-body"/>
<line x1="70" y1="385.67" x2="1080" y2="385.67" class="number-line"/>
<text x="1076" y="381.67" text-anchor="end" class="level-label">round 2390.00</text>
<text x="70" y="556" class="axis-label">2024-05-15 14:00:00+00:00 to 2024-05-16 08:00:00+00:00</text>
<text x="1080" y="556" text-anchor="end" class="axis-label">2348.21 - 2400.88</text>
<text x="70" y="582" class="panel-title">M1 execution window</text>
<rect x="70" y="596" width="1010" height="192" class="plot-bg"/>
<text x="82" y="638" class="muted">No candles available for this timeframe/window.</text>
</svg>