<svg xmlns="http://www.w3.org/2000/svg" width="1120" height="804" viewBox="0 0 1120 804">
<style>
text{font-family:Arial,Helvetica,sans-serif}.title{font-size:21px;font-weight:700;fill:#1f2937}.subtitle{font-size:12px;fill:#4b5563}.panel-title{font-size:15px;font-weight:700;fill:#111827}.muted{font-size:13px;fill:#6b7280}.plot-bg{fill:#f8fafc;stroke:#cbd5e1;stroke-width:1}.up-body{fill:#15803d;stroke:#14532d;stroke-width:.8}.down-body{fill:#b91c1c;stroke:#7f1d1d;stroke-width:.8}.up-wick{stroke:#14532d;stroke-width:1}.down-wick{stroke:#7f1d1d;stroke-width:1}.sweep-line{stroke:#7c3aed;stroke-width:1.6;stroke-dasharray:6 4}.number-line{stroke:#0f766e;stroke-width:1.4;stroke-dasharray:3 4}.entry-line{stroke:#2563eb;stroke-width:1.4}.sl-line{stroke:#dc2626;stroke-width:1.4}.tp-line{stroke:#16a34a;stroke-width:1.4}.level-label,.axis-label{font-size:11px;fill:#374151}
</style>
<text x="28" y="28" class="title">Adelin v2 visual review sample sample_029</text>
<text x="28" y="48" class="subtitle">Candidate windows are for visual labeling only and are not trade signals.</text>
<text x="560" y="48" class="subtitle" text-anchor="middle">LARGE_UPPER_WICK_REVERSAL_VISUAL_CANDIDATE</text>
<text x="70" y="82" class="panel-title">H1 liquidity context</text>
<rect x="70" y="96" width="1010" height="192" class="plot-bg"/>
<text x="82" y="138" class="muted">No candles available for this timeframe/window.</text>
<text x="70" y="332" class="panel-title">M15 liquidity / reaction context</text>
<rect x="70" y="346" width="1010" height="192" class="plot-bg"/>
<line x1="77.32" y1="501.21" x2="77.32" y2="509.91" class="up-wick"/>
<rect x="73.32" y="503.07" width="8.00" height="5.14" class="up-body"/>
<line x1="91.96" y1="501.15" x2="91.96" y2="508.89" class="down-wick"/>
<rect x="87.96" y="503.07" width="8.00" height="1.86" class="down-body"/>
<line x1="106.59" y1="488.56" x2="106.59" y2="509.00" class="up-wick"/>
<rect x="102.59" y="493.36" width="8.00" height="11.12" class="up-body"/>
<line x1="121.23" y1="492.06" x2="121.23" y2="505.16" class="down-wick"/>
<rect x="117.23" y="493.36" width="8.00" height="1.36" class="down-body"/>
<line x1="135.87" y1="485.79" x2="135.87" y2="500.59" class="up-wick"/>
<rect x="131.87" y="494.38" width="8.00" height="1.00" class="up-body"/>
<line x1="150.51" y1="488.39" x2="150.51" y2="500.25" class="up-wick"/>
<rect x="146.51" y="489.63" width="8.00" height="4.80" class="up-body"/>
<line x1="165.14" y1="489.07" x2="165.14" y2="500.14" class="down-wick"/>
<rect x="161.14" y="489.58" width="8.00" height="6.66" class="down-body"/>
<line x1="179.78" y1="481.84" x2="179.78" y2="498.67" class="up-wick"/>
<rect x="175.78" y="485.74" width="8.00" height="10.50" class="up-body"/>
<line x1="194.42" y1="476.36" x2="194.42" y2="494.04" class="down-wick"/>
<rect x="190.42" y="485.57" width="8.00" height="1.00" class="down-body"/>
<line x1="209.06" y1="478.68" x2="209.06" y2="492.85" class="down-wick"/>
<rect x="205.06" y="486.30" width="8.00" height="2.26" class="down-body"/>
<line x1="223.70" y1="484.33" x2="223.70" y2="492.40" class="down-wick"/>
<rect x="219.70" y="488.56" width="8.00" height="1.07" class="down-body"/>
<line x1="238.33" y1="478.57" x2="238.33" y2="490.93" class="up-wick"/>
<rect x="234.33" y="485.91" width="8.00" height="3.73" class="up-body"/>
<line x1="252.97" y1="479.19" x2="252.97" y2="488.90" class="down-wick"/>
<rect x="248.97" y="485.74" width="8.00" height="3.05" class="down-body"/>
<line x1="267.61" y1="485.34" x2="267.61" y2="495.85" class="up-wick"/>
<rect x="263.61" y="486.41" width="8.00" height="2.37" class="up-body"/>
<line x1="282.25" y1="481.78" x2="282.25" y2="491.10" class="up-wick"/>
<rect x="278.25" y="482.18" width="8.00" height="4.24" class="up-body"/>
<line x1="296.88" y1="482.18" x2="296.88" y2="493.81" class="down-wick"/>
<rect x="292.88" y="482.18" width="8.00" height="8.70" class="down-body"/>
<line x1="311.52" y1="490.25" x2="311.52" y2="500.02" class="up-wick"/>
<rect x="307.52" y="490.65" width="8.00" height="1.00" class="up-body"/>
<line x1="326.16" y1="489.24" x2="326.16" y2="495.39" class="down-wick"/>
<rect x="322.16" y="490.65" width="8.00" height="3.95" class="down-body"/>
<line x1="340.80" y1="487.26" x2="340.80" y2="495.22" class="up-wick"/>
<rect x="336.80" y="491.78" width="8.00" height="2.82" class="up-body"/>
<line x1="355.43" y1="489.92" x2="355.43" y2="497.48" class="down-wick"/>
<rect x="351.43" y="491.78" width="8.00" height="1.00" class="down-body"/>
<line x1="370.07" y1="480.54" x2="370.07" y2="494.26" class="up-wick"/>
<rect x="366.07" y="489.41" width="8.00" height="3.16" class="up-body"/>
<line x1="384.71" y1="484.66" x2="384.71" y2="495.00" class="down-wick"/>
<rect x="380.71" y="489.41" width="8.00" height="1.00" class="down-body"/>
<line x1="399.35" y1="484.61" x2="399.35" y2="497.14" class="down-wick"/>
<rect x="395.35" y="490.42" width="8.00" height="3.90" class="down-body"/>
<line x1="413.99" y1="474.10" x2="413.99" y2="499.74" class="up-wick"/>
<rect x="409.99" y="478.51" width="8.00" height="16.09" class="up-body"/>
<line x1="428.62" y1="476.70" x2="428.62" y2="486.58" class="up-wick"/>
<rect x="424.62" y="477.27" width="8.00" height="1.24" class="up-body"/>
<line x1="443.26" y1="475.57" x2="443.26" y2="486.02" class="down-wick"/>
<rect x="439.26" y="477.32" width="8.00" height="8.41" class="down-body"/>
<line x1="457.90" y1="477.89" x2="457.90" y2="492.91" class="down-wick"/>
<rect x="453.90" y="485.34" width="8.00" height="4.97" class="down-body"/>
<line x1="472.54" y1="489.69" x2="472.54" y2="504.71" class="down-wick"/>
<rect x="468.54" y="490.31" width="8.00" height="13.78" class="down-body"/>
<line x1="487.17" y1="500.93" x2="487.17" y2="510.30" class="down-wick"/>
<rect x="483.17" y="503.69" width="8.00" height="5.59" class="down-body"/>
<line x1="501.81" y1="497.14" x2="501.81" y2="509.40" class="up-wick"/>
<rect x="497.81" y="504.82" width="8.00" height="4.46" class="up-body"/>
<line x1="516.45" y1="497.37" x2="516.45" y2="511.54" class="up-wick"/>
<rect x="512.45" y="502.11" width="8.00" height="2.77" class="up-body"/>
<line x1="531.09" y1="497.88" x2="531.09" y2="509.74" class="down-wick"/>
<rect x="527.09" y="502.11" width="8.00" height="5.14" class="down-body"/>
<line x1="545.72" y1="481.95" x2="545.72" y2="511.54" class="up-wick"/>
<rect x="541.72" y="482.80" width="8.00" height="24.40" class="up-body"/>
<line x1="560.36" y1="458.63" x2="560.36" y2="483.08" class="up-wick"/>
<rect x="556.36" y="462.36" width="8.00" height="20.56" class="up-body"/>
<line x1="575.00" y1="444.06" x2="575.00" y2="472.35" class="down-wick"/>
<rect x="571.00" y="462.36" width="8.00" height="6.04" class="down-body"/>
<line x1="589.64" y1="460.61" x2="589.64" y2="478.90" class="up-wick"/>
<rect x="585.64" y="467.44" width="8.00" height="1.58" class="up-body"/>
<line x1="604.28" y1="468.01" x2="604.28" y2="501.38" class="down-wick"/>
<rect x="600.28" y="468.29" width="8.00" height="14.63" class="down-body"/>
<line x1="618.91" y1="467.05" x2="618.91" y2="494.38" class="up-wick"/>
<rect x="614.91" y="468.23" width="8.00" height="14.40" class="up-body"/>
<line x1="633.55" y1="460.89" x2="633.55" y2="478.45" class="down-wick"/>
<rect x="629.55" y="468.23" width="8.00" height="1.24" class="down-body"/>
<line x1="648.19" y1="454.06" x2="648.19" y2="481.22" class="down-wick"/>
<rect x="644.19" y="469.25" width="8.00" height="8.98" class="down-body"/>
<line x1="662.83" y1="474.16" x2="662.83" y2="496.24" class="down-wick"/>
<rect x="658.83" y="478.45" width="8.00" height="8.02" class="down-body"/>
<line x1="677.46" y1="479.02" x2="677.46" y2="522.39" class="down-wick"/>
<rect x="673.46" y="486.53" width="8.00" height="22.25" class="down-body"/>
<line x1="692.10" y1="496.30" x2="692.10" y2="523.57" class="down-wick"/>
<rect x="688.10" y="508.83" width="8.00" height="11.12" class="down-body"/>
<line x1="706.74" y1="511.83" x2="706.74" y2="524.76" class="up-wick"/>
<rect x="702.74" y="513.97" width="8.00" height="6.04" class="up-body"/>
<line x1="721.38" y1="488.96" x2="721.38" y2="515.61" class="up-wick"/>
<rect x="717.38" y="503.98" width="8.00" height="10.00" class="up-body"/>
<line x1="736.01" y1="479.41" x2="736.01" y2="505.50" class="up-wick"/>
<rect x="732.01" y="485.91" width="8.00" height="18.13" class="up-body"/>
<line x1="750.65" y1="467.89" x2="750.65" y2="489.24" class="up-wick"/>
<rect x="746.65" y="474.89" width="8.00" height="10.96" class="up-body"/>
<line x1="765.29" y1="429.60" x2="765.29" y2="474.95" class="up-wick"/>
<rect x="761.29" y="432.26" width="8.00" height="42.69" class="up-body"/>
<line x1="779.93" y1="369.91" x2="779.93" y2="431.92" class="up-wick"/>
<rect x="775.93" y="418.20" width="8.00" height="13.72" class="up-body"/>
<line x1="794.57" y1="378.27" x2="794.57" y2="425.60" class="up-wick"/>
<rect x="790.57" y="393.07" width="8.00" height="25.13" class="up-body"/>
<line x1="809.20" y1="381.60" x2="809.20" y2="410.35" class="down-wick"/>
<rect x="805.20" y="393.07" width="8.00" height="16.21" class="down-body"/>
<line x1="823.84" y1="397.92" x2="823.84" y2="416.16" class="up-wick"/>
<rect x="819.84" y="398.77" width="8.00" height="10.56" class="up-body"/>
<line x1="838.48" y1="394.99" x2="838.48" y2="407.13" class="up-wick"/>
<rect x="834.48" y="397.64" width="8.00" height="1.00" class="up-body"/>
<line x1="853.12" y1="389.62" x2="853.12" y2="403.80" class="down-wick"/>
<rect x="849.12" y="397.59" width="8.00" height="2.99" class="down-body"/>
<line x1="867.75" y1="396.29" x2="867.75" y2="405.89" class="up-wick"/>
<rect x="863.75" y="398.60" width="8.00" height="1.92" class="up-body"/>
<line x1="882.39" y1="397.59" x2="882.39" y2="410.52" class="down-wick"/>
<rect x="878.39" y="398.71" width="8.00" height="4.80" class="down-body"/>
<line x1="897.03" y1="400.41" x2="897.03" y2="409.44" class="up-wick"/>
<rect x="893.03" y="402.95" width="8.00" height="1.00" class="up-body"/>
<line x1="911.67" y1="387.36" x2="911.67" y2="407.19" class="up-wick"/>
<rect x="907.67" y="388.04" width="8.00" height="14.80" class="up-body"/>
<line x1="926.30" y1="388.04" x2="926.30" y2="401.71" class="down-wick"/>
<rect x="922.30" y="388.10" width="8.00" height="7.96" class="down-body"/>
<line x1="940.94" y1="383.98" x2="940.94" y2="396.63" class="up-wick"/>
<rect x="936.94" y="391.49" width="8.00" height="4.57" class="up-body"/>
<line x1="955.58" y1="373.30" x2="955.58" y2="391.77" class="up-wick"/>
<rect x="951.58" y="377.20" width="8.00" height="14.40" class="up-body"/>
<line x1="970.22" y1="359.24" x2="970.22" y2="380.93" class="up-wick"/>
<rect x="966.22" y="364.44" width="8.00" height="12.76" class="up-body"/>
<line x1="984.86" y1="363.31" x2="984.86" y2="380.14" class="down-wick"/>
<rect x="980.86" y="364.89" width="8.00" height="7.34" class="down-body"/>
<line x1="999.49" y1="366.02" x2="999.49" y2="373.98" class="up-wick"/>
<rect x="995.49" y="368.95" width="8.00" height="3.28" class="up-body"/>
<line x1="1014.13" y1="367.94" x2="1014.13" y2="380.25" class="down-wick"/>
<rect x="1010.13" y="368.62" width="8.00" height="6.21" class="down-body"/>
<line x1="1028.77" y1="374.49" x2="1028.77" y2="380.76" class="down-wick"/>
<rect x="1024.77" y="374.66" width="8.00" height="3.95" class="down-body"/>
<line x1="1043.41" y1="377.14" x2="1043.41" y2="381.83" class="down-wick"/>
<rect x="1039.41" y="378.61" width="8.00" height="1.00" class="down-body"/>
<line x1="1058.04" y1="377.76" x2="1058.04" y2="385.44" class="up-wick"/>
<rect x="1054.04" y="379.29" width="8.00" height="1.00" class="up-body"/>
<line x1="1072.68" y1="375.90" x2="1072.68" y2="383.02" class="up-wick"/>
<rect x="1068.68" y="378.22" width="8.00" height="1.07" class="up-body"/>
<text x="70" y="556" class="axis-label">2024-07-30 08:00:00+00:00 to 2024-07-31 02:00:00+00:00</text>
<text x="1080" y="556" text-anchor="end" class="axis-label">2380.99 - 2414.98</text>
<text x="70" y="582" class="panel-title">M1 execution window</text>
<rect x="70" y="596" width="1010" height="192" class="plot-bg"/>
<text x="82" y="638" class="muted">No candles available for this timeframe/window.</text>
</svg>