<svg xmlns="http://www.w3.org/2000/svg" width="1120" height="804" viewBox="0 0 1120 804">
<style>
text{font-family:Arial,Helvetica,sans-serif}.title{font-size:21px;font-weight:700;fill:#1f2937}.subtitle{font-size:12px;fill:#4b5563}.panel-title{font-size:15px;font-weight:700;fill:#111827}.muted{font-size:13px;fill:#6b7280}.plot-bg{fill:#f8fafc;stroke:#cbd5e1;stroke-width:1}.up-body{fill:#15803d;stroke:#14532d;stroke-width:.8}.down-body{fill:#b91c1c;stroke:#7f1d1d;stroke-width:.8}.up-wick{stroke:#14532d;stroke-width:1}.down-wick{stroke:#7f1d1d;stroke-width:1}.sweep-line{stroke:#7c3aed;stroke-width:1.6;stroke-dasharray:6 4}.number-line{stroke:#0f766e;stroke-width:1.4;stroke-dasharray:3 4}.entry-line{stroke:#2563eb;stroke-width:1.4}.sl-line{stroke:#dc2626;stroke-width:1.4}.tp-line{stroke:#16a34a;stroke-width:1.4}.level-label,.axis-label{font-size:11px;fill:#374151}
</style>
<text x="28" y="28" class="title">Adelin v2 visual review sample sample_021</text>
<text x="28" y="48" class="subtitle">Candidate windows are for visual labeling only and are not trade signals.</text>
<text x="560" y="48" class="subtitle" text-anchor="middle">LARGE_UPPER_WICK_REVERSAL_VISUAL_CANDIDATE</text>
<text x="70" y="82" class="panel-title">H1 liquidity context</text>
<rect x="70" y="96" width="1010" height="192" class="plot-bg"/>
<text x="82" y="138" class="muted">No candles available for this timeframe/window.</text>
<text x="70" y="332" class="panel-title">M15 liquidity / reaction context</text>
<rect x="70" y="346" width="1010" height="192" class="plot-bg"/>
<line x1="76.92" y1="447.58" x2="76.92" y2="460.96" class="down-wick"/>
<rect x="72.92" y="447.58" width="8.00" height="11.57" class="down-body"/>
<line x1="90.75" y1="455.59" x2="90.75" y2="464.44" class="up-wick"/>
<rect x="86.75" y="459.48" width="8.00" height="1.00" class="up-body"/>
<line x1="104.59" y1="459.81" x2="104.59" y2="475.01" class="down-wick"/>
<rect x="100.59" y="460.06" width="8.00" height="1.00" class="down-body"/>
<line x1="118.42" y1="455.10" x2="118.42" y2="460.88" class="up-wick"/>
<rect x="114.42" y="457.49" width="8.00" height="3.39" class="up-body"/>
<line x1="132.26" y1="449.56" x2="132.26" y2="460.06" class="up-wick"/>
<rect x="128.26" y="452.04" width="8.00" height="5.29" class="up-body"/>
<line x1="146.10" y1="449.15" x2="146.10" y2="458.49" class="up-wick"/>
<rect x="142.10" y="449.40" width="8.00" height="2.23" class="up-body"/>
<line x1="159.93" y1="449.40" x2="159.93" y2="474.68" class="down-wick"/>
<rect x="155.93" y="449.40" width="8.00" height="23.14" class="down-body"/>
<line x1="173.77" y1="469.97" x2="173.77" y2="475.43" class="down-wick"/>
<rect x="169.77" y="472.53" width="8.00" height="1.00" class="down-body"/>
<line x1="187.60" y1="462.70" x2="187.60" y2="479.81" class="up-wick"/>
<rect x="183.60" y="463.11" width="8.00" height="10.08" class="up-body"/>
<line x1="201.44" y1="462.04" x2="201.44" y2="477.66" class="down-wick"/>
<rect x="197.44" y="463.03" width="8.00" height="13.72" class="down-body"/>
<line x1="215.27" y1="476.42" x2="215.27" y2="500.46" class="down-wick"/>
<rect x="211.27" y="476.75" width="8.00" height="18.34" class="down-body"/>
<line x1="229.11" y1="479.06" x2="229.11" y2="496.91" class="up-wick"/>
<rect x="225.11" y="482.04" width="8.00" height="13.63" class="up-body"/>
<line x1="242.95" y1="479.64" x2="242.95" y2="495.59" class="down-wick"/>
<rect x="238.95" y="482.04" width="8.00" height="7.93" class="down-body"/>
<line x1="256.78" y1="489.31" x2="256.78" y2="499.56" class="down-wick"/>
<rect x="252.78" y="489.97" width="8.00" height="8.51" class="down-body"/>
<line x1="270.62" y1="494.18" x2="270.62" y2="524.76" class="down-wick"/>
<rect x="266.62" y="498.48" width="8.00" height="20.25" class="down-body"/>
<line x1="284.45" y1="496.58" x2="284.45" y2="518.56" class="up-wick"/>
<rect x="280.45" y="496.83" width="8.00" height="20.91" class="up-body"/>
<line x1="298.29" y1="471.46" x2="298.29" y2="501.37" class="up-wick"/>
<rect x="294.29" y="476.50" width="8.00" height="20.33" class="up-body"/>
<line x1="312.12" y1="449.73" x2="312.12" y2="485.84" class="up-wick"/>
<rect x="308.12" y="451.63" width="8.00" height="24.63" class="up-body"/>
<line x1="325.96" y1="437.99" x2="325.96" y2="462.95" class="down-wick"/>
<rect x="321.96" y="452.54" width="8.00" height="7.93" class="down-body"/>
<line x1="339.79" y1="454.27" x2="339.79" y2="470.30" class="up-wick"/>
<rect x="335.79" y="458.24" width="8.00" height="2.31" class="up-body"/>
<line x1="353.63" y1="454.60" x2="353.63" y2="475.34" class="down-wick"/>
<rect x="349.63" y="458.24" width="8.00" height="3.39" class="down-body"/>
<line x1="367.47" y1="459.89" x2="367.47" y2="479.23" class="down-wick"/>
<rect x="363.47" y="461.21" width="8.00" height="11.98" class="down-body"/>
<line x1="381.30" y1="458.32" x2="381.30" y2="475.76" class="up-wick"/>
<rect x="377.30" y="458.82" width="8.00" height="14.30" class="up-body"/>
<line x1="395.14" y1="456.83" x2="395.14" y2="481.95" class="down-wick"/>
<rect x="391.14" y="458.82" width="8.00" height="22.56" class="down-body"/>
<line x1="408.97" y1="476.25" x2="408.97" y2="496.75" class="down-wick"/>
<rect x="404.97" y="482.78" width="8.00" height="4.13" class="down-body"/>
<line x1="422.81" y1="471.38" x2="422.81" y2="496.25" class="up-wick"/>
<rect x="418.81" y="473.53" width="8.00" height="13.22" class="up-body"/>
<line x1="436.64" y1="465.84" x2="436.64" y2="481.79" class="up-wick"/>
<rect x="432.64" y="472.20" width="8.00" height="1.32" class="up-body"/>
<line x1="450.48" y1="460.80" x2="450.48" y2="480.05" class="up-wick"/>
<rect x="446.48" y="463.86" width="8.00" height="7.60" class="up-body"/>
<line x1="464.32" y1="436.75" x2="464.32" y2="467.08" class="up-wick"/>
<rect x="460.32" y="444.69" width="8.00" height="19.34" class="up-body"/>
<line x1="478.15" y1="433.94" x2="478.15" y2="449.73" class="down-wick"/>
<rect x="474.15" y="444.69" width="8.00" height="4.96" class="down-body"/>
<line x1="491.99" y1="445.02" x2="491.99" y2="459.06" class="down-wick"/>
<rect x="487.99" y="449.56" width="8.00" height="9.42" class="down-body"/>
<line x1="505.82" y1="446.50" x2="505.82" y2="460.72" class="up-wick"/>
<rect x="501.82" y="450.64" width="8.00" height="8.26" class="up-body"/>
<line x1="519.66" y1="430.89" x2="519.66" y2="450.64" class="up-wick"/>
<rect x="515.66" y="437.74" width="8.00" height="12.89" class="up-body"/>
<line x1="533.49" y1="428.41" x2="533.49" y2="445.26" class="down-wick"/>
<rect x="529.49" y="437.17" width="8.00" height="1.00" class="down-body"/>
<line x1="547.33" y1="412.29" x2="547.33" y2="441.79" class="up-wick"/>
<rect x="543.33" y="426.92" width="8.00" height="10.41" class="up-body"/>
<line x1="561.16" y1="409.07" x2="561.16" y2="432.46" class="up-wick"/>
<rect x="557.16" y="409.15" width="8.00" height="17.68" class="up-body"/>
<line x1="575.00" y1="395.52" x2="575.00" y2="412.13" class="up-wick"/>
<rect x="571.00" y="397.83" width="8.00" height="9.83" class="up-body"/>
<line x1="588.84" y1="376.35" x2="588.84" y2="399.32" class="up-wick"/>
<rect x="584.84" y="382.54" width="8.00" height="15.37" class="up-body"/>
<line x1="602.67" y1="368.99" x2="602.67" y2="388.91" class="up-wick"/>
<rect x="598.67" y="373.70" width="8.00" height="8.35" class="up-body"/>
<line x1="616.51" y1="361.14" x2="616.51" y2="380.23" class="up-wick"/>
<rect x="612.51" y="361.97" width="8.00" height="11.73" class="up-body"/>
<line x1="630.34" y1="359.24" x2="630.34" y2="385.60" class="down-wick"/>
<rect x="626.34" y="361.97" width="8.00" height="17.77" class="down-body"/>
<line x1="644.18" y1="372.79" x2="644.18" y2="392.54" class="down-wick"/>
<rect x="640.18" y="378.99" width="8.00" height="13.47" class="down-body"/>
<line x1="658.01" y1="387.01" x2="658.01" y2="430.47" class="down-wick"/>
<rect x="654.01" y="392.38" width="8.00" height="34.71" class="down-body"/>
<line x1="671.85" y1="427.17" x2="671.85" y2="453.03" class="down-wick"/>
<rect x="667.85" y="427.17" width="8.00" height="24.21" class="down-body"/>
<line x1="685.68" y1="433.61" x2="685.68" y2="454.77" class="up-wick"/>
<rect x="681.68" y="445.35" width="8.00" height="5.78" class="up-body"/>
<line x1="699.52" y1="443.20" x2="699.52" y2="466.83" class="down-wick"/>
<rect x="695.52" y="445.35" width="8.00" height="2.64" class="down-body"/>
<line x1="713.36" y1="402.87" x2="713.36" y2="466.01" class="up-wick"/>
<rect x="709.36" y="406.26" width="8.00" height="42.47" class="up-body"/>
<line x1="727.19" y1="395.52" x2="727.19" y2="457.91" class="down-wick"/>
<rect x="723.19" y="408.24" width="8.00" height="46.77" class="down-body"/>
<line x1="741.03" y1="394.77" x2="741.03" y2="453.69" class="up-wick"/>
<rect x="737.03" y="447.00" width="8.00" height="5.62" class="up-body"/>
<line x1="754.86" y1="440.55" x2="754.86" y2="503.77" class="down-wick"/>
<rect x="750.86" y="447.16" width="8.00" height="34.62" class="down-body"/>
<line x1="768.70" y1="476.91" x2="768.70" y2="518.07" class="down-wick"/>
<rect x="764.70" y="481.46" width="8.00" height="9.42" class="down-body"/>
<line x1="782.53" y1="473.86" x2="782.53" y2="502.94" class="up-wick"/>
<rect x="778.53" y="479.47" width="8.00" height="11.24" class="up-body"/>
<line x1="796.37" y1="439.56" x2="796.37" y2="487.24" class="up-wick"/>
<rect x="792.37" y="444.36" width="8.00" height="34.71" class="up-body"/>
<line x1="810.21" y1="438.41" x2="810.21" y2="464.60" class="down-wick"/>
<rect x="806.21" y="445.10" width="8.00" height="12.73" class="down-body"/>
<line x1="824.04" y1="446.09" x2="824.04" y2="471.46" class="down-wick"/>
<rect x="820.04" y="456.50" width="8.00" height="14.79" class="down-body"/>
<line x1="837.88" y1="439.81" x2="837.88" y2="471.21" class="up-wick"/>
<rect x="833.88" y="447.91" width="8.00" height="23.30" class="up-body"/>
<line x1="851.71" y1="437.33" x2="851.71" y2="453.78" class="up-wick"/>
<rect x="847.71" y="438.90" width="8.00" height="9.09" class="up-body"/>
<line x1="865.55" y1="414.36" x2="865.55" y2="440.47" class="up-wick"/>
<rect x="861.55" y="423.61" width="8.00" height="15.20" class="up-body"/>
<line x1="879.38" y1="421.96" x2="879.38" y2="444.85" class="down-wick"/>
<rect x="875.38" y="423.61" width="8.00" height="10.25" class="down-body"/>
<line x1="893.22" y1="433.61" x2="893.22" y2="457.16" class="down-wick"/>
<rect x="889.22" y="433.70" width="8.00" height="11.16" class="down-body"/>
<line x1="907.05" y1="441.88" x2="907.05" y2="456.42" class="down-wick"/>
<rect x="903.05" y="444.85" width="8.00" height="7.93" class="down-body"/>
<line x1="920.89" y1="435.93" x2="920.89" y2="453.53" class="up-wick"/>
<rect x="916.89" y="437.25" width="8.00" height="14.87" class="up-body"/>
<line x1="934.73" y1="430.89" x2="934.73" y2="438.07" class="up-wick"/>
<rect x="930.73" y="434.27" width="8.00" height="3.80" class="up-body"/>
<line x1="948.56" y1="430.47" x2="948.56" y2="442.04" class="down-wick"/>
<rect x="944.56" y="434.27" width="8.00" height="1.49" class="down-body"/>
<line x1="962.40" y1="435.68" x2="962.40" y2="451.46" class="down-wick"/>
<rect x="958.40" y="435.68" width="8.00" height="14.63" class="down-body"/>
<line x1="976.23" y1="446.26" x2="976.23" y2="454.44" class="down-wick"/>
<rect x="972.23" y="450.30" width="8.00" height="1.74" class="down-body"/>
<line x1="990.07" y1="434.60" x2="990.07" y2="453.03" class="up-wick"/>
<rect x="986.07" y="434.77" width="8.00" height="17.27" class="up-body"/>
<line x1="1003.90" y1="423.12" x2="1003.90" y2="436.84" class="up-wick"/>
<rect x="999.90" y="430.56" width="8.00" height="4.13" class="up-body"/>
<line x1="1017.74" y1="420.47" x2="1017.74" y2="432.70" class="down-wick"/>
<rect x="1013.74" y="430.22" width="8.00" height="1.16" class="down-body"/>
<line x1="1031.58" y1="421.55" x2="1031.58" y2="438.57" class="up-wick"/>
<rect x="1027.58" y="421.96" width="8.00" height="9.59" class="up-body"/>
<line x1="1045.41" y1="417.42" x2="1045.41" y2="432.95" class="down-wick"/>
<rect x="1041.41" y="421.22" width="8.00" height="11.40" class="down-body"/>
<line x1="1059.25" y1="418.08" x2="1059.25" y2="433.61" class="up-wick"/>
<rect x="1055.25" y="421.30" width="8.00" height="11.32" class="up-body"/>
<line x1="1073.08" y1="409.57" x2="1073.08" y2="422.46" class="up-wick"/>
<rect x="1069.08" y="411.96" width="8.00" height="8.43" class="up-body"/>
<text x="70" y="556" class="axis-label">2024-07-01 05:00:00+00:00 to 2024-07-01 23:00:00+00:00</text>
<text x="1080" y="556" text-anchor="end" class="axis-label">2316.90 - 2340.13</text>
<text x="70" y="582" class="panel-title">M1 execution window</text>
<rect x="70" y="596" width="1010" height="192" class="plot-bg"/>
<text x="82" y="638" class="muted">No candles available for this timeframe/window.</text>
</svg>