<svg xmlns="http://www.w3.org/2000/svg" width="1120" height="804" viewBox="0 0 1120 804">
<style>
text{font-family:Arial,Helvetica,sans-serif}.title{font-size:21px;font-weight:700;fill:#1f2937}.subtitle{font-size:12px;fill:#4b5563}.panel-title{font-size:15px;font-weight:700;fill:#111827}.muted{font-size:13px;fill:#6b7280}.plot-bg{fill:#f8fafc;stroke:#cbd5e1;stroke-width:1}.up-body{fill:#15803d;stroke:#14532d;stroke-width:.8}.down-body{fill:#b91c1c;stroke:#7f1d1d;stroke-width:.8}.up-wick{stroke:#14532d;stroke-width:1}.down-wick{stroke:#7f1d1d;stroke-width:1}.sweep-line{stroke:#7c3aed;stroke-width:1.6;stroke-dasharray:6 4}.number-line{stroke:#0f766e;stroke-width:1.4;stroke-dasharray:3 4}.entry-line{stroke:#2563eb;stroke-width:1.4}.sl-line{stroke:#dc2626;stroke-width:1.4}.tp-line{stroke:#16a34a;stroke-width:1.4}.level-label,.axis-label{font-size:11px;fill:#374151}
</style>
<text x="28" y="28" class="title">Adelin v2 visual review sample sample_016</text>
<text x="28" y="48" class="subtitle">Candidate windows are for visual labeling only and are not trade signals.</text>
<text x="560" y="48" class="subtitle" text-anchor="middle">ASIA_OPEN_CONTEXT</text>
<text x="70" y="82" class="panel-title">H1 liquidity context</text>
<rect x="70" y="96" width="1010" height="192" class="plot-bg"/>
<text x="82" y="138" class="muted">No candles available for this timeframe/window.</text>
<text x="70" y="332" class="panel-title">M15 liquidity / reaction context</text>
<rect x="70" y="346" width="1010" height="192" class="plot-bg"/>
<line x1="77.32" y1="383.02" x2="77.32" y2="388.44" class="down-wick"/>
<rect x="73.32" y="384.82" width="8.00" height="2.38" class="down-body"/>
<line x1="91.96" y1="387.25" x2="91.96" y2="395.08" class="down-wick"/>
<rect x="87.96" y="387.64" width="8.00" height="1.00" class="down-body"/>
<line x1="106.59" y1="381.14" x2="106.59" y2="390.04" class="up-wick"/>
<rect x="102.59" y="381.33" width="8.00" height="6.91" class="up-body"/>
<line x1="121.23" y1="376.11" x2="121.23" y2="382.74" class="up-wick"/>
<rect x="117.23" y="379.76" width="8.00" height="1.55" class="up-body"/>
<line x1="135.87" y1="378.74" x2="135.87" y2="384.21" class="down-wick"/>
<rect x="131.87" y="379.73" width="8.00" height="2.41" class="down-body"/>
<line x1="150.51" y1="379.18" x2="150.51" y2="385.01" class="up-wick"/>
<rect x="146.51" y="380.89" width="8.00" height="1.69" class="up-body"/>
<line x1="165.14" y1="379.59" x2="165.14" y2="386.56" class="down-wick"/>
<rect x="161.14" y="380.97" width="8.00" height="3.59" class="down-body"/>
<line x1="179.78" y1="380.89" x2="179.78" y2="390.35" class="down-wick"/>
<rect x="175.78" y="384.57" width="8.00" height="4.42" class="down-body"/>
<line x1="194.42" y1="384.76" x2="194.42" y2="391.54" class="up-wick"/>
<rect x="190.42" y="388.86" width="8.00" height="1.00" class="up-body"/>
<line x1="209.06" y1="359.24" x2="209.06" y2="385.65" class="down-wick"/>
<rect x="205.06" y="378.24" width="8.00" height="7.41" class="down-body"/>
<line x1="223.70" y1="372.29" x2="223.70" y2="388.86" class="up-wick"/>
<rect x="219.70" y="377.21" width="8.00" height="7.60" class="up-body"/>
<line x1="238.33" y1="366.02" x2="238.33" y2="380.89" class="up-wick"/>
<rect x="234.33" y="367.87" width="8.00" height="9.62" class="up-body"/>
<line x1="252.97" y1="367.12" x2="252.97" y2="379.01" class="down-wick"/>
<rect x="248.97" y="368.14" width="8.00" height="6.30" class="down-body"/>
<line x1="267.61" y1="369.20" x2="267.61" y2="394.22" class="down-wick"/>
<rect x="263.61" y="374.56" width="8.00" height="9.43" class="down-body"/>
<line x1="282.25" y1="384.18" x2="282.25" y2="407.93" class="down-wick"/>
<rect x="278.25" y="384.18" width="8.00" height="20.74" class="down-body"/>
<line x1="296.88" y1="402.87" x2="296.88" y2="428.87" class="down-wick"/>
<rect x="292.88" y="405.28" width="8.00" height="16.40" class="down-body"/>
<line x1="311.52" y1="410.34" x2="311.52" y2="422.62" class="up-wick"/>
<rect x="307.52" y="418.91" width="8.00" height="2.46" class="up-body"/>
<line x1="326.16" y1="406.50" x2="326.16" y2="419.74" class="up-wick"/>
<rect x="322.16" y="408.40" width="8.00" height="10.84" class="up-body"/>
<line x1="340.80" y1="392.20" x2="340.80" y2="411.92" class="up-wick"/>
<rect x="336.80" y="396.40" width="8.00" height="11.17" class="up-body"/>
<line x1="355.43" y1="394.80" x2="355.43" y2="407.02" class="down-wick"/>
<rect x="351.43" y="396.63" width="8.00" height="9.32" class="down-body"/>
<line x1="370.07" y1="405.94" x2="370.07" y2="423.28" class="down-wick"/>
<rect x="366.07" y="405.94" width="8.00" height="17.34" class="down-body"/>
<line x1="384.71" y1="420.76" x2="384.71" y2="445.82" class="down-wick"/>
<rect x="380.71" y="423.14" width="8.00" height="14.88" class="down-body"/>
<line x1="399.35" y1="430.94" x2="399.35" y2="453.45" class="down-wick"/>
<rect x="395.35" y="437.85" width="8.00" height="12.61" class="down-body"/>
<line x1="413.99" y1="447.89" x2="413.99" y2="467.30" class="down-wick"/>
<rect x="409.99" y="450.71" width="8.00" height="10.29" class="down-body"/>
<line x1="428.62" y1="456.60" x2="428.62" y2="473.30" class="down-wick"/>
<rect x="424.62" y="460.91" width="8.00" height="9.12" class="down-body"/>
<line x1="443.26" y1="453.81" x2="443.26" y2="470.15" class="up-wick"/>
<rect x="439.26" y="460.64" width="8.00" height="9.51" class="up-body"/>
<line x1="457.90" y1="452.65" x2="457.90" y2="461.69" class="up-wick"/>
<rect x="453.90" y="457.37" width="8.00" height="3.24" class="up-body"/>
<line x1="472.54" y1="451.57" x2="472.54" y2="460.19" class="up-wick"/>
<rect x="468.54" y="454.17" width="8.00" height="3.29" class="up-body"/>
<line x1="487.17" y1="454.11" x2="487.17" y2="466.83" class="down-wick"/>
<rect x="483.17" y="454.11" width="8.00" height="10.70" class="down-body"/>
<line x1="501.81" y1="455.49" x2="501.81" y2="466.19" class="up-wick"/>
<rect x="497.81" y="462.30" width="8.00" height="2.65" class="up-body"/>
<line x1="516.45" y1="455.55" x2="516.45" y2="467.77" class="up-wick"/>
<rect x="512.45" y="458.95" width="8.00" height="3.35" class="up-body"/>
<line x1="531.09" y1="457.93" x2="531.09" y2="464.62" class="down-wick"/>
<rect x="527.09" y="458.95" width="8.00" height="1.00" class="down-body"/>
<line x1="545.72" y1="453.34" x2="545.72" y2="462.30" class="up-wick"/>
<rect x="541.72" y="454.86" width="8.00" height="4.29" class="up-body"/>
<line x1="560.36" y1="453.92" x2="560.36" y2="459.67" class="down-wick"/>
<rect x="556.36" y="454.80" width="8.00" height="3.62" class="down-body"/>
<line x1="575.00" y1="456.60" x2="575.00" y2="464.92" class="down-wick"/>
<rect x="571.00" y="458.54" width="8.00" height="5.31" class="down-body"/>
<line x1="589.64" y1="463.40" x2="589.64" y2="481.54" class="down-wick"/>
<rect x="585.64" y="463.87" width="8.00" height="10.87" class="down-body"/>
<line x1="604.28" y1="470.78" x2="604.28" y2="479.38" class="down-wick"/>
<rect x="600.28" y="474.66" width="8.00" height="3.59" class="down-body"/>
<line x1="618.91" y1="475.76" x2="618.91" y2="483.59" class="down-wick"/>
<rect x="614.91" y="478.25" width="8.00" height="1.82" class="down-body"/>
<line x1="633.55" y1="477.50" x2="633.55" y2="485.99" class="down-wick"/>
<rect x="629.55" y="479.60" width="8.00" height="4.29" class="down-body"/>
<line x1="648.19" y1="474.68" x2="648.19" y2="484.67" class="up-wick"/>
<rect x="644.19" y="478.03" width="8.00" height="6.11" class="up-body"/>
<line x1="662.83" y1="476.45" x2="662.83" y2="479.41" class="up-wick"/>
<rect x="658.83" y="477.72" width="8.00" height="1.00" class="up-body"/>
<line x1="677.46" y1="477.53" x2="677.46" y2="481.62" class="down-wick"/>
<rect x="673.46" y="477.53" width="8.00" height="2.63" class="down-body"/>
<line x1="692.10" y1="479.99" x2="692.10" y2="486.88" class="down-wick"/>
<rect x="688.10" y="480.19" width="8.00" height="6.55" class="down-body"/>
<line x1="706.74" y1="479.44" x2="706.74" y2="489.67" class="up-wick"/>
<rect x="702.74" y="480.08" width="8.00" height="1.00" class="up-body"/>
<line x1="721.38" y1="462.99" x2="721.38" y2="481.21" class="up-wick"/>
<rect x="717.38" y="464.51" width="8.00" height="15.57" class="up-body"/>
<line x1="736.01" y1="463.15" x2="736.01" y2="497.33" class="down-wick"/>
<rect x="732.01" y="463.68" width="8.00" height="23.64" class="down-body"/>
<line x1="750.65" y1="486.79" x2="750.65" y2="495.97" class="down-wick"/>
<rect x="746.65" y="487.79" width="8.00" height="3.84" class="down-body"/>
<line x1="765.29" y1="485.58" x2="765.29" y2="491.49" class="up-wick"/>
<rect x="761.29" y="485.88" width="8.00" height="5.61" class="up-body"/>
<line x1="779.93" y1="481.18" x2="779.93" y2="487.82" class="up-wick"/>
<rect x="775.93" y="484.03" width="8.00" height="1.85" class="up-body"/>
<line x1="794.57" y1="483.17" x2="794.57" y2="491.02" class="down-wick"/>
<rect x="790.57" y="484.03" width="8.00" height="4.12" class="down-body"/>
<line x1="809.20" y1="487.04" x2="809.20" y2="495.31" class="up-wick"/>
<rect x="805.20" y="487.35" width="8.00" height="1.00" class="up-body"/>
<line x1="823.84" y1="486.38" x2="823.84" y2="508.75" class="down-wick"/>
<rect x="819.84" y="487.29" width="8.00" height="12.61" class="down-body"/>
<line x1="838.48" y1="495.28" x2="838.48" y2="506.23" class="up-wick"/>
<rect x="834.48" y="496.58" width="8.00" height="4.04" class="up-body"/>
<line x1="853.12" y1="493.71" x2="853.12" y2="506.68" class="down-wick"/>
<rect x="849.12" y="496.58" width="8.00" height="5.94" class="down-body"/>
<line x1="867.75" y1="501.61" x2="867.75" y2="517.57" class="down-wick"/>
<rect x="863.75" y="502.33" width="8.00" height="12.44" class="down-body"/>
<line x1="882.39" y1="509.38" x2="882.39" y2="520.25" class="up-wick"/>
<rect x="878.39" y="512.59" width="8.00" height="2.41" class="up-body"/>
<line x1="897.03" y1="509.05" x2="897.03" y2="518.40" class="down-wick"/>
<rect x="893.03" y="512.34" width="8.00" height="3.95" class="down-body"/>
<line x1="911.67" y1="514.89" x2="911.67" y2="524.62" class="down-wick"/>
<rect x="907.67" y="516.24" width="8.00" height="7.16" class="down-body"/>
<line x1="926.30" y1="519.50" x2="926.30" y2="524.76" class="up-wick"/>
<rect x="922.30" y="519.98" width="8.00" height="3.07" class="up-body"/>
<line x1="940.94" y1="511.35" x2="940.94" y2="521.91" class="up-wick"/>
<rect x="936.94" y="511.68" width="8.00" height="8.54" class="up-body"/>
<line x1="955.58" y1="507.81" x2="955.58" y2="517.62" class="down-wick"/>
<rect x="951.58" y="511.68" width="8.00" height="5.92" class="down-body"/>
<line x1="970.22" y1="513.81" x2="970.22" y2="519.86" class="down-wick"/>
<rect x="966.22" y="517.49" width="8.00" height="2.35" class="down-body"/>
<line x1="984.86" y1="517.04" x2="984.86" y2="521.80" class="down-wick"/>
<rect x="980.86" y="519.84" width="8.00" height="1.00" class="down-body"/>
<line x1="999.49" y1="518.15" x2="999.49" y2="523.87" class="up-wick"/>
<rect x="995.49" y="519.09" width="8.00" height="1.00" class="up-body"/>
<line x1="1014.13" y1="513.26" x2="1014.13" y2="520.03" class="up-wick"/>
<rect x="1010.13" y="513.95" width="8.00" height="5.12" class="up-body"/>
<line x1="1028.77" y1="514.00" x2="1028.77" y2="521.47" class="down-wick"/>
<rect x="1024.77" y="514.00" width="8.00" height="2.96" class="down-body"/>
<line x1="1043.41" y1="507.20" x2="1043.41" y2="517.93" class="up-wick"/>
<rect x="1039.41" y="507.56" width="8.00" height="9.40" class="up-body"/>
<line x1="1058.04" y1="507.48" x2="1058.04" y2="516.71" class="down-wick"/>
<rect x="1054.04" y="507.56" width="8.00" height="8.57" class="down-body"/>
<line x1="1072.68" y1="514.44" x2="1072.68" y2="524.57" class="down-wick"/>
<rect x="1068.68" y="516.21" width="8.00" height="6.03" class="down-body"/>
<text x="70" y="556" class="axis-label">2024-11-13 13:15:00+00:00 to 2024-11-14 07:15:00+00:00</text>
<text x="1080" y="556" text-anchor="end" class="axis-label">2554.16 - 2623.60</text>
<text x="70" y="582" class="panel-title">M1 execution window</text>
<rect x="70" y="596" width="1010" height="192" class="plot-bg"/>
<text x="82" y="638" class="muted">No candles available for this timeframe/window.</text>
</svg>