<svg xmlns="http://www.w3.org/2000/svg" width="1120" height="804" viewBox="0 0 1120 804">
<style>
text{font-family:Arial,Helvetica,sans-serif}.title{font-size:21px;font-weight:700;fill:#1f2937}.subtitle{font-size:12px;fill:#4b5563}.panel-title{font-size:15px;font-weight:700;fill:#111827}.muted{font-size:13px;fill:#6b7280}.plot-bg{fill:#f8fafc;stroke:#cbd5e1;stroke-width:1}.up-body{fill:#15803d;stroke:#14532d;stroke-width:.8}.down-body{fill:#b91c1c;stroke:#7f1d1d;stroke-width:.8}.up-wick{stroke:#14532d;stroke-width:1}.down-wick{stroke:#7f1d1d;stroke-width:1}.sweep-line{stroke:#7c3aed;stroke-width:1.6;stroke-dasharray:6 4}.number-line{stroke:#0f766e;stroke-width:1.4;stroke-dasharray:3 4}.entry-line{stroke:#2563eb;stroke-width:1.4}.sl-line{stroke:#dc2626;stroke-width:1.4}.tp-line{stroke:#16a34a;stroke-width:1.4}.level-label,.axis-label{font-size:11px;fill:#374151}
</style>
<text x="28" y="28" class="title">Adelin v2 visual review sample sample_012</text>
<text x="28" y="48" class="subtitle">Candidate windows are for visual labeling only and are not trade signals.</text>
<text x="560" y="48" class="subtitle" text-anchor="middle">LARGE_LOWER_WICK_REVERSAL_VISUAL_CANDIDATE</text>
<text x="70" y="82" class="panel-title">H1 liquidity context</text>
<rect x="70" y="96" width="1010" height="192" class="plot-bg"/>
<text x="82" y="138" class="muted">No candles available for this timeframe/window.</text>
<text x="70" y="332" class="panel-title">M15 liquidity / reaction context</text>
<rect x="70" y="346" width="1010" height="192" class="plot-bg"/>
<line x1="76.92" y1="409.63" x2="76.92" y2="430.42" class="down-wick"/>
<rect x="72.92" y="418.82" width="8.00" height="10.59" class="down-body"/>
<line x1="90.75" y1="412.81" x2="90.75" y2="429.26" class="up-wick"/>
<rect x="86.75" y="425.42" width="8.00" height="3.84" class="up-body"/>
<line x1="104.59" y1="422.86" x2="104.59" y2="434.84" class="down-wick"/>
<rect x="100.59" y="426.58" width="8.00" height="5.28" class="down-body"/>
<line x1="118.42" y1="418.90" x2="118.42" y2="441.20" class="up-wick"/>
<rect x="114.42" y="420.84" width="8.00" height="11.06" class="up-body"/>
<line x1="132.26" y1="413.63" x2="132.26" y2="428.21" class="down-wick"/>
<rect x="128.26" y="421.58" width="8.00" height="5.70" class="down-body"/>
<line x1="146.10" y1="420.72" x2="146.10" y2="433.45" class="up-wick"/>
<rect x="142.10" y="425.34" width="8.00" height="1.82" class="up-body"/>
<line x1="159.93" y1="405.25" x2="159.93" y2="425.77" class="up-wick"/>
<rect x="155.93" y="407.81" width="8.00" height="17.69" class="up-body"/>
<line x1="173.77" y1="402.38" x2="173.77" y2="412.46" class="up-wick"/>
<rect x="169.77" y="407.34" width="8.00" height="1.00" class="up-body"/>
<line x1="187.60" y1="399.43" x2="187.60" y2="411.14" class="up-wick"/>
<rect x="183.60" y="402.07" width="8.00" height="5.31" class="up-body"/>
<line x1="201.44" y1="401.06" x2="201.44" y2="410.91" class="down-wick"/>
<rect x="197.44" y="402.14" width="8.00" height="7.76" class="down-body"/>
<line x1="215.27" y1="407.19" x2="215.27" y2="416.77" class="down-wick"/>
<rect x="211.27" y="409.71" width="8.00" height="5.31" class="down-body"/>
<line x1="229.11" y1="406.57" x2="229.11" y2="416.84" class="up-wick"/>
<rect x="225.11" y="408.47" width="8.00" height="6.71" class="up-body"/>
<line x1="242.95" y1="402.30" x2="242.95" y2="409.67" class="up-wick"/>
<rect x="238.95" y="402.45" width="8.00" height="6.09" class="up-body"/>
<line x1="256.78" y1="395.51" x2="256.78" y2="407.26" class="up-wick"/>
<rect x="252.78" y="398.38" width="8.00" height="4.07" class="up-body"/>
<line x1="270.62" y1="363.39" x2="270.62" y2="398.34" class="up-wick"/>
<rect x="266.62" y="363.39" width="8.00" height="34.95" class="up-body"/>
<line x1="284.45" y1="359.24" x2="284.45" y2="370.41" class="up-wick"/>
<rect x="280.45" y="361.45" width="8.00" height="1.94" class="up-body"/>
<line x1="298.29" y1="360.75" x2="298.29" y2="376.15" class="down-wick"/>
<rect x="294.29" y="360.75" width="8.00" height="2.95" class="down-body"/>
<line x1="312.12" y1="361.14" x2="312.12" y2="403.23" class="down-wick"/>
<rect x="308.12" y="363.51" width="8.00" height="32.31" class="down-body"/>
<line x1="325.96" y1="389.15" x2="325.96" y2="428.95" class="down-wick"/>
<rect x="321.96" y="395.78" width="8.00" height="19.78" class="down-body"/>
<line x1="339.79" y1="402.69" x2="339.79" y2="418.24" class="up-wick"/>
<rect x="335.79" y="403.11" width="8.00" height="12.49" class="up-body"/>
<line x1="353.63" y1="383.91" x2="353.63" y2="406.53" class="up-wick"/>
<rect x="349.63" y="391.83" width="8.00" height="11.33" class="up-body"/>
<line x1="367.47" y1="388.80" x2="367.47" y2="410.87" class="down-wick"/>
<rect x="363.47" y="392.25" width="8.00" height="15.24" class="down-body"/>
<line x1="381.30" y1="397.76" x2="381.30" y2="415.14" class="up-wick"/>
<rect x="377.30" y="401.41" width="8.00" height="6.25" class="up-body"/>
<line x1="395.14" y1="388.84" x2="395.14" y2="406.95" class="up-wick"/>
<rect x="391.14" y="389.34" width="8.00" height="12.06" class="up-body"/>
<line x1="408.97" y1="384.07" x2="408.97" y2="405.71" class="down-wick"/>
<rect x="404.97" y="389.26" width="8.00" height="10.55" class="down-body"/>
<line x1="422.81" y1="391.55" x2="422.81" y2="400.82" class="up-wick"/>
<rect x="418.81" y="393.03" width="8.00" height="6.87" class="up-body"/>
<line x1="436.64" y1="391.28" x2="436.64" y2="409.98" class="down-wick"/>
<rect x="432.64" y="392.68" width="8.00" height="13.73" class="down-body"/>
<line x1="450.48" y1="396.67" x2="450.48" y2="406.41" class="up-wick"/>
<rect x="446.48" y="397.95" width="8.00" height="8.46" class="up-body"/>
<line x1="464.32" y1="370.72" x2="464.32" y2="402.80" class="up-wick"/>
<rect x="460.32" y="372.97" width="8.00" height="24.67" class="up-body"/>
<line x1="478.15" y1="370.45" x2="478.15" y2="384.18" class="down-wick"/>
<rect x="474.15" y="373.21" width="8.00" height="9.35" class="down-body"/>
<line x1="491.99" y1="375.84" x2="491.99" y2="392.52" class="down-wick"/>
<rect x="487.99" y="382.55" width="8.00" height="6.63" class="down-body"/>
<line x1="505.82" y1="385.42" x2="505.82" y2="394.89" class="down-wick"/>
<rect x="501.82" y="389.46" width="8.00" height="2.25" class="down-body"/>
<line x1="519.66" y1="387.67" x2="519.66" y2="399.43" class="down-wick"/>
<rect x="515.66" y="392.10" width="8.00" height="1.00" class="down-body"/>
<line x1="533.49" y1="386.39" x2="533.49" y2="401.37" class="down-wick"/>
<rect x="529.49" y="392.68" width="8.00" height="6.87" class="down-body"/>
<line x1="547.33" y1="399.08" x2="547.33" y2="418.94" class="down-wick"/>
<rect x="543.33" y="399.27" width="8.00" height="8.88" class="down-body"/>
<line x1="561.16" y1="405.94" x2="561.16" y2="417.39" class="down-wick"/>
<rect x="557.16" y="407.96" width="8.00" height="4.65" class="down-body"/>
<line x1="575.00" y1="409.16" x2="575.00" y2="421.96" class="down-wick"/>
<rect x="571.00" y="412.62" width="8.00" height="7.91" class="down-body"/>
<line x1="588.84" y1="412.34" x2="588.84" y2="437.64" class="down-wick"/>
<rect x="584.84" y="420.53" width="8.00" height="9.12" class="down-body"/>
<line x1="602.67" y1="423.40" x2="602.67" y2="445.90" class="down-wick"/>
<rect x="598.67" y="430.65" width="8.00" height="14.70" class="down-body"/>
<line x1="616.51" y1="429.41" x2="616.51" y2="445.67" class="up-wick"/>
<rect x="612.51" y="434.53" width="8.00" height="10.51" class="up-body"/>
<line x1="630.34" y1="433.83" x2="630.34" y2="473.48" class="down-wick"/>
<rect x="626.34" y="434.84" width="8.00" height="32.20" class="down-body"/>
<line x1="644.18" y1="462.73" x2="644.18" y2="494.50" class="down-wick"/>
<rect x="640.18" y="466.96" width="8.00" height="15.40" class="down-body"/>
<line x1="658.01" y1="467.50" x2="658.01" y2="524.76" class="down-wick"/>
<rect x="654.01" y="482.28" width="8.00" height="32.04" class="down-body"/>
<line x1="671.85" y1="490.70" x2="671.85" y2="517.58" class="up-wick"/>
<rect x="667.85" y="499.55" width="8.00" height="14.78" class="up-body"/>
<line x1="685.68" y1="465.80" x2="685.68" y2="501.83" class="up-wick"/>
<rect x="681.68" y="483.49" width="8.00" height="17.80" class="up-body"/>
<line x1="699.52" y1="470.72" x2="699.52" y2="495.08" class="up-wick"/>
<rect x="695.52" y="481.20" width="8.00" height="2.33" class="up-body"/>
<line x1="713.36" y1="477.94" x2="713.36" y2="513.01" class="down-wick"/>
<rect x="709.36" y="481.39" width="8.00" height="15.55" class="down-body"/>
<line x1="727.19" y1="471.97" x2="727.19" y2="507.96" class="up-wick"/>
<rect x="723.19" y="475.34" width="8.00" height="22.03" class="up-body"/>
<line x1="741.03" y1="469.09" x2="741.03" y2="495.86" class="down-wick"/>
<rect x="737.03" y="474.99" width="8.00" height="5.90" class="down-body"/>
<line x1="754.86" y1="480.50" x2="754.86" y2="492.91" class="down-wick"/>
<rect x="750.86" y="480.89" width="8.00" height="5.66" class="down-body"/>
<line x1="768.70" y1="470.88" x2="768.70" y2="489.23" class="up-wick"/>
<rect x="764.70" y="471.15" width="8.00" height="14.78" class="up-body"/>
<line x1="782.53" y1="461.84" x2="782.53" y2="483.60" class="up-wick"/>
<rect x="778.53" y="464.48" width="8.00" height="6.63" class="up-body"/>
<line x1="796.37" y1="456.64" x2="796.37" y2="469.64" class="up-wick"/>
<rect x="792.37" y="457.50" width="8.00" height="6.71" class="up-body"/>
<line x1="810.21" y1="453.19" x2="810.21" y2="463.28" class="down-wick"/>
<rect x="806.21" y="456.57" width="8.00" height="1.44" class="down-body"/>
<line x1="824.04" y1="448.73" x2="824.04" y2="477.40" class="down-wick"/>
<rect x="820.04" y="457.85" width="8.00" height="12.99" class="down-body"/>
<line x1="837.88" y1="454.82" x2="837.88" y2="472.51" class="up-wick"/>
<rect x="833.88" y="456.95" width="8.00" height="13.73" class="up-body"/>
<line x1="851.71" y1="451.21" x2="851.71" y2="461.69" class="up-wick"/>
<rect x="847.71" y="454.63" width="8.00" height="2.25" class="up-body"/>
<line x1="865.55" y1="451.76" x2="865.55" y2="465.91" class="up-wick"/>
<rect x="861.55" y="452.22" width="8.00" height="2.99" class="up-body"/>
<line x1="879.38" y1="444.39" x2="879.38" y2="452.92" class="up-wick"/>
<rect x="875.38" y="448.11" width="8.00" height="4.11" class="up-body"/>
<line x1="893.22" y1="447.88" x2="893.22" y2="458.74" class="down-wick"/>
<rect x="889.22" y="447.92" width="8.00" height="2.64" class="down-body"/>
<line x1="907.05" y1="436.20" x2="907.05" y2="453.73" class="up-wick"/>
<rect x="903.05" y="438.14" width="8.00" height="12.34" class="up-body"/>
<line x1="920.89" y1="418.86" x2="920.89" y2="439.96" class="up-wick"/>
<rect x="916.89" y="420.26" width="8.00" height="17.88" class="up-body"/>
<line x1="934.73" y1="414.36" x2="934.73" y2="425.18" class="up-wick"/>
<rect x="930.73" y="416.50" width="8.00" height="4.00" class="up-body"/>
<line x1="948.56" y1="410.91" x2="948.56" y2="419.21" class="up-wick"/>
<rect x="944.56" y="416.19" width="8.00" height="1.00" class="up-body"/>
<line x1="962.40" y1="414.21" x2="962.40" y2="429.65" class="down-wick"/>
<rect x="958.40" y="416.34" width="8.00" height="1.63" class="down-body"/>
<line x1="976.23" y1="408.58" x2="976.23" y2="418.78" class="up-wick"/>
<rect x="972.23" y="416.07" width="8.00" height="1.75" class="up-body"/>
<line x1="990.07" y1="409.44" x2="990.07" y2="418.63" class="down-wick"/>
<rect x="986.07" y="415.99" width="8.00" height="2.48" class="down-body"/>
<line x1="1003.90" y1="416.42" x2="1003.90" y2="425.84" class="up-wick"/>
<rect x="999.90" y="416.77" width="8.00" height="1.86" class="up-body"/>
<line x1="1017.74" y1="416.38" x2="1017.74" y2="426.46" class="down-wick"/>
<rect x="1013.74" y="416.77" width="8.00" height="6.87" class="down-body"/>
<line x1="1031.58" y1="420.84" x2="1031.58" y2="441.98" class="down-wick"/>
<rect x="1027.58" y="423.36" width="8.00" height="16.14" class="down-body"/>
<line x1="1045.41" y1="428.13" x2="1045.41" y2="439.69" class="up-wick"/>
<rect x="1041.41" y="438.88" width="8.00" height="1.00" class="up-body"/>
<line x1="1059.25" y1="437.75" x2="1059.25" y2="452.42" class="down-wick"/>
<rect x="1055.25" y="438.95" width="8.00" height="10.59" class="down-body"/>
<line x1="1073.08" y1="444.89" x2="1073.08" y2="461.26" class="down-wick"/>
<rect x="1069.08" y="449.82" width="8.00" height="8.07" class="down-body"/>
<text x="70" y="556" class="axis-label">2024-05-20 05:00:00+00:00 to 2024-05-20 23:00:00+00:00</text>
<text x="1080" y="556" text-anchor="end" class="axis-label">2403.99 - 2453.48</text>
<text x="70" y="582" class="panel-title">M1 execution window</text>
<rect x="70" y="596" width="1010" height="192" class="plot-bg"/>
<text x="82" y="638" class="muted">No candles available for this timeframe/window.</text>
</svg>