<svg xmlns="http://www.w3.org/2000/svg" width="1120" height="1054" viewBox="0 0 1120 1054">
<style>
text{font-family:Arial,Helvetica,sans-serif}.title{font-size:21px;font-weight:700;fill:#1f2937}.subtitle{font-size:12px;fill:#4b5563}.panel-title{font-size:15px;font-weight:700;fill:#111827}.muted{font-size:13px;fill:#6b7280}.plot-bg{fill:#f8fafc;stroke:#cbd5e1;stroke-width:1}.up-body{fill:#15803d;stroke:#14532d;stroke-width:.8}.down-body{fill:#b91c1c;stroke:#7f1d1d;stroke-width:.8}.up-wick{stroke:#14532d;stroke-width:1}.down-wick{stroke:#7f1d1d;stroke-width:1}.sweep-line{stroke:#7c3aed;stroke-width:1.6;stroke-dasharray:6 4}.number-line{stroke:#0f766e;stroke-width:1.4;stroke-dasharray:3 4}.entry-line{stroke:#2563eb;stroke-width:1.4}.sl-line{stroke:#dc2626;stroke-width:1.4}.tp-line{stroke:#16a34a;stroke-width:1.4}.level-label,.axis-label{font-size:11px;fill:#374151}
</style>
<text x="28" y="28" class="title">Adelin v2 visual review sample sample_035</text>
<text x="28" y="48" class="subtitle">Candidate windows are for visual labeling only and are not trade signals.</text>
<text x="560" y="48" class="subtitle" text-anchor="middle">LARGE_UPPER_WICK_REVERSAL_VISUAL_CANDIDATE</text>
<text x="70" y="82" class="panel-title">H1 liquidity context</text>
<rect x="70" y="96" width="1010" height="192" class="plot-bg"/>
<line x1="81.48" y1="110.17" x2="81.48" y2="144.63" class="up-wick"/>
<rect x="77.48" y="137.35" width="8.00" height="1.23" class="up-body"/>
<line x1="104.43" y1="135.43" x2="104.43" y2="168.68" class="down-wick"/>
<rect x="100.43" y="137.35" width="8.00" height="24.80" class="down-body"/>
<line x1="127.39" y1="147.88" x2="127.39" y2="196.38" class="down-wick"/>
<rect x="123.39" y="162.14" width="8.00" height="13.11" class="down-body"/>
<line x1="150.34" y1="134.55" x2="150.34" y2="177.67" class="up-wick"/>
<rect x="146.34" y="144.38" width="8.00" height="30.87" class="up-body"/>
<line x1="173.30" y1="137.94" x2="173.30" y2="168.97" class="down-wick"/>
<rect x="169.30" y="144.47" width="8.00" height="21.39" class="down-body"/>
<line x1="196.25" y1="155.60" x2="196.25" y2="178.51" class="down-wick"/>
<rect x="192.25" y="165.87" width="8.00" height="9.28" class="down-body"/>
<line x1="219.20" y1="157.30" x2="219.20" y2="226.96" class="down-wick"/>
<rect x="215.20" y="175.15" width="8.00" height="18.81" class="down-body"/>
<line x1="242.16" y1="143.81" x2="242.16" y2="206.21" class="up-wick"/>
<rect x="238.16" y="149.49" width="8.00" height="44.53" class="up-body"/>
<line x1="265.11" y1="148.67" x2="265.11" y2="193.60" class="down-wick"/>
<rect x="261.11" y="149.28" width="8.00" height="35.01" class="down-body"/>
<line x1="288.07" y1="171.78" x2="288.07" y2="200.23" class="up-wick"/>
<rect x="284.07" y="177.40" width="8.00" height="6.88" class="up-body"/>
<line x1="311.02" y1="146.88" x2="311.02" y2="179.25" class="up-wick"/>
<rect x="307.02" y="154.29" width="8.00" height="23.17" class="up-body"/>
<line x1="333.98" y1="148.96" x2="333.98" y2="165.27" class="down-wick"/>
<rect x="329.98" y="154.17" width="8.00" height="1.00" class="down-body"/>
<line x1="356.93" y1="153.33" x2="356.93" y2="176.52" class="down-wick"/>
<rect x="352.93" y="154.72" width="8.00" height="20.44" class="down-body"/>
<line x1="379.89" y1="161.43" x2="379.89" y2="239.18" class="up-wick"/>
<rect x="375.89" y="174.65" width="8.00" height="11.17" class="up-body"/>
<line x1="402.84" y1="171.76" x2="402.84" y2="196.42" class="down-wick"/>
<rect x="398.84" y="174.65" width="8.00" height="13.75" class="down-body"/>
<line x1="425.80" y1="180.18" x2="425.80" y2="274.76" class="down-wick"/>
<rect x="421.80" y="188.37" width="8.00" height="32.15" class="down-body"/>
<line x1="448.75" y1="190.48" x2="448.75" y2="260.66" class="up-wick"/>
<rect x="444.75" y="206.15" width="8.00" height="15.16" class="up-body"/>
<line x1="471.70" y1="179.69" x2="471.70" y2="211.48" class="up-wick"/>
<rect x="467.70" y="193.60" width="8.00" height="12.55" class="up-body"/>
<line x1="494.66" y1="171.99" x2="494.66" y2="206.52" class="up-wick"/>
<rect x="490.66" y="182.23" width="8.00" height="11.36" class="up-body"/>
<line x1="517.61" y1="169.12" x2="517.61" y2="199.23" class="down-wick"/>
<rect x="513.61" y="182.25" width="8.00" height="1.00" class="down-body"/>
<line x1="540.57" y1="165.72" x2="540.57" y2="199.38" class="down-wick"/>
<rect x="536.57" y="182.99" width="8.00" height="14.83" class="down-body"/>
<line x1="563.52" y1="171.66" x2="563.52" y2="199.73" class="up-wick"/>
<rect x="559.52" y="173.69" width="8.00" height="24.13" class="up-body"/>
<line x1="586.48" y1="153.79" x2="586.48" y2="186.68" class="down-wick"/>
<rect x="582.48" y="173.69" width="8.00" height="1.00" class="down-body"/>
<line x1="609.43" y1="158.24" x2="609.43" y2="179.97" class="up-wick"/>
<rect x="605.43" y="168.86" width="8.00" height="5.67" class="up-body"/>
<line x1="632.39" y1="165.85" x2="632.39" y2="183.92" class="down-wick"/>
<rect x="628.39" y="168.86" width="8.00" height="10.68" class="down-body"/>
<line x1="655.34" y1="172.20" x2="655.34" y2="196.30" class="down-wick"/>
<rect x="651.34" y="179.54" width="8.00" height="4.13" class="down-body"/>
<line x1="678.30" y1="142.73" x2="678.30" y2="199.48" class="up-wick"/>
<rect x="674.30" y="167.89" width="8.00" height="15.79" class="up-body"/>
<line x1="701.25" y1="130.95" x2="701.25" y2="176.00" class="up-wick"/>
<rect x="697.25" y="136.62" width="8.00" height="31.28" class="up-body"/>
<line x1="724.20" y1="116.79" x2="724.20" y2="150.86" class="up-wick"/>
<rect x="720.20" y="129.49" width="8.00" height="7.14" class="up-body"/>
<line x1="747.16" y1="129.49" x2="747.16" y2="187.32" class="down-wick"/>
<rect x="743.16" y="129.49" width="8.00" height="44.68" class="down-body"/>
<line x1="770.11" y1="171.96" x2="770.11" y2="196.39" class="down-wick"/>
<rect x="766.11" y="174.19" width="8.00" height="4.41" class="down-body"/>
<line x1="793.07" y1="162.11" x2="793.07" y2="193.23" class="up-wick"/>
<rect x="789.07" y="168.54" width="8.00" height="10.06" class="up-body"/>
<line x1="816.02" y1="156.22" x2="816.02" y2="175.59" class="down-wick"/>
<rect x="812.02" y="168.54" width="8.00" height="4.88" class="down-body"/>
<line x1="838.98" y1="172.19" x2="838.98" y2="193.05" class="down-wick"/>
<rect x="834.98" y="173.42" width="8.00" height="16.82" class="down-body"/>
<line x1="861.93" y1="146.01" x2="861.93" y2="191.10" class="up-wick"/>
<rect x="857.93" y="156.05" width="8.00" height="34.19" class="up-body"/>
<line x1="884.89" y1="125.83" x2="884.89" y2="144.70" class="up-wick"/>
<rect x="880.89" y="132.56" width="8.00" height="11.38" class="up-body"/>
<line x1="907.84" y1="109.61" x2="907.84" y2="132.85" class="up-wick"/>
<rect x="903.84" y="120.56" width="8.00" height="12.03" class="up-body"/>
<line x1="930.80" y1="109.24" x2="930.80" y2="151.69" class="down-wick"/>
<rect x="926.80" y="120.56" width="8.00" height="27.93" class="down-body"/>
<line x1="953.75" y1="134.71" x2="953.75" y2="162.57" class="up-wick"/>
<rect x="949.75" y="147.85" width="8.00" height="1.00" class="up-body"/>
<line x1="976.70" y1="147.85" x2="976.70" y2="174.95" class="down-wick"/>
<rect x="972.70" y="147.85" width="8.00" height="25.28" class="down-body"/>
<line x1="999.66" y1="161.08" x2="999.66" y2="178.60" class="down-wick"/>
<rect x="995.66" y="173.13" width="8.00" height="3.19" class="down-body"/>
<line x1="1022.61" y1="175.39" x2="1022.61" y2="187.02" class="down-wick"/>
<rect x="1018.61" y="176.32" width="8.00" height="4.04" class="down-body"/>
<line x1="1045.57" y1="174.01" x2="1045.57" y2="197.90" class="down-wick"/>
<rect x="1041.57" y="180.33" width="8.00" height="2.34" class="down-body"/>
<line x1="1068.52" y1="162.89" x2="1068.52" y2="193.99" class="up-wick"/>
<rect x="1064.52" y="171.64" width="8.00" height="11.03" class="up-body"/>
<text x="70" y="306" class="axis-label">2026-05-15 10:00:00+00:00 to 2026-05-19 09:00:00+00:00</text>
<text x="1080" y="306" text-anchor="end" class="axis-label">4471.58 - 4597.96</text>
<text x="70" y="332" class="panel-title">M15 liquidity / reaction context</text>
<rect x="70" y="346" width="1010" height="192" class="plot-bg"/>
<line x1="78.71" y1="382.69" x2="78.71" y2="480.15" class="up-wick"/>
<rect x="74.71" y="395.11" width="8.00" height="18.15" class="up-body"/>
<line x1="96.12" y1="391.96" x2="96.12" y2="414.71" class="down-wick"/>
<rect x="92.12" y="395.11" width="8.00" height="13.89" class="down-body"/>
<line x1="113.53" y1="384.78" x2="113.53" y2="409.18" class="up-wick"/>
<rect x="109.53" y="392.04" width="8.00" height="16.93" class="up-body"/>
<line x1="130.95" y1="383.16" x2="130.95" y2="404.06" class="down-wick"/>
<rect x="126.95" y="392.04" width="8.00" height="7.22" class="down-body"/>
<line x1="148.36" y1="395.64" x2="148.36" y2="412.02" class="down-wick"/>
<rect x="144.36" y="399.26" width="8.00" height="8.72" class="down-body"/>
<line x1="165.78" y1="402.76" x2="165.78" y2="415.14" class="down-wick"/>
<rect x="161.78" y="407.96" width="8.00" height="6.93" class="down-body"/>
<line x1="183.19" y1="408.34" x2="183.19" y2="425.31" class="up-wick"/>
<rect x="179.19" y="412.69" width="8.00" height="2.21" class="up-body"/>
<line x1="200.60" y1="403.18" x2="200.60" y2="426.55" class="down-wick"/>
<rect x="196.60" y="412.84" width="8.00" height="3.66" class="down-body"/>
<line x1="218.02" y1="406.19" x2="218.02" y2="443.52" class="down-wick"/>
<rect x="214.02" y="416.46" width="8.00" height="20.70" class="down-body"/>
<line x1="235.43" y1="423.20" x2="235.43" y2="459.87" class="down-wick"/>
<rect x="231.43" y="437.16" width="8.00" height="20.04" class="down-body"/>
<line x1="252.84" y1="450.84" x2="252.84" y2="524.53" class="down-wick"/>
<rect x="248.84" y="457.20" width="8.00" height="65.08" class="down-body"/>
<line x1="270.26" y1="455.43" x2="270.26" y2="524.76" class="up-wick"/>
<rect x="266.26" y="456.76" width="8.00" height="65.52" class="up-body"/>
<line x1="287.67" y1="456.44" x2="287.67" y2="507.08" class="down-wick"/>
<rect x="283.67" y="457.75" width="8.00" height="37.12" class="down-body"/>
<line x1="305.09" y1="468.19" x2="305.09" y2="500.80" class="up-wick"/>
<rect x="301.09" y="479.58" width="8.00" height="15.31" class="up-body"/>
<line x1="322.50" y1="460.86" x2="322.50" y2="487.62" class="up-wick"/>
<rect x="318.50" y="463.33" width="8.00" height="16.25" class="up-body"/>
<line x1="339.91" y1="419.11" x2="339.91" y2="466.30" class="up-wick"/>
<rect x="335.91" y="438.74" width="8.00" height="24.59" class="up-body"/>
<line x1="357.33" y1="413.75" x2="357.33" y2="445.43" class="up-wick"/>
<rect x="353.33" y="417.37" width="8.00" height="21.37" class="up-body"/>
<line x1="374.74" y1="409.72" x2="374.74" y2="426.46" class="down-wick"/>
<rect x="370.74" y="417.37" width="8.00" height="6.00" class="down-body"/>
<line x1="392.16" y1="408.80" x2="392.16" y2="431.05" class="up-wick"/>
<rect x="388.16" y="418.21" width="8.00" height="5.16" class="up-body"/>
<line x1="409.57" y1="405.58" x2="409.57" y2="429.26" class="down-wick"/>
<rect x="405.57" y="418.21" width="8.00" height="4.80" class="down-body"/>
<line x1="426.98" y1="419.03" x2="426.98" y2="436.32" class="down-wick"/>
<rect x="422.98" y="423.01" width="8.00" height="7.75" class="down-body"/>
<line x1="444.40" y1="414.04" x2="444.40" y2="433.30" class="up-wick"/>
<rect x="440.40" y="418.71" width="8.00" height="12.06" class="up-body"/>
<line x1="461.81" y1="395.93" x2="461.81" y2="439.22" class="up-wick"/>
<rect x="457.81" y="400.12" width="8.00" height="18.59" class="up-body"/>
<line x1="479.22" y1="396.14" x2="479.22" y2="412.25" class="down-wick"/>
<rect x="475.22" y="400.12" width="8.00" height="8.65" class="down-body"/>
<line x1="496.64" y1="392.33" x2="496.64" y2="409.18" class="up-wick"/>
<rect x="492.64" y="402.71" width="8.00" height="6.08" class="up-body"/>
<line x1="514.05" y1="397.47" x2="514.05" y2="430.08" class="down-wick"/>
<rect x="510.05" y="402.71" width="8.00" height="22.25" class="down-body"/>
<line x1="531.47" y1="402.90" x2="531.47" y2="425.91" class="up-wick"/>
<rect x="527.47" y="407.77" width="8.00" height="17.29" class="up-body"/>
<line x1="548.88" y1="400.23" x2="548.88" y2="420.25" class="down-wick"/>
<rect x="544.88" y="407.77" width="8.00" height="1.98" class="down-body"/>
<line x1="566.29" y1="405.58" x2="566.29" y2="424.46" class="down-wick"/>
<rect x="562.29" y="409.72" width="8.00" height="4.67" class="down-body"/>
<line x1="583.71" y1="390.71" x2="583.71" y2="420.74" class="up-wick"/>
<rect x="579.71" y="394.31" width="8.00" height="20.08" class="up-body"/>
<line x1="601.12" y1="388.06" x2="601.12" y2="414.02" class="down-wick"/>
<rect x="597.12" y="394.31" width="8.00" height="17.50" class="down-body"/>
<line x1="618.53" y1="405.20" x2="618.53" y2="430.27" class="down-wick"/>
<rect x="614.53" y="411.81" width="8.00" height="16.49" class="down-body"/>
<line x1="635.95" y1="410.10" x2="635.95" y2="430.71" class="up-wick"/>
<rect x="631.95" y="415.92" width="8.00" height="12.38" class="up-body"/>
<line x1="653.36" y1="395.51" x2="653.36" y2="421.58" class="up-wick"/>
<rect x="649.36" y="415.68" width="8.00" height="1.00" class="up-body"/>
<line x1="670.78" y1="397.49" x2="670.78" y2="421.39" class="up-wick"/>
<rect x="666.78" y="409.68" width="8.00" height="5.98" class="up-body"/>
<line x1="688.19" y1="396.31" x2="688.19" y2="413.83" class="up-wick"/>
<rect x="684.19" y="398.06" width="8.00" height="11.62" class="up-body"/>
<line x1="705.60" y1="393.05" x2="705.60" y2="407.18" class="down-wick"/>
<rect x="701.60" y="398.06" width="8.00" height="6.08" class="down-body"/>
<line x1="723.02" y1="389.28" x2="723.02" y2="414.34" class="up-wick"/>
<rect x="719.02" y="390.90" width="8.00" height="13.24" class="up-body"/>
<line x1="740.43" y1="373.11" x2="740.43" y2="396.10" class="down-wick"/>
<rect x="736.43" y="390.90" width="8.00" height="2.93" class="down-body"/>
<line x1="757.84" y1="388.57" x2="757.84" y2="410.93" class="down-wick"/>
<rect x="753.84" y="393.83" width="8.00" height="5.28" class="down-body"/>
<line x1="775.26" y1="394.15" x2="775.26" y2="405.93" class="up-wick"/>
<rect x="771.26" y="398.55" width="8.00" height="1.00" class="up-body"/>
<line x1="792.67" y1="389.14" x2="792.67" y2="405.72" class="up-wick"/>
<rect x="788.67" y="395.83" width="8.00" height="2.72" class="up-body"/>
<line x1="810.09" y1="386.06" x2="810.09" y2="399.28" class="up-wick"/>
<rect x="806.09" y="395.74" width="8.00" height="1.00" class="up-body"/>
<line x1="827.50" y1="378.69" x2="827.50" y2="395.75" class="up-wick"/>
<rect x="823.50" y="392.00" width="8.00" height="3.75" class="up-body"/>
<line x1="844.91" y1="388.23" x2="844.91" y2="408.59" class="down-wick"/>
<rect x="840.91" y="392.00" width="8.00" height="7.05" class="down-body"/>
<line x1="862.33" y1="394.02" x2="862.33" y2="402.38" class="down-wick"/>
<rect x="858.33" y="399.03" width="8.00" height="2.48" class="down-body"/>
<line x1="879.74" y1="398.74" x2="879.74" y2="409.72" class="down-wick"/>
<rect x="875.74" y="401.81" width="8.00" height="3.62" class="down-body"/>
<line x1="897.16" y1="402.15" x2="897.16" y2="410.88" class="down-wick"/>
<rect x="893.16" y="405.37" width="8.00" height="1.00" class="down-body"/>
<line x1="914.57" y1="401.47" x2="914.57" y2="419.24" class="down-wick"/>
<rect x="910.57" y="405.39" width="8.00" height="7.14" class="down-body"/>
<line x1="931.98" y1="406.44" x2="931.98" y2="414.67" class="up-wick"/>
<rect x="927.98" y="411.68" width="8.00" height="1.00" class="up-body"/>
<line x1="949.40" y1="403.24" x2="949.40" y2="426.40" class="up-wick"/>
<rect x="945.40" y="403.72" width="8.00" height="7.96" class="up-body"/>
<line x1="966.81" y1="396.19" x2="966.81" y2="417.22" class="down-wick"/>
<rect x="962.81" y="403.72" width="8.00" height="6.86" class="down-body"/>
<line x1="984.22" y1="407.66" x2="984.22" y2="430.38" class="down-wick"/>
<rect x="980.22" y="410.57" width="8.00" height="1.43" class="down-body"/>
<line x1="1001.64" y1="410.61" x2="1001.64" y2="426.44" class="down-wick"/>
<rect x="997.64" y="412.00" width="8.00" height="6.13" class="down-body"/>
<line x1="1019.05" y1="359.24" x2="1019.05" y2="419.68" class="up-wick"/>
<rect x="1015.05" y="368.90" width="8.00" height="49.33" class="up-body"/>
<line x1="1036.47" y1="364.48" x2="1036.47" y2="392.92" class="down-wick"/>
<rect x="1032.47" y="368.94" width="8.00" height="21.85" class="down-body"/>
<line x1="1053.88" y1="379.58" x2="1053.88" y2="396.65" class="up-wick"/>
<rect x="1049.88" y="385.45" width="8.00" height="5.35" class="up-body"/>
<line x1="1071.29" y1="382.12" x2="1071.29" y2="400.95" class="down-wick"/>
<rect x="1067.29" y="385.45" width="8.00" height="5.35" class="down-body"/>
<text x="70" y="556" class="axis-label">2026-05-18 01:00:00+00:00 to 2026-05-18 15:15:00+00:00</text>
<text x="1080" y="556" text-anchor="end" class="axis-label">4473.35 - 4574.15</text>
<text x="70" y="582" class="panel-title">M5 reaction / execution context</text>
<rect x="70" y="596" width="1010" height="192" class="plot-bg"/>
<line x1="79.18" y1="708.75" x2="79.18" y2="726.26" class="down-wick"/>
<rect x="75.18" y="708.86" width="8.00" height="7.01" class="down-body"/>
<line x1="97.55" y1="687.18" x2="97.55" y2="729.82" class="up-wick"/>
<rect x="93.55" y="700.16" width="8.00" height="15.71" class="up-body"/>
<line x1="115.91" y1="695.78" x2="115.91" y2="744.71" class="down-wick"/>
<rect x="111.91" y="700.16" width="8.00" height="14.40" class="down-body"/>
<line x1="134.27" y1="702.56" x2="134.27" y2="756.81" class="down-wick"/>
<rect x="130.27" y="714.44" width="8.00" height="26.60" class="down-body"/>
<line x1="152.64" y1="718.77" x2="152.64" y2="751.93" class="up-wick"/>
<rect x="148.64" y="729.55" width="8.00" height="11.49" class="up-body"/>
<line x1="171.00" y1="723.31" x2="171.00" y2="742.63" class="up-wick"/>
<rect x="167.00" y="727.85" width="8.00" height="1.59" class="up-body"/>
<line x1="189.36" y1="668.35" x2="189.36" y2="746.13" class="up-wick"/>
<rect x="185.36" y="685.49" width="8.00" height="42.36" class="up-body"/>
<line x1="207.73" y1="665.78" x2="207.73" y2="709.79" class="up-wick"/>
<rect x="203.73" y="684.61" width="8.00" height="1.00" class="up-body"/>
<line x1="226.09" y1="659.82" x2="226.09" y2="690.36" class="up-wick"/>
<rect x="222.09" y="670.16" width="8.00" height="14.07" class="up-body"/>
<line x1="244.45" y1="652.21" x2="244.45" y2="719.31" class="down-wick"/>
<rect x="240.45" y="670.16" width="8.00" height="33.77" class="down-body"/>
<line x1="262.82" y1="678.81" x2="262.82" y2="715.04" class="up-wick"/>
<rect x="258.82" y="694.46" width="8.00" height="9.47" class="up-body"/>
<line x1="281.18" y1="692.44" x2="281.18" y2="726.81" class="down-wick"/>
<rect x="277.18" y="694.52" width="8.00" height="25.94" class="down-body"/>
<line x1="299.55" y1="701.47" x2="299.55" y2="732.12" class="down-wick"/>
<rect x="295.55" y="720.46" width="8.00" height="4.43" class="down-body"/>
<line x1="317.91" y1="719.37" x2="317.91" y2="746.79" class="down-wick"/>
<rect x="313.91" y="724.90" width="8.00" height="13.57" class="down-body"/>
<line x1="336.27" y1="724.29" x2="336.27" y2="773.50" class="down-wick"/>
<rect x="332.27" y="738.52" width="8.00" height="29.34" class="down-body"/>
<line x1="354.64" y1="721.56" x2="354.64" y2="774.76" class="up-wick"/>
<rect x="350.64" y="743.45" width="8.00" height="24.41" class="up-body"/>
<line x1="373.00" y1="715.54" x2="373.00" y2="753.80" class="up-wick"/>
<rect x="369.00" y="729.11" width="8.00" height="14.34" class="up-body"/>
<line x1="391.36" y1="727.58" x2="391.36" y2="760.36" class="down-wick"/>
<rect x="387.36" y="729.11" width="8.00" height="3.17" class="down-body"/>
<line x1="409.73" y1="709.68" x2="409.73" y2="748.27" class="down-wick"/>
<rect x="405.73" y="732.28" width="8.00" height="6.02" class="down-body"/>
<line x1="428.09" y1="695.50" x2="428.09" y2="748.54" class="up-wick"/>
<rect x="424.09" y="699.61" width="8.00" height="38.64" class="up-body"/>
<line x1="446.45" y1="673.61" x2="446.45" y2="733.54" class="down-wick"/>
<rect x="442.45" y="699.61" width="8.00" height="31.96" class="down-body"/>
<line x1="464.82" y1="679.30" x2="464.82" y2="747.99" class="up-wick"/>
<rect x="460.82" y="718.44" width="8.00" height="13.08" class="up-body"/>
<line x1="483.18" y1="706.50" x2="483.18" y2="730.04" class="down-wick"/>
<rect x="479.18" y="718.44" width="8.00" height="10.40" class="down-body"/>
<line x1="501.55" y1="713.57" x2="501.55" y2="745.04" class="up-wick"/>
<rect x="497.55" y="714.33" width="8.00" height="14.50" class="up-body"/>
<line x1="519.91" y1="683.95" x2="519.91" y2="726.26" class="up-wick"/>
<rect x="515.91" y="697.58" width="8.00" height="16.75" class="up-body"/>
<line x1="538.27" y1="684.72" x2="538.27" y2="703.93" class="up-wick"/>
<rect x="534.27" y="686.03" width="8.00" height="11.55" class="up-body"/>
<line x1="556.64" y1="675.91" x2="556.64" y2="692.49" class="up-wick"/>
<rect x="552.64" y="680.94" width="8.00" height="5.09" class="up-body"/>
<line x1="575.00" y1="666.55" x2="575.00" y2="698.79" class="down-wick"/>
<rect x="571.00" y="680.94" width="8.00" height="15.87" class="down-body"/>
<line x1="593.36" y1="674.54" x2="593.36" y2="700.48" class="up-wick"/>
<rect x="589.36" y="683.57" width="8.00" height="13.25" class="up-body"/>
<line x1="611.73" y1="683.63" x2="611.73" y2="707.16" class="down-wick"/>
<rect x="607.73" y="683.63" width="8.00" height="14.78" class="down-body"/>
<line x1="630.09" y1="686.36" x2="630.09" y2="708.75" class="down-wick"/>
<rect x="626.09" y="698.40" width="8.00" height="9.25" class="down-body"/>
<line x1="648.45" y1="706.56" x2="648.45" y2="727.74" class="down-wick"/>
<rect x="644.45" y="707.38" width="8.00" height="14.50" class="down-body"/>
<line x1="666.82" y1="655.71" x2="666.82" y2="722.71" class="up-wick"/>
<rect x="662.82" y="660.36" width="8.00" height="61.52" class="up-body"/>
<line x1="685.18" y1="609.24" x2="685.18" y2="660.58" class="up-wick"/>
<rect x="681.18" y="637.37" width="8.00" height="22.99" class="up-body"/>
<line x1="703.55" y1="634.47" x2="703.55" y2="654.73" class="down-wick"/>
<rect x="699.55" y="637.37" width="8.00" height="10.84" class="down-body"/>
<line x1="721.91" y1="639.84" x2="721.91" y2="675.31" class="down-wick"/>
<rect x="717.91" y="648.21" width="8.00" height="20.58" class="down-body"/>
<line x1="740.27" y1="653.69" x2="740.27" y2="697.75" class="down-wick"/>
<rect x="736.27" y="668.79" width="8.00" height="27.86" class="down-body"/>
<line x1="758.64" y1="684.34" x2="758.64" y2="717.94" class="up-wick"/>
<rect x="754.64" y="692.55" width="8.00" height="4.11" class="up-body"/>
<line x1="777.00" y1="671.58" x2="777.00" y2="702.73" class="up-wick"/>
<rect x="773.00" y="683.95" width="8.00" height="8.54" class="up-body"/>
<line x1="795.36" y1="669.72" x2="795.36" y2="691.95" class="up-wick"/>
<rect x="791.36" y="682.31" width="8.00" height="1.64" class="up-body"/>
<line x1="813.73" y1="672.68" x2="813.73" y2="697.69" class="down-wick"/>
<rect x="809.73" y="682.31" width="8.00" height="14.01" class="down-body"/>
<line x1="832.09" y1="678.81" x2="832.09" y2="703.55" class="up-wick"/>
<rect x="828.09" y="682.37" width="8.00" height="13.96" class="up-body"/>
<line x1="850.45" y1="682.15" x2="850.45" y2="702.95" class="down-wick"/>
<rect x="846.45" y="682.37" width="8.00" height="5.20" class="down-body"/>
<line x1="868.82" y1="664.19" x2="868.82" y2="688.06" class="up-wick"/>
<rect x="864.82" y="664.69" width="8.00" height="22.88" class="up-body"/>
<line x1="887.18" y1="655.33" x2="887.18" y2="681.05" class="down-wick"/>
<rect x="883.18" y="664.69" width="8.00" height="9.85" class="down-body"/>
<line x1="905.55" y1="646.46" x2="905.55" y2="684.45" class="up-wick"/>
<rect x="901.55" y="654.01" width="8.00" height="20.53" class="up-body"/>
<line x1="923.91" y1="653.52" x2="923.91" y2="673.66" class="down-wick"/>
<rect x="919.91" y="653.85" width="8.00" height="2.46" class="down-body"/>
<line x1="942.27" y1="656.26" x2="942.27" y2="674.43" class="down-wick"/>
<rect x="938.27" y="656.31" width="8.00" height="17.95" class="down-body"/>
<line x1="960.64" y1="642.85" x2="960.64" y2="674.32" class="up-wick"/>
<rect x="956.64" y="651.88" width="8.00" height="22.44" class="up-body"/>
<line x1="979.00" y1="625.28" x2="979.00" y2="654.40" class="up-wick"/>
<rect x="975.00" y="631.08" width="8.00" height="20.85" class="up-body"/>
<line x1="997.36" y1="627.47" x2="997.36" y2="663.54" class="down-wick"/>
<rect x="993.36" y="631.08" width="8.00" height="32.46" class="down-body"/>
<line x1="1015.73" y1="652.70" x2="1015.73" y2="711.21" class="down-wick"/>
<rect x="1011.73" y="663.54" width="8.00" height="40.89" class="down-body"/>
<line x1="1034.09" y1="678.86" x2="1034.09" y2="709.95" class="up-wick"/>
<rect x="1030.09" y="679.90" width="8.00" height="24.52" class="up-body"/>
<line x1="1052.45" y1="675.52" x2="1052.45" y2="690.36" class="down-wick"/>
<rect x="1048.45" y="679.90" width="8.00" height="3.89" class="down-body"/>
<line x1="1070.82" y1="671.58" x2="1070.82" y2="688.61" class="down-wick"/>
<rect x="1066.82" y="683.74" width="8.00" height="1.00" class="down-body"/>
<text x="70" y="806" class="axis-label">2026-05-18 07:45:00+00:00 to 2026-05-18 12:15:00+00:00</text>
<text x="1080" y="806" text-anchor="end" class="axis-label">4527.26 - 4562.34</text>
<text x="70" y="832" class="panel-title">M1 execution window</text>
<rect x="70" y="846" width="1010" height="192" class="plot-bg"/>
<line x1="73.71" y1="957.49" x2="73.71" y2="968.87" class="down-wick"/>
<rect x="71.30" y="957.61" width="4.83" height="9.89" class="down-body"/>
<line x1="81.14" y1="957.89" x2="81.14" y2="968.58" class="down-wick"/>
<rect x="78.73" y="964.94" width="4.83" height="1.00" class="down-body"/>
<line x1="88.57" y1="961.13" x2="88.57" y2="968.98" class="up-wick"/>
<rect x="86.15" y="964.89" width="4.83" height="4.09" class="up-body"/>
<line x1="95.99" y1="957.04" x2="95.99" y2="976.71" class="up-wick"/>
<rect x="93.58" y="957.95" width="4.83" height="18.42" class="up-body"/>
<line x1="103.42" y1="935.09" x2="103.42" y2="954.08" class="up-wick"/>
<rect x="101.01" y="947.60" width="4.83" height="1.00" class="up-body"/>
<line x1="110.85" y1="944.02" x2="110.85" y2="990.59" class="down-wick"/>
<rect x="108.43" y="948.57" width="4.83" height="40.65" class="down-body"/>
<line x1="118.27" y1="962.27" x2="118.27" y2="980.58" class="up-wick"/>
<rect x="115.86" y="967.79" width="4.83" height="12.62" class="up-body"/>
<line x1="125.70" y1="962.84" x2="125.70" y2="976.14" class="up-wick"/>
<rect x="123.28" y="963.52" width="4.83" height="4.55" class="up-body"/>
<line x1="133.12" y1="983.25" x2="133.12" y2="996.44" class="down-wick"/>
<rect x="130.71" y="983.31" width="4.83" height="9.21" class="down-body"/>
<line x1="140.55" y1="990.76" x2="140.55" y2="1007.08" class="down-wick"/>
<rect x="138.14" y="995.25" width="4.83" height="11.77" class="down-body"/>
<line x1="147.98" y1="988.65" x2="147.98" y2="1002.36" class="down-wick"/>
<rect x="145.56" y="991.04" width="4.83" height="5.40" class="down-body"/>
<line x1="155.40" y1="992.18" x2="155.40" y2="998.49" class="up-wick"/>
<rect x="152.99" y="993.77" width="4.83" height="1.00" class="up-body"/>
<line x1="162.83" y1="978.30" x2="162.83" y2="987.06" class="up-wick"/>
<rect x="160.42" y="979.10" width="4.83" height="4.38" class="up-body"/>
<line x1="170.26" y1="978.25" x2="170.26" y2="988.31" class="down-wick"/>
<rect x="167.84" y="986.61" width="4.83" height="1.00" class="down-body"/>
<line x1="177.68" y1="972.62" x2="177.68" y2="988.37" class="down-wick"/>
<rect x="175.27" y="981.49" width="4.83" height="3.53" class="down-body"/>
<line x1="185.11" y1="977.17" x2="185.11" y2="996.33" class="down-wick"/>
<rect x="182.70" y="977.34" width="4.83" height="17.97" class="down-body"/>
<line x1="192.54" y1="963.58" x2="192.54" y2="995.31" class="up-wick"/>
<rect x="190.12" y="968.52" width="4.83" height="23.20" class="up-body"/>
<line x1="199.96" y1="915.53" x2="199.96" y2="938.45" class="up-wick"/>
<rect x="197.55" y="933.33" width="4.83" height="4.95" class="up-body"/>
<line x1="207.39" y1="929.86" x2="207.39" y2="947.60" class="down-wick"/>
<rect x="204.98" y="937.59" width="4.83" height="6.99" class="down-body"/>
<line x1="214.82" y1="912.86" x2="214.82" y2="944.47" class="down-wick"/>
<rect x="212.40" y="927.13" width="4.83" height="12.62" class="down-body"/>
<line x1="222.24" y1="927.53" x2="222.24" y2="938.39" class="up-wick"/>
<rect x="219.83" y="931.34" width="4.83" height="1.00" class="up-body"/>
<line x1="229.67" y1="906.66" x2="229.67" y2="917.47" class="up-wick"/>
<rect x="227.26" y="912.46" width="4.83" height="3.58" class="up-body"/>
<line x1="237.10" y1="913.54" x2="237.10" y2="924.29" class="up-wick"/>
<rect x="234.68" y="917.41" width="4.83" height="3.07" class="up-body"/>
<line x1="244.52" y1="908.88" x2="244.52" y2="948.17" class="down-wick"/>
<rect x="242.11" y="908.88" width="4.83" height="38.10" class="down-body"/>
<line x1="251.95" y1="954.99" x2="251.95" y2="966.53" class="down-wick"/>
<rect x="249.53" y="958.57" width="4.83" height="1.00" class="down-body"/>
<line x1="259.38" y1="944.36" x2="259.38" y2="964.03" class="down-wick"/>
<rect x="256.96" y="952.49" width="4.83" height="4.66" class="down-body"/>
<line x1="266.80" y1="930.09" x2="266.80" y2="948.34" class="up-wick"/>
<rect x="264.39" y="942.26" width="4.83" height="6.03" class="up-body"/>
<line x1="274.23" y1="931.00" x2="274.23" y2="943.45" class="down-wick"/>
<rect x="271.81" y="934.41" width="4.83" height="8.24" class="down-body"/>
<line x1="281.65" y1="961.13" x2="281.65" y2="976.26" class="down-wick"/>
<rect x="279.24" y="962.73" width="4.83" height="9.15" class="down-body"/>
<line x1="289.08" y1="955.73" x2="289.08" y2="972.11" class="up-wick"/>
<rect x="286.67" y="958.52" width="4.83" height="8.76" class="up-body"/>
<line x1="296.51" y1="965.11" x2="296.51" y2="977.00" class="up-wick"/>
<rect x="294.09" y="967.10" width="4.83" height="2.56" class="up-body"/>
<line x1="303.93" y1="949.93" x2="303.93" y2="977.91" class="up-wick"/>
<rect x="301.52" y="957.49" width="4.83" height="19.67" class="up-body"/>
<line x1="311.36" y1="961.25" x2="311.36" y2="981.77" class="down-wick"/>
<rect x="308.95" y="961.70" width="4.83" height="12.57" class="down-body"/>
<line x1="318.79" y1="976.94" x2="318.79" y2="992.80" class="down-wick"/>
<rect x="316.37" y="979.10" width="4.83" height="4.78" class="down-body"/>
<line x1="326.21" y1="982.85" x2="326.21" y2="997.01" class="down-wick"/>
<rect x="323.80" y="987.80" width="4.83" height="1.76" class="down-body"/>
<line x1="333.64" y1="984.16" x2="333.64" y2="996.22" class="up-wick"/>
<rect x="331.23" y="984.62" width="4.83" height="3.81" class="up-body"/>
<line x1="341.07" y1="973.64" x2="341.07" y2="992.69" class="down-wick"/>
<rect x="338.65" y="989.90" width="4.83" height="1.76" class="down-body"/>
<line x1="348.49" y1="1010.09" x2="348.49" y2="1024.76" class="down-wick"/>
<rect x="346.08" y="1017.20" width="4.83" height="1.71" class="down-body"/>
<line x1="355.92" y1="1004.46" x2="355.92" y2="1013.44" class="up-wick"/>
<rect x="353.51" y="1008.33" width="4.83" height="1.00" class="up-body"/>
<line x1="363.35" y1="973.70" x2="363.35" y2="1006.39" class="up-wick"/>
<rect x="360.93" y="976.37" width="4.83" height="26.38" class="up-body"/>
<line x1="370.77" y1="989.34" x2="370.77" y2="1004.29" class="up-wick"/>
<rect x="368.36" y="989.79" width="4.83" height="3.75" class="up-body"/>
<line x1="378.20" y1="964.54" x2="378.20" y2="991.67" class="down-wick"/>
<rect x="375.78" y="967.67" width="4.83" height="17.68" class="down-body"/>
<line x1="385.62" y1="968.81" x2="385.62" y2="980.24" class="down-wick"/>
<rect x="383.21" y="973.64" width="4.83" height="5.00" class="down-body"/>
<line x1="393.05" y1="987.97" x2="393.05" y2="1011.11" class="down-wick"/>
<rect x="390.64" y="988.48" width="4.83" height="10.23" class="down-body"/>
<line x1="400.48" y1="984.67" x2="400.48" y2="1002.07" class="up-wick"/>
<rect x="398.06" y="986.72" width="4.83" height="13.65" class="up-body"/>
<line x1="407.90" y1="973.64" x2="407.90" y2="994.00" class="up-wick"/>
<rect x="405.49" y="976.66" width="4.83" height="5.29" class="up-body"/>
<line x1="415.33" y1="969.21" x2="415.33" y2="986.09" class="down-wick"/>
<rect x="412.92" y="969.21" width="4.83" height="14.50" class="down-body"/>
<line x1="422.76" y1="982.68" x2="422.76" y2="998.26" class="up-wick"/>
<rect x="420.34" y="988.20" width="4.83" height="8.07" class="up-body"/>
<line x1="430.18" y1="979.61" x2="430.18" y2="996.73" class="up-wick"/>
<rect x="427.77" y="982.91" width="4.83" height="2.05" class="up-body"/>
<line x1="437.61" y1="949.82" x2="437.61" y2="977.68" class="up-wick"/>
<rect x="435.20" y="949.82" width="4.83" height="26.95" class="up-body"/>
<line x1="445.04" y1="920.99" x2="445.04" y2="948.23" class="up-wick"/>
<rect x="442.62" y="933.10" width="4.83" height="14.90" class="up-body"/>
<line x1="452.46" y1="958.18" x2="452.46" y2="980.29" class="up-wick"/>
<rect x="450.05" y="965.23" width="4.83" height="13.53" class="up-body"/>
<line x1="459.89" y1="963.24" x2="459.89" y2="983.25" class="down-wick"/>
<rect x="457.48" y="968.41" width="4.83" height="12.79" class="down-body"/>
<line x1="467.32" y1="973.47" x2="467.32" y2="995.53" class="up-wick"/>
<rect x="464.90" y="976.26" width="4.83" height="17.85" class="up-body"/>
<line x1="474.74" y1="926.90" x2="474.74" y2="954.20" class="up-wick"/>
<rect x="472.33" y="942.37" width="4.83" height="8.70" class="up-body"/>
<line x1="482.17" y1="960.45" x2="482.17" y2="974.50" class="up-wick"/>
<rect x="479.76" y="960.56" width="4.83" height="6.99" class="up-body"/>
<line x1="489.60" y1="958.01" x2="489.60" y2="968.52" class="up-wick"/>
<rect x="487.18" y="961.02" width="4.83" height="3.70" class="up-body"/>
<line x1="497.02" y1="969.78" x2="497.02" y2="979.61" class="down-wick"/>
<rect x="494.61" y="970.97" width="4.83" height="7.39" class="down-body"/>
<line x1="504.45" y1="973.70" x2="504.45" y2="989.05" class="down-wick"/>
<rect x="502.03" y="976.49" width="4.83" height="1.00" class="down-body"/>
<line x1="511.88" y1="985.47" x2="511.88" y2="995.19" class="up-wick"/>
<rect x="509.46" y="988.20" width="4.83" height="4.32" class="up-body"/>
<line x1="519.30" y1="961.53" x2="519.30" y2="975.69" class="down-wick"/>
<rect x="516.89" y="963.29" width="4.83" height="6.08" class="down-body"/>
<line x1="526.73" y1="939.41" x2="526.73" y2="951.58" class="up-wick"/>
<rect x="524.31" y="942.71" width="4.83" height="4.15" class="up-body"/>
<line x1="534.15" y1="938.33" x2="534.15" y2="950.61" class="down-wick"/>
<rect x="531.74" y="938.79" width="4.83" height="7.11" class="down-body"/>
<line x1="541.58" y1="945.61" x2="541.58" y2="951.18" class="up-wick"/>
<rect x="539.17" y="946.75" width="4.83" height="1.00" class="up-body"/>
<line x1="549.01" y1="941.46" x2="549.01" y2="951.41" class="down-wick"/>
<rect x="546.59" y="944.42" width="4.83" height="4.26" class="down-body"/>
<line x1="556.43" y1="924.06" x2="556.43" y2="940.61" class="up-wick"/>
<rect x="554.02" y="931.05" width="4.83" height="2.84" class="up-body"/>
<line x1="563.86" y1="923.38" x2="563.86" y2="933.78" class="down-wick"/>
<rect x="561.45" y="926.34" width="4.83" height="7.22" class="down-body"/>
<line x1="571.29" y1="925.20" x2="571.29" y2="932.48" class="up-wick"/>
<rect x="568.87" y="928.61" width="4.83" height="1.48" class="up-body"/>
<line x1="578.71" y1="918.94" x2="578.71" y2="940.21" class="up-wick"/>
<rect x="576.30" y="926.11" width="4.83" height="6.03" class="up-body"/>
<line x1="586.14" y1="921.10" x2="586.14" y2="933.90" class="down-wick"/>
<rect x="583.73" y="930.26" width="4.83" height="1.31" class="down-body"/>
<line x1="593.57" y1="938.79" x2="593.57" y2="948.23" class="down-wick"/>
<rect x="591.15" y="945.10" width="4.83" height="1.00" class="down-body"/>
<line x1="600.99" y1="938.22" x2="600.99" y2="945.16" class="down-wick"/>
<rect x="598.58" y="941.57" width="4.83" height="1.00" class="down-body"/>
<line x1="608.42" y1="921.96" x2="608.42" y2="933.95" class="down-wick"/>
<rect x="606.01" y="930.20" width="4.83" height="1.14" class="down-body"/>
<line x1="615.85" y1="939.01" x2="615.85" y2="946.63" class="down-wick"/>
<rect x="613.43" y="939.07" width="4.83" height="5.40" class="down-body"/>
<line x1="623.27" y1="944.42" x2="623.27" y2="951.52" class="down-wick"/>
<rect x="620.86" y="946.18" width="4.83" height="1.25" class="down-body"/>
<line x1="630.70" y1="943.51" x2="630.70" y2="950.84" class="down-wick"/>
<rect x="628.28" y="946.75" width="4.83" height="4.09" class="down-body"/>
<line x1="638.12" y1="934.24" x2="638.12" y2="945.89" class="down-wick"/>
<rect x="635.71" y="935.55" width="4.83" height="5.69" class="down-body"/>
<line x1="645.55" y1="938.90" x2="645.55" y2="956.36" class="down-wick"/>
<rect x="643.14" y="944.76" width="4.83" height="11.60" class="down-body"/>
<line x1="652.98" y1="964.09" x2="652.98" y2="977.22" class="up-wick"/>
<rect x="650.56" y="964.54" width="4.83" height="9.32" class="up-body"/>
<line x1="660.40" y1="961.64" x2="660.40" y2="969.72" class="up-wick"/>
<rect x="657.99" y="963.69" width="4.83" height="1.00" class="up-body"/>
<line x1="667.83" y1="936.57" x2="667.83" y2="971.99" class="up-wick"/>
<rect x="665.42" y="936.63" width="4.83" height="34.51" class="up-body"/>
<line x1="675.26" y1="922.53" x2="675.26" y2="937.25" class="down-wick"/>
<rect x="672.84" y="926.51" width="4.83" height="1.88" class="down-body"/>
<line x1="682.68" y1="902.40" x2="682.68" y2="943.00" class="up-wick"/>
<rect x="680.27" y="907.23" width="4.83" height="30.48" class="up-body"/>
<line x1="690.11" y1="859.24" x2="690.11" y2="880.96" class="down-wick"/>
<rect x="687.70" y="859.24" width="4.83" height="21.15" class="down-body"/>
<line x1="697.54" y1="875.16" x2="697.54" y2="888.41" class="up-wick"/>
<rect x="695.12" y="884.20" width="4.83" height="4.04" class="up-body"/>
<line x1="704.96" y1="881.08" x2="704.96" y2="897.39" class="down-wick"/>
<rect x="702.55" y="883.35" width="4.83" height="5.06" class="down-body"/>
<line x1="712.39" y1="886.36" x2="712.39" y2="898.64" class="down-wick"/>
<rect x="709.98" y="896.26" width="4.83" height="1.48" class="down-body"/>
<line x1="719.82" y1="880.34" x2="719.82" y2="900.81" class="up-wick"/>
<rect x="717.40" y="894.61" width="4.83" height="6.14" class="up-body"/>
<line x1="727.24" y1="891.20" x2="727.24" y2="909.90" class="down-wick"/>
<rect x="724.83" y="893.13" width="4.83" height="12.96" class="down-body"/>
<line x1="734.67" y1="898.87" x2="734.67" y2="922.75" class="up-wick"/>
<rect x="732.26" y="901.32" width="4.83" height="9.38" class="up-body"/>
<line x1="742.10" y1="900.29" x2="742.10" y2="916.56" class="up-wick"/>
<rect x="739.68" y="903.53" width="4.83" height="12.45" class="up-body"/>
<line x1="749.52" y1="919.51" x2="749.52" y2="927.30" class="down-wick"/>
<rect x="747.11" y="920.42" width="4.83" height="3.30" class="down-body"/>
<line x1="756.95" y1="924.29" x2="756.95" y2="946.07" class="down-wick"/>
<rect x="754.53" y="926.68" width="4.83" height="18.25" class="down-body"/>
<line x1="764.38" y1="953.46" x2="764.38" y2="965.57" class="down-wick"/>
<rect x="761.96" y="961.82" width="4.83" height="1.00" class="down-body"/>
<line x1="771.80" y1="945.89" x2="771.80" y2="965.00" class="up-wick"/>
<rect x="769.39" y="946.80" width="4.83" height="13.70" class="up-body"/>
<line x1="779.23" y1="939.13" x2="779.23" y2="950.27" class="down-wick"/>
<rect x="776.81" y="940.61" width="4.83" height="3.24" class="down-body"/>
<line x1="786.65" y1="922.64" x2="786.65" y2="935.03" class="down-wick"/>
<rect x="784.24" y="927.07" width="4.83" height="2.05" class="down-body"/>
<line x1="794.08" y1="926.73" x2="794.08" y2="932.87" class="down-wick"/>
<rect x="791.67" y="927.02" width="4.83" height="4.72" class="down-body"/>
<line x1="801.51" y1="919.68" x2="801.51" y2="936.12" class="down-wick"/>
<rect x="799.09" y="920.54" width="4.83" height="13.31" class="down-body"/>
<line x1="808.93" y1="918.20" x2="808.93" y2="935.89" class="up-wick"/>
<rect x="806.52" y="924.63" width="4.83" height="10.92" class="up-body"/>
<line x1="816.36" y1="920.02" x2="816.36" y2="931.51" class="up-wick"/>
<rect x="813.95" y="925.48" width="4.83" height="4.55" class="up-body"/>
<line x1="823.79" y1="927.30" x2="823.79" y2="934.86" class="up-wick"/>
<rect x="821.37" y="933.50" width="4.83" height="1.08" class="up-body"/>
<line x1="831.21" y1="927.47" x2="831.21" y2="946.01" class="down-wick"/>
<rect x="828.80" y="928.95" width="4.83" height="15.64" class="down-body"/>
<line x1="838.64" y1="934.24" x2="838.64" y2="944.36" class="down-wick"/>
<rect x="836.23" y="936.17" width="4.83" height="6.60" class="down-body"/>
<line x1="846.07" y1="938.62" x2="846.07" y2="945.27" class="up-wick"/>
<rect x="843.65" y="939.24" width="4.83" height="4.95" class="up-body"/>
<line x1="853.49" y1="930.09" x2="853.49" y2="941.86" class="down-wick"/>
<rect x="851.08" y="930.09" width="4.83" height="8.98" class="down-body"/>
<line x1="860.92" y1="939.13" x2="860.92" y2="949.36" class="up-wick"/>
<rect x="858.51" y="939.53" width="4.83" height="4.44" class="up-body"/>
<line x1="868.35" y1="929.86" x2="868.35" y2="936.46" class="down-wick"/>
<rect x="865.93" y="935.32" width="4.83" height="1.00" class="down-body"/>
<line x1="875.77" y1="918.66" x2="875.77" y2="930.88" class="down-wick"/>
<rect x="873.36" y="918.89" width="4.83" height="6.43" class="down-body"/>
<line x1="883.20" y1="917.01" x2="883.20" y2="925.82" class="up-wick"/>
<rect x="880.78" y="919.51" width="4.83" height="3.92" class="up-body"/>
<line x1="890.62" y1="905.30" x2="890.62" y2="920.42" class="down-wick"/>
<rect x="888.21" y="911.72" width="4.83" height="4.72" class="down-body"/>
<line x1="898.05" y1="906.15" x2="898.05" y2="920.37" class="down-wick"/>
<rect x="895.64" y="907.34" width="4.83" height="12.51" class="down-body"/>
<line x1="905.48" y1="914.45" x2="905.48" y2="928.72" class="down-wick"/>
<rect x="903.06" y="914.45" width="4.83" height="7.51" class="down-body"/>
<line x1="912.90" y1="918.72" x2="912.90" y2="930.32" class="up-wick"/>
<rect x="910.49" y="927.70" width="4.83" height="1.00" class="up-body"/>
<line x1="920.33" y1="898.19" x2="920.33" y2="917.41" class="up-wick"/>
<rect x="917.92" y="905.41" width="4.83" height="7.39" class="up-body"/>
<line x1="927.76" y1="900.46" x2="927.76" y2="909.68" class="down-wick"/>
<rect x="925.34" y="900.46" width="4.83" height="8.19" class="down-body"/>
<line x1="935.18" y1="908.77" x2="935.18" y2="920.02" class="up-wick"/>
<rect x="932.77" y="913.31" width="4.83" height="6.60" class="up-body"/>
<line x1="942.61" y1="900.12" x2="942.61" y2="912.40" class="up-wick"/>
<rect x="940.20" y="903.02" width="4.83" height="7.85" class="up-body"/>
<line x1="950.04" y1="902.97" x2="950.04" y2="912.80" class="up-wick"/>
<rect x="947.62" y="905.30" width="4.83" height="3.24" class="up-body"/>
<line x1="957.46" y1="905.52" x2="957.46" y2="914.68" class="down-wick"/>
<rect x="955.05" y="909.39" width="4.83" height="3.58" class="down-body"/>
<line x1="964.89" y1="902.34" x2="964.89" y2="921.73" class="up-wick"/>
<rect x="962.48" y="908.20" width="4.83" height="13.53" class="up-body"/>
<line x1="972.32" y1="892.22" x2="972.32" y2="905.47" class="up-wick"/>
<rect x="969.90" y="895.52" width="4.83" height="9.61" class="up-body"/>
<line x1="979.74" y1="889.04" x2="979.74" y2="903.71" class="up-wick"/>
<rect x="977.33" y="898.42" width="4.83" height="1.48" class="up-body"/>
<line x1="987.17" y1="876.47" x2="987.17" y2="890.86" class="down-wick"/>
<rect x="984.76" y="876.81" width="4.83" height="8.30" class="down-body"/>
<line x1="994.60" y1="873.12" x2="994.60" y2="882.67" class="up-wick"/>
<rect x="992.18" y="880.34" width="4.83" height="1.14" class="up-body"/>
<line x1="1002.02" y1="873.06" x2="1002.02" y2="882.89" class="down-wick"/>
<rect x="999.61" y="876.81" width="4.83" height="5.34" class="down-body"/>
<line x1="1009.45" y1="879.43" x2="1009.45" y2="892.96" class="down-wick"/>
<rect x="1007.03" y="880.51" width="4.83" height="12.11" class="down-body"/>
<line x1="1016.88" y1="894.04" x2="1016.88" y2="910.53" class="down-wick"/>
<rect x="1014.46" y="894.61" width="4.83" height="15.92" class="down-body"/>
<line x1="1024.30" y1="901.37" x2="1024.30" y2="910.98" class="down-wick"/>
<rect x="1021.89" y="902.91" width="4.83" height="6.99" class="down-body"/>
<line x1="1031.73" y1="929.01" x2="1031.73" y2="960.05" class="down-wick"/>
<rect x="1029.31" y="929.75" width="4.83" height="20.47" class="down-body"/>
<line x1="1039.15" y1="946.35" x2="1039.15" y2="958.75" class="down-wick"/>
<rect x="1036.74" y="953.00" width="4.83" height="3.13" class="down-body"/>
<line x1="1046.58" y1="930.09" x2="1046.58" y2="936.23" class="up-wick"/>
<rect x="1044.17" y="930.20" width="4.83" height="4.55" class="up-body"/>
<line x1="1054.01" y1="926.45" x2="1054.01" y2="935.09" class="up-wick"/>
<rect x="1051.59" y="927.53" width="4.83" height="4.44" class="up-body"/>
<line x1="1061.43" y1="926.79" x2="1061.43" y2="931.74" class="up-wick"/>
<rect x="1059.02" y="929.35" width="4.83" height="2.27" class="up-body"/>
<line x1="1068.86" y1="922.98" x2="1068.86" y2="931.34" class="up-wick"/>
<rect x="1066.45" y="925.31" width="4.83" height="5.74" class="up-body"/>
<line x1="1076.29" y1="923.26" x2="1076.29" y2="932.76" class="up-wick"/>
<rect x="1073.87" y="924.12" width="4.83" height="7.39" class="up-body"/>
<text x="70" y="1056" class="axis-label">2026-05-18 07:45:00+00:00 to 2026-05-18 12:15:00+00:00</text>
<text x="1080" y="1056" text-anchor="end" class="axis-label">4527.58 - 4561.35</text>
</svg>