<svg xmlns="http://www.w3.org/2000/svg" width="1120" height="804" viewBox="0 0 1120 804">
<style>
text{font-family:Arial,Helvetica,sans-serif}.title{font-size:21px;font-weight:700;fill:#1f2937}.subtitle{font-size:12px;fill:#4b5563}.panel-title{font-size:15px;font-weight:700;fill:#111827}.muted{font-size:13px;fill:#6b7280}.plot-bg{fill:#f8fafc;stroke:#cbd5e1;stroke-width:1}.up-body{fill:#15803d;stroke:#14532d;stroke-width:.8}.down-body{fill:#b91c1c;stroke:#7f1d1d;stroke-width:.8}.up-wick{stroke:#14532d;stroke-width:1}.down-wick{stroke:#7f1d1d;stroke-width:1}.sweep-line{stroke:#7c3aed;stroke-width:1.6;stroke-dasharray:6 4}.number-line{stroke:#0f766e;stroke-width:1.4;stroke-dasharray:3 4}.entry-line{stroke:#2563eb;stroke-width:1.4}.sl-line{stroke:#dc2626;stroke-width:1.4}.tp-line{stroke:#16a34a;stroke-width:1.4}.level-label,.axis-label{font-size:11px;fill:#374151}
</style>
<text x="28" y="28" class="title">Adelin v2 visual review sample sample_019</text>
<text x="28" y="48" class="subtitle">Candidate windows are for visual labeling only and are not trade signals.</text>
<text x="560" y="48" class="subtitle" text-anchor="middle">M15_SWING_LOW_SWEEP_VISUAL_CANDIDATE</text>
<text x="70" y="82" class="panel-title">H1 liquidity context</text>
<rect x="70" y="96" width="1010" height="192" class="plot-bg"/>
<text x="82" y="138" class="muted">No candles available for this timeframe/window.</text>
<text x="70" y="332" class="panel-title">M15 liquidity / reaction context</text>
<rect x="70" y="346" width="1010" height="192" class="plot-bg"/>
<line x1="77.32" y1="449.96" x2="77.32" y2="476.23" class="up-wick"/>
<rect x="73.32" y="459.72" width="8.00" height="2.05" class="up-body"/>
<line x1="91.96" y1="443.45" x2="91.96" y2="466.48" class="up-wick"/>
<rect x="87.96" y="448.50" width="8.00" height="12.15" class="up-body"/>
<line x1="106.59" y1="443.20" x2="106.59" y2="456.98" class="down-wick"/>
<rect x="102.59" y="448.85" width="8.00" height="5.39" class="down-body"/>
<line x1="121.23" y1="448.93" x2="121.23" y2="474.01" class="up-wick"/>
<rect x="117.23" y="451.33" width="8.00" height="2.91" class="up-body"/>
<line x1="135.87" y1="444.40" x2="135.87" y2="455.01" class="down-wick"/>
<rect x="131.87" y="451.33" width="8.00" height="1.20" class="down-body"/>
<line x1="150.51" y1="442.60" x2="150.51" y2="454.41" class="up-wick"/>
<rect x="146.51" y="450.90" width="8.00" height="2.14" class="up-body"/>
<line x1="165.14" y1="435.58" x2="165.14" y2="451.59" class="up-wick"/>
<rect x="161.14" y="440.46" width="8.00" height="10.44" class="up-body"/>
<line x1="179.78" y1="436.61" x2="179.78" y2="448.76" class="down-wick"/>
<rect x="175.78" y="439.77" width="8.00" height="8.99" class="down-body"/>
<line x1="194.42" y1="433.61" x2="194.42" y2="459.89" class="down-wick"/>
<rect x="190.42" y="448.76" width="8.00" height="8.82" class="down-body"/>
<line x1="209.06" y1="426.77" x2="209.06" y2="462.97" class="up-wick"/>
<rect x="205.06" y="437.64" width="8.00" height="21.31" class="up-body"/>
<line x1="223.70" y1="429.59" x2="223.70" y2="447.48" class="up-wick"/>
<rect x="219.70" y="430.45" width="8.00" height="7.19" class="up-body"/>
<line x1="238.33" y1="428.56" x2="238.33" y2="442.60" class="down-wick"/>
<rect x="234.33" y="430.45" width="8.00" height="8.39" class="down-body"/>
<line x1="252.97" y1="427.88" x2="252.97" y2="439.86" class="up-wick"/>
<rect x="248.97" y="429.93" width="8.00" height="8.90" class="up-body"/>
<line x1="267.61" y1="421.12" x2="267.61" y2="431.47" class="up-wick"/>
<rect x="263.61" y="425.23" width="8.00" height="5.13" class="up-body"/>
<line x1="282.25" y1="408.54" x2="282.25" y2="428.65" class="up-wick"/>
<rect x="278.25" y="415.30" width="8.00" height="9.59" class="up-body"/>
<line x1="296.88" y1="409.22" x2="296.88" y2="422.83" class="up-wick"/>
<rect x="292.88" y="410.51" width="8.00" height="4.79" class="up-body"/>
<line x1="311.52" y1="405.54" x2="311.52" y2="416.67" class="up-wick"/>
<rect x="307.52" y="406.57" width="8.00" height="3.94" class="up-body"/>
<line x1="326.16" y1="395.87" x2="326.16" y2="419.15" class="up-wick"/>
<rect x="322.16" y="399.29" width="8.00" height="6.25" class="up-body"/>
<line x1="340.80" y1="384.57" x2="340.80" y2="400.75" class="up-wick"/>
<rect x="336.80" y="387.23" width="8.00" height="12.75" class="up-body"/>
<line x1="355.43" y1="381.24" x2="355.43" y2="400.06" class="down-wick"/>
<rect x="351.43" y="387.23" width="8.00" height="5.39" class="down-body"/>
<line x1="370.07" y1="377.21" x2="370.07" y2="395.87" class="up-wick"/>
<rect x="366.07" y="379.70" width="8.00" height="12.84" class="up-body"/>
<line x1="384.71" y1="360.01" x2="384.71" y2="408.19" class="down-wick"/>
<rect x="380.71" y="379.10" width="8.00" height="7.53" class="down-body"/>
<line x1="399.35" y1="359.24" x2="399.35" y2="389.02" class="up-wick"/>
<rect x="395.35" y="380.72" width="8.00" height="4.19" class="up-body"/>
<line x1="413.99" y1="359.93" x2="413.99" y2="395.53" class="down-wick"/>
<rect x="409.99" y="383.46" width="8.00" height="1.80" class="down-body"/>
<line x1="428.62" y1="384.40" x2="428.62" y2="425.05" class="down-wick"/>
<rect x="424.62" y="384.83" width="8.00" height="23.45" class="down-body"/>
<line x1="443.26" y1="408.02" x2="443.26" y2="445.51" class="down-wick"/>
<rect x="439.26" y="408.02" width="8.00" height="24.39" class="down-body"/>
<line x1="457.90" y1="405.63" x2="457.90" y2="448.68" class="up-wick"/>
<rect x="453.90" y="419.32" width="8.00" height="13.01" class="up-body"/>
<line x1="472.54" y1="409.65" x2="472.54" y2="429.33" class="down-wick"/>
<rect x="468.54" y="417.87" width="8.00" height="7.19" class="down-body"/>
<line x1="487.17" y1="418.89" x2="487.17" y2="449.96" class="down-wick"/>
<rect x="483.17" y="424.97" width="8.00" height="16.86" class="down-body"/>
<line x1="501.81" y1="427.62" x2="501.81" y2="449.53" class="up-wick"/>
<rect x="497.81" y="437.04" width="8.00" height="5.05" class="up-body"/>
<line x1="516.45" y1="423.86" x2="516.45" y2="444.05" class="up-wick"/>
<rect x="512.45" y="428.14" width="8.00" height="8.90" class="up-body"/>
<line x1="531.09" y1="414.19" x2="531.09" y2="433.18" class="down-wick"/>
<rect x="527.09" y="430.02" width="8.00" height="1.03" class="down-body"/>
<line x1="545.72" y1="429.93" x2="545.72" y2="440.80" class="down-wick"/>
<rect x="541.72" y="430.96" width="8.00" height="1.20" class="down-body"/>
<line x1="560.36" y1="425.91" x2="560.36" y2="445.85" class="down-wick"/>
<rect x="556.36" y="432.07" width="8.00" height="1.28" class="down-body"/>
<line x1="575.00" y1="420.52" x2="575.00" y2="433.27" class="up-wick"/>
<rect x="571.00" y="421.20" width="8.00" height="12.07" class="up-body"/>
<line x1="589.64" y1="403.40" x2="589.64" y2="421.29" class="up-wick"/>
<rect x="585.64" y="409.48" width="8.00" height="11.81" class="up-body"/>
<line x1="604.28" y1="403.32" x2="604.28" y2="416.15" class="down-wick"/>
<rect x="600.28" y="409.56" width="8.00" height="1.00" class="down-body"/>
<line x1="618.91" y1="400.58" x2="618.91" y2="415.81" class="up-wick"/>
<rect x="614.91" y="406.23" width="8.00" height="3.42" class="up-body"/>
<line x1="633.55" y1="400.15" x2="633.55" y2="408.62" class="up-wick"/>
<rect x="629.55" y="402.80" width="8.00" height="3.25" class="up-body"/>
<line x1="648.19" y1="382.61" x2="648.19" y2="403.32" class="up-wick"/>
<rect x="644.19" y="397.15" width="8.00" height="5.91" class="up-body"/>
<line x1="662.83" y1="391.08" x2="662.83" y2="419.41" class="down-wick"/>
<rect x="658.83" y="397.07" width="8.00" height="22.17" class="down-body"/>
<line x1="677.46" y1="417.61" x2="677.46" y2="439.95" class="down-wick"/>
<rect x="673.46" y="419.06" width="8.00" height="16.09" class="down-body"/>
<line x1="692.10" y1="427.79" x2="692.10" y2="444.82" class="down-wick"/>
<rect x="688.10" y="434.90" width="8.00" height="3.17" class="down-body"/>
<line x1="706.74" y1="430.87" x2="706.74" y2="446.28" class="down-wick"/>
<rect x="702.74" y="437.89" width="8.00" height="1.37" class="down-body"/>
<line x1="721.38" y1="430.10" x2="721.38" y2="450.64" class="down-wick"/>
<rect x="717.38" y="439.35" width="8.00" height="6.50" class="down-body"/>
<line x1="736.01" y1="438.75" x2="736.01" y2="468.02" class="down-wick"/>
<rect x="732.01" y="443.80" width="8.00" height="10.53" class="down-body"/>
<line x1="750.65" y1="419.66" x2="750.65" y2="456.63" class="up-wick"/>
<rect x="746.65" y="425.65" width="8.00" height="28.76" class="up-body"/>
<line x1="765.29" y1="411.53" x2="765.29" y2="437.21" class="up-wick"/>
<rect x="761.29" y="419.15" width="8.00" height="6.50" class="up-body"/>
<line x1="779.93" y1="414.78" x2="779.93" y2="430.96" class="down-wick"/>
<rect x="775.93" y="419.32" width="8.00" height="7.19" class="down-body"/>
<line x1="794.57" y1="409.65" x2="794.57" y2="433.87" class="down-wick"/>
<rect x="790.57" y="426.85" width="8.00" height="6.59" class="down-body"/>
<line x1="809.20" y1="434.55" x2="809.20" y2="458.69" class="down-wick"/>
<rect x="805.20" y="434.90" width="8.00" height="17.89" class="down-body"/>
<line x1="823.84" y1="442.68" x2="823.84" y2="457.40" class="up-wick"/>
<rect x="819.84" y="450.13" width="8.00" height="2.23" class="up-body"/>
<line x1="838.48" y1="449.36" x2="838.48" y2="460.23" class="down-wick"/>
<rect x="834.48" y="449.53" width="8.00" height="4.88" class="down-body"/>
<line x1="853.12" y1="440.55" x2="853.12" y2="454.84" class="up-wick"/>
<rect x="849.12" y="452.61" width="8.00" height="1.80" class="up-body"/>
<line x1="867.75" y1="440.12" x2="867.75" y2="475.03" class="down-wick"/>
<rect x="863.75" y="452.36" width="8.00" height="17.29" class="down-body"/>
<line x1="882.39" y1="457.32" x2="882.39" y2="475.63" class="up-wick"/>
<rect x="878.39" y="462.45" width="8.00" height="8.22" class="up-body"/>
<line x1="897.03" y1="449.62" x2="897.03" y2="466.73" class="up-wick"/>
<rect x="893.03" y="460.91" width="8.00" height="1.63" class="up-body"/>
<line x1="911.67" y1="458.09" x2="911.67" y2="472.38" class="up-wick"/>
<rect x="907.67" y="460.23" width="8.00" height="1.00" class="up-body"/>
<line x1="926.30" y1="458.26" x2="926.30" y2="479.83" class="down-wick"/>
<rect x="922.30" y="460.06" width="8.00" height="18.83" class="down-body"/>
<line x1="940.94" y1="478.54" x2="940.94" y2="498.74" class="down-wick"/>
<rect x="936.94" y="478.54" width="8.00" height="12.58" class="down-body"/>
<line x1="955.58" y1="462.63" x2="955.58" y2="491.30" class="up-wick"/>
<rect x="951.58" y="465.28" width="8.00" height="25.85" class="up-body"/>
<line x1="970.22" y1="450.22" x2="970.22" y2="468.70" class="up-wick"/>
<rect x="966.22" y="453.64" width="8.00" height="10.87" class="up-body"/>
<line x1="984.86" y1="451.50" x2="984.86" y2="493.52" class="down-wick"/>
<rect x="980.86" y="452.95" width="8.00" height="32.35" class="down-body"/>
<line x1="999.49" y1="458.09" x2="999.49" y2="485.05" class="up-wick"/>
<rect x="995.49" y="462.37" width="8.00" height="22.68" class="up-body"/>
<line x1="1014.13" y1="456.29" x2="1014.13" y2="474.09" class="down-wick"/>
<rect x="1010.13" y="462.03" width="8.00" height="4.79" class="down-body"/>
<line x1="1028.77" y1="453.30" x2="1028.77" y2="479.06" class="down-wick"/>
<rect x="1024.77" y="466.65" width="8.00" height="1.00" class="down-body"/>
<line x1="1043.41" y1="459.63" x2="1043.41" y2="492.32" class="down-wick"/>
<rect x="1039.41" y="466.31" width="8.00" height="20.71" class="down-body"/>
<line x1="1058.04" y1="452.36" x2="1058.04" y2="510.64" class="down-wick"/>
<rect x="1054.04" y="468.79" width="8.00" height="18.74" class="down-body"/>
<line x1="1072.68" y1="475.55" x2="1072.68" y2="524.76" class="down-wick"/>
<rect x="1068.68" y="487.62" width="8.00" height="25.59" class="down-body"/>
<line x1="70" y1="449.96" x2="1080" y2="449.96" class="sweep-line"/>
<text x="1076" y="445.96" text-anchor="end" class="level-label">sweep 2386.65</text>
<text x="70" y="556" class="axis-label">2024-05-15 21:45:00+00:00 to 2024-05-16 15:45:00+00:00</text>
<text x="1080" y="556" text-anchor="end" class="axis-label">2376.36 - 2398.80</text>
<text x="70" y="582" class="panel-title">M1 execution window</text>
<rect x="70" y="596" width="1010" height="192" class="plot-bg"/>
<text x="82" y="638" class="muted">No candles available for this timeframe/window.</text>
</svg>