<svg xmlns="http://www.w3.org/2000/svg" width="1120" height="804" viewBox="0 0 1120 804">
<style>
text{font-family:Arial,Helvetica,sans-serif}.title{font-size:21px;font-weight:700;fill:#1f2937}.subtitle{font-size:12px;fill:#4b5563}.panel-title{font-size:15px;font-weight:700;fill:#111827}.muted{font-size:13px;fill:#6b7280}.plot-bg{fill:#f8fafc;stroke:#cbd5e1;stroke-width:1}.up-body{fill:#15803d;stroke:#14532d;stroke-width:.8}.down-body{fill:#b91c1c;stroke:#7f1d1d;stroke-width:.8}.up-wick{stroke:#14532d;stroke-width:1}.down-wick{stroke:#7f1d1d;stroke-width:1}.sweep-line{stroke:#7c3aed;stroke-width:1.6;stroke-dasharray:6 4}.number-line{stroke:#0f766e;stroke-width:1.4;stroke-dasharray:3 4}.entry-line{stroke:#2563eb;stroke-width:1.4}.sl-line{stroke:#dc2626;stroke-width:1.4}.tp-line{stroke:#16a34a;stroke-width:1.4}.level-label,.axis-label{font-size:11px;fill:#374151}
</style>
<text x="28" y="28" class="title">Adelin v2 visual review sample sample_017</text>
<text x="28" y="48" class="subtitle">Candidate windows are for visual labeling only and are not trade signals.</text>
<text x="560" y="48" class="subtitle" text-anchor="middle">NUMBER_THEORY_LEVEL_NEAR</text>
<text x="70" y="82" class="panel-title">H1 liquidity context</text>
<rect x="70" y="96" width="1010" height="192" class="plot-bg"/>
<text x="82" y="138" class="muted">No candles available for this timeframe/window.</text>
<text x="70" y="332" class="panel-title">M15 liquidity / reaction context</text>
<rect x="70" y="346" width="1010" height="192" class="plot-bg"/>
<line x1="76.92" y1="493.99" x2="76.92" y2="501.90" class="down-wick"/>
<rect x="72.92" y="494.58" width="8.00" height="6.35" class="down-body"/>
<line x1="90.75" y1="497.26" x2="90.75" y2="502.19" class="down-wick"/>
<rect x="86.75" y="500.92" width="8.00" height="1.00" class="down-body"/>
<line x1="104.59" y1="500.05" x2="104.59" y2="503.42" class="down-wick"/>
<rect x="100.59" y="501.12" width="8.00" height="1.37" class="down-body"/>
<line x1="118.42" y1="496.82" x2="118.42" y2="502.49" class="up-wick"/>
<rect x="114.42" y="497.31" width="8.00" height="5.18" class="up-body"/>
<line x1="132.26" y1="497.21" x2="132.26" y2="500.14" class="down-wick"/>
<rect x="128.26" y="497.31" width="8.00" height="2.54" class="down-body"/>
<line x1="146.10" y1="497.36" x2="146.10" y2="500.00" class="up-wick"/>
<rect x="142.10" y="497.60" width="8.00" height="2.25" class="up-body"/>
<line x1="159.93" y1="498.09" x2="159.93" y2="504.98" class="down-wick"/>
<rect x="155.93" y="498.24" width="8.00" height="4.64" class="down-body"/>
<line x1="173.77" y1="502.49" x2="173.77" y2="509.28" class="down-wick"/>
<rect x="169.77" y="502.88" width="8.00" height="2.74" class="down-body"/>
<line x1="187.60" y1="501.80" x2="187.60" y2="506.98" class="down-wick"/>
<rect x="183.60" y="505.61" width="8.00" height="1.00" class="down-body"/>
<line x1="201.44" y1="501.95" x2="201.44" y2="506.20" class="up-wick"/>
<rect x="197.44" y="505.71" width="8.00" height="1.00" class="up-body"/>
<line x1="215.27" y1="500.53" x2="215.27" y2="510.11" class="down-wick"/>
<rect x="211.27" y="505.61" width="8.00" height="1.22" class="down-body"/>
<line x1="229.11" y1="502.93" x2="229.11" y2="507.27" class="up-wick"/>
<rect x="225.11" y="505.27" width="8.00" height="1.47" class="up-body"/>
<line x1="242.95" y1="501.46" x2="242.95" y2="509.96" class="down-wick"/>
<rect x="238.95" y="505.27" width="8.00" height="1.07" class="down-body"/>
<line x1="256.78" y1="499.31" x2="256.78" y2="508.30" class="up-wick"/>
<rect x="252.78" y="500.97" width="8.00" height="5.37" class="up-body"/>
<line x1="270.62" y1="489.98" x2="270.62" y2="502.98" class="up-wick"/>
<rect x="266.62" y="497.85" width="8.00" height="3.13" class="up-body"/>
<line x1="284.45" y1="492.08" x2="284.45" y2="501.27" class="up-wick"/>
<rect x="280.45" y="497.31" width="8.00" height="1.00" class="up-body"/>
<line x1="298.29" y1="494.09" x2="298.29" y2="501.17" class="down-wick"/>
<rect x="294.29" y="497.31" width="8.00" height="3.76" class="down-body"/>
<line x1="312.12" y1="497.51" x2="312.12" y2="501.76" class="up-wick"/>
<rect x="308.12" y="499.31" width="8.00" height="1.71" class="up-body"/>
<line x1="325.96" y1="490.96" x2="325.96" y2="499.66" class="up-wick"/>
<rect x="321.96" y="497.85" width="8.00" height="1.37" class="up-body"/>
<line x1="339.79" y1="489.25" x2="339.79" y2="499.22" class="up-wick"/>
<rect x="335.79" y="491.74" width="8.00" height="5.76" class="up-body"/>
<line x1="353.63" y1="487.35" x2="353.63" y2="495.11" class="up-wick"/>
<rect x="349.63" y="490.13" width="8.00" height="1.42" class="up-body"/>
<line x1="367.47" y1="489.15" x2="367.47" y2="495.99" class="down-wick"/>
<rect x="363.47" y="490.13" width="8.00" height="2.83" class="down-body"/>
<line x1="381.30" y1="482.37" x2="381.30" y2="493.45" class="up-wick"/>
<rect x="377.30" y="482.37" width="8.00" height="11.09" class="up-body"/>
<line x1="395.14" y1="480.22" x2="395.14" y2="484.51" class="down-wick"/>
<rect x="391.14" y="482.22" width="8.00" height="1.17" class="down-body"/>
<line x1="408.97" y1="481.14" x2="408.97" y2="487.05" class="down-wick"/>
<rect x="404.97" y="483.39" width="8.00" height="1.00" class="down-body"/>
<line x1="422.81" y1="481.10" x2="422.81" y2="487.49" class="down-wick"/>
<rect x="418.81" y="484.08" width="8.00" height="3.22" class="down-body"/>
<line x1="436.64" y1="485.64" x2="436.64" y2="494.04" class="down-wick"/>
<rect x="432.64" y="487.59" width="8.00" height="6.20" class="down-body"/>
<line x1="450.48" y1="492.77" x2="450.48" y2="503.76" class="down-wick"/>
<rect x="446.48" y="493.45" width="8.00" height="6.06" class="down-body"/>
<line x1="464.32" y1="499.22" x2="464.32" y2="505.76" class="down-wick"/>
<rect x="460.32" y="499.51" width="8.00" height="2.05" class="down-body"/>
<line x1="478.15" y1="498.87" x2="478.15" y2="505.27" class="up-wick"/>
<rect x="474.15" y="500.63" width="8.00" height="1.00" class="up-body"/>
<line x1="491.99" y1="493.50" x2="491.99" y2="502.34" class="up-wick"/>
<rect x="487.99" y="498.48" width="8.00" height="2.15" class="up-body"/>
<line x1="505.82" y1="489.64" x2="505.82" y2="499.56" class="up-wick"/>
<rect x="501.82" y="492.18" width="8.00" height="6.30" class="up-body"/>
<line x1="519.66" y1="486.47" x2="519.66" y2="495.70" class="down-wick"/>
<rect x="515.66" y="492.52" width="8.00" height="1.27" class="down-body"/>
<line x1="533.49" y1="489.15" x2="533.49" y2="497.07" class="up-wick"/>
<rect x="529.49" y="492.87" width="8.00" height="1.71" class="up-body"/>
<line x1="547.33" y1="487.25" x2="547.33" y2="500.39" class="down-wick"/>
<rect x="543.33" y="492.72" width="8.00" height="1.00" class="down-body"/>
<line x1="561.16" y1="490.52" x2="561.16" y2="497.07" class="up-wick"/>
<rect x="557.16" y="491.21" width="8.00" height="2.54" class="up-body"/>
<line x1="575.00" y1="472.11" x2="575.00" y2="492.43" class="up-wick"/>
<rect x="571.00" y="475.09" width="8.00" height="15.92" class="up-body"/>
<line x1="588.84" y1="468.84" x2="588.84" y2="476.16" class="up-wick"/>
<rect x="584.84" y="469.23" width="8.00" height="4.49" class="up-body"/>
<line x1="602.67" y1="460.97" x2="602.67" y2="477.38" class="down-wick"/>
<rect x="598.67" y="469.23" width="8.00" height="1.86" class="down-body"/>
<line x1="616.51" y1="466.30" x2="616.51" y2="474.41" class="down-wick"/>
<rect x="612.51" y="471.08" width="8.00" height="1.76" class="down-body"/>
<line x1="630.34" y1="462.73" x2="630.34" y2="473.09" class="up-wick"/>
<rect x="626.34" y="464.54" width="8.00" height="8.55" class="up-body"/>
<line x1="644.18" y1="441.49" x2="644.18" y2="467.57" class="up-wick"/>
<rect x="640.18" y="442.02" width="8.00" height="22.71" class="up-body"/>
<line x1="658.01" y1="424.20" x2="658.01" y2="443.34" class="up-wick"/>
<rect x="654.01" y="425.08" width="8.00" height="16.95" class="up-body"/>
<line x1="671.85" y1="415.21" x2="671.85" y2="429.03" class="up-wick"/>
<rect x="667.85" y="420.97" width="8.00" height="3.71" class="up-body"/>
<line x1="685.68" y1="415.41" x2="685.68" y2="422.78" class="down-wick"/>
<rect x="681.68" y="420.19" width="8.00" height="1.00" class="down-body"/>
<line x1="699.52" y1="417.51" x2="699.52" y2="429.08" class="down-wick"/>
<rect x="695.52" y="421.12" width="8.00" height="4.64" class="down-body"/>
<line x1="713.36" y1="423.95" x2="713.36" y2="443.54" class="down-wick"/>
<rect x="709.36" y="426.05" width="8.00" height="15.97" class="down-body"/>
<line x1="727.19" y1="437.04" x2="727.19" y2="444.86" class="up-wick"/>
<rect x="723.19" y="439.78" width="8.00" height="2.83" class="up-body"/>
<line x1="741.03" y1="437.92" x2="741.03" y2="442.46" class="up-wick"/>
<rect x="737.03" y="438.31" width="8.00" height="1.47" class="up-body"/>
<line x1="754.86" y1="434.55" x2="754.86" y2="441.00" class="up-wick"/>
<rect x="750.86" y="437.09" width="8.00" height="1.22" class="up-body"/>
<line x1="768.70" y1="432.11" x2="768.70" y2="448.96" class="down-wick"/>
<rect x="764.70" y="437.09" width="8.00" height="10.55" class="down-body"/>
<line x1="782.53" y1="444.91" x2="782.53" y2="459.51" class="down-wick"/>
<rect x="778.53" y="447.49" width="8.00" height="9.04" class="down-body"/>
<line x1="796.37" y1="454.09" x2="796.37" y2="465.66" class="down-wick"/>
<rect x="792.37" y="456.24" width="8.00" height="5.37" class="down-body"/>
<line x1="810.21" y1="451.99" x2="810.21" y2="464.88" class="down-wick"/>
<rect x="806.21" y="461.27" width="8.00" height="2.83" class="down-body"/>
<line x1="824.04" y1="462.73" x2="824.04" y2="472.26" class="down-wick"/>
<rect x="820.04" y="464.44" width="8.00" height="1.00" class="down-body"/>
<line x1="837.88" y1="464.88" x2="837.88" y2="474.89" class="down-wick"/>
<rect x="833.88" y="464.93" width="8.00" height="6.69" class="down-body"/>
<line x1="851.71" y1="461.95" x2="851.71" y2="481.54" class="down-wick"/>
<rect x="847.71" y="471.91" width="8.00" height="1.00" class="down-body"/>
<line x1="865.55" y1="468.50" x2="865.55" y2="493.45" class="down-wick"/>
<rect x="861.55" y="472.16" width="8.00" height="7.86" class="down-body"/>
<line x1="879.38" y1="394.99" x2="879.38" y2="453.26" class="up-wick"/>
<rect x="875.38" y="407.69" width="8.00" height="24.03" class="up-body"/>
<line x1="893.22" y1="407.89" x2="893.22" y2="427.03" class="down-wick"/>
<rect x="889.22" y="408.47" width="8.00" height="14.80" class="down-body"/>
<line x1="907.05" y1="409.35" x2="907.05" y2="435.72" class="down-wick"/>
<rect x="903.05" y="423.56" width="8.00" height="1.00" class="down-body"/>
<line x1="920.89" y1="424.05" x2="920.89" y2="463.22" class="down-wick"/>
<rect x="916.89" y="424.34" width="8.00" height="26.81" class="down-body"/>
<line x1="934.73" y1="434.36" x2="934.73" y2="479.00" class="down-wick"/>
<rect x="930.73" y="450.91" width="8.00" height="25.35" class="down-body"/>
<line x1="948.56" y1="463.37" x2="948.56" y2="524.76" class="down-wick"/>
<rect x="944.56" y="476.26" width="8.00" height="18.07" class="down-body"/>
<line x1="962.40" y1="465.32" x2="962.40" y2="514.75" class="up-wick"/>
<rect x="958.40" y="475.38" width="8.00" height="20.27" class="up-body"/>
<line x1="976.23" y1="447.59" x2="976.23" y2="484.47" class="up-wick"/>
<rect x="972.23" y="452.43" width="8.00" height="23.00" class="up-body"/>
<line x1="990.07" y1="430.89" x2="990.07" y2="454.19" class="up-wick"/>
<rect x="986.07" y="435.09" width="8.00" height="19.10" class="up-body"/>
<line x1="1003.90" y1="417.80" x2="1003.90" y2="451.21" class="up-wick"/>
<rect x="999.90" y="418.14" width="8.00" height="16.65" class="up-body"/>
<line x1="1017.74" y1="377.85" x2="1017.74" y2="421.12" class="up-wick"/>
<rect x="1013.74" y="383.95" width="8.00" height="33.85" class="up-body"/>
<line x1="1031.58" y1="359.24" x2="1031.58" y2="385.91" class="up-wick"/>
<rect x="1027.58" y="367.54" width="8.00" height="16.21" class="up-body"/>
<line x1="1045.41" y1="361.19" x2="1045.41" y2="391.77" class="down-wick"/>
<rect x="1041.41" y="367.06" width="8.00" height="12.31" class="down-body"/>
<line x1="1059.25" y1="375.99" x2="1059.25" y2="399.44" class="down-wick"/>
<rect x="1055.25" y="379.31" width="8.00" height="19.63" class="down-body"/>
<line x1="1073.08" y1="375.50" x2="1073.08" y2="401.49" class="up-wick"/>
<rect x="1069.08" y="379.90" width="8.00" height="19.19" class="up-body"/>
<line x1="70" y1="436.07" x2="1080" y2="436.07" class="number-line"/>
<text x="1076" y="432.07" text-anchor="end" class="level-label">round 2370.00</text>
<text x="70" y="556" class="axis-label">2024-05-15 01:00:00+00:00 to 2024-05-15 19:00:00+00:00</text>
<text x="1080" y="556" text-anchor="end" class="axis-label">2349.13 - 2388.44</text>
<text x="70" y="582" class="panel-title">M1 execution window</text>
<rect x="70" y="596" width="1010" height="192" class="plot-bg"/>
<text x="82" y="638" class="muted">No candles available for this timeframe/window.</text>
</svg>