<svg xmlns="http://www.w3.org/2000/svg" width="1120" height="804" viewBox="0 0 1120 804">
<style>
text{font-family:Arial,Helvetica,sans-serif}.title{font-size:21px;font-weight:700;fill:#1f2937}.subtitle{font-size:12px;fill:#4b5563}.panel-title{font-size:15px;font-weight:700;fill:#111827}.muted{font-size:13px;fill:#6b7280}.plot-bg{fill:#f8fafc;stroke:#cbd5e1;stroke-width:1}.up-body{fill:#15803d;stroke:#14532d;stroke-width:.8}.down-body{fill:#b91c1c;stroke:#7f1d1d;stroke-width:.8}.up-wick{stroke:#14532d;stroke-width:1}.down-wick{stroke:#7f1d1d;stroke-width:1}.sweep-line{stroke:#7c3aed;stroke-width:1.6;stroke-dasharray:6 4}.number-line{stroke:#0f766e;stroke-width:1.4;stroke-dasharray:3 4}.entry-line{stroke:#2563eb;stroke-width:1.4}.sl-line{stroke:#dc2626;stroke-width:1.4}.tp-line{stroke:#16a34a;stroke-width:1.4}.level-label,.axis-label{font-size:11px;fill:#374151}
</style>
<text x="28" y="28" class="title">Adelin v2 visual review sample sample_039</text>
<text x="28" y="48" class="subtitle">Candidate windows are for visual labeling only and are not trade signals.</text>
<text x="560" y="48" class="subtitle" text-anchor="middle">LONDON_OPEN_CONTEXT</text>
<text x="70" y="82" class="panel-title">H1 liquidity context</text>
<rect x="70" y="96" width="1010" height="192" class="plot-bg"/>
<text x="82" y="138" class="muted">No candles available for this timeframe/window.</text>
<text x="70" y="332" class="panel-title">M15 liquidity / reaction context</text>
<rect x="70" y="346" width="1010" height="192" class="plot-bg"/>
<line x1="77.32" y1="384.72" x2="77.32" y2="411.17" class="down-wick"/>
<rect x="73.32" y="387.17" width="8.00" height="17.61" class="down-body"/>
<line x1="91.96" y1="399.43" x2="91.96" y2="431.30" class="down-wick"/>
<rect x="87.96" y="404.11" width="8.00" height="22.51" class="down-body"/>
<line x1="106.59" y1="402.85" x2="106.59" y2="426.92" class="up-wick"/>
<rect x="102.59" y="405.90" width="8.00" height="20.21" class="up-body"/>
<line x1="121.23" y1="402.40" x2="121.23" y2="416.96" class="down-wick"/>
<rect x="117.23" y="406.12" width="8.00" height="4.83" class="down-body"/>
<line x1="135.87" y1="375.66" x2="135.87" y2="411.32" class="up-wick"/>
<rect x="131.87" y="381.97" width="8.00" height="29.12" class="up-body"/>
<line x1="150.51" y1="367.93" x2="150.51" y2="381.68" class="up-wick"/>
<rect x="146.51" y="376.11" width="8.00" height="5.20" class="up-body"/>
<line x1="165.14" y1="365.18" x2="165.14" y2="378.63" class="up-wick"/>
<rect x="161.14" y="366.15" width="8.00" height="10.03" class="up-body"/>
<line x1="179.78" y1="359.24" x2="179.78" y2="373.13" class="up-wick"/>
<rect x="175.78" y="365.78" width="8.00" height="1.00" class="up-body"/>
<line x1="194.42" y1="361.32" x2="194.42" y2="455.52" class="down-wick"/>
<rect x="190.42" y="366.08" width="8.00" height="71.47" class="down-body"/>
<line x1="209.06" y1="386.95" x2="209.06" y2="437.84" class="up-wick"/>
<rect x="205.06" y="391.04" width="8.00" height="46.80" class="up-body"/>
<line x1="223.70" y1="379.30" x2="223.70" y2="431.53" class="down-wick"/>
<rect x="219.70" y="391.19" width="8.00" height="30.24" class="down-body"/>
<line x1="238.33" y1="420.08" x2="238.33" y2="444.82" class="down-wick"/>
<rect x="234.33" y="420.23" width="8.00" height="11.07" class="down-body"/>
<line x1="252.97" y1="413.84" x2="252.97" y2="430.56" class="up-wick"/>
<rect x="248.97" y="423.80" width="8.00" height="6.17" class="up-body"/>
<line x1="267.61" y1="417.48" x2="267.61" y2="445.71" class="down-wick"/>
<rect x="263.61" y="423.72" width="8.00" height="21.25" class="down-body"/>
<line x1="282.25" y1="439.03" x2="282.25" y2="454.03" class="up-wick"/>
<rect x="278.25" y="440.81" width="8.00" height="4.16" class="up-body"/>
<line x1="296.88" y1="436.35" x2="296.88" y2="451.36" class="down-wick"/>
<rect x="292.88" y="440.81" width="8.00" height="10.03" class="down-body"/>
<line x1="311.52" y1="435.02" x2="311.52" y2="448.98" class="up-wick"/>
<rect x="307.52" y="441.03" width="8.00" height="5.42" class="up-body"/>
<line x1="326.16" y1="436.28" x2="326.16" y2="441.70" class="up-wick"/>
<rect x="322.16" y="439.03" width="8.00" height="2.08" class="up-body"/>
<line x1="340.80" y1="432.64" x2="340.80" y2="439.55" class="up-wick"/>
<rect x="336.80" y="435.69" width="8.00" height="3.42" class="up-body"/>
<line x1="355.43" y1="431.01" x2="355.43" y2="439.25" class="up-wick"/>
<rect x="351.43" y="433.38" width="8.00" height="2.45" class="up-body"/>
<line x1="370.07" y1="432.57" x2="370.07" y2="437.62" class="up-wick"/>
<rect x="366.07" y="432.86" width="8.00" height="1.00" class="up-body"/>
<line x1="384.71" y1="429.89" x2="384.71" y2="440.59" class="down-wick"/>
<rect x="380.71" y="432.79" width="8.00" height="3.57" class="down-body"/>
<line x1="399.35" y1="427.88" x2="399.35" y2="440.29" class="down-wick"/>
<rect x="395.35" y="436.28" width="8.00" height="1.63" class="down-body"/>
<line x1="413.99" y1="430.86" x2="413.99" y2="438.36" class="up-wick"/>
<rect x="409.99" y="433.61" width="8.00" height="4.09" class="up-body"/>
<line x1="428.62" y1="397.50" x2="428.62" y2="439.25" class="up-wick"/>
<rect x="424.62" y="410.35" width="8.00" height="23.33" class="up-body"/>
<line x1="443.26" y1="405.15" x2="443.26" y2="424.76" class="down-wick"/>
<rect x="439.26" y="410.35" width="8.00" height="6.17" class="down-body"/>
<line x1="457.90" y1="415.48" x2="457.90" y2="455.59" class="down-wick"/>
<rect x="453.90" y="416.52" width="8.00" height="32.76" class="down-body"/>
<line x1="472.54" y1="439.03" x2="472.54" y2="461.46" class="up-wick"/>
<rect x="468.54" y="447.72" width="8.00" height="1.71" class="up-body"/>
<line x1="487.17" y1="419.42" x2="487.17" y2="448.31" class="up-wick"/>
<rect x="483.17" y="422.98" width="8.00" height="24.37" class="up-body"/>
<line x1="501.81" y1="411.32" x2="501.81" y2="432.42" class="up-wick"/>
<rect x="497.81" y="418.15" width="8.00" height="5.13" class="up-body"/>
<line x1="516.45" y1="415.18" x2="516.45" y2="432.42" class="down-wick"/>
<rect x="512.45" y="418.15" width="8.00" height="8.77" class="down-body"/>
<line x1="531.09" y1="402.18" x2="531.09" y2="430.04" class="up-wick"/>
<rect x="527.09" y="408.79" width="8.00" height="18.28" class="up-body"/>
<line x1="545.72" y1="402.03" x2="545.72" y2="418.15" class="down-wick"/>
<rect x="541.72" y="408.87" width="8.00" height="7.28" class="down-body"/>
<line x1="560.36" y1="414.59" x2="560.36" y2="426.03" class="down-wick"/>
<rect x="556.36" y="416.37" width="8.00" height="3.94" class="down-body"/>
<line x1="575.00" y1="416.59" x2="575.00" y2="425.88" class="down-wick"/>
<rect x="571.00" y="420.08" width="8.00" height="1.00" class="down-body"/>
<line x1="589.64" y1="410.50" x2="589.64" y2="427.88" class="down-wick"/>
<rect x="585.64" y="420.31" width="8.00" height="6.69" class="down-body"/>
<line x1="604.28" y1="420.75" x2="604.28" y2="430.49" class="up-wick"/>
<rect x="600.28" y="422.39" width="8.00" height="4.98" class="up-body"/>
<line x1="618.91" y1="421.79" x2="618.91" y2="428.93" class="down-wick"/>
<rect x="614.91" y="422.31" width="8.00" height="1.04" class="down-body"/>
<line x1="633.55" y1="413.99" x2="633.55" y2="423.87" class="up-wick"/>
<rect x="629.55" y="415.78" width="8.00" height="7.28" class="up-body"/>
<line x1="648.19" y1="415.78" x2="648.19" y2="432.19" class="down-wick"/>
<rect x="644.19" y="415.78" width="8.00" height="16.12" class="down-body"/>
<line x1="662.83" y1="430.78" x2="662.83" y2="442.97" class="up-wick"/>
<rect x="658.83" y="431.82" width="8.00" height="1.00" class="up-body"/>
<line x1="677.46" y1="431.45" x2="677.46" y2="443.49" class="down-wick"/>
<rect x="673.46" y="431.75" width="8.00" height="8.62" class="down-body"/>
<line x1="692.10" y1="439.03" x2="692.10" y2="452.47" class="down-wick"/>
<rect x="688.10" y="440.59" width="8.00" height="3.49" class="down-body"/>
<line x1="706.74" y1="444.01" x2="706.74" y2="486.13" class="down-wick"/>
<rect x="702.74" y="444.01" width="8.00" height="40.56" class="down-body"/>
<line x1="721.38" y1="470.53" x2="721.38" y2="513.69" class="down-wick"/>
<rect x="717.38" y="484.87" width="8.00" height="17.01" class="down-body"/>
<line x1="736.01" y1="497.87" x2="736.01" y2="524.76" class="up-wick"/>
<rect x="732.01" y="498.31" width="8.00" height="3.12" class="up-body"/>
<line x1="750.65" y1="472.68" x2="750.65" y2="500.09" class="up-wick"/>
<rect x="746.65" y="475.43" width="8.00" height="23.10" class="up-body"/>
<line x1="765.29" y1="457.97" x2="765.29" y2="476.99" class="up-wick"/>
<rect x="761.29" y="474.17" width="8.00" height="1.11" class="up-body"/>
<line x1="779.93" y1="468.67" x2="779.93" y2="489.47" class="up-wick"/>
<rect x="775.93" y="469.34" width="8.00" height="5.27" class="up-body"/>
<line x1="794.57" y1="452.25" x2="794.57" y2="474.98" class="down-wick"/>
<rect x="790.57" y="469.26" width="8.00" height="1.00" class="down-body"/>
<line x1="809.20" y1="452.77" x2="809.20" y2="474.17" class="up-wick"/>
<rect x="805.20" y="459.24" width="8.00" height="10.55" class="up-body"/>
<line x1="823.84" y1="448.69" x2="823.84" y2="469.78" class="up-wick"/>
<rect x="819.84" y="456.78" width="8.00" height="2.60" class="up-body"/>
<line x1="838.48" y1="433.90" x2="838.48" y2="456.71" class="up-wick"/>
<rect x="834.48" y="444.90" width="8.00" height="11.81" class="up-body"/>
<line x1="853.12" y1="444.30" x2="853.12" y2="477.66" class="down-wick"/>
<rect x="849.12" y="444.90" width="8.00" height="15.08" class="down-body"/>
<line x1="867.75" y1="424.99" x2="867.75" y2="467.41" class="up-wick"/>
<rect x="863.75" y="426.25" width="8.00" height="34.54" class="up-body"/>
<line x1="882.39" y1="418.23" x2="882.39" y2="438.88" class="down-wick"/>
<rect x="878.39" y="426.32" width="8.00" height="7.28" class="down-body"/>
<line x1="897.03" y1="424.62" x2="897.03" y2="441.63" class="up-wick"/>
<rect x="893.03" y="426.92" width="8.00" height="6.91" class="up-body"/>
<line x1="911.67" y1="418.52" x2="911.67" y2="455.45" class="down-wick"/>
<rect x="907.67" y="426.77" width="8.00" height="13.30" class="down-body"/>
<line x1="926.30" y1="426.55" x2="926.30" y2="446.16" class="down-wick"/>
<rect x="922.30" y="440.07" width="8.00" height="1.00" class="down-body"/>
<line x1="940.94" y1="433.09" x2="940.94" y2="455.00" class="down-wick"/>
<rect x="936.94" y="440.37" width="8.00" height="14.41" class="down-body"/>
<line x1="955.58" y1="448.02" x2="955.58" y2="461.91" class="up-wick"/>
<rect x="951.58" y="453.51" width="8.00" height="1.26" class="up-body"/>
<line x1="970.22" y1="412.58" x2="970.22" y2="453.74" class="up-wick"/>
<rect x="966.22" y="416.52" width="8.00" height="36.77" class="up-body"/>
<line x1="984.86" y1="409.68" x2="984.86" y2="433.09" class="down-wick"/>
<rect x="980.86" y="416.74" width="8.00" height="1.00" class="down-body"/>
<line x1="999.49" y1="407.08" x2="999.49" y2="430.11" class="down-wick"/>
<rect x="995.49" y="417.41" width="8.00" height="8.17" class="down-body"/>
<line x1="1014.13" y1="419.19" x2="1014.13" y2="435.31" class="up-wick"/>
<rect x="1010.13" y="424.76" width="8.00" height="2.38" class="up-body"/>
<line x1="1028.77" y1="407.46" x2="1028.77" y2="428.63" class="up-wick"/>
<rect x="1024.77" y="408.27" width="8.00" height="15.97" class="up-body"/>
<line x1="1043.41" y1="388.36" x2="1043.41" y2="419.34" class="up-wick"/>
<rect x="1039.41" y="394.68" width="8.00" height="12.70" class="up-body"/>
<line x1="1058.04" y1="385.39" x2="1058.04" y2="414.07" class="down-wick"/>
<rect x="1054.04" y="395.35" width="8.00" height="9.06" class="down-body"/>
<line x1="1072.68" y1="402.40" x2="1072.68" y2="438.81" class="down-wick"/>
<rect x="1068.68" y="405.00" width="8.00" height="28.38" class="down-body"/>
<text x="70" y="556" class="axis-label">2024-11-14 20:00:00+00:00 to 2024-11-15 14:00:00+00:00</text>
<text x="1080" y="556" text-anchor="end" class="axis-label">2552.80 - 2578.64</text>
<text x="70" y="582" class="panel-title">M1 execution window</text>
<rect x="70" y="596" width="1010" height="192" class="plot-bg"/>
<text x="82" y="638" class="muted">No candles available for this timeframe/window.</text>
</svg>