<svg xmlns="http://www.w3.org/2000/svg" width="1120" height="804" viewBox="0 0 1120 804">
<style>
text{font-family:Arial,Helvetica,sans-serif}.title{font-size:21px;font-weight:700;fill:#1f2937}.subtitle{font-size:12px;fill:#4b5563}.panel-title{font-size:15px;font-weight:700;fill:#111827}.muted{font-size:13px;fill:#6b7280}.plot-bg{fill:#f8fafc;stroke:#cbd5e1;stroke-width:1}.up-body{fill:#15803d;stroke:#14532d;stroke-width:.8}.down-body{fill:#b91c1c;stroke:#7f1d1d;stroke-width:.8}.up-wick{stroke:#14532d;stroke-width:1}.down-wick{stroke:#7f1d1d;stroke-width:1}.sweep-line{stroke:#7c3aed;stroke-width:1.6;stroke-dasharray:6 4}.number-line{stroke:#0f766e;stroke-width:1.4;stroke-dasharray:3 4}.entry-line{stroke:#2563eb;stroke-width:1.4}.sl-line{stroke:#dc2626;stroke-width:1.4}.tp-line{stroke:#16a34a;stroke-width:1.4}.level-label,.axis-label{font-size:11px;fill:#374151}
</style>
<text x="28" y="28" class="title">Adelin v2 visual review sample sample_005</text>
<text x="28" y="48" class="subtitle">Candidate windows are for visual labeling only and are not trade signals.</text>
<text x="560" y="48" class="subtitle" text-anchor="middle">LARGE_UPPER_WICK_REVERSAL_VISUAL_CANDIDATE</text>
<text x="70" y="82" class="panel-title">H1 liquidity context</text>
<rect x="70" y="96" width="1010" height="192" class="plot-bg"/>
<text x="82" y="138" class="muted">No candles available for this timeframe/window.</text>
<text x="70" y="332" class="panel-title">M15 liquidity / reaction context</text>
<rect x="70" y="346" width="1010" height="192" class="plot-bg"/>
<line x1="76.92" y1="369.95" x2="76.92" y2="392.92" class="up-wick"/>
<rect x="72.92" y="373.12" width="8.00" height="2.60" class="up-body"/>
<line x1="90.75" y1="363.77" x2="90.75" y2="382.70" class="up-wick"/>
<rect x="86.75" y="369.54" width="8.00" height="3.24" class="up-body"/>
<line x1="104.59" y1="359.24" x2="104.59" y2="378.81" class="down-wick"/>
<rect x="100.59" y="369.61" width="8.00" height="4.00" class="down-body"/>
<line x1="118.42" y1="370.06" x2="118.42" y2="378.02" class="up-wick"/>
<rect x="114.42" y="373.08" width="8.00" height="1.00" class="up-body"/>
<line x1="132.26" y1="368.90" x2="132.26" y2="387.37" class="down-wick"/>
<rect x="128.26" y="373.08" width="8.00" height="10.22" class="down-body"/>
<line x1="146.10" y1="381.15" x2="146.10" y2="387.60" class="up-wick"/>
<rect x="142.10" y="382.47" width="8.00" height="1.00" class="up-body"/>
<line x1="159.93" y1="375.38" x2="159.93" y2="385.83" class="down-wick"/>
<rect x="155.93" y="382.89" width="8.00" height="1.00" class="down-body"/>
<line x1="173.77" y1="378.10" x2="173.77" y2="388.51" class="up-wick"/>
<rect x="169.77" y="382.51" width="8.00" height="1.06" class="up-body"/>
<line x1="187.60" y1="376.10" x2="187.60" y2="382.74" class="up-wick"/>
<rect x="183.60" y="378.10" width="8.00" height="4.37" class="up-body"/>
<line x1="201.44" y1="369.84" x2="201.44" y2="379.91" class="up-wick"/>
<rect x="197.44" y="371.38" width="8.00" height="6.75" class="up-body"/>
<line x1="215.27" y1="368.18" x2="215.27" y2="373.76" class="up-wick"/>
<rect x="211.27" y="370.29" width="8.00" height="1.21" class="up-body"/>
<line x1="229.11" y1="367.65" x2="229.11" y2="374.33" class="down-wick"/>
<rect x="225.11" y="370.25" width="8.00" height="3.58" class="down-body"/>
<line x1="242.95" y1="365.73" x2="242.95" y2="375.16" class="up-wick"/>
<rect x="238.95" y="369.08" width="8.00" height="4.79" class="up-body"/>
<line x1="256.78" y1="366.82" x2="256.78" y2="372.03" class="down-wick"/>
<rect x="252.78" y="368.82" width="8.00" height="1.51" class="down-body"/>
<line x1="270.62" y1="369.08" x2="270.62" y2="378.44" class="down-wick"/>
<rect x="266.62" y="370.37" width="8.00" height="2.07" class="down-body"/>
<line x1="284.45" y1="370.03" x2="284.45" y2="376.97" class="down-wick"/>
<rect x="280.45" y="372.40" width="8.00" height="4.49" class="down-body"/>
<line x1="298.29" y1="375.46" x2="298.29" y2="400.42" class="down-wick"/>
<rect x="294.29" y="377.00" width="8.00" height="16.29" class="down-body"/>
<line x1="312.12" y1="389.07" x2="312.12" y2="424.60" class="down-wick"/>
<rect x="308.12" y="393.33" width="8.00" height="25.61" class="down-body"/>
<line x1="325.96" y1="405.06" x2="325.96" y2="437.42" class="up-wick"/>
<rect x="321.96" y="413.58" width="8.00" height="4.56" class="up-body"/>
<line x1="339.79" y1="391.90" x2="339.79" y2="419.81" class="up-wick"/>
<rect x="335.79" y="392.84" width="8.00" height="20.55" class="up-body"/>
<line x1="353.63" y1="391.18" x2="353.63" y2="402.84" class="down-wick"/>
<rect x="349.63" y="392.96" width="8.00" height="9.58" class="down-body"/>
<line x1="367.47" y1="398.50" x2="367.47" y2="406.34" class="up-wick"/>
<rect x="363.47" y="402.57" width="8.00" height="1.00" class="up-body"/>
<line x1="381.30" y1="400.65" x2="381.30" y2="413.73" class="down-wick"/>
<rect x="377.30" y="402.46" width="8.00" height="7.20" class="down-body"/>
<line x1="395.14" y1="400.50" x2="395.14" y2="412.57" class="up-wick"/>
<rect x="391.14" y="407.97" width="8.00" height="3.66" class="up-body"/>
<line x1="408.97" y1="405.70" x2="408.97" y2="424.07" class="down-wick"/>
<rect x="404.97" y="408.38" width="8.00" height="14.07" class="down-body"/>
<line x1="422.81" y1="422.26" x2="422.81" y2="436.85" class="down-wick"/>
<rect x="418.81" y="422.26" width="8.00" height="10.79" class="down-body"/>
<line x1="436.64" y1="426.67" x2="436.64" y2="435.98" class="down-wick"/>
<rect x="432.64" y="432.89" width="8.00" height="1.85" class="down-body"/>
<line x1="450.48" y1="429.23" x2="450.48" y2="437.00" class="up-wick"/>
<rect x="446.48" y="432.70" width="8.00" height="1.81" class="up-body"/>
<line x1="464.32" y1="412.15" x2="464.32" y2="432.97" class="up-wick"/>
<rect x="460.32" y="413.96" width="8.00" height="18.74" class="up-body"/>
<line x1="478.15" y1="411.81" x2="478.15" y2="423.65" class="down-wick"/>
<rect x="474.15" y="414.11" width="8.00" height="2.56" class="down-body"/>
<line x1="491.99" y1="408.64" x2="491.99" y2="422.97" class="up-wick"/>
<rect x="487.99" y="412.53" width="8.00" height="4.60" class="up-body"/>
<line x1="505.82" y1="404.04" x2="505.82" y2="412.91" class="down-wick"/>
<rect x="501.82" y="412.53" width="8.00" height="1.00" class="down-body"/>
<line x1="519.66" y1="407.74" x2="519.66" y2="413.51" class="up-wick"/>
<rect x="515.66" y="410.68" width="8.00" height="1.36" class="up-body"/>
<line x1="533.49" y1="402.12" x2="533.49" y2="415.02" class="up-wick"/>
<rect x="529.49" y="403.02" width="8.00" height="7.66" class="up-body"/>
<line x1="547.33" y1="390.62" x2="547.33" y2="404.95" class="up-wick"/>
<rect x="543.33" y="393.48" width="8.00" height="9.43" class="up-body"/>
<line x1="561.16" y1="392.31" x2="561.16" y2="400.69" class="down-wick"/>
<rect x="557.16" y="393.48" width="8.00" height="4.56" class="down-body"/>
<line x1="575.00" y1="393.14" x2="575.00" y2="403.14" class="up-wick"/>
<rect x="571.00" y="393.82" width="8.00" height="4.26" class="up-body"/>
<line x1="588.84" y1="389.64" x2="588.84" y2="397.07" class="down-wick"/>
<rect x="584.84" y="394.31" width="8.00" height="1.00" class="down-body"/>
<line x1="602.67" y1="385.56" x2="602.67" y2="396.84" class="up-wick"/>
<rect x="598.67" y="388.24" width="8.00" height="6.37" class="up-body"/>
<line x1="616.51" y1="384.58" x2="616.51" y2="391.86" class="up-wick"/>
<rect x="612.51" y="385.60" width="8.00" height="2.68" class="up-body"/>
<line x1="630.34" y1="383.23" x2="630.34" y2="392.28" class="down-wick"/>
<rect x="626.34" y="385.60" width="8.00" height="5.73" class="down-body"/>
<line x1="644.18" y1="387.83" x2="644.18" y2="397.29" class="up-wick"/>
<rect x="640.18" y="388.05" width="8.00" height="3.21" class="up-body"/>
<line x1="658.01" y1="384.43" x2="658.01" y2="391.22" class="down-wick"/>
<rect x="654.01" y="388.17" width="8.00" height="1.00" class="down-body"/>
<line x1="671.85" y1="383.49" x2="671.85" y2="394.46" class="down-wick"/>
<rect x="667.85" y="389.30" width="8.00" height="1.00" class="down-body"/>
<line x1="685.68" y1="389.90" x2="685.68" y2="411.77" class="down-wick"/>
<rect x="681.68" y="395.22" width="8.00" height="11.58" class="down-body"/>
<line x1="699.52" y1="402.65" x2="699.52" y2="415.73" class="down-wick"/>
<rect x="695.52" y="407.14" width="8.00" height="1.32" class="down-body"/>
<line x1="713.36" y1="384.85" x2="713.36" y2="416.30" class="up-wick"/>
<rect x="709.36" y="394.65" width="8.00" height="13.27" class="up-body"/>
<line x1="727.19" y1="381.57" x2="727.19" y2="403.63" class="down-wick"/>
<rect x="723.19" y="394.50" width="8.00" height="8.30" class="down-body"/>
<line x1="741.03" y1="382.89" x2="741.03" y2="410.45" class="up-wick"/>
<rect x="737.03" y="398.65" width="8.00" height="4.11" class="up-body"/>
<line x1="754.86" y1="400.91" x2="754.86" y2="453.52" class="down-wick"/>
<rect x="750.86" y="400.91" width="8.00" height="22.97" class="down-body"/>
<line x1="768.70" y1="403.93" x2="768.70" y2="448.77" class="down-wick"/>
<rect x="764.70" y="424.18" width="8.00" height="21.34" class="down-body"/>
<line x1="782.53" y1="440.66" x2="782.53" y2="468.83" class="down-wick"/>
<rect x="778.53" y="444.13" width="8.00" height="12.60" class="down-body"/>
<line x1="796.37" y1="452.69" x2="796.37" y2="485.09" class="down-wick"/>
<rect x="792.37" y="457.18" width="8.00" height="18.93" class="down-body"/>
<line x1="810.21" y1="461.33" x2="810.21" y2="488.10" class="up-wick"/>
<rect x="806.21" y="471.51" width="8.00" height="4.04" class="up-body"/>
<line x1="824.04" y1="463.78" x2="824.04" y2="487.42" class="down-wick"/>
<rect x="820.04" y="471.55" width="8.00" height="13.50" class="down-body"/>
<line x1="837.88" y1="476.11" x2="837.88" y2="492.33" class="down-wick"/>
<rect x="833.88" y="484.14" width="8.00" height="3.39" class="down-body"/>
<line x1="851.71" y1="465.06" x2="851.71" y2="488.10" class="up-wick"/>
<rect x="847.71" y="476.56" width="8.00" height="11.01" class="up-body"/>
<line x1="865.55" y1="456.84" x2="865.55" y2="476.79" class="up-wick"/>
<rect x="861.55" y="471.06" width="8.00" height="5.73" class="up-body"/>
<line x1="879.38" y1="455.75" x2="879.38" y2="474.75" class="down-wick"/>
<rect x="875.38" y="471.13" width="8.00" height="1.70" class="down-body"/>
<line x1="893.22" y1="472.11" x2="893.22" y2="481.01" class="down-wick"/>
<rect x="889.22" y="472.49" width="8.00" height="6.64" class="down-body"/>
<line x1="907.05" y1="474.19" x2="907.05" y2="489.05" class="down-wick"/>
<rect x="903.05" y="479.20" width="8.00" height="9.84" class="down-body"/>
<line x1="920.89" y1="487.27" x2="920.89" y2="493.46" class="down-wick"/>
<rect x="916.89" y="489.05" width="8.00" height="1.36" class="down-body"/>
<line x1="934.73" y1="484.63" x2="934.73" y2="494.97" class="up-wick"/>
<rect x="930.73" y="487.54" width="8.00" height="2.87" class="up-body"/>
<line x1="948.56" y1="482.94" x2="948.56" y2="514.09" class="down-wick"/>
<rect x="944.56" y="487.54" width="8.00" height="21.16" class="down-body"/>
<line x1="962.40" y1="497.72" x2="962.40" y2="519.33" class="down-wick"/>
<rect x="958.40" y="508.35" width="8.00" height="9.01" class="down-body"/>
<line x1="976.23" y1="504.70" x2="976.23" y2="524.76" class="down-wick"/>
<rect x="972.23" y="517.29" width="8.00" height="6.00" class="down-body"/>
<line x1="990.07" y1="512.80" x2="990.07" y2="524.65" class="up-wick"/>
<rect x="986.07" y="512.95" width="8.00" height="10.22" class="up-body"/>
<line x1="1003.90" y1="507.68" x2="1003.90" y2="521.10" class="up-wick"/>
<rect x="999.90" y="511.63" width="8.00" height="1.21" class="up-body"/>
<line x1="1017.74" y1="508.20" x2="1017.74" y2="521.67" class="down-wick"/>
<rect x="1013.74" y="512.99" width="8.00" height="1.00" class="down-body"/>
<line x1="1031.58" y1="508.13" x2="1031.58" y2="514.58" class="up-wick"/>
<rect x="1027.58" y="513.33" width="8.00" height="1.00" class="up-body"/>
<line x1="1045.41" y1="514.05" x2="1045.41" y2="520.65" class="down-wick"/>
<rect x="1041.41" y="514.24" width="8.00" height="3.88" class="down-body"/>
<line x1="1059.25" y1="513.41" x2="1059.25" y2="521.21" class="down-wick"/>
<rect x="1055.25" y="517.86" width="8.00" height="1.51" class="down-body"/>
<line x1="1073.08" y1="515.86" x2="1073.08" y2="521.85" class="down-wick"/>
<rect x="1069.08" y="519.37" width="8.00" height="1.62" class="down-body"/>
<text x="70" y="556" class="axis-label">2024-05-23 04:30:00+00:00 to 2024-05-23 22:30:00+00:00</text>
<text x="1080" y="556" text-anchor="end" class="axis-label">2328.37 - 2379.28</text>
<text x="70" y="582" class="panel-title">M1 execution window</text>
<rect x="70" y="596" width="1010" height="192" class="plot-bg"/>
<text x="82" y="638" class="muted">No candles available for this timeframe/window.</text>
</svg>