<svg xmlns="http://www.w3.org/2000/svg" width="1120" height="1054" viewBox="0 0 1120 1054">
<style>
text{font-family:Arial,Helvetica,sans-serif}.title{font-size:21px;font-weight:700;fill:#1f2937}.subtitle{font-size:12px;fill:#4b5563}.panel-title{font-size:15px;font-weight:700;fill:#111827}.muted{font-size:13px;fill:#6b7280}.plot-bg{fill:#f8fafc;stroke:#cbd5e1;stroke-width:1}.up-body{fill:#15803d;stroke:#14532d;stroke-width:.8}.down-body{fill:#b91c1c;stroke:#7f1d1d;stroke-width:.8}.up-wick{stroke:#14532d;stroke-width:1}.down-wick{stroke:#7f1d1d;stroke-width:1}.sweep-line{stroke:#7c3aed;stroke-width:1.6;stroke-dasharray:6 4}.number-line{stroke:#0f766e;stroke-width:1.4;stroke-dasharray:3 4}.entry-line{stroke:#2563eb;stroke-width:1.4}.sl-line{stroke:#dc2626;stroke-width:1.4}.tp-line{stroke:#16a34a;stroke-width:1.4}.level-label,.axis-label{font-size:11px;fill:#374151}
</style>
<text x="28" y="28" class="title">Adelin v2 visual review sample sample_013</text>
<text x="28" y="48" class="subtitle">Candidate windows are for visual labeling only and are not trade signals.</text>
<text x="560" y="48" class="subtitle" text-anchor="middle">M15_SWING_LOW_SWEEP_VISUAL_CANDIDATE | NUMBER_THEORY_LEVEL_NEAR</text>
<text x="70" y="82" class="panel-title">H1 liquidity context</text>
<rect x="70" y="96" width="1010" height="192" class="plot-bg"/>
<line x1="82.62" y1="154.89" x2="82.62" y2="222.88" class="up-wick"/>
<rect x="78.62" y="166.45" width="8.00" height="9.77" class="up-body"/>
<line x1="107.88" y1="163.92" x2="107.88" y2="185.49" class="down-wick"/>
<rect x="103.88" y="166.45" width="8.00" height="12.03" class="down-body"/>
<line x1="133.12" y1="171.28" x2="133.12" y2="254.00" class="down-wick"/>
<rect x="129.12" y="178.45" width="8.00" height="28.12" class="down-body"/>
<line x1="158.38" y1="180.29" x2="158.38" y2="241.67" class="up-wick"/>
<rect x="154.38" y="193.99" width="8.00" height="13.26" class="up-body"/>
<line x1="183.62" y1="170.86" x2="183.62" y2="198.66" class="up-wick"/>
<rect x="179.62" y="183.02" width="8.00" height="10.98" class="up-body"/>
<line x1="208.88" y1="164.12" x2="208.88" y2="194.33" class="up-wick"/>
<rect x="204.88" y="173.08" width="8.00" height="9.94" class="up-body"/>
<line x1="234.12" y1="161.61" x2="234.12" y2="187.95" class="down-wick"/>
<rect x="230.12" y="173.09" width="8.00" height="1.00" class="down-body"/>
<line x1="259.38" y1="158.63" x2="259.38" y2="188.08" class="down-wick"/>
<rect x="255.38" y="173.74" width="8.00" height="12.97" class="down-body"/>
<line x1="284.62" y1="163.83" x2="284.62" y2="188.39" class="up-wick"/>
<rect x="280.62" y="165.61" width="8.00" height="21.10" class="up-body"/>
<line x1="309.88" y1="148.20" x2="309.88" y2="176.97" class="down-wick"/>
<rect x="305.88" y="165.61" width="8.00" height="1.00" class="down-body"/>
<line x1="335.12" y1="152.10" x2="335.12" y2="171.10" class="up-wick"/>
<rect x="331.12" y="161.38" width="8.00" height="4.96" class="up-body"/>
<line x1="360.38" y1="158.75" x2="360.38" y2="174.55" class="down-wick"/>
<rect x="356.38" y="161.38" width="8.00" height="9.34" class="down-body"/>
<line x1="385.62" y1="164.31" x2="385.62" y2="185.38" class="down-wick"/>
<rect x="381.62" y="170.73" width="8.00" height="3.61" class="down-body"/>
<line x1="410.88" y1="138.53" x2="410.88" y2="188.16" class="up-wick"/>
<rect x="406.88" y="160.53" width="8.00" height="13.81" class="up-body"/>
<line x1="436.12" y1="128.23" x2="436.12" y2="167.63" class="up-wick"/>
<rect x="432.12" y="133.19" width="8.00" height="27.36" class="up-body"/>
<line x1="461.38" y1="115.85" x2="461.38" y2="145.64" class="up-wick"/>
<rect x="457.38" y="126.95" width="8.00" height="6.25" class="up-body"/>
<line x1="486.62" y1="126.95" x2="486.62" y2="177.53" class="down-wick"/>
<rect x="482.62" y="126.95" width="8.00" height="39.08" class="down-body"/>
<line x1="511.88" y1="164.09" x2="511.88" y2="185.46" class="down-wick"/>
<rect x="507.88" y="166.05" width="8.00" height="3.85" class="down-body"/>
<line x1="537.12" y1="155.48" x2="537.12" y2="182.70" class="up-wick"/>
<rect x="533.12" y="161.11" width="8.00" height="8.80" class="up-body"/>
<line x1="562.38" y1="150.33" x2="562.38" y2="167.27" class="down-wick"/>
<rect x="558.38" y="161.11" width="8.00" height="4.27" class="down-body"/>
<line x1="587.62" y1="164.29" x2="587.62" y2="182.54" class="down-wick"/>
<rect x="583.62" y="165.37" width="8.00" height="14.71" class="down-body"/>
<line x1="612.88" y1="141.40" x2="612.88" y2="180.84" class="up-wick"/>
<rect x="608.88" y="150.18" width="8.00" height="29.90" class="up-body"/>
<line x1="638.12" y1="123.75" x2="638.12" y2="140.26" class="up-wick"/>
<rect x="634.12" y="129.64" width="8.00" height="9.95" class="up-body"/>
<line x1="663.38" y1="109.56" x2="663.38" y2="129.89" class="up-wick"/>
<rect x="659.38" y="119.14" width="8.00" height="10.52" class="up-body"/>
<line x1="688.62" y1="109.24" x2="688.62" y2="146.37" class="down-wick"/>
<rect x="684.62" y="119.14" width="8.00" height="24.42" class="down-body"/>
<line x1="713.88" y1="131.51" x2="713.88" y2="155.88" class="up-wick"/>
<rect x="709.88" y="143.01" width="8.00" height="1.00" class="up-body"/>
<line x1="739.12" y1="143.01" x2="739.12" y2="166.71" class="down-wick"/>
<rect x="735.12" y="143.01" width="8.00" height="22.11" class="down-body"/>
<line x1="764.38" y1="154.58" x2="764.38" y2="169.90" class="down-wick"/>
<rect x="760.38" y="165.12" width="8.00" height="2.79" class="down-body"/>
<line x1="789.62" y1="167.10" x2="789.62" y2="177.26" class="down-wick"/>
<rect x="785.62" y="167.91" width="8.00" height="3.53" class="down-body"/>
<line x1="814.88" y1="165.89" x2="814.88" y2="186.78" class="down-wick"/>
<rect x="810.88" y="171.42" width="8.00" height="2.05" class="down-body"/>
<line x1="840.12" y1="156.16" x2="840.12" y2="183.36" class="up-wick"/>
<rect x="836.12" y="163.82" width="8.00" height="9.65" class="up-body"/>
<line x1="865.38" y1="149.05" x2="865.38" y2="172.80" class="up-wick"/>
<rect x="861.38" y="151.79" width="8.00" height="12.03" class="up-body"/>
<line x1="890.62" y1="149.23" x2="890.62" y2="179.46" class="down-wick"/>
<rect x="886.62" y="151.79" width="8.00" height="19.17" class="down-body"/>
<line x1="915.88" y1="165.62" x2="915.88" y2="179.84" class="down-wick"/>
<rect x="911.88" y="170.98" width="8.00" height="1.24" class="down-body"/>
<line x1="941.12" y1="168.43" x2="941.12" y2="193.98" class="up-wick"/>
<rect x="937.12" y="168.43" width="8.00" height="3.79" class="up-body"/>
<line x1="966.38" y1="164.04" x2="966.38" y2="188.16" class="down-wick"/>
<rect x="962.38" y="168.43" width="8.00" height="18.58" class="down-body"/>
<line x1="991.62" y1="165.16" x2="991.62" y2="191.42" class="up-wick"/>
<rect x="987.62" y="178.50" width="8.00" height="8.50" class="up-body"/>
<line x1="1016.88" y1="178.09" x2="1016.88" y2="274.76" class="down-wick"/>
<rect x="1012.88" y="178.50" width="8.00" height="44.26" class="down-body"/>
<line x1="1042.12" y1="208.66" x2="1042.12" y2="248.47" class="down-wick"/>
<rect x="1038.12" y="222.76" width="8.00" height="12.89" class="down-body"/>
<line x1="1067.38" y1="215.56" x2="1067.38" y2="241.37" class="up-wick"/>
<rect x="1063.38" y="216.61" width="8.00" height="19.04" class="up-body"/>
<line x1="70" y1="176.37" x2="1080" y2="176.37" class="sweep-line"/>
<text x="1076" y="172.37" text-anchor="end" class="level-label">sweep 4538.72</text>
<line x1="70" y1="174.67" x2="1080" y2="174.67" class="number-line"/>
<text x="1076" y="170.67" text-anchor="end" class="level-label">round 4540.00</text>
<text x="70" y="306" class="axis-label">2026-05-18 01:00:00+00:00 to 2026-05-19 18:00:00+00:00</text>
<text x="1080" y="306" text-anchor="end" class="axis-label">4454.72 - 4599.20</text>
<text x="70" y="332" class="panel-title">M15 liquidity / reaction context</text>
<rect x="70" y="346" width="1010" height="192" class="plot-bg"/>
<line x1="77.77" y1="468.51" x2="77.77" y2="516.05" class="down-wick"/>
<rect x="73.77" y="474.41" width="8.00" height="32.73" class="down-body"/>
<line x1="93.31" y1="484.68" x2="93.31" y2="515.37" class="up-wick"/>
<rect x="89.31" y="489.33" width="8.00" height="17.81" class="up-body"/>
<line x1="108.85" y1="457.96" x2="108.85" y2="490.69" class="up-wick"/>
<rect x="104.85" y="469.95" width="8.00" height="19.20" class="up-body"/>
<line x1="124.38" y1="446.95" x2="124.38" y2="476.20" class="up-wick"/>
<rect x="120.38" y="461.30" width="8.00" height="8.65" class="up-body"/>
<line x1="139.92" y1="454.89" x2="139.92" y2="465.44" class="up-wick"/>
<rect x="135.92" y="459.40" width="8.00" height="1.90" class="up-body"/>
<line x1="155.46" y1="458.61" x2="155.46" y2="478.24" class="down-wick"/>
<rect x="151.46" y="459.54" width="8.00" height="15.86" class="down-body"/>
<line x1="171.00" y1="471.43" x2="171.00" y2="483.12" class="down-wick"/>
<rect x="167.00" y="475.40" width="8.00" height="3.66" class="down-body"/>
<line x1="186.54" y1="476.76" x2="186.54" y2="488.31" class="down-wick"/>
<rect x="182.54" y="479.06" width="8.00" height="5.05" class="down-body"/>
<line x1="202.08" y1="483.60" x2="202.08" y2="508.39" class="down-wick"/>
<rect x="198.08" y="484.11" width="8.00" height="9.16" class="down-body"/>
<line x1="217.62" y1="487.43" x2="217.62" y2="501.61" class="down-wick"/>
<rect x="213.62" y="493.33" width="8.00" height="1.30" class="down-body"/>
<line x1="233.15" y1="489.58" x2="233.15" y2="515.71" class="down-wick"/>
<rect x="229.15" y="494.63" width="8.00" height="15.83" class="down-body"/>
<line x1="248.69" y1="427.89" x2="248.69" y2="512.08" class="up-wick"/>
<rect x="244.69" y="457.96" width="8.00" height="52.51" class="up-body"/>
<line x1="264.23" y1="454.21" x2="264.23" y2="480.54" class="down-wick"/>
<rect x="260.23" y="457.96" width="8.00" height="8.06" class="down-body"/>
<line x1="279.77" y1="438.50" x2="279.77" y2="470.04" class="up-wick"/>
<rect x="275.77" y="447.40" width="8.00" height="18.61" class="up-body"/>
<line x1="295.31" y1="433.67" x2="295.31" y2="449.67" class="up-wick"/>
<rect x="291.31" y="446.64" width="8.00" height="1.00" class="up-body"/>
<line x1="310.85" y1="404.51" x2="310.85" y2="425.45" class="up-wick"/>
<rect x="306.85" y="404.51" width="8.00" height="19.52" class="up-body"/>
<line x1="326.38" y1="400.94" x2="326.38" y2="410.70" class="down-wick"/>
<rect x="322.38" y="404.51" width="8.00" height="1.36" class="down-body"/>
<line x1="341.92" y1="390.22" x2="341.92" y2="409.31" class="up-wick"/>
<rect x="337.92" y="395.21" width="8.00" height="10.67" class="up-body"/>
<line x1="357.46" y1="394.30" x2="357.46" y2="406.70" class="down-wick"/>
<rect x="353.46" y="395.21" width="8.00" height="7.57" class="down-body"/>
<line x1="373.00" y1="366.50" x2="373.00" y2="403.32" class="up-wick"/>
<rect x="369.00" y="369.74" width="8.00" height="33.10" class="up-body"/>
<line x1="388.54" y1="359.92" x2="388.54" y2="376.03" class="up-wick"/>
<rect x="384.54" y="369.48" width="8.00" height="1.00" class="up-body"/>
<line x1="404.08" y1="362.67" x2="404.08" y2="377.68" class="down-wick"/>
<rect x="400.08" y="369.48" width="8.00" height="1.00" class="down-body"/>
<line x1="419.62" y1="366.50" x2="419.62" y2="387.66" class="down-wick"/>
<rect x="415.62" y="370.16" width="8.00" height="10.21" class="down-body"/>
<line x1="435.15" y1="359.24" x2="435.15" y2="394.47" class="down-wick"/>
<rect x="431.15" y="380.37" width="8.00" height="8.25" class="down-body"/>
<line x1="450.69" y1="369.23" x2="450.69" y2="417.08" class="down-wick"/>
<rect x="446.69" y="388.63" width="8.00" height="14.92" class="down-body"/>
<line x1="466.23" y1="396.60" x2="466.23" y2="418.87" class="down-wick"/>
<rect x="462.23" y="403.12" width="8.00" height="8.28" class="down-body"/>
<line x1="481.77" y1="406.47" x2="481.77" y2="438.50" class="down-wick"/>
<rect x="477.77" y="411.41" width="8.00" height="21.10" class="down-body"/>
<line x1="497.31" y1="415.86" x2="497.31" y2="449.16" class="up-wick"/>
<rect x="493.31" y="425.87" width="8.00" height="6.84" class="up-body"/>
<line x1="512.85" y1="417.87" x2="512.85" y2="458.81" class="down-wick"/>
<rect x="508.85" y="425.87" width="8.00" height="18.67" class="down-body"/>
<line x1="528.38" y1="406.78" x2="528.38" y2="455.66" class="up-wick"/>
<rect x="524.38" y="411.66" width="8.00" height="32.88" class="up-body"/>
<line x1="543.92" y1="408.66" x2="543.92" y2="438.07" class="down-wick"/>
<rect x="539.92" y="411.66" width="8.00" height="19.66" class="down-body"/>
<line x1="559.46" y1="431.32" x2="559.46" y2="462.24" class="down-wick"/>
<rect x="555.46" y="431.32" width="8.00" height="26.44" class="down-body"/>
<line x1="575.00" y1="435.86" x2="575.00" y2="466.27" class="up-wick"/>
<rect x="571.00" y="442.98" width="8.00" height="14.78" class="up-body"/>
<line x1="590.54" y1="442.72" x2="590.54" y2="467.94" class="down-wick"/>
<rect x="586.54" y="443.04" width="8.00" height="9.87" class="down-body"/>
<line x1="606.08" y1="448.00" x2="606.08" y2="481.93" class="down-wick"/>
<rect x="602.08" y="452.91" width="8.00" height="25.61" class="down-body"/>
<line x1="621.62" y1="462.84" x2="621.62" y2="488.73" class="up-wick"/>
<rect x="617.62" y="465.39" width="8.00" height="13.13" class="up-body"/>
<line x1="637.15" y1="461.98" x2="637.15" y2="479.66" class="down-wick"/>
<rect x="633.15" y="465.39" width="8.00" height="7.46" class="down-body"/>
<line x1="652.69" y1="456.03" x2="652.69" y2="479.00" class="down-wick"/>
<rect x="648.69" y="472.85" width="8.00" height="3.89" class="down-body"/>
<line x1="668.23" y1="472.17" x2="668.23" y2="486.83" class="down-wick"/>
<rect x="664.23" y="476.96" width="8.00" height="7.52" class="down-body"/>
<line x1="683.77" y1="482.75" x2="683.77" y2="502.55" class="down-wick"/>
<rect x="679.77" y="484.48" width="8.00" height="13.81" class="down-body"/>
<line x1="699.31" y1="489.98" x2="699.31" y2="503.88" class="up-wick"/>
<rect x="695.31" y="498.01" width="8.00" height="1.00" class="up-body"/>
<line x1="714.85" y1="492.68" x2="714.85" y2="504.45" class="down-wick"/>
<rect x="710.85" y="498.01" width="8.00" height="1.53" class="down-body"/>
<line x1="730.38" y1="488.25" x2="730.38" y2="499.60" class="up-wick"/>
<rect x="726.38" y="492.02" width="8.00" height="7.52" class="up-body"/>
<line x1="745.92" y1="480.17" x2="745.92" y2="498.38" class="up-wick"/>
<rect x="741.92" y="485.13" width="8.00" height="6.84" class="up-body"/>
<line x1="761.46" y1="483.68" x2="761.46" y2="524.76" class="down-wick"/>
<rect x="757.46" y="485.22" width="8.00" height="17.84" class="down-body"/>
<line x1="777.00" y1="487.06" x2="777.00" y2="518.86" class="down-wick"/>
<rect x="773.00" y="503.06" width="8.00" height="1.00" class="down-body"/>
<line x1="792.54" y1="489.07" x2="792.54" y2="518.43" class="up-wick"/>
<rect x="788.54" y="496.34" width="8.00" height="6.84" class="up-body"/>
<line x1="808.08" y1="482.24" x2="808.08" y2="517.47" class="up-wick"/>
<rect x="804.08" y="493.10" width="8.00" height="3.23" class="up-body"/>
<line x1="823.62" y1="459.40" x2="823.62" y2="496.19" class="up-wick"/>
<rect x="819.62" y="477.05" width="8.00" height="16.06" class="up-body"/>
<line x1="839.15" y1="462.49" x2="839.15" y2="485.07" class="up-wick"/>
<rect x="835.15" y="464.34" width="8.00" height="12.71" class="up-body"/>
<line x1="854.69" y1="462.95" x2="854.69" y2="490.04" class="down-wick"/>
<rect x="850.69" y="464.45" width="8.00" height="11.29" class="down-body"/>
<line x1="870.23" y1="455.54" x2="870.23" y2="486.97" class="up-wick"/>
<rect x="866.23" y="474.30" width="8.00" height="1.45" class="up-body"/>
<line x1="885.77" y1="470.30" x2="885.77" y2="490.10" class="down-wick"/>
<rect x="881.77" y="474.30" width="8.00" height="1.11" class="down-body"/>
<line x1="901.31" y1="472.59" x2="901.31" y2="494.92" class="down-wick"/>
<rect x="897.31" y="475.40" width="8.00" height="17.47" class="down-body"/>
<line x1="916.85" y1="444.23" x2="916.85" y2="493.33" class="up-wick"/>
<rect x="912.85" y="450.07" width="8.00" height="42.80" class="up-body"/>
<line x1="932.38" y1="444.60" x2="932.38" y2="491.51" class="down-wick"/>
<rect x="928.38" y="450.07" width="8.00" height="30.78" class="down-body"/>
<line x1="947.92" y1="476.03" x2="947.92" y2="509.13" class="down-wick"/>
<rect x="943.92" y="480.85" width="8.00" height="22.81" class="down-body"/>
<line x1="963.46" y1="484.82" x2="963.46" y2="507.63" class="up-wick"/>
<rect x="959.46" y="489.61" width="8.00" height="14.01" class="up-body"/>
<line x1="979.00" y1="474.41" x2="979.00" y2="504.19" class="down-wick"/>
<rect x="975.00" y="489.61" width="8.00" height="1.39" class="down-body"/>
<line x1="994.54" y1="491.03" x2="994.54" y2="507.71" class="down-wick"/>
<rect x="990.54" y="491.03" width="8.00" height="9.05" class="down-body"/>
<line x1="1010.08" y1="479.60" x2="1010.08" y2="509.95" class="up-wick"/>
<rect x="1006.08" y="496.87" width="8.00" height="3.21" class="up-body"/>
<line x1="1025.62" y1="490.01" x2="1025.62" y2="508.25" class="down-wick"/>
<rect x="1021.62" y="496.87" width="8.00" height="3.72" class="down-body"/>
<line x1="1041.15" y1="485.50" x2="1041.15" y2="503.60" class="up-wick"/>
<rect x="1037.15" y="493.67" width="8.00" height="6.92" class="up-body"/>
<line x1="1056.69" y1="492.48" x2="1056.69" y2="510.24" class="down-wick"/>
<rect x="1052.69" y="493.67" width="8.00" height="1.08" class="down-body"/>
<line x1="1072.23" y1="493.56" x2="1072.23" y2="503.48" class="down-wick"/>
<rect x="1068.23" y="494.75" width="8.00" height="4.08" class="down-body"/>
<line x1="70" y1="502.55" x2="1080" y2="502.55" class="sweep-line"/>
<text x="1076" y="498.55" text-anchor="end" class="level-label">sweep 4538.72</text>
<line x1="70" y1="498.92" x2="1080" y2="498.92" class="number-line"/>
<text x="1076" y="494.92" text-anchor="end" class="level-label">round 4540.00</text>
<text x="70" y="556" class="axis-label">2026-05-18 19:15:00+00:00 to 2026-05-19 13:15:00+00:00</text>
<text x="1080" y="556" text-anchor="end" class="axis-label">4526.22 - 4593.91</text>
<text x="70" y="582" class="panel-title">M5 reaction / execution context</text>
<rect x="70" y="596" width="1010" height="192" class="plot-bg"/>
<line x1="79.18" y1="609.24" x2="79.18" y2="655.54" class="down-wick"/>
<rect x="75.18" y="619.82" width="8.00" height="24.28" class="down-body"/>
<line x1="97.55" y1="630.28" x2="97.55" y2="668.76" class="down-wick"/>
<rect x="93.55" y="644.11" width="8.00" height="10.15" class="down-body"/>
<line x1="115.91" y1="653.22" x2="115.91" y2="682.40" class="down-wick"/>
<rect x="111.91" y="654.02" width="8.00" height="21.04" class="down-body"/>
<line x1="134.27" y1="653.89" x2="134.27" y2="697.08" class="down-wick"/>
<rect x="130.27" y="675.06" width="8.00" height="1.00" class="down-body"/>
<line x1="152.64" y1="641.23" x2="152.64" y2="675.61" class="up-wick"/>
<rect x="148.64" y="664.60" width="8.00" height="11.01" class="up-body"/>
<line x1="171.00" y1="645.09" x2="171.00" y2="674.63" class="up-wick"/>
<rect x="167.00" y="646.74" width="8.00" height="17.86" class="up-body"/>
<line x1="189.36" y1="639.40" x2="189.36" y2="666.92" class="down-wick"/>
<rect x="185.36" y="646.74" width="8.00" height="4.10" class="down-body"/>
<line x1="207.73" y1="646.31" x2="207.73" y2="677.50" class="down-wick"/>
<rect x="203.73" y="651.02" width="8.00" height="16.70" class="down-body"/>
<line x1="226.09" y1="653.77" x2="226.09" y2="672.30" class="up-wick"/>
<rect x="222.09" y="662.82" width="8.00" height="4.89" class="up-body"/>
<line x1="244.45" y1="654.87" x2="244.45" y2="676.10" class="up-wick"/>
<rect x="240.45" y="658.30" width="8.00" height="4.53" class="up-body"/>
<line x1="262.82" y1="626.55" x2="262.82" y2="659.77" class="up-wick"/>
<rect x="258.82" y="629.37" width="8.00" height="29.05" class="up-body"/>
<line x1="281.18" y1="629.37" x2="281.18" y2="672.37" class="down-wick"/>
<rect x="277.18" y="629.37" width="8.00" height="41.84" class="down-body"/>
<line x1="299.55" y1="665.51" x2="299.55" y2="690.78" class="down-wick"/>
<rect x="295.55" y="671.69" width="8.00" height="3.85" class="down-body"/>
<line x1="317.91" y1="661.36" x2="317.91" y2="680.93" class="up-wick"/>
<rect x="313.91" y="665.88" width="8.00" height="9.66" class="up-body"/>
<line x1="336.27" y1="663.68" x2="336.27" y2="692.98" class="down-wick"/>
<rect x="332.27" y="665.88" width="8.00" height="22.02" class="down-body"/>
<line x1="354.64" y1="686.43" x2="354.64" y2="710.23" class="down-wick"/>
<rect x="350.64" y="687.90" width="8.00" height="5.69" class="down-body"/>
<line x1="373.00" y1="684.17" x2="373.00" y2="712.92" class="down-wick"/>
<rect x="369.00" y="693.71" width="8.00" height="11.32" class="down-body"/>
<line x1="391.36" y1="693.71" x2="391.36" y2="726.87" class="down-wick"/>
<rect x="387.36" y="705.03" width="8.00" height="12.66" class="down-body"/>
<line x1="409.73" y1="702.95" x2="409.73" y2="728.82" class="up-wick"/>
<rect x="405.73" y="717.32" width="8.00" height="1.00" class="up-body"/>
<line x1="428.09" y1="699.77" x2="428.09" y2="718.06" class="up-wick"/>
<rect x="424.09" y="702.89" width="8.00" height="14.44" class="up-body"/>
<line x1="446.45" y1="702.83" x2="446.45" y2="729.74" class="down-wick"/>
<rect x="442.45" y="702.89" width="8.00" height="14.19" class="down-body"/>
<line x1="464.82" y1="713.47" x2="464.82" y2="730.96" class="down-wick"/>
<rect x="460.82" y="717.08" width="8.00" height="9.66" class="down-body"/>
<line x1="483.18" y1="706.37" x2="483.18" y2="726.87" class="up-wick"/>
<rect x="479.18" y="715.49" width="8.00" height="11.13" class="up-body"/>
<line x1="501.55" y1="705.58" x2="501.55" y2="723.26" class="down-wick"/>
<rect x="497.55" y="715.49" width="8.00" height="4.89" class="down-body"/>
<line x1="519.91" y1="703.68" x2="519.91" y2="720.50" class="up-wick"/>
<rect x="515.91" y="715.86" width="8.00" height="4.53" class="up-body"/>
<line x1="538.27" y1="701.30" x2="538.27" y2="717.75" class="up-wick"/>
<rect x="534.27" y="703.87" width="8.00" height="11.93" class="up-body"/>
<line x1="556.64" y1="696.04" x2="556.64" y2="709.92" class="down-wick"/>
<rect x="552.64" y="703.87" width="8.00" height="1.00" class="down-body"/>
<line x1="575.00" y1="688.39" x2="575.00" y2="708.15" class="up-wick"/>
<rect x="571.00" y="692.06" width="8.00" height="11.99" class="up-body"/>
<line x1="593.36" y1="686.25" x2="593.36" y2="717.87" class="up-wick"/>
<rect x="589.36" y="686.43" width="8.00" height="5.63" class="up-body"/>
<line x1="611.73" y1="678.60" x2="611.73" y2="697.44" class="down-wick"/>
<rect x="607.73" y="686.43" width="8.00" height="2.87" class="down-body"/>
<line x1="630.09" y1="686.19" x2="630.09" y2="711.33" class="down-wick"/>
<rect x="626.09" y="689.49" width="8.00" height="16.88" class="down-body"/>
<line x1="648.45" y1="703.38" x2="648.45" y2="774.76" class="down-wick"/>
<rect x="644.45" y="706.37" width="8.00" height="40.55" class="down-body"/>
<line x1="666.82" y1="715.61" x2="666.82" y2="759.96" class="up-wick"/>
<rect x="662.82" y="727.97" width="8.00" height="18.96" class="up-body"/>
<line x1="685.18" y1="717.45" x2="685.18" y2="762.04" class="down-wick"/>
<rect x="681.18" y="727.97" width="8.00" height="9.54" class="down-body"/>
<line x1="703.55" y1="709.98" x2="703.55" y2="751.27" class="up-wick"/>
<rect x="699.55" y="720.14" width="8.00" height="17.68" class="up-body"/>
<line x1="721.91" y1="693.47" x2="721.91" y2="731.09" class="down-wick"/>
<rect x="717.91" y="720.14" width="8.00" height="8.07" class="down-body"/>
<line x1="740.27" y1="708.21" x2="740.27" y2="761.12" class="down-wick"/>
<rect x="736.27" y="728.21" width="8.00" height="29.48" class="down-body"/>
<line x1="758.64" y1="709.74" x2="758.64" y2="760.45" class="up-wick"/>
<rect x="754.64" y="719.83" width="8.00" height="37.86" class="up-body"/>
<line x1="777.00" y1="697.81" x2="777.00" y2="727.05" class="up-wick"/>
<rect x="773.00" y="713.47" width="8.00" height="6.30" class="up-body"/>
<line x1="795.36" y1="709.86" x2="795.36" y2="759.04" class="down-wick"/>
<rect x="791.36" y="713.47" width="8.00" height="11.99" class="down-body"/>
<line x1="813.73" y1="715.98" x2="813.73" y2="742.95" class="down-wick"/>
<rect x="809.73" y="725.46" width="8.00" height="7.40" class="down-body"/>
<line x1="832.09" y1="683.07" x2="832.09" y2="736.41" class="up-wick"/>
<rect x="828.09" y="706.50" width="8.00" height="26.61" class="up-body"/>
<line x1="850.45" y1="656.65" x2="850.45" y2="713.16" class="up-wick"/>
<rect x="846.45" y="657.50" width="8.00" height="48.99" class="up-body"/>
<line x1="868.82" y1="650.47" x2="868.82" y2="684.72" class="down-wick"/>
<rect x="864.82" y="657.56" width="8.00" height="3.91" class="down-body"/>
<line x1="887.18" y1="633.83" x2="887.18" y2="671.88" class="down-wick"/>
<rect x="883.18" y="661.48" width="8.00" height="10.40" class="down-body"/>
<line x1="905.55" y1="650.28" x2="905.55" y2="689.19" class="up-wick"/>
<rect x="901.55" y="656.34" width="8.00" height="15.54" class="up-body"/>
<line x1="923.91" y1="642.39" x2="923.91" y2="679.52" class="up-wick"/>
<rect x="919.91" y="643.80" width="8.00" height="12.54" class="up-body"/>
<line x1="942.27" y1="640.50" x2="942.27" y2="665.27" class="down-wick"/>
<rect x="938.27" y="643.80" width="8.00" height="1.00" class="down-body"/>
<line x1="960.64" y1="641.48" x2="960.64" y2="699.77" class="down-wick"/>
<rect x="956.64" y="644.72" width="8.00" height="54.68" class="down-body"/>
<line x1="979.00" y1="673.71" x2="979.00" y2="699.89" class="up-wick"/>
<rect x="975.00" y="677.44" width="8.00" height="21.96" class="up-body"/>
<line x1="997.36" y1="660.01" x2="997.36" y2="677.63" class="up-wick"/>
<rect x="993.36" y="669.06" width="8.00" height="8.38" class="up-body"/>
<line x1="1015.73" y1="665.27" x2="1015.73" y2="693.28" class="down-wick"/>
<rect x="1011.73" y="669.06" width="8.00" height="1.77" class="down-body"/>
<line x1="1034.09" y1="625.51" x2="1034.09" y2="677.14" class="up-wick"/>
<rect x="1030.09" y="639.40" width="8.00" height="31.44" class="up-body"/>
<line x1="1052.45" y1="634.08" x2="1052.45" y2="675.12" class="down-wick"/>
<rect x="1048.45" y="639.40" width="8.00" height="26.55" class="down-body"/>
<line x1="1070.82" y1="657.32" x2="1070.82" y2="678.24" class="up-wick"/>
<rect x="1066.82" y="665.88" width="8.00" height="1.00" class="up-body"/>
<line x1="70" y1="726.87" x2="1080" y2="726.87" class="sweep-line"/>
<text x="1076" y="722.87" text-anchor="end" class="level-label">sweep 4538.72</text>
<line x1="70" y1="719.04" x2="1080" y2="719.04" class="number-line"/>
<text x="1076" y="715.04" text-anchor="end" class="level-label">round 4540.00</text>
<text x="70" y="806" class="axis-label">2026-05-19 05:45:00+00:00 to 2026-05-19 10:15:00+00:00</text>
<text x="1080" y="806" text-anchor="end" class="axis-label">4528.73 - 4560.11</text>
<text x="70" y="832" class="panel-title">M1 execution window</text>
<rect x="70" y="846" width="1010" height="192" class="plot-bg"/>
<line x1="73.71" y1="859.24" x2="73.71" y2="872.58" class="up-wick"/>
<rect x="71.30" y="862.98" width="4.83" height="7.41" class="up-body"/>
<line x1="81.14" y1="863.30" x2="81.14" y2="875.23" class="down-wick"/>
<rect x="78.73" y="863.30" width="4.83" height="9.80" class="down-body"/>
<line x1="88.57" y1="895.85" x2="88.57" y2="908.03" class="up-wick"/>
<rect x="86.15" y="895.98" width="4.83" height="6.77" class="up-body"/>
<line x1="95.99" y1="885.47" x2="95.99" y2="895.01" class="up-wick"/>
<rect x="93.58" y="885.80" width="4.83" height="7.48" class="up-body"/>
<line x1="103.42" y1="901.14" x2="103.42" y2="921.95" class="up-wick"/>
<rect x="101.01" y="906.94" width="4.83" height="7.86" class="up-body"/>
<line x1="110.85" y1="905.58" x2="110.85" y2="920.73" class="down-wick"/>
<rect x="108.43" y="906.42" width="4.83" height="12.76" class="down-body"/>
<line x1="118.27" y1="915.38" x2="118.27" y2="922.53" class="down-wick"/>
<rect x="115.86" y="918.47" width="4.83" height="1.03" class="down-body"/>
<line x1="125.70" y1="923.05" x2="125.70" y2="931.88" class="down-wick"/>
<rect x="123.28" y="927.88" width="4.83" height="1.00" class="down-body"/>
<line x1="133.12" y1="931.56" x2="133.12" y2="951.80" class="down-wick"/>
<rect x="130.71" y="934.01" width="4.83" height="7.86" class="down-body"/>
<line x1="140.55" y1="915.90" x2="140.55" y2="940.84" class="down-wick"/>
<rect x="138.14" y="915.90" width="4.83" height="18.43" class="down-body"/>
<line x1="147.98" y1="908.94" x2="147.98" y2="929.17" class="up-wick"/>
<rect x="145.56" y="909.71" width="4.83" height="19.47" class="up-body"/>
<line x1="155.40" y1="893.66" x2="155.40" y2="901.52" class="down-wick"/>
<rect x="152.99" y="893.66" width="4.83" height="4.71" class="down-body"/>
<line x1="162.83" y1="908.23" x2="162.83" y2="920.15" class="down-wick"/>
<rect x="160.42" y="908.23" width="4.83" height="9.35" class="down-body"/>
<line x1="170.26" y1="916.93" x2="170.26" y2="927.24" class="up-wick"/>
<rect x="167.84" y="918.80" width="4.83" height="8.25" class="up-body"/>
<line x1="177.68" y1="901.01" x2="177.68" y2="906.10" class="down-wick"/>
<rect x="175.27" y="904.42" width="4.83" height="1.68" class="down-body"/>
<line x1="185.11" y1="891.02" x2="185.11" y2="901.59" class="up-wick"/>
<rect x="182.70" y="892.56" width="4.83" height="6.19" class="up-body"/>
<line x1="192.54" y1="899.85" x2="192.54" y2="920.02" class="up-wick"/>
<rect x="190.12" y="901.14" width="4.83" height="5.61" class="up-body"/>
<line x1="199.96" y1="893.34" x2="199.96" y2="903.71" class="down-wick"/>
<rect x="197.55" y="896.50" width="4.83" height="6.57" class="down-body"/>
<line x1="207.39" y1="907.45" x2="207.39" y2="916.54" class="down-wick"/>
<rect x="204.98" y="911.96" width="4.83" height="2.06" class="down-body"/>
<line x1="214.82" y1="915.90" x2="214.82" y2="931.17" class="down-wick"/>
<rect x="212.40" y="915.90" width="4.83" height="11.34" class="down-body"/>
<line x1="222.24" y1="918.99" x2="222.24" y2="925.18" class="down-wick"/>
<rect x="219.83" y="920.86" width="4.83" height="1.00" class="down-body"/>
<line x1="229.67" y1="908.61" x2="229.67" y2="922.28" class="up-wick"/>
<rect x="227.26" y="909.19" width="4.83" height="12.25" class="up-body"/>
<line x1="237.10" y1="910.55" x2="237.10" y2="917.19" class="down-wick"/>
<rect x="234.68" y="911.58" width="4.83" height="4.13" class="down-body"/>
<line x1="244.52" y1="907.32" x2="244.52" y2="923.57" class="down-wick"/>
<rect x="242.11" y="910.80" width="4.83" height="11.73" class="down-body"/>
<line x1="251.95" y1="911.77" x2="251.95" y2="921.12" class="up-wick"/>
<rect x="249.53" y="916.41" width="4.83" height="3.74" class="up-body"/>
<line x1="259.38" y1="904.23" x2="259.38" y2="912.48" class="up-wick"/>
<rect x="256.96" y="906.29" width="4.83" height="4.77" class="up-body"/>
<line x1="266.80" y1="901.78" x2="266.80" y2="910.29" class="down-wick"/>
<rect x="264.39" y="903.71" width="4.83" height="1.00" class="down-body"/>
<line x1="274.23" y1="877.48" x2="274.23" y2="885.73" class="up-wick"/>
<rect x="271.81" y="880.45" width="4.83" height="5.16" class="up-body"/>
<line x1="281.65" y1="898.94" x2="281.65" y2="910.93" class="down-wick"/>
<rect x="279.24" y="903.65" width="4.83" height="2.84" class="down-body"/>
<line x1="289.08" y1="903.20" x2="289.08" y2="918.47" class="down-wick"/>
<rect x="286.67" y="903.20" width="4.83" height="12.70" class="down-body"/>
<line x1="296.51" y1="925.05" x2="296.51" y2="945.16" class="down-wick"/>
<rect x="294.09" y="925.05" width="4.83" height="17.34" class="down-body"/>
<line x1="303.93" y1="924.98" x2="303.93" y2="932.33" class="up-wick"/>
<rect x="301.52" y="929.88" width="4.83" height="1.00" class="up-body"/>
<line x1="311.36" y1="918.93" x2="311.36" y2="933.94" class="down-wick"/>
<rect x="308.95" y="920.34" width="4.83" height="8.77" class="down-body"/>
<line x1="318.79" y1="918.22" x2="318.79" y2="934.78" class="up-wick"/>
<rect x="316.37" y="923.18" width="4.83" height="6.51" class="up-body"/>
<line x1="326.21" y1="915.45" x2="326.21" y2="922.34" class="down-wick"/>
<rect x="323.80" y="917.19" width="4.83" height="2.32" class="down-body"/>
<line x1="333.64" y1="916.61" x2="333.64" y2="923.82" class="up-wick"/>
<rect x="331.23" y="917.83" width="4.83" height="1.10" class="up-body"/>
<line x1="341.07" y1="934.85" x2="341.07" y2="947.48" class="up-wick"/>
<rect x="338.65" y="939.16" width="4.83" height="2.84" class="up-body"/>
<line x1="348.49" y1="933.49" x2="348.49" y2="945.29" class="down-wick"/>
<rect x="346.08" y="937.81" width="4.83" height="4.32" class="down-body"/>
<line x1="355.92" y1="951.80" x2="355.92" y2="965.65" class="up-wick"/>
<rect x="353.51" y="952.83" width="4.83" height="1.29" class="up-body"/>
<line x1="363.35" y1="941.03" x2="363.35" y2="955.66" class="down-wick"/>
<rect x="360.93" y="941.03" width="4.83" height="7.22" class="down-body"/>
<line x1="370.77" y1="938.20" x2="370.77" y2="953.67" class="up-wick"/>
<rect x="368.36" y="939.62" width="4.83" height="8.64" class="up-body"/>
<line x1="378.20" y1="948.25" x2="378.20" y2="962.30" class="up-wick"/>
<rect x="375.78" y="948.83" width="4.83" height="2.90" class="up-body"/>
<line x1="385.62" y1="950.89" x2="385.62" y2="968.49" class="down-wick"/>
<rect x="383.21" y="952.31" width="4.83" height="7.86" class="down-body"/>
<line x1="393.05" y1="948.25" x2="393.05" y2="967.65" class="up-wick"/>
<rect x="390.64" y="953.28" width="4.83" height="10.05" class="up-body"/>
<line x1="400.48" y1="957.15" x2="400.48" y2="971.39" class="down-wick"/>
<rect x="398.06" y="957.21" width="4.83" height="11.15" class="down-body"/>
<line x1="407.90" y1="970.94" x2="407.90" y2="985.25" class="up-wick"/>
<rect x="405.49" y="972.16" width="4.83" height="1.35" class="up-body"/>
<line x1="415.33" y1="957.98" x2="415.33" y2="966.43" class="up-wick"/>
<rect x="412.92" y="963.72" width="4.83" height="2.00" class="up-body"/>
<line x1="422.76" y1="969.33" x2="422.76" y2="982.15" class="up-wick"/>
<rect x="420.34" y="973.13" width="4.83" height="2.84" class="up-body"/>
<line x1="430.18" y1="957.15" x2="430.18" y2="963.21" class="down-wick"/>
<rect x="427.77" y="957.21" width="4.83" height="5.35" class="down-body"/>
<line x1="437.61" y1="963.59" x2="437.61" y2="970.94" class="up-wick"/>
<rect x="435.20" y="965.72" width="4.83" height="4.51" class="up-body"/>
<line x1="445.04" y1="957.86" x2="445.04" y2="971.84" class="down-wick"/>
<rect x="442.62" y="957.92" width="4.83" height="9.35" class="down-body"/>
<line x1="452.46" y1="974.55" x2="452.46" y2="984.41" class="up-wick"/>
<rect x="450.05" y="975.06" width="4.83" height="5.29" class="up-body"/>
<line x1="459.89" y1="972.87" x2="459.89" y2="981.51" class="up-wick"/>
<rect x="457.48" y="972.87" width="4.83" height="5.48" class="up-body"/>
<line x1="467.32" y1="978.55" x2="467.32" y2="983.51" class="up-wick"/>
<rect x="464.90" y="978.93" width="4.83" height="3.48" class="up-body"/>
<line x1="474.74" y1="976.74" x2="474.74" y2="984.54" class="down-wick"/>
<rect x="472.33" y="977.64" width="4.83" height="1.00" class="down-body"/>
<line x1="482.17" y1="964.82" x2="482.17" y2="983.19" class="up-wick"/>
<rect x="479.76" y="968.62" width="4.83" height="14.31" class="up-body"/>
<line x1="489.60" y1="963.53" x2="489.60" y2="978.16" class="down-wick"/>
<rect x="487.18" y="963.53" width="4.83" height="12.57" class="down-body"/>
<line x1="497.02" y1="970.04" x2="497.02" y2="978.80" class="up-wick"/>
<rect x="494.61" y="971.20" width="4.83" height="7.28" class="up-body"/>
<line x1="504.45" y1="960.76" x2="504.45" y2="970.30" class="up-wick"/>
<rect x="502.03" y="964.17" width="4.83" height="2.71" class="up-body"/>
<line x1="511.88" y1="966.49" x2="511.88" y2="974.23" class="up-wick"/>
<rect x="509.46" y="968.88" width="4.83" height="1.00" class="up-body"/>
<line x1="519.30" y1="967.97" x2="519.30" y2="976.48" class="up-wick"/>
<rect x="516.89" y="968.55" width="4.83" height="7.80" class="up-body"/>
<line x1="526.73" y1="958.76" x2="526.73" y2="966.69" class="up-wick"/>
<rect x="524.31" y="964.49" width="4.83" height="1.74" class="up-body"/>
<line x1="534.15" y1="960.82" x2="534.15" y2="975.58" class="down-wick"/>
<rect x="531.74" y="961.59" width="4.83" height="9.99" class="down-body"/>
<line x1="541.58" y1="959.21" x2="541.58" y2="973.58" class="up-wick"/>
<rect x="539.17" y="964.88" width="4.83" height="2.00" class="up-body"/>
<line x1="549.01" y1="956.24" x2="549.01" y2="962.88" class="up-wick"/>
<rect x="546.59" y="959.66" width="4.83" height="2.77" class="up-body"/>
<line x1="556.43" y1="958.95" x2="556.43" y2="964.69" class="down-wick"/>
<rect x="554.02" y="958.95" width="4.83" height="4.83" class="down-body"/>
<line x1="563.86" y1="951.47" x2="563.86" y2="962.82" class="down-wick"/>
<rect x="561.45" y="952.63" width="4.83" height="10.18" class="down-body"/>
<line x1="571.29" y1="958.76" x2="571.29" y2="962.05" class="up-wick"/>
<rect x="568.87" y="959.27" width="4.83" height="2.58" class="up-body"/>
<line x1="578.71" y1="942.64" x2="578.71" y2="951.67" class="up-wick"/>
<rect x="576.30" y="947.35" width="4.83" height="4.13" class="up-body"/>
<line x1="586.14" y1="948.12" x2="586.14" y2="959.98" class="down-wick"/>
<rect x="583.73" y="948.38" width="4.83" height="7.28" class="down-body"/>
<line x1="593.57" y1="945.74" x2="593.57" y2="953.67" class="down-wick"/>
<rect x="591.15" y="946.51" width="4.83" height="5.16" class="down-body"/>
<line x1="600.99" y1="952.83" x2="600.99" y2="963.91" class="down-wick"/>
<rect x="598.58" y="957.40" width="4.83" height="4.38" class="down-body"/>
<line x1="608.42" y1="940.39" x2="608.42" y2="953.15" class="up-wick"/>
<rect x="606.01" y="940.58" width="4.83" height="12.44" class="up-body"/>
<line x1="615.85" y1="932.98" x2="615.85" y2="939.23" class="down-wick"/>
<rect x="613.43" y="933.17" width="4.83" height="1.42" class="down-body"/>
<line x1="623.27" y1="934.07" x2="623.27" y2="945.67" class="down-wick"/>
<rect x="620.86" y="935.88" width="4.83" height="9.73" class="down-body"/>
<line x1="630.70" y1="940.32" x2="630.70" y2="946.58" class="up-wick"/>
<rect x="628.28" y="942.00" width="4.83" height="1.80" class="up-body"/>
<line x1="638.12" y1="952.83" x2="638.12" y2="960.30" class="up-wick"/>
<rect x="635.71" y="954.96" width="4.83" height="1.03" class="up-body"/>
<line x1="645.55" y1="953.41" x2="645.55" y2="966.81" class="down-wick"/>
<rect x="643.14" y="957.53" width="4.83" height="4.06" class="down-body"/>
<line x1="652.98" y1="961.14" x2="652.98" y2="982.93" class="down-wick"/>
<rect x="650.56" y="962.56" width="4.83" height="17.92" class="down-body"/>
<line x1="660.40" y1="990.34" x2="660.40" y2="1024.76" class="down-wick"/>
<rect x="657.99" y="990.34" width="4.83" height="27.07" class="down-body"/>
<line x1="667.83" y1="1002.01" x2="667.83" y2="1018.06" class="down-wick"/>
<rect x="665.42" y="1004.33" width="4.83" height="4.32" class="down-body"/>
<line x1="675.26" y1="984.22" x2="675.26" y2="1007.68" class="up-wick"/>
<rect x="672.84" y="984.54" width="4.83" height="9.09" class="up-body"/>
<line x1="682.68" y1="971.33" x2="682.68" y2="984.48" class="down-wick"/>
<rect x="680.27" y="978.16" width="4.83" height="6.19" class="down-body"/>
<line x1="690.11" y1="973.52" x2="690.11" y2="994.72" class="down-wick"/>
<rect x="687.70" y="990.86" width="4.83" height="3.87" class="down-body"/>
<line x1="697.54" y1="974.03" x2="697.54" y2="1006.97" class="up-wick"/>
<rect x="695.12" y="978.48" width="4.83" height="24.81" class="up-body"/>
<line x1="704.96" y1="993.43" x2="704.96" y2="1008.90" class="down-wick"/>
<rect x="702.55" y="994.72" width="4.83" height="3.67" class="down-body"/>
<line x1="712.39" y1="965.40" x2="712.39" y2="993.63" class="up-wick"/>
<rect x="709.98" y="971.39" width="4.83" height="21.21" class="up-body"/>
<line x1="719.82" y1="968.49" x2="719.82" y2="981.45" class="down-wick"/>
<rect x="717.40" y="974.68" width="4.83" height="1.42" class="down-body"/>
<line x1="727.24" y1="947.99" x2="727.24" y2="968.55" class="down-wick"/>
<rect x="724.83" y="948.06" width="4.83" height="19.72" class="down-body"/>
<line x1="734.67" y1="958.69" x2="734.67" y2="974.03" class="down-wick"/>
<rect x="732.26" y="965.14" width="4.83" height="6.70" class="down-body"/>
<line x1="742.10" y1="977.77" x2="742.10" y2="995.11" class="down-wick"/>
<rect x="739.68" y="984.60" width="4.83" height="9.47" class="down-body"/>
<line x1="749.52" y1="963.53" x2="749.52" y2="988.99" class="down-wick"/>
<rect x="747.11" y="971.07" width="4.83" height="3.29" class="down-body"/>
<line x1="756.95" y1="971.07" x2="756.95" y2="1019.28" class="down-wick"/>
<rect x="754.53" y="971.71" width="4.83" height="43.96" class="down-body"/>
<line x1="764.38" y1="995.63" x2="764.38" y2="1006.45" class="down-wick"/>
<rect x="761.96" y="1000.52" width="4.83" height="3.48" class="down-body"/>
<line x1="771.80" y1="984.02" x2="771.80" y2="998.33" class="up-wick"/>
<rect x="769.39" y="987.83" width="4.83" height="6.57" class="up-body"/>
<line x1="779.23" y1="952.57" x2="779.23" y2="983.38" class="up-wick"/>
<rect x="776.81" y="963.21" width="4.83" height="12.50" class="up-body"/>
<line x1="786.65" y1="958.31" x2="786.65" y2="970.42" class="up-wick"/>
<rect x="784.24" y="962.95" width="4.83" height="2.32" class="up-body"/>
<line x1="794.08" y1="957.98" x2="794.08" y2="971.26" class="down-wick"/>
<rect x="791.67" y="959.98" width="4.83" height="9.09" class="down-body"/>
<line x1="801.51" y1="992.79" x2="801.51" y2="1017.09" class="up-wick"/>
<rect x="799.09" y="994.08" width="4.83" height="12.18" class="up-body"/>
<line x1="808.93" y1="970.88" x2="808.93" y2="983.64" class="down-wick"/>
<rect x="806.52" y="971.07" width="4.83" height="2.90" class="down-body"/>
<line x1="816.36" y1="980.67" x2="816.36" y2="998.07" class="down-wick"/>
<rect x="813.95" y="981.70" width="4.83" height="10.57" class="down-body"/>
<line x1="823.79" y1="971.71" x2="823.79" y2="995.05" class="up-wick"/>
<rect x="821.37" y="974.61" width="4.83" height="16.95" class="up-body"/>
<line x1="831.21" y1="978.29" x2="831.21" y2="996.59" class="down-wick"/>
<rect x="828.80" y="978.74" width="4.83" height="10.76" class="down-body"/>
<line x1="838.64" y1="973.97" x2="838.64" y2="987.76" class="down-wick"/>
<rect x="836.23" y="977.19" width="4.83" height="4.19" class="down-body"/>
<line x1="846.07" y1="937.04" x2="846.07" y2="965.53" class="up-wick"/>
<rect x="843.65" y="947.54" width="4.83" height="17.47" class="up-body"/>
<line x1="853.49" y1="938.39" x2="853.49" y2="968.75" class="up-wick"/>
<rect x="851.08" y="943.68" width="4.83" height="18.05" class="up-body"/>
<line x1="860.92" y1="945.61" x2="860.92" y2="954.18" class="down-wick"/>
<rect x="858.51" y="949.99" width="4.83" height="1.35" class="down-body"/>
<line x1="868.35" y1="909.19" x2="868.35" y2="924.60" class="up-wick"/>
<rect x="865.93" y="910.10" width="4.83" height="7.93" class="up-body"/>
<line x1="875.77" y1="905.26" x2="875.77" y2="922.41" class="up-wick"/>
<rect x="873.36" y="905.26" width="4.83" height="15.98" class="up-body"/>
<line x1="883.20" y1="916.67" x2="883.20" y2="938.20" class="down-wick"/>
<rect x="880.78" y="917.57" width="4.83" height="19.21" class="down-body"/>
<line x1="890.62" y1="906.23" x2="890.62" y2="918.41" class="up-wick"/>
<rect x="888.21" y="907.39" width="4.83" height="6.90" class="up-body"/>
<line x1="898.05" y1="885.15" x2="898.05" y2="901.01" class="down-wick"/>
<rect x="895.64" y="898.49" width="4.83" height="1.00" class="down-body"/>
<line x1="905.48" y1="902.88" x2="905.48" y2="925.24" class="down-wick"/>
<rect x="903.06" y="911.32" width="4.83" height="13.92" class="down-body"/>
<line x1="912.90" y1="923.70" x2="912.90" y2="943.48" class="down-wick"/>
<rect x="910.49" y="928.98" width="4.83" height="1.74" class="down-body"/>
<line x1="920.33" y1="910.35" x2="920.33" y2="933.62" class="up-wick"/>
<rect x="917.92" y="911.77" width="4.83" height="17.60" class="up-body"/>
<line x1="927.76" y1="907.52" x2="927.76" y2="928.01" class="down-wick"/>
<rect x="925.34" y="908.87" width="4.83" height="15.02" class="down-body"/>
<line x1="935.18" y1="920.15" x2="935.18" y2="933.04" class="up-wick"/>
<rect x="932.77" y="922.53" width="4.83" height="3.87" class="up-body"/>
<line x1="942.61" y1="894.18" x2="942.61" y2="905.45" class="up-wick"/>
<rect x="940.20" y="895.66" width="4.83" height="5.35" class="up-body"/>
<line x1="950.04" y1="896.37" x2="950.04" y2="912.42" class="down-wick"/>
<rect x="947.62" y="904.81" width="4.83" height="7.48" class="down-body"/>
<line x1="957.46" y1="900.62" x2="957.46" y2="918.22" class="down-wick"/>
<rect x="955.05" y="903.91" width="4.83" height="11.92" class="down-body"/>
<line x1="964.89" y1="893.21" x2="964.89" y2="908.42" class="down-wick"/>
<rect x="962.48" y="896.62" width="4.83" height="10.83" class="down-body"/>
<line x1="972.32" y1="924.34" x2="972.32" y2="939.81" class="down-wick"/>
<rect x="969.90" y="927.50" width="4.83" height="10.96" class="down-body"/>
<line x1="979.74" y1="937.10" x2="979.74" y2="954.63" class="down-wick"/>
<rect x="977.33" y="937.10" width="4.83" height="17.14" class="down-body"/>
<line x1="987.17" y1="939.36" x2="987.17" y2="954.05" class="up-wick"/>
<rect x="984.76" y="945.22" width="4.83" height="2.84" class="up-body"/>
<line x1="994.60" y1="932.33" x2="994.60" y2="944.26" class="up-wick"/>
<rect x="992.18" y="934.01" width="4.83" height="7.61" class="up-body"/>
<line x1="1002.02" y1="912.74" x2="1002.02" y2="931.30" class="up-wick"/>
<rect x="999.61" y="920.79" width="4.83" height="10.31" class="up-body"/>
<line x1="1009.45" y1="919.38" x2="1009.45" y2="926.92" class="up-wick"/>
<rect x="1007.03" y="919.96" width="4.83" height="6.96" class="up-body"/>
<line x1="1016.88" y1="920.99" x2="1016.88" y2="927.24" class="up-wick"/>
<rect x="1014.46" y="922.28" width="4.83" height="2.06" class="up-body"/>
<line x1="1024.30" y1="927.63" x2="1024.30" y2="941.48" class="up-wick"/>
<rect x="1021.89" y="929.69" width="4.83" height="11.80" class="up-body"/>
<line x1="1031.73" y1="929.11" x2="1031.73" y2="944.45" class="down-wick"/>
<rect x="1029.31" y="932.59" width="4.83" height="1.00" class="down-body"/>
<line x1="1039.15" y1="915.19" x2="1039.15" y2="930.79" class="up-wick"/>
<rect x="1036.74" y="918.41" width="4.83" height="5.74" class="up-body"/>
<line x1="1046.58" y1="895.27" x2="1046.58" y2="914.99" class="up-wick"/>
<rect x="1044.17" y="897.53" width="4.83" height="14.37" class="up-body"/>
<line x1="1054.01" y1="876.39" x2="1054.01" y2="895.92" class="up-wick"/>
<rect x="1051.59" y="891.02" width="4.83" height="3.03" class="up-body"/>
<line x1="1061.43" y1="903.52" x2="1061.43" y2="928.66" class="down-wick"/>
<rect x="1059.02" y="905.39" width="4.83" height="11.67" class="down-body"/>
<line x1="1068.86" y1="914.22" x2="1068.86" y2="926.40" class="up-wick"/>
<rect x="1066.45" y="917.44" width="4.83" height="1.00" class="up-body"/>
<line x1="1076.29" y1="914.28" x2="1076.29" y2="927.69" class="down-wick"/>
<rect x="1073.87" y="918.99" width="4.83" height="8.51" class="down-body"/>
<line x1="70" y1="983.19" x2="1080" y2="983.19" class="sweep-line"/>
<text x="1076" y="979.19" text-anchor="end" class="level-label">sweep 4538.72</text>
<line x1="70" y1="974.94" x2="1080" y2="974.94" class="number-line"/>
<text x="1076" y="970.94" text-anchor="end" class="level-label">round 4540.00</text>
<text x="70" y="1056" class="axis-label">2026-05-19 05:45:00+00:00 to 2026-05-19 10:15:00+00:00</text>
<text x="1080" y="1056" text-anchor="end" class="axis-label">4530.22 - 4560.00</text>
</svg>