<svg xmlns="http://www.w3.org/2000/svg" width="1120" height="1054" viewBox="0 0 1120 1054">
<style>
text{font-family:Arial,Helvetica,sans-serif}.title{font-size:21px;font-weight:700;fill:#1f2937}.subtitle{font-size:12px;fill:#4b5563}.panel-title{font-size:15px;font-weight:700;fill:#111827}.muted{font-size:13px;fill:#6b7280}.plot-bg{fill:#f8fafc;stroke:#cbd5e1;stroke-width:1}.up-body{fill:#15803d;stroke:#14532d;stroke-width:.8}.down-body{fill:#b91c1c;stroke:#7f1d1d;stroke-width:.8}.up-wick{stroke:#14532d;stroke-width:1}.down-wick{stroke:#7f1d1d;stroke-width:1}.sweep-line{stroke:#7c3aed;stroke-width:1.6;stroke-dasharray:6 4}.number-line{stroke:#0f766e;stroke-width:1.4;stroke-dasharray:3 4}.entry-line{stroke:#2563eb;stroke-width:1.4}.sl-line{stroke:#dc2626;stroke-width:1.4}.tp-line{stroke:#16a34a;stroke-width:1.4}.level-label,.axis-label{font-size:11px;fill:#374151}
</style>
<text x="28" y="28" class="title">Adelin v2 visual review sample sample_024</text>
<text x="28" y="48" class="subtitle">Candidate windows are for visual labeling only and are not trade signals.</text>
<text x="560" y="48" class="subtitle" text-anchor="middle">ASIA_OPEN_CONTEXT</text>
<text x="70" y="82" class="panel-title">H1 liquidity context</text>
<rect x="70" y="96" width="1010" height="192" class="plot-bg"/>
<line x1="77.21" y1="130.98" x2="77.21" y2="159.45" class="up-wick"/>
<rect x="73.21" y="143.42" width="8.00" height="3.66" class="up-body"/>
<line x1="91.64" y1="139.30" x2="91.64" y2="158.53" class="down-wick"/>
<rect x="87.64" y="143.54" width="8.00" height="11.00" class="down-body"/>
<line x1="106.07" y1="151.66" x2="106.07" y2="202.03" class="down-wick"/>
<rect x="102.07" y="154.54" width="8.00" height="36.23" class="down-body"/>
<line x1="120.50" y1="157.99" x2="120.50" y2="198.69" class="up-wick"/>
<rect x="116.50" y="179.80" width="8.00" height="10.98" class="up-body"/>
<line x1="134.93" y1="168.49" x2="134.93" y2="190.56" class="down-wick"/>
<rect x="130.93" y="179.80" width="8.00" height="8.89" class="down-body"/>
<line x1="149.36" y1="182.95" x2="149.36" y2="197.03" class="down-wick"/>
<rect x="145.36" y="188.69" width="8.00" height="2.52" class="down-body"/>
<line x1="163.79" y1="181.77" x2="163.79" y2="192.06" class="up-wick"/>
<rect x="159.79" y="186.45" width="8.00" height="4.76" class="up-body"/>
<line x1="178.21" y1="182.31" x2="178.21" y2="207.81" class="down-wick"/>
<rect x="174.21" y="186.45" width="8.00" height="18.73" class="down-body"/>
<line x1="192.64" y1="205.18" x2="192.64" y2="253.64" class="down-wick"/>
<rect x="188.64" y="205.19" width="8.00" height="29.59" class="down-body"/>
<line x1="207.07" y1="230.75" x2="207.07" y2="274.76" class="down-wick"/>
<rect x="203.07" y="234.78" width="8.00" height="5.26" class="down-body"/>
<line x1="221.50" y1="218.29" x2="221.50" y2="240.35" class="up-wick"/>
<rect x="217.50" y="224.63" width="8.00" height="15.40" class="up-body"/>
<line x1="235.93" y1="205.87" x2="235.93" y2="233.67" class="up-wick"/>
<rect x="231.93" y="223.81" width="8.00" height="1.00" class="up-body"/>
<line x1="250.36" y1="214.56" x2="250.36" y2="227.88" class="up-wick"/>
<rect x="246.36" y="218.76" width="8.00" height="4.94" class="up-body"/>
<line x1="264.79" y1="155.13" x2="264.79" y2="218.76" class="up-wick"/>
<rect x="260.79" y="182.65" width="8.00" height="36.11" class="up-body"/>
<line x1="279.21" y1="145.38" x2="279.21" y2="196.48" class="up-wick"/>
<rect x="275.21" y="150.04" width="8.00" height="32.61" class="up-body"/>
<line x1="293.64" y1="147.68" x2="293.64" y2="175.20" class="down-wick"/>
<rect x="289.64" y="150.04" width="8.00" height="7.80" class="down-body"/>
<line x1="308.07" y1="138.69" x2="308.07" y2="158.17" class="up-wick"/>
<rect x="304.07" y="155.49" width="8.00" height="2.36" class="up-body"/>
<line x1="322.50" y1="147.20" x2="322.50" y2="191.84" class="down-wick"/>
<rect x="318.50" y="155.46" width="8.00" height="32.17" class="down-body"/>
<line x1="336.93" y1="178.52" x2="336.93" y2="191.33" class="up-wick"/>
<rect x="332.93" y="183.83" width="8.00" height="3.81" class="up-body"/>
<line x1="351.36" y1="162.98" x2="351.36" y2="185.35" class="up-wick"/>
<rect x="347.36" y="167.12" width="8.00" height="16.71" class="up-body"/>
<line x1="365.79" y1="153.75" x2="365.79" y2="174.95" class="up-wick"/>
<rect x="361.79" y="159.64" width="8.00" height="7.49" class="up-body"/>
<line x1="380.21" y1="159.12" x2="380.21" y2="178.05" class="down-wick"/>
<rect x="376.21" y="159.64" width="8.00" height="16.83" class="down-body"/>
<line x1="394.64" y1="171.41" x2="394.64" y2="181.31" class="up-wick"/>
<rect x="390.64" y="173.84" width="8.00" height="2.62" class="up-body"/>
<line x1="409.07" y1="165.44" x2="409.07" y2="188.46" class="up-wick"/>
<rect x="405.07" y="166.90" width="8.00" height="3.41" class="up-body"/>
<line x1="423.50" y1="159.86" x2="423.50" y2="168.60" class="up-wick"/>
<rect x="419.50" y="162.28" width="8.00" height="4.64" class="up-body"/>
<line x1="437.93" y1="160.46" x2="437.93" y2="198.24" class="down-wick"/>
<rect x="433.93" y="162.27" width="8.00" height="25.09" class="down-body"/>
<line x1="452.36" y1="184.22" x2="452.36" y2="205.95" class="down-wick"/>
<rect x="448.36" y="187.36" width="8.00" height="13.88" class="down-body"/>
<line x1="466.79" y1="182.55" x2="466.79" y2="206.65" class="up-wick"/>
<rect x="462.79" y="186.85" width="8.00" height="14.38" class="up-body"/>
<line x1="481.21" y1="186.13" x2="481.21" y2="197.07" class="down-wick"/>
<rect x="477.21" y="186.85" width="8.00" height="6.20" class="down-body"/>
<line x1="495.64" y1="189.84" x2="495.64" y2="199.82" class="down-wick"/>
<rect x="491.64" y="193.06" width="8.00" height="4.52" class="down-body"/>
<line x1="510.07" y1="184.24" x2="510.07" y2="202.06" class="up-wick"/>
<rect x="506.07" y="193.05" width="8.00" height="4.53" class="up-body"/>
<line x1="524.50" y1="174.13" x2="524.50" y2="194.48" class="up-wick"/>
<rect x="520.50" y="175.08" width="8.00" height="17.97" class="up-body"/>
<line x1="538.93" y1="165.01" x2="538.93" y2="175.86" class="up-wick"/>
<rect x="534.93" y="170.08" width="8.00" height="5.00" class="up-body"/>
<line x1="553.36" y1="168.92" x2="553.36" y2="178.66" class="down-wick"/>
<rect x="549.36" y="170.08" width="8.00" height="1.67" class="down-body"/>
<line x1="567.79" y1="165.58" x2="567.79" y2="177.05" class="up-wick"/>
<rect x="563.79" y="167.05" width="8.00" height="4.71" class="up-body"/>
<line x1="582.21" y1="162.00" x2="582.21" y2="170.92" class="up-wick"/>
<rect x="578.21" y="163.01" width="8.00" height="4.05" class="up-body"/>
<line x1="596.64" y1="161.92" x2="596.64" y2="184.07" class="down-wick"/>
<rect x="592.64" y="163.01" width="8.00" height="10.15" class="down-body"/>
<line x1="611.07" y1="166.77" x2="611.07" y2="188.10" class="down-wick"/>
<rect x="607.07" y="173.15" width="8.00" height="9.44" class="down-body"/>
<line x1="625.50" y1="179.02" x2="625.50" y2="191.66" class="up-wick"/>
<rect x="621.50" y="181.80" width="8.00" height="1.00" class="up-body"/>
<line x1="639.93" y1="164.61" x2="639.93" y2="182.05" class="up-wick"/>
<rect x="635.93" y="170.60" width="8.00" height="11.21" class="up-body"/>
<line x1="654.36" y1="165.58" x2="654.36" y2="176.93" class="down-wick"/>
<rect x="650.36" y="170.60" width="8.00" height="1.34" class="down-body"/>
<line x1="668.79" y1="166.66" x2="668.79" y2="174.93" class="up-wick"/>
<rect x="664.79" y="168.75" width="8.00" height="3.19" class="up-body"/>
<line x1="683.21" y1="167.10" x2="683.21" y2="184.89" class="down-wick"/>
<rect x="679.21" y="168.75" width="8.00" height="10.75" class="down-body"/>
<line x1="697.64" y1="168.05" x2="697.64" y2="181.01" class="up-wick"/>
<rect x="693.64" y="179.21" width="8.00" height="1.00" class="up-body"/>
<line x1="712.07" y1="172.02" x2="712.07" y2="179.50" class="up-wick"/>
<rect x="708.07" y="175.62" width="8.00" height="3.59" class="up-body"/>
<line x1="726.50" y1="148.14" x2="726.50" y2="176.62" class="up-wick"/>
<rect x="722.50" y="151.16" width="8.00" height="24.46" class="up-body"/>
<line x1="740.93" y1="147.57" x2="740.93" y2="157.36" class="up-wick"/>
<rect x="736.93" y="147.97" width="8.00" height="1.59" class="up-body"/>
<line x1="755.36" y1="126.04" x2="755.36" y2="151.97" class="up-wick"/>
<rect x="751.36" y="127.57" width="8.00" height="20.42" class="up-body"/>
<line x1="769.79" y1="119.26" x2="769.79" y2="130.63" class="up-wick"/>
<rect x="765.79" y="122.13" width="8.00" height="5.45" class="up-body"/>
<line x1="784.21" y1="109.71" x2="784.21" y2="125.73" class="up-wick"/>
<rect x="780.21" y="111.72" width="8.00" height="10.41" class="up-body"/>
<line x1="798.64" y1="109.24" x2="798.64" y2="116.63" class="down-wick"/>
<rect x="794.64" y="111.72" width="8.00" height="3.65" class="down-body"/>
<line x1="813.07" y1="114.52" x2="813.07" y2="120.64" class="down-wick"/>
<rect x="809.07" y="115.37" width="8.00" height="4.46" class="down-body"/>
<line x1="827.50" y1="118.38" x2="827.50" y2="121.30" class="up-wick"/>
<rect x="823.50" y="119.05" width="8.00" height="1.00" class="up-body"/>
<line x1="841.93" y1="118.77" x2="841.93" y2="126.68" class="down-wick"/>
<rect x="837.93" y="119.04" width="8.00" height="5.57" class="down-body"/>
<line x1="856.36" y1="124.20" x2="856.36" y2="131.97" class="down-wick"/>
<rect x="852.36" y="124.60" width="8.00" height="3.37" class="down-body"/>
<line x1="870.79" y1="122.11" x2="870.79" y2="130.70" class="down-wick"/>
<rect x="866.79" y="127.98" width="8.00" height="1.97" class="down-body"/>
<line x1="885.21" y1="120.61" x2="885.21" y2="131.12" class="up-wick"/>
<rect x="881.21" y="124.48" width="8.00" height="5.47" class="up-body"/>
<line x1="899.64" y1="120.72" x2="899.64" y2="133.76" class="down-wick"/>
<rect x="895.64" y="124.48" width="8.00" height="1.34" class="down-body"/>
<line x1="914.07" y1="122.37" x2="914.07" y2="126.09" class="up-wick"/>
<rect x="910.07" y="123.55" width="8.00" height="2.28" class="up-body"/>
<line x1="928.50" y1="114.76" x2="928.50" y2="124.44" class="up-wick"/>
<rect x="924.50" y="117.00" width="8.00" height="6.55" class="up-body"/>
<line x1="942.93" y1="115.40" x2="942.93" y2="135.69" class="down-wick"/>
<rect x="938.93" y="117.00" width="8.00" height="11.45" class="down-body"/>
<line x1="957.36" y1="117.79" x2="957.36" y2="129.46" class="up-wick"/>
<rect x="953.36" y="128.23" width="8.00" height="1.00" class="up-body"/>
<line x1="971.79" y1="116.86" x2="971.79" y2="132.06" class="up-wick"/>
<rect x="967.79" y="120.85" width="8.00" height="7.38" class="up-body"/>
<line x1="986.21" y1="120.24" x2="986.21" y2="134.64" class="down-wick"/>
<rect x="982.21" y="120.84" width="8.00" height="2.68" class="down-body"/>
<line x1="1000.64" y1="121.62" x2="1000.64" y2="128.04" class="down-wick"/>
<rect x="996.64" y="123.52" width="8.00" height="1.20" class="down-body"/>
<line x1="1015.07" y1="121.88" x2="1015.07" y2="128.92" class="down-wick"/>
<rect x="1011.07" y="124.71" width="8.00" height="1.55" class="down-body"/>
<line x1="1029.50" y1="120.25" x2="1029.50" y2="132.73" class="down-wick"/>
<rect x="1025.50" y="126.26" width="8.00" height="4.07" class="down-body"/>
<line x1="1043.93" y1="129.91" x2="1043.93" y2="147.17" class="down-wick"/>
<rect x="1039.93" y="130.33" width="8.00" height="2.42" class="down-body"/>
<line x1="1058.36" y1="129.10" x2="1058.36" y2="144.63" class="down-wick"/>
<rect x="1054.36" y="132.75" width="8.00" height="8.25" class="down-body"/>
<line x1="1072.79" y1="131.48" x2="1072.79" y2="140.97" class="up-wick"/>
<rect x="1068.79" y="137.10" width="8.00" height="1.00" class="up-body"/>
<text x="70" y="306" class="axis-label">2026-03-23 00:00:00+00:00 to 2026-03-26 00:00:00+00:00</text>
<text x="1080" y="306" text-anchor="end" class="axis-label">4058.22 - 4642.77</text>
<text x="70" y="332" class="panel-title">M15 liquidity / reaction context</text>
<rect x="70" y="346" width="1010" height="192" class="plot-bg"/>
<line x1="77.32" y1="465.19" x2="77.32" y2="480.42" class="up-wick"/>
<rect x="73.32" y="467.21" width="8.00" height="7.28" class="up-body"/>
<line x1="91.96" y1="465.03" x2="91.96" y2="509.51" class="down-wick"/>
<rect x="87.96" y="467.21" width="8.00" height="12.72" class="down-body"/>
<line x1="106.59" y1="479.24" x2="106.59" y2="490.51" class="down-wick"/>
<rect x="102.59" y="479.97" width="8.00" height="4.16" class="down-body"/>
<line x1="121.23" y1="471.95" x2="121.23" y2="485.30" class="up-wick"/>
<rect x="117.23" y="478.28" width="8.00" height="5.85" class="up-body"/>
<line x1="135.87" y1="474.45" x2="135.87" y2="498.99" class="down-wick"/>
<rect x="131.87" y="478.28" width="8.00" height="9.31" class="down-body"/>
<line x1="150.51" y1="477.96" x2="150.51" y2="489.50" class="up-wick"/>
<rect x="146.51" y="479.21" width="8.00" height="8.37" class="up-body"/>
<line x1="165.14" y1="474.77" x2="165.14" y2="495.46" class="down-wick"/>
<rect x="161.14" y="479.26" width="8.00" height="11.93" class="down-body"/>
<line x1="179.78" y1="488.49" x2="179.78" y2="517.60" class="down-wick"/>
<rect x="175.78" y="491.19" width="8.00" height="21.49" class="down-body"/>
<line x1="194.42" y1="499.04" x2="194.42" y2="513.14" class="up-wick"/>
<rect x="190.42" y="506.53" width="8.00" height="6.15" class="up-body"/>
<line x1="209.06" y1="499.36" x2="209.06" y2="516.45" class="down-wick"/>
<rect x="205.06" y="506.53" width="8.00" height="1.00" class="down-body"/>
<line x1="223.70" y1="503.13" x2="223.70" y2="521.38" class="down-wick"/>
<rect x="219.70" y="507.12" width="8.00" height="14.20" class="down-body"/>
<line x1="238.33" y1="512.11" x2="238.33" y2="524.76" class="up-wick"/>
<rect x="234.33" y="521.35" width="8.00" height="1.00" class="up-body"/>
<line x1="252.97" y1="503.60" x2="252.97" y2="524.60" class="up-wick"/>
<rect x="248.97" y="504.96" width="8.00" height="16.37" class="up-body"/>
<line x1="267.61" y1="489.73" x2="267.61" y2="505.45" class="up-wick"/>
<rect x="263.61" y="495.99" width="8.00" height="8.96" class="up-body"/>
<line x1="282.25" y1="482.85" x2="282.25" y2="500.06" class="up-wick"/>
<rect x="278.25" y="486.82" width="8.00" height="9.17" class="up-body"/>
<line x1="296.88" y1="479.13" x2="296.88" y2="492.60" class="up-wick"/>
<rect x="292.88" y="484.56" width="8.00" height="2.26" class="up-body"/>
<line x1="311.52" y1="470.43" x2="311.52" y2="492.00" class="up-wick"/>
<rect x="307.52" y="482.45" width="8.00" height="2.16" class="up-body"/>
<line x1="326.16" y1="479.25" x2="326.16" y2="495.17" class="down-wick"/>
<rect x="322.16" y="482.45" width="8.00" height="2.72" class="down-body"/>
<line x1="340.80" y1="479.30" x2="340.80" y2="490.60" class="up-wick"/>
<rect x="336.80" y="484.12" width="8.00" height="1.06" class="up-body"/>
<line x1="355.43" y1="473.61" x2="355.43" y2="486.21" class="up-wick"/>
<rect x="351.43" y="476.67" width="8.00" height="7.45" class="up-body"/>
<line x1="370.07" y1="472.38" x2="370.07" y2="486.65" class="down-wick"/>
<rect x="366.07" y="476.67" width="8.00" height="8.47" class="down-body"/>
<line x1="384.71" y1="483.24" x2="384.71" y2="491.15" class="up-wick"/>
<rect x="380.71" y="483.33" width="8.00" height="1.81" class="up-body"/>
<line x1="399.35" y1="475.82" x2="399.35" y2="485.08" class="up-wick"/>
<rect x="395.35" y="478.81" width="8.00" height="4.52" class="up-body"/>
<line x1="413.99" y1="476.57" x2="413.99" y2="487.05" class="up-wick"/>
<rect x="409.99" y="476.59" width="8.00" height="2.22" class="up-body"/>
<line x1="428.62" y1="474.54" x2="428.62" y2="480.58" class="down-wick"/>
<rect x="424.62" y="476.59" width="8.00" height="2.16" class="down-body"/>
<line x1="443.26" y1="475.43" x2="443.26" y2="500.60" class="down-wick"/>
<rect x="439.26" y="478.75" width="8.00" height="15.67" class="down-body"/>
<line x1="457.90" y1="488.94" x2="457.90" y2="496.67" class="up-wick"/>
<rect x="453.90" y="492.84" width="8.00" height="1.58" class="up-body"/>
<line x1="472.54" y1="492.84" x2="472.54" y2="509.30" class="down-wick"/>
<rect x="468.54" y="492.84" width="8.00" height="14.37" class="down-body"/>
<line x1="487.17" y1="496.21" x2="487.17" y2="511.15" class="up-wick"/>
<rect x="483.17" y="500.33" width="8.00" height="6.87" class="up-body"/>
<line x1="501.81" y1="496.69" x2="501.81" y2="503.35" class="up-wick"/>
<rect x="497.81" y="499.67" width="8.00" height="1.00" class="up-body"/>
<line x1="516.45" y1="486.24" x2="516.45" y2="501.11" class="up-wick"/>
<rect x="512.45" y="487.95" width="8.00" height="11.71" class="up-body"/>
<line x1="531.09" y1="477.35" x2="531.09" y2="496.22" class="down-wick"/>
<rect x="527.09" y="487.95" width="8.00" height="4.74" class="down-body"/>
<line x1="545.72" y1="491.50" x2="545.72" y2="503.30" class="down-wick"/>
<rect x="541.72" y="492.70" width="8.00" height="7.04" class="down-body"/>
<line x1="560.36" y1="488.78" x2="560.36" y2="500.33" class="up-wick"/>
<rect x="556.36" y="489.90" width="8.00" height="9.84" class="up-body"/>
<line x1="575.00" y1="485.30" x2="575.00" y2="492.78" class="up-wick"/>
<rect x="571.00" y="487.92" width="8.00" height="1.98" class="up-body"/>
<line x1="589.64" y1="487.82" x2="589.64" y2="496.02" class="down-wick"/>
<rect x="585.64" y="487.87" width="8.00" height="4.00" class="down-body"/>
<line x1="604.28" y1="489.79" x2="604.28" y2="495.02" class="down-wick"/>
<rect x="600.28" y="491.88" width="8.00" height="1.00" class="down-body"/>
<line x1="618.91" y1="489.93" x2="618.91" y2="494.55" class="up-wick"/>
<rect x="614.91" y="492.27" width="8.00" height="1.00" class="up-body"/>
<line x1="633.55" y1="437.35" x2="633.55" y2="493.40" class="up-wick"/>
<rect x="629.55" y="456.08" width="8.00" height="36.19" class="up-body"/>
<line x1="648.19" y1="444.77" x2="648.19" y2="461.53" class="up-wick"/>
<rect x="644.19" y="453.17" width="8.00" height="2.92" class="up-body"/>
<line x1="662.83" y1="439.06" x2="662.83" y2="455.73" class="up-wick"/>
<rect x="658.83" y="443.41" width="8.00" height="9.90" class="up-body"/>
<line x1="677.46" y1="436.22" x2="677.46" y2="447.81" class="up-wick"/>
<rect x="673.46" y="437.69" width="8.00" height="2.52" class="up-body"/>
<line x1="692.10" y1="436.66" x2="692.10" y2="447.63" class="down-wick"/>
<rect x="688.10" y="437.71" width="8.00" height="8.75" class="down-body"/>
<line x1="706.74" y1="445.75" x2="706.74" y2="455.86" class="down-wick"/>
<rect x="702.74" y="446.44" width="8.00" height="1.00" class="down-body"/>
<line x1="721.38" y1="437.02" x2="721.38" y2="448.57" class="up-wick"/>
<rect x="717.38" y="437.02" width="8.00" height="10.36" class="up-body"/>
<line x1="736.01" y1="436.71" x2="736.01" y2="445.04" class="up-wick"/>
<rect x="732.01" y="436.91" width="8.00" height="1.00" class="up-body"/>
<line x1="750.65" y1="420.18" x2="750.65" y2="437.90" class="up-wick"/>
<rect x="746.65" y="420.23" width="8.00" height="16.67" class="up-body"/>
<line x1="765.29" y1="396.42" x2="765.29" y2="423.91" class="up-wick"/>
<rect x="761.29" y="400.70" width="8.00" height="19.54" class="up-body"/>
<line x1="779.93" y1="392.97" x2="779.93" y2="405.69" class="up-wick"/>
<rect x="775.93" y="396.05" width="8.00" height="4.64" class="up-body"/>
<line x1="794.57" y1="390.53" x2="794.57" y2="402.19" class="up-wick"/>
<rect x="790.57" y="393.69" width="8.00" height="2.37" class="up-body"/>
<line x1="809.20" y1="389.33" x2="809.20" y2="401.28" class="up-wick"/>
<rect x="805.20" y="391.52" width="8.00" height="2.17" class="up-body"/>
<line x1="823.84" y1="380.67" x2="823.84" y2="395.98" class="up-wick"/>
<rect x="819.84" y="382.17" width="8.00" height="9.35" class="up-body"/>
<line x1="838.48" y1="379.35" x2="838.48" y2="386.02" class="down-wick"/>
<rect x="834.48" y="382.17" width="8.00" height="2.95" class="down-body"/>
<line x1="853.12" y1="374.75" x2="853.12" y2="392.36" class="up-wick"/>
<rect x="849.12" y="380.12" width="8.00" height="4.99" class="up-body"/>
<line x1="867.75" y1="374.83" x2="867.75" y2="381.77" class="up-wick"/>
<rect x="863.75" y="376.93" width="8.00" height="3.19" class="up-body"/>
<line x1="882.39" y1="366.69" x2="882.39" y2="377.76" class="up-wick"/>
<rect x="878.39" y="370.76" width="8.00" height="6.17" class="up-body"/>
<line x1="897.03" y1="360.18" x2="897.03" y2="371.73" class="up-wick"/>
<rect x="893.03" y="364.21" width="8.00" height="6.54" class="up-body"/>
<line x1="911.67" y1="363.32" x2="911.67" y2="374.09" class="down-wick"/>
<rect x="907.67" y="364.21" width="8.00" height="6.08" class="down-body"/>
<line x1="926.30" y1="365.73" x2="926.30" y2="370.97" class="up-wick"/>
<rect x="922.30" y="369.34" width="8.00" height="1.00" class="up-body"/>
<line x1="940.94" y1="362.68" x2="940.94" y2="373.05" class="up-wick"/>
<rect x="936.94" y="365.27" width="8.00" height="4.07" class="up-body"/>
<line x1="955.58" y1="359.24" x2="955.58" y2="372.81" class="down-wick"/>
<rect x="951.58" y="365.27" width="8.00" height="6.27" class="down-body"/>
<line x1="970.22" y1="369.83" x2="970.22" y2="378.30" class="down-wick"/>
<rect x="966.22" y="371.54" width="8.00" height="4.67" class="down-body"/>
<line x1="984.86" y1="374.27" x2="984.86" y2="379.27" class="down-wick"/>
<rect x="980.86" y="376.19" width="8.00" height="1.00" class="down-body"/>
<line x1="999.49" y1="375.34" x2="999.49" y2="380.76" class="down-wick"/>
<rect x="995.49" y="377.01" width="8.00" height="3.65" class="down-body"/>
<line x1="1014.13" y1="377.82" x2="1014.13" y2="382.14" class="up-wick"/>
<rect x="1010.13" y="380.50" width="8.00" height="1.00" class="up-body"/>
<line x1="1028.77" y1="377.60" x2="1028.77" y2="383.45" class="up-wick"/>
<rect x="1024.77" y="378.07" width="8.00" height="2.43" class="up-body"/>
<line x1="1043.41" y1="377.61" x2="1043.41" y2="379.93" class="up-wick"/>
<rect x="1039.41" y="377.77" width="8.00" height="1.00" class="up-body"/>
<line x1="1058.04" y1="377.66" x2="1058.04" y2="383.02" class="down-wick"/>
<rect x="1054.04" y="377.80" width="8.00" height="3.15" class="down-body"/>
<line x1="1072.68" y1="377.99" x2="1072.68" y2="381.85" class="up-wick"/>
<rect x="1068.68" y="378.93" width="8.00" height="2.02" class="up-body"/>
<text x="70" y="556" class="axis-label">2026-03-24 12:45:00+00:00 to 2026-03-25 06:45:00+00:00</text>
<text x="1080" y="556" text-anchor="end" class="axis-label">4331.44 - 4622.54</text>
<text x="70" y="582" class="panel-title">M5 reaction / execution context</text>
<rect x="70" y="596" width="1010" height="192" class="plot-bg"/>
<line x1="80.98" y1="744.97" x2="80.98" y2="760.42" class="down-wick"/>
<rect x="76.98" y="746.89" width="8.00" height="1.00" class="down-body"/>
<line x1="102.93" y1="739.78" x2="102.93" y2="751.99" class="up-wick"/>
<rect x="98.93" y="741.21" width="8.00" height="5.88" class="up-body"/>
<line x1="124.89" y1="740.74" x2="124.89" y2="748.21" class="down-wick"/>
<rect x="120.89" y="741.16" width="8.00" height="1.24" class="down-body"/>
<line x1="146.85" y1="741.22" x2="146.85" y2="750.86" class="down-wick"/>
<rect x="142.85" y="742.43" width="8.00" height="1.00" class="down-body"/>
<line x1="168.80" y1="740.57" x2="168.80" y2="749.11" class="down-wick"/>
<rect x="164.80" y="742.52" width="8.00" height="5.58" class="down-body"/>
<line x1="190.76" y1="747.93" x2="190.76" y2="760.09" class="down-wick"/>
<rect x="186.76" y="748.20" width="8.00" height="9.81" class="down-body"/>
<line x1="212.72" y1="757.75" x2="212.72" y2="774.76" class="down-wick"/>
<rect x="208.72" y="757.98" width="8.00" height="8.49" class="down-body"/>
<line x1="234.67" y1="758.02" x2="234.67" y2="767.40" class="up-wick"/>
<rect x="230.67" y="764.34" width="8.00" height="1.82" class="up-body"/>
<line x1="256.63" y1="756.74" x2="256.63" y2="764.57" class="up-wick"/>
<rect x="252.63" y="759.63" width="8.00" height="4.83" class="up-body"/>
<line x1="278.59" y1="747.07" x2="278.59" y2="761.77" class="up-wick"/>
<rect x="274.59" y="750.92" width="8.00" height="8.74" class="up-body"/>
<line x1="300.54" y1="750.73" x2="300.54" y2="759.16" class="down-wick"/>
<rect x="296.54" y="750.93" width="8.00" height="5.34" class="down-body"/>
<line x1="322.50" y1="741.21" x2="322.50" y2="757.29" class="up-wick"/>
<rect x="318.50" y="741.21" width="8.00" height="15.18" class="up-body"/>
<line x1="344.46" y1="740.70" x2="344.46" y2="755.49" class="down-wick"/>
<rect x="340.46" y="741.28" width="8.00" height="11.51" class="down-body"/>
<line x1="366.41" y1="741.26" x2="366.41" y2="752.85" class="up-wick"/>
<rect x="362.41" y="746.09" width="8.00" height="6.65" class="up-body"/>
<line x1="388.37" y1="740.66" x2="388.37" y2="747.02" class="up-wick"/>
<rect x="384.37" y="741.01" width="8.00" height="5.00" class="up-body"/>
<line x1="410.33" y1="723.52" x2="410.33" y2="742.78" class="up-wick"/>
<rect x="406.33" y="725.02" width="8.00" height="15.99" class="up-body"/>
<line x1="432.28" y1="719.87" x2="432.28" y2="727.93" class="up-wick"/>
<rect x="428.28" y="720.35" width="8.00" height="4.66" class="up-body"/>
<line x1="454.24" y1="711.23" x2="454.24" y2="723.48" class="up-wick"/>
<rect x="450.24" y="711.32" width="8.00" height="9.03" class="up-body"/>
<line x1="476.20" y1="708.90" x2="476.20" y2="717.04" class="down-wick"/>
<rect x="472.20" y="711.32" width="8.00" height="4.59" class="down-body"/>
<line x1="498.15" y1="668.93" x2="498.15" y2="717.86" class="up-wick"/>
<rect x="494.15" y="669.29" width="8.00" height="46.62" class="up-body"/>
<line x1="520.11" y1="668.98" x2="520.11" y2="685.81" class="down-wick"/>
<rect x="516.11" y="669.29" width="8.00" height="7.25" class="down-body"/>
<line x1="542.07" y1="664.47" x2="542.07" y2="685.43" class="up-wick"/>
<rect x="538.07" y="664.52" width="8.00" height="12.02" class="up-body"/>
<line x1="564.02" y1="662.78" x2="564.02" y2="680.49" class="down-wick"/>
<rect x="560.02" y="664.52" width="8.00" height="7.27" class="down-body"/>
<line x1="585.98" y1="663.66" x2="585.98" y2="673.59" class="up-wick"/>
<rect x="581.98" y="668.27" width="8.00" height="3.52" class="up-body"/>
<line x1="607.93" y1="659.90" x2="607.93" y2="679.21" class="up-wick"/>
<rect x="603.93" y="660.45" width="8.00" height="7.82" class="up-body"/>
<line x1="629.89" y1="658.90" x2="629.89" y2="674.37" class="down-wick"/>
<rect x="625.89" y="660.45" width="8.00" height="5.39" class="down-body"/>
<line x1="651.85" y1="658.44" x2="651.85" y2="666.64" class="up-wick"/>
<rect x="647.85" y="664.06" width="8.00" height="1.78" class="up-body"/>
<line x1="673.80" y1="662.47" x2="673.80" y2="677.59" class="down-wick"/>
<rect x="669.80" y="664.06" width="8.00" height="4.90" class="down-body"/>
<line x1="695.76" y1="666.86" x2="695.76" y2="675.35" class="down-wick"/>
<rect x="691.76" y="668.94" width="8.00" height="3.92" class="down-body"/>
<line x1="717.72" y1="656.31" x2="717.72" y2="674.02" class="up-wick"/>
<rect x="713.72" y="660.19" width="8.00" height="12.67" class="up-body"/>
<line x1="739.67" y1="651.19" x2="739.67" y2="668.14" class="up-wick"/>
<rect x="735.67" y="652.70" width="8.00" height="7.49" class="up-body"/>
<line x1="761.63" y1="644.26" x2="761.63" y2="653.39" class="up-wick"/>
<rect x="757.63" y="645.17" width="8.00" height="7.53" class="up-body"/>
<line x1="783.59" y1="640.89" x2="783.59" y2="646.55" class="up-wick"/>
<rect x="779.59" y="643.55" width="8.00" height="1.62" class="up-body"/>
<line x1="805.54" y1="638.54" x2="805.54" y2="648.31" class="down-wick"/>
<rect x="801.54" y="643.55" width="8.00" height="2.36" class="down-body"/>
<line x1="827.50" y1="641.01" x2="827.50" y2="650.41" class="up-wick"/>
<rect x="823.50" y="641.82" width="8.00" height="4.10" class="up-body"/>
<line x1="849.46" y1="641.80" x2="849.46" y2="650.12" class="down-wick"/>
<rect x="845.46" y="641.80" width="8.00" height="7.00" class="down-body"/>
<line x1="871.41" y1="640.45" x2="871.41" y2="661.70" class="up-wick"/>
<rect x="867.41" y="647.44" width="8.00" height="1.35" class="up-body"/>
<line x1="893.37" y1="633.19" x2="893.37" y2="648.35" class="up-wick"/>
<rect x="889.37" y="633.41" width="8.00" height="14.10" class="up-body"/>
<line x1="915.33" y1="630.36" x2="915.33" y2="640.97" class="down-wick"/>
<rect x="911.33" y="633.30" width="8.00" height="6.61" class="down-body"/>
<line x1="937.28" y1="633.97" x2="937.28" y2="642.85" class="up-wick"/>
<rect x="933.28" y="634.24" width="8.00" height="5.67" class="up-body"/>
<line x1="959.24" y1="630.48" x2="959.24" y2="638.97" class="down-wick"/>
<rect x="955.24" y="634.22" width="8.00" height="1.40" class="down-body"/>
<line x1="981.20" y1="631.17" x2="981.20" y2="637.47" class="up-wick"/>
<rect x="977.20" y="634.23" width="8.00" height="1.41" class="up-body"/>
<line x1="1003.15" y1="622.84" x2="1003.15" y2="635.71" class="up-wick"/>
<rect x="999.15" y="623.70" width="8.00" height="10.53" class="up-body"/>
<line x1="1025.11" y1="616.97" x2="1025.11" y2="624.58" class="up-wick"/>
<rect x="1021.11" y="619.29" width="8.00" height="4.40" class="up-body"/>
<line x1="1047.07" y1="616.01" x2="1047.07" y2="624.25" class="down-wick"/>
<rect x="1043.07" y="619.29" width="8.00" height="3.95" class="down-body"/>
<line x1="1069.02" y1="609.24" x2="1069.02" y2="624.97" class="up-wick"/>
<rect x="1065.02" y="609.75" width="8.00" height="13.49" class="up-body"/>
<text x="70" y="806" class="axis-label">2026-03-25 00:00:00+00:00 to 2026-03-25 03:45:00+00:00</text>
<text x="1080" y="806" text-anchor="end" class="axis-label">4444.69 - 4608.20</text>
<text x="70" y="832" class="panel-title">M1 execution window</text>
<rect x="70" y="846" width="1010" height="192" class="plot-bg"/>
<line x1="74.47" y1="994.51" x2="74.47" y2="999.16" class="down-wick"/>
<rect x="71.56" y="995.71" width="5.81" height="2.47" class="down-body"/>
<line x1="83.41" y1="1001.64" x2="83.41" y2="1009.81" class="down-wick"/>
<rect x="80.50" y="1001.64" width="5.81" height="3.83" class="down-body"/>
<line x1="92.35" y1="993.70" x2="92.35" y2="1006.71" class="up-wick"/>
<rect x="89.44" y="996.01" width="5.81" height="10.15" class="up-body"/>
<line x1="101.28" y1="989.39" x2="101.28" y2="1000.24" class="down-wick"/>
<rect x="98.38" y="989.42" width="5.81" height="9.83" class="down-body"/>
<line x1="110.22" y1="991.41" x2="110.22" y2="996.10" class="up-wick"/>
<rect x="107.32" y="992.25" width="5.81" height="1.00" class="up-body"/>
<line x1="119.16" y1="989.29" x2="119.16" y2="991.15" class="down-wick"/>
<rect x="116.25" y="989.73" width="5.81" height="1.00" class="down-body"/>
<line x1="128.10" y1="990.35" x2="128.10" y2="997.08" class="down-wick"/>
<rect x="125.19" y="990.43" width="5.81" height="2.09" class="down-body"/>
<line x1="137.04" y1="989.40" x2="137.04" y2="991.20" class="down-wick"/>
<rect x="134.13" y="990.82" width="5.81" height="1.00" class="down-body"/>
<line x1="145.97" y1="991.84" x2="145.97" y2="996.22" class="down-wick"/>
<rect x="143.07" y="992.42" width="5.81" height="1.27" class="down-body"/>
<line x1="154.91" y1="995.47" x2="154.91" y2="997.41" class="up-wick"/>
<rect x="152.01" y="996.84" width="5.81" height="1.00" class="up-body"/>
<line x1="163.85" y1="989.67" x2="163.85" y2="991.84" class="up-wick"/>
<rect x="160.94" y="989.98" width="5.81" height="1.18" class="up-body"/>
<line x1="172.79" y1="989.41" x2="172.79" y2="990.86" class="up-wick"/>
<rect x="169.88" y="989.67" width="5.81" height="1.00" class="up-body"/>
<line x1="181.73" y1="989.44" x2="181.73" y2="998.02" class="down-wick"/>
<rect x="178.82" y="989.67" width="5.81" height="7.30" class="down-body"/>
<line x1="190.66" y1="1002.40" x2="190.66" y2="1008.54" class="up-wick"/>
<rect x="187.76" y="1002.75" width="5.81" height="2.06" class="up-body"/>
<line x1="199.60" y1="1000.03" x2="199.60" y2="1009.47" class="down-wick"/>
<rect x="196.70" y="1000.03" width="5.81" height="7.99" class="down-body"/>
<line x1="208.54" y1="1007.03" x2="208.54" y2="1019.22" class="down-wick"/>
<rect x="205.63" y="1007.26" width="5.81" height="7.52" class="down-body"/>
<line x1="217.48" y1="1015.16" x2="217.48" y2="1024.76" class="down-wick"/>
<rect x="214.57" y="1017.23" width="5.81" height="5.74" class="down-body"/>
<line x1="226.42" y1="1013.10" x2="226.42" y2="1018.87" class="up-wick"/>
<rect x="223.51" y="1016.11" width="5.81" height="1.54" class="up-body"/>
<line x1="235.35" y1="1010.15" x2="235.35" y2="1015.76" class="up-wick"/>
<rect x="232.45" y="1010.27" width="5.81" height="5.49" class="up-body"/>
<line x1="244.29" y1="1008.70" x2="244.29" y2="1011.61" class="up-wick"/>
<rect x="241.39" y="1008.78" width="5.81" height="2.64" class="up-body"/>
<line x1="253.23" y1="1010.29" x2="253.23" y2="1014.08" class="up-wick"/>
<rect x="250.33" y="1010.37" width="5.81" height="3.65" class="up-body"/>
<line x1="262.17" y1="1010.51" x2="262.17" y2="1014.13" class="up-wick"/>
<rect x="259.26" y="1010.51" width="5.81" height="1.81" class="up-body"/>
<line x1="271.11" y1="1005.98" x2="271.11" y2="1009.58" class="down-wick"/>
<rect x="268.20" y="1008.66" width="5.81" height="1.00" class="down-body"/>
<line x1="280.04" y1="998.25" x2="280.04" y2="1007.13" class="up-wick"/>
<rect x="277.14" y="999.16" width="5.81" height="7.79" class="up-body"/>
<line x1="288.98" y1="995.89" x2="288.98" y2="1000.90" class="down-wick"/>
<rect x="286.08" y="996.21" width="5.81" height="4.33" class="down-body"/>
<line x1="297.92" y1="999.71" x2="297.92" y2="1003.61" class="down-wick"/>
<rect x="295.02" y="999.92" width="5.81" height="2.68" class="down-body"/>
<line x1="306.86" y1="1002.11" x2="306.86" y2="1005.28" class="up-wick"/>
<rect x="303.95" y="1003.37" width="5.81" height="1.91" class="up-body"/>
<line x1="315.80" y1="1003.97" x2="315.80" y2="1005.67" class="down-wick"/>
<rect x="312.89" y="1004.29" width="5.81" height="1.20" class="down-body"/>
<line x1="324.73" y1="1005.16" x2="324.73" y2="1006.54" class="down-wick"/>
<rect x="321.83" y="1005.66" width="5.81" height="1.00" class="down-body"/>
<line x1="333.67" y1="994.81" x2="333.67" y2="997.49" class="up-wick"/>
<rect x="330.77" y="995.03" width="5.81" height="1.78" class="up-body"/>
<line x1="342.61" y1="989.25" x2="342.61" y2="996.93" class="down-wick"/>
<rect x="339.71" y="989.85" width="5.81" height="5.60" class="down-body"/>
<line x1="351.55" y1="994.24" x2="351.55" y2="997.71" class="down-wick"/>
<rect x="348.64" y="994.71" width="5.81" height="2.25" class="down-body"/>
<line x1="360.49" y1="999.30" x2="360.49" y2="1004.67" class="down-wick"/>
<rect x="357.58" y="1000.35" width="5.81" height="1.51" class="down-body"/>
<line x1="369.42" y1="990.01" x2="369.42" y2="995.89" class="up-wick"/>
<rect x="366.52" y="990.01" width="5.81" height="5.04" class="up-body"/>
<line x1="378.36" y1="991.41" x2="378.36" y2="995.53" class="down-wick"/>
<rect x="375.46" y="994.77" width="5.81" height="1.00" class="down-body"/>
<line x1="387.30" y1="990.26" x2="387.30" y2="995.58" class="up-wick"/>
<rect x="384.40" y="990.82" width="5.81" height="3.97" class="up-body"/>
<line x1="396.24" y1="991.42" x2="396.24" y2="995.50" class="down-wick"/>
<rect x="393.33" y="991.68" width="5.81" height="2.34" class="down-body"/>
<line x1="405.18" y1="989.50" x2="405.18" y2="990.87" class="up-wick"/>
<rect x="402.27" y="989.57" width="5.81" height="1.00" class="up-body"/>
<line x1="414.12" y1="971.34" x2="414.12" y2="990.21" class="up-wick"/>
<rect x="411.21" y="973.06" width="5.81" height="16.15" class="up-body"/>
<line x1="423.05" y1="977.72" x2="423.05" y2="982.53" class="down-wick"/>
<rect x="420.15" y="977.73" width="5.81" height="2.79" class="down-body"/>
<line x1="431.99" y1="971.72" x2="431.99" y2="974.62" class="up-wick"/>
<rect x="429.09" y="972.28" width="5.81" height="1.00" class="up-body"/>
<line x1="440.93" y1="969.04" x2="440.93" y2="975.38" class="down-wick"/>
<rect x="438.02" y="971.45" width="5.81" height="3.24" class="down-body"/>
<line x1="449.87" y1="967.53" x2="449.87" y2="972.42" class="up-wick"/>
<rect x="446.96" y="968.04" width="5.81" height="4.33" class="up-body"/>
<line x1="458.81" y1="960.33" x2="458.81" y2="968.15" class="up-wick"/>
<rect x="455.90" y="964.57" width="5.81" height="3.58" class="up-body"/>
<line x1="467.74" y1="961.18" x2="467.74" y2="964.60" class="up-wick"/>
<rect x="464.84" y="961.56" width="5.81" height="1.64" class="up-body"/>
<line x1="476.68" y1="956.10" x2="476.68" y2="961.77" class="down-wick"/>
<rect x="473.78" y="958.62" width="5.81" height="1.81" class="down-body"/>
<line x1="485.62" y1="958.39" x2="485.62" y2="963.27" class="down-wick"/>
<rect x="482.71" y="960.36" width="5.81" height="1.00" class="down-body"/>
<line x1="494.56" y1="961.26" x2="494.56" y2="964.58" class="down-wick"/>
<rect x="491.65" y="961.26" width="5.81" height="2.14" class="down-body"/>
<line x1="503.50" y1="936.99" x2="503.50" y2="959.28" class="up-wick"/>
<rect x="500.59" y="939.50" width="5.81" height="19.64" class="up-body"/>
<line x1="512.43" y1="930.63" x2="512.43" y2="939.08" class="down-wick"/>
<rect x="509.53" y="936.26" width="5.81" height="2.52" class="down-body"/>
<line x1="521.37" y1="914.47" x2="521.37" y2="928.56" class="down-wick"/>
<rect x="518.47" y="914.80" width="5.81" height="10.06" class="down-body"/>
<line x1="530.31" y1="924.76" x2="530.31" y2="929.48" class="up-wick"/>
<rect x="527.40" y="925.86" width="5.81" height="1.84" class="up-body"/>
<line x1="539.25" y1="915.16" x2="539.25" y2="924.57" class="down-wick"/>
<rect x="536.34" y="919.14" width="5.81" height="3.22" class="down-body"/>
<line x1="548.19" y1="927.34" x2="548.19" y2="930.84" class="up-wick"/>
<rect x="545.28" y="927.79" width="5.81" height="1.00" class="up-body"/>
<line x1="557.12" y1="919.12" x2="557.12" y2="926.14" class="up-wick"/>
<rect x="554.22" y="921.45" width="5.81" height="4.58" class="up-body"/>
<line x1="566.06" y1="908.01" x2="566.06" y2="922.28" class="down-wick"/>
<rect x="563.16" y="909.82" width="5.81" height="10.25" class="down-body"/>
<line x1="575.00" y1="922.29" x2="575.00" y2="926.47" class="down-wick"/>
<rect x="572.10" y="923.96" width="5.81" height="1.00" class="down-body"/>
<line x1="583.94" y1="916.99" x2="583.94" y2="923.41" class="up-wick"/>
<rect x="581.03" y="917.40" width="5.81" height="3.56" class="up-body"/>
<line x1="592.88" y1="912.40" x2="592.88" y2="916.72" class="down-wick"/>
<rect x="589.97" y="914.02" width="5.81" height="1.38" class="down-body"/>
<line x1="601.81" y1="909.43" x2="601.81" y2="915.70" class="down-wick"/>
<rect x="598.91" y="909.72" width="5.81" height="5.97" class="down-body"/>
<line x1="610.75" y1="905.03" x2="610.75" y2="924.07" class="down-wick"/>
<rect x="607.85" y="913.74" width="5.81" height="6.08" class="down-body"/>
<line x1="619.69" y1="915.01" x2="619.69" y2="922.21" class="up-wick"/>
<rect x="616.79" y="920.36" width="5.81" height="1.00" class="up-body"/>
<line x1="628.63" y1="905.01" x2="628.63" y2="912.18" class="up-wick"/>
<rect x="625.72" y="905.58" width="5.81" height="3.77" class="up-body"/>
<line x1="637.57" y1="911.21" x2="637.57" y2="916.18" class="down-wick"/>
<rect x="634.66" y="911.74" width="5.81" height="2.31" class="down-body"/>
<line x1="646.50" y1="912.88" x2="646.50" y2="919.01" class="up-wick"/>
<rect x="643.60" y="916.12" width="5.81" height="1.00" class="up-body"/>
<line x1="655.44" y1="906.75" x2="655.44" y2="912.03" class="up-wick"/>
<rect x="652.54" y="907.15" width="5.81" height="4.05" class="up-body"/>
<line x1="664.38" y1="905.89" x2="664.38" y2="910.06" class="up-wick"/>
<rect x="661.48" y="907.65" width="5.81" height="1.05" class="up-body"/>
<line x1="673.32" y1="903.49" x2="673.32" y2="910.22" class="down-wick"/>
<rect x="670.41" y="903.73" width="5.81" height="5.61" class="down-body"/>
<line x1="682.26" y1="915.07" x2="682.26" y2="923.37" class="down-wick"/>
<rect x="679.35" y="917.42" width="5.81" height="4.21" class="down-body"/>
<line x1="691.19" y1="916.18" x2="691.19" y2="922.03" class="up-wick"/>
<rect x="688.29" y="917.73" width="5.81" height="4.22" class="up-body"/>
<line x1="700.13" y1="912.27" x2="700.13" y2="920.27" class="down-wick"/>
<rect x="697.23" y="914.43" width="5.81" height="1.00" class="down-body"/>
<line x1="709.07" y1="917.05" x2="709.07" y2="920.70" class="down-wick"/>
<rect x="706.17" y="917.81" width="5.81" height="2.45" class="down-body"/>
<line x1="718.01" y1="916.48" x2="718.01" y2="921.00" class="down-wick"/>
<rect x="715.10" y="916.81" width="5.81" height="1.71" class="down-body"/>
<line x1="726.95" y1="903.31" x2="726.95" y2="914.65" class="up-wick"/>
<rect x="724.04" y="904.21" width="5.81" height="9.87" class="up-body"/>
<line x1="735.88" y1="901.33" x2="735.88" y2="906.99" class="down-wick"/>
<rect x="732.98" y="901.37" width="5.81" height="3.94" class="down-body"/>
<line x1="744.82" y1="902.75" x2="744.82" y2="913.60" class="up-wick"/>
<rect x="741.92" y="903.59" width="5.81" height="1.73" class="up-body"/>
<line x1="753.76" y1="902.35" x2="753.76" y2="908.18" class="up-wick"/>
<rect x="750.86" y="902.96" width="5.81" height="1.10" class="up-body"/>
<line x1="762.70" y1="895.92" x2="762.70" y2="902.24" class="up-wick"/>
<rect x="759.79" y="897.50" width="5.81" height="4.19" class="up-body"/>
<line x1="771.64" y1="894.24" x2="771.64" y2="897.26" class="up-wick"/>
<rect x="768.73" y="895.57" width="5.81" height="1.15" class="up-body"/>
<line x1="780.58" y1="893.12" x2="780.58" y2="894.98" class="up-wick"/>
<rect x="777.67" y="893.25" width="5.81" height="1.11" class="up-body"/>
<line x1="789.51" y1="888.44" x2="789.51" y2="890.46" class="up-wick"/>
<rect x="786.61" y="888.45" width="5.81" height="1.20" class="up-body"/>
<line x1="798.45" y1="886.38" x2="798.45" y2="891.09" class="down-wick"/>
<rect x="795.55" y="886.38" width="5.81" height="4.04" class="down-body"/>
<line x1="807.39" y1="885.18" x2="807.39" y2="890.95" class="down-wick"/>
<rect x="804.48" y="886.84" width="5.81" height="1.13" class="down-body"/>
<line x1="816.33" y1="882.96" x2="816.33" y2="885.27" class="down-wick"/>
<rect x="813.42" y="883.20" width="5.81" height="1.00" class="down-body"/>
<line x1="825.27" y1="884.52" x2="825.27" y2="890.28" class="down-wick"/>
<rect x="822.36" y="885.00" width="5.81" height="4.44" class="down-body"/>
<line x1="834.20" y1="889.75" x2="834.20" y2="895.11" class="down-wick"/>
<rect x="831.30" y="890.43" width="5.81" height="2.86" class="down-body"/>
<line x1="843.14" y1="889.73" x2="843.14" y2="894.13" class="up-wick"/>
<rect x="840.24" y="892.21" width="5.81" height="1.33" class="up-body"/>
<line x1="852.08" y1="885.31" x2="852.08" y2="890.39" class="up-wick"/>
<rect x="849.17" y="886.15" width="5.81" height="2.45" class="up-body"/>
<line x1="861.02" y1="886.19" x2="861.02" y2="889.83" class="down-wick"/>
<rect x="858.11" y="888.93" width="5.81" height="1.00" class="down-body"/>
<line x1="869.96" y1="889.27" x2="869.96" y2="894.60" class="down-wick"/>
<rect x="867.05" y="890.00" width="5.81" height="4.08" class="down-body"/>
<line x1="878.89" y1="884.73" x2="878.89" y2="899.64" class="down-wick"/>
<rect x="875.99" y="893.42" width="5.81" height="1.00" class="down-body"/>
<line x1="887.83" y1="894.93" x2="887.83" y2="904.49" class="up-wick"/>
<rect x="884.93" y="899.30" width="5.81" height="1.00" class="up-body"/>
<line x1="896.77" y1="890.29" x2="896.77" y2="902.83" class="up-wick"/>
<rect x="893.87" y="892.02" width="5.81" height="10.37" class="up-body"/>
<line x1="905.71" y1="881.61" x2="905.71" y2="888.56" class="down-wick"/>
<rect x="902.80" y="883.01" width="5.81" height="4.14" class="down-body"/>
<line x1="914.65" y1="879.92" x2="914.65" y2="885.96" class="up-wick"/>
<rect x="911.74" y="880.35" width="5.81" height="2.93" class="up-body"/>
<line x1="923.58" y1="874.26" x2="923.58" y2="877.48" class="up-wick"/>
<rect x="920.68" y="874.45" width="5.81" height="2.83" class="up-body"/>
<line x1="932.52" y1="875.43" x2="932.52" y2="878.24" class="down-wick"/>
<rect x="929.62" y="876.27" width="5.81" height="1.19" class="down-body"/>
<line x1="941.46" y1="878.86" x2="941.46" y2="884.74" class="down-wick"/>
<rect x="938.56" y="881.83" width="5.81" height="2.34" class="down-body"/>
<line x1="950.40" y1="877.97" x2="950.40" y2="885.53" class="up-wick"/>
<rect x="947.49" y="880.08" width="5.81" height="5.09" class="up-body"/>
<line x1="959.34" y1="881.79" x2="959.34" y2="886.87" class="down-wick"/>
<rect x="956.43" y="881.79" width="5.81" height="4.76" class="down-body"/>
<line x1="968.27" y1="874.67" x2="968.27" y2="881.18" class="up-wick"/>
<rect x="965.37" y="875.46" width="5.81" height="2.77" class="up-body"/>
<line x1="977.21" y1="878.16" x2="977.21" y2="881.10" class="up-wick"/>
<rect x="974.31" y="878.70" width="5.81" height="1.00" class="up-body"/>
<line x1="986.15" y1="874.91" x2="986.15" y2="880.34" class="down-wick"/>
<rect x="983.25" y="875.27" width="5.81" height="4.42" class="down-body"/>
<line x1="995.09" y1="875.82" x2="995.09" y2="881.62" class="up-wick"/>
<rect x="992.18" y="877.62" width="5.81" height="3.02" class="up-body"/>
<line x1="1004.03" y1="875.05" x2="1004.03" y2="879.39" class="up-wick"/>
<rect x="1001.12" y="876.63" width="5.81" height="2.13" class="up-body"/>
<line x1="1012.96" y1="874.48" x2="1012.96" y2="879.79" class="up-wick"/>
<rect x="1010.06" y="874.70" width="5.81" height="3.54" class="up-body"/>
<line x1="1021.90" y1="869.65" x2="1021.90" y2="872.60" class="up-wick"/>
<rect x="1019.00" y="871.12" width="5.81" height="1.00" class="up-body"/>
<line x1="1030.84" y1="866.37" x2="1030.84" y2="868.57" class="up-wick"/>
<rect x="1027.94" y="867.26" width="5.81" height="1.00" class="up-body"/>
<line x1="1039.78" y1="863.26" x2="1039.78" y2="867.22" class="up-wick"/>
<rect x="1036.87" y="863.81" width="5.81" height="1.59" class="up-body"/>
<line x1="1048.72" y1="861.59" x2="1048.72" y2="864.09" class="up-wick"/>
<rect x="1045.81" y="861.74" width="5.81" height="1.00" class="up-body"/>
<line x1="1057.65" y1="861.58" x2="1057.65" y2="866.12" class="up-wick"/>
<rect x="1054.75" y="861.97" width="5.81" height="1.00" class="up-body"/>
<line x1="1066.59" y1="859.24" x2="1066.59" y2="863.40" class="up-wick"/>
<rect x="1063.69" y="860.36" width="5.81" height="2.89" class="up-body"/>
<line x1="1075.53" y1="861.63" x2="1075.53" y2="867.84" class="down-wick"/>
<rect x="1072.63" y="861.82" width="5.81" height="4.96" class="down-body"/>
<text x="70" y="1056" class="axis-label">2026-03-25 00:00:00+00:00 to 2026-03-25 03:44:00+00:00</text>
<text x="1080" y="1056" text-anchor="end" class="axis-label">4445.15 - 4601.98</text>
</svg>