<svg xmlns="http://www.w3.org/2000/svg" width="1120" height="1054" viewBox="0 0 1120 1054">
<style>
text{font-family:Arial,Helvetica,sans-serif}.title{font-size:21px;font-weight:700;fill:#1f2937}.subtitle{font-size:12px;fill:#4b5563}.panel-title{font-size:15px;font-weight:700;fill:#111827}.muted{font-size:13px;fill:#6b7280}.plot-bg{fill:#f8fafc;stroke:#cbd5e1;stroke-width:1}.up-body{fill:#15803d;stroke:#14532d;stroke-width:.8}.down-body{fill:#b91c1c;stroke:#7f1d1d;stroke-width:.8}.up-wick{stroke:#14532d;stroke-width:1}.down-wick{stroke:#7f1d1d;stroke-width:1}.sweep-line{stroke:#7c3aed;stroke-width:1.6;stroke-dasharray:6 4}.number-line{stroke:#0f766e;stroke-width:1.4;stroke-dasharray:3 4}.entry-line{stroke:#2563eb;stroke-width:1.4}.sl-line{stroke:#dc2626;stroke-width:1.4}.tp-line{stroke:#16a34a;stroke-width:1.4}.level-label,.axis-label{font-size:11px;fill:#374151}
</style>
<text x="28" y="28" class="title">Adelin v2 visual review sample sample_028</text>
<text x="28" y="48" class="subtitle">Candidate windows are for visual labeling only and are not trade signals.</text>
<text x="560" y="48" class="subtitle" text-anchor="middle">M15_SWING_HIGH_SWEEP_VISUAL_CANDIDATE</text>
<text x="70" y="82" class="panel-title">H1 liquidity context</text>
<rect x="70" y="96" width="1010" height="192" class="plot-bg"/>
<line x1="81.48" y1="139.47" x2="81.48" y2="194.05" class="up-wick"/>
<rect x="77.48" y="144.44" width="8.00" height="38.95" class="up-body"/>
<line x1="104.43" y1="143.72" x2="104.43" y2="183.02" class="down-wick"/>
<rect x="100.43" y="144.26" width="8.00" height="30.62" class="down-body"/>
<line x1="127.39" y1="163.94" x2="127.39" y2="188.82" class="up-wick"/>
<rect x="123.39" y="168.85" width="8.00" height="6.02" class="up-body"/>
<line x1="150.34" y1="142.16" x2="150.34" y2="170.47" class="up-wick"/>
<rect x="146.34" y="148.64" width="8.00" height="20.26" class="up-body"/>
<line x1="173.30" y1="143.98" x2="173.30" y2="158.25" class="down-wick"/>
<rect x="169.30" y="148.53" width="8.00" height="1.00" class="down-body"/>
<line x1="196.25" y1="147.80" x2="196.25" y2="168.08" class="down-wick"/>
<rect x="192.25" y="149.01" width="8.00" height="17.87" class="down-body"/>
<line x1="219.20" y1="154.89" x2="219.20" y2="222.88" class="up-wick"/>
<rect x="215.20" y="166.45" width="8.00" height="9.77" class="up-body"/>
<line x1="242.16" y1="163.92" x2="242.16" y2="185.49" class="down-wick"/>
<rect x="238.16" y="166.45" width="8.00" height="12.03" class="down-body"/>
<line x1="265.11" y1="171.28" x2="265.11" y2="254.00" class="down-wick"/>
<rect x="261.11" y="178.45" width="8.00" height="28.12" class="down-body"/>
<line x1="288.07" y1="180.29" x2="288.07" y2="241.67" class="up-wick"/>
<rect x="284.07" y="193.99" width="8.00" height="13.26" class="up-body"/>
<line x1="311.02" y1="170.86" x2="311.02" y2="198.66" class="up-wick"/>
<rect x="307.02" y="183.02" width="8.00" height="10.98" class="up-body"/>
<line x1="333.98" y1="164.12" x2="333.98" y2="194.33" class="up-wick"/>
<rect x="329.98" y="173.08" width="8.00" height="9.94" class="up-body"/>
<line x1="356.93" y1="161.61" x2="356.93" y2="187.95" class="down-wick"/>
<rect x="352.93" y="173.09" width="8.00" height="1.00" class="down-body"/>
<line x1="379.89" y1="158.63" x2="379.89" y2="188.08" class="down-wick"/>
<rect x="375.89" y="173.74" width="8.00" height="12.97" class="down-body"/>
<line x1="402.84" y1="163.83" x2="402.84" y2="188.39" class="up-wick"/>
<rect x="398.84" y="165.61" width="8.00" height="21.10" class="up-body"/>
<line x1="425.80" y1="148.20" x2="425.80" y2="176.97" class="down-wick"/>
<rect x="421.80" y="165.61" width="8.00" height="1.00" class="down-body"/>
<line x1="448.75" y1="152.10" x2="448.75" y2="171.10" class="up-wick"/>
<rect x="444.75" y="161.38" width="8.00" height="4.96" class="up-body"/>
<line x1="471.70" y1="158.75" x2="471.70" y2="174.55" class="down-wick"/>
<rect x="467.70" y="161.38" width="8.00" height="9.34" class="down-body"/>
<line x1="494.66" y1="164.31" x2="494.66" y2="185.38" class="down-wick"/>
<rect x="490.66" y="170.73" width="8.00" height="3.61" class="down-body"/>
<line x1="517.61" y1="138.53" x2="517.61" y2="188.16" class="up-wick"/>
<rect x="513.61" y="160.53" width="8.00" height="13.81" class="up-body"/>
<line x1="540.57" y1="128.23" x2="540.57" y2="167.63" class="up-wick"/>
<rect x="536.57" y="133.19" width="8.00" height="27.36" class="up-body"/>
<line x1="563.52" y1="115.85" x2="563.52" y2="145.64" class="up-wick"/>
<rect x="559.52" y="126.95" width="8.00" height="6.25" class="up-body"/>
<line x1="586.48" y1="126.95" x2="586.48" y2="177.53" class="down-wick"/>
<rect x="582.48" y="126.95" width="8.00" height="39.08" class="down-body"/>
<line x1="609.43" y1="164.09" x2="609.43" y2="185.46" class="down-wick"/>
<rect x="605.43" y="166.05" width="8.00" height="3.85" class="down-body"/>
<line x1="632.39" y1="155.48" x2="632.39" y2="182.70" class="up-wick"/>
<rect x="628.39" y="161.11" width="8.00" height="8.80" class="up-body"/>
<line x1="655.34" y1="150.33" x2="655.34" y2="167.27" class="down-wick"/>
<rect x="651.34" y="161.11" width="8.00" height="4.27" class="down-body"/>
<line x1="678.30" y1="164.29" x2="678.30" y2="182.54" class="down-wick"/>
<rect x="674.30" y="165.37" width="8.00" height="14.71" class="down-body"/>
<line x1="701.25" y1="141.40" x2="701.25" y2="180.84" class="up-wick"/>
<rect x="697.25" y="150.18" width="8.00" height="29.90" class="up-body"/>
<line x1="724.20" y1="123.75" x2="724.20" y2="140.26" class="up-wick"/>
<rect x="720.20" y="129.64" width="8.00" height="9.95" class="up-body"/>
<line x1="747.16" y1="109.56" x2="747.16" y2="129.89" class="up-wick"/>
<rect x="743.16" y="119.14" width="8.00" height="10.52" class="up-body"/>
<line x1="770.11" y1="109.24" x2="770.11" y2="146.37" class="down-wick"/>
<rect x="766.11" y="119.14" width="8.00" height="24.42" class="down-body"/>
<line x1="793.07" y1="131.51" x2="793.07" y2="155.88" class="up-wick"/>
<rect x="789.07" y="143.01" width="8.00" height="1.00" class="up-body"/>
<line x1="816.02" y1="143.01" x2="816.02" y2="166.71" class="down-wick"/>
<rect x="812.02" y="143.01" width="8.00" height="22.11" class="down-body"/>
<line x1="838.98" y1="154.58" x2="838.98" y2="169.90" class="down-wick"/>
<rect x="834.98" y="165.12" width="8.00" height="2.79" class="down-body"/>
<line x1="861.93" y1="167.10" x2="861.93" y2="177.26" class="down-wick"/>
<rect x="857.93" y="167.91" width="8.00" height="3.53" class="down-body"/>
<line x1="884.89" y1="165.89" x2="884.89" y2="186.78" class="down-wick"/>
<rect x="880.89" y="171.42" width="8.00" height="2.05" class="down-body"/>
<line x1="907.84" y1="156.16" x2="907.84" y2="183.36" class="up-wick"/>
<rect x="903.84" y="163.82" width="8.00" height="9.65" class="up-body"/>
<line x1="930.80" y1="149.05" x2="930.80" y2="172.80" class="up-wick"/>
<rect x="926.80" y="151.79" width="8.00" height="12.03" class="up-body"/>
<line x1="953.75" y1="149.23" x2="953.75" y2="179.46" class="down-wick"/>
<rect x="949.75" y="151.79" width="8.00" height="19.17" class="down-body"/>
<line x1="976.70" y1="165.62" x2="976.70" y2="179.84" class="down-wick"/>
<rect x="972.70" y="170.98" width="8.00" height="1.24" class="down-body"/>
<line x1="999.66" y1="168.43" x2="999.66" y2="193.98" class="up-wick"/>
<rect x="995.66" y="168.43" width="8.00" height="3.79" class="up-body"/>
<line x1="1022.61" y1="164.04" x2="1022.61" y2="188.16" class="down-wick"/>
<rect x="1018.61" y="168.43" width="8.00" height="18.58" class="down-body"/>
<line x1="1045.57" y1="165.16" x2="1045.57" y2="191.42" class="up-wick"/>
<rect x="1041.57" y="178.50" width="8.00" height="8.50" class="up-body"/>
<line x1="1068.52" y1="178.09" x2="1068.52" y2="274.76" class="down-wick"/>
<rect x="1064.52" y="178.50" width="8.00" height="44.26" class="down-body"/>
<line x1="70" y1="121.59" x2="1080" y2="121.59" class="sweep-line"/>
<text x="1076" y="117.59" text-anchor="end" class="level-label">sweep 4579.95</text>
<text x="70" y="306" class="axis-label">2026-05-15 17:00:00+00:00 to 2026-05-19 16:00:00+00:00</text>
<text x="1080" y="306" text-anchor="end" class="axis-label">4454.72 - 4599.20</text>
<text x="70" y="332" class="panel-title">M15 liquidity / reaction context</text>
<rect x="70" y="346" width="1010" height="192" class="plot-bg"/>
<line x1="76.92" y1="468.79" x2="76.92" y2="524.76" class="up-wick"/>
<rect x="72.92" y="492.08" width="8.00" height="29.16" class="up-body"/>
<line x1="90.75" y1="462.44" x2="90.75" y2="500.00" class="up-wick"/>
<rect x="86.75" y="466.73" width="8.00" height="25.34" class="up-body"/>
<line x1="104.59" y1="457.65" x2="104.59" y2="477.51" class="down-wick"/>
<rect x="100.59" y="466.73" width="8.00" height="7.11" class="down-body"/>
<line x1="118.42" y1="456.57" x2="118.42" y2="482.95" class="up-wick"/>
<rect x="114.42" y="467.73" width="8.00" height="6.12" class="up-body"/>
<line x1="132.26" y1="452.75" x2="132.26" y2="480.83" class="down-wick"/>
<rect x="128.26" y="467.73" width="8.00" height="5.69" class="down-body"/>
<line x1="146.10" y1="468.70" x2="146.10" y2="489.21" class="down-wick"/>
<rect x="142.10" y="473.42" width="8.00" height="9.19" class="down-body"/>
<line x1="159.93" y1="462.78" x2="159.93" y2="485.62" class="up-wick"/>
<rect x="155.93" y="468.31" width="8.00" height="14.30" class="up-body"/>
<line x1="173.77" y1="441.30" x2="173.77" y2="492.64" class="up-wick"/>
<rect x="169.77" y="446.27" width="8.00" height="22.04" class="up-body"/>
<line x1="187.60" y1="441.55" x2="187.60" y2="460.66" class="down-wick"/>
<rect x="183.60" y="446.27" width="8.00" height="10.25" class="down-body"/>
<line x1="201.44" y1="437.03" x2="201.44" y2="457.02" class="up-wick"/>
<rect x="197.44" y="449.34" width="8.00" height="7.21" class="up-body"/>
<line x1="215.27" y1="443.13" x2="215.27" y2="481.80" class="down-wick"/>
<rect x="211.27" y="449.34" width="8.00" height="26.38" class="down-body"/>
<line x1="229.11" y1="449.57" x2="229.11" y2="476.85" class="up-wick"/>
<rect x="225.11" y="455.35" width="8.00" height="20.51" class="up-body"/>
<line x1="242.95" y1="446.40" x2="242.95" y2="470.14" class="down-wick"/>
<rect x="238.95" y="455.35" width="8.00" height="2.35" class="down-body"/>
<line x1="256.78" y1="452.75" x2="256.78" y2="475.14" class="down-wick"/>
<rect x="252.78" y="457.65" width="8.00" height="5.53" class="down-body"/>
<line x1="270.62" y1="435.11" x2="270.62" y2="470.73" class="up-wick"/>
<rect x="266.62" y="439.38" width="8.00" height="23.81" class="up-body"/>
<line x1="284.45" y1="431.97" x2="284.45" y2="462.76" class="down-wick"/>
<rect x="280.45" y="439.38" width="8.00" height="20.76" class="down-body"/>
<line x1="298.29" y1="452.30" x2="298.29" y2="482.02" class="down-wick"/>
<rect x="294.29" y="460.14" width="8.00" height="19.56" class="down-body"/>
<line x1="312.12" y1="458.10" x2="312.12" y2="482.54" class="up-wick"/>
<rect x="308.12" y="465.02" width="8.00" height="14.68" class="up-body"/>
<line x1="325.96" y1="440.80" x2="325.96" y2="471.72" class="up-wick"/>
<rect x="321.96" y="464.72" width="8.00" height="1.00" class="up-body"/>
<line x1="339.79" y1="443.15" x2="339.79" y2="471.50" class="up-wick"/>
<rect x="335.79" y="457.61" width="8.00" height="7.09" class="up-body"/>
<line x1="353.63" y1="441.75" x2="353.63" y2="462.53" class="up-wick"/>
<rect x="349.63" y="443.83" width="8.00" height="13.78" class="up-body"/>
<line x1="367.47" y1="437.89" x2="367.47" y2="454.65" class="down-wick"/>
<rect x="363.47" y="443.83" width="8.00" height="7.21" class="down-body"/>
<line x1="381.30" y1="433.42" x2="381.30" y2="463.14" class="up-wick"/>
<rect x="377.30" y="435.34" width="8.00" height="15.70" class="up-body"/>
<line x1="395.14" y1="414.24" x2="395.14" y2="441.50" class="down-wick"/>
<rect x="391.14" y="435.34" width="8.00" height="3.48" class="down-body"/>
<line x1="408.97" y1="432.58" x2="408.97" y2="459.10" class="down-wick"/>
<rect x="404.97" y="438.82" width="8.00" height="6.26" class="down-body"/>
<line x1="422.81" y1="439.20" x2="422.81" y2="453.16" class="up-wick"/>
<rect x="418.81" y="444.42" width="8.00" height="1.00" class="up-body"/>
<line x1="436.64" y1="433.26" x2="436.64" y2="452.91" class="up-wick"/>
<rect x="432.64" y="441.19" width="8.00" height="3.23" class="up-body"/>
<line x1="450.48" y1="429.60" x2="450.48" y2="445.28" class="up-wick"/>
<rect x="446.48" y="441.07" width="8.00" height="1.00" class="up-body"/>
<line x1="464.32" y1="420.86" x2="464.32" y2="441.10" class="up-wick"/>
<rect x="460.32" y="436.65" width="8.00" height="4.45" class="up-body"/>
<line x1="478.15" y1="432.17" x2="478.15" y2="456.32" class="down-wick"/>
<rect x="474.15" y="436.65" width="8.00" height="8.36" class="down-body"/>
<line x1="491.99" y1="439.04" x2="491.99" y2="448.96" class="down-wick"/>
<rect x="487.99" y="444.98" width="8.00" height="2.94" class="down-body"/>
<line x1="505.82" y1="444.64" x2="505.82" y2="457.65" class="down-wick"/>
<rect x="501.82" y="448.28" width="8.00" height="4.29" class="down-body"/>
<line x1="519.66" y1="448.69" x2="519.66" y2="459.03" class="down-wick"/>
<rect x="515.66" y="452.50" width="8.00" height="1.00" class="down-body"/>
<line x1="533.49" y1="447.87" x2="533.49" y2="468.95" class="down-wick"/>
<rect x="529.49" y="452.53" width="8.00" height="8.47" class="down-body"/>
<line x1="547.33" y1="453.77" x2="547.33" y2="463.53" class="up-wick"/>
<rect x="543.33" y="459.98" width="8.00" height="1.02" class="up-body"/>
<line x1="561.16" y1="449.97" x2="561.16" y2="477.44" class="up-wick"/>
<rect x="557.16" y="450.54" width="8.00" height="9.44" class="up-body"/>
<line x1="575.00" y1="441.62" x2="575.00" y2="466.55" class="down-wick"/>
<rect x="571.00" y="450.54" width="8.00" height="8.13" class="down-body"/>
<line x1="588.84" y1="455.21" x2="588.84" y2="482.16" class="down-wick"/>
<rect x="584.84" y="458.67" width="8.00" height="1.69" class="down-body"/>
<line x1="602.67" y1="458.71" x2="602.67" y2="477.48" class="down-wick"/>
<rect x="598.67" y="460.36" width="8.00" height="7.27" class="down-body"/>
<line x1="616.51" y1="397.80" x2="616.51" y2="469.47" class="up-wick"/>
<rect x="612.51" y="409.25" width="8.00" height="58.50" class="up-body"/>
<line x1="630.34" y1="404.01" x2="630.34" y2="437.73" class="down-wick"/>
<rect x="626.34" y="409.29" width="8.00" height="25.91" class="down-body"/>
<line x1="644.18" y1="421.92" x2="644.18" y2="442.16" class="up-wick"/>
<rect x="640.18" y="428.88" width="8.00" height="6.35" class="up-body"/>
<line x1="658.01" y1="424.92" x2="658.01" y2="447.26" class="down-wick"/>
<rect x="654.01" y="428.88" width="8.00" height="6.35" class="down-body"/>
<line x1="671.85" y1="391.43" x2="671.85" y2="436.08" class="up-wick"/>
<rect x="667.85" y="391.79" width="8.00" height="43.43" class="up-body"/>
<line x1="685.68" y1="380.29" x2="685.68" y2="408.30" class="up-wick"/>
<rect x="681.68" y="388.72" width="8.00" height="3.07" class="up-body"/>
<line x1="699.52" y1="375.91" x2="699.52" y2="409.88" class="down-wick"/>
<rect x="695.52" y="388.74" width="8.00" height="8.02" class="down-body"/>
<line x1="713.36" y1="377.20" x2="713.36" y2="405.14" class="up-wick"/>
<rect x="709.36" y="386.93" width="8.00" height="9.83" class="up-body"/>
<line x1="727.19" y1="369.00" x2="727.19" y2="403.31" class="down-wick"/>
<rect x="723.19" y="386.93" width="8.00" height="12.81" class="down-body"/>
<line x1="741.03" y1="359.24" x2="741.03" y2="405.63" class="up-wick"/>
<rect x="737.03" y="378.12" width="8.00" height="21.62" class="up-body"/>
<line x1="754.86" y1="378.12" x2="754.86" y2="414.85" class="down-wick"/>
<rect x="750.86" y="378.12" width="8.00" height="26.38" class="down-body"/>
<line x1="768.70" y1="394.07" x2="768.70" y2="425.49" class="down-wick"/>
<rect x="764.70" y="404.51" width="8.00" height="6.05" class="down-body"/>
<line x1="782.53" y1="407.28" x2="782.53" y2="462.58" class="down-wick"/>
<rect x="778.53" y="410.56" width="8.00" height="31.33" class="down-body"/>
<line x1="796.37" y1="439.94" x2="796.37" y2="464.09" class="down-wick"/>
<rect x="792.37" y="441.89" width="8.00" height="2.67" class="down-body"/>
<line x1="810.21" y1="441.25" x2="810.21" y2="477.57" class="down-wick"/>
<rect x="806.21" y="444.57" width="8.00" height="13.33" class="down-body"/>
<line x1="824.04" y1="453.05" x2="824.04" y2="471.72" class="down-wick"/>
<rect x="820.04" y="457.90" width="8.00" height="13.30" class="down-body"/>
<line x1="837.88" y1="449.41" x2="837.88" y2="472.63" class="up-wick"/>
<rect x="833.88" y="462.55" width="8.00" height="8.65" class="up-body"/>
<line x1="851.71" y1="443.58" x2="851.71" y2="463.73" class="up-wick"/>
<rect x="847.71" y="451.13" width="8.00" height="11.43" class="up-body"/>
<line x1="865.55" y1="438.95" x2="865.55" y2="458.87" class="up-wick"/>
<rect x="861.55" y="439.72" width="8.00" height="11.41" class="up-body"/>
<line x1="879.38" y1="435.02" x2="879.38" y2="472.88" class="down-wick"/>
<rect x="875.38" y="439.72" width="8.00" height="26.07" class="down-body"/>
<line x1="893.22" y1="447.90" x2="893.22" y2="472.33" class="up-wick"/>
<rect x="889.22" y="451.60" width="8.00" height="14.18" class="up-body"/>
<line x1="907.05" y1="426.62" x2="907.05" y2="452.68" class="up-wick"/>
<rect x="903.05" y="436.17" width="8.00" height="15.29" class="up-body"/>
<line x1="920.89" y1="417.85" x2="920.89" y2="441.14" class="up-wick"/>
<rect x="916.89" y="429.28" width="8.00" height="6.89" class="up-body"/>
<line x1="934.73" y1="424.18" x2="934.73" y2="432.58" class="up-wick"/>
<rect x="930.73" y="427.77" width="8.00" height="1.51" class="up-body"/>
<line x1="948.56" y1="427.14" x2="948.56" y2="442.77" class="down-wick"/>
<rect x="944.56" y="427.88" width="8.00" height="12.63" class="down-body"/>
<line x1="962.40" y1="437.35" x2="962.40" y2="446.65" class="down-wick"/>
<rect x="958.40" y="440.51" width="8.00" height="2.91" class="down-body"/>
<line x1="976.23" y1="441.59" x2="976.23" y2="450.79" class="down-wick"/>
<rect x="972.23" y="443.42" width="8.00" height="4.02" class="down-body"/>
<line x1="990.07" y1="447.04" x2="990.07" y2="466.78" class="down-wick"/>
<rect x="986.07" y="447.44" width="8.00" height="7.30" class="down-body"/>
<line x1="1003.90" y1="450.09" x2="1003.90" y2="461.38" class="down-wick"/>
<rect x="999.90" y="454.78" width="8.00" height="1.04" class="down-body"/>
<line x1="1017.74" y1="451.80" x2="1017.74" y2="472.61" class="down-wick"/>
<rect x="1013.74" y="455.82" width="8.00" height="12.60" class="down-body"/>
<line x1="1031.58" y1="402.68" x2="1031.58" y2="469.71" class="up-wick"/>
<rect x="1027.58" y="426.62" width="8.00" height="41.81" class="up-body"/>
<line x1="1045.41" y1="423.64" x2="1045.41" y2="444.60" class="down-wick"/>
<rect x="1041.41" y="426.62" width="8.00" height="6.41" class="down-body"/>
<line x1="1059.25" y1="411.12" x2="1059.25" y2="436.24" class="up-wick"/>
<rect x="1055.25" y="418.22" width="8.00" height="14.82" class="up-body"/>
<line x1="1073.08" y1="407.28" x2="1073.08" y2="420.02" class="up-wick"/>
<rect x="1069.08" y="417.61" width="8.00" height="1.00" class="up-body"/>
<line x1="70" y1="369.00" x2="1080" y2="369.00" class="sweep-line"/>
<text x="1076" y="365.00" text-anchor="end" class="level-label">sweep 4579.95</text>
<text x="70" y="556" class="axis-label">2026-05-18 04:45:00+00:00 to 2026-05-18 22:45:00+00:00</text>
<text x="1080" y="556" text-anchor="end" class="axis-label">4505.13 - 4590.13</text>
<text x="70" y="582" class="panel-title">M5 reaction / execution context</text>
<rect x="70" y="596" width="1010" height="192" class="plot-bg"/>
<line x1="79.18" y1="701.11" x2="79.18" y2="726.42" class="down-wick"/>
<rect x="75.18" y="706.64" width="8.00" height="18.89" class="down-body"/>
<line x1="97.55" y1="705.63" x2="97.55" y2="732.36" class="up-wick"/>
<rect x="93.55" y="712.84" width="8.00" height="12.76" class="up-body"/>
<line x1="115.91" y1="702.00" x2="115.91" y2="718.08" class="down-wick"/>
<rect x="111.91" y="712.84" width="8.00" height="2.69" class="down-body"/>
<line x1="134.27" y1="677.39" x2="134.27" y2="716.72" class="up-wick"/>
<rect x="130.27" y="679.25" width="8.00" height="36.27" class="up-body"/>
<line x1="152.64" y1="676.03" x2="152.64" y2="691.23" class="down-wick"/>
<rect x="148.64" y="679.44" width="8.00" height="1.48" class="down-body"/>
<line x1="171.00" y1="654.26" x2="171.00" y2="690.63" class="up-wick"/>
<rect x="167.00" y="654.77" width="8.00" height="26.16" class="up-body"/>
<line x1="189.36" y1="638.69" x2="189.36" y2="660.07" class="up-wick"/>
<rect x="185.36" y="646.81" width="8.00" height="7.96" class="up-body"/>
<line x1="207.73" y1="641.37" x2="207.73" y2="677.70" class="down-wick"/>
<rect x="203.73" y="646.81" width="8.00" height="29.41" class="down-body"/>
<line x1="226.09" y1="646.68" x2="226.09" y2="677.86" class="up-wick"/>
<rect x="222.09" y="650.47" width="8.00" height="25.27" class="up-body"/>
<line x1="244.45" y1="632.56" x2="244.45" y2="671.80" class="down-wick"/>
<rect x="240.45" y="650.50" width="8.00" height="18.96" class="down-body"/>
<line x1="262.82" y1="659.10" x2="262.82" y2="677.14" class="down-wick"/>
<rect x="258.82" y="669.46" width="8.00" height="3.92" class="down-body"/>
<line x1="281.18" y1="656.06" x2="281.18" y2="680.07" class="up-wick"/>
<rect x="277.18" y="661.72" width="8.00" height="12.42" class="up-body"/>
<line x1="299.55" y1="659.03" x2="299.55" y2="673.44" class="down-wick"/>
<rect x="295.55" y="661.72" width="8.00" height="5.09" class="down-body"/>
<line x1="317.91" y1="644.69" x2="317.91" y2="668.70" class="up-wick"/>
<rect x="313.91" y="645.23" width="8.00" height="21.58" class="up-body"/>
<line x1="336.27" y1="634.36" x2="336.27" y2="650.85" class="down-wick"/>
<rect x="332.27" y="645.23" width="8.00" height="2.75" class="down-body"/>
<line x1="354.64" y1="622.89" x2="354.64" y2="663.27" class="up-wick"/>
<rect x="350.64" y="627.03" width="8.00" height="20.95" class="up-body"/>
<line x1="373.00" y1="626.68" x2="373.00" y2="651.70" class="down-wick"/>
<rect x="369.00" y="626.84" width="8.00" height="15.95" class="down-body"/>
<line x1="391.36" y1="636.70" x2="391.36" y2="670.88" class="down-wick"/>
<rect x="387.36" y="642.79" width="8.00" height="23.09" class="down-body"/>
<line x1="409.73" y1="634.99" x2="409.73" y2="674.13" class="up-wick"/>
<rect x="405.73" y="640.96" width="8.00" height="24.93" class="up-body"/>
<line x1="428.09" y1="609.68" x2="428.09" y2="644.25" class="up-wick"/>
<rect x="424.09" y="612.34" width="8.00" height="28.62" class="up-body"/>
<line x1="446.45" y1="609.24" x2="446.45" y2="638.40" class="down-wick"/>
<rect x="442.45" y="612.34" width="8.00" height="23.32" class="down-body"/>
<line x1="464.82" y1="635.65" x2="464.82" y2="671.95" class="down-wick"/>
<rect x="460.82" y="635.65" width="8.00" height="33.43" class="down-body"/>
<line x1="483.18" y1="662.57" x2="483.18" y2="687.02" class="up-wick"/>
<rect x="479.18" y="663.93" width="8.00" height="5.15" class="up-body"/>
<line x1="501.55" y1="654.58" x2="501.55" y2="679.79" class="down-wick"/>
<rect x="497.55" y="663.93" width="8.00" height="8.62" class="down-body"/>
<line x1="519.91" y1="657.96" x2="519.91" y2="678.94" class="up-wick"/>
<rect x="515.91" y="666.61" width="8.00" height="5.94" class="up-body"/>
<line x1="538.27" y1="663.33" x2="538.27" y2="701.90" class="down-wick"/>
<rect x="534.27" y="666.61" width="8.00" height="21.64" class="down-body"/>
<line x1="556.64" y1="675.65" x2="556.64" y2="692.81" class="up-wick"/>
<rect x="552.64" y="681.02" width="8.00" height="7.23" class="up-body"/>
<line x1="575.00" y1="676.44" x2="575.00" y2="733.56" class="down-wick"/>
<rect x="571.00" y="681.02" width="8.00" height="38.23" class="down-body"/>
<line x1="593.36" y1="714.60" x2="593.36" y2="739.53" class="down-wick"/>
<rect x="589.36" y="719.25" width="8.00" height="9.54" class="down-body"/>
<line x1="611.73" y1="719.79" x2="611.73" y2="753.78" class="up-wick"/>
<rect x="607.73" y="724.84" width="8.00" height="3.95" class="up-body"/>
<line x1="630.09" y1="723.39" x2="630.09" y2="755.90" class="down-wick"/>
<rect x="626.09" y="724.84" width="8.00" height="14.25" class="down-body"/>
<line x1="648.45" y1="722.12" x2="648.45" y2="745.03" class="down-wick"/>
<rect x="644.45" y="739.09" width="8.00" height="4.11" class="down-body"/>
<line x1="666.82" y1="725.98" x2="666.82" y2="745.03" class="up-wick"/>
<rect x="662.82" y="728.57" width="8.00" height="14.63" class="up-body"/>
<line x1="685.18" y1="723.96" x2="685.18" y2="774.76" class="down-wick"/>
<rect x="681.18" y="728.60" width="8.00" height="27.80" class="down-body"/>
<line x1="703.55" y1="734.92" x2="703.55" y2="768.50" class="down-wick"/>
<rect x="699.55" y="756.97" width="8.00" height="2.65" class="down-body"/>
<line x1="721.91" y1="740.70" x2="721.91" y2="760.45" class="up-wick"/>
<rect x="717.91" y="747.24" width="8.00" height="12.38" class="up-body"/>
<line x1="740.27" y1="740.45" x2="740.27" y2="766.58" class="down-wick"/>
<rect x="736.27" y="747.24" width="8.00" height="12.01" class="down-body"/>
<line x1="758.64" y1="747.59" x2="758.64" y2="761.77" class="up-wick"/>
<rect x="754.64" y="752.33" width="8.00" height="6.92" class="up-body"/>
<line x1="777.00" y1="748.16" x2="777.00" y2="766.04" class="down-wick"/>
<rect x="773.00" y="752.33" width="8.00" height="13.52" class="down-body"/>
<line x1="795.36" y1="744.97" x2="795.36" y2="767.84" class="up-wick"/>
<rect x="791.36" y="746.39" width="8.00" height="19.46" class="up-body"/>
<line x1="813.73" y1="742.09" x2="813.73" y2="754.98" class="up-wick"/>
<rect x="809.73" y="743.20" width="8.00" height="3.19" class="up-body"/>
<line x1="832.09" y1="735.36" x2="832.09" y2="753.84" class="down-wick"/>
<rect x="828.09" y="743.20" width="8.00" height="10.55" class="down-body"/>
<line x1="850.45" y1="737.73" x2="850.45" y2="755.39" class="up-wick"/>
<rect x="846.45" y="745.22" width="8.00" height="8.53" class="up-body"/>
<line x1="868.82" y1="734.60" x2="868.82" y2="750.31" class="up-wick"/>
<rect x="864.82" y="735.33" width="8.00" height="9.89" class="up-body"/>
<line x1="887.18" y1="727.21" x2="887.18" y2="741.96" class="down-wick"/>
<rect x="883.18" y="735.33" width="8.00" height="2.43" class="down-body"/>
<line x1="905.55" y1="734.67" x2="905.55" y2="748.60" class="down-wick"/>
<rect x="901.55" y="737.76" width="8.00" height="6.41" class="down-body"/>
<line x1="923.91" y1="734.73" x2="923.91" y2="745.41" class="up-wick"/>
<rect x="919.91" y="737.83" width="8.00" height="6.13" class="up-body"/>
<line x1="942.27" y1="720.73" x2="942.27" y2="740.45" class="up-wick"/>
<rect x="938.27" y="721.81" width="8.00" height="16.02" class="up-body"/>
<line x1="960.64" y1="716.47" x2="960.64" y2="728.00" class="down-wick"/>
<rect x="956.64" y="721.81" width="8.00" height="4.77" class="down-body"/>
<line x1="979.00" y1="715.24" x2="979.00" y2="734.95" class="down-wick"/>
<rect x="975.00" y="726.58" width="8.00" height="4.39" class="down-body"/>
<line x1="997.36" y1="727.21" x2="997.36" y2="768.19" class="down-wick"/>
<rect x="993.36" y="730.97" width="8.00" height="27.30" class="down-body"/>
<line x1="1015.73" y1="742.88" x2="1015.73" y2="767.43" class="up-wick"/>
<rect x="1011.73" y="749.80" width="8.00" height="8.47" class="up-body"/>
<line x1="1034.09" y1="733.88" x2="1034.09" y2="750.94" class="up-wick"/>
<rect x="1030.09" y="735.93" width="8.00" height="13.90" class="up-body"/>
<line x1="1052.45" y1="733.25" x2="1052.45" y2="743.13" class="down-wick"/>
<rect x="1048.45" y="735.93" width="8.00" height="2.50" class="down-body"/>
<line x1="1070.82" y1="721.37" x2="1070.82" y2="739.94" class="up-wick"/>
<rect x="1066.82" y="722.91" width="8.00" height="15.32" class="up-body"/>
<line x1="70" y1="622.89" x2="1080" y2="622.89" class="sweep-line"/>
<text x="1076" y="618.89" text-anchor="end" class="level-label">sweep 4579.95</text>
<text x="70" y="806" class="axis-label">2026-05-18 15:15:00+00:00 to 2026-05-18 19:45:00+00:00</text>
<text x="1080" y="806" text-anchor="end" class="axis-label">4527.69 - 4588.46</text>
<text x="70" y="832" class="panel-title">M1 execution window</text>
<rect x="70" y="846" width="1010" height="192" class="plot-bg"/>
<line x1="73.71" y1="958.13" x2="73.71" y2="964.07" class="down-wick"/>
<rect x="71.30" y="958.87" width="4.83" height="4.98" class="down-body"/>
<line x1="81.14" y1="968.27" x2="81.14" y2="974.19" class="up-wick"/>
<rect x="78.73" y="971.12" width="4.83" height="1.84" class="up-body"/>
<line x1="88.57" y1="973.28" x2="88.57" y2="979.10" class="down-wick"/>
<rect x="86.15" y="977.22" width="4.83" height="1.00" class="down-body"/>
<line x1="95.99" y1="966.95" x2="95.99" y2="976.16" class="up-wick"/>
<rect x="93.58" y="968.69" width="4.83" height="7.46" class="up-body"/>
<line x1="103.42" y1="958.77" x2="103.42" y2="970.50" class="up-wick"/>
<rect x="101.01" y="961.45" width="4.83" height="5.20" class="up-body"/>
<line x1="110.85" y1="959.45" x2="110.85" y2="966.30" class="up-wick"/>
<rect x="108.43" y="959.84" width="4.83" height="5.36" class="up-body"/>
<line x1="118.27" y1="954.41" x2="118.27" y2="960.03" class="down-wick"/>
<rect x="115.86" y="954.80" width="4.83" height="3.55" class="down-body"/>
<line x1="125.70" y1="960.55" x2="125.70" y2="970.57" class="down-wick"/>
<rect x="123.28" y="960.55" width="4.83" height="7.40" class="down-body"/>
<line x1="133.12" y1="954.18" x2="133.12" y2="964.49" class="up-wick"/>
<rect x="130.71" y="954.93" width="4.83" height="6.08" class="up-body"/>
<line x1="140.55" y1="951.37" x2="140.55" y2="957.12" class="up-wick"/>
<rect x="138.14" y="953.83" width="4.83" height="1.00" class="up-body"/>
<line x1="147.98" y1="929.95" x2="147.98" y2="943.10" class="down-wick"/>
<rect x="145.56" y="931.05" width="4.83" height="5.62" class="down-body"/>
<line x1="155.40" y1="928.52" x2="155.40" y2="942.13" class="down-wick"/>
<rect x="152.99" y="930.50" width="4.83" height="11.28" class="down-body"/>
<line x1="162.83" y1="930.59" x2="162.83" y2="941.35" class="up-wick"/>
<rect x="160.42" y="932.56" width="4.83" height="8.40" class="up-body"/>
<line x1="170.26" y1="923.39" x2="170.26" y2="942.13" class="up-wick"/>
<rect x="167.84" y="924.42" width="4.83" height="15.87" class="up-body"/>
<line x1="177.68" y1="907.33" x2="177.68" y2="919.57" class="up-wick"/>
<rect x="175.27" y="908.68" width="4.83" height="10.28" class="up-body"/>
<line x1="185.11" y1="897.92" x2="185.11" y2="911.24" class="up-wick"/>
<rect x="182.70" y="898.12" width="4.83" height="7.69" class="up-body"/>
<line x1="192.54" y1="898.57" x2="192.54" y2="910.07" class="down-wick"/>
<rect x="190.12" y="903.84" width="4.83" height="3.85" class="down-body"/>
<line x1="199.96" y1="889.36" x2="199.96" y2="902.03" class="up-wick"/>
<rect x="197.55" y="897.66" width="4.83" height="1.45" class="up-body"/>
<line x1="207.39" y1="896.89" x2="207.39" y2="912.14" class="down-wick"/>
<rect x="204.98" y="898.73" width="4.83" height="10.24" class="down-body"/>
<line x1="214.82" y1="920.58" x2="214.82" y2="926.75" class="down-wick"/>
<rect x="212.40" y="922.68" width="4.83" height="3.26" class="down-body"/>
<line x1="222.24" y1="921.06" x2="222.24" y2="929.43" class="up-wick"/>
<rect x="219.83" y="922.16" width="4.83" height="5.11" class="up-body"/>
<line x1="229.67" y1="918.89" x2="229.67" y2="926.49" class="up-wick"/>
<rect x="227.26" y="919.12" width="4.83" height="1.52" class="up-body"/>
<line x1="237.10" y1="897.53" x2="237.10" y2="920.93" class="up-wick"/>
<rect x="234.68" y="901.41" width="4.83" height="19.52" class="up-body"/>
<line x1="244.52" y1="883.09" x2="244.52" y2="905.74" class="down-wick"/>
<rect x="242.11" y="887.03" width="4.83" height="11.50" class="down-body"/>
<line x1="251.95" y1="913.27" x2="251.95" y2="923.23" class="up-wick"/>
<rect x="249.53" y="915.66" width="4.83" height="1.91" class="up-body"/>
<line x1="259.38" y1="916.44" x2="259.38" y2="923.84" class="up-wick"/>
<rect x="256.96" y="920.32" width="4.83" height="1.00" class="up-body"/>
<line x1="266.80" y1="910.40" x2="266.80" y2="927.56" class="up-wick"/>
<rect x="264.39" y="910.62" width="4.83" height="14.96" class="up-body"/>
<line x1="274.23" y1="918.67" x2="274.23" y2="928.69" class="down-wick"/>
<rect x="271.81" y="919.83" width="4.83" height="5.01" class="down-body"/>
<line x1="281.65" y1="918.57" x2="281.65" y2="931.21" class="up-wick"/>
<rect x="279.24" y="921.71" width="4.83" height="7.59" class="up-body"/>
<line x1="289.08" y1="916.31" x2="289.08" y2="921.19" class="up-wick"/>
<rect x="286.67" y="918.73" width="4.83" height="1.00" class="up-body"/>
<line x1="296.51" y1="910.17" x2="296.51" y2="919.93" class="up-wick"/>
<rect x="294.09" y="911.75" width="4.83" height="1.16" class="up-body"/>
<line x1="303.93" y1="914.34" x2="303.93" y2="921.71" class="up-wick"/>
<rect x="301.52" y="915.76" width="4.83" height="1.00" class="up-body"/>
<line x1="311.36" y1="917.86" x2="311.36" y2="921.87" class="up-wick"/>
<rect x="308.95" y="918.12" width="4.83" height="2.78" class="up-body"/>
<line x1="318.79" y1="906.78" x2="318.79" y2="911.01" class="up-wick"/>
<rect x="316.37" y="908.94" width="4.83" height="1.00" class="up-body"/>
<line x1="326.21" y1="899.96" x2="326.21" y2="910.78" class="up-wick"/>
<rect x="323.80" y="901.28" width="4.83" height="8.85" class="up-body"/>
<line x1="333.64" y1="894.59" x2="333.64" y2="901.09" class="down-wick"/>
<rect x="331.23" y="896.05" width="4.83" height="3.91" class="down-body"/>
<line x1="341.07" y1="885.32" x2="341.07" y2="891.39" class="up-wick"/>
<rect x="338.65" y="888.16" width="4.83" height="1.00" class="up-body"/>
<line x1="348.49" y1="889.10" x2="348.49" y2="900.31" class="down-wick"/>
<rect x="346.08" y="890.43" width="4.83" height="8.43" class="down-body"/>
<line x1="355.92" y1="891.65" x2="355.92" y2="901.22" class="up-wick"/>
<rect x="353.51" y="892.69" width="4.83" height="7.37" class="up-body"/>
<line x1="363.35" y1="875.33" x2="363.35" y2="894.46" class="up-wick"/>
<rect x="360.93" y="877.31" width="4.83" height="15.61" class="up-body"/>
<line x1="370.77" y1="877.08" x2="370.77" y2="890.62" class="down-wick"/>
<rect x="368.36" y="877.24" width="4.83" height="11.18" class="down-body"/>
<line x1="378.20" y1="893.53" x2="378.20" y2="902.67" class="down-wick"/>
<rect x="375.78" y="895.69" width="4.83" height="5.36" class="down-body"/>
<line x1="385.62" y1="882.61" x2="385.62" y2="894.95" class="down-wick"/>
<rect x="383.21" y="882.80" width="4.83" height="10.76" class="down-body"/>
<line x1="393.05" y1="887.32" x2="393.05" y2="897.11" class="down-wick"/>
<rect x="390.64" y="888.36" width="4.83" height="7.30" class="down-body"/>
<line x1="400.48" y1="891.36" x2="400.48" y2="922.29" class="up-wick"/>
<rect x="398.06" y="896.82" width="4.83" height="21.91" class="up-body"/>
<line x1="407.90" y1="897.86" x2="407.90" y2="925.62" class="up-wick"/>
<rect x="405.49" y="899.44" width="4.83" height="17.74" class="up-body"/>
<line x1="415.33" y1="893.37" x2="415.33" y2="909.65" class="up-wick"/>
<rect x="412.92" y="893.37" width="4.83" height="12.41" class="up-body"/>
<line x1="422.76" y1="885.58" x2="422.76" y2="896.15" class="up-wick"/>
<rect x="420.34" y="891.69" width="4.83" height="4.04" class="up-body"/>
<line x1="430.18" y1="875.79" x2="430.18" y2="885.29" class="up-wick"/>
<rect x="427.77" y="882.28" width="4.83" height="1.39" class="up-body"/>
<line x1="437.61" y1="870.10" x2="437.61" y2="878.53" class="up-wick"/>
<rect x="435.20" y="872.49" width="4.83" height="5.24" class="up-body"/>
<line x1="445.04" y1="859.24" x2="445.04" y2="866.06" class="down-wick"/>
<rect x="442.62" y="862.41" width="4.83" height="2.29" class="down-body"/>
<line x1="452.46" y1="860.37" x2="452.46" y2="872.49" class="down-wick"/>
<rect x="450.05" y="861.37" width="4.83" height="11.12" class="down-body"/>
<line x1="459.89" y1="875.69" x2="459.89" y2="889.07" class="down-wick"/>
<rect x="457.48" y="881.15" width="4.83" height="5.11" class="down-body"/>
<line x1="467.32" y1="890.85" x2="467.32" y2="905.45" class="down-wick"/>
<rect x="464.90" y="894.63" width="4.83" height="9.89" class="down-body"/>
<line x1="474.74" y1="905.61" x2="474.74" y2="918.83" class="down-wick"/>
<rect x="472.33" y="906.45" width="4.83" height="10.92" class="down-body"/>
<line x1="482.17" y1="913.79" x2="482.17" y2="934.41" class="down-wick"/>
<rect x="479.76" y="920.45" width="4.83" height="11.02" class="down-body"/>
<line x1="489.60" y1="922.32" x2="489.60" y2="937.31" class="down-wick"/>
<rect x="487.18" y="924.10" width="4.83" height="12.60" class="down-body"/>
<line x1="497.02" y1="914.37" x2="497.02" y2="925.55" class="up-wick"/>
<rect x="494.61" y="915.18" width="4.83" height="8.37" class="up-body"/>
<line x1="504.45" y1="908.04" x2="504.45" y2="915.44" class="down-wick"/>
<rect x="502.03" y="908.42" width="4.83" height="3.33" class="down-body"/>
<line x1="511.88" y1="905.61" x2="511.88" y2="923.26" class="down-wick"/>
<rect x="509.46" y="912.17" width="4.83" height="8.85" class="down-body"/>
<line x1="519.30" y1="912.40" x2="519.30" y2="930.53" class="up-wick"/>
<rect x="516.89" y="913.50" width="4.83" height="10.50" class="up-body"/>
<line x1="526.73" y1="911.98" x2="526.73" y2="922.77" class="down-wick"/>
<rect x="524.31" y="915.21" width="4.83" height="7.53" class="down-body"/>
<line x1="534.15" y1="916.02" x2="534.15" y2="924.81" class="up-wick"/>
<rect x="531.74" y="917.93" width="4.83" height="6.50" class="up-body"/>
<line x1="541.58" y1="929.62" x2="541.58" y2="946.49" class="down-wick"/>
<rect x="539.17" y="931.59" width="4.83" height="13.31" class="down-body"/>
<line x1="549.01" y1="945.30" x2="549.01" y2="954.02" class="up-wick"/>
<rect x="546.59" y="946.52" width="4.83" height="1.00" class="up-body"/>
<line x1="556.43" y1="936.47" x2="556.43" y2="944.71" class="up-wick"/>
<rect x="554.02" y="938.09" width="4.83" height="1.97" class="up-body"/>
<line x1="563.86" y1="927.17" x2="563.86" y2="941.90" class="up-wick"/>
<rect x="561.45" y="927.88" width="4.83" height="8.56" class="up-body"/>
<line x1="571.29" y1="932.14" x2="571.29" y2="940.55" class="up-wick"/>
<rect x="568.87" y="932.66" width="4.83" height="3.13" class="up-body"/>
<line x1="578.71" y1="939.83" x2="578.71" y2="947.40" class="down-wick"/>
<rect x="576.30" y="941.39" width="4.83" height="2.42" class="down-body"/>
<line x1="586.14" y1="949.53" x2="586.14" y2="980.00" class="down-wick"/>
<rect x="583.73" y="950.82" width="4.83" height="26.27" class="down-body"/>
<line x1="593.57" y1="967.01" x2="593.57" y2="992.51" class="down-wick"/>
<rect x="591.15" y="971.76" width="4.83" height="16.03" class="down-body"/>
<line x1="600.99" y1="969.14" x2="600.99" y2="982.65" class="up-wick"/>
<rect x="598.58" y="975.90" width="4.83" height="3.78" class="up-body"/>
<line x1="608.42" y1="971.76" x2="608.42" y2="983.75" class="down-wick"/>
<rect x="606.01" y="971.76" width="4.83" height="9.76" class="down-body"/>
<line x1="615.85" y1="979.68" x2="615.85" y2="999.94" class="up-wick"/>
<rect x="613.43" y="984.59" width="4.83" height="10.44" class="up-body"/>
<line x1="623.27" y1="972.31" x2="623.27" y2="985.53" class="down-wick"/>
<rect x="620.86" y="978.10" width="4.83" height="3.91" class="down-body"/>
<line x1="630.70" y1="976.00" x2="630.70" y2="998.10" class="down-wick"/>
<rect x="628.28" y="977.48" width="4.83" height="18.45" class="down-body"/>
<line x1="638.12" y1="991.80" x2="638.12" y2="1005.43" class="down-wick"/>
<rect x="635.71" y="993.45" width="4.83" height="4.52" class="down-body"/>
<line x1="645.55" y1="991.25" x2="645.55" y2="1007.31" class="up-wick"/>
<rect x="643.14" y="992.06" width="4.83" height="11.79" class="up-body"/>
<line x1="652.98" y1="987.14" x2="652.98" y2="993.74" class="up-wick"/>
<rect x="650.56" y="988.18" width="4.83" height="1.00" class="up-body"/>
<line x1="660.40" y1="974.70" x2="660.40" y2="993.90" class="down-wick"/>
<rect x="657.99" y="976.22" width="4.83" height="12.57" class="down-body"/>
<line x1="667.83" y1="989.37" x2="667.83" y2="998.13" class="up-wick"/>
<rect x="665.42" y="992.19" width="4.83" height="4.07" class="up-body"/>
<line x1="675.26" y1="984.82" x2="675.26" y2="989.96" class="up-wick"/>
<rect x="672.84" y="985.69" width="4.83" height="1.00" class="up-body"/>
<line x1="682.68" y1="978.65" x2="682.68" y2="988.70" class="up-wick"/>
<rect x="680.27" y="981.29" width="4.83" height="6.79" class="up-body"/>
<line x1="690.11" y1="976.61" x2="690.11" y2="1007.70" class="down-wick"/>
<rect x="687.70" y="977.13" width="4.83" height="23.59" class="down-body"/>
<line x1="697.54" y1="1013.16" x2="697.54" y2="1024.76" class="down-wick"/>
<rect x="695.12" y="1017.94" width="4.83" height="2.49" class="down-body"/>
<line x1="704.96" y1="1006.34" x2="704.96" y2="1021.53" class="down-wick"/>
<rect x="702.55" y="1010.35" width="4.83" height="5.04" class="down-body"/>
<line x1="712.39" y1="1006.60" x2="712.39" y2="1017.23" class="up-wick"/>
<rect x="709.98" y="1013.19" width="4.83" height="1.45" class="up-body"/>
<line x1="719.82" y1="990.08" x2="719.82" y2="1013.38" class="down-wick"/>
<rect x="717.40" y="990.08" width="4.83" height="22.98" class="down-body"/>
<line x1="727.24" y1="993.70" x2="727.24" y2="1003.46" class="down-wick"/>
<rect x="724.83" y="998.10" width="4.83" height="1.29" class="down-body"/>
<line x1="734.67" y1="995.68" x2="734.67" y2="1005.27" class="down-wick"/>
<rect x="732.26" y="998.10" width="4.83" height="7.17" class="down-body"/>
<line x1="742.10" y1="993.45" x2="742.10" y2="1003.69" class="down-wick"/>
<rect x="739.68" y="1000.39" width="4.83" height="2.36" class="down-body"/>
<line x1="749.52" y1="997.36" x2="749.52" y2="1001.46" class="down-wick"/>
<rect x="747.11" y="998.58" width="4.83" height="2.42" class="down-body"/>
<line x1="756.95" y1="1012.54" x2="756.95" y2="1020.17" class="up-wick"/>
<rect x="754.53" y="1012.67" width="4.83" height="3.65" class="up-body"/>
<line x1="764.38" y1="1006.40" x2="764.38" y2="1015.26" class="up-wick"/>
<rect x="761.96" y="1007.41" width="4.83" height="2.94" class="up-body"/>
<line x1="771.80" y1="1002.24" x2="771.80" y2="1008.89" class="down-wick"/>
<rect x="769.39" y="1003.04" width="4.83" height="3.04" class="down-body"/>
<line x1="779.23" y1="1004.82" x2="779.23" y2="1012.38" class="down-wick"/>
<rect x="776.81" y="1005.60" width="4.83" height="5.95" class="down-body"/>
<line x1="786.65" y1="1004.50" x2="786.65" y2="1016.81" class="down-wick"/>
<rect x="784.24" y="1006.73" width="4.83" height="1.78" class="down-body"/>
<line x1="794.08" y1="1001.33" x2="794.08" y2="1019.62" class="down-wick"/>
<rect x="791.67" y="1002.69" width="4.83" height="16.74" class="down-body"/>
<line x1="801.51" y1="1002.75" x2="801.51" y2="1021.17" class="up-wick"/>
<rect x="799.09" y="1005.50" width="4.83" height="15.41" class="up-body"/>
<line x1="808.93" y1="1001.65" x2="808.93" y2="1008.73" class="up-wick"/>
<rect x="806.52" y="1004.50" width="4.83" height="1.00" class="up-body"/>
<line x1="816.36" y1="995.26" x2="816.36" y2="1008.31" class="down-wick"/>
<rect x="813.95" y="999.52" width="4.83" height="6.43" class="down-body"/>
<line x1="823.79" y1="996.35" x2="823.79" y2="1002.04" class="up-wick"/>
<rect x="821.37" y="996.71" width="4.83" height="3.04" class="up-body"/>
<line x1="831.21" y1="995.77" x2="831.21" y2="1002.11" class="up-wick"/>
<rect x="828.80" y="996.26" width="4.83" height="5.36" class="up-body"/>
<line x1="838.64" y1="988.92" x2="838.64" y2="993.15" class="down-wick"/>
<rect x="836.23" y="989.08" width="4.83" height="1.00" class="down-body"/>
<line x1="846.07" y1="992.06" x2="846.07" y2="1002.14" class="down-wick"/>
<rect x="843.65" y="993.54" width="4.83" height="6.53" class="down-body"/>
<line x1="853.49" y1="1004.72" x2="853.49" y2="1008.73" class="up-wick"/>
<rect x="851.08" y="1005.31" width="4.83" height="1.75" class="up-body"/>
<line x1="860.92" y1="996.87" x2="860.92" y2="1003.82" class="up-wick"/>
<rect x="858.51" y="997.13" width="4.83" height="3.01" class="up-body"/>
<line x1="868.35" y1="990.67" x2="868.35" y2="998.49" class="down-wick"/>
<rect x="865.93" y="993.41" width="4.83" height="4.91" class="down-body"/>
<line x1="875.77" y1="993.38" x2="875.77" y2="1000.52" class="down-wick"/>
<rect x="873.36" y="996.16" width="4.83" height="3.33" class="down-body"/>
<line x1="883.20" y1="996.32" x2="883.20" y2="1003.33" class="up-wick"/>
<rect x="880.78" y="996.81" width="4.83" height="5.53" class="up-body"/>
<line x1="890.62" y1="983.43" x2="890.62" y2="988.79" class="up-wick"/>
<rect x="888.21" y="986.14" width="4.83" height="2.07" class="up-body"/>
<line x1="898.05" y1="979.91" x2="898.05" y2="989.08" class="up-wick"/>
<rect x="895.64" y="983.20" width="4.83" height="5.17" class="up-body"/>
<line x1="905.48" y1="990.38" x2="905.48" y2="995.00" class="up-wick"/>
<rect x="903.06" y="990.70" width="4.83" height="1.78" class="up-body"/>
<line x1="912.90" y1="994.90" x2="912.90" y2="1001.75" class="down-wick"/>
<rect x="910.49" y="995.84" width="4.83" height="2.88" class="down-body"/>
<line x1="920.33" y1="993.74" x2="920.33" y2="1001.43" class="down-wick"/>
<rect x="917.92" y="995.80" width="4.83" height="5.33" class="down-body"/>
<line x1="927.76" y1="993.38" x2="927.76" y2="998.26" class="up-wick"/>
<rect x="925.34" y="995.68" width="4.83" height="1.36" class="up-body"/>
<line x1="935.18" y1="989.44" x2="935.18" y2="998.52" class="down-wick"/>
<rect x="932.77" y="989.63" width="4.83" height="4.52" class="down-body"/>
<line x1="942.61" y1="987.60" x2="942.61" y2="992.86" class="up-wick"/>
<rect x="940.20" y="990.76" width="4.83" height="1.00" class="up-body"/>
<line x1="950.04" y1="977.03" x2="950.04" y2="987.85" class="up-wick"/>
<rect x="947.62" y="979.23" width="4.83" height="7.79" class="up-body"/>
<line x1="957.46" y1="974.83" x2="957.46" y2="980.00" class="up-wick"/>
<rect x="955.05" y="974.96" width="4.83" height="4.59" class="up-body"/>
<line x1="964.89" y1="972.47" x2="964.89" y2="977.32" class="up-wick"/>
<rect x="962.48" y="973.05" width="4.83" height="1.32" class="up-body"/>
<line x1="972.32" y1="969.50" x2="972.32" y2="979.39" class="down-wick"/>
<rect x="969.90" y="969.53" width="4.83" height="6.30" class="down-body"/>
<line x1="979.74" y1="974.99" x2="979.74" y2="979.91" class="down-wick"/>
<rect x="977.33" y="978.97" width="4.83" height="1.00" class="down-body"/>
<line x1="987.17" y1="967.66" x2="987.17" y2="973.09" class="up-wick"/>
<rect x="984.76" y="970.86" width="4.83" height="1.42" class="up-body"/>
<line x1="994.60" y1="980.49" x2="994.60" y2="987.01" class="down-wick"/>
<rect x="992.18" y="982.26" width="4.83" height="2.17" class="down-body"/>
<line x1="1002.02" y1="979.91" x2="1002.02" y2="991.09" class="down-wick"/>
<rect x="999.61" y="983.75" width="4.83" height="5.17" class="down-body"/>
<line x1="1009.45" y1="998.81" x2="1009.45" y2="1006.18" class="up-wick"/>
<rect x="1007.03" y="1000.52" width="4.83" height="2.29" class="up-body"/>
<line x1="1016.88" y1="1010.22" x2="1016.88" y2="1021.82" class="up-wick"/>
<rect x="1014.46" y="1011.67" width="4.83" height="7.66" class="up-body"/>
<line x1="1024.30" y1="998.94" x2="1024.30" y2="1013.38" class="up-wick"/>
<rect x="1021.89" y="999.17" width="4.83" height="14.22" class="up-body"/>
<line x1="1031.73" y1="995.93" x2="1031.73" y2="1001.36" class="down-wick"/>
<rect x="1029.31" y="999.81" width="4.83" height="1.00" class="down-body"/>
<line x1="1039.15" y1="993.22" x2="1039.15" y2="1004.17" class="up-wick"/>
<rect x="1036.74" y="995.55" width="4.83" height="7.50" class="up-body"/>
<line x1="1046.58" y1="987.24" x2="1046.58" y2="993.74" class="down-wick"/>
<rect x="1044.17" y="989.12" width="4.83" height="1.97" class="down-body"/>
<line x1="1054.01" y1="988.50" x2="1054.01" y2="993.90" class="up-wick"/>
<rect x="1051.59" y="988.82" width="4.83" height="4.01" class="up-body"/>
<line x1="1061.43" y1="987.92" x2="1061.43" y2="990.67" class="down-wick"/>
<rect x="1059.02" y="988.95" width="4.83" height="1.71" class="down-body"/>
<line x1="1068.86" y1="990.57" x2="1068.86" y2="996.19" class="up-wick"/>
<rect x="1066.45" y="992.54" width="4.83" height="2.71" class="up-body"/>
<line x1="1076.29" y1="987.14" x2="1076.29" y2="992.93" class="up-wick"/>
<rect x="1073.87" y="987.24" width="4.83" height="3.94" class="up-body"/>
<line x1="70" y1="873.20" x2="1080" y2="873.20" class="sweep-line"/>
<text x="1076" y="869.20" text-anchor="end" class="level-label">sweep 4579.95</text>
<text x="70" y="1056" class="axis-label">2026-05-18 15:15:00+00:00 to 2026-05-18 19:45:00+00:00</text>
<text x="1080" y="1056" text-anchor="end" class="axis-label">4528.95 - 4588.37</text>
</svg>