<svg xmlns="http://www.w3.org/2000/svg" width="1120" height="804" viewBox="0 0 1120 804">
<style>
text{font-family:Arial,Helvetica,sans-serif}.title{font-size:21px;font-weight:700;fill:#1f2937}.subtitle{font-size:12px;fill:#4b5563}.panel-title{font-size:15px;font-weight:700;fill:#111827}.muted{font-size:13px;fill:#6b7280}.plot-bg{fill:#f8fafc;stroke:#cbd5e1;stroke-width:1}.up-body{fill:#15803d;stroke:#14532d;stroke-width:.8}.down-body{fill:#b91c1c;stroke:#7f1d1d;stroke-width:.8}.up-wick{stroke:#14532d;stroke-width:1}.down-wick{stroke:#7f1d1d;stroke-width:1}.sweep-line{stroke:#7c3aed;stroke-width:1.6;stroke-dasharray:6 4}.number-line{stroke:#0f766e;stroke-width:1.4;stroke-dasharray:3 4}.entry-line{stroke:#2563eb;stroke-width:1.4}.sl-line{stroke:#dc2626;stroke-width:1.4}.tp-line{stroke:#16a34a;stroke-width:1.4}.level-label,.axis-label{font-size:11px;fill:#374151}
</style>
<text x="28" y="28" class="title">Adelin v2 visual review sample sample_015</text>
<text x="28" y="48" class="subtitle">Candidate windows are for visual labeling only and are not trade signals.</text>
<text x="560" y="48" class="subtitle" text-anchor="middle">LONDON_OPEN_CONTEXT</text>
<text x="70" y="82" class="panel-title">H1 liquidity context</text>
<rect x="70" y="96" width="1010" height="192" class="plot-bg"/>
<text x="82" y="138" class="muted">No candles available for this timeframe/window.</text>
<text x="70" y="332" class="panel-title">M15 liquidity / reaction context</text>
<rect x="70" y="346" width="1010" height="192" class="plot-bg"/>
<line x1="77.32" y1="377.24" x2="77.32" y2="385.76" class="down-wick"/>
<rect x="73.32" y="383.10" width="8.00" height="1.00" class="down-body"/>
<line x1="91.96" y1="382.91" x2="91.96" y2="390.47" class="down-wick"/>
<rect x="87.96" y="383.25" width="8.00" height="4.46" class="down-body"/>
<line x1="106.59" y1="385.27" x2="106.59" y2="391.31" class="up-wick"/>
<rect x="102.59" y="385.79" width="8.00" height="1.67" class="up-body"/>
<line x1="121.23" y1="383.19" x2="121.23" y2="386.82" class="up-wick"/>
<rect x="117.23" y="385.45" width="8.00" height="1.00" class="up-body"/>
<line x1="135.87" y1="384.49" x2="135.87" y2="390.72" class="down-wick"/>
<rect x="131.87" y="385.45" width="8.00" height="2.88" class="down-body"/>
<line x1="150.51" y1="382.39" x2="150.51" y2="389.36" class="up-wick"/>
<rect x="146.51" y="387.37" width="8.00" height="1.33" class="up-body"/>
<line x1="165.14" y1="382.20" x2="165.14" y2="389.05" class="up-wick"/>
<rect x="161.14" y="382.79" width="8.00" height="4.03" class="up-body"/>
<line x1="179.78" y1="382.26" x2="179.78" y2="388.80" class="down-wick"/>
<rect x="175.78" y="382.51" width="8.00" height="5.30" class="down-body"/>
<line x1="194.42" y1="383.19" x2="194.42" y2="390.35" class="up-wick"/>
<rect x="190.42" y="384.25" width="8.00" height="3.90" class="up-body"/>
<line x1="209.06" y1="383.47" x2="209.06" y2="386.38" class="up-wick"/>
<rect x="205.06" y="384.28" width="8.00" height="1.00" class="up-body"/>
<line x1="223.70" y1="383.59" x2="223.70" y2="387.78" class="down-wick"/>
<rect x="219.70" y="384.34" width="8.00" height="2.29" class="down-body"/>
<line x1="238.33" y1="378.39" x2="238.33" y2="388.21" class="up-wick"/>
<rect x="234.33" y="379.88" width="8.00" height="6.44" class="up-body"/>
<line x1="252.97" y1="377.65" x2="252.97" y2="381.30" class="up-wick"/>
<rect x="248.97" y="378.30" width="8.00" height="1.24" class="up-body"/>
<line x1="267.61" y1="374.08" x2="267.61" y2="378.79" class="up-wick"/>
<rect x="263.61" y="374.92" width="8.00" height="3.13" class="up-body"/>
<line x1="282.25" y1="373.90" x2="282.25" y2="376.44" class="down-wick"/>
<rect x="278.25" y="374.86" width="8.00" height="1.12" class="down-body"/>
<line x1="296.88" y1="375.76" x2="296.88" y2="378.54" class="down-wick"/>
<rect x="292.88" y="375.76" width="8.00" height="1.98" class="down-body"/>
<line x1="311.52" y1="376.59" x2="311.52" y2="383.10" class="up-wick"/>
<rect x="307.52" y="378.79" width="8.00" height="1.00" class="up-body"/>
<line x1="326.16" y1="377.15" x2="326.16" y2="380.96" class="up-wick"/>
<rect x="322.16" y="377.58" width="8.00" height="1.21" class="up-body"/>
<line x1="340.80" y1="373.77" x2="340.80" y2="380.16" class="up-wick"/>
<rect x="336.80" y="374.11" width="8.00" height="3.47" class="up-body"/>
<line x1="355.43" y1="369.37" x2="355.43" y2="375.45" class="up-wick"/>
<rect x="351.43" y="371.57" width="8.00" height="2.42" class="up-body"/>
<line x1="370.07" y1="371.54" x2="370.07" y2="383.44" class="down-wick"/>
<rect x="366.07" y="371.60" width="8.00" height="9.11" class="down-body"/>
<line x1="384.71" y1="378.17" x2="384.71" y2="403.70" class="down-wick"/>
<rect x="380.71" y="380.78" width="8.00" height="16.39" class="down-body"/>
<line x1="399.35" y1="388.86" x2="399.35" y2="400.05" class="up-wick"/>
<rect x="395.35" y="391.22" width="8.00" height="6.07" class="up-body"/>
<line x1="413.99" y1="388.71" x2="413.99" y2="398.37" class="down-wick"/>
<rect x="409.99" y="392.95" width="8.00" height="2.54" class="down-body"/>
<line x1="428.62" y1="393.11" x2="428.62" y2="412.07" class="up-wick"/>
<rect x="424.62" y="393.11" width="8.00" height="1.00" class="up-body"/>
<line x1="443.26" y1="381.15" x2="443.26" y2="394.63" class="up-wick"/>
<rect x="439.26" y="385.76" width="8.00" height="7.10" class="up-body"/>
<line x1="457.90" y1="363.55" x2="457.90" y2="388.37" class="up-wick"/>
<rect x="453.90" y="365.07" width="8.00" height="20.60" class="up-body"/>
<line x1="472.54" y1="359.24" x2="472.54" y2="374.24" class="down-wick"/>
<rect x="468.54" y="365.07" width="8.00" height="2.23" class="down-body"/>
<line x1="487.17" y1="363.27" x2="487.17" y2="380.74" class="down-wick"/>
<rect x="483.17" y="367.95" width="8.00" height="9.11" class="down-body"/>
<line x1="501.81" y1="363.70" x2="501.81" y2="378.23" class="up-wick"/>
<rect x="497.81" y="369.68" width="8.00" height="7.34" class="up-body"/>
<line x1="516.45" y1="371.51" x2="516.45" y2="391.96" class="down-wick"/>
<rect x="512.45" y="371.51" width="8.00" height="13.39" class="down-body"/>
<line x1="531.09" y1="373.68" x2="531.09" y2="399.46" class="down-wick"/>
<rect x="527.09" y="384.96" width="8.00" height="12.08" class="down-body"/>
<line x1="545.72" y1="385.64" x2="545.72" y2="403.61" class="up-wick"/>
<rect x="541.72" y="390.26" width="8.00" height="6.69" class="up-body"/>
<line x1="560.36" y1="378.42" x2="560.36" y2="418.11" class="down-wick"/>
<rect x="556.36" y="389.88" width="8.00" height="25.90" class="down-body"/>
<line x1="575.00" y1="394.78" x2="575.00" y2="418.05" class="up-wick"/>
<rect x="571.00" y="405.13" width="8.00" height="11.03" class="up-body"/>
<line x1="589.64" y1="403.05" x2="589.64" y2="410.92" class="down-wick"/>
<rect x="585.64" y="405.69" width="8.00" height="1.80" class="down-body"/>
<line x1="604.28" y1="393.26" x2="604.28" y2="409.75" class="up-wick"/>
<rect x="600.28" y="393.29" width="8.00" height="14.19" class="up-body"/>
<line x1="618.91" y1="391.87" x2="618.91" y2="401.50" class="down-wick"/>
<rect x="614.91" y="393.26" width="8.00" height="7.62" class="down-body"/>
<line x1="633.55" y1="385.70" x2="633.55" y2="401.32" class="up-wick"/>
<rect x="629.55" y="389.79" width="8.00" height="11.50" class="up-body"/>
<line x1="648.19" y1="380.09" x2="648.19" y2="390.01" class="up-wick"/>
<rect x="644.19" y="383.63" width="8.00" height="6.17" class="up-body"/>
<line x1="662.83" y1="377.96" x2="662.83" y2="394.69" class="down-wick"/>
<rect x="658.83" y="383.10" width="8.00" height="9.17" class="down-body"/>
<line x1="677.46" y1="381.36" x2="677.46" y2="392.30" class="up-wick"/>
<rect x="673.46" y="390.57" width="8.00" height="1.74" class="up-body"/>
<line x1="692.10" y1="387.78" x2="692.10" y2="400.42" class="up-wick"/>
<rect x="688.10" y="390.10" width="8.00" height="1.00" class="up-body"/>
<line x1="706.74" y1="385.08" x2="706.74" y2="393.91" class="down-wick"/>
<rect x="702.74" y="390.29" width="8.00" height="1.92" class="down-body"/>
<line x1="721.38" y1="391.34" x2="721.38" y2="415.76" class="down-wick"/>
<rect x="717.38" y="393.01" width="8.00" height="19.27" class="down-body"/>
<line x1="736.01" y1="402.53" x2="736.01" y2="465.08" class="down-wick"/>
<rect x="732.01" y="411.98" width="8.00" height="47.37" class="down-body"/>
<line x1="750.65" y1="448.88" x2="750.65" y2="508.55" class="down-wick"/>
<rect x="746.65" y="459.29" width="8.00" height="40.84" class="down-body"/>
<line x1="765.29" y1="465.92" x2="765.29" y2="500.71" class="up-wick"/>
<rect x="761.29" y="492.01" width="8.00" height="8.09" class="up-body"/>
<line x1="779.93" y1="443.95" x2="779.93" y2="500.22" class="up-wick"/>
<rect x="775.93" y="444.79" width="8.00" height="46.69" class="up-body"/>
<line x1="794.57" y1="410.46" x2="794.57" y2="450.40" class="up-wick"/>
<rect x="790.57" y="433.54" width="8.00" height="11.25" class="up-body"/>
<line x1="809.20" y1="423.87" x2="809.20" y2="452.26" class="down-wick"/>
<rect x="805.20" y="433.94" width="8.00" height="14.78" class="down-body"/>
<line x1="823.84" y1="425.92" x2="823.84" y2="449.10" class="up-wick"/>
<rect x="819.84" y="432.98" width="8.00" height="15.71" class="up-body"/>
<line x1="838.48" y1="426.63" x2="838.48" y2="441.38" class="up-wick"/>
<rect x="834.48" y="432.02" width="8.00" height="1.98" class="up-body"/>
<line x1="853.12" y1="408.88" x2="853.12" y2="433.29" class="up-wick"/>
<rect x="849.12" y="422.48" width="8.00" height="9.61" class="up-body"/>
<line x1="867.75" y1="418.20" x2="867.75" y2="431.53" class="up-wick"/>
<rect x="863.75" y="421.09" width="8.00" height="1.43" class="up-body"/>
<line x1="882.39" y1="417.49" x2="882.39" y2="442.50" class="down-wick"/>
<rect x="878.39" y="420.78" width="8.00" height="16.48" class="down-body"/>
<line x1="897.03" y1="424.90" x2="897.03" y2="446.37" class="up-wick"/>
<rect x="893.03" y="431.87" width="8.00" height="5.48" class="up-body"/>
<line x1="911.67" y1="431.90" x2="911.67" y2="453.40" class="down-wick"/>
<rect x="907.67" y="431.96" width="8.00" height="11.96" class="down-body"/>
<line x1="926.30" y1="443.64" x2="926.30" y2="462.23" class="down-wick"/>
<rect x="922.30" y="444.39" width="8.00" height="13.39" class="down-body"/>
<line x1="940.94" y1="432.36" x2="940.94" y2="461.24" class="up-wick"/>
<rect x="936.94" y="436.83" width="8.00" height="20.73" class="up-body"/>
<line x1="955.58" y1="430.50" x2="955.58" y2="444.39" class="down-wick"/>
<rect x="951.58" y="437.20" width="8.00" height="3.10" class="down-body"/>
<line x1="970.22" y1="429.36" x2="970.22" y2="444.51" class="up-wick"/>
<rect x="966.22" y="435.37" width="8.00" height="4.99" class="up-body"/>
<line x1="984.86" y1="429.17" x2="984.86" y2="444.97" class="down-wick"/>
<rect x="980.86" y="434.72" width="8.00" height="9.08" class="down-body"/>
<line x1="999.49" y1="443.49" x2="999.49" y2="455.26" class="down-wick"/>
<rect x="995.49" y="443.95" width="8.00" height="6.51" class="down-body"/>
<line x1="1014.13" y1="442.81" x2="1014.13" y2="451.30" class="up-wick"/>
<rect x="1010.13" y="447.89" width="8.00" height="2.66" class="up-body"/>
<line x1="1028.77" y1="446.99" x2="1028.77" y2="478.93" class="down-wick"/>
<rect x="1024.77" y="447.89" width="8.00" height="31.02" class="down-body"/>
<line x1="1043.41" y1="473.82" x2="1043.41" y2="499.54" class="down-wick"/>
<rect x="1039.41" y="479.06" width="8.00" height="11.99" class="down-body"/>
<line x1="1058.04" y1="488.17" x2="1058.04" y2="524.76" class="down-wick"/>
<rect x="1054.04" y="491.11" width="8.00" height="23.98" class="down-body"/>
<line x1="1072.68" y1="489.68" x2="1072.68" y2="517.97" class="up-wick"/>
<rect x="1068.68" y="490.52" width="8.00" height="27.45" class="up-body"/>
<text x="70" y="556" class="axis-label">2024-11-05 20:00:00+00:00 to 2024-11-06 14:00:00+00:00</text>
<text x="1080" y="556" text-anchor="end" class="axis-label">2692.00 - 2753.96</text>
<text x="70" y="582" class="panel-title">M1 execution window</text>
<rect x="70" y="596" width="1010" height="192" class="plot-bg"/>
<text x="82" y="638" class="muted">No candles available for this timeframe/window.</text>
</svg>