<svg xmlns="http://www.w3.org/2000/svg" width="1120" height="804" viewBox="0 0 1120 804">
<style>
text{font-family:Arial,Helvetica,sans-serif}.title{font-size:21px;font-weight:700;fill:#1f2937}.subtitle{font-size:12px;fill:#4b5563}.panel-title{font-size:15px;font-weight:700;fill:#111827}.muted{font-size:13px;fill:#6b7280}.plot-bg{fill:#f8fafc;stroke:#cbd5e1;stroke-width:1}.up-body{fill:#15803d;stroke:#14532d;stroke-width:.8}.down-body{fill:#b91c1c;stroke:#7f1d1d;stroke-width:.8}.up-wick{stroke:#14532d;stroke-width:1}.down-wick{stroke:#7f1d1d;stroke-width:1}.sweep-line{stroke:#7c3aed;stroke-width:1.6;stroke-dasharray:6 4}.number-line{stroke:#0f766e;stroke-width:1.4;stroke-dasharray:3 4}.entry-line{stroke:#2563eb;stroke-width:1.4}.sl-line{stroke:#dc2626;stroke-width:1.4}.tp-line{stroke:#16a34a;stroke-width:1.4}.level-label,.axis-label{font-size:11px;fill:#374151}
</style>
<text x="28" y="28" class="title">Adelin v2 visual review sample sample_001</text>
<text x="28" y="48" class="subtitle">Candidate windows are for visual labeling only and are not trade signals.</text>
<text x="560" y="48" class="subtitle" text-anchor="middle">NUMBER_THEORY_LEVEL_NEAR</text>
<text x="70" y="82" class="panel-title">H1 liquidity context</text>
<rect x="70" y="96" width="1010" height="192" class="plot-bg"/>
<text x="82" y="138" class="muted">No candles available for this timeframe/window.</text>
<text x="70" y="332" class="panel-title">M15 liquidity / reaction context</text>
<rect x="70" y="346" width="1010" height="192" class="plot-bg"/>
<line x1="78.28" y1="493.36" x2="78.28" y2="514.85" class="up-wick"/>
<rect x="74.28" y="503.73" width="8.00" height="8.97" class="up-body"/>
<line x1="94.84" y1="492.14" x2="94.84" y2="503.73" class="up-wick"/>
<rect x="90.84" y="496.07" width="8.00" height="7.66" class="up-body"/>
<line x1="111.39" y1="493.45" x2="111.39" y2="498.59" class="up-wick"/>
<rect x="107.39" y="493.45" width="8.00" height="3.27" class="up-body"/>
<line x1="127.95" y1="491.58" x2="127.95" y2="500.65" class="down-wick"/>
<rect x="123.95" y="494.38" width="8.00" height="5.33" class="down-body"/>
<line x1="144.51" y1="492.52" x2="144.51" y2="499.90" class="up-wick"/>
<rect x="140.51" y="494.66" width="8.00" height="5.05" class="up-body"/>
<line x1="161.07" y1="493.36" x2="161.07" y2="498.87" class="down-wick"/>
<rect x="157.07" y="494.66" width="8.00" height="3.74" class="down-body"/>
<line x1="177.62" y1="495.32" x2="177.62" y2="500.83" class="up-wick"/>
<rect x="173.62" y="495.32" width="8.00" height="3.08" class="up-body"/>
<line x1="194.18" y1="483.64" x2="194.18" y2="499.06" class="up-wick"/>
<rect x="190.18" y="492.33" width="8.00" height="2.99" class="up-body"/>
<line x1="210.74" y1="486.25" x2="210.74" y2="498.50" class="up-wick"/>
<rect x="206.74" y="487.19" width="8.00" height="5.14" class="up-body"/>
<line x1="227.30" y1="479.71" x2="227.30" y2="492.98" class="down-wick"/>
<rect x="223.30" y="487.84" width="8.00" height="4.95" class="down-body"/>
<line x1="243.85" y1="491.11" x2="243.85" y2="522.98" class="down-wick"/>
<rect x="239.85" y="492.42" width="8.00" height="29.44" class="down-body"/>
<line x1="260.41" y1="505.97" x2="260.41" y2="524.76" class="up-wick"/>
<rect x="256.41" y="510.55" width="8.00" height="11.40" class="up-body"/>
<line x1="276.97" y1="472.14" x2="276.97" y2="510.46" class="up-wick"/>
<rect x="272.97" y="475.79" width="8.00" height="34.67" class="up-body"/>
<line x1="293.52" y1="467.19" x2="293.52" y2="495.13" class="down-wick"/>
<rect x="289.52" y="475.69" width="8.00" height="13.74" class="down-body"/>
<line x1="310.08" y1="474.76" x2="310.08" y2="497.94" class="up-wick"/>
<rect x="306.08" y="487.19" width="8.00" height="1.40" class="up-body"/>
<line x1="326.64" y1="457.65" x2="326.64" y2="489.90" class="up-wick"/>
<rect x="322.64" y="458.68" width="8.00" height="27.85" class="up-body"/>
<line x1="343.20" y1="440.08" x2="343.20" y2="463.92" class="up-wick"/>
<rect x="339.20" y="444.48" width="8.00" height="14.21" class="up-body"/>
<line x1="359.75" y1="439.71" x2="359.75" y2="454.38" class="down-wick"/>
<rect x="355.75" y="444.66" width="8.00" height="8.32" class="down-body"/>
<line x1="376.31" y1="435.41" x2="376.31" y2="456.53" class="up-wick"/>
<rect x="372.31" y="450.36" width="8.00" height="2.80" class="up-body"/>
<line x1="392.87" y1="447.19" x2="392.87" y2="475.41" class="down-wick"/>
<rect x="388.87" y="450.36" width="8.00" height="21.68" class="down-body"/>
<line x1="409.43" y1="462.61" x2="409.43" y2="476.63" class="up-wick"/>
<rect x="405.43" y="466.91" width="8.00" height="5.14" class="up-body"/>
<line x1="425.98" y1="452.51" x2="425.98" y2="468.78" class="up-wick"/>
<rect x="421.98" y="452.51" width="8.00" height="14.77" class="up-body"/>
<line x1="442.54" y1="443.07" x2="442.54" y2="455.60" class="up-wick"/>
<rect x="438.54" y="445.22" width="8.00" height="6.82" class="up-body"/>
<line x1="459.10" y1="443.36" x2="459.10" y2="452.23" class="down-wick"/>
<rect x="455.10" y="445.22" width="8.00" height="1.96" class="down-body"/>
<line x1="475.66" y1="432.70" x2="475.66" y2="449.24" class="up-wick"/>
<rect x="471.66" y="437.19" width="8.00" height="10.09" class="up-body"/>
<line x1="492.21" y1="435.50" x2="492.21" y2="447.84" class="down-wick"/>
<rect x="488.21" y="437.19" width="8.00" height="8.79" class="down-body"/>
<line x1="508.77" y1="432.61" x2="508.77" y2="452.51" class="up-wick"/>
<rect x="504.77" y="432.61" width="8.00" height="13.36" class="up-body"/>
<line x1="525.33" y1="431.67" x2="525.33" y2="438.78" class="down-wick"/>
<rect x="521.33" y="432.61" width="8.00" height="5.98" class="down-body"/>
<line x1="541.89" y1="433.45" x2="541.89" y2="448.59" class="down-wick"/>
<rect x="537.89" y="438.59" width="8.00" height="7.94" class="down-body"/>
<line x1="558.44" y1="437.28" x2="558.44" y2="452.14" class="up-wick"/>
<rect x="554.44" y="444.01" width="8.00" height="2.43" class="up-body"/>
<line x1="575.00" y1="421.39" x2="575.00" y2="446.35" class="up-wick"/>
<rect x="571.00" y="425.97" width="8.00" height="17.66" class="up-body"/>
<line x1="591.56" y1="424.76" x2="591.56" y2="444.01" class="down-wick"/>
<rect x="587.56" y="426.07" width="8.00" height="6.54" class="down-body"/>
<line x1="608.11" y1="428.21" x2="608.11" y2="453.64" class="down-wick"/>
<rect x="604.11" y="432.33" width="8.00" height="20.75" class="down-body"/>
<line x1="624.67" y1="448.78" x2="624.67" y2="470.93" class="down-wick"/>
<rect x="620.67" y="452.89" width="8.00" height="17.94" class="down-body"/>
<line x1="641.23" y1="467.75" x2="641.23" y2="506.16" class="down-wick"/>
<rect x="637.23" y="471.39" width="8.00" height="21.22" class="down-body"/>
<line x1="657.79" y1="486.35" x2="657.79" y2="502.05" class="down-wick"/>
<rect x="653.79" y="492.61" width="8.00" height="1.00" class="down-body"/>
<line x1="674.34" y1="479.24" x2="674.34" y2="496.07" class="up-wick"/>
<rect x="670.34" y="479.99" width="8.00" height="13.74" class="up-body"/>
<line x1="690.90" y1="479.90" x2="690.90" y2="513.26" class="down-wick"/>
<rect x="686.90" y="479.90" width="8.00" height="30.00" class="down-body"/>
<line x1="707.46" y1="480.55" x2="707.46" y2="509.90" class="up-wick"/>
<rect x="703.46" y="490.55" width="8.00" height="19.35" class="up-body"/>
<line x1="724.02" y1="481.02" x2="724.02" y2="494.48" class="up-wick"/>
<rect x="720.02" y="484.94" width="8.00" height="6.73" class="up-body"/>
<line x1="740.57" y1="479.24" x2="740.57" y2="496.07" class="down-wick"/>
<rect x="736.57" y="482.61" width="8.00" height="1.50" class="down-body"/>
<line x1="757.13" y1="475.51" x2="757.13" y2="494.48" class="down-wick"/>
<rect x="753.13" y="484.10" width="8.00" height="5.70" class="down-body"/>
<line x1="773.69" y1="465.69" x2="773.69" y2="497.47" class="up-wick"/>
<rect x="769.69" y="466.91" width="8.00" height="22.90" class="up-body"/>
<line x1="790.25" y1="440.27" x2="790.25" y2="474.57" class="up-wick"/>
<rect x="786.25" y="441.86" width="8.00" height="25.42" class="up-body"/>
<line x1="806.80" y1="406.91" x2="806.80" y2="442.23" class="up-wick"/>
<rect x="802.80" y="409.80" width="8.00" height="32.24" class="up-body"/>
<line x1="823.36" y1="399.99" x2="823.36" y2="424.20" class="down-wick"/>
<rect x="819.36" y="409.06" width="8.00" height="3.18" class="down-body"/>
<line x1="839.92" y1="404.10" x2="839.92" y2="432.98" class="down-wick"/>
<rect x="835.92" y="413.82" width="8.00" height="12.52" class="down-body"/>
<line x1="856.48" y1="412.23" x2="856.48" y2="427.37" class="up-wick"/>
<rect x="852.48" y="422.05" width="8.00" height="4.30" class="up-body"/>
<line x1="873.03" y1="412.33" x2="873.03" y2="429.52" class="up-wick"/>
<rect x="869.03" y="412.89" width="8.00" height="9.16" class="up-body"/>
<line x1="889.59" y1="406.16" x2="889.59" y2="431.39" class="down-wick"/>
<rect x="885.59" y="411.02" width="8.00" height="20.37" class="down-body"/>
<line x1="906.15" y1="429.24" x2="906.15" y2="451.67" class="down-wick"/>
<rect x="902.15" y="429.24" width="8.00" height="6.54" class="down-body"/>
<line x1="922.70" y1="417.65" x2="922.70" y2="438.68" class="up-wick"/>
<rect x="918.70" y="423.07" width="8.00" height="12.24" class="up-body"/>
<line x1="939.26" y1="418.40" x2="939.26" y2="433.64" class="down-wick"/>
<rect x="935.26" y="423.35" width="8.00" height="8.41" class="down-body"/>
<line x1="955.82" y1="422.70" x2="955.82" y2="453.54" class="down-wick"/>
<rect x="951.82" y="431.77" width="8.00" height="14.86" class="down-body"/>
<line x1="972.38" y1="437.28" x2="972.38" y2="453.07" class="down-wick"/>
<rect x="968.38" y="446.72" width="8.00" height="1.59" class="down-body"/>
<line x1="988.93" y1="434.76" x2="988.93" y2="447.47" class="up-wick"/>
<rect x="984.93" y="443.36" width="8.00" height="3.93" class="up-body"/>
<line x1="1005.49" y1="411.49" x2="1005.49" y2="444.38" class="up-wick"/>
<rect x="1001.49" y="415.50" width="8.00" height="27.57" class="up-body"/>
<line x1="1022.05" y1="398.96" x2="1022.05" y2="445.32" class="down-wick"/>
<rect x="1018.05" y="415.97" width="8.00" height="27.94" class="down-body"/>
<line x1="1038.61" y1="409.52" x2="1038.61" y2="508.12" class="up-wick"/>
<rect x="1034.61" y="416.16" width="8.00" height="74.02" class="up-body"/>
<line x1="1055.16" y1="380.83" x2="1055.16" y2="438.68" class="up-wick"/>
<rect x="1051.16" y="399.99" width="8.00" height="15.89" class="up-body"/>
<line x1="1071.72" y1="359.24" x2="1071.72" y2="420.55" class="up-wick"/>
<rect x="1067.72" y="386.91" width="8.00" height="12.24" class="up-body"/>
<line x1="70" y1="476.53" x2="1080" y2="476.53" class="number-line"/>
<text x="1076" y="472.53" text-anchor="end" class="level-label">round 2340.00</text>
<text x="70" y="556" class="axis-label">2024-05-14 01:00:00+00:00 to 2024-05-14 16:00:00+00:00</text>
<text x="1080" y="556" text-anchor="end" class="axis-label">2333.42 - 2353.97</text>
<text x="70" y="582" class="panel-title">M1 execution window</text>
<rect x="70" y="596" width="1010" height="192" class="plot-bg"/>
<text x="82" y="638" class="muted">No candles available for this timeframe/window.</text>
</svg>