<svg xmlns="http://www.w3.org/2000/svg" width="1120" height="1054" viewBox="0 0 1120 1054">
<style>
text{font-family:Arial,Helvetica,sans-serif}.title{font-size:21px;font-weight:700;fill:#1f2937}.subtitle{font-size:12px;fill:#4b5563}.panel-title{font-size:15px;font-weight:700;fill:#111827}.muted{font-size:13px;fill:#6b7280}.plot-bg{fill:#f8fafc;stroke:#cbd5e1;stroke-width:1}.up-body{fill:#15803d;stroke:#14532d;stroke-width:.8}.down-body{fill:#b91c1c;stroke:#7f1d1d;stroke-width:.8}.up-wick{stroke:#14532d;stroke-width:1}.down-wick{stroke:#7f1d1d;stroke-width:1}.sweep-line{stroke:#7c3aed;stroke-width:1.6;stroke-dasharray:6 4}.number-line{stroke:#0f766e;stroke-width:1.4;stroke-dasharray:3 4}.entry-line{stroke:#2563eb;stroke-width:1.4}.sl-line{stroke:#dc2626;stroke-width:1.4}.tp-line{stroke:#16a34a;stroke-width:1.4}.level-label,.axis-label{font-size:11px;fill:#374151}
</style>
<text x="28" y="28" class="title">Adelin v2 visual review sample sample_021</text>
<text x="28" y="48" class="subtitle">Candidate windows are for visual labeling only and are not trade signals.</text>
<text x="560" y="48" class="subtitle" text-anchor="middle">M15_SWING_LOW_SWEEP_VISUAL_CANDIDATE</text>
<text x="70" y="82" class="panel-title">H1 liquidity context</text>
<rect x="70" y="96" width="1010" height="192" class="plot-bg"/>
<line x1="81.48" y1="109.24" x2="81.48" y2="136.12" class="down-wick"/>
<rect x="77.48" y="110.47" width="8.00" height="18.28" class="down-body"/>
<line x1="104.43" y1="118.25" x2="104.43" y2="133.65" class="up-wick"/>
<rect x="100.43" y="124.08" width="8.00" height="4.67" class="up-body"/>
<line x1="127.39" y1="119.49" x2="127.39" y2="135.71" class="down-wick"/>
<rect x="123.39" y="124.17" width="8.00" height="2.85" class="down-body"/>
<line x1="150.34" y1="120.36" x2="150.34" y2="139.01" class="down-wick"/>
<rect x="146.34" y="127.02" width="8.00" height="10.50" class="down-body"/>
<line x1="173.30" y1="136.83" x2="173.30" y2="189.84" class="down-wick"/>
<rect x="169.30" y="137.29" width="8.00" height="51.70" class="down-body"/>
<line x1="196.25" y1="165.15" x2="196.25" y2="191.62" class="up-wick"/>
<rect x="192.25" y="176.76" width="8.00" height="12.22" class="up-body"/>
<line x1="219.20" y1="156.31" x2="219.20" y2="181.11" class="up-wick"/>
<rect x="215.20" y="175.87" width="8.00" height="1.00" class="up-body"/>
<line x1="242.16" y1="174.49" x2="242.16" y2="198.42" class="down-wick"/>
<rect x="238.16" y="175.87" width="8.00" height="17.84" class="down-body"/>
<line x1="265.11" y1="183.45" x2="265.11" y2="218.35" class="down-wick"/>
<rect x="261.11" y="193.72" width="8.00" height="9.44" class="down-body"/>
<line x1="288.07" y1="173.86" x2="288.07" y2="204.89" class="up-wick"/>
<rect x="284.07" y="180.93" width="8.00" height="22.22" class="up-body"/>
<line x1="311.02" y1="176.30" x2="311.02" y2="198.63" class="down-wick"/>
<rect x="307.02" y="181.00" width="8.00" height="15.39" class="down-body"/>
<line x1="333.98" y1="189.00" x2="333.98" y2="205.49" class="down-wick"/>
<rect x="329.98" y="196.40" width="8.00" height="6.68" class="down-body"/>
<line x1="356.93" y1="190.23" x2="356.93" y2="240.36" class="down-wick"/>
<rect x="352.93" y="203.08" width="8.00" height="13.54" class="down-body"/>
<line x1="379.89" y1="180.52" x2="379.89" y2="225.42" class="up-wick"/>
<rect x="375.89" y="184.61" width="8.00" height="32.05" class="up-body"/>
<line x1="402.84" y1="184.02" x2="402.84" y2="216.35" class="down-wick"/>
<rect x="398.84" y="184.46" width="8.00" height="25.19" class="down-body"/>
<line x1="425.80" y1="200.65" x2="425.80" y2="221.13" class="up-wick"/>
<rect x="421.80" y="204.69" width="8.00" height="4.95" class="up-body"/>
<line x1="448.75" y1="182.73" x2="448.75" y2="206.03" class="up-wick"/>
<rect x="444.75" y="188.06" width="8.00" height="16.67" class="up-body"/>
<line x1="471.70" y1="184.23" x2="471.70" y2="195.97" class="down-wick"/>
<rect x="467.70" y="187.98" width="8.00" height="1.00" class="down-body"/>
<line x1="494.66" y1="187.37" x2="494.66" y2="204.06" class="down-wick"/>
<rect x="490.66" y="188.37" width="8.00" height="14.71" class="down-body"/>
<line x1="517.61" y1="193.20" x2="517.61" y2="249.15" class="up-wick"/>
<rect x="513.61" y="202.72" width="8.00" height="8.04" class="up-body"/>
<line x1="540.57" y1="200.64" x2="540.57" y2="218.38" class="down-wick"/>
<rect x="536.57" y="202.72" width="8.00" height="9.90" class="down-body"/>
<line x1="563.52" y1="206.70" x2="563.52" y2="274.76" class="down-wick"/>
<rect x="559.52" y="212.59" width="8.00" height="23.14" class="down-body"/>
<line x1="586.48" y1="214.11" x2="586.48" y2="264.61" class="up-wick"/>
<rect x="582.48" y="225.38" width="8.00" height="10.91" class="up-body"/>
<line x1="609.43" y1="206.35" x2="609.43" y2="229.22" class="up-wick"/>
<rect x="605.43" y="216.35" width="8.00" height="9.03" class="up-body"/>
<line x1="632.39" y1="200.80" x2="632.39" y2="225.65" class="up-wick"/>
<rect x="628.39" y="208.17" width="8.00" height="8.18" class="up-body"/>
<line x1="655.34" y1="198.74" x2="655.34" y2="220.41" class="down-wick"/>
<rect x="651.34" y="208.18" width="8.00" height="1.00" class="down-body"/>
<line x1="678.30" y1="196.29" x2="678.30" y2="220.52" class="down-wick"/>
<rect x="674.30" y="208.72" width="8.00" height="10.67" class="down-body"/>
<line x1="701.25" y1="200.56" x2="701.25" y2="220.77" class="up-wick"/>
<rect x="697.25" y="202.03" width="8.00" height="17.36" class="up-body"/>
<line x1="724.20" y1="187.70" x2="724.20" y2="211.37" class="down-wick"/>
<rect x="720.20" y="202.03" width="8.00" height="1.00" class="down-body"/>
<line x1="747.16" y1="190.91" x2="747.16" y2="206.54" class="up-wick"/>
<rect x="743.16" y="198.55" width="8.00" height="4.08" class="up-body"/>
<line x1="770.11" y1="196.38" x2="770.11" y2="209.38" class="down-wick"/>
<rect x="766.11" y="198.55" width="8.00" height="7.69" class="down-body"/>
<line x1="793.07" y1="200.95" x2="793.07" y2="218.30" class="down-wick"/>
<rect x="789.07" y="206.24" width="8.00" height="2.97" class="down-body"/>
<line x1="816.02" y1="179.74" x2="816.02" y2="220.58" class="up-wick"/>
<rect x="812.02" y="197.85" width="8.00" height="11.36" class="up-body"/>
<line x1="838.98" y1="171.27" x2="838.98" y2="203.69" class="up-wick"/>
<rect x="834.98" y="175.35" width="8.00" height="22.51" class="up-body"/>
<line x1="861.93" y1="161.08" x2="861.93" y2="185.59" class="up-wick"/>
<rect x="857.93" y="170.22" width="8.00" height="5.14" class="up-body"/>
<line x1="884.89" y1="170.22" x2="884.89" y2="211.83" class="down-wick"/>
<rect x="880.89" y="170.22" width="8.00" height="32.16" class="down-body"/>
<line x1="907.84" y1="200.78" x2="907.84" y2="218.36" class="down-wick"/>
<rect x="903.84" y="202.39" width="8.00" height="3.17" class="down-body"/>
<line x1="930.80" y1="193.69" x2="930.80" y2="216.09" class="up-wick"/>
<rect x="926.80" y="198.32" width="8.00" height="7.24" class="up-body"/>
<line x1="953.75" y1="189.45" x2="953.75" y2="203.39" class="down-wick"/>
<rect x="949.75" y="198.32" width="8.00" height="3.51" class="down-body"/>
<line x1="976.70" y1="200.94" x2="976.70" y2="215.96" class="down-wick"/>
<rect x="972.70" y="201.83" width="8.00" height="12.10" class="down-body"/>
<line x1="999.66" y1="182.10" x2="999.66" y2="214.56" class="up-wick"/>
<rect x="995.66" y="189.33" width="8.00" height="24.60" class="up-body"/>
<line x1="1022.61" y1="167.58" x2="1022.61" y2="181.16" class="up-wick"/>
<rect x="1018.61" y="172.43" width="8.00" height="8.19" class="up-body"/>
<line x1="1045.57" y1="155.91" x2="1045.57" y2="172.64" class="up-wick"/>
<rect x="1041.57" y="163.79" width="8.00" height="8.66" class="up-body"/>
<line x1="1068.52" y1="155.64" x2="1068.52" y2="186.19" class="down-wick"/>
<rect x="1064.52" y="163.79" width="8.00" height="20.10" class="down-body"/>
<line x1="70" y1="274.63" x2="1080" y2="274.63" class="sweep-line"/>
<text x="1076" y="270.63" text-anchor="end" class="level-label">sweep 4480.42</text>
<text x="70" y="306" class="axis-label">2026-05-15 04:00:00+00:00 to 2026-05-19 03:00:00+00:00</text>
<text x="1080" y="306" text-anchor="end" class="axis-label">4468.19 - 4643.79</text>
<text x="70" y="332" class="panel-title">M15 liquidity / reaction context</text>
<rect x="70" y="346" width="1010" height="192" class="plot-bg"/>
<line x1="84.03" y1="359.24" x2="84.03" y2="472.79" class="up-wick"/>
<rect x="80.03" y="373.71" width="8.00" height="21.15" class="up-body"/>
<line x1="112.08" y1="370.05" x2="112.08" y2="396.54" class="down-wick"/>
<rect x="108.08" y="373.71" width="8.00" height="16.18" class="down-body"/>
<line x1="140.14" y1="361.68" x2="140.14" y2="390.11" class="up-wick"/>
<rect x="136.14" y="370.14" width="8.00" height="19.73" class="up-body"/>
<line x1="168.19" y1="359.80" x2="168.19" y2="384.14" class="down-wick"/>
<rect x="164.19" y="370.14" width="8.00" height="8.41" class="down-body"/>
<line x1="196.25" y1="374.33" x2="196.25" y2="393.41" class="down-wick"/>
<rect x="192.25" y="378.55" width="8.00" height="10.16" class="down-body"/>
<line x1="224.31" y1="382.63" x2="224.31" y2="397.05" class="down-wick"/>
<rect x="220.31" y="388.69" width="8.00" height="8.08" class="down-body"/>
<line x1="252.36" y1="389.13" x2="252.36" y2="408.90" class="up-wick"/>
<rect x="248.36" y="394.19" width="8.00" height="2.57" class="up-body"/>
<line x1="280.42" y1="383.12" x2="280.42" y2="410.35" class="down-wick"/>
<rect x="276.42" y="394.37" width="8.00" height="4.26" class="down-body"/>
<line x1="308.47" y1="386.62" x2="308.47" y2="430.12" class="down-wick"/>
<rect x="304.47" y="398.58" width="8.00" height="24.12" class="down-body"/>
<line x1="336.53" y1="406.44" x2="336.53" y2="449.16" class="down-wick"/>
<rect x="332.53" y="422.71" width="8.00" height="23.34" class="down-body"/>
<line x1="364.58" y1="438.64" x2="364.58" y2="524.49" class="down-wick"/>
<rect x="360.58" y="446.05" width="8.00" height="75.82" class="down-body"/>
<line x1="392.64" y1="443.99" x2="392.64" y2="524.76" class="up-wick"/>
<rect x="388.64" y="445.54" width="8.00" height="76.33" class="up-body"/>
<line x1="420.69" y1="445.16" x2="420.69" y2="504.17" class="down-wick"/>
<rect x="416.69" y="446.69" width="8.00" height="43.25" class="down-body"/>
<line x1="448.75" y1="458.85" x2="448.75" y2="496.84" class="up-wick"/>
<rect x="444.75" y="472.12" width="8.00" height="17.84" class="up-body"/>
<line x1="476.81" y1="450.31" x2="476.81" y2="481.49" class="up-wick"/>
<rect x="472.81" y="453.19" width="8.00" height="18.93" class="up-body"/>
<line x1="504.86" y1="401.67" x2="504.86" y2="456.66" class="up-wick"/>
<rect x="500.86" y="424.55" width="8.00" height="28.65" class="up-body"/>
<line x1="532.92" y1="395.43" x2="532.92" y2="432.34" class="up-wick"/>
<rect x="528.92" y="399.65" width="8.00" height="24.90" class="up-body"/>
<line x1="560.97" y1="390.73" x2="560.97" y2="410.23" class="down-wick"/>
<rect x="556.97" y="399.65" width="8.00" height="6.99" class="down-body"/>
<line x1="589.03" y1="389.66" x2="589.03" y2="415.58" class="up-wick"/>
<rect x="585.03" y="400.63" width="8.00" height="6.01" class="up-body"/>
<line x1="617.08" y1="385.91" x2="617.08" y2="413.50" class="down-wick"/>
<rect x="613.08" y="400.63" width="8.00" height="5.59" class="down-body"/>
<line x1="645.14" y1="401.58" x2="645.14" y2="421.73" class="down-wick"/>
<rect x="641.14" y="406.22" width="8.00" height="9.03" class="down-body"/>
<line x1="673.19" y1="395.77" x2="673.19" y2="418.20" class="up-wick"/>
<rect x="669.19" y="401.20" width="8.00" height="14.05" class="up-body"/>
<line x1="701.25" y1="374.66" x2="701.25" y2="425.10" class="up-wick"/>
<rect x="697.25" y="379.55" width="8.00" height="21.66" class="up-body"/>
<line x1="729.31" y1="374.91" x2="729.31" y2="393.68" class="down-wick"/>
<rect x="725.31" y="379.55" width="8.00" height="10.07" class="down-body"/>
<line x1="757.36" y1="370.47" x2="757.36" y2="390.11" class="up-wick"/>
<rect x="753.36" y="382.56" width="8.00" height="7.08" class="up-body"/>
<line x1="785.42" y1="376.46" x2="785.42" y2="414.45" class="down-wick"/>
<rect x="781.42" y="382.56" width="8.00" height="25.92" class="down-body"/>
<line x1="813.47" y1="382.79" x2="813.47" y2="409.59" class="up-wick"/>
<rect x="809.47" y="388.47" width="8.00" height="20.15" class="up-body"/>
<line x1="841.53" y1="379.68" x2="841.53" y2="403.00" class="down-wick"/>
<rect x="837.53" y="388.47" width="8.00" height="2.31" class="down-body"/>
<line x1="869.58" y1="385.91" x2="869.58" y2="407.90" class="down-wick"/>
<rect x="865.58" y="390.73" width="8.00" height="5.44" class="down-body"/>
<line x1="897.64" y1="368.58" x2="897.64" y2="403.58" class="up-wick"/>
<rect x="893.64" y="372.78" width="8.00" height="23.39" class="up-body"/>
<line x1="925.69" y1="365.50" x2="925.69" y2="395.74" class="down-wick"/>
<rect x="921.69" y="372.78" width="8.00" height="20.39" class="down-body"/>
<line x1="953.75" y1="385.47" x2="953.75" y2="414.67" class="down-wick"/>
<rect x="949.75" y="393.17" width="8.00" height="19.22" class="down-body"/>
<line x1="981.81" y1="391.17" x2="981.81" y2="415.18" class="up-wick"/>
<rect x="977.81" y="397.96" width="8.00" height="14.42" class="up-body"/>
<line x1="1009.86" y1="374.18" x2="1009.86" y2="404.55" class="up-wick"/>
<rect x="1005.86" y="397.67" width="8.00" height="1.00" class="up-body"/>
<line x1="1037.92" y1="376.48" x2="1037.92" y2="404.33" class="up-wick"/>
<rect x="1033.92" y="390.68" width="8.00" height="6.97" class="up-body"/>
<line x1="1065.97" y1="375.11" x2="1065.97" y2="395.52" class="up-wick"/>
<rect x="1061.97" y="377.15" width="8.00" height="13.54" class="up-body"/>
<line x1="70" y1="524.49" x2="1080" y2="524.49" class="sweep-line"/>
<text x="1076" y="520.49" text-anchor="end" class="level-label">sweep 4480.42</text>
<text x="70" y="556" class="axis-label">2026-05-18 01:00:00+00:00 to 2026-05-18 09:45:00+00:00</text>
<text x="1080" y="556" text-anchor="end" class="axis-label">4474.33 - 4560.86</text>
<text x="70" y="582" class="panel-title">M5 reaction / execution context</text>
<rect x="70" y="596" width="1010" height="192" class="plot-bg"/>
<line x1="79.18" y1="620.45" x2="79.18" y2="631.90" class="down-wick"/>
<rect x="75.18" y="624.71" width="8.00" height="5.02" class="down-body"/>
<line x1="97.55" y1="618.03" x2="97.55" y2="629.72" class="up-wick"/>
<rect x="93.55" y="625.12" width="8.00" height="4.60" class="up-body"/>
<line x1="115.91" y1="619.84" x2="115.91" y2="633.93" class="down-wick"/>
<rect x="111.91" y="625.12" width="8.00" height="8.49" class="down-body"/>
<line x1="134.27" y1="629.36" x2="134.27" y2="641.57" class="up-wick"/>
<rect x="130.27" y="631.00" width="8.00" height="2.62" class="up-body"/>
<line x1="152.64" y1="625.20" x2="152.64" y2="636.09" class="up-wick"/>
<rect x="148.64" y="630.70" width="8.00" height="1.00" class="up-body"/>
<line x1="171.00" y1="625.81" x2="171.00" y2="647.00" class="down-wick"/>
<rect x="167.00" y="630.63" width="8.00" height="1.00" class="down-body"/>
<line x1="189.36" y1="628.38" x2="189.36" y2="648.59" class="down-wick"/>
<rect x="185.36" y="630.97" width="8.00" height="3.01" class="down-body"/>
<line x1="207.73" y1="618.56" x2="207.73" y2="634.98" class="up-wick"/>
<rect x="203.73" y="625.66" width="8.00" height="8.32" class="up-body"/>
<line x1="226.09" y1="622.97" x2="226.09" y2="639.58" class="down-wick"/>
<rect x="222.09" y="625.93" width="8.00" height="9.74" class="down-body"/>
<line x1="244.45" y1="622.43" x2="244.45" y2="652.33" class="down-wick"/>
<rect x="240.45" y="635.62" width="8.00" height="14.88" class="down-body"/>
<line x1="262.82" y1="644.06" x2="262.82" y2="670.39" class="down-wick"/>
<rect x="258.82" y="650.50" width="8.00" height="17.40" class="down-body"/>
<line x1="281.18" y1="653.41" x2="281.18" y2="667.92" class="up-wick"/>
<rect x="277.18" y="662.22" width="8.00" height="5.68" class="up-body"/>
<line x1="299.55" y1="654.54" x2="299.55" y2="670.37" class="down-wick"/>
<rect x="295.55" y="662.22" width="8.00" height="8.00" class="down-body"/>
<line x1="317.91" y1="644.28" x2="317.91" y2="684.93" class="down-wick"/>
<rect x="313.91" y="670.22" width="8.00" height="13.70" class="down-body"/>
<line x1="336.27" y1="675.38" x2="336.27" y2="691.39" class="down-wick"/>
<rect x="332.27" y="683.88" width="8.00" height="4.09" class="down-body"/>
<line x1="354.64" y1="679.79" x2="354.64" y2="756.75" class="down-wick"/>
<rect x="350.64" y="687.96" width="8.00" height="57.58" class="down-body"/>
<line x1="373.00" y1="718.50" x2="373.00" y2="752.64" class="down-wick"/>
<rect x="369.00" y="745.54" width="8.00" height="4.87" class="down-body"/>
<line x1="391.36" y1="742.21" x2="391.36" y2="774.46" class="down-wick"/>
<rect x="387.36" y="750.41" width="8.00" height="21.17" class="down-body"/>
<line x1="409.73" y1="735.34" x2="409.73" y2="774.76" class="up-wick"/>
<rect x="405.73" y="740.48" width="8.00" height="31.10" class="up-body"/>
<line x1="428.09" y1="736.61" x2="428.09" y2="759.61" class="down-wick"/>
<rect x="424.09" y="740.50" width="8.00" height="5.82" class="down-body"/>
<line x1="446.45" y1="685.69" x2="446.45" y2="747.06" class="up-wick"/>
<rect x="442.45" y="687.40" width="8.00" height="58.92" class="up-body"/>
<line x1="464.82" y1="686.98" x2="464.82" y2="752.05" class="down-wick"/>
<rect x="460.82" y="688.67" width="8.00" height="43.41" class="down-body"/>
<line x1="483.18" y1="714.66" x2="483.18" y2="744.88" class="up-wick"/>
<rect x="479.18" y="722.59" width="8.00" height="9.49" class="up-body"/>
<line x1="501.55" y1="713.36" x2="501.55" y2="740.28" class="down-wick"/>
<rect x="497.55" y="722.59" width="8.00" height="13.78" class="down-body"/>
<line x1="519.91" y1="725.21" x2="519.91" y2="743.97" class="up-wick"/>
<rect x="515.91" y="730.42" width="8.00" height="5.97" class="up-body"/>
<line x1="538.27" y1="706.73" x2="538.27" y2="742.63" class="up-wick"/>
<rect x="534.27" y="710.43" width="8.00" height="19.99" class="up-body"/>
<line x1="556.64" y1="702.08" x2="556.64" y2="730.08" class="down-wick"/>
<rect x="552.64" y="710.43" width="8.00" height="6.29" class="down-body"/>
<line x1="575.00" y1="698.75" x2="575.00" y2="723.05" class="up-wick"/>
<rect x="571.00" y="701.91" width="8.00" height="14.80" class="up-body"/>
<line x1="593.36" y1="692.66" x2="593.36" y2="727.04" class="down-wick"/>
<rect x="589.36" y="701.91" width="8.00" height="4.38" class="down-body"/>
<line x1="611.73" y1="695.08" x2="611.73" y2="711.70" class="up-wick"/>
<rect x="607.73" y="695.84" width="8.00" height="10.45" class="up-body"/>
<line x1="630.09" y1="656.40" x2="630.09" y2="699.66" class="up-wick"/>
<rect x="626.09" y="657.52" width="8.00" height="38.32" class="up-body"/>
<line x1="648.45" y1="639.02" x2="648.45" y2="663.05" class="up-wick"/>
<rect x="644.45" y="652.68" width="8.00" height="4.85" class="up-body"/>
<line x1="666.82" y1="651.82" x2="666.82" y2="665.67" class="down-wick"/>
<rect x="662.82" y="652.36" width="8.00" height="11.89" class="down-body"/>
<line x1="685.18" y1="638.70" x2="685.18" y2="672.84" class="up-wick"/>
<rect x="681.18" y="647.83" width="8.00" height="16.42" class="up-body"/>
<line x1="703.55" y1="644.09" x2="703.55" y2="663.71" class="down-wick"/>
<rect x="699.55" y="647.83" width="8.00" height="8.05" class="down-body"/>
<line x1="721.91" y1="632.15" x2="721.91" y2="658.48" class="up-wick"/>
<rect x="717.91" y="636.79" width="8.00" height="19.11" class="up-body"/>
<line x1="740.27" y1="633.81" x2="740.27" y2="648.47" class="down-wick"/>
<rect x="736.27" y="636.79" width="8.00" height="4.40" class="down-body"/>
<line x1="758.64" y1="626.96" x2="758.64" y2="645.53" class="up-wick"/>
<rect x="754.64" y="634.64" width="8.00" height="6.56" class="up-body"/>
<line x1="777.00" y1="628.45" x2="777.00" y2="644.50" class="down-wick"/>
<rect x="773.00" y="634.64" width="8.00" height="9.86" class="down-body"/>
<line x1="795.36" y1="634.15" x2="795.36" y2="654.36" class="down-wick"/>
<rect x="791.36" y="644.50" width="8.00" height="3.35" class="down-body"/>
<line x1="813.73" y1="632.29" x2="813.73" y2="651.40" class="up-wick"/>
<rect x="809.73" y="633.05" width="8.00" height="14.78" class="up-body"/>
<line x1="832.09" y1="625.78" x2="832.09" y2="640.78" class="down-wick"/>
<rect x="828.09" y="633.05" width="8.00" height="4.82" class="down-body"/>
<line x1="850.45" y1="621.65" x2="850.45" y2="651.92" class="down-wick"/>
<rect x="846.45" y="637.87" width="8.00" height="13.56" class="down-body"/>
<line x1="868.82" y1="639.58" x2="868.82" y2="652.06" class="up-wick"/>
<rect x="864.82" y="643.13" width="8.00" height="8.30" class="up-body"/>
<line x1="887.18" y1="640.73" x2="887.18" y2="650.87" class="down-wick"/>
<rect x="883.18" y="643.13" width="8.00" height="1.00" class="down-body"/>
<line x1="905.55" y1="638.92" x2="905.55" y2="653.61" class="down-wick"/>
<rect x="901.55" y="644.04" width="8.00" height="5.92" class="down-body"/>
<line x1="923.91" y1="641.27" x2="923.91" y2="658.97" class="up-wick"/>
<rect x="919.91" y="645.65" width="8.00" height="4.31" class="up-body"/>
<line x1="942.27" y1="639.00" x2="942.27" y2="661.14" class="down-wick"/>
<rect x="938.27" y="645.56" width="8.00" height="8.44" class="down-body"/>
<line x1="960.64" y1="645.36" x2="960.64" y2="657.25" class="up-wick"/>
<rect x="956.64" y="651.26" width="8.00" height="2.74" class="up-body"/>
<line x1="979.00" y1="636.87" x2="979.00" y2="654.88" class="up-wick"/>
<rect x="975.00" y="644.38" width="8.00" height="6.88" class="up-body"/>
<line x1="997.36" y1="632.51" x2="997.36" y2="654.81" class="up-wick"/>
<rect x="993.36" y="638.51" width="8.00" height="5.87" class="up-body"/>
<line x1="1015.73" y1="633.61" x2="1015.73" y2="662.10" class="down-wick"/>
<rect x="1011.73" y="638.51" width="8.00" height="22.00" class="down-body"/>
<line x1="1034.09" y1="634.64" x2="1034.09" y2="664.86" class="up-wick"/>
<rect x="1030.09" y="640.15" width="8.00" height="20.43" class="up-body"/>
<line x1="1052.45" y1="609.24" x2="1052.45" y2="643.74" class="up-wick"/>
<rect x="1048.45" y="614.62" width="8.00" height="25.52" class="up-body"/>
<line x1="1070.82" y1="609.51" x2="1070.82" y2="629.72" class="down-wick"/>
<rect x="1066.82" y="614.62" width="8.00" height="8.86" class="down-body"/>
<line x1="70" y1="774.46" x2="1080" y2="774.46" class="sweep-line"/>
<text x="1076" y="770.46" text-anchor="end" class="level-label">sweep 4480.42</text>
<text x="70" y="806" class="axis-label">2026-05-18 02:15:00+00:00 to 2026-05-18 06:45:00+00:00</text>
<text x="1080" y="806" text-anchor="end" class="axis-label">4474.89 - 4553.35</text>
<text x="70" y="832" class="panel-title">M1 execution window</text>
<rect x="70" y="846" width="1010" height="192" class="plot-bg"/>
<line x1="73.71" y1="872.35" x2="73.71" y2="876.06" class="down-wick"/>
<rect x="71.30" y="874.46" width="4.83" height="1.00" class="down-body"/>
<line x1="81.14" y1="873.82" x2="81.14" y2="881.67" class="down-wick"/>
<rect x="78.73" y="875.74" width="4.83" height="2.35" class="down-body"/>
<line x1="88.57" y1="874.98" x2="88.57" y2="880.83" class="down-wick"/>
<rect x="86.15" y="875.88" width="4.83" height="3.60" class="down-body"/>
<line x1="95.99" y1="868.97" x2="95.99" y2="872.60" class="up-wick"/>
<rect x="93.58" y="870.22" width="4.83" height="1.00" class="up-body"/>
<line x1="103.42" y1="871.57" x2="103.42" y2="875.49" class="down-wick"/>
<rect x="101.01" y="872.13" width="4.83" height="3.31" class="down-body"/>
<line x1="110.85" y1="869.58" x2="110.85" y2="879.05" class="down-wick"/>
<rect x="108.43" y="874.88" width="4.83" height="4.17" class="down-body"/>
<line x1="118.27" y1="874.14" x2="118.27" y2="879.61" class="up-wick"/>
<rect x="115.86" y="878.38" width="4.83" height="1.05" class="up-body"/>
<line x1="125.70" y1="877.97" x2="125.70" y2="883.60" class="down-wick"/>
<rect x="123.28" y="880.91" width="4.83" height="2.48" class="down-body"/>
<line x1="133.12" y1="882.67" x2="133.12" y2="886.89" class="up-wick"/>
<rect x="130.71" y="884.22" width="4.83" height="2.67" class="up-body"/>
<line x1="140.55" y1="881.82" x2="140.55" y2="886.10" class="down-wick"/>
<rect x="138.14" y="881.84" width="4.83" height="1.00" class="down-body"/>
<line x1="147.98" y1="875.10" x2="147.98" y2="885.83" class="down-wick"/>
<rect x="145.56" y="880.76" width="4.83" height="3.65" class="down-body"/>
<line x1="155.40" y1="875.20" x2="155.40" y2="878.95" class="up-wick"/>
<rect x="152.99" y="876.25" width="4.83" height="2.65" class="up-body"/>
<line x1="162.83" y1="878.75" x2="162.83" y2="882.94" class="down-wick"/>
<rect x="160.42" y="879.39" width="4.83" height="1.08" class="down-body"/>
<line x1="170.26" y1="885.03" x2="170.26" y2="896.25" class="up-wick"/>
<rect x="167.84" y="887.28" width="4.83" height="7.33" class="up-body"/>
<line x1="177.68" y1="878.41" x2="177.68" y2="885.91" class="up-wick"/>
<rect x="175.27" y="879.95" width="4.83" height="5.69" class="up-body"/>
<line x1="185.11" y1="880.39" x2="185.11" y2="895.81" class="down-wick"/>
<rect x="182.70" y="880.74" width="4.83" height="12.52" class="down-body"/>
<line x1="192.54" y1="889.02" x2="192.54" y2="896.79" class="up-wick"/>
<rect x="190.12" y="889.02" width="4.83" height="6.42" class="up-body"/>
<line x1="199.96" y1="879.09" x2="199.96" y2="884.58" class="down-wick"/>
<rect x="197.55" y="880.49" width="4.83" height="3.26" class="down-body"/>
<line x1="207.39" y1="879.46" x2="207.39" y2="884.76" class="up-wick"/>
<rect x="204.98" y="880.54" width="4.83" height="2.77" class="up-body"/>
<line x1="214.82" y1="868.31" x2="214.82" y2="876.37" class="up-wick"/>
<rect x="212.40" y="870.91" width="4.83" height="5.47" class="up-body"/>
<line x1="222.24" y1="875.25" x2="222.24" y2="885.39" class="down-wick"/>
<rect x="219.83" y="875.69" width="4.83" height="5.17" class="down-body"/>
<line x1="229.67" y1="881.64" x2="229.67" y2="887.94" class="down-wick"/>
<rect x="227.26" y="882.55" width="4.83" height="3.33" class="down-body"/>
<line x1="237.10" y1="883.46" x2="237.10" y2="888.97" class="up-wick"/>
<rect x="234.68" y="885.44" width="4.83" height="2.45" class="up-body"/>
<line x1="244.52" y1="882.70" x2="244.52" y2="898.70" class="down-wick"/>
<rect x="242.11" y="893.38" width="4.83" height="3.36" class="down-body"/>
<line x1="251.95" y1="878.70" x2="251.95" y2="902.13" class="down-wick"/>
<rect x="249.53" y="879.73" width="4.83" height="17.55" class="down-body"/>
<line x1="259.38" y1="893.85" x2="259.38" y2="907.89" class="down-wick"/>
<rect x="256.96" y="900.30" width="4.83" height="6.20" class="down-body"/>
<line x1="266.80" y1="900.91" x2="266.80" y2="908.26" class="down-wick"/>
<rect x="264.39" y="901.57" width="4.83" height="4.98" class="down-body"/>
<line x1="274.23" y1="908.53" x2="274.23" y2="920.22" class="down-wick"/>
<rect x="271.81" y="915.10" width="4.83" height="2.62" class="down-body"/>
<line x1="281.65" y1="904.12" x2="281.65" y2="917.13" class="up-wick"/>
<rect x="279.24" y="906.30" width="4.83" height="9.78" class="up-body"/>
<line x1="289.08" y1="910.47" x2="289.08" y2="917.75" class="down-wick"/>
<rect x="286.67" y="910.47" width="4.83" height="2.21" class="down-body"/>
<line x1="296.51" y1="909.44" x2="296.51" y2="918.26" class="down-wick"/>
<rect x="294.09" y="912.04" width="4.83" height="1.00" class="down-body"/>
<line x1="303.93" y1="904.34" x2="303.93" y2="912.38" class="up-wick"/>
<rect x="301.52" y="909.29" width="4.83" height="1.00" class="up-body"/>
<line x1="311.36" y1="909.83" x2="311.36" y2="920.20" class="down-wick"/>
<rect x="308.95" y="911.40" width="4.83" height="8.65" class="down-body"/>
<line x1="318.79" y1="894.07" x2="318.79" y2="911.62" class="down-wick"/>
<rect x="316.37" y="894.78" width="4.83" height="16.45" class="down-body"/>
<line x1="326.21" y1="910.59" x2="326.21" y2="918.78" class="down-wick"/>
<rect x="323.80" y="911.99" width="4.83" height="5.17" class="down-body"/>
<line x1="333.64" y1="927.82" x2="333.64" y2="933.73" class="up-wick"/>
<rect x="331.23" y="928.58" width="4.83" height="5.15" class="up-body"/>
<line x1="341.07" y1="927.18" x2="341.07" y2="934.02" class="down-wick"/>
<rect x="338.65" y="927.48" width="4.83" height="5.64" class="down-body"/>
<line x1="348.49" y1="932.82" x2="348.49" y2="941.25" class="down-wick"/>
<rect x="346.08" y="933.78" width="4.83" height="4.04" class="down-body"/>
<line x1="355.92" y1="929.63" x2="355.92" y2="939.37" class="up-wick"/>
<rect x="353.51" y="935.05" width="4.83" height="4.04" class="up-body"/>
<line x1="363.35" y1="936.50" x2="363.35" y2="976.77" class="down-wick"/>
<rect x="360.93" y="938.36" width="4.83" height="36.69" class="down-body"/>
<line x1="370.77" y1="976.20" x2="370.77" y2="995.49" class="up-wick"/>
<rect x="368.36" y="978.36" width="4.83" height="17.13" class="up-body"/>
<line x1="378.20" y1="973.36" x2="378.20" y2="1002.60" class="down-wick"/>
<rect x="375.78" y="973.63" width="4.83" height="10.22" class="down-body"/>
<line x1="385.62" y1="989.39" x2="385.62" y2="1002.26" class="down-wick"/>
<rect x="383.21" y="994.56" width="4.83" height="5.81" class="down-body"/>
<line x1="393.05" y1="1006.40" x2="393.05" y2="1015.62" class="down-wick"/>
<rect x="390.64" y="1010.69" width="4.83" height="1.10" class="down-body"/>
<line x1="400.48" y1="1006.62" x2="400.48" y2="1015.59" class="down-wick"/>
<rect x="398.06" y="1008.02" width="4.83" height="6.20" class="down-body"/>
<line x1="407.90" y1="1012.77" x2="407.90" y2="1024.76" class="up-wick"/>
<rect x="405.49" y="1013.41" width="4.83" height="8.16" class="up-body"/>
<line x1="415.33" y1="1000.08" x2="415.33" y2="1007.85" class="down-wick"/>
<rect x="412.92" y="1001.57" width="4.83" height="2.94" class="down-body"/>
<line x1="422.76" y1="985.27" x2="422.76" y2="998.36" class="up-wick"/>
<rect x="420.34" y="990.42" width="4.83" height="6.64" class="up-body"/>
<line x1="430.18" y1="988.73" x2="430.18" y2="1000.40" class="down-wick"/>
<rect x="427.77" y="989.41" width="4.83" height="9.36" class="down-body"/>
<line x1="437.61" y1="995.69" x2="437.61" y2="1004.54" class="up-wick"/>
<rect x="435.20" y="999.51" width="4.83" height="4.36" class="up-body"/>
<line x1="445.04" y1="989.83" x2="445.04" y2="997.01" class="up-wick"/>
<rect x="442.62" y="992.21" width="4.83" height="4.07" class="up-body"/>
<line x1="452.46" y1="958.95" x2="452.46" y2="970.20" class="up-wick"/>
<rect x="450.05" y="961.72" width="4.83" height="6.45" class="up-body"/>
<line x1="459.89" y1="935.54" x2="459.89" y2="964.61" class="up-wick"/>
<rect x="457.48" y="937.26" width="4.83" height="27.35" class="up-body"/>
<line x1="467.32" y1="962.67" x2="467.32" y2="982.85" class="down-wick"/>
<rect x="464.90" y="962.87" width="4.83" height="16.84" class="down-body"/>
<line x1="474.74" y1="985.96" x2="474.74" y2="1002.01" class="up-wick"/>
<rect x="472.33" y="989.61" width="4.83" height="1.18" class="up-body"/>
<line x1="482.17" y1="970.49" x2="482.17" y2="984.93" class="up-wick"/>
<rect x="479.76" y="972.63" width="4.83" height="9.39" class="up-body"/>
<line x1="489.60" y1="969.00" x2="489.60" y2="994.83" class="down-wick"/>
<rect x="487.18" y="969.00" width="4.83" height="11.72" class="down-body"/>
<line x1="497.02" y1="970.76" x2="497.02" y2="986.38" class="up-wick"/>
<rect x="494.61" y="972.50" width="4.83" height="3.14" class="up-body"/>
<line x1="504.45" y1="963.26" x2="504.45" y2="976.23" class="up-wick"/>
<rect x="502.03" y="965.96" width="4.83" height="6.79" class="up-body"/>
<line x1="511.88" y1="969.93" x2="511.88" y2="982.85" class="down-wick"/>
<rect x="509.46" y="971.20" width="4.83" height="3.68" class="down-body"/>
<line x1="519.30" y1="979.54" x2="519.30" y2="993.92" class="up-wick"/>
<rect x="516.89" y="985.20" width="4.83" height="1.13" class="up-body"/>
<line x1="526.73" y1="976.52" x2="526.73" y2="986.91" class="up-wick"/>
<rect x="524.31" y="980.03" width="4.83" height="1.30" class="up-body"/>
<line x1="534.15" y1="978.07" x2="534.15" y2="987.55" class="up-wick"/>
<rect x="531.74" y="980.35" width="4.83" height="1.00" class="up-body"/>
<line x1="541.58" y1="977.50" x2="541.58" y2="990.10" class="up-wick"/>
<rect x="539.17" y="978.41" width="4.83" height="9.19" class="up-body"/>
<line x1="549.01" y1="970.66" x2="549.01" y2="980.32" class="down-wick"/>
<rect x="546.59" y="973.51" width="4.83" height="3.06" class="down-body"/>
<line x1="556.43" y1="960.32" x2="556.43" y2="980.00" class="down-wick"/>
<rect x="554.02" y="960.32" width="4.83" height="10.83" class="down-body"/>
<line x1="563.86" y1="956.89" x2="563.86" y2="968.19" class="up-wick"/>
<rect x="561.45" y="958.97" width="4.83" height="1.00" class="up-body"/>
<line x1="571.29" y1="962.28" x2="571.29" y2="969.56" class="up-wick"/>
<rect x="568.87" y="966.62" width="4.83" height="1.84" class="up-body"/>
<line x1="578.71" y1="958.65" x2="578.71" y2="972.97" class="up-wick"/>
<rect x="576.30" y="960.10" width="4.83" height="4.17" class="up-body"/>
<line x1="586.14" y1="950.49" x2="586.14" y2="959.81" class="up-wick"/>
<rect x="583.73" y="951.77" width="4.83" height="1.91" class="up-body"/>
<line x1="593.57" y1="942.53" x2="593.57" y2="953.75" class="up-wick"/>
<rect x="591.15" y="949.63" width="4.83" height="2.16" class="up-body"/>
<line x1="600.99" y1="956.91" x2="600.99" y2="973.43" class="down-wick"/>
<rect x="598.58" y="957.77" width="4.83" height="12.82" class="down-body"/>
<line x1="608.42" y1="951.33" x2="608.42" y2="969.34" class="up-wick"/>
<rect x="606.01" y="956.18" width="4.83" height="8.31" class="up-body"/>
<line x1="615.85" y1="953.09" x2="615.85" y2="961.60" class="up-wick"/>
<rect x="613.43" y="957.38" width="4.83" height="1.00" class="up-body"/>
<line x1="623.27" y1="946.30" x2="623.27" y2="957.85" class="down-wick"/>
<rect x="620.86" y="953.97" width="4.83" height="1.00" class="down-body"/>
<line x1="630.70" y1="940.17" x2="630.70" y2="949.54" class="down-wick"/>
<rect x="628.28" y="945.71" width="4.83" height="3.48" class="down-body"/>
<line x1="638.12" y1="921.03" x2="638.12" y2="941.28" class="up-wick"/>
<rect x="635.71" y="921.89" width="4.83" height="18.75" class="up-body"/>
<line x1="645.55" y1="906.20" x2="645.55" y2="916.89" class="up-wick"/>
<rect x="643.14" y="907.33" width="4.83" height="7.87" class="up-body"/>
<line x1="652.98" y1="888.80" x2="652.98" y2="907.70" class="up-wick"/>
<rect x="650.56" y="896.86" width="4.83" height="10.51" class="up-body"/>
<line x1="660.40" y1="890.64" x2="660.40" y2="904.98" class="up-wick"/>
<rect x="657.99" y="893.65" width="4.83" height="10.91" class="up-body"/>
<line x1="667.83" y1="901.62" x2="667.83" y2="908.97" class="down-wick"/>
<rect x="665.42" y="902.16" width="4.83" height="5.76" class="down-body"/>
<line x1="675.26" y1="904.41" x2="675.26" y2="910.52" class="up-wick"/>
<rect x="672.84" y="905.32" width="4.83" height="2.18" class="up-body"/>
<line x1="682.68" y1="910.03" x2="682.68" y2="915.49" class="down-wick"/>
<rect x="680.27" y="910.03" width="4.83" height="4.04" class="down-body"/>
<line x1="690.11" y1="902.75" x2="690.11" y2="916.37" class="up-wick"/>
<rect x="687.70" y="904.98" width="4.83" height="11.10" class="up-body"/>
<line x1="697.54" y1="888.48" x2="697.54" y2="899.93" class="down-wick"/>
<rect x="695.12" y="893.92" width="4.83" height="2.45" class="down-body"/>
<line x1="704.96" y1="893.87" x2="704.96" y2="904.71" class="down-wick"/>
<rect x="702.55" y="897.62" width="4.83" height="3.28" class="down-body"/>
<line x1="712.39" y1="901.74" x2="712.39" y2="913.53" class="down-wick"/>
<rect x="709.98" y="901.74" width="4.83" height="7.77" class="down-body"/>
<line x1="719.82" y1="903.85" x2="719.82" y2="908.75" class="down-wick"/>
<rect x="717.40" y="905.27" width="4.83" height="1.00" class="down-body"/>
<line x1="727.24" y1="896.82" x2="727.24" y2="908.14" class="up-wick"/>
<rect x="724.83" y="899.07" width="4.83" height="5.86" class="up-body"/>
<line x1="734.67" y1="889.98" x2="734.67" y2="897.28" class="up-wick"/>
<rect x="732.26" y="890.05" width="4.83" height="3.24" class="up-body"/>
<line x1="742.10" y1="883.58" x2="742.10" y2="890.25" class="down-wick"/>
<rect x="739.68" y="886.57" width="4.83" height="2.45" class="down-body"/>
<line x1="749.52" y1="884.49" x2="749.52" y2="896.86" class="down-wick"/>
<rect x="747.11" y="884.49" width="4.83" height="11.32" class="down-body"/>
<line x1="756.95" y1="886.25" x2="756.95" y2="894.27" class="up-wick"/>
<rect x="754.53" y="890.98" width="4.83" height="3.28" class="up-body"/>
<line x1="764.38" y1="890.42" x2="764.38" y2="894.09" class="down-wick"/>
<rect x="761.96" y="891.64" width="4.83" height="1.00" class="down-body"/>
<line x1="771.80" y1="876.72" x2="771.80" y2="886.33" class="up-wick"/>
<rect x="769.39" y="880.61" width="4.83" height="2.70" class="up-body"/>
<line x1="779.23" y1="883.68" x2="779.23" y2="887.62" class="down-wick"/>
<rect x="776.81" y="884.41" width="4.83" height="1.00" class="down-body"/>
<line x1="786.65" y1="878.21" x2="786.65" y2="887.45" class="down-wick"/>
<rect x="784.24" y="878.65" width="4.83" height="8.55" class="down-body"/>
<line x1="794.08" y1="886.40" x2="794.08" y2="894.29" class="down-wick"/>
<rect x="791.67" y="889.81" width="4.83" height="4.49" class="down-body"/>
<line x1="801.51" y1="883.95" x2="801.51" y2="902.40" class="up-wick"/>
<rect x="799.09" y="888.11" width="4.83" height="13.68" class="up-body"/>
<line x1="808.93" y1="892.09" x2="808.93" y2="898.48" class="down-wick"/>
<rect x="806.52" y="893.07" width="4.83" height="1.91" class="down-body"/>
<line x1="816.36" y1="891.52" x2="816.36" y2="901.20" class="up-wick"/>
<rect x="813.95" y="891.52" width="4.83" height="6.10" class="up-body"/>
<line x1="823.79" y1="882.06" x2="823.79" y2="893.95" class="up-wick"/>
<rect x="821.37" y="885.61" width="4.83" height="4.95" class="up-body"/>
<line x1="831.21" y1="882.16" x2="831.21" y2="890.27" class="up-wick"/>
<rect x="828.80" y="882.82" width="4.83" height="5.51" class="up-body"/>
<line x1="838.64" y1="875.54" x2="838.64" y2="883.60" class="down-wick"/>
<rect x="836.23" y="878.07" width="4.83" height="2.89" class="down-body"/>
<line x1="846.07" y1="883.31" x2="846.07" y2="890.57" class="down-wick"/>
<rect x="843.65" y="884.12" width="4.83" height="2.06" class="down-body"/>
<line x1="853.49" y1="886.67" x2="853.49" y2="890.93" class="down-wick"/>
<rect x="851.08" y="887.65" width="4.83" height="1.54" class="down-body"/>
<line x1="860.92" y1="871.40" x2="860.92" y2="878.97" class="down-wick"/>
<rect x="858.51" y="872.40" width="4.83" height="6.57" class="down-body"/>
<line x1="868.35" y1="884.81" x2="868.35" y2="901.72" class="down-wick"/>
<rect x="865.93" y="885.00" width="4.83" height="16.23" class="down-body"/>
<line x1="875.77" y1="891.37" x2="875.77" y2="898.65" class="up-wick"/>
<rect x="873.36" y="893.97" width="4.83" height="3.82" class="up-body"/>
<line x1="883.20" y1="889.36" x2="883.20" y2="897.31" class="up-wick"/>
<rect x="880.78" y="889.54" width="4.83" height="7.21" class="up-body"/>
<line x1="890.62" y1="890.66" x2="890.62" y2="896.82" class="down-wick"/>
<rect x="888.21" y="892.92" width="4.83" height="1.67" class="down-body"/>
<line x1="898.05" y1="892.67" x2="898.05" y2="896.74" class="up-wick"/>
<rect x="895.64" y="894.02" width="4.83" height="2.50" class="up-body"/>
<line x1="905.48" y1="892.58" x2="905.48" y2="896.37" class="up-wick"/>
<rect x="903.06" y="893.83" width="4.83" height="1.00" class="up-body"/>
<line x1="912.90" y1="892.45" x2="912.90" y2="897.75" class="up-wick"/>
<rect x="910.49" y="892.53" width="4.83" height="2.79" class="up-body"/>
<line x1="920.33" y1="894.32" x2="920.33" y2="901.15" class="down-wick"/>
<rect x="917.92" y="894.41" width="4.83" height="6.59" class="down-body"/>
<line x1="927.76" y1="898.31" x2="927.76" y2="905.98" class="down-wick"/>
<rect x="925.34" y="899.76" width="4.83" height="6.18" class="down-body"/>
<line x1="935.18" y1="904.02" x2="935.18" y2="908.78" class="up-wick"/>
<rect x="932.77" y="907.70" width="4.83" height="1.00" class="up-body"/>
<line x1="942.61" y1="892.84" x2="942.61" y2="896.35" class="down-wick"/>
<rect x="940.20" y="892.84" width="4.83" height="2.60" class="down-body"/>
<line x1="950.04" y1="888.78" x2="950.04" y2="894.09" class="down-wick"/>
<rect x="947.62" y="892.82" width="4.83" height="1.10" class="down-body"/>
<line x1="957.46" y1="900.17" x2="957.46" y2="910.96" class="down-wick"/>
<rect x="955.05" y="900.98" width="4.83" height="1.00" class="down-body"/>
<line x1="964.89" y1="899.56" x2="964.89" y2="907.06" class="up-wick"/>
<rect x="962.48" y="899.63" width="4.83" height="4.17" class="up-body"/>
<line x1="972.32" y1="898.78" x2="972.32" y2="903.73" class="up-wick"/>
<rect x="969.90" y="900.15" width="4.83" height="3.36" class="up-body"/>
<line x1="979.74" y1="895.15" x2="979.74" y2="901.06" class="down-wick"/>
<rect x="977.33" y="897.97" width="4.83" height="3.09" class="down-body"/>
<line x1="987.17" y1="898.68" x2="987.17" y2="902.99" class="down-wick"/>
<rect x="984.76" y="899.90" width="4.83" height="1.08" class="down-body"/>
<line x1="994.60" y1="888.07" x2="994.60" y2="897.80" class="up-wick"/>
<rect x="992.18" y="888.83" width="4.83" height="6.45" class="up-body"/>
<line x1="1002.02" y1="893.80" x2="1002.02" y2="899.09" class="down-wick"/>
<rect x="999.61" y="894.17" width="4.83" height="2.38" class="down-body"/>
<line x1="1009.45" y1="882.28" x2="1009.45" y2="900.08" class="up-wick"/>
<rect x="1007.03" y="885.05" width="4.83" height="14.09" class="up-body"/>
<line x1="1016.88" y1="886.06" x2="1016.88" y2="891.59" class="up-wick"/>
<rect x="1014.46" y="888.29" width="4.83" height="1.27" class="up-body"/>
<line x1="1024.30" y1="895.08" x2="1024.30" y2="903.75" class="down-wick"/>
<rect x="1021.89" y="899.85" width="4.83" height="2.40" class="down-body"/>
<line x1="1031.73" y1="905.93" x2="1031.73" y2="911.91" class="up-wick"/>
<rect x="1029.31" y="906.23" width="4.83" height="1.00" class="up-body"/>
<line x1="1039.15" y1="908.73" x2="1039.15" y2="914.68" class="up-wick"/>
<rect x="1036.74" y="909.51" width="4.83" height="1.00" class="up-body"/>
<line x1="1046.58" y1="888.60" x2="1046.58" y2="894.81" class="down-wick"/>
<rect x="1044.17" y="890.44" width="4.83" height="1.52" class="down-body"/>
<line x1="1054.01" y1="888.90" x2="1054.01" y2="899.39" class="up-wick"/>
<rect x="1051.59" y="889.93" width="4.83" height="3.73" class="up-body"/>
<line x1="1061.43" y1="887.94" x2="1061.43" y2="891.47" class="up-wick"/>
<rect x="1059.02" y="888.58" width="4.83" height="1.40" class="up-body"/>
<line x1="1068.86" y1="876.03" x2="1068.86" y2="888.31" class="up-wick"/>
<rect x="1066.45" y="876.06" width="4.83" height="8.68" class="up-body"/>
<line x1="1076.29" y1="859.24" x2="1076.29" y2="874.29" class="down-wick"/>
<rect x="1073.87" y="864.36" width="4.83" height="9.73" class="down-body"/>
<line x1="70" y1="1024.46" x2="1080" y2="1024.46" class="sweep-line"/>
<text x="1076" y="1020.46" text-anchor="end" class="level-label">sweep 4480.42</text>
<text x="70" y="1056" class="axis-label">2026-05-18 02:15:00+00:00 to 2026-05-18 06:45:00+00:00</text>
<text x="1080" y="1056" text-anchor="end" class="axis-label">4474.90 - 4553.23</text>
</svg>