<svg xmlns="http://www.w3.org/2000/svg" width="1120" height="804" viewBox="0 0 1120 804">
<style>
text{font-family:Arial,Helvetica,sans-serif}.title{font-size:21px;font-weight:700;fill:#1f2937}.subtitle{font-size:12px;fill:#4b5563}.panel-title{font-size:15px;font-weight:700;fill:#111827}.muted{font-size:13px;fill:#6b7280}.plot-bg{fill:#f8fafc;stroke:#cbd5e1;stroke-width:1}.up-body{fill:#15803d;stroke:#14532d;stroke-width:.8}.down-body{fill:#b91c1c;stroke:#7f1d1d;stroke-width:.8}.up-wick{stroke:#14532d;stroke-width:1}.down-wick{stroke:#7f1d1d;stroke-width:1}.sweep-line{stroke:#7c3aed;stroke-width:1.6;stroke-dasharray:6 4}.number-line{stroke:#0f766e;stroke-width:1.4;stroke-dasharray:3 4}.entry-line{stroke:#2563eb;stroke-width:1.4}.sl-line{stroke:#dc2626;stroke-width:1.4}.tp-line{stroke:#16a34a;stroke-width:1.4}.level-label,.axis-label{font-size:11px;fill:#374151}
</style>
<text x="28" y="28" class="title">Adelin v2 visual review sample sample_006</text>
<text x="28" y="48" class="subtitle">Candidate windows are for visual labeling only and are not trade signals.</text>
<text x="560" y="48" class="subtitle" text-anchor="middle">NEW_YORK_OPEN_CONTEXT</text>
<text x="70" y="82" class="panel-title">H1 liquidity context</text>
<rect x="70" y="96" width="1010" height="192" class="plot-bg"/>
<text x="82" y="138" class="muted">No candles available for this timeframe/window.</text>
<text x="70" y="332" class="panel-title">M15 liquidity / reaction context</text>
<rect x="70" y="346" width="1010" height="192" class="plot-bg"/>
<line x1="76.92" y1="438.32" x2="76.92" y2="442.20" class="up-wick"/>
<rect x="72.92" y="439.69" width="8.00" height="1.00" class="up-body"/>
<line x1="90.75" y1="434.90" x2="90.75" y2="439.86" class="up-wick"/>
<rect x="86.75" y="434.96" width="8.00" height="4.62" class="up-body"/>
<line x1="104.59" y1="431.48" x2="104.59" y2="436.04" class="down-wick"/>
<rect x="100.59" y="434.84" width="8.00" height="1.00" class="down-body"/>
<line x1="118.42" y1="433.19" x2="118.42" y2="439.75" class="down-wick"/>
<rect x="114.42" y="434.96" width="8.00" height="2.74" class="down-body"/>
<line x1="132.26" y1="431.48" x2="132.26" y2="437.98" class="up-wick"/>
<rect x="128.26" y="435.47" width="8.00" height="2.17" class="up-body"/>
<line x1="146.10" y1="435.53" x2="146.10" y2="449.27" class="down-wick"/>
<rect x="142.10" y="435.53" width="8.00" height="9.69" class="down-body"/>
<line x1="159.93" y1="440.77" x2="159.93" y2="451.15" class="up-wick"/>
<rect x="155.93" y="444.94" width="8.00" height="1.00" class="up-body"/>
<line x1="173.77" y1="440.95" x2="173.77" y2="459.93" class="down-wick"/>
<rect x="169.77" y="444.71" width="8.00" height="8.55" class="down-body"/>
<line x1="187.60" y1="440.66" x2="187.60" y2="453.26" class="up-wick"/>
<rect x="183.60" y="443.68" width="8.00" height="9.58" class="up-body"/>
<line x1="201.44" y1="431.31" x2="201.44" y2="454.23" class="up-wick"/>
<rect x="197.44" y="431.54" width="8.00" height="11.69" class="up-body"/>
<line x1="215.27" y1="426.86" x2="215.27" y2="438.78" class="down-wick"/>
<rect x="211.27" y="431.20" width="8.00" height="4.85" class="down-body"/>
<line x1="229.11" y1="436.04" x2="229.11" y2="462.21" class="down-wick"/>
<rect x="225.11" y="436.27" width="8.00" height="25.94" class="down-body"/>
<line x1="242.95" y1="453.77" x2="242.95" y2="466.72" class="up-wick"/>
<rect x="238.95" y="459.93" width="8.00" height="2.68" class="up-body"/>
<line x1="256.78" y1="445.56" x2="256.78" y2="464.15" class="up-wick"/>
<rect x="252.78" y="448.24" width="8.00" height="12.43" class="up-body"/>
<line x1="270.62" y1="447.73" x2="270.62" y2="463.47" class="down-wick"/>
<rect x="266.62" y="448.24" width="8.00" height="8.95" class="down-body"/>
<line x1="284.45" y1="456.74" x2="284.45" y2="494.31" class="down-wick"/>
<rect x="280.45" y="456.91" width="8.00" height="28.51" class="down-body"/>
<line x1="298.29" y1="473.79" x2="298.29" y2="492.15" class="up-wick"/>
<rect x="294.29" y="478.58" width="8.00" height="6.61" class="up-body"/>
<line x1="312.12" y1="476.87" x2="312.12" y2="487.93" class="down-wick"/>
<rect x="308.12" y="478.29" width="8.00" height="1.00" class="down-body"/>
<line x1="325.96" y1="466.37" x2="325.96" y2="479.09" class="up-wick"/>
<rect x="321.96" y="468.83" width="8.00" height="10.26" class="up-body"/>
<line x1="339.79" y1="454.74" x2="339.79" y2="472.65" class="up-wick"/>
<rect x="335.79" y="457.37" width="8.00" height="11.46" class="up-body"/>
<line x1="353.63" y1="454.86" x2="353.63" y2="462.95" class="down-wick"/>
<rect x="349.63" y="457.31" width="8.00" height="1.00" class="down-body"/>
<line x1="367.47" y1="446.99" x2="367.47" y2="459.76" class="up-wick"/>
<rect x="363.47" y="448.07" width="8.00" height="10.03" class="up-body"/>
<line x1="381.30" y1="446.13" x2="381.30" y2="453.83" class="down-wick"/>
<rect x="377.30" y="448.07" width="8.00" height="4.79" class="down-body"/>
<line x1="395.14" y1="450.47" x2="395.14" y2="460.05" class="up-wick"/>
<rect x="391.14" y="452.69" width="8.00" height="1.00" class="up-body"/>
<line x1="408.97" y1="442.31" x2="408.97" y2="455.66" class="up-wick"/>
<rect x="404.97" y="453.03" width="8.00" height="1.00" class="up-body"/>
<line x1="422.81" y1="450.01" x2="422.81" y2="456.68" class="up-wick"/>
<rect x="418.81" y="452.41" width="8.00" height="1.00" class="up-body"/>
<line x1="436.64" y1="451.44" x2="436.64" y2="472.02" class="down-wick"/>
<rect x="432.64" y="452.46" width="8.00" height="18.47" class="down-body"/>
<line x1="450.48" y1="470.19" x2="450.48" y2="509.42" class="down-wick"/>
<rect x="446.48" y="471.22" width="8.00" height="28.45" class="down-body"/>
<line x1="464.32" y1="497.39" x2="464.32" y2="524.76" class="down-wick"/>
<rect x="460.32" y="499.79" width="8.00" height="11.80" class="down-body"/>
<line x1="478.15" y1="497.85" x2="478.15" y2="517.57" class="up-wick"/>
<rect x="474.15" y="503.38" width="8.00" height="8.15" class="up-body"/>
<line x1="491.99" y1="489.75" x2="491.99" y2="512.27" class="up-wick"/>
<rect x="487.99" y="493.06" width="8.00" height="10.66" class="up-body"/>
<line x1="505.82" y1="482.79" x2="505.82" y2="492.94" class="up-wick"/>
<rect x="501.82" y="485.82" width="8.00" height="7.13" class="up-body"/>
<line x1="519.66" y1="465.86" x2="519.66" y2="489.92" class="up-wick"/>
<rect x="515.66" y="465.86" width="8.00" height="19.78" class="up-body"/>
<line x1="533.49" y1="442.43" x2="533.49" y2="470.25" class="up-wick"/>
<rect x="529.49" y="444.14" width="8.00" height="22.24" class="up-body"/>
<line x1="547.33" y1="439.18" x2="547.33" y2="456.91" class="down-wick"/>
<rect x="543.33" y="445.11" width="8.00" height="6.21" class="down-body"/>
<line x1="561.16" y1="449.55" x2="561.16" y2="468.03" class="down-wick"/>
<rect x="557.16" y="452.35" width="8.00" height="10.03" class="down-body"/>
<line x1="575.00" y1="452.58" x2="575.00" y2="462.33" class="up-wick"/>
<rect x="571.00" y="458.51" width="8.00" height="3.53" class="up-body"/>
<line x1="588.84" y1="453.15" x2="588.84" y2="471.11" class="down-wick"/>
<rect x="584.84" y="458.45" width="8.00" height="9.12" class="down-body"/>
<line x1="602.67" y1="454.34" x2="602.67" y2="472.25" class="up-wick"/>
<rect x="598.67" y="459.48" width="8.00" height="8.10" class="up-body"/>
<line x1="616.51" y1="453.72" x2="616.51" y2="466.20" class="down-wick"/>
<rect x="612.51" y="459.48" width="8.00" height="5.93" class="down-body"/>
<line x1="630.34" y1="450.07" x2="630.34" y2="466.03" class="up-wick"/>
<rect x="626.34" y="454.23" width="8.00" height="11.18" class="up-body"/>
<line x1="644.18" y1="438.66" x2="644.18" y2="459.19" class="up-wick"/>
<rect x="640.18" y="442.03" width="8.00" height="12.37" class="up-body"/>
<line x1="658.01" y1="437.52" x2="658.01" y2="457.94" class="down-wick"/>
<rect x="654.01" y="442.03" width="8.00" height="1.54" class="down-body"/>
<line x1="671.85" y1="440.20" x2="671.85" y2="470.37" class="down-wick"/>
<rect x="667.85" y="443.45" width="8.00" height="21.04" class="down-body"/>
<line x1="685.68" y1="464.09" x2="685.68" y2="473.56" class="down-wick"/>
<rect x="681.68" y="465.01" width="8.00" height="1.00" class="down-body"/>
<line x1="699.52" y1="463.35" x2="699.52" y2="478.80" class="down-wick"/>
<rect x="695.52" y="465.01" width="8.00" height="9.12" class="down-body"/>
<line x1="713.36" y1="465.80" x2="713.36" y2="479.43" class="up-wick"/>
<rect x="709.36" y="465.80" width="8.00" height="8.32" class="up-body"/>
<line x1="727.19" y1="453.26" x2="727.19" y2="471.56" class="up-wick"/>
<rect x="723.19" y="453.32" width="8.00" height="12.89" class="up-body"/>
<line x1="741.03" y1="420.13" x2="741.03" y2="454.80" class="up-wick"/>
<rect x="737.03" y="422.30" width="8.00" height="31.76" class="up-body"/>
<line x1="754.86" y1="422.24" x2="754.86" y2="436.27" class="down-wick"/>
<rect x="750.86" y="422.24" width="8.00" height="12.09" class="down-body"/>
<line x1="768.70" y1="428.69" x2="768.70" y2="445.34" class="down-wick"/>
<rect x="764.70" y="434.39" width="8.00" height="6.04" class="down-body"/>
<line x1="782.53" y1="431.65" x2="782.53" y2="444.71" class="up-wick"/>
<rect x="778.53" y="437.41" width="8.00" height="3.19" class="up-body"/>
<line x1="796.37" y1="436.73" x2="796.37" y2="453.03" class="down-wick"/>
<rect x="792.37" y="437.41" width="8.00" height="12.49" class="down-body"/>
<line x1="810.21" y1="445.73" x2="810.21" y2="471.73" class="down-wick"/>
<rect x="806.21" y="449.67" width="8.00" height="9.86" class="down-body"/>
<line x1="824.04" y1="417.40" x2="824.04" y2="462.44" class="up-wick"/>
<rect x="820.04" y="446.87" width="8.00" height="12.66" class="up-body"/>
<line x1="837.88" y1="396.93" x2="837.88" y2="444.65" class="up-wick"/>
<rect x="833.88" y="410.27" width="8.00" height="34.27" class="up-body"/>
<line x1="851.71" y1="407.13" x2="851.71" y2="426.18" class="down-wick"/>
<rect x="847.71" y="410.73" width="8.00" height="7.64" class="down-body"/>
<line x1="865.55" y1="401.55" x2="865.55" y2="427.32" class="up-wick"/>
<rect x="861.55" y="401.89" width="8.00" height="17.16" class="up-body"/>
<line x1="879.38" y1="399.49" x2="879.38" y2="419.51" class="down-wick"/>
<rect x="875.38" y="401.95" width="8.00" height="6.33" class="down-body"/>
<line x1="893.22" y1="382.73" x2="893.22" y2="411.18" class="up-wick"/>
<rect x="889.22" y="391.28" width="8.00" height="17.10" class="up-body"/>
<line x1="907.05" y1="377.03" x2="907.05" y2="395.05" class="up-wick"/>
<rect x="903.05" y="377.03" width="8.00" height="13.51" class="up-body"/>
<line x1="920.89" y1="364.09" x2="920.89" y2="387.46" class="down-wick"/>
<rect x="916.89" y="376.69" width="8.00" height="4.45" class="down-body"/>
<line x1="934.73" y1="359.24" x2="934.73" y2="382.85" class="up-wick"/>
<rect x="930.73" y="376.69" width="8.00" height="4.50" class="up-body"/>
<line x1="948.56" y1="371.56" x2="948.56" y2="391.85" class="down-wick"/>
<rect x="944.56" y="377.43" width="8.00" height="9.29" class="down-body"/>
<line x1="962.40" y1="383.99" x2="962.40" y2="410.56" class="down-wick"/>
<rect x="958.40" y="385.47" width="8.00" height="17.79" class="down-body"/>
<line x1="976.23" y1="393.45" x2="976.23" y2="407.13" class="up-wick"/>
<rect x="972.23" y="399.72" width="8.00" height="4.50" class="up-body"/>
<line x1="990.07" y1="394.14" x2="990.07" y2="415.97" class="down-wick"/>
<rect x="986.07" y="399.84" width="8.00" height="10.95" class="down-body"/>
<line x1="1003.90" y1="396.02" x2="1003.90" y2="414.20" class="up-wick"/>
<rect x="999.90" y="402.97" width="8.00" height="7.75" class="up-body"/>
<line x1="1017.74" y1="399.67" x2="1017.74" y2="409.36" class="down-wick"/>
<rect x="1013.74" y="402.97" width="8.00" height="1.37" class="down-body"/>
<line x1="1031.58" y1="399.89" x2="1031.58" y2="420.93" class="down-wick"/>
<rect x="1027.58" y="404.28" width="8.00" height="13.63" class="down-body"/>
<line x1="1045.41" y1="400.01" x2="1045.41" y2="420.13" class="up-wick"/>
<rect x="1041.41" y="403.66" width="8.00" height="14.65" class="up-body"/>
<line x1="1059.25" y1="385.75" x2="1059.25" y2="404.91" class="up-wick"/>
<rect x="1055.25" y="385.92" width="8.00" height="17.56" class="up-body"/>
<line x1="1073.08" y1="380.34" x2="1073.08" y2="391.28" class="up-wick"/>
<rect x="1069.08" y="381.36" width="8.00" height="6.44" class="up-body"/>
<text x="70" y="556" class="axis-label">2024-05-30 01:45:00+00:00 to 2024-05-30 19:45:00+00:00</text>
<text x="1080" y="556" text-anchor="end" class="axis-label">2320.42 - 2354.09</text>
<text x="70" y="582" class="panel-title">M1 execution window</text>
<rect x="70" y="596" width="1010" height="192" class="plot-bg"/>
<text x="82" y="638" class="muted">No candles available for this timeframe/window.</text>
</svg>