<svg xmlns="http://www.w3.org/2000/svg" width="1120" height="1054" viewBox="0 0 1120 1054">
<style>
text{font-family:Arial,Helvetica,sans-serif}.title{font-size:21px;font-weight:700;fill:#1f2937}.subtitle{font-size:12px;fill:#4b5563}.panel-title{font-size:15px;font-weight:700;fill:#111827}.muted{font-size:13px;fill:#6b7280}.plot-bg{fill:#f8fafc;stroke:#cbd5e1;stroke-width:1}.up-body{fill:#15803d;stroke:#14532d;stroke-width:.8}.down-body{fill:#b91c1c;stroke:#7f1d1d;stroke-width:.8}.up-wick{stroke:#14532d;stroke-width:1}.down-wick{stroke:#7f1d1d;stroke-width:1}.sweep-line{stroke:#7c3aed;stroke-width:1.6;stroke-dasharray:6 4}.number-line{stroke:#0f766e;stroke-width:1.4;stroke-dasharray:3 4}.entry-line{stroke:#2563eb;stroke-width:1.4}.sl-line{stroke:#dc2626;stroke-width:1.4}.tp-line{stroke:#16a34a;stroke-width:1.4}.level-label,.axis-label{font-size:11px;fill:#374151}
</style>
<text x="28" y="28" class="title">Adelin v2 visual review sample sample_032</text>
<text x="28" y="48" class="subtitle">Candidate windows are for visual labeling only and are not trade signals.</text>
<text x="560" y="48" class="subtitle" text-anchor="middle">ASIA_OPEN_CONTEXT</text>
<text x="70" y="82" class="panel-title">H1 liquidity context</text>
<rect x="70" y="96" width="1010" height="192" class="plot-bg"/>
<line x1="80.52" y1="114.74" x2="80.52" y2="146.43" class="up-wick"/>
<rect x="76.52" y="128.59" width="8.00" height="4.08" class="up-body"/>
<line x1="101.56" y1="124.01" x2="101.56" y2="145.40" class="down-wick"/>
<rect x="97.56" y="128.72" width="8.00" height="12.24" class="down-body"/>
<line x1="122.60" y1="137.76" x2="122.60" y2="193.81" class="down-wick"/>
<rect x="118.60" y="140.96" width="8.00" height="40.32" class="down-body"/>
<line x1="143.65" y1="144.80" x2="143.65" y2="190.10" class="up-wick"/>
<rect x="139.65" y="169.08" width="8.00" height="12.22" class="up-body"/>
<line x1="164.69" y1="156.49" x2="164.69" y2="181.05" class="down-wick"/>
<rect x="160.69" y="169.08" width="8.00" height="9.89" class="down-body"/>
<line x1="185.73" y1="172.58" x2="185.73" y2="188.25" class="down-wick"/>
<rect x="181.73" y="178.97" width="8.00" height="2.81" class="down-body"/>
<line x1="206.77" y1="171.27" x2="206.77" y2="182.72" class="up-wick"/>
<rect x="202.77" y="176.48" width="8.00" height="5.30" class="up-body"/>
<line x1="227.81" y1="171.87" x2="227.81" y2="200.25" class="down-wick"/>
<rect x="223.81" y="176.48" width="8.00" height="20.85" class="down-body"/>
<line x1="248.85" y1="197.32" x2="248.85" y2="251.25" class="down-wick"/>
<rect x="244.85" y="197.33" width="8.00" height="32.94" class="down-body"/>
<line x1="269.90" y1="225.78" x2="269.90" y2="274.76" class="down-wick"/>
<rect x="265.90" y="230.27" width="8.00" height="5.85" class="down-body"/>
<line x1="290.94" y1="211.92" x2="290.94" y2="236.47" class="up-wick"/>
<rect x="286.94" y="218.97" width="8.00" height="17.14" class="up-body"/>
<line x1="311.98" y1="198.09" x2="311.98" y2="229.03" class="up-wick"/>
<rect x="307.98" y="218.05" width="8.00" height="1.00" class="up-body"/>
<line x1="333.02" y1="207.76" x2="333.02" y2="222.59" class="up-wick"/>
<rect x="329.02" y="212.43" width="8.00" height="5.49" class="up-body"/>
<line x1="354.06" y1="141.62" x2="354.06" y2="212.43" class="up-wick"/>
<rect x="350.06" y="172.25" width="8.00" height="40.19" class="up-body"/>
<line x1="375.10" y1="130.77" x2="375.10" y2="187.64" class="up-wick"/>
<rect x="371.10" y="135.96" width="8.00" height="36.29" class="up-body"/>
<line x1="396.15" y1="133.33" x2="396.15" y2="163.96" class="down-wick"/>
<rect x="392.15" y="135.96" width="8.00" height="8.69" class="down-body"/>
<line x1="417.19" y1="123.32" x2="417.19" y2="145.00" class="up-wick"/>
<rect x="413.19" y="142.02" width="8.00" height="2.62" class="up-body"/>
<line x1="438.23" y1="132.80" x2="438.23" y2="182.47" class="down-wick"/>
<rect x="434.23" y="141.99" width="8.00" height="35.80" class="down-body"/>
<line x1="459.27" y1="167.65" x2="459.27" y2="181.90" class="up-wick"/>
<rect x="455.27" y="173.56" width="8.00" height="4.24" class="up-body"/>
<line x1="480.31" y1="150.35" x2="480.31" y2="175.25" class="up-wick"/>
<rect x="476.31" y="154.97" width="8.00" height="18.59" class="up-body"/>
<line x1="501.35" y1="140.09" x2="501.35" y2="163.68" class="up-wick"/>
<rect x="497.35" y="146.64" width="8.00" height="8.34" class="up-body"/>
<line x1="522.40" y1="146.07" x2="522.40" y2="167.13" class="down-wick"/>
<rect x="518.40" y="146.64" width="8.00" height="18.73" class="down-body"/>
<line x1="543.44" y1="159.74" x2="543.44" y2="170.76" class="up-wick"/>
<rect x="539.44" y="162.45" width="8.00" height="2.92" class="up-body"/>
<line x1="564.48" y1="153.10" x2="564.48" y2="178.72" class="up-wick"/>
<rect x="560.48" y="154.73" width="8.00" height="3.80" class="up-body"/>
<line x1="585.52" y1="146.88" x2="585.52" y2="156.62" class="up-wick"/>
<rect x="581.52" y="149.58" width="8.00" height="5.17" class="up-body"/>
<line x1="606.56" y1="147.56" x2="606.56" y2="189.60" class="down-wick"/>
<rect x="602.56" y="149.57" width="8.00" height="27.92" class="down-body"/>
<line x1="627.60" y1="174.00" x2="627.60" y2="198.18" class="down-wick"/>
<rect x="623.60" y="177.50" width="8.00" height="15.44" class="down-body"/>
<line x1="648.65" y1="172.13" x2="648.65" y2="198.96" class="up-wick"/>
<rect x="644.65" y="176.93" width="8.00" height="16.00" class="up-body"/>
<line x1="669.69" y1="176.12" x2="669.69" y2="188.30" class="down-wick"/>
<rect x="665.69" y="176.93" width="8.00" height="6.91" class="down-body"/>
<line x1="690.73" y1="180.25" x2="690.73" y2="191.36" class="down-wick"/>
<rect x="686.73" y="183.83" width="8.00" height="5.03" class="down-body"/>
<line x1="711.77" y1="174.02" x2="711.77" y2="193.85" class="up-wick"/>
<rect x="707.77" y="183.83" width="8.00" height="5.04" class="up-body"/>
<line x1="732.81" y1="162.77" x2="732.81" y2="185.41" class="up-wick"/>
<rect x="728.81" y="163.83" width="8.00" height="20.00" class="up-body"/>
<line x1="753.85" y1="152.61" x2="753.85" y2="164.69" class="up-wick"/>
<rect x="749.85" y="158.26" width="8.00" height="5.56" class="up-body"/>
<line x1="774.90" y1="156.97" x2="774.90" y2="167.81" class="down-wick"/>
<rect x="770.90" y="158.26" width="8.00" height="1.86" class="down-body"/>
<line x1="795.94" y1="153.26" x2="795.94" y2="166.01" class="up-wick"/>
<rect x="791.94" y="154.89" width="8.00" height="5.24" class="up-body"/>
<line x1="816.98" y1="149.27" x2="816.98" y2="159.20" class="up-wick"/>
<rect x="812.98" y="150.39" width="8.00" height="4.50" class="up-body"/>
<line x1="838.02" y1="149.18" x2="838.02" y2="173.83" class="down-wick"/>
<rect x="834.02" y="150.39" width="8.00" height="11.29" class="down-body"/>
<line x1="859.06" y1="154.58" x2="859.06" y2="178.31" class="down-wick"/>
<rect x="855.06" y="161.68" width="8.00" height="10.50" class="down-body"/>
<line x1="880.10" y1="168.21" x2="880.10" y2="182.28" class="up-wick"/>
<rect x="876.10" y="171.31" width="8.00" height="1.00" class="up-body"/>
<line x1="901.15" y1="152.17" x2="901.15" y2="171.58" class="up-wick"/>
<rect x="897.15" y="158.83" width="8.00" height="12.47" class="up-body"/>
<line x1="922.19" y1="153.25" x2="922.19" y2="165.88" class="down-wick"/>
<rect x="918.19" y="158.83" width="8.00" height="1.49" class="down-body"/>
<line x1="943.23" y1="154.45" x2="943.23" y2="163.66" class="up-wick"/>
<rect x="939.23" y="156.78" width="8.00" height="3.55" class="up-body"/>
<line x1="964.27" y1="154.95" x2="964.27" y2="174.74" class="down-wick"/>
<rect x="960.27" y="156.78" width="8.00" height="11.96" class="down-body"/>
<line x1="985.31" y1="156.01" x2="985.31" y2="170.42" class="up-wick"/>
<rect x="981.31" y="168.42" width="8.00" height="1.00" class="up-body"/>
<line x1="1006.35" y1="160.41" x2="1006.35" y2="168.74" class="up-wick"/>
<rect x="1002.35" y="164.42" width="8.00" height="4.00" class="up-body"/>
<line x1="1027.40" y1="133.84" x2="1027.40" y2="165.54" class="up-wick"/>
<rect x="1023.40" y="137.20" width="8.00" height="27.22" class="up-body"/>
<line x1="1048.44" y1="133.21" x2="1048.44" y2="144.10" class="up-wick"/>
<rect x="1044.44" y="133.66" width="8.00" height="1.77" class="up-body"/>
<line x1="1069.48" y1="109.24" x2="1069.48" y2="138.10" class="up-wick"/>
<rect x="1065.48" y="110.95" width="8.00" height="22.73" class="up-body"/>
<text x="70" y="306" class="axis-label">2026-03-23 00:00:00+00:00 to 2026-03-25 01:00:00+00:00</text>
<text x="1080" y="306" text-anchor="end" class="axis-label">4062.31 - 4587.55</text>
<text x="70" y="332" class="panel-title">M15 liquidity / reaction context</text>
<rect x="70" y="346" width="1010" height="192" class="plot-bg"/>
<line x1="77.32" y1="400.51" x2="77.32" y2="485.41" class="down-wick"/>
<rect x="73.32" y="403.96" width="8.00" height="45.91" class="down-body"/>
<line x1="91.96" y1="423.71" x2="91.96" y2="462.47" class="up-wick"/>
<rect x="87.96" y="439.46" width="8.00" height="10.27" class="up-body"/>
<line x1="106.59" y1="435.69" x2="106.59" y2="480.28" class="down-wick"/>
<rect x="102.59" y="439.46" width="8.00" height="26.84" class="down-body"/>
<line x1="121.23" y1="465.13" x2="121.23" y2="499.98" class="down-wick"/>
<rect x="117.23" y="466.30" width="8.00" height="20.76" class="down-body"/>
<line x1="135.87" y1="445.30" x2="135.87" y2="487.41" class="up-wick"/>
<rect x="131.87" y="457.36" width="8.00" height="29.70" class="up-body"/>
<line x1="150.51" y1="415.90" x2="150.51" y2="469.82" class="up-wick"/>
<rect x="146.51" y="416.30" width="8.00" height="41.06" class="up-body"/>
<line x1="165.14" y1="375.54" x2="165.14" y2="422.83" class="up-wick"/>
<rect x="161.14" y="386.89" width="8.00" height="29.43" class="up-body"/>
<line x1="179.78" y1="381.15" x2="179.78" y2="424.07" class="down-wick"/>
<rect x="175.78" y="386.89" width="8.00" height="25.38" class="down-body"/>
<line x1="194.42" y1="407.33" x2="194.42" y2="445.58" class="down-wick"/>
<rect x="190.42" y="412.28" width="8.00" height="29.43" class="down-body"/>
<line x1="209.06" y1="409.41" x2="209.06" y2="448.18" class="up-wick"/>
<rect x="205.06" y="431.74" width="8.00" height="9.97" class="up-body"/>
<line x1="223.70" y1="396.05" x2="223.70" y2="433.62" class="up-wick"/>
<rect x="219.70" y="405.90" width="8.00" height="25.84" class="up-body"/>
<line x1="238.33" y1="386.06" x2="238.33" y2="406.68" class="up-wick"/>
<rect x="234.33" y="397.97" width="8.00" height="7.93" class="up-body"/>
<line x1="252.97" y1="359.24" x2="252.97" y2="400.66" class="up-wick"/>
<rect x="248.97" y="380.43" width="8.00" height="17.54" class="up-body"/>
<line x1="267.61" y1="365.99" x2="267.61" y2="393.57" class="down-wick"/>
<rect x="263.61" y="380.42" width="8.00" height="5.48" class="down-body"/>
<line x1="282.25" y1="380.69" x2="282.25" y2="404.04" class="down-wick"/>
<rect x="278.25" y="385.90" width="8.00" height="14.25" class="down-body"/>
<line x1="296.88" y1="379.98" x2="296.88" y2="405.71" class="up-wick"/>
<rect x="292.88" y="397.58" width="8.00" height="2.52" class="up-body"/>
<line x1="311.52" y1="394.86" x2="311.52" y2="427.15" class="down-wick"/>
<rect x="307.52" y="397.58" width="8.00" height="14.01" class="down-body"/>
<line x1="326.16" y1="404.73" x2="326.16" y2="444.70" class="down-wick"/>
<rect x="322.16" y="411.52" width="8.00" height="31.51" class="down-body"/>
<line x1="340.80" y1="438.41" x2="340.80" y2="488.68" class="down-wick"/>
<rect x="336.80" y="443.03" width="8.00" height="35.42" class="down-body"/>
<line x1="355.43" y1="457.36" x2="355.43" y2="487.12" class="up-wick"/>
<rect x="351.43" y="462.17" width="8.00" height="16.29" class="up-body"/>
<line x1="370.07" y1="457.95" x2="370.07" y2="487.43" class="down-wick"/>
<rect x="366.07" y="462.37" width="8.00" height="23.25" class="down-body"/>
<line x1="384.71" y1="459.13" x2="384.71" y2="486.62" class="up-wick"/>
<rect x="380.71" y="460.72" width="8.00" height="24.83" class="up-body"/>
<line x1="399.35" y1="456.25" x2="399.35" y2="472.33" class="down-wick"/>
<rect x="395.35" y="460.71" width="8.00" height="8.47" class="down-body"/>
<line x1="413.99" y1="444.93" x2="413.99" y2="472.88" class="up-wick"/>
<rect x="409.99" y="451.66" width="8.00" height="17.52" class="up-body"/>
<line x1="428.62" y1="438.43" x2="428.62" y2="458.60" class="up-wick"/>
<rect x="424.62" y="445.07" width="8.00" height="6.59" class="up-body"/>
<line x1="443.26" y1="418.39" x2="443.26" y2="446.19" class="up-wick"/>
<rect x="439.26" y="433.14" width="8.00" height="11.93" class="up-body"/>
<line x1="457.90" y1="425.55" x2="457.90" y2="445.91" class="up-wick"/>
<rect x="453.90" y="428.50" width="8.00" height="4.69" class="up-body"/>
<line x1="472.54" y1="426.20" x2="472.54" y2="447.55" class="down-wick"/>
<rect x="468.54" y="428.51" width="8.00" height="3.84" class="down-body"/>
<line x1="487.17" y1="424.75" x2="487.17" y2="441.81" class="up-wick"/>
<rect x="483.17" y="428.63" width="8.00" height="3.72" class="up-body"/>
<line x1="501.81" y1="399.77" x2="501.81" y2="428.93" class="up-wick"/>
<rect x="497.81" y="400.10" width="8.00" height="28.52" class="up-body"/>
<line x1="516.45" y1="395.93" x2="516.45" y2="412.39" class="down-wick"/>
<rect x="512.45" y="400.10" width="8.00" height="10.16" class="down-body"/>
<line x1="531.09" y1="409.01" x2="531.09" y2="447.14" class="down-wick"/>
<rect x="527.09" y="410.26" width="8.00" height="33.79" class="down-body"/>
<line x1="545.72" y1="437.53" x2="545.72" y2="455.10" class="up-wick"/>
<rect x="541.72" y="440.95" width="8.00" height="3.10" class="up-body"/>
<line x1="560.36" y1="436.18" x2="560.36" y2="447.57" class="up-wick"/>
<rect x="556.36" y="436.18" width="8.00" height="4.78" class="up-body"/>
<line x1="575.00" y1="427.33" x2="575.00" y2="451.60" class="down-wick"/>
<rect x="571.00" y="436.18" width="8.00" height="15.07" class="down-body"/>
<line x1="589.64" y1="442.77" x2="589.64" y2="463.05" class="up-wick"/>
<rect x="585.64" y="446.48" width="8.00" height="4.77" class="up-body"/>
<line x1="604.28" y1="438.93" x2="604.28" y2="446.51" class="up-wick"/>
<rect x="600.28" y="443.83" width="8.00" height="2.65" class="up-body"/>
<line x1="618.91" y1="440.58" x2="618.91" y2="452.85" class="up-wick"/>
<rect x="614.91" y="441.01" width="8.00" height="2.82" class="up-body"/>
<line x1="633.55" y1="439.35" x2="633.55" y2="445.97" class="down-wick"/>
<rect x="629.55" y="440.90" width="8.00" height="3.97" class="down-body"/>
<line x1="648.19" y1="432.92" x2="648.19" y2="480.46" class="down-wick"/>
<rect x="644.19" y="436.27" width="8.00" height="14.63" class="down-body"/>
<line x1="662.83" y1="437.35" x2="662.83" y2="457.88" class="up-wick"/>
<rect x="658.83" y="437.87" width="8.00" height="13.66" class="up-body"/>
<line x1="677.46" y1="435.88" x2="677.46" y2="450.74" class="down-wick"/>
<rect x="673.46" y="437.87" width="8.00" height="4.32" class="down-body"/>
<line x1="692.10" y1="424.39" x2="692.10" y2="444.27" class="up-wick"/>
<rect x="688.10" y="427.96" width="8.00" height="14.28" class="up-body"/>
<line x1="706.74" y1="419.40" x2="706.74" y2="430.63" class="up-wick"/>
<rect x="702.74" y="420.78" width="8.00" height="7.23" class="up-body"/>
<line x1="721.38" y1="410.80" x2="721.38" y2="422.51" class="up-wick"/>
<rect x="717.38" y="415.90" width="8.00" height="4.88" class="up-body"/>
<line x1="736.01" y1="413.84" x2="736.01" y2="432.10" class="down-wick"/>
<rect x="732.01" y="415.90" width="8.00" height="9.05" class="down-body"/>
<line x1="750.65" y1="412.63" x2="750.65" y2="431.84" class="up-wick"/>
<rect x="746.65" y="416.70" width="8.00" height="8.26" class="up-body"/>
<line x1="765.29" y1="412.28" x2="765.29" y2="433.24" class="down-wick"/>
<rect x="761.29" y="416.68" width="8.00" height="15.11" class="down-body"/>
<line x1="779.93" y1="430.75" x2="779.93" y2="474.44" class="down-wick"/>
<rect x="775.93" y="431.79" width="8.00" height="35.24" class="down-body"/>
<line x1="794.57" y1="459.60" x2="794.57" y2="504.28" class="down-wick"/>
<rect x="790.57" y="466.97" width="8.00" height="27.04" class="down-body"/>
<line x1="809.20" y1="460.20" x2="809.20" y2="495.00" class="up-wick"/>
<rect x="805.20" y="477.79" width="8.00" height="16.14" class="up-body"/>
<line x1="823.84" y1="470.14" x2="823.84" y2="506.76" class="down-wick"/>
<rect x="819.84" y="477.79" width="8.00" height="26.90" class="down-body"/>
<line x1="838.48" y1="474.27" x2="838.48" y2="504.70" class="up-wick"/>
<rect x="834.48" y="485.54" width="8.00" height="19.13" class="up-body"/>
<line x1="853.12" y1="474.88" x2="853.12" y2="512.35" class="down-wick"/>
<rect x="849.12" y="485.54" width="8.00" height="26.50" class="down-body"/>
<line x1="867.75" y1="503.93" x2="867.75" y2="523.05" class="up-wick"/>
<rect x="863.75" y="511.58" width="8.00" height="1.00" class="up-body"/>
<line x1="882.39" y1="499.91" x2="882.39" y2="524.76" class="down-wick"/>
<rect x="878.39" y="511.57" width="8.00" height="8.15" class="down-body"/>
<line x1="897.03" y1="486.51" x2="897.03" y2="521.90" class="up-wick"/>
<rect x="893.03" y="487.94" width="8.00" height="31.75" class="up-body"/>
<line x1="911.67" y1="470.68" x2="911.67" y2="493.74" class="up-wick"/>
<rect x="907.67" y="476.10" width="8.00" height="11.83" class="up-body"/>
<line x1="926.30" y1="466.05" x2="926.30" y2="487.77" class="down-wick"/>
<rect x="922.30" y="476.10" width="8.00" height="1.00" class="down-body"/>
<line x1="940.94" y1="474.90" x2="940.94" y2="489.38" class="down-wick"/>
<rect x="936.94" y="476.55" width="8.00" height="6.09" class="down-body"/>
<line x1="955.58" y1="474.78" x2="955.58" y2="484.90" class="up-wick"/>
<rect x="951.58" y="477.64" width="8.00" height="4.99" class="up-body"/>
<line x1="970.22" y1="477.40" x2="970.22" y2="498.74" class="down-wick"/>
<rect x="966.22" y="477.72" width="8.00" height="18.56" class="down-body"/>
<line x1="984.86" y1="489.83" x2="984.86" y2="501.43" class="up-wick"/>
<rect x="980.86" y="491.66" width="8.00" height="4.62" class="up-body"/>
<line x1="999.49" y1="483.81" x2="999.49" y2="492.27" class="up-wick"/>
<rect x="995.49" y="489.35" width="8.00" height="2.31" class="up-body"/>
<line x1="1014.13" y1="488.88" x2="1014.13" y2="508.12" class="down-wick"/>
<rect x="1010.13" y="489.35" width="8.00" height="8.58" class="down-body"/>
<line x1="1028.77" y1="491.07" x2="1028.77" y2="500.77" class="up-wick"/>
<rect x="1024.77" y="496.72" width="8.00" height="1.19" class="up-body"/>
<line x1="1043.41" y1="489.95" x2="1043.41" y2="503.79" class="down-wick"/>
<rect x="1039.41" y="496.72" width="8.00" height="5.95" class="down-body"/>
<line x1="1058.04" y1="493.10" x2="1058.04" y2="513.57" class="up-wick"/>
<rect x="1054.04" y="501.17" width="8.00" height="1.50" class="up-body"/>
<line x1="1072.68" y1="491.93" x2="1072.68" y2="502.25" class="up-wick"/>
<rect x="1068.68" y="501.04" width="8.00" height="1.00" class="up-body"/>
<text x="70" y="556" class="axis-label">2026-03-23 13:15:00+00:00 to 2026-03-24 07:15:00+00:00</text>
<text x="1080" y="556" text-anchor="end" class="axis-label">4289.34 - 4529.36</text>
<text x="70" y="582" class="panel-title">M5 reaction / execution context</text>
<rect x="70" y="596" width="1010" height="192" class="plot-bg"/>
<line x1="79.71" y1="641.38" x2="79.71" y2="685.87" class="down-wick"/>
<rect x="75.71" y="646.24" width="8.00" height="38.99" class="down-body"/>
<line x1="99.13" y1="681.39" x2="99.13" y2="710.42" class="up-wick"/>
<rect x="95.13" y="683.65" width="8.00" height="4.65" class="up-body"/>
<line x1="118.56" y1="662.42" x2="118.56" y2="691.39" class="up-wick"/>
<rect x="114.56" y="667.49" width="8.00" height="16.79" class="up-body"/>
<line x1="137.98" y1="660.16" x2="137.98" y2="677.62" class="up-wick"/>
<rect x="133.98" y="661.60" width="8.00" height="6.81" class="up-body"/>
<line x1="157.40" y1="655.84" x2="157.40" y2="669.56" class="down-wick"/>
<rect x="153.40" y="661.88" width="8.00" height="4.60" class="down-body"/>
<line x1="176.83" y1="647.81" x2="176.83" y2="667.14" class="up-wick"/>
<rect x="172.83" y="648.57" width="8.00" height="18.02" class="up-body"/>
<line x1="196.25" y1="647.30" x2="196.25" y2="667.26" class="down-wick"/>
<rect x="192.25" y="648.57" width="8.00" height="12.84" class="down-body"/>
<line x1="215.67" y1="645.67" x2="215.67" y2="661.72" class="up-wick"/>
<rect x="211.67" y="651.16" width="8.00" height="10.19" class="up-body"/>
<line x1="235.10" y1="651.33" x2="235.10" y2="658.69" class="down-wick"/>
<rect x="231.10" y="651.33" width="8.00" height="3.51" class="down-body"/>
<line x1="254.52" y1="648.96" x2="254.52" y2="657.86" class="up-wick"/>
<rect x="250.52" y="649.39" width="8.00" height="5.52" class="up-body"/>
<line x1="273.94" y1="628.99" x2="273.94" y2="650.82" class="up-wick"/>
<rect x="269.94" y="630.82" width="8.00" height="18.58" class="up-body"/>
<line x1="293.37" y1="630.32" x2="293.37" y2="640.91" class="down-wick"/>
<rect x="289.37" y="630.43" width="8.00" height="3.74" class="down-body"/>
<line x1="312.79" y1="630.93" x2="312.79" y2="638.04" class="down-wick"/>
<rect x="308.79" y="634.24" width="8.00" height="1.00" class="down-body"/>
<line x1="332.21" y1="622.10" x2="332.21" y2="635.97" class="up-wick"/>
<rect x="328.21" y="627.20" width="8.00" height="7.46" class="up-body"/>
<line x1="351.63" y1="621.74" x2="351.63" y2="630.55" class="up-wick"/>
<rect x="347.63" y="623.74" width="8.00" height="3.46" class="up-body"/>
<line x1="371.06" y1="613.55" x2="371.06" y2="624.10" class="up-wick"/>
<rect x="367.06" y="622.45" width="8.00" height="1.29" class="up-body"/>
<line x1="390.48" y1="614.04" x2="390.48" y2="626.26" class="up-wick"/>
<rect x="386.48" y="614.16" width="8.00" height="8.28" class="up-body"/>
<line x1="409.90" y1="609.24" x2="409.90" y2="618.15" class="down-wick"/>
<rect x="405.90" y="614.17" width="8.00" height="2.49" class="down-body"/>
<line x1="429.33" y1="613.78" x2="429.33" y2="621.44" class="up-wick"/>
<rect x="425.33" y="614.26" width="8.00" height="2.39" class="up-body"/>
<line x1="448.75" y1="613.66" x2="448.75" y2="634.30" class="down-wick"/>
<rect x="444.75" y="614.26" width="8.00" height="18.26" class="down-body"/>
<line x1="468.17" y1="628.19" x2="468.17" y2="640.18" class="up-wick"/>
<rect x="464.17" y="629.80" width="8.00" height="2.72" class="up-body"/>
<line x1="487.60" y1="618.86" x2="487.60" y2="639.81" class="up-wick"/>
<rect x="483.60" y="619.51" width="8.00" height="10.29" class="up-body"/>
<line x1="507.02" y1="611.90" x2="507.02" y2="621.13" class="up-wick"/>
<rect x="503.02" y="614.45" width="8.00" height="5.03" class="up-body"/>
<line x1="526.44" y1="614.02" x2="526.44" y2="624.82" class="down-wick"/>
<rect x="522.44" y="614.46" width="8.00" height="3.36" class="down-body"/>
<line x1="545.87" y1="611.39" x2="545.87" y2="633.69" class="down-wick"/>
<rect x="541.87" y="617.79" width="8.00" height="12.47" class="down-body"/>
<line x1="565.29" y1="623.44" x2="565.29" y2="632.76" class="up-wick"/>
<rect x="561.29" y="626.55" width="8.00" height="3.71" class="up-body"/>
<line x1="584.71" y1="623.30" x2="584.71" y2="641.84" class="down-wick"/>
<rect x="580.71" y="626.55" width="8.00" height="13.19" class="down-body"/>
<line x1="604.13" y1="638.23" x2="604.13" y2="663.55" class="down-wick"/>
<rect x="600.13" y="639.74" width="8.00" height="12.09" class="down-body"/>
<line x1="623.56" y1="651.51" x2="623.56" y2="661.78" class="down-wick"/>
<rect x="619.56" y="651.83" width="8.00" height="6.42" class="down-body"/>
<line x1="642.98" y1="654.69" x2="642.98" y2="701.68" class="down-wick"/>
<rect x="638.98" y="658.26" width="8.00" height="32.67" class="down-body"/>
<line x1="662.40" y1="680.12" x2="662.40" y2="716.12" class="down-wick"/>
<rect x="658.40" y="690.83" width="8.00" height="7.80" class="down-body"/>
<line x1="681.83" y1="692.13" x2="681.83" y2="738.17" class="down-wick"/>
<rect x="677.83" y="698.58" width="8.00" height="24.71" class="down-body"/>
<line x1="701.25" y1="719.46" x2="701.25" y2="745.02" class="down-wick"/>
<rect x="697.25" y="720.66" width="8.00" height="9.46" class="down-body"/>
<line x1="720.67" y1="700.17" x2="720.67" y2="731.54" class="up-wick"/>
<rect x="716.67" y="704.31" width="8.00" height="25.68" class="up-body"/>
<line x1="740.10" y1="680.99" x2="740.10" y2="705.47" class="up-wick"/>
<rect x="736.10" y="686.99" width="8.00" height="17.18" class="up-body"/>
<line x1="759.52" y1="681.62" x2="759.52" y2="708.17" class="down-wick"/>
<rect x="755.52" y="686.99" width="8.00" height="19.55" class="down-body"/>
<line x1="778.94" y1="695.43" x2="778.94" y2="718.74" class="down-wick"/>
<rect x="774.94" y="706.54" width="8.00" height="9.74" class="down-body"/>
<line x1="798.37" y1="706.37" x2="798.37" y2="732.34" class="down-wick"/>
<rect x="794.37" y="716.28" width="8.00" height="15.14" class="down-body"/>
<line x1="817.79" y1="709.14" x2="817.79" y2="748.62" class="down-wick"/>
<rect x="813.79" y="731.41" width="8.00" height="14.20" class="down-body"/>
<line x1="837.21" y1="725.10" x2="837.21" y2="745.63" class="up-wick"/>
<rect x="833.21" y="727.57" width="8.00" height="18.02" class="up-body"/>
<line x1="856.63" y1="709.41" x2="856.63" y2="727.59" class="up-wick"/>
<rect x="852.63" y="711.34" width="8.00" height="16.23" class="up-body"/>
<line x1="876.06" y1="701.43" x2="876.06" y2="719.57" class="down-wick"/>
<rect x="872.06" y="711.34" width="8.00" height="6.46" class="down-body"/>
<line x1="895.48" y1="710.22" x2="895.48" y2="723.26" class="up-wick"/>
<rect x="891.48" y="711.33" width="8.00" height="6.47" class="up-body"/>
<line x1="914.90" y1="702.31" x2="914.90" y2="723.30" class="down-wick"/>
<rect x="910.90" y="711.33" width="8.00" height="10.97" class="down-body"/>
<line x1="934.33" y1="720.14" x2="934.33" y2="756.74" class="down-wick"/>
<rect x="930.33" y="722.29" width="8.00" height="33.99" class="down-body"/>
<line x1="953.75" y1="748.87" x2="953.75" y2="772.27" class="down-wick"/>
<rect x="949.75" y="756.29" width="8.00" height="8.47" class="down-body"/>
<line x1="973.17" y1="744.51" x2="973.17" y2="765.46" class="up-wick"/>
<rect x="969.17" y="751.14" width="8.00" height="13.62" class="up-body"/>
<line x1="992.60" y1="745.37" x2="992.60" y2="758.56" class="down-wick"/>
<rect x="988.60" y="751.11" width="8.00" height="4.52" class="down-body"/>
<line x1="1012.02" y1="738.66" x2="1012.02" y2="764.95" class="up-wick"/>
<rect x="1008.02" y="742.75" width="8.00" height="12.85" class="up-body"/>
<line x1="1031.44" y1="742.75" x2="1031.44" y2="759.52" class="down-wick"/>
<rect x="1027.44" y="742.75" width="8.00" height="13.22" class="down-body"/>
<line x1="1050.87" y1="754.27" x2="1050.87" y2="774.76" class="down-wick"/>
<rect x="1046.87" y="755.98" width="8.00" height="11.46" class="down-body"/>
<line x1="1070.29" y1="757.25" x2="1070.29" y2="770.61" class="up-wick"/>
<rect x="1066.29" y="765.20" width="8.00" height="2.20" class="up-body"/>
<text x="70" y="806" class="axis-label">2026-03-24 00:00:00+00:00 to 2026-03-24 04:15:00+00:00</text>
<text x="1080" y="806" text-anchor="end" class="axis-label">4294.49 - 4459.76</text>
<text x="70" y="832" class="panel-title">M1 execution window</text>
<rect x="70" y="846" width="1010" height="192" class="plot-bg"/>
<line x1="73.95" y1="890.76" x2="73.95" y2="894.76" class="up-wick"/>
<rect x="71.38" y="891.75" width="5.13" height="2.80" class="up-body"/>
<line x1="81.84" y1="892.58" x2="81.84" y2="896.48" class="up-wick"/>
<rect x="79.27" y="894.38" width="5.13" height="1.00" class="up-body"/>
<line x1="89.73" y1="904.39" x2="89.73" y2="934.70" class="down-wick"/>
<rect x="87.16" y="905.48" width="5.13" height="28.58" class="down-body"/>
<line x1="97.62" y1="934.48" x2="97.62" y2="959.57" class="up-wick"/>
<rect x="95.05" y="939.99" width="5.13" height="2.07" class="up-body"/>
<line x1="105.51" y1="930.16" x2="105.51" y2="942.24" class="down-wick"/>
<rect x="102.94" y="931.68" width="5.13" height="1.00" class="down-body"/>
<line x1="113.40" y1="931.77" x2="113.40" y2="936.86" class="down-wick"/>
<rect x="110.83" y="933.09" width="5.13" height="3.59" class="down-body"/>
<line x1="121.29" y1="921.35" x2="121.29" y2="934.83" class="up-wick"/>
<rect x="118.72" y="927.07" width="5.13" height="7.76" class="up-body"/>
<line x1="129.18" y1="913.60" x2="129.18" y2="916.45" class="down-wick"/>
<rect x="126.62" y="913.60" width="5.13" height="2.48" class="down-body"/>
<line x1="137.07" y1="919.80" x2="137.07" y2="926.35" class="up-wick"/>
<rect x="134.51" y="920.24" width="5.13" height="1.00" class="up-body"/>
<line x1="144.96" y1="917.40" x2="144.96" y2="920.82" class="down-wick"/>
<rect x="142.40" y="918.02" width="5.13" height="2.80" class="down-body"/>
<line x1="152.85" y1="907.97" x2="152.85" y2="916.23" class="down-wick"/>
<rect x="150.29" y="910.40" width="5.13" height="5.08" class="down-body"/>
<line x1="160.74" y1="907.79" x2="160.74" y2="918.18" class="up-wick"/>
<rect x="158.18" y="907.81" width="5.13" height="5.37" class="up-body"/>
<line x1="168.63" y1="908.61" x2="168.63" y2="917.07" class="down-wick"/>
<rect x="166.07" y="909.08" width="5.13" height="5.98" class="down-body"/>
<line x1="176.52" y1="907.77" x2="176.52" y2="913.94" class="up-wick"/>
<rect x="173.96" y="909.64" width="5.13" height="3.79" class="up-body"/>
<line x1="184.41" y1="903.36" x2="184.41" y2="908.60" class="up-wick"/>
<rect x="181.85" y="903.52" width="5.13" height="2.30" class="up-body"/>
<line x1="192.30" y1="895.62" x2="192.30" y2="898.71" class="up-wick"/>
<rect x="189.74" y="896.84" width="5.13" height="1.00" class="up-body"/>
<line x1="200.20" y1="903.93" x2="200.20" y2="907.24" class="down-wick"/>
<rect x="197.63" y="904.28" width="5.13" height="2.15" class="down-body"/>
<line x1="208.09" y1="908.15" x2="208.09" y2="914.49" class="down-wick"/>
<rect x="205.52" y="909.14" width="5.13" height="1.00" class="down-body"/>
<line x1="215.98" y1="897.14" x2="215.98" y2="905.29" class="up-wick"/>
<rect x="213.41" y="899.30" width="5.13" height="5.99" class="up-body"/>
<line x1="223.87" y1="893.98" x2="223.87" y2="901.43" class="up-wick"/>
<rect x="221.30" y="897.08" width="5.13" height="4.07" class="up-body"/>
<line x1="231.76" y1="899.71" x2="231.76" y2="906.08" class="down-wick"/>
<rect x="229.19" y="899.71" width="5.13" height="6.18" class="down-body"/>
<line x1="239.65" y1="902.49" x2="239.65" y2="906.72" class="down-wick"/>
<rect x="237.08" y="904.73" width="5.13" height="1.00" class="down-body"/>
<line x1="247.54" y1="902.44" x2="247.54" y2="905.28" class="up-wick"/>
<rect x="244.97" y="903.26" width="5.13" height="1.85" class="up-body"/>
<line x1="255.43" y1="904.04" x2="255.43" y2="906.04" class="down-wick"/>
<rect x="252.87" y="904.61" width="5.13" height="1.00" class="down-body"/>
<line x1="263.32" y1="898.25" x2="263.32" y2="900.26" class="up-wick"/>
<rect x="260.76" y="898.55" width="5.13" height="1.49" class="up-body"/>
<line x1="271.21" y1="890.95" x2="271.21" y2="899.19" class="up-wick"/>
<rect x="268.65" y="892.26" width="5.13" height="5.49" class="up-body"/>
<line x1="279.10" y1="883.71" x2="279.10" y2="890.37" class="up-wick"/>
<rect x="276.54" y="886.37" width="5.13" height="3.71" class="up-body"/>
<line x1="286.99" y1="877.07" x2="286.99" y2="886.49" class="up-wick"/>
<rect x="284.43" y="878.92" width="5.13" height="7.53" class="up-body"/>
<line x1="294.88" y1="884.55" x2="294.88" y2="889.15" class="down-wick"/>
<rect x="292.32" y="884.58" width="5.13" height="1.00" class="down-body"/>
<line x1="302.77" y1="882.32" x2="302.77" y2="884.28" class="down-wick"/>
<rect x="300.21" y="882.44" width="5.13" height="1.84" class="down-body"/>
<line x1="310.66" y1="879.04" x2="310.66" y2="886.24" class="up-wick"/>
<rect x="308.10" y="881.86" width="5.13" height="1.00" class="up-body"/>
<line x1="318.55" y1="880.79" x2="318.55" y2="882.70" class="up-wick"/>
<rect x="315.99" y="881.23" width="5.13" height="1.00" class="up-body"/>
<line x1="326.45" y1="881.04" x2="326.45" y2="883.87" class="down-wick"/>
<rect x="323.88" y="882.01" width="5.13" height="1.00" class="down-body"/>
<line x1="334.34" y1="877.87" x2="334.34" y2="881.46" class="up-wick"/>
<rect x="331.77" y="878.06" width="5.13" height="2.70" class="up-body"/>
<line x1="342.23" y1="870.27" x2="342.23" y2="876.54" class="down-wick"/>
<rect x="339.66" y="870.29" width="5.13" height="2.61" class="down-body"/>
<line x1="350.12" y1="873.70" x2="350.12" y2="876.01" class="down-wick"/>
<rect x="347.55" y="875.26" width="5.13" height="1.00" class="down-body"/>
<line x1="358.01" y1="875.31" x2="358.01" y2="877.90" class="up-wick"/>
<rect x="355.44" y="875.99" width="5.13" height="1.91" class="up-body"/>
<line x1="365.90" y1="869.73" x2="365.90" y2="871.98" class="down-wick"/>
<rect x="363.33" y="870.72" width="5.13" height="1.04" class="down-body"/>
<line x1="373.79" y1="864.04" x2="373.79" y2="868.09" class="up-wick"/>
<rect x="371.22" y="865.72" width="5.13" height="1.00" class="up-body"/>
<line x1="381.68" y1="861.43" x2="381.68" y2="866.72" class="down-wick"/>
<rect x="379.12" y="861.78" width="5.13" height="4.73" class="down-body"/>
<line x1="389.57" y1="869.81" x2="389.57" y2="874.31" class="up-wick"/>
<rect x="387.01" y="870.26" width="5.13" height="1.00" class="up-body"/>
<line x1="397.46" y1="868.55" x2="397.46" y2="871.73" class="down-wick"/>
<rect x="394.90" y="869.71" width="5.13" height="1.93" class="down-body"/>
<line x1="405.35" y1="861.93" x2="405.35" y2="871.18" class="up-wick"/>
<rect x="402.79" y="862.04" width="5.13" height="9.13" class="up-body"/>
<line x1="413.24" y1="859.97" x2="413.24" y2="863.97" class="up-wick"/>
<rect x="410.68" y="860.64" width="5.13" height="3.28" class="up-body"/>
<line x1="421.13" y1="859.59" x2="421.13" y2="864.96" class="down-wick"/>
<rect x="418.57" y="860.55" width="5.13" height="4.39" class="down-body"/>
<line x1="429.02" y1="864.57" x2="429.02" y2="869.42" class="down-wick"/>
<rect x="426.46" y="864.57" width="5.13" height="1.64" class="down-body"/>
<line x1="436.91" y1="863.90" x2="436.91" y2="865.46" class="up-wick"/>
<rect x="434.35" y="864.14" width="5.13" height="1.00" class="up-body"/>
<line x1="444.80" y1="861.67" x2="444.80" y2="862.68" class="down-wick"/>
<rect x="442.24" y="861.88" width="5.13" height="1.00" class="down-body"/>
<line x1="452.70" y1="865.35" x2="452.70" y2="867.75" class="down-wick"/>
<rect x="450.13" y="865.86" width="5.13" height="1.90" class="down-body"/>
<line x1="460.59" y1="875.99" x2="460.59" y2="882.45" class="down-wick"/>
<rect x="458.02" y="879.03" width="5.13" height="2.45" class="down-body"/>
<line x1="468.48" y1="878.72" x2="468.48" y2="888.41" class="down-wick"/>
<rect x="465.91" y="880.65" width="5.13" height="4.34" class="down-body"/>
<line x1="476.37" y1="876.58" x2="476.37" y2="883.72" class="up-wick"/>
<rect x="473.80" y="878.62" width="5.13" height="3.23" class="up-body"/>
<line x1="484.26" y1="876.26" x2="484.26" y2="878.76" class="down-wick"/>
<rect x="481.69" y="877.05" width="5.13" height="1.00" class="down-body"/>
<line x1="492.15" y1="878.60" x2="492.15" y2="885.55" class="up-wick"/>
<rect x="489.58" y="879.43" width="5.13" height="6.11" class="up-body"/>
<line x1="500.04" y1="866.81" x2="500.04" y2="873.71" class="up-wick"/>
<rect x="497.47" y="867.20" width="5.13" height="6.43" class="up-body"/>
<line x1="507.93" y1="864.88" x2="507.93" y2="869.11" class="up-wick"/>
<rect x="505.37" y="865.67" width="5.13" height="1.77" class="up-body"/>
<line x1="515.82" y1="864.95" x2="515.82" y2="868.74" class="up-wick"/>
<rect x="513.26" y="865.02" width="5.13" height="1.62" class="up-body"/>
<line x1="523.71" y1="859.76" x2="523.71" y2="866.40" class="up-wick"/>
<rect x="521.15" y="862.34" width="5.13" height="2.11" class="up-body"/>
<line x1="531.60" y1="867.32" x2="531.60" y2="872.85" class="up-wick"/>
<rect x="529.04" y="868.25" width="5.13" height="1.75" class="up-body"/>
<line x1="539.49" y1="869.03" x2="539.49" y2="871.98" class="up-wick"/>
<rect x="536.93" y="869.87" width="5.13" height="1.00" class="up-body"/>
<line x1="547.38" y1="859.24" x2="547.38" y2="868.76" class="down-wick"/>
<rect x="544.82" y="865.73" width="5.13" height="2.20" class="down-body"/>
<line x1="555.27" y1="870.64" x2="555.27" y2="876.72" class="down-wick"/>
<rect x="552.71" y="871.64" width="5.13" height="4.98" class="down-body"/>
<line x1="563.16" y1="876.52" x2="563.16" y2="881.83" class="down-wick"/>
<rect x="560.60" y="877.23" width="5.13" height="1.13" class="down-body"/>
<line x1="571.05" y1="874.00" x2="571.05" y2="880.64" class="down-wick"/>
<rect x="568.49" y="878.46" width="5.13" height="1.00" class="down-body"/>
<line x1="578.95" y1="871.45" x2="578.95" y2="876.23" class="up-wick"/>
<rect x="576.38" y="873.46" width="5.13" height="2.00" class="up-body"/>
<line x1="586.84" y1="872.70" x2="586.84" y2="876.60" class="down-wick"/>
<rect x="584.27" y="874.60" width="5.13" height="1.00" class="down-body"/>
<line x1="594.73" y1="872.49" x2="594.73" y2="882.06" class="down-wick"/>
<rect x="592.16" y="873.48" width="5.13" height="8.02" class="down-body"/>
<line x1="602.62" y1="880.20" x2="602.62" y2="890.09" class="down-wick"/>
<rect x="600.05" y="880.80" width="5.13" height="7.16" class="down-body"/>
<line x1="610.51" y1="890.62" x2="610.51" y2="898.87" class="down-wick"/>
<rect x="607.94" y="892.08" width="5.13" height="6.46" class="down-body"/>
<line x1="618.40" y1="902.75" x2="618.40" y2="912.09" class="up-wick"/>
<rect x="615.83" y="906.23" width="5.13" height="1.46" class="up-body"/>
<line x1="626.29" y1="900.16" x2="626.29" y2="910.29" class="down-wick"/>
<rect x="623.72" y="900.21" width="5.13" height="7.72" class="down-body"/>
<line x1="634.18" y1="899.89" x2="634.18" y2="904.62" class="down-wick"/>
<rect x="631.62" y="901.63" width="5.13" height="2.99" class="down-body"/>
<line x1="642.07" y1="900.81" x2="642.07" y2="907.68" class="up-wick"/>
<rect x="639.51" y="906.72" width="5.13" height="1.00" class="up-body"/>
<line x1="649.96" y1="903.11" x2="649.96" y2="919.33" class="down-wick"/>
<rect x="647.40" y="906.58" width="5.13" height="11.52" class="down-body"/>
<line x1="657.85" y1="927.71" x2="657.85" y2="950.72" class="down-wick"/>
<rect x="655.29" y="931.82" width="5.13" height="8.72" class="down-body"/>
<line x1="665.74" y1="931.08" x2="665.74" y2="939.95" class="up-wick"/>
<rect x="663.18" y="934.98" width="5.13" height="4.74" class="up-body"/>
<line x1="673.63" y1="928.88" x2="673.63" y2="944.65" class="down-wick"/>
<rect x="671.07" y="929.70" width="5.13" height="12.77" class="down-body"/>
<line x1="681.52" y1="944.58" x2="681.52" y2="965.35" class="up-wick"/>
<rect x="678.96" y="947.63" width="5.13" height="7.26" class="up-body"/>
<line x1="689.41" y1="941.05" x2="689.41" y2="950.52" class="up-wick"/>
<rect x="686.85" y="942.69" width="5.13" height="7.70" class="up-body"/>
<line x1="697.30" y1="945.48" x2="697.30" y2="960.56" class="down-wick"/>
<rect x="694.74" y="945.48" width="5.13" height="15.08" class="down-body"/>
<line x1="705.20" y1="968.73" x2="705.20" y2="994.63" class="down-wick"/>
<rect x="702.63" y="969.94" width="5.13" height="11.95" class="down-body"/>
<line x1="713.09" y1="969.68" x2="713.09" y2="976.95" class="up-wick"/>
<rect x="710.52" y="975.25" width="5.13" height="1.00" class="up-body"/>
<line x1="720.98" y1="978.51" x2="720.98" y2="988.25" class="up-wick"/>
<rect x="718.41" y="979.52" width="5.13" height="1.39" class="up-body"/>
<line x1="728.87" y1="959.07" x2="728.87" y2="968.65" class="up-wick"/>
<rect x="726.30" y="963.18" width="5.13" height="5.39" class="up-body"/>
<line x1="736.76" y1="949.19" x2="736.76" y2="956.24" class="down-wick"/>
<rect x="734.19" y="952.99" width="5.13" height="3.10" class="down-body"/>
<line x1="744.65" y1="945.46" x2="744.65" y2="954.56" class="up-wick"/>
<rect x="742.08" y="950.17" width="5.13" height="3.07" class="up-body"/>
<line x1="752.54" y1="943.72" x2="752.54" y2="948.78" class="down-wick"/>
<rect x="749.97" y="946.67" width="5.13" height="1.00" class="down-body"/>
<line x1="760.43" y1="933.11" x2="760.43" y2="938.26" class="down-wick"/>
<rect x="757.87" y="933.23" width="5.13" height="2.60" class="down-body"/>
<line x1="768.32" y1="934.28" x2="768.32" y2="946.03" class="down-wick"/>
<rect x="765.76" y="934.60" width="5.13" height="8.05" class="down-body"/>
<line x1="776.21" y1="946.03" x2="776.21" y2="957.29" class="down-wick"/>
<rect x="773.65" y="946.52" width="5.13" height="3.19" class="down-body"/>
<line x1="784.10" y1="946.91" x2="784.10" y2="959.73" class="down-wick"/>
<rect x="781.54" y="955.64" width="5.13" height="2.64" class="down-body"/>
<line x1="791.99" y1="944.39" x2="791.99" y2="960.89" class="down-wick"/>
<rect x="789.43" y="946.46" width="5.13" height="13.16" class="down-body"/>
<line x1="799.88" y1="958.02" x2="799.88" y2="968.00" class="down-wick"/>
<rect x="797.32" y="960.37" width="5.13" height="5.13" class="down-body"/>
<line x1="807.77" y1="958.93" x2="807.77" y2="965.79" class="up-wick"/>
<rect x="805.21" y="958.95" width="5.13" height="6.38" class="up-body"/>
<line x1="815.66" y1="965.69" x2="815.66" y2="978.30" class="down-wick"/>
<rect x="813.10" y="968.26" width="5.13" height="7.76" class="down-body"/>
<line x1="823.55" y1="965.71" x2="823.55" y2="981.29" class="up-wick"/>
<rect x="820.99" y="966.52" width="5.13" height="14.32" class="up-body"/>
<line x1="831.45" y1="958.28" x2="831.45" y2="974.98" class="down-wick"/>
<rect x="828.88" y="961.57" width="5.13" height="9.45" class="down-body"/>
<line x1="839.34" y1="979.32" x2="839.34" y2="998.27" class="down-wick"/>
<rect x="836.77" y="981.09" width="5.13" height="14.14" class="down-body"/>
<line x1="847.23" y1="983.48" x2="847.23" y2="991.81" class="up-wick"/>
<rect x="844.66" y="988.81" width="5.13" height="1.00" class="up-body"/>
<line x1="855.12" y1="974.45" x2="855.12" y2="986.83" class="up-wick"/>
<rect x="852.55" y="985.09" width="5.13" height="1.00" class="up-body"/>
<line x1="863.01" y1="965.15" x2="863.01" y2="976.97" class="up-wick"/>
<rect x="860.44" y="968.31" width="5.13" height="8.64" class="up-body"/>
<line x1="870.90" y1="960.61" x2="870.90" y2="969.78" class="up-wick"/>
<rect x="868.33" y="961.22" width="5.13" height="4.03" class="up-body"/>
<line x1="878.79" y1="958.55" x2="878.79" y2="964.72" class="up-wick"/>
<rect x="876.22" y="960.50" width="5.13" height="4.07" class="up-body"/>
<line x1="886.68" y1="953.89" x2="886.68" y2="960.87" class="down-wick"/>
<rect x="884.12" y="954.02" width="5.13" height="4.63" class="down-body"/>
<line x1="894.57" y1="954.56" x2="894.57" y2="961.13" class="up-wick"/>
<rect x="892.01" y="958.44" width="5.13" height="2.44" class="up-body"/>
<line x1="902.46" y1="964.38" x2="902.46" y2="972.58" class="down-wick"/>
<rect x="899.90" y="967.05" width="5.13" height="2.67" class="down-body"/>
<line x1="910.35" y1="961.50" x2="910.35" y2="968.08" class="down-wick"/>
<rect x="907.79" y="965.09" width="5.13" height="1.00" class="down-body"/>
<line x1="918.24" y1="959.37" x2="918.24" y2="968.60" class="up-wick"/>
<rect x="915.68" y="960.49" width="5.13" height="6.32" class="up-body"/>
<line x1="926.13" y1="951.36" x2="926.13" y2="958.48" class="down-wick"/>
<rect x="923.57" y="957.47" width="5.13" height="1.00" class="down-body"/>
<line x1="934.02" y1="961.88" x2="934.02" y2="967.24" class="down-wick"/>
<rect x="931.46" y="964.88" width="5.13" height="1.13" class="down-body"/>
<line x1="941.91" y1="969.43" x2="941.91" y2="973.25" class="down-wick"/>
<rect x="939.35" y="971.60" width="5.13" height="1.00" class="down-body"/>
<line x1="949.80" y1="990.28" x2="949.80" y2="996.04" class="down-wick"/>
<rect x="947.24" y="991.25" width="5.13" height="4.79" class="down-body"/>
<line x1="957.70" y1="997.25" x2="957.70" y2="1006.50" class="down-wick"/>
<rect x="955.13" y="1000.65" width="5.13" height="5.39" class="down-body"/>
<line x1="965.59" y1="998.53" x2="965.59" y2="1004.85" class="down-wick"/>
<rect x="963.02" y="1001.17" width="5.13" height="1.74" class="down-body"/>
<line x1="973.48" y1="1005.13" x2="973.48" y2="1016.98" class="up-wick"/>
<rect x="970.91" y="1007.42" width="5.13" height="9.56" class="up-body"/>
<line x1="981.37" y1="1006.77" x2="981.37" y2="1015.34" class="up-wick"/>
<rect x="978.80" y="1009.95" width="5.13" height="4.67" class="up-body"/>
<line x1="989.26" y1="994.12" x2="989.26" y2="1000.56" class="up-wick"/>
<rect x="986.69" y="994.17" width="5.13" height="6.34" class="up-body"/>
<line x1="997.15" y1="994.31" x2="997.15" y2="1005.35" class="down-wick"/>
<rect x="994.58" y="996.38" width="5.13" height="4.45" class="down-body"/>
<line x1="1005.04" y1="995.10" x2="1005.04" y2="1003.51" class="up-wick"/>
<rect x="1002.47" y="999.45" width="5.13" height="2.25" class="up-body"/>
<line x1="1012.93" y1="994.98" x2="1012.93" y2="1008.35" class="down-wick"/>
<rect x="1010.37" y="999.59" width="5.13" height="1.27" class="down-body"/>
<line x1="1020.82" y1="1001.54" x2="1020.82" y2="1014.82" class="down-wick"/>
<rect x="1018.26" y="1005.35" width="5.13" height="9.09" class="down-body"/>
<line x1="1028.71" y1="996.49" x2="1028.71" y2="1002.07" class="up-wick"/>
<rect x="1026.15" y="998.91" width="5.13" height="2.44" class="up-body"/>
<line x1="1036.60" y1="991.93" x2="1036.60" y2="996.32" class="up-wick"/>
<rect x="1034.04" y="992.33" width="5.13" height="3.91" class="up-body"/>
<line x1="1044.49" y1="994.96" x2="1044.49" y2="1005.18" class="up-wick"/>
<rect x="1041.93" y="996.54" width="5.13" height="7.10" class="up-body"/>
<line x1="1052.38" y1="994.77" x2="1052.38" y2="1006.97" class="down-wick"/>
<rect x="1049.82" y="995.99" width="5.13" height="7.18" class="down-body"/>
<line x1="1060.27" y1="1004.00" x2="1060.27" y2="1017.11" class="down-wick"/>
<rect x="1057.71" y="1005.74" width="5.13" height="9.75" class="down-body"/>
<line x1="1068.16" y1="1012.93" x2="1068.16" y2="1024.76" class="up-wick"/>
<rect x="1065.60" y="1013.05" width="5.13" height="3.92" class="up-body"/>
<line x1="1076.05" y1="1017.24" x2="1076.05" y2="1021.93" class="up-wick"/>
<rect x="1073.49" y="1017.34" width="5.13" height="1.15" class="up-body"/>
<text x="70" y="1056" class="axis-label">2026-03-24 00:00:00+00:00 to 2026-03-24 04:14:00+00:00</text>
<text x="1080" y="1056" text-anchor="end" class="axis-label">4294.64 - 4457.76</text>
</svg>