<svg xmlns="http://www.w3.org/2000/svg" width="1120" height="804" viewBox="0 0 1120 804">
<style>
text{font-family:Arial,Helvetica,sans-serif}.title{font-size:21px;font-weight:700;fill:#1f2937}.subtitle{font-size:12px;fill:#4b5563}.panel-title{font-size:15px;font-weight:700;fill:#111827}.muted{font-size:13px;fill:#6b7280}.plot-bg{fill:#f8fafc;stroke:#cbd5e1;stroke-width:1}.up-body{fill:#15803d;stroke:#14532d;stroke-width:.8}.down-body{fill:#b91c1c;stroke:#7f1d1d;stroke-width:.8}.up-wick{stroke:#14532d;stroke-width:1}.down-wick{stroke:#7f1d1d;stroke-width:1}.sweep-line{stroke:#7c3aed;stroke-width:1.6;stroke-dasharray:6 4}.number-line{stroke:#0f766e;stroke-width:1.4;stroke-dasharray:3 4}.entry-line{stroke:#2563eb;stroke-width:1.4}.sl-line{stroke:#dc2626;stroke-width:1.4}.tp-line{stroke:#16a34a;stroke-width:1.4}.level-label,.axis-label{font-size:11px;fill:#374151}
</style>
<text x="28" y="28" class="title">Adelin v2 visual review sample sample_031</text>
<text x="28" y="48" class="subtitle">Candidate windows are for visual labeling only and are not trade signals.</text>
<text x="560" y="48" class="subtitle" text-anchor="middle">LONDON_OPEN_CONTEXT</text>
<text x="70" y="82" class="panel-title">H1 liquidity context</text>
<rect x="70" y="96" width="1010" height="192" class="plot-bg"/>
<text x="82" y="138" class="muted">No candles available for this timeframe/window.</text>
<text x="70" y="332" class="panel-title">M15 liquidity / reaction context</text>
<rect x="70" y="346" width="1010" height="192" class="plot-bg"/>
<line x1="77.32" y1="420.10" x2="77.32" y2="435.49" class="down-wick"/>
<rect x="73.32" y="420.10" width="8.00" height="14.62" class="down-body"/>
<line x1="91.96" y1="423.85" x2="91.96" y2="438.47" class="up-wick"/>
<rect x="87.96" y="427.32" width="8.00" height="7.39" class="up-body"/>
<line x1="106.59" y1="420.15" x2="106.59" y2="434.00" class="down-wick"/>
<rect x="102.59" y="426.50" width="8.00" height="5.85" class="down-body"/>
<line x1="121.23" y1="432.51" x2="121.23" y2="449.39" class="down-wick"/>
<rect x="117.23" y="432.51" width="8.00" height="10.87" class="down-body"/>
<line x1="135.87" y1="427.32" x2="135.87" y2="478.41" class="down-wick"/>
<rect x="131.87" y="443.43" width="8.00" height="11.92" class="down-body"/>
<line x1="150.51" y1="447.85" x2="150.51" y2="471.19" class="down-wick"/>
<rect x="146.51" y="455.30" width="8.00" height="13.08" class="down-body"/>
<line x1="165.14" y1="440.46" x2="165.14" y2="484.98" class="up-wick"/>
<rect x="161.14" y="465.28" width="8.00" height="3.03" class="up-body"/>
<line x1="179.78" y1="438.41" x2="179.78" y2="469.86" class="up-wick"/>
<rect x="175.78" y="448.07" width="8.00" height="18.37" class="up-body"/>
<line x1="194.42" y1="386.44" x2="194.42" y2="455.90" class="up-wick"/>
<rect x="190.42" y="389.14" width="8.00" height="58.21" class="up-body"/>
<line x1="209.06" y1="359.68" x2="209.06" y2="389.92" class="up-wick"/>
<rect x="205.06" y="376.23" width="8.00" height="13.35" class="up-body"/>
<line x1="223.70" y1="368.40" x2="223.70" y2="398.97" class="down-wick"/>
<rect x="219.70" y="376.57" width="8.00" height="19.92" class="down-body"/>
<line x1="238.33" y1="389.09" x2="238.33" y2="405.20" class="up-wick"/>
<rect x="234.33" y="391.63" width="8.00" height="4.86" class="up-body"/>
<line x1="252.97" y1="380.32" x2="252.97" y2="395.99" class="up-wick"/>
<rect x="248.97" y="390.47" width="8.00" height="1.43" class="up-body"/>
<line x1="267.61" y1="375.57" x2="267.61" y2="390.63" class="up-wick"/>
<rect x="263.61" y="382.52" width="8.00" height="7.94" class="up-body"/>
<line x1="282.25" y1="370.50" x2="282.25" y2="382.69" class="up-wick"/>
<rect x="278.25" y="371.93" width="8.00" height="10.65" class="up-body"/>
<line x1="296.88" y1="369.17" x2="296.88" y2="382.25" class="down-wick"/>
<rect x="292.88" y="372.04" width="8.00" height="9.88" class="down-body"/>
<line x1="311.52" y1="384.29" x2="311.52" y2="393.50" class="down-wick"/>
<rect x="307.52" y="384.29" width="8.00" height="5.74" class="down-body"/>
<line x1="326.16" y1="381.20" x2="326.16" y2="390.25" class="up-wick"/>
<rect x="322.16" y="383.24" width="8.00" height="6.84" class="up-body"/>
<line x1="340.80" y1="371.77" x2="340.80" y2="383.41" class="up-wick"/>
<rect x="336.80" y="380.70" width="8.00" height="2.21" class="up-body"/>
<line x1="355.43" y1="376.95" x2="355.43" y2="386.33" class="up-wick"/>
<rect x="351.43" y="378.06" width="8.00" height="2.54" class="up-body"/>
<line x1="370.07" y1="365.53" x2="370.07" y2="378.11" class="up-wick"/>
<rect x="366.07" y="368.12" width="8.00" height="9.99" class="up-body"/>
<line x1="384.71" y1="359.24" x2="384.71" y2="372.21" class="up-wick"/>
<rect x="380.71" y="366.36" width="8.00" height="1.77" class="up-body"/>
<line x1="399.35" y1="361.06" x2="399.35" y2="372.76" class="down-wick"/>
<rect x="395.35" y="366.19" width="8.00" height="2.54" class="down-body"/>
<line x1="413.99" y1="368.62" x2="413.99" y2="385.56" class="down-wick"/>
<rect x="409.99" y="368.73" width="8.00" height="13.02" class="down-body"/>
<line x1="428.62" y1="374.74" x2="428.62" y2="418.72" class="down-wick"/>
<rect x="424.62" y="381.42" width="8.00" height="36.30" class="down-body"/>
<line x1="443.26" y1="402.77" x2="443.26" y2="418.88" class="up-wick"/>
<rect x="439.26" y="407.68" width="8.00" height="10.65" class="up-body"/>
<line x1="457.90" y1="401.45" x2="457.90" y2="420.81" class="down-wick"/>
<rect x="453.90" y="407.30" width="8.00" height="4.52" class="down-body"/>
<line x1="472.54" y1="400.62" x2="472.54" y2="418.94" class="down-wick"/>
<rect x="468.54" y="411.32" width="8.00" height="5.85" class="down-body"/>
<line x1="487.17" y1="416.68" x2="487.17" y2="443.21" class="down-wick"/>
<rect x="483.17" y="417.06" width="8.00" height="7.94" class="down-body"/>
<line x1="501.81" y1="415.96" x2="501.81" y2="424.84" class="up-wick"/>
<rect x="497.81" y="417.94" width="8.00" height="6.73" class="up-body"/>
<line x1="516.45" y1="410.66" x2="516.45" y2="434.83" class="down-wick"/>
<rect x="512.45" y="418.55" width="8.00" height="14.73" class="down-body"/>
<line x1="531.09" y1="426.55" x2="531.09" y2="438.47" class="up-wick"/>
<rect x="527.09" y="429.86" width="8.00" height="3.81" class="up-body"/>
<line x1="545.72" y1="413.53" x2="545.72" y2="436.54" class="up-wick"/>
<rect x="541.72" y="415.57" width="8.00" height="14.84" class="up-body"/>
<line x1="560.36" y1="413.86" x2="560.36" y2="441.50" class="down-wick"/>
<rect x="556.36" y="415.57" width="8.00" height="25.54" class="down-body"/>
<line x1="575.00" y1="434.22" x2="575.00" y2="447.74" class="down-wick"/>
<rect x="571.00" y="441.06" width="8.00" height="6.40" class="down-body"/>
<line x1="589.64" y1="437.81" x2="589.64" y2="448.90" class="up-wick"/>
<rect x="585.64" y="442.99" width="8.00" height="4.52" class="up-body"/>
<line x1="604.28" y1="441.45" x2="604.28" y2="449.83" class="up-wick"/>
<rect x="600.28" y="442.00" width="8.00" height="1.32" class="up-body"/>
<line x1="618.91" y1="437.81" x2="618.91" y2="450.72" class="down-wick"/>
<rect x="614.91" y="442.00" width="8.00" height="8.11" class="down-body"/>
<line x1="633.55" y1="438.41" x2="633.55" y2="453.42" class="down-wick"/>
<rect x="629.55" y="449.89" width="8.00" height="1.00" class="down-body"/>
<line x1="648.19" y1="443.71" x2="648.19" y2="452.43" class="down-wick"/>
<rect x="644.19" y="450.00" width="8.00" height="1.77" class="down-body"/>
<line x1="662.83" y1="439.79" x2="662.83" y2="451.77" class="up-wick"/>
<rect x="658.83" y="442.61" width="8.00" height="9.16" class="up-body"/>
<line x1="677.46" y1="437.20" x2="677.46" y2="446.19" class="up-wick"/>
<rect x="673.46" y="439.96" width="8.00" height="2.59" class="up-body"/>
<line x1="692.10" y1="436.76" x2="692.10" y2="446.69" class="down-wick"/>
<rect x="688.10" y="439.08" width="8.00" height="5.79" class="down-body"/>
<line x1="706.74" y1="438.36" x2="706.74" y2="449.23" class="up-wick"/>
<rect x="702.74" y="443.27" width="8.00" height="1.66" class="up-body"/>
<line x1="721.38" y1="440.07" x2="721.38" y2="476.92" class="down-wick"/>
<rect x="717.38" y="443.27" width="8.00" height="24.44" class="down-body"/>
<line x1="736.01" y1="460.76" x2="736.01" y2="489.06" class="down-wick"/>
<rect x="732.01" y="467.93" width="8.00" height="19.86" class="down-body"/>
<line x1="750.65" y1="483.21" x2="750.65" y2="493.42" class="down-wick"/>
<rect x="746.65" y="487.52" width="8.00" height="1.00" class="down-body"/>
<line x1="765.29" y1="476.04" x2="765.29" y2="491.82" class="down-wick"/>
<rect x="761.29" y="487.35" width="8.00" height="4.08" class="down-body"/>
<line x1="779.93" y1="492.81" x2="779.93" y2="508.76" class="down-wick"/>
<rect x="775.93" y="492.81" width="8.00" height="15.72" class="down-body"/>
<line x1="794.57" y1="496.29" x2="794.57" y2="524.76" class="up-wick"/>
<rect x="790.57" y="508.59" width="8.00" height="1.00" class="up-body"/>
<line x1="809.20" y1="490.88" x2="809.20" y2="516.04" class="up-wick"/>
<rect x="805.20" y="491.27" width="8.00" height="16.88" class="up-body"/>
<line x1="823.84" y1="483.82" x2="823.84" y2="498.39" class="up-wick"/>
<rect x="819.84" y="485.92" width="8.00" height="5.35" class="up-body"/>
<line x1="838.48" y1="478.58" x2="838.48" y2="515.99" class="down-wick"/>
<rect x="834.48" y="485.75" width="8.00" height="12.14" class="down-body"/>
<line x1="853.12" y1="481.67" x2="853.12" y2="506.55" class="up-wick"/>
<rect x="849.12" y="483.43" width="8.00" height="15.23" class="up-body"/>
<line x1="867.75" y1="461.70" x2="867.75" y2="496.40" class="down-wick"/>
<rect x="863.75" y="483.43" width="8.00" height="9.54" class="down-body"/>
<line x1="882.39" y1="472.01" x2="882.39" y2="494.97" class="up-wick"/>
<rect x="878.39" y="478.58" width="8.00" height="15.01" class="up-body"/>
<line x1="897.03" y1="466.72" x2="897.03" y2="482.94" class="up-wick"/>
<rect x="893.03" y="467.10" width="8.00" height="12.14" class="up-body"/>
<line x1="911.67" y1="466.28" x2="911.67" y2="486.86" class="down-wick"/>
<rect x="907.67" y="466.72" width="8.00" height="8.50" class="down-body"/>
<line x1="926.30" y1="471.52" x2="926.30" y2="487.24" class="down-wick"/>
<rect x="922.30" y="476.54" width="8.00" height="1.00" class="down-body"/>
<line x1="940.94" y1="472.73" x2="940.94" y2="487.19" class="up-wick"/>
<rect x="936.94" y="475.77" width="8.00" height="1.49" class="up-body"/>
<line x1="955.58" y1="475.38" x2="955.58" y2="495.57" class="down-wick"/>
<rect x="951.58" y="475.38" width="8.00" height="13.02" class="down-body"/>
<line x1="970.22" y1="486.63" x2="970.22" y2="515.54" class="down-wick"/>
<rect x="966.22" y="488.34" width="8.00" height="9.27" class="down-body"/>
<line x1="984.86" y1="482.55" x2="984.86" y2="500.59" class="up-wick"/>
<rect x="980.86" y="483.32" width="8.00" height="14.23" class="up-body"/>
<line x1="999.49" y1="478.30" x2="999.49" y2="491.99" class="up-wick"/>
<rect x="995.49" y="479.57" width="8.00" height="4.36" class="up-body"/>
<line x1="1014.13" y1="474.55" x2="1014.13" y2="489.28" class="down-wick"/>
<rect x="1010.13" y="478.74" width="8.00" height="2.10" class="down-body"/>
<line x1="1028.77" y1="475.54" x2="1028.77" y2="483.49" class="up-wick"/>
<rect x="1024.77" y="477.64" width="8.00" height="2.32" class="up-body"/>
<line x1="1043.41" y1="450.11" x2="1043.41" y2="479.68" class="up-wick"/>
<rect x="1039.41" y="453.92" width="8.00" height="23.56" class="up-body"/>
<line x1="1058.04" y1="444.37" x2="1058.04" y2="465.89" class="down-wick"/>
<rect x="1054.04" y="454.25" width="8.00" height="7.01" class="down-body"/>
<line x1="1072.68" y1="460.04" x2="1072.68" y2="476.32" class="down-wick"/>
<rect x="1068.68" y="461.26" width="8.00" height="11.86" class="down-body"/>
<text x="70" y="556" class="axis-label">2024-11-07 20:00:00+00:00 to 2024-11-08 14:00:00+00:00</text>
<text x="1080" y="556" text-anchor="end" class="axis-label">2677.95 - 2712.75</text>
<text x="70" y="582" class="panel-title">M1 execution window</text>
<rect x="70" y="596" width="1010" height="192" class="plot-bg"/>
<text x="82" y="638" class="muted">No candles available for this timeframe/window.</text>
</svg>