<svg xmlns="http://www.w3.org/2000/svg" width="1120" height="804" viewBox="0 0 1120 804">
<style>
text{font-family:Arial,Helvetica,sans-serif}.title{font-size:21px;font-weight:700;fill:#1f2937}.subtitle{font-size:12px;fill:#4b5563}.panel-title{font-size:15px;font-weight:700;fill:#111827}.muted{font-size:13px;fill:#6b7280}.plot-bg{fill:#f8fafc;stroke:#cbd5e1;stroke-width:1}.up-body{fill:#15803d;stroke:#14532d;stroke-width:.8}.down-body{fill:#b91c1c;stroke:#7f1d1d;stroke-width:.8}.up-wick{stroke:#14532d;stroke-width:1}.down-wick{stroke:#7f1d1d;stroke-width:1}.sweep-line{stroke:#7c3aed;stroke-width:1.6;stroke-dasharray:6 4}.number-line{stroke:#0f766e;stroke-width:1.4;stroke-dasharray:3 4}.entry-line{stroke:#2563eb;stroke-width:1.4}.sl-line{stroke:#dc2626;stroke-width:1.4}.tp-line{stroke:#16a34a;stroke-width:1.4}.level-label,.axis-label{font-size:11px;fill:#374151}
</style>
<text x="28" y="28" class="title">Adelin v2 visual review sample sample_009</text>
<text x="28" y="48" class="subtitle">Candidate windows are for visual labeling only and are not trade signals.</text>
<text x="560" y="48" class="subtitle" text-anchor="middle">NUMBER_THEORY_LEVEL_NEAR</text>
<text x="70" y="82" class="panel-title">H1 liquidity context</text>
<rect x="70" y="96" width="1010" height="192" class="plot-bg"/>
<text x="82" y="138" class="muted">No candles available for this timeframe/window.</text>
<text x="70" y="332" class="panel-title">M15 liquidity / reaction context</text>
<rect x="70" y="346" width="1010" height="192" class="plot-bg"/>
<line x1="77.32" y1="508.71" x2="77.32" y2="524.76" class="up-wick"/>
<rect x="73.32" y="509.12" width="8.00" height="6.90" class="up-body"/>
<line x1="91.96" y1="502.40" x2="91.96" y2="517.68" class="down-wick"/>
<rect x="87.96" y="509.12" width="8.00" height="1.00" class="down-body"/>
<line x1="106.59" y1="484.15" x2="106.59" y2="516.61" class="up-wick"/>
<rect x="102.59" y="490.63" width="8.00" height="18.97" class="up-body"/>
<line x1="121.23" y1="470.89" x2="121.23" y2="490.99" class="up-wick"/>
<rect x="117.23" y="478.56" width="8.00" height="12.43" class="up-body"/>
<line x1="135.87" y1="471.90" x2="135.87" y2="485.46" class="down-wick"/>
<rect x="131.87" y="478.68" width="8.00" height="5.05" class="down-body"/>
<line x1="150.51" y1="474.58" x2="150.51" y2="491.64" class="up-wick"/>
<rect x="146.51" y="478.80" width="8.00" height="5.59" class="up-body"/>
<line x1="165.14" y1="473.21" x2="165.14" y2="481.12" class="up-wick"/>
<rect x="161.14" y="473.39" width="8.00" height="5.47" class="up-body"/>
<line x1="179.78" y1="464.59" x2="179.78" y2="474.64" class="up-wick"/>
<rect x="175.78" y="468.58" width="8.00" height="4.70" class="up-body"/>
<line x1="194.42" y1="452.46" x2="194.42" y2="469.65" class="up-wick"/>
<rect x="190.42" y="452.88" width="8.00" height="15.70" class="up-body"/>
<line x1="209.06" y1="446.99" x2="209.06" y2="458.41" class="down-wick"/>
<rect x="205.06" y="452.88" width="8.00" height="1.00" class="down-body"/>
<line x1="223.70" y1="446.40" x2="223.70" y2="457.10" class="up-wick"/>
<rect x="219.70" y="450.80" width="8.00" height="2.26" class="up-body"/>
<line x1="238.33" y1="450.38" x2="238.33" y2="459.78" class="down-wick"/>
<rect x="234.33" y="450.56" width="8.00" height="7.91" class="down-body"/>
<line x1="252.97" y1="456.63" x2="252.97" y2="465.66" class="down-wick"/>
<rect x="248.97" y="458.47" width="8.00" height="3.98" class="down-body"/>
<line x1="267.61" y1="461.98" x2="267.61" y2="473.75" class="down-wick"/>
<rect x="263.61" y="462.45" width="8.00" height="4.28" class="down-body"/>
<line x1="282.25" y1="459.72" x2="282.25" y2="472.26" class="down-wick"/>
<rect x="278.25" y="467.21" width="8.00" height="4.82" class="down-body"/>
<line x1="296.88" y1="462.21" x2="296.88" y2="471.01" class="up-wick"/>
<rect x="292.88" y="464.77" width="8.00" height="6.18" class="up-body"/>
<line x1="311.52" y1="461.74" x2="311.52" y2="468.04" class="up-wick"/>
<rect x="307.52" y="462.57" width="8.00" height="1.13" class="up-body"/>
<line x1="326.16" y1="462.15" x2="326.16" y2="466.20" class="down-wick"/>
<rect x="322.16" y="462.39" width="8.00" height="3.03" class="down-body"/>
<line x1="340.80" y1="457.76" x2="340.80" y2="467.62" class="up-wick"/>
<rect x="336.80" y="458.47" width="8.00" height="6.96" class="up-body"/>
<line x1="355.43" y1="453.18" x2="355.43" y2="460.61" class="up-wick"/>
<rect x="351.43" y="455.97" width="8.00" height="2.50" class="up-body"/>
<line x1="370.07" y1="455.14" x2="370.07" y2="464.77" class="down-wick"/>
<rect x="366.07" y="455.85" width="8.00" height="7.73" class="down-body"/>
<line x1="384.71" y1="459.12" x2="384.71" y2="465.13" class="down-wick"/>
<rect x="380.71" y="463.58" width="8.00" height="1.00" class="down-body"/>
<line x1="399.35" y1="462.51" x2="399.35" y2="466.61" class="down-wick"/>
<rect x="395.35" y="463.82" width="8.00" height="1.66" class="down-body"/>
<line x1="413.99" y1="458.59" x2="413.99" y2="465.48" class="up-wick"/>
<rect x="409.99" y="459.18" width="8.00" height="6.30" class="up-body"/>
<line x1="428.62" y1="459.06" x2="428.62" y2="462.63" class="down-wick"/>
<rect x="424.62" y="459.18" width="8.00" height="3.09" class="down-body"/>
<line x1="443.26" y1="459.24" x2="443.26" y2="462.45" class="up-wick"/>
<rect x="439.26" y="459.54" width="8.00" height="2.73" class="up-body"/>
<line x1="457.90" y1="460.13" x2="457.90" y2="468.52" class="down-wick"/>
<rect x="453.90" y="460.31" width="8.00" height="5.65" class="down-body"/>
<line x1="472.54" y1="465.48" x2="472.54" y2="473.75" class="down-wick"/>
<rect x="468.54" y="465.96" width="8.00" height="3.33" class="down-body"/>
<line x1="487.17" y1="464.65" x2="487.17" y2="470.95" class="down-wick"/>
<rect x="483.17" y="469.29" width="8.00" height="1.00" class="down-body"/>
<line x1="501.81" y1="464.83" x2="501.81" y2="470.00" class="up-wick"/>
<rect x="497.81" y="469.41" width="8.00" height="1.00" class="up-body"/>
<line x1="516.45" y1="463.11" x2="516.45" y2="474.76" class="down-wick"/>
<rect x="512.45" y="469.29" width="8.00" height="1.49" class="down-body"/>
<line x1="531.09" y1="466.02" x2="531.09" y2="471.31" class="up-wick"/>
<rect x="527.09" y="468.87" width="8.00" height="1.78" class="up-body"/>
<line x1="545.72" y1="464.24" x2="545.72" y2="474.58" class="down-wick"/>
<rect x="541.72" y="468.87" width="8.00" height="1.31" class="down-body"/>
<line x1="560.36" y1="461.62" x2="560.36" y2="472.56" class="up-wick"/>
<rect x="556.36" y="463.64" width="8.00" height="6.54" class="up-body"/>
<line x1="575.00" y1="450.26" x2="575.00" y2="466.08" class="up-wick"/>
<rect x="571.00" y="459.84" width="8.00" height="3.80" class="up-body"/>
<line x1="589.64" y1="452.82" x2="589.64" y2="464.00" class="up-wick"/>
<rect x="585.64" y="459.18" width="8.00" height="1.00" class="up-body"/>
<line x1="604.28" y1="455.26" x2="604.28" y2="463.88" class="down-wick"/>
<rect x="600.28" y="459.18" width="8.00" height="4.58" class="down-body"/>
<line x1="618.91" y1="459.42" x2="618.91" y2="464.59" class="up-wick"/>
<rect x="614.91" y="461.62" width="8.00" height="2.08" class="up-body"/>
<line x1="633.55" y1="451.45" x2="633.55" y2="462.04" class="up-wick"/>
<rect x="629.55" y="459.84" width="8.00" height="1.66" class="up-body"/>
<line x1="648.19" y1="449.37" x2="648.19" y2="461.50" class="up-wick"/>
<rect x="644.19" y="452.40" width="8.00" height="7.02" class="up-body"/>
<line x1="662.83" y1="447.05" x2="662.83" y2="456.51" class="up-wick"/>
<rect x="658.83" y="450.44" width="8.00" height="1.72" class="up-body"/>
<line x1="677.46" y1="449.25" x2="677.46" y2="457.58" class="down-wick"/>
<rect x="673.46" y="450.44" width="8.00" height="3.45" class="down-body"/>
<line x1="692.10" y1="440.99" x2="692.10" y2="454.49" class="up-wick"/>
<rect x="688.10" y="440.99" width="8.00" height="13.50" class="up-body"/>
<line x1="706.74" y1="438.37" x2="706.74" y2="443.61" class="down-wick"/>
<rect x="702.74" y="440.81" width="8.00" height="1.43" class="down-body"/>
<line x1="721.38" y1="439.50" x2="721.38" y2="446.70" class="down-wick"/>
<rect x="717.38" y="442.24" width="8.00" height="1.00" class="down-body"/>
<line x1="736.01" y1="439.44" x2="736.01" y2="447.23" class="down-wick"/>
<rect x="732.01" y="443.07" width="8.00" height="3.92" class="down-body"/>
<line x1="750.65" y1="444.97" x2="750.65" y2="455.20" class="down-wick"/>
<rect x="746.65" y="447.35" width="8.00" height="7.55" class="down-body"/>
<line x1="765.29" y1="453.65" x2="765.29" y2="467.03" class="down-wick"/>
<rect x="761.29" y="454.49" width="8.00" height="7.37" class="down-body"/>
<line x1="779.93" y1="461.50" x2="779.93" y2="469.47" class="down-wick"/>
<rect x="775.93" y="461.86" width="8.00" height="2.50" class="down-body"/>
<line x1="794.57" y1="461.08" x2="794.57" y2="468.87" class="up-wick"/>
<rect x="790.57" y="463.22" width="8.00" height="1.07" class="up-body"/>
<line x1="809.20" y1="454.54" x2="809.20" y2="465.31" class="up-wick"/>
<rect x="805.20" y="460.61" width="8.00" height="2.62" class="up-body"/>
<line x1="823.84" y1="449.85" x2="823.84" y2="461.92" class="up-wick"/>
<rect x="819.84" y="452.94" width="8.00" height="7.67" class="up-body"/>
<line x1="838.48" y1="445.98" x2="838.48" y2="457.22" class="down-wick"/>
<rect x="834.48" y="453.36" width="8.00" height="1.55" class="down-body"/>
<line x1="853.12" y1="449.25" x2="853.12" y2="458.88" class="up-wick"/>
<rect x="849.12" y="453.77" width="8.00" height="2.08" class="up-body"/>
<line x1="867.75" y1="446.93" x2="867.75" y2="462.93" class="down-wick"/>
<rect x="863.75" y="453.59" width="8.00" height="1.13" class="down-body"/>
<line x1="882.39" y1="450.92" x2="882.39" y2="458.88" class="up-wick"/>
<rect x="878.39" y="451.75" width="8.00" height="3.09" class="up-body"/>
<line x1="897.03" y1="428.50" x2="897.03" y2="453.24" class="up-wick"/>
<rect x="893.03" y="432.13" width="8.00" height="19.38" class="up-body"/>
<line x1="911.67" y1="424.52" x2="911.67" y2="433.44" class="up-wick"/>
<rect x="907.67" y="425.00" width="8.00" height="5.47" class="up-body"/>
<line x1="926.30" y1="414.95" x2="926.30" y2="434.93" class="down-wick"/>
<rect x="922.30" y="425.00" width="8.00" height="2.26" class="down-body"/>
<line x1="940.94" y1="421.43" x2="940.94" y2="431.30" class="down-wick"/>
<rect x="936.94" y="427.26" width="8.00" height="2.14" class="down-body"/>
<line x1="955.58" y1="417.09" x2="955.58" y2="429.69" class="up-wick"/>
<rect x="951.58" y="419.29" width="8.00" height="10.40" class="up-body"/>
<line x1="970.22" y1="391.23" x2="970.22" y2="422.98" class="up-wick"/>
<rect x="966.22" y="391.88" width="8.00" height="27.65" class="up-body"/>
<line x1="984.86" y1="370.18" x2="984.86" y2="393.49" class="up-wick"/>
<rect x="980.86" y="371.25" width="8.00" height="20.63" class="up-body"/>
<line x1="999.49" y1="359.24" x2="999.49" y2="376.07" class="up-wick"/>
<rect x="995.49" y="366.26" width="8.00" height="4.52" class="up-body"/>
<line x1="1014.13" y1="359.48" x2="1014.13" y2="368.46" class="down-wick"/>
<rect x="1010.13" y="365.31" width="8.00" height="1.00" class="down-body"/>
<line x1="1028.77" y1="362.04" x2="1028.77" y2="376.13" class="down-wick"/>
<rect x="1024.77" y="366.44" width="8.00" height="5.65" class="down-body"/>
<line x1="1043.41" y1="369.88" x2="1043.41" y2="393.72" class="down-wick"/>
<rect x="1039.41" y="372.44" width="8.00" height="19.44" class="down-body"/>
<line x1="1058.04" y1="385.82" x2="1058.04" y2="395.33" class="up-wick"/>
<rect x="1054.04" y="389.15" width="8.00" height="3.45" class="up-body"/>
<line x1="1072.68" y1="386.89" x2="1072.68" y2="392.42" class="up-wick"/>
<rect x="1068.68" y="387.36" width="8.00" height="1.78" class="up-body"/>
<line x1="70" y1="444.08" x2="1080" y2="444.08" class="number-line"/>
<text x="1076" y="440.08" text-anchor="end" class="level-label">round 2360.00</text>
<text x="70" y="556" class="axis-label">2024-05-14 19:00:00+00:00 to 2024-05-15 13:00:00+00:00</text>
<text x="1080" y="556" text-anchor="end" class="axis-label">2344.20 - 2376.50</text>
<text x="70" y="582" class="panel-title">M1 execution window</text>
<rect x="70" y="596" width="1010" height="192" class="plot-bg"/>
<text x="82" y="638" class="muted">No candles available for this timeframe/window.</text>
</svg>