<svg xmlns="http://www.w3.org/2000/svg" width="1120" height="1054" viewBox="0 0 1120 1054">
<style>
text{font-family:Arial,Helvetica,sans-serif}.title{font-size:21px;font-weight:700;fill:#1f2937}.subtitle{font-size:12px;fill:#4b5563}.panel-title{font-size:15px;font-weight:700;fill:#111827}.muted{font-size:13px;fill:#6b7280}.plot-bg{fill:#f8fafc;stroke:#cbd5e1;stroke-width:1}.up-body{fill:#15803d;stroke:#14532d;stroke-width:.8}.down-body{fill:#b91c1c;stroke:#7f1d1d;stroke-width:.8}.up-wick{stroke:#14532d;stroke-width:1}.down-wick{stroke:#7f1d1d;stroke-width:1}.sweep-line{stroke:#7c3aed;stroke-width:1.6;stroke-dasharray:6 4}.number-line{stroke:#0f766e;stroke-width:1.4;stroke-dasharray:3 4}.entry-line{stroke:#2563eb;stroke-width:1.4}.sl-line{stroke:#dc2626;stroke-width:1.4}.tp-line{stroke:#16a34a;stroke-width:1.4}.level-label,.axis-label{font-size:11px;fill:#374151}
</style>
<text x="28" y="28" class="title">Adelin v2 visual review sample sample_027</text>
<text x="28" y="48" class="subtitle">Candidate windows are for visual labeling only and are not trade signals.</text>
<text x="560" y="48" class="subtitle" text-anchor="middle">LARGE_UPPER_WICK_REVERSAL_VISUAL_CANDIDATE</text>
<text x="70" y="82" class="panel-title">H1 liquidity context</text>
<rect x="70" y="96" width="1010" height="192" class="plot-bg"/>
<line x1="81.48" y1="147.88" x2="81.48" y2="196.38" class="down-wick"/>
<rect x="77.48" y="162.14" width="8.00" height="13.11" class="down-body"/>
<line x1="104.43" y1="134.55" x2="104.43" y2="177.67" class="up-wick"/>
<rect x="100.43" y="144.38" width="8.00" height="30.87" class="up-body"/>
<line x1="127.39" y1="137.94" x2="127.39" y2="168.97" class="down-wick"/>
<rect x="123.39" y="144.47" width="8.00" height="21.39" class="down-body"/>
<line x1="150.34" y1="155.60" x2="150.34" y2="178.51" class="down-wick"/>
<rect x="146.34" y="165.87" width="8.00" height="9.28" class="down-body"/>
<line x1="173.30" y1="157.30" x2="173.30" y2="226.96" class="down-wick"/>
<rect x="169.30" y="175.15" width="8.00" height="18.81" class="down-body"/>
<line x1="196.25" y1="143.81" x2="196.25" y2="206.21" class="up-wick"/>
<rect x="192.25" y="149.49" width="8.00" height="44.53" class="up-body"/>
<line x1="219.20" y1="148.67" x2="219.20" y2="193.60" class="down-wick"/>
<rect x="215.20" y="149.28" width="8.00" height="35.01" class="down-body"/>
<line x1="242.16" y1="171.78" x2="242.16" y2="200.23" class="up-wick"/>
<rect x="238.16" y="177.40" width="8.00" height="6.88" class="up-body"/>
<line x1="265.11" y1="146.88" x2="265.11" y2="179.25" class="up-wick"/>
<rect x="261.11" y="154.29" width="8.00" height="23.17" class="up-body"/>
<line x1="288.07" y1="148.96" x2="288.07" y2="165.27" class="down-wick"/>
<rect x="284.07" y="154.17" width="8.00" height="1.00" class="down-body"/>
<line x1="311.02" y1="153.33" x2="311.02" y2="176.52" class="down-wick"/>
<rect x="307.02" y="154.72" width="8.00" height="20.44" class="down-body"/>
<line x1="333.98" y1="161.43" x2="333.98" y2="239.18" class="up-wick"/>
<rect x="329.98" y="174.65" width="8.00" height="11.17" class="up-body"/>
<line x1="356.93" y1="171.76" x2="356.93" y2="196.42" class="down-wick"/>
<rect x="352.93" y="174.65" width="8.00" height="13.75" class="down-body"/>
<line x1="379.89" y1="180.18" x2="379.89" y2="274.76" class="down-wick"/>
<rect x="375.89" y="188.37" width="8.00" height="32.15" class="down-body"/>
<line x1="402.84" y1="190.48" x2="402.84" y2="260.66" class="up-wick"/>
<rect x="398.84" y="206.15" width="8.00" height="15.16" class="up-body"/>
<line x1="425.80" y1="179.69" x2="425.80" y2="211.48" class="up-wick"/>
<rect x="421.80" y="193.60" width="8.00" height="12.55" class="up-body"/>
<line x1="448.75" y1="171.99" x2="448.75" y2="206.52" class="up-wick"/>
<rect x="444.75" y="182.23" width="8.00" height="11.36" class="up-body"/>
<line x1="471.70" y1="169.12" x2="471.70" y2="199.23" class="down-wick"/>
<rect x="467.70" y="182.25" width="8.00" height="1.00" class="down-body"/>
<line x1="494.66" y1="165.72" x2="494.66" y2="199.38" class="down-wick"/>
<rect x="490.66" y="182.99" width="8.00" height="14.83" class="down-body"/>
<line x1="517.61" y1="171.66" x2="517.61" y2="199.73" class="up-wick"/>
<rect x="513.61" y="173.69" width="8.00" height="24.13" class="up-body"/>
<line x1="540.57" y1="153.79" x2="540.57" y2="186.68" class="down-wick"/>
<rect x="536.57" y="173.69" width="8.00" height="1.00" class="down-body"/>
<line x1="563.52" y1="158.24" x2="563.52" y2="179.97" class="up-wick"/>
<rect x="559.52" y="168.86" width="8.00" height="5.67" class="up-body"/>
<line x1="586.48" y1="165.85" x2="586.48" y2="183.92" class="down-wick"/>
<rect x="582.48" y="168.86" width="8.00" height="10.68" class="down-body"/>
<line x1="609.43" y1="172.20" x2="609.43" y2="196.30" class="down-wick"/>
<rect x="605.43" y="179.54" width="8.00" height="4.13" class="down-body"/>
<line x1="632.39" y1="142.73" x2="632.39" y2="199.48" class="up-wick"/>
<rect x="628.39" y="167.89" width="8.00" height="15.79" class="up-body"/>
<line x1="655.34" y1="130.95" x2="655.34" y2="176.00" class="up-wick"/>
<rect x="651.34" y="136.62" width="8.00" height="31.28" class="up-body"/>
<line x1="678.30" y1="116.79" x2="678.30" y2="150.86" class="up-wick"/>
<rect x="674.30" y="129.49" width="8.00" height="7.14" class="up-body"/>
<line x1="701.25" y1="129.49" x2="701.25" y2="187.32" class="down-wick"/>
<rect x="697.25" y="129.49" width="8.00" height="44.68" class="down-body"/>
<line x1="724.20" y1="171.96" x2="724.20" y2="196.39" class="down-wick"/>
<rect x="720.20" y="174.19" width="8.00" height="4.41" class="down-body"/>
<line x1="747.16" y1="162.11" x2="747.16" y2="193.23" class="up-wick"/>
<rect x="743.16" y="168.54" width="8.00" height="10.06" class="up-body"/>
<line x1="770.11" y1="156.22" x2="770.11" y2="175.59" class="down-wick"/>
<rect x="766.11" y="168.54" width="8.00" height="4.88" class="down-body"/>
<line x1="793.07" y1="172.19" x2="793.07" y2="193.05" class="down-wick"/>
<rect x="789.07" y="173.42" width="8.00" height="16.82" class="down-body"/>
<line x1="816.02" y1="146.01" x2="816.02" y2="191.10" class="up-wick"/>
<rect x="812.02" y="156.05" width="8.00" height="34.19" class="up-body"/>
<line x1="838.98" y1="125.83" x2="838.98" y2="144.70" class="up-wick"/>
<rect x="834.98" y="132.56" width="8.00" height="11.38" class="up-body"/>
<line x1="861.93" y1="109.61" x2="861.93" y2="132.85" class="up-wick"/>
<rect x="857.93" y="120.56" width="8.00" height="12.03" class="up-body"/>
<line x1="884.89" y1="109.24" x2="884.89" y2="151.69" class="down-wick"/>
<rect x="880.89" y="120.56" width="8.00" height="27.93" class="down-body"/>
<line x1="907.84" y1="134.71" x2="907.84" y2="162.57" class="up-wick"/>
<rect x="903.84" y="147.85" width="8.00" height="1.00" class="up-body"/>
<line x1="930.80" y1="147.85" x2="930.80" y2="174.95" class="down-wick"/>
<rect x="926.80" y="147.85" width="8.00" height="25.28" class="down-body"/>
<line x1="953.75" y1="161.08" x2="953.75" y2="178.60" class="down-wick"/>
<rect x="949.75" y="173.13" width="8.00" height="3.19" class="down-body"/>
<line x1="976.70" y1="175.39" x2="976.70" y2="187.02" class="down-wick"/>
<rect x="972.70" y="176.32" width="8.00" height="4.04" class="down-body"/>
<line x1="999.66" y1="174.01" x2="999.66" y2="197.90" class="down-wick"/>
<rect x="995.66" y="180.33" width="8.00" height="2.34" class="down-body"/>
<line x1="1022.61" y1="162.89" x2="1022.61" y2="193.99" class="up-wick"/>
<rect x="1018.61" y="171.64" width="8.00" height="11.03" class="up-body"/>
<line x1="1045.57" y1="154.76" x2="1045.57" y2="181.91" class="up-wick"/>
<rect x="1041.57" y="157.89" width="8.00" height="13.75" class="up-body"/>
<line x1="1068.52" y1="154.96" x2="1068.52" y2="189.52" class="down-wick"/>
<rect x="1064.52" y="157.89" width="8.00" height="21.92" class="down-body"/>
<text x="70" y="306" class="axis-label">2026-05-15 12:00:00+00:00 to 2026-05-19 11:00:00+00:00</text>
<text x="1080" y="306" text-anchor="end" class="axis-label">4471.58 - 4597.96</text>
<text x="70" y="332" class="panel-title">M15 liquidity / reaction context</text>
<rect x="70" y="346" width="1010" height="192" class="plot-bg"/>
<line x1="77.54" y1="406.01" x2="77.54" y2="487.47" class="up-wick"/>
<rect x="73.54" y="416.39" width="8.00" height="15.17" class="up-body"/>
<line x1="92.61" y1="413.77" x2="92.61" y2="432.77" class="down-wick"/>
<rect x="88.61" y="416.39" width="8.00" height="11.61" class="down-body"/>
<line x1="107.69" y1="407.76" x2="107.69" y2="428.16" class="up-wick"/>
<rect x="103.69" y="413.83" width="8.00" height="14.15" class="up-body"/>
<line x1="122.76" y1="406.41" x2="122.76" y2="423.88" class="down-wick"/>
<rect x="118.76" y="413.83" width="8.00" height="6.03" class="down-body"/>
<line x1="137.84" y1="416.84" x2="137.84" y2="430.53" class="down-wick"/>
<rect x="133.84" y="419.86" width="8.00" height="7.29" class="down-body"/>
<line x1="152.91" y1="422.79" x2="152.91" y2="433.14" class="down-wick"/>
<rect x="148.91" y="427.14" width="8.00" height="5.79" class="down-body"/>
<line x1="167.99" y1="427.46" x2="167.99" y2="441.64" class="up-wick"/>
<rect x="163.99" y="431.09" width="8.00" height="1.85" class="up-body"/>
<line x1="183.06" y1="423.14" x2="183.06" y2="442.68" class="down-wick"/>
<rect x="179.06" y="431.21" width="8.00" height="3.06" class="down-body"/>
<line x1="198.13" y1="425.66" x2="198.13" y2="456.86" class="down-wick"/>
<rect x="194.13" y="434.24" width="8.00" height="17.30" class="down-body"/>
<line x1="213.21" y1="439.87" x2="213.21" y2="470.52" class="down-wick"/>
<rect x="209.21" y="451.54" width="8.00" height="16.75" class="down-body"/>
<line x1="228.28" y1="462.97" x2="228.28" y2="524.57" class="down-wick"/>
<rect x="224.28" y="468.29" width="8.00" height="54.40" class="down-body"/>
<line x1="243.36" y1="466.81" x2="243.36" y2="524.76" class="up-wick"/>
<rect x="239.36" y="467.93" width="8.00" height="54.76" class="up-body"/>
<line x1="258.43" y1="467.65" x2="258.43" y2="509.99" class="down-wick"/>
<rect x="254.43" y="468.75" width="8.00" height="31.03" class="down-body"/>
<line x1="273.51" y1="477.48" x2="273.51" y2="504.73" class="up-wick"/>
<rect x="269.51" y="487.00" width="8.00" height="12.80" class="up-body"/>
<line x1="288.58" y1="471.35" x2="288.58" y2="493.72" class="up-wick"/>
<rect x="284.58" y="473.42" width="8.00" height="13.58" class="up-body"/>
<line x1="303.66" y1="436.45" x2="303.66" y2="475.90" class="up-wick"/>
<rect x="299.66" y="452.87" width="8.00" height="20.55" class="up-body"/>
<line x1="318.73" y1="431.98" x2="318.73" y2="458.45" class="up-wick"/>
<rect x="314.73" y="435.00" width="8.00" height="17.86" class="up-body"/>
<line x1="333.81" y1="428.60" x2="333.81" y2="442.60" class="down-wick"/>
<rect x="329.81" y="435.00" width="8.00" height="5.01" class="down-body"/>
<line x1="348.88" y1="427.84" x2="348.88" y2="446.43" class="up-wick"/>
<rect x="344.88" y="435.70" width="8.00" height="4.31" class="up-body"/>
<line x1="363.96" y1="425.15" x2="363.96" y2="444.94" class="down-wick"/>
<rect x="359.96" y="435.70" width="8.00" height="4.01" class="down-body"/>
<line x1="379.03" y1="436.39" x2="379.03" y2="450.84" class="down-wick"/>
<rect x="375.03" y="439.72" width="8.00" height="6.48" class="down-body"/>
<line x1="394.10" y1="432.22" x2="394.10" y2="448.31" class="up-wick"/>
<rect x="390.10" y="436.12" width="8.00" height="10.08" class="up-body"/>
<line x1="409.18" y1="417.08" x2="409.18" y2="453.26" class="up-wick"/>
<rect x="405.18" y="420.58" width="8.00" height="15.54" class="up-body"/>
<line x1="424.25" y1="417.25" x2="424.25" y2="430.72" class="down-wick"/>
<rect x="420.25" y="420.58" width="8.00" height="7.23" class="down-body"/>
<line x1="439.33" y1="414.07" x2="439.33" y2="428.16" class="up-wick"/>
<rect x="435.33" y="422.75" width="8.00" height="5.08" class="up-body"/>
<line x1="454.40" y1="418.37" x2="454.40" y2="445.62" class="down-wick"/>
<rect x="450.40" y="422.75" width="8.00" height="18.59" class="down-body"/>
<line x1="469.48" y1="422.90" x2="469.48" y2="442.14" class="up-wick"/>
<rect x="465.48" y="426.98" width="8.00" height="14.46" class="up-body"/>
<line x1="484.55" y1="420.68" x2="484.55" y2="437.41" class="down-wick"/>
<rect x="480.55" y="426.98" width="8.00" height="1.66" class="down-body"/>
<line x1="499.63" y1="425.15" x2="499.63" y2="440.93" class="down-wick"/>
<rect x="495.63" y="428.60" width="8.00" height="3.90" class="down-body"/>
<line x1="514.70" y1="412.72" x2="514.70" y2="437.82" class="up-wick"/>
<rect x="510.70" y="415.72" width="8.00" height="16.78" class="up-body"/>
<line x1="529.78" y1="410.50" x2="529.78" y2="432.20" class="down-wick"/>
<rect x="525.78" y="415.72" width="8.00" height="14.63" class="down-body"/>
<line x1="544.85" y1="424.83" x2="544.85" y2="445.78" class="down-wick"/>
<rect x="540.85" y="430.35" width="8.00" height="13.79" class="down-body"/>
<line x1="559.93" y1="428.92" x2="559.93" y2="446.15" class="up-wick"/>
<rect x="555.93" y="433.79" width="8.00" height="10.35" class="up-body"/>
<line x1="575.00" y1="416.73" x2="575.00" y2="438.52" class="up-wick"/>
<rect x="571.00" y="433.59" width="8.00" height="1.00" class="up-body"/>
<line x1="590.07" y1="418.38" x2="590.07" y2="438.36" class="up-wick"/>
<rect x="586.07" y="428.57" width="8.00" height="5.00" class="up-body"/>
<line x1="605.15" y1="417.40" x2="605.15" y2="432.04" class="up-wick"/>
<rect x="601.15" y="418.86" width="8.00" height="9.71" class="up-body"/>
<line x1="620.22" y1="414.67" x2="620.22" y2="426.49" class="down-wick"/>
<rect x="616.22" y="418.86" width="8.00" height="5.08" class="down-body"/>
<line x1="635.30" y1="411.52" x2="635.30" y2="432.47" class="up-wick"/>
<rect x="631.30" y="412.87" width="8.00" height="11.06" class="up-body"/>
<line x1="650.37" y1="398.01" x2="650.37" y2="417.22" class="down-wick"/>
<rect x="646.37" y="412.87" width="8.00" height="2.45" class="down-body"/>
<line x1="665.45" y1="410.93" x2="665.45" y2="429.62" class="down-wick"/>
<rect x="661.45" y="415.33" width="8.00" height="4.41" class="down-body"/>
<line x1="680.52" y1="415.60" x2="680.52" y2="425.44" class="up-wick"/>
<rect x="676.52" y="419.27" width="8.00" height="1.00" class="up-body"/>
<line x1="695.60" y1="411.41" x2="695.60" y2="425.26" class="up-wick"/>
<rect x="691.60" y="417.00" width="8.00" height="2.28" class="up-body"/>
<line x1="710.67" y1="408.83" x2="710.67" y2="419.88" class="up-wick"/>
<rect x="706.67" y="416.92" width="8.00" height="1.00" class="up-body"/>
<line x1="725.75" y1="402.67" x2="725.75" y2="416.93" class="up-wick"/>
<rect x="721.75" y="413.80" width="8.00" height="3.14" class="up-body"/>
<line x1="740.82" y1="410.65" x2="740.82" y2="427.66" class="down-wick"/>
<rect x="736.82" y="413.80" width="8.00" height="5.89" class="down-body"/>
<line x1="755.90" y1="415.49" x2="755.90" y2="422.47" class="down-wick"/>
<rect x="751.90" y="419.67" width="8.00" height="2.07" class="down-body"/>
<line x1="770.97" y1="419.43" x2="770.97" y2="428.60" class="down-wick"/>
<rect x="766.97" y="422.00" width="8.00" height="3.02" class="down-body"/>
<line x1="786.04" y1="422.28" x2="786.04" y2="429.57" class="down-wick"/>
<rect x="782.04" y="424.97" width="8.00" height="1.00" class="down-body"/>
<line x1="801.12" y1="421.71" x2="801.12" y2="436.56" class="down-wick"/>
<rect x="797.12" y="424.99" width="8.00" height="5.97" class="down-body"/>
<line x1="816.19" y1="425.87" x2="816.19" y2="432.74" class="up-wick"/>
<rect x="812.19" y="430.24" width="8.00" height="1.00" class="up-body"/>
<line x1="831.27" y1="423.19" x2="831.27" y2="442.55" class="up-wick"/>
<rect x="827.27" y="423.59" width="8.00" height="6.65" class="up-body"/>
<line x1="846.34" y1="417.30" x2="846.34" y2="434.88" class="down-wick"/>
<rect x="842.34" y="423.59" width="8.00" height="5.73" class="down-body"/>
<line x1="861.42" y1="426.88" x2="861.42" y2="445.88" class="down-wick"/>
<rect x="857.42" y="429.32" width="8.00" height="1.19" class="down-body"/>
<line x1="876.49" y1="429.35" x2="876.49" y2="442.58" class="down-wick"/>
<rect x="872.49" y="430.51" width="8.00" height="5.13" class="down-body"/>
<line x1="891.57" y1="386.42" x2="891.57" y2="436.93" class="up-wick"/>
<rect x="887.57" y="394.49" width="8.00" height="41.23" class="up-body"/>
<line x1="906.64" y1="390.79" x2="906.64" y2="414.56" class="down-wick"/>
<rect x="902.64" y="394.52" width="8.00" height="18.26" class="down-body"/>
<line x1="921.72" y1="403.42" x2="921.72" y2="417.68" class="up-wick"/>
<rect x="917.72" y="408.32" width="8.00" height="4.47" class="up-body"/>
<line x1="936.79" y1="405.54" x2="936.79" y2="421.28" class="down-wick"/>
<rect x="932.79" y="408.32" width="8.00" height="4.47" class="down-body"/>
<line x1="951.87" y1="381.93" x2="951.87" y2="413.40" class="up-wick"/>
<rect x="947.87" y="382.18" width="8.00" height="30.61" class="up-body"/>
<line x1="966.94" y1="374.08" x2="966.94" y2="393.82" class="up-wick"/>
<rect x="962.94" y="380.02" width="8.00" height="2.17" class="up-body"/>
<line x1="982.01" y1="370.99" x2="982.01" y2="394.93" class="down-wick"/>
<rect x="978.01" y="380.03" width="8.00" height="5.65" class="down-body"/>
<line x1="997.09" y1="371.90" x2="997.09" y2="391.59" class="up-wick"/>
<rect x="993.09" y="378.76" width="8.00" height="6.93" class="up-body"/>
<line x1="1012.16" y1="366.12" x2="1012.16" y2="390.30" class="down-wick"/>
<rect x="1008.16" y="378.76" width="8.00" height="9.03" class="down-body"/>
<line x1="1027.24" y1="359.24" x2="1027.24" y2="391.94" class="up-wick"/>
<rect x="1023.24" y="372.55" width="8.00" height="15.24" class="up-body"/>
<line x1="1042.31" y1="372.55" x2="1042.31" y2="398.44" class="down-wick"/>
<rect x="1038.31" y="372.55" width="8.00" height="18.59" class="down-body"/>
<line x1="1057.39" y1="383.79" x2="1057.39" y2="405.93" class="down-wick"/>
<rect x="1053.39" y="391.14" width="8.00" height="4.27" class="down-body"/>
<line x1="1072.46" y1="393.10" x2="1072.46" y2="432.07" class="down-wick"/>
<rect x="1068.46" y="395.41" width="8.00" height="22.08" class="down-body"/>
<text x="70" y="556" class="axis-label">2026-05-18 01:00:00+00:00 to 2026-05-18 17:30:00+00:00</text>
<text x="1080" y="556" text-anchor="end" class="axis-label">4471.98 - 4592.59</text>
<text x="70" y="582" class="panel-title">M5 reaction / execution context</text>
<rect x="70" y="596" width="1010" height="192" class="plot-bg"/>
<line x1="79.18" y1="666.87" x2="79.18" y2="699.29" class="down-wick"/>
<rect x="75.18" y="681.35" width="8.00" height="15.96" class="down-body"/>
<line x1="97.55" y1="674.91" x2="97.55" y2="701.00" class="up-wick"/>
<rect x="93.55" y="683.99" width="8.00" height="13.32" class="up-body"/>
<line x1="115.91" y1="684.05" x2="115.91" y2="707.72" class="down-wick"/>
<rect x="111.91" y="684.05" width="8.00" height="14.86" class="down-body"/>
<line x1="134.27" y1="686.80" x2="134.27" y2="709.31" class="down-wick"/>
<rect x="130.27" y="698.91" width="8.00" height="9.30" class="down-body"/>
<line x1="152.64" y1="707.11" x2="152.64" y2="728.41" class="down-wick"/>
<rect x="148.64" y="707.94" width="8.00" height="14.59" class="down-body"/>
<line x1="171.00" y1="655.97" x2="171.00" y2="723.35" class="up-wick"/>
<rect x="167.00" y="660.65" width="8.00" height="61.87" class="up-body"/>
<line x1="189.36" y1="609.24" x2="189.36" y2="660.87" class="up-wick"/>
<rect x="185.36" y="637.53" width="8.00" height="23.12" class="up-body"/>
<line x1="207.73" y1="634.62" x2="207.73" y2="654.98" class="down-wick"/>
<rect x="203.73" y="637.53" width="8.00" height="10.90" class="down-body"/>
<line x1="226.09" y1="640.01" x2="226.09" y2="675.68" class="down-wick"/>
<rect x="222.09" y="648.43" width="8.00" height="20.70" class="down-body"/>
<line x1="244.45" y1="653.94" x2="244.45" y2="698.25" class="down-wick"/>
<rect x="240.45" y="669.13" width="8.00" height="28.02" class="down-body"/>
<line x1="262.82" y1="684.76" x2="262.82" y2="718.56" class="up-wick"/>
<rect x="258.82" y="693.02" width="8.00" height="4.13" class="up-body"/>
<line x1="281.18" y1="671.94" x2="281.18" y2="703.26" class="up-wick"/>
<rect x="277.18" y="684.38" width="8.00" height="8.59" class="up-body"/>
<line x1="299.55" y1="670.06" x2="299.55" y2="692.41" class="up-wick"/>
<rect x="295.55" y="682.73" width="8.00" height="1.65" class="up-body"/>
<line x1="317.91" y1="673.04" x2="317.91" y2="698.19" class="down-wick"/>
<rect x="313.91" y="682.73" width="8.00" height="14.09" class="down-body"/>
<line x1="336.27" y1="679.20" x2="336.27" y2="704.08" class="up-wick"/>
<rect x="332.27" y="682.78" width="8.00" height="14.04" class="up-body"/>
<line x1="354.64" y1="682.56" x2="354.64" y2="703.48" class="down-wick"/>
<rect x="350.64" y="682.78" width="8.00" height="5.23" class="down-body"/>
<line x1="373.00" y1="664.51" x2="373.00" y2="688.50" class="up-wick"/>
<rect x="369.00" y="665.00" width="8.00" height="23.01" class="up-body"/>
<line x1="391.36" y1="655.59" x2="391.36" y2="681.46" class="down-wick"/>
<rect x="387.36" y="665.00" width="8.00" height="9.91" class="down-body"/>
<line x1="409.73" y1="646.67" x2="409.73" y2="684.87" class="up-wick"/>
<rect x="405.73" y="654.27" width="8.00" height="20.64" class="up-body"/>
<line x1="428.09" y1="653.77" x2="428.09" y2="674.03" class="down-wick"/>
<rect x="424.09" y="654.10" width="8.00" height="2.48" class="down-body"/>
<line x1="446.45" y1="656.52" x2="446.45" y2="674.80" class="down-wick"/>
<rect x="442.45" y="656.58" width="8.00" height="18.05" class="down-body"/>
<line x1="464.82" y1="643.04" x2="464.82" y2="674.69" class="up-wick"/>
<rect x="460.82" y="652.12" width="8.00" height="22.57" class="up-body"/>
<line x1="483.18" y1="625.37" x2="483.18" y2="654.65" class="up-wick"/>
<rect x="479.18" y="631.20" width="8.00" height="20.97" class="up-body"/>
<line x1="501.55" y1="627.57" x2="501.55" y2="663.85" class="down-wick"/>
<rect x="497.55" y="631.20" width="8.00" height="32.64" class="down-body"/>
<line x1="519.91" y1="652.95" x2="519.91" y2="711.79" class="down-wick"/>
<rect x="515.91" y="663.85" width="8.00" height="41.12" class="down-body"/>
<line x1="538.27" y1="679.26" x2="538.27" y2="710.52" class="up-wick"/>
<rect x="534.27" y="680.30" width="8.00" height="24.66" class="up-body"/>
<line x1="556.64" y1="675.90" x2="556.64" y2="690.82" class="down-wick"/>
<rect x="552.64" y="680.30" width="8.00" height="3.91" class="down-body"/>
<line x1="575.00" y1="671.94" x2="575.00" y2="689.06" class="down-wick"/>
<rect x="571.00" y="684.16" width="8.00" height="1.00" class="down-body"/>
<line x1="593.36" y1="669.68" x2="593.36" y2="685.97" class="up-wick"/>
<rect x="589.36" y="682.67" width="8.00" height="1.71" class="up-body"/>
<line x1="611.73" y1="673.09" x2="611.73" y2="693.84" class="down-wick"/>
<rect x="607.73" y="683.00" width="8.00" height="8.31" class="down-body"/>
<line x1="630.09" y1="687.62" x2="630.09" y2="715.04" class="down-wick"/>
<rect x="626.09" y="692.19" width="8.00" height="7.49" class="down-body"/>
<line x1="648.45" y1="683.33" x2="648.45" y2="699.95" class="up-wick"/>
<rect x="644.45" y="685.26" width="8.00" height="14.42" class="up-body"/>
<line x1="666.82" y1="685.26" x2="666.82" y2="713.77" class="down-wick"/>
<rect x="662.82" y="685.26" width="8.00" height="17.39" class="down-body"/>
<line x1="685.18" y1="702.10" x2="685.18" y2="716.63" class="down-wick"/>
<rect x="681.18" y="702.49" width="8.00" height="8.31" class="down-body"/>
<line x1="703.55" y1="697.59" x2="703.55" y2="718.39" class="up-wick"/>
<rect x="699.55" y="700.56" width="8.00" height="10.24" class="up-body"/>
<line x1="721.91" y1="693.18" x2="721.91" y2="704.52" class="down-wick"/>
<rect x="717.91" y="701.88" width="8.00" height="1.00" class="down-body"/>
<line x1="740.27" y1="691.20" x2="740.27" y2="715.81" class="down-wick"/>
<rect x="736.27" y="702.54" width="8.00" height="12.44" class="down-body"/>
<line x1="758.64" y1="706.72" x2="758.64" y2="735.84" class="down-wick"/>
<rect x="754.64" y="714.98" width="8.00" height="13.71" class="down-body"/>
<line x1="777.00" y1="714.82" x2="777.00" y2="742.56" class="up-wick"/>
<rect x="773.00" y="723.18" width="8.00" height="5.50" class="up-body"/>
<line x1="795.36" y1="705.57" x2="795.36" y2="726.15" class="up-wick"/>
<rect x="791.36" y="707.72" width="8.00" height="15.47" class="up-body"/>
<line x1="813.73" y1="705.68" x2="813.73" y2="729.35" class="down-wick"/>
<rect x="809.73" y="707.72" width="8.00" height="15.30" class="down-body"/>
<line x1="832.09" y1="714.76" x2="832.09" y2="727.64" class="up-wick"/>
<rect x="828.09" y="720.71" width="8.00" height="2.31" class="up-body"/>
<line x1="850.45" y1="715.26" x2="850.45" y2="759.68" class="down-wick"/>
<rect x="846.45" y="720.71" width="8.00" height="38.04" class="down-body"/>
<line x1="868.82" y1="721.81" x2="868.82" y2="763.25" class="up-wick"/>
<rect x="864.82" y="728.52" width="8.00" height="30.38" class="up-body"/>
<line x1="887.18" y1="696.32" x2="887.18" y2="730.78" class="up-wick"/>
<rect x="883.18" y="697.70" width="8.00" height="30.82" class="up-body"/>
<line x1="905.55" y1="675.95" x2="905.55" y2="705.84" class="down-wick"/>
<rect x="901.55" y="697.70" width="8.00" height="3.36" class="down-body"/>
<line x1="923.91" y1="699.13" x2="923.91" y2="732.65" class="down-wick"/>
<rect x="919.91" y="701.77" width="8.00" height="20.64" class="down-body"/>
<line x1="942.27" y1="717.51" x2="942.27" y2="736.72" class="up-wick"/>
<rect x="938.27" y="717.51" width="8.00" height="4.90" class="up-body"/>
<line x1="960.64" y1="709.09" x2="960.64" y2="730.56" class="down-wick"/>
<rect x="956.64" y="717.51" width="8.00" height="10.90" class="down-body"/>
<line x1="979.00" y1="720.43" x2="979.00" y2="761.16" class="down-wick"/>
<rect x="975.00" y="728.47" width="8.00" height="31.04" class="down-body"/>
<line x1="997.36" y1="721.31" x2="997.36" y2="774.76" class="up-wick"/>
<rect x="993.36" y="721.64" width="8.00" height="37.87" class="up-body"/>
<line x1="1015.73" y1="717.62" x2="1015.73" y2="737.49" class="down-wick"/>
<rect x="1011.73" y="721.64" width="8.00" height="1.54" class="down-body"/>
<line x1="1034.09" y1="718.61" x2="1034.09" y2="763.36" class="down-wick"/>
<rect x="1030.09" y="723.18" width="8.00" height="18.05" class="down-body"/>
<line x1="1052.45" y1="731.00" x2="1052.45" y2="750.32" class="up-wick"/>
<rect x="1048.45" y="739.37" width="8.00" height="1.87" class="up-body"/>
<line x1="1070.82" y1="688.39" x2="1070.82" y2="743.82" class="up-wick"/>
<rect x="1066.82" y="708.71" width="8.00" height="30.93" class="up-body"/>
<text x="70" y="806" class="axis-label">2026-05-18 10:00:00+00:00 to 2026-05-18 14:30:00+00:00</text>
<text x="1080" y="806" text-anchor="end" class="axis-label">4527.44 - 4562.33</text>
<text x="70" y="832" class="panel-title">M1 execution window</text>
<rect x="70" y="846" width="1010" height="192" class="plot-bg"/>
<line x1="73.71" y1="928.60" x2="73.71" y2="945.99" class="down-wick"/>
<rect x="71.30" y="931.35" width="4.83" height="3.41" class="down-body"/>
<line x1="81.14" y1="916.87" x2="81.14" y2="932.95" class="down-wick"/>
<rect x="78.73" y="929.37" width="4.83" height="3.58" class="down-body"/>
<line x1="88.57" y1="933.00" x2="88.57" y2="949.29" class="down-wick"/>
<rect x="86.15" y="934.21" width="4.83" height="13.10" class="down-body"/>
<line x1="95.99" y1="941.75" x2="95.99" y2="951.00" class="up-wick"/>
<rect x="93.58" y="943.84" width="4.83" height="4.24" class="up-body"/>
<line x1="103.42" y1="931.24" x2="103.42" y2="950.12" class="up-wick"/>
<rect x="101.01" y="932.89" width="4.83" height="11.89" class="up-body"/>
<line x1="110.85" y1="934.05" x2="110.85" y2="947.97" class="down-wick"/>
<rect x="108.43" y="934.05" width="4.83" height="7.43" class="down-body"/>
<line x1="118.27" y1="938.12" x2="118.27" y2="951.33" class="down-wick"/>
<rect x="115.86" y="946.71" width="4.83" height="1.65" class="down-body"/>
<line x1="125.70" y1="948.14" x2="125.70" y2="957.72" class="up-wick"/>
<rect x="123.28" y="948.91" width="4.83" height="1.00" class="up-body"/>
<line x1="133.12" y1="937.73" x2="133.12" y2="959.31" class="up-wick"/>
<rect x="130.71" y="938.06" width="4.83" height="14.81" class="up-body"/>
<line x1="140.55" y1="943.51" x2="140.55" y2="951.11" class="down-wick"/>
<rect x="138.14" y="943.57" width="4.83" height="3.41" class="down-body"/>
<line x1="147.98" y1="957.11" x2="147.98" y2="975.66" class="down-wick"/>
<rect x="145.56" y="957.94" width="4.83" height="17.23" class="down-body"/>
<line x1="155.40" y1="961.51" x2="155.40" y2="968.45" class="up-wick"/>
<rect x="152.99" y="965.81" width="4.83" height="1.00" class="up-body"/>
<line x1="162.83" y1="962.83" x2="162.83" y2="974.17" class="down-wick"/>
<rect x="160.42" y="965.31" width="4.83" height="7.21" class="down-body"/>
<line x1="170.26" y1="912.36" x2="170.26" y2="939.50" class="up-wick"/>
<rect x="167.84" y="929.20" width="4.83" height="9.91" class="up-body"/>
<line x1="177.68" y1="929.75" x2="177.68" y2="944.01" class="down-wick"/>
<rect x="175.27" y="931.13" width="4.83" height="9.03" class="down-body"/>
<line x1="185.11" y1="859.24" x2="185.11" y2="910.87" class="up-wick"/>
<rect x="182.70" y="864.03" width="4.83" height="46.62" class="up-body"/>
<line x1="192.54" y1="859.52" x2="192.54" y2="893.86" class="down-wick"/>
<rect x="190.12" y="884.67" width="4.83" height="7.60" class="down-body"/>
<line x1="199.96" y1="879.66" x2="199.96" y2="891.11" class="up-wick"/>
<rect x="197.55" y="887.53" width="4.83" height="1.00" class="up-body"/>
<line x1="207.39" y1="890.07" x2="207.39" y2="901.13" class="down-wick"/>
<rect x="204.98" y="892.43" width="4.83" height="7.60" class="down-body"/>
<line x1="214.82" y1="897.39" x2="214.82" y2="904.98" class="down-wick"/>
<rect x="212.40" y="901.46" width="4.83" height="2.92" class="down-body"/>
<line x1="222.24" y1="890.01" x2="222.24" y2="902.45" class="up-wick"/>
<rect x="219.83" y="897.00" width="4.83" height="1.43" class="up-body"/>
<line x1="229.67" y1="908.78" x2="229.67" y2="918.30" class="down-wick"/>
<rect x="227.26" y="909.55" width="4.83" height="4.46" class="down-body"/>
<line x1="237.10" y1="904.82" x2="237.10" y2="919.13" class="down-wick"/>
<rect x="234.68" y="904.93" width="4.83" height="14.20" class="down-body"/>
<line x1="244.52" y1="905.48" x2="244.52" y2="927.00" class="down-wick"/>
<rect x="242.11" y="907.07" width="4.83" height="16.35" class="down-body"/>
<line x1="251.95" y1="923.92" x2="251.95" y2="936.74" class="down-wick"/>
<rect x="249.53" y="926.62" width="4.83" height="3.19" class="down-body"/>
<line x1="259.38" y1="941.70" x2="259.38" y2="967.79" class="down-wick"/>
<rect x="256.96" y="947.15" width="4.83" height="17.23" class="down-body"/>
<line x1="266.80" y1="953.75" x2="266.80" y2="968.56" class="up-wick"/>
<rect x="264.39" y="962.28" width="4.83" height="1.98" class="up-body"/>
<line x1="274.23" y1="934.76" x2="274.23" y2="950.17" class="up-wick"/>
<rect x="271.81" y="943.02" width="4.83" height="5.83" class="up-body"/>
<line x1="281.65" y1="921.94" x2="281.65" y2="953.26" class="up-wick"/>
<rect x="279.24" y="929.92" width="4.83" height="15.74" class="up-body"/>
<line x1="289.08" y1="922.54" x2="289.08" y2="933.66" class="up-wick"/>
<rect x="286.67" y="929.81" width="4.83" height="2.04" class="up-body"/>
<line x1="296.51" y1="920.06" x2="296.51" y2="936.69" class="up-wick"/>
<rect x="294.09" y="923.53" width="4.83" height="10.84" class="up-body"/>
<line x1="303.93" y1="932.06" x2="303.93" y2="942.41" class="down-wick"/>
<rect x="301.52" y="936.41" width="4.83" height="1.65" class="down-body"/>
<line x1="311.36" y1="921.17" x2="311.36" y2="934.49" class="down-wick"/>
<rect x="308.95" y="927.50" width="4.83" height="5.23" class="down-body"/>
<line x1="318.79" y1="926.17" x2="318.79" y2="940.32" class="down-wick"/>
<rect x="316.37" y="928.32" width="4.83" height="8.81" class="down-body"/>
<line x1="326.21" y1="925.57" x2="326.21" y2="936.08" class="up-wick"/>
<rect x="323.80" y="931.57" width="4.83" height="4.51" class="up-body"/>
<line x1="333.64" y1="936.80" x2="333.64" y2="947.59" class="up-wick"/>
<rect x="331.23" y="938.72" width="4.83" height="8.09" class="up-body"/>
<line x1="341.07" y1="945.44" x2="341.07" y2="954.08" class="down-wick"/>
<rect x="338.65" y="945.44" width="4.83" height="1.00" class="down-body"/>
<line x1="348.49" y1="929.20" x2="348.49" y2="942.47" class="up-wick"/>
<rect x="346.08" y="932.78" width="4.83" height="8.75" class="up-body"/>
<line x1="355.92" y1="941.26" x2="355.92" y2="953.48" class="down-wick"/>
<rect x="353.51" y="941.48" width="4.83" height="4.68" class="down-body"/>
<line x1="363.35" y1="937.24" x2="363.35" y2="947.31" class="up-wick"/>
<rect x="360.93" y="937.95" width="4.83" height="3.96" class="up-body"/>
<line x1="370.77" y1="920.23" x2="370.77" y2="938.50" class="up-wick"/>
<rect x="368.36" y="921.94" width="4.83" height="16.07" class="up-body"/>
<line x1="378.20" y1="923.81" x2="378.20" y2="932.23" class="up-wick"/>
<rect x="375.78" y="926.34" width="4.83" height="1.65" class="up-body"/>
<line x1="385.62" y1="914.51" x2="385.62" y2="922.71" class="up-wick"/>
<rect x="383.21" y="915.00" width="4.83" height="7.49" class="up-body"/>
<line x1="393.05" y1="905.59" x2="393.05" y2="920.12" class="up-wick"/>
<rect x="390.64" y="910.76" width="4.83" height="9.19" class="up-body"/>
<line x1="400.48" y1="912.80" x2="400.48" y2="922.87" class="up-wick"/>
<rect x="398.06" y="917.64" width="4.83" height="5.23" class="up-body"/>
<line x1="407.90" y1="920.40" x2="407.90" y2="932.50" class="down-wick"/>
<rect x="405.49" y="924.91" width="4.83" height="6.55" class="down-body"/>
<line x1="415.33" y1="915.06" x2="415.33" y2="934.87" class="up-wick"/>
<rect x="412.92" y="916.05" width="4.83" height="14.48" class="up-body"/>
<line x1="422.76" y1="896.67" x2="422.76" y2="917.81" class="up-wick"/>
<rect x="420.34" y="904.27" width="4.83" height="4.62" class="up-body"/>
<line x1="430.18" y1="911.70" x2="430.18" y2="924.03" class="down-wick"/>
<rect x="427.77" y="912.03" width="4.83" height="10.90" class="down-body"/>
<line x1="437.61" y1="912.19" x2="437.61" y2="919.79" class="up-wick"/>
<rect x="435.20" y="913.96" width="4.83" height="2.59" class="up-body"/>
<line x1="445.04" y1="906.58" x2="445.04" y2="912.69" class="down-wick"/>
<rect x="442.62" y="906.58" width="4.83" height="5.39" class="down-body"/>
<line x1="452.46" y1="906.52" x2="452.46" y2="913.79" class="down-wick"/>
<rect x="450.05" y="908.78" width="4.83" height="3.96" class="down-body"/>
<line x1="459.89" y1="914.34" x2="459.89" y2="924.80" class="down-wick"/>
<rect x="457.48" y="916.21" width="4.83" height="8.42" class="down-body"/>
<line x1="467.32" y1="908.40" x2="467.32" y2="913.02" class="up-wick"/>
<rect x="464.90" y="908.84" width="4.83" height="2.75" class="up-body"/>
<line x1="474.74" y1="898.43" x2="474.74" y2="903.99" class="down-wick"/>
<rect x="472.33" y="899.31" width="4.83" height="4.29" class="down-body"/>
<line x1="482.17" y1="881.20" x2="482.17" y2="904.65" class="up-wick"/>
<rect x="479.76" y="881.20" width="4.83" height="20.97" class="up-body"/>
<line x1="489.60" y1="885.11" x2="489.60" y2="893.42" class="up-wick"/>
<rect x="487.18" y="885.72" width="4.83" height="3.52" class="up-body"/>
<line x1="497.02" y1="875.37" x2="497.02" y2="884.67" class="up-wick"/>
<rect x="494.61" y="881.20" width="4.83" height="3.47" class="up-body"/>
<line x1="504.45" y1="880.98" x2="504.45" y2="886.71" class="up-wick"/>
<rect x="502.03" y="884.78" width="4.83" height="1.60" class="up-body"/>
<line x1="511.88" y1="896.23" x2="511.88" y2="902.18" class="down-wick"/>
<rect x="509.46" y="896.51" width="4.83" height="1.93" class="down-body"/>
<line x1="519.30" y1="902.95" x2="519.30" y2="915.50" class="up-wick"/>
<rect x="516.89" y="906.47" width="4.83" height="7.38" class="up-body"/>
<line x1="526.73" y1="912.14" x2="526.73" y2="932.45" class="down-wick"/>
<rect x="524.31" y="913.24" width="4.83" height="19.21" class="down-body"/>
<line x1="534.15" y1="949.07" x2="534.15" y2="958.87" class="down-wick"/>
<rect x="531.74" y="952.27" width="4.83" height="2.70" class="down-body"/>
<line x1="541.58" y1="934.32" x2="541.58" y2="957.99" class="up-wick"/>
<rect x="539.17" y="937.29" width="4.83" height="20.70" class="up-body"/>
<line x1="549.01" y1="932.73" x2="549.01" y2="935.97" class="down-wick"/>
<rect x="546.59" y="932.89" width="4.83" height="1.71" class="down-body"/>
<line x1="556.43" y1="927.66" x2="556.43" y2="939.00" class="down-wick"/>
<rect x="554.02" y="930.30" width="4.83" height="3.96" class="down-body"/>
<line x1="563.86" y1="928.87" x2="563.86" y2="936.08" class="down-wick"/>
<rect x="561.45" y="932.06" width="4.83" height="1.65" class="down-body"/>
<line x1="571.29" y1="927.83" x2="571.29" y2="940.82" class="down-wick"/>
<rect x="568.87" y="928.16" width="4.83" height="6.05" class="down-body"/>
<line x1="578.71" y1="921.94" x2="578.71" y2="936.47" class="down-wick"/>
<rect x="576.30" y="927.00" width="4.83" height="8.31" class="down-body"/>
<line x1="586.14" y1="929.26" x2="586.14" y2="935.97" class="down-wick"/>
<rect x="583.73" y="931.84" width="4.83" height="2.53" class="down-body"/>
<line x1="593.57" y1="923.15" x2="593.57" y2="935.97" class="up-wick"/>
<rect x="591.15" y="925.68" width="4.83" height="8.70" class="up-body"/>
<line x1="600.99" y1="919.95" x2="600.99" y2="931.51" class="down-wick"/>
<rect x="598.58" y="922.49" width="4.83" height="1.00" class="down-body"/>
<line x1="608.42" y1="923.31" x2="608.42" y2="932.89" class="down-wick"/>
<rect x="606.01" y="925.13" width="4.83" height="7.54" class="down-body"/>
<line x1="615.85" y1="929.59" x2="615.85" y2="938.50" class="up-wick"/>
<rect x="613.43" y="931.90" width="4.83" height="3.96" class="up-body"/>
<line x1="623.27" y1="923.09" x2="623.27" y2="934.32" class="up-wick"/>
<rect x="620.86" y="931.13" width="4.83" height="2.81" class="up-body"/>
<line x1="630.70" y1="937.62" x2="630.70" y2="965.04" class="down-wick"/>
<rect x="628.28" y="942.19" width="4.83" height="18.27" class="down-body"/>
<line x1="638.12" y1="947.81" x2="638.12" y2="960.80" class="up-wick"/>
<rect x="635.71" y="949.24" width="4.83" height="5.17" class="up-body"/>
<line x1="645.55" y1="949.24" x2="645.55" y2="957.83" class="up-wick"/>
<rect x="643.14" y="949.68" width="4.83" height="5.94" class="up-body"/>
<line x1="652.98" y1="942.69" x2="652.98" y2="949.95" class="down-wick"/>
<rect x="650.56" y="945.83" width="4.83" height="2.37" class="down-body"/>
<line x1="660.40" y1="933.33" x2="660.40" y2="942.25" class="down-wick"/>
<rect x="657.99" y="939.72" width="4.83" height="1.00" class="down-body"/>
<line x1="667.83" y1="935.26" x2="667.83" y2="943.84" class="down-wick"/>
<rect x="665.42" y="935.26" width="4.83" height="6.39" class="down-body"/>
<line x1="675.26" y1="956.67" x2="675.26" y2="963.77" class="down-wick"/>
<rect x="672.84" y="956.67" width="4.83" height="6.28" class="down-body"/>
<line x1="682.68" y1="947.48" x2="682.68" y2="954.25" class="down-wick"/>
<rect x="680.27" y="950.45" width="4.83" height="2.20" class="down-body"/>
<line x1="690.11" y1="954.96" x2="690.11" y2="962.94" class="down-wick"/>
<rect x="687.70" y="960.58" width="4.83" height="1.93" class="down-body"/>
<line x1="697.54" y1="959.53" x2="697.54" y2="964.60" class="up-wick"/>
<rect x="695.12" y="963.00" width="4.83" height="1.00" class="up-body"/>
<line x1="704.96" y1="956.94" x2="704.96" y2="963.38" class="down-wick"/>
<rect x="702.55" y="960.80" width="4.83" height="1.00" class="down-body"/>
<line x1="712.39" y1="957.49" x2="712.39" y2="968.39" class="up-wick"/>
<rect x="709.98" y="957.99" width="4.83" height="1.00" class="up-body"/>
<line x1="719.82" y1="947.59" x2="719.82" y2="959.26" class="up-wick"/>
<rect x="717.40" y="950.56" width="4.83" height="3.74" class="up-body"/>
<line x1="727.24" y1="944.17" x2="727.24" y2="948.14" class="down-wick"/>
<rect x="724.83" y="946.71" width="4.83" height="1.00" class="down-body"/>
<line x1="734.67" y1="948.03" x2="734.67" y2="953.59" class="up-wick"/>
<rect x="732.26" y="949.84" width="4.83" height="3.14" class="up-body"/>
<line x1="742.10" y1="941.20" x2="742.10" y2="953.64" class="up-wick"/>
<rect x="739.68" y="947.26" width="4.83" height="5.28" class="up-body"/>
<line x1="749.52" y1="946.54" x2="749.52" y2="961.24" class="down-wick"/>
<rect x="747.11" y="948.14" width="4.83" height="3.25" class="down-body"/>
<line x1="756.95" y1="952.98" x2="756.95" y2="965.81" class="down-wick"/>
<rect x="754.53" y="957.60" width="4.83" height="7.38" class="down-body"/>
<line x1="764.38" y1="965.81" x2="764.38" y2="976.43" class="up-wick"/>
<rect x="761.96" y="965.81" width="4.83" height="10.18" class="up-body"/>
<line x1="771.80" y1="959.37" x2="771.80" y2="982.93" class="down-wick"/>
<rect x="769.39" y="959.59" width="4.83" height="22.62" class="down-body"/>
<line x1="779.23" y1="966.69" x2="779.23" y2="980.50" class="up-wick"/>
<rect x="776.81" y="971.42" width="4.83" height="7.27" class="up-body"/>
<line x1="786.65" y1="964.82" x2="786.65" y2="977.26" class="down-wick"/>
<rect x="784.24" y="973.02" width="4.83" height="2.97" class="down-body"/>
<line x1="794.08" y1="969.55" x2="794.08" y2="992.56" class="up-wick"/>
<rect x="791.67" y="973.18" width="4.83" height="9.08" class="up-body"/>
<line x1="801.51" y1="958.98" x2="801.51" y2="967.35" class="down-wick"/>
<rect x="799.09" y="962.34" width="4.83" height="3.69" class="down-body"/>
<line x1="808.93" y1="961.07" x2="808.93" y2="970.76" class="up-wick"/>
<rect x="806.52" y="963.88" width="4.83" height="3.03" class="up-body"/>
<line x1="816.36" y1="955.68" x2="816.36" y2="964.32" class="down-wick"/>
<rect x="813.95" y="957.72" width="4.83" height="3.08" class="down-body"/>
<line x1="823.79" y1="960.91" x2="823.79" y2="979.35" class="down-wick"/>
<rect x="821.37" y="963.38" width="4.83" height="14.15" class="down-body"/>
<line x1="831.21" y1="967.18" x2="831.21" y2="974.34" class="down-wick"/>
<rect x="828.80" y="970.65" width="4.83" height="2.37" class="down-body"/>
<line x1="838.64" y1="965.04" x2="838.64" y2="972.91" class="up-wick"/>
<rect x="836.23" y="966.25" width="4.83" height="3.80" class="up-body"/>
<line x1="846.07" y1="967.46" x2="846.07" y2="973.95" class="up-wick"/>
<rect x="843.65" y="968.67" width="4.83" height="3.85" class="up-body"/>
<line x1="853.49" y1="965.26" x2="853.49" y2="974.01" class="down-wick"/>
<rect x="851.08" y="970.71" width="4.83" height="2.86" class="down-body"/>
<line x1="860.92" y1="976.87" x2="860.92" y2="986.34" class="down-wick"/>
<rect x="858.51" y="976.87" width="4.83" height="6.22" class="down-body"/>
<line x1="868.35" y1="995.37" x2="868.35" y2="1009.68" class="down-wick"/>
<rect x="865.93" y="1001.03" width="4.83" height="7.71" class="down-body"/>
<line x1="875.77" y1="978.47" x2="875.77" y2="1002.25" class="up-wick"/>
<rect x="873.36" y="980.83" width="4.83" height="21.41" class="up-body"/>
<line x1="883.20" y1="974.12" x2="883.20" y2="984.19" class="up-wick"/>
<rect x="880.78" y="976.87" width="4.83" height="5.45" class="up-body"/>
<line x1="890.62" y1="967.79" x2="890.62" y2="980.78" class="up-wick"/>
<rect x="888.21" y="968.06" width="4.83" height="10.46" class="up-body"/>
<line x1="898.05" y1="963.49" x2="898.05" y2="973.90" class="up-wick"/>
<rect x="895.64" y="963.49" width="4.83" height="10.40" class="up-body"/>
<line x1="905.48" y1="946.32" x2="905.48" y2="960.30" class="up-wick"/>
<rect x="903.06" y="947.70" width="4.83" height="11.17" class="up-body"/>
<line x1="912.90" y1="929.48" x2="912.90" y2="946.93" class="up-wick"/>
<rect x="910.49" y="931.62" width="4.83" height="15.30" class="up-body"/>
<line x1="920.33" y1="926.73" x2="920.33" y2="944.28" class="down-wick"/>
<rect x="917.92" y="929.20" width="4.83" height="10.68" class="down-body"/>
<line x1="927.76" y1="949.13" x2="927.76" y2="958.98" class="down-wick"/>
<rect x="925.34" y="951.77" width="4.83" height="6.11" class="down-body"/>
<line x1="935.18" y1="961.13" x2="935.18" y2="969.27" class="down-wick"/>
<rect x="932.77" y="961.13" width="4.83" height="4.46" class="down-body"/>
<line x1="942.61" y1="969.82" x2="942.61" y2="982.21" class="up-wick"/>
<rect x="940.20" y="972.41" width="4.83" height="9.58" class="up-body"/>
<line x1="950.04" y1="976.26" x2="950.04" y2="984.80" class="up-wick"/>
<rect x="947.62" y="978.69" width="4.83" height="6.11" class="up-body"/>
<line x1="957.46" y1="967.62" x2="957.46" y2="974.28" class="up-wick"/>
<rect x="955.05" y="968.56" width="4.83" height="5.61" class="up-body"/>
<line x1="964.89" y1="959.09" x2="964.89" y2="978.08" class="down-wick"/>
<rect x="962.48" y="967.51" width="4.83" height="6.72" class="down-body"/>
<line x1="972.32" y1="961.79" x2="972.32" y2="977.92" class="down-wick"/>
<rect x="969.90" y="967.95" width="4.83" height="4.79" class="down-body"/>
<line x1="979.74" y1="970.87" x2="979.74" y2="980.56" class="down-wick"/>
<rect x="977.33" y="972.41" width="4.83" height="6.00" class="down-body"/>
<line x1="987.17" y1="971.26" x2="987.17" y2="976.43" class="down-wick"/>
<rect x="984.76" y="974.56" width="4.83" height="1.00" class="down-body"/>
<line x1="994.60" y1="974.94" x2="994.60" y2="985.13" class="down-wick"/>
<rect x="992.18" y="975.27" width="4.83" height="6.77" class="down-body"/>
<line x1="1002.02" y1="990.08" x2="1002.02" y2="1024.76" class="up-wick"/>
<rect x="999.61" y="997.46" width="4.83" height="12.05" class="up-body"/>
<line x1="1009.45" y1="987.82" x2="1009.45" y2="1000.26" class="up-wick"/>
<rect x="1007.03" y="991.73" width="4.83" height="4.35" class="up-body"/>
<line x1="1016.88" y1="971.31" x2="1016.88" y2="987.66" class="up-wick"/>
<rect x="1014.46" y="971.64" width="4.83" height="15.30" class="up-body"/>
<line x1="1024.30" y1="971.26" x2="1024.30" y2="984.91" class="down-wick"/>
<rect x="1021.89" y="974.78" width="4.83" height="9.85" class="down-body"/>
<line x1="1031.73" y1="967.62" x2="1031.73" y2="985.57" class="up-wick"/>
<rect x="1029.31" y="971.48" width="4.83" height="12.22" class="up-body"/>
<line x1="1039.15" y1="968.61" x2="1039.15" y2="981.27" class="down-wick"/>
<rect x="1036.74" y="973.18" width="4.83" height="4.40" class="down-body"/>
<line x1="1046.58" y1="979.79" x2="1046.58" y2="1013.36" class="down-wick"/>
<rect x="1044.17" y="982.10" width="4.83" height="24.16" class="down-body"/>
<line x1="1054.01" y1="989.70" x2="1054.01" y2="996.25" class="up-wick"/>
<rect x="1051.59" y="991.24" width="4.83" height="1.00" class="up-body"/>
<line x1="1061.43" y1="986.89" x2="1061.43" y2="997.29" class="down-wick"/>
<rect x="1059.02" y="988.26" width="4.83" height="6.28" class="down-body"/>
<line x1="1068.86" y1="986.34" x2="1068.86" y2="997.07" class="up-wick"/>
<rect x="1066.45" y="986.34" width="4.83" height="8.31" class="up-body"/>
<line x1="1076.29" y1="979.02" x2="1076.29" y2="993.82" class="up-wick"/>
<rect x="1073.87" y="979.68" width="4.83" height="9.96" class="up-body"/>
<text x="70" y="1056" class="axis-label">2026-05-18 10:00:00+00:00 to 2026-05-18 14:30:00+00:00</text>
<text x="1080" y="1056" text-anchor="end" class="axis-label">4527.44 - 4562.33</text>
</svg>