<svg xmlns="http://www.w3.org/2000/svg" width="1120" height="1054" viewBox="0 0 1120 1054">
<style>
text{font-family:Arial,Helvetica,sans-serif}.title{font-size:21px;font-weight:700;fill:#1f2937}.subtitle{font-size:12px;fill:#4b5563}.panel-title{font-size:15px;font-weight:700;fill:#111827}.muted{font-size:13px;fill:#6b7280}.plot-bg{fill:#f8fafc;stroke:#cbd5e1;stroke-width:1}.up-body{fill:#15803d;stroke:#14532d;stroke-width:.8}.down-body{fill:#b91c1c;stroke:#7f1d1d;stroke-width:.8}.up-wick{stroke:#14532d;stroke-width:1}.down-wick{stroke:#7f1d1d;stroke-width:1}.sweep-line{stroke:#7c3aed;stroke-width:1.6;stroke-dasharray:6 4}.number-line{stroke:#0f766e;stroke-width:1.4;stroke-dasharray:3 4}.entry-line{stroke:#2563eb;stroke-width:1.4}.sl-line{stroke:#dc2626;stroke-width:1.4}.tp-line{stroke:#16a34a;stroke-width:1.4}.level-label,.axis-label{font-size:11px;fill:#374151}
</style>
<text x="28" y="28" class="title">Adelin v2 visual review sample sample_003</text>
<text x="28" y="48" class="subtitle">Candidate windows are for visual labeling only and are not trade signals.</text>
<text x="560" y="48" class="subtitle" text-anchor="middle">LARGE_UPPER_WICK_REVERSAL_VISUAL_CANDIDATE</text>
<text x="70" y="82" class="panel-title">H1 liquidity context</text>
<rect x="70" y="96" width="1010" height="192" class="plot-bg"/>
<line x1="82.62" y1="154.89" x2="82.62" y2="222.88" class="up-wick"/>
<rect x="78.62" y="166.45" width="8.00" height="9.77" class="up-body"/>
<line x1="107.88" y1="163.92" x2="107.88" y2="185.49" class="down-wick"/>
<rect x="103.88" y="166.45" width="8.00" height="12.03" class="down-body"/>
<line x1="133.12" y1="171.28" x2="133.12" y2="254.00" class="down-wick"/>
<rect x="129.12" y="178.45" width="8.00" height="28.12" class="down-body"/>
<line x1="158.38" y1="180.29" x2="158.38" y2="241.67" class="up-wick"/>
<rect x="154.38" y="193.99" width="8.00" height="13.26" class="up-body"/>
<line x1="183.62" y1="170.86" x2="183.62" y2="198.66" class="up-wick"/>
<rect x="179.62" y="183.02" width="8.00" height="10.98" class="up-body"/>
<line x1="208.88" y1="164.12" x2="208.88" y2="194.33" class="up-wick"/>
<rect x="204.88" y="173.08" width="8.00" height="9.94" class="up-body"/>
<line x1="234.12" y1="161.61" x2="234.12" y2="187.95" class="down-wick"/>
<rect x="230.12" y="173.09" width="8.00" height="1.00" class="down-body"/>
<line x1="259.38" y1="158.63" x2="259.38" y2="188.08" class="down-wick"/>
<rect x="255.38" y="173.74" width="8.00" height="12.97" class="down-body"/>
<line x1="284.62" y1="163.83" x2="284.62" y2="188.39" class="up-wick"/>
<rect x="280.62" y="165.61" width="8.00" height="21.10" class="up-body"/>
<line x1="309.88" y1="148.20" x2="309.88" y2="176.97" class="down-wick"/>
<rect x="305.88" y="165.61" width="8.00" height="1.00" class="down-body"/>
<line x1="335.12" y1="152.10" x2="335.12" y2="171.10" class="up-wick"/>
<rect x="331.12" y="161.38" width="8.00" height="4.96" class="up-body"/>
<line x1="360.38" y1="158.75" x2="360.38" y2="174.55" class="down-wick"/>
<rect x="356.38" y="161.38" width="8.00" height="9.34" class="down-body"/>
<line x1="385.62" y1="164.31" x2="385.62" y2="185.38" class="down-wick"/>
<rect x="381.62" y="170.73" width="8.00" height="3.61" class="down-body"/>
<line x1="410.88" y1="138.53" x2="410.88" y2="188.16" class="up-wick"/>
<rect x="406.88" y="160.53" width="8.00" height="13.81" class="up-body"/>
<line x1="436.12" y1="128.23" x2="436.12" y2="167.63" class="up-wick"/>
<rect x="432.12" y="133.19" width="8.00" height="27.36" class="up-body"/>
<line x1="461.38" y1="115.85" x2="461.38" y2="145.64" class="up-wick"/>
<rect x="457.38" y="126.95" width="8.00" height="6.25" class="up-body"/>
<line x1="486.62" y1="126.95" x2="486.62" y2="177.53" class="down-wick"/>
<rect x="482.62" y="126.95" width="8.00" height="39.08" class="down-body"/>
<line x1="511.88" y1="164.09" x2="511.88" y2="185.46" class="down-wick"/>
<rect x="507.88" y="166.05" width="8.00" height="3.85" class="down-body"/>
<line x1="537.12" y1="155.48" x2="537.12" y2="182.70" class="up-wick"/>
<rect x="533.12" y="161.11" width="8.00" height="8.80" class="up-body"/>
<line x1="562.38" y1="150.33" x2="562.38" y2="167.27" class="down-wick"/>
<rect x="558.38" y="161.11" width="8.00" height="4.27" class="down-body"/>
<line x1="587.62" y1="164.29" x2="587.62" y2="182.54" class="down-wick"/>
<rect x="583.62" y="165.37" width="8.00" height="14.71" class="down-body"/>
<line x1="612.88" y1="141.40" x2="612.88" y2="180.84" class="up-wick"/>
<rect x="608.88" y="150.18" width="8.00" height="29.90" class="up-body"/>
<line x1="638.12" y1="123.75" x2="638.12" y2="140.26" class="up-wick"/>
<rect x="634.12" y="129.64" width="8.00" height="9.95" class="up-body"/>
<line x1="663.38" y1="109.56" x2="663.38" y2="129.89" class="up-wick"/>
<rect x="659.38" y="119.14" width="8.00" height="10.52" class="up-body"/>
<line x1="688.62" y1="109.24" x2="688.62" y2="146.37" class="down-wick"/>
<rect x="684.62" y="119.14" width="8.00" height="24.42" class="down-body"/>
<line x1="713.88" y1="131.51" x2="713.88" y2="155.88" class="up-wick"/>
<rect x="709.88" y="143.01" width="8.00" height="1.00" class="up-body"/>
<line x1="739.12" y1="143.01" x2="739.12" y2="166.71" class="down-wick"/>
<rect x="735.12" y="143.01" width="8.00" height="22.11" class="down-body"/>
<line x1="764.38" y1="154.58" x2="764.38" y2="169.90" class="down-wick"/>
<rect x="760.38" y="165.12" width="8.00" height="2.79" class="down-body"/>
<line x1="789.62" y1="167.10" x2="789.62" y2="177.26" class="down-wick"/>
<rect x="785.62" y="167.91" width="8.00" height="3.53" class="down-body"/>
<line x1="814.88" y1="165.89" x2="814.88" y2="186.78" class="down-wick"/>
<rect x="810.88" y="171.42" width="8.00" height="2.05" class="down-body"/>
<line x1="840.12" y1="156.16" x2="840.12" y2="183.36" class="up-wick"/>
<rect x="836.12" y="163.82" width="8.00" height="9.65" class="up-body"/>
<line x1="865.38" y1="149.05" x2="865.38" y2="172.80" class="up-wick"/>
<rect x="861.38" y="151.79" width="8.00" height="12.03" class="up-body"/>
<line x1="890.62" y1="149.23" x2="890.62" y2="179.46" class="down-wick"/>
<rect x="886.62" y="151.79" width="8.00" height="19.17" class="down-body"/>
<line x1="915.88" y1="165.62" x2="915.88" y2="179.84" class="down-wick"/>
<rect x="911.88" y="170.98" width="8.00" height="1.24" class="down-body"/>
<line x1="941.12" y1="168.43" x2="941.12" y2="193.98" class="up-wick"/>
<rect x="937.12" y="168.43" width="8.00" height="3.79" class="up-body"/>
<line x1="966.38" y1="164.04" x2="966.38" y2="188.16" class="down-wick"/>
<rect x="962.38" y="168.43" width="8.00" height="18.58" class="down-body"/>
<line x1="991.62" y1="165.16" x2="991.62" y2="191.42" class="up-wick"/>
<rect x="987.62" y="178.50" width="8.00" height="8.50" class="up-body"/>
<line x1="1016.88" y1="178.09" x2="1016.88" y2="274.76" class="down-wick"/>
<rect x="1012.88" y="178.50" width="8.00" height="44.26" class="down-body"/>
<line x1="1042.12" y1="208.66" x2="1042.12" y2="248.47" class="down-wick"/>
<rect x="1038.12" y="222.76" width="8.00" height="12.89" class="down-body"/>
<line x1="1067.38" y1="215.56" x2="1067.38" y2="241.37" class="up-wick"/>
<rect x="1063.38" y="216.61" width="8.00" height="19.04" class="up-body"/>
<text x="70" y="306" class="axis-label">2026-05-18 01:00:00+00:00 to 2026-05-19 18:00:00+00:00</text>
<text x="1080" y="306" text-anchor="end" class="axis-label">4454.72 - 4599.20</text>
<text x="70" y="332" class="panel-title">M15 liquidity / reaction context</text>
<rect x="70" y="346" width="1010" height="192" class="plot-bg"/>
<line x1="80.31" y1="389.13" x2="80.31" y2="396.39" class="down-wick"/>
<rect x="76.31" y="392.41" width="8.00" height="1.00" class="down-body"/>
<line x1="100.92" y1="386.40" x2="100.92" y2="393.39" class="up-wick"/>
<rect x="96.92" y="388.72" width="8.00" height="4.64" class="up-body"/>
<line x1="121.53" y1="381.41" x2="121.53" y2="392.64" class="up-wick"/>
<rect x="117.53" y="384.47" width="8.00" height="4.22" class="up-body"/>
<line x1="142.14" y1="383.58" x2="142.14" y2="408.91" class="down-wick"/>
<rect x="138.14" y="384.52" width="8.00" height="11.01" class="down-body"/>
<line x1="162.76" y1="385.66" x2="162.76" y2="405.27" class="down-wick"/>
<rect x="158.76" y="395.53" width="8.00" height="1.00" class="down-body"/>
<line x1="183.37" y1="386.90" x2="183.37" y2="405.01" class="up-wick"/>
<rect x="179.37" y="391.38" width="8.00" height="4.22" class="up-body"/>
<line x1="203.98" y1="382.69" x2="203.98" y2="404.42" class="up-wick"/>
<rect x="199.98" y="389.39" width="8.00" height="1.99" class="up-body"/>
<line x1="224.59" y1="368.60" x2="224.59" y2="391.30" class="up-wick"/>
<rect x="220.59" y="379.48" width="8.00" height="9.90" class="up-body"/>
<line x1="245.20" y1="370.51" x2="245.20" y2="384.44" class="up-wick"/>
<rect x="241.20" y="371.65" width="8.00" height="7.84" class="up-body"/>
<line x1="265.82" y1="370.79" x2="265.82" y2="387.50" class="down-wick"/>
<rect x="261.82" y="371.72" width="8.00" height="6.96" class="down-body"/>
<line x1="286.43" y1="366.22" x2="286.43" y2="385.61" class="up-wick"/>
<rect x="282.43" y="377.79" width="8.00" height="1.00" class="up-body"/>
<line x1="307.04" y1="375.32" x2="307.04" y2="387.53" class="down-wick"/>
<rect x="303.04" y="377.79" width="8.00" height="1.00" class="down-body"/>
<line x1="327.65" y1="376.74" x2="327.65" y2="390.51" class="down-wick"/>
<rect x="323.65" y="378.47" width="8.00" height="10.78" class="down-body"/>
<line x1="348.27" y1="359.24" x2="348.27" y2="389.53" class="up-wick"/>
<rect x="344.27" y="362.85" width="8.00" height="26.40" class="up-body"/>
<line x1="368.88" y1="359.47" x2="368.88" y2="388.41" class="down-wick"/>
<rect x="364.88" y="362.85" width="8.00" height="18.98" class="down-body"/>
<line x1="389.49" y1="378.85" x2="389.49" y2="399.27" class="down-wick"/>
<rect x="385.49" y="381.83" width="8.00" height="14.07" class="down-body"/>
<line x1="410.10" y1="384.28" x2="410.10" y2="398.35" class="up-wick"/>
<rect x="406.10" y="387.24" width="8.00" height="8.64" class="up-body"/>
<line x1="430.71" y1="377.86" x2="430.71" y2="396.23" class="down-wick"/>
<rect x="426.71" y="387.24" width="8.00" height="1.00" class="down-body"/>
<line x1="451.33" y1="388.11" x2="451.33" y2="398.40" class="down-wick"/>
<rect x="447.33" y="388.11" width="8.00" height="5.58" class="down-body"/>
<line x1="471.94" y1="381.06" x2="471.94" y2="399.78" class="up-wick"/>
<rect x="467.94" y="391.71" width="8.00" height="1.98" class="up-body"/>
<line x1="492.55" y1="387.48" x2="492.55" y2="398.73" class="down-wick"/>
<rect x="488.55" y="391.71" width="8.00" height="2.29" class="down-body"/>
<line x1="513.16" y1="384.70" x2="513.16" y2="395.86" class="up-wick"/>
<rect x="509.16" y="389.74" width="8.00" height="4.27" class="up-body"/>
<line x1="533.78" y1="389.00" x2="533.78" y2="399.96" class="down-wick"/>
<rect x="529.78" y="389.74" width="8.00" height="1.00" class="down-body"/>
<line x1="554.39" y1="389.67" x2="554.39" y2="395.79" class="down-wick"/>
<rect x="550.39" y="390.40" width="8.00" height="2.52" class="down-body"/>
<line x1="575.00" y1="387.90" x2="575.00" y2="418.40" class="down-wick"/>
<rect x="571.00" y="392.92" width="8.00" height="18.79" class="down-body"/>
<line x1="595.61" y1="384.75" x2="595.61" y2="414.46" class="up-wick"/>
<rect x="591.61" y="384.75" width="8.00" height="26.96" class="up-body"/>
<line x1="616.22" y1="378.98" x2="616.22" y2="400.06" class="down-wick"/>
<rect x="612.22" y="384.75" width="8.00" height="13.93" class="down-body"/>
<line x1="636.84" y1="389.14" x2="636.84" y2="400.36" class="up-wick"/>
<rect x="632.84" y="394.18" width="8.00" height="4.50" class="up-body"/>
<line x1="657.45" y1="387.46" x2="657.45" y2="398.45" class="up-wick"/>
<rect x="653.45" y="389.67" width="8.00" height="4.51" class="up-body"/>
<line x1="678.06" y1="388.99" x2="678.06" y2="410.73" class="down-wick"/>
<rect x="674.06" y="389.67" width="8.00" height="19.54" class="down-body"/>
<line x1="698.67" y1="381.29" x2="698.67" y2="415.02" class="up-wick"/>
<rect x="694.67" y="389.02" width="8.00" height="20.19" class="up-body"/>
<line x1="719.29" y1="385.43" x2="719.29" y2="398.73" class="up-wick"/>
<rect x="715.29" y="386.97" width="8.00" height="2.06" class="up-body"/>
<line x1="739.90" y1="380.45" x2="739.90" y2="398.63" class="down-wick"/>
<rect x="735.90" y="386.97" width="8.00" height="10.38" class="down-body"/>
<line x1="760.51" y1="390.12" x2="760.51" y2="400.60" class="down-wick"/>
<rect x="756.51" y="397.35" width="8.00" height="1.00" class="down-body"/>
<line x1="781.12" y1="397.47" x2="781.12" y2="437.00" class="down-wick"/>
<rect x="777.12" y="398.01" width="8.00" height="22.10" class="down-body"/>
<line x1="801.73" y1="417.05" x2="801.73" y2="478.81" class="down-wick"/>
<rect x="797.73" y="420.11" width="8.00" height="56.69" class="down-body"/>
<line x1="822.35" y1="470.68" x2="822.35" y2="524.76" class="down-wick"/>
<rect x="818.35" y="476.80" width="8.00" height="27.87" class="down-body"/>
<line x1="842.96" y1="443.17" x2="842.96" y2="508.15" class="up-wick"/>
<rect x="838.96" y="456.29" width="8.00" height="48.38" class="up-body"/>
<line x1="863.57" y1="437.73" x2="863.57" y2="476.40" class="down-wick"/>
<rect x="859.57" y="456.29" width="8.00" height="19.30" class="down-body"/>
<line x1="884.18" y1="461.35" x2="884.18" y2="490.15" class="down-wick"/>
<rect x="880.18" y="475.61" width="8.00" height="4.58" class="down-body"/>
<line x1="904.80" y1="465.18" x2="904.80" y2="484.94" class="up-wick"/>
<rect x="900.80" y="472.36" width="8.00" height="7.84" class="up-body"/>
<line x1="925.41" y1="468.73" x2="925.41" y2="487.04" class="down-wick"/>
<rect x="921.41" y="472.36" width="8.00" height="1.00" class="down-body"/>
<line x1="946.02" y1="463.07" x2="946.02" y2="480.79" class="up-wick"/>
<rect x="942.02" y="464.78" width="8.00" height="8.49" class="up-body"/>
<line x1="966.63" y1="454.11" x2="966.63" y2="473.60" class="down-wick"/>
<rect x="962.63" y="464.78" width="8.00" height="1.00" class="down-body"/>
<line x1="987.24" y1="449.51" x2="987.24" y2="466.53" class="up-wick"/>
<rect x="983.24" y="459.25" width="8.00" height="5.65" class="up-body"/>
<line x1="1007.86" y1="446.81" x2="1007.86" y2="462.61" class="up-wick"/>
<rect x="1003.86" y="448.19" width="8.00" height="11.06" class="up-body"/>
<line x1="1028.47" y1="445.03" x2="1028.47" y2="469.80" class="down-wick"/>
<rect x="1024.47" y="448.19" width="8.00" height="13.19" class="down-body"/>
<line x1="1049.08" y1="442.02" x2="1049.08" y2="465.15" class="up-wick"/>
<rect x="1045.08" y="447.84" width="8.00" height="13.54" class="up-body"/>
<line x1="1069.69" y1="441.18" x2="1069.69" y2="453.13" class="down-wick"/>
<rect x="1065.69" y="447.84" width="8.00" height="4.72" class="down-body"/>
<text x="70" y="556" class="axis-label">2026-05-19 07:30:00+00:00 to 2026-05-19 19:30:00+00:00</text>
<text x="1080" y="556" text-anchor="end" class="axis-label">4457.11 - 4566.85</text>
<text x="70" y="582" class="panel-title">M5 reaction / execution context</text>
<rect x="70" y="596" width="1010" height="192" class="plot-bg"/>
<line x1="91.96" y1="700.77" x2="91.96" y2="743.98" class="up-wick"/>
<rect x="87.96" y="724.53" width="8.00" height="18.79" class="up-body"/>
<line x1="135.87" y1="700.70" x2="135.87" y2="774.76" class="up-wick"/>
<rect x="131.87" y="712.03" width="8.00" height="12.21" class="up-body"/>
<line x1="179.78" y1="701.65" x2="179.78" y2="731.41" class="up-wick"/>
<rect x="175.78" y="707.86" width="8.00" height="4.17" class="up-body"/>
<line x1="223.70" y1="663.27" x2="223.70" y2="713.42" class="up-wick"/>
<rect x="219.70" y="697.26" width="8.00" height="10.60" class="up-body"/>
<line x1="267.61" y1="684.25" x2="267.61" y2="744.71" class="down-wick"/>
<rect x="263.61" y="697.26" width="8.00" height="39.92" class="down-body"/>
<line x1="311.52" y1="699.53" x2="311.52" y2="741.49" class="up-wick"/>
<rect x="307.52" y="708.45" width="8.00" height="28.73" class="up-body"/>
<line x1="355.43" y1="644.04" x2="355.43" y2="715.18" class="up-wick"/>
<rect x="351.43" y="673.28" width="8.00" height="35.09" class="up-body"/>
<line x1="399.35" y1="661.15" x2="399.35" y2="708.38" class="down-wick"/>
<rect x="395.35" y="674.75" width="8.00" height="3.07" class="down-body"/>
<line x1="443.26" y1="662.90" x2="443.26" y2="695.58" class="down-wick"/>
<rect x="439.26" y="677.82" width="8.00" height="6.95" class="down-body"/>
<line x1="487.17" y1="670.21" x2="487.17" y2="698.80" class="up-wick"/>
<rect x="483.17" y="670.43" width="8.00" height="14.33" class="up-body"/>
<line x1="531.09" y1="658.08" x2="531.09" y2="687.76" class="down-wick"/>
<rect x="527.09" y="670.43" width="8.00" height="7.75" class="down-body"/>
<line x1="575.00" y1="632.78" x2="575.00" y2="678.62" class="up-wick"/>
<rect x="571.00" y="638.56" width="8.00" height="39.62" class="up-body"/>
<line x1="618.91" y1="625.33" x2="618.91" y2="661.73" class="down-wick"/>
<rect x="614.91" y="638.56" width="8.00" height="20.47" class="down-body"/>
<line x1="662.83" y1="658.96" x2="662.83" y2="719.42" class="down-wick"/>
<rect x="658.83" y="659.03" width="8.00" height="52.56" class="down-body"/>
<line x1="706.74" y1="691.56" x2="706.74" y2="728.85" class="up-wick"/>
<rect x="702.74" y="693.68" width="8.00" height="17.91" class="up-body"/>
<line x1="750.65" y1="678.18" x2="750.65" y2="709.40" class="down-wick"/>
<rect x="746.65" y="693.68" width="8.00" height="3.73" class="down-body"/>
<line x1="794.57" y1="656.54" x2="794.57" y2="698.51" class="up-wick"/>
<rect x="790.57" y="658.88" width="8.00" height="38.67" class="up-body"/>
<line x1="838.48" y1="612.75" x2="838.48" y2="659.03" class="up-wick"/>
<rect x="834.48" y="637.10" width="8.00" height="21.93" class="up-body"/>
<line x1="882.39" y1="609.24" x2="882.39" y2="651.50" class="down-wick"/>
<rect x="878.39" y="637.10" width="8.00" height="9.14" class="down-body"/>
<line x1="926.30" y1="628.62" x2="926.30" y2="657.57" class="up-wick"/>
<rect x="922.30" y="635.93" width="8.00" height="10.31" class="up-body"/>
<line x1="970.22" y1="631.17" x2="970.22" y2="659.17" class="down-wick"/>
<rect x="966.22" y="635.93" width="8.00" height="20.91" class="down-body"/>
<line x1="1014.13" y1="652.74" x2="1014.13" y2="666.70" class="up-wick"/>
<rect x="1010.13" y="656.54" width="8.00" height="1.00" class="up-body"/>
<line x1="1058.04" y1="643.53" x2="1058.04" y2="665.61" class="down-wick"/>
<rect x="1054.04" y="656.47" width="8.00" height="3.00" class="down-body"/>
<text x="70" y="806" class="axis-label">2026-05-19 18:00:00+00:00 to 2026-05-19 19:50:00+00:00</text>
<text x="1080" y="806" text-anchor="end" class="axis-label">4488.00 - 4514.26</text>
<text x="70" y="832" class="panel-title">M1 execution window</text>
<rect x="70" y="846" width="1010" height="192" class="plot-bg"/>
<line x1="74.35" y1="971.02" x2="74.35" y2="993.98" class="up-wick"/>
<rect x="71.52" y="973.44" width="5.66" height="19.89" class="up-body"/>
<line x1="83.06" y1="960.35" x2="83.06" y2="978.70" class="up-wick"/>
<rect x="80.23" y="973.00" width="5.66" height="1.00" class="up-body"/>
<line x1="91.77" y1="955.45" x2="91.77" y2="975.70" class="up-wick"/>
<rect x="88.94" y="963.35" width="5.66" height="9.65" class="up-body"/>
<line x1="100.47" y1="956.84" x2="100.47" y2="977.75" class="up-wick"/>
<rect x="97.64" y="960.72" width="5.66" height="2.63" class="up-body"/>
<line x1="109.18" y1="950.77" x2="109.18" y2="974.97" class="down-wick"/>
<rect x="106.35" y="960.72" width="5.66" height="13.82" class="down-body"/>
<line x1="117.89" y1="971.61" x2="117.89" y2="995.88" class="down-wick"/>
<rect x="115.06" y="974.24" width="5.66" height="18.42" class="down-body"/>
<line x1="126.59" y1="980.45" x2="126.59" y2="1005.02" class="up-wick"/>
<rect x="123.77" y="983.67" width="5.66" height="8.99" class="up-body"/>
<line x1="135.30" y1="980.24" x2="135.30" y2="1024.76" class="down-wick"/>
<rect x="132.47" y="983.82" width="5.66" height="31.95" class="down-body"/>
<line x1="144.01" y1="990.91" x2="144.01" y2="1018.62" class="up-wick"/>
<rect x="141.18" y="991.42" width="5.66" height="24.35" class="up-body"/>
<line x1="152.72" y1="950.70" x2="152.72" y2="993.98" class="up-wick"/>
<rect x="149.89" y="962.03" width="5.66" height="29.39" class="up-body"/>
<line x1="161.42" y1="951.65" x2="161.42" y2="975.34" class="down-wick"/>
<rect x="158.59" y="962.03" width="5.66" height="10.82" class="down-body"/>
<line x1="170.13" y1="962.25" x2="170.13" y2="981.41" class="down-wick"/>
<rect x="167.30" y="972.85" width="5.66" height="4.24" class="down-body"/>
<line x1="178.84" y1="960.50" x2="178.84" y2="981.11" class="up-wick"/>
<rect x="176.01" y="974.90" width="5.66" height="2.19" class="up-body"/>
<line x1="187.54" y1="962.54" x2="187.54" y2="975.85" class="up-wick"/>
<rect x="184.71" y="967.00" width="5.66" height="7.90" class="up-body"/>
<line x1="196.25" y1="956.18" x2="196.25" y2="980.82" class="up-wick"/>
<rect x="193.42" y="957.86" width="5.66" height="9.43" class="up-body"/>
<line x1="204.96" y1="942.07" x2="204.96" y2="959.91" class="up-wick"/>
<rect x="202.13" y="952.53" width="5.66" height="5.34" class="up-body"/>
<line x1="213.66" y1="942.00" x2="213.66" y2="963.42" class="down-wick"/>
<rect x="210.83" y="952.75" width="5.66" height="6.58" class="down-body"/>
<line x1="222.37" y1="944.56" x2="222.37" y2="959.77" class="up-wick"/>
<rect x="219.54" y="949.38" width="5.66" height="9.94" class="up-body"/>
<line x1="231.08" y1="913.27" x2="231.08" y2="949.53" class="up-wick"/>
<rect x="228.25" y="917.80" width="5.66" height="31.58" class="up-body"/>
<line x1="239.78" y1="917.44" x2="239.78" y2="956.26" class="down-wick"/>
<rect x="236.95" y="917.80" width="5.66" height="29.46" class="down-body"/>
<line x1="248.49" y1="937.83" x2="248.49" y2="956.84" class="down-wick"/>
<rect x="245.66" y="947.26" width="5.66" height="7.38" class="down-body"/>
<line x1="257.20" y1="934.25" x2="257.20" y2="957.57" class="up-wick"/>
<rect x="254.37" y="945.29" width="5.66" height="9.43" class="up-body"/>
<line x1="265.91" y1="940.25" x2="265.91" y2="972.56" class="down-wick"/>
<rect x="263.08" y="945.29" width="5.66" height="27.27" class="down-body"/>
<line x1="274.61" y1="968.47" x2="274.61" y2="993.10" class="down-wick"/>
<rect x="271.78" y="972.71" width="5.66" height="18.20" class="down-body"/>
<line x1="283.32" y1="976.87" x2="283.32" y2="994.71" class="up-wick"/>
<rect x="280.49" y="987.18" width="5.66" height="3.73" class="up-body"/>
<line x1="292.03" y1="965.76" x2="292.03" y2="991.49" class="up-wick"/>
<rect x="289.20" y="971.46" width="5.66" height="15.72" class="up-body"/>
<line x1="300.73" y1="966.13" x2="300.73" y2="977.31" class="down-wick"/>
<rect x="297.90" y="971.46" width="5.66" height="1.39" class="down-body"/>
<line x1="309.44" y1="953.04" x2="309.44" y2="973.88" class="up-wick"/>
<rect x="306.61" y="954.28" width="5.66" height="18.20" class="up-body"/>
<line x1="318.15" y1="949.53" x2="318.15" y2="967.59" class="down-wick"/>
<rect x="315.32" y="954.28" width="5.66" height="8.41" class="down-body"/>
<line x1="326.85" y1="951.36" x2="326.85" y2="966.86" class="up-wick"/>
<rect x="324.02" y="958.45" width="5.66" height="4.24" class="up-body"/>
<line x1="335.56" y1="936.59" x2="335.56" y2="965.18" class="up-wick"/>
<rect x="332.73" y="936.88" width="5.66" height="21.49" class="up-body"/>
<line x1="344.27" y1="894.04" x2="344.27" y2="937.32" class="up-wick"/>
<rect x="341.44" y="899.52" width="5.66" height="37.36" class="up-body"/>
<line x1="352.97" y1="899.52" x2="352.97" y2="919.70" class="down-wick"/>
<rect x="350.14" y="899.52" width="5.66" height="12.43" class="down-body"/>
<line x1="361.68" y1="904.93" x2="361.68" y2="915.75" class="down-wick"/>
<rect x="358.85" y="911.95" width="5.66" height="1.61" class="down-body"/>
<line x1="370.39" y1="900.18" x2="370.39" y2="923.28" class="down-wick"/>
<rect x="367.56" y="913.56" width="5.66" height="9.72" class="down-body"/>
<line x1="379.09" y1="924.75" x2="379.09" y2="956.40" class="down-wick"/>
<rect x="376.27" y="924.75" width="5.66" height="29.68" class="down-body"/>
<line x1="387.80" y1="942.29" x2="387.80" y2="958.38" class="up-wick"/>
<rect x="384.97" y="945.36" width="5.66" height="9.07" class="up-body"/>
<line x1="396.51" y1="917.14" x2="396.51" y2="947.92" class="up-wick"/>
<rect x="393.68" y="918.61" width="5.66" height="26.76" class="up-body"/>
<line x1="405.22" y1="911.15" x2="405.22" y2="925.11" class="up-wick"/>
<rect x="402.39" y="916.78" width="5.66" height="1.83" class="up-body"/>
<line x1="413.92" y1="913.12" x2="413.92" y2="930.30" class="down-wick"/>
<rect x="411.09" y="915.46" width="5.66" height="12.36" class="down-body"/>
<line x1="422.63" y1="927.01" x2="422.63" y2="942.37" class="down-wick"/>
<rect x="419.80" y="927.82" width="5.66" height="8.33" class="down-body"/>
<line x1="431.34" y1="921.31" x2="431.34" y2="936.15" class="up-wick"/>
<rect x="428.51" y="931.11" width="5.66" height="5.04" class="up-body"/>
<line x1="440.04" y1="912.90" x2="440.04" y2="933.81" class="up-wick"/>
<rect x="437.21" y="924.89" width="5.66" height="6.21" class="up-body"/>
<line x1="448.75" y1="923.72" x2="448.75" y2="945.58" class="down-wick"/>
<rect x="445.92" y="924.89" width="5.66" height="17.77" class="down-body"/>
<line x1="457.46" y1="933.23" x2="457.46" y2="942.88" class="up-wick"/>
<rect x="454.63" y="934.76" width="5.66" height="7.90" class="up-body"/>
<line x1="466.16" y1="924.53" x2="466.16" y2="943.97" class="down-wick"/>
<rect x="463.33" y="934.76" width="5.66" height="8.77" class="down-body"/>
<line x1="474.87" y1="935.27" x2="474.87" y2="948.21" class="up-wick"/>
<rect x="472.04" y="938.71" width="5.66" height="4.83" class="up-body"/>
<line x1="483.58" y1="936.88" x2="483.58" y2="948.80" class="up-wick"/>
<rect x="480.75" y="937.47" width="5.66" height="1.32" class="up-body"/>
<line x1="492.28" y1="930.01" x2="492.28" y2="941.93" class="up-wick"/>
<rect x="489.45" y="933.45" width="5.66" height="4.02" class="up-body"/>
<line x1="500.99" y1="920.21" x2="500.99" y2="934.98" class="up-wick"/>
<rect x="498.16" y="920.43" width="5.66" height="13.01" class="up-body"/>
<line x1="509.70" y1="917.58" x2="509.70" y2="935.35" class="down-wick"/>
<rect x="506.87" y="920.43" width="5.66" height="7.31" class="down-body"/>
<line x1="518.41" y1="917.95" x2="518.41" y2="931.11" class="up-wick"/>
<rect x="515.58" y="927.74" width="5.66" height="1.00" class="up-body"/>
<line x1="527.11" y1="919.78" x2="527.11" y2="930.67" class="up-wick"/>
<rect x="524.28" y="920.14" width="5.66" height="7.75" class="up-body"/>
<line x1="535.82" y1="908.08" x2="535.82" y2="932.35" class="down-wick"/>
<rect x="532.99" y="920.14" width="5.66" height="6.87" class="down-body"/>
<line x1="544.53" y1="924.53" x2="544.53" y2="937.76" class="down-wick"/>
<rect x="541.70" y="927.01" width="5.66" height="1.17" class="down-body"/>
<line x1="553.23" y1="905.01" x2="553.23" y2="928.62" class="up-wick"/>
<rect x="550.40" y="908.81" width="5.66" height="19.37" class="up-body"/>
<line x1="561.94" y1="900.55" x2="561.94" y2="914.29" class="up-wick"/>
<rect x="559.11" y="901.86" width="5.66" height="6.95" class="up-body"/>
<line x1="570.65" y1="883.66" x2="570.65" y2="904.86" class="up-wick"/>
<rect x="567.82" y="896.09" width="5.66" height="5.78" class="up-body"/>
<line x1="579.35" y1="893.09" x2="579.35" y2="902.08" class="down-wick"/>
<rect x="576.52" y="896.09" width="5.66" height="1.83" class="down-body"/>
<line x1="588.06" y1="882.78" x2="588.06" y2="900.47" class="up-wick"/>
<rect x="585.23" y="888.56" width="5.66" height="9.36" class="up-body"/>
<line x1="596.77" y1="875.33" x2="596.77" y2="889.80" class="up-wick"/>
<rect x="593.94" y="879.93" width="5.66" height="8.63" class="up-body"/>
<line x1="605.47" y1="879.20" x2="605.47" y2="897.40" class="down-wick"/>
<rect x="602.64" y="879.93" width="5.66" height="16.45" class="down-body"/>
<line x1="614.18" y1="883.44" x2="614.18" y2="901.94" class="down-wick"/>
<rect x="611.35" y="896.38" width="5.66" height="2.19" class="down-body"/>
<line x1="622.89" y1="893.38" x2="622.89" y2="905.74" class="down-wick"/>
<rect x="620.06" y="898.57" width="5.66" height="6.95" class="down-body"/>
<line x1="631.59" y1="905.52" x2="631.59" y2="911.73" class="down-wick"/>
<rect x="628.77" y="905.52" width="5.66" height="3.51" class="down-body"/>
<line x1="640.30" y1="908.96" x2="640.30" y2="933.01" class="down-wick"/>
<rect x="637.47" y="909.03" width="5.66" height="23.39" class="down-body"/>
<line x1="649.01" y1="924.60" x2="649.01" y2="944.41" class="down-wick"/>
<rect x="646.18" y="932.64" width="5.66" height="9.14" class="down-body"/>
<line x1="657.72" y1="933.37" x2="657.72" y2="948.51" class="up-wick"/>
<rect x="654.89" y="933.88" width="5.66" height="7.90" class="up-body"/>
<line x1="666.42" y1="932.06" x2="666.42" y2="943.90" class="down-wick"/>
<rect x="663.59" y="933.88" width="5.66" height="9.07" class="down-body"/>
<line x1="675.13" y1="940.98" x2="675.13" y2="969.42" class="down-wick"/>
<rect x="672.30" y="942.95" width="5.66" height="18.64" class="down-body"/>
<line x1="683.84" y1="956.84" x2="683.84" y2="978.85" class="up-wick"/>
<rect x="681.01" y="957.79" width="5.66" height="3.80" class="up-body"/>
<line x1="692.54" y1="950.41" x2="692.54" y2="962.32" class="down-wick"/>
<rect x="689.71" y="957.79" width="5.66" height="1.10" class="down-body"/>
<line x1="701.25" y1="953.62" x2="701.25" y2="966.86" class="down-wick"/>
<rect x="698.42" y="958.89" width="5.66" height="4.46" class="down-body"/>
<line x1="709.96" y1="949.09" x2="709.96" y2="963.35" class="up-wick"/>
<rect x="707.13" y="953.04" width="5.66" height="10.31" class="up-body"/>
<line x1="718.66" y1="941.56" x2="718.66" y2="956.40" class="up-wick"/>
<rect x="715.83" y="943.68" width="5.66" height="9.36" class="up-body"/>
<line x1="727.37" y1="928.18" x2="727.37" y2="945.14" class="up-wick"/>
<rect x="724.54" y="942.73" width="5.66" height="1.00" class="up-body"/>
<line x1="736.08" y1="942.00" x2="736.08" y2="956.69" class="down-wick"/>
<rect x="733.25" y="942.15" width="5.66" height="9.65" class="down-body"/>
<line x1="744.78" y1="943.90" x2="744.78" y2="956.40" class="up-wick"/>
<rect x="741.95" y="945.95" width="5.66" height="5.85" class="up-body"/>
<line x1="753.49" y1="943.24" x2="753.49" y2="959.40" class="down-wick"/>
<rect x="750.66" y="945.95" width="5.66" height="4.09" class="down-body"/>
<line x1="762.20" y1="944.92" x2="762.20" y2="950.41" class="up-wick"/>
<rect x="759.37" y="947.41" width="5.66" height="2.49" class="up-body"/>
<line x1="770.91" y1="933.88" x2="770.91" y2="948.51" class="up-wick"/>
<rect x="768.08" y="935.35" width="5.66" height="12.21" class="up-body"/>
<line x1="779.61" y1="933.08" x2="779.61" y2="938.27" class="down-wick"/>
<rect x="776.78" y="935.35" width="5.66" height="1.00" class="down-body"/>
<line x1="788.32" y1="935.13" x2="788.32" y2="945.36" class="down-wick"/>
<rect x="785.49" y="936.15" width="5.66" height="1.61" class="down-body"/>
<line x1="797.03" y1="918.53" x2="797.03" y2="938.05" class="up-wick"/>
<rect x="794.20" y="919.12" width="5.66" height="18.57" class="up-body"/>
<line x1="805.73" y1="906.54" x2="805.73" y2="922.48" class="up-wick"/>
<rect x="802.90" y="908.88" width="5.66" height="10.09" class="up-body"/>
<line x1="814.44" y1="881.90" x2="814.44" y2="909.03" class="up-wick"/>
<rect x="811.61" y="886.15" width="5.66" height="22.88" class="up-body"/>
<line x1="823.15" y1="862.75" x2="823.15" y2="892.07" class="down-wick"/>
<rect x="820.32" y="886.15" width="5.66" height="3.36" class="down-body"/>
<line x1="831.85" y1="884.61" x2="831.85" y2="897.04" class="up-wick"/>
<rect x="829.02" y="886.29" width="5.66" height="2.78" class="up-body"/>
<line x1="840.56" y1="877.45" x2="840.56" y2="890.02" class="down-wick"/>
<rect x="837.73" y="886.29" width="5.66" height="2.19" class="down-body"/>
<line x1="849.27" y1="881.32" x2="849.27" y2="890.90" class="up-wick"/>
<rect x="846.44" y="887.10" width="5.66" height="1.39" class="up-body"/>
<line x1="857.97" y1="881.90" x2="857.97" y2="894.41" class="down-wick"/>
<rect x="855.14" y="887.10" width="5.66" height="3.36" class="down-body"/>
<line x1="866.68" y1="866.26" x2="866.68" y2="890.46" class="up-wick"/>
<rect x="863.85" y="875.47" width="5.66" height="14.99" class="up-body"/>
<line x1="875.39" y1="859.24" x2="875.39" y2="884.68" class="down-wick"/>
<rect x="872.56" y="875.47" width="5.66" height="3.36" class="down-body"/>
<line x1="884.09" y1="878.54" x2="884.09" y2="892.29" class="down-wick"/>
<rect x="881.27" y="878.83" width="5.66" height="10.02" class="down-body"/>
<line x1="892.80" y1="885.05" x2="892.80" y2="901.50" class="down-wick"/>
<rect x="889.97" y="888.85" width="5.66" height="7.38" class="down-body"/>
<line x1="901.51" y1="884.90" x2="901.51" y2="896.38" class="up-wick"/>
<rect x="898.68" y="888.12" width="5.66" height="8.12" class="up-body"/>
<line x1="910.22" y1="885.71" x2="910.22" y2="907.57" class="down-wick"/>
<rect x="907.39" y="888.12" width="5.66" height="7.38" class="down-body"/>
<line x1="918.92" y1="889.14" x2="918.92" y2="900.62" class="down-wick"/>
<rect x="916.09" y="895.28" width="5.66" height="3.36" class="down-body"/>
<line x1="927.63" y1="878.62" x2="927.63" y2="902.52" class="up-wick"/>
<rect x="924.80" y="889.58" width="5.66" height="9.07" class="up-body"/>
<line x1="936.34" y1="881.90" x2="936.34" y2="891.04" class="up-wick"/>
<rect x="933.51" y="885.93" width="5.66" height="3.66" class="up-body"/>
<line x1="945.04" y1="882.93" x2="945.04" y2="898.65" class="down-wick"/>
<rect x="942.21" y="885.93" width="5.66" height="7.97" class="down-body"/>
<line x1="953.75" y1="885.56" x2="953.75" y2="900.91" class="up-wick"/>
<rect x="950.92" y="886.58" width="5.66" height="7.31" class="up-body"/>
<line x1="962.46" y1="881.17" x2="962.46" y2="902.74" class="down-wick"/>
<rect x="959.63" y="886.58" width="5.66" height="14.55" class="down-body"/>
<line x1="971.16" y1="894.63" x2="971.16" y2="907.27" class="down-wick"/>
<rect x="968.33" y="901.13" width="5.66" height="2.56" class="down-body"/>
<line x1="979.87" y1="900.77" x2="979.87" y2="909.17" class="down-wick"/>
<rect x="977.04" y="904.06" width="5.66" height="2.78" class="down-body"/>
<line x1="988.58" y1="902.74" x2="988.58" y2="912.46" class="down-wick"/>
<rect x="985.75" y="906.83" width="5.66" height="3.14" class="down-body"/>
<line x1="997.28" y1="904.79" x2="997.28" y2="913.27" class="down-wick"/>
<rect x="994.45" y="909.98" width="5.66" height="1.46" class="down-body"/>
<line x1="1005.99" y1="906.10" x2="1005.99" y2="916.70" class="up-wick"/>
<rect x="1003.16" y="906.10" width="5.66" height="5.34" class="up-body"/>
<line x1="1014.70" y1="905.08" x2="1014.70" y2="913.71" class="down-wick"/>
<rect x="1011.87" y="906.25" width="5.66" height="4.02" class="down-body"/>
<line x1="1023.41" y1="904.93" x2="1023.41" y2="914.37" class="up-wick"/>
<rect x="1020.58" y="906.54" width="5.66" height="3.73" class="up-body"/>
<line x1="1032.11" y1="904.06" x2="1032.11" y2="915.10" class="down-wick"/>
<rect x="1029.28" y="906.47" width="5.66" height="7.24" class="down-body"/>
<line x1="1040.82" y1="901.79" x2="1040.82" y2="915.61" class="up-wick"/>
<rect x="1037.99" y="904.28" width="5.66" height="9.43" class="up-body"/>
<line x1="1049.53" y1="894.33" x2="1049.53" y2="904.42" class="up-wick"/>
<rect x="1046.70" y="898.35" width="5.66" height="5.92" class="up-body"/>
<line x1="1058.23" y1="893.53" x2="1058.23" y2="908.88" class="down-wick"/>
<rect x="1055.40" y="898.35" width="5.66" height="8.70" class="down-body"/>
<line x1="1066.94" y1="906.98" x2="1066.94" y2="913.63" class="down-wick"/>
<rect x="1064.11" y="907.05" width="5.66" height="2.41" class="down-body"/>
<line x1="1075.65" y1="904.64" x2="1075.65" y2="912.98" class="down-wick"/>
<rect x="1072.82" y="909.47" width="5.66" height="2.27" class="down-body"/>
<text x="70" y="1056" class="axis-label">2026-05-19 18:00:00+00:00 to 2026-05-19 19:55:00+00:00</text>
<text x="1080" y="1056" text-anchor="end" class="axis-label">4488.00 - 4514.26</text>
</svg>