<svg xmlns="http://www.w3.org/2000/svg" width="1120" height="1054" viewBox="0 0 1120 1054">
<style>
text{font-family:Arial,Helvetica,sans-serif}.title{font-size:21px;font-weight:700;fill:#1f2937}.subtitle{font-size:12px;fill:#4b5563}.panel-title{font-size:15px;font-weight:700;fill:#111827}.muted{font-size:13px;fill:#6b7280}.plot-bg{fill:#f8fafc;stroke:#cbd5e1;stroke-width:1}.up-body{fill:#15803d;stroke:#14532d;stroke-width:.8}.down-body{fill:#b91c1c;stroke:#7f1d1d;stroke-width:.8}.up-wick{stroke:#14532d;stroke-width:1}.down-wick{stroke:#7f1d1d;stroke-width:1}.sweep-line{stroke:#7c3aed;stroke-width:1.6;stroke-dasharray:6 4}.number-line{stroke:#0f766e;stroke-width:1.4;stroke-dasharray:3 4}.entry-line{stroke:#2563eb;stroke-width:1.4}.sl-line{stroke:#dc2626;stroke-width:1.4}.tp-line{stroke:#16a34a;stroke-width:1.4}.level-label,.axis-label{font-size:11px;fill:#374151}
</style>
<text x="28" y="28" class="title">Adelin v2 visual review sample sample_034</text>
<text x="28" y="48" class="subtitle">Candidate windows are for visual labeling only and are not trade signals.</text>
<text x="560" y="48" class="subtitle" text-anchor="middle">LARGE_LOWER_WICK_REVERSAL_VISUAL_CANDIDATE</text>
<text x="70" y="82" class="panel-title">H1 liquidity context</text>
<rect x="70" y="96" width="1010" height="192" class="plot-bg"/>
<line x1="81.48" y1="109.24" x2="81.48" y2="150.76" class="down-wick"/>
<rect x="77.48" y="114.96" width="8.00" height="20.06" class="down-body"/>
<line x1="104.43" y1="133.96" x2="104.43" y2="156.82" class="down-wick"/>
<rect x="100.43" y="135.00" width="8.00" height="15.55" class="down-body"/>
<line x1="127.39" y1="141.62" x2="127.39" y2="154.72" class="up-wick"/>
<rect x="123.39" y="146.58" width="8.00" height="3.97" class="up-body"/>
<line x1="150.34" y1="142.67" x2="150.34" y2="156.47" class="down-wick"/>
<rect x="146.34" y="146.65" width="8.00" height="2.43" class="down-body"/>
<line x1="173.30" y1="143.41" x2="173.30" y2="159.28" class="down-wick"/>
<rect x="169.30" y="149.08" width="8.00" height="8.93" class="down-body"/>
<line x1="196.25" y1="157.42" x2="196.25" y2="202.52" class="down-wick"/>
<rect x="192.25" y="157.81" width="8.00" height="43.98" class="down-body"/>
<line x1="219.20" y1="181.51" x2="219.20" y2="204.03" class="up-wick"/>
<rect x="215.20" y="191.39" width="8.00" height="10.40" class="up-body"/>
<line x1="242.16" y1="174.00" x2="242.16" y2="195.09" class="up-wick"/>
<rect x="238.16" y="190.64" width="8.00" height="1.00" class="up-body"/>
<line x1="265.11" y1="189.47" x2="265.11" y2="209.82" class="down-wick"/>
<rect x="261.11" y="190.64" width="8.00" height="15.18" class="down-body"/>
<line x1="288.07" y1="197.08" x2="288.07" y2="226.77" class="down-wick"/>
<rect x="284.07" y="205.82" width="8.00" height="8.03" class="down-body"/>
<line x1="311.02" y1="188.93" x2="311.02" y2="215.32" class="up-wick"/>
<rect x="307.02" y="194.94" width="8.00" height="18.90" class="up-body"/>
<line x1="333.98" y1="191.00" x2="333.98" y2="209.99" class="down-wick"/>
<rect x="329.98" y="195.00" width="8.00" height="13.10" class="down-body"/>
<line x1="356.93" y1="201.81" x2="356.93" y2="215.83" class="down-wick"/>
<rect x="352.93" y="208.10" width="8.00" height="5.68" class="down-body"/>
<line x1="379.89" y1="202.85" x2="379.89" y2="245.50" class="down-wick"/>
<rect x="375.89" y="213.78" width="8.00" height="11.52" class="down-body"/>
<line x1="402.84" y1="194.59" x2="402.84" y2="232.79" class="up-wick"/>
<rect x="398.84" y="198.07" width="8.00" height="27.26" class="up-body"/>
<line x1="425.80" y1="197.57" x2="425.80" y2="225.07" class="down-wick"/>
<rect x="421.80" y="197.94" width="8.00" height="21.43" class="down-body"/>
<line x1="448.75" y1="211.71" x2="448.75" y2="229.14" class="up-wick"/>
<rect x="444.75" y="215.16" width="8.00" height="4.21" class="up-body"/>
<line x1="471.70" y1="196.47" x2="471.70" y2="216.29" class="up-wick"/>
<rect x="467.70" y="201.01" width="8.00" height="14.18" class="up-body"/>
<line x1="494.66" y1="197.74" x2="494.66" y2="207.73" class="down-wick"/>
<rect x="490.66" y="200.93" width="8.00" height="1.00" class="down-body"/>
<line x1="517.61" y1="200.42" x2="517.61" y2="214.62" class="down-wick"/>
<rect x="513.61" y="201.27" width="8.00" height="12.51" class="down-body"/>
<line x1="540.57" y1="205.38" x2="540.57" y2="252.97" class="up-wick"/>
<rect x="536.57" y="213.47" width="8.00" height="6.84" class="up-body"/>
<line x1="563.52" y1="211.70" x2="563.52" y2="226.80" class="down-wick"/>
<rect x="559.52" y="213.47" width="8.00" height="8.42" class="down-body"/>
<line x1="586.48" y1="216.86" x2="586.48" y2="274.76" class="down-wick"/>
<rect x="582.48" y="221.87" width="8.00" height="19.68" class="down-body"/>
<line x1="609.43" y1="223.16" x2="609.43" y2="266.13" class="up-wick"/>
<rect x="605.43" y="232.75" width="8.00" height="9.28" class="up-body"/>
<line x1="632.39" y1="216.56" x2="632.39" y2="236.02" class="up-wick"/>
<rect x="628.39" y="225.07" width="8.00" height="7.68" class="up-body"/>
<line x1="655.34" y1="211.84" x2="655.34" y2="232.99" class="up-wick"/>
<rect x="651.34" y="218.11" width="8.00" height="6.96" class="up-body"/>
<line x1="678.30" y1="210.09" x2="678.30" y2="228.52" class="down-wick"/>
<rect x="674.30" y="218.12" width="8.00" height="1.00" class="down-body"/>
<line x1="701.25" y1="208.00" x2="701.25" y2="228.61" class="down-wick"/>
<rect x="697.25" y="218.58" width="8.00" height="9.08" class="down-body"/>
<line x1="724.20" y1="211.64" x2="724.20" y2="228.83" class="up-wick"/>
<rect x="720.20" y="212.89" width="8.00" height="14.77" class="up-body"/>
<line x1="747.16" y1="200.70" x2="747.16" y2="220.84" class="down-wick"/>
<rect x="743.16" y="212.89" width="8.00" height="1.00" class="down-body"/>
<line x1="770.11" y1="203.43" x2="770.11" y2="216.73" class="up-wick"/>
<rect x="766.11" y="209.93" width="8.00" height="3.47" class="up-body"/>
<line x1="793.07" y1="208.09" x2="793.07" y2="219.15" class="down-wick"/>
<rect x="789.07" y="209.93" width="8.00" height="6.54" class="down-body"/>
<line x1="816.02" y1="211.97" x2="816.02" y2="226.73" class="down-wick"/>
<rect x="812.02" y="216.47" width="8.00" height="2.53" class="down-body"/>
<line x1="838.98" y1="193.93" x2="838.98" y2="228.67" class="up-wick"/>
<rect x="834.98" y="209.33" width="8.00" height="9.66" class="up-body"/>
<line x1="861.93" y1="186.72" x2="861.93" y2="214.30" class="up-wick"/>
<rect x="857.93" y="190.19" width="8.00" height="19.15" class="up-body"/>
<line x1="884.89" y1="178.05" x2="884.89" y2="198.91" class="up-wick"/>
<rect x="880.89" y="185.83" width="8.00" height="4.37" class="up-body"/>
<line x1="907.84" y1="185.83" x2="907.84" y2="221.23" class="down-wick"/>
<rect x="903.84" y="185.83" width="8.00" height="27.36" class="down-body"/>
<line x1="930.80" y1="211.83" x2="930.80" y2="226.78" class="down-wick"/>
<rect x="926.80" y="213.19" width="8.00" height="2.70" class="down-body"/>
<line x1="953.75" y1="205.80" x2="953.75" y2="224.85" class="up-wick"/>
<rect x="949.75" y="209.73" width="8.00" height="6.16" class="up-body"/>
<line x1="976.70" y1="202.19" x2="976.70" y2="214.05" class="down-wick"/>
<rect x="972.70" y="209.73" width="8.00" height="2.99" class="down-body"/>
<line x1="999.66" y1="211.97" x2="999.66" y2="224.74" class="down-wick"/>
<rect x="995.66" y="212.72" width="8.00" height="10.30" class="down-body"/>
<line x1="1022.61" y1="195.94" x2="1022.61" y2="223.55" class="up-wick"/>
<rect x="1018.61" y="202.09" width="8.00" height="20.93" class="up-body"/>
<line x1="1045.57" y1="183.59" x2="1045.57" y2="195.14" class="up-wick"/>
<rect x="1041.57" y="187.71" width="8.00" height="6.97" class="up-body"/>
<line x1="1068.52" y1="173.65" x2="1068.52" y2="187.88" class="up-wick"/>
<rect x="1064.52" y="180.36" width="8.00" height="7.37" class="up-body"/>
<text x="70" y="306" class="axis-label">2026-05-15 03:00:00+00:00 to 2026-05-19 02:00:00+00:00</text>
<text x="1080" y="306" text-anchor="end" class="axis-label">4466.06 - 4672.49</text>
<text x="70" y="332" class="panel-title">M15 liquidity / reaction context</text>
<rect x="70" y="346" width="1010" height="192" class="plot-bg"/>
<line x1="86.29" y1="359.24" x2="86.29" y2="472.79" class="up-wick"/>
<rect x="82.29" y="373.71" width="8.00" height="21.15" class="up-body"/>
<line x1="118.87" y1="370.05" x2="118.87" y2="396.54" class="down-wick"/>
<rect x="114.87" y="373.71" width="8.00" height="16.18" class="down-body"/>
<line x1="151.45" y1="361.68" x2="151.45" y2="390.11" class="up-wick"/>
<rect x="147.45" y="370.14" width="8.00" height="19.73" class="up-body"/>
<line x1="184.03" y1="359.80" x2="184.03" y2="384.14" class="down-wick"/>
<rect x="180.03" y="370.14" width="8.00" height="8.41" class="down-body"/>
<line x1="216.61" y1="374.33" x2="216.61" y2="393.41" class="down-wick"/>
<rect x="212.61" y="378.55" width="8.00" height="10.16" class="down-body"/>
<line x1="249.19" y1="382.63" x2="249.19" y2="397.05" class="down-wick"/>
<rect x="245.19" y="388.69" width="8.00" height="8.08" class="down-body"/>
<line x1="281.77" y1="389.13" x2="281.77" y2="408.90" class="up-wick"/>
<rect x="277.77" y="394.19" width="8.00" height="2.57" class="up-body"/>
<line x1="314.35" y1="383.12" x2="314.35" y2="410.35" class="down-wick"/>
<rect x="310.35" y="394.37" width="8.00" height="4.26" class="down-body"/>
<line x1="346.94" y1="386.62" x2="346.94" y2="430.12" class="down-wick"/>
<rect x="342.94" y="398.58" width="8.00" height="24.12" class="down-body"/>
<line x1="379.52" y1="406.44" x2="379.52" y2="449.16" class="down-wick"/>
<rect x="375.52" y="422.71" width="8.00" height="23.34" class="down-body"/>
<line x1="412.10" y1="438.64" x2="412.10" y2="524.49" class="down-wick"/>
<rect x="408.10" y="446.05" width="8.00" height="75.82" class="down-body"/>
<line x1="444.68" y1="443.99" x2="444.68" y2="524.76" class="up-wick"/>
<rect x="440.68" y="445.54" width="8.00" height="76.33" class="up-body"/>
<line x1="477.26" y1="445.16" x2="477.26" y2="504.17" class="down-wick"/>
<rect x="473.26" y="446.69" width="8.00" height="43.25" class="down-body"/>
<line x1="509.84" y1="458.85" x2="509.84" y2="496.84" class="up-wick"/>
<rect x="505.84" y="472.12" width="8.00" height="17.84" class="up-body"/>
<line x1="542.42" y1="450.31" x2="542.42" y2="481.49" class="up-wick"/>
<rect x="538.42" y="453.19" width="8.00" height="18.93" class="up-body"/>
<line x1="575.00" y1="401.67" x2="575.00" y2="456.66" class="up-wick"/>
<rect x="571.00" y="424.55" width="8.00" height="28.65" class="up-body"/>
<line x1="607.58" y1="395.43" x2="607.58" y2="432.34" class="up-wick"/>
<rect x="603.58" y="399.65" width="8.00" height="24.90" class="up-body"/>
<line x1="640.16" y1="390.73" x2="640.16" y2="410.23" class="down-wick"/>
<rect x="636.16" y="399.65" width="8.00" height="6.99" class="down-body"/>
<line x1="672.74" y1="389.66" x2="672.74" y2="415.58" class="up-wick"/>
<rect x="668.74" y="400.63" width="8.00" height="6.01" class="up-body"/>
<line x1="705.32" y1="385.91" x2="705.32" y2="413.50" class="down-wick"/>
<rect x="701.32" y="400.63" width="8.00" height="5.59" class="down-body"/>
<line x1="737.90" y1="401.58" x2="737.90" y2="421.73" class="down-wick"/>
<rect x="733.90" y="406.22" width="8.00" height="9.03" class="down-body"/>
<line x1="770.48" y1="395.77" x2="770.48" y2="418.20" class="up-wick"/>
<rect x="766.48" y="401.20" width="8.00" height="14.05" class="up-body"/>
<line x1="803.06" y1="374.66" x2="803.06" y2="425.10" class="up-wick"/>
<rect x="799.06" y="379.55" width="8.00" height="21.66" class="up-body"/>
<line x1="835.65" y1="374.91" x2="835.65" y2="393.68" class="down-wick"/>
<rect x="831.65" y="379.55" width="8.00" height="10.07" class="down-body"/>
<line x1="868.23" y1="370.47" x2="868.23" y2="390.11" class="up-wick"/>
<rect x="864.23" y="382.56" width="8.00" height="7.08" class="up-body"/>
<line x1="900.81" y1="376.46" x2="900.81" y2="414.45" class="down-wick"/>
<rect x="896.81" y="382.56" width="8.00" height="25.92" class="down-body"/>
<line x1="933.39" y1="382.79" x2="933.39" y2="409.59" class="up-wick"/>
<rect x="929.39" y="388.47" width="8.00" height="20.15" class="up-body"/>
<line x1="965.97" y1="379.68" x2="965.97" y2="403.00" class="down-wick"/>
<rect x="961.97" y="388.47" width="8.00" height="2.31" class="down-body"/>
<line x1="998.55" y1="385.91" x2="998.55" y2="407.90" class="down-wick"/>
<rect x="994.55" y="390.73" width="8.00" height="5.44" class="down-body"/>
<line x1="1031.13" y1="368.58" x2="1031.13" y2="403.58" class="up-wick"/>
<rect x="1027.13" y="372.78" width="8.00" height="23.39" class="up-body"/>
<line x1="1063.71" y1="365.50" x2="1063.71" y2="395.74" class="down-wick"/>
<rect x="1059.71" y="372.78" width="8.00" height="20.39" class="down-body"/>
<text x="70" y="556" class="axis-label">2026-05-18 01:00:00+00:00 to 2026-05-18 08:30:00+00:00</text>
<text x="1080" y="556" text-anchor="end" class="axis-label">4474.33 - 4560.86</text>
<text x="70" y="582" class="panel-title">M5 reaction / execution context</text>
<rect x="70" y="596" width="1010" height="192" class="plot-bg"/>
<line x1="79.18" y1="630.26" x2="79.18" y2="722.79" class="up-wick"/>
<rect x="75.18" y="631.03" width="8.00" height="13.82" class="up-body"/>
<line x1="97.55" y1="609.24" x2="97.55" y2="631.65" class="up-wick"/>
<rect x="93.55" y="611.06" width="8.00" height="20.08" class="up-body"/>
<line x1="115.91" y1="609.44" x2="115.91" y2="625.60" class="down-wick"/>
<rect x="111.91" y="611.06" width="8.00" height="12.65" class="down-body"/>
<line x1="134.27" y1="620.05" x2="134.27" y2="633.34" class="down-wick"/>
<rect x="130.27" y="623.71" width="8.00" height="7.70" class="down-body"/>
<line x1="152.64" y1="627.93" x2="152.64" y2="646.54" class="up-wick"/>
<rect x="148.64" y="630.63" width="8.00" height="1.00" class="up-body"/>
<line x1="171.00" y1="630.28" x2="171.00" y2="645.03" class="down-wick"/>
<rect x="167.00" y="630.70" width="8.00" height="9.19" class="down-body"/>
<line x1="189.36" y1="617.47" x2="189.36" y2="640.11" class="up-wick"/>
<rect x="185.36" y="631.81" width="8.00" height="8.06" class="up-body"/>
<line x1="207.73" y1="613.57" x2="207.73" y2="632.01" class="up-wick"/>
<rect x="203.73" y="617.14" width="8.00" height="14.87" class="up-body"/>
<line x1="226.09" y1="611.68" x2="226.09" y2="624.57" class="down-wick"/>
<rect x="222.09" y="617.19" width="8.00" height="2.95" class="down-body"/>
<line x1="244.45" y1="609.80" x2="244.45" y2="621.09" class="up-wick"/>
<rect x="240.45" y="615.85" width="8.00" height="4.28" class="up-body"/>
<line x1="262.82" y1="615.52" x2="262.82" y2="626.73" class="down-wick"/>
<rect x="258.82" y="615.99" width="8.00" height="10.12" class="down-body"/>
<line x1="281.18" y1="619.98" x2="281.18" y2="634.14" class="down-wick"/>
<rect x="277.18" y="626.08" width="8.00" height="2.46" class="down-body"/>
<line x1="299.55" y1="624.33" x2="299.55" y2="633.92" class="down-wick"/>
<rect x="295.55" y="628.55" width="8.00" height="1.69" class="down-body"/>
<line x1="317.91" y1="630.23" x2="317.91" y2="643.41" class="down-wick"/>
<rect x="313.91" y="630.23" width="8.00" height="8.79" class="down-body"/>
<line x1="336.27" y1="629.30" x2="336.27" y2="642.53" class="up-wick"/>
<rect x="332.27" y="638.71" width="8.00" height="1.00" class="up-body"/>
<line x1="354.64" y1="634.83" x2="354.64" y2="645.21" class="down-wick"/>
<rect x="350.64" y="638.69" width="8.00" height="4.55" class="down-body"/>
<line x1="373.00" y1="632.63" x2="373.00" y2="643.24" class="up-wick"/>
<rect x="369.00" y="639.07" width="8.00" height="4.17" class="up-body"/>
<line x1="391.36" y1="634.27" x2="391.36" y2="647.05" class="down-wick"/>
<rect x="387.36" y="639.07" width="8.00" height="7.70" class="down-body"/>
<line x1="409.73" y1="642.90" x2="409.73" y2="653.98" class="up-wick"/>
<rect x="405.73" y="644.39" width="8.00" height="2.37" class="up-body"/>
<line x1="428.09" y1="639.13" x2="428.09" y2="649.01" class="up-wick"/>
<rect x="424.09" y="644.12" width="8.00" height="1.00" class="up-body"/>
<line x1="446.45" y1="639.69" x2="446.45" y2="658.90" class="down-wick"/>
<rect x="442.45" y="644.06" width="8.00" height="1.00" class="down-body"/>
<line x1="464.82" y1="642.02" x2="464.82" y2="660.35" class="down-wick"/>
<rect x="460.82" y="644.37" width="8.00" height="2.73" class="down-body"/>
<line x1="483.18" y1="633.12" x2="483.18" y2="648.01" class="up-wick"/>
<rect x="479.18" y="639.55" width="8.00" height="7.54" class="up-body"/>
<line x1="501.55" y1="637.11" x2="501.55" y2="652.18" class="down-wick"/>
<rect x="497.55" y="639.80" width="8.00" height="8.83" class="down-body"/>
<line x1="519.91" y1="636.62" x2="519.91" y2="663.74" class="down-wick"/>
<rect x="515.91" y="648.58" width="8.00" height="13.49" class="down-body"/>
<line x1="538.27" y1="656.24" x2="538.27" y2="680.12" class="down-wick"/>
<rect x="534.27" y="662.08" width="8.00" height="15.78" class="down-body"/>
<line x1="556.64" y1="664.72" x2="556.64" y2="677.88" class="up-wick"/>
<rect x="552.64" y="672.71" width="8.00" height="5.15" class="up-body"/>
<line x1="575.00" y1="665.74" x2="575.00" y2="680.09" class="down-wick"/>
<rect x="571.00" y="672.71" width="8.00" height="7.26" class="down-body"/>
<line x1="593.36" y1="656.44" x2="593.36" y2="693.30" class="down-wick"/>
<rect x="589.36" y="679.96" width="8.00" height="12.43" class="down-body"/>
<line x1="611.73" y1="684.64" x2="611.73" y2="699.16" class="down-wick"/>
<rect x="607.73" y="692.34" width="8.00" height="3.71" class="down-body"/>
<line x1="630.09" y1="688.64" x2="630.09" y2="758.43" class="down-wick"/>
<rect x="626.09" y="696.05" width="8.00" height="52.21" class="down-body"/>
<line x1="648.45" y1="723.74" x2="648.45" y2="754.70" class="down-wick"/>
<rect x="644.45" y="748.26" width="8.00" height="4.42" class="down-body"/>
<line x1="666.82" y1="745.25" x2="666.82" y2="774.49" class="down-wick"/>
<rect x="662.82" y="752.68" width="8.00" height="19.19" class="down-body"/>
<line x1="685.18" y1="739.01" x2="685.18" y2="774.76" class="up-wick"/>
<rect x="681.18" y="743.67" width="8.00" height="28.20" class="up-body"/>
<line x1="703.55" y1="740.16" x2="703.55" y2="761.02" class="down-wick"/>
<rect x="699.55" y="743.69" width="8.00" height="5.28" class="down-body"/>
<line x1="721.91" y1="693.99" x2="721.91" y2="749.64" class="up-wick"/>
<rect x="717.91" y="695.54" width="8.00" height="53.43" class="up-body"/>
<line x1="740.27" y1="695.16" x2="740.27" y2="754.17" class="down-wick"/>
<rect x="736.27" y="696.69" width="8.00" height="39.37" class="down-body"/>
<line x1="758.64" y1="720.26" x2="758.64" y2="747.66" class="up-wick"/>
<rect x="754.64" y="727.45" width="8.00" height="8.61" class="up-body"/>
<line x1="777.00" y1="719.08" x2="777.00" y2="743.49" class="down-wick"/>
<rect x="773.00" y="727.45" width="8.00" height="12.49" class="down-body"/>
<line x1="795.36" y1="729.82" x2="795.36" y2="746.84" class="up-wick"/>
<rect x="791.36" y="734.55" width="8.00" height="5.41" class="up-body"/>
<line x1="813.73" y1="713.07" x2="813.73" y2="745.62" class="up-wick"/>
<rect x="809.73" y="716.42" width="8.00" height="18.13" class="up-body"/>
<line x1="832.09" y1="708.85" x2="832.09" y2="734.24" class="down-wick"/>
<rect x="828.09" y="716.42" width="8.00" height="5.70" class="down-body"/>
<line x1="850.45" y1="705.84" x2="850.45" y2="727.87" class="up-wick"/>
<rect x="846.45" y="708.70" width="8.00" height="13.43" class="up-body"/>
<line x1="868.82" y1="700.31" x2="868.82" y2="731.49" class="down-wick"/>
<rect x="864.82" y="708.70" width="8.00" height="3.97" class="down-body"/>
<line x1="887.18" y1="702.51" x2="887.18" y2="717.57" class="up-wick"/>
<rect x="883.18" y="703.19" width="8.00" height="9.48" class="up-body"/>
<line x1="905.55" y1="667.42" x2="905.55" y2="706.66" class="up-wick"/>
<rect x="901.55" y="668.45" width="8.00" height="34.75" class="up-body"/>
<line x1="923.91" y1="651.67" x2="923.91" y2="673.46" class="up-wick"/>
<rect x="919.91" y="664.05" width="8.00" height="4.39" class="up-body"/>
<line x1="942.27" y1="663.27" x2="942.27" y2="675.83" class="down-wick"/>
<rect x="938.27" y="663.76" width="8.00" height="10.78" class="down-body"/>
<line x1="960.64" y1="651.38" x2="960.64" y2="682.34" class="up-wick"/>
<rect x="956.64" y="659.66" width="8.00" height="14.89" class="up-body"/>
<line x1="979.00" y1="656.26" x2="979.00" y2="674.06" class="down-wick"/>
<rect x="975.00" y="659.66" width="8.00" height="7.30" class="down-body"/>
<line x1="997.36" y1="645.43" x2="997.36" y2="669.31" class="up-wick"/>
<rect x="993.36" y="649.65" width="8.00" height="17.33" class="up-body"/>
<line x1="1015.73" y1="646.94" x2="1015.73" y2="660.23" class="down-wick"/>
<rect x="1011.73" y="649.65" width="8.00" height="3.99" class="down-body"/>
<line x1="1034.09" y1="640.73" x2="1034.09" y2="657.57" class="up-wick"/>
<rect x="1030.09" y="647.70" width="8.00" height="5.95" class="up-body"/>
<line x1="1052.45" y1="642.08" x2="1052.45" y2="656.64" class="down-wick"/>
<rect x="1048.45" y="647.70" width="8.00" height="8.94" class="down-body"/>
<line x1="1070.82" y1="647.25" x2="1070.82" y2="665.58" class="down-wick"/>
<rect x="1066.82" y="656.64" width="8.00" height="3.04" class="down-body"/>
<text x="70" y="806" class="axis-label">2026-05-18 01:00:00+00:00 to 2026-05-18 05:30:00+00:00</text>
<text x="1080" y="806" text-anchor="end" class="axis-label">4474.33 - 4560.86</text>
<text x="70" y="832" class="panel-title">M1 execution window</text>
<rect x="70" y="846" width="1010" height="192" class="plot-bg"/>
<line x1="73.71" y1="894.04" x2="73.71" y2="911.38" class="down-wick"/>
<rect x="71.30" y="894.76" width="4.83" height="14.80" class="down-body"/>
<line x1="81.14" y1="888.35" x2="81.14" y2="972.91" class="up-wick"/>
<rect x="78.73" y="888.50" width="4.83" height="24.72" class="up-body"/>
<line x1="88.57" y1="880.11" x2="88.57" y2="892.55" class="up-wick"/>
<rect x="86.15" y="880.89" width="4.83" height="6.65" class="up-body"/>
<line x1="95.99" y1="862.09" x2="95.99" y2="872.73" class="down-wick"/>
<rect x="93.58" y="864.65" width="4.83" height="3.89" class="down-body"/>
<line x1="103.42" y1="867.76" x2="103.42" y2="880.11" class="up-wick"/>
<rect x="101.01" y="868.45" width="4.83" height="4.05" class="up-body"/>
<line x1="110.85" y1="859.24" x2="110.85" y2="865.81" class="down-wick"/>
<rect x="108.43" y="860.87" width="4.83" height="2.27" class="down-body"/>
<line x1="118.27" y1="859.80" x2="118.27" y2="866.90" class="up-wick"/>
<rect x="115.86" y="862.58" width="4.83" height="1.00" class="up-body"/>
<line x1="125.70" y1="868.12" x2="125.70" y2="875.44" class="down-wick"/>
<rect x="123.28" y="869.05" width="4.83" height="4.50" class="down-body"/>
<line x1="133.12" y1="871.12" x2="133.12" y2="875.60" class="up-wick"/>
<rect x="130.71" y="871.21" width="4.83" height="4.38" class="up-body"/>
<line x1="140.55" y1="871.08" x2="140.55" y2="877.38" class="up-wick"/>
<rect x="138.14" y="871.08" width="4.83" height="6.30" class="up-body"/>
<line x1="147.98" y1="877.78" x2="147.98" y2="881.76" class="down-wick"/>
<rect x="145.56" y="881.27" width="4.83" height="1.00" class="down-body"/>
<line x1="155.40" y1="890.48" x2="155.40" y2="896.45" class="up-wick"/>
<rect x="152.99" y="892.15" width="4.83" height="1.00" class="up-body"/>
<line x1="162.83" y1="879.18" x2="162.83" y2="883.61" class="up-wick"/>
<rect x="160.42" y="880.49" width="4.83" height="3.09" class="up-body"/>
<line x1="170.26" y1="888.37" x2="170.26" y2="894.94" class="up-wick"/>
<rect x="167.84" y="888.37" width="4.83" height="1.00" class="up-body"/>
<line x1="177.68" y1="883.39" x2="177.68" y2="889.68" class="up-wick"/>
<rect x="175.27" y="884.14" width="4.83" height="5.10" class="up-body"/>
<line x1="185.11" y1="874.04" x2="185.11" y2="889.99" class="up-wick"/>
<rect x="182.70" y="874.26" width="4.83" height="15.49" class="up-body"/>
<line x1="192.54" y1="871.84" x2="192.54" y2="880.69" class="down-wick"/>
<rect x="190.12" y="874.68" width="4.83" height="3.89" class="down-body"/>
<line x1="199.96" y1="874.62" x2="199.96" y2="881.67" class="down-wick"/>
<rect x="197.55" y="881.09" width="4.83" height="1.00" class="down-body"/>
<line x1="207.39" y1="873.10" x2="207.39" y2="876.18" class="down-wick"/>
<rect x="204.98" y="873.46" width="4.83" height="1.49" class="down-body"/>
<line x1="214.82" y1="863.38" x2="214.82" y2="873.75" class="up-wick"/>
<rect x="212.40" y="868.03" width="4.83" height="3.78" class="up-body"/>
<line x1="222.24" y1="861.49" x2="222.24" y2="868.59" class="up-wick"/>
<rect x="219.83" y="863.71" width="4.83" height="3.29" class="up-body"/>
<line x1="229.67" y1="863.36" x2="229.67" y2="874.42" class="up-wick"/>
<rect x="227.26" y="863.47" width="4.83" height="7.39" class="up-body"/>
<line x1="237.10" y1="862.91" x2="237.10" y2="869.99" class="down-wick"/>
<rect x="234.68" y="862.91" width="4.83" height="7.05" class="down-body"/>
<line x1="244.52" y1="859.60" x2="244.52" y2="863.69" class="down-wick"/>
<rect x="242.11" y="861.13" width="4.83" height="2.00" class="down-body"/>
<line x1="251.95" y1="863.58" x2="251.95" y2="866.16" class="down-wick"/>
<rect x="249.53" y="864.14" width="4.83" height="1.02" class="down-body"/>
<line x1="259.38" y1="865.34" x2="259.38" y2="872.06" class="down-wick"/>
<rect x="256.96" y="865.81" width="4.83" height="5.65" class="down-body"/>
<line x1="266.80" y1="866.74" x2="266.80" y2="871.24" class="up-wick"/>
<rect x="264.39" y="868.90" width="4.83" height="1.94" class="up-body"/>
<line x1="274.23" y1="872.57" x2="274.23" y2="876.58" class="down-wick"/>
<rect x="271.81" y="875.64" width="4.83" height="1.00" class="down-body"/>
<line x1="281.65" y1="876.15" x2="281.65" y2="884.01" class="down-wick"/>
<rect x="279.24" y="876.69" width="4.83" height="3.76" class="down-body"/>
<line x1="289.08" y1="875.60" x2="289.08" y2="879.96" class="down-wick"/>
<rect x="286.67" y="875.60" width="4.83" height="2.80" class="down-body"/>
<line x1="296.51" y1="874.17" x2="296.51" y2="882.27" class="down-wick"/>
<rect x="294.09" y="878.40" width="4.83" height="3.85" class="down-body"/>
<line x1="303.93" y1="875.62" x2="303.93" y2="883.79" class="down-wick"/>
<rect x="301.52" y="876.31" width="4.83" height="4.58" class="down-body"/>
<line x1="311.36" y1="877.02" x2="311.36" y2="880.27" class="down-wick"/>
<rect x="308.95" y="877.84" width="4.83" height="2.25" class="down-body"/>
<line x1="318.79" y1="886.03" x2="318.79" y2="892.13" class="down-wick"/>
<rect x="316.37" y="887.28" width="4.83" height="1.00" class="down-body"/>
<line x1="326.21" y1="886.26" x2="326.21" y2="891.42" class="up-wick"/>
<rect x="323.80" y="890.75" width="4.83" height="1.00" class="up-body"/>
<line x1="333.64" y1="879.16" x2="333.64" y2="890.22" class="up-wick"/>
<rect x="331.23" y="880.29" width="4.83" height="8.61" class="up-body"/>
<line x1="341.07" y1="882.43" x2="341.07" y2="892.42" class="down-wick"/>
<rect x="338.65" y="883.36" width="4.83" height="7.70" class="down-body"/>
<line x1="348.49" y1="885.70" x2="348.49" y2="889.64" class="down-wick"/>
<rect x="346.08" y="886.70" width="4.83" height="1.89" class="down-body"/>
<line x1="355.92" y1="888.44" x2="355.92" y2="890.93" class="down-wick"/>
<rect x="353.51" y="888.68" width="4.83" height="1.05" class="down-body"/>
<line x1="363.35" y1="884.70" x2="363.35" y2="892.29" class="up-wick"/>
<rect x="360.93" y="889.82" width="4.83" height="1.09" class="up-body"/>
<line x1="370.77" y1="884.81" x2="370.77" y2="893.13" class="up-wick"/>
<rect x="368.36" y="885.01" width="4.83" height="8.12" class="up-body"/>
<line x1="378.20" y1="882.50" x2="378.20" y2="886.61" class="down-wick"/>
<rect x="375.78" y="884.72" width="4.83" height="1.74" class="down-body"/>
<line x1="385.62" y1="886.15" x2="385.62" y2="891.17" class="up-wick"/>
<rect x="383.21" y="888.95" width="4.83" height="1.00" class="up-body"/>
<line x1="393.05" y1="891.22" x2="393.05" y2="894.47" class="down-wick"/>
<rect x="390.64" y="892.69" width="4.83" height="1.00" class="down-body"/>
<line x1="400.48" y1="891.17" x2="400.48" y2="896.96" class="down-wick"/>
<rect x="398.06" y="892.13" width="4.83" height="2.29" class="down-body"/>
<line x1="407.90" y1="896.11" x2="407.90" y2="903.90" class="down-wick"/>
<rect x="405.49" y="896.67" width="4.83" height="3.18" class="down-body"/>
<line x1="415.33" y1="894.69" x2="415.33" y2="899.85" class="up-wick"/>
<rect x="412.92" y="895.27" width="4.83" height="2.16" class="up-body"/>
<line x1="422.76" y1="892.80" x2="422.76" y2="898.78" class="up-wick"/>
<rect x="420.34" y="894.29" width="4.83" height="1.47" class="up-body"/>
<line x1="430.18" y1="892.60" x2="430.18" y2="898.92" class="up-wick"/>
<rect x="427.77" y="892.60" width="4.83" height="5.01" class="up-body"/>
<line x1="437.61" y1="889.02" x2="437.61" y2="895.20" class="down-wick"/>
<rect x="435.20" y="890.20" width="4.83" height="2.85" class="down-body"/>
<line x1="445.04" y1="892.64" x2="445.04" y2="908.84" class="down-wick"/>
<rect x="442.62" y="893.96" width="4.83" height="12.91" class="down-body"/>
<line x1="452.46" y1="897.00" x2="452.46" y2="901.68" class="up-wick"/>
<rect x="450.05" y="898.70" width="4.83" height="1.51" class="up-body"/>
<line x1="459.89" y1="889.57" x2="459.89" y2="894.27" class="down-wick"/>
<rect x="457.48" y="893.58" width="4.83" height="1.00" class="down-body"/>
<line x1="467.32" y1="902.88" x2="467.32" y2="910.29" class="down-wick"/>
<rect x="464.90" y="905.71" width="4.83" height="1.91" class="down-body"/>
<line x1="474.74" y1="891.91" x2="474.74" y2="901.79" class="up-wick"/>
<rect x="472.33" y="894.02" width="4.83" height="7.77" class="up-body"/>
<line x1="482.17" y1="892.80" x2="482.17" y2="897.74" class="up-wick"/>
<rect x="479.76" y="896.60" width="4.83" height="1.00" class="up-body"/>
<line x1="489.60" y1="889.73" x2="489.60" y2="894.51" class="up-wick"/>
<rect x="487.18" y="890.40" width="4.83" height="3.56" class="up-body"/>
<line x1="497.02" y1="883.07" x2="497.02" y2="891.11" class="down-wick"/>
<rect x="494.61" y="885.34" width="4.83" height="4.09" class="down-body"/>
<line x1="504.45" y1="886.99" x2="504.45" y2="897.49" class="down-wick"/>
<rect x="502.03" y="894.38" width="4.83" height="1.54" class="down-body"/>
<line x1="511.88" y1="898.16" x2="511.88" y2="902.10" class="down-wick"/>
<rect x="509.46" y="898.83" width="4.83" height="1.94" class="down-body"/>
<line x1="519.30" y1="886.50" x2="519.30" y2="907.31" class="down-wick"/>
<rect x="516.89" y="898.50" width="4.83" height="7.25" class="down-body"/>
<line x1="526.73" y1="893.36" x2="526.73" y2="913.34" class="up-wick"/>
<rect x="524.31" y="893.36" width="4.83" height="15.44" class="up-body"/>
<line x1="534.15" y1="903.10" x2="534.15" y2="912.38" class="down-wick"/>
<rect x="531.74" y="909.29" width="4.83" height="2.74" class="down-body"/>
<line x1="541.58" y1="910.25" x2="541.58" y2="919.46" class="up-wick"/>
<rect x="539.17" y="913.25" width="4.83" height="4.41" class="up-body"/>
<line x1="549.01" y1="915.12" x2="549.01" y2="925.84" class="down-wick"/>
<rect x="546.59" y="917.70" width="4.83" height="7.77" class="down-body"/>
<line x1="556.43" y1="921.39" x2="556.43" y2="927.85" class="up-wick"/>
<rect x="554.02" y="926.36" width="4.83" height="1.49" class="up-body"/>
<line x1="563.86" y1="914.67" x2="563.86" y2="921.46" class="down-wick"/>
<rect x="561.45" y="917.50" width="4.83" height="3.76" class="down-body"/>
<line x1="571.29" y1="920.95" x2="571.29" y2="927.62" class="up-wick"/>
<rect x="568.87" y="922.68" width="4.83" height="1.00" class="up-body"/>
<line x1="578.71" y1="917.77" x2="578.71" y2="925.53" class="up-wick"/>
<rect x="576.30" y="920.55" width="4.83" height="2.34" class="up-body"/>
<line x1="586.14" y1="916.14" x2="586.14" y2="926.22" class="down-wick"/>
<rect x="583.73" y="920.19" width="4.83" height="1.91" class="down-body"/>
<line x1="593.57" y1="906.53" x2="593.57" y2="930.21" class="up-wick"/>
<rect x="591.15" y="907.02" width="4.83" height="22.94" class="up-body"/>
<line x1="600.99" y1="919.26" x2="600.99" y2="924.02" class="down-wick"/>
<rect x="598.58" y="921.95" width="4.83" height="1.00" class="down-body"/>
<line x1="608.42" y1="926.67" x2="608.42" y2="943.34" class="down-wick"/>
<rect x="606.01" y="927.25" width="4.83" height="15.18" class="down-body"/>
<line x1="615.85" y1="934.66" x2="615.85" y2="943.11" class="up-wick"/>
<rect x="613.43" y="936.70" width="4.83" height="1.00" class="up-body"/>
<line x1="623.27" y1="937.06" x2="623.27" y2="945.56" class="down-wick"/>
<rect x="620.86" y="941.64" width="4.83" height="1.00" class="down-body"/>
<line x1="630.70" y1="940.58" x2="630.70" y2="948.94" class="down-wick"/>
<rect x="628.28" y="946.09" width="4.83" height="1.00" class="down-body"/>
<line x1="638.12" y1="941.55" x2="638.12" y2="946.76" class="down-wick"/>
<rect x="635.71" y="943.62" width="4.83" height="2.96" class="down-body"/>
<line x1="645.55" y1="978.43" x2="645.55" y2="1008.65" class="down-wick"/>
<rect x="643.14" y="979.76" width="4.83" height="18.69" class="down-body"/>
<line x1="652.98" y1="973.87" x2="652.98" y2="984.33" class="up-wick"/>
<rect x="650.56" y="978.61" width="4.83" height="4.29" class="up-body"/>
<line x1="660.40" y1="987.53" x2="660.40" y2="1000.59" class="down-wick"/>
<rect x="657.99" y="988.04" width="4.83" height="9.57" class="down-body"/>
<line x1="667.83" y1="995.43" x2="667.83" y2="1016.86" class="down-wick"/>
<rect x="665.42" y="1002.88" width="4.83" height="9.32" class="down-body"/>
<line x1="675.26" y1="1009.45" x2="675.26" y2="1016.68" class="up-wick"/>
<rect x="672.84" y="1009.83" width="4.83" height="3.47" class="up-body"/>
<line x1="682.68" y1="1010.16" x2="682.68" y2="1024.76" class="down-wick"/>
<rect x="680.27" y="1015.46" width="4.83" height="6.68" class="down-body"/>
<line x1="690.11" y1="1003.66" x2="690.11" y2="1014.72" class="up-wick"/>
<rect x="687.70" y="1003.97" width="4.83" height="10.75" class="up-body"/>
<line x1="697.54" y1="998.12" x2="697.54" y2="1008.29" class="up-wick"/>
<rect x="695.12" y="999.88" width="4.83" height="6.76" class="up-body"/>
<line x1="704.96" y1="990.33" x2="704.96" y2="999.70" class="up-wick"/>
<rect x="702.55" y="992.91" width="4.83" height="1.00" class="up-body"/>
<line x1="712.39" y1="1000.86" x2="712.39" y2="1006.40" class="down-wick"/>
<rect x="709.98" y="1001.44" width="4.83" height="4.63" class="down-body"/>
<line x1="719.82" y1="999.17" x2="719.82" y2="1011.25" class="up-wick"/>
<rect x="717.40" y="999.17" width="4.83" height="2.51" class="up-body"/>
<line x1="727.24" y1="967.21" x2="727.24" y2="995.47" class="up-wick"/>
<rect x="724.83" y="973.64" width="4.83" height="21.83" class="up-body"/>
<line x1="734.67" y1="967.79" x2="734.67" y2="976.34" class="down-wick"/>
<rect x="732.26" y="967.79" width="4.83" height="2.63" class="down-body"/>
<line x1="742.10" y1="945.20" x2="742.10" y2="975.82" class="down-wick"/>
<rect x="739.68" y="946.74" width="4.83" height="22.10" class="down-body"/>
<line x1="749.52" y1="971.80" x2="749.52" y2="994.18" class="down-wick"/>
<rect x="747.11" y="984.12" width="4.83" height="10.06" class="down-body"/>
<line x1="756.95" y1="978.16" x2="756.95" y2="994.49" class="up-wick"/>
<rect x="754.53" y="986.22" width="4.83" height="6.90" class="up-body"/>
<line x1="764.38" y1="970.37" x2="764.38" y2="986.08" class="up-wick"/>
<rect x="761.96" y="974.40" width="4.83" height="3.32" class="up-body"/>
<line x1="771.80" y1="977.34" x2="771.80" y2="992.14" class="up-wick"/>
<rect x="769.39" y="980.43" width="4.83" height="5.18" class="up-body"/>
<line x1="779.23" y1="976.47" x2="779.23" y2="992.45" class="down-wick"/>
<rect x="776.81" y="977.58" width="4.83" height="1.00" class="down-body"/>
<line x1="786.65" y1="971.64" x2="786.65" y2="981.68" class="down-wick"/>
<rect x="784.24" y="971.64" width="4.83" height="4.76" class="down-body"/>
<line x1="794.08" y1="977.43" x2="794.08" y2="993.67" class="down-wick"/>
<rect x="791.67" y="979.74" width="4.83" height="10.37" class="down-body"/>
<line x1="801.51" y1="981.41" x2="801.51" y2="992.63" class="up-wick"/>
<rect x="799.09" y="985.59" width="4.83" height="3.52" class="up-body"/>
<line x1="808.93" y1="979.96" x2="808.93" y2="989.15" class="down-wick"/>
<rect x="806.52" y="984.48" width="4.83" height="1.00" class="down-body"/>
<line x1="816.36" y1="979.16" x2="816.36" y2="995.81" class="down-wick"/>
<rect x="813.95" y="984.70" width="4.83" height="7.05" class="down-body"/>
<line x1="823.79" y1="977.72" x2="823.79" y2="984.30" class="up-wick"/>
<rect x="821.37" y="978.49" width="4.83" height="4.45" class="up-body"/>
<line x1="831.21" y1="963.16" x2="831.21" y2="981.63" class="up-wick"/>
<rect x="828.80" y="966.52" width="4.83" height="14.75" class="up-body"/>
<line x1="838.64" y1="958.93" x2="838.64" y2="976.36" class="up-wick"/>
<rect x="836.23" y="966.01" width="4.83" height="10.35" class="up-body"/>
<line x1="846.07" y1="962.74" x2="846.07" y2="977.09" class="down-wick"/>
<rect x="843.65" y="965.30" width="4.83" height="8.90" class="down-body"/>
<line x1="853.49" y1="964.56" x2="853.49" y2="976.16" class="up-wick"/>
<rect x="851.08" y="970.11" width="4.83" height="2.14" class="up-body"/>
<line x1="860.92" y1="957.47" x2="860.92" y2="966.52" class="up-wick"/>
<rect x="858.51" y="960.49" width="4.83" height="5.83" class="up-body"/>
<line x1="868.35" y1="955.91" x2="868.35" y2="965.25" class="down-wick"/>
<rect x="865.93" y="958.56" width="4.83" height="1.00" class="down-body"/>
<line x1="875.77" y1="953.88" x2="875.77" y2="966.12" class="down-wick"/>
<rect x="873.36" y="956.82" width="4.83" height="7.39" class="down-body"/>
<line x1="883.20" y1="969.15" x2="883.20" y2="981.63" class="up-wick"/>
<rect x="880.78" y="970.28" width="4.83" height="5.56" class="up-body"/>
<line x1="890.62" y1="959.42" x2="890.62" y2="967.39" class="down-wick"/>
<rect x="888.21" y="962.76" width="4.83" height="1.56" class="down-body"/>
<line x1="898.05" y1="958.00" x2="898.05" y2="965.12" class="up-wick"/>
<rect x="895.64" y="960.76" width="4.83" height="3.09" class="up-body"/>
<line x1="905.48" y1="952.57" x2="905.48" y2="963.12" class="up-wick"/>
<rect x="903.06" y="953.26" width="4.83" height="7.68" class="up-body"/>
<line x1="912.90" y1="944.74" x2="912.90" y2="956.11" class="up-wick"/>
<rect x="910.49" y="948.63" width="4.83" height="7.48" class="up-body"/>
<line x1="920.33" y1="921.26" x2="920.33" y2="931.72" class="up-wick"/>
<rect x="917.92" y="925.56" width="4.83" height="6.08" class="up-body"/>
<line x1="927.76" y1="915.61" x2="927.76" y2="923.44" class="down-wick"/>
<rect x="925.34" y="918.41" width="4.83" height="1.00" class="down-body"/>
<line x1="935.18" y1="905.57" x2="935.18" y2="918.26" class="down-wick"/>
<rect x="932.77" y="908.91" width="4.83" height="6.99" class="down-body"/>
<line x1="942.61" y1="905.33" x2="942.61" y2="916.34" class="down-wick"/>
<rect x="940.20" y="905.99" width="4.83" height="8.01" class="down-body"/>
<line x1="950.04" y1="914.18" x2="950.04" y2="922.62" class="up-wick"/>
<rect x="947.62" y="918.57" width="4.83" height="1.00" class="up-body"/>
<line x1="957.46" y1="915.03" x2="957.46" y2="921.17" class="down-wick"/>
<rect x="955.05" y="916.59" width="4.83" height="4.27" class="down-body"/>
<line x1="964.89" y1="924.53" x2="964.89" y2="932.34" class="down-wick"/>
<rect x="962.48" y="924.53" width="4.83" height="1.94" class="down-body"/>
<line x1="972.32" y1="906.24" x2="972.32" y2="920.30" class="up-wick"/>
<rect x="969.90" y="906.24" width="4.83" height="10.04" class="up-body"/>
<line x1="979.74" y1="906.24" x2="979.74" y2="913.23" class="down-wick"/>
<rect x="977.33" y="908.46" width="4.83" height="1.13" class="down-body"/>
<line x1="987.17" y1="910.98" x2="987.17" y2="915.76" class="down-wick"/>
<rect x="984.76" y="912.58" width="4.83" height="1.00" class="down-body"/>
<line x1="994.60" y1="912.56" x2="994.60" y2="920.55" class="up-wick"/>
<rect x="992.18" y="916.21" width="4.83" height="4.29" class="up-body"/>
<line x1="1002.02" y1="913.67" x2="1002.02" y2="919.28" class="up-wick"/>
<rect x="999.61" y="916.14" width="4.83" height="1.00" class="up-body"/>
<line x1="1009.45" y1="901.08" x2="1009.45" y2="912.05" class="up-wick"/>
<rect x="1007.03" y="905.28" width="4.83" height="5.63" class="up-body"/>
<line x1="1016.88" y1="895.34" x2="1016.88" y2="902.99" class="up-wick"/>
<rect x="1014.46" y="899.56" width="4.83" height="3.16" class="up-body"/>
<line x1="1024.30" y1="896.98" x2="1024.30" y2="901.83" class="up-wick"/>
<rect x="1021.89" y="897.65" width="4.83" height="4.14" class="up-body"/>
<line x1="1031.73" y1="902.39" x2="1031.73" y2="910.18" class="up-wick"/>
<rect x="1029.31" y="906.46" width="4.83" height="1.49" class="up-body"/>
<line x1="1039.15" y1="898.78" x2="1039.15" y2="907.51" class="down-wick"/>
<rect x="1036.74" y="903.57" width="4.83" height="1.00" class="down-body"/>
<line x1="1046.58" y1="896.03" x2="1046.58" y2="907.40" class="up-wick"/>
<rect x="1044.17" y="896.60" width="4.83" height="8.17" class="up-body"/>
<line x1="1054.01" y1="893.62" x2="1054.01" y2="898.76" class="down-wick"/>
<rect x="1051.59" y="894.16" width="4.83" height="3.45" class="down-body"/>
<line x1="1061.43" y1="892.06" x2="1061.43" y2="898.07" class="up-wick"/>
<rect x="1059.02" y="892.35" width="4.83" height="5.54" class="up-body"/>
<line x1="1068.86" y1="898.99" x2="1068.86" y2="903.59" class="down-wick"/>
<rect x="1066.45" y="900.12" width="4.83" height="2.38" class="down-body"/>
<line x1="1076.29" y1="904.75" x2="1076.29" y2="915.54" class="down-wick"/>
<rect x="1073.87" y="906.57" width="4.83" height="6.81" class="down-body"/>
<text x="70" y="1056" class="axis-label">2026-05-18 01:00:00+00:00 to 2026-05-18 05:30:00+00:00</text>
<text x="1080" y="1056" text-anchor="end" class="axis-label">4474.47 - 4560.75</text>
</svg>