<svg xmlns="http://www.w3.org/2000/svg" width="900" height="320" viewBox="0 0 900 320">
<rect width="100%" height="100%" fill="#fbfbf8"/>
<text x="40" y="18" font-family="Arial" font-size="13">v3_sample_005 LONG IFVG</text>
<line x1="40.00" x2="40.00" y1="168.03" y2="237.45" stroke="#176c4c" stroke-width="1"/>
<rect x="35.26" y="203.93" width="9.48" height="33.52" fill="#176c4c" opacity="0.82"/>
<line x1="57.83" x2="57.83" y1="198.69" y2="235.70" stroke="#a23a3a" stroke-width="1"/>
<rect x="53.09" y="203.45" width="9.48" height="19.86" fill="#a23a3a" opacity="0.82"/>
<line x1="75.65" x2="75.65" y1="202.18" y2="233.32" stroke="#176c4c" stroke-width="1"/>
<rect x="70.91" y="211.87" width="9.48" height="11.44" fill="#176c4c" opacity="0.82"/>
<line x1="93.48" x2="93.48" y1="187.57" y2="217.27" stroke="#176c4c" stroke-width="1"/>
<rect x="88.74" y="198.05" width="9.48" height="12.39" fill="#176c4c" opacity="0.82"/>
<line x1="111.30" x2="111.30" y1="171.21" y2="198.85" stroke="#176c4c" stroke-width="1"/>
<rect x="106.56" y="178.35" width="9.48" height="14.77" fill="#176c4c" opacity="0.82"/>
<line x1="129.13" x2="129.13" y1="173.75" y2="203.93" stroke="#a23a3a" stroke-width="1"/>
<rect x="124.39" y="178.51" width="9.48" height="1.50" fill="#a23a3a" opacity="0.82"/>
<line x1="146.96" x2="146.96" y1="165.33" y2="208.85" stroke="#a23a3a" stroke-width="1"/>
<rect x="142.22" y="180.26" width="9.48" height="22.72" fill="#a23a3a" opacity="0.82"/>
<line x1="164.78" x2="164.78" y1="172.48" y2="217.91" stroke="#a23a3a" stroke-width="1"/>
<rect x="160.04" y="204.72" width="9.48" height="10.64" fill="#a23a3a" opacity="0.82"/>
<line x1="182.61" x2="182.61" y1="205.84" y2="262.07" stroke="#a23a3a" stroke-width="1"/>
<rect x="177.87" y="215.84" width="9.48" height="4.45" fill="#a23a3a" opacity="0.82"/>
<line x1="200.43" x2="200.43" y1="161.20" y2="238.88" stroke="#176c4c" stroke-width="1"/>
<rect x="195.70" y="165.17" width="9.48" height="54.49" fill="#176c4c" opacity="0.82"/>
<line x1="218.26" x2="218.26" y1="136.74" y2="182.64" stroke="#a23a3a" stroke-width="1"/>
<rect x="213.52" y="164.53" width="9.48" height="12.55" fill="#a23a3a" opacity="0.82"/>
<line x1="236.09" x2="236.09" y1="151.03" y2="180.90" stroke="#a23a3a" stroke-width="1"/>
<rect x="231.35" y="155.32" width="9.48" height="3.65" fill="#a23a3a" opacity="0.82"/>
<line x1="253.91" x2="253.91" y1="141.34" y2="181.37" stroke="#a23a3a" stroke-width="1"/>
<rect x="249.17" y="158.82" width="9.48" height="22.56" fill="#a23a3a" opacity="0.82"/>
<line x1="271.74" x2="271.74" y1="134.83" y2="180.10" stroke="#176c4c" stroke-width="1"/>
<rect x="267.00" y="142.61" width="9.48" height="37.17" fill="#176c4c" opacity="0.82"/>
<line x1="289.57" x2="289.57" y1="108.78" y2="154.69" stroke="#176c4c" stroke-width="1"/>
<rect x="284.83" y="117.83" width="9.48" height="25.57" fill="#176c4c" opacity="0.82"/>
<line x1="307.39" x2="307.39" y1="84.16" y2="139.44" stroke="#176c4c" stroke-width="1"/>
<rect x="302.65" y="90.51" width="9.48" height="27.16" fill="#176c4c" opacity="0.82"/>
<line x1="325.22" x2="325.22" y1="82.89" y2="121.17" stroke="#a23a3a" stroke-width="1"/>
<rect x="320.48" y="89.56" width="9.48" height="26.21" fill="#a23a3a" opacity="0.82"/>
<line x1="343.04" x2="343.04" y1="72.08" y2="126.41" stroke="#176c4c" stroke-width="1"/>
<rect x="338.30" y="97.18" width="9.48" height="18.43" fill="#176c4c" opacity="0.82"/>
<line x1="360.87" x2="360.87" y1="96.86" y2="126.41" stroke="#a23a3a" stroke-width="1"/>
<rect x="356.13" y="98.14" width="9.48" height="4.29" fill="#a23a3a" opacity="0.82"/>
<line x1="378.70" x2="378.70" y1="95.12" y2="129.27" stroke="#a23a3a" stroke-width="1"/>
<rect x="373.96" y="102.11" width="9.48" height="18.74" fill="#a23a3a" opacity="0.82"/>
<line x1="396.52" x2="396.52" y1="113.07" y2="160.56" stroke="#a23a3a" stroke-width="1"/>
<rect x="391.78" y="121.33" width="9.48" height="37.01" fill="#a23a3a" opacity="0.82"/>
<line x1="414.35" x2="414.35" y1="147.70" y2="191.70" stroke="#a23a3a" stroke-width="1"/>
<rect x="409.61" y="159.77" width="9.48" height="28.91" fill="#a23a3a" opacity="0.82"/>
<line x1="432.17" x2="432.17" y1="157.07" y2="211.08" stroke="#a23a3a" stroke-width="1"/>
<rect x="427.43" y="190.43" width="9.48" height="17.79" fill="#a23a3a" opacity="0.82"/>
<line x1="450.00" x2="450.00" y1="147.86" y2="211.87" stroke="#176c4c" stroke-width="1"/>
<rect x="445.26" y="150.40" width="9.48" height="56.39" fill="#176c4c" opacity="0.82"/>
<line x1="467.83" x2="467.83" y1="137.69" y2="190.43" stroke="#176c4c" stroke-width="1"/>
<rect x="463.09" y="139.12" width="9.48" height="10.33" fill="#176c4c" opacity="0.82"/>
<line x1="485.65" x2="485.65" y1="136.58" y2="194.08" stroke="#a23a3a" stroke-width="1"/>
<rect x="480.91" y="138.96" width="9.48" height="49.72" fill="#a23a3a" opacity="0.82"/>
<line x1="503.48" x2="503.48" y1="188.04" y2="228.23" stroke="#176c4c" stroke-width="1"/>
<rect x="498.74" y="188.04" width="9.48" height="1.50" fill="#176c4c" opacity="0.82"/>
<line x1="521.30" x2="521.30" y1="189.00" y2="218.07" stroke="#a23a3a" stroke-width="1"/>
<rect x="516.56" y="189.32" width="9.48" height="25.73" fill="#a23a3a" opacity="0.82"/>
<line x1="539.13" x2="539.13" y1="201.71" y2="228.07" stroke="#176c4c" stroke-width="1"/>
<rect x="534.39" y="201.71" width="9.48" height="12.55" fill="#176c4c" opacity="0.82"/>
<line x1="556.96" x2="556.96" y1="180.58" y2="206.63" stroke="#176c4c" stroke-width="1"/>
<rect x="552.22" y="183.28" width="9.48" height="18.43" fill="#176c4c" opacity="0.82"/>
<line x1="574.78" x2="574.78" y1="184.07" y2="223.31" stroke="#a23a3a" stroke-width="1"/>
<rect x="570.04" y="184.07" width="9.48" height="11.60" fill="#a23a3a" opacity="0.82"/>
<line x1="592.61" x2="592.61" y1="181.85" y2="194.88" stroke="#176c4c" stroke-width="1"/>
<rect x="587.87" y="183.28" width="9.48" height="11.12" fill="#176c4c" opacity="0.82"/>
<line x1="610.43" x2="610.43" y1="180.90" y2="203.29" stroke="#a23a3a" stroke-width="1"/>
<rect x="605.70" y="183.91" width="9.48" height="4.45" fill="#a23a3a" opacity="0.82"/>
<line x1="628.26" x2="628.26" y1="183.28" y2="217.11" stroke="#a23a3a" stroke-width="1"/>
<rect x="623.52" y="188.84" width="9.48" height="16.20" fill="#a23a3a" opacity="0.82"/>
<line x1="646.09" x2="646.09" y1="132.61" y2="204.72" stroke="#176c4c" stroke-width="1"/>
<rect x="641.35" y="149.92" width="9.48" height="54.80" fill="#176c4c" opacity="0.82"/>
<line x1="663.91" x2="663.91" y1="112.27" y2="167.39" stroke="#176c4c" stroke-width="1"/>
<rect x="659.17" y="116.24" width="9.48" height="35.42" fill="#176c4c" opacity="0.82"/>
<line x1="681.74" x2="681.74" y1="87.49" y2="128.00" stroke="#176c4c" stroke-width="1"/>
<rect x="677.00" y="95.28" width="9.48" height="20.97" fill="#176c4c" opacity="0.82"/>
<line x1="699.57" x2="699.57" y1="68.43" y2="111.32" stroke="#176c4c" stroke-width="1"/>
<rect x="694.83" y="76.06" width="9.48" height="19.70" fill="#176c4c" opacity="0.82"/>
<line x1="717.39" x2="717.39" y1="57.63" y2="86.22" stroke="#176c4c" stroke-width="1"/>
<rect x="712.65" y="62.55" width="9.48" height="12.23" fill="#176c4c" opacity="0.82"/>
<line x1="735.22" x2="735.22" y1="61.92" y2="109.89" stroke="#a23a3a" stroke-width="1"/>
<rect x="730.48" y="62.55" width="9.48" height="36.06" fill="#a23a3a" opacity="0.82"/>
<line x1="753.04" x2="753.04" y1="37.93" y2="107.67" stroke="#176c4c" stroke-width="1"/>
<rect x="748.30" y="56.04" width="9.48" height="42.73" fill="#176c4c" opacity="0.82"/>
<line x1="770.87" x2="770.87" y1="54.29" y2="120.85" stroke="#a23a3a" stroke-width="1"/>
<rect x="766.13" y="55.25" width="9.48" height="62.43" fill="#a23a3a" opacity="0.82"/>
<line x1="788.70" x2="788.70" y1="101.95" y2="145.31" stroke="#a23a3a" stroke-width="1"/>
<rect x="783.96" y="117.83" width="9.48" height="25.42" fill="#a23a3a" opacity="0.82"/>
<line x1="806.52" x2="806.52" y1="123.87" y2="168.19" stroke="#a23a3a" stroke-width="1"/>
<rect x="801.78" y="142.93" width="9.48" height="10.33" fill="#a23a3a" opacity="0.82"/>
<line x1="824.35" x2="824.35" y1="106.71" y2="160.25" stroke="#176c4c" stroke-width="1"/>
<rect x="819.61" y="146.27" width="9.48" height="6.67" fill="#176c4c" opacity="0.82"/>
<line x1="842.17" x2="842.17" y1="131.65" y2="176.13" stroke="#176c4c" stroke-width="1"/>
<rect x="837.43" y="141.50" width="9.48" height="4.45" fill="#176c4c" opacity="0.82"/>
<line x1="860.00" x2="860.00" y1="141.34" y2="171.21" stroke="#a23a3a" stroke-width="1"/>
<rect x="855.26" y="141.82" width="9.48" height="13.82" fill="#a23a3a" opacity="0.82"/>
<line x1="40" x2="860" y1="185.66" y2="185.66" stroke="#111827" stroke-dasharray="5 4"/>
<rect x="40" y="191.38" width="820" height="60.84" fill="#d97706" opacity="0.20"/>
<text x="45" y="179.66" font-family="Arial" font-size="11">C1 3259.98</text>
<text x="45" y="185.38" font-family="Arial" font-size="11">IFVG</text>
</svg>