<svg xmlns="http://www.w3.org/2000/svg" width="900" height="320" viewBox="0 0 900 320">
<rect width="100%" height="100%" fill="#fbfbf8"/>
<text x="40" y="18" font-family="Arial" font-size="13">v3_sample_030 LONG IFVG</text>
<line x1="40.00" x2="40.00" y1="101.23" y2="135.47" stroke="#176c4c" stroke-width="1"/>
<rect x="35.36" y="106.71" width="9.28" height="19.93" fill="#176c4c" opacity="0.82"/>
<line x1="57.45" x2="57.45" y1="102.63" y2="113.68" stroke="#176c4c" stroke-width="1"/>
<rect x="52.81" y="105.31" width="9.28" height="1.50" fill="#176c4c" opacity="0.82"/>
<line x1="74.89" x2="74.89" y1="96.69" y2="116.46" stroke="#a23a3a" stroke-width="1"/>
<rect x="70.25" y="105.31" width="9.28" height="10.27" fill="#a23a3a" opacity="0.82"/>
<line x1="92.34" x2="92.34" y1="95.71" y2="126.53" stroke="#176c4c" stroke-width="1"/>
<rect x="87.70" y="104.12" width="9.28" height="11.46" fill="#176c4c" opacity="0.82"/>
<line x1="109.79" x2="109.79" y1="101.08" y2="109.80" stroke="#176c4c" stroke-width="1"/>
<rect x="105.15" y="103.14" width="9.28" height="1.50" fill="#176c4c" opacity="0.82"/>
<line x1="127.23" x2="127.23" y1="101.65" y2="117.29" stroke="#a23a3a" stroke-width="1"/>
<rect x="122.59" y="103.19" width="9.28" height="11.46" fill="#a23a3a" opacity="0.82"/>
<line x1="144.68" x2="144.68" y1="105.98" y2="125.14" stroke="#a23a3a" stroke-width="1"/>
<rect x="140.04" y="114.66" width="9.28" height="7.69" fill="#a23a3a" opacity="0.82"/>
<line x1="162.13" x2="162.13" y1="119.92" y2="144.91" stroke="#a23a3a" stroke-width="1"/>
<rect x="157.49" y="122.35" width="9.28" height="8.88" fill="#a23a3a" opacity="0.82"/>
<line x1="179.57" x2="179.57" y1="115.79" y2="137.32" stroke="#176c4c" stroke-width="1"/>
<rect x="174.93" y="121.83" width="9.28" height="9.40" fill="#176c4c" opacity="0.82"/>
<line x1="197.02" x2="197.02" y1="110.73" y2="125.71" stroke="#176c4c" stroke-width="1"/>
<rect x="192.38" y="113.26" width="9.28" height="8.57" fill="#176c4c" opacity="0.82"/>
<line x1="214.47" x2="214.47" y1="103.50" y2="115.38" stroke="#a23a3a" stroke-width="1"/>
<rect x="209.83" y="112.23" width="9.28" height="1.50" fill="#a23a3a" opacity="0.82"/>
<line x1="231.91" x2="231.91" y1="87.86" y2="115.38" stroke="#176c4c" stroke-width="1"/>
<rect x="227.27" y="99.17" width="9.28" height="14.56" fill="#176c4c" opacity="0.82"/>
<line x1="249.36" x2="249.36" y1="66.79" y2="100.92" stroke="#176c4c" stroke-width="1"/>
<rect x="244.72" y="68.50" width="9.28" height="30.51" fill="#176c4c" opacity="0.82"/>
<line x1="266.81" x2="266.81" y1="64.93" y2="119.41" stroke="#a23a3a" stroke-width="1"/>
<rect x="262.17" y="68.55" width="9.28" height="50.81" fill="#a23a3a" opacity="0.82"/>
<line x1="284.26" x2="284.26" y1="100.15" y2="129.68" stroke="#176c4c" stroke-width="1"/>
<rect x="279.61" y="108.93" width="9.28" height="10.43" fill="#176c4c" opacity="0.82"/>
<line x1="301.70" x2="301.70" y1="95.66" y2="121.06" stroke="#176c4c" stroke-width="1"/>
<rect x="297.06" y="104.69" width="9.28" height="4.34" fill="#176c4c" opacity="0.82"/>
<line x1="319.15" x2="319.15" y1="69.99" y2="106.19" stroke="#176c4c" stroke-width="1"/>
<rect x="314.51" y="70.05" width="9.28" height="34.65" fill="#176c4c" opacity="0.82"/>
<line x1="336.60" x2="336.60" y1="69.99" y2="95.76" stroke="#a23a3a" stroke-width="1"/>
<rect x="331.96" y="70.05" width="9.28" height="11.82" fill="#a23a3a" opacity="0.82"/>
<line x1="354.04" x2="354.04" y1="50.37" y2="82.70" stroke="#176c4c" stroke-width="1"/>
<rect x="349.40" y="61.73" width="9.28" height="19.93" fill="#176c4c" opacity="0.82"/>
<line x1="371.49" x2="371.49" y1="58.64" y2="76.50" stroke="#a23a3a" stroke-width="1"/>
<rect x="366.85" y="61.73" width="9.28" height="14.77" fill="#a23a3a" opacity="0.82"/>
<line x1="388.94" x2="388.94" y1="47.28" y2="85.59" stroke="#176c4c" stroke-width="1"/>
<rect x="384.30" y="60.24" width="9.28" height="16.26" fill="#176c4c" opacity="0.82"/>
<line x1="406.38" x2="406.38" y1="37.93" y2="71.60" stroke="#176c4c" stroke-width="1"/>
<rect x="401.74" y="56.47" width="9.28" height="3.77" fill="#176c4c" opacity="0.82"/>
<line x1="423.83" x2="423.83" y1="51.67" y2="101.13" stroke="#a23a3a" stroke-width="1"/>
<rect x="419.19" y="56.47" width="9.28" height="43.99" fill="#a23a3a" opacity="0.82"/>
<line x1="441.28" x2="441.28" y1="73.87" y2="110.84" stroke="#176c4c" stroke-width="1"/>
<rect x="436.64" y="74.85" width="9.28" height="25.61" fill="#176c4c" opacity="0.82"/>
<line x1="458.72" x2="458.72" y1="63.64" y2="80.84" stroke="#176c4c" stroke-width="1"/>
<rect x="454.08" y="72.42" width="9.28" height="2.43" fill="#176c4c" opacity="0.82"/>
<line x1="476.17" x2="476.17" y1="57.19" y2="75.11" stroke="#176c4c" stroke-width="1"/>
<rect x="471.53" y="64.99" width="9.28" height="6.51" fill="#176c4c" opacity="0.82"/>
<line x1="493.62" x2="493.62" y1="49.60" y2="109.80" stroke="#a23a3a" stroke-width="1"/>
<rect x="488.98" y="64.99" width="9.28" height="38.05" fill="#a23a3a" opacity="0.82"/>
<line x1="511.06" x2="511.06" y1="73.09" y2="106.55" stroke="#176c4c" stroke-width="1"/>
<rect x="506.42" y="82.75" width="9.28" height="20.29" fill="#176c4c" opacity="0.82"/>
<line x1="528.51" x2="528.51" y1="65.14" y2="84.40" stroke="#176c4c" stroke-width="1"/>
<rect x="523.87" y="68.50" width="9.28" height="14.30" fill="#176c4c" opacity="0.82"/>
<line x1="545.96" x2="545.96" y1="67.10" y2="133.66" stroke="#a23a3a" stroke-width="1"/>
<rect x="541.32" y="68.50" width="9.28" height="54.99" fill="#a23a3a" opacity="0.82"/>
<line x1="563.40" x2="563.40" y1="114.35" y2="141.04" stroke="#176c4c" stroke-width="1"/>
<rect x="558.76" y="116.52" width="9.28" height="6.97" fill="#176c4c" opacity="0.82"/>
<line x1="580.85" x2="580.85" y1="104.80" y2="151.16" stroke="#a23a3a" stroke-width="1"/>
<rect x="576.21" y="116.52" width="9.28" height="33.97" fill="#a23a3a" opacity="0.82"/>
<line x1="598.30" x2="598.30" y1="144.09" y2="184.26" stroke="#a23a3a" stroke-width="1"/>
<rect x="593.66" y="150.49" width="9.28" height="20.45" fill="#a23a3a" opacity="0.82"/>
<line x1="615.74" x2="615.74" y1="155.24" y2="190.87" stroke="#a23a3a" stroke-width="1"/>
<rect x="611.10" y="170.68" width="9.28" height="9.04" fill="#a23a3a" opacity="0.82"/>
<line x1="633.19" x2="633.19" y1="176.67" y2="262.07" stroke="#a23a3a" stroke-width="1"/>
<rect x="628.55" y="179.56" width="9.28" height="29.95" fill="#a23a3a" opacity="0.82"/>
<line x1="650.64" x2="650.64" y1="137.74" y2="214.52" stroke="#176c4c" stroke-width="1"/>
<rect x="646.00" y="144.76" width="9.28" height="64.85" fill="#176c4c" opacity="0.82"/>
<line x1="668.09" x2="668.09" y1="136.24" y2="189.63" stroke="#a23a3a" stroke-width="1"/>
<rect x="663.44" y="144.76" width="9.28" height="21.32" fill="#a23a3a" opacity="0.82"/>
<line x1="685.53" x2="685.53" y1="158.75" y2="197.48" stroke="#a23a3a" stroke-width="1"/>
<rect x="680.89" y="166.08" width="9.28" height="29.28" fill="#a23a3a" opacity="0.82"/>
<line x1="702.98" x2="702.98" y1="145.48" y2="203.98" stroke="#176c4c" stroke-width="1"/>
<rect x="698.34" y="163.14" width="9.28" height="32.22" fill="#176c4c" opacity="0.82"/>
<line x1="720.43" x2="720.43" y1="157.56" y2="189.37" stroke="#a23a3a" stroke-width="1"/>
<rect x="715.78" y="163.14" width="9.28" height="1.50" fill="#a23a3a" opacity="0.82"/>
<line x1="737.87" x2="737.87" y1="139.70" y2="166.08" stroke="#176c4c" stroke-width="1"/>
<rect x="733.23" y="153.33" width="9.28" height="10.22" fill="#176c4c" opacity="0.82"/>
<line x1="755.32" x2="755.32" y1="114.45" y2="157.36" stroke="#176c4c" stroke-width="1"/>
<rect x="750.68" y="117.34" width="9.28" height="35.99" fill="#176c4c" opacity="0.82"/>
<line x1="772.77" x2="772.77" y1="84.71" y2="121.27" stroke="#176c4c" stroke-width="1"/>
<rect x="768.13" y="115.48" width="9.28" height="1.76" fill="#176c4c" opacity="0.82"/>
<line x1="790.21" x2="790.21" y1="114.45" y2="148.63" stroke="#a23a3a" stroke-width="1"/>
<rect x="785.57" y="115.48" width="9.28" height="17.97" fill="#a23a3a" opacity="0.82"/>
<line x1="807.66" x2="807.66" y1="130.20" y2="156.74" stroke="#a23a3a" stroke-width="1"/>
<rect x="803.02" y="133.45" width="9.28" height="17.04" fill="#a23a3a" opacity="0.82"/>
<line x1="825.11" x2="825.11" y1="137.84" y2="161.54" stroke="#176c4c" stroke-width="1"/>
<rect x="820.47" y="141.51" width="9.28" height="8.98" fill="#176c4c" opacity="0.82"/>
<line x1="842.55" x2="842.55" y1="129.27" y2="160.56" stroke="#a23a3a" stroke-width="1"/>
<rect x="837.91" y="141.51" width="9.28" height="15.54" fill="#a23a3a" opacity="0.82"/>
<line x1="860.00" x2="860.00" y1="146.05" y2="166.65" stroke="#176c4c" stroke-width="1"/>
<rect x="855.36" y="155.65" width="9.28" height="1.50" fill="#176c4c" opacity="0.82"/>
<line x1="40" x2="860" y1="97.00" y2="97.00" stroke="#111827" stroke-dasharray="5 4"/>
<rect x="40" y="98.29" width="820" height="5.63" fill="#d97706" opacity="0.20"/>
<text x="45" y="91.00" font-family="Arial" font-size="11">C1 4698.62</text>
<text x="45" y="92.29" font-family="Arial" font-size="11">IFVG</text>
</svg>