<svg xmlns="http://www.w3.org/2000/svg" width="900" height="320" viewBox="0 0 900 320">
<rect width="100%" height="100%" fill="#fbfbf8"/>
<text x="40" y="18" font-family="Arial" font-size="13">v3_sample_028 LONG IFVG</text>
<line x1="40.00" x2="40.00" y1="114.93" y2="140.27" stroke="#176c4c" stroke-width="1"/>
<rect x="35.36" y="120.28" width="9.28" height="12.15" fill="#176c4c" opacity="0.82"/>
<line x1="57.45" x2="57.45" y1="101.08" y2="124.20" stroke="#176c4c" stroke-width="1"/>
<rect x="52.81" y="101.48" width="9.28" height="18.81" fill="#176c4c" opacity="0.82"/>
<line x1="74.89" x2="74.89" y1="87.70" y2="110.42" stroke="#a23a3a" stroke-width="1"/>
<rect x="70.25" y="101.48" width="9.28" height="1.50" fill="#a23a3a" opacity="0.82"/>
<line x1="92.34" x2="92.34" y1="94.29" y2="117.54" stroke="#a23a3a" stroke-width="1"/>
<rect x="87.70" y="102.13" width="9.28" height="1.50" fill="#a23a3a" opacity="0.82"/>
<line x1="109.79" x2="109.79" y1="102.59" y2="119.89" stroke="#a23a3a" stroke-width="1"/>
<rect x="105.15" y="102.98" width="9.28" height="13.32" fill="#a23a3a" opacity="0.82"/>
<line x1="127.23" x2="127.23" y1="110.68" y2="148.24" stroke="#a23a3a" stroke-width="1"/>
<rect x="122.59" y="116.30" width="9.28" height="25.67" fill="#a23a3a" opacity="0.82"/>
<line x1="144.68" x2="144.68" y1="137.07" y2="170.05" stroke="#a23a3a" stroke-width="1"/>
<rect x="140.04" y="141.97" width="9.28" height="24.56" fill="#a23a3a" opacity="0.82"/>
<line x1="162.13" x2="162.13" y1="156.73" y2="197.54" stroke="#a23a3a" stroke-width="1"/>
<rect x="157.49" y="166.52" width="9.28" height="25.99" fill="#a23a3a" opacity="0.82"/>
<line x1="179.57" x2="179.57" y1="157.05" y2="194.80" stroke="#176c4c" stroke-width="1"/>
<rect x="174.93" y="178.28" width="9.28" height="14.24" fill="#176c4c" opacity="0.82"/>
<line x1="197.02" x2="197.02" y1="159.67" y2="196.37" stroke="#a23a3a" stroke-width="1"/>
<rect x="192.38" y="178.41" width="9.28" height="3.72" fill="#a23a3a" opacity="0.82"/>
<line x1="214.47" x2="214.47" y1="152.48" y2="182.33" stroke="#176c4c" stroke-width="1"/>
<rect x="209.83" y="165.48" width="9.28" height="16.65" fill="#176c4c" opacity="0.82"/>
<line x1="231.91" x2="231.91" y1="142.23" y2="169.59" stroke="#176c4c" stroke-width="1"/>
<rect x="227.27" y="144.58" width="9.28" height="20.90" fill="#176c4c" opacity="0.82"/>
<line x1="249.36" x2="249.36" y1="126.29" y2="150.91" stroke="#176c4c" stroke-width="1"/>
<rect x="244.72" y="126.55" width="9.28" height="18.03" fill="#176c4c" opacity="0.82"/>
<line x1="266.81" x2="266.81" y1="117.87" y2="129.36" stroke="#176c4c" stroke-width="1"/>
<rect x="262.17" y="118.46" width="9.28" height="8.10" fill="#176c4c" opacity="0.82"/>
<line x1="284.26" x2="284.26" y1="99.45" y2="119.37" stroke="#176c4c" stroke-width="1"/>
<rect x="279.61" y="100.24" width="9.28" height="18.22" fill="#176c4c" opacity="0.82"/>
<line x1="301.70" x2="301.70" y1="96.32" y2="114.86" stroke="#a23a3a" stroke-width="1"/>
<rect x="297.06" y="100.24" width="9.28" height="12.60" fill="#a23a3a" opacity="0.82"/>
<line x1="319.15" x2="319.15" y1="37.93" y2="113.82" stroke="#176c4c" stroke-width="1"/>
<rect x="314.51" y="49.16" width="9.28" height="63.68" fill="#176c4c" opacity="0.82"/>
<line x1="336.60" x2="336.60" y1="46.62" y2="95.27" stroke="#a23a3a" stroke-width="1"/>
<rect x="331.96" y="49.16" width="9.28" height="41.73" fill="#a23a3a" opacity="0.82"/>
<line x1="354.04" x2="354.04" y1="84.95" y2="104.48" stroke="#a23a3a" stroke-width="1"/>
<rect x="349.40" y="90.90" width="9.28" height="11.43" fill="#a23a3a" opacity="0.82"/>
<line x1="371.49" x2="371.49" y1="67.78" y2="103.63" stroke="#176c4c" stroke-width="1"/>
<rect x="366.85" y="84.56" width="9.28" height="17.76" fill="#176c4c" opacity="0.82"/>
<line x1="388.94" x2="388.94" y1="83.52" y2="114.08" stroke="#a23a3a" stroke-width="1"/>
<rect x="384.30" y="84.56" width="9.28" height="24.23" fill="#a23a3a" opacity="0.82"/>
<line x1="406.38" x2="406.38" y1="106.70" y2="136.48" stroke="#a23a3a" stroke-width="1"/>
<rect x="401.74" y="108.79" width="9.28" height="20.90" fill="#a23a3a" opacity="0.82"/>
<line x1="423.83" x2="423.83" y1="122.37" y2="136.87" stroke="#a23a3a" stroke-width="1"/>
<rect x="419.19" y="129.69" width="9.28" height="2.48" fill="#a23a3a" opacity="0.82"/>
<line x1="441.28" x2="441.28" y1="123.62" y2="145.04" stroke="#a23a3a" stroke-width="1"/>
<rect x="436.64" y="132.17" width="9.28" height="1.83" fill="#a23a3a" opacity="0.82"/>
<line x1="458.72" x2="458.72" y1="128.97" y2="145.23" stroke="#a23a3a" stroke-width="1"/>
<rect x="454.08" y="134.00" width="9.28" height="2.29" fill="#a23a3a" opacity="0.82"/>
<line x1="476.17" x2="476.17" y1="127.40" y2="144.06" stroke="#a23a3a" stroke-width="1"/>
<rect x="471.53" y="136.09" width="9.28" height="2.74" fill="#a23a3a" opacity="0.82"/>
<line x1="493.62" x2="493.62" y1="127.86" y2="147.19" stroke="#a23a3a" stroke-width="1"/>
<rect x="488.98" y="138.83" width="9.28" height="5.36" fill="#a23a3a" opacity="0.82"/>
<line x1="511.06" x2="511.06" y1="135.11" y2="161.10" stroke="#a23a3a" stroke-width="1"/>
<rect x="506.42" y="144.25" width="9.28" height="6.60" fill="#a23a3a" opacity="0.82"/>
<line x1="528.51" x2="528.51" y1="138.11" y2="161.43" stroke="#176c4c" stroke-width="1"/>
<rect x="523.87" y="143.34" width="9.28" height="7.51" fill="#176c4c" opacity="0.82"/>
<line x1="545.96" x2="545.96" y1="111.01" y2="144.45" stroke="#176c4c" stroke-width="1"/>
<rect x="541.32" y="112.19" width="9.28" height="31.15" fill="#176c4c" opacity="0.82"/>
<line x1="563.40" x2="563.40" y1="102.72" y2="133.02" stroke="#a23a3a" stroke-width="1"/>
<rect x="558.76" y="112.06" width="9.28" height="6.53" fill="#a23a3a" opacity="0.82"/>
<line x1="580.85" x2="580.85" y1="102.26" y2="123.94" stroke="#176c4c" stroke-width="1"/>
<rect x="576.21" y="115.39" width="9.28" height="3.20" fill="#176c4c" opacity="0.82"/>
<line x1="598.30" x2="598.30" y1="107.68" y2="124.79" stroke="#a23a3a" stroke-width="1"/>
<rect x="593.66" y="115.39" width="9.28" height="1.50" fill="#a23a3a" opacity="0.82"/>
<line x1="615.74" x2="615.74" y1="85.34" y2="117.80" stroke="#176c4c" stroke-width="1"/>
<rect x="611.10" y="90.96" width="9.28" height="25.01" fill="#176c4c" opacity="0.82"/>
<line x1="633.19" x2="633.19" y1="71.17" y2="91.09" stroke="#176c4c" stroke-width="1"/>
<rect x="628.55" y="74.57" width="9.28" height="16.39" fill="#176c4c" opacity="0.82"/>
<line x1="650.64" x2="650.64" y1="73.92" y2="99.39" stroke="#a23a3a" stroke-width="1"/>
<rect x="646.00" y="74.57" width="9.28" height="9.67" fill="#a23a3a" opacity="0.82"/>
<line x1="668.09" x2="668.09" y1="70.72" y2="90.83" stroke="#a23a3a" stroke-width="1"/>
<rect x="663.44" y="84.23" width="9.28" height="6.60" fill="#a23a3a" opacity="0.82"/>
<line x1="685.53" x2="685.53" y1="90.83" y2="106.50" stroke="#a23a3a" stroke-width="1"/>
<rect x="680.89" y="90.83" width="9.28" height="8.03" fill="#a23a3a" opacity="0.82"/>
<line x1="702.98" x2="702.98" y1="98.86" y2="122.96" stroke="#a23a3a" stroke-width="1"/>
<rect x="698.34" y="98.86" width="9.28" height="24.10" fill="#a23a3a" opacity="0.82"/>
<line x1="720.43" x2="720.43" y1="105.53" y2="139.49" stroke="#176c4c" stroke-width="1"/>
<rect x="715.78" y="108.99" width="9.28" height="13.98" fill="#176c4c" opacity="0.82"/>
<line x1="737.87" x2="737.87" y1="95.79" y2="120.74" stroke="#a23a3a" stroke-width="1"/>
<rect x="733.23" y="108.99" width="9.28" height="2.94" fill="#a23a3a" opacity="0.82"/>
<line x1="755.32" x2="755.32" y1="111.73" y2="148.82" stroke="#a23a3a" stroke-width="1"/>
<rect x="750.68" y="111.93" width="9.28" height="33.83" fill="#a23a3a" opacity="0.82"/>
<line x1="772.77" x2="772.77" y1="143.86" y2="176.12" stroke="#a23a3a" stroke-width="1"/>
<rect x="768.13" y="145.75" width="9.28" height="13.85" fill="#a23a3a" opacity="0.82"/>
<line x1="790.21" x2="790.21" y1="150.00" y2="205.25" stroke="#a23a3a" stroke-width="1"/>
<rect x="785.57" y="159.60" width="9.28" height="27.36" fill="#a23a3a" opacity="0.82"/>
<line x1="807.66" x2="807.66" y1="179.13" y2="216.22" stroke="#a23a3a" stroke-width="1"/>
<rect x="803.02" y="186.90" width="9.28" height="19.27" fill="#a23a3a" opacity="0.82"/>
<line x1="825.11" x2="825.11" y1="188.92" y2="262.07" stroke="#a23a3a" stroke-width="1"/>
<rect x="820.47" y="206.17" width="9.28" height="14.43" fill="#a23a3a" opacity="0.82"/>
<line x1="842.55" x2="842.55" y1="197.54" y2="254.75" stroke="#a23a3a" stroke-width="1"/>
<rect x="837.91" y="220.66" width="9.28" height="22.20" fill="#a23a3a" opacity="0.82"/>
<line x1="860.00" x2="860.00" y1="211.65" y2="251.68" stroke="#176c4c" stroke-width="1"/>
<rect x="855.36" y="217.66" width="9.28" height="25.21" fill="#176c4c" opacity="0.82"/>
<line x1="40" x2="860" y1="115.19" y2="115.19" stroke="#111827" stroke-dasharray="5 4"/>
<rect x="40" y="132.95" width="820" height="18.68" fill="#d97706" opacity="0.20"/>
<text x="45" y="109.19" font-family="Arial" font-size="11">C1 4698.62</text>
<text x="45" y="126.95" font-family="Arial" font-size="11">IFVG</text>
</svg>