<svg xmlns="http://www.w3.org/2000/svg" width="900" height="320" viewBox="0 0 900 320">
<rect width="100%" height="100%" fill="#fbfbf8"/>
<text x="40" y="18" font-family="Arial" font-size="13">v3_sample_027 LONG FVG</text>
<line x1="40.00" x2="40.00" y1="71.48" y2="148.82" stroke="#a23a3a" stroke-width="1"/>
<rect x="35.36" y="77.29" width="9.28" height="67.40" fill="#a23a3a" opacity="0.82"/>
<line x1="57.45" x2="57.45" y1="104.05" y2="145.47" stroke="#176c4c" stroke-width="1"/>
<rect x="52.81" y="124.22" width="9.28" height="20.17" fill="#176c4c" opacity="0.82"/>
<line x1="74.89" x2="74.89" y1="105.03" y2="149.70" stroke="#176c4c" stroke-width="1"/>
<rect x="70.25" y="110.45" width="9.28" height="14.76" fill="#176c4c" opacity="0.82"/>
<line x1="92.34" x2="92.34" y1="100.21" y2="128.26" stroke="#176c4c" stroke-width="1"/>
<rect x="87.70" y="108.38" width="9.28" height="2.07" fill="#176c4c" opacity="0.82"/>
<line x1="109.79" x2="109.79" y1="101.00" y2="157.48" stroke="#a23a3a" stroke-width="1"/>
<rect x="105.15" y="108.38" width="9.28" height="28.63" fill="#a23a3a" opacity="0.82"/>
<line x1="127.23" x2="127.23" y1="136.23" y2="181.98" stroke="#a23a3a" stroke-width="1"/>
<rect x="122.59" y="137.01" width="9.28" height="41.13" fill="#a23a3a" opacity="0.82"/>
<line x1="144.68" x2="144.68" y1="155.21" y2="190.83" stroke="#a23a3a" stroke-width="1"/>
<rect x="140.04" y="178.14" width="9.28" height="11.02" fill="#a23a3a" opacity="0.82"/>
<line x1="162.13" x2="162.13" y1="161.32" y2="198.31" stroke="#a23a3a" stroke-width="1"/>
<rect x="157.49" y="189.16" width="9.28" height="5.21" fill="#a23a3a" opacity="0.82"/>
<line x1="179.57" x2="179.57" y1="173.02" y2="210.51" stroke="#176c4c" stroke-width="1"/>
<rect x="174.93" y="173.02" width="9.28" height="21.35" fill="#176c4c" opacity="0.82"/>
<line x1="197.02" x2="197.02" y1="168.10" y2="249.38" stroke="#a23a3a" stroke-width="1"/>
<rect x="192.38" y="173.02" width="9.28" height="75.37" fill="#a23a3a" opacity="0.82"/>
<line x1="214.47" x2="214.47" y1="204.02" y2="262.07" stroke="#176c4c" stroke-width="1"/>
<rect x="209.83" y="219.56" width="9.28" height="28.14" fill="#176c4c" opacity="0.82"/>
<line x1="231.91" x2="231.91" y1="201.66" y2="248.79" stroke="#176c4c" stroke-width="1"/>
<rect x="227.27" y="210.31" width="9.28" height="9.25" fill="#176c4c" opacity="0.82"/>
<line x1="249.36" x2="249.36" y1="204.21" y2="247.41" stroke="#a23a3a" stroke-width="1"/>
<rect x="244.72" y="210.31" width="9.28" height="32.47" fill="#a23a3a" opacity="0.82"/>
<line x1="266.81" x2="266.81" y1="194.57" y2="247.51" stroke="#176c4c" stroke-width="1"/>
<rect x="262.17" y="215.04" width="9.28" height="27.45" fill="#176c4c" opacity="0.82"/>
<line x1="284.26" x2="284.26" y1="195.16" y2="227.73" stroke="#176c4c" stroke-width="1"/>
<rect x="279.61" y="198.80" width="9.28" height="16.23" fill="#176c4c" opacity="0.82"/>
<line x1="301.70" x2="301.70" y1="178.24" y2="199.10" stroke="#176c4c" stroke-width="1"/>
<rect x="297.06" y="187.88" width="9.28" height="10.92" fill="#176c4c" opacity="0.82"/>
<line x1="319.15" x2="319.15" y1="132.68" y2="188.47" stroke="#176c4c" stroke-width="1"/>
<rect x="314.51" y="133.77" width="9.28" height="54.12" fill="#176c4c" opacity="0.82"/>
<line x1="336.60" x2="336.60" y1="98.25" y2="137.41" stroke="#176c4c" stroke-width="1"/>
<rect x="331.96" y="104.84" width="9.28" height="28.93" fill="#176c4c" opacity="0.82"/>
<line x1="354.04" x2="354.04" y1="82.01" y2="110.15" stroke="#176c4c" stroke-width="1"/>
<rect x="349.40" y="98.74" width="9.28" height="5.71" fill="#176c4c" opacity="0.82"/>
<line x1="371.49" x2="371.49" y1="87.52" y2="107.20" stroke="#a23a3a" stroke-width="1"/>
<rect x="366.85" y="98.74" width="9.28" height="2.26" fill="#a23a3a" opacity="0.82"/>
<line x1="388.94" x2="388.94" y1="91.95" y2="118.02" stroke="#a23a3a" stroke-width="1"/>
<rect x="384.30" y="100.80" width="9.28" height="13.38" fill="#a23a3a" opacity="0.82"/>
<line x1="406.38" x2="406.38" y1="114.09" y2="170.96" stroke="#a23a3a" stroke-width="1"/>
<rect x="401.74" y="114.19" width="9.28" height="52.05" fill="#a23a3a" opacity="0.82"/>
<line x1="423.83" x2="423.83" y1="162.10" y2="195.85" stroke="#a23a3a" stroke-width="1"/>
<rect x="419.19" y="166.23" width="9.28" height="12.89" fill="#a23a3a" opacity="0.82"/>
<line x1="441.28" x2="441.28" y1="158.56" y2="184.24" stroke="#176c4c" stroke-width="1"/>
<rect x="436.64" y="164.46" width="9.28" height="15.05" fill="#176c4c" opacity="0.82"/>
<line x1="458.72" x2="458.72" y1="150.59" y2="182.37" stroke="#a23a3a" stroke-width="1"/>
<rect x="454.08" y="164.46" width="9.28" height="8.66" fill="#a23a3a" opacity="0.82"/>
<line x1="476.17" x2="476.17" y1="154.72" y2="180.80" stroke="#176c4c" stroke-width="1"/>
<rect x="471.53" y="156.10" width="9.28" height="17.02" fill="#176c4c" opacity="0.82"/>
<line x1="493.62" x2="493.62" y1="114.78" y2="159.64" stroke="#176c4c" stroke-width="1"/>
<rect x="488.98" y="118.12" width="9.28" height="37.98" fill="#176c4c" opacity="0.82"/>
<line x1="511.06" x2="511.06" y1="106.61" y2="129.63" stroke="#a23a3a" stroke-width="1"/>
<rect x="506.42" y="118.12" width="9.28" height="8.56" fill="#a23a3a" opacity="0.82"/>
<line x1="528.51" x2="528.51" y1="122.84" y2="139.18" stroke="#176c4c" stroke-width="1"/>
<rect x="523.87" y="126.19" width="9.28" height="1.50" fill="#176c4c" opacity="0.82"/>
<line x1="545.96" x2="545.96" y1="107.10" y2="137.80" stroke="#a23a3a" stroke-width="1"/>
<rect x="541.32" y="126.19" width="9.28" height="10.53" fill="#a23a3a" opacity="0.82"/>
<line x1="563.40" x2="563.40" y1="116.15" y2="161.22" stroke="#176c4c" stroke-width="1"/>
<rect x="558.76" y="119.60" width="9.28" height="17.12" fill="#176c4c" opacity="0.82"/>
<line x1="580.85" x2="580.85" y1="124.22" y2="165.25" stroke="#a23a3a" stroke-width="1"/>
<rect x="576.21" y="124.22" width="9.28" height="28.63" fill="#a23a3a" opacity="0.82"/>
<line x1="598.30" x2="598.30" y1="125.70" y2="155.81" stroke="#176c4c" stroke-width="1"/>
<rect x="593.66" y="125.80" width="9.28" height="27.06" fill="#176c4c" opacity="0.82"/>
<line x1="615.74" x2="615.74" y1="123.04" y2="147.34" stroke="#176c4c" stroke-width="1"/>
<rect x="611.10" y="124.91" width="9.28" height="1.50" fill="#176c4c" opacity="0.82"/>
<line x1="633.19" x2="633.19" y1="121.56" y2="154.33" stroke="#a23a3a" stroke-width="1"/>
<rect x="628.55" y="124.91" width="9.28" height="18.01" fill="#a23a3a" opacity="0.82"/>
<line x1="650.64" x2="650.64" y1="75.32" y2="155.12" stroke="#176c4c" stroke-width="1"/>
<rect x="646.00" y="76.30" width="9.28" height="66.41" fill="#176c4c" opacity="0.82"/>
<line x1="668.09" x2="668.09" y1="71.48" y2="104.84" stroke="#a23a3a" stroke-width="1"/>
<rect x="663.44" y="76.30" width="9.28" height="19.97" fill="#a23a3a" opacity="0.82"/>
<line x1="685.53" x2="685.53" y1="67.55" y2="100.02" stroke="#176c4c" stroke-width="1"/>
<rect x="680.89" y="86.64" width="9.28" height="9.84" fill="#176c4c" opacity="0.82"/>
<line x1="702.98" x2="702.98" y1="84.18" y2="131.60" stroke="#a23a3a" stroke-width="1"/>
<rect x="698.34" y="87.03" width="9.28" height="40.34" fill="#a23a3a" opacity="0.82"/>
<line x1="720.43" x2="720.43" y1="102.08" y2="151.48" stroke="#a23a3a" stroke-width="1"/>
<rect x="715.78" y="127.17" width="9.28" height="18.10" fill="#a23a3a" opacity="0.82"/>
<line x1="737.87" x2="737.87" y1="139.08" y2="159.64" stroke="#a23a3a" stroke-width="1"/>
<rect x="733.23" y="145.28" width="9.28" height="13.28" fill="#a23a3a" opacity="0.82"/>
<line x1="755.32" x2="755.32" y1="113.79" y2="201.75" stroke="#176c4c" stroke-width="1"/>
<rect x="750.68" y="135.04" width="9.28" height="24.40" fill="#176c4c" opacity="0.82"/>
<line x1="772.77" x2="772.77" y1="117.73" y2="146.56" stroke="#176c4c" stroke-width="1"/>
<rect x="768.13" y="128.45" width="9.28" height="6.59" fill="#176c4c" opacity="0.82"/>
<line x1="790.21" x2="790.21" y1="116.05" y2="174.40" stroke="#a23a3a" stroke-width="1"/>
<rect x="785.57" y="128.45" width="9.28" height="41.72" fill="#a23a3a" opacity="0.82"/>
<line x1="807.66" x2="807.66" y1="140.06" y2="170.27" stroke="#176c4c" stroke-width="1"/>
<rect x="803.02" y="154.72" width="9.28" height="15.45" fill="#176c4c" opacity="0.82"/>
<line x1="825.11" x2="825.11" y1="128.06" y2="175.48" stroke="#176c4c" stroke-width="1"/>
<rect x="820.47" y="144.59" width="9.28" height="10.33" fill="#176c4c" opacity="0.82"/>
<line x1="842.55" x2="842.55" y1="86.64" y2="145.28" stroke="#176c4c" stroke-width="1"/>
<rect x="837.91" y="99.62" width="9.28" height="44.97" fill="#176c4c" opacity="0.82"/>
<line x1="860.00" x2="860.00" y1="37.93" y2="105.82" stroke="#176c4c" stroke-width="1"/>
<rect x="855.36" y="45.02" width="9.28" height="54.61" fill="#176c4c" opacity="0.82"/>
<line x1="40" x2="860" y1="153.35" y2="153.35" stroke="#111827" stroke-dasharray="5 4"/>
<rect x="40" y="188.47" width="820" height="6.69" fill="#d97706" opacity="0.20"/>
<text x="45" y="147.35" font-family="Arial" font-size="11">C1 4698.62</text>
<text x="45" y="182.47" font-family="Arial" font-size="11">FVG</text>
</svg>