<svg xmlns="http://www.w3.org/2000/svg" width="900" height="320" viewBox="0 0 900 320">
<rect width="100%" height="100%" fill="#fbfbf8"/>
<text x="40" y="18" font-family="Arial" font-size="13">v3_sample_020 LONG IFVG</text>
<line x1="40.00" x2="40.00" y1="69.67" y2="87.49" stroke="#176c4c" stroke-width="1"/>
<rect x="35.36" y="74.85" width="9.28" height="1.68" fill="#176c4c" opacity="0.82"/>
<line x1="57.45" x2="57.45" y1="69.62" y2="87.88" stroke="#176c4c" stroke-width="1"/>
<rect x="52.81" y="70.21" width="9.28" height="4.64" fill="#176c4c" opacity="0.82"/>
<line x1="74.89" x2="74.89" y1="54.81" y2="79.84" stroke="#176c4c" stroke-width="1"/>
<rect x="70.25" y="56.34" width="9.28" height="13.87" fill="#176c4c" opacity="0.82"/>
<line x1="92.34" x2="92.34" y1="42.92" y2="64.09" stroke="#176c4c" stroke-width="1"/>
<rect x="87.70" y="46.67" width="9.28" height="9.67" fill="#176c4c" opacity="0.82"/>
<line x1="109.79" x2="109.79" y1="37.93" y2="60.54" stroke="#a23a3a" stroke-width="1"/>
<rect x="105.15" y="46.67" width="9.28" height="7.11" fill="#a23a3a" opacity="0.82"/>
<line x1="127.23" x2="127.23" y1="51.75" y2="89.91" stroke="#a23a3a" stroke-width="1"/>
<rect x="122.59" y="53.87" width="9.28" height="11.94" fill="#a23a3a" opacity="0.82"/>
<line x1="144.68" x2="144.68" y1="61.87" y2="80.38" stroke="#a23a3a" stroke-width="1"/>
<rect x="140.04" y="65.82" width="9.28" height="13.03" fill="#a23a3a" opacity="0.82"/>
<line x1="162.13" x2="162.13" y1="74.41" y2="94.25" stroke="#a23a3a" stroke-width="1"/>
<rect x="157.49" y="78.06" width="9.28" height="14.36" fill="#a23a3a" opacity="0.82"/>
<line x1="179.57" x2="179.57" y1="88.38" y2="115.23" stroke="#a23a3a" stroke-width="1"/>
<rect x="174.93" y="92.42" width="9.28" height="13.47" fill="#a23a3a" opacity="0.82"/>
<line x1="197.02" x2="197.02" y1="82.40" y2="112.12" stroke="#176c4c" stroke-width="1"/>
<rect x="192.38" y="83.49" width="9.28" height="22.41" fill="#176c4c" opacity="0.82"/>
<line x1="214.47" x2="214.47" y1="77.96" y2="92.13" stroke="#a23a3a" stroke-width="1"/>
<rect x="209.83" y="83.49" width="9.28" height="2.42" fill="#a23a3a" opacity="0.82"/>
<line x1="231.91" x2="231.91" y1="85.76" y2="115.52" stroke="#a23a3a" stroke-width="1"/>
<rect x="227.27" y="85.76" width="9.28" height="18.46" fill="#a23a3a" opacity="0.82"/>
<line x1="249.36" x2="249.36" y1="97.31" y2="132.65" stroke="#a23a3a" stroke-width="1"/>
<rect x="244.72" y="103.48" width="9.28" height="15.15" fill="#a23a3a" opacity="0.82"/>
<line x1="266.81" x2="266.81" y1="115.82" y2="133.34" stroke="#a23a3a" stroke-width="1"/>
<rect x="262.17" y="118.63" width="9.28" height="1.50" fill="#a23a3a" opacity="0.82"/>
<line x1="284.26" x2="284.26" y1="102.39" y2="130.03" stroke="#a23a3a" stroke-width="1"/>
<rect x="279.61" y="119.03" width="9.28" height="1.50" fill="#a23a3a" opacity="0.82"/>
<line x1="301.70" x2="301.70" y1="83.24" y2="122.19" stroke="#176c4c" stroke-width="1"/>
<rect x="297.06" y="97.51" width="9.28" height="22.56" fill="#176c4c" opacity="0.82"/>
<line x1="319.15" x2="319.15" y1="85.36" y2="104.52" stroke="#a23a3a" stroke-width="1"/>
<rect x="314.51" y="97.51" width="9.28" height="5.23" fill="#a23a3a" opacity="0.82"/>
<line x1="336.60" x2="336.60" y1="99.28" y2="112.22" stroke="#176c4c" stroke-width="1"/>
<rect x="331.96" y="99.83" width="9.28" height="3.01" fill="#176c4c" opacity="0.82"/>
<line x1="354.04" x2="354.04" y1="87.49" y2="131.17" stroke="#a23a3a" stroke-width="1"/>
<rect x="349.40" y="99.83" width="9.28" height="27.30" fill="#a23a3a" opacity="0.82"/>
<line x1="371.49" x2="371.49" y1="122.48" y2="152.99" stroke="#a23a3a" stroke-width="1"/>
<rect x="366.85" y="127.12" width="9.28" height="9.97" fill="#a23a3a" opacity="0.82"/>
<line x1="388.94" x2="388.94" y1="127.12" y2="144.55" stroke="#176c4c" stroke-width="1"/>
<rect x="384.30" y="133.29" width="9.28" height="3.80" fill="#176c4c" opacity="0.82"/>
<line x1="406.38" x2="406.38" y1="121.54" y2="151.80" stroke="#a23a3a" stroke-width="1"/>
<rect x="401.74" y="133.29" width="9.28" height="17.23" fill="#a23a3a" opacity="0.82"/>
<line x1="423.83" x2="423.83" y1="120.66" y2="153.08" stroke="#176c4c" stroke-width="1"/>
<rect x="419.19" y="126.38" width="9.28" height="24.14" fill="#176c4c" opacity="0.82"/>
<line x1="441.28" x2="441.28" y1="113.15" y2="135.96" stroke="#176c4c" stroke-width="1"/>
<rect x="436.64" y="119.18" width="9.28" height="7.21" fill="#176c4c" opacity="0.82"/>
<line x1="458.72" x2="458.72" y1="118.73" y2="140.35" stroke="#a23a3a" stroke-width="1"/>
<rect x="454.08" y="119.18" width="9.28" height="10.56" fill="#a23a3a" opacity="0.82"/>
<line x1="476.17" x2="476.17" y1="118.63" y2="157.23" stroke="#a23a3a" stroke-width="1"/>
<rect x="471.53" y="129.74" width="9.28" height="25.62" fill="#a23a3a" opacity="0.82"/>
<line x1="493.62" x2="493.62" y1="134.53" y2="160.14" stroke="#176c4c" stroke-width="1"/>
<rect x="488.98" y="137.09" width="9.28" height="18.26" fill="#176c4c" opacity="0.82"/>
<line x1="511.06" x2="511.06" y1="116.90" y2="146.03" stroke="#176c4c" stroke-width="1"/>
<rect x="506.42" y="123.22" width="9.28" height="13.87" fill="#176c4c" opacity="0.82"/>
<line x1="528.51" x2="528.51" y1="118.34" y2="140.00" stroke="#a23a3a" stroke-width="1"/>
<rect x="523.87" y="123.22" width="9.28" height="10.61" fill="#a23a3a" opacity="0.82"/>
<line x1="545.96" x2="545.96" y1="128.60" y2="168.63" stroke="#a23a3a" stroke-width="1"/>
<rect x="541.32" y="133.84" width="9.28" height="20.88" fill="#a23a3a" opacity="0.82"/>
<line x1="563.40" x2="563.40" y1="154.32" y2="181.86" stroke="#a23a3a" stroke-width="1"/>
<rect x="558.76" y="154.71" width="9.28" height="16.09" fill="#a23a3a" opacity="0.82"/>
<line x1="580.85" x2="580.85" y1="116.41" y2="171.74" stroke="#176c4c" stroke-width="1"/>
<rect x="576.21" y="133.44" width="9.28" height="37.36" fill="#176c4c" opacity="0.82"/>
<line x1="598.30" x2="598.30" y1="124.65" y2="149.33" stroke="#176c4c" stroke-width="1"/>
<rect x="593.66" y="132.75" width="9.28" height="1.50" fill="#176c4c" opacity="0.82"/>
<line x1="615.74" x2="615.74" y1="129.84" y2="147.41" stroke="#a23a3a" stroke-width="1"/>
<rect x="611.10" y="132.75" width="9.28" height="12.34" fill="#a23a3a" opacity="0.82"/>
<line x1="633.19" x2="633.19" y1="140.15" y2="199.14" stroke="#a23a3a" stroke-width="1"/>
<rect x="628.55" y="145.09" width="9.28" height="50.59" fill="#a23a3a" opacity="0.82"/>
<line x1="650.64" x2="650.64" y1="193.61" y2="216.07" stroke="#a23a3a" stroke-width="1"/>
<rect x="646.00" y="195.68" width="9.28" height="12.83" fill="#a23a3a" opacity="0.82"/>
<line x1="668.09" x2="668.09" y1="202.10" y2="259.35" stroke="#a23a3a" stroke-width="1"/>
<rect x="663.44" y="208.51" width="9.28" height="46.20" fill="#a23a3a" opacity="0.82"/>
<line x1="685.53" x2="685.53" y1="230.92" y2="262.07" stroke="#176c4c" stroke-width="1"/>
<rect x="680.89" y="247.06" width="9.28" height="7.65" fill="#176c4c" opacity="0.82"/>
<line x1="702.98" x2="702.98" y1="213.89" y2="247.21" stroke="#176c4c" stroke-width="1"/>
<rect x="698.34" y="225.84" width="9.28" height="21.17" fill="#176c4c" opacity="0.82"/>
<line x1="720.43" x2="720.43" y1="209.30" y2="234.13" stroke="#176c4c" stroke-width="1"/>
<rect x="715.78" y="210.29" width="9.28" height="15.55" fill="#176c4c" opacity="0.82"/>
<line x1="737.87" x2="737.87" y1="206.94" y2="237.69" stroke="#a23a3a" stroke-width="1"/>
<rect x="733.23" y="210.29" width="9.28" height="19.45" fill="#a23a3a" opacity="0.82"/>
<line x1="755.32" x2="755.32" y1="193.26" y2="238.82" stroke="#176c4c" stroke-width="1"/>
<rect x="750.68" y="193.46" width="9.28" height="36.28" fill="#176c4c" opacity="0.82"/>
<line x1="772.77" x2="772.77" y1="186.45" y2="213.75" stroke="#a23a3a" stroke-width="1"/>
<rect x="768.13" y="193.46" width="9.28" height="12.04" fill="#a23a3a" opacity="0.82"/>
<line x1="790.21" x2="790.21" y1="201.21" y2="212.56" stroke="#176c4c" stroke-width="1"/>
<rect x="785.57" y="203.38" width="9.28" height="2.12" fill="#176c4c" opacity="0.82"/>
<line x1="807.66" x2="807.66" y1="192.92" y2="211.92" stroke="#a23a3a" stroke-width="1"/>
<rect x="803.02" y="203.38" width="9.28" height="7.21" fill="#a23a3a" opacity="0.82"/>
<line x1="825.11" x2="825.11" y1="208.51" y2="227.52" stroke="#a23a3a" stroke-width="1"/>
<rect x="820.47" y="210.59" width="9.28" height="16.58" fill="#a23a3a" opacity="0.82"/>
<line x1="842.55" x2="842.55" y1="216.86" y2="244.05" stroke="#a23a3a" stroke-width="1"/>
<rect x="837.91" y="227.17" width="9.28" height="13.28" fill="#a23a3a" opacity="0.82"/>
<line x1="860.00" x2="860.00" y1="234.13" y2="257.82" stroke="#a23a3a" stroke-width="1"/>
<rect x="855.36" y="240.45" width="9.28" height="7.75" fill="#a23a3a" opacity="0.82"/>
<line x1="40" x2="860" y1="107.13" y2="107.13" stroke="#111827" stroke-dasharray="5 4"/>
<rect x="40" y="126.48" width="820" height="28.58" fill="#d97706" opacity="0.20"/>
<text x="45" y="101.13" font-family="Arial" font-size="11">C1 4698.62</text>
<text x="45" y="120.48" font-family="Arial" font-size="11">IFVG</text>
</svg>