<svg xmlns="http://www.w3.org/2000/svg" width="900" height="320" viewBox="0 0 900 320">
<rect width="100%" height="100%" fill="#fbfbf8"/>
<text x="40" y="18" font-family="Arial" font-size="13">v3_sample_016 SHORT IFVG</text>
<line x1="40.00" x2="40.00" y1="182.22" y2="216.83" stroke="#176c4c" stroke-width="1"/>
<rect x="35.36" y="192.26" width="9.28" height="1.50" fill="#176c4c" opacity="0.82"/>
<line x1="57.45" x2="57.45" y1="118.94" y2="197.38" stroke="#176c4c" stroke-width="1"/>
<rect x="52.81" y="143.51" width="9.28" height="48.76" fill="#176c4c" opacity="0.82"/>
<line x1="74.89" x2="74.89" y1="106.07" y2="151.06" stroke="#176c4c" stroke-width="1"/>
<rect x="70.25" y="116.18" width="9.28" height="27.64" fill="#176c4c" opacity="0.82"/>
<line x1="92.34" x2="92.34" y1="103.52" y2="136.60" stroke="#176c4c" stroke-width="1"/>
<rect x="87.70" y="112.28" width="9.28" height="3.90" fill="#176c4c" opacity="0.82"/>
<line x1="109.79" x2="109.79" y1="86.62" y2="116.76" stroke="#176c4c" stroke-width="1"/>
<rect x="105.15" y="108.06" width="9.28" height="4.22" fill="#176c4c" opacity="0.82"/>
<line x1="127.23" x2="127.23" y1="49.32" y2="118.68" stroke="#176c4c" stroke-width="1"/>
<rect x="122.59" y="58.21" width="9.28" height="49.84" fill="#176c4c" opacity="0.82"/>
<line x1="144.68" x2="144.68" y1="46.38" y2="110.11" stroke="#a23a3a" stroke-width="1"/>
<rect x="140.04" y="58.21" width="9.28" height="15.87" fill="#a23a3a" opacity="0.82"/>
<line x1="162.13" x2="162.13" y1="51.62" y2="111.83" stroke="#a23a3a" stroke-width="1"/>
<rect x="157.49" y="74.08" width="9.28" height="23.55" fill="#a23a3a" opacity="0.82"/>
<line x1="179.57" x2="179.57" y1="60.77" y2="107.03" stroke="#176c4c" stroke-width="1"/>
<rect x="174.93" y="70.82" width="9.28" height="26.81" fill="#176c4c" opacity="0.82"/>
<line x1="197.02" x2="197.02" y1="57.64" y2="93.34" stroke="#a23a3a" stroke-width="1"/>
<rect x="192.38" y="70.56" width="9.28" height="13.50" fill="#a23a3a" opacity="0.82"/>
<line x1="214.47" x2="214.47" y1="72.80" y2="101.85" stroke="#176c4c" stroke-width="1"/>
<rect x="209.83" y="78.37" width="9.28" height="5.69" fill="#176c4c" opacity="0.82"/>
<line x1="231.91" x2="231.91" y1="66.53" y2="105.63" stroke="#a23a3a" stroke-width="1"/>
<rect x="227.27" y="78.37" width="9.28" height="21.43" fill="#a23a3a" opacity="0.82"/>
<line x1="249.36" x2="249.36" y1="96.54" y2="143.57" stroke="#a23a3a" stroke-width="1"/>
<rect x="244.72" y="99.80" width="9.28" height="1.50" fill="#a23a3a" opacity="0.82"/>
<line x1="266.81" x2="266.81" y1="99.10" y2="139.03" stroke="#a23a3a" stroke-width="1"/>
<rect x="262.17" y="100.57" width="9.28" height="31.22" fill="#a23a3a" opacity="0.82"/>
<line x1="284.26" x2="284.26" y1="105.63" y2="169.74" stroke="#176c4c" stroke-width="1"/>
<rect x="279.61" y="110.43" width="9.28" height="21.37" fill="#176c4c" opacity="0.82"/>
<line x1="301.70" x2="301.70" y1="95.13" y2="122.26" stroke="#176c4c" stroke-width="1"/>
<rect x="297.06" y="107.80" width="9.28" height="2.62" fill="#176c4c" opacity="0.82"/>
<line x1="319.15" x2="319.15" y1="49.90" y2="112.67" stroke="#176c4c" stroke-width="1"/>
<rect x="314.51" y="50.73" width="9.28" height="57.07" fill="#176c4c" opacity="0.82"/>
<line x1="336.60" x2="336.60" y1="42.60" y2="75.30" stroke="#a23a3a" stroke-width="1"/>
<rect x="331.96" y="50.73" width="9.28" height="14.97" fill="#a23a3a" opacity="0.82"/>
<line x1="354.04" x2="354.04" y1="37.93" y2="103.90" stroke="#a23a3a" stroke-width="1"/>
<rect x="349.40" y="64.80" width="9.28" height="32.18" fill="#a23a3a" opacity="0.82"/>
<line x1="371.49" x2="371.49" y1="94.24" y2="128.53" stroke="#a23a3a" stroke-width="1"/>
<rect x="366.85" y="96.99" width="9.28" height="25.47" fill="#a23a3a" opacity="0.82"/>
<line x1="388.94" x2="388.94" y1="117.02" y2="146.77" stroke="#a23a3a" stroke-width="1"/>
<rect x="384.30" y="122.26" width="9.28" height="1.50" fill="#a23a3a" opacity="0.82"/>
<line x1="406.38" x2="406.38" y1="118.17" y2="148.05" stroke="#a23a3a" stroke-width="1"/>
<rect x="401.74" y="123.22" width="9.28" height="5.31" fill="#a23a3a" opacity="0.82"/>
<line x1="423.83" x2="423.83" y1="123.35" y2="262.07" stroke="#a23a3a" stroke-width="1"/>
<rect x="419.19" y="128.53" width="9.28" height="28.73" fill="#a23a3a" opacity="0.82"/>
<line x1="441.28" x2="441.28" y1="155.79" y2="216.32" stroke="#a23a3a" stroke-width="1"/>
<rect x="436.64" y="157.26" width="9.28" height="22.91" fill="#a23a3a" opacity="0.82"/>
<line x1="458.72" x2="458.72" y1="167.44" y2="237.37" stroke="#a23a3a" stroke-width="1"/>
<rect x="454.08" y="180.17" width="9.28" height="47.28" fill="#a23a3a" opacity="0.82"/>
<line x1="476.17" x2="476.17" y1="207.43" y2="243.58" stroke="#a23a3a" stroke-width="1"/>
<rect x="471.53" y="227.45" width="9.28" height="2.94" fill="#a23a3a" opacity="0.82"/>
<line x1="493.62" x2="493.62" y1="197.12" y2="259.64" stroke="#176c4c" stroke-width="1"/>
<rect x="488.98" y="225.34" width="9.28" height="5.05" fill="#176c4c" opacity="0.82"/>
<line x1="511.06" x2="511.06" y1="213.44" y2="252.34" stroke="#a23a3a" stroke-width="1"/>
<rect x="506.42" y="225.34" width="9.28" height="2.05" fill="#a23a3a" opacity="0.82"/>
<line x1="528.51" x2="528.51" y1="183.88" y2="238.71" stroke="#176c4c" stroke-width="1"/>
<rect x="523.87" y="190.15" width="9.28" height="37.24" fill="#176c4c" opacity="0.82"/>
<line x1="545.96" x2="545.96" y1="153.87" y2="196.23" stroke="#176c4c" stroke-width="1"/>
<rect x="541.32" y="162.38" width="9.28" height="27.90" fill="#176c4c" opacity="0.82"/>
<line x1="563.40" x2="563.40" y1="155.41" y2="191.88" stroke="#a23a3a" stroke-width="1"/>
<rect x="558.76" y="162.38" width="9.28" height="24.95" fill="#a23a3a" opacity="0.82"/>
<line x1="580.85" x2="580.85" y1="184.90" y2="210.88" stroke="#a23a3a" stroke-width="1"/>
<rect x="576.21" y="187.33" width="9.28" height="14.33" fill="#a23a3a" opacity="0.82"/>
<line x1="598.30" x2="598.30" y1="186.06" y2="216.96" stroke="#a23a3a" stroke-width="1"/>
<rect x="593.66" y="201.67" width="9.28" height="10.43" fill="#a23a3a" opacity="0.82"/>
<line x1="615.74" x2="615.74" y1="203.40" y2="228.41" stroke="#a23a3a" stroke-width="1"/>
<rect x="611.10" y="212.42" width="9.28" height="2.18" fill="#a23a3a" opacity="0.82"/>
<line x1="633.19" x2="633.19" y1="212.29" y2="243.13" stroke="#a23a3a" stroke-width="1"/>
<rect x="628.55" y="214.59" width="9.28" height="27.96" fill="#a23a3a" opacity="0.82"/>
<line x1="650.64" x2="650.64" y1="207.75" y2="244.28" stroke="#176c4c" stroke-width="1"/>
<rect x="646.00" y="216.64" width="9.28" height="25.98" fill="#176c4c" opacity="0.82"/>
<line x1="668.09" x2="668.09" y1="204.74" y2="250.30" stroke="#a23a3a" stroke-width="1"/>
<rect x="663.44" y="216.58" width="9.28" height="30.26" fill="#a23a3a" opacity="0.82"/>
<line x1="685.53" x2="685.53" y1="225.41" y2="251.26" stroke="#176c4c" stroke-width="1"/>
<rect x="680.89" y="228.41" width="9.28" height="18.43" fill="#176c4c" opacity="0.82"/>
<line x1="702.98" x2="702.98" y1="216.64" y2="228.61" stroke="#176c4c" stroke-width="1"/>
<rect x="698.34" y="224.13" width="9.28" height="4.29" fill="#176c4c" opacity="0.82"/>
<line x1="720.43" x2="720.43" y1="214.91" y2="260.41" stroke="#a23a3a" stroke-width="1"/>
<rect x="715.78" y="224.13" width="9.28" height="10.69" fill="#a23a3a" opacity="0.82"/>
<line x1="737.87" x2="737.87" y1="218.11" y2="236.28" stroke="#176c4c" stroke-width="1"/>
<rect x="733.23" y="228.41" width="9.28" height="6.33" fill="#176c4c" opacity="0.82"/>
<line x1="755.32" x2="755.32" y1="202.69" y2="230.78" stroke="#176c4c" stroke-width="1"/>
<rect x="750.68" y="207.81" width="9.28" height="20.41" fill="#176c4c" opacity="0.82"/>
<line x1="772.77" x2="772.77" y1="187.33" y2="213.95" stroke="#a23a3a" stroke-width="1"/>
<rect x="768.13" y="207.17" width="9.28" height="5.69" fill="#a23a3a" opacity="0.82"/>
<line x1="790.21" x2="790.21" y1="210.11" y2="222.27" stroke="#a23a3a" stroke-width="1"/>
<rect x="785.57" y="212.99" width="9.28" height="1.50" fill="#a23a3a" opacity="0.82"/>
<line x1="807.66" x2="807.66" y1="184.97" y2="221.18" stroke="#176c4c" stroke-width="1"/>
<rect x="803.02" y="202.24" width="9.28" height="11.77" fill="#176c4c" opacity="0.82"/>
<line x1="825.11" x2="825.11" y1="184.58" y2="203.78" stroke="#176c4c" stroke-width="1"/>
<rect x="820.47" y="190.98" width="9.28" height="11.26" fill="#176c4c" opacity="0.82"/>
<line x1="842.55" x2="842.55" y1="173.90" y2="193.93" stroke="#176c4c" stroke-width="1"/>
<rect x="837.91" y="182.60" width="9.28" height="8.06" fill="#176c4c" opacity="0.82"/>
<line x1="860.00" x2="860.00" y1="177.42" y2="191.30" stroke="#176c4c" stroke-width="1"/>
<rect x="855.36" y="179.21" width="9.28" height="3.39" fill="#176c4c" opacity="0.82"/>
<line x1="40" x2="860" y1="211.71" y2="211.71" stroke="#111827" stroke-dasharray="5 4"/>
<rect x="40" y="195.91" width="820" height="3.90" fill="#d97706" opacity="0.20"/>
<text x="45" y="205.71" font-family="Arial" font-size="11">C1 4800.45</text>
<text x="45" y="189.91" font-family="Arial" font-size="11">IFVG</text>
</svg>