<svg xmlns="http://www.w3.org/2000/svg" width="900" height="320" viewBox="0 0 900 320">
<rect width="100%" height="100%" fill="#fbfbf8"/>
<text x="40" y="18" font-family="Arial" font-size="13">v3_sample_008 SHORT FVG</text>
<line x1="40.00" x2="40.00" y1="84.06" y2="115.23" stroke="#a23a3a" stroke-width="1"/>
<rect x="35.36" y="85.54" width="9.28" height="5.82" fill="#a23a3a" opacity="0.82"/>
<line x1="57.45" x2="57.45" y1="55.63" y2="90.45" stroke="#176c4c" stroke-width="1"/>
<rect x="52.81" y="73.56" width="9.28" height="16.90" fill="#176c4c" opacity="0.82"/>
<line x1="74.89" x2="74.89" y1="54.83" y2="78.69" stroke="#176c4c" stroke-width="1"/>
<rect x="70.25" y="71.50" width="9.28" height="2.63" fill="#176c4c" opacity="0.82"/>
<line x1="92.34" x2="92.34" y1="37.93" y2="71.50" stroke="#176c4c" stroke-width="1"/>
<rect x="87.70" y="66.70" width="9.28" height="3.77" fill="#176c4c" opacity="0.82"/>
<line x1="109.79" x2="109.79" y1="61.22" y2="87.37" stroke="#176c4c" stroke-width="1"/>
<rect x="105.15" y="63.74" width="9.28" height="2.97" fill="#176c4c" opacity="0.82"/>
<line x1="127.23" x2="127.23" y1="62.14" y2="96.16" stroke="#a23a3a" stroke-width="1"/>
<rect x="122.59" y="63.85" width="9.28" height="32.08" fill="#a23a3a" opacity="0.82"/>
<line x1="144.68" x2="144.68" y1="89.88" y2="123.57" stroke="#176c4c" stroke-width="1"/>
<rect x="140.04" y="94.11" width="9.28" height="2.06" fill="#176c4c" opacity="0.82"/>
<line x1="162.13" x2="162.13" y1="89.77" y2="112.03" stroke="#a23a3a" stroke-width="1"/>
<rect x="157.49" y="94.22" width="9.28" height="1.60" fill="#a23a3a" opacity="0.82"/>
<line x1="179.57" x2="179.57" y1="91.48" y2="107.24" stroke="#a23a3a" stroke-width="1"/>
<rect x="174.93" y="94.68" width="9.28" height="9.48" fill="#a23a3a" opacity="0.82"/>
<line x1="197.02" x2="197.02" y1="102.90" y2="121.51" stroke="#a23a3a" stroke-width="1"/>
<rect x="192.38" y="104.27" width="9.28" height="12.45" fill="#a23a3a" opacity="0.82"/>
<line x1="214.47" x2="214.47" y1="116.15" y2="138.18" stroke="#a23a3a" stroke-width="1"/>
<rect x="209.83" y="117.29" width="9.28" height="18.15" fill="#a23a3a" opacity="0.82"/>
<line x1="231.91" x2="231.91" y1="132.70" y2="156.79" stroke="#a23a3a" stroke-width="1"/>
<rect x="227.27" y="136.01" width="9.28" height="14.73" fill="#a23a3a" opacity="0.82"/>
<line x1="249.36" x2="249.36" y1="140.01" y2="181.00" stroke="#a23a3a" stroke-width="1"/>
<rect x="244.72" y="150.97" width="9.28" height="22.04" fill="#a23a3a" opacity="0.82"/>
<line x1="266.81" x2="266.81" y1="156.22" y2="172.44" stroke="#176c4c" stroke-width="1"/>
<rect x="262.17" y="157.48" width="9.28" height="14.96" fill="#176c4c" opacity="0.82"/>
<line x1="284.26" x2="284.26" y1="144.58" y2="160.79" stroke="#176c4c" stroke-width="1"/>
<rect x="279.61" y="154.28" width="9.28" height="2.85" fill="#176c4c" opacity="0.82"/>
<line x1="301.70" x2="301.70" y1="136.58" y2="156.11" stroke="#176c4c" stroke-width="1"/>
<rect x="297.06" y="139.10" width="9.28" height="15.07" fill="#176c4c" opacity="0.82"/>
<line x1="319.15" x2="319.15" y1="137.27" y2="150.40" stroke="#176c4c" stroke-width="1"/>
<rect x="314.51" y="139.67" width="9.28" height="2.28" fill="#176c4c" opacity="0.82"/>
<line x1="336.60" x2="336.60" y1="130.65" y2="147.77" stroke="#176c4c" stroke-width="1"/>
<rect x="331.96" y="133.96" width="9.28" height="5.25" fill="#176c4c" opacity="0.82"/>
<line x1="354.04" x2="354.04" y1="124.14" y2="155.77" stroke="#a23a3a" stroke-width="1"/>
<rect x="349.40" y="134.07" width="9.28" height="9.71" fill="#a23a3a" opacity="0.82"/>
<line x1="371.49" x2="371.49" y1="127.45" y2="150.74" stroke="#176c4c" stroke-width="1"/>
<rect x="366.85" y="141.72" width="9.28" height="3.20" fill="#176c4c" opacity="0.82"/>
<line x1="388.94" x2="388.94" y1="130.19" y2="143.09" stroke="#176c4c" stroke-width="1"/>
<rect x="384.30" y="139.21" width="9.28" height="3.08" fill="#176c4c" opacity="0.82"/>
<line x1="406.38" x2="406.38" y1="121.85" y2="141.04" stroke="#176c4c" stroke-width="1"/>
<rect x="401.74" y="123.00" width="9.28" height="16.67" fill="#176c4c" opacity="0.82"/>
<line x1="423.83" x2="423.83" y1="115.80" y2="129.28" stroke="#a23a3a" stroke-width="1"/>
<rect x="419.19" y="121.85" width="9.28" height="1.50" fill="#a23a3a" opacity="0.82"/>
<line x1="441.28" x2="441.28" y1="108.61" y2="133.16" stroke="#176c4c" stroke-width="1"/>
<rect x="436.64" y="115.00" width="9.28" height="7.76" fill="#176c4c" opacity="0.82"/>
<line x1="458.72" x2="458.72" y1="107.24" y2="118.09" stroke="#176c4c" stroke-width="1"/>
<rect x="454.08" y="111.46" width="9.28" height="3.54" fill="#176c4c" opacity="0.82"/>
<line x1="476.17" x2="476.17" y1="105.30" y2="132.70" stroke="#a23a3a" stroke-width="1"/>
<rect x="471.53" y="111.58" width="9.28" height="14.96" fill="#a23a3a" opacity="0.82"/>
<line x1="493.62" x2="493.62" y1="123.45" y2="140.69" stroke="#a23a3a" stroke-width="1"/>
<rect x="488.98" y="126.76" width="9.28" height="10.62" fill="#a23a3a" opacity="0.82"/>
<line x1="511.06" x2="511.06" y1="130.76" y2="141.72" stroke="#a23a3a" stroke-width="1"/>
<rect x="506.42" y="137.38" width="9.28" height="4.11" fill="#a23a3a" opacity="0.82"/>
<line x1="528.51" x2="528.51" y1="114.32" y2="143.21" stroke="#176c4c" stroke-width="1"/>
<rect x="523.87" y="117.40" width="9.28" height="24.55" fill="#176c4c" opacity="0.82"/>
<line x1="545.96" x2="545.96" y1="111.35" y2="129.16" stroke="#a23a3a" stroke-width="1"/>
<rect x="541.32" y="116.49" width="9.28" height="7.42" fill="#a23a3a" opacity="0.82"/>
<line x1="563.40" x2="563.40" y1="109.18" y2="142.18" stroke="#a23a3a" stroke-width="1"/>
<rect x="558.76" y="123.91" width="9.28" height="5.48" fill="#a23a3a" opacity="0.82"/>
<line x1="580.85" x2="580.85" y1="108.72" y2="130.65" stroke="#176c4c" stroke-width="1"/>
<rect x="576.21" y="122.43" width="9.28" height="6.97" fill="#176c4c" opacity="0.82"/>
<line x1="598.30" x2="598.30" y1="124.37" y2="150.51" stroke="#a23a3a" stroke-width="1"/>
<rect x="593.66" y="124.37" width="9.28" height="20.10" fill="#a23a3a" opacity="0.82"/>
<line x1="615.74" x2="615.74" y1="144.69" y2="209.09" stroke="#a23a3a" stroke-width="1"/>
<rect x="611.10" y="144.69" width="9.28" height="59.03" fill="#a23a3a" opacity="0.82"/>
<line x1="633.19" x2="633.19" y1="192.08" y2="254.65" stroke="#a23a3a" stroke-width="1"/>
<rect x="628.55" y="204.41" width="9.28" height="28.43" fill="#a23a3a" opacity="0.82"/>
<line x1="650.64" x2="650.64" y1="183.85" y2="241.29" stroke="#176c4c" stroke-width="1"/>
<rect x="646.00" y="186.02" width="9.28" height="46.93" fill="#176c4c" opacity="0.82"/>
<line x1="668.09" x2="668.09" y1="155.99" y2="186.02" stroke="#176c4c" stroke-width="1"/>
<rect x="663.44" y="157.71" width="9.28" height="28.32" fill="#176c4c" opacity="0.82"/>
<line x1="685.53" x2="685.53" y1="149.94" y2="181.80" stroke="#a23a3a" stroke-width="1"/>
<rect x="680.89" y="157.82" width="9.28" height="22.95" fill="#a23a3a" opacity="0.82"/>
<line x1="702.98" x2="702.98" y1="154.62" y2="182.60" stroke="#176c4c" stroke-width="1"/>
<rect x="698.34" y="176.20" width="9.28" height="2.51" fill="#176c4c" opacity="0.82"/>
<line x1="720.43" x2="720.43" y1="167.87" y2="194.25" stroke="#a23a3a" stroke-width="1"/>
<rect x="715.78" y="171.98" width="9.28" height="21.81" fill="#a23a3a" opacity="0.82"/>
<line x1="737.87" x2="737.87" y1="191.85" y2="224.16" stroke="#a23a3a" stroke-width="1"/>
<rect x="733.23" y="194.59" width="9.28" height="21.12" fill="#a23a3a" opacity="0.82"/>
<line x1="755.32" x2="755.32" y1="190.48" y2="239.80" stroke="#176c4c" stroke-width="1"/>
<rect x="750.68" y="192.65" width="9.28" height="22.95" fill="#176c4c" opacity="0.82"/>
<line x1="772.77" x2="772.77" y1="174.83" y2="223.25" stroke="#a23a3a" stroke-width="1"/>
<rect x="768.13" y="193.33" width="9.28" height="23.86" fill="#a23a3a" opacity="0.82"/>
<line x1="790.21" x2="790.21" y1="184.20" y2="219.02" stroke="#176c4c" stroke-width="1"/>
<rect x="785.57" y="186.48" width="9.28" height="29.69" fill="#176c4c" opacity="0.82"/>
<line x1="807.66" x2="807.66" y1="179.52" y2="216.05" stroke="#a23a3a" stroke-width="1"/>
<rect x="803.02" y="186.48" width="9.28" height="16.44" fill="#a23a3a" opacity="0.82"/>
<line x1="825.11" x2="825.11" y1="189.79" y2="228.39" stroke="#a23a3a" stroke-width="1"/>
<rect x="820.47" y="202.35" width="9.28" height="25.12" fill="#a23a3a" opacity="0.82"/>
<line x1="842.55" x2="842.55" y1="219.02" y2="255.33" stroke="#a23a3a" stroke-width="1"/>
<rect x="837.91" y="228.16" width="9.28" height="26.03" fill="#a23a3a" opacity="0.82"/>
<line x1="860.00" x2="860.00" y1="244.60" y2="262.07" stroke="#176c4c" stroke-width="1"/>
<rect x="855.36" y="253.16" width="9.28" height="1.50" fill="#176c4c" opacity="0.82"/>
<line x1="40" x2="860" y1="121.40" y2="121.40" stroke="#111827" stroke-dasharray="5 4"/>
<rect x="40" y="107.24" width="820" height="8.91" fill="#d97706" opacity="0.20"/>
<text x="45" y="115.40" font-family="Arial" font-size="11">C1 3338.0</text>
<text x="45" y="101.24" font-family="Arial" font-size="11">FVG</text>
</svg>