<svg xmlns="http://www.w3.org/2000/svg" width="900" height="320" viewBox="0 0 900 320">
<rect width="100%" height="100%" fill="#fbfbf8"/>
<text x="40" y="18" font-family="Arial" font-size="13">v3_sample_022 SHORT IFVG</text>
<line x1="40.00" x2="40.00" y1="224.92" y2="262.07" stroke="#176c4c" stroke-width="1"/>
<rect x="35.36" y="228.40" width="9.28" height="33.56" fill="#176c4c" opacity="0.82"/>
<line x1="57.45" x2="57.45" y1="213.85" y2="232.09" stroke="#176c4c" stroke-width="1"/>
<rect x="52.81" y="226.32" width="9.28" height="1.87" fill="#176c4c" opacity="0.82"/>
<line x1="74.89" x2="74.89" y1="205.13" y2="225.70" stroke="#176c4c" stroke-width="1"/>
<rect x="70.25" y="208.03" width="9.28" height="17.25" fill="#176c4c" opacity="0.82"/>
<line x1="92.34" x2="92.34" y1="202.89" y2="215.41" stroke="#a23a3a" stroke-width="1"/>
<rect x="87.70" y="207.93" width="9.28" height="2.86" fill="#a23a3a" opacity="0.82"/>
<line x1="109.79" x2="109.79" y1="206.16" y2="217.49" stroke="#a23a3a" stroke-width="1"/>
<rect x="105.15" y="210.58" width="9.28" height="1.50" fill="#a23a3a" opacity="0.82"/>
<line x1="127.23" x2="127.23" y1="196.08" y2="216.97" stroke="#176c4c" stroke-width="1"/>
<rect x="122.59" y="208.35" width="9.28" height="3.69" fill="#176c4c" opacity="0.82"/>
<line x1="144.68" x2="144.68" y1="206.37" y2="218.17" stroke="#a23a3a" stroke-width="1"/>
<rect x="140.04" y="208.19" width="9.28" height="6.70" fill="#a23a3a" opacity="0.82"/>
<line x1="162.13" x2="162.13" y1="209.96" y2="220.66" stroke="#a23a3a" stroke-width="1"/>
<rect x="157.49" y="214.89" width="9.28" height="1.50" fill="#a23a3a" opacity="0.82"/>
<line x1="179.57" x2="179.57" y1="198.16" y2="218.58" stroke="#176c4c" stroke-width="1"/>
<rect x="174.93" y="199.67" width="9.28" height="15.59" fill="#176c4c" opacity="0.82"/>
<line x1="197.02" x2="197.02" y1="194.84" y2="204.97" stroke="#a23a3a" stroke-width="1"/>
<rect x="192.38" y="199.62" width="9.28" height="4.36" fill="#a23a3a" opacity="0.82"/>
<line x1="214.47" x2="214.47" y1="192.86" y2="208.87" stroke="#176c4c" stroke-width="1"/>
<rect x="209.83" y="196.14" width="9.28" height="8.11" fill="#176c4c" opacity="0.82"/>
<line x1="231.91" x2="231.91" y1="185.90" y2="196.24" stroke="#176c4c" stroke-width="1"/>
<rect x="227.27" y="190.37" width="9.28" height="5.77" fill="#176c4c" opacity="0.82"/>
<line x1="249.36" x2="249.36" y1="190.32" y2="204.76" stroke="#a23a3a" stroke-width="1"/>
<rect x="244.72" y="190.32" width="9.28" height="7.07" fill="#a23a3a" opacity="0.82"/>
<line x1="266.81" x2="266.81" y1="189.43" y2="200.19" stroke="#176c4c" stroke-width="1"/>
<rect x="262.17" y="189.80" width="9.28" height="7.74" fill="#176c4c" opacity="0.82"/>
<line x1="284.26" x2="284.26" y1="180.03" y2="208.87" stroke="#a23a3a" stroke-width="1"/>
<rect x="279.61" y="189.80" width="9.28" height="8.99" fill="#a23a3a" opacity="0.82"/>
<line x1="301.70" x2="301.70" y1="195.46" y2="202.89" stroke="#a23a3a" stroke-width="1"/>
<rect x="297.06" y="198.79" width="9.28" height="3.69" fill="#a23a3a" opacity="0.82"/>
<line x1="319.15" x2="319.15" y1="193.54" y2="202.48" stroke="#176c4c" stroke-width="1"/>
<rect x="314.51" y="198.22" width="9.28" height="4.26" fill="#176c4c" opacity="0.82"/>
<line x1="336.60" x2="336.60" y1="188.08" y2="199.77" stroke="#176c4c" stroke-width="1"/>
<rect x="331.96" y="192.76" width="9.28" height="5.56" fill="#176c4c" opacity="0.82"/>
<line x1="354.04" x2="354.04" y1="182.06" y2="194.79" stroke="#176c4c" stroke-width="1"/>
<rect x="349.40" y="182.94" width="9.28" height="9.72" fill="#176c4c" opacity="0.82"/>
<line x1="371.49" x2="371.49" y1="181.38" y2="187.25" stroke="#a23a3a" stroke-width="1"/>
<rect x="366.85" y="182.94" width="9.28" height="1.50" fill="#a23a3a" opacity="0.82"/>
<line x1="388.94" x2="388.94" y1="164.18" y2="186.58" stroke="#176c4c" stroke-width="1"/>
<rect x="384.30" y="165.22" width="9.28" height="18.50" fill="#176c4c" opacity="0.82"/>
<line x1="406.38" x2="406.38" y1="156.03" y2="168.08" stroke="#a23a3a" stroke-width="1"/>
<rect x="401.74" y="165.22" width="9.28" height="1.50" fill="#a23a3a" opacity="0.82"/>
<line x1="423.83" x2="423.83" y1="144.44" y2="169.17" stroke="#176c4c" stroke-width="1"/>
<rect x="419.19" y="146.31" width="9.28" height="19.12" fill="#176c4c" opacity="0.82"/>
<line x1="441.28" x2="441.28" y1="110.46" y2="165.22" stroke="#a23a3a" stroke-width="1"/>
<rect x="436.64" y="146.26" width="9.28" height="12.94" fill="#a23a3a" opacity="0.82"/>
<line x1="458.72" x2="458.72" y1="128.49" y2="165.43" stroke="#176c4c" stroke-width="1"/>
<rect x="454.08" y="144.80" width="9.28" height="14.34" fill="#176c4c" opacity="0.82"/>
<line x1="476.17" x2="476.17" y1="138.78" y2="166.83" stroke="#a23a3a" stroke-width="1"/>
<rect x="471.53" y="144.80" width="9.28" height="20.11" fill="#a23a3a" opacity="0.82"/>
<line x1="493.62" x2="493.62" y1="131.35" y2="173.95" stroke="#176c4c" stroke-width="1"/>
<rect x="488.98" y="144.75" width="9.28" height="20.16" fill="#176c4c" opacity="0.82"/>
<line x1="511.06" x2="511.06" y1="144.65" y2="163.46" stroke="#a23a3a" stroke-width="1"/>
<rect x="506.42" y="145.06" width="9.28" height="3.90" fill="#a23a3a" opacity="0.82"/>
<line x1="528.51" x2="528.51" y1="133.48" y2="154.78" stroke="#176c4c" stroke-width="1"/>
<rect x="523.87" y="136.60" width="9.28" height="12.37" fill="#176c4c" opacity="0.82"/>
<line x1="545.96" x2="545.96" y1="121.94" y2="141.79" stroke="#176c4c" stroke-width="1"/>
<rect x="541.32" y="132.18" width="9.28" height="4.47" fill="#176c4c" opacity="0.82"/>
<line x1="563.40" x2="563.40" y1="128.18" y2="142.99" stroke="#176c4c" stroke-width="1"/>
<rect x="558.76" y="128.39" width="9.28" height="3.79" fill="#176c4c" opacity="0.82"/>
<line x1="580.85" x2="580.85" y1="119.03" y2="135.97" stroke="#176c4c" stroke-width="1"/>
<rect x="576.21" y="119.03" width="9.28" height="9.14" fill="#176c4c" opacity="0.82"/>
<line x1="598.30" x2="598.30" y1="81.83" y2="121.11" stroke="#176c4c" stroke-width="1"/>
<rect x="593.66" y="86.09" width="9.28" height="33.04" fill="#176c4c" opacity="0.82"/>
<line x1="615.74" x2="615.74" y1="84.33" y2="100.64" stroke="#a23a3a" stroke-width="1"/>
<rect x="611.10" y="86.20" width="9.28" height="1.50" fill="#a23a3a" opacity="0.82"/>
<line x1="633.19" x2="633.19" y1="84.48" y2="109.06" stroke="#a23a3a" stroke-width="1"/>
<rect x="628.55" y="86.67" width="9.28" height="17.30" fill="#a23a3a" opacity="0.82"/>
<line x1="650.64" x2="650.64" y1="97.06" y2="118.72" stroke="#a23a3a" stroke-width="1"/>
<rect x="646.00" y="103.97" width="9.28" height="10.03" fill="#a23a3a" opacity="0.82"/>
<line x1="668.09" x2="668.09" y1="110.98" y2="126.57" stroke="#a23a3a" stroke-width="1"/>
<rect x="663.44" y="113.99" width="9.28" height="12.05" fill="#a23a3a" opacity="0.82"/>
<line x1="685.53" x2="685.53" y1="109.94" y2="131.35" stroke="#176c4c" stroke-width="1"/>
<rect x="680.89" y="111.14" width="9.28" height="14.91" fill="#176c4c" opacity="0.82"/>
<line x1="702.98" x2="702.98" y1="97.32" y2="111.19" stroke="#176c4c" stroke-width="1"/>
<rect x="698.34" y="98.10" width="9.28" height="13.04" fill="#176c4c" opacity="0.82"/>
<line x1="720.43" x2="720.43" y1="95.86" y2="124.91" stroke="#a23a3a" stroke-width="1"/>
<rect x="715.78" y="98.10" width="9.28" height="9.35" fill="#a23a3a" opacity="0.82"/>
<line x1="737.87" x2="737.87" y1="45.83" y2="111.40" stroke="#176c4c" stroke-width="1"/>
<rect x="733.23" y="52.37" width="9.28" height="55.13" fill="#176c4c" opacity="0.82"/>
<line x1="755.32" x2="755.32" y1="43.96" y2="65.68" stroke="#a23a3a" stroke-width="1"/>
<rect x="750.68" y="52.37" width="9.28" height="12.42" fill="#a23a3a" opacity="0.82"/>
<line x1="772.77" x2="772.77" y1="64.22" y2="98.46" stroke="#a23a3a" stroke-width="1"/>
<rect x="768.13" y="64.79" width="9.28" height="8.73" fill="#a23a3a" opacity="0.82"/>
<line x1="790.21" x2="790.21" y1="56.01" y2="76.01" stroke="#176c4c" stroke-width="1"/>
<rect x="785.57" y="69.99" width="9.28" height="3.53" fill="#176c4c" opacity="0.82"/>
<line x1="807.66" x2="807.66" y1="56.53" y2="81.89" stroke="#176c4c" stroke-width="1"/>
<rect x="803.02" y="57.62" width="9.28" height="12.52" fill="#176c4c" opacity="0.82"/>
<line x1="825.11" x2="825.11" y1="37.93" y2="65.57" stroke="#176c4c" stroke-width="1"/>
<rect x="820.47" y="40.42" width="9.28" height="17.15" fill="#176c4c" opacity="0.82"/>
<line x1="842.55" x2="842.55" y1="39.49" y2="59.08" stroke="#a23a3a" stroke-width="1"/>
<rect x="837.91" y="39.49" width="9.28" height="15.48" fill="#a23a3a" opacity="0.82"/>
<line x1="860.00" x2="860.00" y1="41.31" y2="70.04" stroke="#a23a3a" stroke-width="1"/>
<rect x="855.36" y="54.97" width="9.28" height="9.66" fill="#a23a3a" opacity="0.82"/>
<line x1="40" x2="860" y1="207.57" y2="207.57" stroke="#111827" stroke-dasharray="5 4"/>
<rect x="40" y="154.42" width="820" height="38.86" fill="#d97706" opacity="0.20"/>
<text x="45" y="201.57" font-family="Arial" font-size="11">C1 4549.92</text>
<text x="45" y="148.42" font-family="Arial" font-size="11">IFVG</text>
</svg>