<svg xmlns="http://www.w3.org/2000/svg" width="900" height="320" viewBox="0 0 900 320">
<rect width="100%" height="100%" fill="#fbfbf8"/>
<text x="40" y="18" font-family="Arial" font-size="13">v3_sample_001 SHORT IFVG</text>
<line x1="40.00" x2="40.00" y1="151.11" y2="251.01" stroke="#176c4c" stroke-width="1"/>
<rect x="35.36" y="167.44" width="9.28" height="54.12" fill="#176c4c" opacity="0.82"/>
<line x1="57.45" x2="57.45" y1="161.83" y2="196.72" stroke="#a23a3a" stroke-width="1"/>
<rect x="52.81" y="166.93" width="9.28" height="12.93" fill="#a23a3a" opacity="0.82"/>
<line x1="74.89" x2="74.89" y1="158.08" y2="191.61" stroke="#176c4c" stroke-width="1"/>
<rect x="70.25" y="167.78" width="9.28" height="11.91" fill="#176c4c" opacity="0.82"/>
<line x1="92.34" x2="92.34" y1="117.41" y2="178.68" stroke="#176c4c" stroke-width="1"/>
<rect x="87.70" y="125.24" width="9.28" height="41.87" fill="#176c4c" opacity="0.82"/>
<line x1="109.79" x2="109.79" y1="110.94" y2="153.66" stroke="#a23a3a" stroke-width="1"/>
<rect x="105.15" y="123.88" width="9.28" height="14.30" fill="#a23a3a" opacity="0.82"/>
<line x1="127.23" x2="127.23" y1="82.69" y2="148.72" stroke="#176c4c" stroke-width="1"/>
<rect x="122.59" y="95.97" width="9.28" height="43.57" fill="#176c4c" opacity="0.82"/>
<line x1="144.68" x2="144.68" y1="69.59" y2="122.17" stroke="#a23a3a" stroke-width="1"/>
<rect x="140.04" y="94.09" width="9.28" height="7.32" fill="#a23a3a" opacity="0.82"/>
<line x1="162.13" x2="162.13" y1="80.48" y2="148.38" stroke="#a23a3a" stroke-width="1"/>
<rect x="157.49" y="94.77" width="9.28" height="22.46" fill="#a23a3a" opacity="0.82"/>
<line x1="179.57" x2="179.57" y1="70.27" y2="118.43" stroke="#a23a3a" stroke-width="1"/>
<rect x="174.93" y="117.07" width="9.28" height="1.50" fill="#a23a3a" opacity="0.82"/>
<line x1="197.02" x2="197.02" y1="112.81" y2="151.28" stroke="#a23a3a" stroke-width="1"/>
<rect x="192.38" y="117.92" width="9.28" height="27.74" fill="#a23a3a" opacity="0.82"/>
<line x1="214.47" x2="214.47" y1="130.51" y2="148.89" stroke="#176c4c" stroke-width="1"/>
<rect x="209.83" y="137.32" width="9.28" height="7.83" fill="#176c4c" opacity="0.82"/>
<line x1="231.91" x2="231.91" y1="135.28" y2="162.68" stroke="#a23a3a" stroke-width="1"/>
<rect x="227.27" y="138.51" width="9.28" height="15.83" fill="#a23a3a" opacity="0.82"/>
<line x1="249.36" x2="249.36" y1="133.92" y2="197.74" stroke="#a23a3a" stroke-width="1"/>
<rect x="244.72" y="154.51" width="9.28" height="43.23" fill="#a23a3a" opacity="0.82"/>
<line x1="266.81" x2="266.81" y1="156.89" y2="209.48" stroke="#176c4c" stroke-width="1"/>
<rect x="262.17" y="161.49" width="9.28" height="47.99" fill="#176c4c" opacity="0.82"/>
<line x1="284.26" x2="284.26" y1="160.47" y2="188.72" stroke="#a23a3a" stroke-width="1"/>
<rect x="279.61" y="161.66" width="9.28" height="21.95" fill="#a23a3a" opacity="0.82"/>
<line x1="301.70" x2="301.70" y1="168.81" y2="201.31" stroke="#176c4c" stroke-width="1"/>
<rect x="297.06" y="182.25" width="9.28" height="1.50" fill="#176c4c" opacity="0.82"/>
<line x1="319.15" x2="319.15" y1="164.04" y2="192.97" stroke="#a23a3a" stroke-width="1"/>
<rect x="314.51" y="181.57" width="9.28" height="11.40" fill="#a23a3a" opacity="0.82"/>
<line x1="336.60" x2="336.60" y1="142.77" y2="192.97" stroke="#176c4c" stroke-width="1"/>
<rect x="331.96" y="144.13" width="9.28" height="48.84" fill="#176c4c" opacity="0.82"/>
<line x1="354.04" x2="354.04" y1="128.81" y2="160.98" stroke="#176c4c" stroke-width="1"/>
<rect x="349.40" y="138.68" width="9.28" height="3.40" fill="#176c4c" opacity="0.82"/>
<line x1="371.49" x2="371.49" y1="119.62" y2="149.06" stroke="#a23a3a" stroke-width="1"/>
<rect x="366.85" y="141.24" width="9.28" height="5.28" fill="#a23a3a" opacity="0.82"/>
<line x1="388.94" x2="388.94" y1="101.24" y2="150.94" stroke="#176c4c" stroke-width="1"/>
<rect x="384.30" y="114.18" width="9.28" height="28.59" fill="#176c4c" opacity="0.82"/>
<line x1="406.38" x2="406.38" y1="85.75" y2="120.81" stroke="#a23a3a" stroke-width="1"/>
<rect x="401.74" y="114.35" width="9.28" height="4.94" fill="#a23a3a" opacity="0.82"/>
<line x1="423.83" x2="423.83" y1="83.71" y2="126.26" stroke="#176c4c" stroke-width="1"/>
<rect x="419.19" y="102.77" width="9.28" height="11.23" fill="#176c4c" opacity="0.82"/>
<line x1="441.28" x2="441.28" y1="104.13" y2="135.45" stroke="#a23a3a" stroke-width="1"/>
<rect x="436.64" y="104.13" width="9.28" height="16.17" fill="#a23a3a" opacity="0.82"/>
<line x1="458.72" x2="458.72" y1="93.75" y2="139.87" stroke="#176c4c" stroke-width="1"/>
<rect x="454.08" y="99.20" width="9.28" height="21.27" fill="#176c4c" opacity="0.82"/>
<line x1="476.17" x2="476.17" y1="76.22" y2="107.20" stroke="#176c4c" stroke-width="1"/>
<rect x="471.53" y="76.73" width="9.28" height="21.95" fill="#176c4c" opacity="0.82"/>
<line x1="493.62" x2="493.62" y1="66.35" y2="81.67" stroke="#176c4c" stroke-width="1"/>
<rect x="488.98" y="69.08" width="9.28" height="7.15" fill="#176c4c" opacity="0.82"/>
<line x1="511.06" x2="511.06" y1="37.93" y2="69.93" stroke="#176c4c" stroke-width="1"/>
<rect x="506.42" y="65.50" width="9.28" height="1.70" fill="#176c4c" opacity="0.82"/>
<line x1="528.51" x2="528.51" y1="41.33" y2="87.46" stroke="#a23a3a" stroke-width="1"/>
<rect x="523.87" y="66.01" width="9.28" height="5.62" fill="#a23a3a" opacity="0.82"/>
<line x1="545.96" x2="545.96" y1="68.05" y2="105.84" stroke="#a23a3a" stroke-width="1"/>
<rect x="541.32" y="71.97" width="9.28" height="29.44" fill="#a23a3a" opacity="0.82"/>
<line x1="563.40" x2="563.40" y1="83.71" y2="124.73" stroke="#a23a3a" stroke-width="1"/>
<rect x="558.76" y="101.75" width="9.28" height="21.78" fill="#a23a3a" opacity="0.82"/>
<line x1="580.85" x2="580.85" y1="93.24" y2="147.36" stroke="#176c4c" stroke-width="1"/>
<rect x="576.21" y="95.45" width="9.28" height="27.91" fill="#176c4c" opacity="0.82"/>
<line x1="598.30" x2="598.30" y1="94.94" y2="142.43" stroke="#a23a3a" stroke-width="1"/>
<rect x="593.66" y="95.11" width="9.28" height="31.66" fill="#a23a3a" opacity="0.82"/>
<line x1="615.74" x2="615.74" y1="111.28" y2="127.96" stroke="#176c4c" stroke-width="1"/>
<rect x="611.10" y="118.43" width="9.28" height="8.68" fill="#176c4c" opacity="0.82"/>
<line x1="633.19" x2="633.19" y1="108.39" y2="130.34" stroke="#176c4c" stroke-width="1"/>
<rect x="628.55" y="113.83" width="9.28" height="2.04" fill="#176c4c" opacity="0.82"/>
<line x1="650.64" x2="650.64" y1="100.90" y2="120.47" stroke="#176c4c" stroke-width="1"/>
<rect x="646.00" y="109.75" width="9.28" height="3.23" fill="#176c4c" opacity="0.82"/>
<line x1="668.09" x2="668.09" y1="108.56" y2="149.74" stroke="#a23a3a" stroke-width="1"/>
<rect x="663.44" y="109.58" width="9.28" height="22.46" fill="#a23a3a" opacity="0.82"/>
<line x1="685.53" x2="685.53" y1="115.20" y2="138.68" stroke="#176c4c" stroke-width="1"/>
<rect x="680.89" y="125.24" width="9.28" height="6.98" fill="#176c4c" opacity="0.82"/>
<line x1="702.98" x2="702.98" y1="104.82" y2="135.45" stroke="#a23a3a" stroke-width="1"/>
<rect x="698.34" y="123.54" width="9.28" height="9.53" fill="#a23a3a" opacity="0.82"/>
<line x1="720.43" x2="720.43" y1="126.94" y2="167.78" stroke="#a23a3a" stroke-width="1"/>
<rect x="715.78" y="133.41" width="9.28" height="16.17" fill="#a23a3a" opacity="0.82"/>
<line x1="737.87" x2="737.87" y1="119.96" y2="155.87" stroke="#176c4c" stroke-width="1"/>
<rect x="733.23" y="119.96" width="9.28" height="29.78" fill="#176c4c" opacity="0.82"/>
<line x1="755.32" x2="755.32" y1="112.30" y2="145.15" stroke="#176c4c" stroke-width="1"/>
<rect x="750.68" y="112.64" width="9.28" height="8.68" fill="#176c4c" opacity="0.82"/>
<line x1="772.77" x2="772.77" y1="104.47" y2="185.65" stroke="#a23a3a" stroke-width="1"/>
<rect x="768.13" y="112.47" width="9.28" height="68.76" fill="#a23a3a" opacity="0.82"/>
<line x1="790.21" x2="790.21" y1="177.49" y2="242.33" stroke="#a23a3a" stroke-width="1"/>
<rect x="785.57" y="180.89" width="9.28" height="30.12" fill="#a23a3a" opacity="0.82"/>
<line x1="807.66" x2="807.66" y1="190.42" y2="262.07" stroke="#a23a3a" stroke-width="1"/>
<rect x="803.02" y="211.69" width="9.28" height="30.80" fill="#a23a3a" opacity="0.82"/>
<line x1="825.11" x2="825.11" y1="192.80" y2="246.58" stroke="#176c4c" stroke-width="1"/>
<rect x="820.47" y="227.52" width="9.28" height="15.32" fill="#176c4c" opacity="0.82"/>
<line x1="842.55" x2="842.55" y1="211.52" y2="258.50" stroke="#176c4c" stroke-width="1"/>
<rect x="837.91" y="215.95" width="9.28" height="13.96" fill="#176c4c" opacity="0.82"/>
<line x1="860.00" x2="860.00" y1="186.68" y2="233.82" stroke="#176c4c" stroke-width="1"/>
<rect x="855.36" y="205.40" width="9.28" height="7.83" fill="#176c4c" opacity="0.82"/>
<line x1="40" x2="860" y1="91.54" y2="91.54" stroke="#111827" stroke-dasharray="5 4"/>
<rect x="40" y="-2.40" width="820" height="87.31" fill="#d97706" opacity="0.20"/>
<text x="45" y="85.54" font-family="Arial" font-size="11">C1 4159.28</text>
<text x="45" y="50.00" font-family="Arial" font-size="11">IFVG</text>
</svg>