<svg xmlns="http://www.w3.org/2000/svg" width="900" height="320" viewBox="0 0 900 320">
<rect width="100%" height="100%" fill="#fbfbf8"/>
<text x="40" y="18" font-family="Arial" font-size="13">v3_sample_011 LONG IFVG</text>
<line x1="40.00" x2="40.00" y1="86.15" y2="109.10" stroke="#a23a3a" stroke-width="1"/>
<rect x="35.36" y="94.19" width="9.28" height="2.39" fill="#a23a3a" opacity="0.82"/>
<line x1="57.45" x2="57.45" y1="89.44" y2="109.44" stroke="#176c4c" stroke-width="1"/>
<rect x="52.81" y="92.62" width="9.28" height="3.89" fill="#176c4c" opacity="0.82"/>
<line x1="74.89" x2="74.89" y1="88.17" y2="108.39" stroke="#a23a3a" stroke-width="1"/>
<rect x="70.25" y="92.62" width="9.28" height="5.79" fill="#a23a3a" opacity="0.82"/>
<line x1="92.34" x2="92.34" y1="96.99" y2="117.70" stroke="#a23a3a" stroke-width="1"/>
<rect x="87.70" y="98.49" width="9.28" height="15.96" fill="#a23a3a" opacity="0.82"/>
<line x1="109.79" x2="109.79" y1="108.77" y2="134.49" stroke="#176c4c" stroke-width="1"/>
<rect x="105.15" y="110.53" width="9.28" height="3.93" fill="#176c4c" opacity="0.82"/>
<line x1="127.23" x2="127.23" y1="99.39" y2="122.04" stroke="#176c4c" stroke-width="1"/>
<rect x="122.59" y="105.74" width="9.28" height="5.12" fill="#176c4c" opacity="0.82"/>
<line x1="144.68" x2="144.68" y1="99.87" y2="128.24" stroke="#a23a3a" stroke-width="1"/>
<rect x="140.04" y="105.74" width="9.28" height="15.85" fill="#a23a3a" opacity="0.82"/>
<line x1="162.13" x2="162.13" y1="101.44" y2="121.59" stroke="#176c4c" stroke-width="1"/>
<rect x="157.49" y="102.90" width="9.28" height="18.69" fill="#176c4c" opacity="0.82"/>
<line x1="179.57" x2="179.57" y1="91.98" y2="107.35" stroke="#176c4c" stroke-width="1"/>
<rect x="174.93" y="96.21" width="9.28" height="6.69" fill="#176c4c" opacity="0.82"/>
<line x1="197.02" x2="197.02" y1="67.31" y2="96.69" stroke="#176c4c" stroke-width="1"/>
<rect x="192.38" y="80.43" width="9.28" height="15.77" fill="#176c4c" opacity="0.82"/>
<line x1="214.47" x2="214.47" y1="79.27" y2="93.11" stroke="#a23a3a" stroke-width="1"/>
<rect x="209.83" y="80.43" width="9.28" height="1.50" fill="#a23a3a" opacity="0.82"/>
<line x1="231.91" x2="231.91" y1="75.42" y2="111.24" stroke="#a23a3a" stroke-width="1"/>
<rect x="227.27" y="81.07" width="9.28" height="19.40" fill="#a23a3a" opacity="0.82"/>
<line x1="249.36" x2="249.36" y1="68.73" y2="111.98" stroke="#176c4c" stroke-width="1"/>
<rect x="244.72" y="73.41" width="9.28" height="27.14" fill="#176c4c" opacity="0.82"/>
<line x1="266.81" x2="266.81" y1="51.50" y2="80.77" stroke="#a23a3a" stroke-width="1"/>
<rect x="262.17" y="73.41" width="9.28" height="3.40" fill="#a23a3a" opacity="0.82"/>
<line x1="284.26" x2="284.26" y1="54.72" y2="96.21" stroke="#176c4c" stroke-width="1"/>
<rect x="279.61" y="62.42" width="9.28" height="14.39" fill="#176c4c" opacity="0.82"/>
<line x1="301.70" x2="301.70" y1="54.64" y2="90.68" stroke="#a23a3a" stroke-width="1"/>
<rect x="297.06" y="62.42" width="9.28" height="10.77" fill="#a23a3a" opacity="0.82"/>
<line x1="319.15" x2="319.15" y1="69.11" y2="90.26" stroke="#176c4c" stroke-width="1"/>
<rect x="314.51" y="72.77" width="9.28" height="1.50" fill="#176c4c" opacity="0.82"/>
<line x1="336.60" x2="336.60" y1="64.58" y2="93.67" stroke="#176c4c" stroke-width="1"/>
<rect x="331.96" y="68.62" width="9.28" height="4.15" fill="#176c4c" opacity="0.82"/>
<line x1="354.04" x2="354.04" y1="52.02" y2="78.90" stroke="#176c4c" stroke-width="1"/>
<rect x="349.40" y="65.37" width="9.28" height="3.25" fill="#176c4c" opacity="0.82"/>
<line x1="371.49" x2="371.49" y1="37.93" y2="68.02" stroke="#176c4c" stroke-width="1"/>
<rect x="366.85" y="57.71" width="9.28" height="7.66" fill="#176c4c" opacity="0.82"/>
<line x1="388.94" x2="388.94" y1="39.76" y2="77.85" stroke="#a23a3a" stroke-width="1"/>
<rect x="384.30" y="57.82" width="9.28" height="17.16" fill="#a23a3a" opacity="0.82"/>
<line x1="406.38" x2="406.38" y1="68.25" y2="89.97" stroke="#a23a3a" stroke-width="1"/>
<rect x="401.74" y="75.05" width="9.28" height="13.64" fill="#a23a3a" opacity="0.82"/>
<line x1="423.83" x2="423.83" y1="75.46" y2="107.12" stroke="#a23a3a" stroke-width="1"/>
<rect x="419.19" y="88.66" width="9.28" height="11.25" fill="#a23a3a" opacity="0.82"/>
<line x1="441.28" x2="441.28" y1="98.75" y2="125.48" stroke="#a23a3a" stroke-width="1"/>
<rect x="436.64" y="99.91" width="9.28" height="24.86" fill="#a23a3a" opacity="0.82"/>
<line x1="458.72" x2="458.72" y1="123.53" y2="153.33" stroke="#a23a3a" stroke-width="1"/>
<rect x="454.08" y="124.77" width="9.28" height="14.58" fill="#a23a3a" opacity="0.82"/>
<line x1="476.17" x2="476.17" y1="129.37" y2="156.69" stroke="#a23a3a" stroke-width="1"/>
<rect x="471.53" y="139.35" width="9.28" height="17.08" fill="#a23a3a" opacity="0.82"/>
<line x1="493.62" x2="493.62" y1="143.94" y2="178.63" stroke="#a23a3a" stroke-width="1"/>
<rect x="488.98" y="156.43" width="9.28" height="20.30" fill="#a23a3a" opacity="0.82"/>
<line x1="511.06" x2="511.06" y1="170.93" y2="225.10" stroke="#a23a3a" stroke-width="1"/>
<rect x="506.42" y="176.65" width="9.28" height="6.28" fill="#a23a3a" opacity="0.82"/>
<line x1="528.51" x2="528.51" y1="180.54" y2="212.61" stroke="#a23a3a" stroke-width="1"/>
<rect x="523.87" y="182.93" width="9.28" height="13.35" fill="#a23a3a" opacity="0.82"/>
<line x1="545.96" x2="545.96" y1="177.06" y2="210.82" stroke="#176c4c" stroke-width="1"/>
<rect x="541.32" y="195.46" width="9.28" height="1.50" fill="#176c4c" opacity="0.82"/>
<line x1="563.40" x2="563.40" y1="171.08" y2="208.88" stroke="#176c4c" stroke-width="1"/>
<rect x="558.76" y="184.17" width="9.28" height="11.40" fill="#176c4c" opacity="0.82"/>
<line x1="580.85" x2="580.85" y1="182.26" y2="205.62" stroke="#a23a3a" stroke-width="1"/>
<rect x="576.21" y="184.17" width="9.28" height="7.10" fill="#a23a3a" opacity="0.82"/>
<line x1="598.30" x2="598.30" y1="185.29" y2="215.94" stroke="#176c4c" stroke-width="1"/>
<rect x="593.66" y="185.92" width="9.28" height="5.35" fill="#176c4c" opacity="0.82"/>
<line x1="615.74" x2="615.74" y1="162.67" y2="188.50" stroke="#176c4c" stroke-width="1"/>
<rect x="611.10" y="162.67" width="9.28" height="23.25" fill="#176c4c" opacity="0.82"/>
<line x1="633.19" x2="633.19" y1="158.75" y2="176.58" stroke="#a23a3a" stroke-width="1"/>
<rect x="628.55" y="162.71" width="9.28" height="12.93" fill="#a23a3a" opacity="0.82"/>
<line x1="650.64" x2="650.64" y1="174.75" y2="238.03" stroke="#a23a3a" stroke-width="1"/>
<rect x="646.00" y="175.91" width="9.28" height="34.65" fill="#a23a3a" opacity="0.82"/>
<line x1="668.09" x2="668.09" y1="195.72" y2="215.83" stroke="#176c4c" stroke-width="1"/>
<rect x="663.44" y="197.89" width="9.28" height="12.67" fill="#176c4c" opacity="0.82"/>
<line x1="685.53" x2="685.53" y1="171.94" y2="197.92" stroke="#176c4c" stroke-width="1"/>
<rect x="680.89" y="179.42" width="9.28" height="18.47" fill="#176c4c" opacity="0.82"/>
<line x1="702.98" x2="702.98" y1="167.49" y2="192.54" stroke="#a23a3a" stroke-width="1"/>
<rect x="698.34" y="179.46" width="9.28" height="13.01" fill="#a23a3a" opacity="0.82"/>
<line x1="720.43" x2="720.43" y1="183.31" y2="205.17" stroke="#a23a3a" stroke-width="1"/>
<rect x="715.78" y="192.32" width="9.28" height="5.91" fill="#a23a3a" opacity="0.82"/>
<line x1="737.87" x2="737.87" y1="198.22" y2="232.05" stroke="#a23a3a" stroke-width="1"/>
<rect x="733.23" y="198.22" width="9.28" height="23.85" fill="#a23a3a" opacity="0.82"/>
<line x1="755.32" x2="755.32" y1="216.46" y2="240.31" stroke="#a23a3a" stroke-width="1"/>
<rect x="750.68" y="221.96" width="9.28" height="6.69" fill="#a23a3a" opacity="0.82"/>
<line x1="772.77" x2="772.77" y1="208.39" y2="234.03" stroke="#176c4c" stroke-width="1"/>
<rect x="768.13" y="223.08" width="9.28" height="5.57" fill="#176c4c" opacity="0.82"/>
<line x1="790.21" x2="790.21" y1="193.47" y2="224.73" stroke="#176c4c" stroke-width="1"/>
<rect x="785.57" y="207.19" width="9.28" height="15.89" fill="#176c4c" opacity="0.82"/>
<line x1="807.66" x2="807.66" y1="184.58" y2="207.19" stroke="#176c4c" stroke-width="1"/>
<rect x="803.02" y="193.44" width="9.28" height="13.76" fill="#176c4c" opacity="0.82"/>
<line x1="825.11" x2="825.11" y1="187.19" y2="207.72" stroke="#a23a3a" stroke-width="1"/>
<rect x="820.47" y="193.44" width="9.28" height="12.86" fill="#a23a3a" opacity="0.82"/>
<line x1="842.55" x2="842.55" y1="202.60" y2="228.01" stroke="#a23a3a" stroke-width="1"/>
<rect x="837.91" y="206.30" width="9.28" height="20.97" fill="#a23a3a" opacity="0.82"/>
<line x1="860.00" x2="860.00" y1="225.14" y2="262.07" stroke="#a23a3a" stroke-width="1"/>
<rect x="855.36" y="227.30" width="9.28" height="28.33" fill="#a23a3a" opacity="0.82"/>
<line x1="40" x2="860" y1="106.64" y2="106.64" stroke="#111827" stroke-dasharray="5 4"/>
<rect x="40" y="106.86" width="820" height="78.09" fill="#d97706" opacity="0.20"/>
<text x="45" y="100.64" font-family="Arial" font-size="11">C1 5019.68</text>
<text x="45" y="100.86" font-family="Arial" font-size="11">IFVG</text>
</svg>