<svg xmlns="http://www.w3.org/2000/svg" width="900" height="320" viewBox="0 0 900 320">
<rect width="100%" height="100%" fill="#fbfbf8"/>
<text x="40" y="18" font-family="Arial" font-size="13">v3_sample_002 SHORT FVG</text>
<line x1="40.00" x2="40.00" y1="39.80" y2="68.41" stroke="#176c4c" stroke-width="1"/>
<rect x="35.36" y="51.85" width="9.28" height="4.43" fill="#176c4c" opacity="0.82"/>
<line x1="57.45" x2="57.45" y1="37.93" y2="60.30" stroke="#a23a3a" stroke-width="1"/>
<rect x="52.81" y="51.85" width="9.28" height="3.60" fill="#a23a3a" opacity="0.82"/>
<line x1="74.89" x2="74.89" y1="50.33" y2="101.52" stroke="#a23a3a" stroke-width="1"/>
<rect x="70.25" y="55.45" width="9.28" height="29.16" fill="#a23a3a" opacity="0.82"/>
<line x1="92.34" x2="92.34" y1="80.67" y2="138.23" stroke="#a23a3a" stroke-width="1"/>
<rect x="87.70" y="84.61" width="9.28" height="31.10" fill="#a23a3a" opacity="0.82"/>
<line x1="109.79" x2="109.79" y1="91.40" y2="125.69" stroke="#176c4c" stroke-width="1"/>
<rect x="105.15" y="91.40" width="9.28" height="24.31" fill="#176c4c" opacity="0.82"/>
<line x1="127.23" x2="127.23" y1="87.87" y2="132.34" stroke="#a23a3a" stroke-width="1"/>
<rect x="122.59" y="91.33" width="9.28" height="29.99" fill="#a23a3a" opacity="0.82"/>
<line x1="144.68" x2="144.68" y1="97.57" y2="134.69" stroke="#176c4c" stroke-width="1"/>
<rect x="140.04" y="111.49" width="9.28" height="9.84" fill="#176c4c" opacity="0.82"/>
<line x1="162.13" x2="162.13" y1="99.78" y2="131.09" stroke="#a23a3a" stroke-width="1"/>
<rect x="157.49" y="111.49" width="9.28" height="2.15" fill="#a23a3a" opacity="0.82"/>
<line x1="179.57" x2="179.57" y1="89.12" y2="125.90" stroke="#176c4c" stroke-width="1"/>
<rect x="174.93" y="102.35" width="9.28" height="11.29" fill="#176c4c" opacity="0.82"/>
<line x1="197.02" x2="197.02" y1="100.55" y2="127.21" stroke="#a23a3a" stroke-width="1"/>
<rect x="192.38" y="102.35" width="9.28" height="2.08" fill="#a23a3a" opacity="0.82"/>
<line x1="214.47" x2="214.47" y1="91.06" y2="124.30" stroke="#176c4c" stroke-width="1"/>
<rect x="209.83" y="100.61" width="9.28" height="3.81" fill="#176c4c" opacity="0.82"/>
<line x1="231.91" x2="231.91" y1="80.87" y2="102.55" stroke="#176c4c" stroke-width="1"/>
<rect x="227.27" y="86.21" width="9.28" height="14.41" fill="#176c4c" opacity="0.82"/>
<line x1="249.36" x2="249.36" y1="81.29" y2="95.42" stroke="#a23a3a" stroke-width="1"/>
<rect x="244.72" y="86.35" width="9.28" height="5.33" fill="#a23a3a" opacity="0.82"/>
<line x1="266.81" x2="266.81" y1="56.01" y2="105.19" stroke="#176c4c" stroke-width="1"/>
<rect x="262.17" y="87.39" width="9.28" height="4.29" fill="#176c4c" opacity="0.82"/>
<line x1="284.26" x2="284.26" y1="66.40" y2="98.40" stroke="#176c4c" stroke-width="1"/>
<rect x="279.61" y="77.90" width="9.28" height="9.49" fill="#176c4c" opacity="0.82"/>
<line x1="301.70" x2="301.70" y1="64.32" y2="83.92" stroke="#176c4c" stroke-width="1"/>
<rect x="297.06" y="75.82" width="9.28" height="2.08" fill="#176c4c" opacity="0.82"/>
<line x1="319.15" x2="319.15" y1="75.75" y2="102.62" stroke="#a23a3a" stroke-width="1"/>
<rect x="314.51" y="75.82" width="9.28" height="13.85" fill="#a23a3a" opacity="0.82"/>
<line x1="336.60" x2="336.60" y1="89.12" y2="123.06" stroke="#a23a3a" stroke-width="1"/>
<rect x="331.96" y="89.39" width="9.28" height="10.32" fill="#a23a3a" opacity="0.82"/>
<line x1="354.04" x2="354.04" y1="96.87" y2="120.56" stroke="#a23a3a" stroke-width="1"/>
<rect x="349.40" y="99.51" width="9.28" height="10.87" fill="#a23a3a" opacity="0.82"/>
<line x1="371.49" x2="371.49" y1="67.16" y2="114.19" stroke="#176c4c" stroke-width="1"/>
<rect x="366.85" y="81.36" width="9.28" height="29.02" fill="#176c4c" opacity="0.82"/>
<line x1="388.94" x2="388.94" y1="80.32" y2="101.10" stroke="#a23a3a" stroke-width="1"/>
<rect x="384.30" y="81.36" width="9.28" height="12.54" fill="#a23a3a" opacity="0.82"/>
<line x1="406.38" x2="406.38" y1="93.90" y2="128.18" stroke="#a23a3a" stroke-width="1"/>
<rect x="401.74" y="93.90" width="9.28" height="29.78" fill="#a23a3a" opacity="0.82"/>
<line x1="423.83" x2="423.83" y1="114.05" y2="157.76" stroke="#a23a3a" stroke-width="1"/>
<rect x="419.19" y="123.61" width="9.28" height="29.44" fill="#a23a3a" opacity="0.82"/>
<line x1="441.28" x2="441.28" y1="147.16" y2="236.51" stroke="#a23a3a" stroke-width="1"/>
<rect x="436.64" y="153.05" width="9.28" height="71.69" fill="#a23a3a" opacity="0.82"/>
<line x1="458.72" x2="458.72" y1="215.73" y2="262.07" stroke="#a23a3a" stroke-width="1"/>
<rect x="454.08" y="224.74" width="9.28" height="20.09" fill="#a23a3a" opacity="0.82"/>
<line x1="476.17" x2="476.17" y1="218.64" y2="254.73" stroke="#176c4c" stroke-width="1"/>
<rect x="471.53" y="233.46" width="9.28" height="11.50" fill="#176c4c" opacity="0.82"/>
<line x1="493.62" x2="493.62" y1="184.22" y2="236.10" stroke="#176c4c" stroke-width="1"/>
<rect x="488.98" y="213.51" width="9.28" height="19.95" fill="#176c4c" opacity="0.82"/>
<line x1="511.06" x2="511.06" y1="184.22" y2="219.68" stroke="#176c4c" stroke-width="1"/>
<rect x="506.42" y="186.50" width="9.28" height="26.53" fill="#176c4c" opacity="0.82"/>
<line x1="528.51" x2="528.51" y1="177.57" y2="199.80" stroke="#a23a3a" stroke-width="1"/>
<rect x="523.87" y="186.50" width="9.28" height="5.96" fill="#a23a3a" opacity="0.82"/>
<line x1="545.96" x2="545.96" y1="174.59" y2="208.32" stroke="#176c4c" stroke-width="1"/>
<rect x="541.32" y="192.11" width="9.28" height="1.50" fill="#176c4c" opacity="0.82"/>
<line x1="563.40" x2="563.40" y1="180.68" y2="208.32" stroke="#a23a3a" stroke-width="1"/>
<rect x="558.76" y="192.04" width="9.28" height="4.92" fill="#a23a3a" opacity="0.82"/>
<line x1="580.85" x2="580.85" y1="128.94" y2="198.42" stroke="#176c4c" stroke-width="1"/>
<rect x="576.21" y="130.12" width="9.28" height="66.63" fill="#176c4c" opacity="0.82"/>
<line x1="598.30" x2="598.30" y1="108.51" y2="131.58" stroke="#176c4c" stroke-width="1"/>
<rect x="593.66" y="111.56" width="9.28" height="18.77" fill="#176c4c" opacity="0.82"/>
<line x1="615.74" x2="615.74" y1="105.74" y2="127.14" stroke="#a23a3a" stroke-width="1"/>
<rect x="611.10" y="111.56" width="9.28" height="9.35" fill="#a23a3a" opacity="0.82"/>
<line x1="633.19" x2="633.19" y1="117.65" y2="161.71" stroke="#a23a3a" stroke-width="1"/>
<rect x="628.55" y="120.91" width="9.28" height="25.97" fill="#a23a3a" opacity="0.82"/>
<line x1="650.64" x2="650.64" y1="146.81" y2="169.39" stroke="#a23a3a" stroke-width="1"/>
<rect x="646.00" y="146.88" width="9.28" height="12.40" fill="#a23a3a" opacity="0.82"/>
<line x1="668.09" x2="668.09" y1="147.71" y2="169.19" stroke="#a23a3a" stroke-width="1"/>
<rect x="663.44" y="159.21" width="9.28" height="5.13" fill="#a23a3a" opacity="0.82"/>
<line x1="685.53" x2="685.53" y1="150.69" y2="177.64" stroke="#a23a3a" stroke-width="1"/>
<rect x="680.89" y="164.34" width="9.28" height="11.43" fill="#a23a3a" opacity="0.82"/>
<line x1="702.98" x2="702.98" y1="168.98" y2="187.54" stroke="#176c4c" stroke-width="1"/>
<rect x="698.34" y="175.28" width="9.28" height="1.50" fill="#176c4c" opacity="0.82"/>
<line x1="720.43" x2="720.43" y1="152.70" y2="179.23" stroke="#176c4c" stroke-width="1"/>
<rect x="715.78" y="157.34" width="9.28" height="17.94" fill="#176c4c" opacity="0.82"/>
<line x1="737.87" x2="737.87" y1="140.72" y2="160.18" stroke="#176c4c" stroke-width="1"/>
<rect x="733.23" y="151.52" width="9.28" height="5.82" fill="#176c4c" opacity="0.82"/>
<line x1="755.32" x2="755.32" y1="125.90" y2="155.68" stroke="#176c4c" stroke-width="1"/>
<rect x="750.68" y="126.73" width="9.28" height="24.80" fill="#176c4c" opacity="0.82"/>
<line x1="772.77" x2="772.77" y1="125.62" y2="150.48" stroke="#a23a3a" stroke-width="1"/>
<rect x="768.13" y="126.73" width="9.28" height="18.35" fill="#a23a3a" opacity="0.82"/>
<line x1="790.21" x2="790.21" y1="142.66" y2="165.65" stroke="#a23a3a" stroke-width="1"/>
<rect x="785.57" y="145.08" width="9.28" height="4.92" fill="#a23a3a" opacity="0.82"/>
<line x1="807.66" x2="807.66" y1="135.59" y2="154.29" stroke="#176c4c" stroke-width="1"/>
<rect x="803.02" y="139.26" width="9.28" height="10.74" fill="#176c4c" opacity="0.82"/>
<line x1="825.11" x2="825.11" y1="135.66" y2="162.88" stroke="#a23a3a" stroke-width="1"/>
<rect x="820.47" y="139.26" width="9.28" height="20.09" fill="#a23a3a" opacity="0.82"/>
<line x1="842.55" x2="842.55" y1="130.33" y2="159.35" stroke="#176c4c" stroke-width="1"/>
<rect x="837.91" y="132.06" width="9.28" height="27.29" fill="#176c4c" opacity="0.82"/>
<line x1="860.00" x2="860.00" y1="124.44" y2="139.82" stroke="#176c4c" stroke-width="1"/>
<rect x="855.36" y="132.06" width="9.28" height="1.50" fill="#176c4c" opacity="0.82"/>
<line x1="40" x2="860" y1="134.35" y2="134.35" stroke="#111827" stroke-dasharray="5 4"/>
<rect x="40" y="101.10" width="820" height="12.95" fill="#d97706" opacity="0.20"/>
<text x="45" y="128.35" font-family="Arial" font-size="11">C1 4500.42</text>
<text x="45" y="95.10" font-family="Arial" font-size="11">FVG</text>
</svg>