<svg xmlns="http://www.w3.org/2000/svg" width="900" height="320" viewBox="0 0 900 320">
<rect width="100%" height="100%" fill="#fbfbf8"/>
<text x="40" y="18" font-family="Arial" font-size="13">v3_sample_025 LONG IFVG</text>
<line x1="40.00" x2="40.00" y1="236.55" y2="262.07" stroke="#176c4c" stroke-width="1"/>
<rect x="35.36" y="239.07" width="9.28" height="10.72" fill="#176c4c" opacity="0.82"/>
<line x1="57.45" x2="57.45" y1="227.91" y2="244.31" stroke="#176c4c" stroke-width="1"/>
<rect x="52.81" y="237.86" width="9.28" height="1.50" fill="#176c4c" opacity="0.82"/>
<line x1="74.89" x2="74.89" y1="226.75" y2="237.86" stroke="#176c4c" stroke-width="1"/>
<rect x="70.25" y="227.62" width="9.28" height="10.24" fill="#176c4c" opacity="0.82"/>
<line x1="92.34" x2="92.34" y1="206.67" y2="228.06" stroke="#176c4c" stroke-width="1"/>
<rect x="87.70" y="213.55" width="9.28" height="14.02" fill="#176c4c" opacity="0.82"/>
<line x1="109.79" x2="109.79" y1="204.38" y2="216.90" stroke="#a23a3a" stroke-width="1"/>
<rect x="105.15" y="213.55" width="9.28" height="1.50" fill="#a23a3a" opacity="0.82"/>
<line x1="127.23" x2="127.23" y1="206.28" y2="221.37" stroke="#176c4c" stroke-width="1"/>
<rect x="122.59" y="209.77" width="9.28" height="4.08" fill="#176c4c" opacity="0.82"/>
<line x1="144.68" x2="144.68" y1="201.38" y2="214.04" stroke="#176c4c" stroke-width="1"/>
<rect x="140.04" y="202.20" width="9.28" height="7.57" fill="#176c4c" opacity="0.82"/>
<line x1="162.13" x2="162.13" y1="201.52" y2="212.58" stroke="#a23a3a" stroke-width="1"/>
<rect x="157.49" y="202.20" width="9.28" height="5.72" fill="#a23a3a" opacity="0.82"/>
<line x1="179.57" x2="179.57" y1="185.90" y2="207.93" stroke="#176c4c" stroke-width="1"/>
<rect x="174.93" y="193.42" width="9.28" height="14.51" fill="#176c4c" opacity="0.82"/>
<line x1="197.02" x2="197.02" y1="174.99" y2="196.09" stroke="#176c4c" stroke-width="1"/>
<rect x="192.38" y="180.61" width="9.28" height="12.71" fill="#176c4c" opacity="0.82"/>
<line x1="214.47" x2="214.47" y1="170.33" y2="181.53" stroke="#176c4c" stroke-width="1"/>
<rect x="209.83" y="176.44" width="9.28" height="4.17" fill="#176c4c" opacity="0.82"/>
<line x1="231.91" x2="231.91" y1="165.28" y2="189.49" stroke="#a23a3a" stroke-width="1"/>
<rect x="227.27" y="176.44" width="9.28" height="6.50" fill="#a23a3a" opacity="0.82"/>
<line x1="249.36" x2="249.36" y1="156.60" y2="184.98" stroke="#176c4c" stroke-width="1"/>
<rect x="244.72" y="159.70" width="9.28" height="23.29" fill="#176c4c" opacity="0.82"/>
<line x1="266.81" x2="266.81" y1="150.34" y2="189.59" stroke="#a23a3a" stroke-width="1"/>
<rect x="262.17" y="159.70" width="9.28" height="24.06" fill="#a23a3a" opacity="0.82"/>
<line x1="284.26" x2="284.26" y1="183.52" y2="225.68" stroke="#a23a3a" stroke-width="1"/>
<rect x="279.61" y="183.67" width="9.28" height="36.53" fill="#a23a3a" opacity="0.82"/>
<line x1="301.70" x2="301.70" y1="173.34" y2="226.36" stroke="#176c4c" stroke-width="1"/>
<rect x="297.06" y="179.25" width="9.28" height="40.95" fill="#176c4c" opacity="0.82"/>
<line x1="319.15" x2="319.15" y1="169.60" y2="214.57" stroke="#a23a3a" stroke-width="1"/>
<rect x="314.51" y="179.25" width="9.28" height="31.19" fill="#a23a3a" opacity="0.82"/>
<line x1="336.60" x2="336.60" y1="177.85" y2="216.22" stroke="#176c4c" stroke-width="1"/>
<rect x="331.96" y="181.78" width="9.28" height="28.67" fill="#176c4c" opacity="0.82"/>
<line x1="354.04" x2="354.04" y1="166.11" y2="190.12" stroke="#176c4c" stroke-width="1"/>
<rect x="349.40" y="177.27" width="9.28" height="4.51" fill="#176c4c" opacity="0.82"/>
<line x1="371.49" x2="371.49" y1="157.52" y2="177.65" stroke="#176c4c" stroke-width="1"/>
<rect x="366.85" y="172.27" width="9.28" height="5.00" fill="#176c4c" opacity="0.82"/>
<line x1="388.94" x2="388.94" y1="168.63" y2="197.54" stroke="#a23a3a" stroke-width="1"/>
<rect x="384.30" y="172.27" width="9.28" height="24.35" fill="#a23a3a" opacity="0.82"/>
<line x1="406.38" x2="406.38" y1="190.75" y2="205.16" stroke="#a23a3a" stroke-width="1"/>
<rect x="401.74" y="196.62" width="9.28" height="8.10" fill="#a23a3a" opacity="0.82"/>
<line x1="423.83" x2="423.83" y1="187.02" y2="211.47" stroke="#176c4c" stroke-width="1"/>
<rect x="419.19" y="190.36" width="9.28" height="14.36" fill="#176c4c" opacity="0.82"/>
<line x1="441.28" x2="441.28" y1="121.81" y2="193.91" stroke="#176c4c" stroke-width="1"/>
<rect x="436.64" y="134.14" width="9.28" height="56.28" fill="#176c4c" opacity="0.82"/>
<line x1="458.72" x2="458.72" y1="103.47" y2="133.70" stroke="#176c4c" stroke-width="1"/>
<rect x="454.08" y="125.74" width="9.28" height="7.33" fill="#176c4c" opacity="0.82"/>
<line x1="476.17" x2="476.17" y1="109.10" y2="135.49" stroke="#a23a3a" stroke-width="1"/>
<rect x="471.53" y="125.74" width="9.28" height="2.91" fill="#a23a3a" opacity="0.82"/>
<line x1="493.62" x2="493.62" y1="110.02" y2="140.69" stroke="#176c4c" stroke-width="1"/>
<rect x="488.98" y="112.01" width="9.28" height="16.64" fill="#176c4c" opacity="0.82"/>
<line x1="511.06" x2="511.06" y1="105.95" y2="141.27" stroke="#a23a3a" stroke-width="1"/>
<rect x="506.42" y="111.87" width="9.28" height="25.62" fill="#a23a3a" opacity="0.82"/>
<line x1="528.51" x2="528.51" y1="120.99" y2="138.07" stroke="#176c4c" stroke-width="1"/>
<rect x="523.87" y="136.03" width="9.28" height="1.50" fill="#176c4c" opacity="0.82"/>
<line x1="545.96" x2="545.96" y1="122.35" y2="149.27" stroke="#a23a3a" stroke-width="1"/>
<rect x="541.32" y="136.03" width="9.28" height="1.50" fill="#a23a3a" opacity="0.82"/>
<line x1="563.40" x2="563.40" y1="134.09" y2="171.88" stroke="#a23a3a" stroke-width="1"/>
<rect x="558.76" y="137.24" width="9.28" height="20.67" fill="#a23a3a" opacity="0.82"/>
<line x1="580.85" x2="580.85" y1="141.85" y2="163.44" stroke="#176c4c" stroke-width="1"/>
<rect x="576.21" y="143.50" width="9.28" height="14.26" fill="#176c4c" opacity="0.82"/>
<line x1="598.30" x2="598.30" y1="99.21" y2="143.45" stroke="#176c4c" stroke-width="1"/>
<rect x="593.66" y="100.18" width="9.28" height="43.28" fill="#176c4c" opacity="0.82"/>
<line x1="615.74" x2="615.74" y1="83.49" y2="100.27" stroke="#176c4c" stroke-width="1"/>
<rect x="611.10" y="89.26" width="9.28" height="10.92" fill="#176c4c" opacity="0.82"/>
<line x1="633.19" x2="633.19" y1="73.64" y2="91.35" stroke="#176c4c" stroke-width="1"/>
<rect x="628.55" y="86.01" width="9.28" height="3.25" fill="#176c4c" opacity="0.82"/>
<line x1="650.64" x2="650.64" y1="37.93" y2="92.51" stroke="#176c4c" stroke-width="1"/>
<rect x="646.00" y="43.36" width="9.28" height="42.64" fill="#176c4c" opacity="0.82"/>
<line x1="668.09" x2="668.09" y1="43.36" y2="65.88" stroke="#a23a3a" stroke-width="1"/>
<rect x="663.44" y="43.36" width="9.28" height="10.62" fill="#a23a3a" opacity="0.82"/>
<line x1="685.53" x2="685.53" y1="51.32" y2="82.03" stroke="#a23a3a" stroke-width="1"/>
<rect x="680.89" y="53.99" width="9.28" height="25.86" fill="#a23a3a" opacity="0.82"/>
<line x1="702.98" x2="702.98" y1="78.39" y2="108.28" stroke="#a23a3a" stroke-width="1"/>
<rect x="698.34" y="79.85" width="9.28" height="23.53" fill="#a23a3a" opacity="0.82"/>
<line x1="720.43" x2="720.43" y1="84.75" y2="103.38" stroke="#176c4c" stroke-width="1"/>
<rect x="715.78" y="88.92" width="9.28" height="14.46" fill="#176c4c" opacity="0.82"/>
<line x1="737.87" x2="737.87" y1="81.01" y2="97.75" stroke="#a23a3a" stroke-width="1"/>
<rect x="733.23" y="88.97" width="9.28" height="3.64" fill="#a23a3a" opacity="0.82"/>
<line x1="755.32" x2="755.32" y1="82.52" y2="113.86" stroke="#a23a3a" stroke-width="1"/>
<rect x="750.68" y="92.61" width="9.28" height="9.22" fill="#a23a3a" opacity="0.82"/>
<line x1="772.77" x2="772.77" y1="95.28" y2="162.90" stroke="#a23a3a" stroke-width="1"/>
<rect x="768.13" y="101.87" width="9.28" height="39.98" fill="#a23a3a" opacity="0.82"/>
<line x1="790.21" x2="790.21" y1="122.73" y2="146.99" stroke="#a23a3a" stroke-width="1"/>
<rect x="785.57" y="141.85" width="9.28" height="5.09" fill="#a23a3a" opacity="0.82"/>
<line x1="807.66" x2="807.66" y1="116.91" y2="155.53" stroke="#176c4c" stroke-width="1"/>
<rect x="803.02" y="116.91" width="9.28" height="30.03" fill="#176c4c" opacity="0.82"/>
<line x1="825.11" x2="825.11" y1="111.77" y2="136.37" stroke="#a23a3a" stroke-width="1"/>
<rect x="820.47" y="116.91" width="9.28" height="1.50" fill="#a23a3a" opacity="0.82"/>
<line x1="842.55" x2="842.55" y1="114.54" y2="136.17" stroke="#a23a3a" stroke-width="1"/>
<rect x="837.91" y="117.69" width="9.28" height="15.04" fill="#a23a3a" opacity="0.82"/>
<line x1="860.00" x2="860.00" y1="111.87" y2="143.30" stroke="#176c4c" stroke-width="1"/>
<rect x="855.36" y="112.55" width="9.28" height="20.18" fill="#176c4c" opacity="0.82"/>
<line x1="40" x2="860" y1="203.66" y2="203.66" stroke="#111827" stroke-dasharray="5 4"/>
<rect x="40" y="205.21" width="820" height="3.54" fill="#d97706" opacity="0.20"/>
<text x="45" y="197.66" font-family="Arial" font-size="11">C1 4698.62</text>
<text x="45" y="199.21" font-family="Arial" font-size="11">IFVG</text>
</svg>