<svg xmlns="http://www.w3.org/2000/svg" width="900" height="320" viewBox="0 0 900 320">
<rect width="100%" height="100%" fill="#fbfbf8"/>
<text x="40" y="18" font-family="Arial" font-size="13">v3_sample_006 SHORT IFVG</text>
<line x1="40.00" x2="40.00" y1="161.93" y2="195.72" stroke="#176c4c" stroke-width="1"/>
<rect x="35.36" y="184.14" width="9.28" height="1.50" fill="#176c4c" opacity="0.82"/>
<line x1="57.45" x2="57.45" y1="125.66" y2="200.97" stroke="#176c4c" stroke-width="1"/>
<rect x="52.81" y="133.38" width="9.28" height="51.45" fill="#176c4c" opacity="0.82"/>
<line x1="74.89" x2="74.89" y1="122.62" y2="161.38" stroke="#176c4c" stroke-width="1"/>
<rect x="70.25" y="122.76" width="9.28" height="10.34" fill="#176c4c" opacity="0.82"/>
<line x1="92.34" x2="92.34" y1="113.52" y2="203.03" stroke="#a23a3a" stroke-width="1"/>
<rect x="87.70" y="124.55" width="9.28" height="76.14" fill="#a23a3a" opacity="0.82"/>
<line x1="109.79" x2="109.79" y1="161.24" y2="221.66" stroke="#176c4c" stroke-width="1"/>
<rect x="105.15" y="184.69" width="9.28" height="14.90" fill="#176c4c" opacity="0.82"/>
<line x1="127.23" x2="127.23" y1="178.90" y2="213.79" stroke="#a23a3a" stroke-width="1"/>
<rect x="122.59" y="184.41" width="9.28" height="17.10" fill="#a23a3a" opacity="0.82"/>
<line x1="144.68" x2="144.68" y1="194.21" y2="246.48" stroke="#a23a3a" stroke-width="1"/>
<rect x="140.04" y="201.10" width="9.28" height="26.34" fill="#a23a3a" opacity="0.82"/>
<line x1="162.13" x2="162.13" y1="187.17" y2="262.07" stroke="#176c4c" stroke-width="1"/>
<rect x="157.49" y="207.86" width="9.28" height="14.90" fill="#176c4c" opacity="0.82"/>
<line x1="179.57" x2="179.57" y1="176.14" y2="251.86" stroke="#176c4c" stroke-width="1"/>
<rect x="174.93" y="204.69" width="9.28" height="2.76" fill="#176c4c" opacity="0.82"/>
<line x1="197.02" x2="197.02" y1="135.17" y2="252.97" stroke="#176c4c" stroke-width="1"/>
<rect x="192.38" y="136.14" width="9.28" height="68.00" fill="#176c4c" opacity="0.82"/>
<line x1="214.47" x2="214.47" y1="82.21" y2="141.52" stroke="#176c4c" stroke-width="1"/>
<rect x="209.83" y="84.69" width="9.28" height="51.45" fill="#176c4c" opacity="0.82"/>
<line x1="231.91" x2="231.91" y1="64.55" y2="133.66" stroke="#a23a3a" stroke-width="1"/>
<rect x="227.27" y="78.34" width="9.28" height="1.50" fill="#a23a3a" opacity="0.82"/>
<line x1="249.36" x2="249.36" y1="72.41" y2="112.69" stroke="#a23a3a" stroke-width="1"/>
<rect x="244.72" y="80.14" width="9.28" height="16.00" fill="#a23a3a" opacity="0.82"/>
<line x1="266.81" x2="266.81" y1="91.03" y2="147.17" stroke="#a23a3a" stroke-width="1"/>
<rect x="262.17" y="96.97" width="9.28" height="39.31" fill="#a23a3a" opacity="0.82"/>
<line x1="284.26" x2="284.26" y1="108.41" y2="147.45" stroke="#a23a3a" stroke-width="1"/>
<rect x="279.61" y="136.83" width="9.28" height="8.83" fill="#a23a3a" opacity="0.82"/>
<line x1="301.70" x2="301.70" y1="136.00" y2="161.24" stroke="#176c4c" stroke-width="1"/>
<rect x="297.06" y="139.72" width="9.28" height="7.31" fill="#176c4c" opacity="0.82"/>
<line x1="319.15" x2="319.15" y1="118.62" y2="139.72" stroke="#176c4c" stroke-width="1"/>
<rect x="314.51" y="132.28" width="9.28" height="7.45" fill="#176c4c" opacity="0.82"/>
<line x1="336.60" x2="336.60" y1="111.86" y2="156.97" stroke="#a23a3a" stroke-width="1"/>
<rect x="331.96" y="132.14" width="9.28" height="10.48" fill="#a23a3a" opacity="0.82"/>
<line x1="354.04" x2="354.04" y1="137.52" y2="161.24" stroke="#a23a3a" stroke-width="1"/>
<rect x="349.40" y="143.45" width="9.28" height="2.07" fill="#a23a3a" opacity="0.82"/>
<line x1="371.49" x2="371.49" y1="140.28" y2="167.45" stroke="#a23a3a" stroke-width="1"/>
<rect x="366.85" y="143.45" width="9.28" height="3.31" fill="#a23a3a" opacity="0.82"/>
<line x1="388.94" x2="388.94" y1="107.86" y2="170.48" stroke="#176c4c" stroke-width="1"/>
<rect x="384.30" y="107.86" width="9.28" height="39.72" fill="#176c4c" opacity="0.82"/>
<line x1="406.38" x2="406.38" y1="99.45" y2="165.38" stroke="#a23a3a" stroke-width="1"/>
<rect x="401.74" y="107.86" width="9.28" height="53.10" fill="#a23a3a" opacity="0.82"/>
<line x1="423.83" x2="423.83" y1="150.34" y2="224.28" stroke="#a23a3a" stroke-width="1"/>
<rect x="419.19" y="161.52" width="9.28" height="43.03" fill="#a23a3a" opacity="0.82"/>
<line x1="441.28" x2="441.28" y1="182.90" y2="224.97" stroke="#176c4c" stroke-width="1"/>
<rect x="436.64" y="194.21" width="9.28" height="10.21" fill="#176c4c" opacity="0.82"/>
<line x1="458.72" x2="458.72" y1="162.48" y2="209.93" stroke="#176c4c" stroke-width="1"/>
<rect x="454.08" y="190.34" width="9.28" height="3.72" fill="#176c4c" opacity="0.82"/>
<line x1="476.17" x2="476.17" y1="136.83" y2="196.14" stroke="#176c4c" stroke-width="1"/>
<rect x="471.53" y="156.55" width="9.28" height="35.45" fill="#176c4c" opacity="0.82"/>
<line x1="493.62" x2="493.62" y1="144.69" y2="184.41" stroke="#176c4c" stroke-width="1"/>
<rect x="488.98" y="153.66" width="9.28" height="3.17" fill="#176c4c" opacity="0.82"/>
<line x1="511.06" x2="511.06" y1="107.03" y2="160.83" stroke="#176c4c" stroke-width="1"/>
<rect x="506.42" y="123.59" width="9.28" height="33.10" fill="#176c4c" opacity="0.82"/>
<line x1="528.51" x2="528.51" y1="107.17" y2="132.83" stroke="#176c4c" stroke-width="1"/>
<rect x="523.87" y="122.34" width="9.28" height="6.21" fill="#176c4c" opacity="0.82"/>
<line x1="545.96" x2="545.96" y1="95.59" y2="146.62" stroke="#176c4c" stroke-width="1"/>
<rect x="541.32" y="103.72" width="9.28" height="14.48" fill="#176c4c" opacity="0.82"/>
<line x1="563.40" x2="563.40" y1="63.45" y2="104.00" stroke="#176c4c" stroke-width="1"/>
<rect x="558.76" y="63.45" width="9.28" height="40.55" fill="#176c4c" opacity="0.82"/>
<line x1="580.85" x2="580.85" y1="55.03" y2="89.93" stroke="#a23a3a" stroke-width="1"/>
<rect x="576.21" y="62.62" width="9.28" height="1.93" fill="#a23a3a" opacity="0.82"/>
<line x1="598.30" x2="598.30" y1="64.28" y2="100.00" stroke="#a23a3a" stroke-width="1"/>
<rect x="593.66" y="64.28" width="9.28" height="24.41" fill="#a23a3a" opacity="0.82"/>
<line x1="615.74" x2="615.74" y1="54.62" y2="89.79" stroke="#176c4c" stroke-width="1"/>
<rect x="611.10" y="64.00" width="9.28" height="25.38" fill="#176c4c" opacity="0.82"/>
<line x1="633.19" x2="633.19" y1="60.41" y2="90.76" stroke="#a23a3a" stroke-width="1"/>
<rect x="628.55" y="63.72" width="9.28" height="4.97" fill="#a23a3a" opacity="0.82"/>
<line x1="650.64" x2="650.64" y1="68.14" y2="133.10" stroke="#a23a3a" stroke-width="1"/>
<rect x="646.00" y="68.55" width="9.28" height="54.34" fill="#a23a3a" opacity="0.82"/>
<line x1="668.09" x2="668.09" y1="103.59" y2="124.14" stroke="#176c4c" stroke-width="1"/>
<rect x="663.44" y="113.93" width="9.28" height="8.69" fill="#176c4c" opacity="0.82"/>
<line x1="685.53" x2="685.53" y1="104.00" y2="132.41" stroke="#a23a3a" stroke-width="1"/>
<rect x="680.89" y="114.07" width="9.28" height="16.00" fill="#a23a3a" opacity="0.82"/>
<line x1="702.98" x2="702.98" y1="113.10" y2="146.34" stroke="#a23a3a" stroke-width="1"/>
<rect x="698.34" y="130.90" width="9.28" height="12.28" fill="#a23a3a" opacity="0.82"/>
<line x1="720.43" x2="720.43" y1="112.00" y2="153.10" stroke="#176c4c" stroke-width="1"/>
<rect x="715.78" y="116.55" width="9.28" height="26.76" fill="#176c4c" opacity="0.82"/>
<line x1="737.87" x2="737.87" y1="108.97" y2="132.97" stroke="#a23a3a" stroke-width="1"/>
<rect x="733.23" y="116.69" width="9.28" height="1.93" fill="#a23a3a" opacity="0.82"/>
<line x1="755.32" x2="755.32" y1="88.97" y2="118.34" stroke="#176c4c" stroke-width="1"/>
<rect x="750.68" y="95.31" width="9.28" height="21.93" fill="#176c4c" opacity="0.82"/>
<line x1="772.77" x2="772.77" y1="55.72" y2="97.38" stroke="#176c4c" stroke-width="1"/>
<rect x="768.13" y="59.17" width="9.28" height="35.72" fill="#176c4c" opacity="0.82"/>
<line x1="790.21" x2="790.21" y1="49.52" y2="80.28" stroke="#a23a3a" stroke-width="1"/>
<rect x="785.57" y="58.90" width="9.28" height="2.62" fill="#a23a3a" opacity="0.82"/>
<line x1="807.66" x2="807.66" y1="54.21" y2="75.03" stroke="#a23a3a" stroke-width="1"/>
<rect x="803.02" y="64.28" width="9.28" height="4.55" fill="#a23a3a" opacity="0.82"/>
<line x1="825.11" x2="825.11" y1="65.24" y2="90.90" stroke="#a23a3a" stroke-width="1"/>
<rect x="820.47" y="69.79" width="9.28" height="18.34" fill="#a23a3a" opacity="0.82"/>
<line x1="842.55" x2="842.55" y1="61.93" y2="89.66" stroke="#176c4c" stroke-width="1"/>
<rect x="837.91" y="84.83" width="9.28" height="4.00" fill="#176c4c" opacity="0.82"/>
<line x1="860.00" x2="860.00" y1="37.93" y2="84.69" stroke="#176c4c" stroke-width="1"/>
<rect x="855.36" y="47.31" width="9.28" height="37.38" fill="#176c4c" opacity="0.82"/>
<line x1="40" x2="860" y1="234.21" y2="234.21" stroke="#111827" stroke-dasharray="5 4"/>
<rect x="40" y="192.41" width="820" height="19.59" fill="#d97706" opacity="0.20"/>
<text x="45" y="228.21" font-family="Arial" font-size="11">C1 3370.76</text>
<text x="45" y="186.41" font-family="Arial" font-size="11">IFVG</text>
</svg>