<svg xmlns="http://www.w3.org/2000/svg" width="900" height="320" viewBox="0 0 900 320">
<rect width="100%" height="100%" fill="#fbfbf8"/>
<text x="40" y="18" font-family="Arial" font-size="13">v3_sample_024 LONG FVG</text>
<line x1="40.00" x2="40.00" y1="175.32" y2="262.07" stroke="#176c4c" stroke-width="1"/>
<rect x="34.82" y="176.91" width="10.36" height="48.95" fill="#176c4c" opacity="0.82"/>
<line x1="59.52" x2="59.52" y1="176.42" y2="218.48" stroke="#a23a3a" stroke-width="1"/>
<rect x="54.34" y="176.91" width="10.36" height="13.73" fill="#a23a3a" opacity="0.82"/>
<line x1="79.05" x2="79.05" y1="153.39" y2="215.03" stroke="#a23a3a" stroke-width="1"/>
<rect x="73.87" y="188.67" width="10.36" height="2.19" fill="#a23a3a" opacity="0.82"/>
<line x1="98.57" x2="98.57" y1="156.13" y2="201.41" stroke="#176c4c" stroke-width="1"/>
<rect x="93.39" y="174.50" width="10.36" height="16.57" fill="#176c4c" opacity="0.82"/>
<line x1="118.10" x2="118.10" y1="146.61" y2="181.61" stroke="#176c4c" stroke-width="1"/>
<rect x="112.92" y="163.35" width="10.36" height="11.16" fill="#176c4c" opacity="0.82"/>
<line x1="137.62" x2="137.62" y1="155.63" y2="181.29" stroke="#a23a3a" stroke-width="1"/>
<rect x="132.44" y="163.35" width="10.36" height="14.60" fill="#a23a3a" opacity="0.82"/>
<line x1="157.14" x2="157.14" y1="169.74" y2="212.68" stroke="#a23a3a" stroke-width="1"/>
<rect x="151.96" y="177.95" width="10.36" height="27.68" fill="#a23a3a" opacity="0.82"/>
<line x1="176.67" x2="176.67" y1="196.16" y2="216.45" stroke="#176c4c" stroke-width="1"/>
<rect x="171.49" y="199.61" width="10.36" height="6.02" fill="#176c4c" opacity="0.82"/>
<line x1="196.19" x2="196.19" y1="190.97" y2="219.68" stroke="#a23a3a" stroke-width="1"/>
<rect x="191.01" y="199.77" width="10.36" height="14.49" fill="#a23a3a" opacity="0.82"/>
<line x1="215.71" x2="215.71" y1="210.98" y2="238.88" stroke="#a23a3a" stroke-width="1"/>
<rect x="210.53" y="214.16" width="10.36" height="16.63" fill="#a23a3a" opacity="0.82"/>
<line x1="235.24" x2="235.24" y1="205.79" y2="242.49" stroke="#176c4c" stroke-width="1"/>
<rect x="230.06" y="217.77" width="10.36" height="13.02" fill="#176c4c" opacity="0.82"/>
<line x1="254.76" x2="254.76" y1="209.18" y2="227.17" stroke="#a23a3a" stroke-width="1"/>
<rect x="249.58" y="217.77" width="10.36" height="2.84" fill="#a23a3a" opacity="0.82"/>
<line x1="274.29" x2="274.29" y1="199.66" y2="227.83" stroke="#176c4c" stroke-width="1"/>
<rect x="269.11" y="202.94" width="10.36" height="17.67" fill="#176c4c" opacity="0.82"/>
<line x1="293.81" x2="293.81" y1="187.96" y2="216.73" stroke="#176c4c" stroke-width="1"/>
<rect x="288.63" y="190.80" width="10.36" height="12.09" fill="#176c4c" opacity="0.82"/>
<line x1="313.33" x2="313.33" y1="178.22" y2="196.71" stroke="#176c4c" stroke-width="1"/>
<rect x="308.15" y="189.43" width="10.36" height="1.50" fill="#176c4c" opacity="0.82"/>
<line x1="332.86" x2="332.86" y1="176.91" y2="189.43" stroke="#176c4c" stroke-width="1"/>
<rect x="327.68" y="177.89" width="10.36" height="11.54" fill="#176c4c" opacity="0.82"/>
<line x1="352.38" x2="352.38" y1="154.27" y2="178.39" stroke="#176c4c" stroke-width="1"/>
<rect x="347.20" y="162.03" width="10.36" height="15.81" fill="#176c4c" opacity="0.82"/>
<line x1="371.90" x2="371.90" y1="151.70" y2="165.81" stroke="#a23a3a" stroke-width="1"/>
<rect x="366.72" y="162.03" width="10.36" height="1.50" fill="#a23a3a" opacity="0.82"/>
<line x1="391.43" x2="391.43" y1="153.83" y2="170.84" stroke="#176c4c" stroke-width="1"/>
<rect x="386.25" y="157.77" width="10.36" height="4.59" fill="#176c4c" opacity="0.82"/>
<line x1="410.95" x2="410.95" y1="148.30" y2="162.58" stroke="#176c4c" stroke-width="1"/>
<rect x="405.77" y="149.23" width="10.36" height="8.53" fill="#176c4c" opacity="0.82"/>
<line x1="430.48" x2="430.48" y1="148.47" y2="160.94" stroke="#a23a3a" stroke-width="1"/>
<rect x="425.30" y="149.23" width="10.36" height="6.45" fill="#a23a3a" opacity="0.82"/>
<line x1="450.00" x2="450.00" y1="130.86" y2="155.69" stroke="#176c4c" stroke-width="1"/>
<rect x="444.82" y="139.33" width="10.36" height="16.35" fill="#176c4c" opacity="0.82"/>
<line x1="469.52" x2="469.52" y1="118.55" y2="142.34" stroke="#176c4c" stroke-width="1"/>
<rect x="464.34" y="124.90" width="10.36" height="14.33" fill="#176c4c" opacity="0.82"/>
<line x1="489.05" x2="489.05" y1="113.30" y2="125.93" stroke="#176c4c" stroke-width="1"/>
<rect x="483.87" y="120.19" width="10.36" height="4.70" fill="#176c4c" opacity="0.82"/>
<line x1="508.57" x2="508.57" y1="107.61" y2="134.90" stroke="#a23a3a" stroke-width="1"/>
<rect x="503.39" y="120.19" width="10.36" height="7.33" fill="#a23a3a" opacity="0.82"/>
<line x1="528.10" x2="528.10" y1="97.82" y2="129.82" stroke="#176c4c" stroke-width="1"/>
<rect x="522.92" y="101.32" width="10.36" height="26.25" fill="#176c4c" opacity="0.82"/>
<line x1="547.62" x2="547.62" y1="90.77" y2="135.01" stroke="#a23a3a" stroke-width="1"/>
<rect x="542.44" y="101.32" width="10.36" height="27.13" fill="#a23a3a" opacity="0.82"/>
<line x1="567.14" x2="567.14" y1="128.18" y2="175.71" stroke="#a23a3a" stroke-width="1"/>
<rect x="561.96" y="128.34" width="10.36" height="41.18" fill="#a23a3a" opacity="0.82"/>
<line x1="586.67" x2="586.67" y1="116.69" y2="176.47" stroke="#176c4c" stroke-width="1"/>
<rect x="581.49" y="123.36" width="10.36" height="46.16" fill="#176c4c" opacity="0.82"/>
<line x1="606.19" x2="606.19" y1="112.48" y2="163.18" stroke="#a23a3a" stroke-width="1"/>
<rect x="601.01" y="123.36" width="10.36" height="35.17" fill="#a23a3a" opacity="0.82"/>
<line x1="625.71" x2="625.71" y1="121.78" y2="165.04" stroke="#176c4c" stroke-width="1"/>
<rect x="620.53" y="126.21" width="10.36" height="32.32" fill="#176c4c" opacity="0.82"/>
<line x1="645.24" x2="645.24" y1="108.54" y2="135.62" stroke="#176c4c" stroke-width="1"/>
<rect x="640.06" y="121.12" width="10.36" height="5.09" fill="#176c4c" opacity="0.82"/>
<line x1="664.76" x2="664.76" y1="98.86" y2="121.56" stroke="#176c4c" stroke-width="1"/>
<rect x="659.58" y="115.49" width="10.36" height="5.63" fill="#176c4c" opacity="0.82"/>
<line x1="684.29" x2="684.29" y1="111.39" y2="143.98" stroke="#a23a3a" stroke-width="1"/>
<rect x="679.11" y="115.49" width="10.36" height="27.46" fill="#a23a3a" opacity="0.82"/>
<line x1="703.81" x2="703.81" y1="136.33" y2="152.57" stroke="#a23a3a" stroke-width="1"/>
<rect x="698.63" y="142.94" width="10.36" height="9.13" fill="#a23a3a" opacity="0.82"/>
<line x1="723.33" x2="723.33" y1="132.11" y2="159.68" stroke="#176c4c" stroke-width="1"/>
<rect x="718.15" y="135.89" width="10.36" height="16.19" fill="#176c4c" opacity="0.82"/>
<line x1="742.86" x2="742.86" y1="58.61" y2="139.88" stroke="#176c4c" stroke-width="1"/>
<rect x="737.68" y="72.50" width="10.36" height="63.45" fill="#176c4c" opacity="0.82"/>
<line x1="762.38" x2="762.38" y1="37.93" y2="72.01" stroke="#176c4c" stroke-width="1"/>
<rect x="757.20" y="63.04" width="10.36" height="8.26" fill="#176c4c" opacity="0.82"/>
<line x1="781.90" x2="781.90" y1="44.28" y2="74.03" stroke="#a23a3a" stroke-width="1"/>
<rect x="776.72" y="63.04" width="10.36" height="3.28" fill="#a23a3a" opacity="0.82"/>
<line x1="801.43" x2="801.43" y1="45.31" y2="79.88" stroke="#176c4c" stroke-width="1"/>
<rect x="796.25" y="47.56" width="10.36" height="18.76" fill="#176c4c" opacity="0.82"/>
<line x1="820.95" x2="820.95" y1="40.72" y2="80.54" stroke="#a23a3a" stroke-width="1"/>
<rect x="815.77" y="47.39" width="10.36" height="28.88" fill="#a23a3a" opacity="0.82"/>
<line x1="840.48" x2="840.48" y1="57.68" y2="76.93" stroke="#176c4c" stroke-width="1"/>
<rect x="835.30" y="74.63" width="10.36" height="1.64" fill="#176c4c" opacity="0.82"/>
<line x1="860.00" x2="860.00" y1="59.21" y2="89.56" stroke="#a23a3a" stroke-width="1"/>
<rect x="854.82" y="74.63" width="10.36" height="1.50" fill="#a23a3a" opacity="0.82"/>
<line x1="40" x2="860" y1="150.88" y2="150.88" stroke="#111827" stroke-dasharray="5 4"/>
<rect x="40" y="165.81" width="820" height="11.10" fill="#d97706" opacity="0.20"/>
<text x="45" y="144.88" font-family="Arial" font-size="11">C1 4698.62</text>
<text x="45" y="159.81" font-family="Arial" font-size="11">FVG</text>
</svg>