<svg xmlns="http://www.w3.org/2000/svg" width="900" height="320" viewBox="0 0 900 320">
<rect width="100%" height="100%" fill="#fbfbf8"/>
<text x="40" y="18" font-family="Arial" font-size="13">v3_sample_018 LONG IFVG</text>
<line x1="40.00" x2="40.00" y1="217.56" y2="262.07" stroke="#176c4c" stroke-width="1"/>
<rect x="34.70" y="221.23" width="10.61" height="12.16" fill="#176c4c" opacity="0.82"/>
<line x1="60.00" x2="60.00" y1="195.43" y2="221.23" stroke="#176c4c" stroke-width="1"/>
<rect x="54.70" y="198.93" width="10.61" height="22.30" fill="#176c4c" opacity="0.82"/>
<line x1="80.00" x2="80.00" y1="188.78" y2="224.64" stroke="#a23a3a" stroke-width="1"/>
<rect x="74.70" y="198.93" width="10.61" height="25.71" fill="#a23a3a" opacity="0.82"/>
<line x1="100.00" x2="100.00" y1="204.26" y2="239.51" stroke="#176c4c" stroke-width="1"/>
<rect x="94.70" y="206.45" width="10.61" height="18.19" fill="#176c4c" opacity="0.82"/>
<line x1="120.00" x2="120.00" y1="199.98" y2="229.36" stroke="#176c4c" stroke-width="1"/>
<rect x="114.70" y="206.27" width="10.61" height="1.50" fill="#176c4c" opacity="0.82"/>
<line x1="140.00" x2="140.00" y1="205.49" y2="236.53" stroke="#a23a3a" stroke-width="1"/>
<rect x="134.70" y="206.27" width="10.61" height="12.51" fill="#a23a3a" opacity="0.82"/>
<line x1="160.00" x2="160.00" y1="151.09" y2="220.09" stroke="#176c4c" stroke-width="1"/>
<rect x="154.70" y="159.23" width="10.61" height="58.94" fill="#176c4c" opacity="0.82"/>
<line x1="180.00" x2="180.00" y1="147.77" y2="173.74" stroke="#176c4c" stroke-width="1"/>
<rect x="174.70" y="150.31" width="10.61" height="8.92" fill="#176c4c" opacity="0.82"/>
<line x1="200.00" x2="200.00" y1="123.46" y2="162.99" stroke="#a23a3a" stroke-width="1"/>
<rect x="194.70" y="150.31" width="10.61" height="10.76" fill="#a23a3a" opacity="0.82"/>
<line x1="220.00" x2="220.00" y1="145.58" y2="180.21" stroke="#a23a3a" stroke-width="1"/>
<rect x="214.70" y="161.06" width="10.61" height="13.99" fill="#a23a3a" opacity="0.82"/>
<line x1="240.00" x2="240.00" y1="140.07" y2="179.17" stroke="#176c4c" stroke-width="1"/>
<rect x="234.70" y="158.18" width="10.61" height="16.88" fill="#176c4c" opacity="0.82"/>
<line x1="260.00" x2="260.00" y1="148.29" y2="182.05" stroke="#a23a3a" stroke-width="1"/>
<rect x="254.70" y="158.44" width="10.61" height="4.37" fill="#a23a3a" opacity="0.82"/>
<line x1="280.00" x2="280.00" y1="137.01" y2="163.42" stroke="#176c4c" stroke-width="1"/>
<rect x="274.70" y="147.16" width="10.61" height="13.21" fill="#176c4c" opacity="0.82"/>
<line x1="300.00" x2="300.00" y1="135.61" y2="162.37" stroke="#a23a3a" stroke-width="1"/>
<rect x="294.70" y="147.25" width="10.61" height="15.13" fill="#a23a3a" opacity="0.82"/>
<line x1="320.00" x2="320.00" y1="147.33" y2="168.58" stroke="#176c4c" stroke-width="1"/>
<rect x="314.70" y="153.28" width="10.61" height="9.09" fill="#176c4c" opacity="0.82"/>
<line x1="340.00" x2="340.00" y1="134.39" y2="175.84" stroke="#176c4c" stroke-width="1"/>
<rect x="334.70" y="149.26" width="10.61" height="4.02" fill="#176c4c" opacity="0.82"/>
<line x1="360.00" x2="360.00" y1="134.04" y2="161.94" stroke="#176c4c" stroke-width="1"/>
<rect x="354.70" y="147.16" width="10.61" height="2.10" fill="#176c4c" opacity="0.82"/>
<line x1="380.00" x2="380.00" y1="136.93" y2="155.55" stroke="#176c4c" stroke-width="1"/>
<rect x="374.70" y="144.53" width="10.61" height="2.62" fill="#176c4c" opacity="0.82"/>
<line x1="400.00" x2="400.00" y1="140.34" y2="163.34" stroke="#a23a3a" stroke-width="1"/>
<rect x="394.70" y="144.53" width="10.61" height="3.06" fill="#a23a3a" opacity="0.82"/>
<line x1="420.00" x2="420.00" y1="132.03" y2="149.69" stroke="#176c4c" stroke-width="1"/>
<rect x="414.70" y="143.31" width="10.61" height="4.37" fill="#176c4c" opacity="0.82"/>
<line x1="440.00" x2="440.00" y1="142.96" y2="158.53" stroke="#a23a3a" stroke-width="1"/>
<rect x="434.70" y="143.48" width="10.61" height="15.04" fill="#a23a3a" opacity="0.82"/>
<line x1="460.00" x2="460.00" y1="154.85" y2="187.74" stroke="#a23a3a" stroke-width="1"/>
<rect x="454.70" y="159.23" width="10.61" height="23.87" fill="#a23a3a" opacity="0.82"/>
<line x1="480.00" x2="480.00" y1="182.84" y2="208.29" stroke="#a23a3a" stroke-width="1"/>
<rect x="474.70" y="183.10" width="10.61" height="2.80" fill="#a23a3a" opacity="0.82"/>
<line x1="500.00" x2="500.00" y1="175.23" y2="206.36" stroke="#a23a3a" stroke-width="1"/>
<rect x="494.70" y="186.25" width="10.61" height="17.75" fill="#a23a3a" opacity="0.82"/>
<line x1="520.00" x2="520.00" y1="165.26" y2="205.66" stroke="#176c4c" stroke-width="1"/>
<rect x="514.70" y="178.99" width="10.61" height="26.15" fill="#176c4c" opacity="0.82"/>
<line x1="540.00" x2="540.00" y1="135.79" y2="186.07" stroke="#176c4c" stroke-width="1"/>
<rect x="534.70" y="137.63" width="10.61" height="41.36" fill="#176c4c" opacity="0.82"/>
<line x1="560.00" x2="560.00" y1="123.11" y2="158.88" stroke="#176c4c" stroke-width="1"/>
<rect x="554.70" y="123.72" width="10.61" height="13.90" fill="#176c4c" opacity="0.82"/>
<line x1="580.00" x2="580.00" y1="37.93" y2="131.33" stroke="#176c4c" stroke-width="1"/>
<rect x="574.70" y="60.41" width="10.61" height="63.31" fill="#176c4c" opacity="0.82"/>
<line x1="600.00" x2="600.00" y1="54.55" y2="102.47" stroke="#a23a3a" stroke-width="1"/>
<rect x="594.70" y="60.49" width="10.61" height="41.89" fill="#a23a3a" opacity="0.82"/>
<line x1="620.00" x2="620.00" y1="98.71" y2="123.20" stroke="#a23a3a" stroke-width="1"/>
<rect x="614.70" y="102.38" width="10.61" height="2.36" fill="#a23a3a" opacity="0.82"/>
<line x1="640.00" x2="640.00" y1="89.79" y2="126.69" stroke="#176c4c" stroke-width="1"/>
<rect x="634.70" y="104.31" width="10.61" height="1.50" fill="#176c4c" opacity="0.82"/>
<line x1="660.00" x2="660.00" y1="89.79" y2="122.32" stroke="#a23a3a" stroke-width="1"/>
<rect x="654.70" y="104.31" width="10.61" height="12.86" fill="#a23a3a" opacity="0.82"/>
<line x1="680.00" x2="680.00" y1="117.07" y2="147.16" stroke="#a23a3a" stroke-width="1"/>
<rect x="674.70" y="117.25" width="10.61" height="14.78" fill="#a23a3a" opacity="0.82"/>
<line x1="700.00" x2="700.00" y1="103.08" y2="135.88" stroke="#176c4c" stroke-width="1"/>
<rect x="694.70" y="109.03" width="10.61" height="22.91" fill="#176c4c" opacity="0.82"/>
<line x1="720.00" x2="720.00" y1="97.22" y2="115.15" stroke="#176c4c" stroke-width="1"/>
<rect x="714.70" y="104.22" width="10.61" height="4.81" fill="#176c4c" opacity="0.82"/>
<line x1="740.00" x2="740.00" y1="73.00" y2="104.39" stroke="#176c4c" stroke-width="1"/>
<rect x="734.70" y="81.22" width="10.61" height="23.00" fill="#176c4c" opacity="0.82"/>
<line x1="760.00" x2="760.00" y1="78.77" y2="112.79" stroke="#a23a3a" stroke-width="1"/>
<rect x="754.70" y="81.39" width="10.61" height="22.13" fill="#a23a3a" opacity="0.82"/>
<line x1="780.00" x2="780.00" y1="102.91" y2="127.74" stroke="#a23a3a" stroke-width="1"/>
<rect x="774.70" y="103.52" width="10.61" height="20.73" fill="#a23a3a" opacity="0.82"/>
<line x1="800.00" x2="800.00" y1="112.88" y2="132.99" stroke="#a23a3a" stroke-width="1"/>
<rect x="794.70" y="124.16" width="10.61" height="2.10" fill="#a23a3a" opacity="0.82"/>
<line x1="820.00" x2="820.00" y1="119.09" y2="143.05" stroke="#a23a3a" stroke-width="1"/>
<rect x="814.70" y="125.91" width="10.61" height="6.73" fill="#a23a3a" opacity="0.82"/>
<line x1="840.00" x2="840.00" y1="105.18" y2="146.02" stroke="#176c4c" stroke-width="1"/>
<rect x="834.70" y="115.94" width="10.61" height="16.70" fill="#176c4c" opacity="0.82"/>
<line x1="860.00" x2="860.00" y1="103.61" y2="125.56" stroke="#a23a3a" stroke-width="1"/>
<rect x="854.70" y="116.11" width="10.61" height="2.62" fill="#a23a3a" opacity="0.82"/>
<line x1="40" x2="860" y1="201.29" y2="201.29" stroke="#111827" stroke-dasharray="5 4"/>
<rect x="40" y="203.39" width="820" height="6.21" fill="#d97706" opacity="0.20"/>
<text x="45" y="195.29" font-family="Arial" font-size="11">C1 4730.68</text>
<text x="45" y="197.39" font-family="Arial" font-size="11">IFVG</text>
</svg>