<svg xmlns="http://www.w3.org/2000/svg" width="900" height="320" viewBox="0 0 900 320">
<rect width="100%" height="100%" fill="#fbfbf8"/>
<text x="40" y="18" font-family="Arial" font-size="13">v3_sample_010 SHORT IFVG</text>
<line x1="40.00" x2="40.00" y1="118.92" y2="139.84" stroke="#176c4c" stroke-width="1"/>
<rect x="35.36" y="123.58" width="9.28" height="1.98" fill="#176c4c" opacity="0.82"/>
<line x1="57.45" x2="57.45" y1="117.25" y2="134.73" stroke="#176c4c" stroke-width="1"/>
<rect x="52.81" y="119.28" width="9.28" height="3.95" fill="#176c4c" opacity="0.82"/>
<line x1="74.89" x2="74.89" y1="115.94" y2="128.30" stroke="#a23a3a" stroke-width="1"/>
<rect x="70.25" y="119.28" width="9.28" height="4.91" fill="#a23a3a" opacity="0.82"/>
<line x1="92.34" x2="92.34" y1="89.19" y2="124.70" stroke="#176c4c" stroke-width="1"/>
<rect x="87.70" y="100.54" width="9.28" height="23.65" fill="#176c4c" opacity="0.82"/>
<line x1="109.79" x2="109.79" y1="99.37" y2="119.89" stroke="#a23a3a" stroke-width="1"/>
<rect x="105.15" y="100.54" width="9.28" height="2.08" fill="#a23a3a" opacity="0.82"/>
<line x1="127.23" x2="127.23" y1="92.64" y2="108.79" stroke="#176c4c" stroke-width="1"/>
<rect x="122.59" y="97.90" width="9.28" height="4.71" fill="#176c4c" opacity="0.82"/>
<line x1="144.68" x2="144.68" y1="87.98" y2="103.83" stroke="#a23a3a" stroke-width="1"/>
<rect x="140.04" y="98.01" width="9.28" height="2.48" fill="#a23a3a" opacity="0.82"/>
<line x1="162.13" x2="162.13" y1="87.98" y2="113.25" stroke="#a23a3a" stroke-width="1"/>
<rect x="157.49" y="100.49" width="9.28" height="11.55" fill="#a23a3a" opacity="0.82"/>
<line x1="179.57" x2="179.57" y1="102.26" y2="115.94" stroke="#176c4c" stroke-width="1"/>
<rect x="174.93" y="111.99" width="9.28" height="1.50" fill="#176c4c" opacity="0.82"/>
<line x1="197.02" x2="197.02" y1="95.47" y2="125.05" stroke="#176c4c" stroke-width="1"/>
<rect x="192.38" y="108.44" width="9.28" height="3.55" fill="#176c4c" opacity="0.82"/>
<line x1="214.47" x2="214.47" y1="108.24" y2="129.26" stroke="#a23a3a" stroke-width="1"/>
<rect x="209.83" y="108.44" width="9.28" height="18.03" fill="#a23a3a" opacity="0.82"/>
<line x1="231.91" x2="231.91" y1="125.86" y2="147.14" stroke="#a23a3a" stroke-width="1"/>
<rect x="227.27" y="126.47" width="9.28" height="8.66" fill="#a23a3a" opacity="0.82"/>
<line x1="249.36" x2="249.36" y1="134.78" y2="147.14" stroke="#a23a3a" stroke-width="1"/>
<rect x="244.72" y="135.13" width="9.28" height="11.55" fill="#a23a3a" opacity="0.82"/>
<line x1="266.81" x2="266.81" y1="139.49" y2="150.58" stroke="#176c4c" stroke-width="1"/>
<rect x="262.17" y="145.77" width="9.28" height="1.50" fill="#176c4c" opacity="0.82"/>
<line x1="284.26" x2="284.26" y1="143.59" y2="158.69" stroke="#a23a3a" stroke-width="1"/>
<rect x="279.61" y="145.77" width="9.28" height="10.49" fill="#a23a3a" opacity="0.82"/>
<line x1="301.70" x2="301.70" y1="141.26" y2="159.24" stroke="#176c4c" stroke-width="1"/>
<rect x="297.06" y="152.20" width="9.28" height="4.05" fill="#176c4c" opacity="0.82"/>
<line x1="319.15" x2="319.15" y1="143.80" y2="164.66" stroke="#a23a3a" stroke-width="1"/>
<rect x="314.51" y="152.20" width="9.28" height="4.61" fill="#a23a3a" opacity="0.82"/>
<line x1="336.60" x2="336.60" y1="146.02" y2="160.71" stroke="#a23a3a" stroke-width="1"/>
<rect x="331.96" y="156.81" width="9.28" height="1.50" fill="#a23a3a" opacity="0.82"/>
<line x1="354.04" x2="354.04" y1="155.24" y2="180.52" stroke="#a23a3a" stroke-width="1"/>
<rect x="349.40" y="156.96" width="9.28" height="12.92" fill="#a23a3a" opacity="0.82"/>
<line x1="371.49" x2="371.49" y1="156.31" y2="177.33" stroke="#176c4c" stroke-width="1"/>
<rect x="366.85" y="160.81" width="9.28" height="9.07" fill="#176c4c" opacity="0.82"/>
<line x1="388.94" x2="388.94" y1="154.43" y2="176.47" stroke="#a23a3a" stroke-width="1"/>
<rect x="384.30" y="157.27" width="9.28" height="8.51" fill="#a23a3a" opacity="0.82"/>
<line x1="406.38" x2="406.38" y1="165.78" y2="201.03" stroke="#a23a3a" stroke-width="1"/>
<rect x="401.74" y="165.78" width="9.28" height="35.10" fill="#a23a3a" opacity="0.82"/>
<line x1="423.83" x2="423.83" y1="159.85" y2="204.53" stroke="#176c4c" stroke-width="1"/>
<rect x="419.19" y="159.85" width="9.28" height="41.08" fill="#176c4c" opacity="0.82"/>
<line x1="441.28" x2="441.28" y1="133.11" y2="166.08" stroke="#176c4c" stroke-width="1"/>
<rect x="436.64" y="138.43" width="9.28" height="21.43" fill="#176c4c" opacity="0.82"/>
<line x1="458.72" x2="458.72" y1="130.52" y2="140.60" stroke="#a23a3a" stroke-width="1"/>
<rect x="454.08" y="138.43" width="9.28" height="1.50" fill="#a23a3a" opacity="0.82"/>
<line x1="476.17" x2="476.17" y1="119.99" y2="142.93" stroke="#176c4c" stroke-width="1"/>
<rect x="471.53" y="120.70" width="9.28" height="18.13" fill="#176c4c" opacity="0.82"/>
<line x1="493.62" x2="493.62" y1="119.43" y2="140.65" stroke="#a23a3a" stroke-width="1"/>
<rect x="488.98" y="119.53" width="9.28" height="12.92" fill="#a23a3a" opacity="0.82"/>
<line x1="511.06" x2="511.06" y1="125.46" y2="155.09" stroke="#a23a3a" stroke-width="1"/>
<rect x="506.42" y="132.45" width="9.28" height="4.10" fill="#a23a3a" opacity="0.82"/>
<line x1="528.51" x2="528.51" y1="108.54" y2="139.69" stroke="#176c4c" stroke-width="1"/>
<rect x="523.87" y="110.36" width="9.28" height="26.19" fill="#176c4c" opacity="0.82"/>
<line x1="545.96" x2="545.96" y1="80.18" y2="116.24" stroke="#176c4c" stroke-width="1"/>
<rect x="541.32" y="82.91" width="9.28" height="27.45" fill="#176c4c" opacity="0.82"/>
<line x1="563.40" x2="563.40" y1="37.93" y2="88.99" stroke="#176c4c" stroke-width="1"/>
<rect x="558.76" y="49.63" width="9.28" height="33.28" fill="#176c4c" opacity="0.82"/>
<line x1="580.85" x2="580.85" y1="44.87" y2="80.58" stroke="#a23a3a" stroke-width="1"/>
<rect x="576.21" y="49.63" width="9.28" height="30.44" fill="#a23a3a" opacity="0.82"/>
<line x1="598.30" x2="598.30" y1="67.46" y2="91.52" stroke="#a23a3a" stroke-width="1"/>
<rect x="593.66" y="80.07" width="9.28" height="1.50" fill="#a23a3a" opacity="0.82"/>
<line x1="615.74" x2="615.74" y1="71.41" y2="94.66" stroke="#a23a3a" stroke-width="1"/>
<rect x="611.10" y="80.63" width="9.28" height="14.03" fill="#a23a3a" opacity="0.82"/>
<line x1="633.19" x2="633.19" y1="85.65" y2="102.21" stroke="#176c4c" stroke-width="1"/>
<rect x="628.55" y="92.13" width="9.28" height="2.38" fill="#176c4c" opacity="0.82"/>
<line x1="650.64" x2="650.64" y1="91.83" y2="114.92" stroke="#a23a3a" stroke-width="1"/>
<rect x="646.00" y="92.13" width="9.28" height="15.09" fill="#a23a3a" opacity="0.82"/>
<line x1="668.09" x2="668.09" y1="104.69" y2="173.27" stroke="#a23a3a" stroke-width="1"/>
<rect x="663.44" y="107.22" width="9.28" height="49.74" fill="#a23a3a" opacity="0.82"/>
<line x1="685.53" x2="685.53" y1="150.38" y2="193.38" stroke="#a23a3a" stroke-width="1"/>
<rect x="680.89" y="156.96" width="9.28" height="16.01" fill="#a23a3a" opacity="0.82"/>
<line x1="702.98" x2="702.98" y1="145.11" y2="176.01" stroke="#176c4c" stroke-width="1"/>
<rect x="698.34" y="159.55" width="9.28" height="13.42" fill="#176c4c" opacity="0.82"/>
<line x1="720.43" x2="720.43" y1="141.41" y2="170.29" stroke="#176c4c" stroke-width="1"/>
<rect x="715.78" y="142.83" width="9.28" height="16.72" fill="#176c4c" opacity="0.82"/>
<line x1="737.87" x2="737.87" y1="137.72" y2="172.21" stroke="#a23a3a" stroke-width="1"/>
<rect x="733.23" y="142.83" width="9.28" height="1.50" fill="#a23a3a" opacity="0.82"/>
<line x1="755.32" x2="755.32" y1="143.14" y2="171.91" stroke="#a23a3a" stroke-width="1"/>
<rect x="750.68" y="143.49" width="9.28" height="27.40" fill="#a23a3a" opacity="0.82"/>
<line x1="772.77" x2="772.77" y1="170.69" y2="216.23" stroke="#a23a3a" stroke-width="1"/>
<rect x="768.13" y="170.69" width="9.28" height="14.18" fill="#a23a3a" opacity="0.82"/>
<line x1="790.21" x2="790.21" y1="180.52" y2="211.77" stroke="#a23a3a" stroke-width="1"/>
<rect x="785.57" y="184.98" width="9.28" height="18.84" fill="#a23a3a" opacity="0.82"/>
<line x1="807.66" x2="807.66" y1="191.92" y2="230.16" stroke="#a23a3a" stroke-width="1"/>
<rect x="803.02" y="203.82" width="9.28" height="5.01" fill="#a23a3a" opacity="0.82"/>
<line x1="825.11" x2="825.11" y1="184.06" y2="209.09" stroke="#176c4c" stroke-width="1"/>
<rect x="820.47" y="198.04" width="9.28" height="10.79" fill="#176c4c" opacity="0.82"/>
<line x1="842.55" x2="842.55" y1="194.25" y2="261.92" stroke="#a23a3a" stroke-width="1"/>
<rect x="837.91" y="198.04" width="9.28" height="31.15" fill="#a23a3a" opacity="0.82"/>
<line x1="860.00" x2="860.00" y1="229.20" y2="262.07" stroke="#a23a3a" stroke-width="1"/>
<rect x="855.36" y="229.20" width="9.28" height="28.72" fill="#a23a3a" opacity="0.82"/>
<line x1="40" x2="860" y1="164.92" y2="164.92" stroke="#111827" stroke-dasharray="5 4"/>
<rect x="40" y="109.71" width="820" height="51.26" fill="#d97706" opacity="0.20"/>
<text x="45" y="158.92" font-family="Arial" font-size="11">C1 5011.1</text>
<text x="45" y="103.71" font-family="Arial" font-size="11">IFVG</text>
</svg>