<svg xmlns="http://www.w3.org/2000/svg" width="900" height="320" viewBox="0 0 900 320">
<rect width="100%" height="100%" fill="#fbfbf8"/>
<text x="40" y="18" font-family="Arial" font-size="13">v3_sample_026 LONG IFVG</text>
<line x1="40.00" x2="40.00" y1="48.48" y2="83.65" stroke="#a23a3a" stroke-width="1"/>
<rect x="35.36" y="59.54" width="9.28" height="23.93" fill="#a23a3a" opacity="0.82"/>
<line x1="57.45" x2="57.45" y1="77.71" y2="89.14" stroke="#176c4c" stroke-width="1"/>
<rect x="52.81" y="82.56" width="9.28" height="1.50" fill="#176c4c" opacity="0.82"/>
<line x1="74.89" x2="74.89" y1="73.50" y2="105.72" stroke="#a23a3a" stroke-width="1"/>
<rect x="70.25" y="82.56" width="9.28" height="13.32" fill="#a23a3a" opacity="0.82"/>
<line x1="92.34" x2="92.34" y1="65.76" y2="102.01" stroke="#176c4c" stroke-width="1"/>
<rect x="87.70" y="68.81" width="9.28" height="27.43" fill="#176c4c" opacity="0.82"/>
<line x1="109.79" x2="109.79" y1="47.59" y2="70.79" stroke="#176c4c" stroke-width="1"/>
<rect x="105.15" y="65.46" width="9.28" height="3.35" fill="#176c4c" opacity="0.82"/>
<line x1="127.23" x2="127.23" y1="40.43" y2="66.04" stroke="#176c4c" stroke-width="1"/>
<rect x="122.59" y="51.80" width="9.28" height="13.66" fill="#176c4c" opacity="0.82"/>
<line x1="144.68" x2="144.68" y1="37.93" y2="53.29" stroke="#176c4c" stroke-width="1"/>
<rect x="140.04" y="45.22" width="9.28" height="6.58" fill="#176c4c" opacity="0.82"/>
<line x1="162.13" x2="162.13" y1="42.59" y2="72.44" stroke="#a23a3a" stroke-width="1"/>
<rect x="157.49" y="45.22" width="9.28" height="11.25" fill="#a23a3a" opacity="0.82"/>
<line x1="179.57" x2="179.57" y1="46.34" y2="88.59" stroke="#a23a3a" stroke-width="1"/>
<rect x="174.93" y="56.62" width="9.28" height="27.98" fill="#a23a3a" opacity="0.82"/>
<line x1="197.02" x2="197.02" y1="81.64" y2="96.00" stroke="#a23a3a" stroke-width="1"/>
<rect x="192.38" y="84.81" width="9.28" height="3.17" fill="#a23a3a" opacity="0.82"/>
<line x1="214.47" x2="214.47" y1="86.64" y2="112.43" stroke="#a23a3a" stroke-width="1"/>
<rect x="209.83" y="87.98" width="9.28" height="19.60" fill="#a23a3a" opacity="0.82"/>
<line x1="231.91" x2="231.91" y1="107.07" y2="136.51" stroke="#a23a3a" stroke-width="1"/>
<rect x="227.27" y="107.58" width="9.28" height="9.85" fill="#a23a3a" opacity="0.82"/>
<line x1="249.36" x2="249.36" y1="87.83" y2="118.34" stroke="#176c4c" stroke-width="1"/>
<rect x="244.72" y="101.64" width="9.28" height="15.82" fill="#176c4c" opacity="0.82"/>
<line x1="266.81" x2="266.81" y1="89.72" y2="106.94" stroke="#a23a3a" stroke-width="1"/>
<rect x="262.17" y="101.64" width="9.28" height="1.50" fill="#a23a3a" opacity="0.82"/>
<line x1="284.26" x2="284.26" y1="95.27" y2="119.99" stroke="#a23a3a" stroke-width="1"/>
<rect x="279.61" y="101.85" width="9.28" height="7.19" fill="#a23a3a" opacity="0.82"/>
<line x1="301.70" x2="301.70" y1="79.54" y2="124.14" stroke="#176c4c" stroke-width="1"/>
<rect x="297.06" y="79.60" width="9.28" height="29.45" fill="#176c4c" opacity="0.82"/>
<line x1="319.15" x2="319.15" y1="68.96" y2="86.55" stroke="#176c4c" stroke-width="1"/>
<rect x="314.51" y="76.58" width="9.28" height="3.02" fill="#176c4c" opacity="0.82"/>
<line x1="336.60" x2="336.60" y1="69.42" y2="104.63" stroke="#a23a3a" stroke-width="1"/>
<rect x="331.96" y="76.58" width="9.28" height="20.18" fill="#a23a3a" opacity="0.82"/>
<line x1="354.04" x2="354.04" y1="92.83" y2="110.36" stroke="#a23a3a" stroke-width="1"/>
<rect x="349.40" y="96.76" width="9.28" height="3.57" fill="#a23a3a" opacity="0.82"/>
<line x1="371.49" x2="371.49" y1="100.33" y2="144.50" stroke="#a23a3a" stroke-width="1"/>
<rect x="366.85" y="100.33" width="9.28" height="36.52" fill="#a23a3a" opacity="0.82"/>
<line x1="388.94" x2="388.94" y1="96.52" y2="147.39" stroke="#176c4c" stroke-width="1"/>
<rect x="384.30" y="102.68" width="9.28" height="34.17" fill="#176c4c" opacity="0.82"/>
<line x1="406.38" x2="406.38" y1="95.33" y2="111.67" stroke="#176c4c" stroke-width="1"/>
<rect x="401.74" y="99.87" width="9.28" height="2.80" fill="#176c4c" opacity="0.82"/>
<line x1="423.83" x2="423.83" y1="89.05" y2="114.66" stroke="#176c4c" stroke-width="1"/>
<rect x="419.19" y="95.88" width="9.28" height="3.99" fill="#176c4c" opacity="0.82"/>
<line x1="441.28" x2="441.28" y1="92.01" y2="116.64" stroke="#a23a3a" stroke-width="1"/>
<rect x="436.64" y="95.76" width="9.28" height="13.50" fill="#a23a3a" opacity="0.82"/>
<line x1="458.72" x2="458.72" y1="101.33" y2="114.08" stroke="#a23a3a" stroke-width="1"/>
<rect x="454.08" y="109.26" width="9.28" height="2.74" fill="#a23a3a" opacity="0.82"/>
<line x1="476.17" x2="476.17" y1="107.46" y2="127.49" stroke="#a23a3a" stroke-width="1"/>
<rect x="471.53" y="112.00" width="9.28" height="13.11" fill="#a23a3a" opacity="0.82"/>
<line x1="493.62" x2="493.62" y1="118.74" y2="160.56" stroke="#176c4c" stroke-width="1"/>
<rect x="488.98" y="120.60" width="9.28" height="4.51" fill="#176c4c" opacity="0.82"/>
<line x1="511.06" x2="511.06" y1="110.78" y2="137.97" stroke="#176c4c" stroke-width="1"/>
<rect x="506.42" y="113.65" width="9.28" height="6.95" fill="#176c4c" opacity="0.82"/>
<line x1="528.51" x2="528.51" y1="113.19" y2="122.76" stroke="#a23a3a" stroke-width="1"/>
<rect x="523.87" y="113.65" width="9.28" height="3.44" fill="#a23a3a" opacity="0.82"/>
<line x1="545.96" x2="545.96" y1="117.25" y2="140.32" stroke="#a23a3a" stroke-width="1"/>
<rect x="541.32" y="117.25" width="9.28" height="22.28" fill="#a23a3a" opacity="0.82"/>
<line x1="563.40" x2="563.40" y1="138.34" y2="162.48" stroke="#a23a3a" stroke-width="1"/>
<rect x="558.76" y="139.53" width="9.28" height="4.48" fill="#a23a3a" opacity="0.82"/>
<line x1="580.85" x2="580.85" y1="141.05" y2="166.38" stroke="#a23a3a" stroke-width="1"/>
<rect x="576.21" y="144.01" width="9.28" height="12.71" fill="#a23a3a" opacity="0.82"/>
<line x1="598.30" x2="598.30" y1="146.69" y2="174.46" stroke="#a23a3a" stroke-width="1"/>
<rect x="593.66" y="156.84" width="9.28" height="10.39" fill="#a23a3a" opacity="0.82"/>
<line x1="615.74" x2="615.74" y1="152.06" y2="173.49" stroke="#176c4c" stroke-width="1"/>
<rect x="611.10" y="156.87" width="9.28" height="10.36" fill="#176c4c" opacity="0.82"/>
<line x1="633.19" x2="633.19" y1="157.09" y2="183.12" stroke="#a23a3a" stroke-width="1"/>
<rect x="628.55" y="157.12" width="9.28" height="25.30" fill="#a23a3a" opacity="0.82"/>
<line x1="650.64" x2="650.64" y1="176.87" y2="198.48" stroke="#a23a3a" stroke-width="1"/>
<rect x="646.00" y="182.42" width="9.28" height="6.37" fill="#a23a3a" opacity="0.82"/>
<line x1="668.09" x2="668.09" y1="187.94" y2="261.25" stroke="#a23a3a" stroke-width="1"/>
<rect x="663.44" y="188.82" width="9.28" height="58.68" fill="#a23a3a" opacity="0.82"/>
<line x1="685.53" x2="685.53" y1="206.10" y2="262.07" stroke="#176c4c" stroke-width="1"/>
<rect x="680.89" y="207.99" width="9.28" height="39.51" fill="#176c4c" opacity="0.82"/>
<line x1="702.98" x2="702.98" y1="183.09" y2="214.52" stroke="#176c4c" stroke-width="1"/>
<rect x="698.34" y="186.44" width="9.28" height="21.55" fill="#176c4c" opacity="0.82"/>
<line x1="720.43" x2="720.43" y1="170.41" y2="197.39" stroke="#176c4c" stroke-width="1"/>
<rect x="715.78" y="174.16" width="9.28" height="12.25" fill="#176c4c" opacity="0.82"/>
<line x1="737.87" x2="737.87" y1="171.47" y2="184.86" stroke="#a23a3a" stroke-width="1"/>
<rect x="733.23" y="174.10" width="9.28" height="4.63" fill="#a23a3a" opacity="0.82"/>
<line x1="755.32" x2="755.32" y1="167.45" y2="182.17" stroke="#176c4c" stroke-width="1"/>
<rect x="750.68" y="177.18" width="9.28" height="1.59" fill="#176c4c" opacity="0.82"/>
<line x1="772.77" x2="772.77" y1="168.91" y2="181.93" stroke="#176c4c" stroke-width="1"/>
<rect x="768.13" y="171.44" width="9.28" height="5.73" fill="#176c4c" opacity="0.82"/>
<line x1="790.21" x2="790.21" y1="165.29" y2="179.22" stroke="#a23a3a" stroke-width="1"/>
<rect x="785.57" y="171.44" width="9.28" height="5.85" fill="#a23a3a" opacity="0.82"/>
<line x1="807.66" x2="807.66" y1="160.53" y2="183.15" stroke="#176c4c" stroke-width="1"/>
<rect x="803.02" y="162.79" width="9.28" height="14.51" fill="#176c4c" opacity="0.82"/>
<line x1="825.11" x2="825.11" y1="160.96" y2="170.16" stroke="#a23a3a" stroke-width="1"/>
<rect x="820.47" y="162.79" width="9.28" height="5.61" fill="#a23a3a" opacity="0.82"/>
<line x1="842.55" x2="842.55" y1="155.81" y2="170.41" stroke="#176c4c" stroke-width="1"/>
<rect x="837.91" y="159.71" width="9.28" height="8.81" fill="#176c4c" opacity="0.82"/>
<line x1="860.00" x2="860.00" y1="150.08" y2="162.91" stroke="#a23a3a" stroke-width="1"/>
<rect x="855.36" y="159.68" width="9.28" height="1.50" fill="#a23a3a" opacity="0.82"/>
<line x1="40" x2="860" y1="78.26" y2="78.26" stroke="#111827" stroke-dasharray="5 4"/>
<rect x="40" y="86.55" width="820" height="8.72" fill="#d97706" opacity="0.20"/>
<text x="45" y="72.26" font-family="Arial" font-size="11">C1 4698.62</text>
<text x="45" y="80.55" font-family="Arial" font-size="11">IFVG</text>
</svg>