<svg xmlns="http://www.w3.org/2000/svg" width="900" height="320" viewBox="0 0 900 320">
<rect width="100%" height="100%" fill="#fbfbf8"/>
<text x="40" y="18" font-family="Arial" font-size="13">v3_sample_023 LONG IFVG</text>
<line x1="40.00" x2="40.00" y1="243.12" y2="262.07" stroke="#176c4c" stroke-width="1"/>
<rect x="31.43" y="247.32" width="17.13" height="10.10" fill="#176c4c" opacity="0.82"/>
<line x1="72.80" x2="72.80" y1="213.95" y2="247.66" stroke="#176c4c" stroke-width="1"/>
<rect x="64.23" y="219.97" width="17.13" height="27.35" fill="#176c4c" opacity="0.82"/>
<line x1="105.60" x2="105.60" y1="204.08" y2="244.25" stroke="#a23a3a" stroke-width="1"/>
<rect x="97.03" y="219.74" width="17.13" height="15.66" fill="#a23a3a" opacity="0.82"/>
<line x1="138.40" x2="138.40" y1="203.62" y2="235.40" stroke="#176c4c" stroke-width="1"/>
<rect x="129.83" y="204.76" width="17.13" height="30.30" fill="#176c4c" opacity="0.82"/>
<line x1="171.20" x2="171.20" y1="178.77" y2="212.36" stroke="#176c4c" stroke-width="1"/>
<rect x="162.63" y="189.10" width="17.13" height="15.66" fill="#176c4c" opacity="0.82"/>
<line x1="204.00" x2="204.00" y1="160.27" y2="192.96" stroke="#176c4c" stroke-width="1"/>
<rect x="195.43" y="169.58" width="17.13" height="19.52" fill="#176c4c" opacity="0.82"/>
<line x1="236.80" x2="236.80" y1="147.22" y2="183.31" stroke="#a23a3a" stroke-width="1"/>
<rect x="228.23" y="169.58" width="17.13" height="7.60" fill="#a23a3a" opacity="0.82"/>
<line x1="269.60" x2="269.60" y1="164.81" y2="182.17" stroke="#a23a3a" stroke-width="1"/>
<rect x="261.03" y="177.07" width="17.13" height="1.50" fill="#a23a3a" opacity="0.82"/>
<line x1="302.40" x2="302.40" y1="158.00" y2="188.76" stroke="#176c4c" stroke-width="1"/>
<rect x="293.83" y="163.11" width="17.13" height="14.98" fill="#176c4c" opacity="0.82"/>
<line x1="335.20" x2="335.20" y1="148.81" y2="175.14" stroke="#a23a3a" stroke-width="1"/>
<rect x="326.63" y="163.11" width="17.13" height="9.42" fill="#a23a3a" opacity="0.82"/>
<line x1="368.00" x2="368.00" y1="172.41" y2="207.71" stroke="#a23a3a" stroke-width="1"/>
<rect x="359.43" y="172.53" width="17.13" height="23.49" fill="#a23a3a" opacity="0.82"/>
<line x1="400.80" x2="400.80" y1="174.34" y2="202.37" stroke="#176c4c" stroke-width="1"/>
<rect x="392.23" y="185.92" width="17.13" height="10.10" fill="#176c4c" opacity="0.82"/>
<line x1="433.60" x2="433.60" y1="179.34" y2="210.66" stroke="#a23a3a" stroke-width="1"/>
<rect x="425.03" y="185.92" width="17.13" height="6.92" fill="#a23a3a" opacity="0.82"/>
<line x1="466.40" x2="466.40" y1="181.38" y2="204.19" stroke="#a23a3a" stroke-width="1"/>
<rect x="457.83" y="192.84" width="17.13" height="4.77" fill="#a23a3a" opacity="0.82"/>
<line x1="499.20" x2="499.20" y1="120.89" y2="198.06" stroke="#176c4c" stroke-width="1"/>
<rect x="490.63" y="137.80" width="17.13" height="59.81" fill="#176c4c" opacity="0.82"/>
<line x1="532.00" x2="532.00" y1="99.10" y2="144.72" stroke="#176c4c" stroke-width="1"/>
<rect x="523.43" y="103.41" width="17.13" height="34.61" fill="#176c4c" opacity="0.82"/>
<line x1="564.80" x2="564.80" y1="87.98" y2="110.45" stroke="#176c4c" stroke-width="1"/>
<rect x="556.23" y="94.45" width="17.13" height="9.65" fill="#176c4c" opacity="0.82"/>
<line x1="597.60" x2="597.60" y1="60.74" y2="96.26" stroke="#176c4c" stroke-width="1"/>
<rect x="589.03" y="77.88" width="17.13" height="16.57" fill="#176c4c" opacity="0.82"/>
<line x1="630.40" x2="630.40" y1="37.93" y2="78.33" stroke="#176c4c" stroke-width="1"/>
<rect x="621.83" y="41.68" width="17.13" height="36.20" fill="#176c4c" opacity="0.82"/>
<line x1="663.20" x2="663.20" y1="40.65" y2="63.58" stroke="#a23a3a" stroke-width="1"/>
<rect x="654.63" y="41.68" width="17.13" height="15.66" fill="#a23a3a" opacity="0.82"/>
<line x1="696.00" x2="696.00" y1="48.37" y2="87.75" stroke="#a23a3a" stroke-width="1"/>
<rect x="687.43" y="57.34" width="17.13" height="12.94" fill="#a23a3a" opacity="0.82"/>
<line x1="728.80" x2="728.80" y1="52.57" y2="81.17" stroke="#176c4c" stroke-width="1"/>
<rect x="720.23" y="68.23" width="17.13" height="2.04" fill="#176c4c" opacity="0.82"/>
<line x1="761.60" x2="761.60" y1="66.08" y2="109.66" stroke="#a23a3a" stroke-width="1"/>
<rect x="753.03" y="68.12" width="17.13" height="23.38" fill="#a23a3a" opacity="0.82"/>
<line x1="794.40" x2="794.40" y1="76.06" y2="101.37" stroke="#a23a3a" stroke-width="1"/>
<rect x="785.83" y="91.50" width="17.13" height="7.26" fill="#a23a3a" opacity="0.82"/>
<line x1="827.20" x2="827.20" y1="58.59" y2="98.53" stroke="#176c4c" stroke-width="1"/>
<rect x="818.63" y="69.03" width="17.13" height="29.51" fill="#176c4c" opacity="0.82"/>
<line x1="860.00" x2="860.00" y1="64.94" y2="125.09" stroke="#a23a3a" stroke-width="1"/>
<rect x="851.43" y="69.48" width="17.13" height="54.93" fill="#a23a3a" opacity="0.82"/>
<line x1="40" x2="860" y1="55.07" y2="55.07" stroke="#111827" stroke-dasharray="5 4"/>
<rect x="40" y="78.33" width="820" height="9.65" fill="#d97706" opacity="0.20"/>
<text x="45" y="49.07" font-family="Arial" font-size="11">C1 4698.62</text>
<text x="45" y="72.33" font-family="Arial" font-size="11">IFVG</text>
</svg>