<svg xmlns="http://www.w3.org/2000/svg" width="900" height="320" viewBox="0 0 900 320">
<rect width="100%" height="100%" fill="#fbfbf8"/>
<text x="40" y="18" font-family="Arial" font-size="13">v3_sample_019 LONG FVG</text>
<line x1="40.00" x2="40.00" y1="120.88" y2="194.61" stroke="#176c4c" stroke-width="1"/>
<rect x="35.16" y="187.14" width="9.68" height="7.47" fill="#176c4c" opacity="0.82"/>
<line x1="58.22" x2="58.22" y1="149.26" y2="187.60" stroke="#176c4c" stroke-width="1"/>
<rect x="53.38" y="166.13" width="9.68" height="21.47" fill="#176c4c" opacity="0.82"/>
<line x1="76.44" x2="76.44" y1="146.13" y2="184.93" stroke="#176c4c" stroke-width="1"/>
<rect x="71.60" y="163.92" width="9.68" height="1.57" fill="#176c4c" opacity="0.82"/>
<line x1="94.67" x2="94.67" y1="163.92" y2="201.24" stroke="#a23a3a" stroke-width="1"/>
<rect x="89.82" y="163.92" width="9.68" height="30.97" fill="#a23a3a" opacity="0.82"/>
<line x1="112.89" x2="112.89" y1="172.49" y2="210.64" stroke="#176c4c" stroke-width="1"/>
<rect x="108.05" y="191.75" width="9.68" height="3.23" fill="#176c4c" opacity="0.82"/>
<line x1="131.11" x2="131.11" y1="184.65" y2="207.14" stroke="#a23a3a" stroke-width="1"/>
<rect x="126.27" y="191.75" width="9.68" height="15.39" fill="#a23a3a" opacity="0.82"/>
<line x1="149.33" x2="149.33" y1="184.01" y2="207.69" stroke="#176c4c" stroke-width="1"/>
<rect x="144.49" y="200.23" width="9.68" height="7.00" fill="#176c4c" opacity="0.82"/>
<line x1="167.56" x2="167.56" y1="169.81" y2="215.16" stroke="#a23a3a" stroke-width="1"/>
<rect x="162.71" y="200.14" width="9.68" height="14.84" fill="#a23a3a" opacity="0.82"/>
<line x1="185.78" x2="185.78" y1="197.28" y2="224.19" stroke="#176c4c" stroke-width="1"/>
<rect x="180.94" y="199.21" width="9.68" height="15.76" fill="#176c4c" opacity="0.82"/>
<line x1="204.00" x2="204.00" y1="190.09" y2="212.85" stroke="#a23a3a" stroke-width="1"/>
<rect x="199.16" y="199.21" width="9.68" height="12.17" fill="#a23a3a" opacity="0.82"/>
<line x1="222.22" x2="222.22" y1="204.10" y2="232.12" stroke="#a23a3a" stroke-width="1"/>
<rect x="217.38" y="211.20" width="9.68" height="13.64" fill="#a23a3a" opacity="0.82"/>
<line x1="240.44" x2="240.44" y1="200.32" y2="229.17" stroke="#176c4c" stroke-width="1"/>
<rect x="235.60" y="202.44" width="9.68" height="22.30" fill="#176c4c" opacity="0.82"/>
<line x1="258.67" x2="258.67" y1="181.52" y2="214.33" stroke="#176c4c" stroke-width="1"/>
<rect x="253.82" y="196.36" width="9.68" height="6.73" fill="#176c4c" opacity="0.82"/>
<line x1="276.89" x2="276.89" y1="191.38" y2="229.63" stroke="#a23a3a" stroke-width="1"/>
<rect x="272.05" y="196.27" width="9.68" height="33.18" fill="#a23a3a" opacity="0.82"/>
<line x1="295.11" x2="295.11" y1="209.26" y2="236.26" stroke="#a23a3a" stroke-width="1"/>
<rect x="290.27" y="229.44" width="9.68" height="5.99" fill="#a23a3a" opacity="0.82"/>
<line x1="313.33" x2="313.33" y1="229.44" y2="262.07" stroke="#a23a3a" stroke-width="1"/>
<rect x="308.49" y="235.34" width="9.68" height="11.06" fill="#a23a3a" opacity="0.82"/>
<line x1="331.56" x2="331.56" y1="215.62" y2="247.23" stroke="#176c4c" stroke-width="1"/>
<rect x="326.71" y="241.42" width="9.68" height="4.98" fill="#176c4c" opacity="0.82"/>
<line x1="349.78" x2="349.78" y1="189.35" y2="243.08" stroke="#176c4c" stroke-width="1"/>
<rect x="344.94" y="190.55" width="9.68" height="50.78" fill="#176c4c" opacity="0.82"/>
<line x1="368.00" x2="368.00" y1="146.41" y2="198.20" stroke="#176c4c" stroke-width="1"/>
<rect x="363.16" y="148.16" width="9.68" height="42.39" fill="#176c4c" opacity="0.82"/>
<line x1="386.22" x2="386.22" y1="132.67" y2="169.45" stroke="#a23a3a" stroke-width="1"/>
<rect x="381.38" y="148.16" width="9.68" height="21.29" fill="#a23a3a" opacity="0.82"/>
<line x1="404.44" x2="404.44" y1="153.78" y2="169.45" stroke="#176c4c" stroke-width="1"/>
<rect x="399.60" y="163.18" width="9.68" height="6.27" fill="#176c4c" opacity="0.82"/>
<line x1="422.67" x2="422.67" y1="143.46" y2="174.61" stroke="#a23a3a" stroke-width="1"/>
<rect x="417.82" y="163.18" width="9.68" height="5.44" fill="#a23a3a" opacity="0.82"/>
<line x1="440.89" x2="440.89" y1="161.89" y2="182.44" stroke="#176c4c" stroke-width="1"/>
<rect x="436.05" y="163.46" width="9.68" height="4.98" fill="#176c4c" opacity="0.82"/>
<line x1="459.11" x2="459.11" y1="160.69" y2="211.01" stroke="#a23a3a" stroke-width="1"/>
<rect x="454.27" y="163.46" width="9.68" height="18.43" fill="#a23a3a" opacity="0.82"/>
<line x1="477.33" x2="477.33" y1="137.93" y2="223.55" stroke="#a23a3a" stroke-width="1"/>
<rect x="472.49" y="181.89" width="9.68" height="34.01" fill="#a23a3a" opacity="0.82"/>
<line x1="495.56" x2="495.56" y1="158.66" y2="214.14" stroke="#176c4c" stroke-width="1"/>
<rect x="490.71" y="173.69" width="9.68" height="40.46" fill="#176c4c" opacity="0.82"/>
<line x1="513.78" x2="513.78" y1="151.66" y2="197.56" stroke="#176c4c" stroke-width="1"/>
<rect x="508.94" y="157.10" width="9.68" height="16.59" fill="#176c4c" opacity="0.82"/>
<line x1="532.00" x2="532.00" y1="135.16" y2="168.80" stroke="#a23a3a" stroke-width="1"/>
<rect x="527.16" y="157.19" width="9.68" height="10.41" fill="#a23a3a" opacity="0.82"/>
<line x1="550.22" x2="550.22" y1="129.72" y2="172.76" stroke="#176c4c" stroke-width="1"/>
<rect x="545.38" y="133.78" width="9.68" height="33.92" fill="#176c4c" opacity="0.82"/>
<line x1="568.44" x2="568.44" y1="88.07" y2="145.21" stroke="#176c4c" stroke-width="1"/>
<rect x="563.60" y="89.73" width="9.68" height="44.05" fill="#176c4c" opacity="0.82"/>
<line x1="586.67" x2="586.67" y1="67.42" y2="114.15" stroke="#a23a3a" stroke-width="1"/>
<rect x="581.82" y="89.54" width="9.68" height="10.60" fill="#a23a3a" opacity="0.82"/>
<line x1="604.89" x2="604.89" y1="71.39" y2="107.14" stroke="#a23a3a" stroke-width="1"/>
<rect x="600.05" y="100.32" width="9.68" height="1.94" fill="#a23a3a" opacity="0.82"/>
<line x1="623.11" x2="623.11" y1="100.32" y2="128.34" stroke="#a23a3a" stroke-width="1"/>
<rect x="618.27" y="102.26" width="9.68" height="23.78" fill="#a23a3a" opacity="0.82"/>
<line x1="641.33" x2="641.33" y1="110.37" y2="164.56" stroke="#a23a3a" stroke-width="1"/>
<rect x="636.49" y="126.04" width="9.68" height="20.55" fill="#a23a3a" opacity="0.82"/>
<line x1="659.56" x2="659.56" y1="109.54" y2="160.32" stroke="#176c4c" stroke-width="1"/>
<rect x="654.71" y="109.54" width="9.68" height="37.05" fill="#176c4c" opacity="0.82"/>
<line x1="677.78" x2="677.78" y1="85.67" y2="133.69" stroke="#176c4c" stroke-width="1"/>
<rect x="672.94" y="97.19" width="9.68" height="12.35" fill="#176c4c" opacity="0.82"/>
<line x1="696.00" x2="696.00" y1="65.76" y2="162.17" stroke="#a23a3a" stroke-width="1"/>
<rect x="691.16" y="97.28" width="9.68" height="53.09" fill="#a23a3a" opacity="0.82"/>
<line x1="714.22" x2="714.22" y1="100.14" y2="178.48" stroke="#176c4c" stroke-width="1"/>
<rect x="709.38" y="103.09" width="9.68" height="47.37" fill="#176c4c" opacity="0.82"/>
<line x1="732.44" x2="732.44" y1="47.98" y2="111.20" stroke="#176c4c" stroke-width="1"/>
<rect x="727.60" y="53.78" width="9.68" height="49.31" fill="#176c4c" opacity="0.82"/>
<line x1="750.67" x2="750.67" y1="37.93" y2="94.15" stroke="#a23a3a" stroke-width="1"/>
<rect x="745.82" y="53.60" width="9.68" height="36.59" fill="#a23a3a" opacity="0.82"/>
<line x1="768.89" x2="768.89" y1="89.27" y2="124.66" stroke="#a23a3a" stroke-width="1"/>
<rect x="764.05" y="90.19" width="9.68" height="12.53" fill="#a23a3a" opacity="0.82"/>
<line x1="787.11" x2="787.11" y1="101.15" y2="155.53" stroke="#a23a3a" stroke-width="1"/>
<rect x="782.27" y="102.72" width="9.68" height="51.70" fill="#a23a3a" opacity="0.82"/>
<line x1="805.33" x2="805.33" y1="118.02" y2="224.47" stroke="#a23a3a" stroke-width="1"/>
<rect x="800.49" y="154.42" width="9.68" height="44.15" fill="#a23a3a" opacity="0.82"/>
<line x1="823.56" x2="823.56" y1="161.24" y2="207.05" stroke="#176c4c" stroke-width="1"/>
<rect x="818.71" y="176.73" width="9.68" height="21.84" fill="#176c4c" opacity="0.82"/>
<line x1="841.78" x2="841.78" y1="160.41" y2="228.52" stroke="#a23a3a" stroke-width="1"/>
<rect x="836.94" y="176.73" width="9.68" height="47.74" fill="#a23a3a" opacity="0.82"/>
<line x1="860.00" x2="860.00" y1="166.68" y2="229.26" stroke="#176c4c" stroke-width="1"/>
<rect x="855.16" y="167.23" width="9.68" height="57.23" fill="#176c4c" opacity="0.82"/>
<line x1="40" x2="860" y1="152.49" y2="152.49" stroke="#111827" stroke-dasharray="5 4"/>
<rect x="40" y="169.45" width="820" height="19.91" fill="#d97706" opacity="0.20"/>
<text x="45" y="146.49" font-family="Arial" font-size="11">C1 4698.62</text>
<text x="45" y="163.45" font-family="Arial" font-size="11">FVG</text>
</svg>