<svg xmlns="http://www.w3.org/2000/svg" width="900" height="320" viewBox="0 0 900 320">
<rect width="100%" height="100%" fill="#fbfbf8"/>
<text x="40" y="18" font-family="Arial" font-size="13">v3_sample_021 SHORT FVG</text>
<line x1="40.00" x2="40.00" y1="78.83" y2="86.30" stroke="#176c4c" stroke-width="1"/>
<rect x="35.36" y="80.57" width="9.28" height="1.50" fill="#176c4c" opacity="0.82"/>
<line x1="57.45" x2="57.45" y1="80.57" y2="98.28" stroke="#a23a3a" stroke-width="1"/>
<rect x="52.81" y="80.63" width="9.28" height="17.65" fill="#a23a3a" opacity="0.82"/>
<line x1="74.89" x2="74.89" y1="62.66" y2="99.12" stroke="#176c4c" stroke-width="1"/>
<rect x="70.25" y="65.88" width="9.28" height="32.27" fill="#176c4c" opacity="0.82"/>
<line x1="92.34" x2="92.34" y1="37.93" y2="67.37" stroke="#176c4c" stroke-width="1"/>
<rect x="87.70" y="45.40" width="9.28" height="20.48" fill="#176c4c" opacity="0.82"/>
<line x1="109.79" x2="109.79" y1="38.45" y2="60.34" stroke="#a23a3a" stroke-width="1"/>
<rect x="105.15" y="45.40" width="9.28" height="14.04" fill="#a23a3a" opacity="0.82"/>
<line x1="127.23" x2="127.23" y1="49.33" y2="67.82" stroke="#a23a3a" stroke-width="1"/>
<rect x="122.59" y="59.44" width="9.28" height="5.15" fill="#a23a3a" opacity="0.82"/>
<line x1="144.68" x2="144.68" y1="61.44" y2="74.90" stroke="#a23a3a" stroke-width="1"/>
<rect x="140.04" y="64.34" width="9.28" height="1.50" fill="#a23a3a" opacity="0.82"/>
<line x1="162.13" x2="162.13" y1="59.64" y2="96.03" stroke="#a23a3a" stroke-width="1"/>
<rect x="157.49" y="65.82" width="9.28" height="12.50" fill="#a23a3a" opacity="0.82"/>
<line x1="179.57" x2="179.57" y1="76.83" y2="94.74" stroke="#a23a3a" stroke-width="1"/>
<rect x="174.93" y="78.31" width="9.28" height="11.92" fill="#a23a3a" opacity="0.82"/>
<line x1="197.02" x2="197.02" y1="80.38" y2="98.09" stroke="#a23a3a" stroke-width="1"/>
<rect x="192.38" y="90.04" width="9.28" height="7.99" fill="#a23a3a" opacity="0.82"/>
<line x1="214.47" x2="214.47" y1="81.15" y2="99.05" stroke="#176c4c" stroke-width="1"/>
<rect x="209.83" y="87.14" width="9.28" height="10.76" fill="#176c4c" opacity="0.82"/>
<line x1="231.91" x2="231.91" y1="80.50" y2="94.80" stroke="#176c4c" stroke-width="1"/>
<rect x="227.27" y="86.11" width="9.28" height="1.50" fill="#176c4c" opacity="0.82"/>
<line x1="249.36" x2="249.36" y1="83.79" y2="94.87" stroke="#a23a3a" stroke-width="1"/>
<rect x="244.72" y="86.04" width="9.28" height="4.38" fill="#a23a3a" opacity="0.82"/>
<line x1="266.81" x2="266.81" y1="87.46" y2="107.49" stroke="#a23a3a" stroke-width="1"/>
<rect x="262.17" y="90.42" width="9.28" height="16.42" fill="#a23a3a" opacity="0.82"/>
<line x1="284.26" x2="284.26" y1="104.34" y2="145.68" stroke="#a23a3a" stroke-width="1"/>
<rect x="279.61" y="106.85" width="9.28" height="7.73" fill="#a23a3a" opacity="0.82"/>
<line x1="301.70" x2="301.70" y1="106.59" y2="132.87" stroke="#a23a3a" stroke-width="1"/>
<rect x="297.06" y="114.58" width="9.28" height="2.90" fill="#a23a3a" opacity="0.82"/>
<line x1="319.15" x2="319.15" y1="104.79" y2="128.17" stroke="#a23a3a" stroke-width="1"/>
<rect x="314.51" y="117.47" width="9.28" height="5.80" fill="#a23a3a" opacity="0.82"/>
<line x1="336.60" x2="336.60" y1="113.42" y2="138.21" stroke="#176c4c" stroke-width="1"/>
<rect x="331.96" y="114.96" width="9.28" height="8.70" fill="#176c4c" opacity="0.82"/>
<line x1="354.04" x2="354.04" y1="106.14" y2="132.61" stroke="#176c4c" stroke-width="1"/>
<rect x="349.40" y="113.42" width="9.28" height="1.80" fill="#176c4c" opacity="0.82"/>
<line x1="371.49" x2="371.49" y1="111.48" y2="130.03" stroke="#a23a3a" stroke-width="1"/>
<rect x="366.85" y="113.42" width="9.28" height="12.75" fill="#a23a3a" opacity="0.82"/>
<line x1="388.94" x2="388.94" y1="124.11" y2="149.55" stroke="#a23a3a" stroke-width="1"/>
<rect x="384.30" y="126.17" width="9.28" height="21.51" fill="#a23a3a" opacity="0.82"/>
<line x1="406.38" x2="406.38" y1="108.39" y2="147.29" stroke="#176c4c" stroke-width="1"/>
<rect x="401.74" y="108.46" width="9.28" height="38.84" fill="#176c4c" opacity="0.82"/>
<line x1="423.83" x2="423.83" y1="100.92" y2="129.26" stroke="#a23a3a" stroke-width="1"/>
<rect x="419.19" y="108.46" width="9.28" height="19.58" fill="#a23a3a" opacity="0.82"/>
<line x1="441.28" x2="441.28" y1="125.40" y2="142.92" stroke="#a23a3a" stroke-width="1"/>
<rect x="436.64" y="128.04" width="9.28" height="14.30" fill="#a23a3a" opacity="0.82"/>
<line x1="458.72" x2="458.72" y1="139.05" y2="170.48" stroke="#a23a3a" stroke-width="1"/>
<rect x="454.08" y="142.46" width="9.28" height="27.05" fill="#a23a3a" opacity="0.82"/>
<line x1="476.17" x2="476.17" y1="168.10" y2="242.42" stroke="#a23a3a" stroke-width="1"/>
<rect x="471.53" y="169.52" width="9.28" height="65.18" fill="#a23a3a" opacity="0.82"/>
<line x1="493.62" x2="493.62" y1="216.66" y2="262.07" stroke="#176c4c" stroke-width="1"/>
<rect x="488.98" y="221.36" width="9.28" height="13.33" fill="#176c4c" opacity="0.82"/>
<line x1="511.06" x2="511.06" y1="196.12" y2="224.20" stroke="#176c4c" stroke-width="1"/>
<rect x="506.42" y="205.78" width="9.28" height="15.59" fill="#176c4c" opacity="0.82"/>
<line x1="528.51" x2="528.51" y1="188.06" y2="212.15" stroke="#176c4c" stroke-width="1"/>
<rect x="523.87" y="192.19" width="9.28" height="13.59" fill="#176c4c" opacity="0.82"/>
<line x1="545.96" x2="545.96" y1="175.96" y2="193.41" stroke="#176c4c" stroke-width="1"/>
<rect x="541.32" y="186.71" width="9.28" height="5.47" fill="#176c4c" opacity="0.82"/>
<line x1="563.40" x2="563.40" y1="177.57" y2="204.42" stroke="#a23a3a" stroke-width="1"/>
<rect x="558.76" y="186.71" width="9.28" height="17.20" fill="#a23a3a" opacity="0.82"/>
<line x1="580.85" x2="580.85" y1="190.32" y2="209.77" stroke="#176c4c" stroke-width="1"/>
<rect x="576.21" y="203.46" width="9.28" height="1.50" fill="#176c4c" opacity="0.82"/>
<line x1="598.30" x2="598.30" y1="202.81" y2="229.35" stroke="#a23a3a" stroke-width="1"/>
<rect x="593.66" y="203.39" width="9.28" height="12.62" fill="#a23a3a" opacity="0.82"/>
<line x1="615.74" x2="615.74" y1="213.96" y2="233.79" stroke="#a23a3a" stroke-width="1"/>
<rect x="611.10" y="215.95" width="9.28" height="15.65" fill="#a23a3a" opacity="0.82"/>
<line x1="633.19" x2="633.19" y1="218.21" y2="235.34" stroke="#a23a3a" stroke-width="1"/>
<rect x="628.55" y="231.60" width="9.28" height="1.50" fill="#a23a3a" opacity="0.82"/>
<line x1="650.64" x2="650.64" y1="230.83" y2="247.96" stroke="#a23a3a" stroke-width="1"/>
<rect x="646.00" y="232.76" width="9.28" height="5.47" fill="#a23a3a" opacity="0.82"/>
<line x1="668.09" x2="668.09" y1="233.99" y2="248.80" stroke="#176c4c" stroke-width="1"/>
<rect x="663.44" y="234.82" width="9.28" height="3.41" fill="#176c4c" opacity="0.82"/>
<line x1="685.53" x2="685.53" y1="234.82" y2="261.30" stroke="#a23a3a" stroke-width="1"/>
<rect x="680.89" y="234.82" width="9.28" height="9.92" fill="#a23a3a" opacity="0.82"/>
<line x1="702.98" x2="702.98" y1="225.87" y2="248.99" stroke="#176c4c" stroke-width="1"/>
<rect x="698.34" y="232.25" width="9.28" height="12.50" fill="#176c4c" opacity="0.82"/>
<line x1="720.43" x2="720.43" y1="217.31" y2="235.40" stroke="#176c4c" stroke-width="1"/>
<rect x="715.78" y="220.98" width="9.28" height="11.14" fill="#176c4c" opacity="0.82"/>
<line x1="737.87" x2="737.87" y1="211.70" y2="223.81" stroke="#176c4c" stroke-width="1"/>
<rect x="733.23" y="219.82" width="9.28" height="1.50" fill="#176c4c" opacity="0.82"/>
<line x1="755.32" x2="755.32" y1="214.21" y2="230.12" stroke="#176c4c" stroke-width="1"/>
<rect x="750.68" y="217.76" width="9.28" height="2.06" fill="#176c4c" opacity="0.82"/>
<line x1="772.77" x2="772.77" y1="205.58" y2="223.88" stroke="#a23a3a" stroke-width="1"/>
<rect x="768.13" y="217.76" width="9.28" height="3.35" fill="#a23a3a" opacity="0.82"/>
<line x1="790.21" x2="790.21" y1="201.72" y2="229.09" stroke="#176c4c" stroke-width="1"/>
<rect x="785.57" y="207.58" width="9.28" height="13.53" fill="#176c4c" opacity="0.82"/>
<line x1="807.66" x2="807.66" y1="204.36" y2="227.42" stroke="#a23a3a" stroke-width="1"/>
<rect x="803.02" y="207.58" width="9.28" height="15.84" fill="#a23a3a" opacity="0.82"/>
<line x1="825.11" x2="825.11" y1="213.31" y2="227.29" stroke="#176c4c" stroke-width="1"/>
<rect x="820.47" y="218.72" width="9.28" height="4.70" fill="#176c4c" opacity="0.82"/>
<line x1="842.55" x2="842.55" y1="214.34" y2="228.26" stroke="#a23a3a" stroke-width="1"/>
<rect x="837.91" y="218.72" width="9.28" height="7.66" fill="#a23a3a" opacity="0.82"/>
<line x1="860.00" x2="860.00" y1="222.20" y2="230.70" stroke="#a23a3a" stroke-width="1"/>
<rect x="855.36" y="226.39" width="9.28" height="3.22" fill="#a23a3a" opacity="0.82"/>
<line x1="40" x2="860" y1="105.88" y2="105.88" stroke="#111827" stroke-dasharray="5 4"/>
<rect x="40" y="94.87" width="820" height="9.47" fill="#d97706" opacity="0.20"/>
<text x="45" y="99.88" font-family="Arial" font-size="11">C1 4690.69</text>
<text x="45" y="88.87" font-family="Arial" font-size="11">FVG</text>
</svg>