<svg xmlns="http://www.w3.org/2000/svg" width="900" height="320" viewBox="0 0 900 320">
<rect width="100%" height="100%" fill="#fbfbf8"/>
<text x="40" y="18" font-family="Arial" font-size="13">v3_sample_015 LONG LVN_SANDWICH</text>
<line x1="40.00" x2="40.00" y1="116.43" y2="156.92" stroke="#176c4c" stroke-width="1"/>
<rect x="31.43" y="130.41" width="17.13" height="19.08" fill="#176c4c" opacity="0.82"/>
<line x1="72.80" x2="72.80" y1="105.51" y2="140.61" stroke="#176c4c" stroke-width="1"/>
<rect x="64.23" y="117.60" width="17.13" height="12.67" fill="#176c4c" opacity="0.82"/>
<line x1="105.60" x2="105.60" y1="88.03" y2="128.96" stroke="#a23a3a" stroke-width="1"/>
<rect x="97.03" y="117.60" width="17.13" height="5.39" fill="#a23a3a" opacity="0.82"/>
<line x1="138.40" x2="138.40" y1="62.40" y2="126.77" stroke="#176c4c" stroke-width="1"/>
<rect x="129.83" y="106.38" width="17.13" height="16.60" fill="#176c4c" opacity="0.82"/>
<line x1="171.20" x2="171.20" y1="99.68" y2="150.51" stroke="#a23a3a" stroke-width="1"/>
<rect x="162.63" y="106.38" width="17.13" height="33.79" fill="#a23a3a" opacity="0.82"/>
<line x1="204.00" x2="204.00" y1="92.98" y2="145.12" stroke="#176c4c" stroke-width="1"/>
<rect x="195.43" y="128.52" width="17.13" height="11.65" fill="#176c4c" opacity="0.82"/>
<line x1="236.80" x2="236.80" y1="66.33" y2="171.34" stroke="#176c4c" stroke-width="1"/>
<rect x="228.23" y="80.75" width="17.13" height="47.77" fill="#176c4c" opacity="0.82"/>
<line x1="269.60" x2="269.60" y1="37.93" y2="145.56" stroke="#a23a3a" stroke-width="1"/>
<rect x="261.03" y="80.89" width="17.13" height="64.08" fill="#a23a3a" opacity="0.82"/>
<line x1="302.40" x2="302.40" y1="57.74" y2="149.34" stroke="#176c4c" stroke-width="1"/>
<rect x="293.83" y="69.24" width="17.13" height="76.75" fill="#176c4c" opacity="0.82"/>
<line x1="335.20" x2="335.20" y1="67.06" y2="125.31" stroke="#a23a3a" stroke-width="1"/>
<rect x="326.63" y="69.24" width="17.13" height="41.07" fill="#a23a3a" opacity="0.82"/>
<line x1="368.00" x2="368.00" y1="104.49" y2="150.22" stroke="#a23a3a" stroke-width="1"/>
<rect x="359.43" y="110.31" width="17.13" height="10.19" fill="#a23a3a" opacity="0.82"/>
<line x1="400.80" x2="400.80" y1="110.90" y2="154.59" stroke="#a23a3a" stroke-width="1"/>
<rect x="392.23" y="120.51" width="17.13" height="24.76" fill="#a23a3a" opacity="0.82"/>
<line x1="433.60" x2="433.60" y1="137.55" y2="215.32" stroke="#a23a3a" stroke-width="1"/>
<rect x="425.03" y="145.27" width="17.13" height="55.93" fill="#a23a3a" opacity="0.82"/>
<line x1="466.40" x2="466.40" y1="158.52" y2="211.68" stroke="#176c4c" stroke-width="1"/>
<rect x="457.83" y="181.24" width="17.13" height="20.83" fill="#176c4c" opacity="0.82"/>
<line x1="499.20" x2="499.20" y1="171.77" y2="218.09" stroke="#176c4c" stroke-width="1"/>
<rect x="490.63" y="181.39" width="17.13" height="1.50" fill="#176c4c" opacity="0.82"/>
<line x1="532.00" x2="532.00" y1="180.51" y2="235.71" stroke="#a23a3a" stroke-width="1"/>
<rect x="523.43" y="181.39" width="17.13" height="48.64" fill="#a23a3a" opacity="0.82"/>
<line x1="564.80" x2="564.80" y1="195.22" y2="246.19" stroke="#176c4c" stroke-width="1"/>
<rect x="556.23" y="206.29" width="17.13" height="23.30" fill="#176c4c" opacity="0.82"/>
<line x1="597.60" x2="597.60" y1="182.99" y2="219.69" stroke="#a23a3a" stroke-width="1"/>
<rect x="589.03" y="206.29" width="17.13" height="10.19" fill="#a23a3a" opacity="0.82"/>
<line x1="630.40" x2="630.40" y1="189.10" y2="239.79" stroke="#a23a3a" stroke-width="1"/>
<rect x="621.83" y="215.46" width="17.13" height="8.16" fill="#a23a3a" opacity="0.82"/>
<line x1="663.20" x2="663.20" y1="200.76" y2="237.31" stroke="#176c4c" stroke-width="1"/>
<rect x="654.63" y="201.48" width="17.13" height="22.14" fill="#176c4c" opacity="0.82"/>
<line x1="696.00" x2="696.00" y1="175.56" y2="216.05" stroke="#176c4c" stroke-width="1"/>
<rect x="687.43" y="188.08" width="17.13" height="13.54" fill="#176c4c" opacity="0.82"/>
<line x1="728.80" x2="728.80" y1="143.81" y2="212.84" stroke="#176c4c" stroke-width="1"/>
<rect x="720.23" y="156.77" width="17.13" height="31.60" fill="#176c4c" opacity="0.82"/>
<line x1="761.60" x2="761.60" y1="137.26" y2="182.84" stroke="#176c4c" stroke-width="1"/>
<rect x="753.03" y="151.38" width="17.13" height="5.39" fill="#176c4c" opacity="0.82"/>
<line x1="794.40" x2="794.40" y1="151.38" y2="190.27" stroke="#a23a3a" stroke-width="1"/>
<rect x="785.83" y="151.38" width="17.13" height="24.61" fill="#a23a3a" opacity="0.82"/>
<line x1="827.20" x2="827.20" y1="165.66" y2="234.11" stroke="#a23a3a" stroke-width="1"/>
<rect x="818.63" y="176.00" width="17.13" height="51.12" fill="#a23a3a" opacity="0.82"/>
<line x1="860.00" x2="860.00" y1="221.44" y2="262.07" stroke="#a23a3a" stroke-width="1"/>
<rect x="851.43" y="227.55" width="17.13" height="9.32" fill="#a23a3a" opacity="0.82"/>
<line x1="40" x2="860" y1="169.30" y2="169.30" stroke="#111827" stroke-dasharray="5 4"/>
<rect x="40" y="199.59" width="820" height="14.56" fill="#d97706" opacity="0.20"/>
<text x="45" y="163.30" font-family="Arial" font-size="11">C1 4859.08</text>
<text x="45" y="193.59" font-family="Arial" font-size="11">LVN_SANDWICH</text>
</svg>